<?xml version="1.0" standalone="no"?>
<!DOCTYPE svg PUBLIC "-//W3C//DTD SVG 20010904//EN"
 "http://www.w3.org/TR/2001/REC-SVG-20010904/DTD/svg10.dtd">
<svg version="1.0" xmlns="http://www.w3.org/2000/svg"
 width="84.000000pt" height="88.000000pt" viewBox="0 0 84.000000 88.000000"
 preserveAspectRatio="xMidYMid meet">
<metadata>
Created by potrace 1.16, written by Peter Selinger 2001-2019
</metadata>
<g transform="translate(0.000000,88.000000) scale(0.100000,-0.100000)"
fill="#000000" stroke="none">
<path d="M455 686 c-79 -37 -154 -107 -186 -174 -25 -51 -20 -108 15 -187 45
-100 103 -146 222 -180 75 -21 96 -18 105 15 12 41 10 519 -1 541 -16 29 -74
24 -155 -15z m113 -48 c-3 -21 -8 -23 -51 -20 -46 4 -48 3 -45 -20 3 -20 9
-23 51 -26 46 -3 47 -4 47 -38 l0 -34 -50 0 c-43 0 -50 -3 -50 -20 0 -17 7
-20 51 -20 l50 0 -3 -37 -3 -38 -47 3 c-46 3 -48 2 -48 -22 0 -24 3 -26 50
-26 46 0 50 -2 50 -24 0 -23 -5 -25 -47 -28 -40 -3 -48 -6 -48 -23 0 -17 8
-20 48 -23 47 -3 47 -3 47 -38 0 -32 -2 -35 -22 -29 -51 14 -169 77 -178 96
-10 17 -7 19 30 19 28 0 43 5 47 16 8 23 -14 34 -70 34 -43 0 -49 3 -58 28
-27 70 -18 165 13 134 13 -13 65 -16 92 -6 9 3 16 15 16 26 0 18 -5 20 -40 15
-22 -3 -42 -1 -45 3 -3 5 15 12 40 16 52 7 66 21 40 40 -17 12 -14 16 36 38
71 33 101 34 97 4z"/>
<path d="M332 408 c3 -21 8 -23 56 -22 59 2 67 6 59 29 -5 11 -21 15 -62 15
-53 0 -56 -1 -53 -22z"/>
</g>
</svg>
