<?xml version="1.0" standalone="no"?>
<!DOCTYPE svg PUBLIC "-//W3C//DTD SVG 20010904//EN"
 "http://www.w3.org/TR/2001/REC-SVG-20010904/DTD/svg10.dtd">
<svg version="1.0" xmlns="http://www.w3.org/2000/svg"
 width="94.000000pt" height="92.000000pt" viewBox="0 0 94.000000 92.000000"
 preserveAspectRatio="xMidYMid meet">
<metadata>
Created by potrace 1.16, written by Peter Selinger 2001-2019
</metadata>
<g transform="translate(0.000000,92.000000) scale(0.100000,-0.100000)"
fill="#000000" stroke="none">
<path d="M228 795 c-5 -5 -8 -24 -8 -43 l0 -35 48 6 c26 3 122 11 214 18 92 7
173 16 180 21 24 15 -14 28 -82 28 -36 0 -128 3 -205 6 -77 4 -143 3 -147 -1z"/>
<path d="M720 776 c0 -9 9 -49 20 -88 28 -102 26 -204 -6 -333 -27 -107 -27
-152 1 -124 8 8 32 73 55 145 53 174 55 249 7 344 -23 47 -38 66 -54 68 -16 2
-23 -2 -23 -12z"/>
<path d="M156 744 c-12 -31 -36 -199 -36 -250 0 -50 21 -178 41 -256 6 -24 16
-38 26 -38 13 0 15 9 9 53 -18 154 -18 252 2 347 18 83 19 99 7 127 -15 35
-39 43 -49 17z"/>
<path d="M225 672 c-3 -3 -5 -16 -5 -29 0 -21 4 -23 53 -23 89 0 157 12 157
26 0 8 -10 16 -22 18 -36 8 -177 14 -183 8z"/>
<path d="M500 629 c0 -31 1 -31 38 -24 20 4 61 10 91 14 107 12 51 41 -80 41
-48 0 -49 -1 -49 -31z"/>
<path d="M216 578 c-3 -13 -6 -42 -6 -65 l0 -43 43 1 c71 2 152 22 152 39 0
11 -14 16 -57 18 -32 2 -58 7 -58 12 0 6 8 10 18 10 36 0 92 21 92 35 0 12
-18 15 -89 15 -84 0 -89 -1 -95 -22z"/>
<path d="M484 546 c-12 -32 4 -49 39 -41 17 3 63 11 101 16 38 5 71 11 74 14
13 13 -17 20 -108 23 -85 4 -101 2 -106 -12z"/>
<path d="M508 474 c-5 -4 -8 -20 -8 -36 0 -34 7 -34 131 -12 81 15 102 25 82
37 -15 9 -198 19 -205 11z"/>
<path d="M203 403 c-3 -9 -2 -23 4 -32 6 -10 7 -25 2 -39 -6 -15 -5 -31 2 -44
9 -17 17 -19 47 -14 21 3 63 8 94 12 104 12 102 53 -2 55 -30 1 -68 4 -85 8
-32 8 -32 8 110 27 43 6 59 20 33 28 -7 3 -55 7 -106 10 -79 4 -94 2 -99 -11z"/>
<path d="M500 349 c0 -31 1 -31 38 -25 20 4 67 9 105 13 42 4 67 10 67 18 0
12 -89 25 -172 25 -36 0 -38 -2 -38 -31z"/>
<path d="M575 232 c-38 -9 -114 -15 -205 -16 l-145 -1 -3 -32 -3 -33 106 0
c90 0 124 5 214 31 104 30 131 43 131 60 0 12 -22 10 -95 -9z"/>
</g>
</svg>
