<?xml version="1.0" standalone="no"?>
<!DOCTYPE svg PUBLIC "-//W3C//DTD SVG 20010904//EN"
 "http://www.w3.org/TR/2001/REC-SVG-20010904/DTD/svg10.dtd">
<svg version="1.0" xmlns="http://www.w3.org/2000/svg"
 width="84.000000pt" height="80.000000pt" viewBox="0 0 84.000000 80.000000"
 preserveAspectRatio="xMidYMid meet">
<metadata>
Created by potrace 1.16, written by Peter Selinger 2001-2019
</metadata>
<g transform="translate(0.000000,80.000000) scale(0.100000,-0.100000)"
fill="#000000" stroke="none">
<path d="M378 681 c-39 -13 -108 -53 -108 -63 0 -5 -14 -22 -30 -37 -25 -23
-33 -41 -46 -111 -15 -79 -15 -91 1 -170 10 -47 27 -108 37 -137 22 -59 39
-68 154 -80 53 -5 73 -1 167 32 59 21 117 48 130 61 30 30 57 147 57 247 0 73
-3 85 -41 158 -23 44 -49 84 -59 89 -25 13 -229 22 -262 11z m231 -61 c20 -10
51 -78 51 -111 0 -11 -4 -17 -10 -14 -5 3 -20 -1 -33 -10 -31 -20 -51 -12
-114 47 -28 26 -56 48 -62 48 -15 0 -31 -35 -31 -69 0 -36 -19 -44 -96 -39
-67 4 -58 22 16 28 66 5 86 23 30 28 -58 4 -80 11 -74 25 7 19 70 59 106 67
48 12 196 12 217 0z m-102 -152 c28 -27 33 -39 33 -77 0 -37 -6 -51 -32 -78
-18 -18 -36 -33 -40 -33 -4 0 -8 50 -8 110 0 61 3 110 7 110 4 0 22 -14 40
-32z m135 -68 c-3 -40 1 -70 12 -91 20 -40 20 -83 1 -102 -8 -8 -65 -27 -127
-42 -126 -30 -204 -30 -237 -1 -22 20 -37 74 -25 86 5 5 39 12 76 16 66 7 68
6 77 -20 14 -35 44 -34 77 4 30 33 105 66 130 56 13 -5 15 -2 9 16 -4 13 -10
49 -12 81 -4 43 -2 57 9 57 10 0 12 -15 10 -60z m-232 25 c0 -12 -15 -15 -75
-15 -80 0 -103 16 -32 23 95 8 107 7 107 -8z m0 -57 c0 -22 -3 -23 -80 -20
-44 2 -80 7 -80 12 0 4 35 12 78 17 42 6 78 11 80 12 1 0 2 -9 2 -21z m-22
-65 c-16 -2 -40 -2 -55 0 -16 2 -3 4 27 4 30 0 43 -2 28 -4z"/>
</g>
</svg>
