<?xml version="1.0" standalone="no"?>
<!DOCTYPE svg PUBLIC "-//W3C//DTD SVG 20010904//EN"
 "http://www.w3.org/TR/2001/REC-SVG-20010904/DTD/svg10.dtd">
<svg version="1.0" xmlns="http://www.w3.org/2000/svg"
 width="118.000000pt" height="102.000000pt" viewBox="0 0 118.000000 102.000000"
 preserveAspectRatio="xMidYMid meet">
<metadata>
Created by potrace 1.16, written by Peter Selinger 2001-2019
</metadata>
<g transform="translate(0.000000,102.000000) scale(0.100000,-0.100000)"
fill="#000000" stroke="none">
<path d="M133 805 c-3 -9 -2 -19 2 -23 3 -4 96 -9 205 -12 187 -5 224 -10 206
-27 -4 -5 -98 -10 -209 -13 -182 -5 -202 -7 -205 -22 -6 -33 42 -40 213 -33
136 5 163 4 180 -9 37 -29 -1 -36 -198 -36 -161 0 -188 -2 -194 -16 -13 -33
14 -39 202 -42 151 -3 186 -6 196 -19 11 -13 10 -18 -6 -29 -14 -11 -61 -14
-202 -14 -161 0 -184 -2 -190 -16 -4 -11 1 -23 13 -31 16 -12 49 -14 184 -10
205 6 220 4 220 -34 l0 -29 -205 0 c-174 0 -207 -2 -211 -15 -4 -8 -1 -22 6
-30 10 -12 46 -15 199 -15 102 0 192 -4 199 -9 8 -5 26 -57 40 -117 21 -83 31
-110 45 -112 23 -5 22 37 -3 148 -19 85 -16 108 14 97 13 -5 16 -26 16 -117 0
-90 3 -112 15 -117 9 -3 19 -2 23 1 3 4 8 54 10 111 3 68 9 108 17 115 7 6 86
13 178 17 159 6 201 13 183 30 -4 4 -86 10 -181 13 -186 5 -216 13 -182 47 19
19 112 31 247 32 81 1 120 8 120 22 0 5 -78 9 -173 9 -191 0 -215 6 -204 52 6
23 13 26 74 31 38 4 111 7 163 8 172 2 152 15 -36 23 -100 5 -188 12 -195 17
-11 6 -11 13 -3 26 13 20 85 30 246 32 53 0 103 4 112 7 42 16 1 23 -159 26
-122 2 -178 7 -187 16 -28 28 9 36 183 43 94 4 173 10 176 12 23 24 -35 27
-473 27 -410 0 -465 -2 -471 -15z m507 -60 c0 -25 -14 -34 -24 -16 -8 12 3 41
15 41 5 0 9 -11 9 -25z m0 -95 c0 -23 -4 -30 -20 -30 -14 0 -20 7 -20 23 0 27
7 37 27 37 8 0 13 -12 13 -30z m8 -108 c3 -29 1 -32 -22 -32 -22 0 -26 5 -26
28 0 33 8 44 30 40 9 -2 16 -16 18 -36z m2 -117 c0 -31 -3 -35 -25 -35 -22 0
-25 4 -25 35 0 31 3 35 25 35 22 0 25 -4 25 -35z"/>
</g>
</svg>
