<?xml version="1.0" standalone="no"?>
<!DOCTYPE svg PUBLIC "-//W3C//DTD SVG 20010904//EN"
 "http://www.w3.org/TR/2001/REC-SVG-20010904/DTD/svg10.dtd">
<svg version="1.0" xmlns="http://www.w3.org/2000/svg"
 width="120.000000pt" height="72.000000pt" viewBox="0 0 120.000000 72.000000"
 preserveAspectRatio="xMidYMid meet">
<metadata>
Created by potrace 1.16, written by Peter Selinger 2001-2019
</metadata>
<g transform="translate(0.000000,72.000000) scale(0.100000,-0.100000)"
fill="#000000" stroke="none">
<path d="M545 494 c-83 -75 -109 -84 -232 -85 -119 0 -183 -9 -186 -24 -1 -5
19 -12 44 -15 61 -7 79 -23 79 -71 0 -50 16 -89 36 -89 9 0 38 13 63 29 76 46
87 47 136 12 59 -43 144 -81 179 -81 44 0 396 163 396 184 0 15 -3 17 -236
112 -101 41 -193 74 -206 74 -13 -1 -45 -21 -73 -46z m250 -73 c91 -32 169
-61 172 -65 12 -12 -11 -24 -152 -80 -159 -64 -194 -68 -251 -30 -47 32 -54
41 -54 76 0 15 -4 29 -8 32 -9 6 -160 -60 -183 -80 -25 -22 -29 -17 -29 41 l0
55 125 0 c84 0 125 4 125 11 0 6 -9 13 -20 16 -28 7 -25 16 15 52 22 19 47 31
65 31 15 0 103 -26 195 -59z"/>
</g>
</svg>
