<?xml version="1.0" standalone="no"?>
<!DOCTYPE svg PUBLIC "-//W3C//DTD SVG 20010904//EN"
 "http://www.w3.org/TR/2001/REC-SVG-20010904/DTD/svg10.dtd">
<svg version="1.0" xmlns="http://www.w3.org/2000/svg"
 width="116.000000pt" height="118.000000pt" viewBox="0 0 116.000000 118.000000"
 preserveAspectRatio="xMidYMid meet">
<metadata>
Created by potrace 1.16, written by Peter Selinger 2001-2019
</metadata>
<g transform="translate(0.000000,118.000000) scale(0.100000,-0.100000)"
fill="#000000" stroke="none">
<path d="M977 1024 c-3 -3 -20 -9 -39 -14 -35 -9 -203 -71 -253 -94 -93 -42
-127 -56 -140 -56 -8 0 -56 16 -106 36 l-92 36 -83 -22 c-97 -26 -123 -47
-106 -86 7 -13 26 -33 43 -42 65 -36 66 -38 24 -52 -21 -7 -59 -25 -84 -40
-38 -21 -46 -32 -46 -55 0 -25 6 -30 55 -47 79 -28 207 -20 261 17 21 14 43
25 48 25 5 0 14 7 21 15 22 26 40 18 40 -17 0 -18 14 -91 31 -163 17 -72 33
-140 35 -152 2 -13 11 -23 20 -23 13 0 14 9 8 58 -8 66 -68 339 -76 348 -8 7
-156 -61 -180 -83 -20 -18 -92 -15 -166 8 -40 12 -41 13 -25 31 9 10 48 34 87
52 l71 34 113 -10 c61 -6 115 -8 119 -4 12 11 -19 26 -54 26 -57 0 -234 39
-266 58 -40 23 -46 48 -15 55 13 2 44 13 69 22 l45 18 76 -31 c84 -33 181 -50
201 -34 6 5 36 17 64 26 29 10 55 22 58 27 4 5 14 9 24 9 10 0 24 7 31 15 7 8
20 15 30 15 10 0 44 13 77 29 32 16 60 28 62 26 2 -2 -46 -78 -106 -168 l-110
-164 9 -54 c15 -84 51 -191 68 -199 29 -15 145 -50 163 -50 23 0 22 -8 -13
-79 -35 -70 -48 -121 -31 -121 24 0 109 171 99 201 -2 6 -48 25 -103 43 l-100
32 -22 79 c-34 122 -32 143 27 217 77 98 190 269 190 290 0 12 -7 18 -23 18
-13 0 -26 -3 -30 -6z"/>
<path d="M643 285 c-3 -9 -4 -17 -2 -18 12 -7 114 -42 174 -58 39 -11 78 -22
88 -25 11 -3 17 0 17 10 0 10 -20 21 -57 32 -32 9 -91 29 -130 45 -85 34 -82
33 -90 14z"/>
</g>
</svg>
