<?xml version="1.0" standalone="no"?>
<!DOCTYPE svg PUBLIC "-//W3C//DTD SVG 20010904//EN"
 "http://www.w3.org/TR/2001/REC-SVG-20010904/DTD/svg10.dtd">
<svg version="1.0" xmlns="http://www.w3.org/2000/svg"
 width="162.000000pt" height="86.000000pt" viewBox="0 0 162.000000 86.000000"
 preserveAspectRatio="xMidYMid meet">
<metadata>
Created by potrace 1.16, written by Peter Selinger 2001-2019
</metadata>
<g transform="translate(0.000000,86.000000) scale(0.100000,-0.100000)"
fill="#000000" stroke="none">
<path d="M1327 735 c-25 -28 -87 -123 -87 -133 0 -5 -8 -20 -19 -33 -10 -13
-23 -37 -29 -54 l-10 -30 -1 41 c-1 53 -17 67 -62 54 -19 -6 -74 -13 -124 -16
-49 -3 -144 -15 -209 -25 -97 -16 -121 -18 -128 -7 -5 7 -25 41 -44 76 -20 34
-42 62 -49 62 -13 0 -67 -30 -155 -86 -19 -12 -65 -38 -103 -59 -37 -20 -67
-40 -67 -45 0 -4 -41 -7 -92 -6 -82 1 -93 -1 -96 -17 -9 -45 1 -47 333 -47
304 0 313 -1 318 -20 7 -26 37 -26 37 0 0 19 7 20 169 20 93 0 182 3 199 6 30
6 31 5 37 -40 4 -25 11 -46 17 -46 5 0 16 -17 24 -37 34 -88 105 -183 135
-183 24 0 50 29 101 114 23 39 45 73 48 76 3 3 14 18 24 34 15 24 18 43 14
110 -4 70 -11 96 -54 191 -39 87 -53 110 -69 110 -21 0 -22 -5 -10 -42 4 -17
2 -23 -9 -23 -10 0 -16 12 -18 38 -3 36 -3 37 -21 17z m83 -89 c0 -2 3 -11 6
-20 5 -14 -4 -16 -60 -16 -36 0 -66 2 -66 4 0 27 16 36 66 36 30 0 54 -2 54
-4z m-850 -26 c0 -14 -49 -44 -58 -36 -4 4 4 16 18 26 28 22 40 25 40 10z m33
-61 c24 -43 22 -51 -15 -47 -26 2 -34 8 -36 26 -3 22 13 52 27 52 3 0 14 -14
24 -31z m876 -94 c11 -45 10 -54 -10 -97 l-22 -48 -104 0 c-81 0 -103 3 -103
14 0 10 22 16 83 21 94 7 117 13 117 26 0 5 -47 9 -105 9 -58 0 -105 4 -105 9
0 4 39 11 88 15 103 8 134 15 126 27 -3 5 -50 9 -104 9 -89 0 -124 9 -106 27
3 3 51 11 107 17 65 7 104 16 107 24 3 9 -20 12 -93 12 -73 0 -96 3 -93 13 6
15 34 23 113 34 l60 8 16 -35 c9 -19 21 -57 28 -85z m-999 86 c0 -16 -75 -59
-115 -65 l-40 -7 60 40 c57 39 95 52 95 32z m650 -46 l0 -35 -119 0 c-69 0
-122 -4 -126 -10 -3 -5 -42 -10 -86 -10 -69 0 -79 2 -79 18 0 15 22 21 163 41
89 12 169 24 177 26 8 1 27 3 43 4 24 1 27 -2 27 -34z m-610 5 c0 -5 -9 -10
-21 -10 -11 0 -17 5 -14 10 3 6 13 10 21 10 8 0 14 -4 14 -10z m140 -48 c0 -4
-17 -6 -37 -4 -59 5 -63 10 -10 11 26 1 47 -3 47 -7z m760 -177 c0 -3 -7 -17
-16 -30 -14 -22 -21 -24 -60 -18 -28 4 -49 1 -58 -7 -13 -10 -16 -7 -22 14 -3
13 -3 30 1 35 6 11 155 16 155 6z m-50 -80 c0 -19 -26 -55 -39 -53 -26 5 -25
37 1 47 26 11 38 13 38 6z"/>
</g>
</svg>
