<?xml version="1.0" standalone="no"?>
<!DOCTYPE svg PUBLIC "-//W3C//DTD SVG 20010904//EN"
 "http://www.w3.org/TR/2001/REC-SVG-20010904/DTD/svg10.dtd">
<svg version="1.0" xmlns="http://www.w3.org/2000/svg"
 width="112.000000pt" height="140.000000pt" viewBox="0 0 112.000000 140.000000"
 preserveAspectRatio="xMidYMid meet">
<metadata>
Created by potrace 1.16, written by Peter Selinger 2001-2019
</metadata>
<g transform="translate(0.000000,140.000000) scale(0.100000,-0.100000)"
fill="#000000" stroke="none">
<path d="M568 1214 c-18 -25 -45 -52 -60 -60 -16 -8 -28 -20 -28 -26 0 -7 -13
2 -30 20 -25 28 -33 31 -50 22 -24 -13 -17 -31 25 -70 37 -34 64 -91 71 -147
l6 -48 -44 49 c-35 39 -49 48 -66 44 -21 -6 -22 -3 -22 47 0 38 -4 55 -15 59
-20 7 -33 -21 -41 -88 -4 -31 -10 -56 -14 -56 -5 0 -18 19 -29 43 -16 34 -21
63 -21 130 0 158 -38 113 -67 -79 -5 -31 -6 -31 -50 -26 -61 7 -55 -16 11 -40
25 -10 58 -26 73 -35 26 -17 86 -93 79 -100 -2 -2 -25 6 -51 17 -54 23 -90 23
-90 0 0 -10 28 -24 85 -42 67 -22 93 -36 122 -67 38 -40 58 -91 58 -151 0 -21
13 -56 30 -85 36 -61 36 -63 5 -57 l-25 4 0 -148 c0 -159 5 -194 25 -194 9 0
15 22 19 68 3 37 9 94 13 127 7 56 8 51 13 -65 5 -117 6 -125 25 -125 18 0 20
8 25 85 l5 85 8 -80 c4 -43 12 -84 17 -89 24 -24 33 17 38 173 3 89 9 161 13
161 5 0 18 18 29 39 16 32 19 52 14 98 -5 49 -2 65 18 102 31 59 61 79 160
111 67 22 84 31 86 48 4 28 -27 29 -87 2 -73 -34 -81 -22 -25 39 24 28 56 48
105 67 70 26 91 46 72 65 -7 7 -23 5 -48 -5 -21 -9 -40 -14 -43 -11 -8 8 -21
95 -21 146 -1 32 -6 49 -16 52 -22 9 -28 -9 -30 -87 -2 -70 -36 -176 -56 -176
-5 0 -9 27 -9 59 0 42 -5 64 -16 76 -9 9 -20 13 -24 8 -5 -4 -10 -57 -12 -118
-3 -96 -7 -117 -31 -167 -15 -31 -46 -73 -69 -93 -52 -48 -58 -39 -61 94 -2
89 0 102 20 128 12 15 39 52 59 81 35 48 36 54 22 69 -15 14 -20 10 -64 -51
-43 -60 -64 -79 -64 -58 1 47 35 154 60 188 32 45 39 84 16 84 -8 0 -30 -21
-48 -46z m-188 -243 c0 -5 25 -34 55 -65 64 -64 75 -88 75 -156 0 -87 -26 -77
-102 39 -44 67 -48 79 -48 132 0 33 4 59 10 59 6 0 10 -4 10 -9z"/>
<path d="M647 473 c-4 -3 -7 -74 -7 -158 0 -152 6 -180 36 -168 11 4 14 39 14
169 0 152 -1 164 -18 164 -10 0 -22 -3 -25 -7z"/>
</g>
</svg>
