<?xml version="1.0" standalone="no"?>
<!DOCTYPE svg PUBLIC "-//W3C//DTD SVG 20010904//EN"
 "http://www.w3.org/TR/2001/REC-SVG-20010904/DTD/svg10.dtd">
<svg version="1.0" xmlns="http://www.w3.org/2000/svg"
 width="76.000000pt" height="82.000000pt" viewBox="0 0 76.000000 82.000000"
 preserveAspectRatio="xMidYMid meet">
<metadata>
Created by potrace 1.16, written by Peter Selinger 2001-2019
</metadata>
<g transform="translate(0.000000,82.000000) scale(0.100000,-0.100000)"
fill="#000000" stroke="none">
<path d="M246 720 c-73 -22 -115 -113 -103 -224 3 -28 10 -97 16 -154 6 -56
16 -115 23 -130 28 -59 208 -88 358 -57 47 9 96 24 109 32 22 14 23 17 8 28
-15 11 -16 29 -6 206 11 211 5 267 -35 294 -16 12 -55 15 -181 14 -88 0 -173
-5 -189 -9z m349 -57 c8 -21 7 -361 -2 -415 -7 -45 -20 -49 -171 -51 -106 -1
-190 14 -204 37 -4 6 -8 32 -8 58 0 45 1 47 33 52 17 3 95 8 171 11 131 5 173
15 160 36 -3 5 -79 9 -169 9 -195 0 -215 5 -215 56 0 31 3 35 18 29 9 -4 96
-10 193 -13 132 -3 178 -2 184 8 4 6 3 15 -1 20 -7 7 -314 40 -368 40 -12 0
-16 10 -16 35 0 44 17 80 44 93 11 6 93 11 182 11 145 1 163 -1 169 -16z"/>
</g>
</svg>
