<?xml version="1.0" standalone="no"?>
<!DOCTYPE svg PUBLIC "-//W3C//DTD SVG 20010904//EN"
 "http://www.w3.org/TR/2001/REC-SVG-20010904/DTD/svg10.dtd">
<svg version="1.0" xmlns="http://www.w3.org/2000/svg"
 width="70.000000pt" height="106.000000pt" viewBox="0 0 70.000000 106.000000"
 preserveAspectRatio="xMidYMid meet">
<metadata>
Created by potrace 1.16, written by Peter Selinger 2001-2019
</metadata>
<g transform="translate(0.000000,106.000000) scale(0.100000,-0.100000)"
fill="#000000" stroke="none">
<path d="M345 953 c-44 -22 -94 -73 -116 -115 -21 -40 -66 -221 -75 -302 -7
-62 16 -162 51 -221 13 -22 56 -74 94 -115 50 -55 72 -72 80 -64 17 16 0 52
-50 110 -23 27 -49 64 -57 84 -26 61 -52 173 -52 227 0 62 24 183 46 229 18
38 106 124 127 124 8 0 35 -16 60 -35 55 -42 89 -108 113 -220 15 -69 15 -90
5 -155 -17 -99 -61 -209 -118 -293 -25 -37 -43 -70 -39 -75 9 -8 129 119 173
181 57 82 66 191 28 352 -31 133 -44 164 -97 226 -66 78 -112 95 -173 62z"/>
<path d="M335 769 c-50 -44 -66 -89 -72 -196 -6 -102 6 -141 67 -215 26 -31
38 -38 67 -38 49 0 117 73 134 143 25 104 -9 245 -72 302 -48 43 -78 44 -124
4z m125 -79 c21 -38 25 -58 25 -130 0 -75 -3 -91 -29 -138 -16 -29 -35 -57
-43 -64 -19 -15 -47 12 -81 81 -59 120 -14 307 72 299 25 -2 36 -12 56 -48z"/>
</g>
</svg>
