<?xml version="1.0" standalone="no"?>
<!DOCTYPE svg PUBLIC "-//W3C//DTD SVG 20010904//EN"
 "http://www.w3.org/TR/2001/REC-SVG-20010904/DTD/svg10.dtd">
<svg version="1.0" xmlns="http://www.w3.org/2000/svg"
 width="94.000000pt" height="94.000000pt" viewBox="0 0 94.000000 94.000000"
 preserveAspectRatio="xMidYMid meet">
<metadata>
Created by potrace 1.16, written by Peter Selinger 2001-2019
</metadata>
<g transform="translate(0.000000,94.000000) scale(0.100000,-0.100000)"
fill="#000000" stroke="none">
<path d="M145 798 c-10 -32 -55 -338 -55 -378 0 -25 7 -81 15 -125 8 -44 14
-86 15 -92 0 -22 29 -14 34 10 3 12 7 112 10 222 2 110 9 227 16 261 7 33 10
73 6 87 -7 28 -33 37 -41 15z"/>
<path d="M260 801 c-31 -5 -35 -10 -35 -36 l0 -30 108 2 c85 2 107 0 107 -11
0 -23 -29 -39 -73 -40 -40 -1 -42 -3 -45 -33 -2 -20 -10 -34 -21 -38 -18 -5
-41 -44 -41 -70 0 -7 13 -23 30 -35 31 -22 40 -50 17 -50 -8 0 -22 -9 -32 -20
-17 -19 -17 -20 14 -49 36 -34 39 -51 11 -76 -21 -19 -26 -50 -10 -60 5 -3 26
4 47 15 21 11 41 20 46 20 9 0 107 -90 107 -99 0 -10 -179 5 -233 19 -58 15
-74 6 -60 -37 15 -44 64 -56 233 -57 120 -1 162 3 244 23 137 32 140 35 156
194 12 120 11 135 -10 267 -13 77 -28 147 -34 155 -19 27 -212 55 -360 54 -72
-1 -147 -4 -166 -8z m467 -73 c12 -16 37 -128 30 -135 -3 -2 -19 3 -37 12 -29
15 -31 20 -26 51 5 26 4 34 -8 34 -8 0 -18 -4 -21 -10 -15 -23 -64 -4 -129 52
-6 4 33 8 86 8 65 0 99 -4 105 -12z m-192 -52 c49 -28 54 -48 20 -70 -32 -21
-59 -16 -100 19 l-30 25 28 25 c34 30 32 30 82 1z m-100 -98 l28 -22 -29 -23
c-16 -12 -36 -23 -45 -23 -21 0 -69 38 -69 54 0 40 71 49 115 14z m254 3 l25
-19 -35 -21 c-41 -25 -72 -27 -93 -5 -21 21 -20 30 6 48 30 21 68 20 97 -3z
m75 -57 c16 -15 21 -69 10 -98 -5 -12 -14 -8 -50 21 -24 21 -44 40 -44 44 0 5
58 48 67 49 1 0 9 -7 17 -16z m-206 -20 c31 -21 28 -28 -22 -55 -38 -20 -48
-21 -70 -11 -34 15 -33 43 2 64 34 22 61 22 90 2z m125 -79 c20 -14 37 -30 37
-34 0 -5 -13 -14 -30 -21 -16 -7 -41 -23 -54 -35 -14 -13 -52 -38 -84 -56
l-60 -32 -26 29 c-14 16 -26 36 -26 45 -1 40 66 54 88 19 13 -22 47 -27 58 -8
4 6 -4 21 -19 34 -15 13 -27 27 -27 31 0 13 63 52 85 52 11 1 37 -10 58 -24z
m-255 -22 c3 -17 -3 -24 -22 -29 -31 -7 -56 10 -56 38 0 16 6 19 38 16 29 -2
38 -7 40 -25z m352 -113 c0 -58 -3 -71 -19 -80 -26 -13 -221 -13 -221 0 0 13
208 150 227 150 9 0 13 -19 13 -70z"/>
</g>
</svg>
