<?xml version="1.0" standalone="no"?>
<!DOCTYPE svg PUBLIC "-//W3C//DTD SVG 20010904//EN"
 "http://www.w3.org/TR/2001/REC-SVG-20010904/DTD/svg10.dtd">
<svg version="1.0" xmlns="http://www.w3.org/2000/svg"
 width="60.000000pt" height="124.000000pt" viewBox="0 0 60.000000 124.000000"
 preserveAspectRatio="xMidYMid meet">
<metadata>
Created by potrace 1.16, written by Peter Selinger 2001-2019
</metadata>
<g transform="translate(0.000000,124.000000) scale(0.100000,-0.100000)"
fill="#000000" stroke="none">
<path d="M188 1015 c-3 -3 -1 -29 4 -58 18 -97 0 -207 -76 -447 -57 -181 -60
-233 -15 -285 17 -19 40 -35 51 -35 19 0 18 3 -8 37 -32 42 -35 84 -14 162
l11 43 92 -7 c51 -4 102 -11 115 -16 13 -5 36 -9 51 -9 58 0 79 -72 33 -114
-33 -29 -113 -57 -182 -63 -49 -4 -70 -10 -70 -19 0 -18 197 -20 232 -3 43 21
88 84 94 132 6 42 4 49 -24 76 -23 23 -40 31 -67 31 l-37 0 7 58 c3 31 13 79
21 106 18 63 18 111 -1 183 -8 31 -15 81 -15 110 0 47 -2 53 -21 53 -21 0 -22
-3 -15 -77 4 -42 14 -92 22 -112 14 -33 13 -42 -3 -98 -20 -71 -21 -71 -111
-51 l-54 13 5 40 c2 22 12 78 22 125 14 69 15 96 7 143 -13 70 -34 101 -54 82z
m115 -447 c38 -2 47 -6 47 -21 0 -13 -5 -17 -17 -14 -10 3 -46 11 -80 17 -39
8 -63 18 -63 26 0 10 8 10 33 3 17 -5 53 -10 80 -11z m-1 -62 c35 0 38 -2 38
-28 0 -32 2 -32 -107 -16 -84 11 -88 13 -77 43 6 14 15 15 58 8 28 -4 68 -7
88 -7z"/>
</g>
</svg>
