<?xml version="1.0" standalone="no"?>
<!DOCTYPE svg PUBLIC "-//W3C//DTD SVG 20010904//EN"
 "http://www.w3.org/TR/2001/REC-SVG-20010904/DTD/svg10.dtd">
<svg version="1.0" xmlns="http://www.w3.org/2000/svg"
 width="104.000000pt" height="124.000000pt" viewBox="0 0 104.000000 124.000000"
 preserveAspectRatio="xMidYMid meet">
<metadata>
Created by potrace 1.16, written by Peter Selinger 2001-2019
</metadata>
<g transform="translate(0.000000,124.000000) scale(0.100000,-0.100000)"
fill="#000000" stroke="none">
<path d="M863 1088 c-4 -8 -52 -42 -105 -76 -95 -61 -135 -84 -270 -156 l-68
-36 -158 0 -159 0 -7 -72 c-6 -68 -1 -214 10 -287 l5 -34 143 6 c137 5 145 5
177 -17 19 -12 59 -35 89 -50 30 -16 80 -42 110 -59 30 -17 64 -35 75 -41 11
-6 46 -30 78 -54 55 -40 77 -50 77 -34 0 12 -13 26 -65 68 -39 32 -276 192
-399 269 -14 9 -15 24 -10 107 l7 96 62 45 c86 62 94 65 150 58 45 -5 50 -9
53 -33 3 -25 0 -28 -25 -28 -30 -1 -63 -20 -63 -39 0 -6 18 -11 45 -11 41 0
45 -2 45 -25 0 -24 -28 -47 -53 -44 -26 3 -37 -2 -37 -16 0 -16 7 -18 58 -15
31 1 32 0 32 -39 0 -40 0 -40 -42 -43 -48 -3 -62 -31 -18 -36 69 -8 70 -8 70
-67 0 -30 5 -55 10 -55 6 0 10 27 10 60 l0 60 56 0 c47 0 55 3 52 18 -2 13
-16 18 -53 22 -49 5 -50 6 -47 35 4 36 11 41 73 49 65 9 62 24 -3 28 -51 3
-53 4 -56 35 -3 31 -2 31 49 40 56 8 68 26 22 30 -61 5 -73 12 -73 43 0 29 2
30 46 30 38 0 45 3 42 18 -2 12 -15 18 -45 20 -28 2 -43 9 -47 20 -3 9 -8 22
-11 28 -3 6 32 39 77 74 l83 62 7 -313 c4 -173 10 -352 12 -399 3 -47 5 -95 6
-107 0 -15 5 -21 14 -17 19 7 23 102 28 554 l3 335 -27 3 c-14 2 -30 -3 -35
-10z m-203 -208 c0 -13 -7 -20 -20 -20 -25 0 -25 9 -2 26 22 17 22 17 22 -6z
m-323 -130 c1 -14 4 -80 5 -148 l3 -122 -107 0 -108 0 0 114 c0 62 3 127 6
144 7 35 13 37 124 37 73 0 75 -1 77 -25z"/>
</g>
</svg>
