<?xml version="1.0" standalone="no"?>
<!DOCTYPE svg PUBLIC "-//W3C//DTD SVG 20010904//EN"
 "http://www.w3.org/TR/2001/REC-SVG-20010904/DTD/svg10.dtd">
<svg version="1.0" xmlns="http://www.w3.org/2000/svg"
 width="94.000000pt" height="104.000000pt" viewBox="0 0 94.000000 104.000000"
 preserveAspectRatio="xMidYMid meet">
<metadata>
Created by potrace 1.16, written by Peter Selinger 2001-2019
</metadata>
<g transform="translate(0.000000,104.000000) scale(0.100000,-0.100000)"
fill="#000000" stroke="none">
<path d="M405 913 c-94 -8 -225 -36 -237 -51 -10 -11 -13 -67 -13 -216 1 -192
2 -205 29 -291 15 -49 30 -100 33 -113 7 -29 68 -80 113 -92 61 -17 175 -12
232 10 29 11 88 30 131 41 42 12 80 26 83 31 10 16 26 466 19 525 -5 38 -15
61 -38 88 -50 58 -180 83 -352 68z m198 -50 c48 -4 67 -10 67 -20 0 -8 9 -26
20 -41 37 -52 51 -136 57 -349 l6 -201 -39 -10 c-128 -31 -229 -44 -302 -40
-93 5 -139 27 -164 78 -45 91 -78 480 -45 522 41 53 212 79 400 61z"/>
<path d="M400 700 c0 -6 -8 -14 -17 -17 -34 -13 -54 -46 -63 -99 -8 -50 -7
-59 14 -93 13 -21 35 -44 47 -53 36 -23 100 -30 119 -14 8 8 26 16 39 18 37 5
65 60 65 126 -1 44 -7 59 -32 90 -16 20 -37 36 -46 36 -9 -1 -16 2 -16 7 0 5
-25 9 -55 9 -31 0 -55 -4 -55 -10z"/>
</g>
</svg>
