<?xml version="1.0" standalone="no"?>
<!DOCTYPE svg PUBLIC "-//W3C//DTD SVG 20010904//EN"
 "http://www.w3.org/TR/2001/REC-SVG-20010904/DTD/svg10.dtd">
<svg version="1.0" xmlns="http://www.w3.org/2000/svg"
 width="116.000000pt" height="122.000000pt" viewBox="0 0 116.000000 122.000000"
 preserveAspectRatio="xMidYMid meet">
<metadata>
Created by potrace 1.16, written by Peter Selinger 2001-2019
</metadata>
<g transform="translate(0.000000,122.000000) scale(0.100000,-0.100000)"
fill="#000000" stroke="none">
<path d="M789 1093 c-3 -25 2 -278 7 -330 9 -95 24 -75 24 32 l0 95 134 0 c74
0 137 4 140 8 3 5 -56 12 -131 16 -76 4 -139 9 -141 11 -3 2 -4 43 -3 90 1 70
-1 85 -14 85 -8 0 -15 -3 -16 -7z"/>
<path d="M670 1053 c0 -36 -3 -40 -37 -50 -21 -6 -68 -22 -104 -36 -49 -18
-70 -22 -78 -14 -8 8 -11 6 -11 -6 0 -10 -8 -17 -20 -17 -11 0 -19 5 -17 11 1
6 -4 14 -11 16 -10 4 -13 -2 -10 -18 2 -19 -2 -25 -19 -27 -19 -3 -23 1 -23
23 0 15 -4 24 -10 20 -5 -3 -10 -19 -10 -36 0 -40 -18 -37 -26 6 -3 19 -11 35
-16 35 -6 0 -8 -14 -4 -35 6 -28 4 -35 -9 -35 -11 0 -15 10 -15 35 0 19 -5 35
-11 35 -7 0 -10 -14 -7 -35 l4 -35 -92 0 c-55 0 -96 -4 -99 -11 -4 -6 -5 -12
-3 -14 2 -3 57 -5 121 -6 97 -1 119 -4 127 -18 9 -15 9 -14 10 2 0 26 30 21
31 -5 l0 -23 9 23 c10 25 50 31 50 7 0 -8 5 -15 10 -15 6 0 10 7 10 15 0 21
27 19 39 -2 10 -17 10 -17 11 0 0 15 11 17 79 17 43 0 93 3 110 6 l31 7 1 -89
1 -89 9 60 c13 89 7 327 -8 333 -9 2 -13 -9 -13 -35z m3 -105 c2 -29 3 -56 0
-60 -2 -5 -51 -8 -109 -8 -92 0 -104 2 -104 18 0 12 28 29 98 59 53 23 100 42
103 42 4 1 9 -23 12 -51z m-233 -53 c0 -8 -7 -15 -15 -15 -26 0 -18 20 13 29
1 1 2 -6 2 -14z"/>
<path d="M704 510 c-11 -17 -53 -64 -93 -105 l-73 -75 -144 0 -144 0 0 -42 c0
-24 3 -59 6 -79 l6 -37 72 4 c39 2 98 6 131 9 l60 5 60 -70 c33 -38 63 -69 67
-70 3 0 11 21 17 48 5 26 21 99 35 162 31 140 47 280 32 280 -6 0 -20 -14 -32
-30z m2 -91 c-8 -35 -27 -120 -43 -188 l-27 -124 -47 52 -46 51 -131 0 -132 0
0 43 0 44 138 6 c75 3 144 9 153 12 9 3 45 44 79 91 34 47 64 83 67 81 2 -3
-3 -33 -11 -68z"/>
</g>
</svg>
