<?xml version="1.0" standalone="no"?>
<!DOCTYPE svg PUBLIC "-//W3C//DTD SVG 20010904//EN"
 "http://www.w3.org/TR/2001/REC-SVG-20010904/DTD/svg10.dtd">
<svg version="1.0" xmlns="http://www.w3.org/2000/svg"
 width="114.000000pt" height="144.000000pt" viewBox="0 0 114.000000 144.000000"
 preserveAspectRatio="xMidYMid meet">
<metadata>
Created by potrace 1.16, written by Peter Selinger 2001-2019
</metadata>
<g transform="translate(0.000000,144.000000) scale(0.100000,-0.100000)"
fill="#000000" stroke="none">
<path d="M673 1433 c9 -2 23 -2 30 0 6 3 -1 5 -18 5 -16 0 -22 -2 -12 -5z"/>
<path d="M738 1433 c6 -2 18 -2 25 0 6 3 1 5 -13 5 -14 0 -19 -2 -12 -5z"/>
<path d="M508 1223 c-1 -5 -2 -28 -2 -53 l-1 -45 -142 -3 c-113 -2 -142 -5
-147 -17 -15 -39 1 -44 147 -47 l142 -3 3 -28 c4 -35 35 -34 40 1 2 13 9 25
15 27 7 3 103 8 214 13 112 5 205 11 209 14 20 21 -18 28 -155 28 -81 0 -176
3 -210 6 l-61 7 0 41 c0 23 -5 47 -12 54 -13 13 -37 16 -40 5z"/>
<path d="M508 964 l-12 -26 -148 4 -148 4 0 -33 0 -33 155 0 155 0 0 -32 c0
-47 10 -78 25 -78 17 0 25 23 25 74 l0 43 198 7 c108 4 201 12 207 17 22 22
-27 29 -197 29 -182 0 -208 3 -208 25 0 11 -20 25 -36 25 -2 0 -10 -12 -16
-26z"/>
<path d="M351 823 c-20 -38 -132 -401 -138 -444 -8 -68 19 -138 78 -203 69
-75 105 -86 283 -85 78 1 152 4 165 8 18 5 30 20 43 56 28 81 23 155 -12 155
-21 0 -30 -27 -30 -96 0 -75 -14 -84 -135 -84 -112 0 -219 15 -252 36 -14 9
-23 24 -23 39 0 14 27 129 61 257 57 219 73 307 57 323 -23 24 -37 -17 -88
-256 -63 -300 -59 -287 -77 -263 -8 10 -13 44 -13 83 0 53 11 98 55 231 67
201 75 229 68 246 -7 19 -30 17 -42 -3z"/>
<path d="M435 551 c-15 -50 -53 -265 -48 -278 3 -8 12 -12 19 -9 9 3 14 -2 14
-14 0 -27 28 -25 40 3 8 18 9 15 7 -18 -3 -56 23 -54 43 3 16 48 20 49 130 30
54 -9 73 -9 82 0 20 20 -2 31 -92 47 -45 8 -85 17 -87 19 -3 2 0 13 6 24 6 11
12 46 13 79 3 52 1 58 -17 58 -11 0 -33 17 -50 38 -33 41 -51 47 -60 18z"/>
</g>
</svg>
