<?xml version="1.0" standalone="no"?>
<!DOCTYPE svg PUBLIC "-//W3C//DTD SVG 20010904//EN"
 "http://www.w3.org/TR/2001/REC-SVG-20010904/DTD/svg10.dtd">
<svg version="1.0" xmlns="http://www.w3.org/2000/svg"
 width="118.000000pt" height="130.000000pt" viewBox="0 0 118.000000 130.000000"
 preserveAspectRatio="xMidYMid meet">
<metadata>
Created by potrace 1.16, written by Peter Selinger 2001-2019
</metadata>
<g transform="translate(0.000000,130.000000) scale(0.100000,-0.100000)"
fill="#000000" stroke="none">
<path d="M627 1104 c-9 -9 -9 -805 0 -898 l6 -68 38 6 c21 3 50 11 64 18 25
11 25 12 27 142 1 72 2 149 2 171 1 22 -1 168 -4 325 l-5 285 -45 6 c-25 3
-52 9 -61 13 -8 4 -18 3 -22 0z m102 -628 l1 -278 -22 6 c-13 3 -29 6 -35 6
-10 0 -13 90 -13 414 l0 415 28 3 27 3 6 -145 c4 -80 7 -270 8 -424z"/>
<path d="M790 875 c-25 -30 -8 -48 60 -63 62 -13 67 -16 109 -73 63 -86 69
-115 40 -175 -13 -26 -40 -65 -60 -86 -32 -34 -41 -38 -85 -38 -60 0 -77 -10
-72 -41 3 -22 7 -24 47 -21 24 1 56 12 71 22 16 11 39 20 52 20 18 0 30 13 56
60 39 70 49 138 32 208 -17 74 -54 115 -142 161 -87 46 -91 47 -108 26z"/>
<path d="M785 770 c-10 -16 2 -27 34 -33 35 -7 91 -79 91 -116 0 -15 -9 -41
-20 -58 -18 -30 -31 -37 -85 -45 -22 -4 -33 -34 -17 -50 16 -16 119 37 136 70
31 59 28 122 -9 183 -10 16 -93 59 -114 59 -5 0 -13 -4 -16 -10z"/>
</g>
</svg>
