<?xml version="1.0" standalone="no"?>
<!DOCTYPE svg PUBLIC "-//W3C//DTD SVG 20010904//EN"
 "http://www.w3.org/TR/2001/REC-SVG-20010904/DTD/svg10.dtd">
<svg version="1.0" xmlns="http://www.w3.org/2000/svg"
 width="138.000000pt" height="80.000000pt" viewBox="0 0 138.000000 80.000000"
 preserveAspectRatio="xMidYMid meet">
<metadata>
Created by potrace 1.16, written by Peter Selinger 2001-2019
</metadata>
<g transform="translate(0.000000,80.000000) scale(0.100000,-0.100000)"
fill="#000000" stroke="none">
<path d="M640 627 l-65 -32 -197 -3 c-148 -3 -200 -7 -208 -17 -19 -23 26 -30
203 -28 92 1 167 -2 167 -7 0 -20 -33 -25 -190 -30 -175 -6 -200 -11 -178 -37
11 -14 35 -15 170 -9 98 4 158 3 158 -2 0 -18 -32 -22 -180 -22 -131 0 -149
-2 -154 -17 -15 -37 20 -45 160 -38 92 5 138 4 153 -4 43 -24 8 -31 -149 -31
-162 0 -194 -8 -155 -37 22 -15 126 -17 235 -3 48 7 77 7 84 0 20 -20 -9 -25
-154 -30 -122 -4 -152 -8 -166 -22 -16 -16 -15 -17 11 -24 15 -4 93 -4 173 -1
85 3 157 1 171 -5 52 -19 -6 -28 -171 -26 -130 2 -168 0 -182 -11 -37 -30 0
-36 252 -38 367 -4 383 -4 435 13 26 9 68 32 93 51 57 43 72 48 169 63 162 25
165 50 6 50 -108 0 -108 0 -153 -34 -58 -45 -170 -106 -192 -106 -16 0 -17 14
-14 184 2 101 6 188 10 192 4 4 40 -16 80 -43 91 -63 134 -77 223 -74 90 2
207 23 212 37 4 13 -85 24 -192 24 -92 0 -132 14 -238 85 -108 72 -138 76
-227 32z m72 -83 c4 -21 7 -86 8 -144 1 -58 4 -135 8 -171 l8 -66 -46 14 c-81
24 -132 78 -144 154 -6 35 -3 45 15 62 20 18 20 21 5 32 -9 7 -16 18 -16 26 1
31 121 143 145 135 5 -1 13 -20 17 -42z"/>
</g>
</svg>
