<?xml version="1.0" standalone="no"?>
<!DOCTYPE svg PUBLIC "-//W3C//DTD SVG 20010904//EN"
 "http://www.w3.org/TR/2001/REC-SVG-20010904/DTD/svg10.dtd">
<svg version="1.0" xmlns="http://www.w3.org/2000/svg"
 width="84.000000pt" height="110.000000pt" viewBox="0 0 84.000000 110.000000"
 preserveAspectRatio="xMidYMid meet">
<metadata>
Created by potrace 1.16, written by Peter Selinger 2001-2019
</metadata>
<g transform="translate(0.000000,110.000000) scale(0.100000,-0.100000)"
fill="#000000" stroke="none">
<path d="M314 911 c-12 -5 -24 -16 -27 -23 -6 -17 11 -722 18 -755 5 -21 11
-23 61 -23 87 0 94 7 94 94 l0 74 63 14 c52 11 63 17 65 36 3 21 0 22 -62 22
-59 0 -66 2 -66 20 0 23 21 35 74 43 41 7 58 21 49 44 -3 9 -24 13 -64 13
l-59 0 0 80 0 79 38 10 c20 5 49 12 65 15 18 4 27 13 27 26 0 18 -7 20 -66 20
-57 0 -65 2 -62 17 2 12 20 21 54 29 61 13 74 20 74 40 0 11 -14 14 -60 14
-59 0 -60 1 -60 28 0 41 -10 70 -26 76 -29 11 -110 15 -130 7z m87 -113 c4
-31 8 -187 10 -345 l4 -288 -32 -3 -33 -3 0 335 c0 184 3 342 6 351 4 9 14 15
23 13 12 -2 18 -19 22 -60z"/>
</g>
</svg>
