<?xml version="1.0" standalone="no"?>
<!DOCTYPE svg PUBLIC "-//W3C//DTD SVG 20010904//EN"
 "http://www.w3.org/TR/2001/REC-SVG-20010904/DTD/svg10.dtd">
<svg version="1.0" xmlns="http://www.w3.org/2000/svg"
 width="118.000000pt" height="114.000000pt" viewBox="0 0 118.000000 114.000000"
 preserveAspectRatio="xMidYMid meet">
<metadata>
Created by potrace 1.16, written by Peter Selinger 2001-2019
</metadata>
<g transform="translate(0.000000,114.000000) scale(0.100000,-0.100000)"
fill="#000000" stroke="none">
<path d="M616 968 c-3 -7 -7 -47 -9 -88 -4 -58 -12 -92 -40 -151 -19 -42 -43
-79 -52 -83 -9 -3 -58 -6 -108 -6 -51 0 -99 -5 -107 -10 -12 -7 -14 -28 -12
-102 2 -51 6 -96 8 -100 5 -7 98 -4 185 7 l36 5 5 -48 c3 -26 14 -68 26 -94
17 -39 26 -48 46 -48 23 0 25 -4 28 -57 2 -45 7 -59 20 -61 15 -3 18 8 20 80
l3 83 167 125 c92 69 168 132 168 141 0 21 -24 42 -180 149 -74 51 -139 97
-145 102 -5 5 -12 44 -15 86 -4 63 -8 77 -23 80 -9 2 -19 -2 -21 -10z m123
-250 c36 -23 74 -49 84 -57 17 -15 17 -15 -2 -23 -19 -7 -21 -16 -21 -101 0
-90 -1 -94 -25 -105 -23 -11 -25 -10 -24 16 0 15 3 21 6 15 2 -7 11 -13 19
-13 12 0 14 20 12 112 l-3 112 -34 8 c-18 5 -36 6 -40 3 -3 -4 -5 -67 -3 -140
2 -74 1 -143 -2 -153 -6 -16 -93 -82 -110 -82 -20 0 -42 197 -30 267 8 42 9
32 14 -79 3 -84 9 -131 18 -140 24 -24 32 13 32 162 0 117 -3 150 -16 168 -18
26 -12 54 9 46 8 -3 17 2 20 10 9 24 25 20 96 -26z m8 -160 c-2 -18 -4 -4 -4
32 0 36 2 50 4 33 2 -18 2 -48 0 -65z m-233 35 c-1 -7 -2 -40 -2 -73 l-2 -61
-82 3 -83 3 0 65 0 65 40 6 c64 10 130 6 129 -8z m411 1 c14 -9 25 -22 25 -28
0 -14 -55 -48 -64 -39 -12 12 -3 83 10 83 3 0 16 -7 29 -16z"/>
<path d="M645 658 c-3 -13 -4 -79 -3 -148 3 -117 4 -125 23 -125 19 0 20 7 20
145 0 129 -2 145 -17 148 -11 2 -19 -5 -23 -20z"/>
</g>
</svg>
