<?xml version="1.0" standalone="no"?>
<!DOCTYPE svg PUBLIC "-//W3C//DTD SVG 20010904//EN"
 "http://www.w3.org/TR/2001/REC-SVG-20010904/DTD/svg10.dtd">
<svg version="1.0" xmlns="http://www.w3.org/2000/svg"
 width="152.000000pt" height="106.000000pt" viewBox="0 0 152.000000 106.000000"
 preserveAspectRatio="xMidYMid meet">
<metadata>
Created by potrace 1.16, written by Peter Selinger 2001-2019
</metadata>
<g transform="translate(0.000000,106.000000) scale(0.100000,-0.100000)"
fill="#000000" stroke="none">
<path d="M563 1023 c-8 -20 1 -950 9 -958 12 -12 122 32 129 51 4 11 8 67 8
127 1 86 4 107 15 107 8 0 18 -5 21 -10 4 -6 25 -20 48 -31 34 -18 54 -21 126
-17 83 4 143 24 246 80 19 11 58 31 98 50 10 5 44 23 75 39 140 75 150 91 82
134 -22 14 -44 25 -48 25 -5 0 -20 8 -33 19 -13 10 -71 42 -129 71 -58 28
-118 59 -135 68 -16 9 -50 20 -75 25 -133 25 -166 22 -238 -27 l-49 -33 -7 66
c-3 36 -6 98 -6 137 l0 71 -66 10 c-52 7 -67 7 -71 -4z m100 -90 c6 -45 10
-384 8 -670 l-1 -123 -35 0 -35 0 0 414 0 415 23 4 c12 2 25 5 28 6 4 0 9 -20
12 -46z m397 -204 c36 -12 81 -29 100 -39 19 -10 86 -43 148 -74 61 -31 112
-61 112 -67 0 -9 -90 -54 -285 -144 -92 -42 -123 -48 -217 -41 -87 6 -123 17
-180 58 -28 19 -28 20 -28 133 l0 114 30 21 c83 59 210 75 320 39z"/>
<path d="M813 657 c-36 -24 -50 -54 -35 -69 7 -7 21 -3 44 13 27 19 46 24 99
24 61 0 95 -10 159 -46 8 -5 25 -13 37 -18 41 -18 33 -30 -49 -70 -70 -35 -92
-41 -144 -41 -52 0 -67 4 -92 25 -41 34 -64 33 -60 -2 2 -22 13 -33 48 -51 82
-43 194 -16 335 78 17 11 41 20 54 20 17 0 22 4 17 16 -3 9 -6 18 -6 20 0 2
-11 4 -24 4 -13 0 -34 8 -47 18 -13 11 -63 38 -110 60 -102 50 -171 55 -226
19z"/>
</g>
</svg>
