<?xml version="1.0" standalone="no"?>
<!DOCTYPE svg PUBLIC "-//W3C//DTD SVG 20010904//EN"
 "http://www.w3.org/TR/2001/REC-SVG-20010904/DTD/svg10.dtd">
<svg version="1.0" xmlns="http://www.w3.org/2000/svg"
 width="78.000000pt" height="100.000000pt" viewBox="0 0 78.000000 100.000000"
 preserveAspectRatio="xMidYMid meet">
<metadata>
Created by potrace 1.16, written by Peter Selinger 2001-2019
</metadata>
<g transform="translate(0.000000,100.000000) scale(0.100000,-0.100000)"
fill="#000000" stroke="none">
<path d="M340 911 c-67 -45 -93 -94 -131 -243 -46 -184 -44 -244 10 -352 42
-84 146 -206 175 -206 24 0 20 13 -29 78 -84 116 -125 233 -125 362 0 104 64
264 122 304 34 24 69 19 116 -15 51 -37 84 -105 108 -218 15 -73 16 -93 5
-160 -17 -99 -53 -187 -114 -278 -27 -41 -46 -77 -42 -81 7 -7 92 79 156 160
74 93 85 192 44 377 -31 141 -52 188 -106 241 -72 69 -120 77 -189 31z"/>
<path d="M358 711 c4 -85 1 -121 -12 -160 -20 -61 -20 -109 -2 -179 15 -55 31
-82 48 -82 10 0 9 14 -13 127 -11 54 -10 67 5 105 37 91 27 288 -15 296 -15 3
-16 -9 -11 -107z"/>
<path d="M454 678 c-1 -73 -4 -162 -8 -198 -8 -79 18 -183 48 -188 21 -4 20
13 -5 121 -12 51 -11 66 4 125 30 118 18 272 -21 272 -15 0 -17 -16 -18 -132z"/>
</g>
</svg>
