<?xml version="1.0" standalone="no"?>
<!DOCTYPE svg PUBLIC "-//W3C//DTD SVG 20010904//EN"
 "http://www.w3.org/TR/2001/REC-SVG-20010904/DTD/svg10.dtd">
<svg version="1.0" xmlns="http://www.w3.org/2000/svg"
 width="76.000000pt" height="110.000000pt" viewBox="0 0 76.000000 110.000000"
 preserveAspectRatio="xMidYMid meet">
<metadata>
Created by potrace 1.16, written by Peter Selinger 2001-2019
</metadata>
<g transform="translate(0.000000,110.000000) scale(0.100000,-0.100000)"
fill="#000000" stroke="none">
<path d="M521 968 c-18 -5 -43 -15 -55 -22 -11 -7 -40 -19 -63 -26 -24 -7 -43
-17 -43 -21 0 -4 -15 -15 -33 -24 -44 -21 -141 -116 -157 -154 -7 -17 -16 -31
-21 -31 -5 0 -9 -9 -9 -20 0 -10 -9 -24 -20 -30 -21 -11 -26 -39 -11 -68 5 -9
14 -43 20 -76 21 -115 108 -251 187 -291 22 -11 41 -23 44 -27 3 -4 27 -12 53
-18 26 -5 55 -14 65 -20 15 -8 149 -40 169 -40 4 0 10 196 12 437 3 396 2 436
-12 430 -9 -3 -19 -2 -22 3 -8 12 -59 11 -104 -2z m89 -94 l0 -56 -82 3 c-69
3 -83 1 -83 -11 0 -12 17 -16 83 -18 l82 -3 0 -75 0 -76 -82 3 c-72 4 -83 2
-86 -13 -3 -16 6 -18 82 -18 l86 0 0 -76 0 -76 -86 7 c-81 7 -86 6 -82 -11 3
-17 12 -19 86 -16 l82 2 0 -66 0 -66 -82 3 c-72 4 -83 2 -86 -13 -3 -15 8 -18
90 -20 l93 -3 3 -64 c2 -35 -1 -68 -6 -73 -10 -10 -92 10 -92 22 0 4 -17 11
-37 15 -63 11 -160 65 -203 111 -22 24 -40 47 -40 52 0 5 35 12 77 16 100 8
121 26 31 26 -37 0 -70 5 -73 10 -3 6 -21 10 -40 10 -31 0 -35 4 -44 38 -6 20
-11 45 -11 55 0 9 -4 17 -9 17 -5 0 -12 27 -16 60 -7 57 -6 62 24 95 26 30 31
33 31 15 0 -18 6 -20 73 -20 39 0 82 3 95 6 40 11 23 24 -30 24 -29 0 -69 3
-89 6 -34 6 -35 8 -25 30 13 27 33 34 97 34 25 0 54 7 65 15 17 13 15 14 -36
15 l-55 0 25 20 c33 27 131 73 205 98 33 11 61 20 63 21 1 0 2 -24 2 -55z"/>
<path d="M227 533 c-4 -3 -7 -15 -7 -26 0 -19 5 -19 91 -15 111 7 147 28 47
28 -37 0 -70 5 -73 10 -7 11 -48 14 -58 3z"/>
</g>
</svg>
