<?xml version="1.0" standalone="no"?>
<!DOCTYPE svg PUBLIC "-//W3C//DTD SVG 20010904//EN"
 "http://www.w3.org/TR/2001/REC-SVG-20010904/DTD/svg10.dtd">
<svg version="1.0" xmlns="http://www.w3.org/2000/svg"
 width="132.000000pt" height="122.000000pt" viewBox="0 0 132.000000 122.000000"
 preserveAspectRatio="xMidYMid meet">
<metadata>
Created by potrace 1.16, written by Peter Selinger 2001-2019
</metadata>
<g transform="translate(0.000000,122.000000) scale(0.100000,-0.100000)"
fill="#000000" stroke="none">
<path d="M417 1089 c-118 -10 -119 -10 -115 -61 l3 -43 60 4 c32 1 70 7 84 13
14 5 136 14 271 20 231 9 277 16 254 36 -24 22 -406 43 -557 31z"/>
<path d="M1070 1054 c0 -9 7 -28 15 -42 49 -90 77 -301 56 -422 -13 -77 -55
-278 -70 -334 -9 -39 -7 -56 7 -56 9 0 20 28 82 205 73 210 83 261 78 379 -4
92 -8 108 -42 176 -21 41 -45 83 -53 93 -21 22 -73 23 -73 1z"/>
<path d="M191 983 c-5 -21 -14 -76 -20 -123 -6 -47 -14 -105 -17 -130 -13
-104 -7 -179 27 -325 11 -49 28 -123 37 -163 12 -55 20 -72 32 -69 8 2 13 10
11 18 -2 8 -6 28 -8 44 -1 17 -7 50 -12 75 -31 141 -22 375 20 525 10 38 19
81 19 95 0 25 -50 90 -69 90 -6 0 -15 -17 -20 -37z"/>
<path d="M302 853 c3 -34 6 -38 33 -41 16 -2 45 1 65 7 19 6 78 15 130 19 75
5 95 10 95 22 0 17 -77 27 -233 29 l-93 1 3 -37z"/>
<path d="M747 873 c-10 -9 -9 -71 1 -77 8 -4 94 5 177 20 17 3 47 8 68 11 74
10 24 33 -74 33 -26 0 -51 5 -54 10 -7 11 -108 14 -118 3z"/>
<path d="M307 774 c-4 -4 -7 -22 -7 -41 0 -27 4 -33 23 -33 40 -1 257 55 254
65 -4 11 -259 20 -270 9z"/>
<path d="M748 722 c-25 -3 -28 -8 -28 -38 0 -33 1 -34 38 -33 20 0 73 4 117
10 44 5 96 10 115 12 24 1 36 7 38 20 3 14 -4 17 -35 18 -21 0 -78 4 -128 7
-49 4 -102 6 -117 4z"/>
<path d="M293 679 c-18 -18 -16 -78 2 -85 16 -6 215 22 255 36 14 4 37 11 53
14 63 14 18 25 -115 29 -79 2 -152 7 -163 11 -12 4 -25 2 -32 -5z"/>
<path d="M748 594 c-5 -4 -8 -26 -8 -50 0 -41 18 -63 41 -49 5 4 55 13 111 21
114 16 188 34 188 46 0 4 -1 8 -2 9 -3 1 -136 14 -258 25 -36 3 -68 3 -72 -2z"/>
<path d="M293 493 c-15 -6 -17 -59 -3 -68 5 -3 54 -1 107 5 54 7 109 13 123
15 40 4 80 17 80 25 0 14 -279 35 -307 23z"/>
<path d="M740 410 c0 -18 6 -33 15 -36 8 -4 79 0 158 7 113 11 142 17 142 29
0 20 -59 28 -202 29 l-113 1 0 -30z"/>
<path d="M283 374 c-2 -6 -3 -27 -1 -46 3 -32 4 -33 48 -31 120 6 312 41 314
58 1 6 -59 13 -149 17 -82 4 -163 9 -178 11 -17 2 -31 -1 -34 -9z"/>
<path d="M890 236 c-30 -6 -62 -15 -70 -21 -8 -5 -130 -12 -270 -15 l-255 -5
2 -40 c1 -22 2 -43 2 -47 1 -11 297 -9 356 3 75 15 78 15 108 28 16 6 33 11
38 11 10 0 106 39 167 67 67 31 28 41 -78 19z"/>
</g>
</svg>
