<?xml version="1.0" standalone="no"?>
<!DOCTYPE svg PUBLIC "-//W3C//DTD SVG 20010904//EN"
 "http://www.w3.org/TR/2001/REC-SVG-20010904/DTD/svg10.dtd">
<svg version="1.0" xmlns="http://www.w3.org/2000/svg"
 width="104.000000pt" height="98.000000pt" viewBox="0 0 104.000000 98.000000"
 preserveAspectRatio="xMidYMid meet">
<metadata>
Created by potrace 1.16, written by Peter Selinger 2001-2019
</metadata>
<g transform="translate(0.000000,98.000000) scale(0.100000,-0.100000)"
fill="#000000" stroke="none">
<path d="M838 825 c-36 -30 -71 -55 -77 -55 -6 0 -15 -9 -21 -20 -6 -11 -17
-20 -24 -20 -8 0 -26 -14 -40 -30 -24 -29 -27 -30 -65 -20 -22 6 -43 15 -46
20 -4 6 -10 8 -15 5 -4 -3 -21 2 -36 10 -16 8 -36 15 -44 15 -9 0 -25 6 -36
14 -11 8 -49 22 -83 31 -35 9 -73 23 -85 31 -12 7 -44 17 -71 20 l-48 7 8
-309 c4 -170 7 -317 7 -326 0 -10 4 -18 10 -18 7 0 9 -16 6 -43 -4 -36 -2 -46
15 -57 17 -10 22 -9 29 4 5 9 14 16 21 16 7 0 32 14 57 30 25 17 53 36 64 43
10 6 36 24 57 40 21 15 42 27 45 27 3 0 39 21 80 48 40 26 89 57 109 70 l37
22 46 -38 c26 -22 61 -46 77 -55 17 -8 43 -29 59 -46 17 -17 34 -31 38 -31 5
0 8 142 8 316 -1 210 2 320 9 327 16 16 13 27 -7 27 -10 0 -47 -25 -84 -55z
m42 -134 l0 -109 -37 10 c-21 6 -47 17 -58 24 -11 8 -27 14 -35 14 -9 0 -25 6
-35 14 -19 14 -19 15 -1 35 11 12 24 21 29 21 5 0 19 9 31 20 38 37 91 79 99
80 4 0 7 -49 7 -109z m-650 80 c0 -5 17 -12 38 -16 22 -3 51 -13 67 -21 15 -8
54 -21 88 -30 33 -8 69 -21 81 -29 11 -7 44 -18 71 -23 28 -6 64 -18 80 -26
17 -9 38 -16 48 -16 10 0 37 -8 60 -19 23 -10 57 -22 74 -26 18 -3 35 -10 38
-15 3 -5 8 -70 12 -144 6 -143 1 -162 -33 -111 -9 14 -21 25 -26 25 -8 0 -65
42 -135 100 -14 12 -6 40 11 40 6 0 22 -9 36 -20 14 -11 34 -20 44 -20 17 0
15 5 -13 34 -18 19 -30 39 -27 45 4 6 0 11 -11 11 -10 0 -49 29 -88 65 -73 67
-115 84 -115 45 0 -11 5 -20 11 -20 15 0 129 -102 129 -117 0 -6 -13 -20 -30
-30 -16 -9 -30 -21 -30 -25 0 -5 -11 -13 -25 -18 -27 -10 -32 -29 -13 -48 13
-13 -5 -29 -67 -63 -16 -8 -51 -27 -76 -41 -44 -24 -47 -24 -58 -6 -9 14 -8
23 5 43 9 14 20 25 24 25 4 0 19 12 34 27 28 28 59 48 88 59 10 3 16 10 13 14
-3 4 6 19 20 31 29 28 31 39 8 39 -10 0 -59 41 -109 91 -85 85 -93 90 -113 78
-29 -19 -31 -86 -11 -323 6 -74 6 -125 0 -135 -5 -9 -10 -13 -10 -8 0 4 -22
-9 -50 -28 -27 -19 -55 -35 -60 -35 -8 0 -11 72 -9 228 2 277 9 422 20 422 5
0 9 -4 9 -9z m225 -227 c36 -36 64 -71 62 -77 -6 -20 -43 -19 -83 2 -21 12
-43 21 -49 21 -5 0 -11 27 -13 60 -1 33 2 60 7 60 5 0 39 -30 76 -66z m-30
-104 c17 -8 32 -15 34 -17 6 -4 -53 -59 -71 -66 -22 -8 -33 9 -19 27 6 7 9 21
5 30 -7 18 2 49 14 44 4 -2 21 -10 37 -18z m235 -36 c0 -7 -43 -43 -52 -44 -4
0 3 11 15 24 22 23 37 32 37 20z"/>
</g>
</svg>
