<?xml version="1.0" standalone="no"?>
<!DOCTYPE svg PUBLIC "-//W3C//DTD SVG 20010904//EN"
 "http://www.w3.org/TR/2001/REC-SVG-20010904/DTD/svg10.dtd">
<svg version="1.0" xmlns="http://www.w3.org/2000/svg"
 width="102.000000pt" height="116.000000pt" viewBox="0 0 102.000000 116.000000"
 preserveAspectRatio="xMidYMid meet">
<metadata>
Created by potrace 1.16, written by Peter Selinger 2001-2019
</metadata>
<g transform="translate(0.000000,116.000000) scale(0.100000,-0.100000)"
fill="#000000" stroke="none">
<path d="M415 1013 c-49 -9 -105 -26 -105 -33 0 -4 -16 -11 -36 -14 -19 -4
-38 -14 -41 -21 -3 -8 -9 -12 -14 -9 -5 3 -10 -3 -10 -13 -1 -10 -2 -25 -3
-33 0 -8 -11 -16 -24 -18 -27 -4 -35 -22 -52 -122 -7 -41 -17 -79 -22 -84 -12
-14 -10 -124 2 -131 6 -4 10 -14 9 -23 -1 -10 0 -24 3 -32 3 -8 11 -35 17 -60
7 -25 16 -54 21 -65 4 -11 14 -41 20 -67 7 -27 16 -48 20 -48 4 0 10 -9 13
-20 3 -11 14 -20 25 -20 10 0 32 -10 48 -22 26 -21 40 -23 137 -23 68 0 110 4
115 11 4 6 32 17 62 24 30 7 62 18 70 25 8 6 34 17 58 24 23 6 42 15 42 20 0
4 18 14 40 21 37 12 40 16 50 66 6 30 15 56 19 59 5 2 14 39 21 82 7 43 17 82
21 88 12 12 12 142 0 149 -5 3 -12 21 -15 41 -6 32 -59 144 -74 155 -4 3 -15
19 -24 35 -16 28 -22 31 -105 41 -101 13 -258 22 -288 17z m348 -49 c3 -3 1
-14 -5 -24 -9 -14 -9 -22 0 -32 20 -25 82 -151 82 -168 0 -9 5 -21 11 -27 7
-7 9 -33 5 -69 -3 -33 -10 -115 -15 -183 -12 -140 -14 -151 -35 -151 -8 0 -27
-5 -43 -12 -15 -6 -35 -13 -43 -15 -120 -25 -176 -39 -182 -47 -3 -5 -55 -11
-115 -14 -104 -4 -110 -3 -147 22 -21 14 -44 26 -51 26 -14 0 -21 40 -31 180
-4 52 -12 98 -18 102 -8 5 -7 11 2 20 6 6 12 30 12 52 0 74 32 228 49 234 9 3
18 9 21 12 3 4 19 14 35 23 96 52 96 52 250 55 83 2 154 8 160 13 10 10 48 12
58 3z"/>
<path d="M353 831 c-18 -15 -23 -30 -23 -63 0 -24 4 -48 9 -54 6 -5 12 -90 14
-189 3 -156 6 -180 20 -183 9 -2 59 34 114 82 75 65 100 82 108 72 6 -7 28
-19 50 -27 22 -7 44 -17 50 -21 5 -4 24 -8 42 -8 l33 0 0 150 0 150 -27 0
c-46 -1 -105 -17 -133 -38 l-26 -20 -54 49 c-30 27 -59 49 -64 49 -5 0 -23 16
-42 35 -38 40 -41 41 -71 16z m75 -81 c16 -16 33 -30 38 -30 6 0 25 -13 44
-29 33 -27 35 -32 36 -96 l1 -66 -55 -42 c-30 -23 -62 -50 -71 -59 -8 -10 -19
-18 -23 -18 -5 0 -8 83 -8 185 0 102 2 185 5 185 3 0 18 -13 33 -30z m266 -57
c-14 -30 -16 -160 -4 -183 16 -30 8 -34 -35 -20 -43 14 -54 34 -31 59 9 10 16
23 16 29 0 19 -28 14 -40 -8 -6 -11 -15 -20 -20 -20 -11 0 -13 50 -4 75 6 14
8 13 21 -5 8 -11 18 -20 24 -20 12 0 12 37 -1 45 -20 12 -9 36 23 50 45 20 61
19 51 -2z"/>
</g>
</svg>
