<?xml version="1.0" standalone="no"?>
<!DOCTYPE svg PUBLIC "-//W3C//DTD SVG 20010904//EN"
 "http://www.w3.org/TR/2001/REC-SVG-20010904/DTD/svg10.dtd">
<svg version="1.0" xmlns="http://www.w3.org/2000/svg"
 width="104.000000pt" height="114.000000pt" viewBox="0 0 104.000000 114.000000"
 preserveAspectRatio="xMidYMid meet">
<metadata>
Created by potrace 1.16, written by Peter Selinger 2001-2019
</metadata>
<g transform="translate(0.000000,114.000000) scale(0.100000,-0.100000)"
fill="#000000" stroke="none">
<path d="M380 990 c-8 -5 -33 -17 -55 -28 -102 -49 -105 -51 -105 -88 0 -30
-3 -34 -25 -34 -19 0 -26 -6 -30 -27 -4 -16 -10 -35 -15 -44 -32 -61 -37 -283
-7 -351 8 -18 22 -64 32 -103 33 -136 44 -146 170 -165 44 -7 90 -17 102 -23
16 -7 32 -5 63 7 22 9 49 16 60 16 11 0 43 11 72 24 29 13 64 27 78 31 14 4
34 13 45 20 11 6 37 17 58 24 25 9 37 19 37 31 0 10 4 21 9 24 4 3 16 45 26
93 10 49 23 94 28 101 14 18 15 231 1 240 -6 4 -19 28 -30 54 -10 27 -22 48
-26 48 -5 0 -8 5 -8 12 0 6 -15 33 -32 59 -38 54 -42 56 -220 66 -65 3 -118
10 -118 15 0 11 -90 9 -110 -2z m400 -61 c0 -3 -5 -10 -11 -16 -8 -8 -7 -19 4
-40 8 -15 32 -59 52 -98 l38 -70 -2 -145 c-1 -79 -6 -149 -11 -155 -5 -6 -10
-35 -12 -65 l-3 -54 -55 -13 c-30 -8 -64 -18 -75 -23 -11 -5 -49 -15 -85 -21
-36 -7 -71 -17 -78 -22 -13 -11 -172 -14 -202 -5 -14 5 -22 7 -83 30 -18 7
-27 18 -27 32 0 12 -4 26 -9 32 -5 5 -15 70 -21 145 -11 133 -4 241 19 294 5
11 14 39 20 63 7 23 15 42 19 42 4 0 8 -96 9 -213 1 -116 5 -240 8 -274 l7
-63 136 1 c260 0 304 22 65 33 -87 4 -162 11 -168 17 -5 5 11 9 45 10 30 0
103 2 162 2 70 1 111 6 119 15 10 10 -6 12 -82 12 -53 0 -100 5 -105 10 -6 6
-43 14 -82 17 -124 10 -68 21 103 20 90 0 167 2 171 5 18 18 -20 26 -163 32
-87 4 -162 11 -168 17 -11 11 0 12 175 13 133 1 186 11 144 27 -14 5 -4 9 34
14 65 9 68 25 5 25 -34 0 -44 3 -33 10 29 18 -6 28 -119 32 -75 3 -116 9 -119
16 -2 7 -13 12 -25 12 -17 0 -19 2 -8 9 8 5 29 7 45 4 55 -11 171 -11 183 -1
7 6 19 8 28 5 8 -4 17 -2 20 3 4 6 -23 10 -67 10 -42 0 -79 5 -85 11 -7 7 -49
15 -95 19 -79 7 -76 7 62 10 212 3 266 27 75 32 -107 4 -94 14 29 23 112 9
102 27 -19 33 -47 3 -83 7 -80 11 4 3 45 8 92 11 56 3 88 9 91 18 3 9 -20 12
-92 12 -52 0 -98 4 -101 10 -3 6 -41 10 -83 10 l-76 0 34 25 c19 14 40 25 47
25 7 0 13 4 13 9 0 5 8 11 17 13 29 5 373 3 373 -3z m-363 -126 c-20 -2 -52
-2 -70 0 -17 2 0 4 38 4 39 0 53 -2 32 -4z m33 -47 c0 -2 -13 -6 -30 -8 -16
-3 -30 -1 -30 4 0 4 14 8 30 8 17 0 30 -2 30 -4z m-90 -196 c0 -5 -13 -10 -30
-10 -16 0 -30 5 -30 10 0 6 14 10 30 10 17 0 30 -4 30 -10z"/>
</g>
</svg>
