<?xml version="1.0" standalone="no"?>
<!DOCTYPE svg PUBLIC "-//W3C//DTD SVG 20010904//EN"
 "http://www.w3.org/TR/2001/REC-SVG-20010904/DTD/svg10.dtd">
<svg version="1.0" xmlns="http://www.w3.org/2000/svg"
 width="178.000000pt" height="132.000000pt" viewBox="0 0 178.000000 132.000000"
 preserveAspectRatio="xMidYMid meet">
<metadata>
Created by potrace 1.16, written by Peter Selinger 2001-2019
</metadata>
<g transform="translate(0.000000,132.000000) scale(0.100000,-0.100000)"
fill="#000000" stroke="none">
<path d="M189 1193 c-17 -4 -32 -60 -19 -68 6 -4 376 -4 585 -1 66 1 70 0 73
-23 2 -13 -1 -28 -6 -33 -6 -6 -140 -11 -327 -14 -174 -2 -321 -7 -326 -10
-14 -8 -11 -54 4 -59 6 -2 153 -6 326 -8 l314 -3 3 -27 c4 -41 -17 -51 -94
-43 -37 4 -176 4 -310 0 -261 -8 -261 -7 -248 -60 5 -18 13 -25 29 -24 12 1
156 2 320 1 l298 -1 -3 -46 -3 -47 -314 -4 c-173 -2 -318 -6 -322 -9 -15 -9
-10 -62 6 -68 9 -3 157 -5 330 -3 351 2 324 8 321 -68 l-1 -30 -321 -3 c-269
-2 -324 -5 -334 -17 -17 -21 -4 -62 22 -69 29 -7 391 -6 526 3 57 3 107 4 111
1 5 -3 15 -43 25 -88 9 -46 20 -91 25 -100 4 -10 14 -46 21 -82 15 -73 26
-100 41 -100 12 0 3 87 -11 105 -4 6 -8 17 -8 25 0 8 -8 55 -17 103 -9 48 -15
102 -13 120 3 30 6 32 46 35 28 2 44 -1 47 -10 3 -7 6 -89 7 -183 3 -143 5
-170 18 -170 13 0 16 29 20 177 3 97 7 179 10 182 3 3 136 10 295 17 160 6
294 15 299 19 27 26 -16 30 -300 30 l-295 0 3 63 3 62 285 12 c337 13 300 10
300 28 0 13 -39 15 -295 15 l-295 0 0 53 c0 54 0 54 38 65 20 5 127 13 237 16
248 8 317 14 312 30 -5 13 9 13 -320 15 l-268 1 3 48 3 47 230 8 c301 10 355
15 355 33 0 12 -46 14 -290 14 l-290 0 0 45 c0 36 3 45 18 45 9 0 80 3 157 6
336 14 398 19 402 31 3 8 -22 13 -84 15 -137 5 -1336 7 -1354 1z m779 -105 c3
-36 2 -38 -28 -38 -36 0 -48 20 -31 56 8 18 18 24 34 22 18 -2 23 -10 25 -40z
m-5 -105 c3 -5 7 -24 9 -43 3 -35 3 -35 -39 -36 l-43 -1 0 43 c0 43 0 44 34
44 19 0 37 -3 39 -7z m17 -209 l0 -54 -49 0 c-53 0 -61 8 -61 60 0 41 20 56
69 52 l41 -4 0 -54z m-12 -120 c19 -6 22 -13 22 -61 l0 -54 -57 3 -58 3 -3 44
c-2 24 -1 50 2 57 6 15 54 18 94 8z"/>
</g>
</svg>
