<?xml version="1.0" standalone="no"?>
<!DOCTYPE svg PUBLIC "-//W3C//DTD SVG 20010904//EN"
 "http://www.w3.org/TR/2001/REC-SVG-20010904/DTD/svg10.dtd">
<svg version="1.0" xmlns="http://www.w3.org/2000/svg"
 width="112.000000pt" height="112.000000pt" viewBox="0 0 112.000000 112.000000"
 preserveAspectRatio="xMidYMid meet">
<metadata>
Created by potrace 1.16, written by Peter Selinger 2001-2019
</metadata>
<g transform="translate(0.000000,112.000000) scale(0.100000,-0.100000)"
fill="#000000" stroke="none">
<path d="M546 981 c-3 -4 -29 -11 -58 -14 -74 -8 -231 -91 -227 -120 3 -27 -2
-36 -23 -39 -24 -3 -38 -43 -53 -149 -5 -38 -14 -55 -50 -90 -25 -24 -45 -53
-45 -63 0 -17 5 -15 35 14 l35 34 0 -31 c0 -18 5 -35 10 -38 6 -4 10 -12 9
-18 -1 -7 1 -25 6 -40 6 -23 3 -33 -19 -56 -14 -15 -26 -30 -26 -34 0 -13 27
-7 41 9 11 13 15 11 30 -21 29 -60 33 -94 13 -116 -19 -21 -12 -38 9 -21 11 9
16 6 25 -13 7 -16 23 -28 42 -31 40 -8 57 -29 40 -49 -20 -24 -3 -31 21 -9 18
16 37 19 115 19 52 0 94 -4 94 -9 0 -12 49 2 79 23 14 10 44 24 66 31 21 7 60
24 86 36 26 13 54 24 63 24 9 0 16 4 16 9 0 5 8 11 19 14 13 3 20 18 26 53 4
27 10 54 15 59 4 6 13 35 19 66 10 47 19 64 56 97 25 23 45 49 45 58 0 14 -7
11 -33 -14 -18 -18 -35 -32 -37 -32 -10 0 -9 69 0 75 12 7 14 45 2 45 -15 0
-7 55 11 68 9 7 17 23 17 34 l0 21 -23 -21 c-13 -12 -26 -22 -29 -22 -2 0 -17
25 -33 56 -23 46 -26 60 -17 75 7 10 12 26 12 35 0 16 -1 16 -18 1 -25 -23
-31 -21 -42 7 -6 18 -19 26 -49 31 -25 4 -41 12 -41 21 0 19 -24 18 -40 -1 -9
-11 -16 -13 -24 -5 -5 5 -31 10 -57 10 -31 0 -55 6 -72 20 -28 22 -33 24 -41
11z m106 -81 c39 0 40 -1 25 -18 -10 -10 -17 -24 -17 -30 0 -6 -10 -17 -22
-23 -13 -6 -105 -93 -205 -192 l-183 -181 -1 39 c-5 141 -4 142 135 283 100
101 126 122 151 123 16 0 39 4 50 8 11 5 22 4 23 0 2 -5 22 -9 44 -9z m169
-14 c-10 -12 -9 -20 5 -42 l18 -26 -285 -278 c-316 -309 -291 -294 -302 -173
l-4 53 244 240 244 240 46 0 c38 0 44 -2 34 -14z m-454 -86 c-50 -49 -92 -88
-94 -87 -1 2 0 19 3 38 5 28 17 42 71 79 60 41 88 57 104 59 4 1 -34 -39 -84
-89z m493 -35 c0 -8 4 -15 8 -15 10 0 32 -59 32 -86 0 -18 -67 -87 -387 -398
l-101 -99 -47 12 c-26 6 -56 20 -67 31 -20 19 -20 19 145 184 90 91 169 166
173 166 5 0 59 50 119 110 61 61 113 110 118 110 4 0 7 -7 7 -15z m55 -220 c0
-35 -4 -67 -8 -71 -4 -4 -7 -17 -7 -28 0 -21 -175 -209 -224 -241 -13 -9 -43
-17 -67 -19 -24 -2 -71 -8 -104 -12 l-60 -7 80 81 c43 45 84 82 90 82 5 0 73
63 149 140 77 77 142 140 145 140 3 0 6 -29 6 -65z m-15 -204 c0 -61 -15 -91
-45 -91 -14 0 -25 -4 -25 -9 0 -9 -81 -23 -89 -15 -6 6 140 154 151 154 5 0 8
-18 8 -39z"/>
</g>
</svg>
