<?xml version="1.0" standalone="no"?>
<!DOCTYPE svg PUBLIC "-//W3C//DTD SVG 20010904//EN"
 "http://www.w3.org/TR/2001/REC-SVG-20010904/DTD/svg10.dtd">
<svg version="1.0" xmlns="http://www.w3.org/2000/svg"
 width="152.000000pt" height="102.000000pt" viewBox="0 0 152.000000 102.000000"
 preserveAspectRatio="xMidYMid meet">
<metadata>
Created by potrace 1.16, written by Peter Selinger 2001-2019
</metadata>
<g transform="translate(0.000000,102.000000) scale(0.100000,-0.100000)"
fill="#000000" stroke="none">
<path d="M310 823 c-13 -21 -41 -67 -64 -103 -60 -94 -62 -98 -103 -179 -31
-62 -35 -75 -22 -85 8 -6 42 -49 76 -96 34 -47 88 -118 119 -157 54 -71 57
-73 100 -73 32 0 44 -4 44 -15 0 -19 16 -19 27 -1 6 12 81 17 393 26 212 7
389 16 395 21 5 5 30 9 57 9 34 0 50 -5 57 -17 25 -44 30 11 33 327 2 179 7
332 11 341 7 13 1 18 -25 22 -18 4 -268 9 -554 13 l-521 6 -23 -39z m1015 -13
c4 -6 8 -50 9 -98 2 -48 5 -94 8 -102 4 -8 11 -96 18 -195 6 -99 13 -191 16
-204 l5 -24 -288 6 c-158 4 -357 7 -441 7 l-152 0 2 292 3 292 45 2 c25 0 184
5 355 9 171 4 314 11 320 16 13 12 92 11 100 -1z m-891 -52 c3 -13 6 -67 6
-120 0 -57 4 -100 11 -103 6 -4 10 -55 9 -133 0 -70 0 -134 1 -142 7 -54 1
-61 -48 -58 -58 3 -71 18 -137 156 -9 17 -21 32 -26 32 -6 0 -10 6 -10 13 0 6
-14 32 -30 57 -33 50 -38 78 -15 86 8 4 15 10 15 15 0 9 59 92 85 120 8 9 15
19 15 23 0 4 12 23 28 42 34 42 86 49 96 12z"/>
<path d="M796 728 c-3 -13 -6 -47 -6 -76 0 -49 -2 -53 -20 -47 -12 4 -28 1
-36 -6 -11 -9 -18 -9 -26 -1 -16 16 -101 15 -116 0 -16 -16 -16 -192 -1 -216
10 -16 19 -17 58 -11 25 4 69 8 98 8 l51 1 7 -61 7 -62 92 7 c50 3 165 9 256
12 l165 7 -3 206 c-4 253 5 238 -149 240 -59 1 -110 5 -113 10 -3 4 -62 9
-131 10 -124 2 -126 2 -133 -21z m91 -43 c8 -21 3 -24 -29 -18 -16 3 -28 12
-28 19 0 19 49 18 57 -1z m91 -8 c3 -12 -3 -17 -22 -17 -25 0 -35 18 -19 34
12 12 38 2 41 -17z m92 3 c0 -15 -7 -20 -25 -20 -24 0 -34 18 -18 33 15 15 43
7 43 -13z m100 -4 c0 -19 -4 -22 -25 -18 -16 3 -25 11 -25 23 0 14 7 19 25 19
20 0 25 -5 25 -24z m90 -6 c0 -33 -19 -40 -40 -15 -16 20 -5 45 20 45 16 0 20
-7 20 -30z m10 -96 c0 -47 -3 -55 -16 -50 -9 3 -22 6 -30 6 -10 0 -14 12 -14
38 0 41 14 62 42 62 15 0 18 -9 18 -56z m-380 1 c0 -32 -2 -35 -30 -35 -26 0
-30 4 -30 28 0 35 6 42 37 42 20 0 23 -5 23 -35z m90 0 c0 -31 -3 -35 -25 -35
-22 0 -25 4 -25 35 0 31 3 35 25 35 22 0 25 -4 25 -35z m94 19 c14 -37 7 -54
-24 -54 -28 0 -30 3 -30 35 0 30 3 35 24 35 13 0 27 -7 30 -16z m104 -26 c3
-37 3 -38 -32 -38 -34 0 -36 2 -36 33 0 41 7 49 40 45 21 -3 25 -9 28 -40z
m-388 -20 c0 -13 3 -47 6 -75 l7 -53 -97 0 -96 0 0 29 c0 17 5 33 10 36 6 3
10 21 10 40 l0 34 58 4 c31 2 67 4 80 5 17 2 22 -3 22 -20z m108 -85 c3 -32 2
-33 -32 -33 -33 0 -36 3 -36 28 0 36 8 44 40 40 20 -2 26 -9 28 -35z m280 -5
c3 -37 3 -38 -32 -38 -34 0 -36 2 -36 33 0 41 7 49 40 45 21 -3 25 -9 28 -40z
m102 -8 c0 -54 -2 -56 -43 -37 -22 10 -27 19 -27 50 0 36 1 37 35 37 l35 0 0
-50z m-298 25 c18 -24 8 -45 -22 -45 -25 0 -30 4 -30 23 0 13 2 26 5 29 9 9
39 4 47 -7z m98 -18 c0 -32 -2 -33 -30 -29 -25 4 -30 9 -30 33 0 26 4 29 30
29 27 0 30 -3 30 -33z m-180 -112 c0 -33 -2 -35 -35 -35 -32 0 -35 3 -35 28 0
16 3 32 7 35 3 4 19 7 35 7 25 0 28 -3 28 -35z m280 -5 c0 -39 -1 -40 -35 -40
-33 0 -35 2 -35 33 0 41 5 47 42 47 26 0 28 -3 28 -40z m118 -2 l3 -38 -45 0
-46 0 0 41 0 40 43 -3 c41 -3 42 -4 45 -40z m-302 6 c8 -33 -7 -48 -40 -40
-21 5 -26 13 -26 36 0 27 3 30 30 30 23 0 31 -5 36 -26z m89 -9 c0 -27 -3 -30
-30 -30 -27 0 -30 4 -33 33 -3 32 -2 33 30 30 29 -3 33 -6 33 -33z"/>
</g>
</svg>
