<?xml version="1.0" standalone="no"?>
<!DOCTYPE svg PUBLIC "-//W3C//DTD SVG 20010904//EN"
 "http://www.w3.org/TR/2001/REC-SVG-20010904/DTD/svg10.dtd">
<svg version="1.0" xmlns="http://www.w3.org/2000/svg"
 width="102.000000pt" height="108.000000pt" viewBox="0 0 102.000000 108.000000"
 preserveAspectRatio="xMidYMid meet">
<metadata>
Created by potrace 1.16, written by Peter Selinger 2001-2019
</metadata>
<g transform="translate(0.000000,108.000000) scale(0.100000,-0.100000)"
fill="#000000" stroke="none">
<path d="M370 1000 c-8 -4 -31 -15 -50 -24 -96 -45 -115 -60 -118 -94 -3 -26
-8 -32 -27 -32 -27 0 -32 -10 -41 -82 -4 -29 -11 -56 -17 -59 -14 -10 -15
-212 -1 -230 7 -8 15 -34 19 -59 4 -25 15 -65 25 -90 10 -25 23 -64 29 -88 14
-49 39 -68 101 -78 25 -4 51 -12 59 -18 18 -14 164 -14 182 0 8 7 30 15 49 19
38 7 82 26 200 84 l75 36 12 60 c17 76 17 78 25 90 14 24 30 170 26 237 -4 59
-12 85 -41 138 -20 36 -46 84 -58 108 -12 24 -31 47 -43 51 -28 11 -333 32
-352 24 -8 -3 -20 -1 -27 5 -6 5 -19 6 -27 2z m384 -75 c-4 -16 0 -35 12 -53
34 -51 64 -113 64 -131 0 -14 -10 -20 -44 -25 -25 -4 -56 -16 -70 -27 l-26
-21 -23 20 c-80 73 -177 152 -186 152 -6 0 -18 -14 -27 -31 -14 -27 -19 -30
-46 -25 -17 3 -66 6 -109 6 -71 0 -79 2 -79 19 0 18 58 71 78 71 6 0 12 3 14
8 10 22 71 42 131 42 36 0 68 4 71 9 3 4 60 9 126 10 l121 2 -7 -26z m-359
-175 c3 -5 17 -10 31 -10 19 0 24 -5 24 -26 0 -25 -2 -26 -37 -20 -21 3 -78 6
-126 6 -79 0 -88 2 -85 18 2 12 15 18 43 20 22 2 44 8 50 13 12 12 92 12 100
-1z m144 -14 c15 -13 46 -39 70 -58 44 -33 44 -33 44 -97 l-1 -64 -68 -55
c-38 -30 -75 -59 -81 -65 -10 -7 -13 29 -13 177 0 200 2 207 49 162z m252 -75
c-14 -26 -14 -137 0 -163 14 -26 7 -31 -30 -23 -44 9 -56 36 -31 68 24 30 15
42 -18 21 -31 -21 -46 -6 -37 36 l7 32 24 -23 c30 -29 40 -20 20 19 -17 34
-12 42 39 59 34 11 41 4 26 -26z m-396 -1 c3 -5 17 -10 30 -10 21 0 24 -5 23
-26 -2 -24 -5 -25 -38 -20 -19 3 -79 6 -132 6 -76 0 -98 3 -98 14 0 14 49 26
112 26 20 0 40 5 43 10 3 6 17 10 30 10 13 0 27 -4 30 -10z m0 -90 c4 -7 13
-7 26 0 16 9 21 7 29 -15 6 -15 10 -48 10 -74 l0 -49 -132 5 c-73 3 -137 9
-142 14 -6 6 -4 9 6 9 9 0 18 4 20 8 4 12 176 23 182 13 3 -5 17 -6 32 -3 l26
5 -31 13 c-18 7 -79 16 -137 20 -57 4 -107 11 -110 16 -10 17 9 27 59 31 26 2
50 7 54 11 10 10 101 7 108 -4z m322 -99 c13 -11 44 -23 68 -27 53 -7 60 -22
50 -99 l-6 -53 -42 -7 c-23 -4 -55 -13 -72 -20 -16 -8 -59 -19 -95 -26 -36 -7
-67 -16 -70 -20 -11 -16 -144 -25 -200 -13 -85 17 -140 43 -140 68 0 12 -3 44
-6 72 l-7 52 72 7 c39 4 98 4 132 0 54 -6 60 -9 56 -27 -6 -21 11 -58 26 -58
4 0 52 38 105 85 53 47 98 85 100 85 2 0 15 -9 29 -19z"/>
</g>
</svg>
