<?xml version="1.0" standalone="no"?>
<!DOCTYPE svg PUBLIC "-//W3C//DTD SVG 20010904//EN"
 "http://www.w3.org/TR/2001/REC-SVG-20010904/DTD/svg10.dtd">
<svg version="1.0" xmlns="http://www.w3.org/2000/svg"
 width="94.000000pt" height="100.000000pt" viewBox="0 0 94.000000 100.000000"
 preserveAspectRatio="xMidYMid meet">
<metadata>
Created by potrace 1.16, written by Peter Selinger 2001-2019
</metadata>
<g transform="translate(0.000000,100.000000) scale(0.100000,-0.100000)"
fill="#000000" stroke="none">
<path d="M306 941 c-3 -5 -18 -12 -32 -15 -15 -4 -46 -20 -70 -37 -23 -16 -47
-29 -53 -29 -6 0 -11 -18 -11 -40 0 -38 -2 -40 -24 -34 -21 5 -25 1 -31 -28
-4 -18 -10 -37 -14 -43 -10 -16 -29 -135 -30 -186 -1 -50 17 -158 30 -174 4
-6 15 -44 25 -85 9 -41 19 -77 23 -80 3 -3 11 -18 16 -35 8 -23 20 -32 55 -43
77 -23 207 -27 278 -8 35 9 74 16 87 16 13 0 26 4 29 9 3 4 26 14 51 21 25 7
45 17 45 21 0 5 3 8 8 8 4 -1 25 6 47 15 48 20 66 54 85 161 7 39 17 76 23 83
14 18 15 240 2 250 -6 4 -17 26 -25 50 -7 24 -19 46 -25 50 -6 4 -17 22 -25
41 -25 62 -54 82 -132 88 -38 3 -76 12 -83 20 -16 15 -240 19 -249 4z m388
-81 c-3 -14 4 -40 15 -60 11 -19 27 -51 36 -70 9 -19 21 -46 28 -59 14 -29 11
-341 -4 -355 -5 -6 -9 -27 -9 -47 l0 -38 -57 -11 c-32 -6 -66 -15 -76 -21 -10
-5 -22 -7 -27 -4 -6 4 -10 2 -10 -3 0 -5 -28 -12 -62 -15 -114 -11 -168 -19
-174 -28 -7 -12 -61 -11 -69 1 -3 6 -16 10 -28 10 -12 0 -41 7 -64 16 -37 14
-43 21 -43 45 0 15 -4 30 -9 33 -8 5 -13 51 -26 220 -3 49 13 187 24 201 5 5
12 28 15 49 4 21 13 44 19 50 26 25 115 86 126 86 6 0 11 4 11 9 0 16 38 19
217 17 l171 -1 -4 -25z"/>
</g>
</svg>
