<?xml version="1.0" standalone="no"?>
<!DOCTYPE svg PUBLIC "-//W3C//DTD SVG 20010904//EN"
 "http://www.w3.org/TR/2001/REC-SVG-20010904/DTD/svg10.dtd">
<svg version="1.0" xmlns="http://www.w3.org/2000/svg"
 width="146.000000pt" height="128.000000pt" viewBox="0 0 146.000000 128.000000"
 preserveAspectRatio="xMidYMid meet">
<metadata>
Created by potrace 1.16, written by Peter Selinger 2001-2019
</metadata>
<g transform="translate(0.000000,128.000000) scale(0.100000,-0.100000)"
fill="#000000" stroke="none">
<path d="M173 1146 c-18 -12 -32 -25 -32 -31 0 -5 19 -18 42 -29 23 -10 65
-28 92 -41 28 -13 67 -29 88 -36 20 -7 37 -16 37 -20 0 -3 14 -9 32 -13 17 -3
55 -17 84 -31 29 -14 58 -25 63 -25 16 0 13 -15 -4 -30 -19 -16 -57 -6 -130
35 -33 19 -109 59 -170 89 l-109 55 -23 -21 c-13 -12 -23 -27 -23 -34 0 -14
95 -64 122 -64 10 0 18 -4 18 -8 0 -5 37 -23 83 -41 158 -63 169 -70 162 -100
-4 -14 -8 -27 -9 -28 -3 -3 -99 46 -106 55 -6 8 -153 82 -164 82 -4 0 -14 7
-22 15 -23 22 -67 18 -92 -8 -12 -13 -22 -26 -22 -30 0 -3 18 -12 40 -18 22
-7 40 -15 40 -19 0 -4 19 -13 43 -20 23 -8 58 -21 77 -31 52 -25 122 -56 149
-66 23 -9 24 -13 22 -88 -3 -90 -4 -92 -90 -121 -31 -10 -58 -21 -61 -24 -5
-5 -80 -43 -90 -45 -30 -6 -100 -40 -100 -49 0 -19 30 -56 45 -56 8 0 44 16
82 35 37 19 74 35 81 35 6 0 12 5 12 10 0 6 5 10 12 10 6 0 33 14 59 31 55 35
84 35 84 0 0 -20 -8 -27 -45 -39 -25 -8 -46 -19 -48 -24 -2 -4 -12 -8 -22 -8
-10 0 -44 -14 -75 -30 -31 -17 -63 -30 -70 -30 -7 0 -18 -6 -24 -14 -7 -8 -26
-18 -42 -21 -16 -4 -32 -11 -35 -17 -7 -11 34 -58 51 -58 16 0 280 134 295
150 3 3 17 11 32 17 22 10 29 9 42 -6 21 -23 10 -33 -59 -57 -28 -9 -52 -19
-55 -23 -3 -4 -24 -13 -47 -19 -24 -7 -43 -17 -43 -22 0 -6 -8 -10 -17 -10
-28 0 -163 -70 -163 -85 0 -19 28 -45 49 -45 18 0 115 47 216 104 17 9 45 24
63 32 17 8 32 19 32 24 0 6 6 10 14 10 8 0 27 7 43 16 28 16 29 16 103 -35 50
-34 93 -55 130 -62 30 -7 60 -16 65 -20 40 -30 434 -36 460 -7 10 10 14 119
18 426 l5 412 -39 0 c-36 0 -38 -2 -45 -36 -4 -21 -19 -48 -38 -65 -65 -61
-104 -89 -122 -89 -19 0 -104 73 -104 88 0 5 15 22 33 40 32 31 35 32 126 32
90 0 92 1 89 23 -3 21 -6 22 -103 19 -132 -4 -297 -21 -311 -32 -6 -5 -34 -15
-63 -21 -29 -6 -58 -12 -64 -14 -7 -1 -30 -10 -51 -19 -37 -17 -40 -17 -65 2
-14 10 -64 38 -111 61 -47 24 -125 64 -175 90 -117 62 -115 61 -152 37z m835
-178 c-3 -7 -11 -13 -18 -13 -7 0 -15 6 -17 13 -3 7 4 12 17 12 13 0 20 -5 18
-12z m-108 -36 c30 -28 30 -29 11 -46 -20 -18 -21 -17 -61 14 -46 36 -49 47
-17 53 12 2 25 5 29 6 4 0 21 -12 38 -27z m-112 -16 c-22 -16 -22 -25 -1 -48
16 -18 16 -18 -3 -12 -10 4 -32 16 -48 27 l-29 20 34 12 c48 18 69 18 47 1z
m503 -89 c2 -108 -10 -131 -51 -92 -14 14 -31 25 -37 25 -15 0 -46 51 -36 60
57 52 116 101 118 98 2 -2 5 -43 6 -91z m-581 28 c19 -14 39 -25 46 -25 6 0
22 -9 35 -20 19 -15 20 -19 8 -20 -9 0 -19 -7 -23 -15 -9 -26 -36 -17 -76 26
-22 22 -47 39 -56 37 -27 -5 -28 21 -2 31 32 13 30 14 68 -14z m278 9 c18 -8
32 -20 32 -25 0 -5 5 -9 12 -9 6 0 20 -8 30 -17 18 -16 18 -17 -3 -39 -25 -26
-40 -21 -96 33 -36 35 -39 43 -21 61 15 15 9 15 46 -4z m-333 -106 c32 -27 34
-33 21 -46 -18 -18 -75 -9 -107 16 -18 16 -20 22 -10 40 17 31 54 28 96 -10z
m281 0 c24 -17 44 -34 44 -37 -1 -11 -79 -71 -93 -71 -20 0 -67 39 -67 56 0 8
-5 14 -12 14 -7 0 3 16 22 35 19 19 40 35 48 35 7 0 34 -14 58 -32z m214 -8
c6 -11 15 -20 21 -20 6 0 21 -8 34 -19 l24 -18 -33 -32 c-32 -31 -32 -31 -51
-11 -10 11 -24 20 -32 20 -7 0 -13 6 -13 13 0 8 -11 19 -23 26 l-24 13 21 24
c26 29 62 31 76 4z m150 -60 c0 -5 -2 -10 -4 -10 -3 0 -8 5 -11 10 -3 6 -1 10
4 10 6 0 11 -4 11 -10z m-750 -10 c0 -5 -4 -10 -10 -10 -5 0 -10 5 -10 10 0 6
5 10 10 10 6 0 10 -4 10 -10z m533 -26 c26 -20 47 -40 47 -45 0 -4 -15 -18
-32 -30 -18 -13 -35 -27 -36 -31 -2 -5 -8 -6 -13 -2 -5 3 -9 0 -9 -5 0 -17
-40 -13 -47 4 -3 9 -18 22 -34 31 -16 8 -29 20 -29 26 0 18 72 88 90 88 9 0
38 -16 63 -36z m199 -1 c32 -29 18 -93 -20 -93 -8 0 -27 11 -42 24 l-28 23 31
32 c37 36 35 36 59 14z m-470 -19 c31 -16 31 -17 13 -31 -12 -8 -21 -10 -23
-3 -2 5 -9 10 -15 10 -7 0 -19 5 -27 10 -13 9 -13 11 0 20 19 12 16 13 52 -6z
m-272 -15 c0 -6 -4 -7 -10 -4 -5 3 -10 11 -10 16 0 6 5 7 10 4 6 -3 10 -11 10
-16z m187 -19 c14 -11 32 -20 39 -20 19 0 17 -10 -3 -26 -23 -17 -43 -18 -43
-1 0 8 -9 22 -20 32 -11 10 -17 22 -14 26 8 13 13 11 41 -11z m242 -88 c12
-12 9 -18 -20 -40 -54 -43 -76 -52 -89 -37 -8 9 -6 14 5 19 26 10 7 26 -23 20
-42 -9 -59 17 -30 44 67 62 69 62 108 33 19 -14 41 -32 49 -39z m236 43 c29
-30 31 -35 11 -35 -8 0 -16 -7 -19 -15 -3 -8 -27 -24 -52 -35 -45 -21 -47 -21
-61 -3 -19 26 -18 28 24 72 44 46 63 49 97 16z m-564 -4 c27 -22 28 -20 -28
-49 l-41 -21 -17 25 c-9 14 -15 27 -13 29 7 6 63 34 69 35 4 0 17 -9 30 -19z
m669 -31 c0 -5 -4 -10 -10 -10 -5 0 -10 5 -10 10 0 6 5 10 10 10 6 0 10 -4 10
-10z m2 -38 c4 -4 10 -69 14 -144 l7 -138 -122 0 c-68 0 -121 4 -121 9 0 5
-16 26 -35 47 l-35 37 22 25 c13 13 36 33 51 44 24 17 32 18 58 8 16 -7 34
-21 40 -31 5 -11 14 -19 20 -19 6 0 30 -16 53 -35 48 -39 56 -42 56 -20 0 8
-17 26 -37 40 -21 13 -58 43 -83 65 -49 43 -49 62 0 87 13 6 28 19 33 28 7 13
17 15 40 11 17 -4 35 -10 39 -14z m-563 -47 c-23 -13 -57 -9 -42 5 11 11 46
18 57 12 5 -3 -2 -10 -15 -17z m312 9 c16 -15 16 -17 1 -35 -9 -10 -22 -19
-29 -19 -6 0 -18 -9 -26 -20 -18 -25 -56 -30 -70 -8 -9 13 -7 21 7 37 11 12
24 21 30 21 6 0 17 9 24 20 15 24 39 26 63 4z m-421 -48 c-11 -11 -26 -1 -33
24 -5 19 -4 19 18 2 13 -9 20 -21 15 -26z m163 -30 c-33 -29 -36 -35 -24 -50
20 -23 54 -20 81 9 28 30 41 31 57 6 10 -16 8 -22 -13 -41 -19 -19 -21 -26
-12 -38 11 -13 8 -14 -22 -8 -50 10 -149 59 -149 74 -1 6 -5 12 -9 12 -5 0
-17 6 -28 14 -18 14 -18 15 11 27 17 7 32 13 35 14 3 1 21 9 40 17 25 12 40
13 53 6 17 -9 15 -13 -20 -42z m222 -126 l29 -30 -32 0 c-18 0 -41 5 -52 12
-18 11 -18 14 -3 30 21 24 24 23 58 -12z"/>
</g>
</svg>
