<?xml version="1.0" standalone="no"?>
<!DOCTYPE svg PUBLIC "-//W3C//DTD SVG 20010904//EN"
 "http://www.w3.org/TR/2001/REC-SVG-20010904/DTD/svg10.dtd">
<svg version="1.0" xmlns="http://www.w3.org/2000/svg"
 width="102.000000pt" height="116.000000pt" viewBox="0 0 102.000000 116.000000"
 preserveAspectRatio="xMidYMid meet">
<metadata>
Created by potrace 1.16, written by Peter Selinger 2001-2019
</metadata>
<g transform="translate(0.000000,116.000000) scale(0.100000,-0.100000)"
fill="#000000" stroke="none">
<path d="M346 1015 c-11 -8 -27 -15 -35 -15 -9 0 -38 -17 -66 -38 -39 -30 -49
-43 -50 -67 0 -27 -3 -30 -27 -27 -25 3 -27 0 -34 -45 -4 -26 -10 -50 -15 -53
-4 -3 -13 -45 -19 -93 -11 -88 -2 -184 19 -211 4 -6 14 -41 22 -79 7 -37 16
-67 20 -67 4 0 10 -18 14 -40 4 -22 14 -49 23 -60 17 -21 106 -50 154 -50 15
0 30 -4 33 -10 8 -12 115 -13 115 -1 0 4 25 13 56 20 56 11 73 17 215 84 l77
36 7 48 c4 26 14 63 22 81 9 18 13 36 9 39 -3 3 -2 11 3 17 5 6 14 54 20 106
12 109 3 158 -46 250 -80 149 -76 144 -113 152 -19 4 -89 10 -155 14 -66 4
-126 11 -133 17 -9 7 -20 6 -38 -3 -19 -11 -27 -11 -36 -2 -15 15 -19 15 -42
-3z m402 -65 c-10 -16 -10 -24 1 -41 32 -52 51 -91 51 -104 0 -8 4 -15 9 -15
4 0 14 -20 21 -46 10 -33 11 -92 6 -227 -6 -167 -8 -183 -27 -200 -12 -9 -31
-17 -43 -17 -11 0 -32 -6 -47 -13 -14 -8 -68 -22 -120 -32 -51 -10 -97 -22
-100 -27 -3 -6 -43 -10 -88 -10 -72 0 -89 3 -146 31 -65 32 -65 32 -65 75 0
23 -6 48 -12 54 -17 17 -18 349 -1 360 6 4 14 28 18 55 6 40 14 54 53 87 25
21 57 45 71 52 15 7 29 17 33 22 4 6 13 4 22 -3 10 -9 16 -9 16 -3 0 11 42 15
248 20 111 3 112 2 100 -18z"/>
<path d="M449 717 c-89 -83 -85 -81 -181 -79 -83 1 -88 0 -88 -20 0 -19 5 -20
91 -17 82 4 93 2 103 -15 26 -45 130 -131 146 -121 5 3 10 32 10 64 l0 58 82
6 81 7 48 -45 c27 -25 53 -45 59 -45 20 0 9 27 -24 59 -39 38 -38 56 5 97 29
28 38 54 19 54 -6 0 -33 -20 -59 -45 l-48 -45 -82 0 -81 0 0 65 c0 80 -14 84
-81 22z m39 -39 c12 -12 18 -158 6 -158 -6 0 -94 90 -94 97 0 6 64 72 71 72 3
1 10 -4 17 -11z"/>
</g>
</svg>
