<?xml version="1.0" standalone="no"?>
<!DOCTYPE svg PUBLIC "-//W3C//DTD SVG 20010904//EN"
 "http://www.w3.org/TR/2001/REC-SVG-20010904/DTD/svg10.dtd">
<svg version="1.0" xmlns="http://www.w3.org/2000/svg"
 width="202.000000pt" height="156.000000pt" viewBox="0 0 202.000000 156.000000"
 preserveAspectRatio="xMidYMid meet">
<metadata>
Created by potrace 1.16, written by Peter Selinger 2001-2019
</metadata>
<g transform="translate(0.000000,156.000000) scale(0.100000,-0.100000)"
fill="#000000" stroke="none">
<path d="M146 1418 c3 -13 18 -44 32 -70 24 -43 25 -48 10 -65 -13 -14 -41
-70 -53 -103 -1 -3 -4 -12 -8 -20 -20 -52 -16 -67 27 -126 l44 -59 7 -330 c4
-181 11 -334 16 -340 5 -5 9 -44 9 -87 0 -45 4 -78 10 -78 13 0 13 287 0 295
-6 4 -10 107 -10 277 0 297 -3 283 68 360 21 23 24 33 18 70 -4 24 -18 64 -31
90 -31 59 -31 62 0 102 14 18 25 38 25 44 0 21 -32 13 -52 -13 -11 -14 -23
-25 -27 -25 -4 0 -19 22 -32 50 -15 32 -30 49 -42 50 -14 0 -17 -5 -11 -22z
m104 -215 c0 -7 5 -13 10 -13 6 0 15 -11 20 -25 8 -21 3 -40 -26 -101 -19 -41
-39 -72 -44 -69 -5 3 -23 33 -38 65 l-29 59 19 33 c54 90 62 99 76 81 6 -9 12
-23 12 -30z"/>
<path d="M404 1405 c-3 -8 -3 -36 0 -62 8 -60 13 -140 21 -321 5 -122 3 -145
-10 -158 -27 -27 1 -81 35 -68 8 4 57 9 108 11 92 6 92 6 92 -18 1 -23 1 -23
12 -4 18 32 28 35 135 35 57 0 105 4 108 10 3 6 16 10 29 10 22 0 23 5 29 83
4 45 7 101 7 125 0 30 4 42 14 42 12 0 16 -27 20 -147 2 -82 9 -184 14 -228 6
-44 11 -88 11 -97 1 -10 5 -18 10 -18 4 0 11 87 15 193 9 256 14 299 35 295
14 -3 17 -29 22 -198 6 -198 15 -290 29 -290 4 0 10 103 14 230 7 236 18 299
45 266 8 -9 10 -33 6 -68 -4 -29 -6 -60 -6 -68 23 -361 23 -360 41 -360 6 0
10 60 10 169 0 105 4 172 10 176 6 4 8 33 6 73 -5 68 3 100 23 88 7 -5 11 -59
11 -159 0 -163 14 -325 28 -339 5 -5 12 90 16 227 4 149 11 243 18 255 13 20
55 25 298 35 176 6 280 16 280 26 0 11 61 9 -483 19 -263 4 -481 10 -484 13
-5 6 10 187 18 217 3 13 -34 15 -289 18 -253 2 -293 0 -298 -13z m519 -72 c3
-27 3 -59 0 -73 l-4 -25 -112 3 c-62 2 -114 6 -116 8 -9 8 -6 107 3 110 6 2
56 8 111 13 55 4 103 9 106 10 3 0 9 -20 12 -46z m-301 -23 c11 -64 -2 -74
-83 -64 l-64 9 -3 39 c-5 63 -1 67 75 64 l68 -3 7 -45z m306 -113 c13 -16 11
-122 -3 -136 -6 -6 -57 -7 -128 -4 l-118 6 3 61 3 61 92 5 c50 3 95 9 99 13
12 11 41 8 52 -6z m-298 -77 l0 -61 -77 3 -78 3 -3 48 c-3 41 0 48 20 56 13 6
49 10 81 10 l57 1 0 -60z m304 -106 c3 -9 6 -47 6 -85 l0 -69 -132 6 c-73 4
-133 7 -134 8 -1 0 1 29 4 63 5 75 7 75 133 75 49 -1 91 3 94 9 9 14 22 11 29
-7z m-304 -79 l0 -65 -85 0 -85 0 0 59 0 60 33 4 c17 2 56 5 85 5 l52 2 0 -65z"/>
</g>
</svg>
