<?xml version="1.0" standalone="no"?>
<!DOCTYPE svg PUBLIC "-//W3C//DTD SVG 20010904//EN"
 "http://www.w3.org/TR/2001/REC-SVG-20010904/DTD/svg10.dtd">
<svg version="1.0" xmlns="http://www.w3.org/2000/svg"
 width="232.000000pt" height="180.000000pt" viewBox="0 0 232.000000 180.000000"
 preserveAspectRatio="xMidYMid meet">
<metadata>
Created by potrace 1.16, written by Peter Selinger 2001-2019
</metadata>
<g transform="translate(0.000000,180.000000) scale(0.100000,-0.100000)"
fill="#000000" stroke="none">
<path d="M1240 1657 c-70 -35 -94 -51 -109 -71 -13 -18 -29 -19 -330 -15
l-316 4 -3 -33 -3 -33 128 5 c215 8 261 11 269 19 4 4 47 7 95 7 l88 0 -26
-51 -27 -51 -210 6 c-115 3 -211 8 -213 10 -3 2 -17 0 -33 -4 -20 -6 -30 -5
-33 3 -6 20 -38 -14 -35 -37 3 -18 12 -22 61 -26 32 -3 61 -2 65 1 4 4 94 10
201 14 185 6 193 6 186 -12 -4 -10 -10 -26 -12 -35 -5 -17 -25 -18 -248 -18
-223 0 -243 -1 -247 -17 -2 -10 -2 -26 0 -37 4 -17 13 -18 180 -10 98 4 185 7
195 6 9 0 17 2 17 6 0 4 22 8 49 9 49 1 49 0 53 -33 4 -30 1 -34 -19 -34 -13
0 -23 -4 -23 -10 0 -6 -87 -11 -227 -12 l-228 -3 -3 -24 -4 -24 152 8 c84 4
164 8 179 10 47 6 161 8 166 3 3 -2 8 -19 11 -36 l7 -32 -256 0 c-141 0 -258
-4 -261 -8 -3 -5 -2 -18 1 -30 5 -21 11 -22 117 -22 62 0 116 4 122 9 5 5 72
12 149 16 l140 6 23 -35 c12 -20 22 -39 22 -42 0 -4 -128 -4 -285 -1 l-285 6
0 -36 0 -36 157 6 c284 11 388 18 410 29 17 8 30 7 55 -5 18 -8 62 -19 98 -23
36 -4 75 -11 88 -15 18 -7 22 -5 22 10 0 15 -13 21 -60 30 -33 7 -62 16 -65
21 -4 6 -15 10 -25 10 -11 0 -36 14 -55 32 -28 24 -35 36 -30 55 4 16 1 23 -9
23 -18 0 -36 30 -36 59 0 16 6 21 28 21 35 0 44 8 29 25 -8 9 -16 10 -24 3
-16 -13 -46 33 -41 64 2 19 11 24 43 28 38 5 39 6 18 18 -12 6 -33 12 -47 12
-31 0 -30 -2 -10 38 9 18 23 32 34 32 9 0 23 7 30 15 10 12 9 15 -6 15 -14 0
-11 7 16 35 19 19 40 35 47 35 8 0 16 7 19 15 4 8 10 15 16 15 5 0 29 14 53
30 24 17 46 30 49 30 3 0 6 -15 6 -33 0 -18 5 -38 10 -43 9 -9 15 -181 19
-496 1 -68 3 -78 19 -78 10 0 22 -4 27 -9 18 -16 123 8 194 45 67 34 160 114
162 137 0 7 4 3 9 -9 7 -18 22 -22 127 -33 65 -7 126 -17 135 -22 20 -10 72
-12 81 -2 10 9 -35 30 -106 49 -34 9 -66 20 -72 25 -5 4 -36 13 -67 20 -44 10
-58 18 -60 34 -3 20 -3 20 -23 -2 -11 -13 -25 -23 -32 -23 -6 0 -18 -8 -25
-17 -30 -41 -247 -161 -267 -149 -5 3 -23 -2 -39 -11 -17 -10 -32 -15 -34 -13
-2 3 0 57 4 120 4 63 7 129 7 147 0 17 5 34 11 38 6 4 10 66 10 161 0 147 1
154 20 154 11 0 20 -5 20 -10 0 -6 17 -18 38 -26 85 -37 130 -61 185 -101 31
-24 61 -43 67 -43 5 0 15 -9 22 -19 18 -26 38 -29 68 -9 14 9 43 20 65 24 22
3 51 13 65 20 14 7 51 21 82 29 75 21 89 40 22 32 -27 -4 -80 -9 -119 -13 -38
-3 -77 -8 -85 -11 -25 -10 -44 -15 -77 -20 -28 -4 -34 -1 -42 18 -5 13 -17 30
-28 37 -70 48 -130 82 -143 82 -8 0 -24 7 -34 15 -11 8 -27 15 -37 15 -9 0
-28 9 -42 20 -14 11 -38 20 -54 20 -16 0 -38 7 -49 15 -25 19 -31 18 -84 -8z"/>
<path d="M273 883 c-28 -5 -30 -33 -3 -40 11 -3 20 -9 20 -14 0 -5 10 -13 23
-18 12 -5 48 -30 79 -55 31 -25 60 -46 63 -46 4 0 24 -18 45 -40 21 -22 43
-40 48 -40 6 0 23 -16 39 -36 15 -19 50 -58 77 -85 27 -27 47 -52 44 -54 -2
-2 -40 -5 -85 -6 -76 -1 -86 1 -130 29 -26 17 -56 38 -65 46 -10 9 -22 16 -26
16 -10 0 -72 63 -72 73 0 4 -18 34 -41 67 -22 33 -38 64 -35 69 4 5 2 12 -4
16 -5 3 -15 26 -21 51 -6 24 -15 47 -20 50 -14 8 -49 -15 -49 -33 0 -10 25
-67 56 -129 45 -91 68 -124 119 -173 35 -34 70 -61 79 -61 9 0 16 -4 16 -10 0
-5 23 -16 50 -24 28 -8 64 -24 79 -35 27 -20 46 -21 332 -23 l304 -3 -65 -53
c-36 -29 -72 -59 -81 -67 -9 -8 -21 -15 -27 -15 -6 0 -19 -11 -30 -25 -11 -14
-25 -25 -31 -25 -24 0 -9 -26 21 -38 l33 -12 112 118 112 119 86 2 c61 1 92
-3 106 -13 20 -14 20 -14 -3 -30 -12 -9 -27 -16 -32 -16 -5 0 -19 -10 -31 -22
-13 -13 -34 -31 -47 -40 -27 -20 -109 -86 -122 -98 -4 -4 9 -16 29 -26 38 -18
38 -18 58 7 41 51 86 96 150 153 66 57 70 58 135 63 l67 4 -52 -49 c-28 -27
-84 -71 -124 -98 -72 -48 -95 -74 -66 -74 8 0 17 -7 21 -15 3 -8 11 -15 19
-15 7 0 66 56 131 125 l118 125 268 0 c148 0 271 4 274 8 14 23 -54 31 -291
35 l-252 5 -117 121 c-83 86 -123 121 -140 121 -12 0 -25 -4 -29 -9 -8 -14 34
-81 51 -81 8 0 14 -4 14 -9 0 -5 15 -18 33 -29 17 -12 58 -41 90 -66 l59 -46
-80 0 -79 0 -102 114 c-57 63 -109 117 -116 120 -21 8 -55 -5 -55 -20 0 -16
56 -76 80 -86 26 -11 130 -98 130 -108 0 -12 -17 -13 -24 -2 -3 5 -38 7 -79 5
l-74 -3 -74 78 c-41 42 -84 89 -96 105 -28 36 -73 45 -96 19 -18 -19 -18 -21
8 -39 15 -10 35 -26 46 -35 10 -10 22 -18 27 -18 4 0 27 -16 51 -35 24 -19 47
-35 50 -35 3 0 12 -9 18 -19 12 -19 7 -19 -162 -20 -102 0 -175 4 -175 10 0 5
-20 9 -44 9 -40 0 -46 4 -95 59 -28 33 -51 63 -51 66 0 4 -18 25 -40 46 -22
22 -40 43 -40 47 0 9 -73 82 -82 82 -4 0 -18 10 -31 23 -31 28 -152 117 -158
116 -2 -1 -14 -4 -26 -6z"/>
</g>
</svg>
