<?xml version="1.0" standalone="no"?>
<!DOCTYPE svg PUBLIC "-//W3C//DTD SVG 20010904//EN"
 "http://www.w3.org/TR/2001/REC-SVG-20010904/DTD/svg10.dtd">
<svg version="1.0" xmlns="http://www.w3.org/2000/svg"
 width="162.000000pt" height="78.000000pt" viewBox="0 0 162.000000 78.000000"
 preserveAspectRatio="xMidYMid meet">
<metadata>
Created by potrace 1.16, written by Peter Selinger 2001-2019
</metadata>
<g transform="translate(0.000000,78.000000) scale(0.100000,-0.100000)"
fill="#000000" stroke="none">
<path d="M133 732 c-18 -2 -33 -9 -33 -15 0 -7 7 -151 17 -320 15 -271 19
-307 33 -300 8 4 102 9 208 10 106 1 196 4 200 7 5 3 149 6 320 7 l312 1 0 88
0 87 122 6 c66 4 147 7 180 7 107 0 59 17 -69 25 -71 4 -150 10 -178 13 l-50
7 -3 48 -3 47 78 0 c47 0 84 5 91 12 8 8 15 8 26 -1 10 -8 16 -9 21 -1 3 5 38
10 76 10 44 0 68 4 64 10 -3 5 -34 10 -68 10 -33 0 -112 5 -175 12 l-115 11 6
86 c3 47 8 93 12 102 6 15 -6 18 -97 23 -123 6 -929 14 -975 8z m973 -40 c6
-4 14 -57 18 -122 4 -63 13 -180 21 -259 8 -80 11 -149 8 -154 -5 -9 -961 0
-975 9 -5 3 -8 115 -8 250 l0 244 93 0 c52 0 142 3 200 7 l107 6 0 -145 c0
-185 11 -358 22 -358 5 0 37 18 72 40 35 22 68 40 73 40 6 0 13 8 17 17 3 10
17 33 31 52 14 19 25 45 25 58 0 38 -66 151 -131 223 l-58 65 42 3 c23 2 47 8
54 13 7 7 18 6 32 -2 15 -10 25 -10 43 -1 13 7 75 13 143 15 66 1 129 4 140 5
11 1 25 -2 31 -6z m-467 -113 l23 -30 -29 3 c-22 2 -29 9 -31 31 -4 35 9 34
37 -4z m56 -69 c8 -12 -42 -12 -70 0 -16 7 -11 9 22 9 23 1 45 -3 48 -9z m43
-58 c3 -10 -12 -12 -64 -10 -44 2 -69 7 -72 16 -3 10 12 12 64 10 44 -2 69 -7
72 -16z m32 -56 c0 -21 -22 -25 -99 -19 -50 4 -71 10 -71 19 0 11 20 14 85 14
66 0 85 -3 85 -14z m-32 -58 c-5 -14 -78 -23 -115 -13 -47 11 -21 25 48 25 52
0 70 -3 67 -12z m-55 -55 c-13 -2 -35 -2 -50 0 -16 2 -5 4 22 4 28 0 40 -2 28
-4z m-43 -48 c-13 -16 -40 -20 -40 -7 0 14 12 22 33 22 16 0 17 -3 7 -15z"/>
</g>
</svg>
