<?xml version="1.0" standalone="no"?>
<!DOCTYPE svg PUBLIC "-//W3C//DTD SVG 20010904//EN"
 "http://www.w3.org/TR/2001/REC-SVG-20010904/DTD/svg10.dtd">
<svg version="1.0" xmlns="http://www.w3.org/2000/svg"
 width="190.000000pt" height="130.000000pt" viewBox="0 0 190.000000 130.000000"
 preserveAspectRatio="xMidYMid meet">
<metadata>
Created by potrace 1.16, written by Peter Selinger 2001-2019
</metadata>
<g transform="translate(0.000000,130.000000) scale(0.100000,-0.100000)"
fill="#000000" stroke="none">
<path d="M749 1122 c-66 -70 -120 -156 -143 -226 -6 -18 -15 -19 -186 -12 -99
3 -193 9 -210 12 -28 6 -30 5 -30 -24 0 -17 -4 -34 -10 -37 -6 -4 -10 -74 -10
-176 l0 -170 33 5 c17 3 124 7 237 8 l205 3 15 -48 c9 -26 20 -51 25 -55 6 -4
17 -20 25 -37 8 -16 60 -76 114 -133 88 -91 103 -102 125 -97 14 4 27 11 29
16 2 5 8 9 14 9 5 0 29 14 53 30 24 17 46 30 49 30 3 0 24 13 48 29 119 79
188 121 197 121 5 0 11 3 13 8 4 10 88 67 111 75 9 4 17 11 17 17 0 5 5 10 11
10 7 0 42 25 80 55 37 30 73 55 78 55 6 0 15 9 21 20 6 11 15 20 21 20 16 0
119 92 119 106 0 7 -9 16 -20 19 -11 3 -20 10 -20 15 0 4 -12 13 -27 19 -16 6
-50 24 -78 41 -55 32 -303 156 -430 215 -44 20 -87 41 -95 46 -8 5 -22 12 -30
15 -8 3 -37 16 -65 29 -27 13 -68 29 -90 36 -22 6 -46 16 -52 22 -9 6 -13 6
-13 -2 0 -14 -33 -14 -46 -1 -8 8 -33 -13 -85 -68z m131 1 c0 -5 21 -16 48
-26 26 -10 63 -27 83 -38 20 -10 44 -19 53 -19 13 0 16 -11 16 -55 0 -54 0
-55 -30 -55 -29 0 -30 1 -30 50 0 47 -2 50 -25 50 -23 0 -25 -3 -25 -51 0 -43
-3 -50 -17 -47 -12 2 -19 14 -20 33 0 17 -2 38 -2 48 -1 11 -9 17 -26 17 -23
0 -25 -4 -25 -45 0 -46 -10 -54 -40 -35 -13 8 -13 13 -2 30 16 26 1 50 -31 50
-20 0 -20 -3 -13 -347 4 -191 10 -352 13 -356 14 -23 19 25 15 138 -6 154 -1
175 36 171 l27 -3 3 -146 c2 -113 6 -148 17 -157 13 -11 15 8 15 149 l0 161
24 0 c13 0 26 -6 28 -12 3 -7 6 -74 7 -148 2 -102 6 -139 17 -150 12 -12 14 7
14 148 l0 162 34 0 33 0 8 -155 c8 -183 12 -174 -122 -239 -17 -9 -33 -20 -35
-24 -1 -5 -12 -12 -24 -16 -16 -5 -28 5 -65 56 -49 70 -128 223 -129 251 0 9
-4 17 -9 17 -5 0 -14 30 -21 68 -7 37 -16 72 -20 77 -10 15 -11 67 -1 79 4 6
11 39 14 73 7 88 55 180 129 248 55 52 78 65 78 48z m330 -144 c3 -4 28 -14
55 -22 28 -9 68 -25 90 -36 21 -12 47 -21 57 -21 10 0 18 -4 18 -9 0 -5 17
-15 38 -22 20 -6 78 -31 127 -54 50 -24 99 -46 110 -49 30 -10 73 -46 55 -46
-9 0 -32 -11 -53 -25 -20 -14 -37 -22 -37 -18 0 4 -4 3 -8 -2 -4 -6 -18 -16
-32 -23 -58 -30 -94 -52 -99 -59 -3 -4 -22 -16 -41 -27 -63 -34 -105 -58 -132
-77 -14 -11 -30 -19 -35 -19 -5 0 -36 -20 -69 -44 -33 -24 -70 -46 -81 -50
-12 -4 -27 -13 -33 -21 -7 -8 -16 -15 -21 -15 -13 0 -12 437 1 445 6 3 10 51
10 109 0 56 3 105 6 108 6 6 66 -13 74 -23z m-132 -110 c-2 -18 -10 -25 -30
-27 -20 -2 -28 1 -28 12 0 8 -3 21 -6 29 -4 11 2 17 23 19 35 5 46 -4 41 -33z
m-198 17 c0 -19 -14 -28 -34 -20 -13 5 -14 9 -5 20 15 18 39 18 39 0z m90 -11
c0 -27 -21 -33 -39 -12 -8 10 -7 17 1 25 20 20 38 14 38 -13z m-370 -34 c0 -6
-4 -13 -10 -16 -12 -8 -13 -202 -1 -207 5 -1 12 -22 16 -45 7 -43 7 -43 -24
-43 -17 0 -31 5 -31 10 0 6 -39 10 -97 10 -93 1 -240 13 -248 22 -4 4 12 202
20 236 5 21 10 22 100 22 52 0 97 4 100 10 8 13 175 13 175 1z m370 -51 c0
-25 -4 -30 -25 -30 -20 0 -25 5 -25 23 0 28 7 37 32 37 13 0 18 -8 18 -30z
m110 2 c0 -37 -4 -39 -40 -34 -25 4 -30 9 -30 33 0 26 3 29 35 29 32 0 35 -3
35 -28z m-200 3 c0 -9 -9 -15 -25 -15 -16 0 -25 6 -25 15 0 9 9 15 25 15 16 0
25 -6 25 -15z m0 -85 c0 -15 -7 -20 -25 -20 -24 0 -34 18 -18 33 15 15 43 7
43 -13z m90 -10 c0 -25 -4 -30 -25 -30 -21 0 -25 5 -25 30 0 25 4 30 25 30 21
0 25 -5 25 -30z m110 0 c0 -28 -3 -30 -35 -30 -32 0 -35 2 -35 30 0 28 3 30
35 30 32 0 35 -2 35 -30z"/>
</g>
</svg>
