<?xml version="1.0" standalone="no"?>
<!DOCTYPE svg PUBLIC "-//W3C//DTD SVG 20010904//EN"
 "http://www.w3.org/TR/2001/REC-SVG-20010904/DTD/svg10.dtd">
<svg version="1.0" xmlns="http://www.w3.org/2000/svg"
 width="96.000000pt" height="106.000000pt" viewBox="0 0 96.000000 106.000000"
 preserveAspectRatio="xMidYMid meet">
<metadata>
Created by potrace 1.16, written by Peter Selinger 2001-2019
</metadata>
<g transform="translate(0.000000,106.000000) scale(0.100000,-0.100000)"
fill="#000000" stroke="none">
<path d="M310 935 c-14 -8 -32 -17 -40 -21 -8 -4 -37 -21 -63 -38 -43 -27 -48
-34 -43 -58 5 -26 4 -27 -23 -22 -28 6 -29 4 -36 -37 -4 -24 -11 -48 -15 -54
-4 -5 -8 -17 -8 -25 -1 -8 -6 -42 -13 -75 -13 -70 -6 -172 15 -218 8 -17 19
-54 26 -82 6 -27 15 -54 19 -60 4 -5 14 -32 21 -58 7 -28 20 -51 29 -54 9 -2
31 -12 50 -21 27 -13 63 -17 173 -17 81 0 142 4 146 10 4 6 12 11 17 12 29 7
101 36 119 48 11 8 28 15 36 15 9 0 35 12 57 27 38 24 42 31 54 92 6 36 16 71
20 77 13 17 39 212 33 248 -11 62 -59 175 -81 189 -7 4 -13 14 -13 22 0 22
-50 75 -71 75 -11 0 -27 4 -37 9 -16 9 -241 31 -312 31 -19 0 -46 -7 -60 -15z
m402 -75 c-2 -11 1 -27 7 -34 6 -7 28 -44 48 -82 l38 -69 -2 -165 c-2 -218 -8
-270 -34 -270 -10 0 -19 -4 -19 -9 0 -4 -39 -16 -87 -26 -49 -9 -93 -21 -100
-26 -14 -12 -220 -30 -270 -23 -21 3 -57 15 -80 27 -37 19 -43 26 -43 54 0 17
-4 34 -9 37 -5 3 -9 21 -10 38 0 18 -4 71 -9 118 -4 46 -4 109 1 140 4 30 9
62 9 70 0 8 4 20 8 25 4 6 10 30 14 55 5 32 15 54 35 73 16 15 32 27 36 27 4
0 21 10 37 22 55 39 89 44 265 42 166 -2 168 -2 165 -24z"/>
<path d="M310 725 c0 -25 4 -53 9 -63 5 -9 14 -102 19 -205 9 -175 14 -208 27
-195 3 3 8 61 11 129 3 68 7 130 9 137 5 14 61 16 70 2 3 -5 44 -10 90 -10 46
0 87 5 90 10 3 6 31 10 61 10 38 0 54 4 54 13 0 11 -33 16 -137 21 -76 4 -158
10 -183 14 l-45 7 -3 88 -3 87 -34 0 c-35 0 -35 0 -35 -45z"/>
</g>
</svg>
