<?xml version="1.0" standalone="no"?>
<!DOCTYPE svg PUBLIC "-//W3C//DTD SVG 20010904//EN"
 "http://www.w3.org/TR/2001/REC-SVG-20010904/DTD/svg10.dtd">
<svg version="1.0" xmlns="http://www.w3.org/2000/svg"
 width="116.000000pt" height="134.000000pt" viewBox="0 0 116.000000 134.000000"
 preserveAspectRatio="xMidYMid meet">
<metadata>
Created by potrace 1.16, written by Peter Selinger 2001-2019
</metadata>
<g transform="translate(0.000000,134.000000) scale(0.100000,-0.100000)"
fill="#000000" stroke="none">
<path d="M565 1245 c-5 -2 -48 -6 -95 -10 -95 -6 -118 -9 -140 -17 -8 -3 -51
-11 -95 -18 -44 -7 -82 -16 -85 -20 -3 -4 -15 -10 -26 -14 -23 -7 -34 -54 -34
-147 0 -27 -4 -49 -10 -49 -13 0 -13 -227 0 -235 5 -3 10 -23 10 -44 0 -55 28
-211 44 -246 8 -16 17 -47 21 -67 4 -21 11 -38 15 -38 4 0 13 -28 20 -62 14
-76 42 -105 127 -137 49 -18 84 -23 172 -24 62 -1 119 3 133 10 12 6 50 16 83
23 33 6 73 18 90 26 16 8 55 21 87 29 32 9 73 24 91 35 l34 20 5 195 c3 107
10 201 15 208 14 17 18 73 18 232 0 124 -3 145 -22 186 -27 57 -84 106 -138
119 -22 6 -48 15 -59 21 -27 16 -231 34 -261 24z m278 -80 c13 -5 17 -14 13
-30 -4 -17 1 -27 18 -39 14 -8 27 -26 31 -38 4 -13 13 -36 20 -53 7 -16 17
-64 20 -105 4 -41 11 -79 15 -85 8 -11 15 -205 15 -420 l0 -130 -30 -3 c-16
-2 -34 -7 -40 -12 -5 -4 -53 -13 -105 -20 -52 -7 -99 -15 -105 -18 -16 -10
-43 -13 -168 -19 -83 -4 -122 -2 -132 7 -8 6 -18 9 -23 6 -13 -8 -101 40 -133
74 -16 16 -29 38 -29 48 0 10 -3 22 -7 26 -10 10 -30 159 -39 294 -4 56 -11
102 -15 102 -13 0 -11 247 1 255 6 3 10 23 10 45 0 34 4 40 40 59 22 12 46 21
53 21 7 0 26 7 42 16 17 9 57 19 90 24 70 10 432 6 458 -5z"/>
<path d="M468 926 c-7 -7 -19 -11 -27 -8 -20 7 -90 -68 -101 -108 -12 -47 -6
-150 10 -160 7 -4 9 -13 6 -19 -4 -6 -3 -11 1 -11 5 0 13 -10 18 -22 6 -13 20
-27 33 -33 12 -5 22 -13 22 -17 0 -4 7 -5 15 -2 8 4 15 1 15 -5 0 -6 3 -10 8
-10 4 1 9 0 12 -1 18 -8 76 -6 82 4 6 8 8 8 8 -1 0 -7 7 -13 15 -13 8 0 15 4
15 9 0 5 9 7 19 4 27 -7 106 68 116 110 12 48 14 128 4 167 -9 39 -81 116 -97
106 -6 -3 -12 -1 -14 5 -6 17 -144 21 -160 5z"/>
</g>
</svg>
