<?xml version="1.0" standalone="no"?>
<!DOCTYPE svg PUBLIC "-//W3C//DTD SVG 20010904//EN"
 "http://www.w3.org/TR/2001/REC-SVG-20010904/DTD/svg10.dtd">
<svg version="1.0" xmlns="http://www.w3.org/2000/svg"
 width="170.000000pt" height="142.000000pt" viewBox="0 0 170.000000 142.000000"
 preserveAspectRatio="xMidYMid meet">
<metadata>
Created by potrace 1.16, written by Peter Selinger 2001-2019
</metadata>
<g transform="translate(0.000000,142.000000) scale(0.100000,-0.100000)"
fill="#000000" stroke="none">
<path d="M555 1280 c-10 -11 -22 -20 -28 -20 -5 0 -26 -13 -47 -30 -21 -16
-40 -30 -43 -30 -4 0 -17 -10 -30 -22 -13 -13 -33 -30 -45 -38 -12 -8 -22 -20
-22 -26 0 -7 -4 -14 -8 -16 -26 -11 -126 -208 -105 -208 3 0 1 -6 -5 -12 -5
-7 -15 -47 -21 -88 -13 -83 -30 -150 -43 -164 -15 -18 -7 -80 15 -123 25 -48
135 -183 149 -183 5 0 37 -24 72 -52 34 -29 71 -59 82 -66 10 -6 51 -34 90
-61 39 -27 81 -52 93 -56 30 -9 27 15 -5 40 -112 87 -374 345 -374 367 0 6 -9
23 -20 38 -11 16 -20 32 -19 37 2 9 -8 39 -21 64 -10 19 3 72 48 195 49 136
104 218 183 277 93 68 179 141 179 151 0 15 -32 46 -47 46 -5 0 -18 -9 -28
-20z"/>
<path d="M1250 1088 c-1 -105 -8 -454 -9 -460 0 -5 -173 -8 -382 -8 l-381 0 7
-132 c4 -73 13 -147 19 -166 l12 -34 93 106 c81 93 96 106 122 104 16 -1 29
-4 29 -7 0 -2 -20 -28 -45 -57 -45 -52 -60 -104 -32 -104 8 0 43 33 78 74 60
71 66 75 107 75 23 1 42 -3 42 -7 0 -5 -13 -21 -30 -37 -22 -21 -30 -38 -30
-62 0 -46 21 -43 62 9 65 84 96 101 140 77 l20 -11 -21 -19 c-25 -23 -28 -67
-5 -76 17 -6 70 39 80 69 4 14 16 18 55 18 46 0 50 -2 48 -22 -6 -66 5 -72 54
-28 34 29 89 41 101 21 3 -5 38 -12 78 -15 91 -9 93 -9 93 6 0 8 -37 19 -100
30 -55 9 -101 17 -102 17 -15 4 7 40 55 89 56 59 58 60 106 56 27 -1 52 -6 57
-11 5 -5 10 -53 11 -107 2 -66 7 -101 15 -103 9 -3 13 63 16 274 2 153 6 324
10 381 l6 102 -189 0 -190 0 0 -42z m306 -184 c3 -99 10 -196 16 -216 19 -65
16 -66 -146 -67 l-146 0 0 24 c0 20 6 25 38 30 20 3 53 10 72 15 19 5 53 13
75 17 25 6 40 14 40 23 0 12 -22 16 -105 20 -82 4 -105 8 -105 19 0 19 36 28
146 37 78 6 89 9 89 25 0 18 -9 19 -120 19 -66 0 -120 4 -120 9 0 21 32 30
128 37 90 6 102 9 102 25 0 17 -9 19 -105 19 -96 0 -123 7 -95 25 6 4 51 10
101 15 50 5 94 11 97 14 16 17 -28 31 -111 36 -75 4 -92 8 -95 22 -3 17 -7 16
198 31 19 1 36 2 38 1 1 -1 5 -82 8 -180z m-395 -367 c-42 -44 -42 -44 -87
-34 -24 6 -44 14 -44 19 0 5 11 20 25 33 20 21 34 25 87 25 l62 0 -43 -43z
m209 30 c-8 -7 -30 -31 -48 -54 -34 -44 -56 -51 -109 -37 -31 8 -29 17 13 64
35 38 39 40 98 40 50 -1 58 -3 46 -13z m-370 -6 c0 -18 -34 -35 -64 -32 -43 4
-55 18 -25 30 31 12 89 14 89 2z m-374 -52 c3 -6 -14 -32 -40 -57 l-46 -47 0
58 0 57 39 0 c22 0 43 -5 47 -11z"/>
</g>
</svg>
