<?xml version="1.0" standalone="no"?>
<!DOCTYPE svg PUBLIC "-//W3C//DTD SVG 20010904//EN"
 "http://www.w3.org/TR/2001/REC-SVG-20010904/DTD/svg10.dtd">
<svg version="1.0" xmlns="http://www.w3.org/2000/svg"
 width="180.000000pt" height="126.000000pt" viewBox="0 0 180.000000 126.000000"
 preserveAspectRatio="xMidYMid meet">
<metadata>
Created by potrace 1.16, written by Peter Selinger 2001-2019
</metadata>
<g transform="translate(0.000000,126.000000) scale(0.100000,-0.100000)"
fill="#000000" stroke="none">
<path d="M1010 1153 c-195 -19 -243 -34 -217 -64 7 -7 2 -5 -11 5 -12 11 -23
17 -25 15 -20 -34 -27 -53 -27 -72 l0 -24 -279 1 c-212 1 -283 -2 -292 -11 -7
-7 -22 -13 -32 -13 -19 0 -19 -6 -12 -157 4 -87 11 -223 14 -303 l6 -145 80 4
c44 1 85 6 90 9 11 8 364 30 381 25 6 -2 11 -9 12 -16 15 -130 14 -128 67
-158 95 -54 190 -96 245 -109 30 -7 61 -17 68 -23 22 -18 221 -14 262 5 19 9
55 22 80 28 25 7 50 16 57 22 7 5 35 16 62 23 45 11 51 11 51 -2 0 -27 24 -7
33 28 5 19 13 39 19 46 5 7 7 17 4 22 -4 5 -2 12 3 15 5 3 15 30 21 58 7 29
16 58 21 64 26 32 26 374 0 429 -5 11 -14 49 -21 85 -6 36 -18 86 -26 112 -15
45 -17 47 -60 54 -24 3 -44 10 -44 14 0 4 -28 10 -62 14 -35 3 -94 10 -133 16
-66 9 -259 11 -335 3z m335 -53 c3 -5 48 -10 98 -10 140 0 131 7 151 -128 10
-64 23 -128 29 -141 17 -35 17 -455 0 -473 -7 -6 -13 -22 -13 -34 0 -11 -5
-35 -11 -51 -9 -27 -17 -32 -72 -43 -34 -7 -75 -18 -92 -25 -41 -18 -118 -35
-152 -35 -16 0 -34 -5 -40 -11 -9 -9 -23 -9 -55 -1 -24 6 -68 14 -98 17 -30 3
-73 14 -95 25 -22 10 -51 21 -65 25 -14 4 -46 20 -71 36 -25 16 -51 29 -56 29
-6 0 -13 7 -17 15 -3 8 -15 15 -26 15 -17 0 -20 6 -20 48 0 60 6 68 58 77 50
8 56 25 9 25 -18 0 -38 5 -45 12 -14 14 -16 54 -3 62 5 3 10 36 10 73 1 38 8
142 16 233 7 91 14 179 14 196 l1 31 108 11 c59 7 126 12 149 12 23 0 45 5 48
10 4 6 55 10 120 10 65 0 116 -4 120 -10z m-625 -142 c-1 -13 -5 -54 -11 -93
-18 -124 -19 -138 -25 -262 l-6 -123 -192 0 c-106 0 -221 3 -256 7 l-63 6 7
116 c4 64 10 119 14 123 4 4 86 10 182 14 96 4 186 11 200 17 24 10 23 11 -20
18 -25 4 -115 8 -201 8 -178 1 -169 -4 -169 91 l0 58 73 7 c39 4 84 8 99 8 16
1 28 5 28 9 0 4 39 9 88 10 48 2 124 4 170 6 80 3 82 3 82 -20z"/>
<path d="M1066 906 l-29 -11 6 -170 c4 -93 7 -229 7 -302 l0 -131 34 2 c23 2
55 20 104 60 39 31 74 56 78 56 4 0 34 20 68 45 76 57 163 115 173 116 5 0 18
13 30 28 l22 28 -69 52 c-38 28 -73 51 -78 51 -4 0 -26 13 -48 30 -21 16 -45
30 -51 30 -7 0 -13 5 -13 10 0 6 -5 10 -11 10 -6 0 -30 14 -54 30 -24 17 -48
30 -52 30 -5 0 -24 11 -43 25 -19 14 -36 25 -39 24 -3 -1 -19 -6 -35 -13z m80
-78 c42 -32 44 -37 44 -105 0 -35 4 -63 8 -63 4 0 9 -19 10 -42 1 -24 4 -73 8
-109 l6 -67 -35 -26 c-18 -14 -37 -26 -42 -26 -4 0 -13 -6 -19 -14 -6 -8 -20
-17 -31 -20 -20 -6 -20 -2 -17 217 2 122 7 226 13 232 5 5 9 17 9 27 0 24 11
23 46 -4z m246 -146 c47 -23 89 -42 93 -42 3 0 13 -7 21 -15 13 -12 3 -20 -78
-59 -51 -25 -112 -57 -135 -70 l-41 -25 -6 22 c-8 30 -8 252 0 260 4 4 19 -2
33 -12 14 -9 65 -36 113 -59z"/>
</g>
</svg>
