<?xml version="1.0" standalone="no"?>
<!DOCTYPE svg PUBLIC "-//W3C//DTD SVG 20010904//EN"
 "http://www.w3.org/TR/2001/REC-SVG-20010904/DTD/svg10.dtd">
<svg version="1.0" xmlns="http://www.w3.org/2000/svg"
 width="166.000000pt" height="92.000000pt" viewBox="0 0 166.000000 92.000000"
 preserveAspectRatio="xMidYMid meet">
<metadata>
Created by potrace 1.16, written by Peter Selinger 2001-2019
</metadata>
<g transform="translate(0.000000,92.000000) scale(0.100000,-0.100000)"
fill="#000000" stroke="none">
<path d="M595 608 c-33 -17 -97 -48 -142 -70 l-82 -40 -72 16 c-40 9 -78 21
-86 28 -18 14 -49 -13 -40 -35 9 -23 218 -34 260 -14 18 8 55 26 82 39 28 12
52 25 55 28 22 22 50 27 105 18 33 -5 69 -13 80 -18 11 -5 38 -14 60 -20 82
-24 95 -33 101 -70 3 -19 9 -45 15 -58 13 -32 11 -42 -6 -42 -8 0 -15 -5 -15
-12 0 -6 -3 -8 -6 -5 -4 4 -19 -2 -34 -13 -16 -11 -33 -20 -39 -20 -6 0 -11
-3 -11 -8 0 -4 -35 -25 -77 -46 -43 -21 -90 -44 -105 -52 -42 -23 -57 -17
-124 45 -37 35 -78 64 -100 70 -38 10 -193 -2 -203 -16 -3 -5 -17 -14 -31 -21
-39 -21 -94 -71 -87 -79 8 -7 45 10 118 56 75 47 112 48 194 6 79 -40 96 -50
144 -84 29 -21 41 -23 94 -18 34 3 63 10 65 16 2 6 9 11 16 11 6 0 27 13 46
30 19 16 40 29 46 30 6 0 32 18 57 40 47 41 77 51 77 25 0 -19 19 -19 26 0 4
9 19 15 35 15 22 0 29 -5 29 -20 0 -27 16 -25 24 2 4 18 8 20 18 10 8 -8 43
-12 99 -12 121 0 149 -7 149 -36 0 -14 6 -24 15 -24 12 0 14 23 11 145 -3 157
-1 164 50 165 69 0 134 12 134 25 0 10 -15 12 -62 8 -35 -3 -65 -9 -68 -13 -5
-6 -377 -40 -445 -40 -23 0 -46 -5 -53 -12 -8 -8 -12 -8 -12 -1 0 6 -22 19
-50 29 -27 10 -50 21 -50 25 0 4 -29 13 -65 20 -36 7 -65 16 -65 21 0 12 -8 9
-75 -24z m695 -76 c0 -10 4 -22 9 -27 5 -6 12 -45 16 -87 l7 -78 -35 0 c-49 0
-63 20 -48 69 6 21 11 51 11 67 0 44 11 74 26 74 8 0 14 -8 14 -18z m-97 -84
c3 -51 4 -94 2 -96 -2 -2 -18 2 -34 9 -31 14 -31 14 -31 96 l0 83 29 0 28 0 6
-92z m-103 16 c0 -17 3 -46 6 -63 6 -27 4 -31 -15 -31 -20 0 -21 5 -21 83 1
74 2 80 15 63 8 -11 15 -34 15 -52z m-84 -20 c11 -67 7 -78 -20 -68 -12 5 -16
20 -16 63 0 55 5 71 20 71 4 0 11 -30 16 -66z"/>
</g>
</svg>
