<?xml version="1.0" standalone="no"?>
<!DOCTYPE svg PUBLIC "-//W3C//DTD SVG 20010904//EN"
 "http://www.w3.org/TR/2001/REC-SVG-20010904/DTD/svg10.dtd">
<svg version="1.0" xmlns="http://www.w3.org/2000/svg"
 width="210.000000pt" height="116.000000pt" viewBox="0 0 210.000000 116.000000"
 preserveAspectRatio="xMidYMid meet">
<metadata>
Created by potrace 1.16, written by Peter Selinger 2001-2019
</metadata>
<g transform="translate(0.000000,116.000000) scale(0.100000,-0.100000)"
fill="#000000" stroke="none">
<path d="M870 994 c-7 -7 -18 -14 -26 -14 -7 0 -18 -9 -24 -20 -6 -11 -16 -20
-23 -20 -7 0 -38 -20 -69 -45 -54 -42 -139 -91 -218 -125 -42 -18 -249 -21
-271 -4 -8 6 -26 14 -41 18 -26 6 -28 4 -28 -24 0 -68 5 -70 165 -70 79 0 146
4 149 9 3 4 24 11 46 14 73 10 149 57 244 152 l91 90 110 -9 c61 -5 112 -12
115 -16 3 -4 77 -13 165 -20 88 -7 165 -16 170 -20 6 -4 82 -15 170 -25 88
-10 165 -21 170 -25 18 -13 115 -22 115 -10 0 6 -8 13 -17 16 -10 3 -25 9 -34
14 -9 5 -26 6 -38 3 -11 -3 -21 -1 -21 4 0 5 -33 16 -72 23 -40 7 -77 16 -83
20 -12 9 -186 40 -226 40 -15 0 -29 4 -31 9 -1 5 -75 15 -163 21 -88 7 -167
16 -176 20 -28 15 -136 10 -149 -6z"/>
<path d="M710 692 c0 -9 9 -33 20 -52 11 -19 27 -50 35 -67 9 -18 20 -33 25
-33 6 0 14 -10 19 -22 6 -17 1 -32 -20 -62 -16 -21 -29 -45 -29 -53 0 -7 -5
-13 -10 -13 -6 0 -13 -8 -17 -17 -3 -10 -13 -26 -21 -36 -14 -16 -14 -19 2
-35 17 -16 20 -15 57 28 21 25 39 50 39 56 0 7 7 14 15 18 8 3 15 12 15 20 0
24 20 29 41 10 19 -17 26 -44 11 -44 -5 0 -17 -18 -27 -40 -16 -36 -17 -43 -4
-56 13 -13 21 -7 67 50 29 36 52 69 52 74 0 5 6 15 13 21 11 8 19 5 37 -14
l23 -25 -28 -41 c-22 -31 -26 -45 -19 -57 13 -19 34 -28 34 -13 0 18 122 161
131 155 5 -3 -3 -23 -16 -44 -14 -22 -25 -44 -25 -49 0 -5 -7 -11 -15 -15 -19
-7 -19 -21 1 -41 15 -15 18 -15 35 1 11 9 19 23 19 30 0 7 9 18 20 24 11 6 20
17 20 25 0 8 5 15 10 15 6 0 10 6 10 13 0 20 37 51 45 38 7 -13 -3 -51 -14
-51 -4 0 -16 -18 -26 -40 -16 -35 -16 -43 -4 -55 12 -12 21 -6 65 48 28 34 53
70 57 80 12 32 38 33 63 2 31 -40 42 -25 15 21 -15 26 -19 39 -11 44 6 4 73
10 148 14 74 4 141 10 146 15 6 5 54 12 106 15 110 9 140 14 140 28 0 7 -45 8
-127 4 -71 -3 -188 -9 -262 -12 l-134 -6 6 31 c7 35 -7 42 -23 11 -6 -11 -19
-24 -30 -30 -16 -9 -22 -5 -36 22 -9 18 -20 35 -23 38 -4 3 -21 24 -40 48 -50
65 -93 49 -52 -19 40 -66 45 -79 34 -90 -7 -7 -17 0 -31 23 -11 18 -32 44 -46
57 -14 14 -26 31 -26 38 0 20 -48 39 -62 25 -8 -8 -4 -21 15 -50 15 -21 27
-43 27 -49 0 -6 7 -16 15 -23 8 -7 12 -16 9 -21 -6 -10 -44 12 -44 26 0 17
-93 125 -107 125 -23 0 -26 -28 -6 -57 29 -41 35 -64 22 -79 -18 -22 -49 -17
-59 11 -5 14 -14 25 -20 25 -5 0 -10 6 -10 14 0 8 -10 23 -23 33 -13 10 -26
26 -30 36 -8 20 -35 23 -43 3 -3 -7 6 -34 19 -59 24 -45 24 -46 6 -63 -15 -14
-21 -14 -34 -4 -8 7 -15 16 -15 21 0 4 -10 19 -22 32 -13 13 -34 38 -47 55
-26 35 -51 42 -51 14z m233 -212 c6 0 4 -7 -5 -16 -18 -18 -38 -11 -38 13 0
10 6 13 16 9 9 -3 21 -6 27 -6z m144 -25 c-11 -23 -13 -23 -24 -8 -17 23 -16
31 5 36 27 6 31 -1 19 -28z m238 25 c-3 -5 -10 -10 -16 -10 -5 0 -9 5 -9 10 0
6 7 10 16 10 8 0 12 -4 9 -10z"/>
<path d="M164 405 c-13 -33 4 -42 100 -53 53 -7 104 -16 114 -21 9 -5 51 -16
92 -26 41 -10 84 -24 95 -31 11 -8 26 -14 35 -14 8 0 28 -7 44 -15 16 -9 36
-13 44 -10 17 6 -14 34 -68 59 -19 9 -48 24 -65 33 -63 35 -82 41 -145 53 -36
6 -74 15 -85 20 -11 5 -50 11 -88 15 -55 4 -68 3 -73 -10z"/>
<path d="M1880 282 c-52 -8 -96 -19 -98 -23 -2 -5 -18 -9 -35 -10 -40 -1 -159
-22 -172 -30 -5 -4 -64 -14 -130 -24 -66 -10 -122 -21 -125 -25 -8 -11 -213
-30 -321 -30 -134 0 -200 15 -248 57 l-40 34 -32 -23 -31 -23 38 -33 c20 -17
45 -32 53 -32 9 0 26 -7 38 -15 36 -25 207 -37 346 -25 67 6 126 15 132 19 5
5 57 17 115 26 58 10 110 21 115 25 6 4 39 13 75 20 36 7 67 16 70 20 3 4 46
14 95 24 50 9 99 21 110 26 11 6 49 16 84 23 36 7 66 18 69 25 2 7 0 11 -5 11
-4 -1 -51 -8 -103 -17z"/>
</g>
</svg>
