<?xml version="1.0" standalone="no"?>
<!DOCTYPE svg PUBLIC "-//W3C//DTD SVG 20010904//EN"
 "http://www.w3.org/TR/2001/REC-SVG-20010904/DTD/svg10.dtd">
<svg version="1.0" xmlns="http://www.w3.org/2000/svg"
 width="134.000000pt" height="124.000000pt" viewBox="0 0 134.000000 124.000000"
 preserveAspectRatio="xMidYMid meet">
<metadata>
Created by potrace 1.16, written by Peter Selinger 2001-2019
</metadata>
<g transform="translate(0.000000,124.000000) scale(0.100000,-0.100000)"
fill="#000000" stroke="none">
<path d="M200 1097 c0 -10 -4 -17 -8 -17 -8 0 -43 -257 -42 -312 0 -15 -4 -30
-10 -33 -13 -8 -14 -342 -1 -349 5 -3 12 -36 16 -73 3 -38 9 -78 12 -90 14
-62 21 0 25 239 3 164 9 271 16 283 15 28 45 268 37 304 -7 35 -45 75 -45 48z"/>
<path d="M415 1100 c-11 -5 -44 -9 -74 -9 l-53 -1 7 -37 c3 -21 10 -41 14 -45
3 -4 59 -3 123 3 121 12 178 8 197 -14 8 -10 -3 -24 -45 -56 -54 -42 -55 -43
-81 -26 -21 14 -29 15 -49 4 -27 -14 -31 -34 -9 -43 29 -11 14 -26 -69 -73
-15 -9 -21 -22 -21 -49 0 -33 6 -42 50 -77 28 -22 50 -44 50 -50 0 -5 -23 -21
-52 -36 -29 -14 -52 -30 -52 -36 -1 -5 27 -37 60 -71 66 -67 68 -77 13 -100
-19 -8 -34 -18 -34 -23 0 -5 -8 -11 -17 -13 -15 -3 -13 -7 9 -22 24 -16 31
-16 58 -5 16 8 30 17 30 22 0 4 12 12 26 17 22 9 32 4 86 -42 88 -76 130 -119
124 -125 -8 -9 -359 16 -365 26 -4 4 -25 11 -48 15 -42 6 -43 6 -43 -22 0 -64
27 -75 240 -98 74 -8 228 -9 250 -1 8 3 42 8 74 11 33 4 74 13 91 22 18 8 54
17 82 19 75 5 123 16 123 28 0 6 3 8 6 4 16 -15 32 26 44 108 7 50 16 95 20
100 4 6 6 27 5 48 -2 20 1 37 6 37 11 0 11 177 1 195 -3 5 -7 25 -9 45 -7 69
-35 225 -43 235 -4 6 -10 21 -12 35 -2 21 -10 26 -51 33 -27 4 -59 14 -70 22
-12 8 -65 19 -117 25 -52 7 -103 16 -112 21 -22 11 -336 11 -363 -1z m510 -70
c3 -5 21 -10 40 -10 63 0 83 -14 90 -64 4 -26 11 -46 15 -46 4 0 10 -24 14
-54 3 -30 8 -61 12 -69 12 -33 -26 -23 -71 19 -26 24 -56 46 -67 49 -25 9 -23
21 7 41 14 9 25 23 25 31 0 11 -6 11 -27 -5 -48 -32 -59 -32 -110 1 -26 17
-49 35 -51 39 -2 5 -9 8 -15 8 -22 1 -60 37 -54 52 4 12 26 15 95 17 52 1 93
-3 97 -9z m-184 -96 c19 -13 40 -24 45 -24 17 0 74 -47 66 -54 -4 -4 -20 -14
-37 -22 -16 -8 -45 -23 -63 -34 -30 -16 -36 -17 -63 -3 -16 8 -29 19 -29 24 0
5 -6 9 -13 9 -17 0 -87 48 -87 60 0 6 6 10 14 10 8 0 23 10 33 23 40 52 70 54
134 11z m-194 -114 c20 -10 39 -23 42 -27 3 -4 19 -15 35 -23 16 -8 29 -19 30
-25 0 -5 -20 -21 -45 -35 -25 -14 -55 -31 -66 -37 -19 -11 -27 -8 -77 33 -31
26 -56 50 -56 54 0 10 81 80 93 80 4 0 24 -9 44 -20z m449 -37 c14 -12 29 -23
35 -23 5 0 9 -4 9 -10 0 -5 -11 -10 -25 -10 -14 0 -25 -3 -25 -7 0 -5 -24 -21
-54 -36 l-53 -28 -39 25 c-85 55 -83 52 -44 85 61 53 86 61 131 43 22 -8 51
-26 65 -39z m95 -63 c13 -7 19 -21 19 -45 0 -18 5 -37 10 -40 6 -3 10 -30 10
-60 0 -43 -4 -54 -17 -58 -19 -4 -79 35 -100 64 -7 9 -28 24 -48 33 -36 17
-40 24 -27 41 10 15 68 45 85 45 8 0 20 7 27 15 15 18 16 18 41 5z m-335 -27
c76 -42 82 -51 53 -74 -13 -10 -30 -19 -36 -19 -7 0 -13 -4 -13 -10 0 -5 -5
-10 -11 -10 -6 0 -24 -9 -40 -20 -27 -20 -29 -20 -56 -3 -15 9 -40 28 -54 42
l-26 25 51 34 c28 19 58 41 66 48 18 17 9 19 66 -13z m181 -108 c32 -19 74
-49 93 -65 29 -25 32 -32 20 -40 -8 -5 -22 -10 -30 -10 -9 0 -32 -11 -52 -25
-20 -14 -42 -25 -47 -25 -6 0 -11 -4 -11 -10 0 -5 -15 -17 -32 -25 -135 -65
-190 -110 -157 -130 12 -8 79 22 79 35 0 5 16 16 35 25 19 9 39 23 46 31 6 8
18 14 26 14 7 0 16 7 19 15 4 8 11 15 16 15 5 0 23 9 39 21 16 11 33 17 39 14
5 -3 10 -1 10 5 0 6 8 13 18 17 9 3 25 13 34 21 14 12 20 12 33 2 11 -9 15
-34 15 -101 0 -48 -4 -91 -10 -94 -5 -3 -10 -19 -10 -36 0 -16 -6 -29 -12 -30
-7 -1 -88 -3 -179 -5 l-166 -3 -72 77 c-39 42 -81 87 -93 99 -20 22 -20 24 -3
43 10 11 27 22 39 26 11 3 29 13 39 22 16 15 21 14 55 -3 20 -11 51 -30 68
-42 17 -13 36 -23 43 -23 18 0 8 23 -15 35 -41 20 -86 65 -80 80 3 8 20 21 38
29 18 8 49 28 68 45 19 17 36 31 37 31 1 0 28 -16 60 -35z m-376 -12 c13 -10
33 -23 44 -29 10 -6 20 -15 23 -22 4 -12 -70 -62 -93 -62 -8 0 -30 17 -50 38
l-34 37 32 27 c38 32 47 34 78 11z"/>
</g>
</svg>
