<?xml version="1.0" standalone="no"?>
<!DOCTYPE svg PUBLIC "-//W3C//DTD SVG 20010904//EN"
 "http://www.w3.org/TR/2001/REC-SVG-20010904/DTD/svg10.dtd">
<svg version="1.0" xmlns="http://www.w3.org/2000/svg"
 width="142.000000pt" height="194.000000pt" viewBox="0 0 142.000000 194.000000"
 preserveAspectRatio="xMidYMid meet">
<metadata>
Created by potrace 1.16, written by Peter Selinger 2001-2019
</metadata>
<g transform="translate(0.000000,194.000000) scale(0.100000,-0.100000)"
fill="#000000" stroke="none">
<path d="M597 1793 c-4 -3 -7 -37 -7 -75 l0 -68 -57 -2 c-32 -1 -128 -3 -213
-3 l-155 0 -3 -43 -3 -44 133 6 c73 4 171 9 218 12 94 6 110 -2 110 -58 0 -43
17 -33 24 15 5 30 12 43 24 45 37 4 197 13 414 21 125 5 233 13 240 17 17 12
-137 20 -417 24 -121 1 -225 5 -232 7 -9 4 -13 29 -13 79 l0 74 -28 0 c-16 0
-32 -3 -35 -7z"/>
<path d="M617 1434 c-4 -4 -7 -18 -7 -31 l0 -23 -231 0 -230 0 3 -42 3 -43
119 -3 c73 -2 123 1 130 8 5 5 55 10 112 10 l101 0 7 -90 c7 -86 17 -109 30
-74 3 9 6 26 6 38 0 12 4 26 9 31 6 6 11 30 13 55 3 42 5 45 33 46 17 1 128 5
248 9 119 4 219 11 222 15 2 4 28 8 57 9 68 2 76 11 10 11 -29 0 -52 5 -52 10
0 6 -7 10 -15 10 -8 0 -15 -4 -15 -9 0 -12 -78 -12 -86 0 -4 6 -11 6 -19 -1
-9 -8 -15 -8 -20 0 -4 6 -70 10 -181 10 l-174 0 0 25 c0 14 -6 25 -12 25 -7 0
-22 3 -33 6 -11 3 -24 2 -28 -2z"/>
<path d="M364 1182 c-12 -20 -25 -52 -29 -69 -3 -18 -10 -33 -14 -33 -3 0 -13
-21 -20 -47 -8 -27 -19 -61 -26 -78 -8 -16 -18 -48 -25 -70 -6 -22 -15 -49
-20 -60 -13 -30 -40 -160 -40 -194 0 -16 -5 -33 -10 -36 -12 -8 -13 -119 -1
-143 5 -9 15 -36 21 -59 7 -23 19 -44 26 -47 8 -3 14 -11 14 -18 0 -7 29 -44
64 -81 l63 -68 86 -18 c48 -9 89 -20 93 -24 11 -11 159 -8 170 3 5 5 55 12
109 14 118 5 145 12 145 36 0 10 6 23 14 29 18 15 36 96 36 160 0 48 -26 91
-48 77 -5 -3 -12 -49 -15 -103 -3 -54 -11 -112 -18 -130 l-13 -32 -135 -3
c-116 -3 -207 2 -271 15 -8 1 -21 7 -29 11 -8 5 -40 11 -70 12 -48 2 -60 7
-82 32 -25 28 -26 33 -17 79 6 26 14 53 18 58 4 6 16 48 25 94 9 47 21 92 25
100 5 9 16 52 25 96 9 44 21 89 25 100 5 11 14 49 21 85 6 36 14 67 18 70 4 3
15 41 23 84 14 68 14 84 2 113 -17 39 -34 43 -34 9 0 -13 -4 -26 -9 -28 -5 -1
-17 -52 -27 -113 -10 -60 -21 -112 -25 -115 -6 -5 -39 -180 -42 -222 -1 -10
-4 -18 -8 -18 -3 0 -12 -42 -19 -92 -7 -51 -16 -97 -20 -103 -4 -5 -11 -36
-15 -67 -4 -32 -10 -58 -14 -58 -3 1 -17 24 -31 53 -21 44 -25 66 -25 143 0
50 6 102 12 115 7 13 17 50 23 81 6 32 16 60 21 64 5 3 7 9 4 14 -3 4 2 21 10
36 8 16 15 38 15 49 0 11 9 38 20 60 11 22 19 46 20 54 0 8 9 33 19 55 37 79
53 137 40 152 -18 22 -33 16 -55 -24z"/>
<path d="M516 819 c-18 -56 -26 -95 -37 -166 -6 -46 -15 -83 -19 -83 -8 0 -34
-169 -27 -177 11 -10 25 8 31 41 4 19 13 47 20 62 8 16 20 62 27 102 7 39 16
72 21 72 5 0 7 -8 4 -17 -6 -18 -25 -129 -29 -168 -1 -11 -5 -22 -8 -25 -4 -3
-9 -31 -13 -62 -9 -69 8 -79 25 -15 6 23 14 49 19 57 4 9 13 43 20 75 8 33 17
65 21 70 4 6 12 39 19 75 6 36 13 73 15 83 2 9 -5 22 -16 28 -17 9 -20 6 -25
-21 -10 -48 -21 -44 -14 5 6 36 3 48 -11 61 -15 14 -19 14 -23 3z"/>
<path d="M635 718 c-2 -7 -9 -42 -15 -78 -6 -36 -15 -74 -20 -85 -11 -24 -40
-202 -40 -241 1 -27 1 -28 15 -10 8 10 20 43 26 72 l12 54 43 0 c23 0 44 -4
46 -9 5 -14 228 -27 228 -13 0 6 -21 14 -47 18 -27 3 -52 10 -58 13 -5 4 -41
13 -80 20 -127 22 -114 9 -96 100 9 44 20 83 24 87 4 4 7 19 7 34 0 38 -35 68
-45 38z"/>
</g>
</svg>
