<?xml version="1.0" standalone="no"?>
<!DOCTYPE svg PUBLIC "-//W3C//DTD SVG 20010904//EN"
 "http://www.w3.org/TR/2001/REC-SVG-20010904/DTD/svg10.dtd">
<svg version="1.0" xmlns="http://www.w3.org/2000/svg"
 width="238.000000pt" height="124.000000pt" viewBox="0 0 238.000000 124.000000"
 preserveAspectRatio="xMidYMid meet">
<metadata>
Created by potrace 1.16, written by Peter Selinger 2001-2019
</metadata>
<g transform="translate(0.000000,124.000000) scale(0.100000,-0.100000)"
fill="#000000" stroke="none">
<path d="M564 876 l8 -126 -211 0 -211 0 0 -46 0 -47 213 7 212 6 2 -110 2
-110 -219 0 -220 0 0 -50 0 -50 79 0 c46 0 83 5 86 11 5 7 49 10 124 8 65 -1
123 1 130 5 20 13 41 -14 41 -52 0 -34 1 -35 15 -16 8 10 15 31 15 47 0 26 2
27 53 27 28 0 97 3 152 6 55 3 165 9 245 12 119 6 145 10 145 22 0 13 -43 16
-294 24 l-294 9 6 93 c5 89 4 93 -16 96 -11 2 -22 8 -24 14 -4 12 91 24 194
24 34 0 64 4 67 8 3 5 90 12 193 16 103 4 190 9 192 12 17 17 -50 23 -318 28
-167 4 -308 9 -313 12 -12 7 -10 44 2 44 7 0 10 35 8 98 l-3 97 -34 3 -34 3 7
-125z"/>
<path d="M1705 990 c-3 -5 -28 -10 -55 -10 -33 0 -57 -6 -70 -17 -31 -26 -129
-233 -136 -287 -4 -26 -11 -49 -15 -52 -12 -7 -12 -81 0 -88 4 -3 11 -24 15
-46 3 -22 15 -58 27 -79 15 -29 18 -45 11 -57 -7 -12 -6 -21 2 -28 20 -19 73
-46 90 -46 9 0 16 -4 16 -9 0 -28 233 -40 503 -26 135 7 180 18 127 32 -13 4
-19 11 -16 22 3 9 10 43 17 76 7 33 16 65 20 70 18 24 31 185 26 309 l-5 130
-37 32 c-31 25 -55 34 -129 48 -51 9 -106 16 -123 16 -18 0 -35 5 -38 10 -4 6
-53 10 -115 10 -62 0 -111 -4 -115 -10z m125 -151 c0 -50 5 -99 10 -109 6 -11
8 -31 4 -45 -6 -24 -8 -25 -99 -25 -58 0 -96 4 -101 11 -4 8 -9 7 -15 -2 -6
-10 -9 -11 -9 -1 0 8 -18 12 -56 12 l-56 0 7 36 c9 51 25 83 75 157 19 27 32
37 53 37 15 0 27 5 27 10 0 6 33 10 80 10 l80 0 0 -91z m286 80 c3 -5 20 -9
39 -9 33 0 34 0 41 -57 4 -31 7 -91 8 -133 l1 -75 -145 4 c-80 2 -148 8 -151
13 -8 12 -5 181 4 195 4 6 4 18 1 27 -15 39 1 47 101 45 52 -1 98 -5 101 -10z
m91 -351 c-3 -24 -11 -98 -18 -165 l-12 -123 -138 0 -139 0 0 153 c0 106 4
157 12 165 8 8 57 12 156 12 l144 0 -5 -42z m-359 5 c-1 -10 0 -22 4 -28 3 -5
7 -66 9 -135 l4 -125 -78 2 c-43 1 -84 6 -90 11 -7 5 -25 12 -42 16 -50 10
-133 59 -139 81 -3 11 -6 32 -6 47 0 15 -4 30 -10 33 -5 3 -10 31 -10 61 l0
54 181 0 c166 0 180 -1 177 -17z"/>
</g>
</svg>
