<?xml version="1.0" standalone="no"?>
<!DOCTYPE svg PUBLIC "-//W3C//DTD SVG 20010904//EN"
 "http://www.w3.org/TR/2001/REC-SVG-20010904/DTD/svg10.dtd">
<svg version="1.0" xmlns="http://www.w3.org/2000/svg"
 width="178.000000pt" height="100.000000pt" viewBox="0 0 178.000000 100.000000"
 preserveAspectRatio="xMidYMid meet">
<metadata>
Created by potrace 1.16, written by Peter Selinger 2001-2019
</metadata>
<g transform="translate(0.000000,100.000000) scale(0.100000,-0.100000)"
fill="#000000" stroke="none">
<path d="M76 893 c-9 -9 -7 -36 4 -53 7 -11 38 -17 122 -22 62 -4 129 -9 148
-11 19 -2 134 -7 255 -11 121 -3 253 -9 293 -12 l73 -6 -3 -76 -3 -75 -105 2
c-113 2 -430 15 -652 26 l-138 6 0 -28 c0 -63 -16 -60 453 -66 269 -3 433 -9
439 -15 5 -5 7 -18 4 -28 -5 -18 -25 -19 -436 -16 -387 2 -431 1 -437 -13 -3
-9 -2 -20 3 -25 5 -5 204 -12 442 -16 410 -7 432 -8 432 -26 0 -17 -12 -18
-152 -20 -84 -1 -167 -1 -185 1 -17 1 -34 -3 -38 -9 -4 -6 -66 -10 -164 -10
-303 0 -382 -13 -339 -56 12 -12 52 -13 279 -4 145 6 339 12 432 15 l167 4 0
-49 c0 -27 -3 -51 -7 -53 -5 -3 -147 -8 -318 -12 -171 -4 -317 -11 -325 -15
-8 -4 -60 -7 -116 -7 -121 -1 -143 -9 -136 -54 l5 -31 56 6 c31 3 133 8 226
12 94 4 175 10 180 14 6 4 26 8 45 8 124 2 495 24 545 32 51 8 225 20 500 34
l60 3 -3 65 c-2 42 1 68 8 73 7 4 11 40 12 93 0 48 2 131 5 186 3 65 1 102 -7
110 -6 6 -82 17 -168 24 -222 17 -264 21 -377 31 -55 5 -183 14 -285 20 -102
7 -201 16 -220 21 -19 5 -143 14 -275 20 -132 6 -252 13 -266 15 -15 2 -29 1
-33 -2z m1303 -129 c13 -3 69 -6 125 -6 142 -2 146 -4 146 -95 l0 -73 -42 0
c-140 0 -565 24 -576 33 -9 7 -11 27 -7 71 4 34 8 66 10 73 3 8 46 10 162 7
87 -3 169 -7 182 -10z m271 -244 l0 -39 -32 10 c-18 5 -160 9 -315 9 l-283 0
0 30 0 31 315 -2 315 -1 0 -38z m0 -84 l0 -26 -320 0 c-287 0 -319 2 -313 16
3 9 14 19 25 23 10 3 151 8 313 10 l295 3 0 -26z m0 -114 l0 -50 -262 -7
c-325 -8 -395 -6 -389 15 2 8 6 29 9 47 l4 32 112 3 c61 2 204 4 319 6 l207 3
0 -49z"/>
</g>
</svg>
