<?xml version="1.0" standalone="no"?>
<!DOCTYPE svg PUBLIC "-//W3C//DTD SVG 20010904//EN"
 "http://www.w3.org/TR/2001/REC-SVG-20010904/DTD/svg10.dtd">
<svg version="1.0" xmlns="http://www.w3.org/2000/svg"
 width="182.000000pt" height="142.000000pt" viewBox="0 0 182.000000 142.000000"
 preserveAspectRatio="xMidYMid meet">
<metadata>
Created by potrace 1.16, written by Peter Selinger 2001-2019
</metadata>
<g transform="translate(0.000000,142.000000) scale(0.100000,-0.100000)"
fill="#000000" stroke="none">
<path d="M312 1300 c-6 -22 -12 -64 -12 -94 l0 -55 -57 -16 c-72 -20 -103 -35
-103 -50 0 -16 25 -37 33 -29 4 4 17 8 29 10 13 2 42 8 66 13 37 7 44 6 53
-10 8 -16 5 -21 -18 -30 -49 -19 -58 -26 -61 -43 -4 -19 27 -21 113 -5 46 8
60 8 66 -3 16 -24 9 -36 -25 -42 -35 -7 -50 -25 -40 -49 4 -12 17 -12 76 0 72
13 123 11 61 -2 -18 -4 -33 -11 -33 -16 0 -5 -9 -9 -21 -9 -25 0 -23 -27 3
-44 13 -8 23 -8 39 2 11 7 29 10 39 7 11 -3 32 1 49 9 18 10 32 12 36 6 6 -9
-56 -40 -81 -40 -8 0 -14 -11 -14 -25 0 -26 0 -26 63 -19 94 12 112 11 113 -6
3 -42 4 -43 18 -30 8 6 16 22 18 36 3 23 8 21 116 -56 62 -44 115 -80 117 -80
3 0 42 -27 87 -60 73 -54 138 -128 138 -159 0 -5 3 -11 8 -13 4 -1 16 -17 27
-35 11 -17 62 -75 114 -128 l94 -97 21 21 c11 11 57 56 102 98 130 126 172
217 153 332 -6 36 -15 70 -20 75 -5 6 -9 16 -9 23 0 39 -57 130 -145 231 -63
72 -74 81 -106 81 -20 1 -51 6 -69 13 -31 10 -35 9 -54 -17 -25 -33 -47 -74
-97 -176 -42 -85 -56 -126 -65 -192 -11 -79 -17 -76 -292 140 -48 38 -69 60
-62 67 17 17 11 25 -22 28 l-33 3 -3 80 c-3 80 -17 115 -41 101 -6 -4 -11 -32
-11 -62 0 -80 -23 -66 -27 17 -4 85 -10 109 -28 109 -11 0 -15 -12 -15 -42 0
-49 -15 -83 -25 -58 -3 8 -7 45 -8 81 -2 36 -7 71 -11 77 -14 23 -36 -8 -36
-49 0 -37 -2 -39 -30 -39 l-30 0 -1 63 c-2 83 -11 122 -29 122 -11 0 -15 -12
-17 -43 -2 -49 0 -47 -30 -56 -21 -7 -23 -4 -23 31 0 69 -13 143 -24 143 -6 0
-17 -18 -24 -40z m160 -332 c-6 -6 -15 -9 -18 -5 -4 3 -4 14 0 23 5 13 9 15
18 6 9 -9 9 -15 0 -24z m878 -50 c0 -16 -3 -19 -11 -11 -6 6 -8 16 -5 22 11
17 16 13 16 -11z m236 -161 c4 -12 13 -27 20 -34 7 -8 18 -31 24 -51 5 -21 16
-46 24 -57 20 -26 20 -55 1 -55 -8 0 -15 -4 -15 -9 0 -5 -5 -22 -12 -38 -6
-15 -12 -30 -13 -33 -14 -40 -78 -152 -106 -185 -10 -11 -31 -36 -48 -55 l-30
-35 -1 70 c0 39 -5 164 -11 280 -5 116 -7 250 -3 300 l7 90 78 -84 c43 -46 81
-93 85 -104z m-248 0 c-22 -18 -122 -138 -141 -169 -15 -24 -47 -39 -47 -22 0
12 35 67 60 94 14 15 50 59 80 99 54 70 55 70 58 40 2 -18 -3 -36 -10 -42z
m22 -71 c0 -2 -8 -10 -17 -17 -16 -13 -17 -12 -4 4 13 16 21 21 21 13z m-59
-72 c-11 -15 -21 -21 -21 -14 0 15 31 52 38 46 2 -3 -5 -17 -17 -32z m-44 -56
c-9 -13 -25 -34 -36 -48 -18 -23 -20 -24 -27 -6 -5 14 2 26 32 51 43 37 55 38
31 3z m103 9 c0 -14 -98 -137 -110 -137 -4 0 -11 8 -14 17 -5 12 10 34 51 75
58 59 73 68 73 45z m6 -140 c-3 -12 -17 -35 -31 -50 -21 -24 -28 -27 -40 -17
-24 20 -18 37 28 81 43 43 57 38 43 -14z m34 -155 c0 -52 -13 -52 -42 0 -21
37 -21 38 -3 58 18 20 20 20 32 4 7 -10 13 -38 13 -62z"/>
</g>
</svg>
