<?xml version="1.0" standalone="no"?>
<!DOCTYPE svg PUBLIC "-//W3C//DTD SVG 20010904//EN"
 "http://www.w3.org/TR/2001/REC-SVG-20010904/DTD/svg10.dtd">
<svg version="1.0" xmlns="http://www.w3.org/2000/svg"
 width="164.000000pt" height="190.000000pt" viewBox="0 0 164.000000 190.000000"
 preserveAspectRatio="xMidYMid meet">
<metadata>
Created by potrace 1.16, written by Peter Selinger 2001-2019
</metadata>
<g transform="translate(0.000000,190.000000) scale(0.100000,-0.100000)"
fill="#000000" stroke="none">
<path d="M890 1709 c-14 -22 -30 -46 -35 -52 -6 -7 -18 -24 -27 -39 -12 -18
-28 -28 -50 -30 -30 -3 -33 -6 -36 -41 -3 -38 -4 -38 -23 -21 -10 9 -19 22
-19 27 0 5 -14 23 -30 39 -25 23 -34 27 -50 18 -11 -6 -20 -17 -20 -24 0 -7
33 -44 73 -83 40 -39 78 -81 84 -94 6 -13 14 -69 17 -124 3 -55 2 -93 -2 -84
-4 9 -19 29 -34 45 -14 16 -46 51 -71 78 -31 35 -49 47 -61 43 -29 -11 -19
-54 20 -84 20 -15 64 -56 99 -90 63 -61 63 -62 70 -130 4 -37 12 -73 17 -80
12 -15 2 -33 -18 -33 -8 0 -14 -7 -14 -16 0 -10 -6 -13 -18 -10 -16 6 -18 0
-18 -44 1 -42 5 -54 30 -75 16 -14 26 -28 23 -31 -3 -4 -13 1 -22 10 -26 26
-31 19 -32 -41 -1 -88 -2 -93 -19 -93 -8 0 -12 -5 -9 -10 4 -6 11 -8 16 -5 5
4 9 -1 9 -9 0 -20 10 -20 24 -1 8 11 11 -30 13 -163 2 -208 12 -362 23 -362
14 0 20 60 20 191 0 74 4 130 10 134 6 3 10 37 10 75 0 62 11 92 27 76 4 -3
10 -108 16 -233 5 -126 13 -232 18 -237 22 -24 29 23 36 247 5 200 4 237 -8
237 -15 0 -41 46 -30 53 3 2 0 2 -7 1 -17 -4 -42 6 -42 17 0 5 11 7 25 3 30
-7 42 14 26 44 -6 11 -8 22 -3 25 4 2 1 2 -6 1 -17 -4 -42 6 -42 17 0 5 12 6
26 3 20 -5 26 -2 31 15 3 11 10 21 15 21 5 0 6 -10 3 -22 -6 -17 -4 -20 11
-14 10 4 21 2 25 -5 4 -7 12 -8 20 -3 8 5 23 7 34 5 19 -3 19 -1 -3 19 -15 14
-21 28 -17 41 4 11 2 19 -5 19 -6 0 -8 -5 -5 -10 9 -14 -8 -13 -23 2 -18 18
-15 25 11 24 18 -1 22 4 22 33 1 19 8 38 18 46 9 7 17 15 17 19 0 3 23 36 51
72 36 45 60 67 80 71 16 3 29 9 29 13 0 4 44 12 97 19 105 13 123 21 123 57 0
28 -4 29 -60 9 -23 -8 -46 -12 -52 -9 -5 3 -14 1 -21 -4 -17 -13 -87 -35 -94
-29 -2 3 17 34 44 69 27 35 52 70 55 80 4 9 24 19 50 23 24 4 48 11 53 15 6 4
36 14 68 21 65 14 68 17 60 47 -6 26 -24 28 -61 8 -34 -18 -92 -37 -92 -30 0
3 9 19 20 35 l21 28 -35 23 c-35 23 -36 24 -36 94 0 97 -8 134 -30 134 -21 0
-45 -26 -32 -34 5 -3 15 -49 22 -103 12 -92 11 -101 -6 -132 -11 -19 -25 -45
-33 -58 -7 -14 -22 -28 -32 -30 -10 -3 -19 -16 -21 -32 -6 -55 -23 -23 -26 49
-1 41 -5 82 -9 90 -7 18 -10 28 -11 58 -2 23 -17 28 -41 13 -12 -8 -12 -22 -1
-92 7 -46 16 -88 20 -94 5 -5 11 -35 15 -65 6 -49 4 -59 -19 -89 -14 -19 -26
-41 -26 -48 0 -7 -9 -17 -20 -23 -11 -6 -20 -16 -20 -24 0 -7 -13 -30 -30 -52
-16 -21 -30 -45 -30 -51 0 -7 -4 -13 -10 -13 -5 0 -10 -7 -10 -15 0 -24 -29
-30 -46 -9 -14 18 -15 18 -12 -1 1 -11 -1 -26 -6 -34 -5 -8 -3 -16 5 -22 11
-7 9 -14 -12 -35 -15 -15 -32 -23 -38 -20 -18 12 -12 24 9 19 26 -7 35 18 19
49 -7 13 -12 28 -11 35 1 6 -2 14 -8 18 -5 3 -10 -2 -10 -11 0 -24 -13 -8 -16
19 -1 12 -5 81 -9 153 -6 111 -5 135 9 162 9 18 21 32 27 32 5 0 12 8 16 18 3
9 35 50 71 90 l65 73 -21 21 c-17 18 -23 19 -36 8 -9 -7 -16 -17 -16 -22 0 -5
-18 -32 -41 -60 -22 -28 -47 -67 -55 -86 -12 -30 -16 -33 -30 -21 -14 11 -14
13 0 21 20 11 20 32 1 48 -11 9 -15 32 -15 83 l0 70 58 66 c67 75 86 106 78
127 -10 27 -42 14 -66 -27z m-74 -793 c-1 -18 -4 -22 -14 -14 -9 8 -9 14 -1
24 16 19 17 18 15 -10z m-36 -26 c0 -5 -4 -10 -10 -10 -5 0 -10 5 -10 10 0 6
5 10 10 10 6 0 10 -4 10 -10z m106 -28 c-4 -3 -11 0 -16 8 -15 24 -11 33 6 15
9 -9 13 -19 10 -23z m-59 -26 c3 -3 -2 -6 -12 -6 -17 0 -17 -2 3 -20 23 -22
29 -40 13 -40 -5 0 -13 9 -16 21 -4 11 -18 25 -31 31 -13 6 -24 14 -24 18 0 9
58 6 67 -4z m59 -64 c-4 -3 -11 0 -16 8 -15 24 -11 33 6 15 9 -9 13 -19 10
-23z m81 23 c8 -9 13 -19 10 -22 -6 -5 -37 21 -37 31 0 10 11 6 27 -9z m-187
-45 c0 -5 -4 -10 -10 -10 -5 0 -10 5 -10 10 0 6 5 10 10 10 6 0 10 -4 10 -10z
m54 -85 c1 -79 -3 -90 -19 -52 -6 12 -20 26 -32 32 -31 13 -29 27 2 19 32 -8
43 17 22 50 -12 17 -13 26 -4 35 20 20 30 -6 31 -84z m-34 25 c0 -5 -5 -10
-11 -10 -5 0 -7 5 -4 10 3 6 8 10 11 10 2 0 4 -4 4 -10z m90 0 c0 -5 -4 -10
-10 -10 -5 0 -10 5 -10 10 0 6 5 10 10 10 6 0 10 -4 10 -10z m-25 -60 c3 -5 1
-10 -4 -10 -6 0 -11 5 -11 10 0 6 2 10 4 10 3 0 8 -4 11 -10z m25 -30 c0 -5
-4 -10 -10 -10 -5 0 -10 5 -10 10 0 6 5 10 10 10 6 0 10 -4 10 -10z"/>
<path d="M805 730 c3 -5 8 -10 11 -10 2 0 4 5 4 10 0 6 -5 10 -11 10 -5 0 -7
-4 -4 -10z"/>
<path d="M337 1683 c-4 -3 -7 -37 -7 -73 0 -97 -9 -130 -36 -141 -13 -4 -24
-13 -24 -19 0 -13 22 -53 35 -62 6 -4 0 -8 -12 -8 -12 0 -28 6 -35 13 -7 8
-27 17 -43 21 -17 4 -37 9 -46 12 -24 7 -33 -36 -12 -52 9 -6 47 -17 85 -24
37 -7 68 -17 68 -22 0 -4 10 -8 23 -8 15 0 37 -19 70 -60 26 -32 47 -62 47
-66 0 -3 9 -19 21 -35 18 -26 19 -28 2 -23 -47 15 -81 27 -108 39 -16 7 -47
16 -67 20 -35 7 -38 5 -38 -16 0 -29 28 -43 120 -59 36 -7 79 -18 95 -25 17
-7 39 -15 49 -17 10 -1 24 -12 30 -23 6 -11 17 -24 24 -28 6 -4 12 -13 12 -20
0 -7 27 -41 60 -77 33 -36 60 -66 60 -68 0 -2 -7 -1 -16 2 -12 4 -14 1 -9 -14
5 -15 2 -20 -11 -20 -14 0 -15 -3 -6 -12 20 -20 60 26 59 67 -1 19 -4 32 -8
30 -3 -3 -19 14 -35 38 -16 23 -33 45 -39 49 -5 4 -6 8 -2 8 4 0 -10 24 -33
53 -22 30 -40 58 -40 62 0 5 -11 26 -26 46 -25 36 -25 38 -14 125 7 49 16 98
20 109 5 11 12 39 15 61 6 39 5 42 -22 47 -15 3 -30 3 -32 1 -2 -2 -6 -50 -8
-106 -2 -57 -7 -114 -10 -128 l-6 -25 -11 26 c-6 15 -25 41 -43 59 -17 18 -37
45 -43 61 -7 16 -16 29 -21 29 -12 0 -11 104 0 116 6 5 13 39 17 77 7 66 7 67
-18 67 -14 0 -28 -3 -31 -7z"/>
<path d="M895 910 c3 -5 8 -10 11 -10 2 0 4 5 4 10 0 6 -5 10 -11 10 -5 0 -7
-4 -4 -10z"/>
<path d="M1010 850 c0 -5 5 -10 11 -10 5 0 7 5 4 10 -3 6 -8 10 -11 10 -2 0
-4 -4 -4 -10z"/>
<path d="M720 820 c0 -5 -6 -10 -14 -10 -18 0 -29 -31 -20 -54 4 -11 1 -16
-12 -16 -17 -1 -17 -2 -4 -13 8 -7 15 -23 15 -37 0 -18 5 -25 20 -25 16 0 20
7 22 39 0 22 -2 34 -7 26 -5 -7 -10 -8 -14 -2 -3 5 0 15 8 21 11 10 19 81 9
81 -2 0 -3 -4 -3 -10z m-5 -40 c3 -5 1 -10 -4 -10 -6 0 -11 5 -11 10 0 6 2 10
4 10 3 0 8 -4 11 -10z m5 -90 c0 -5 -4 -10 -10 -10 -5 0 -10 5 -10 10 0 6 5
10 10 10 6 0 10 -4 10 -10z"/>
<path d="M1012 803 c2 -9 8 -18 15 -20 7 -3 9 3 6 16 -6 25 -26 28 -21 4z"/>
<path d="M650 800 c0 -5 5 -10 10 -10 6 0 10 5 10 10 0 6 -4 10 -10 10 -5 0
-10 -4 -10 -10z"/>
<path d="M650 760 c0 -5 5 -10 10 -10 6 0 10 5 10 10 0 6 -4 10 -10 10 -5 0
-10 -4 -10 -10z"/>
<path d="M929 737 c-7 -8 -5 -127 2 -127 5 0 9 5 9 11 0 6 6 9 13 6 7 -3 22 2
32 10 17 13 17 15 3 10 -21 -7 -48 1 -48 14 0 5 11 7 25 3 30 -7 42 14 26 44
-8 15 -8 21 1 24 6 2 -6 4 -26 5 -20 1 -37 0 -37 0z m51 -47 c0 -5 -4 -10 -10
-10 -5 0 -10 5 -10 10 0 6 5 10 10 10 6 0 10 -4 10 -10z"/>
<path d="M1017 733 c-10 -9 -8 -33 2 -33 5 0 11 9 14 20 5 20 -3 26 -16 13z"/>
<path d="M684 353 c6 -210 13 -269 31 -252 2 3 8 114 11 247 l7 242 -28 0 -28
0 7 -237z"/>
<path d="M980 485 c0 -63 4 -105 10 -105 6 0 10 -33 10 -79 0 -98 10 -201 20
-201 9 0 16 101 25 338 l6 152 -35 0 -36 0 0 -105z"/>
</g>
</svg>
