<?xml version="1.0" standalone="no"?>
<!DOCTYPE svg PUBLIC "-//W3C//DTD SVG 20010904//EN"
 "http://www.w3.org/TR/2001/REC-SVG-20010904/DTD/svg10.dtd">
<svg version="1.0" xmlns="http://www.w3.org/2000/svg"
 width="104.000000pt" height="138.000000pt" viewBox="0 0 104.000000 138.000000"
 preserveAspectRatio="xMidYMid meet">
<metadata>
Created by potrace 1.16, written by Peter Selinger 2001-2019
</metadata>
<g transform="translate(0.000000,138.000000) scale(0.100000,-0.100000)"
fill="#000000" stroke="none">
<path d="M339 1173 c0 -60 -4 -117 -8 -127 -5 -12 -26 -24 -60 -33 -45 -11
-111 -57 -111 -77 0 -3 -11 -21 -24 -41 -14 -20 -28 -57 -31 -83 -3 -26 -10
-55 -16 -64 -12 -23 -12 -115 1 -123 6 -3 10 -19 10 -35 0 -49 23 -170 33
-170 4 0 6 -9 2 -19 -3 -11 -2 -22 3 -25 6 -3 13 -26 16 -51 4 -25 12 -45 18
-45 13 0 0 170 -15 188 -6 7 -10 78 -11 170 0 156 0 157 29 211 36 65 65 88
123 97 l42 7 0 -42 c0 -41 13 -55 24 -25 3 9 6 27 6 41 0 24 2 25 43 19 129
-20 167 -29 184 -44 10 -10 34 -18 54 -19 20 -1 57 -11 83 -22 25 -12 59 -24
75 -27 17 -4 33 -14 36 -23 13 -32 18 -375 6 -435 -13 -69 -57 -165 -80 -174
-9 -3 -19 -10 -22 -14 -16 -24 -223 -23 -239 1 -3 5 -54 16 -115 26 -60 10
-112 21 -115 25 -3 4 -25 11 -49 15 -34 6 -42 4 -39 -6 2 -7 20 -17 39 -22 19
-5 39 -12 44 -17 6 -4 28 -11 50 -15 22 -3 54 -13 70 -20 17 -7 62 -21 100
-31 39 -10 73 -22 77 -27 3 -6 50 -12 105 -14 97 -5 98 -5 140 26 31 22 52 50
75 98 31 67 32 70 34 233 2 175 -11 367 -27 386 -5 7 -19 10 -29 7 -11 -3 -31
2 -45 11 -23 15 -25 22 -23 86 1 39 5 70 10 70 4 0 8 52 8 115 l0 115 -25 0
-25 0 0 -175 c0 -126 -3 -175 -12 -175 -6 0 -36 12 -66 26 l-55 26 7 86 c3 48
9 122 13 165 l6 77 -162 0 -161 0 -1 -107z m271 69 c0 -10 -5 -23 -12 -30 -15
-15 -90 -16 -106 0 -9 9 -17 9 -36 -2 -27 -14 -60 -7 -53 13 2 6 19 12 38 13
19 0 41 3 49 7 13 5 43 10 103 15 10 1 17 -5 17 -16z m-2 -94 l-3 -33 -108 -1
c-201 -3 -125 55 86 65 26 1 28 -2 25 -31z m-7 -58 c5 0 9 -30 9 -66 0 -72 0
-72 -75 -39 -16 7 -50 16 -75 20 -55 9 -80 21 -80 40 0 17 17 22 108 31 39 4
72 11 72 16 0 6 7 7 16 4 9 -3 20 -6 25 -6z"/>
<path d="M212 788 c2 -19 10 -24 47 -26 24 -2 49 2 54 7 6 6 34 11 61 11 47 1
49 2 32 15 -14 11 -46 15 -109 15 -86 0 -88 -1 -85 -22z"/>
<path d="M480 785 c0 -24 3 -25 53 -25 29 0 57 4 63 9 5 6 32 11 59 13 49 3
49 4 22 16 -16 6 -66 12 -113 12 -83 0 -84 0 -84 -25z"/>
<path d="M212 699 c3 -22 8 -24 67 -27 36 -2 69 2 74 7 6 6 24 11 41 11 22 0
27 3 19 11 -7 7 -55 14 -108 17 l-97 5 4 -24z"/>
<path d="M480 696 c0 -26 1 -26 74 -26 41 0 78 5 81 10 3 6 20 10 38 10 23 0
28 3 20 11 -7 7 -57 14 -112 17 l-101 5 0 -27z"/>
<path d="M210 575 l0 -28 63 7 c113 12 147 18 147 27 0 5 -20 9 -44 9 -23 0
-71 3 -105 6 l-61 7 0 -28z"/>
<path d="M484 585 c-13 -32 9 -37 112 -25 147 16 146 27 -4 36 -89 5 -103 4
-108 -11z"/>
<path d="M210 440 c0 -23 1 -23 101 -17 96 5 119 10 106 23 -3 3 -51 8 -106
11 -100 6 -101 6 -101 -17z"/>
<path d="M488 454 c-5 -4 -8 -14 -8 -22 0 -12 17 -14 105 -10 98 4 126 10 113
23 -9 10 -202 18 -210 9z"/>
</g>
</svg>
