<?xml version="1.0" standalone="no"?>
<!DOCTYPE svg PUBLIC "-//W3C//DTD SVG 20010904//EN"
 "http://www.w3.org/TR/2001/REC-SVG-20010904/DTD/svg10.dtd">
<svg version="1.0" xmlns="http://www.w3.org/2000/svg"
 width="96.000000pt" height="108.000000pt" viewBox="0 0 96.000000 108.000000"
 preserveAspectRatio="xMidYMid meet">
<metadata>
Created by potrace 1.16, written by Peter Selinger 2001-2019
</metadata>
<g transform="translate(0.000000,108.000000) scale(0.100000,-0.100000)"
fill="#000000" stroke="none">
<path d="M308 983 c-32 -2 -58 -8 -58 -13 0 -6 -16 -10 -36 -10 -27 0 -45 -9
-79 -41 -50 -47 -65 -95 -65 -204 0 -82 18 -264 29 -290 5 -11 14 -63 20 -115
13 -104 18 -113 86 -132 22 -7 43 -16 46 -21 13 -19 225 -32 311 -19 44 6 86
15 92 20 6 5 43 17 81 26 113 28 152 56 80 56 -23 0 -35 5 -35 14 0 8 7 99 16
203 23 269 10 503 -27 503 -5 0 -9 7 -9 15 0 8 -8 15 -19 15 -10 0 -24 -7 -31
-15 -14 -17 -47 -20 -52 -5 -3 10 -259 20 -350 13z m419 -65 c7 -6 13 -20 13
-32 0 -12 5 -27 10 -32 15 -15 14 -552 -1 -570 -9 -11 -8 -14 2 -15 10 0 11
-2 2 -6 -7 -2 -13 -13 -13 -23 0 -23 -27 -28 -207 -36 -137 -7 -272 5 -312 26
-9 5 -28 11 -42 14 -24 5 -27 11 -33 67 -3 34 -6 76 -6 93 l0 32 103 -9 c111
-9 287 -1 287 14 0 5 10 9 21 9 51 0 149 24 149 37 0 9 -11 12 -37 9 -135 -15
-228 -16 -338 -6 -69 7 -125 17 -125 21 0 5 -13 9 -29 9 -23 0 -33 7 -45 32
-9 17 -16 47 -16 66 0 32 2 34 28 28 15 -3 74 -9 132 -12 58 -4 110 -11 117
-16 14 -11 142 -7 150 5 3 5 35 8 71 7 37 -1 77 2 90 6 43 13 21 24 -48 24
-103 0 -373 21 -385 30 -5 4 -39 10 -75 14 -35 3 -69 11 -74 16 -7 7 -6 10 2
10 7 0 12 15 12 35 0 41 21 87 55 121 28 28 115 40 291 43 60 1 110 4 112 6 8
8 126 -6 139 -17z"/>
</g>
</svg>
