<?xml version="1.0" standalone="no"?>
<!DOCTYPE svg PUBLIC "-//W3C//DTD SVG 20010904//EN"
 "http://www.w3.org/TR/2001/REC-SVG-20010904/DTD/svg10.dtd">
<svg version="1.0" xmlns="http://www.w3.org/2000/svg"
 width="264.000000pt" height="144.000000pt" viewBox="0 0 264.000000 144.000000"
 preserveAspectRatio="xMidYMid meet">
<metadata>
Created by potrace 1.16, written by Peter Selinger 2001-2019
</metadata>
<g transform="translate(0.000000,144.000000) scale(0.100000,-0.100000)"
fill="#000000" stroke="none">
<path d="M1828 1184 l-3 -109 -95 -15 c-52 -8 -99 -18 -105 -21 -5 -4 -35 -12
-65 -19 -30 -7 -71 -21 -90 -31 -19 -11 -40 -19 -46 -19 -18 0 -112 -88 -120
-113 -4 -12 -24 -48 -45 -79 -36 -52 -39 -63 -39 -123 0 -98 40 -162 153 -242
25 -18 50 -33 56 -33 6 0 11 -4 11 -10 0 -5 3 -9 8 -8 4 1 19 -4 33 -10 15 -6
44 -14 65 -18 22 -4 41 -10 44 -14 3 -3 37 -14 75 -24 39 -10 84 -24 100 -31
17 -8 38 -16 48 -19 13 -4 17 -16 17 -54 0 -53 15 -78 37 -61 9 8 17 8 26 1
16 -13 165 -13 173 0 8 12 -16 29 -28 22 -5 -3 -7 43 -6 103 l3 108 143 5 c78
3 142 2 142 -2 0 -4 15 -2 33 3 17 5 55 9 82 8 28 -1 56 -1 63 0 14 1 16 28 2
33 -6 2 -6 25 1 67 5 35 8 66 5 68 -2 2 -64 8 -138 13 -176 12 -266 19 -305
26 l-33 5 0 83 0 84 31 6 c17 3 55 6 85 6 29 0 56 5 59 10 4 6 14 10 23 9 10
-2 68 1 131 5 113 8 114 8 132 -15 l19 -24 0 52 c0 28 5 55 10 58 6 3 10 33
10 66 0 75 0 75 -188 84 -78 4 -176 10 -219 14 l-78 6 -3 123 -3 122 -52 0
c-29 0 -75 3 -104 6 l-52 7 -3 -109z m146 -357 c4 -234 11 -416 17 -422 5 -5
9 -59 9 -121 l0 -112 -47 10 c-96 19 -93 13 -93 169 0 76 4 140 9 143 4 3 11
133 15 288 9 394 13 448 37 448 11 0 19 4 19 10 0 5 6 7 13 4 11 -4 15 -86 21
-417z m-150 177 c3 -9 6 -177 6 -374 l0 -359 -32 11 c-18 6 -35 14 -38 17 -6
7 -76 41 -140 67 -25 10 -47 21 -50 25 -3 3 -23 12 -45 19 -22 7 -56 23 -75
35 -19 12 -43 24 -52 28 -10 3 -18 11 -18 17 0 5 -6 10 -14 10 -20 0 -62 53
-76 95 -18 55 -8 160 18 188 12 13 22 28 22 33 0 14 83 94 98 94 7 0 12 4 12
8 0 11 61 30 78 24 7 -2 18 -16 23 -30 12 -32 -1 -42 -57 -42 -57 0 -72 -20
-45 -58 11 -16 27 -35 36 -42 24 -20 18 -30 -19 -30 -19 0 -38 -4 -41 -10 -4
-6 -13 -5 -24 2 -19 11 -51 5 -51 -10 0 -9 22 -31 95 -96 33 -30 37 -36 20
-36 -30 0 -47 -20 -34 -37 14 -16 33 -17 59 -1 21 14 53 1 96 -39 14 -13 27
-23 30 -23 3 0 31 -23 63 -50 51 -45 81 -61 81 -44 0 9 -97 104 -107 104 -14
0 -76 67 -66 73 28 16 76 18 99 2 35 -23 53 -14 26 13 -27 27 -27 32 -2 32 34
0 22 20 -12 21 -25 0 -41 10 -67 40 -33 38 -33 40 -15 54 24 17 65 26 93 18
32 -8 26 20 -14 64 -19 21 -35 43 -35 50 0 7 18 17 40 23 60 16 49 31 -17 24
-48 -5 -62 -3 -81 12 -39 32 -20 50 64 63 41 6 90 11 109 11 19 0 35 5 35 10
0 16 17 12 24 -6z m492 -35 c4 -8 9 -8 17 0 6 6 37 11 68 11 l58 0 6 -47 c3
-27 9 -60 11 -75 l6 -28 -180 0 c-98 0 -200 3 -226 6 l-47 7 3 56 3 56 120 3
c66 1 124 7 129 12 13 13 23 13 32 -1z m-694 -146 c15 -15 28 -30 28 -34 0 -4
-23 -10 -51 -14 -44 -6 -53 -4 -75 16 -37 35 -26 46 60 58 6 0 23 -11 38 -26z
m-49 -151 c30 -31 35 -41 25 -49 -30 -25 -65 -18 -112 20 -25 21 -46 42 -46
47 0 8 28 15 75 19 12 0 37 -15 58 -37z m861 -194 c5 -27 13 -48 18 -48 4 0 8
-4 8 -10 0 -10 -168 -5 -240 7 -19 3 -60 5 -92 4 -74 -3 -98 12 -98 62 l0 37
198 -2 197 -3 9 -47z"/>
<path d="M647 652 l-17 -37 59 -60 c76 -76 255 -274 259 -286 2 -5 -145 -10
-345 -11 l-348 -3 0 -40 0 -40 80 -3 c44 -2 89 1 100 7 19 9 147 13 865 27
157 3 291 7 298 9 6 3 12 9 12 15 0 6 -66 10 -188 10 -133 0 -192 4 -200 12
-9 9 -12 9 -12 0 0 -7 -11 -12 -25 -12 -14 0 -25 5 -25 10 0 6 -35 10 -85 10
-72 0 -87 3 -92 18 -4 9 -26 46 -50 80 -25 35 -47 71 -50 80 -4 10 -40 53 -80
97 -40 44 -73 84 -73 88 0 8 -55 67 -62 67 -2 -1 -11 -17 -21 -38z"/>
</g>
</svg>
