<?xml version="1.0" standalone="no"?>
<!DOCTYPE svg PUBLIC "-//W3C//DTD SVG 20010904//EN"
 "http://www.w3.org/TR/2001/REC-SVG-20010904/DTD/svg10.dtd">
<svg version="1.0" xmlns="http://www.w3.org/2000/svg"
 width="144.000000pt" height="82.000000pt" viewBox="0 0 144.000000 82.000000"
 preserveAspectRatio="xMidYMid meet">
<metadata>
Created by potrace 1.16, written by Peter Selinger 2001-2019
</metadata>
<g transform="translate(0.000000,82.000000) scale(0.100000,-0.100000)"
fill="#000000" stroke="none">
<path d="M278 711 c-97 -32 -184 -90 -158 -106 7 -5 5 -11 -7 -20 -17 -13 -15
-15 22 -30 72 -28 70 -25 75 -126 3 -52 2 -104 -1 -115 -4 -12 -27 -32 -51
-46 -46 -25 -60 -54 -33 -65 18 -6 87 15 163 50 41 19 46 19 108 4 125 -31
205 -58 199 -68 -4 -5 -15 -9 -25 -9 -11 0 -45 -7 -77 -15 -75 -20 -147 -19
-263 4 -98 19 -110 19 -110 -3 0 -24 27 -36 116 -52 154 -27 180 -22 664 136
239 78 443 147 454 152 11 6 15 13 9 19 -6 6 -201 76 -434 156 -390 133 -431
145 -509 149 -65 3 -99 0 -142 -15z m231 -36 c46 -8 86 -17 89 -20 11 -11 -21
-33 -85 -55 -57 -21 -86 -25 -183 -25 -136 0 -178 8 -159 31 21 26 70 47 149
65 95 22 89 22 189 4z m236 -98 l110 -33 3 -127 c3 -141 7 -132 -70 -151 l-28
-6 0 140 c0 117 -2 140 -15 140 -23 0 -28 -43 -22 -171 l7 -118 -38 -11 c-58
-16 -90 -12 -143 16 l-48 27 -3 121 c-3 100 -6 121 -18 121 -13 0 -15 -18 -13
-114 l2 -114 -46 7 c-25 3 -54 6 -64 6 -17 0 -19 9 -19 104 l0 104 65 7 c47 5
86 17 138 44 40 21 77 39 82 39 6 1 60 -13 120 -31z m-450 -112 c3 -27 7 -72
8 -100 2 -48 1 -50 -26 -53 l-29 -3 7 103 c4 57 10 107 12 111 10 16 21 -8 28
-58z m825 1 c119 -34 178 -55 165 -59 -115 -35 -354 -97 -373 -97 -18 0 -23 4
-18 16 3 9 6 56 6 105 0 78 2 89 18 89 9 0 100 -25 202 -54z"/>
<path d="M604 473 c6 -159 15 -225 29 -220 8 2 13 56 15 170 l2 167 -25 0 -26
0 5 -117z"/>
</g>
</svg>
