<?xml version="1.0" standalone="no"?>
<!DOCTYPE svg PUBLIC "-//W3C//DTD SVG 20010904//EN"
 "http://www.w3.org/TR/2001/REC-SVG-20010904/DTD/svg10.dtd">
<svg version="1.0" xmlns="http://www.w3.org/2000/svg"
 width="100.000000pt" height="100.000000pt" viewBox="0 0 100.000000 100.000000"
 preserveAspectRatio="xMidYMid meet">
<metadata>
Created by potrace 1.16, written by Peter Selinger 2001-2019
</metadata>
<g transform="translate(0.000000,100.000000) scale(0.100000,-0.100000)"
fill="#000000" stroke="none">
<path d="M96 854 c-11 -29 -7 -33 98 -91 l104 -58 -26 -50 c-22 -42 -26 -64
-27 -136 0 -77 3 -90 28 -127 15 -23 27 -45 27 -49 0 -5 -47 -34 -105 -66 -75
-42 -105 -64 -105 -77 0 -10 5 -22 10 -25 10 -6 170 74 201 101 24 22 34 18
87 -38 l49 -51 49 31 c27 17 74 46 104 63 45 27 315 203 329 215 12 11 -22 48
-79 87 -36 24 -109 74 -163 110 -54 37 -100 67 -103 67 -3 0 -39 23 -79 51
-70 49 -74 51 -96 35 -13 -9 -35 -33 -49 -55 l-27 -39 -102 59 c-57 32 -106
59 -111 59 -4 0 -11 -7 -14 -16z m393 -104 c36 -22 75 -46 85 -53 91 -57 156
-95 256 -150 30 -16 56 -31 58 -32 4 -4 -106 -65 -115 -65 -5 0 -21 30 -37 65
-29 65 -56 85 -56 41 0 -13 11 -40 25 -60 34 -51 32 -73 -9 -90 -18 -8 -37
-19 -40 -25 -4 -6 -16 -11 -27 -11 -24 0 -62 71 -41 77 20 7 14 33 -8 33 -11
0 -23 7 -26 15 -4 8 -13 15 -21 15 -12 0 -14 -7 -10 -30 6 -28 3 -31 -45 -54
-29 -14 -55 -23 -60 -20 -5 3 -17 23 -28 45 -11 21 -27 39 -35 39 -19 0 -19
-18 0 -50 21 -37 19 -70 -4 -70 -19 0 -38 32 -61 103 -14 44 -7 82 26 155 24
52 25 52 52 39 95 -47 179 -90 189 -99 7 -6 20 -7 29 -4 15 6 15 8 2 24 -8 9
-27 43 -42 75 -24 52 -42 67 -59 51 -3 -3 -2 -15 4 -25 5 -10 13 -28 19 -38
10 -21 14 -23 -97 44 -18 11 -33 26 -33 33 0 13 31 61 39 62 3 0 34 -18 70
-40z m80 -368 c22 -43 29 -35 -71 -90 -67 -38 -79 -39 -104 -11 -21 23 -10 54
20 54 9 0 20 5 24 12 9 14 93 73 104 73 4 0 16 -17 27 -38z"/>
<path d="M354 635 c-4 -9 8 -42 26 -78 39 -74 45 -81 59 -73 12 8 -49 158 -67
164 -7 2 -15 -4 -18 -13z"/>
</g>
</svg>
