<?xml version="1.0" standalone="no"?>
<!DOCTYPE svg PUBLIC "-//W3C//DTD SVG 20010904//EN"
 "http://www.w3.org/TR/2001/REC-SVG-20010904/DTD/svg10.dtd">
<svg version="1.0" xmlns="http://www.w3.org/2000/svg"
 width="106.000000pt" height="146.000000pt" viewBox="0 0 106.000000 146.000000"
 preserveAspectRatio="xMidYMid meet">
<metadata>
Created by potrace 1.16, written by Peter Selinger 2001-2019
</metadata>
<g transform="translate(0.000000,146.000000) scale(0.100000,-0.100000)"
fill="#000000" stroke="none">
<path d="M196 1316 c3 -9 1 -23 -5 -30 -8 -9 -9 -16 -2 -20 6 -4 10 -64 10
-154 -1 -81 1 -172 5 -202 3 -30 8 -155 11 -276 8 -342 17 -518 27 -531 11
-14 105 -6 126 10 7 5 37 10 67 11 30 0 55 4 55 8 0 4 9 8 20 8 26 0 26 12 0
28 -20 12 -21 20 -18 215 3 196 4 202 23 199 11 -2 22 -8 25 -12 7 -11 96 -40
124 -40 31 0 96 27 96 40 0 6 6 10 13 10 7 0 28 13 47 30 19 16 41 29 48 30 7
0 15 7 18 15 4 8 11 15 18 15 21 0 86 77 86 102 0 25 -46 78 -68 78 -6 0 -16
9 -22 20 -6 11 -16 20 -23 20 -7 0 -29 12 -48 26 -19 14 -49 32 -67 39 -18 8
-35 21 -38 30 -11 28 -79 15 -171 -33 -23 -12 -47 -22 -53 -22 -14 0 -13 87 1
96 8 4 7 9 -2 15 -12 7 -12 12 -1 30 9 14 13 55 11 135 l-2 114 -91 0 c-50 0
-121 3 -159 7 -60 5 -67 4 -61 -11z m225 -163 c1 -71 1 -143 0 -161 -2 -18 2
-38 7 -45 5 -7 12 -113 16 -237 3 -124 9 -296 13 -383 l6 -157 -51 0 c-28 0
-54 4 -57 10 -3 5 -23 10 -44 10 l-39 0 -6 117 c-4 65 -4 190 0 278 9 186 11
289 13 513 l1 162 30 0 c17 0 30 5 30 10 0 6 18 10 40 10 l40 0 1 -127z m293
-220 c23 -16 43 -31 44 -36 2 -4 8 -5 13 -1 5 3 9 0 9 -5 0 -6 5 -11 10 -11
15 0 109 -66 131 -92 21 -23 11 -54 -19 -65 -9 -3 -28 -17 -42 -30 -14 -14
-54 -47 -90 -74 -36 -26 -73 -56 -84 -65 -10 -9 -21 -12 -25 -7 -3 5 -25 17
-49 26 -24 10 -52 26 -63 36 -21 19 -21 19 25 75 56 69 58 96 14 141 -53 52
-73 77 -63 74 10 -3 86 31 95 42 6 7 31 17 44 18 6 1 28 -11 50 -26z m-169
-123 c37 -38 38 -42 25 -63 -7 -12 -18 -31 -24 -42 -6 -11 -20 -30 -32 -41
l-21 -21 -1 103 c0 57 3 104 7 104 4 0 25 -18 46 -40z"/>
</g>
</svg>
