<?xml version="1.0" standalone="no"?>
<!DOCTYPE svg PUBLIC "-//W3C//DTD SVG 20010904//EN"
 "http://www.w3.org/TR/2001/REC-SVG-20010904/DTD/svg10.dtd">
<svg version="1.0" xmlns="http://www.w3.org/2000/svg"
 width="106.000000pt" height="82.000000pt" viewBox="0 0 106.000000 82.000000"
 preserveAspectRatio="xMidYMid meet">
<metadata>
Created by potrace 1.16, written by Peter Selinger 2001-2019
</metadata>
<g transform="translate(0.000000,82.000000) scale(0.100000,-0.100000)"
fill="#000000" stroke="none">
<path d="M170 701 c-14 -27 -14 -577 1 -586 5 -4 18 0 27 8 15 13 65 16 334
18 221 1 321 -1 331 -9 10 -8 23 -7 50 5 43 20 46 29 12 37 -24 6 -25 10 -25
80 0 69 2 76 28 95 27 21 27 21 5 27 -42 12 -43 103 -2 125 20 10 20 11 -4 33
-22 20 -24 29 -20 77 4 38 11 59 26 72 18 15 19 20 6 28 -8 5 -179 9 -386 9
-358 0 -373 -1 -383 -19z m700 -91 l0 -70 -174 0 c-168 0 -174 1 -188 22 l-15
22 -19 -22 c-17 -20 -27 -22 -141 -22 l-123 0 0 64 0 65 53 4 c28 2 177 4 330
5 l277 2 0 -70z m0 -132 c0 -13 -3 -40 -6 -60 l-7 -38 -153 0 c-84 0 -155 3
-157 8 -3 4 -8 28 -11 54 l-7 47 68 4 c37 2 114 4 171 5 100 2 102 2 102 -20z
m-374 -43 c7 -27 13 -51 14 -52 1 -6 -279 -3 -294 3 -10 4 -16 18 -16 39 0 67
-2 66 148 63 l135 -3 13 -50z m41 -147 c17 -59 36 -63 32 -8 -2 22 1 44 7 50
7 7 63 10 149 8 l138 -3 4 -77 5 -78 -336 0 -336 0 0 80 0 80 161 -2 162 -3
14 -47z"/>
</g>
</svg>
