<?xml version="1.0" standalone="no"?>
<!DOCTYPE svg PUBLIC "-//W3C//DTD SVG 20010904//EN"
 "http://www.w3.org/TR/2001/REC-SVG-20010904/DTD/svg10.dtd">
<svg version="1.0" xmlns="http://www.w3.org/2000/svg"
 width="72.000000pt" height="138.000000pt" viewBox="0 0 72.000000 138.000000"
 preserveAspectRatio="xMidYMid meet">
<metadata>
Created by potrace 1.16, written by Peter Selinger 2001-2019
</metadata>
<g transform="translate(0.000000,138.000000) scale(0.100000,-0.100000)"
fill="#000000" stroke="none">
<path d="M160 1243 c0 -10 -5 -24 -10 -29 -13 -13 -15 -51 -7 -119 4 -27 11
-239 17 -470 7 -238 16 -429 22 -441 7 -15 6 -27 -3 -41 -19 -31 -5 -53 35
-53 19 0 38 5 41 10 3 6 32 10 63 10 59 0 93 12 73 24 -7 5 -11 45 -11 109 l0
102 76 13 c42 6 82 16 88 21 6 5 22 11 35 13 14 1 26 9 29 16 2 8 -10 12 -45
12 -26 0 -78 3 -115 7 l-68 6 0 37 c0 45 13 53 125 75 82 16 121 35 73 35 -15
0 -30 5 -33 10 -3 6 -32 10 -63 10 -107 0 -102 -6 -102 135 0 139 -6 128 85
141 28 3 55 10 60 14 6 5 27 11 48 15 75 14 25 35 -84 35 -82 0 -111 13 -107
48 2 22 9 28 33 30 17 2 35 7 40 11 6 4 43 14 83 21 39 7 72 16 72 20 0 11
-54 20 -119 20 -80 1 -95 15 -93 89 1 33 -2 62 -6 65 -4 2 -58 7 -119 11 -107
7 -113 7 -113 -12z m144 -59 c3 -9 6 -76 6 -150 0 -89 4 -141 13 -155 9 -17 9
-23 0 -26 -8 -3 -9 -10 -3 -21 12 -23 33 -673 22 -684 -5 -5 -36 -8 -68 -6
l-59 3 -2 235 c-2 129 1 363 5 520 l7 284 25 7 c40 11 47 10 54 -7z"/>
</g>
</svg>
