<?xml version="1.0" standalone="no"?>
<!DOCTYPE svg PUBLIC "-//W3C//DTD SVG 20010904//EN"
 "http://www.w3.org/TR/2001/REC-SVG-20010904/DTD/svg10.dtd">
<svg version="1.0" xmlns="http://www.w3.org/2000/svg"
 width="142.000000pt" height="102.000000pt" viewBox="0 0 142.000000 102.000000"
 preserveAspectRatio="xMidYMid meet">
<metadata>
Created by potrace 1.16, written by Peter Selinger 2001-2019
</metadata>
<g transform="translate(0.000000,102.000000) scale(0.100000,-0.100000)"
fill="#000000" stroke="none">
<path d="M82 887 c-19 -20 -22 -35 -22 -105 0 -44 4 -83 8 -86 5 -3 12 -125
15 -272 5 -245 8 -269 25 -287 18 -18 37 -19 398 -17 208 1 413 4 454 8 73 7
75 8 81 37 4 17 7 76 8 131 l1 101 125 5 c75 3 131 10 137 16 7 7 23 12 37 12
19 0 22 3 14 11 -7 7 -72 14 -160 18 l-148 6 -3 29 c-2 16 2 49 8 73 l13 43
91 1 c131 1 223 16 205 33 -2 3 -70 8 -151 12 -168 8 -157 0 -157 109 1 118 3
112 -38 118 -21 4 -118 7 -215 8 -111 1 -178 5 -178 11 0 7 -4 7 -12 0 -13
-10 -126 -11 -143 0 -14 8 -333 4 -341 -5 -4 -4 -12 -2 -19 3 -8 7 -18 3 -33
-13z m914 -129 c-2 -57 2 -109 8 -116 7 -10 5 -16 -5 -23 -8 -5 -9 -9 -3 -9 8
0 9 -13 4 -39 -4 -22 -4 -44 0 -48 4 -4 10 -86 13 -181 l6 -172 -74 0 c-53 0
-75 4 -75 13 -4 120 3 383 10 385 15 5 12 42 -2 43 -10 0 -10 2 0 6 14 6 17
178 3 187 -5 4 -4 17 2 31 11 22 18 25 63 25 l52 0 -2 -102z m-174 -63 c4 -82
4 -158 2 -168 -7 -22 -42 -14 -63 14 -7 10 -18 19 -23 19 -5 0 -24 11 -42 25
-18 14 -38 25 -44 25 -6 0 -16 9 -22 20 -6 11 -15 20 -21 20 -5 0 -37 20 -71
45 -39 28 -76 46 -103 51 -42 6 -48 4 -126 -42 -34 -20 -79 -100 -86 -151 -6
-51 12 -163 27 -163 4 0 11 -11 14 -25 8 -30 55 -61 106 -70 20 -3 43 -15 50
-26 20 -27 48 -23 94 11 22 17 45 30 52 30 6 0 14 7 18 15 3 8 11 15 19 15 7
0 29 12 48 26 19 14 48 32 64 40 17 8 46 24 65 34 19 11 37 16 41 12 4 -4 9
-69 13 -145 l6 -138 -258 6 c-141 3 -304 8 -361 11 l-104 6 6 187 c4 102 7
243 7 313 l0 127 107 5 c60 3 170 7 245 9 76 2 141 6 145 10 4 4 48 6 98 5
l90 -3 7 -150z m-402 -40 c0 -30 -3 -55 -7 -55 -5 0 -21 16 -37 36 l-29 37 24
18 c40 31 49 24 49 -36z m101 5 c24 -16 48 -30 53 -30 5 0 33 -18 62 -40 29
-22 57 -40 62 -40 5 0 30 -15 56 -34 l47 -33 -25 -17 c-14 -9 -30 -16 -36 -16
-5 0 -10 -4 -10 -8 0 -5 -18 -15 -40 -22 -22 -7 -40 -17 -40 -22 0 -4 -3 -7
-7 -6 -11 2 -87 -35 -91 -45 -5 -9 -70 -37 -88 -37 -11 0 -14 35 -14 190 0
214 -2 210 71 160z m-103 -141 l-3 -33 -35 48 c-19 26 -43 55 -52 64 -10 9
-18 27 -18 39 0 20 7 16 56 -31 48 -47 55 -59 52 -87z m-106 54 c10 -9 18 -21
18 -26 0 -15 76 -87 84 -80 3 4 6 -20 6 -53 0 -32 3 -69 6 -81 5 -17 2 -23
-10 -23 -9 0 -16 6 -16 13 0 8 -9 22 -20 32 -11 10 -20 22 -20 27 0 22 -66 98
-82 94 -26 -6 -32 38 -12 102 5 17 24 15 46 -5z m13 -190 c26 -29 42 -53 35
-53 -18 0 -90 77 -90 97 0 9 1 14 3 12 2 -2 25 -28 52 -56z"/>
<path d="M270 542 c0 -10 23 -40 50 -67 28 -27 50 -55 50 -62 0 -7 7 -13 15
-13 22 0 19 14 -10 48 -14 17 -25 33 -25 37 0 5 -11 23 -26 42 -27 36 -54 44
-54 15z"/>
</g>
</svg>
