<?xml version="1.0" standalone="no"?>
<!DOCTYPE svg PUBLIC "-//W3C//DTD SVG 20010904//EN"
 "http://www.w3.org/TR/2001/REC-SVG-20010904/DTD/svg10.dtd">
<svg version="1.0" xmlns="http://www.w3.org/2000/svg"
 width="166.000000pt" height="130.000000pt" viewBox="0 0 166.000000 130.000000"
 preserveAspectRatio="xMidYMid meet">
<metadata>
Created by potrace 1.16, written by Peter Selinger 2001-2019
</metadata>
<g transform="translate(0.000000,130.000000) scale(0.100000,-0.100000)"
fill="#000000" stroke="none">
<path d="M1030 1141 c-8 -5 -66 -11 -128 -15 -116 -7 -175 -24 -186 -51 -5
-15 -36 -16 -315 -9 -304 7 -309 7 -320 -13 -19 -36 5 -42 189 -47 96 -2 200
-7 230 -11 31 -4 71 -3 90 2 22 6 45 6 61 -1 26 -9 26 -11 13 -40 -7 -17 -25
-66 -40 -108 -18 -53 -32 -79 -46 -84 -10 -3 -67 0 -126 6 -59 6 -159 10 -222
8 l-115 -3 2 -35 c1 -19 7 -78 12 -130 6 -52 10 -134 10 -182 0 -88 16 -158
36 -158 5 0 66 8 135 16 69 9 145 18 170 19 25 2 61 7 81 10 l36 7 16 -53 c9
-30 19 -70 22 -89 6 -30 45 -79 64 -80 3 -1 60 -7 126 -14 66 -8 123 -12 126
-11 3 2 48 11 100 19 52 9 132 30 179 46 47 17 114 40 149 51 35 12 81 30 102
40 l37 20 6 97 c4 53 11 111 16 128 13 39 13 255 1 303 -5 20 -14 77 -20 127
-12 103 -30 147 -61 149 -31 2 -44 -20 -36 -63 4 -20 9 -50 11 -67 2 -16 10
-91 19 -165 9 -74 19 -220 22 -325 l7 -190 -54 -2 c-29 -1 -72 -9 -96 -18 -48
-19 -213 -52 -318 -65 -73 -9 -222 -3 -240 10 -26 19 -68 21 -86 4 -11 -9 -19
-13 -20 -8 -1 16 -7 57 -14 112 l-8 52 65 0 c60 0 88 11 88 33 0 5 -30 8 -67
7 -38 -1 -73 -2 -79 -1 -28 3 -21 313 8 348 6 8 33 13 64 13 30 0 54 4 54 9 0
11 -35 21 -72 21 -33 0 -35 13 -14 92 35 132 70 171 132 148 21 -8 40 -8 72 1
30 8 83 10 171 6 124 -7 151 -2 151 25 0 4 -51 8 -112 8 -73 0 -127 5 -153 15
-22 8 -33 14 -25 15 8 0 60 3 115 6 88 6 253 -5 338 -22 39 -8 36 22 -3 31
-17 4 -43 13 -58 21 -16 7 -80 20 -143 29 -132 17 -129 17 -149 6z m-250 -72
c0 -5 -4 -9 -10 -9 -5 0 -10 7 -10 16 0 8 5 12 10 9 6 -3 10 -10 10 -16z
m-205 -426 c-4 -38 -8 -81 -10 -97 -2 -16 3 -59 11 -95 7 -36 14 -71 14 -78 0
-8 -43 -13 -142 -17 -79 -2 -165 -8 -191 -11 -32 -5 -53 -3 -60 4 -9 9 -11 62
-8 179 1 92 5 170 8 175 2 4 90 7 195 7 l191 0 -8 -67z"/>
</g>
</svg>
