<?xml version="1.0" standalone="no"?>
<!DOCTYPE svg PUBLIC "-//W3C//DTD SVG 20010904//EN"
 "http://www.w3.org/TR/2001/REC-SVG-20010904/DTD/svg10.dtd">
<svg version="1.0" xmlns="http://www.w3.org/2000/svg"
 width="142.000000pt" height="102.000000pt" viewBox="0 0 142.000000 102.000000"
 preserveAspectRatio="xMidYMid meet">
<metadata>
Created by potrace 1.16, written by Peter Selinger 2001-2019
</metadata>
<g transform="translate(0.000000,102.000000) scale(0.100000,-0.100000)"
fill="#000000" stroke="none">
<path d="M77 917 c-16 -13 -18 -31 -16 -153 1 -81 6 -145 12 -152 8 -10 7 -16
-1 -21 -7 -4 -9 -17 -6 -31 4 -14 8 -63 10 -110 5 -149 15 -254 25 -279 l10
-24 450 5 c393 5 452 7 466 21 12 12 17 45 21 139 l5 123 119 1 c76 0 123 5
130 12 7 7 23 12 38 12 24 1 24 1 -7 15 -19 8 -79 15 -155 17 l-123 3 -3 68
-3 67 96 0 c52 0 103 4 113 9 9 6 38 13 65 16 56 7 63 24 10 26 -21 1 -92 4
-158 8 l-120 6 -3 106 -3 107 -29 6 c-17 3 -231 8 -477 11 -383 5 -451 4 -466
-8z m915 -254 c1 -236 1 -238 11 -263 3 -8 8 -59 11 -112 l6 -98 -77 0 -78 0
3 337 c1 186 5 344 7 351 3 7 24 12 60 12 l55 0 2 -227z m-182 8 c0 -115 4
-211 9 -213 7 -2 17 -209 12 -255 -1 -15 -72 -18 -86 -4 -6 5 -147 11 -315 15
-168 3 -307 6 -309 6 -5 0 6 620 11 626 3 2 57 7 121 10 l117 5 0 -118 c0
-125 18 -464 24 -471 3 -2 26 6 53 19 26 12 51 21 56 21 4 -1 7 2 7 8 0 5 7
10 15 10 21 0 113 86 121 114 4 11 11 24 16 27 5 3 11 28 14 55 5 45 2 53 -31
99 -39 54 -156 177 -201 212 l-29 22 67 0 c37 1 70 6 73 11 4 6 58 10 131 10
l124 0 0 -209z m-368 112 c12 -14 18 -67 26 -232 10 -198 10 -215 -6 -227 -9
-7 -25 -15 -34 -17 -17 -5 -18 12 -18 244 0 137 4 249 8 249 5 0 16 -8 24 -17z
m189 -199 c30 -48 17 -86 -57 -163 -34 -36 -65 -64 -68 -61 -4 4 -9 292 -6
355 0 13 107 -94 131 -131z"/>
</g>
</svg>
