<?xml version="1.0" standalone="no"?>
<!DOCTYPE svg PUBLIC "-//W3C//DTD SVG 20010904//EN"
 "http://www.w3.org/TR/2001/REC-SVG-20010904/DTD/svg10.dtd">
<svg version="1.0" xmlns="http://www.w3.org/2000/svg"
 width="126.000000pt" height="100.000000pt" viewBox="0 0 126.000000 100.000000"
 preserveAspectRatio="xMidYMid meet">
<metadata>
Created by potrace 1.16, written by Peter Selinger 2001-2019
</metadata>
<g transform="translate(0.000000,100.000000) scale(0.100000,-0.100000)"
fill="#000000" stroke="none">
<path d="M750 873 c-8 -3 -34 -14 -57 -24 -23 -11 -46 -19 -50 -19 -5 0 -60
-21 -123 -46 -107 -43 -197 -101 -199 -129 -1 -6 -19 -29 -42 -50 -63 -62 -99
-123 -99 -167 0 -39 25 -156 40 -193 5 -11 15 -39 21 -63 7 -23 17 -41 23 -39
14 5 12 25 -9 102 -24 90 -25 95 -31 157 -7 55 -6 57 38 115 122 157 155 182
383 276 33 14 73 32 90 41 36 19 42 14 23 -16 -21 -32 -98 -208 -98 -223 0 -7
24 -34 53 -61 52 -48 71 -64 154 -127 23 -18 43 -39 43 -48 0 -18 -60 -79 -79
-79 -7 0 -55 39 -107 87 -52 48 -102 92 -112 98 -9 5 -60 10 -112 10 l-95 0 1
83 c1 73 -1 82 -17 82 -26 0 -39 -30 -39 -87 0 -30 -9 -67 -21 -94 -25 -50
-46 -216 -30 -232 5 -5 18 -6 28 -3 23 7 100 121 115 170 10 30 16 36 40 36
15 0 37 5 47 12 27 16 32 13 218 -139 48 -40 93 -73 98 -73 16 0 108 110 131
158 10 19 -3 27 -21 12 -19 -15 -41 1 -173 128 -70 69 -89 92 -79 100 7 6 24
33 37 60 22 45 29 51 62 54 21 2 39 -1 41 -7 2 -6 9 -5 19 2 9 8 59 14 134 17
176 5 201 22 77 50 -43 10 -86 22 -95 27 -10 5 -26 9 -35 9 -10 1 -36 7 -58
15 -48 17 -115 26 -135 18z m65 -72 c-3 -12 -10 -21 -15 -21 -5 0 -4 11 2 25
13 29 23 26 13 -4z m174 -7 c2 -2 -19 -4 -48 -4 -32 0 -50 4 -46 10 5 9 83 4
94 -6z m-596 -358 c9 -7 17 -19 17 -26 0 -24 -72 -142 -81 -133 -16 16 19 173
38 173 5 0 16 -7 26 -14z"/>
</g>
</svg>
