<?xml version="1.0" standalone="no"?>
<!DOCTYPE svg PUBLIC "-//W3C//DTD SVG 20010904//EN"
 "http://www.w3.org/TR/2001/REC-SVG-20010904/DTD/svg10.dtd">
<svg version="1.0" xmlns="http://www.w3.org/2000/svg"
 width="86.000000pt" height="86.000000pt" viewBox="0 0 86.000000 86.000000"
 preserveAspectRatio="xMidYMid meet">
<metadata>
Created by potrace 1.16, written by Peter Selinger 2001-2019
</metadata>
<g transform="translate(0.000000,86.000000) scale(0.100000,-0.100000)"
fill="#000000" stroke="none">
<path d="M172 708 c-13 -13 -15 -260 -3 -463 6 -105 7 -110 27 -108 12 1 37
12 55 24 93 58 299 169 314 169 9 0 42 -23 73 -50 31 -28 61 -49 67 -47 8 3
37 395 29 405 -5 7 -81 -38 -103 -62 -14 -14 -29 -26 -34 -26 -6 0 -18 -7 -28
-16 -17 -15 -22 -14 -71 14 -29 17 -73 41 -98 55 -94 51 -146 81 -169 99 -28
21 -42 23 -59 6z m75 -63 c2 -1 4 -100 5 -220 l3 -218 -27 -8 -28 -7 0 235 0
234 23 -7 c12 -3 23 -7 24 -9z m100 -56 c21 -12 66 -38 101 -58 l63 -36 -97
-3 c-54 -1 -104 0 -111 2 -20 8 -17 116 3 116 2 0 20 -10 41 -21z m343 -155
l0 -156 -56 47 -56 48 -144 5 -145 5 3 36 3 36 138 3 c93 2 137 6 137 14 0 8
107 116 118 118 1 0 2 -70 2 -156z m-200 -88 c0 -6 -194 -116 -203 -116 -11 0
-8 79 3 101 9 17 22 19 105 19 52 0 95 -2 95 -4z"/>
</g>
</svg>
