<?xml version="1.0" standalone="no"?>
<!DOCTYPE svg PUBLIC "-//W3C//DTD SVG 20010904//EN"
 "http://www.w3.org/TR/2001/REC-SVG-20010904/DTD/svg10.dtd">
<svg version="1.0" xmlns="http://www.w3.org/2000/svg"
 width="80.000000pt" height="126.000000pt" viewBox="0 0 80.000000 126.000000"
 preserveAspectRatio="xMidYMid meet">
<metadata>
Created by potrace 1.16, written by Peter Selinger 2001-2019
</metadata>
<g transform="translate(0.000000,126.000000) scale(0.100000,-0.100000)"
fill="#000000" stroke="none">
<path d="M72 1248 c7 -19 50 -21 73 -4 19 14 17 15 -28 16 -35 0 -47 -4 -45
-12z"/>
<path d="M228 1248 c16 -8 28 -8 45 0 19 9 17 11 -23 11 -40 0 -42 -2 -22 -11z"/>
<path d="M420 1071 c0 -11 17 -46 39 -78 50 -76 71 -118 71 -142 0 -22 -73
-168 -94 -189 -11 -11 -20 -7 -52 25 -21 22 -58 61 -81 88 -33 39 -45 47 -54
38 -16 -16 27 -79 99 -143 l54 -48 -43 -39 c-72 -64 -119 -117 -119 -135 0
-31 17 -20 98 64 l79 81 38 -58 c72 -113 72 -114 38 -187 -16 -34 -49 -90 -71
-122 -40 -57 -52 -86 -33 -86 15 0 93 107 134 184 l40 77 -27 62 c-14 34 -40
82 -56 107 -16 25 -30 48 -30 52 0 3 11 19 24 35 29 35 96 165 96 187 0 9 -17
53 -38 98 -53 114 -112 182 -112 129z"/>
</g>
</svg>
