<?xml version="1.0" standalone="no"?>
<!DOCTYPE svg PUBLIC "-//W3C//DTD SVG 20010904//EN"
 "http://www.w3.org/TR/2001/REC-SVG-20010904/DTD/svg10.dtd">
<svg version="1.0" xmlns="http://www.w3.org/2000/svg"
 width="124.000000pt" height="90.000000pt" viewBox="0 0 124.000000 90.000000"
 preserveAspectRatio="xMidYMid meet">
<metadata>
Created by potrace 1.16, written by Peter Selinger 2001-2019
</metadata>
<g transform="translate(0.000000,90.000000) scale(0.100000,-0.100000)"
fill="#000000" stroke="none">
<path d="M955 729 c-4 -6 -8 -47 -9 -92 l-1 -81 -35 -8 c-56 -12 -428 -19
-435 -8 -3 6 -19 10 -35 10 -39 0 -138 44 -172 77 -14 14 -32 38 -38 54 -12
29 -33 38 -45 19 -8 -13 18 -60 52 -91 35 -32 113 -75 173 -93 l45 -14 -50 -1
c-53 -1 -133 22 -204 58 -23 12 -46 19 -51 16 -18 -11 3 -36 44 -54 127 -57
117 -56 361 -57 244 -2 325 2 325 17 0 5 -16 9 -37 9 -20 0 -33 3 -30 6 4 4
75 8 158 9 l151 3 -6 -30 c-3 -17 -6 -68 -6 -114 l0 -84 -120 0 c-94 0 -120 3
-120 13 0 11 -28 16 -112 20 -175 10 -601 8 -618 -3 -37 -24 19 -30 267 -28
139 1 255 -1 259 -5 4 -4 -8 -7 -27 -8 -19 0 -45 -3 -59 -5 -14 -3 -77 -6
-140 -8 -130 -4 -203 -22 -274 -66 -50 -32 -65 -55 -48 -72 7 -7 21 -2 44 16
35 26 121 68 148 73 8 1 105 7 215 13 110 6 210 15 223 20 13 6 96 10 185 10
89 0 172 3 183 6 18 5 23 16 28 62 12 114 17 308 9 362 l-8 55 -92 3 c-60 2
-94 -1 -98 -9z m125 -21 l40 -13 0 -87 c0 -87 0 -87 -22 -78 -13 5 -44 12 -69
15 l-46 6 1 77 c1 95 14 105 96 80z m-292 -425 c-21 -2 -55 -2 -75 0 -21 2 -4
4 37 4 41 0 58 -2 38 -4z"/>
<path d="M152 453 c5 -27 58 -33 308 -39 124 -2 267 -6 318 -7 66 -2 92 0 92
9 0 9 -58 14 -207 18 -262 8 -374 15 -437 27 -68 13 -78 12 -74 -8z"/>
<path d="M157 376 c-66 -29 -9 -34 345 -29 306 5 385 11 368 26 -3 2 -158 7
-345 10 -262 4 -346 3 -368 -7z"/>
</g>
</svg>
