<?xml version="1.0" standalone="no"?>
<!DOCTYPE svg PUBLIC "-//W3C//DTD SVG 20010904//EN"
 "http://www.w3.org/TR/2001/REC-SVG-20010904/DTD/svg10.dtd">
<svg version="1.0" xmlns="http://www.w3.org/2000/svg"
 width="170.000000pt" height="74.000000pt" viewBox="0 0 170.000000 74.000000"
 preserveAspectRatio="xMidYMid meet">
<metadata>
Created by potrace 1.16, written by Peter Selinger 2001-2019
</metadata>
<g transform="translate(0.000000,74.000000) scale(0.100000,-0.100000)"
fill="#000000" stroke="none">
<path d="M835 583 c-87 -69 -165 -139 -165 -147 0 -20 45 1 91 42 96 85 114
100 139 120 17 14 22 24 15 31 -7 7 -32 -8 -80 -46z"/>
<path d="M873 544 c-104 -87 -133 -124 -100 -124 7 0 33 20 57 45 24 25 49 45
55 45 15 0 115 103 115 118 0 7 -3 12 -7 11 -5 0 -59 -43 -120 -95z"/>
<path d="M1064 581 c-38 -31 -88 -73 -110 -93 -21 -21 -42 -38 -46 -38 -5 0
-8 -6 -8 -14 0 -20 -32 -26 -137 -26 l-93 0 0 -43 c0 -42 1 -43 117 -139 65
-53 122 -94 127 -91 5 3 -38 50 -95 104 -57 54 -98 98 -90 99 8 0 35 -18 60
-40 144 -128 184 -160 197 -160 23 0 16 16 -23 51 -95 82 -165 149 -157 149 5
0 20 -10 34 -23 14 -12 68 -57 121 -100 90 -72 119 -89 119 -69 0 11 -54 62
-66 62 -5 0 -38 29 -73 65 -64 64 -81 90 -26 39 57 -53 213 -174 224 -174 19
0 12 10 -41 59 -29 27 -75 70 -103 95 l-50 47 40 -5 c22 -3 139 -8 260 -12
172 -5 224 -9 237 -21 14 -13 20 -13 45 1 35 19 83 62 83 74 0 5 -26 25 -59
45 -47 28 -62 32 -77 24 -21 -12 -512 -32 -522 -22 -7 7 36 49 143 142 40 34
57 54 50 61 -7 6 -34 -10 -81 -47z m466 -186 c17 -9 30 -19 30 -24 0 -4 -18
-16 -40 -26 -29 -13 -44 -15 -52 -7 -6 6 -16 8 -23 6 -7 -3 -99 2 -205 10
-106 9 -220 17 -254 18 l-61 1 75 7 c41 4 125 8 187 9 62 0 115 5 118 11 10
17 191 12 225 -5z"/>
<path d="M993 581 c-118 -98 -161 -137 -162 -148 -2 -29 35 -9 112 61 45 41
96 86 112 100 28 24 29 25 8 26 -12 0 -43 -18 -70 -39z"/>
<path d="M188 532 c-6 -23 -15 -21 182 -47 148 -20 272 -24 277 -9 2 7 -30 15
-89 23 -51 7 -104 14 -118 17 -14 3 -56 9 -95 14 -38 4 -88 11 -111 15 -36 6
-42 5 -46 -13z"/>
<path d="M190 462 c0 -25 18 -29 170 -36 260 -13 295 -12 295 4 0 10 -12 16
-40 17 -22 2 -94 7 -160 13 -276 24 -265 24 -265 2z"/>
<path d="M194 385 c-4 -9 -4 -18 -1 -21 7 -7 459 -5 466 1 2 3 -1 11 -8 18 -8
8 -74 13 -232 15 -194 3 -220 2 -225 -13z"/>
<path d="M390 344 c-14 -2 -64 -6 -112 -9 -80 -6 -88 -9 -88 -27 0 -20 4 -20
168 -15 l167 5 -165 -13 c-91 -7 -166 -13 -167 -14 -2 0 -3 -11 -3 -22 0 -20
4 -21 68 -16 37 3 87 10 112 15 25 5 95 12 155 15 105 6 101 5 -75 -18 -247
-33 -254 -35 -258 -64 -4 -22 -1 -23 30 -17 18 4 65 11 103 17 82 12 323 64
330 71 3 3 1 17 -4 32 -7 17 -7 26 -1 26 6 0 10 6 10 14 0 19 -173 32 -270 20z
m223 -41 c-13 -2 -35 -2 -50 0 -16 2 -5 4 22 4 28 0 40 -2 28 -4z"/>
</g>
</svg>
