<?xml version="1.0" standalone="no"?>
<!DOCTYPE svg PUBLIC "-//W3C//DTD SVG 20010904//EN"
 "http://www.w3.org/TR/2001/REC-SVG-20010904/DTD/svg10.dtd">
<svg version="1.0" xmlns="http://www.w3.org/2000/svg"
 width="138.000000pt" height="68.000000pt" viewBox="0 0 138.000000 68.000000"
 preserveAspectRatio="xMidYMid meet">
<metadata>
Created by potrace 1.16, written by Peter Selinger 2001-2019
</metadata>
<g transform="translate(0.000000,68.000000) scale(0.100000,-0.100000)"
fill="#000000" stroke="none">
<path d="M870 592 c0 -7 -17 -12 -130 -42 -19 -5 -82 -17 -140 -25 -115 -18
-171 -15 -314 16 -93 20 -106 19 -106 -9 0 -10 -6 -27 -14 -38 -8 -11 -24 -49
-36 -84 l-21 -63 22 -66 c13 -36 30 -74 38 -84 17 -20 14 -20 151 9 121 25
257 22 408 -9 68 -14 129 -31 137 -37 15 -13 28 -9 160 50 22 10 65 28 95 41
30 13 79 38 109 56 30 18 58 33 63 33 4 0 8 5 8 10 0 16 -26 12 -65 -10 -20
-11 -40 -20 -45 -20 -5 0 -41 -15 -82 -34 -40 -18 -109 -47 -153 -64 -80 -30
-81 -30 -140 -15 -33 8 -73 17 -90 20 -16 3 -36 10 -43 16 -8 7 -76 11 -172
11 -134 1 -157 3 -155 16 2 8 4 59 4 113 l1 97 118 0 c93 0 137 5 217 26 198
51 181 49 238 29 29 -10 57 -21 62 -25 6 -4 23 -10 40 -14 16 -4 77 -27 135
-52 57 -24 114 -44 125 -44 20 1 20 1 0 16 -33 26 -123 69 -267 128 -139 57
-158 62 -158 48z m-582 -98 l37 -6 0 -116 c0 -67 -4 -120 -10 -124 -5 -4 -21
-8 -34 -8 l-23 0 3 123 c4 117 3 122 -16 122 -19 0 -20 -7 -20 -132 0 -123 -1
-132 -20 -137 -24 -6 -22 -9 -29 39 -21 133 -20 138 14 199 22 39 37 55 47 52
8 -4 31 -9 51 -12z"/>
</g>
</svg>
