<?xml version="1.0" standalone="no"?>
<!DOCTYPE svg PUBLIC "-//W3C//DTD SVG 20010904//EN"
 "http://www.w3.org/TR/2001/REC-SVG-20010904/DTD/svg10.dtd">
<svg version="1.0" xmlns="http://www.w3.org/2000/svg"
 width="132.000000pt" height="100.000000pt" viewBox="0 0 132.000000 100.000000"
 preserveAspectRatio="xMidYMid meet">
<metadata>
Created by potrace 1.16, written by Peter Selinger 2001-2019
</metadata>
<g transform="translate(0.000000,100.000000) scale(0.100000,-0.100000)"
fill="#000000" stroke="none">
<path d="M313 783 c-11 -26 -16 -70 -17 -138 -1 -83 5 -124 34 -239 27 -111
39 -141 57 -153 45 -30 253 -75 346 -76 80 -1 87 -3 87 -22 0 -11 3 -31 7 -43
4 -18 8 -20 14 -10 5 7 9 23 9 34 0 26 36 74 56 74 11 0 14 -15 14 -65 0 -36
4 -65 9 -65 12 0 21 26 21 59 0 62 41 124 70 106 6 -3 10 -35 10 -70 0 -81 17
-93 25 -18 9 80 22 109 56 123 37 16 38 38 2 42 -27 3 -28 6 -31 66 -3 59 -5
63 -25 60 -20 -3 -23 -10 -27 -73 -5 -75 -13 -95 -35 -95 -24 0 -33 30 -22 72
7 28 6 46 -2 64 -23 51 -47 10 -50 -84 -1 -46 -15 -82 -31 -82 -6 0 -10 37
-10 84 0 83 -10 110 -32 88 -6 -6 -14 -42 -18 -82 -11 -103 -24 -114 -125
-107 -94 7 -285 60 -302 83 -24 33 -38 131 -38 279 0 83 2 166 5 185 4 31 2
35 -18 38 -18 3 -26 -4 -39 -35z"/>
</g>
</svg>
