<?xml version="1.0" standalone="no"?>
<!DOCTYPE svg PUBLIC "-//W3C//DTD SVG 20010904//EN"
 "http://www.w3.org/TR/2001/REC-SVG-20010904/DTD/svg10.dtd">
<svg version="1.0" xmlns="http://www.w3.org/2000/svg"
 width="82.000000pt" height="90.000000pt" viewBox="0 0 82.000000 90.000000"
 preserveAspectRatio="xMidYMid meet">
<metadata>
Created by potrace 1.16, written by Peter Selinger 2001-2019
</metadata>
<g transform="translate(0.000000,90.000000) scale(0.100000,-0.100000)"
fill="#000000" stroke="none">
<path d="M250 487 c0 -246 3 -327 13 -341 31 -42 437 265 437 331 0 16 -19 41
-60 79 -72 68 -344 254 -371 254 -18 0 -19 -10 -19 -323z m64 227 c8 -20 8
-468 0 -488 -3 -9 -13 -16 -22 -16 -13 0 -14 20 -9 167 4 91 7 208 7 260 0 86
9 116 24 77z m104 -44 c28 -17 52 -33 52 -35 0 -3 -27 -5 -60 -5 l-60 0 0 35
c0 19 3 35 8 35 4 0 31 -14 60 -30z m102 -111 l0 -32 -61 7 c-34 3 -73 6 -85
6 -19 0 -24 5 -24 25 0 25 1 25 85 25 l85 0 0 -31z m141 -72 c10 -4 1 -18 -33
-51 -26 -25 -52 -46 -57 -46 -7 0 -11 34 -11 91 l0 92 43 -40 c24 -22 50 -43
58 -46z m-141 -28 l0 -32 -52 7 c-29 3 -68 6 -85 6 -28 0 -33 3 -33 25 0 25 1
25 85 25 l85 0 0 -31z m-2 -91 c-3 -21 -9 -23 -85 -26 -83 -3 -83 -3 -83 23 0
25 1 25 86 25 83 0 85 -1 82 -22z m-89 -87 c-61 -47 -89 -49 -89 -5 0 23 3 24
56 24 l57 0 -24 -19z"/>
</g>
</svg>
