<?xml version="1.0" standalone="no"?>
<!DOCTYPE svg PUBLIC "-//W3C//DTD SVG 20010904//EN"
 "http://www.w3.org/TR/2001/REC-SVG-20010904/DTD/svg10.dtd">
<svg version="1.0" xmlns="http://www.w3.org/2000/svg"
 width="84.000000pt" height="142.000000pt" viewBox="0 0 84.000000 142.000000"
 preserveAspectRatio="xMidYMid meet">
<metadata>
Created by potrace 1.16, written by Peter Selinger 2001-2019
</metadata>
<g transform="translate(0.000000,142.000000) scale(0.100000,-0.100000)"
fill="#000000" stroke="none">
<path d="M450 1243 c0 -6 -11 -8 -25 -6 -21 5 -27 -2 -56 -63 -17 -38 -49
-106 -70 -152 -22 -46 -39 -87 -39 -93 0 -5 -5 -19 -12 -32 -21 -41 -25 -53
-33 -85 -3 -17 -13 -36 -21 -40 -13 -7 -13 -16 1 -68 8 -32 23 -82 34 -111 10
-28 16 -54 13 -57 -3 -3 -1 -6 4 -6 5 0 10 -9 11 -19 2 -26 36 -98 69 -146 15
-22 40 -64 56 -93 16 -30 42 -68 58 -85 17 -18 30 -35 30 -39 0 -5 7 -8 15 -8
8 0 15 5 15 11 0 7 15 35 34 63 31 47 125 235 141 281 7 19 29 159 41 258 4
29 2 47 -4 47 -6 0 -14 14 -17 32 -7 31 -120 258 -134 268 -12 9 -81 110 -81
119 0 5 -7 14 -15 21 -8 7 -15 8 -15 3z m20 -85 c0 -6 13 -27 29 -47 15 -20
56 -88 91 -151 34 -63 67 -121 72 -128 7 -8 8 -37 4 -80 -10 -89 -14 -116 -16
-119 -1 -2 -3 -11 -4 -20 -1 -10 -6 -34 -11 -53 -5 -19 -9 -37 -10 -40 -10
-53 -93 -258 -112 -278 -7 -7 -13 -19 -13 -26 0 -8 -7 -19 -15 -26 -13 -11
-15 6 -16 141 0 85 -2 192 -4 239 -2 47 -7 184 -10 305 -4 121 -8 239 -9 262
-2 31 0 40 11 36 7 -3 13 -10 13 -15z m-63 -83 c2 -14 -1 -25 -7 -25 -6 0 -28
-27 -49 -61 -23 -36 -41 -55 -43 -48 -7 21 2 40 16 32 6 -4 4 2 -4 12 -8 10
-10 16 -4 12 7 -4 24 17 44 54 33 62 42 66 47 24z m3 -99 c0 -24 -5 -36 -17
-41 -20 -6 -123 -166 -123 -189 0 -8 -5 -18 -10 -21 -6 -4 -10 -3 -9 2 1 4 -1
16 -6 26 -4 11 -2 24 7 35 8 9 23 34 33 55 21 41 112 167 120 167 3 0 5 -15 5
-34z m6 -119 c-4 -41 -38 -101 -106 -184 -6 -7 -10 -19 -10 -27 0 -8 -8 -13
-17 -12 -34 5 -26 56 17 116 21 30 53 76 70 103 35 52 50 54 46 4z m-41 -232
c-26 -44 -50 -86 -54 -94 -10 -20 -26 -14 -25 9 1 11 -2 20 -7 20 -9 0 40 83
91 154 l35 49 3 -30 c2 -20 -11 -53 -43 -108z m55 -38 c0 -35 -6 -49 -29 -71
-16 -16 -32 -38 -35 -50 -8 -31 -31 -28 -44 6 -5 15 -7 26 -3 24 3 -2 27 27
51 65 25 38 48 69 53 69 4 0 7 -19 7 -43z m6 -139 c0 -24 3 -73 6 -110 3 -37
3 -69 0 -73 -3 -3 -23 25 -44 61 -38 65 -38 67 -22 93 14 22 55 71 59 71 1 0
1 -19 1 -42z"/>
</g>
</svg>
