<?xml version="1.0" standalone="no"?>
<!DOCTYPE svg PUBLIC "-//W3C//DTD SVG 20010904//EN"
 "http://www.w3.org/TR/2001/REC-SVG-20010904/DTD/svg10.dtd">
<svg version="1.0" xmlns="http://www.w3.org/2000/svg"
 width="126.000000pt" height="78.000000pt" viewBox="0 0 126.000000 78.000000"
 preserveAspectRatio="xMidYMid meet">
<metadata>
Created by potrace 1.16, written by Peter Selinger 2001-2019
</metadata>
<g transform="translate(0.000000,78.000000) scale(0.100000,-0.100000)"
fill="#000000" stroke="none">
<path d="M132 658 c-16 -16 -17 -574 -2 -583 15 -9 81 32 217 138 34 26 70 47
82 47 11 0 57 -23 103 -51 46 -28 122 -71 170 -95 l87 -43 78 43 c43 24 104
60 135 80 31 20 60 36 63 36 3 0 18 8 33 19 15 10 40 26 56 35 19 12 25 21 18
28 -11 11 -328 -142 -379 -184 -21 -17 -42 -6 -197 98 -134 89 -149 97 -161
81 -7 -9 -17 -17 -23 -17 -6 0 -65 -37 -132 -81 -67 -45 -123 -80 -124 -78 -8
9 8 459 16 459 9 0 110 -61 188 -115 84 -57 96 -59 143 -26 23 16 90 61 149
100 l108 70 196 -100 c133 -69 199 -98 206 -91 7 7 1 16 -18 28 -59 36 -110
68 -134 84 -14 9 -60 36 -102 59 -43 24 -80 47 -84 52 -3 5 -14 9 -25 9 -25 0
-161 -68 -274 -138 l-89 -55 -32 19 c-18 10 -66 45 -107 77 -42 31 -80 57 -85
57 -5 0 -15 7 -22 16 -22 25 -46 34 -58 22z"/>
<path d="M769 555 c-8 -8 -57 -43 -109 -77 -52 -35 -96 -71 -98 -80 -5 -29 28
-21 78 17 25 19 56 42 70 52 14 9 37 28 52 42 l28 25 105 -54 c77 -40 108 -51
116 -43 8 8 -2 18 -38 38 -26 16 -59 35 -73 44 -85 54 -107 60 -131 36z"/>
<path d="M573 353 c-27 -10 -11 -32 55 -75 37 -25 78 -51 92 -58 14 -7 37 -24
52 -38 l28 -25 50 31 c28 18 53 32 56 32 15 0 104 64 104 76 0 20 -4 19 -106
-36 -51 -27 -98 -50 -104 -50 -7 0 -53 30 -104 67 -50 36 -95 69 -101 73 -5 4
-16 5 -22 3z"/>
</g>
</svg>
