<?xml version="1.0" standalone="no"?>
<!DOCTYPE svg PUBLIC "-//W3C//DTD SVG 20010904//EN"
 "http://www.w3.org/TR/2001/REC-SVG-20010904/DTD/svg10.dtd">
<svg version="1.0" xmlns="http://www.w3.org/2000/svg"
 width="84.000000pt" height="80.000000pt" viewBox="0 0 84.000000 80.000000"
 preserveAspectRatio="xMidYMid meet">
<metadata>
Created by potrace 1.16, written by Peter Selinger 2001-2019
</metadata>
<g transform="translate(0.000000,80.000000) scale(0.100000,-0.100000)"
fill="#000000" stroke="none">
<path d="M158 689 c-16 -9 -18 -26 -18 -123 0 -239 12 -446 27 -446 7 0 13 5
13 10 0 6 7 10 15 10 9 0 64 23 122 50 l106 50 138 0 c75 0 144 3 153 6 26 10
18 24 -14 24 -30 0 -30 0 -30 58 0 31 3 94 7 140 6 80 7 82 31 82 17 0 22 4
16 9 -5 6 -74 13 -154 17 l-145 7 -120 59 c-66 32 -122 58 -125 58 -3 0 -13
-5 -22 -11z m139 -85 c49 -20 89 -38 91 -39 2 -2 -11 -10 -30 -18 -113 -50
-160 -68 -161 -65 -4 6 5 158 9 158 2 0 43 -16 91 -36z m163 -199 c0 -93 -3
-125 -12 -125 -7 0 -66 25 -130 57 -154 75 -155 81 -15 145 56 25 114 47 130
47 l27 1 0 -125z m59 0 c1 -100 -2 -125 -13 -125 -11 0 -13 22 -9 113 4 108 8
137 16 137 3 0 5 -56 6 -125z m61 0 c0 -106 -2 -125 -16 -125 -13 0 -14 15 -9
113 4 61 8 118 10 125 11 33 15 1 15 -113z m50 0 c0 -77 -4 -125 -10 -125 -6
0 -10 43 -10 109 0 99 5 141 16 141 2 0 4 -56 4 -125z m-330 -100 c58 -24 99
-45 92 -45 -7 0 -31 -8 -55 -19 -79 -35 -149 -62 -151 -59 -3 3 5 168 8 168 1
0 48 -20 106 -45z"/>
</g>
</svg>
