<?xml version="1.0" standalone="no"?>
<!DOCTYPE svg PUBLIC "-//W3C//DTD SVG 20010904//EN"
 "http://www.w3.org/TR/2001/REC-SVG-20010904/DTD/svg10.dtd">
<svg version="1.0" xmlns="http://www.w3.org/2000/svg"
 width="90.000000pt" height="152.000000pt" viewBox="0 0 90.000000 152.000000"
 preserveAspectRatio="xMidYMid meet">
<metadata>
Created by potrace 1.16, written by Peter Selinger 2001-2019
</metadata>
<g transform="translate(0.000000,152.000000) scale(0.100000,-0.100000)"
fill="#000000" stroke="none">
<path d="M523 1363 c-112 -125 -160 -182 -201 -243 -46 -66 -88 -184 -98 -270
-9 -90 -7 -233 5 -263 6 -16 11 -37 11 -47 0 -25 95 -177 150 -241 25 -29 74
-81 110 -116 l64 -63 42 67 c24 37 50 87 60 112 9 26 21 50 25 56 16 17 9 46
-32 132 -40 81 -41 87 -29 126 7 23 25 58 41 78 39 49 47 74 54 170 15 186 -5
331 -63 458 -26 57 -61 111 -72 111 -3 0 -33 -30 -67 -67z m106 -70 c17 -39
34 -81 36 -92 2 -12 7 -26 10 -31 3 -6 0 -11 -7 -11 -35 -3 -262 2 -266 6 -3
3 15 26 39 52 24 27 66 74 93 106 27 32 52 54 56 50 3 -4 21 -40 39 -80z m63
-208 c1 -25 2 -57 2 -72 l1 -27 -202 -2 c-112 -1 -203 0 -203 1 0 10 43 94 57
112 19 24 32 25 241 30 l102 3 2 -45z m5 -216 c-5 -94 -7 -103 -34 -133 -16
-17 -37 -43 -46 -58 -15 -24 -21 -26 -64 -23 -88 7 -272 7 -282 1 -6 -4 -8
-13 -5 -20 4 -11 35 -13 157 -10 84 3 158 7 166 9 11 4 12 -3 7 -32 -3 -21 -6
-45 -6 -55 0 -14 -15 -16 -134 -13 -125 3 -134 2 -139 -16 -5 -18 1 -19 144
-16 144 4 149 3 155 -17 4 -12 15 -32 25 -45 37 -47 29 -50 -105 -46 -100 3
-127 1 -137 -11 -10 -12 -16 -8 -40 24 -15 21 -44 67 -64 103 -34 58 -37 72
-41 154 -2 50 -1 97 1 105 4 13 25 17 103 19 53 1 134 4 180 5 78 3 125 18 91
31 -8 3 -93 6 -189 7 l-175 3 -3 40 c-5 71 -1 72 218 80 107 4 197 9 199 11
19 18 23 -7 18 -97z m-57 -526 c0 -6 -4 -14 -9 -17 -4 -3 -16 -30 -25 -61 -10
-30 -26 -65 -35 -76 -17 -21 -17 -21 -56 23 -59 64 -115 132 -115 139 0 3 54
5 120 5 88 0 120 -4 120 -13z"/>
</g>
</svg>
