<?xml version="1.0" standalone="no"?>
<!DOCTYPE svg PUBLIC "-//W3C//DTD SVG 20010904//EN"
 "http://www.w3.org/TR/2001/REC-SVG-20010904/DTD/svg10.dtd">
<svg version="1.0" xmlns="http://www.w3.org/2000/svg"
 width="148.000000pt" height="92.000000pt" viewBox="0 0 148.000000 92.000000"
 preserveAspectRatio="xMidYMid meet">
<metadata>
Created by potrace 1.16, written by Peter Selinger 2001-2019
</metadata>
<g transform="translate(0.000000,92.000000) scale(0.100000,-0.100000)"
fill="#000000" stroke="none">
<path d="M80 817 c-13 -10 -15 -38 -14 -162 1 -145 13 -464 19 -515 2 -14 4
-29 4 -34 1 -8 648 -1 916 9 39 1 127 4 197 6 105 3 129 6 133 19 11 37 23
666 12 677 -4 3 -287 7 -629 9 -474 2 -627 0 -638 -9z m1006 -280 l6 -238 -24
5 c-12 3 -49 10 -81 16 -32 7 -57 15 -55 18 2 4 14 24 28 44 22 33 30 38 63
38 63 0 40 25 -24 26 -109 2 -109 2 -109 29 0 23 3 25 55 26 87 2 93 3 107 17
9 9 -5 12 -75 12 -71 0 -87 3 -87 15 0 20 12 24 90 28 51 2 66 6 68 20 3 14
-5 16 -66 11 -53 -3 -72 -1 -81 10 -15 18 4 24 88 28 87 5 74 25 -16 25 -63 1
-79 4 -81 17 -4 20 8 24 87 28 37 2 66 8 68 14 3 8 -21 11 -77 10 -75 -1 -81
0 -78 19 3 18 13 21 88 25 47 3 88 3 92 0 4 -3 10 -112 14 -243z m215 110 c0
-192 8 -437 14 -463 3 -12 -1 -24 -8 -26 -6 -3 -75 -3 -152 -2 -77 2 -290 5
-472 6 l-333 3 0 29 c0 30 20 61 87 136 35 38 42 42 66 34 l27 -9 -40 -44
c-22 -24 -37 -47 -34 -52 12 -19 34 -7 69 40 23 30 44 48 54 46 9 -2 25 -4 35
-4 18 -1 17 -4 -7 -29 -27 -29 -35 -52 -17 -52 13 0 45 32 53 53 4 12 18 17
46 17 49 0 58 -13 30 -41 -21 -21 -21 -22 -4 -32 15 -8 24 -3 48 27 36 45 73
49 88 10 l10 -27 22 20 c21 20 27 20 102 9 44 -6 91 -11 105 -11 l25 0 -1 252
0 253 93 -1 93 0 1 -142z m-444 120 c7 -8 10 -47 13 -204 1 -55 0 -105 -3
-110 -6 -10 -494 -10 -503 0 -7 7 -5 282 2 301 4 10 57 13 226 14 122 1 223 4
225 6 6 6 31 1 40 -7z m-540 -89 c1 -46 4 -181 8 -301 l6 -218 -112 2 -111 1
6 147 c3 80 5 215 6 299 l0 152 98 0 99 0 0 -82z m364 -287 c-8 -14 -19 -19
-34 -17 -12 3 -30 5 -39 5 -33 2 -7 27 29 29 21 2 39 5 42 7 11 11 12 -5 2
-24z m144 18 c-1 -2 -11 -16 -24 -31 -22 -26 -44 -29 -90 -13 -23 9 16 43 53
47 36 4 61 3 61 -3z m125 1 c0 -5 -3 -10 -7 -10 -5 0 -18 -15 -31 -33 -19 -28
-27 -33 -52 -29 -41 6 -43 14 -13 50 21 26 33 32 64 32 22 0 39 -4 39 -10z
m-380 -9 c0 -11 -48 -12 -55 -2 -3 6 8 9 25 9 16 -1 30 -4 30 -7z m-141 -27
c11 -4 10 -9 -7 -24 -11 -11 -27 -29 -36 -42 -21 -30 -34 -13 -29 38 4 38 7
41 31 37 15 -3 33 -7 41 -9z"/>
</g>
</svg>
