<?xml version="1.0" standalone="no"?>
<!DOCTYPE svg PUBLIC "-//W3C//DTD SVG 20010904//EN"
 "http://www.w3.org/TR/2001/REC-SVG-20010904/DTD/svg10.dtd">
<svg version="1.0" xmlns="http://www.w3.org/2000/svg"
 width="168.000000pt" height="96.000000pt" viewBox="0 0 168.000000 96.000000"
 preserveAspectRatio="xMidYMid meet">
<metadata>
Created by potrace 1.16, written by Peter Selinger 2001-2019
</metadata>
<g transform="translate(0.000000,96.000000) scale(0.100000,-0.100000)"
fill="#000000" stroke="none">
<path d="M1125 950 c8 -13 55 -13 75 0 11 7 2 10 -33 10 -30 0 -46 -4 -42 -10z"/>
<path d="M210 759 c0 -6 40 -70 90 -142 50 -73 90 -142 90 -153 0 -12 -8 -32
-19 -45 -55 -71 -151 -222 -151 -239 0 -46 35 -13 109 103 119 184 101 167
184 167 l72 0 160 -105 c88 -58 168 -105 178 -105 20 0 120 69 200 139 28 24
64 49 81 56 17 7 94 16 171 20 171 7 208 12 202 28 -2 9 -60 13 -198 17 l-195
5 -116 93 c-79 62 -124 92 -142 92 -26 0 -208 -107 -279 -164 -33 -26 -48 -31
-108 -34 -108 -6 -108 -6 -189 125 -40 65 -80 126 -88 136 -17 19 -52 23 -52
6z m803 -183 c82 -56 102 -76 75 -76 -15 0 -198 120 -198 130 0 13 13 19 25
12 6 -4 50 -34 98 -66z m-94 -19 c36 -24 81 -52 99 -62 37 -22 41 -35 11 -35
-18 0 -209 124 -209 135 0 16 42 -1 99 -38z m-98 -13 c7 -8 50 -39 97 -67 l84
-51 -22 -18 c-12 -10 -26 -18 -30 -18 -6 0 -167 110 -199 136 -2 2 2 10 9 19
16 19 44 19 61 -1z m-2 -106 c55 -35 101 -66 101 -71 0 -4 -11 -12 -24 -17
-13 -5 -27 -14 -31 -19 -10 -18 -20 -13 -89 44 -37 30 -80 62 -97 72 l-29 18
22 17 c13 10 28 18 35 18 6 0 57 -28 112 -62z m342 41 c19 -10 18 -12 -18 -38
-130 -93 -236 -160 -246 -154 -7 4 -5 10 8 17 10 6 63 50 119 98 56 48 105 88
109 88 5 0 17 -5 28 -11z"/>
</g>
</svg>
