<?xml version="1.0" standalone="no"?>
<!DOCTYPE svg PUBLIC "-//W3C//DTD SVG 20010904//EN"
 "http://www.w3.org/TR/2001/REC-SVG-20010904/DTD/svg10.dtd">
<svg version="1.0" xmlns="http://www.w3.org/2000/svg"
 width="140.000000pt" height="138.000000pt" viewBox="0 0 140.000000 138.000000"
 preserveAspectRatio="xMidYMid meet">
<metadata>
Created by potrace 1.16, written by Peter Selinger 2001-2019
</metadata>
<g transform="translate(0.000000,138.000000) scale(0.100000,-0.100000)"
fill="#000000" stroke="none">
<path d="M818 1252 c-11 -13 -15 -38 -13 -100 2 -58 -1 -81 -9 -77 -6 3 -19 8
-28 11 -10 4 -18 10 -18 15 0 5 -6 9 -12 9 -7 0 -26 12 -43 26 -16 14 -42 33
-57 42 -16 9 -28 21 -28 26 0 5 -8 2 -17 -6 -10 -8 -25 -17 -33 -20 -9 -3 -25
-24 -35 -47 -11 -22 -24 -41 -28 -41 -4 0 -13 -13 -18 -29 -11 -31 -20 -33
-59 -11 -14 7 -54 29 -90 48 -36 19 -72 40 -80 47 -8 6 -37 24 -63 38 l-48 26
-9 -22 c-10 -26 9 -44 85 -79 28 -12 52 -25 55 -29 3 -3 41 -24 86 -45 l81
-40 -33 -66 c-61 -122 -78 -236 -49 -332 15 -50 58 -130 82 -155 8 -7 13 -15
11 -16 -2 -1 -57 -31 -123 -65 -171 -90 -197 -106 -196 -113 1 -4 1 -14 1 -22
0 -22 19 -17 70 15 100 64 262 150 271 144 9 -5 41 -38 123 -127 30 -32 45
-34 74 -7 23 22 117 79 136 83 13 2 13 1 15 -130 1 -84 4 -103 16 -103 16 0
15 -2 19 194 0 44 6 81 11 83 6 2 68 41 139 88 71 47 130 85 131 85 2 0 46 30
99 66 61 41 96 72 96 83 0 11 -36 42 -102 86 -57 38 -104 73 -106 77 -2 4 -8
8 -13 8 -6 0 -55 30 -110 68 -55 37 -111 73 -123 79 -21 12 -23 18 -22 123 2
117 -8 145 -36 112z m-113 -192 c39 -23 73 -47 76 -52 3 -5 10 -8 15 -6 5 1
10 -67 11 -152 1 -85 4 -218 7 -296 4 -135 3 -141 -18 -154 -11 -8 -23 -15
-26 -15 -3 0 -23 -12 -45 -26 -22 -15 -60 -36 -84 -49 -43 -22 -45 -22 -58 -4
-7 11 -19 26 -26 35 -6 8 -22 29 -34 47 l-23 31 50 28 c28 15 50 34 50 41 0
14 -12 16 -25 3 -6 -5 -26 -18 -47 -29 -34 -20 -37 -20 -52 -3 -9 10 -16 22
-16 27 0 6 -13 36 -29 67 -16 31 -27 57 -24 57 3 0 0 7 -7 15 -7 8 -9 15 -5
15 4 0 3 6 -3 13 -11 14 -7 87 7 135 1 1 1 4 1 7 0 3 16 35 35 72 19 37 35 75
35 84 0 23 33 14 112 -30 55 -31 88 -39 88 -23 0 5 -12 15 -27 23 -28 14 -124
69 -132 76 -5 4 27 63 38 73 4 3 15 18 24 33 17 26 20 27 40 14 12 -8 54 -33
92 -57z m177 -107 c2 -5 23 -19 48 -32 25 -14 86 -50 135 -81 50 -31 123 -74
162 -96 40 -21 73 -44 73 -50 0 -6 -26 -23 -57 -38 -76 -34 -157 -79 -161 -88
-2 -5 -12 -8 -22 -8 -10 0 -21 -7 -24 -16 -3 -8 -10 -12 -16 -9 -5 3 -10 2
-10 -3 0 -5 -21 -21 -47 -35 -27 -15 -61 -35 -78 -46 l-30 -20 1 257 c2 289 1
272 13 272 5 0 11 -3 13 -7z"/>
</g>
</svg>
