<?xml version="1.0" standalone="no"?>
<!DOCTYPE svg PUBLIC "-//W3C//DTD SVG 20010904//EN"
 "http://www.w3.org/TR/2001/REC-SVG-20010904/DTD/svg10.dtd">
<svg version="1.0" xmlns="http://www.w3.org/2000/svg"
 width="70.000000pt" height="100.000000pt" viewBox="0 0 70.000000 100.000000"
 preserveAspectRatio="xMidYMid meet">
<metadata>
Created by potrace 1.16, written by Peter Selinger 2001-2019
</metadata>
<g transform="translate(0.000000,100.000000) scale(0.100000,-0.100000)"
fill="#000000" stroke="none">
<path d="M138 877 c-13 -14 -14 -61 -11 -384 3 -202 6 -374 9 -381 3 -9 24
-12 76 -10 l73 3 5 80 5 80 137 7 c75 4 146 12 158 18 44 24 7 31 -143 29
l-152 -2 -3 53 -3 52 58 -6 c147 -14 251 -17 257 -8 10 16 -1 19 -129 36 -205
27 -185 19 -185 79 0 29 4 57 8 64 4 7 62 15 148 21 78 5 147 13 154 17 28 17
-21 25 -163 25 l-148 0 3 48 c3 40 6 47 23 45 98 -11 283 -14 289 -5 12 20
-30 31 -150 42 -148 14 -154 15 -161 51 -8 39 -23 49 -85 56 -41 4 -58 2 -70
-10z m107 -244 c3 -115 6 -269 8 -343 l2 -135 -39 -3 c-24 -2 -42 2 -47 10
-10 16 -11 268 -2 506 l6 172 33 0 33 0 6 -207z"/>
</g>
</svg>
