<?xml version="1.0" standalone="no"?>
<!DOCTYPE svg PUBLIC "-//W3C//DTD SVG 20010904//EN"
 "http://www.w3.org/TR/2001/REC-SVG-20010904/DTD/svg10.dtd">
<svg version="1.0" xmlns="http://www.w3.org/2000/svg"
 width="182.000000pt" height="138.000000pt" viewBox="0 0 182.000000 138.000000"
 preserveAspectRatio="xMidYMid meet">
<metadata>
Created by potrace 1.16, written by Peter Selinger 2001-2019
</metadata>
<g transform="translate(0.000000,138.000000) scale(0.100000,-0.100000)"
fill="#000000" stroke="none">
<path d="M263 1195 c-3 -10 -6 -40 -5 -69 0 -28 1 -93 1 -144 1 -70 4 -93 13
-90 17 6 27 72 30 202 3 99 1 111 -15 114 -9 2 -20 -4 -24 -13z"/>
<path d="M587 1089 c-10 -12 -14 -49 -15 -138 0 -67 -2 -123 -3 -125 -2 -1
-49 0 -104 3 -55 3 -125 5 -155 3 -78 -4 -82 -16 -79 -227 2 -151 4 -169 21
-185 15 -14 31 -17 66 -14 26 2 97 6 157 8 l110 4 4 -77 c3 -42 4 -111 4 -153
-1 -43 3 -78 8 -78 5 0 9 11 9 24 0 14 5 28 12 32 7 4 109 9 228 10 118 2 323
6 455 9 132 4 259 6 283 6 32 -2 42 2 42 14 0 9 -6 15 -12 14 -34 -4 -35 2
-37 159 0 86 -2 278 -4 425 -2 226 -4 270 -17 277 -18 10 -380 22 -712 24
-217 1 -249 -1 -261 -15z m943 -73 c1 -196 20 -746 26 -773 7 -25 4 -25 -66
-25 -211 0 -538 6 -547 9 -8 3 -12 48 -12 151 -1 81 -2 261 -4 400 -1 140 0
257 3 260 3 4 23 8 45 9 22 0 130 4 240 8 110 4 201 8 202 9 1 0 27 2 57 2
l56 1 0 -51z m-645 -256 c6 -303 12 -471 19 -508 6 -26 18 -23 -156 -26 l-128
-2 0 31 c-1 16 -2 60 -2 97 -1 37 1 70 5 74 3 4 3 14 -1 23 -6 12 -8 564 -3
591 1 3 59 5 131 5 l130 0 5 -285z m-305 -98 c1 -65 3 -139 4 -167 l1 -49 -50
3 c-27 3 -84 5 -125 6 -163 5 -149 2 -145 33 2 15 7 70 10 122 6 90 12 159 14
170 1 3 45 5 99 5 53 0 115 2 137 5 22 3 43 2 46 -3 4 -5 7 -61 9 -125z"/>
</g>
</svg>
