<?xml version="1.0" standalone="no"?>
<!DOCTYPE svg PUBLIC "-//W3C//DTD SVG 20010904//EN"
 "http://www.w3.org/TR/2001/REC-SVG-20010904/DTD/svg10.dtd">
<svg version="1.0" xmlns="http://www.w3.org/2000/svg"
 width="84.000000pt" height="86.000000pt" viewBox="0 0 84.000000 86.000000"
 preserveAspectRatio="xMidYMid meet">
<metadata>
Created by potrace 1.16, written by Peter Selinger 2001-2019
</metadata>
<g transform="translate(0.000000,86.000000) scale(0.100000,-0.100000)"
fill="#000000" stroke="none">
<path d="M490 760 c-58 -4 -118 -12 -133 -18 -16 -7 -52 -36 -81 -65 -65 -65
-141 -212 -133 -255 21 -103 34 -133 77 -178 81 -84 162 -98 246 -41 38 25 50
40 57 70 8 32 6 44 -10 65 -11 14 -25 28 -31 30 -15 5 -15 -23 0 -47 6 -10 8
-26 4 -36 -5 -15 -15 -17 -62 -12 -86 9 -122 42 -138 128 -6 35 -4 39 46 84
29 26 64 52 78 58 14 7 83 14 155 17 l130 5 8 59 c5 33 6 70 2 83 -10 43 -30
19 -33 -39 l-3 -56 -107 -7 c-59 -3 -123 -11 -143 -16 -43 -11 -121 -77 -155
-131 -23 -36 -24 -43 -13 -76 31 -95 91 -151 163 -152 l31 -1 -40 -14 c-49
-18 -91 -7 -141 38 -57 49 -77 99 -72 177 3 57 10 77 42 131 82 136 113 152
291 159 125 5 130 6 133 28 4 25 19 24 -168 12z"/>
</g>
</svg>
