<?xml version="1.0" standalone="no"?>
<!DOCTYPE svg PUBLIC "-//W3C//DTD SVG 20010904//EN"
 "http://www.w3.org/TR/2001/REC-SVG-20010904/DTD/svg10.dtd">
<svg version="1.0" xmlns="http://www.w3.org/2000/svg"
 width="130.000000pt" height="54.000000pt" viewBox="0 0 130.000000 54.000000"
 preserveAspectRatio="xMidYMid meet">
<metadata>
Created by potrace 1.16, written by Peter Selinger 2001-2019
</metadata>
<g transform="translate(0.000000,54.000000) scale(0.100000,-0.100000)"
fill="#000000" stroke="none">
<path d="M264 455 c-3 -6 -18 -10 -34 -7 -29 4 -30 2 -32 -34 -2 -50 -2 -70 7
-176 l8 -87 -74 -3 c-71 -3 -74 -4 -73 -28 l0 -25 369 1 c285 0 744 8 785 13
3 1 6 54 8 119 1 64 4 141 7 170 5 47 3 52 -15 52 -11 0 -20 4 -20 10 0 15
-931 10 -936 -5z m922 -125 c5 -125 6 -169 5 -187 -1 -10 -198 -12 -428 -4
-16 1 -23 7 -23 20 0 11 -25 69 -55 129 -30 61 -55 116 -55 124 0 10 27 14
118 16 64 2 137 4 162 5 33 2 44 -2 42 -11 -1 -7 6 -25 16 -40 11 -15 21 -32
23 -37 12 -32 113 -195 120 -195 17 0 8 24 -56 152 -45 88 -61 130 -53 133 19
6 66 10 126 10 l54 0 4 -115z m-910 90 c5 -5 24 -6 47 -1 34 8 37 7 37 -14 0
-12 8 -33 18 -46 19 -27 27 -40 77 -134 19 -35 35 -68 35 -73 0 -5 -57 -8
-127 -6 -103 1 -127 4 -124 15 2 8 5 59 6 114 4 148 4 155 13 155 4 0 12 -4
18 -10z m304 -11 c0 -9 11 -33 25 -53 13 -20 21 -36 17 -36 -4 0 -2 -4 4 -8
10 -6 94 -155 94 -166 0 -3 -45 -5 -100 -5 -69 0 -100 4 -100 12 0 6 -24 61
-54 122 -30 60 -56 117 -58 125 -2 12 12 16 67 20 103 7 105 7 105 -11z"/>
</g>
</svg>
