<?xml version="1.0" standalone="no"?>
<!DOCTYPE svg PUBLIC "-//W3C//DTD SVG 20010904//EN"
 "http://www.w3.org/TR/2001/REC-SVG-20010904/DTD/svg10.dtd">
<svg version="1.0" xmlns="http://www.w3.org/2000/svg"
 width="182.000000pt" height="182.000000pt" viewBox="0 0 182.000000 182.000000"
 preserveAspectRatio="xMidYMid meet">
<metadata>
Created by potrace 1.16, written by Peter Selinger 2001-2019
</metadata>
<g transform="translate(0.000000,182.000000) scale(0.100000,-0.100000)"
fill="#000000" stroke="none">
<path d="M185 1740 c-3 -5 0 -12 6 -15 6 -4 -5 -18 -28 -33 -21 -14 -45 -33
-54 -42 -28 -27 -63 -113 -67 -166 -7 -86 -7 -87 101 -188 95 -90 189 -163
234 -180 82 -33 150 -82 177 -128 45 -77 40 -108 -27 -189 -40 -49 -124 -166
-137 -190 -7 -11 -8 -28 -4 -37 4 -9 9 -26 11 -37 15 -81 38 -125 111 -203 17
-19 32 -39 32 -44 0 -4 4 -8 10 -8 9 0 35 -19 65 -48 8 -6 16 -12 19 -12 8 0
110 -64 117 -74 12 -16 26 3 49 61 12 32 33 85 46 118 13 33 23 69 22 80 0 11
2 38 7 60 19 103 9 160 -45 248 -46 77 -99 131 -170 177 -33 21 -51 40 -55 59
-9 40 -58 103 -102 133 -60 39 -92 58 -100 59 -5 0 -15 6 -23 12 -8 7 -31 21
-50 31 -19 11 -44 29 -55 40 -11 12 -38 37 -60 56 -22 20 -41 39 -42 44 -2 5
24 8 58 8 33 0 73 5 88 11 41 15 136 163 128 200 -1 6 9 13 23 15 25 3 147 28
185 38 11 3 31 7 45 10 74 14 75 14 75 39 0 30 5 30 -75 4 -36 -11 -76 -22
-90 -25 -14 -3 -56 -13 -95 -24 -38 -10 -96 -24 -128 -30 -63 -13 -69 -35 -7
-26 21 3 40 3 43 0 10 -11 -94 -144 -125 -160 -35 -18 -56 -23 -116 -29 -38
-4 -47 -1 -84 35 l-42 39 19 60 c10 34 24 66 32 72 7 6 13 17 13 23 1 20 44
64 89 88 l44 25 65 -44 c71 -47 70 -47 92 -33 12 8 12 10 1 10 -8 0 -37 17
-65 39 -76 57 -149 90 -161 71z m520 -945 c58 -58 133 -155 119 -155 -3 0 -1
-6 5 -14 15 -18 20 -96 9 -154 -5 -26 -10 -63 -12 -82 -2 -19 -18 -75 -35
-124 -17 -49 -31 -91 -31 -93 0 -14 -124 89 -207 173 -86 87 -104 110 -117
155 -17 56 -21 125 -8 131 4 2 25 26 47 53 22 28 52 61 66 75 25 25 52 69 63
104 7 22 13 18 101 -69z"/>
<path d="M956 861 c-4 -5 2 -27 13 -48 20 -40 54 -116 64 -145 4 -10 13 -19
22 -19 8 -1 20 -3 25 -4 6 -1 15 -3 20 -4 6 0 10 -6 10 -11 0 -6 -33 -9 -85
-8 -86 2 -110 -6 -100 -33 4 -11 32 -14 128 -16 67 -1 143 -2 170 -2 35 -1 47
-5 47 -16 0 -8 -4 -14 -8 -13 -18 6 -112 -64 -112 -82 0 -33 28 -29 72 11 102
94 95 92 316 93 179 1 197 3 200 19 3 15 -7 17 -90 18 -151 1 -222 8 -231 25
-5 8 -13 12 -18 8 -10 -6 -35 16 -171 149 -69 66 -90 78 -104 56 -7 -11 4 -22
97 -99 23 -19 59 -50 78 -67 20 -18 39 -33 44 -33 4 0 7 -6 7 -13 0 -24 -133
-10 -183 19 -23 13 -49 24 -58 24 -28 0 -66 38 -73 72 -8 42 -47 120 -63 125
-6 2 -14 0 -17 -6z"/>
</g>
</svg>
