<?xml version="1.0" standalone="no"?>
<!DOCTYPE svg PUBLIC "-//W3C//DTD SVG 20010904//EN"
 "http://www.w3.org/TR/2001/REC-SVG-20010904/DTD/svg10.dtd">
<svg version="1.0" xmlns="http://www.w3.org/2000/svg"
 width="132.000000pt" height="76.000000pt" viewBox="0 0 132.000000 76.000000"
 preserveAspectRatio="xMidYMid meet">
<metadata>
Created by potrace 1.16, written by Peter Selinger 2001-2019
</metadata>
<g transform="translate(0.000000,76.000000) scale(0.100000,-0.100000)"
fill="#000000" stroke="none">
<path d="M72 698 c-18 -18 -17 -562 1 -576 7 -6 30 -7 62 -2 59 9 215 28 300
35 33 3 67 8 75 10 8 2 38 7 65 11 28 3 59 8 70 10 10 2 37 6 60 10 60 9 77
12 105 18 32 6 95 16 140 21 30 4 83 13 115 20 6 2 28 6 50 9 80 12 95 18 96
34 1 19 5 85 9 180 2 34 1 65 -2 68 -5 4 -30 9 -163 30 -16 2 -43 7 -58 10
-16 3 -38 7 -50 9 -69 8 -133 17 -151 21 -19 4 -37 7 -116 19 -14 2 -47 7 -75
10 -58 7 -148 18 -155 20 -3 1 -45 5 -95 9 -108 9 -188 19 -251 31 -11 3 -26
-1 -32 -7z m188 -74 c30 -3 56 -7 57 -8 5 -4 7 -166 2 -169 -2 -2 -54 -2 -114
1 l-111 4 2 47 c1 25 3 68 3 94 l1 48 53 -6 c28 -3 77 -8 107 -11z m255 -28
c28 -3 100 -9 160 -15 61 -5 146 -13 190 -16 44 -3 94 -7 110 -10 17 -2 63 -7
103 -10 40 -3 79 -8 86 -11 9 -3 13 -37 15 -118 2 -129 10 -120 -100 -131 -30
-3 -71 -8 -92 -11 -22 -2 -64 -7 -95 -10 -32 -2 -93 -9 -137 -14 -44 -5 -120
-12 -170 -15 -108 -7 -184 -15 -205 -21 -13 -3 -16 11 -17 96 -1 57 2 100 8
100 5 0 9 7 9 15 0 8 -4 15 -8 15 -4 0 -8 38 -7 85 l0 85 50 -6 c28 -2 73 -6
100 -8z m-187 -290 l3 -103 -38 0 c-21 0 -60 -3 -88 -7 -27 -4 -64 -9 -82 -11
l-32 -5 2 113 2 112 115 2 115 3 3 -104z"/>
</g>
</svg>
