<?xml version="1.0" standalone="no"?>
<!DOCTYPE svg PUBLIC "-//W3C//DTD SVG 20010904//EN"
 "http://www.w3.org/TR/2001/REC-SVG-20010904/DTD/svg10.dtd">
<svg version="1.0" xmlns="http://www.w3.org/2000/svg"
 width="70.000000pt" height="118.000000pt" viewBox="0 0 70.000000 118.000000"
 preserveAspectRatio="xMidYMid meet">
<metadata>
Created by potrace 1.16, written by Peter Selinger 2001-2019
</metadata>
<g transform="translate(0.000000,118.000000) scale(0.100000,-0.100000)"
fill="#000000" stroke="none">
<path d="M76 1077 c-14 -5 -24 -12 -21 -17 3 -5 6 -151 7 -325 1 -174 6 -319
10 -321 5 -3 6 -9 3 -14 -8 -12 18 -41 174 -199 118 -120 133 -131 127 -103
-3 18 -9 47 -12 65 -3 17 -14 59 -25 93 -31 97 -28 104 82 141 143 49 136 44
142 105 20 195 29 395 23 479 l-8 97 -166 2 c-92 0 -199 2 -238 4 -39 1 -83
-2 -98 -7z m455 -49 c1 -13 2 -34 4 -48 9 -90 8 -113 -4 -106 -4 3 -37 8 -72
11 -35 3 -75 7 -89 10 -43 7 -173 18 -220 19 l-46 0 3 41 c1 22 2 50 2 62 1
25 7 26 279 31 141 2 142 2 143 -20z m-170 -163 c52 -4 110 -8 129 -10 19 -2
40 -4 45 -4 6 -1 9 -24 8 -53 -1 -29 -2 -70 -2 -91 -1 -34 -3 -37 -23 -32 -13
3 -50 7 -83 9 -33 2 -76 7 -95 10 -33 6 -119 14 -200 20 l-35 2 0 79 c-1 44 0
83 1 86 2 3 38 2 82 -3 43 -4 121 -10 173 -13z m-16 -200 c61 -3 129 -8 153
-11 l42 -5 -4 -57 c-2 -31 -5 -74 -5 -94 -1 -32 -5 -38 -35 -48 -114 -37 -273
-48 -372 -25 l-31 7 1 125 1 125 70 -6 c39 -3 120 -8 180 -11z m-71 -308 c2
-7 9 -41 16 -77 6 -36 17 -71 23 -79 10 -12 9 -12 -9 -3 -11 6 -34 28 -49 49
-16 21 -32 40 -35 43 -14 13 -60 72 -60 78 0 12 111 1 114 -11z"/>
</g>
</svg>
