<?xml version="1.0" standalone="no"?>
<!DOCTYPE svg PUBLIC "-//W3C//DTD SVG 20010904//EN"
 "http://www.w3.org/TR/2001/REC-SVG-20010904/DTD/svg10.dtd">
<svg version="1.0" xmlns="http://www.w3.org/2000/svg"
 width="152.000000pt" height="80.000000pt" viewBox="0 0 152.000000 80.000000"
 preserveAspectRatio="xMidYMid meet">
<metadata>
Created by potrace 1.16, written by Peter Selinger 2001-2019
</metadata>
<g transform="translate(0.000000,80.000000) scale(0.100000,-0.100000)"
fill="#000000" stroke="none">
<path d="M1255 700 c-3 -5 -2 -10 4 -10 15 0 32 -36 25 -55 -11 -27 -191 -18
-251 12 -24 13 -46 23 -49 23 -2 0 -4 -27 -4 -60 0 -33 3 -60 6 -60 3 0 15 5
27 12 33 17 135 37 195 38 l53 0 -33 -41 -33 -41 -67 5 c-37 3 -77 11 -88 17
-40 21 -50 7 -50 -70 0 -79 -2 -77 80 -55 30 8 55 13 57 11 2 -1 -10 -15 -26
-30 -24 -23 -32 -26 -49 -17 -31 17 -42 13 -42 -13 0 -24 1 -24 79 -19 72 5
82 4 108 -17 l28 -22 -102 4 c-62 2 -107 8 -115 16 -18 18 -40 15 -37 -5 1
-10 1 -26 0 -36 -1 -17 -3 -17 -23 -3 -12 9 -25 16 -29 16 -3 0 -7 -27 -8 -61
-1 -55 1 -60 16 -54 80 30 167 45 265 45 103 0 107 -1 111 -23 3 -21 4 -21 15
7 12 27 13 28 37 12 13 -9 26 -12 30 -7 3 5 -11 19 -30 31 -27 17 -33 25 -25
35 8 9 8 15 0 20 -5 3 -10 33 -10 66 0 52 2 59 20 59 11 0 20 4 20 9 0 5 -9
11 -20 14 -12 3 -20 14 -20 26 0 14 6 21 20 21 11 0 20 5 20 10 0 6 -6 10 -14
10 -23 0 -29 19 -16 51 10 24 18 29 46 29 19 0 34 5 34 10 0 6 -15 10 -32 10
l-33 1 28 24 c34 31 34 35 -3 35 -17 0 -47 7 -67 15 -42 18 -40 18 -48 5z m82
-38 c8 -5 8 -12 -2 -25 -13 -18 -17 -16 -28 16 -7 18 9 23 30 9z m-298 -69
c-41 -17 -39 -18 -39 17 l0 30 35 -17 35 -17 -31 -13z m263 -10 c8 -41 -3 -63
-33 -63 -34 0 -36 12 -8 51 23 33 36 37 41 12z m-262 -74 c0 -5 -7 -9 -15 -9
-8 0 -15 7 -15 15 0 9 6 12 15 9 8 -4 15 -10 15 -15z m140 -14 c0 -16 -38 -45
-60 -45 -33 0 -103 20 -96 27 14 14 156 30 156 18z m122 -20 c-4 -23 -8 -25
-63 -25 l-59 0 12 25 c10 22 17 25 63 25 50 0 52 -1 47 -25z m-257 -35 c18 -8
17 -9 -7 -9 -16 -1 -28 4 -28 9 0 12 8 12 35 0z m255 -70 c0 -71 -10 -75 -71
-32 -31 21 -59 64 -59 88 0 2 29 4 65 4 l65 0 0 -60z m-140 30 c0 -13 -5 -18
-15 -14 -12 5 -13 10 -4 20 15 19 19 18 19 -6z m-145 -96 c13 -5 14 -8 3 -15
-19 -13 -28 -11 -28 6 0 17 2 18 25 9z m261 -28 c13 -4 24 -11 24 -16 0 -6
-55 -10 -140 -10 -79 0 -140 4 -140 9 0 21 189 34 256 17z m-301 -28 l26 -12
-32 -13 c-40 -17 -39 -17 -39 12 0 28 8 30 45 13z"/>
<path d="M717 618 c-8 -13 -33 -34 -56 -48 -54 -33 -52 -46 6 -42 41 3 57 -2
109 -35 34 -21 86 -54 117 -73 31 -19 57 -38 57 -42 0 -3 -15 -15 -34 -26
l-35 -21 -58 21 c-68 24 -93 43 -93 72 0 18 -6 15 -35 -19 -19 -22 -34 -42
-35 -45 0 -3 24 -6 53 -6 28 -1 74 -11 100 -21 l48 -19 -53 -35 -53 -34 -167
3 -168 3 0 33 c0 18 11 54 24 79 12 26 21 49 18 52 -3 3 -17 5 -31 5 -14 0
-32 4 -40 9 -9 6 -21 5 -32 -2 -13 -8 -21 -7 -34 3 -10 8 -19 10 -23 4 -10
-13 -49 -17 -69 -6 -27 16 45 32 168 39 115 6 162 -4 121 -26 -29 -15 -28 -31
2 -31 13 0 35 -9 50 -21 20 -16 26 -17 26 -6 0 8 -7 20 -15 27 -22 18 -15 55
10 55 11 1 23 -4 27 -10 10 -14 10 -155 0 -155 -14 0 -32 23 -32 42 0 10 -4
18 -10 18 -5 0 -10 -4 -10 -10 0 -5 -14 -25 -31 -45 -18 -20 -30 -38 -27 -40
2 -3 19 1 36 7 25 10 42 10 77 0 25 -7 52 -12 60 -12 25 0 17 17 -11 24 -26 7
-27 8 -22 76 3 41 12 80 22 96 10 14 15 28 13 30 -3 3 -101 6 -218 7 -197 2
-217 4 -256 23 -23 12 -44 19 -47 16 -4 -3 -6 -22 -6 -42 0 -21 -7 -43 -15
-50 -10 -8 -12 -17 -6 -29 5 -9 12 -42 16 -75 7 -57 7 -58 -13 -47 -29 15 -29
16 -35 -31 -2 -24 -8 -51 -12 -60 -6 -15 -2 -16 30 -11 l36 6 -3 -38 c-2 -21
2 -40 7 -42 6 -2 10 15 10 42 0 28 4 45 12 45 6 0 18 3 27 6 13 5 16 -2 16
-45 0 -67 18 -66 22 2 3 51 4 52 36 55 l32 3 0 -55 c0 -31 5 -56 10 -56 6 0
10 27 10 60 0 59 1 60 28 60 26 0 27 -1 24 -49 -2 -27 1 -58 7 -68 9 -16 11
-16 12 7 1 34 6 93 8 102 1 10 291 5 291 -4 0 -14 -101 -38 -120 -28 -35 19
-30 -5 10 -45 23 -23 42 -48 43 -56 4 -22 18 -40 27 -34 5 3 7 12 4 19 -7 18
20 71 58 115 16 18 64 56 106 84 42 29 79 55 82 58 3 3 15 11 28 18 12 6 22
20 22 31 0 11 -10 25 -22 31 -61 32 -160 102 -173 123 -21 32 -36 86 -24 86 5
0 9 5 9 10 0 18 -28 10 -43 -12z m22 -72 c-2 -2 -17 -2 -33 1 l-29 6 24 18
c23 18 24 18 33 -2 5 -10 7 -21 5 -23z m-509 -60 c31 -13 31 -13 9 -18 -13 -3
-32 -9 -41 -13 -15 -6 -18 -2 -18 19 0 30 5 31 50 12z m-33 -62 c-3 -3 -12 -4
-19 -1 -8 3 -5 6 6 6 11 1 17 -2 13 -5z m122 -111 l1 -63 -30 0 c-26 0 -30 4
-30 28 0 35 19 103 33 120 16 20 25 -10 26 -85z m-142 55 c-3 -7 -5 -2 -5 12
0 14 2 19 5 13 2 -7 2 -19 0 -25z m52 -55 c1 -55 -4 -61 -32 -40 -14 10 -15
19 -6 57 5 25 12 52 15 60 10 25 22 -18 23 -77z m31 68 c0 -11 -4 -23 -10 -26
-6 -4 -10 5 -10 19 0 14 5 26 10 26 6 0 10 -9 10 -19z m90 12 c0 -5 -5 -15
-10 -23 -8 -12 -10 -11 -10 8 0 12 5 22 10 22 6 0 10 -3 10 -7z m45 -75 l7
-68 -32 0 c-25 0 -30 3 -27 18 3 9 8 35 12 57 15 97 30 95 40 -7z m34 75 c0
-5 -4 -17 -8 -28 -7 -17 -8 -17 -13 8 -4 19 -1 27 8 27 8 0 14 -3 13 -7z
m-269 -153 c0 -11 -5 -22 -11 -26 -16 -10 -29 9 -23 33 7 26 34 20 34 -7z m55
0 c18 -8 17 -9 -7 -9 -16 -1 -28 4 -28 9 0 12 8 12 35 0z m463 -89 l-22 -38
-17 21 c-17 21 -17 21 19 38 20 9 38 17 40 17 1 1 -7 -16 -20 -38z"/>
</g>
</svg>
