<?xml version="1.0" standalone="no"?>
<!DOCTYPE svg PUBLIC "-//W3C//DTD SVG 20010904//EN"
 "http://www.w3.org/TR/2001/REC-SVG-20010904/DTD/svg10.dtd">
<svg version="1.0" xmlns="http://www.w3.org/2000/svg"
 width="78.000000pt" height="45.000000pt" viewBox="0 0 78.000000 45.000000"
 preserveAspectRatio="xMidYMid meet">
<metadata>
Created by potrace 1.16, written by Peter Selinger 2001-2019
</metadata>
<g transform="translate(0.000000,45.000000) scale(0.100000,-0.100000)"
fill="#000000" stroke="none">
<path d="M630 388 c-67 -27 -294 -87 -318 -83 -75 13 -221 13 -231 1 -10 -12
-6 -100 6 -136 4 -12 7 -12 18 4 12 15 32 19 126 24 97 4 113 3 121 -12 5 -9
14 -14 19 -11 5 4 7 10 4 15 -3 5 7 5 22 0 119 -39 153 -53 153 -66 0 -10 7
-13 24 -8 13 3 40 -2 61 -10 21 -9 40 -16 44 -16 4 0 12 55 19 123 6 67 14
132 18 143 5 17 0 24 -27 33 -17 6 -32 11 -33 10 -1 0 -12 -5 -26 -11z m40
-143 c0 -80 -4 -125 -10 -125 -7 0 -8 13 -5 34 5 27 3 36 -11 44 -16 9 -17 17
-8 72 11 65 6 76 -31 73 -14 -2 -10 2 10 12 55 26 55 25 55 -110z m-113 45
c-14 -33 -26 -49 -35 -45 -7 2 -23 -7 -36 -22 -23 -26 -24 -26 -62 -12 -30 11
-39 20 -39 38 0 19 11 27 65 48 36 13 72 28 80 33 8 5 22 9 32 9 15 1 14 -4
-5 -49z m51 -64 l-3 -35 -22 33 -21 33 21 34 22 34 3 -32 c2 -18 2 -48 0 -67z
m-265 54 c5 0 7 -12 5 -27 l-3 -28 -113 1 c-62 1 -115 4 -118 7 -3 3 -3 15 1
26 8 25 63 30 228 21z m220 -74 c40 -31 13 -52 -44 -35 l-41 13 22 18 c26 21
39 22 63 4z m77 -37 c0 -6 -4 -7 -10 -4 -5 3 -10 11 -10 16 0 6 5 7 10 4 6 -3
10 -11 10 -16z m-26 -21 c-5 -8 -2 -9 9 -5 10 3 17 2 17 -3 0 -11 -11 -13 -34
-4 -16 6 -12 24 5 24 6 0 7 -5 3 -12z"/>
</g>
</svg>
