<?xml version="1.0" standalone="no"?>
<!DOCTYPE svg PUBLIC "-//W3C//DTD SVG 20010904//EN"
 "http://www.w3.org/TR/2001/REC-SVG-20010904/DTD/svg10.dtd">
<svg version="1.0" xmlns="http://www.w3.org/2000/svg"
 width="84.000000pt" height="47.000000pt" viewBox="0 0 84.000000 47.000000"
 preserveAspectRatio="xMidYMid meet">
<metadata>
Created by potrace 1.16, written by Peter Selinger 2001-2019
</metadata>
<g transform="translate(0.000000,47.000000) scale(0.100000,-0.100000)"
fill="#000000" stroke="none">
<path d="M655 425 c-16 -8 -86 -30 -155 -49 -118 -31 -131 -33 -230 -27 -58 4
-118 4 -135 1 -28 -5 -29 -8 -26 -50 7 -104 14 -127 31 -100 7 11 36 16 109
20 l100 5 3 -30 c4 -38 22 -39 26 -2 3 26 6 28 30 22 27 -6 150 -49 187 -65
11 -5 36 -16 57 -24 l36 -14 7 36 c4 21 8 69 10 107 2 39 6 86 10 106 4 22 3
39 -4 43 -5 4 -8 13 -4 21 7 19 -13 19 -52 0z m16 -47 c9 -230 9 -240 -3 -235
-7 3 -72 32 -145 63 -73 31 -134 63 -137 71 -7 17 67 53 189 94 100 34 95 33
96 7z m-327 -64 c3 -9 6 -28 6 -44 l0 -28 -96 4 c-53 3 -100 6 -104 9 -4 2 -5
18 -2 34 5 34 15 37 123 40 53 1 68 -2 73 -15z"/>
</g>
</svg>
