<?xml version="1.0" standalone="no"?>
<!DOCTYPE svg PUBLIC "-//W3C//DTD SVG 20010904//EN"
 "http://www.w3.org/TR/2001/REC-SVG-20010904/DTD/svg10.dtd">
<svg version="1.0" xmlns="http://www.w3.org/2000/svg"
 width="90.000000pt" height="40.000000pt" viewBox="0 0 90.000000 40.000000"
 preserveAspectRatio="xMidYMid meet">
<metadata>
Created by potrace 1.16, written by Peter Selinger 2001-2019
</metadata>
<g transform="translate(0.000000,40.000000) scale(0.100000,-0.100000)"
fill="#000000" stroke="none">
<path d="M560 309 c-85 -5 -214 -10 -287 -12 -132 -5 -159 -10 -147 -29 4 -6
41 -8 105 -4 98 6 98 5 130 -23 30 -28 30 -29 10 -36 -12 -3 -21 -11 -21 -16
0 -12 37 -12 45 1 3 6 14 10 23 10 16 -1 16 -1 0 -11 -31 -17 -20 -27 27 -24
25 2 45 0 45 -5 0 -16 -53 -50 -77 -50 -38 0 -101 39 -108 67 -3 13 -16 28
-28 33 -21 8 -20 9 6 9 18 1 27 6 25 14 -3 8 -33 13 -91 15 -81 3 -86 2 -84
-18 1 -17 9 -20 52 -22 l50 -1 -45 -4 c-25 -3 -49 -9 -55 -15 -7 -7 14 -9 73
-5 45 4 82 4 82 2 0 -7 -82 -47 -121 -59 -40 -12 -49 -25 -27 -39 10 -7 31 2
72 28 56 36 94 40 82 10 -6 -18 28 -42 64 -46 45 -4 104 20 135 55 28 32 35
34 103 40 l74 5 25 -55 c33 -73 58 -75 37 -1 -9 28 -20 56 -24 61 -5 5 -43 8
-85 7 -75 -2 -76 -2 -65 19 10 19 9 21 -7 16 -13 -4 -28 3 -48 24 -19 19 -24
30 -14 30 8 0 76 5 153 11 76 5 144 8 151 5 9 -3 6 -27 -12 -97 -24 -93 -26
-139 -3 -84 32 76 62 162 63 180 2 18 -4 20 -63 21 -36 1 -135 -2 -220 -7z
m-112 -40 c-3 -10 30 -35 70 -55 23 -11 12 -24 -21 -24 -42 0 -62 17 -44 38
10 13 8 15 -12 9 -14 -3 -33 1 -48 11 -24 15 -24 16 -7 23 29 12 64 10 62 -2z
m-155 -36 c-7 -2 -19 -2 -25 0 -7 3 -2 5 12 5 14 0 19 -2 13 -5z"/>
<path d="M565 269 c-8 -12 -11 -10 43 -37 50 -26 55 -13 9 22 -38 29 -43 31
-52 15z"/>
</g>
</svg>
