<?xml version="1.0" standalone="no"?>
<!DOCTYPE svg PUBLIC "-//W3C//DTD SVG 20010904//EN"
 "http://www.w3.org/TR/2001/REC-SVG-20010904/DTD/svg10.dtd">
<svg version="1.0" xmlns="http://www.w3.org/2000/svg"
 width="32.000000pt" height="58.000000pt" viewBox="0 0 32.000000 58.000000"
 preserveAspectRatio="xMidYMid meet">
<metadata>
Created by potrace 1.16, written by Peter Selinger 2001-2019
</metadata>
<g transform="translate(0.000000,58.000000) scale(0.100000,-0.100000)"
fill="#000000" stroke="none">
<path d="M75 541 c-3 -6 -4 -15 -1 -20 12 -18 9 -191 -3 -205 -9 -10 -9 -44
-1 -132 12 -130 15 -148 29 -140 5 3 9 67 10 142 1 75 3 140 5 143 3 3 6 53 7
111 3 100 2 105 -18 108 -12 2 -24 -2 -28 -7z"/>
<path d="M199 543 c-1 -4 0 -48 1 -96 1 -48 -3 -93 -8 -100 -14 -16 -1 -267
13 -267 6 0 11 9 11 19 1 11 4 62 8 113 4 51 8 147 9 213 2 107 0 120 -15 123
-10 2 -18 0 -19 -5z"/>
</g>
</svg>
