<?xml version="1.0" standalone="no"?>
<!DOCTYPE svg PUBLIC "-//W3C//DTD SVG 20010904//EN"
 "http://www.w3.org/TR/2001/REC-SVG-20010904/DTD/svg10.dtd">
<svg version="1.0" xmlns="http://www.w3.org/2000/svg"
 width="101.000000pt" height="54.000000pt" viewBox="0 0 101.000000 54.000000"
 preserveAspectRatio="xMidYMid meet">
<metadata>
Created by potrace 1.16, written by Peter Selinger 2001-2019
</metadata>
<g transform="translate(0.000000,54.000000) scale(0.100000,-0.100000)"
fill="#000000" stroke="none">
<path d="M284 425 c-4 -8 -3 -36 1 -61 l7 -46 -112 4 c-109 4 -136 -2 -109
-26 10 -9 41 -10 109 -6 52 3 99 4 103 2 5 -2 5 -22 2 -44 -8 -48 7 -69 78
-105 42 -21 62 -24 155 -24 87 0 108 -3 118 -17 19 -25 23 -14 25 70 1 42 5
82 9 89 5 7 33 13 67 14 150 4 173 6 173 14 0 5 -6 9 -12 8 -7 0 -61 1 -120 1
l-108 2 7 59 c7 73 19 68 -194 75 -110 3 -153 1 -157 -7 -3 -9 -5 -8 -5 1 -1
17 -30 15 -37 -3z m350 -37 c3 -13 6 -36 6 -51 l0 -28 -67 1 c-89 2 -91 2 -70
-14 10 -8 27 -11 38 -9 11 3 38 0 59 -7 l38 -13 1 -65 0 -64 -87 4 c-57 3
-103 12 -133 25 -58 26 -111 79 -107 107 3 23 4 23 101 25 37 0 67 5 67 10 0
13 -133 21 -148 9 -20 -17 -26 -1 -16 40 9 37 10 37 69 43 33 3 101 6 151 7
87 2 92 1 98 -20z"/>
<path d="M342 377 c-17 -21 0 -25 71 -19 59 5 82 24 25 21 -18 -1 -45 1 -59 5
-17 5 -29 3 -37 -7z"/>
<path d="M500 371 c0 -17 16 -21 69 -14 70 8 64 23 -9 23 -33 0 -60 -4 -60 -9z"/>
<path d="M360 250 c-13 -9 -13 -11 0 -20 17 -11 49 -11 95 -1 18 4 25 9 18 14
-21 13 -98 18 -113 7z"/>
<path d="M515 252 c-3 -3 -5 -11 -5 -19 0 -9 16 -13 54 -13 56 0 85 16 44 24
-42 9 -88 13 -93 8z"/>
</g>
</svg>
