<?xml version="1.0" standalone="no"?>
<!DOCTYPE svg PUBLIC "-//W3C//DTD SVG 20010904//EN"
 "http://www.w3.org/TR/2001/REC-SVG-20010904/DTD/svg10.dtd">
<svg version="1.0" xmlns="http://www.w3.org/2000/svg"
 width="77.000000pt" height="50.000000pt" viewBox="0 0 77.000000 50.000000"
 preserveAspectRatio="xMidYMid meet">
<metadata>
Created by potrace 1.16, written by Peter Selinger 2001-2019
</metadata>
<g transform="translate(0.000000,50.000000) scale(0.100000,-0.100000)"
fill="#000000" stroke="none">
<path d="M5 491 c-15 -15 1 -22 48 -21 191 6 508 -1 501 -11 -3 -6 9 -27 28
-47 90 -95 100 -133 55 -199 -43 -63 -50 -54 -46 62 3 65 0 105 -6 105 -6 0
-11 -46 -11 -115 -2 -111 -12 -153 -35 -139 -9 5 -59 98 -59 109 0 3 12 5 26
5 20 0 25 -5 24 -22 -4 -45 2 -52 11 -13 11 57 11 195 -1 195 -6 0 -10 -30
-10 -70 l0 -70 -28 0 c-15 0 -33 5 -40 12 -16 16 -15 58 1 62 6 2 21 7 32 12
18 6 18 7 2 11 -15 4 -14 9 13 39 33 38 38 54 15 54 -9 0 -30 -20 -47 -45 -35
-50 -27 -48 -211 -45 -62 1 -78 -2 -83 -15 -4 -9 -5 -18 -2 -20 2 -2 57 0 123
5 66 5 121 7 124 5 2 -3 -4 -13 -13 -24 -10 -10 -16 -27 -14 -38 3 -17 -4 -18
-103 -14 -100 3 -106 2 -111 -17 -3 -12 -4 -23 -2 -25 2 -2 27 0 56 4 29 3 87
6 127 5 l75 -1 40 -63 39 -64 -29 -23 c-18 -16 -24 -24 -14 -25 22 0 128 86
188 153 60 66 66 96 24 126 -15 11 -47 47 -71 80 l-42 61 95 0 c57 0 96 4 96
10 0 6 -95 10 -262 11 -145 1 -316 2 -381 3 -65 1 -120 0 -122 -3z"/>
<path d="M86 408 c-3 -7 -7 -43 -9 -80 -5 -65 -3 -70 40 -145 25 -43 57 -98
72 -123 38 -66 41 -23 3 48 -59 112 -76 163 -77 236 0 46 -4 71 -12 73 -7 3
-15 -1 -17 -9z"/>
</g>
</svg>
