<?xml version="1.0" standalone="no"?>
<!DOCTYPE svg PUBLIC "-//W3C//DTD SVG 20010904//EN"
 "http://www.w3.org/TR/2001/REC-SVG-20010904/DTD/svg10.dtd">
<svg version="1.0" xmlns="http://www.w3.org/2000/svg"
 width="66.000000pt" height="62.000000pt" viewBox="0 0 66.000000 62.000000"
 preserveAspectRatio="xMidYMid meet">
<metadata>
Created by potrace 1.16, written by Peter Selinger 2001-2019
</metadata>
<g transform="translate(0.000000,62.000000) scale(0.100000,-0.100000)"
fill="#000000" stroke="none">
<path d="M236 509 c-15 -17 -43 -64 -63 -103 -31 -62 -34 -78 -30 -126 5 -63
44 -144 89 -187 41 -39 57 -19 28 37 -12 23 -20 43 -18 45 6 4 93 34 195 66
101 31 135 51 117 69 -5 5 -72 30 -149 55 -77 26 -143 50 -148 54 -4 4 3 26
15 49 21 38 22 43 7 57 -15 15 -18 14 -43 -16z m-23 -94 c-9 -19 -18 -33 -21
-31 -4 5 26 66 33 66 3 0 -3 -16 -12 -35z m153 -89 l85 -33 -105 -28 c-58 -15
-112 -25 -119 -22 -20 8 -26 61 -11 97 15 36 17 36 150 -14z m157 -36 c-4 -4
-18 -11 -31 -15 -21 -6 -22 -5 -11 13 8 12 19 17 31 14 11 -2 16 -8 11 -12z
m-346 -42 c-3 -8 -6 -5 -6 6 -1 11 2 17 5 13 3 -3 4 -12 1 -19z m173 -13 c-19
-7 -42 -13 -50 -13 -8 0 1 6 20 13 19 7 42 13 50 13 8 0 -1 -6 -20 -13z m-85
-25 c-27 -12 -43 -12 -25 0 8 5 22 9 30 9 10 0 8 -3 -5 -9z"/>
</g>
</svg>
