<?xml version="1.0" standalone="no"?>
<!DOCTYPE svg PUBLIC "-//W3C//DTD SVG 20010904//EN"
 "http://www.w3.org/TR/2001/REC-SVG-20010904/DTD/svg10.dtd">
<svg version="1.0" xmlns="http://www.w3.org/2000/svg"
 width="88.000000pt" height="66.000000pt" viewBox="0 0 88.000000 66.000000"
 preserveAspectRatio="xMidYMid meet">
<metadata>
Created by potrace 1.16, written by Peter Selinger 2001-2019
</metadata>
<g transform="translate(0.000000,66.000000) scale(0.100000,-0.100000)"
fill="#000000" stroke="none">
<path d="M590 590 c-56 -49 -157 -120 -171 -120 -7 0 -20 -7 -29 -15 -12 -11
-50 -15 -155 -17 -95 -2 -140 -7 -142 -15 -6 -16 38 -19 182 -13 118 5 121 5
173 -24 l53 -29 -22 -23 c-12 -13 -33 -24 -45 -24 -13 0 -26 -5 -29 -11 -5 -7
-55 -9 -151 -6 -142 4 -185 -3 -154 -23 8 -5 72 -7 144 -5 72 2 135 0 141 -4
34 -28 230 -122 248 -119 18 2 14 7 -23 25 -66 33 -133 73 -150 89 -12 12 -10
18 20 49 37 38 56 43 86 20 10 -8 25 -15 32 -15 23 0 12 19 -20 36 l-32 16 27
20 c28 20 35 38 17 38 -6 0 -24 -10 -40 -21 -28 -21 -29 -21 -69 -3 -51 24
-57 40 -23 61 15 10 32 22 38 28 6 6 41 35 78 65 60 49 78 70 59 70 -5 0 -24
-14 -43 -30z"/>
<path d="M654 596 c-4 -12 1 -432 5 -453 1 -2 6 -3 11 -3 14 0 14 457 0 465
-6 3 -13 -1 -16 -9z"/>
<path d="M59 398 c-5 -45 4 -108 16 -111 11 -2 19 85 10 120 -8 33 -22 28 -26
-9z"/>
</g>
</svg>
