<?xml version="1.0" standalone="no"?>
<!DOCTYPE svg PUBLIC "-//W3C//DTD SVG 20010904//EN"
 "http://www.w3.org/TR/2001/REC-SVG-20010904/DTD/svg10.dtd">
<svg version="1.0" xmlns="http://www.w3.org/2000/svg"
 width="101.000000pt" height="66.000000pt" viewBox="0 0 101.000000 66.000000"
 preserveAspectRatio="xMidYMid meet">
<metadata>
Created by potrace 1.16, written by Peter Selinger 2001-2019
</metadata>
<g transform="translate(0.000000,66.000000) scale(0.100000,-0.100000)"
fill="#000000" stroke="none">
<path d="M759 528 c0 -13 0 -80 1 -150 1 -123 0 -128 -20 -128 -15 0 -27 16
-51 70 -31 68 -41 80 -54 60 -4 -7 -12 -7 -25 0 -10 5 -20 10 -22 10 -2 0 -21
-25 -43 -55 -65 -90 -76 -75 -63 84 9 108 4 129 -27 117 -13 -4 -16 -15 -13
-37 l5 -30 -141 2 c-115 2 -141 0 -141 -12 0 -8 -6 -20 -13 -28 -7 -7 -11 -21
-8 -30 2 -9 8 -40 11 -68 7 -51 25 -75 25 -33 0 17 7 20 50 20 28 0 49 -3 49
-7 -1 -5 -1 -16 0 -25 1 -24 21 -23 21 0 0 32 22 42 89 42 51 0 62 -3 53 -12
-17 -17 -15 -57 3 -64 21 -8 19 -18 -11 -54 -38 -44 -24 -47 19 -4 l36 36 88
-6 c48 -3 98 -5 110 -6 15 0 28 -11 38 -30 20 -39 28 -38 45 6 10 26 22 37 42
41 15 3 28 9 28 14 0 5 -14 6 -31 2 l-32 -6 6 44 c3 24 9 92 13 152 6 104 6
107 -15 107 -15 0 -21 -6 -22 -22z m-309 -128 l0 -50 -70 0 -70 0 0 35 c0 28
-4 35 -20 35 -16 0 -20 -7 -20 -35 0 -35 0 -35 -45 -35 l-45 0 0 44 c0 44 0
45 38 49 20 2 81 4 135 5 l97 2 0 -50z m208 -100 c20 -31 27 -50 20 -51 -7 0
-38 0 -68 2 -30 1 -63 2 -72 3 -10 0 -18 5 -18 11 0 10 87 85 99 85 3 0 21
-23 39 -50z m102 -96 c0 -8 -4 -12 -10 -9 -5 3 -10 10 -10 16 0 5 5 9 10 9 6
0 10 -7 10 -16z"/>
<path d="M610 470 c0 -38 4 -70 9 -70 15 0 19 11 27 78 6 59 5 62 -15 62 -19
0 -21 -5 -21 -70z"/>
</g>
</svg>
