<?xml version="1.0" standalone="no"?>
<!DOCTYPE svg PUBLIC "-//W3C//DTD SVG 20010904//EN"
 "http://www.w3.org/TR/2001/REC-SVG-20010904/DTD/svg10.dtd">
<svg version="1.0" xmlns="http://www.w3.org/2000/svg"
 width="143.000000pt" height="49.000000pt" viewBox="0 0 143.000000 49.000000"
 preserveAspectRatio="xMidYMid meet">
<metadata>
Created by potrace 1.16, written by Peter Selinger 2001-2019
</metadata>
<g transform="translate(0.000000,49.000000) scale(0.100000,-0.100000)"
fill="#000000" stroke="none">
<path d="M308 369 c-12 -7 -14 -19 -10 -54 2 -25 0 -45 -5 -45 -5 0 -31 22
-57 49 -28 28 -55 47 -62 44 -20 -7 -17 -31 5 -43 11 -5 26 -16 33 -24 8 -7
30 -21 48 -31 45 -23 27 -29 -46 -16 -86 16 -96 15 -92 -11 3 -22 7 -23 78
-20 84 3 85 8 -12 -64 -51 -37 -58 -51 -32 -61 11 -4 35 14 77 56 l62 63 3
-76 c3 -83 21 -105 23 -28 1 26 4 58 8 71 6 23 8 22 58 -28 46 -45 73 -62 73
-45 0 3 -26 30 -57 60 l-58 54 50 0 c40 1 46 3 32 11 -11 6 -30 9 -43 6 -40
-7 -36 9 12 48 25 20 43 40 40 43 -4 3 -24 -9 -45 -26 -22 -18 -43 -32 -47
-32 -4 0 -4 22 -1 49 6 52 -4 67 -35 50z"/>
<path d="M727 363 c-3 -5 -1 -32 2 -60 4 -29 4 -53 0 -53 -9 0 -69 68 -69 79
0 15 -33 22 -44 10 -8 -8 4 -24 44 -60 l55 -50 -83 7 c-79 6 -84 6 -80 -12 3
-17 12 -19 83 -16 l80 4 -65 -60 c-53 -50 -62 -61 -48 -67 13 -5 32 7 70 45
l53 51 3 -55 c3 -59 22 -79 22 -23 0 17 3 42 6 55 6 22 10 20 56 -33 27 -30
54 -52 60 -49 5 4 -15 32 -46 63 -31 31 -56 60 -56 64 0 4 32 7 71 7 44 0 68
4 64 10 -3 6 -32 10 -63 10 l-57 1 55 49 c66 60 53 66 -19 10 -28 -22 -52 -40
-54 -40 -3 0 0 20 5 45 5 25 7 52 4 60 -6 16 -42 21 -49 8z"/>
<path d="M1148 355 c-3 -3 -3 -29 0 -58 l5 -52 -23 25 c-12 14 -32 38 -45 54
-15 19 -28 27 -39 23 -24 -10 -20 -21 23 -60 l38 -34 -59 -6 c-67 -6 -76 -10
-59 -31 9 -10 28 -13 74 -10 l62 5 -54 -51 c-40 -39 -51 -54 -42 -63 8 -8 24
2 64 41 29 29 56 52 60 52 4 0 7 -15 6 -32 -3 -60 1 -89 11 -83 6 3 10 32 10
63 l0 56 59 -58 c32 -32 61 -54 64 -49 3 5 -19 34 -49 64 -61 60 -58 67 29 68
26 1 47 6 47 11 0 6 -27 10 -60 10 -33 0 -60 3 -60 7 0 3 18 23 40 43 22 20
40 43 40 50 0 7 -20 -6 -45 -29 -24 -22 -47 -41 -51 -41 -3 0 -5 15 -4 33 3
51 1 57 -18 57 -10 0 -21 -2 -24 -5z"/>
</g>
</svg>
