<?xml version="1.0" standalone="no"?>
<!DOCTYPE svg PUBLIC "-//W3C//DTD SVG 20010904//EN"
 "http://www.w3.org/TR/2001/REC-SVG-20010904/DTD/svg10.dtd">
<svg version="1.0" xmlns="http://www.w3.org/2000/svg"
 width="113.000000pt" height="153.000000pt" viewBox="0 0 113.000000 153.000000"
 preserveAspectRatio="xMidYMid meet">
<metadata>
Created by potrace 1.16, written by Peter Selinger 2001-2019
</metadata>
<g transform="translate(0.000000,153.000000) scale(0.100000,-0.100000)"
fill="#000000" stroke="none">
<path d="M325 1425 c-3 -8 -7 -22 -10 -30 -3 -9 16 -25 55 -47 32 -17 56 -36
54 -40 -3 -5 -27 -19 -54 -33 -61 -31 -68 -42 -42 -67 19 -19 25 -20 107 -9
48 7 128 11 179 10 l92 -1 61 59 61 59 -57 57 -57 57 -192 0 c-162 0 -193 -2
-197 -15z m395 -40 c78 -54 78 -56 9 -105 l-62 -43 -146 -4 -146 -4 50 46 c28
26 45 49 39 51 -21 9 -95 66 -90 71 6 6 200 18 259 16 34 -1 59 -9 87 -28z"/>
<path d="M841 976 c-9 -11 -70 -13 -321 -10 -289 3 -360 -1 -360 -23 0 -5 31
-28 70 -52 38 -24 70 -48 70 -52 0 -4 -23 -22 -50 -40 -45 -29 -63 -60 -42
-72 4 -2 108 -1 232 4 124 5 272 10 330 12 58 2 111 7 118 11 12 7 92 111 92
119 0 2 -29 29 -64 60 -52 46 -66 54 -75 43z m-335 -45 c-4 -6 18 -24 49 -42
30 -17 57 -35 60 -39 3 -5 -9 -19 -27 -31 -18 -13 -42 -31 -52 -41 -16 -15
-38 -18 -120 -18 -56 0 -111 3 -124 6 -23 7 -23 7 9 40 l32 33 -39 43 -39 43
40 5 c78 11 217 11 211 1z m377 -24 c31 -17 57 -35 57 -38 0 -4 -22 -27 -49
-52 l-50 -44 -127 -7 c-69 -4 -129 -5 -132 -1 -3 3 11 23 32 44 l38 39 -41 37
c-23 21 -41 41 -41 45 0 4 57 8 128 8 124 0 128 0 185 -31z"/>
<path d="M506 573 c-3 -3 -1 -12 6 -20 8 -11 7 -17 -8 -28 -27 -21 -38 -19
-67 15 -27 30 -51 38 -62 21 -3 -5 9 -19 26 -31 22 -16 28 -25 20 -33 -9 -9
-17 -8 -32 2 -17 10 -24 10 -33 1 -8 -9 -8 -14 2 -17 7 -3 17 -16 22 -29 5
-13 17 -24 26 -24 10 0 26 -7 36 -17 24 -21 36 -9 15 15 -13 14 -14 21 -5 30
18 18 26 15 70 -23 23 -19 45 -32 50 -29 5 3 7 9 4 12 -8 7 24 42 39 42 7 0
20 -9 30 -20 10 -11 23 -20 28 -20 6 0 -2 14 -18 30 l-29 30 57 0 c31 0 57 5
57 10 0 6 -19 10 -42 10 l-42 0 27 28 c15 15 27 31 27 35 0 10 -28 9 -32 -1
-1 -4 -19 -20 -38 -34 -35 -26 -35 -26 -59 -7 l-23 19 23 20 c18 14 20 19 9
20 -9 0 -21 -5 -27 -11 -8 -8 -17 -8 -31 0 -10 6 -22 7 -26 4z m49 -63 c4 -6
-7 -10 -27 -10 -25 0 -29 3 -18 10 19 13 37 13 45 0z m2 -45 c-11 -7 -25 -11
-33 -8 -22 8 -6 23 24 23 25 -1 26 -2 9 -15z"/>
<path d="M785 349 c-16 -6 -84 -9 -150 -8 -128 3 -160 -3 -169 -27 -8 -22 -1
-31 45 -54 21 -11 39 -26 39 -34 0 -7 -18 -21 -40 -31 -50 -23 -61 -35 -53
-64 6 -22 8 -23 87 -17 177 15 220 16 234 4 11 -10 25 0 74 51 l60 62 -26 37
c-57 81 -68 91 -101 81z m55 -77 l43 -37 -62 -43 -62 -42 -122 0 -122 1 45 40
c35 32 41 42 30 49 -9 5 -28 20 -43 34 l-27 25 38 4 c20 2 83 4 138 5 l101 2
43 -38z"/>
</g>
</svg>
