<?xml version="1.0" standalone="no"?>
<!DOCTYPE svg PUBLIC "-//W3C//DTD SVG 20010904//EN"
 "http://www.w3.org/TR/2001/REC-SVG-20010904/DTD/svg10.dtd">
<svg version="1.0" xmlns="http://www.w3.org/2000/svg"
 width="110.000000pt" height="53.000000pt" viewBox="0 0 110.000000 53.000000"
 preserveAspectRatio="xMidYMid meet">
<metadata>
Created by potrace 1.16, written by Peter Selinger 2001-2019
</metadata>
<g transform="translate(0.000000,53.000000) scale(0.100000,-0.100000)"
fill="#000000" stroke="none">
<path d="M900 461 c-35 -6 -35 -6 -35 -59 l0 -53 -70 6 c-104 8 -384 25 -427
25 l-38 0 0 -51 0 -50 -138 2 c-76 1 -144 -1 -150 -5 -9 -5 -9 -12 -1 -28 12
-22 26 -22 232 -1 l57 5 0 -51 c0 -85 17 -57 24 41 4 50 9 95 12 100 10 16
491 1 573 -18 36 -8 14 -22 -54 -35 -33 -6 -70 -17 -83 -25 -22 -15 -253 -77
-259 -70 -2 2 1 34 8 70 12 72 8 87 -19 70 -14 -9 -16 -24 -14 -80 l4 -70 -77
-19 c-77 -19 -95 -29 -78 -46 6 -6 35 0 76 16 81 30 77 30 77 4 0 -11 5 -17
10 -14 6 3 10 15 10 26 0 10 1 19 3 19 10 1 226 59 239 64 14 6 17 1 20 -31
l3 -38 52 -3 51 -3 7 40 c4 22 4 45 0 51 -7 12 12 40 26 40 5 0 9 -15 9 -34 0
-44 19 -58 72 -54 l43 3 3 49 c2 27 -2 54 -7 59 -8 8 -11 -4 -11 -41 0 -49 -1
-52 -25 -50 -22 2 -25 7 -25 44 0 33 5 43 23 52 22 10 22 11 -5 11 -27 1 -28
3 -28 59 0 80 -9 87 -90 73z m70 -67 c0 -54 0 -55 -27 -52 -25 3 -28 7 -31 47
-3 46 7 61 41 61 14 0 17 -9 17 -56z m-70 -168 c0 -50 -6 -58 -38 -49 -28 7
-31 67 -4 82 33 20 42 13 42 -33z"/>
</g>
</svg>
