<?xml version="1.0" standalone="no"?>
<!DOCTYPE svg PUBLIC "-//W3C//DTD SVG 20010904//EN"
 "http://www.w3.org/TR/2001/REC-SVG-20010904/DTD/svg10.dtd">
<svg version="1.0" xmlns="http://www.w3.org/2000/svg"
 width="100.000000pt" height="43.000000pt" viewBox="0 0 100.000000 43.000000"
 preserveAspectRatio="xMidYMid meet">
<metadata>
Created by potrace 1.16, written by Peter Selinger 2001-2019
</metadata>
<g transform="translate(0.000000,43.000000) scale(0.100000,-0.100000)"
fill="#000000" stroke="none">
<path d="M324 376 c-3 -15 -4 -40 0 -56 l6 -30 -128 2 c-121 3 -127 2 -127
-17 0 -19 6 -20 128 -17 l127 4 0 -46 c0 -43 2 -46 27 -46 15 0 57 9 93 19 36
11 113 29 172 41 l108 22 37 -23 c21 -13 56 -38 77 -56 22 -18 42 -33 45 -33
3 0 7 41 9 91 2 86 1 90 -17 84 -11 -3 -37 -2 -58 3 -37 10 -125 25 -333 58
-58 9 -117 19 -132 21 -23 4 -28 1 -34 -21z m121 -20 c22 -3 72 -8 110 -12 69
-6 264 -40 271 -47 2 -2 -33 -12 -78 -21 -112 -23 -270 -48 -275 -43 -2 3 1
24 6 48 6 25 6 48 1 53 -17 17 -30 -6 -30 -54 0 -55 -1 -57 -58 -66 l-42 -7 0
76 c0 76 6 89 40 82 8 -2 33 -6 55 -9z m416 -103 c0 -16 3 -39 5 -53 l5 -24
-33 29 c-56 51 -60 61 -25 68 44 8 47 7 48 -20z"/>
</g>
</svg>
