<?xml version="1.0" standalone="no"?>
<!DOCTYPE svg PUBLIC "-//W3C//DTD SVG 20010904//EN"
 "http://www.w3.org/TR/2001/REC-SVG-20010904/DTD/svg10.dtd">
<svg version="1.0" xmlns="http://www.w3.org/2000/svg"
 width="107.000000pt" height="60.000000pt" viewBox="0 0 107.000000 60.000000"
 preserveAspectRatio="xMidYMid meet">
<metadata>
Created by potrace 1.16, written by Peter Selinger 2001-2019
</metadata>
<g transform="translate(0.000000,60.000000) scale(0.100000,-0.100000)"
fill="#000000" stroke="none">
<path d="M500 490 c-70 -61 -110 -101 -110 -111 0 -4 14 -24 30 -43 l30 -34
-30 -30 c-16 -17 -30 -40 -30 -51 0 -20 41 -52 119 -93 39 -20 57 -14 26 8
-44 31 -95 88 -95 104 0 19 30 50 49 50 10 0 12 -12 7 -45 -4 -25 -5 -49 -1
-55 8 -12 56 6 73 27 10 14 12 7 12 -45 0 -84 16 -79 25 8 l7 70 121 0 c107 0
119 -2 101 -14 -15 -12 -17 -17 -6 -27 10 -11 17 -7 40 18 25 29 82 51 82 32
0 -5 5 -9 10 -9 6 0 10 7 10 15 0 14 -11 19 -37 16 -7 -1 -13 3 -13 9 0 6 4 9
8 6 4 -3 13 9 19 25 10 26 10 29 -2 19 -11 -9 -16 -7 -24 9 -10 18 -8 20 26
24 l38 4 -41 1 c-39 2 -43 5 -58 42 -11 28 -22 40 -36 40 -22 0 -20 -7 16 -57
l16 -23 -132 0 -132 0 4 73 c2 59 0 72 -12 72 -11 0 -16 -14 -18 -58 -3 -56
-4 -57 -20 -38 -9 11 -26 21 -37 23 -17 3 -21 -5 -30 -56 -11 -66 -30 -83 -40
-37 -10 46 2 72 58 123 63 57 41 64 -23 8z m63 -107 c-3 -7 -10 -13 -15 -13
-6 0 -7 7 -4 16 3 9 6 23 7 32 0 13 2 13 8 -3 5 -11 6 -26 4 -32z m27 -78 l0
-65 -36 40 c-20 22 -34 43 -30 47 5 6 58 41 64 42 1 1 2 -28 2 -64z m314 32
c18 -50 -4 -59 -158 -65 l-136 -5 0 29 c0 16 4 34 8 40 6 9 215 33 262 30 8
-1 19 -14 24 -29z m-347 -101 c-10 -26 -25 -18 -19 10 3 17 8 22 15 15 5 -5 7
-17 4 -25z"/>
<path d="M302 408 c-10 -13 -5 -21 33 -49 24 -19 45 -37 45 -40 0 -9 -94 -69
-108 -69 -18 0 -21 -14 -7 -34 13 -17 16 -16 54 19 22 21 50 44 61 52 29 20
25 32 -23 87 -36 42 -44 46 -55 34z"/>
<path d="M153 403 c-18 -7 -16 -30 2 -37 8 -3 12 -12 9 -19 -3 -8 2 -17 11
-21 9 -3 13 -2 10 4 -3 6 -3 10 2 10 9 -1 53 -36 53 -42 0 -3 -23 -19 -50 -37
-47 -30 -49 -34 -33 -46 16 -12 25 -7 74 38 58 54 72 74 42 62 -13 -5 -30 7
-63 43 -25 28 -51 48 -57 45z"/>
<path d="M227 394 c-8 -8 84 -93 102 -94 7 0 -3 18 -23 40 -20 22 -36 45 -36
50 0 11 -33 14 -43 4z"/>
<path d="M110 313 c1 -31 74 -54 84 -26 3 7 2 12 -3 8 -13 -7 -42 5 -35 16 3
5 -6 9 -20 9 -14 0 -26 -3 -26 -7z"/>
<path d="M117 263 c-4 -3 -7 -11 -7 -17 0 -6 5 -5 12 2 6 6 9 14 7 17 -3 3 -9
2 -12 -2z"/>
</g>
</svg>
