<?xml version="1.0" standalone="no"?>
<!DOCTYPE svg PUBLIC "-//W3C//DTD SVG 20010904//EN"
 "http://www.w3.org/TR/2001/REC-SVG-20010904/DTD/svg10.dtd">
<svg version="1.0" xmlns="http://www.w3.org/2000/svg"
 width="48.000000pt" height="38.000000pt" viewBox="0 0 48.000000 38.000000"
 preserveAspectRatio="xMidYMid meet">
<metadata>
Created by potrace 1.16, written by Peter Selinger 2001-2019
</metadata>
<g transform="translate(0.000000,38.000000) scale(0.100000,-0.100000)"
fill="#000000" stroke="none">
<path d="M143 302 c-46 -2 -63 -7 -63 -17 0 -8 3 -16 8 -18 4 -2 65 1 137 7
208 18 144 39 -82 28z"/>
<path d="M84 219 c-3 -6 0 -18 9 -26 12 -12 22 -13 53 -4 22 6 80 11 131 11
89 0 127 11 80 24 -40 11 -265 7 -273 -5z"/>
<path d="M94 136 c-9 -29 6 -34 81 -26 39 5 103 11 143 13 66 4 92 10 81 21
-2 3 -71 6 -152 8 -136 3 -148 2 -153 -16z"/>
</g>
</svg>
