<?xml version="1.0" standalone="no"?>
<!DOCTYPE svg PUBLIC "-//W3C//DTD SVG 20010904//EN"
 "http://www.w3.org/TR/2001/REC-SVG-20010904/DTD/svg10.dtd">
<svg version="1.0" xmlns="http://www.w3.org/2000/svg"
 width="112.000000pt" height="66.000000pt" viewBox="0 0 112.000000 66.000000"
 preserveAspectRatio="xMidYMid meet">
<metadata>
Created by potrace 1.16, written by Peter Selinger 2001-2019
</metadata>
<g transform="translate(0.000000,66.000000) scale(0.100000,-0.100000)"
fill="#000000" stroke="none">
<path d="M560 575 c-6 -8 -9 -23 -5 -34 8 -25 -8 -28 -225 -36 -91 -4 -176 -8
-189 -8 -29 -2 -40 -24 -16 -33 15 -6 193 5 368 23 l57 6 0 -76 c0 -69 -2 -75
-22 -80 -20 -5 -149 -12 -404 -21 -84 -3 -109 -10 -98 -28 5 -7 43 -9 118 -4
61 4 152 9 201 11 50 3 116 8 148 11 l57 5 1 -33 c3 -95 -4 -184 -17 -202 -19
-28 -1 -47 34 -36 15 5 64 14 110 19 114 14 119 18 127 93 10 95 4 152 -17
156 -13 3 -18 -3 -18 -22 0 -18 -6 -26 -17 -27 -10 0 -40 -1 -68 -2 -37 -2
-50 -6 -50 -17 0 -12 14 -15 70 -15 l70 0 3 -54 c2 -30 -1 -58 -6 -63 -5 -5
-50 -12 -101 -15 l-91 -6 0 116 0 115 103 1 c110 1 293 16 320 27 33 12 17 25
-25 19 -34 -4 -344 -25 -381 -25 -12 0 -6 148 7 153 6 2 52 5 101 6 50 1 131
6 180 11 50 5 102 10 117 10 l27 0 3 -92 c4 -119 22 -128 33 -16 13 138 14
133 -20 136 -16 2 -68 -1 -115 -7 -47 -6 -140 -14 -207 -17 l-123 -6 0 30 c0
33 -22 48 -40 27z"/>
<path d="M639 183 c-7 -7 -6 -13 0 -17 13 -8 120 4 126 15 8 12 -116 15 -126
2z"/>
</g>
</svg>
