<?xml version="1.0" standalone="no"?>
<!DOCTYPE svg PUBLIC "-//W3C//DTD SVG 20010904//EN"
 "http://www.w3.org/TR/2001/REC-SVG-20010904/DTD/svg10.dtd">
<svg version="1.0" xmlns="http://www.w3.org/2000/svg"
 width="120.000000pt" height="98.000000pt" viewBox="0 0 120.000000 98.000000"
 preserveAspectRatio="xMidYMid meet">
<metadata>
Created by potrace 1.16, written by Peter Selinger 2001-2019
</metadata>
<g transform="translate(0.000000,98.000000) scale(0.100000,-0.100000)"
fill="#000000" stroke="none">
<path d="M260 808 c1 -39 13 -41 136 -28 66 7 156 15 202 17 158 9 81 23 -128
23 -161 0 -210 -3 -210 -12z"/>
<path d="M612 178 c3 -22 7 -23 73 -20 39 2 86 7 105 12 19 5 63 10 97 12 35
2 63 6 63 11 0 4 -77 7 -171 7 l-170 0 3 -22z"/>
<path d="M274 178 c-8 -12 8 -38 25 -38 40 -1 262 35 231 37 -98 6 -252 7
-256 1z"/>
</g>
</svg>
