<?xml version="1.0" standalone="no"?>
<!DOCTYPE svg PUBLIC "-//W3C//DTD SVG 20010904//EN"
 "http://www.w3.org/TR/2001/REC-SVG-20010904/DTD/svg10.dtd">
<svg version="1.0" xmlns="http://www.w3.org/2000/svg"
 width="61.000000pt" height="37.000000pt" viewBox="0 0 61.000000 37.000000"
 preserveAspectRatio="xMidYMid meet">
<metadata>
Created by potrace 1.16, written by Peter Selinger 2001-2019
</metadata>
<g transform="translate(0.000000,37.000000) scale(0.100000,-0.100000)"
fill="#000000" stroke="none">
<path d="M117 304 c-4 -4 -7 -25 -7 -46 0 -22 -4 -48 -10 -58 -7 -14 -5 -24 9
-42 19 -23 23 -23 198 -24 190 0 273 4 273 15 0 3 -80 7 -178 8 -120 2 -190 7
-217 16 l-40 14 -1 59 c-1 54 -11 74 -27 58z"/>
</g>
</svg>
