<?xml version="1.0" standalone="no"?>
<!DOCTYPE svg PUBLIC "-//W3C//DTD SVG 20010904//EN"
 "http://www.w3.org/TR/2001/REC-SVG-20010904/DTD/svg10.dtd">
<svg version="1.0" xmlns="http://www.w3.org/2000/svg"
 width="48.000000pt" height="41.000000pt" viewBox="0 0 48.000000 41.000000"
 preserveAspectRatio="xMidYMid meet">
<metadata>
Created by potrace 1.16, written by Peter Selinger 2001-2019
</metadata>
<g transform="translate(0.000000,41.000000) scale(0.100000,-0.100000)"
fill="#000000" stroke="none">
<path d="M245 321 c-21 -8 -158 -71 -163 -76 -2 -2 1 -11 7 -22 5 -10 12 -25
15 -35 2 -9 19 -19 37 -23 17 -4 54 -18 82 -31 28 -12 54 -21 59 -18 4 3 8 28
8 56 l0 51 33 -5 c17 -3 38 -3 45 -1 23 8 1 23 -34 23 -33 0 -35 1 -32 36 1
22 -3 39 -12 44 -17 11 -17 11 -45 1z m-10 -69 c-11 -2 -24 -8 -29 -12 -14
-14 14 -41 34 -35 14 4 19 -1 22 -25 6 -39 -13 -40 -75 0 -26 17 -52 30 -57
30 -19 0 -10 21 13 30 12 5 40 22 62 38 l40 28 5 -25 c4 -21 1 -27 -15 -29z"/>
</g>
</svg>
