<?xml version="1.0" standalone="no"?>
<!DOCTYPE svg PUBLIC "-//W3C//DTD SVG 20010904//EN"
 "http://www.w3.org/TR/2001/REC-SVG-20010904/DTD/svg10.dtd">
<svg version="1.0" xmlns="http://www.w3.org/2000/svg"
 width="86.000000pt" height="42.000000pt" viewBox="0 0 86.000000 42.000000"
 preserveAspectRatio="xMidYMid meet">
<metadata>
Created by potrace 1.16, written by Peter Selinger 2001-2019
</metadata>
<g transform="translate(0.000000,42.000000) scale(0.100000,-0.100000)"
fill="#000000" stroke="none">
<path d="M337 258 l-78 -51 -49 48 c-32 31 -54 46 -64 42 -26 -10 -19 -25 21
-46 21 -10 46 -28 56 -38 17 -20 16 -21 -55 -53 -67 -30 -71 -33 -53 -46 25
-19 23 -19 84 26 l54 41 36 -35 c20 -18 50 -37 67 -41 35 -7 95 14 129 44 15
14 49 22 141 31 66 6 134 10 150 8 16 -1 30 2 32 7 4 16 -271 37 -295 22 -7
-4 -29 13 -55 42 l-43 49 -78 -50z m103 -32 l51 -34 -44 -22 c-36 -18 -54 -21
-90 -16 -47 7 -74 27 -62 46 7 11 76 58 87 59 3 1 29 -14 58 -33z"/>
</g>
</svg>
