<?xml version="1.0" standalone="no"?>
<!DOCTYPE svg PUBLIC "-//W3C//DTD SVG 20010904//EN"
 "http://www.w3.org/TR/2001/REC-SVG-20010904/DTD/svg10.dtd">
<svg version="1.0" xmlns="http://www.w3.org/2000/svg"
 width="129.000000pt" height="50.000000pt" viewBox="0 0 129.000000 50.000000"
 preserveAspectRatio="xMidYMid meet">
<metadata>
Created by potrace 1.16, written by Peter Selinger 2001-2019
</metadata>
<g transform="translate(0.000000,50.000000) scale(0.100000,-0.100000)"
fill="#000000" stroke="none">
<path d="M1065 363 c-66 -8 -156 -17 -200 -21 -77 -7 -80 -8 -80 -32 0 -19 5
-24 20 -22 18 2 20 -3 20 -64 0 -45 4 -69 13 -71 7 -3 12 5 12 19 0 21 4 24
35 20 21 -3 35 -10 35 -18 0 -8 5 -14 10 -14 6 0 10 8 10 19 0 22 31 36 114
51 33 5 62 13 65 16 6 7 -68 0 -143 -13 -30 -5 -38 -3 -34 7 5 16 61 38 98 39
14 1 32 6 40 12 11 7 -4 8 -54 4 -52 -5 -71 -4 -77 6 -6 11 -13 9 -29 -9 -11
-12 -27 -22 -35 -22 -8 0 -15 -4 -15 -10 0 -5 9 -10 19 -10 18 0 38 -17 30
-24 -2 -2 -19 -6 -37 -9 l-32 -7 4 46 c2 25 6 48 9 50 5 5 99 21 176 28 29 3
69 8 87 12 39 7 36 19 40 -131 1 -60 6 -111 12 -113 5 -1 13 37 17 85 12 123
12 186 0 188 -5 1 -64 -4 -130 -12z"/>
<path d="M258 298 c-21 -11 -71 -24 -110 -30 -83 -12 -97 -20 -78 -43 16 -19
23 -18 152 28 93 33 98 34 150 22 99 -24 220 -84 257 -129 8 -10 33 -27 55
-38 38 -19 47 -20 126 -10 47 6 130 16 185 23 114 13 147 21 152 36 3 7 -10 8
-39 2 -24 -4 -113 -13 -199 -19 -138 -10 -161 -10 -195 5 -21 9 -46 23 -55 31
-10 9 -23 16 -31 18 -7 1 -20 6 -28 11 -30 20 -57 35 -134 74 -91 47 -145 52
-208 19z"/>
</g>
</svg>
