<?xml version="1.0" standalone="no"?>
<!DOCTYPE svg PUBLIC "-//W3C//DTD SVG 20010904//EN"
 "http://www.w3.org/TR/2001/REC-SVG-20010904/DTD/svg10.dtd">
<svg version="1.0" xmlns="http://www.w3.org/2000/svg"
 width="129.000000pt" height="54.000000pt" viewBox="0 0 129.000000 54.000000"
 preserveAspectRatio="xMidYMid meet">
<metadata>
Created by potrace 1.16, written by Peter Selinger 2001-2019
</metadata>
<g transform="translate(0.000000,54.000000) scale(0.100000,-0.100000)"
fill="#000000" stroke="none">
<path d="M703 435 c-20 -8 -33 -21 -33 -32 0 -14 -46 -54 -81 -71 -3 -1 -34
18 -67 43 -68 49 -77 52 -86 30 -4 -11 13 -23 62 -46 82 -38 81 -37 58 -55
-27 -19 -29 -18 -50 16 -9 17 -22 28 -27 24 -5 -3 0 -17 11 -31 21 -27 26 -43
12 -43 -12 0 -42 56 -42 78 0 16 -9 20 -59 26 -78 9 -310 6 -316 -4 -8 -13 7
-170 16 -170 5 0 9 10 9 23 0 20 4 22 40 19 32 -3 43 -10 61 -38 11 -19 25
-34 30 -34 11 0 -6 35 -21 45 -15 9 -12 25 5 25 8 0 15 -4 15 -10 0 -5 5 -10
11 -10 5 0 7 4 4 10 -4 6 9 10 31 10 30 0 43 -7 65 -32 16 -18 28 -28 29 -22
0 6 -7 17 -15 24 -25 21 -17 30 25 30 30 0 40 -4 40 -16 0 -10 6 -14 14 -11 7
3 18 1 24 -5 8 -8 13 -7 18 5 10 26 18 21 44 -25 13 -23 25 -37 27 -31 2 6 -5
26 -16 44 -23 38 -26 49 -11 49 5 0 16 -16 25 -35 17 -34 45 -65 45 -49 0 5
-11 26 -25 46 -14 20 -25 43 -25 51 0 13 79 81 142 121 l27 18 61 -92 c33 -51
60 -96 60 -102 0 -17 -33 -4 -163 66 -74 39 -77 40 -77 28 0 -4 15 -16 33 -27
17 -10 45 -29 61 -42 38 -32 91 -53 132 -53 27 0 38 -6 53 -30 10 -16 20 -27
24 -24 3 4 -1 17 -10 30 -14 23 -14 24 5 24 11 0 30 -12 41 -27 13 -19 20 -23
21 -12 0 8 -5 20 -12 27 -8 8 -5 13 13 21 13 5 43 17 67 26 l43 17 59 -41 c33
-23 60 -39 60 -36 0 4 -17 27 -37 52 -34 41 -36 46 -20 58 9 7 17 17 17 23 0
5 -35 -8 -77 -29 -43 -22 -94 -42 -113 -45 -34 -6 -37 -4 -68 46 -18 28 -32
54 -32 57 0 11 -52 74 -57 69 -3 -3 4 -17 15 -33 21 -29 82 -140 82 -148 0 -3
-9 -5 -20 -5 -11 0 -20 4 -20 8 0 5 -27 51 -61 103 l-60 94 51 3 c46 3 149
-27 338 -96 6 -2 12 0 12 6 0 5 -28 18 -63 30 -35 11 -111 39 -170 61 -114 44
-153 49 -204 26z m-553 -85 c0 -5 -8 -10 -17 -10 -15 0 -16 2 -3 10 19 12 20
12 20 0z m271 -7 c9 -9 3 -11 -22 -9 -19 2 -47 4 -64 5 -45 2 -13 18 35 17 21
-1 44 -6 51 -13z m-175 -1 c-5 -8 -76 -4 -76 4 0 2 18 4 41 4 22 0 38 -4 35
-8z m41 2 c-3 -3 -12 -4 -19 -1 -8 3 -5 6 6 6 11 1 17 -2 13 -5z m-160 -36
c-2 -7 5 -18 17 -25 20 -12 20 -12 -6 -13 -21 0 -28 5 -28 18 0 18 8 32 18 32
2 0 2 -6 -1 -12z m48 2 c3 -6 -1 -7 -9 -4 -18 7 -21 14 -7 14 6 0 13 -4 16
-10z m100 0 c4 -6 -10 -10 -34 -10 -22 0 -43 5 -46 10 -4 6 10 10 34 10 22 0
43 -4 46 -10z m40 0 c3 -5 1 -10 -4 -10 -6 0 -11 5 -11 10 0 6 2 10 4 10 3 0
8 -4 11 -10z m113 -22 c-3 -29 -6 -33 -28 -30 -33 5 -51 22 -22 22 12 0 22 5
22 10 0 6 -13 10 -30 10 -16 0 -30 5 -30 10 0 6 21 10 46 10 45 0 45 0 42 -32z
m-122 -19 c6 -11 -47 -12 -73 -2 -16 6 -15 8 7 13 28 7 58 2 66 -11z m168 5
c7 -18 0 -34 -15 -34 -5 0 -9 11 -9 25 0 28 15 34 24 9z m-277 0 c-3 -3 -12
-4 -19 -1 -8 3 -5 6 6 6 11 1 17 -2 13 -5z m148 -4 c3 -5 2 -10 -4 -10 -5 0
-13 5 -16 10 -3 6 -2 10 4 10 5 0 13 -4 16 -10z"/>
<path d="M1175 298 c-7 -18 41 -152 56 -157 9 -3 10 6 5 30 -3 19 -9 52 -13
74 -6 41 -19 65 -35 65 -5 0 -11 -6 -13 -12z"/>
</g>
</svg>
