<?xml version="1.0" standalone="no"?>
<!DOCTYPE svg PUBLIC "-//W3C//DTD SVG 20010904//EN"
 "http://www.w3.org/TR/2001/REC-SVG-20010904/DTD/svg10.dtd">
<svg version="1.0" xmlns="http://www.w3.org/2000/svg"
 width="76.000000pt" height="46.000000pt" viewBox="0 0 76.000000 46.000000"
 preserveAspectRatio="xMidYMid meet">
<metadata>
Created by potrace 1.16, written by Peter Selinger 2001-2019
</metadata>
<g transform="translate(0.000000,46.000000) scale(0.100000,-0.100000)"
fill="#000000" stroke="none">
<path d="M530 344 c-124 -84 -123 -84 -279 -84 -77 0 -142 -4 -145 -9 -4 -5
-3 -16 0 -25 7 -18 58 -21 114 -7 19 5 71 12 115 16 73 7 78 6 66 -9 -22 -27
-21 -28 187 -112 75 -31 94 -26 25 6 -82 39 -163 94 -163 112 0 9 36 45 80 80
73 57 93 79 73 77 -5 0 -37 -20 -73 -45z"/>
</g>
</svg>
