<?xml version="1.0" standalone="no"?>
<!DOCTYPE svg PUBLIC "-//W3C//DTD SVG 20010904//EN"
 "http://www.w3.org/TR/2001/REC-SVG-20010904/DTD/svg10.dtd">
<svg version="1.0" xmlns="http://www.w3.org/2000/svg"
 width="110.000000pt" height="41.000000pt" viewBox="0 0 110.000000 41.000000"
 preserveAspectRatio="xMidYMid meet">
<metadata>
Created by potrace 1.16, written by Peter Selinger 2001-2019
</metadata>
<g transform="translate(0.000000,41.000000) scale(0.100000,-0.100000)"
fill="#000000" stroke="none">
<path d="M755 310 c-38 -5 -195 -11 -347 -15 -153 -5 -278 -11 -278 -15 0 -15
27 -39 50 -43 24 -4 23 -4 -4 -6 -23 -1 -27 -4 -21 -18 4 -10 9 -27 10 -38 2
-17 9 -20 53 -20 29 1 52 -2 52 -5 0 -4 -29 -17 -65 -29 -48 -17 -65 -28 -63
-40 6 -28 35 -23 92 14 52 35 76 39 76 11 0 -23 36 -46 70 -46 19 0 69 17 115
39 67 33 96 41 180 50 55 6 114 13 130 16 28 6 33 2 69 -54 22 -33 41 -59 44
-57 6 7 -40 129 -54 145 -9 10 -17 11 -26 4 -16 -13 -72 -21 -208 -29 -115 -7
-126 -10 -111 -28 8 -10 -3 -17 -49 -31 -58 -17 -61 -17 -100 0 -58 26 -51 43
20 51 70 8 79 21 18 27 l-43 4 48 1 c48 2 59 21 14 23 -12 0 -16 3 -9 6 30 12
-2 18 -65 13 -37 -3 -84 -3 -103 0 -25 5 -2 9 75 14 289 18 554 37 594 43 l44
6 -7 -54 c-3 -30 -10 -81 -15 -114 -9 -61 -5 -89 9 -64 17 30 70 202 70 225 0
24 0 24 -97 23 -54 -1 -129 -5 -168 -9z m-468 -126 c-3 -3 -12 -4 -19 -1 -8 3
-5 6 6 6 11 1 17 -2 13 -5z"/>
</g>
</svg>
