<?xml version="1.0" standalone="no"?>
<!DOCTYPE svg PUBLIC "-//W3C//DTD SVG 20010904//EN"
 "http://www.w3.org/TR/2001/REC-SVG-20010904/DTD/svg10.dtd">
<svg version="1.0" xmlns="http://www.w3.org/2000/svg"
 width="97.000000pt" height="50.000000pt" viewBox="0 0 97.000000 50.000000"
 preserveAspectRatio="xMidYMid meet">
<metadata>
Created by potrace 1.16, written by Peter Selinger 2001-2019
</metadata>
<g transform="translate(0.000000,50.000000) scale(0.100000,-0.100000)"
fill="#000000" stroke="none">
<path d="M252 398 c-7 -7 -12 -40 -12 -80 0 -61 -2 -68 -19 -68 -11 0 -23 5
-26 10 -8 13 -112 13 -120 0 -4 -6 -1 -18 6 -27 11 -13 27 -14 87 -9 l73 6 -2
-68 c-2 -37 0 -73 4 -80 12 -18 38 -14 73 11 17 12 63 44 103 70 l73 49 81 -7
c119 -9 227 -26 227 -36 0 -5 -4 -9 -8 -9 -5 0 -17 -6 -27 -14 -16 -12 -17
-16 -6 -30 12 -14 21 -8 78 54 36 39 71 70 79 70 8 0 14 9 14 21 0 15 -4 19
-16 15 -11 -4 -33 12 -69 48 -47 47 -56 52 -71 41 -16 -11 -14 -15 19 -36 44
-29 46 -38 10 -37 -44 1 -277 -13 -291 -18 -15 -4 -96 38 -186 97 -68 45 -59
42 -74 27z m88 -68 c30 -16 40 -26 40 -45 0 -16 -6 -25 -15 -25 -9 0 -15 9
-15 25 0 14 -4 25 -10 25 -5 0 -10 -14 -10 -31 0 -17 -4 -28 -10 -24 -5 3 -10
21 -10 40 0 19 -4 37 -10 40 -6 4 -10 -12 -10 -39 0 -35 -4 -46 -16 -46 -13 0
-15 7 -9 43 11 67 14 68 75 37z m100 -56 c0 -2 -7 -4 -15 -4 -8 0 -15 4 -15
10 0 5 7 7 15 4 8 -4 15 -8 15 -10z m450 -13 c0 -12 -31 -51 -49 -60 -10 -6
-43 -6 -86 0 -39 6 -105 14 -149 18 -47 5 -81 14 -87 22 -4 7 -6 15 -4 18 6 6
335 17 358 12 9 -2 17 -6 17 -10z m-400 -21 c0 -13 -50 -13 -70 0 -11 7 -4 10
28 10 23 0 42 -4 42 -10z m-200 -51 c0 -24 4 -38 10 -34 6 3 10 19 10 36 0 16
5 29 10 29 6 0 10 -16 10 -35 0 -29 -5 -37 -26 -45 -14 -6 -30 -10 -35 -10
-10 0 -13 83 -2 93 15 16 23 4 23 -34z m90 7 c0 -13 -7 -26 -15 -30 -11 -4
-15 2 -15 24 0 20 5 30 15 30 9 0 15 -9 15 -24z m56 9 c-25 -19 -36 -19 -36 0
0 10 10 15 28 15 26 -1 26 -1 8 -15z"/>
</g>
</svg>
