<?xml version="1.0" standalone="no"?>
<!DOCTYPE svg PUBLIC "-//W3C//DTD SVG 20010904//EN"
 "http://www.w3.org/TR/2001/REC-SVG-20010904/DTD/svg10.dtd">
<svg version="1.0" xmlns="http://www.w3.org/2000/svg"
 width="88.000000pt" height="97.000000pt" viewBox="0 0 88.000000 97.000000"
 preserveAspectRatio="xMidYMid meet">
<metadata>
Created by potrace 1.16, written by Peter Selinger 2001-2019
</metadata>
<g transform="translate(0.000000,97.000000) scale(0.100000,-0.100000)"
fill="#000000" stroke="none">
<path d="M603 845 c-7 -12 -45 -15 -213 -17 l-205 -3 4 -110 c2 -60 7 -114 12
-120 6 -5 9 -2 9 8 0 15 13 17 100 17 l100 0 0 -25 c0 -14 5 -25 10 -25 6 0
10 11 10 24 0 23 3 23 83 24 45 1 76 -2 69 -5 -10 -4 -10 -8 -1 -19 19 -23 40
-16 84 29 23 23 59 57 79 75 34 32 45 52 28 52 -4 0 -14 -6 -21 -12 -10 -11
-18 -6 -41 22 -16 19 -37 50 -47 68 -19 34 -46 42 -60 17z m65 -75 c29 -27 52
-53 52 -57 0 -13 -109 -85 -119 -79 -4 3 -45 6 -90 7 -58 1 -81 5 -81 14 0 18
31 24 143 26 53 1 97 5 97 10 0 5 -52 9 -115 9 -96 0 -115 3 -115 15 0 15 41
19 170 16 25 -1 52 3 60 9 14 9 -103 15 -197 10 -29 -1 -33 1 -33 24 0 14 1
26 3 27 1 0 36 3 77 6 41 3 77 7 79 9 9 9 18 2 69 -46z m-270 8 c-3 -21 -9
-23 -85 -26 -83 -3 -83 -2 -83 23 0 25 1 25 86 25 83 0 85 -1 82 -22z m2 -63
c0 -12 -17 -15 -90 -15 -75 0 -88 2 -84 15 5 12 25 15 90 15 68 0 84 -3 84
-15z m10 -55 c0 -20 -5 -21 -92 -18 -79 3 -93 6 -96 21 -3 15 6 17 92 17 90 0
96 -1 96 -20z"/>
<path d="M556 411 c-3 -5 8 -26 24 -46 17 -21 30 -39 30 -41 0 -2 -40 -4 -90
-4 -49 0 -90 4 -90 9 0 6 32 13 70 17 130 13 71 24 -125 24 -107 0 -198 -1
-202 -2 -10 -4 -3 -179 7 -198 7 -13 10 -12 17 5 7 18 18 20 106 22 90 1 97 0
97 -18 0 -25 20 -25 27 0 4 16 14 19 69 19 67 0 75 -7 51 -43 -39 -57 -47 -74
-39 -79 5 -3 22 13 38 37 16 23 51 70 78 105 55 71 55 66 -10 155 -34 46 -48
55 -58 38z m-281 -81 c-3 -5 -20 -10 -36 -10 -18 0 -28 4 -24 10 3 6 20 10 36
10 18 0 28 -4 24 -10z m55 6 c0 -11 -19 -15 -25 -6 -3 5 1 10 9 10 9 0 16 -2
16 -4z m70 -6 c0 -5 -11 -10 -25 -10 -14 0 -25 5 -25 10 0 6 11 10 25 10 14 0
25 -4 25 -10z m-130 -30 c0 -5 -16 -10 -36 -10 -21 0 -33 4 -29 10 3 6 19 10
36 10 16 0 29 -4 29 -10z m257 -4 c3 -3 -18 -6 -48 -5 -37 0 -48 3 -34 8 22 9
72 7 82 -3z m93 4 c0 -5 -15 -10 -32 -10 -25 0 -29 3 -18 10 20 13 50 13 50 0z
m-293 -6 c-3 -3 -12 -4 -19 -1 -8 3 -5 6 6 6 11 1 17 -2 13 -5z m56 -1 c-7 -2
-19 -2 -25 0 -7 3 -2 5 12 5 14 0 19 -2 13 -5z m-105 -28 c3 -3 -15 -5 -39 -4
-32 0 -39 3 -24 8 20 8 53 6 63 -4z m122 3 c0 -5 -11 -8 -25 -8 -14 0 -25 4
-25 9 0 5 11 8 25 7 14 0 25 -4 25 -8z m210 1 c0 -5 -42 -8 -92 -7 l-93 2 70
5 c106 9 115 9 115 0z m-283 -5 c-3 -3 -12 -4 -19 -1 -8 3 -5 6 6 6 11 1 17
-2 13 -5z m-47 -34 c0 -5 -15 -10 -34 -10 -19 0 -38 5 -41 10 -4 6 10 10 34
10 23 0 41 -4 41 -10z m50 -2 c0 -4 -7 -8 -15 -8 -8 0 -15 4 -15 8 0 5 7 9 15
9 8 0 15 -4 15 -9z m70 2 c0 -5 -11 -10 -25 -10 -14 0 -25 5 -25 10 0 6 11 10
25 10 14 0 25 -4 25 -10z m190 0 c0 -6 -32 -10 -82 -9 -94 0 -80 14 18 17 39
2 64 -1 64 -8z"/>
</g>
</svg>
