<?xml version="1.0" standalone="no"?>
<!DOCTYPE svg PUBLIC "-//W3C//DTD SVG 20010904//EN"
 "http://www.w3.org/TR/2001/REC-SVG-20010904/DTD/svg10.dtd">
<svg version="1.0" xmlns="http://www.w3.org/2000/svg"
 width="104.000000pt" height="59.000000pt" viewBox="0 0 104.000000 59.000000"
 preserveAspectRatio="xMidYMid meet">
<metadata>
Created by potrace 1.16, written by Peter Selinger 2001-2019
</metadata>
<g transform="translate(0.000000,59.000000) scale(0.100000,-0.100000)"
fill="#000000" stroke="none">
<path d="M460 446 c-6 -6 -10 -23 -10 -40 0 -16 -8 -38 -17 -49 -17 -19 -17
-20 0 -14 12 5 17 1 17 -13 0 -16 -7 -20 -33 -20 -19 0 -37 3 -41 7 -4 4 -40
8 -79 9 -116 2 -117 2 -117 25 0 15 4 19 16 15 9 -3 25 1 37 9 15 11 17 15 6
15 -8 0 -20 -5 -26 -11 -8 -8 -13 -5 -18 10 -7 23 -40 45 -54 36 -5 -3 -8 -34
-6 -70 3 -41 0 -65 -7 -65 -5 0 -7 7 -4 16 3 8 2 12 -4 9 -14 -9 -52 4 -45 16
3 5 -1 6 -9 3 -9 -3 -16 -10 -16 -14 0 -5 -9 -11 -19 -15 -18 -5 -36 -33 -28
-42 2 -2 15 6 30 17 14 11 27 20 29 20 11 0 0 -62 -12 -70 -8 -5 -10 -10 -5
-10 6 0 2 -5 -7 -11 -10 -5 -18 -14 -18 -20 0 -5 11 -2 24 8 13 10 22 21 19
26 -2 4 0 7 6 7 5 0 15 -16 21 -36 13 -39 30 -30 22 11 -2 14 2 31 12 40 14
15 16 15 16 1 0 -9 -6 -16 -12 -16 -10 0 -10 -2 0 -9 8 -4 13 -14 12 -22 -1
-8 -2 -27 -1 -42 1 -23 4 -26 17 -19 13 7 17 26 18 78 l1 68 32 7 c45 9 62 -6
22 -20 -18 -6 -30 -14 -27 -17 4 -3 24 4 47 15 52 27 70 27 46 1 -10 -11 -16
-22 -14 -24 8 -9 70 24 64 34 -4 6 14 10 47 10 l54 0 2 -40 c2 -27 -1 -40 -10
-40 -10 0 -10 -2 -1 -8 6 -4 16 -20 22 -35 9 -23 15 -27 38 -23 16 2 47 7 71
11 23 4 42 11 42 16 0 5 -3 9 -7 9 -5 0 -6 25 -5 56 l4 56 61 -6 c34 -4 80
-11 102 -16 22 -5 53 -12 68 -15 23 -5 27 -8 17 -20 -13 -16 -6 -35 14 -35 15
0 79 78 83 99 1 9 -14 46 -33 82 -27 52 -40 66 -52 62 -30 -11 -33 -15 -21
-29 8 -10 9 -18 2 -25 -10 -10 -128 -48 -209 -68 l-31 -8 -2 49 c-2 38 2 53
16 63 15 11 16 14 3 19 -30 10 -150 12 -160 2z m104 -48 c11 -44 8 -48 -39
-48 -45 0 -45 0 -45 35 0 34 1 35 39 35 32 0 40 -4 45 -22z m342 -60 l27 -42
-23 -18 c-12 -10 -27 -15 -34 -11 -6 4 -51 15 -101 23 l-89 16 79 28 c44 16
84 33 90 37 16 15 24 10 51 -33z m-376 -18 c0 -7 6 -7 19 0 18 9 20 5 23 -65
l3 -75 -52 0 c-50 0 -53 2 -53 25 0 14 5 25 10 25 6 0 9 3 9 8 -3 18 2 26 10
14 6 -10 13 -11 34 -1 30 14 27 29 -6 29 -18 0 -19 2 -7 10 12 8 9 10 -12 10
-18 0 -28 5 -28 15 0 9 9 15 25 15 14 0 25 -5 25 -10z m-400 -50 c-8 -5 -19
-10 -25 -10 -5 0 -3 5 5 10 8 5 20 10 25 10 6 0 3 -5 -5 -10z"/>
<path d="M370 361 c0 -5 5 -13 10 -16 6 -3 10 -2 10 4 0 5 -4 13 -10 16 -5 3
-10 2 -10 -4z"/>
<path d="M10 245 c-19 -23 -8 -26 20 -5 19 15 21 20 9 20 -9 0 -22 -7 -29 -15z"/>
<path d="M345 251 c-3 -5 -2 -12 3 -15 5 -3 9 1 9 9 0 17 -3 19 -12 6z"/>
<path d="M250 239 c0 -5 5 -7 10 -4 6 3 10 8 10 11 0 2 -4 4 -10 4 -5 0 -10
-5 -10 -11z"/>
<path d="M385 240 c3 -5 8 -10 11 -10 2 0 4 5 4 10 0 6 -5 10 -11 10 -5 0 -7
-4 -4 -10z"/>
<path d="M404 218 c-36 -27 -54 -44 -36 -34 7 4 21 2 30 -5 14 -11 15 -11 5 0
-9 11 -6 18 15 37 34 29 24 31 -14 2z"/>
<path d="M280 220 c0 -13 11 -13 30 0 12 8 11 10 -7 10 -13 0 -23 -4 -23 -10z"/>
<path d="M334 206 c-10 -8 -17 -17 -14 -19 3 -3 16 3 30 13 29 22 14 27 -16 6z"/>
<path d="M70 159 c0 -5 5 -7 10 -4 6 3 10 8 10 11 0 2 -4 4 -10 4 -5 0 -10 -5
-10 -11z"/>
<path d="M370 160 c-9 -6 -10 -10 -3 -10 6 0 15 5 18 10 8 12 4 12 -15 0z"/>
</g>
</svg>
