<?xml version="1.0" standalone="no"?>
<!DOCTYPE svg PUBLIC "-//W3C//DTD SVG 20010904//EN"
 "http://www.w3.org/TR/2001/REC-SVG-20010904/DTD/svg10.dtd">
<svg version="1.0" xmlns="http://www.w3.org/2000/svg"
 width="90.000000pt" height="73.000000pt" viewBox="0 0 90.000000 73.000000"
 preserveAspectRatio="xMidYMid meet">
<metadata>
Created by potrace 1.16, written by Peter Selinger 2001-2019
</metadata>
<g transform="translate(0.000000,73.000000) scale(0.100000,-0.100000)"
fill="#000000" stroke="none">
<path d="M285 640 c-5 -9 8 -109 21 -151 4 -13 -7 -17 -55 -22 -33 -4 -67 -4
-76 -1 -26 10 -17 43 25 88 56 60 33 73 -25 15 -24 -24 -53 -52 -64 -61 -27
-23 -27 -42 0 -69 18 -18 29 -20 68 -15 25 4 67 10 92 13 l46 5 7 -56 c4 -31
11 -56 16 -56 5 0 10 26 12 58 l3 57 57 11 c31 6 65 14 74 18 13 5 15 2 9 -11
-4 -10 -11 -34 -15 -53 -4 -19 -13 -54 -20 -78 l-14 -44 -55 2 c-74 3 -76 3
-61 -15 8 -10 30 -15 65 -15 47 0 56 -4 95 -40 45 -41 99 -74 108 -65 3 3 -14
23 -38 45 -37 34 -41 42 -30 55 11 14 10 17 -8 22 -30 7 -37 53 -17 114 9 27
15 59 12 69 -4 15 4 21 47 30 28 7 59 14 69 17 15 4 18 0 15 -24 -3 -27 -5
-28 -55 -26 -47 2 -53 0 -53 -18 0 -18 4 -20 30 -14 37 8 70 -2 70 -21 0 -16
-19 -17 -72 -5 -27 6 -38 5 -42 -4 -6 -17 15 -25 71 -25 31 0 43 -4 40 -12 -3
-9 -24 -12 -71 -10 -66 3 -84 -7 -48 -27 9 -6 11 -11 5 -11 -7 0 -13 -4 -13
-10 0 -5 26 -10 58 -12 64 -3 64 -3 47 -95 -5 -28 -4 -43 3 -43 5 0 15 30 21
68 25 144 33 188 38 202 8 24 9 71 1 77 -12 6 -10 23 2 23 6 0 27 7 47 15 58
24 30 29 -39 6 -64 -21 -188 -45 -290 -57 l-58 -6 0 60 c0 33 -4 72 -10 86
-10 26 -34 35 -45 16z m343 -321 c-2 -6 -7 -10 -11 -10 -4 1 -24 1 -44 2 -31
0 -34 2 -18 9 29 12 77 12 73 -1z"/>
</g>
</svg>
