<?xml version="1.0" standalone="no"?>
<!DOCTYPE svg PUBLIC "-//W3C//DTD SVG 20010904//EN"
 "http://www.w3.org/TR/2001/REC-SVG-20010904/DTD/svg10.dtd">
<svg version="1.0" xmlns="http://www.w3.org/2000/svg"
 width="61.000000pt" height="42.000000pt" viewBox="0 0 61.000000 42.000000"
 preserveAspectRatio="xMidYMid meet">
<metadata>
Created by potrace 1.16, written by Peter Selinger 2001-2019
</metadata>
<g transform="translate(0.000000,42.000000) scale(0.100000,-0.100000)"
fill="#000000" stroke="none">
<path d="M162 347 c-6 -7 -15 -25 -21 -40 -10 -26 -9 -28 54 -57 35 -16 66
-34 70 -40 3 -5 -26 -25 -64 -44 -60 -31 -69 -38 -64 -58 11 -50 10 -49 50
-32 58 25 231 93 296 116 31 11 57 23 57 26 0 4 -35 18 -76 31 -42 13 -97 34
-123 47 -46 23 -151 64 -162 64 -4 0 -11 -6 -17 -13z m164 -82 c64 -25 126
-45 137 -46 21 0 21 -1 2 -9 -26 -12 -203 -76 -235 -85 l-25 -7 25 26 c13 15
39 36 57 47 33 21 36 39 6 39 -8 0 -27 9 -41 20 -15 12 -38 30 -52 40 -42 32
-2 24 126 -25z"/>
</g>
</svg>
