<?xml version="1.0" standalone="no"?>
<!DOCTYPE svg PUBLIC "-//W3C//DTD SVG 20010904//EN"
 "http://www.w3.org/TR/2001/REC-SVG-20010904/DTD/svg10.dtd">
<svg version="1.0" xmlns="http://www.w3.org/2000/svg"
 width="54.000000pt" height="54.000000pt" viewBox="0 0 54.000000 54.000000"
 preserveAspectRatio="xMidYMid meet">
<metadata>
Created by potrace 1.16, written by Peter Selinger 2001-2019
</metadata>
<g transform="translate(0.000000,54.000000) scale(0.100000,-0.100000)"
fill="#000000" stroke="none">
<path d="M107 443 c-15 -24 12 -30 121 -25 61 2 112 8 112 13 0 5 -17 9 -38 9
-22 0 -73 3 -114 6 -43 4 -78 3 -81 -3z"/>
<path d="M354 343 c4 -49 9 -121 12 -161 6 -62 4 -72 -10 -72 -9 0 -22 12 -28
28 -7 15 -21 37 -32 49 l-19 23 22 0 c12 0 20 4 17 9 -3 5 -14 7 -24 4 -10 -2
-24 3 -31 11 -12 14 -8 16 33 16 25 0 46 5 46 10 0 6 -18 10 -41 10 -28 0 -39
4 -36 13 2 6 16 12 30 12 15 -1 27 3 27 7 0 4 -8 8 -17 8 -13 0 -10 7 12 30
27 28 28 31 13 47 -16 15 -18 14 -29 -10 -10 -22 -19 -27 -51 -27 -21 0 -38
-4 -38 -10 0 -5 11 -10 25 -10 14 0 25 -4 25 -10 0 -18 -60 -11 -67 8 -10 27
-43 72 -54 72 -17 0 -9 -40 11 -57 27 -24 25 -33 -7 -34 -23 -1 -20 -3 14 -12
60 -14 61 -31 2 -34 l-48 -3 -3 77 c-2 48 -7 78 -15 80 -9 3 -13 -35 -15 -148
-3 -139 -1 -155 16 -177 20 -25 21 -25 144 -19 117 6 124 5 129 -14 7 -25 23
-25 23 1 0 10 8 23 18 29 16 9 16 10 -1 17 -15 6 -17 16 -12 83 10 142 13 215
8 228 -3 7 -16 13 -30 13 l-25 0 6 -87z m-146 -105 c-3 -7 -21 -14 -41 -16
-38 -3 -52 -22 -17 -22 11 0 20 -5 20 -11 0 -6 -9 -13 -20 -16 -11 -3 -20 -12
-20 -19 0 -8 -6 -14 -12 -14 -9 0 -12 16 -10 55 l4 55 50 0 c35 0 48 -4 46
-12z m32 -8 c0 -5 -4 -10 -10 -10 -5 0 -10 5 -10 10 0 6 5 10 10 10 6 0 10 -4
10 -10z m30 -40 c10 -19 8 -20 -39 -20 -40 0 -49 3 -45 14 3 8 20 17 37 19 18
2 33 5 34 5 1 1 7 -7 13 -18z m39 -59 c9 -15 7 -20 -12 -25 -37 -10 -145 -7
-152 4 -15 25 17 40 86 40 57 0 70 -3 78 -19z"/>
<path d="M195 381 c-6 -11 4 -18 23 -15 6 1 26 2 42 3 17 0 30 6 30 11 0 13
-87 13 -95 1z"/>
</g>
</svg>
