<?xml version="1.0" standalone="no"?>
<!DOCTYPE svg PUBLIC "-//W3C//DTD SVG 20010904//EN"
 "http://www.w3.org/TR/2001/REC-SVG-20010904/DTD/svg10.dtd">
<svg version="1.0" xmlns="http://www.w3.org/2000/svg"
 width="70.000000pt" height="45.000000pt" viewBox="0 0 70.000000 45.000000"
 preserveAspectRatio="xMidYMid meet">
<metadata>
Created by potrace 1.16, written by Peter Selinger 2001-2019
</metadata>
<g transform="translate(0.000000,45.000000) scale(0.100000,-0.100000)"
fill="#000000" stroke="none">
<path d="M327 383 c-4 -3 -7 -24 -7 -45 0 -37 -1 -38 -37 -39 -169 -4 -157 -2
-156 -26 0 -13 1 -49 2 -80 l1 -58 24 28 c19 22 35 28 85 33 88 10 86 24 -3
24 -74 0 -76 1 -76 25 0 17 6 25 18 25 9 0 46 3 81 5 l64 4 -6 -54 c-6 -64 12
-97 66 -114 38 -13 149 -16 190 -6 24 6 27 12 28 54 0 25 2 55 4 65 6 31 9
146 4 150 -8 8 -275 16 -282 9z m53 -53 c0 -20 -5 -30 -15 -30 -15 0 -21 40
-8 53 14 15 23 6 23 -23z m93 -85 c-1 -66 2 -115 8 -115 9 0 13 80 9 183 l-1
47 39 0 c38 0 40 -2 46 -35 4 -20 6 -74 5 -120 -2 -78 -3 -85 -22 -85 -19 0
-19 4 -13 103 4 62 2 108 -4 117 -11 17 -12 8 -13 -132 l-1 -88 -39 0 -40 0 6
98 c3 53 2 106 -3 117 l-9 20 -1 -20 c-2 -11 -2 -23 -1 -27 0 -5 -8 -8 -19 -8
-16 0 -20 7 -20 30 0 28 2 30 38 30 l37 0 -2 -115z m-93 0 c0 -24 -5 -35 -15
-35 -10 0 -15 11 -15 35 0 24 5 35 15 35 10 0 15 -11 15 -35z m56 13 c-3 -13
-6 -47 -6 -75 0 -40 -4 -53 -15 -53 -12 0 -15 15 -15 75 0 70 1 75 21 75 17 0
20 -4 15 -22z m-56 -84 c0 -8 -4 -12 -10 -9 -5 3 -10 10 -10 16 0 5 5 9 10 9
6 0 10 -7 10 -16z"/>
</g>
</svg>
