<?xml version="1.0" standalone="no"?>
<!DOCTYPE svg PUBLIC "-//W3C//DTD SVG 20010904//EN"
 "http://www.w3.org/TR/2001/REC-SVG-20010904/DTD/svg10.dtd">
<svg version="1.0" xmlns="http://www.w3.org/2000/svg"
 width="57.000000pt" height="54.000000pt" viewBox="0 0 57.000000 54.000000"
 preserveAspectRatio="xMidYMid meet">
<metadata>
Created by potrace 1.16, written by Peter Selinger 2001-2019
</metadata>
<g transform="translate(0.000000,54.000000) scale(0.100000,-0.100000)"
fill="#000000" stroke="none">
<path d="M374 390 l-99 -121 -40 5 c-71 10 -108 18 -131 26 -14 6 -26 5 -29
-1 -4 -5 -10 -7 -15 -4 -17 10 -23 -19 -21 -104 3 -138 19 -128 37 22 6 53 8
58 28 53 11 -2 48 -8 80 -12 33 -3 67 -7 75 -9 29 -4 68 16 80 41 17 39 97
158 115 174 16 12 16 2 11 -126 -5 -140 -12 -214 -20 -223 -6 -5 -186 49 -201
60 -10 8 -150 -34 -167 -50 -4 -4 -1 -16 7 -26 13 -18 15 -18 45 7 51 44 52
44 258 -2 23 -5 51 -15 61 -21 11 -7 26 -10 34 -6 13 5 15 35 11 213 -2 115
-7 212 -12 217 -4 4 -52 -47 -107 -113z"/>
</g>
</svg>
