<?xml version="1.0" standalone="no"?>
<!DOCTYPE svg PUBLIC "-//W3C//DTD SVG 20010904//EN"
 "http://www.w3.org/TR/2001/REC-SVG-20010904/DTD/svg10.dtd">
<svg version="1.0" xmlns="http://www.w3.org/2000/svg"
 width="70.000000pt" height="53.000000pt" viewBox="0 0 70.000000 53.000000"
 preserveAspectRatio="xMidYMid meet">
<metadata>
Created by potrace 1.16, written by Peter Selinger 2001-2019
</metadata>
<g transform="translate(0.000000,53.000000) scale(0.100000,-0.100000)"
fill="#000000" stroke="none">
<path d="M273 404 c-60 -31 -114 -61 -120 -66 -20 -16 -9 -46 31 -87 21 -22
43 -50 50 -63 7 -13 29 -29 53 -37 66 -23 108 -5 211 92 48 45 89 86 91 92 2
5 -8 -1 -22 -14 -15 -14 -33 -21 -42 -18 -8 4 -37 40 -63 81 -28 45 -54 75
-64 75 -10 1 -66 -24 -125 -55z m171 -41 c36 -38 66 -73 66 -79 0 -18 -42 -51
-47 -36 -3 8 -32 12 -94 12 -50 0 -100 5 -111 11 -13 7 -23 8 -30 1 -7 -7 -1
-15 19 -26 23 -12 50 -14 121 -9 110 7 120 -5 36 -44 -75 -34 -115 -23 -170
45 -21 26 -44 51 -51 55 -20 13 -16 23 20 45 17 11 59 36 91 56 33 20 65 36
72 36 7 0 42 -30 78 -67z"/>
<path d="M221 326 c-24 -28 22 -39 135 -31 57 4 104 10 104 13 0 4 -44 8 -97
9 -53 1 -101 7 -107 13 -14 14 -21 13 -35 -4z"/>
</g>
</svg>
