<?xml version="1.0" standalone="no"?>
<!DOCTYPE svg PUBLIC "-//W3C//DTD SVG 20010904//EN"
 "http://www.w3.org/TR/2001/REC-SVG-20010904/DTD/svg10.dtd">
<svg version="1.0" xmlns="http://www.w3.org/2000/svg"
 width="95.000000pt" height="51.000000pt" viewBox="0 0 95.000000 51.000000"
 preserveAspectRatio="xMidYMid meet">
<metadata>
Created by potrace 1.16, written by Peter Selinger 2001-2019
</metadata>
<g transform="translate(0.000000,51.000000) scale(0.100000,-0.100000)"
fill="#000000" stroke="none">
<path d="M357 374 c-87 -93 -85 -92 -189 -65 -54 14 -72 15 -90 5 -31 -16 -35
-36 -24 -104 9 -58 10 -59 38 -53 16 3 45 11 65 18 41 14 102 1 176 -37 22
-11 58 -20 80 -21 l42 -2 -4 165 c-2 91 -6 168 -10 172 -3 3 -41 -31 -84 -78z
m70 -84 c-3 -77 -8 -144 -12 -150 -7 -11 -95 21 -137 52 -30 21 -52 21 -148 0
-25 -6 -46 -10 -46 -9 -1 1 0 25 3 54 l5 52 72 -6 c39 -3 86 -9 104 -13 30 -8
35 -6 52 23 20 32 102 136 109 137 2 0 1 -63 -2 -140z"/>
<path d="M675 390 c-4 -6 2 -22 14 -34 25 -27 26 -32 5 -40 -11 -4 -22 1 -31
14 -15 21 -53 28 -53 10 0 -6 9 -18 20 -27 11 -10 20 -21 20 -25 0 -4 -20 -19
-45 -34 -25 -14 -45 -28 -45 -30 0 -2 9 -8 20 -14 16 -8 26 -4 55 21 33 29 38
31 52 16 14 -14 13 -17 -16 -31 -34 -18 -37 -26 -19 -44 9 -9 18 -6 41 16 l29
27 34 -39 c26 -30 34 -35 34 -21 0 11 -12 31 -26 46 -25 26 -26 29 -10 45 9 9
19 15 21 13 2 -2 17 -21 33 -42 17 -21 33 -33 37 -27 3 5 -8 25 -24 42 -37 40
-38 43 -6 64 14 9 25 21 25 26 0 5 -14 -1 -31 -13 -31 -22 -32 -22 -45 -4 -19
26 -18 30 11 45 14 7 25 17 25 22 0 12 -13 10 -39 -8 -21 -15 -24 -15 -51 11
-19 18 -30 23 -35 15z m69 -99 c17 -19 17 -20 -3 -30 -17 -9 -22 -8 -32 10 -9
17 -8 23 2 30 8 5 14 9 15 9 0 0 9 -9 18 -19z"/>
</g>
</svg>
