<?xml version="1.0" standalone="no"?>
<!DOCTYPE svg PUBLIC "-//W3C//DTD SVG 20010904//EN"
 "http://www.w3.org/TR/2001/REC-SVG-20010904/DTD/svg10.dtd">
<svg version="1.0" xmlns="http://www.w3.org/2000/svg"
 width="104.000000pt" height="54.000000pt" viewBox="0 0 104.000000 54.000000"
 preserveAspectRatio="xMidYMid meet">
<metadata>
Created by potrace 1.16, written by Peter Selinger 2001-2019
</metadata>
<g transform="translate(0.000000,54.000000) scale(0.100000,-0.100000)"
fill="#000000" stroke="none">
<path d="M423 435 c-22 -27 -54 -51 -80 -61 -40 -16 -43 -15 -75 5 -18 11 -48
36 -67 56 -30 31 -36 34 -50 22 -9 -8 -24 -17 -34 -20 -10 -4 -16 -10 -14 -14
3 -5 7 -39 8 -78 3 -57 1 -70 -11 -71 -27 -2 -50 -16 -50 -30 0 -18 24 -18 40
0 6 8 18 12 25 9 16 -6 21 13 29 101 3 32 7 60 10 63 15 15 21 -13 16 -75 -4
-53 -2 -68 7 -65 7 3 13 0 13 -7 0 -6 4 -8 10 -5 6 3 10 2 10 -4 0 -5 -8 -14
-17 -20 -16 -9 -15 -10 5 -8 21 1 27 10 23 31 -1 5 5 3 14 -4 16 -13 15 -15
-2 -28 -10 -7 -17 -18 -15 -23 1 -6 -7 -5 -19 1 -16 9 -24 9 -33 -1 -8 -9 -7
-11 6 -6 21 7 31 -3 18 -18 -8 -9 -5 -14 9 -18 20 -5 91 36 91 52 0 5 35 30
77 55 l77 46 97 0 c85 0 102 -3 143 -26 25 -14 46 -21 46 -15 0 6 -11 17 -25
23 -43 19 -28 28 50 28 50 0 75 4 75 11 0 9 -24 10 -85 6 -47 -3 -85 -3 -85 0
0 4 7 15 17 25 29 32 4 32 -36 0 -24 -20 -51 -32 -68 -32 l-28 1 37 33 c21 18
35 36 32 39 -8 8 -94 -51 -94 -63 0 -6 -17 -10 -37 -10 l-38 1 40 34 c22 18
36 37 32 41 -4 4 -29 -12 -56 -34 -27 -23 -59 -42 -70 -42 -11 0 -22 -4 -25
-9 -7 -11 22 -23 35 -15 5 3 9 3 9 1 0 -3 -21 -18 -47 -33 -27 -15 -57 -33
-69 -41 -18 -11 -21 -11 -21 3 0 9 18 27 39 41 35 24 54 43 26 27 -26 -15 58
67 95 93 71 49 197 36 392 -42 33 -13 68 -26 78 -29 9 -3 17 -9 17 -13 0 -9
-222 -118 -260 -128 -15 -4 -20 -3 -13 2 21 15 20 54 -2 67 -11 6 -32 19 -47
29 -14 9 -32 17 -38 17 -21 0 6 -25 56 -50 l45 -24 -23 -18 c-19 -15 -25 -15
-34 -3 -8 11 -17 11 -52 -5 -23 -11 -42 -23 -42 -28 0 -20 14 -20 50 -2 l37
19 -5 -25 c-2 -13 -9 -24 -15 -24 -6 0 -8 -2 -6 -5 3 -2 29 4 57 15 66 25 88
25 40 0 -20 -11 -40 -24 -43 -30 -9 -15 0 -12 40 11 20 12 38 19 42 16 3 -4
-6 -12 -21 -18 -28 -13 -35 -29 -13 -29 15 0 36 16 56 43 12 15 12 17 -3 11
-10 -4 -16 -1 -16 7 1 8 36 31 80 52 86 42 170 94 170 107 0 7 -29 18 -225 86
-132 46 -199 64 -240 64 -28 0 -41 -8 -72 -45z m-205 -105 c-4 -60 -23 -62
-22 -2 1 64 2 68 15 55 5 -5 9 -30 7 -53z m94 6 c10 7 5 -33 -7 -43 -4 -5 -5
-2 -1 5 11 18 -2 15 -37 -10 -19 -13 -27 -16 -19 -6 10 12 10 17 1 20 -8 3
-10 14 -6 30 7 25 8 26 34 13 15 -8 30 -12 35 -9z"/>
<path d="M469 272 c-13 -10 -37 -23 -54 -30 -27 -11 -28 -11 -11 2 10 8 15 19
12 25 -8 12 -82 -36 -78 -50 2 -8 -12 -13 -30 -10 -5 0 -8 -6 -8 -14 0 -12 4
-13 19 -6 10 6 21 8 23 5 5 -5 168 84 168 92 0 9 -18 3 -41 -14z"/>
<path d="M113 233 c-7 -2 -13 -9 -13 -14 0 -6 7 -6 19 0 10 6 22 7 26 3 5 -4
5 -1 1 6 -8 13 -13 14 -33 5z"/>
<path d="M475 230 c-3 -5 -3 -16 1 -22 4 -7 -2 -5 -13 5 -20 17 -22 17 -57 -4
-20 -11 -36 -26 -36 -32 0 -8 3 -9 8 -1 11 17 40 24 45 11 3 -9 8 -9 20 1 9 8
21 11 27 7 5 -3 29 5 52 19 24 14 36 26 28 26 -8 -1 -24 -7 -34 -15 -25 -19
-37 -19 -30 0 7 17 -1 20 -11 5z"/>
<path d="M449 163 c-13 -15 -12 -15 11 -3 34 17 36 20 18 20 -9 0 -22 -7 -29
-17z"/>
<path d="M360 150 c0 -5 5 -10 10 -10 6 0 10 5 10 10 0 6 -4 10 -10 10 -5 0
-10 -4 -10 -10z"/>
<path d="M410 139 c0 -5 -4 -7 -10 -4 -5 3 -10 2 -10 -4 0 -19 16 -19 28 0 7
11 8 19 2 19 -5 0 -10 -5 -10 -11z"/>
<path d="M586 105 c-11 -8 -17 -17 -14 -20 2 -3 13 4 23 15 21 23 18 25 -9 5z"/>
</g>
</svg>
