<?xml version="1.0" standalone="no"?>
<!DOCTYPE svg PUBLIC "-//W3C//DTD SVG 20010904//EN"
 "http://www.w3.org/TR/2001/REC-SVG-20010904/DTD/svg10.dtd">
<svg version="1.0" xmlns="http://www.w3.org/2000/svg"
 width="56.000000pt" height="44.000000pt" viewBox="0 0 56.000000 44.000000"
 preserveAspectRatio="xMidYMid meet">
<metadata>
Created by potrace 1.16, written by Peter Selinger 2001-2019
</metadata>
<g transform="translate(0.000000,44.000000) scale(0.100000,-0.100000)"
fill="#000000" stroke="none">
<path d="M425 359 c-5 -7 -63 -9 -181 -5 -175 5 -200 1 -171 -29 11 -10 15
-41 16 -111 2 -136 2 -137 183 -131 96 3 139 1 142 -7 11 -26 23 20 35 132 13
113 10 162 -9 162 -5 0 -12 -5 -15 -11z m-185 -64 l0 -35 -56 0 c-40 0 -54 -3
-51 -12 5 -15 246 -12 262 3 5 5 -1 9 -17 9 -22 0 -26 5 -30 35 -4 34 -3 35
28 35 30 0 32 -2 39 -46 3 -25 3 -74 0 -110 -8 -68 -11 -71 -73 -72 -20 -1
-21 1 -7 14 18 18 18 20 5 45 -10 17 -7 19 25 19 19 0 35 5 35 10 0 6 -54 10
-142 10 -122 -1 -140 -3 -125 -14 11 -9 33 -12 62 -8 l45 5 0 -36 c0 -20 -3
-38 -7 -40 -5 -3 -34 -2 -66 1 l-59 5 4 101 c3 114 4 114 81 115 l47 1 0 -35z
m90 -10 c0 -8 -4 -15 -10 -15 -5 0 -13 -1 -17 -2 -5 -2 -8 9 -8 24 -1 22 2 25
17 17 10 -5 18 -16 18 -24z m-15 -140 c0 -10 -4 -20 -10 -22 -5 -1 -10 8 -10
22 0 14 5 24 10 22 6 -2 10 -12 10 -22z"/>
</g>
</svg>
