<?xml version="1.0" standalone="no"?>
<!DOCTYPE svg PUBLIC "-//W3C//DTD SVG 20010904//EN"
 "http://www.w3.org/TR/2001/REC-SVG-20010904/DTD/svg10.dtd">
<svg version="1.0" xmlns="http://www.w3.org/2000/svg"
 width="98.000000pt" height="40.000000pt" viewBox="0 0 98.000000 40.000000"
 preserveAspectRatio="xMidYMid meet">
<metadata>
Created by potrace 1.16, written by Peter Selinger 2001-2019
</metadata>
<g transform="translate(0.000000,40.000000) scale(0.100000,-0.100000)"
fill="#000000" stroke="none">
<path d="M130 280 c0 -6 -9 -10 -20 -10 -19 0 -20 -7 -20 -105 0 -63 4 -105
10 -105 6 0 10 5 10 10 0 6 8 10 19 10 10 0 29 8 42 18 13 10 38 26 56 34 31
15 31 15 68 -23 20 -22 46 -40 58 -41 48 -3 73 4 92 25 11 12 32 23 45 24 14
1 97 12 185 23 193 24 175 24 175 1 0 -37 19 -32 25 6 3 21 9 56 14 78 6 22 7
43 3 47 -12 11 -762 19 -762 8z m463 -20 l257 0 0 -40 c0 -35 -3 -40 -22 -41
-13 0 -30 -2 -38 -3 -32 -6 -133 -16 -217 -22 -63 -4 -96 -11 -115 -25 -48
-34 -128 -21 -180 28 l-26 25 -22 -20 c-12 -11 -42 -27 -66 -35 -52 -17 -54
-13 -29 71 15 48 18 52 58 61 23 5 65 8 92 6 28 -3 166 -5 308 -5z"/>
</g>
</svg>
