<?xml version="1.0" standalone="no"?>
<!DOCTYPE svg PUBLIC "-//W3C//DTD SVG 20010904//EN"
 "http://www.w3.org/TR/2001/REC-SVG-20010904/DTD/svg10.dtd">
<svg version="1.0" xmlns="http://www.w3.org/2000/svg"
 width="122.000000pt" height="87.000000pt" viewBox="0 0 122.000000 87.000000"
 preserveAspectRatio="xMidYMid meet">
<metadata>
Created by potrace 1.16, written by Peter Selinger 2001-2019
</metadata>
<g transform="translate(0.000000,87.000000) scale(0.100000,-0.100000)"
fill="#000000" stroke="none">
<path d="M1085 801 c-3 -5 -49 -19 -103 -30 -88 -20 -144 -34 -300 -76 -29 -8
-64 -15 -77 -15 -13 0 -27 -4 -30 -10 -3 -5 -18 -10 -32 -10 -43 0 -91 -29
-102 -62 -11 -30 -12 -30 -30 -14 -10 9 -34 39 -52 66 -32 47 -60 62 -73 41
-4 -5 23 -37 59 -72 36 -34 65 -68 65 -75 0 -8 -10 -37 -23 -66 -46 -103 -46
-100 36 -186 84 -89 157 -176 157 -189 0 -5 -10 -17 -22 -28 -15 -12 -18 -20
-10 -23 7 -2 36 19 65 48 29 29 71 66 95 83 37 27 56 57 34 57 -4 0 -13 15
-21 33 -8 17 -31 61 -53 96 -21 36 -35 68 -31 72 15 13 113 40 123 34 5 -3 10
-13 10 -21 0 -8 5 -14 10 -14 6 0 10 11 10 25 0 18 7 28 26 35 33 13 34 13 34
-5 0 -8 5 -15 10 -15 6 0 10 9 10 20 0 14 9 21 37 26 25 5 38 3 41 -5 5 -16
22 -14 22 4 0 9 20 24 46 36 53 22 55 34 3 19 -18 -6 -37 -10 -41 -10 -4 0 -8
26 -10 58 -2 43 -7 57 -18 57 -12 0 -14 -12 -12 -61 4 -57 2 -62 -20 -67 -46
-13 -49 -10 -42 41 5 37 2 51 -10 61 -26 22 -33 5 -23 -54 11 -60 4 -74 -35
-75 -13 0 -18 13 -24 60 -4 33 -10 63 -14 65 -14 9 -21 -29 -15 -80 7 -50 6
-52 -22 -63 -23 -10 -122 -32 -140 -32 -3 0 -2 -11 1 -25 4 -15 2 -25 -5 -25
-16 0 -8 -14 36 -62 55 -59 85 -98 85 -112 0 -12 -29 -51 -82 -110 l-28 -31
-20 25 c-35 45 -144 194 -172 236 l-26 41 26 41 c15 23 33 40 39 37 8 -3 12 4
11 18 -1 12 6 39 16 59 14 30 26 40 57 48 36 9 111 30 134 36 6 2 62 17 125
33 63 17 153 40 198 52 98 26 101 24 104 -61 1 -30 3 -64 4 -75 1 -11 2 -33 3
-48 2 -51 18 -19 25 50 21 216 22 203 -7 203 -14 0 -28 -4 -32 -9z"/>
</g>
</svg>
