<?xml version="1.0" standalone="no"?>
<!DOCTYPE svg PUBLIC "-//W3C//DTD SVG 20010904//EN"
 "http://www.w3.org/TR/2001/REC-SVG-20010904/DTD/svg10.dtd">
<svg version="1.0" xmlns="http://www.w3.org/2000/svg"
 width="85.000000pt" height="57.000000pt" viewBox="0 0 85.000000 57.000000"
 preserveAspectRatio="xMidYMid meet">
<metadata>
Created by potrace 1.16, written by Peter Selinger 2001-2019
</metadata>
<g transform="translate(0.000000,57.000000) scale(0.100000,-0.100000)"
fill="#000000" stroke="none">
<path d="M224 476 c-20 -9 -21 -15 -19 -159 2 -82 7 -152 11 -156 13 -11 219
2 219 14 0 6 -10 11 -23 13 -17 3 -21 9 -18 25 3 12 8 39 11 60 5 31 10 37 30
37 16 0 25 -6 25 -15 0 -8 5 -15 10 -15 6 0 10 9 10 20 0 11 7 20 15 20 8 0
15 -7 15 -15 0 -8 5 -15 10 -15 6 0 10 7 10 15 0 23 17 18 25 -7 l8 -23 4 23
c4 19 11 22 49 22 35 0 44 4 45 18 0 9 4 43 8 76 5 38 4 59 -3 62 -24 8 -423
8 -442 0z m416 -60 c0 -24 3 -51 6 -60 5 -13 -2 -16 -35 -16 -39 0 -42 2 -39
27 3 24 -1 27 -29 30 -31 3 -33 1 -33 -27 0 -21 -5 -30 -16 -30 -11 0 -14 8
-12 32 2 18 -2 33 -9 35 -9 3 -13 -7 -13 -32 0 -36 -1 -37 -29 -32 -50 10 -64
-10 -62 -86 l2 -67 -72 0 -72 0 6 118 c4 64 7 122 7 129 0 15 49 19 248 21
l152 2 0 -44z m-90 -56 c0 -11 -4 -20 -9 -20 -5 0 -7 9 -4 20 3 11 7 20 9 20
2 0 4 -9 4 -20z"/>
</g>
</svg>
