<?xml version="1.0" standalone="no"?>
<!DOCTYPE svg PUBLIC "-//W3C//DTD SVG 20010904//EN"
 "http://www.w3.org/TR/2001/REC-SVG-20010904/DTD/svg10.dtd">
<svg version="1.0" xmlns="http://www.w3.org/2000/svg"
 width="65.000000pt" height="69.000000pt" viewBox="0 0 65.000000 69.000000"
 preserveAspectRatio="xMidYMid meet">
<metadata>
Created by potrace 1.16, written by Peter Selinger 2001-2019
</metadata>
<g transform="translate(0.000000,69.000000) scale(0.100000,-0.100000)"
fill="#000000" stroke="none">
<path d="M326 564 c-75 -58 -136 -111 -136 -116 0 -7 -24 -8 -68 -4 -54 5 -71
4 -81 -8 -9 -11 -9 -16 1 -22 12 -8 180 -7 344 0 87 4 104 20 30 26 -53 4 -58
7 -45 20 8 9 50 53 94 99 44 46 73 82 65 79 -23 -7 -209 -172 -209 -185 -1
-14 -81 -19 -81 -5 0 11 68 75 151 143 85 69 95 79 83 79 -6 0 -73 -48 -148
-106z"/>
<path d="M44 348 c-14 -22 12 -30 87 -26 58 3 79 1 79 -8 0 -6 10 -21 23 -33
12 -11 62 -59 112 -105 49 -47 93 -82 97 -80 9 6 -47 75 -134 167 -32 33 -58
62 -58 64 0 1 12 3 27 3 27 0 73 -39 184 -155 26 -27 51 -46 55 -42 4 4 -4 17
-17 30 -46 44 -149 156 -149 162 0 3 23 5 51 5 36 0 49 4 46 13 -3 9 -53 12
-201 13 -108 0 -199 -3 -202 -8z"/>
</g>
</svg>
