<?xml version="1.0" standalone="no"?>
<!DOCTYPE svg PUBLIC "-//W3C//DTD SVG 20010904//EN"
 "http://www.w3.org/TR/2001/REC-SVG-20010904/DTD/svg10.dtd">
<svg version="1.0" xmlns="http://www.w3.org/2000/svg"
 width="80.000000pt" height="45.000000pt" viewBox="0 0 80.000000 45.000000"
 preserveAspectRatio="xMidYMid meet">
<metadata>
Created by potrace 1.16, written by Peter Selinger 2001-2019
</metadata>
<g transform="translate(0.000000,45.000000) scale(0.100000,-0.100000)"
fill="#000000" stroke="none">
<path d="M110 348 c0 -9 -7 -19 -16 -22 -13 -5 -15 -24 -12 -118 l3 -111 124
2 c80 1 128 -2 137 -10 11 -9 15 -8 19 4 4 8 18 14 33 14 15 0 84 1 155 3 120
3 128 4 132 24 4 20 8 52 22 164 l6 52 -225 0 c-124 0 -259 3 -301 6 -66 6
-77 5 -77 -8z m230 -38 c-11 -21 -50 -28 -50 -8 0 9 -3 9 -12 0 -16 -16 -48
-15 -49 1 0 10 -2 10 -6 0 -2 -7 -13 -13 -23 -13 -10 0 -21 6 -24 13 -5 10 -7
10 -12 0 -3 -7 -12 -13 -20 -13 -8 0 -14 -4 -14 -10 0 -5 7 -10 15 -10 8 0 15
-7 15 -15 0 -9 -10 -15 -26 -15 -23 0 -25 3 -22 38 3 36 4 37 48 42 25 3 78 7
118 8 71 3 73 2 62 -18z m314 4 c3 -8 6 -18 6 -20 0 -2 -65 -4 -144 -4 -133 0
-144 1 -149 19 -4 18 3 19 138 20 122 1 144 -1 149 -15z m-436 -56 c-7 -19
-38 -22 -38 -4 0 10 9 16 21 16 12 0 19 -5 17 -12z m52 -4 c0 -9 -7 -14 -17
-12 -25 5 -28 28 -4 28 12 0 21 -6 21 -16z m70 1 c0 -9 -9 -15 -25 -15 -16 0
-25 6 -25 15 0 9 9 15 25 15 16 0 25 -6 25 -15z m320 3 c0 -10 -36 -13 -145
-14 -118 -2 -145 1 -145 12 0 11 28 14 145 14 109 0 145 -3 145 -12z m-500
-54 c0 -8 -9 -14 -20 -14 -11 0 -20 -4 -20 -10 0 -5 6 -10 14 -10 8 0 17 -8
21 -17 6 -17 7 -17 16 0 12 21 38 22 45 2 4 -8 10 -12 15 -9 5 3 7 10 4 15 -4
5 3 9 14 9 12 0 21 -7 21 -15 0 -8 5 -15 10 -15 6 0 10 7 10 15 0 9 9 15 25
15 18 0 25 -5 25 -20 0 -19 -7 -20 -121 -20 l-121 0 6 31 c3 17 6 39 6 49 0
13 6 16 25 12 14 -2 25 -11 25 -18z m471 17 c16 0 28 -8 31 -18 4 -17 -7 -18
-144 -18 -134 -1 -148 1 -148 16 0 13 10 19 38 21 35 3 164 3 223 -1z m-411
-16 c0 -8 -9 -15 -20 -15 -11 0 -20 7 -20 15 0 8 9 15 20 15 11 0 20 -7 20
-15z m50 0 c0 -8 -6 -15 -14 -15 -8 0 -16 7 -20 15 -4 10 1 15 14 15 11 0 20
-7 20 -15z m70 0 c0 -9 -9 -15 -25 -15 -16 0 -25 6 -25 15 0 9 9 15 25 15 16
0 25 -6 25 -15z m324 -51 c3 -8 6 -18 6 -20 0 -2 -67 -4 -150 -4 -141 0 -150
1 -150 19 0 18 9 19 144 20 123 1 145 -1 150 -15z"/>
</g>
</svg>
