<?xml version="1.0" standalone="no"?>
<!DOCTYPE svg PUBLIC "-//W3C//DTD SVG 20010904//EN"
 "http://www.w3.org/TR/2001/REC-SVG-20010904/DTD/svg10.dtd">
<svg version="1.0" xmlns="http://www.w3.org/2000/svg"
 width="46.000000pt" height="31.000000pt" viewBox="0 0 46.000000 31.000000"
 preserveAspectRatio="xMidYMid meet">
<metadata>
Created by potrace 1.16, written by Peter Selinger 2001-2019
</metadata>
<g transform="translate(0.000000,31.000000) scale(0.100000,-0.100000)"
fill="#000000" stroke="none">
<path d="M134 240 c-20 -8 -22 -14 -18 -81 3 -39 7 -75 9 -80 3 -4 -5 -9 -17
-11 -13 -2 -23 -10 -23 -18 0 -16 67 -16 190 0 l60 7 -70 2 -70 1 3 47 c3 41
7 48 25 50 12 2 46 6 75 9 48 5 52 4 52 -14 0 -30 19 -37 24 -10 11 53 14 83
9 95 -6 15 -213 18 -249 3z m216 -30 c0 -18 -7 -20 -72 -20 -83 -1 -114 -16
-103 -50 9 -28 -2 -70 -18 -70 -8 0 -12 22 -12 75 l0 74 45 4 c25 2 71 4 103
5 51 2 57 0 57 -18z"/>
</g>
</svg>
