<?xml version="1.0" standalone="no"?>
<!DOCTYPE svg PUBLIC "-//W3C//DTD SVG 20010904//EN"
 "http://www.w3.org/TR/2001/REC-SVG-20010904/DTD/svg10.dtd">
<svg version="1.0" xmlns="http://www.w3.org/2000/svg"
 width="87.000000pt" height="60.000000pt" viewBox="0 0 87.000000 60.000000"
 preserveAspectRatio="xMidYMid meet">
<metadata>
Created by potrace 1.16, written by Peter Selinger 2001-2019
</metadata>
<g transform="translate(0.000000,60.000000) scale(0.100000,-0.100000)"
fill="#000000" stroke="none">
<path d="M176 509 c10 -12 45 -39 77 -61 31 -21 57 -46 57 -55 0 -18 -8 -13
-82 54 -45 41 -83 57 -72 31 3 -7 39 -38 80 -68 41 -30 74 -60 74 -67 0 -19
-22 -6 -100 61 -36 30 -67 51 -69 45 -2 -6 6 -17 17 -25 12 -8 27 -20 34 -27
7 -7 32 -27 56 -45 23 -19 42 -37 42 -42 0 -5 -33 -21 -72 -36 -82 -31 -102
-44 -91 -55 4 -4 35 5 68 21 91 45 110 47 131 16 9 -15 15 -29 13 -31 -3 -2
-40 -19 -84 -37 -43 -18 -80 -39 -82 -45 -3 -7 31 3 74 23 57 26 85 34 108 29
16 -3 114 -3 216 1 l187 7 6 66 c4 36 9 90 12 119 6 48 5 52 -15 52 -20 0 -21
-5 -21 -110 0 -81 -3 -110 -12 -111 -31 -1 -263 2 -264 4 -1 1 1 18 3 38 5 36
6 37 56 43 29 3 78 7 110 8 103 3 60 18 -53 18 l-110 0 0 35 c0 27 -4 35 -18
35 -13 0 -18 -7 -18 -22 1 -15 -6 -23 -19 -26 -11 -2 -30 -8 -42 -14 -24 -12
-39 -6 -29 11 4 6 14 7 24 4 14 -5 15 -3 5 8 -7 7 -13 23 -13 35 0 21 5 22
134 29 74 4 139 5 144 1 5 -3 25 -3 43 1 31 7 30 8 -26 14 -33 4 -114 7 -180
8 -94 1 -125 -2 -143 -14 -20 -15 -24 -14 -64 23 -68 60 -133 97 -92 51z m264
-213 c0 -24 3 -51 6 -60 5 -13 -1 -16 -26 -16 -19 0 -29 4 -25 11 4 6 13 8 21
5 8 -3 11 0 7 10 -6 17 -8 17 -33 2 -15 -9 -22 -10 -31 -1 -8 8 -3 15 21 28
27 14 30 18 18 32 -11 15 -11 16 5 10 11 -4 17 -2 17 8 0 8 5 15 10 15 6 0 10
-20 10 -44z m-65 4 c3 -5 -1 -10 -10 -10 -9 0 -13 5 -10 10 3 6 8 10 10 10 2
0 7 -4 10 -10z"/>
<path d="M221 227 c-40 -18 -72 -36 -71 -42 2 -15 29 -6 105 36 85 47 67 50
-34 6z"/>
</g>
</svg>
