<?xml version="1.0" standalone="no"?>
<!DOCTYPE svg PUBLIC "-//W3C//DTD SVG 20010904//EN"
 "http://www.w3.org/TR/2001/REC-SVG-20010904/DTD/svg10.dtd">
<svg version="1.0" xmlns="http://www.w3.org/2000/svg"
 width="94.000000pt" height="41.000000pt" viewBox="0 0 94.000000 41.000000"
 preserveAspectRatio="xMidYMid meet">
<metadata>
Created by potrace 1.16, written by Peter Selinger 2001-2019
</metadata>
<g transform="translate(0.000000,41.000000) scale(0.100000,-0.100000)"
fill="#000000" stroke="none">
<path d="M388 302 c-9 -4 -29 -18 -45 -32 -26 -23 -35 -25 -138 -25 l-110 0
-2 -31 c-2 -50 6 -55 68 -44 81 14 154 16 154 5 0 -5 -27 -19 -60 -31 -33 -11
-60 -26 -59 -32 1 -7 2 -19 3 -28 0 -9 7 -14 14 -11 6 3 38 17 71 32 l59 26
-6 -31 c-4 -17 -2 -30 3 -30 6 0 10 5 10 11 0 6 11 8 28 5 17 -4 42 1 68 13
42 21 52 23 139 41 124 24 221 56 229 76 6 17 4 18 -64 38 -157 47 -313 68
-362 48z m205 -28 c94 -20 187 -47 187 -55 0 -7 -128 -45 -185 -54 -22 -4 -73
-18 -113 -31 -93 -32 -126 -30 -130 11 -7 55 -16 58 -129 51 -100 -7 -103 -7
-103 13 0 20 6 21 101 21 98 0 102 1 136 30 30 27 41 30 99 30 36 0 97 -7 137
-16z m-298 -144 c-53 -24 -80 -24 -35 0 19 11 44 19 55 19 13 0 6 -7 -20 -19z"/>
</g>
</svg>
