<?xml version="1.0" standalone="no"?>
<!DOCTYPE svg PUBLIC "-//W3C//DTD SVG 20010904//EN"
 "http://www.w3.org/TR/2001/REC-SVG-20010904/DTD/svg10.dtd">
<svg version="1.0" xmlns="http://www.w3.org/2000/svg"
 width="93.000000pt" height="61.000000pt" viewBox="0 0 93.000000 61.000000"
 preserveAspectRatio="xMidYMid meet">
<metadata>
Created by potrace 1.16, written by Peter Selinger 2001-2019
</metadata>
<g transform="translate(0.000000,61.000000) scale(0.100000,-0.100000)"
fill="#000000" stroke="none">
<path d="M570 492 c-6 -2 -10 -47 -10 -112 l0 -107 -80 -7 c-44 -4 -146 -6
-227 -5 l-148 2 -3 -89 c-3 -76 -2 -86 11 -76 8 7 17 31 20 55 12 85 10 82 63
85 l49 2 -42 -40 c-43 -41 -50 -54 -34 -64 4 -3 25 19 46 49 37 55 38 55 89
55 l51 -1 -42 -38 c-24 -21 -43 -44 -43 -51 0 -23 28 -5 62 40 31 41 38 45 83
48 l50 3 -43 -44 c-37 -38 -45 -57 -22 -57 4 0 26 25 49 55 40 53 43 55 89 55
l47 -1 -27 -23 c-15 -13 -37 -31 -50 -40 -20 -14 -21 -17 -7 -32 14 -14 20
-10 57 39 40 53 42 55 99 59 32 3 59 4 61 3 2 -1 -20 -19 -48 -40 -52 -38 -60
-52 -35 -61 9 -4 34 14 68 51 l54 56 6 110 c5 83 4 111 -6 114 -16 5 -174 11
-187 7z m160 -52 l0 -30 -60 0 c-33 0 -60 -4 -60 -10 0 -6 26 -10 59 -10 55 0
59 -2 63 -25 5 -25 5 -25 -52 -21 -31 2 -62 1 -69 -4 -23 -13 5 -21 66 -18 54
3 58 1 61 -19 3 -21 -1 -23 -41 -23 -24 0 -59 -3 -76 -6 l-31 -6 0 90 0 91 33
5 c50 8 81 13 95 15 7 0 12 -11 12 -29z"/>
</g>
</svg>
