<?xml version="1.0" standalone="no"?>
<!DOCTYPE svg PUBLIC "-//W3C//DTD SVG 20010904//EN"
 "http://www.w3.org/TR/2001/REC-SVG-20010904/DTD/svg10.dtd">
<svg version="1.0" xmlns="http://www.w3.org/2000/svg"
 width="79.000000pt" height="64.000000pt" viewBox="0 0 79.000000 64.000000"
 preserveAspectRatio="xMidYMid meet">
<metadata>
Created by potrace 1.16, written by Peter Selinger 2001-2019
</metadata>
<g transform="translate(0.000000,64.000000) scale(0.100000,-0.100000)"
fill="#000000" stroke="none">
<path d="M159 460 c-5 -4 -7 -13 -4 -21 4 -12 25 -14 107 -11 l101 4 -6 -85
c-5 -58 -4 -88 4 -93 13 -8 175 -6 235 2 41 6 42 6 45 -28 7 -64 0 -88 -27
-88 -23 0 -25 3 -22 38 2 28 -1 37 -12 37 -10 0 -16 -12 -18 -37 -5 -54 -32
-52 -32 2 0 29 -4 40 -15 40 -8 0 -16 -8 -16 -17 -1 -10 -2 -22 -4 -28 -1 -5
-3 -16 -3 -22 -1 -7 -7 -13 -13 -13 -6 0 -9 15 -7 38 3 31 0 37 -17 37 -17 0
-20 -6 -17 -37 2 -29 -1 -38 -13 -38 -11 0 -15 11 -15 45 0 42 -11 58 -25 35
-8 -12 -72 -13 -79 -1 -3 5 2 12 12 17 14 6 12 8 -12 13 -35 7 -46 28 -16 33
27 4 25 24 -1 20 -27 -3 -20 19 12 35 13 7 20 13 16 13 -4 0 -3 10 4 21 15 29
-2 39 -65 39 -77 0 -100 -33 -58 -82 14 -16 13 -18 -6 -18 -11 0 -23 -4 -26
-9 -7 -10 17 -21 46 -21 11 0 18 -5 15 -12 -2 -7 -13 -13 -25 -13 -12 0 -21
-5 -19 -10 1 -6 7 -9 14 -9 6 1 9 -5 6 -12 -3 -8 -14 -14 -25 -14 -15 0 -18
-3 -10 -13 7 -8 7 -17 -3 -30 -11 -15 -14 -15 -25 -2 -9 11 -10 47 -5 145 5
86 4 130 -3 130 -18 0 -22 -30 -22 -166 0 -171 -2 -168 159 -158 109 7 111 6
111 -15 0 -27 17 -28 25 -1 10 30 33 24 40 -11 9 -38 19 -28 24 24 1 4 8 7 16
7 9 0 15 -9 15 -24 0 -37 19 -42 26 -7 7 33 28 41 38 16 3 -8 10 -15 16 -15 5
0 10 7 10 15 0 21 40 19 56 -3 13 -16 14 -16 20 5 3 13 10 21 14 18 5 -3 11
-1 15 5 3 6 -1 13 -10 16 -12 5 -14 16 -9 55 10 77 5 79 -160 79 l-141 0 0 75
c0 53 4 75 13 75 6 0 12 4 12 9 0 12 -27 22 -42 16 -7 -3 -52 -1 -101 3 -48 4
-92 5 -98 2z m131 -77 c-1 -27 -43 -41 -66 -22 -24 20 -16 29 26 29 22 0 40
-3 40 -7z m-27 -60 c-3 -7 -9 -13 -14 -13 -5 0 -9 6 -9 13 0 8 6 14 14 14 8 0
12 -6 9 -14z m13 -98 c18 -13 17 -14 -18 -15 -36 0 -47 8 -31 23 10 11 28 8
49 -8z m49 -55 c10 -11 23 -20 28 -20 6 0 2 9 -8 20 -18 20 -17 20 7 20 26 0
46 -34 27 -46 -9 -5 -199 6 -199 12 0 26 17 34 70 34 44 0 61 -4 75 -20z"/>
</g>
</svg>
