<?xml version="1.0" standalone="no"?>
<!DOCTYPE svg PUBLIC "-//W3C//DTD SVG 20010904//EN"
 "http://www.w3.org/TR/2001/REC-SVG-20010904/DTD/svg10.dtd">
<svg version="1.0" xmlns="http://www.w3.org/2000/svg"
 width="46.000000pt" height="68.000000pt" viewBox="0 0 46.000000 68.000000"
 preserveAspectRatio="xMidYMid meet">
<metadata>
Created by potrace 1.16, written by Peter Selinger 2001-2019
</metadata>
<g transform="translate(0.000000,68.000000) scale(0.100000,-0.100000)"
fill="#000000" stroke="none">
<path d="M128 606 c-14 -10 -15 -15 -5 -25 9 -9 12 -81 12 -271 0 -143 2 -260
4 -260 2 0 35 18 73 40 39 22 72 40 75 40 15 0 73 55 86 82 20 41 7 76 -44
123 -45 40 -74 48 -38 9 20 -21 24 -36 24 -83 0 -54 -2 -59 -39 -92 -22 -19
-54 -44 -73 -57 -28 -19 -34 -21 -39 -8 -7 18 0 454 7 461 3 2 27 -2 54 -11
52 -15 75 -35 75 -65 0 -30 -50 -96 -91 -118 -39 -22 -51 -41 -26 -41 8 0 49
21 93 48 93 55 111 85 78 129 -27 36 -69 58 -137 74 -35 7 -57 17 -57 26 0 16
-10 16 -32 -1z"/>
</g>
</svg>
