<?xml version="1.0" standalone="no"?>
<!DOCTYPE svg PUBLIC "-//W3C//DTD SVG 20010904//EN"
 "http://www.w3.org/TR/2001/REC-SVG-20010904/DTD/svg10.dtd">
<svg version="1.0" xmlns="http://www.w3.org/2000/svg"
 width="71.000000pt" height="52.000000pt" viewBox="0 0 71.000000 52.000000"
 preserveAspectRatio="xMidYMid meet">
<metadata>
Created by potrace 1.16, written by Peter Selinger 2001-2019
</metadata>
<g transform="translate(0.000000,52.000000) scale(0.100000,-0.100000)"
fill="#000000" stroke="none">
<path d="M169 429 c-7 -8 -21 -14 -29 -14 -10 0 -15 -9 -14 -27 0 -16 1 -68 2
-118 1 -50 6 -90 10 -90 5 0 12 46 16 102 3 56 10 106 14 110 5 5 33 -15 63
-42 l54 -51 -42 4 c-45 5 -69 -5 -59 -22 5 -7 28 -9 64 -6 65 6 68 11 -51 -78
-42 -32 -77 -62 -77 -67 0 -24 32 -4 118 75 74 69 99 85 125 86 l32 1 -28 8
c-16 5 -35 6 -43 3 -12 -5 -51 32 -116 111 -21 24 -26 26 -39 15z"/>
<path d="M323 412 c2 -9 10 -15 18 -13 16 4 118 10 168 11 75 0 18 10 -83 14
-96 4 -107 3 -103 -12z"/>
<path d="M460 276 c0 -52 4 -97 9 -100 10 -6 35 170 26 184 -4 6 -13 10 -21
10 -11 0 -14 -19 -14 -94z"/>
<path d="M325 250 c-4 -6 -4 -28 0 -49 5 -30 3 -40 -9 -44 -41 -16 1 -77 52
-77 31 0 232 95 232 110 0 7 -22 -1 -52 -17 -78 -43 -127 -56 -168 -46 -27 8
-34 14 -31 29 15 62 -2 129 -24 94z"/>
</g>
</svg>
