<?xml version="1.0" standalone="no"?>
<!DOCTYPE svg PUBLIC "-//W3C//DTD SVG 20010904//EN"
 "http://www.w3.org/TR/2001/REC-SVG-20010904/DTD/svg10.dtd">
<svg version="1.0" xmlns="http://www.w3.org/2000/svg"
 width="89.000000pt" height="41.000000pt" viewBox="0 0 89.000000 41.000000"
 preserveAspectRatio="xMidYMid meet">
<metadata>
Created by potrace 1.16, written by Peter Selinger 2001-2019
</metadata>
<g transform="translate(0.000000,41.000000) scale(0.100000,-0.100000)"
fill="#000000" stroke="none">
<path d="M260 330 c-6 -10 -10 -28 -10 -39 0 -19 -6 -20 -97 -20 -53 0 -100
-4 -106 -10 -11 -11 1 -131 14 -131 5 0 9 11 9 24 0 19 6 24 37 30 21 3 61 6
90 6 l52 0 8 -41 8 -41 158 -2 157 -1 0 33 c0 18 5 32 13 33 6 1 41 2 77 3 36
1 70 5 77 9 8 5 15 -1 19 -18 3 -14 10 -25 14 -25 10 0 17 108 9 122 -11 18
-29 -2 -29 -33 l0 -29 -85 0 c-78 0 -85 2 -85 20 0 17 8 19 77 22 52 2 78 7
81 16 3 10 -12 13 -69 11 l-74 -2 -3 31 c-2 20 -10 33 -22 37 -10 3 -84 8
-164 10 -134 3 -147 2 -156 -15z m301 -95 c5 -85 -3 -105 -43 -105 -15 0 -18
8 -18 50 0 39 4 51 20 60 11 6 18 15 15 21 -4 5 -10 7 -15 4 -5 -3 -10 5 -12
17 -2 18 -9 23 -35 23 -18 1 -33 -2 -33 -6 0 -13 -33 -19 -45 -9 -9 8 -14 5
-18 -10 -7 -26 -27 -26 -27 0 0 11 -4 20 -10 20 -9 0 -11 -6 -14 -38 -1 -13
-24 -32 -38 -32 -10 0 -10 51 0 66 11 17 45 22 162 20 l105 -1 6 -80z m-71 37
c0 -10 -21 -32 -31 -32 -6 0 -6 19 0 38 2 6 31 1 31 -6z m-237 -54 c-2 -4 -43
-7 -92 -7 -70 0 -88 3 -88 15 0 7 3 14 6 14 76 5 157 13 161 17 6 6 19 -30 13
-39z m187 28 c0 -14 -29 -31 -38 -22 -2 3 -2 12 1 21 8 19 37 20 37 1z m-60
-26 c0 -11 -7 -20 -15 -20 -8 0 -15 9 -15 20 0 11 7 20 15 20 8 0 15 -9 15
-20z m-61 -41 c-10 -6 -10 -10 0 -23 12 -14 10 -16 -12 -16 -24 0 -37 16 -37
46 0 8 9 14 19 14 11 0 23 6 28 13 5 8 9 7 11 -7 2 -10 -2 -22 -9 -27z m161
-4 c0 -33 -4 -45 -15 -45 -11 0 -15 11 -15 38 0 21 3 42 7 45 16 16 23 4 23
-38z m-47 -36 c-5 -5 -17 -7 -27 -3 -18 7 -13 43 8 56 14 9 32 -40 19 -53z
m-53 16 c0 -8 -7 -15 -15 -15 -8 0 -15 7 -15 15 0 8 7 15 15 15 8 0 15 -7 15
-15z"/>
</g>
</svg>
