<?xml version="1.0" standalone="no"?>
<!DOCTYPE svg PUBLIC "-//W3C//DTD SVG 20010904//EN"
 "http://www.w3.org/TR/2001/REC-SVG-20010904/DTD/svg10.dtd">
<svg version="1.0" xmlns="http://www.w3.org/2000/svg"
 width="108.000000pt" height="55.000000pt" viewBox="0 0 108.000000 55.000000"
 preserveAspectRatio="xMidYMid meet">
<metadata>
Created by potrace 1.16, written by Peter Selinger 2001-2019
</metadata>
<g transform="translate(0.000000,55.000000) scale(0.100000,-0.100000)"
fill="#000000" stroke="none">
<path d="M320 430 c-6 -10 -10 -45 -10 -78 l0 -59 -66 -6 c-74 -6 -104 0 -104
18 0 17 21 23 90 24 66 2 87 17 33 24 -51 7 -140 4 -149 -6 -10 -10 -10 -77
-1 -101 7 -17 9 -18 25 -2 13 11 37 16 84 16 63 0 67 -2 105 -39 34 -35 45
-40 103 -46 36 -3 128 -5 205 -3 l140 3 -2 40 -3 40 77 3 c43 2 79 5 82 7 10
10 -8 15 -78 19 -40 2 -74 6 -76 8 -14 14 21 29 79 35 79 7 86 2 86 -65 0 -24
4 -41 9 -38 13 9 23 118 11 126 -6 4 -49 5 -95 3 l-85 -3 0 35 c0 28 -5 37
-24 45 -13 4 -114 11 -225 13 -188 5 -202 4 -211 -13z m420 -30 c4 -7 8 -38 9
-69 1 -31 2 -74 4 -96 l2 -40 -169 3 c-94 2 -178 8 -188 13 -32 17 -60 86 -57
142 4 66 4 66 222 63 127 -2 171 -6 177 -16z"/>
</g>
</svg>
