<?xml version="1.0" standalone="no"?>
<!DOCTYPE svg PUBLIC "-//W3C//DTD SVG 20010904//EN"
 "http://www.w3.org/TR/2001/REC-SVG-20010904/DTD/svg10.dtd">
<svg version="1.0" xmlns="http://www.w3.org/2000/svg"
 width="89.000000pt" height="39.000000pt" viewBox="0 0 89.000000 39.000000"
 preserveAspectRatio="xMidYMid meet">
<metadata>
Created by potrace 1.16, written by Peter Selinger 2001-2019
</metadata>
<g transform="translate(0.000000,39.000000) scale(0.100000,-0.100000)"
fill="#000000" stroke="none">
<path d="M506 345 c-9 -13 -16 -29 -16 -35 0 -7 -70 -8 -220 -3 -203 6 -220 5
-226 -11 -4 -10 -3 -57 2 -104 8 -79 11 -87 29 -84 11 2 101 5 200 6 216 4
205 4 205 16 0 6 -79 11 -202 12 -159 2 -202 6 -206 17 -4 11 31 13 199 10
218 -4 236 -9 225 -55 -4 -14 0 -29 10 -38 19 -20 16 -20 72 8 53 27 226 96
241 96 5 0 11 7 14 14 4 10 -6 22 -26 34 -43 26 -271 142 -278 142 -4 0 -14
-11 -23 -25z m92 -39 l52 -20 0 -73 0 -72 -52 -16 c-90 -26 -90 -27 -83 63 8
104 15 144 23 140 4 -2 31 -12 60 -22z m-108 -33 c0 -7 -15 -10 -42 -8 -24 2
-117 4 -208 5 -109 0 -160 4 -150 10 23 14 400 8 400 -7z m211 -13 c27 -15 28
-95 0 -103 -20 -5 -31 24 -31 84 0 32 3 34 31 19z m-211 -21 c0 -8 -59 -9
-207 -4 -114 3 -209 8 -212 11 -2 2 91 4 207 4 148 0 212 -3 212 -11z m302
-24 c16 -10 14 -13 -17 -28 l-35 -17 0 35 c0 36 10 38 52 10z m-496 -5 c173 0
194 -2 194 -16 0 -14 -10 -16 -72 -11 -40 4 -135 7 -210 7 -120 0 -138 2 -138
16 0 11 5 14 16 10 9 -3 103 -6 210 -6z"/>
<path d="M577 293 c-15 -14 -1 -167 14 -157 5 3 9 35 9 72 0 65 -9 99 -23 85z"/>
</g>
</svg>
