<?xml version="1.0" standalone="no"?>
<!DOCTYPE svg PUBLIC "-//W3C//DTD SVG 20010904//EN"
 "http://www.w3.org/TR/2001/REC-SVG-20010904/DTD/svg10.dtd">
<svg version="1.0" xmlns="http://www.w3.org/2000/svg"
 width="96.000000pt" height="48.000000pt" viewBox="0 0 96.000000 48.000000"
 preserveAspectRatio="xMidYMid meet">
<metadata>
Created by potrace 1.16, written by Peter Selinger 2001-2019
</metadata>
<g transform="translate(0.000000,48.000000) scale(0.100000,-0.100000)"
fill="#000000" stroke="none">
<path d="M531 385 c-18 -19 -34 -25 -70 -26 -67 -2 -244 2 -294 7 -23 2 -54
-1 -69 -7 -27 -11 -28 -15 -28 -79 0 -37 3 -81 6 -98 l6 -31 219 3 c157 2 219
0 216 -8 -5 -14 11 -46 23 -46 5 0 31 13 58 29 27 16 92 46 143 66 52 21 97
40 101 44 14 12 -7 27 -107 76 -55 27 -117 60 -137 72 -21 13 -39 23 -40 23
-2 0 -14 -12 -27 -25z m98 -51 c59 -21 68 -35 63 -94 -4 -38 -6 -40 -71 -65
-36 -14 -70 -25 -74 -25 -9 0 -9 136 -1 179 4 18 12 30 18 28 6 -2 35 -12 65
-23z m-277 0 c21 -4 35 -10 32 -15 -6 -11 -74 -12 -74 -1 0 4 -46 6 -102 5
-67 -1 -96 1 -83 7 23 10 173 13 227 4z m158 -32 c0 -28 -2 -29 -56 -31 -42
-2 -55 1 -51 11 2 8 17 12 40 10 19 -1 38 2 42 8 4 6 -9 10 -34 10 -22 0 -43
5 -46 10 -4 6 15 10 49 10 55 0 56 -1 56 -28z m-310 -12 c0 -5 -22 -10 -50
-10 -27 0 -50 5 -50 10 0 6 23 10 50 10 28 0 50 -4 50 -10z m90 -6 c0 -11 -5
-14 -16 -10 -9 3 -24 6 -35 6 -10 0 -19 5 -19 10 0 6 16 10 35 10 25 0 35 -4
35 -16z m90 5 c0 -4 -16 -9 -35 -11 -25 -3 -35 0 -35 9 0 9 11 13 35 11 19 -1
35 -5 35 -9z m390 -16 c22 -10 40 -20 40 -23 0 -4 -23 -14 -51 -22 l-51 -17 6
22 c3 12 6 30 6 40 0 21 1 21 50 0z m-572 -30 c2 -9 -11 -13 -47 -13 -39 0
-51 4 -51 16 0 12 10 14 47 12 26 -2 48 -9 51 -15z m92 7 c0 -10 -26 -20 -51
-20 -20 0 -26 16 -9 22 21 7 60 6 60 -2z m90 -5 c0 -10 -11 -15 -35 -15 -24 0
-35 5 -35 15 0 10 11 15 35 15 24 0 35 -5 35 -15z m130 0 c0 -12 -13 -15 -55
-15 -51 0 -65 7 -48 23 3 4 28 7 55 7 36 0 48 -4 48 -15z m-314 -46 c9 -15 24
-10 24 7 0 23 62 15 66 -8 2 -16 -8 -18 -92 -18 -72 0 -94 3 -94 13 0 8 2 16
4 18 8 8 86 -3 92 -12z m184 1 c0 -16 -7 -20 -35 -20 -22 0 -35 5 -35 13 0 19
5 22 40 25 24 2 30 -2 30 -18z m134 -5 c4 -12 -5 -15 -54 -15 -47 0 -60 3 -60
15 0 11 13 15 54 15 39 0 55 -4 60 -15z"/>
<path d="M574 317 c-9 -23 0 -127 11 -127 12 0 16 128 4 136 -5 3 -12 -1 -15
-9z"/>
<path d="M637 314 c-10 -10 -9 -124 2 -124 11 0 22 113 12 123 -4 4 -10 4 -14
1z"/>
</g>
</svg>
