<?xml version="1.0" standalone="no"?>
<!DOCTYPE svg PUBLIC "-//W3C//DTD SVG 20010904//EN"
 "http://www.w3.org/TR/2001/REC-SVG-20010904/DTD/svg10.dtd">
<svg version="1.0" xmlns="http://www.w3.org/2000/svg"
 width="70.000000pt" height="36.000000pt" viewBox="0 0 70.000000 36.000000"
 preserveAspectRatio="xMidYMid meet">
<metadata>
Created by potrace 1.16, written by Peter Selinger 2001-2019
</metadata>
<g transform="translate(0.000000,36.000000) scale(0.100000,-0.100000)"
fill="#000000" stroke="none">
<path d="M87 296 c-23 -20 -24 -24 -17 -81 5 -33 9 -84 9 -113 1 -48 3 -52 20
-43 10 6 128 12 272 13 l254 3 2 111 3 112 -158 6 c-393 15 -357 16 -385 -8z
m83 -101 l0 -95 -35 0 -35 0 0 89 c0 96 -2 93 58 100 9 1 12 -24 12 -94z m255
78 c-4 -10 -15 -37 -23 -61 l-15 -43 -98 2 c-76 1 -99 4 -103 16 -8 19 -8 88
0 95 3 4 60 7 126 7 111 1 120 0 113 -16z m61 -18 c2 -18 -3 -25 -17 -25 -27
0 -23 -15 9 -31 l27 -14 -38 -3 c-30 -3 -37 -7 -33 -19 4 -10 -2 -21 -14 -30
-11 -8 -20 -18 -20 -24 0 -18 28 -9 47 15 10 13 30 26 46 30 22 5 27 3 27 -13
0 -11 5 -23 10 -26 15 -9 12 56 -5 105 -8 23 -15 46 -15 51 0 11 77 12 84 1 2
-4 7 -42 10 -84 6 -70 4 -78 -13 -88 -11 -6 -82 -10 -163 -9 -96 0 -136 3
-120 9 12 5 28 7 35 4 8 -3 18 6 25 21 7 14 18 28 26 31 8 3 23 29 32 57 9 29
21 57 26 64 14 18 33 6 34 -22z m-196 -109 c0 -2 -7 -9 -15 -16 -13 -11 -14
-10 -9 4 5 14 24 23 24 12z m47 -13 c-9 -9 -19 -14 -23 -11 -10 10 6 28 24 28
15 0 15 -1 -1 -17z m-118 -10 c-7 -10 -15 -20 -16 -22 -2 -2 -3 5 -3 17 0 14
6 22 16 22 14 0 15 -3 3 -17z"/>
</g>
</svg>
