<?xml version="1.0" standalone="no"?>
<!DOCTYPE svg PUBLIC "-//W3C//DTD SVG 20010904//EN"
 "http://www.w3.org/TR/2001/REC-SVG-20010904/DTD/svg10.dtd">
<svg version="1.0" xmlns="http://www.w3.org/2000/svg"
 width="89.000000pt" height="40.000000pt" viewBox="0 0 89.000000 40.000000"
 preserveAspectRatio="xMidYMid meet">
<metadata>
Created by potrace 1.16, written by Peter Selinger 2001-2019
</metadata>
<g transform="translate(0.000000,40.000000) scale(0.100000,-0.100000)"
fill="#000000" stroke="none">
<path d="M163 331 c-20 -17 -21 -24 -14 -94 8 -85 17 -98 86 -119 22 -7 44
-17 48 -23 6 -7 10 -6 14 3 3 9 49 12 178 12 96 0 176 4 180 9 10 17 -27 21
-187 19 -87 -1 -160 0 -162 3 -3 3 -3 15 1 27 5 21 11 22 92 22 47 1 130 3
184 6 l97 5 1 -38 c1 -21 1 -41 0 -46 0 -4 3 -7 8 -7 9 0 16 38 27 142 6 65 6
68 -17 77 -14 5 -78 9 -144 9 -66 0 -176 3 -245 6 -111 5 -127 3 -147 -13z
m505 -44 c3 -16 -9 -18 -175 -17 -98 1 -186 -2 -195 -5 -14 -6 -18 -19 -18
-65 0 -56 -1 -57 -25 -52 -15 2 -40 18 -56 35 -27 27 -30 34 -23 71 3 23 12
44 18 48 6 5 114 7 241 5 211 -2 230 -3 233 -20z m4 -51 l5 -25 -179 -1 c-163
0 -179 1 -176 16 3 15 22 18 148 21 79 2 147 6 149 9 2 2 14 4 27 4 15 0 23
-7 26 -24z"/>
</g>
</svg>
