<?xml version="1.0" standalone="no"?>
<!DOCTYPE svg PUBLIC "-//W3C//DTD SVG 20010904//EN"
 "http://www.w3.org/TR/2001/REC-SVG-20010904/DTD/svg10.dtd">
<svg version="1.0" xmlns="http://www.w3.org/2000/svg"
 width="100.000000pt" height="37.000000pt" viewBox="0 0 100.000000 37.000000"
 preserveAspectRatio="xMidYMid meet">
<metadata>
Created by potrace 1.16, written by Peter Selinger 2001-2019
</metadata>
<g transform="translate(0.000000,37.000000) scale(0.100000,-0.100000)"
fill="#000000" stroke="none">
<path d="M805 240 c-4 -7 -120 -10 -323 -10 -174 0 -324 -1 -332 -3 -34 -6
-38 -17 -36 -96 1 -80 10 -107 26 -81 7 11 66 14 334 14 179 1 326 -2 326 -6
0 -5 4 -8 9 -8 8 0 28 83 38 163 4 32 2 37 -15 37 -12 0 -24 -5 -27 -10z
m-561 -46 c3 -9 6 -33 6 -55 l0 -39 -50 0 c-49 0 -50 1 -50 29 0 57 16 81 54
81 22 0 36 -6 40 -16z m187 11 c20 -5 29 -13 29 -26 0 -17 -7 -19 -66 -18 -66
2 -93 -9 -79 -31 5 -9 26 -10 72 -5 56 6 66 4 78 -12 14 -17 14 -17 15 2 0 16
2 17 9 6 8 -12 12 -12 25 -2 13 11 16 11 16 -3 0 -9 5 -16 10 -16 6 0 10 5 10
11 0 9 34 10 120 7 109 -5 142 -10 129 -22 -5 -5 -232 -10 -397 -8 l-133 2 6
38 c14 83 10 78 71 81 31 1 69 -1 85 -4z m367 -10 c14 -13 -17 -19 -123 -23
-107 -4 -115 -3 -115 14 0 18 8 19 116 17 64 -1 119 -5 122 -8z m-298 -2 c0
-5 -5 -15 -10 -23 -7 -12 -9 -10 -7 8 1 19 17 33 17 15z m34 -8 c-4 -8 -8 -15
-10 -15 -2 0 -4 7 -4 15 0 8 4 15 10 15 5 0 7 -7 4 -15z m266 -41 c0 -12 -6
-15 -22 -10 -13 3 -39 6 -58 7 l-35 2 40 7 c66 12 75 11 75 -6z"/>
</g>
</svg>
