<?xml version="1.0" standalone="no"?>
<!DOCTYPE svg PUBLIC "-//W3C//DTD SVG 20010904//EN"
 "http://www.w3.org/TR/2001/REC-SVG-20010904/DTD/svg10.dtd">
<svg version="1.0" xmlns="http://www.w3.org/2000/svg"
 width="89.000000pt" height="48.000000pt" viewBox="0 0 89.000000 48.000000"
 preserveAspectRatio="xMidYMid meet">
<metadata>
Created by potrace 1.16, written by Peter Selinger 2001-2019
</metadata>
<g transform="translate(0.000000,48.000000) scale(0.100000,-0.100000)"
fill="#000000" stroke="none">
<path d="M363 350 c-20 -8 -21 -14 -17 -67 7 -74 10 -83 29 -83 12 0 15 11 14
50 -1 28 1 53 4 56 3 4 52 10 109 14 57 4 108 9 113 10 6 1 21 2 35 1 24 -1
25 -3 25 -72 l0 -72 -300 4 c-295 4 -300 4 -300 -16 0 -15 6 -20 25 -19 14 1
151 5 305 9 154 4 282 9 284 11 11 10 20 119 13 156 l-4 27 -157 0 c-86 -1
-166 -5 -178 -9z"/>
<path d="M470 253 c1 -54 2 -57 16 -38 8 11 12 26 9 33 -3 8 -5 25 -5 38 0 13
-4 24 -10 24 -6 0 -10 -26 -10 -57z"/>
<path d="M560 286 c0 -13 3 -31 6 -40 11 -29 24 -16 24 24 0 29 -4 40 -15 40
-9 0 -15 -9 -15 -24z"/>
</g>
</svg>
