<?xml version="1.0" standalone="no"?>
<!DOCTYPE svg PUBLIC "-//W3C//DTD SVG 20010904//EN"
 "http://www.w3.org/TR/2001/REC-SVG-20010904/DTD/svg10.dtd">
<svg version="1.0" xmlns="http://www.w3.org/2000/svg"
 width="58.000000pt" height="48.000000pt" viewBox="0 0 58.000000 48.000000"
 preserveAspectRatio="xMidYMid meet">
<metadata>
Created by potrace 1.16, written by Peter Selinger 2001-2019
</metadata>
<g transform="translate(0.000000,48.000000) scale(0.100000,-0.100000)"
fill="#000000" stroke="none">
<path d="M265 430 c-3 -5 -12 -7 -19 -4 -15 6 -28 -8 -70 -79 l-31 -52 42 -85
c24 -46 43 -90 43 -97 0 -6 5 -15 12 -19 7 -5 9 -1 6 12 -32 111 -48 177 -48
196 0 23 53 88 71 88 24 0 119 -73 125 -96 12 -46 -23 -110 -92 -171 -35 -31
-61 -60 -58 -65 4 -6 23 6 43 24 20 19 61 53 91 76 86 65 92 73 86 107 -6 31
-47 75 -70 75 -7 0 -34 23 -60 50 -47 51 -60 58 -71 40z"/>
<path d="M263 229 c4 -50 10 -95 13 -101 14 -22 24 21 24 105 0 82 -1 87 -21
87 -21 0 -22 -3 -16 -91z"/>
</g>
</svg>
