<?xml version="1.0" standalone="no"?>
<!DOCTYPE svg PUBLIC "-//W3C//DTD SVG 20010904//EN"
 "http://www.w3.org/TR/2001/REC-SVG-20010904/DTD/svg10.dtd">
<svg version="1.0" xmlns="http://www.w3.org/2000/svg"
 width="122.000000pt" height="44.000000pt" viewBox="0 0 122.000000 44.000000"
 preserveAspectRatio="xMidYMid meet">
<metadata>
Created by potrace 1.16, written by Peter Selinger 2001-2019
</metadata>
<g transform="translate(0.000000,44.000000) scale(0.100000,-0.100000)"
fill="#000000" stroke="none">
<path d="M613 376 c-3 -5 -5 -39 -4 -77 1 -38 0 -69 -2 -69 -2 0 -50 16 -107
35 -56 20 -104 34 -105 33 -4 -4 -8 -151 -6 -195 1 -36 20 -45 28 -14 3 11 16
22 30 26 30 7 32 6 35 -28 1 -15 5 -27 9 -27 11 0 17 25 12 52 -4 22 0 27 28
37 65 22 69 19 69 -59 0 -40 4 -70 10 -70 6 0 10 7 10 15 0 15 27 16 435 20
109 1 115 3 115 25 0 11 -2 20 -5 20 -2 0 -42 9 -87 21 -137 34 -241 58 -280
64 -29 4 -38 11 -38 25 0 15 15 24 73 41 125 37 311 101 325 112 7 5 10 13 6
16 -9 10 -545 7 -551 -3z m457 -26 c-30 -10 -110 -36 -177 -57 l-123 -39 0 31
c0 30 -15 55 -32 55 -4 0 -8 -22 -8 -50 0 -48 -1 -49 -37 -59 -54 -15 -53 -16
-53 38 0 72 13 81 118 82 48 1 114 4 147 8 33 3 96 7 140 8 l80 1 -55 -18z
m-620 -107 c8 1 43 -5 78 -12 60 -13 81 -25 67 -39 -3 -3 -10 0 -15 8 -8 12
-10 12 -16 -3 -3 -9 -10 -14 -15 -11 -5 3 -9 1 -9 -4 0 -5 -9 -12 -21 -15 -11
-3 -19 -1 -17 5 2 5 6 8 9 6 7 -4 39 22 39 31 0 4 -18 5 -41 3 -35 -4 -40 -7
-35 -24 6 -24 -18 -52 -39 -45 -7 3 -16 1 -18 -6 -7 -17 -7 84 0 107 3 11 8
14 12 8 3 -6 13 -10 21 -9z m290 -33 c0 -5 -10 -10 -22 -10 -19 0 -20 2 -8 10
19 13 30 13 30 0z m-22 -36 c17 -3 22 -11 22 -34 0 -17 5 -30 10 -30 6 0 10
14 10 31 0 27 3 30 23 26 30 -8 358 -77 363 -77 3 0 3 -4 0 -8 -5 -8 -455 -5
-493 3 -20 5 -23 12 -23 49 0 23 2 45 5 48 5 5 33 2 83 -8z"/>
<path d="M430 201 c0 -6 5 -11 12 -11 6 0 3 -7 -8 -15 -16 -12 -17 -14 -3 -15
23 0 31 26 13 40 -10 9 -14 9 -14 1z"/>
<path d="M170 219 c0 -20 -3 -21 -65 -14 -62 6 -65 6 -65 -15 0 -20 3 -21 70
-14 69 7 70 6 70 -18 0 -23 1 -24 76 -21 110 5 131 22 27 23 l-83 0 0 30 0 30
80 0 c47 0 80 4 80 10 0 6 -38 10 -95 10 -90 0 -95 -1 -95 -21z"/>
</g>
</svg>
