<?xml version="1.0" standalone="no"?>
<!DOCTYPE svg PUBLIC "-//W3C//DTD SVG 20010904//EN"
 "http://www.w3.org/TR/2001/REC-SVG-20010904/DTD/svg10.dtd">
<svg version="1.0" xmlns="http://www.w3.org/2000/svg"
 width="84.000000pt" height="43.000000pt" viewBox="0 0 84.000000 43.000000"
 preserveAspectRatio="xMidYMid meet">
<metadata>
Created by potrace 1.16, written by Peter Selinger 2001-2019
</metadata>
<g transform="translate(0.000000,43.000000) scale(0.100000,-0.100000)"
fill="#000000" stroke="none">
<path d="M343 363 c-23 -15 -31 -43 -14 -43 6 0 46 -22 91 -49 l82 -49 -84
-49 c-65 -38 -84 -54 -86 -73 -6 -57 8 -57 145 5 204 91 216 97 240 106 13 5
23 17 23 28 0 14 -19 25 -87 49 -49 17 -110 36 -138 43 -27 7 -69 21 -93 31
-52 21 -51 21 -79 1z m217 -79 c36 -12 85 -28 109 -34 42 -11 43 -12 20 -24
-13 -6 -71 -31 -129 -54 -175 -70 -219 -76 -117 -15 29 17 60 40 70 51 17 18
15 20 -43 61 -33 23 -60 44 -60 47 0 9 87 -9 150 -32z"/>
<path d="M101 278 c-11 -32 -2 -116 14 -122 7 -2 56 -2 110 1 91 6 97 8 106
30 15 40 11 100 -7 107 -9 3 -60 6 -115 6 -94 0 -100 -1 -108 -22z m207 -56
l3 -43 -53 5 c-29 2 -70 5 -90 5 -41 1 -45 10 -28 56 10 25 12 26 87 23 l78
-3 3 -43z"/>
</g>
</svg>
