<?xml version="1.0" standalone="no"?>
<!DOCTYPE svg PUBLIC "-//W3C//DTD SVG 20010904//EN"
 "http://www.w3.org/TR/2001/REC-SVG-20010904/DTD/svg10.dtd">
<svg version="1.0" xmlns="http://www.w3.org/2000/svg"
 width="99.000000pt" height="60.000000pt" viewBox="0 0 99.000000 60.000000"
 preserveAspectRatio="xMidYMid meet">
<metadata>
Created by potrace 1.16, written by Peter Selinger 2001-2019
</metadata>
<g transform="translate(0.000000,60.000000) scale(0.100000,-0.100000)"
fill="#000000" stroke="none">
<path d="M840 460 c-9 -17 -21 -20 -90 -20 -43 0 -80 4 -82 8 -2 5 -43 -7 -91
-26 l-88 -35 -95 23 c-88 21 -96 22 -113 6 -10 -9 -42 -19 -70 -23 -70 -8 -85
-24 -78 -84 3 -25 1 -51 -4 -56 -16 -16 0 -40 42 -59 37 -16 48 -16 137 -4
131 18 231 20 267 5 38 -15 105 -29 124 -26 8 2 43 28 78 58 35 31 66 54 68
51 3 -3 -20 -29 -50 -58 -31 -29 -55 -54 -53 -55 2 -2 29 20 61 48 44 39 57
56 52 70 -9 23 -24 22 -54 -5 -22 -19 -21 -17 3 9 16 18 32 31 35 29 3 -2 20
2 36 9 19 9 23 13 10 12 -11 -2 -27 -7 -35 -11 -8 -5 -4 3 9 17 34 37 12 34
-24 -3 -16 -17 -33 -30 -39 -30 -6 0 12 23 39 52 47 48 40 50 -13 4 -23 -20
-23 -20 -16 -1 7 18 6 19 -12 5 -23 -18 -19 -11 40 63 21 26 34 47 28 47 -6 0
-16 -9 -22 -20z m-51 -57 c-8 -10 -18 -22 -24 -26 -7 -6 -7 -10 0 -13 32 -14
39 -23 27 -37 -7 -7 -10 -16 -7 -19 3 -2 -6 -15 -20 -28 -14 -13 -25 -19 -25
-13 0 6 -25 11 -60 12 -33 0 -60 -4 -60 -9 0 -10 9 -12 65 -15 17 0 36 -5 43
-9 7 -4 20 -2 30 6 15 12 16 11 3 -5 -8 -10 -27 -27 -42 -38 -28 -19 -28 -19
-101 0 -73 20 -100 20 -310 7 -53 -4 -117 10 -135 27 -11 12 -3 91 10 99 6 4
15 1 20 -7 4 -8 16 -15 25 -15 14 0 14 -2 3 -9 -7 -5 -11 -13 -7 -19 3 -6 2
-13 -4 -17 -26 -16 -4 -25 59 -25 86 0 107 19 24 22 l-58 2 50 3 c69 5 87 12
56 24 -14 6 -31 7 -38 5 -7 -3 -23 -1 -35 4 -19 7 -14 9 25 9 64 1 60 19 -5
23 -59 3 -72 20 -29 38 33 13 161 7 218 -11 26 -8 39 -6 75 13 39 21 98 32
202 36 35 2 37 1 25 -15z"/>
<path d="M405 340 c-3 -5 3 -13 12 -19 12 -7 13 -10 4 -11 -7 0 -11 -6 -8 -15
4 -8 2 -17 -4 -20 -5 -4 -7 -10 -4 -15 7 -12 165 -10 165 1 0 5 -3 8 -7 8 -5
-1 -25 -1 -45 0 -48 1 -50 21 -3 21 60 0 38 20 -22 21 l-58 1 60 13 c58 12 59
13 20 14 -22 1 -54 4 -72 7 -18 2 -35 0 -38 -6z m55 -60 c-8 -5 -19 -10 -25
-10 -5 0 -3 5 5 10 8 5 20 10 25 10 6 0 3 -5 -5 -10z"/>
<path d="M618 309 l-23 -5 25 -7 c37 -10 88 -8 95 3 3 6 1 11 -4 11 -33 4 -73
3 -93 -2z"/>
<path d="M840 417 c-28 -34 -29 -37 -6 -17 15 14 36 24 46 22 10 -2 22 2 26 9
5 9 1 10 -15 6 -18 -4 -20 -3 -10 9 6 8 8 14 3 13 -5 0 -25 -19 -44 -42z"/>
<path d="M890 399 c0 -5 5 -7 10 -4 6 3 10 8 10 11 0 2 -4 4 -10 4 -5 0 -10
-5 -10 -11z"/>
<path d="M827 202 c-74 -74 -87 -92 -68 -92 17 0 101 82 94 93 -3 6 11 25 33
44 21 18 35 33 29 33 -5 -1 -45 -35 -88 -78z"/>
<path d="M836 149 c-36 -40 -28 -48 9 -9 16 16 26 32 23 35 -2 3 -17 -9 -32
-26z"/>
<path d="M705 139 c-11 -17 1 -21 15 -4 8 9 8 15 2 15 -6 0 -14 -5 -17 -11z"/>
</g>
</svg>
