<?xml version="1.0" standalone="no"?>
<!DOCTYPE svg PUBLIC "-//W3C//DTD SVG 20010904//EN"
 "http://www.w3.org/TR/2001/REC-SVG-20010904/DTD/svg10.dtd">
<svg version="1.0" xmlns="http://www.w3.org/2000/svg"
 width="85.000000pt" height="53.000000pt" viewBox="0 0 85.000000 53.000000"
 preserveAspectRatio="xMidYMid meet">
<metadata>
Created by potrace 1.16, written by Peter Selinger 2001-2019
</metadata>
<g transform="translate(0.000000,53.000000) scale(0.100000,-0.100000)"
fill="#000000" stroke="none">
<path d="M434 405 c-4 -9 -15 -13 -28 -11 -11 3 -60 8 -109 11 -75 5 -88 4
-93 -10 -11 -29 9 -33 111 -24 89 8 101 7 113 -8 7 -10 11 -21 9 -27 -2 -5
-52 -10 -112 -10 -98 -1 -110 -3 -113 -19 -3 -17 2 -18 65 -12 150 13 158 12
161 -14 l4 -24 -114 4 c-107 4 -113 3 -113 -16 0 -17 5 -19 45 -15 25 2 74 5
110 5 51 0 65 -3 65 -15 0 -12 -18 -15 -105 -15 -142 0 -149 -19 -8 -23 102
-3 107 -4 110 -25 7 -52 35 -5 37 63 1 34 2 35 44 36 62 0 137 5 175 11 64 10
29 21 -89 28 l-121 8 6 58 c7 58 7 59 -19 59 -14 0 -28 -7 -31 -15z"/>
</g>
</svg>
