<?xml version="1.0" standalone="no"?>
<!DOCTYPE svg PUBLIC "-//W3C//DTD SVG 20010904//EN"
 "http://www.w3.org/TR/2001/REC-SVG-20010904/DTD/svg10.dtd">
<svg version="1.0" xmlns="http://www.w3.org/2000/svg"
 width="58.000000pt" height="100.000000pt" viewBox="0 0 58.000000 100.000000"
 preserveAspectRatio="xMidYMid meet">
<metadata>
Created by potrace 1.16, written by Peter Selinger 2001-2019
</metadata>
<g transform="translate(0.000000,100.000000) scale(0.100000,-0.100000)"
fill="#000000" stroke="none">
<path d="M315 929 c-16 -4 -48 -12 -70 -18 -22 -5 -53 -13 -68 -16 -19 -4 -25
-10 -20 -18 4 -7 7 -25 8 -42 0 -26 11 -36 88 -87 48 -32 92 -56 96 -54 8 5
17 62 28 177 5 63 -4 72 -62 58z m25 -119 c0 -49 -3 -90 -8 -90 -10 0 -142
120 -142 129 0 9 105 49 133 50 15 1 17 -10 17 -89z"/>
<path d="M260 428 c-77 -48 -110 -77 -110 -95 0 -24 35 -54 98 -84 108 -50
155 -54 57 -5 -61 31 -105 68 -105 88 1 23 24 44 93 82 l67 38 0 -60 c0 -87
12 -182 21 -176 5 3 9 23 9 45 0 22 5 71 11 109 14 81 7 96 -43 98 -23 1 -54
-12 -98 -40z"/>
</g>
</svg>
