<?xml version="1.0" standalone="no"?>
<!DOCTYPE svg PUBLIC "-//W3C//DTD SVG 20010904//EN"
 "http://www.w3.org/TR/2001/REC-SVG-20010904/DTD/svg10.dtd">
<svg version="1.0" xmlns="http://www.w3.org/2000/svg"
 width="114.000000pt" height="58.000000pt" viewBox="0 0 114.000000 58.000000"
 preserveAspectRatio="xMidYMid meet">
<metadata>
Created by potrace 1.16, written by Peter Selinger 2001-2019
</metadata>
<g transform="translate(0.000000,58.000000) scale(0.100000,-0.100000)"
fill="#000000" stroke="none">
<path d="M526 453 c-10 -3 -44 -26 -76 -51 -77 -62 -128 -89 -145 -76 -7 5
-39 31 -70 58 -42 37 -59 46 -67 38 -9 -9 -7 -17 7 -32 10 -11 22 -20 28 -20
15 0 69 -42 62 -49 -4 -3 -37 -6 -73 -6 -94 0 -90 -19 5 -25 l78 -5 -60 -40
c-33 -21 -62 -40 -64 -42 -2 -1 -1 -10 3 -19 6 -15 11 -14 39 12 45 42 110 84
129 84 17 0 89 -51 128 -90 31 -31 64 -40 144 -40 71 0 131 14 211 50 22 9 51
21 65 25 14 4 54 21 89 37 111 52 58 41 -85 -18 -159 -64 -236 -80 -319 -65
-69 13 -108 32 -160 76 l-40 35 128 0 127 0 0 -40 c0 -22 4 -40 9 -40 5 0 9 6
8 12 0 7 1 25 1 41 l2 27 88 0 c48 0 94 5 102 10 10 7 -18 10 -87 10 l-103 0
0 46 c0 27 -4 43 -10 39 -5 -3 -10 -24 -10 -46 l0 -39 -127 0 c-74 0 -123 4
-117 9 35 33 150 101 179 107 53 10 131 -3 257 -43 191 -59 238 -72 238 -64 0
4 -69 29 -152 55 -279 87 -306 93 -362 79z"/>
</g>
</svg>
