<?xml version="1.0" standalone="no"?>
<!DOCTYPE svg PUBLIC "-//W3C//DTD SVG 20010904//EN"
 "http://www.w3.org/TR/2001/REC-SVG-20010904/DTD/svg10.dtd">
<svg version="1.0" xmlns="http://www.w3.org/2000/svg"
 width="93.000000pt" height="54.000000pt" viewBox="0 0 93.000000 54.000000"
 preserveAspectRatio="xMidYMid meet">
<metadata>
Created by potrace 1.16, written by Peter Selinger 2001-2019
</metadata>
<g transform="translate(0.000000,54.000000) scale(0.100000,-0.100000)"
fill="#000000" stroke="none">
<path d="M240 470 c0 -5 -6 -10 -14 -10 -11 0 -12 -8 -5 -37 17 -73 13 -83
-28 -84 -66 -2 -86 -12 -87 -42 -1 -19 9 -38 36 -64 21 -20 38 -41 38 -45 0
-4 -24 -8 -54 -8 -34 0 -58 -5 -65 -14 -26 -31 -9 -31 237 10 17 3 32 1 32 -4
0 -8 -45 -16 -225 -39 -46 -6 -52 -10 -39 -23 6 -6 45 -4 104 5 179 28 160 30
160 -20 0 -30 5 -45 16 -49 25 -10 84 -7 84 4 0 6 -18 10 -41 10 l-40 0 3 42
3 43 51 3 51 3 -5 -51 c-3 -30 -1 -50 6 -50 10 0 22 32 22 65 1 37 16 45 103
56 99 13 123 36 27 26 -33 -4 -72 -10 -85 -13 -14 -3 -25 -2 -25 4 0 5 30 13
67 17 96 10 127 27 38 20 -50 -3 -66 -2 -55 6 16 11 151 79 157 79 1 0 19 -33
39 -72 41 -82 42 -83 49 -76 3 3 -10 38 -29 78 -34 70 -38 103 -11 80 7 -5 27
-45 45 -88 34 -81 45 -99 53 -85 2 4 -13 46 -34 93 -21 47 -38 90 -38 96 -1 6
14 19 33 29 19 11 33 22 30 27 -3 4 -18 1 -34 -7 -24 -13 -33 -13 -50 -3 -30
19 -25 25 33 38 61 15 69 19 62 30 -3 5 -20 4 -38 -1 -17 -5 -115 -32 -217
-60 l-184 -51 -39 44 c-21 23 -46 53 -55 66 -9 14 -22 22 -32 19 -10 -2 -25 0
-34 5 -10 6 -16 5 -16 -2z m113 -102 l79 -71 56 28 c32 15 85 36 120 46 l62
18 15 -28 14 -28 -88 -41 c-48 -23 -94 -42 -101 -42 -8 0 -23 -8 -34 -19 -12
-10 -42 -21 -68 -24 -46 -6 -48 -6 -48 19 0 33 -33 29 -38 -4 -3 -16 -10 -22
-28 -22 -24 0 -24 1 11 31 55 49 41 55 -23 10 -32 -23 -65 -41 -74 -41 -13 0
-68 76 -68 94 0 6 68 26 87 26 6 0 13 -10 16 -22 3 -22 4 -22 15 5 6 15 16 27
22 27 5 0 10 5 10 10 0 6 -7 10 -15 10 -11 0 -15 12 -15 45 0 25 3 45 8 45 4
0 42 -32 85 -72z m373 15 c15 -20 18 -33 7 -33 -5 0 -13 11 -20 25 -13 29 -6
33 13 8z m-276 -203 c0 -5 -24 -10 -52 -9 -39 0 -48 3 -33 9 28 12 85 12 85 0z"/>
</g>
</svg>
