<?xml version="1.0" standalone="no"?>
<!DOCTYPE svg PUBLIC "-//W3C//DTD SVG 20010904//EN"
 "http://www.w3.org/TR/2001/REC-SVG-20010904/DTD/svg10.dtd">
<svg version="1.0" xmlns="http://www.w3.org/2000/svg"
 width="121.000000pt" height="248.000000pt" viewBox="0 0 121.000000 248.000000"
 preserveAspectRatio="xMidYMid meet">
<metadata>
Created by potrace 1.16, written by Peter Selinger 2001-2019
</metadata>
<g transform="translate(0.000000,248.000000) scale(0.100000,-0.100000)"
fill="#000000" stroke="none">
<path d="M100 2294 c0 -46 -5 -70 -15 -81 -22 -21 -15 -35 26 -55 28 -15 61
-18 178 -18 128 0 143 -2 125 -14 -18 -14 -18 -15 -1 -22 12 -4 29 1 47 15 16
11 39 21 52 21 23 -1 22 -1 -4 -21 -16 -11 -28 -25 -28 -30 0 -16 23 -10 46
12 25 23 69 20 46 -3 -18 -18 -15 -28 8 -28 11 0 23 7 27 16 3 9 13 14 25 11
15 -4 18 -1 13 14 -12 36 25 36 57 0 16 -18 32 -30 35 -27 4 3 -3 16 -15 29
-27 29 -28 37 -2 37 11 0 20 5 20 10 0 6 -10 10 -21 10 -18 0 -20 2 -9 16 12
13 10 14 -14 3 -20 -10 -29 -10 -38 -1 -9 9 -7 15 8 26 10 8 16 18 11 22 -4 4
-13 2 -19 -4 -17 -17 -25 -15 -31 9 -7 25 -43 22 -41 -3 3 -29 -22 -27 -40 3
-18 31 -30 36 -41 18 -4 -6 2 -21 14 -33 12 -12 21 -27 21 -33 0 -7 8 -14 18
-16 15 -4 15 -5 -2 -6 -11 -1 -38 19 -62 46 -33 36 -47 44 -55 36 -9 -9 -5
-19 19 -42 49 -45 42 -51 -50 -50 -123 1 -124 2 -175 99 -45 86 -56 99 -68 80
-6 -9 23 -59 87 -153 l20 -27 -49 1 c-26 1 -62 7 -80 14 -17 8 -35 10 -39 7
-4 -4 -4 2 1 13 19 51 33 140 23 152 -21 25 -28 12 -28 -53z m520 -93 c0 -12
-29 -23 -42 -15 -6 4 -5 10 3 15 18 11 39 11 39 0z m20 -21 c0 -5 -8 -10 -17
-10 -15 0 -16 2 -3 10 19 12 20 12 20 0z m-32 -52 c-3 -7 -11 -13 -18 -13 -7
0 -15 6 -17 13 -3 7 4 12 17 12 13 0 20 -5 18 -12z"/>
<path d="M196 1852 c-12 -12 -5 -36 20 -69 16 -21 23 -40 19 -52 -4 -13 3 -26
22 -41 25 -19 38 -21 153 -20 153 2 145 3 131 -14 -8 -10 -8 -16 2 -25 11 -8
19 -5 37 14 26 28 73 35 64 10 -4 -9 0 -16 7 -17 8 0 19 -2 24 -2 6 -1 16 -5
23 -10 19 -11 27 1 13 18 -7 8 -10 20 -6 26 9 15 45 12 51 -4 5 -14 44 -30 44
-18 0 3 -7 14 -17 24 -15 17 -14 18 28 18 24 0 51 5 59 10 18 11 14 12 -67 10
-58 -1 -79 9 -53 25 6 3 10 11 10 17 0 6 -8 4 -18 -6 -18 -15 -20 -15 -37 4
-23 26 -39 25 -58 -2 l-15 -23 -31 29 c-25 24 -34 27 -44 17 -10 -10 -6 -17
17 -37 15 -14 25 -28 22 -32 -4 -3 -52 -6 -108 -7 l-101 0 -30 78 c-29 72 -47
92 -62 66 -4 -5 12 -40 34 -77 22 -37 36 -69 30 -71 -18 -6 -68 21 -74 40 -4
10 -10 19 -15 19 -5 0 -11 15 -15 33 -12 57 -15 65 -35 70 -10 3 -21 2 -24 -1z
m492 -124 c19 -19 14 -28 -12 -28 -27 0 -41 14 -31 30 8 14 28 13 43 -2z"/>
<path d="M108 1426 c-26 -19 -23 -27 32 -76 27 -25 50 -48 50 -52 0 -5 -22 -8
-50 -8 -39 0 -52 4 -60 20 -14 26 -36 26 -43 0 -10 -38 17 -45 217 -51 105 -3
183 -6 174 -7 -21 -3 -50 -31 -43 -43 9 -14 17 -11 55 21 22 19 46 30 65 30
l30 -1 -27 -17 c-16 -9 -28 -22 -28 -29 0 -20 14 -15 40 12 13 14 32 25 42 25
21 0 23 -11 6 -28 -17 -17 -1 -28 21 -15 14 9 21 9 30 0 15 -15 27 -1 13 16
-22 26 1 27 35 1 18 -14 33 -21 33 -15 0 5 -12 19 -27 30 l-28 20 26 1 c15 0
35 -11 49 -25 13 -14 28 -25 33 -25 6 0 1 10 -11 23 -12 13 -22 26 -22 30 0 3
19 7 43 9 71 5 43 23 -31 20 l-67 -4 45 46 c53 55 43 62 -12 9 -31 -30 -40
-35 -50 -24 -11 10 -9 15 6 27 11 7 17 17 13 21 -4 3 -15 -1 -25 -10 -17 -15
-19 -15 -35 3 -20 24 -47 26 -47 5 0 -18 -12 -19 -27 -4 -16 16 -28 -8 -13
-26 20 -24 -10 -19 -37 7 -21 20 -25 21 -39 6 -15 -15 -14 -18 15 -33 17 -9
29 -20 26 -25 -9 -15 -215 -12 -245 3 -14 7 -43 43 -65 80 -22 37 -42 67 -45
67 -3 0 -13 -7 -22 -14z m497 -95 c7 -12 -12 -24 -25 -16 -11 7 -4 25 10 25 5
0 11 -4 15 -9z m-40 -32 c10 -14 1 -21 -19 -13 -9 3 -13 10 -10 15 7 12 21 11
29 -2z m75 1 c0 -5 -7 -10 -15 -10 -8 0 -15 5 -15 10 0 6 7 10 15 10 8 0 15
-4 15 -10z"/>
<path d="M1065 1371 c-9 -29 3 -45 21 -30 12 10 12 14 2 21 -9 7 -7 8 7 6 34
-6 30 -36 -9 -59 -53 -31 -47 -48 16 -46 31 1 53 7 56 15 2 7 -6 12 -24 12
-24 0 -26 2 -12 13 20 15 30 48 20 64 -4 7 -22 15 -39 19 -26 5 -32 2 -38 -15z"/>
<path d="M221 1011 c-12 -7 -7 -20 22 -64 45 -68 46 -79 6 -75 -40 4 -59 30
-42 58 8 12 9 21 2 25 -20 13 -39 -17 -39 -60 0 -53 9 -56 164 -55 165 2 155
3 128 -16 -12 -8 -20 -20 -17 -25 12 -18 40 -9 59 19 14 22 25 28 43 24 29 -5
42 -30 22 -42 -18 -12 -4 -24 30 -26 24 -1 27 1 23 26 -6 42 17 48 47 11 29
-35 50 -43 27 -9 -28 40 -21 44 76 43 63 0 93 4 95 12 3 9 -20 11 -96 8 -56
-2 -101 -2 -101 1 0 3 11 21 25 41 31 47 22 58 -11 15 -31 -40 -39 -40 -53 -2
-12 37 -24 38 -58 3 -15 -14 -28 -22 -30 -16 -2 6 -10 19 -17 29 -12 16 -16
16 -30 5 -15 -13 -15 -15 0 -32 9 -10 21 -16 26 -13 6 4 8 -2 6 -12 -2 -13
-12 -19 -31 -18 -15 0 -63 1 -108 2 l-80 2 -34 75 c-19 41 -36 75 -37 75 -2 0
-9 -4 -17 -9z m385 -118 c19 -26 17 -33 -10 -33 -30 0 -42 16 -26 35 16 19 20
19 36 -2z"/>
<path d="M1120 965 c-13 -16 -6 -65 9 -65 5 0 12 12 16 27 5 21 8 24 16 12 14
-22 11 -35 -16 -60 -13 -13 -25 -27 -25 -31 0 -12 78 -10 85 2 3 6 -3 10 -14
10 -22 0 -28 14 -11 25 18 11 12 73 -9 85 -26 14 -36 13 -51 -5z"/>
<path d="M290 636 c0 -8 36 -40 81 -73 44 -32 88 -63 97 -70 14 -10 4 -12 -54
-13 l-71 0 -34 66 c-32 63 -52 84 -66 70 -6 -6 80 -138 104 -157 11 -10 186
-13 278 -5 17 1 41 0 55 -4 24 -6 23 -7 -23 -34 -26 -15 -44 -32 -41 -37 11
-18 38 -8 80 31 24 22 49 40 56 40 7 0 28 -15 47 -32 21 -20 27 -23 13 -7 -12
14 -22 28 -22 32 0 4 29 7 65 7 36 0 65 -4 65 -9 0 -5 -17 -23 -37 -39 -32
-25 -36 -33 -25 -44 11 -11 19 -7 47 25 28 33 34 35 45 22 7 -9 15 -13 18 -10
3 2 -1 11 -7 19 -20 24 -4 36 47 36 l47 0 -40 -34 c-36 -31 -38 -35 -21 -42
19 -7 41 12 66 55 7 14 14 11 44 -18 43 -41 62 -34 22 8 l-28 30 33 3 c19 2
32 7 29 13 -3 5 -18 8 -35 6 l-30 -3 34 36 c19 20 30 36 25 36 -6 0 -23 -14
-39 -30 -16 -17 -34 -30 -39 -30 -17 0 -36 37 -29 57 5 15 3 16 -7 6 -11 -10
-18 -9 -35 7 -14 14 -24 16 -35 9 -13 -8 -11 -13 9 -29 23 -20 23 -21 6 -40
-31 -34 -67 -25 -115 26 -25 27 -47 43 -56 40 -23 -9 -16 -22 26 -50 22 -14
40 -28 40 -31 0 -3 -26 -5 -57 -5 l-58 1 24 20 c13 11 21 22 17 26 -3 4 -17
-4 -30 -16 l-23 -22 -51 53 c-42 44 -53 51 -64 39 -11 -11 -8 -17 16 -35 16
-11 41 -31 55 -43 l26 -22 -114 6 c-127 7 -115 1 -227 106 -71 65 -104 82
-104 53z m745 -156 c4 -6 -5 -10 -20 -10 -15 0 -24 4 -20 10 3 6 12 10 20 10
8 0 17 -4 20 -10z"/>
</g>
</svg>
