<?xml version="1.0" standalone="no"?>
<!DOCTYPE svg PUBLIC "-//W3C//DTD SVG 20010904//EN"
 "http://www.w3.org/TR/2001/REC-SVG-20010904/DTD/svg10.dtd">
<svg version="1.0" xmlns="http://www.w3.org/2000/svg"
 width="117.000000pt" height="86.000000pt" viewBox="0 0 117.000000 86.000000"
 preserveAspectRatio="xMidYMid meet">
<metadata>
Created by potrace 1.16, written by Peter Selinger 2001-2019
</metadata>
<g transform="translate(0.000000,86.000000) scale(0.100000,-0.100000)"
fill="#000000" stroke="none">
<path d="M805 734 c-71 -41 -150 -85 -175 -98 -144 -73 -239 -129 -244 -141
-5 -13 -36 -22 -36 -10 0 2 -7 30 -16 62 -8 32 -17 65 -19 73 -2 8 -4 16 -4
18 -1 1 -27 -11 -58 -27 -32 -16 -78 -35 -102 -42 -51 -15 -61 -32 -34 -62 20
-21 43 -60 43 -71 0 -3 -7 -6 -15 -6 -20 0 -19 -9 6 -75 12 -34 18 -66 15 -81
-5 -18 0 -30 19 -48 14 -13 25 -31 25 -40 0 -9 5 -16 11 -16 6 0 9 10 7 23 -4
20 2 25 51 39 33 10 74 32 99 54 51 44 49 55 -5 21 -54 -36 -112 -51 -144 -39
-20 8 -29 23 -42 68 -9 32 -14 60 -12 63 3 2 44 15 92 27 49 13 126 35 173 49
83 26 201 54 410 99 111 24 180 46 180 57 0 6 -74 -10 -297 -66 -106 -26 -102
-17 27 56 69 39 145 82 169 95 24 14 45 24 46 22 1 -2 11 -19 21 -38 29 -55
29 -12 0 54 -17 39 -30 56 -43 55 -10 0 -76 -34 -148 -75z m153 35 c1 -9 -8
-20 -23 -27 -33 -15 -32 -15 -39 4 -7 19 21 45 44 41 8 -1 16 -9 18 -18z m-83
-49 c0 -8 -10 -16 -22 -18 -22 -3 -32 16 -16 32 12 11 38 2 38 -14z m-66 -24
c10 -12 7 -18 -19 -31 -24 -13 -35 -14 -44 -5 -8 8 -5 16 14 30 30 24 34 24
49 6z m-79 -50 c0 -19 -17 -29 -37 -22 -12 5 -13 9 -3 21 16 19 40 19 40 1z
m-65 -35 c7 -13 -32 -34 -47 -25 -7 5 -5 11 7 21 22 15 32 16 40 4z m-335
-128 c0 -12 -17 -20 -62 -28 -87 -17 -82 -19 -102 25 -23 47 -21 49 55 90 l54
28 27 -51 c15 -29 27 -57 28 -64z m270 90 c-1 -23 -33 -42 -85 -52 -32 -6 -61
-11 -64 -11 -5 0 24 17 99 57 28 14 50 17 50 6z"/>
<path d="M1040 603 c-25 -14 -72 -43 -105 -63 -33 -20 -98 -58 -144 -84 l-84
-48 -17 22 c-21 28 -42 18 -34 -16 5 -21 1 -27 -40 -45 -48 -21 -53 -28 -35
-46 9 -9 21 -5 50 14 38 25 59 24 59 -2 0 -18 50 -146 61 -159 22 -24 18 11
-10 100 -17 53 -31 100 -31 104 0 4 60 42 133 85 144 85 257 155 257 161 0 9
-17 2 -60 -23z"/>
<path d="M433 334 c-3 -9 9 -48 27 -88 18 -39 39 -91 48 -116 33 -98 29 -93
73 -87 45 6 116 40 229 112 71 45 39 37 -67 -15 -165 -82 -188 -73 -239 87
-34 106 -57 142 -71 107z"/>
<path d="M635 313 c-29 -6 -83 -32 -90 -43 -20 -32 87 1 117 37 11 13 8 14
-27 6z"/>
<path d="M640 253 c-19 -8 -46 -19 -59 -24 -16 -7 -21 -13 -14 -20 11 -11 113
35 113 52 0 5 -1 9 -2 8 -2 0 -19 -8 -38 -16z"/>
<path d="M643 194 c-49 -22 -69 -44 -41 -44 17 0 98 50 98 60 0 6 -1 10 -2 9
-2 0 -27 -11 -55 -25z"/>
</g>
</svg>
