<?xml version="1.0" standalone="no"?>
<!DOCTYPE svg PUBLIC "-//W3C//DTD SVG 20010904//EN"
 "http://www.w3.org/TR/2001/REC-SVG-20010904/DTD/svg10.dtd">
<svg version="1.0" xmlns="http://www.w3.org/2000/svg"
 width="134.000000pt" height="58.000000pt" viewBox="0 0 134.000000 58.000000"
 preserveAspectRatio="xMidYMid meet">
<metadata>
Created by potrace 1.16, written by Peter Selinger 2001-2019
</metadata>
<g transform="translate(0.000000,58.000000) scale(0.100000,-0.100000)"
fill="#000000" stroke="none">
<path d="M643 460 c-23 -12 -65 -48 -94 -81 -30 -32 -59 -59 -65 -59 -6 0 -28
20 -48 45 -37 44 -66 58 -66 31 0 -7 7 -19 15 -26 9 -7 26 -27 37 -43 l22 -30
-110 6 c-95 5 -111 9 -126 28 -31 37 -22 46 57 58 41 7 75 15 75 18 0 3 -36 2
-80 -1 l-80 -7 0 30 c0 43 -28 42 -32 -1 -2 -27 -8 -34 -30 -36 -14 -2 -32
-10 -39 -19 -11 -13 -7 -14 34 -8 l47 7 0 -41 c0 -32 5 -44 26 -57 22 -15 38
-16 132 -7 59 5 109 8 112 6 2 -2 -20 -26 -50 -53 -40 -35 -52 -51 -44 -59 8
-9 27 5 69 49 33 33 67 60 77 60 10 0 36 -16 58 -36 45 -41 54 -35 13 8 l-27
28 25 -1 c54 -2 73 -13 76 -47 4 -33 -5 -40 -25 -20 -9 9 -12 9 -12 -4 0 -19
62 -62 112 -78 59 -18 136 3 274 76 100 52 132 64 187 70 78 8 88 22 20 26
-42 3 -66 -6 -178 -59 -118 -57 -233 -91 -250 -75 -3 3 -5 25 -5 50 0 41 2 44
23 38 12 -3 32 -6 45 -6 18 0 22 -6 22 -32 0 -20 3 -28 8 -21 7 12 -5 214 -14
222 -12 12 -13 -13 -6 -83 7 -67 6 -76 -7 -72 -9 3 -31 7 -48 11 -30 6 -33 10
-33 44 0 21 -3 59 -6 85 l-7 46 37 0 c44 0 161 -38 264 -86 75 -34 133 -43
162 -24 11 7 -2 10 -42 10 -46 0 -73 8 -139 40 -100 49 -208 86 -274 94 -40 5
-59 2 -92 -14z m72 -61 c4 -22 5 -42 2 -45 -2 -3 -21 -7 -40 -11 -33 -5 -37
-3 -43 21 -8 35 -22 33 -16 -3 4 -27 2 -29 -43 -35 -26 -4 -49 -5 -52 -2 -13
13 139 114 174 115 6 1 14 -17 18 -40z m9 -119 c-5 -4 -26 -5 -47 -3 -49 7
-47 33 3 49 33 11 36 10 44 -13 4 -14 4 -28 0 -33z m-104 15 c0 -16 -28 -19
-70 -8 l-25 7 25 7 c43 12 70 10 70 -6z m86 -45 c18 0 23 -7 26 -42 3 -24 3
-45 2 -47 -2 -2 -24 2 -49 9 -44 12 -45 14 -45 52 0 37 2 40 23 34 12 -3 32
-6 43 -6z"/>
<path d="M931 303 c-1 -50 3 -83 9 -83 11 0 11 90 0 135 -5 22 -8 7 -9 -52z"/>
</g>
</svg>
