<?xml version="1.0" standalone="no"?>
<!DOCTYPE svg PUBLIC "-//W3C//DTD SVG 20010904//EN"
 "http://www.w3.org/TR/2001/REC-SVG-20010904/DTD/svg10.dtd">
<svg version="1.0" xmlns="http://www.w3.org/2000/svg"
 width="140.000000pt" height="286.000000pt" viewBox="0 0 140.000000 286.000000"
 preserveAspectRatio="xMidYMid meet">
<metadata>
Created by potrace 1.16, written by Peter Selinger 2001-2019
</metadata>
<g transform="translate(0.000000,286.000000) scale(0.100000,-0.100000)"
fill="#000000" stroke="none">
<path d="M1382 2398 c-1 -255 3 -503 7 -553 5 -58 9 105 10 463 0 308 -3 552
-8 552 -5 0 -9 -207 -9 -462z"/>
<path d="M372 2713 c-31 -25 -35 -25 -43 -10 -11 19 -18 21 -38 8 -12 -8 -12
-12 -3 -24 10 -12 9 -15 -5 -13 -12 0 -19 -7 -21 -21 -2 -12 -13 -25 -25 -29
-31 -10 -100 -54 -94 -61 3 -3 31 8 61 25 31 17 56 26 56 20 0 -12 -41 -47
-55 -48 -17 -1 -60 -38 -53 -45 4 -4 27 7 52 24 32 21 46 26 46 16 0 -8 -20
-26 -45 -41 -25 -14 -45 -30 -45 -35 0 -11 28 -1 62 23 14 10 32 18 38 18 16
0 -26 -32 -63 -48 -27 -12 -37 -32 -15 -32 6 0 32 13 57 28 l46 29 245 -5
c199 -3 241 -6 227 -17 -9 -7 -17 -17 -17 -23 0 -24 20 -20 56 13 36 34 64 45
64 26 0 -5 -10 -15 -22 -24 -18 -12 -20 -18 -11 -27 9 -10 14 -8 25 9 16 27
38 27 38 0 0 -14 6 -19 18 -17 9 1 23 -1 31 -6 11 -7 13 -4 7 18 -8 32 0 33
31 4 29 -27 42 -17 14 11 -12 12 -21 26 -21 31 0 22 26 8 63 -32 31 -35 37
-39 31 -19 -4 14 -16 33 -28 43 -18 15 -19 17 -3 18 24 0 22 20 -3 20 -24 0
-26 17 -3 42 9 10 12 18 7 18 -5 0 -15 -9 -22 -21 -11 -16 -16 -18 -27 -9 -8
7 -13 16 -10 20 3 4 -5 10 -16 13 -15 4 -23 0 -26 -14 -3 -10 -10 -19 -15 -19
-5 0 -6 10 -2 22 6 20 5 21 -8 10 -13 -10 -18 -9 -28 3 -11 13 -15 13 -21 3
-5 -7 -6 -21 -3 -30 7 -24 -9 -23 -31 2 -18 20 -45 27 -45 12 0 -5 9 -17 20
-27 11 -10 20 -22 20 -27 0 -4 -75 -8 -167 -8 l-168 1 -24 37 c-22 35 -22 37
-5 49 49 32 56 43 16 23 -42 -20 -45 -20 -63 -4 -25 22 -24 28 6 44 14 7 25
18 25 23 0 5 -15 0 -34 -11 -28 -17 -37 -18 -46 -7 -8 10 -3 18 25 35 19 12
35 26 35 31 0 15 -13 10 -48 -18z m-32 -73 c0 -10 -39 -34 -46 -27 -3 2 -2 12
2 21 7 17 44 23 44 6z m30 -29 c0 -5 -18 -18 -40 -30 -46 -24 -57 -6 -12 21
31 18 52 22 52 9z m30 -26 c0 -2 -18 -14 -40 -25 -43 -22 -55 -13 -17 13 21
15 57 23 57 12z m41 -41 l24 -27 -34 7 c-18 3 -43 6 -55 6 -21 1 -21 1 3 20
30 26 33 25 62 -6z m444 -14 c3 -5 -1 -10 -10 -10 -9 0 -13 5 -10 10 3 6 8 10
10 10 2 0 7 -4 10 -10z m70 0 c3 -5 1 -10 -4 -10 -6 0 -11 5 -11 10 0 6 2 10
4 10 3 0 8 -4 11 -10z m-25 -40 c0 -5 -7 -10 -15 -10 -8 0 -15 5 -15 10 0 6 7
10 15 10 8 0 15 -4 15 -10z"/>
<path d="M435 2639 c-28 -19 -28 -20 -5 -14 27 8 46 22 39 29 -3 3 -18 -4 -34
-15z"/>
<path d="M2 2538 c-2 -44 0 -48 21 -48 20 1 20 2 5 13 -9 7 -18 29 -21 48 -3
28 -4 26 -5 -13z"/>
<path d="M0 2470 c0 -5 5 -10 11 -10 5 0 7 5 4 10 -3 6 -8 10 -11 10 -2 0 -4
-4 -4 -10z"/>
<path d="M345 2229 c-4 -5 -4 -18 0 -28 6 -21 -9 -37 -48 -46 -37 -10 -59 -42
-46 -66 14 -27 62 -49 106 -49 l38 -1 -27 -15 c-16 -8 -28 -19 -28 -24 0 -14
3 -13 55 14 41 22 60 25 163 27 112 1 117 0 114 -19 -5 -33 13 -34 47 -2 17
17 38 30 46 30 17 0 20 -16 5 -25 -15 -9 -12 -25 6 -32 9 -3 20 0 24 7 7 11
11 11 24 1 18 -15 22 -1 6 15 -8 8 -6 15 5 24 12 10 18 10 30 0 9 -7 14 -19
11 -26 -3 -8 2 -18 12 -23 13 -7 23 -2 43 22 l27 32 23 -20 23 -20 -17 27
c-23 36 -22 38 12 38 36 0 61 9 61 22 0 6 -13 7 -32 3 l-33 -7 19 21 c31 34
11 35 -28 1 l-36 -32 -21 37 c-14 23 -27 34 -36 31 -8 -3 -16 -6 -18 -6 -2 0
-1 -9 2 -19 3 -11 15 -22 26 -26 20 -7 21 -8 3 -12 -10 -3 -21 -1 -25 4 -3 4
-15 13 -26 19 -11 7 -19 18 -19 26 1 10 -6 13 -22 10 -15 -3 -24 -11 -24 -23
0 -26 -28 -24 -50 4 -15 18 -21 20 -32 9 -11 -11 -9 -16 12 -32 14 -10 22 -21
19 -24 -3 -3 -62 -7 -131 -8 l-125 -3 30 22 c16 12 35 24 41 26 6 2 8 8 3 12
-4 5 -25 -2 -47 -14 -22 -12 -45 -19 -50 -16 -15 10 -3 23 42 46 54 28 40 37
-17 10 -51 -24 -55 -25 -55 -11 0 5 19 19 43 31 23 12 36 24 30 26 -7 3 -29
-5 -48 -17 -32 -20 -55 -20 -55 -1 0 4 18 16 40 26 22 10 40 22 40 27 0 13
-16 9 -54 -13 -31 -18 -37 -19 -42 -6 -7 19 -31 29 -39 16z m40 -79 c5 -8 -62
-50 -80 -50 -17 0 -1 32 23 44 32 18 49 20 57 6z m25 -32 c0 -11 -21 -25 -67
-45 -27 -11 -12 16 20 36 37 24 47 26 47 9z m418 -35 c2 -8 -6 -13 -22 -13
-25 0 -33 10 -19 24 10 10 36 3 41 -11z m-390 -5 c-5 -16 -48 -24 -48 -10 0
11 17 20 38 21 8 1 12 -5 10 -11z m482 -28 c-19 -13 -30 -13 -30 0 0 6 10 10
23 10 18 0 19 -2 7 -10z"/>
<path d="M1007 1719 c-18 -10 -18 -11 0 -25 17 -13 16 -15 -11 -38 l-30 -25
-33 30 c-35 30 -48 35 -57 21 -3 -5 13 -19 35 -31 22 -13 38 -25 36 -27 -2 -2
-42 -9 -88 -14 -100 -12 -265 -39 -284 -46 -9 -4 -28 15 -51 50 -20 31 -43 56
-50 56 -26 0 -20 -26 14 -60 l35 -35 -24 -3 c-14 -2 -38 2 -53 8 -25 9 -28 14
-23 43 3 17 8 40 12 50 5 12 2 17 -8 17 -9 0 -19 -9 -22 -20 -3 -11 -9 -20
-13 -20 -4 0 -55 -13 -114 -29 -112 -29 -142 -27 -41 3 165 50 204 73 61 38
-46 -12 -100 -24 -120 -28 -23 -4 -38 -12 -38 -20 0 -8 5 -14 11 -14 6 0 9 -7
5 -15 -8 -21 7 -19 120 15 54 16 102 30 105 30 3 0 4 -13 1 -28 -4 -29 -21
-36 -157 -64 -58 -12 -102 -44 -50 -36 17 3 70 17 119 32 77 23 92 24 110 13
32 -21 60 -25 107 -17 39 7 44 6 66 -21 14 -16 30 -29 36 -29 6 0 0 11 -12 24
-27 29 -20 46 19 46 16 0 40 4 53 9 13 5 55 13 93 16 38 4 89 11 114 15 54 10
60 7 26 -15 -14 -10 -26 -24 -26 -31 0 -25 27 -15 60 22 23 27 34 34 43 25 17
-17 29 -13 22 9 -4 13 -2 20 7 20 7 0 24 3 38 6 23 6 22 4 -12 -33 -43 -44
-46 -53 -19 -53 11 0 34 18 52 41 29 36 33 39 47 25 14 -14 14 -17 -1 -34 -15
-16 -15 -21 -4 -31 11 -8 18 -6 32 9 10 11 22 17 28 13 6 -4 8 0 4 11 -7 17
18 66 33 66 5 0 22 -11 38 -25 17 -14 36 -25 43 -25 7 0 -2 13 -21 30 -29 25
-33 31 -20 40 8 5 23 10 32 10 25 0 48 11 48 22 0 9 -19 7 -75 -9 -16 -4 -18
-3 -7 8 22 23 13 33 -10 11 -20 -17 -26 -19 -40 -8 -10 7 -18 18 -18 23 0 10
-26 14 -49 7 -9 -3 -10 -8 -3 -17 7 -8 5 -19 -8 -35 l-19 -23 -38 40 c-32 34
-41 39 -56 30z m163 -43 c0 -2 -7 -7 -16 -10 -8 -3 -12 -2 -9 4 6 10 25 14 25
6z m-116 -12 c22 -9 10 -24 -19 -24 -18 0 -23 4 -19 15 7 16 14 18 38 9z m108
-36 c-19 -20 -24 -21 -32 -8 -7 12 -3 16 18 21 15 4 29 7 32 8 2 0 -6 -9 -18
-21z"/>
<path d="M71 1594 c0 -11 3 -14 6 -6 3 7 2 16 -1 19 -3 4 -6 -2 -5 -13z"/>
<path d="M254 1581 c-82 -23 -94 -29 -94 -46 0 -2 21 3 48 11 26 9 66 20 89
25 23 6 47 17 54 25 14 17 14 17 -97 -15z"/>
<path d="M1381 1544 c0 -11 3 -14 6 -6 3 7 2 16 -1 19 -3 4 -6 -2 -5 -13z"/>
<path d="M1183 1538 c-12 -6 -27 -23 -34 -39 -10 -25 -9 -32 6 -49 21 -23 57
-26 74 -6 15 17 -10 46 -41 46 -26 0 -18 24 10 28 12 2 22 7 22 12 0 15 -14
18 -37 8z m27 -78 c0 -5 -6 -10 -14 -10 -8 0 -18 5 -21 10 -3 6 3 10 14 10 12
0 21 -4 21 -10z"/>
<path d="M1252 1495 c2 -31 7 -54 13 -53 6 2 9 19 8 38 -1 19 -2 43 -2 53 -1
9 -6 17 -11 17 -7 0 -10 -21 -8 -55z"/>
<path d="M1370 1470 c0 -22 5 -40 10 -40 6 0 10 18 10 40 0 22 -4 40 -10 40
-5 0 -10 -18 -10 -40z"/>
<path d="M450 1240 c0 -6 11 -26 25 -44 13 -18 31 -48 39 -68 15 -34 15 -36
-4 -31 -11 3 -25 11 -31 19 -6 8 -19 14 -29 14 -24 0 -32 11 -19 27 9 10 8 13
-3 13 -8 0 -22 16 -31 35 -9 19 -20 35 -25 35 -16 0 -21 -13 -12 -30 8 -15 0
-20 -56 -35 -60 -16 -83 -29 -71 -41 3 -3 37 6 76 20 54 20 71 22 71 12 0 -8
-10 -16 -23 -20 -46 -11 -117 -47 -112 -56 6 -10 109 24 133 43 9 7 16 7 24
-1 19 -19 11 -22 -107 -51 -17 -4 -31 -14 -33 -25 -3 -16 0 -18 23 -12 15 4
47 16 71 28 25 11 54 18 67 15 12 -4 46 -11 75 -18 46 -10 57 -18 79 -53 16
-24 28 -35 31 -28 2 7 -3 21 -12 31 -9 10 -16 21 -16 24 0 4 28 7 62 7 54 0
60 -2 43 -13 -27 -20 0 -33 29 -13 22 14 25 13 52 -15 28 -29 28 -29 39 -8 12
21 12 21 33 -6 25 -32 30 -21 6 13 -8 12 -13 26 -10 31 9 13 42 19 57 10 11
-7 10 -11 -6 -23 -19 -13 -19 -15 -2 -21 9 -4 23 -5 31 -2 8 3 20 -1 27 -9 17
-21 23 -10 8 14 -25 39 1 51 117 54 59 2 103 7 102 12 -2 6 -42 9 -93 7 l-90
-3 27 29 c42 44 33 50 -12 9 -31 -28 -48 -36 -78 -35 l-37 0 24 17 c47 32 66
50 60 56 -3 3 -24 -7 -47 -24 -46 -33 -62 -37 -62 -15 0 8 18 24 41 35 23 12
39 24 36 27 -3 3 -25 -6 -48 -20 l-42 -25 -24 29 c-14 16 -29 29 -34 29 -16 0
-10 -23 12 -46 22 -23 19 -44 -6 -44 -7 0 -24 15 -36 33 -12 17 -24 34 -25 36
-2 2 -10 1 -19 -3 -14 -5 -12 -12 15 -43 26 -32 28 -39 13 -42 -10 -2 -28 11
-46 33 -16 20 -33 36 -38 36 -18 0 -8 -29 17 -49 l27 -21 -24 -1 c-34 -2 -40
-1 -81 6 -35 5 -41 11 -76 83 -22 43 -46 78 -55 80 -10 2 -17 -2 -17 -8z m395
-150 c3 -5 -3 -10 -15 -10 -12 0 -18 5 -15 10 3 6 10 10 15 10 5 0 12 -4 15
-10z m-45 -50 c0 -5 -9 -10 -20 -10 -11 0 -20 5 -20 10 0 6 9 10 20 10 11 0
20 -4 20 -10z"/>
<path d="M412 687 c-7 -8 -10 -21 -7 -30 5 -11 -11 -20 -67 -36 -94 -28 -118
-38 -118 -51 0 -13 -7 -14 80 16 122 42 130 44 130 30 0 -11 -89 -45 -162 -62
-24 -5 -49 -34 -29 -34 12 0 122 38 158 55 17 8 35 15 41 15 15 0 23 -30 9
-35 -6 -2 -49 -16 -94 -30 -46 -15 -85 -30 -88 -35 -14 -23 22 -17 105 16 50
19 94 33 97 30 3 -3 22 -38 42 -78 20 -39 42 -74 49 -76 7 -2 2 17 -13 46 -14
27 -25 55 -25 61 0 7 27 11 75 11 60 0 75 -3 75 -15 0 -9 -11 -21 -25 -27 -27
-12 -31 -23 -15 -33 6 -4 22 2 37 13 l27 20 33 -44 c19 -24 39 -44 45 -44 6 0
2 10 -9 23 -43 47 -56 76 -43 92 14 16 65 21 74 6 3 -5 -6 -16 -20 -26 -19
-12 -23 -20 -15 -28 7 -7 16 -5 32 8 20 19 21 19 37 -2 20 -25 72 -42 72 -23
0 8 9 10 25 6 26 -7 33 2 15 20 -7 7 -2 18 16 35 25 23 27 23 38 5 19 -32 58
-77 63 -73 2 3 -8 22 -22 42 -14 21 -24 39 -23 41 2 1 50 4 108 5 112 3 130 6
130 20 0 6 -53 7 -127 3 l-128 -7 34 37 c19 20 29 36 22 36 -8 0 -25 -12 -38
-26 -13 -14 -25 -25 -27 -23 -1 2 -10 16 -19 32 -21 33 -28 34 -65 2 l-30 -25
-15 23 c-12 17 -18 19 -28 10 -10 -10 -9 -16 6 -33 18 -20 18 -20 -11 -20 -22
0 -34 7 -47 30 -10 17 -25 30 -33 30 -16 0 -19 -26 -4 -35 22 -14 8 -25 -32
-25 -38 0 -45 4 -59 33 -9 19 -25 33 -37 35 -27 4 -27 -2 -1 -40 12 -16 20
-30 18 -31 -2 -2 -32 -1 -66 1 -69 4 -87 25 -33 37 17 4 30 13 30 21 0 12 -5
12 -35 0 -19 -8 -35 -13 -35 -11 0 2 -3 10 -6 19 -4 10 -1 16 9 16 8 0 21 8
28 17 15 18 14 17 -38 -4 -21 -9 -14 18 10 38 l22 19 -28 -10 c-24 -9 -31 -7
-46 11 -15 18 -18 19 -29 6z m523 -165 c-15 -2 -34 -1 -43 3 -15 6 -14 9 8 27
l24 20 19 -24 19 -23 -27 -3z m-56 -75 c-22 -18 -24 -18 -36 -1 -18 24 -16 41
5 53 13 8 21 6 35 -11 18 -22 18 -23 -4 -41z m51 38 c-7 -8 -14 -15 -15 -15
-2 0 -5 7 -9 15 -4 10 1 15 16 15 17 0 18 -2 8 -15z"/>
<path d="M1260 560 c0 -10 5 -22 10 -25 6 -3 10 -4 10 -1 0 2 3 11 6 19 3 8
-2 17 -10 20 -11 5 -16 0 -16 -13z"/>
<path d="M1265 500 c3 -5 8 -10 11 -10 2 0 4 5 4 10 0 6 -5 10 -11 10 -5 0 -7
-4 -4 -10z"/>
<path d="M1260 470 c0 -5 5 -10 10 -10 6 0 10 5 10 10 0 6 -4 10 -10 10 -5 0
-10 -4 -10 -10z"/>
</g>
</svg>
