<?xml version="1.0" standalone="no"?>
<!DOCTYPE svg PUBLIC "-//W3C//DTD SVG 20010904//EN"
 "http://www.w3.org/TR/2001/REC-SVG-20010904/DTD/svg10.dtd">
<svg version="1.0" xmlns="http://www.w3.org/2000/svg"
 width="90.000000pt" height="41.000000pt" viewBox="0 0 90.000000 41.000000"
 preserveAspectRatio="xMidYMid meet">
<metadata>
Created by potrace 1.16, written by Peter Selinger 2001-2019
</metadata>
<g transform="translate(0.000000,41.000000) scale(0.100000,-0.100000)"
fill="#000000" stroke="none">
<path d="M462 303 c-10 -18 -157 -61 -169 -49 -3 3 -12 1 -20 -6 -20 -16 -65
-19 -129 -10 -67 11 -77 2 -59 -52 7 -21 11 -44 8 -51 -2 -8 1 -23 7 -34 10
-19 13 -20 26 -6 9 8 32 15 52 15 20 0 47 3 60 6 44 12 21 20 -49 16 l-72 -4
6 37 c3 21 7 39 9 40 2 2 35 5 73 7 l70 3 5 -47 c6 -52 16 -69 25 -46 6 14 12
14 58 -3 28 -10 66 -19 84 -19 17 0 35 -5 39 -11 9 -15 55 -7 148 27 108 39
107 56 -1 28 -120 -31 -133 -31 -133 4 0 15 4 41 9 59 11 39 -6 60 -31 40 -13
-10 -14 -20 -3 -70 l12 -59 -46 7 c-37 5 -76 21 -129 52 -2 1 -1 11 3 22 4 14
29 27 87 47 111 37 107 37 248 -1 30 -8 74 -19 98 -25 44 -11 54 -25 25 -33
-12 -3 -8 -5 9 -6 32 -1 46 16 27 34 -8 7 -79 31 -159 54 -80 23 -153 44 -162
47 -10 3 -21 -3 -26 -13z"/>
</g>
</svg>
