<?xml version="1.0" standalone="no"?>
<!DOCTYPE svg PUBLIC "-//W3C//DTD SVG 20010904//EN"
 "http://www.w3.org/TR/2001/REC-SVG-20010904/DTD/svg10.dtd">
<svg version="1.0" xmlns="http://www.w3.org/2000/svg"
 width="84.000000pt" height="39.000000pt" viewBox="0 0 84.000000 39.000000"
 preserveAspectRatio="xMidYMid meet">
<metadata>
Created by potrace 1.16, written by Peter Selinger 2001-2019
</metadata>
<g transform="translate(0.000000,39.000000) scale(0.100000,-0.100000)"
fill="#000000" stroke="none">
<path d="M365 294 c-27 -8 -88 -13 -134 -13 -104 1 -111 -5 -111 -103 0 -65 1
-69 28 -80 45 -18 130 -22 148 -7 13 10 17 10 24 -1 6 -10 34 -14 102 -14 85
0 99 3 158 33 36 17 80 45 99 60 l34 28 -47 32 c-91 63 -213 89 -301 65z m160
-50 c27 -12 21 -13 -65 -11 -83 2 -95 0 -98 -15 -3 -16 7 -18 97 -18 56 0 103
4 106 10 8 13 26 13 45 0 13 -8 10 -14 -15 -35 -59 -51 -133 -67 -224 -49 -30
6 -31 8 -31 64 l0 58 48 10 c51 11 91 7 137 -14z m-361 -11 c-7 -16 -14 -41
-14 -57 0 -16 -3 -27 -6 -23 -12 11 7 107 21 107 11 0 11 -5 -1 -27z m159 15
c-5 -7 -9 -38 -8 -70 0 -31 -4 -54 -9 -51 -4 3 -6 25 -3 49 5 50 -7 71 -43 77
-14 2 -3 5 24 6 37 1 46 -2 39 -11z m-47 -21 c4 -4 6 -32 5 -63 -1 -38 -24
-47 -76 -33 -29 8 -35 15 -35 37 0 15 3 38 7 51 5 21 10 23 51 17 25 -3 46 -7
48 -9z m394 -42 c-5 -6 -28 -21 -52 -34 -24 -12 -34 -15 -23 -7 61 49 59 45
38 68 l-18 21 32 -18 c21 -12 29 -23 23 -30z m-494 -72 c-6 -6 -36 9 -36 18 0
5 9 4 20 -3 10 -7 18 -14 16 -15z"/>
<path d="M365 180 c-14 -23 10 -30 101 -29 90 1 122 11 93 30 -19 12 -186 11
-194 -1z"/>
</g>
</svg>
