<?xml version="1.0" standalone="no"?>
<!DOCTYPE svg PUBLIC "-//W3C//DTD SVG 20010904//EN"
 "http://www.w3.org/TR/2001/REC-SVG-20010904/DTD/svg10.dtd">
<svg version="1.0" xmlns="http://www.w3.org/2000/svg"
 width="118.000000pt" height="52.000000pt" viewBox="0 0 118.000000 52.000000"
 preserveAspectRatio="xMidYMid meet">
<metadata>
Created by potrace 1.16, written by Peter Selinger 2001-2019
</metadata>
<g transform="translate(0.000000,52.000000) scale(0.100000,-0.100000)"
fill="#000000" stroke="none">
<path d="M917 382 l-128 -66 -24 30 c-18 23 -26 26 -36 17 -10 -10 -7 -17 12
-33 l24 -21 -167 4 c-92 2 -169 -1 -170 -5 -2 -4 -65 17 -141 48 -76 31 -141
54 -144 50 -3 -3 0 -13 8 -23 11 -14 11 -15 0 -9 -18 11 -31 -10 -31 -53 0
-18 -9 -73 -21 -122 -11 -49 -18 -95 -16 -102 4 -7 8 -3 13 11 5 16 12 21 25
17 17 -6 99 30 149 65 67 47 157 84 210 87 254 12 245 12 226 -3 -10 -7 -61
-30 -112 -50 -52 -21 -94 -41 -94 -46 0 -34 83 -2 219 84 25 15 48 28 53 28 4
0 22 -17 40 -37 94 -105 113 -124 116 -113 2 6 -14 29 -36 50 -21 21 -49 52
-62 70 l-22 31 73 -3 c129 -5 239 1 239 13 0 8 -40 9 -135 5 -75 -3 -143 -2
-152 1 -10 4 22 25 93 60 98 49 154 85 129 82 -6 -1 -68 -31 -138 -67z m-612
-54 c116 -38 116 -38 28 -82 -149 -75 -223 -106 -223 -93 0 13 57 183 66 199
7 11 46 4 129 -24z"/>
</g>
</svg>
