<?xml version="1.0" standalone="no"?>
<!DOCTYPE svg PUBLIC "-//W3C//DTD SVG 20010904//EN"
 "http://www.w3.org/TR/2001/REC-SVG-20010904/DTD/svg10.dtd">
<svg version="1.0" xmlns="http://www.w3.org/2000/svg"
 width="51.000000pt" height="44.000000pt" viewBox="0 0 51.000000 44.000000"
 preserveAspectRatio="xMidYMid meet">
<metadata>
Created by potrace 1.16, written by Peter Selinger 2001-2019
</metadata>
<g transform="translate(0.000000,44.000000) scale(0.100000,-0.100000)"
fill="#000000" stroke="none">
<path d="M330 375 c-7 -9 -10 -27 -7 -44 l6 -29 -50 19 c-27 11 -58 24 -68 31
-14 8 -25 8 -50 -3 -17 -8 -31 -18 -32 -24 0 -5 0 -50 1 -100 1 -89 15 -133
26 -87 5 17 14 22 39 22 28 0 133 -30 188 -54 12 -6 17 -4 17 8 0 9 -11 21
-25 26 -17 6 -25 17 -25 34 0 45 13 86 26 86 19 0 18 19 -1 26 -10 4 -14 19
-12 51 2 49 -11 64 -33 38z m-60 -82 l60 -18 0 -57 c0 -33 -4 -58 -10 -58 -6
0 -44 14 -86 32 -65 27 -75 34 -70 52 3 12 6 31 6 44 0 27 19 28 100 5z"/>
</g>
</svg>
