<?xml version="1.0" standalone="no"?>
<!DOCTYPE svg PUBLIC "-//W3C//DTD SVG 20010904//EN"
 "http://www.w3.org/TR/2001/REC-SVG-20010904/DTD/svg10.dtd">
<svg version="1.0" xmlns="http://www.w3.org/2000/svg"
 width="77.000000pt" height="58.000000pt" viewBox="0 0 77.000000 58.000000"
 preserveAspectRatio="xMidYMid meet">
<metadata>
Created by potrace 1.16, written by Peter Selinger 2001-2019
</metadata>
<g transform="translate(0.000000,58.000000) scale(0.100000,-0.100000)"
fill="#000000" stroke="none">
<path d="M324 438 c-6 -7 -10 -65 -10 -128 l1 -115 25 1 c41 2 320 120 320
135 0 14 -29 28 -145 68 -142 51 -177 58 -191 39z m153 -53 c116 -30 155 -44
148 -56 -3 -4 -64 -26 -135 -49 -71 -22 -136 -43 -143 -45 -10 -4 -12 12 -9
72 2 43 5 84 7 91 6 17 21 15 132 -13z"/>
<path d="M73 368 c-13 -22 15 -29 105 -27 100 2 122 5 122 19 0 11 -220 18
-227 8z"/>
<path d="M80 291 c0 -21 2 -22 108 -15 59 4 109 8 111 10 10 9 -11 13 -111 20
-106 7 -108 6 -108 -15z"/>
</g>
</svg>
