<?xml version="1.0" standalone="no"?>
<!DOCTYPE svg PUBLIC "-//W3C//DTD SVG 20010904//EN"
 "http://www.w3.org/TR/2001/REC-SVG-20010904/DTD/svg10.dtd">
<svg version="1.0" xmlns="http://www.w3.org/2000/svg"
 width="48.000000pt" height="47.000000pt" viewBox="0 0 48.000000 47.000000"
 preserveAspectRatio="xMidYMid meet">
<metadata>
Created by potrace 1.16, written by Peter Selinger 2001-2019
</metadata>
<g transform="translate(0.000000,47.000000) scale(0.100000,-0.100000)"
fill="#000000" stroke="none">
<path d="M199 395 c-19 -13 -52 -34 -74 -46 -22 -12 -43 -26 -46 -31 -19 -29
89 -153 132 -153 9 0 44 29 77 65 l62 64 -29 31 c-15 16 -38 45 -50 63 -12 17
-26 32 -30 32 -5 0 -23 -11 -42 -25z m77 -58 l48 -44 -63 -46 c-35 -26 -67
-47 -72 -47 -10 0 -53 58 -62 82 -4 12 7 30 36 58 23 22 47 40 54 40 6 0 33
-20 59 -43z"/>
</g>
</svg>
