<?xml version="1.0" standalone="no"?>
<!DOCTYPE svg PUBLIC "-//W3C//DTD SVG 20010904//EN"
 "http://www.w3.org/TR/2001/REC-SVG-20010904/DTD/svg10.dtd">
<svg version="1.0" xmlns="http://www.w3.org/2000/svg"
 width="70.000000pt" height="52.000000pt" viewBox="0 0 70.000000 52.000000"
 preserveAspectRatio="xMidYMid meet">
<metadata>
Created by potrace 1.16, written by Peter Selinger 2001-2019
</metadata>
<g transform="translate(0.000000,52.000000) scale(0.100000,-0.100000)"
fill="#000000" stroke="none">
<path d="M131 436 c-15 -18 6 -40 106 -108 34 -24 63 -45 63 -48 0 -3 -45 -4
-100 -2 -83 3 -100 2 -100 -11 0 -29 23 -35 99 -25 109 13 114 10 61 -40 -25
-24 -64 -54 -87 -68 -48 -29 -51 -35 -27 -55 15 -12 26 -4 98 74 45 48 86 87
91 87 6 0 46 -31 90 -70 44 -38 84 -70 89 -70 5 0 -27 34 -70 75 l-79 74 138
1 c95 0 136 3 132 11 -4 5 -17 9 -28 8 -12 0 -71 -1 -132 0 l-109 1 74 75 c86
87 82 102 -6 19 -32 -31 -69 -63 -82 -72 -26 -17 -25 -18 -143 96 -57 55 -67
61 -78 48z"/>
</g>
</svg>
