<?xml version="1.0" standalone="no"?>
<!DOCTYPE svg PUBLIC "-//W3C//DTD SVG 20010904//EN"
 "http://www.w3.org/TR/2001/REC-SVG-20010904/DTD/svg10.dtd">
<svg version="1.0" xmlns="http://www.w3.org/2000/svg"
 width="71.000000pt" height="48.000000pt" viewBox="0 0 71.000000 48.000000"
 preserveAspectRatio="xMidYMid meet">
<metadata>
Created by potrace 1.16, written by Peter Selinger 2001-2019
</metadata>
<g transform="translate(0.000000,48.000000) scale(0.100000,-0.100000)"
fill="#000000" stroke="none">
<path d="M197 384 c-4 -4 -7 -13 -7 -19 0 -10 38 -11 158 -8 l158 5 32 -36
c28 -32 32 -44 32 -95 0 -32 -3 -73 -6 -90 l-6 -31 -110 3 -110 2 5 36 c4 32
2 36 -14 32 -14 -4 -19 -14 -19 -39 l0 -34 -65 0 -66 0 7 37 c4 21 9 40 11 43
3 3 80 6 171 8 277 5 230 27 -57 27 -164 0 -164 0 -158 -87 5 -60 15 -87 26
-70 7 11 224 28 315 24 41 -2 63 -8 71 -19 10 -13 14 8 24 104 19 194 15 198
-219 207 -91 4 -169 4 -173 0z"/>
</g>
</svg>
