<?xml version="1.0" standalone="no"?>
<!DOCTYPE svg PUBLIC "-//W3C//DTD SVG 20010904//EN"
 "http://www.w3.org/TR/2001/REC-SVG-20010904/DTD/svg10.dtd">
<svg version="1.0" xmlns="http://www.w3.org/2000/svg"
 width="75.000000pt" height="74.000000pt" viewBox="0 0 75.000000 74.000000"
 preserveAspectRatio="xMidYMid meet">
<metadata>
Created by potrace 1.16, written by Peter Selinger 2001-2019
</metadata>
<g transform="translate(0.000000,74.000000) scale(0.100000,-0.100000)"
fill="#000000" stroke="none">
<path d="M350 548 c-30 -51 -54 -99 -54 -105 1 -7 -2 -10 -8 -7 -5 3 -23 -5
-41 -19 -18 -13 -51 -34 -74 -46 -24 -12 -43 -26 -43 -32 0 -12 7 -11 95 22
70 25 87 37 78 53 -16 29 19 -16 72 -94 32 -47 60 -87 62 -90 11 -12 21 30 27
110 l7 88 95 12 c52 7 94 16 94 21 0 5 -9 9 -20 9 -11 0 -20 5 -20 10 0 6 -5
10 -11 10 -5 0 -7 -5 -4 -10 4 -7 -16 -10 -60 -9 l-67 2 6 77 c6 67 5 78 -10
84 -9 3 -22 2 -29 -4 -9 -8 -15 -8 -20 0 -12 19 -21 10 -75 -82z m89 -109 c2
-106 -1 -159 -8 -155 -14 9 -91 165 -91 185 0 12 86 131 95 131 1 0 3 -72 4
-161z"/>
<path d="M366 221 c-15 -21 -38 -49 -51 -61 -39 -37 -17 -44 24 -8 21 18 48
41 59 50 25 21 27 31 8 47 -10 9 -19 3 -40 -28z"/>
<path d="M452 217 c-9 -10 1 -25 44 -65 79 -74 86 -68 27 22 -38 57 -52 66
-71 43z"/>
</g>
</svg>
