<?xml version="1.0" standalone="no"?>
<!DOCTYPE svg PUBLIC "-//W3C//DTD SVG 20010904//EN"
 "http://www.w3.org/TR/2001/REC-SVG-20010904/DTD/svg10.dtd">
<svg version="1.0" xmlns="http://www.w3.org/2000/svg"
 width="79.000000pt" height="72.000000pt" viewBox="0 0 79.000000 72.000000"
 preserveAspectRatio="xMidYMid meet">
<metadata>
Created by potrace 1.16, written by Peter Selinger 2001-2019
</metadata>
<g transform="translate(0.000000,72.000000) scale(0.100000,-0.100000)"
fill="#000000" stroke="none">
<path d="M386 628 c-9 -12 -16 -27 -16 -31 0 -26 -55 -127 -71 -132 -11 -4
-19 -11 -19 -16 0 -6 -5 -7 -11 -4 -5 4 -31 -13 -57 -38 -26 -25 -60 -57 -77
-71 -44 -37 -9 -33 43 5 46 34 58 21 22 -24 -21 -27 -26 -47 -11 -47 11 0 61
87 61 105 0 7 7 16 16 19 8 3 13 2 11 -2 -7 -10 -66 -138 -69 -148 -2 -5 1
-11 5 -14 11 -7 88 169 81 184 -4 6 3 2 14 -9 l21 -20 -29 -62 c-17 -35 -30
-70 -30 -78 0 -22 18 -18 25 6 4 11 16 41 27 66 l20 45 47 -46 c26 -26 51 -43
55 -39 4 5 13 8 19 8 8 0 13 24 15 67 3 77 -4 71 121 92 90 15 95 38 7 30 -37
-3 -77 -3 -91 0 -24 6 -24 9 -22 84 2 76 2 77 -23 77 -19 0 -24 -5 -23 -20 10
-93 14 -313 6 -318 -10 -6 -64 60 -97 118 -20 34 -18 40 39 144 34 60 39 91
16 91 -5 0 -17 -10 -25 -22z"/>
<path d="M325 274 c-32 -72 -33 -75 -18 -81 7 -3 18 8 24 24 6 15 18 43 26 62
9 23 11 37 4 44 -7 7 -19 -10 -36 -49z"/>
<path d="M385 239 c-15 -24 -35 -56 -46 -71 -36 -51 -4 -36 50 24 49 54 52 61
38 75 -14 14 -18 11 -42 -28z"/>
<path d="M473 263 c-14 -5 -18 -29 -5 -35 4 -1 25 -24 47 -50 21 -26 42 -45
46 -42 7 4 -62 134 -71 133 -3 0 -11 -3 -17 -6z"/>
</g>
</svg>
