<?xml version="1.0" standalone="no"?>
<!DOCTYPE svg PUBLIC "-//W3C//DTD SVG 20010904//EN"
 "http://www.w3.org/TR/2001/REC-SVG-20010904/DTD/svg10.dtd">
<svg version="1.0" xmlns="http://www.w3.org/2000/svg"
 width="93.000000pt" height="53.000000pt" viewBox="0 0 93.000000 53.000000"
 preserveAspectRatio="xMidYMid meet">
<metadata>
Created by potrace 1.16, written by Peter Selinger 2001-2019
</metadata>
<g transform="translate(0.000000,53.000000) scale(0.100000,-0.100000)"
fill="#000000" stroke="none">
<path d="M400 431 c-19 -15 -50 -36 -67 -45 -18 -9 -33 -22 -33 -28 0 -7 -29
-9 -95 -6 -53 3 -98 1 -101 -3 -3 -5 0 -18 6 -29 8 -15 17 -18 39 -14 22 5 32
2 39 -12 6 -11 49 -46 95 -79 59 -41 85 -66 84 -78 -2 -14 11 -23 53 -36 30
-10 70 -25 88 -35 69 -36 53 -8 -23 39 l-78 49 44 39 c58 51 157 127 177 134
12 5 14 1 10 -15 -5 -18 5 -27 81 -64 110 -55 109 -54 91 -34 -8 10 -37 33
-65 52 -99 65 -96 57 -37 114 29 27 52 52 52 55 0 14 -29 2 -50 -20 -13 -14
-28 -25 -33 -25 -5 0 -20 -9 -34 -20 -23 -18 -41 -20 -160 -20 l-134 0 51 52
c27 28 50 53 50 55 0 10 -19 0 -50 -26z m180 -111 c-29 -23 -209 -130 -219
-130 -4 0 -38 29 -76 65 l-70 64 75 2 c41 1 109 4 150 8 41 3 95 7 120 8 l45
3 -25 -20z"/>
</g>
</svg>
