<?xml version="1.0" standalone="no"?>
<!DOCTYPE svg PUBLIC "-//W3C//DTD SVG 20010904//EN"
 "http://www.w3.org/TR/2001/REC-SVG-20010904/DTD/svg10.dtd">
<svg version="1.0" xmlns="http://www.w3.org/2000/svg"
 width="99.000000pt" height="46.000000pt" viewBox="0 0 99.000000 46.000000"
 preserveAspectRatio="xMidYMid meet">
<metadata>
Created by potrace 1.16, written by Peter Selinger 2001-2019
</metadata>
<g transform="translate(0.000000,46.000000) scale(0.100000,-0.100000)"
fill="#000000" stroke="none">
<path d="M107 345 c-9 -19 -21 -35 -27 -35 -20 0 -9 -43 30 -113 72 -131 90
-140 44 -20 -43 112 -45 122 -29 154 8 15 15 33 15 39 0 21 -17 9 -33 -25z"/>
<path d="M840 311 c0 -95 11 -191 21 -185 5 3 9 61 9 130 0 104 -2 124 -15
124 -12 0 -15 -14 -15 -69z"/>
<path d="M516 340 c-9 -20 -19 -26 -56 -29 -58 -4 -72 -13 -35 -23 20 -5 34
-3 45 7 24 21 49 2 33 -25 -17 -26 -16 -30 2 -30 12 0 15 -13 15 -60 0 -33 4
-60 10 -60 6 0 10 6 10 14 0 11 30 16 140 21 141 8 204 25 91 25 -45 0 -61 4
-61 14 0 9 19 16 61 20 72 8 69 20 -4 22 -45 1 -52 4 -55 23 -3 19 1 21 47 21
28 0 51 5 51 10 0 6 -22 10 -50 10 -42 0 -50 3 -50 19 0 19 34 31 91 31 16 0
29 4 29 10 0 6 -59 9 -152 7 -151 -2 -151 -2 -162 -27z m164 -4 c0 -2 3 -11 6
-20 5 -14 -3 -16 -55 -16 -34 0 -61 -4 -61 -10 0 -5 25 -10 55 -10 52 0 55 -1
55 -25 0 -22 -4 -25 -38 -25 -21 0 -42 4 -47 9 -6 6 -17 4 -29 -5 -29 -21 -13
-28 54 -25 50 2 60 0 60 -14 0 -13 -11 -16 -70 -14 -79 2 -75 -3 -64 96 l7 52
41 4 c75 7 86 7 86 3z"/>
<path d="M200 306 c0 -12 12 -16 53 -17 95 -2 139 3 126 15 -2 2 -43 6 -91 10
-76 6 -88 5 -88 -8z"/>
<path d="M475 279 c-11 -17 1 -21 15 -4 8 9 8 15 2 15 -6 0 -14 -5 -17 -11z"/>
<path d="M223 233 c-7 -3 -13 -11 -13 -19 0 -12 19 -14 107 -12 74 2 108 7
111 16 3 9 -18 12 -87 11 -49 0 -94 1 -98 4 -4 2 -14 2 -20 0z"/>
</g>
</svg>
