<?xml version="1.0" standalone="no"?>
<!DOCTYPE svg PUBLIC "-//W3C//DTD SVG 20010904//EN"
 "http://www.w3.org/TR/2001/REC-SVG-20010904/DTD/svg10.dtd">
<svg version="1.0" xmlns="http://www.w3.org/2000/svg"
 width="65.000000pt" height="62.000000pt" viewBox="0 0 65.000000 62.000000"
 preserveAspectRatio="xMidYMid meet">
<metadata>
Created by potrace 1.16, written by Peter Selinger 2001-2019
</metadata>
<g transform="translate(0.000000,62.000000) scale(0.100000,-0.100000)"
fill="#000000" stroke="none">
<path d="M309 531 c-13 -10 -29 -20 -35 -22 -29 -11 -194 -114 -194 -121 0
-23 33 -17 69 12 33 27 50 33 96 35 l56 2 -2 -77 c-1 -42 1 -82 4 -87 7 -11
-1 -23 -14 -23 -5 0 -40 27 -79 61 -39 34 -74 59 -76 56 -12 -12 20 -49 79
-90 61 -44 112 -63 123 -46 10 16 143 119 164 127 18 7 16 12 -33 67 -67 77
-116 125 -126 125 -5 0 -19 -8 -32 -19z m69 -56 l54 -45 -46 0 c-26 0 -46 -5
-46 -11 0 -6 21 -9 55 -8 42 2 59 -2 76 -17 21 -19 21 -19 -52 -24 -47 -3 -74
-10 -77 -18 -3 -10 8 -11 50 -6 l53 7 -25 -20 c-25 -21 -84 -53 -95 -53 -4 0
-4 47 -2 105 2 58 1 105 -4 105 -5 0 -9 -9 -9 -21 0 -15 -4 -19 -16 -15 -9 3
-27 6 -42 6 -24 0 -22 2 18 29 25 16 47 30 50 30 3 0 29 -20 58 -44z"/>
<path d="M194 409 c-3 -5 -4 -9 -2 -10 34 -7 68 -4 68 5 0 13 -58 18 -66 5z"/>
<path d="M175 360 c-6 -10 0 -12 30 -12 62 0 85 3 80 12 -3 6 -28 10 -55 10
-27 0 -52 -4 -55 -10z"/>
</g>
</svg>
