<?xml version="1.0" standalone="no"?>
<!DOCTYPE svg PUBLIC "-//W3C//DTD SVG 20010904//EN"
 "http://www.w3.org/TR/2001/REC-SVG-20010904/DTD/svg10.dtd">
<svg version="1.0" xmlns="http://www.w3.org/2000/svg"
 width="77.000000pt" height="72.000000pt" viewBox="0 0 77.000000 72.000000"
 preserveAspectRatio="xMidYMid meet">
<metadata>
Created by potrace 1.16, written by Peter Selinger 2001-2019
</metadata>
<g transform="translate(0.000000,72.000000) scale(0.100000,-0.100000)"
fill="#000000" stroke="none">
<path d="M187 653 c-4 -3 -7 -20 -7 -38 0 -27 -3 -31 -27 -30 -24 0 -28 -4
-31 -33 -2 -22 2 -34 12 -38 11 -4 14 -14 10 -30 -7 -29 12 -33 21 -4 5 17 15
20 61 20 30 0 54 -2 54 -4 0 -3 -14 -42 -30 -87 -43 -117 -31 -121 16 -6 38
94 40 97 71 97 23 0 31 -4 27 -14 -3 -7 2 -31 11 -52 9 -21 27 -83 41 -139 25
-96 57 -185 68 -185 3 0 3 14 -1 32 -4 22 -3 29 5 24 7 -4 12 -2 12 3 0 6 -6
11 -14 11 -9 0 -18 22 -26 68 -38 215 -43 234 -64 242 -18 8 -17 9 12 11 17 1
37 3 42 4 6 1 42 3 80 4 39 0 70 5 70 11 0 6 -54 10 -141 10 l-140 0 7 23 c11
32 11 61 -1 67 -5 3 -15 -16 -23 -42 -13 -46 -15 -48 -50 -48 -60 0 -66 9 -41
64 17 40 19 50 8 57 -17 11 -24 11 -32 2z"/>
<path d="M603 498 c-6 -7 -15 -35 -20 -63 -41 -196 -56 -262 -64 -277 -5 -10
-5 -26 0 -40 9 -22 9 -22 16 -3 4 11 11 31 16 45 4 14 20 75 33 135 14 61 31
129 38 152 8 30 9 46 2 53 -8 8 -14 7 -21 -2z"/>
</g>
</svg>
