<?xml version="1.0" standalone="no"?>
<!DOCTYPE svg PUBLIC "-//W3C//DTD SVG 20010904//EN"
 "http://www.w3.org/TR/2001/REC-SVG-20010904/DTD/svg10.dtd">
<svg version="1.0" xmlns="http://www.w3.org/2000/svg"
 width="83.000000pt" height="43.000000pt" viewBox="0 0 83.000000 43.000000"
 preserveAspectRatio="xMidYMid meet">
<metadata>
Created by potrace 1.16, written by Peter Selinger 2001-2019
</metadata>
<g transform="translate(0.000000,43.000000) scale(0.100000,-0.100000)"
fill="#000000" stroke="none">
<path d="M266 363 c-11 -3 -26 -11 -33 -19 -8 -8 -26 -17 -41 -20 -59 -13
-106 -31 -110 -42 -6 -20 26 -14 99 19 48 21 82 29 107 27 l37 -4 -47 -22
c-27 -13 -48 -28 -48 -34 0 -7 -17 -8 -52 -4 -45 6 -50 5 -39 -8 7 -8 31 -16
54 -18 31 -2 42 -7 42 -20 0 -9 11 -28 24 -42 14 -14 19 -26 12 -26 -15 0
-121 72 -140 94 -17 20 -41 21 -41 1 0 -9 28 -33 63 -54 34 -21 81 -51 105
-66 42 -26 152 -50 152 -33 0 5 6 8 13 7 6 -1 23 1 37 4 14 4 36 8 50 10 14 1
30 5 35 9 6 3 46 16 90 28 93 26 111 36 94 56 -6 8 -15 14 -20 14 -15 0 -98
55 -99 65 0 6 -17 10 -37 11 -20 0 -39 6 -41 12 -2 7 -13 12 -25 12 -20 1 -21
2 -4 14 23 18 22 29 -2 16 -28 -14 -41 -13 -41 5 0 12 -4 13 -18 6 -11 -6 -24
-6 -33 0 -14 9 -109 10 -143 2z m94 -53 c-19 -11 -42 -24 -50 -29 -8 -5 -14
-14 -13 -20 2 -6 -9 -11 -24 -11 -30 0 -28 4 32 49 22 17 51 31 65 31 23 0 23
-1 -10 -20z m80 5 c0 -3 -21 -15 -46 -26 -25 -12 -48 -28 -51 -36 -3 -7 -12
-13 -20 -13 -21 0 78 79 100 80 9 0 17 -2 17 -5z m30 -20 c-7 -8 -18 -15 -24
-15 -7 0 -22 -9 -34 -21 -13 -11 -28 -19 -34 -17 -14 5 70 68 90 68 12 0 12
-3 2 -15z m50 -15 c0 -5 -6 -10 -14 -10 -7 0 -19 -7 -26 -15 -19 -23 6 -19 37
5 14 11 30 20 34 20 18 0 8 -19 -20 -39 -23 -17 -38 -20 -75 -15 l-47 7 43 28
c44 30 68 36 68 19z m150 -60 c35 -18 50 -30 40 -33 -44 -15 -119 -36 -146
-40 -26 -5 -33 -1 -48 24 -9 16 -24 29 -32 29 -12 0 -11 -5 5 -26 26 -33 26
-44 1 -44 -11 0 -20 6 -20 14 0 7 -10 26 -22 41 l-21 27 84 -5 c46 -3 72 -3
57 0 -32 5 -36 17 -10 32 27 16 53 12 112 -19z m-332 4 c12 -2 22 -9 22 -14 0
-6 11 -28 25 -50 20 -32 22 -40 10 -40 -9 0 -30 23 -47 50 -17 28 -35 50 -39
50 -13 0 -11 -7 16 -50 26 -42 27 -44 0 -34 -18 7 -77 89 -69 96 4 5 33 2 82
-8z m67 -12 c22 -14 54 -81 44 -88 -15 -9 -34 13 -53 59 -15 36 -12 44 9 29z"/>
<path d="M608 193 c7 -3 16 -2 19 1 4 3 -2 6 -13 5 -11 0 -14 -3 -6 -6z"/>
</g>
</svg>
