<?xml version="1.0" standalone="no"?>
<!DOCTYPE svg PUBLIC "-//W3C//DTD SVG 20010904//EN"
 "http://www.w3.org/TR/2001/REC-SVG-20010904/DTD/svg10.dtd">
<svg version="1.0" xmlns="http://www.w3.org/2000/svg"
 width="85.000000pt" height="67.000000pt" viewBox="0 0 85.000000 67.000000"
 preserveAspectRatio="xMidYMid meet">
<metadata>
Created by potrace 1.16, written by Peter Selinger 2001-2019
</metadata>
<g transform="translate(0.000000,67.000000) scale(0.100000,-0.100000)"
fill="#000000" stroke="none">
<path d="M160 620 c-29 -6 -32 -9 -15 -14 19 -7 20 -16 20 -149 0 -86 4 -142
10 -142 6 0 10 56 10 142 l0 143 123 0 c90 0 121 -3 116 -11 -4 -7 -6 -47 -5
-90 2 -66 0 -79 -13 -79 -9 0 -16 -4 -16 -10 0 -5 7 -10 16 -10 12 0 15 -14
13 -80 -1 -44 1 -83 5 -87 3 -3 7 -1 7 5 1 7 3 17 4 22 1 6 3 39 4 75 l1 64
128 3 c80 2 125 7 122 13 -3 6 -53 9 -126 8 l-121 -2 1 87 c1 76 3 88 20 95
10 4 17 9 15 12 -8 8 -284 12 -319 5z"/>
<path d="M337 520 c-19 -22 -33 -25 -42 -10 -13 20 -26 10 -14 -12 10 -18 8
-24 -7 -35 -16 -12 -20 -11 -30 2 -18 24 -26 18 -19 -14 5 -22 2 -30 -11 -35
-13 -5 -15 -9 -6 -18 9 -9 15 -9 24 0 18 18 24 15 38 -18 7 -16 16 -27 21 -24
4 2 1 20 -8 39 -13 28 -14 37 -3 50 19 23 24 19 49 -32 13 -27 26 -42 28 -35
3 7 -5 28 -16 48 -27 45 -26 52 6 86 15 15 22 28 17 28 -5 0 -17 -9 -27 -20z"/>
<path d="M715 333 c7 -84 31 -223 40 -231 13 -13 15 11 6 69 -6 35 -12 91 -15
124 -5 60 -20 115 -32 115 -3 0 -3 -35 1 -77z"/>
<path d="M315 278 c-27 -24 -59 -53 -73 -66 -14 -12 -22 -25 -19 -28 6 -6 110
78 137 111 28 34 -1 23 -45 -17z"/>
<path d="M146 268 c-8 -13 -20 -36 -27 -52 -12 -26 -11 -30 14 -51 l28 -22
-33 -26 c-29 -23 -30 -26 -12 -27 11 0 33 13 49 30 26 27 35 30 92 30 68 0
169 13 273 36 36 8 72 14 80 14 8 0 37 -29 63 -64 59 -78 87 -106 87 -84 0 8
-12 25 -26 39 -34 32 -85 110 -78 120 3 5 14 9 25 9 10 0 19 5 19 11 0 7 -10
9 -27 4 -165 -41 -432 -72 -467 -53 -32 17 -46 40 -35 60 23 43 1 66 -25 26z"/>
</g>
</svg>
