<?xml version="1.0" standalone="no"?>
<!DOCTYPE svg PUBLIC "-//W3C//DTD SVG 20010904//EN"
 "http://www.w3.org/TR/2001/REC-SVG-20010904/DTD/svg10.dtd">
<svg version="1.0" xmlns="http://www.w3.org/2000/svg"
 width="109.000000pt" height="43.000000pt" viewBox="0 0 109.000000 43.000000"
 preserveAspectRatio="xMidYMid meet">
<metadata>
Created by potrace 1.16, written by Peter Selinger 2001-2019
</metadata>
<g transform="translate(0.000000,43.000000) scale(0.100000,-0.100000)"
fill="#000000" stroke="none">
<path d="M170 350 c-13 -10 -24 -36 -31 -75 -6 -33 -19 -74 -30 -91 -21 -35
-17 -59 13 -75 29 -16 194 -23 256 -11 48 9 52 8 52 -10 0 -11 4 -16 10 -13 6
3 10 15 10 26 0 11 4 18 9 15 5 -3 22 -2 37 3 16 5 89 12 162 15 73 3 137 8
143 12 6 3 37 -17 69 -45 32 -28 61 -51 64 -51 3 0 -10 21 -29 46 -41 54 -43
64 -11 64 26 0 36 -16 36 -61 0 -16 5 -29 10 -29 6 0 10 3 11 8 8 92 14 102
62 102 15 0 27 5 27 11 0 7 -14 10 -35 7 -33 -4 -35 -2 -35 24 0 49 -21 53
-279 51 l-234 -3 6 34 c3 18 2 37 -1 43 -4 7 -61 12 -140 14 -106 3 -136 1
-152 -11z m251 -67 c0 -32 3 -79 5 -105 l5 -47 -47 -7 c-26 -4 -83 -4 -128 -1
-121 8 -130 27 -79 164 17 47 -2 42 186 51 l57 3 1 -58z m493 -49 c14 -37 7
-52 -29 -56 -19 -2 -39 0 -45 6 -6 6 -14 5 -23 -3 -8 -6 -41 -14 -73 -16 -33
-2 -93 -7 -134 -10 -41 -3 -92 -8 -112 -12 l-38 -6 0 51 0 51 43 4 c23 2 124
4 223 5 158 2 183 0 188 -14z"/>
</g>
</svg>
