<?xml version="1.0" standalone="no"?>
<!DOCTYPE svg PUBLIC "-//W3C//DTD SVG 20010904//EN"
 "http://www.w3.org/TR/2001/REC-SVG-20010904/DTD/svg10.dtd">
<svg version="1.0" xmlns="http://www.w3.org/2000/svg"
 width="84.000000pt" height="37.000000pt" viewBox="0 0 84.000000 37.000000"
 preserveAspectRatio="xMidYMid meet">
<metadata>
Created by potrace 1.16, written by Peter Selinger 2001-2019
</metadata>
<g transform="translate(0.000000,37.000000) scale(0.100000,-0.100000)"
fill="#000000" stroke="none">
<path d="M123 253 c-12 -30 6 -46 45 -40 20 3 85 9 145 13 59 4 107 11 107 16
0 14 -18 16 -158 21 -105 3 -135 1 -139 -10z"/>
<path d="M450 199 c0 -21 2 -22 98 -14 53 4 106 8 117 10 11 1 42 3 68 4 29 0
46 5 42 11 -4 6 -70 10 -166 10 -156 0 -159 0 -159 -21z"/>
<path d="M135 180 c-16 -25 10 -30 128 -25 140 7 170 12 162 25 -8 13 -282 13
-290 0z"/>
<path d="M464 148 c-3 -5 0 -15 7 -22 11 -9 44 -9 152 2 75 8 137 18 137 22 0
12 -289 10 -296 -2z"/>
<path d="M144 118 c-2 -3 -1 -14 2 -23 5 -12 15 -15 43 -11 20 3 68 8 106 11
87 7 177 22 150 25 -49 6 -297 4 -301 -2z"/>
</g>
</svg>
