<?xml version="1.0" standalone="no"?>
<!DOCTYPE svg PUBLIC "-//W3C//DTD SVG 20010904//EN"
 "http://www.w3.org/TR/2001/REC-SVG-20010904/DTD/svg10.dtd">
<svg version="1.0" xmlns="http://www.w3.org/2000/svg"
 width="76.000000pt" height="51.000000pt" viewBox="0 0 76.000000 51.000000"
 preserveAspectRatio="xMidYMid meet">
<metadata>
Created by potrace 1.16, written by Peter Selinger 2001-2019
</metadata>
<g transform="translate(0.000000,51.000000) scale(0.100000,-0.100000)"
fill="#000000" stroke="none">
<path d="M540 369 c-43 -22 -70 -24 -70 -4 0 25 -29 17 -36 -10 -8 -33 -24
-32 -24 1 0 33 -24 27 -28 -7 -6 -39 -22 -47 -22 -10 0 43 -24 37 -28 -7 -4
-36 -24 -45 -22 -9 4 38 0 47 -15 41 -9 -4 -15 -19 -15 -39 0 -18 -6 -38 -14
-45 -15 -12 -11 -44 4 -35 5 3 13 -2 18 -11 9 -15 10 -15 16 4 8 25 26 30 26
7 0 -23 18 -18 22 7 4 30 24 33 33 6 7 -21 8 -21 12 9 7 54 31 49 35 -8 l3
-49 -82 -1 c-46 -1 -93 -2 -105 -3 -13 -1 -38 5 -55 13 -35 16 -37 22 -33 109
1 31 -3 44 -15 48 -22 9 -26 2 -30 -53 -1 -26 -6 -59 -9 -73 -5 -20 -2 -31 15
-45 19 -18 35 -20 178 -19 298 3 280 1 286 27 10 45 10 170 0 172 -5 2 -26 -6
-45 -16z m22 -90 c1 -33 1 -63 -1 -65 -2 -2 -29 -4 -59 -4 l-54 0 6 31 c3 17
6 42 6 54 0 16 9 25 33 33 62 20 65 18 69 -49z"/>
</g>
</svg>
