<?xml version="1.0" standalone="no"?>
<!DOCTYPE svg PUBLIC "-//W3C//DTD SVG 20010904//EN"
 "http://www.w3.org/TR/2001/REC-SVG-20010904/DTD/svg10.dtd">
<svg version="1.0" xmlns="http://www.w3.org/2000/svg"
 width="52.000000pt" height="46.000000pt" viewBox="0 0 52.000000 46.000000"
 preserveAspectRatio="xMidYMid meet">
<metadata>
Created by potrace 1.16, written by Peter Selinger 2001-2019
</metadata>
<g transform="translate(0.000000,46.000000) scale(0.100000,-0.100000)"
fill="#000000" stroke="none">
<path d="M135 400 c-4 -6 -15 -42 -26 -80 l-19 -70 45 -89 c42 -84 75 -129 62
-85 -34 111 -60 212 -59 226 0 10 8 33 17 52 16 33 14 56 -5 56 -5 0 -12 -5
-15 -10z"/>
<path d="M203 251 c5 -166 20 -222 25 -94 l3 73 104 0 c63 0 106 4 110 11 4 6
5 12 3 14 -2 2 -52 5 -111 6 l-107 1 3 71 c2 62 0 72 -16 75 -17 3 -18 -6 -14
-157z"/>
</g>
</svg>
