<?xml version="1.0" standalone="no"?>
<!DOCTYPE svg PUBLIC "-//W3C//DTD SVG 20010904//EN"
 "http://www.w3.org/TR/2001/REC-SVG-20010904/DTD/svg10.dtd">
<svg version="1.0" xmlns="http://www.w3.org/2000/svg"
 width="102.000000pt" height="54.000000pt" viewBox="0 0 102.000000 54.000000"
 preserveAspectRatio="xMidYMid meet">
<metadata>
Created by potrace 1.16, written by Peter Selinger 2001-2019
</metadata>
<g transform="translate(0.000000,54.000000) scale(0.100000,-0.100000)"
fill="#000000" stroke="none">
<path d="M345 448 c-12 -7 -15 -29 -15 -104 l0 -94 -139 2 c-126 3 -140 1
-145 -14 -2 -10 -1 -20 2 -22 4 -2 65 1 137 6 121 9 283 7 515 -8 121 -7 128
-9 100 -32 -20 -16 -20 -19 -6 -31 23 -20 38 -9 70 51 l28 55 -38 66 c-21 37
-44 67 -51 67 -27 0 -24 -24 8 -56 18 -18 31 -36 28 -38 -5 -5 -291 -38 -294
-34 -2 2 1 41 6 88 4 47 5 88 1 91 -11 11 -190 16 -207 7z m145 -23 c0 -3 -11
-10 -25 -15 -27 -10 -58 -3 -49 11 5 9 74 13 74 4z m31 -88 c1 -37 -1 -70 -4
-73 -10 -11 -39 5 -34 19 2 6 -3 17 -12 24 -14 11 -14 13 4 27 19 15 19 15 1
16 -19 0 -18 1 2 23 12 13 22 32 22 43 1 16 2 17 10 3 5 -8 10 -45 11 -82z
m-139 71 c-17 -17 -15 -28 7 -28 10 0 24 -7 31 -15 11 -13 8 -15 -13 -15 -30
0 -44 -15 -22 -24 12 -4 10 -10 -8 -30 -12 -13 -23 -23 -25 -21 -2 2 -1 36 3
74 5 55 11 71 23 71 12 0 13 -3 4 -12z m68 -98 c0 -5 -9 -10 -21 -10 -11 0
-17 5 -14 10 3 6 13 10 21 10 8 0 14 -4 14 -10z m23 -45 c-2 -5 -28 -11 -60
-13 -51 -3 -55 -2 -43 13 15 18 107 18 103 0z m402 4 c4 -5 -1 -19 -11 -31
-18 -19 -26 -20 -119 -13 -198 14 -205 19 -55 36 176 21 178 21 185 8z"/>
</g>
</svg>
