<?xml version="1.0" standalone="no"?>
<!DOCTYPE svg PUBLIC "-//W3C//DTD SVG 20010904//EN"
 "http://www.w3.org/TR/2001/REC-SVG-20010904/DTD/svg10.dtd">
<svg version="1.0" xmlns="http://www.w3.org/2000/svg"
 width="52.000000pt" height="41.000000pt" viewBox="0 0 52.000000 41.000000"
 preserveAspectRatio="xMidYMid meet">
<metadata>
Created by potrace 1.16, written by Peter Selinger 2001-2019
</metadata>
<g transform="translate(0.000000,41.000000) scale(0.100000,-0.100000)"
fill="#000000" stroke="none">
<path d="M217 363 c-4 -3 -7 -19 -7 -35 0 -22 -5 -28 -21 -28 -16 0 -19 4 -14
18 12 31 10 37 -10 37 -15 0 -21 -9 -27 -45 -4 -25 -13 -55 -19 -66 -9 -19 -5
-33 31 -94 23 -39 43 -70 45 -68 2 2 0 21 -5 43 -13 57 -12 65 8 65 15 0 18
-7 17 -37 -1 -21 1 -44 3 -51 9 -26 22 11 22 64 0 33 4 51 13 52 76 5 225 28
221 34 -5 7 -194 1 -220 -7 -8 -2 -10 16 -6 61 4 52 2 64 -10 64 -8 0 -18 -3
-21 -7z m-14 -90 c-7 -2 -21 -2 -30 0 -10 3 -4 5 12 5 17 0 24 -2 18 -5z m0
-30 c-7 -2 -19 -2 -25 0 -7 3 -2 5 12 5 14 0 19 -2 13 -5z m0 -30 c-7 -2 -19
-2 -25 0 -7 3 -2 5 12 5 14 0 19 -2 13 -5z"/>
</g>
</svg>
