<?xml version="1.0" standalone="no"?>
<!DOCTYPE svg PUBLIC "-//W3C//DTD SVG 20010904//EN"
 "http://www.w3.org/TR/2001/REC-SVG-20010904/DTD/svg10.dtd">
<svg version="1.0" xmlns="http://www.w3.org/2000/svg"
 width="130.000000pt" height="69.000000pt" viewBox="0 0 130.000000 69.000000"
 preserveAspectRatio="xMidYMid meet">
<metadata>
Created by potrace 1.16, written by Peter Selinger 2001-2019
</metadata>
<g transform="translate(0.000000,69.000000) scale(0.100000,-0.100000)"
fill="#000000" stroke="none">
<path d="M1228 562 c-10 -26 -35 -72 -58 -101 -45 -61 -47 -66 -24 -75 12 -4
24 13 53 75 20 44 39 77 43 74 3 -4 8 2 11 12 3 10 8 28 12 41 13 45 -20 22
-37 -26z"/>
<path d="M445 560 c-111 -46 -184 -54 -278 -31 -76 18 -95 15 -84 -14 3 -7 -1
-16 -9 -19 -10 -4 -14 -25 -14 -86 0 -44 4 -80 9 -80 11 0 31 87 33 143 l1 38
51 -6 c107 -13 101 -9 102 -75 0 -45 -3 -60 -14 -60 -9 0 -13 10 -11 33 4 45
-15 46 -22 0 l-6 -38 -2 43 c-1 53 -21 56 -21 2 0 -53 -18 -51 -22 3 -4 52
-22 55 -26 5 -2 -25 -8 -38 -18 -38 -8 0 -14 -7 -14 -15 0 -8 7 -15 15 -15 7
0 19 -8 24 -17 10 -17 10 -17 11 0 0 26 30 21 31 -5 0 -22 1 -22 11 2 9 23 11
24 17 6 7 -17 8 -18 14 -3 8 22 37 22 37 0 0 -12 3 -14 11 -6 8 8 25 3 62 -20
l52 -30 -4 -84 c-4 -95 7 -118 48 -110 28 6 161 38 256 63 33 9 72 18 88 21
15 3 27 10 27 15 0 6 -8 7 -17 3 -30 -11 -243 -50 -330 -60 l-53 -6 0 34 c0
77 9 94 55 106 62 16 65 15 65 -21 0 -25 3 -29 10 -18 5 8 10 25 10 37 0 18 7
23 38 28 20 3 57 10 82 15 25 5 92 17 150 26 122 19 292 53 299 60 16 16 -26
12 -161 -15 -183 -36 -399 -73 -403 -69 -2 2 -1 23 2 48 l5 45 247 3 c135 2
255 6 266 9 20 6 20 6 1 13 -18 6 -16 10 18 44 21 20 58 53 82 72 24 20 44 41
44 46 0 6 -17 -5 -38 -24 -21 -19 -66 -52 -100 -73 -39 -24 -61 -43 -58 -52 4
-11 -38 -13 -230 -13 -234 0 -235 0 -229 21 9 28 10 99 1 127 -9 28 -25 27
-111 -8z m75 -65 c0 -74 0 -75 -26 -75 -31 0 -28 -23 4 -28 19 -3 22 -10 22
-48 0 -48 -2 -51 -66 -57 l-40 -4 0 66 c1 52 -2 66 -14 66 -12 0 -15 -13 -13
-62 2 -35 -1 -63 -6 -63 -5 0 -26 19 -47 43 -21 23 -43 41 -47 39 -11 -3 1 91
11 96 4 1 52 25 107 52 55 26 103 49 108 49 4 1 7 -33 7 -74z"/>
<path d="M1246 398 c-10 -40 -7 -398 4 -398 6 0 10 77 10 210 0 116 -2 210 -4
210 -2 0 -6 -10 -10 -22z"/>
<path d="M565 260 c-9 -14 28 -26 125 -40 47 -7 97 -18 111 -24 27 -13 73 -6
50 8 -11 7 -255 66 -272 66 -4 0 -11 -4 -14 -10z"/>
</g>
</svg>
