<?xml version="1.0" standalone="no"?>
<!DOCTYPE svg PUBLIC "-//W3C//DTD SVG 20010904//EN"
 "http://www.w3.org/TR/2001/REC-SVG-20010904/DTD/svg10.dtd">
<svg version="1.0" xmlns="http://www.w3.org/2000/svg"
 width="99.000000pt" height="61.000000pt" viewBox="0 0 99.000000 61.000000"
 preserveAspectRatio="xMidYMid meet">
<metadata>
Created by potrace 1.16, written by Peter Selinger 2001-2019
</metadata>
<g transform="translate(0.000000,61.000000) scale(0.100000,-0.100000)"
fill="#000000" stroke="none">
<path d="M320 565 c-7 -8 -9 -26 -5 -43 6 -28 3 -32 -74 -77 -61 -36 -79 -51
-71 -60 8 -10 6 -13 -6 -11 -16 1 -18 -14 -20 -141 l-2 -141 29 -13 c22 -8 36
-9 52 -1 19 9 17 11 -21 11 l-43 1 7 77 c4 43 8 85 10 93 1 8 3 28 3 43 l1 28
43 -25 c62 -37 105 -73 104 -88 -2 -58 5 -138 12 -138 9 0 26 101 22 136 -1
15 18 39 64 81 67 60 67 60 153 72 70 9 291 30 337 31 6 0 5 4 -2 8 -6 4 -103
3 -215 -1 l-203 -8 -63 67 c-35 37 -68 78 -73 91 -10 27 -21 29 -39 8z m78
-112 c20 -15 49 -38 64 -51 l27 -25 -66 -49 c-75 -56 -88 -53 -78 21 3 24 5
63 5 87 0 24 3 44 6 44 3 0 22 -12 42 -27z m-73 -191 c-5 -6 -115 102 -115
114 0 7 24 31 53 53 l52 40 6 -102 c3 -56 5 -103 4 -105z"/>
<path d="M28 83 c12 -2 30 -2 40 0 9 3 -1 5 -23 4 -22 0 -30 -2 -17 -4z"/>
</g>
</svg>
