<?xml version="1.0" standalone="no"?>
<!DOCTYPE svg PUBLIC "-//W3C//DTD SVG 20010904//EN"
 "http://www.w3.org/TR/2001/REC-SVG-20010904/DTD/svg10.dtd">
<svg version="1.0" xmlns="http://www.w3.org/2000/svg"
 width="114.000000pt" height="44.000000pt" viewBox="0 0 114.000000 44.000000"
 preserveAspectRatio="xMidYMid meet">
<metadata>
Created by potrace 1.16, written by Peter Selinger 2001-2019
</metadata>
<g transform="translate(0.000000,44.000000) scale(0.100000,-0.100000)"
fill="#000000" stroke="none">
<path d="M85 336 c-19 -16 -25 -29 -21 -43 3 -10 8 -61 11 -112 2 -52 8 -98
13 -103 5 -5 21 1 38 15 40 33 141 97 154 97 6 0 10 -23 10 -55 0 -64 15 -73
25 -15 l7 41 54 -47 c30 -25 57 -44 60 -42 2 3 -23 30 -56 61 -33 31 -60 63
-60 70 0 7 29 30 65 51 65 38 82 53 71 63 -3 3 -29 -10 -58 -29 -83 -54 -79
-53 -73 -19 6 36 -9 81 -29 81 -21 0 -27 -27 -20 -84 7 -49 7 -50 -12 -36 -10
8 -21 17 -24 20 -3 3 -33 28 -66 57 l-62 52 -27 -23z m43 -28 c7 -7 12 -19 11
-27 0 -10 -5 -6 -12 9 -10 22 -12 18 -15 -40 -2 -35 0 -76 4 -90 6 -23 7 -24
14 -5 7 17 9 17 9 3 1 -15 -26 -38 -43 -38 -3 0 -3 21 -1 48 2 26 4 71 5 100
0 53 6 62 28 40z m42 -153 c-8 -17 -15 47 -10 90 4 38 5 36 10 -20 3 -33 3
-64 0 -70z m80 58 c0 -9 -34 -32 -47 -33 -9 0 -13 15 -13 41 l0 40 30 -21 c17
-12 30 -24 30 -27z m-113 0 c-3 -10 -5 -4 -5 12 0 17 2 24 5 18 2 -7 2 -21 0
-30z"/>
<path d="M622 343 c-6 -9 -52 -35 -103 -58 -52 -22 -94 -46 -94 -52 0 -6 -3
-15 -7 -19 -14 -13 -9 -40 10 -57 20 -18 170 -59 184 -51 4 3 8 -2 8 -11 0
-10 4 -13 13 -8 6 4 17 9 22 10 6 1 55 14 110 27 55 14 118 28 140 30 72 9
145 27 145 37 0 5 -10 7 -22 4 -90 -19 -315 -55 -350 -55 -23 0 -28 4 -28 24
0 14 4 28 10 31 11 7 17 8 140 31 47 8 117 22 157 30 105 21 101 22 109 -47 8
-72 21 -65 29 16 4 32 7 63 8 69 3 15 -44 20 -53 6 -8 -12 -91 -30 -254 -55
-155 -23 -146 -27 -139 50 5 55 4 65 -10 65 -9 0 -20 -8 -25 -17z m0 -60 c0
-10 2 -25 3 -33 1 -8 -3 -21 -8 -28 -7 -8 -6 -17 1 -24 7 -7 12 -27 12 -46 0
-29 -3 -33 -20 -28 -11 3 -28 8 -39 11 -15 5 -18 11 -12 38 7 32 7 59 0 86 -2
8 7 20 21 28 33 17 40 16 42 -4z m-87 -74 c4 -27 4 -53 0 -57 -11 -12 -60 23
-63 46 -3 20 30 61 50 62 3 0 9 -23 13 -51z"/>
</g>
</svg>
