<?xml version="1.0" standalone="no"?>
<!DOCTYPE svg PUBLIC "-//W3C//DTD SVG 20010904//EN"
 "http://www.w3.org/TR/2001/REC-SVG-20010904/DTD/svg10.dtd">
<svg version="1.0" xmlns="http://www.w3.org/2000/svg"
 width="95.000000pt" height="43.000000pt" viewBox="0 0 95.000000 43.000000"
 preserveAspectRatio="xMidYMid meet">
<metadata>
Created by potrace 1.16, written by Peter Selinger 2001-2019
</metadata>
<g transform="translate(0.000000,43.000000) scale(0.100000,-0.100000)"
fill="#000000" stroke="none">
<path d="M520 338 c0 -96 -2 -98 -86 -98 l-73 0 6 49 c6 57 -3 66 -45 46 -17
-9 -68 -21 -114 -28 -107 -16 -138 -36 -138 -89 0 -21 -7 -50 -16 -63 -15 -24
-15 -25 7 -34 13 -4 71 -6 128 -4 57 2 111 1 120 -3 17 -7 270 -6 331 1 19 3
60 7 92 9 54 4 56 4 63 -21 10 -43 23 -12 27 67 l3 75 -87 3 -87 3 -6 54 c-8
64 -25 64 -25 0 0 -45 -9 -57 -47 -63 -25 -3 -26 1 -27 87 -1 34 -6 56 -13 58
-9 3 -13 -10 -13 -49z m-185 -60 c-4 -18 -12 -36 -18 -40 -8 -4 -8 -10 0 -20
6 -7 8 -28 6 -45 -5 -32 -6 -33 -58 -33 l-52 0 5 49 c3 31 0 51 -8 56 -19 11
-24 -2 -21 -56 l2 -51 -48 7 c-26 4 -49 8 -51 9 -1 2 2 25 8 53 l11 49 77 18
c42 10 88 22 102 26 47 15 52 13 45 -22z m283 -95 c3 -41 2 -43 -25 -44 -15 0
-36 -2 -46 -4 -16 -3 -18 1 -12 38 8 48 19 58 55 55 22 -3 25 -8 28 -45z m166
31 c3 -9 6 -28 6 -42 0 -27 -1 -27 -70 -28 l-70 -1 0 43 0 44 64 0 c49 0 65
-4 70 -16z m-274 -39 l0 -45 -86 0 c-85 0 -86 0 -80 23 3 12 6 32 6 45 0 21 4
22 80 22 l80 0 0 -45z"/>
</g>
</svg>
