<?xml version="1.0" standalone="no"?>
<!DOCTYPE svg PUBLIC "-//W3C//DTD SVG 20010904//EN"
 "http://www.w3.org/TR/2001/REC-SVG-20010904/DTD/svg10.dtd">
<svg version="1.0" xmlns="http://www.w3.org/2000/svg"
 width="81.000000pt" height="53.000000pt" viewBox="0 0 81.000000 53.000000"
 preserveAspectRatio="xMidYMid meet">
<metadata>
Created by potrace 1.16, written by Peter Selinger 2001-2019
</metadata>
<g transform="translate(0.000000,53.000000) scale(0.100000,-0.100000)"
fill="#000000" stroke="none">
<path d="M293 429 l-28 -61 -84 3 c-56 2 -86 0 -88 -8 -7 -20 21 -27 95 -24
45 2 72 -1 72 -8 0 -6 -31 -11 -75 -13 -41 -2 -75 -7 -75 -13 0 -5 37 -12 82
-15 55 -3 83 -9 86 -18 3 -11 -14 -13 -82 -10 -52 2 -85 -1 -86 -7 0 -6 40
-11 95 -13 78 -2 95 -5 95 -18 0 -14 -14 -15 -97 -12 -82 2 -98 1 -98 -12 0
-13 18 -15 107 -13 98 1 108 0 113 -18 4 -10 13 -26 22 -34 13 -14 13 -19 -5
-49 -39 -66 -8 -46 37 24 l46 71 143 3 c131 2 142 0 142 -16 0 -10 4 -18 8
-18 5 0 16 44 25 98 9 55 17 105 19 112 2 11 -27 13 -152 11 l-156 -3 -12 27
c-7 14 -12 31 -12 38 0 7 -7 23 -16 35 -13 18 -19 21 -30 11 -12 -10 -12 -16
4 -43 35 -60 35 -65 -3 -64 -31 1 -35 4 -35 29 0 15 -4 30 -9 33 -11 7 -21
-17 -21 -50 0 -15 -6 -24 -15 -24 -12 0 -10 11 10 56 27 62 30 74 15 74 -5 0
-22 -27 -37 -61z m417 -101 c0 -23 -1 -23 -120 -20 -94 3 -120 6 -120 17 0 14
31 18 183 23 53 2 57 0 57 -20z m-380 -3 c0 -8 -9 -15 -20 -15 -11 0 -20 7
-20 15 0 8 9 15 20 15 11 0 20 -7 20 -15z m44 0 c3 -8 1 -15 -4 -15 -6 0 -10
7 -10 15 0 8 2 15 4 15 2 0 6 -7 10 -15z m70 0 c4 -11 -1 -15 -18 -15 -13 0
-26 7 -30 15 -4 11 1 15 18 15 13 0 26 -7 30 -15z m-114 -51 c0 -8 -4 -12 -10
-9 -5 3 -10 10 -10 16 0 5 5 9 10 9 6 0 10 -7 10 -16z m50 7 c0 -6 -4 -13 -10
-16 -5 -3 -10 1 -10 9 0 9 5 16 10 16 6 0 10 -4 10 -9z m58 -3 c-7 -19 -38
-22 -38 -4 0 10 9 16 21 16 12 0 19 -5 17 -12z m272 -3 c0 -12 -19 -15 -115
-15 -96 0 -115 3 -115 15 0 12 19 15 115 15 96 0 115 -3 115 -15z m0 -45 c0
-19 -7 -20 -131 -20 -100 0 -130 3 -127 13 3 8 42 14 129 17 68 3 125 7 127 8
1 1 2 -7 2 -18z m-326 -5 c3 -9 0 -15 -9 -15 -8 0 -15 7 -15 15 0 8 4 15 9 15
5 0 11 -7 15 -15z m6 -39 c0 -11 -13 -36 -19 -36 -3 0 -12 9 -19 20 -11 18
-10 20 13 20 14 0 25 -2 25 -4z"/>
</g>
</svg>
