<?xml version="1.0" standalone="no"?>
<!DOCTYPE svg PUBLIC "-//W3C//DTD SVG 20010904//EN"
 "http://www.w3.org/TR/2001/REC-SVG-20010904/DTD/svg10.dtd">
<svg version="1.0" xmlns="http://www.w3.org/2000/svg"
 width="56.000000pt" height="35.000000pt" viewBox="0 0 56.000000 35.000000"
 preserveAspectRatio="xMidYMid meet">
<metadata>
Created by potrace 1.16, written by Peter Selinger 2001-2019
</metadata>
<g transform="translate(0.000000,35.000000) scale(0.100000,-0.100000)"
fill="#000000" stroke="none">
<path d="M107 298 c-15 -12 -16 -23 -8 -103 5 -49 8 -100 7 -112 -1 -29 18
-34 22 -6 5 32 22 29 23 -4 1 -28 1 -28 17 7 l16 35 7 -40 c4 -27 7 -32 8 -14
0 14 8 34 16 45 14 18 14 17 15 -13 0 -17 5 -35 10 -38 6 -4 10 8 10 28 0 43
25 58 34 21 4 -14 11 -22 17 -18 6 3 9 15 6 25 -4 15 3 21 31 28 174 42 185
51 95 76 -32 9 -92 26 -133 40 -41 13 -90 27 -107 30 -18 4 -35 11 -38 16 -8
13 -28 11 -48 -3z m114 -47 c35 -11 98 -27 139 -37 86 -18 112 -34 58 -34 -19
0 -52 -7 -72 -15 -36 -15 -36 -15 -36 10 0 16 -6 25 -15 25 -9 0 -15 -9 -15
-25 0 -16 -6 -25 -15 -25 -10 0 -15 10 -15 31 0 20 -4 29 -12 26 -7 -2 -12
-18 -12 -36 1 -17 -2 -31 -7 -31 -5 0 -9 17 -9 38 0 35 -2 37 -32 37 -33 0
-33 -1 -33 -48 0 -33 -4 -47 -14 -47 -9 0 -11 7 -7 23 3 12 6 46 6 75 0 60 0
60 91 33z"/>
</g>
</svg>
