<?xml version="1.0" standalone="no"?>
<!DOCTYPE svg PUBLIC "-//W3C//DTD SVG 20010904//EN"
 "http://www.w3.org/TR/2001/REC-SVG-20010904/DTD/svg10.dtd">
<svg version="1.0" xmlns="http://www.w3.org/2000/svg"
 width="110.000000pt" height="52.000000pt" viewBox="0 0 110.000000 52.000000"
 preserveAspectRatio="xMidYMid meet">
<metadata>
Created by potrace 1.16, written by Peter Selinger 2001-2019
</metadata>
<g transform="translate(0.000000,52.000000) scale(0.100000,-0.100000)"
fill="#000000" stroke="none">
<path d="M365 430 c-3 -11 -10 -20 -15 -20 -5 0 -7 7 -4 15 11 29 -15 15 -46
-25 -25 -31 -45 -44 -92 -58 -33 -10 -76 -31 -95 -46 -29 -23 -34 -33 -28 -55
10 -42 46 -72 91 -74 91 -4 179 3 164 13 -8 6 -26 8 -40 5 -44 -9 -55 6 -41
59 12 50 9 66 -15 66 -8 0 -14 -10 -14 -26 0 -24 -1 -24 -22 -10 -29 21 -42
20 -34 0 5 -14 4 -15 -8 -5 -8 7 -17 8 -20 3 -7 -11 59 -64 68 -55 3 3 1 11
-4 18 -7 8 -5 12 5 12 10 0 15 -10 15 -29 0 -25 -3 -28 -35 -28 -26 0 -39 6
-51 25 -19 29 -12 75 11 75 8 0 15 5 15 10 0 6 9 10 20 10 29 0 79 27 115 60
27 26 32 27 50 14 17 -13 18 -19 8 -56 -7 -26 -8 -45 -2 -49 5 -3 8 -32 7 -64
l-3 -59 55 4 c60 4 289 4 467 0 62 -2 116 -1 119 3 3 3 2 13 -3 22 -5 9 -7 37
-3 61 6 36 4 47 -9 53 -23 12 -127 20 -286 23 -155 2 -139 -3 -265 93 -52 40
-66 43 -75 15z m106 -70 c34 -22 54 -40 44 -40 -15 0 -115 65 -115 76 0 8 11
3 71 -36z m-31 -30 l25 -20 -32 0 c-26 0 -33 4 -33 20 0 25 8 25 40 0z m460
-35 l65 -7 3 -57 3 -56 -38 2 c-21 2 -153 6 -294 9 -228 6 -256 9 -254 23 2 9
4 28 4 43 1 24 5 27 53 33 166 23 312 26 458 10z"/>
</g>
</svg>
