<?xml version="1.0" standalone="no"?>
<!DOCTYPE svg PUBLIC "-//W3C//DTD SVG 20010904//EN"
 "http://www.w3.org/TR/2001/REC-SVG-20010904/DTD/svg10.dtd">
<svg version="1.0" xmlns="http://www.w3.org/2000/svg"
 width="87.000000pt" height="48.000000pt" viewBox="0 0 87.000000 48.000000"
 preserveAspectRatio="xMidYMid meet">
<metadata>
Created by potrace 1.16, written by Peter Selinger 2001-2019
</metadata>
<g transform="translate(0.000000,48.000000) scale(0.100000,-0.100000)"
fill="#000000" stroke="none">
<path d="M506 408 c-38 -39 -38 -39 -32 -99 4 -33 10 -67 13 -75 3 -9 -1 -14
-12 -14 -16 0 -53 27 -124 89 -27 23 -33 25 -46 12 -15 -14 -136 -61 -157 -61
-11 0 -28 -5 -39 -11 -19 -10 -19 -12 -5 -28 15 -16 15 -19 1 -31 -24 -20 -18
-46 17 -75 29 -25 37 -26 112 -24 45 2 87 -1 94 -5 7 -4 25 -5 40 -1 15 4 52
11 82 16 30 5 102 18 160 28 75 14 107 16 112 8 12 -20 18 -1 20 59 2 57 1 59
-24 62 -15 2 -50 -1 -78 -6 l-52 -10 31 32 c36 37 39 62 11 91 -11 11 -32 35
-46 53 -14 17 -29 31 -32 31 -4 -1 -24 -20 -46 -41z m94 -54 c0 -6 -7 -27 -15
-45 -13 -31 -14 -32 -15 -9 -1 37 -11 70 -22 70 -6 0 -9 -27 -7 -67 4 -58 2
-68 -13 -71 -16 -3 -18 5 -18 63 0 43 5 74 16 90 l16 24 29 -21 c16 -12 29
-27 29 -34z m-288 -161 l5 -73 -44 0 -45 0 4 53 c2 41 0 52 -12 52 -12 0 -15
-12 -14 -52 2 -57 -6 -64 -44 -37 -15 10 -22 25 -22 48 0 34 16 45 130 93 32
14 36 6 42 -84z m56 19 c2 -7 -3 -12 -12 -12 -9 0 -16 7 -16 16 0 17 22 14 28
-4z m344 -12 c3 -22 1 -30 -11 -31 -23 -1 -101 -14 -226 -38 -60 -11 -116 -21
-122 -21 -8 0 -13 14 -13 35 0 34 2 35 38 36 43 2 48 3 167 28 50 10 106 19
126 20 33 1 37 -2 41 -29z"/>
</g>
</svg>
