<?xml version="1.0" standalone="no"?>
<!DOCTYPE svg PUBLIC "-//W3C//DTD SVG 20010904//EN"
 "http://www.w3.org/TR/2001/REC-SVG-20010904/DTD/svg10.dtd">
<svg version="1.0" xmlns="http://www.w3.org/2000/svg"
 width="100.000000pt" height="64.000000pt" viewBox="0 0 100.000000 64.000000"
 preserveAspectRatio="xMidYMid meet">
<metadata>
Created by potrace 1.16, written by Peter Selinger 2001-2019
</metadata>
<g transform="translate(0.000000,64.000000) scale(0.100000,-0.100000)"
fill="#000000" stroke="none">
<path d="M690 609 c0 -5 13 -27 29 -47 16 -20 55 -73 86 -117 48 -68 56 -85
51 -113 -7 -43 -60 -130 -136 -220 -34 -41 -59 -76 -57 -78 7 -8 184 165 222
217 41 55 38 79 -20 155 -21 27 -62 86 -91 132 -30 45 -60 82 -69 82 -8 0 -15
-5 -15 -11z"/>
<path d="M674 516 c-3 -8 -3 -20 1 -26 4 -7 -82 -10 -277 -10 -217 -1 -287 -4
-300 -14 -16 -11 -17 -27 -11 -144 3 -73 10 -132 15 -132 4 0 8 6 8 13 0 10
26 12 115 9 85 -3 115 -1 115 8 0 10 3 10 15 0 10 -8 59 -11 159 -11 l146 2
-10 -26 c-5 -14 -17 -36 -25 -49 -9 -14 -12 -27 -7 -30 11 -7 26 14 71 99 18
33 43 78 57 100 28 46 26 59 -17 151 -33 69 -46 84 -55 60z m35 -90 c12 -18
21 -38 21 -45 0 -8 -54 -11 -185 -11 -158 0 -185 2 -185 15 0 16 18 17 232 15
65 -1 109 3 113 9 6 11 -122 16 -277 11 -55 -1 -68 1 -68 13 0 20 28 23 197
25 l131 2 21 -34z m-379 7 c0 -15 -8 -17 -52 -14 -29 2 -57 8 -61 15 -6 8 -10
8 -14 -1 -5 -15 -73 -18 -73 -4 0 16 21 19 113 20 76 1 87 -1 87 -16z m-130
-48 c0 -11 -11 -15 -40 -15 -38 0 -49 8 -33 23 3 4 21 7 40 7 23 0 33 -5 33
-15z m70 0 c0 -9 -9 -15 -25 -15 -24 0 -32 10 -18 23 12 13 43 7 43 -8z m60 0
c0 -9 -9 -15 -25 -15 -18 0 -23 4 -19 15 4 8 15 15 25 15 10 0 19 -7 19 -15z
m-130 -46 c0 -5 -18 -9 -40 -9 -26 0 -40 5 -40 13 0 9 12 11 40 9 22 -2 40 -8
40 -13z m517 12 c1 0 -3 -14 -8 -31 l-11 -30 -169 0 c-93 0 -169 4 -169 9 0 5
12 9 28 8 114 -4 302 4 302 14 0 6 -15 10 -32 9 -98 -6 -298 1 -298 10 0 10
342 21 357 11z m-447 -11 c0 -5 -11 -10 -25 -10 -14 0 -25 5 -25 10 0 6 11 10
25 10 14 0 25 -4 25 -10z m60 -4 c0 -9 -8 -12 -25 -8 -14 2 -25 8 -25 13 0 5
11 9 25 9 14 0 25 -6 25 -14z m-146 -22 c30 -12 16 -24 -27 -24 -32 0 -44 4
-44 15 0 16 41 21 71 9z m81 -14 c-3 -5 -15 -10 -26 -10 -10 0 -19 5 -19 10 0
6 12 10 26 10 14 0 23 -4 19 -10z m65 0 c0 -5 -12 -10 -26 -10 -14 0 -23 4
-19 10 3 6 15 10 26 10 10 0 19 -4 19 -10z m-138 -44 c14 -20 8 -24 -32 -21
-46 2 -55 8 -47 28 6 16 68 11 79 -7z m74 -3 c13 -17 13 -17 14 0 0 11 8 17
25 17 14 0 25 -2 25 -4 0 -2 3 -11 6 -20 4 -11 -2 -15 -28 -15 -54 0 -88 10
-88 25 0 20 30 18 46 -3z m410 1 c-3 -9 -6 -18 -6 -20 0 -2 -72 -4 -159 -4
-154 0 -159 1 -154 20 5 19 14 20 165 20 142 0 159 -2 154 -16z"/>
</g>
</svg>
