<?xml version="1.0" standalone="no"?>
<!DOCTYPE svg PUBLIC "-//W3C//DTD SVG 20010904//EN"
 "http://www.w3.org/TR/2001/REC-SVG-20010904/DTD/svg10.dtd">
<svg version="1.0" xmlns="http://www.w3.org/2000/svg"
 width="82.000000pt" height="48.000000pt" viewBox="0 0 82.000000 48.000000"
 preserveAspectRatio="xMidYMid meet">
<metadata>
Created by potrace 1.16, written by Peter Selinger 2001-2019
</metadata>
<g transform="translate(0.000000,48.000000) scale(0.100000,-0.100000)"
fill="#000000" stroke="none">
<path d="M157 374 c-9 -9 11 -56 36 -83 55 -59 121 -60 211 -3 28 18 55 32 62
32 7 0 54 -13 104 -30 98 -32 120 -36 120 -20 0 12 -199 110 -222 110 -18 0
-71 -25 -118 -57 -54 -36 -92 -31 -130 17 -30 38 -49 48 -63 34z m339 -29 c18
-14 18 -15 -6 -6 -29 10 -39 6 -95 -30 -22 -14 -51 -29 -65 -33 -14 -4 2 10
36 32 88 57 99 60 130 37z"/>
<path d="M760 280 c-8 -5 -12 -11 -9 -14 2 -3 11 -1 19 4 8 5 12 11 9 14 -2 3
-11 1 -19 -4z"/>
<path d="M194 213 c-9 -3 -9 -12 -1 -33 10 -27 16 -30 53 -30 28 0 44 5 48 15
4 11 -2 15 -22 16 -17 1 -20 3 -9 6 9 2 17 10 17 17 0 13 -59 19 -86 9z"/>
<path d="M600 212 c-14 -2 -70 -15 -125 -29 -55 -13 -122 -29 -150 -33 -104
-19 -115 -23 -115 -45 0 -21 13 -25 56 -14 116 28 293 61 324 62 19 0 29 2 22
4 -10 4 -7 9 9 17 44 22 31 46 -21 38z"/>
</g>
</svg>
