<?xml version="1.0" standalone="no"?>
<!DOCTYPE svg PUBLIC "-//W3C//DTD SVG 20010904//EN"
 "http://www.w3.org/TR/2001/REC-SVG-20010904/DTD/svg10.dtd">
<svg version="1.0" xmlns="http://www.w3.org/2000/svg"
 width="59.000000pt" height="35.000000pt" viewBox="0 0 59.000000 35.000000"
 preserveAspectRatio="xMidYMid meet">
<metadata>
Created by potrace 1.16, written by Peter Selinger 2001-2019
</metadata>
<g transform="translate(0.000000,35.000000) scale(0.100000,-0.100000)"
fill="#000000" stroke="none">
<path d="M106 291 c-12 -13 -14 -35 -9 -111 3 -52 10 -100 15 -107 8 -11 89
11 183 48 11 5 60 20 109 34 93 26 113 36 102 53 -6 9 -38 17 -236 57 -47 9
-89 20 -95 25 -22 17 -54 17 -69 1z m219 -55 c55 -9 118 -20 140 -24 l40 -8
-50 -16 c-27 -9 -66 -20 -85 -23 -19 -4 -66 -18 -105 -30 -38 -13 -88 -26
-109 -30 l-39 -6 6 38 c4 21 7 59 7 84 l0 45 48 -7 c26 -3 92 -14 147 -23z"/>
</g>
</svg>
