<?xml version="1.0" standalone="no"?>
<!DOCTYPE svg PUBLIC "-//W3C//DTD SVG 20010904//EN"
 "http://www.w3.org/TR/2001/REC-SVG-20010904/DTD/svg10.dtd">
<svg version="1.0" xmlns="http://www.w3.org/2000/svg"
 width="66.000000pt" height="70.000000pt" viewBox="0 0 66.000000 70.000000"
 preserveAspectRatio="xMidYMid meet">
<metadata>
Created by potrace 1.16, written by Peter Selinger 2001-2019
</metadata>
<g transform="translate(0.000000,70.000000) scale(0.100000,-0.100000)"
fill="#000000" stroke="none">
<path d="M400 621 c0 -5 7 -15 17 -22 15 -13 43 -68 43 -86 0 -4 -87 -8 -192
-8 l-193 0 4 -65 c3 -66 20 -93 51 -85 8 2 86 6 172 10 l158 7 -50 -99 c-31
-61 -46 -101 -40 -107 5 -5 11 -8 12 -5 2 2 29 56 61 119 47 91 59 125 59 161
0 92 -43 189 -83 189 -10 0 -19 -4 -19 -9z m56 -141 c10 0 14 -13 14 -44 l0
-43 -100 0 c-97 1 -100 1 -100 23 0 13 5 26 11 29 6 4 8 13 5 21 -4 9 9 14 47
17 29 2 65 2 81 0 16 -1 35 -3 42 -3z m-211 -27 c15 -68 20 -63 -67 -63 -78 0
-80 1 -74 23 3 12 6 32 6 45 0 21 4 22 65 22 62 0 65 -1 70 -27z"/>
</g>
</svg>
