<?xml version="1.0" standalone="no"?>
<!DOCTYPE svg PUBLIC "-//W3C//DTD SVG 20010904//EN"
 "http://www.w3.org/TR/2001/REC-SVG-20010904/DTD/svg10.dtd">
<svg version="1.0" xmlns="http://www.w3.org/2000/svg"
 width="85.000000pt" height="65.000000pt" viewBox="0 0 85.000000 65.000000"
 preserveAspectRatio="xMidYMid meet">
<metadata>
Created by potrace 1.16, written by Peter Selinger 2001-2019
</metadata>
<g transform="translate(0.000000,65.000000) scale(0.100000,-0.100000)"
fill="#000000" stroke="none">
<path d="M346 538 c-3 -18 -7 -50 -8 -72 l-3 -39 -84 -3 c-70 -2 -87 0 -97 14
-10 14 -14 14 -28 3 -19 -16 -21 -38 -3 -44 8 -2 12 -24 12 -59 0 -31 3 -60 8
-64 4 -4 7 -2 7 4 0 19 47 14 55 -5 7 -16 9 -15 15 7 8 25 8 25 15 -7 4 -18
12 -33 17 -33 5 0 7 13 3 30 -4 19 -3 30 4 30 6 0 12 -4 12 -10 1 -5 2 -14 3
-19 3 -23 16 -21 16 2 0 22 5 27 25 27 l25 0 -1 -104 c0 -58 2 -110 6 -116 6
-9 88 -10 133 -1 1 1 2 14 2 30 0 21 6 30 23 35 l22 7 -25 11 c-14 5 -20 12
-14 15 7 2 10 25 7 63 -4 48 -2 60 10 60 8 0 18 -10 22 -22 l8 -23 4 23 c6 28
17 28 31 0 l11 -23 0 23 c1 32 31 29 31 -4 0 -14 4 -23 10 -19 6 3 10 15 10
26 0 27 24 19 28 -9 2 -12 8 -22 14 -22 5 0 7 7 4 16 -8 21 11 45 30 37 8 -3
14 -12 14 -21 0 -10 3 -12 9 -6 12 11 17 126 7 142 -5 9 -42 12 -119 11 -138
-1 -130 -3 -117 20 5 11 7 22 2 25 -4 2 -7 23 -5 45 l2 41 -59 0 c-32 0 -65 3
-74 6 -11 4 -16 -3 -20 -28z m124 -13 c0 -11 -11 -15 -41 -15 -33 0 -40 -3
-35 -16 3 -9 6 -20 6 -25 0 -5 16 -9 35 -9 28 0 35 -4 35 -19 0 -16 -7 -18
-47 -16 -27 1 -52 3 -56 4 -4 0 -7 22 -5 48 3 41 6 48 28 54 45 13 80 10 80
-6z m0 -43 c0 -5 -13 -7 -30 -4 -16 2 -30 6 -30 8 0 2 14 4 30 4 17 0 30 -4
30 -8z m-3 -86 c0 -1 3 -17 5 -36 l3 -35 -57 -3 -58 -3 0 40 c0 36 3 40 28 44
21 3 71 -1 79 -7z m243 -31 c0 -38 -3 -45 -20 -45 -16 0 -20 6 -18 31 2 19 -2
34 -9 36 -9 3 -13 -7 -13 -31 0 -46 -16 -47 -24 -1 -8 41 -26 37 -26 -6 0 -16
-4 -29 -9 -29 -5 0 -8 16 -6 36 3 24 0 34 -8 31 -7 -2 -13 -18 -15 -35 -2 -18
-7 -32 -12 -32 -5 0 -10 14 -12 32 -4 46 -28 49 -28 4 0 -20 -4 -36 -10 -36
-5 0 -10 18 -10 39 0 46 -2 45 138 49 l82 3 0 -46z m-370 -5 c0 -36 -2 -40
-26 -40 -22 0 -25 4 -22 32 2 18 -2 33 -9 35 -9 3 -13 -6 -13 -26 0 -17 -4
-31 -10 -31 -5 0 -10 14 -10 32 0 36 -16 28 -23 -12 -4 -24 -4 -24 -6 3 -1 34
-21 36 -21 2 0 -20 -5 -25 -25 -25 -18 0 -25 5 -25 19 0 47 8 51 101 51 l89 0
0 -40z m124 -76 c11 -28 6 -33 -36 -36 -32 -2 -44 -8 -46 -22 -3 -16 1 -17 37
-11 27 4 41 3 41 -4 0 -6 -18 -11 -41 -11 -28 0 -39 -4 -36 -12 2 -8 19 -12
43 -11 30 2 34 0 19 -7 -11 -5 -30 -9 -42 -9 -25 -1 -31 -16 -10 -24 7 -3 25
-3 40 0 22 4 27 2 27 -16 0 -16 -6 -21 -27 -21 -71 0 -73 3 -73 106 l0 94 49
0 c35 0 51 -4 55 -16z"/>
</g>
</svg>
