<?xml version="1.0" standalone="no"?>
<!DOCTYPE svg PUBLIC "-//W3C//DTD SVG 20010904//EN"
 "http://www.w3.org/TR/2001/REC-SVG-20010904/DTD/svg10.dtd">
<svg version="1.0" xmlns="http://www.w3.org/2000/svg"
 width="40.000000pt" height="34.000000pt" viewBox="0 0 40.000000 34.000000"
 preserveAspectRatio="xMidYMid meet">
<metadata>
Created by potrace 1.16, written by Peter Selinger 2001-2019
</metadata>
<g transform="translate(0.000000,34.000000) scale(0.100000,-0.100000)"
fill="#000000" stroke="none">
<path d="M127 293 c-12 -11 -8 -19 22 -54 22 -25 27 -37 19 -46 -16 -20 -31
-16 -59 18 -36 44 -57 34 -24 -11 14 -18 25 -38 25 -42 0 -5 -16 -16 -35 -25
-36 -17 -43 -27 -25 -38 5 -3 26 6 45 21 34 26 37 26 53 10 16 -16 16 -18 -3
-32 -11 -9 -26 -19 -34 -23 -7 -5 -12 -14 -10 -20 3 -7 17 -2 39 14 l35 26 18
-22 c10 -12 22 -29 27 -38 5 -9 12 -13 15 -9 4 4 -2 20 -14 36 -12 17 -21 34
-21 39 0 11 39 48 43 42 38 -52 71 -89 78 -89 11 0 -14 43 -45 78 l-21 24 27
19 c53 39 73 57 67 63 -3 4 -27 -10 -53 -30 -43 -33 -50 -35 -63 -21 -14 13
-10 19 36 53 29 21 47 40 42 42 -6 2 -26 -8 -44 -22 -45 -34 -59 -33 -94 9
-32 37 -36 39 -46 28z m83 -123 c12 -7 11 -12 -5 -30 -16 -18 -20 -19 -33 -6
-13 12 -13 18 -2 30 14 18 20 19 40 6z"/>
</g>
</svg>
