<?xml version="1.0" standalone="no"?>
<!DOCTYPE svg PUBLIC "-//W3C//DTD SVG 20010904//EN"
 "http://www.w3.org/TR/2001/REC-SVG-20010904/DTD/svg10.dtd">
<svg version="1.0" xmlns="http://www.w3.org/2000/svg"
 width="85.000000pt" height="59.000000pt" viewBox="0 0 85.000000 59.000000"
 preserveAspectRatio="xMidYMid meet">
<metadata>
Created by potrace 1.16, written by Peter Selinger 2001-2019
</metadata>
<g transform="translate(0.000000,59.000000) scale(0.100000,-0.100000)"
fill="#000000" stroke="none">
<path d="M78 362 c-2 -64 -2 -119 -1 -122 0 -3 35 -4 77 -2 80 4 98 22 21 22
-71 0 -75 4 -75 79 0 108 2 111 71 111 l59 0 0 -79 c0 -44 4 -91 10 -105 9
-25 10 -25 115 -22 58 3 105 1 105 -2 0 -4 60 -5 132 -2 81 3 136 1 140 -5 4
-5 9 -7 12 -4 5 5 19 156 20 214 l1 30 -342 2 -342 3 -3 -118z m378 73 c-3
-23 -16 -31 -26 -15 -7 10 -10 11 -10 3 0 -7 -7 -13 -15 -13 -8 0 -15 6 -16
13 0 10 -2 10 -6 0 -2 -7 -11 -13 -18 -13 -7 0 -16 6 -18 13 -4 9 -8 8 -16 -3
-10 -13 -13 -12 -26 4 -13 17 -15 18 -15 3 0 -9 -6 -17 -12 -17 -9 0 -8 -4 2
-10 13 -9 13 -11 0 -21 -11 -8 -12 -12 -2 -16 6 -2 12 -9 12 -14 0 -6 -4 -7
-10 -4 -5 3 -10 1 -10 -4 0 -6 5 -11 10 -11 6 0 10 -5 10 -11 0 -6 -8 -9 -17
-7 -10 2 -17 12 -17 23 1 11 2 41 2 68 l2 47 99 0 c82 0 99 -3 97 -15z m274
-2 c0 -16 -13 -18 -120 -18 -108 -1 -120 1 -120 17 0 16 12 18 120 18 108 0
120 -2 120 -17z m-400 -43 c0 -5 -7 -10 -16 -10 -8 0 -12 5 -9 10 3 6 10 10
16 10 5 0 9 -4 9 -10z m48 -1 c-2 -6 -8 -10 -13 -10 -5 0 -11 4 -13 10 -2 6 4
11 13 11 9 0 15 -5 13 -11z m36 -4 c-4 -8 -10 -15 -15 -15 -5 0 -9 7 -9 15 0
8 7 15 15 15 9 0 12 -6 9 -15z m46 0 c0 -8 -7 -15 -15 -15 -8 0 -15 7 -15 15
0 8 7 15 15 15 8 0 15 -7 15 -15z m270 5 c0 -6 -48 -10 -125 -10 -77 0 -125 4
-125 10 0 6 48 10 125 10 77 0 125 -4 125 -10z m-400 -40 c0 -5 -4 -10 -10
-10 -5 0 -10 5 -10 10 0 6 5 10 10 10 6 0 10 -4 10 -10z m50 0 c0 -5 -7 -10
-15 -10 -8 0 -15 5 -15 10 0 6 7 10 15 10 8 0 15 -4 15 -10z m30 0 c0 -5 -4
-10 -10 -10 -5 0 -10 5 -10 10 0 6 5 10 10 10 6 0 10 -4 10 -10z m50 0 c0 -5
-7 -10 -15 -10 -8 0 -15 5 -15 10 0 6 7 10 15 10 8 0 15 -4 15 -10z m270 -37
l0 -48 -43 1 c-23 1 -79 2 -124 3 -70 1 -83 4 -83 17 0 15 12 16 98 12 53 -3
108 -1 122 3 14 4 -27 7 -97 8 -68 1 -123 5 -123 10 0 5 48 10 107 10 59 1
109 3 111 6 3 3 -45 5 -106 5 -68 0 -112 4 -112 10 0 6 48 10 125 10 l125 0 0
-47z m-400 7 c0 -5 -4 -10 -10 -10 -5 0 -10 5 -10 10 0 6 5 10 10 10 6 0 10
-4 10 -10z m50 0 c0 -5 -7 -10 -15 -10 -8 0 -15 5 -15 10 0 6 7 10 15 10 8 0
15 -4 15 -10z m30 0 c0 -5 -4 -10 -10 -10 -5 0 -10 5 -10 10 0 6 5 10 10 10 6
0 10 -4 10 -10z m50 0 c0 -5 -5 -10 -11 -10 -5 0 -7 5 -4 10 3 6 8 10 11 10 2
0 4 -4 4 -10z m-41 -34 c6 -4 11 -2 11 3 0 6 7 11 16 11 9 0 14 -7 12 -17 -2
-10 -11 -18 -21 -17 -9 0 -54 1 -100 2 -65 2 -84 5 -84 16 0 11 16 14 77 12
43 -2 82 -6 89 -10z"/>
</g>
</svg>
