<?xml version="1.0" standalone="no"?>
<!DOCTYPE svg PUBLIC "-//W3C//DTD SVG 20010904//EN"
 "http://www.w3.org/TR/2001/REC-SVG-20010904/DTD/svg10.dtd">
<svg version="1.0" xmlns="http://www.w3.org/2000/svg"
 width="47.000000pt" height="58.000000pt" viewBox="0 0 47.000000 58.000000"
 preserveAspectRatio="xMidYMid meet">
<metadata>
Created by potrace 1.16, written by Peter Selinger 2001-2019
</metadata>
<g transform="translate(0.000000,58.000000) scale(0.100000,-0.100000)"
fill="#000000" stroke="none">
<path d="M305 478 c-16 -5 -59 -7 -95 -4 -105 7 -100 14 -105 -163 -4 -188 6
-217 69 -201 17 5 53 11 79 15 37 5 50 12 57 28 7 19 33 329 27 333 -1 0 -15
-3 -32 -8z m-5 -101 c0 -60 -2 -68 -17 -63 -10 3 -43 6 -73 8 -43 2 -55 -1
-55 -12 0 -12 15 -15 73 -14 l73 2 -3 -70 c-1 -38 -6 -72 -10 -74 -4 -3 -44
-8 -89 -11 l-82 -6 7 94 c8 112 16 190 20 204 2 6 38 10 80 10 l76 0 0 -68z"/>
</g>
</svg>
