<?xml version="1.0" standalone="no"?>
<!DOCTYPE svg PUBLIC "-//W3C//DTD SVG 20010904//EN"
 "http://www.w3.org/TR/2001/REC-SVG-20010904/DTD/svg10.dtd">
<svg version="1.0" xmlns="http://www.w3.org/2000/svg"
 width="115.000000pt" height="50.000000pt" viewBox="0 0 115.000000 50.000000"
 preserveAspectRatio="xMidYMid meet">
<metadata>
Created by potrace 1.16, written by Peter Selinger 2001-2019
</metadata>
<g transform="translate(0.000000,50.000000) scale(0.100000,-0.100000)"
fill="#000000" stroke="none">
<path d="M116 441 c-18 -28 8 -32 179 -26 l172 6 28 -32 c28 -34 28 -37 9
-146 -4 -21 -2 -33 5 -33 6 0 11 6 11 13 0 11 34 13 173 11 311 -4 291 -3 278
-17 -6 -8 -8 -17 -5 -20 4 -3 -7 -9 -22 -12 -16 -3 -47 -10 -69 -16 -191 -45
-492 -77 -514 -54 -6 6 -7 35 -1 80 5 38 6 73 4 77 -7 12 -312 10 -319 -2 -10
-16 40 -22 165 -18 l120 4 0 -49 c0 -38 -5 -53 -22 -66 -28 -23 -19 -46 26
-68 31 -14 45 -15 118 -5 46 7 94 14 108 17 14 3 59 12 100 20 41 8 122 24
180 36 58 11 120 21 139 22 31 2 36 -1 44 -30 6 -18 16 -33 23 -33 17 0 18 14
2 39 -12 20 -5 51 12 51 5 0 10 -10 10 -22 0 -19 -2 -20 -10 -8 -7 10 -10 11
-10 2 0 -7 7 -15 15 -18 8 -4 13 -10 10 -14 -7 -11 5 -40 16 -40 5 0 9 16 9
36 0 32 2 35 15 24 14 -11 14 -10 6 14 -7 17 -7 26 -1 26 6 0 10 7 10 15 0 8
5 15 10 15 6 0 10 7 10 15 0 9 -9 15 -21 15 -18 0 -20 5 -16 26 3 19 -1 27
-17 34 -16 6 -28 1 -52 -22 l-31 -29 -134 5 c-74 3 -183 5 -242 5 l-109 1 9
33 c12 49 9 117 -6 126 -7 5 -84 9 -170 10 -86 1 -175 4 -197 7 -26 4 -44 2
-48 -5z m953 -182 c-19 -12 -24 -2 -8 17 9 11 14 13 17 4 3 -7 -2 -16 -9 -21z
m-8 -43 c-6 -7 -22 -11 -36 -8 -33 6 -21 22 17 22 25 0 28 -3 19 -14z"/>
<path d="M52 378 c4 -10 41 -14 143 -16 145 -3 202 5 130 18 -22 5 -93 8 -158
9 -93 1 -118 -1 -115 -11z"/>
<path d="M65 330 c-4 -6 -5 -13 -3 -15 3 -3 172 -7 256 -6 17 1 32 5 32 10 0
4 -12 8 -27 8 -16 -1 -78 3 -139 7 -82 6 -113 5 -119 -4z"/>
<path d="M1130 183 c0 -5 5 -15 10 -23 8 -12 10 -11 10 8 0 12 -4 22 -10 22
-5 0 -10 -3 -10 -7z"/>
<path d="M980 131 c-13 -25 -13 -44 0 -36 6 4 8 10 5 15 -3 5 2 16 11 24 8 9
11 16 5 16 -6 0 -15 -9 -21 -19z"/>
</g>
</svg>
