<?xml version="1.0" standalone="no"?>
<!DOCTYPE svg PUBLIC "-//W3C//DTD SVG 20010904//EN"
 "http://www.w3.org/TR/2001/REC-SVG-20010904/DTD/svg10.dtd">
<svg version="1.0" xmlns="http://www.w3.org/2000/svg"
 width="60.000000pt" height="79.000000pt" viewBox="0 0 60.000000 79.000000"
 preserveAspectRatio="xMidYMid meet">
<metadata>
Created by potrace 1.16, written by Peter Selinger 2001-2019
</metadata>
<g transform="translate(0.000000,79.000000) scale(0.100000,-0.100000)"
fill="#000000" stroke="none">
<path d="M290 730 c0 -5 -8 -10 -18 -10 -10 0 -33 -19 -49 -42 -17 -24 -56
-72 -87 -108 -95 -111 -89 -141 55 -261 62 -52 97 -89 94 -97 -13 -35 11 -27
74 25 l68 57 -24 34 c-13 19 -29 40 -36 46 -8 6 -30 32 -50 57 l-37 46 22 24
c11 13 44 48 72 77 l51 52 -60 55 c-60 55 -75 63 -75 45z m71 -80 c22 0 5 -37
-41 -87 -27 -29 -55 -66 -62 -81 -12 -25 -18 -27 -75 -27 -61 0 -62 0 -56 25
11 48 43 99 98 159 l56 60 36 -25 c20 -13 40 -24 44 -24z m-65 -241 c17 -19
15 -19 -60 -19 -58 0 -77 -3 -73 -12 3 -10 28 -12 90 -10 79 4 86 2 97 -18 11
-21 10 -21 -58 -19 -38 1 -74 -1 -80 -5 -11 -7 -77 65 -84 92 -4 15 4 17 73
14 61 -3 81 -8 95 -23z m53 -135 l-37 -37 -38 29 -37 29 29 5 c16 3 49 7 74 8
l45 3 -36 -37z"/>
<path d="M227 634 c-13 -13 5 -24 37 -24 47 0 96 11 96 21 0 10 -123 12 -133
3z"/>
</g>
</svg>
