<?xml version="1.0" standalone="no"?>
<!DOCTYPE svg PUBLIC "-//W3C//DTD SVG 20010904//EN"
 "http://www.w3.org/TR/2001/REC-SVG-20010904/DTD/svg10.dtd">
<svg version="1.0" xmlns="http://www.w3.org/2000/svg"
 width="97.000000pt" height="47.000000pt" viewBox="0 0 97.000000 47.000000"
 preserveAspectRatio="xMidYMid meet">
<metadata>
Created by potrace 1.16, written by Peter Selinger 2001-2019
</metadata>
<g transform="translate(0.000000,47.000000) scale(0.100000,-0.100000)"
fill="#000000" stroke="none">
<path d="M223 330 c-18 -11 -33 -24 -33 -29 0 -6 17 -18 37 -28 l37 -17 -25
-11 c-40 -17 -69 -39 -69 -52 0 -7 5 -13 11 -13 6 0 23 -9 38 -19 39 -28 79
-37 86 -19 4 11 29 14 103 15 53 0 167 1 252 3 152 2 155 1 152 -19 -2 -14 2
-21 12 -21 11 0 16 10 16 33 1 17 7 61 15 97 25 113 56 103 -267 95 -156 -4
-286 -9 -290 -11 -4 -2 -9 0 -13 6 -9 15 -26 12 -62 -10z m67 -10 c11 -6 16
-17 13 -29 -5 -18 -6 -18 -37 3 -21 13 -29 24 -22 28 15 10 24 10 46 -2z m530
-6 c0 -16 -22 -17 -290 -14 -91 1 -176 1 -190 1 -15 -1 -21 2 -14 9 9 9 119
14 372 16 96 1 122 -2 122 -12z m-5 -44 c-7 -12 -426 -12 -444 -1 -9 6 68 10
204 11 120 0 221 3 223 5 8 8 23 -6 17 -15z m-175 -30 c146 -3 170 -5 115 -10
-123 -13 -448 -11 -466 3 -13 10 2 12 75 11 50 -1 174 -3 276 -4z m-355 -32
c18 -27 3 -37 -21 -14 -8 9 -23 16 -32 16 -15 0 -15 2 -2 10 23 15 38 12 55
-12z m535 -8 c0 -5 -17 -10 -37 -10 -21 0 -134 -3 -250 -6 -132 -3 -213 -1
-213 5 0 6 94 10 237 10 130 1 239 3 241 6 9 9 22 5 22 -5z"/>
</g>
</svg>
