<?xml version="1.0" standalone="no"?>
<!DOCTYPE svg PUBLIC "-//W3C//DTD SVG 20010904//EN"
 "http://www.w3.org/TR/2001/REC-SVG-20010904/DTD/svg10.dtd">
<svg version="1.0" xmlns="http://www.w3.org/2000/svg"
 width="52.000000pt" height="64.000000pt" viewBox="0 0 52.000000 64.000000"
 preserveAspectRatio="xMidYMid meet">
<metadata>
Created by potrace 1.16, written by Peter Selinger 2001-2019
</metadata>
<g transform="translate(0.000000,64.000000) scale(0.100000,-0.100000)"
fill="#000000" stroke="none">
<path d="M245 580 c-4 -6 2 -22 14 -34 29 -31 27 -36 -20 -36 -24 0 -38 -4
-34 -10 3 -5 29 -10 56 -10 36 0 49 -4 46 -12 -3 -9 -20 -12 -52 -10 -35 3
-46 1 -43 -9 3 -9 22 -12 61 -10 34 1 57 -2 57 -8 0 -5 -25 -11 -55 -13 -31
-2 -54 -7 -53 -13 2 -5 24 -9 51 -7 27 1 47 -2 47 -8 0 -6 -24 -10 -55 -10
-33 0 -55 -4 -55 -11 0 -7 17 -10 45 -7 25 2 45 0 45 -3 0 -4 -25 -39 -56 -79
-30 -40 -54 -74 -51 -76 6 -6 153 139 167 165 15 29 7 74 -20 109 -12 15 -31
42 -43 61 -24 38 -41 48 -52 31z"/>
<path d="M181 543 c-10 -21 -28 -47 -40 -57 -30 -28 -26 -47 25 -123 55 -81
53 -78 59 -71 3 2 -6 27 -20 54 -51 101 -50 125 8 191 18 20 16 43 -3 43 -5 0
-18 -17 -29 -37z"/>
</g>
</svg>
