<?xml version="1.0" standalone="no"?>
<!DOCTYPE svg PUBLIC "-//W3C//DTD SVG 20010904//EN"
 "http://www.w3.org/TR/2001/REC-SVG-20010904/DTD/svg10.dtd">
<svg version="1.0" xmlns="http://www.w3.org/2000/svg"
 width="62.000000pt" height="48.000000pt" viewBox="0 0 62.000000 48.000000"
 preserveAspectRatio="xMidYMid meet">
<metadata>
Created by potrace 1.16, written by Peter Selinger 2001-2019
</metadata>
<g transform="translate(0.000000,48.000000) scale(0.100000,-0.100000)"
fill="#000000" stroke="none">
<path d="M130 361 c-8 -109 -7 -112 14 -126 24 -17 171 -22 161 -5 -3 6 -30
10 -58 10 -66 1 -98 23 -90 63 3 15 11 27 19 27 8 0 11 -6 8 -15 -5 -12 3 -15
40 -15 25 0 45 3 45 8 -4 25 4 32 39 31 30 0 33 -2 17 -9 -11 -5 -15 -9 -8 -9
7 -1 10 -8 7 -16 -4 -8 -1 -15 5 -15 6 0 11 7 11 15 0 8 6 12 14 9 8 -3 17 -1
21 5 3 6 -1 11 -11 11 -10 0 -14 3 -10 8 4 4 37 7 72 8 61 1 64 -1 64 -23 0
-20 -5 -23 -40 -23 -22 0 -40 -5 -40 -11 0 -6 17 -9 43 -7 42 3 42 3 45 -33
l3 -36 -50 5 c-42 4 -51 2 -51 -11 0 -13 9 -15 50 -12 29 3 50 0 50 -5 0 -6
-25 -10 -55 -10 -30 0 -55 -4 -55 -10 0 -5 25 -10 55 -10 52 0 55 -1 55 -25 0
-23 -4 -25 -40 -25 -22 0 -56 7 -75 14 -34 15 -35 16 -35 75 0 44 -4 61 -13
61 -22 0 -25 -9 -16 -48 5 -22 4 -41 -1 -46 -17 -17 -11 -45 13 -60 14 -10 52
-16 110 -17 84 -2 114 4 90 19 -7 5 -10 50 -9 129 l1 123 -197 3 c-109 2 -198
1 -198 -2z"/>
<path d="M202 280 c17 -11 53 -9 64 3 4 4 -13 7 -37 7 -33 -1 -40 -3 -27 -10z"/>
<path d="M395 240 c7 -12 52 -12 80 0 15 6 6 9 -33 9 -33 1 -51 -3 -47 -9z"/>
</g>
</svg>
