<?xml version="1.0" standalone="no"?>
<!DOCTYPE svg PUBLIC "-//W3C//DTD SVG 20010904//EN"
 "http://www.w3.org/TR/2001/REC-SVG-20010904/DTD/svg10.dtd">
<svg version="1.0" xmlns="http://www.w3.org/2000/svg"
 width="58.000000pt" height="47.000000pt" viewBox="0 0 58.000000 47.000000"
 preserveAspectRatio="xMidYMid meet">
<metadata>
Created by potrace 1.16, written by Peter Selinger 2001-2019
</metadata>
<g transform="translate(0.000000,47.000000) scale(0.100000,-0.100000)"
fill="#000000" stroke="none">
<path d="M183 406 c-5 -9 -6 -39 -3 -68 5 -49 7 -53 34 -56 60 -7 110 37 93
82 -14 37 -109 69 -124 42z m87 -34 c19 -15 21 -22 12 -39 -6 -11 -21 -23 -32
-26 -17 -4 -20 -1 -18 23 1 15 -4 35 -11 44 -12 14 -11 16 7 16 11 0 30 -8 42
-18z"/>
<path d="M394 339 c-4 -8 -9 -37 -11 -65 -5 -75 25 -99 91 -74 53 20 55 91 4
124 -35 23 -75 30 -84 15z m80 -44 c29 -44 17 -75 -29 -75 -11 0 -12 6 -4 29
7 21 7 36 -1 50 -16 31 13 28 34 -4z"/>
<path d="M187 243 c-4 -3 -7 -33 -7 -65 0 -53 2 -59 25 -68 50 -19 115 34 100
80 -12 38 -96 76 -118 53z m91 -63 c4 -22 -11 -40 -33 -40 -5 0 -10 20 -11 45
-1 44 0 45 20 32 12 -8 23 -25 24 -37z"/>
</g>
</svg>
