<?xml version="1.0" standalone="no"?>
<!DOCTYPE svg PUBLIC "-//W3C//DTD SVG 20010904//EN"
 "http://www.w3.org/TR/2001/REC-SVG-20010904/DTD/svg10.dtd">
<svg version="1.0" xmlns="http://www.w3.org/2000/svg"
 width="90.000000pt" height="38.000000pt" viewBox="0 0 90.000000 38.000000"
 preserveAspectRatio="xMidYMid meet">
<metadata>
Created by potrace 1.16, written by Peter Selinger 2001-2019
</metadata>
<g transform="translate(0.000000,38.000000) scale(0.100000,-0.100000)"
fill="#000000" stroke="none">
<path d="M671 316 c-8 -10 -9 -16 -1 -21 22 -14 7 -25 -62 -45 -40 -12 -84
-26 -97 -31 -19 -8 -28 -6 -43 11 -10 11 -20 20 -22 20 -1 0 -27 4 -57 10 -72
13 -114 2 -114 -31 l0 -24 -102 4 c-86 3 -103 1 -103 -12 0 -33 25 -39 110
-24 70 12 83 12 96 0 8 -8 14 -20 14 -27 0 -19 73 -29 119 -16 21 5 46 19 56
30 17 19 65 28 65 13 0 -5 41 -9 92 -11 50 -1 95 -5 100 -8 5 -3 2 -14 -8 -25
-14 -15 -14 -21 -4 -34 16 -19 26 -11 78 64 l40 58 -60 57 c-63 59 -78 65 -97
42z m85 -77 c37 -23 41 -31 20 -48 -17 -14 -42 -15 -144 -6 -118 11 -117 20
11 51 15 3 30 10 33 15 9 15 45 10 80 -12z m-305 -15 c13 -8 11 -40 -4 -52 -7
-6 -32 -14 -56 -18 -42 -7 -43 -6 -32 15 8 15 9 27 1 40 -5 11 -10 23 -10 27
0 7 86 -2 101 -12z"/>
</g>
</svg>
