<?xml version="1.0" standalone="no"?>
<!DOCTYPE svg PUBLIC "-//W3C//DTD SVG 20010904//EN"
 "http://www.w3.org/TR/2001/REC-SVG-20010904/DTD/svg10.dtd">
<svg version="1.0" xmlns="http://www.w3.org/2000/svg"
 width="47.000000pt" height="45.000000pt" viewBox="0 0 47.000000 45.000000"
 preserveAspectRatio="xMidYMid meet">
<metadata>
Created by potrace 1.16, written by Peter Selinger 2001-2019
</metadata>
<g transform="translate(0.000000,45.000000) scale(0.100000,-0.100000)"
fill="#000000" stroke="none">
<path d="M230 373 c-74 -14 -142 -28 -150 -33 -12 -6 -15 -28 -15 -101 l0 -94
35 -17 c44 -21 234 -36 244 -19 5 7 -7 11 -38 11 -59 0 -65 13 -16 35 44 20
50 31 21 40 -11 3 -24 12 -31 20 -9 11 -4 18 30 35 l42 22 -53 36 -54 36 30
12 c17 7 42 13 58 14 31 0 30 8 27 -172 0 -69 3 -108 10 -108 5 0 10 1 10 3 3
18 14 215 15 252 0 37 -4 50 -15 52 -8 1 -76 -10 -150 -24z m-10 -43 c0 -5
-15 -10 -32 -9 -28 0 -30 2 -13 9 28 12 45 12 45 0z m-52 -33 c25 2 42 0 42
-6 0 -6 -22 -11 -50 -11 -27 0 -50 -4 -50 -10 0 -5 23 -10 50 -10 44 0 50 -3
50 -21 0 -18 -5 -20 -40 -18 -22 2 -45 -2 -52 -9 -9 -9 -7 -12 13 -12 l24 0
-25 -13 c-34 -18 -40 -5 -33 66 4 40 9 54 17 48 6 -5 30 -7 54 -4z m114 -3
c35 -18 28 -30 -21 -40 -30 -6 -33 -5 -28 10 4 10 7 24 7 32 0 18 4 18 42 -2z
m-3 -98 c24 -13 24 -14 3 -25 -34 -18 -52 -14 -52 14 0 28 13 31 49 11z m-76
-3 c-7 -2 -21 -2 -30 0 -10 3 -4 5 12 5 17 0 24 -2 18 -5z m7 -44 c0 -18 -4
-20 -32 -14 -49 11 -56 19 -23 26 50 11 55 10 55 -12z"/>
</g>
</svg>
