<?xml version="1.0" standalone="no"?>
<!DOCTYPE svg PUBLIC "-//W3C//DTD SVG 20010904//EN"
 "http://www.w3.org/TR/2001/REC-SVG-20010904/DTD/svg10.dtd">
<svg version="1.0" xmlns="http://www.w3.org/2000/svg"
 width="60.000000pt" height="51.000000pt" viewBox="0 0 60.000000 51.000000"
 preserveAspectRatio="xMidYMid meet">
<metadata>
Created by potrace 1.16, written by Peter Selinger 2001-2019
</metadata>
<g transform="translate(0.000000,51.000000) scale(0.100000,-0.100000)"
fill="#000000" stroke="none">
<path d="M75 402 c-9 -23 -5 -186 4 -201 6 -9 16 -11 27 -7 11 4 81 7 158 7
121 -1 140 -3 151 -18 12 -17 14 -16 19 7 3 14 7 68 8 120 l3 95 -120 2 c-66
2 -148 4 -182 5 -45 2 -64 -1 -68 -10z m327 -53 c4 -28 4 -29 -41 -29 -44 0
-45 1 -23 16 32 22 27 37 -8 19 -37 -19 -40 -19 -40 4 0 16 8 20 38 23 57 5
70 -1 74 -33z m-239 7 l24 -24 -28 -6 c-18 -3 -29 -12 -29 -22 0 -13 7 -16 35
-11 21 3 33 2 30 -4 -4 -5 -12 -9 -18 -9 -7 0 -23 -7 -36 -16 -18 -13 -20 -18
-10 -25 10 -6 8 -9 -8 -9 -20 0 -23 5 -23 38 0 62 12 112 26 112 7 0 24 -11
37 -24z m90 4 c6 -23 6 -24 -28 -8 -32 14 -32 28 -1 28 15 0 26 -7 29 -20z
m151 -76 c3 -9 6 -27 6 -41 0 -24 -1 -25 -65 -20 -74 5 -79 7 -70 36 8 27 22
26 68 -5 38 -25 56 -27 42 -4 -4 6 -21 20 -39 31 l-31 19 41 0 c29 0 44 -5 48
-16z m-157 -51 c-3 -2 -24 -3 -47 -1 l-41 3 43 28 43 28 3 -26 c2 -15 1 -29
-1 -32z"/>
</g>
</svg>
