<?xml version="1.0" standalone="no"?>
<!DOCTYPE svg PUBLIC "-//W3C//DTD SVG 20010904//EN"
 "http://www.w3.org/TR/2001/REC-SVG-20010904/DTD/svg10.dtd">
<svg version="1.0" xmlns="http://www.w3.org/2000/svg"
 width="44.000000pt" height="39.000000pt" viewBox="0 0 44.000000 39.000000"
 preserveAspectRatio="xMidYMid meet">
<metadata>
Created by potrace 1.16, written by Peter Selinger 2001-2019
</metadata>
<g transform="translate(0.000000,39.000000) scale(0.100000,-0.100000)"
fill="#000000" stroke="none">
<path d="M65 300 c-10 -11 -13 -39 -11 -100 l3 -84 39 -20 c52 -28 184 -35
218 -13 20 14 24 26 30 113 4 62 3 101 -4 108 -5 5 -64 10 -136 10 -101 1
-128 -2 -139 -14z m239 -32 c3 -13 6 -56 6 -95 0 -70 -1 -73 -26 -79 -53 -13
-173 23 -196 60 -13 19 -9 124 5 129 6 3 55 6 108 6 92 1 97 0 103 -21z"/>
<path d="M152 225 c-22 -20 -25 -27 -16 -42 16 -27 75 -29 99 -3 17 19 17 21
1 39 -27 30 -54 32 -84 6z"/>
</g>
</svg>
