<?xml version="1.0" standalone="no"?>
<!DOCTYPE svg PUBLIC "-//W3C//DTD SVG 20010904//EN"
 "http://www.w3.org/TR/2001/REC-SVG-20010904/DTD/svg10.dtd">
<svg version="1.0" xmlns="http://www.w3.org/2000/svg"
 width="66.000000pt" height="51.000000pt" viewBox="0 0 66.000000 51.000000"
 preserveAspectRatio="xMidYMid meet">
<metadata>
Created by potrace 1.16, written by Peter Selinger 2001-2019
</metadata>
<g transform="translate(0.000000,51.000000) scale(0.100000,-0.100000)"
fill="#000000" stroke="none">
<path d="M175 364 c-25 -19 -27 -27 -25 -90 1 -61 5 -129 9 -144 4 -15 21 29
21 54 0 16 5 58 11 92 l11 62 66 11 c37 6 83 12 102 13 19 2 35 7 35 12 0 5
-46 10 -102 10 -89 1 -105 -2 -128 -20z"/>
</g>
</svg>
