<?xml version="1.0" standalone="no"?>
<!DOCTYPE svg PUBLIC "-//W3C//DTD SVG 20010904//EN"
 "http://www.w3.org/TR/2001/REC-SVG-20010904/DTD/svg10.dtd">
<svg version="1.0" xmlns="http://www.w3.org/2000/svg"
 width="81.000000pt" height="140.000000pt" viewBox="0 0 81.000000 140.000000"
 preserveAspectRatio="xMidYMid meet">
<metadata>
Created by potrace 1.16, written by Peter Selinger 2001-2019
</metadata>
<g transform="translate(0.000000,140.000000) scale(0.100000,-0.100000)"
fill="#000000" stroke="none">
<path d="M289 1272 c-1 -9 -3 -49 -5 -89 -3 -72 -3 -72 29 -91 21 -12 53 -20
92 -21 33 -1 67 -4 76 -7 9 -2 22 2 29 11 11 13 6 15 -34 15 l-46 0 0 45 0 45
40 0 c51 0 53 18 3 22 -33 3 -38 6 -35 26 3 17 -2 22 -17 22 -16 0 -21 -6 -21
-25 0 -23 -4 -25 -41 -25 -36 0 -40 2 -37 22 3 26 43 36 141 37 l57 1 2 -62
c1 -35 3 -79 3 -98 3 -61 20 -43 26 28 4 38 10 82 13 99 11 48 -8 55 -149 59
-112 3 -125 2 -126 -14z m119 -139 c4 -39 -4 -41 -48 -10 -51 34 -50 49 1 45
42 -3 44 -5 47 -35z"/>
<path d="M289 372 c-1 -9 -3 -49 -5 -89 -3 -72 -3 -72 29 -91 21 -12 53 -20
92 -21 33 -1 67 -4 76 -7 9 -2 22 2 29 11 11 13 6 15 -34 15 l-46 0 0 45 0 45
40 0 c51 0 53 18 3 22 -33 3 -38 6 -35 26 3 17 -2 22 -17 22 -16 0 -21 -6 -21
-25 0 -23 -4 -25 -41 -25 -36 0 -40 2 -37 22 3 26 43 36 141 37 l57 1 2 -62
c1 -35 3 -79 3 -98 3 -61 20 -43 26 28 4 38 10 82 13 99 11 48 -8 55 -149 59
-112 3 -125 2 -126 -14z m119 -139 c4 -39 -4 -41 -48 -10 -51 34 -50 49 1 45
42 -3 44 -5 47 -35z"/>
</g>
</svg>
