<?xml version="1.0" standalone="no"?>
<!DOCTYPE svg PUBLIC "-//W3C//DTD SVG 20010904//EN"
 "http://www.w3.org/TR/2001/REC-SVG-20010904/DTD/svg10.dtd">
<svg version="1.0" xmlns="http://www.w3.org/2000/svg"
 width="74.000000pt" height="64.000000pt" viewBox="0 0 74.000000 64.000000"
 preserveAspectRatio="xMidYMid meet">
<metadata>
Created by potrace 1.16, written by Peter Selinger 2001-2019
</metadata>
<g transform="translate(0.000000,64.000000) scale(0.100000,-0.100000)"
fill="#000000" stroke="none">
<path d="M280 560 c-17 -24 -25 -28 -40 -20 -23 12 -35 -2 -21 -27 7 -13 4
-25 -10 -42 -18 -22 -19 -25 -4 -34 11 -6 22 -4 35 8 11 10 26 15 35 12 17 -7
20 -23 5 -32 -5 -3 -10 -13 -10 -22 0 -14 2 -14 19 1 16 14 20 15 30 2 7 -8
26 -18 42 -21 20 -5 34 -16 40 -33 13 -34 49 -73 60 -66 5 3 6 17 3 31 -6 23
-5 25 12 19 10 -4 34 -10 52 -13 41 -7 40 -21 -3 -63 -19 -19 -35 -39 -35 -46
0 -7 16 -26 35 -43 19 -17 35 -35 35 -41 0 -5 5 -10 10 -10 14 0 12 27 -2 33
-10 4 -10 8 -1 14 8 5 13 70 16 201 4 182 3 192 -15 192 -10 0 -18 -4 -18 -10
0 -5 -3 -9 -7 -8 -13 4 -56 -23 -110 -70 -42 -35 -58 -43 -78 -38 -32 8 -32
16 5 51 28 27 40 55 23 55 -5 0 -22 -17 -40 -37 -25 -30 -34 -35 -44 -26 -9 9
-5 20 21 50 28 31 31 39 17 41 -9 2 -17 8 -17 13 0 18 -19 8 -40 -21z m14 -25
c-9 -14 -18 -25 -21 -25 -5 0 5 18 20 38 17 22 18 13 1 -13z m256 -95 c3 -104
3 -105 -12 -92 -7 5 -28 13 -45 17 -23 5 -33 12 -33 26 0 22 -4 23 -30 9 -32
-17 -34 8 -3 35 34 30 40 30 48 5 3 -11 16 -25 27 -31 28 -15 38 2 38 70 0 85
8 56 10 -39z m-30 28 c-1 -28 -2 -30 -11 -15 -6 10 -8 25 -5 33 9 24 16 16 16
-18z m-285 -8 c-10 -11 -20 -18 -23 -15 -3 3 3 14 13 25 10 11 20 18 23 15 3
-3 -3 -14 -13 -25z m305 -241 c0 -11 -4 -17 -10 -14 -5 3 -10 13 -10 21 0 8 5
14 10 14 6 0 10 -9 10 -21z"/>
<path d="M230 360 c-6 -12 -21 -20 -36 -20 -23 0 -25 -3 -20 -25 6 -24 -28
-94 -54 -110 -5 -3 -10 -12 -10 -18 1 -7 22 11 47 38 25 28 37 37 26 20 -54
-81 -49 -107 6 -30 35 49 38 51 64 31 17 -13 17 -16 -4 -52 -12 -22 -28 -48
-35 -59 -8 -11 -14 -24 -14 -29 0 -15 41 26 67 67 20 32 27 36 39 26 34 -28
209 -99 243 -99 28 1 -16 27 -83 50 -96 32 -96 32 -13 83 68 43 109 77 93 77
-4 0 -36 -18 -72 -39 -79 -48 -120 -59 -141 -38 -13 13 -13 17 1 38 9 15 12
30 7 37 -6 10 -15 5 -34 -20 -25 -31 -27 -32 -44 -16 -16 16 -16 18 1 37 17
18 17 21 1 45 -21 31 -21 31 -35 6z"/>
</g>
</svg>
