<?xml version="1.0" standalone="no"?>
<!DOCTYPE svg PUBLIC "-//W3C//DTD SVG 20010904//EN"
 "http://www.w3.org/TR/2001/REC-SVG-20010904/DTD/svg10.dtd">
<svg version="1.0" xmlns="http://www.w3.org/2000/svg"
 width="121.000000pt" height="272.000000pt" viewBox="0 0 121.000000 272.000000"
 preserveAspectRatio="xMidYMid meet">
<metadata>
Created by potrace 1.16, written by Peter Selinger 2001-2019
</metadata>
<g transform="translate(0.000000,272.000000) scale(0.100000,-0.100000)"
fill="#000000" stroke="none">
<path d="M193 2553 c-39 -8 -73 -52 -73 -94 0 -44 26 -74 72 -84 32 -7 97 2
113 15 14 12 127 16 143 6 26 -16 128 -35 187 -35 90 0 265 45 265 69 0 13 -5
13 -76 -10 -34 -10 -89 -22 -123 -26 l-61 -7 1 68 2 68 91 -7 c138 -11 146
-11 148 -1 2 5 -51 15 -117 22 -100 10 -142 10 -248 -2 -162 -19 -187 -19
-187 -1 0 22 -69 32 -137 19z m103 -23 c5 -5 7 -33 4 -61 -4 -42 -9 -53 -27
-60 -14 -5 -25 -4 -29 3 -8 13 -6 107 2 120 7 11 38 10 50 -2z m-76 -52 c0
-54 -11 -72 -38 -64 -25 8 -36 37 -26 69 8 25 22 37 47 37 13 0 17 -9 17 -42z
m395 -24 l0 -66 -50 5 c-84 9 -105 21 -105 62 0 19 -4 35 -10 35 -5 0 -10 -13
-10 -29 0 -28 -2 -29 -55 -33 l-55 -3 0 31 0 31 88 12 c48 7 92 15 97 16 6 2
30 4 55 4 l45 1 0 -66z"/>
<path d="M366 2204 c-3 -9 -4 -19 -2 -22 2 -4 7 -46 11 -94 6 -81 5 -88 -12
-88 -14 0 -15 2 -4 9 11 7 9 11 -7 20 -18 10 -21 9 -15 -5 5 -14 3 -14 -15 -3
-18 11 -20 20 -15 55 4 33 2 42 -12 48 -26 10 -34 -1 -28 -39 7 -41 0 -42 -46
-14 l-34 20 49 35 c87 62 99 72 92 79 -4 4 -19 -2 -35 -13 -15 -11 -53 -32
-83 -47 -30 -15 -56 -29 -58 -30 -2 -1 0 -15 4 -30 5 -19 18 -32 43 -42 89
-37 127 -56 134 -70 6 -10 18 -12 44 -7 30 6 35 4 30 -9 -3 -9 1 -18 10 -21
11 -4 14 -2 9 9 -7 19 7 19 73 -1 48 -14 60 -14 120 0 36 8 95 22 131 30 97
21 300 75 311 81 19 12 8 25 -22 25 -31 0 -140 16 -309 45 -198 35 -200 35
-260 10 l-55 -23 -3 54 c-2 45 -6 54 -21 54 -11 0 -22 -7 -25 -16z m354 -102
c36 -6 108 -16 160 -22 52 -7 101 -15 108 -19 8 -5 -17 -14 -60 -24 -40 -9
-81 -19 -90 -22 -13 -5 -17 0 -20 21 -2 15 -9 30 -17 32 -11 4 -12 -3 -7 -31
6 -33 5 -35 -24 -39 -29 -4 -30 -4 -24 29 5 26 3 33 -10 33 -12 0 -16 -9 -16
-34 l0 -34 -67 -12 c-90 -17 -137 -18 -205 -1 l-58 14 7 41 c3 23 6 42 7 42 1
1 22 12 48 25 43 22 56 24 125 18 43 -3 107 -11 143 -17z"/>
<path d="M556 2083 c-10 -10 -7 -93 3 -93 13 0 18 9 26 51 5 27 3 38 -8 42 -8
3 -18 3 -21 0z"/>
<path d="M460 2035 c0 -33 4 -45 13 -42 7 2 12 20 12 42 0 22 -5 40 -12 43 -9
2 -13 -10 -13 -43z"/>
<path d="M640 2030 c0 -43 14 -54 24 -17 10 37 7 57 -9 57 -11 0 -15 -11 -15
-40z"/>
<path d="M327 1949 c7 -7 15 -10 18 -7 3 3 -2 9 -12 12 -14 6 -15 5 -6 -5z"/>
<path d="M375 1950 c3 -5 8 -10 11 -10 2 0 4 5 4 10 0 6 -5 10 -11 10 -5 0 -7
-4 -4 -10z"/>
<path d="M358 1923 c7 -3 16 -2 19 1 4 3 -2 6 -13 5 -11 0 -14 -3 -6 -6z"/>
<path d="M310 1745 c-45 -20 -76 -41 -79 -51 -3 -17 8 -17 52 1 15 6 17 0 17
-54 0 -48 -3 -61 -15 -61 -23 0 -55 37 -55 65 0 29 -12 32 -34 9 -22 -21 -20
-38 7 -70 21 -24 32 -27 103 -32 43 -2 84 -9 91 -14 7 -5 12 -5 15 1 2 7 30 5
81 -5 72 -15 86 -15 170 0 191 35 352 68 359 75 16 14 -11 29 -102 54 -232 65
-390 90 -390 61 0 -12 -44 -24 -85 -24 -19 0 -22 5 -21 38 1 49 -17 50 -114 7z
m80 -85 l0 -90 -36 0 -36 0 8 63 c4 34 7 70 6 80 -1 15 25 34 51 36 4 1 7 -39
7 -89z m350 25 c89 -18 232 -53 238 -60 3 -2 -1 -7 -9 -10 -17 -6 -157 -35
-170 -35 -5 0 -9 21 -9 46 0 32 -4 44 -12 41 -9 -2 -12 -20 -10 -49 l2 -46
-57 -7 c-32 -3 -68 -9 -80 -12 -22 -5 -23 -3 -23 61 0 52 -3 66 -15 66 -12 0
-14 -12 -9 -65 l5 -65 -39 0 c-22 0 -55 7 -75 15 -19 8 -38 11 -41 7 -13 -12
-22 16 -18 56 2 21 9 39 16 39 6 0 23 3 37 6 26 7 27 5 33 -53 4 -33 11 -60
16 -60 15 0 12 120 -2 121 -7 1 -2 5 12 9 41 13 130 11 210 -5z"/>
<path d="M687 1673 c-11 -10 -8 -103 3 -103 6 0 10 25 10 55 0 56 -1 60 -13
48z"/>
<path d="M442 1298 c-14 -14 -17 -242 -3 -234 5 3 11 0 14 -8 5 -12 16 -11 74
4 37 10 84 20 103 23 19 3 53 10 75 16 39 9 62 13 160 26 107 15 172 56 99 63
-16 1 -76 11 -134 22 -58 11 -132 22 -164 25 -33 3 -63 8 -67 10 -3 3 -33 -4
-64 -15 -32 -11 -60 -20 -62 -20 -2 0 -3 21 -1 46 3 48 -8 64 -30 42z m387
-109 c106 -20 134 -29 90 -29 -13 0 -41 -3 -61 -6 -31 -5 -38 -4 -38 10 0 9
-7 16 -15 16 -8 0 -15 -9 -15 -20 0 -11 -6 -20 -14 -20 -9 0 -12 7 -9 20 4 14
0 20 -11 20 -10 0 -16 -9 -16 -25 0 -15 -6 -25 -14 -25 -9 0 -12 7 -9 20 4 15
0 20 -14 20 -16 0 -19 -5 -15 -25 3 -18 0 -25 -11 -25 -10 0 -13 6 -10 20 4
14 0 20 -11 20 -10 0 -16 -9 -16 -25 0 -14 -6 -25 -14 -25 -9 0 -12 8 -8 25 3
18 0 25 -12 25 -11 0 -16 -9 -16 -30 0 -16 -4 -30 -10 -30 -5 0 -10 14 -10 30
0 40 -18 38 -22 -2 -2 -21 -9 -34 -20 -36 -15 -3 -16 1 -7 30 5 18 9 34 9 35
0 2 -9 3 -20 3 -16 0 -20 -7 -20 -34 0 -25 -5 -35 -20 -39 -22 -6 -25 7 -14
61 14 68 152 83 373 41z"/>
<path d="M292 1217 c-45 -45 -82 -88 -82 -94 0 -31 63 -47 173 -44 31 1 38 21
7 21 -18 0 -20 7 -20 54 0 39 -4 55 -15 60 -17 6 -18 0 -15 -67 l2 -48 -29 7
c-39 9 -45 17 -38 47 6 21 52 68 113 113 14 10 10 34 -6 34 -4 0 -44 -37 -90
-83z"/>
<path d="M395 786 c-13 -18 -75 -32 -75 -17 0 6 -7 11 -15 11 -8 0 -15 -4 -15
-9 0 -6 -27 -15 -60 -22 -67 -13 -77 -21 -55 -39 17 -14 20 -56 5 -65 -25 -16
-1 -45 46 -55 43 -10 111 3 156 28 28 16 35 15 183 -18 28 -6 61 -14 75 -16
15 -4 74 10 145 34 66 22 139 45 163 51 24 7 40 16 36 22 -3 6 -8 8 -11 5 -3
-3 -22 1 -42 9 -20 8 -90 23 -156 34 -66 11 -142 27 -169 35 -29 9 -54 12 -60
7 -6 -5 -30 -14 -54 -21 -24 -6 -49 -13 -56 -16 -9 -3 -13 4 -12 22 1 31 -14
41 -29 20z m-5 -81 c0 -39 -3 -45 -21 -45 -17 0 -19 -3 -10 -14 10 -12 4 -16
-31 -22 -54 -11 -77 -8 -100 13 -18 16 -25 68 -10 76 4 2 19 7 35 11 27 6 27
6 27 -44 0 -65 17 -65 26 0 6 45 10 51 38 59 17 5 34 10 39 10 4 1 7 -19 7
-44z m163 10 c-1 -82 -1 -82 -32 -77 -27 4 -28 6 -21 37 4 19 5 36 2 39 -14
14 -22 3 -22 -30 0 -36 -1 -36 -32 -30 -40 8 -42 10 -34 39 4 19 18 27 58 39
71 21 82 19 81 -17z m225 1 c165 -23 183 -30 114 -45 -69 -14 -73 -14 -70 5 2
10 -2 19 -9 21 -7 2 -13 -8 -15 -24 -2 -20 -9 -29 -24 -31 -18 -2 -21 2 -20
25 1 19 -4 28 -14 28 -11 0 -14 -8 -12 -29 4 -31 -10 -46 -45 -46 -19 0 -21 5
-20 43 3 59 -17 64 -21 5 -3 -43 -6 -48 -27 -48 -44 0 -53 9 -46 43 4 18 6 42
5 55 -2 26 -2 26 204 -2z"/>
<path d="M288 392 c-40 -32 -100 -78 -132 -103 -80 -60 -101 -88 -86 -120 21
-46 52 -59 153 -65 63 -4 97 -2 101 5 5 7 -7 11 -34 11 l-41 0 6 58 c4 31 11
76 15 99 7 41 5 53 -11 53 -11 0 -18 -48 -28 -202 -2 -20 -91 18 -91 39 0 8
12 13 35 13 19 0 35 5 35 11 0 7 -15 10 -40 7 -22 -2 -40 0 -40 4 0 5 20 8 45
8 44 0 61 14 28 23 -17 4 -17 5 0 6 29 2 19 21 -13 21 -17 0 -33 -7 -39 -17
-6 -10 -11 -13 -11 -6 0 6 46 46 103 89 90 69 137 110 137 121 0 12 -28 -5
-92 -55z"/>
<path d="M356 385 c-3 -9 -9 -72 -12 -140 l-7 -125 25 0 c29 0 75 -14 136 -41
24 -11 56 -22 72 -25 31 -7 202 12 240 26 14 5 41 12 60 14 19 2 49 9 65 15
17 5 64 20 105 33 121 37 102 52 -109 88 -35 6 -71 15 -80 19 -34 17 -220 61
-260 61 -23 0 -56 -8 -74 -17 -31 -16 -138 -45 -144 -39 -2 1 1 27 7 56 5 29
10 61 10 71 0 23 -25 25 -34 4z m394 -139 c30 -7 98 -21 150 -31 52 -10 117
-23 144 -29 l50 -12 -72 -17 c-39 -10 -78 -20 -87 -23 -13 -5 -14 -2 -7 17 11
29 5 50 -12 43 -7 -3 -11 -16 -8 -34 3 -24 0 -31 -21 -39 -26 -10 -187 -34
-192 -29 -1 2 1 27 4 56 5 37 4 56 -5 63 -20 16 -27 -7 -19 -67 l6 -54 -45 0
-45 0 6 36 c11 66 9 89 -7 89 -12 0 -14 -12 -11 -62 1 -35 0 -63 -3 -63 -3 0
-24 7 -47 17 l-41 16 5 49 c5 43 4 49 -11 46 -14 -3 -16 -13 -14 -51 l4 -47
-50 19 c-27 11 -53 17 -56 14 -3 -4 -6 9 -6 28 0 33 2 34 68 55 81 26 239 31
322 10z"/>
<path d="M757 203 c-2 -4 -1 -28 3 -53 7 -44 13 -41 24 11 6 26 -16 60 -27 42z"/>
<path d="M828 193 c-2 -4 -1 -24 2 -43 l7 -35 12 29 c10 24 9 32 -2 44 -8 8
-17 10 -19 5z"/>
</g>
</svg>
