<?xml version="1.0" standalone="no"?>
<!DOCTYPE svg PUBLIC "-//W3C//DTD SVG 20010904//EN"
 "http://www.w3.org/TR/2001/REC-SVG-20010904/DTD/svg10.dtd">
<svg version="1.0" xmlns="http://www.w3.org/2000/svg"
 width="63.000000pt" height="61.000000pt" viewBox="0 0 63.000000 61.000000"
 preserveAspectRatio="xMidYMid meet">
<metadata>
Created by potrace 1.16, written by Peter Selinger 2001-2019
</metadata>
<g transform="translate(0.000000,61.000000) scale(0.100000,-0.100000)"
fill="#000000" stroke="none">
<path d="M403 538 c-17 -18 -55 -57 -86 -87 l-55 -53 -58 31 c-43 23 -60 28
-70 20 -20 -16 -9 -28 57 -56 59 -25 59 -26 59 -68 0 -29 -6 -47 -19 -59 -21
-19 -31 -16 -68 17 -19 16 -25 18 -38 7 -8 -7 -15 -16 -15 -20 0 -5 31 -23 70
-41 l70 -32 0 -48 c0 -27 5 -49 10 -49 6 0 10 18 10 40 0 22 4 40 9 40 13 0
21 -39 14 -71 -3 -18 -1 -29 6 -29 11 0 25 39 19 56 -2 5 2 11 7 14 6 3 11
-13 13 -37 4 -48 22 -59 22 -13 0 22 4 28 15 24 9 -4 15 -11 14 -18 -3 -26 2
-46 11 -46 6 0 10 43 10 110 0 89 3 110 14 110 9 0 13 -7 11 -19 -10 -55 -8
-211 4 -211 14 0 19 34 27 165 3 66 8 123 10 126 1 3 4 54 5 115 l2 109 -25 3
c-18 2 -34 -6 -55 -30z m37 -114 c0 -96 -3 -125 -12 -122 -18 6 -23 195 -7
225 7 13 14 23 16 23 2 0 3 -57 3 -126z m-50 -20 c0 -54 -4 -83 -10 -79 -11 7
-14 148 -3 158 12 13 13 7 13 -79z m-40 -10 c0 -32 -4 -44 -12 -42 -17 6 -22
42 -8 67 16 31 20 26 20 -25z m-50 -54 c0 -4 -7 -13 -15 -20 -13 -11 -15 -8
-15 13 0 19 4 25 15 21 8 -4 15 -10 15 -14z m48 -56 c2 -21 -1 -57 -6 -79 -7
-36 -9 -38 -19 -20 -14 26 -5 147 11 142 6 -2 12 -21 14 -43z m42 -60 c0 -56
-3 -75 -12 -71 -19 6 -21 147 -2 147 11 0 14 -17 14 -76z m-90 20 c0 -32 -4
-44 -12 -42 -17 6 -22 56 -7 74 17 21 19 18 19 -32z"/>
</g>
</svg>
