<?xml version="1.0" standalone="no"?>
<!DOCTYPE svg PUBLIC "-//W3C//DTD SVG 20010904//EN"
 "http://www.w3.org/TR/2001/REC-SVG-20010904/DTD/svg10.dtd">
<svg version="1.0" xmlns="http://www.w3.org/2000/svg"
 width="114.000000pt" height="54.000000pt" viewBox="0 0 114.000000 54.000000"
 preserveAspectRatio="xMidYMid meet">
<metadata>
Created by potrace 1.16, written by Peter Selinger 2001-2019
</metadata>
<g transform="translate(0.000000,54.000000) scale(0.100000,-0.100000)"
fill="#000000" stroke="none">
<path d="M285 405 c-58 -34 -73 -39 -83 -28 -7 7 -17 13 -22 13 -16 0 -12 -17
5 -24 14 -5 14 -9 0 -37 -24 -46 -6 -85 46 -99 22 -6 39 -14 39 -18 0 -4 17
-8 38 -9 32 -1 35 0 20 11 -14 10 -18 27 -18 69 0 62 -7 87 -24 87 -7 0 -10
-21 -8 -65 3 -55 1 -65 -13 -65 -9 0 -14 4 -11 8 2 4 -5 9 -16 9 -12 1 -26 7
-32 14 -8 9 -8 10 2 5 7 -5 12 -1 12 9 0 9 -4 13 -10 10 -18 -11 -11 25 9 46
16 17 19 18 24 5 9 -24 29 -20 22 4 -5 15 0 22 17 29 29 12 85 58 78 64 -3 2
-37 -15 -75 -38z"/>
<path d="M385 440 c-4 -6 -4 -23 0 -39 3 -16 2 -32 -4 -35 -7 -5 -7 -15 -1
-32 6 -14 10 -57 10 -95 0 -43 4 -68 10 -64 5 3 7 35 4 73 -3 37 -1 72 3 78
15 20 100 54 136 54 39 0 41 -2 51 -42 9 -38 -14 -37 -36 2 -9 17 -22 30 -28
30 -14 0 -13 -27 3 -37 7 -5 -7 -10 -38 -13 -36 -4 -50 -9 -50 -20 0 -12 11
-14 51 -12 51 2 52 2 77 -40 13 -24 28 -53 32 -66 6 -21 4 -22 -22 -16 -30 7
-116 36 -145 49 -13 5 -18 3 -18 -7 0 -23 31 -46 70 -52 19 -3 60 -13 90 -21
67 -18 134 -18 180 -1 71 27 295 122 308 129 6 5 12 12 12 17 0 12 -45 -2
-105 -32 -28 -14 -66 -30 -85 -36 -19 -6 -61 -20 -92 -31 -92 -33 -99 -31
-130 45 -25 63 -26 65 -6 62 17 -3 55 -57 71 -103 3 -5 7 -7 11 -3 4 3 -2 24
-13 47 -26 50 -26 51 2 51 17 0 28 -10 40 -36 10 -19 21 -33 26 -29 6 3 4 17
-5 33 l-14 27 70 3 c73 3 97 21 33 24 -33 2 -73 4 -109 7 -7 1 -15 8 -18 17
-6 14 -1 16 31 10 102 -19 212 -29 193 -18 -14 9 -82 23 -285 59 -122 21 -123
22 -105 34 11 7 0 8 -35 4 -27 -4 -54 -11 -60 -15 -5 -5 -26 -11 -47 -15 -27
-5 -36 -4 -35 7 2 51 -12 75 -28 48z m306 -85 c25 -4 38 -12 42 -25 7 -27 -29
-27 -43 0 -14 26 -44 27 -35 1 4 -15 1 -19 -12 -17 -9 2 -20 15 -24 29 -6 24
-5 26 14 23 12 -3 38 -7 58 -11z m-43 -130 c17 -36 32 -68 32 -70 0 -11 -38
-4 -47 8 -10 12 -43 104 -43 119 0 4 6 8 13 8 6 0 27 -30 45 -65z"/>
<path d="M265 430 c-3 -5 -1 -10 4 -10 6 0 11 5 11 10 0 6 -2 10 -4 10 -3 0
-8 -4 -11 -10z"/>
<path d="M1070 340 c0 -5 5 -10 11 -10 5 0 7 5 4 10 -3 6 -8 10 -11 10 -2 0
-4 -4 -4 -10z"/>
<path d="M130 310 c0 -5 5 -10 11 -10 5 0 7 5 4 10 -3 6 -8 10 -11 10 -2 0 -4
-4 -4 -10z"/>
<path d="M1025 300 c-4 -6 3 -10 14 -10 25 0 27 6 6 13 -8 4 -17 2 -20 -3z"/>
<path d="M120 270 c0 -5 5 -10 10 -10 6 0 10 5 10 10 0 6 -4 10 -10 10 -5 0
-10 -4 -10 -10z"/>
<path d="M225 200 c3 -5 8 -10 11 -10 2 0 4 5 4 10 0 6 -5 10 -11 10 -5 0 -7
-4 -4 -10z"/>
</g>
</svg>
