<?xml version="1.0" standalone="no"?>
<!DOCTYPE svg PUBLIC "-//W3C//DTD SVG 20010904//EN"
 "http://www.w3.org/TR/2001/REC-SVG-20010904/DTD/svg10.dtd">
<svg version="1.0" xmlns="http://www.w3.org/2000/svg"
 width="96.000000pt" height="43.000000pt" viewBox="0 0 96.000000 43.000000"
 preserveAspectRatio="xMidYMid meet">
<metadata>
Created by potrace 1.16, written by Peter Selinger 2001-2019
</metadata>
<g transform="translate(0.000000,43.000000) scale(0.100000,-0.100000)"
fill="#000000" stroke="none">
<path d="M700 340 c-41 -4 -176 -13 -300 -20 -124 -6 -229 -15 -234 -20 -19
-19 7 -31 55 -26 26 3 117 10 201 16 84 7 156 14 160 16 5 3 8 -1 8 -9 0 -17
-57 -25 -257 -34 -78 -3 -147 -9 -154 -13 -15 -10 -1 -33 16 -26 7 2 55 7 106
11 52 3 137 10 189 15 85 8 111 7 99 -4 -2 -2 -92 -12 -199 -21 -107 -10 -199
-21 -204 -26 -18 -17 137 -9 352 17 42 5 52 3 52 -9 0 -12 -28 -16 -157 -22
-188 -9 -245 -16 -250 -32 -8 -22 34 -23 207 -3 211 24 200 24 200 5 0 -8 5
-15 10 -15 6 0 10 7 10 15 0 8 7 15 15 15 8 0 15 -9 15 -20 0 -11 5 -20 10
-20 6 0 10 9 10 20 0 11 5 20 10 20 6 0 10 -9 10 -21 0 -11 5 -17 10 -14 6 3
10 15 10 26 0 10 7 19 15 19 8 0 15 -7 15 -15 0 -8 5 -15 10 -15 6 0 10 9 10
19 0 11 6 22 13 24 9 4 8 8 -3 16 -13 10 -13 12 0 21 13 8 16 1 18 -40 2 -33
8 -50 16 -50 12 0 20 50 29 180 2 29 -8 31 -123 20z m70 -36 c0 -16 -16 -19
-25 -4 -5 8 -11 8 -19 1 -15 -13 -68 -9 -73 5 -2 6 16 11 44 13 26 1 49 4 52
6 7 8 21 -6 21 -21z m-132 -6 c-6 -18 -28 -21 -28 -4 0 9 7 16 16 16 9 0 14
-5 12 -12z m42 -38 c0 -5 -5 -10 -11 -10 -5 0 -7 5 -4 10 3 6 8 10 11 10 2 0
4 -4 4 -10z m50 0 c0 -5 -7 -10 -15 -10 -8 0 -15 5 -15 10 0 6 7 10 15 10 8 0
15 -4 15 -10z m-93 -6 c-3 -3 -12 -4 -19 -1 -8 3 -5 6 6 6 11 1 17 -2 13 -5z
m3 -44 c0 -11 -4 -20 -9 -20 -14 0 -23 18 -16 30 10 17 25 11 25 -10z m40 5
c0 -8 -4 -15 -10 -15 -5 0 -10 7 -10 15 0 8 5 15 10 15 6 0 10 -7 10 -15z m50
0 c0 -8 -7 -15 -15 -15 -8 0 -15 7 -15 15 0 8 7 15 15 15 8 0 15 -7 15 -15z"/>
</g>
</svg>
