<?xml version="1.0" standalone="no"?>
<!DOCTYPE svg PUBLIC "-//W3C//DTD SVG 20010904//EN"
 "http://www.w3.org/TR/2001/REC-SVG-20010904/DTD/svg10.dtd">
<svg version="1.0" xmlns="http://www.w3.org/2000/svg"
 width="74.000000pt" height="44.000000pt" viewBox="0 0 74.000000 44.000000"
 preserveAspectRatio="xMidYMid meet">
<metadata>
Created by potrace 1.16, written by Peter Selinger 2001-2019
</metadata>
<g transform="translate(0.000000,44.000000) scale(0.100000,-0.100000)"
fill="#000000" stroke="none">
<path d="M180 366 c0 -14 19 -16 164 -16 l163 0 7 -37 c3 -21 6 -57 6 -80 l0
-43 -47 1 c-71 1 -102 17 -36 18 60 1 84 21 26 22 -21 0 -46 2 -55 4 -10 2
-21 -3 -25 -10 -10 -16 -156 -6 -175 13 -7 7 -15 33 -18 59 -8 74 -30 67 -27
-9 2 -59 4 -64 32 -78 17 -8 58 -15 92 -16 35 0 69 -7 78 -14 9 -7 44 -13 85
-14 39 0 70 -4 70 -8 0 -5 4 -8 8 -8 12 0 29 211 18 217 -5 3 -89 8 -187 11
-161 4 -179 3 -179 -12z"/>
<path d="M220 322 c0 -14 26 -22 72 -22 27 0 38 4 36 13 -5 14 -108 23 -108 9z"/>
<path d="M375 321 c-8 -14 5 -18 59 -17 30 1 51 6 53 14 6 15 -102 18 -112 3z"/>
<path d="M220 281 c0 -12 55 -21 90 -14 51 10 33 23 -30 23 -33 0 -60 -4 -60
-9z"/>
<path d="M380 270 c0 -5 25 -10 55 -10 30 0 55 5 55 10 0 6 -25 10 -55 10 -30
0 -55 -4 -55 -10z"/>
<path d="M130 260 c0 -5 5 -10 10 -10 6 0 10 5 10 10 0 6 -4 10 -10 10 -5 0
-10 -4 -10 -10z"/>
</g>
</svg>
