<?xml version="1.0" standalone="no"?>
<!DOCTYPE svg PUBLIC "-//W3C//DTD SVG 20010904//EN"
 "http://www.w3.org/TR/2001/REC-SVG-20010904/DTD/svg10.dtd">
<svg version="1.0" xmlns="http://www.w3.org/2000/svg"
 width="74.000000pt" height="43.000000pt" viewBox="0 0 74.000000 43.000000"
 preserveAspectRatio="xMidYMid meet">
<metadata>
Created by potrace 1.16, written by Peter Selinger 2001-2019
</metadata>
<g transform="translate(0.000000,43.000000) scale(0.100000,-0.100000)"
fill="#000000" stroke="none">
<path d="M143 363 c-22 -8 3 -40 69 -88 66 -48 56 -48 162 -1 33 15 62 22 65
17 5 -8 62 -43 148 -92 44 -25 52 -6 8 21 -19 11 -56 39 -82 61 -36 30 -55 38
-75 35 -37 -6 -128 -35 -153 -48 -17 -10 -26 -4 -70 46 -28 31 -53 56 -55 55
-3 0 -11 -3 -17 -6z"/>
<path d="M140 287 c0 -7 5 -18 12 -25 9 -9 9 -12 0 -12 -21 0 -13 -26 16 -51
58 -52 110 -89 123 -89 8 0 34 12 59 26 117 68 106 65 148 50 21 -8 62 -26 90
-40 84 -43 64 -6 -25 47 -64 37 -81 43 -93 33 -8 -7 -56 -30 -107 -50 -79 -33
-94 -36 -105 -24 -51 56 -70 80 -53 68 11 -8 22 -18 25 -21 3 -3 15 -11 27
-18 26 -13 51 -5 115 38 25 17 51 31 57 31 6 0 11 5 11 10 0 6 -2 10 -5 10
-12 0 -123 -45 -143 -58 -21 -14 -25 -13 -55 14 -17 16 -41 39 -52 52 -23 24
-45 29 -45 9z"/>
</g>
</svg>
