<?xml version="1.0" standalone="no"?>
<!DOCTYPE svg PUBLIC "-//W3C//DTD SVG 20010904//EN"
 "http://www.w3.org/TR/2001/REC-SVG-20010904/DTD/svg10.dtd">
<svg version="1.0" xmlns="http://www.w3.org/2000/svg"
 width="130.000000pt" height="70.000000pt" viewBox="0 0 130.000000 70.000000"
 preserveAspectRatio="xMidYMid meet">
<metadata>
Created by potrace 1.16, written by Peter Selinger 2001-2019
</metadata>
<g transform="translate(0.000000,70.000000) scale(0.100000,-0.100000)"
fill="#000000" stroke="none">
<path d="M224 626 c-3 -7 -23 -21 -44 -31 -21 -10 -41 -24 -44 -32 -7 -16 15
-63 38 -82 25 -21 19 -28 -28 -35 -24 -4 -52 -16 -61 -26 -17 -19 -17 -21 -2
-38 10 -10 17 -23 17 -29 0 -6 9 -22 20 -36 42 -53 144 -44 237 19 29 20 57
33 62 29 7 -4 10 -49 9 -118 l-2 -112 50 -33 c81 -54 152 -63 314 -41 41 5 95
12 120 15 24 3 47 7 51 10 4 2 9 -5 12 -16 9 -35 24 -21 30 28 3 26 7 56 9 66
5 30 -37 36 -229 33 -168 -2 -172 -1 -167 18 2 11 6 39 7 61 l2 42 70 20 c39
12 99 28 135 37 36 9 90 24 120 34 30 10 102 33 160 51 58 18 109 36 113 40
18 17 -59 21 -176 11 -67 -6 -198 -15 -292 -22 -93 -6 -192 -15 -220 -19 -27
-4 -59 -4 -70 0 -11 4 -42 35 -70 68 -70 85 -155 129 -171 88z m144 -94 c84
-84 85 -104 8 -161 -62 -46 -106 -60 -161 -52 -56 8 -72 21 -80 61 l-6 35 90
19 c49 10 98 24 108 32 17 13 16 14 -7 10 -97 -18 -105 -17 -123 13 -37 63
-12 106 64 109 38 2 45 -3 107 -66z m707 -62 c-179 -55 -359 -102 -413 -107
-67 -7 -77 -24 -68 -116 6 -55 11 -66 29 -71 12 -3 93 -6 180 -6 119 0 157 -3
157 -12 0 -7 3 -22 6 -34 5 -20 0 -22 -138 -34 -79 -7 -159 -13 -180 -12 -66
2 -143 31 -175 65 l-29 32 8 119 c7 90 6 121 -3 127 -7 4 9 10 37 14 27 3 78
10 114 15 66 10 365 38 455 43 106 7 108 4 20 -23z"/>
</g>
</svg>
