<?xml version="1.0" standalone="no"?>
<!DOCTYPE svg PUBLIC "-//W3C//DTD SVG 20010904//EN"
 "http://www.w3.org/TR/2001/REC-SVG-20010904/DTD/svg10.dtd">
<svg version="1.0" xmlns="http://www.w3.org/2000/svg"
 width="106.000000pt" height="52.000000pt" viewBox="0 0 106.000000 52.000000"
 preserveAspectRatio="xMidYMid meet">
<metadata>
Created by potrace 1.16, written by Peter Selinger 2001-2019
</metadata>
<g transform="translate(0.000000,52.000000) scale(0.100000,-0.100000)"
fill="#000000" stroke="none">
<path d="M330 405 c-9 -11 -6 -22 21 -54 l32 -40 -24 -20 c-13 -11 -29 -20
-36 -21 -6 0 -31 25 -55 55 -42 55 -60 65 -74 44 -4 -7 16 -32 46 -60 l53 -48
-124 -3 c-102 -3 -124 -6 -124 -18 0 -13 19 -15 115 -13 l115 2 -35 -30 c-19
-17 -46 -39 -60 -50 -25 -19 -25 -19 -5 -34 18 -14 23 -11 81 46 42 42 67 60
78 56 23 -9 20 -19 -19 -57 -39 -38 -42 -45 -20 -54 15 -5 33 9 59 46 15 21
16 21 57 -26 52 -59 64 -52 16 10 -34 44 -35 47 -20 70 24 37 48 29 94 -31 23
-30 46 -55 51 -55 11 0 -14 43 -45 77 -11 13 -18 25 -16 27 2 3 40 0 84 -5
281 -34 282 -34 246 -73 -20 -21 -22 -28 -11 -41 22 -26 38 -17 66 41 15 30
39 68 55 83 l27 27 -37 42 c-20 23 -43 52 -52 63 -13 19 -18 20 -38 10 l-23
-13 23 -24 c12 -13 21 -26 18 -27 -4 -4 -160 -21 -304 -33 l-70 -6 39 41 c22
22 37 44 33 47 -4 4 -24 -13 -46 -37 -33 -38 -40 -42 -55 -30 -21 18 -20 34 4
56 27 24 18 31 -14 10 -30 -20 -38 -16 -60 30 -19 38 -27 42 -46 20z m90 -130
c11 -13 7 -15 -25 -15 -32 0 -36 2 -25 15 7 8 18 15 25 15 7 0 18 -7 25 -15z
m495 -6 c4 -6 -6 -23 -22 -39 -29 -28 -29 -28 -85 -15 -31 7 -107 16 -169 20
-63 4 -108 10 -102 12 21 8 244 30 310 32 35 0 65 -4 68 -10z m-533 -51 c-9
-9 -15 -9 -24 0 -9 9 -7 12 12 12 19 0 21 -3 12 -12z"/>
</g>
</svg>
