<?xml version="1.0" standalone="no"?>
<!DOCTYPE svg PUBLIC "-//W3C//DTD SVG 20010904//EN"
 "http://www.w3.org/TR/2001/REC-SVG-20010904/DTD/svg10.dtd">
<svg version="1.0" xmlns="http://www.w3.org/2000/svg"
 width="101.000000pt" height="39.000000pt" viewBox="0 0 101.000000 39.000000"
 preserveAspectRatio="xMidYMid meet">
<metadata>
Created by potrace 1.16, written by Peter Selinger 2001-2019
</metadata>
<g transform="translate(0.000000,39.000000) scale(0.100000,-0.100000)"
fill="#000000" stroke="none">
<path d="M576 323 c-3 -4 -6 -24 -6 -45 0 -33 -3 -39 -17 -34 -10 2 -108 6
-218 8 -173 3 -200 1 -200 -12 0 -18 -3 -18 243 -19 l192 -1 0 -24 0 -24 -261
0 c-144 -1 -264 -3 -266 -6 -3 -3 -2 -10 2 -16 5 -8 81 -9 265 -4 l259 6 3
-38 c6 -74 23 -38 34 71 6 61 9 115 6 122 -4 14 -28 24 -36 16z"/>
<path d="M695 310 c-3 -5 -3 -25 0 -43 6 -30 4 -35 -17 -41 l-23 -6 23 -18
c22 -17 23 -23 17 -74 -5 -38 -3 -58 5 -63 18 -11 23 0 23 60 0 30 5 59 11 63
6 4 40 7 76 8 138 2 150 3 150 20 0 14 -13 15 -116 9 l-117 -7 7 35 c3 19 4
42 0 51 -7 18 -29 22 -39 6z"/>
</g>
</svg>
