<?xml version="1.0" standalone="no"?>
<!DOCTYPE svg PUBLIC "-//W3C//DTD SVG 20010904//EN"
 "http://www.w3.org/TR/2001/REC-SVG-20010904/DTD/svg10.dtd">
<svg version="1.0" xmlns="http://www.w3.org/2000/svg"
 width="71.000000pt" height="47.000000pt" viewBox="0 0 71.000000 47.000000"
 preserveAspectRatio="xMidYMid meet">
<metadata>
Created by potrace 1.16, written by Peter Selinger 2001-2019
</metadata>
<g transform="translate(0.000000,47.000000) scale(0.100000,-0.100000)"
fill="#000000" stroke="none">
<path d="M398 383 c-151 -4 -165 -9 -160 -67 l3 -33 -92 1 c-65 1 -93 -3 -96
-11 -4 -10 19 -13 91 -13 79 0 96 -3 96 -15 0 -16 -2 -16 -110 -19 -51 -1 -65
-4 -68 -18 -3 -14 6 -16 77 -11 l79 6 32 -36 c18 -21 47 -41 68 -47 41 -11
151 -14 176 -4 32 12 15 24 -36 25 -80 2 -111 11 -124 37 -7 15 -14 20 -19 13
-3 -6 -11 -9 -16 -6 -19 13 -7 23 26 22 30 -1 35 -5 35 -25 0 -13 4 -20 10
-17 6 3 10 48 10 99 l0 92 48 2 c26 1 59 5 75 8 l27 6 0 -126 c0 -131 14 -178
24 -79 3 32 12 90 19 128 15 83 13 96 -16 93 -12 -1 -83 -4 -159 -5z m-38 -68
c0 -24 -5 -35 -15 -35 -9 0 -15 9 -15 25 0 14 -4 25 -10 25 -5 0 -10 -11 -10
-25 0 -18 -5 -25 -20 -25 -16 0 -20 7 -20 35 0 35 0 35 45 35 45 0 45 0 45
-35z m0 -70 c0 -16 -6 -25 -15 -25 -9 0 -15 9 -15 25 0 16 6 25 15 25 9 0 15
-9 15 -25z m-50 1 c0 -8 -7 -17 -16 -20 -23 -9 -24 -8 -24 14 0 13 7 20 20 20
11 0 20 -6 20 -14z"/>
<path d="M427 343 c-4 -3 -7 -47 -7 -96 0 -50 3 -88 6 -84 4 3 10 43 15 89 8
77 3 108 -14 91z"/>
<path d="M476 269 c-8 -81 -3 -106 14 -79 12 19 13 160 1 160 -4 0 -12 -36
-15 -81z"/>
</g>
</svg>
