<?xml version="1.0" standalone="no"?>
<!DOCTYPE svg PUBLIC "-//W3C//DTD SVG 20010904//EN"
 "http://www.w3.org/TR/2001/REC-SVG-20010904/DTD/svg10.dtd">
<svg version="1.0" xmlns="http://www.w3.org/2000/svg"
 width="116.000000pt" height="39.000000pt" viewBox="0 0 116.000000 39.000000"
 preserveAspectRatio="xMidYMid meet">
<metadata>
Created by potrace 1.16, written by Peter Selinger 2001-2019
</metadata>
<g transform="translate(0.000000,39.000000) scale(0.100000,-0.100000)"
fill="#000000" stroke="none">
<path d="M560 333 c-8 -3 -31 -21 -49 -40 -19 -18 -46 -36 -60 -39 -15 -3 -34
-9 -43 -15 -10 -5 -50 -9 -88 -9 l-71 0 7 45 c5 37 3 46 -11 51 -25 10 -38
-11 -37 -56 l2 -41 -73 3 c-59 2 -72 0 -72 -12 0 -12 16 -16 72 -18 l73 -3 0
-74 c0 -79 15 -101 25 -37 4 20 10 55 14 77 l7 40 71 3 c69 3 75 1 144 -40 39
-23 74 -48 76 -55 3 -7 21 -22 40 -34 42 -26 101 -22 208 14 100 35 317 145
312 160 -2 7 -50 19 -113 29 -60 9 -161 26 -226 38 -115 20 -179 24 -208 13z
m315 -53 c66 -11 134 -20 152 -20 17 0 34 -4 37 -8 7 -11 -182 -105 -266 -132
-98 -32 -177 -26 -243 20 -60 42 -95 71 -95 81 0 12 72 62 109 76 43 16 134
11 306 -17z"/>
</g>
</svg>
