<?xml version="1.0" standalone="no"?>
<!DOCTYPE svg PUBLIC "-//W3C//DTD SVG 20010904//EN"
 "http://www.w3.org/TR/2001/REC-SVG-20010904/DTD/svg10.dtd">
<svg version="1.0" xmlns="http://www.w3.org/2000/svg"
 width="89.000000pt" height="45.000000pt" viewBox="0 0 89.000000 45.000000"
 preserveAspectRatio="xMidYMid meet">
<metadata>
Created by potrace 1.16, written by Peter Selinger 2001-2019
</metadata>
<g transform="translate(0.000000,45.000000) scale(0.100000,-0.100000)"
fill="#000000" stroke="none">
<path d="M357 348 c-2 -7 -2 -28 1 -45 3 -21 0 -33 -7 -34 -6 -1 -15 -3 -21
-4 -5 -1 -60 -3 -120 -4 -90 -1 -112 -4 -117 -16 -3 -9 -3 -18 -1 -21 3 -2 43
0 89 6 46 6 105 14 132 17 l47 6 -6 -31 c-8 -42 21 -57 95 -48 100 11 351 80
351 97 0 10 -34 5 -95 -16 -89 -30 -180 -44 -235 -36 -78 10 -82 14 -78 79 2
46 0 57 -13 60 -10 2 -19 -3 -22 -10z"/>
<path d="M87 317 c-9 -23 10 -26 137 -20 119 6 162 23 59 23 -32 0 -88 3 -124
6 -54 5 -67 4 -72 -9z"/>
</g>
</svg>
