<?xml version="1.0" standalone="no"?>
<!DOCTYPE svg PUBLIC "-//W3C//DTD SVG 20010904//EN"
 "http://www.w3.org/TR/2001/REC-SVG-20010904/DTD/svg10.dtd">
<svg version="1.0" xmlns="http://www.w3.org/2000/svg"
 width="54.000000pt" height="34.000000pt" viewBox="0 0 54.000000 34.000000"
 preserveAspectRatio="xMidYMid meet">
<metadata>
Created by potrace 1.16, written by Peter Selinger 2001-2019
</metadata>
<g transform="translate(0.000000,34.000000) scale(0.100000,-0.100000)"
fill="#000000" stroke="none">
<path d="M427 273 c-4 -3 -7 -19 -7 -35 0 -15 -2 -28 -4 -28 -3 0 -56 11 -120
25 -64 14 -123 25 -132 25 -20 0 -15 -32 6 -35 8 -1 41 -6 73 -9 37 -5 60 -13
64 -22 8 -22 -4 -29 -23 -13 -13 11 -18 11 -21 2 -6 -18 -23 -16 -23 2 0 8 -4
15 -10 15 -5 0 -10 -6 -10 -14 0 -8 -9 -16 -20 -18 -28 -4 -30 -22 -3 -26 12
-2 24 -11 26 -20 4 -15 5 -15 6 1 1 19 27 23 34 5 3 -10 8 -10 21 1 15 13 19
13 26 1 7 -12 10 -11 16 3 4 10 17 17 34 17 16 0 32 5 35 10 4 6 -8 10 -29 10
-26 0 -36 4 -36 16 0 13 7 15 37 9 49 -9 52 -11 46 -35 -4 -14 -29 -27 -97
-50 -50 -16 -100 -30 -112 -30 -27 0 -46 -20 -33 -36 7 -9 31 -4 102 22 51 19
100 38 109 44 25 14 28 13 28 -16 0 -14 4 -23 10 -19 6 3 10 15 10 25 0 10 12
28 28 39 l27 20 -25 1 -25 1 23 10 c22 8 22 10 7 25 -10 11 -14 25 -11 39 6
23 -15 51 -27 38z"/>
<path d="M176 201 c-4 -7 -5 -15 -2 -18 9 -9 19 4 14 18 -4 11 -6 11 -12 0z"/>
</g>
</svg>
