<?xml version="1.0" standalone="no"?>
<!DOCTYPE svg PUBLIC "-//W3C//DTD SVG 20010904//EN"
 "http://www.w3.org/TR/2001/REC-SVG-20010904/DTD/svg10.dtd">
<svg version="1.0" xmlns="http://www.w3.org/2000/svg"
 width="78.000000pt" height="59.000000pt" viewBox="0 0 78.000000 59.000000"
 preserveAspectRatio="xMidYMid meet">
<metadata>
Created by potrace 1.16, written by Peter Selinger 2001-2019
</metadata>
<g transform="translate(0.000000,59.000000) scale(0.100000,-0.100000)"
fill="#000000" stroke="none">
<path d="M144 509 c-5 -8 -18 -41 -28 -74 -10 -33 -25 -68 -34 -78 -15 -17
-12 -26 39 -123 29 -58 57 -108 62 -110 17 -11 4 31 -35 116 l-41 91 27 79
c28 78 33 129 10 99z"/>
<path d="M206 451 c-4 -5 -2 -12 4 -16 19 -12 209 0 197 12 -10 9 -196 13
-201 4z"/>
<path d="M222 413 c-6 -2 -10 -9 -6 -14 7 -12 191 -12 199 1 4 6 -23 10 -74
10 -43 0 -85 2 -93 4 -7 3 -19 2 -26 -1z"/>
<path d="M480 404 c0 -13 11 -14 83 -8 121 10 129 23 15 24 -83 0 -98 -2 -98
-16z"/>
<path d="M573 373 c-87 -4 -117 -23 -35 -23 70 0 152 12 152 21 0 5 -8 8 -17
7 -10 -1 -55 -4 -100 -5z"/>
<path d="M200 360 c0 -6 40 -10 99 -10 56 0 103 4 106 10 4 6 -32 10 -99 10
-64 0 -106 -4 -106 -10z"/>
<path d="M195 290 c-3 -6 1 -13 10 -17 16 -5 16 -7 1 -15 -36 -20 -2 -28 97
-22 135 9 148 24 22 25 -109 1 -90 16 23 18 34 0 62 6 62 11 0 13 -207 13
-215 0z"/>
<path d="M482 274 c14 -14 28 -15 119 -5 56 6 105 13 107 16 3 3 -50 5 -118 5
-114 0 -123 -1 -108 -16z"/>
<path d="M483 238 c4 -13 24 -14 140 -8 101 6 73 20 -38 20 -81 0 -106 -3
-102 -12z"/>
<path d="M203 208 c3 -10 30 -12 103 -9 140 5 144 21 5 21 -86 0 -112 -3 -108
-12z"/>
</g>
</svg>
