<?xml version="1.0" standalone="no"?>
<!DOCTYPE svg PUBLIC "-//W3C//DTD SVG 20010904//EN"
 "http://www.w3.org/TR/2001/REC-SVG-20010904/DTD/svg10.dtd">
<svg version="1.0" xmlns="http://www.w3.org/2000/svg"
 width="48.000000pt" height="55.000000pt" viewBox="0 0 48.000000 55.000000"
 preserveAspectRatio="xMidYMid meet">
<metadata>
Created by potrace 1.16, written by Peter Selinger 2001-2019
</metadata>
<g transform="translate(0.000000,55.000000) scale(0.100000,-0.100000)"
fill="#000000" stroke="none">
<path d="M193 408 c-13 -17 -2 -273 12 -273 6 0 13 46 17 105 4 58 8 121 10
140 3 37 -19 53 -39 28z"/>
<path d="M235 290 c-14 -22 8 -31 58 -25 29 3 66 8 82 10 17 2 36 4 43 4 6 1
12 6 12 11 0 6 -38 10 -94 10 -53 0 -98 -4 -101 -10z"/>
</g>
</svg>
