<?xml version="1.0" standalone="no"?>
<!DOCTYPE svg PUBLIC "-//W3C//DTD SVG 20010904//EN"
 "http://www.w3.org/TR/2001/REC-SVG-20010904/DTD/svg10.dtd">
<svg version="1.0" xmlns="http://www.w3.org/2000/svg"
 width="47.000000pt" height="36.000000pt" viewBox="0 0 47.000000 36.000000"
 preserveAspectRatio="xMidYMid meet">
<metadata>
Created by potrace 1.16, written by Peter Selinger 2001-2019
</metadata>
<g transform="translate(0.000000,36.000000) scale(0.100000,-0.100000)"
fill="#000000" stroke="none">
<path d="M257 314 c-4 -4 -7 -32 -7 -62 l0 -54 -92 3 c-88 4 -93 3 -93 -16 0
-19 5 -20 93 -16 l93 3 -5 -23 c-11 -50 -11 -72 2 -76 7 -3 12 5 12 20 0 13 3
38 6 55 6 30 9 32 65 38 35 4 56 11 52 17 -3 5 -27 7 -55 4 l-50 -6 7 37 c12
59 11 76 -5 80 -9 1 -19 0 -23 -4z"/>
</g>
</svg>
