<?xml version="1.0" standalone="no"?>
<!DOCTYPE svg PUBLIC "-//W3C//DTD SVG 20010904//EN"
 "http://www.w3.org/TR/2001/REC-SVG-20010904/DTD/svg10.dtd">
<svg version="1.0" xmlns="http://www.w3.org/2000/svg"
 width="115.000000pt" height="129.000000pt" viewBox="0 0 115.000000 129.000000"
 preserveAspectRatio="xMidYMid meet">
<metadata>
Created by potrace 1.16, written by Peter Selinger 2001-2019
</metadata>
<g transform="translate(0.000000,129.000000) scale(0.100000,-0.100000)"
fill="#000000" stroke="none">
<path d="M410 1250 c-25 -4 -72 -20 -105 -37 -33 -16 -90 -43 -127 -59 -65
-28 -66 -30 -65 -65 2 -29 11 -43 57 -83 30 -27 99 -91 153 -143 54 -52 101
-92 105 -88 4 4 -46 57 -111 118 l-119 112 94 3 c51 2 100 5 108 7 32 9 39
-10 41 -110 1 -55 4 -106 6 -112 12 -31 21 -5 33 102 12 108 14 114 34 110 38
-9 297 -35 346 -35 67 0 80 -7 80 -43 0 -48 14 -22 27 51 18 102 16 122 -7
122 -10 0 -23 -7 -28 -16 -8 -14 -39 -18 -198 -25 -104 -4 -217 -11 -251 -14
-49 -5 -63 -4 -63 7 0 15 35 155 45 179 9 23 -2 26 -55 19z m-11 -116 l2 -96
-118 7 c-65 4 -121 9 -125 12 -16 9 -7 36 19 57 31 25 193 114 209 115 8 1 12
-31 13 -95z m531 -118 l0 -34 -47 5 c-137 13 -317 34 -322 38 -2 3 52 5 120 6
68 0 142 4 164 8 78 17 85 15 85 -23z"/>
<path d="M270 553 c-89 -3 -137 -8 -142 -15 -8 -14 10 -40 23 -32 5 3 6 -2 3
-10 -4 -11 13 -35 47 -72 30 -30 57 -62 60 -71 4 -13 18 -16 65 -15 32 2 77 5
99 8 l40 6 -3 -83 -4 -82 -45 44 c-24 24 -52 56 -61 72 -10 17 -25 27 -39 27
-44 0 -24 -35 67 -115 50 -44 90 -83 90 -87 0 -4 4 -8 9 -8 4 0 11 30 15 67 4
38 10 87 13 110 5 34 2 42 -13 47 -11 3 -1 3 21 0 22 -2 94 -9 160 -14 233
-19 235 -20 235 -46 0 -44 19 -34 25 13 3 27 10 65 14 85 12 50 -9 70 -42 41
-19 -18 -47 -22 -227 -33 -113 -7 -248 -12 -300 -12 -91 2 -96 3 -118 29 -13
16 -31 37 -41 48 -10 11 -23 29 -29 41 -11 21 -9 21 90 28 55 4 103 5 105 2 3
-3 8 -34 10 -70 3 -36 9 -63 13 -61 7 4 23 124 22 152 -1 10 4 10 -162 6z
m640 -199 c0 -26 -1 -27 -52 -21 -29 3 -88 9 -131 13 -43 4 -76 9 -74 11 10
10 100 21 175 22 l82 1 0 -26z"/>
</g>
</svg>
