<?xml version="1.0" standalone="no"?>
<!DOCTYPE svg PUBLIC "-//W3C//DTD SVG 20010904//EN"
 "http://www.w3.org/TR/2001/REC-SVG-20010904/DTD/svg10.dtd">
<svg version="1.0" xmlns="http://www.w3.org/2000/svg"
 width="94.000000pt" height="31.000000pt" viewBox="0 0 94.000000 31.000000"
 preserveAspectRatio="xMidYMid meet">
<metadata>
Created by potrace 1.16, written by Peter Selinger 2001-2019
</metadata>
<g transform="translate(0.000000,31.000000) scale(0.100000,-0.100000)"
fill="#000000" stroke="none">
<path d="M534 246 c-3 -8 1 -25 10 -38 18 -25 20 -38 8 -38 -5 0 -16 18 -25
40 -11 29 -21 40 -37 40 -22 0 -20 -6 16 -57 16 -22 16 -23 -12 -24 -16 0 -37
-2 -47 -4 -10 -2 -37 -5 -60 -7 -40 -3 -43 -1 -72 44 -16 26 -32 48 -35 48 -3
0 -29 -18 -59 -40 -29 -22 -59 -40 -67 -40 -7 0 -20 13 -29 30 -16 31 -30 36
-55 20 -12 -7 -7 -15 25 -43 37 -32 38 -35 18 -41 -11 -4 -25 -5 -29 -4 -5 2
-9 0 -9 -3 0 -3 -6 -13 -13 -22 -8 -9 -11 -21 -7 -27 11 -18 25 -11 26 13 0
12 3 16 6 10 2 -7 11 -13 19 -13 9 0 13 4 9 9 -3 6 5 15 17 22 13 6 20 8 16 4
-10 -11 16 -33 48 -41 29 -6 29 -6 7 10 -14 11 -20 22 -16 33 5 12 3 14 -7 8
-32 -20 0 23 38 49 l41 29 61 -52 c57 -50 62 -52 93 -42 17 5 53 13 79 16 45
7 47 6 62 -24 9 -17 21 -31 27 -31 5 0 2 14 -6 31 -9 17 -14 34 -10 37 6 7 30
-20 38 -42 2 -6 7 -8 11 -4 4 3 3 15 -3 27 -20 37 8 34 30 -3 26 -45 32 -45
24 -2 l-7 33 59 7 c95 11 101 28 7 20 l-81 -6 -16 41 c-9 23 -24 41 -32 41
-19 0 -19 -17 0 -50 17 -29 18 -40 6 -40 -5 0 -16 18 -24 39 -18 45 -35 59
-43 37z"/>
<path d="M823 207 c4 -32 3 -47 -6 -50 -9 -4 -9 -6 1 -6 6 -1 12 -10 12 -20 0
-32 11 -51 30 -51 11 0 22 5 25 10 3 5 2 10 -4 10 -7 0 -7 8 -1 25 7 20 6 25
-5 25 -11 0 -14 11 -12 48 2 43 0 47 -22 50 -23 4 -24 2 -18 -41z"/>
<path d="M740 143 c0 -7 8 -17 18 -23 16 -10 16 -10 -2 -8 -10 2 -21 -3 -23
-9 -3 -9 7 -13 31 -13 20 0 36 -4 36 -10 0 -5 -4 -10 -10 -10 -5 0 -10 -5 -10
-11 0 -5 5 -7 12 -3 6 4 18 -2 26 -12 12 -15 14 -16 9 -2 -3 9 -11 35 -17 57
-10 38 -30 65 -30 42 0 -13 -22 -10 -32 4 -5 6 -8 6 -8 -2z"/>
<path d="M207 133 c-4 -3 -7 -11 -7 -17 0 -6 5 -5 12 2 6 6 9 14 7 17 -3 3 -9
2 -12 -2z"/>
<path d="M249 121 c11 -7 10 -11 -5 -20 -13 -8 -15 -11 -4 -10 38 4 52 -1 46
-16 -3 -8 -1 -15 3 -15 5 0 17 -3 26 -7 15 -5 15 -3 -1 16 -11 12 -19 25 -19
29 -1 17 -18 32 -38 32 -16 0 -18 -3 -8 -9z"/>
<path d="M20 110 c0 -5 7 -10 15 -10 8 0 15 5 15 10 0 6 -7 10 -15 10 -8 0
-15 -4 -15 -10z"/>
<path d="M315 111 c-3 -6 4 -15 15 -21 22 -12 23 -10 14 14 -7 18 -20 21 -29
7z"/>
<path d="M702 80 c0 -14 2 -19 5 -12 2 6 2 18 0 25 -3 6 -5 1 -5 -13z"/>
<path d="M436 75 c4 -8 10 -15 15 -15 4 0 6 7 3 15 -4 8 -10 15 -15 15 -4 0
-6 -7 -3 -15z"/>
<path d="M880 70 c-8 -5 -10 -10 -5 -10 6 0 17 5 25 10 8 5 11 10 5 10 -5 0
-17 -5 -25 -10z"/>
<path d="M170 60 c0 -5 5 -10 10 -10 6 0 10 5 10 10 0 6 -4 10 -10 10 -5 0
-10 -4 -10 -10z"/>
<path d="M226 63 c-12 -12 -6 -33 10 -33 8 0 13 4 10 9 -4 5 -1 11 6 13 8 3 6
6 -4 10 -9 4 -19 4 -22 1z"/>
<path d="M545 50 c-3 -5 1 -10 9 -10 9 0 16 5 16 10 0 6 -4 10 -9 10 -6 0 -13
-4 -16 -10z"/>
<path d="M98 43 c7 -3 16 -2 19 1 4 3 -2 6 -13 5 -11 0 -14 -3 -6 -6z"/>
<path d="M730 39 c0 -5 5 -7 10 -4 6 3 10 8 10 11 0 2 -4 4 -10 4 -5 0 -10 -5
-10 -11z"/>
<path d="M865 40 c3 -5 8 -10 11 -10 2 0 4 5 4 10 0 6 -5 10 -11 10 -5 0 -7
-4 -4 -10z"/>
</g>
</svg>
