<?xml version="1.0" standalone="no"?>
<!DOCTYPE svg PUBLIC "-//W3C//DTD SVG 20010904//EN"
 "http://www.w3.org/TR/2001/REC-SVG-20010904/DTD/svg10.dtd">
<svg version="1.0" xmlns="http://www.w3.org/2000/svg"
 width="83.000000pt" height="70.000000pt" viewBox="0 0 83.000000 70.000000"
 preserveAspectRatio="xMidYMid meet">
<metadata>
Created by potrace 1.16, written by Peter Selinger 2001-2019
</metadata>
<g transform="translate(0.000000,70.000000) scale(0.100000,-0.100000)"
fill="#000000" stroke="none">
<path d="M520 609 c-8 -5 -25 -9 -37 -9 -17 0 -30 -18 -65 -85 l-43 -85 -143
0 -143 0 3 -27 c3 -26 6 -28 43 -25 22 2 80 10 128 19 103 18 102 18 168 -79
21 -31 44 -60 50 -63 21 -13 21 4 0 33 -12 17 -21 33 -21 36 0 3 -11 29 -24
57 l-25 50 21 37 c12 20 27 44 34 52 7 8 19 26 26 40 l13 26 32 -43 33 -43
-55 0 c-43 0 -55 -3 -55 -15 0 -23 28 -29 81 -18 48 9 48 9 59 -21 14 -41 3
-48 -72 -50 -35 0 -63 -5 -63 -11 0 -6 24 -9 58 -7 l58 3 -22 -43 c-12 -24
-32 -57 -45 -74 -13 -17 -24 -36 -24 -42 0 -26 21 -9 66 56 26 37 58 80 71 95
31 38 29 50 -12 113 -20 30 -42 69 -50 88 -17 41 -26 48 -45 35z"/>
<path d="M485 440 c-3 -6 1 -13 9 -16 21 -8 86 4 86 16 0 13 -87 13 -95 0z"/>
</g>
</svg>
