<?xml version="1.0" standalone="no"?>
<!DOCTYPE svg PUBLIC "-//W3C//DTD SVG 20010904//EN"
 "http://www.w3.org/TR/2001/REC-SVG-20010904/DTD/svg10.dtd">
<svg version="1.0" xmlns="http://www.w3.org/2000/svg"
 width="112.000000pt" height="55.000000pt" viewBox="0 0 112.000000 55.000000"
 preserveAspectRatio="xMidYMid meet">
<metadata>
Created by potrace 1.16, written by Peter Selinger 2001-2019
</metadata>
<g transform="translate(0.000000,55.000000) scale(0.100000,-0.100000)"
fill="#000000" stroke="none">
<path d="M300 467 c0 -8 9 -22 20 -32 16 -14 18 -21 8 -27 -9 -6 -7 -8 7 -6
25 4 27 -21 2 -36 -15 -9 -21 -7 -32 8 -8 10 -12 23 -9 27 3 5 0 9 -6 9 -7 0
-10 7 -6 15 6 18 1 19 -25 5 -26 -15 -24 -30 10 -68 29 -31 27 -46 -6 -47 -28
0 -12 -64 27 -109 30 -34 31 -35 10 -46 -17 -9 -20 -8 -20 7 0 12 -3 14 -10 7
-16 -16 0 -46 21 -41 12 3 19 0 19 -10 0 -8 4 -11 10 -8 5 3 12 -6 16 -20 3
-14 12 -25 19 -25 6 0 17 -10 23 -23 8 -16 11 -17 11 -6 1 20 -23 75 -46 108
l-18 24 30 -7 c17 -4 38 -9 48 -12 9 -3 17 -1 17 5 0 6 -5 11 -10 11 -18 0
-90 78 -90 97 0 11 -5 24 -12 31 -9 9 -7 12 8 12 22 0 61 -36 51 -46 -4 -4
-13 -1 -22 6 -10 8 -15 9 -15 1 0 -6 5 -11 11 -11 5 0 7 -4 4 -10 -3 -5 -2
-10 4 -10 5 0 13 4 16 10 12 19 25 10 25 -19 0 -16 6 -31 14 -34 11 -4 13 -1
9 10 -5 12 -1 14 18 8 20 -6 22 -5 12 6 -15 16 -17 33 -3 24 6 -3 10 -1 10 4
0 6 -9 11 -20 11 -11 0 -20 7 -20 15 0 8 5 15 10 15 6 0 8 11 4 28 -7 24 -6
26 9 13 9 -7 14 -17 11 -22 -3 -5 2 -6 11 -3 14 6 14 8 0 24 -8 9 -15 20 -15
25 0 4 -8 13 -17 20 -15 11 -15 15 -3 30 13 15 15 15 25 1 10 -13 12 -9 13 19
1 19 -2 36 -7 39 -11 7 -52 -5 -46 -14 3 -4 -2 -13 -10 -20 -12 -10 -19 -6
-41 19 -27 32 -54 41 -54 18z m105 -107 c4 -6 -6 -10 -22 -11 -15 0 -22 -3
-15 -6 6 -2 12 -16 12 -31 l0 -26 -21 23 c-20 21 -20 23 -3 42 19 21 39 25 49
9z"/>
<path d="M190 433 c0 -7 9 -13 20 -13 11 0 20 6 20 14 0 9 -9 14 -20 13 -11
-1 -20 -7 -20 -14z"/>
<path d="M485 378 c4 -40 9 -104 11 -143 3 -38 8 -73 12 -77 10 -10 572 -21
572 -11 -1 29 -30 38 -280 89 -245 50 -234 46 -165 55 170 22 408 73 439 95
16 11 14 13 -25 18 -24 4 -149 10 -278 15 -144 6 -237 13 -244 20 -6 6 -20 11
-30 11 -18 0 -19 -5 -12 -72z m365 12 l155 -1 -65 -20 c-52 -15 -371 -69 -410
-69 -6 0 -10 23 -10 50 l0 50 88 -4 c48 -2 157 -5 242 -6z m-185 -146 c50 -8
113 -19 140 -24 82 -14 235 -51 235 -57 0 -7 -442 5 -487 13 -31 6 -33 8 -33
50 0 42 1 43 28 39 15 -3 68 -12 117 -21z"/>
<path d="M120 391 c0 -5 5 -13 10 -16 6 -3 10 -2 10 4 0 5 -4 13 -10 16 -5 3
-10 2 -10 -4z"/>
<path d="M193 370 c-1 -11 2 -20 6 -20 5 0 11 9 14 20 3 12 0 20 -7 20 -6 0
-12 -9 -13 -20z"/>
<path d="M152 334 c-7 -8 -19 -11 -25 -8 -7 4 -9 4 -5 -1 4 -4 0 -13 -8 -20
-11 -8 -14 -19 -10 -33 9 -27 30 -30 24 -4 -3 12 2 24 13 31 11 6 19 8 18 4
-3 -17 1 -33 9 -33 4 0 8 18 9 40 2 43 -4 48 -25 24z"/>
<path d="M198 282 c-4 -12 -2 -25 4 -28 15 -10 19 1 10 26 l-9 24 -5 -22z"/>
<path d="M450 281 c0 -5 5 -13 10 -16 6 -3 10 -2 10 4 0 5 -4 13 -10 16 -5 3
-10 2 -10 -4z"/>
<path d="M200 230 c0 -5 5 -10 10 -10 6 0 10 5 10 10 0 6 -4 10 -10 10 -5 0
-10 -4 -10 -10z"/>
<path d="M237 213 c-10 -9 -9 -23 2 -23 5 0 11 7 15 15 5 15 -5 20 -17 8z"/>
<path d="M235 160 c-3 -5 -1 -10 4 -10 6 0 11 5 11 10 0 6 -2 10 -4 10 -3 0
-8 -4 -11 -10z"/>
<path d="M215 129 c-4 -6 -4 -13 -1 -16 8 -8 36 5 36 17 0 13 -27 13 -35 -1z"/>
<path d="M398 133 c-10 -2 -18 -9 -18 -15 0 -6 3 -9 6 -6 6 6 94 -84 94 -97 0
-4 -108 -4 -240 0 -172 5 -240 4 -240 -4 0 -8 158 -10 563 -9 334 2 435 4 250
5 l-313 3 -41 65 c-22 36 -42 64 -42 64 -1 -1 -10 -3 -19 -6z"/>
<path d="M274 93 c1 -7 8 -19 14 -25 9 -9 12 -6 12 13 0 15 -6 26 -14 26 -7 0
-13 -6 -12 -14z"/>
</g>
</svg>
