<?xml version="1.0" standalone="no"?>
<!DOCTYPE svg PUBLIC "-//W3C//DTD SVG 20010904//EN"
 "http://www.w3.org/TR/2001/REC-SVG-20010904/DTD/svg10.dtd">
<svg version="1.0" xmlns="http://www.w3.org/2000/svg"
 width="123.000000pt" height="95.000000pt" viewBox="0 0 123.000000 95.000000"
 preserveAspectRatio="xMidYMid meet">
<metadata>
Created by potrace 1.16, written by Peter Selinger 2001-2019
</metadata>
<g transform="translate(0.000000,95.000000) scale(0.100000,-0.100000)"
fill="#000000" stroke="none">
<path d="M84 856 c-3 -8 -1 -23 5 -35 6 -11 11 -36 11 -55 0 -30 6 -40 33 -56
17 -11 43 -20 55 -20 l24 0 -8 -111 c-5 -83 -4 -110 5 -105 6 4 11 31 12 59 2
97 13 151 32 155 15 3 17 -8 17 -115 0 -135 14 -137 25 -4 11 136 -8 123 226
150 112 12 219 25 238 28 l34 6 -5 -232 -5 -231 106 -52 c58 -28 111 -54 116
-56 32 -15 -22 24 -105 76 l-95 60 3 88 c2 49 7 92 10 96 10 10 155 17 167 8
6 -4 36 -22 68 -39 33 -18 70 -39 83 -48 15 -10 24 -11 24 -4 0 6 -21 25 -47
41 -27 16 -63 40 -82 54 -31 23 -43 26 -123 26 -77 0 -88 2 -88 18 0 15 11 17
79 17 44 0 82 -3 86 -7 7 -7 135 91 135 104 0 4 -29 -11 -65 -34 -62 -38 -70
-41 -148 -42 l-82 -1 3 94 4 94 -29 -7 c-37 -8 -431 -56 -465 -56 -26 0 -27 2
-30 63 -2 47 -7 62 -18 62 -11 0 -16 -15 -18 -62 -2 -35 -6 -63 -10 -63 -20 1
-27 20 -27 70 0 42 -3 55 -15 55 -12 0 -14 -11 -12 -52 1 -29 0 -53 -2 -53 -1
0 -17 5 -34 11 -25 9 -33 19 -43 59 -13 49 -35 72 -45 46z"/>
<path d="M504 696 c-4 -9 -4 -58 -1 -109 8 -150 48 -207 204 -290 65 -34 71
-19 8 17 -25 15 -45 35 -46 44 0 9 1 69 2 132 4 190 4 199 -9 212 -9 9 -12
-27 -12 -165 l0 -178 -21 12 c-21 11 -22 15 -17 163 6 154 3 181 -13 170 -5
-3 -9 -73 -9 -155 0 -162 -6 -174 -42 -92 -15 35 -20 67 -20 144 0 93 -10 131
-24 95z"/>
<path d="M1120 639 c-19 -16 -53 -42 -74 -56 l-40 -26 30 -23 c16 -13 33 -24
38 -24 5 0 31 -13 57 -30 73 -45 59 -19 -16 30 -36 23 -65 46 -65 50 0 4 25
27 55 51 30 24 55 47 55 51 0 11 -1 11 -40 -23z"/>
<path d="M375 495 c-44 -25 -87 -50 -95 -55 -8 -6 -39 -22 -67 -35 -29 -14
-53 -29 -53 -35 0 -6 28 4 63 21 197 97 247 125 247 136 0 19 -8 17 -95 -32z"/>
<path d="M465 461 c-6 -5 -61 -35 -123 -67 -62 -32 -109 -60 -104 -62 16 -5
252 112 252 125 0 15 -12 17 -25 4z"/>
<path d="M576 219 c-43 -44 -77 -82 -75 -83 2 -2 42 31 88 74 46 42 79 80 74
83 -5 3 -44 -30 -87 -74z"/>
<path d="M631 193 c-44 -48 -78 -89 -75 -92 2 -3 43 33 91 81 47 47 81 88 75
92 -5 3 -46 -33 -91 -81z"/>
<path d="M767 263 c-14 -13 -5 -20 73 -57 44 -21 83 -42 86 -47 7 -11 24 -12
24 -1 0 5 -12 15 -27 23 -16 7 -54 30 -86 51 -65 42 -61 41 -70 31z"/>
</g>
</svg>
