<?xml version="1.0" standalone="no"?>
<!DOCTYPE svg PUBLIC "-//W3C//DTD SVG 20010904//EN"
 "http://www.w3.org/TR/2001/REC-SVG-20010904/DTD/svg10.dtd">
<svg version="1.0" xmlns="http://www.w3.org/2000/svg"
 width="67.000000pt" height="39.000000pt" viewBox="0 0 67.000000 39.000000"
 preserveAspectRatio="xMidYMid meet">
<metadata>
Created by potrace 1.16, written by Peter Selinger 2001-2019
</metadata>
<g transform="translate(0.000000,39.000000) scale(0.100000,-0.100000)"
fill="#000000" stroke="none">
<path d="M115 289 c-4 -17 -4 -69 0 -115 5 -66 10 -84 24 -89 9 -3 84 17 167
44 154 51 174 65 44 31 -41 -11 -76 -20 -77 -20 -2 0 -3 23 -3 51 0 36 -4 49
-12 46 -9 -3 -12 -21 -10 -54 2 -50 2 -50 -30 -56 -18 -4 -43 -9 -55 -13 -23
-6 -23 -5 -23 75 0 58 4 83 13 87 7 2 39 -2 70 -11 109 -29 162 -44 212 -59
27 -8 51 -14 53 -11 8 8 -58 34 -166 65 -62 17 -128 38 -147 46 -48 20 -52 18
-60 -17z"/>
</g>
</svg>
