<?xml version="1.0" standalone="no"?>
<!DOCTYPE svg PUBLIC "-//W3C//DTD SVG 20010904//EN"
 "http://www.w3.org/TR/2001/REC-SVG-20010904/DTD/svg10.dtd">
<svg version="1.0" xmlns="http://www.w3.org/2000/svg"
 width="98.000000pt" height="77.000000pt" viewBox="0 0 98.000000 77.000000"
 preserveAspectRatio="xMidYMid meet">
<metadata>
Created by potrace 1.16, written by Peter Selinger 2001-2019
</metadata>
<g transform="translate(0.000000,77.000000) scale(0.100000,-0.100000)"
fill="#000000" stroke="none">
<path d="M490 726 l-24 -39 -28 32 c-31 34 -38 38 -38 18 0 -12 38 -52 67 -70
14 -9 55 59 50 82 -2 11 -11 4 -27 -23z"/>
<path d="M492 648 c-12 -28 -20 -53 -18 -55 7 -7 66 88 61 98 -11 17 -20 8
-43 -43z"/>
<path d="M392 663 c8 -20 72 -102 76 -99 8 9 -52 106 -65 106 -8 0 -13 -3 -11
-7z"/>
<path d="M500 580 c-29 -58 -30 -84 -1 -37 43 68 51 86 42 92 -6 3 -24 -21
-41 -55z"/>
<path d="M390 576 c0 -10 61 -68 66 -63 9 8 -38 67 -53 67 -7 0 -13 -2 -13 -4z"/>
<path d="M523 535 c-28 -54 -38 -89 -24 -81 14 9 52 97 48 110 -2 6 -13 -7
-24 -29z"/>
<path d="M380 522 c0 -4 18 -26 40 -47 47 -46 53 -34 9 18 -30 35 -49 46 -49
29z"/>
<path d="M576 501 c-4 -6 -1 -13 6 -16 39 -13 104 -25 193 -36 55 -7 106 -15
114 -19 7 -4 -54 -20 -138 -35 -104 -20 -151 -33 -151 -42 0 -17 3 -17 128 12
149 35 215 56 205 65 -12 12 -108 37 -203 54 -47 8 -99 18 -116 21 -19 4 -34
3 -38 -4z"/>
<path d="M40 481 c0 -5 15 -21 32 -35 l33 -25 -38 -16 c-20 -8 -37 -20 -37
-25 0 -16 23 -11 50 10 14 11 34 20 45 20 16 0 11 8 -25 40 -46 40 -60 47 -60
31z"/>
<path d="M125 481 c-3 -6 13 -22 35 -37 44 -29 44 -29 -22 -65 -21 -10 -38
-24 -38 -30 0 -15 22 -5 82 33 46 30 60 48 37 48 -6 0 -28 14 -49 30 -22 17
-41 26 -45 21z"/>
<path d="M200 481 c0 -6 16 -22 35 -37 19 -14 35 -30 35 -35 0 -5 -18 -18 -39
-29 -42 -21 -56 -36 -44 -43 5 -3 34 11 66 31 l58 35 -48 43 c-49 44 -63 52
-63 35z"/>
<path d="M290 471 c0 -5 21 -21 46 -36 25 -15 43 -30 39 -33 -3 -3 -27 -18
-52 -32 -47 -25 -67 -50 -40 -50 8 0 30 12 50 28 19 15 43 32 53 38 17 11 15
15 -26 53 -43 39 -70 52 -70 32z"/>
<path d="M527 383 c-8 -12 60 -79 70 -69 4 3 -9 23 -29 42 -19 20 -38 32 -41
27z"/>
<path d="M405 298 c-21 -24 -32 -44 -25 -46 12 -4 26 12 55 61 23 38 13 34
-30 -15z"/>
<path d="M515 289 c45 -56 58 -68 67 -63 11 7 -16 38 -57 67 l-30 21 20 -25z"/>
<path d="M413 242 c-43 -46 -51 -72 -12 -36 25 22 63 74 58 78 -2 2 -23 -18
-46 -42z"/>
<path d="M490 232 c0 -14 79 -86 87 -79 3 4 -7 21 -23 38 -32 34 -64 54 -64
41z"/>
<path d="M413 180 c-34 -31 -40 -45 -24 -55 6 -3 24 15 41 40 36 52 29 57 -17
15z"/>
<path d="M428 117 c-27 -23 -48 -45 -48 -50 0 -18 25 -3 62 38 l41 46 32 -31
c19 -19 35 -27 39 -22 6 11 -53 62 -70 62 -5 0 -30 -20 -56 -43z"/>
</g>
</svg>
