<?xml version="1.0" standalone="no"?>
<!DOCTYPE svg PUBLIC "-//W3C//DTD SVG 20010904//EN"
 "http://www.w3.org/TR/2001/REC-SVG-20010904/DTD/svg10.dtd">
<svg version="1.0" xmlns="http://www.w3.org/2000/svg"
 width="107.000000pt" height="40.000000pt" viewBox="0 0 107.000000 40.000000"
 preserveAspectRatio="xMidYMid meet">
<metadata>
Created by potrace 1.16, written by Peter Selinger 2001-2019
</metadata>
<g transform="translate(0.000000,40.000000) scale(0.100000,-0.100000)"
fill="#000000" stroke="none">
<path d="M618 351 c-1 -5 -30 -20 -63 -34 -33 -14 -92 -39 -132 -56 l-72 -30
-83 30 c-46 16 -104 39 -130 51 -40 18 -52 19 -74 10 -17 -8 -24 -18 -20 -30
3 -9 7 -63 8 -119 2 -57 5 -103 8 -103 3 0 67 32 144 70 76 39 148 70 161 70
12 0 42 -10 66 -23 24 -13 78 -36 119 -52 41 -16 80 -36 87 -44 10 -13 12 -6
13 39 1 98 0 97 101 105 74 6 92 5 102 -8 15 -18 136 -82 143 -75 3 3 -10 15
-28 26 -18 11 -46 34 -61 50 l-28 29 52 44 c28 24 46 45 40 47 -7 2 -22 -5
-34 -15 -69 -62 -144 -82 -239 -67 -37 6 -38 8 -38 50 0 37 -3 44 -19 44 -11
0 -21 -4 -23 -9z m6 -63 c7 -41 13 -168 9 -168 -2 0 -11 4 -21 10 -25 14 -103
46 -132 55 -14 4 -41 16 -60 26 -28 15 -30 19 -13 19 12 0 23 3 25 8 6 13 147
77 180 81 4 1 9 -14 12 -31z m-471 -18 c5 -4 11 -32 14 -63 l6 -57 -44 -19
-44 -20 -3 27 c-2 15 -1 55 3 89 6 62 7 63 33 57 15 -4 31 -10 35 -14z m101
-25 c15 -8 40 -15 55 -15 25 -1 25 -1 6 -16 -11 -8 -25 -12 -32 -10 -6 3 -13
1 -15 -4 -2 -5 -20 -16 -40 -25 -36 -14 -38 -14 -38 4 0 37 13 81 24 81 6 0
24 -7 40 -15z"/>
<path d="M375 310 c3 -5 8 -10 11 -10 2 0 4 5 4 10 0 6 -5 10 -11 10 -5 0 -7
-4 -4 -10z"/>
<path d="M350 290 c-13 -8 -12 -10 3 -10 9 0 17 5 17 10 0 12 -1 12 -20 0z"/>
<path d="M315 281 c-3 -5 -1 -12 5 -16 5 -3 10 1 10 9 0 18 -6 21 -15 7z"/>
<path d="M347 186 c-7 -19 4 -27 21 -17 10 6 10 10 -1 20 -12 9 -16 8 -20 -3z"/>
</g>
</svg>
