<?xml version="1.0" standalone="no"?>
<!DOCTYPE svg PUBLIC "-//W3C//DTD SVG 20010904//EN"
 "http://www.w3.org/TR/2001/REC-SVG-20010904/DTD/svg10.dtd">
<svg version="1.0" xmlns="http://www.w3.org/2000/svg"
 width="96.000000pt" height="57.000000pt" viewBox="0 0 96.000000 57.000000"
 preserveAspectRatio="xMidYMid meet">
<metadata>
Created by potrace 1.16, written by Peter Selinger 2001-2019
</metadata>
<g transform="translate(0.000000,57.000000) scale(0.100000,-0.100000)"
fill="#000000" stroke="none">
<path d="M255 450 c-38 -32 -75 -59 -80 -60 -6 0 -23 -14 -40 -32 -30 -31 -30
-32 -27 -137 2 -58 6 -121 9 -139 l5 -33 100 3 99 3 3 70 2 70 74 72 c44 42
77 67 81 61 7 -10 59 -8 176 8 36 5 42 4 42 -12 0 -11 4 -63 10 -117 6 -54 10
-101 8 -105 -1 -4 3 -8 8 -10 6 -1 11 48 13 128 l3 130 44 0 c25 0 45 -4 45
-10 0 -5 -7 -10 -16 -10 -13 0 -15 -7 -11 -32 3 -18 11 -73 18 -121 7 -48 15
-83 19 -76 4 6 9 63 10 127 6 242 6 246 -10 250 -12 2 -14 -7 -11 -44 4 -53
-6 -64 -58 -64 -37 0 -35 -9 -15 90 5 23 2 31 -11 36 -25 10 -35 -14 -29 -73
l6 -51 -118 -4 -119 -5 -62 66 c-35 36 -63 69 -63 74 0 21 -43 0 -105 -53z
m107 3 c18 -15 50 -42 70 -61 l37 -35 -58 -42 c-97 -71 -91 -71 -151 -17 -49
44 -52 49 -40 71 15 29 90 111 101 111 4 0 22 -12 41 -27z m-153 -143 c53 -33
111 -90 93 -90 -8 0 -12 -23 -12 -70 l0 -70 -64 0 c-95 0 -93 -2 -89 93 5 102
12 167 20 167 4 0 27 -13 52 -30z"/>
<path d="M300 353 c1 -72 2 -76 16 -58 18 24 16 126 -3 133 -10 3 -13 -16 -13
-75z"/>
</g>
</svg>
