<?xml version="1.0" standalone="no"?>
<!DOCTYPE svg PUBLIC "-//W3C//DTD SVG 20010904//EN"
 "http://www.w3.org/TR/2001/REC-SVG-20010904/DTD/svg10.dtd">
<svg version="1.0" xmlns="http://www.w3.org/2000/svg"
 width="93.000000pt" height="54.000000pt" viewBox="0 0 93.000000 54.000000"
 preserveAspectRatio="xMidYMid meet">
<metadata>
Created by potrace 1.16, written by Peter Selinger 2001-2019
</metadata>
<g transform="translate(0.000000,54.000000) scale(0.100000,-0.100000)"
fill="#000000" stroke="none">
<path d="M18 533 c12 -2 30 -2 40 0 9 3 -1 5 -23 4 -22 0 -30 -2 -17 -4z"/>
<path d="M293 533 c120 -2 314 -2 430 0 117 1 19 2 -218 2 -237 0 -332 -1
-212 -2z"/>
<path d="M485 490 c-4 -6 -4 -27 -1 -46 l7 -34 -78 -1 c-43 -1 -101 -1 -128 0
-53 2 -93 -17 -81 -38 5 -7 21 -10 39 -7 18 3 80 8 140 12 l107 6 0 -75 0 -74
-107 -6 c-60 -4 -156 -12 -215 -19 -103 -11 -108 -12 -108 -35 0 -19 4 -22 23
-18 12 2 39 7 61 10 21 3 41 7 45 10 4 2 59 8 122 14 63 6 129 13 147 17 l33
7 -3 -69 c-2 -40 1 -70 7 -72 6 -1 11 26 12 64 0 36 4 68 7 72 3 3 28 7 54 8
84 5 272 37 272 47 0 5 -15 7 -32 4 -59 -10 -288 -31 -291 -26 -2 2 -2 37 1
76 l4 73 137 -3 c75 -2 154 -1 176 3 38 5 37 6 -25 12 -36 4 -90 7 -120 7 -30
0 -80 0 -111 0 l-57 1 2 42 c1 32 -3 43 -16 46 -9 2 -19 -2 -23 -8z"/>
</g>
</svg>
