<?xml version="1.0" standalone="no"?>
<!DOCTYPE svg PUBLIC "-//W3C//DTD SVG 20010904//EN"
 "http://www.w3.org/TR/2001/REC-SVG-20010904/DTD/svg10.dtd">
<svg version="1.0" xmlns="http://www.w3.org/2000/svg"
 width="101.000000pt" height="49.000000pt" viewBox="0 0 101.000000 49.000000"
 preserveAspectRatio="xMidYMid meet">
<metadata>
Created by potrace 1.16, written by Peter Selinger 2001-2019
</metadata>
<g transform="translate(0.000000,49.000000) scale(0.100000,-0.100000)"
fill="#000000" stroke="none">
<path d="M355 374 c-38 -26 -73 -52 -76 -57 -3 -5 -58 -8 -122 -8 -96 1 -116
-1 -121 -15 -3 -8 -6 -18 -6 -20 0 -8 145 -3 200 7 30 5 66 11 80 12 15 1 29
12 37 28 7 14 22 34 34 45 22 20 43 21 483 24 31 0 46 4 40 9 -5 5 -115 12
-244 16 l-235 7 -70 -48z"/>
<path d="M521 314 c-55 -34 -69 -34 -110 -2 -25 19 -41 16 -41 -8 0 -8 13 -20
30 -25 33 -12 31 -29 -4 -29 -30 0 -37 -9 -25 -32 10 -18 11 -18 40 7 35 29
61 26 121 -12 47 -29 49 -29 77 1 25 27 58 39 67 25 3 -5 0 -9 -5 -9 -6 0 -11
-9 -11 -21 0 -16 4 -19 18 -14 39 16 51 16 76 0 15 -10 29 -15 33 -12 3 4 -8
14 -26 24 -36 21 -38 28 -13 42 17 9 77 2 100 -13 6 -4 10 2 9 14 -1 11 -8 20
-17 20 -30 0 -31 13 -3 42 32 33 24 37 -17 7 -18 -14 -35 -19 -47 -15 -16 7
-16 9 7 28 20 16 21 18 5 13 -11 -4 -30 -10 -42 -12 -13 -3 -23 -9 -23 -14 0
-5 -14 -16 -32 -25 -29 -15 -34 -15 -65 0 -18 9 -37 24 -41 34 -6 17 -11 16
-61 -14z m49 -19 c11 -13 7 -15 -25 -15 -32 0 -36 2 -25 15 7 8 18 15 25 15 7
0 18 -7 25 -15z m185 -5 c4 -6 -6 -10 -22 -10 -22 0 -25 2 -13 10 19 12 27 12
35 0z m-160 -45 c-39 -18 -60 -18 -75 0 -11 13 -5 15 46 14 58 -1 59 -1 29
-14z m122 9 c-3 -3 -12 -4 -19 -1 -8 3 -5 6 6 6 11 1 17 -2 13 -5z"/>
<path d="M50 202 c-14 -5 -13 -29 2 -34 6 -2 57 2 112 8 124 16 116 16 115 7
-4 -25 5 -40 34 -60 31 -21 40 -22 325 -21 160 0 292 4 292 9 0 11 -55 20
-110 17 -89 -4 -436 14 -461 25 -14 6 -30 20 -35 31 -8 20 -17 21 -136 21 -70
0 -132 -1 -138 -3z"/>
</g>
</svg>
