<?xml version="1.0" standalone="no"?>
<!DOCTYPE svg PUBLIC "-//W3C//DTD SVG 20010904//EN"
 "http://www.w3.org/TR/2001/REC-SVG-20010904/DTD/svg10.dtd">
<svg version="1.0" xmlns="http://www.w3.org/2000/svg"
 width="123.000000pt" height="58.000000pt" viewBox="0 0 123.000000 58.000000"
 preserveAspectRatio="xMidYMid meet">
<metadata>
Created by potrace 1.16, written by Peter Selinger 2001-2019
</metadata>
<g transform="translate(0.000000,58.000000) scale(0.100000,-0.100000)"
fill="#000000" stroke="none">
<path d="M473 505 c-59 -29 -110 -82 -94 -98 6 -6 26 5 58 31 78 66 77 66 392
64 177 -1 281 2 275 8 -5 5 -137 12 -294 15 l-285 6 -52 -26z"/>
<path d="M13 424 c-8 -22 7 -34 35 -29 15 2 89 5 164 6 76 0 140 5 143 10 10
15 -13 18 -178 22 -125 4 -160 2 -164 -9z"/>
<path d="M678 414 c-50 -27 -32 -50 21 -28 69 30 155 15 186 -33 17 -25 18
-25 123 -18 59 3 108 8 110 10 2 2 1 9 -3 15 -5 7 -37 9 -103 4 -92 -6 -98 -5
-117 16 -43 48 -159 66 -217 34z"/>
<path d="M1150 405 c-7 -8 -10 -32 -8 -55 2 -22 1 -40 -2 -40 -3 0 -4 -15 -2
-34 4 -31 27 -55 40 -41 3 3 0 5 -6 5 -15 0 -16 27 -2 32 6 2 11 12 11 23 -1
11 -1 44 -1 73 -1 54 -8 63 -30 37z"/>
<path d="M503 393 c-24 -9 -13 -23 20 -24 17 -1 24 -3 15 -6 -11 -3 -16 -13
-14 -31 3 -25 7 -27 50 -27 52 0 60 19 8 21 -48 2 -52 14 -4 14 38 0 42 2 40
25 -1 14 -9 27 -18 29 -21 6 -82 5 -97 -1z"/>
<path d="M747 373 c-9 -14 -5 -83 4 -83 5 0 12 0 16 0 11 0 7 84 -5 88 -5 1
-12 -1 -15 -5z"/>
<path d="M975 300 c-66 -3 -109 -9 -107 -15 3 -12 223 -8 235 4 14 14 -13 16
-128 11z"/>
<path d="M92 278 c-6 -6 -12 -15 -12 -20 0 -10 318 -9 325 2 8 13 -24 18 -170
25 -96 4 -134 2 -143 -7z"/>
<path d="M670 270 c0 -15 55 -40 88 -40 34 0 71 23 54 34 -6 4 -21 2 -32 -4
-15 -8 -29 -7 -56 5 -42 18 -54 19 -54 5z"/>
<path d="M364 225 c-17 -43 79 -105 169 -110 74 -4 248 -7 420 -6 124 1 147 3
147 16 0 13 -32 15 -232 14 -317 -1 -441 20 -467 77 -12 27 -29 31 -37 9z"/>
</g>
</svg>
