<?xml version="1.0" standalone="no"?>
<!DOCTYPE svg PUBLIC "-//W3C//DTD SVG 20010904//EN"
 "http://www.w3.org/TR/2001/REC-SVG-20010904/DTD/svg10.dtd">
<svg version="1.0" xmlns="http://www.w3.org/2000/svg"
 width="87.000000pt" height="44.000000pt" viewBox="0 0 87.000000 44.000000"
 preserveAspectRatio="xMidYMid meet">
<metadata>
Created by potrace 1.16, written by Peter Selinger 2001-2019
</metadata>
<g transform="translate(0.000000,44.000000) scale(0.100000,-0.100000)"
fill="#000000" stroke="none">
<path d="M125 320 c-15 -25 10 -32 101 -28 86 3 93 2 98 -17 3 -11 0 -37 -6
-59 -11 -36 -10 -40 13 -59 22 -17 34 -19 124 -14 87 5 292 41 304 53 14 14
-22 12 -144 -7 -126 -21 -142 -21 -194 -8 l-56 14 -2 47 c-2 51 -3 50 71 63
21 3 36 9 33 12 -11 10 -336 13 -342 3z"/>
</g>
</svg>
