<?xml version="1.0" standalone="no"?>
<!DOCTYPE svg PUBLIC "-//W3C//DTD SVG 20010904//EN"
 "http://www.w3.org/TR/2001/REC-SVG-20010904/DTD/svg10.dtd">
<svg version="1.0" xmlns="http://www.w3.org/2000/svg"
 width="93.000000pt" height="79.000000pt" viewBox="0 0 93.000000 79.000000"
 preserveAspectRatio="xMidYMid meet">
<metadata>
Created by potrace 1.16, written by Peter Selinger 2001-2019
</metadata>
<g transform="translate(0.000000,79.000000) scale(0.100000,-0.100000)"
fill="#000000" stroke="none">
<path d="M326 732 c-5 -9 66 -83 162 -169 31 -28 32 -30 15 -45 -20 -17 -52
-35 -41 -23 7 8 -43 55 -60 55 -5 0 -44 32 -86 71 -52 49 -81 69 -92 65 -14
-5 -12 -10 10 -27 15 -12 38 -38 51 -59 15 -24 41 -45 72 -59 26 -13 58 -29
71 -37 l23 -15 -25 -20 c-13 -10 -29 -19 -34 -19 -6 0 -49 34 -97 75 -47 41
-90 75 -95 75 -24 0 -16 -22 17 -46 21 -16 59 -48 85 -71 26 -24 53 -43 59
-43 7 0 4 -6 -7 -14 -10 -8 -16 -17 -13 -20 7 -8 94 39 154 83 28 20 78 55
112 76 35 22 63 44 63 48 0 5 -19 -4 -42 -18 -90 -55 -77 -59 -183 46 -101 99
-110 106 -119 91z"/>
<path d="M800 671 c0 -33 -5 -63 -11 -66 -6 -5 -8 -35 -5 -83 2 -43 5 -132 5
-200 1 -94 4 -123 14 -120 17 6 24 158 13 278 -5 59 -4 106 2 126 11 36 4 124
-9 124 -5 0 -9 -27 -9 -59z"/>
<path d="M699 683 c0 -4 0 -41 1 -82 1 -54 -2 -71 -10 -66 -9 6 -10 -28 -5
-141 4 -82 9 -152 12 -156 8 -15 -12 -8 -99 34 -49 23 -88 45 -88 50 0 5 11
24 24 41 13 18 32 46 42 62 l18 30 -22 -19 c-12 -11 -35 -39 -50 -63 -15 -23
-30 -43 -33 -43 -3 0 -36 13 -72 30 l-66 30 -33 -31 c-18 -16 -70 -55 -115
-86 -46 -31 -83 -60 -83 -65 0 -4 12 -8 26 -8 19 0 52 23 118 84 l92 84 29
-15 29 -16 -30 -24 c-16 -14 -62 -49 -102 -80 -68 -53 -86 -73 -61 -73 16 0
84 53 150 118 50 48 59 53 78 43 11 -7 21 -16 21 -20 0 -5 -39 -40 -87 -79
-98 -77 -133 -112 -114 -112 12 0 85 60 180 147 l45 41 104 -54 c57 -30 108
-54 112 -54 12 0 11 488 -1 496 -5 3 -9 2 -10 -3z"/>
<path d="M353 127 c-66 -57 -93 -90 -59 -70 24 14 138 124 134 128 -3 3 -36
-23 -75 -58z"/>
<path d="M745 180 c3 -5 21 -10 38 -10 24 0 28 3 17 10 -20 13 -63 13 -55 0z"/>
</g>
</svg>
