<?xml version="1.0" standalone="no"?>
<!DOCTYPE svg PUBLIC "-//W3C//DTD SVG 20010904//EN"
 "http://www.w3.org/TR/2001/REC-SVG-20010904/DTD/svg10.dtd">
<svg version="1.0" xmlns="http://www.w3.org/2000/svg"
 width="88.000000pt" height="45.000000pt" viewBox="0 0 88.000000 45.000000"
 preserveAspectRatio="xMidYMid meet">
<metadata>
Created by potrace 1.16, written by Peter Selinger 2001-2019
</metadata>
<g transform="translate(0.000000,45.000000) scale(0.100000,-0.100000)"
fill="#000000" stroke="none">
<path d="M406 403 c-3 -3 -6 -26 -6 -50 0 -40 -2 -43 -26 -43 -23 0 -25 3 -19
30 4 19 2 36 -5 45 -19 22 -30 8 -30 -36 l0 -40 -122 2 c-103 3 -123 1 -123
-11 0 -12 21 -15 117 -16 65 0 119 -2 122 -5 2 -2 6 -24 7 -49 l4 -45 -120 0
c-113 0 -120 -1 -120 -20 0 -19 6 -19 123 -16 106 2 122 1 122 -13 0 -9 5 -16
10 -16 6 0 10 7 10 15 0 10 10 15 30 15 23 0 30 -4 30 -20 0 -11 5 -20 10 -20
6 0 10 9 10 20 0 16 7 20 30 20 26 0 30 -4 30 -26 0 -14 4 -23 10 -19 6 3 10
15 10 26 0 15 5 18 23 15 12 -3 66 -8 119 -11 l97 -7 6 -29 c4 -16 10 -29 15
-29 15 0 36 135 22 144 -5 3 -64 -1 -131 -10 -67 -9 -128 -13 -136 -10 -8 3
-15 15 -15 26 0 11 -7 20 -15 20 -10 0 -15 -10 -15 -30 0 -23 -4 -30 -20 -30
-16 0 -20 7 -20 34 0 19 -5 38 -10 41 -6 4 -8 11 -5 16 10 15 47 10 61 -8 10
-13 13 -14 14 -4 0 11 22 12 127 6 77 -4 131 -11 135 -18 4 -6 10 -8 14 -4 9
9 22 99 16 115 -5 16 -27 15 -41 -2 -8 -9 -43 -16 -99 -20 -48 -4 -99 -9 -114
-11 -27 -4 -28 -3 -28 35 0 29 -4 40 -15 40 -11 0 -15 -11 -15 -39 0 -33 -3
-39 -25 -43 -24 -5 -25 -3 -25 38 0 41 -10 61 -24 47z m354 -98 l0 -25 -122 6
c-68 4 -124 8 -126 9 -1 1 53 9 120 17 68 8 124 16 126 17 1 0 2 -10 2 -24z
m-359 -47 c0 -13 3 -35 5 -50 4 -24 1 -28 -21 -28 -17 0 -26 6 -27 18 0 9 -2
22 -2 29 -1 6 -4 15 -8 18 -13 13 4 35 28 35 18 0 24 -6 25 -22z m353 -84 c4
-9 5 -18 4 -19 -5 -5 -189 8 -184 12 2 2 28 7 57 10 30 3 56 7 58 9 12 11 60
2 65 -12z"/>
</g>
</svg>
