<?xml version="1.0" standalone="no"?>
<!DOCTYPE svg PUBLIC "-//W3C//DTD SVG 20010904//EN"
 "http://www.w3.org/TR/2001/REC-SVG-20010904/DTD/svg10.dtd">
<svg version="1.0" xmlns="http://www.w3.org/2000/svg"
 width="96.000000pt" height="41.000000pt" viewBox="0 0 96.000000 41.000000"
 preserveAspectRatio="xMidYMid meet">
<metadata>
Created by potrace 1.16, written by Peter Selinger 2001-2019
</metadata>
<g transform="translate(0.000000,41.000000) scale(0.100000,-0.100000)"
fill="#000000" stroke="none">
<path d="M340 295 l0 -46 -119 7 c-131 7 -161 3 -141 -21 10 -12 39 -15 139
-15 l127 0 -1 -37 c0 -50 23 -55 27 -6 2 31 7 39 26 41 22 3 23 1 17 -27 -8
-35 3 -61 16 -40 5 8 9 26 9 42 0 24 4 27 31 27 27 0 30 -3 29 -27 -3 -48 0
-64 10 -58 6 3 10 24 10 46 l0 40 83 -6 c45 -4 114 -13 154 -21 40 -8 75 -14
78 -14 3 0 5 -11 5 -25 0 -14 4 -25 9 -25 11 0 18 27 27 107 6 56 5 61 -12 59
-10 -2 -20 -8 -22 -14 -2 -7 -7 -10 -10 -8 -4 2 -61 -2 -127 -10 -182 -20
-173 -22 -177 29 -2 29 -8 42 -18 42 -11 0 -15 -11 -13 -42 2 -41 1 -43 -27
-43 -27 0 -29 2 -24 30 4 16 4 37 0 46 -11 29 -36 -4 -36 -47 0 -62 -35 -44
-42 20 -5 55 -28 51 -28 -4z m503 -72 c4 -22 2 -24 -22 -20 -14 3 -73 11 -131
19 l-105 13 95 5 c52 3 109 6 127 7 26 1 32 -3 36 -24z"/>
</g>
</svg>
