<?xml version="1.0" standalone="no"?>
<!DOCTYPE svg PUBLIC "-//W3C//DTD SVG 20010904//EN"
 "http://www.w3.org/TR/2001/REC-SVG-20010904/DTD/svg10.dtd">
<svg version="1.0" xmlns="http://www.w3.org/2000/svg"
 width="111.000000pt" height="41.000000pt" viewBox="0 0 111.000000 41.000000"
 preserveAspectRatio="xMidYMid meet">
<metadata>
Created by potrace 1.16, written by Peter Selinger 2001-2019
</metadata>
<g transform="translate(0.000000,41.000000) scale(0.100000,-0.100000)"
fill="#000000" stroke="none">
<path d="M523 295 c-16 -7 -32 -21 -35 -32 -3 -11 -22 -24 -47 -33 -22 -7 -41
-17 -41 -22 0 -4 -61 -8 -136 -8 -135 0 -135 0 -132 -22 3 -26 12 -27 169 -14
94 7 96 7 95 -14 -1 -17 9 -26 39 -39 22 -9 52 -28 67 -44 15 -15 33 -27 40
-27 39 0 168 61 202 96 9 8 55 18 113 25 54 6 117 13 141 15 23 3 42 9 42 15
0 5 -60 9 -142 9 l-142 0 -56 38 c-77 54 -137 73 -177 57z m108 -46 c46 -14
97 -56 101 -84 5 -31 -112 -88 -161 -79 -46 9 -101 36 -126 64 l-19 21 33 27
c77 62 106 70 172 51z"/>
<path d="M515 173 c11 -74 21 -75 27 -3 2 37 0 45 -16 48 -17 4 -18 0 -11 -45z"/>
<path d="M581 188 c1 -43 13 -85 21 -73 3 6 9 31 12 58 7 43 6 47 -13 47 -17
0 -21 -6 -20 -32z"/>
</g>
</svg>
