<?xml version="1.0" standalone="no"?>
<!DOCTYPE svg PUBLIC "-//W3C//DTD SVG 20010904//EN"
 "http://www.w3.org/TR/2001/REC-SVG-20010904/DTD/svg10.dtd">
<svg version="1.0" xmlns="http://www.w3.org/2000/svg"
 width="75.000000pt" height="58.000000pt" viewBox="0 0 75.000000 58.000000"
 preserveAspectRatio="xMidYMid meet">
<metadata>
Created by potrace 1.16, written by Peter Selinger 2001-2019
</metadata>
<g transform="translate(0.000000,58.000000) scale(0.100000,-0.100000)"
fill="#000000" stroke="none">
<path d="M316 462 c-3 -5 -14 -51 -25 -102 -12 -51 -23 -95 -26 -98 -3 -3 -35
-10 -72 -16 -62 -11 -68 -13 -68 -36 0 -15 8 -29 21 -35 13 -6 20 -20 20 -37
0 -37 18 -41 22 -5 2 15 5 27 6 27 2 0 22 -7 44 -14 23 -8 44 -11 47 -6 3 4
-14 15 -37 22 -58 20 -64 50 -12 66 43 13 54 9 54 -21 0 -29 20 -100 26 -94 3
3 0 50 -5 105 -10 95 -9 104 13 164 22 60 24 88 6 88 -5 0 -11 -4 -14 -8z"/>
<path d="M364 458 c-4 -6 5 -20 22 -32 74 -53 131 -138 119 -176 -3 -10 -23
-29 -45 -44 l-39 -26 -3 68 c-2 52 -6 67 -18 67 -17 0 -18 -32 -5 -102 7 -41
7 -43 -29 -59 -20 -10 -36 -24 -36 -31 0 -7 3 -13 7 -13 16 0 159 85 189 113
55 49 48 69 -55 165 -49 45 -92 82 -95 82 -2 0 -8 -5 -12 -12z"/>
</g>
</svg>
