<?xml version="1.0" standalone="no"?>
<!DOCTYPE svg PUBLIC "-//W3C//DTD SVG 20010904//EN"
 "http://www.w3.org/TR/2001/REC-SVG-20010904/DTD/svg10.dtd">
<svg version="1.0" xmlns="http://www.w3.org/2000/svg"
 width="59.000000pt" height="48.000000pt" viewBox="0 0 59.000000 48.000000"
 preserveAspectRatio="xMidYMid meet">
<metadata>
Created by potrace 1.16, written by Peter Selinger 2001-2019
</metadata>
<g transform="translate(0.000000,48.000000) scale(0.100000,-0.100000)"
fill="#000000" stroke="none">
<path d="M297 433 c-4 -3 -7 -39 -7 -79 0 -68 -2 -75 -25 -90 -24 -16 -27 -16
-40 2 -41 55 -40 59 9 104 26 24 44 45 41 48 -2 3 -30 -15 -61 -39 -30 -24
-63 -49 -71 -56 -14 -11 -13 -16 13 -41 16 -16 38 -34 48 -40 18 -9 15 -13
-29 -41 -27 -17 -53 -31 -57 -31 -4 0 -8 -7 -8 -15 0 -10 10 -15 31 -15 22 0
46 -12 79 -40 26 -22 50 -37 53 -33 4 3 -12 26 -33 51 -22 25 -40 50 -40 57 0
21 28 37 51 30 19 -6 21 -4 16 13 -3 13 1 26 10 34 13 11 15 2 13 -72 -3 -104
-2 -113 9 -106 5 3 12 39 16 80 7 83 3 80 108 92 32 4 60 11 63 15 6 11 -9 12
-100 9 -68 -2 -69 -2 -62 22 4 12 10 51 13 86 5 57 4 62 -14 62 -11 0 -23 -3
-26 -7z"/>
</g>
</svg>
