<?xml version="1.0" standalone="no"?>
<!DOCTYPE svg PUBLIC "-//W3C//DTD SVG 20010904//EN"
 "http://www.w3.org/TR/2001/REC-SVG-20010904/DTD/svg10.dtd">
<svg version="1.0" xmlns="http://www.w3.org/2000/svg"
 width="61.000000pt" height="45.000000pt" viewBox="0 0 61.000000 45.000000"
 preserveAspectRatio="xMidYMid meet">
<metadata>
Created by potrace 1.16, written by Peter Selinger 2001-2019
</metadata>
<g transform="translate(0.000000,45.000000) scale(0.100000,-0.100000)"
fill="#000000" stroke="none">
<path d="M168 336 c-26 -19 -23 -25 25 -45 23 -11 50 -25 60 -33 16 -12 13
-16 -35 -44 -29 -16 -68 -37 -86 -45 -17 -7 -32 -21 -32 -30 0 -29 29 -29 63
-1 46 40 114 82 131 82 8 0 33 -16 56 -35 59 -50 72 -32 14 20 l-49 42 58 33
c31 17 60 36 63 42 14 22 -7 16 -57 -17 -29 -19 -62 -35 -72 -35 -11 0 -41 18
-67 40 -54 45 -49 44 -72 26z"/>
</g>
</svg>
