<?xml version="1.0" standalone="no"?>
<!DOCTYPE svg PUBLIC "-//W3C//DTD SVG 20010904//EN"
 "http://www.w3.org/TR/2001/REC-SVG-20010904/DTD/svg10.dtd">
<svg version="1.0" xmlns="http://www.w3.org/2000/svg"
 width="141.000000pt" height="87.000000pt" viewBox="0 0 141.000000 87.000000"
 preserveAspectRatio="xMidYMid meet">
<metadata>
Created by potrace 1.16, written by Peter Selinger 2001-2019
</metadata>
<g transform="translate(0.000000,87.000000) scale(0.100000,-0.100000)"
fill="#000000" stroke="none">
<path d="M1230 691 c0 -33 -5 -53 -12 -55 -7 -2 -83 -10 -168 -18 l-155 -13
-28 50 c-35 62 -44 72 -57 59 -7 -7 0 -26 20 -57 16 -26 30 -50 30 -52 0 -3
-13 -5 -28 -5 -21 0 -32 7 -43 28 -21 41 -46 72 -53 65 -13 -13 -5 -38 21 -65
l27 -28 -41 0 c-24 0 -46 6 -53 15 -8 10 -31 14 -72 14 -33 -1 -63 3 -67 7
-11 16 -93 15 -105 0 -22 -29 -217 -49 -233 -23 -4 6 -6 22 -5 34 4 30 -12 36
-34 12 -24 -26 -26 -46 -8 -81 10 -20 20 -27 32 -24 9 3 56 12 104 21 47 8 97
19 110 24 38 14 220 1 241 -17 12 -11 40 -17 82 -18 l64 -1 46 -68 c26 -37 44
-69 42 -71 -2 -3 -33 -10 -68 -16 -35 -6 -83 -22 -108 -34 -24 -13 -56 -24
-70 -24 -35 0 -59 -16 -45 -30 7 -7 23 -5 52 7 48 18 58 13 68 -33 5 -27 3
-32 -18 -37 -12 -4 -35 -7 -50 -7 -18 0 -28 -5 -28 -14 0 -24 14 -26 60 -10
49 17 57 13 62 -35 l3 -35 -64 -13 c-35 -7 -66 -11 -68 -9 -7 6 -50 167 -58
214 -4 24 -3 41 2 40 4 -2 9 2 9 7 1 6 -33 9 -92 7 -92 -4 -94 -4 -105 22 -15
33 -33 34 -27 1 7 -33 -8 -33 -16 0 -8 30 -26 33 -26 5 0 -11 -6 -20 -12 -20
-31 0 -95 24 -115 42 -23 21 -43 17 -43 -8 0 -20 60 -44 109 -44 29 0 43 -5
50 -18 9 -16 18 -17 78 -11 93 11 155 11 149 0 -7 -10 21 -108 38 -136 14 -23
40 -103 41 -125 1 -20 22 -17 122 17 80 27 104 43 65 43 -16 0 -21 13 -30 88
-12 101 -12 101 73 127 70 22 85 18 113 -33 13 -23 28 -42 33 -42 5 0 -4 21
-20 47 -22 34 -26 50 -18 55 26 17 46 6 73 -39 15 -26 29 -42 32 -35 2 7 -7
30 -21 51 l-26 39 82 21 c45 12 96 26 114 30 27 7 33 6 38 -9 3 -10 5 -22 4
-26 -5 -32 3 -174 10 -174 5 0 9 48 10 108 0 95 2 109 21 124 23 19 26 30 6
22 -9 -3 -15 7 -19 33 -10 58 -9 60 26 68 32 8 32 8 5 12 -24 4 -27 9 -30 50
-4 67 -28 69 -28 4z m-8 -136 l-7 -50 -113 -29 c-84 -21 -115 -26 -125 -17
-23 18 -70 112 -61 121 11 10 296 38 306 30 4 -3 4 -27 0 -55z m-324 -7 c11
-18 29 -50 41 -70 l21 -38 -26 -6 c-28 -7 -37 2 -86 87 -20 34 -24 49 -15 52
29 12 47 5 65 -25z"/>
<path d="M1326 718 c-3 -13 -6 -50 -6 -83 0 -34 -4 -65 -8 -70 -11 -13 -2
-255 9 -255 5 0 9 28 9 63 0 34 5 114 12 177 15 149 15 182 2 187 -6 2 -14 -6
-18 -19z"/>
<path d="M340 515 c0 -13 11 -19 31 -17 65 8 90 11 123 11 75 2 24 16 -65 18
-74 3 -89 1 -89 -12z"/>
</g>
</svg>
