<?xml version="1.0" standalone="no"?>
<!DOCTYPE svg PUBLIC "-//W3C//DTD SVG 20010904//EN"
 "http://www.w3.org/TR/2001/REC-SVG-20010904/DTD/svg10.dtd">
<svg version="1.0" xmlns="http://www.w3.org/2000/svg"
 width="97.000000pt" height="74.000000pt" viewBox="0 0 97.000000 74.000000"
 preserveAspectRatio="xMidYMid meet">
<metadata>
Created by potrace 1.16, written by Peter Selinger 2001-2019
</metadata>
<g transform="translate(0.000000,74.000000) scale(0.100000,-0.100000)"
fill="#000000" stroke="none">
<path d="M828 693 c-15 -15 -15 -18 -1 -40 12 -19 13 -23 2 -21 -7 2 -14 -4
-15 -12 -3 -32 -5 -35 -14 -20 -8 12 -9 9 -6 -11 4 -23 -1 -28 -46 -44 l-50
-18 -22 28 c-28 35 -45 18 -20 -20 16 -24 15 -25 -12 -35 -28 -11 -30 -10 -55
34 -7 12 -14 15 -21 8 -7 -7 -5 -18 6 -33 21 -31 21 -34 -10 -48 -34 -15 -56
3 -91 74 -56 111 -93 156 -105 126 -4 -13 -108 -95 -143 -114 -48 -26 -121
-96 -110 -104 6 -5 10 -17 10 -27 0 -34 46 -55 178 -81 134 -26 184 -31 157
-16 -8 5 -49 16 -90 25 -70 16 -78 20 -110 63 -46 60 -61 75 -68 69 -3 -3 14
-29 38 -58 l44 -51 -30 7 c-36 9 -50 21 -68 56 -13 27 -12 30 14 55 l28 26 38
-48 c56 -69 94 -106 101 -99 4 3 -5 19 -19 34 -13 15 -41 50 -61 79 l-37 51
42 33 c24 19 45 36 48 39 43 45 42 46 110 -56 60 -91 62 -97 45 -110 -21 -15
-21 -15 -95 85 -25 33 -49 60 -53 61 -19 1 2 -33 67 -109 63 -74 70 -79 92
-69 19 9 28 8 42 -5 21 -19 42 -23 24 -5 -20 20 -14 44 15 57 26 12 30 10 60
-26 l33 -38 -49 -22 c-27 -12 -52 -27 -56 -32 -11 -19 36 -12 72 10 38 24 50
21 34 -10 -8 -14 -8 -22 0 -27 9 -5 6 -11 -6 -21 -11 -7 -14 -13 -8 -13 7 0
15 5 18 10 9 15 42 12 60 -6 9 -9 19 -14 22 -10 4 3 1 12 -5 18 -15 15 -15 28
-1 28 5 0 7 -5 4 -10 -3 -5 -1 -10 5 -10 7 0 9 8 5 20 -4 11 -2 20 4 20 6 0
11 7 11 15 0 13 -4 14 -22 4 -13 -7 -29 -18 -36 -26 -7 -7 -19 -13 -27 -13
-22 0 9 72 36 82 19 7 21 11 9 18 -10 6 -20 4 -31 -6 -8 -7 -19 -14 -22 -14
-7 0 -60 81 -55 84 2 1 15 7 30 14 28 12 36 6 75 -54 11 -18 12 -17 12 6 1 15
-7 30 -19 38 -11 7 -20 18 -20 25 0 15 59 46 76 40 12 -4 7 -40 -8 -59 -5 -7
-3 -14 6 -17 20 -8 28 6 25 46 -2 32 5 59 22 87 5 8 15 29 23 46 8 17 19 35
25 38 6 4 9 12 6 17 -9 14 -38 9 -57 -8z m42 -2 c0 -12 -20 -25 -27 -18 -7 7
6 27 18 27 5 0 9 -4 9 -9z"/>
<path d="M864 625 c-9 -22 1 -29 15 -11 8 10 9 16 1 21 -5 3 -13 -1 -16 -10z"/>
<path d="M280 531 c0 -17 122 -161 132 -155 5 4 -3 20 -20 38 -16 17 -43 52
-61 79 -29 43 -51 60 -51 38z"/>
<path d="M830 530 c0 -5 5 -10 10 -10 6 0 10 5 10 10 0 6 -4 10 -10 10 -5 0
-10 -4 -10 -10z"/>
<path d="M776 434 c-8 -22 -8 -26 3 -20 5 4 7 -4 4 -16 -4 -16 -2 -20 5 -13
17 16 19 65 3 65 -5 0 -12 -7 -15 -16z"/>
<path d="M796 371 c-4 -5 -2 -12 3 -15 5 -4 12 -2 15 3 4 5 2 12 -3 15 -5 4
-12 2 -15 -3z"/>
<path d="M370 303 c0 -5 6 -17 14 -28 21 -31 96 -175 96 -184 0 -5 -9 -11 -20
-14 -11 -3 -20 -12 -20 -21 0 -18 25 -22 35 -6 4 6 15 8 26 5 12 -4 19 -2 19
7 0 15 109 73 118 63 3 -3 -4 -8 -16 -12 -16 -4 -22 -13 -22 -35 0 -44 20 -60
48 -38 19 16 20 19 6 24 -14 5 -13 9 7 27 l24 21 -25 -7 c-24 -7 -24 -7 -7 12
9 11 14 23 11 26 -4 4 1 10 11 13 10 4 20 1 25 -7 5 -7 12 -11 15 -8 9 10 -6
39 -20 39 -7 0 -15 7 -19 15 -3 8 -1 15 4 15 6 0 10 -5 10 -12 0 -6 9 -3 20 7
16 14 17 20 8 27 -10 6 -10 10 2 18 13 9 13 11 1 19 -19 12 -53 -31 -53 -65 0
-29 -16 -19 -23 14 -2 14 1 22 11 22 8 0 14 5 14 11 0 7 -9 9 -21 6 -15 -4
-23 1 -31 19 -14 30 -30 32 -23 2 5 -20 -1 -26 -57 -47 -75 -30 -72 -27 -63
-40 4 -7 27 0 65 19 68 34 83 37 78 13 -2 -10 -25 -24 -58 -36 -30 -10 -58
-24 -62 -30 -15 -25 5 -24 55 4 64 35 87 37 87 7 0 -19 -12 -27 -59 -45 -32
-13 -65 -23 -72 -23 -8 0 -35 46 -61 103 -26 58 -53 103 -62 105 -9 2 -16 0
-16 -5z"/>
<path d="M511 277 c-30 -13 -56 -28 -59 -35 -6 -19 15 -14 66 14 86 47 83 58
-7 21z"/>
<path d="M680 130 c0 -6 7 -13 15 -17 24 -9 27 1 5 15 -13 8 -20 8 -20 2z"/>
</g>
</svg>
