<?xml version="1.0" standalone="no"?>
<!DOCTYPE svg PUBLIC "-//W3C//DTD SVG 20010904//EN"
 "http://www.w3.org/TR/2001/REC-SVG-20010904/DTD/svg10.dtd">
<svg version="1.0" xmlns="http://www.w3.org/2000/svg"
 width="74.000000pt" height="53.000000pt" viewBox="0 0 74.000000 53.000000"
 preserveAspectRatio="xMidYMid meet">
<metadata>
Created by potrace 1.16, written by Peter Selinger 2001-2019
</metadata>
<g transform="translate(0.000000,53.000000) scale(0.100000,-0.100000)"
fill="#000000" stroke="none">
<path d="M85 380 c-29 -32 -13 -50 47 -50 58 0 298 27 305 34 3 2 18 0 34 -6
25 -9 29 -15 29 -49 0 -22 -11 -67 -25 -101 -27 -66 -32 -93 -14 -82 14 8 99
192 99 213 -1 48 -55 63 -150 44 -36 -8 -110 -18 -164 -23 -102 -10 -131 -4
-119 26 8 21 -21 17 -42 -6z"/>
<path d="M174 283 c-6 -5 -13 -32 -16 -61 -7 -74 9 -92 83 -95 l57 -2 5 45 c3
25 9 60 12 78 6 30 4 32 -22 33 -15 0 -46 2 -68 5 -22 2 -45 1 -51 -3z m56
-38 c0 -8 -7 -15 -15 -15 -8 0 -15 7 -15 15 0 8 7 15 15 15 8 0 15 -7 15 -15z
m50 0 c0 -8 -4 -15 -10 -15 -5 0 -10 7 -10 15 0 8 5 15 10 15 6 0 10 -7 10
-15z m4 -62 c-8 -35 -7 -33 -23 -24 -17 11 -5 51 15 51 11 0 13 -7 8 -27z
m-54 -4 c0 -15 -4 -19 -16 -15 -9 3 -18 6 -20 6 -2 0 -4 7 -4 15 0 8 9 15 20
15 14 0 20 -7 20 -21z"/>
<path d="M342 274 c-5 -11 -12 -50 -13 -89 l-4 -70 35 -18 c68 -35 195 -11
280 53 44 33 13 34 -40 1 -38 -23 -69 -33 -115 -38 -61 -5 -63 -5 -100 29
l-38 35 12 48 c13 51 2 84 -17 49z"/>
</g>
</svg>
