<?xml version="1.0" standalone="no"?>
<!DOCTYPE svg PUBLIC "-//W3C//DTD SVG 20010904//EN"
 "http://www.w3.org/TR/2001/REC-SVG-20010904/DTD/svg10.dtd">
<svg version="1.0" xmlns="http://www.w3.org/2000/svg"
 width="89.000000pt" height="45.000000pt" viewBox="0 0 89.000000 45.000000"
 preserveAspectRatio="xMidYMid meet">
<metadata>
Created by potrace 1.16, written by Peter Selinger 2001-2019
</metadata>
<g transform="translate(0.000000,45.000000) scale(0.100000,-0.100000)"
fill="#000000" stroke="none">
<path d="M354 387 c-37 -23 -73 -36 -130 -45 -116 -20 -144 -32 -165 -72 -27
-49 -24 -92 7 -123 53 -53 119 -58 244 -18 38 12 92 21 130 21 36 0 110 7 164
15 55 8 116 15 137 15 21 0 49 4 64 10 25 10 26 12 23 87 l-3 78 -75 -3 c-41
-2 -95 -7 -120 -12 -44 -9 -63 -12 -168 -26 l-53 -7 7 44 c4 24 7 48 8 53 3
20 -22 14 -70 -17z m26 -108 c-10 -74 -20 -113 -30 -119 -8 -4 -37 -11 -65
-14 l-50 -7 0 90 0 91 66 20 c37 11 72 27 79 35 7 8 13 15 14 15 1 0 -5 -50
-14 -111z m422 51 c2 -5 1 -32 0 -59 l-4 -49 -76 -11 c-119 -17 -243 -31 -282
-31 l-35 0 4 51 c3 56 2 55 86 63 60 6 155 23 210 37 44 11 93 10 97 -1z
m-586 -187 c-11 -29 -132 -7 -138 25 -5 25 8 92 20 104 6 6 35 19 64 29 l53
18 3 -81 c2 -45 1 -87 -2 -95z"/>
</g>
</svg>
