<?xml version="1.0" standalone="no"?>
<!DOCTYPE svg PUBLIC "-//W3C//DTD SVG 20010904//EN"
 "http://www.w3.org/TR/2001/REC-SVG-20010904/DTD/svg10.dtd">
<svg version="1.0" xmlns="http://www.w3.org/2000/svg"
 width="56.000000pt" height="64.000000pt" viewBox="0 0 56.000000 64.000000"
 preserveAspectRatio="xMidYMid meet">
<metadata>
Created by potrace 1.16, written by Peter Selinger 2001-2019
</metadata>
<g transform="translate(0.000000,64.000000) scale(0.100000,-0.100000)"
fill="#000000" stroke="none">
<path d="M232 507 c-11 -12 -34 -48 -52 -79 l-31 -57 42 -30 c23 -17 46 -31
51 -31 14 0 9 -15 -14 -40 -13 -14 -22 -28 -21 -31 1 -4 -7 -15 -17 -24 -21
-19 -27 -55 -10 -55 5 0 32 -13 60 -30 28 -16 53 -30 55 -30 3 0 47 42 100 94
85 83 95 97 95 129 0 54 -6 63 -94 124 -44 31 -84 61 -88 67 -13 20 -55 15
-76 -7z m93 -52 c22 -13 55 -32 74 -41 32 -17 33 -19 28 -65 -3 -26 -13 -61
-21 -77 -19 -37 -105 -132 -119 -132 -15 0 -77 43 -77 54 0 5 18 27 40 48 46
45 44 54 -16 110 l-44 40 36 44 c20 24 41 44 48 44 6 -1 29 -12 51 -25z"/>
</g>
</svg>
