<?xml version="1.0" standalone="no"?>
<!DOCTYPE svg PUBLIC "-//W3C//DTD SVG 20010904//EN"
 "http://www.w3.org/TR/2001/REC-SVG-20010904/DTD/svg10.dtd">
<svg version="1.0" xmlns="http://www.w3.org/2000/svg"
 width="64.000000pt" height="41.000000pt" viewBox="0 0 64.000000 41.000000"
 preserveAspectRatio="xMidYMid meet">
<metadata>
Created by potrace 1.16, written by Peter Selinger 2001-2019
</metadata>
<g transform="translate(0.000000,41.000000) scale(0.100000,-0.100000)"
fill="#000000" stroke="none">
<path d="M349 326 c-2 -2 -65 -6 -140 -8 -74 -3 -141 -8 -148 -12 -20 -13 -11
-231 9 -231 8 0 16 7 16 15 5 46 4 46 18 27 10 -13 16 -15 21 -7 6 9 10 9 16
-1 8 -12 11 -11 19 1 8 12 10 12 10 1 0 -11 3 -11 17 0 13 11 17 11 20 2 3 -7
9 -13 14 -13 5 0 9 6 9 13 0 9 35 13 133 16 72 1 135 5 140 8 23 14 -14 17
-128 13 -70 -3 -132 -2 -139 2 -6 4 21 8 59 9 39 1 75 3 80 4 6 2 36 3 68 4
33 1 57 5 57 12 0 5 -4 7 -10 4 -5 -3 -10 1 -10 10 0 15 -13 16 -125 11 -79
-4 -125 -2 -125 4 0 6 42 11 100 11 116 2 116 2 126 12 4 4 -45 7 -109 7 -64
0 -117 4 -117 8 0 4 28 8 63 8 117 0 157 4 157 14 0 6 -69 11 -182 12 l-183 1
140 8 c77 3 170 7 208 8 52 1 67 4 67 16 0 12 -15 15 -73 15 -41 0 -76 -2 -78
-4z m-252 -88 c-3 -8 -6 -5 -6 6 -1 11 2 17 5 13 3 -3 4 -12 1 -19z m43 12 c0
-5 -4 -10 -10 -10 -5 0 -10 5 -10 10 0 6 5 10 10 10 6 0 10 -4 10 -10z m30 6
c0 -3 -4 -8 -10 -11 -5 -3 -10 -1 -10 4 0 6 5 11 10 11 6 0 10 -2 10 -4z m30
-6 c0 -5 -2 -10 -4 -10 -3 0 -8 5 -11 10 -3 6 -1 10 4 10 6 0 11 -4 11 -10z
m138 -67 c-10 -2 -26 -2 -35 0 -10 3 -2 5 17 5 19 0 27 -2 18 -5z m75 0 c-7
-2 -19 -2 -25 0 -7 3 -2 5 12 5 14 0 19 -2 13 -5z m-306 -9 c-3 -3 -12 -4 -19
-1 -8 3 -5 6 6 6 11 1 17 -2 13 -5z m103 -24 c0 -5 -4 -10 -10 -10 -5 0 -10 5
-10 10 0 6 5 10 10 10 6 0 10 -4 10 -10z"/>
</g>
</svg>
