<?xml version="1.0" standalone="no"?>
<!DOCTYPE svg PUBLIC "-//W3C//DTD SVG 20010904//EN"
 "http://www.w3.org/TR/2001/REC-SVG-20010904/DTD/svg10.dtd">
<svg version="1.0" xmlns="http://www.w3.org/2000/svg"
 width="44.000000pt" height="36.000000pt" viewBox="0 0 44.000000 36.000000"
 preserveAspectRatio="xMidYMid meet">
<metadata>
Created by potrace 1.16, written by Peter Selinger 2001-2019
</metadata>
<g transform="translate(0.000000,36.000000) scale(0.100000,-0.100000)"
fill="#000000" stroke="none">
<path d="M135 299 c-19 -20 -20 -28 -13 -112 5 -50 13 -96 18 -101 19 -19 220
109 220 139 0 6 -20 17 -45 24 -24 7 -65 26 -90 42 -54 34 -64 35 -90 8z m135
-58 l65 -20 -75 0 c-98 1 -94 1 -80 -16 12 -14 44 -14 118 1 61 12 -15 -35
-120 -75 -27 -10 -28 -10 -28 27 0 20 3 54 7 75 7 44 0 43 113 8z"/>
</g>
</svg>
