<?xml version="1.0" standalone="no"?>
<!DOCTYPE svg PUBLIC "-//W3C//DTD SVG 20010904//EN"
 "http://www.w3.org/TR/2001/REC-SVG-20010904/DTD/svg10.dtd">
<svg version="1.0" xmlns="http://www.w3.org/2000/svg"
 width="73.000000pt" height="34.000000pt" viewBox="0 0 73.000000 34.000000"
 preserveAspectRatio="xMidYMid meet">
<metadata>
Created by potrace 1.16, written by Peter Selinger 2001-2019
</metadata>
<g transform="translate(0.000000,34.000000) scale(0.100000,-0.100000)"
fill="#000000" stroke="none">
<path d="M329 284 c-11 -13 -28 -14 -108 -8 -153 11 -146 11 -146 -10 0 -18 7
-19 123 -17 114 2 122 1 122 -16 0 -18 -7 -19 -115 -15 -102 4 -115 3 -115
-12 0 -13 10 -16 53 -15 125 5 177 0 177 -17 0 -17 -26 -17 -210 -1 -16 1 -25
-3 -25 -13 0 -12 18 -15 95 -16 141 -2 140 -2 140 -21 0 -14 -12 -15 -110 -9
-105 6 -110 6 -110 -14 0 -19 5 -19 108 -13 109 6 109 6 116 -18 l8 -24 8 25
c4 14 8 62 9 108 l1 82 25 -5 c14 -3 37 -7 51 -10 43 -9 165 -68 157 -75 -4
-4 -48 -20 -98 -35 -121 -36 -135 -42 -135 -59 0 -18 20 -25 40 -14 34 18 192
88 201 88 5 0 9 -13 9 -29 0 -37 10 -62 21 -55 5 3 9 15 9 27 0 12 7 35 15 50
12 24 12 29 0 33 -8 3 -19 3 -25 -1 -5 -3 -10 -1 -10 5 0 13 -223 120 -250
120 -9 0 -23 -7 -31 -16z"/>
</g>
</svg>
