<?xml version="1.0" standalone="no"?>
<!DOCTYPE svg PUBLIC "-//W3C//DTD SVG 20010904//EN"
 "http://www.w3.org/TR/2001/REC-SVG-20010904/DTD/svg10.dtd">
<svg version="1.0" xmlns="http://www.w3.org/2000/svg"
 width="92.000000pt" height="51.000000pt" viewBox="0 0 92.000000 51.000000"
 preserveAspectRatio="xMidYMid meet">
<metadata>
Created by potrace 1.16, written by Peter Selinger 2001-2019
</metadata>
<g transform="translate(0.000000,51.000000) scale(0.100000,-0.100000)"
fill="#000000" stroke="none">
<path d="M220 372 c-47 -26 -101 -54 -120 -61 -46 -19 -58 -30 -42 -40 7 -4
10 -14 7 -22 -5 -15 71 -72 168 -127 46 -26 48 -16 4 20 -19 14 -34 33 -34 41
0 13 5 13 35 0 38 -16 51 -13 27 7 -8 7 -15 20 -15 28 0 12 3 13 12 4 8 -8 15
-9 25 -1 10 9 13 1 13 -44 0 -31 5 -59 10 -62 6 -4 10 6 10 24 0 28 3 30 43
35 23 3 121 8 217 10 203 5 180 3 180 17 0 8 -51 10 -172 6 -95 -2 -193 -2
-218 0 l-45 5 3 39 4 39 222 -2 221 -3 0 -65 c1 -104 29 -71 37 42 l3 52 -232
1 c-127 0 -235 4 -240 8 -4 5 -8 27 -8 50 0 29 -5 42 -15 44 -8 2 -53 -19
-100 -45z m79 -37 c-1 -30 -5 -55 -9 -55 -4 0 -15 16 -24 35 -18 38 -31 47
-23 15 6 -23 -1 -25 -26 -6 -17 13 -15 16 25 39 24 14 46 25 51 26 4 1 7 -24
6 -54z m-109 -35 c0 -18 -3 -19 -20 -10 -22 12 -18 30 6 30 8 0 14 -9 14 -20z
m84 -47 c11 -27 -39 -2 -55 28 -11 21 -11 21 20 3 17 -10 33 -24 35 -31z
m-137 20 c0 -10 -5 -21 -10 -25 -7 -4 0 -12 15 -19 15 -6 29 -18 32 -26 7 -17
-47 12 -72 40 -16 18 -16 20 3 33 25 18 32 18 32 -3z m57 -14 c24 -11 42 -37
32 -46 -7 -7 -54 27 -60 43 -7 17 -4 17 28 3z"/>
</g>
</svg>
