<?xml version="1.0" standalone="no"?>
<!DOCTYPE svg PUBLIC "-//W3C//DTD SVG 20010904//EN"
 "http://www.w3.org/TR/2001/REC-SVG-20010904/DTD/svg10.dtd">
<svg version="1.0" xmlns="http://www.w3.org/2000/svg"
 width="81.000000pt" height="51.000000pt" viewBox="0 0 81.000000 51.000000"
 preserveAspectRatio="xMidYMid meet">
<metadata>
Created by potrace 1.16, written by Peter Selinger 2001-2019
</metadata>
<g transform="translate(0.000000,51.000000) scale(0.100000,-0.100000)"
fill="#000000" stroke="none">
<path d="M401 442 c-6 -11 -11 -29 -11 -40 0 -11 -6 -22 -14 -25 -7 -3 -88 -3
-180 0 l-166 5 0 -39 c0 -44 27 -93 41 -72 6 10 11 10 24 -1 13 -10 18 -11 24
-2 5 8 41 12 112 11 57 0 116 2 130 6 25 6 27 4 31 -32 10 -79 17 -77 -178
-70 -191 7 -188 8 -177 -57 3 -20 10 -33 17 -30 6 2 20 -2 31 -10 14 -10 23
-11 37 -2 14 8 23 8 38 -2 13 -8 20 -9 20 -1 0 6 17 10 43 8 23 -1 60 1 82 5
88 15 95 15 95 4 0 -6 -7 -16 -17 -23 -10 -7 -13 -17 -8 -25 9 -14 40 -11 209
19 75 14 114 17 122 10 21 -18 23 5 9 95 -8 49 -12 118 -9 157 3 39 2 78 -1
88 -6 21 -43 28 -196 38 -91 5 -98 4 -108 -15z m269 -96 c0 -41 7 -108 16
-151 9 -42 14 -78 12 -80 -7 -7 -228 -36 -253 -33 l-26 3 -4 162 -4 162 37 4
c20 2 79 4 130 5 l92 2 0 -74z m-488 -22 c-3 -18 -11 -24 -32 -24 -21 0 -29 6
-32 24 -4 21 -1 26 21 28 39 5 48 -1 43 -28z m84 20 c-3 -9 -6 -22 -6 -30 0
-26 -54 -13 -58 13 -3 17 3 22 25 26 15 2 32 5 37 6 4 0 5 -6 2 -15z m124 -12
c0 -27 -2 -29 -50 -31 -47 -2 -50 -1 -50 23 0 21 5 25 38 29 20 2 43 4 50 5 7
1 12 -9 12 -26z m-290 -7 c0 -18 -5 -25 -20 -25 -15 0 -20 7 -20 25 0 18 5 25
20 25 15 0 20 -7 20 -25z m288 -200 c-2 -1 -26 -6 -54 -10 -49 -6 -52 -5 -56
19 -5 24 -3 25 51 28 48 3 56 0 59 -15 2 -10 2 -20 0 -22z m-295 15 c-3 -11
-12 -20 -19 -20 -8 0 -14 9 -14 20 0 13 7 20 19 20 14 0 18 -5 14 -20z m67 0
c0 -13 -7 -20 -20 -20 -19 0 -27 20 -13 33 13 14 33 6 33 -13z m92 -5 c-3 -20
-10 -25 -33 -25 -24 0 -29 4 -29 25 0 22 4 25 34 25 30 0 33 -2 28 -25z"/>
<path d="M487 373 c-4 -3 -5 -29 -2 -57 3 -28 7 -82 9 -119 4 -63 10 -86 20
-76 8 7 10 235 2 247 -8 13 -19 15 -29 5z"/>
<path d="M576 371 c-4 -5 -4 -24 -1 -42 3 -17 1 -37 -6 -45 -9 -11 -9 -29 1
-77 18 -91 19 -95 31 -77 14 23 9 227 -6 240 -9 7 -15 8 -19 1z"/>
</g>
</svg>
