<?xml version="1.0" standalone="no"?>
<!DOCTYPE svg PUBLIC "-//W3C//DTD SVG 20010904//EN"
 "http://www.w3.org/TR/2001/REC-SVG-20010904/DTD/svg10.dtd">
<svg version="1.0" xmlns="http://www.w3.org/2000/svg"
 width="75.000000pt" height="37.000000pt" viewBox="0 0 75.000000 37.000000"
 preserveAspectRatio="xMidYMid meet">
<metadata>
Created by potrace 1.16, written by Peter Selinger 2001-2019
</metadata>
<g transform="translate(0.000000,37.000000) scale(0.100000,-0.100000)"
fill="#000000" stroke="none">
<path d="M372 321 c-10 -6 -7 -12 13 -25 l27 -18 -33 -29 c-41 -34 -64 -36
-80 -8 -9 17 -7 25 13 47 l23 25 -32 -18 c-32 -19 -33 -19 -56 3 -22 21 -47
29 -47 16 0 -3 12 -16 27 -27 l26 -21 -34 -29 -34 -28 -35 40 c-32 37 -60 53
-60 34 0 -4 17 -25 38 -46 l37 -38 -27 -20 c-67 -49 -72 -55 -55 -62 11 -4 29
4 51 23 41 37 63 38 78 5 6 -14 14 -25 18 -25 3 0 21 -14 38 -31 39 -39 52
-34 17 6 l-24 29 32 28 c18 15 35 27 38 28 12 0 30 -28 27 -41 -2 -8 7 -15 19
-17 13 -2 32 -17 43 -33 12 -16 26 -29 31 -29 6 0 -1 15 -15 33 -15 19 -26 38
-26 44 0 14 57 66 68 62 5 -2 29 -27 54 -56 26 -28 49 -49 52 -46 3 3 -13 26
-34 52 l-40 46 70 9 c97 12 88 27 -12 20 l-83 -6 30 26 c17 14 38 28 48 31 9
4 17 13 17 21 0 20 -4 19 -56 -27 -46 -40 -47 -40 -61 -19 -8 11 -12 27 -9 35
3 10 -1 15 -13 15 -10 0 -24 7 -31 15 -14 17 -20 18 -38 6z m73 -81 c18 -20
17 -20 -25 -20 -42 0 -43 0 -25 20 10 11 21 20 25 20 4 0 15 -9 25 -20z m-160
-10 c4 -6 -7 -10 -25 -10 -18 0 -29 4 -25 10 3 6 15 10 25 10 10 0 22 -4 25
-10z m15 -34 c0 -3 -14 -14 -30 -26 -25 -18 -34 -19 -45 -10 -29 24 -19 30 53
38 12 1 22 0 22 -2z m112 -18 c-17 -18 -26 -20 -39 -12 -33 21 -26 34 18 34
l43 0 -22 -22z"/>
</g>
</svg>
