<?xml version="1.0" standalone="no"?>
<!DOCTYPE svg PUBLIC "-//W3C//DTD SVG 20010904//EN"
 "http://www.w3.org/TR/2001/REC-SVG-20010904/DTD/svg10.dtd">
<svg version="1.0" xmlns="http://www.w3.org/2000/svg"
 width="107.000000pt" height="48.000000pt" viewBox="0 0 107.000000 48.000000"
 preserveAspectRatio="xMidYMid meet">
<metadata>
Created by potrace 1.16, written by Peter Selinger 2001-2019
</metadata>
<g transform="translate(0.000000,48.000000) scale(0.100000,-0.100000)"
fill="#000000" stroke="none">
<path d="M170 393 c1 -18 96 -102 129 -115 24 -8 141 2 141 13 0 5 -30 9 -67
9 -38 0 -74 4 -82 9 -8 5 15 9 62 9 l75 0 32 -39 c31 -39 54 -52 44 -25 -3 9
4 15 23 18 27 4 29 2 25 -25 -4 -25 -8 -28 -31 -24 -16 3 -33 -1 -44 -11 -15
-13 -18 -14 -15 -2 2 8 7 18 13 22 19 13 -6 22 -27 9 -16 -10 -22 -10 -28 -1
-5 7 -36 13 -80 14 -71 1 -74 2 -119 43 -31 29 -49 39 -56 32 -11 -11 79 -98
103 -99 7 0 10 -4 7 -10 -3 -5 1 -10 10 -10 9 0 13 -4 10 -10 -11 -18 -30 -11
-73 26 -35 30 -45 34 -57 24 -12 -10 -13 -16 -4 -26 6 -8 16 -14 21 -14 5 0
33 -16 62 -35 29 -19 64 -35 78 -35 18 0 25 -5 24 -17 -2 -28 26 -19 89 28
l57 43 196 2 c166 1 193 -1 176 -12 -44 -31 -47 -35 -30 -52 15 -15 20 -12 62
36 37 42 49 50 60 41 22 -18 17 16 -14 90 -17 41 -33 65 -44 67 -31 4 -31 -15
1 -65 17 -26 31 -53 31 -59 0 -15 -33 -32 -63 -32 -20 0 -23 4 -19 29 3 21 11
31 28 35 59 15 0 24 -192 28 -231 5 -208 -2 -269 83 -20 27 -21 27 -38 10 -16
-15 -16 -19 -3 -34 13 -15 9 -16 -51 -15 -59 0 -70 4 -104 32 -43 37 -49 39
-49 15z m470 -143 c0 -26 -3 -30 -29 -30 -24 0 -29 5 -33 30 -4 28 -3 30 29
30 30 0 33 -3 33 -30z m96 0 c-1 -27 -4 -30 -32 -30 -28 0 -32 4 -36 30 -4 29
-3 30 32 30 35 0 37 -2 36 -30z m89 12 c-3 -8 -5 -22 -5 -31 0 -29 -47 -15
-58 18 -9 26 -8 26 29 26 29 0 38 -4 34 -13z m-427 -39 c-10 -2 -26 -2 -35 0
-10 3 -2 5 17 5 19 0 27 -2 18 -5z m40 -20 c-10 -2 -26 -2 -35 0 -10 3 -2 5
17 5 19 0 27 -2 18 -5z m-118 -33 c12 -8 11 -10 -7 -10 -13 0 -23 5 -23 10 0
13 11 13 30 0z m84 2 c2 -4 -5 -9 -17 -9 -17 -2 -19 0 -7 7 18 12 18 12 24 2z"/>
</g>
</svg>
