<?xml version="1.0" standalone="no"?>
<!DOCTYPE svg PUBLIC "-//W3C//DTD SVG 20010904//EN"
 "http://www.w3.org/TR/2001/REC-SVG-20010904/DTD/svg10.dtd">
<svg version="1.0" xmlns="http://www.w3.org/2000/svg"
 width="105.000000pt" height="69.000000pt" viewBox="0 0 105.000000 69.000000"
 preserveAspectRatio="xMidYMid meet">
<metadata>
Created by potrace 1.16, written by Peter Selinger 2001-2019
</metadata>
<g transform="translate(0.000000,69.000000) scale(0.100000,-0.100000)"
fill="#000000" stroke="none">
<path d="M147 623 c-3 -5 -8 -33 -12 -63 -3 -30 -14 -75 -23 -99 -15 -41 -15
-44 3 -57 11 -8 43 -14 77 -14 68 0 68 1 38 -109 -12 -41 -19 -84 -17 -95 4
-24 7 -17 27 54 41 150 42 150 111 150 33 0 39 -3 39 -22 0 -12 9 -49 20 -82
10 -34 30 -97 42 -140 23 -79 48 -112 48 -63 0 14 12 39 26 56 14 17 49 65 77
107 29 43 62 92 74 110 22 31 22 32 3 49 -18 16 -36 17 -200 11 -199 -7 -190
-11 -165 59 19 51 19 71 0 79 -17 6 -25 -10 -44 -90 l-12 -52 -49 21 c-27 11
-51 28 -53 38 -2 9 2 42 10 74 8 31 12 63 9 71 -6 15 -22 19 -29 7z m475 -240
c-27 -61 -125 -254 -131 -257 -4 -3 -16 39 -25 92 -10 53 -24 114 -31 134 -15
45 -17 45 102 47 86 2 92 1 85 -16z"/>
<path d="M835 580 c-3 -5 -15 -10 -27 -10 -14 0 -18 -5 -15 -15 11 -26 -11
-26 -31 1 -24 35 -51 24 -28 -11 14 -21 14 -23 -6 -28 -17 -5 -19 -9 -10 -20
8 -9 8 -17 1 -24 -23 -23 13 -25 37 -2 25 24 45 20 25 -5 -17 -20 3 -30 28
-14 11 6 22 21 25 31 2 10 9 16 15 12 16 -9 13 -35 -4 -35 -20 0 -19 -13 3
-33 24 -22 31 -21 25 3 -6 24 9 26 27 5 20 -25 32 -17 14 10 -9 13 -14 30 -12
36 2 7 14 -4 27 -24 29 -47 50 -49 22 -1 -25 42 -25 44 -6 44 8 0 22 -11 31
-25 29 -44 36 -27 9 20 -19 31 -24 51 -20 67 6 18 5 20 -5 11 -8 -7 -20 -9
-35 -3 -12 4 -28 4 -35 0 -8 -5 -18 -6 -22 -4 -4 3 -8 -2 -8 -11 0 -9 -5 -13
-10 -10 -6 4 -8 15 -5 26 7 20 0 26 -10 9z m85 -41 c0 -5 -4 -9 -10 -9 -5 0
-10 7 -10 16 0 8 5 12 10 9 6 -3 10 -10 10 -16z"/>
<path d="M38 3 c7 -3 16 -2 19 1 4 3 -2 6 -13 5 -11 0 -14 -3 -6 -6z"/>
</g>
</svg>
