<?xml version="1.0" standalone="no"?>
<!DOCTYPE svg PUBLIC "-//W3C//DTD SVG 20010904//EN"
 "http://www.w3.org/TR/2001/REC-SVG-20010904/DTD/svg10.dtd">
<svg version="1.0" xmlns="http://www.w3.org/2000/svg"
 width="107.000000pt" height="48.000000pt" viewBox="0 0 107.000000 48.000000"
 preserveAspectRatio="xMidYMid meet">
<metadata>
Created by potrace 1.16, written by Peter Selinger 2001-2019
</metadata>
<g transform="translate(0.000000,48.000000) scale(0.100000,-0.100000)"
fill="#000000" stroke="none">
<path d="M390 399 c-11 -8 -12 -12 -2 -16 7 -3 12 -22 12 -46 l0 -42 -120 3
c-90 2 -119 6 -114 15 5 8 3 8 -7 0 -7 -7 -23 -13 -35 -13 -33 0 -43 -44 -28
-119 7 -31 24 -43 24 -16 0 8 8 16 18 16 9 1 32 3 50 5 25 2 32 -1 32 -16 0
-10 5 -22 10 -25 6 -4 10 5 10 19 0 26 1 26 80 26 78 0 80 -1 81 -25 3 -50 3
-50 44 -47 40 3 221 46 345 81 l65 18 27 -61 c14 -33 32 -62 39 -65 13 -4 12
0 -17 82 -9 26 -15 49 -13 51 2 2 21 6 42 10 33 6 37 5 37 -13 0 -11 -8 -36
-17 -56 -9 -19 -14 -38 -10 -42 10 -10 15 -2 41 65 18 45 21 64 13 70 -17 14
-140 46 -292 76 -128 26 -255 57 -285 69 -8 4 -22 2 -30 -4z m72 -133 c-3 -62
0 -96 7 -100 8 -5 11 17 12 71 1 43 1 83 0 90 -1 6 3 14 8 18 15 8 141 -17
135 -27 -10 -15 -6 -100 4 -110 6 -6 12 12 17 51 6 55 9 60 28 56 12 -2 58
-11 102 -19 44 -9 100 -22 125 -29 l45 -13 -65 -13 c-36 -6 -99 -21 -140 -32
-41 -12 -82 -22 -90 -24 -149 -28 -210 -38 -214 -34 -5 4 -8 94 -7 167 1 34 5
42 19 42 17 0 18 -8 14 -94z m-189 -13 c-2 -40 -3 -43 -18 -43 -9 0 -15 9 -15
24 0 14 -4 28 -10 31 -6 4 -10 -7 -10 -24 0 -17 -4 -31 -10 -31 -5 0 -10 8
-10 19 0 10 -7 24 -15 31 -12 10 -16 9 -21 -4 -3 -9 -4 -23 0 -31 4 -10 -1
-15 -14 -15 -15 0 -20 7 -20 28 0 16 3 32 7 36 4 4 36 6 72 4 61 -3 65 -5 64
-25z m127 -8 c0 -30 -3 -35 -24 -35 -13 0 -24 6 -23 13 1 32 -4 48 -13 42 -5
-3 -10 -17 -10 -31 0 -15 -6 -24 -15 -24 -8 0 -15 9 -15 19 0 11 -3 26 -6 35
-5 13 3 16 50 16 l56 0 0 -35z"/>
<path d="M540 265 c0 -37 4 -65 10 -65 6 0 10 28 10 65 0 37 -4 65 -10 65 -6
0 -10 -28 -10 -65z"/>
<path d="M697 283 c-2 -5 0 -21 4 -38 5 -22 7 -25 8 -8 0 12 4 28 7 37 6 16
-11 23 -19 9z"/>
<path d="M760 259 c0 -17 4 -28 10 -24 6 3 10 17 10 31 0 13 -4 24 -10 24 -5
0 -10 -14 -10 -31z"/>
</g>
</svg>
