<?xml version="1.0" standalone="no"?>
<!DOCTYPE svg PUBLIC "-//W3C//DTD SVG 20010904//EN"
 "http://www.w3.org/TR/2001/REC-SVG-20010904/DTD/svg10.dtd">
<svg version="1.0" xmlns="http://www.w3.org/2000/svg"
 width="107.000000pt" height="53.000000pt" viewBox="0 0 107.000000 53.000000"
 preserveAspectRatio="xMidYMid meet">
<metadata>
Created by potrace 1.16, written by Peter Selinger 2001-2019
</metadata>
<g transform="translate(0.000000,53.000000) scale(0.100000,-0.100000)"
fill="#000000" stroke="none">
<path d="M448 442 c-13 -15 -43 -60 -66 -99 -24 -40 -51 -78 -59 -85 -9 -8
-54 -15 -107 -18 -83 -5 -91 -7 -91 -25 0 -17 6 -20 45 -19 25 0 85 6 135 13
97 14 328 17 543 5 l132 -6 0 -46 c0 -99 32 10 34 118 1 29 7 28 -223 6 -144
-14 -138 -17 -190 80 -46 85 -56 96 -95 100 -28 4 -38 -1 -58 -24z m99 -46
c21 -25 48 -62 60 -84 19 -34 20 -41 7 -46 -11 -4 -19 5 -30 32 -23 60 -29 66
-61 68 -26 1 -32 -5 -58 -53 -32 -61 -39 -66 -85 -61 l-32 3 68 93 c37 50 73
92 80 92 7 0 30 -20 51 -44z m23 -127 c0 -8 -100 -22 -107 -15 -3 3 10 25 28
51 l33 46 23 -38 c13 -21 23 -41 23 -44z m403 -11 c4 -12 4 -24 2 -26 -2 -3
-89 -1 -192 3 -207 9 -205 19 5 29 69 4 128 9 131 11 14 14 49 3 54 -17z"/>
</g>
</svg>
