<?xml version="1.0" standalone="no"?>
<!DOCTYPE svg PUBLIC "-//W3C//DTD SVG 20010904//EN"
 "http://www.w3.org/TR/2001/REC-SVG-20010904/DTD/svg10.dtd">
<svg version="1.0" xmlns="http://www.w3.org/2000/svg"
 width="92.000000pt" height="70.000000pt" viewBox="0 0 92.000000 70.000000"
 preserveAspectRatio="xMidYMid meet">
<metadata>
Created by potrace 1.16, written by Peter Selinger 2001-2019
</metadata>
<g transform="translate(0.000000,70.000000) scale(0.100000,-0.100000)"
fill="#000000" stroke="none">
<path d="M161 562 l-23 -4 7 -151 c6 -148 16 -191 32 -151 5 12 19 20 38 21
17 1 60 4 98 6 60 4 67 2 67 -15 0 -10 5 -18 10 -18 6 0 10 9 10 19 0 24 4 26
53 35 37 7 37 7 37 -27 0 -22 -6 -37 -15 -41 -21 -8 -19 -50 4 -70 26 -24 72
-27 160 -10 79 15 188 51 197 65 8 14 -11 11 -66 -11 -28 -11 -53 -20 -55 -20
-3 0 -5 31 -5 69 0 62 2 69 23 76 19 6 19 8 5 12 -12 3 -18 14 -18 33 0 19 6
30 18 33 15 4 15 5 -2 6 -12 1 -16 6 -12 17 3 9 6 18 6 20 0 3 12 10 28 16
l27 12 -28 4 c-22 3 -26 7 -23 27 9 47 -7 50 -288 50 -144 0 -272 -2 -285 -3z
m207 -36 c7 -4 12 -18 12 -31 0 -24 -2 -24 -97 -27 -68 -2 -98 -7 -101 -16 -3
-10 16 -12 97 -6 l101 7 0 -32 0 -31 -70 -1 c-38 -1 -83 -2 -99 -3 -26 -1 -30
3 -33 29 -2 17 -2 51 0 76 l4 46 87 -2 c48 -1 93 -5 99 -9z m322 -10 c0 -22
-4 -23 -92 -30 -120 -8 -188 -8 -188 2 0 4 3 17 6 30 6 21 10 22 140 22 134 0
134 0 134 -24z m0 -71 c0 -14 -6 -25 -12 -25 -7 0 -51 -4 -98 -9 -169 -19
-175 -19 -176 6 -2 35 15 42 106 46 47 1 106 4 133 5 44 2 47 0 47 -23z m-5
-69 c0 -22 -20 -29 -107 -39 -53 -7 -56 -6 -51 14 5 17 2 20 -18 17 -16 -2
-24 -10 -24 -23 0 -16 -8 -21 -42 -23 -40 -3 -43 -1 -43 22 0 22 5 25 68 35
77 12 144 18 187 17 23 -1 30 -6 30 -20z m-305 -36 l0 -30 -67 -1 c-38 -1 -84
-3 -104 -4 -33 -3 -36 -2 -31 21 2 13 7 24 11 24 46 4 117 13 120 16 2 2 19 4
38 4 30 0 33 -3 33 -30z m301 -42 c2 -64 -3 -103 -14 -110 -14 -9 -103 -10
-134 -2 -19 5 -23 13 -23 49 0 66 6 75 54 75 22 0 48 5 56 10 8 5 25 10 38 10
18 0 22 -6 23 -32z"/>
</g>
</svg>
