<?xml version="1.0" standalone="no"?>
<!DOCTYPE svg PUBLIC "-//W3C//DTD SVG 20010904//EN"
 "http://www.w3.org/TR/2001/REC-SVG-20010904/DTD/svg10.dtd">
<svg version="1.0" xmlns="http://www.w3.org/2000/svg"
 width="105.000000pt" height="58.000000pt" viewBox="0 0 105.000000 58.000000"
 preserveAspectRatio="xMidYMid meet">
<metadata>
Created by potrace 1.16, written by Peter Selinger 2001-2019
</metadata>
<g transform="translate(0.000000,58.000000) scale(0.100000,-0.100000)"
fill="#000000" stroke="none">
<path d="M450 521 c-5 -11 -10 -42 -10 -70 l0 -50 -167 5 c-93 3 -178 7 -189
9 -21 5 -40 -16 -27 -29 4 -3 91 -6 195 -6 l188 0 -2 -39 -1 -40 -71 -3 c-103
-4 -116 -1 -116 28 0 14 -4 22 -10 19 -5 -3 -10 -16 -10 -28 0 -21 -4 -22 -79
-21 -43 1 -83 4 -88 7 -9 5 -10 -23 -5 -136 3 -57 18 -36 26 34 3 34 7 63 9
65 1 1 32 5 70 9 l67 7 0 -31 c0 -17 5 -31 10 -31 6 0 10 14 10 30 0 28 2 30
41 30 l41 0 -6 -37 c-3 -21 -5 -39 -6 -40 0 -2 -34 -3 -75 -3 l-75 0 0 36 c0
21 -4 33 -10 29 -5 -3 -10 -19 -10 -36 0 -25 -4 -29 -26 -29 -16 0 -24 -5 -21
-12 4 -14 59 -15 292 -8 102 3 185 14 150 20 -5 1 -14 3 -20 5 -5 1 -22 3 -36
3 -28 2 -43 30 -32 58 7 19 53 18 53 -1 0 -8 5 -15 10 -15 6 0 10 20 10 45 0
25 -4 45 -10 45 -5 0 -10 -9 -10 -20 0 -15 -7 -20 -25 -20 -22 0 -25 4 -25 38
l0 38 63 -4 c34 -3 65 -9 69 -15 4 -6 5 -44 2 -83 -3 -45 -1 -75 5 -79 9 -5
60 43 83 79 10 14 14 7 22 -35 l6 -36 -87 -27 c-49 -15 -98 -32 -111 -37 -13
-5 -31 -9 -41 -9 -10 0 -24 -7 -31 -15 -10 -12 -9 -16 4 -21 17 -6 41 1 136
44 30 13 74 30 96 37 l41 12 13 -68 c18 -102 26 -101 75 11 39 89 53 106 105
126 43 16 80 41 80 53 0 3 -15 12 -32 20 -18 7 -61 27 -96 42 -35 16 -66 29
-69 29 -2 0 -72 32 -154 70 -83 39 -156 70 -164 70 -8 0 -19 -9 -25 -19z m225
-88 c22 -11 51 -24 65 -28 14 -4 68 -28 120 -52 l95 -45 -24 -19 c-30 -24 -51
-24 -51 0 0 37 -21 33 -36 -7 -13 -32 -23 -42 -54 -51 -20 -6 -42 -11 -48 -11
-9 0 -20 38 -24 80 -2 28 -79 130 -97 130 -4 0 -13 -11 -19 -25 -10 -22 -15
-23 -37 -15 -15 6 -44 10 -66 10 -21 0 -39 5 -39 10 0 6 5 10 11 10 5 0 7 4 4
10 -3 5 -3 25 0 43 l7 34 76 -27 c42 -14 95 -35 117 -47z m-1 -121 l-7 -27 -6
30 c-9 45 -26 27 -26 -27 0 -26 -6 -53 -14 -60 -11 -11 -12 -6 -8 27 3 22 9
62 12 89 l7 49 25 -27 c20 -22 23 -33 17 -54z m-244 -61 c0 -35 -15 -48 -55
-49 -29 -1 -30 2 -30 39 l0 39 42 0 c41 0 43 -2 43 -29z m364 -93 c-13 -34
-24 -64 -24 -67 -1 -17 -19 30 -25 65 -6 39 -5 42 22 52 51 19 53 15 27 -50z"/>
</g>
</svg>
