<?xml version="1.0" standalone="no"?>
<!DOCTYPE svg PUBLIC "-//W3C//DTD SVG 20010904//EN"
 "http://www.w3.org/TR/2001/REC-SVG-20010904/DTD/svg10.dtd">
<svg version="1.0" xmlns="http://www.w3.org/2000/svg"
 width="52.000000pt" height="44.000000pt" viewBox="0 0 52.000000 44.000000"
 preserveAspectRatio="xMidYMid meet">
<metadata>
Created by potrace 1.16, written by Peter Selinger 2001-2019
</metadata>
<g transform="translate(0.000000,44.000000) scale(0.100000,-0.100000)"
fill="#000000" stroke="none">
<path d="M190 341 c0 -5 25 -24 55 -41 75 -43 88 -57 80 -89 -8 -31 -59 -87
-100 -108 -17 -9 -25 -18 -17 -20 18 -7 91 39 135 85 53 54 50 90 -9 112 -22
8 -59 27 -82 43 -43 28 -62 34 -62 18z"/>
<path d="M157 323 c-9 -14 -3 -218 6 -218 5 0 11 41 14 90 2 50 5 99 6 109 2
20 -17 33 -26 19z"/>
</g>
</svg>
