<?xml version="1.0" standalone="no"?>
<!DOCTYPE svg PUBLIC "-//W3C//DTD SVG 20010904//EN"
 "http://www.w3.org/TR/2001/REC-SVG-20010904/DTD/svg10.dtd">
<svg version="1.0" xmlns="http://www.w3.org/2000/svg"
 width="113.000000pt" height="48.000000pt" viewBox="0 0 113.000000 48.000000"
 preserveAspectRatio="xMidYMid meet">
<metadata>
Created by potrace 1.16, written by Peter Selinger 2001-2019
</metadata>
<g transform="translate(0.000000,48.000000) scale(0.100000,-0.100000)"
fill="#000000" stroke="none">
<path d="M160 460 c0 -6 -22 -26 -49 -46 l-50 -35 20 -34 c11 -19 58 -65 103
-104 46 -38 103 -92 127 -121 39 -46 47 -51 74 -46 16 4 43 20 60 36 36 35 43
36 61 13 7 -10 16 -15 20 -11 4 4 1 14 -6 23 -7 8 -9 22 -6 31 6 15 10 14 33
-7 23 -21 25 -22 18 -4 -17 46 -16 52 19 78 19 15 42 27 51 27 20 0 67 -35 58
-43 -3 -3 -3 -13 1 -22 4 -13 9 -13 25 -3 16 10 27 5 81 -40 34 -29 66 -52 71
-52 10 0 129 115 129 125 0 4 -6 2 -14 -5 -12 -9 -34 5 -118 78 -57 50 -119
106 -137 126 -19 20 -40 36 -47 36 -7 0 -43 -24 -80 -53 -38 -29 -105 -75
-148 -102 l-79 -49 -104 107 c-57 59 -105 107 -108 107 -3 0 -5 -5 -5 -10z
m550 -71 c3 -3 32 -26 65 -50 89 -65 174 -133 174 -140 1 -6 -83 -69 -92 -69
-2 0 -15 9 -28 21 -13 12 -37 32 -53 46 -29 24 -29 25 -12 54 18 30 8 40 -14
14 -18 -21 -33 -19 -60 10 -23 24 -23 25 -5 45 16 17 16 20 2 20 -8 0 -24 -10
-34 -23 -10 -12 -42 -40 -72 -61 l-53 -39 -19 24 c-14 19 -21 21 -30 12 -10
-10 -9 -17 6 -33 23 -26 11 -39 -15 -15 -19 18 -50 15 -50 -5 0 -6 7 -13 15
-16 23 -9 19 -18 -26 -54 l-41 -33 -64 64 c-35 35 -64 67 -64 71 0 4 15 14 33
22 27 12 29 15 14 21 -10 4 -29 2 -42 -5 -13 -7 -32 -9 -42 -5 -17 6 -16 8 4
22 22 15 32 43 15 43 -4 0 -18 -7 -31 -16 -22 -16 -24 -15 -55 15 -18 17 -36
28 -40 24 -5 -5 -3 1 4 12 6 11 23 28 36 38 29 21 28 22 133 -73 96 -85 132
-111 145 -103 6 3 25 19 41 34 17 16 70 60 120 98 86 68 90 70 110 53 11 -9
22 -20 25 -23z"/>
</g>
</svg>
