<?xml version="1.0" standalone="no"?>
<!DOCTYPE svg PUBLIC "-//W3C//DTD SVG 20010904//EN"
 "http://www.w3.org/TR/2001/REC-SVG-20010904/DTD/svg10.dtd">
<svg version="1.0" xmlns="http://www.w3.org/2000/svg"
 width="65.000000pt" height="60.000000pt" viewBox="0 0 65.000000 60.000000"
 preserveAspectRatio="xMidYMid meet">
<metadata>
Created by potrace 1.16, written by Peter Selinger 2001-2019
</metadata>
<g transform="translate(0.000000,60.000000) scale(0.100000,-0.100000)"
fill="#000000" stroke="none">
<path d="M276 517 c-23 -23 -56 -110 -56 -149 0 -16 -9 -18 -64 -18 -36 0 -68
-5 -72 -11 -13 -21 16 -33 81 -31 l65 2 0 -28 c0 -79 63 -192 106 -192 29 0
44 29 71 139 l18 69 63 5 c71 5 81 11 66 35 -8 12 -28 18 -72 20 l-61 3 -11
54 c-23 108 -82 154 -134 102z m70 -52 c9 -13 18 -42 21 -65 l6 -40 -52 0
c-28 0 -51 3 -51 8 1 23 23 98 32 109 15 19 26 16 44 -12z m41 -121 c-3 -3
-12 -4 -19 -1 -8 3 -5 6 6 6 11 1 17 -2 13 -5z m-12 -71 c-4 -21 -13 -55 -22
-75 -13 -31 -19 -36 -31 -26 -16 14 -29 44 -41 99 l-9 39 55 0 54 0 -6 -37z"/>
</g>
</svg>
