<?xml version="1.0" standalone="no"?>
<!DOCTYPE svg PUBLIC "-//W3C//DTD SVG 20010904//EN"
 "http://www.w3.org/TR/2001/REC-SVG-20010904/DTD/svg10.dtd">
<svg version="1.0" xmlns="http://www.w3.org/2000/svg"
 width="56.000000pt" height="56.000000pt" viewBox="0 0 56.000000 56.000000"
 preserveAspectRatio="xMidYMid meet">
<metadata>
Created by potrace 1.16, written by Peter Selinger 2001-2019
</metadata>
<g transform="translate(0.000000,56.000000) scale(0.100000,-0.100000)"
fill="#000000" stroke="none">
<path d="M104 456 c-3 -8 0 -27 8 -43 19 -40 78 -54 199 -46 91 5 98 4 108
-15 12 -23 14 -81 5 -159 l-7 -53 -42 0 c-57 0 -119 26 -111 46 3 9 6 16 6 17
0 1 20 1 45 -1 58 -5 102 5 88 19 -6 6 -38 9 -72 7 l-61 -3 1 53 c2 51 -12 84
-28 68 -11 -11 -5 -208 7 -220 15 -15 160 -10 177 6 13 14 32 129 33 201 0 23
-7 44 -18 55 -17 17 -25 18 -91 7 -39 -7 -86 -9 -104 -5 -50 11 -99 40 -104
61 -6 22 -31 25 -39 5z"/>
<path d="M302 268 c5 -15 108 -24 108 -10 0 14 -26 22 -72 22 -27 0 -38 -4
-36 -12z"/>
</g>
</svg>
