<?xml version="1.0" standalone="no"?>
<!DOCTYPE svg PUBLIC "-//W3C//DTD SVG 20010904//EN"
 "http://www.w3.org/TR/2001/REC-SVG-20010904/DTD/svg10.dtd">
<svg version="1.0" xmlns="http://www.w3.org/2000/svg"
 width="86.000000pt" height="44.000000pt" viewBox="0 0 86.000000 44.000000"
 preserveAspectRatio="xMidYMid meet">
<metadata>
Created by potrace 1.16, written by Peter Selinger 2001-2019
</metadata>
<g transform="translate(0.000000,44.000000) scale(0.100000,-0.100000)"
fill="#000000" stroke="none">
<path d="M500 339 c-91 -10 -208 -21 -260 -24 -52 -4 -101 -8 -108 -10 -16 -6
-11 -75 5 -75 7 0 10 -7 6 -16 -5 -14 1 -15 48 -9 64 8 58 -4 -16 -30 -63 -23
-70 -29 -50 -45 14 -11 25 -8 78 19 34 18 68 41 76 50 12 14 12 13 6 -7 -9
-31 19 -62 56 -62 77 0 180 44 342 147 62 39 66 45 55 63 -15 24 -15 24 -238
-1z m229 -4 c-13 -12 -190 -115 -233 -134 -46 -22 -147 -33 -162 -19 -3 4 -7
18 -8 32 0 15 -7 26 -16 27 -8 1 -5 4 8 7 38 11 24 27 -21 25 -96 -4 87 27
245 42 89 8 164 17 166 20 3 3 10 5 15 5 6 0 8 -2 6 -5z"/>
</g>
</svg>
