<?xml version="1.0" standalone="no"?>
<!DOCTYPE svg PUBLIC "-//W3C//DTD SVG 20010904//EN"
 "http://www.w3.org/TR/2001/REC-SVG-20010904/DTD/svg10.dtd">
<svg version="1.0" xmlns="http://www.w3.org/2000/svg"
 width="127.000000pt" height="79.000000pt" viewBox="0 0 127.000000 79.000000"
 preserveAspectRatio="xMidYMid meet">
<metadata>
Created by potrace 1.16, written by Peter Selinger 2001-2019
</metadata>
<g transform="translate(0.000000,79.000000) scale(0.100000,-0.100000)"
fill="#000000" stroke="none">
<path d="M287 714 c-12 -13 -8 -18 63 -91 39 -40 70 -74 70 -78 0 -3 -12 -32
-26 -64 -29 -65 -27 -64 -209 -97 -98 -17 -115 -25 -96 -48 10 -12 20 -12 69
-1 31 8 89 25 129 38 52 18 70 21 66 11 -3 -8 0 -14 5 -14 6 0 13 8 17 19 4
12 29 25 81 40 88 26 95 40 8 17 -32 -8 -59 -14 -61 -13 -1 2 8 22 19 45 l22
42 23 -22 c29 -27 30 -12 2 18 -19 21 -20 24 -6 44 9 12 13 29 10 36 -8 21
-33 17 -33 -6 0 -33 -13 -23 -65 53 -48 68 -72 87 -88 71z"/>
<path d="M1055 699 c-83 -15 -288 -46 -512 -76 -47 -6 -66 -21 -54 -42 7 -10
21 -10 72 -1 35 6 91 16 124 21 85 15 193 36 319 65 60 13 112 22 114 19 8 -8
20 -102 21 -158 2 -116 26 4 35 177 1 15 -13 14 -119 -5z"/>
<path d="M954 608 c-4 -6 -8 -30 -8 -52 -1 -35 -5 -42 -23 -44 -21 -3 -23 1
-23 37 0 31 -4 41 -16 41 -14 0 -16 -8 -12 -44 5 -42 4 -44 -25 -50 -46 -9
-47 -9 -47 34 0 30 -4 40 -16 40 -14 0 -15 -7 -10 -40 7 -47 9 -46 -93 -63
-40 -7 -72 -16 -72 -22 0 -5 -7 -17 -15 -26 -12 -14 -8 -26 36 -99 27 -46 50
-87 50 -91 0 -10 -109 -119 -119 -119 -8 0 -49 66 -98 156 -62 116 -66 120
-90 103 -21 -14 -20 -16 29 -74 27 -33 70 -90 95 -128 45 -65 46 -68 28 -87
-10 -11 -16 -20 -13 -20 4 0 53 27 111 60 l106 61 -32 62 c-36 68 -72 165 -65
173 6 6 115 34 132 34 7 0 18 -10 24 -22 11 -23 11 -23 11 3 1 19 8 28 24 33
37 10 57 7 57 -9 0 -8 5 -15 10 -15 6 0 10 9 10 20 0 13 10 24 26 30 33 13 34
13 34 -5 0 -8 5 -15 10 -15 6 0 10 8 10 19 0 14 13 21 59 31 61 13 89 25 80
35 -3 3 -23 -1 -45 -8 -21 -8 -51 -17 -66 -21 -27 -6 -28 -5 -28 38 0 45 -12
66 -26 44z"/>
</g>
</svg>
