<?xml version="1.0" standalone="no"?>
<!DOCTYPE svg PUBLIC "-//W3C//DTD SVG 20010904//EN"
 "http://www.w3.org/TR/2001/REC-SVG-20010904/DTD/svg10.dtd">
<svg version="1.0" xmlns="http://www.w3.org/2000/svg"
 width="64.000000pt" height="66.000000pt" viewBox="0 0 64.000000 66.000000"
 preserveAspectRatio="xMidYMid meet">
<metadata>
Created by potrace 1.16, written by Peter Selinger 2001-2019
</metadata>
<g transform="translate(0.000000,66.000000) scale(0.100000,-0.100000)"
fill="#000000" stroke="none">
<path d="M106 594 c-12 -32 -6 -63 15 -75 14 -7 74 -10 173 -8 83 2 157 0 164
-4 18 -12 15 -73 -9 -172 -32 -135 -15 -133 34 5 8 25 25 69 36 98 l21 53 -24
24 c-23 23 -28 24 -173 22 -160 -2 -175 2 -194 50 -10 26 -34 30 -43 7z"/>
<path d="M263 353 c-7 -78 -8 -124 -1 -139 14 -29 76 -48 136 -41 46 5 122 40
122 56 0 4 -36 1 -79 -7 -74 -15 -83 -14 -119 2 l-40 18 5 62 c3 33 11 82 18
108 13 51 11 58 -15 58 -13 0 -18 -20 -27 -117z"/>
</g>
</svg>
