<?xml version="1.0" standalone="no"?>
<!DOCTYPE svg PUBLIC "-//W3C//DTD SVG 20010904//EN"
 "http://www.w3.org/TR/2001/REC-SVG-20010904/DTD/svg10.dtd">
<svg version="1.0" xmlns="http://www.w3.org/2000/svg"
 width="77.000000pt" height="72.000000pt" viewBox="0 0 77.000000 72.000000"
 preserveAspectRatio="xMidYMid meet">
<metadata>
Created by potrace 1.16, written by Peter Selinger 2001-2019
</metadata>
<g transform="translate(0.000000,72.000000) scale(0.100000,-0.100000)"
fill="#000000" stroke="none">
<path d="M361 536 c-26 -50 -51 -86 -62 -89 -28 -7 -34 -34 -17 -70 21 -43
109 -147 125 -147 7 0 22 11 34 24 14 16 28 22 47 19 24 -4 25 -3 10 9 -15 13
-14 18 18 57 19 24 34 50 34 57 0 18 -28 44 -49 44 -10 0 -35 13 -57 30 -21
16 -45 30 -51 30 -28 0 -10 -22 45 -58 31 -21 58 -45 60 -54 4 -23 -26 -80
-38 -73 -6 4 -10 -2 -10 -12 0 -11 -8 -28 -17 -40 -17 -20 -17 -20 -50 15 -18
19 -40 57 -48 84 -13 46 -13 53 4 86 11 21 38 62 60 92 42 54 46 73 20 78 -9
1 -31 -30 -58 -82z"/>
<path d="M431 304 c0 -11 3 -14 6 -6 3 7 2 16 -1 19 -3 4 -6 -2 -5 -13z"/>
<path d="M386 293 c-6 -14 -5 -15 5 -6 7 7 10 15 7 18 -3 3 -9 -2 -12 -12z"/>
<path d="M530 249 c0 -5 5 -7 10 -4 6 3 10 8 10 11 0 2 -4 4 -10 4 -5 0 -10
-5 -10 -11z"/>
<path d="M485 240 c-3 -5 -1 -10 4 -10 6 0 11 5 11 10 0 6 -2 10 -4 10 -3 0
-8 -4 -11 -10z"/>
<path d="M314 214 c-19 -15 -18 -15 3 -11 12 3 24 0 27 -7 2 -6 3 -1 3 12 -1
26 -7 27 -33 6z"/>
<path d="M441 229 c-1 -4 6 -20 14 -35 18 -35 19 -57 3 -51 -7 2 -12 14 -11
26 3 19 -1 22 -24 19 -14 -2 -28 -9 -31 -17 -3 -10 2 -11 18 -6 20 6 22 4 18
-13 -4 -16 -2 -19 10 -15 11 5 14 2 9 -10 -3 -9 -3 -17 1 -17 13 0 39 35 34
48 -7 22 18 12 27 -10 5 -13 10 -17 15 -10 3 6 2 13 -4 17 -6 4 -8 11 -4 16 7
12 -25 38 -48 39 -9 0 -19 6 -21 13 -3 6 -6 9 -6 6z"/>
<path d="M380 200 c-13 -11 -19 -20 -13 -20 5 0 18 9 28 20 10 11 16 20 13 20
-3 0 -15 -9 -28 -20z"/>
<path d="M520 216 c0 -2 7 -7 16 -10 8 -3 12 -2 9 4 -6 10 -25 14 -25 6z"/>
<path d="M258 193 c7 -3 16 -2 19 1 4 3 -2 6 -13 5 -11 0 -14 -3 -6 -6z"/>
<path d="M307 170 c9 -9 9 -17 3 -26 -16 -18 64 -36 87 -19 10 7 15 17 10 21
-4 4 -12 3 -18 -3 -6 -6 -18 -9 -25 -6 -12 4 -12 8 -2 21 11 13 10 15 -8 10
-12 -3 -30 -1 -40 5 -15 8 -17 7 -7 -3z"/>
</g>
</svg>
