<?xml version="1.0" standalone="no"?>
<!DOCTYPE svg PUBLIC "-//W3C//DTD SVG 20010904//EN"
 "http://www.w3.org/TR/2001/REC-SVG-20010904/DTD/svg10.dtd">
<svg version="1.0" xmlns="http://www.w3.org/2000/svg"
 width="64.000000pt" height="54.000000pt" viewBox="0 0 64.000000 54.000000"
 preserveAspectRatio="xMidYMid meet">
<metadata>
Created by potrace 1.16, written by Peter Selinger 2001-2019
</metadata>
<g transform="translate(0.000000,54.000000) scale(0.100000,-0.100000)"
fill="#000000" stroke="none">
<path d="M317 483 c-15 -14 -4 -24 61 -57 114 -57 131 -67 136 -75 5 -8 -76
-155 -98 -178 -8 -9 -11 17 -13 103 -1 112 -5 135 -20 120 -9 -9 -11 -191 -3
-231 5 -23 1 -38 -17 -62 -13 -17 -19 -34 -14 -38 5 -3 22 13 38 36 15 23 48
65 73 93 25 28 60 68 78 89 35 41 43 87 16 87 -10 0 -61 27 -114 60 -97 60
-111 66 -123 53z"/>
<path d="M262 463 c-5 -10 -14 -43 -21 -74 -11 -51 -10 -63 9 -115 11 -32 20
-60 20 -63 0 -2 -24 -1 -53 2 -62 6 -87 -3 -68 -26 9 -11 26 -14 71 -10 l59 6
17 -62 c10 -33 21 -61 26 -61 12 0 10 20 -7 76 -8 27 -15 50 -15 52 0 1 9 2
20 2 11 0 20 5 20 10 0 6 -11 10 -24 10 -19 0 -27 8 -36 34 -14 44 -16 141 -3
189 11 39 0 60 -15 30z"/>
<path d="M23 3 c15 -2 37 -2 50 0 12 2 0 4 -28 4 -27 0 -38 -2 -22 -4z"/>
</g>
</svg>
