<?xml version="1.0" standalone="no"?>
<!DOCTYPE svg PUBLIC "-//W3C//DTD SVG 20010904//EN"
 "http://www.w3.org/TR/2001/REC-SVG-20010904/DTD/svg10.dtd">
<svg version="1.0" xmlns="http://www.w3.org/2000/svg"
 width="73.000000pt" height="185.000000pt" viewBox="0 0 73.000000 185.000000"
 preserveAspectRatio="xMidYMid meet">
<metadata>
Created by potrace 1.16, written by Peter Selinger 2001-2019
</metadata>
<g transform="translate(0.000000,185.000000) scale(0.100000,-0.100000)"
fill="#000000" stroke="none">
<path d="M205 1745 c-7 -11 -15 -59 -18 -108 l-5 -87 54 -26 c44 -21 68 -25
138 -25 47 0 94 5 104 10 16 8 22 30 32 122 6 61 8 115 3 119 -4 5 -73 10
-152 12 -135 3 -145 2 -156 -17z m121 -34 c1 -27 -2 -29 -42 -33 -58 -4 -64
-1 -64 32 0 26 2 27 53 29 51 1 52 0 53 -28z m40 13 c-3 -9 -6 -25 -6 -37 0
-18 -2 -19 -10 -7 -16 24 -12 60 6 60 11 0 14 -5 10 -16z m44 -14 c0 -20 -5
-30 -15 -30 -10 0 -15 10 -15 30 0 20 5 30 15 30 10 0 15 -10 15 -30z m68 3
c-2 -22 -9 -29 -30 -31 -21 -3 -26 1 -23 15 2 10 4 24 4 31 1 6 13 12 27 12
22 0 25 -4 22 -27z m2 -53 c0 -5 -15 -9 -32 -9 l-33 1 30 8 c17 4 31 8 33 9 1
0 2 -3 2 -9z m-151 -4 c-9 -9 -75 -13 -94 -5 -13 5 0 8 39 8 33 1 57 -1 55 -3z
m31 -6 c0 -5 -2 -10 -4 -10 -3 0 -8 5 -11 10 -3 6 -1 10 4 10 6 0 11 -4 11
-10z m45 0 c-3 -5 -10 -10 -16 -10 -5 0 -9 5 -9 10 0 6 7 10 16 10 8 0 12 -4
9 -10z m-79 -33 c4 -4 -21 -7 -55 -7 -34 0 -60 4 -57 8 6 10 103 9 112 -1z
m74 3 c0 -5 -4 -10 -10 -10 -5 0 -10 5 -10 10 0 6 5 10 10 10 6 0 10 -4 10
-10z m80 0 c0 -5 -13 -10 -30 -10 -16 0 -30 5 -30 10 0 6 14 10 30 10 17 0 30
-4 30 -10z m0 -60 c0 -39 -1 -40 -35 -40 -32 0 -34 2 -31 29 4 40 14 51 42 51
21 0 24 -4 24 -40z m-150 5 c0 -14 -7 -28 -15 -31 -15 -6 -95 34 -95 48 0 4
25 8 55 8 52 0 55 -1 55 -25z m30 -10 c0 -19 -4 -35 -10 -35 -5 0 -8 10 -6 23
3 12 5 28 5 35 2 28 11 9 11 -23z m39 18 c0 -10 -4 -27 -9 -38 -7 -16 -9 -13
-9 18 -1 20 4 37 9 37 6 0 10 -8 9 -17z"/>
<path d="M205 1322 c-49 -2 -92 -7 -95 -13 -12 -18 -12 -221 0 -214 5 3 10 15
10 25 0 18 10 19 230 19 222 0 230 -1 230 -19 0 -75 49 86 53 175 l2 30 -170
0 c-94 0 -210 -1 -260 -3z m239 -18 c23 -9 20 -24 -4 -24 -11 0 -20 7 -20 15
0 17 2 18 24 9z m84 -12 c2 -7 -7 -12 -22 -12 -24 0 -33 10 -20 22 9 10 38 2
42 -10z m72 -1 c0 -14 -6 -17 -25 -13 -14 2 -25 11 -25 18 0 8 10 14 25 14 18
0 25 -5 25 -19z m-420 -1 c0 -5 -7 -10 -15 -10 -8 0 -15 5 -15 10 0 6 7 10 15
10 8 0 15 -4 15 -10z m50 0 c0 -5 -7 -10 -15 -10 -8 0 -15 5 -15 10 0 6 7 10
15 10 8 0 15 -4 15 -10z m50 0 c0 -5 -7 -10 -15 -10 -8 0 -15 5 -15 10 0 6 7
10 15 10 8 0 15 -4 15 -10z m60 0 c0 -5 -9 -10 -20 -10 -11 0 -20 5 -20 10 0
6 9 10 20 10 11 0 20 -4 20 -10z m60 0 c0 -5 -7 -10 -15 -10 -8 0 -15 5 -15
10 0 6 7 10 15 10 8 0 15 -4 15 -10z m54 -29 c3 -5 -3 -11 -14 -14 -20 -5 -26
3 -13 16 9 10 21 9 27 -2z m-274 -11 c0 -5 -9 -10 -20 -10 -11 0 -20 5 -20 10
0 6 9 10 20 10 11 0 20 -4 20 -10z m50 0 c0 -5 -7 -10 -15 -10 -8 0 -15 5 -15
10 0 6 7 10 15 10 8 0 15 -4 15 -10z m46 3 c-10 -11 -36 -12 -36 -2 0 5 10 9
22 9 12 0 18 -3 14 -7z m67 -4 c-8 -8 -16 -8 -30 0 -16 9 -14 10 12 11 21 0
26 -3 18 -11z m52 1 c-3 -5 -12 -7 -20 -3 -21 7 -19 13 6 13 11 0 18 -4 14
-10z m125 1 c0 -5 -9 -7 -20 -4 -11 3 -20 7 -20 9 0 2 9 4 20 4 11 0 20 -4 20
-9z m75 -1 c4 -6 -7 -10 -24 -10 -17 0 -31 5 -31 10 0 6 11 10 24 10 14 0 28
-4 31 -10z m-421 -41 c-8 -14 -44 -10 -44 5 0 9 8 12 25 8 14 -2 22 -8 19 -13z
m103 7 c-2 -6 -11 -12 -20 -14 -11 -2 -15 1 -12 11 7 16 37 19 32 3z m63 -1
c0 -8 -9 -15 -20 -15 -25 0 -26 17 -2 23 9 3 18 5 20 6 1 0 2 -6 2 -14z m60 0
c0 -8 -9 -15 -20 -15 -11 0 -20 7 -20 15 0 8 9 15 20 15 11 0 20 -7 20 -15z
m50 -1 c0 -9 -5 -14 -12 -12 -18 6 -21 28 -4 28 9 0 16 -7 16 -16z m70 1 c0
-9 -9 -15 -25 -15 -24 0 -32 10 -18 23 12 13 43 7 43 -8z m-300 -5 c0 -5 -7
-10 -15 -10 -8 0 -15 5 -15 10 0 6 7 10 15 10 8 0 15 -4 15 -10z m368 -19 c-1
-31 -25 -46 -49 -30 -10 6 -8 10 10 17 20 7 21 10 8 15 -25 10 -20 27 7 27 21
0 25 -5 24 -29z m-253 -11 c3 -5 -3 -10 -15 -10 -12 0 -18 5 -15 10 3 6 10 10
15 10 5 0 12 -4 15 -10z m65 -5 c0 -8 -9 -15 -20 -15 -11 0 -20 7 -20 15 0 8
9 15 20 15 11 0 20 -7 20 -15z m50 0 c0 -8 -7 -15 -15 -15 -8 0 -15 7 -15 15
0 8 7 15 15 15 8 0 15 -7 15 -15z m70 -6 c0 -5 -11 -9 -25 -9 -24 0 -32 10
-19 22 8 8 44 -3 44 -13z m-357 4 c-7 -2 -19 -2 -25 0 -7 3 -2 5 12 5 14 0 19
-2 13 -5z m54 1 c-3 -3 -12 -4 -19 -1 -8 3 -5 6 6 6 11 1 17 -2 13 -5z m50 0
c-3 -3 -12 -4 -19 -1 -8 3 -5 6 6 6 11 1 17 -2 13 -5z"/>
<path d="M225 516 c-11 -9 -15 -43 -16 -152 -1 -78 1 -146 5 -153 8 -12 181
-16 210 -5 14 5 16 29 16 159 0 138 -2 154 -17 159 -31 9 -183 3 -198 -8z
m193 -140 l-2 -121 -3 114 c-2 64 -9 121 -15 128 -8 11 -7 12 6 7 14 -5 16
-23 14 -128z m-128 74 c0 -35 -25 -41 -33 -8 -7 26 -1 38 19 38 9 0 14 -11 14
-30z m50 0 c0 -16 -4 -30 -10 -30 -5 0 -10 14 -10 30 0 17 5 30 10 30 6 0 10
-13 10 -30z m50 -1 c0 -16 -4 -28 -9 -25 -5 3 -8 17 -8 31 0 14 3 25 8 25 5 0
9 -14 9 -31z m-153 -16 c-3 -10 -5 -4 -5 12 0 17 2 24 5 18 2 -7 2 -21 0 -30z
m111 -93 c-2 -19 -9 -35 -16 -38 -11 -3 -12 17 -3 88 1 2 6 -1 12 -7 6 -6 9
-25 7 -43z m39 -27 c-2 -16 -4 -3 -4 27 0 30 2 43 4 28 2 -16 2 -40 0 -55z
m-95 27 c3 -33 0 -40 -14 -40 -14 0 -18 8 -18 40 0 28 4 40 14 40 9 0 15 -14
18 -40z m98 -80 c0 -6 -28 -10 -65 -10 -37 0 -65 4 -65 10 0 6 28 10 65 10 37
0 65 -4 65 -10z m30 -25 c0 -8 -4 -15 -10 -15 -5 0 -7 7 -4 15 4 8 8 15 10 15
2 0 4 -7 4 -15z m-147 -12 c-7 -2 -21 -2 -30 0 -10 3 -4 5 12 5 17 0 24 -2 18
-5z m110 0 c-7 -2 -21 -2 -30 0 -10 3 -4 5 12 5 17 0 24 -2 18 -5z"/>
</g>
</svg>
