<?xml version="1.0" standalone="no"?>
<!DOCTYPE svg PUBLIC "-//W3C//DTD SVG 20010904//EN"
 "http://www.w3.org/TR/2001/REC-SVG-20010904/DTD/svg10.dtd">
<svg version="1.0" xmlns="http://www.w3.org/2000/svg"
 width="86.000000pt" height="47.000000pt" viewBox="0 0 86.000000 47.000000"
 preserveAspectRatio="xMidYMid meet">
<metadata>
Created by potrace 1.16, written by Peter Selinger 2001-2019
</metadata>
<g transform="translate(0.000000,47.000000) scale(0.100000,-0.100000)"
fill="#000000" stroke="none">
<path d="M224 422 c-21 -15 -61 -41 -89 -57 l-49 -28 54 -49 c58 -52 58 -55 0
-87 -19 -10 -36 -23 -38 -29 -3 -9 39 -45 130 -111 17 -13 34 -6 172 64 123
63 156 76 167 66 28 -24 141 -92 145 -88 3 3 -25 34 -61 70 l-67 65 -87 -43
c-121 -59 -246 -107 -268 -103 -15 3 -17 11 -15 53 5 59 7 62 27 45 20 -17 19
-1 -2 22 -13 14 -14 21 -5 30 17 17 15 28 -4 21 -13 -5 -15 1 -9 40 4 26 4 55
0 64 -7 17 -8 16 -15 -2 -5 -11 -9 -37 -9 -58 l-1 -39 -27 33 -27 32 45 38
c24 21 50 36 57 34 8 -3 19 -5 25 -5 9 0 11 -38 9 -140 -3 -97 -1 -140 7 -140
7 0 11 30 12 83 1 45 4 105 7 134 l7 52 90 -45 c50 -25 109 -57 133 -71 24
-13 46 -22 49 -19 4 3 4 7 2 9 -17 12 -316 187 -320 187 -4 0 -24 -13 -45 -28z
m-29 -269 c-6 -24 -7 -25 -26 -7 -19 17 -19 18 3 42 20 20 24 21 26 7 2 -9 1
-28 -3 -42z"/>
<path d="M770 338 c-14 -6 -43 -19 -65 -29 -22 -9 -50 -20 -62 -24 -26 -7 -31
-35 -7 -35 8 0 46 18 83 40 37 22 72 40 78 40 7 0 15 5 18 10 8 13 -13 12 -45
-2z"/>
<path d="M378 253 c-5 -89 -4 -102 10 -89 11 12 16 176 4 176 -5 0 -12 -39
-14 -87z"/>
</g>
</svg>
