<?xml version="1.0" standalone="no"?>
<!DOCTYPE svg PUBLIC "-//W3C//DTD SVG 20010904//EN"
 "http://www.w3.org/TR/2001/REC-SVG-20010904/DTD/svg10.dtd">
<svg version="1.0" xmlns="http://www.w3.org/2000/svg"
 width="85.000000pt" height="43.000000pt" viewBox="0 0 85.000000 43.000000"
 preserveAspectRatio="xMidYMid meet">
<metadata>
Created by potrace 1.16, written by Peter Selinger 2001-2019
</metadata>
<g transform="translate(0.000000,43.000000) scale(0.100000,-0.100000)"
fill="#000000" stroke="none">
<path d="M380 350 c-12 -7 -12 -12 -2 -22 6 -6 12 -34 12 -60 l0 -48 -140 0
-140 0 0 30 0 30 135 0 c74 0 135 4 135 9 0 14 -25 16 -170 16 l-135 0 -1 -82
c-1 -46 2 -83 7 -83 6 0 29 32 33 48 1 1 63 5 139 8 131 5 137 5 137 -14 0
-11 -7 -22 -15 -26 -23 -8 -18 -36 6 -36 11 0 44 11 72 24 29 13 63 27 76 31
20 6 93 39 164 73 5 2 6 -22 2 -54 -6 -55 -5 -58 9 -40 9 11 16 29 16 40 0 12
8 42 17 69 13 35 14 50 5 59 -8 8 -15 8 -26 -1 -10 -9 -25 -10 -53 -3 -21 6
-83 15 -138 22 -55 6 -107 13 -115 15 -8 3 -22 0 -30 -5z m220 -46 c41 -4 84
-10 95 -14 18 -7 17 -9 -15 -29 -53 -32 -237 -89 -256 -79 -4 2 -8 34 -9 71
l-2 69 56 -6 c31 -3 90 -8 131 -12z"/>
</g>
</svg>
