<?xml version="1.0" standalone="no"?>
<!DOCTYPE svg PUBLIC "-//W3C//DTD SVG 20010904//EN"
 "http://www.w3.org/TR/2001/REC-SVG-20010904/DTD/svg10.dtd">
<svg version="1.0" xmlns="http://www.w3.org/2000/svg"
 width="97.000000pt" height="46.000000pt" viewBox="0 0 97.000000 46.000000"
 preserveAspectRatio="xMidYMid meet">
<metadata>
Created by potrace 1.16, written by Peter Selinger 2001-2019
</metadata>
<g transform="translate(0.000000,46.000000) scale(0.100000,-0.100000)"
fill="#000000" stroke="none">
<path d="M266 400 c-16 -11 -56 -27 -88 -36 -69 -21 -75 -41 -23 -70 42 -22
44 -30 9 -38 -54 -14 -97 -56 -56 -56 9 0 30 -11 47 -24 l29 -23 -41 -22 c-52
-26 -58 -36 -40 -65 15 -22 19 -23 69 -14 29 4 82 10 118 12 50 3 84 13 150
44 47 22 99 42 115 43 17 2 37 8 45 15 28 21 99 44 105 34 4 -6 10 -8 14 -5 5
2 17 -2 27 -10 10 -8 25 -15 32 -15 7 0 31 -12 53 -26 23 -14 43 -23 47 -20 7
7 10 5 -66 50 -92 56 -95 67 -25 113 102 67 93 82 -16 27 -78 -40 -88 -49 -72
-68 11 -14 -15 -25 -156 -71 -50 -16 -80 -14 -68 5 3 4 6 26 7 48 l1 39 46 -9
c25 -4 54 -11 64 -14 9 -3 17 -1 17 3 0 5 -27 15 -60 21 -54 12 -80 26 -67 38
6 7 148 -35 164 -48 7 -5 17 -7 24 -3 13 9 -9 19 -156 73 -60 22 -132 51 -160
63 -27 13 -52 24 -55 25 -3 1 -18 -6 -34 -16z m49 -34 c44 -15 66 -54 23 -41
-12 4 -28 12 -34 16 -8 6 -14 3 -19 -8 -11 -29 -18 -213 -7 -213 9 0 22 77 22
138 0 28 3 32 28 32 27 0 29 -2 29 -47 0 -36 -5 -52 -21 -65 -17 -14 -18 -17
-5 -18 9 0 20 -10 24 -22 l8 -23 4 23 c3 15 17 28 44 38 49 20 51 37 4 28
l-35 -6 0 41 0 42 38 -3 37 -3 5 -58 c4 -38 1 -62 -6 -68 -31 -25 -162 -58
-233 -59 l-74 0 19 21 c16 18 19 19 22 5 4 -18 22 -22 22 -5 0 6 9 8 20 4 22
-7 28 10 7 18 -7 3 -13 25 -15 56 -2 49 -1 51 18 41 16 -8 20 -8 20 4 0 8 -6
16 -12 19 -10 3 -10 9 0 27 12 20 12 22 -2 17 -12 -5 -16 0 -16 18 0 28 -15
33 -24 8 -5 -12 -9 -14 -18 -5 -6 6 -10 13 -7 15 3 3 94 48 94 47 0 0 18 -7
40 -14z m128 -43 c30 -6 37 -23 10 -23 -33 0 -62 12 -67 27 -5 11 -2 13 11 8
10 -3 30 -9 46 -12z m-243 -109 c0 -37 -14 -42 -34 -11 -8 13 -6 20 9 31 11 9
21 16 23 16 1 0 2 -16 2 -36z"/>
</g>
</svg>
