<?xml version="1.0" standalone="no"?>
<!DOCTYPE svg PUBLIC "-//W3C//DTD SVG 20010904//EN"
 "http://www.w3.org/TR/2001/REC-SVG-20010904/DTD/svg10.dtd">
<svg version="1.0" xmlns="http://www.w3.org/2000/svg"
 width="104.000000pt" height="40.000000pt" viewBox="0 0 104.000000 40.000000"
 preserveAspectRatio="xMidYMid meet">
<metadata>
Created by potrace 1.16, written by Peter Selinger 2001-2019
</metadata>
<g transform="translate(0.000000,40.000000) scale(0.100000,-0.100000)"
fill="#000000" stroke="none">
<path d="M375 301 c-3 -6 -37 -31 -76 -56 l-70 -47 -46 36 c-25 19 -50 33 -54
30 -19 -11 -7 -36 26 -55 19 -12 35 -24 35 -29 0 -4 -18 -19 -40 -34 -22 -14
-40 -33 -40 -41 0 -30 29 -27 65 7 58 52 60 53 116 8 28 -22 59 -40 70 -40 11
0 40 19 64 41 43 39 46 41 63 25 23 -20 36 -21 29 -2 -4 10 10 15 55 20 105
11 101 12 137 -59 17 -36 36 -65 41 -65 14 0 12 14 -7 52 -29 58 -33 68 -33
78 0 28 23 3 49 -55 16 -36 34 -65 40 -65 12 0 8 15 -20 77 -23 51 -23 54 -5
47 8 -3 26 -32 40 -65 15 -32 31 -59 37 -59 13 0 11 17 -6 50 -9 17 -20 41
-25 55 l-10 26 70 -5 c39 -3 72 -1 75 4 9 15 -40 30 -100 30 -55 0 -65 8 -65
50 0 23 -13 32 -34 24 -14 -5 -14 -10 -1 -41 18 -42 18 -43 5 -43 -6 0 -15 20
-22 45 -8 30 -18 45 -28 45 -26 0 -29 -9 -14 -45 16 -40 17 -45 5 -45 -4 0
-16 20 -25 45 -14 36 -22 45 -42 45 -29 0 -29 -1 -4 -42 11 -18 20 -36 20 -40
0 -4 -45 -6 -100 -4 -95 2 -102 4 -131 32 -22 21 -28 35 -24 51 5 23 -8 32
-20 14z m10 -76 c71 -42 73 -49 19 -86 l-47 -32 -33 18 c-19 10 -41 26 -50 36
-16 18 -15 21 22 54 21 19 40 34 42 35 2 0 23 -11 47 -25z"/>
</g>
</svg>
