<?xml version="1.0" standalone="no"?>
<!DOCTYPE svg PUBLIC "-//W3C//DTD SVG 20010904//EN"
 "http://www.w3.org/TR/2001/REC-SVG-20010904/DTD/svg10.dtd">
<svg version="1.0" xmlns="http://www.w3.org/2000/svg"
 width="64.000000pt" height="144.000000pt" viewBox="0 0 64.000000 144.000000"
 preserveAspectRatio="xMidYMid meet">
<metadata>
Created by potrace 1.16, written by Peter Selinger 2001-2019
</metadata>
<g transform="translate(0.000000,144.000000) scale(0.100000,-0.100000)"
fill="#000000" stroke="none">
<path d="M376 1343 c-19 -5 -86 -46 -173 -105 -23 -15 -46 -28 -52 -28 -43 0
-4 -70 59 -104 27 -15 72 -45 100 -67 29 -23 53 -39 55 -37 9 9 -8 48 -21 48
-8 0 -14 8 -13 18 0 10 3 12 6 5 3 -10 8 -10 19 1 8 8 14 17 14 20 0 9 -43 -3
-51 -15 -10 -17 -29 -1 -22 19 6 14 4 15 -9 4 -12 -10 -18 -9 -28 3 -11 13 -7
15 24 15 20 0 36 -4 36 -10 0 -5 5 -10 11 -10 5 0 8 4 4 9 -3 5 8 9 25 9 24
-1 30 -5 30 -24 0 -12 -6 -25 -12 -27 -10 -4 -10 -6 0 -6 6 -1 12 -12 12 -25
0 -14 4 -27 9 -30 10 -6 21 114 21 230 0 81 -6 115 -19 113 -3 -1 -15 -4 -25
-6z m10 -76 l5 -57 -34 0 c-23 0 -37 6 -41 16 -8 20 1 34 20 34 8 0 15 7 15
15 2 24 4 29 13 43 12 20 16 11 22 -51z m-46 18 c0 -8 -6 -15 -13 -15 -7 0
-18 -9 -25 -20 -7 -11 -18 -17 -27 -14 -8 4 -15 2 -15 -4 0 -6 6 -13 13 -15 6
-3 0 -6 -15 -6 -41 -1 -35 12 24 53 60 41 58 41 58 21z m-126 -110 c16 -12 22
-12 28 -2 5 9 8 7 8 -5 0 -9 -8 -18 -17 -20 -22 -5 -65 21 -57 33 7 12 16 11
38 -6z m108 -10 c3 -14 1 -25 -3 -25 -5 0 -9 11 -9 25 0 14 2 25 4 25 2 0 6
-11 8 -25z m68 2 c0 -16 -6 -23 -20 -24 -11 -1 -20 3 -20 8 0 6 5 7 10 4 6 -3
10 -2 10 4 0 5 -8 15 -17 20 -15 9 -14 10 10 11 22 0 27 -5 27 -23z"/>
<path d="M342 1234 c-7 -8 -8 -14 -3 -14 10 0 25 19 20 25 -2 1 -10 -3 -17
-11z"/>
<path d="M295 430 c-51 -24 -83 -58 -91 -97 -9 -45 51 -105 128 -127 78 -22
97 -21 108 10 13 32 13 87 1 80 -10 -6 -9 9 3 35 4 9 6 38 4 65 l-3 49 -55 2
c-36 1 -69 -5 -95 -17z m75 -9 c-78 -16 -146 -74 -135 -115 5 -17 4 -18 -4 -6
-32 46 61 129 144 128 29 0 29 -1 -5 -7z m57 -23 c-3 -7 -5 -2 -5 12 0 14 2
19 5 13 2 -7 2 -19 0 -25z m-27 -18 c0 -13 -7 -20 -20 -20 -13 0 -20 7 -20 20
0 13 7 20 20 20 13 0 20 -7 20 -20z m-80 -10 c0 -5 -9 -10 -21 -10 -11 0 -17
5 -14 10 3 6 13 10 21 10 8 0 14 -4 14 -10z m0 -60 c0 -5 -13 -10 -30 -10 -16
0 -30 5 -30 10 0 6 14 10 30 10 17 0 30 -4 30 -10z m90 -4 c0 -9 -8 -12 -25
-8 -14 2 -25 8 -25 13 0 5 11 9 25 9 14 0 25 -6 25 -14z m-101 -63 c2 -2 0 -3
-6 -3 -6 0 -21 9 -34 21 l-24 20 30 -17 c17 -10 32 -19 34 -21z m96 17 c4 -6
-7 -10 -24 -10 -17 0 -31 5 -31 10 0 6 11 10 24 10 14 0 28 -4 31 -10z"/>
</g>
</svg>
