<?xml version="1.0" standalone="no"?>
<!DOCTYPE svg PUBLIC "-//W3C//DTD SVG 20010904//EN"
 "http://www.w3.org/TR/2001/REC-SVG-20010904/DTD/svg10.dtd">
<svg version="1.0" xmlns="http://www.w3.org/2000/svg"
 width="64.000000pt" height="50.000000pt" viewBox="0 0 64.000000 50.000000"
 preserveAspectRatio="xMidYMid meet">
<metadata>
Created by potrace 1.16, written by Peter Selinger 2001-2019
</metadata>
<g transform="translate(0.000000,50.000000) scale(0.100000,-0.100000)"
fill="#000000" stroke="none">
<path d="M105 369 c-10 -16 -4 -19 91 -38 115 -24 204 -50 204 -60 0 -5 -12
-13 -27 -19 -63 -24 -182 -62 -195 -62 -27 0 -51 -26 -42 -43 8 -14 13 -15 34
-4 14 7 70 34 125 59 97 45 101 47 148 36 40 -10 50 -9 58 3 10 16 12 92 3
101 -5 6 -61 -13 -94 -31 -10 -5 -58 4 -130 24 -166 46 -168 46 -175 34z m382
-125 c-2 -3 -12 -2 -21 2 -22 8 -21 60 2 73 15 8 17 5 20 -31 2 -22 1 -42 -1
-44z"/>
</g>
</svg>
