<?xml version="1.0" standalone="no"?>
<!DOCTYPE svg PUBLIC "-//W3C//DTD SVG 20010904//EN"
 "http://www.w3.org/TR/2001/REC-SVG-20010904/DTD/svg10.dtd">
<svg version="1.0" xmlns="http://www.w3.org/2000/svg"
 width="66.000000pt" height="49.000000pt" viewBox="0 0 66.000000 49.000000"
 preserveAspectRatio="xMidYMid meet">
<metadata>
Created by potrace 1.16, written by Peter Selinger 2001-2019
</metadata>
<g transform="translate(0.000000,49.000000) scale(0.100000,-0.100000)"
fill="#000000" stroke="none">
<path d="M196 413 c-3 -4 -6 -15 -6 -25 0 -23 -9 -23 -36 3 l-22 21 -11 -21
c-10 -18 -7 -23 29 -41 25 -13 40 -27 40 -39 0 -28 -22 -32 -47 -9 -21 20 -21
20 -32 0 -9 -17 -7 -23 9 -35 18 -13 19 -16 5 -27 -22 -18 -19 -36 12 -59 26
-21 26 -22 7 -37 -20 -16 -13 -16 31 2 11 5 15 -1 15 -25 0 -30 0 -31 -44 -25
-46 7 -67 -6 -47 -30 7 -9 26 -10 68 -5 32 4 82 8 111 8 28 1 52 6 52 11 0 6
-24 10 -54 10 -40 0 -55 4 -60 16 -5 12 -2 15 11 9 50 -20 57 -17 24 12 -24
21 -32 35 -28 47 6 15 9 15 37 -5 36 -28 50 -19 19 12 -21 21 -21 23 -4 36 11
7 22 13 27 13 18 0 6 30 -22 53 -16 14 -30 29 -30 34 0 4 16 18 35 31 34 22
47 52 23 52 -7 0 -27 -14 -45 -32 l-33 -32 0 36 c0 33 -19 56 -34 41z m63
-134 l24 -19 -23 -20 c-29 -25 -40 -18 -40 26 0 39 6 41 39 13z m-71 -71 c4
-35 -10 -36 -32 -3 -21 32 -20 37 7 33 16 -2 23 -11 25 -30z"/>
<path d="M457 413 c-4 -3 -7 -18 -7 -31 0 -24 -1 -24 -19 -8 -19 17 -41 15
-41 -5 0 -5 16 -17 35 -26 19 -9 35 -20 35 -24 0 -10 -32 -22 -52 -20 -9 1
-22 -11 -31 -28 l-15 -30 28 5 c37 8 86 -22 69 -42 -10 -12 -15 -12 -36 1 -21
14 -24 14 -30 -1 -4 -10 0 -22 9 -28 14 -10 12 -15 -13 -40 -32 -32 -36 -44
-16 -51 24 -8 217 -11 217 -3 0 4 -6 8 -14 8 -8 0 -16 4 -18 8 -1 4 -18 18
-35 31 -22 15 -33 31 -33 47 0 28 7 30 32 7 24 -22 36 -8 14 16 -17 18 -17 20
4 41 17 17 24 19 36 9 8 -6 17 -9 20 -6 3 3 -17 23 -46 44 l-51 38 36 28 c19
16 35 33 35 38 0 17 -24 9 -53 -18 l-29 -28 3 25 c5 37 -15 62 -34 43z m9
-151 c-10 -10 -29 15 -21 28 6 9 10 8 17 -4 6 -10 7 -20 4 -24z m54 28 c13 -8
12 -13 -7 -32 l-23 -22 0 32 c0 34 5 38 30 22z m-52 -165 c2 -18 -2 -20 -38
-17 -40 4 -41 5 -24 24 22 24 58 20 62 -7z m52 -15 c12 -8 11 -10 -7 -10 -13
0 -23 5 -23 10 0 13 11 13 30 0z"/>
</g>
</svg>
