<?xml version="1.0" standalone="no"?>
<!DOCTYPE svg PUBLIC "-//W3C//DTD SVG 20010904//EN"
 "http://www.w3.org/TR/2001/REC-SVG-20010904/DTD/svg10.dtd">
<svg version="1.0" xmlns="http://www.w3.org/2000/svg"
 width="84.000000pt" height="47.000000pt" viewBox="0 0 84.000000 47.000000"
 preserveAspectRatio="xMidYMid meet">
<metadata>
Created by potrace 1.16, written by Peter Selinger 2001-2019
</metadata>
<g transform="translate(0.000000,47.000000) scale(0.100000,-0.100000)"
fill="#000000" stroke="none">
<path d="M368 463 c7 -3 16 -2 19 1 4 3 -2 6 -13 5 -11 0 -14 -3 -6 -6z"/>
<path d="M410 439 c0 -22 4 -30 14 -26 17 7 274 -156 276 -175 0 -8 -53 -38
-68 -38 -5 0 -8 17 -8 38 1 20 -2 38 -6 40 -5 1 -44 2 -88 2 l-80 0 0 -55 0
-55 56 0 c40 0 55 -4 52 -12 -4 -12 -147 -93 -153 -86 -2 2 -6 71 -10 153 -4
83 -11 154 -16 160 -5 5 -9 -10 -9 -39 l0 -48 -153 4 c-178 4 -191 -1 -181
-61 3 -20 7 -51 8 -70 l2 -35 167 3 167 3 0 -40 c0 -23 -5 -42 -12 -45 -10 -3
-10 -7 1 -21 13 -15 16 -15 45 4 17 11 95 59 174 106 78 47 142 90 142 95 0 5
-21 22 -46 37 -25 15 -72 46 -105 70 -32 23 -62 42 -67 42 -5 0 -17 9 -29 19
-11 10 -29 21 -39 23 -11 2 -18 11 -16 21 2 9 -2 17 -8 17 -5 0 -10 -14 -10
-31z m-46 -168 c3 -4 8 -31 12 -59 l7 -52 -104 0 c-57 0 -128 3 -156 6 l-53 7
0 47 c0 26 3 50 7 53 9 10 282 7 287 -2z m236 -47 l0 -36 -57 5 c-32 4 -61 6
-64 7 -3 0 -4 14 -1 30 4 29 5 30 63 30 l59 0 0 -36z"/>
<path d="M440 466 c0 -2 7 -9 15 -16 9 -7 15 -8 15 -2 0 5 -7 12 -15 16 -8 3
-15 4 -15 2z"/>
<path d="M370 424 c0 -17 22 -14 28 4 2 7 -3 12 -12 12 -9 0 -16 -7 -16 -16z"/>
<path d="M798 3 c7 -3 16 -2 19 1 4 3 -2 6 -13 5 -11 0 -14 -3 -6 -6z"/>
</g>
</svg>
