<?xml version="1.0" standalone="no"?>
<!DOCTYPE svg PUBLIC "-//W3C//DTD SVG 20010904//EN"
 "http://www.w3.org/TR/2001/REC-SVG-20010904/DTD/svg10.dtd">
<svg version="1.0" xmlns="http://www.w3.org/2000/svg"
 width="56.000000pt" height="49.000000pt" viewBox="0 0 56.000000 49.000000"
 preserveAspectRatio="xMidYMid meet">
<metadata>
Created by potrace 1.16, written by Peter Selinger 2001-2019
</metadata>
<g transform="translate(0.000000,49.000000) scale(0.100000,-0.100000)"
fill="#000000" stroke="none">
<path d="M123 413 c-18 -7 -17 -14 17 -85 26 -56 27 -64 14 -75 -13 -10 -5
-21 53 -76 92 -87 133 -121 139 -114 3 3 3 11 -2 18 -4 7 -7 47 -6 88 1 42 1
91 2 110 0 19 3 31 7 27 7 -7 9 -42 12 -196 1 -40 5 -60 10 -55 6 6 13 90 17
188 6 172 6 179 -12 175 -15 -2 -20 -15 -25 -53 l-5 -50 -5 50 c-2 28 -8 48
-14 45 -6 -3 -8 -64 -6 -155 2 -125 0 -148 -11 -137 -10 10 -13 47 -11 152 2
128 -5 168 -23 139 -7 -12 -6 -180 2 -224 3 -19 1 -26 -8 -23 -18 6 -25 48
-27 145 -1 85 -7 113 -23 113 -10 0 -1 -186 10 -205 3 -5 -1 -4 -10 3 -9 7
-24 48 -33 90 -24 106 -31 118 -62 105z"/>
</g>
</svg>
