<?xml version="1.0" standalone="no"?>
<!DOCTYPE svg PUBLIC "-//W3C//DTD SVG 20010904//EN"
 "http://www.w3.org/TR/2001/REC-SVG-20010904/DTD/svg10.dtd">
<svg version="1.0" xmlns="http://www.w3.org/2000/svg"
 width="119.000000pt" height="57.000000pt" viewBox="0 0 119.000000 57.000000"
 preserveAspectRatio="xMidYMid meet">
<metadata>
Created by potrace 1.16, written by Peter Selinger 2001-2019
</metadata>
<g transform="translate(0.000000,57.000000) scale(0.100000,-0.100000)"
fill="#000000" stroke="none">
<path d="M182 493 c2 -9 33 -37 69 -62 36 -25 79 -56 95 -69 l29 -22 -152 2
c-187 3 -184 6 -180 -125 1 -48 7 -88 12 -90 6 -1 11 10 13 24 3 30 23 39 85
39 26 0 37 -4 37 -15 0 -8 5 -15 10 -15 6 0 10 7 10 15 0 11 12 15 48 15 55 0
94 9 87 20 -3 4 -32 5 -65 3 l-61 -5 7 51 c6 47 5 51 -15 51 -19 0 -21 -6 -21
-49 l0 -49 -60 -4 c-33 -1 -60 1 -60 5 0 5 5 28 11 52 l11 43 71 6 c193 15
227 14 253 -6 13 -11 24 -15 24 -10 0 5 -10 16 -22 25 l-23 15 30 7 c17 3 56
15 89 27 42 14 71 18 105 14 86 -12 197 -39 349 -83 l93 -27 -53 -24 c-97 -44
-312 -112 -353 -112 -46 0 -97 12 -175 42 -67 26 -65 25 -52 41 24 29 -1 24
-43 -7 -23 -18 -79 -55 -124 -81 -52 -31 -81 -54 -79 -63 5 -27 26 -24 65 11
21 19 62 52 92 75 l54 41 38 -20 c21 -10 45 -19 54 -19 9 0 18 -7 21 -15 16
-39 157 -39 267 1 23 8 49 17 57 19 31 8 98 34 173 69 64 29 81 34 103 25 15
-5 29 -7 32 -4 4 3 -4 8 -16 12 -21 5 -21 6 -5 19 16 12 13 13 -22 8 -30 -4
-67 3 -150 31 -130 43 -294 86 -351 92 -38 5 -63 -3 -134 -41 -62 -33 -70 -31
-166 54 -88 79 -118 96 -112 63z"/>
<path d="M510 281 c0 -34 4 -61 10 -61 6 0 10 24 10 54 0 30 -4 58 -10 61 -6
4 -10 -17 -10 -54z"/>
<path d="M594 294 c3 -26 6 -57 6 -70 0 -13 5 -24 10 -24 11 0 14 98 4 124
-13 35 -27 15 -20 -30z"/>
<path d="M687 323 c-8 -13 5 -113 14 -113 12 0 11 107 0 115 -5 3 -12 2 -14
-2z"/>
<path d="M769 326 c-8 -8 3 -116 12 -116 11 0 12 107 0 114 -4 3 -10 4 -12 2z"/>
</g>
</svg>
