<?xml version="1.0" standalone="no"?>
<!DOCTYPE svg PUBLIC "-//W3C//DTD SVG 20010904//EN"
 "http://www.w3.org/TR/2001/REC-SVG-20010904/DTD/svg10.dtd">
<svg version="1.0" xmlns="http://www.w3.org/2000/svg"
 width="58.000000pt" height="22.000000pt" viewBox="0 0 58.000000 22.000000"
 preserveAspectRatio="xMidYMid meet">
<metadata>
Created by potrace 1.16, written by Peter Selinger 2001-2019
</metadata>
<g transform="translate(0.000000,22.000000) scale(0.100000,-0.100000)"
fill="#000000" stroke="none">
<path d="M104 166 c-3 -9 -3 -23 0 -32 6 -15 19 -16 114 -9 59 4 130 9 159 10
28 2 56 6 62 10 29 17 -11 25 -132 23 -73 -1 -147 2 -165 6 -25 6 -33 4 -38
-8z"/>
<path d="M247 72 c-126 -3 -128 -3 -125 -25 4 -28 36 -30 185 -9 181 25 156
39 -60 34z"/>
</g>
</svg>
