<?xml version="1.0" standalone="no"?>
<!DOCTYPE svg PUBLIC "-//W3C//DTD SVG 20010904//EN"
 "http://www.w3.org/TR/2001/REC-SVG-20010904/DTD/svg10.dtd">
<svg version="1.0" xmlns="http://www.w3.org/2000/svg"
 width="56.000000pt" height="60.000000pt" viewBox="0 0 56.000000 60.000000"
 preserveAspectRatio="xMidYMid meet">
<metadata>
Created by potrace 1.16, written by Peter Selinger 2001-2019
</metadata>
<g transform="translate(0.000000,60.000000) scale(0.100000,-0.100000)"
fill="#000000" stroke="none">
<path d="M384 519 c-10 -11 -39 -34 -63 -51 -51 -34 -63 -31 -96 20 -19 30
-48 41 -59 23 -4 -5 15 -30 41 -55 34 -32 43 -46 31 -46 -10 0 -18 -4 -18 -9
0 -5 -16 -19 -35 -31 -19 -12 -35 -28 -35 -36 0 -8 -5 -14 -10 -14 -6 0 -14
-10 -19 -22 -9 -24 -12 -20 98 -114 l25 -21 -29 -26 c-24 -21 -28 -28 -17 -38
10 -11 17 -8 39 14 l27 27 38 -37 c44 -43 51 -28 11 23 l-26 35 56 57 c52 52
58 55 81 44 29 -13 36 1 9 16 -15 9 -14 13 10 45 38 49 34 57 -8 17 l-35 -34
-55 60 -55 59 23 15 c39 26 102 88 96 94 -3 3 -14 -3 -25 -15z m-57 -170 c22
-20 44 -42 48 -49 7 -12 -60 -90 -78 -90 -5 0 -7 22 -5 50 5 52 -7 76 -31 61
-12 -8 -9 -69 6 -126 3 -12 -15 3 -45 35 -28 30 -51 59 -52 65 0 18 93 104
105 97 7 -4 31 -23 52 -43z"/>
</g>
</svg>
