<?xml version="1.0" standalone="no"?>
<!DOCTYPE svg PUBLIC "-//W3C//DTD SVG 20010904//EN"
 "http://www.w3.org/TR/2001/REC-SVG-20010904/DTD/svg10.dtd">
<svg version="1.0" xmlns="http://www.w3.org/2000/svg"
 width="89.000000pt" height="36.000000pt" viewBox="0 0 89.000000 36.000000"
 preserveAspectRatio="xMidYMid meet">
<metadata>
Created by potrace 1.16, written by Peter Selinger 2001-2019
</metadata>
<g transform="translate(0.000000,36.000000) scale(0.100000,-0.100000)"
fill="#000000" stroke="none">
<path d="M490 223 c-46 -65 -93 -128 -104 -140 -19 -22 -55 -32 -57 -15 -2 22
-9 49 -17 67 -5 11 -22 52 -36 92 -15 39 -33 77 -41 83 -16 13 -50 10 -49 -5
0 -6 24 -59 53 -119 28 -60 50 -115 46 -123 -3 -8 5 -23 17 -34 25 -20 48 -25
48 -9 0 6 7 10 15 10 16 0 87 72 97 101 4 10 12 19 17 19 10 0 48 -49 66 -85
14 -27 74 -32 98 -8 19 20 86 124 112 173 30 57 10 53 -25 -4 -19 -32 -47 -73
-62 -93 -16 -20 -28 -40 -28 -44 0 -5 -13 -9 -28 -9 -29 0 -63 29 -96 82 -20
30 -17 39 40 119 19 25 34 49 34 53 0 22 -27 -8 -100 -111z"/>
</g>
</svg>
