<?xml version="1.0" standalone="no"?>
<!DOCTYPE svg PUBLIC "-//W3C//DTD SVG 20010904//EN"
 "http://www.w3.org/TR/2001/REC-SVG-20010904/DTD/svg10.dtd">
<svg version="1.0" xmlns="http://www.w3.org/2000/svg"
 width="87.000000pt" height="46.000000pt" viewBox="0 0 87.000000 46.000000"
 preserveAspectRatio="xMidYMid meet">
<metadata>
Created by potrace 1.16, written by Peter Selinger 2001-2019
</metadata>
<g transform="translate(0.000000,46.000000) scale(0.100000,-0.100000)"
fill="#000000" stroke="none">
<path d="M219 363 c-1 -10 0 -44 1 -75 2 -69 -4 -82 -31 -68 -24 13 -49 1 -25
-12 21 -12 20 -21 -3 -35 -16 -10 -22 -9 -33 4 -11 14 -11 16 2 8 13 -8 13 -6
2 8 -9 10 -13 37 -11 74 2 48 0 59 -14 61 -15 3 -17 -6 -17 -61 0 -49 -4 -68
-18 -80 -10 -10 -24 -17 -30 -17 -20 0 -42 -31 -42 -58 l0 -27 20 25 c10 14
21 22 24 19 4 -3 -4 -19 -16 -35 l-23 -29 35 26 c19 15 35 31 35 37 0 18 13
24 30 14 15 -8 10 -14 -29 -47 -26 -21 -44 -40 -41 -43 2 -3 11 1 20 8 8 7 15
9 15 4 0 -4 9 2 20 14 11 12 20 26 20 32 0 14 22 12 44 -5 10 -8 23 -12 29 -8
6 3 7 1 3 -6 -8 -12 19 -10 59 5 14 5 10 -3 -14 -29 -19 -21 -39 -37 -45 -37
-6 0 -5 5 2 12 16 16 15 25 -2 25 -11 0 -13 -12 -7 -50 0 -5 24 11 52 36 45
40 59 46 127 57 42 7 83 15 91 18 14 5 14 4 1 -14 -14 -18 -14 -18 5 -3 41 33
49 31 16 -4 -44 -47 -31 -48 17 -2 47 44 66 46 26 2 l-29 -32 32 29 c18 16 31
32 28 35 -2 4 8 8 21 9 21 2 17 -5 -33 -53 -32 -30 -53 -54 -47 -55 6 0 36 26
67 59 31 32 68 62 83 65 14 4 33 14 41 21 8 8 31 16 51 16 20 1 44 3 52 4 8 1
21 3 28 4 7 0 10 6 7 11 -4 6 -28 7 -61 4 -39 -5 -54 -3 -54 5 0 7 -5 9 -12 5
-7 -4 -8 -3 -4 5 4 6 11 9 16 6 11 -7 33 22 25 35 -4 7 -24 -5 -52 -30 -57
-53 -67 -45 -13 10 23 23 39 44 36 47 -3 3 -25 -16 -50 -43 -24 -27 -47 -46
-51 -43 -3 4 8 23 25 43 18 20 28 36 22 36 -5 0 -13 -7 -16 -16 -3 -8 -10 -13
-15 -10 -5 4 -19 -7 -31 -24 -18 -25 -28 -30 -61 -30 -37 0 -39 2 -29 20 8 16
8 20 -3 20 -8 0 -20 -7 -27 -15 -7 -8 -22 -15 -33 -15 -20 0 -20 0 -1 22 l19
22 -32 -22 c-33 -23 -69 -30 -57 -11 3 6 -6 3 -22 -7 -17 -12 -29 -15 -31 -8
-5 15 -53 5 -53 -12 0 -7 -10 -22 -22 -34 -25 -23 -13 -27 16 -5 38 29 52 15
16 -15 -37 -33 -56 -36 -82 -16 -16 12 -15 15 11 40 16 16 34 26 39 22 10 -6
35 151 26 165 -9 16 -34 10 -35 -8z m148 -208 c-42 -40 -67 -47 -40 -11 10 13
23 21 28 19 6 -3 4 0 -3 8 -11 12 -17 9 -40 -19 -37 -44 -59 -43 -30 2 19 28
28 34 54 31 17 -1 38 1 45 6 29 18 21 -3 -14 -36z m146 28 c-7 -18 8 -16 35 3
18 12 35 14 70 9 39 -6 43 -9 25 -16 -12 -4 -40 -10 -62 -12 -23 -2 -44 -6
-47 -10 -4 -4 -14 -2 -21 5 -10 8 -17 9 -21 1 -6 -10 -74 -33 -96 -33 -5 0 1
11 14 25 13 14 20 25 16 25 -4 0 -5 4 -2 9 3 4 25 8 50 7 31 0 42 -4 39 -13z
m-423 -13 c0 -5 -5 -10 -11 -10 -5 0 -7 5 -4 10 3 6 8 10 11 10 2 0 4 -4 4
-10z"/>
<path d="M335 280 c-3 -5 -2 -10 4 -10 5 0 13 5 16 10 3 6 2 10 -4 10 -5 0
-13 -4 -16 -10z"/>
<path d="M555 270 c-10 -11 -13 -20 -8 -20 13 0 38 29 31 35 -3 3 -13 -4 -23
-15z"/>
<path d="M137 73 c-14 -14 -17 -15 -18 -3 0 8 -5 4 -10 -9 -14 -34 -7 -34 32
-1 19 16 29 29 24 30 -6 0 -18 -8 -28 -17z"/>
<path d="M375 80 c-3 -5 -2 -10 4 -10 5 0 13 5 16 10 3 6 2 10 -4 10 -5 0 -13
-4 -16 -10z"/>
<path d="M229 33 c-13 -16 -12 -17 4 -4 9 7 17 15 17 17 0 8 -8 3 -21 -13z"/>
</g>
</svg>
