<?xml version="1.0" standalone="no"?>
<!DOCTYPE svg PUBLIC "-//W3C//DTD SVG 20010904//EN"
 "http://www.w3.org/TR/2001/REC-SVG-20010904/DTD/svg10.dtd">
<svg version="1.0" xmlns="http://www.w3.org/2000/svg"
 width="125.000000pt" height="43.000000pt" viewBox="0 0 125.000000 43.000000"
 preserveAspectRatio="xMidYMid meet">
<metadata>
Created by potrace 1.16, written by Peter Selinger 2001-2019
</metadata>
<g transform="translate(0.000000,43.000000) scale(0.100000,-0.100000)"
fill="#000000" stroke="none">
<path d="M160 316 c0 -8 -7 -17 -16 -20 -14 -5 -16 -16 -11 -66 6 -55 5 -59
-16 -62 -26 -4 -26 -21 0 -27 10 -2 22 -9 26 -17 11 -19 27 -18 27 1 0 11 11
15 38 15 52 0 82 -10 82 -26 0 -8 5 -14 10 -14 6 0 10 7 10 15 0 21 26 19 58
-5 42 -31 207 -45 299 -26 73 16 157 45 150 53 -3 2 -40 -5 -83 -16 -107 -27
-149 -31 -219 -23 l-60 7 0 40 c0 29 -4 40 -15 40 -11 0 -15 -10 -14 -32 2
-35 -11 -42 -44 -24 -14 7 -17 19 -14 50 5 47 -2 44 137 65 203 31 305 50 305
58 0 12 -50 10 -131 -7 -41 -8 -136 -23 -212 -33 l-138 -18 -47 26 c-27 14
-59 34 -72 43 -30 21 -50 22 -50 3z m92 -56 c34 -16 69 -30 76 -30 7 0 12 -15
12 -40 0 -29 -4 -40 -15 -40 -10 0 -14 10 -12 36 1 22 -3 39 -10 41 -9 3 -13
-7 -13 -31 l0 -36 -60 0 c-52 0 -60 3 -60 19 0 25 12 111 15 111 2 0 32 -13
67 -30z"/>
<path d="M825 310 c-12 -19 0 -23 102 -31 54 -5 116 -12 138 -15 39 -8 38 -8
-50 -27 -73 -17 -130 -20 -310 -21 -136 -1 -222 -5 -225 -11 -3 -6 59 -11 175
-13 l180 -2 -3 -41 c-4 -40 15 -79 25 -51 7 17 24 15 39 -5 12 -16 13 -16 14
-2 0 13 17 17 98 22 129 8 210 34 155 51 -10 3 -60 12 -110 21 -51 10 -93 18
-93 20 0 1 42 10 93 20 86 17 117 28 117 44 0 4 -66 15 -147 25 -82 10 -158
20 -169 23 -12 2 -25 -1 -29 -7z m55 -134 c0 -8 3 -22 7 -32 4 -11 2 -15 -7
-12 -20 6 -32 58 -14 58 8 0 14 -6 14 -14z m115 -1 c22 -3 63 -11 90 -18 l50
-11 -40 -7 c-22 -4 -73 -8 -112 -8 l-73 -1 0 31 c0 27 3 30 23 26 12 -3 40 -8
62 -12z"/>
</g>
</svg>
