<?xml version="1.0" standalone="no"?>
<!DOCTYPE svg PUBLIC "-//W3C//DTD SVG 20010904//EN"
 "http://www.w3.org/TR/2001/REC-SVG-20010904/DTD/svg10.dtd">
<svg version="1.0" xmlns="http://www.w3.org/2000/svg"
 width="82.000000pt" height="45.000000pt" viewBox="0 0 82.000000 45.000000"
 preserveAspectRatio="xMidYMid meet">
<metadata>
Created by potrace 1.16, written by Peter Selinger 2001-2019
</metadata>
<g transform="translate(0.000000,45.000000) scale(0.100000,-0.100000)"
fill="#000000" stroke="none">
<path d="M420 395 c0 -9 7 -18 15 -21 8 -4 15 -15 15 -26 0 -18 -5 -20 -42
-14 -24 3 -72 6 -108 8 l-65 2 -3 -49 c-2 -27 -9 -53 -15 -58 -9 -7 -9 -10 1
-14 7 -3 12 -24 12 -55 0 -57 23 -64 26 -7 1 19 2 40 3 47 1 8 24 12 80 12 44
0 83 5 86 10 4 6 -25 10 -81 10 l-86 0 6 32 c3 17 7 33 9 34 1 1 41 4 89 6
l86 4 4 -38 c2 -21 0 -38 -5 -38 -5 0 -7 -5 -5 -12 3 -7 -7 -23 -21 -36 l-26
-24 37 5 c29 5 271 96 301 114 16 10 -29 31 -164 77 -75 25 -139 46 -143 46
-3 0 -6 -7 -6 -15z m173 -61 c107 -30 130 -40 107 -48 -8 -3 -61 -21 -117 -40
l-103 -35 0 74 c0 46 4 75 11 75 5 0 51 -12 102 -26z"/>
<path d="M185 380 c-3 -5 -28 -21 -55 -36 -36 -20 -51 -34 -55 -56 -6 -26 1
-36 64 -100 39 -40 73 -69 77 -65 3 3 -17 38 -45 76 -28 39 -51 75 -51 81 0 6
18 30 40 52 22 23 40 46 40 50 0 11 -8 10 -15 -2z"/>
</g>
</svg>
