<?xml version="1.0" standalone="no"?>
<!DOCTYPE svg PUBLIC "-//W3C//DTD SVG 20010904//EN"
 "http://www.w3.org/TR/2001/REC-SVG-20010904/DTD/svg10.dtd">
<svg version="1.0" xmlns="http://www.w3.org/2000/svg"
 width="80.000000pt" height="55.000000pt" viewBox="0 0 80.000000 55.000000"
 preserveAspectRatio="xMidYMid meet">
<metadata>
Created by potrace 1.16, written by Peter Selinger 2001-2019
</metadata>
<g transform="translate(0.000000,55.000000) scale(0.100000,-0.100000)"
fill="#000000" stroke="none">
<path d="M171 462 c-6 -11 -9 -21 -6 -23 2 -2 6 -81 10 -174 8 -210 12 -218
79 -141 33 38 55 55 69 54 12 0 82 2 155 7 128 7 134 6 153 -14 27 -29 39 -26
39 8 0 17 5 33 10 36 6 4 9 21 7 38 -3 30 -6 32 -45 35 -48 4 -59 -9 -43 -51
l11 -27 -58 -2 c-243 -9 -265 -5 -317 52 -19 21 -18 21 21 60 l39 40 174 5
c96 4 178 8 181 10 3 2 4 20 2 40 -4 36 -5 36 -46 33 -38 -3 -41 -5 -38 -30
l3 -28 -150 0 c-82 0 -151 4 -153 8 -1 5 -22 25 -45 46 -39 35 -42 36 -52 18z
m89 -93 c0 -10 -45 -59 -54 -59 -3 0 -6 28 -6 62 l0 62 30 -29 c17 -16 30 -32
30 -36z m10 -190 c0 -15 -52 -69 -61 -63 -5 3 -9 38 -8 77 l2 72 33 -39 c19
-22 34 -43 34 -47z"/>
</g>
</svg>
