<?xml version="1.0" standalone="no"?>
<!DOCTYPE svg PUBLIC "-//W3C//DTD SVG 20010904//EN"
 "http://www.w3.org/TR/2001/REC-SVG-20010904/DTD/svg10.dtd">
<svg version="1.0" xmlns="http://www.w3.org/2000/svg"
 width="71.000000pt" height="38.000000pt" viewBox="0 0 71.000000 38.000000"
 preserveAspectRatio="xMidYMid meet">
<metadata>
Created by potrace 1.16, written by Peter Selinger 2001-2019
</metadata>
<g transform="translate(0.000000,38.000000) scale(0.100000,-0.100000)"
fill="#000000" stroke="none">
<path d="M433 294 c-40 -31 -73 -63 -73 -71 0 -8 4 -13 8 -11 17 6 156 138
147 138 -6 0 -43 -25 -82 -56z"/>
<path d="M532 231 c1 -55 1 -102 -2 -104 -3 -3 -22 9 -43 27 l-38 32 36 47
c20 26 33 47 30 47 -4 0 -28 -19 -54 -42 -46 -41 -47 -44 -33 -65 8 -13 18
-23 23 -23 5 0 25 -10 44 -22 28 -19 35 -29 35 -55 0 -40 20 -45 21 -5 0 15 2
36 4 47 3 17 7 168 6 203 -1 6 -8 12 -17 12 -13 0 -15 -14 -12 -99z"/>
<path d="M253 285 c-3 -9 -4 -17 -2 -19 20 -14 82 -46 85 -43 5 5 -62 77 -71
77 -3 0 -8 -7 -12 -15z"/>
<path d="M167 283 c-15 -14 -5 -32 29 -53 19 -12 37 -21 39 -19 6 7 -62 79
-68 72z"/>
<path d="M80 261 c0 -12 15 -27 40 -40 49 -25 51 -18 5 25 -39 39 -45 41 -45
15z"/>
<path d="M127 169 c-41 -25 -54 -49 -28 -49 11 0 86 68 80 74 -2 3 -26 -9 -52
-25z"/>
<path d="M215 155 c-16 -14 -36 -25 -42 -25 -7 0 -13 -7 -13 -15 0 -28 37 -15
69 25 36 45 30 51 -14 15z"/>
<path d="M352 163 c2 -10 12 -22 23 -28 11 -5 42 -23 68 -38 26 -16 53 -27 59
-25 6 2 -9 16 -33 30 -24 14 -55 38 -68 52 -28 30 -54 34 -49 9z"/>
<path d="M282 147 c-32 -23 -42 -47 -19 -47 13 0 62 58 55 65 -2 3 -18 -6 -36
-18z"/>
</g>
</svg>
