<?xml version="1.0" standalone="no"?>
<!DOCTYPE svg PUBLIC "-//W3C//DTD SVG 20010904//EN"
 "http://www.w3.org/TR/2001/REC-SVG-20010904/DTD/svg10.dtd">
<svg version="1.0" xmlns="http://www.w3.org/2000/svg"
 width="67.000000pt" height="58.000000pt" viewBox="0 0 67.000000 58.000000"
 preserveAspectRatio="xMidYMid meet">
<metadata>
Created by potrace 1.16, written by Peter Selinger 2001-2019
</metadata>
<g transform="translate(0.000000,58.000000) scale(0.100000,-0.100000)"
fill="#000000" stroke="none">
<path d="M151 456 l-23 -24 27 -46 c15 -25 31 -49 36 -52 17 -10 9 -21 -31
-39 -22 -10 -47 -27 -57 -37 -17 -19 -17 -20 2 -34 11 -9 44 -14 84 -14 36 0
71 -4 77 -8 6 -4 26 -31 44 -60 39 -64 58 -64 80 -2 10 26 22 45 31 44 8 0 43
-4 79 -7 35 -4 60 -3 55 1 -6 4 -31 25 -57 46 -27 20 -48 42 -48 47 0 5 18 46
40 90 22 45 40 88 40 96 0 24 -44 11 -138 -42 l-83 -46 -37 30 c-20 16 -48 41
-61 55 -30 32 -32 32 -60 2z m316 -96 c-23 -44 -44 -80 -47 -79 -3 0 -24 17
-47 38 l-43 39 78 41 c42 22 83 41 89 41 8 0 -4 -33 -30 -80z m-209 17 l23
-21 -23 -13 c-13 -7 -26 -12 -29 -13 -7 0 -49 83 -49 96 0 8 48 -23 78 -49z
m102 -74 c54 -40 56 -44 39 -74 -9 -18 -17 -19 -52 -14 -58 10 -72 19 -87 56
-13 29 -12 33 9 50 31 25 34 25 91 -18z m-131 -61 c-12 -2 -33 -1 -47 3 l-26
6 30 20 c29 19 29 19 46 -4 16 -21 16 -22 -3 -25z m236 -22 c17 -19 17 -20 -1
-20 -27 0 -48 16 -40 29 10 16 20 14 41 -9z m-95 -36 c0 -10 -24 -54 -30 -54
-7 0 -30 45 -30 59 0 4 14 6 30 3 17 -2 30 -6 30 -8z"/>
</g>
</svg>
