<?xml version="1.0" standalone="no"?>
<!DOCTYPE svg PUBLIC "-//W3C//DTD SVG 20010904//EN"
 "http://www.w3.org/TR/2001/REC-SVG-20010904/DTD/svg10.dtd">
<svg version="1.0" xmlns="http://www.w3.org/2000/svg"
 width="64.000000pt" height="74.000000pt" viewBox="0 0 64.000000 74.000000"
 preserveAspectRatio="xMidYMid meet">
<metadata>
Created by potrace 1.16, written by Peter Selinger 2001-2019
</metadata>
<g transform="translate(0.000000,74.000000) scale(0.100000,-0.100000)"
fill="#000000" stroke="none">
<path d="M263 653 c-22 -8 -15 -28 17 -51 17 -13 30 -29 30 -36 0 -14 -38 -50
-74 -71 -26 -15 -8 -49 47 -88 l47 -34 -61 -72 c-53 -64 -69 -101 -42 -101 5
0 33 37 63 82 30 46 78 107 107 137 l52 54 -69 74 c-39 40 -70 77 -70 83 0 13
-32 28 -47 23z m105 -134 l33 -30 -31 -49 c-18 -28 -36 -47 -41 -44 -6 3 -21
23 -35 45 l-25 40 27 34 c14 19 29 35 33 35 3 0 21 -14 39 -31z"/>
</g>
</svg>
