<?xml version="1.0" standalone="no"?>
<!DOCTYPE svg PUBLIC "-//W3C//DTD SVG 20010904//EN"
 "http://www.w3.org/TR/2001/REC-SVG-20010904/DTD/svg10.dtd">
<svg version="1.0" xmlns="http://www.w3.org/2000/svg"
 width="100.000000pt" height="62.000000pt" viewBox="0 0 100.000000 62.000000"
 preserveAspectRatio="xMidYMid meet">
<metadata>
Created by potrace 1.16, written by Peter Selinger 2001-2019
</metadata>
<g transform="translate(0.000000,62.000000) scale(0.100000,-0.100000)"
fill="#000000" stroke="none">
<path d="M404 547 c-3 -8 -4 -29 -3 -48 4 -74 10 -71 -100 -63 -105 7 -137 2
-125 -18 5 -7 8 -22 9 -33 0 -19 6 -20 113 -16 75 2 112 0 112 -8 0 -6 -39
-11 -107 -13 -139 -4 -141 -23 -3 -23 75 0 100 -3 100 -13 0 -10 -23 -13 -94
-11 -52 1 -99 -2 -105 -5 -30 -19 -2 -26 94 -26 l105 0 1 -37 c0 -21 1 -59 2
-86 2 -80 22 -47 25 41 3 75 5 82 23 82 20 0 21 -5 18 -77 -3 -47 0 -79 6 -81
6 -1 11 31 13 78 4 102 22 105 22 4 0 -56 3 -75 13 -71 8 2 12 27 12 78 l0 74
70 3 c102 4 108 22 7 22 -83 0 -109 12 -51 24 17 3 58 6 91 6 37 0 57 4 53 10
-3 6 -45 11 -93 11 -48 1 -78 3 -67 6 11 2 30 6 43 9 35 7 26 24 -13 24 -19 0
-35 5 -35 10 0 6 38 10 95 10 122 0 125 18 3 22 l-91 3 -1 50 -1 50 -40 0
c-39 0 -40 -1 -41 -35 -1 -60 -4 -70 -15 -70 -7 0 -10 22 -7 62 2 53 0 63 -15
66 -9 2 -20 -3 -23 -11z m103 -94 c-3 -10 -5 -2 -5 17 0 19 2 27 5 18 2 -10 2
-26 0 -35z m-102 -53 c4 -7 -26 -8 -92 -4 -54 4 -100 8 -102 10 -2 2 39 4 92
4 55 0 99 -4 102 -10z m55 0 c0 -5 -4 -10 -10 -10 -5 0 -10 5 -10 10 0 6 5 10
10 10 6 0 10 -4 10 -10z m50 0 c0 -5 -4 -10 -10 -10 -5 0 -10 5 -10 10 0 6 5
10 10 10 6 0 10 -4 10 -10z m-45 -40 c3 -5 -3 -10 -14 -10 -12 0 -21 5 -21 10
0 6 6 10 14 10 8 0 18 -4 21 -10z m3 -47 c2 -8 -5 -13 -17 -13 -12 0 -21 6
-21 16 0 18 31 15 38 -3z m42 -3 c0 -5 -4 -10 -10 -10 -5 0 -10 5 -10 10 0 6
5 10 10 10 6 0 10 -4 10 -10z"/>
<path d="M622 378 c6 -16 123 -19 123 -3 0 6 -29 11 -64 13 -48 2 -62 0 -59
-10z"/>
</g>
</svg>
