<?xml version="1.0" standalone="no"?>
<!DOCTYPE svg PUBLIC "-//W3C//DTD SVG 20010904//EN"
 "http://www.w3.org/TR/2001/REC-SVG-20010904/DTD/svg10.dtd">
<svg version="1.0" xmlns="http://www.w3.org/2000/svg"
 width="103.000000pt" height="50.000000pt" viewBox="0 0 103.000000 50.000000"
 preserveAspectRatio="xMidYMid meet">
<metadata>
Created by potrace 1.16, written by Peter Selinger 2001-2019
</metadata>
<g transform="translate(0.000000,50.000000) scale(0.100000,-0.100000)"
fill="#000000" stroke="none">
<path d="M800 435 c0 -15 -29 -30 -124 -64 -58 -22 -58 -22 -53 -1 9 33 -23
21 -37 -15 -8 -20 -8 -20 -15 0 -8 19 -8 19 -20 0 -12 -19 -12 -19 -8 3 6 26
-10 30 -21 5 -8 -20 -7 -20 -222 -29 -80 -3 -149 -10 -154 -15 -6 -6 -3 -9 9
-9 14 0 16 -3 8 -11 -18 -18 -3 -39 27 -39 16 0 32 -4 35 -10 3 -5 -1 -10 -9
-10 -8 0 -18 -5 -21 -10 -4 -6 20 -10 65 -10 68 0 70 1 60 20 -10 18 -8 20 25
20 32 0 35 -2 35 -29 0 -17 5 -33 10 -36 15 -9 180 6 180 16 0 5 -29 9 -64 9
-35 0 -71 3 -80 6 -19 7 -22 60 -3 67 9 4 9 6 0 6 -7 1 -13 9 -13 19 0 13 2
14 9 3 5 -7 14 -10 20 -7 6 4 11 4 11 -1 0 -4 18 -9 40 -10 22 -2 40 1 40 6 0
5 7 11 14 14 11 4 13 1 9 -10 -4 -11 -2 -14 5 -9 9 5 12 -6 13 -36 0 -24 4
-52 8 -63 8 -19 8 -19 18 0 11 18 14 18 79 -12 79 -36 124 -49 124 -36 0 9
-100 58 -166 83 -23 8 -33 20 -38 42 -8 39 -4 44 41 53 21 4 71 22 112 41 41
19 75 33 76 32 0 -2 16 -22 34 -45 29 -38 32 -47 26 -86 -10 -65 -48 -112
-131 -163 -11 -7 -16 -15 -12 -19 10 -10 170 97 198 132 12 15 19 35 17 43 -9
33 -122 179 -139 180 -10 0 -18 -7 -18 -15z m-435 -143 c-3 -3 -11 0 -18 7 -9
10 -8 11 6 5 10 -3 15 -9 12 -12z"/>
<path d="M506 401 c-4 -5 -2 -12 3 -15 5 -4 12 -2 15 3 4 5 2 12 -3 15 -5 4
-12 2 -15 -3z"/>
<path d="M433 363 c14 -14 19 -15 29 -4 11 11 10 13 -4 8 -10 -4 -18 -2 -18 3
0 6 -5 10 -12 10 -8 0 -6 -6 5 -17z"/>
<path d="M776 338 c-2 -13 -9 -45 -14 -73 -17 -83 4 -75 33 13 17 52 15 82 -4
82 -6 0 -13 -10 -15 -22z"/>
<path d="M684 327 c-8 -21 8 -69 26 -75 10 -4 12 4 7 33 -7 46 -23 66 -33 42z"/>
</g>
</svg>
