<?xml version="1.0" standalone="no"?>
<!DOCTYPE svg PUBLIC "-//W3C//DTD SVG 20010904//EN"
 "http://www.w3.org/TR/2001/REC-SVG-20010904/DTD/svg10.dtd">
<svg version="1.0" xmlns="http://www.w3.org/2000/svg"
 width="121.000000pt" height="49.000000pt" viewBox="0 0 121.000000 49.000000"
 preserveAspectRatio="xMidYMid meet">
<metadata>
Created by potrace 1.16, written by Peter Selinger 2001-2019
</metadata>
<g transform="translate(0.000000,49.000000) scale(0.100000,-0.100000)"
fill="#000000" stroke="none">
<path d="M310 368 c-19 -5 -64 -18 -100 -29 -36 -10 -73 -19 -82 -19 -26 0
-31 -17 -29 -92 2 -60 0 -68 -16 -69 -10 -1 -5 -5 12 -9 17 -5 51 -15 76 -23
l46 -15 98 45 c107 49 137 51 239 19 22 -7 68 -21 101 -30 l60 -18 60 27 c53
24 68 26 130 20 39 -3 103 -13 144 -21 40 -8 75 -13 76 -12 6 8 20 169 15 176
-11 15 -99 12 -231 -7 l-136 -20 -96 25 c-124 31 -286 64 -312 63 -11 -1 -36
-5 -55 -11z m380 -77 c100 -25 137 -26 208 -7 29 8 86 17 126 21 l73 7 8 -67
c4 -36 4 -69 1 -72 -3 -4 -53 4 -111 17 -103 23 -107 23 -163 6 -114 -34 -145
-39 -177 -28 -16 6 -67 19 -112 29 -46 10 -83 22 -83 28 0 6 -19 9 -46 7 -32
-3 -44 -8 -40 -17 4 -13 -13 -21 -130 -61 -44 -15 -56 -16 -83 -5 -28 12 -31
17 -31 60 0 87 1 88 120 121 25 7 56 16 69 19 27 8 234 -25 371 -58z"/>
</g>
</svg>
