<?xml version="1.0" standalone="no"?>
<!DOCTYPE svg PUBLIC "-//W3C//DTD SVG 20010904//EN"
 "http://www.w3.org/TR/2001/REC-SVG-20010904/DTD/svg10.dtd">
<svg version="1.0" xmlns="http://www.w3.org/2000/svg"
 width="104.000000pt" height="48.000000pt" viewBox="0 0 104.000000 48.000000"
 preserveAspectRatio="xMidYMid meet">
<metadata>
Created by potrace 1.16, written by Peter Selinger 2001-2019
</metadata>
<g transform="translate(0.000000,48.000000) scale(0.100000,-0.100000)"
fill="#000000" stroke="none">
<path d="M550 430 c0 -6 18 -30 40 -54 27 -29 36 -45 28 -49 -8 -2 -34 20 -60
49 -26 30 -49 50 -52 45 -3 -5 13 -30 36 -56 l42 -47 -27 -20 c-25 -18 -46
-20 -269 -21 l-243 -2 -3 -89 -3 -89 241 6 c132 3 245 9 250 12 6 3 8 34 5 71
-3 35 -3 64 -1 64 2 0 28 -11 58 -25 56 -26 117 -31 195 -16 38 7 41 6 33 -9
-5 -9 -16 -22 -24 -30 -17 -13 -21 -30 -8 -30 4 0 29 25 55 55 l48 55 -30 42
c-51 73 -69 93 -76 86 -4 -4 7 -27 24 -52 17 -24 31 -47 31 -50 0 -3 -15 3
-33 13 -19 10 -60 25 -93 32 -32 7 -63 18 -69 25 -77 93 -95 109 -95 84z m220
-150 c30 -10 56 -23 58 -28 8 -26 -175 -32 -232 -8 -43 18 -43 18 -1 40 40 21
108 20 175 -4z m-260 -80 l0 -71 -67 3 c-85 4 -85 21 -1 29 l63 6 -67 1 c-61
2 -68 4 -68 22 0 18 7 20 59 20 33 0 63 5 66 10 4 6 -18 10 -59 10 -51 0 -66
3 -66 15 0 10 17 15 68 18 37 2 68 4 70 5 1 1 2 -30 2 -68z m-261 46 c11 -13
-2 -15 -88 -18 -91 -3 -101 -1 -101 15 0 15 11 17 89 17 65 0 92 -4 100 -14z
m101 -2 c0 -11 -9 -14 -37 -12 -52 4 -56 28 -4 28 30 0 41 -4 41 -16z m-90
-49 c0 -16 -1 -16 -122 -18 -68 -2 -78 0 -78 16 0 15 11 17 100 17 82 0 100
-3 100 -15z m90 -30 c0 -45 0 -45 -35 -45 -28 0 -35 4 -35 20 0 16 7 20 33 22
l32 1 -32 4 c-25 3 -33 9 -33 24 0 15 7 19 35 19 35 0 35 0 35 -45z m-90 -25
c0 -19 -7 -20 -100 -20 -93 0 -100 1 -100 20 0 19 7 20 100 20 93 0 100 -1
100 -20z"/>
</g>
</svg>
