<?xml version="1.0" standalone="no"?>
<!DOCTYPE svg PUBLIC "-//W3C//DTD SVG 20010904//EN"
 "http://www.w3.org/TR/2001/REC-SVG-20010904/DTD/svg10.dtd">
<svg version="1.0" xmlns="http://www.w3.org/2000/svg"
 width="82.000000pt" height="51.000000pt" viewBox="0 0 82.000000 51.000000"
 preserveAspectRatio="xMidYMid meet">
<metadata>
Created by potrace 1.16, written by Peter Selinger 2001-2019
</metadata>
<g transform="translate(0.000000,51.000000) scale(0.100000,-0.100000)"
fill="#000000" stroke="none">
<path d="M155 398 c-3 -11 -12 -104 -15 -172 -3 -58 94 -81 305 -72 77 3 150
9 162 12 17 5 22 1 25 -18 5 -29 10 -17 31 77 8 38 13 72 10 75 -2 3 -59 5
-126 6 -67 0 -141 1 -164 2 l-43 2 0 40 c0 29 -4 40 -15 40 -13 0 -15 -15 -14
-85 1 -47 5 -85 10 -85 5 0 9 11 9 25 0 21 5 25 33 26 17 0 46 2 62 4 17 2 67
7 113 11 l82 7 1 -29 c0 -16 2 -41 4 -55 l3 -26 -144 -6 c-149 -7 -241 3 -281
29 -26 16 -29 49 -13 134 8 41 7 56 -2 62 -18 11 -28 10 -33 -4z"/>
</g>
</svg>
