<?xml version="1.0" standalone="no"?>
<!DOCTYPE svg PUBLIC "-//W3C//DTD SVG 20010904//EN"
 "http://www.w3.org/TR/2001/REC-SVG-20010904/DTD/svg10.dtd">
<svg version="1.0" xmlns="http://www.w3.org/2000/svg"
 width="104.000000pt" height="44.000000pt" viewBox="0 0 104.000000 44.000000"
 preserveAspectRatio="xMidYMid meet">
<metadata>
Created by potrace 1.16, written by Peter Selinger 2001-2019
</metadata>
<g transform="translate(0.000000,44.000000) scale(0.100000,-0.100000)"
fill="#000000" stroke="none">
<path d="M256 253 c4 -71 10 -132 15 -138 5 -5 9 10 9 37 0 26 5 50 10 53 25
15 162 13 395 -7 138 -12 254 -24 258 -28 5 -4 -13 -10 -40 -14 -26 -4 -104
-16 -173 -26 -187 -30 -471 -50 -515 -36 l-35 11 0 65 c0 43 3 60 9 51 5 -8 7
-37 4 -63 -4 -33 -2 -48 6 -48 7 0 11 33 11 104 0 58 4 107 9 110 5 4 8 -37 5
-98 -2 -63 0 -107 6 -111 6 -4 10 40 9 122 0 70 -3 122 -6 115 -4 -10 -8 -10
-19 -1 -12 10 -14 2 -14 -44 0 -31 -3 -58 -8 -60 -4 -3 -6 21 -5 54 1 32 -2
61 -8 64 -8 6 -9 -23 -11 -227 -1 -18 -6 -28 -15 -28 -13 0 -14 17 -11 100 3
55 1 100 -4 100 -4 0 -8 -41 -8 -91 0 -68 -3 -90 -12 -86 -10 3 -12 32 -9 115
3 100 1 112 -14 112 -14 0 -16 -11 -13 -89 2 -75 0 -91 -14 -100 -12 -8 -15
-17 -9 -37 6 -23 19 -32 72 -51 75 -27 141 -29 290 -9 57 8 142 17 189 21 47
4 101 11 120 15 19 5 67 14 106 19 38 6 94 16 124 22 47 10 52 13 37 24 -19
14 -155 30 -370 45 -76 5 -141 11 -146 14 -4 3 -38 6 -77 6 -116 3 -114 2
-114 76 0 57 -2 64 -20 64 -19 0 -20 -4 -14 -127z"/>
<path d="M130 353 c0 -13 5 -23 10 -23 13 0 13 11 0 30 -8 12 -10 11 -10 -7z"/>
</g>
</svg>
