<?xml version="1.0" standalone="no"?>
<!DOCTYPE svg PUBLIC "-//W3C//DTD SVG 20010904//EN"
 "http://www.w3.org/TR/2001/REC-SVG-20010904/DTD/svg10.dtd">
<svg version="1.0" xmlns="http://www.w3.org/2000/svg"
 width="39.000000pt" height="46.000000pt" viewBox="0 0 39.000000 46.000000"
 preserveAspectRatio="xMidYMid meet">
<metadata>
Created by potrace 1.16, written by Peter Selinger 2001-2019
</metadata>
<g transform="translate(0.000000,46.000000) scale(0.100000,-0.100000)"
fill="#000000" stroke="none">
<path d="M120 405 c0 -8 9 -20 20 -27 11 -7 20 -23 20 -35 0 -18 -6 -23 -25
-23 -23 0 -25 4 -25 46 0 32 -4 44 -12 41 -10 -3 -12 -46 -10 -178 1 -96 6
-175 11 -177 13 -4 126 14 181 28 73 20 89 56 45 108 -24 29 -24 29 -5 47 11
10 20 26 20 36 0 28 -48 77 -82 85 -18 3 -56 19 -85 35 -41 22 -53 25 -53 14z
m133 -83 c26 -23 17 -53 -21 -75 -18 -11 -34 -18 -36 -16 -2 2 -6 30 -10 63
l-6 58 27 -7 c16 -3 36 -14 46 -23z m-93 -36 c0 -8 3 -21 6 -29 4 -10 -4 -16
-25 -19 -29 -4 -31 -3 -31 29 0 29 3 33 25 33 15 0 25 -6 25 -14z m10 -96 c0
-12 -10 -19 -30 -22 -27 -4 -30 -2 -30 22 0 24 3 26 30 22 20 -3 30 -10 30
-22z m82 3 c21 -19 24 -66 5 -81 -6 -6 -24 -13 -40 -17 l-27 -7 0 61 c0 56 2
61 22 61 12 0 30 -7 40 -17z m-82 -78 c0 -15 -8 -25 -22 -29 -36 -9 -38 -8
-38 27 0 32 2 33 30 29 23 -3 30 -9 30 -27z"/>
</g>
</svg>
