<?xml version="1.0" standalone="no"?>
<!DOCTYPE svg PUBLIC "-//W3C//DTD SVG 20010904//EN"
 "http://www.w3.org/TR/2001/REC-SVG-20010904/DTD/svg10.dtd">
<svg version="1.0" xmlns="http://www.w3.org/2000/svg"
 width="91.000000pt" height="51.000000pt" viewBox="0 0 91.000000 51.000000"
 preserveAspectRatio="xMidYMid meet">
<metadata>
Created by potrace 1.16, written by Peter Selinger 2001-2019
</metadata>
<g transform="translate(0.000000,51.000000) scale(0.100000,-0.100000)"
fill="#000000" stroke="none">
<path d="M242 412 c-14 -37 21 -40 264 -22 71 5 132 6 136 2 3 -4 8 -64 10
-134 l3 -128 -25 -5 c-38 -8 -122 -8 -159 0 l-33 7 3 97 c3 80 2 96 -11 96
-11 0 -14 -9 -12 -38 l4 -37 -54 5 c-113 11 -203 13 -219 5 -11 -6 -16 -21
-15 -47 1 -21 3 -64 4 -96 1 -36 6 -56 12 -52 6 3 10 17 10 31 0 21 5 24 38
26 80 3 99 5 145 13 38 6 47 5 47 -8 0 -37 49 -45 181 -32 73 7 77 6 84 -14 8
-25 25 -18 25 10 0 13 10 24 30 30 36 13 32 28 -6 21 -25 -5 -26 -4 -21 44 19
170 20 224 5 229 -8 3 -110 7 -228 8 -168 2 -214 -1 -218 -11z m178 -205 c0
-35 -19 -47 -76 -47 -46 0 -53 3 -56 22 -5 32 -28 35 -28 4 0 -14 -6 -26 -12
-27 -7 0 -28 -2 -45 -5 -32 -4 -33 -3 -33 36 l0 40 125 0 c124 0 125 0 125
-23z"/>
<path d="M522 261 c3 -98 9 -133 22 -120 3 2 8 51 12 108 6 83 4 105 -7 112
-28 17 -31 7 -27 -100z"/>
</g>
</svg>
