<?xml version="1.0" standalone="no"?>
<!DOCTYPE svg PUBLIC "-//W3C//DTD SVG 20010904//EN"
 "http://www.w3.org/TR/2001/REC-SVG-20010904/DTD/svg10.dtd">
<svg version="1.0" xmlns="http://www.w3.org/2000/svg"
 width="110.000000pt" height="51.000000pt" viewBox="0 0 110.000000 51.000000"
 preserveAspectRatio="xMidYMid meet">
<metadata>
Created by potrace 1.16, written by Peter Selinger 2001-2019
</metadata>
<g transform="translate(0.000000,51.000000) scale(0.100000,-0.100000)"
fill="#000000" stroke="none">
<path d="M434 422 c-17 -31 -52 -90 -78 -131 l-47 -73 -99 6 c-71 6 -100 4
-105 -4 -15 -25 22 -31 155 -25 274 12 325 15 342 21 10 3 18 1 18 -5 0 -5 28
-12 63 -15 106 -9 201 -16 235 -16 32 0 33 -1 30 -37 -1 -20 2 -38 8 -40 12
-4 55 165 44 172 -5 3 -30 1 -57 -4 -75 -15 -317 -33 -321 -24 -1 4 -29 57
-61 117 -70 133 -83 139 -127 58z m172 -189 c-2 -2 -63 -5 -135 -6 -90 -1
-130 1 -127 9 2 6 34 57 71 113 l66 103 65 -108 c35 -59 62 -109 60 -111z
m352 -5 c-2 -26 -7 -33 -23 -31 -11 1 -76 5 -145 9 -69 4 -131 10 -139 14 -8
4 28 11 80 14 140 10 203 17 208 22 13 13 22 0 19 -28z"/>
</g>
</svg>
