<?xml version="1.0" standalone="no"?>
<!DOCTYPE svg PUBLIC "-//W3C//DTD SVG 20010904//EN"
 "http://www.w3.org/TR/2001/REC-SVG-20010904/DTD/svg10.dtd">
<svg version="1.0" xmlns="http://www.w3.org/2000/svg"
 width="76.000000pt" height="54.000000pt" viewBox="0 0 76.000000 54.000000"
 preserveAspectRatio="xMidYMid meet">
<metadata>
Created by potrace 1.16, written by Peter Selinger 2001-2019
</metadata>
<g transform="translate(0.000000,54.000000) scale(0.100000,-0.100000)"
fill="#000000" stroke="none">
<path d="M327 493 c-4 -6 -5 -58 -4 -116 l3 -106 -125 -3 -126 -3 -3 -98 c-2
-67 1 -97 9 -97 6 0 13 9 16 19 5 19 17 20 256 21 139 1 264 2 280 1 24 -1 32
7 29 30 -1 4 3 33 8 65 5 33 11 91 14 129 4 39 9 86 12 106 3 24 1 40 -7 44
-19 12 -355 19 -362 8z m313 -187 c0 -155 -1 -164 -20 -169 -40 -10 -520 -7
-520 4 0 5 5 30 11 55 l11 44 82 0 c44 0 91 3 103 6 18 5 21 3 16 -15 -3 -12
-1 -21 5 -21 10 0 27 79 38 178 8 72 4 70 134 75 47 2 97 4 113 5 l27 2 0
-164z"/>
<path d="M458 424 c-3 -3 -2 -21 3 -40 6 -19 8 -38 5 -42 -9 -15 -9 -182 0
-183 12 0 44 163 34 176 -4 6 -6 20 -4 33 6 37 -20 75 -38 56z"/>
<path d="M543 377 c4 -31 3 -58 -2 -61 -15 -9 4 -176 20 -176 6 0 8 55 7 142
-2 111 -6 142 -17 146 -11 4 -13 -6 -8 -51z"/>
</g>
</svg>
