<?xml version="1.0" standalone="no"?>
<!DOCTYPE svg PUBLIC "-//W3C//DTD SVG 20010904//EN"
 "http://www.w3.org/TR/2001/REC-SVG-20010904/DTD/svg10.dtd">
<svg version="1.0" xmlns="http://www.w3.org/2000/svg"
 width="74.000000pt" height="51.000000pt" viewBox="0 0 74.000000 51.000000"
 preserveAspectRatio="xMidYMid meet">
<metadata>
Created by potrace 1.16, written by Peter Selinger 2001-2019
</metadata>
<g transform="translate(0.000000,51.000000) scale(0.100000,-0.100000)"
fill="#000000" stroke="none">
<path d="M316 411 c-25 -12 -28 -17 -22 -50 l6 -37 -98 2 c-129 3 -130 2 -118
-80 6 -36 14 -66 18 -66 4 0 8 6 8 14 0 19 32 26 117 26 l72 0 3 -57 3 -58 93
0 c52 0 97 4 100 10 8 13 32 298 26 304 -11 12 -181 5 -208 -8z m173 -153 c-2
-114 -5 -138 -17 -133 -7 3 -44 5 -82 5 l-68 0 5 43 c2 23 5 80 6 127 l2 85
59 7 c32 4 61 10 63 12 3 3 12 2 20 -1 12 -5 14 -30 12 -145z m-187 35 c11
-48 2 -53 -96 -53 l-93 0 5 29 c4 27 8 30 46 34 107 9 134 8 138 -10z"/>
</g>
</svg>
