<?xml version="1.0" standalone="no"?>
<!DOCTYPE svg PUBLIC "-//W3C//DTD SVG 20010904//EN"
 "http://www.w3.org/TR/2001/REC-SVG-20010904/DTD/svg10.dtd">
<svg version="1.0" xmlns="http://www.w3.org/2000/svg"
 width="71.000000pt" height="39.000000pt" viewBox="0 0 71.000000 39.000000"
 preserveAspectRatio="xMidYMid meet">
<metadata>
Created by potrace 1.16, written by Peter Selinger 2001-2019
</metadata>
<g transform="translate(0.000000,39.000000) scale(0.100000,-0.100000)"
fill="#000000" stroke="none">
<path d="M291 257 c-5 -14 -7 -35 -4 -47 5 -20 3 -21 -38 -16 -102 12 -189 17
-189 9 1 -31 21 -37 122 -37 l103 -1 5 -30 c4 -24 11 -31 32 -33 35 -4 77 26
78 56 0 20 5 22 58 22 79 0 162 11 162 21 0 5 -49 9 -110 9 -110 0 -110 0
-110 24 0 30 -5 33 -58 42 -38 6 -42 4 -51 -19z m89 -60 c5 -36 2 -51 -10 -62
-27 -24 -30 -18 -30 51 0 57 2 65 18 62 12 -2 18 -16 22 -51z"/>
</g>
</svg>
