<?xml version="1.0" standalone="no"?>
<!DOCTYPE svg PUBLIC "-//W3C//DTD SVG 20010904//EN"
 "http://www.w3.org/TR/2001/REC-SVG-20010904/DTD/svg10.dtd">
<svg version="1.0" xmlns="http://www.w3.org/2000/svg"
 width="119.000000pt" height="183.000000pt" viewBox="0 0 119.000000 183.000000"
 preserveAspectRatio="xMidYMid meet">
<metadata>
Created by potrace 1.16, written by Peter Selinger 2001-2019
</metadata>
<g transform="translate(0.000000,183.000000) scale(0.100000,-0.100000)"
fill="#000000" stroke="none">
<path d="M384 1715 c3 -8 1 -15 -5 -15 -6 0 -9 -6 -6 -12 2 -8 16 -12 31 -10
18 2 26 0 22 -7 -4 -5 -13 -8 -20 -5 -19 7 -32 -16 -15 -27 8 -5 10 -9 6 -9
-5 0 1 -13 12 -29 l20 -28 -86 -7 c-92 -7 -112 0 -135 49 -33 73 -52 92 -73
75 -14 -12 -14 -15 3 -34 10 -12 31 -39 47 -60 l28 -39 -42 6 c-58 7 -93 41
-91 87 3 56 1 72 -9 66 -5 -3 -12 -32 -16 -65 -11 -93 24 -127 123 -117 41 3
56 0 77 -16 20 -15 25 -16 25 -5 0 21 22 27 88 26 l57 0 -33 -17 c-20 -9 -31
-22 -29 -31 4 -24 39 -14 68 19 30 35 44 38 36 9 -9 -32 21 -35 53 -4 27 26
28 26 34 7 10 -29 36 -35 58 -15 19 17 21 17 42 -10 30 -37 39 -24 14 19 -11
18 -17 38 -13 44 3 5 33 10 65 10 61 0 90 7 90 20 0 5 -25 7 -55 5 -52 -4 -55
-3 -45 16 9 16 22 19 77 19 91 0 70 18 -25 22 -91 3 -118 17 -37 19 33 1 66 1
73 0 6 -1 12 3 12 9 0 6 -34 10 -89 10 -83 0 -89 -1 -94 -22 -8 -30 -1 -38 34
-38 16 0 29 -3 29 -6 0 -13 -36 -33 -59 -34 -18 0 -22 4 -18 18 3 15 -1 19
-22 18 -19 -1 -26 -6 -26 -20 0 -29 -20 -30 -39 -1 -9 14 -24 25 -32 25 -15 0
-15 -3 1 -26 l16 -25 -33 3 c-23 2 -36 10 -45 28 -12 24 -11 25 25 32 20 4 60
8 87 9 l50 1 -39 8 c-21 4 -47 5 -56 3 -10 -3 -21 0 -24 6 -5 7 10 11 43 11
68 0 66 20 -1 22 l-53 1 55 6 c45 5 50 7 30 13 -14 4 -58 8 -99 8 -61 0 -72
-2 -67 -15z m213 -172 c-15 -15 -37 -11 -37 7 0 10 31 19 43 12 5 -2 2 -11 -6
-19z m-77 8 c0 -13 -28 -22 -35 -11 -3 4 1 11 7 13 20 8 28 8 28 -2z"/>
<path d="M672 1723 c-23 -2 -40 -8 -37 -14 7 -11 126 -10 170 1 27 7 25 8 -17
9 -25 0 -52 2 -60 4 -7 2 -32 2 -56 0z"/>
<path d="M387 1312 c-33 -2 -55 -7 -52 -13 7 -10 124 -10 170 0 28 7 27 8 -15
12 -25 2 -71 3 -103 1z"/>
<path d="M233 1289 c-12 -12 30 -94 70 -136 20 -22 20 -23 1 -23 -39 0 -64 12
-64 31 0 24 -29 37 -41 18 -34 -54 15 -76 171 -78 63 -1 117 -4 120 -7 3 -3
-4 -12 -14 -20 -30 -21 -9 -31 26 -11 29 17 48 15 48 -3 0 -13 32 -50 43 -50
5 0 4 7 -3 15 -10 12 -10 18 0 30 18 21 26 19 61 -17 20 -22 29 -27 25 -14 -6
18 9 46 24 46 5 0 17 -15 29 -32 26 -41 27 -33 2 18 -11 21 -18 40 -17 41 1 2
46 5 100 8 95 4 116 9 116 24 0 4 -21 4 -47 0 -27 -4 -68 -8 -92 -8 l-45 -1
29 30 c37 39 23 38 -27 -1 -41 -33 -61 -32 -39 3 8 13 9 18 1 13 -7 -4 -23 -2
-36 5 -18 10 -27 10 -37 1 -8 -6 -27 -8 -44 -5 -26 5 -30 3 -29 -17 1 -34 -21
-34 -39 0 -15 30 -38 40 -49 22 -3 -4 3 -16 14 -26 27 -25 25 -34 -7 -30 -16
2 -54 4 -86 4 l-58 1 -39 84 c-42 91 -51 101 -67 85z m420 -144 c7 -18 -9 -29
-30 -21 -12 5 -13 9 -3 21 16 19 26 19 33 0z m-53 -55 c0 -5 -2 -10 -4 -10 -2
0 -11 -3 -19 -6 -8 -3 -17 2 -20 10 -5 12 0 16 18 16 14 0 25 -4 25 -10z m75
-4 c-20 -14 -35 -12 -35 5 0 5 12 9 27 9 26 0 26 -1 8 -14z"/>
<path d="M676 1291 c-3 -5 0 -11 7 -13 21 -8 207 4 207 13 0 12 -207 12 -214
0z"/>
<path d="M344 1265 c10 -7 15 -18 11 -24 -4 -8 29 -11 105 -11 75 0 109 3 105
10 -4 6 -19 9 -33 7 -15 -2 -38 0 -52 4 -21 6 -17 7 18 8 23 1 42 6 42 11 0 6
-42 10 -107 10 -95 -1 -106 -2 -89 -15z m94 -12 c-10 -2 -28 -2 -40 0 -13 2
-5 4 17 4 22 1 32 -1 23 -4z"/>
<path d="M693 1248 c2 -7 13 -13 25 -12 12 0 60 1 107 2 129 3 106 22 -26 22
-84 0 -110 -3 -106 -12z"/>
<path d="M763 848 c-64 -10 -81 -23 -40 -31 l22 -4 -22 -2 c-30 -1 -30 -21 0
-21 40 0 141 21 152 31 7 7 -12 9 -55 5 -60 -5 -61 -5 -16 4 54 10 87 31 46
29 -14 -1 -53 -6 -87 -11z"/>
<path d="M476 830 c-34 -4 -39 -9 -42 -33 -3 -26 -2 -27 39 -21 23 3 67 11 97
17 l55 11 -35 7 c-30 5 -31 7 -8 8 15 0 30 6 33 12 7 10 -53 10 -139 -1z"/>
<path d="M254 774 c-9 -21 -22 -43 -30 -51 -21 -21 -17 -61 7 -73 11 -7 51
-12 87 -13 l67 -2 19 -40 c14 -28 21 -35 23 -23 3 9 -1 27 -7 38 -6 12 -9 24
-7 27 3 2 47 7 99 9 51 3 99 7 106 9 23 8 12 -15 -13 -27 -14 -6 -25 -17 -25
-25 0 -24 30 -26 54 -4 23 21 23 21 41 1 14 -15 22 -17 37 -9 11 6 26 8 34 5
11 -4 14 -1 9 13 -6 21 18 46 35 36 8 -5 8 -11 0 -20 -15 -18 -3 -38 17 -30 9
3 25 -3 36 -12 20 -17 20 -17 13 2 -18 45 -17 54 6 68 12 9 44 19 71 22 55 8
63 25 11 25 -31 0 -35 2 -24 15 18 21 3 19 -27 -5 -27 -21 -63 -27 -63 -10 0
7 -6 7 -19 0 -29 -15 -34 -13 -28 13 5 19 2 22 -26 21 -24 -1 -32 -5 -32 -20
0 -29 -30 -28 -43 2 -10 21 -15 24 -27 14 -11 -9 -12 -17 -4 -32 17 -31 -1
-36 -23 -5 -11 15 -26 27 -34 27 -16 0 -19 -21 -5 -36 6 -5 -28 -10 -94 -12
l-104 -2 -29 57 c-27 56 -54 75 -60 42 -3 -18 36 -71 48 -64 4 3 6 -4 3 -15
-4 -15 -14 -20 -39 -20 -18 0 -36 6 -40 12 -6 9 -10 5 -15 -12 l-7 -25 -1 25
c-1 14 10 47 24 73 25 45 26 67 4 67 -6 0 -17 -16 -25 -36z m581 -114 c-3 -5
-10 -10 -16 -10 -5 0 -9 5 -9 10 0 6 7 10 16 10 8 0 12 -4 9 -10z m-130 -31
c-8 -12 -35 -12 -35 0 0 11 22 20 33 14 4 -2 5 -9 2 -14z"/>
<path d="M859 796 c-2 -2 -31 -7 -64 -11 -58 -6 -85 -18 -72 -31 3 -4 26 -2
49 4 24 6 63 13 88 16 25 3 46 5 48 5 1 1 2 6 2 11 0 9 -42 14 -51 6z"/>
<path d="M511 766 c-46 -7 -76 -16 -79 -25 -3 -10 3 -12 24 -7 16 3 64 11 107
18 42 6 77 16 77 20 0 10 -36 9 -129 -6z"/>
<path d="M407 444 c-17 -18 13 -24 118 -24 65 0 116 4 120 10 4 6 -31 10 -99
10 -57 0 -111 2 -118 5 -8 3 -17 3 -21 -1z"/>
<path d="M687 424 c-12 -12 4 -24 31 -25 l27 -1 -25 -8 c-47 -14 5 -23 95 -15
103 8 105 24 3 19 -51 -3 -67 -1 -53 5 11 5 46 10 78 10 36 1 56 5 52 11 -7
11 -198 14 -208 4z"/>
<path d="M333 403 c-18 -7 -16 -28 7 -73 27 -53 25 -60 -13 -60 -30 0 -33 3
-47 52 -14 50 -16 51 -33 34 -17 -17 -17 -19 5 -54 12 -19 17 -33 11 -29 -6 4
-16 0 -22 -7 -18 -22 3 -30 75 -27 l63 2 26 -50 c14 -28 30 -51 35 -51 14 0
13 5 -11 51 -11 23 -19 42 -17 44 10 8 198 14 198 6 0 -5 -16 -18 -36 -30 -19
-12 -32 -26 -29 -31 10 -17 39 -11 53 10 7 11 19 20 28 20 11 0 15 -6 11 -20
-4 -14 0 -20 12 -20 9 0 22 -5 29 -12 17 -17 27 -1 11 18 -11 14 -10 19 10 35
28 23 42 16 39 -18 -4 -36 14 -39 50 -8 31 26 56 25 66 -1 3 -8 11 -14 17 -14
7 0 2 11 -11 24 -33 37 -21 58 33 55 67 -4 107 0 107 11 0 6 -28 10 -62 10
-63 1 -63 1 -40 19 39 33 24 43 -17 11 -43 -35 -87 -38 -85 -7 1 9 -4 17 -11
17 -7 0 -15 6 -18 13 -4 9 -8 9 -23 -1 -37 -24 -45 -24 -64 1 -19 24 -25 25
-110 25 -50 -1 -93 2 -97 6 -3 3 38 7 93 8 86 1 92 2 44 8 -64 8 -59 16 12 19
17 0 29 4 25 7 -10 10 -226 14 -232 4 -4 -6 -1 -10 4 -10 6 0 11 -6 11 -14 0
-8 6 -17 13 -19 7 -3 5 -6 -5 -6 -10 -1 -18 -8 -18 -17 0 -14 10 -16 76 -12
41 3 70 2 63 -3 -10 -6 -9 -12 5 -28 19 -21 19 -21 -35 -21 -99 0 -128 9 -143
44 -34 80 -42 93 -53 89z m147 -23 c0 -5 -2 -10 -4 -10 -3 0 -8 5 -11 10 -3 6
-1 10 4 10 6 0 11 -4 11 -10z m178 -81 l24 -29 -29 0 c-21 0 -36 9 -51 30
l-23 30 28 -1 c19 0 36 -10 51 -30z m92 -19 c0 -5 -7 -10 -15 -10 -8 0 -15 5
-15 10 0 6 7 10 15 10 8 0 15 -4 15 -10z m-58 -52 c-16 -16 -25 -19 -33 -11
-16 16 -2 33 29 33 l26 0 -22 -22z m103 13 c9 -16 -30 -32 -43 -19 -7 7 -12
16 -12 20 0 11 48 10 55 -1z"/>
<path d="M700 349 c0 -7 39 -10 115 -8 63 1 115 6 115 11 0 4 -52 8 -115 8
-75 0 -115 -4 -115 -11z"/>
</g>
</svg>
