<?xml version="1.0" standalone="no"?>
<!DOCTYPE svg PUBLIC "-//W3C//DTD SVG 20010904//EN"
 "http://www.w3.org/TR/2001/REC-SVG-20010904/DTD/svg10.dtd">
<svg version="1.0" xmlns="http://www.w3.org/2000/svg"
 width="53.000000pt" height="40.000000pt" viewBox="0 0 53.000000 40.000000"
 preserveAspectRatio="xMidYMid meet">
<metadata>
Created by potrace 1.16, written by Peter Selinger 2001-2019
</metadata>
<g transform="translate(0.000000,40.000000) scale(0.100000,-0.100000)"
fill="#000000" stroke="none">
<path d="M201 359 c-23 -19 -24 -22 -13 -80 6 -34 7 -68 3 -77 -39 -80 -71
-155 -71 -167 0 -22 18 -18 25 5 5 15 12 19 26 15 16 -5 116 7 172 21 4 1 12
2 18 3 5 0 8 5 5 10 -3 5 -24 7 -47 4 l-41 -6 4 54 c3 48 6 54 26 57 18 3 23
-1 22 -15 -5 -39 1 -73 11 -73 6 0 9 17 7 41 -3 35 0 43 18 50 20 7 22 4 29
-47 3 -29 4 -57 1 -62 -2 -4 -1 -14 4 -22 13 -20 18 13 25 163 5 100 3 128 -7
131 -7 3 -53 7 -103 10 -80 4 -93 3 -114 -15z m189 -74 c0 -63 -1 -65 -25 -65
-14 0 -25 5 -25 10 0 6 9 10 20 10 11 0 20 5 20 10 0 6 -9 10 -20 10 -16 0
-20 7 -20 33 0 24 -3 28 -10 17 -5 -8 -7 -23 -4 -32 4 -13 0 -18 -14 -18 -16
0 -21 8 -24 45 l-3 45 52 0 53 0 0 -65z m-120 14 c0 -36 -2 -40 -22 -37 -19 2
-24 10 -26 41 -3 34 -1 37 22 37 24 0 26 -4 26 -41z m60 -70 c0 -12 -37 -12
-44 0 -3 4 -3 11 0 14 8 7 44 -4 44 -14z m-60 -64 l0 -75 -45 0 c-33 0 -45 4
-45 14 0 8 5 18 10 21 6 3 10 -2 10 -12 0 -15 2 -15 10 -3 5 8 5 19 0 25 -6 7
-2 22 10 40 11 17 20 38 20 48 0 9 7 17 15 17 12 0 15 -15 15 -75z"/>
<path d="M0 8 c0 -5 120 -7 268 -6 147 1 251 3 232 5 -78 7 -500 7 -500 1z"/>
</g>
</svg>
