<?xml version="1.0" standalone="no"?>
<!DOCTYPE svg PUBLIC "-//W3C//DTD SVG 20010904//EN"
 "http://www.w3.org/TR/2001/REC-SVG-20010904/DTD/svg10.dtd">
<svg version="1.0" xmlns="http://www.w3.org/2000/svg"
 width="74.000000pt" height="43.000000pt" viewBox="0 0 74.000000 43.000000"
 preserveAspectRatio="xMidYMid meet">
<metadata>
Created by potrace 1.16, written by Peter Selinger 2001-2019
</metadata>
<g transform="translate(0.000000,43.000000) scale(0.100000,-0.100000)"
fill="#000000" stroke="none">
<path d="M295 342 c-15 -15 17 -22 96 -22 l89 0 0 -74 c0 -41 3 -82 6 -91 7
-18 -9 -18 -109 1 -44 8 -69 37 -61 71 8 32 -2 54 -22 46 -11 -4 -15 -14 -12
-34 4 -28 3 -29 -34 -29 -37 0 -39 2 -36 28 2 19 -2 27 -12 27 -9 0 -16 -11
-18 -27 -3 -22 -9 -28 -28 -28 -20 0 -24 5 -24 29 0 35 13 41 86 41 88 0 62
18 -33 22 -49 2 -91 3 -95 1 -3 -2 -2 -20 4 -40 8 -30 7 -38 -6 -45 -20 -11
-21 -38 -1 -38 8 0 15 -7 15 -15 0 -22 17 -18 23 5 4 15 14 20 36 20 17 0 31
-5 31 -11 0 -8 4 -8 13 -2 6 6 24 12 39 15 19 4 28 0 31 -13 3 -9 17 -25 31
-35 23 -14 58 -18 202 -22 126 -3 174 -2 174 7 0 11 -23 14 -123 12 -51 -1
-58 1 -53 17 2 9 8 50 11 90 l7 73 69 -2 c62 -2 90 4 78 15 -6 5 -369 13 -374
8z"/>
</g>
</svg>
