<?xml version="1.0" standalone="no"?>
<!DOCTYPE svg PUBLIC "-//W3C//DTD SVG 20010904//EN"
 "http://www.w3.org/TR/2001/REC-SVG-20010904/DTD/svg10.dtd">
<svg version="1.0" xmlns="http://www.w3.org/2000/svg"
 width="110.000000pt" height="72.000000pt" viewBox="0 0 110.000000 72.000000"
 preserveAspectRatio="xMidYMid meet">
<metadata>
Created by potrace 1.16, written by Peter Selinger 2001-2019
</metadata>
<g transform="translate(0.000000,72.000000) scale(0.100000,-0.100000)"
fill="#000000" stroke="none">
<path d="M413 656 c-15 -23 24 -26 197 -17 15 1 20 5 15 10 -13 12 -205 19
-212 7z"/>
<path d="M680 655 c-18 -22 16 -26 121 -15 52 5 120 10 152 10 31 0 57 4 57 9
0 5 -72 9 -159 9 -123 1 -162 -2 -171 -13z"/>
<path d="M355 611 c-11 -19 24 -24 132 -18 117 7 149 17 57 17 -32 1 -87 3
-120 6 -39 3 -64 1 -69 -5z"/>
<path d="M683 608 c3 -10 33 -12 117 -10 169 6 181 21 17 21 -107 1 -138 -2
-134 -11z"/>
<path d="M195 599 c-4 -6 6 -27 22 -47 52 -64 83 -121 72 -128 -17 -10 -75 -7
-98 6 -12 6 -33 36 -46 66 -14 32 -30 54 -39 54 -21 0 -20 -10 4 -40 11 -14
20 -31 20 -37 0 -7 5 -13 10 -13 6 0 10 -9 10 -20 0 -46 90 -65 215 -45 36 6
38 6 21 -8 -12 -9 -16 -19 -11 -27 6 -10 0 -12 -28 -7 -30 5 -39 2 -47 -13 -7
-13 -7 -21 1 -26 8 -4 7 -9 -2 -15 -26 -16 8 -31 88 -40 43 -4 92 -8 108 -9
l30 -1 -30 -24 c-19 -16 -33 -21 -40 -15 -8 6 -19 4 -31 -5 -10 -8 -37 -15
-59 -15 -35 0 -42 4 -53 28 -7 15 -26 50 -42 77 -16 28 -31 55 -33 60 -2 6
-10 5 -20 -3 -14 -12 -12 -20 28 -75 47 -64 53 -77 33 -77 -38 1 -91 30 -114
63 -23 34 -44 48 -44 30 0 -15 40 -73 49 -73 5 0 12 -9 16 -19 9 -31 67 -44
154 -37 l76 7 -30 -25 c-24 -20 -28 -27 -18 -37 11 -10 20 -6 49 22 l35 34 22
-25 c12 -14 34 -41 49 -60 15 -19 30 -31 34 -28 7 8 -14 44 -39 69 -7 8 -19
24 -25 36 -13 24 -1 33 45 33 25 0 25 -1 10 -18 -23 -26 -2 -49 24 -26 15 13
19 12 42 -16 25 -29 47 -39 47 -22 0 5 -11 19 -25 32 -40 37 -28 60 29 60 23
0 56 -28 56 -47 0 -14 39 -48 47 -40 3 4 -6 25 -22 48 -31 47 -25 58 35 60 19
1 41 3 49 3 8 1 16 7 19 15 4 11 -3 13 -34 7 -99 -18 -114 -19 -114 -6 0 37
68 48 213 31 37 -4 67 -4 67 1 0 8 -20 11 -163 27 -102 12 -120 10 -111 -13 3
-7 -1 -16 -10 -19 -8 -3 -17 1 -20 9 -3 8 -15 14 -26 14 -23 0 -24 -3 -7 -30
15 -25 -2 -40 -45 -40 -41 0 -44 18 -7 56 37 38 32 44 -11 14 -19 -13 -38 -18
-61 -15 -19 3 -63 8 -99 11 -36 4 -72 11 -80 15 -15 9 20 6 153 -10 52 -7 76
0 45 12 -7 3 0 6 15 6 51 2 18 19 -51 27 -37 4 -70 9 -74 10 -5 1 -16 2 -25 3
-11 1 -4 10 22 30 41 30 65 31 65 1 0 -25 37 -33 43 -9 3 10 17 24 32 31 25
11 29 10 51 -15 25 -29 32 -21 13 15 -11 20 -9 20 60 16 39 -2 71 0 71 4 0 3
12 8 28 10 16 2 27 9 27 18 0 11 -10 14 -40 12 -36 -3 -42 0 -58 27 -10 17
-15 36 -12 41 3 6 1 10 -6 10 -7 0 -23 10 -35 21 -21 20 -33 21 -121 19 -54
-1 -118 -3 -143 -4 -25 0 -46 -5 -47 -11 -2 -6 48 -9 137 -7 135 3 139 2 151
-20 10 -19 8 -24 -17 -44 -28 -23 -54 -18 -54 9 0 11 -30 36 -44 37 -4 0 -6
-11 -2 -24 4 -15 0 -28 -12 -38 -33 -29 -40 -28 -62 7 -12 19 -26 35 -31 35
-13 0 -1 -40 18 -62 23 -26 7 -37 -52 -37 l-54 1 -38 74 c-49 100 -81 132 -98
103z m495 -124 c16 -20 14 -21 -40 -29 l-45 -6 28 25 c33 29 40 30 57 10z
m-136 -11 c9 -24 -2 -34 -36 -34 l-31 0 23 25 c27 29 36 31 44 9z m-19 -244
c3 -5 -1 -10 -10 -10 -9 0 -13 5 -10 10 3 6 8 10 10 10 2 0 7 -4 10 -10z"/>
<path d="M726 345 c-3 -9 0 -18 7 -20 24 -8 237 -10 237 -3 0 5 -3 8 -7 8 -28
1 -201 21 -214 25 -10 3 -19 -1 -23 -10z"/>
</g>
</svg>
