<?xml version="1.0" standalone="no"?>
<!DOCTYPE svg PUBLIC "-//W3C//DTD SVG 20010904//EN"
 "http://www.w3.org/TR/2001/REC-SVG-20010904/DTD/svg10.dtd">
<svg version="1.0" xmlns="http://www.w3.org/2000/svg"
 width="103.000000pt" height="118.000000pt" viewBox="0 0 103.000000 118.000000"
 preserveAspectRatio="xMidYMid meet">
<metadata>
Created by potrace 1.16, written by Peter Selinger 2001-2019
</metadata>
<g transform="translate(0.000000,118.000000) scale(0.100000,-0.100000)"
fill="#000000" stroke="none">
<path d="M130 1170 c0 -5 5 -10 10 -10 6 0 10 5 10 10 0 6 -4 10 -10 10 -5 0
-10 -4 -10 -10z"/>
<path d="M990 1150 c20 -13 40 -13 40 0 0 6 -12 10 -27 10 -22 0 -25 -2 -13
-10z"/>
<path d="M156 1078 c-15 -29 -31 -60 -38 -69 -18 -27 19 -146 61 -192 44 -49
52 -40 14 17 -34 51 -60 150 -45 169 6 7 22 38 36 70 33 75 9 80 -28 5z"/>
<path d="M900 1121 c0 -6 -29 -29 -65 -53 -36 -24 -65 -49 -65 -55 0 -22 15
-14 74 37 31 28 59 50 60 50 2 0 15 -15 30 -34 l26 -34 -58 1 c-45 2 -57 -1
-57 -13 0 -12 11 -14 55 -12 l55 4 -35 -26 c-19 -13 -44 -31 -55 -39 -29 -22
-12 -31 24 -13 39 21 38 21 56 -14 l16 -30 -50 0 c-49 0 -75 -15 -51 -30 7 -4
28 -3 47 2 54 15 58 5 7 -22 l-46 -25 -44 49 c-24 28 -46 47 -50 43 -15 -14 9
-54 51 -86 50 -37 54 -37 123 14 18 13 38 25 44 27 8 3 3 23 -14 59 -26 53
-26 54 -7 71 22 19 19 32 -20 95 -24 39 -51 57 -51 34z"/>
<path d="M220 1113 c0 -23 29 -29 108 -25 84 4 116 22 40 22 -24 0 -67 3 -95
6 -34 4 -53 3 -53 -3z"/>
<path d="M443 1097 c7 -21 207 -20 207 1 0 4 -48 8 -106 9 -78 1 -104 -1 -101
-10z"/>
<path d="M237 1054 c-4 -4 -7 -11 -7 -16 0 -12 168 -10 175 2 4 6 -20 10 -64
10 -38 0 -76 2 -83 5 -8 3 -17 2 -21 -1z"/>
<path d="M440 1046 c0 -14 14 -16 99 -16 56 0 103 4 106 10 4 6 -11 10 -38 10
-24 0 -72 3 -106 6 -52 6 -61 5 -61 -10z"/>
<path d="M244 1001 c-2 -2 -4 -8 -4 -13 0 -11 132 -10 150 2 8 5 11 10 5 11
-23 4 -147 4 -151 0z"/>
<path d="M460 991 c0 -5 7 -11 15 -14 21 -9 185 5 185 14 0 5 -45 9 -100 9
-55 0 -100 -4 -100 -9z"/>
<path d="M240 952 c-27 -9 8 -22 60 -22 58 0 90 6 90 19 0 6 -131 9 -150 3z"/>
<path d="M446 953 c-15 -15 12 -23 84 -23 77 0 110 6 110 19 0 8 -186 12 -194
4z"/>
<path d="M230 894 c0 -14 8 -16 46 -10 26 3 60 6 75 6 16 0 29 5 29 10 0 6
-32 10 -75 10 -63 0 -75 -3 -75 -16z"/>
<path d="M455 900 c-10 -15 20 -23 67 -16 24 3 65 5 91 5 29 1 46 5 42 11 -8
13 -192 13 -200 0z"/>
<path d="M227 854 c-14 -14 6 -24 47 -24 73 0 166 12 160 21 -6 10 -197 12
-207 3z"/>
<path d="M452 848 c4 -10 30 -13 106 -13 140 0 138 19 -2 23 -87 3 -107 1
-104 -10z"/>
<path d="M158 553 c-9 -2 -15 -10 -12 -17 4 -11 -59 -146 -87 -186 -8 -12 -4
-31 18 -80 16 -36 40 -93 53 -128 21 -58 35 -80 46 -70 2 3 -7 35 -20 72 -14
37 -32 96 -41 131 -15 61 -15 68 2 115 10 27 23 50 30 50 15 0 17 16 3 25 -5
3 -6 13 -3 21 5 13 7 13 14 2 6 -9 8 -7 7 7 -1 11 2 30 6 43 4 12 6 21 4 21
-2 -1 -11 -3 -20 -6z"/>
<path d="M310 530 c0 -6 -9 -20 -20 -32 -22 -24 -19 -38 5 -18 12 10 16 9 21
-4 4 -10 13 -15 20 -12 8 3 14 1 14 -4 0 -15 26 -12 40 5 10 12 9 15 -7 15
-24 0 -43 19 -43 42 0 10 -7 18 -15 18 -8 0 -15 -5 -15 -10z"/>
<path d="M366 515 c-3 -9 0 -15 9 -15 9 0 12 6 9 15 -4 8 -7 15 -9 15 -2 0 -5
-7 -9 -15z"/>
<path d="M648 511 c-18 -9 -44 -23 -58 -31 -14 -7 -32 -16 -40 -20 -18 -9 -20
-36 -2 -32 7 1 15 -6 19 -15 3 -10 23 -36 45 -59 l39 -41 -39 -27 c-35 -24
-48 -27 -109 -25 -76 2 -118 13 -108 29 3 5 2 10 -4 10 -12 0 -31 -32 -31 -52
0 -10 21 -12 91 -10 59 2 95 -1 104 -8 12 -10 27 0 78 51 34 35 80 85 101 111
l38 48 -33 39 c-44 51 -51 53 -91 32z m97 -71 c6 -10 -71 -80 -90 -80 -7 0
-26 15 -40 34 l-26 34 26 26 25 25 0 -45 c0 -32 4 -44 13 -41 8 3 12 23 11 60
l-1 57 38 -31 c21 -17 41 -34 44 -39z"/>
<path d="M197 513 c-4 -3 -7 -13 -7 -22 1 -13 3 -13 11 2 11 19 8 33 -4 20z"/>
<path d="M437 506 c-6 -16 2 -28 14 -20 12 7 11 34 0 34 -5 0 -11 -6 -14 -14z"/>
<path d="M240 510 c-1 -3 -3 -20 -5 -37 -2 -31 0 -33 28 -33 l30 0 -20 23
c-11 12 -23 29 -26 37 -3 8 -6 13 -7 10z"/>
<path d="M460 468 c0 -6 3 -8 7 -5 3 4 12 2 20 -4 8 -7 13 -8 13 -1 0 5 -7 13
-16 16 -22 8 -24 8 -24 -6z"/>
<path d="M405 459 c-11 -17 1 -21 15 -4 8 9 8 15 2 15 -6 0 -14 -5 -17 -11z"/>
<path d="M330 441 c0 -5 5 -13 10 -16 6 -3 10 -2 10 4 0 5 -4 13 -10 16 -5 3
-10 2 -10 -4z"/>
<path d="M480 429 c0 -5 5 -7 10 -4 6 3 10 8 10 11 0 2 -4 4 -10 4 -5 0 -10
-5 -10 -11z"/>
<path d="M155 420 c-9 -14 9 -19 78 -22 42 -1 71 2 79 10 7 7 10 12 7 13 -33
6 -160 5 -164 -1z"/>
<path d="M414 410 c0 -21 30 -28 41 -10 3 6 -1 10 -9 10 -9 0 -16 5 -16 10 0
6 -4 10 -8 10 -4 0 -8 -9 -8 -20z"/>
<path d="M380 410 c0 -5 5 -10 10 -10 6 0 10 5 10 10 0 6 -4 10 -10 10 -5 0
-10 -4 -10 -10z"/>
<path d="M335 400 c-3 -5 -1 -10 4 -10 6 0 11 5 11 10 0 6 -2 10 -4 10 -3 0
-8 -4 -11 -10z"/>
<path d="M510 400 c-8 -5 -11 -12 -7 -16 4 -4 13 -2 19 4 6 6 10 14 7 16 -2 3
-11 1 -19 -4z"/>
<path d="M380 379 c0 -5 5 -7 10 -4 6 3 10 8 10 11 0 2 -4 4 -10 4 -5 0 -10
-5 -10 -11z"/>
<path d="M470 361 c0 -6 5 -13 10 -16 6 -3 10 1 10 9 0 9 -4 16 -10 16 -5 0
-10 -4 -10 -9z"/>
<path d="M334 345 c-10 -8 -14 -15 -8 -15 6 0 17 7 24 15 16 19 9 19 -16 0z"/>
<path d="M147 344 c-16 -16 10 -24 79 -24 76 0 99 13 43 24 -41 8 -114 8 -122
0z"/>
<path d="M440 320 c0 -12 28 -25 36 -17 3 3 -4 10 -15 17 -15 7 -21 7 -21 0z"/>
<path d="M540 321 c0 -5 5 -13 10 -16 6 -3 10 -2 10 4 0 5 -4 13 -10 16 -5 3
-10 2 -10 -4z"/>
<path d="M670 292 c0 -5 14 -21 30 -37 17 -16 30 -34 30 -40 0 -13 -68 -81
-74 -74 -3 2 -2 20 2 39 4 19 6 48 4 63 -3 27 -5 27 -17 11 -8 -11 -11 -32 -8
-51 6 -38 -6 -42 -32 -13 -20 22 -49 27 -43 8 2 -6 25 -30 51 -52 l47 -39 40
43 c54 59 57 72 19 114 -30 34 -49 45 -49 28z"/>
<path d="M330 280 c0 -5 5 -10 10 -10 6 0 10 5 10 10 0 6 -4 10 -10 10 -5 0
-10 -4 -10 -10z"/>
<path d="M150 261 c0 -5 8 -12 17 -15 23 -9 153 4 153 15 0 5 -38 9 -85 9 -47
0 -85 -4 -85 -9z"/>
<path d="M177 224 c-16 -17 10 -24 84 -24 83 0 106 13 42 24 -50 8 -118 8
-126 0z"/>
<path d="M375 210 c-13 -20 14 -27 83 -23 68 5 111 23 57 23 -17 1 -53 3 -81
6 -34 4 -54 1 -59 -6z"/>
<path d="M182 168 c3 -9 26 -13 71 -13 92 0 91 19 -1 23 -57 2 -73 0 -70 -10z"/>
<path d="M365 159 c-12 -19 3 -22 92 -20 99 3 127 12 68 23 -61 11 -153 9
-160 -3z"/>
<path d="M28 3 c6 -2 18 -2 25 0 6 3 1 5 -13 5 -14 0 -19 -2 -12 -5z"/>
</g>
</svg>
