<?xml version="1.0" standalone="no"?>
<!DOCTYPE svg PUBLIC "-//W3C//DTD SVG 20010904//EN"
 "http://www.w3.org/TR/2001/REC-SVG-20010904/DTD/svg10.dtd">
<svg version="1.0" xmlns="http://www.w3.org/2000/svg"
 width="54.000000pt" height="52.000000pt" viewBox="0 0 54.000000 52.000000"
 preserveAspectRatio="xMidYMid meet">
<metadata>
Created by potrace 1.16, written by Peter Selinger 2001-2019
</metadata>
<g transform="translate(0.000000,52.000000) scale(0.100000,-0.100000)"
fill="#000000" stroke="none">
<path d="M281 452 c-6 -12 -11 -43 -11 -71 0 -35 -4 -51 -13 -51 -7 0 -44 18
-82 41 -110 64 -103 62 -116 37 -21 -38 -7 -237 16 -245 6 -2 23 9 38 23 24
22 141 94 153 94 2 0 4 -26 4 -58 0 -85 10 -94 95 -85 l69 8 2 45 c1 25 3 92
5 149 3 119 7 114 -93 126 -50 6 -57 5 -67 -13z m129 -61 l0 -49 -42 1 c-24 1
-43 -2 -43 -8 0 -5 19 -10 43 -10 34 0 42 -3 42 -19 0 -16 -6 -18 -45 -14 -28
4 -48 1 -55 -7 -15 -18 -4 -22 50 -17 l50 5 0 -52 c0 -50 -1 -51 -29 -51 -16
0 -43 3 -60 6 l-32 7 7 121 c4 70 12 124 18 128 6 4 30 8 54 8 l42 0 0 -49z
m-255 -32 c22 -8 54 -22 70 -32 l30 -19 -50 6 c-27 3 -59 7 -70 8 -12 2 -20
-3 -20 -12 0 -11 16 -16 65 -20 l64 -5 -82 -37 c-45 -20 -84 -32 -88 -27 -10
16 18 160 30 156 6 -2 29 -10 51 -18z"/>
</g>
</svg>
