<?xml version="1.0" standalone="no"?>
<!DOCTYPE svg PUBLIC "-//W3C//DTD SVG 20010904//EN"
 "http://www.w3.org/TR/2001/REC-SVG-20010904/DTD/svg10.dtd">
<svg version="1.0" xmlns="http://www.w3.org/2000/svg"
 width="116.000000pt" height="65.000000pt" viewBox="0 0 116.000000 65.000000"
 preserveAspectRatio="xMidYMid meet">
<metadata>
Created by potrace 1.16, written by Peter Selinger 2001-2019
</metadata>
<g transform="translate(0.000000,65.000000) scale(0.100000,-0.100000)"
fill="#000000" stroke="none">
<path d="M930 565 c-10 -12 -8 -18 11 -35 13 -10 27 -19 31 -20 4 0 12 -9 18
-20 9 -17 7 -24 -12 -40 -13 -11 -31 -19 -40 -20 -21 0 -48 -27 -48 -46 0 -10
8 -14 23 -12 17 2 30 -8 55 -45 38 -55 38 -54 -37 -141 -39 -45 -50 -66 -33
-66 4 0 32 28 62 62 30 35 79 88 108 119 28 31 52 61 52 67 0 7 -16 30 -36 52
-25 28 -34 45 -29 59 5 15 2 18 -14 14 -14 -3 -27 7 -50 41 -35 50 -42 54 -61
31z m150 -177 c0 -3 -15 -24 -34 -47 -37 -44 -40 -43 -70 16 -22 45 -20 55 17
81 l32 22 27 -32 c15 -18 28 -36 28 -40z"/>
<path d="M92 532 c-8 -2 -12 -45 -12 -138 0 -133 0 -134 23 -134 13 0 27 4 33
8 5 5 29 14 54 22 39 11 210 71 293 102 25 10 37 27 20 29 -21 2 -48 9 -105
27 -35 11 -90 27 -123 37 -33 9 -85 24 -116 34 -31 9 -61 15 -67 13z m106 -51
l33 -6 4 -72 3 -73 -51 -15 c-90 -27 -87 -29 -84 84 l2 100 30 -6 c16 -3 45
-8 63 -12z m258 -69 c10 -6 -17 -19 -83 -40 -54 -18 -102 -32 -106 -32 -4 0
-7 29 -7 64 l0 65 91 -25 c50 -13 98 -28 105 -32z"/>
</g>
</svg>
