<?xml version="1.0" standalone="no"?>
<!DOCTYPE svg PUBLIC "-//W3C//DTD SVG 20010904//EN"
 "http://www.w3.org/TR/2001/REC-SVG-20010904/DTD/svg10.dtd">
<svg version="1.0" xmlns="http://www.w3.org/2000/svg"
 width="80.000000pt" height="43.000000pt" viewBox="0 0 80.000000 43.000000"
 preserveAspectRatio="xMidYMid meet">
<metadata>
Created by potrace 1.16, written by Peter Selinger 2001-2019
</metadata>
<g transform="translate(0.000000,43.000000) scale(0.100000,-0.100000)"
fill="#000000" stroke="none">
<path d="M363 386 c-6 -8 -13 -31 -15 -52 -4 -45 1 -44 -138 -34 -65 5 -99 4
-109 -4 -8 -6 -16 -10 -18 -8 -6 4 -5 -12 7 -96 7 -45 16 -85 21 -88 5 -3 9 1
9 10 0 11 19 16 78 20 42 4 97 8 120 10 42 4 44 2 39 -20 -7 -38 15 -48 59
-25 52 25 96 44 169 70 56 21 113 56 104 66 -2 2 -63 34 -134 70 -72 37 -137
73 -146 81 -19 17 -31 17 -46 0z m184 -102 l116 -57 -39 -18 c-22 -10 -46 -18
-54 -19 -9 0 -20 -4 -25 -8 -14 -12 -128 -52 -149 -52 -12 0 -16 10 -16 41 0
36 2 40 20 35 11 -3 29 -9 40 -12 11 -3 20 -10 20 -15 0 -16 36 -10 58 11 13
12 27 17 38 13 14 -5 16 -3 11 11 -4 10 -7 22 -7 27 0 5 -9 9 -20 9 -10 0 -24
9 -30 20 -10 19 -12 19 -53 3 -23 -10 -50 -26 -59 -38 -17 -19 -17 -18 -18 36
0 31 3 59 7 62 15 15 51 4 160 -49z m-193 -28 c8 -30 7 -74 -1 -79 -15 -9
-198 -17 -209 -10 -11 7 -18 45 -15 85 1 20 18 23 133 24 79 0 87 -1 92 -20z
m137 -17 c16 -8 18 -13 8 -25 -14 -17 -19 -17 -43 1 -10 7 -15 18 -11 24 8 14
21 14 46 0z"/>
</g>
</svg>
