<?xml version="1.0" standalone="no"?>
<!DOCTYPE svg PUBLIC "-//W3C//DTD SVG 20010904//EN"
 "http://www.w3.org/TR/2001/REC-SVG-20010904/DTD/svg10.dtd">
<svg version="1.0" xmlns="http://www.w3.org/2000/svg"
 width="108.000000pt" height="49.000000pt" viewBox="0 0 108.000000 49.000000"
 preserveAspectRatio="xMidYMid meet">
<metadata>
Created by potrace 1.16, written by Peter Selinger 2001-2019
</metadata>
<g transform="translate(0.000000,49.000000) scale(0.100000,-0.100000)"
fill="#000000" stroke="none">
<path d="M528 447 c-7 -7 -37 -29 -66 -50 l-53 -37 -163 1 c-168 1 -195 -3
-177 -25 8 -9 35 -12 96 -9 l85 5 -15 -49 c-8 -26 -20 -65 -27 -87 l-12 -38
-60 6 c-64 6 -95 -6 -75 -30 10 -13 20 -13 292 0 l69 3 53 -48 53 -49 56 46
55 46 143 4 c173 6 230 12 222 25 -3 5 -80 9 -186 7 l-181 -2 -39 45 c-21 24
-38 48 -38 53 0 5 15 23 33 39 l32 29 -38 -22 -37 -22 2 60 3 60 27 -20 c15
-10 35 -29 43 -41 15 -21 21 -22 182 -20 170 2 199 5 188 23 -4 6 -74 10 -178
10 l-172 0 -43 50 c-47 54 -53 57 -74 37z m8 -44 c-3 -10 -7 -42 -8 -70 -2
-29 -6 -53 -10 -53 -5 0 -4 79 2 138 0 1 5 2 11 2 6 0 8 -8 5 -17z m-51 -91
c-3 -3 -12 1 -20 9 -13 13 -13 18 3 39 l17 25 3 -33 c2 -19 1 -37 -3 -40z
m-132 11 c-7 -2 -19 -2 -25 0 -7 3 -2 5 12 5 14 0 19 -2 13 -5z m102 -30 l59
-37 -47 -41 c-26 -23 -47 -45 -47 -51 0 -5 -20 -8 -45 -6 -25 2 -45 7 -45 10
0 16 53 162 59 162 4 0 33 -17 66 -37z m-125 -40 c-1 -27 -15 -53 -29 -52 -13
0 -14 2 -1 7 10 4 2 10 -25 19 l-40 13 43 -6 c44 -6 61 11 20 19 -20 4 -19 4
5 6 15 0 27 -2 27 -6z m207 -30 c2 -6 -6 -13 -19 -15 -19 -2 -24 -10 -26 -41
-2 -20 -7 -35 -13 -32 -15 10 -11 35 12 72 20 33 39 39 46 16z m80 -81 c-6 -7
-22 -19 -37 -27 l-26 -13 1 58 0 58 36 -32 c26 -23 33 -34 26 -44z m-350 62
c-3 -3 -12 -4 -19 -1 -8 3 -5 6 6 6 11 1 17 -2 13 -5z m263 -71 c-1 -40 -4
-53 -10 -43 -8 14 -3 100 6 100 2 0 4 -26 4 -57z m-230 37 c0 -5 -18 -10 -40
-10 -22 0 -40 5 -40 10 0 6 18 10 40 10 22 0 40 -4 40 -10z"/>
</g>
</svg>
