<?xml version="1.0" standalone="no"?>
<!DOCTYPE svg PUBLIC "-//W3C//DTD SVG 20010904//EN"
 "http://www.w3.org/TR/2001/REC-SVG-20010904/DTD/svg10.dtd">
<svg version="1.0" xmlns="http://www.w3.org/2000/svg"
 width="110.000000pt" height="56.000000pt" viewBox="0 0 110.000000 56.000000"
 preserveAspectRatio="xMidYMid meet">
<metadata>
Created by potrace 1.16, written by Peter Selinger 2001-2019
</metadata>
<g transform="translate(0.000000,56.000000) scale(0.100000,-0.100000)"
fill="#000000" stroke="none">
<path d="M390 439 c-71 -38 -96 -59 -70 -59 6 0 43 14 82 30 92 39 137 39 246
-4 48 -19 109 -37 137 -42 41 -6 46 -8 27 -15 -12 -5 -22 -13 -22 -18 0 -6 6
-8 14 -5 8 3 17 0 21 -5 3 -6 11 -9 16 -6 5 4 9 1 9 -4 0 -24 110 3 118 29 3
9 -1 11 -12 7 -10 -4 -15 -3 -11 3 3 6 -2 10 -12 10 -15 0 -16 2 -3 11 15 11
-8 9 -70 -7 -22 -5 -22 -4 6 14 61 39 53 58 -9 22 -30 -18 -41 -19 -81 -10
-25 5 -81 26 -122 45 -49 23 -97 37 -133 40 -51 4 -63 1 -131 -36z"/>
<path d="M158 365 c-92 -48 -110 -84 -63 -130 21 -21 33 -25 88 -25 43 0 80
-7 110 -20 70 -31 160 -38 295 -24 64 7 128 16 142 19 66 16 101 18 98 4 -2
-9 7 -13 32 -12 l35 2 -29 -9 c-16 -5 -33 -7 -37 -4 -4 2 -37 -12 -73 -32 -52
-28 -79 -36 -128 -39 -70 -3 -178 11 -192 26 -6 5 -18 9 -27 9 -9 0 -49 10
-88 23 -57 19 -74 21 -82 11 -12 -15 16 -34 50 -34 10 0 57 -13 103 -29 185
-64 244 -64 354 0 l67 40 55 -26 c36 -17 58 -23 65 -16 6 6 -2 15 -22 25 -17
9 -31 18 -31 20 0 2 14 3 31 4 39 1 41 3 42 44 2 31 0 33 -30 33 -27 0 -31 3
-30 24 2 20 -6 26 -51 42 -83 28 -310 71 -388 73 -53 1 -77 -3 -90 -15 -11 -9
-30 -19 -44 -22 -24 -6 -25 -5 -22 33 l4 40 -38 0 c-24 -1 -65 -14 -106 -35z
m104 -32 c1 -27 2 -60 0 -75 -3 -26 -7 -28 -45 -28 -88 0 -132 83 -57 108 30
11 30 11 30 -28 0 -44 8 -70 21 -70 5 0 9 29 9 64 0 60 5 72 32 75 3 1 8 -20
10 -46z m211 -65 c-3 -40 -7 -74 -8 -76 -2 -2 -23 0 -47 5 l-43 9 -5 57 c-4
42 -2 58 8 62 22 8 44 6 37 -5 -8 -13 6 -110 16 -110 5 0 9 27 9 59 0 48 3 60
18 64 9 3 18 5 19 6 0 0 -1 -32 -4 -71z m69 -4 c-3 -53 -1 -65 9 -62 10 3 14
23 14 66 l0 61 30 -6 c91 -17 216 -44 254 -55 42 -13 43 -14 20 -24 -55 -26
-337 -70 -361 -57 -5 2 -8 35 -8 74 0 65 1 69 23 69 22 0 23 -3 19 -66z m-195
-50 c-2 -3 -16 1 -31 7 -20 10 -26 19 -26 45 0 26 4 33 23 36 19 3 23 -3 31
-40 4 -24 6 -45 3 -48z"/>
<path d="M58 3 c34 -2 88 -2 120 0 31 2 3 3 -63 3 -66 0 -92 -1 -57 -3z"/>
</g>
</svg>
