<?xml version="1.0" standalone="no"?>
<!DOCTYPE svg PUBLIC "-//W3C//DTD SVG 20010904//EN"
 "http://www.w3.org/TR/2001/REC-SVG-20010904/DTD/svg10.dtd">
<svg version="1.0" xmlns="http://www.w3.org/2000/svg"
 width="121.000000pt" height="54.000000pt" viewBox="0 0 121.000000 54.000000"
 preserveAspectRatio="xMidYMid meet">
<metadata>
Created by potrace 1.16, written by Peter Selinger 2001-2019
</metadata>
<g transform="translate(0.000000,54.000000) scale(0.100000,-0.100000)"
fill="#000000" stroke="none">
<path d="M331 436 c-84 -69 -96 -74 -131 -48 -37 28 -55 8 -19 -21 25 -21 181
-97 199 -97 5 0 10 -4 10 -9 0 -5 -50 -28 -110 -52 -116 -45 -145 -64 -115
-75 9 -4 27 -1 41 6 13 8 25 11 27 9 1 -2 16 -29 31 -61 37 -71 49 -62 62 47
8 73 11 80 32 83 14 2 48 -11 83 -32 33 -20 64 -36 69 -36 4 0 31 -12 58 -26
54 -28 136 -34 200 -15 18 5 35 10 37 10 67 0 209 50 298 104 53 32 57 43 25
56 -108 44 -301 105 -371 118 -70 12 -84 18 -80 31 5 12 2 14 -13 8 -10 -5
-44 -16 -74 -26 -30 -10 -99 -34 -152 -54 -65 -24 -98 -32 -98 -23 0 7 11 33
25 58 13 26 21 49 18 53 -3 3 0 12 7 21 24 29 -6 15 -59 -29z m8 -46 c-35 -57
-46 -67 -61 -52 -8 8 4 25 37 56 26 25 49 46 51 46 2 0 -10 -22 -27 -50z m396
-10 c68 -10 394 -109 395 -121 0 -9 -139 -75 -195 -92 -128 -40 -320 -45 -387
-11 -36 19 -35 33 5 70 31 28 35 29 111 26 l79 -4 -29 -19 c-16 -11 -39 -24
-51 -29 -13 -5 -23 -14 -23 -20 0 -20 30 -10 76 25 25 19 49 35 53 35 4 0 20
-13 36 -30 16 -16 33 -30 39 -30 5 0 0 10 -12 23 -39 42 -33 50 36 48 37 -2
62 2 62 8 0 5 -28 11 -62 13 l-63 3 43 23 c23 12 42 27 42 33 0 9 -74 -28
-108 -54 -9 -7 -23 0 -50 26 -37 36 -62 47 -62 28 0 -5 11 -18 25 -29 14 -11
25 -22 25 -24 0 -3 -28 -1 -62 4 -55 7 -68 13 -98 45 l-34 37 54 12 c73 15 74
15 155 4z m-272 -102 c-3 -35 -7 -64 -8 -66 -1 -1 -14 3 -29 9 -26 12 -35 29
-16 29 23 0 7 19 -27 33 l-38 15 30 11 c17 6 39 15 50 20 41 19 45 14 38 -51z
m45 -6 c2 -49 0 -62 -12 -62 -12 0 -14 13 -13 65 3 82 21 80 25 -3z m55 24
c18 -14 18 -15 0 -35 -25 -30 -33 -26 -33 14 0 38 6 42 33 21z m-266 -168 c13
-74 2 -84 -18 -18 -9 30 -15 58 -12 63 11 19 22 3 30 -45z"/>
</g>
</svg>
