<?xml version="1.0" standalone="no"?>
<!DOCTYPE svg PUBLIC "-//W3C//DTD SVG 20010904//EN"
 "http://www.w3.org/TR/2001/REC-SVG-20010904/DTD/svg10.dtd">
<svg version="1.0" xmlns="http://www.w3.org/2000/svg"
 width="117.000000pt" height="80.000000pt" viewBox="0 0 117.000000 80.000000"
 preserveAspectRatio="xMidYMid meet">
<metadata>
Created by potrace 1.16, written by Peter Selinger 2001-2019
</metadata>
<g transform="translate(0.000000,80.000000) scale(0.100000,-0.100000)"
fill="#000000" stroke="none">
<path d="M463 763 c-8 -19 7 -34 28 -28 18 6 19 1 19 -75 l0 -82 -91 3 c-112
4 -113 2 -114 -128 0 -51 -3 -93 -7 -93 -198 -1 -200 -1 -196 23 3 21 8 22 88
25 157 5 147 28 -15 33 l-100 4 -3 -84 c-2 -49 1 -88 8 -95 7 -7 10 1 10 26
l0 35 103 5 c105 6 122 0 111 -33 -7 -23 15 -67 38 -74 10 -4 18 -10 18 -15 0
-4 34 -11 75 -15 73 -7 75 -8 75 -34 0 -61 13 -100 34 -108 28 -9 149 -4 160
7 10 10 -38 25 -52 16 -13 -8 -18 30 -12 79 l5 40 60 1 c92 3 99 4 93 10 -3 3
-86 6 -184 7 -200 3 -222 8 -262 67 -22 32 -23 41 -17 110 3 41 8 89 9 106 1
17 5 35 9 41 6 9 132 16 351 17 66 1 90 5 94 15 3 10 -8 13 -54 11 -81 -4
-116 -1 -110 8 7 12 11 181 4 188 -4 3 -15 1 -25 -4 -10 -5 -47 -6 -82 -3 -46
5 -64 4 -68 -6z m157 -103 l0 -80 -45 0 -45 0 0 80 0 80 45 0 45 0 0 -80z
m-17 -471 c3 -2 7 -28 9 -56 5 -50 4 -53 -18 -53 -46 0 -54 9 -54 65 0 53 0
53 30 51 16 -1 31 -4 33 -7z"/>
<path d="M809 563 c0 -13 0 -222 0 -295 1 -85 19 -89 23 -6 l3 63 120 5 c155
6 155 24 0 28 -104 2 -115 4 -115 21 0 15 11 20 60 25 32 4 93 4 133 0 49 -4
77 -3 81 4 3 6 2 13 -3 16 -8 5 -149 14 -239 16 -20 0 -22 4 -20 49 1 29 -3
55 -11 65 -14 17 -31 21 -32 9z"/>
<path d="M686 442 l-59 -37 -116 0 c-96 0 -116 -3 -116 -15 0 -13 18 -15 114
-13 90 2 116 0 125 -12 13 -18 126 -68 126 -56 0 4 -23 22 -51 40 l-50 31 53
50 c63 59 55 63 -26 12z"/>
<path d="M0 15 c0 -13 79 -15 585 -15 322 0 585 3 585 8 0 4 -217 8 -483 10
-265 2 -528 5 -584 7 -86 4 -103 2 -103 -10z"/>
</g>
</svg>
