<?xml version="1.0" standalone="no"?>
<!DOCTYPE svg PUBLIC "-//W3C//DTD SVG 20010904//EN"
 "http://www.w3.org/TR/2001/REC-SVG-20010904/DTD/svg10.dtd">
<svg version="1.0" xmlns="http://www.w3.org/2000/svg"
 width="120.000000pt" height="88.000000pt" viewBox="0 0 120.000000 88.000000"
 preserveAspectRatio="xMidYMid meet">
<metadata>
Created by potrace 1.16, written by Peter Selinger 2001-2019
</metadata>
<g transform="translate(0.000000,88.000000) scale(0.100000,-0.100000)"
fill="#000000" stroke="none">
<path d="M436 806 c-3 -13 -3 -54 0 -90 l6 -66 -55 0 c-55 0 -55 0 -61 -35 -4
-20 -4 -40 -1 -45 3 -6 -46 -8 -129 -7 -80 1 -139 -2 -144 -8 -7 -8 6 -145 17
-185 1 -3 6 3 12 13 5 9 8 21 5 26 -7 10 76 21 167 21 37 0 67 4 67 9 0 12
-62 19 -152 16 -84 -3 -83 -3 -72 52 l6 30 113 2 113 2 1 -103 c1 -100 2 -104
28 -125 23 -19 40 -23 98 -23 l70 0 2 -32 c1 -18 4 -58 7 -88 l4 -55 66 3 c48
2 66 0 66 -9 0 -8 3 -9 9 -3 5 5 11 38 15 74 9 107 11 110 67 110 27 0 49 5
49 10 0 6 -59 10 -158 10 -180 0 -248 14 -281 57 -18 22 -21 40 -21 122 0 53
4 101 8 107 10 16 244 30 424 25 33 -1 37 -17 40 -179 1 -67 5 -127 9 -133 10
-17 15 9 14 73 0 32 4 59 10 61 5 2 61 5 123 6 100 2 115 0 127 -16 13 -17 14
-16 19 7 3 14 8 46 11 71 l6 47 -58 6 c-32 4 -97 5 -145 2 l-87 -4 -3 36 c-3
42 7 39 -155 49 l-103 6 0 71 c0 43 5 77 12 84 15 15 20 14 -79 18 -78 3 -81
2 -87 -20z m128 -28 c3 -13 6 -47 6 -75 l0 -53 -55 0 -55 0 0 69 c0 76 2 77
66 80 25 1 33 -4 38 -21z m531 -267 l0 -34 -122 -1 c-67 -1 -124 1 -126 4 -3
3 -3 17 0 32 5 25 10 27 57 31 28 2 83 3 121 3 l70 -1 0 -34z m-439 -261 c7
-70 7 -100 1 -106 -3 -4 -26 -3 -51 0 l-44 7 -4 70 -3 70 49 -3 c48 -3 49 -4
52 -38z"/>
<path d="M466 574 c-3 -8 -6 -38 -6 -65 0 -54 0 -54 74 -49 l38 2 -4 -42 c-6
-62 25 -77 140 -68 21 2 33 18 12 18 -5 0 -11 47 -12 108 l-3 107 -116 3
c-100 2 -118 0 -123 -14z m211 -9 c3 -9 3 -19 -1 -22 -8 -9 -37 18 -30 28 8
14 24 11 31 -6z m-101 -23 c-9 -9 -37 8 -31 18 5 8 11 7 21 -1 8 -6 12 -14 10
-17z m52 11 c6 -19 -25 -16 -32 3 -4 11 -1 14 11 12 9 -2 18 -9 21 -15z m-113
-3 c3 -5 -3 -10 -14 -10 -12 0 -21 5 -21 10 0 6 6 10 14 10 8 0 18 -4 21 -10z
m117 -42 c-27 -27 -10 -30 18 -3 22 21 30 25 30 13 0 -9 3 -23 6 -32 5 -13 -2
-16 -42 -15 -27 0 -57 4 -67 8 -18 6 -18 7 0 23 29 26 81 32 55 6z m-133 -5
c-7 -10 -15 -20 -16 -22 -2 -2 -3 5 -3 17 0 14 6 22 16 22 14 0 15 -3 3 -17z
m52 -3 c-23 -20 -41 -26 -41 -14 0 11 34 33 50 33 10 0 8 -6 -9 -19z m105 -50
c23 0 34 -5 34 -15 0 -11 -9 -13 -40 -9 -26 4 -40 2 -40 -5 0 -6 11 -11 24
-11 13 0 31 -3 40 -6 31 -12 16 -24 -29 -24 -25 0 -45 4 -45 9 0 5 -3 23 -7
41 -5 29 -4 32 11 27 10 -4 33 -7 52 -7z"/>
<path d="M3 98 c3 -10 44 -13 168 -11 238 2 278 4 285 14 3 5 -92 9 -226 9
-181 0 -231 -3 -227 -12z"/>
<path d="M746 91 c15 -16 454 -17 454 -1 0 6 -84 10 -232 10 -146 0 -228 -4
-222 -9z"/>
</g>
</svg>
