<?xml version="1.0" standalone="no"?>
<!DOCTYPE svg PUBLIC "-//W3C//DTD SVG 20010904//EN"
 "http://www.w3.org/TR/2001/REC-SVG-20010904/DTD/svg10.dtd">
<svg version="1.0" xmlns="http://www.w3.org/2000/svg"
 width="109.000000pt" height="92.000000pt" viewBox="0 0 109.000000 92.000000"
 preserveAspectRatio="xMidYMid meet">
<metadata>
Created by potrace 1.16, written by Peter Selinger 2001-2019
</metadata>
<g transform="translate(0.000000,92.000000) scale(0.100000,-0.100000)"
fill="#000000" stroke="none">
<path d="M512 882 c-3 -8 2 -20 11 -27 23 -17 25 -163 2 -171 -8 -3 -47 -1
-87 4 -43 6 -77 6 -83 1 -5 -5 -11 -38 -13 -74 l-4 -65 -112 0 c-105 0 -114
-2 -134 -23 -23 -24 -27 -60 -16 -130 7 -42 24 -50 24 -12 0 14 6 25 13 25 6
0 57 7 112 15 139 20 128 23 123 -35 -7 -72 4 -83 93 -89 l74 -6 2 -60 c6
-142 12 -153 75 -141 l36 6 1 100 c1 81 -1 100 -12 100 -25 0 -28 -36 -12
-142 4 -25 1 -28 -24 -28 -27 0 -30 3 -35 48 -3 26 -7 65 -8 87 l-3 40 75 7
c41 4 86 8 100 10 19 2 24 -1 22 -15 -4 -26 17 -20 24 7 4 19 14 26 37 28 18
2 30 8 27 13 -3 6 -15 9 -27 7 -24 -3 -30 18 -17 66 6 21 11 22 95 22 53 0 89
4 89 10 0 6 -35 10 -86 10 -85 0 -86 0 -80 23 3 12 6 25 6 30 0 4 43 7 96 7
l96 0 -7 -56 c-4 -36 -3 -54 3 -50 15 9 41 91 33 104 -11 18 -75 29 -143 24
-38 -2 -68 -2 -68 1 0 3 5 29 11 57 9 40 15 50 31 50 19 0 19 2 -6 27 -25 25
-29 26 -37 10 -8 -13 -24 -17 -69 -17 l-60 0 0 88 c0 55 -5 94 -12 104 -18 23
-148 30 -156 10z m138 -107 l0 -95 -45 0 -46 0 5 78 c2 42 5 82 5 89 1 11 23
18 64 22 15 1 17 -10 17 -94z m0 -200 c6 -90 20 -79 20 15 l0 58 38 5 c84 11
83 11 80 -45 l-3 -52 -42 -2 c-47 -2 -66 -11 -57 -25 3 -6 24 -7 50 -3 39 5
44 4 44 -12 0 -31 -13 -42 -49 -46 -47 -4 -54 -28 -8 -28 34 0 35 -1 32 -36
-2 -20 -8 -41 -13 -46 -17 -17 -258 -38 -294 -26 -48 16 -78 47 -78 80 0 25 4
28 31 28 38 0 35 24 -4 28 -24 3 -27 8 -27 39 0 32 2 35 25 31 17 -4 25 -1 25
8 0 8 -10 14 -24 14 -21 0 -23 4 -22 43 l1 42 65 5 c36 3 97 5 135 5 l70 -1 5
-79z m-309 -52 c0 -5 2 -20 3 -35 l2 -26 -101 -7 c-55 -3 -108 -9 -117 -11
-15 -4 -18 1 -18 30 0 34 0 35 53 40 28 4 72 8 97 9 25 2 53 4 63 5 9 1 17 -1
18 -5z"/>
<path d="M0 113 c0 -10 54 -13 235 -13 150 0 235 4 235 10 0 6 -24 10 -52 11
-29 0 -135 1 -235 2 -141 2 -183 -1 -183 -10z"/>
<path d="M705 110 c4 -6 80 -10 196 -10 119 0 189 4 189 10 0 6 -72 10 -196
10 -127 0 -193 -3 -189 -10z"/>
</g>
</svg>
