<?xml version="1.0" standalone="no"?>
<!DOCTYPE svg PUBLIC "-//W3C//DTD SVG 20010904//EN"
 "http://www.w3.org/TR/2001/REC-SVG-20010904/DTD/svg10.dtd">
<svg version="1.0" xmlns="http://www.w3.org/2000/svg"
 width="94.000000pt" height="75.000000pt" viewBox="0 0 94.000000 75.000000"
 preserveAspectRatio="xMidYMid meet">
<metadata>
Created by potrace 1.16, written by Peter Selinger 2001-2019
</metadata>
<g transform="translate(0.000000,75.000000) scale(0.100000,-0.100000)"
fill="#000000" stroke="none">
<path d="M367 704 c-13 -13 -7 -44 8 -44 12 0 15 -14 15 -66 l0 -65 -56 7
c-39 4 -58 3 -64 -5 -4 -7 -5 -55 -2 -107 4 -75 2 -94 -9 -95 -8 0 -40 -3 -72
-5 -69 -7 -87 -2 -80 24 4 16 17 20 76 26 39 4 73 9 76 11 22 22 -134 27 -172
6 -28 -16 -28 -16 -21 -91 6 -70 23 -119 25 -74 1 10 2 24 4 29 1 6 3 17 3 26
2 13 17 16 79 18 42 1 80 4 85 7 4 3 8 -12 8 -33 0 -50 14 -63 68 -63 l45 0
-6 -65 c-6 -77 3 -90 63 -100 45 -8 103 2 94 16 -3 5 -19 9 -35 9 -16 0 -46 7
-65 15 -30 12 -35 19 -30 37 3 13 6 38 6 56 0 29 3 32 29 32 28 0 29 -2 36
-65 8 -77 25 -77 25 1 l0 54 39 0 c22 0 42 4 45 9 5 8 -86 21 -152 21 -60 0
-112 21 -128 51 -25 48 -19 59 31 59 39 0 45 -3 45 -21 0 -20 4 -21 120 -17
l120 3 0 -57 c0 -31 5 -60 10 -63 11 -7 13 2 10 58 l-2 37 64 1 c35 1 76 3 91
5 21 2 30 -2 37 -19 7 -20 9 -20 15 -4 4 10 5 20 2 23 -3 3 0 26 8 50 12 41
12 44 -9 50 -11 4 -60 6 -108 5 l-88 -2 6 58 c8 75 -3 85 -93 87 l-67 1 3 65
c1 36 7 67 12 68 23 9 4 20 -43 26 -29 3 -62 9 -73 12 -11 3 -24 2 -28 -2z
m103 -104 l0 -70 -30 0 -30 0 0 70 0 70 30 0 30 0 0 -70z m142 -104 c4 -6 8
-25 8 -42 l0 -31 -162 -6 c-89 -3 -164 -5 -165 -3 -2 2 0 21 5 42 l8 39 94 3
c52 1 102 4 110 5 41 7 96 4 102 -7z m-152 -136 c0 -38 -2 -40 -30 -40 -28 0
-30 3 -30 34 0 35 1 35 53 45 4 0 7 -17 7 -39z m160 28 c0 -10 -101 -10 -117
0 -6 4 18 7 53 7 35 0 64 -3 64 -7z m-240 -13 c0 -11 -12 -15 -45 -15 -33 0
-45 4 -45 15 0 11 12 15 45 15 33 0 45 -4 45 -15z m440 -35 l0 -30 -90 0 c-88
0 -90 1 -86 23 3 20 10 22 82 28 43 3 82 6 87 7 4 1 7 -11 7 -28z m-200 -8 c0
-4 -15 -7 -34 -7 -19 0 -32 3 -29 8 6 9 63 9 63 -1z"/>
</g>
</svg>
