<?xml version="1.0" standalone="no"?>
<!DOCTYPE svg PUBLIC "-//W3C//DTD SVG 20010904//EN"
 "http://www.w3.org/TR/2001/REC-SVG-20010904/DTD/svg10.dtd">
<svg version="1.0" xmlns="http://www.w3.org/2000/svg"
 width="97.000000pt" height="78.000000pt" viewBox="0 0 97.000000 78.000000"
 preserveAspectRatio="xMidYMid meet">
<metadata>
Created by potrace 1.16, written by Peter Selinger 2001-2019
</metadata>
<g transform="translate(0.000000,78.000000) scale(0.100000,-0.100000)"
fill="#000000" stroke="none">
<path d="M367 704 c-3 -3 -3 -35 -1 -70 l5 -64 -55 0 c-64 0 -76 -13 -76 -79
l0 -41 -92 2 -93 3 3 -75 c4 -74 22 -126 22 -62 0 32 1 32 50 33 113 3 113 3
100 -21 -13 -24 1 -56 27 -64 10 -3 44 -7 77 -8 l58 -3 -5 -89 -5 -88 44 6
c56 7 126 37 102 43 -19 5 -22 24 -12 85 7 38 7 38 55 38 46 0 49 -2 49 -25 0
-48 19 -24 25 33 11 94 9 92 73 93 183 5 177 6 180 -18 2 -13 7 -23 11 -23 10
0 24 140 15 149 -7 8 -10 8 -141 9 l-113 2 0 39 c0 22 -5 43 -11 46 -6 4 -44
7 -85 7 l-74 1 0 36 c0 51 10 81 26 81 8 0 14 4 14 9 0 14 -159 28 -173 15z
m111 -83 c1 -28 -2 -52 -6 -55 -5 -3 -25 -3 -45 1 -32 5 -37 9 -37 32 0 57 10
71 49 71 l37 0 2 -49z m146 -94 c3 -13 3 -72 1 -132 -3 -60 -5 -114 -5 -119 0
-9 -187 -2 -260 10 -87 14 -105 44 -95 161 5 54 11 73 23 78 9 4 82 9 161 11
80 3 147 7 150 9 10 11 19 4 25 -18z m250 -87 c19 -7 26 -17 26 -35 l0 -25
-120 0 -120 0 0 30 c0 29 1 29 63 33 34 2 76 4 94 5 17 1 43 -2 57 -8z m-636
-37 c-2 -16 -6 -27 -10 -25 -5 1 -35 2 -68 2 -46 0 -60 3 -60 15 0 22 30 34
88 35 52 0 53 -1 50 -27z m254 -213 c-4 -59 -4 -59 -38 -66 -19 -3 -37 -4 -40
-1 -3 3 -2 32 2 66 l7 61 36 0 36 0 -3 -60z"/>
<path d="M324 431 c-2 -2 -4 -15 -4 -28 0 -27 5 -29 80 -20 25 3 71 9 103 13
56 6 82 20 55 29 -17 6 -229 11 -234 6z"/>
<path d="M0 10 c0 -7 156 -10 488 -9 268 0 476 4 462 8 -41 12 -950 13 -950 1z"/>
</g>
</svg>
