<?xml version="1.0" standalone="no"?>
<!DOCTYPE svg PUBLIC "-//W3C//DTD SVG 20010904//EN"
 "http://www.w3.org/TR/2001/REC-SVG-20010904/DTD/svg10.dtd">
<svg version="1.0" xmlns="http://www.w3.org/2000/svg"
 width="87.000000pt" height="53.000000pt" viewBox="0 0 87.000000 53.000000"
 preserveAspectRatio="xMidYMid meet">
<metadata>
Created by potrace 1.16, written by Peter Selinger 2001-2019
</metadata>
<g transform="translate(0.000000,53.000000) scale(0.100000,-0.100000)"
fill="#000000" stroke="none">
<path d="M195 420 l-60 -61 51 -49 51 -49 -26 -21 c-14 -11 -34 -19 -44 -16
-13 3 -17 0 -13 -9 3 -8 1 -17 -4 -20 -17 -11 -11 -26 9 -23 13 2 32 -11 53
-36 40 -46 58 -42 58 15 0 37 2 39 31 39 17 0 40 5 51 11 15 8 23 8 32 -1 8
-9 5 -16 -13 -31 -19 -16 -22 -22 -12 -32 10 -9 16 -8 25 7 26 42 48 66 57 61
22 -14 6 16 -22 39 -41 35 -59 34 -59 -3 0 -27 -3 -29 -27 -27 -16 2 -36 4
-45 5 -10 0 -18 8 -18 16 0 9 -26 40 -57 70 l-58 54 45 46 46 45 -4 -40 c-3
-31 -8 -40 -23 -40 -10 0 -19 -4 -19 -10 0 -5 9 -10 20 -10 15 0 20 -7 20 -24
0 -14 5 -28 10 -31 6 -4 10 7 10 24 0 22 5 31 16 31 13 0 15 -7 11 -30 -4 -16
-2 -32 3 -35 6 -3 10 3 10 14 0 28 11 52 21 45 5 -3 9 -16 9 -30 0 -14 4 -23
9 -20 4 3 6 17 3 31 -4 22 -1 25 22 25 14 0 26 5 26 10 0 6 -11 10 -25 10 -21
0 -25 5 -25 32 0 36 -16 28 -23 -12 -3 -19 -5 -15 -6 12 0 20 -5 40 -11 43
-10 6 -12 1 -13 -47 -1 -16 -7 -28 -14 -28 -12 0 -19 55 -14 98 1 6 0 12 -1
12 -2 0 -30 -27 -63 -60z m55 -190 c0 -11 -7 -20 -15 -20 -8 0 -15 -4 -15 -10
0 -5 7 -10 15 -10 11 0 15 -11 15 -36 0 -41 -12 -37 -42 14 -17 29 -17 31 3
56 24 31 39 33 39 6z m160 -5 c19 -23 1 -39 -21 -19 -10 9 -19 21 -19 26 0 13
27 9 40 -7z"/>
<path d="M356 437 c3 -8 23 -24 44 -36 22 -12 40 -26 40 -30 0 -5 -19 -21 -41
-36 -29 -19 -38 -30 -31 -37 8 -8 23 1 53 31 l43 42 -45 39 c-44 40 -73 51
-63 27z"/>
<path d="M435 440 c-5 -8 -1 -16 9 -22 9 -5 28 -19 43 -32 l26 -23 -27 -19
c-60 -42 -69 -51 -59 -57 5 -3 31 13 57 36 l47 42 -44 43 c-31 31 -47 40 -52
32z"/>
<path d="M506 432 c-3 -6 10 -24 30 -40 l35 -29 -43 -36 c-23 -20 -39 -39 -35
-43 4 -4 25 9 46 30 22 21 44 35 50 32 10 -7 8 -102 -3 -113 -3 -3 -18 4 -34
16 -17 12 -35 21 -41 21 -18 0 -12 -19 9 -30 11 -6 18 -16 14 -21 -3 -6 -20 1
-40 16 -19 15 -40 25 -47 22 -6 -2 0 -11 15 -21 l27 -17 -40 -36 c-30 -27 -37
-39 -28 -47 8 -8 14 -6 23 8 23 39 55 71 62 63 4 -4 -2 -17 -14 -30 -22 -24
-29 -47 -13 -47 4 0 24 20 42 43 27 35 38 42 54 37 19 -7 19 -8 -3 -11 -12 -2
-23 -8 -22 -14 0 -6 37 -9 97 -6 72 2 98 0 104 -10 18 -27 24 9 24 133 l0 123
-88 5 -87 5 0 -32 c0 -18 -3 -33 -7 -33 -4 0 -24 16 -44 36 -21 20 -39 31 -43
26z m244 -127 l0 -105 -70 0 -70 0 0 39 c0 21 3 66 6 99 7 68 9 69 87 71 l47
1 0 -105z"/>
</g>
</svg>
