<?xml version="1.0" standalone="no"?>
<!DOCTYPE svg PUBLIC "-//W3C//DTD SVG 20010904//EN"
 "http://www.w3.org/TR/2001/REC-SVG-20010904/DTD/svg10.dtd">
<svg version="1.0" xmlns="http://www.w3.org/2000/svg"
 width="101.000000pt" height="47.000000pt" viewBox="0 0 101.000000 47.000000"
 preserveAspectRatio="xMidYMid meet">
<metadata>
Created by potrace 1.16, written by Peter Selinger 2001-2019
</metadata>
<g transform="translate(0.000000,47.000000) scale(0.100000,-0.100000)"
fill="#000000" stroke="none">
<path d="M213 370 c-21 -38 -38 -53 -68 -66 -22 -8 -48 -23 -57 -31 -19 -17
-25 -63 -9 -63 19 0 22 -40 6 -71 -19 -35 -13 -46 37 -67 26 -10 28 -9 48 34
12 24 27 44 33 44 7 0 50 -5 97 -10 46 -5 205 -10 352 -10 233 -1 269 -3 276
-17 13 -23 19 -7 27 79 l7 77 -29 3 c-15 2 -40 0 -55 -3 -14 -4 -95 -5 -180
-3 -84 2 -188 4 -230 4 l-78 0 0 56 0 56 -36 -7 c-24 -4 -34 -3 -29 4 3 6 -1
11 -10 11 -9 0 -29 7 -45 15 l-30 15 -27 -50z m58 10 c25 -14 24 -26 -3 -34
-27 -7 -41 5 -32 27 7 20 9 20 35 7z m91 -92 c2 -71 -1 -131 -8 -137 -2 -2
-35 1 -74 8 l-70 13 43 79 c38 72 61 94 100 98 4 1 8 -27 9 -61z m-102 19 c0
-22 -11 -26 -36 -15 -18 8 -21 14 -12 20 20 12 48 9 48 -5z m-113 -44 c-8 -16
-16 -35 -19 -43 -3 -11 -8 -9 -18 9 -11 22 -10 26 11 42 34 26 42 23 26 -8z
m72 3 c15 -18 -15 -86 -38 -86 -33 0 -42 15 -31 46 21 53 46 68 69 40z m701
-60 c0 -39 -3 -45 -26 -50 -21 -6 -496 2 -500 7 -1 1 -4 18 -7 39 l-5 36 256
1 c141 1 258 4 261 6 13 14 21 0 21 -39z m-756 -42 c25 -10 19 -26 -6 -19 -31
10 -47 25 -26 25 9 0 23 -3 32 -6z m-29 -34 c22 -8 25 -13 15 -25 -15 -18 -61
0 -53 21 6 17 5 17 38 4z"/>
</g>
</svg>
