<?xml version="1.0" standalone="no"?>
<!DOCTYPE svg PUBLIC "-//W3C//DTD SVG 20010904//EN"
 "http://www.w3.org/TR/2001/REC-SVG-20010904/DTD/svg10.dtd">
<svg version="1.0" xmlns="http://www.w3.org/2000/svg"
 width="117.000000pt" height="45.000000pt" viewBox="0 0 117.000000 45.000000"
 preserveAspectRatio="xMidYMid meet">
<metadata>
Created by potrace 1.16, written by Peter Selinger 2001-2019
</metadata>
<g transform="translate(0.000000,45.000000) scale(0.100000,-0.100000)"
fill="#000000" stroke="none">
<path d="M576 362 c-3 -5 -2 -19 1 -31 4 -17 33 -36 112 -73 99 -47 104 -52
81 -61 -112 -47 -173 -80 -177 -97 -3 -11 -9 -20 -14 -20 -15 0 -142 81 -175
113 -22 19 -34 25 -39 17 -4 -6 -4 -14 -1 -17 3 -3 1 -12 -5 -19 -9 -11 -7
-15 7 -20 50 -17 190 -87 196 -99 6 -10 63 -13 255 -14 137 0 256 2 266 5 40
12 11 19 -80 19 -189 1 -382 8 -378 15 9 15 175 110 192 110 10 0 34 -10 53
-23 65 -43 171 -98 182 -95 6 2 -26 26 -71 53 -90 55 -89 61 10 64 l56 1 7
-50 c9 -64 26 -65 26 -1 l0 50 43 3 c23 2 40 7 37 13 -3 5 -20 8 -38 6 l-34
-3 4 54 c2 39 -1 52 -10 50 -7 -1 -15 5 -18 13 -5 12 -29 3 -121 -44 l-116
-59 -70 37 c-38 20 -83 43 -99 52 -44 23 -23 27 135 28 133 1 248 9 256 17 2
2 -83 4 -190 5 -107 0 -213 2 -236 5 -23 3 -44 1 -47 -4z m478 -54 c-4 -6 -7
-31 -5 -54 l2 -43 -80 5 c-69 4 -81 2 -90 -13 -8 -15 -12 -16 -23 -4 -8 8 -9
15 -3 18 6 2 51 26 100 52 96 52 110 58 99 39z"/>
<path d="M426 306 c-91 -32 -102 -41 -87 -64 7 -11 16 -9 47 10 22 13 64 34
94 48 114 50 80 54 -54 6z"/>
<path d="M103 273 c-7 -3 -13 -9 -13 -14 0 -6 5 -7 11 -3 6 3 15 1 19 -6 5 -9
31 -10 100 -4 115 9 99 27 -20 22 -44 -2 -81 0 -83 3 -1 3 -8 4 -14 2z"/>
<path d="M70 225 c0 -8 -5 -15 -12 -15 -6 0 -9 -3 -6 -6 4 -3 16 -1 27 6 14 7
21 7 21 0 0 -5 7 -10 15 -10 20 0 19 10 -2 26 -24 18 -43 17 -43 -1z"/>
<path d="M205 220 c-3 -5 -1 -10 4 -10 6 0 11 5 11 10 0 6 -2 10 -4 10 -3 0
-8 -4 -11 -10z"/>
<path d="M136 194 c-8 -21 -1 -28 18 -21 9 4 13 13 10 22 -8 20 -20 19 -28 -1z"/>
<path d="M210 180 c-17 -17 -36 -30 -42 -30 -7 0 -3 -7 8 -15 25 -19 35 -19
28 0 -4 8 -2 15 4 15 6 0 12 -5 14 -11 2 -6 14 -2 28 11 17 15 19 20 8 16 -23
-7 -33 11 -18 29 22 26 2 16 -30 -15z"/>
<path d="M265 200 c-3 -5 1 -10 9 -10 8 0 18 -9 21 -20 7 -21 25 -28 25 -10 0
6 -4 10 -9 10 -5 0 -13 9 -16 20 -7 22 -20 26 -30 10z"/>
<path d="M325 190 c28 -12 37 -12 30 0 -3 6 -16 10 -28 9 -21 0 -21 -1 -2 -9z"/>
<path d="M180 179 c0 -5 5 -7 10 -4 6 3 10 8 10 11 0 2 -4 4 -10 4 -5 0 -10
-5 -10 -11z"/>
<path d="M126 145 c-3 -9 0 -15 9 -15 8 0 15 7 15 15 0 8 -4 15 -9 15 -5 0
-11 -7 -15 -15z"/>
<path d="M328 123 c-6 -16 -13 -38 -14 -51 -2 -20 -1 -22 12 -11 8 7 12 19 9
26 -3 8 2 21 10 29 17 18 20 34 5 34 -6 0 -16 -12 -22 -27z"/>
<path d="M254 115 c3 -8 1 -15 -4 -15 -6 0 -10 5 -10 11 0 6 -7 4 -15 -5 -21
-20 -19 -26 8 -23 18 2 57 31 57 44 0 1 -9 3 -21 3 -15 0 -19 -5 -15 -15z"/>
<path d="M364 114 c3 -9 6 -18 6 -20 0 -3 4 -3 10 1 11 7 2 35 -12 35 -6 0 -7
-7 -4 -16z"/>
<path d="M160 103 c0 -5 5 -15 10 -23 8 -12 10 -11 10 8 0 12 -4 22 -10 22 -5
0 -10 -3 -10 -7z"/>
</g>
</svg>
