<?xml version="1.0" standalone="no"?>
<!DOCTYPE svg PUBLIC "-//W3C//DTD SVG 20010904//EN"
 "http://www.w3.org/TR/2001/REC-SVG-20010904/DTD/svg10.dtd">
<svg version="1.0" xmlns="http://www.w3.org/2000/svg"
 width="133.000000pt" height="70.000000pt" viewBox="0 0 133.000000 70.000000"
 preserveAspectRatio="xMidYMid meet">
<metadata>
Created by potrace 1.16, written by Peter Selinger 2001-2019
</metadata>
<g transform="translate(0.000000,70.000000) scale(0.100000,-0.100000)"
fill="#000000" stroke="none">
<path d="M560 610 c-8 -5 -22 -7 -31 -5 -11 4 -24 -10 -44 -47 -16 -29 -44
-76 -62 -105 -18 -29 -33 -56 -33 -61 0 -10 -173 -7 -233 3 -19 3 -30 0 -33
-10 -15 -37 7 -40 218 -33 191 8 280 4 548 -22 80 -8 97 -12 112 -32 10 -13
18 -26 18 -29 0 -3 -51 -18 -112 -34 -62 -15 -114 -29 -116 -31 -2 -1 1 -11 7
-23 10 -18 15 -19 44 -9 17 6 41 17 52 24 11 7 47 20 80 30 56 16 60 16 70 -1
5 -9 16 -24 23 -33 13 -16 13 -15 8 1 -18 57 -18 65 3 72 28 9 18 24 -13 18
-21 -4 -26 1 -45 51 -36 96 -36 95 14 164 25 35 53 66 62 69 18 7 39 -18 83
-98 l30 -57 -30 -73 c-28 -68 -50 -110 -103 -198 -11 -19 -15 -32 -8 -30 6 2
49 66 95 142 l83 137 -32 68 c-18 37 -35 79 -39 95 -3 15 -16 37 -27 48 -19
19 -22 19 -38 5 -10 -9 -26 -16 -37 -16 -14 0 -33 -22 -65 -77 l-45 -77 -119
-14 -120 -13 -28 33 c-15 18 -43 60 -62 94 -41 72 -55 86 -75 74z m31 -67 c35
-39 90 -108 103 -130 5 -9 -2 -13 -23 -13 -27 0 -34 7 -56 50 -14 28 -30 48
-35 45 -5 -3 -11 -1 -15 5 -12 20 -24 9 -57 -50 -30 -55 -35 -60 -66 -60 l-34
0 18 28 c79 122 109 162 119 162 6 0 27 -17 46 -37z m2 -98 c16 -19 26 -39 22
-45 -3 -5 -33 -10 -66 -10 l-60 0 33 45 c18 24 35 44 38 44 3 0 18 -16 33 -34z
m357 -43 c0 -10 7 -28 16 -41 l17 -23 -64 6 c-35 4 -104 11 -154 17 -49 5
-110 10 -135 12 -29 1 -3 7 75 15 98 11 179 21 238 31 4 0 7 -7 7 -17z"/>
<path d="M1050 490 c0 -5 18 -10 39 -10 22 0 43 5 46 10 4 6 -12 10 -39 10
-25 0 -46 -4 -46 -10z"/>
<path d="M1055 452 c-3 -3 -5 -9 -5 -14 0 -12 98 -10 105 2 3 6 1 11 -4 12
-29 4 -92 4 -96 0z"/>
<path d="M1049 399 c-8 -5 -8 -8 0 -13 15 -10 101 4 101 16 0 10 -84 8 -101
-3z"/>
<path d="M1055 359 c-4 -6 -5 -13 -2 -16 8 -8 67 7 67 18 0 13 -57 11 -65 -2z"/>
<path d="M1055 320 c-8 -13 20 -24 40 -16 8 3 15 10 15 16 0 13 -47 13 -55 0z"/>
</g>
</svg>
