<?xml version="1.0" standalone="no"?>
<!DOCTYPE svg PUBLIC "-//W3C//DTD SVG 20010904//EN"
 "http://www.w3.org/TR/2001/REC-SVG-20010904/DTD/svg10.dtd">
<svg version="1.0" xmlns="http://www.w3.org/2000/svg"
 width="79.000000pt" height="28.000000pt" viewBox="0 0 79.000000 28.000000"
 preserveAspectRatio="xMidYMid meet">
<metadata>
Created by potrace 1.16, written by Peter Selinger 2001-2019
</metadata>
<g transform="translate(0.000000,28.000000) scale(0.100000,-0.100000)"
fill="#000000" stroke="none">
<path d="M486 221 c-4 -6 -2 -20 4 -31 7 -13 7 -20 0 -20 -5 0 -10 6 -10 14 0
7 -7 19 -16 27 -13 11 -14 9 -9 -14 7 -27 7 -27 -48 -27 -47 0 -57 3 -62 20
-8 25 -25 26 -26 3 0 -14 -2 -13 -9 5 -13 30 -34 29 -28 -3 5 -22 2 -25 -23
-25 -20 0 -29 -5 -29 -16 0 -13 7 -15 33 -10 32 6 34 5 46 -34 15 -51 28 -51
23 0 l-4 40 48 -1 c72 -1 95 -11 109 -44 l13 -30 2 35 2 35 10 -30 c14 -39 17
-42 28 -25 7 10 10 11 10 3 0 -7 4 -13 9 -13 4 0 6 12 3 26 -6 31 10 44 56 44
53 0 36 19 -20 22 -44 2 -53 6 -56 23 -2 11 -9 25 -14 30 -7 7 -9 0 -5 -22 8
-42 0 -42 -17 -2 -8 19 -16 27 -20 20z"/>
<path d="M172 194 c-8 -9 -11 -22 -6 -32 4 -9 6 -20 6 -24 -4 -18 15 -6 25 15
22 45 23 57 5 57 -9 -1 -23 -8 -30 -16z"/>
<path d="M105 150 c-8 -14 -7 -15 23 -25 20 -6 23 -4 20 11 -4 22 -33 31 -43
14z"/>
<path d="M346 113 c11 -50 14 -57 24 -47 7 7 6 21 -1 42 -13 39 -32 43 -23 5z"/>
<path d="M205 120 c3 -5 13 -10 21 -10 8 0 12 5 9 10 -3 6 -13 10 -21 10 -8 0
-12 -4 -9 -10z"/>
</g>
</svg>
