<?xml version="1.0" standalone="no"?>
<!DOCTYPE svg PUBLIC "-//W3C//DTD SVG 20010904//EN"
 "http://www.w3.org/TR/2001/REC-SVG-20010904/DTD/svg10.dtd">
<svg version="1.0" xmlns="http://www.w3.org/2000/svg"
 width="107.000000pt" height="164.000000pt" viewBox="0 0 107.000000 164.000000"
 preserveAspectRatio="xMidYMid meet">
<metadata>
Created by potrace 1.16, written by Peter Selinger 2001-2019
</metadata>
<g transform="translate(0.000000,164.000000) scale(0.100000,-0.100000)"
fill="#000000" stroke="none">
<path d="M693 1583 c-4 -9 -1 -19 5 -21 17 -5 15 -40 -4 -50 -14 -8 -14 -10 1
-22 14 -11 16 -11 13 1 -2 8 7 15 19 17 21 3 22 5 9 30 -7 15 -11 32 -9 38 7
19 -27 26 -34 7z"/>
<path d="M650 1570 c0 -5 7 -10 16 -10 8 0 12 5 9 10 -3 6 -10 10 -16 10 -5 0
-9 -4 -9 -10z"/>
<path d="M475 1549 c-9 -14 5 -90 15 -84 5 3 11 1 14 -4 6 -10 68 -4 101 9 14
6 1 9 -42 9 -55 1 -63 3 -63 20 0 26 7 29 72 37 l56 6 -5 -26 c-6 -31 16 -37
24 -6 4 14 12 20 26 18 11 -2 22 3 25 10 3 9 -7 13 -30 13 -18 0 -68 2 -110 4
-46 3 -80 0 -83 -6z"/>
<path d="M360 1479 l0 -72 -33 6 c-18 3 -50 12 -70 21 -34 14 -37 18 -37 55 0
33 -4 41 -18 41 -16 0 -18 -8 -18 -54 1 -79 20 -96 109 -96 l70 0 -7 -117 c-5
-106 -5 -116 9 -99 8 11 15 36 15 55 0 20 3 66 6 103 l7 66 43 11 c23 6 54 11
68 11 23 0 25 -3 19 -32 -3 -18 -15 -41 -25 -52 -25 -27 -23 -49 8 -85 27 -33
161 -104 177 -94 5 3 -15 17 -44 32 -61 29 -125 103 -113 130 4 9 14 37 22 62
l15 46 88 23 c49 13 87 26 85 28 -3 2 -41 -4 -85 -13 -44 -9 -86 -13 -91 -10
-6 4 -16 2 -23 -3 -7 -5 -34 -13 -62 -16 -27 -4 -58 -9 -68 -12 -16 -5 -17 1
-11 65 7 68 6 71 -15 71 -19 0 -21 -5 -21 -71z"/>
<path d="M650 1480 c0 -5 5 -10 10 -10 6 0 10 5 10 10 0 6 -4 10 -10 10 -5 0
-10 -4 -10 -10z"/>
<path d="M746 1445 c-3 -8 -6 -78 -7 -155 -1 -113 -4 -140 -15 -140 -8 0 -14
-10 -14 -22 0 -21 0 -22 18 -2 21 22 41 124 49 247 5 74 4 87 -9 87 -9 0 -18
-7 -22 -15z"/>
<path d="M343 713 c-19 -12 -23 -25 -23 -64 0 -44 -2 -49 -23 -49 -31 0 -47
18 -47 52 0 31 -3 33 -31 18 -13 -7 -19 -21 -19 -45 0 -38 13 -49 73 -60 34
-7 38 -10 33 -34 -13 -70 -16 -121 -8 -121 5 0 14 30 20 67 6 36 15 69 19 73
4 4 28 10 54 12 l45 5 -4 -58 c-3 -40 -1 -59 7 -59 6 0 11 8 11 17 0 9 3 13 7
9 8 -7 44 -99 40 -101 -1 -1 -40 2 -87 6 -71 6 -87 4 -98 -9 -6 -9 -9 -19 -5
-22 5 -4 51 -3 103 0 52 4 96 6 98 5 2 -2 18 -38 37 -81 19 -43 40 -81 46 -83
7 -2 10 2 7 10 -3 8 -13 39 -23 69 -10 30 -22 64 -26 75 -22 59 -79 228 -77
230 9 7 181 45 203 45 21 0 25 -4 21 -22 -3 -13 -8 -41 -11 -63 -3 -22 -19
-111 -36 -198 -17 -87 -28 -161 -25 -164 7 -8 10 0 45 147 17 69 41 159 54
200 24 80 23 136 -3 133 -33 -3 -167 -35 -208 -49 -25 -8 -46 -13 -49 -11 -2
2 -1 30 3 61 5 37 11 56 20 56 8 0 14 5 14 10 0 17 -132 11 -157 -7z m103 -65
c-4 -28 -9 -55 -11 -59 -4 -5 -37 -5 -89 0 -7 1 -5 45 5 81 4 15 35 27 78 29
23 1 23 -1 17 -51z"/>
<path d="M526 551 c-3 -5 1 -11 9 -15 15 -6 29 7 18 18 -9 9 -21 8 -27 -3z"/>
</g>
</svg>
