<?xml version="1.0" standalone="no"?>
<!DOCTYPE svg PUBLIC "-//W3C//DTD SVG 20010904//EN"
 "http://www.w3.org/TR/2001/REC-SVG-20010904/DTD/svg10.dtd">
<svg version="1.0" xmlns="http://www.w3.org/2000/svg"
 width="131.000000pt" height="52.000000pt" viewBox="0 0 131.000000 52.000000"
 preserveAspectRatio="xMidYMid meet">
<metadata>
Created by potrace 1.16, written by Peter Selinger 2001-2019
</metadata>
<g transform="translate(0.000000,52.000000) scale(0.100000,-0.100000)"
fill="#000000" stroke="none">
<path d="M436 328 c7 -143 15 -174 42 -162 22 9 160 59 190 68 21 7 22 4 22
-38 0 -25 -4 -48 -10 -51 -33 -20 9 -25 224 -25 239 0 299 5 293 23 -2 6 -16
15 -33 20 -88 28 -310 124 -303 131 2 2 72 26 154 54 168 57 221 78 229 91 8
13 -76 18 -331 20 l-232 2 6 -50 c3 -28 3 -51 -1 -51 -3 0 -49 23 -101 50 -54
29 -108 50 -125 50 l-31 0 7 -132z m764 100 c-113 -45 -368 -127 -381 -123
-14 5 -18 20 -21 70 l-3 64 215 -1 c153 0 208 -3 190 -10z m-681 -13 c23 -8
71 -28 107 -45 64 -31 64 -31 64 -73 l0 -42 -97 -28 c-133 -38 -133 -38 -133
23 0 57 8 62 34 20 17 -30 18 -30 45 -14 15 9 38 24 51 34 l23 17 -22 37 c-13
20 -26 36 -30 36 -14 0 -85 -40 -93 -52 -4 -8 -8 12 -8 45 0 31 4 57 9 57 5 0
27 -7 50 -15z m264 -21 c3 -19 3 -44 -1 -54 -6 -17 -10 -17 -39 -5 -30 13 -33
18 -33 55 0 39 1 40 34 40 31 0 34 -3 39 -36z m-203 -65 c13 -24 15 -22 -26
-42 -23 -12 -34 -13 -43 -4 -15 15 -14 27 6 49 22 24 50 23 63 -3z m178 -15
c30 -8 28 -32 -4 -44 -39 -15 -44 -13 -44 20 0 31 7 34 48 24z m136 -60 c32
-14 105 -46 164 -70 l107 -44 -180 3 -180 2 -1 55 c0 92 3 94 90 54z m-108
-22 c-2 -15 -5 -39 -5 -54 -1 -25 -5 -28 -36 -28 l-35 0 0 49 c0 46 2 49 33
58 41 12 49 8 43 -25z"/>
<path d="M234 353 c-20 -18 -38 -23 -102 -25 -60 -2 -77 -6 -77 -18 0 -8 8
-14 17 -14 9 1 48 5 87 8 l71 7 0 -45 c0 -25 5 -48 10 -51 6 -3 10 0 10 8 0
14 58 27 121 27 16 0 29 4 29 10 0 5 -33 10 -72 12 l-73 3 0 35 0 35 75 3 c90
4 120 21 39 23 -29 1 -67 2 -82 3 -17 1 -38 -7 -53 -21z"/>
</g>
</svg>
