<?xml version="1.0" standalone="no"?>
<!DOCTYPE svg PUBLIC "-//W3C//DTD SVG 20010904//EN"
 "http://www.w3.org/TR/2001/REC-SVG-20010904/DTD/svg10.dtd">
<svg version="1.0" xmlns="http://www.w3.org/2000/svg"
 width="78.000000pt" height="45.000000pt" viewBox="0 0 78.000000 45.000000"
 preserveAspectRatio="xMidYMid meet">
<metadata>
Created by potrace 1.16, written by Peter Selinger 2001-2019
</metadata>
<g transform="translate(0.000000,45.000000) scale(0.100000,-0.100000)"
fill="#000000" stroke="none">
<path d="M324 350 c-48 -19 -53 -24 -63 -65 l-11 -45 -33 16 c-17 9 -46 28
-63 40 -35 27 -44 29 -44 11 0 -14 113 -87 135 -87 18 0 45 34 45 56 0 33 15
45 75 60 133 35 269 -27 221 -101 -15 -23 -73 -55 -100 -55 -9 0 -16 -7 -16
-16 0 -12 7 -14 33 -9 59 13 95 36 113 73 16 34 16 37 -1 68 -24 44 -72 65
-164 70 -60 3 -87 0 -127 -16z"/>
</g>
</svg>
