<?xml version="1.0" standalone="no"?>
<!DOCTYPE svg PUBLIC "-//W3C//DTD SVG 20010904//EN"
 "http://www.w3.org/TR/2001/REC-SVG-20010904/DTD/svg10.dtd">
<svg version="1.0" xmlns="http://www.w3.org/2000/svg"
 width="145.000000pt" height="43.000000pt" viewBox="0 0 145.000000 43.000000"
 preserveAspectRatio="xMidYMid meet">
<metadata>
Created by potrace 1.16, written by Peter Selinger 2001-2019
</metadata>
<g transform="translate(0.000000,43.000000) scale(0.100000,-0.100000)"
fill="#000000" stroke="none">
<path d="M0 420 c0 -6 81 -11 210 -12 l209 -3 -27 -41 c-15 -23 -52 -73 -82
-113 l-54 -71 -104 0 c-85 0 -104 -3 -109 -16 -8 -21 16 -36 47 -29 14 3 91 8
171 12 151 6 614 -21 634 -37 6 -5 37 -15 71 -24 50 -13 85 -14 215 -6 84 5
160 10 167 10 6 0 12 3 12 8 0 4 -73 7 -162 7 -148 0 -167 2 -203 21 -68 37
-76 51 -65 120 13 78 13 76 -12 72 -20 -3 -23 -10 -26 -49 l-3 -46 -52 -2
c-29 -1 -90 -5 -135 -9 l-84 -8 -59 100 c-32 55 -58 101 -56 102 1 2 215 4
475 6 259 2 472 6 472 11 0 4 -326 7 -725 7 -467 0 -725 -3 -725 -10z m457
-16 c-3 -3 -12 -4 -19 -1 -8 3 -5 6 6 6 11 1 17 -2 13 -5z m71 -116 c34 -43
62 -80 62 -82 0 -2 -9 -6 -21 -9 -17 -5 -25 3 -42 43 -12 27 -26 51 -32 53
-22 9 -56 -15 -87 -62 -31 -48 -35 -51 -76 -51 -32 0 -41 3 -36 13 23 38 158
187 164 180 3 -4 34 -43 68 -85z m-24 -59 c10 -17 16 -32 14 -34 -1 -2 -30 -6
-63 -10 l-60 -7 40 41 c21 22 42 41 45 41 3 0 14 -14 24 -31z m375 -59 l-12
-33 -61 7 c-34 3 -115 9 -181 13 -133 7 -121 16 40 29 50 3 119 9 155 13 36 4
66 6 68 6 1 -1 -3 -17 -9 -35z"/>
<path d="M1325 294 c-75 -28 -85 -29 -85 -4 0 11 -7 20 -15 20 -10 0 -15 -10
-15 -29 0 -17 -6 -31 -16 -35 -24 -9 -27 -8 -21 17 7 27 -6 52 -23 42 -7 -4
-9 -20 -5 -45 6 -33 4 -38 -17 -44 -37 -9 -38 -8 -36 35 2 27 -2 43 -9 46 -9
3 -13 -9 -13 -44 0 -40 -4 -50 -21 -58 -31 -14 -29 -29 4 -33 17 -2 27 -10 28
-20 1 -10 4 -7 8 8 4 14 18 30 31 37 23 12 25 11 28 -12 5 -36 20 -31 24 7 4
45 38 53 38 9 0 -16 4 -33 10 -36 12 -7 24 39 16 61 -4 11 5 19 32 30 20 8 50
21 66 29 16 9 31 14 33 12 2 -3 7 -49 11 -102 5 -65 11 -100 20 -103 9 -3 12
13 13 55 0 32 2 83 5 114 7 70 -4 75 -91 43z"/>
<path d="M980 245 c0 -35 4 -54 10 -50 6 3 10 26 10 50 0 24 -4 47 -10 50 -6
4 -10 -15 -10 -50z"/>
</g>
</svg>
