<?xml version="1.0" standalone="no"?>
<!DOCTYPE svg PUBLIC "-//W3C//DTD SVG 20010904//EN"
 "http://www.w3.org/TR/2001/REC-SVG-20010904/DTD/svg10.dtd">
<svg version="1.0" xmlns="http://www.w3.org/2000/svg"
 width="142.000000pt" height="58.000000pt" viewBox="0 0 142.000000 58.000000"
 preserveAspectRatio="xMidYMid meet">
<metadata>
Created by potrace 1.16, written by Peter Selinger 2001-2019
</metadata>
<g transform="translate(0.000000,58.000000) scale(0.100000,-0.100000)"
fill="#000000" stroke="none">
<path d="M352 398 c-34 -57 -64 -111 -68 -122 -6 -16 -17 -18 -113 -15 l-106
4 0 -25 c0 -25 1 -25 65 -21 126 9 486 1 565 -11 78 -13 80 -14 83 -43 2 -16
5 -37 8 -45 8 -22 24 7 24 45 l0 30 68 2 c37 2 86 5 110 8 40 6 42 5 42 -20 0
-15 4 -24 10 -20 6 3 10 17 10 31 0 13 1 24 3 24 26 -1 118 -35 171 -63 38
-21 77 -37 88 -37 11 0 23 -11 29 -26 16 -43 23 -20 25 84 1 53 3 132 4 175 2
43 -1 82 -7 88 -5 5 -22 2 -43 -9 -19 -10 -79 -42 -132 -70 l-97 -51 -148 0
c-81 0 -168 -5 -193 -10 -25 -6 -71 -10 -102 -11 -53 0 -59 2 -81 33 -14 17
-39 58 -57 90 -31 56 -62 87 -86 87 -7 0 -39 -46 -72 -102z m158 -43 c28 -35
50 -66 50 -69 0 -3 -9 -6 -20 -6 -15 0 -26 13 -40 46 -18 42 -22 45 -52 42
-28 -3 -37 -11 -61 -55 -24 -46 -32 -53 -58 -53 l-30 0 37 58 c20 31 50 72 67
89 36 38 35 38 107 -52z m829 -187 l1 -38 -57 29 c-32 15 -93 43 -135 62 -77
34 -84 42 -45 60 12 5 65 36 117 69 l95 58 12 -101 c6 -56 12 -119 12 -139z
m-866 137 c20 -28 18 -30 -46 -39 -40 -5 -41 0 -4 42 25 27 28 27 50 -3z m562
-33 c-3 -8 -5 -19 -5 -27 0 -17 -90 -27 -155 -17 -41 6 -50 11 -50 27 0 17 9
21 55 26 92 10 161 6 155 -9z m-255 -22 c0 -34 1 -34 -69 -20 -28 5 -85 10
-126 11 -45 1 -72 5 -69 11 4 6 24 8 45 6 22 -2 39 0 39 4 0 4 30 9 68 11 37
2 77 4 90 5 18 2 22 -3 22 -28z"/>
</g>
</svg>
