<?xml version="1.0" standalone="no"?>
<!DOCTYPE svg PUBLIC "-//W3C//DTD SVG 20010904//EN"
 "http://www.w3.org/TR/2001/REC-SVG-20010904/DTD/svg10.dtd">
<svg version="1.0" xmlns="http://www.w3.org/2000/svg"
 width="120.000000pt" height="57.000000pt" viewBox="0 0 120.000000 57.000000"
 preserveAspectRatio="xMidYMid meet">
<metadata>
Created by potrace 1.16, written by Peter Selinger 2001-2019
</metadata>
<g transform="translate(0.000000,57.000000) scale(0.100000,-0.100000)"
fill="#000000" stroke="none">
<path d="M663 476 c-23 -31 -32 -35 -55 -30 -21 4 -28 2 -28 -9 0 -9 6 -17 13
-20 6 -2 9 -8 4 -12 -4 -5 -13 -3 -19 3 -27 27 -38 13 -38 -48 l0 -60 -69 0
-69 0 6 45 c6 55 -11 84 -37 61 -9 -8 -42 -20 -73 -27 -33 -8 -58 -19 -58 -26
0 -19 39 -15 89 7 l44 20 -6 -146 c-5 -140 4 -185 17 -79 3 28 9 66 12 86 l5
35 72 -1 72 -2 2 -69 c3 -85 -2 -100 -30 -108 -16 -4 -19 -8 -10 -17 14 -14
208 -12 235 2 16 9 19 20 17 67 -1 31 -1 72 0 90 1 32 2 33 39 26 20 -4 39
-11 40 -15 6 -16 20 -10 58 25 21 19 42 32 47 29 5 -3 18 3 31 13 12 11 10 8
-5 -6 -15 -14 -50 -42 -78 -63 -28 -21 -56 -48 -62 -60 -12 -23 -5 -18 59 41
7 6 19 12 25 12 7 -1 -9 -20 -35 -44 -41 -38 -46 -46 -33 -56 13 -11 20 -9 39
9 13 12 28 21 33 19 12 -4 81 43 88 60 3 9 0 10 -15 2 -10 -5 -22 -15 -25 -20
-3 -6 -11 -10 -17 -10 -6 0 9 18 33 39 25 21 45 48 46 60 2 20 -1 19 -35 -9
-52 -42 -64 -38 -14 6 34 28 39 38 29 49 -10 11 -15 11 -28 -1 -8 -8 -21 -14
-28 -14 -7 0 -28 -12 -46 -26 -28 -21 -40 -24 -67 -19 l-32 7 30 13 c16 6 34
10 39 8 12 -4 71 45 63 52 -3 3 -18 -6 -33 -20 -46 -39 -44 -17 2 26 23 21 37
39 30 39 -7 0 -30 -18 -51 -39 -21 -22 -50 -42 -65 -46 -14 -3 -34 -8 -45 -11
-17 -6 -18 0 -15 77 4 77 2 84 -16 87 -11 2 -27 11 -37 19 -14 13 -19 11 -45
-21z m55 -33 c1 -16 4 -53 8 -84 l6 -57 -73 2 -74 1 3 29 c4 32 23 56 44 56 7
0 25 -11 40 -25 27 -25 48 -32 48 -17 0 4 -17 21 -37 38 l-37 31 28 27 c36 33
42 33 44 -1z m12 -259 l0 -95 -62 2 c-106 4 -101 0 -93 93 4 44 10 83 15 86 4
3 38 6 74 8 l66 2 0 -96z m184 11 c-32 -30 -60 -52 -63 -49 -6 6 100 103 113
104 4 0 -18 -25 -50 -55z"/>
<path d="M868 401 c-18 -16 -31 -32 -28 -34 3 -3 23 10 44 29 22 19 34 34 28
34 -7 0 -26 -13 -44 -29z"/>
<path d="M125 370 c-16 -16 -25 -30 -21 -30 5 0 3 -7 -4 -15 -21 -26 4 -17 42
15 23 19 35 36 31 45 -8 21 -16 19 -48 -15z"/>
<path d="M120 313 c-69 -46 -87 -63 -68 -63 7 0 25 8 38 17 24 16 24 16 11 0
-10 -13 -11 -17 -1 -17 7 0 -5 -14 -26 -32 -51 -41 -20 -29 45 17 28 20 48 42
45 47 -12 20 19 2 33 -18 12 -19 9 -24 -47 -63 -80 -56 -70 -66 11 -12 l62 42
31 -28 c69 -63 86 -76 86 -66 0 5 -35 44 -77 86 -68 67 -75 78 -63 92 12 14
12 18 -1 26 -20 12 -18 13 -79 -28z m70 23 c0 -3 -15 -14 -32 -26 l-33 -22 30
26 c31 27 35 29 35 22z"/>
<path d="M127 227 c-20 -18 -37 -36 -37 -40 0 -8 88 51 96 65 13 20 -25 4 -59
-25z"/>
<path d="M965 180 c-10 -11 -15 -20 -11 -20 14 0 46 21 46 30 0 16 -16 11 -35
-10z"/>
</g>
</svg>
