<?xml version="1.0" standalone="no"?>
<!DOCTYPE svg PUBLIC "-//W3C//DTD SVG 20010904//EN"
 "http://www.w3.org/TR/2001/REC-SVG-20010904/DTD/svg10.dtd">
<svg version="1.0" xmlns="http://www.w3.org/2000/svg"
 width="144.000000pt" height="48.000000pt" viewBox="0 0 144.000000 48.000000"
 preserveAspectRatio="xMidYMid meet">
<metadata>
Created by potrace 1.16, written by Peter Selinger 2001-2019
</metadata>
<g transform="translate(0.000000,48.000000) scale(0.100000,-0.100000)"
fill="#000000" stroke="none">
<path d="M875 362 c-6 -5 -55 -21 -110 -37 -55 -15 -107 -35 -115 -45 -12 -13
-40 -19 -110 -24 -52 -4 -113 -11 -135 -16 -58 -14 -128 -12 -149 3 -18 14
-19 52 -1 53 26 1 125 36 125 43 0 8 -97 -9 -138 -24 -8 -3 -22 5 -31 17 -20
24 -45 16 -36 -12 5 -17 -1 -20 -44 -26 -29 -4 -51 -12 -51 -19 0 -22 11 -24
52 -9 58 20 66 18 89 -21 11 -19 29 -37 38 -40 16 -5 145 6 231 20 122 18 145
19 145 3 0 -7 32 -29 71 -48 39 -19 95 -52 125 -73 64 -44 104 -48 210 -23 96
23 329 126 329 145 0 8 -155 -50 -236 -89 -23 -12 -65 -23 -93 -27 -52 -6 -72
2 -91 38 -14 26 34 32 64 8 31 -25 39 -24 26 2 -14 25 -12 26 22 33 18 3 32
-2 44 -15 22 -25 38 -25 24 0 -14 27 -13 28 15 35 40 10 29 25 -14 19 -32 -4
-41 -1 -54 18 -9 12 -20 20 -24 16 -3 -4 -1 -13 5 -19 19 -19 14 -26 -20 -33
-28 -7 -36 -4 -61 26 -26 32 -27 34 -7 37 11 2 20 7 20 12 0 5 -13 7 -29 4
-16 -4 -32 -1 -35 5 -11 16 -26 13 -20 -4 8 -19 -46 -21 -64 -3 -10 10 -14 8
-18 -9 -6 -23 -52 -38 -68 -22 -14 13 -26 11 -26 -5 0 -8 -7 -17 -16 -20 -24
-9 -6 -27 21 -20 17 4 32 -2 56 -24 65 -58 14 -43 -116 35 -19 11 -19 12 5 32
36 29 158 71 206 71 23 0 86 -12 140 -26 55 -14 135 -35 179 -46 44 -11 88
-24 98 -30 9 -5 17 -5 17 0 0 16 -92 51 -215 81 -34 8 -149 40 -205 56 -9 3
-20 1 -25 -3z m83 -130 l24 -31 -27 -7 c-22 -5 -33 -1 -58 24 l-31 31 25 10
c32 13 38 10 67 -27z m-71 -54 c-23 -15 -56 -8 -71 14 -22 31 -20 46 7 50 27
5 83 -52 64 -64z m54 -44 l24 -27 -40 7 c-52 10 -65 23 -34 35 13 5 24 10 25
10 0 1 11 -11 25 -25z"/>
</g>
</svg>
