<?xml version="1.0" standalone="no"?>
<!DOCTYPE svg PUBLIC "-//W3C//DTD SVG 20010904//EN"
 "http://www.w3.org/TR/2001/REC-SVG-20010904/DTD/svg10.dtd">
<svg version="1.0" xmlns="http://www.w3.org/2000/svg"
 width="71.000000pt" height="34.000000pt" viewBox="0 0 71.000000 34.000000"
 preserveAspectRatio="xMidYMid meet">
<metadata>
Created by potrace 1.16, written by Peter Selinger 2001-2019
</metadata>
<g transform="translate(0.000000,34.000000) scale(0.100000,-0.100000)"
fill="#000000" stroke="none">
<path d="M135 230 c-10 -11 -15 -23 -12 -27 4 -3 1 -13 -5 -22 -7 -9 -1 -6 13
7 14 12 31 22 38 22 8 0 2 -9 -13 -21 -24 -19 -38 -48 -17 -35 5 3 11 -1 15
-9 3 -8 0 -17 -6 -21 -7 -4 -8 -3 -4 4 14 24 -11 11 -40 -19 -26 -28 -26 -30
-6 -19 21 10 23 10 18 -7 -5 -16 -1 -19 28 -20 29 0 36 4 54 38 11 21 18 47
15 57 -2 11 0 23 6 26 6 4 11 12 11 19 0 8 -3 8 -12 -1 -21 -21 -29 -13 -14
16 13 26 13 29 -2 29 -9 0 -29 -11 -44 -25 -30 -28 -39 -20 -11 10 9 10 14 18
11 18 -3 0 -13 -9 -23 -20z m59 -105 c-9 -14 -13 -25 -8 -25 17 0 -17 -24 -36
-25 -18 -1 -15 4 17 37 43 44 50 47 27 13z"/>
<path d="M279 240 c-22 -13 -33 -89 -18 -126 9 -22 13 -25 16 -11 3 9 13 17
24 17 25 0 24 -8 -3 -30 -13 -10 -20 -22 -15 -26 4 -4 20 5 35 19 30 29 65 33
181 19 53 -7 53 -7 32 -26 -11 -11 -21 -23 -21 -27 0 -18 30 5 70 52 l41 49
-50 52 c-28 29 -51 48 -51 42 0 -5 5 -15 12 -22 18 -18 9 -21 -88 -37 -88 -15
-89 -15 -104 7 -34 49 -45 58 -61 48z m29 -50 c11 -18 10 -20 -8 -20 -13 0
-20 7 -20 20 0 11 3 20 8 20 4 0 13 -9 20 -20z m267 -20 c17 -19 17 -22 3 -36
-14 -14 -32 -15 -117 -9 -152 11 -134 24 90 64 3 1 14 -8 24 -19z m-235 -30
c0 -5 -15 -10 -32 -10 -25 0 -29 3 -18 10 20 13 50 13 50 0z"/>
<path d="M90 220 c-14 -10 -22 -21 -19 -24 3 -3 16 5 29 19 28 30 24 32 -10 5z"/>
<path d="M89 123 c-13 -16 -12 -17 4 -4 9 7 17 15 17 17 0 8 -8 3 -21 -13z"/>
</g>
</svg>
