<?xml version="1.0" standalone="no"?>
<!DOCTYPE svg PUBLIC "-//W3C//DTD SVG 20010904//EN"
 "http://www.w3.org/TR/2001/REC-SVG-20010904/DTD/svg10.dtd">
<svg version="1.0" xmlns="http://www.w3.org/2000/svg"
 width="108.000000pt" height="38.000000pt" viewBox="0 0 108.000000 38.000000"
 preserveAspectRatio="xMidYMid meet">
<metadata>
Created by potrace 1.16, written by Peter Selinger 2001-2019
</metadata>
<g transform="translate(0.000000,38.000000) scale(0.100000,-0.100000)"
fill="#000000" stroke="none">
<path d="M267 373 c150 -2 396 -2 545 0 150 1 28 2 -272 2 -300 0 -422 -1
-273 -2z"/>
<path d="M930 302 l-75 -47 -149 -1 c-137 -1 -149 0 -153 17 -6 22 -43 26 -43
5 0 -8 5 -18 10 -21 29 -18 7 -29 -90 -50 -64 -14 -65 -13 -91 11 -19 18 -36
24 -72 24 -45 0 -48 -2 -54 -30 l-5 -30 -89 0 c-89 0 -111 -8 -84 -30 11 -9
36 -10 91 -5 70 6 77 5 90 -14 21 -29 99 -30 129 -1 19 18 26 19 118 8 53 -6
97 -14 97 -19 0 -4 -14 -19 -32 -33 -29 -22 -30 -26 -14 -32 13 -5 24 1 41 22
22 29 24 29 139 32 85 3 116 0 116 -9 0 -9 3 -9 15 1 11 9 31 4 103 -29 49
-23 91 -41 93 -41 3 0 5 19 6 43 1 23 7 90 13 149 6 59 9 112 5 118 -12 19
-40 10 -115 -38z m78 -24 c-3 -32 -4 -33 -50 -32 -35 0 -48 -4 -48 -14 0 -11
12 -13 50 -10 l51 3 -3 -35 -3 -35 -47 3 c-38 2 -48 0 -48 -12 0 -12 11 -16
50 -16 l49 0 -1 -35 c-1 -34 -11 -45 -22 -26 -3 5 -17 12 -32 15 -14 4 -43 18
-64 32 -21 14 -44 23 -49 19 -14 -8 -14 -4 0 48 9 37 18 47 77 85 82 51 94 53
90 10z m-680 -75 c7 -10 12 -29 10 -43 -2 -21 -9 -26 -38 -28 l-35 -3 1 43 c0
24 1 46 2 50 3 13 47 -1 60 -19z m482 -23 l0 -51 -92 3 c-92 3 -93 3 -90 28 2
19 0 22 -10 12 -6 -6 -15 -12 -19 -12 -8 0 -30 56 -24 62 2 1 56 4 119 6 l116
3 0 -51z m-245 -1 c9 -17 15 -33 13 -35 -3 -2 -20 1 -39 6 -18 6 -56 10 -84
10 -59 0 -101 19 -45 21 19 0 51 7 70 14 53 21 68 18 85 -16z"/>
<path d="M920 190 c-24 -15 -4 -22 40 -15 23 4 40 8 38 10 -11 8 -66 12 -78 5z"/>
</g>
</svg>
