<?xml version="1.0" standalone="no"?>
<!DOCTYPE svg PUBLIC "-//W3C//DTD SVG 20010904//EN"
 "http://www.w3.org/TR/2001/REC-SVG-20010904/DTD/svg10.dtd">
<svg version="1.0" xmlns="http://www.w3.org/2000/svg"
 width="109.000000pt" height="66.000000pt" viewBox="0 0 109.000000 66.000000"
 preserveAspectRatio="xMidYMid meet">
<metadata>
Created by potrace 1.16, written by Peter Selinger 2001-2019
</metadata>
<g transform="translate(0.000000,66.000000) scale(0.100000,-0.100000)"
fill="#000000" stroke="none">
<path d="M616 562 c-4 -6 -6 -36 -5 -67 1 -30 -1 -58 -4 -61 -3 -3 -51 6 -107
20 -55 14 -105 26 -111 26 -26 0 -35 -67 -31 -223 4 -184 -14 -170 147 -113
55 19 104 35 109 36 4 0 5 -31 1 -70 l-7 -70 26 0 c14 0 49 11 78 24 89 41
231 96 246 96 34 0 0 26 -49 38 -30 7 -74 18 -98 24 l-44 11 103 36 c57 20
105 41 107 46 3 10 -70 45 -93 45 -7 0 -17 7 -24 15 -7 8 -16 12 -22 9 -11 -7
-108 15 -108 25 0 4 47 26 105 50 95 38 198 89 185 92 -42 8 -81 10 -226 15
-117 5 -173 3 -178 -4z m350 -19 c-9 -16 -201 -103 -225 -103 -5 0 -11 19 -13
43 -4 57 -23 48 -23 -11 0 -43 -2 -47 -26 -50 -26 -3 -27 -1 -30 48 -2 29 1
56 6 60 16 13 319 25 311 13z m-530 -116 c-11 -7 -28 -20 -38 -29 -17 -17 -18
-17 -18 5 0 31 7 37 44 36 28 0 29 -1 12 -12z m137 -13 c20 -4 37 -10 37 -13
0 -4 -34 -21 -76 -38 -73 -30 -75 -31 -54 -8 17 18 21 31 16 51 -6 24 -5 26
16 20 13 -3 40 -9 61 -12z m-104 -18 c9 -10 8 -16 -4 -26 -17 -14 -45 -7 -45
13 0 29 30 37 49 13z m237 -38 c-2 -28 -7 -33 -27 -33 -31 0 -32 -29 -1 -33
14 -2 22 -10 22 -23 0 -21 -3 -22 -37 -13 -20 5 -23 13 -23 54 0 66 7 80 40
80 26 0 28 -3 26 -32z m78 13 c3 -5 -7 -14 -24 -19 -30 -11 -47 -2 -35 18 8
12 52 13 59 1z m-354 -36 c0 -13 -37 -31 -46 -22 -3 3 -2 16 2 31 5 21 9 24
25 15 10 -5 19 -16 19 -24z m188 -71 c-9 -8 -143 31 -139 41 3 6 32 22 65 37
l61 27 8 -50 c5 -28 7 -52 5 -55z m300 69 c41 -10 17 -27 -79 -60 -116 -39
-119 -39 -119 -8 0 27 20 35 75 33 66 -2 116 2 111 11 -3 5 -15 7 -26 4 -11
-3 -46 -2 -77 2 l-58 7 45 18 c34 13 52 15 75 8 16 -6 40 -12 53 -15z m-471
-71 c7 -4 -2 -17 -28 -35 l-39 -28 0 35 c0 33 3 36 28 36 15 0 32 -4 39 -8z
m128 -14 c30 -8 45 -18 45 -28 0 -15 -15 -22 -137 -58 -7 -2 -13 1 -13 6 0 5
10 12 21 15 l21 6 -22 35 -22 36 31 0 c17 0 51 -5 76 -12z m-119 -64 c-26 -19
-36 -18 -36 4 0 30 22 45 40 26 13 -14 13 -17 -4 -30z m214 36 c-19 -13 -30
-13 -30 0 0 6 10 10 23 10 18 0 19 -2 7 -10z m199 -30 c84 -18 88 -14 -49 -58
-36 -11 -73 -24 -82 -27 -16 -6 -18 0 -18 53 l0 61 37 -6 c21 -4 71 -14 112
-23z m-181 -101 c-7 -5 -23 -9 -36 -9 -21 0 -22 3 -17 52 5 56 10 64 40 70 18
3 20 -3 23 -51 2 -36 -1 -57 -10 -62z m-278 67 c0 -8 -7 -16 -15 -20 -10 -4
-15 1 -15 14 0 11 7 20 15 20 8 0 15 -6 15 -14z"/>
<path d="M263 457 c-50 -30 -72 -54 -36 -40 11 4 14 3 9 -5 -10 -16 -3 -15 39
5 19 9 35 21 35 26 0 5 -12 2 -26 -7 -14 -10 -30 -16 -37 -13 -6 2 10 16 36
31 44 26 57 37 40 35 -5 0 -32 -15 -60 -32z"/>
<path d="M266 395 c-25 -19 -9 -19 24 0 14 8 19 14 10 14 -8 0 -24 -6 -34 -14z"/>
<path d="M260 351 c-35 -21 -66 -43 -68 -50 -2 -6 20 4 50 23 110 71 123 91
18 27z"/>
<path d="M280 324 c-19 -12 -40 -23 -46 -23 -16 -1 -26 -31 -11 -31 7 0 -3
-10 -21 -21 -18 -12 -31 -23 -29 -26 3 -2 33 15 68 37 36 23 53 39 39 35 -22
-5 -23 -4 -8 7 9 7 25 18 35 24 10 7 16 14 13 17 -3 2 -21 -6 -40 -19z m-25
-44 c-3 -5 -11 -10 -16 -10 -6 0 -7 5 -4 10 3 6 11 10 16 10 6 0 7 -4 4 -10z"/>
<path d="M231 240 c-24 -16 -46 -31 -48 -34 -7 -6 -13 -56 -7 -56 7 0 104 62
104 66 0 2 -23 -7 -51 -22 -66 -33 -55 -14 16 26 30 17 55 36 55 41 0 16 -23
9 -69 -21z"/>
<path d="M300 190 c-19 -10 -52 -25 -72 -35 -21 -9 -38 -19 -38 -24 0 -21 17
-16 71 19 33 21 65 41 72 43 7 2 10 7 7 10 -3 3 -21 -3 -40 -13z"/>
<path d="M210 99 c-18 -15 -20 -19 -7 -15 10 3 26 2 35 -3 12 -6 24 -4 37 6
19 14 18 15 -12 11 -26 -4 -30 -2 -22 9 17 20 -3 15 -31 -8z"/>
</g>
</svg>
