<?xml version="1.0" standalone="no"?>
<!DOCTYPE svg PUBLIC "-//W3C//DTD SVG 20010904//EN"
 "http://www.w3.org/TR/2001/REC-SVG-20010904/DTD/svg10.dtd">
<svg version="1.0" xmlns="http://www.w3.org/2000/svg"
 width="70.000000pt" height="38.000000pt" viewBox="0 0 70.000000 38.000000"
 preserveAspectRatio="xMidYMid meet">
<metadata>
Created by potrace 1.16, written by Peter Selinger 2001-2019
</metadata>
<g transform="translate(0.000000,38.000000) scale(0.100000,-0.100000)"
fill="#000000" stroke="none">
<path d="M318 305 c-3 -3 -4 -23 -1 -43 l5 -37 -118 -3 c-121 -4 -134 -6 -134
-23 0 -9 206 -4 238 6 8 3 12 -6 12 -26 l0 -30 -121 2 c-80 1 -125 -3 -132
-10 -19 -19 12 -33 58 -26 22 4 75 9 118 11 l77 6 0 -39 c0 -47 12 -68 36 -60
44 13 191 79 214 96 14 10 40 25 58 35 62 32 52 39 -143 105 -99 33 -157 46
-167 36z m152 -62 c30 -8 81 -22 113 -30 31 -9 57 -19 57 -23 0 -13 -265 -130
-296 -130 -6 0 5 166 12 193 6 18 8 18 114 -10z"/>
<path d="M405 216 c-22 -11 -42 -22 -45 -24 -2 -2 1 -12 8 -22 7 -11 12 -29
12 -40 0 -25 18 -25 50 0 14 11 36 20 48 20 13 0 22 3 20 8 -24 49 -43 82 -47
81 -3 -1 -24 -11 -46 -23z m51 -28 c8 -12 -21 -38 -43 -38 -17 0 -17 37 0 43
21 9 36 7 43 -5z"/>
</g>
</svg>
