<?xml version="1.0" standalone="no"?>
<!DOCTYPE svg PUBLIC "-//W3C//DTD SVG 20010904//EN"
 "http://www.w3.org/TR/2001/REC-SVG-20010904/DTD/svg10.dtd">
<svg version="1.0" xmlns="http://www.w3.org/2000/svg"
 width="82.000000pt" height="37.000000pt" viewBox="0 0 82.000000 37.000000"
 preserveAspectRatio="xMidYMid meet">
<metadata>
Created by potrace 1.16, written by Peter Selinger 2001-2019
</metadata>
<g transform="translate(0.000000,37.000000) scale(0.100000,-0.100000)"
fill="#000000" stroke="none">
<path d="M498 325 c-4 -4 -4 -14 -1 -23 5 -11 3 -13 -6 -7 -8 4 -17 2 -22 -6
-6 -11 -11 -10 -27 4 -16 15 -21 15 -38 3 -22 -17 -63 -11 -81 11 -11 14 -14
14 -28 -1 -20 -19 -56 -21 -74 -3 -11 10 -14 9 -18 -1 -3 -6 -10 -9 -15 -5
-16 9 -68 12 -68 3 0 -4 -9 -10 -20 -13 -22 -6 -28 -36 -7 -38 6 0 33 -1 59
-1 27 0 50 -4 54 -9 3 -5 -21 -9 -54 -9 -56 0 -60 -2 -64 -25 -3 -13 -3 -27 0
-30 3 -3 35 -5 71 -5 l66 -1 -55 -24 c-30 -13 -62 -24 -71 -25 -35 0 -49 -60
-14 -60 17 0 146 86 145 97 0 4 16 10 36 13 21 3 39 11 42 19 3 9 -1 11 -14 7
-11 -3 -25 -2 -33 3 -11 7 -10 11 5 20 11 6 13 11 7 11 -7 0 -13 4 -13 9 0 16
138 11 144 -5 7 -19 26 -18 26 1 0 8 4 15 9 15 5 0 14 -7 21 -15 16 -19 34
-20 27 -1 -4 10 3 14 29 13 19 -1 34 -5 34 -10 0 -5 6 -5 13 1 17 14 49 18 65
9 14 -10 36 10 46 41 8 24 -3 29 -21 11 -13 -13 -53 -3 -53 13 0 6 -6 5 -16
-3 -13 -11 -17 -10 -25 4 -14 25 -32 22 -19 -3 14 -26 3 -26 -19 1 -9 11 -19
17 -23 14z"/>
<path d="M505 173 c-49 -30 -104 -57 -122 -60 -45 -8 -80 3 -86 27 -3 12 -13
20 -27 20 -19 0 -21 -4 -15 -32 11 -52 32 -68 86 -68 35 0 55 6 76 24 15 13
42 32 59 42 61 37 144 94 144 99 0 13 -32 -1 -115 -52z"/>
</g>
</svg>
