<?xml version="1.0" standalone="no"?>
<!DOCTYPE svg PUBLIC "-//W3C//DTD SVG 20010904//EN"
 "http://www.w3.org/TR/2001/REC-SVG-20010904/DTD/svg10.dtd">
<svg version="1.0" xmlns="http://www.w3.org/2000/svg"
 width="126.000000pt" height="46.000000pt" viewBox="0 0 126.000000 46.000000"
 preserveAspectRatio="xMidYMid meet">
<metadata>
Created by potrace 1.16, written by Peter Selinger 2001-2019
</metadata>
<g transform="translate(0.000000,46.000000) scale(0.100000,-0.100000)"
fill="#000000" stroke="none">
<path d="M640 390 c-102 -5 -145 -17 -320 -87 -8 -3 -63 -6 -122 -7 -106 -1
-126 -5 -114 -25 5 -7 51 -9 131 -5 124 5 161 15 275 73 46 24 227 37 573 41
5 0 5 5 2 10 -7 11 -233 11 -425 0z"/>
<path d="M658 323 c-10 -2 -18 -13 -18 -23 0 -23 -13 -27 -130 -35 -52 -4
-100 -11 -107 -17 -7 -5 -9 -23 -6 -44 7 -40 5 -40 -44 -14 -32 17 -57 20
-155 20 -73 0 -119 -4 -124 -11 -13 -22 13 -26 110 -18 78 7 103 6 115 -4 18
-15 84 -47 98 -47 5 0 31 -14 57 -30 l48 -31 314 -2 c173 -1 314 1 314 5 0 12
-78 17 -355 24 -249 5 -273 7 -307 27 -21 11 -38 24 -38 29 0 4 30 8 67 8 37
0 82 5 100 12 29 10 36 10 43 -2 5 -8 7 -23 4 -32 -8 -27 34 -23 176 13 67 17
124 28 127 25 4 -3 11 -2 17 3 6 4 25 13 43 19 29 10 37 7 92 -30 39 -26 61
-48 61 -60 0 -42 17 -5 23 49 4 32 10 68 13 81 6 22 4 23 -52 21 -64 -2 -385
44 -454 64 -8 3 -23 3 -32 0z m177 -57 c99 -10 115 -15 115 -37 0 -10 -3 -19
-7 -19 -5 0 -18 -3 -30 -6 -20 -5 -23 -2 -23 20 0 14 -4 26 -10 26 -5 0 -10
-13 -10 -29 0 -21 -6 -30 -22 -35 -36 -9 -41 -7 -35 15 6 24 -1 49 -14 49 -5
0 -9 -18 -9 -40 0 -36 -2 -40 -25 -40 -23 0 -25 4 -25 46 0 62 -24 54 -28 -9
-2 -37 -7 -47 -21 -47 -18 0 -19 6 -13 90 2 23 6 25 45 24 23 -1 74 -4 112 -8z
m-195 -41 c0 -32 -27 -34 -33 -2 l-4 22 -8 -22 c-9 -28 -21 -29 -28 -4 -5 21
7 28 51 30 17 1 22 -4 22 -24z m367 19 c29 -8 20 -24 -13 -24 -15 0 -24 6 -24
15 0 17 4 18 37 9z m-554 -34 c-3 -12 -8 -19 -11 -16 -5 6 5 36 12 36 2 0 2
-9 -1 -20z m57 16 c0 -2 -3 -11 -6 -20 -9 -23 -24 -20 -24 4 0 11 7 20 15 20
8 0 15 -2 15 -4z m27 -18 c-3 -8 -6 -5 -6 6 -1 11 2 17 5 13 3 -3 4 -12 1 -19z
m618 -9 c9 -42 3 -44 -34 -13 -34 28 -33 44 4 44 18 0 25 -7 30 -31z"/>
</g>
</svg>
