<?xml version="1.0" standalone="no"?>
<!DOCTYPE svg PUBLIC "-//W3C//DTD SVG 20010904//EN"
 "http://www.w3.org/TR/2001/REC-SVG-20010904/DTD/svg10.dtd">
<svg version="1.0" xmlns="http://www.w3.org/2000/svg"
 width="90.000000pt" height="43.000000pt" viewBox="0 0 90.000000 43.000000"
 preserveAspectRatio="xMidYMid meet">
<metadata>
Created by potrace 1.16, written by Peter Selinger 2001-2019
</metadata>
<g transform="translate(0.000000,43.000000) scale(0.100000,-0.100000)"
fill="#000000" stroke="none">
<path d="M725 360 c-5 -8 -8 -154 -5 -265 0 -8 4 -15 9 -15 4 0 11 37 15 82 3
46 10 107 14 135 5 33 5 56 -2 63 -13 13 -23 13 -31 0z"/>
<path d="M635 326 c-27 -18 -70 -44 -95 -57 -25 -13 -51 -30 -58 -36 -8 -8
-39 -13 -73 -13 l-59 0 0 50 c0 38 -4 50 -15 50 -11 0 -15 -12 -15 -50 0 -38
-4 -50 -15 -50 -12 0 -15 13 -15 55 0 42 -4 55 -15 55 -11 0 -14 -12 -11 -55
3 -47 1 -55 -14 -55 -16 0 -17 7 -13 56 5 45 3 56 -8 52 -9 -3 -15 -23 -17
-57 l-3 -53 -67 4 c-54 2 -67 0 -67 -12 0 -12 13 -14 68 -11 l67 3 0 -68 c0
-80 8 -80 18 2 5 41 12 60 22 62 12 2 16 -8 15 -50 0 -61 19 -73 22 -13 1 22
2 46 2 53 1 6 8 12 16 12 12 0 15 -14 15 -62 0 -45 3 -59 10 -48 5 8 10 39 10
68 l0 53 48 -7 c26 -3 54 -12 62 -19 37 -30 223 -119 218 -104 -2 6 -33 27
-68 47 -36 19 -78 45 -93 58 l-28 24 26 10 c14 5 30 10 35 10 5 0 10 6 13 13
3 9 8 8 22 -3 16 -14 17 -13 12 5 -5 16 4 27 53 57 33 20 60 42 60 48 0 15
-10 12 -65 -24z"/>
<path d="M665 261 c-6 -11 9 -23 19 -14 9 9 7 23 -3 23 -6 0 -12 -4 -16 -9z"/>
<path d="M617 243 c-10 -10 -8 -81 2 -87 5 -3 11 3 14 14 3 12 14 20 27 20 11
0 19 4 15 10 -3 5 -12 7 -21 3 -12 -4 -14 0 -8 21 4 19 2 26 -8 26 -8 0 -18
-3 -21 -7z"/>
</g>
</svg>
