<?xml version="1.0" standalone="no"?>
<!DOCTYPE svg PUBLIC "-//W3C//DTD SVG 20010904//EN"
 "http://www.w3.org/TR/2001/REC-SVG-20010904/DTD/svg10.dtd">
<svg version="1.0" xmlns="http://www.w3.org/2000/svg"
 width="117.000000pt" height="49.000000pt" viewBox="0 0 117.000000 49.000000"
 preserveAspectRatio="xMidYMid meet">
<metadata>
Created by potrace 1.16, written by Peter Selinger 2001-2019
</metadata>
<g transform="translate(0.000000,49.000000) scale(0.100000,-0.100000)"
fill="#000000" stroke="none">
<path d="M487 431 c-6 -2 -32 -21 -57 -42 -79 -65 -129 -86 -208 -88 -38 -1
-81 3 -94 8 -30 11 -53 -1 -45 -23 8 -20 15 -20 164 -18 l83 2 68 63 c55 50
75 62 103 62 19 1 150 2 292 3 272 2 342 16 135 26 -159 8 -424 12 -441 7z"/>
<path d="M922 363 c-82 -30 -202 -45 -208 -26 -2 7 -6 20 -9 28 -8 27 -25 16
-25 -16 0 -30 -1 -31 -32 -25 -18 3 -38 13 -44 21 -21 28 -54 12 -54 -25 0
-12 58 -30 96 -30 l34 0 0 -70 c0 -89 16 -91 23 -4 5 74 9 79 55 89 24 5 32 3
32 -7 0 -8 14 -27 30 -43 45 -43 40 -59 -15 -51 -51 8 -85 1 -85 -18 0 -8 23
-12 76 -12 69 -1 79 -4 95 -25 10 -13 19 -20 19 -15 0 6 6 1 14 -9 12 -17 15
-14 30 41 10 32 28 89 41 126 22 62 22 68 7 80 -15 13 -25 11 -80 -9z m38 -25
c-1 -47 -14 -89 -29 -87 -33 3 -52 -1 -46 -11 3 -5 18 -10 32 -10 21 0 24 -3
19 -22 -3 -13 -6 -31 -6 -40 0 -35 -16 -16 -58 67 -30 61 -38 85 -28 85 15 0
31 -18 31 -35 0 -5 15 -11 33 -13 18 -2 32 1 32 7 0 6 -8 11 -17 12 -13 0 -11
3 7 11 24 11 24 12 -15 18 l-40 6 35 11 c47 15 50 15 50 1z"/>
<path d="M455 251 c-16 -6 -19 -16 -16 -51 1 -23 -1 -40 -6 -38 -97 48 -105
50 -225 52 -85 2 -122 -1 -129 -11 -12 -13 -3 -37 11 -28 4 3 48 5 96 6 71 1
101 -3 149 -21 63 -24 135 -66 148 -87 6 -9 78 -12 297 -10 358 3 390 19 54
28 -126 4 -249 7 -274 8 -32 1 -53 8 -75 26 l-30 26 71 -3 71 -3 12 44 c14 53
7 61 -54 61 -22 0 -49 2 -60 5 -11 2 -29 0 -40 -4z m125 -57 c0 -20 -4 -25
-16 -20 -9 3 -35 6 -59 6 -38 0 -43 2 -38 20 5 17 14 20 59 20 52 0 54 -1 54
-26z"/>
</g>
</svg>
