<?xml version="1.0" standalone="no"?>
<!DOCTYPE svg PUBLIC "-//W3C//DTD SVG 20010904//EN"
 "http://www.w3.org/TR/2001/REC-SVG-20010904/DTD/svg10.dtd">
<svg version="1.0" xmlns="http://www.w3.org/2000/svg"
 width="143.000000pt" height="52.000000pt" viewBox="0 0 143.000000 52.000000"
 preserveAspectRatio="xMidYMid meet">
<metadata>
Created by potrace 1.16, written by Peter Selinger 2001-2019
</metadata>
<g transform="translate(0.000000,52.000000) scale(0.100000,-0.100000)"
fill="#000000" stroke="none">
<path d="M1106 460 c-32 -23 -89 -66 -127 -96 -88 -70 -106 -70 -189 -4 -66
53 -84 60 -94 35 -4 -10 5 -22 27 -35 17 -11 35 -20 38 -20 3 0 11 -11 17 -25
14 -30 -2 -34 -18 -5 -6 11 -15 20 -21 20 -5 0 -3 -13 6 -30 19 -37 19 -46 0
-30 -8 7 -15 19 -15 26 0 8 -4 14 -10 14 -14 0 -13 -7 6 -36 16 -23 15 -26 -1
-44 -20 -22 -7 -28 14 -7 11 10 14 10 18 0 8 -23 25 -14 17 9 -6 20 -5 21 10
9 16 -14 20 -10 17 20 -3 27 27 45 50 31 14 -9 53 -11 138 -6 l118 6 -5 -31
c-6 -44 -48 -42 -67 4 -8 19 -9 19 -13 -4 -4 -23 -6 -23 -85 -19 -74 5 -85 3
-127 -22 -25 -14 -60 -32 -77 -39 -35 -14 -38 -18 -24 -40 7 -10 20 -5 63 28
47 35 62 41 104 41 46 -1 53 -5 112 -59 34 -32 62 -64 62 -70 0 -6 5 -11 12
-11 7 0 24 -12 40 -27 l27 -26 41 28 c39 27 55 53 26 42 -9 -4 -38 18 -75 56
-33 34 -59 62 -58 64 2 1 70 3 152 4 103 1 150 -2 151 -10 1 -6 2 -19 3 -28 3
-39 20 6 27 70 l7 67 -139 1 c-77 1 -151 0 -166 -1 -29 -2 -47 17 -24 26 8 3
31 21 51 40 55 52 69 57 95 34 34 -30 47 -24 19 8 -14 15 -37 39 -50 55 l-25
27 -58 -40z m64 -15 c0 -16 -25 -26 -45 -19 -20 8 -19 21 2 32 20 12 43 5 43
-13z m-62 -27 c17 -17 15 -23 -12 -36 -19 -9 -27 -8 -37 4 -10 12 -8 17 7 29
23 18 27 18 42 3z m-69 -85 c-21 -21 -69 -32 -69 -15 0 4 14 19 32 34 24 20
36 24 46 16 10 -9 8 -16 -9 -35z m239 -73 c-2 -28 -5 -31 -33 -28 -22 2 -31 9
-33 26 -4 26 -22 20 -22 -9 0 -14 -7 -19 -29 -19 -24 0 -29 5 -33 30 l-5 30
79 0 78 0 -2 -30z m80 0 c2 -28 0 -30 -34 -30 -29 0 -35 3 -30 16 3 9 6 22 6
30 0 9 10 14 28 14 24 0 28 -4 30 -30z m-313 -70 c15 -47 -21 -53 -53 -10
l-23 30 35 0 c26 0 36 -5 41 -20z m45 -45 c6 -8 9 -19 5 -25 -8 -13 -42 -13
-50 0 -7 11 12 40 25 40 4 0 13 -7 20 -15z m55 -55 c17 -19 18 -22 2 -37 -15
-16 -18 -15 -37 7 -23 27 -25 36 -7 43 20 9 23 8 42 -13z"/>
<path d="M360 404 c-52 -41 -101 -72 -107 -69 -7 2 -13 -2 -13 -10 0 -15 -34
-30 -49 -20 -5 3 -12 1 -16 -4 -7 -12 -33 -4 -57 16 -21 18 -44 8 -25 -11 20
-20 54 -36 77 -36 23 0 53 -24 43 -34 -10 -10 11 -7 27 4 13 9 13 11 1 19 -11
7 -12 13 -3 23 14 18 82 11 83 -8 1 -14 4 -27 9 -41 1 -5 5 6 9 22 6 29 8 30
71 32 l65 3 -30 -26 -30 -26 28 6 c16 4 27 2 27 -4 0 -5 5 -10 10 -10 7 0 7 6
1 19 -8 14 -6 23 10 37 14 13 20 14 17 4 -2 -7 5 -16 15 -18 10 -2 17 2 17 12
0 13 12 16 55 16 59 0 54 5 70 -73 3 -16 -7 -18 -126 -16 -113 1 -129 3 -130
17 0 14 -2 13 -9 -3 -7 -17 -9 -17 -9 -2 -1 10 -8 17 -18 16 -11 0 -13 -3 -5
-6 6 -2 12 -9 12 -15 0 -7 -17 -9 -45 -6 -35 4 -51 1 -69 -13 -26 -21 -41 -25
-31 -9 3 6 1 10 -4 10 -6 0 -11 -4 -11 -10 0 -5 -22 -10 -49 -10 -53 0 -69 16
-55 56 6 17 4 16 -15 -3 -11 -12 -21 -29 -21 -36 0 -18 49 -51 73 -50 9 1 17
-4 17 -10 0 -8 3 -7 9 2 6 9 19 12 40 8 18 -4 31 -2 31 3 0 32 55 -15 127
-109 8 -10 12 -11 13 -4 0 7 -18 38 -40 69 -44 63 -48 74 -25 74 8 0 15 -5 15
-10 0 -6 15 -28 34 -48 19 -20 43 -48 55 -62 32 -39 25 -16 -14 45 -20 30 -38
61 -40 68 -4 9 30 13 145 15 l150 3 0 -36 c0 -20 4 -34 9 -31 12 8 25 166 14
177 -4 4 -35 9 -68 10 -33 1 -66 7 -74 13 -11 8 -13 8 -7 -1 5 -10 -3 -13 -28
-13 -20 0 -36 5 -36 11 0 8 -4 8 -12 2 -18 -13 -58 -14 -58 -1 0 6 -6 6 -15
-2 -12 -10 -15 -10 -15 0 0 7 32 44 70 82 113 113 69 93 -60 -28 -25 -23 -55
-45 -68 -49 -17 -5 -10 7 30 47 29 30 66 64 82 76 16 12 27 24 25 27 -3 2 -47
-30 -99 -71z"/>
<path d="M115 360 c-3 -5 -1 -10 4 -10 6 0 11 5 11 10 0 6 -2 10 -4 10 -3 0
-8 -4 -11 -10z"/>
<path d="M75 350 c-3 -5 -1 -10 4 -10 6 0 11 5 11 10 0 6 -2 10 -4 10 -3 0 -8
-4 -11 -10z"/>
<path d="M515 330 c-3 -5 -1 -10 4 -10 6 0 11 5 11 10 0 6 -2 10 -4 10 -3 0
-8 -4 -11 -10z"/>
<path d="M55 280 c-3 -5 -1 -10 4 -10 6 0 11 5 11 10 0 6 -2 10 -4 10 -3 0 -8
-4 -11 -10z"/>
<path d="M290 265 c-7 -8 -16 -12 -21 -9 -5 3 -9 -2 -9 -12 0 -13 3 -14 13 -5
8 6 17 8 20 4 4 -3 9 2 13 11 9 23 0 30 -16 11z"/>
<path d="M395 260 c-3 -5 -1 -10 4 -10 6 0 11 5 11 10 0 6 -2 10 -4 10 -3 0
-8 -4 -11 -10z"/>
<path d="M140 256 c0 -2 7 -6 15 -10 8 -3 15 -1 15 4 0 6 -7 10 -15 10 -8 0
-15 -2 -15 -4z"/>
<path d="M130 220 c-12 -8 -11 -10 8 -10 12 0 22 5 22 10 0 13 -11 13 -30 0z"/>
<path d="M180 220 c0 -5 5 -10 10 -10 6 0 10 5 10 10 0 6 -4 10 -10 10 -5 0
-10 -4 -10 -10z"/>
<path d="M72 141 c4 -13 18 -16 19 -4 0 4 -5 9 -11 12 -7 2 -11 -2 -8 -8z"/>
</g>
</svg>
