<?xml version="1.0" standalone="no"?>
<!DOCTYPE svg PUBLIC "-//W3C//DTD SVG 20010904//EN"
 "http://www.w3.org/TR/2001/REC-SVG-20010904/DTD/svg10.dtd">
<svg version="1.0" xmlns="http://www.w3.org/2000/svg"
 width="122.000000pt" height="56.000000pt" viewBox="0 0 122.000000 56.000000"
 preserveAspectRatio="xMidYMid meet">
<metadata>
Created by potrace 1.16, written by Peter Selinger 2001-2019
</metadata>
<g transform="translate(0.000000,56.000000) scale(0.100000,-0.100000)"
fill="#000000" stroke="none">
<path d="M994 463 c-14 -28 -24 -37 -39 -35 -15 3 -368 5 -456 2 -9 0 -38 -19
-64 -42 -43 -38 -54 -43 -92 -41 -30 1 -59 11 -92 32 -26 17 -50 31 -53 31
-13 0 -16 -45 -5 -59 22 -26 111 -61 158 -61 47 0 98 28 142 78 18 20 29 21
202 21 119 -1 191 3 205 11 11 6 42 9 67 6 48 -5 76 1 68 14 -6 9 23 22 34 15
4 -2 8 3 8 11 0 9 -6 13 -14 9 -11 -3 -13 1 -8 15 4 11 2 20 -4 20 -5 0 -16 3
-24 6 -10 3 -21 -7 -33 -33z"/>
<path d="M1120 450 c0 -5 4 -10 9 -10 6 0 13 5 16 10 3 6 -1 10 -9 10 -9 0
-16 -4 -16 -10z"/>
<path d="M1180 429 c0 -5 5 -7 10 -4 6 3 10 8 10 11 0 2 -4 4 -10 4 -5 0 -10
-5 -10 -11z"/>
<path d="M1095 411 c-3 -5 -1 -12 5 -16 5 -3 10 1 10 9 0 18 -6 21 -15 7z"/>
<path d="M1125 400 c-3 -5 -1 -10 4 -10 6 0 11 5 11 10 0 6 -2 10 -4 10 -3 0
-8 -4 -11 -10z"/>
<path d="M1163 384 c-3 -8 -1 -24 4 -36 8 -17 9 -15 9 16 0 39 -3 45 -13 20z"/>
<path d="M932 379 c3 -8 16 -13 32 -11 24 3 26 1 17 -17 -14 -26 -14 -28 4
-28 10 0 13 6 9 19 -4 13 0 18 12 18 30 0 2 18 -40 26 -31 5 -38 4 -34 -7z"/>
<path d="M1082 360 c-10 -17 -10 -20 6 -20 11 0 18 8 19 20 1 11 -1 20 -5 20
-4 0 -13 -9 -20 -20z"/>
<path d="M1190 370 c0 -5 5 -10 10 -10 6 0 10 5 10 10 0 6 -4 10 -10 10 -5 0
-10 -4 -10 -10z"/>
<path d="M1128 353 c7 -3 16 -2 19 1 4 3 -2 6 -13 5 -11 0 -14 -3 -6 -6z"/>
<path d="M951 314 c0 -11 3 -14 6 -6 3 7 2 16 -1 19 -3 4 -6 -2 -5 -13z"/>
<path d="M1025 310 c-21 -8 -53 -40 -41 -40 3 0 14 4 24 9 9 5 25 12 35 15 9
3 17 10 17 16 0 12 -7 12 -35 0z"/>
<path d="M910 299 c0 -5 5 -7 10 -4 6 3 10 8 10 11 0 2 -4 4 -10 4 -5 0 -10
-5 -10 -11z"/>
<path d="M1076 301 c-3 -5 3 -11 14 -14 13 -3 20 0 20 9 0 15 -26 19 -34 5z"/>
<path d="M1137 304 c-9 -9 35 -54 53 -53 11 0 9 5 -7 18 -13 11 -23 24 -23 30
0 12 -13 15 -23 5z"/>
<path d="M927 277 c-2 -8 -51 -12 -148 -13 -220 -2 -209 0 -280 -46 -59 -40
-69 -43 -130 -43 -61 0 -70 3 -114 38 -51 39 -68 42 -73 13 -5 -22 49 -71 103
-95 79 -35 137 -24 236 43 l54 36 187 0 c175 0 188 1 198 19 5 11 10 26 10 34
0 18 -37 30 -43 14z"/>
<path d="M985 242 c-4 -10 2 -12 24 -7 19 4 33 1 44 -9 13 -13 15 -12 15 8 0
20 -5 23 -39 22 -23 0 -41 -6 -44 -14z"/>
<path d="M1095 240 c-3 -5 -1 -10 4 -10 6 0 11 5 11 10 0 6 -2 10 -4 10 -3 0
-8 -4 -11 -10z"/>
<path d="M1095 210 c-3 -5 -1 -10 4 -10 6 0 11 5 11 10 0 6 -2 10 -4 10 -3 0
-8 -4 -11 -10z"/>
<path d="M977 203 c-6 -14 -2 -36 8 -39 6 -2 19 3 30 12 17 13 18 16 5 24 -18
12 -37 13 -43 3z"/>
<path d="M1135 171 c-6 -11 9 -23 19 -14 9 9 7 23 -3 23 -6 0 -12 -4 -16 -9z"/>
</g>
</svg>
