<?xml version="1.0" standalone="no"?>
<!DOCTYPE svg PUBLIC "-//W3C//DTD SVG 20010904//EN"
 "http://www.w3.org/TR/2001/REC-SVG-20010904/DTD/svg10.dtd">
<svg version="1.0" xmlns="http://www.w3.org/2000/svg"
 width="122.000000pt" height="50.000000pt" viewBox="0 0 122.000000 50.000000"
 preserveAspectRatio="xMidYMid meet">
<metadata>
Created by potrace 1.16, written by Peter Selinger 2001-2019
</metadata>
<g transform="translate(0.000000,50.000000) scale(0.100000,-0.100000)"
fill="#000000" stroke="none">
<path d="M395 380 c-45 -45 -67 -60 -90 -61 -31 -1 -180 2 -225 5 -16 1 -26
-5 -28 -16 -3 -16 7 -18 100 -17 169 1 202 9 253 59 l44 43 109 -6 c60 -4 129
-13 153 -21 24 -7 78 -22 119 -31 41 -10 85 -24 97 -31 12 -8 30 -14 39 -14
11 0 14 -5 10 -16 -3 -9 -6 -19 -6 -23 0 -10 -135 -61 -255 -97 -161 -48 -355
-34 -355 25 0 10 -6 23 -13 29 -19 16 -263 17 -282 2 -25 -21 -6 -32 44 -26
25 4 82 8 127 10 l80 5 10 -42 c11 -51 38 -67 114 -67 116 0 357 53 446 98
101 50 194 93 217 98 41 9 46 27 6 20 l-34 -6 30 15 30 15 -33 -5 c-49 -7 -38
3 23 20 30 9 55 20 55 25 0 4 -35 -3 -77 -17 -79 -25 -169 -33 -194 -17 -27
17 -396 104 -439 104 -8 0 -42 -27 -75 -60z m672 -86 c-3 -3 -12 -4 -19 -1 -8
3 -5 6 6 6 11 1 17 -2 13 -5z"/>
<path d="M504 358 c8 -14 7 -22 -7 -35 -14 -15 -22 -16 -47 -6 -35 13 -40 1
-9 -21 30 -21 15 -39 -27 -31 -34 6 -48 -8 -19 -19 8 -3 15 -15 15 -26 0 -17
3 -18 18 -9 11 7 31 9 47 5 26 -7 27 -8 10 -26 -22 -24 -9 -27 16 -4 23 21 76
6 71 -20 -3 -16 -1 -16 21 -1 14 9 27 25 30 37 5 18 11 20 44 15 l38 -6 -25
19 c-24 18 -24 19 -6 38 17 19 21 20 58 6 48 -17 48 -17 48 -5 0 5 -16 15 -35
21 -35 12 -44 23 -25 35 6 3 10 11 10 17 0 6 -10 2 -22 -9 -18 -16 -28 -19
-45 -12 -26 9 -29 19 -11 37 18 18 -3 15 -23 -3 -20 -19 -73 -10 -65 10 3 9
-7 12 -33 11 -34 0 -37 -3 -27 -18z m60 -28 c31 -12 33 -21 5 -38 -38 -24 -77
6 -47 36 14 14 11 14 42 2z m105 -36 c11 -9 -25 -34 -49 -34 -34 0 -42 8 -29
31 7 14 17 17 42 12 17 -3 34 -7 36 -9z m-142 -32 c7 -5 9 -13 4 -21 -11 -18
-61 -6 -61 14 0 16 36 20 57 7z m76 -26 c24 -18 2 -36 -35 -29 -31 6 -34 13
-16 31 15 15 29 15 51 -2z"/>
</g>
</svg>
