<?xml version="1.0" standalone="no"?>
<!DOCTYPE svg PUBLIC "-//W3C//DTD SVG 20010904//EN"
 "http://www.w3.org/TR/2001/REC-SVG-20010904/DTD/svg10.dtd">
<svg version="1.0" xmlns="http://www.w3.org/2000/svg"
 width="92.000000pt" height="42.000000pt" viewBox="0 0 92.000000 42.000000"
 preserveAspectRatio="xMidYMid meet">
<metadata>
Created by potrace 1.16, written by Peter Selinger 2001-2019
</metadata>
<g transform="translate(0.000000,42.000000) scale(0.100000,-0.100000)"
fill="#000000" stroke="none">
<path d="M150 291 c-14 -4 -25 -13 -25 -21 0 -12 16 -15 72 -15 39 0 75 -3 79
-7 4 -5 -27 -8 -69 -8 l-77 0 2 -27 c1 -16 7 -31 13 -35 6 -5 3 -8 -7 -8 -12
0 -15 -5 -11 -16 5 -12 19 -14 79 -11 41 3 74 1 74 -4 0 -4 -33 -9 -72 -11
-60 -2 -73 -6 -76 -20 -3 -16 7 -18 110 -17 62 1 171 10 243 21 72 11 150 22
174 25 53 6 131 38 131 53 0 6 -8 13 -17 16 -10 4 -38 15 -62 26 -142 63 -167
68 -357 67 -99 -1 -190 -4 -204 -8z m366 -38 c-10 -10 -19 5 -10 18 6 11 8 11
12 0 2 -7 1 -15 -2 -18z m-106 11 c-36 -8 -100 -9 -100 -2 0 5 26 7 58 7 31
-1 50 -3 42 -5z m70 -58 l0 -45 -47 -6 c-27 -3 -60 -8 -75 -10 -27 -4 -28 -3
-28 45 l0 49 73 4 c39 1 73 4 75 5 1 1 2 -18 2 -42z m123 19 c82 -25 85 -31
21 -43 -90 -19 -95 -17 -92 23 2 40 5 40 71 20z m152 -35 c3 -5 -3 -10 -14
-10 -12 0 -21 5 -21 10 0 6 6 10 14 10 8 0 18 -4 21 -10z m-245 -52 c-13 -5
-31 -7 -39 -5 -10 3 -8 5 6 6 12 0 25 6 28 11 4 6 11 7 17 4 7 -5 2 -11 -12
-16z m-97 -15 c-7 -2 -19 -2 -25 0 -7 3 -2 5 12 5 14 0 19 -2 13 -5z m-86 -9
c-3 -3 -12 -4 -19 -1 -8 3 -5 6 6 6 11 1 17 -2 13 -5z"/>
</g>
</svg>
