<?xml version="1.0" standalone="no"?>
<!DOCTYPE svg PUBLIC "-//W3C//DTD SVG 20010904//EN"
 "http://www.w3.org/TR/2001/REC-SVG-20010904/DTD/svg10.dtd">
<svg version="1.0" xmlns="http://www.w3.org/2000/svg"
 width="88.000000pt" height="32.000000pt" viewBox="0 0 88.000000 32.000000"
 preserveAspectRatio="xMidYMid meet">
<metadata>
Created by potrace 1.16, written by Peter Selinger 2001-2019
</metadata>
<g transform="translate(0.000000,32.000000) scale(0.100000,-0.100000)"
fill="#000000" stroke="none">
<path d="M100 255 c0 -19 30 -54 43 -50 30 11 181 24 193 17 12 -7 89 -2 223
14 25 3 40 9 35 14 -13 13 -494 18 -494 5z"/>
<path d="M594 166 c-3 -9 -3 -23 0 -32 5 -14 15 -16 64 -9 31 4 88 10 126 14
42 3 71 11 74 19 3 9 -24 12 -111 12 -64 0 -122 3 -131 6 -10 4 -18 0 -22 -10z"/>
<path d="M100 155 c0 -29 26 -35 96 -25 90 13 151 13 156 -1 2 -7 36 -7 113 1
106 12 123 15 114 24 -2 2 -111 6 -241 9 -185 3 -238 1 -238 -8z"/>
<path d="M106 91 c-13 -20 14 -53 37 -47 12 2 108 8 212 11 192 6 225 10 225
24 0 12 -244 20 -251 8 -7 -10 -172 -5 -200 7 -10 4 -20 3 -23 -3z"/>
</g>
</svg>
