<?xml version="1.0" standalone="no"?>
<!DOCTYPE svg PUBLIC "-//W3C//DTD SVG 20010904//EN"
 "http://www.w3.org/TR/2001/REC-SVG-20010904/DTD/svg10.dtd">
<svg version="1.0" xmlns="http://www.w3.org/2000/svg"
 width="51.000000pt" height="134.000000pt" viewBox="0 0 51.000000 134.000000"
 preserveAspectRatio="xMidYMid meet">
<metadata>
Created by potrace 1.16, written by Peter Selinger 2001-2019
</metadata>
<g transform="translate(0.000000,134.000000) scale(0.100000,-0.100000)"
fill="#000000" stroke="none">
<path d="M226 1261 c6 -28 4 -31 -19 -31 -14 0 -28 -4 -31 -9 -11 -17 15 -109
35 -127 27 -24 24 -44 -6 -44 -52 0 -60 -109 -10 -132 18 -8 25 -20 27 -50 4
-49 22 -50 26 -1 2 21 11 42 21 50 25 17 43 65 39 104 -3 30 -6 34 -30 31 -36
-4 -35 3 8 50 30 34 35 45 32 81 -3 38 -6 42 -31 45 -24 3 -28 7 -25 30 2 22
-2 28 -19 30 -20 3 -22 0 -17 -27z m-11 -81 c9 -14 58 -13 73 2 18 18 16 -4
-5 -52 -20 -45 -33 -52 -33 -17 -1 21 -1 21 -15 3 -14 -18 -15 -18 -30 17 -8
20 -15 41 -15 47 0 13 17 13 25 0z m43 -181 c27 8 32 7 32 -7 0 -29 -30 -62
-55 -62 -27 0 -55 34 -55 67 0 22 1 23 23 8 17 -11 31 -12 55 -6z"/>
<path d="M180 410 c-27 -27 -25 -44 5 -68 34 -27 34 -80 0 -112 -31 -29 -31
-41 -2 -68 29 -27 61 -28 87 -2 27 27 25 44 -5 68 -32 26 -35 89 -5 115 26 22
25 52 -2 71 -30 21 -54 20 -78 -4z"/>
</g>
</svg>
