<?xml version="1.0" standalone="no"?>
<!DOCTYPE svg PUBLIC "-//W3C//DTD SVG 20010904//EN"
 "http://www.w3.org/TR/2001/REC-SVG-20010904/DTD/svg10.dtd">
<svg version="1.0" xmlns="http://www.w3.org/2000/svg"
 width="83.000000pt" height="35.000000pt" viewBox="0 0 83.000000 35.000000"
 preserveAspectRatio="xMidYMid meet">
<metadata>
Created by potrace 1.16, written by Peter Selinger 2001-2019
</metadata>
<g transform="translate(0.000000,35.000000) scale(0.100000,-0.100000)"
fill="#000000" stroke="none">
<path d="M0 331 c0 -7 32 -11 86 -11 77 0 85 -2 80 -17 -30 -105 -14 -128 101
-138 43 -5 161 -5 261 -2 l184 5 -7 -36 c-4 -20 -9 -40 -11 -44 -3 -5 -107 -6
-232 -3 -221 5 -227 6 -244 28 -16 21 -18 21 -35 5 -15 -16 -15 -20 -3 -32 33
-30 81 -35 290 -32 177 3 210 1 210 -11 0 -8 5 -11 10 -8 5 3 10 14 10 24 0
10 14 44 31 76 29 55 32 85 8 85 -7 0 -17 -7 -23 -15 -10 -13 -44 -16 -218
-16 -223 0 -279 9 -304 47 -15 22 -11 69 8 80 7 5 412 5 582 0 22 -1 41 4 43
10 2 7 -120 11 -412 13 -286 1 -415 -1 -415 -8z"/>
</g>
</svg>
