<?xml version="1.0" standalone="no"?>
<!DOCTYPE svg PUBLIC "-//W3C//DTD SVG 20010904//EN"
 "http://www.w3.org/TR/2001/REC-SVG-20010904/DTD/svg10.dtd">
<svg version="1.0" xmlns="http://www.w3.org/2000/svg"
 width="146.000000pt" height="292.000000pt" viewBox="0 0 146.000000 292.000000"
 preserveAspectRatio="xMidYMid meet">
<metadata>
Created by potrace 1.16, written by Peter Selinger 2001-2019
</metadata>
<g transform="translate(0.000000,292.000000) scale(0.100000,-0.100000)"
fill="#000000" stroke="none">
<path d="M5 2450 c0 -261 1 -368 2 -238 2 131 2 345 0 475 -1 131 -2 24 -2
-237z"/>
<path d="M680 2807 c-79 -26 -114 -32 -213 -35 l-118 -3 7 -32 c4 -18 7 -42 7
-54 -1 -22 2 -23 88 -23 98 0 127 19 32 21 l-58 1 65 13 c61 12 63 13 25 15
-38 3 -39 3 -7 7 35 5 43 19 15 26 -17 4 48 11 74 8 7 -1 45 12 85 30 61 26
78 29 103 21 17 -6 45 -13 63 -17 18 -4 37 -15 43 -26 9 -18 21 -19 193 -18
190 1 236 5 236 20 0 5 -86 9 -192 9 l-191 0 -74 35 c-41 19 -77 34 -81 34 -4
-1 -50 -15 -102 -32z m-222 -74 c-15 -2 -42 -2 -60 0 -18 2 -6 4 27 4 33 0 48
-2 33 -4z"/>
<path d="M1333 2699 c6 -79 11 -98 22 -87 3 3 8 42 12 87 6 80 6 81 -17 81
-23 0 -23 -1 -17 -81z"/>
<path d="M747 2754 c-4 -4 -4 -43 -1 -86 8 -92 4 -95 -86 -51 -50 24 -67 26
-177 28 -114 1 -123 0 -123 -18 0 -17 6 -18 100 -11 79 5 109 3 138 -8 69 -28
137 -48 164 -48 14 0 53 15 86 34 65 37 121 44 349 48 62 0 118 5 125 9 18 12
17 12 -212 13 l-195 2 -40 -27 c-22 -15 -53 -30 -69 -34 l-28 -6 3 78 c3 64 1
78 -11 81 -9 1 -19 -1 -23 -4z"/>
<path d="M120 2735 c-10 -12 -10 -19 -2 -27 8 -8 13 -7 18 5 9 23 24 21 24 -3
0 -11 -6 -20 -13 -20 -8 0 -24 -12 -38 -26 -23 -25 -24 -26 -5 -40 13 -9 37
-12 70 -10 28 2 56 0 63 -5 7 -7 14 -6 18 1 8 13 -3 32 -15 25 -21 -13 -50 20
-50 55 0 55 -41 80 -70 45z m40 -85 c0 -5 -7 -10 -15 -10 -8 0 -15 5 -15 10 0
6 7 10 15 10 8 0 15 -4 15 -10z"/>
<path d="M726 2128 c-58 -30 -60 -31 -208 -29 l-149 2 3 -33 c2 -18 8 -36 13
-40 6 -5 5 -8 -2 -8 -7 0 -13 -7 -13 -15 0 -8 8 -15 17 -15 15 0 15 -1 -2 -13
-34 -26 -8 -40 59 -33 193 21 234 19 343 -20 42 -15 43 -15 78 12 34 25 44 28
153 31 64 2 149 7 187 11 104 10 115 7 115 -34 0 -19 4 -34 9 -34 13 0 33 101
29 142 l-3 33 -216 5 -216 5 -63 33 c-34 17 -66 32 -69 31 -3 -1 -32 -15 -65
-31z m117 -24 c34 -14 65 -31 69 -37 6 -9 98 -10 332 -4 l69 2 3 -32 4 -33
-143 -1 c-78 -1 -164 -1 -190 0 -36 1 -66 -7 -112 -29 -35 -16 -67 -30 -72
-30 -5 0 -29 10 -54 22 -34 16 -59 21 -111 19 -62 -2 -85 8 -58 24 15 9 12 25
-6 25 -8 0 -12 5 -9 10 4 6 -28 10 -87 11 l-93 2 75 9 c41 5 106 7 144 4 65
-5 71 -3 119 29 29 19 53 35 55 35 1 0 31 -12 65 -26z m-390 -121 c-7 -2 -21
-2 -30 0 -10 3 -4 5 12 5 17 0 24 -2 18 -5z m95 0 c-10 -2 -26 -2 -35 0 -10 3
-2 5 17 5 19 0 27 -2 18 -5z"/>
<path d="M775 2080 c-9 -14 4 -108 16 -115 10 -7 18 23 21 80 2 30 -1 40 -14
43 -9 2 -19 -2 -23 -8z"/>
<path d="M92 2107 c-5 -6 -8 -39 -6 -72 l3 -60 60 -2 c59 -1 84 13 42 24 -11
3 -21 15 -23 27 -2 11 -13 25 -25 31 -14 6 -23 19 -23 32 0 27 -14 37 -28 20z
m48 -87 c9 -16 8 -20 -5 -20 -8 0 -15 9 -15 20 0 11 2 20 5 20 2 0 9 -9 15
-20z"/>
<path d="M1037 1913 c-16 -16 -3 -30 53 -61 33 -19 60 -37 60 -41 0 -10 -105
-51 -131 -51 -14 0 -19 -7 -19 -25 0 -14 2 -25 5 -25 3 0 46 18 96 40 l92 39
72 -34 c40 -19 78 -35 85 -35 25 0 -11 29 -68 56 l-57 26 30 14 c17 8 52 23
78 34 27 11 45 24 42 30 -4 7 -13 6 -27 -1 -11 -6 -51 -21 -88 -34 l-67 -23
-72 49 c-78 53 -75 52 -84 42z"/>
<path d="M696 1341 c-4 -6 3 -25 15 -42 15 -22 18 -34 11 -41 -8 -8 -17 0 -32
26 -22 37 -34 44 -45 26 -3 -5 5 -22 19 -37 l26 -27 -35 -14 c-19 -8 -35 -18
-35 -22 0 -5 -37 -6 -82 -3 -46 3 -103 6 -128 6 -48 2 -46 5 -37 -58 1 -5 7
-14 12 -18 6 -6 6 -10 -2 -14 -7 -2 -13 -12 -13 -20 0 -14 17 -15 128 -11 71
3 140 1 153 -4 l24 -9 -34 -28 c-21 -17 -30 -31 -23 -35 6 -3 27 8 46 25 20
17 40 27 47 23 8 -5 1 -16 -22 -35 -19 -15 -30 -31 -26 -35 4 -4 23 7 41 25
27 26 39 31 57 25 13 -4 38 -6 55 -5 24 2 37 -5 57 -28 23 -28 47 -40 47 -25
0 3 -12 20 -26 37 -18 21 -22 33 -14 35 7 3 23 -8 35 -24 28 -35 44 -26 19 10
-9 15 -15 29 -12 31 2 3 91 6 196 8 l192 3 0 -22 c0 -13 4 -25 8 -28 10 -6 37
138 29 157 -4 12 -42 15 -204 16 -166 1 -203 4 -230 18 l-33 17 32 33 c17 18
28 36 24 40 -4 5 -23 -9 -41 -29 -46 -54 -65 -47 -21 7 44 53 34 60 -14 10
-27 -28 -42 -35 -71 -35 -27 0 -39 5 -43 18 -11 32 -43 66 -50 53z m104 -112
c0 -6 9 -8 21 -4 13 4 19 3 16 -2 -4 -5 8 -10 25 -10 19 0 37 -7 47 -20 15
-20 25 -20 204 -18 176 3 187 2 187 -15 0 -10 3 -26 7 -36 6 -16 -5 -17 -176
-11 -126 4 -189 3 -206 -5 -22 -10 -29 -8 -50 12 -20 19 -25 20 -25 7 0 -9 5
-19 10 -22 20 -12 10 -27 -14 -21 -14 3 -26 1 -28 -5 -4 -13 -98 -3 -98 10 0
4 14 20 31 37 l31 29 -4 -34 c-5 -51 19 -50 30 1 7 32 6 47 -5 58 -11 12 -19
9 -55 -26 l-43 -41 -97 5 c-54 2 -95 8 -92 13 3 5 15 9 27 9 20 1 21 2 5 14
-10 7 -16 15 -13 17 2 3 -28 5 -66 6 -126 2 -86 13 50 13 98 0 140 4 161 15
18 9 31 11 35 5 10 -16 25 -12 19 5 -7 18 17 20 35 3 11 -11 13 -10 8 5 -4 11
-1 17 8 17 8 0 15 -5 15 -11z"/>
<path d="M88 1219 c-21 -12 -24 -58 -5 -81 18 -23 62 -31 76 -14 13 16 -2 32
-19 21 -17 -10 -40 15 -40 42 0 25 0 25 26 8 29 -19 44 -12 28 13 -13 21 -43
26 -66 11z"/>
<path d="M180 1130 c0 -5 5 -10 10 -10 6 0 10 5 10 10 0 6 -4 10 -10 10 -5 0
-10 -4 -10 -10z"/>
<path d="M680 524 c0 -3 11 -20 25 -38 27 -36 31 -46 15 -46 -6 0 -20 16 -31
35 -12 19 -25 35 -30 35 -17 0 -9 -34 13 -57 21 -23 21 -23 2 -38 -13 -10 -46
-14 -111 -15 l-92 0 6 -42 c3 -24 6 -52 7 -63 1 -18 9 -20 71 -23 39 -1 81 -5
94 -8 l24 -5 -32 -33 c-31 -32 -40 -56 -21 -56 5 0 24 16 43 35 19 19 38 35
43 35 4 0 -10 -18 -31 -40 -27 -28 -36 -43 -29 -50 8 -8 22 3 48 34 34 42 40
45 79 44 31 -1 53 5 82 25 36 23 52 27 154 31 106 5 112 4 99 -12 -27 -31 -29
-41 -9 -51 17 -9 22 -4 46 42 15 28 34 60 42 69 14 16 12 24 -17 83 -23 46
-38 65 -51 65 -23 0 -26 -32 -4 -50 34 -28 15 -33 -95 -27 -81 5 -120 12 -150
27 -22 11 -57 21 -78 22 -33 1 -41 6 -60 40 -13 21 -29 38 -37 38 -8 0 -15 -3
-15 -6z m167 -115 c17 -6 34 -17 37 -26 5 -13 24 -14 141 -8 120 7 135 6 141
-9 4 -10 -1 -25 -11 -36 -16 -18 -32 -20 -150 -20 -111 0 -134 -3 -139 -15 -7
-19 -65 -45 -98 -45 -21 0 -21 2 12 33 19 18 41 31 49 28 9 -3 12 0 7 8 -4 6
-2 19 6 28 11 14 10 15 -10 9 -22 -7 -31 7 -12 19 6 3 10 11 10 17 0 6 -6 6
-15 -2 -13 -11 -18 -10 -30 6 -26 35 -18 37 62 13z m-67 -42 c0 -5 -9 -2 -20
8 -11 10 -20 25 -20 34 1 12 5 10 20 -8 11 -13 20 -28 20 -34z m-35 -4 c17
-26 17 -27 -11 -47 -23 -17 -40 -20 -94 -17 -75 3 -83 7 -46 20 14 6 26 17 26
25 0 9 7 12 20 9 11 -3 20 0 20 6 0 7 -24 12 -62 13 -61 2 -60 2 22 8 47 3 90
7 96 8 7 1 20 -10 29 -25z m52 -35 c-3 -8 -6 -5 -6 6 -1 11 2 17 5 13 3 -3 4
-12 1 -19z m-17 -16 c0 -14 -49 -56 -57 -49 -3 4 4 18 17 32 24 25 40 32 40
17z"/>
<path d="M110 485 c-7 -8 -10 -29 -8 -46 4 -25 1 -33 -14 -37 -22 -5 -23 -18
-2 -26 12 -4 15 -15 12 -36 -3 -17 -1 -31 4 -32 29 -5 33 -1 30 29 -3 26 0 32
20 35 13 2 21 8 18 13 -3 6 -13 9 -22 8 -14 -2 -18 5 -18 31 0 21 6 36 15 40
21 8 19 36 -4 36 -10 0 -24 -7 -31 -15z"/>
<path d="M155 331 c-6 -11 9 -23 19 -14 9 9 7 23 -3 23 -6 0 -12 -4 -16 -9z"/>
<path d="M300 179 c-54 -29 -57 -30 -156 -23 -66 4 -104 2 -108 -5 -12 -18 26
-29 93 -24 l66 4 -67 -36 c-38 -19 -68 -42 -68 -50 0 -20 22 -19 51 3 23 17
63 40 117 67 19 10 51 13 114 10 55 -3 88 -1 88 5 0 6 -12 10 -27 11 -38 1
-96 8 -101 13 -2 2 12 12 32 21 20 10 36 21 36 26 0 14 -10 10 -70 -22z"/>
</g>
</svg>
