<?xml version="1.0" standalone="no"?>
<!DOCTYPE svg PUBLIC "-//W3C//DTD SVG 20010904//EN"
 "http://www.w3.org/TR/2001/REC-SVG-20010904/DTD/svg10.dtd">
<svg version="1.0" xmlns="http://www.w3.org/2000/svg"
 width="68.000000pt" height="44.000000pt" viewBox="0 0 68.000000 44.000000"
 preserveAspectRatio="xMidYMid meet">
<metadata>
Created by potrace 1.16, written by Peter Selinger 2001-2019
</metadata>
<g transform="translate(0.000000,44.000000) scale(0.100000,-0.100000)"
fill="#000000" stroke="none">
<path d="M116 295 c-4 -11 9 -25 45 -47 l50 -32 -23 -18 c-13 -10 -43 -27 -67
-39 -40 -19 -42 -22 -28 -36 15 -15 19 -14 52 13 20 16 48 36 61 44 23 14 26
13 50 -18 53 -67 107 -72 179 -17 41 30 56 31 81 4 10 -11 27 -25 36 -30 29
-16 21 8 -14 43 l-31 31 49 42 c61 54 51 71 -12 21 -26 -20 -50 -36 -53 -36
-3 0 -27 20 -54 45 -53 50 -51 50 -150 -7 -26 -16 -51 -28 -54 -28 -3 0 -21
18 -40 40 -36 41 -67 51 -77 25z m299 -62 l44 -36 -23 -18 c-13 -10 -41 -21
-62 -25 -33 -5 -47 -1 -82 22 -23 15 -42 30 -42 34 0 9 92 59 108 60 7 0 33
-16 57 -37z"/>
</g>
</svg>
