<?xml version="1.0" standalone="no"?>
<!DOCTYPE svg PUBLIC "-//W3C//DTD SVG 20010904//EN"
 "http://www.w3.org/TR/2001/REC-SVG-20010904/DTD/svg10.dtd">
<svg version="1.0" xmlns="http://www.w3.org/2000/svg"
 width="111.000000pt" height="44.000000pt" viewBox="0 0 111.000000 44.000000"
 preserveAspectRatio="xMidYMid meet">
<metadata>
Created by potrace 1.16, written by Peter Selinger 2001-2019
</metadata>
<g transform="translate(0.000000,44.000000) scale(0.100000,-0.100000)"
fill="#000000" stroke="none">
<path d="M540 343 c1 -10 7 -29 15 -43 19 -33 18 -40 -4 -40 -14 0 -21 10 -28
36 -8 37 -36 65 -49 51 -4 -4 0 -23 9 -42 22 -46 23 -45 -17 -45 -28 0 -40 7
-66 40 -29 36 -33 38 -58 28 -15 -7 -45 -25 -66 -40 -22 -15 -45 -28 -51 -28
-7 0 -31 18 -56 40 -24 22 -50 39 -58 38 -31 -6 -20 -29 28 -59 28 -17 51 -34
51 -39 0 -5 -22 -22 -50 -39 -54 -33 -58 -42 -35 -61 17 -14 25 -10 86 47 l35
33 25 -26 c29 -31 71 -54 99 -54 11 0 41 19 66 42 42 38 50 42 108 45 l64 3
22 -63 c24 -65 36 -84 45 -75 3 3 -3 30 -15 59 -28 75 -27 81 16 77 35 -3 38
-6 64 -71 31 -77 37 -86 45 -64 4 8 -5 40 -19 71 -14 31 -26 59 -26 61 0 3 27
5 60 5 47 0 69 -5 100 -25 22 -14 40 -30 40 -35 0 -6 4 -10 10 -10 5 0 7 7 3
16 -4 12 7 9 46 -11 58 -31 76 -27 43 8 -21 22 -29 47 -16 47 10 0 34 -28 34
-40 0 -6 5 -8 11 -5 7 5 4 14 -7 26 -15 17 -15 19 -2 14 20 -8 28 5 30 50 1
41 -25 68 -57 58 -11 -3 -26 -6 -32 -6 -7 0 -13 -5 -13 -10 0 -5 -6 -7 -14 -4
-8 3 -20 -1 -26 -9 -7 -8 -18 -14 -24 -14 -6 0 -24 -7 -40 -15 -18 -10 -51
-14 -92 -13 l-63 3 -20 48 c-14 34 -25 47 -40 47 -20 0 -20 0 -1 -46 11 -25
20 -48 20 -50 0 -3 -14 -4 -32 -2 -29 3 -34 8 -45 47 -12 41 -26 60 -45 61 -5
0 -8 -8 -8 -17z m-163 -59 c81 -61 -4 -129 -94 -74 -30 18 -44 40 -25 40 4 0
23 14 42 30 19 16 37 30 39 30 2 0 19 -11 38 -26z m673 5 c0 -14 -39 -16 -44
-3 -4 10 2 13 19 12 14 -1 25 -5 25 -9z m-83 -31 c-3 -8 -6 -5 -6 6 -1 11 2
17 5 13 3 -3 4 -12 1 -19z m-40 -13 c0 -17 -13 -20 -21 -6 -4 5 0 12 6 14 7 3
13 6 14 6 0 1 1 -6 1 -14z m110 -7 c-3 -8 -6 -5 -6 6 -1 11 2 17 5 13 3 -3 4
-12 1 -19z"/>
</g>
</svg>
