<?xml version="1.0" standalone="no"?>
<!DOCTYPE svg PUBLIC "-//W3C//DTD SVG 20010904//EN"
 "http://www.w3.org/TR/2001/REC-SVG-20010904/DTD/svg10.dtd">
<svg version="1.0" xmlns="http://www.w3.org/2000/svg"
 width="96.000000pt" height="57.000000pt" viewBox="0 0 96.000000 57.000000"
 preserveAspectRatio="xMidYMid meet">
<metadata>
Created by potrace 1.16, written by Peter Selinger 2001-2019
</metadata>
<g transform="translate(0.000000,57.000000) scale(0.100000,-0.100000)"
fill="#000000" stroke="none">
<path d="M0 561 c0 -7 38 -11 108 -11 101 0 108 -1 109 -20 1 -12 -3 -18 -9
-14 -6 4 -6 -1 1 -14 21 -39 32 -36 27 8 l-5 42 365 -4 c246 -2 363 0 361 7
-5 14 -957 20 -957 6z"/>
<path d="M260 524 c0 -8 5 -12 10 -9 6 3 10 10 10 16 0 5 -4 9 -10 9 -5 0 -10
-7 -10 -16z"/>
<path d="M160 519 c0 -5 5 -7 10 -4 6 3 10 8 10 11 0 2 -4 4 -10 4 -5 0 -10
-5 -10 -11z"/>
<path d="M344 503 c3 -22 54 -41 161 -58 44 -8 110 -19 146 -26 l66 -11 -1
-37 c-1 -21 -7 -39 -16 -43 -31 -14 -40 -8 -40 27 0 47 -18 45 -22 -2 -3 -36
-5 -38 -39 -41 l-36 -3 4 45 c3 29 0 46 -6 46 -6 0 -11 -20 -11 -44 0 -25 -4
-47 -9 -50 -5 -4 -37 -9 -70 -12 l-61 -7 -1 69 c-2 72 -4 68 -14 -30 l-7 -59
-56 8 c-32 4 -75 8 -97 9 l-40 1 -2 -80 c-4 -124 -7 -120 89 -134 46 -6 95
-14 111 -16 27 -5 38 9 15 18 -10 3 -12 29 -10 94 l3 89 67 12 c64 11 68 11
82 -11 8 -12 35 -45 60 -73 25 -28 57 -66 73 -85 l27 -34 25 29 c31 38 70 114
62 122 -9 9 -27 -5 -27 -22 0 -8 -4 -14 -8 -14 -14 0 -93 113 -85 120 9 8 93
26 166 36 51 7 84 38 49 47 -132 35 -195 50 -292 68 -188 34 -212 40 -236 55
-21 14 -22 14 -20 -3z m486 -119 c65 -10 65 -17 0 -30 -97 -19 -100 -19 -100
17 0 30 1 31 33 25 17 -4 48 -10 67 -12z m-173 -90 c-4 -4 14 -36 38 -71 25
-35 45 -65 45 -67 0 -7 -40 -49 -43 -45 -2 2 -32 39 -66 83 -35 43 -59 82 -54
86 14 14 94 27 80 14z m-375 -79 c-4 -31 -6 -33 -27 -25 -13 5 -26 6 -29 3 -3
-4 -6 12 -6 34 l0 41 33 -10 c30 -9 32 -13 29 -43z m90 18 c7 -4 4 -60 -3 -68
-2 -2 -16 -1 -31 2 -22 4 -27 11 -30 44 -4 39 -3 40 27 33 16 -3 33 -8 37 -11z
m-111 -73 c10 0 20 -11 24 -27 l8 -28 11 25 c17 38 62 30 70 -12 3 -17 4 -34
1 -36 -8 -8 -154 28 -161 39 -3 6 -3 22 1 36 4 19 9 23 18 14 6 -6 19 -11 28
-11z"/>
<path d="M105 501 c-3 -5 -1 -12 5 -16 5 -3 10 1 10 9 0 18 -6 21 -15 7z"/>
<path d="M181 494 c0 -11 3 -14 6 -6 3 7 2 16 -1 19 -3 4 -6 -2 -5 -13z"/>
<path d="M290 485 c10 -12 10 -15 -4 -15 -9 0 -16 -4 -16 -10 0 -15 26 -12 41
6 10 13 10 17 -2 25 -22 14 -33 11 -19 -6z"/>
<path d="M126 464 c-4 -9 -4 -19 -1 -22 2 -3 7 3 11 12 4 9 4 19 1 22 -2 3 -7
-3 -11 -12z"/>
<path d="M190 449 c0 -5 5 -7 10 -4 16 10 12 -32 -5 -48 -8 -8 -11 -17 -8 -21
4 -3 1 -6 -5 -6 -7 0 -12 5 -12 11 0 14 -25 39 -39 39 -6 0 -10 -5 -8 -11 1
-6 -4 -14 -11 -16 -7 -3 -11 1 -10 8 4 19 -36 23 -52 4 -7 -9 -8 -15 -2 -15 6
0 12 5 14 11 2 6 19 -3 37 -20 38 -36 46 -39 32 -12 -10 18 -6 31 10 31 8 0
24 -40 21 -52 -1 -4 4 -5 12 -2 9 3 16 -5 21 -23 l8 -28 7 25 c4 14 5 35 3 48
-3 12 0 22 5 22 10 0 7 44 -4 62 -7 12 -24 10 -24 -3z"/>
<path d="M320 450 c0 -5 5 -10 10 -10 6 0 10 5 10 10 0 6 -4 10 -10 10 -5 0
-10 -4 -10 -10z"/>
<path d="M165 430 c3 -5 8 -10 11 -10 2 0 4 5 4 10 0 6 -5 10 -11 10 -5 0 -7
-4 -4 -10z"/>
<path d="M269 422 c-15 -18 -15 -102 1 -102 6 0 20 106 15 117 -1 1 -8 -5 -16
-15z"/>
<path d="M337 413 c-11 -10 -8 -93 3 -93 6 0 10 23 10 50 0 51 -1 55 -13 43z"/>
<path d="M476 398 c-9 -36 -7 -88 4 -88 6 0 10 25 10 55 0 59 -4 69 -14 33z"/>
<path d="M92 333 c2 -10 14 -19 28 -21 l25 -4 -22 21 c-27 26 -36 27 -31 4z"/>
</g>
</svg>
