<?xml version="1.0" standalone="no"?>
<!DOCTYPE svg PUBLIC "-//W3C//DTD SVG 20010904//EN"
 "http://www.w3.org/TR/2001/REC-SVG-20010904/DTD/svg10.dtd">
<svg version="1.0" xmlns="http://www.w3.org/2000/svg"
 width="87.000000pt" height="56.000000pt" viewBox="0 0 87.000000 56.000000"
 preserveAspectRatio="xMidYMid meet">
<metadata>
Created by potrace 1.16, written by Peter Selinger 2001-2019
</metadata>
<g transform="translate(0.000000,56.000000) scale(0.100000,-0.100000)"
fill="#000000" stroke="none">
<path d="M596 443 c-25 -84 -41 -114 -53 -102 -7 7 -44 10 -98 7 l-86 -3 1 40
c3 63 2 67 -22 63 -20 -3 -23 -9 -23 -53 l0 -50 -120 -5 c-66 -3 -119 -8 -117
-12 1 -5 2 -13 2 -20 0 -8 32 -9 120 -4 l120 7 0 -35 c0 -40 -3 -42 -110 -51
-41 -4 -83 -9 -92 -11 -21 -6 -24 -40 -5 -47 12 -4 126 19 186 38 19 6 21 3
21 -45 0 -69 24 -63 28 7 l3 50 76 14 c42 8 78 19 80 26 4 12 -42 9 -119 -7
-38 -8 -38 -8 -38 25 0 29 3 33 34 39 19 4 64 6 100 5 64 -2 65 -3 60 -26 -6
-22 -1 -38 68 -191 10 -23 23 -40 28 -37 14 9 12 -9 -2 -23 -9 -9 -95 -12
-325 -12 -244 0 -313 -3 -313 -12 0 -10 94 -13 435 -13 341 0 435 3 435 13 0
9 -28 12 -105 12 l-105 0 70 138 c64 127 68 138 52 152 -9 8 -29 49 -43 90
-21 59 -31 76 -48 78 -30 5 -27 -18 9 -75 17 -26 30 -53 30 -60 0 -7 5 -22 12
-32 9 -15 7 -30 -12 -75 -12 -31 -24 -55 -25 -54 -2 2 -5 49 -7 106 -2 58 -8
101 -13 100 -14 -4 -13 -217 1 -226 8 -5 6 -20 -8 -51 -11 -28 -22 -41 -28
-35 -5 5 -25 56 -43 114 l-34 105 21 44 21 43 5 -108 c3 -72 9 -109 17 -111 9
-3 12 22 10 104 -1 59 -6 114 -11 121 -4 7 -2 27 5 44 10 25 10 31 -2 39 -23
15 -28 11 -43 -38z"/>
</g>
</svg>
