<?xml version="1.0" standalone="no"?>
<!DOCTYPE svg PUBLIC "-//W3C//DTD SVG 20010904//EN"
 "http://www.w3.org/TR/2001/REC-SVG-20010904/DTD/svg10.dtd">
<svg version="1.0" xmlns="http://www.w3.org/2000/svg"
 width="77.000000pt" height="57.000000pt" viewBox="0 0 77.000000 57.000000"
 preserveAspectRatio="xMidYMid meet">
<metadata>
Created by potrace 1.16, written by Peter Selinger 2001-2019
</metadata>
<g transform="translate(0.000000,57.000000) scale(0.100000,-0.100000)"
fill="#000000" stroke="none">
<path d="M170 469 c-30 -15 -63 -28 -73 -28 -26 -1 -32 -28 -14 -66 14 -29 14
-34 1 -39 -23 -9 -16 -26 11 -26 18 0 26 -7 31 -25 3 -14 10 -25 16 -25 8 0 5
18 -9 56 -2 7 32 30 76 53 84 42 101 48 101 31 0 -8 -39 -24 -64 -25 -16 0
-18 -25 -3 -25 8 0 45 14 82 30 78 35 96 37 120 10 17 -18 16 -19 -9 -26 -23
-5 -38 -34 -18 -34 7 0 61 31 129 73 9 6 11 -13 6 -80 -3 -48 -7 -90 -9 -92
-2 -3 -14 5 -27 17 -24 23 -47 29 -47 13 0 -5 11 -18 25 -29 33 -26 32 -34 -7
-30 -25 2 -33 8 -31 21 1 12 -4 17 -14 13 -8 -3 -25 1 -38 10 -17 11 -29 13
-41 6 -15 -8 -14 -11 7 -25 20 -15 21 -17 5 -23 -11 -4 -31 4 -57 26 -22 17
-48 33 -57 34 -9 2 -43 -9 -77 -24 -33 -15 -68 -30 -78 -33 -16 -6 -16 -9 3
-44 19 -36 19 -37 0 -50 -26 -18 -16 -37 11 -22 24 12 22 14 38 -28 8 -18 17
-30 22 -27 5 3 2 19 -6 35 -9 16 -13 34 -10 39 8 14 151 90 166 89 8 0 -1 -7
-20 -15 -25 -12 -31 -18 -22 -27 8 -8 25 -4 66 16 38 18 64 25 81 21 19 -5 22
-9 14 -19 -15 -18 4 -29 26 -17 9 5 26 8 38 6 12 -3 15 -2 8 2 -15 7 -6 24 14
24 9 0 14 -10 14 -29 0 -24 5 -29 31 -35 17 -3 49 -3 71 0 28 5 42 3 48 -6 4
-7 13 -10 18 -6 8 4 11 69 9 194 l-2 187 -82 3 -83 3 0 -43 0 -42 -38 37 c-21
20 -46 37 -56 37 -23 0 -13 -15 35 -49 l38 -28 -24 -13 c-22 -12 -28 -10 -62
16 -20 15 -46 37 -56 47 -20 20 -48 20 -55 -1 -2 -7 5 -16 17 -19 25 -6 27
-18 5 -27 -27 -10 -44 -7 -44 9 0 8 -6 15 -13 15 -7 0 -28 13 -47 28 l-35 28
-55 -27z m530 -152 l0 -164 -37 -7 c-71 -11 -93 -8 -93 14 0 24 4 25 35 4 16
-11 25 -12 25 -5 0 7 -13 20 -30 29 l-29 17 3 115 c2 63 4 124 5 135 1 17 9
20 61 23 l60 3 0 -164z m-470 131 c9 -3 -8 -15 -44 -32 -74 -33 -97 -33 -33 0
27 14 47 28 44 30 -3 3 -19 -2 -37 -11 -18 -9 -34 -14 -37 -12 -3 3 15 14 39
25 23 10 45 16 48 12 3 -4 12 -9 20 -12z m50 -23 c0 -6 -139 -75 -152 -75 -15
0 -8 21 10 27 9 4 19 9 22 12 19 22 120 52 120 36z m-54 -190 c-11 -8 -25 -15
-30 -15 -6 1 0 7 14 15 32 19 40 18 16 0z m14 -20 c-31 -19 -90 -45 -99 -45
-9 1 103 59 114 59 6 0 -1 -6 -15 -14z m60 -2 c0 -11 -139 -77 -146 -70 -3 3
5 11 18 18 12 7 41 23 63 36 41 23 65 29 65 16z"/>
</g>
</svg>
