<?xml version="1.0" standalone="no"?>
<!DOCTYPE svg PUBLIC "-//W3C//DTD SVG 20010904//EN"
 "http://www.w3.org/TR/2001/REC-SVG-20010904/DTD/svg10.dtd">
<svg version="1.0" xmlns="http://www.w3.org/2000/svg"
 width="123.000000pt" height="69.000000pt" viewBox="0 0 123.000000 69.000000"
 preserveAspectRatio="xMidYMid meet">
<metadata>
Created by potrace 1.16, written by Peter Selinger 2001-2019
</metadata>
<g transform="translate(0.000000,69.000000) scale(0.100000,-0.100000)"
fill="#000000" stroke="none">
<path d="M1066 582 c-14 -23 -37 -355 -25 -373 5 -8 24 -9 63 -5 35 5 54 11
50 18 -4 6 -26 8 -52 5 l-44 -5 7 77 c3 42 6 96 6 121 -1 25 3 68 8 95 9 48 1
90 -13 67z"/>
<path d="M960 576 c0 -2 -3 -96 -6 -208 -6 -211 1 -255 16 -102 15 155 16 307
2 312 -6 2 -12 1 -12 -2z"/>
<path d="M655 563 c-43 -9 -44 -11 -35 -44 8 -25 7 -30 -2 -21 -16 16 -43 15
-58 -3 -10 -12 -5 -17 29 -32 39 -17 41 -20 41 -60 0 -42 -1 -43 -34 -43 -19
0 -37 -4 -40 -9 -10 -16 21 -32 48 -25 26 6 26 6 26 -56 0 -38 4 -59 10 -55 6
3 10 33 10 65 0 63 1 64 41 74 25 5 27 3 33 -37 6 -39 9 -43 36 -45 17 -1 30
1 30 6 0 5 26 30 59 57 l58 48 -31 36 c-94 106 -88 102 -123 86 -25 -10 -33
-20 -33 -39 0 -22 -3 -23 -27 -17 -25 7 -28 13 -31 54 l-3 47 80 0 c47 0 81 4
81 10 0 10 -124 12 -165 3z m157 -110 c52 -46 68 -65 61 -76 -5 -8 -122 -87
-129 -87 -2 0 -4 16 -4 35 0 28 5 38 23 45 17 7 18 9 5 9 -10 1 -18 6 -18 12
0 6 7 9 15 5 8 -3 15 -1 15 3 0 5 -7 11 -15 15 -17 6 -21 76 -5 76 5 0 29 -17
52 -37z m-117 -35 c14 -6 25 -19 25 -30 0 -14 -8 -18 -36 -18 -29 0 -35 3 -30
16 3 9 6 22 6 30 0 17 2 17 35 2z"/>
<path d="M416 542 c-11 -19 18 -26 89 -23 67 3 83 6 74 15 -11 10 -157 17
-163 8z"/>
<path d="M260 530 c0 -5 21 -23 46 -41 25 -17 61 -45 80 -61 60 -53 36 -8 -28
53 -56 53 -98 74 -98 49z"/>
<path d="M150 496 c0 -7 10 -21 23 -29 12 -9 44 -36 71 -61 75 -71 75 -54 -1
29 -65 72 -93 91 -93 61z"/>
<path d="M445 489 c-9 -14 19 -44 71 -74 66 -39 74 -29 19 20 -63 57 -82 68
-90 54z"/>
<path d="M123 409 c-24 -11 -43 -26 -43 -34 0 -24 22 -17 65 20 45 39 39 42
-22 14z"/>
<path d="M465 372 c-48 -33 -61 -52 -40 -59 11 -3 102 84 94 90 -2 2 -26 -12
-54 -31z"/>
<path d="M172 337 c-43 -23 -51 -31 -41 -43 9 -12 15 -11 38 5 30 22 66 60 60
64 -2 2 -28 -10 -57 -26z"/>
<path d="M459 299 c-20 -12 0 -29 95 -78 78 -41 123 -51 75 -18 -114 80 -157
104 -170 96z"/>
<path d="M268 263 c-43 -20 -78 -40 -78 -45 0 -21 32 -18 61 6 18 15 49 36 70
47 36 18 49 30 32 28 -5 0 -43 -16 -85 -36z"/>
<path d="M315 200 c-6 -9 18 -12 120 -12 65 0 75 2 75 12 0 6 -38 10 -94 10
-53 0 -98 -4 -101 -10z"/>
<path d="M667 193 c-16 -15 -4 -23 36 -23 80 0 197 13 197 21 0 10 -223 12
-233 2z"/>
</g>
</svg>
