<?xml version="1.0" standalone="no"?>
<!DOCTYPE svg PUBLIC "-//W3C//DTD SVG 20010904//EN"
 "http://www.w3.org/TR/2001/REC-SVG-20010904/DTD/svg10.dtd">
<svg version="1.0" xmlns="http://www.w3.org/2000/svg"
 width="120.000000pt" height="43.000000pt" viewBox="0 0 120.000000 43.000000"
 preserveAspectRatio="xMidYMid meet">
<metadata>
Created by potrace 1.16, written by Peter Selinger 2001-2019
</metadata>
<g transform="translate(0.000000,43.000000) scale(0.100000,-0.100000)"
fill="#000000" stroke="none">
<path d="M194 389 c-8 -13 45 -62 119 -110 43 -28 62 -59 37 -59 -5 0 -38 -13
-72 -29 -35 -15 -84 -36 -110 -45 -27 -10 -48 -21 -48 -26 0 -11 29 -40 39
-40 4 0 40 23 80 50 40 28 75 50 77 50 3 0 16 8 31 17 14 10 32 18 39 19 7 1
22 11 34 22 13 12 42 22 78 26 46 5 355 56 510 83 30 5 32 4 31 -23 0 -16 -6
-47 -12 -68 -12 -37 -13 -39 -30 -22 -9 10 -17 13 -17 7 0 -15 -37 -14 -44 2
-5 9 -7 9 -12 0 -3 -7 -17 -13 -31 -13 -22 0 -24 3 -21 37 1 21 -2 38 -8 40
-14 5 -26 -39 -18 -61 5 -13 -1 -16 -30 -16 -34 0 -37 2 -34 28 2 19 -2 27
-12 27 -10 0 -14 -9 -13 -26 1 -26 0 -27 -40 -21 -23 3 -48 12 -55 21 -10 12
-15 13 -18 4 -3 -7 -14 -13 -23 -13 -23 0 -30 -8 -24 -29 4 -15 17 -16 129
-13 l124 4 -4 -36 c-6 -46 11 -47 20 -1 l6 35 82 -2 81 -3 36 85 c20 47 35 88
33 91 -2 3 -36 0 -76 -6 -95 -17 -296 -42 -428 -55 -146 -14 -160 -18 -160
-41 0 -23 -25 -25 -34 -3 -4 11 -13 14 -28 11 -16 -5 -37 9 -88 54 -68 60 -83
68 -96 48z"/>
<path d="M965 280 c-3 -5 -1 -10 4 -10 6 0 11 5 11 10 0 6 -2 10 -4 10 -3 0
-8 -4 -11 -10z"/>
<path d="M434 219 c-12 -19 10 -29 137 -59 68 -17 145 -37 170 -45 25 -9 54
-13 65 -8 17 6 18 5 5 -11 -13 -16 -12 -17 14 -10 24 6 27 4 22 -10 -4 -9 -2
-16 3 -16 6 0 10 5 10 11 0 6 9 9 20 6 13 -3 20 0 20 10 0 8 -5 11 -10 8 -6
-4 -21 0 -34 9 -13 8 -63 26 -112 40 -49 13 -135 38 -192 55 -118 36 -109 34
-118 20z"/>
<path d="M1057 223 c-12 -12 -7 -22 8 -17 8 4 15 10 15 15 0 11 -14 12 -23 2z"/>
<path d="M955 190 c-3 -5 1 -10 10 -10 9 0 13 5 10 10 -3 6 -8 10 -10 10 -2 0
-7 -4 -10 -10z"/>
<path d="M1011 164 c0 -11 3 -14 6 -6 3 7 2 16 -1 19 -3 4 -6 -2 -5 -13z"/>
<path d="M1036 135 c-3 -8 -1 -15 4 -15 6 0 10 7 10 15 0 8 -2 15 -4 15 -2 0
-6 -7 -10 -15z"/>
<path d="M1060 136 c0 -8 5 -18 10 -21 6 -3 10 3 10 14 0 12 -4 21 -10 21 -5
0 -10 -6 -10 -14z"/>
<path d="M990 120 c0 -5 5 -10 10 -10 6 0 10 5 10 10 0 6 -4 10 -10 10 -5 0
-10 -4 -10 -10z"/>
<path d="M940 100 c0 -5 5 -10 10 -10 6 0 10 5 10 10 0 6 -4 10 -10 10 -5 0
-10 -4 -10 -10z"/>
<path d="M1035 90 c3 -5 8 -10 11 -10 2 0 4 5 4 10 0 6 -5 10 -11 10 -5 0 -7
-4 -4 -10z"/>
<path d="M967 63 c-13 -12 -7 -23 11 -22 10 0 12 3 4 6 -6 2 -10 9 -6 14 6 10
0 12 -9 2z"/>
<path d="M920 40 c0 -5 5 -10 11 -10 5 0 7 5 4 10 -3 6 -8 10 -11 10 -2 0 -4
-4 -4 -10z"/>
</g>
</svg>
