<?xml version="1.0" standalone="no"?>
<!DOCTYPE svg PUBLIC "-//W3C//DTD SVG 20010904//EN"
 "http://www.w3.org/TR/2001/REC-SVG-20010904/DTD/svg10.dtd">
<svg version="1.0" xmlns="http://www.w3.org/2000/svg"
 width="69.000000pt" height="46.000000pt" viewBox="0 0 69.000000 46.000000"
 preserveAspectRatio="xMidYMid meet">
<metadata>
Created by potrace 1.16, written by Peter Selinger 2001-2019
</metadata>
<g transform="translate(0.000000,46.000000) scale(0.100000,-0.100000)"
fill="#000000" stroke="none">
<path d="M0 448 c0 -11 64 -14 345 -16 230 -2 345 1 345 8 0 5 -15 10 -32 11
-18 0 -174 3 -345 5 -258 5 -313 4 -313 -8z"/>
<path d="M127 389 c-5 -17 6 -28 56 -59 59 -36 114 -76 92 -67 -5 3 -41 23
-79 46 -37 23 -71 39 -75 36 -10 -11 49 -53 106 -77 87 -36 81 -60 -25 -104
-37 -15 -74 -34 -82 -42 -26 -26 41 -7 100 28 29 17 57 29 63 27 6 -2 -24 -21
-66 -42 -80 -40 -112 -65 -85 -65 8 0 44 18 81 40 36 22 69 40 72 40 18 0 -15
-25 -81 -61 -41 -22 -74 -45 -74 -50 0 -14 7 -11 78 36 52 35 73 44 90 38 11
-4 80 -6 153 -3 l133 5 17 105 c10 58 18 110 18 117 1 19 -36 25 -176 28 -128
3 -134 2 -145 -19 -6 -11 -12 -22 -13 -24 -1 -1 -33 18 -70 43 -37 25 -71 45
-75 45 -4 0 -10 -9 -13 -21z m117 -60 c20 -12 36 -25 36 -30 0 -9 -67 28 -76
42 -8 14 2 11 40 -12z m327 14 c6 -45 8 -136 4 -170 l-6 -42 -125 0 -125 0 55
44 c30 25 58 45 61 45 4 0 25 -13 48 -28 69 -47 75 -46 22 3 -56 52 -59 41 26
106 19 15 32 29 29 32 -3 4 -31 -14 -61 -38 l-56 -44 -53 39 c-30 22 -58 41
-64 42 -16 2 98 13 177 16 37 2 67 -1 68 -5z m-189 -78 l38 -27 -36 -29 c-20
-16 -43 -29 -50 -29 -7 0 -18 -8 -24 -17 -9 -15 -10 -14 -4 7 4 14 8 33 8 42
0 9 3 15 7 12 4 -2 9 3 13 11 3 8 2 17 -3 19 -4 3 -8 19 -9 37 -1 25 1 28 11
17 7 -8 29 -27 49 -43z"/>
<path d="M335 270 c3 -5 11 -10 16 -10 6 0 7 5 4 10 -3 6 -11 10 -16 10 -6 0
-7 -4 -4 -10z"/>
<path d="M0 10 c0 -7 112 -10 346 -10 190 0 343 4 340 8 -7 12 -686 15 -686 2z"/>
</g>
</svg>
