<?xml version="1.0" standalone="no"?>
<!DOCTYPE svg PUBLIC "-//W3C//DTD SVG 20010904//EN"
 "http://www.w3.org/TR/2001/REC-SVG-20010904/DTD/svg10.dtd">
<svg version="1.0" xmlns="http://www.w3.org/2000/svg"
 width="105.000000pt" height="49.000000pt" viewBox="0 0 105.000000 49.000000"
 preserveAspectRatio="xMidYMid meet">
<metadata>
Created by potrace 1.16, written by Peter Selinger 2001-2019
</metadata>
<g transform="translate(0.000000,49.000000) scale(0.100000,-0.100000)"
fill="#000000" stroke="none">
<path d="M23 483 c15 -2 37 -2 50 0 12 2 0 4 -28 4 -27 0 -38 -2 -22 -4z"/>
<path d="M348 483 c79 -2 205 -2 280 0 75 1 11 3 -143 3 -154 0 -216 -2 -137
-3z"/>
<path d="M780 450 c-13 -8 -13 -12 0 -32 8 -13 22 -38 31 -56 10 -18 23 -39
29 -47 10 -12 9 -15 -6 -15 -18 -1 -18 -1 -1 -14 17 -14 24 -32 8 -21 -5 3
-12 1 -15 -4 -4 -5 2 -12 11 -14 14 -4 13 -5 -4 -6 -27 -1 -38 -17 -18 -25 8
-3 15 -12 15 -21 0 -23 -61 -134 -91 -166 l-27 -29 171 2 172 2 -147 3 c-82 2
-148 6 -148 9 0 3 14 25 30 49 17 24 30 46 30 49 0 2 14 27 31 54 30 49 30 49
87 51 61 2 74 7 52 21 -11 7 -5 10 23 10 20 0 37 5 37 10 0 6 -34 11 -77 12
-77 2 -77 2 -15 5 82 5 80 23 -2 23 -36 0 -68 5 -71 10 -7 11 10 14 73 10 33
-1 42 2 42 14 0 13 -13 16 -74 16 l-73 0 -17 44 c-20 53 -36 68 -56 56z m173
-207 c-7 -2 -19 -2 -25 0 -7 3 -2 5 12 5 14 0 19 -2 13 -5z"/>
<path d="M707 400 l-21 -50 -96 0 c-53 0 -99 -3 -103 -6 -3 -3 -1 -15 6 -25
10 -16 24 -19 95 -19 53 0 81 -4 77 -10 -3 -5 -42 -10 -86 -10 -46 0 -79 -4
-79 -10 0 -6 32 -10 75 -10 49 0 75 -4 75 -11 0 -8 -13 -10 -37 -6 -46 8 -143
-2 -143 -14 0 -5 42 -9 93 -9 l93 0 37 -81 c21 -46 41 -78 47 -74 6 4 8 10 5
15 -3 4 0 10 7 12 8 3 14 45 17 126 3 67 5 127 3 132 -2 6 -15 7 -28 4 l-24
-6 19 43 c11 24 17 47 15 51 -12 19 -27 5 -47 -42z m-44 -77 c-13 -2 -35 -2
-50 0 -16 2 -5 4 22 4 28 0 40 -2 28 -4z m74 1 c-3 -3 -12 -4 -19 -1 -8 3 -5
6 6 6 11 1 17 -2 13 -5z m3 -33 c0 -6 -9 -9 -20 -8 -11 1 -20 5 -20 9 0 4 9 8
20 8 11 0 20 -4 20 -9z m4 -67 c-1 -21 -2 -59 -3 -84 l-2 -45 -19 40 c-25 54
-25 81 0 88 11 3 20 10 20 16 0 6 -7 8 -15 5 -9 -4 -15 0 -15 9 0 9 7 14 18
13 13 -2 17 -12 16 -42z"/>
<path d="M283 409 c-5 -19 -13 -20 -97 -19 -117 2 -116 2 -116 -10 0 -6 44
-11 108 -12 l107 -2 -105 -5 c-136 -8 -139 -26 -5 -26 79 0 101 -3 107 -15 18
-40 12 -42 -87 -39 -60 3 -94 0 -92 -6 1 -6 41 -10 95 -10 50 0 92 -3 92 -7 0
-5 -45 -8 -100 -8 -127 0 -133 -18 -7 -23 l92 -3 -92 -2 c-122 -3 -124 -22 -3
-22 53 0 90 -4 90 -10 0 -6 -42 -10 -107 -10 -63 0 -103 -4 -98 -9 8 -7 125
-19 202 -21 8 0 13 -21 15 -57 3 -58 20 -80 26 -35 3 19 8 23 25 18 12 -3 30
-6 40 -6 9 0 17 -7 17 -15 0 -22 21 -18 27 6 5 16 12 20 39 17 18 -1 36 1 40
5 8 7 -3 10 -46 11 l-25 1 4 150 c3 132 1 152 -13 165 -16 13 -17 6 -15 -91 3
-104 -4 -149 -22 -149 -5 0 -7 -17 -3 -40 l7 -40 -37 0 c-33 0 -36 2 -36 30 0
20 5 30 15 30 8 0 15 5 15 10 0 6 -7 10 -15 10 -8 0 -15 5 -15 10 0 6 9 10 19
10 31 0 34 18 4 23 -27 4 -27 4 -5 12 25 8 30 25 7 25 -8 0 -15 5 -15 11 0 6
9 8 20 4 12 -4 20 -2 20 5 0 7 -9 14 -20 17 -11 3 -20 9 -20 13 0 5 -3 15 -6
24 -5 13 1 16 32 16 41 0 37 15 -6 23 -18 3 -15 5 13 6 47 1 49 21 2 21 -28 0
-35 4 -35 20 0 27 -30 26 -37 -1z"/>
<path d="M613 3 c9 -2 25 -2 35 0 9 3 1 5 -18 5 -19 0 -27 -2 -17 -5z"/>
<path d="M678 3 c7 -3 16 -2 19 1 4 3 -2 6 -13 5 -11 0 -14 -3 -6 -6z"/>
</g>
</svg>
