<?xml version="1.0" standalone="no"?>
<!DOCTYPE svg PUBLIC "-//W3C//DTD SVG 20010904//EN"
 "http://www.w3.org/TR/2001/REC-SVG-20010904/DTD/svg10.dtd">
<svg version="1.0" xmlns="http://www.w3.org/2000/svg"
 width="92.000000pt" height="46.000000pt" viewBox="0 0 92.000000 46.000000"
 preserveAspectRatio="xMidYMid meet">
<metadata>
Created by potrace 1.16, written by Peter Selinger 2001-2019
</metadata>
<g transform="translate(0.000000,46.000000) scale(0.100000,-0.100000)"
fill="#000000" stroke="none">
<path d="M623 412 c-4 -16 -15 -22 -47 -24 -23 -2 -39 -7 -36 -13 3 -5 22 -8
43 -7 20 2 37 -1 37 -6 0 -6 -12 -9 -27 -8 -43 2 -39 -18 4 -25 l38 -6 -42 -2
c-58 -2 -66 -21 -9 -21 50 0 55 -8 32 -49 -7 -13 -11 -33 -8 -43 4 -18 0 -19
-49 -18 -79 2 -85 2 -73 -10 6 -6 36 -11 67 -12 31 -1 54 -4 51 -7 -7 -8 -13
-8 -79 -10 -84 -2 -66 -21 23 -23 l77 -2 -67 -3 c-38 -2 -68 -8 -68 -13 0 -14
46 -23 91 -17 37 5 39 4 39 -23 0 -38 20 -50 21 -13 1 15 1 31 0 35 0 5 17 8
39 8 38 0 40 -2 40 -30 0 -20 5 -30 15 -30 12 0 15 10 11 50 -5 50 -4 50 25
50 16 0 29 5 29 10 0 6 -14 10 -31 10 -27 0 -30 2 -19 15 8 9 8 15 2 15 -19 0
-22 34 -8 75 13 36 18 40 48 40 18 0 33 5 33 10 0 6 -17 9 -37 7 -22 -2 -38 1
-38 7 0 6 18 11 40 11 22 0 40 5 40 10 0 6 -19 10 -43 10 -43 0 -43 1 -39 30
3 18 0 30 -7 30 -6 0 -11 -13 -11 -29 0 -25 -4 -29 -37 -34 -41 -7 -56 -1 -33
13 12 7 12 10 -3 16 -10 4 -16 13 -13 20 3 7 1 16 -5 20 -6 3 -13 -3 -16 -14z
m54 -88 c-3 -3 -12 -4 -19 -1 -8 3 -5 6 6 6 11 1 17 -2 13 -5z m43 -48 c0 -14
-4 -27 -9 -30 -4 -3 -6 -17 -3 -31 4 -23 2 -25 -37 -25 -44 0 -49 9 -32 52 5
13 12 31 15 41 4 11 16 17 36 17 25 0 30 -4 30 -24z m-17 -113 c-13 -2 -33 -2
-45 0 -13 2 -3 4 22 4 25 0 35 -2 23 -4z m17 -33 c0 -5 -18 -10 -41 -10 -24 0
-38 4 -34 10 3 6 22 10 41 10 19 0 34 -4 34 -10z"/>
<path d="M237 393 c-4 -3 -7 -24 -7 -45 0 -27 -4 -38 -15 -38 -11 0 -15 11
-15 40 0 29 -4 40 -15 40 -12 0 -14 -8 -9 -40 l7 -40 -76 0 c-42 0 -78 -4 -82
-9 -5 -10 66 -24 101 -21 10 1 28 1 39 -1 11 -1 -14 -5 -55 -8 -78 -6 -101
-23 -40 -30 l35 -4 -30 -6 c-45 -9 -31 -26 23 -27 93 -3 85 6 77 -84 -6 -70
-5 -80 9 -80 13 0 16 14 16 86 0 76 2 85 18 82 14 -3 17 -15 18 -78 2 -94 2
-98 14 -80 5 8 10 48 10 88 0 57 3 72 15 72 12 0 15 -15 15 -74 0 -41 5 -78
10 -81 10 -6 15 35 11 113 -1 23 3 42 9 42 6 0 10 -30 10 -71 0 -44 4 -68 10
-64 6 3 10 35 10 70 l0 64 50 7 c79 10 60 31 -22 25 -16 -1 -28 3 -28 8 0 6
19 11 43 12 46 0 86 12 71 21 -5 3 -31 6 -58 6 -27 1 -51 4 -54 7 -3 3 18 5
46 5 65 0 69 18 5 22 -42 3 -48 6 -45 24 1 12 -4 27 -13 34 -13 11 -15 7 -16
-26 -1 -40 -3 -39 -13 9 -9 36 -30 24 -22 -13 3 -19 1 -30 -9 -34 -11 -4 -15
3 -15 28 0 33 -20 62 -33 49z m-4 -110 c-7 -2 -19 -2 -25 0 -7 3 -2 5 12 5 14
0 19 -2 13 -5z m57 -33 c0 -5 -7 -10 -16 -10 -8 0 -12 5 -9 10 3 6 10 10 16
10 5 0 9 -4 9 -10z m-110 -10 c0 -13 -30 -13 -50 0 -11 7 -7 10 18 10 17 0 32
-4 32 -10z m50 0 c-19 -13 -30 -13 -30 0 0 6 10 10 23 10 18 0 19 -2 7 -10z"/>
<path d="M450 10 l-455 -5 463 -3 c307 -1 461 1 457 8 -3 6 -7 9 -8 8 -1 -2
-207 -5 -457 -8z"/>
</g>
</svg>
