<?xml version="1.0" standalone="no"?>
<!DOCTYPE svg PUBLIC "-//W3C//DTD SVG 20010904//EN"
 "http://www.w3.org/TR/2001/REC-SVG-20010904/DTD/svg10.dtd">
<svg version="1.0" xmlns="http://www.w3.org/2000/svg"
 width="111.000000pt" height="40.000000pt" viewBox="0 0 111.000000 40.000000"
 preserveAspectRatio="xMidYMid meet">
<metadata>
Created by potrace 1.16, written by Peter Selinger 2001-2019
</metadata>
<g transform="translate(0.000000,40.000000) scale(0.100000,-0.100000)"
fill="#000000" stroke="none">
<path d="M33 393 c20 -2 54 -2 75 0 20 2 3 4 -38 4 -41 0 -58 -2 -37 -4z"/>
<path d="M168 393 c6 -2 18 -2 25 0 6 3 1 5 -13 5 -14 0 -19 -2 -12 -5z"/>
<path d="M703 369 c-6 -20 -11 -21 -87 -17 -45 3 -87 3 -93 1 -21 -8 -15 -23
10 -24 21 0 21 -1 2 -9 -11 -5 -15 -10 -10 -11 6 -1 15 -3 20 -4 6 -2 43 -3
83 -4 39 0 72 -4 72 -8 0 -5 -40 -7 -90 -5 -51 2 -90 -1 -90 -6 0 -11 72 -22
141 -22 37 0 49 -4 49 -15 0 -8 -7 -15 -15 -15 -11 0 -15 -12 -15 -50 l0 -50
-85 0 c-50 0 -85 -4 -85 -10 0 -5 7 -10 15 -10 16 0 16 -21 0 -32 -20 -15 8
-21 90 -19 71 2 85 -1 85 -13 0 -20 19 -21 26 -1 7 18 55 20 72 3 9 -9 15 -9
24 0 8 8 46 12 105 12 55 0 93 4 93 10 0 6 -38 11 -92 11 l-93 2 93 7 c51 5
96 11 99 14 4 3 -41 7 -98 8 l-104 1 97 7 c54 3 101 9 105 13 3 4 -38 7 -93 7
l-99 0 0 58 0 57 50 2 c105 5 175 15 175 24 0 6 -43 9 -110 7 -61 -2 -110 0
-110 5 0 7 47 10 157 9 35 0 65 4 68 9 4 5 -16 9 -44 9 -28 0 -51 5 -51 10 0
6 23 10 50 10 28 0 50 5 50 10 0 7 -38 10 -107 8 -86 -2 -111 0 -120 12 -12
13 -15 13 -27 -2 -19 -26 -66 -24 -66 2 0 28 -40 27 -47 -1z m251 -41 c-3 -4
-30 -8 -60 -8 -30 0 -53 4 -50 9 3 4 30 8 60 8 30 -1 52 -5 50 -9z m-257 -4
c-3 -3 -12 -4 -19 -1 -8 3 -5 6 6 6 11 1 17 -2 13 -5z m101 -1 c-10 -2 -26 -2
-35 0 -10 3 -2 5 17 5 19 0 27 -2 18 -5z m12 -34 c0 -12 -57 -12 -64 0 -3 4
-3 10 -1 13 8 8 65 -4 65 -13z m-14 -48 c-14 -15 -16 -29 -11 -65 l7 -46 -37
0 c-30 0 -35 3 -32 18 3 9 8 38 12 65 6 46 7 47 42 47 35 0 36 -1 19 -19z"/>
<path d="M330 365 c-10 -12 -39 -15 -131 -15 -73 0 -119 -4 -119 -10 0 -5 28
-11 63 -12 34 0 47 -3 27 -5 -60 -6 -81 -13 -74 -25 5 -7 30 -8 75 -4 41 4 70
2 74 -4 4 -6 -23 -10 -74 -10 -45 0 -81 -4 -81 -9 0 -10 103 -23 124 -15 17 7
23 -20 7 -30 -5 -3 -8 -17 -9 -31 0 -20 15 -37 59 -71 32 -24 62 -52 67 -61 8
-13 16 -8 50 29 70 75 102 113 102 119 0 3 -17 24 -37 45 -21 22 -54 58 -75
82 -31 35 -38 39 -48 27z m-66 -45 c-7 -7 -19 -7 -35 -1 -23 9 -22 10 11 10
23 1 31 -2 24 -9z m121 -42 c30 -24 54 -46 54 -50 1 -5 -40 -8 -90 -8 -50 0
-89 3 -87 8 5 11 63 91 66 92 2 0 27 -19 57 -42z m-47 -85 c-16 -2 -40 -2 -55
0 -16 2 -3 4 27 4 30 0 43 -2 28 -4z m75 0 c-7 -2 -21 -2 -30 0 -10 3 -4 5 12
5 17 0 24 -2 18 -5z m-76 -49 c-3 -3 -12 -4 -19 -1 -8 3 -5 6 6 6 11 1 17 -2
13 -5z m43 -24 c-24 -34 -32 -36 -50 -15 -11 13 -8 15 13 15 31 0 45 17 20 23
-11 3 -7 5 10 6 l28 1 -21 -30z"/>
</g>
</svg>
