<?xml version="1.0" standalone="no"?>
<!DOCTYPE svg PUBLIC "-//W3C//DTD SVG 20010904//EN"
 "http://www.w3.org/TR/2001/REC-SVG-20010904/DTD/svg10.dtd">
<svg version="1.0" xmlns="http://www.w3.org/2000/svg"
 width="60.000000pt" height="35.000000pt" viewBox="0 0 60.000000 35.000000"
 preserveAspectRatio="xMidYMid meet">
<metadata>
Created by potrace 1.16, written by Peter Selinger 2001-2019
</metadata>
<g transform="translate(0.000000,35.000000) scale(0.100000,-0.100000)"
fill="#000000" stroke="none">
<path d="M187 293 c-4 -3 -7 -23 -7 -43 0 -34 -3 -38 -41 -50 -48 -16 -69 -42
-69 -86 0 -22 7 -36 23 -47 26 -17 134 -47 142 -39 3 3 5 32 5 64 l0 58 58 2
c31 1 95 2 142 2 47 1 91 5 98 9 9 6 -2 24 -39 67 -28 33 -60 62 -69 65 -13 4
-32 -9 -66 -45 -40 -43 -52 -50 -85 -50 l-39 0 0 44 c0 31 -5 46 -16 50 -20 8
-29 8 -37 -1z m30 -50 c-3 -10 -5 -4 -5 12 0 17 2 24 5 18 2 -7 2 -21 0 -30z
m228 17 c10 -11 16 -20 13 -20 -3 0 -13 9 -23 20 -10 11 -16 20 -13 20 3 0 13
-9 23 -20z m5 -40 l25 -20 -49 0 c-48 0 -49 0 -31 20 22 24 24 24 55 0z m-299
-56 c-13 -9 -29 -31 -37 -48 l-14 -31 2 35 c2 25 10 38 28 47 36 18 49 16 21
-3z m196 10 c-3 -3 -12 -4 -19 -1 -8 3 -5 6 6 6 11 1 17 -2 13 -5z m-167 -55
c0 -24 -4 -30 -17 -27 -22 4 -30 38 -11 49 22 15 28 10 28 -22z m30 -49 c0 -5
-12 -10 -27 -9 l-28 1 25 8 c14 4 26 8 28 9 1 1 2 -3 2 -9z"/>
</g>
</svg>
