<?xml version="1.0" standalone="no"?>
<!DOCTYPE svg PUBLIC "-//W3C//DTD SVG 20010904//EN"
 "http://www.w3.org/TR/2001/REC-SVG-20010904/DTD/svg10.dtd">
<svg version="1.0" xmlns="http://www.w3.org/2000/svg"
 width="118.000000pt" height="55.000000pt" viewBox="0 0 118.000000 55.000000"
 preserveAspectRatio="xMidYMid meet">
<metadata>
Created by potrace 1.16, written by Peter Selinger 2001-2019
</metadata>
<g transform="translate(0.000000,55.000000) scale(0.100000,-0.100000)"
fill="#000000" stroke="none">
<path d="M319 455 c-1 -3 -2 -10 -3 -15 0 -6 -20 -22 -43 -35 l-42 -25 -35 37
c-33 35 -37 37 -52 22 -14 -15 -13 -18 20 -38 20 -13 36 -27 36 -32 0 -5 -20
-18 -45 -29 -47 -20 -54 -30 -32 -48 14 -12 41 2 79 40 22 22 48 24 48 4 0
-22 46 -54 90 -61 42 -7 69 5 125 56 28 26 39 28 169 38 77 6 141 9 144 7 2
-3 6 -68 9 -145 6 -135 16 -178 27 -108 3 17 7 87 10 155 l6 123 -163 -6 c-89
-4 -167 -8 -174 -10 -13 -4 -119 50 -128 66 -6 9 -44 13 -46 4z m113 -69 l50
-22 -26 -17 c-31 -21 -86 -33 -86 -20 0 5 -13 24 -28 43 -20 23 -31 30 -36 22
-5 -8 6 -25 26 -44 l33 -31 -30 7 c-41 10 -78 29 -79 41 0 5 15 20 34 32 38
27 60 25 142 -11z"/>
<path d="M349 391 c13 -24 50 -55 57 -48 11 10 -23 54 -45 60 -17 4 -19 2 -12
-12z"/>
<path d="M280 372 c0 -12 19 -26 26 -19 2 2 -2 10 -11 17 -9 8 -15 8 -15 2z"/>
<path d="M452 278 c-9 -12 -16 -117 -13 -201 l1 -38 26 20 c15 12 32 21 39 21
7 0 45 13 84 30 l72 29 -6 -32 c-7 -37 9 -57 62 -75 26 -9 48 -6 130 18 192
56 293 93 293 108 0 5 -39 -5 -87 -21 -139 -47 -274 -78 -310 -71 -25 5 -35
14 -46 42 l-15 37 29 3 c35 4 39 22 4 22 -23 0 -25 3 -25 50 0 37 -4 50 -14
50 -11 0 -16 -14 -18 -50 l-3 -50 -85 60 c-89 63 -101 68 -118 48z m97 -63
c57 -34 62 -39 43 -46 -29 -11 -28 -27 1 -31 14 -2 1 -9 -38 -19 -33 -9 -69
-20 -79 -24 -18 -8 -19 -5 -13 46 4 30 7 69 7 87 0 18 3 31 8 29 4 -2 36 -21
71 -42z"/>
</g>
</svg>
