<?xml version="1.0" standalone="no"?>
<!DOCTYPE svg PUBLIC "-//W3C//DTD SVG 20010904//EN"
 "http://www.w3.org/TR/2001/REC-SVG-20010904/DTD/svg10.dtd">
<svg version="1.0" xmlns="http://www.w3.org/2000/svg"
 width="91.000000pt" height="75.000000pt" viewBox="0 0 91.000000 75.000000"
 preserveAspectRatio="xMidYMid meet">
<metadata>
Created by potrace 1.16, written by Peter Selinger 2001-2019
</metadata>
<g transform="translate(0.000000,75.000000) scale(0.100000,-0.100000)"
fill="#000000" stroke="none">
<path d="M133 614 c-7 -3 -9 -12 -6 -20 4 -12 23 -13 102 -9 53 3 112 8 131
10 l35 4 2 -54 3 -53 -78 3 c-42 2 -93 0 -112 -4 -34 -7 -35 -9 -35 -51 -1
-25 -4 -52 -8 -60 -4 -9 -1 -24 7 -35 11 -16 26 -19 84 -20 l70 0 6 -73 c4
-41 4 -94 0 -118 -4 -30 -3 -44 5 -44 6 0 11 6 11 14 0 10 19 15 69 18 39 2
72 6 74 8 3 3 7 34 11 69 3 35 7 64 8 66 28 18 94 51 168 85 79 35 97 40 117
31 31 -14 33 -14 33 2 0 13 -46 27 -255 73 l-80 18 90 8 c142 13 159 28 25 22
-63 -3 -132 -7 -153 -10 l-38 -4 7 60 7 60 -124 0 c-68 0 -133 2 -144 5 -11 2
-25 2 -32 -1z m267 -153 c0 -4 37 -13 83 -19 104 -15 238 -39 243 -45 7 -6
-191 -87 -214 -87 -27 0 -36 -30 -29 -109 4 -59 4 -60 -22 -56 -14 1 -42 3
-62 4 -31 1 -37 5 -41 26 -5 24 -3 25 48 25 41 0 54 4 54 15 0 11 -13 15 -53
15 l-53 0 4 51 c5 62 -5 122 -19 114 -5 -4 -8 -14 -7 -23 2 -13 -6 -18 -39
-20 -66 -5 -83 9 -83 68 l0 49 83 3 c85 3 107 1 107 -11z"/>
<path d="M540 572 c0 -13 15 -14 104 -8 117 7 116 8 116 -70 0 -24 5 -44 10
-44 16 0 12 116 -4 129 -9 7 -52 11 -120 10 -87 -2 -106 -5 -106 -17z"/>
</g>
</svg>
