<?xml version="1.0" standalone="no"?>
<!DOCTYPE svg PUBLIC "-//W3C//DTD SVG 20010904//EN"
 "http://www.w3.org/TR/2001/REC-SVG-20010904/DTD/svg10.dtd">
<svg version="1.0" xmlns="http://www.w3.org/2000/svg"
 width="56.000000pt" height="54.000000pt" viewBox="0 0 56.000000 54.000000"
 preserveAspectRatio="xMidYMid meet">
<metadata>
Created by potrace 1.16, written by Peter Selinger 2001-2019
</metadata>
<g transform="translate(0.000000,54.000000) scale(0.100000,-0.100000)"
fill="#000000" stroke="none">
<path d="M193 356 c-18 -45 -33 -87 -33 -94 0 -13 82 -131 91 -132 8 0 10 26
11 145 1 52 -2 89 -8 87 -5 -1 -8 -46 -7 -100 2 -105 -2 -106 -37 -13 l-21 54
38 55 c21 31 43 57 48 59 15 4 85 -96 85 -121 -1 -30 -52 -121 -94 -166 -20
-21 -32 -41 -27 -44 9 -6 150 143 165 175 7 15 4 27 -13 47 -12 15 -33 50 -47
78 -24 51 -25 52 -72 52 l-47 0 -32 -82z"/>
<path d="M288 271 c-2 -50 0 -91 3 -91 10 0 18 164 9 174 -5 5 -10 -32 -12
-83z"/>
</g>
</svg>
