<?xml version="1.0" standalone="no"?>
<!DOCTYPE svg PUBLIC "-//W3C//DTD SVG 20010904//EN"
 "http://www.w3.org/TR/2001/REC-SVG-20010904/DTD/svg10.dtd">
<svg version="1.0" xmlns="http://www.w3.org/2000/svg"
 width="112.000000pt" height="55.000000pt" viewBox="0 0 112.000000 55.000000"
 preserveAspectRatio="xMidYMid meet">
<metadata>
Created by potrace 1.16, written by Peter Selinger 2001-2019
</metadata>
<g transform="translate(0.000000,55.000000) scale(0.100000,-0.100000)"
fill="#000000" stroke="none">
<path d="M197 491 c-29 -36 -58 -83 -91 -144 l-35 -65 61 -58 c34 -33 88 -86
120 -119 68 -71 76 -58 14 23 -24 31 -64 90 -90 130 -45 71 -46 73 -31 103 41
79 76 123 98 124 75 4 87 6 87 16 0 17 -118 8 -133 -10z"/>
<path d="M673 465 c-19 -18 -23 -33 -23 -83 l0 -61 -92 5 c-51 4 -97 7 -103 8
-5 0 -11 -9 -13 -22 -4 -23 -3 -23 55 -16 32 4 81 8 108 8 l50 1 5 -80 c6 -95
22 -107 76 -54 18 18 73 56 121 85 l88 53 3 -32 c7 -84 27 -70 35 26 6 61 5
67 -13 67 -10 0 -23 -7 -28 -16 -7 -13 -15 -12 -59 14 -28 17 -79 51 -114 76
-35 25 -65 46 -69 45 -3 -1 -15 -11 -27 -24z m82 -69 c3 -12 6 -54 7 -95 l3
-74 -44 -18 -44 -19 7 102 c10 143 12 149 42 136 14 -6 27 -21 29 -32z m165
-76 c0 -3 -28 -22 -62 -43 l-63 -37 -3 32 c-2 18 -1 52 3 75 l6 43 60 -32 c32
-18 59 -35 59 -38z"/>
<path d="M262 444 c3 -17 11 -19 73 -15 108 5 106 17 -4 27 -68 7 -73 6 -69
-12z"/>
<path d="M432 437 c3 -21 7 -22 73 -18 38 2 79 7 90 11 19 7 18 8 -5 13 -14 3
-56 8 -93 11 -66 5 -68 5 -65 -17z"/>
<path d="M260 386 c0 -15 4 -25 9 -22 16 10 163 8 170 -2 4 -6 26 -7 64 -1 32
5 62 7 67 4 4 -3 22 -2 40 1 63 13 11 24 -131 28 -79 2 -161 8 -181 11 -36 7
-38 6 -38 -19z"/>
<path d="M260 315 c0 -24 1 -24 68 -19 98 8 105 15 32 30 -94 19 -100 18 -100
-11z"/>
<path d="M272 262 c-8 -21 5 -26 66 -23 62 3 99 16 72 25 -36 12 -133 11 -138
-2z"/>
<path d="M435 270 c-2 -3 0 -12 5 -19 6 -11 27 -12 96 -7 84 7 103 11 93 20
-6 6 -191 12 -194 6z"/>
<path d="M270 209 c0 -30 15 -35 85 -29 39 3 73 2 76 -2 3 -5 47 -4 97 2 50 6
96 9 101 6 5 -4 12 -2 15 3 4 5 2 12 -3 15 -7 5 -210 8 -271 5 -8 -1 -34 2
-57 6 -34 6 -43 4 -43 -6z"/>
</g>
</svg>
