<?xml version="1.0" standalone="no"?>
<!DOCTYPE svg PUBLIC "-//W3C//DTD SVG 20010904//EN"
 "http://www.w3.org/TR/2001/REC-SVG-20010904/DTD/svg10.dtd">
<svg version="1.0" xmlns="http://www.w3.org/2000/svg"
 width="116.000000pt" height="48.000000pt" viewBox="0 0 116.000000 48.000000"
 preserveAspectRatio="xMidYMid meet">
<metadata>
Created by potrace 1.16, written by Peter Selinger 2001-2019
</metadata>
<g transform="translate(0.000000,48.000000) scale(0.100000,-0.100000)"
fill="#000000" stroke="none">
<path d="M164 351 c-82 -89 -81 -104 9 -190 37 -35 70 -62 72 -59 3 3 -19 39
-50 79 -30 41 -55 78 -55 83 0 14 40 78 68 108 13 14 23 31 21 36 -2 5 -32
-20 -65 -57z"/>
<path d="M542 367 c-16 -7 -17 -19 -14 -105 4 -123 7 -131 32 -104 19 21 29
21 245 21 217 0 224 0 230 -20 11 -34 18 -14 31 94 11 87 10 104 -2 117 -10
10 -19 12 -32 5 -10 -6 -105 -8 -244 -5 -125 3 -236 1 -246 -3z m238 -27 c0
-5 -9 -10 -20 -10 -11 0 -20 5 -20 10 0 6 9 10 20 10 11 0 20 -4 20 -10z m252
-36 c2 -25 1 -47 -2 -49 -3 -1 -50 1 -105 5 l-100 7 98 1 c57 1 97 6 97 12 0
6 -38 10 -95 10 -61 0 -95 4 -95 11 0 6 15 10 33 9 84 -5 158 0 152 11 -4 6
-26 9 -49 8 -22 -1 -63 -2 -91 -1 -86 4 -29 21 66 21 l87 0 4 -45z m-369 29
c-7 -2 -19 -2 -25 0 -7 3 -2 5 12 5 14 0 19 -2 13 -5z m44 1 c-3 -3 -12 -4
-19 -1 -8 3 -5 6 6 6 11 1 17 -2 13 -5z m-97 -34 c0 -5 -9 -10 -20 -10 -11 0
-20 5 -20 10 0 6 9 10 20 10 11 0 20 -4 20 -10z m55 0 c3 -5 -3 -10 -14 -10
-12 0 -21 5 -21 10 0 6 6 10 14 10 8 0 18 -4 21 -10z m45 0 c0 -5 -4 -10 -10
-10 -5 0 -10 5 -10 10 0 6 5 10 10 10 6 0 10 -4 10 -10z m80 0 c0 -6 -11 -10
-25 -10 -14 0 -25 4 -25 8 0 4 11 9 25 10 14 1 25 -3 25 -8z m-187 -37 c-7 -2
-21 -2 -30 0 -10 3 -4 5 12 5 17 0 24 -2 18 -5z m59 -5 c-9 -9 -15 -9 -24 0
-9 9 -7 12 12 12 19 0 21 -3 12 -12z m55 6 c-3 -3 -12 -4 -19 -1 -8 3 -5 6 6
6 11 1 17 -2 13 -5z m71 -1 c-10 -2 -26 -2 -35 0 -10 3 -2 5 17 5 19 0 27 -2
18 -5z m-180 -34 c-2 -6 -7 -10 -11 -10 -4 1 -14 1 -22 1 -8 0 -15 5 -15 10 0
6 12 10 26 10 14 0 24 -5 22 -11z m62 -4 c0 -8 -9 -15 -20 -15 -11 0 -20 7
-20 15 0 8 9 15 20 15 11 0 20 -7 20 -15z m40 0 c0 -8 -4 -15 -10 -15 -5 0
-10 7 -10 15 0 8 5 15 10 15 6 0 10 -7 10 -15z m90 0 c0 -10 -11 -15 -35 -15
-26 0 -33 3 -29 15 4 9 19 15 35 15 19 0 29 -5 29 -15z m237 -1 c0 -15 -36
-19 -147 -14 -71 2 -75 4 -65 20 11 17 212 12 212 -6z"/>
<path d="M261 356 c-13 -15 -9 -20 34 -51 19 -13 18 -14 -18 -15 -31 0 -38 -3
-35 -17 3 -14 13 -18 47 -17 l43 0 -33 -27 c-26 -21 -31 -30 -22 -40 9 -9 19
-4 42 22 l31 33 0 -31 c0 -18 5 -35 10 -38 6 -4 10 9 10 31 l0 36 36 -27 c46
-35 54 -27 12 14 l-32 31 32 0 c18 0 32 5 32 10 0 6 -15 10 -32 10 l-33 1 33
29 c17 16 32 35 32 42 0 6 -15 -2 -33 -20 -18 -18 -36 -32 -39 -32 -3 0 -5 14
-4 32 1 24 -4 33 -18 36 -16 3 -18 -1 -14 -32 2 -20 3 -36 1 -36 -2 0 -19 16
-37 35 -28 29 -36 32 -45 21z"/>
</g>
</svg>
