<?xml version="1.0" standalone="no"?>
<!DOCTYPE svg PUBLIC "-//W3C//DTD SVG 20010904//EN"
 "http://www.w3.org/TR/2001/REC-SVG-20010904/DTD/svg10.dtd">
<svg version="1.0" xmlns="http://www.w3.org/2000/svg"
 width="105.000000pt" height="48.000000pt" viewBox="0 0 105.000000 48.000000"
 preserveAspectRatio="xMidYMid meet">
<metadata>
Created by potrace 1.16, written by Peter Selinger 2001-2019
</metadata>
<g transform="translate(0.000000,48.000000) scale(0.100000,-0.100000)"
fill="#000000" stroke="none">
<path d="M149 362 c-67 -54 -69 -46 33 -196 38 -55 68 -105 68 -112 0 -9 -30
-11 -125 -8 -110 4 -125 3 -125 -11 0 -14 15 -16 103 -15 316 4 558 -1 552
-10 -3 -5 3 -10 15 -10 12 0 18 5 15 10 -4 7 58 10 179 10 117 0 186 4 186 10
0 6 -127 10 -357 11 -460 2 -415 -2 -433 34 -30 59 -104 180 -122 201 -18 21
-18 22 28 73 26 28 45 53 43 55 -2 2 -29 -17 -60 -42z"/>
<path d="M397 345 c-7 -11 -12 -26 -11 -32 1 -7 2 -51 3 -98 1 -80 12 -110 24
-65 4 17 14 20 74 21 37 0 98 3 136 5 56 4 67 3 67 -10 0 -20 16 -21 27 -2 12
22 233 27 233 6 0 -8 3 -10 9 -5 5 6 12 51 16 102 6 83 5 92 -12 97 -10 3
-139 4 -286 3 -256 -2 -269 -3 -280 -22z m299 -6 c3 -5 -28 -8 -68 -7 -64 1
-68 2 -28 7 66 10 90 10 96 0z m244 -41 c0 -29 3 -63 6 -75 6 -23 6 -23 -110
-23 -71 0 -116 4 -116 10 0 10 60 15 152 12 26 -1 50 3 53 8 4 6 -35 11 -102
12 l-108 2 95 3 c134 5 141 23 9 24 -72 1 -92 4 -64 8 22 4 68 6 102 5 35 -1
65 2 69 7 3 5 -41 10 -103 10 l-108 2 89 8 c49 5 91 11 94 14 3 3 -37 5 -89 6
-62 0 -87 3 -74 9 11 5 62 9 113 9 l92 1 0 -52z m-463 36 c-3 -3 -12 -4 -19
-1 -8 3 -5 6 6 6 11 1 17 -2 13 -5z m56 -1 c-7 -2 -19 -2 -25 0 -7 3 -2 5 12
5 14 0 19 -2 13 -5z m-60 -30 c-7 -2 -21 -2 -30 0 -10 3 -4 5 12 5 17 0 24 -2
18 -5z m60 0 c-7 -2 -19 -2 -25 0 -7 3 -2 5 12 5 14 0 19 -2 13 -5z m60 0 c-7
-2 -19 -2 -25 0 -7 3 -2 5 12 5 14 0 19 -2 13 -5z m85 0 c-10 -2 -28 -2 -40 0
-13 2 -5 4 17 4 22 1 32 -1 23 -4z m-210 -30 c-10 -2 -26 -2 -35 0 -10 3 -2 5
17 5 19 0 27 -2 18 -5z m65 0 c-7 -2 -19 -2 -25 0 -7 3 -2 5 12 5 14 0 19 -2
13 -5z m60 0 c-7 -2 -19 -2 -25 0 -7 3 -2 5 12 5 14 0 19 -2 13 -5z m85 0
c-10 -2 -28 -2 -40 0 -13 2 -5 4 17 4 22 1 32 -1 23 -4z m-215 -30 c-7 -2 -19
-2 -25 0 -7 3 -2 5 12 5 14 0 19 -2 13 -5z m64 1 c-3 -3 -12 -4 -19 -1 -8 3
-5 6 6 6 11 1 17 -2 13 -5z m66 -1 c-7 -2 -19 -2 -25 0 -7 3 -2 5 12 5 14 0
19 -2 13 -5z m97 -18 c0 -22 -4 -25 -35 -25 -19 0 -35 5 -35 10 0 6 11 10 25
10 34 0 32 18 -2 23 -23 3 -21 4 10 6 33 1 37 -2 37 -24z m-210 -15 c0 -5 -13
-10 -30 -10 -16 0 -30 5 -30 10 0 6 14 10 30 10 17 0 30 -4 30 -10z m60 0 c0
-5 -12 -10 -26 -10 -14 0 -23 4 -19 10 3 6 15 10 26 10 10 0 19 -4 19 -10z
m60 0 c0 -5 -9 -10 -20 -10 -11 0 -20 5 -20 10 0 6 9 10 20 10 11 0 20 -4 20
-10z"/>
</g>
</svg>
