<?xml version="1.0" standalone="no"?>
<!DOCTYPE svg PUBLIC "-//W3C//DTD SVG 20010904//EN"
 "http://www.w3.org/TR/2001/REC-SVG-20010904/DTD/svg10.dtd">
<svg version="1.0" xmlns="http://www.w3.org/2000/svg"
 width="96.000000pt" height="51.000000pt" viewBox="0 0 96.000000 51.000000"
 preserveAspectRatio="xMidYMid meet">
<metadata>
Created by potrace 1.16, written by Peter Selinger 2001-2019
</metadata>
<g transform="translate(0.000000,51.000000) scale(0.100000,-0.100000)"
fill="#000000" stroke="none">
<path d="M167 480 c-3 -10 -1 -20 5 -22 5 -2 -12 -25 -39 -52 -28 -28 -49 -59
-50 -74 -2 -26 91 -220 126 -262 31 -38 25 -12 -18 81 -22 46 -43 97 -47 113
-4 16 -13 41 -20 54 -12 23 -10 29 22 65 19 23 46 49 61 58 l27 18 -28 7 c-17
4 -25 11 -22 20 3 8 2 14 -3 14 -5 0 -11 -9 -14 -20z"/>
<path d="M407 403 c-4 -3 -7 -51 -7 -105 0 -77 -3 -98 -14 -98 -28 0 -38 27
-31 84 5 36 4 56 -3 56 -14 0 -22 -25 -22 -71 0 -46 -14 -50 -34 -11 -18 35
-8 54 45 87 42 27 54 57 19 48 -26 -7 -120 -111 -120 -133 0 -22 24 -41 80
-66 40 -17 69 -19 282 -19 l237 0 6 -22 c10 -43 22 -23 29 48 6 54 4 75 -6 85
-10 10 -59 14 -203 14 -239 2 -239 2 -231 50 6 36 -11 69 -27 53z m396 -132
c36 -1 37 -2 37 -38 l0 -38 -194 1 c-107 1 -199 5 -205 8 -6 4 -11 20 -11 36
0 25 4 29 33 33 27 3 190 2 340 -2z"/>
</g>
</svg>
