<?xml version="1.0" standalone="no"?>
<!DOCTYPE svg PUBLIC "-//W3C//DTD SVG 20010904//EN"
 "http://www.w3.org/TR/2001/REC-SVG-20010904/DTD/svg10.dtd">
<svg version="1.0" xmlns="http://www.w3.org/2000/svg"
 width="65.000000pt" height="59.000000pt" viewBox="0 0 65.000000 59.000000"
 preserveAspectRatio="xMidYMid meet">
<metadata>
Created by potrace 1.16, written by Peter Selinger 2001-2019
</metadata>
<g transform="translate(0.000000,59.000000) scale(0.100000,-0.100000)"
fill="#000000" stroke="none">
<path d="M235 520 c-4 -6 -10 -8 -15 -5 -11 7 -90 -113 -90 -135 0 -8 18 -35
40 -59 32 -35 37 -47 26 -53 -18 -10 -66 -92 -66 -113 0 -9 9 -28 20 -42 11
-14 20 -31 20 -37 0 -6 9 -17 21 -24 19 -12 25 -8 74 44 l53 57 46 -38 c33
-27 46 -45 46 -64 1 -24 5 -22 55 34 69 75 74 90 43 123 -13 15 -31 38 -40 52
-16 24 -15 26 30 72 l46 48 -16 32 c-8 18 -19 48 -22 66 -5 20 -14 32 -24 32
-9 0 -27 3 -39 6 -18 5 -25 0 -38 -32 -9 -22 -23 -49 -31 -62 l-15 -23 -24 33
c-14 18 -32 48 -42 66 -16 31 -45 42 -58 22z m265 -92 c10 -22 8 -32 -16 -67
-14 -23 -32 -41 -39 -41 -23 0 -25 29 -5 65 11 20 15 37 10 40 -16 10 -28 -3
-35 -35 -7 -33 -19 -39 -29 -13 -4 10 7 37 30 71 l36 55 19 -24 c10 -13 23
-36 29 -51z m-215 12 l40 -41 -24 -44 c-27 -51 -68 -84 -77 -62 -3 8 4 38 15
68 14 36 17 57 10 64 -13 13 -26 -8 -35 -59 -6 -38 -7 -39 -21 -20 -34 45 -34
51 0 93 17 22 37 40 42 40 6 1 29 -17 50 -39z m123 -124 c21 -19 31 -43 13
-31 -10 5 -81 -80 -81 -96 0 -22 -17 -5 -44 43 l-29 52 43 38 c46 41 44 41 98
-6z m68 -102 c14 -21 15 -31 6 -63 -11 -35 -47 -80 -56 -70 -2 2 1 28 6 57 9
44 8 56 -3 63 -25 15 -29 10 -29 -38 l0 -48 -20 25 c-26 34 -25 43 11 85 34
39 55 36 85 -11z m-243 26 c7 -6 23 -18 36 -28 30 -23 24 -57 -21 -107 -39
-45 -58 -32 -27 19 17 29 19 39 9 51 -17 20 -27 12 -35 -32 -5 -27 -9 -33 -16
-22 -16 25 -10 70 14 99 26 34 24 33 40 20z"/>
</g>
</svg>
