<?xml version="1.0" standalone="no"?>
<!DOCTYPE svg PUBLIC "-//W3C//DTD SVG 20010904//EN"
 "http://www.w3.org/TR/2001/REC-SVG-20010904/DTD/svg10.dtd">
<svg version="1.0" xmlns="http://www.w3.org/2000/svg"
 width="75.000000pt" height="55.000000pt" viewBox="0 0 75.000000 55.000000"
 preserveAspectRatio="xMidYMid meet">
<metadata>
Created by potrace 1.16, written by Peter Selinger 2001-2019
</metadata>
<g transform="translate(0.000000,55.000000) scale(0.100000,-0.100000)"
fill="#000000" stroke="none">
<path d="M586 439 c-57 -37 -81 -48 -89 -40 -16 16 -37 14 -37 -4 0 -8 4 -15
9 -15 5 0 7 -9 4 -20 -4 -16 0 -20 23 -21 16 -1 2 -5 -31 -8 -48 -6 -63 -4
-72 9 -12 13 -14 13 -27 -2 -9 -13 -28 -18 -62 -18 -70 0 -76 -6 -72 -81 4
-77 19 -80 33 -7 10 49 13 53 44 59 42 9 61 2 61 -21 0 -18 -26 -30 -67 -30
-13 0 -23 -5 -23 -11 0 -8 28 -9 94 -4 100 8 125 3 106 -20 -15 -19 -5 -34 18
-28 14 3 39 -17 90 -73 39 -43 74 -75 78 -71 8 8 26 247 28 367 1 69 -2 85
-15 88 -8 1 -50 -20 -93 -49z m37 -137 l-28 -22 -32 37 c-18 21 -31 43 -30 48
2 6 28 27 58 48 l54 38 3 -63 c3 -59 1 -65 -25 -86z m-57 -13 c27 -30 6 -39
-94 -39 -81 0 -83 1 -80 23 2 16 12 24 38 28 75 13 116 10 136 -12z m84 -105
c0 -133 1 -133 -75 -33 l-44 56 29 22 c35 25 37 25 57 6 20 -21 28 -12 12 13
-10 17 -10 23 0 36 8 9 15 16 17 16 2 0 4 -52 4 -116z"/>
<path d="M112 438 c-23 -47 -64 -154 -69 -178 -7 -39 113 -247 132 -228 3 3 0
19 -8 35 -21 41 -67 202 -67 235 0 16 13 55 30 87 16 32 26 61 23 65 -13 12
-30 5 -41 -16z"/>
</g>
</svg>
