<?xml version="1.0" standalone="no"?>
<!DOCTYPE svg PUBLIC "-//W3C//DTD SVG 20010904//EN"
 "http://www.w3.org/TR/2001/REC-SVG-20010904/DTD/svg10.dtd">
<svg version="1.0" xmlns="http://www.w3.org/2000/svg"
 width="134.000000pt" height="59.000000pt" viewBox="0 0 134.000000 59.000000"
 preserveAspectRatio="xMidYMid meet">
<metadata>
Created by potrace 1.16, written by Peter Selinger 2001-2019
</metadata>
<g transform="translate(0.000000,59.000000) scale(0.100000,-0.100000)"
fill="#000000" stroke="none">
<path d="M376 542 c-2 -4 10 -30 29 -58 64 -95 94 -163 86 -192 -10 -33 -74
-161 -107 -213 -15 -24 -20 -40 -13 -45 13 -8 10 -12 53 71 20 39 50 95 68
125 39 69 38 94 -5 161 -19 30 -46 78 -61 107 -25 49 -39 62 -50 44z"/>
<path d="M291 424 c-46 -38 -37 -71 23 -94 l26 -10 0 65 c0 36 -4 65 -9 65 -5
0 -23 -12 -40 -26z"/>
<path d="M1160 412 c0 -31 26 -92 37 -87 16 6 17 -11 1 -21 -6 -4 -16 0 -23 9
-14 19 -30 23 -19 6 3 -6 0 -15 -7 -20 -9 -5 -16 -3 -20 8 -4 13 -20 16 -92
14 -81 -2 -87 -1 -87 18 0 11 3 22 8 24 4 3 47 7 96 8 65 3 90 1 93 -9 3 -7
-3 -11 -14 -10 -33 3 -53 -2 -53 -12 0 -7 6 -7 18 -1 9 5 30 7 45 4 33 -6 35
6 5 34 -22 19 -34 20 -248 18 -198 -2 -226 -1 -237 14 -12 15 -14 15 -25 0
-15 -18 -13 -279 2 -279 5 0 10 8 12 17 3 15 18 16 133 14 71 -1 135 -7 141
-12 8 -6 14 -4 18 6 5 14 21 16 100 13 52 -2 92 0 89 5 -2 4 1 7 6 7 6 0 11 8
11 18 -1 14 -2 15 -9 2 -13 -21 -191 -16 -191 6 0 10 14 14 54 14 30 0 58 4
61 10 4 6 -17 10 -54 10 l-61 0 0 30 0 30 86 0 c78 0 85 -2 80 -18 -7 -21 16
-57 35 -57 7 0 16 -9 19 -20 4 -18 11 -21 37 -16 3 0 -4 12 -16 25 -15 16 -19
26 -12 31 6 3 8 11 5 17 -4 7 -10 5 -16 -5 -5 -9 -15 -14 -23 -11 -19 8 -19
24 0 24 8 0 15 7 15 15 0 19 44 4 46 -16 1 -8 2 -22 3 -32 0 -10 5 -15 11 -12
8 5 8 33 0 55 -1 3 -1 13 0 24 1 10 -8 29 -20 41 -14 15 -20 30 -16 41 7 18
21 11 21 -12 0 -7 3 -14 8 -14 9 0 10 5 3 38 -5 20 -12 27 -31 27 -14 0 -25
-6 -25 -13z m-278 -69 c-4 -20 -7 -23 -10 -10 -4 21 -22 23 -22 2 0 -8 -9 -15
-20 -15 -11 0 -20 7 -20 15 0 8 -4 15 -10 15 -5 0 -10 -6 -10 -12 0 -9 -4 -8
-10 2 -8 13 -10 12 -10 -2 0 -28 -58 -24 -70 5 l-9 22 0 -22 c-1 -31 -21 -29
-21 2 l0 25 109 0 108 0 -5 -27z m38 -13 c0 -13 -1 -13 -10 0 -5 8 -10 22 -10
30 0 13 1 13 10 0 5 -8 10 -22 10 -30z m-232 -57 c-4 -34 -28 -43 -28 -10 0
25 7 37 22 37 5 0 8 -12 6 -27z m82 -3 c0 -27 -3 -30 -30 -30 -27 0 -30 3 -30
30 0 27 3 30 30 30 27 0 30 -3 30 -30z m80 0 c0 -23 -4 -30 -20 -30 -16 0 -20
7 -20 30 0 23 4 30 20 30 16 0 20 -7 20 -30z m40 -6 c0 -13 -4 -24 -10 -24 -5
0 -10 14 -10 31 0 17 4 28 10 24 6 -3 10 -17 10 -31z m30 6 c0 -16 -4 -30 -10
-30 -5 0 -10 14 -10 30 0 17 5 30 10 30 6 0 10 -13 10 -30z m-233 -66 c2 -6
-5 -14 -17 -17 -15 -4 -20 0 -20 15 0 21 30 23 37 2z m87 10 c17 -6 22 -34 7
-34 -31 0 -71 15 -71 26 0 14 36 19 64 8z m75 -11 c9 -17 10 -17 16 0 8 20 25
23 25 3 0 -31 -75 -36 -83 -6 -7 26 28 28 42 3z m71 2 c0 -8 -4 -15 -8 -15 -5
0 -9 7 -9 15 0 8 4 15 9 15 4 0 8 -7 8 -15z"/>
<path d="M411 379 c-5 -13 -15 -45 -21 -71 -11 -43 -10 -50 10 -83 26 -41 47
-37 25 5 -19 37 -19 60 1 110 12 30 14 44 6 52 -8 8 -14 4 -21 -13z"/>
<path d="M1247 381 c-3 -11 1 -22 7 -24 7 -3 13 4 13 14 2 26 -14 33 -20 10z"/>
<path d="M1240 205 c0 -8 5 -15 10 -15 6 0 10 7 10 15 0 8 -4 15 -10 15 -5 0
-10 -7 -10 -15z"/>
<path d="M1156 146 c3 -8 12 -12 20 -9 21 8 17 23 -6 23 -13 0 -18 -5 -14 -14z"/>
</g>
</svg>
