<?xml version="1.0" standalone="no"?>
<!DOCTYPE svg PUBLIC "-//W3C//DTD SVG 20010904//EN"
 "http://www.w3.org/TR/2001/REC-SVG-20010904/DTD/svg10.dtd">
<svg version="1.0" xmlns="http://www.w3.org/2000/svg"
 width="45.000000pt" height="38.000000pt" viewBox="0 0 45.000000 38.000000"
 preserveAspectRatio="xMidYMid meet">
<metadata>
Created by potrace 1.16, written by Peter Selinger 2001-2019
</metadata>
<g transform="translate(0.000000,38.000000) scale(0.100000,-0.100000)"
fill="#000000" stroke="none">
<path d="M175 301 c-56 -26 -125 -78 -125 -95 0 -7 17 -26 38 -42 20 -15 42
-33 47 -39 41 -46 125 -59 166 -26 21 17 22 22 11 45 -6 15 -22 30 -34 35 -21
7 -20 8 9 19 17 6 36 20 42 31 15 26 4 69 -19 81 -29 16 -91 11 -135 -9z m113
-7 c37 -10 30 -55 -13 -78 -39 -21 -41 -36 -7 -51 49 -22 32 -65 -27 -65 -27
0 -52 12 -104 51 l-69 50 44 33 c81 62 119 75 176 60z"/>
</g>
</svg>
