<?xml version="1.0" standalone="no"?>
<!DOCTYPE svg PUBLIC "-//W3C//DTD SVG 20010904//EN"
 "http://www.w3.org/TR/2001/REC-SVG-20010904/DTD/svg10.dtd">
<svg version="1.0" xmlns="http://www.w3.org/2000/svg"
 width="55.000000pt" height="37.000000pt" viewBox="0 0 55.000000 37.000000"
 preserveAspectRatio="xMidYMid meet">
<metadata>
Created by potrace 1.16, written by Peter Selinger 2001-2019
</metadata>
<g transform="translate(0.000000,37.000000) scale(0.100000,-0.100000)"
fill="#000000" stroke="none">
<path d="M175 283 c-55 -25 -104 -48 -108 -52 -16 -16 24 -65 82 -102 34 -21
61 -43 61 -49 0 -6 4 -9 8 -6 4 2 14 1 22 -4 15 -9 122 43 165 80 11 9 28 20
38 23 33 12 29 17 -88 104 -73 55 -70 55 -180 6z m160 -28 c117 -61 115 -58
48 -94 -32 -18 -78 -41 -101 -51 l-44 -20 -57 44 c-66 51 -90 78 -76 83 6 2
37 19 70 38 33 19 67 34 76 35 9 0 47 -16 84 -35z"/>
<path d="M214 247 c-3 -13 -4 -41 -2 -63 3 -37 5 -39 39 -42 44 -4 61 14 62
64 1 42 -21 64 -65 64 -21 0 -29 -6 -34 -23z m74 -20 c5 -25 -6 -67 -17 -67
-5 0 -11 20 -13 45 -2 36 0 45 12 43 8 -2 16 -11 18 -21z"/>
</g>
</svg>
