<?xml version="1.0" standalone="no"?>
<!DOCTYPE svg PUBLIC "-//W3C//DTD SVG 20010904//EN"
 "http://www.w3.org/TR/2001/REC-SVG-20010904/DTD/svg10.dtd">
<svg version="1.0" xmlns="http://www.w3.org/2000/svg"
 width="115.000000pt" height="60.000000pt" viewBox="0 0 115.000000 60.000000"
 preserveAspectRatio="xMidYMid meet">
<metadata>
Created by potrace 1.16, written by Peter Selinger 2001-2019
</metadata>
<g transform="translate(0.000000,60.000000) scale(0.100000,-0.100000)"
fill="#000000" stroke="none">
<path d="M290 478 c-36 -11 -85 -25 -110 -32 -47 -13 -70 -46 -31 -46 11 0 22
-8 25 -18 3 -9 24 -28 45 -42 22 -13 38 -27 35 -31 -2 -4 -27 -10 -54 -14 -28
-4 -50 -10 -50 -15 0 -14 70 -125 86 -137 9 -6 22 -9 28 -7 7 3 32 -16 55 -41
23 -25 44 -45 46 -45 12 0 3 19 -25 50 -32 36 -31 50 5 50 27 0 40 -18 50 -73
11 -58 25 -44 25 26 l0 63 93 28 c50 16 110 34 132 42 22 7 92 26 155 43 143
38 196 56 184 63 -5 3 -52 -7 -104 -22 -52 -15 -131 -37 -175 -48 -44 -12
-120 -33 -170 -46 -162 -44 -155 -44 -156 1 -1 83 -17 106 -63 98 -27 -5 -37
0 -75 38 -24 25 -41 50 -37 55 6 10 124 52 146 52 22 0 140 -75 140 -89 0 -10
10 -12 40 -8 22 3 40 3 40 1 0 -9 -83 -94 -91 -94 -5 0 -22 15 -39 33 -27 30
-30 31 -46 15 -17 -17 -17 -18 1 -33 11 -8 28 -15 37 -15 10 0 20 -11 24 -25
9 -37 28 -30 63 23 17 27 41 58 55 71 21 20 24 20 30 6 4 -11 12 -15 23 -10
21 7 215 25 291 26 28 1 52 5 52 10 0 6 -74 7 -187 3 -104 -4 -185 -4 -182 0
5 6 357 76 380 76 5 0 9 -17 9 -37 0 -21 4 -45 10 -53 10 -17 11 -15 29 63 13
53 7 72 -18 61 -9 -4 -34 -10 -56 -14 -22 -4 -85 -16 -140 -28 -164 -33 -186
-35 -178 -15 5 15 2 15 -18 -3 -13 -12 -44 -25 -69 -28 -45 -6 -48 -5 -100 44
-31 28 -64 49 -75 49 -11 -1 -49 -10 -85 -21z m57 -215 c6 -27 13 -55 17 -64
6 -14 -2 -18 -40 -24 -47 -7 -48 -6 -86 36 -21 23 -38 45 -38 49 0 4 18 12 40
19 33 10 44 9 63 -4 24 -15 24 -15 20 10 -9 47 14 25 24 -22z"/>
<path d="M1035 360 c-8 -13 15 -13 35 0 12 8 11 10 -7 10 -12 0 -25 -4 -28
-10z"/>
</g>
</svg>
