<?xml version="1.0" standalone="no"?>
<!DOCTYPE svg PUBLIC "-//W3C//DTD SVG 20010904//EN"
 "http://www.w3.org/TR/2001/REC-SVG-20010904/DTD/svg10.dtd">
<svg version="1.0" xmlns="http://www.w3.org/2000/svg"
 width="83.000000pt" height="72.000000pt" viewBox="0 0 83.000000 72.000000"
 preserveAspectRatio="xMidYMid meet">
<metadata>
Created by potrace 1.16, written by Peter Selinger 2001-2019
</metadata>
<g transform="translate(0.000000,72.000000) scale(0.100000,-0.100000)"
fill="#000000" stroke="none">
<path d="M127 663 c-2 -5 -7 -25 -11 -45 -5 -28 -15 -42 -36 -53 -16 -8 -32
-21 -36 -27 -5 -7 4 -5 19 5 26 17 27 17 26 0 0 -10 -4 -27 -8 -37 -7 -19 38
-123 68 -160 8 -10 5 -23 -10 -52 l-22 -39 38 -103 c21 -56 42 -102 47 -102 9
0 9 1 -23 133 -18 75 -19 93 -8 119 7 18 8 32 3 36 -13 9 -42 106 -50 164 -5
37 -2 52 13 75 25 36 30 93 9 93 -8 0 -17 -3 -19 -7z"/>
<path d="M205 636 c-41 -30 -7 -36 196 -31 183 3 221 7 208 19 -5 5 -130 9
-263 8 -49 -1 -97 3 -106 8 -11 6 -23 5 -35 -4z"/>
<path d="M187 567 c-3 -8 -4 -17 -1 -20 6 -5 217 2 223 9 13 13 -21 19 -113
22 -84 3 -104 1 -109 -11z"/>
<path d="M427 574 c-16 -17 11 -24 88 -24 46 0 86 4 89 9 9 14 -163 28 -177
15z"/>
<path d="M205 510 c-15 -24 13 -31 103 -24 51 4 92 11 92 15 0 5 -36 9 -79 9
-44 0 -86 3 -94 6 -8 3 -18 0 -22 -6z"/>
<path d="M435 510 c-14 -23 9 -29 88 -24 106 7 126 16 57 25 -82 11 -138 10
-145 -1z"/>
<path d="M192 439 c6 -18 77 -28 153 -22 59 5 73 9 64 17 -2 3 -53 8 -113 12
-90 6 -108 4 -104 -7z"/>
<path d="M443 438 c-13 -22 13 -28 85 -22 107 9 111 22 7 26 -48 2 -89 0 -92
-4z"/>
<path d="M360 400 c0 -5 -9 -10 -19 -10 -20 0 -37 -32 -26 -50 11 -17 25 -11
35 15 5 14 14 25 20 25 5 0 10 7 10 15 0 8 -4 15 -10 15 -5 0 -10 -4 -10 -10z"/>
<path d="M394 378 c2 -13 9 -22 16 -20 7 2 9 -5 5 -20 -6 -23 -6 -23 10 -3 9
11 20 19 25 18 10 -3 24 36 16 44 -3 3 -13 0 -21 -7 -12 -10 -19 -10 -27 -2
-19 19 -28 14 -24 -10z"/>
<path d="M498 378 c-21 -31 -22 -38 -8 -38 6 0 10 7 10 16 0 14 3 14 15 4 9
-7 18 -10 22 -6 3 3 1 6 -5 6 -6 0 -12 10 -14 22 -3 22 -3 22 -20 -4z"/>
<path d="M201 381 c-17 -11 -4 -34 16 -27 8 3 11 1 8 -4 -3 -6 -1 -10 4 -10 6
0 11 11 11 25 0 26 -14 31 -39 16z"/>
<path d="M267 383 c-10 -9 -9 -23 2 -23 5 0 11 7 15 15 5 15 -5 20 -17 8z"/>
<path d="M274 335 c8 -8 21 -15 28 -15 8 1 6 6 -6 15 -26 20 -42 19 -22 0z"/>
<path d="M222 318 c-8 -8 -9 -15 -1 -25 13 -15 174 -19 183 -4 7 10 -51 21
-111 21 -24 0 -43 5 -43 10 0 13 -13 13 -28 -2z"/>
<path d="M464 309 c-3 -5 -2 -14 2 -20 10 -16 204 4 204 21 0 11 -199 9 -206
-1z"/>
<path d="M219 243 c-16 -19 5 -24 96 -21 79 2 117 10 105 21 -12 12 -192 11
-201 0z"/>
<path d="M463 248 c-12 -21 13 -29 76 -23 85 8 115 14 106 23 -9 9 -176 9
-182 0z"/>
<path d="M480 176 c0 -21 19 -24 113 -19 64 4 87 9 87 19 0 11 -22 14 -100 14
-79 0 -100 -3 -100 -14z"/>
<path d="M235 171 c-8 -15 6 -19 65 -21 108 -3 130 -1 130 15 0 12 -17 15 -94
15 -52 0 -97 -4 -101 -9z"/>
<path d="M240 10 c0 -5 4 -10 9 -10 6 0 13 5 16 10 3 6 -1 10 -9 10 -9 0 -16
-4 -16 -10z"/>
<path d="M298 3 c12 -2 30 -2 40 0 9 3 -1 5 -23 4 -22 0 -30 -2 -17 -4z"/>
</g>
</svg>
