<?xml version="1.0" standalone="no"?>
<!DOCTYPE svg PUBLIC "-//W3C//DTD SVG 20010904//EN"
 "http://www.w3.org/TR/2001/REC-SVG-20010904/DTD/svg10.dtd">
<svg version="1.0" xmlns="http://www.w3.org/2000/svg"
 width="115.000000pt" height="53.000000pt" viewBox="0 0 115.000000 53.000000"
 preserveAspectRatio="xMidYMid meet">
<metadata>
Created by potrace 1.16, written by Peter Selinger 2001-2019
</metadata>
<g transform="translate(0.000000,53.000000) scale(0.100000,-0.100000)"
fill="#000000" stroke="none">
<path d="M147 380 c-57 -58 -66 -73 -58 -88 7 -13 7 -22 -1 -30 -16 -16 7 -47
107 -138 83 -76 115 -97 115 -75 0 10 -69 90 -126 146 -17 17 -39 43 -48 58
-18 27 -18 27 19 82 21 29 48 64 61 76 13 12 24 26 24 31 0 22 -30 2 -93 -62z
m-7 -165 c13 -14 21 -25 18 -25 -2 0 -15 11 -28 25 -13 14 -21 25 -18 25 2 0
15 -11 28 -25z"/>
<path d="M427 443 c-4 -3 -7 -16 -7 -27 0 -44 -14 -48 -56 -16 -21 16 -42 30
-46 30 -17 0 -7 -28 17 -50 l25 -24 -42 -14 c-24 -8 -47 -18 -52 -22 -15 -15
31 -30 98 -31 36 -1 66 -5 66 -8 0 -14 -23 -29 -36 -24 -20 7 -38 -45 -23 -63
9 -11 15 -11 25 -3 17 14 33 3 49 -35 l14 -31 -1 35 c-1 43 -13 60 -39 55 -21
-4 -24 2 -10 24 5 7 14 11 19 7 6 -4 23 -4 37 0 20 5 23 9 15 20 -7 7 -19 10
-28 7 -15 -5 -15 -4 -2 10 8 9 37 17 65 19 28 2 59 9 69 15 19 10 19 11 0 16
-10 3 -34 9 -52 12 l-34 7 31 32 c36 38 39 56 9 56 -12 0 -19 -3 -15 -6 7 -8
-56 -64 -65 -58 -5 3 -8 21 -8 40 0 32 -8 42 -23 27z m-56 -70 c13 -16 12 -17
-3 -4 -17 13 -22 21 -14 21 2 0 10 -8 17 -17z m66 -20 c-3 -10 -5 -4 -5 12 0
17 2 24 5 18 2 -7 2 -21 0 -30z m-27 -29 c0 -11 -14 -14 -57 -13 l-58 1 53 10
c33 6 50 14 46 20 -4 7 -2 8 4 4 7 -4 12 -14 12 -22z m110 2 c0 -2 -11 -6 -25
-8 -14 -3 -25 -1 -25 3 0 5 11 9 25 9 14 0 25 -2 25 -4z"/>
<path d="M790 423 c-25 -5 -112 -66 -145 -103 -15 -17 -16 -24 -5 -50 7 -16
15 -30 19 -30 3 0 33 -25 66 -55 33 -30 65 -55 72 -55 6 0 63 30 125 66 62 37
127 74 143 84 17 9 30 22 30 29 0 7 -27 24 -60 38 -59 24 -220 84 -220 82 0
-1 -11 -4 -25 -6z m130 -50 c50 -20 88 -38 86 -40 -5 -5 -179 57 -190 68 -19
18 15 9 104 -28z m-179 -20 c-33 -26 -61 -54 -61 -62 0 -8 25 -39 56 -68 l56
-53 32 19 c17 11 70 41 119 68 55 30 85 53 82 61 -4 10 0 10 18 1 12 -6 23
-13 25 -14 2 -2 -50 -31 -115 -66 -65 -35 -124 -69 -131 -76 -7 -7 -16 -13
-19 -13 -3 0 -33 22 -67 49 -65 52 -96 95 -80 110 32 30 121 91 133 91 8 0
-14 -21 -48 -47z m94 17 c3 -5 2 -10 -4 -10 -5 0 -13 5 -16 10 -3 6 -2 10 4
10 5 0 13 -4 16 -10z m-54 -77 c-2 -44 1 -59 14 -69 10 -7 12 -15 6 -18 -6 -4
-31 12 -57 36 l-46 42 36 33 c20 18 39 33 43 33 5 0 6 -26 4 -57z m182 30 c20
-6 22 -19 5 -25 -7 -2 -24 7 -37 20 -19 20 -20 24 -5 17 11 -4 27 -10 37 -12z
m-78 -7 l30 -13 -44 -22 c-49 -26 -67 -18 -57 23 7 29 25 32 71 12z"/>
<path d="M495 220 c-3 -5 1 -10 9 -10 9 0 16 -7 16 -17 0 -9 3 -14 6 -10 8 8
-5 47 -16 47 -5 0 -12 -4 -15 -10z"/>
</g>
</svg>
