<?xml version="1.0" standalone="no"?>
<!DOCTYPE svg PUBLIC "-//W3C//DTD SVG 20010904//EN"
 "http://www.w3.org/TR/2001/REC-SVG-20010904/DTD/svg10.dtd">
<svg version="1.0" xmlns="http://www.w3.org/2000/svg"
 width="85.000000pt" height="67.000000pt" viewBox="0 0 85.000000 67.000000"
 preserveAspectRatio="xMidYMid meet">
<metadata>
Created by potrace 1.16, written by Peter Selinger 2001-2019
</metadata>
<g transform="translate(0.000000,67.000000) scale(0.100000,-0.100000)"
fill="#000000" stroke="none">
<path d="M260 480 c-28 -55 -56 -100 -63 -100 -11 0 -107 -112 -107 -125 0 -9
18 -5 32 8 7 7 32 27 56 46 l42 33 60 -62 60 -62 -22 -31 c-12 -18 -30 -42
-41 -54 -11 -13 -18 -26 -14 -29 7 -7 94 64 101 83 4 10 21 3 60 -27 58 -42
66 -46 66 -30 0 16 -91 94 -110 95 -17 0 -140 146 -140 165 0 4 24 43 54 88
50 76 53 83 35 92 -16 9 -24 -1 -69 -90z"/>
<path d="M369 573 c-3 -24 3 -339 7 -342 9 -9 14 9 20 78 5 47 10 69 17 62 9
-9 31 -4 82 18 11 5 28 12 38 15 26 8 21 29 -5 23 -13 -3 -44 -9 -70 -12 -55
-8 -55 -8 -38 90 5 32 4 55 -2 63 -11 13 -47 17 -49 5z"/>
<path d="M605 570 c-3 -5 -3 -50 1 -99 5 -61 3 -95 -4 -104 -13 -15 -14 -237
-1 -237 12 0 17 29 24 136 3 50 7 100 10 112 3 19 8 156 6 190 -1 14 -27 16
-36 2z"/>
<path d="M707 564 c-4 -4 -7 -53 -7 -109 0 -56 -3 -105 -7 -109 -8 -8 -5 -197
3 -205 18 -19 34 140 38 383 1 37 -12 55 -27 40z"/>
</g>
</svg>
