<?xml version="1.0" standalone="no"?>
<!DOCTYPE svg PUBLIC "-//W3C//DTD SVG 20010904//EN"
 "http://www.w3.org/TR/2001/REC-SVG-20010904/DTD/svg10.dtd">
<svg version="1.0" xmlns="http://www.w3.org/2000/svg"
 width="59.000000pt" height="65.000000pt" viewBox="0 0 59.000000 65.000000"
 preserveAspectRatio="xMidYMid meet">
<metadata>
Created by potrace 1.16, written by Peter Selinger 2001-2019
</metadata>
<g transform="translate(0.000000,65.000000) scale(0.100000,-0.100000)"
fill="#000000" stroke="none">
<path d="M193 554 c-4 -11 8 -29 38 -55 l44 -39 -25 -18 c-14 -9 -42 -33 -64
-53 l-38 -35 52 -72 c29 -40 55 -70 58 -68 2 3 -3 16 -11 30 -16 24 -16 25 13
31 30 7 70 47 70 71 0 17 -48 54 -71 54 -23 0 -39 -29 -39 -71 0 -31 -1 -32
-15 -13 -8 10 -15 25 -15 33 0 14 79 90 95 91 11 0 75 -57 75 -67 0 -30 -61
-121 -120 -180 -61 -59 -69 -71 -56 -82 12 -10 21 -4 55 41 23 29 59 74 82 99
80 92 99 137 70 163 -10 9 -25 16 -34 16 -16 0 -137 115 -137 131 0 15 -20 10
-27 -7z m112 -204 c7 -23 -10 -50 -30 -50 -10 0 -13 38 -6 68 3 11 31 -2 36
-18z"/>
</g>
</svg>
