<?xml version="1.0" standalone="no"?>
<!DOCTYPE svg PUBLIC "-//W3C//DTD SVG 20010904//EN"
 "http://www.w3.org/TR/2001/REC-SVG-20010904/DTD/svg10.dtd">
<svg version="1.0" xmlns="http://www.w3.org/2000/svg"
 width="94.000000pt" height="52.000000pt" viewBox="0 0 94.000000 52.000000"
 preserveAspectRatio="xMidYMid meet">
<metadata>
Created by potrace 1.16, written by Peter Selinger 2001-2019
</metadata>
<g transform="translate(0.000000,52.000000) scale(0.100000,-0.100000)"
fill="#000000" stroke="none">
<path d="M337 374 c-3 -3 -51 -6 -107 -7 -67 0 -104 -5 -111 -13 -7 -9 -6 -15
5 -21 8 -4 14 -12 13 -17 -2 -9 14 -20 48 -31 18 -6 16 -9 -15 -24 -47 -22
-48 -56 -2 -80 l33 -17 -26 -12 c-23 -11 -47 -49 -40 -62 2 -3 64 -5 138 -4
128 2 138 4 195 33 36 18 63 27 67 21 3 -6 17 -10 31 -10 23 0 28 9 25 37 -2
18 67 44 98 37 14 -4 52 -20 84 -37 31 -16 60 -27 63 -24 3 3 -23 25 -57 49
-35 23 -68 46 -73 50 -15 10 20 44 82 80 32 18 50 34 44 40 -5 5 -36 -7 -78
-32 -38 -22 -76 -40 -84 -40 -9 0 -43 8 -76 19 -32 10 -95 29 -139 40 -44 12
-87 24 -96 27 -8 2 -18 1 -22 -2z m-19 -46 c-3 -7 -15 -14 -29 -16 -13 -2 -31
-6 -39 -9 -19 -8 -41 -4 -59 10 -11 10 -4 13 35 18 85 10 96 10 92 -3z m92 -8
c0 -13 -33 -17 -57 -6 -35 14 -27 22 17 18 22 -2 40 -8 40 -12z m93 -13 c26
-7 44 -17 40 -21 -4 -4 -8 -13 -8 -19 0 -7 -9 -13 -20 -14 -11 -2 -15 0 -8 3
21 9 -8 44 -37 44 -14 0 -32 5 -40 10 -22 14 12 12 73 -3z m-185 -15 c7 7 13
4 21 -10 12 -22 6 -32 -21 -32 -10 0 -18 7 -18 15 0 8 -4 15 -10 15 -15 0 -12
-50 3 -51 10 0 10 -2 0 -6 -21 -8 -15 -26 7 -20 11 3 22 1 25 -4 3 -4 -6 -11
-21 -15 -22 -6 -24 -8 -10 -16 9 -5 16 -16 16 -23 0 -8 5 -15 10 -15 6 0 10
-5 10 -11 0 -6 -5 -7 -12 -2 -7 4 -40 6 -73 4 -54 -3 -58 -2 -46 13 10 12 25
15 52 12 23 -2 39 0 39 6 0 6 -7 7 -15 4 -21 -8 -32 23 -14 36 10 6 5 7 -16 3
-19 -3 -38 0 -50 9 -19 14 -19 15 -1 35 20 22 51 28 61 12 3 -5 1 -12 -5 -16
-12 -7 -4 -25 11 -25 5 0 9 16 9 35 0 19 -5 35 -11 35 -5 0 -8 4 -4 10 3 6 15
6 29 0 15 -5 27 -5 34 2z m317 -25 l44 -24 -42 -18 c-23 -10 -52 -22 -63 -28
-17 -7 -26 -5 -42 11 l-21 21 22 3 c12 2 21 9 20 16 -2 6 2 12 8 12 6 0 9 7 5
15 -8 22 18 19 69 -8z m-233 -20 c5 -9 6 -17 3 -17 -13 0 -45 21 -45 29 0 15
32 6 42 -12z m58 -9 c0 -5 10 -6 23 -3 18 6 20 5 9 -6 -10 -11 -16 -11 -32 -1
-26 16 -30 15 -30 -7 0 -10 -9 -21 -20 -24 -11 -3 -20 -2 -20 3 0 4 -7 11 -16
14 -12 5 -14 1 -8 -16 6 -20 5 -21 -10 -9 -23 20 -21 45 4 37 11 -3 29 -9 40
-12 15 -5 20 -2 20 13 0 11 3 22 6 26 8 8 34 -3 34 -15z m49 -42 c9 -11 9 -16
0 -21 -10 -7 -28 10 -29 28 0 12 17 8 29 -7z m-52 -26 c1 -11 -4 -21 -10 -21
-7 -1 -23 -3 -36 -4 -13 -1 -26 -7 -30 -12 -7 -11 -41 -25 -41 -17 0 8 22 28
53 48 16 11 27 14 27 7 0 -6 7 -11 15 -11 8 0 14 3 14 8 -2 10 0 22 4 22 1 0
3 -9 4 -20z"/>
<path d="M576 254 c-3 -8 -2 -12 4 -9 6 3 10 0 10 -7 0 -10 3 -9 9 2 10 15 6
30 -9 30 -4 0 -11 -7 -14 -16z"/>
<path d="M557 223 c-4 -3 -7 -11 -7 -17 0 -6 5 -5 12 2 6 6 9 14 7 17 -3 3 -9
2 -12 -2z"/>
</g>
</svg>
