<?xml version="1.0" standalone="no"?>
<!DOCTYPE svg PUBLIC "-//W3C//DTD SVG 20010904//EN"
 "http://www.w3.org/TR/2001/REC-SVG-20010904/DTD/svg10.dtd">
<svg version="1.0" xmlns="http://www.w3.org/2000/svg"
 width="101.000000pt" height="62.000000pt" viewBox="0 0 101.000000 62.000000"
 preserveAspectRatio="xMidYMid meet">
<metadata>
Created by potrace 1.16, written by Peter Selinger 2001-2019
</metadata>
<g transform="translate(0.000000,62.000000) scale(0.100000,-0.100000)"
fill="#000000" stroke="none">
<path d="M233 524 c-3 -9 5 -27 22 -44 32 -34 27 -47 -30 -75 -19 -9 -35 -22
-35 -30 0 -8 20 -34 45 -57 25 -23 45 -47 45 -53 0 -6 -18 -28 -40 -50 -38
-37 -45 -60 -14 -48 8 3 40 37 70 76 60 77 49 72 183 78 43 1 66 -2 69 -9 6
-18 22 -14 22 4 0 20 41 16 175 -19 71 -18 92 -28 101 -46 7 -12 14 -19 17
-14 2 4 8 59 12 121 l7 112 -25 0 c-14 0 -56 -7 -94 -16 -113 -27 -183 -36
-303 -40 l-115 -4 -40 65 c-40 65 -60 79 -72 49z m601 -96 c3 -13 7 -49 10
-80 3 -45 1 -58 -9 -58 -31 0 -266 83 -262 93 2 8 173 53 249 66 4 0 10 -9 12
-21z m-507 -25 c29 -33 29 -51 -1 -88 l-24 -30 -27 25 c-47 44 -50 58 -19 91
34 36 42 36 71 2z m218 -23 c14 -22 -13 -31 -94 -31 -89 0 -106 5 -79 25 23
17 164 21 173 6z"/>
</g>
</svg>
