<?xml version="1.0" standalone="no"?>
<!DOCTYPE svg PUBLIC "-//W3C//DTD SVG 20010904//EN"
 "http://www.w3.org/TR/2001/REC-SVG-20010904/DTD/svg10.dtd">
<svg version="1.0" xmlns="http://www.w3.org/2000/svg"
 width="38.000000pt" height="40.000000pt" viewBox="0 0 38.000000 40.000000"
 preserveAspectRatio="xMidYMid meet">
<metadata>
Created by potrace 1.16, written by Peter Selinger 2001-2019
</metadata>
<g transform="translate(0.000000,40.000000) scale(0.100000,-0.100000)"
fill="#000000" stroke="none">
<path d="M230 323 c-32 -12 -111 -76 -124 -101 -12 -23 -12 -31 0 -53 23 -46
119 -94 163 -82 17 4 20 17 26 100 10 127 -5 158 -65 136z m38 -119 c-1 -52
-4 -97 -7 -99 -12 -7 -84 24 -107 46 -13 12 -24 30 -24 40 0 16 2 17 28 4 15
-8 35 -12 45 -9 9 3 17 1 17 -5 0 -6 -14 -11 -31 -11 -17 0 -28 -4 -24 -10 3
-5 24 -10 45 -10 36 0 39 2 38 30 -1 20 -6 30 -17 31 -10 0 -6 5 9 11 25 11
25 11 3 15 -13 3 -23 8 -23 12 0 5 -11 6 -25 3 -31 -6 -33 -29 -2 -35 16 -3
13 -5 -10 -6 -29 -1 -32 1 -24 21 4 12 16 27 27 33 10 5 24 16 32 23 7 6 22
12 33 12 18 0 19 -7 17 -96z"/>
<path d="M225 130 c3 -5 10 -10 16 -10 5 0 9 5 9 10 0 6 -7 10 -16 10 -8 0
-12 -4 -9 -10z"/>
</g>
</svg>
