<?xml version="1.0" standalone="no"?>
<!DOCTYPE svg PUBLIC "-//W3C//DTD SVG 20010904//EN"
 "http://www.w3.org/TR/2001/REC-SVG-20010904/DTD/svg10.dtd">
<svg version="1.0" xmlns="http://www.w3.org/2000/svg"
 width="38.000000pt" height="53.000000pt" viewBox="0 0 38.000000 53.000000"
 preserveAspectRatio="xMidYMid meet">
<metadata>
Created by potrace 1.16, written by Peter Selinger 2001-2019
</metadata>
<g transform="translate(0.000000,53.000000) scale(0.100000,-0.100000)"
fill="#000000" stroke="none">
<path d="M100 453 c0 -4 19 -26 42 -50 l42 -43 -32 -39 c-18 -22 -32 -44 -32
-50 0 -5 12 -23 26 -41 l26 -31 -51 -54 c-46 -49 -57 -75 -31 -75 4 0 31 21
60 47 l52 47 30 -37 c32 -40 49 -45 67 -23 10 12 9 19 -6 33 -47 48 -47 51
-19 87 32 43 32 52 2 96 l-24 35 24 28 c55 66 8 82 -55 19 -12 -11 -19 -8 -50
22 -33 32 -71 48 -71 29z m81 -56 l22 -32 -31 29 c-18 17 -32 34 -32 38 0 15
18 0 41 -35z m99 17 c0 -3 -29 -36 -65 -73 l-65 -68 20 -26 c24 -30 26 -45 4
-27 -34 29 -36 48 -8 88 54 73 114 129 114 106z m0 -143 c0 -10 -35 -49 -77
-87 -88 -78 -80 -59 10 28 l60 56 -22 27 c-11 15 -21 33 -21 39 1 18 50 -44
50 -63z m-46 17 c15 -21 14 -24 -3 -42 -17 -16 -23 -17 -35 -6 -19 15 -21 41
-4 58 17 17 25 15 42 -10z m13 -125 c28 -36 35 -53 19 -47 -14 5 -46 47 -46
59 0 11 13 4 27 -12z"/>
</g>
</svg>
