<?xml version="1.0" standalone="no"?>
<!DOCTYPE svg PUBLIC "-//W3C//DTD SVG 20010904//EN"
 "http://www.w3.org/TR/2001/REC-SVG-20010904/DTD/svg10.dtd">
<svg version="1.0" xmlns="http://www.w3.org/2000/svg"
 width="88.000000pt" height="49.000000pt" viewBox="0 0 88.000000 49.000000"
 preserveAspectRatio="xMidYMid meet">
<metadata>
Created by potrace 1.16, written by Peter Selinger 2001-2019
</metadata>
<g transform="translate(0.000000,49.000000) scale(0.100000,-0.100000)"
fill="#000000" stroke="none">
<path d="M714 400 c-102 -44 -189 -61 -298 -59 -69 1 -73 2 -69 24 6 28 -26
63 -38 43 -5 -7 -9 -32 -9 -55 0 -32 -4 -43 -15 -43 -18 0 -20 41 -3 58 23 23
-1 23 -54 -1 -29 -14 -70 -31 -90 -38 -34 -12 -36 -15 -31 -43 8 -43 12 -46
105 -77 112 -38 126 -37 120 12 -1 4 35 10 80 14 44 3 87 9 94 12 10 3 14 -3
14 -20 0 -14 5 -29 10 -32 6 -3 10 5 10 18 0 14 6 27 14 30 24 9 243 -65 258
-87 14 -21 19 5 23 125 2 68 5 131 7 139 6 27 -35 20 -128 -20z m90 -103 c5
-54 6 -101 2 -104 -3 -4 -27 3 -54 15 -26 11 -80 33 -119 48 -40 15 -73 32
-72 38 0 15 189 105 214 103 18 -2 21 -13 29 -100z m-544 38 c0 -14 -4 -25
-10 -25 -5 0 -10 11 -10 25 0 14 5 25 10 25 6 0 10 -11 10 -25z m-30 -10 c0
-8 -4 -15 -10 -15 -5 0 -10 7 -10 15 0 8 5 15 10 15 6 0 10 -7 10 -15z m290
-34 l0 -28 -87 1 c-86 1 -88 2 -91 26 -3 25 -2 25 88 27 l90 2 0 -28z m-290
-37 c0 -8 -4 -12 -10 -9 -5 3 -10 13 -10 21 0 8 5 12 10 9 6 -3 10 -13 10 -21z
m21 -1 c-12 -20 -14 -14 -5 12 4 9 9 14 11 11 3 -2 0 -13 -6 -23z m59 -13 c0
-22 -3 -40 -7 -40 -18 1 -28 17 -31 48 -2 26 2 32 18 32 17 0 20 -7 20 -40z"/>
</g>
</svg>
