<?xml version="1.0" standalone="no"?>
<!DOCTYPE svg PUBLIC "-//W3C//DTD SVG 20010904//EN"
 "http://www.w3.org/TR/2001/REC-SVG-20010904/DTD/svg10.dtd">
<svg version="1.0" xmlns="http://www.w3.org/2000/svg"
 width="77.000000pt" height="58.000000pt" viewBox="0 0 77.000000 58.000000"
 preserveAspectRatio="xMidYMid meet">
<metadata>
Created by potrace 1.16, written by Peter Selinger 2001-2019
</metadata>
<g transform="translate(0.000000,58.000000) scale(0.100000,-0.100000)"
fill="#000000" stroke="none">
<path d="M362 488 c-5 -7 -22 -40 -38 -73 -15 -33 -37 -73 -48 -88 l-21 -29
30 -25 c17 -14 52 -46 78 -70 41 -38 46 -47 33 -56 -24 -20 -88 -109 -81 -115
8 -8 105 89 105 105 0 20 5 17 66 -47 31 -33 61 -57 65 -54 10 6 -70 124 -83
124 -4 0 -8 18 -8 39 0 39 1 40 43 45 23 3 70 7 105 9 61 3 62 3 62 -22 0 -14
4 -33 10 -41 8 -13 9 -13 14 0 12 38 14 148 3 159 -6 6 -46 11 -97 11 -129 0
-132 2 -129 68 2 47 0 56 -17 62 -30 11 -34 3 -34 -61 0 -51 -3 -59 -18 -59
-10 0 -22 -3 -25 -7 -11 -10 13 -33 34 -33 17 0 19 -8 19 -75 0 -41 -3 -75 -6
-75 -6 0 -26 21 -96 103 -27 30 -23 45 32 126 27 40 47 77 44 82 -8 13 -30 11
-42 -3z m308 -177 c0 -22 -6 -30 -22 -34 -38 -8 -176 -8 -181 0 -3 5 -3 20 0
36 l5 27 99 0 99 0 0 -29z"/>
<path d="M187 250 c-26 -21 -53 -40 -59 -42 -6 -2 -9 -9 -7 -16 3 -7 23 -2 60
16 76 37 92 51 78 68 -16 19 -18 18 -72 -26z"/>
</g>
</svg>
