<?xml version="1.0" standalone="no"?>
<!DOCTYPE svg PUBLIC "-//W3C//DTD SVG 20010904//EN"
 "http://www.w3.org/TR/2001/REC-SVG-20010904/DTD/svg10.dtd">
<svg version="1.0" xmlns="http://www.w3.org/2000/svg"
 width="115.000000pt" height="70.000000pt" viewBox="0 0 115.000000 70.000000"
 preserveAspectRatio="xMidYMid meet">
<metadata>
Created by potrace 1.16, written by Peter Selinger 2001-2019
</metadata>
<g transform="translate(0.000000,70.000000) scale(0.100000,-0.100000)"
fill="#000000" stroke="none">
<path d="M871 598 c-28 -40 -69 -101 -91 -135 l-40 -63 -52 0 c-29 1 -72 5
-95 9 -50 10 -58 5 -66 -36 -8 -41 3 -164 14 -157 5 3 9 15 9 27 0 14 7 23 18
24 179 17 194 16 275 -16 43 -17 84 -31 93 -31 13 0 14 26 9 217 -3 120 -9
221 -14 226 -4 4 -31 -25 -60 -65z m45 -155 c-3 -103 -8 -188 -10 -190 -2 -2
-43 12 -91 32 -70 29 -92 35 -109 26 -12 -5 -49 -13 -83 -16 -69 -8 -69 -8
-57 55 l7 32 86 -3 c48 -2 92 1 99 5 7 4 26 35 44 69 33 67 105 177 115 177 3
0 3 -84 -1 -187z"/>
<path d="M265 630 c-7 -11 23 -57 50 -80 14 -12 12 -17 -22 -53 -21 -21 -48
-43 -60 -48 -28 -10 -29 -25 -5 -38 10 -5 31 -28 47 -51 l28 -40 -82 -76 c-81
-75 -94 -97 -67 -107 10 -4 39 24 84 82 39 48 100 115 136 149 58 54 65 65 56
82 -6 11 -15 20 -20 20 -6 0 -35 38 -66 85 -57 84 -67 94 -79 75z m107 -151
c24 -32 19 -50 -26 -103 l-33 -40 -28 42 -28 42 34 45 c38 50 53 52 81 14z"/>
</g>
</svg>
