<?xml version="1.0" standalone="no"?>
<!DOCTYPE svg PUBLIC "-//W3C//DTD SVG 20010904//EN"
 "http://www.w3.org/TR/2001/REC-SVG-20010904/DTD/svg10.dtd">
<svg version="1.0" xmlns="http://www.w3.org/2000/svg"
 width="40.000000pt" height="29.000000pt" viewBox="0 0 40.000000 29.000000"
 preserveAspectRatio="xMidYMid meet">
<metadata>
Created by potrace 1.16, written by Peter Selinger 2001-2019
</metadata>
<g transform="translate(0.000000,29.000000) scale(0.100000,-0.100000)"
fill="#000000" stroke="none">
<path d="M175 226 c-41 -18 -85 -71 -85 -103 0 -33 24 -25 28 10 4 30 54 77
82 77 10 0 30 -4 44 -10 21 -8 26 -16 26 -44 0 -27 -5 -35 -24 -40 -13 -3 -38
-3 -55 0 -36 7 -43 -11 -8 -19 26 -7 95 7 109 21 6 6 8 26 4 47 -5 26 -16 41
-39 55 -37 23 -42 24 -82 6z"/>
</g>
</svg>
