<?xml version="1.0" standalone="no"?>
<!DOCTYPE svg PUBLIC "-//W3C//DTD SVG 20010904//EN"
 "http://www.w3.org/TR/2001/REC-SVG-20010904/DTD/svg10.dtd">
<svg version="1.0" xmlns="http://www.w3.org/2000/svg"
 width="120.000000pt" height="62.000000pt" viewBox="0 0 120.000000 62.000000"
 preserveAspectRatio="xMidYMid meet">
<metadata>
Created by potrace 1.16, written by Peter Selinger 2001-2019
</metadata>
<g transform="translate(0.000000,62.000000) scale(0.100000,-0.100000)"
fill="#000000" stroke="none">
<path d="M270 472 c0 -5 9 -17 20 -27 29 -26 25 -39 -20 -75 -22 -17 -40 -39
-40 -48 0 -9 19 -35 42 -59 l41 -42 -41 -45 c-23 -25 -42 -51 -42 -58 1 -7 41
30 90 82 l89 94 95 4 96 4 1 -33 c4 -85 11 -95 18 -25 8 83 31 88 31 6 0 -79
23 -79 28 -1 4 66 26 64 30 -2 4 -63 22 -60 22 4 0 47 2 50 23 47 17 -2 23
-11 27 -37 4 -29 7 -32 18 -19 7 9 10 23 6 32 -7 19 4 20 113 6 115 -15 123
-18 123 -40 0 -25 20 -27 21 -2 0 9 4 43 8 75 5 43 4 61 -6 69 -15 12 -44 -6
-40 -25 4 -19 -100 -28 -318 -26 -333 2 -299 -3 -333 49 -16 25 -37 57 -46 73
-15 25 -56 39 -56 19z m91 -113 c23 -32 21 -43 -16 -93 -14 -18 -16 -19 -34
-2 -11 10 -25 31 -32 48 -11 28 -10 31 17 54 16 13 32 23 36 24 4 0 17 -14 29
-31z m673 -45 c4 -9 4 -19 2 -22 -3 -2 -42 -1 -88 3 -46 5 -78 10 -73 12 9 3
107 18 141 22 7 0 15 -6 18 -15z"/>
</g>
</svg>
