<?xml version="1.0" standalone="no"?>
<!DOCTYPE svg PUBLIC "-//W3C//DTD SVG 20010904//EN"
 "http://www.w3.org/TR/2001/REC-SVG-20010904/DTD/svg10.dtd">
<svg version="1.0" xmlns="http://www.w3.org/2000/svg"
 width="102.000000pt" height="96.000000pt" viewBox="0 0 102.000000 96.000000"
 preserveAspectRatio="xMidYMid meet">
<metadata>
Created by potrace 1.16, written by Peter Selinger 2001-2019
</metadata>
<g transform="translate(0.000000,96.000000) scale(0.100000,-0.100000)"
fill="#000000" stroke="none">
<path d="M720 865 c-13 -16 -12 -19 9 -34 13 -9 42 -33 66 -54 64 -56 62 -31
-4 42 -52 58 -58 62 -71 46z"/>
<path d="M395 860 c-4 -6 -11 -8 -16 -5 -5 4 -9 2 -9 -4 0 -6 -44 -36 -97 -67
-54 -32 -100 -59 -102 -60 -2 -2 2 -10 9 -19 8 -10 9 -15 1 -15 -6 0 -11 -5
-11 -11 0 -20 54 -99 68 -99 6 0 12 -3 12 -7 0 -5 16 -19 35 -31 42 -30 74
-24 142 24 26 19 55 34 64 34 9 0 49 -16 88 -36 40 -20 75 -34 78 -31 2 3 -6
12 -19 20 -89 54 -128 80 -128 84 0 3 8 12 17 19 10 7 15 16 11 20 -5 4 -16 0
-26 -9 -10 -10 -26 -17 -36 -17 -9 0 -21 -11 -25 -24 -13 -33 -82 -59 -138
-51 -32 4 -52 14 -73 38 -16 18 -26 35 -22 39 9 8 374 51 403 46 l21 -3 -21
-24 c-12 -13 -18 -27 -15 -30 3 -3 19 9 35 27 25 27 33 31 45 22 11 -10 14 -9
14 4 0 9 6 16 13 15 6 -1 24 -1 40 0 39 2 33 21 -7 21 -34 0 -57 24 -33 34 8
3 7 5 -2 5 -8 1 -20 9 -28 19 -14 16 -14 16 -10 -3 3 -11 6 -26 8 -34 8 -28
-17 -20 -28 9 -6 16 -16 30 -22 30 -16 0 -14 -15 4 -30 44 -36 13 -42 -295
-56 l-125 -5 35 32 c19 17 59 47 88 65 l52 35 43 -29 c23 -17 51 -39 61 -51
22 -25 45 -29 25 -5 -12 15 -7 23 40 65 58 52 66 74 12 35 -18 -13 -46 -30
-62 -36 -28 -12 -32 -11 -63 24 -36 39 -41 41 -51 26z"/>
<path d="M820 714 c-8 -8 -40 -33 -72 -56 -60 -42 -71 -61 -41 -73 12 -4 24 1
34 14 13 15 18 17 22 7 7 -17 136 -81 145 -71 4 4 2 10 -4 12 -6 2 -39 23 -72
47 l-61 43 39 38 c22 22 40 43 40 47 0 13 -17 9 -30 -8z"/>
<path d="M526 301 c-4 -5 -2 -12 3 -15 5 -4 12 -2 15 3 4 5 2 12 -3 15 -5 4
-12 2 -15 -3z"/>
<path d="M355 277 c-16 -5 -73 -17 -125 -26 -69 -12 -95 -21 -95 -31 0 -11 9
-14 33 -12 23 1 32 -2 32 -13 0 -8 7 -15 15 -15 8 0 15 9 15 21 0 11 5 17 10
14 6 -3 17 1 26 9 20 21 38 20 30 0 -3 -9 -6 -18 -6 -20 0 -3 -4 -3 -9 1 -5 3
-13 0 -17 -6 -5 -9 -1 -10 14 -6 12 4 32 9 45 12 l22 6 -22 -12 c-26 -14 -29
-29 -10 -48 10 -10 8 -15 -8 -27 -15 -11 -17 -18 -9 -32 23 -36 101 -46 199
-25 11 2 46 9 78 15 71 14 74 29 5 26 -29 -1 -62 2 -73 7 -17 8 -18 7 -7 -7
11 -14 9 -17 -15 -22 -58 -11 -135 -1 -150 19 -8 12 -10 21 -4 23 7 2 7 12 0
28 -13 35 -12 37 17 30 22 -6 25 -4 22 16 -2 12 -14 29 -28 36 -23 13 -21 13
25 8 50 -6 105 -44 105 -73 0 -7 7 -13 15 -13 8 0 15 5 15 10 0 6 -4 10 -10
10 -5 0 -10 6 -10 14 0 8 -6 16 -12 19 -7 2 -10 7 -7 11 3 3 38 -3 77 -13 80
-21 95 -14 30 13 -24 9 -54 22 -68 28 -14 7 -28 11 -32 10 -4 -1 -24 4 -45 12
-27 9 -47 10 -68 3z"/>
<path d="M520 260 c0 -5 5 -10 11 -10 5 0 7 5 4 10 -3 6 -8 10 -11 10 -2 0 -4
-4 -4 -10z"/>
<path d="M570 259 c0 -5 9 -9 20 -9 11 0 20 2 20 4 0 2 -9 6 -20 9 -11 3 -20
1 -20 -4z"/>
<path d="M680 255 c-10 -13 -9 -15 9 -15 19 0 20 -2 9 -20 -10 -16 -15 -17
-28 -6 -8 7 -21 11 -29 8 -8 -2 -11 0 -7 6 3 6 2 13 -4 17 -5 3 -10 0 -10 -7
0 -23 16 -39 33 -32 11 4 17 1 17 -9 0 -9 5 -19 12 -23 6 -4 8 -3 5 4 -5 6 2
6 17 -1 l25 -12 -25 -13 c-20 -11 -23 -16 -14 -32 12 -22 35 -28 27 -7 -3 9
24 28 80 56 84 41 110 67 39 37 -20 -8 -36 -13 -36 -10 0 2 -11 -3 -25 -12
-16 -10 -25 -12 -25 -5 0 6 8 15 18 18 9 4 19 10 22 13 3 4 23 17 45 28 50 26
25 28 -32 2 -27 -12 -42 -15 -40 -7 1 6 -8 13 -20 15 -13 2 -23 8 -23 13 0 14
-26 11 -40 -6z m56 -40 c-23 -17 -36 -19 -36 -6 0 5 8 12 18 14 32 9 37 6 18
-8z"/>
<path d="M400 200 c-10 -18 -9 -24 1 -31 8 -5 10 -9 5 -9 -5 0 -3 -7 4 -15 7
-8 18 -15 24 -14 7 0 7 2 -1 6 -9 3 -9 9 -1 22 9 14 7 23 -5 41 l-15 22 -12
-22z"/>
<path d="M580 176 c0 -8 -5 -16 -11 -18 -7 -2 -10 -10 -8 -17 3 -8 12 -4 27
12 20 21 21 25 8 30 -10 4 -16 1 -16 -7z"/>
<path d="M124 158 c-13 -20 11 -29 65 -24 31 3 65 5 75 6 12 0 16 3 10 9 -12
12 -144 19 -150 9z"/>
<path d="M642 144 c-7 -8 -8 -14 -3 -14 10 0 25 19 20 25 -2 1 -10 -3 -17 -11z"/>
<path d="M789 153 c-1 -4 -1 -11 0 -15 0 -5 -6 -8 -14 -8 -8 0 -15 -4 -15 -10
0 -17 25 -11 37 10 8 12 9 21 3 25 -6 3 -11 3 -11 -2z"/>
<path d="M510 140 c0 -5 5 -10 10 -10 6 0 10 5 10 10 0 6 -4 10 -10 10 -5 0
-10 -4 -10 -10z"/>
<path d="M260 110 c-6 -12 -9 -24 -7 -27 3 -2 11 5 17 17 6 12 9 24 7 27 -3 2
-11 -5 -17 -17z"/>
<path d="M376 112 c-3 -6 1 -13 10 -16 23 -9 28 -2 10 13 -8 7 -17 8 -20 3z"/>
<path d="M645 110 c-3 -5 -1 -10 4 -10 6 0 11 5 11 10 0 6 -2 10 -4 10 -3 0
-8 -4 -11 -10z"/>
<path d="M610 70 c0 -5 7 -10 15 -10 8 0 15 5 15 10 0 6 -7 10 -15 10 -8 0
-15 -4 -15 -10z"/>
<path d="M640 39 c0 -5 5 -7 10 -4 6 3 10 8 10 11 0 2 -4 4 -10 4 -5 0 -10 -5
-10 -11z"/>
</g>
</svg>
