<?xml version="1.0" standalone="no"?>
<!DOCTYPE svg PUBLIC "-//W3C//DTD SVG 20010904//EN"
 "http://www.w3.org/TR/2001/REC-SVG-20010904/DTD/svg10.dtd">
<svg version="1.0" xmlns="http://www.w3.org/2000/svg"
 width="59.000000pt" height="50.000000pt" viewBox="0 0 59.000000 50.000000"
 preserveAspectRatio="xMidYMid meet">
<metadata>
Created by potrace 1.16, written by Peter Selinger 2001-2019
</metadata>
<g transform="translate(0.000000,50.000000) scale(0.100000,-0.100000)"
fill="#000000" stroke="none">
<path d="M420 450 c0 -5 -36 -28 -81 -50 -89 -45 -78 -46 -152 13 -33 26 -57
29 -57 7 0 -5 20 -21 45 -36 25 -14 45 -30 45 -34 0 -5 -24 -20 -54 -33 -48
-22 -53 -28 -49 -51 4 -17 23 -37 59 -61 30 -20 54 -40 54 -44 0 -5 -36 -25
-80 -45 -75 -34 -100 -56 -64 -56 9 0 52 20 96 45 l79 44 65 -50 c75 -60 87
-50 14 11 -27 23 -50 45 -50 49 0 7 101 71 113 71 4 0 7 -40 7 -89 0 -50 4
-92 9 -95 9 -6 23 139 23 239 0 33 5 79 10 103 8 31 7 46 -2 57 -14 17 -30 20
-30 5z m-1 -121 c1 -70 -12 -74 -81 -26 l-59 41 63 32 c72 35 76 32 77 -47z
m-92 -35 c26 -20 52 -40 56 -44 4 -4 -20 -21 -53 -39 -34 -18 -63 -31 -66 -29
-2 3 -5 30 -6 61 -2 32 -7 56 -13 55 -6 -2 -9 -27 -7 -56 3 -59 4 -59 -66 0
-35 29 -39 38 -19 39 6 0 28 11 47 24 48 33 71 31 127 -11z"/>
<path d="M497 402 c-3 -4 -6 -48 -7 -97 -1 -103 13 -257 22 -235 4 8 9 88 12
178 5 136 3 162 -9 162 -7 0 -16 -3 -18 -8z"/>
</g>
</svg>
