<?xml version="1.0" standalone="no"?>
<!DOCTYPE svg PUBLIC "-//W3C//DTD SVG 20010904//EN"
 "http://www.w3.org/TR/2001/REC-SVG-20010904/DTD/svg10.dtd">
<svg version="1.0" xmlns="http://www.w3.org/2000/svg"
 width="178.000000pt" height="66.000000pt" viewBox="0 0 178.000000 66.000000"
 preserveAspectRatio="xMidYMid meet">
<metadata>
Created by potrace 1.16, written by Peter Selinger 2001-2019
</metadata>
<g transform="translate(0.000000,66.000000) scale(0.100000,-0.100000)"
fill="#000000" stroke="none">
<path d="M306 602 c-6 -10 31 -47 54 -54 10 -3 6 -10 -15 -24 -139 -89 -218
-161 -187 -172 14 -4 154 -86 214 -125 58 -38 71 -37 79 7 3 15 14 18 70 20
63 1 65 0 61 -22 -5 -24 -46 -32 -55 -9 -4 9 -8 8 -16 -3 -9 -13 -11 -13 -11
3 0 9 -4 17 -9 17 -11 0 -21 -49 -14 -67 6 -16 23 -17 23 -2 0 8 5 8 15 -1 8
-7 15 -8 15 -2 0 14 43 23 51 11 5 -8 9 -8 13 0 4 6 37 11 77 11 39 0 69 4 69
10 0 6 -9 10 -19 10 -14 0 -18 5 -14 20 3 11 0 20 -6 20 -6 0 -11 -9 -11 -20
0 -30 -37 -26 -42 5 -5 23 -2 25 32 25 32 0 41 -5 58 -33 33 -56 189 -132 335
-163 80 -16 117 -18 117 -4 0 6 -16 10 -36 10 -90 0 -268 64 -349 126 -34 26
-35 28 -35 100 l0 73 31 -29 c17 -15 52 -33 78 -40 82 -21 100 -31 160 -93 60
-62 60 -62 93 -48 58 23 78 24 98 6 10 -9 24 -14 29 -10 18 10 13 19 -19 33
-17 8 -62 45 -101 84 -66 65 -142 113 -161 102 -14 -9 1 -22 40 -35 52 -16
128 -79 110 -91 -10 -6 -7 -14 15 -31 l27 -23 -37 -13 c-36 -14 -37 -13 -70
25 -74 86 -82 91 -142 108 -34 9 -67 24 -74 33 -6 8 -24 29 -39 45 -24 25 -28
38 -28 90 0 49 3 59 15 54 8 -3 56 -8 107 -12 62 -4 116 -14 162 -32 64 -23
116 -61 116 -84 0 -17 79 -117 112 -141 45 -34 115 -72 162 -87 22 -7 50 -26
64 -41 23 -28 101 -59 149 -59 37 0 27 17 -14 24 -55 10 -96 28 -111 48 -7 10
-60 42 -118 70 -95 47 -108 57 -152 115 -86 116 -113 146 -146 164 -38 20
-167 49 -223 49 -57 1 -113 16 -127 36 -7 9 -18 14 -25 10 -6 -4 -79 -10 -163
-12 -100 -4 -161 -10 -178 -19 -25 -13 -29 -12 -63 16 -19 16 -38 25 -41 21z
m394 -63 c0 -36 -21 -35 -31 2 -6 24 -8 22 -22 -21 -3 -8 -6 0 -6 18 -1 29 2
32 29 32 27 0 30 -3 30 -31z m-220 -4 c0 -16 -6 -25 -15 -25 -15 0 -21 31 -8
43 13 14 23 6 23 -18z m92 -5 c-5 -36 -22 -40 -22 -5 0 14 -4 25 -10 25 -5 0
-10 -9 -10 -20 0 -11 -7 -20 -15 -20 -9 0 -15 9 -15 25 0 22 4 25 38 25 37 0
38 -1 34 -30z m38 -1 c0 -17 -4 -28 -10 -24 -5 3 -10 17 -10 31 0 13 5 24 10
24 6 0 10 -14 10 -31z m138 3 c2 -15 -2 -22 -12 -22 -11 0 -16 9 -16 26 0 31
23 28 28 -4z m-320 -76 c-3 -26 -7 -31 -33 -34 -33 -3 -171 -31 -195 -40 -21
-8 85 84 135 116 77 51 79 51 88 19 4 -16 7 -43 5 -61z m322 -47 l0 -80 -57
37 c-32 20 -74 50 -94 65 -20 16 -41 29 -47 29 -5 0 -21 -15 -36 -34 -26 -35
-33 -52 -17 -42 14 9 41 -4 41 -20 0 -8 6 -11 17 -7 13 5 15 2 10 -11 -6 -14
-3 -17 9 -12 15 6 53 -9 64 -24 3 -4 16 -11 30 -15 21 -7 23 -6 13 6 -7 9 -8
20 -3 28 7 12 13 12 39 1 31 -13 41 -37 19 -45 -7 -2 -75 -6 -152 -10 l-138
-6 4 31 c3 16 1 30 -4 30 -4 0 -6 10 -4 23 3 12 5 47 5 77 l1 55 150 2 150 2
0 -80z m-170 11 c0 -11 -30 -21 -41 -14 -15 9 10 34 27 27 8 -3 14 -9 14 -13z
m11 -43 c-8 -8 -11 -7 -11 4 0 9 3 19 7 23 4 4 9 2 11 -4 3 -7 -1 -17 -7 -23z
m-207 7 c9 -22 -3 -32 -15 -14 -8 13 -10 13 -19 0 -8 -13 -10 -13 -10 2 0 14
12 25 31 27 4 1 10 -6 13 -15z m46 -80 l0 -96 -27 18 c-101 65 -133 88 -133
94 0 10 117 23 130 15 6 -3 11 0 11 7 2 18 1 21 -6 41 -5 12 -2 17 9 17 14 0
16 -15 16 -96z m237 43 c-5 -17 -21 -18 -42 -4 -11 9 -16 20 -12 31 6 16 8 16
32 0 14 -9 24 -22 22 -27z m-339 15 c2 -7 -3 -12 -12 -12 -9 0 -16 7 -16 16 0
17 22 14 28 -4z m-83 -3 c10 -15 -1 -23 -20 -15 -9 3 -13 10 -10 16 8 13 22
13 30 -1z m385 -124 c0 -16 -6 -25 -15 -25 -9 0 -15 9 -15 25 0 16 6 25 15 25
9 0 15 -9 15 -25z"/>
</g>
</svg>
