<?xml version="1.0" standalone="no"?>
<!DOCTYPE svg PUBLIC "-//W3C//DTD SVG 20010904//EN"
 "http://www.w3.org/TR/2001/REC-SVG-20010904/DTD/svg10.dtd">
<svg version="1.0" xmlns="http://www.w3.org/2000/svg"
 width="70.000000pt" height="44.000000pt" viewBox="0 0 70.000000 44.000000"
 preserveAspectRatio="xMidYMid meet">
<metadata>
Created by potrace 1.16, written by Peter Selinger 2001-2019
</metadata>
<g transform="translate(0.000000,44.000000) scale(0.100000,-0.100000)"
fill="#000000" stroke="none">
<path d="M417 328 c-13 -18 -32 -48 -43 -65 l-18 -33 27 -28 c26 -27 26 -28 9
-57 -31 -52 -25 -61 47 -80 39 -10 51 -10 51 -1 0 6 22 32 49 57 86 80 87 102
6 160 -25 18 -52 43 -60 56 -21 31 -40 29 -68 -9z m85 -41 c60 -46 63 -84 12
-151 -33 -44 -39 -47 -67 -42 -49 10 -54 22 -23 55 27 28 27 30 9 39 -10 6
-25 22 -32 35 -12 23 -11 29 14 61 15 20 31 36 35 36 5 0 28 -15 52 -33z"/>
<path d="M182 341 c-8 -5 -10 -42 -5 -139 3 -72 9 -129 13 -127 4 3 11 29 14
59 8 61 15 66 104 66 33 0 51 4 47 10 -3 6 -38 10 -77 10 l-71 0 6 54 c6 56
-6 83 -31 67z"/>
<path d="M116 318 c-1 -7 -10 -36 -20 -65 l-16 -51 32 -61 c47 -87 62 -81 33
15 -19 61 -19 113 0 138 8 10 12 23 9 27 -8 13 -34 11 -38 -3z"/>
</g>
</svg>
