<?xml version="1.0" standalone="no"?>
<!DOCTYPE svg PUBLIC "-//W3C//DTD SVG 20010904//EN"
 "http://www.w3.org/TR/2001/REC-SVG-20010904/DTD/svg10.dtd">
<svg version="1.0" xmlns="http://www.w3.org/2000/svg"
 width="38.000000pt" height="73.000000pt" viewBox="0 0 38.000000 73.000000"
 preserveAspectRatio="xMidYMid meet">
<metadata>
Created by potrace 1.16, written by Peter Selinger 2001-2019
</metadata>
<g transform="translate(0.000000,73.000000) scale(0.100000,-0.100000)"
fill="#000000" stroke="none">
<path d="M175 603 c-27 -81 -63 -159 -80 -173 -12 -10 -6 -22 37 -76 51 -63
88 -90 50 -36 -11 15 -29 45 -40 68 l-20 40 34 80 c18 43 41 91 49 106 18 32
19 48 2 48 -7 0 -21 -26 -32 -57z"/>
<path d="M213 323 c-3 -10 -24 -55 -46 -101 l-41 -82 54 -55 c30 -30 56 -53
58 -51 4 4 -33 69 -64 112 -13 20 -11 27 26 97 22 42 40 81 40 87 0 17 -20 11
-27 -7z"/>
</g>
</svg>
