<?xml version="1.0" standalone="no"?>
<!DOCTYPE svg PUBLIC "-//W3C//DTD SVG 20010904//EN"
 "http://www.w3.org/TR/2001/REC-SVG-20010904/DTD/svg10.dtd">
<svg version="1.0" xmlns="http://www.w3.org/2000/svg"
 width="44.000000pt" height="45.000000pt" viewBox="0 0 44.000000 45.000000"
 preserveAspectRatio="xMidYMid meet">
<metadata>
Created by potrace 1.16, written by Peter Selinger 2001-2019
</metadata>
<g transform="translate(0.000000,45.000000) scale(0.100000,-0.100000)"
fill="#000000" stroke="none">
<path d="M70 340 c-18 -14 -19 -23 -13 -117 3 -56 9 -100 13 -98 4 3 65 7 136
10 l129 5 5 101 c6 117 19 107 -142 111 -84 3 -112 0 -128 -12z m231 -20 c5 0
9 -34 9 -75 l0 -75 -32 -1 c-18 -1 -70 -2 -115 -3 l-83 -1 0 55 c0 99 0 99 99
102 47 2 92 2 99 1 8 -2 18 -3 23 -3z"/>
<path d="M153 302 c-7 -5 -11 -27 -10 -55 l2 -47 38 0 c50 0 96 24 97 51 0 4
-12 18 -26 33 -27 26 -75 35 -101 18z m85 -25 c17 -13 15 -44 -4 -51 -27 -10
-31 -7 -27 18 3 13 0 27 -6 30 -6 4 -11 11 -11 16 0 10 28 3 48 -13z"/>
</g>
</svg>
