<?xml version="1.0" standalone="no"?>
<!DOCTYPE svg PUBLIC "-//W3C//DTD SVG 20010904//EN"
 "http://www.w3.org/TR/2001/REC-SVG-20010904/DTD/svg10.dtd">
<svg version="1.0" xmlns="http://www.w3.org/2000/svg"
 width="111.000000pt" height="42.000000pt" viewBox="0 0 111.000000 42.000000"
 preserveAspectRatio="xMidYMid meet">
<metadata>
Created by potrace 1.16, written by Peter Selinger 2001-2019
</metadata>
<g transform="translate(0.000000,42.000000) scale(0.100000,-0.100000)"
fill="#000000" stroke="none">
<path d="M57 333 c-3 -5 -7 -29 -11 -54 -5 -35 -3 -49 8 -58 18 -15 129 -16
153 -2 21 12 18 14 -47 16 -66 2 -89 23 -73 64 6 17 8 32 5 35 -8 8 -30 7 -35
-1z"/>
<path d="M225 331 c-3 -6 -3 -15 0 -21 3 -5 6 -46 6 -90 0 -63 4 -82 16 -89
16 -8 110 -5 162 5 38 8 14 18 -35 15 -25 -1 -62 0 -82 4 -37 6 -37 7 -34 47
3 22 7 36 11 31 7 -11 151 -4 151 7 0 4 -36 11 -81 15 l-80 7 3 36 c2 28 -1
38 -14 40 -9 2 -19 -2 -23 -7z"/>
<path d="M650 322 c0 -9 77 -62 90 -62 4 0 13 -7 20 -15 7 -8 9 -15 6 -15 -15
0 -102 54 -117 74 l-17 20 -88 -27 c-49 -15 -95 -27 -101 -27 -7 0 -13 -7 -13
-15 0 -8 4 -15 9 -15 5 0 8 -23 8 -52 -2 -50 -1 -52 30 -60 41 -11 141 6 106
17 -20 6 -23 14 -23 61 0 30 -4 54 -8 54 -20 0 -29 -25 -24 -66 4 -35 1 -44
-10 -44 -27 0 -41 27 -34 65 6 29 14 38 53 55 70 31 73 29 75 -42 3 -122 0
-113 38 -113 19 0 51 3 70 7 19 4 85 11 145 17 61 6 120 13 132 17 17 5 22 1
25 -18 3 -19 6 -16 16 17 18 60 16 97 -5 93 -14 -3 -18 -12 -16 -40 l2 -36
-107 -6 c-59 -4 -134 -11 -168 -16 -93 -15 -104 -14 -104 14 0 19 8 25 43 35
23 6 56 11 72 10 17 -1 54 3 84 10 29 6 76 11 102 11 30 0 49 4 49 11 0 8 -25
10 -89 5 l-89 -7 -55 35 c-31 20 -58 40 -62 46 -7 12 -45 14 -45 2z m40 -77
c11 -13 8 -15 -14 -15 -16 0 -26 5 -26 15 0 8 6 15 14 15 7 0 19 -7 26 -15z"/>
</g>
</svg>
