<?xml version="1.0" standalone="no"?>
<!DOCTYPE svg PUBLIC "-//W3C//DTD SVG 20010904//EN"
 "http://www.w3.org/TR/2001/REC-SVG-20010904/DTD/svg10.dtd">
<svg version="1.0" xmlns="http://www.w3.org/2000/svg"
 width="78.000000pt" height="54.000000pt" viewBox="0 0 78.000000 54.000000"
 preserveAspectRatio="xMidYMid meet">
<metadata>
Created by potrace 1.16, written by Peter Selinger 2001-2019
</metadata>
<g transform="translate(0.000000,54.000000) scale(0.100000,-0.100000)"
fill="#000000" stroke="none">
<path d="M158 453 c7 -3 16 -2 19 1 4 3 -2 6 -13 5 -11 0 -14 -3 -6 -6z"/>
<path d="M197 444 c-7 -7 -1 -141 10 -244 4 -41 8 -50 14 -35 4 11 8 40 8 65
l1 45 58 1 57 1 35 -70 c19 -39 41 -73 49 -75 15 -5 15 -4 -19 93 -16 44 -20
74 -16 114 2 29 7 55 9 57 6 6 104 -46 117 -61 8 -9 -4 -14 -50 -19 -72 -8
-98 -32 -30 -27 9 0 6 -4 -6 -10 -15 -8 -20 -17 -16 -35 5 -28 13 -29 102 -10
l65 14 -34 -29 c-19 -16 -49 -35 -68 -44 -18 -9 -33 -20 -33 -25 0 -26 178 74
197 111 10 19 9 27 -4 41 -9 10 -23 18 -32 18 -9 0 -52 24 -96 54 -44 30 -84
51 -90 48 -5 -4 -19 -7 -30 -7 -17 0 -21 -8 -25 -55 -3 -30 -8 -54 -12 -52 -5
1 -35 2 -69 2 l-61 0 7 56 c7 63 -12 103 -38 78z m366 -141 c-7 -2 -19 -2 -25
0 -7 3 -2 5 12 5 14 0 19 -2 13 -5z m-60 -10 c-7 -2 -19 -2 -25 0 -7 3 -2 5
12 5 14 0 19 -2 13 -5z m84 -9 c-3 -3 -12 -4 -19 -1 -8 3 -5 6 6 6 11 1 17 -2
13 -5z m-50 -30 c-3 -3 -12 -4 -19 -1 -8 3 -5 6 6 6 11 1 17 -2 13 -5z"/>
<path d="M135 419 c-5 -13 -18 -41 -31 -61 -37 -58 -38 -80 -10 -134 14 -27
30 -62 36 -78 19 -52 20 -21 3 81 -19 109 -21 97 32 169 7 10 5 19 -7 30 -15
15 -17 14 -23 -7z"/>
</g>
</svg>
