<?xml version="1.0" standalone="no"?>
<!DOCTYPE svg PUBLIC "-//W3C//DTD SVG 20010904//EN"
 "http://www.w3.org/TR/2001/REC-SVG-20010904/DTD/svg10.dtd">
<svg version="1.0" xmlns="http://www.w3.org/2000/svg"
 width="40.000000pt" height="42.000000pt" viewBox="0 0 40.000000 42.000000"
 preserveAspectRatio="xMidYMid meet">
<metadata>
Created by potrace 1.16, written by Peter Selinger 2001-2019
</metadata>
<g transform="translate(0.000000,42.000000) scale(0.100000,-0.100000)"
fill="#000000" stroke="none">
<path d="M47 327 c-14 -10 -14 -20 -5 -61 7 -36 7 -55 -1 -68 -16 -25 2 -64
39 -83 21 -11 59 -17 113 -17 45 -1 89 -5 99 -9 22 -12 25 -1 27 128 2 100 0
112 -16 116 -37 11 -240 6 -256 -6z m235 -60 c4 -27 8 -70 10 -95 l2 -47 -64
-3 c-80 -4 -98 1 -133 33 -25 24 -27 31 -23 88 l4 62 64 6 c34 3 79 6 98 5 34
-1 35 -2 42 -49z"/>
<path d="M113 258 c-6 -7 -8 -30 -6 -50 l5 -38 53 0 c34 0 55 -5 58 -12 7 -20
18 -4 22 33 7 54 -16 79 -74 79 -27 0 -53 -6 -58 -12z m97 -15 c0 -5 3 -18 6
-30 6 -21 3 -23 -35 -23 -43 0 -59 15 -47 45 5 15 76 22 76 8z"/>
</g>
</svg>
