<?xml version="1.0" standalone="no"?>
<!DOCTYPE svg PUBLIC "-//W3C//DTD SVG 20010904//EN"
 "http://www.w3.org/TR/2001/REC-SVG-20010904/DTD/svg10.dtd">
<svg version="1.0" xmlns="http://www.w3.org/2000/svg"
 width="66.000000pt" height="34.000000pt" viewBox="0 0 66.000000 34.000000"
 preserveAspectRatio="xMidYMid meet">
<metadata>
Created by potrace 1.16, written by Peter Selinger 2001-2019
</metadata>
<g transform="translate(0.000000,34.000000) scale(0.100000,-0.100000)"
fill="#000000" stroke="none">
<path d="M342 205 c2 -25 -1 -47 -7 -49 -5 -3 -4 -5 3 -5 8 -1 12 -18 13 -48
0 -36 3 -43 9 -28 5 11 9 32 9 48 1 43 21 32 21 -12 0 -22 5 -43 10 -46 6 -4
10 12 10 39 0 25 5 46 10 46 6 0 10 -16 10 -35 0 -19 5 -35 10 -35 6 0 10 16
10 35 0 19 5 35 10 35 6 0 10 -16 10 -35 0 -19 5 -35 11 -35 7 0 10 14 7 35
-4 35 -4 35 37 35 28 0 36 3 25 9 -8 6 -26 7 -41 4 -25 -5 -26 -3 -25 34 1 34
-1 38 -24 38 -22 0 -25 -5 -28 -37 -4 -49 -20 -49 -24 -1 -2 20 -8 38 -14 40
-6 2 -9 -12 -7 -38 2 -29 0 -40 -9 -37 -7 3 -14 23 -16 46 -2 23 -8 42 -14 42
-6 0 -9 -18 -6 -45z m121 -20 c4 -8 2 -17 -3 -20 -6 -4 -10 3 -10 14 0 25 6
27 13 6z"/>
<path d="M124 205 c-16 -24 -16 -27 1 -45 15 -16 30 -20 79 -19 57 1 139 15
106 18 -155 15 -154 14 -148 46 7 33 -16 33 -38 0z"/>
</g>
</svg>
