<?xml version="1.0" standalone="no"?>
<!DOCTYPE svg PUBLIC "-//W3C//DTD SVG 20010904//EN"
 "http://www.w3.org/TR/2001/REC-SVG-20010904/DTD/svg10.dtd">
<svg version="1.0" xmlns="http://www.w3.org/2000/svg"
 width="81.000000pt" height="46.000000pt" viewBox="0 0 81.000000 46.000000"
 preserveAspectRatio="xMidYMid meet">
<metadata>
Created by potrace 1.16, written by Peter Selinger 2001-2019
</metadata>
<g transform="translate(0.000000,46.000000) scale(0.100000,-0.100000)"
fill="#000000" stroke="none">
<path d="M435 410 c-3 -5 9 -17 27 -26 l32 -16 -27 -20 c-24 -18 -38 -58 -19
-58 4 0 13 -4 21 -9 11 -7 9 -13 -9 -31 l-21 -21 -49 45 c-27 25 -55 46 -63
46 -7 0 -42 -14 -78 -31 -35 -17 -88 -42 -117 -55 -46 -20 -52 -26 -52 -53 0
-16 -5 -33 -10 -36 -19 -11 -10 -34 17 -48 35 -17 208 -23 218 -8 4 7 -10 11
-43 11 l-49 0 1 74 1 75 48 21 c27 12 51 20 53 17 3 -3 7 -52 7 -109 l2 -103
35 3 c98 7 356 47 362 57 4 5 8 32 8 59 0 45 -1 48 -22 43 -69 -17 -230 -39
-244 -33 -15 6 -15 9 6 31 13 14 30 25 39 25 10 0 6 9 -14 30 l-28 30 27 21
28 22 -23 19 c-40 31 -57 39 -64 28z m-33 -174 c41 -34 47 -46 21 -46 -21 0
-83 58 -83 78 0 16 10 10 62 -32z m-218 -46 c-4 -86 -1 -81 -36 -77 -30 3 -33
7 -36 39 -3 31 1 38 30 56 44 27 43 28 42 -18z m186 -1 c0 -5 -4 -9 -10 -9 -5
0 -10 7 -10 16 0 8 5 12 10 9 6 -3 10 -10 10 -16z m328 -11 c3 -29 11 -26
-123 -48 -38 -7 -92 -16 -118 -21 -26 -5 -61 -9 -77 -9 -27 0 -30 3 -30 30 0
27 3 30 33 31 17 0 88 11 157 23 69 13 132 23 140 22 8 -1 16 -13 18 -28z"/>
<path d="M500 410 c0 -6 11 -16 25 -22 14 -6 25 -15 25 -19 0 -4 -11 -16 -25
-27 -31 -24 -31 -36 -2 -57 l22 -16 -22 -19 c-13 -10 -23 -21 -23 -24 0 -12
16 -5 43 20 23 19 26 28 17 39 -9 11 -7 12 9 8 26 -7 26 -11 -1 -40 -16 -18
-18 -23 -6 -23 8 0 23 9 33 20 23 25 35 26 28 2 -4 -16 0 -18 39 -13 l43 6 5
83 c3 46 3 86 1 88 -12 11 -82 3 -87 -11 -5 -13 -8 -13 -21 0 -8 9 -19 12 -25
9 -7 -4 -1 -14 13 -25 l23 -17 -24 -21 c-45 -38 -68 -47 -37 -14 l27 29 -28
27 c-29 28 -52 35 -52 17z m183 -85 c1 -49 -2 -60 -16 -63 -15 -3 -17 6 -17
63 0 56 3 66 16 63 13 -2 17 -16 17 -63z m-55 -5 c3 -33 -8 -39 -28 -15 -10
12 -10 18 0 30 18 22 25 18 28 -15z"/>
</g>
</svg>
