<?xml version="1.0" standalone="no"?>
<!DOCTYPE svg PUBLIC "-//W3C//DTD SVG 20010904//EN"
 "http://www.w3.org/TR/2001/REC-SVG-20010904/DTD/svg10.dtd">
<svg version="1.0" xmlns="http://www.w3.org/2000/svg"
 width="96.000000pt" height="42.000000pt" viewBox="0 0 96.000000 42.000000"
 preserveAspectRatio="xMidYMid meet">
<metadata>
Created by potrace 1.16, written by Peter Selinger 2001-2019
</metadata>
<g transform="translate(0.000000,42.000000) scale(0.100000,-0.100000)"
fill="#000000" stroke="none">
<path d="M340 348 c-1 -71 -10 -242 -14 -245 -8 -8 -63 26 -111 70 l-49 43 25
18 c90 64 132 96 125 96 -7 0 -193 -97 -204 -106 -10 -7 11 -44 25 -44 8 0 55
-25 104 -55 84 -52 92 -55 127 -46 20 5 78 10 127 10 50 1 145 4 211 7 120 4
122 4 129 -18 5 -16 11 7 21 77 9 66 10 103 3 110 -5 5 -55 8 -118 6 -72 -2
-111 1 -115 8 -5 8 -12 6 -22 -4 -12 -12 -41 -15 -130 -15 -111 0 -115 1 -110
20 3 11 8 29 11 39 4 13 -1 23 -15 31 -15 8 -20 8 -20 -2z m484 -130 c3 -17 6
-46 6 -64 l0 -34 -52 0 c-29 0 -77 -3 -105 -6 -44 -6 -53 -4 -53 9 0 13 14 16
92 14 60 -1 93 2 95 9 3 8 -13 12 -44 11 -164 0 -193 12 -46 20 48 2 90 6 92
9 2 2 -39 4 -93 4 -62 0 -95 4 -91 10 3 6 44 10 91 10 49 0 84 4 84 10 0 6
-35 10 -85 10 -106 0 -113 16 -8 19 43 1 79 4 81 6 11 10 30 -10 36 -37z
m-265 17 c-9 -9 -109 -15 -109 -6 0 5 25 9 56 10 31 0 55 -1 53 -4z m38 -1
c-3 -3 -12 -4 -19 -1 -8 3 -5 6 6 6 11 1 17 -2 13 -5z m-217 -34 c0 -5 -4 -10
-10 -10 -5 0 -10 5 -10 10 0 6 5 10 10 10 6 0 10 -4 10 -10z m50 0 c0 -5 -4
-10 -10 -10 -5 0 -10 5 -10 10 0 6 5 10 10 10 6 0 10 -4 10 -10z m50 0 c0 -5
-7 -10 -15 -10 -8 0 -15 5 -15 10 0 6 7 10 15 10 8 0 15 -4 15 -10z m40 0 c0
-5 -4 -10 -10 -10 -5 0 -10 5 -10 10 0 6 5 10 10 10 6 0 10 -4 10 -10z m40 0
c0 -5 -4 -10 -10 -10 -5 0 -10 5 -10 10 0 6 5 10 10 10 6 0 10 -4 10 -10z m40
2 c0 -13 -12 -22 -22 -16 -10 6 -1 24 13 24 5 0 9 -4 9 -8z m-120 -43 c0 -5
-7 -9 -15 -9 -8 0 -15 7 -15 15 0 9 6 12 15 9 8 -4 15 -10 15 -15z m40 6 c0
-8 -4 -15 -10 -15 -5 0 -10 7 -10 15 0 8 5 15 10 15 6 0 10 -7 10 -15z m-140
-5 c0 -5 -6 -10 -12 -10 -7 0 -5 -5 5 -11 19 -11 14 -29 -9 -29 -9 0 -14 11
-14 30 0 20 5 30 15 30 8 0 15 -4 15 -10z m45 0 c-3 -5 -10 -10 -16 -10 -5 0
-9 5 -9 10 0 6 7 10 16 10 8 0 12 -4 9 -10z m170 0 c-3 -5 -11 -10 -16 -10 -6
0 -7 5 -4 10 3 6 11 10 16 10 6 0 7 -4 4 -10z m-165 -41 c0 -5 -7 -9 -15 -9
-15 0 -20 12 -9 23 8 8 24 -1 24 -14z m50 6 c0 -8 -9 -15 -20 -15 -25 0 -26
17 -2 23 9 3 18 5 20 6 1 0 2 -6 2 -14z m70 0 c0 -8 -4 -15 -10 -15 -5 0 -10
7 -10 15 0 8 5 15 10 15 6 0 10 -7 10 -15z m44 0 c-6 -16 -24 -21 -24 -7 0 11
11 22 21 22 5 0 6 -7 3 -15z m-84 -5 c0 -5 -4 -10 -10 -10 -5 0 -10 5 -10 10
0 6 5 10 10 10 6 0 10 -4 10 -10z"/>
</g>
</svg>
