<?xml version="1.0" standalone="no"?>
<!DOCTYPE svg PUBLIC "-//W3C//DTD SVG 20010904//EN"
 "http://www.w3.org/TR/2001/REC-SVG-20010904/DTD/svg10.dtd">
<svg version="1.0" xmlns="http://www.w3.org/2000/svg"
 width="51.000000pt" height="48.000000pt" viewBox="0 0 51.000000 48.000000"
 preserveAspectRatio="xMidYMid meet">
<metadata>
Created by potrace 1.16, written by Peter Selinger 2001-2019
</metadata>
<g transform="translate(0.000000,48.000000) scale(0.100000,-0.100000)"
fill="#000000" stroke="none">
<path d="M99 369 c-5 -10 -9 -74 -9 -142 0 -104 3 -126 16 -131 16 -6 249 2
271 9 7 2 10 11 7 19 -3 8 4 21 16 29 20 14 20 16 4 25 -15 9 -16 17 -5 102 6
51 9 95 6 98 -3 4 -71 7 -151 7 -129 2 -146 0 -155 -16z m263 -36 c3 -72 1
-143 -4 -148 -3 -3 -18 -8 -33 -11 l-27 -5 7 76 c8 88 8 87 -91 89 -82 1 -89
-18 -8 -22 l62 -3 6 -37 c8 -52 7 -92 -2 -92 -18 0 -32 26 -32 62 0 26 -4 38
-14 38 -10 0 -15 -15 -18 -51 -4 -67 10 -79 90 -79 49 0 62 -3 62 -15 0 -13
-18 -15 -122 -13 l-123 3 -1 70 c0 39 1 91 4 117 l4 47 111 4 c62 1 115 4 120
5 4 1 8 -15 9 -35z"/>
</g>
</svg>
