<?xml version="1.0" standalone="no"?>
<!DOCTYPE svg PUBLIC "-//W3C//DTD SVG 20010904//EN"
 "http://www.w3.org/TR/2001/REC-SVG-20010904/DTD/svg10.dtd">
<svg version="1.0" xmlns="http://www.w3.org/2000/svg"
 width="111.000000pt" height="68.000000pt" viewBox="0 0 111.000000 68.000000"
 preserveAspectRatio="xMidYMid meet">
<metadata>
Created by potrace 1.16, written by Peter Selinger 2001-2019
</metadata>
<g transform="translate(0.000000,68.000000) scale(0.100000,-0.100000)"
fill="#000000" stroke="none">
<path d="M293 589 c-9 -9 5 -34 54 -98 37 -47 71 -89 77 -93 10 -7 -83 -12
-149 -8 -40 2 -57 24 -43 56 14 30 6 39 -21 25 -25 -14 -38 -58 -24 -80 20
-31 109 -34 403 -15 l85 5 -45 -27 c-58 -35 -57 -34 -41 -44 9 -5 38 7 87 37
68 42 103 51 111 28 2 -6 -10 -19 -27 -28 -16 -10 -30 -22 -30 -28 0 -17 45
-9 58 11 16 27 34 25 71 -6 40 -33 40 -19 0 22 l-30 31 30 13 c28 11 32 10 68
-24 21 -20 41 -36 46 -36 14 0 7 17 -18 40 -28 27 -32 40 -10 40 8 0 15 4 15
10 0 5 -14 7 -32 3 -33 -6 -33 -6 -15 14 10 12 14 24 9 27 -5 3 -15 -1 -22 -9
-10 -12 -16 -13 -27 -4 -8 7 -12 18 -9 26 3 7 1 13 -3 13 -5 0 -16 3 -25 6
-11 4 -19 -2 -26 -20 -14 -38 -39 -44 -62 -17 -10 14 -24 21 -33 17 -21 -8
-19 -22 7 -40 14 -10 19 -19 13 -25 -6 -6 -71 -13 -146 -17 l-137 -7 -13 25
c-8 14 -30 49 -50 79 -20 30 -43 66 -53 82 -18 30 -26 33 -43 16z m556 -152
c14 -18 4 -27 -31 -27 -32 0 -37 14 -10 29 23 14 28 13 41 -2z"/>
<path d="M235 340 c-6 -10 105 -139 128 -148 4 -2 7 -8 7 -13 0 -6 -18 -8 -42
-5 -24 3 -60 5 -80 5 -32 1 -39 5 -44 26 -4 15 -1 32 6 40 21 25 2 30 -28 8
-31 -23 -40 -64 -18 -82 24 -20 119 -24 275 -12 79 6 146 9 149 7 2 -3 -7 -11
-22 -17 -14 -7 -26 -18 -26 -26 0 -23 35 -14 65 17 30 31 63 38 83 18 9 -9 7
-14 -6 -24 -24 -18 0 -44 26 -28 13 9 24 5 54 -19 50 -40 60 -28 14 15 -34 32
-35 35 -20 56 20 29 29 28 67 -8 18 -16 38 -30 45 -30 8 0 0 12 -17 26 -17 14
-31 30 -31 34 0 5 17 12 38 15 59 10 69 15 53 24 -8 5 -28 5 -45 0 -56 -16
-61 -11 -26 26 42 44 19 47 -26 4 l-32 -31 -33 41 c-18 23 -38 41 -45 41 -16
0 -24 -23 -17 -49 8 -33 -25 -40 -48 -10 -14 19 -20 21 -30 12 -10 -10 -8 -18
11 -38 16 -17 19 -25 9 -25 -8 -1 -63 -3 -124 -6 -60 -3 -115 -1 -121 3 -5 4
-36 40 -67 80 -63 80 -73 88 -82 73z m505 -120 c18 -11 13 -16 -27 -23 -34 -7
-41 1 -21 21 14 14 28 15 48 2z m0 -44 c0 -2 -7 -7 -16 -10 -8 -3 -12 -2 -9 4
6 10 25 14 25 6z"/>
</g>
</svg>
