<?xml version="1.0" standalone="no"?>
<!DOCTYPE svg PUBLIC "-//W3C//DTD SVG 20010904//EN"
 "http://www.w3.org/TR/2001/REC-SVG-20010904/DTD/svg10.dtd">
<svg version="1.0" xmlns="http://www.w3.org/2000/svg"
 width="79.000000pt" height="49.000000pt" viewBox="0 0 79.000000 49.000000"
 preserveAspectRatio="xMidYMid meet">
<metadata>
Created by potrace 1.16, written by Peter Selinger 2001-2019
</metadata>
<g transform="translate(0.000000,49.000000) scale(0.100000,-0.100000)"
fill="#000000" stroke="none">
<path d="M466 409 c-2 -8 -9 -27 -14 -44 -6 -20 -15 -29 -25 -27 -13 2 -16 -4
-13 -25 3 -25 53 -160 63 -173 6 -7 22 23 17 31 -2 4 -9 41 -15 83 -7 57 -7
86 1 112 9 26 9 39 1 47 -7 7 -12 6 -15 -4z"/>
<path d="M109 369 c-7 -22 -21 -45 -31 -50 -27 -14 -23 -30 29 -126 52 -97 66
-95 35 5 -30 97 -30 102 -11 153 17 44 16 59 -2 59 -5 0 -14 -18 -20 -41z"/>
<path d="M166 392 c-9 -15 6 -272 16 -266 4 3 8 29 8 59 0 60 -1 59 85 70 80
10 78 25 -3 25 l-71 0 -3 57 c-3 52 -18 78 -32 55z"/>
<path d="M505 318 c4 -46 8 -99 10 -118 4 -57 5 -60 15 -60 6 0 10 17 10 38 0
74 7 82 64 82 59 0 96 8 96 21 0 5 -34 9 -75 9 -71 0 -75 1 -81 25 -3 13 -4
30 -1 37 6 19 -11 48 -29 48 -13 0 -14 -13 -9 -82z"/>
</g>
</svg>
