<?xml version="1.0" standalone="no"?>
<!DOCTYPE svg PUBLIC "-//W3C//DTD SVG 20010904//EN"
 "http://www.w3.org/TR/2001/REC-SVG-20010904/DTD/svg10.dtd">
<svg version="1.0" xmlns="http://www.w3.org/2000/svg"
 width="70.000000pt" height="50.000000pt" viewBox="0 0 70.000000 50.000000"
 preserveAspectRatio="xMidYMid meet">
<metadata>
Created by potrace 1.16, written by Peter Selinger 2001-2019
</metadata>
<g transform="translate(0.000000,50.000000) scale(0.100000,-0.100000)"
fill="#000000" stroke="none">
<path d="M206 395 c-8 -23 -6 -314 4 -320 9 -6 20 43 20 94 0 20 4 41 8 48 4
6 40 15 80 18 89 9 104 24 25 26 -32 1 -67 2 -78 3 -18 1 -20 8 -20 61 0 59
-8 85 -25 85 -4 0 -10 -7 -14 -15z"/>
<path d="M441 393 c-18 -12 -19 -25 -19 -149 1 -130 2 -136 23 -146 28 -12
107 2 113 21 4 11 -2 12 -23 7 -44 -11 -90 13 -87 45 1 3 2 47 3 98 1 58 6 94
13 96 6 2 32 6 59 9 38 5 47 3 47 -10 0 -13 -9 -15 -47 -12 -32 2 -48 -1 -51
-11 -3 -10 7 -12 46 -10 40 3 52 1 55 -12 4 -13 -3 -14 -42 -8 -48 7 -65 4
-56 -12 4 -5 28 -9 56 -9 l49 0 0 -40 0 -40 -49 0 c-47 0 -72 -12 -52 -24 5
-3 7 -16 4 -28 -6 -20 -4 -21 45 -14 l52 7 0 -31 c0 -16 5 -30 10 -30 6 0 10
36 10 89 0 48 3 115 6 149 6 58 6 61 -17 66 -61 13 -130 12 -148 -1z m139
-213 c0 -5 -19 -9 -42 -9 l-43 2 35 7 c19 4 38 8 43 9 4 0 7 -3 7 -9z"/>
<path d="M126 357 c-9 -23 -16 -47 -16 -53 0 -6 -9 -19 -20 -29 -23 -20 -25
-46 -9 -78 19 -37 103 -131 106 -120 2 6 -12 42 -32 79 -32 59 -36 75 -31 113
3 24 15 59 27 77 19 31 19 54 0 54 -5 0 -16 -19 -25 -43z"/>
<path d="M478 255 c-3 -13 -3 -27 0 -30 9 -9 81 -5 87 5 4 6 -9 10 -31 10 -43
0 -42 6 1 14 17 2 32 5 35 5 17 4 -30 21 -56 21 -26 0 -33 -5 -36 -25z"/>
</g>
</svg>
