<?xml version="1.0" standalone="no"?>
<!DOCTYPE svg PUBLIC "-//W3C//DTD SVG 20010904//EN"
 "http://www.w3.org/TR/2001/REC-SVG-20010904/DTD/svg10.dtd">
<svg version="1.0" xmlns="http://www.w3.org/2000/svg"
 width="106.000000pt" height="45.000000pt" viewBox="0 0 106.000000 45.000000"
 preserveAspectRatio="xMidYMid meet">
<metadata>
Created by potrace 1.16, written by Peter Selinger 2001-2019
</metadata>
<g transform="translate(0.000000,45.000000) scale(0.100000,-0.100000)"
fill="#000000" stroke="none">
<path d="M413 334 c-3 -9 0 -45 7 -78 7 -34 15 -70 17 -82 4 -18 1 -20 -26
-16 -35 5 -40 -4 -14 -24 16 -11 16 -13 -10 -25 -27 -12 -36 -42 -16 -55 6 -3
25 8 43 25 18 17 37 31 42 31 13 0 136 -37 187 -56 88 -33 98 -4 26 74 -30 32
-80 93 -113 135 -32 42 -65 77 -72 77 -8 0 -14 -2 -14 -5 0 -4 106 -139 149
-190 9 -11 30 -30 45 -43 16 -12 27 -25 24 -28 -5 -5 -187 53 -198 63 -3 2 6
13 20 23 35 27 17 36 -19 10 l-31 -21 -2 38 c-1 21 -2 65 -2 98 -1 49 -4 60
-19 63 -9 2 -20 -4 -24 -14z"/>
<path d="M719 323 c-1 -5 -1 -32 1 -60 1 -43 -1 -53 -14 -53 -25 0 -19 -29 8
-39 13 -5 47 -25 77 -43 57 -36 89 -39 89 -8 0 33 12 50 35 50 17 0 26 9 34
31 14 41 15 39 -14 39 -13 0 -28 8 -34 17 -8 15 -13 15 -33 5 -12 -6 -39 -13
-58 -14 -29 -3 -34 -7 -32 -23 2 -11 8 -23 14 -26 5 -3 8 -10 6 -15 -1 -5 9
-9 25 -10 35 -1 39 -6 35 -38 l-3 -27 -55 42 c-30 23 -55 47 -54 53 0 6 4 37
7 69 7 53 6 57 -13 57 -11 0 -21 -3 -21 -7z"/>
<path d="M117 293 c-16 -15 -4 -23 34 -23 39 0 40 0 25 -22 -9 -12 -16 -31
-16 -41 0 -16 -6 -17 -46 -11 -37 5 -46 4 -42 -7 5 -14 37 -23 143 -39 33 -5
71 -12 85 -15 23 -5 27 0 49 50 13 31 21 58 17 62 -3 3 -18 7 -33 8 -16 2 -64
12 -108 24 -88 23 -98 24 -108 14z m161 -52 c24 -5 46 -12 49 -14 11 -12 -14
-62 -30 -61 -106 5 -112 9 -103 58 6 29 11 36 24 32 9 -3 36 -10 60 -15z"/>
</g>
</svg>
