<?xml version="1.0" standalone="no"?>
<!DOCTYPE svg PUBLIC "-//W3C//DTD SVG 20010904//EN"
 "http://www.w3.org/TR/2001/REC-SVG-20010904/DTD/svg10.dtd">
<svg version="1.0" xmlns="http://www.w3.org/2000/svg"
 width="70.000000pt" height="42.000000pt" viewBox="0 0 70.000000 42.000000"
 preserveAspectRatio="xMidYMid meet">
<metadata>
Created by potrace 1.16, written by Peter Selinger 2001-2019
</metadata>
<g transform="translate(0.000000,42.000000) scale(0.100000,-0.100000)"
fill="#000000" stroke="none">
<path d="M277 383 c-4 -3 -7 -15 -7 -26 0 -19 -5 -20 -98 -13 -94 6 -99 6
-119 -16 -20 -21 -22 -30 -16 -116 l6 -92 112 0 112 0 11 -32 10 -33 1 33 c1
28 4 33 23 30 11 -2 22 -11 24 -21 4 -30 14 -33 14 -4 0 34 34 38 45 5 l8 -23
4 22 c6 33 32 37 39 7 5 -18 9 -22 15 -13 4 7 5 17 3 21 -5 7 60 13 114 10 12
0 22 5 22 11 2 49 13 124 20 132 4 6 10 23 12 39 2 25 -1 31 -24 37 -14 4 -49
5 -76 3 -44 -3 -50 -1 -55 17 -6 23 -27 17 -27 -7 0 -8 -7 -14 -15 -14 -8 0
-15 9 -15 20 0 11 -5 20 -11 20 -6 0 -13 -9 -16 -20 -3 -11 -9 -20 -14 -20 -5
0 -9 9 -9 20 0 11 -6 20 -14 20 -7 0 -16 -9 -19 -20 -7 -28 -24 -25 -31 5 -6
25 -16 31 -29 18z m-7 -83 c0 -17 -7 -20 -40 -20 -29 0 -40 -4 -40 -15 0 -11
11 -15 40 -15 28 0 40 -4 40 -14 0 -9 -11 -13 -32 -12 -24 1 -33 -4 -36 -18
-4 -17 0 -18 32 -13 33 5 36 4 36 -18 0 -19 -7 -24 -40 -30 -21 -4 -44 -4 -50
0 -5 3 -10 40 -10 81 0 82 8 92 73 93 21 1 27 -4 27 -19z m70 16 c0 -2 -3 -11
-6 -20 -9 -23 -34 -20 -34 4 0 13 7 20 20 20 11 0 20 -2 20 -4z m50 -16 c0
-11 -7 -20 -15 -20 -8 0 -15 9 -15 20 0 11 7 20 15 20 8 0 15 -9 15 -20z m60
0 c0 -11 -7 -20 -15 -20 -8 0 -15 9 -15 20 0 11 7 20 15 20 8 0 15 -9 15 -20z
m120 0 c0 -17 -7 -20 -50 -20 -35 0 -50 4 -50 13 0 22 11 27 57 27 36 0 43 -3
43 -20z m-430 -70 l0 -80 -38 0 -39 0 9 68 c11 88 13 92 43 92 25 0 25 -1 25
-80z m198 8 c2 -13 -3 -18 -17 -18 -12 0 -21 2 -21 4 0 2 -3 12 -6 21 -5 13
-2 16 17 13 13 -1 25 -11 27 -20z m52 2 c0 -11 -7 -20 -15 -20 -8 0 -15 9 -15
20 0 11 7 20 15 20 8 0 15 -9 15 -20z m53 0 c-3 -11 -9 -17 -14 -14 -14 8 -10
34 5 34 9 0 12 -7 9 -20z m132 -14 c4 -18 5 -44 3 -57 -3 -20 -9 -24 -55 -26
-53 -4 -53 -4 -53 27 0 28 3 30 34 30 19 0 37 4 40 9 7 11 -17 21 -50 21 -15
0 -24 6 -24 15 0 11 12 15 50 15 48 0 49 -1 55 -34z m-127 -43 c-4 -37 -38
-45 -38 -10 0 23 10 34 33 36 5 1 7 -11 5 -26z m-114 9 c6 -10 -4 -52 -13 -52
-18 1 -30 18 -24 38 5 22 27 30 37 14z m56 -22 c0 -23 -4 -30 -20 -30 -16 0
-20 7 -20 30 0 23 4 30 20 30 16 0 20 -7 20 -30z"/>
</g>
</svg>
