<?xml version="1.0" standalone="no"?>
<!DOCTYPE svg PUBLIC "-//W3C//DTD SVG 20010904//EN"
 "http://www.w3.org/TR/2001/REC-SVG-20010904/DTD/svg10.dtd">
<svg version="1.0" xmlns="http://www.w3.org/2000/svg"
 width="78.000000pt" height="41.000000pt" viewBox="0 0 78.000000 41.000000"
 preserveAspectRatio="xMidYMid meet">
<metadata>
Created by potrace 1.16, written by Peter Selinger 2001-2019
</metadata>
<g transform="translate(0.000000,41.000000) scale(0.100000,-0.100000)"
fill="#000000" stroke="none">
<path d="M545 334 c-22 -2 -131 -9 -243 -15 -111 -7 -204 -15 -206 -18 -2 -3
0 -30 5 -59 9 -63 6 -75 -27 -92 -33 -18 -33 -56 0 -62 14 -3 30 0 35 5 6 6
20 11 31 12 15 1 17 -1 8 -12 -14 -18 -3 -29 15 -15 8 7 17 9 20 5 4 -3 14 0
23 8 14 11 19 10 35 -10 l19 -23 28 21 c33 23 58 51 47 51 -5 0 -17 -7 -27
-17 -10 -9 -21 -14 -24 -10 -3 3 13 18 35 33 26 17 38 31 32 37 -5 5 -16 5
-29 -2 -11 -6 -30 -8 -43 -6 -12 3 -30 -2 -38 -9 -14 -13 -16 -7 -16 58 l0 73
55 1 c30 1 81 4 112 8 l58 6 -6 -34 c-4 -18 -8 -34 -9 -36 -1 -1 -18 5 -38 13
-45 19 -58 19 -51 1 5 -14 64 -41 64 -30 0 3 9 0 20 -6 12 -7 20 -21 20 -38 0
-21 -10 -33 -44 -55 -48 -30 -72 -54 -63 -63 3 -3 17 2 31 11 14 10 26 14 26
9 0 -4 10 2 23 13 30 26 87 66 87 59 0 -2 -20 -19 -45 -37 -49 -35 -53 -47
-11 -27 20 8 29 9 34 1 10 -16 53 -18 87 -3 17 7 48 15 70 17 22 3 47 9 56 14
20 10 20 46 0 58 -10 7 -12 27 -8 89 l5 79 -57 0 c-31 0 -74 -2 -96 -3z m115
-88 c0 -37 -3 -66 -7 -66 -5 0 -42 25 -83 55 -41 30 -78 55 -83 55 -4 0 -6 4
-3 9 3 4 44 9 91 10 l85 2 0 -65z m-454 -19 l4 -55 -40 -10 -40 -10 1 32 c3
64 13 90 39 96 14 4 27 6 28 4 2 -1 6 -27 8 -57z m353 -12 c59 -35 63 -39 45
-52 -16 -12 -20 -12 -30 1 -9 13 -14 13 -28 3 -10 -7 -32 -11 -48 -9 -29 4
-30 7 -24 41 3 20 6 42 6 49 0 7 3 11 8 9 4 -2 36 -21 71 -42z m-350 -78 c-2
-1 -13 -9 -24 -17 -19 -14 -19 -14 -6 3 7 9 18 17 24 17 6 0 8 -1 6 -3z m46
-17 c-3 -5 -12 -10 -18 -10 -7 0 -6 4 3 10 19 12 23 12 15 0z m290 0 c-3 -5
-11 -10 -16 -10 -6 0 -7 5 -4 10 3 6 11 10 16 10 6 0 7 -4 4 -10z"/>
<path d="M360 150 c-14 -11 -19 -20 -11 -20 11 0 11 -3 0 -17 -13 -15 -12 -15
18 0 23 13 30 22 26 37 -3 11 -6 20 -7 20 0 0 -12 -9 -26 -20z"/>
</g>
</svg>
