<?xml version="1.0" standalone="no"?>
<!DOCTYPE svg PUBLIC "-//W3C//DTD SVG 20010904//EN"
 "http://www.w3.org/TR/2001/REC-SVG-20010904/DTD/svg10.dtd">
<svg version="1.0" xmlns="http://www.w3.org/2000/svg"
 width="99.000000pt" height="51.000000pt" viewBox="0 0 99.000000 51.000000"
 preserveAspectRatio="xMidYMid meet">
<metadata>
Created by potrace 1.16, written by Peter Selinger 2001-2019
</metadata>
<g transform="translate(0.000000,51.000000) scale(0.100000,-0.100000)"
fill="#000000" stroke="none">
<path d="M316 453 c-3 -4 -6 -87 -6 -185 l0 -178 -100 0 c-60 0 -100 -4 -100
-10 0 -6 40 -10 100 -10 93 0 100 -1 100 -20 0 -11 5 -20 10 -20 6 0 10 9 10
20 0 17 7 20 50 20 43 0 50 -3 50 -20 0 -25 20 -27 20 -2 3 86 10 187 15 211
8 37 14 38 213 47 90 4 159 11 155 15 -4 4 -96 9 -203 10 l-195 2 -3 -124 -3
-124 -51 4 -51 3 7 112 c4 61 9 132 12 157 l6 46 62 4 c33 2 135 4 225 4 l165
0 24 -50 c26 -52 42 -48 23 7 -15 44 -14 48 15 48 16 0 24 5 21 13 -3 9 -67
12 -271 14 -148 1 -274 4 -281 7 -7 2 -16 2 -19 -1z"/>
<path d="M515 90 l-40 -7 53 -2 c33 0 51 3 47 9 -3 6 -9 9 -13 9 -4 -1 -25 -5
-47 -9z"/>
<path d="M808 3 c7 -3 16 -2 19 1 4 3 -2 6 -13 5 -11 0 -14 -3 -6 -6z"/>
<path d="M923 3 c9 -2 23 -2 30 0 6 3 -1 5 -18 5 -16 0 -22 -2 -12 -5z"/>
</g>
</svg>
