<?xml version="1.0" standalone="no"?>
<!DOCTYPE svg PUBLIC "-//W3C//DTD SVG 20010904//EN"
 "http://www.w3.org/TR/2001/REC-SVG-20010904/DTD/svg10.dtd">
<svg version="1.0" xmlns="http://www.w3.org/2000/svg"
 width="111.000000pt" height="72.000000pt" viewBox="0 0 111.000000 72.000000"
 preserveAspectRatio="xMidYMid meet">
<metadata>
Created by potrace 1.16, written by Peter Selinger 2001-2019
</metadata>
<g transform="translate(0.000000,72.000000) scale(0.100000,-0.100000)"
fill="#000000" stroke="none">
<path d="M375 640 c-7 -12 -5 -12 58 -10 l47 1 0 -71 0 -72 -82 4 c-68 2 -83
0 -84 -12 0 -8 -2 -35 -2 -59 l-2 -43 -107 3 -108 4 2 -33 c1 -28 -2 -32 -20
-30 -30 4 -33 -20 -3 -33 14 -7 26 -20 26 -31 0 -22 16 -24 28 -2 8 14 26 17
92 18 57 1 85 5 87 14 5 12 -53 18 -141 15 -35 -2 -38 0 -32 20 3 12 6 25 6
29 0 3 41 7 91 7 l91 1 -3 -52 c-2 -31 2 -63 10 -76 15 -28 63 -50 115 -54
l36 -2 0 -48 c0 -47 -1 -48 -30 -48 -16 0 -30 -4 -30 -10 0 -6 52 -10 135 -10
78 0 135 4 135 9 0 6 -21 11 -47 13 -39 2 -48 6 -47 21 1 9 2 31 3 47 l1 30
93 0 c106 0 117 6 117 62 l0 38 90 0 c53 0 90 4 90 10 0 11 -18 13 -113 10
l-69 -2 4 29 c3 28 3 28 93 35 49 4 93 4 97 2 4 -3 8 -32 8 -65 0 -33 4 -59
10 -59 6 0 10 6 11 13 0 6 2 21 4 32 2 11 5 38 7 60 l3 40 -117 3 -117 3 1 29
c1 16 -6 40 -15 54 -16 24 -19 25 -102 19 l-85 -6 0 72 0 71 30 0 c17 0 30 5
30 10 0 6 -55 10 -144 10 -86 0 -147 -4 -151 -10z m190 -21 c4 -6 9 -37 12
-70 l6 -59 -37 0 c-34 0 -36 2 -37 33 0 17 -2 49 -3 70 -1 34 1 37 26 37 15 0
30 -5 33 -11z m171 -155 c40 -11 54 -54 54 -163 l0 -101 -70 0 -70 0 0 94 c0
112 6 107 -132 110 -114 2 -125 -5 -112 -74 7 -31 8 -32 50 -27 54 6 62 0 70
-49 8 -50 -1 -55 -78 -42 -39 7 -63 17 -81 36 -24 26 -25 31 -20 119 l6 92 86
4 c169 6 276 7 297 1z m-106 -170 l0 -95 -42 3 -42 3 3 54 c3 63 -4 71 -71 71
-44 0 -48 2 -48 25 0 24 1 24 98 28 53 1 98 4 100 5 1 1 2 -41 2 -94z m-60
-164 c0 -49 -1 -50 -30 -50 -29 0 -30 1 -30 50 0 49 1 50 30 50 29 0 30 -1 30
-50z"/>
</g>
</svg>
