<?xml version="1.0" standalone="no"?>
<!DOCTYPE svg PUBLIC "-//W3C//DTD SVG 20010904//EN"
 "http://www.w3.org/TR/2001/REC-SVG-20010904/DTD/svg10.dtd">
<svg version="1.0" xmlns="http://www.w3.org/2000/svg"
 width="103.000000pt" height="37.000000pt" viewBox="0 0 103.000000 37.000000"
 preserveAspectRatio="xMidYMid meet">
<metadata>
Created by potrace 1.16, written by Peter Selinger 2001-2019
</metadata>
<g transform="translate(0.000000,37.000000) scale(0.100000,-0.100000)"
fill="#000000" stroke="none">
<path d="M117 316 c-23 -19 -25 -27 -23 -90 2 -67 4 -71 38 -99 l36 -29 371 2
c442 1 508 12 331 58 -74 19 -75 20 -78 54 -3 34 -1 36 42 48 37 10 102 49 85
50 -2 1 -164 3 -359 6 -195 3 -369 9 -386 14 -25 6 -37 3 -57 -14z m166 -34
c-2 -6 -3 -45 -4 -88 l-2 -76 -45 6 c-66 9 -78 26 -18 26 74 0 54 24 -22 28
-46 2 -62 7 -62 17 0 9 6 12 15 9 22 -9 125 6 125 17 0 5 -32 9 -71 9 l-70 0
3 28 c3 23 8 28 43 32 60 7 110 4 108 -8z m237 -12 c0 -27 -3 -31 -17 -25 -10
4 -45 14 -78 22 -33 9 -63 18 -67 22 -4 3 31 7 78 9 l84 3 0 -31z m124 14 c18
-48 -7 -72 -64 -59 -26 6 -30 11 -30 41 0 34 1 34 44 34 31 0 46 -5 50 -16z
m64 -11 c-4 -36 -38 -45 -38 -10 0 27 7 37 27 37 10 0 13 -9 11 -27z m62 2 c0
-8 -6 -15 -14 -15 -8 0 -16 7 -20 15 -4 10 1 15 14 15 11 0 20 -7 20 -15z m65
5 c-28 -12 -45 -12 -45 0 0 6 15 10 33 9 27 0 29 -2 12 -9z m-400 -45 l60 -14
-70 1 c-55 1 -70 -2 -70 -13 0 -9 13 -15 40 -16 22 -1 51 -2 65 -3 24 -2 24
-2 -5 -10 -90 -26 -145 -37 -148 -32 -2 4 -1 31 1 60 l4 54 32 -7 c17 -3 58
-13 91 -20z m328 -25 c-3 -11 -9 -20 -14 -20 -10 0 -12 33 -3 43 12 12 22 -3
17 -23z m-53 0 c0 -5 -9 -10 -20 -10 -11 0 -20 5 -20 10 0 6 9 10 20 10 11 0
20 -4 20 -10z m-77 -24 c9 -7 17 -25 17 -40 0 -25 -3 -26 -50 -26 -49 0 -50 1
-50 30 0 22 6 33 23 40 30 12 39 12 60 -4z m75 -39 c3 -22 -1 -27 -17 -27 -17
0 -21 6 -21 31 0 24 4 30 18 27 10 -2 18 -14 20 -31z m-186 -2 c5 -25 5 -25
-66 -24 l-71 0 35 16 c19 8 42 19 50 24 28 15 48 9 52 -16z m248 0 c0 -18 -5
-25 -19 -25 -13 0 -18 7 -18 25 0 18 5 25 18 25 14 0 19 -7 19 -25z m96 -4 c5
-5 18 -11 29 -14 11 -3 -8 -5 -42 -6 -50 -1 -63 2 -63 14 0 17 59 22 76 6z"/>
<path d="M145 260 c8 -13 115 -13 115 0 0 6 -27 10 -61 10 -37 0 -58 -4 -54
-10z"/>
</g>
</svg>
