<?xml version="1.0" standalone="no"?>
<!DOCTYPE svg PUBLIC "-//W3C//DTD SVG 20010904//EN"
 "http://www.w3.org/TR/2001/REC-SVG-20010904/DTD/svg10.dtd">
<svg version="1.0" xmlns="http://www.w3.org/2000/svg"
 width="58.000000pt" height="43.000000pt" viewBox="0 0 58.000000 43.000000"
 preserveAspectRatio="xMidYMid meet">
<metadata>
Created by potrace 1.16, written by Peter Selinger 2001-2019
</metadata>
<g transform="translate(0.000000,43.000000) scale(0.100000,-0.100000)"
fill="#000000" stroke="none">
<path d="M350 345 c-47 -13 -120 -29 -163 -36 -42 -6 -80 -16 -84 -22 -4 -6
-6 -39 -5 -74 1 -35 -3 -72 -10 -82 -15 -25 -4 -49 29 -62 30 -12 344 -6 365
7 7 5 5 11 -7 20 -15 11 -17 23 -12 79 3 36 11 73 16 84 6 10 7 21 3 25 -3 4
-7 15 -7 24 -5 74 1 72 -125 37z m74 -27 c11 -44 7 -108 -8 -108 -18 0 -33 20
-38 50 -1 14 -7 24 -13 22 -9 -2 -11 -6 -14 -40 -1 -9 -15 -5 -47 13 -64 36
-74 25 -74 -80 0 -94 -5 -101 -63 -78 l-37 15 0 73 0 74 53 15 c28 8 72 19 97
25 25 6 63 17 85 25 53 19 52 19 59 -6z m-115 -90 c60 -21 66 -41 19 -62 -54
-23 -81 -27 -74 -9 3 8 6 30 6 49 0 38 0 39 49 22z m129 -82 c2 -24 -2 -42
-10 -47 -16 -11 -178 -12 -178 -1 0 4 25 19 55 33 49 23 55 23 55 8 0 -23 18
-34 34 -20 7 6 11 23 8 42 -4 26 -2 30 14 27 14 -2 20 -13 22 -42z"/>
</g>
</svg>
