<?xml version="1.0" standalone="no"?>
<!DOCTYPE svg PUBLIC "-//W3C//DTD SVG 20010904//EN"
 "http://www.w3.org/TR/2001/REC-SVG-20010904/DTD/svg10.dtd">
<svg version="1.0" xmlns="http://www.w3.org/2000/svg"
 width="60.000000pt" height="46.000000pt" viewBox="0 0 60.000000 46.000000"
 preserveAspectRatio="xMidYMid meet">
<metadata>
Created by potrace 1.16, written by Peter Selinger 2001-2019
</metadata>
<g transform="translate(0.000000,46.000000) scale(0.100000,-0.100000)"
fill="#000000" stroke="none">
<path d="M231 392 c-58 -1 -111 -8 -118 -14 -17 -13 -8 -95 12 -117 8 -8 37
-13 78 -14 71 0 77 -5 77 -69 0 -21 7 -29 33 -37 17 -6 52 -9 77 -7 l45 4 6
123 c4 68 5 128 2 132 -3 4 -28 7 -56 5 -29 -2 -99 -4 -156 -6z m186 -125 l3
-108 -52 3 -53 3 -3 42 c-4 50 -18 61 -82 61 -25 0 -57 5 -73 11 -22 9 -27 17
-27 45 l0 34 78 7 c42 3 86 7 97 9 11 2 40 3 64 2 l45 -1 3 -108z"/>
</g>
</svg>
