<?xml version="1.0" standalone="no"?>
<!DOCTYPE svg PUBLIC "-//W3C//DTD SVG 20010904//EN"
 "http://www.w3.org/TR/2001/REC-SVG-20010904/DTD/svg10.dtd">
<svg version="1.0" xmlns="http://www.w3.org/2000/svg"
 width="61.000000pt" height="44.000000pt" viewBox="0 0 61.000000 44.000000"
 preserveAspectRatio="xMidYMid meet">
<metadata>
Created by potrace 1.16, written by Peter Selinger 2001-2019
</metadata>
<g transform="translate(0.000000,44.000000) scale(0.100000,-0.100000)"
fill="#000000" stroke="none">
<path d="M450 366 c-84 -57 -140 -74 -246 -78 l-100 -3 7 38 c5 31 3 39 -12
47 -37 20 -40 13 -34 -87 8 -138 15 -187 25 -177 5 5 10 38 12 74 l3 65 104
12 c58 7 111 15 118 18 8 2 13 -1 12 -8 -3 -25 1 -37 15 -37 7 0 39 -11 70
-25 107 -47 115 -29 16 33 -39 24 -70 47 -70 50 0 4 27 24 60 46 33 21 60 42
60 47 0 12 -1 12 -40 -15z"/>
</g>
</svg>
