<?xml version="1.0" standalone="no"?>
<!DOCTYPE svg PUBLIC "-//W3C//DTD SVG 20010904//EN"
 "http://www.w3.org/TR/2001/REC-SVG-20010904/DTD/svg10.dtd">
<svg version="1.0" xmlns="http://www.w3.org/2000/svg"
 width="115.000000pt" height="39.000000pt" viewBox="0 0 115.000000 39.000000"
 preserveAspectRatio="xMidYMid meet">
<metadata>
Created by potrace 1.16, written by Peter Selinger 2001-2019
</metadata>
<g transform="translate(0.000000,39.000000) scale(0.100000,-0.100000)"
fill="#000000" stroke="none">
<path d="M78 308 c-4 -11 3 -48 23 -130 15 -58 55 -81 132 -75 34 3 89 13 122
23 l60 17 90 -33 c49 -19 97 -42 106 -51 27 -27 110 -32 176 -10 32 10 77 24
101 31 24 6 50 14 59 17 14 5 15 1 10 -26 -9 -42 15 -38 24 5 4 16 16 69 27
118 29 126 15 142 -101 117 -23 -5 -74 -15 -112 -21 -80 -13 -105 -24 -89 -40
7 -7 46 -1 128 19 65 16 125 27 133 24 13 -5 15 -20 11 -85 -3 -43 -7 -80 -10
-83 -6 -6 -146 -43 -205 -54 -52 -10 -105 3 -244 59 -98 39 -120 43 -161 25
-16 -6 -18 1 -18 80 0 65 -3 86 -12 82 -10 -3 -12 -27 -9 -89 l3 -86 -33 -7
c-19 -4 -40 -12 -47 -18 -21 -17 -34 6 -27 47 7 34 9 36 46 36 48 0 51 17 5
26 -25 4 -36 12 -38 27 -2 12 -11 23 -20 25 -13 3 -18 -3 -18 -22 0 -23 -4
-26 -34 -26 -30 0 -34 3 -38 30 l-4 29 90 3 c52 2 91 7 91 13 0 15 -213 17
-217 3z m112 -155 l0 -35 -32 19 c-18 10 -34 28 -36 39 -2 18 2 20 33 16 33
-4 35 -7 35 -39z"/>
<path d="M820 226 c-80 -17 -106 -26 -108 -39 -5 -24 21 -31 55 -14 15 7 64
24 108 37 150 42 119 52 -55 16z"/>
</g>
</svg>
