<?xml version="1.0" standalone="no"?>
<!DOCTYPE svg PUBLIC "-//W3C//DTD SVG 20010904//EN"
 "http://www.w3.org/TR/2001/REC-SVG-20010904/DTD/svg10.dtd">
<svg version="1.0" xmlns="http://www.w3.org/2000/svg"
 width="84.000000pt" height="50.000000pt" viewBox="0 0 84.000000 50.000000"
 preserveAspectRatio="xMidYMid meet">
<metadata>
Created by potrace 1.16, written by Peter Selinger 2001-2019
</metadata>
<g transform="translate(0.000000,50.000000) scale(0.100000,-0.100000)"
fill="#000000" stroke="none">
<path d="M295 412 c-11 -2 -26 -9 -34 -16 -8 -6 -39 -13 -70 -16 -55 -5 -56
-5 -56 -37 -1 -17 -9 -41 -19 -52 -10 -11 -15 -25 -10 -32 4 -7 0 -17 -10 -24
-24 -18 4 -41 33 -26 25 14 42 14 18 0 -20 -12 -13 -31 8 -22 8 3 15 0 15 -5
0 -6 -9 -14 -20 -17 -11 -3 -20 -11 -20 -16 0 -13 24 -11 38 3 17 17 28 2 12
-17 -15 -18 1 -20 19 -3 10 11 10 7 2 -15 -20 -52 -4 -55 80 -11 44 22 55 24
232 23 164 0 188 -3 196 -17 8 -15 10 -15 14 -2 10 30 17 239 9 244 -5 3 -81
6 -170 7 -89 1 -161 4 -160 8 2 19 -5 20 -33 6 -17 -9 -33 -14 -36 -11 -3 3 2
8 11 12 9 3 14 10 11 15 -3 4 -22 -1 -43 -12 -20 -12 -28 -14 -18 -5 10 8 24
17 30 19 19 7 -7 24 -29 19z m-55 -77 c0 -6 -56 -35 -67 -35 -4 0 6 9 22 20
29 19 45 25 45 15z m65 -5 c3 -5 2 -10 -4 -10 -5 0 -13 5 -16 10 -3 6 -2 10 4
10 5 0 13 -4 16 -10z m131 -12 c-3 -13 -5 -53 -5 -90 l-1 -68 -67 0 c-56 1
-65 3 -48 12 19 11 49 45 51 61 1 4 2 8 4 10 4 5 8 67 4 67 -3 0 -17 -7 -32
-17 -21 -12 -19 -9 8 15 43 39 92 44 86 10z m91 -18 c15 0 19 -8 18 -47 0 -44
-2 -47 -35 -59 -19 -7 -38 -13 -42 -13 -5 -1 -8 33 -8 75 l0 76 25 -16 c13 -9
32 -16 42 -16z m171 -12 c1 -24 -2 -38 -6 -32 -8 13 -60 40 -111 59 -35 13
-35 14 40 14 l76 1 1 -42z m-444 -2 c-3 -8 -12 -12 -20 -9 -10 3 -12 0 -9 -10
7 -18 -15 -28 -46 -20 -20 6 -17 8 22 29 52 27 60 29 53 10z m370 -14 c41 -20
36 -33 -16 -46 -23 -5 -28 -3 -28 13 0 11 -3 26 -6 35 -8 21 4 20 50 -2z
m-384 -37 c-7 -8 -17 -15 -23 -15 -6 0 -2 7 9 15 25 19 30 19 14 0z m460 -39
c0 -33 -2 -34 -42 -37 -24 -2 -68 -2 -98 1 l-55 5 35 14 c36 15 139 49 153 50
4 1 7 -14 7 -33z m-400 -11 c0 -3 -43 0 -60 4 -3 1 2 5 9 10 13 9 51 -2 51
-14z m-65 -4 c3 -6 -4 -15 -15 -21 -16 -8 -20 -8 -18 2 2 7 8 16 13 20 13 10
13 10 20 -1z"/>
</g>
</svg>
