<?xml version="1.0" standalone="no"?>
<!DOCTYPE svg PUBLIC "-//W3C//DTD SVG 20010904//EN"
 "http://www.w3.org/TR/2001/REC-SVG-20010904/DTD/svg10.dtd">
<svg version="1.0" xmlns="http://www.w3.org/2000/svg"
 width="130.000000pt" height="45.000000pt" viewBox="0 0 130.000000 45.000000"
 preserveAspectRatio="xMidYMid meet">
<metadata>
Created by potrace 1.16, written by Peter Selinger 2001-2019
</metadata>
<g transform="translate(0.000000,45.000000) scale(0.100000,-0.100000)"
fill="#000000" stroke="none">
<path d="M320 373 c-11 -20 -20 -39 -18 -42 5 -11 145 -141 152 -141 15 0 2
22 -49 79 -55 62 -72 100 -37 86 9 -4 33 -12 52 -17 19 -6 40 -13 45 -17 6 -4
38 -16 73 -26 34 -10 62 -20 62 -23 0 -3 -8 -11 -17 -18 -16 -12 -12 -13 28
-8 30 4 49 2 53 -5 4 -6 14 -11 22 -11 17 0 19 30 2 30 -7 1 3 9 22 20 66 36
131 23 319 -67 51 -24 91 -46 90 -48 -15 -13 -85 -46 -142 -64 -84 -28 -137
-29 -207 -2 -30 12 -63 21 -74 21 -10 0 -35 10 -54 22 l-35 22 41 17 c23 10
42 23 42 29 0 13 -1 13 -61 -10 -29 -12 -58 -19 -66 -16 -7 3 -13 0 -13 -7 0
-12 -174 -97 -197 -97 -21 0 -15 22 17 64 32 42 40 67 15 46 -9 -7 -34 -35
-56 -61 -33 -40 -38 -52 -30 -67 6 -11 17 -22 25 -25 7 -3 68 22 135 55 l121
60 47 -27 c27 -15 56 -35 66 -43 9 -8 25 -16 35 -17 9 -1 47 -5 83 -9 72 -9
125 2 248 51 71 28 201 108 201 123 0 16 -10 12 -61 -21 l-48 -31 -118 60
c-153 77 -257 109 -306 93 -20 -7 -41 -19 -47 -27 -21 -25 -85 -13 -185 36
-22 10 -66 30 -97 44 l-57 24 -21 -35z"/>
<path d="M111 241 c-15 -28 -10 -133 7 -139 7 -2 12 5 12 17 0 40 103 44 108
4 5 -31 22 -29 22 2 0 23 4 25 40 25 22 0 40 5 40 10 0 6 -15 10 -34 10 -28 0
-35 4 -38 22 -4 30 -26 34 -30 6 -3 -25 -32 -34 -75 -23 -18 4 -23 11 -21 28
3 21 10 22 106 28 111 7 150 19 61 19 -30 0 -84 3 -120 6 -62 6 -68 5 -78 -15z"/>
</g>
</svg>
