<?xml version="1.0" standalone="no"?>
<!DOCTYPE svg PUBLIC "-//W3C//DTD SVG 20010904//EN"
 "http://www.w3.org/TR/2001/REC-SVG-20010904/DTD/svg10.dtd">
<svg version="1.0" xmlns="http://www.w3.org/2000/svg"
 width="111.000000pt" height="73.000000pt" viewBox="0 0 111.000000 73.000000"
 preserveAspectRatio="xMidYMid meet">
<metadata>
Created by potrace 1.16, written by Peter Selinger 2001-2019
</metadata>
<g transform="translate(0.000000,73.000000) scale(0.100000,-0.100000)"
fill="#000000" stroke="none">
<path d="M478 618 c-12 -12 -18 -33 -18 -63 l0 -45 -42 0 c-50 0 -113 -39
-122 -76 -6 -23 -9 -24 -104 -24 -53 0 -102 -4 -108 -8 -12 -7 -17 -35 -15
-89 l1 -33 108 0 c107 0 108 0 124 -28 32 -54 60 -69 131 -71 26 -1 27 -2 27
-61 l0 -60 70 0 70 0 0 60 0 60 39 0 c21 0 52 3 69 6 28 6 32 11 38 49 l6 43
95 4 c104 4 113 10 113 66 0 42 -25 52 -131 52 l-79 0 0 43 c0 24 -5 48 -12
55 -7 7 -39 12 -74 12 l-61 0 5 48 c5 57 -5 68 -68 74 -33 3 -49 -1 -62 -14z
m85 -15 c-13 -2 -35 -2 -50 0 -16 2 -5 4 22 4 28 0 40 -2 28 -4z m-3 -58 c0
-34 -1 -35 -34 -32 -22 1 -31 6 -25 12 5 5 9 19 9 32 0 18 6 23 25 23 22 0 25
-4 25 -35z m-175 -74 c-49 -30 -65 -55 -74 -117 l-9 -59 -1 46 c0 25 4 61 10
78 11 32 60 71 89 71 8 0 2 -8 -15 -19z m342 -21 l2 -35 -10 32 -9 32 -88 4
-87 3 95 0 95 -1 2 -35z m-119 11 l82 -1 0 -116 0 -116 -132 6 c-73 3 -143 5
-156 6 -13 0 -34 12 -47 26 -30 32 -33 89 -10 139 23 47 60 62 145 59 19 -1
72 -2 118 -3z m-333 -71 c3 -5 1 -10 -4 -10 -6 0 -11 5 -11 10 0 6 2 10 4 10
3 0 8 -4 11 -10z m-28 -6 c-3 -3 -12 -4 -19 -1 -8 3 -5 6 6 6 11 1 17 -2 13
-5z m-150 -36 c-3 -7 -5 -2 -5 12 0 14 2 19 5 13 2 -7 2 -19 0 -25z m809 15
c-3 -10 -1 -25 4 -33 8 -12 10 -9 10 13 0 16 4 26 8 23 11 -7 2 -66 -10 -66
-5 0 -16 7 -24 15 -11 10 -33 14 -79 11 -57 -2 -65 0 -65 16 0 16 9 18 73 18
50 0 67 3 57 10 -12 8 -10 10 8 10 18 0 22 -4 18 -17z m-628 -10 c-3 -15 -16
-18 -81 -21 -62 -2 -77 0 -77 12 0 17 20 21 103 24 51 2 58 0 55 -15z m451
-110 c1 -20 -4 -33 -11 -33 -10 0 -12 21 -9 82 4 81 5 82 12 33 4 -27 8 -65 8
-82z m-474 63 c17 -1 -16 -4 -73 -4 -57 -1 -101 1 -99 6 5 6 101 6 172 -2z
m628 -3 c-7 -2 -19 -2 -25 0 -7 3 -2 5 12 5 14 0 19 -2 13 -5z m-559 -29 c3
-8 2 -12 -4 -9 -6 3 -10 10 -10 16 0 14 7 11 14 -7z m344 -71 c-15 -2 -42 -2
-60 0 -18 2 -6 4 27 4 33 0 48 -2 33 -4z m-121 -23 c10 0 14 -9 12 -32 -2 -22
1 -32 9 -31 7 2 12 -6 12 -17 0 -16 -7 -20 -34 -20 -19 0 -41 -3 -50 -6 -9 -3
-16 -1 -16 5 0 6 17 11 40 11 22 0 40 5 40 10 0 6 -13 10 -28 10 -26 0 -28 3
-29 41 -1 31 2 39 14 35 8 -3 21 -6 30 -6z"/>
<path d="M510 404 c-120 -40 -132 -46 -118 -59 7 -6 49 -26 92 -44 93 -37 96
-35 96 57 0 69 0 69 -70 46z m42 -66 c3 -27 2 -48 -3 -48 -5 0 -8 5 -6 11 1 6
-17 18 -40 26 -24 8 -43 18 -43 22 0 5 80 39 86 37 1 -1 4 -22 6 -48z"/>
</g>
</svg>
