<?xml version="1.0" standalone="no"?>
<!DOCTYPE svg PUBLIC "-//W3C//DTD SVG 20010904//EN"
 "http://www.w3.org/TR/2001/REC-SVG-20010904/DTD/svg10.dtd">
<svg version="1.0" xmlns="http://www.w3.org/2000/svg"
 width="137.000000pt" height="52.000000pt" viewBox="0 0 137.000000 52.000000"
 preserveAspectRatio="xMidYMid meet">
<metadata>
Created by potrace 1.16, written by Peter Selinger 2001-2019
</metadata>
<g transform="translate(0.000000,52.000000) scale(0.100000,-0.100000)"
fill="#000000" stroke="none">
<path d="M975 383 c-66 -37 -112 -55 -135 -56 -19 0 -86 1 -147 2 -62 1 -141
-4 -175 -10 -54 -11 -210 -13 -340 -6 -21 1 -38 -2 -38 -8 -1 -16 215 -27 300
-16 41 6 115 13 163 17 l89 7 -3 -79 c-2 -48 0 -79 6 -79 6 0 11 35 13 78 3
77 9 88 40 69 13 -9 20 -147 8 -159 -3 -4 -32 -2 -63 3 l-58 9 -3 65 c-3 73
-22 109 -22 43 0 -22 -3 -54 -6 -71 -5 -26 -9 -30 -28 -23 -42 17 -238 33
-309 26 -139 -13 -167 -20 -167 -42 0 -12 7 -14 33 -9 169 35 213 38 308 23
52 -9 128 -22 169 -31 140 -28 300 -18 426 26 39 14 88 11 160 -7 6 -2 14 -17
17 -35 8 -36 27 -32 27 6 0 17 5 24 20 24 14 0 20 -7 20 -22 1 -22 1 -22 15
-4 8 11 21 16 30 13 8 -4 15 -2 15 3 0 6 -7 10 -15 10 -9 0 -15 9 -15 23 0 26
10 42 30 50 13 5 12 6 -1 6 -14 1 -15 8 -9 41 4 22 3 43 -1 46 -5 3 -9 22 -9
43 0 22 -6 44 -15 51 -24 20 -29 4 -17 -48 10 -46 6 -132 -7 -132 -17 1 -31
19 -25 33 3 10 1 24 -6 32 -7 8 -10 36 -8 67 2 42 0 53 -12 53 -12 0 -15 -16
-15 -83 0 -45 -4 -82 -9 -82 -5 0 -45 7 -88 16 -71 14 -101 14 -86 -1 3 -3 37
-10 74 -16 111 -16 112 -16 112 -44 l0 -26 -72 7 c-59 5 -90 2 -175 -20 -57
-14 -123 -26 -147 -26 l-42 0 -1 80 0 79 47 -1 c40 -2 57 5 112 40 36 23 72
42 80 42 8 0 28 14 44 30 16 17 25 29 20 29 -5 -1 -54 -26 -109 -56z m315
-193 c0 -16 -4 -30 -9 -30 -22 0 -41 13 -41 29 0 23 9 31 32 31 13 0 18 -8 18
-30z"/>
<path d="M1095 355 c-22 -13 -57 -32 -77 -41 -39 -17 -47 -29 -25 -37 6 -2 33
11 60 29 26 19 51 34 56 34 11 0 35 29 30 35 -3 2 -22 -7 -44 -20z"/>
<path d="M93 298 c-5 -7 -15 -40 -22 -73 -7 -33 -15 -68 -17 -77 -3 -10 -1
-18 3 -18 10 0 64 125 66 154 2 23 -16 32 -30 14z"/>
</g>
</svg>
