<?xml version="1.0" standalone="no"?>
<!DOCTYPE svg PUBLIC "-//W3C//DTD SVG 20010904//EN"
 "http://www.w3.org/TR/2001/REC-SVG-20010904/DTD/svg10.dtd">
<svg version="1.0" xmlns="http://www.w3.org/2000/svg"
 width="45.000000pt" height="47.000000pt" viewBox="0 0 45.000000 47.000000"
 preserveAspectRatio="xMidYMid meet">
<metadata>
Created by potrace 1.16, written by Peter Selinger 2001-2019
</metadata>
<g transform="translate(0.000000,47.000000) scale(0.100000,-0.100000)"
fill="#000000" stroke="none">
<path d="M176 356 c-11 -18 -15 -53 -15 -147 0 -109 2 -126 19 -144 19 -20 24
-21 97 -11 91 13 87 6 96 172 8 142 7 144 -100 149 -76 4 -82 3 -97 -19z m164
-51 l0 -44 -65 -3 c-84 -4 -81 -23 3 -22 54 0 62 -2 62 -18 0 -16 -9 -18 -71
-18 -52 0 -70 -3 -66 -12 3 -9 25 -12 71 -11 l66 2 0 -49 0 -50 -76 0 -75 0 2
129 2 130 26 4 c14 2 47 5 74 6 l47 1 0 -45z"/>
</g>
</svg>
