<?xml version="1.0" standalone="no"?>
<!DOCTYPE svg PUBLIC "-//W3C//DTD SVG 20010904//EN"
 "http://www.w3.org/TR/2001/REC-SVG-20010904/DTD/svg10.dtd">
<svg version="1.0" xmlns="http://www.w3.org/2000/svg"
 width="124.000000pt" height="49.000000pt" viewBox="0 0 124.000000 49.000000"
 preserveAspectRatio="xMidYMid meet">
<metadata>
Created by potrace 1.16, written by Peter Selinger 2001-2019
</metadata>
<g transform="translate(0.000000,49.000000) scale(0.100000,-0.100000)"
fill="#000000" stroke="none">
<path d="M484 353 c-60 -46 -126 -61 -252 -57 -51 2 -103 -1 -116 -6 -21 -8
-22 -13 -19 -67 6 -76 11 -93 23 -73 7 12 38 16 140 19 128 3 130 3 130 -19 0
-13 5 -20 13 -17 6 2 11 10 9 17 -1 7 0 21 4 32 5 17 8 18 22 5 32 -29 140
-77 185 -83 30 -4 65 -1 104 11 32 9 101 30 153 45 52 16 122 36 155 45 210
58 209 57 50 82 -16 2 -73 15 -125 28 -80 20 -179 37 -391 70 -30 5 -43 0 -85
-32z m276 -22 c30 -5 75 -13 100 -16 25 -4 63 -13 85 -20 22 -7 78 -18 125
-25 l85 -13 -70 -19 c-38 -11 -92 -25 -120 -33 -27 -7 -93 -25 -144 -39 -140
-38 -221 -32 -354 28 -45 20 -48 23 -42 51 3 17 22 46 46 68 l40 39 97 -5 c53
-3 122 -10 152 -16z m-370 -94 l0 -44 -130 1 -130 0 0 38 0 37 103 4 c56 1
114 4 130 5 26 2 27 0 27 -41z"/>
</g>
</svg>
