<?xml version="1.0" standalone="no"?>
<!DOCTYPE svg PUBLIC "-//W3C//DTD SVG 20010904//EN"
 "http://www.w3.org/TR/2001/REC-SVG-20010904/DTD/svg10.dtd">
<svg version="1.0" xmlns="http://www.w3.org/2000/svg"
 width="82.000000pt" height="48.000000pt" viewBox="0 0 82.000000 48.000000"
 preserveAspectRatio="xMidYMid meet">
<metadata>
Created by potrace 1.16, written by Peter Selinger 2001-2019
</metadata>
<g transform="translate(0.000000,48.000000) scale(0.100000,-0.100000)"
fill="#000000" stroke="none">
<path d="M435 409 c-70 -28 -178 -50 -185 -39 -3 5 -32 12 -63 16 -85 10 -95
-2 -89 -113 3 -59 9 -91 19 -98 8 -6 46 -8 90 -5 73 5 80 4 130 -27 71 -42
113 -63 130 -63 32 0 232 119 257 154 l20 26 -30 31 c-16 17 -42 38 -59 46
-16 9 -56 33 -88 54 -32 22 -64 39 -70 38 -7 0 -34 -10 -62 -20z m73 -18 c9
-5 42 -21 72 -36 76 -39 80 -43 80 -85 0 -33 -6 -43 -53 -83 -60 -51 -120 -87
-144 -87 -9 0 -52 23 -95 51 l-78 52 0 72 0 72 48 11 c26 7 70 19 97 26 28 8
51 15 53 15 1 1 10 -3 20 -8z m-274 -36 c-4 -10 0 -15 15 -15 18 0 21 -6 20
-37 -1 -49 -11 -84 -24 -84 -5 0 -9 -6 -7 -14 2 -10 -14 -14 -58 -17 l-60 -3
0 75 c0 41 4 80 8 87 4 6 30 13 57 16 28 2 51 4 52 5 1 1 0 -5 -3 -13z"/>
</g>
</svg>
