<?xml version="1.0" standalone="no"?>
<!DOCTYPE svg PUBLIC "-//W3C//DTD SVG 20010904//EN"
 "http://www.w3.org/TR/2001/REC-SVG-20010904/DTD/svg10.dtd">
<svg version="1.0" xmlns="http://www.w3.org/2000/svg"
 width="123.000000pt" height="54.000000pt" viewBox="0 0 123.000000 54.000000"
 preserveAspectRatio="xMidYMid meet">
<metadata>
Created by potrace 1.16, written by Peter Selinger 2001-2019
</metadata>
<g transform="translate(0.000000,54.000000) scale(0.100000,-0.100000)"
fill="#000000" stroke="none">
<path d="M377 533 c155 -2 411 -2 570 0 158 1 32 2 -282 2 -314 0 -443 -1
-288 -2z"/>
<path d="M497 467 c-9 -19 -49 -70 -91 -113 l-76 -77 -123 6 c-118 6 -124 6
-149 -17 -19 -16 -26 -30 -24 -47 3 -13 7 -45 11 -72 6 -49 21 -63 27 -25 4
31 43 39 183 38 99 0 135 -5 200 -25 44 -13 83 -21 88 -16 4 4 3 28 -3 52 -5
24 -13 107 -16 184 -4 77 -8 142 -10 144 -1 2 -9 -13 -17 -32z m2 -140 c-1
-57 -4 -119 -7 -139 l-4 -35 -58 14 c-68 15 -241 23 -305 13 l-45 -7 0 31 c0
56 5 58 146 55 l129 -3 70 87 c39 48 71 87 73 87 2 0 2 -46 1 -103z"/>
<path d="M1106 318 c-4 -90 -9 -164 -10 -166 -2 -1 -34 5 -72 14 -55 13 -99
15 -211 10 -79 -3 -143 -2 -143 2 0 4 5 23 10 43 12 43 30 49 151 49 46 0 79
4 79 10 0 6 -33 10 -79 10 -43 0 -98 3 -122 6 -42 5 -45 4 -60 -29 -9 -18 -15
-45 -13 -58 2 -13 6 -42 9 -64 l7 -39 17 23 c16 21 26 23 152 28 113 4 147 2
218 -16 95 -23 114 -18 102 27 -4 15 -9 88 -10 162 -1 74 -5 138 -10 143 -4 4
-11 -65 -15 -155z"/>
<path d="M1002 360 c-46 -44 -80 -85 -77 -90 7 -12 35 -13 35 -2 0 4 22 31 49
61 42 47 88 112 79 111 -2 0 -40 -37 -86 -80z"/>
</g>
</svg>
