<?xml version="1.0" standalone="no"?>
<!DOCTYPE svg PUBLIC "-//W3C//DTD SVG 20010904//EN"
 "http://www.w3.org/TR/2001/REC-SVG-20010904/DTD/svg10.dtd">
<svg version="1.0" xmlns="http://www.w3.org/2000/svg"
 width="102.000000pt" height="40.000000pt" viewBox="0 0 102.000000 40.000000"
 preserveAspectRatio="xMidYMid meet">
<metadata>
Created by potrace 1.16, written by Peter Selinger 2001-2019
</metadata>
<g transform="translate(0.000000,40.000000) scale(0.100000,-0.100000)"
fill="#000000" stroke="none">
<path d="M158 317 c-23 -19 -28 -30 -29 -77 -2 -73 -8 -100 -24 -100 -21 0
-40 -29 -27 -42 8 -8 32 -2 89 20 43 17 99 37 126 43 48 12 73 29 40 29 -10 0
-52 -9 -93 -20 -41 -11 -80 -20 -86 -20 -7 0 -5 25 5 76 l14 75 111 -8 c124
-9 122 -9 408 3 205 9 234 6 209 -22 -11 -12 -31 -97 -31 -130 0 -16 4 -24 8
-19 14 16 74 186 68 192 -7 8 -518 3 -530 -5 -15 -8 -69 -3 -144 14 -81 18
-82 18 -114 -9z"/>
<path d="M394 210 c-57 -22 -33 -30 95 -30 114 0 173 -5 324 -25 20 -3 37 -1
37 4 0 7 -52 16 -220 36 -14 2 -59 6 -100 10 -41 3 -84 8 -95 10 -11 2 -30 -1
-41 -5z"/>
</g>
</svg>
