<?xml version="1.0" standalone="no"?>
<!DOCTYPE svg PUBLIC "-//W3C//DTD SVG 20010904//EN"
 "http://www.w3.org/TR/2001/REC-SVG-20010904/DTD/svg10.dtd">
<svg version="1.0" xmlns="http://www.w3.org/2000/svg"
 width="95.000000pt" height="49.000000pt" viewBox="0 0 95.000000 49.000000"
 preserveAspectRatio="xMidYMid meet">
<metadata>
Created by potrace 1.16, written by Peter Selinger 2001-2019
</metadata>
<g transform="translate(0.000000,49.000000) scale(0.100000,-0.100000)"
fill="#000000" stroke="none">
<path d="M795 420 c-3 -5 -2 -10 4 -10 5 0 13 5 16 10 3 6 2 10 -4 10 -5 0
-13 -4 -16 -10z"/>
<path d="M644 409 c-13 -21 27 -39 87 -39 32 0 61 -4 64 -10 3 -6 -1 -7 -9 -4
-9 3 -27 -3 -41 -14 -15 -12 -36 -19 -53 -17 -15 2 -153 6 -307 10 -334 7
-315 14 -314 -113 0 -79 12 -131 22 -102 8 21 20 130 19 163 l-1 27 311 0 310
0 59 26 c32 15 56 30 54 35 -3 4 0 11 6 15 8 4 9 3 5 -4 -10 -17 4 -14 44 8
21 11 28 19 18 20 -9 0 -20 -4 -23 -10 -3 -5 -13 -10 -21 -10 -9 0 -12 5 -8
11 4 8 1 8 -12 1 -33 -17 -125 -10 -186 13 -9 4 -19 1 -24 -6z"/>
<path d="M870 360 c-8 -5 -12 -12 -9 -15 4 -3 12 1 19 10 14 17 11 19 -10 5z"/>
<path d="M818 327 c-3 -6 -4 -36 -2 -64 2 -35 -1 -53 -8 -53 -6 0 -8 -3 -4 -7
4 -4 -8 -15 -26 -26 -31 -17 -28 -18 17 -2 l20 7 -20 -14 c-11 -9 -31 -19 -44
-23 -23 -7 -23 -7 -19 69 2 56 0 77 -10 81 -18 7 -22 -10 -19 -91 3 -93 14
-108 70 -88 56 19 87 36 87 46 0 5 -4 6 -10 3 -5 -3 -10 -3 -10 2 0 4 13 14
29 21 19 8 28 18 24 27 -4 11 -10 12 -24 4 -11 -5 -17 -14 -14 -20 4 -5 1 -9
-4 -9 -6 0 -11 20 -11 45 0 39 4 47 25 57 14 6 25 15 25 20 0 5 -11 1 -25 -8
-24 -16 -25 -15 -25 4 0 24 -16 38 -22 19z m12 -167 c0 -5 -8 -10 -17 -10 -15
0 -16 2 -3 10 19 12 20 12 20 0z"/>
<path d="M226 267 c-5 -9 -6 -30 -4 -46 4 -28 1 -30 -41 -42 -59 -16 -61 -17
-54 -35 3 -9 9 -11 17 -6 27 22 128 44 176 40 28 -3 53 -1 56 3 3 5 -6 9 -20
9 -23 0 -26 4 -26 34 0 19 -4 38 -10 41 -6 4 -10 -8 -10 -29 0 -25 -5 -36 -19
-41 -33 -10 -50 4 -53 48 -3 31 -6 38 -12 24z"/>
<path d="M266 273 c-10 -10 -7 -61 4 -68 11 -7 12 -4 14 38 2 29 -6 42 -18 30z"/>
<path d="M550 191 c0 -31 -61 -42 -103 -19 -30 16 -46 18 -53 6 -23 -37 115
-53 159 -18 26 20 83 28 72 10 -3 -5 -1 -10 4 -10 6 0 11 7 11 15 0 8 3 14 8
14 4 -1 14 -1 22 1 31 3 -25 19 -72 19 -41 1 -48 -2 -48 -18z"/>
<path d="M821 121 c-66 -24 -67 -44 -1 -38 61 6 63 8 53 34 -8 20 -9 20 -52 4z"/>
</g>
</svg>
