<?xml version="1.0" standalone="no"?>
<!DOCTYPE svg PUBLIC "-//W3C//DTD SVG 20010904//EN"
 "http://www.w3.org/TR/2001/REC-SVG-20010904/DTD/svg10.dtd">
<svg version="1.0" xmlns="http://www.w3.org/2000/svg"
 width="83.000000pt" height="48.000000pt" viewBox="0 0 83.000000 48.000000"
 preserveAspectRatio="xMidYMid meet">
<metadata>
Created by potrace 1.16, written by Peter Selinger 2001-2019
</metadata>
<g transform="translate(0.000000,48.000000) scale(0.100000,-0.100000)"
fill="#000000" stroke="none">
<path d="M553 430 c-23 -22 -50 -40 -59 -40 -12 0 -10 5 10 21 39 31 25 34
-19 4 -21 -14 -42 -25 -46 -25 -14 0 -11 17 6 34 33 32 13 38 -22 5 -24 -22
-29 -24 -14 -7 14 16 22 31 18 34 -8 9 -52 -24 -52 -39 0 -6 -7 -12 -15 -12
-8 0 -14 7 -12 15 3 10 -3 9 -19 -5 l-22 -20 12 23 c15 27 0 29 -24 2 -18 -20
-72 -29 -60 -10 4 6 10 8 14 5 5 -2 16 4 26 15 10 11 13 20 7 20 -6 0 -16 -8
-21 -17 -6 -10 -11 -13 -11 -7 0 14 -31 14 -48 1 -11 -8 -11 -12 0 -18 10 -7
10 -9 -1 -9 -7 0 -11 -6 -8 -15 4 -9 -5 -21 -23 -32 -17 -9 -30 -21 -30 -25 0
-13 8 -9 44 23 20 17 43 29 53 27 14 -4 11 -8 -15 -24 -25 -15 -31 -24 -26
-39 3 -11 7 -30 8 -42 0 -13 2 -23 4 -23 7 0 29 26 41 48 7 12 17 20 22 16 6
-4 4 -13 -7 -25 -9 -11 -15 -22 -11 -25 6 -6 32 37 29 49 -1 4 10 7 25 7 l27
0 -34 -35 c-40 -41 -35 -58 6 -20 21 19 29 22 36 13 6 -10 10 -10 17 2 5 8 8
17 7 20 -7 12 32 65 50 68 15 3 11 -4 -16 -33 -28 -30 -30 -34 -10 -22 15 9
39 14 60 11 61 -7 91 14 50 36 -16 8 -20 8 -18 -2 2 -8 -9 -14 -27 -16 -29 -4
-30 -4 -11 17 19 21 66 26 66 7 0 -6 5 -5 12 2 7 7 32 12 57 12 l45 0 -24 -17
c-32 -22 -39 -32 -35 -54 2 -10 -1 -21 -6 -25 -5 -3 -8 -2 -7 3 1 4 -2 18 -6
31 -11 34 -34 11 -28 -28 3 -21 -2 -37 -14 -51 -16 -18 -16 -19 -1 -13 14 5
17 0 17 -26 0 -21 4 -30 13 -27 8 2 11 18 9 44 -3 37 0 44 32 69 35 28 47 54
25 54 -5 0 -8 -4 -5 -8 3 -5 -1 -9 -9 -9 -17 0 -10 14 14 26 16 9 18 4 20 -51
2 -46 -2 -65 -16 -81 -16 -20 -16 -20 0 -8 16 12 17 9 17 -47 l0 -61 -130 -3
c-72 -2 -130 0 -130 4 0 31 15 38 76 38 35 0 64 4 64 9 0 12 -276 19 -296 8
-16 -9 -18 -93 -4 -132 6 -17 8 -15 14 13 7 31 9 32 61 32 45 0 53 -3 58 -21
6 -24 27 -17 27 9 0 15 16 17 136 18 74 1 137 3 139 6 3 2 6 35 9 74 2 38 8
108 12 157 l7 87 -54 0 -53 0 34 35 c47 49 16 44 -37 -5z m-273 -59 c0 -5 -7
-12 -16 -15 -14 -5 -15 -4 -4 9 14 17 20 19 20 6z m56 -8 c-2 -10 -11 -20 -22
-22 -19 -3 -19 -3 0 18 23 26 25 26 22 4z m44 3 c0 -2 -8 -10 -17 -17 -16 -13
-17 -12 -4 4 13 16 21 21 21 13z m-150 -61 c-5 -7 -9 -14 -7 -16 1 -2 0 -3 -2
-1 -11 7 -7 29 5 29 9 0 11 -4 4 -12z m100 -185 c0 -17 -7 -20 -50 -20 -43 0
-50 3 -50 20 0 17 7 20 50 20 43 0 50 -3 50 -20z"/>
<path d="M405 300 c-10 -11 -14 -20 -10 -20 5 0 -2 -11 -15 -25 -13 -14 -22
-27 -19 -29 5 -5 46 31 79 70 14 16 18 23 10 17 -17 -15 -34 -17 -25 -3 10 17
-1 11 -20 -10z"/>
<path d="M467 283 c-43 -33 -50 -54 -9 -24 29 20 59 51 50 51 -3 0 -21 -12
-41 -27z"/>
<path d="M574 245 c-10 -8 -14 -15 -8 -15 6 0 17 7 24 15 16 19 9 19 -16 0z"/>
</g>
</svg>
