<?xml version="1.0" standalone="no"?>
<!DOCTYPE svg PUBLIC "-//W3C//DTD SVG 20010904//EN"
 "http://www.w3.org/TR/2001/REC-SVG-20010904/DTD/svg10.dtd">
<svg version="1.0" xmlns="http://www.w3.org/2000/svg"
 width="57.000000pt" height="53.000000pt" viewBox="0 0 57.000000 53.000000"
 preserveAspectRatio="xMidYMid meet">
<metadata>
Created by potrace 1.16, written by Peter Selinger 2001-2019
</metadata>
<g transform="translate(0.000000,53.000000) scale(0.100000,-0.100000)"
fill="#000000" stroke="none">
<path d="M280 472 c-44 -3 -74 -18 -65 -31 2 -4 5 -54 5 -112 2 -113 6 -142
21 -134 5 4 9 59 9 124 0 115 1 119 23 125 43 11 97 7 97 -8 0 -11 -15 -16
-52 -18 -31 -2 -51 -7 -48 -13 3 -5 26 -9 53 -8 41 2 47 0 47 -17 0 -17 -6
-20 -46 -17 -30 1 -48 -2 -51 -10 -3 -9 10 -13 46 -13 40 0 51 -3 51 -16 0
-13 -9 -15 -47 -12 -31 2 -48 -1 -50 -9 -3 -10 11 -13 51 -13 l56 0 0 -47 c0
-94 18 -26 24 93 l6 122 -27 6 c-48 12 -57 12 -103 8z"/>
<path d="M270 250 c0 -5 20 -10 44 -10 25 0 48 5 51 10 4 6 -13 10 -44 10 -28
0 -51 -4 -51 -10z"/>
<path d="M245 179 c-10 -16 18 -21 81 -14 35 4 62 11 59 15 -7 11 -134 10
-140 -1z"/>
</g>
</svg>
