<?xml version="1.0" standalone="no"?>
<!DOCTYPE svg PUBLIC "-//W3C//DTD SVG 20010904//EN"
 "http://www.w3.org/TR/2001/REC-SVG-20010904/DTD/svg10.dtd">
<svg version="1.0" xmlns="http://www.w3.org/2000/svg"
 width="95.000000pt" height="59.000000pt" viewBox="0 0 95.000000 59.000000"
 preserveAspectRatio="xMidYMid meet">
<metadata>
Created by potrace 1.16, written by Peter Selinger 2001-2019
</metadata>
<g transform="translate(0.000000,59.000000) scale(0.100000,-0.100000)"
fill="#000000" stroke="none">
<path d="M366 492 c-7 -15 -17 -49 -21 -76 -11 -77 -5 -74 -123 -75 -58 -1
-110 -5 -115 -10 -9 -9 -11 -45 -8 -126 1 -25 3 -28 14 -15 9 12 36 16 114 18
l102 3 11 -43 c14 -53 50 -118 64 -118 6 1 67 54 136 120 68 65 126 117 128
115 2 -2 4 -35 4 -72 -1 -103 -1 -103 72 -103 39 0 67 5 74 13 12 15 22 206
11 213 -5 3 -9 45 -9 95 0 53 -4 89 -10 89 -5 0 -10 -3 -10 -8 0 -4 -28 -7
-62 -7 l-63 0 -3 -77 c-2 -43 -5 -78 -8 -78 -2 0 -67 38 -144 85 l-140 84 -14
-27z m72 -35 c20 -12 48 -28 62 -35 76 -38 165 -92 165 -100 0 -13 -208 -205
-240 -222 -32 -17 -39 -10 -58 57 -12 39 -13 53 -4 57 9 5 9 7 0 12 -8 3 -13
24 -13 50 0 37 3 44 20 44 11 0 20 5 20 10 0 6 -7 10 -15 10 -8 0 -15 9 -15
19 0 34 23 121 32 121 5 0 25 -10 46 -23z m356 -14 c3 -21 6 -98 6 -170 l0
-133 -50 0 -49 0 0 170 0 170 43 0 c42 0 44 -1 50 -37z m-464 -169 l0 -45 -97
3 -98 3 -3 37 c-4 42 -4 41 131 45 l67 1 0 -44z"/>
<path d="M435 338 c-84 -56 -82 -53 -49 -95 17 -21 33 -46 37 -56 6 -17 12
-15 55 18 26 20 59 42 75 48 15 6 27 15 27 19 0 4 -19 28 -41 55 -23 26 -42
49 -43 50 -1 1 -28 -16 -61 -39z m85 -26 l34 -29 -50 -36 c-27 -20 -54 -37
-60 -37 -6 0 -23 17 -37 37 l-27 38 34 17 c19 10 38 22 41 28 10 17 29 11 65
-18z"/>
</g>
</svg>
