<?xml version="1.0" standalone="no"?>
<!DOCTYPE svg PUBLIC "-//W3C//DTD SVG 20010904//EN"
 "http://www.w3.org/TR/2001/REC-SVG-20010904/DTD/svg10.dtd">
<svg version="1.0" xmlns="http://www.w3.org/2000/svg"
 width="100.000000pt" height="52.000000pt" viewBox="0 0 100.000000 52.000000"
 preserveAspectRatio="xMidYMid meet">
<metadata>
Created by potrace 1.16, written by Peter Selinger 2001-2019
</metadata>
<g transform="translate(0.000000,52.000000) scale(0.100000,-0.100000)"
fill="#000000" stroke="none">
<path d="M327 403 c-4 -3 -7 -13 -7 -22 0 -13 -15 -16 -94 -16 -52 0 -97 -3
-100 -6 -9 -9 6 -239 16 -233 4 3 8 14 8 25 0 13 4 18 11 13 7 -4 47 -6 90 -5
66 2 79 0 79 -13 0 -9 5 -16 10 -16 6 0 10 7 10 15 0 26 196 25 216 -1 19 -24
23 -16 26 49 l3 62 45 3 c25 1 52 5 60 9 34 14 42 12 28 -4 -9 -11 -10 -17 -2
-20 6 -2 42 -24 79 -48 38 -25 71 -43 74 -40 3 3 -25 35 -61 71 l-67 64 27 18
c39 25 66 51 60 58 -7 6 -115 -52 -124 -67 -3 -5 -30 -9 -60 -9 l-54 0 0 33 0
33 -87 2 c-106 2 -143 9 -143 27 0 7 -7 16 -16 19 -19 7 -19 7 -27 -1z m-3
-109 c3 -26 6 -60 6 -75 l0 -29 -79 1 c-44 1 -85 -2 -91 -6 -8 -5 -11 9 -9 51
4 94 3 93 73 97 33 2 68 4 77 5 12 2 18 -10 23 -44z m220 40 c9 -3 16 -15 16
-26 0 -17 -5 -19 -30 -13 -26 6 -30 4 -30 -14 0 -17 6 -21 35 -21 33 0 35 -2
35 -34 l0 -34 -82 -7 c-46 -3 -96 -5 -112 -3 -27 2 -28 4 -22 47 3 24 6 59 6
77 l0 34 84 0 c46 0 91 -3 100 -6z"/>
</g>
</svg>
