<?xml version="1.0" standalone="no"?>
<!DOCTYPE svg PUBLIC "-//W3C//DTD SVG 20010904//EN"
 "http://www.w3.org/TR/2001/REC-SVG-20010904/DTD/svg10.dtd">
<svg version="1.0" xmlns="http://www.w3.org/2000/svg"
 width="98.000000pt" height="49.000000pt" viewBox="0 0 98.000000 49.000000"
 preserveAspectRatio="xMidYMid meet">
<metadata>
Created by potrace 1.16, written by Peter Selinger 2001-2019
</metadata>
<g transform="translate(0.000000,49.000000) scale(0.100000,-0.100000)"
fill="#000000" stroke="none">
<path d="M493 413 c-3 -7 -11 -13 -19 -13 -8 0 -14 -5 -14 -11 0 -7 -47 -10
-152 -7 -131 3 -153 1 -153 -12 0 -13 23 -15 150 -15 l150 0 3 -57 3 -58 -188
-2 -188 -3 -1 -61 c-1 -34 2 -67 6 -74 10 -17 31 -4 23 15 -4 12 3 15 30 15
28 0 37 -5 43 -22 6 -21 7 -21 21 -2 13 18 29 19 306 20 161 1 299 -2 308 -7
14 -7 17 4 23 89 4 53 9 113 12 132 4 23 0 42 -9 55 -14 18 -30 20 -182 25
-129 4 -169 2 -172 -7z m306 -29 c5 -5 11 -39 13 -76 2 -37 1 -64 -2 -59 -10
17 -177 69 -191 60 -8 -5 -40 -9 -71 -9 -54 0 -58 2 -58 23 1 63 5 66 99 69
132 5 200 3 210 -8z m-189 -126 c0 -22 -3 -23 -60 -20 -51 3 -60 7 -60 23 0
17 8 19 60 19 56 0 60 -2 60 -22z m115 3 c64 -17 68 -19 45 -28 -65 -26 -70
-26 -70 1 0 17 -5 26 -16 26 -12 0 -15 -7 -12 -30 4 -26 1 -30 -19 -30 -24 0
-28 14 -17 58 7 26 2 26 89 3z m95 -73 l0 -43 -130 3 c-105 3 -130 6 -130 18
0 16 45 20 55 4 4 -6 15 -6 31 0 14 6 30 7 36 4 6 -4 13 -3 17 2 6 9 97 51
114 53 4 1 7 -18 7 -41z m-378 27 c9 -4 13 -16 10 -34 l-4 -29 -119 -1 -120
-2 3 28 c3 26 7 28 58 34 79 8 156 10 172 4z m96 -7 c-7 -20 -48 -23 -48 -4 0
11 9 16 26 16 16 0 24 -5 22 -12z m72 -2 c0 -9 -7 -12 -20 -9 -11 3 -20 9 -20
14 0 5 9 9 20 9 11 0 20 -6 20 -14z m-430 -21 c0 -18 -5 -25 -20 -25 -11 0
-23 -1 -27 -2 -14 -3 -15 34 -1 43 26 17 48 10 48 -16z m360 -15 c8 -5 11 -10
5 -10 -5 0 -17 5 -25 10 -8 5 -10 10 -5 10 6 0 17 -5 25 -10z"/>
</g>
</svg>
