<?xml version="1.0" standalone="no"?>
<!DOCTYPE svg PUBLIC "-//W3C//DTD SVG 20010904//EN"
 "http://www.w3.org/TR/2001/REC-SVG-20010904/DTD/svg10.dtd">
<svg version="1.0" xmlns="http://www.w3.org/2000/svg"
 width="81.000000pt" height="38.000000pt" viewBox="0 0 81.000000 38.000000"
 preserveAspectRatio="xMidYMid meet">
<metadata>
Created by potrace 1.16, written by Peter Selinger 2001-2019
</metadata>
<g transform="translate(0.000000,38.000000) scale(0.100000,-0.100000)"
fill="#000000" stroke="none">
<path d="M105 306 c-9 -14 -13 -53 -12 -123 l1 -103 255 0 c141 0 262 4 269 9
8 4 13 17 12 27 -5 47 -1 54 34 54 44 0 96 11 96 20 0 4 -29 7 -65 6 -46 -1
-65 3 -65 12 0 8 18 12 54 12 69 0 86 19 19 22 -26 0 -54 1 -61 1 -10 -1 -13
11 -10 40 l3 42 -258 1 c-253 1 -258 1 -272 -20z m170 -50 c-19 -24 -35 -46
-35 -50 0 -3 25 -6 55 -6 30 0 55 5 55 10 0 6 -16 10 -35 10 -33 0 -34 1 -23
25 6 14 14 25 18 25 3 0 21 -15 38 -33 42 -43 29 -55 -55 -52 -35 1 -63 -1
-63 -6 0 -4 14 -19 30 -32 17 -14 30 -28 30 -31 0 -3 -35 -6 -79 -6 l-78 0 -7
31 c-10 51 -7 147 5 151 6 2 49 4 95 5 l85 2 -36 -43z m225 -51 l0 -95 -79 0
c-44 0 -82 4 -85 8 -3 5 13 26 34 47 l39 39 -34 42 c-19 23 -35 45 -35 48 0 3
36 6 80 6 l80 0 0 -95z m103 34 c3 -34 3 -77 0 -95 -5 -32 -8 -34 -42 -31 -27
2 -36 7 -35 20 0 9 1 51 2 92 l2 75 34 0 33 0 6 -61z m-273 -84 c-14 -17 -40
-20 -40 -6 0 8 18 16 44 20 5 0 3 -6 -4 -14z"/>
</g>
</svg>
