<?xml version="1.0" standalone="no"?>
<!DOCTYPE svg PUBLIC "-//W3C//DTD SVG 20010904//EN"
 "http://www.w3.org/TR/2001/REC-SVG-20010904/DTD/svg10.dtd">
<svg version="1.0" xmlns="http://www.w3.org/2000/svg"
 width="73.000000pt" height="41.000000pt" viewBox="0 0 73.000000 41.000000"
 preserveAspectRatio="xMidYMid meet">
<metadata>
Created by potrace 1.16, written by Peter Selinger 2001-2019
</metadata>
<g transform="translate(0.000000,41.000000) scale(0.100000,-0.100000)"
fill="#000000" stroke="none">
<path d="M146 341 c-9 -14 13 -26 96 -53 96 -32 91 -19 -9 27 -84 39 -80 38
-87 26z"/>
<path d="M111 238 c0 -57 4 -112 9 -123 5 -11 9 -16 9 -11 1 6 7 1 15 -10 14
-19 15 -19 34 1 11 11 52 51 91 89 39 38 71 74 71 80 0 8 -2 8 -8 0 -4 -6 -43
-15 -86 -20 -48 -5 -81 -14 -84 -21 -5 -16 34 -17 76 -2 65 23 67 5 3 -41 -33
-24 -71 -48 -82 -52 -21 -8 -21 -7 -14 87 5 70 4 100 -5 110 -25 30 -30 13
-29 -87z"/>
<path d="M382 294 c-16 -11 -22 -24 -20 -42 3 -24 8 -27 43 -30 50 -4 80 16
71 45 -5 16 -50 43 -70 43 -1 0 -12 -7 -24 -16z m76 -36 c3 -13 -3 -18 -22
-18 -20 0 -26 5 -26 21 0 15 5 20 22 17 13 -2 24 -11 26 -20z"/>
<path d="M521 243 c-44 -31 -9 -82 47 -68 32 8 62 33 62 51 0 26 -79 39 -109
17z m78 -12 c18 -11 5 -31 -20 -31 -12 0 -19 7 -19 20 0 21 16 26 39 11z"/>
<path d="M367 194 c-22 -12 -28 -21 -25 -42 3 -24 8 -27 45 -30 54 -4 83 11
83 44 0 17 -8 27 -26 34 -33 13 -43 12 -77 -6z m78 -29 c0 -14 -8 -21 -27 -23
-24 -3 -28 0 -28 23 0 23 4 26 28 23 19 -2 27 -9 27 -23z"/>
</g>
</svg>
