<?xml version="1.0" standalone="no"?>
<!DOCTYPE svg PUBLIC "-//W3C//DTD SVG 20010904//EN"
 "http://www.w3.org/TR/2001/REC-SVG-20010904/DTD/svg10.dtd">
<svg version="1.0" xmlns="http://www.w3.org/2000/svg"
 width="54.000000pt" height="42.000000pt" viewBox="0 0 54.000000 42.000000"
 preserveAspectRatio="xMidYMid meet">
<metadata>
Created by potrace 1.16, written by Peter Selinger 2001-2019
</metadata>
<g transform="translate(0.000000,42.000000) scale(0.100000,-0.100000)"
fill="#000000" stroke="none">
<path d="M110 326 c0 -2 25 -18 56 -36 52 -29 55 -32 38 -45 -18 -13 -18 -14
-1 -20 9 -4 28 -4 42 -1 49 12 23 -11 -77 -70 -63 -36 -95 -60 -84 -62 9 -2
27 3 39 12 108 76 153 106 160 106 4 0 7 -25 7 -56 0 -34 4 -53 10 -49 6 3 10
33 10 66 l0 59 68 0 c37 0 74 5 82 10 10 7 -9 10 -62 10 l-77 0 -3 37 c-4 52
-28 56 -28 4 0 -29 -4 -41 -14 -41 -8 0 -18 5 -21 10 -13 21 -145 81 -145 66z"/>
<path d="M77 313 c-10 -10 -8 -181 2 -187 13 -8 17 10 19 94 2 71 -6 108 -21
93z"/>
</g>
</svg>
