<?xml version="1.0" standalone="no"?>
<!DOCTYPE svg PUBLIC "-//W3C//DTD SVG 20010904//EN"
 "http://www.w3.org/TR/2001/REC-SVG-20010904/DTD/svg10.dtd">
<svg version="1.0" xmlns="http://www.w3.org/2000/svg"
 width="76.000000pt" height="42.000000pt" viewBox="0 0 76.000000 42.000000"
 preserveAspectRatio="xMidYMid meet">
<metadata>
Created by potrace 1.16, written by Peter Selinger 2001-2019
</metadata>
<g transform="translate(0.000000,42.000000) scale(0.100000,-0.100000)"
fill="#000000" stroke="none">
<path d="M335 340 c-3 -5 6 -31 20 -57 l27 -47 -23 -16 c-29 -23 -17 -43 17
-30 21 8 29 6 45 -12 l19 -23 -3 25 c-2 23 4 26 78 46 44 12 88 25 98 29 9 4
17 3 18 -1 0 -5 3 -37 5 -71 l5 -63 -98 -2 c-146 -3 -193 0 -207 14 -36 38
-41 56 -36 128 4 52 2 74 -7 77 -27 10 -34 -8 -27 -69 8 -71 9 -71 -78 4 -49
42 -59 47 -81 39 -25 -10 -25 -10 -22 -131 2 -67 6 -124 9 -128 4 -3 21 8 39
25 36 35 105 83 118 83 5 0 9 -7 9 -15 0 -8 14 -24 31 -34 26 -16 53 -19 158
-20 69 -1 141 3 159 8 30 9 32 8 32 -15 0 -45 18 -24 24 28 3 29 8 78 12 109
7 68 0 73 -77 54 -30 -7 -79 -19 -109 -26 -30 -6 -60 -14 -66 -16 -7 -2 -20
17 -30 44 -25 69 -43 88 -59 63z m-188 -72 c6 -7 13 -39 17 -70 5 -51 4 -58
-16 -72 -35 -25 -39 -20 -34 47 2 34 5 72 5 85 1 24 13 29 28 10z m78 -50 c31
-14 31 -22 3 -42 -32 -23 -38 -20 -38 19 0 39 0 39 35 23z"/>
</g>
</svg>
