<?xml version="1.0" standalone="no"?>
<!DOCTYPE svg PUBLIC "-//W3C//DTD SVG 20010904//EN"
 "http://www.w3.org/TR/2001/REC-SVG-20010904/DTD/svg10.dtd">
<svg version="1.0" xmlns="http://www.w3.org/2000/svg"
 width="57.000000pt" height="47.000000pt" viewBox="0 0 57.000000 47.000000"
 preserveAspectRatio="xMidYMid meet">
<metadata>
Created by potrace 1.16, written by Peter Selinger 2001-2019
</metadata>
<g transform="translate(0.000000,47.000000) scale(0.100000,-0.100000)"
fill="#000000" stroke="none">
<path d="M178 397 c-54 -18 -98 -36 -98 -42 0 -18 63 -134 147 -267 13 -21 31
-38 41 -38 24 0 177 91 165 99 -10 7 -103 213 -103 230 0 13 -36 51 -47 50 -5
0 -52 -15 -105 -32z m117 -33 c15 -25 25 -47 23 -48 -8 -7 -140 -66 -148 -66
-9 0 -50 65 -50 79 0 5 17 16 38 25 20 10 53 26 72 36 19 11 36 20 37 20 0 0
13 -21 28 -46z m59 -124 c-7 -6 -24 22 -23 40 0 9 6 5 14 -10 7 -14 11 -27 9
-30z m-34 8 c0 -19 -2 -20 -10 -8 -13 19 -13 30 0 30 6 0 10 -10 10 -22z m-32
-8 c10 -17 10 -20 -3 -20 -8 0 -15 2 -15 4 0 2 -3 11 -6 20 -9 23 9 20 24 -4z
m-28 -26 c0 -8 -4 -14 -10 -14 -5 0 -10 4 -10 9 0 5 -3 18 -7 28 -6 16 -5 16
10 4 9 -7 17 -20 17 -27z m-40 -3 c14 -27 -9 -40 -27 -16 -17 24 -17 35 2 35
8 0 19 -9 25 -19z m172 -26 l27 -45 -42 -11 c-23 -6 -46 -15 -52 -19 -5 -5
-26 -11 -46 -15 -33 -6 -37 -4 -49 25 -7 18 -9 35 -4 40 10 9 126 70 134 69 3
0 17 -20 32 -44z"/>
</g>
</svg>
