<?xml version="1.0" standalone="no"?>
<!DOCTYPE svg PUBLIC "-//W3C//DTD SVG 20010904//EN"
 "http://www.w3.org/TR/2001/REC-SVG-20010904/DTD/svg10.dtd">
<svg version="1.0" xmlns="http://www.w3.org/2000/svg"
 width="70.000000pt" height="49.000000pt" viewBox="0 0 70.000000 49.000000"
 preserveAspectRatio="xMidYMid meet">
<metadata>
Created by potrace 1.16, written by Peter Selinger 2001-2019
</metadata>
<g transform="translate(0.000000,49.000000) scale(0.100000,-0.100000)"
fill="#000000" stroke="none">
<path d="M92 409 c-31 -30 -41 -46 -37 -60 7 -20 39 -26 50 -9 13 21 45 10 50
-17 18 -86 30 -114 59 -141 17 -17 40 -32 51 -34 16 -3 19 -10 17 -38 -3 -30
-2 -32 12 -21 9 8 16 22 16 32 0 14 7 19 25 19 15 0 25 -5 24 -13 -7 -52 22
-63 31 -11 4 21 16 35 42 49 33 18 38 18 55 4 22 -19 45 -15 61 12 11 17 11
25 -2 44 -22 34 -20 58 10 116 43 81 7 88 -75 15 -13 -11 -27 -31 -32 -44 -12
-30 -30 -24 -50 17 -8 18 -21 36 -29 41 -17 11 -50 -5 -50 -24 0 -8 -9 -24
-19 -37 l-20 -24 -25 25 c-13 14 -26 41 -29 60 -11 91 -65 107 -135 39z m95
-6 c7 -16 15 -39 18 -53 8 -32 23 -52 57 -74 35 -23 63 -8 72 38 10 51 32 53
48 3 11 -34 18 -43 41 -45 22 -3 30 3 45 29 17 34 72 93 79 86 2 -2 -8 -24
-22 -48 -28 -50 -32 -86 -10 -115 19 -25 19 -44 0 -44 -8 0 -15 5 -15 10 0 16
-33 12 -78 -10 -49 -24 -122 -26 -163 -5 -39 21 -69 71 -69 117 0 44 -17 85
-38 93 -8 3 -26 -2 -39 -11 -14 -8 -27 -13 -30 -11 -7 8 29 48 52 57 32 14 39
11 52 -17z"/>
</g>
</svg>
