<?xml version="1.0" standalone="no"?>
<!DOCTYPE svg PUBLIC "-//W3C//DTD SVG 20010904//EN"
 "http://www.w3.org/TR/2001/REC-SVG-20010904/DTD/svg10.dtd">
<svg version="1.0" xmlns="http://www.w3.org/2000/svg"
 width="60.000000pt" height="49.000000pt" viewBox="0 0 60.000000 49.000000"
 preserveAspectRatio="xMidYMid meet">
<metadata>
Created by potrace 1.16, written by Peter Selinger 2001-2019
</metadata>
<g transform="translate(0.000000,49.000000) scale(0.100000,-0.100000)"
fill="#000000" stroke="none">
<path d="M85 400 c-9 -15 6 -299 16 -306 18 -11 36 151 19 171 -8 9 -10 35 -7
69 3 38 1 59 -8 66 -10 8 -15 8 -20 0z"/>
<path d="M405 400 c-4 -7 -4 -38 -1 -71 l7 -59 -56 0 c-30 0 -55 3 -55 7 0 4
14 22 32 40 21 22 27 33 17 33 -8 0 -28 -14 -45 -31 l-29 -30 -5 28 c-6 34
-32 37 -40 5 l-5 -24 -19 21 c-11 12 -25 21 -33 21 -20 0 -16 -28 7 -42 26
-16 26 -32 0 -25 -20 5 -45 -15 -33 -26 3 -4 22 -7 41 -7 35 0 35 0 16 -21
-10 -11 -31 -28 -46 -37 -33 -19 -35 -28 -9 -37 14 -4 30 5 59 37 l40 43 7
-38 c10 -52 25 -56 25 -7 l0 41 33 -25 c49 -38 69 -31 25 8 -21 18 -35 36 -31
39 3 4 28 7 54 7 l48 0 3 -72 c2 -40 8 -73 13 -73 6 0 11 33 13 73 3 65 5 72
23 72 28 0 19 24 -10 28 -21 3 -23 8 -19 64 2 40 -1 62 -9 65 -6 2 -14 -1 -18
-7z"/>
</g>
</svg>
