<?xml version="1.0" standalone="no"?>
<!DOCTYPE svg PUBLIC "-//W3C//DTD SVG 20010904//EN"
 "http://www.w3.org/TR/2001/REC-SVG-20010904/DTD/svg10.dtd">
<svg version="1.0" xmlns="http://www.w3.org/2000/svg"
 width="60.000000pt" height="41.000000pt" viewBox="0 0 60.000000 41.000000"
 preserveAspectRatio="xMidYMid meet">
<metadata>
Created by potrace 1.16, written by Peter Selinger 2001-2019
</metadata>
<g transform="translate(0.000000,41.000000) scale(0.100000,-0.100000)"
fill="#000000" stroke="none">
<path d="M113 323 c-35 -53 -9 -286 30 -270 7 3 59 24 117 46 58 23 114 46
125 51 11 5 39 14 62 20 43 11 106 40 87 40 -6 0 -37 -9 -70 -19 -87 -28 -234
-69 -274 -76 -19 -4 -43 -9 -53 -12 -17 -4 -18 2 -11 99 4 56 8 104 9 105 1 2
23 -4 48 -13 39 -13 47 -20 47 -40 0 -20 -5 -24 -32 -24 -40 0 -63 -13 -53
-30 4 -7 24 -10 49 -8 36 3 41 1 41 -19 1 -35 12 -37 18 -3 l7 30 84 0 c97 0
130 19 39 22 -32 1 -73 2 -90 1 -29 0 -33 3 -33 24 0 24 2 25 53 18 28 -3 66
-10 82 -15 54 -15 138 -23 131 -12 -3 6 -25 13 -49 17 -93 14 -294 67 -329 85
-14 8 -21 4 -35 -17z"/>
</g>
</svg>
