<?xml version="1.0" standalone="no"?>
<!DOCTYPE svg PUBLIC "-//W3C//DTD SVG 20010904//EN"
 "http://www.w3.org/TR/2001/REC-SVG-20010904/DTD/svg10.dtd">
<svg version="1.0" xmlns="http://www.w3.org/2000/svg"
 width="80.000000pt" height="57.000000pt" viewBox="0 0 80.000000 57.000000"
 preserveAspectRatio="xMidYMid meet">
<metadata>
Created by potrace 1.16, written by Peter Selinger 2001-2019
</metadata>
<g transform="translate(0.000000,57.000000) scale(0.100000,-0.100000)"
fill="#000000" stroke="none">
<path d="M557 453 c-4 -3 -7 -28 -7 -54 l0 -48 -140 2 -139 3 -71 49 c-38 26
-73 45 -76 42 -10 -10 16 -36 55 -57 87 -45 96 -83 31 -135 -19 -16 -51 -44
-70 -62 l-36 -33 3 131 c2 102 0 130 -9 127 -19 -7 -21 -247 -3 -265 15 -14
22 -9 119 80 l50 45 143 1 143 2 0 -60 c0 -72 10 -78 100 -60 70 14 67 7 73
162 3 84 1 107 -10 107 -9 0 -13 -13 -13 -39 l0 -40 -52 -3 c-65 -4 -65 -23
-1 -24 47 -1 75 -23 31 -25 -65 -2 -78 -5 -78 -14 0 -5 21 -10 47 -11 51 -1
49 3 45 -65 -2 -25 -4 -26 -54 -21 -29 3 -56 10 -60 16 -4 6 -8 58 -8 116 l0
105 26 1 c60 4 114 16 109 25 -7 10 -138 13 -148 2z m-7 -135 c0 -14 -13 -17
-77 -20 -122 -5 -173 1 -173 20 0 15 15 17 125 17 110 0 125 -2 125 -17z"/>
</g>
</svg>
