<?xml version="1.0" standalone="no"?>
<!DOCTYPE svg PUBLIC "-//W3C//DTD SVG 20010904//EN"
 "http://www.w3.org/TR/2001/REC-SVG-20010904/DTD/svg10.dtd">
<svg version="1.0" xmlns="http://www.w3.org/2000/svg"
 width="130.000000pt" height="58.000000pt" viewBox="0 0 130.000000 58.000000"
 preserveAspectRatio="xMidYMid meet">
<metadata>
Created by potrace 1.16, written by Peter Selinger 2001-2019
</metadata>
<g transform="translate(0.000000,58.000000) scale(0.100000,-0.100000)"
fill="#000000" stroke="none">
<path d="M129 508 c0 -7 -1 -103 -1 -213 0 -125 -4 -205 -11 -213 -7 -9 -6
-17 4 -27 12 -11 31 2 131 91 67 59 127 104 138 104 12 0 45 -25 78 -60 52
-54 63 -61 117 -71 90 -17 246 -5 325 25 118 44 253 106 272 123 11 10 32 16
49 15 16 -1 29 0 29 2 0 14 -434 122 -546 136 -49 7 -93 16 -98 21 -23 22
-102 1 -126 -32 -6 -9 -119 -59 -132 -59 -5 0 -53 38 -106 85 -94 82 -121 98
-123 73z m124 -97 c9 -8 15 -16 12 -19 -2 -3 -12 1 -20 8 -12 10 -19 10 -27 2
-7 -7 -22 -12 -35 -12 -13 0 -23 -4 -23 -10 0 -5 5 -10 11 -10 6 0 9 -6 6 -12
-20 -49 -20 -48 12 -48 24 0 31 -4 31 -20 0 -16 -7 -20 -35 -20 l-35 0 0 105
0 105 43 -27 c23 -15 50 -34 60 -42z m517 -23 c134 -18 410 -85 410 -100 0
-12 -145 -80 -251 -118 -66 -24 -96 -29 -177 -30 -131 -1 -195 16 -274 73 -83
61 -123 95 -118 100 3 2 37 21 75 42 100 55 144 60 335 33z m-444 -53 c15 -20
24 -38 20 -42 -3 -3 -1 -12 4 -18 8 -9 1 -21 -25 -44 -34 -30 -85 -42 -85 -21
0 6 14 10 30 10 38 0 39 17 3 23 -23 3 -21 4 9 6 55 2 58 21 4 21 -42 0 -46 2
-46 25 0 23 4 25 43 26 32 0 37 2 22 9 -11 5 -14 9 -7 9 7 1 10 6 7 11 -3 6
-17 8 -30 6 -14 -3 -27 0 -30 5 -4 5 7 9 24 9 23 0 37 -9 57 -35z m-106 -96
c0 -5 -16 -8 -35 -6 -19 1 -35 7 -35 12 0 7 15 9 35 7 19 -2 35 -8 35 -13z m0
-31 c0 -5 -16 -8 -35 -8 -19 0 -35 3 -35 8 0 4 16 7 35 7 19 0 35 -3 35 -7z
m15 -50 c-16 -13 -41 -31 -57 -41 l-28 -19 0 36 c0 38 8 42 67 37 12 -1 25 3
28 9 4 6 9 9 13 6 3 -3 -8 -16 -23 -28z"/>
<path d="M570 351 c5 -11 16 -24 23 -28 7 -5 -8 -10 -38 -13 -36 -4 -50 -9
-50 -20 0 -12 12 -14 60 -12 l60 3 35 -51 c19 -29 36 -47 38 -41 2 6 -8 26
-22 44 -32 42 -32 47 -1 47 17 0 33 -12 55 -46 39 -56 51 -52 16 5 -31 49 -31
51 -7 51 12 0 30 -18 50 -50 17 -27 35 -50 41 -50 5 0 -3 21 -19 47 -17 26
-29 48 -28 50 1 1 29 3 61 5 32 2 60 6 63 10 2 5 -5 8 -16 8 -11 0 -31 14 -45
32 -14 18 -28 29 -32 25 -4 -4 3 -18 16 -32 19 -20 20 -25 7 -25 -9 0 -23 14
-32 30 -16 30 -35 40 -35 18 0 -6 7 -20 17 -30 15 -17 15 -18 -5 -18 -13 0
-28 12 -39 30 -9 17 -21 30 -25 30 -12 0 -10 -13 8 -38 14 -20 14 -22 -5 -22
-10 0 -31 14 -44 30 -14 17 -28 30 -32 30 -3 0 1 -13 10 -30 15 -29 15 -30 -9
-30 -16 0 -32 11 -46 30 -24 34 -47 42 -30 11z"/>
</g>
</svg>
