<?xml version="1.0" standalone="no"?>
<!DOCTYPE svg PUBLIC "-//W3C//DTD SVG 20010904//EN"
 "http://www.w3.org/TR/2001/REC-SVG-20010904/DTD/svg10.dtd">
<svg version="1.0" xmlns="http://www.w3.org/2000/svg"
 width="141.000000pt" height="40.000000pt" viewBox="0 0 141.000000 40.000000"
 preserveAspectRatio="xMidYMid meet">
<metadata>
Created by potrace 1.16, written by Peter Selinger 2001-2019
</metadata>
<g transform="translate(0.000000,40.000000) scale(0.100000,-0.100000)"
fill="#000000" stroke="none">
<path d="M95 300 c-3 -5 -3 -15 0 -20 8 -14 126 -73 132 -67 2 3 -19 23 -49
44 -71 53 -76 55 -83 43z"/>
<path d="M355 299 c-4 -6 3 -21 16 -35 l22 -24 -34 -1 c-19 -1 -50 0 -70 1
-40 2 -53 -8 -39 -29 6 -11 24 -12 77 -7 l68 6 -33 -26 c-18 -14 -30 -30 -27
-35 13 -20 41 -7 64 28 l24 37 27 -32 c14 -18 30 -29 33 -25 4 3 -3 17 -15 30
l-21 23 29 1 29 0 -22 16 -23 15 26 20 c14 11 23 23 20 26 -3 2 -22 -8 -42
-23 l-36 -28 -24 29 c-13 16 -23 32 -24 37 0 11 -18 9 -25 -4z"/>
<path d="M812 292 c-22 -17 -23 -23 -16 -90 8 -83 23 -96 25 -22 1 28 3 55 4
60 1 6 3 14 4 20 0 5 13 3 29 -4 85 -41 103 -49 108 -44 6 7 -107 98 -121 98
-5 0 -20 -9 -33 -18z"/>
<path d="M1121 296 c-10 -12 -4 -22 31 -56 l43 -41 -110 4 c-118 4 -132 1
-229 -60 -35 -22 -37 -26 -23 -40 14 -14 21 -11 69 30 32 27 63 45 78 45 14 0
58 1 98 2 41 1 76 -1 78 -3 2 -2 -14 -16 -36 -31 -40 -26 -45 -46 -12 -46 9 1
29 19 44 40 33 48 49 50 85 10 31 -35 42 -33 18 4 l-17 26 51 0 c28 0 51 5 51
10 0 6 -28 10 -62 10 l-63 0 -34 55 c-36 59 -42 63 -60 41z"/>
<path d="M46 282 c-6 -11 9 -147 20 -175 3 -10 15 -22 25 -27 14 -8 30 1 84
46 36 31 64 59 61 62 -3 3 -14 -2 -23 -10 -26 -21 -84 -55 -111 -63 l-24 -7 3
88 c3 76 1 89 -13 92 -9 2 -19 -1 -22 -6z"/>
</g>
</svg>
