<?xml version="1.0" standalone="no"?>
<!DOCTYPE svg PUBLIC "-//W3C//DTD SVG 20010904//EN"
 "http://www.w3.org/TR/2001/REC-SVG-20010904/DTD/svg10.dtd">
<svg version="1.0" xmlns="http://www.w3.org/2000/svg"
 width="62.000000pt" height="45.000000pt" viewBox="0 0 62.000000 45.000000"
 preserveAspectRatio="xMidYMid meet">
<metadata>
Created by potrace 1.16, written by Peter Selinger 2001-2019
</metadata>
<g transform="translate(0.000000,45.000000) scale(0.100000,-0.100000)"
fill="#000000" stroke="none">
<path d="M477 358 c-44 -19 -54 -20 -97 -9 -61 16 -92 7 -154 -43 -28 -23 -75
-55 -104 -71 -56 -31 -64 -51 -24 -71 12 -6 19 -13 16 -17 -3 -3 5 -12 18 -21
27 -18 100 -23 185 -12 73 9 99 3 106 -25 6 -22 27 -17 27 5 0 33 -31 41 -169
41 l-136 0 0 28 c1 19 -4 27 -15 26 -36 -3 -31 4 40 51 41 28 90 61 109 75 35
25 94 34 106 15 10 -16 52 -12 95 9 63 30 45 2 -28 -44 -1 -1 5 -16 13 -32 13
-26 13 -36 3 -58 -11 -25 -16 -27 -55 -21 -48 6 -59 -9 -17 -24 38 -15 49 -13
78 16 28 29 35 81 14 103 -11 10 -9 14 6 23 46 26 69 67 40 74 -5 1 -31 -7
-57 -18z"/>
<path d="M302 292 c-20 -13 -3 -42 24 -42 28 0 32 16 7 23 -14 4 -13 5 4 6 12
0 25 6 28 11 7 12 -44 13 -63 2z"/>
</g>
</svg>
