<?xml version="1.0" standalone="no"?>
<!DOCTYPE svg PUBLIC "-//W3C//DTD SVG 20010904//EN"
 "http://www.w3.org/TR/2001/REC-SVG-20010904/DTD/svg10.dtd">
<svg version="1.0" xmlns="http://www.w3.org/2000/svg"
 width="110.000000pt" height="47.000000pt" viewBox="0 0 110.000000 47.000000"
 preserveAspectRatio="xMidYMid meet">
<metadata>
Created by potrace 1.16, written by Peter Selinger 2001-2019
</metadata>
<g transform="translate(0.000000,47.000000) scale(0.100000,-0.100000)"
fill="#000000" stroke="none">
<path d="M200 432 c0 -12 19 -26 26 -19 2 2 -2 10 -11 17 -9 8 -15 8 -15 2z"/>
<path d="M715 420 c-4 -6 -4 -34 0 -61 7 -49 6 -51 -14 -44 -13 4 -21 2 -21
-5 0 -6 4 -9 8 -6 19 12 30 -14 37 -86 5 -56 3 -78 -5 -78 -16 0 -169 123
-170 136 0 6 21 26 48 44 57 40 102 81 102 92 0 5 -28 -12 -61 -36 -48 -35
-66 -43 -79 -36 -13 7 -20 5 -24 -6 -9 -24 -7 -31 4 -14 6 9 10 10 10 3 0 -7
-9 -17 -21 -23 -15 -9 -18 -15 -9 -24 5 -8 8 -22 4 -32 -5 -16 -4 -16 5 -4 9
13 11 12 11 -3 0 -11 5 -16 13 -12 6 4 3 -1 -7 -9 -24 -20 -15 -32 12 -15 16
10 25 9 52 -11 21 -15 29 -25 20 -28 -7 -3 -17 3 -22 12 -12 21 -28 12 -21
-13 4 -14 13 -19 36 -17 35 2 76 -14 96 -38 20 -24 31 -9 31 42 l0 47 50 -3
c47 -4 50 -6 44 -25 -6 -21 -5 -21 11 -5 16 15 16 18 2 32 -8 9 -26 16 -38 16
-12 0 -28 8 -35 18 -13 16 -13 16 -14 0 0 -10 -4 -18 -10 -18 -5 0 -10 23 -10
50 0 35 4 50 13 50 21 0 28 -12 16 -27 -7 -8 -8 -13 -1 -13 5 0 12 7 16 15 8
22 25 18 19 -5 -3 -11 -10 -20 -16 -20 -6 0 -7 -3 -4 -6 4 -4 13 -1 22 6 12
10 15 10 15 -4 0 -9 7 -16 16 -16 8 0 13 -4 10 -9 -3 -5 1 -12 10 -15 24 -9
44 -7 44 5 0 6 -9 8 -20 4 -14 -4 -20 -2 -20 9 0 8 -3 21 -6 30 -3 9 -1 16 5
16 6 0 11 -7 11 -15 0 -14 32 -16 46 -3 12 13 -7 30 -21 18 -9 -8 -14 -6 -19
5 -4 11 -14 14 -33 10 -27 -5 -27 -5 -4 5 14 6 21 16 18 25 -4 10 4 16 28 21
48 9 44 19 -9 20 -34 1 -43 -2 -42 -15 1 -12 -10 -17 -46 -19 l-47 -3 -3 47
c-3 46 -19 67 -33 44z"/>
<path d="M309 418 c0 -2 -2 -11 -4 -21 -2 -11 -6 -22 -10 -25 -12 -13 -60 -7
-73 8 -12 13 -13 13 -9 0 4 -12 -5 -14 -49 -12 -52 4 -68 -6 -41 -25 6 -5 29
-8 50 -8 20 1 37 -3 37 -8 0 -5 -15 -7 -33 -4 -19 3 -40 1 -48 -4 -10 -6 -10
-9 -1 -9 6 0 12 -7 12 -16 0 -9 5 -12 12 -8 22 14 71 15 80 2 6 -10 8 -10 8 0
0 6 7 12 15 12 8 0 15 -7 15 -16 0 -14 -9 -16 -56 -12 -45 4 -57 2 -61 -11 -2
-9 -9 -24 -13 -33 -11 -19 3 -26 60 -28 73 -4 82 -1 75 20 -5 15 -2 20 11 20
14 0 16 -7 11 -36 -8 -47 -11 -49 -50 -38 -35 11 -127 7 -127 -6 0 -10 37 -19
61 -15 15 3 18 -1 15 -18 -3 -12 -5 -24 -5 -27 -1 -3 -6 2 -12 10 -9 13 -10
13 -6 0 2 -8 12 -17 22 -19 14 -2 17 2 12 18 -9 35 27 46 73 24 29 -15 38 -2
39 60 1 22 6 37 13 37 9 0 9 3 0 12 -14 14 -16 54 -4 62 5 3 7 19 4 36 -5 37
10 39 37 4 12 -15 21 -24 21 -20 0 9 50 -36 70 -65 l19 -25 -70 -53 c-72 -55
-102 -92 -80 -99 6 -2 9 -8 5 -13 -3 -5 0 -9 6 -9 6 0 9 8 6 18 -8 23 27 57
48 49 9 -4 13 -1 10 6 -2 7 9 20 26 30 l30 18 0 -35 c0 -26 -4 -36 -16 -36 -8
0 -12 -5 -9 -10 4 -6 11 -8 16 -5 5 4 9 -8 9 -24 0 -29 23 -45 32 -22 2 5 48
11 103 13 78 2 100 6 100 17 0 10 -15 15 -50 18 -27 2 -74 6 -103 9 l-53 6 7
36 c4 20 12 40 18 44 7 5 4 8 -6 8 -15 0 -17 6 -12 34 4 28 1 37 -15 46 -12 6
-21 17 -21 25 0 8 -6 15 -12 15 -9 0 -8 4 2 11 12 9 11 10 -7 6 -22 -5 -49 19
-73 62 -6 13 -21 21 -35 21 -14 0 -25 -1 -26 -2z m-11 -113 c1 -19 -3 -35 -9
-35 -5 0 -9 6 -8 13 3 26 -2 37 -16 37 -24 0 -17 15 8 18 21 1 24 -3 25 -33z
m-44 -70 c-8 -21 -84 -21 -84 0 0 11 12 15 45 15 35 0 43 -3 39 -15z"/>
<path d="M250 390 c0 -5 5 -10 10 -10 6 0 10 5 10 10 0 6 -4 10 -10 10 -5 0
-10 -4 -10 -10z"/>
<path d="M425 380 c3 -5 8 -10 11 -10 2 0 4 5 4 10 0 6 -5 10 -11 10 -5 0 -7
-4 -4 -10z"/>
<path d="M497 376 c-3 -7 4 -12 17 -13 11 0 28 -3 37 -7 12 -5 18 -1 22 13 4
17 2 19 -11 12 -9 -5 -26 -5 -38 -1 -15 6 -24 5 -27 -4z"/>
<path d="M770 360 c0 -5 5 -10 10 -10 6 0 10 5 10 10 0 6 -4 10 -10 10 -5 0
-10 -4 -10 -10z"/>
<path d="M1020 360 c0 -5 7 -10 15 -10 8 0 15 5 15 10 0 6 -7 10 -15 10 -8 0
-15 -4 -15 -10z"/>
<path d="M493 339 c-22 -8 -32 -29 -15 -29 12 0 48 28 42 33 -3 3 -15 1 -27
-4z"/>
<path d="M663 335 c-8 -9 -9 -16 -3 -20 6 -3 10 -1 10 4 0 6 7 11 16 11 8 0
12 5 9 10 -8 13 -18 12 -32 -5z"/>
<path d="M995 340 c3 -5 14 -10 23 -10 15 0 15 2 2 10 -20 13 -33 13 -25 0z"/>
<path d="M900 320 c0 -6 7 -10 16 -10 8 0 22 -7 30 -15 9 -8 11 -15 5 -15 -6
0 -11 -7 -11 -15 0 -8 7 -15 16 -15 10 0 14 -6 11 -15 -7 -16 8 -30 17 -17 3
5 17 7 31 4 15 -2 25 0 25 7 0 6 0 13 0 16 0 3 -3 5 -7 4 -5 -1 -7 -6 -5 -12
2 -6 -5 -4 -14 4 -16 13 -16 14 -1 17 10 2 17 6 17 10 0 14 -53 50 -66 45 -8
-3 -14 -1 -14 4 0 5 -11 10 -25 11 -14 1 -25 -3 -25 -8z"/>
<path d="M615 300 c-3 -5 -1 -10 4 -10 6 0 11 -9 11 -20 0 -10 6 -23 14 -27 7
-4 15 -13 17 -20 3 -8 13 -2 29 14 l25 26 -30 -7 c-27 -6 -28 -5 -12 8 16 13
16 14 -7 30 -29 18 -42 20 -51 6z"/>
<path d="M363 293 c-7 -3 -13 -9 -13 -14 0 -6 5 -7 10 -4 9 5 11 -2 13 -35 0
-13 37 -38 42 -30 4 6 1 10 -5 10 -6 0 -9 8 -6 18 7 21 -24 61 -41 55z"/>
<path d="M110 279 c0 -5 5 -7 10 -4 6 3 10 8 10 11 0 2 -4 4 -10 4 -5 0 -10
-5 -10 -11z"/>
<path d="M1045 280 c3 -5 11 -10 16 -10 6 0 7 5 4 10 -3 6 -11 10 -16 10 -6 0
-7 -4 -4 -10z"/>
<path d="M115 250 c-3 -5 1 -10 9 -10 9 0 16 5 16 10 0 6 -4 10 -9 10 -6 0
-13 -4 -16 -10z"/>
<path d="M923 225 c0 -8 7 -15 15 -15 12 0 12 3 2 15 -7 8 -13 15 -15 15 -1 0
-2 -7 -2 -15z"/>
<path d="M352 201 c1 -20 6 -31 15 -31 10 0 12 7 8 23 -12 37 -24 42 -23 8z"/>
<path d="M693 212 c-13 -22 -1 -48 17 -37 8 5 8 11 2 17 -6 6 -8 17 -5 24 7
20 0 17 -14 -4z"/>
<path d="M1010 199 c0 -5 5 -7 10 -4 6 3 10 8 10 11 0 2 -4 4 -10 4 -5 0 -10
-5 -10 -11z"/>
<path d="M897 183 c-19 -22 -25 -37 -14 -40 4 -2 7 0 7 5 1 4 8 17 16 30 17
26 13 29 -9 5z"/>
<path d="M255 180 c-3 -5 -1 -10 4 -10 6 0 11 5 11 10 0 6 -2 10 -4 10 -3 0
-8 -4 -11 -10z"/>
<path d="M515 160 c-7 -11 5 -40 16 -40 5 0 9 7 9 15 0 8 5 15 10 15 6 0 10
-4 10 -10 0 -5 5 -10 11 -10 6 0 9 5 7 12 -5 15 -56 29 -63 18z"/>
<path d="M770 160 c-13 -8 -12 -10 3 -10 9 0 17 5 17 10 0 12 -1 12 -20 0z"/>
<path d="M760 119 c0 -5 5 -7 10 -4 6 3 10 8 10 11 0 2 -4 4 -10 4 -5 0 -10
-5 -10 -11z"/>
<path d="M262 101 c4 -13 18 -16 19 -4 0 4 -5 9 -11 12 -7 2 -11 -2 -8 -8z"/>
</g>
</svg>
