<?xml version="1.0" standalone="no"?>
<!DOCTYPE svg PUBLIC "-//W3C//DTD SVG 20010904//EN"
 "http://www.w3.org/TR/2001/REC-SVG-20010904/DTD/svg10.dtd">
<svg version="1.0" xmlns="http://www.w3.org/2000/svg"
 width="62.000000pt" height="45.000000pt" viewBox="0 0 62.000000 45.000000"
 preserveAspectRatio="xMidYMid meet">
<metadata>
Created by potrace 1.16, written by Peter Selinger 2001-2019
</metadata>
<g transform="translate(0.000000,45.000000) scale(0.100000,-0.100000)"
fill="#000000" stroke="none">
<path d="M422 377 c-5 -7 -19 -30 -31 -52 l-22 -40 -127 0 c-106 0 -127 -2
-127 -15 0 -12 15 -14 85 -12 47 2 102 5 123 8 34 5 37 4 37 -18 0 -47 -9 -50
-125 -44 -115 6 -133 3 -114 -20 10 -12 32 -14 120 -8 124 8 128 6 159 -63 14
-33 17 -50 10 -63 -7 -12 -7 -21 0 -25 5 -3 43 40 85 95 71 96 89 140 65 155
-5 3 -22 30 -36 60 -24 48 -29 53 -60 53 -18 0 -37 -5 -42 -11z m55 -34 c8
-10 22 -35 33 -57 22 -47 14 -77 -38 -149 -28 -39 -37 -46 -44 -34 -4 9 -4 26
2 41 5 14 9 63 8 109 -2 103 9 127 39 90z m-62 -141 c-8 -41 -14 -37 -25 15
-7 30 -5 43 8 63 l17 25 3 -34 c2 -19 1 -50 -3 -69z"/>
<path d="M467 313 c-11 -11 -8 -163 3 -163 6 0 10 35 10 85 0 85 -1 91 -13 78z"/>
<path d="M33 3 c20 -2 54 -2 75 0 20 2 3 4 -38 4 -41 0 -58 -2 -37 -4z"/>
</g>
</svg>
