<?xml version="1.0" standalone="no"?>
<!DOCTYPE svg PUBLIC "-//W3C//DTD SVG 20010904//EN"
 "http://www.w3.org/TR/2001/REC-SVG-20010904/DTD/svg10.dtd">
<svg version="1.0" xmlns="http://www.w3.org/2000/svg"
 width="103.000000pt" height="46.000000pt" viewBox="0 0 103.000000 46.000000"
 preserveAspectRatio="xMidYMid meet">
<metadata>
Created by potrace 1.16, written by Peter Selinger 2001-2019
</metadata>
<g transform="translate(0.000000,46.000000) scale(0.100000,-0.100000)"
fill="#000000" stroke="none">
<path d="M407 321 l-63 -106 -83 -3 c-63 -2 -82 0 -80 10 3 28 -2 38 -20 38
-18 0 -19 -6 -15 -77 3 -43 7 -93 10 -110 8 -56 24 -36 24 31 0 76 -9 72 170
81 69 3 176 8 238 11 l112 6 -31 39 c-17 21 -28 43 -25 48 3 4 43 14 88 21 46
7 94 17 107 22 13 5 27 6 30 2 3 -3 8 -53 11 -111 3 -67 9 -108 16 -110 8 -3
12 17 13 59 0 35 3 91 6 124 7 69 -4 82 -53 63 -29 -11 -100 -24 -193 -34
l-57 -7 -33 55 c-31 50 -37 54 -72 54 -38 0 -38 -1 -100 -106z m152 33 c22
-30 28 -44 18 -44 -8 0 -22 11 -31 25 -9 14 -23 25 -31 25 -7 0 -31 -31 -51
-70 -37 -68 -59 -89 -76 -72 -12 12 111 192 127 186 7 -3 27 -25 44 -50z m1
-90 c17 -24 27 -45 23 -45 -12 -2 -128 2 -130 5 -6 6 61 95 68 90 5 -3 23 -25
39 -50z m72 -14 c16 -29 16 -30 -1 -30 -14 0 -41 36 -41 55 0 17 28 0 42 -25z"/>
</g>
</svg>
