<?xml version="1.0" standalone="no"?>
<!DOCTYPE svg PUBLIC "-//W3C//DTD SVG 20010904//EN"
 "http://www.w3.org/TR/2001/REC-SVG-20010904/DTD/svg10.dtd">
<svg version="1.0" xmlns="http://www.w3.org/2000/svg"
 width="104.000000pt" height="71.000000pt" viewBox="0 0 104.000000 71.000000"
 preserveAspectRatio="xMidYMid meet">
<metadata>
Created by potrace 1.16, written by Peter Selinger 2001-2019
</metadata>
<g transform="translate(0.000000,71.000000) scale(0.100000,-0.100000)"
fill="#000000" stroke="none">
<path d="M365 644 c-16 -8 -53 -33 -82 -55 -29 -21 -64 -44 -78 -51 -14 -6
-25 -16 -25 -22 0 -17 30 -56 42 -56 6 0 35 -18 64 -40 62 -47 90 -53 50 -11
-26 27 -27 30 -15 71 10 34 10 43 -1 50 -26 16 -41 0 -34 -37 6 -33 5 -34 -13
-25 -11 6 -26 18 -33 28 -13 14 -11 19 17 43 61 51 112 91 117 91 3 0 6 -20 6
-45 0 -42 -2 -45 -19 -35 -30 15 -35 -5 -6 -24 34 -22 34 -50 0 -42 -30 8 -33
-9 -5 -24 11 -6 20 -17 20 -25 0 -25 18 -17 28 13 9 27 15 29 72 35 35 4 123
7 196 7 l134 0 0 -32 c0 -35 14 -66 23 -52 2 5 8 28 12 50 4 30 3 44 -7 50 -7
5 -104 7 -216 5 l-203 -3 7 64 c3 34 7 67 8 72 2 17 -28 17 -59 0z"/>
<path d="M177 433 c-13 -12 -7 -21 34 -51 l41 -30 -49 -28 c-26 -15 -53 -31
-59 -36 -18 -13 3 -47 52 -88 24 -19 43 -39 43 -43 1 -4 -19 -30 -44 -56 -50
-53 -53 -61 -27 -61 9 0 33 21 53 48 20 26 41 46 47 45 7 -2 12 4 12 12 0 8
16 35 35 61 19 25 35 52 35 60 0 8 -14 28 -31 44 -23 20 -30 34 -26 50 4 17 2
20 -12 15 -13 -4 -26 5 -45 30 -26 33 -45 43 -59 28z m100 -105 c21 -27 22
-84 2 -117 -10 -17 -21 -31 -23 -31 -2 0 -19 23 -37 51 l-33 52 35 28 c39 32
43 34 56 17z"/>
<path d="M386 402 c-16 -16 17 -22 115 -22 109 0 109 0 109 -24 0 -14 5 -37
10 -52 l11 -27 105 6 c80 4 103 3 97 -6 -5 -8 -2 -8 9 1 8 7 23 10 32 6 9 -3
16 -2 16 4 0 6 9 8 20 5 11 -3 20 0 20 6 0 8 -34 10 -122 7 -127 -5 -158 1
-158 34 0 44 9 50 81 50 38 0 69 4 69 9 0 9 -405 12 -414 3z"/>
<path d="M940 370 c0 -5 5 -10 10 -10 6 0 10 5 10 10 0 6 -4 10 -10 10 -5 0
-10 -4 -10 -10z"/>
<path d="M875 341 c-23 -5 -26 -8 -13 -13 19 -8 58 1 58 13 0 10 -1 10 -45 0z"/>
<path d="M950 309 c0 -5 5 -7 10 -4 6 3 10 8 10 11 0 2 -4 4 -10 4 -5 0 -10
-5 -10 -11z"/>
<path d="M860 250 c0 -5 5 -10 10 -10 6 0 10 5 10 10 0 6 -4 10 -10 10 -5 0
-10 -4 -10 -10z"/>
<path d="M920 249 c0 -5 5 -7 10 -4 6 3 10 8 10 11 0 2 -4 4 -10 4 -5 0 -10
-5 -10 -11z"/>
</g>
</svg>
