<?xml version="1.0" standalone="no"?>
<!DOCTYPE svg PUBLIC "-//W3C//DTD SVG 20010904//EN"
 "http://www.w3.org/TR/2001/REC-SVG-20010904/DTD/svg10.dtd">
<svg version="1.0" xmlns="http://www.w3.org/2000/svg"
 width="93.000000pt" height="69.000000pt" viewBox="0 0 93.000000 69.000000"
 preserveAspectRatio="xMidYMid meet">
<metadata>
Created by potrace 1.16, written by Peter Selinger 2001-2019
</metadata>
<g transform="translate(0.000000,69.000000) scale(0.100000,-0.100000)"
fill="#000000" stroke="none">
<path d="M245 579 c-53 -40 -92 -78 -118 -113 -19 -27 -19 -30 -3 -60 9 -17
41 -47 71 -66 l55 -35 0 -77 0 -78 43 -31 c57 -42 136 -81 147 -74 6 4 10 -1
10 -10 0 -9 4 -13 10 -10 6 4 10 53 10 114 l0 108 107 52 c59 29 135 64 170
78 34 13 67 31 74 39 16 20 8 18 -63 -15 -89 -41 -130 -59 -233 -102 l-90 -38
3 -73 c2 -40 5 -85 8 -100 7 -38 -8 -41 -52 -11 -22 14 -59 40 -82 56 -43 29
-44 31 -42 81 4 82 1 106 -12 106 -7 0 -34 18 -61 41 -41 35 -47 46 -47 79 0
34 6 43 58 89 l59 50 56 -76 c31 -41 57 -84 57 -94 0 -10 2 -19 5 -19 2 0 53
11 112 24 60 14 152 34 205 46 54 12 100 26 103 31 8 11 13 12 -75 -7 -41 -9
-132 -26 -201 -38 l-127 -23 -58 93 c-31 52 -58 94 -58 93 -1 0 -19 -14 -41
-30z"/>
<path d="M220 520 c0 -5 5 -10 11 -10 5 0 7 -5 4 -10 -4 -6 -11 -8 -16 -5 -14
9 -29 -4 -23 -20 4 -8 10 -12 15 -9 8 5 13 -9 10 -28 0 -5 4 -8 9 -8 17 0 24
31 9 42 -10 7 -5 8 15 3 23 -5 27 -3 23 9 -4 9 -2 18 3 21 6 4 10 11 10 17 0
7 -4 7 -13 0 -8 -7 -18 -7 -27 -2 -20 13 -30 12 -30 0z"/>
<path d="M272 451 c-43 -37 -22 -42 23 -6 20 17 25 25 14 25 -9 0 -26 -8 -37
-19z"/>
<path d="M170 429 c0 -5 5 -7 10 -4 6 3 10 8 10 11 0 2 -4 4 -10 4 -5 0 -10
-5 -10 -11z"/>
<path d="M290 390 c0 -5 5 -10 11 -10 5 0 7 5 4 10 -3 6 -8 10 -11 10 -2 0 -4
-4 -4 -10z"/>
<path d="M287 320 c3 -11 9 -17 14 -14 14 8 10 34 -5 34 -9 0 -12 -7 -9 -20z"/>
<path d="M377 256 c-4 -10 -1 -13 8 -9 8 3 12 9 9 14 -7 12 -11 11 -17 -5z"/>
<path d="M286 238 c-9 -37 -7 -43 9 -22 16 21 19 44 6 44 -5 0 -11 -10 -15
-22z"/>
<path d="M332 170 c0 -14 2 -19 5 -12 2 6 2 18 0 25 -3 6 -5 1 -5 -13z"/>
<path d="M361 181 c-8 -5 -9 -11 -3 -15 5 -3 12 1 16 9 6 17 6 18 -13 6z"/>
<path d="M640 94 c0 -8 5 -12 10 -9 6 4 8 11 5 16 -9 14 -15 11 -15 -7z"/>
<path d="M57 73 c-4 -3 -7 -21 -7 -40 0 -31 2 -33 35 -33 29 0 35 4 35 21 0
11 5 29 10 40 18 34 -9 22 -30 -13 l-20 -33 0 33 c0 30 -9 40 -23 25z"/>
<path d="M534 49 c-8 -13 33 -48 56 -49 11 0 11 3 2 12 -7 7 -12 20 -12 30 0
20 -34 25 -46 7z"/>
<path d="M671 46 c-18 -22 -2 -46 30 -46 24 0 29 4 29 24 0 34 -38 48 -59 22z
m26 -28 c-3 -8 -6 -5 -6 6 -1 11 2 17 5 13 3 -3 4 -12 1 -19z"/>
<path d="M860 45 c-16 -20 3 -45 34 -45 18 1 19 2 5 13 -9 7 -14 17 -12 24 6
18 -14 24 -27 8z"/>
<path d="M151 28 c-6 -17 -5 -24 6 -26 18 -4 43 16 43 34 0 23 -40 16 -49 -8z"/>
<path d="M230 38 c0 -26 16 -36 53 -36 36 0 38 1 22 18 -9 10 -23 16 -30 14
-7 -3 -16 -1 -20 5 -9 15 -25 14 -25 -1z"/>
<path d="M617 43 c-13 -12 -7 -43 8 -43 8 0 15 6 15 13 0 18 -15 38 -23 30z"/>
<path d="M764 26 c1 -27 20 -36 29 -13 4 9 6 9 6 0 1 -14 31 -19 31 -5 0 16
-17 31 -42 37 -23 6 -26 4 -24 -19z"/>
</g>
</svg>
