<?xml version="1.0" standalone="no"?>
<!DOCTYPE svg PUBLIC "-//W3C//DTD SVG 20010904//EN"
 "http://www.w3.org/TR/2001/REC-SVG-20010904/DTD/svg10.dtd">
<svg version="1.0" xmlns="http://www.w3.org/2000/svg"
 width="89.000000pt" height="58.000000pt" viewBox="0 0 89.000000 58.000000"
 preserveAspectRatio="xMidYMid meet">
<metadata>
Created by potrace 1.16, written by Peter Selinger 2001-2019
</metadata>
<g transform="translate(0.000000,58.000000) scale(0.100000,-0.100000)"
fill="#000000" stroke="none">
<path d="M150 445 c-17 -21 10 -41 68 -50 58 -9 202 9 202 25 0 5 -49 8 -111
7 -96 -2 -112 0 -120 16 -12 21 -23 22 -39 2z"/>
<path d="M442 424 c3 -17 22 -21 153 -36 83 -9 164 -17 180 -18 l30 -2 -35 -9
c-33 -9 -356 -68 -372 -69 -5 0 -8 -5 -8 -11 0 -7 13 -10 34 -7 31 3 35 1 40
-25 3 -16 6 -46 6 -66 l0 -36 -56 5 c-56 5 -56 5 -60 41 l-3 35 44 0 c43 -1
61 18 20 20 -11 1 -28 2 -37 3 -10 0 -19 13 -23 32 -7 30 -7 30 -68 29 -116
-3 -125 -1 -151 27 -23 24 -26 25 -32 9 -5 -12 1 -26 18 -42 27 -27 81 -34
154 -20 l41 8 13 -103 c7 -57 17 -110 23 -117 8 -10 26 -12 71 -7 34 4 65 11
70 15 5 5 8 51 7 103 l-2 95 53 11 c29 6 105 20 168 32 108 20 140 33 121 52
-9 9 -76 21 -236 42 -66 9 -131 19 -143 22 -20 5 -23 2 -20 -13z m36 -316 c3
-14 -6 -17 -57 -16 -53 1 -61 3 -61 20 0 17 7 19 57 16 45 -2 59 -7 61 -20z"/>
<path d="M370 190 c0 -5 16 -10 35 -10 19 0 35 5 35 10 0 6 -16 10 -35 10 -19
0 -35 -4 -35 -10z"/>
</g>
</svg>
