<?xml version="1.0" standalone="no"?>
<!DOCTYPE svg PUBLIC "-//W3C//DTD SVG 20010904//EN"
 "http://www.w3.org/TR/2001/REC-SVG-20010904/DTD/svg10.dtd">
<svg version="1.0" xmlns="http://www.w3.org/2000/svg"
 width="92.000000pt" height="55.000000pt" viewBox="0 0 92.000000 55.000000"
 preserveAspectRatio="xMidYMid meet">
<metadata>
Created by potrace 1.16, written by Peter Selinger 2001-2019
</metadata>
<g transform="translate(0.000000,55.000000) scale(0.100000,-0.100000)"
fill="#000000" stroke="none">
<path d="M625 449 c-38 -21 -75 -39 -82 -39 -6 0 -21 16 -33 36 -27 48 -50 33
-25 -16 13 -24 14 -35 5 -44 -8 -8 -13 -7 -20 4 -36 63 -66 66 -36 4 l17 -36
-106 4 c-102 3 -105 3 -105 -18 0 -20 -7 -23 -62 -29 -84 -10 -114 -21 -99
-39 6 -7 8 -16 4 -20 -4 -3 -7 -15 -8 -26 -2 -24 19 -26 95 -5 76 20 78 20 82
-22 4 -37 9 -34 24 15 6 20 158 16 175 -5 8 -9 44 -36 81 -60 55 -36 65 -46
61 -65 -4 -21 -3 -22 10 -5 13 16 37 24 37 11 0 -3 -5 -14 -10 -25 -21 -39 12
-18 82 52 80 79 138 148 138 165 0 6 -34 46 -75 89 -54 57 -74 84 -69 97 7 24
1 22 -81 -23z m80 -50 c22 -16 58 -43 80 -62 l40 -35 -50 -63 c-77 -99 -107
-129 -127 -129 -10 0 -18 5 -18 10 0 17 28 69 71 132 22 32 39 61 39 66 0 13
-152 64 -163 53 -5 -5 14 -16 48 -26 30 -10 58 -22 61 -27 3 -5 -6 -37 -21
-72 l-27 -64 -27 14 c-15 8 -43 16 -62 20 -32 5 -33 5 -14 -10 11 -9 36 -21
57 -27 34 -9 37 -12 27 -30 -12 -24 -16 -22 -96 55 -42 40 -53 57 -53 81 0 49
11 49 42 0 15 -25 33 -45 39 -45 7 0 4 11 -6 27 -50 76 -56 90 -41 96 15 6 22
-2 79 -86 14 -21 28 -33 32 -27 3 5 -2 22 -13 38 -21 30 -54 94 -50 97 34 24
94 52 102 48 6 -4 29 -19 51 -34z m-265 -98 l0 -40 -54 -6 c-79 -10 -100 -2
-46 17 30 11 38 17 23 17 -13 1 -23 5 -23 9 0 5 -15 7 -32 6 l-33 -3 37 12
c20 7 40 15 44 20 4 4 25 7 46 7 38 0 38 0 38 -39z m-193 -7 c-3 -3 -12 -4
-19 -1 -8 3 -5 6 6 6 11 1 17 -2 13 -5z m-40 -10 c-3 -3 -12 -4 -19 -1 -8 3
-5 6 6 6 11 1 17 -2 13 -5z m-54 -11 c-7 -2 -21 -2 -30 0 -10 3 -4 5 12 5 17
0 24 -2 18 -5z"/>
</g>
</svg>
