<?xml version="1.0" standalone="no"?>
<!DOCTYPE svg PUBLIC "-//W3C//DTD SVG 20010904//EN"
 "http://www.w3.org/TR/2001/REC-SVG-20010904/DTD/svg10.dtd">
<svg version="1.0" xmlns="http://www.w3.org/2000/svg"
 width="71.000000pt" height="56.000000pt" viewBox="0 0 71.000000 56.000000"
 preserveAspectRatio="xMidYMid meet">
<metadata>
Created by potrace 1.16, written by Peter Selinger 2001-2019
</metadata>
<g transform="translate(0.000000,56.000000) scale(0.100000,-0.100000)"
fill="#000000" stroke="none">
<path d="M47 513 c-4 -3 -7 -17 -7 -29 0 -44 29 -49 252 -47 179 2 207 1 212
-13 8 -21 -18 -143 -43 -199 -11 -26 -16 -45 -10 -43 13 4 99 193 106 232 7
50 -13 56 -153 45 -200 -16 -334 4 -334 48 0 14 -12 17 -23 6z"/>
<path d="M325 310 c-11 -4 -44 -6 -73 -3 -68 7 -86 -10 -95 -91 -5 -52 -3 -61
18 -82 13 -13 34 -24 47 -25 59 -2 134 3 141 10 4 4 24 5 45 2 75 -13 219 24
253 65 17 20 -6 18 -59 -6 -92 -42 -205 -34 -218 14 -3 13 -4 45 -2 72 3 43 1
49 -17 51 -11 1 -29 -2 -40 -7z m25 -56 c0 -19 -5 -24 -25 -24 -20 0 -25 5
-25 24 0 15 7 26 18 29 25 5 32 -1 32 -29z m-80 1 c0 -22 -4 -25 -35 -25 -24
0 -35 -5 -35 -15 0 -10 11 -15 35 -15 33 0 35 -2 35 -36 0 -32 -2 -35 -22 -29
-27 8 -57 43 -58 66 0 9 3 31 6 48 6 27 10 31 40 31 30 0 34 -3 34 -25z m73
-67 c2 -13 8 -31 12 -40 6 -15 1 -18 -30 -18 -37 0 -37 1 -31 32 9 48 40 64
49 26z"/>
</g>
</svg>
