<?xml version="1.0" standalone="no"?>
<!DOCTYPE svg PUBLIC "-//W3C//DTD SVG 20010904//EN"
 "http://www.w3.org/TR/2001/REC-SVG-20010904/DTD/svg10.dtd">
<svg version="1.0" xmlns="http://www.w3.org/2000/svg"
 width="110.000000pt" height="109.000000pt" viewBox="0 0 110.000000 109.000000"
 preserveAspectRatio="xMidYMid meet">
<metadata>
Created by potrace 1.16, written by Peter Selinger 2001-2019
</metadata>
<g transform="translate(0.000000,109.000000) scale(0.100000,-0.100000)"
fill="#000000" stroke="none">
<path d="M208 1078 c9 -9 15 -9 24 0 9 9 7 12 -12 12 -19 0 -21 -3 -12 -12z"/>
<path d="M1040 1080 c0 -5 7 -7 15 -4 8 4 15 8 15 10 0 2 -7 4 -15 4 -8 0 -15
-4 -15 -10z"/>
<path d="M444 988 c-48 -30 -56 -58 -29 -94 25 -32 17 -44 -47 -73 -55 -24
-63 -32 -65 -57 -7 -95 72 -134 151 -74 21 16 43 27 47 24 5 -3 9 -20 9 -38 0
-32 -2 -34 -45 -40 -67 -10 -71 -31 -5 -23 60 7 63 1 4 -11 -24 -5 -39 -14
-39 -22 0 -16 2 -16 53 -5 38 8 45 -12 11 -33 -15 -10 -18 -17 -11 -24 14 -14
222 86 222 106 0 8 17 16 43 19 79 12 113 25 114 47 1 11 1 20 0 20 -1 0 -37
-7 -80 -15 -43 -8 -81 -15 -83 -15 -7 0 -4 54 4 66 9 14 109 74 123 74 8 0
101 -184 122 -242 4 -10 11 -18 16 -18 10 0 0 25 -73 184 -58 127 -35 113 29
-17 32 -65 60 -115 63 -113 6 7 -11 50 -55 140 -18 37 -33 77 -33 87 0 13 23
30 83 60 45 23 77 44 71 46 -6 2 -43 -12 -82 -32 -80 -40 -85 -41 -103 -19
-17 20 -6 27 83 50 37 10 68 21 68 26 0 11 -13 10 -62 -6 -24 -8 -63 -20 -88
-26 -25 -5 -84 -21 -132 -33 l-87 -23 -20 46 c-25 58 -46 77 -95 82 -29 3 -48
-2 -82 -24z m112 -21 c14 -13 36 -43 48 -67 19 -40 24 -45 54 -44 18 1 51 11
75 22 23 10 57 22 75 25 27 6 32 4 32 -12 0 -15 -5 -18 -21 -14 -18 5 -20 3
-14 -16 6 -18 0 -24 -42 -43 -26 -12 -55 -21 -63 -21 -26 0 -41 -19 -40 -51 4
-70 2 -73 -44 -85 -76 -19 -77 -18 -70 43 6 51 5 54 -13 50 -15 -4 -23 5 -41
43 -19 42 -20 49 -7 59 21 16 19 27 -5 21 -14 -4 -25 4 -41 31 l-21 36 29 23
c36 29 75 29 109 0z m-82 -175 c14 -21 26 -40 26 -43 0 -3 -25 -18 -55 -34
-50 -25 -59 -26 -80 -15 -18 10 -25 22 -25 44 0 26 7 36 43 58 23 14 47 27 53
27 6 1 23 -16 38 -37z m151 -159 c-11 -2 -35 -8 -52 -13 -18 -5 -33 -5 -33 0
0 9 36 17 80 17 19 1 20 0 5 -4z m-5 -37 c-67 -35 -90 -40 -90 -22 0 14 19 22
95 39 40 9 39 6 -5 -17z"/>
<path d="M190 861 c0 -5 7 -22 15 -37 26 -50 14 -128 -26 -171 -13 -12 -19
-26 -15 -30 12 -12 64 52 75 94 16 55 13 84 -9 121 -19 30 -40 43 -40 23z"/>
<path d="M7 843 c-12 -11 -8 -23 7 -23 16 0 31 -34 21 -50 -3 -5 -13 -10 -21
-10 -8 0 -14 -4 -14 -10 0 -14 33 -13 48 2 7 7 12 19 12 28 0 8 11 20 25 27
26 12 33 5 13 -15 -9 -9 -7 -13 5 -18 24 -9 21 -27 -2 -19 -26 8 -36 -12 -12
-24 15 -8 24 -6 42 8 22 17 22 19 7 57 -17 42 -46 55 -70 31 -13 -13 -16 -13
-26 4 -13 20 -24 24 -35 12z"/>
<path d="M368 484 c-4 -3 2 -18 13 -33 l21 -26 -39 -17 c-54 -24 -60 -22 -87
21 -14 22 -30 42 -36 46 -13 8 -140 -63 -140 -78 1 -7 14 -28 31 -47 l30 -35
-23 -15 c-13 -8 -33 -26 -46 -40 l-23 -24 38 -33 c21 -18 41 -32 44 -33 3 0
27 18 52 41 26 22 51 38 57 34 5 -3 10 -21 10 -38 0 -32 -2 -33 -75 -56 -41
-12 -75 -26 -75 -30 0 -18 15 -17 77 5 70 26 87 29 79 16 -3 -5 -33 -17 -68
-27 -71 -21 -87 -30 -73 -44 6 -6 34 1 75 19 35 16 68 26 73 23 5 -3 7 -21 4
-39 -3 -19 -2 -36 2 -38 11 -7 185 61 189 74 3 7 -5 9 -21 5 -24 -6 -26 -4
-32 42 -3 26 -7 58 -9 70 -3 23 38 67 167 177 100 86 90 102 -38 66 l-70 -19
-17 22 c-20 26 -34 17 -19 -11 18 -34 -11 -33 -39 0 -14 16 -28 26 -32 22z
m207 -59 c-63 -56 -72 -59 -79 -29 -4 15 -5 28 -2 31 9 9 81 32 101 32 16 1
12 -6 -20 -34z m-256 -65 c9 0 21 4 27 9 5 4 24 13 41 19 30 10 34 9 53 -18
11 -15 20 -32 20 -38 0 -5 -18 -22 -40 -37 -30 -21 -39 -33 -35 -49 2 -11 7
-39 10 -61 4 -22 9 -50 11 -61 5 -17 -1 -24 -27 -33 -51 -18 -69 -14 -69 13 0
13 7 26 15 30 22 8 18 25 -5 19 -11 -3 -20 -1 -20 5 0 6 9 14 20 17 11 3 20
11 20 16 0 6 -9 7 -20 4 -17 -5 -20 -2 -22 22 0 15 -2 34 -2 41 -2 22 -29 32
-46 18 -8 -7 -36 -25 -62 -39 -40 -22 -48 -24 -59 -11 -13 16 -4 31 40 70 l24
21 -26 34 c-29 39 -27 45 23 77 l35 22 39 -45 c21 -25 46 -45 55 -45z m161 31
c5 -11 10 -24 10 -30 0 -21 -20 -10 -35 19 -14 26 -14 30 -1 30 9 0 20 -9 26
-19z"/>
<path d="M750 305 c-10 -13 -11 -18 -1 -28 10 -9 15 -8 26 7 23 31 -1 50 -25
21z"/>
<path d="M98 3 c7 -3 16 -2 19 1 4 3 -2 6 -13 5 -11 0 -14 -3 -6 -6z"/>
</g>
</svg>
