<?xml version="1.0" standalone="no"?>
<!DOCTYPE svg PUBLIC "-//W3C//DTD SVG 20010904//EN"
 "http://www.w3.org/TR/2001/REC-SVG-20010904/DTD/svg10.dtd">
<svg version="1.0" xmlns="http://www.w3.org/2000/svg"
 width="76.000000pt" height="46.000000pt" viewBox="0 0 76.000000 46.000000"
 preserveAspectRatio="xMidYMid meet">
<metadata>
Created by potrace 1.16, written by Peter Selinger 2001-2019
</metadata>
<g transform="translate(0.000000,46.000000) scale(0.100000,-0.100000)"
fill="#000000" stroke="none">
<path d="M207 373 c-4 -3 -7 -44 -7 -90 0 -45 -3 -83 -7 -83 -20 0 -73 42 -73
56 0 10 11 32 25 50 25 33 32 54 17 54 -10 0 -102 -106 -102 -117 0 -15 67
-54 104 -60 20 -3 36 -10 36 -14 0 -5 5 -9 10 -9 6 0 10 11 10 25 0 32 5 34
120 37 l95 3 10 -38 c6 -21 14 -39 18 -40 16 -1 207 108 207 118 0 6 -16 17
-35 24 -19 7 -58 28 -87 47 -62 42 -101 43 -106 2 -4 -31 -17 -35 -121 -38
-41 0 -79 -4 -83 -6 -8 -5 0 45 8 55 5 5 -16 31 -26 31 -3 0 -10 -3 -13 -7z
m413 -114 c0 -6 -133 -69 -145 -69 -7 0 -6 136 1 143 7 7 144 -64 144 -74z
m-180 7 c0 -14 -16 -16 -105 -16 -77 0 -105 3 -105 13 0 8 30 13 105 15 90 3
105 1 105 -12z"/>
</g>
</svg>
