<?xml version="1.0" standalone="no"?>
<!DOCTYPE svg PUBLIC "-//W3C//DTD SVG 20010904//EN"
 "http://www.w3.org/TR/2001/REC-SVG-20010904/DTD/svg10.dtd">
<svg version="1.0" xmlns="http://www.w3.org/2000/svg"
 width="56.000000pt" height="88.000000pt" viewBox="0 0 56.000000 88.000000"
 preserveAspectRatio="xMidYMid meet">
<metadata>
Created by potrace 1.16, written by Peter Selinger 2001-2019
</metadata>
<g transform="translate(0.000000,88.000000) scale(0.100000,-0.100000)"
fill="#000000" stroke="none">
<path d="M297 834 c-4 -4 -7 -28 -7 -53 l0 -45 -44 43 c-24 24 -49 40 -55 37
-19 -12 -12 -25 29 -51 22 -14 40 -30 40 -35 0 -6 -26 -9 -60 -8 -32 1 -62 -1
-66 -4 -17 -17 12 -25 78 -20 l73 5 -25 -27 c-13 -15 -44 -40 -67 -55 -35 -23
-40 -31 -29 -40 11 -9 25 -1 69 39 30 27 58 50 61 50 3 0 6 -30 6 -67 0 -48 3
-64 10 -53 5 8 10 39 10 68 l0 54 52 -46 c29 -25 54 -44 55 -42 2 2 -20 28
-48 57 l-53 54 70 6 c54 4 59 6 24 7 -73 4 -77 13 -20 61 28 24 49 46 46 48
-3 3 -25 -10 -49 -30 -63 -51 -72 -51 -72 2 0 41 -12 60 -28 45z"/>
<path d="M80 475 c0 -16 7 -17 61 -11 34 3 121 6 192 6 72 0 128 2 125 5 -3 3
-89 8 -191 12 -176 6 -187 5 -187 -12z"/>
<path d="M291 366 c-6 -7 -8 -33 -4 -64 3 -29 3 -52 -1 -52 -4 0 -28 21 -52
48 -37 39 -46 44 -54 32 -10 -16 0 -28 65 -78 l30 -22 -61 1 c-67 3 -86 -4
-77 -26 4 -11 22 -15 66 -15 l60 0 -19 -21 c-10 -12 -34 -29 -53 -38 -38 -18
-50 -38 -29 -46 8 -3 36 14 63 40 27 25 54 45 60 45 8 0 10 -21 7 -60 -3 -40
-1 -60 7 -60 7 0 11 21 11 54 0 30 5 58 11 62 6 3 28 -11 50 -32 21 -21 41
-35 45 -32 3 4 -13 23 -35 43 -23 21 -41 42 -41 48 0 6 24 8 69 3 39 -3 72 -2
75 3 8 12 -29 21 -86 21 -27 0 -48 2 -48 5 0 2 20 23 45 46 25 23 43 44 41 47
-3 2 -28 -12 -56 -33 l-50 -37 0 60 c0 61 -16 86 -39 58z"/>
</g>
</svg>
