<?xml version="1.0" standalone="no"?>
<!DOCTYPE svg PUBLIC "-//W3C//DTD SVG 20010904//EN"
 "http://www.w3.org/TR/2001/REC-SVG-20010904/DTD/svg10.dtd">
<svg version="1.0" xmlns="http://www.w3.org/2000/svg"
 width="335.000000pt" height="47.000000pt" viewBox="0 0 335.000000 47.000000"
 preserveAspectRatio="xMidYMid meet">
<metadata>
Created by potrace 1.16, written by Peter Selinger 2001-2019
</metadata>
<g transform="translate(0.000000,47.000000) scale(0.100000,-0.100000)"
fill="#000000" stroke="none">
<path d="M2485 390 c-4 -7 5 -24 21 -41 21 -22 24 -29 12 -29 -9 0 -25 12 -36
28 -16 21 -23 24 -33 15 -9 -9 -6 -14 10 -25 11 -7 21 -17 21 -21 0 -5 -58 -5
-128 -2 -109 6 -130 4 -141 -9 -11 -13 -11 -17 0 -20 41 -13 43 -14 21 -15
-19 -1 -21 -3 -10 -21 7 -10 21 -21 33 -23 18 -4 17 -4 -3 -6 -13 0 -20 -5
-17 -11 3 -5 1 -10 -4 -10 -6 0 -11 -7 -11 -15 0 -23 42 -28 163 -21 l112 7
-37 -31 c-21 -17 -38 -36 -38 -41 0 -18 27 -8 55 21 27 28 55 40 55 23 0 -5
-14 -19 -30 -32 -17 -13 -30 -29 -30 -37 0 -25 25 -14 48 21 25 40 50 44 78
14 l19 -21 18 23 18 22 34 -33 c41 -40 48 -29 8 12 -21 22 -24 31 -15 40 9 9
17 7 34 -9 39 -34 55 -38 24 -5 l-30 32 184 0 c157 0 181 -2 165 -13 -17 -13
-14 -37 6 -37 5 0 25 23 45 50 20 27 42 50 50 50 8 0 14 9 14 21 0 11 -4 18
-9 14 -5 -3 -25 13 -43 36 -79 98 -76 95 -89 82 -10 -11 -6 -20 22 -49 l34
-36 -185 7 c-102 4 -187 9 -189 11 -3 2 6 15 19 29 13 14 19 25 13 25 -5 0
-20 -11 -33 -25 -40 -43 -57 -25 -20 22 29 38 16 41 -15 4 -24 -28 -28 -29
-48 -16 -19 12 -25 12 -42 -1 -17 -13 -22 -11 -56 22 -25 24 -39 32 -44 24z
m120 -90 c3 -5 1 -10 -4 -10 -6 0 -11 5 -11 10 0 6 2 10 4 10 3 0 8 -4 11 -10z
m-155 -15 c0 -12 -17 -15 -97 -15 -115 0 -115 13 0 21 45 3 85 6 90 7 4 1 7
-5 7 -13z m112 -2 c25 -23 22 -44 -12 -71 -24 -19 -33 -21 -51 -12 -15 9 -24
9 -32 1 -7 -7 -47 -10 -101 -9 l-91 2 83 3 c84 4 111 19 45 26 -35 3 -35 4 12
7 32 3 9 6 -65 10 l-115 6 112 2 c84 2 119 6 141 19 29 17 31 17 51 -1 25 -23
28 -10 4 16 -20 23 -6 24 19 1z m98 -2 c0 -5 -7 -14 -15 -21 -16 -14 -18 -10
-9 14 6 17 24 22 24 7z m463 -29 c16 -18 16 -20 0 -34 -21 -18 -277 -32 -355
-19 -26 4 -54 4 -63 -2 -18 -9 -55 16 -55 38 0 27 28 31 238 34 203 2 219 1
235 -17z m-525 -100 c6 -2 13 5 13 15 3 41 4 46 15 50 17 6 49 -36 37 -48 -8
-8 -13 -8 -17 0 -11 17 -27 13 -24 -6 4 -23 -28 -29 -47 -10 -8 9 -20 17 -27
20 -9 3 -7 10 7 27 l20 22 5 -33 c3 -18 11 -34 18 -37z"/>
<path d="M3103 375 c-3 -9 1 -21 9 -28 9 -7 32 -31 52 -54 l37 -41 -46 -61
c-25 -33 -50 -63 -56 -66 -13 -9 -11 -22 5 -28 9 -4 27 14 50 46 68 97 64 94
79 72 8 -10 17 -14 20 -9 3 6 -13 30 -35 54 -22 25 -51 64 -65 88 -26 44 -40
52 -50 27z"/>
<path d="M705 370 c-3 -4 7 -22 21 -39 16 -20 21 -31 12 -31 -7 0 -22 14 -33
30 -21 31 -45 40 -45 17 0 -8 9 -22 20 -32 20 -18 20 -18 0 -32 -15 -11 -41
-13 -106 -9 -47 3 -90 8 -95 11 -5 4 -10 3 -10 -2 -7 -44 -5 -56 12 -60 16 -5
16 -7 4 -20 -18 -18 -19 -49 -3 -59 7 -5 53 -7 103 -6 90 3 90 3 66 -16 -40
-32 -15 -48 25 -17 19 15 42 25 52 23 13 -3 8 -10 -20 -28 -36 -24 -50 -50
-27 -50 6 0 28 15 49 34 31 28 45 34 86 34 44 1 53 -2 91 -40 52 -51 56 -42 8
15 -46 53 -26 62 26 11 21 -21 39 -33 39 -28 0 6 -14 23 -30 39 l-30 29 22 12
c15 8 82 13 201 14 187 1 186 1 150 -41 -11 -14 -11 -18 2 -29 18 -15 40 -1
51 33 4 12 17 35 30 50 30 36 30 52 -1 102 -14 22 -25 50 -25 63 0 24 -11 27
-41 12 -27 -15 -24 -45 8 -70 l28 -22 -198 4 c-108 1 -197 5 -197 7 0 3 15 17
33 32 17 15 29 30 25 34 -3 4 -23 -9 -44 -29 -27 -26 -41 -33 -49 -25 -7 7 2
21 29 45 22 19 37 36 34 39 -2 3 -23 -11 -47 -31 -39 -34 -44 -35 -72 -24 -24
10 -35 10 -54 0 -27 -15 -49 -3 -60 30 -7 21 -32 34 -40 20z m149 -90 c-7 -7
-19 -7 -35 -1 -23 9 -22 10 11 10 23 1 31 -2 24 -9z m-66 -12 c7 -7 12 -19 12
-27 0 -11 -4 -10 -20 4 -21 19 -26 35 -12 35 4 0 13 -5 20 -12z m91 -27 c-16
-13 -27 -16 -34 -10 -7 7 -2 16 15 29 33 25 51 8 19 -19z m-121 -4 l21 -22
-34 -23 c-28 -20 -37 -22 -55 -12 -16 9 -25 9 -33 1 -14 -14 -30 -14 -22 -1 3
6 -4 11 -17 11 -20 1 -21 2 -3 6 24 6 45 22 45 34 0 5 -30 10 -67 11 -64 2
-62 2 27 8 52 3 100 7 106 8 6 1 20 -8 32 -21z m616 -2 c2 -7 -4 -21 -15 -31
-17 -15 -37 -16 -209 -11 -167 5 -194 4 -221 -11 -29 -16 -31 -16 -44 2 -13
18 -13 22 4 40 19 20 31 21 250 22 179 1 231 -1 235 -11z m-534 -25 c0 -5 -5
-10 -11 -10 -5 0 -7 5 -4 10 3 6 8 10 11 10 2 0 4 -4 4 -10z m-253 -16 c-3 -3
-12 -4 -19 -1 -8 3 -5 6 6 6 11 1 17 -2 13 -5z m209 -29 c-6 -16 -46 -21 -46
-6 0 6 10 17 22 26 24 16 35 7 24 -20z m81 -11 c-9 -10 -38 16 -31 28 4 6 13
4 22 -6 9 -8 13 -19 9 -22z m-37 -4 c0 -5 -4 -10 -10 -10 -5 0 -10 5 -10 10 0
6 5 10 10 10 6 0 10 -4 10 -10z"/>
<path d="M146 315 c-3 -9 -6 -24 -6 -33 0 -9 -15 -24 -33 -32 -43 -20 -49 -56
-11 -70 34 -13 130 -9 127 5 -1 6 -13 11 -26 13 -22 3 -24 7 -23 64 1 59 -14
88 -28 53z m-6 -101 c0 -8 -9 -14 -20 -14 -22 0 -28 26 -7 33 16 6 27 -1 27
-19z"/>
<path d="M1902 274 c-37 -25 -27 -76 19 -99 30 -16 59 -11 59 11 0 7 -6 11
-14 8 -8 -3 -22 -1 -32 4 -13 7 -11 10 15 15 25 5 31 12 31 31 0 15 -8 30 -19
36 -26 13 -33 13 -59 -6z m48 -19 c11 -13 8 -15 -14 -15 -25 0 -33 10 -19 23
10 11 19 8 33 -8z"/>
<path d="M1597 244 c-4 -4 -2 -13 4 -21 6 -7 8 -13 4 -13 -4 0 -3 -6 3 -12 7
-9 33 -12 81 -10 82 4 97 22 19 22 -29 0 -59 4 -66 8 -7 5 14 8 50 8 95 -1 88
18 -7 22 -44 2 -84 0 -88 -4z"/>
<path d="M245 200 c-4 -6 -3 -16 3 -22 6 -6 12 -6 17 2 4 6 3 16 -3 22 -6 6
-12 6 -17 -2z"/>
<path d="M2002 181 c2 -7 7 -12 11 -12 12 1 9 15 -3 20 -7 2 -11 -2 -8 -8z"/>
</g>
</svg>
