<?xml version="1.0" standalone="no"?>
<!DOCTYPE svg PUBLIC "-//W3C//DTD SVG 20010904//EN"
 "http://www.w3.org/TR/2001/REC-SVG-20010904/DTD/svg10.dtd">
<svg version="1.0" xmlns="http://www.w3.org/2000/svg"
 width="78.000000pt" height="63.000000pt" viewBox="0 0 78.000000 63.000000"
 preserveAspectRatio="xMidYMid meet">
<metadata>
Created by potrace 1.16, written by Peter Selinger 2001-2019
</metadata>
<g transform="translate(0.000000,63.000000) scale(0.100000,-0.100000)"
fill="#000000" stroke="none">
<path d="M320 499 l-115 -100 -78 2 c-84 2 -91 0 -82 -24 6 -13 34 -14 228
-10 122 2 229 7 237 10 10 4 1 10 -24 18 l-40 11 84 87 c45 48 80 90 77 94 -4
3 -24 -11 -44 -33 -91 -95 -165 -155 -186 -152 -18 3 -7 17 69 97 49 52 84 92
77 90 -7 -2 -53 -39 -103 -82 -58 -50 -89 -84 -86 -93 4 -11 -5 -14 -36 -14
l-41 0 19 23 c25 30 82 85 125 123 38 32 55 54 42 53 -4 0 -60 -45 -123 -100z"/>
<path d="M770 382 c0 -10 -5 -23 -11 -29 -8 -8 -7 -17 5 -34 16 -23 16 -22 16
29 0 28 -2 52 -5 52 -3 0 -5 -8 -5 -18z"/>
<path d="M54 308 c-12 -20 12 -27 86 -25 44 2 80 -1 80 -5 0 -4 54 -63 120
-130 66 -68 120 -116 120 -108 0 9 -19 36 -43 60 -23 25 -67 74 -97 110 -30
36 -59 68 -65 72 -5 4 14 8 42 8 29 0 52 -3 51 -7 -2 -5 23 -35 54 -68 31 -33
75 -80 97 -105 21 -25 43 -42 47 -38 4 4 -11 27 -32 51 -21 24 -61 72 -87 106
-44 56 -46 61 -25 61 16 0 53 -31 120 -102 54 -56 98 -95 98 -86 0 8 -7 22
-16 29 -21 17 -134 155 -134 164 0 3 6 5 13 3 7 -2 14 1 15 6 3 11 -437 15
-444 4z"/>
<path d="M570 10 c0 -5 5 -10 10 -10 6 0 10 5 10 10 0 6 -4 10 -10 10 -5 0
-10 -4 -10 -10z"/>
</g>
</svg>
