<?xml version="1.0" standalone="no"?>
<!DOCTYPE svg PUBLIC "-//W3C//DTD SVG 20010904//EN"
 "http://www.w3.org/TR/2001/REC-SVG-20010904/DTD/svg10.dtd">
<svg version="1.0" xmlns="http://www.w3.org/2000/svg"
 width="112.000000pt" height="53.000000pt" viewBox="0 0 112.000000 53.000000"
 preserveAspectRatio="xMidYMid meet">
<metadata>
Created by potrace 1.16, written by Peter Selinger 2001-2019
</metadata>
<g transform="translate(0.000000,53.000000) scale(0.100000,-0.100000)"
fill="#000000" stroke="none">
<path d="M223 458 c-9 -15 -79 -58 -94 -58 -5 0 -19 -9 -30 -19 -23 -21 -17
-45 9 -37 26 8 62 -27 55 -54 -5 -19 -3 -21 16 -15 18 5 24 2 28 -14 7 -27 14
-26 42 3 20 21 26 23 42 13 11 -7 17 -18 14 -24 -2 -7 2 -13 10 -13 14 0 31
-37 22 -47 -3 -2 -24 -7 -46 -10 -23 -3 -44 -10 -48 -16 -4 -7 12 -8 47 -4 32
4 50 3 44 -3 -5 -5 -26 -10 -47 -12 -20 -2 -36 -7 -35 -13 3 -12 33 -12 66 -1
19 6 22 4 22 -16 0 -50 18 -59 95 -46 76 12 95 26 95 70 0 26 3 28 40 28 22 0
40 5 40 11 0 7 -14 8 -40 4 -25 -4 -40 -3 -40 3 0 6 18 13 40 17 22 4 40 11
40 16 0 5 7 9 15 9 13 0 22 -16 57 -100 17 -42 20 -4 4 45 -18 52 -20 65 -7
65 4 0 18 -24 30 -52 19 -47 21 -49 17 -18 -2 19 -7 43 -11 52 -8 20 10 29 90
47 135 29 231 54 240 62 13 13 -3 11 -82 -7 -51 -12 -77 -13 -103 -6 -19 6
-93 20 -165 32 -71 12 -142 28 -157 35 -14 7 -38 10 -51 8 -14 -3 -42 0 -61 7
-43 14 -72 6 -79 -21 -5 -20 -8 -19 -34 12 -15 19 -33 43 -39 54 -14 24 -39
31 -51 13z m95 -109 c-3 -7 -95 -79 -101 -79 -2 0 -4 7 -4 16 0 8 14 26 30 40
38 32 28 43 -12 13 l-31 -23 -26 26 c-30 30 -27 39 24 72 l37 24 43 -41 c23
-23 41 -44 40 -48z m159 21 c20 0 22 -6 25 -80 3 -91 9 -85 -88 -93 -50 -4
-51 -3 -52 25 0 15 5 28 11 28 8 0 8 3 -1 9 -16 10 -13 28 12 58 15 17 22 20
28 11 6 -10 8 -10 8 -1 0 6 -4 14 -9 17 -10 7 -63 -18 -55 -26 2 -3 -2 -8 -11
-11 -24 -10 -18 15 11 47 23 24 32 27 63 22 20 -3 46 -6 58 -6z m198 -35 c39
-8 89 -17 113 -20 23 -4 42 -10 42 -14 0 -4 -27 -13 -60 -19 -59 -13 -62 -12
-81 10 l-20 23 5 -27 c8 -36 -11 -37 -25 -1 -8 22 -12 24 -19 13 -5 -8 -7 -22
-4 -32 4 -13 -4 -17 -45 -20 -48 -3 -49 -2 -53 27 -2 17 -2 43 0 58 4 31 -6
31 147 2z m-190 -155 c-16 -4 -43 -8 -60 -8 -29 1 -29 1 5 8 19 4 46 7 60 8
22 0 22 -1 -5 -8z m25 -44 c0 -32 -4 -34 -83 -42 l-67 -7 0 26 c0 22 6 27 43
35 23 6 57 10 75 11 28 1 32 -2 32 -23z"/>
<path d="M405 301 c-3 -6 -11 -9 -16 -6 -5 4 -9 2 -9 -4 0 -18 17 -21 30 -6 7
9 10 18 7 21 -3 3 -8 0 -12 -5z"/>
<path d="M350 450 c0 -5 7 -10 16 -10 8 0 12 5 9 10 -3 6 -10 10 -16 10 -5 0
-9 -4 -9 -10z"/>
<path d="M316 443 c-11 -11 -6 -23 9 -23 8 0 15 4 15 9 0 13 -16 22 -24 14z"/>
<path d="M1035 259 c-10 -15 3 -25 16 -12 7 7 7 13 1 17 -6 3 -14 1 -17 -5z"/>
<path d="M1034 195 c4 -14 2 -25 -4 -25 -5 0 -10 -7 -10 -16 0 -23 23 -12 38
19 14 30 9 47 -15 47 -11 0 -14 -6 -9 -25z"/>
</g>
</svg>
