<?xml version="1.0" standalone="no"?>
<!DOCTYPE svg PUBLIC "-//W3C//DTD SVG 20010904//EN"
 "http://www.w3.org/TR/2001/REC-SVG-20010904/DTD/svg10.dtd">
<svg version="1.0" xmlns="http://www.w3.org/2000/svg"
 width="92.000000pt" height="124.000000pt" viewBox="0 0 92.000000 124.000000"
 preserveAspectRatio="xMidYMid meet">
<metadata>
Created by potrace 1.16, written by Peter Selinger 2001-2019
</metadata>
<g transform="translate(0.000000,124.000000) scale(0.100000,-0.100000)"
fill="#000000" stroke="none">
<path d="M215 1150 c-27 -16 -63 -40 -79 -53 -25 -20 -27 -26 -17 -44 13 -25
105 -48 155 -39 17 3 53 -1 80 -9 59 -18 271 -20 313 -4 27 11 146 39 150 35
1 -1 3 -15 6 -31 7 -54 23 -35 35 42 16 106 16 110 -10 109 -19 -1 -24 -8 -26
-38 -2 -21 -5 -38 -6 -38 -2 0 -22 6 -44 14 -44 16 -153 35 -237 43 -28 3 -88
-3 -134 -11 -105 -20 -101 -20 -101 7 0 21 -16 47 -29 47 -4 0 -28 -14 -56
-30z m55 -60 l0 -60 -30 0 c-30 0 -30 1 -29 49 2 39 6 51 23 59 34 17 36 15
36 -48z m300 6 c0 -6 -3 -28 -6 -48 -5 -31 -11 -38 -29 -38 -20 0 -23 6 -27
45 -2 24 -2 48 0 53 4 13 62 2 62 -12z m-382 -36 c-3 -19 -5 -20 -23 -6 -20
14 -20 14 0 36 17 19 21 20 23 6 2 -9 2 -25 0 -36z m297 7 c0 -42 -3 -47 -30
-47 -10 0 -15 11 -15 35 0 19 -4 35 -10 35 -5 0 -10 -16 -10 -35 0 -24 -5 -35
-15 -35 -8 0 -15 4 -15 9 0 5 -3 22 -6 39 -7 33 2 39 66 41 35 1 35 1 35 -42z
m175 27 c64 -7 132 -26 123 -34 -7 -7 -156 -40 -181 -40 -8 0 -12 18 -12 46 0
40 2 45 18 39 9 -3 33 -8 52 -11z m-300 -32 c0 -26 -2 -28 -34 -24 -27 3 -33
8 -29 21 8 20 23 31 46 31 12 0 17 -8 17 -28z"/>
<path d="M273 871 c-9 -14 -29 -20 -85 -25 -40 -4 -86 -9 -101 -12 -31 -6 -47
-32 -27 -44 9 -6 11 -25 7 -68 -8 -90 18 -109 124 -93 37 6 56 5 61 -2 9 -15
0 -27 -22 -27 -25 0 -35 -17 -19 -36 10 -12 15 -12 33 -1 29 19 53 32 108 58
l46 22 47 -23 c60 -29 110 -25 285 25 143 41 147 42 138 51 -4 3 -64 -9 -135
-26 -102 -25 -141 -31 -193 -26 -69 5 -246 39 -256 49 -3 3 -3 19 1 35 4 22
13 31 33 35 15 3 35 9 44 12 16 6 17 2 11 -40 -5 -38 -3 -47 8 -43 9 3 14 20
14 49 0 39 3 45 25 50 14 3 43 3 65 1 l40 -4 0 -65 c0 -44 4 -68 13 -70 9 -4
12 14 12 66 l0 71 28 -5 c15 -2 59 -9 97 -15 135 -20 182 -32 160 -40 -12 -5
-1 -7 30 -5 46 1 49 3 50 28 2 23 0 25 -13 14 -13 -9 -14 -9 -8 1 4 6 2 12 -3
12 -6 0 -11 -5 -11 -11 0 -7 -10 -9 -27 -4 -16 4 -41 8 -58 10 -16 2 -88 16
-160 31 -134 29 -206 34 -227 16 -7 -5 -34 -13 -60 -17 -51 -8 -56 -3 -39 40
8 19 -3 45 -18 45 -3 0 -12 -9 -18 -19z m-9 -113 c-4 -46 -9 -86 -13 -89 -3
-4 -18 -9 -33 -13 -33 -8 -34 1 -14 104 10 55 16 65 36 71 14 4 26 7 28 8 1 1
-1 -36 -4 -81z m-96 -20 c-2 -40 -8 -73 -14 -75 -6 -2 -22 5 -34 15 -22 18
-23 23 -13 66 7 33 7 46 -1 46 -22 0 19 20 42 20 22 0 23 -3 20 -72z m157
-103 c-35 -16 -55 -19 -55 -7 0 16 14 22 49 21 l36 -1 -30 -13z"/>
<path d="M660 715 c0 -25 5 -45 10 -45 6 0 10 20 10 45 0 25 -4 45 -10 45 -5
0 -10 -20 -10 -45z"/>
<path d="M455 489 c-4 -6 2 -13 13 -16 22 -5 42 -66 42 -127 0 -40 1 -40 102
-50 32 -4 68 -10 80 -15 13 -5 51 -17 86 -27 34 -10 62 -21 62 -25 0 -15 -113
-49 -163 -49 l-52 0 4 46 c2 25 -2 51 -8 57 -8 8 -11 -4 -11 -44 l0 -55 -43
-12 c-23 -7 -74 -15 -112 -18 -74 -5 -84 -9 -69 -24 15 -15 164 0 164 16 0 10
7 11 29 3 29 -10 113 -2 193 19 45 12 100 50 92 64 -10 16 -122 63 -225 94
l-96 28 -12 58 c-12 58 -31 88 -56 88 -8 0 -17 -5 -20 -11z"/>
<path d="M253 369 c-44 -14 -97 -39 -116 -53 -23 -18 -45 -26 -63 -24 -15 2
-29 -3 -31 -9 -3 -7 2 -13 11 -13 18 0 21 -16 5 -26 -8 -4 -7 -9 2 -14 7 -5
20 -3 30 3 15 9 22 8 36 -6 10 -10 18 -25 18 -34 0 -13 17 -22 65 -35 36 -9
77 -17 93 -18 20 0 27 -5 27 -20 0 -11 7 -20 15 -20 12 0 15 17 15 94 l0 93
62 9 c34 5 63 15 66 22 5 17 -50 16 -93 -2 l-35 -15 0 38 c0 57 -13 61 -107
30z m77 -113 l0 -103 -39 10 c-37 10 -39 13 -46 61 -3 27 -11 58 -17 69 -16
31 -28 6 -18 -38 18 -78 13 -81 -48 -26 l-42 39 37 24 c39 24 139 67 161 67 9
1 12 -26 12 -103z"/>
<path d="M397 273 c-7 -15 5 -93 14 -87 12 7 12 81 0 89 -5 3 -11 2 -14 -2z"/>
<path d="M470 231 c0 -48 12 -72 25 -51 9 14 -5 100 -16 100 -5 0 -9 -22 -9
-49z"/>
<path d="M670 246 c0 -26 15 -43 24 -28 7 12 -4 52 -15 52 -5 0 -9 -11 -9 -24z"/>
</g>
</svg>
