<?xml version="1.0" standalone="no"?>
<!DOCTYPE svg PUBLIC "-//W3C//DTD SVG 20010904//EN"
 "http://www.w3.org/TR/2001/REC-SVG-20010904/DTD/svg10.dtd">
<svg version="1.0" xmlns="http://www.w3.org/2000/svg"
 width="156.000000pt" height="57.000000pt" viewBox="0 0 156.000000 57.000000"
 preserveAspectRatio="xMidYMid meet">
<metadata>
Created by potrace 1.16, written by Peter Selinger 2001-2019
</metadata>
<g transform="translate(0.000000,57.000000) scale(0.100000,-0.100000)"
fill="#000000" stroke="none">
<path d="M241 496 c-10 -12 -2 -30 43 -94 31 -44 66 -102 77 -128 17 -39 52
-94 96 -153 2 -2 6 -1 9 2 4 4 -5 24 -19 44 -29 42 -102 178 -143 265 -32 69
-47 84 -63 64z"/>
<path d="M172 469 c-62 -40 -93 -129 -56 -160 9 -7 50 -16 92 -19 l75 -5 -41
-48 c-47 -54 -50 -66 -24 -95 18 -22 51 -26 170 -23 83 2 52 21 -33 21 -68 0
-76 2 -91 25 -20 31 -11 62 27 95 40 35 26 54 -38 51 -70 -3 -105 26 -101 82
2 32 9 44 26 53 32 16 46 31 35 37 -5 3 -23 -3 -41 -14z"/>
<path d="M1347 464 c-4 -4 -4 -32 -2 -63 4 -45 14 -230 15 -264 0 -5 4 -6 8
-3 4 2 9 56 10 118 2 62 5 127 8 145 10 52 -14 92 -39 67z"/>
<path d="M1253 403 c-35 -19 -63 -38 -63 -43 0 -4 23 -22 50 -40 57 -37 57
-41 -18 -92 l-44 -30 28 -29 c15 -16 49 -36 75 -44 27 -9 51 -21 54 -26 7 -11
35 -12 35 -1 0 4 -30 25 -65 47 -36 22 -65 45 -65 50 0 14 72 85 86 85 5 0 10
8 10 18 0 11 -9 18 -24 19 -13 0 -34 11 -47 23 l-24 23 44 34 c73 55 59 58
-32 6z"/>
<path d="M601 403 c-22 -9 -30 -18 -24 -24 11 -11 57 3 67 20 11 17 -8 19 -43
4z"/>
<path d="M698 394 c-28 -15 -36 -38 -18 -49 5 -3 7 -19 3 -35 -6 -34 11 -46
52 -36 31 8 42 32 27 56 -8 13 -7 21 0 28 9 9 7 17 -7 32 -21 24 -22 24 -57 4z
m37 -25 c-8 -12 -35 -12 -35 0 0 11 22 20 33 14 4 -2 5 -9 2 -14z m0 -59 c3
-5 -1 -10 -9 -10 -9 0 -16 5 -16 10 0 6 4 10 9 10 6 0 13 -4 16 -10z"/>
<path d="M533 386 c-16 -29 -4 -56 23 -56 17 0 24 -6 24 -20 0 -14 -7 -20 -22
-20 -22 -1 -22 -1 -4 -15 27 -21 56 -3 56 36 0 21 -6 32 -24 40 -13 6 -28 21
-33 32 -9 20 -10 20 -20 3z"/>
<path d="M822 343 c-15 -6 -6 -23 14 -23 8 0 14 7 14 15 0 15 -6 17 -28 8z"/>
<path d="M826 291 c-4 -5 -1 -13 5 -17 9 -5 7 -11 -6 -20 -24 -18 -13 -29 15
-14 13 7 20 19 18 32 -3 23 -23 35 -32 19z"/>
<path d="M75 22 c-14 -14 -1 -22 36 -22 22 0 38 4 35 9 -6 10 -64 20 -71 13z"/>
<path d="M285 10 c-4 -6 7 -10 25 -10 18 0 29 4 25 10 -3 6 -15 10 -25 10 -10
0 -22 -4 -25 -10z"/>
</g>
</svg>
