<?xml version="1.0" standalone="no"?>
<!DOCTYPE svg PUBLIC "-//W3C//DTD SVG 20010904//EN"
 "http://www.w3.org/TR/2001/REC-SVG-20010904/DTD/svg10.dtd">
<svg version="1.0" xmlns="http://www.w3.org/2000/svg"
 width="77.000000pt" height="67.000000pt" viewBox="0 0 77.000000 67.000000"
 preserveAspectRatio="xMidYMid meet">
<metadata>
Created by potrace 1.16, written by Peter Selinger 2001-2019
</metadata>
<g transform="translate(0.000000,67.000000) scale(0.100000,-0.100000)"
fill="#000000" stroke="none">
<path d="M87 534 c-3 -3 -3 -37 0 -75 4 -51 2 -74 -9 -91 -10 -15 -12 -30 -7
-43 4 -11 8 -50 8 -87 1 -69 13 -90 25 -42 4 14 9 81 11 150 2 68 7 129 10
134 16 26 -17 74 -38 54z"/>
<path d="M425 488 c-10 -29 -29 -75 -43 -101 l-26 -48 40 -42 c71 -75 70 -69
25 -133 -22 -32 -38 -61 -35 -66 3 -4 27 16 54 44 26 29 44 54 40 56 -5 2 -6
10 -3 18 3 8 -13 43 -36 77 -42 64 -49 91 -30 102 16 10 60 117 55 132 -10 26
-25 12 -41 -39z"/>
<path d="M195 493 c-11 -58 -15 -312 -5 -318 15 -9 18 6 24 154 4 79 11 151
15 160 10 20 3 41 -14 41 -7 0 -16 -17 -20 -37z"/>
<path d="M504 519 c-4 -7 -6 -40 -5 -74 2 -57 0 -63 -21 -69 l-23 -7 23 -16
c20 -14 22 -24 22 -94 0 -56 4 -79 13 -80 23 -3 102 2 120 7 27 8 20 24 -10
24 -16 0 -45 3 -66 6 l-38 7 3 61 3 61 73 3 c50 2 72 7 69 15 -2 7 -21 10 -50
8 -84 -5 -89 0 -85 81 2 47 -1 72 -9 75 -6 2 -15 -1 -19 -8z"/>
<path d="M304 287 c-80 -89 -110 -150 -41 -83 18 17 49 46 70 64 24 20 37 39
33 47 -9 23 -20 18 -62 -28z"/>
</g>
</svg>
