<?xml version="1.0" standalone="no"?>
<!DOCTYPE svg PUBLIC "-//W3C//DTD SVG 20010904//EN"
 "http://www.w3.org/TR/2001/REC-SVG-20010904/DTD/svg10.dtd">
<svg version="1.0" xmlns="http://www.w3.org/2000/svg"
 width="44.000000pt" height="51.000000pt" viewBox="0 0 44.000000 51.000000"
 preserveAspectRatio="xMidYMid meet">
<metadata>
Created by potrace 1.16, written by Peter Selinger 2001-2019
</metadata>
<g transform="translate(0.000000,51.000000) scale(0.100000,-0.100000)"
fill="#000000" stroke="none">
<path d="M287 441 c-17 -16 -71 -54 -119 -85 -49 -32 -88 -61 -88 -66 0 -5 23
-8 52 -6 60 4 78 0 78 -20 0 -19 -39 -18 -61 2 -10 9 -22 13 -28 9 -17 -10 -6
-49 16 -55 16 -4 135 -105 198 -168 3 -3 5 5 5 19 0 13 2 44 4 69 4 45 9 241
7 291 -1 39 -26 43 -64 10z m33 -61 c0 -38 -4 -60 -11 -60 -7 0 -9 11 -6 28 6
32 -8 67 -17 42 -3 -8 -7 -28 -9 -45 l-4 -30 -2 33 c-2 52 -29 35 -32 -21 -1
-21 -1 -21 -7 1 -8 27 -28 26 -24 0 3 -14 -4 -18 -29 -18 -18 0 -29 3 -25 8
18 18 152 120 159 121 4 1 7 -26 7 -59z m-70 -122 c0 -5 -4 -8 -10 -8 -5 0
-10 10 -10 23 0 18 2 19 10 7 5 -8 10 -18 10 -22z m40 12 c0 -11 -4 -20 -10
-20 -5 0 -10 9 -10 20 0 11 5 20 10 20 6 0 10 -9 10 -20z m27 -12 c-3 -7 -5
-2 -5 12 0 14 2 19 5 13 2 -7 2 -19 0 -25z m-107 -38 c0 -5 -2 -10 -4 -10 -3
0 -8 5 -11 10 -3 6 -1 10 4 10 6 0 11 -4 11 -10z m40 -21 c0 -17 -4 -28 -10
-24 -5 3 -10 17 -10 31 0 13 5 24 10 24 6 0 10 -14 10 -31z m32 -14 c-2 -25
-9 -45 -14 -45 -6 0 -8 10 -4 23 3 12 6 32 6 45 0 12 3 22 8 22 4 0 6 -20 4
-45z m33 -83 c-9 -9 -23 18 -19 37 20 103 19 101 22 32 2 -35 0 -66 -3 -69z"/>
</g>
</svg>
