<?xml version="1.0" standalone="no"?>
<!DOCTYPE svg PUBLIC "-//W3C//DTD SVG 20010904//EN"
 "http://www.w3.org/TR/2001/REC-SVG-20010904/DTD/svg10.dtd">
<svg version="1.0" xmlns="http://www.w3.org/2000/svg"
 width="53.000000pt" height="41.000000pt" viewBox="0 0 53.000000 41.000000"
 preserveAspectRatio="xMidYMid meet">
<metadata>
Created by potrace 1.16, written by Peter Selinger 2001-2019
</metadata>
<g transform="translate(0.000000,41.000000) scale(0.100000,-0.100000)"
fill="#000000" stroke="none">
<path d="M100 306 c-6 -6 -10 -43 -10 -82 0 -67 2 -74 27 -94 25 -19 37 -21
138 -18 88 2 112 0 121 -12 10 -11 14 0 20 55 4 39 8 90 8 115 l1 45 -148 0
c-82 0 -152 -4 -157 -9z m270 -48 l0 -41 -105 6 c-89 6 -105 5 -105 -8 0 -17
1 -17 123 -15 l87 1 0 -29 c0 -17 -6 -32 -12 -34 -7 -3 -51 -4 -97 -2 -111 5
-162 38 -132 85 7 12 7 19 1 19 -5 0 -10 9 -10 19 0 22 29 28 145 34 33 2 70
4 83 5 20 2 22 -3 22 -40z"/>
</g>
</svg>
