<?xml version="1.0" standalone="no"?>
<!DOCTYPE svg PUBLIC "-//W3C//DTD SVG 20010904//EN"
 "http://www.w3.org/TR/2001/REC-SVG-20010904/DTD/svg10.dtd">
<svg version="1.0" xmlns="http://www.w3.org/2000/svg"
 width="72.000000pt" height="31.000000pt" viewBox="0 0 72.000000 31.000000"
 preserveAspectRatio="xMidYMid meet">
<metadata>
Created by potrace 1.16, written by Peter Selinger 2001-2019
</metadata>
<g transform="translate(0.000000,31.000000) scale(0.100000,-0.100000)"
fill="#000000" stroke="none">
<path d="M595 250 c-40 -17 -183 -60 -199 -60 -9 0 -19 -6 -22 -14 -5 -12 -13
-12 -57 1 -59 16 -206 53 -213 53 -2 0 -4 -6 -4 -13 0 -9 32 -21 88 -35 48
-11 105 -26 127 -32 22 -6 65 -18 95 -25 30 -8 80 -21 110 -29 30 -8 69 -16
85 -18 l30 -3 6 80 c8 107 4 116 -46 95z m19 -57 c12 -79 9 -93 -23 -93 -17 0
-60 11 -98 24 -37 13 -77 26 -88 29 -16 3 -14 5 10 11 17 4 62 20 100 36 39
15 75 28 81 29 6 0 14 -16 18 -36z"/>
<path d="M61 133 c2 -38 5 -72 7 -77 10 -19 22 23 22 82 0 50 -3 62 -16 62
-13 0 -15 -11 -13 -67z"/>
<path d="M198 115 c-87 -26 -98 -32 -98 -47 0 -18 80 5 152 43 10 5 24 9 32 9
8 0 18 5 21 10 9 15 -21 11 -107 -15z"/>
</g>
</svg>
