<?xml version="1.0" standalone="no"?>
<!DOCTYPE svg PUBLIC "-//W3C//DTD SVG 20010904//EN"
 "http://www.w3.org/TR/2001/REC-SVG-20010904/DTD/svg10.dtd">
<svg version="1.0" xmlns="http://www.w3.org/2000/svg"
 width="77.000000pt" height="37.000000pt" viewBox="0 0 77.000000 37.000000"
 preserveAspectRatio="xMidYMid meet">
<metadata>
Created by potrace 1.16, written by Peter Selinger 2001-2019
</metadata>
<g transform="translate(0.000000,37.000000) scale(0.100000,-0.100000)"
fill="#000000" stroke="none">
<path d="M480 319 c-138 -4 -183 -9 -215 -23 -55 -25 -74 -56 -35 -56 11 0 20
3 20 8 0 4 15 16 33 27 28 17 54 20 215 23 100 2 182 7 182 12 0 14 -22 15
-200 9z"/>
<path d="M444 279 c-3 -6 -3 -53 0 -105 l7 -94 -49 0 c-76 0 -110 10 -141 42
-29 30 -35 31 -163 37 -13 1 -18 9 -18 31 0 29 1 30 52 30 36 0 49 3 42 10
-10 10 -121 17 -129 8 -8 -7 8 -158 16 -158 5 0 9 11 9 24 0 21 5 24 63 30 58
6 63 5 81 -19 30 -42 67 -55 155 -55 66 0 82 -3 90 -17 10 -17 10 -17 11 0 0
15 11 17 88 17 48 0 94 5 102 10 10 7 -18 10 -89 10 l-104 0 7 105 c6 90 5
105 -8 105 -8 0 -18 -5 -22 -11z"/>
</g>
</svg>
