<?xml version="1.0" standalone="no"?>
<!DOCTYPE svg PUBLIC "-//W3C//DTD SVG 20010904//EN"
 "http://www.w3.org/TR/2001/REC-SVG-20010904/DTD/svg10.dtd">
<svg version="1.0" xmlns="http://www.w3.org/2000/svg"
 width="124.000000pt" height="41.000000pt" viewBox="0 0 124.000000 41.000000"
 preserveAspectRatio="xMidYMid meet">
<metadata>
Created by potrace 1.16, written by Peter Selinger 2001-2019
</metadata>
<g transform="translate(0.000000,41.000000) scale(0.100000,-0.100000)"
fill="#000000" stroke="none">
<path d="M1071 316 c-9 -11 -5 -19 20 -39 l31 -24 -43 -6 c-24 -4 -96 -9 -160
-13 l-116 -7 -13 32 c-8 21 -18 31 -29 28 -16 -3 -17 -9 -6 -39 4 -11 3 -18
-4 -18 -6 0 -11 6 -11 13 0 7 -6 22 -14 33 -11 15 -17 16 -27 7 -9 -9 -8 -17
5 -37 14 -22 14 -25 1 -20 -8 4 -18 17 -21 30 -3 13 -12 24 -20 24 -16 0 -19
-31 -3 -47 7 -7 4 -12 -11 -16 -20 -5 -21 -3 -16 28 11 59 -5 63 -274 68 -137
3 -242 1 -252 -4 -15 -8 -18 -23 -17 -87 0 -42 4 -86 9 -97 9 -19 9 -19 16 3
6 22 44 32 44 11 0 -8 5 -7 15 1 11 9 19 10 26 3 6 -6 29 -7 55 -3 44 7 46 6
56 -21 11 -31 28 -30 28 2 0 17 7 19 78 19 42 0 100 3 129 6 51 7 51 6 55 -22
5 -47 23 -33 26 21 3 51 3 51 35 47 25 -3 38 -14 61 -49 33 -51 49 -51 17 0
-11 19 -21 41 -21 48 1 14 27 -13 63 -66 27 -38 33 -22 8 20 -44 75 -19 75 29
0 19 -30 38 -55 43 -55 14 0 7 25 -18 65 -13 22 -25 42 -25 45 0 3 15 7 33 8
184 15 262 20 265 17 2 -1 -11 -26 -29 -54 -17 -29 -29 -54 -27 -56 2 -3 21
13 41 35 21 21 46 42 57 45 20 6 28 35 10 35 -5 0 -10 5 -10 11 0 14 -59 89
-70 89 -4 0 -13 -6 -19 -14z m-483 -33 c-3 -16 -22 -18 -206 -19 -117 -1 -200
2 -196 7 8 13 -10 11 -24 -3 -9 -9 -15 -9 -24 0 -19 19 5 22 212 25 107 1 205
3 218 5 18 1 23 -2 20 -15z m-428 -48 c0 -8 -7 -15 -15 -15 -8 0 -15 7 -15 15
0 8 7 15 15 15 8 0 15 -7 15 -15z m50 0 c0 -8 -7 -15 -15 -15 -9 0 -12 6 -9
15 4 8 10 15 15 15 5 0 9 -7 9 -15z m40 -5 c0 -11 -4 -20 -10 -20 -5 0 -10 9
-10 20 0 11 5 20 10 20 6 0 10 -9 10 -20z m63 13 c9 -9 -12 -33 -29 -33 -8 0
-14 9 -14 20 0 19 28 28 43 13z m278 -1 c1 -4 3 -21 5 -38 l4 -32 -65 -7 c-85
-9 -195 3 -195 21 0 10 15 12 63 9 34 -2 89 -1 122 4 54 8 47 9 -62 10 -99 1
-123 4 -123 15 0 8 5 16 10 18 20 6 240 6 241 0z m-431 -56 c0 -15 -24 -28
-34 -19 -13 14 -5 33 14 33 11 0 20 -6 20 -14z m42 -1 c0 -5 -5 -11 -11 -13
-6 -2 -11 4 -11 13 0 9 5 15 11 13 6 -2 11 -8 11 -13z m48 -5 c0 -5 -4 -10
-10 -10 -5 0 -10 5 -10 10 0 6 5 10 10 10 6 0 10 -4 10 -10z m60 1 c0 -11 -26
-22 -34 -14 -12 12 -5 23 14 23 11 0 20 -4 20 -9z"/>
</g>
</svg>
