<?xml version="1.0" standalone="no"?>
<!DOCTYPE svg PUBLIC "-//W3C//DTD SVG 20010904//EN"
 "http://www.w3.org/TR/2001/REC-SVG-20010904/DTD/svg10.dtd">
<svg version="1.0" xmlns="http://www.w3.org/2000/svg"
 width="72.000000pt" height="64.000000pt" viewBox="0 0 72.000000 64.000000"
 preserveAspectRatio="xMidYMid meet">
<metadata>
Created by potrace 1.16, written by Peter Selinger 2001-2019
</metadata>
<g transform="translate(0.000000,64.000000) scale(0.100000,-0.100000)"
fill="#000000" stroke="none">
<path d="M420 488 c-96 -46 -184 -78 -212 -78 -11 0 -23 11 -28 26 -6 14 -16
24 -23 21 -21 -7 -13 -39 15 -60 27 -20 29 -20 85 -3 58 18 273 122 273 131 0
11 -29 1 -110 -37z"/>
<path d="M515 488 c-7 -21 9 -258 18 -258 5 0 10 61 12 135 4 115 2 135 -11
135 -8 0 -17 -6 -19 -12z"/>
<path d="M396 371 c-8 -13 4 -131 15 -153 16 -30 83 -43 146 -30 53 11 123 52
123 73 0 17 -21 9 -60 -22 -48 -39 -112 -49 -158 -25 -35 18 -35 17 -36 100
-1 55 -15 82 -30 57z"/>
<path d="M197 263 c-3 -5 -4 -33 -2 -63 2 -50 5 -55 31 -66 25 -11 109 -13
118 -3 2 2 7 34 11 72 l7 67 -81 0 c-44 0 -82 -3 -84 -7z m63 -43 c0 -13 -7
-20 -20 -20 -13 0 -20 7 -20 20 0 13 7 20 20 20 13 0 20 -7 20 -20z m60 6 c0
-17 -32 -15 -38 2 -2 7 6 12 17 12 12 0 21 -6 21 -14z m10 -51 c0 -18 -5 -25
-20 -25 -20 0 -28 28 -13 43 15 16 33 6 33 -18z m-60 -10 c0 -9 -6 -12 -15 -9
-8 4 -15 10 -15 15 0 5 7 9 15 9 8 0 15 -7 15 -15z"/>
</g>
</svg>
