<?xml version="1.0" standalone="no"?>
<!DOCTYPE svg PUBLIC "-//W3C//DTD SVG 20010904//EN"
 "http://www.w3.org/TR/2001/REC-SVG-20010904/DTD/svg10.dtd">
<svg version="1.0" xmlns="http://www.w3.org/2000/svg"
 width="156.000000pt" height="87.000000pt" viewBox="0 0 156.000000 87.000000"
 preserveAspectRatio="xMidYMid meet">
<metadata>
Created by potrace 1.16, written by Peter Selinger 2001-2019
</metadata>
<g transform="translate(0.000000,87.000000) scale(0.100000,-0.100000)"
fill="#000000" stroke="none">
<path d="M724 785 c-3 -8 -16 -17 -27 -21 -35 -11 -146 -87 -141 -96 9 -15 25
-8 88 37 35 25 77 48 93 51 27 5 32 3 42 -27 13 -39 13 -39 0 -39 -5 0 -15 14
-20 30 -6 17 -15 30 -20 30 -13 0 -12 -3 25 -80 36 -76 32 -84 -31 -59 -15 6
-44 13 -63 16 -19 2 -57 10 -83 18 -45 13 -52 13 -89 -6 -22 -11 -41 -19 -43
-17 -1 2 -11 19 -21 38 -13 26 -19 30 -22 18 -6 -31 -39 0 -34 32 3 21 -1 31
-16 39 -14 7 -23 8 -27 1 -4 -6 -64 -10 -149 -10 -141 0 -143 0 -156 -25 -11
-20 -11 -27 1 -41 12 -15 31 -16 166 -10 106 5 153 4 153 -3 0 -7 -39 -12
-107 -13 -204 -3 -201 -2 -199 -40 1 -23 1 -23 163 -23 l163 0 0 33 c0 38 12
42 28 8 9 -21 8 -27 -11 -39 -30 -20 -10 -45 22 -28 18 10 23 7 41 -29 32 -62
37 -52 15 27 -3 10 3 -1 14 -24 11 -24 25 -43 31 -43 6 0 -1 22 -15 50 -14 27
-25 51 -25 54 0 2 16 14 36 25 35 21 39 21 82 6 25 -8 53 -15 62 -15 9 0 32
-8 51 -17 42 -22 185 -26 238 -7 53 19 75 18 66 -3 -4 -10 -9 -36 -12 -58 -4
-35 0 -47 29 -85 46 -62 76 -64 107 -10 21 38 25 40 69 41 77 1 98 17 27 20
-58 3 -59 3 -12 6 59 5 62 21 5 26 l-43 4 43 1 c52 2 55 19 5 25 l-38 4 38 1
c20 1 37 7 37 13 0 5 -3 8 -7 6 -5 -3 -17 -1 -28 4 -16 6 -14 8 12 8 41 1 55
21 14 21 -22 0 -29 4 -25 14 9 23 -14 28 -28 6 -10 -15 -23 -20 -55 -20 -56 0
-56 -19 0 -22 l42 -1 -40 -4 c-58 -6 -68 -23 -14 -24 24 -1 33 -3 19 -6 -55
-8 -71 -14 -65 -23 3 -6 1 -10 -6 -10 -24 0 5 -18 36 -23 24 -3 21 -4 -12 -6
-49 -1 -57 -19 -13 -27 34 -7 34 -7 19 -37 -16 -30 -15 -30 -38 -17 -33 17
-64 86 -55 123 4 18 8 41 9 51 1 16 16 24 73 37 39 10 86 26 104 35 l33 17
-65 29 c-77 35 -173 62 -290 83 -109 19 -149 19 -156 0z m256 -40 c69 -14 210
-65 210 -76 0 -8 -21 -14 -135 -38 -169 -36 -147 -42 -190 52 -21 45 -40 76
-42 69 -6 -16 22 -87 48 -124 20 -27 20 -28 1 -28 -14 0 -27 19 -51 71 -44
100 -43 101 32 94 34 -4 91 -13 127 -20z m-740 -40 c0 -16 -6 -25 -15 -25 -9
0 -15 9 -15 25 0 16 6 25 15 25 9 0 15 -9 15 -25z m100 21 c0 -2 3 -11 6 -20
5 -13 -2 -16 -40 -16 -39 0 -46 3 -46 20 0 17 7 20 40 20 22 0 40 -2 40 -4z
m-150 -26 c0 -11 -7 -20 -15 -20 -8 0 -15 9 -15 20 0 11 7 20 15 20 8 0 15 -9
15 -20z m-106 -5 c4 -10 -1 -15 -14 -15 -11 0 -20 7 -20 15 0 8 6 15 14 15 8
0 16 -7 20 -15z m56 -1 c0 -9 -7 -14 -17 -12 -25 5 -28 28 -4 28 12 0 21 -6
21 -16z m675 -50 c17 -42 18 -44 7 -44 -7 0 -42 63 -42 75 0 3 4 5 10 5 5 0
17 -16 25 -36z m-465 -21 c0 -8 -14 -13 -40 -13 -40 0 -56 15 -22 22 36 7 62
4 62 -9z m-250 -3 c0 -5 -7 -10 -15 -10 -8 0 -15 5 -15 10 0 6 7 10 15 10 8 0
15 -4 15 -10z m55 0 c3 -5 -3 -10 -15 -10 -12 0 -18 5 -15 10 3 6 10 10 15 10
5 0 12 -4 15 -10z m55 0 c0 -5 -9 -10 -20 -10 -11 0 -20 5 -20 10 0 6 9 10 20
10 11 0 20 -4 20 -10z m40 0 c0 -5 -4 -10 -10 -10 -5 0 -10 5 -10 10 0 6 5 10
10 10 6 0 10 -4 10 -10z m883 -97 c-7 -2 -19 -2 -25 0 -7 3 -2 5 12 5 14 0 19
-2 13 -5z"/>
<path d="M375 770 c-9 -14 -1 -22 45 -48 19 -10 52 -29 73 -42 60 -36 42 -9
-31 45 -80 60 -78 59 -87 45z"/>
<path d="M1426 648 c3 -34 11 -67 16 -73 12 -14 28 14 22 40 -2 11 -6 36 -8
55 -2 23 -9 36 -20 38 -15 3 -16 -3 -10 -60z"/>
<path d="M1515 691 c-3 -5 -2 -35 1 -65 5 -40 11 -56 22 -56 11 0 13 7 8 31
-3 17 -6 47 -6 65 0 32 -12 45 -25 25z"/>
<path d="M545 390 c-4 -6 -14 -9 -23 -8 -13 2 -20 -16 -34 -97 -18 -99 -17
-147 2 -170 7 -9 41 4 132 48 131 64 134 65 127 71 -2 3 -29 -4 -59 -15 -71
-25 -74 -25 -66 14 4 17 9 42 12 54 5 26 -14 42 -27 22 -5 -8 -9 -37 -9 -65 0
-29 -5 -56 -12 -62 -14 -11 -90 -34 -95 -28 -11 11 43 206 57 206 9 0 114 -25
177 -42 32 -9 41 -16 40 -32 -3 -67 3 -83 41 -109 24 -17 57 -29 93 -33 51 -6
65 -3 127 26 39 18 74 30 80 27 5 -4 74 -20 153 -36 79 -16 157 -34 172 -40
35 -14 60 -14 52 -1 -3 5 -21 12 -40 16 -19 3 -35 9 -35 12 0 4 12 30 27 60
l26 52 -23 41 c-23 42 -21 49 15 62 6 3 7 7 3 11 -3 4 -35 -1 -70 -12 -97 -30
-278 -48 -336 -34 -279 67 -265 65 -279 46 -7 -10 -13 -24 -13 -31 0 -17 -30
-10 -125 29 -79 31 -81 32 -90 18z m410 -62 c33 -6 77 -13 97 -15 21 -3 42
-11 48 -18 8 -10 33 -8 126 12 64 13 119 21 122 18 3 -3 -2 -21 -12 -39 -14
-26 -15 -38 -7 -55 25 -49 31 -61 31 -65 0 -2 -48 12 -107 31 -144 47 -152 48
-166 30 -7 -9 -41 -25 -77 -37 -58 -20 -71 -21 -120 -10 -74 17 -92 27 -85 50
3 11 0 22 -8 27 -9 5 -12 21 -9 50 l4 42 51 -6 c29 -2 79 -9 112 -15z m456
-24 c22 -36 22 -37 3 -51 -16 -12 -17 -15 -4 -23 12 -7 10 -11 -10 -18 -29
-12 -35 -7 -44 33 -6 27 -5 28 7 13 15 -19 33 -25 22 -8 -3 6 1 10 9 10 9 0
16 7 16 16 0 8 -4 12 -10 9 -5 -3 -7 0 -4 8 3 8 1 18 -5 22 -11 6 -15 25 -7
25 2 0 14 -16 27 -36z m-31 -14 c0 -13 -5 -18 -15 -14 -12 5 -13 10 -4 20 15
19 19 18 19 -6z"/>
<path d="M938 265 c-3 -62 -1 -78 13 -69 12 7 12 124 0 124 -5 0 -11 -25 -13
-55z"/>
<path d="M886 303 c-10 -10 -7 -113 3 -113 5 0 11 25 13 56 3 54 -2 71 -16 57z"/>
<path d="M222 359 c3 -9 17 -13 36 -12 26 1 32 -2 32 -18 0 -15 -7 -19 -35
-19 -28 0 -35 4 -35 19 0 11 -4 23 -10 26 -6 4 -10 -8 -10 -29 l0 -36 63 -1
c34 0 95 -2 135 -4 79 -5 98 9 27 19 -49 8 -64 35 -20 37 56 3 64 4 71 12 4 4
-11 7 -33 7 -22 0 -82 3 -133 7 -77 5 -92 4 -88 -8z m122 -15 c19 -7 21 -30 4
-36 -21 -8 -38 2 -38 23 0 20 8 23 34 13z"/>
<path d="M217 243 c-14 -4 -17 -13 -15 -41 3 -37 3 -37 48 -36 25 1 82 2 128
3 47 0 82 5 82 11 0 6 -36 10 -89 10 -97 0 -151 8 -151 21 0 5 50 9 110 9 67
0 110 4 110 10 0 6 -31 10 -74 10 -40 0 -86 2 -102 4 -16 2 -37 2 -47 -1z"/>
</g>
</svg>
