<?xml version="1.0" standalone="no"?>
<!DOCTYPE svg PUBLIC "-//W3C//DTD SVG 20010904//EN"
 "http://www.w3.org/TR/2001/REC-SVG-20010904/DTD/svg10.dtd">
<svg version="1.0" xmlns="http://www.w3.org/2000/svg"
 width="44.000000pt" height="44.000000pt" viewBox="0 0 44.000000 44.000000"
 preserveAspectRatio="xMidYMid meet">
<metadata>
Created by potrace 1.16, written by Peter Selinger 2001-2019
</metadata>
<g transform="translate(0.000000,44.000000) scale(0.100000,-0.100000)"
fill="#000000" stroke="none">
<path d="M245 381 c-6 -4 -46 -21 -90 -36 -44 -15 -83 -30 -88 -34 -9 -9 105
-240 124 -252 13 -8 83 26 121 58 10 9 25 12 37 8 27 -8 27 -7 -10 78 -66 151
-85 187 -94 178z m14 -74 c12 -21 21 -39 21 -42 0 -2 -27 -14 -60 -26 -65 -24
-80 -36 -56 -45 8 -3 40 8 70 26 l55 31 26 -52 c15 -28 25 -53 23 -54 -2 -2
-35 -17 -73 -34 -82 -34 -73 -40 -131 93 -27 61 -35 91 -27 93 7 3 36 17 65
32 29 15 56 24 60 21 3 -3 16 -22 27 -43z"/>
</g>
</svg>
