<?xml version="1.0" standalone="no"?>
<!DOCTYPE svg PUBLIC "-//W3C//DTD SVG 20010904//EN"
 "http://www.w3.org/TR/2001/REC-SVG-20010904/DTD/svg10.dtd">
<svg version="1.0" xmlns="http://www.w3.org/2000/svg"
 width="81.000000pt" height="46.000000pt" viewBox="0 0 81.000000 46.000000"
 preserveAspectRatio="xMidYMid meet">
<metadata>
Created by potrace 1.16, written by Peter Selinger 2001-2019
</metadata>
<g transform="translate(0.000000,46.000000) scale(0.100000,-0.100000)"
fill="#000000" stroke="none">
<path d="M319 352 c-24 -14 -45 -29 -47 -34 -2 -4 -41 -8 -86 -8 -108 0 -120
-11 -110 -101 6 -52 9 -59 19 -46 18 24 41 21 40 -5 0 -37 20 -36 23 0 2 20 8
32 15 29 7 -2 11 -13 9 -25 -5 -34 18 -37 24 -3 8 37 34 42 34 6 0 -28 20 -35
20 -7 1 15 2 15 13 1 22 -29 55 -39 128 -40 51 -1 77 -6 88 -17 14 -14 16 -13
21 4 4 16 16 19 88 22 72 3 85 1 97 -15 17 -22 17 -26 18 114 2 85 -1 113 -10
113 -7 0 -14 -6 -14 -12 -3 -29 2 -125 7 -150 6 -32 -2 -35 -110 -38 l-78 -1
5 33 c9 50 11 157 4 165 -19 18 3 23 109 23 76 0 113 3 109 10 -4 7 -74 10
-190 9 -177 -1 -184 -2 -226 -27z m165 -102 c-1 -56 -4 -104 -8 -107 -8 -8
-149 16 -160 27 -5 5 -9 35 -10 67 -1 82 15 94 134 106 19 2 37 5 40 5 3 1 4
-43 4 -98z m-202 0 c2 -32 -1 -51 -9 -54 -7 -3 -10 6 -8 28 4 46 -8 64 -30 46
-12 -10 -19 -10 -27 -2 -8 8 -15 8 -24 1 -14 -11 -34 -4 -34 11 0 8 20 11 107
18 19 2 21 -4 25 -48z m-142 26 c0 -7 -9 -16 -20 -19 -13 -3 -20 0 -20 8 0 8
8 16 18 18 9 3 18 5 20 6 1 0 2 -5 2 -13z m0 -51 c0 -8 -9 -15 -20 -15 -11 0
-20 7 -20 15 0 8 9 15 20 15 11 0 20 -7 20 -15z m44 0 c3 -9 0 -15 -9 -15 -8
0 -15 7 -15 15 0 8 4 15 9 15 5 0 11 -7 15 -15z m51 6 c7 -12 -12 -24 -25 -16
-11 7 -4 25 10 25 5 0 11 -4 15 -9z"/>
<path d="M802 240 c0 -19 2 -27 5 -17 2 9 2 25 0 35 -3 9 -5 1 -5 -18z"/>
</g>
</svg>
