<?xml version="1.0" standalone="no"?>
<!DOCTYPE svg PUBLIC "-//W3C//DTD SVG 20010904//EN"
 "http://www.w3.org/TR/2001/REC-SVG-20010904/DTD/svg10.dtd">
<svg version="1.0" xmlns="http://www.w3.org/2000/svg"
 width="104.000000pt" height="50.000000pt" viewBox="0 0 104.000000 50.000000"
 preserveAspectRatio="xMidYMid meet">
<metadata>
Created by potrace 1.16, written by Peter Selinger 2001-2019
</metadata>
<g transform="translate(0.000000,50.000000) scale(0.100000,-0.100000)"
fill="#000000" stroke="none">
<path d="M899 364 c-10 -12 -8 -17 7 -28 17 -13 15 -15 -26 -20 -153 -22 -253
-31 -308 -28 -62 4 -64 5 -59 28 2 14 1 26 -3 29 -4 2 -97 7 -206 9 -248 6
-240 10 -228 -106 l9 -83 48 0 c252 3 328 6 322 15 -3 5 -42 10 -86 10 -72 0
-79 2 -79 20 0 19 7 20 95 20 l95 0 0 -35 c0 -53 18 -42 22 13 l3 47 51 3 c38
2 52 -1 51 -10 -1 -35 4 -58 13 -58 6 0 10 16 10 35 0 19 3 35 8 35 4 0 7 -14
7 -32 0 -17 6 -33 13 -35 8 -3 12 7 12 31 0 20 5 36 10 36 6 0 10 -15 10 -34
0 -19 5 -38 10 -41 6 -4 10 8 10 29 0 20 3 36 6 36 13 0 189 -33 193 -36 2 -2
-2 -10 -8 -18 -16 -19 -6 -36 19 -36 13 0 25 12 34 33 8 17 20 41 28 51 14 17
12 23 -13 62 -16 23 -29 46 -29 52 0 17 -28 21 -41 6z m-678 -34 c28 0 39 -4
39 -15 0 -12 -15 -15 -75 -15 -56 0 -75 3 -75 13 0 22 13 29 44 23 16 -3 46
-6 67 -6z m247 -14 c3 -14 -9 -16 -93 -16 -73 0 -96 3 -93 13 5 14 62 23 133
21 38 -1 51 -5 53 -18z m482 -31 c19 -35 -1 -57 -44 -49 -17 3 -67 12 -111 19
-44 8 -84 15 -90 16 -8 1 177 33 221 38 6 0 17 -10 24 -24z m-690 -21 c0 -13
-12 -15 -72 -13 -48 2 -73 -2 -76 -9 -3 -9 19 -12 72 -12 69 0 76 -2 76 -20 0
-18 -7 -20 -80 -20 l-80 0 0 45 0 45 80 0 c66 0 80 -3 80 -16z m210 1 c0 -12
-17 -15 -95 -15 -87 0 -107 5 -88 23 3 4 46 7 95 7 72 0 88 -3 88 -15z"/>
</g>
</svg>
