<?xml version="1.0" standalone="no"?>
<!DOCTYPE svg PUBLIC "-//W3C//DTD SVG 20010904//EN"
 "http://www.w3.org/TR/2001/REC-SVG-20010904/DTD/svg10.dtd">
<svg version="1.0" xmlns="http://www.w3.org/2000/svg"
 width="88.000000pt" height="45.000000pt" viewBox="0 0 88.000000 45.000000"
 preserveAspectRatio="xMidYMid meet">
<metadata>
Created by potrace 1.16, written by Peter Selinger 2001-2019
</metadata>
<g transform="translate(0.000000,45.000000) scale(0.100000,-0.100000)"
fill="#000000" stroke="none">
<path d="M335 370 c-27 -4 -90 -6 -139 -5 l-88 2 6 -51 c3 -28 6 -79 6 -114 0
-40 4 -61 10 -57 5 3 10 17 10 31 0 23 3 24 55 24 l55 0 0 -35 c0 -19 5 -35
10 -35 6 0 10 18 10 40 l0 40 50 0 c43 0 50 -3 50 -19 0 -27 10 -51 22 -51 5
0 6 24 3 58 l-7 57 61 3 c44 2 61 -1 62 -10 1 -42 11 -135 14 -146 8 -24 24
-2 20 26 -12 78 -14 142 -5 142 5 0 11 -21 11 -47 2 -59 12 -112 20 -98 3 6 3
40 0 78 -5 47 -3 67 5 67 12 0 24 -66 24 -131 0 -21 5 -41 11 -44 7 -5 9 21 7
84 -3 103 -11 94 87 106 28 4 60 9 73 12 20 5 22 2 22 -37 0 -29 4 -40 13 -37
8 2 12 26 12 70 0 67 -15 95 -25 47 -4 -23 -10 -26 -55 -28 -76 -4 -265 -21
-308 -28 l-39 -6 2 38 c3 53 1 64 -7 63 -5 -1 -30 -5 -58 -9z m35 -80 l0 -60
-50 0 c-62 0 -71 26 -12 35 57 10 61 13 15 14 -31 1 -43 5 -43 16 0 11 11 15
40 15 22 0 40 5 40 10 0 6 -19 10 -42 10 -32 0 -39 3 -28 10 8 5 30 10 48 10
l32 0 0 -60z m-123 44 c-12 -13 -97 -17 -97 -5 0 7 21 11 52 11 28 0 48 -3 45
-6z m3 -39 c0 -11 -12 -15 -50 -15 -38 0 -50 4 -50 15 0 11 12 15 50 15 38 0
50 -4 50 -15z m0 -51 c0 -8 -8 -14 -17 -15 -10 0 -35 -1 -56 -2 -31 -2 -37 1
-37 18 0 18 5 20 55 17 39 -3 55 -8 55 -18z"/>
<path d="M635 260 c-9 -14 4 -70 16 -70 6 0 7 15 3 38 -8 44 -10 47 -19 32z"/>
</g>
</svg>
