<?xml version="1.0" standalone="no"?>
<!DOCTYPE svg PUBLIC "-//W3C//DTD SVG 20010904//EN"
 "http://www.w3.org/TR/2001/REC-SVG-20010904/DTD/svg10.dtd">
<svg version="1.0" xmlns="http://www.w3.org/2000/svg"
 width="136.000000pt" height="56.000000pt" viewBox="0 0 136.000000 56.000000"
 preserveAspectRatio="xMidYMid meet">
<metadata>
Created by potrace 1.16, written by Peter Selinger 2001-2019
</metadata>
<g transform="translate(0.000000,56.000000) scale(0.100000,-0.100000)"
fill="#000000" stroke="none">
<path d="M713 415 c-18 -8 -33 -20 -33 -27 0 -13 -102 -58 -133 -58 -9 0 -17
6 -17 14 0 9 -7 12 -21 9 -12 -4 -32 3 -49 16 -16 11 -37 21 -47 21 -10 0 -29
7 -41 16 -23 16 -52 13 -52 -5 0 -6 17 -18 38 -28 27 -13 38 -25 40 -45 2 -16
0 -28 -5 -28 -8 0 -9 -78 0 -86 3 -3 10 17 16 44 10 37 18 51 39 60 22 10 23
11 5 8 -13 -2 -23 -1 -23 3 0 16 14 20 34 9 11 -7 26 -13 33 -14 6 -1 27 -7
46 -13 31 -11 41 -8 108 26 55 28 86 38 119 37 65 -1 160 -21 276 -60 55 -19
107 -34 115 -34 33 -1 39 -14 25 -65 l-13 -50 -21 34 c-17 28 -19 38 -9 49 10
12 8 14 -8 9 -11 -4 -51 -11 -90 -17 -38 -5 -86 -14 -105 -20 -43 -12 -177
-13 -184 -1 -4 6 59 45 92 57 1 0 -1 15 -4 33 -7 35 -20 31 -26 -8 -2 -17 -17
-32 -47 -49 -38 -21 -50 -23 -80 -15 -20 5 -35 14 -34 20 3 15 -96 10 -125 -6
-29 -15 -32 -14 -32 14 0 14 -4 25 -10 25 -5 0 -10 -13 -10 -29 0 -16 -6 -31
-14 -34 -9 -4 -13 2 -11 16 0 12 -1 26 -3 31 -7 13 -22 -16 -22 -42 0 -17 -7
-24 -30 -28 -17 -4 -30 -13 -30 -21 0 -11 7 -13 30 -8 26 6 30 4 30 -14 0 -22
24 -29 35 -11 3 6 2 10 -4 10 -13 0 -7 33 7 38 8 2 12 -9 12 -32 0 -42 17 -49
22 -9 2 19 14 32 41 46 21 11 36 22 33 24 -3 3 -21 -5 -40 -17 -27 -16 -36
-18 -36 -8 0 8 15 19 33 26 35 13 77 6 77 -12 0 -7 3 -7 8 2 11 16 75 4 68
-13 -3 -9 2 -11 15 -8 11 3 28 -2 39 -12 22 -20 64 -16 228 21 97 21 104 22
120 6 10 -9 32 -29 50 -44 28 -23 31 -31 22 -47 -7 -13 -7 -22 0 -26 6 -3 13
1 16 10 5 11 10 13 19 5 18 -15 26 -1 12 21 -10 16 -7 29 18 74 29 54 29 55
10 69 -11 8 -33 18 -50 22 -16 3 -109 32 -205 64 -212 69 -226 72 -267 55z"/>
<path d="M94 337 c-16 -9 -21 -147 -5 -147 9 0 41 94 41 118 0 9 89 17 158 13
17 0 32 4 32 9 0 6 -8 10 -17 10 -10 0 -58 2 -106 3 -49 1 -95 -2 -103 -6z"/>
<path d="M358 341 c10 -6 7 -10 -12 -15 -14 -3 -31 -16 -37 -27 -8 -17 -8 -20
1 -14 7 4 16 2 20 -4 4 -8 16 -1 33 22 22 30 24 36 11 41 -23 9 -31 7 -16 -3z"/>
<path d="M777 334 c-10 -11 -9 -52 3 -59 6 -3 13 1 16 10 8 19 -8 60 -19 49z"/>
<path d="M897 294 c-16 -9 -27 -18 -24 -21 6 -5 67 24 67 32 0 8 -14 5 -43
-11z"/>
<path d="M729 283 c-13 -15 -12 -15 9 -4 23 12 28 21 13 21 -5 0 -15 -7 -22
-17z"/>
<path d="M210 280 c0 -6 -11 -8 -25 -4 -15 4 -25 2 -25 -5 0 -6 11 -11 25 -11
14 0 25 -5 25 -11 0 -6 -15 -9 -37 -7 -29 2 -38 -1 -38 -12 0 -11 10 -15 38
-13 26 1 37 -3 37 -13 0 -8 5 -14 10 -14 6 0 10 7 10 15 0 8 9 15 20 15 24 0
27 -18 4 -27 -8 -3 -13 -11 -10 -18 3 -8 -2 -16 -11 -19 -9 -4 -13 -9 -10 -12
3 -3 22 5 42 19 22 15 31 27 24 29 -8 3 8 15 34 28 47 24 62 42 30 36 -30 -6
-119 -13 -101 -9 9 2 22 11 30 20 11 14 9 15 -20 9 -21 -5 -32 -4 -32 3 0 6
-4 11 -10 11 -5 0 -10 -5 -10 -10z m70 -94 c0 -2 -7 -7 -16 -10 -8 -3 -12 -2
-9 4 6 10 25 14 25 6z"/>
<path d="M545 280 c-3 -5 -1 -10 4 -10 6 0 11 5 11 10 0 6 -2 10 -4 10 -3 0
-8 -4 -11 -10z"/>
<path d="M843 263 c-7 -2 -13 -8 -13 -13 0 -7 20 -7 60 -1 6 2 -23 21 -30 20
-3 0 -11 -3 -17 -6z"/>
<path d="M540 184 c-16 -10 -18 -13 -6 -9 11 3 23 1 26 -6 6 -8 9 -8 14 0 4 6
1 11 -6 11 -9 0 -9 3 2 10 25 16 -3 10 -30 -6z"/>
<path d="M315 170 c-3 -5 -2 -10 4 -10 5 0 13 5 16 10 3 6 2 10 -4 10 -5 0
-13 -4 -16 -10z"/>
<path d="M370 150 c-9 -6 -10 -10 -3 -10 6 0 15 5 18 10 8 12 4 12 -15 0z"/>
</g>
</svg>
