<?xml version="1.0" standalone="no"?>
<!DOCTYPE svg PUBLIC "-//W3C//DTD SVG 20010904//EN"
 "http://www.w3.org/TR/2001/REC-SVG-20010904/DTD/svg10.dtd">
<svg version="1.0" xmlns="http://www.w3.org/2000/svg"
 width="82.000000pt" height="39.000000pt" viewBox="0 0 82.000000 39.000000"
 preserveAspectRatio="xMidYMid meet">
<metadata>
Created by potrace 1.16, written by Peter Selinger 2001-2019
</metadata>
<g transform="translate(0.000000,39.000000) scale(0.100000,-0.100000)"
fill="#000000" stroke="none">
<path d="M420 325 c0 -8 -4 -15 -9 -15 -6 0 -11 -19 -13 -42 l-3 -43 -63 -3
c-43 -2 -62 0 -57 7 3 6 31 11 62 11 31 0 54 2 51 5 -3 3 -55 6 -117 7 -61 1
-111 5 -111 10 0 4 46 8 103 8 56 0 109 5 117 10 18 12 -291 12 -310 0 -10 -6
-10 -30 -3 -105 12 -109 33 -153 33 -67 0 47 2 52 22 52 21 0 21 -1 3 -14 -18
-13 -18 -14 1 -23 21 -10 148 -9 220 2 42 6 48 4 75 -25 16 -17 33 -29 37 -27
4 1 69 34 145 71 144 72 156 86 84 100 -33 6 -165 54 -224 81 -39 19 -43 19
-43 0z m144 -60 c32 -9 77 -25 100 -36 l40 -18 -44 -19 c-75 -32 -219 -76
-226 -69 -4 3 -3 44 1 90 l7 85 31 -8 c18 -4 59 -15 91 -25z m-424 -5 c12 -8
11 -10 -7 -10 -13 0 -23 5 -23 10 0 13 11 13 30 0z m0 -30 c0 -5 -7 -10 -15
-10 -8 0 -15 5 -15 10 0 6 7 10 15 10 8 0 15 -4 15 -10z m47 -6 c-3 -3 -12 -4
-19 -1 -8 3 -5 6 6 6 11 1 17 -2 13 -5z m-47 -24 c0 -5 -7 -10 -15 -10 -8 0
-15 5 -15 10 0 6 7 10 15 10 8 0 15 -4 15 -10z m260 0 c0 -5 -17 -10 -37 -11
-21 0 -50 -3 -65 -5 -30 -5 -39 12 -10 18 42 9 112 8 112 -2z m-213 -6 c-3 -3
-12 -4 -19 -1 -8 3 -5 6 6 6 11 1 17 -2 13 -5z m50 0 c-3 -3 -12 -4 -19 -1 -8
3 -5 6 6 6 11 1 17 -2 13 -5z m3 -33 c0 -6 -4 -13 -10 -16 -5 -3 -10 1 -10 9
0 9 5 16 10 16 6 0 10 -4 10 -9z m160 -1 c0 -12 1 -12 -72 -16 -46 -3 -58 0
-58 11 0 12 14 15 65 15 37 0 65 -4 65 -10z m-210 -10 c0 -5 -7 -10 -15 -10
-8 0 -15 5 -15 10 0 6 7 10 15 10 8 0 15 -4 15 -10z"/>
</g>
</svg>
