<?xml version="1.0" standalone="no"?>
<!DOCTYPE svg PUBLIC "-//W3C//DTD SVG 20010904//EN"
 "http://www.w3.org/TR/2001/REC-SVG-20010904/DTD/svg10.dtd">
<svg version="1.0" xmlns="http://www.w3.org/2000/svg"
 width="148.000000pt" height="103.000000pt" viewBox="0 0 148.000000 103.000000"
 preserveAspectRatio="xMidYMid meet">
<metadata>
Created by potrace 1.16, written by Peter Selinger 2001-2019
</metadata>
<g transform="translate(0.000000,103.000000) scale(0.100000,-0.100000)"
fill="#000000" stroke="none">
<path d="M427 943 c-15 -14 -6 -32 20 -40 17 -6 27 -17 28 -31 2 -32 -24 -24
-44 12 -19 34 -37 32 -35 -4 1 -14 3 -69 5 -123 1 -54 6 -100 10 -103 11 -6
55 21 96 59 20 19 38 27 48 23 13 -5 15 -2 9 16 -4 12 -13 28 -20 36 -8 7 -14
18 -14 23 0 5 -9 19 -20 31 -36 39 -21 40 44 5 l64 -36 39 29 c47 37 58 37 80
3 10 -16 32 -47 50 -71 18 -24 33 -48 33 -54 0 -21 -91 0 -170 40 -44 23 -80
37 -80 33 0 -8 74 -61 86 -61 3 0 13 -9 22 -20 32 -40 85 -42 217 -9 66 16
156 41 200 56 44 15 89 26 99 25 11 0 29 4 40 9 21 10 21 10 1 -6 -11 -9 -31
-25 -44 -36 -17 -15 -26 -18 -34 -10 -12 12 -47 15 -47 4 0 -15 15 -29 52 -52
23 -13 35 -27 32 -36 -3 -7 4 -19 16 -25 17 -9 25 -7 48 11 23 19 24 21 5 15
-13 -4 -25 -2 -30 7 -4 7 -18 20 -31 29 l-23 15 26 17 c14 9 23 21 20 26 -3 5
7 16 22 24 15 9 38 24 51 35 25 22 31 56 7 47 -8 -3 -15 -1 -15 3 0 19 -53 2
-77 -23 -14 -15 -30 -25 -37 -23 -6 3 -65 19 -129 36 -65 17 -134 38 -155 46
-38 14 -131 35 -158 35 -8 0 -27 -12 -42 -27 -15 -15 -40 -37 -57 -48 l-30
-21 -36 26 c-19 14 -55 40 -79 58 -45 33 -52 36 -63 25z m380 -70 c2 -6 -6
-17 -18 -23 -17 -10 -24 -9 -36 3 -9 8 -12 20 -8 27 9 14 57 9 62 -7z m94 -2
c35 -10 111 -32 168 -47 l104 -29 -59 -18 c-32 -10 -81 -22 -109 -28 -27 -5
-58 -12 -68 -15 -11 -3 -20 1 -24 13 -4 10 -24 40 -45 68 -33 43 -47 75 -34
75 2 0 32 -9 67 -19z m-63 -54 c-1 -1 -13 -8 -25 -14 -32 -18 -42 5 -13 29 21
17 24 18 33 3 5 -9 7 -17 5 -18z m436 18 c-4 -8 -10 -12 -15 -9 -5 3 -9 0 -9
-7 0 -7 -3 -9 -7 -5 -5 4 1 14 11 22 25 18 27 18 20 -1z m-814 -46 c17 -28 30
-52 28 -53 -44 -28 -58 -36 -63 -36 -3 0 -5 32 -5 70 0 39 2 70 4 70 2 0 18
-23 36 -51z m38 29 c-6 -18 -28 -21 -28 -4 0 9 7 16 16 16 9 0 14 -5 12 -12z
m26 -61 c-17 -10 -34 -1 -34 18 0 20 23 24 37 6 9 -13 8 -18 -3 -24z m353 9
c19 -29 20 -35 7 -40 -30 -11 -44 -6 -59 24 -14 27 -14 30 3 39 24 15 25 14
49 -23z m357 -128 c-3 -4 -11 -5 -19 -1 -21 7 -19 12 4 10 11 0 18 -5 15 -9z"/>
<path d="M83 890 c-19 -8 -22 -14 -16 -42 3 -18 6 -34 7 -34 1 -1 32 3 69 8
49 6 73 6 82 -2 8 -7 18 -10 22 -7 4 3 33 8 63 12 75 9 76 15 2 15 -48 0 -62
3 -62 15 0 10 12 15 38 17 55 2 60 3 68 11 4 4 -45 7 -109 7 -63 0 -121 2
-129 4 -7 3 -23 1 -35 -4z m147 -35 c0 -12 -14 -15 -70 -15 -38 0 -70 4 -70 9
0 13 25 18 88 20 40 1 52 -2 52 -14z"/>
<path d="M97 766 c-22 -8 -27 -15 -23 -31 3 -11 6 -27 6 -35 0 -11 12 -15 48
-14 26 1 55 5 65 9 12 5 22 2 31 -10 12 -17 13 -17 19 4 6 25 -2 61 -14 61 -5
0 -9 -8 -9 -18 0 -11 -8 -18 -20 -19 -28 -2 -26 33 3 41 12 3 39 6 59 6 35 0
37 -2 29 -23 -7 -17 -4 -29 10 -48 l19 -24 0 24 c0 21 3 23 30 18 16 -4 32 -2
35 3 4 6 -9 10 -30 10 -23 0 -38 5 -42 15 -8 22 0 27 41 27 20 0 34 4 31 8 -7
12 -254 8 -288 -4z m57 -30 c-3 -8 -16 -16 -30 -19 -18 -3 -24 0 -24 14 0 14
7 19 30 19 21 0 28 -4 24 -14z"/>
<path d="M1220 719 c-16 -14 -19 -19 -7 -15 11 3 17 0 17 -9 0 -20 13 -19 33
3 24 26 23 50 -1 29 -23 -21 -39 -22 -22 -2 17 21 10 18 -20 -6z"/>
<path d="M579 389 c0 -2 -3 -13 -6 -24 -4 -11 -6 -42 -6 -69 l0 -49 -211 6
c-116 4 -220 8 -230 9 -15 3 -19 -4 -20 -32 l-1 -35 223 -1 224 -1 24 -31 24
-31 63 39 c117 73 172 105 180 102 5 -1 34 13 65 32 66 40 73 42 127 31 48 -9
74 -22 98 -46 17 -18 17 -19 -4 -19 -12 0 -23 -8 -26 -20 -6 -24 -88 -80 -117
-80 -23 0 -56 19 -98 57 -14 14 -34 23 -45 21 -14 -3 -8 -10 27 -33 25 -16 60
-42 78 -57 18 -15 41 -28 51 -28 10 0 39 20 64 45 26 25 55 45 64 46 37 2 70
-4 121 -23 82 -31 74 -13 -12 28 -42 20 -76 39 -76 43 1 8 85 71 96 71 14 1
59 38 53 44 -3 4 -37 -10 -74 -29 -38 -19 -78 -35 -89 -35 -10 0 -42 11 -70
25 -85 41 -111 43 -144 7 -18 -19 -47 -35 -74 -42 -42 -11 -50 -9 -144 30
-106 45 -134 54 -135 49z m129 -67 c15 -5 47 -15 72 -22 42 -11 43 -13 25 -27
-11 -8 -41 -26 -67 -39 l-48 -24 -2 37 c0 21 -1 44 -1 51 1 6 -3 12 -7 12 -14
0 -21 -35 -15 -73 5 -32 3 -37 -24 -51 -50 -26 -54 -23 -47 49 10 109 12 114
53 105 19 -5 47 -13 61 -18z m-138 -99 c0 -15 -122 -17 -325 -5 -108 6 -120 8
-70 12 33 3 135 5 228 5 127 0 167 -3 167 -12z"/>
<path d="M151 361 c-36 -23 7 -30 202 -30 240 -1 245 14 7 22 -91 3 -172 8
-180 11 -8 3 -21 2 -29 -3z"/>
<path d="M950 307 c0 -15 81 -77 100 -77 18 0 0 20 -55 59 -29 21 -45 27 -45
18z"/>
<path d="M910 275 c0 -8 93 -75 104 -75 15 1 -76 79 -91 80 -7 0 -13 -2 -13
-5z"/>
</g>
</svg>
