<?xml version="1.0" standalone="no"?>
<!DOCTYPE svg PUBLIC "-//W3C//DTD SVG 20010904//EN"
 "http://www.w3.org/TR/2001/REC-SVG-20010904/DTD/svg10.dtd">
<svg version="1.0" xmlns="http://www.w3.org/2000/svg"
 width="82.000000pt" height="39.000000pt" viewBox="0 0 82.000000 39.000000"
 preserveAspectRatio="xMidYMid meet">
<metadata>
Created by potrace 1.16, written by Peter Selinger 2001-2019
</metadata>
<g transform="translate(0.000000,39.000000) scale(0.100000,-0.100000)"
fill="#000000" stroke="none">
<path d="M689 336 c-4 -3 -61 -9 -244 -23 -44 -3 -87 -12 -95 -19 -9 -7 -41
-25 -73 -39 l-57 -26 5 -45 c4 -42 3 -45 -18 -42 -18 2 -22 9 -22 41 l0 37
-52 2 c-29 1 -60 2 -69 2 -12 1 -16 -10 -18 -46 -2 -57 5 -62 94 -52 54 6 64
4 84 -15 49 -46 111 -58 293 -54 179 4 217 8 208 23 -3 5 -54 6 -115 3 l-110
-5 7 106 c5 95 4 106 -10 106 -19 0 -20 -5 -17 -67 1 -40 0 -43 -24 -43 -24 0
-26 3 -26 45 0 25 -4 45 -9 45 -10 0 -18 -76 -13 -132 4 -47 20 -50 24 -6 2
26 8 33 26 34 20 1 22 -3 22 -42 l0 -44 -45 0 -44 0 -1 68 c0 37 -1 81 -3 99
-4 38 -4 38 153 53 136 12 170 18 170 31 0 9 -13 12 -21 5z m-319 -161 c0 -89
-1 -95 -21 -95 -11 0 -37 10 -59 22 -38 22 -51 53 -42 99 2 13 50 49 65 49 3
0 8 -36 12 -80 4 -44 11 -80 16 -80 6 0 7 36 3 90 -6 80 -5 90 10 90 14 0 16
-14 16 -95z m-214 22 c4 -4 -2 -7 -14 -7 -12 0 -22 4 -22 9 0 10 26 9 36 -2z
m-63 -4 c-7 -2 -19 -2 -25 0 -7 3 -2 5 12 5 14 0 19 -2 13 -5z m7 -39 c0 -2
-7 -4 -15 -4 -8 0 -15 4 -15 10 0 5 7 7 15 4 8 -4 15 -8 15 -10z m60 6 c0 -5
-9 -10 -20 -10 -11 0 -20 5 -20 10 0 6 9 10 20 10 11 0 20 -4 20 -10z"/>
<path d="M271 198 c2 -35 14 -74 21 -63 8 15 -3 85 -13 85 -5 0 -9 -10 -8 -22z"/>
<path d="M601 232 c-13 -25 -14 -42 -2 -42 10 0 25 50 17 57 -2 3 -9 -4 -15
-15z"/>
</g>
</svg>
