<?xml version="1.0" standalone="no"?>
<!DOCTYPE svg PUBLIC "-//W3C//DTD SVG 20010904//EN"
 "http://www.w3.org/TR/2001/REC-SVG-20010904/DTD/svg10.dtd">
<svg version="1.0" xmlns="http://www.w3.org/2000/svg"
 width="53.000000pt" height="51.000000pt" viewBox="0 0 53.000000 51.000000"
 preserveAspectRatio="xMidYMid meet">
<metadata>
Created by potrace 1.16, written by Peter Selinger 2001-2019
</metadata>
<g transform="translate(0.000000,51.000000) scale(0.100000,-0.100000)"
fill="#000000" stroke="none">
<path d="M270 444 c-54 -24 -111 -44 -160 -58 -40 -11 -45 -16 -48 -45 -2 -18
1 -38 6 -44 9 -11 30 -50 97 -174 33 -62 43 -64 121 -28 30 14 61 25 69 25 8
0 15 4 15 10 0 5 16 17 35 26 33 16 47 46 26 58 -5 3 -26 54 -47 113 -51 146
-50 145 -114 117z m89 -136 c53 -110 58 -124 43 -135 -17 -14 -52 -17 -52 -5
0 4 -13 22 -28 40 -31 36 -112 167 -112 180 0 9 58 40 77 41 7 1 39 -54 72
-121z m-179 32 c-21 -14 -27 -12 -34 7 -9 23 16 36 34 17 13 -13 13 -16 0 -24z
m18 -105 c78 -113 78 -115 20 -129 -22 -5 -28 -2 -36 22 -6 15 -27 65 -46 112
-64 150 -42 148 62 -5z m21 71 c-2 -2 -13 -6 -23 -8 -24 -4 -33 19 -9 24 18 4
41 -7 32 -16z m17 -41 c-10 -8 -23 -12 -28 -9 -14 9 2 24 25 24 21 -1 21 -1 3
-15z m35 -30 c0 -13 -41 -19 -41 -7 0 11 20 22 33 18 5 -1 8 -6 8 -11z m32
-39 c8 -19 -31 -32 -46 -17 -9 9 -8 14 3 21 22 14 37 12 43 -4z m27 -45 c0
-10 -30 -24 -37 -17 -3 3 -2 9 2 15 8 13 35 15 35 2z"/>
</g>
</svg>
