<?xml version="1.0" standalone="no"?>
<!DOCTYPE svg PUBLIC "-//W3C//DTD SVG 20010904//EN"
 "http://www.w3.org/TR/2001/REC-SVG-20010904/DTD/svg10.dtd">
<svg version="1.0" xmlns="http://www.w3.org/2000/svg"
 width="29.000000pt" height="40.000000pt" viewBox="0 0 29.000000 40.000000"
 preserveAspectRatio="xMidYMid meet">
<metadata>
Created by potrace 1.16, written by Peter Selinger 2001-2019
</metadata>
<g transform="translate(0.000000,40.000000) scale(0.100000,-0.100000)"
fill="#000000" stroke="none">
<path d="M60 361 c-11 -8 -15 -39 -17 -144 -4 -163 -1 -169 82 -172 52 -2 62
2 92 29 31 26 34 34 29 65 -3 20 -15 44 -27 54 l-22 18 23 24 c30 32 30 79 2
108 -16 16 -37 22 -84 24 -35 2 -70 -1 -78 -6z m129 -28 c20 -5 22 -10 17 -41
-7 -44 -14 -51 -62 -62 -62 -15 -72 -7 -66 48 3 26 10 50 16 54 14 9 63 10 95
1z m-2 -148 c16 -11 23 -25 23 -49 0 -42 -13 -53 -76 -61 l-51 -7 -6 38 c-14
85 -12 91 40 93 27 1 56 -5 70 -14z"/>
</g>
</svg>
