<?xml version="1.0" standalone="no"?>
<!DOCTYPE svg PUBLIC "-//W3C//DTD SVG 20010904//EN"
 "http://www.w3.org/TR/2001/REC-SVG-20010904/DTD/svg10.dtd">
<svg version="1.0" xmlns="http://www.w3.org/2000/svg"
 width="61.000000pt" height="49.000000pt" viewBox="0 0 61.000000 49.000000"
 preserveAspectRatio="xMidYMid meet">
<metadata>
Created by potrace 1.16, written by Peter Selinger 2001-2019
</metadata>
<g transform="translate(0.000000,49.000000) scale(0.100000,-0.100000)"
fill="#000000" stroke="none">
<path d="M106 362 c-12 -19 14 -24 117 -21 56 1 128 1 160 1 l57 -2 0 -41 0
-41 -140 4 c-77 3 -145 1 -152 -4 -9 -5 -14 2 -18 28 -3 19 -9 33 -15 32 -10
-3 -11 -154 0 -195 10 -43 53 -54 193 -51 72 2 125 7 122 12 -3 5 -61 8 -130
7 -115 -2 -127 -1 -147 19 -13 11 -23 31 -23 44 0 22 5 23 77 30 42 3 107 6
145 6 40 0 67 4 63 9 -3 5 -68 9 -145 8 -119 -2 -140 0 -140 13 0 11 12 15 48
15 26 1 98 4 160 8 l112 8 0 -85 c0 -51 4 -86 10 -86 6 0 10 28 11 63 0 34 3
89 5 122 8 95 9 94 -192 101 -117 5 -173 3 -178 -4z"/>
</g>
</svg>
