<?xml version="1.0" standalone="no"?>
<!DOCTYPE svg PUBLIC "-//W3C//DTD SVG 20010904//EN"
 "http://www.w3.org/TR/2001/REC-SVG-20010904/DTD/svg10.dtd">
<svg version="1.0" xmlns="http://www.w3.org/2000/svg"
 width="77.000000pt" height="51.000000pt" viewBox="0 0 77.000000 51.000000"
 preserveAspectRatio="xMidYMid meet">
<metadata>
Created by potrace 1.16, written by Peter Selinger 2001-2019
</metadata>
<g transform="translate(0.000000,51.000000) scale(0.100000,-0.100000)"
fill="#000000" stroke="none">
<path d="M639 426 c-7 -8 -3 -316 5 -323 14 -15 18 14 19 163 1 103 -2 158 -9
161 -5 2 -12 1 -15 -1z"/>
<path d="M226 395 c-16 -13 -47 -31 -68 -41 -38 -17 -49 -38 -25 -47 9 -4 9
-7 -1 -14 -9 -7 -11 -34 -6 -111 7 -107 24 -140 25 -49 0 28 3 70 7 91 l7 39
35 -36 c39 -42 48 -63 49 -124 1 -23 6 -45 11 -48 6 -4 10 21 10 67 l0 74 50
49 c42 42 52 47 71 39 14 -6 46 -7 83 -2 33 5 63 5 68 0 5 -5 13 -48 19 -98
19 -150 30 -124 27 61 -3 143 -6 170 -18 170 -12 0 -14 -11 -12 -52 l3 -53
-44 0 c-24 0 -66 3 -92 7 -44 6 -50 10 -78 55 -22 35 -36 48 -53 48 -35 0 -30
-11 27 -65 l50 -48 -47 -33 c-26 -19 -56 -36 -66 -40 -24 -7 -52 16 -69 57
-11 29 -10 32 31 74 48 49 51 66 6 30z"/>
<path d="M108 53 c6 -2 18 -2 25 0 6 3 1 5 -13 5 -14 0 -19 -2 -12 -5z"/>
<path d="M310 50 c0 -5 7 -10 15 -10 8 0 15 5 15 10 0 6 -7 10 -15 10 -8 0
-15 -4 -15 -10z"/>
</g>
</svg>
