<?xml version="1.0" standalone="no"?>
<!DOCTYPE svg PUBLIC "-//W3C//DTD SVG 20010904//EN"
 "http://www.w3.org/TR/2001/REC-SVG-20010904/DTD/svg10.dtd">
<svg version="1.0" xmlns="http://www.w3.org/2000/svg"
 width="68.000000pt" height="50.000000pt" viewBox="0 0 68.000000 50.000000"
 preserveAspectRatio="xMidYMid meet">
<metadata>
Created by potrace 1.16, written by Peter Selinger 2001-2019
</metadata>
<g transform="translate(0.000000,50.000000) scale(0.100000,-0.100000)"
fill="#000000" stroke="none">
<path d="M64 442 c-20 -17 -21 -21 -11 -187 7 -117 15 -174 24 -183 7 -7 13
-18 13 -23 0 -19 31 -7 97 38 38 26 81 48 98 49 17 1 92 6 168 10 76 4 140 11
143 16 6 10 20 9 -169 14 -166 4 -191 11 -257 63 l-24 19 47 23 c45 22 66 48
30 36 -73 -24 -128 -47 -131 -55 -4 -14 33 -38 145 -97 21 -11 17 -14 -55 -48
-43 -21 -83 -37 -89 -37 -7 0 -10 53 -9 169 1 189 -5 179 80 129 58 -35 61
-36 62 -23 0 8 -128 106 -138 105 -2 -1 -12 -9 -24 -18z"/>
<path d="M252 342 c-2 -7 -1 -17 4 -21 15 -13 353 13 340 27 -3 3 -81 6 -172
6 -129 1 -168 -2 -172 -12z"/>
</g>
</svg>
