<?xml version="1.0" standalone="no"?>
<!DOCTYPE svg PUBLIC "-//W3C//DTD SVG 20010904//EN"
 "http://www.w3.org/TR/2001/REC-SVG-20010904/DTD/svg10.dtd">
<svg version="1.0" xmlns="http://www.w3.org/2000/svg"
 width="48.000000pt" height="63.000000pt" viewBox="0 0 48.000000 63.000000"
 preserveAspectRatio="xMidYMid meet">
<metadata>
Created by potrace 1.16, written by Peter Selinger 2001-2019
</metadata>
<g transform="translate(0.000000,63.000000) scale(0.100000,-0.100000)"
fill="#000000" stroke="none">
<path d="M67 543 c-29 -15 -28 -33 3 -33 21 0 22 -4 64 -170 l24 -95 -63 -9
c-60 -8 -62 -10 -61 -37 1 -17 7 -29 15 -29 7 0 11 6 7 15 -5 15 4 19 75 28
l35 5 12 -55 c9 -45 9 -61 -3 -91 -15 -35 -13 -54 4 -36 5 5 23 49 39 98 32
94 41 106 85 106 15 0 27 5 27 10 0 7 -13 8 -37 4 -33 -6 -36 -5 -29 12 21 50
76 220 76 232 0 25 -24 6 -32 -26 -9 -32 -9 -32 -73 -32 -36 0 -67 -5 -71 -11
-11 -19 14 -26 69 -18 28 3 53 6 54 5 1 -1 -10 -39 -24 -83 -22 -68 -31 -83
-51 -88 -14 -3 -28 -2 -32 2 -8 10 -60 221 -60 246 0 13 9 17 43 18 23 1 53 3
67 4 14 1 55 3 93 4 37 0 67 5 67 10 0 5 -61 9 -136 9 -75 1 -141 5 -148 10
-6 5 -23 3 -39 -5z m144 -360 c-9 -16 -11 -16 -19 7 -8 20 -6 26 7 31 19 8 26
-13 12 -38z"/>
<path d="M395 40 c-3 -5 1 -10 9 -10 9 0 16 5 16 10 0 6 -4 10 -9 10 -6 0 -13
-4 -16 -10z"/>
<path d="M196 21 c-4 -7 -5 -15 -2 -18 9 -9 19 4 14 18 -4 11 -6 11 -12 0z"/>
<path d="M375 10 c-3 -5 1 -10 10 -10 9 0 13 5 10 10 -3 6 -8 10 -10 10 -2 0
-7 -4 -10 -10z"/>
</g>
</svg>
