<?xml version="1.0" standalone="no"?>
<!DOCTYPE svg PUBLIC "-//W3C//DTD SVG 20010904//EN"
 "http://www.w3.org/TR/2001/REC-SVG-20010904/DTD/svg10.dtd">
<svg version="1.0" xmlns="http://www.w3.org/2000/svg"
 width="50.000000pt" height="49.000000pt" viewBox="0 0 50.000000 49.000000"
 preserveAspectRatio="xMidYMid meet">
<metadata>
Created by potrace 1.16, written by Peter Selinger 2001-2019
</metadata>
<g transform="translate(0.000000,49.000000) scale(0.100000,-0.100000)"
fill="#000000" stroke="none">
<path d="M142 383 c-30 -14 -56 -31 -58 -37 -5 -14 125 -235 147 -249 11 -7
23 -3 44 17 15 14 31 26 34 26 3 0 12 4 20 9 11 7 1 34 -49 135 -34 69 -67
126 -74 125 -6 0 -35 -12 -64 -26z m58 -11 c0 -5 -16 -16 -36 -26 -26 -12 -34
-20 -26 -28 7 -7 19 -4 40 10 27 20 42 20 42 1 0 -5 -14 -16 -31 -25 -23 -11
-28 -19 -20 -27 8 -8 17 -5 35 12 26 25 56 21 35 -5 -6 -8 -17 -14 -24 -14 -7
0 -18 -6 -24 -14 -21 -25 8 -30 39 -8 24 18 30 19 40 7 15 -18 7 -31 -31 -50
-28 -15 -39 -35 -19 -35 6 0 24 10 41 22 30 23 31 23 45 4 20 -28 19 -30 -30
-54 l-45 -21 -19 32 c-10 18 -35 66 -56 106 l-38 75 28 23 c29 23 54 30 54 15z"/>
</g>
</svg>
