<?xml version="1.0" standalone="no"?>
<!DOCTYPE svg PUBLIC "-//W3C//DTD SVG 20010904//EN"
 "http://www.w3.org/TR/2001/REC-SVG-20010904/DTD/svg10.dtd">
<svg version="1.0" xmlns="http://www.w3.org/2000/svg"
 width="97.000000pt" height="50.000000pt" viewBox="0 0 97.000000 50.000000"
 preserveAspectRatio="xMidYMid meet">
<metadata>
Created by potrace 1.16, written by Peter Selinger 2001-2019
</metadata>
<g transform="translate(0.000000,50.000000) scale(0.100000,-0.100000)"
fill="#000000" stroke="none">
<path d="M133 374 c-3 -9 -2 -19 4 -23 52 -35 57 -41 45 -53 -7 -7 -27 -18
-45 -24 -49 -16 -48 -52 2 -89 22 -17 41 -33 41 -37 0 -8 -31 -37 -79 -76 -14
-11 -21 -24 -17 -30 13 -22 33 -12 61 31 16 23 55 70 88 104 l59 62 -41 38
c-23 20 -52 54 -63 75 -23 40 -45 49 -55 22z m107 -128 c0 -6 -9 -26 -20 -44
-17 -28 -22 -31 -38 -21 -11 7 -25 21 -32 33 -11 18 -9 23 21 48 31 26 34 27
51 11 10 -9 18 -21 18 -27z"/>
<path d="M426 332 c-10 -16 -9 -173 2 -184 7 -7 20 -7 44 1 18 6 62 15 98 21
36 5 83 14 105 19 22 5 88 19 148 32 160 34 148 44 -93 78 -41 6 -121 18 -176
26 -117 17 -121 18 -128 7z m122 -28 c19 -6 22 -13 22 -59 l0 -53 -46 -7 c-26
-3 -53 -9 -60 -12 -11 -4 -14 10 -14 66 l0 71 38 0 c20 0 47 -3 60 -6z m212
-30 c68 -8 127 -17 129 -20 2 -2 0 -4 -5 -4 -5 0 -40 -7 -79 -15 -38 -8 -86
-17 -105 -20 -19 -3 -50 -10 -67 -15 -18 -4 -33 -8 -34 -7 0 1 -3 26 -5 55 -4
50 -3 52 19 47 12 -3 78 -12 147 -21z"/>
<path d="M658 3 c6 -2 18 -2 25 0 6 3 1 5 -13 5 -14 0 -19 -2 -12 -5z"/>
<path d="M858 3 c12 -2 30 -2 40 0 9 3 -1 5 -23 4 -22 0 -30 -2 -17 -4z"/>
</g>
</svg>
