<?xml version="1.0" standalone="no"?>
<!DOCTYPE svg PUBLIC "-//W3C//DTD SVG 20010904//EN"
 "http://www.w3.org/TR/2001/REC-SVG-20010904/DTD/svg10.dtd">
<svg version="1.0" xmlns="http://www.w3.org/2000/svg"
 width="72.000000pt" height="51.000000pt" viewBox="0 0 72.000000 51.000000"
 preserveAspectRatio="xMidYMid meet">
<metadata>
Created by potrace 1.16, written by Peter Selinger 2001-2019
</metadata>
<g transform="translate(0.000000,51.000000) scale(0.100000,-0.100000)"
fill="#000000" stroke="none">
<path d="M300 464 c0 -19 140 -158 155 -154 16 4 73 11 148 17 128 10 67 30
-96 31 l-89 0 -41 61 c-40 58 -77 80 -77 45z"/>
<path d="M250 444 c-19 -14 -56 -36 -82 -50 -27 -13 -48 -26 -48 -28 0 -21 42
-75 80 -102 46 -33 59 -50 66 -84 13 -67 14 -82 5 -98 -7 -14 -5 -21 11 -31
19 -12 19 -13 1 -26 -10 -8 -13 -14 -8 -14 6 0 19 6 29 14 11 8 14 15 8 15
-10 0 -12 21 -8 80 l4 81 57 54 c62 60 58 72 -8 26 -77 -52 -87 -55 -105 -34
-58 64 -82 95 -82 106 1 7 27 32 60 57 33 25 59 48 60 53 0 10 0 10 -40 -19z"/>
<path d="M105 198 c8 -121 10 -132 27 -122 7 4 8 2 4 -4 -4 -7 -13 -12 -20
-12 -8 0 -24 -9 -37 -20 -24 -21 -24 -21 19 0 23 11 42 17 42 13 0 -5 5 0 11
10 7 12 23 17 60 17 31 0 48 4 44 10 -3 5 -33 10 -66 10 l-59 0 0 39 c0 21 4
61 10 90 11 60 5 81 -22 81 -19 0 -19 -5 -13 -112z"/>
<path d="M51 60 c-18 -17 -28 -30 -22 -30 14 0 67 47 60 54 -3 3 -20 -8 -38
-24z"/>
<path d="M225 50 c-3 -6 1 -7 9 -4 18 7 21 14 7 14 -6 0 -13 -4 -16 -10z"/>
</g>
</svg>
