<?xml version="1.0" standalone="no"?>
<!DOCTYPE svg PUBLIC "-//W3C//DTD SVG 20010904//EN"
 "http://www.w3.org/TR/2001/REC-SVG-20010904/DTD/svg10.dtd">
<svg version="1.0" xmlns="http://www.w3.org/2000/svg"
 width="47.000000pt" height="58.000000pt" viewBox="0 0 47.000000 58.000000"
 preserveAspectRatio="xMidYMid meet">
<metadata>
Created by potrace 1.16, written by Peter Selinger 2001-2019
</metadata>
<g transform="translate(0.000000,58.000000) scale(0.100000,-0.100000)"
fill="#000000" stroke="none">
<path d="M100 495 c-7 -8 -9 -15 -4 -15 4 0 0 -6 -9 -12 -16 -12 -16 -28 -6
-183 11 -188 15 -215 29 -215 6 0 10 72 10 190 0 170 2 190 17 190 21 0 196
-51 207 -61 4 -4 -38 -31 -95 -59 -57 -28 -108 -56 -113 -61 -22 -20 4 -17 73
10 l73 28 43 -46 44 -46 -32 -15 c-18 -8 -36 -18 -42 -23 -45 -34 -106 -77
-138 -96 -65 -40 -30 -41 46 -1 39 20 101 50 137 66 36 15 65 28 66 28 1 1 4
13 8 28 5 24 0 31 -49 65 -30 21 -55 41 -55 44 0 3 22 15 49 27 73 31 75 47
11 71 -19 7 -48 19 -65 27 -16 7 -64 26 -105 41 -41 15 -78 29 -81 31 -3 1
-12 -4 -19 -13z"/>
</g>
</svg>
