<?xml version="1.0" standalone="no"?>
<!DOCTYPE svg PUBLIC "-//W3C//DTD SVG 20010904//EN"
 "http://www.w3.org/TR/2001/REC-SVG-20010904/DTD/svg10.dtd">
<svg version="1.0" xmlns="http://www.w3.org/2000/svg"
 width="39.000000pt" height="43.000000pt" viewBox="0 0 39.000000 43.000000"
 preserveAspectRatio="xMidYMid meet">
<metadata>
Created by potrace 1.16, written by Peter Selinger 2001-2019
</metadata>
<g transform="translate(0.000000,43.000000) scale(0.100000,-0.100000)"
fill="#000000" stroke="none">
<path d="M207 322 c-35 -36 -34 -57 3 -75 35 -18 45 -9 29 26 -8 18 -8 30 0
45 17 32 -3 34 -32 4z"/>
<path d="M135 208 c-45 -25 -47 -66 -4 -103 39 -32 55 -21 34 22 -11 23 -13
37 -6 57 12 30 3 39 -24 24z"/>
<path d="M253 198 c-37 -40 -34 -72 8 -94 38 -19 66 -4 34 19 -14 11 -17 22
-12 55 6 48 -1 52 -30 20z"/>
</g>
</svg>
