<?xml version="1.0" standalone="no"?>
<!DOCTYPE svg PUBLIC "-//W3C//DTD SVG 20010904//EN"
 "http://www.w3.org/TR/2001/REC-SVG-20010904/DTD/svg10.dtd">
<svg version="1.0" xmlns="http://www.w3.org/2000/svg"
 width="50.000000pt" height="54.000000pt" viewBox="0 0 50.000000 54.000000"
 preserveAspectRatio="xMidYMid meet">
<metadata>
Created by potrace 1.16, written by Peter Selinger 2001-2019
</metadata>
<g transform="translate(0.000000,54.000000) scale(0.100000,-0.100000)"
fill="#000000" stroke="none">
<path d="M188 449 c-9 -5 -27 -8 -40 -7 -27 3 -26 14 -13 -200 4 -72 12 -132
17 -132 10 0 9 0 13 115 1 50 3 114 4 143 0 29 6 52 12 52 5 0 34 -17 64 -37
70 -50 83 -87 52 -152 -15 -31 -38 -57 -74 -82 -28 -19 -62 -43 -75 -52 -13
-9 -18 -16 -12 -16 15 -1 147 88 207 139 37 32 47 48 47 71 0 36 -47 89 -79
89 -12 0 -41 18 -64 39 -32 30 -46 37 -59 30z"/>
<path d="M214 335 c-4 -9 -4 -46 0 -83 3 -37 6 -70 6 -74 0 -5 4 -8 9 -8 12 0
13 168 1 175 -6 4 -13 -1 -16 -10z"/>
</g>
</svg>
