<?xml version="1.0" standalone="no"?>
<!DOCTYPE svg PUBLIC "-//W3C//DTD SVG 20010904//EN"
 "http://www.w3.org/TR/2001/REC-SVG-20010904/DTD/svg10.dtd">
<svg version="1.0" xmlns="http://www.w3.org/2000/svg"
 width="43.000000pt" height="44.000000pt" viewBox="0 0 43.000000 44.000000"
 preserveAspectRatio="xMidYMid meet">
<metadata>
Created by potrace 1.16, written by Peter Selinger 2001-2019
</metadata>
<g transform="translate(0.000000,44.000000) scale(0.100000,-0.100000)"
fill="#000000" stroke="none">
<path d="M93 353 c-21 -4 -23 -10 -23 -64 l0 -61 73 4 72 3 -2 54 c-2 31 -8
58 -15 63 -13 8 -66 9 -105 1z m97 -58 c0 -43 -1 -45 -30 -45 -28 0 -30 2 -30
38 0 45 5 52 37 52 21 0 23 -5 23 -45z"/>
<path d="M273 274 c-2 -6 -3 -33 -1 -60 l3 -49 43 -3 c24 -2 50 2 58 9 17 14
19 95 3 105 -19 11 -101 10 -106 -2z m95 -31 c4 -67 -33 -88 -40 -23 -3 35 -1
40 18 40 13 0 21 -7 22 -17z"/>
<path d="M124 195 c-3 -7 -4 -34 -2 -61 l3 -49 59 -3 c41 -3 61 0 67 10 13 20
11 96 -3 104 -22 14 -119 13 -124 -1z m114 -47 c3 -36 2 -38 -27 -38 -30 0
-31 2 -31 41 0 38 1 40 28 37 23 -3 27 -8 30 -40z"/>
</g>
</svg>
