<?xml version="1.0" standalone="no"?>
<!DOCTYPE svg PUBLIC "-//W3C//DTD SVG 20010904//EN"
 "http://www.w3.org/TR/2001/REC-SVG-20010904/DTD/svg10.dtd">
<svg version="1.0" xmlns="http://www.w3.org/2000/svg"
 width="51.000000pt" height="50.000000pt" viewBox="0 0 51.000000 50.000000"
 preserveAspectRatio="xMidYMid meet">
<metadata>
Created by potrace 1.16, written by Peter Selinger 2001-2019
</metadata>
<g transform="translate(0.000000,50.000000) scale(0.100000,-0.100000)"
fill="#000000" stroke="none">
<path d="M235 433 c-27 -9 -83 -25 -124 -37 -41 -12 -76 -27 -78 -32 -2 -6 4
-21 14 -33 l18 -22 56 28 c30 15 88 44 127 62 101 49 94 67 -13 34z"/>
<path d="M350 333 c-47 -13 -107 -27 -135 -31 -49 -7 -50 -8 -48 -41 2 -51 17
-60 61 -34 44 27 118 64 185 92 27 12 46 25 42 31 -7 12 0 13 -105 -17z"/>
<path d="M123 156 c-39 -6 -74 -14 -78 -17 -8 -9 16 -59 29 -59 20 -1 145 65
142 74 -3 14 -14 14 -93 2z"/>
</g>
</svg>
