<?xml version="1.0" standalone="no"?>
<!DOCTYPE svg PUBLIC "-//W3C//DTD SVG 20010904//EN"
 "http://www.w3.org/TR/2001/REC-SVG-20010904/DTD/svg10.dtd">
<svg version="1.0" xmlns="http://www.w3.org/2000/svg"
 width="208.000000pt" height="269.000000pt" viewBox="0 0 208.000000 269.000000"
 preserveAspectRatio="xMidYMid meet">
<metadata>
Created by potrace 1.16, written by Peter Selinger 2001-2019
</metadata>
<g transform="translate(0.000000,269.000000) scale(0.100000,-0.100000)"
fill="#000000" stroke="none">
<path d="M290 2640 c0 -5 -7 -10 -15 -10 -9 0 -15 -9 -15 -22 0 -19 -2 -20
-10 -8 -9 13 -11 13 -19 0 -7 -10 -6 -17 2 -23 9 -7 9 -10 -1 -14 -10 -4 -10
-8 -1 -19 10 -12 14 -12 20 -2 7 10 9 8 9 -5 0 -10 4 -16 9 -12 6 3 24 -8 41
-25 17 -16 34 -30 38 -30 4 0 29 -23 55 -50 27 -28 55 -50 63 -50 8 0 14 -4
14 -10 0 -5 10 -10 23 -10 18 0 19 -2 7 -10 -12 -8 -10 -10 9 -10 18 0 22 -4
18 -20 -3 -11 -1 -20 4 -20 5 0 9 5 9 10 0 6 6 5 14 -2 10 -9 11 -15 2 -20 -6
-5 -2 -8 12 -8 12 0 22 -4 22 -10 0 -5 5 -10 10 -10 17 0 180 -155 180 -171 0
-5 -9 -9 -20 -9 -13 0 -17 -5 -14 -14 4 -11 0 -13 -15 -9 -12 3 -21 1 -21 -6
0 -6 -4 -11 -10 -11 -5 0 -29 -19 -53 -42 -63 -61 -99 -88 -109 -82 -4 3 -8
-5 -8 -17 0 -18 -3 -20 -12 -11 -16 16 -28 15 -28 -3 0 -8 -4 -15 -10 -15 -5
0 -39 -29 -76 -65 -37 -36 -69 -65 -71 -65 -1 0 -21 -18 -43 -40 -22 -22 -42
-40 -45 -40 -8 0 -95 -92 -95 -101 0 -4 -3 -9 -7 -11 -21 -9 -62 -70 -56 -84
3 -9 0 -19 -6 -24 -10 -6 -10 -12 1 -30 10 -18 10 -24 1 -27 -9 -3 -6 -14 11
-36 13 -18 21 -38 19 -44 -3 -7 1 -19 9 -27 7 -7 32 -36 56 -65 39 -45 82 -88
183 -184 16 -15 34 -27 39 -27 6 0 10 -4 10 -10 0 -5 10 -10 23 -10 18 0 19
-2 7 -10 -12 -8 -9 -10 13 -10 16 0 26 -4 22 -10 -3 -5 1 -10 10 -10 9 0 27
-10 40 -22 46 -44 83 -69 71 -50 -4 7 -2 12 3 12 6 0 11 -4 11 -10 0 -5 5 -10
10 -10 9 0 48 -31 88 -70 12 -11 16 -12 20 -2 7 22 20 13 15 -10 -5 -18 -3
-20 7 -12 9 9 16 8 29 -5 10 -10 28 -25 42 -35 22 -15 23 -18 7 -27 -10 -5
-18 -14 -18 -20 0 -5 -11 -21 -25 -35 -14 -14 -23 -30 -20 -35 4 -5 -3 -9 -15
-9 -12 0 -18 -4 -15 -10 3 -5 -1 -10 -11 -10 -12 0 -15 -6 -11 -21 4 -15 2
-19 -9 -15 -9 4 -14 -2 -14 -15 0 -14 -5 -19 -14 -16 -10 4 -12 0 -9 -14 4
-13 0 -19 -13 -19 -9 0 -15 -2 -12 -5 3 -3 -25 -38 -63 -77 -38 -39 -69 -74
-69 -78 0 -5 -7 -11 -16 -14 -8 -3 -12 -10 -9 -16 3 -5 1 -10 -4 -10 -11 0
-51 -36 -51 -45 0 -9 -91 -95 -100 -95 -10 0 -40 -52 -40 -68 0 -6 15 -6 40 0
22 6 40 14 40 18 0 4 11 23 24 43 13 19 22 38 18 41 -3 3 2 6 10 6 9 0 22 13
29 29 7 16 27 37 44 47 16 9 52 39 79 66 26 26 52 48 57 48 5 0 9 7 9 15 0 8
4 15 8 15 13 0 72 56 72 68 0 7 4 12 9 12 14 0 211 196 211 209 0 6 7 11 15
11 8 0 15 4 15 8 0 5 22 31 50 58 27 27 50 53 50 58 0 5 8 15 18 22 15 12 15
15 2 24 -13 8 -13 10 3 10 9 0 17 6 17 13 0 7 29 44 65 82 36 38 65 75 65 82
0 8 5 11 12 7 7 -5 9 -1 6 12 -3 11 0 25 6 31 25 27 36 43 36 53 0 5 5 10 11
10 6 0 9 6 6 14 -3 8 4 29 16 47 22 32 24 32 102 34 117 1 235 15 278 31 20 8
52 14 70 14 17 0 60 13 94 29 82 39 123 93 123 162 0 42 -5 54 -34 84 -19 19
-38 35 -43 35 -4 0 -25 16 -45 35 -20 19 -44 35 -53 35 -9 0 -31 6 -48 14 -83
37 -374 69 -404 44 -9 -7 -13 -41 -12 -112 1 -138 1 -136 -16 -136 -13 0 -14
4 -4 22 10 18 9 20 -5 15 -11 -4 -16 -1 -16 11 0 10 -9 28 -20 40 -11 12 -20
28 -20 37 0 8 -7 15 -15 15 -8 0 -12 6 -9 14 5 14 -6 30 -78 110 -21 22 -38
47 -38 54 0 6 -7 12 -16 12 -10 0 -14 6 -10 15 4 10 -1 15 -16 15 -17 0 -18 2
-8 15 10 12 10 15 -4 15 -9 0 -16 7 -16 15 0 8 -4 15 -10 15 -5 0 -10 5 -10
10 0 6 -28 40 -62 76 -35 36 -65 70 -67 75 -2 6 -24 29 -48 52 -25 23 -91 86
-146 140 -54 53 -103 97 -108 97 -5 0 -9 7 -9 16 0 13 -3 14 -14 5 -12 -10
-13 -8 -9 8 4 17 1 21 -16 21 -12 0 -19 5 -16 10 3 6 -3 10 -13 10 -16 0 -19
5 -15 21 5 19 4 20 -17 9 -21 -11 -22 -10 -17 9 4 16 1 21 -11 19 -10 -2 -16
3 -15 10 2 6 -4 12 -13 12 -18 0 -44 23 -44 39 0 6 -6 11 -12 11 -7 1 -33 21
-58 45 -45 45 -60 54 -60 35z m611 -659 c15 -16 30 -27 33 -23 3 3 6 -2 6 -11
0 -9 8 -17 17 -17 9 0 14 -3 10 -6 -3 -3 23 -35 59 -71 35 -36 64 -68 64 -72
0 -3 14 -22 30 -41 16 -19 34 -40 40 -47 6 -7 6 -14 1 -18 -6 -3 2 -18 16 -33
51 -54 78 -95 66 -99 -8 -3 -6 -14 7 -36 19 -32 21 -93 5 -131 -6 -14 -5 -17
3 -12 7 4 12 2 12 -3 0 -6 -4 -11 -10 -11 -5 0 -10 -7 -10 -15 0 -8 -4 -15
-10 -15 -5 0 -10 -12 -10 -26 0 -14 -4 -22 -10 -19 -6 3 -7 -1 -4 -9 3 -9 -5
-30 -20 -48 -15 -18 -30 -37 -34 -43 -4 -5 -6 -18 -4 -27 2 -10 -2 -18 -8 -18
-6 0 -9 -4 -6 -8 3 -5 -8 -22 -24 -37 -16 -16 -33 -44 -36 -63 -5 -24 -9 -30
-15 -20 -7 10 -9 9 -9 -5 0 -22 -31 -68 -71 -106 -14 -14 -25 -34 -24 -43 2
-11 -2 -15 -12 -11 -10 4 -14 0 -11 -13 2 -11 -2 -18 -9 -17 -7 2 -13 -4 -13
-12 0 -20 -40 -65 -57 -65 -8 0 -11 5 -8 10 3 6 -2 10 -12 10 -10 0 -36 16
-58 35 -22 19 -46 33 -53 30 -7 -3 -10 0 -7 5 10 16 -6 34 -16 19 -8 -12 -11
-12 -18 1 -5 8 -7 18 -5 22 3 4 -1 5 -9 2 -8 -3 -23 6 -35 20 -11 14 -24 26
-29 26 -14 0 -102 87 -95 94 3 3 -4 6 -16 6 -12 0 -22 5 -22 10 0 6 -9 10 -21
10 -11 0 -17 5 -14 10 3 6 1 10 -5 10 -18 0 -53 38 -45 49 3 7 -3 11 -15 11
-15 0 -20 5 -17 14 4 10 1 13 -9 9 -9 -3 -14 2 -14 16 0 15 -4 19 -16 14 -13
-5 -15 -2 -9 17 6 20 5 22 -15 17 -17 -4 -20 -3 -12 5 8 8 0 24 -28 58 -22 26
-40 53 -40 59 0 6 -6 11 -12 11 -9 0 -9 3 1 9 12 7 12 13 3 24 -14 17 -14 63
1 97 11 25 207 223 287 290 23 19 52 45 65 58 13 12 31 22 40 22 9 0 13 5 10
10 -3 6 1 10 9 10 17 0 41 18 93 68 19 17 38 32 43 32 6 0 10 5 10 10 0 6 9
10 21 10 11 0 17 5 14 10 -3 6 3 10 14 10 12 0 21 5 21 10 0 20 33 9 61 -19z
m749 -290 c35 -7 69 -16 75 -20 5 -5 34 -11 63 -14 29 -3 59 -12 67 -19 7 -7
36 -31 63 -53 39 -31 52 -49 60 -84 10 -42 9 -44 -32 -85 -44 -44 -103 -81
-123 -77 -7 1 -13 -3 -13 -10 0 -7 -10 -9 -27 -5 -21 5 -24 4 -13 -4 12 -8 9
-10 -15 -11 -50 -3 -78 -7 -130 -17 -27 -5 -86 -11 -129 -11 -44 -1 -84 -4
-90 -7 -6 -3 -3 1 7 9 10 9 18 18 17 22 -1 4 8 19 21 33 14 16 18 27 11 30
-14 4 -16 32 -3 32 14 0 11 183 -3 192 -8 6 -8 13 2 28 7 11 9 20 4 20 -12 0
-42 56 -34 65 9 9 138 1 222 -14z"/>
<path d="M735 1700 c3 -4 -10 -10 -28 -13 -87 -16 -100 -21 -150 -71 -73 -70
-109 -120 -101 -140 3 -9 1 -16 -5 -16 -15 0 -14 -37 2 -43 9 -4 9 -6 0 -6 -7
-1 -13 -10 -13 -20 0 -11 6 -22 13 -25 10 -5 10 -7 0 -12 -15 -7 -17 -34 -3
-34 6 0 10 -12 10 -26 0 -17 4 -23 12 -18 8 5 9 2 5 -9 -4 -12 11 -35 51 -77
59 -61 76 -70 86 -47 4 6 4 2 2 -11 -3 -16 -1 -22 8 -19 8 3 27 -3 44 -13 17
-10 39 -16 51 -13 12 3 21 1 21 -6 0 -6 19 -11 46 -11 27 0 43 4 39 10 -3 6 1
10 10 10 9 0 13 -4 10 -10 -3 -5 3 -10 14 -10 12 0 21 5 21 11 0 6 8 9 18 7
11 -3 30 1 43 8 13 7 34 13 47 14 12 0 22 5 22 10 0 6 7 10 15 10 8 0 15 5 15
10 0 6 6 10 13 10 8 0 20 12 28 26 8 15 29 43 46 62 22 24 31 42 27 54 -3 10
-1 18 5 18 6 0 11 9 11 19 0 11 6 22 13 25 10 5 10 7 0 12 -7 3 -13 14 -13 24
0 10 6 21 13 23 10 4 10 6 0 6 -7 1 -13 10 -13 20 0 11 -5 23 -11 27 -8 4 -7
9 2 14 9 6 6 16 -14 40 -15 17 -27 36 -27 41 0 5 -7 9 -15 9 -8 0 -15 5 -15
12 0 21 -83 89 -103 84 -12 -3 -17 0 -14 9 5 12 2 13 -71 15 -13 0 -20 5 -17
10 5 7 -21 10 -74 9 -44 -1 -78 -5 -76 -9z"/>
</g>
</svg>
