<?xml version="1.0" standalone="no"?>
<!DOCTYPE svg PUBLIC "-//W3C//DTD SVG 20010904//EN"
 "http://www.w3.org/TR/2001/REC-SVG-20010904/DTD/svg10.dtd">
<svg version="1.0" xmlns="http://www.w3.org/2000/svg"
 width="320.000000pt" height="400.000000pt" viewBox="0 0 320.000000 400.000000"
 preserveAspectRatio="xMidYMid meet">
<metadata>
Created by potrace 1.16, written by Peter Selinger 2001-2019
</metadata>
<g transform="translate(0.000000,400.000000) scale(0.100000,-0.100000)"
fill="#000000" stroke="none">
<path d="M0 3538 c0 -436 1 -461 17 -445 13 13 14 19 5 29 -21 21 -14 48 12
48 23 0 25 -3 22 -42 -3 -53 -22 -92 -42 -84 -12 5 -14 -205 -14 -1519 l0
-1525 1600 0 1600 0 -2 1998 -3 1997 -934 3 c-617 1 -938 -1 -945 -8 -13 -13
-29 -13 -21 0 3 6 -62 9 -175 9 -174 0 -211 -7 -157 -29 l22 -9 -22 0 c-13 -1
-28 -10 -35 -21 -15 -24 -34 -26 -42 -5 -8 21 -23 19 -43 -5 -20 -23 -53 -27
-53 -5 0 18 31 35 63 35 14 0 35 9 48 20 24 19 23 19 -438 20 l-463 0 0 -462z
m1601 388 c14 -16 10 -28 -8 -24 -9 2 -17 14 -18 28 -3 31 8 52 13 25 2 -11 8
-24 13 -29z m-41 25 c0 -13 -10 -18 -44 -22 -38 -5 -47 18 -9 24 50 7 53 7 53
-2z m560 -37 c0 -8 -4 -12 -10 -9 -5 3 -10 10 -10 16 0 5 5 9 10 9 6 0 10 -7
10 -16z m-1340 -4 c0 -12 -28 -25 -36 -17 -9 9 6 27 22 27 8 0 14 -5 14 -10z
m388 -18 c3 -18 -2 -22 -22 -22 -29 0 -31 3 -15 31 13 25 33 20 37 -9z m-123
-3 c-4 -5 -13 -9 -22 -9 -13 0 -13 3 -3 15 13 15 35 11 25 -6z m200 2 c7 -12
-12 -24 -25 -16 -11 7 -4 25 10 25 5 0 11 -4 15 -9z m1622 -115 c4 -3 -5 -6
-20 -6 -14 0 -29 -4 -32 -10 -11 -18 -25 -10 -25 14 0 22 2 23 36 16 19 -5 38
-11 41 -14z m-118 2 c-1 -7 1 -21 6 -31 10 -25 2 -30 -28 -16 -27 12 -30 35
-6 50 20 12 30 11 28 -3z m-519 -13 c0 -7 -91 -51 -120 -58 -14 -3 -45 -31
-70 -61 -25 -30 -50 -55 -55 -56 -6 0 -23 -14 -39 -31 -18 -18 -37 -29 -50
-27 -11 1 -27 -1 -34 -6 -7 -4 -16 -5 -19 -2 -3 3 -12 1 -19 -5 -15 -12 -19
-5 -26 36 -3 14 -10 19 -26 17 -16 -2 -22 2 -22 17 0 18 4 20 33 14 17 -3 37
-10 43 -15 13 -9 44 -1 44 13 0 5 9 9 19 9 10 0 33 16 50 35 17 19 40 35 51
35 12 0 19 4 16 9 -12 18 53 52 134 71 41 9 90 12 90 5z m205 -15 c-3 -4 3
-11 12 -14 14 -6 15 -9 2 -21 -11 -11 -25 -13 -59 -7 -54 9 -57 21 -11 44 32
16 66 15 56 -2z m600 -134 c0 -137 -8 -179 -20 -107 -9 56 4 241 18 241 1 0 2
-60 2 -134z m-1900 115 l30 -3 -26 -11 c-14 -7 -33 -18 -42 -26 -11 -9 -26
-11 -44 -6 -16 4 -39 9 -53 11 -87 12 -110 17 -110 25 0 12 147 18 245 10z
m1510 -11 c4 -6 15 -8 25 -5 26 8 37 -15 15 -32 -28 -19 -44 -16 -51 11 -3 14
-13 27 -22 29 -12 3 -10 5 5 6 12 0 25 -4 28 -9z m-1799 -9 c-3 -4 -23 -11
-44 -14 -21 -4 -48 -16 -60 -27 -18 -17 -25 -19 -42 -8 -16 10 -24 10 -41 0
-18 -11 -23 -11 -34 5 -7 10 -11 20 -9 22 6 6 152 28 197 30 21 0 36 -3 33 -8z
m530 -2 c3 -6 2 -15 -3 -20 -12 -12 -128 0 -150 16 -13 10 -1 12 65 13 49 1
83 -2 88 -9z m-801 -20 c5 -5 0 -9 -15 -9 -19 0 -21 -3 -12 -12 17 -17 15 -48
-3 -48 -8 0 -15 7 -15 16 0 9 -6 14 -12 12 -7 -3 -13 -11 -13 -19 0 -23 -40
-17 -43 7 -2 12 -15 27 -30 34 l-27 13 40 13 c41 14 113 10 130 -7z m-196 -12
c-8 -7 -18 -20 -22 -29 -3 -10 -13 -18 -22 -18 -17 0 -20 -16 -5 -25 16 -10 4
-139 -16 -170 -14 -22 -18 -52 -21 -159 -2 -139 -10 -206 -23 -206 -20 0 -26
136 -10 230 5 30 11 130 12 222 l3 168 60 0 c49 -1 57 -3 44 -13z m1104 6 c15
-14 -18 -33 -57 -32 -22 0 -34 3 -26 6 8 3 19 12 23 19 8 14 49 19 60 7z m205
-15 c2 -9 -7 -26 -19 -37 -25 -23 -35 -26 -44 -11 -3 6 -15 10 -26 10 -28 0
-36 28 -13 45 26 19 98 14 102 -7z m1030 -69 c-2 -6 -8 -10 -13 -10 -5 0 -11
4 -13 10 -2 6 4 11 13 11 9 0 15 -5 13 -11z m-2204 -52 c8 -12 7 -20 -2 -29
-16 -16 -47 13 -38 37 7 19 25 16 40 -8z m-414 -61 c0 -11 -19 -15 -25 -6 -3
5 1 10 9 10 9 0 16 -2 16 -4z m983 -22 c11 -11 -5 -34 -24 -34 -22 0 -24 11
-7 28 13 13 22 15 31 6z m1947 -130 c0 -21 -4 -33 -10 -29 -17 10 -11 65 7 65
2 0 3 -16 3 -36z m-340 -14 c0 -5 -5 -10 -11 -10 -5 0 -7 5 -4 10 3 6 8 10 11
10 2 0 4 -4 4 -10z m197 -74 c-8 -19 -37 -21 -37 -3 0 7 5 18 12 25 15 15 33
-1 25 -22z m-157 -26 c0 -5 -5 -10 -11 -10 -5 0 -7 5 -4 10 3 6 8 10 11 10 2
0 4 -4 4 -10z m299 -31 c-13 -26 -23 -18 -14 10 3 12 11 19 16 16 5 -4 5 -14
-2 -26z m-1899 -4 c0 -8 -4 -15 -9 -15 -13 0 -22 16 -14 24 11 11 23 6 23 -9z
m680 5 c0 -5 -4 -10 -9 -10 -6 0 -13 5 -16 10 -3 6 1 10 9 10 9 0 16 -4 16
-10z m894 -74 c-3 -12 -14 -38 -25 -59 -10 -21 -19 -44 -19 -51 0 -7 -7 -19
-15 -26 -14 -12 -15 -8 -9 31 3 24 16 70 27 102 19 50 24 55 35 40 6 -9 9 -26
6 -37z m166 20 c-14 -14 -24 0 -16 21 6 15 8 15 16 3 6 -9 5 -19 0 -24z
m-1720 -2 c0 -8 -4 -12 -10 -9 -5 3 -10 10 -10 16 0 5 5 9 10 9 6 0 10 -7 10
-16z m560 -14 c12 -8 11 -10 -7 -10 -12 0 -25 5 -28 10 -8 13 15 13 35 0z
m1325 -33 c-10 -46 -25 -57 -25 -20 0 40 9 65 22 57 5 -3 6 -20 3 -37z m-1505
-12 c0 -9 -10 -19 -23 -24 -29 -11 -47 -46 -50 -96 -3 -36 -6 -40 -31 -43 -26
-3 -28 -2 -22 23 14 57 50 118 80 136 38 23 46 24 46 4z m1350 -19 c0 -15 -37
-32 -47 -22 -9 8 17 36 33 36 8 0 14 -6 14 -14z m-2569 -48 c3 -26 -3 -44 -21
-63 -21 -24 -28 -66 -40 -242 -10 -134 -25 -203 -47 -211 -31 -10 -45 117 -17
156 16 23 46 184 45 246 0 30 49 126 65 126 8 0 15 -6 15 -12z m2706 -10 c-3
-8 -6 -5 -6 6 -1 11 2 17 5 13 3 -3 4 -12 1 -19z m-147 -19 c0 -10 -7 -19 -15
-19 -15 0 -21 31 -9 43 11 10 24 -3 24 -24z m-2800 -21 c0 -7 -7 -21 -14 -31
-17 -22 -28 -2 -14 26 10 20 28 23 28 5z m1880 -18 c0 -5 -4 -10 -10 -10 -5 0
-10 5 -10 10 0 6 5 10 10 10 6 0 10 -4 10 -10z m1080 -22 c0 -16 -3 -19 -11
-11 -6 6 -8 16 -5 22 11 17 16 13 16 -11z m-2520 -167 c0 -17 -4 -33 -10 -36
-11 -7 -25 39 -15 54 12 21 25 11 25 -18z m1490 -1 c0 -5 8 -10 19 -10 10 0
34 -7 52 -15 26 -11 29 -14 13 -15 -12 0 -25 -10 -32 -24 -6 -14 -23 -27 -41
-31 -27 -6 -29 -9 -24 -39 4 -28 2 -34 -16 -39 -26 -6 -34 5 -25 38 7 30 2 31
-37 8 -27 -16 -29 -16 -49 2 -26 23 -25 33 2 37 29 4 35 28 9 35 -32 8 -14 23
28 23 25 0 44 7 56 20 19 21 45 27 45 10z m831 -3 c-1 -4 -1 -20 -1 -36 0 -43
-70 -93 -125 -89 -34 3 -39 6 -37 23 2 11 11 28 20 38 14 16 14 19 2 27 -13 8
-12 10 3 10 9 0 17 7 17 15 0 9 9 15 22 15 21 0 21 -1 3 -14 -11 -8 -16 -20
-12 -29 5 -13 10 -14 31 -4 14 7 24 18 21 25 -2 7 5 17 18 22 24 10 39 9 38
-3z m-2701 -43 c0 -26 -17 -33 -26 -9 -8 20 3 48 16 40 5 -3 10 -17 10 -31z
m1532 25 c66 -14 74 -21 48 -44 -11 -10 -20 -28 -20 -39 0 -14 -3 -17 -8 -9
-4 7 -23 14 -40 16 -38 4 -68 27 -36 27 15 1 16 2 4 9 -8 5 -28 11 -45 15 -24
5 -26 4 -12 -4 27 -17 20 -26 -18 -22 -37 4 -64 27 -49 42 9 9 46 16 96 19 15
0 51 -4 80 -10z m728 -8 c0 -10 -13 -33 -29 -50 -22 -24 -38 -31 -66 -31 -20
0 -45 -4 -55 -10 -23 -12 -50 -3 -50 16 0 15 25 28 74 39 21 4 26 9 17 15 -17
10 -88 1 -122 -16 -22 -11 -27 -10 -37 7 -7 10 -12 21 -12 24 0 3 44 5 98 5
53 0 104 5 112 10 8 5 27 10 43 10 20 0 27 -5 27 -19z m-1161 -10 c12 -8 9
-11 -12 -16 -15 -4 -36 -5 -47 -2 -10 3 -27 -1 -37 -8 -18 -14 -70 -10 -87 6
-11 10 23 18 99 22 33 2 62 4 65 5 3 1 12 -2 19 -7z m121 -1 c0 -5 -9 -10 -21
-10 -11 0 -17 5 -14 10 3 6 13 10 21 10 8 0 14 -4 14 -10z m1670 -80 c1 -19
-3 -53 -9 -75 -10 -41 -6 -59 8 -36 13 21 20 -78 8 -113 -6 -17 -13 -33 -17
-36 -3 -3 -9 -13 -13 -23 -5 -14 -11 -16 -26 -7 -25 13 -35 43 -23 67 22 42
54 203 48 238 -4 20 -4 46 0 58 7 21 8 20 15 -8 5 -16 9 -45 9 -65z m-423 69
c8 -8 17 -7 31 2 29 18 42 0 15 -18 -13 -9 -23 -25 -23 -38 0 -12 -9 -30 -21
-41 -20 -18 -21 -18 -34 -1 -9 13 -20 16 -39 11 -20 -5 -26 -2 -26 9 0 9 5 19
10 22 6 3 10 19 10 36 0 26 3 29 33 29 18 0 38 -5 44 -11z m-1657 -9 c0 -5
-10 -10 -22 -10 -19 0 -20 2 -8 10 19 13 30 13 30 0z m80 0 c0 -5 -16 -10 -36
-10 -21 0 -33 4 -29 10 3 6 19 10 36 10 16 0 29 -4 29 -10z m-180 -10 c0 -5
-8 -10 -17 -10 -15 0 -16 2 -3 10 19 12 20 12 20 0z m-778 -22 c-7 -7 -12 -8
-12 -2 0 14 12 26 19 19 2 -3 -1 -11 -7 -17z m2330 -33 c0 -5 -5 -11 -11 -13
-6 -2 -11 4 -11 13 0 9 5 15 11 13 6 -2 11 -8 11 -13z m69 0 c0 -5 -9 -11 -21
-13 -20 -3 -27 8 -13 22 10 9 34 3 34 -9z m-571 -75 c0 -5 -5 -10 -11 -10 -5
0 -7 5 -4 10 3 6 8 10 11 10 2 0 4 -4 4 -10z m673 -112 c5 -35 -7 -68 -24 -68
-6 0 -9 12 -8 28 2 15 0 33 -4 40 -10 15 0 32 17 32 8 0 16 -15 19 -32z
m-2283 -13 c0 -27 -43 -75 -66 -75 -9 0 -14 -11 -13 -27 0 -28 0 -28 10 -4 8
19 12 21 24 11 19 -16 19 -49 0 -88 -9 -17 -15 -52 -15 -79 2 -80 -10 -116
-34 -107 -9 3 -15 -6 -20 -27 -11 -57 -7 -86 13 -92 22 -5 36 -54 21 -72 -16
-19 -40 -7 -41 19 0 20 -1 20 -9 1 -16 -37 -11 98 6 154 8 29 13 60 9 68 -7
21 4 55 16 48 11 -8 12 18 1 30 -5 6 -14 29 -21 53 -12 42 -11 47 29 128 35
70 46 84 66 84 19 0 24 -5 24 -25z m1708 3 c-3 -7 -14 -18 -25 -23 -12 -6 -28
-16 -36 -23 -25 -21 -28 3 -4 25 33 31 72 43 65 21z m-87 -131 c-8 -8 -14 -7
-23 2 -11 10 -9 15 7 27 18 13 20 13 23 -2 2 -9 -1 -21 -7 -27z m1104 12 c10
-15 -1 -23 -20 -15 -9 3 -13 10 -10 16 8 13 22 13 30 -1z m-263 -66 c-12 -16
-27 -38 -32 -50 -13 -32 -29 -28 -37 8 -3 17 -12 33 -19 36 -8 3 -14 11 -14
19 0 16 5 17 29 5 12 -7 26 -4 46 9 40 26 56 9 27 -27z m244 11 c-3 -7 -1 -16
4 -19 6 -4 10 -16 10 -28 0 -33 -17 -8 -26 37 -5 29 -4 37 5 31 7 -4 10 -13 7
-21z m-646 -3 c0 -6 -8 -16 -18 -23 -11 -7 -21 -20 -25 -28 -4 -11 -6 -11 -6
4 -1 13 -6 17 -21 13 -20 -5 -19 2 3 31 11 14 67 17 67 3z m-420 -41 c0 -5 -4
-10 -10 -10 -5 0 -10 5 -10 10 0 6 5 10 10 10 6 0 10 -4 10 -10z m-370 -30 c0
-11 -7 -20 -15 -20 -18 0 -19 12 -3 28 16 16 18 15 18 -8z m1441 -107 c-9 -16
-10 -15 -11 8 0 15 3 42 8 60 l7 34 3 -42 c2 -24 -1 -51 -7 -60z m-1557 12
c-4 -8 -8 -15 -10 -15 -2 0 -4 7 -4 15 0 8 4 15 10 15 5 0 7 -7 4 -15z m1563
-72 c-3 -10 -5 -4 -5 12 0 17 2 24 5 18 2 -7 2 -21 0 -30z m-1462 17 c3 -5 1
-10 -4 -10 -6 0 -11 5 -11 10 0 6 2 10 4 10 3 0 8 -4 11 -10z m-1325 -45 c0
-8 -7 -15 -15 -15 -9 0 -12 6 -9 15 4 8 10 15 15 15 5 0 9 -7 9 -15z m2812
-89 c19 -13 19 -16 5 -30 -9 -9 -19 -25 -22 -36 -10 -33 -28 -24 -21 11 3 17
7 52 7 78 1 29 4 36 6 19 2 -15 14 -34 25 -42z m-2269 27 c9 -9 -23 -44 -34
-37 -5 3 -4 14 1 25 11 20 22 24 33 12z m291 -33 c10 -10 -24 -59 -41 -60 -9
0 -13 15 -13 41 0 37 2 40 23 34 12 -4 26 -11 31 -15z m-84 -13 c0 -19 -10
-27 -26 -20 -11 4 -12 9 -3 19 15 18 29 18 29 1z m-60 -51 c-6 -17 -16 -26
-27 -24 -25 5 -26 25 -3 48 28 28 45 14 30 -24z m928 -8 c-2 -6 -10 -14 -16
-16 -7 -2 -10 2 -6 12 7 18 28 22 22 4z m-853 -18 c-3 -5 -13 -10 -21 -10 -8
0 -12 5 -9 10 3 6 13 10 21 10 8 0 12 -4 9 -10z m-772 -57 c-3 -7 -9 -13 -14
-13 -11 0 -12 34 -2 43 9 10 22 -13 16 -30z m505 -5 c-37 -45 -68 -60 -68 -34
0 17 68 76 89 76 8 0 0 -16 -21 -42z m271 6 c5 -5 -39 -53 -48 -52 -24 3 -33
-4 -28 -22 6 -22 -18 -53 -37 -47 -6 2 -12 13 -14 25 -4 23 -17 29 -27 12 -5
-8 -11 -7 -21 1 -17 14 -8 33 12 25 22 -9 44 4 60 36 8 16 19 26 24 23 5 -3
11 -1 15 5 5 9 52 4 64 -6z m535 -4 c14 -14 -1 -37 -28 -42 -28 -6 -40 4 -49
40 -5 23 -4 24 31 17 20 -4 41 -10 46 -15z m-1374 -55 c0 -14 4 -25 9 -25 5 0
11 -10 15 -22 6 -24 -29 -108 -44 -108 -18 0 -20 21 -14 99 5 58 11 81 20 81
8 0 14 -11 14 -25z m560 -39 c0 -6 -9 -22 -20 -36 l-20 -25 0 36 c0 20 3 38 6
42 9 9 34 -3 34 -17z m0 -87 c0 -5 -4 -9 -10 -9 -5 0 -10 7 -10 16 0 8 5 12
10 9 6 -3 10 -10 10 -16z m1701 -32 c-1 -12 -15 -9 -19 4 -3 6 1 10 8 8 6 -3
11 -8 11 -12z m626 -90 c-2 -24 -8 -50 -12 -57 -5 -9 -4 -15 3 -18 17 -5 15
-42 -3 -48 -11 -5 -12 -11 -5 -25 7 -13 7 -25 -2 -39 -29 -47 -41 -11 -27 88
12 89 27 142 40 142 5 0 8 -20 6 -43z m-1867 -6 c0 -4 -8 -19 -18 -32 -10 -13
-21 -32 -25 -41 -8 -23 -27 -23 -27 -2 0 25 40 84 56 84 8 0 14 -4 14 -9z
m-437 -250 c20 0 37 -5 37 -10 0 -10 -44 -20 -114 -25 -31 -3 -52 -10 -58 -20
-5 -9 -17 -16 -28 -16 -14 0 -20 -8 -22 -32 -5 -54 -23 -33 -29 34 -4 35 -5
66 -3 70 4 6 49 6 217 -1z m223 -36 c4 -8 -6 -31 -20 -49 -17 -23 -24 -41 -19
-53 6 -16 5 -16 -10 -4 -10 7 -17 23 -16 35 4 43 -1 56 -21 56 -27 0 -25 18 3
23 49 9 78 7 83 -8z m693 9 c17 -4 31 -9 31 -13 0 -3 -22 -25 -49 -48 l-49
-42 -40 19 c-23 11 -54 20 -69 21 l-28 1 29 12 c27 12 28 14 10 24 -16 9 -15
11 16 20 42 12 105 14 149 6z m-404 -16 c11 -1 39 2 63 6 42 8 44 7 40 -15 -2
-19 -10 -25 -36 -27 -18 -2 -40 2 -48 8 -9 8 -30 10 -59 6 -34 -6 -47 -13 -57
-33 -18 -35 -32 -34 -36 2 -2 16 -8 33 -14 36 -6 4 -7 12 -3 19 7 11 28 11
150 -2z m749 0 c-3 -4 -34 -8 -69 -8 -61 0 -115 -19 -177 -63 -13 -8 -20 -9
-29 0 -18 18 15 71 48 75 53 7 232 4 227 -4z m446 8 c0 -11 -66 -36 -95 -36
-42 0 -68 -29 -59 -65 4 -14 2 -36 -4 -48 -6 -12 -13 -30 -16 -40 -3 -10 -10
-16 -16 -12 -5 3 -19 1 -30 -5 -17 -9 -20 -8 -21 7 0 16 -1 16 -8 -1 -10 -26
-17 -12 -26 47 -6 39 -5 47 9 48 41 3 41 3 50 42 4 16 2 27 -4 27 -5 0 -10 -7
-10 -15 0 -13 -28 -35 -45 -35 -3 0 -5 17 -3 38 l3 37 105 6 c58 3 120 6 138
7 17 1 32 0 32 -2z m70 -6 c0 -5 -4 -10 -9 -10 -6 0 -13 5 -16 10 -3 6 1 10 9
10 9 0 16 -4 16 -10z m535 0 c4 -6 -5 -23 -19 -37 -26 -26 -32 -20 -20 25 7
23 28 30 39 12z m-2105 -160 c0 -5 -4 -10 -9 -10 -5 0 -16 -3 -25 -6 -11 -4
-16 -1 -16 10 0 10 9 16 25 16 14 0 25 -4 25 -10z m-35 -40 c3 -5 1 -10 -4
-10 -6 0 -11 5 -11 10 0 6 2 10 4 10 3 0 8 -4 11 -10z m255 -11 c0 -7 -5 -29
-12 -50 -9 -31 -14 -37 -25 -28 -16 14 -16 29 -3 63 9 26 40 37 40 15z m1069
-131 c-11 -40 -18 -48 -40 -48 -22 0 -23 7 -7 58 11 35 14 37 34 28 18 -8 20
-15 13 -38z m41 -27 c-5 -11 -10 -28 -10 -38 0 -10 -9 -33 -21 -52 -18 -30
-22 -32 -36 -19 -13 14 -11 20 21 63 20 25 36 51 36 56 0 5 5 9 10 9 7 0 7 -6
0 -19z m-1350 -148 c-7 -28 -10 -58 -7 -66 3 -9 -3 -34 -14 -56 -10 -22 -19
-47 -19 -56 0 -18 -69 -85 -87 -85 -18 0 1 40 54 118 37 55 43 70 43 116 0 30
8 71 17 92 16 36 17 37 21 14 2 -14 -2 -48 -8 -77z m213 37 c-3 -11 -7 -20 -9
-20 -2 0 -4 9 -4 20 0 11 4 20 9 20 5 0 7 -9 4 -20z m1112 -45 c0 -16 -5 -30
-11 -32 -13 -4 -28 43 -18 58 11 19 29 3 29 -26z m-25 -52 c0 -5 -7 -17 -15
-27 -14 -19 -15 -19 -15 7 0 17 5 27 15 27 8 0 15 -3 15 -7z m-14 -154 c-3
-15 -1 -31 4 -34 10 -6 2 -64 -12 -82 -6 -7 -4 -19 4 -32 10 -17 10 -23 0 -33
-21 -21 -31 9 -26 81 4 58 9 108 13 134 0 5 6 5 12 1 6 -3 9 -19 5 -35z m-20
-216 c19 -26 17 -51 -6 -63 -11 -6 -20 -9 -21 -8 -1 2 -2 19 -4 38 -4 52 7 64
31 33z"/>
</g>
</svg>
