<?xml version="1.0" standalone="no"?>
<!DOCTYPE svg PUBLIC "-//W3C//DTD SVG 20010904//EN"
 "http://www.w3.org/TR/2001/REC-SVG-20010904/DTD/svg10.dtd">
<svg version="1.0" xmlns="http://www.w3.org/2000/svg"
 width="171.000000pt" height="181.000000pt" viewBox="0 0 171.000000 181.000000"
 preserveAspectRatio="xMidYMid meet">
<metadata>
Created by potrace 1.16, written by Peter Selinger 2001-2019
</metadata>
<g transform="translate(0.000000,181.000000) scale(0.100000,-0.100000)"
fill="#000000" stroke="none">
<path d="M126 1749 c2 -4 -1 -9 -7 -11 -18 -6 -20 -58 -2 -58 8 0 20 -6 28
-12 33 -33 56 -48 71 -48 8 0 12 -4 9 -10 -3 -5 0 -10 7 -10 7 0 32 -19 56
-41 23 -22 42 -37 42 -32 0 4 5 0 11 -9 5 -10 14 -18 20 -18 5 0 20 -10 33
-22 34 -33 71 -62 74 -60 1 2 9 -3 16 -10 8 -7 27 -24 44 -37 33 -27 28 -42
-19 -54 -14 -4 -41 -17 -60 -29 -19 -13 -46 -29 -61 -37 -16 -8 -28 -18 -28
-23 0 -4 -6 -8 -14 -8 -21 0 -67 -26 -59 -33 3 -4 -1 -7 -10 -7 -16 0 -38 -15
-73 -48 -10 -10 -14 -10 -14 -2 0 7 -12 -1 -28 -17 -15 -17 -42 -38 -60 -47
-55 -28 -102 -85 -102 -123 0 -36 33 -98 52 -98 7 0 18 -11 25 -25 7 -14 13
-21 13 -17 0 5 17 -4 38 -20 20 -16 54 -37 75 -48 20 -11 37 -23 37 -28 0 -4
4 -6 8 -3 5 3 27 -6 51 -20 24 -13 52 -24 62 -24 10 0 19 -4 19 -10 0 -5 6
-10 14 -10 21 0 67 -26 59 -34 -4 -4 0 -4 9 -1 9 4 19 2 22 -4 4 -6 13 -8 21
-4 8 3 15 0 15 -6 0 -6 5 -11 10 -11 21 0 9 19 -19 31 -16 7 -27 18 -24 23 4
5 -1 7 -10 3 -9 -3 -23 0 -31 8 -8 8 -20 15 -26 15 -12 0 -60 28 -75 45 -15
16 -81 55 -94 55 -6 0 -20 8 -30 18 -33 29 -50 42 -57 42 -9 0 -64 61 -64 71
0 5 -4 9 -8 9 -4 0 -9 10 -10 23 -2 25 17 77 28 77 4 0 22 14 40 30 18 17 35
30 39 30 4 0 16 8 27 18 10 10 44 33 74 51 30 19 58 39 62 45 4 6 8 8 8 3 0
-10 100 45 100 55 0 4 8 8 18 8 10 0 27 8 38 18 11 9 26 18 33 20 7 1 20 9 28
17 8 8 16 15 17 15 13 0 183 -186 190 -207 5 -15 15 -34 23 -41 7 -8 11 -18 8
-23 -4 -5 -1 -9 6 -9 7 0 9 -3 6 -7 -4 -3 -2 -12 3 -18 14 -16 20 -75 8 -75
-5 0 -8 -8 -7 -17 2 -10 -3 -29 -11 -43 -8 -14 -13 -28 -12 -32 1 -3 -5 -12
-13 -18 -8 -7 -15 -19 -15 -26 0 -8 -5 -14 -11 -14 -5 0 -8 -4 -4 -9 3 -5 -2
-16 -10 -24 -8 -9 -15 -23 -15 -32 0 -9 -4 -13 -10 -10 -5 3 -10 -1 -10 -9 0
-9 -4 -16 -9 -16 -5 0 -14 -13 -21 -30 -7 -16 -16 -28 -20 -25 -4 3 -15 -11
-24 -30 -9 -19 -19 -35 -22 -35 -3 0 -2 6 1 13 4 6 -1 3 -9 -7 -9 -11 -16 -24
-16 -29 0 -5 -18 -26 -40 -48 -22 -22 -41 -44 -43 -50 -4 -17 -129 -144 -139
-141 -5 1 -7 -2 -4 -6 3 -5 -39 -55 -93 -110 -62 -63 -92 -100 -81 -99 10 1
17 4 15 7 -2 3 10 12 26 19 16 7 27 17 23 22 -3 5 1 9 8 9 7 0 32 20 56 45 24
25 48 42 54 39 6 -4 9 -3 6 2 -6 9 14 32 29 36 13 4 40 28 176 165 140 139
162 163 164 177 1 5 7 12 15 17 7 5 13 14 13 21 0 8 9 23 20 35 34 37 46 53
40 53 -4 0 0 7 7 15 31 34 38 45 38 58 0 7 3 17 7 21 14 13 31 76 19 69 -7 -4
-7 -1 1 7 9 9 9 19 2 32 -6 11 -8 22 -5 25 7 7 -62 131 -85 154 -10 10 -25 33
-35 50 -19 37 -287 309 -322 328 -12 7 -20 16 -17 22 5 8 -10 14 -18 7 -1 -2
-33 26 -70 62 -38 36 -77 69 -88 74 -10 5 -19 13 -19 18 0 4 -7 8 -16 8 -8 0
-12 5 -9 10 3 6 0 10 -7 10 -7 0 -27 13 -43 28 -27 25 -72 41 -59 21z"/>
<path d="M1104 1619 c-12 -14 -12 -18 8 -35 13 -12 18 -13 13 -4 -7 11 -3 11
15 -3 24 -16 33 -21 70 -34 53 -19 300 -20 300 -1 0 4 16 8 34 8 23 0 44 8 62
25 14 13 31 22 37 18 6 -4 7 -1 2 7 -6 10 -4 12 8 7 20 -7 23 8 5 20 -7 4
-131 7 -276 8 -229 0 -265 -2 -278 -16z"/>
<path d="M1635 1501 c-3 -5 -2 -12 3 -15 5 -3 9 1 9 9 0 17 -3 19 -12 6z"/>
<path d="M1126 1427 c3 -10 9 -15 12 -12 3 3 0 11 -7 18 -10 9 -11 8 -5 -6z"/>
<path d="M1620 1430 c-9 -6 -10 -10 -3 -10 6 0 15 5 18 10 8 12 4 12 -15 0z"/>
<path d="M1596 1368 c3 -22 0 -26 -13 -21 -10 4 -14 2 -10 -4 3 -5 -3 -20 -14
-31 -30 -33 -11 -26 23 8 17 17 28 34 24 37 -3 4 1 14 10 24 15 17 15 18 -3
16 -16 -1 -19 -7 -17 -29z"/>
<path d="M1156 1367 c3 -10 9 -15 12 -12 3 3 0 11 -7 18 -10 9 -11 8 -5 -6z"/>
<path d="M1180 1316 c0 -2 8 -10 18 -17 15 -13 16 -12 3 4 -13 16 -21 21 -21
13z"/>
<path d="M1216 1273 c-6 -14 -5 -15 5 -6 7 7 10 15 7 18 -3 3 -9 -2 -12 -12z"/>
<path d="M1346 1202 c-3 -4 4 -9 15 -9 23 -2 25 3 4 10 -8 4 -16 3 -19 -1z"/>
<path d="M1264 864 c-18 -15 -18 -15 2 -5 12 6 25 7 29 3 5 -4 5 -1 1 6 -9 15
-8 15 -32 -4z"/>
<path d="M1460 810 c17 -16 34 -30 37 -30 4 0 -6 14 -22 30 -16 17 -33 30 -37
30 -5 0 5 -13 22 -30z"/>
<path d="M1175 801 c-3 -5 -2 -12 3 -15 5 -3 9 1 9 9 0 17 -3 19 -12 6z"/>
<path d="M1155 760 c-3 -6 1 -7 9 -4 18 7 21 14 7 14 -6 0 -13 -4 -16 -10z"/>
<path d="M1115 690 c-3 -6 1 -7 9 -4 18 7 21 14 7 14 -6 0 -13 -4 -16 -10z"/>
<path d="M1090 665 c0 -7 30 -13 34 -7 3 4 -4 9 -15 9 -10 1 -19 0 -19 -2z"/>
<path d="M553 583 c1 -21 32 -29 43 -11 5 7 2 8 -6 3 -8 -5 -18 -1 -26 10 -12
16 -13 16 -11 -2z"/>
<path d="M1288 524 c-3 -3 -20 -6 -37 -6 -17 -1 -31 -4 -31 -7 0 -3 -12 -7
-27 -8 -15 0 -29 -6 -31 -12 -2 -6 -7 -9 -12 -6 -5 3 -15 -1 -22 -8 -8 -8 -27
-13 -43 -12 -17 2 -25 1 -19 -1 6 -3 10 -18 8 -35 l-4 -30 73 2 c39 1 78 6 85
12 8 6 12 6 12 -3 0 -10 3 -10 15 0 12 10 15 10 15 -1 0 -9 3 -10 8 -4 4 6 69
10 159 10 114 0 157 3 170 14 13 9 14 15 5 18 -6 3 -10 8 -7 13 3 5 -3 7 -12
6 -10 -2 -29 5 -43 15 -14 10 -36 20 -50 21 -14 2 -31 7 -38 12 -15 9 -166 19
-174 10z"/>
</g>
</svg>
