<?xml version="1.0" standalone="no"?>
<!DOCTYPE svg PUBLIC "-//W3C//DTD SVG 20010904//EN"
 "http://www.w3.org/TR/2001/REC-SVG-20010904/DTD/svg10.dtd">
<svg version="1.0" xmlns="http://www.w3.org/2000/svg"
 width="292.000000pt" height="178.000000pt" viewBox="0 0 292.000000 178.000000"
 preserveAspectRatio="xMidYMid meet">
<metadata>
Created by potrace 1.16, written by Peter Selinger 2001-2019
</metadata>
<g transform="translate(0.000000,178.000000) scale(0.100000,-0.100000)"
fill="#000000" stroke="none">
<path d="M0 1749 l0 -32 88 6 c75 6 328 40 372 51 8 2 -92 4 -222 5 l-238 1 0
-31z"/>
<path d="M1938 1763 c-8 -10 -4 -13 15 -13 13 0 30 -7 37 -15 10 -13 26 -14
74 -9 74 8 79 10 66 34 -9 16 -21 19 -96 17 -54 -1 -89 -6 -96 -14z"/>
<path d="M2160 1770 c0 -6 11 -15 24 -20 18 -6 26 -18 28 -41 4 -42 20 -47 36
-10 12 28 7 65 -8 56 -4 -3 -10 2 -14 10 -6 17 -66 21 -66 5z"/>
<path d="M2525 1770 c-3 -6 5 -10 18 -10 20 0 24 -4 20 -19 -3 -12 2 -20 16
-24 32 -8 27 -45 -6 -57 -16 -6 -35 -14 -44 -19 -12 -7 -23 -5 -35 4 -11 8
-33 15 -49 15 -17 0 -36 5 -43 12 -20 20 -23 3 -11 -63 6 -35 11 -76 11 -91
-1 -21 6 -32 28 -43 27 -14 30 -21 30 -60 0 -43 1 -45 29 -45 24 0 29 -5 35
-32 8 -42 -4 -52 -40 -33 -41 21 -47 19 -39 -12 13 -47 14 -127 2 -141 -7 -9
-7 -16 0 -20 6 -4 10 -18 9 -32 -1 -22 4 -25 39 -28 42 -4 157 12 214 30 35
11 111 -4 111 -21 0 -5 -21 -15 -46 -22 -49 -15 -73 -42 -55 -63 7 -9 6 -19
-4 -34 -10 -13 -12 -23 -5 -27 18 -11 11 -44 -12 -57 -13 -7 -46 -11 -75 -9
-29 1 -66 0 -83 -4 l-30 -7 21 -17 21 -17 -20 -46 c-18 -39 -21 -64 -21 -178
1 -114 4 -139 22 -176 21 -44 38 -54 93 -54 22 0 36 -8 52 -29 21 -29 21 -29
1 -46 -23 -21 -25 -63 -4 -71 11 -4 15 -21 15 -58 0 -28 7 -62 15 -76 27 -48
28 -53 12 -65 -10 -7 -17 -15 -17 -19 0 -3 50 -6 110 -6 l110 0 0 150 c0 125
-3 152 -15 156 -9 4 -15 19 -15 35 0 17 6 32 15 35 18 7 20 41 3 47 -10 4 -10
7 0 18 9 10 12 106 12 410 l0 397 -46 13 c-25 8 -50 22 -56 32 -5 10 -20 22
-34 27 -20 8 -24 14 -18 33 9 31 11 32 30 16 14 -11 90 -37 116 -39 3 0 7 101
7 225 1 223 1 225 -20 225 -19 0 -21 -4 -16 -35 5 -27 2 -35 -13 -40 -11 -3
-29 -27 -42 -52 -23 -48 -48 -67 -48 -39 0 9 -9 21 -20 28 -12 8 -20 24 -20
40 0 15 -7 33 -16 40 -8 7 -25 23 -36 36 -18 19 -32 22 -89 22 -37 0 -71 -4
-74 -10z m175 -445 c0 -8 -4 -15 -10 -15 -5 0 -10 7 -10 15 0 8 5 15 10 15 6
0 10 -7 10 -15z m3 -496 c-23 -23 -53 -20 -53 6 0 11 10 15 37 15 l37 0 -21
-21z"/>
<path d="M1709 1763 c-1 -5 -2 -12 -3 -18 -3 -27 -38 -63 -56 -58 -13 3 -26
-3 -38 -17 -15 -19 -24 -21 -65 -15 -45 7 -58 17 -37 30 14 9 13 35 -2 35 -7
0 -23 -11 -37 -24 -22 -21 -39 -26 -118 -31 l-93 -6 0 41 c0 22 -2 40 -5 40
-2 0 -20 -8 -40 -17 -39 -19 -49 -53 -15 -53 23 0 25 -8 6 -33 -11 -14 -22
-17 -50 -12 -26 5 -48 2 -79 -13 -24 -11 -54 -18 -69 -15 -15 3 -36 -2 -51
-12 -19 -12 -30 -14 -45 -6 -15 8 -24 5 -42 -14 -13 -14 -33 -25 -45 -25 -25
0 -55 29 -55 52 0 21 -26 42 -45 34 -8 -3 -15 -16 -15 -28 0 -15 -11 -30 -33
-43 -60 -36 -86 -44 -169 -50 -46 -3 -93 -8 -104 -10 -30 -6 -48 -54 -39 -105
5 -30 3 -47 -9 -65 -9 -13 -16 -26 -16 -28 0 -2 19 -13 43 -25 24 -12 51 -30
61 -41 20 -22 65 -20 165 10 35 10 77 19 95 19 17 0 40 7 50 15 11 8 28 15 38
15 9 0 32 9 50 20 48 30 169 66 283 84 55 9 118 21 140 26 40 10 449 61 515
64 41 3 83 15 91 28 10 16 132 39 172 33 27 -5 45 -2 64 10 23 16 25 19 11 29
-9 7 -16 20 -15 30 3 25 -86 74 -135 75 -50 1 -68 10 -68 32 0 10 -4 19 -10
19 -5 0 -10 -9 -10 -20 0 -36 -77 -17 -113 27 -17 22 -56 32 -58 16z"/>
<path d="M2155 1560 c-3 -5 3 -10 14 -10 11 0 23 5 26 10 3 6 -3 10 -14 10
-11 0 -23 -4 -26 -10z"/>
<path d="M248 1509 c-10 -5 -18 -19 -18 -30 0 -19 0 -19 40 1 22 11 40 25 40
30 0 13 -40 12 -62 -1z"/>
<path d="M2193 1483 c-21 -18 -46 -33 -55 -33 -27 0 -40 -33 -23 -56 8 -11 15
-31 15 -46 0 -29 8 -32 48 -22 16 5 22 14 22 34 0 20 6 31 20 35 25 8 43 -3
36 -20 -3 -8 6 -21 20 -29 15 -10 24 -26 24 -41 0 -28 3 -29 29 -15 24 12 35
95 20 139 l-11 32 -22 -20 c-44 -41 -53 -23 -30 59 7 29 -52 17 -93 -17z m42
-63 c-5 -8 -11 -8 -17 -2 -6 6 -7 16 -3 22 5 8 11 8 17 2 6 -6 7 -16 3 -22z"/>
<path d="M123 1415 c-25 -17 -47 -69 -39 -90 5 -14 8 -14 31 1 25 16 55 62 55
82 0 17 -27 21 -47 7z"/>
<path d="M302 1399 c-22 -57 -22 -67 -7 -83 22 -21 37 -11 29 20 -4 14 -1 31
7 40 10 12 9 18 -4 31 -15 15 -17 15 -25 -8z"/>
<path d="M1832 1374 c-34 -7 -70 -18 -80 -22 -9 -5 -42 -13 -73 -16 -42 -5
-62 -13 -78 -32 -15 -18 -31 -24 -60 -24 -22 0 -43 -5 -46 -10 -4 -6 -11 -8
-16 -4 -23 14 -74 -6 -92 -37 -9 -17 -26 -33 -37 -36 -22 -6 -28 -23 -8 -23 9
0 9 -3 1 -11 -14 -14 -83 -1 -83 17 0 26 -35 15 -47 -15 -9 -26 -17 -30 -54
-33 -24 -2 -56 2 -70 9 -33 15 -62 10 -94 -16 -21 -16 -36 -18 -83 -14 -55 5
-60 4 -87 -26 -17 -17 -34 -31 -38 -31 -4 0 -24 -15 -42 -34 -40 -38 -47 -72
-14 -63 15 4 35 -4 63 -27 26 -20 49 -31 64 -28 12 2 22 6 23 10 0 4 3 16 5
27 3 11 8 41 11 68 6 52 9 54 34 31 12 -11 43 -17 96 -20 91 -5 268 -31 301
-45 13 -5 21 -13 18 -18 -8 -13 21 -34 39 -27 8 3 15 12 15 20 0 17 65 76 85
76 17 0 21 -55 5 -65 -15 -9 -12 -48 5 -71 15 -19 16 -18 36 9 13 17 30 27 47
27 46 0 54 11 43 61 -22 94 -5 142 31 88 12 -18 17 -20 35 -10 12 6 25 20 28
31 3 11 13 20 20 20 13 0 26 -34 41 -108 4 -18 10 -32 15 -32 5 0 9 -4 9 -10
0 -5 -9 -10 -20 -10 -11 0 -23 -7 -26 -15 -4 -8 -14 -15 -24 -15 -25 0 -41
-22 -30 -40 14 -22 13 -25 -29 -48 -36 -21 -40 -27 -46 -75 -6 -48 -2 -144 7
-152 13 -13 38 -4 66 22 32 31 32 32 12 43 -28 15 -25 38 5 46 27 7 32 23 13
42 -9 9 -6 14 13 21 14 5 28 5 34 0 19 -18 35 -9 35 21 0 17 5 30 10 30 6 0
10 5 10 10 0 6 -9 10 -20 10 -11 0 -20 7 -20 15 0 8 9 20 20 27 11 7 20 21 20
31 0 9 14 30 32 46 32 28 33 30 39 142 6 115 20 175 39 164 5 -3 10 -13 10
-22 0 -9 7 -21 16 -27 14 -10 14 -19 0 -85 -8 -40 -27 -93 -41 -118 -30 -55
-31 -69 -6 -83 31 -16 49 -13 241 40 184 51 211 61 243 88 24 21 21 32 -8 32
-13 0 -32 8 -42 19 -10 10 -30 25 -44 32 -15 8 -39 29 -55 48 -23 28 -26 36
-16 52 7 10 12 23 12 28 0 16 -64 20 -87 5 -12 -8 -38 -14 -57 -14 -19 0 -38
-5 -42 -12 -10 -15 -34 19 -34 48 0 12 -9 32 -19 45 -19 23 -19 23 -40 5 -20
-18 -21 -18 -28 0 -13 37 -20 38 -111 18z m-306 -154 c45 -32 55 -58 30 -79
-12 -10 -19 -8 -35 8 -12 12 -21 25 -21 30 0 5 -13 14 -30 21 -18 8 -30 20
-30 31 0 28 35 24 86 -11z m224 -59 c14 -28 13 -31 -16 -31 -20 0 -25 4 -20
16 3 9 6 20 6 25 0 16 19 10 30 -10z m-110 -21 c0 -5 -7 -10 -15 -10 -8 0 -15
5 -15 10 0 6 7 10 15 10 8 0 15 -4 15 -10z"/>
<path d="M204 1326 c16 -9 31 -14 34 -11 8 8 0 13 -33 20 l-30 7 29 -16z"/>
<path d="M58 1263 c-7 -15 -23 -43 -35 -62 -18 -26 -23 -48 -22 -95 0 -58 1
-60 16 -38 16 23 57 30 68 11 5 -7 14 -4 27 8 14 12 19 13 16 3 -2 -7 9 -20
25 -27 15 -8 27 -20 27 -27 0 -8 7 -19 15 -26 8 -7 15 -26 15 -42 0 -39 17
-69 35 -62 11 5 15 -1 15 -20 0 -14 5 -26 11 -26 7 0 9 9 6 22 -4 12 0 29 7
38 7 8 19 32 26 53 6 20 25 50 41 67 16 16 34 43 40 59 7 21 21 33 45 41 22 8
34 18 34 30 0 22 -16 35 -25 20 -3 -5 -18 -10 -33 -10 -15 0 -36 -7 -46 -15
-26 -20 -39 -19 -88 5 -67 32 -110 23 -123 -27 l-8 -28 -8 30 c-5 16 -6 38 -4
50 6 27 -26 89 -47 93 -12 2 -22 -7 -30 -25z"/>
<path d="M224 1259 c-7 -12 15 -31 28 -23 9 6 -1 34 -12 34 -5 0 -12 -5 -16
-11z"/>
<path d="M1320 1225 c-10 -13 -9 -15 9 -15 12 0 21 6 21 15 0 8 -4 15 -9 15
-5 0 -14 -7 -21 -15z"/>
<path d="M2355 1230 c3 -5 8 -10 11 -10 2 0 4 5 4 10 0 6 -5 10 -11 10 -5 0
-7 -4 -4 -10z"/>
<path d="M1700 1006 c0 -9 -4 -16 -10 -16 -18 0 -10 -18 11 -23 26 -7 36 17
15 38 -14 15 -16 15 -16 1z"/>
<path d="M18 1003 c-16 -4 -18 -21 -18 -181 0 -137 3 -173 12 -164 7 7 20 12
30 12 16 0 18 7 16 38 -3 32 0 37 20 40 24 4 30 -16 10 -36 -15 -15 30 -54 52
-45 8 3 24 6 34 8 28 2 32 24 7 41 -17 12 -18 19 -10 38 8 18 7 30 -5 54 -9
17 -16 39 -17 49 0 11 -3 13 -6 5 -2 -6 -9 -9 -15 -6 -7 4 -2 13 12 24 20 15
21 20 11 58 -15 56 -67 81 -133 65z"/>
<path d="M1115 941 c-33 -4 -69 -11 -80 -18 -11 -6 -35 -8 -52 -6 -29 5 -33 3
-33 -18 0 -13 9 -37 20 -54 25 -38 25 -57 0 -73 -12 -7 -20 -22 -19 -35 5 -53
-2 -79 -28 -103 -56 -52 27 -49 127 5 8 5 15 20 15 34 1 31 1 32 40 44 21 6
36 22 51 52 25 52 47 67 64 46 10 -12 9 -22 -4 -49 -20 -43 -20 -46 2 -46 19
0 104 41 135 64 17 13 18 18 5 53 -16 47 -38 70 -91 94 -44 19 -53 20 -152 10z"/>
<path d="M648 930 c-20 -50 -28 -112 -14 -107 6 2 10 14 8 26 -2 12 2 28 8 36
6 8 10 24 8 37 -3 17 -6 19 -10 8z"/>
<path d="M2370 908 c-19 -5 -47 -19 -64 -31 -26 -19 -27 -21 -10 -28 33 -13
86 -68 78 -81 -5 -7 -7 -25 -6 -40 1 -15 -3 -28 -9 -28 -7 0 -8 -13 -4 -40 4
-26 3 -40 -4 -40 -6 0 -11 7 -11 15 0 17 -50 45 -80 45 -14 0 -20 6 -20 24 0
18 7 25 29 29 32 7 49 36 29 49 -7 4 -21 6 -30 4 -22 -5 -23 7 -3 24 21 18 4
33 -27 25 -16 -4 -29 -18 -37 -41 -8 -22 -19 -34 -31 -34 -10 0 -27 -15 -39
-35 -11 -19 -27 -35 -36 -35 -8 0 -15 -5 -15 -10 0 -20 33 -24 61 -8 30 17 39
14 39 -12 0 -9 9 -25 20 -35 11 -10 20 -24 20 -31 0 -7 8 -17 17 -22 15 -9 13
-13 -16 -38 -27 -22 -32 -32 -27 -55 4 -21 -1 -35 -18 -54 -16 -17 -22 -33
-18 -50 4 -25 -11 -35 -23 -15 -3 6 -19 10 -36 10 -28 0 -29 1 -29 53 0 28 -4
57 -8 63 -13 20 -51 22 -112 8 -36 -8 -68 -10 -82 -5 l-22 8 22 12 c12 6 54
23 94 36 l73 25 22 -27 c18 -23 24 -25 37 -14 23 19 20 30 -9 37 -22 5 -25 11
-23 37 3 27 -2 33 -44 56 -46 25 -48 25 -83 8 -27 -13 -36 -23 -34 -40 4 -45
-20 -82 -68 -106 -41 -20 -45 -24 -30 -33 14 -8 16 -13 6 -24 -15 -19 -39 -18
-39 2 0 9 -9 23 -19 32 -11 10 -21 26 -23 37 -4 29 -37 45 -64 33 -17 -8 -28
-5 -53 13 -20 15 -27 26 -21 34 6 7 2 11 -13 11 -108 1 -125 4 -130 24 -3 14
-14 20 -32 20 -14 0 -34 4 -43 9 -11 6 -29 3 -52 -8 -33 -16 -35 -19 -35 -66
0 -28 -4 -56 -9 -63 -4 -8 -11 -25 -15 -40 -5 -19 -14 -27 -32 -27 -16 0 -24
-6 -24 -17 0 -10 -5 -22 -12 -29 -13 -13 -45 5 -69 40 -10 13 -26 21 -45 21
-17 0 -32 6 -35 15 -7 18 -29 19 -88 3 -38 -10 -48 -9 -70 5 -15 11 -26 27
-26 40 0 13 -6 29 -13 36 -10 10 -9 14 5 22 10 6 18 17 18 26 0 15 -1 15 -13
-1 -9 -12 -23 -17 -42 -14 -37 4 -39 24 -5 41 16 9 24 20 22 33 -11 63 -16 77
-33 81 -11 3 -19 9 -19 13 0 5 -9 12 -20 15 -11 3 -20 13 -20 21 0 8 -4 13 -8
10 -5 -3 -10 -31 -11 -62 -1 -31 -5 -62 -8 -67 -4 -6 -6 -28 -4 -48 2 -41 -36
-114 -96 -182 -18 -20 -33 -41 -33 -46 0 -8 -53 -22 -146 -40 -38 -7 -93 -50
-94 -73 0 -5 -9 -8 -20 -8 -11 0 -20 -7 -20 -15 0 -8 7 -15 15 -15 22 0 37
-35 26 -63 -10 -26 -20 -31 -84 -42 -36 -6 -39 -4 -50 25 -13 33 -19 34 -108
8 -56 -16 -99 -82 -99 -153 l0 -55 161 0 c148 0 159 1 144 16 -15 15 -15 18 1
35 14 16 15 23 4 49 -10 24 -10 33 0 45 10 12 17 13 45 1 48 -21 179 -13 237
13 26 12 80 30 120 41 40 11 98 26 128 34 30 9 72 16 93 16 21 0 52 7 70 17
50 26 94 35 202 42 73 4 99 9 97 19 -3 15 36 32 98 43 25 4 66 13 93 20 76 20
91 -20 22 -57 -36 -19 -50 -39 -35 -49 5 -3 27 -8 49 -11 41 -6 51 2 30 23
-13 13 33 27 62 18 12 -4 21 -1 25 9 3 9 10 14 14 11 4 -3 19 5 34 16 14 11
38 22 52 23 14 2 29 9 34 16 4 7 13 9 19 6 18 -11 13 -34 -9 -41 -11 -3 -20
-13 -20 -21 0 -8 -9 -14 -20 -14 -49 0 -2 -46 55 -53 22 -3 52 -9 67 -12 44
-12 78 1 78 30 0 19 -7 26 -37 34 -21 6 -44 11 -50 11 -14 0 -18 36 -5 44 15
9 81 -14 94 -33 8 -11 32 -21 60 -25 44 -7 48 -10 58 -44 5 -20 10 -44 10 -53
0 -25 24 -69 38 -69 21 0 7 108 -19 143 -24 33 -24 32 18 41 27 6 34 3 49 -19
20 -31 23 -120 5 -154 -13 -23 -88 -61 -123 -61 -19 0 -19 2 6 21 14 11 26 24
26 29 0 12 -69 44 -77 36 -4 -4 3 -9 15 -13 12 -3 22 -8 22 -12 -1 -19 -22
-34 -52 -36 -137 -8 -237 -20 -260 -31 -36 -18 -68 -18 -68 1 0 8 -4 15 -10
15 -5 0 -10 -9 -10 -20 0 -16 -7 -20 -35 -20 -25 0 -35 -4 -35 -15 0 -29 93
-48 117 -24 13 13 33 4 33 -17 0 -10 12 -14 40 -14 28 0 40 4 40 14 0 20 10
25 87 41 66 14 70 14 143 -12 41 -14 79 -30 84 -34 14 -13 124 -11 132 2 6 10
-6 23 -28 31 -13 5 4 48 19 48 8 0 21 16 29 35 8 19 18 35 22 35 5 0 15 11 22
25 7 13 26 29 42 34 25 9 30 8 37 -11 5 -14 10 -17 15 -10 4 7 15 12 25 12 14
0 17 6 13 32 -3 18 -12 38 -20 44 -13 10 -13 12 2 21 14 8 16 16 10 34 -4 13
-9 110 -10 214 -2 105 -3 195 -4 200 0 6 0 41 1 78 1 38 -3 72 -7 76 -5 5 -25
4 -44 -1z m-35 -398 c14 -5 24 -14 21 -18 -3 -4 -1 -26 4 -48 5 -21 5 -55 1
-74 l-8 -35 -8 28 c-5 20 -13 27 -33 27 -24 0 -24 1 -9 18 31 34 11 74 -24 51
-8 -5 -20 -9 -26 -9 -18 0 -16 29 2 36 8 4 15 12 15 20 0 16 28 18 65 4z
m-725 -116 c0 -9 -5 -14 -12 -12 -18 6 -21 28 -4 28 9 0 16 -7 16 -16z m-1222
-113 c3 -16 -1 -22 -10 -19 -7 3 -15 15 -16 27 -3 16 1 22 10 19 7 -3 15 -15
16 -27z m-211 -223 c-3 -7 -5 -2 -5 12 0 14 2 19 5 13 2 -7 2 -19 0 -25z"/>
<path d="M555 670 c17 -18 33 -26 38 -21 14 14 -15 51 -42 51 l-25 0 29 -30z"/>
<path d="M40 638 c0 -5 7 -8 15 -8 7 0 18 -7 22 -15 17 -29 113 -16 113 15 0
16 -9 18 -75 17 -41 -1 -75 -5 -75 -9z"/>
<path d="M0 428 l0 -153 110 0 c88 1 113 4 126 17 15 15 14 17 -9 33 -24 16
-25 19 -22 110 3 79 1 98 -14 116 -25 31 -47 19 -62 -31 -10 -34 -10 -46 0
-62 11 -18 10 -23 -16 -44 -15 -13 -31 -23 -35 -24 -3 0 -16 17 -28 37 -18 30
-21 48 -17 84 5 43 -4 69 -25 69 -4 0 -8 -69 -8 -152z"/>
<path d="M548 472 c-19 -4 -24 -27 -9 -37 6 -3 15 4 21 16 13 24 12 27 -12 21z"/>
<path d="M1375 320 c-3 -5 1 -10 9 -10 9 0 16 5 16 10 0 6 -4 10 -9 10 -6 0
-13 -4 -16 -10z"/>
<path d="M1650 261 c-14 -26 -13 -31 5 -31 22 0 66 30 59 41 -10 16 -53 9 -64
-10z"/>
<path d="M1870 215 c0 -9 5 -15 11 -13 6 2 11 8 11 13 0 5 -5 11 -11 13 -6 2
-11 -4 -11 -13z"/>
<path d="M1933 223 c-27 -5 -29 -16 -7 -37 21 -22 34 -20 34 4 0 13 7 20 20
20 11 0 20 5 20 10 0 10 -25 11 -67 3z"/>
<path d="M1634 176 c-8 -21 3 -36 27 -36 15 0 20 6 17 22 -4 27 -35 37 -44 14z"/>
<path d="M2518 173 c-10 -11 -18 -28 -18 -39 0 -17 1 -17 21 3 12 11 19 28 17
38 -3 16 -4 16 -20 -2z"/>
<path d="M1288 169 c-10 -5 -18 -15 -18 -22 1 -17 46 -67 61 -67 7 0 9 3 6 6
-3 4 -2 15 3 25 15 26 -28 73 -52 58z"/>
<path d="M2376 138 c-2 -7 -7 -28 -10 -46 -5 -27 -2 -34 17 -41 15 -6 24 -4
30 5 4 8 17 14 27 14 14 0 20 7 20 24 0 18 -8 27 -32 37 -18 7 -36 14 -40 17
-5 2 -10 -2 -12 -10z"/>
<path d="M2300 77 c0 -19 10 -27 26 -20 21 8 17 33 -6 33 -11 0 -20 -6 -20
-13z"/>
<path d="M863 28 c-26 -16 -36 -17 -53 -8 -24 13 -116 5 -126 -11 -3 -5 87 -9
218 -8 123 0 216 3 208 6 -8 2 -25 9 -37 15 -12 6 -32 8 -44 5 -12 -3 -29 -2
-38 2 -38 19 -96 19 -128 -1z"/>
<path d="M337 20 c-5 -19 0 -20 71 -20 67 0 74 2 57 14 -11 7 -43 16 -71 20
-46 6 -52 4 -57 -14z"/>
<path d="M1205 10 c-4 -6 8 -10 30 -10 22 0 34 4 30 10 -8 13 -52 13 -60 0z"/>
</g>
</svg>
