<?xml version="1.0" standalone="no"?>
<!DOCTYPE svg PUBLIC "-//W3C//DTD SVG 20010904//EN"
 "http://www.w3.org/TR/2001/REC-SVG-20010904/DTD/svg10.dtd">
<svg version="1.0" xmlns="http://www.w3.org/2000/svg"
 width="293.000000pt" height="149.000000pt" viewBox="0 0 293.000000 149.000000"
 preserveAspectRatio="xMidYMid meet">
<metadata>
Created by potrace 1.16, written by Peter Selinger 2001-2019
</metadata>
<g transform="translate(0.000000,149.000000) scale(0.100000,-0.100000)"
fill="#000000" stroke="none">
<path d="M1749 1476 c-2 -2 -74 -7 -159 -11 -215 -9 -300 -20 -312 -39 -6 -8
-8 -7 -8 2 0 8 -5 10 -12 5 -16 -9 -32 -12 -85 -15 -22 -2 -39 -6 -36 -10 2
-5 -14 -8 -37 -8 -29 0 -39 -4 -34 -12 4 -6 3 -8 -3 -5 -6 4 -32 0 -57 -7 -53
-16 -52 -16 -67 -16 -5 0 -7 -4 -4 -10 3 -5 -1 -10 -9 -10 -9 0 -16 -4 -16
-10 0 -10 -9 -22 -61 -84 -14 -17 -33 -45 -42 -62 -9 -17 -23 -36 -31 -43 -9
-7 -13 -17 -10 -22 3 -5 0 -9 -6 -9 -6 0 -9 -4 -5 -9 3 -5 -2 -17 -11 -25 -8
-9 -13 -16 -10 -16 6 0 -38 -86 -55 -106 -6 -7 -7 -19 -3 -26 4 -7 4 -10 -1
-6 -8 8 -35 -35 -35 -57 0 -7 -7 -18 -15 -25 -8 -7 -12 -16 -9 -21 2 -5 -3
-20 -12 -34 -9 -14 -12 -25 -8 -25 5 0 3 -4 -4 -9 -7 -4 -14 -14 -16 -22 -5
-32 -18 -59 -27 -59 -6 0 -8 -4 -4 -9 7 -12 -35 -52 -47 -45 -16 10 -58 12
-58 3 0 -5 -29 -9 -64 -9 -36 0 -67 -4 -70 -9 -3 -5 -23 -8 -43 -6 -21 1 -45
-1 -54 -6 -9 -4 -41 -10 -72 -12 -30 -3 -61 -8 -68 -13 -8 -5 -10 -3 -4 5 6
10 3 11 -12 2 -11 -6 -23 -7 -27 -4 -3 3 -6 1 -6 -6 0 -7 -4 -9 -10 -6 -5 3
-10 1 -10 -4 0 -6 6 -11 13 -11 8 0 7 -4 -3 -10 -10 -6 -11 -10 -2 -10 6 0 12
-9 12 -21 0 -19 4 -21 38 -15 20 3 48 7 62 9 14 2 32 6 40 10 16 6 94 18 122
18 10 0 20 5 23 10 4 5 11 6 17 3 6 -4 14 -1 18 5 4 7 27 13 53 14 25 1 43 5
40 10 -2 4 13 7 35 7 21 0 42 3 46 8 4 4 22 7 39 8 19 0 31 5 30 12 -3 11 17
17 40 13 5 -1 6 3 2 9 -3 6 -11 8 -16 5 -5 -4 -9 5 -9 19 0 14 5 28 10 31 6 4
8 10 5 14 -2 5 4 19 15 31 11 12 18 26 15 30 -2 4 4 16 15 27 10 12 16 23 13
27 -3 3 0 12 6 20 7 8 9 21 5 27 -4 8 -3 9 4 5 8 -5 12 0 12 13 0 12 5 21 11
21 5 0 7 5 4 10 -3 6 -1 10 4 10 6 0 10 3 9 8 -1 4 6 25 16 47 10 22 19 45 20
52 1 7 10 21 19 31 10 11 17 23 16 28 -4 14 23 64 31 59 5 -3 11 2 14 11 3 9
2 12 -5 8 -6 -3 -5 3 3 15 7 12 16 21 21 21 4 0 5 5 2 10 -3 6 -1 10 4 10 6 0
11 6 11 14 0 7 7 19 15 26 8 7 15 20 15 29 0 9 12 28 25 43 20 24 28 26 49 18
15 -5 26 -6 26 0 0 5 8 9 18 8 21 0 71 10 92 19 20 8 39 12 73 15 15 1 27 6
27 11 0 5 8 3 17 -4 11 -10 14 -10 9 -1 -5 8 1 12 21 13 15 0 37 3 48 5 11 3
52 7 90 10 39 3 77 8 85 11 24 9 213 10 241 0 29 -9 156 -137 177 -178 7 -14
26 -39 42 -56 16 -17 26 -34 23 -37 -4 -3 3 -15 15 -27 13 -11 20 -24 17 -30
-4 -5 -1 -9 4 -9 6 0 11 -7 11 -15 0 -8 5 -15 11 -15 6 0 9 -6 6 -12 -2 -7 2
-21 11 -30 10 -12 11 -18 3 -18 -7 0 -3 -9 8 -22 11 -11 18 -24 16 -28 -3 -4
2 -30 10 -56 8 -27 15 -60 15 -75 0 -14 6 -31 13 -38 10 -11 10 -13 0 -7 -14
8 -18 -10 -4 -18 9 -6 7 -48 -4 -65 -3 -6 -1 -11 6 -11 8 0 7 -5 -2 -17 -10
-11 -10 -14 -1 -9 13 8 17 -6 5 -18 -4 -3 -8 -28 -10 -54 -7 -95 -8 -102 -15
-102 -5 0 -8 -11 -8 -23 0 -13 -3 -27 -7 -30 -3 -4 -8 -21 -10 -37 -1 -17 -12
-51 -23 -75 -11 -24 -20 -49 -20 -54 0 -6 -3 -11 -7 -11 -5 0 -9 -14 -10 -32
-1 -17 -7 -36 -13 -42 -21 -21 -9 -28 14 -7 22 20 25 21 40 6 9 -9 13 -21 10
-27 -4 -6 19 6 50 26 31 20 56 33 56 29 0 -4 11 4 25 17 14 13 25 20 25 16 0
-5 15 3 34 17 18 15 37 23 40 19 4 -3 10 -2 14 4 10 15 99 74 111 74 6 0 11 5
11 10 0 6 7 10 15 10 8 0 15 5 15 10 0 6 9 10 20 10 11 0 20 5 20 10 0 6 5 10
11 10 6 0 17 7 26 15 8 8 19 12 25 9 7 -4 8 -2 4 4 -4 7 -1 12 9 12 10 0 13 5
9 12 -4 6 -3 8 4 4 6 -3 17 0 24 8 8 8 23 16 34 18 20 4 33 38 14 38 -7 0 -10
-6 -7 -14 4 -9 0 -12 -13 -9 -10 3 -41 -7 -69 -21 -28 -14 -51 -22 -51 -18 0
4 -4 1 -9 -6 -4 -7 -15 -14 -23 -16 -8 -1 -28 -10 -44 -21 -16 -11 -35 -18
-41 -17 -7 2 -13 -2 -13 -8 0 -5 -7 -10 -15 -10 -8 0 -15 -5 -15 -11 0 -5 -4
-8 -9 -5 -5 3 -14 -1 -21 -9 -7 -8 -20 -15 -30 -15 -9 0 -25 -9 -35 -20 -9
-10 -20 -19 -24 -18 -8 1 -85 -33 -91 -41 -3 -3 -24 -16 -47 -27 -48 -25 -65
-11 -32 24 10 12 19 27 19 35 0 7 5 18 12 25 7 7 9 12 4 12 -4 0 0 10 8 22 9
12 16 33 16 45 0 13 5 23 11 23 5 0 8 4 4 9 -3 5 -1 12 5 16 5 3 8 19 6 35 -2
16 1 27 5 24 5 -3 9 18 9 45 0 28 4 51 8 51 10 0 9 200 0 216 -4 6 -8 27 -10
47 -1 21 -5 37 -9 37 -3 0 -5 10 -5 23 1 12 -2 28 -8 36 -10 12 -16 32 -18 58
-1 7 -5 10 -9 8 -6 -4 -16 21 -25 62 -1 6 -11 22 -23 34 -11 12 -18 26 -15 30
2 4 0 11 -6 14 -6 4 -23 25 -37 48 -14 23 -43 59 -64 80 -21 21 -41 47 -44 58
-4 11 -10 17 -14 15 -4 -3 -7 4 -8 14 -2 17 1 17 27 6 16 -7 41 -22 54 -33 13
-12 26 -19 29 -17 5 5 97 -56 167 -112 83 -66 143 -119 272 -240 26 -24 52
-44 59 -44 7 0 10 -3 6 -6 -8 -8 16 -33 26 -27 4 2 7 -1 7 -8 0 -10 97 -117
144 -158 10 -9 33 -32 50 -50 17 -19 42 -45 54 -57 15 -14 21 -28 16 -36 -6
-11 -4 -11 7 0 11 10 9 17 -14 38 -15 14 -24 30 -21 36 4 7 2 8 -4 4 -7 -4
-12 -1 -12 9 0 9 -4 13 -10 10 -5 -3 -10 -1 -10 5 0 6 -4 16 -10 23 -18 23
-105 121 -127 145 -13 12 -23 26 -23 29 0 3 -15 21 -32 38 -18 18 -40 41 -49
51 -13 16 -106 104 -256 244 -17 17 -36 30 -42 30 -5 0 -16 8 -23 18 -7 10
-29 29 -48 42 -19 13 -37 27 -40 30 -6 6 -43 27 -85 49 -30 15 -45 20 -77 25
-10 1 -21 5 -24 9 -4 4 -20 7 -36 7 -16 0 -27 4 -24 8 3 5 -5 8 -17 7 -12 -1
-29 1 -38 6 -9 5 -18 7 -20 5z"/>
<path d="M1429 1035 c-6 -53 -6 -86 0 -90 5 -2 6 -17 4 -32 -3 -16 -6 -54 -6
-85 -1 -32 -2 -58 -3 -58 -1 0 -11 9 -24 20 -12 11 -27 17 -33 13 -6 -3 -7 -1
-3 5 4 7 2 12 -4 12 -6 0 -8 5 -5 10 6 9 -8 14 -27 11 -5 0 -8 2 -8 7 0 4 -18
18 -40 32 -22 14 -40 28 -40 33 0 4 -4 6 -9 2 -5 -3 -22 6 -36 21 l-26 26 -24
-22 -24 -23 22 -23 c12 -13 29 -24 38 -24 8 0 26 -11 39 -25 13 -14 30 -25 37
-25 8 0 11 -5 7 -12 -4 -7 -3 -8 5 -4 6 4 25 -4 42 -18 17 -14 36 -26 43 -26
7 0 20 -8 30 -18 16 -18 14 -19 -50 -21 -46 -1 -70 2 -75 11 -7 10 -9 10 -9 1
0 -9 -23 -13 -80 -13 -66 0 -81 -3 -89 -18 -9 -16 9 -59 20 -47 3 2 44 6 92 8
48 2 90 6 93 10 4 3 15 2 25 -3 11 -6 20 -6 24 -1 7 12 45 10 45 -2 0 -5 -7
-7 -14 -4 -10 4 -13 1 -9 -9 5 -13 -8 -19 -30 -15 -5 1 -6 -3 -2 -9 3 -5 0
-10 -8 -10 -7 0 -26 -13 -41 -29 -16 -16 -41 -35 -57 -41 -16 -7 -29 -16 -29
-21 0 -5 -7 -9 -15 -9 -8 0 -15 -5 -15 -11 0 -5 -4 -7 -10 -4 -14 9 -12 -27 3
-47 12 -15 16 -14 43 10 16 15 36 28 44 30 8 2 27 17 42 33 16 16 34 30 40 32
7 1 18 7 24 12 60 52 74 55 81 19 6 -26 5 -35 -2 -67 -4 -22 -3 -27 7 -21 10
6 10 5 1 -7 -7 -9 -8 -20 -3 -29 5 -8 5 -21 0 -30 -6 -11 -5 -21 2 -28 8 -8 8
-12 2 -12 -15 0 -11 -35 7 -56 12 -16 12 -17 -2 -12 -9 4 -16 1 -16 -7 0 -8 7
-11 16 -7 14 5 14 3 -1 -14 -16 -19 -16 -20 1 -20 13 0 17 9 18 41 2 67 12
218 16 247 2 14 1 32 -4 39 -4 8 -3 19 3 26 7 9 7 13 -1 13 -7 0 -9 5 -6 10 9
15 19 12 42 -9 12 -11 24 -17 27 -14 3 4 6 1 6 -6 0 -7 4 -9 10 -6 5 3 19 -6
32 -20 12 -14 28 -25 35 -25 8 0 11 -5 7 -12 -4 -6 -3 -8 4 -4 5 3 24 -5 40
-19 16 -14 33 -25 37 -25 4 0 16 -10 26 -22 11 -11 19 -18 19 -13 0 4 7 2 15
-5 13 -10 18 -11 28 -1 9 10 8 11 -7 5 -13 -5 -17 -4 -12 4 4 7 -3 16 -18 23
-14 7 -23 17 -19 23 3 6 3 8 -2 4 -4 -4 -13 -2 -20 5 -51 49 -87 77 -100 77
-9 0 -13 5 -10 10 3 6 1 10 -5 10 -13 0 -45 29 -39 35 3 2 75 5 162 6 86 2
163 7 170 11 7 5 -2 6 -21 3 -22 -4 -31 -2 -27 5 9 15 -3 30 -20 24 -8 -4 -12
-11 -9 -16 4 -6 10 -5 15 3 6 10 9 10 9 2 0 -22 -23 -26 -37 -8 -7 11 -13 14
-13 8 0 -6 -7 -13 -14 -16 -10 -4 -13 -1 -10 7 3 9 -3 13 -18 13 -153 1 -208
5 -208 12 0 5 10 13 22 17 12 3 48 32 80 63 32 31 60 54 61 51 2 -4 27 15 73
57 21 20 22 22 4 20 -10 -1 -17 -3 -15 -6 3 -2 -5 -9 -18 -16 -70 -37 -103
-59 -115 -76 -7 -11 -19 -19 -27 -19 -8 0 -26 -11 -41 -25 -14 -13 -31 -22
-37 -18 -5 3 -8 2 -5 -3 3 -5 -3 -17 -12 -27 -14 -14 -20 -15 -26 -6 -11 19
-5 222 8 230 7 4 6 8 -3 12 -10 4 -11 8 -3 14 7 5 4 14 -7 25 -13 12 -19 13
-23 5 -3 -9 -8 -8 -15 3 -6 8 -11 11 -12 5z"/>
<path d="M2673 529 c-2 -23 3 -25 10 -4 4 8 3 16 -1 19 -4 3 -9 -4 -9 -15z"/>
</g>
</svg>
