<?xml version="1.0" standalone="no"?>
<!DOCTYPE svg PUBLIC "-//W3C//DTD SVG 20010904//EN"
 "http://www.w3.org/TR/2001/REC-SVG-20010904/DTD/svg10.dtd">
<svg version="1.0" xmlns="http://www.w3.org/2000/svg"
 width="236.000000pt" height="188.000000pt" viewBox="0 0 236.000000 188.000000"
 preserveAspectRatio="xMidYMid meet">
<metadata>
Created by potrace 1.16, written by Peter Selinger 2001-2019
</metadata>
<g transform="translate(0.000000,188.000000) scale(0.100000,-0.100000)"
fill="#000000" stroke="none">
<path d="M1358 1643 c6 -2 18 -2 25 0 6 3 1 5 -13 5 -14 0 -19 -2 -12 -5z"/>
<path d="M1511 1645 c1 -19 18 -51 18 -35 0 8 -4 22 -9 30 -5 8 -9 11 -9 5z"/>
<path d="M1147 1619 c-154 -23 -325 -63 -386 -92 -82 -39 -222 -199 -236 -272
-5 -25 -1 -36 25 -62 49 -50 101 -62 251 -60 120 2 151 -3 115 -16 -11 -5 7
-42 75 -154 50 -81 108 -174 130 -206 21 -32 39 -62 39 -67 0 -5 4 -10 8 -12
4 -1 43 -57 87 -123 43 -66 83 -124 88 -130 27 -29 -91 179 -290 509 -62 104
-113 192 -113 197 0 4 25 13 55 19 30 6 55 13 55 15 0 3 -55 4 -122 4 -208 1
-307 20 -353 71 -18 20 -18 22 0 53 38 65 109 149 154 182 51 38 63 42 55 20
-6 -14 35 -63 165 -195 39 -40 55 -52 40 -31 -21 32 -126 160 -169 207 -11 12
-20 26 -20 32 0 19 201 70 425 107 55 10 102 19 104 21 8 7 -53 2 -182 -17z"/>
<path d="M1430 1495 c-14 -8 -20 -14 -15 -14 6 0 21 6 35 14 14 8 21 14 15 14
-5 0 -21 -6 -35 -14z"/>
<path d="M1586 1492 c-3 -5 11 -34 32 -63 140 -201 133 -188 114 -198 -10 -5
-76 -53 -146 -105 -104 -78 -132 -95 -152 -90 -33 8 -31 -13 4 -62 15 -21 59
-84 97 -139 37 -55 92 -129 122 -163 29 -35 51 -67 48 -72 -3 -4 -24 -18 -47
-30 -54 -28 -152 -92 -156 -102 -2 -5 -9 -8 -17 -8 -17 0 -38 -27 -30 -40 6
-10 146 82 223 148 l43 37 -61 95 c-34 52 -88 136 -121 185 -80 121 -78 115
-40 144 18 15 82 65 142 114 60 48 111 87 114 87 2 0 18 -20 36 -45 53 -74 44
-43 -15 52 -170 271 -175 278 -190 255z"/>
<path d="M1335 1458 c-56 -24 -135 -75 -135 -87 0 -4 -9 -17 -20 -29 -12 -12
-18 -22 -15 -22 3 0 -2 -11 -10 -24 -61 -93 166 -122 429 -55 67 18 33 19
-107 4 -75 -7 -159 -12 -188 -10 -54 5 -119 37 -119 60 0 7 15 33 33 57 24 32
54 54 117 85 90 45 99 57 15 21z"/>
</g>
</svg>
