<?xml version="1.0" standalone="no"?>
<!DOCTYPE svg PUBLIC "-//W3C//DTD SVG 20010904//EN"
 "http://www.w3.org/TR/2001/REC-SVG-20010904/DTD/svg10.dtd">
<svg version="1.0" xmlns="http://www.w3.org/2000/svg"
 width="166.000000pt" height="118.000000pt" viewBox="0 0 166.000000 118.000000"
 preserveAspectRatio="xMidYMid meet">
<metadata>
Created by potrace 1.16, written by Peter Selinger 2001-2019
</metadata>
<g transform="translate(0.000000,118.000000) scale(0.100000,-0.100000)"
fill="#000000" stroke="none">
<path d="M604 938 c-7 -10 -7 -336 -1 -433 l2 -30 -65 1 c-36 1 -115 3 -175 5
-101 2 -142 -4 -145 -23 0 -4 -3 -15 -6 -23 -4 -8 -4 -71 -2 -141 3 -95 7
-128 18 -135 17 -11 588 -4 1128 14 45 2 87 8 93 14 8 8 11 129 13 385 l1 373
-427 3 c-326 2 -428 -1 -434 -10z m827 -343 c1 -184 2 -347 3 -362 l1 -28
-165 0 c-91 0 -168 1 -172 3 -4 2 4 26 19 55 15 29 28 54 28 57 1 3 9 30 19
61 17 58 23 89 33 173 4 35 3 47 -6 42 -6 -4 -11 -1 -11 6 0 19 -79 126 -145
197 -61 64 -90 73 -123 37 -32 -34 -141 -199 -137 -206 3 -4 -4 -16 -14 -27
-25 -26 -19 -94 13 -168 9 -19 23 -52 32 -72 10 -21 20 -40 24 -43 5 -3 24
-29 43 -58 l36 -52 -332 2 -332 3 4 65 c2 36 4 85 5 110 l1 45 75 1 c95 2 293
15 303 21 4 2 4 9 1 15 -10 16 1 425 12 437 2 2 144 5 314 6 171 1 312 4 314
6 3 2 39 5 80 6 l76 3 1 -335z m-440 192 c42 -35 110 -118 104 -127 -3 -4 -52
-6 -109 -5 -82 3 -106 0 -110 -10 -9 -24 11 -27 132 -20 109 6 119 5 135 -13
20 -22 22 -37 14 -97 -11 -80 -51 -216 -74 -251 -7 -11 -11 -23 -8 -26 10 -10
-24 -29 -52 -30 -71 -1 -104 3 -98 12 3 6 -2 22 -12 38 -25 36 -93 167 -98
190 -3 9 -11 42 -18 72 -15 60 -14 66 36 131 15 20 27 42 27 48 0 14 17 14 26
0 4 -7 27 -9 63 -5 31 3 65 5 76 5 12 1 16 4 9 11 -5 5 -42 10 -83 12 l-73 3
33 42 c19 23 39 42 44 42 6 0 22 -10 36 -22z"/>
<path d="M880 570 c0 -18 5 -20 48 -16 26 3 83 5 127 5 63 1 76 4 67 13 -8 8
-53 14 -127 15 -109 3 -115 2 -115 -17z"/>
<path d="M879 504 c-17 -21 7 -25 116 -23 102 2 147 12 115 23 -32 12 -221 12
-231 0z"/>
<path d="M885 450 c-15 -24 11 -30 121 -27 108 2 129 7 102 23 -18 12 -216 15
-223 4z"/>
<path d="M930 365 c0 -19 19 -23 75 -18 28 3 59 5 69 6 11 1 21 7 23 13 2 7
-24 11 -82 11 -61 0 -85 -4 -85 -12z"/>
</g>
</svg>
