<?xml version="1.0" standalone="no"?>
<!DOCTYPE svg PUBLIC "-//W3C//DTD SVG 20010904//EN"
 "http://www.w3.org/TR/2001/REC-SVG-20010904/DTD/svg10.dtd">
<svg version="1.0" xmlns="http://www.w3.org/2000/svg"
 width="126.000000pt" height="116.000000pt" viewBox="0 0 126.000000 116.000000"
 preserveAspectRatio="xMidYMid meet">
<metadata>
Created by potrace 1.16, written by Peter Selinger 2001-2019
</metadata>
<g transform="translate(0.000000,116.000000) scale(0.100000,-0.100000)"
fill="#000000" stroke="none">
<path d="M0 1128 l0 -31 358 6 c196 4 480 7 630 7 l272 0 0 25 0 25 -630 0
-630 0 0 -32z"/>
<path d="M477 1030 c-117 -59 -219 -150 -346 -305 -64 -79 -66 -116 -8 -190 4
-5 41 -56 82 -112 41 -57 79 -103 85 -103 19 0 10 32 -20 70 -16 21 -30 42
-30 48 0 13 36 22 96 22 28 0 73 4 100 9 27 5 72 11 99 12 l50 3 9 -64 c6 -44
5 -70 -3 -82 -17 -27 -13 -52 10 -66 15 -10 24 -11 32 -3 6 6 24 11 40 11 16
0 55 6 86 14 31 8 108 16 171 18 l115 3 5 -40 c3 -27 10 -40 20 -40 11 0 14
10 12 41 -2 39 0 42 29 48 37 7 34 30 -5 34 -24 3 -27 7 -24 35 2 27 8 33 33
37 38 7 40 34 3 38 l-28 3 0 152 c0 84 5 191 12 237 6 47 12 101 12 120 l1 35
-240 1 c-192 0 -244 -3 -262 -14 -22 -13 -23 -13 -23 10 0 28 -17 48 -39 48
-9 -1 -42 -14 -74 -30z m563 -106 l0 -57 -137 7 c-212 10 -273 17 -273 31 0
26 38 43 125 55 49 6 92 13 94 16 2 2 46 4 98 4 l93 0 0 -56z m-517 -29 c7
-75 2 -95 -24 -95 -29 0 -25 -44 5 -58 18 -8 25 -21 30 -56 9 -56 23 -59 31
-8 11 65 13 59 14 -44 l1 -101 -137 -12 c-76 -7 -162 -11 -192 -8 -62 5 -79
21 -106 101 l-16 47 50 58 c28 32 70 76 93 97 l43 39 5 -127 c3 -69 8 -129 12
-133 18 -18 26 14 32 127 9 159 19 196 53 204 15 4 38 13 52 20 43 23 48 18
54 -51z m522 -241 c6 -143 4 -178 -7 -185 -7 -5 -91 -7 -187 -6 -158 2 -175 0
-185 -16 -9 -14 -7 -21 5 -30 17 -13 38 -12 282 9 l87 7 0 -36 c0 -45 -1 -45
-230 -49 l-175 -3 -3 70 -3 71 123 12 c68 7 139 12 158 12 48 0 68 13 51 34
-8 10 -12 47 -10 119 1 57 0 108 -3 113 -4 5 -75 10 -159 12 -84 2 -157 6
-161 8 -22 14 -2 21 58 22 37 1 69 4 72 7 3 3 67 5 142 5 l137 0 8 -176z
m-141 26 c5 -36 9 -81 10 -100 l1 -35 -80 -6 c-44 -3 -109 -5 -145 -5 l-65 1
3 95 c1 52 4 101 7 108 3 9 36 12 132 10 l128 -3 9 -65z"/>
<path d="M0 554 l0 -87 30 41 c38 52 38 72 0 105 l-30 27 0 -86z"/>
<path d="M965 199 c-137 -3 -411 -7 -607 -8 -351 -1 -358 -1 -358 -21 0 -20 5
-20 513 -14 556 7 534 9 427 -45 -25 -13 -73 -42 -108 -65 l-64 -41 36 -3 c28
-3 56 8 133 52 109 62 133 68 133 32 0 -13 3 -38 6 -55 6 -29 10 -32 38 -29
29 3 31 6 36 53 3 28 2 63 -2 78 l-7 29 59 -4 c59 -3 60 -3 60 23 0 22 -4 27
-22 25 -13 0 -135 -4 -273 -7z"/>
<path d="M192 83 c-12 -10 -40 -31 -63 -48 l-41 -30 33 -3 c17 -2 35 0 38 5 3
5 23 22 44 37 37 28 49 56 24 56 -8 0 -23 -8 -35 -17z"/>
<path d="M266 28 c-16 -22 -16 -23 5 -26 32 -5 52 35 22 45 -6 2 -18 -6 -27
-19z"/>
</g>
</svg>
