<?xml version="1.0" standalone="no"?>
<!DOCTYPE svg PUBLIC "-//W3C//DTD SVG 20010904//EN"
 "http://www.w3.org/TR/2001/REC-SVG-20010904/DTD/svg10.dtd">
<svg version="1.0" xmlns="http://www.w3.org/2000/svg"
 width="469.000000pt" height="316.000000pt" viewBox="0 0 469.000000 316.000000"
 preserveAspectRatio="xMidYMid meet">
<metadata>
Created by potrace 1.16, written by Peter Selinger 2001-2019
</metadata>
<g transform="translate(0.000000,316.000000) scale(0.100000,-0.100000)"
fill="#000000" stroke="none">
<path d="M2688 3083 c-6 -7 -13 -11 -15 -9 -3 2 -26 -6 -51 -19 -26 -13 -50
-21 -54 -19 -4 3 -8 1 -8 -4 0 -11 -56 -32 -90 -34 -8 -1 -17 -4 -20 -7 -8
-10 -113 -56 -122 -53 -4 1 -8 -1 -8 -6 0 -4 -15 -13 -32 -20 -18 -8 -54 -24
-80 -38 -27 -13 -48 -21 -48 -18 0 3 -12 -4 -26 -15 -15 -12 -32 -21 -39 -21
-7 0 -18 -7 -25 -15 -7 -9 -15 -13 -18 -11 -3 3 -17 -3 -32 -14 -15 -11 -30
-17 -34 -13 -3 3 -6 0 -6 -7 0 -7 -3 -11 -6 -7 -4 3 -13 -1 -21 -9 -8 -8 -19
-11 -25 -8 -6 4 -8 2 -4 -4 3 -6 -13 -20 -39 -33 -25 -12 -45 -27 -45 -31 0
-5 -4 -7 -8 -4 -4 2 -36 -22 -72 -54 -35 -33 -67 -57 -72 -54 -4 3 -8 -4 -8
-15 0 -18 -12 -27 -23 -18 -6 4 -37 -31 -37 -42 0 -5 -9 -13 -21 -16 -11 -4
-18 -13 -15 -20 7 -20 -45 -62 -89 -70 -22 -5 -47 -10 -55 -12 -8 -1 -34 -4
-57 -5 -24 -2 -43 -6 -43 -10 0 -5 -9 -8 -21 -8 -11 0 -28 -4 -38 -10 -10 -5
-37 -11 -60 -12 -22 -2 -41 -6 -41 -9 0 -12 -52 -17 -56 -5 -2 6 -6 40 -8 74
-1 34 -6 65 -9 69 -4 3 -7 28 -7 53 0 57 -17 76 -57 65 -16 -5 -32 -9 -38 -10
-48 -11 -95 -27 -99 -33 -2 -4 0 -28 5 -52 30 -152 35 -189 27 -205 -7 -11 -5
-22 6 -34 9 -10 16 -36 16 -62 0 -24 5 -64 11 -89 13 -58 21 -107 23 -149 1
-26 -3 -35 -19 -38 -30 -6 -85 -13 -130 -17 -22 -2 -51 -6 -65 -9 -14 -4 -45
-8 -70 -11 -25 -2 -56 -7 -70 -10 -14 -3 -42 -8 -64 -11 -21 -3 -43 -8 -48
-11 -6 -4 -29 -7 -51 -8 -23 -1 -46 -4 -52 -7 -5 -4 -32 -10 -58 -13 -27 -4
-59 -10 -70 -12 -12 -3 -39 -7 -59 -9 -46 -4 -59 -12 -56 -33 5 -26 30 -42 50
-31 10 5 18 8 18 5 0 -2 24 1 53 8 30 7 63 12 75 11 12 -1 22 1 22 5 0 4 6 7
13 7 32 1 142 21 167 30 16 6 66 15 90 15 8 1 18 6 22 12 5 7 8 6 8 -4 0 -11
2 -12 8 -3 7 11 71 28 142 38 8 1 28 7 44 14 16 6 31 9 34 7 2 -3 17 1 32 9
23 12 30 12 39 1 6 -7 8 -16 5 -19 -3 -3 -2 -11 2 -18 13 -22 14 -67 1 -72 -6
-2 -29 -3 -49 -2 -21 2 -38 0 -38 -4 0 -4 -12 -8 -27 -8 -48 -1 -143 -12 -152
-17 -4 -3 -27 -6 -52 -7 -24 -1 -48 -5 -54 -9 -5 -4 -17 -7 -25 -8 -27 0 -102
-12 -110 -17 -4 -3 -28 -6 -54 -6 -25 -1 -46 -5 -46 -9 0 -3 -15 -7 -32 -8
-35 -3 -73 -9 -73 -13 0 -3 -48 -10 -90 -12 -55 -3 -80 -26 -64 -60 11 -24 23
-28 45 -15 6 4 24 9 40 12 91 16 112 19 139 20 17 1 32 4 35 8 3 3 19 8 35 11
17 2 37 7 45 10 17 7 132 29 170 32 14 1 38 7 53 14 16 6 37 11 47 11 10 0 22
5 25 10 4 6 9 8 13 6 7 -4 46 3 112 18 14 3 40 8 59 11 19 2 38 10 42 17 12
18 36 -45 35 -91 -1 -29 -5 -36 -21 -36 -11 0 -26 -4 -34 -9 -9 -6 -12 -5 -8
0 3 5 -3 10 -13 10 -10 0 -16 -4 -14 -8 3 -4 -18 -8 -45 -8 -34 0 -51 -4 -51
-12 0 -9 -4 -8 -10 2 -5 8 -10 10 -10 4 0 -10 -34 -14 -127 -18 -18 0 -33 -3
-33 -6 0 -5 -111 -25 -195 -36 -11 -1 -20 -3 -20 -4 0 -3 -41 -10 -83 -13 -23
-2 -45 -7 -49 -10 -3 -4 -19 -7 -35 -7 -16 0 -44 -7 -64 -15 -19 -8 -37 -14
-39 -15 -7 0 -7 -11 -1 -33 3 -13 13 -17 38 -15 18 1 39 6 46 11 7 6 15 7 18
4 3 -3 16 -2 28 2 12 5 43 12 70 15 27 4 76 13 110 21 34 7 75 16 91 18 35 6
205 43 254 57 19 5 37 7 41 5 4 -2 31 4 60 15 30 11 56 18 58 15 3 -2 13 0 23
6 19 10 23 2 22 -38 -1 -7 3 -13 8 -13 5 0 9 -21 9 -46 0 -25 4 -53 10 -63 17
-32 -18 -51 -98 -54 -38 -1 -68 -5 -66 -9 3 -5 -15 -8 -39 -8 -24 0 -47 -3
-50 -7 -4 -3 -24 -7 -44 -9 -50 -4 -90 -11 -135 -22 -20 -5 -39 -7 -42 -5 -2
3 -10 2 -17 -3 -7 -4 -33 -9 -58 -11 -25 -2 -47 -7 -50 -11 -4 -4 -24 -8 -47
-10 -22 -2 -51 -5 -65 -8 -13 -2 -41 -7 -62 -10 -29 -5 -39 -12 -43 -31 -4
-16 -2 -28 7 -33 14 -9 62 -6 80 5 6 4 25 8 42 10 18 1 50 7 72 13 22 6 63 14
90 18 80 10 89 12 116 22 24 9 65 18 134 28 11 1 21 3 23 4 1 2 7 4 12 5 6 1
11 4 13 5 1 1 15 4 31 6 16 2 45 9 65 17 20 7 46 12 58 12 12 -1 20 2 17 7 -4
5 10 8 32 6 33 -3 38 -6 39 -28 0 -14 3 -30 7 -35 4 -6 8 -37 10 -69 2 -32 6
-60 10 -63 14 -8 9 -53 -6 -59 -8 -3 -32 -7 -53 -9 -21 -1 -38 -4 -38 -5 0 -2
-37 -7 -110 -15 -98 -11 -135 -17 -135 -24 0 -3 -19 -7 -43 -9 -23 -2 -53 -5
-67 -7 -73 -11 -106 -17 -120 -22 -24 -9 -72 -16 -107 -16 -18 0 -33 -3 -33
-6 0 -4 -14 -8 -31 -9 -43 -3 -48 -8 -46 -40 2 -25 6 -27 42 -25 22 1 58 6 80
12 22 7 53 14 69 16 15 2 37 7 49 11 11 4 34 8 51 10 50 5 78 10 136 24 30 8
59 13 64 12 4 -2 13 2 20 7 6 5 24 8 39 7 15 -2 27 0 27 4 0 4 20 11 45 14 25
4 45 11 45 15 0 4 12 8 28 9 31 1 59 7 84 17 21 8 38 -21 42 -73 2 -20 6 -44
9 -52 3 -8 8 -33 11 -55 5 -42 12 -83 22 -125 3 -14 8 -38 11 -55 9 -64 40
-192 65 -275 11 -36 20 -75 20 -87 0 -13 3 -23 7 -23 4 0 8 -12 9 -28 1 -15
11 -52 23 -82 12 -30 21 -66 22 -80 0 -14 8 -33 18 -43 16 -18 17 -13 13 90
-6 147 -11 228 -13 228 -1 0 -4 20 -6 45 -5 62 -13 143 -22 215 -3 33 -7 81
-7 108 -1 26 -3 47 -6 47 -3 0 -6 19 -7 43 -6 107 -12 168 -18 176 -3 6 -8 36
-11 68 -4 32 -11 66 -16 77 -8 14 -7 17 3 11 8 -6 10 -4 4 6 -5 7 -10 20 -11
29 0 8 -4 43 -8 78 -5 52 -4 62 9 62 8 0 23 4 33 9 75 38 143 70 145 68 3 -2
105 46 161 75 40 21 56 18 73 -15 20 -40 119 -137 139 -137 8 0 13 -4 10 -8
-2 -4 7 -9 21 -10 52 -4 72 -42 23 -42 -17 0 -51 -10 -76 -21 -25 -12 -60 -22
-79 -23 -18 0 -31 -4 -29 -7 2 -3 -21 -12 -51 -19 -30 -7 -55 -17 -55 -22 0
-4 -11 -8 -23 -8 -13 0 -27 -3 -31 -7 -3 -4 -13 -8 -21 -10 -8 -2 -22 -4 -30
-6 -8 -2 -18 -6 -21 -10 -4 -4 -19 -7 -34 -7 -33 0 -92 -28 -85 -40 3 -5 1
-12 -5 -15 -8 -5 -8 -11 1 -21 9 -11 16 -11 45 1 19 8 34 12 34 10 0 -4 35 7
95 31 11 4 25 8 30 9 6 1 28 9 49 19 22 9 51 19 65 23 14 3 31 9 36 13 12 9
87 30 96 27 3 -1 12 3 20 9 8 6 33 16 57 24 23 7 42 16 42 20 0 13 54 19 68 8
6 -6 12 -19 12 -29 0 -16 4 -17 28 -8 15 6 27 10 27 9 0 -3 60 13 70 19 14 8
35 12 68 13 15 1 27 5 27 10 0 4 11 8 24 8 14 0 27 4 30 8 2 4 19 9 38 10 18
2 35 7 36 12 2 6 14 10 26 10 12 0 28 6 35 13 11 10 12 9 6 -3 -6 -12 -5 -13
6 -2 7 6 23 12 36 12 13 0 23 4 23 8 0 9 9 11 60 14 17 1 30 5 30 10 0 4 12 8
26 8 14 0 23 3 21 8 -3 4 7 8 21 9 28 1 47 6 72 16 8 4 26 8 40 11 24 4 42 9
77 23 23 8 35 11 53 16 8 2 41 11 72 20 31 9 68 18 82 19 14 1 26 6 26 10 0 4
16 8 35 8 19 0 35 5 35 11 0 5 4 8 8 5 5 -3 21 1 36 9 15 8 37 16 49 18 12 2
29 7 37 10 8 4 26 8 40 11 24 4 42 9 78 23 30 11 46 15 74 16 14 1 24 5 21 9
-2 5 5 9 16 9 24 2 30 3 51 12 8 4 24 8 35 10 11 1 25 5 30 8 6 4 24 10 40 14
17 5 36 10 43 12 6 1 18 4 25 6 6 1 17 6 24 10 6 4 23 8 37 9 14 1 26 5 26 9
0 3 6 6 13 6 20 1 42 8 47 15 3 4 20 8 37 10 17 1 30 5 27 9 -2 4 8 10 24 14
15 5 33 10 40 12 32 8 38 10 57 17 31 12 63 25 88 36 12 6 32 12 45 13 12 0
22 4 22 7 0 4 6 7 13 7 21 2 81 27 100 43 10 8 25 16 35 16 27 2 47 8 53 17 3
4 14 9 25 12 10 2 37 12 59 23 21 11 45 18 52 15 7 -3 13 -1 13 5 0 15 -22 21
-41 11 -8 -4 -27 -9 -42 -11 -14 -2 -29 -7 -33 -10 -3 -4 -12 -4 -19 -2 -7 3
-16 0 -20 -5 -3 -6 -10 -9 -14 -6 -5 2 -44 -7 -87 -21 -43 -14 -88 -26 -99
-28 -11 -1 -37 -10 -57 -19 -21 -9 -44 -17 -51 -17 -8 0 -17 -3 -21 -7 -4 -5
-17 -8 -29 -9 -12 -1 -29 -4 -37 -7 -37 -14 -127 -38 -150 -41 -14 -1 -30 -5
-35 -8 -10 -6 -91 -30 -110 -33 -5 -1 -17 -4 -25 -7 -8 -3 -42 -11 -75 -18
-33 -7 -77 -20 -98 -30 -20 -10 -35 -14 -31 -9 3 5 -4 5 -18 0 -13 -6 -57 -20
-98 -31 -41 -12 -87 -26 -101 -31 -14 -6 -39 -11 -55 -13 -16 -2 -29 -5 -29
-6 0 -1 -11 -3 -24 -6 -14 -2 -30 -9 -37 -15 -6 -5 -16 -9 -20 -8 -15 4 -104
-23 -110 -32 -3 -5 -11 -9 -17 -9 -7 0 -6 4 3 10 8 5 10 10 4 10 -5 0 -14 -4
-20 -9 -5 -6 -21 -12 -36 -15 -14 -2 -35 -9 -46 -15 -11 -6 -22 -7 -26 -4 -3
3 -6 2 -6 -3 0 -6 -16 -11 -35 -12 -19 -2 -52 -9 -75 -17 -22 -8 -40 -12 -40
-9 0 2 -8 0 -18 -5 -11 -6 -32 -13 -48 -16 -38 -8 -58 -13 -61 -15 -3 -3 -3
-3 -48 -15 -16 -4 -36 -12 -42 -18 -9 -6 -13 -6 -13 2 0 11 -1 11 -61 -20 -16
-8 -19 -8 -14 1 6 9 2 9 -11 2 -26 -14 -133 -44 -169 -47 -16 -2 -42 -8 -57
-14 -15 -5 -46 -8 -70 -5 -60 7 -175 43 -193 60 -8 8 -18 15 -22 16 -11 1 -43
29 -78 68 -16 18 -23 29 -15 25 14 -8 -15 32 -33 46 -5 3 -10 12 -11 20 -2 8
-10 32 -19 54 -16 37 -19 61 -7 59 3 -1 13 7 23 18 17 18 17 18 -5 14 -13 -2
-30 -6 -38 -8 -9 -1 -14 3 -12 11 1 7 -2 19 -8 26 -18 22 -22 65 -6 65 7 0 19
7 26 15 7 8 16 13 20 10 4 -2 16 2 26 10 16 13 17 14 2 9 -12 -4 -18 -1 -18 7
0 12 -2 12 -9 0 -5 -7 -24 -14 -43 -15 -33 -3 -35 -1 -33 28 2 17 3 34 4 37 0
3 12 5 26 4 14 -2 23 1 19 7 -3 5 0 9 7 7 26 -3 36 1 36 15 0 10 -8 12 -26 7
-56 -15 -89 0 -92 39 0 8 -2 23 -4 33 -2 11 7 23 26 32 16 9 29 20 29 26 0 6
8 8 18 4 13 -5 14 -3 5 6 -6 6 -17 8 -24 3 -20 -12 -48 -12 -58 0 -8 10 -12
62 -11 151 0 43 15 65 47 68 11 0 20 7 20 13 0 9 -6 10 -18 3 -29 -15 -32 8
-4 28 15 10 47 35 71 56 25 20 49 37 53 37 4 0 25 16 47 35 21 19 45 35 52 35
6 0 12 5 12 10 0 6 7 10 15 10 7 0 18 6 22 14 4 7 53 37 108 66 55 29 133 70
173 91 39 21 72 35 72 31 0 -4 4 -1 8 6 5 7 17 14 28 16 21 4 131 61 151 78
10 8 13 7 13 -3 0 -11 2 -12 9 -1 4 7 14 14 22 16 8 1 29 10 47 19 17 10 32
15 32 12 0 -3 11 2 25 11 14 9 25 12 25 8 0 -5 4 -3 8 4 5 7 22 16 38 21 27 8
29 6 31 -18 0 -14 4 -39 7 -55 4 -16 8 -34 9 -40 1 -6 6 -14 10 -17 5 -3 9
-26 10 -52 1 -25 5 -43 8 -41 4 2 9 -9 12 -24 3 -15 8 -38 12 -52 4 -14 7 -36
8 -50 1 -14 5 -27 9 -30 3 -3 8 -19 11 -35 8 -52 19 -95 26 -95 3 0 7 -13 8
-28 1 -15 9 -41 17 -57 8 -15 13 -32 10 -37 -3 -4 2 -17 10 -29 8 -12 12 -28
9 -35 -3 -8 -1 -14 4 -14 5 0 10 -12 11 -27 1 -16 5 -39 8 -53 4 -14 9 -42 11
-62 3 -21 9 -38 14 -38 6 0 9 -6 8 -12 -5 -39 2 -57 21 -55 11 1 20 5 20 9 0
4 7 8 15 8 8 0 15 5 15 10 0 6 7 10 15 10 9 0 35 9 57 20 23 11 48 20 55 20 7
0 13 4 13 9 0 5 16 15 35 21 19 6 35 16 35 22 0 6 3 9 6 5 3 -3 23 3 42 14 20
10 40 19 45 19 4 0 29 9 55 21 26 12 61 27 77 34 17 7 51 22 77 34 26 11 55
21 63 21 8 0 15 5 15 10 0 6 9 10 19 10 11 0 23 5 26 10 3 6 17 10 31 10 13 0
24 5 24 10 0 6 6 10 13 10 7 0 33 10 58 22 24 12 50 21 57 20 6 -2 12 2 12 8
0 5 6 10 13 10 8 0 27 6 43 14 16 8 47 22 69 32 22 10 46 24 53 31 8 7 17 11
22 8 5 -3 11 -1 15 5 3 5 14 10 24 10 10 0 26 9 36 20 10 11 22 17 27 14 5 -3
17 0 26 8 32 26 79 47 87 40 5 -4 5 -1 1 6 -4 7 -1 12 8 12 9 0 17 -1 19 -2 2
-2 12 5 21 15 10 10 31 21 47 24 16 3 26 9 23 14 -3 5 1 9 9 9 8 0 22 9 31 19
17 19 17 19 -6 14 -12 -2 -30 -7 -38 -11 -8 -3 -17 -6 -20 -7 -3 -1 -23 -9
-45 -19 -22 -10 -44 -19 -50 -20 -16 -5 -47 -17 -92 -37 -24 -10 -49 -19 -56
-19 -7 0 -17 -4 -22 -9 -6 -5 -28 -14 -50 -21 -22 -7 -43 -17 -46 -21 -3 -5
-17 -10 -32 -11 -15 -1 -27 -5 -27 -8 0 -7 -49 -28 -75 -32 -11 -2 -23 -6 -26
-11 -3 -4 -15 -9 -26 -11 -11 -3 -39 -14 -61 -25 -22 -11 -42 -18 -45 -15 -5
5 -70 -28 -94 -48 -7 -5 -17 -7 -23 -3 -5 3 -10 1 -10 -5 0 -6 -4 -8 -10 -5
-5 3 -21 -2 -35 -11 -14 -9 -25 -13 -25 -9 0 3 -7 -1 -16 -9 -8 -9 -19 -14
-24 -11 -5 3 -32 -8 -60 -25 -28 -17 -56 -28 -61 -25 -5 4 -9 1 -9 -4 0 -6 -3
-10 -7 -9 -14 4 -53 -13 -53 -23 0 -5 -8 -9 -17 -9 -10 0 -45 -14 -78 -30 -33
-17 -67 -30 -77 -30 -10 0 -18 -4 -18 -10 0 -5 -9 -10 -19 -10 -11 0 -23 -5
-26 -11 -4 -6 -13 -8 -20 -5 -7 2 -16 2 -19 -2 -12 -11 -36 -10 -37 1 -4 92
-16 170 -32 207 -5 14 -11 32 -13 40 -8 44 -16 75 -23 89 -5 9 -11 30 -14 46
-13 66 -18 91 -23 105 -7 19 -17 69 -18 92 0 9 -4 14 -8 12 -4 -3 -8 4 -8 16
0 12 -5 31 -11 42 -8 16 -8 19 1 13 9 -6 9 -3 2 12 -6 11 -13 30 -15 44 -2 13
-7 31 -11 40 -4 9 -8 32 -9 50 -1 19 -6 37 -12 41 -6 5 -4 12 6 20 22 18 31
46 16 55 -20 12 -47 10 -59 -4z m-1196 -766 c-5 -7 -9 -51 -8 -99 l1 -88 -29
-10 c-15 -5 -32 -7 -37 -4 -5 3 -9 1 -9 -5 0 -5 -8 -10 -17 -9 -25 0 -58 -9
-82 -22 -12 -6 -21 -8 -21 -5 0 3 -16 -1 -35 -9 -19 -8 -35 -12 -35 -9 0 3 -7
0 -15 -7 -12 -10 -15 -10 -15 1 0 11 -2 11 -10 -1 -11 -18 -22 -9 -26 22 -1
13 -7 51 -12 85 -11 78 -7 82 113 113 50 12 95 26 100 30 6 4 28 11 50 15 22
5 46 9 53 11 8 1 16 5 19 8 11 10 24 -6 15 -17z m10 -289 c2 -39 0 -48 -13
-48 -9 0 -22 -7 -29 -15 -7 -8 -16 -12 -21 -9 -5 3 -15 2 -21 -3 -24 -15 -107
-39 -127 -38 -12 1 -21 -2 -21 -7 0 -4 -13 -8 -30 -8 -16 0 -30 -4 -30 -8 0
-4 -8 -8 -18 -8 -11 0 -18 9 -19 26 0 14 -3 35 -6 47 -4 16 0 24 16 30 12 4
25 6 30 5 4 -1 7 2 7 7 0 5 11 9 23 9 13 0 39 7 58 16 19 8 43 17 54 19 11 2
31 9 44 16 17 9 21 10 16 1 -4 -7 4 -4 18 5 15 9 31 14 37 10 5 -3 10 -1 10 6
0 8 3 9 9 4 5 -6 11 -31 13 -57z m16 -134 c-2 -11 -10 -19 -18 -19 -8 0 -18
-3 -21 -8 -3 -4 -15 -9 -27 -12 -11 -2 -30 -9 -41 -15 -12 -6 -21 -7 -21 -3 0
4 -4 2 -8 -5 -5 -7 -22 -14 -39 -15 -17 -1 -29 -5 -26 -9 2 -5 -5 -8 -16 -8
-12 0 -21 -4 -21 -8 0 -5 -6 -9 -12 -10 -40 -5 -55 -9 -67 -17 -9 -5 -12 -4
-7 3 3 5 1 12 -6 14 -25 9 11 41 68 60 32 10 72 25 89 33 16 7 33 11 38 8 4
-2 14 1 22 7 8 6 18 10 22 7 4 -3 24 3 43 13 37 20 54 14 48 -16z m24 -71 c0
-10 1 -24 1 -30 -1 -7 3 -10 8 -7 5 3 9 -4 9 -15 0 -16 -37 -49 -47 -43 -4 2
-37 -9 -57 -19 -13 -8 -16 -7 -11 0 3 7 -15 2 -42 -10 -26 -12 -58 -26 -70
-30 -13 -5 -33 -13 -45 -19 -48 -21 -70 -17 -79 14 -5 16 -6 33 -3 37 4 7 103
48 129 53 6 1 30 12 55 23 25 11 61 26 80 33 19 7 39 17 45 22 15 13 25 9 27
-9z m48 -151 c10 -17 21 -28 25 -24 5 4 5 1 1 -6 -4 -7 -2 -20 5 -28 11 -13 9
-19 -10 -33 -21 -16 -107 -46 -123 -43 -5 1 -8 -3 -8 -9 0 -6 -9 -9 -20 -6
-11 3 -20 2 -20 -2 0 -9 -81 -47 -92 -44 -5 2 -8 -2 -8 -7 0 -5 -10 -10 -22
-10 -13 0 -32 -7 -42 -15 -14 -11 -23 -12 -33 -4 -7 6 -10 15 -7 21 3 5 2 14
-3 21 -5 7 -10 29 -12 49 -1 32 2 38 24 44 14 3 25 11 25 16 0 6 9 8 20 5 11
-3 20 -1 20 4 0 5 3 8 8 7 12 -3 56 14 63 24 4 6 18 11 32 11 14 1 23 5 20 10
-2 4 8 7 22 7 15 0 24 4 20 10 -3 6 3 10 14 10 11 0 23 5 26 10 4 6 10 8 15 5
5 -3 12 -1 15 5 10 17 27 7 45 -28z"/>
<path d="M2069 2703 c-19 -3 -28 -11 -32 -29 -2 -13 -1 -24 4 -24 6 0 21 -43
25 -75 0 -5 4 -17 7 -25 4 -8 8 -24 10 -35 2 -11 11 -37 21 -57 9 -21 16 -42
16 -48 0 -10 35 -120 47 -150 4 -8 7 -22 8 -30 3 -23 25 -88 41 -118 7 -14 11
-29 8 -33 -2 -4 5 -25 17 -46 12 -21 23 -49 24 -63 0 -14 9 -42 18 -64 9 -21
17 -44 17 -51 0 -7 6 -18 14 -24 7 -6 12 -22 11 -36 -4 -29 5 -37 25 -24 11 6
12 9 2 9 -7 0 -11 4 -7 9 3 5 -1 28 -9 50 -7 22 -10 38 -6 36 8 -5 -11 56 -20
65 -7 7 -10 26 -12 66 -1 18 -4 31 -7 29 -4 -2 -7 4 -8 13 -1 9 -3 24 -6 32
-2 8 -7 29 -12 45 -4 17 -10 35 -14 40 -3 6 -7 21 -9 35 -9 67 -24 120 -34
120 -6 0 -8 7 -5 15 4 8 2 17 -3 20 -5 3 -7 12 -4 19 3 8 1 17 -5 21 -6 3 -11
15 -11 25 0 10 -5 31 -12 47 -6 15 -12 33 -13 38 -1 6 -3 12 -4 15 -2 3 -4 14
-6 25 -7 40 -29 100 -40 107 -6 5 -5 8 3 8 10 0 9 4 -2 16 -9 8 -14 20 -11 25
4 5 5 8 3 8 -2 -1 -15 -4 -29 -6z"/>
<path d="M4445 2701 c-24 -5 -30 -11 -28 -31 2 -32 12 -81 20 -100 9 -23 14
-43 17 -70 1 -14 6 -31 10 -38 4 -7 5 -12 2 -12 -3 0 2 -22 12 -48 10 -26 18
-58 17 -70 -1 -12 1 -22 5 -22 3 0 6 -8 7 -17 1 -16 7 -42 17 -78 2 -5 6 -17
9 -25 3 -8 13 -42 21 -74 8 -33 19 -62 23 -65 4 -3 10 -15 11 -25 8 -42 28
-90 39 -93 9 -3 12 12 10 54 -1 32 -5 60 -9 63 -4 3 -10 28 -12 55 -3 28 -10
66 -16 85 -12 39 -23 105 -22 133 1 9 -3 17 -8 17 -4 0 -10 17 -13 38 -2 20
-8 48 -12 62 -4 14 -8 36 -10 50 -1 14 -5 32 -8 40 -4 8 -8 33 -11 55 -3 22
-9 55 -15 73 -5 18 -10 36 -10 39 1 10 -12 11 -46 4z"/>
<path d="M908 2264 c-4 -3 -30 -7 -60 -8 -29 -2 -60 -6 -68 -9 -14 -5 -35 -9
-140 -24 -19 -3 -53 -6 -75 -7 -22 0 -42 -4 -45 -8 -3 -4 -23 -9 -45 -12 -22
-2 -40 -5 -40 -7 0 -1 -9 -3 -20 -4 -11 -1 -49 -8 -85 -15 -36 -7 -81 -14
-100 -15 -19 -2 -36 -4 -37 -6 -9 -6 -107 -21 -114 -17 -4 2 -16 -5 -27 -16
-17 -15 -19 -21 -9 -37 10 -16 19 -18 52 -13 22 4 47 8 55 9 8 1 29 5 45 8 17
4 44 9 60 12 37 6 111 21 145 30 14 3 41 8 61 10 20 2 46 8 58 14 12 7 21 10
21 7 0 -2 28 3 63 11 34 8 77 17 96 19 19 3 42 9 52 15 11 5 19 8 19 5 0 -3
15 1 34 9 18 8 36 11 39 8 4 -3 14 0 24 8 13 11 15 11 9 1 -7 -11 -4 -12 11
-3 11 6 23 8 26 5 3 -4 5 3 4 15 -1 23 -1 23 -9 15z"/>
<path d="M895 2022 c-3 -3 -25 -6 -50 -7 -24 0 -48 -4 -51 -8 -4 -4 -28 -7
-54 -7 -26 0 -50 -3 -54 -7 -6 -7 -56 -13 -128 -17 -16 0 -28 -4 -28 -7 0 -4
-7 -10 -16 -13 -10 -4 -13 -2 -8 7 6 8 3 8 -9 -1 -9 -8 -21 -11 -27 -7 -5 3
-10 2 -10 -3 0 -5 -26 -13 -57 -17 -32 -4 -66 -9 -78 -12 -11 -2 -31 -5 -45
-6 -14 -1 -29 -5 -35 -9 -5 -3 -28 -7 -50 -9 -59 -4 -77 -16 -73 -47 3 -24 7
-27 33 -23 17 2 41 5 55 6 14 1 32 5 40 8 8 4 29 9 45 11 17 2 53 9 80 16 51
12 94 20 130 22 11 1 25 5 30 9 6 4 24 10 40 13 17 3 41 9 55 12 14 3 36 7 50
8 14 1 31 6 38 10 7 4 12 2 13 -6 0 -7 4 -4 8 6 4 12 20 21 37 23 16 3 38 12
48 21 11 9 17 12 13 6 -7 -12 21 -12 41 0 6 4 16 5 21 2 5 -3 14 1 21 9 7 8
17 12 24 8 6 -3 8 -2 3 2 -8 10 -44 14 -52 7z"/>
</g>
</svg>
