<?xml version="1.0" standalone="no"?>
<!DOCTYPE svg PUBLIC "-//W3C//DTD SVG 20010904//EN"
 "http://www.w3.org/TR/2001/REC-SVG-20010904/DTD/svg10.dtd">
<svg version="1.0" xmlns="http://www.w3.org/2000/svg"
 width="320.000000pt" height="266.000000pt" viewBox="0 0 320.000000 266.000000"
 preserveAspectRatio="xMidYMid meet">
<metadata>
Created by potrace 1.16, written by Peter Selinger 2001-2019
</metadata>
<g transform="translate(0.000000,266.000000) scale(0.100000,-0.100000)"
fill="#000000" stroke="none">
<path d="M0 2640 c0 -23 15 -26 27 -6 4 8 19 16 33 19 16 3 10 5 -17 6 -37 1
-43 -2 -43 -19z"/>
<path d="M118 2648 c17 -8 26 -8 34 0 9 9 4 12 -22 11 -33 0 -34 -1 -12 -11z"/>
<path d="M278 2653 c6 -2 18 -2 25 0 6 3 1 5 -13 5 -14 0 -19 -2 -12 -5z"/>
<path d="M400 2640 c6 -11 19 -20 29 -20 10 0 26 9 36 20 18 20 17 20 -29 20
-44 0 -46 -1 -36 -20z"/>
<path d="M509 2646 c9 -11 20 -12 43 -5 48 13 46 19 -7 19 -40 0 -46 -2 -36
-14z"/>
<path d="M735 2650 c-3 -5 -16 -10 -28 -10 -37 0 -107 -34 -107 -51 0 -42 72
-50 83 -9 3 11 11 20 17 20 14 0 7 -55 -9 -74 -10 -11 -145 -11 -214 0 -52 9
-95 -11 -99 -44 -3 -24 -8 -27 -38 -27 -27 0 -37 5 -45 23 -10 23 -29 29 -40
12 -3 -5 -1 -19 6 -31 9 -18 8 -24 -5 -31 -9 -5 -16 -18 -16 -28 0 -32 -15
-30 -43 6 -16 19 -37 34 -47 34 -24 0 -25 8 -4 38 8 12 26 22 40 22 26 0 33
24 9 34 -17 6 -9 36 10 36 13 0 25 22 25 43 0 7 -7 4 -15 -7 -11 -14 -23 -17
-52 -13 -54 7 -150 -22 -157 -48 -3 -11 -6 -129 -6 -261 l0 -242 60 -4 c33 -2
62 -7 65 -10 4 -3 0 -16 -7 -27 -11 -18 -11 -23 2 -32 13 -8 12 -12 -9 -29
-13 -11 -29 -20 -36 -20 -15 0 -25 -22 -25 -56 0 -17 -8 -27 -24 -34 l-25 -9
-1 -640 0 -641 22 3 c19 2 24 -3 26 -30 3 -30 1 -33 -22 -33 l-26 0 0 -164 0
-164 35 -12 c44 -15 51 -26 29 -51 -17 -18 -16 -19 11 -19 16 0 56 11 90 25
35 13 82 25 106 26 58 1 144 -14 161 -29 8 -6 28 -11 44 -11 50 0 147 -18 188
-35 22 -9 54 -15 73 -14 20 1 40 -4 50 -14 15 -16 18 -16 43 2 28 20 63 22
210 16 46 -2 88 2 108 10 27 11 44 11 79 2 30 -7 72 -8 126 -3 45 5 161 9 257
10 96 1 203 5 237 9 49 6 69 4 94 -8 23 -12 46 -14 79 -10 25 3 63 1 83 -4 27
-8 48 -7 83 4 59 18 98 18 113 0 13 -15 0 -30 -34 -39 -11 -2 8 -5 43 -6 37
-1 61 3 57 8 -10 17 18 24 30 8 11 -15 52 -17 409 -17 l396 0 0 610 c0 536 -2
610 -15 610 -8 0 -15 7 -15 15 0 9 7 18 15 21 13 5 15 92 15 700 0 382 -4 694
-8 694 -4 0 -13 -5 -20 -12 -9 -9 -16 -8 -30 5 -16 14 -43 17 -175 17 -151 0
-157 -1 -157 -20 0 -12 10 -34 21 -49 26 -35 22 -43 -34 -70 -41 -20 -44 -24
-55 -83 -7 -35 -14 -76 -16 -93 -1 -16 -3 -38 -4 -47 -2 -15 -6 -16 -27 -6
-30 13 -27 4 -31 102 l-2 80 39 44 c21 25 39 51 39 58 0 24 -21 26 -45 4 -29
-28 -75 -21 -75 10 0 14 -7 20 -21 20 -17 0 -20 5 -17 25 l5 26 -146 -3 -146
-3 -3 -42 c-2 -24 -7 -43 -12 -43 -16 0 -19 15 -10 53 l8 37 -768 0 c-502 0
-771 -3 -775 -10z m2278 -112 c-9 -16 -21 -7 -26 19 -8 41 5 52 19 18 7 -17
10 -33 7 -37z m97 -4 c0 -16 -23 -44 -35 -44 -21 0 -19 27 3 39 19 12 32 14
32 5z m-165 -24 c3 -5 1 -10 -4 -10 -6 0 -11 5 -11 10 0 6 2 10 4 10 3 0 8 -4
11 -10z m-2414 -37 c16 -16 29 -30 29 -33 0 -7 -84 -30 -110 -30 -23 0 -26 20
-7 53 25 45 47 48 88 10z m1393 -4 c34 -8 43 -15 39 -28 -2 -10 3 -23 11 -30
14 -12 16 -10 16 12 0 14 4 28 10 32 5 3 41 -2 80 -11 l71 -18 -6 -37 c-6 -35
-5 -39 20 -45 19 -5 25 -12 23 -28 -2 -17 -10 -21 -41 -21 -27 0 -43 -6 -53
-20 -14 -19 -16 -19 -25 -3 -8 14 -20 17 -64 13 -30 -2 -65 -7 -77 -10 -16 -6
-20 -4 -15 7 3 8 1 21 -4 29 -8 12 -11 11 -20 -3 -13 -23 -67 -24 -76 -2 -3 8
-1 25 5 37 19 41 21 56 7 67 -18 15 -23 4 -33 -66 -6 -41 -11 -50 -30 -52 -20
-3 -22 -1 -16 25 4 15 11 30 16 31 20 9 5 22 -25 22 -38 0 -57 -15 -57 -46 0
-24 -35 -34 -122 -34 -26 0 -60 -8 -77 -17 -29 -17 -31 -17 -60 5 -36 26 -54
27 -92 5 -29 -17 -31 -21 -33 -58 -1 -17 -8 -20 -43 -20 -23 0 -48 -6 -54 -12
-7 -7 -23 -13 -36 -13 -26 0 -89 -27 -118 -50 -41 -34 -165 -81 -198 -75 -21
3 -44 -2 -67 -15 -63 -34 -143 -70 -147 -66 -7 6 28 69 46 84 28 22 139 72
161 72 12 0 38 11 58 25 20 14 42 25 50 25 20 0 121 56 182 100 74 55 129 82
230 115 47 15 89 31 94 36 6 5 25 9 43 9 19 0 47 7 63 15 22 11 53 14 132 11
57 -3 119 -1 138 4 49 11 46 11 94 -1z m576 -39 c0 -5 -7 -10 -15 -10 -8 0
-15 5 -15 10 0 6 7 10 15 10 8 0 15 -4 15 -10z m54 -35 c-4 -8 -8 -15 -10 -15
-2 0 -4 7 -4 15 0 8 4 15 10 15 5 0 7 -7 4 -15z m-186 -12 c19 -8 43 -12 54
-9 27 6 75 -18 82 -42 4 -11 25 -24 54 -33 35 -10 48 -20 50 -35 4 -31 -29
-86 -69 -111 -19 -12 -42 -29 -52 -38 -15 -14 -21 -14 -34 -3 -9 7 -24 12 -33
10 -22 -4 -90 26 -96 42 -3 7 -1 23 4 37 12 33 5 56 -19 62 -17 5 -19 9 -9 27
8 15 8 29 -1 55 l-13 34 -27 -20 c-44 -31 -55 -26 -43 18 5 20 12 22 63 22 31
-1 71 -8 89 -16z m-2012 -50 c-10 -10 -19 5 -10 18 6 11 8 11 12 0 2 -7 1 -15
-2 -18z m-42 -75 c-1 -13 -3 -25 -3 -27 -1 -3 -6 0 -12 6 -12 12 -6 43 9 43 5
0 8 -10 6 -22z m1906 -75 c0 -14 -34 -43 -50 -43 -10 0 -23 -7 -30 -15 -14
-17 -30 -11 -30 12 0 30 31 53 72 53 21 0 38 -3 38 -7z m102 -65 c-9 -9 -15
-9 -24 0 -9 9 -7 12 12 12 19 0 21 -3 12 -12z m502 3 c8 -12 -3 -41 -15 -41
-5 0 -9 11 -9 25 0 25 14 34 24 16z m71 -41 c9 -30 -4 -60 -26 -60 -12 0 -19
-7 -19 -20 0 -11 -4 -20 -10 -20 -14 0 -13 9 7 69 17 53 37 66 48 31z m-798
-52 c-3 -8 -6 -5 -6 6 -1 11 2 17 5 13 3 -3 4 -12 1 -19z m-1624 -5 c20 -5 22
-23 5 -45 -12 -15 -17 -15 -53 -3 -22 8 -53 15 -70 15 -38 0 -64 15 -50 29 18
18 109 20 168 4z m-299 -12 c8 -12 -3 -41 -15 -41 -5 0 -9 11 -9 25 0 25 14
34 24 16z m2280 -17 c22 -9 10 -23 -14 -17 -11 3 -17 9 -14 14 6 11 8 11 28 3z
m465 -26 c10 -28 4 -48 -15 -48 -9 0 -14 12 -14 35 0 39 16 47 29 13z m-2239
-49 c0 -3 -11 -12 -25 -19 -30 -16 -50 -3 -41 28 6 18 10 19 36 9 17 -6 30
-14 30 -18z m-252 -11 c-4 -27 -28 -36 -28 -10 0 20 8 32 22 32 5 0 8 -10 6
-22z m-288 -38 c0 -5 -4 -10 -9 -10 -6 0 -13 5 -16 10 -3 6 1 10 9 10 9 0 16
-4 16 -10z m2792 -5 c10 0 17 -4 15 -10 -1 -5 -11 -9 -22 -7 -34 4 -47 11 -40
22 4 6 12 7 18 3 7 -5 20 -8 29 -8z m-2328 -51 c5 -17 -3 -34 -34 -69 -40 -46
-40 -48 -25 -72 13 -20 14 -31 6 -56 -8 -21 -8 -34 -1 -41 14 -14 13 -59 -2
-74 -7 -7 -20 -12 -31 -12 -16 0 -18 8 -18 58 1 31 1 66 0 77 -2 60 16 124 49
173 35 53 44 56 56 16z m1898 -16 c-15 -15 -26 -4 -18 18 5 13 9 15 18 6 9 -9
9 -15 0 -24z m-1612 2 c0 -5 -2 -10 -4 -10 -3 0 -8 5 -11 10 -3 6 -1 10 4 10
6 0 11 -4 11 -10z m-760 -40 c0 -5 -4 -10 -10 -10 -5 0 -10 5 -10 10 0 6 5 10
10 10 6 0 10 -4 10 -10z m2800 -63 c-1 -21 -1 -21 -15 -3 -8 10 -12 23 -9 28
9 14 24 -2 24 -25z m-2600 -71 c0 -28 -3 -30 -42 -40 -33 -8 -35 2 -7 38 26
33 49 34 49 2z m2120 11 c0 -7 -4 -17 -9 -22 -14 -15 -24 -92 -13 -99 13 -8
62 50 62 73 0 9 -5 22 -11 28 -6 6 -8 16 -5 22 9 14 73 14 81 1 3 -5 0 -10 -8
-10 -9 0 -14 -12 -15 -34 -1 -27 3 -35 21 -40 14 -4 26 0 34 10 10 13 12 13
18 -5 3 -12 13 -21 21 -21 11 0 5 -10 -15 -31 -17 -17 -35 -28 -41 -24 -5 3
-19 -5 -31 -19 -17 -20 -26 -23 -40 -15 -15 7 -22 4 -35 -17 -15 -22 -22 -25
-53 -20 -20 4 -53 9 -74 13 -36 5 -38 7 -32 32 7 28 21 41 47 41 13 0 15 7 11
39 -5 37 14 83 42 103 17 12 45 9 45 -5z m200 -21 c0 -22 -19 -30 -35 -16 -22
18 -18 30 10 30 15 0 25 -6 25 -14z m-1544 -33 c-10 -10 -19 5 -10 18 6 11 8
11 12 0 2 -7 1 -15 -2 -18z m-96 -18 c0 -8 -4 -15 -10 -15 -5 0 -10 7 -10 15
0 8 5 15 10 15 6 0 10 -7 10 -15z m-910 -19 c0 -25 -12 -46 -25 -46 -19 0 -27
17 -20 40 7 23 45 28 45 6z m140 -3 c0 -26 -16 -47 -29 -39 -14 9 -14 29 1 44
17 17 28 15 28 -5z m2530 -1 c0 -13 -12 -22 -22 -16 -10 6 -1 24 13 24 5 0 9
-4 9 -8z m204 -28 c9 -23 -2 -54 -19 -54 -8 0 -20 10 -26 22 -10 18 -8 24 7
35 23 17 31 16 38 -3z m-664 -4 c0 -5 -4 -10 -10 -10 -5 0 -10 5 -10 10 0 6 5
10 10 10 6 0 10 -4 10 -10z m401 -5 c0 -13 -41 -19 -41 -7 0 11 20 22 33 18 5
-1 8 -6 8 -11z m-481 -35 c0 -5 -7 -10 -15 -10 -8 0 -15 5 -15 10 0 6 7 10 15
10 8 0 15 -4 15 -10z m-1675 -62 c-4 -13 -7 -34 -7 -48 0 -14 -9 -35 -21 -48
-21 -23 -21 -24 -4 -53 9 -17 17 -37 17 -45 0 -20 -67 -51 -81 -37 -13 13 17
158 40 193 10 14 21 33 24 43 4 9 14 17 23 17 12 0 15 -5 9 -22z m1225 8 c0
-11 -19 -15 -25 -6 -3 5 1 10 9 10 9 0 16 -2 16 -4z m-1445 -83 c19 -9 35 -21
35 -27 0 -18 -33 -46 -56 -46 -30 0 -40 -17 -21 -38 25 -29 27 -74 5 -110 -18
-29 -19 -37 -7 -82 l13 -50 -36 -38 c-20 -20 -39 -47 -43 -60 -4 -13 -12 -21
-18 -19 -18 6 -16 152 2 152 8 0 18 7 24 16 10 16 -1 53 -34 112 -7 13 -6 19
5 23 8 3 15 13 16 22 0 9 2 33 4 52 2 19 4 43 4 53 2 21 37 57 57 57 8 0 30
-8 50 -17z m870 -13 c0 -18 -16 -22 -35 -10 -13 9 -13 11 0 20 19 12 35 8 35
-10z m-295 -39 c0 -14 -18 -23 -30 -16 -6 4 -8 11 -5 16 8 12 35 12 35 0z m70
-1 c0 -5 -7 -10 -15 -10 -8 0 -15 5 -15 10 0 6 7 10 15 10 8 0 15 -4 15 -10z
m1730 -29 c0 -32 -33 -52 -53 -32 -16 16 -44 14 -51 -4 -4 -11 3 -19 19 -25
14 -5 25 -16 25 -25 0 -19 -86 -58 -132 -59 -51 -1 -75 -26 -62 -63 7 -19 17
-28 32 -28 43 0 56 -64 26 -120 -9 -16 -16 -45 -15 -63 1 -23 -3 -34 -16 -39
-40 -14 -102 -101 -88 -123 4 -6 -3 -22 -15 -35 -14 -15 -20 -30 -16 -43 5
-16 -1 -24 -36 -40 -24 -11 -50 -22 -59 -25 -9 -3 -23 -30 -33 -60 -19 -61
-42 -90 -51 -65 -3 8 -1 27 5 43 6 15 8 42 4 59 -5 29 -1 36 38 69 56 48 68
58 100 83 25 19 25 21 7 32 -12 8 -19 24 -19 44 0 44 -32 138 -47 138 -8 0
-13 12 -13 28 0 53 17 63 85 52 78 -13 81 -13 99 6 25 24 19 34 -18 34 -34 0
-61 20 -38 28 6 2 22 12 34 22 19 15 21 22 12 37 -16 26 -45 27 -103 2 -39
-17 -51 -28 -51 -44 0 -12 -9 -30 -21 -41 -17 -16 -23 -16 -42 -5 -11 8 -44
15 -71 17 -31 2 -62 12 -79 25 l-29 21 -26 -24 c-15 -12 -31 -29 -35 -35 -4
-7 -17 -13 -27 -13 -10 0 -22 -5 -25 -10 -8 -13 -35 6 -35 25 0 27 -108 53
-140 33 -14 -9 -25 -9 -42 -1 -14 6 -36 9 -50 6 -21 -4 -30 1 -44 24 -10 15
-19 30 -21 32 -2 2 -11 -3 -22 -13 -12 -11 -27 -15 -44 -11 -14 4 -28 2 -31
-4 -11 -18 -37 -13 -34 7 3 14 -6 18 -52 20 -30 2 -57 7 -60 12 -3 5 -7 -9 -7
-33 -1 -24 4 -48 13 -58 13 -14 11 -17 -13 -28 -19 -9 -29 -9 -31 -2 -2 6 -17
11 -33 11 -26 0 -29 -3 -29 -34 0 -26 5 -36 20 -41 23 -7 26 -21 8 -28 -7 -2
-23 14 -35 36 -25 43 -31 109 -11 104 8 -1 14 10 16 26 3 22 -1 30 -17 34 -22
6 -37 43 -28 67 4 10 22 12 79 8 40 -2 75 -8 78 -12 3 -4 41 -3 85 2 44 4 145
8 225 8 232 1 392 8 430 19 19 6 87 11 150 11 74 1 129 6 155 15 22 8 47 15
56 15 9 0 28 10 43 21 24 19 37 21 97 17 51 -4 72 -2 80 8 18 22 29 16 29 -15z
m-1730 -16 c0 -8 -7 -15 -15 -15 -9 0 -12 6 -9 15 4 8 10 15 15 15 5 0 9 -7 9
-15z m1953 0 c17 7 30 -11 41 -57 6 -25 3 -28 -18 -28 -30 0 -52 -25 -39 -42
14 -18 23 -87 13 -93 -16 -10 -49 14 -56 40 -4 16 0 35 10 50 11 17 14 36 10
69 -7 50 2 89 15 68 4 -7 15 -10 24 -7z m-2028 -15 c3 -5 1 -10 -4 -10 -6 0
-11 5 -11 10 0 6 2 10 4 10 3 0 8 -4 11 -10z m-775 -108 c0 -13 -12 -22 -22
-16 -10 6 -1 24 13 24 5 0 9 -4 9 -8z m396 -27 c8 -21 -14 -45 -42 -45 -34 0
-41 20 -14 42 27 22 49 23 56 3z m2573 1 c9 -11 7 -15 -12 -19 -12 -4 -33 -4
-45 0 -14 3 -30 -1 -40 -10 -16 -15 -19 -15 -30 3 -11 18 -9 20 10 21 47 3 69
6 75 13 11 10 30 7 42 -8z m-2151 -29 c4 -34 -24 -49 -43 -23 -9 11 -15 13
-20 7 -10 -17 -64 -43 -75 -36 -14 8 7 45 25 45 7 0 16 8 19 18 4 13 17 17 48
17 39 0 43 -2 46 -28z m500 -24 c5 -16 -22 -27 -44 -19 -13 5 -14 9 -4 22 15
17 41 15 48 -3z m1237 -3 c3 -6 0 -16 -8 -24 -8 -8 -20 -28 -27 -45 -15 -38
-30 -31 -30 14 0 43 48 83 65 55z m-1065 -70 c0 -21 -29 -35 -43 -21 -7 7 -5
17 8 31 20 22 35 18 35 -10z m236 -16 c-5 -13 -10 -14 -18 -6 -6 6 -8 18 -4
28 5 13 10 14 18 6 6 -6 8 -18 4 -28z m1104 10 c0 -37 -16 -61 -45 -68 -14 -4
-25 -10 -25 -14 0 -5 -9 -18 -20 -30 -51 -54 -75 -2 -36 76 26 52 37 59 94 61
28 1 32 -2 32 -25z m-1628 -19 c0 -5 -5 -11 -11 -13 -6 -2 -11 4 -11 13 0 9 5
15 11 13 6 -2 11 -8 11 -13z m439 -27 c36 -40 40 -42 53 -25 18 24 26 21 26
-8 0 -64 -97 -48 -126 21 -13 32 -12 54 3 54 3 0 23 -19 44 -42z m399 23 c8
-15 6 -24 -7 -37 -16 -15 -18 -15 -35 6 -14 17 -16 26 -7 36 16 20 37 17 49
-5z m-246 -7 c4 -9 4 -19 1 -22 -7 -8 -35 19 -29 29 8 14 21 11 28 -7z m-1074
-9 c0 -8 -6 -15 -14 -15 -17 0 -28 14 -19 24 12 12 33 6 33 -9z m-752 -12 c-5
-25 -28 -28 -28 -4 0 12 6 21 16 21 9 0 14 -7 12 -17z m2512 -3 c0 -12 -28
-25 -36 -17 -9 9 6 27 22 27 8 0 14 -5 14 -10z m-2429 -70 c-26 -22 -37 -25
-46 -10 -11 18 5 30 38 30 l32 -1 -24 -19z m686 -2 c-3 -8 -6 -5 -6 6 -1 11 2
17 5 13 3 -3 4 -12 1 -19z m477 3 c10 -15 -4 -40 -26 -47 -11 -3 -24 -19 -30
-35 -11 -32 -23 -37 -32 -14 -8 22 3 45 38 76 34 31 42 34 50 20z m364 -13
c21 -21 13 -28 -30 -28 -40 0 -41 0 -23 20 21 23 36 25 53 8z m361 -7 c12 -8
12 -12 2 -25 -17 -20 -48 -21 -67 -2 -12 13 -12 16 3 25 22 13 44 13 62 2z
m-1565 -10 c8 -12 -30 -58 -40 -49 -9 10 12 58 25 58 5 0 12 -4 15 -9z m2329
-26 l37 -26 45 27 c46 26 75 27 75 0 0 -19 -20 -26 -42 -14 -11 5 -18 5 -18
-1 0 -5 -14 -12 -31 -16 -17 -4 -33 -13 -36 -21 -3 -7 -27 -30 -55 -49 -41
-30 -49 -40 -43 -58 18 -59 18 -65 -6 -69 -17 -2 -23 -9 -21 -21 2 -10 -4 -39
-12 -65 -8 -26 -14 -56 -13 -67 2 -15 -6 -21 -38 -26 -21 -4 -41 -12 -43 -18
-5 -16 -31 -41 -42 -41 -14 0 0 63 17 77 10 8 13 21 9 36 -7 31 23 62 53 52
17 -5 21 -2 21 15 0 13 -8 24 -20 27 -28 7 -25 18 15 67 25 30 35 53 35 77 0
33 52 139 68 139 4 0 24 -11 45 -25z m-863 1 c0 -8 3 -22 6 -31 5 -13 2 -16
-12 -13 -10 2 -19 10 -19 18 0 9 -12 17 -30 19 -30 4 -30 4 -5 11 40 13 60 11
60 -4z m-166 -20 c-4 -17 -1 -27 12 -34 21 -11 10 -32 -17 -32 -10 0 -19 -4
-19 -8 0 -5 36 -14 81 -20 91 -13 99 -16 99 -41 0 -14 -6 -17 -29 -13 -35 5
-45 -9 -30 -42 16 -35 3 -75 -29 -88 -15 -7 -37 -20 -49 -31 -28 -25 -43 -15
-43 30 0 29 8 42 42 74 33 30 40 41 31 50 -20 20 -71 14 -98 -11 l-25 -23 -25
23 -25 23 -22 -19 c-13 -11 -35 -28 -50 -37 -19 -12 -25 -22 -21 -37 5 -20
-12 -50 -28 -50 -5 0 -9 14 -9 32 l0 32 -21 -23 c-14 -14 -30 -21 -47 -19 -22
2 -28 9 -30 34 -4 36 13 53 61 63 29 7 32 10 29 42 -2 35 -2 35 33 31 22 -3
45 2 62 13 25 17 27 17 43 -5 l18 -23 11 21 c9 17 8 23 -10 36 -24 16 -18 36
12 36 13 0 19 -7 19 -21 0 -15 5 -20 22 -17 26 3 38 38 14 38 -21 0 -20 17 2
29 30 18 43 13 36 -13z m465 15 c8 -5 11 -16 8 -25 -5 -12 -20 -16 -57 -16
-27 0 -50 5 -50 10 0 6 7 10 15 10 9 0 18 7 21 15 7 17 41 20 63 6z m-2089
-57 c0 -8 -7 -14 -15 -14 -10 0 -15 10 -15 26 0 22 2 25 15 14 8 -7 15 -19 15
-26z m1911 20 c10 -13 10 -17 -2 -25 -8 -5 -17 -9 -21 -9 -7 0 -28 33 -28 44
0 13 38 5 51 -10z m-186 -15 c-4 -5 -16 -9 -28 -9 -21 1 -21 1 -3 15 20 15 41
11 31 -6z m-345 -3 c0 -8 -4 -17 -9 -21 -12 -7 -24 12 -16 25 9 15 25 12 25
-4z m-610 -6 c0 -5 -4 -10 -10 -10 -5 0 -10 5 -10 10 0 6 5 10 10 10 6 0 10
-4 10 -10z m-132 -37 c2 -8 -6 -13 -22 -13 -26 0 -40 12 -29 24 11 11 46 2 51
-11z m459 -5 c-3 -8 -6 -5 -6 6 -1 11 2 17 5 13 3 -3 4 -12 1 -19z m-907 -26
c0 -21 -4 -42 -9 -47 -5 -6 -11 -23 -13 -39 -4 -42 -28 -46 -28 -5 0 18 -6 48
-12 67 -11 30 -11 35 7 48 36 26 55 18 55 -24z m1860 21 c-1 -10 -14 -34 -30
-53 -17 -19 -30 -42 -30 -51 0 -17 -23 -32 -34 -22 -3 4 -6 22 -6 40 0 29 5
36 30 45 19 6 32 19 36 34 7 28 34 33 34 7z m-1555 -3 c3 -5 -1 -10 -10 -10
-9 0 -13 5 -10 10 3 6 8 10 10 10 2 0 7 -4 10 -10z m65 -49 c5 -11 10 -27 10
-37 0 -16 -1 -16 -20 1 -21 19 -27 55 -10 55 5 0 14 -9 20 -19z m210 -21 c0
-5 -7 -10 -16 -10 -8 0 -12 5 -9 10 3 6 10 10 16 10 5 0 9 -4 9 -10z m-300
-10 c0 -5 -5 -10 -11 -10 -5 0 -7 5 -4 10 3 6 8 10 11 10 2 0 4 -4 4 -10z
m-180 -50 c0 -5 -5 -10 -11 -10 -5 0 -7 5 -4 10 3 6 8 10 11 10 2 0 4 -4 4
-10z m1683 -39 c6 -24 -10 -41 -31 -34 -8 4 -21 -2 -28 -12 -8 -10 -17 -15
-21 -10 -5 4 -2 10 5 12 6 3 12 11 12 19 0 8 7 14 15 14 9 0 18 7 21 15 8 21
21 19 27 -4z m-2053 -5 c0 -18 -17 -29 -30 -21 -8 5 -7 11 1 21 15 18 29 18
29 0z m554 -18 c8 -13 7 -21 -2 -30 -9 -9 -17 -7 -35 10 -13 12 -31 22 -40 22
-9 0 -19 5 -22 11 -5 7 9 9 41 7 31 -2 51 -9 58 -20z m647 -53 c5 -17 19 -35
31 -40 17 -7 22 -17 19 -35 -1 -14 -8 -28 -14 -32 -6 -3 -12 -14 -13 -24 -4
-27 -36 -94 -45 -94 -8 0 -15 41 -24 145 -5 56 -3 80 12 115 16 39 18 42 21
20 2 -14 7 -39 13 -55z m-967 -36 c-8 -14 -24 -11 -30 6 -4 8 0 22 7 31 12 14
14 13 21 -6 4 -12 6 -26 2 -31z m1221 12 c3 -5 1 -13 -5 -16 -15 -9 -43 3 -35
15 8 13 32 13 40 1z m615 -11 c-20 -13 -33 -13 -25 0 3 6 14 10 23 10 15 0 15
-2 2 -10z m-332 -38 c5 -36 -73 -56 -119 -31 -32 17 -6 38 44 36 25 -1 42 3
45 11 6 19 27 8 30 -16z m-1529 -26 c9 -10 9 -16 1 -21 -16 -10 -40 2 -40 20
0 19 24 20 39 1z m406 4 c4 -6 -2 -31 -12 -56 -19 -47 -52 -66 -82 -47 -23 15
-15 28 17 28 24 0 27 4 28 35 1 19 2 38 3 43 2 11 39 9 46 -3z m1342 -7 c-9
-9 -19 -14 -23 -11 -10 10 6 28 24 28 15 0 15 -1 -1 -17z m-1203 -25 c3 -13 4
-34 3 -48 -2 -20 2 -24 18 -22 33 6 98 -20 138 -55 20 -18 44 -33 52 -33 23 0
18 -17 -7 -24 -41 -10 -61 -6 -98 19 -30 21 -50 26 -126 29 l-89 4 3 29 c5 37
18 51 50 55 24 3 27 7 24 36 -3 24 0 32 12 32 9 0 18 -10 20 -22z m516 -3 c0
-8 -4 -15 -9 -15 -13 0 -22 16 -14 24 11 11 23 6 23 -9z m1162 -52 c-5 -29
-18 -43 -39 -43 -20 0 -15 21 9 47 28 30 36 29 30 -4z m358 -13 c0 -5 -7 -10
-15 -10 -8 0 -15 5 -15 10 0 6 7 10 15 10 8 0 15 -4 15 -10z m-2310 -50 c0
-15 -7 -20 -25 -20 -24 0 -34 18 -18 33 15 15 43 7 43 -13z"/>
<path d="M1662 2439 c2 -6 8 -10 13 -10 5 0 11 4 13 10 2 6 -4 11 -13 11 -9 0
-15 -5 -13 -11z"/>
<path d="M2425 2320 c3 -5 8 -10 11 -10 2 0 4 5 4 10 0 6 -5 10 -11 10 -5 0
-7 -4 -4 -10z"/>
<path d="M2377 2243 c-4 -3 -7 -19 -7 -35 0 -26 3 -29 23 -22 37 11 48 24 36
45 -10 19 -39 26 -52 12z"/>
<path d="M2440 2200 c-15 -28 -2 -46 16 -23 7 10 14 24 14 31 0 19 -18 14 -30
-8z"/>
<path d="M2570 1200 c-13 -8 -12 -10 3 -10 9 0 17 5 17 10 0 12 -1 12 -20 0z"/>
<path d="M2196 1123 c-4 -4 -22 -6 -41 -5 -31 2 -35 0 -35 -22 0 -34 15 -41
40 -16 11 11 26 20 34 20 8 0 17 4 21 9 7 12 -9 23 -19 14z"/>
<path d="M1914 1096 c-6 -17 12 -56 26 -56 6 0 10 16 10 35 0 25 -4 35 -15 35
-9 0 -18 -6 -21 -14z"/>
<path d="M2333 903 c-26 -5 -31 -28 -8 -37 8 -3 15 -14 15 -24 0 -10 6 -27 14
-38 14 -18 15 -18 25 9 16 41 14 84 -5 91 -9 3 -16 5 -17 5 -1 -1 -12 -4 -24
-6z"/>
<path d="M2660 2645 c33 -19 55 -19 70 0 11 13 5 15 -41 15 -52 -1 -53 -1 -29
-15z"/>
<path d="M365 2620 c-4 -6 -1 -17 5 -26 10 -11 16 -12 26 -3 11 9 11 15 3 25
-14 17 -25 18 -34 4z"/>
<path d="M302 2564 c4 -21 22 -23 26 -1 2 10 -3 17 -13 17 -10 0 -15 -6 -13
-16z"/>
<path d="M260 51 c-14 -3 -39 -14 -56 -23 -30 -16 -80 -18 -103 -3 -6 3 -19 0
-30 -7 -16 -10 -23 -10 -33 0 -17 17 -38 15 -38 -3 0 -13 47 -15 368 -14 202
1 358 4 347 6 -11 3 -23 10 -26 15 -4 7 -13 7 -25 0 -22 -11 -152 -4 -160 9
-3 5 -16 9 -29 9 -13 0 -25 5 -27 11 -3 9 -13 9 -40 0 -27 -9 -47 -9 -75 -2
-21 6 -40 10 -43 10 -3 -1 -16 -4 -30 -8z"/>
<path d="M1528 3 c6 -2 18 -2 25 0 6 3 1 5 -13 5 -14 0 -19 -2 -12 -5z"/>
<path d="M1598 3 c7 -3 16 -2 19 1 4 3 -2 6 -13 5 -11 0 -14 -3 -6 -6z"/>
<path d="M2098 3 c6 -2 18 -2 25 0 6 3 1 5 -13 5 -14 0 -19 -2 -12 -5z"/>
</g>
</svg>
