<?xml version="1.0" standalone="no"?>
<!DOCTYPE svg PUBLIC "-//W3C//DTD SVG 20010904//EN"
 "http://www.w3.org/TR/2001/REC-SVG-20010904/DTD/svg10.dtd">
<svg version="1.0" xmlns="http://www.w3.org/2000/svg"
 width="108.000000pt" height="119.000000pt" viewBox="0 0 108.000000 119.000000"
 preserveAspectRatio="xMidYMid meet">
<metadata>
Created by potrace 1.16, written by Peter Selinger 2001-2019
</metadata>
<g transform="translate(0.000000,119.000000) scale(0.100000,-0.100000)"
fill="#000000" stroke="none">
<path d="M456 1136 c-21 -8 -50 -26 -65 -39 -14 -14 -36 -28 -49 -32 -12 -3
-20 -11 -17 -16 4 -5 -2 -12 -12 -15 -33 -12 -113 -97 -113 -121 0 -13 -5 -23
-11 -23 -5 0 -8 -4 -4 -9 3 -5 -1 -15 -8 -23 -7 -7 -19 -33 -27 -58 -8 -25
-17 -47 -20 -50 -9 -9 -30 -75 -30 -97 0 -11 -3 -23 -7 -26 -19 -19 -19 -202
0 -247 4 -8 9 -28 11 -43 3 -16 10 -35 16 -42 7 -8 9 -19 5 -25 -3 -5 -1 -10
4 -10 6 0 11 -8 11 -18 0 -10 10 -38 22 -63 12 -24 22 -47 23 -51 0 -11 9 -16
40 -21 17 -3 45 -10 63 -16 17 -5 32 -7 32 -4 0 3 6 1 13 -4 6 -6 44 -9 82 -9
54 1 83 8 125 28 30 15 52 27 48 28 -4 0 0 9 9 19 9 11 20 18 24 16 6 -4 97
90 144 149 10 13 24 22 29 19 5 -3 6 -1 2 6 -4 6 -2 19 6 28 12 15 11 15 -9 2
-13 -8 -23 -17 -23 -20 0 -4 -17 -18 -37 -32 -21 -13 -60 -45 -88 -71 -27 -25
-54 -46 -58 -46 -5 0 -23 -11 -39 -25 -16 -14 -33 -23 -38 -20 -5 3 -20 1 -34
-5 -14 -5 -26 -6 -26 -2 0 4 -9 8 -20 8 -14 0 -19 -5 -15 -15 4 -10 2 -11 -7
-3 -7 5 -29 13 -48 16 -19 4 -39 8 -45 10 -5 1 -26 6 -45 10 -74 16 -87 25
-101 73 -7 25 -12 53 -12 62 0 9 -3 21 -7 26 -5 6 -11 41 -15 79 -3 38 -8 72
-10 75 -3 6 7 69 21 131 3 14 7 32 8 40 4 20 22 63 69 170 6 14 19 37 29 51
16 24 16 26 -3 43 -22 18 -17 39 6 29 8 -3 15 0 15 6 0 6 6 11 14 11 8 0 17 7
20 16 3 8 10 12 16 9 5 -3 10 -3 10 2 0 4 15 14 33 22 17 8 40 20 49 28 9 8
22 12 29 7 7 -4 10 -3 6 3 -9 15 44 26 123 26 72 0 133 -14 158 -35 9 -8 33
-21 52 -28 19 -7 47 -22 62 -32 14 -10 35 -18 46 -18 21 0 29 -14 38 -71 10
-63 12 -104 6 -113 -3 -6 -6 -26 -7 -45 -2 -44 -45 -183 -59 -193 -6 -4 -7
-10 -3 -14 4 -4 2 -13 -4 -21 -6 -7 -8 -13 -4 -13 4 0 2 -7 -5 -15 -7 -8 -9
-22 -6 -31 4 -11 2 -15 -7 -11 -9 3 -13 -4 -13 -23 0 -16 3 -27 8 -24 5 3 6
10 2 15 -3 6 1 16 9 22 9 7 17 18 19 26 2 8 10 23 18 33 8 10 15 22 15 26 0 4
5 14 10 22 5 8 11 24 12 35 2 11 9 25 16 30 6 6 13 24 15 40 2 17 8 34 13 40
5 5 9 19 9 31 0 12 6 25 13 27 9 4 8 6 -2 6 -11 1 -11 4 -1 16 9 11 9 15 1 15
-7 0 -9 5 -5 12 11 18 11 62 -1 71 -6 4 -4 11 5 17 8 5 10 10 4 10 -5 0 -15
24 -22 53 -7 28 -14 58 -15 66 -4 16 -32 33 -49 30 -20 -3 -49 12 -42 22 3 5
-7 9 -21 9 -15 0 -24 4 -20 10 3 6 -1 10 -10 10 -8 0 -24 5 -35 10 -11 5 -29
15 -40 20 -11 6 -31 10 -44 10 -14 0 -27 4 -30 8 -9 14 -159 12 -200 -2z"/>
<path d="M504 949 c-9 -15 -1 -360 9 -366 4 -2 3 -11 -4 -19 -6 -8 -8 -14 -3
-14 5 0 10 -21 12 -48 5 -86 7 -102 14 -102 5 0 9 8 9 18 11 158 18 532 9 533
-3 0 -13 2 -22 4 -10 2 -21 -1 -24 -6z"/>
</g>
</svg>
