<?xml version="1.0" standalone="no"?>
<!DOCTYPE svg PUBLIC "-//W3C//DTD SVG 20010904//EN"
 "http://www.w3.org/TR/2001/REC-SVG-20010904/DTD/svg10.dtd">
<svg version="1.0" xmlns="http://www.w3.org/2000/svg"
 width="108.000000pt" height="180.000000pt" viewBox="0 0 108.000000 180.000000"
 preserveAspectRatio="xMidYMid meet">
<metadata>
Created by potrace 1.16, written by Peter Selinger 2001-2019
</metadata>
<g transform="translate(0.000000,180.000000) scale(0.100000,-0.100000)"
fill="#000000" stroke="none">
<path d="M762 1748 c-14 -14 -16 -28 -3 -28 9 0 24 30 18 36 -2 2 -9 -2 -15
-8z"/>
<path d="M734 1712 c4 -7 2 -12 -4 -12 -6 0 -22 -11 -36 -25 -14 -14 -23 -25
-20 -25 8 0 -35 -47 -166 -182 -70 -72 -125 -134 -123 -138 3 -5 -1 -10 -8
-13 -7 -3 -26 -24 -42 -48 -17 -24 -34 -47 -38 -50 -5 -3 -8 -9 -7 -13 1 -4
-12 -23 -29 -42 -17 -18 -31 -38 -31 -44 0 -6 -14 -24 -30 -40 -17 -17 -28
-30 -24 -30 4 0 0 -8 -8 -17 -24 -29 -100 -194 -104 -227 -3 -17 -7 -50 -10
-74 -3 -23 -3 -50 2 -60 4 -9 8 -25 9 -34 1 -10 17 -43 36 -75 48 -82 335
-363 389 -381 6 -2 10 -10 10 -18 0 -8 8 -14 18 -14 9 0 35 -14 56 -30 22 -17
45 -30 52 -30 8 0 18 -9 24 -20 6 -11 18 -20 26 -20 9 0 12 -5 8 -12 -4 -7 -3
-8 4 -4 29 18 -3 72 -51 89 -11 4 -15 12 -11 18 4 8 3 9 -5 5 -6 -4 -14 0 -19
11 -4 10 -13 19 -20 21 -8 1 -38 22 -69 45 -30 23 -67 50 -82 59 -14 10 -21
18 -16 18 6 1 -1 7 -14 14 -37 21 -221 198 -221 213 0 8 -8 23 -18 33 -39 43
-62 101 -62 160 0 33 4 62 10 65 5 3 10 14 10 24 0 9 9 36 20 59 11 22 20 46
20 52 0 5 4 10 8 10 4 0 18 20 30 45 12 25 26 45 32 45 5 0 10 9 10 21 0 11 5
17 10 14 6 -3 10 0 10 8 0 7 9 23 20 35 11 12 20 26 20 32 0 5 5 10 10 10 6 0
10 4 10 10 0 11 25 44 52 68 9 9 15 19 12 24 -3 4 5 19 18 32 35 38 49 56 43
56 -2 0 3 9 12 19 9 11 20 18 25 15 4 -3 6 1 3 8 -2 7 16 35 40 61 25 27 45
53 45 58 0 6 5 7 12 3 6 -4 8 -3 5 3 -3 5 14 32 38 58 24 27 42 52 39 56 -2 4
-1 9 3 11 5 2 25 22 46 45 28 29 35 43 26 48 -8 5 -10 4 -5 -3z"/>
<path d="M631 1471 c2 -28 6 -48 9 -46 4 3 6 16 5 30 -2 14 -2 25 0 25 1 0 22
-7 46 -16 62 -21 211 -22 244 0 21 14 26 14 31 3 3 -8 4 -18 2 -23 -2 -5 1
-10 7 -12 5 -1 10 11 11 26 1 16 4 33 7 38 3 5 -30 8 -74 7 -58 -1 -77 2 -72
10 4 8 1 7 -9 -1 -19 -15 -106 -14 -127 2 -11 8 -13 8 -7 -1 5 -9 0 -13 -18
-13 -14 0 -28 5 -31 10 -15 24 -26 6 -24 -39z"/>
<path d="M648 1414 c-5 -5 1 -36 19 -99 5 -16 12 -25 16 -19 7 13 4 34 -8 54
-9 15 -15 34 -17 58 -1 14 -2 14 -10 6z"/>
<path d="M949 1370 c-1 -16 -3 -34 -4 -40 -1 -5 -3 -14 -4 -20 0 -5 -11 -18
-23 -30 -12 -11 -19 -23 -15 -26 14 -15 39 22 54 81 14 57 15 65 4 65 -6 0
-12 -13 -12 -30z"/>
<path d="M690 1283 c0 -6 8 -17 18 -24 16 -13 16 -13 2 6 -8 11 -16 22 -17 24
-2 2 -3 0 -3 -6z"/>
<path d="M736 1226 c3 -9 13 -16 22 -16 8 0 13 1 11 3 -2 1 -12 9 -22 16 -15
12 -17 12 -11 -3z"/>
<path d="M872 1225 c-32 -17 -36 -23 -15 -21 17 1 49 24 42 30 -2 1 -14 -3
-27 -9z"/>
<path d="M801 1201 c-10 -6 -9 -10 3 -14 8 -3 18 -2 21 3 8 13 -9 20 -24 11z"/>
<path d="M818 873 c7 -3 16 -2 19 1 4 3 -2 6 -13 5 -11 0 -14 -3 -6 -6z"/>
<path d="M859 859 c-11 -7 -10 -9 5 -9 11 0 28 -7 38 -17 10 -9 18 -11 18 -6
0 18 -45 42 -61 32z"/>
<path d="M775 850 c4 -6 11 -8 16 -5 14 9 11 15 -7 15 -8 0 -12 -5 -9 -10z"/>
<path d="M930 806 c0 -9 3 -16 8 -16 4 0 13 -15 20 -32 8 -18 18 -42 22 -53 5
-11 11 -29 13 -40 4 -15 5 -13 6 7 0 15 -4 30 -9 33 -6 4 -8 10 -5 14 5 10
-23 70 -42 89 -11 11 -13 11 -13 -2z"/>
<path d="M705 791 c-6 -11 9 -23 19 -14 9 9 7 23 -3 23 -6 0 -12 -4 -16 -9z"/>
<path d="M692 750 c0 -14 2 -19 5 -12 2 6 2 18 0 25 -3 6 -5 1 -5 -13z"/>
<path d="M670 711 c0 -12 0 -23 0 -26 0 -3 3 -6 7 -7 10 -4 11 42 1 48 -4 3
-8 -4 -8 -15z"/>
<path d="M650 640 c0 -11 2 -20 4 -20 2 0 6 9 9 20 3 11 1 20 -4 20 -5 0 -9
-9 -9 -20z"/>
<path d="M734 619 c-3 -6 -12 -8 -20 -5 -8 3 -14 0 -14 -5 0 -7 -11 -9 -25 -7
-22 5 -25 2 -25 -23 0 -19 5 -29 15 -29 8 0 15 5 15 11 0 8 4 8 14 0 11 -9 15
-9 19 1 4 10 6 10 6 1 1 -7 8 -13 17 -13 9 0 12 5 8 13 -6 10 -4 10 7 0 16
-15 83 -18 74 -3 -3 6 -1 10 4 10 6 0 11 -6 11 -12 0 -10 3 -9 9 1 6 9 11 10
15 2 10 -15 76 -14 76 1 0 9 3 9 12 0 17 -17 65 -15 71 2 6 15 -26 50 -36 40
-9 -9 -59 5 -52 15 3 5 -40 9 -95 9 -56 1 -102 -4 -106 -9z"/>
</g>
</svg>
