<?xml version="1.0" standalone="no"?>
<!DOCTYPE svg PUBLIC "-//W3C//DTD SVG 20010904//EN"
 "http://www.w3.org/TR/2001/REC-SVG-20010904/DTD/svg10.dtd">
<svg version="1.0" xmlns="http://www.w3.org/2000/svg"
 width="180.000000pt" height="176.000000pt" viewBox="0 0 180.000000 176.000000"
 preserveAspectRatio="xMidYMid meet">
<metadata>
Created by potrace 1.16, written by Peter Selinger 2001-2019
</metadata>
<g transform="translate(0.000000,176.000000) scale(0.100000,-0.100000)"
fill="#000000" stroke="none">
<path d="M978 1305 c-17 -18 -6 -34 25 -37 l32 -3 3 -142 3 -143 -36 0 -35 0
0 144 c0 119 -3 145 -15 150 -10 3 -15 -1 -15 -13 0 -18 -143 -162 -258 -258
-31 -26 -68 -58 -82 -71 l-25 -22 31 -29 c31 -29 153 -115 270 -191 68 -45 74
-58 74 -174 0 -33 3 -56 8 -52 4 4 7 33 7 64 1 99 6 177 12 165 2 -7 18 -13
34 -13 24 0 29 -4 29 -24 0 -12 3 -51 6 -85 l7 -61 -37 0 c-32 0 -36 -3 -36
-26 l0 -27 118 6 c120 7 195 13 246 22 16 3 35 0 42 -6 12 -10 14 6 15 92 0
57 2 160 4 229 3 69 7 203 10 298 l5 173 -22 -3 c-23 -3 -23 -5 -23 -145 l1
-143 -33 0 -32 0 -3 150 c-3 162 -5 158 50 151 6 -1 12 3 12 9 0 5 -21 10 -47
10 -27 0 -113 3 -193 6 -80 4 -148 3 -152 -1z m310 -178 l3 -148 -33 3 -33 3
-3 142 c-2 128 -1 142 15 146 47 13 48 10 51 -146z m-178 -2 l0 -145 -25 0
-25 0 0 145 0 145 25 0 25 0 0 -145z m90 0 l0 -145 -30 0 -30 0 0 93 c0 50 -3
116 -6 145 l-7 52 37 0 36 0 0 -145z m-260 38 c0 -47 -2 -50 -61 -97 -33 -27
-82 -71 -109 -98 l-49 -49 57 -37 c31 -20 59 -39 62 -42 3 -3 26 -18 53 -33
l47 -28 0 -54 c0 -30 -2 -55 -4 -55 -8 0 -95 61 -101 71 -4 5 -34 28 -68 51
-78 52 -137 100 -137 112 0 10 291 303 303 305 4 1 7 -20 7 -46z m-4 -361 c-3
-3 -25 11 -48 29 -24 19 -63 47 -86 63 l-44 28 89 84 88 84 3 -141 c1 -78 0
-144 -2 -147z m435 166 c0 -2 3 -60 5 -130 l6 -128 -36 0 -36 0 0 124 c0 90 3
126 13 129 13 6 47 9 48 5z m-171 -133 l0 -125 -36 0 -35 0 6 117 c6 119 11
133 48 133 15 0 17 -13 17 -125z m90 0 l0 -125 -29 0 c-28 0 -28 1 -34 68 -9
87 -9 167 0 175 3 4 19 7 35 7 l28 0 0 -125z m-250 -5 l0 -120 -35 0 -35 0 0
113 c0 63 3 117 7 120 3 4 19 7 35 7 l28 0 0 -120z m70 83 c0 -21 2 -73 4
-115 3 -69 1 -78 -15 -83 -34 -11 -39 4 -39 121 l0 114 25 0 c22 0 25 -4 25
-37z m9 -313 l-1 -90 -29 0 -29 0 0 83 c0 46 3 87 7 90 3 4 17 7 30 7 22 0 23
-2 22 -90z m91 0 l0 -90 -40 0 -40 0 0 90 0 90 40 0 40 0 0 -90z m80 -5 l0
-95 -30 0 -30 0 0 95 0 95 30 0 30 0 0 -95z m91 33 c1 -35 2 -76 3 -93 1 -28
-1 -30 -41 -33 l-43 -3 0 89 c0 49 3 92 7 95 3 4 21 7 40 7 l33 0 1 -62z"/>
</g>
</svg>
