<?xml version="1.0" standalone="no"?>
<!DOCTYPE svg PUBLIC "-//W3C//DTD SVG 20010904//EN"
 "http://www.w3.org/TR/2001/REC-SVG-20010904/DTD/svg10.dtd">
<svg version="1.0" xmlns="http://www.w3.org/2000/svg"
 width="223.000000pt" height="335.000000pt" viewBox="0 0 223.000000 335.000000"
 preserveAspectRatio="xMidYMid meet">
<metadata>
Created by potrace 1.16, written by Peter Selinger 2001-2019
</metadata>
<g transform="translate(0.000000,335.000000) scale(0.100000,-0.100000)"
fill="#000000" stroke="none">
<path d="M1830 3239 c-222 -44 -502 -110 -680 -160 -19 -5 -44 -12 -55 -15
-29 -8 -38 -10 -55 -17 -30 -11 -116 -38 -160 -51 -25 -7 -62 -20 -82 -29 -20
-8 -38 -13 -41 -11 -2 3 -10 -2 -17 -11 -7 -8 -19 -15 -27 -15 -8 0 -53 -18
-99 -40 -47 -22 -91 -40 -99 -40 -8 0 -15 -4 -15 -9 0 -5 -30 -27 -68 -49
-126 -75 -265 -244 -318 -387 -6 -18 -10 -32 -17 -60 -1 -5 -5 -14 -9 -20 -3
-5 -9 -26 -14 -45 -31 -139 -41 -276 -20 -299 8 -9 16 -23 18 -31 4 -20 15
-34 71 -91 26 -28 47 -59 47 -69 0 -20 42 -56 97 -84 52 -26 230 -64 333 -71
52 -4 191 -8 309 -10 118 -3 218 -8 221 -12 4 -4 11 -48 14 -98 4 -49 9 -110
11 -135 3 -25 7 -79 10 -120 4 -61 29 -320 39 -405 5 -37 16 -159 21 -225 3
-35 7 -76 9 -90 11 -70 27 -195 37 -283 9 -86 9 -100 -5 -110 -13 -10 -14 -18
-4 -49 6 -21 15 -35 20 -32 4 3 12 -4 16 -16 8 -21 8 -21 20 4 6 14 20 26 29
27 39 1 79 9 98 18 11 5 69 19 129 31 60 11 141 30 180 41 39 11 86 22 105 25
19 3 40 8 45 13 19 14 134 34 160 27 14 -3 27 -2 30 2 4 7 -15 69 -41 132 -3
8 -7 17 -8 20 0 3 -11 37 -23 75 -27 89 -68 313 -79 430 -15 183 -6 520 33
1129 8 126 19 270 25 320 12 94 14 122 23 294 3 57 7 106 10 110 2 4 7 61 10
127 4 66 9 127 11 135 2 8 7 55 10 104 5 68 3 91 -7 97 -18 12 -81 11 -73 0
14 -24 -20 -19 -61 8 -49 33 -47 33 -114 20z m163 -149 c-4 -88 -12 -170 -18
-180 -3 -5 -1 -10 5 -10 6 0 8 -5 3 -12 -4 -7 -8 -38 -10 -68 -1 -30 -4 -91
-7 -135 -3 -44 -7 -145 -10 -225 -3 -80 -8 -201 -11 -270 -3 -69 -7 -206 -10
-305 -3 -99 -7 -214 -10 -255 -8 -115 -14 -206 -22 -305 -9 -129 -9 -418 0
-499 4 -38 15 -112 24 -165 8 -53 17 -103 18 -111 1 -8 5 -22 8 -30 17 -45 67
-244 62 -248 -3 -3 -13 -6 -23 -7 -9 -1 -24 -5 -32 -8 -8 -3 -40 -8 -70 -12
-61 -6 -241 -33 -280 -41 -28 -5 -87 -15 -110 -18 -9 -1 -20 -5 -25 -8 -6 -3
-38 -9 -72 -13 -49 -5 -64 -4 -67 7 -4 12 -13 205 -21 502 -4 119 -9 207 -24
391 -6 66 -13 170 -16 230 -3 61 -8 142 -11 180 -12 129 -11 145 5 146 57 5
180 12 491 25 80 3 147 8 149 10 12 11 -23 14 -235 19 -560 14 -834 23 -874
30 -14 2 -54 7 -90 11 -36 3 -68 8 -72 10 -4 3 -30 7 -59 10 -68 8 -193 48
-249 82 -25 15 -52 30 -61 34 -9 3 -42 36 -73 72 -42 47 -61 79 -72 118 -17
65 -11 146 16 191 10 17 29 52 41 77 33 65 103 162 150 209 99 98 207 186 242
196 12 4 31 15 42 25 11 9 36 23 55 30 19 7 63 26 96 41 34 16 69 29 77 29 9
0 18 4 22 9 3 5 20 13 38 17 17 3 45 13 62 20 23 10 188 61 250 78 6 2 17 6
25 9 8 3 31 8 50 10 19 3 87 18 150 35 63 17 129 33 145 36 17 3 82 16 145 29
199 42 214 45 240 43 22 -1 25 -5 23 -36z"/>
<path d="M3 1401 c0 -11 5 -18 9 -15 4 3 5 11 1 19 -7 21 -12 19 -10 -4z"/>
</g>
</svg>
