<?xml version="1.0" standalone="no"?>
<!DOCTYPE svg PUBLIC "-//W3C//DTD SVG 20010904//EN"
 "http://www.w3.org/TR/2001/REC-SVG-20010904/DTD/svg10.dtd">
<svg version="1.0" xmlns="http://www.w3.org/2000/svg"
 width="316.000000pt" height="123.000000pt" viewBox="0 0 316.000000 123.000000"
 preserveAspectRatio="xMidYMid meet">
<metadata>
Created by potrace 1.16, written by Peter Selinger 2001-2019
</metadata>
<g transform="translate(0.000000,123.000000) scale(0.100000,-0.100000)"
fill="#000000" stroke="none">
<path d="M182 1221 c-10 -6 -5 -14 21 -30 19 -11 38 -21 41 -21 4 0 53 -22
108 -50 55 -27 105 -50 110 -50 5 0 30 -10 56 -22 43 -19 194 -76 217 -81 28
-6 31 -22 6 -33 -14 -6 -39 -17 -56 -24 -16 -7 -35 -14 -41 -16 -10 -2 -281
-134 -314 -154 -26 -15 -84 -38 -113 -45 -21 -6 -27 -13 -25 -29 2 -11 8 -21
13 -22 20 -1 115 -47 115 -55 0 -5 6 -9 14 -9 7 0 19 -7 26 -15 7 -8 21 -15
31 -15 11 0 19 -3 19 -8 0 -4 20 -16 45 -27 25 -11 45 -23 45 -27 0 -5 7 -8
15 -8 8 0 39 -14 68 -30 30 -17 61 -30 70 -30 9 0 17 -4 17 -10 0 -5 3 -9 8
-8 4 1 24 -6 46 -15 21 -9 41 -17 44 -17 4 0 15 -9 27 -20 27 -27 121 -100
129 -100 4 0 24 -11 46 -25 22 -14 46 -25 55 -25 8 0 15 -4 15 -9 0 -5 43 -30
95 -57 52 -26 95 -52 95 -56 0 -11 27 -10 34 1 3 5 -18 24 -47 42 -28 19 -57
39 -64 45 -6 6 -35 26 -65 45 -29 18 -55 36 -58 39 -6 6 -35 22 -90 51 -47 25
-44 40 13 65 23 10 44 21 47 24 6 6 34 22 112 62 35 18 74 43 88 55 14 13 31
23 38 23 15 0 36 20 39 37 2 8 -9 7 -35 -4 -52 -21 -189 -89 -279 -138 -36
-19 -154 -75 -159 -75 -2 0 -1 7 2 15 4 10 -3 18 -19 24 -14 5 -28 15 -32 21
-3 5 -23 17 -43 26 -20 8 -45 22 -55 31 -10 9 -25 18 -34 19 -9 2 -19 7 -22
12 -3 4 -13 12 -21 16 -8 3 -37 20 -65 36 -27 15 -69 39 -92 51 -24 12 -43 26
-43 31 0 4 -7 8 -16 8 -15 0 -44 23 -44 34 0 3 5 6 10 6 6 0 29 14 52 30 23
17 75 46 117 66 42 20 87 44 101 54 14 9 36 20 50 23 14 3 35 15 46 25 11 11
30 23 42 26 12 4 22 12 22 17 0 17 35 9 48 -11 7 -11 18 -20 25 -20 6 0 44
-16 82 -35 39 -19 76 -35 83 -35 6 0 12 -4 12 -10 0 -5 8 -10 18 -10 9 0 34
-11 55 -25 20 -14 37 -23 37 -19 0 3 6 2 13 -3 14 -12 79 -34 88 -30 3 1 13
-4 22 -12 11 -9 17 -10 17 -2 0 6 -4 11 -10 11 -18 0 -25 3 -44 22 -11 10 -23
18 -27 18 -4 0 -14 6 -21 13 -7 6 -40 25 -73 42 -33 16 -62 32 -65 35 -3 3
-36 21 -73 40 -67 34 -104 70 -73 70 16 0 146 71 192 106 18 13 37 25 45 26 7
2 20 8 28 15 9 6 36 27 61 46 l46 33 34 -19 c90 -50 245 -127 257 -127 7 0 13
-3 13 -8 0 -8 60 -31 105 -39 27 -5 24 -2 -22 31 -29 20 -57 36 -63 36 -5 0
-10 5 -10 10 0 6 -6 10 -13 10 -8 0 -33 14 -55 30 -23 17 -49 30 -57 30 -8 0
-15 3 -15 8 0 10 -58 42 -76 42 -8 0 -14 4 -14 9 0 13 -31 19 -50 10 -32 -15
-87 -38 -130 -55 -25 -10 -56 -26 -70 -35 -14 -9 -85 -47 -158 -85 -110 -55
-137 -66 -150 -56 -25 17 -201 102 -212 102 -6 0 -10 5 -10 10 0 6 -4 10 -9
10 -5 0 -35 12 -67 26 -33 14 -60 26 -61 25 -3 -1 -87 40 -145 70 -22 11 -69
11 -86 0z"/>
<path d="M2376 1023 c-1 -1 -127 -5 -281 -8 -340 -8 -345 -9 -345 -41 0 -12
22 -14 143 -10 78 3 154 8 170 11 15 3 27 2 27 -2 0 -5 25 -8 55 -8 30 0 55 2
55 5 0 3 24 5 53 6 245 4 643 27 654 38 6 6 -24 10 -42 6 -5 -1 -17 -2 -25 -1
-23 2 -461 6 -464 4z"/>
<path d="M1700 966 c0 -9 -7 -16 -16 -16 -8 0 -12 -4 -9 -10 3 -5 -1 -10 -9
-10 -17 0 -87 -34 -129 -63 -15 -10 -65 -38 -110 -62 -117 -60 -146 -78 -152
-93 -8 -22 27 -26 59 -7 17 10 63 35 101 56 39 21 80 47 92 59 12 11 28 20 35
20 7 0 19 9 26 20 7 11 18 20 26 20 15 0 87 55 99 75 4 8 3 16 -3 20 -5 3 -10
-1 -10 -9z"/>
<path d="M1345 600 c-6 -9 20 -39 62 -70 21 -16 30 -21 118 -70 33 -18 67 -39
76 -46 8 -8 23 -14 32 -14 9 0 17 -3 17 -8 0 -8 91 -52 109 -52 5 0 15 -8 20
-18 11 -21 -10 -45 -50 -57 -13 -4 -38 -16 -55 -26 -17 -10 -34 -16 -37 -12
-4 3 -7 1 -7 -5 0 -7 -4 -12 -10 -12 -5 0 -38 -13 -72 -30 -34 -16 -65 -30
-70 -30 -5 0 -14 -5 -21 -10 -29 -25 -89 -60 -102 -60 -18 0 -24 -21 -13 -42
8 -17 10 -17 46 0 20 9 45 24 54 33 10 8 39 26 65 39 27 13 67 36 90 52 23 15
47 28 53 28 13 0 115 74 150 108 14 14 20 23 14 19 -6 -3 -18 2 -27 11 -22 24
-30 30 -142 107 -55 37 -114 79 -131 92 -17 12 -34 23 -37 23 -3 0 -26 14 -50
30 -46 31 -71 37 -82 20z"/>
<path d="M1296 573 c-6 -14 -5 -15 5 -6 7 7 10 15 7 18 -3 3 -9 -2 -12 -12z"/>
<path d="M1849 344 c-25 -30 -4 -42 83 -43 46 -1 121 -3 168 -6 47 -2 257 -7
468 -10 306 -4 382 -3 376 7 -6 10 -5 10 7 1 12 -10 40 -11 79 -3 3 0 -3 5
-13 11 -18 11 -57 13 -412 25 -110 4 -220 8 -245 9 -25 1 -135 6 -245 10 -110
4 -212 8 -227 10 -15 2 -32 -3 -39 -11z"/>
<path d="M675 294 c-49 -19 -103 -41 -120 -49 -16 -7 -55 -23 -85 -36 -30 -13
-57 -26 -60 -30 -3 -3 -23 -12 -45 -20 -44 -15 -164 -75 -179 -90 -14 -13 8
-32 36 -31 22 0 121 39 158 62 34 21 143 70 156 70 8 0 14 3 14 8 0 4 17 16
38 26 20 10 46 23 57 29 37 20 119 59 143 68 25 10 21 29 -6 29 -9 -1 -57 -17
-107 -36z"/>
<path d="M3040 290 c0 -5 11 -10 25 -10 14 0 25 5 25 10 0 6 -11 10 -25 10
-14 0 -25 -4 -25 -10z"/>
<path d="M1280 56 c7 -7 14 -6 21 1 9 9 7 12 -9 10 -14 -1 -18 -5 -12 -11z"/>
</g>
</svg>
