<?xml version="1.0" standalone="no"?>
<!DOCTYPE svg PUBLIC "-//W3C//DTD SVG 20010904//EN"
 "http://www.w3.org/TR/2001/REC-SVG-20010904/DTD/svg10.dtd">
<svg version="1.0" xmlns="http://www.w3.org/2000/svg"
 width="454.000000pt" height="304.000000pt" viewBox="0 0 454.000000 304.000000"
 preserveAspectRatio="xMidYMid meet">
<metadata>
Created by potrace 1.16, written by Peter Selinger 2001-2019
</metadata>
<g transform="translate(0.000000,304.000000) scale(0.100000,-0.100000)"
fill="#000000" stroke="none">
<path d="M1124 3033 c11 -11 74 -14 326 -14 124 -1 239 4 255 9 21 7 -59 11
-279 11 -170 1 -306 -2 -302 -6z"/>
<path d="M2707 2406 c4 -5 -1 -7 -10 -3 -11 4 -14 2 -10 -8 3 -8 -2 -18 -11
-21 -9 -3 -16 -12 -16 -20 0 -8 -4 -14 -9 -14 -5 0 -13 -9 -16 -20 -4 -11 -20
-35 -35 -52 -16 -18 -28 -34 -25 -36 2 -2 -7 -16 -21 -31 -14 -14 -27 -36 -30
-48 -4 -13 -10 -20 -15 -17 -5 3 -9 -1 -9 -9 0 -8 -7 -20 -15 -27 -8 -7 -15
-21 -15 -30 0 -10 -4 -20 -8 -22 -11 -4 -72 -106 -72 -119 0 -5 -4 -7 -10 -4
-6 3 -10 -5 -10 -18 0 -14 -7 -28 -16 -31 -8 -3 -13 -10 -10 -15 4 -5 -1 -16
-9 -25 -9 -9 -18 -26 -20 -38 -3 -12 -8 -24 -12 -27 -5 -3 -9 -17 -11 -31 -1
-13 -7 -27 -13 -31 -6 -3 -11 -10 -11 -15 -1 -14 -9 -37 -19 -58 -8 -14 -8
-16 3 -10 7 4 10 4 6 -1 -4 -4 -18 -13 -30 -20 -14 -7 -22 -19 -20 -31 1 -10
3 -36 4 -56 1 -20 6 -34 10 -32 5 3 8 -6 8 -21 0 -14 8 -38 18 -52 13 -21 14
-25 2 -19 -12 7 -13 6 -2 -5 6 -7 12 -21 12 -30 0 -9 7 -22 15 -29 8 -7 12
-16 10 -21 -3 -4 3 -26 14 -47 11 -22 18 -42 15 -44 -2 -3 2 -11 11 -18 8 -7
15 -21 15 -32 0 -10 7 -21 15 -24 8 -4 13 -9 10 -13 -2 -4 5 -24 15 -44 11
-21 17 -37 14 -37 -3 0 2 -7 10 -16 9 -8 16 -22 16 -30 0 -8 4 -14 9 -14 5 0
11 -9 14 -21 3 -12 10 -18 16 -14 7 4 11 -4 11 -20 0 -15 4 -24 10 -20 6 3 14
-5 20 -20 5 -14 17 -28 25 -31 13 -5 13 -9 3 -22 -8 -9 -8 -13 -2 -9 11 6 37
-14 31 -24 -1 -2 0 -3 2 -1 6 3 41 -30 41 -40 0 -4 19 -28 43 -52 23 -24 53
-58 66 -75 13 -16 28 -28 33 -25 4 3 8 1 8 -5 0 -5 12 -23 26 -40 14 -17 22
-31 17 -31 -81 -5 -843 0 -856 5 -9 4 -30 2 -46 -4 -21 -9 -34 -9 -54 0 -15 7
-27 16 -27 21 0 5 -4 7 -9 4 -5 -4 -23 5 -39 19 -16 13 -32 22 -36 18 -3 -3
-6 -1 -6 6 0 7 -4 9 -10 6 -5 -3 -17 3 -27 15 -10 11 -25 20 -35 20 -9 0 -23
6 -30 13 -7 6 -20 13 -28 15 -8 2 -17 7 -20 11 -3 4 -17 11 -32 15 -16 3 -28
11 -28 16 0 6 -7 10 -15 10 -14 0 -35 9 -75 32 -34 19 -44 21 -61 10 -10 -7
-24 -12 -32 -12 -7 0 -29 -9 -50 -20 -21 -11 -43 -18 -49 -14 -6 4 -9 1 -6 -7
3 -8 19 -14 40 -14 30 0 35 2 28 16 -7 12 -4 15 13 13 12 -1 30 -3 41 -3 11
-1 16 -6 13 -15 -4 -9 2 -12 19 -10 13 1 31 -4 38 -12 8 -8 21 -14 30 -14 8 0
21 -7 30 -15 8 -8 26 -16 40 -17 13 -1 23 -5 20 -9 -4 -7 43 -28 76 -35 8 -1
20 -10 27 -19 6 -10 16 -14 22 -11 5 3 17 -1 25 -10 9 -9 16 -11 16 -4 0 7 6
5 16 -4 8 -9 24 -16 35 -16 11 0 17 -4 14 -10 -4 -6 7 -10 24 -10 17 0 31 -4
31 -9 0 -12 -60 -42 -71 -36 -4 3 -10 1 -14 -5 -3 -5 -13 -10 -21 -10 -9 0
-22 -6 -29 -14 -8 -7 -25 -12 -39 -11 -15 2 -24 -1 -20 -6 3 -5 -4 -9 -14 -9
-11 0 -25 -7 -32 -15 -7 -8 -20 -15 -29 -15 -9 0 -29 -7 -45 -15 -15 -8 -34
-15 -41 -15 -7 0 -18 -7 -25 -15 -7 -8 -16 -13 -20 -10 -17 10 -38 -7 -44 -36
-3 -18 -10 -28 -17 -24 -6 4 -8 14 -5 22 3 8 2 11 -4 8 -5 -3 -26 3 -46 14
-36 20 -54 20 -54 0 0 -5 9 -9 20 -9 11 0 23 -7 27 -16 3 -8 12 -13 19 -10 8
3 31 -9 51 -27 20 -18 33 -26 29 -19 -5 9 -1 15 13 19 11 3 19 9 16 12 -2 4 1
8 8 9 29 2 48 9 59 20 7 7 18 12 26 12 7 0 20 6 27 14 8 7 25 12 39 11 18 -2
23 1 19 11 -5 13 12 18 54 17 7 -1 10 3 7 8 -6 10 36 29 49 22 4 -2 7 1 7 6 0
6 3 10 8 9 15 -4 52 14 47 23 -3 5 0 6 8 3 8 -3 22 2 31 11 12 12 16 13 16 3
0 -10 2 -10 9 1 12 18 39 23 61 11 10 -5 20 -6 24 -3 11 11 149 4 157 -8 5 -8
8 -8 11 1 2 8 23 12 61 11 93 -3 110 -2 162 2 28 3 58 0 69 -5 14 -8 17 -7 11
3 -5 8 -4 10 4 5 6 -4 69 -7 139 -6 70 1 133 1 140 1 17 -1 1 -1 427 0 233 1
387 5 399 11 14 7 17 7 11 -2 -5 -9 -2 -10 11 -3 21 10 55 10 72 -1 6 -3 13
-2 16 3 3 5 32 8 64 6 31 -1 63 2 70 8 9 7 16 7 24 -1 8 -8 16 -7 28 1 14 8
22 8 33 -2 10 -8 17 -9 22 -1 9 14 28 13 19 -2 -6 -11 -4 -11 7 0 7 6 17 12
22 12 4 0 5 -6 1 -12 -5 -9 -2 -9 9 1 14 11 20 11 34 0 14 -12 16 -12 8 0 -6
11 -4 13 8 8 16 -6 34 9 23 20 -3 4 -140 8 -303 10 -164 2 -310 8 -325 13 -18
5 -28 5 -28 -1 0 -5 -11 -9 -25 -9 -14 0 -25 3 -25 8 0 4 -16 7 -35 7 -19 0
-35 -3 -35 -6 0 -3 -16 -6 -35 -7 -19 -1 -35 3 -35 10 0 7 -4 7 -14 -1 -11 -9
-15 -9 -19 1 -4 10 -6 10 -6 1 -1 -15 -51 -18 -51 -4 0 5 -26 9 -57 9 -44 0
-57 3 -55 13 2 8 8 15 13 17 5 2 9 10 9 18 0 8 5 13 11 12 6 -2 13 5 14 16 2
10 12 26 22 36 32 31 58 65 55 73 -1 4 3 7 8 7 6 0 15 12 20 26 6 14 15 22 20
19 6 -4 9 -3 8 2 -4 14 38 73 47 65 5 -4 5 -2 1 5 -4 7 2 21 14 33 11 11 21
26 23 32 1 7 7 18 14 26 7 7 10 19 7 26 -3 8 0 17 7 22 8 5 10 3 4 -6 -5 -9
-4 -11 3 -6 7 4 12 16 12 28 0 15 4 18 16 14 14 -5 15 -4 4 9 -9 11 -9 15 -1
15 7 0 10 4 6 9 -3 5 1 16 9 24 8 7 17 29 20 47 2 18 9 36 15 40 6 3 12 20 14
38 2 18 7 35 10 39 4 3 7 15 7 26 0 11 8 26 18 34 9 8 11 12 5 8 -15 -7 -17 7
-3 21 5 5 11 23 12 39 1 17 7 33 13 37 6 5 5 8 -3 8 -7 0 -10 5 -7 10 4 6 9 8
13 6 4 -2 8 15 9 37 0 23 4 73 8 110 6 53 4 67 -6 65 -7 -2 -18 7 -24 19 -7
13 -15 20 -18 16 -4 -3 -7 3 -7 14 0 11 -7 26 -15 33 -8 7 -15 19 -15 26 0 8
-4 22 -9 32 -5 9 -12 25 -15 35 -3 10 -10 15 -16 12 -9 -5 -15 15 -11 38 1 5
-2 6 -7 3 -8 -5 -48 65 -41 73 2 2 -6 8 -19 12 -13 5 -20 13 -17 19 3 5 1 10
-6 10 -7 0 -10 3 -6 6 3 3 -2 14 -11 24 -39 42 -65 76 -75 97 -6 13 -14 23
-19 23 -4 0 -8 7 -8 15 0 8 -6 15 -14 15 -8 0 -16 10 -18 22 -2 12 -12 27 -23
33 -11 6 -21 17 -23 25 -2 8 -10 19 -18 23 -8 5 -12 12 -9 18 4 5 -1 9 -9 9
-9 0 -16 7 -16 15 0 8 -6 14 -12 12 -7 -1 -12 6 -12 15 1 10 -2 15 -7 12 -5
-3 -9 1 -9 10 0 31 -98 71 -127 53 -7 -5 -13 -5 -13 0 0 4 -13 8 -29 8 -17 1
-27 -3 -24 -9z m104 -76 c1 -5 2 -14 3 -19 0 -5 5 -13 10 -18 5 -5 6 -3 2 5
-4 6 -2 12 3 12 6 0 11 -6 11 -14 0 -8 7 -17 16 -20 9 -3 14 -12 11 -20 -3 -8
1 -13 11 -12 11 1 16 -5 14 -18 -2 -10 1 -15 6 -12 6 3 13 -1 16 -10 3 -8 10
-13 15 -10 5 3 11 -4 14 -15 3 -12 10 -18 15 -15 5 3 12 -4 15 -15 3 -12 10
-18 16 -14 7 3 8 0 5 -9 -4 -11 0 -16 10 -16 9 0 16 -5 16 -10 0 -6 9 -20 20
-32 10 -12 17 -26 13 -31 -4 -6 -1 -7 6 -3 8 5 14 0 18 -13 3 -11 9 -18 14
-15 5 3 9 -2 9 -10 0 -9 7 -16 16 -16 8 0 13 -4 10 -9 -3 -4 3 -16 14 -26 11
-10 16 -24 13 -33 -4 -10 -2 -13 5 -8 7 4 15 -2 21 -16 5 -13 18 -32 30 -42
11 -11 21 -25 21 -33 0 -8 14 -28 30 -45 17 -16 28 -34 24 -39 -3 -5 2 -9 10
-9 9 0 16 -7 16 -15 0 -8 5 -15 11 -15 5 0 8 -4 4 -9 -3 -5 -1 -12 3 -15 9 -5
8 -27 -2 -74 -3 -12 -7 -25 -10 -30 -2 -4 -5 -30 -7 -57 -1 -28 -8 -60 -15
-72 -17 -28 -18 -36 -1 -27 10 6 10 4 0 -7 -7 -7 -13 -26 -13 -42 0 -15 -4
-26 -9 -23 -5 4 -8 -5 -6 -19 1 -14 -1 -28 -5 -30 -4 -3 -7 -16 -7 -31 0 -14
-5 -29 -11 -33 -6 -4 -14 -22 -17 -41 -3 -19 -9 -37 -13 -40 -4 -3 -9 -16 -10
-30 -2 -14 -10 -32 -18 -41 -8 -8 -14 -23 -14 -32 0 -9 -4 -19 -10 -22 -5 -3
-10 -15 -10 -26 0 -11 -7 -22 -15 -25 -8 -4 -15 -12 -15 -20 0 -8 -5 -14 -11
-14 -5 0 -7 -4 -4 -10 3 -5 2 -10 -2 -10 -5 0 -10 -10 -10 -22 -1 -13 -7 -24
-13 -26 -5 -2 -10 -10 -10 -18 0 -8 -4 -14 -10 -14 -5 0 -10 -7 -10 -15 0 -8
-14 -30 -31 -49 -17 -20 -28 -39 -25 -44 3 -5 -3 -17 -14 -27 -11 -10 -20 -24
-20 -32 0 -8 -9 -24 -21 -36 -12 -12 -25 -33 -30 -47 -5 -14 -18 -31 -29 -38
-17 -10 -23 -9 -37 7 -30 33 -43 50 -43 56 0 3 -11 18 -25 33 -14 15 -25 33
-25 40 0 7 -4 10 -10 7 -5 -3 -11 -1 -11 4 -1 6 -2 14 -3 19 0 4 -11 18 -23
31 -13 14 -25 33 -29 43 -3 10 -10 18 -15 18 -5 0 -9 6 -9 13 0 7 -11 24 -25
39 -14 15 -25 33 -25 40 0 8 -9 21 -20 31 -12 10 -18 23 -14 29 4 6 3 8 -3 5
-6 -4 -19 13 -29 36 -10 23 -21 44 -25 47 -15 11 -48 84 -42 93 3 6 1 7 -6 3
-11 -7 -18 3 -23 39 -2 11 -7 23 -11 26 -5 4 -10 18 -10 31 -1 14 -6 24 -12
22 -5 -2 -11 10 -12 27 -1 17 -8 38 -15 46 -14 17 -19 35 -21 75 -1 14 -5 24
-9 22 -4 -2 -8 10 -10 28 -2 18 -8 32 -14 31 -6 -1 -11 8 -11 20 -1 65 -4 88
-11 83 -4 -2 -9 11 -10 30 -2 19 2 34 8 34 5 0 10 6 10 13 0 8 9 24 20 37 11
12 17 27 13 33 -3 5 -2 7 4 4 5 -3 20 16 34 43 13 26 28 46 33 43 5 -4 6 -1 2
6 -7 11 30 82 46 89 4 2 8 12 8 22 0 9 7 23 15 30 8 7 15 19 15 27 0 8 4 12 9
9 5 -3 11 4 14 15 4 13 10 18 18 13 8 -5 10 -3 4 5 -4 7 2 22 16 37 12 13 19
24 14 24 -5 0 0 7 11 16 10 8 12 12 4 8 -13 -7 -13 -6 0 11 8 10 27 32 43 47
15 16 25 33 22 38 -3 6 1 7 9 4 11 -4 16 0 16 11 0 25 81 104 108 104 12 1 23
-3 23 -9z"/>
<path d="M2640 2022 c0 -7 -6 -12 -12 -11 -33 4 -55 -2 -55 -16 0 -11 12 -15
49 -15 31 0 48 -4 48 -12 0 -9 3 -9 12 0 16 16 80 15 97 0 11 -10 13 -10 7 0
-6 9 19 12 110 12 89 0 115 3 107 11 -7 7 -57 14 -112 17 -65 3 -101 9 -101
16 0 6 -5 4 -10 -4 -9 -13 -11 -13 -20 0 -5 8 -10 10 -10 4 0 -16 -92 -17
-102 -2 -6 10 -8 10 -8 0z"/>
<path d="M2570 1810 c0 -6 6 -8 13 -4 9 6 9 4 1 -7 -13 -16 -15 -51 -2 -43 4
3 8 1 8 -3 0 -5 29 -8 65 -8 39 0 64 4 61 10 -2 6 61 10 178 11 229 1 306 5
312 16 3 4 -5 8 -18 9 -65 3 -84 5 -93 10 -5 2 -47 4 -92 4 -45 0 -79 3 -77 7
3 5 -36 8 -85 7 -66 -1 -89 -4 -84 -12 5 -9 3 -9 -8 -1 -19 15 -179 18 -179 4z"/>
<path d="M2570 1591 c0 -10 6 -23 13 -28 10 -8 339 -9 585 -1 48 2 53 22 5 23
-17 0 -34 3 -37 6 -3 3 -26 4 -51 3 -25 -1 -47 2 -50 7 -4 5 -22 9 -41 9 -26
0 -33 -3 -28 -12 6 -10 4 -10 -7 -2 -8 6 -89 11 -201 12 -179 2 -188 1 -188
-17z"/>
<path d="M2572 1378 c-2 -10 -9 -15 -16 -11 -6 3 0 -5 13 -17 24 -24 79 -33
103 -18 7 3 20 2 30 -3 13 -7 20 -6 23 3 3 7 21 14 41 16 31 2 35 -1 30 -15
-6 -17 -5 -17 8 0 7 9 17 17 21 17 4 0 4 -8 1 -17 -5 -15 -3 -14 9 2 14 17 17
18 25 5 8 -12 10 -12 10 -1 0 11 5 10 20 -4 18 -17 20 -17 14 -2 -4 12 -1 17
12 17 9 0 26 -8 36 -17 18 -16 18 -16 12 0 -6 17 -1 18 234 20 12 0 22 4 22 9
0 6 -7 8 -15 5 -8 -4 -17 -2 -20 3 -4 6 -53 10 -111 10 -82 0 -103 3 -98 13 6
9 5 9 -8 0 -8 -7 -18 -10 -22 -6 -4 4 -88 8 -188 8 -166 1 -181 0 -186 -17z"/>
<path d="M604 742 c5 -8 0 -12 -13 -12 -16 0 -21 -6 -21 -25 0 -16 6 -25 15
-25 8 0 14 -6 13 -12 -2 -7 7 -14 19 -16 12 -2 27 -10 33 -18 7 -8 19 -14 28
-14 9 0 26 -10 39 -22 22 -20 38 -27 70 -30 7 -1 10 -5 7 -10 -3 -4 2 -8 10
-8 31 0 24 -19 -14 -39 -22 -12 -45 -21 -51 -21 -6 0 -17 -7 -26 -15 -8 -8
-19 -13 -24 -9 -5 3 -12 -2 -15 -10 -3 -9 -14 -16 -24 -16 -11 0 -35 -9 -54
-21 -19 -11 -41 -17 -47 -13 -8 4 -9 3 -5 -4 4 -7 1 -12 -9 -12 -21 0 -45 -24
-45 -45 0 -11 5 -15 15 -11 8 3 14 0 12 -7 -1 -7 5 -12 13 -12 8 0 14 5 13 11
-1 6 9 10 23 8 13 -1 32 5 41 14 8 9 23 17 32 19 8 1 17 7 19 12 2 6 15 11 28
11 14 0 27 6 30 14 3 8 18 16 33 19 16 3 37 14 47 24 18 19 21 20 55 22 11 0
18 5 14 10 -11 18 30 17 67 -2 21 -10 43 -15 49 -11 7 4 9 3 6 -3 -6 -10 27
-27 46 -24 4 1 7 -3 7 -9 0 -5 9 -10 19 -10 10 0 21 -7 25 -15 3 -8 16 -15 30
-15 13 0 27 -7 30 -16 3 -8 11 -12 17 -9 6 4 23 -5 38 -19 l28 -27 24 20 24
20 -31 6 c-17 4 -43 18 -57 31 -14 13 -30 24 -35 24 -19 0 -62 26 -62 37 0 7
-6 10 -14 7 -7 -3 -20 2 -29 10 -9 9 -20 16 -25 16 -5 0 -21 11 -37 24 l-28
24 24 7 c13 4 29 14 37 22 8 8 21 12 28 9 8 -3 11 0 7 10 -3 9 1 14 13 14 11
0 28 7 38 15 10 8 23 12 27 9 5 -3 9 1 9 8 0 8 10 14 21 15 12 1 27 7 33 14 8
9 7 10 -3 4 -9 -5 -12 -4 -7 3 4 7 19 12 34 12 24 0 25 1 10 17 -14 13 -20 14
-32 3 -9 -7 -16 -9 -16 -4 0 5 -4 3 -8 -3 -4 -7 -19 -14 -32 -16 -13 -2 -26
-9 -28 -15 -2 -7 -12 -12 -23 -12 -10 0 -19 -5 -19 -12 0 -6 -3 -9 -6 -5 -4 3
-24 -3 -45 -13 -21 -11 -45 -20 -54 -20 -8 0 -15 -4 -15 -10 0 -13 -44 -23
-69 -15 -12 3 -18 11 -15 17 4 6 3 9 -2 6 -5 -4 -27 4 -49 17 -22 13 -59 33
-82 45 -24 12 -43 26 -43 31 0 6 -4 8 -9 4 -5 -3 -12 -1 -16 4 -3 6 -20 20
-37 33 -17 12 -28 17 -24 10z"/>
</g>
</svg>
