<?xml version="1.0" standalone="no"?>
<!DOCTYPE svg PUBLIC "-//W3C//DTD SVG 20010904//EN"
 "http://www.w3.org/TR/2001/REC-SVG-20010904/DTD/svg10.dtd">
<svg version="1.0" xmlns="http://www.w3.org/2000/svg"
 width="216.000000pt" height="180.000000pt" viewBox="0 0 216.000000 180.000000"
 preserveAspectRatio="xMidYMid meet">
<metadata>
Created by potrace 1.16, written by Peter Selinger 2001-2019
</metadata>
<g transform="translate(0.000000,180.000000) scale(0.100000,-0.100000)"
fill="#000000" stroke="none">
<path d="M1678 1674 c-4 -3 -33 -8 -65 -10 -32 -3 -74 -9 -93 -14 -77 -20
-126 -31 -155 -34 -16 -2 -50 -10 -75 -18 -25 -8 -56 -16 -70 -16 -14 -1 -26
-6 -28 -12 -2 -5 -8 -8 -12 -5 -12 7 -131 -34 -152 -53 -10 -8 -24 -12 -33 -9
-8 4 -15 3 -15 -1 0 -12 -56 -42 -64 -35 -4 4 -10 3 -14 -3 -14 -20 -103 -87
-108 -81 -8 8 -154 -136 -154 -152 0 -7 -5 -9 -10 -6 -6 4 -9 2 -8 -3 5 -19
-46 -91 -73 -103 -15 -6 -42 -10 -61 -9 -18 1 -81 2 -140 1 -89 -1 -108 -4
-108 -16 0 -19 -2 -19 221 -11 l85 3 -3 -45 c-2 -25 -8 -51 -13 -56 -4 -6 -8
-63 -7 -126 2 -87 6 -123 20 -149 9 -19 17 -35 17 -36 0 0 -48 -1 -107 -2
-224 -1 -213 1 -213 -31 0 -25 3 -27 40 -27 22 0 40 2 40 6 0 3 33 7 73 9 39
1 80 3 90 4 9 0 17 4 17 7 0 4 10 9 22 11 24 4 78 -20 78 -35 0 -19 148 -167
166 -167 7 0 14 -3 16 -8 2 -4 24 -18 51 -32 26 -13 47 -28 47 -33 0 -4 4 -6
9 -2 6 3 25 -4 43 -15 18 -11 39 -20 46 -20 7 0 31 -8 55 -19 50 -22 113 -41
147 -45 14 -1 32 -5 40 -9 8 -4 33 -9 55 -11 22 -3 40 -5 40 -6 0 -3 39 -10
65 -12 14 -1 30 -5 35 -9 6 -4 39 -10 74 -13 35 -4 68 -9 72 -12 4 -2 35 -6
67 -8 33 -2 65 -6 70 -10 6 -3 13 -2 16 3 3 5 21 6 41 1 22 -5 38 -4 44 4 5 6
9 86 8 179 0 92 3 170 6 173 3 3 2 16 -3 29 -6 15 -4 29 4 41 9 14 13 146 14
532 3 508 3 513 -17 503 -25 -14 -34 -14 -25 0 5 8 1 8 -14 0 -27 -15 -30 -14
-28 7 1 12 -8 18 -29 20 -17 2 -34 0 -37 -4z m87 -64 c-4 -12 -2 -20 6 -20 9
0 9 -3 0 -14 -9 -10 -9 -16 -1 -21 8 -5 8 -10 0 -20 -8 -10 -8 -15 0 -20 8 -5
8 -10 0 -20 -8 -10 -8 -15 0 -20 8 -5 8 -10 0 -20 -8 -10 -8 -15 0 -20 8 -5 8
-10 0 -20 -8 -9 -8 -15 0 -20 6 -3 7 -11 3 -18 -10 -16 -10 -58 -1 -63 5 -3 5
-10 1 -16 -9 -16 -10 -139 0 -145 4 -3 3 -11 -3 -18 -8 -9 -8 -15 0 -20 6 -3
7 -11 3 -18 -3 -6 -6 -58 -6 -116 4 -500 6 -592 14 -597 6 -3 5 -12 -2 -21
-10 -11 -10 -16 0 -23 10 -5 10 -9 2 -15 -9 -5 -9 -10 -1 -20 8 -10 8 -15 0
-20 -8 -5 -8 -11 -1 -19 8 -9 5 -19 -9 -34 -20 -22 -47 -23 -135 -6 -22 4 -49
9 -60 10 -11 1 -20 3 -20 4 0 3 -121 30 -158 34 -20 3 -46 10 -58 16 -11 7
-23 10 -25 7 -3 -3 -22 0 -42 5 -20 5 -50 11 -66 14 -17 2 -48 13 -71 24 -23
11 -49 20 -58 20 -9 0 -19 5 -22 10 -3 6 -17 10 -30 10 -13 0 -26 4 -29 9 -3
4 -18 11 -33 14 -16 3 -40 18 -56 32 -15 14 -31 24 -35 21 -5 -3 -25 6 -44 19
-20 13 -38 21 -42 18 -3 -4 -6 -1 -6 5 0 7 -6 12 -13 12 -17 0 -67 55 -67 74
0 10 -6 13 -17 9 -9 -4 -14 -2 -10 3 3 6 -3 17 -14 24 -10 8 -19 20 -19 28 0
7 -4 11 -8 8 -5 -3 -19 27 -32 67 -13 40 -27 77 -31 82 -14 20 -14 109 0 101
5 -3 12 13 15 37 15 113 19 133 31 147 7 8 24 35 39 60 42 73 205 230 238 230
5 0 16 7 24 15 9 8 27 18 42 22 15 3 29 9 32 12 10 12 50 31 64 31 8 0 16 4
18 10 2 5 14 11 28 12 14 2 27 6 30 10 3 4 28 12 55 18 28 7 64 16 81 21 17 5
42 9 57 9 15 0 27 4 27 9 0 5 17 11 38 14 20 3 60 11 87 17 28 7 70 14 95 15
25 2 45 4 45 5 0 3 41 10 90 15 27 3 51 8 54 10 10 10 12 4 6 -15z"/>
<path d="M967 1097 l4 -74 -48 3 c-26 1 -48 3 -48 4 0 1 -20 3 -45 4 l-46 2 1
-46 0 -46 92 2 92 2 0 -64 c0 -46 -4 -62 -12 -57 -20 12 -133 20 -144 9 -11
-10 -11 -76 -1 -82 9 -6 92 -9 101 -4 1 1 14 3 28 5 24 3 26 0 27 -37 1 -23 7
-47 12 -54 8 -8 8 -14 0 -19 -5 -3 -10 -12 -10 -20 0 -10 12 -13 39 -12 22 0
37 5 35 9 -3 4 16 8 43 8 46 0 174 37 181 53 2 4 7 5 12 2 4 -3 13 2 20 10 7
8 21 15 31 15 10 0 24 9 32 20 8 11 17 17 20 13 4 -3 7 1 7 9 0 12 8 15 28 13
15 -2 34 2 42 9 8 7 31 12 50 12 36 -1 66 17 55 34 -6 9 -73 26 -89 22 -4 -2
-14 3 -22 9 -12 10 -12 15 0 34 13 20 13 25 -1 45 -10 14 -12 25 -6 31 10 10
54 21 83 22 8 0 23 6 33 12 20 14 11 24 -26 30 -12 2 -38 6 -57 9 -19 3 -48 7
-65 8 -18 1 -46 15 -68 36 -21 18 -45 31 -52 28 -7 -2 -19 2 -25 10 -7 8 -21
14 -32 14 -11 0 -28 4 -38 10 -20 10 -62 17 -171 25 l-66 5 4 -73z m90 40 c3
-4 13 -1 21 6 13 9 14 9 8 0 -5 -10 4 -13 33 -14 62 -3 66 -3 72 -13 4 -4 20
-9 37 -10 17 -1 37 -7 44 -14 6 -6 18 -12 25 -12 7 0 14 -3 14 -7 3 -16 10
-69 12 -91 2 -22 6 -23 40 -19 51 7 69 -12 63 -65 -3 -22 -8 -43 -11 -46 -2
-3 -26 -6 -52 -6 -42 -1 -48 -4 -46 -21 12 -97 9 -103 -69 -126 -27 -7 -48
-17 -48 -21 0 -4 -14 -8 -31 -8 -16 0 -28 -3 -25 -8 2 -4 -24 -8 -59 -9 -56 0
-62 1 -58 18 3 11 8 19 12 19 14 0 6 93 -8 98 -8 3 -11 0 -7 -7 5 -7 -2 -11
-20 -11 l-27 0 22 19 c13 11 29 17 36 14 9 -3 17 4 21 21 10 40 11 87 2 92 -4
3 -8 18 -8 34 0 16 -7 36 -16 45 -15 14 -15 18 -1 33 13 15 14 20 2 36 -8 10
-12 23 -9 28 3 5 -1 20 -10 33 -15 23 -15 23 9 21 14 -2 28 -6 32 -9z"/>
</g>
</svg>
