<?xml version="1.0" standalone="no"?>
<!DOCTYPE svg PUBLIC "-//W3C//DTD SVG 20010904//EN"
 "http://www.w3.org/TR/2001/REC-SVG-20010904/DTD/svg10.dtd">
<svg version="1.0" xmlns="http://www.w3.org/2000/svg"
 width="175.000000pt" height="176.000000pt" viewBox="0 0 175.000000 176.000000"
 preserveAspectRatio="xMidYMid meet">
<metadata>
Created by potrace 1.16, written by Peter Selinger 2001-2019
</metadata>
<g transform="translate(0.000000,176.000000) scale(0.100000,-0.100000)"
fill="#000000" stroke="none">
<path d="M535 1736 c1 -12 6 -19 10 -16 13 7 13 37 0 37 -6 0 -11 -10 -10 -21z"/>
<path d="M985 1739 c1 -10 4 -22 8 -25 12 -12 8 -26 -5 -18 -6 4 -4 -3 5 -16
13 -18 14 -27 5 -44 -14 -25 -18 -57 -6 -50 4 3 8 -4 8 -16 0 -13 -4 -19 -11
-14 -8 5 -8 1 0 -14 10 -18 8 -20 -14 -17 -14 1 -28 -1 -30 -5 -2 -4 8 -7 23
-6 18 1 27 -4 27 -14 0 -10 -9 -15 -27 -14 -15 1 -25 -2 -23 -6 2 -4 16 -6 30
-5 28 4 31 -4 13 -24 -10 -11 -10 -13 0 -7 8 5 12 0 12 -13 0 -12 -6 -20 -12
-18 -7 1 -12 -4 -10 -12 2 -8 -3 -18 -10 -22 -10 -7 -10 -9 0 -9 6 0 12 -5 12
-11 0 -6 -7 -9 -15 -6 -8 4 -17 1 -21 -5 -4 -6 -3 -8 4 -4 6 3 17 -1 25 -9 14
-13 15 -10 13 30 -1 24 1 42 5 40 10 -7 6 -77 -5 -94 -6 -9 -5 -12 1 -8 6 4
13 -6 15 -24 3 -16 2 -31 -1 -33 -10 -6 -53 13 -48 21 3 5 -7 9 -21 10 -39 2
-83 13 -101 24 -14 9 -14 10 1 5 10 -3 20 -2 22 3 3 4 -8 7 -24 7 -16 0 -27
-3 -24 -8 3 -4 1 -8 -5 -8 -5 0 -13 5 -16 10 -3 6 -13 10 -22 10 -9 0 -25 8
-36 18 -12 10 -17 11 -12 3 5 -10 4 -12 -3 -7 -7 4 -20 9 -29 11 -10 2 -31 9
-48 16 -16 7 -33 12 -37 11 -5 -1 -8 2 -8 6 0 5 -6 9 -12 10 -35 3 -65 9 -76
16 -14 8 -49 18 -73 19 -16 1 -25 46 -10 48 41 6 78 5 87 -2 6 -5 11 -3 11 5
0 10 -11 13 -39 11 -27 -2 -36 0 -31 8 4 8 1 7 -9 -1 -9 -7 -21 -11 -28 -10
-7 2 -13 -7 -15 -19 -1 -13 3 -20 9 -16 6 3 7 2 3 -2 -13 -15 -41 -15 -65 1
-12 8 -27 12 -32 9 -13 -8 -13 8 1 22 8 8 8 13 0 18 -7 4 -10 1 -9 -7 2 -7 -4
-13 -12 -13 -8 0 -14 6 -12 13 1 8 -2 11 -8 7 -6 -3 -7 -11 -4 -17 4 -7 2 -8
-4 -4 -15 9 -52 18 -75 18 -11 -1 -17 5 -15 16 3 19 -25 23 -56 9 -14 -7 -17
-6 -11 5 6 10 5 11 -6 1 -15 -15 -33 -18 -25 -5 3 5 -1 9 -9 9 -12 0 -12 -3
-3 -15 16 -19 -17 -45 -41 -33 -13 7 -16 4 -16 -20 -1 -15 1 -26 4 -24 2 3 10
0 18 -6 11 -10 11 -15 1 -27 -7 -9 -8 -13 -2 -9 14 8 48 -28 39 -43 -3 -6 -3
-10 2 -9 24 4 35 -4 49 -36 8 -19 17 -35 20 -35 3 0 2 6 -1 13 -7 13 11 -9 33
-40 7 -10 10 -11 6 -3 -4 8 5 4 19 -9 15 -14 27 -30 27 -37 0 -7 5 -16 12 -20
7 -5 9 -2 3 7 -4 8 8 -3 28 -23 19 -20 38 -34 42 -30 4 4 5 -2 3 -13 -2 -13 2
-19 11 -17 7 2 21 -4 31 -13 9 -8 19 -13 21 -10 3 2 5 -5 6 -16 1 -12 -2 -17
-10 -13 -7 4 -8 3 -4 -2 5 -5 16 -9 25 -9 10 0 17 -8 17 -20 1 -11 7 -19 14
-17 8 2 25 -7 39 -20 14 -13 22 -16 17 -8 -6 12 -5 13 5 3 10 -10 11 -15 1
-27 -9 -11 -9 -16 0 -22 7 -4 9 -3 5 4 -10 16 14 26 27 12 9 -10 9 -11 -2 -5
-9 5 -12 4 -7 -3 4 -7 13 -12 21 -12 8 0 17 -5 21 -12 4 -7 3 -8 -4 -4 -7 4
-12 5 -12 1 0 -3 11 -10 25 -15 29 -11 29 -23 -1 -65 -11 -16 -23 -38 -27 -48
-4 -11 -12 -15 -18 -11 -7 4 -9 3 -6 -3 7 -11 -11 -31 -26 -31 -5 0 -12 -4
-15 -8 -4 -4 -1 -4 6 0 21 12 13 -7 -15 -37 -16 -17 -21 -26 -13 -22 10 6 8 1
-4 -13 -10 -12 -22 -19 -27 -17 -4 3 -11 0 -15 -6 -4 -7 -3 -9 4 -5 6 4 10 -1
9 -13 0 -11 -5 -17 -9 -15 -4 3 -8 -1 -8 -9 0 -15 -39 -55 -55 -57 -5 -1 -9
-8 -7 -16 3 -13 -10 -19 -32 -15 -5 1 -4 -5 4 -14 11 -13 10 -19 -5 -35 -10
-11 -23 -17 -29 -13 -6 4 -4 -2 4 -13 8 -10 11 -16 6 -12 -5 4 -15 0 -23 -8
-8 -8 -19 -11 -25 -8 -7 4 -8 2 -4 -4 4 -6 14 -8 24 -5 14 6 15 4 5 -9 -7 -8
-9 -19 -5 -24 4 -4 0 -3 -8 3 -13 10 -16 8 -16 -7 0 -10 5 -16 11 -13 5 3 -3
-9 -20 -27 -16 -18 -24 -30 -18 -26 9 5 11 2 7 -8 -3 -9 -11 -16 -17 -16 -6 0
-7 -3 -4 -7 4 -3 -1 -12 -11 -20 -11 -10 -12 -12 -2 -8 10 4 10 2 -2 -8 -12
-9 -14 -17 -7 -24 10 -10 -4 -27 -23 -28 -5 0 -7 -4 -6 -10 1 -5 9 -8 17 -7
13 3 13 1 2 -12 -7 -9 -18 -13 -24 -9 -6 4 -7 1 -2 -6 5 -9 10 -10 18 -2 15
15 30 14 21 -1 -4 -7 -3 -8 4 -4 6 4 8 14 5 22 -8 21 25 15 51 -8 25 -23 27
-23 56 4 18 17 22 18 17 5 -3 -9 -2 -19 4 -22 5 -4 9 -3 8 2 -4 23 2 35 16 30
8 -4 17 -1 21 5 5 7 2 8 -6 3 -8 -5 -11 -4 -6 3 9 15 38 3 29 -12 -3 -6 -2 -7
3 -3 5 5 9 16 9 25 0 9 8 17 17 17 9 0 20 4 25 9 4 5 3 6 -5 2 -6 -4 -12 -5
-12 -2 0 5 59 36 69 36 3 0 -1 -5 -9 -11 -13 -9 -13 -10 0 -6 8 2 14 11 12 20
-2 11 4 15 22 13 14 -2 23 0 21 4 -5 8 34 38 45 36 3 -1 16 9 30 21 22 21 35
27 43 21 1 -2 13 7 27 20 13 12 32 22 42 22 10 0 18 4 18 8 0 11 91 58 103 54
5 -1 6 2 2 8 -3 5 1 10 9 10 9 0 25 9 36 20 11 11 26 20 33 20 6 0 25 11 41
25 16 13 33 22 37 19 5 -3 9 0 9 5 0 6 7 11 16 11 13 0 15 -9 12 -49 -3 -28
-2 -48 1 -46 9 5 7 -348 -1 -361 -4 -6 1 -10 14 -9 14 1 22 9 23 23 1 12 -2
19 -7 16 -10 -6 -11 10 -1 20 11 11 11 46 -1 39 -8 -5 -8 -3 0 8 15 20 16 61
1 52 -9 -5 -9 -3 0 8 6 8 10 27 9 42 -2 15 1 27 5 27 5 0 9 5 9 11 0 5 -6 7
-12 3 -10 -6 -10 -4 0 7 8 9 12 50 12 131 l0 118 33 20 c17 10 37 24 44 29 7
6 18 11 25 11 7 0 33 16 57 35 24 19 46 33 49 31 2 -3 11 2 19 10 8 8 19 11
25 8 7 -4 8 -2 4 4 -4 7 -1 12 8 12 8 0 21 6 28 13 7 8 30 22 51 32 20 9 37
21 37 26 0 5 9 9 20 9 18 0 25 10 21 33 0 4 6 7 15 7 8 0 22 7 31 15 8 8 19
13 24 10 5 -4 9 -1 9 4 0 6 6 11 14 11 7 0 19 7 26 15 7 8 17 12 23 8 6 -3 7
-1 3 5 -5 8 0 12 13 12 12 0 20 -5 18 -11 -1 -6 4 -13 11 -15 7 -1 8 0 2 3 -8
3 -7 9 1 19 9 11 9 14 0 14 -8 0 -8 4 1 14 7 8 15 10 18 6 3 -4 14 2 25 12 11
11 16 19 10 18 -5 -1 -13 -1 -17 0 -5 1 -14 3 -20 4 -7 1 -12 7 -11 14 4 15
-13 16 -22 2 -4 -7 -13 -6 -26 1 -12 6 -23 8 -27 5 -3 -4 -17 4 -30 16 -14 13
-22 18 -18 11 3 -6 -18 2 -49 18 -30 16 -55 26 -55 23 0 -4 -7 -1 -15 6 -8 7
-12 17 -8 23 3 6 1 7 -5 3 -6 -4 -8 -14 -5 -23 5 -13 1 -12 -17 5 -13 12 -29
21 -34 21 -33 -4 -57 2 -53 14 2 6 11 12 20 12 9 0 17 5 16 10 0 6 -7 9 -16 7
-10 -2 -14 2 -10 11 3 7 -1 14 -8 14 -10 0 -11 -5 -5 -17 6 -12 3 -21 -11 -33
-10 -9 -19 -13 -19 -9 0 4 -9 13 -21 20 -14 9 -19 10 -14 2 6 -9 2 -9 -15 0
-12 6 -31 10 -41 7 -10 -3 -17 -1 -13 4 3 5 -8 9 -25 9 -16 0 -33 5 -36 11 -4
6 -13 8 -21 5 -7 -3 -16 -1 -20 5 -11 18 -12 59 -1 66 6 4 7 1 2 -8 -5 -8 -4
-11 0 -6 12 11 13 47 2 54 -6 3 -7 1 -3 -5 3 -6 2 -13 -3 -16 -5 -4 -8 2 -6
11 2 10 4 22 4 26 1 5 5 6 9 3 5 -3 9 1 9 9 0 8 -4 12 -8 10 -15 -10 -17 24
-2 46 9 12 12 20 7 17 -5 -4 -9 9 -9 27 0 19 4 31 10 27 6 -3 4 2 -4 11 -11
14 -11 20 0 34 8 9 10 14 4 11 -6 -4 -10 8 -10 27 0 19 4 31 10 28 6 -3 4 0
-2 8 -7 7 -13 17 -13 22 0 4 6 5 13 1 10 -6 10 -4 0 7 -19 19 -16 26 10 25 28
-3 39 3 32 15 -4 5 -14 5 -25 -1 -25 -13 -37 5 -18 27 7 9 8 14 3 11 -6 -4
-11 2 -11 12 0 10 3 17 6 15 3 -2 6 5 6 15 0 15 -9 18 -56 18 -49 0 -56 -3
-55 -19z m-803 -333 c4 3 16 1 27 -5 11 -7 36 -12 54 -13 37 -1 70 -20 65 -36
-2 -5 2 -9 7 -9 6 1 8 8 6 17 -2 12 1 12 16 -3 11 -9 23 -14 26 -11 4 4 14 1
24 -7 9 -8 14 -9 11 -4 -4 6 2 11 12 11 10 0 16 -4 14 -8 -5 -8 17 -12 43 -9
6 1 14 -3 18 -9 3 -5 0 -7 -8 -4 -8 3 -18 1 -21 -4 -6 -10 36 -8 53 2 5 4 13
1 16 -5 4 -5 13 -8 20 -5 16 6 48 -27 38 -39 -5 -4 -2 -5 5 -1 7 4 9 12 6 18
-4 7 -2 8 4 4 14 -9 47 -16 87 -21 17 -1 30 -4 30 -5 0 -1 8 -3 18 -5 10 -2
26 -7 35 -11 9 -4 26 -9 37 -11 11 -2 27 -6 35 -10 21 -9 42 -14 60 -15 8 0
21 -6 29 -12 11 -8 13 -8 8 1 -5 8 -1 8 18 0 27 -13 25 9 29 -239 0 -49 3 -88
6 -88 3 0 5 -16 5 -35 0 -19 -4 -35 -9 -35 -5 0 -3 -7 4 -15 10 -12 10 -15 -1
-15 -9 0 -10 -3 -3 -8 14 -10 12 -124 -3 -139 -6 -7 -18 -13 -25 -13 -8 0 -24
-9 -36 -20 -12 -12 -22 -18 -22 -15 0 6 -86 -40 -107 -57 -7 -5 -17 -7 -23 -3
-5 3 -10 1 -10 -4 0 -6 -6 -11 -14 -11 -8 0 -37 -16 -66 -36 -29 -20 -81 -50
-114 -67 -34 -18 -70 -39 -80 -49 -11 -10 -25 -18 -30 -18 -6 0 -24 -11 -41
-24 -22 -17 -35 -22 -47 -15 -11 6 -19 5 -24 -3 -4 -7 -3 -8 4 -4 7 4 12 3 12
-1 0 -5 -9 -14 -21 -21 -17 -11 -20 -11 -13 0 4 7 -9 -2 -30 -20 -20 -18 -41
-30 -46 -27 -11 7 -2 35 11 35 5 0 9 9 9 21 0 11 4 18 8 15 5 -3 9 0 10 7 5
54 39 97 75 93 15 -2 24 1 21 6 -3 5 -12 7 -18 5 -29 -12 -35 9 -10 36 14 15
30 24 36 21 7 -4 8 -2 4 5 -4 6 -12 9 -17 6 -5 -4 -9 -2 -9 3 0 15 56 63 65
55 4 -5 5 -2 1 5 -4 7 -11 10 -15 8 -3 -3 -7 4 -7 14 0 11 2 17 5 15 7 -7 39
59 33 69 -3 5 0 6 6 2 7 -4 12 -1 12 9 0 10 5 13 12 9 6 -4 8 -3 4 4 -3 6 1
18 10 26 8 9 12 16 9 16 -4 0 3 16 15 35 12 19 18 35 14 35 -4 0 3 11 15 24
12 13 23 30 25 37 1 8 5 19 9 25 4 7 0 17 -8 24 -8 7 -12 17 -8 23 3 6 1 7 -5
3 -8 -4 -16 3 -22 18 -5 14 -14 26 -20 26 -6 0 -8 5 -5 10 4 6 12 7 18 4 7 -4
8 -3 4 2 -5 5 -12 9 -15 9 -15 0 -54 34 -56 49 -1 8 -6 19 -11 23 -4 4 -5 1 0
-7 4 -8 -5 -3 -20 12 -25 24 -27 29 -15 45 12 15 12 16 0 6 -19 -18 -28 -16
-40 7 -6 11 -7 19 -3 18 4 -2 8 1 8 7 0 5 -8 10 -17 10 -10 1 -14 -3 -11 -9 3
-6 0 -6 -7 1 -11 10 -11 15 1 29 9 12 10 15 2 10 -7 -4 -23 0 -35 8 -20 14
-18 21 5 17 5 -1 6 3 2 9 -4 7 -12 7 -24 0 -15 -8 -18 -5 -15 15 1 14 -1 23
-6 20 -11 -7 -31 20 -22 30 4 5 2 5 -4 2 -6 -4 -20 3 -30 15 -11 12 -13 18 -5
13 10 -5 12 -4 7 4 -4 6 -11 9 -16 6 -11 -7 -32 20 -22 30 4 5 2 5 -4 2 -6 -4
-20 3 -30 15 -11 12 -13 18 -7 14 9 -5 11 -2 7 8 -3 9 -10 13 -15 10 -5 -3 -9
0 -9 6 0 6 -4 9 -8 6 -5 -3 -9 1 -9 9 0 11 4 11 22 -1 12 -8 24 -11 27 -8z
m1020 -270 c14 -1 34 -8 42 -15 9 -8 16 -10 16 -7 0 4 10 2 21 -5 12 -6 36
-13 53 -16 17 -3 36 -9 42 -14 6 -5 14 -6 17 -2 4 3 14 0 24 -8 10 -8 14 -9
10 -2 -5 8 2 7 20 -2 15 -8 36 -15 46 -15 10 0 15 -5 12 -10 -4 -6 3 -9 17 -7
12 2 38 -2 56 -10 18 -7 37 -11 41 -9 4 3 17 -1 27 -9 18 -13 17 -15 -17 -29
-19 -8 -41 -22 -48 -30 -7 -9 -17 -13 -22 -10 -5 3 -9 2 -9 -3 0 -4 -15 -14
-32 -22 -18 -8 -47 -24 -65 -37 -17 -13 -36 -24 -41 -24 -5 0 -17 -9 -27 -20
-10 -11 -26 -20 -35 -20 -9 0 -25 -9 -35 -20 -10 -11 -24 -20 -31 -20 -14 0
-82 -35 -99 -51 -5 -5 -16 -9 -25 -9 -9 0 -25 -9 -35 -20 -10 -11 -26 -20 -37
-20 -17 0 -18 13 -18 243 0 134 2 246 6 249 3 3 26 -1 52 -9 26 -8 59 -16 74
-17z"/>
<path d="M193 1381 c0 -11 5 -18 9 -15 4 3 5 11 1 19 -7 21 -12 19 -10 -4z"/>
<path d="M237 1367 c3 -5 12 -6 20 -3 11 5 14 2 9 -11 -6 -17 -5 -17 8 0 16
21 30 22 22 1 -3 -9 -2 -12 5 -9 20 13 2 30 -33 30 -20 0 -34 -3 -31 -8z"/>
<path d="M265 1310 c5 -8 42 -6 50 1 2 3 -8 5 -25 5 -16 0 -27 -3 -25 -6z"/>
<path d="M365 1310 c-2 -4 16 -6 40 -6 25 0 42 2 40 5 -8 7 -76 8 -80 1z"/>
<path d="M567 1286 c-3 -8 -2 -18 3 -21 13 -8 20 9 11 24 -6 10 -10 9 -14 -3z"/>
<path d="M361 1277 c-8 -10 -7 -14 2 -14 8 0 14 6 14 14 0 7 -1 13 -2 13 -2 0
-8 -6 -14 -13z"/>
<path d="M403 1275 c0 -8 4 -12 9 -9 5 3 6 10 3 15 -9 13 -12 11 -12 -6z"/>
<path d="M433 1275 c0 -8 4 -12 9 -9 5 3 6 10 3 15 -9 13 -12 11 -12 -6z"/>
<path d="M505 1281 c-3 -5 -2 -12 3 -15 5 -3 9 1 9 9 0 17 -3 19 -12 6z"/>
<path d="M535 1281 c-3 -5 -2 -12 3 -15 5 -3 9 1 9 9 0 17 -3 19 -12 6z"/>
<path d="M466 1242 c-3 -5 1 -9 9 -9 8 0 12 4 9 9 -3 4 -7 8 -9 8 -2 0 -6 -4
-9 -8z"/>
<path d="M606 1242 c-3 -5 1 -9 9 -9 8 0 12 4 9 9 -3 4 -7 8 -9 8 -2 0 -6 -4
-9 -8z"/>
<path d="M643 1230 c-1 -11 2 -22 6 -24 4 -3 7 4 6 14 -2 27 -10 33 -12 10z"/>
<path d="M435 1181 c-3 -5 -2 -12 3 -15 5 -3 9 1 9 9 0 17 -3 19 -12 6z"/>
<path d="M600 1181 c-8 -6 -19 -7 -25 -4 -5 4 -7 2 -2 -2 12 -14 44 -13 44 2
0 7 -1 13 -1 13 -1 0 -8 -4 -16 -9z"/>
<path d="M643 1175 c0 -8 4 -12 9 -9 5 3 6 10 3 15 -9 13 -12 11 -12 -6z"/>
<path d="M673 1175 c0 -8 4 -12 9 -9 5 3 6 10 3 15 -9 13 -12 11 -12 -6z"/>
<path d="M433 1135 c0 -8 4 -12 9 -9 5 3 6 10 3 15 -9 13 -12 11 -12 -6z"/>
<path d="M636 1132 c-3 -5 1 -9 9 -9 8 0 12 4 9 9 -3 4 -7 8 -9 8 -2 0 -6 -4
-9 -8z"/>
<path d="M466 1072 c-3 -5 1 -9 9 -9 8 0 12 4 9 9 -3 4 -7 8 -9 8 -2 0 -6 -4
-9 -8z"/>
<path d="M575 1011 c-3 -5 -2 -12 3 -15 5 -3 9 1 9 9 0 17 -3 19 -12 6z"/>
<path d="M536 1002 c-3 -5 1 -9 9 -9 8 0 12 4 9 9 -3 4 -7 8 -9 8 -2 0 -6 -4
-9 -8z"/>
<path d="M403 425 c0 -8 4 -12 9 -9 5 3 6 10 3 15 -9 13 -12 11 -12 -6z"/>
<path d="M350 360 c-12 -7 -10 -9 7 -7 12 0 19 5 17 9 -6 10 -6 10 -24 -2z"/>
<path d="M333 325 c0 -8 4 -12 9 -9 5 3 6 10 3 15 -9 13 -12 11 -12 -6z"/>
<path d="M390 335 c0 -2 6 -8 13 -14 10 -8 14 -7 14 2 0 8 -6 14 -14 14 -7 0
-13 -1 -13 -2z"/>
<path d="M1355 1750 c5 -8 42 -6 50 1 2 3 -8 5 -25 5 -16 0 -27 -3 -25 -6z"/>
<path d="M1693 1737 c-1 -11 1 -17 4 -13 3 3 15 0 27 -6 17 -9 19 -8 9 3 -15
15 -17 33 -4 24 5 -3 12 -2 15 3 3 5 -7 8 -23 8 -20 0 -27 -5 -28 -19z"/>
<path d="M26 1731 c-4 -5 -2 -12 3 -15 5 -4 12 -2 15 3 4 5 2 12 -3 15 -5 4
-12 2 -15 -3z"/>
<path d="M403 1725 c0 -8 4 -12 9 -9 5 3 6 10 3 15 -9 13 -12 11 -12 -6z"/>
<path d="M573 1725 c0 -8 4 -12 9 -9 5 3 6 10 3 15 -9 13 -12 11 -12 -6z"/>
<path d="M366 1718 c3 -5 10 -6 15 -3 13 9 11 12 -6 12 -8 0 -12 -4 -9 -9z"/>
<path d="M1216 1718 c3 -5 10 -6 15 -3 13 9 11 12 -6 12 -8 0 -12 -4 -9 -9z"/>
<path d="M1366 1721 c-3 -4 4 -7 14 -6 27 2 33 10 10 12 -11 1 -22 -2 -24 -6z"/>
<path d="M1456 1722 c-3 -5 1 -9 9 -9 8 0 12 4 9 9 -3 4 -7 8 -9 8 -2 0 -6 -4
-9 -8z"/>
<path d="M1556 1718 c3 -5 10 -6 15 -3 13 9 11 12 -6 12 -8 0 -12 -4 -9 -9z"/>
<path d="M1629 1725 c-8 -3 -2 -42 7 -42 7 0 11 4 8 9 -4 5 2 15 11 22 15 11
14 12 -4 12 -12 0 -21 0 -22 -1z"/>
<path d="M1689 1703 c-12 -15 -12 -16 2 -11 9 3 22 2 30 -4 11 -8 10 -9 -3 -4
-30 9 -36 -20 -28 -134 4 -50 -10 -64 -63 -65 -23 0 -40 -5 -37 -10 3 -6 10
-8 15 -6 25 9 75 8 76 -3 0 -6 2 -21 5 -34 3 -16 0 -22 -10 -20 -8 2 -15 -1
-15 -7 0 -5 7 -9 15 -7 8 2 14 -2 14 -8 0 -9 -14 -14 -32 -11 -4 0 -5 -6 -1
-15 4 -10 1 -14 -8 -12 -8 2 -16 -1 -17 -7 -1 -5 9 -9 22 -10 14 0 30 -5 36
-11 8 -8 5 -11 -14 -9 -15 2 -24 -1 -20 -6 3 -5 10 -6 16 -3 6 4 6 -1 -1 -14
-9 -17 -8 -23 6 -31 17 -10 16 -12 -7 -15 -11 -1 -12 -13 -5 -37 6 -18 31 -21
33 -5 2 10 9 90 11 124 1 7 5 11 10 7 5 -3 13 0 17 6 4 7 3 9 -2 6 -20 -12
-35 9 -26 34 5 13 12 23 16 22 3 -2 5 0 4 5 -1 4 -7 6 -14 4 -14 -3 -7 80 9
90 14 8 17 47 4 55 -6 4 -7 1 -2 -7 5 -9 4 -11 -3 -6 -9 5 -9 13 -2 27 12 22
1 25 -20 7 -12 -11 -12 -10 -3 2 13 18 13 51 1 67 -6 7 -4 14 3 19 7 4 9 3 6
-3 -4 -6 0 -16 9 -23 12 -11 12 -15 2 -21 -8 -5 -5 -8 10 -6 14 1 18 5 12 11
-14 14 -13 29 2 20 7 -4 8 -3 4 5 -4 6 -12 8 -18 5 -6 -4 -6 0 1 14 8 15 7 23
-8 36 -17 15 -19 15 -32 -1z m34 -176 c3 -7 -3 -13 -14 -13 -13 0 -15 3 -7 13
6 7 12 13 13 13 2 0 5 -6 8 -13z m-27 -165 c0 -10 -8 -18 -18 -18 -22 0 -22 1
-2 20 19 20 20 20 20 -2z m-8 -139 c-6 -7 -12 -13 -13 -13 -2 0 -5 6 -8 13 -3
7 3 13 14 13 13 0 15 -3 7 -13z"/>
<path d="M25 1690 c5 -8 42 -6 50 1 2 3 -8 5 -25 5 -16 0 -27 -3 -25 -6z"/>
<path d="M266 1692 c-3 -5 1 -9 9 -9 8 0 12 4 9 9 -3 4 -7 8 -9 8 -2 0 -6 -4
-9 -8z"/>
<path d="M505 1690 c5 -8 42 -6 50 1 2 3 -8 5 -25 5 -16 0 -27 -3 -25 -6z"/>
<path d="M606 1692 c-3 -5 1 -9 9 -9 8 0 12 4 9 9 -3 4 -7 8 -9 8 -2 0 -6 -4
-9 -8z"/>
<path d="M646 1691 c8 -8 43 -8 38 0 -2 4 -13 7 -24 6 -10 -1 -17 -3 -14 -6z"/>
<path d="M706 1688 c3 -5 10 -6 15 -3 13 9 11 12 -6 12 -8 0 -12 -4 -9 -9z"/>
<path d="M776 1692 c-3 -5 1 -9 9 -9 8 0 12 4 9 9 -3 4 -7 8 -9 8 -2 0 -6 -4
-9 -8z"/>
<path d="M1116 1692 c-3 -5 1 -9 9 -9 8 0 12 4 9 9 -3 4 -7 8 -9 8 -2 0 -6 -4
-9 -8z"/>
<path d="M1286 1692 c-3 -5 1 -9 9 -9 8 0 12 4 9 9 -3 4 -7 8 -9 8 -2 0 -6 -4
-9 -8z"/>
<path d="M1355 1690 c5 -8 42 -6 50 1 2 3 -8 5 -25 5 -16 0 -27 -3 -25 -6z"/>
<path d="M1455 1690 c-2 -4 16 -6 40 -6 25 0 42 2 40 5 -8 7 -76 8 -80 1z"/>
<path d="M65 1661 c-3 -5 -2 -12 3 -15 5 -3 9 1 9 9 0 17 -3 19 -12 6z"/>
<path d="M95 1661 c-3 -5 -2 -12 3 -15 5 -3 9 1 9 9 0 17 -3 19 -12 6z"/>
<path d="M133 1655 c0 -8 4 -12 9 -9 5 3 6 10 3 15 -9 13 -12 11 -12 -6z"/>
<path d="M430 1660 c-8 -5 -18 -6 -24 -3 -5 3 -6 2 -3 -4 7 -11 40 -11 45 1 6
13 -3 16 -18 6z"/>
<path d="M473 1655 c0 -6 7 -11 16 -10 9 0 16 5 16 10 0 5 -7 10 -16 10 -9 1
-16 -4 -16 -10z"/>
<path d="M575 1661 c-3 -5 -2 -12 3 -15 5 -3 9 1 9 9 0 17 -3 19 -12 6z"/>
<path d="M613 1655 c0 -8 4 -12 9 -9 5 3 6 10 3 15 -9 13 -12 11 -12 -6z"/>
<path d="M643 1655 c0 -8 4 -12 9 -9 5 3 6 10 3 15 -9 13 -12 11 -12 -6z"/>
<path d="M711 1657 c-8 -10 -7 -14 2 -14 8 0 14 6 14 14 0 7 -1 13 -2 13 -2 0
-8 -6 -14 -13z"/>
<path d="M776 1661 c-4 -5 -2 -12 3 -15 5 -4 12 -2 15 3 4 5 2 12 -3 15 -5 4
-12 2 -15 -3z"/>
<path d="M953 1655 c0 -8 4 -12 9 -9 5 3 6 10 3 15 -9 13 -12 11 -12 -6z"/>
<path d="M983 1655 c0 -8 4 -12 9 -9 5 3 6 10 3 15 -9 13 -12 11 -12 -6z"/>
<path d="M1183 1655 c0 -8 4 -12 9 -9 5 3 6 10 3 15 -9 13 -12 11 -12 -6z"/>
<path d="M1353 1655 c0 -8 4 -12 9 -9 5 3 6 10 3 15 -9 13 -12 11 -12 -6z"/>
<path d="M1383 1653 c0 -9 4 -10 14 -2 7 6 13 12 13 14 0 1 -6 2 -13 2 -8 0
-14 -6 -14 -14z"/>
<path d="M1595 1661 c-3 -5 -2 -12 3 -15 5 -3 9 1 9 9 0 17 -3 19 -12 6z"/>
<path d="M1625 1660 c-7 -11 -8 -11 23 -14 27 -3 28 0 3 14 -13 7 -22 7 -26 0z"/>
<path d="M280 1656 c0 -2 7 -7 16 -10 8 -3 12 -2 9 4 -6 10 -25 14 -25 6z"/>
<path d="M536 1652 c-3 -5 1 -9 9 -9 8 0 12 4 9 9 -3 4 -7 8 -9 8 -2 0 -6 -4
-9 -8z"/>
<path d="M816 1652 c-3 -5 1 -9 9 -9 8 0 12 4 9 9 -3 4 -7 8 -9 8 -2 0 -6 -4
-9 -8z"/>
<path d="M1286 1648 c3 -5 10 -6 15 -3 13 9 11 12 -6 12 -8 0 -12 -4 -9 -9z"/>
<path d="M1455 1650 c5 -8 42 -6 50 1 2 3 -8 5 -25 5 -16 0 -27 -3 -25 -6z"/>
<path d="M1529 1658 c-5 -15 -4 -50 1 -53 3 -2 6 9 6 26 0 24 -3 37 -7 27z"/>
<path d="M1556 1652 c-3 -5 1 -9 9 -9 8 0 12 4 9 9 -3 4 -7 8 -9 8 -2 0 -6 -4
-9 -8z"/>
<path d="M266 1618 c3 -5 10 -6 15 -3 13 9 11 12 -6 12 -8 0 -12 -4 -9 -9z"/>
<path d="M445 1619 c-4 -6 -4 -13 -1 -16 3 -4 6 -1 6 6 0 8 6 11 16 7 8 -3 12
-2 9 4 -8 13 -22 13 -30 -1z"/>
<path d="M505 1620 c-2 -3 9 -6 25 -6 17 0 27 2 25 5 -8 7 -45 9 -50 1z"/>
<path d="M776 1618 c3 -5 10 -6 15 -3 13 9 11 12 -6 12 -8 0 -12 -4 -9 -9z"/>
<path d="M856 1619 c2 -4 13 -7 24 -6 23 2 17 10 -10 12 -10 1 -17 -2 -14 -6z"/>
<path d="M1423 1615 c0 -8 4 -12 9 -9 5 3 6 10 3 15 -9 13 -12 11 -12 -6z"/>
<path d="M1556 1622 c-3 -5 1 -9 9 -9 8 0 12 4 9 9 -3 4 -7 8 -9 8 -2 0 -6 -4
-9 -8z"/>
<path d="M203 1585 c0 -8 4 -12 9 -9 5 3 6 10 3 15 -9 13 -12 11 -12 -6z"/>
<path d="M236 1588 c3 -5 10 -6 15 -3 13 9 11 12 -6 12 -8 0 -12 -4 -9 -9z"/>
<path d="M336 1592 c-3 -4 4 -9 15 -9 23 -2 25 3 4 10 -8 4 -16 3 -19 -1z"/>
<path d="M536 1592 c-3 -5 1 -9 9 -9 8 0 12 4 9 9 -3 4 -7 8 -9 8 -2 0 -6 -4
-9 -8z"/>
<path d="M603 1583 c0 -9 4 -10 14 -2 7 6 13 12 13 14 0 1 -6 2 -13 2 -8 0
-14 -6 -14 -14z"/>
<path d="M676 1592 c-3 -5 1 -9 9 -9 8 0 12 4 9 9 -3 4 -7 8 -9 8 -2 0 -6 -4
-9 -8z"/>
<path d="M743 1587 c0 -7 -2 -17 -4 -23 -2 -7 0 -14 5 -15 11 -5 16 40 6 46
-4 2 -7 -1 -7 -8z"/>
<path d="M1216 1591 c-4 -5 -2 -12 3 -15 5 -4 12 -2 15 3 4 5 2 12 -3 15 -5 4
-12 2 -15 -3z"/>
<path d="M1253 1585 c0 -8 4 -12 9 -9 5 3 6 10 3 15 -9 13 -12 11 -12 -6z"/>
<path d="M1355 1591 c-3 -5 -2 -12 3 -15 5 -3 9 1 9 9 0 17 -3 19 -12 6z"/>
<path d="M1386 1591 c-4 -5 -2 -12 3 -15 5 -4 12 -2 15 3 4 5 2 12 -3 15 -5 4
-12 2 -15 -3z"/>
<path d="M1119 1588 c-5 -9 -5 -48 -1 -43 6 6 11 45 5 45 -2 0 -4 -1 -4 -2z"/>
<path d="M1556 1578 c3 -4 11 -5 19 -1 21 7 19 12 -4 10 -11 0 -18 -5 -15 -9z"/>
<path d="M1614 1567 c-20 -21 -21 -23 -3 -23 10 0 16 2 14 4 -2 3 0 13 6 23
13 25 9 24 -17 -4z"/>
<path d="M56 1561 c-4 -5 -2 -12 3 -15 5 -4 12 -2 15 3 4 5 2 12 -3 15 -5 4
-12 2 -15 -3z"/>
<path d="M93 1555 c0 -8 4 -12 9 -9 5 3 6 10 3 15 -9 13 -12 11 -12 -6z"/>
<path d="M505 1561 c-3 -5 -2 -12 3 -15 5 -3 9 1 9 9 0 17 -3 19 -12 6z"/>
<path d="M535 1561 c-3 -5 -2 -12 3 -15 5 -3 9 1 9 9 0 17 -3 19 -12 6z"/>
<path d="M566 1561 c-4 -5 -2 -12 3 -15 5 -4 12 -2 15 3 4 5 2 12 -3 15 -5 4
-12 2 -15 -3z"/>
<path d="M913 1555 c0 -8 4 -12 9 -9 5 3 6 10 3 15 -9 13 -12 11 -12 -6z"/>
<path d="M943 1555 c0 -8 4 -12 9 -9 5 3 6 10 3 15 -9 13 -12 11 -12 -6z"/>
<path d="M1143 1557 c0 -8 12 -13 28 -13 15 0 26 3 23 8 -3 5 -10 6 -15 2 -5
-3 -16 -1 -23 5 -9 8 -13 7 -13 -2z"/>
<path d="M1415 1561 c-3 -5 -2 -12 3 -15 5 -3 9 1 9 9 0 17 -3 19 -12 6z"/>
<path d="M226 1548 c3 -5 10 -6 15 -3 13 9 11 12 -6 12 -8 0 -12 -4 -9 -9z"/>
<path d="M296 1552 c-3 -5 1 -9 9 -9 8 0 12 4 9 9 -3 4 -7 8 -9 8 -2 0 -6 -4
-9 -8z"/>
<path d="M333 1540 c-1 -11 2 -22 6 -24 4 -3 7 4 6 14 -2 27 -10 33 -12 10z"/>
<path d="M366 1548 c3 -5 10 -6 15 -3 13 9 11 12 -6 12 -8 0 -12 -4 -9 -9z"/>
<path d="M1346 1552 c-3 -5 1 -9 9 -9 8 0 12 4 9 9 -3 4 -7 8 -9 8 -2 0 -6 -4
-9 -8z"/>
<path d="M1455 1551 c-3 -5 -2 -12 3 -15 5 -3 9 1 9 9 0 17 -3 19 -12 6z"/>
<path d="M1516 1552 c-3 -5 1 -9 9 -9 8 0 12 4 9 9 -3 4 -7 8 -9 8 -2 0 -6 -4
-9 -8z"/>
<path d="M1554 1530 c0 -16 3 -27 6 -25 8 5 6 42 -1 50 -3 2 -5 -8 -5 -25z"/>
<path d="M1656 1552 c-3 -5 1 -9 9 -9 8 0 12 4 9 9 -3 4 -7 8 -9 8 -2 0 -6 -4
-9 -8z"/>
<path d="M226 1518 c3 -5 10 -6 15 -3 13 9 11 12 -6 12 -8 0 -12 -4 -9 -9z"/>
<path d="M435 1520 c-2 -4 16 -6 40 -6 25 0 42 2 40 5 -8 7 -76 8 -80 1z"/>
<path d="M533 1515 c0 -8 4 -12 9 -9 5 3 6 10 3 15 -9 13 -12 11 -12 -6z"/>
<path d="M605 1520 c-2 -3 9 -6 25 -6 17 0 27 2 25 5 -8 7 -45 9 -50 1z"/>
<path d="M673 1515 c0 -8 4 -12 9 -9 5 3 6 10 3 15 -9 13 -12 11 -12 -6z"/>
<path d="M706 1518 c3 -5 10 -6 15 -3 13 9 11 12 -6 12 -8 0 -12 -4 -9 -9z"/>
<path d="M813 1516 c0 -6 -2 -17 -4 -25 -4 -15 38 -23 47 -9 3 5 2 8 -3 7 -19
-3 -33 2 -33 11 0 6 6 10 14 8 8 -2 14 1 13 7 -3 13 -34 14 -34 1z"/>
<path d="M906 1518 c3 -5 10 -6 15 -3 13 9 11 12 -6 12 -8 0 -12 -4 -9 -9z"/>
<path d="M1116 1522 c-3 -5 1 -9 9 -9 8 0 12 4 9 9 -3 4 -7 8 -9 8 -2 0 -6 -4
-9 -8z"/>
<path d="M1183 1515 c0 -8 4 -12 9 -9 5 3 6 10 3 15 -9 13 -12 11 -12 -6z"/>
<path d="M1308 1518 c-10 -6 -10 -8 0 -9 39 -4 52 -2 50 6 -4 12 -34 14 -50 3z"/>
<path d="M1383 1515 c0 -8 4 -12 9 -9 5 3 6 10 3 15 -9 13 -12 11 -12 -6z"/>
<path d="M1485 1521 c-3 -5 -2 -12 3 -15 5 -3 9 1 9 9 0 17 -3 19 -12 6z"/>
<path d="M1516 1521 c-4 -5 -2 -12 3 -15 5 -4 12 -2 15 3 4 5 2 12 -3 15 -5 4
-12 2 -15 -3z"/>
<path d="M1625 1521 c-3 -5 -2 -12 3 -15 5 -3 9 1 9 9 0 17 -3 19 -12 6z"/>
<path d="M1655 1521 c-3 -5 -2 -12 3 -15 5 -3 9 1 9 9 0 17 -3 19 -12 6z"/>
<path d="M566 1482 c-3 -5 1 -9 9 -9 8 0 12 4 9 9 -3 4 -7 8 -9 8 -2 0 -6 -4
-9 -8z"/>
<path d="M606 1478 c3 -5 10 -6 15 -3 13 9 11 12 -6 12 -8 0 -12 -4 -9 -9z"/>
<path d="M875 1480 c-2 -3 9 -6 25 -6 17 0 27 2 25 5 -8 7 -45 9 -50 1z"/>
<path d="M1155 1480 c-2 -4 3 -7 13 -6 10 0 17 -6 17 -16 0 -9 3 -19 6 -22 3
-3 5 7 5 22 0 20 -5 28 -18 29 -10 1 -20 -2 -23 -7z"/>
<path d="M1216 1482 c-3 -5 1 -9 9 -9 8 0 12 4 9 9 -3 4 -7 8 -9 8 -2 0 -6 -4
-9 -8z"/>
<path d="M1385 1480 c-2 -4 16 -6 40 -6 25 0 42 2 40 5 -8 7 -76 8 -80 1z"/>
<path d="M1486 1478 c3 -5 10 -6 15 -3 13 9 11 12 -6 12 -8 0 -12 -4 -9 -9z"/>
<path d="M1525 1481 c-3 -5 -2 -12 3 -15 5 -3 9 1 9 9 0 17 -3 19 -12 6z"/>
<path d="M567 1454 c-3 -4 -2 -14 3 -24 5 -10 6 -21 2 -25 -4 -5 -2 -5 4 -2 6
3 10 15 9 26 -1 24 -9 34 -18 25z"/>
<path d="M813 1445 c-4 -5 -3 -7 2 -3 4 4 15 3 25 -2 11 -6 17 -5 17 3 0 15
-36 17 -44 2z"/>
<path d="M875 1450 c-2 -3 9 -6 25 -6 17 0 27 2 25 5 -8 7 -45 9 -50 1z"/>
<path d="M946 1448 c3 -5 10 -6 15 -3 13 9 11 12 -6 12 -8 0 -12 -4 -9 -9z"/>
<path d="M1215 1451 c-3 -5 -2 -12 3 -15 5 -3 9 1 9 9 0 17 -3 19 -12 6z"/>
<path d="M1246 1451 c-4 -5 -2 -12 3 -15 5 -4 12 -2 15 3 4 5 2 12 -3 15 -5 4
-12 2 -15 -3z"/>
<path d="M1355 1451 c-3 -5 -2 -12 3 -15 5 -3 9 1 9 9 0 17 -3 19 -12 6z"/>
<path d="M1416 1451 c-4 -5 -2 -12 3 -15 5 -4 12 -2 15 3 4 5 2 12 -3 15 -5 4
-12 2 -15 -3z"/>
<path d="M1453 1447 c0 -8 6 -14 14 -14 9 0 10 4 2 14 -6 7 -12 13 -14 13 -1
0 -2 -6 -2 -13z"/>
<path d="M1585 1440 c5 -8 42 -6 50 1 2 3 -8 5 -25 5 -16 0 -27 -3 -25 -6z"/>
<path d="M505 1421 c-3 -5 -2 -12 3 -15 5 -3 9 1 9 9 0 17 -3 19 -12 6z"/>
<path d="M704 1418 c-6 -9 -4 -10 26 -11 11 -1 19 3 18 8 -4 12 -37 14 -44 3z"/>
<path d="M773 1415 c0 -8 4 -12 9 -9 5 3 6 10 3 15 -9 13 -12 11 -12 -6z"/>
<path d="M906 1421 c-4 -5 -2 -12 3 -15 5 -4 12 -2 15 3 4 5 2 12 -3 15 -5 4
-12 2 -15 -3z"/>
<path d="M1113 1415 c0 -8 4 -12 9 -9 5 3 6 10 3 15 -9 13 -12 11 -12 -6z"/>
<path d="M536 1408 c3 -5 10 -6 15 -3 13 9 11 12 -6 12 -8 0 -12 -4 -9 -9z"/>
<path d="M673 1405 c0 -8 4 -12 9 -9 5 3 6 10 3 15 -9 13 -12 11 -12 -6z"/>
<path d="M830 1416 c0 -2 7 -7 16 -10 8 -3 12 -2 9 4 -6 10 -25 14 -25 6z"/>
<path d="M945 1411 c-3 -5 -2 -12 3 -15 5 -3 9 1 9 9 0 17 -3 19 -12 6z"/>
<path d="M1148 1414 c-3 -2 -4 -18 -2 -35 3 -22 0 -29 -10 -27 -8 2 -16 -1
-18 -6 -2 -5 7 -10 19 -11 12 -1 20 2 17 6 -2 4 3 15 12 23 9 10 11 16 4 16
-7 0 -10 7 -7 15 6 14 -6 29 -15 19z"/>
<path d="M1346 1411 c-4 -5 -2 -12 3 -15 5 -4 12 -2 15 3 4 5 2 12 -3 15 -5 4
-12 2 -15 -3z"/>
<path d="M1383 1405 c0 -8 4 -12 9 -9 5 3 6 10 3 15 -9 13 -12 11 -12 -6z"/>
<path d="M1489 1415 c-7 -33 -1 -49 19 -50 13 -1 26 3 29 8 3 6 1 7 -5 3 -13
-8 -44 22 -37 35 4 5 4 9 1 9 -3 0 -6 -2 -7 -5z"/>
<path d="M1516 1411 c-4 -5 -2 -12 3 -15 5 -4 12 -2 15 3 4 5 2 12 -3 15 -5 4
-12 2 -15 -3z"/>
<path d="M1553 1405 c0 -8 4 -12 9 -9 5 3 6 10 3 15 -9 13 -12 11 -12 -6z"/>
<path d="M1583 1405 c0 -8 4 -12 9 -9 5 3 6 10 3 15 -9 13 -12 11 -12 -6z"/>
<path d="M800 1381 c-8 -6 -17 -8 -20 -6 -3 2 -6 -5 -6 -15 0 -18 1 -18 19 1
10 11 23 16 29 13 7 -4 8 -2 4 4 -9 14 -7 14 -26 3z"/>
<path d="M24 1369 c-3 -6 -2 -15 4 -21 6 -6 12 -6 17 3 6 8 4 10 -5 4 -10 -6
-12 -4 -7 8 7 19 2 23 -9 6z"/>
<path d="M656 1372 c5 -4 12 -11 15 -15 3 -5 9 -2 12 5 3 9 -3 14 -15 15 -11
1 -16 -1 -12 -5z"/>
<path d="M1285 1357 c1 -12 5 -21 9 -20 20 5 22 10 6 25 -16 17 -17 17 -15 -5z"/>
<path d="M1316 1369 c2 -5 12 -5 21 -2 12 5 15 2 11 -9 -3 -8 -1 -15 6 -15 6
0 12 8 12 17 0 11 -9 16 -28 16 -15 0 -25 -3 -22 -7z"/>
<path d="M1559 1378 c-1 -2 -3 -12 -4 -24 -2 -16 4 -20 26 -20 16 0 26 2 23 5
-3 3 -13 6 -22 6 -10 0 -16 7 -16 18 2 14 -3 23 -7 15z"/>
<path d="M805 1352 c-11 -11 8 -21 24 -12 10 5 21 7 25 5 3 -3 4 -2 1 2 -6 8
-43 12 -50 5z"/>
<path d="M1516 1338 c3 -5 10 -6 15 -3 13 9 11 12 -6 12 -8 0 -12 -4 -9 -9z"/>
<path d="M906 1312 c-2 -4 -1 -14 3 -21 6 -10 10 -9 14 3 6 16 -8 32 -17 18z"/>
<path d="M1480 1316 c0 -2 8 -10 18 -17 15 -13 16 -12 3 4 -13 16 -21 21 -21
13z"/>
<path d="M1510 1316 c0 -2 8 -10 18 -17 15 -13 16 -12 3 4 -13 16 -21 21 -21
13z"/>
<path d="M1555 1311 c-3 -5 -2 -12 3 -15 5 -3 9 1 9 9 0 17 -3 19 -12 6z"/>
<path d="M1586 1312 c-3 -5 1 -9 9 -9 8 0 12 4 9 9 -3 4 -7 8 -9 8 -2 0 -6 -4
-9 -8z"/>
<path d="M63 1275 c0 -8 4 -12 9 -9 5 3 6 10 3 15 -9 13 -12 11 -12 -6z"/>
<path d="M93 1275 c0 -8 4 -12 9 -9 5 3 6 10 3 15 -9 13 -12 11 -12 -6z"/>
<path d="M1113 1275 c0 -8 4 -12 9 -9 5 3 6 10 3 15 -9 13 -12 11 -12 -6z"/>
<path d="M1215 1281 c-3 -5 -2 -12 3 -15 5 -3 9 1 9 9 0 17 -3 19 -12 6z"/>
<path d="M1416 1281 c-4 -5 -2 -12 3 -15 5 -4 12 -2 15 3 4 5 2 12 -3 15 -5 4
-12 2 -15 -3z"/>
<path d="M1453 1275 c0 -8 4 -12 9 -9 5 3 6 10 3 15 -9 13 -12 11 -12 -6z"/>
<path d="M1483 1277 c0 -8 12 -13 28 -13 15 0 26 3 23 8 -3 5 -10 6 -15 2 -5
-3 -16 -1 -23 5 -9 8 -13 7 -13 -2z"/>
<path d="M1285 1270 c-2 -3 5 -6 15 -7 11 -1 22 2 24 5 3 4 -4 8 -15 8 -11 0
-22 -3 -24 -6z"/>
<path d="M1346 1272 c-3 -5 1 -9 9 -9 8 0 12 4 9 9 -3 4 -7 8 -9 8 -2 0 -6 -4
-9 -8z"/>
<path d="M1586 1268 c3 -5 10 -6 15 -3 13 9 11 12 -6 12 -8 0 -12 -4 -9 -9z"/>
<path d="M23 1231 c-2 -22 12 -37 21 -23 3 5 0 17 -7 26 -12 16 -13 16 -14 -3z"/>
<path d="M1153 1235 c0 -8 4 -12 9 -9 5 3 6 10 3 15 -9 13 -12 11 -12 -6z"/>
<path d="M1315 1242 c-11 -11 8 -21 24 -12 10 5 21 7 25 5 3 -3 4 -2 1 2 -6 8
-43 12 -50 5z"/>
<path d="M1383 1230 c-1 -11 2 -22 6 -24 4 -3 7 4 6 14 -2 27 -10 33 -12 10z"/>
<path d="M1485 1241 c-3 -5 -2 -12 3 -15 5 -3 9 1 9 9 0 17 -3 19 -12 6z"/>
<path d="M1583 1235 c0 -8 4 -12 9 -9 5 3 6 10 3 15 -9 13 -12 11 -12 -6z"/>
<path d="M1516 1228 c3 -5 10 -6 15 -3 13 9 11 12 -6 12 -8 0 -12 -4 -9 -9z"/>
<path d="M95 1210 c-2 -3 9 -6 25 -6 17 0 27 2 25 5 -8 7 -45 9 -50 1z"/>
<path d="M1424 1192 c0 -10 -6 -17 -16 -17 -19 0 -34 -11 -15 -12 6 0 18 -2
26 -4 15 -4 26 37 12 45 -5 3 -8 -2 -7 -12z"/>
<path d="M1456 1198 c3 -4 11 -5 19 -1 21 7 19 12 -4 10 -11 0 -18 -5 -15 -9z"/>
<path d="M1515 1194 c8 -9 12 -21 8 -27 -3 -7 -2 -9 2 -4 16 14 12 43 -7 44
-16 2 -17 0 -3 -13z"/>
<path d="M1584 1199 c-3 -6 -2 -15 3 -20 5 -5 9 -1 9 11 0 23 -2 24 -12 9z"/>
<path d="M65 1181 c-3 -5 -2 -12 3 -15 5 -3 9 1 9 9 0 17 -3 19 -12 6z"/>
<path d="M163 1175 c0 -8 4 -12 9 -9 5 3 6 10 3 15 -9 13 -12 11 -12 -6z"/>
<path d="M1486 1168 c3 -5 10 -6 15 -3 13 9 11 12 -6 12 -8 0 -12 -4 -9 -9z"/>
<path d="M1679 1171 c11 -7 11 -9 0 -13 -8 -3 -10 -9 -6 -14 9 -10 28 16 21
28 -3 4 -11 8 -17 8 -8 0 -7 -3 2 -9z"/>
<path d="M196 1141 c-4 -5 -2 -12 3 -15 5 -4 12 -2 15 3 4 5 2 12 -3 15 -5 4
-12 2 -15 -3z"/>
<path d="M1485 1130 c-2 -3 5 -6 15 -7 11 -1 22 2 24 5 3 4 -4 8 -15 8 -11 0
-22 -3 -24 -6z"/>
<path d="M1668 1118 c-4 -12 7 -78 12 -68 1 3 3 22 4 43 2 36 -7 50 -16 25z"/>
<path d="M235 1100 c-2 -3 5 -6 15 -7 11 -1 22 2 24 5 3 4 -4 8 -15 8 -11 0
-22 -3 -24 -6z"/>
<path d="M296 1072 c-3 -5 1 -9 9 -9 8 0 12 4 9 9 -3 4 -7 8 -9 8 -2 0 -6 -4
-9 -8z"/>
<path d="M163 1005 c0 -8 4 -12 9 -9 5 3 6 10 3 15 -9 13 -12 11 -12 -6z"/>
<path d="M333 1005 c0 -8 4 -12 9 -9 5 3 6 10 3 15 -9 13 -12 11 -12 -6z"/>
<path d="M366 1002 c-3 -5 1 -9 9 -9 8 0 12 4 9 9 -3 4 -7 8 -9 8 -2 0 -6 -4
-9 -8z"/>
<path d="M196 972 c-3 -5 1 -9 9 -9 8 0 12 4 9 9 -3 4 -7 8 -9 8 -2 0 -6 -4
-9 -8z"/>
<path d="M366 972 c-3 -5 1 -9 9 -9 8 0 12 4 9 9 -3 4 -7 8 -9 8 -2 0 -6 -4
-9 -8z"/>
<path d="M404 920 c0 -16 3 -27 6 -25 8 5 6 42 -1 50 -3 2 -5 -8 -5 -25z"/>
<path d="M1663 898 c0 -7 -2 -18 -4 -24 -4 -12 0 -14 24 -14 8 0 7 4 -3 11
-11 8 -12 12 -2 16 6 2 10 9 6 14 -8 13 -21 11 -21 -3z"/>
<path d="M196 868 c3 -5 10 -6 15 -3 13 9 11 12 -6 12 -8 0 -12 -4 -9 -9z"/>
<path d="M466 872 c-3 -5 1 -9 9 -9 8 0 12 4 9 9 -3 4 -7 8 -9 8 -2 0 -6 -4
-9 -8z"/>
<path d="M366 838 c3 -5 10 -6 15 -3 13 9 11 12 -6 12 -8 0 -12 -4 -9 -9z"/>
<path d="M503 835 c0 -8 4 -12 9 -9 5 3 6 10 3 15 -9 13 -12 11 -12 -6z"/>
<path d="M1656 828 c3 -4 11 -5 19 -1 21 7 19 12 -4 10 -11 0 -18 -5 -15 -9z"/>
<path d="M266 798 c3 -5 10 -6 15 -3 13 9 11 12 -6 12 -8 0 -12 -4 -9 -9z"/>
<path d="M1654 780 c0 -15 5 -27 11 -27 6 0 12 6 12 13 0 7 -4 11 -9 8 -12 -7
-10 10 2 22 7 7 6 11 -3 11 -8 0 -13 -11 -13 -27z"/>
<path d="M266 768 c3 -5 10 -6 15 -3 13 9 11 12 -6 12 -8 0 -12 -4 -9 -9z"/>
<path d="M366 772 c-3 -5 1 -9 9 -9 8 0 12 4 9 9 -3 4 -7 8 -9 8 -2 0 -6 -4
-9 -8z"/>
<path d="M403 765 c0 -8 4 -12 9 -9 5 3 6 10 3 15 -9 13 -12 11 -12 -6z"/>
<path d="M433 765 c0 -8 4 -12 9 -9 5 3 6 10 3 15 -9 13 -12 11 -12 -6z"/>
<path d="M326 732 c-3 -5 1 -9 9 -9 8 0 12 4 9 9 -3 4 -7 8 -9 8 -2 0 -6 -4
-9 -8z"/>
<path d="M396 728 c3 -5 10 -6 15 -3 13 9 11 12 -6 12 -8 0 -12 -4 -9 -9z"/>
<path d="M1657 733 c-2 -5 -3 -62 -3 -128 2 -94 -1 -124 -13 -138 -13 -16 -13
-17 0 -12 12 4 15 -3 13 -35 -1 -22 1 -38 4 -35 6 5 11 355 6 355 -2 0 -5 -3
-7 -7z"/>
<path d="M426 698 c3 -5 10 -6 15 -3 13 9 11 12 -6 12 -8 0 -12 -4 -9 -9z"/>
<path d="M194 650 c0 -16 3 -27 6 -25 8 5 6 42 -1 50 -3 2 -5 -8 -5 -25z"/>
<path d="M226 632 c-3 -5 1 -9 9 -9 8 0 12 4 9 9 -3 4 -7 8 -9 8 -2 0 -6 -4
-9 -8z"/>
<path d="M296 631 c8 -8 43 -8 38 0 -2 4 -13 7 -24 6 -10 -1 -17 -3 -14 -6z"/>
<path d="M156 598 c3 -5 10 -6 15 -3 13 9 11 12 -6 12 -8 0 -12 -4 -9 -9z"/>
<path d="M226 602 c-3 -5 1 -9 9 -9 8 0 12 4 9 9 -3 4 -7 8 -9 8 -2 0 -6 -4
-9 -8z"/>
<path d="M326 598 c3 -5 10 -6 15 -3 13 9 11 12 -6 12 -8 0 -12 -4 -9 -9z"/>
<path d="M226 572 c-3 -5 1 -9 9 -9 8 0 12 4 9 9 -3 4 -7 8 -9 8 -2 0 -6 -4
-9 -8z"/>
<path d="M263 565 c0 -8 4 -12 9 -9 5 3 6 10 3 15 -9 13 -12 11 -12 -6z"/>
<path d="M323 567 c0 -8 6 -14 14 -14 9 0 10 4 2 14 -6 7 -12 13 -14 13 -1 0
-2 -6 -2 -13z"/>
<path d="M194 510 c0 -16 3 -27 6 -25 8 5 6 42 -1 50 -3 2 -5 -8 -5 -25z"/>
<path d="M156 488 c3 -5 10 -6 15 -3 13 9 11 12 -6 12 -8 0 -12 -4 -9 -9z"/>
<path d="M236 489 c2 -4 13 -7 24 -6 23 2 17 10 -10 12 -10 1 -17 -2 -14 -6z"/>
<path d="M225 431 c-3 -5 -2 -12 3 -15 5 -3 9 1 9 9 0 17 -3 19 -12 6z"/>
<path d="M1646 358 c3 -5 10 -6 15 -3 13 9 11 12 -6 12 -8 0 -12 -4 -9 -9z"/>
<path d="M56 328 c3 -5 10 -6 15 -3 13 9 11 12 -6 12 -8 0 -12 -4 -9 -9z"/>
<path d="M129 333 c-9 -26 -1 -47 19 -48 13 -1 26 3 29 8 3 6 2 7 -3 4 -6 -3
-16 -1 -24 4 -13 8 -13 10 0 18 8 5 19 7 25 4 5 -4 7 -2 2 2 -7 9 -46 15 -48
8z"/>
<path d="M1644 331 c4 -5 0 -11 -6 -14 -7 -3 -3 -4 9 -4 17 1 19 4 11 14 -12
15 -22 18 -14 4z"/>
<path d="M1640 290 c-9 -6 -10 -10 -3 -10 6 0 15 5 18 10 8 12 4 12 -15 0z"/>
<path d="M56 262 c-3 -5 1 -9 9 -9 8 0 12 4 9 9 -3 4 -7 8 -9 8 -2 0 -6 -4 -9
-8z"/>
<path d="M126 258 c3 -4 12 -4 21 -1 12 5 14 3 8 -7 -5 -9 -4 -11 4 -6 16 10
4 25 -19 23 -10 -1 -17 -5 -14 -9z"/>
<path d="M26 191 c8 -8 43 -8 38 0 -2 4 -13 7 -24 6 -10 -1 -17 -3 -14 -6z"/>
<path d="M95 191 c-2 -4 12 -7 31 -8 19 0 33 1 30 4 -7 8 -56 11 -61 4z"/>
<path d="M465 190 c-2 -3 9 -6 25 -6 17 0 27 2 25 5 -8 7 -45 9 -50 1z"/>
<path d="M536 191 c8 -8 43 -8 38 0 -2 4 -13 7 -24 6 -10 -1 -17 -3 -14 -6z"/>
<path d="M464 158 c-6 -9 -4 -10 26 -11 11 -1 19 3 18 8 -4 12 -37 14 -44 3z"/>
<path d="M196 122 c-3 -4 4 -9 15 -9 23 -2 25 3 4 10 -8 4 -16 3 -19 -1z"/>
<path d="M326 118 c3 -5 10 -6 15 -3 13 9 11 12 -6 12 -8 0 -12 -4 -9 -9z"/>
<path d="M396 122 c-3 -5 1 -9 9 -9 8 0 12 4 9 9 -3 4 -7 8 -9 8 -2 0 -6 -4
-9 -8z"/>
<path d="M1179 113 c-13 -16 -12 -17 4 -4 16 13 21 21 13 21 -2 0 -10 -8 -17
-17z"/>
<path d="M56 92 c-3 -5 1 -9 9 -9 8 0 12 4 9 9 -3 4 -7 8 -9 8 -2 0 -6 -4 -9
-8z"/>
<path d="M326 88 c3 -5 10 -6 15 -3 13 9 11 12 -6 12 -8 0 -12 -4 -9 -9z"/>
<path d="M397 93 c-4 -3 -2 -13 3 -23 5 -10 6 -20 2 -24 -3 -4 2 -4 12 0 13 5
17 2 14 -9 -2 -9 1 -16 7 -16 5 -1 9 9 9 22 0 16 -5 21 -18 19 -13 -3 -17 1
-13 12 6 16 -6 30 -16 19z"/>
<path d="M535 91 c-3 -5 -2 -12 3 -15 5 -3 9 1 9 9 0 17 -3 19 -12 6z"/>
<path d="M566 92 c-3 -5 1 -9 9 -9 8 0 12 4 9 9 -3 4 -7 8 -9 8 -2 0 -6 -4 -9
-8z"/>
<path d="M603 93 c4 -6 0 -18 -8 -27 -14 -13 -13 -15 3 -13 19 1 23 30 7 44
-4 5 -5 3 -2 -4z"/>
<path d="M633 83 c0 -9 4 -10 14 -2 7 6 13 12 13 14 0 1 -6 2 -13 2 -8 0 -14
-6 -14 -14z"/>
<path d="M737 94 c-3 -3 -3 -12 0 -19 3 -10 -4 -13 -26 -12 -17 1 -30 -2 -30
-8 0 -5 7 -9 15 -7 10 2 14 -3 12 -14 -2 -12 4 -18 20 -19 13 -1 25 2 28 7 3
5 2 8 -3 7 -19 -3 -33 2 -33 11 0 6 7 10 16 8 11 -2 18 5 19 20 2 23 -7 36
-18 26z"/>
<path d="M1076 92 c-3 -5 1 -9 9 -9 8 0 12 4 9 9 -3 4 -7 8 -9 8 -2 0 -6 -4
-9 -8z"/>
<path d="M1185 91 c-3 -5 -2 -12 3 -15 5 -3 9 1 9 9 0 17 -3 19 -12 6z"/>
<path d="M1215 91 c-3 -5 -2 -12 3 -15 5 -3 9 1 9 9 0 17 -3 19 -12 6z"/>
<path d="M1244 88 c-4 -7 -4 -10 1 -6 4 4 16 3 26 -2 12 -7 20 -6 25 2 4 7 4
10 -1 6 -4 -4 -16 -3 -26 2 -12 7 -20 6 -25 -2z"/>
<path d="M1385 91 c-3 -5 -2 -12 3 -15 5 -3 9 1 9 9 0 17 -3 19 -12 6z"/>
<path d="M233 56 c0 -11 33 -16 39 -5 2 2 1 3 -1 2 -2 -1 -11 2 -21 7 -12 6
-17 5 -17 -4z"/>
<path d="M900 60 c-12 -7 -10 -9 7 -7 12 0 19 5 17 9 -6 10 -6 10 -24 -2z"/>
<path d="M296 52 c-3 -5 1 -9 9 -9 8 0 12 4 9 9 -3 4 -7 8 -9 8 -2 0 -6 -4 -9
-8z"/>
<path d="M535 36 c1 -12 6 -19 10 -16 13 7 13 37 0 37 -6 0 -11 -10 -10 -21z"/>
<path d="M1046 48 c3 -5 10 -6 15 -3 13 9 11 12 -6 12 -8 0 -12 -4 -9 -9z"/>
<path d="M1416 48 c3 -5 10 -6 15 -3 13 9 11 12 -6 12 -8 0 -12 -4 -9 -9z"/>
<path d="M901 31 c-10 -6 -9 -10 3 -14 8 -3 18 -2 21 3 8 13 -9 20 -24 11z"/>
<path d="M366 21 c8 -8 43 -8 38 0 -2 4 -13 7 -24 6 -10 -1 -17 -3 -14 -6z"/>
<path d="M1046 18 c3 -5 10 -6 15 -3 13 9 11 12 -6 12 -8 0 -12 -4 -9 -9z"/>
<path d="M1145 21 c-3 -5 -2 -12 3 -15 5 -3 9 1 9 9 0 17 -3 19 -12 6z"/>
<path d="M1326 19 c2 -4 13 -7 24 -6 23 2 17 10 -10 12 -10 1 -17 -2 -14 -6z"/>
<path d="M1493 15 c0 -7 6 -11 14 -8 7 3 13 6 13 8 0 2 -6 5 -13 8 -8 3 -14
-1 -14 -8z"/>
</g>
</svg>
