<?xml version="1.0" standalone="no"?>
<!DOCTYPE svg PUBLIC "-//W3C//DTD SVG 20010904//EN"
 "http://www.w3.org/TR/2001/REC-SVG-20010904/DTD/svg10.dtd">
<svg version="1.0" xmlns="http://www.w3.org/2000/svg"
 width="243.000000pt" height="122.000000pt" viewBox="0 0 243.000000 122.000000"
 preserveAspectRatio="xMidYMid meet">
<metadata>
Created by potrace 1.16, written by Peter Selinger 2001-2019
</metadata>
<g transform="translate(0.000000,122.000000) scale(0.100000,-0.100000)"
fill="#000000" stroke="none">
<path d="M365 1210 c3 -5 8 -10 11 -10 2 0 4 5 4 10 0 6 -5 10 -11 10 -5 0 -7
-4 -4 -10z"/>
<path d="M470 1205 c-15 -18 -46 -20 -53 -2 -4 9 -7 9 -14 0 -5 -7 -25 -12
-44 -11 -18 1 -82 1 -141 0 -89 -2 -111 -5 -126 -20 -10 -10 -23 -17 -29 -15
-6 2 -14 0 -17 -5 -6 -10 -8 -549 -2 -612 5 -46 16 -239 21 -365 4 -84 7 -103
24 -116 17 -14 87 -16 638 -16 340 0 652 3 693 8 76 7 593 12 685 5 29 -2 53
1 58 8 5 8 10 6 17 -4 7 -11 10 -11 10 -2 0 8 5 10 13 5 18 -11 38 -13 31 -2
-3 5 4 9 16 9 12 0 18 -4 15 -10 -3 -5 -1 -10 5 -10 6 0 13 7 16 15 5 13 9 13
21 3 20 -16 46 -19 54 -7 3 6 5 53 4 106 -1 68 2 99 12 108 8 9 9 16 3 20 -5
3 -10 11 -10 16 0 6 6 7 13 3 9 -6 8 -3 -1 8 -13 17 -19 119 -8 137 4 5 2 21
-4 35 -5 14 -6 26 -1 26 5 0 10 114 11 253 0 138 2 259 2 267 1 8 0 35 0 60
l-2 45 -188 1 c-173 1 -505 10 -732 19 -52 2 -176 7 -275 10 -369 12 -442 16
-463 29 -6 4 -12 3 -12 -3 0 -6 -32 -9 -77 -7 -53 1 -77 6 -76 14 2 6 -4 9
-12 6 -8 -4 -12 -10 -9 -15 3 -5 -12 -9 -33 -9 -27 0 -34 3 -23 10 8 5 12 12
9 15 -4 3 -12 -1 -19 -10z m1801 -102 c4 -5 9 -92 11 -195 2 -102 6 -184 9
-182 4 2 9 -63 11 -144 4 -107 1 -155 -8 -175 -7 -15 -8 -25 -3 -22 13 9 11
-9 -3 -24 -9 -10 -9 -12 -1 -7 18 10 22 -5 24 -80 2 -127 0 -166 -12 -159 -6
4 -8 13 -5 21 3 7 1 16 -4 19 -4 3 -7 -6 -5 -20 3 -28 -4 -31 -24 -13 -11 10
-13 10 -7 1 9 -15 -22 -17 -44 -3 -8 5 -19 5 -25 1 -5 -5 -18 -8 -27 -8 -14 0
-15 4 -6 21 9 18 7 18 -16 -4 -15 -13 -25 -18 -21 -10 3 9 -4 21 -17 29 -21
13 -22 13 -10 -2 20 -24 4 -42 -19 -21 -16 15 -19 15 -24 2 -4 -9 -17 -15 -30
-15 -14 0 -22 3 -20 7 8 13 -17 17 -51 10 -17 -4 -38 -3 -47 1 -9 6 -18 5 -22
-1 -3 -5 -11 -10 -16 -10 -6 0 -7 5 -3 11 5 8 1 8 -13 0 -24 -12 -210 -9 -798
15 -33 1 -154 3 -269 3 l-208 1 6 233 c11 392 15 508 22 604 7 103 9 105 87
92 20 -4 40 -2 43 2 3 5 9 7 13 5 4 -3 13 -1 21 4 8 5 22 4 33 -2 11 -5 17 -6
14 -1 -7 11 23 11 41 -1 7 -4 12 -2 12 5 0 8 4 8 13 2 6 -6 30 -9 52 -7 74 7
307 13 684 18 205 3 376 8 379 11 9 9 274 -3 283 -12z m-1793 -25 l22 -2 1
-246 c0 -135 3 -254 5 -265 3 -11 7 -51 9 -90 3 -38 7 -113 10 -165 7 -112 7
-139 -1 -151 -7 -11 -384 -12 -402 0 -10 6 -12 27 -8 82 2 41 5 74 6 74 1 0 3
43 6 95 2 52 7 129 10 170 3 41 8 169 11 285 3 115 8 212 13 215 8 5 269 3
318 -2z"/>
<path d="M913 1065 c0 -7 6 -11 14 -8 7 3 13 6 13 8 0 2 -6 5 -13 8 -8 3 -14
-1 -14 -8z"/>
<path d="M799 1039 c-14 -8 -5 -13 16 -9 6 1 6 -2 2 -7 -5 -4 -24 -9 -42 -9
-19 -1 -46 -5 -60 -8 -24 -6 -25 -8 -11 -28 11 -16 13 -25 4 -35 -7 -8 -7 -13
0 -13 7 0 10 -66 11 -186 1 -102 3 -189 6 -194 2 -4 5 -50 6 -101 1 -52 6 -99
11 -105 5 -7 7 -18 6 -25 -2 -12 30 -13 182 -10 173 3 554 5 593 2 9 0 25 -1
35 -1 86 0 118 2 133 11 12 6 20 5 25 -3 5 -7 3 -8 -6 -3 -9 6 -11 4 -5 -4 5
-9 10 -10 18 -2 16 16 60 14 51 -1 -6 -10 -4 -10 7 -2 8 6 21 12 29 12 8 0 28
3 43 7 17 3 26 2 23 -4 -4 -5 -2 -13 4 -16 6 -4 9 -1 8 7 -2 8 7 13 27 13 24
0 29 -4 27 -20 -2 -15 -1 -17 7 -6 5 8 7 21 3 29 -4 11 -2 13 8 7 19 -12 93
-12 106 0 14 13 16 30 4 31 -5 1 -13 3 -17 4 -5 1 -11 2 -15 1 -5 0 -9 11 -9
27 -1 15 -2 34 -3 42 -1 19 16 40 28 32 5 -3 6 0 2 7 -4 6 -12 8 -18 5 -7 -5
-9 2 -4 22 4 16 7 40 7 54 0 277 1 379 6 398 5 21 3 22 -63 22 -38 1 -96 3
-129 5 -33 2 -168 7 -299 10 -273 8 -372 16 -369 31 1 6 -11 10 -27 10 -20 0
-27 -3 -21 -10 6 -7 1 -11 -15 -12 -13 -1 -24 2 -24 6 0 4 -7 10 -15 14 -8 3
-14 0 -12 -6 2 -13 -50 -21 -58 -9 -2 5 7 7 20 5 14 -1 25 1 25 5 0 4 -17 7
-39 7 -23 -1 -37 -5 -34 -12 2 -7 -14 -11 -47 -11 -38 0 -50 4 -51 16 0 11 -2
12 -6 3 -3 -8 -9 -10 -16 -4 -19 15 -54 20 -68 11z m1178 -176 l1 -93 -148 0
c-93 0 -151 4 -155 10 -5 8 -11 8 -20 0 -16 -13 -75 -10 -94 4 -11 8 -13 8 -7
-1 5 -9 0 -13 -14 -13 -14 0 -19 4 -14 13 5 8 2 7 -10 -2 -14 -12 -19 -12 -29
-1 -10 10 -9 11 3 5 8 -5 12 -4 7 0 -4 5 -16 9 -27 10 -16 1 -17 -1 -8 -12 9
-11 8 -13 -3 -11 -8 2 -19 9 -25 17 -9 11 -12 12 -19 1 -6 -9 -4 -11 6 -5 11
6 11 5 2 -5 -13 -14 -37 -4 -27 12 4 7 2 8 -5 4 -6 -4 -9 -12 -6 -17 4 -5 -1
-9 -10 -9 -10 0 -15 6 -12 13 3 8 -1 14 -9 14 -7 0 -11 -4 -8 -8 2 -4 0 -10
-5 -14 -14 -8 -52 18 -47 32 3 7 2 15 -3 17 -11 7 -10 -26 1 -41 6 -8 4 -10
-9 -8 -10 2 -22 4 -26 4 -5 1 -5 7 -1 14 6 8 3 8 -9 -1 -25 -21 -36 -7 -27 35
6 24 5 42 -2 50 -7 9 -7 13 1 13 6 0 11 9 11 20 0 26 27 37 51 22 23 -15 32
-15 24 -2 -3 6 1 10 10 10 9 0 14 -4 11 -8 -6 -10 24 -9 39 0 6 3 69 7 140 8
72 1 153 5 180 9 28 3 104 6 170 6 l120 0 2 -92z m-1083 36 c-15 -16 -15 -19
-2 -14 12 5 14 1 10 -21 -4 -21 -2 -25 9 -19 11 6 12 5 2 -6 -16 -16 -17 -33
-2 -23 8 5 8 1 0 -14 -6 -11 -18 -22 -26 -26 -11 -4 -14 -2 -8 6 11 19 11 48
0 48 -5 0 -3 8 4 17 8 9 9 14 3 11 -6 -4 -10 4 -10 20 1 29 16 53 29 45 5 -3
0 -14 -9 -24z m232 -1 c-6 -4 -12 -16 -12 -27 -1 -11 2 -18 6 -16 4 3 10 -2
14 -10 3 -8 1 -17 -4 -20 -6 -4 -10 -1 -10 5 0 6 -5 8 -10 5 -7 -4 -10 9 -9
37 3 54 7 61 23 45 10 -9 11 -14 2 -19z m-311 0 c-1 -20 -35 -37 -35 -17 0 5
5 9 11 9 6 0 9 7 5 15 -3 9 0 15 8 15 7 0 12 -10 11 -22z m213 -3 c11 -23 10
-25 -13 -23 -16 2 -25 10 -28 25 -6 32 26 31 41 -2z m112 -15 c0 -5 -5 -10
-11 -10 -5 0 -7 5 -4 10 3 6 8 10 11 10 2 0 4 -4 4 -10z m-330 -39 c5 -11 10
-31 10 -45 0 -21 -5 -26 -25 -26 -22 0 -25 4 -25 38 0 54 20 70 40 33z m220 6
c12 4 13 3 1 -5 -7 -5 -10 -15 -6 -22 4 -7 -1 -14 -15 -17 -17 -4 -19 -8 -8
-15 10 -8 10 -9 -2 -5 -10 2 -15 17 -16 40 -1 30 2 35 15 28 9 -5 23 -6 31 -4z
m104 -48 c-3 -5 -11 -6 -17 -2 -9 5 -8 2 0 -8 10 -13 10 -16 -2 -16 -15 0 -21
28 -9 40 9 9 35 -4 28 -14z m839 -71 c2 -7 3 -47 1 -88 -2 -41 -4 -78 -4 -82
0 -5 -4 -8 -10 -8 -5 0 -7 8 -4 18 5 14 3 14 -11 -3 -14 -17 -17 -18 -25 -5
-6 10 -10 11 -10 3 0 -9 -15 -12 -49 -11 -39 2 -47 6 -43 18 4 12 1 11 -15 -3
-19 -17 -20 -16 -18 12 1 17 -2 28 -7 25 -5 -4 -7 -12 -5 -18 3 -7 1 -19 -4
-27 -8 -12 -10 -12 -19 1 -6 10 -10 11 -10 3 0 -7 -5 -13 -11 -13 -6 0 -9 7
-6 15 9 23 -8 26 -31 5 -17 -16 -21 -17 -26 -4 -4 10 -2 13 6 8 7 -4 8 -3 4 5
-4 6 -12 9 -17 5 -5 -3 -7 -9 -4 -14 11 -18 -31 -15 -55 4 -14 11 -19 14 -12
6 6 -8 12 -19 12 -24 0 -7 -3 -8 -8 -1 -13 18 -47 42 -38 27 7 -12 4 -12 -14
-2 -13 7 -20 8 -16 2 4 -7 -17 -10 -61 -8 -38 2 -70 5 -73 6 -3 1 -9 1 -15 0
-39 -8 -84 -7 -79 2 4 7 2 8 -5 4 -29 -18 -60 -16 -72 5 -9 17 -8 20 3 13 11
-7 11 -5 0 9 -18 22 -8 35 23 32 14 -2 23 1 20 5 -3 5 -12 7 -20 4 -7 -3 -19
4 -25 16 -8 15 -8 20 -1 16 6 -4 11 0 11 8 0 19 -16 18 220 22 236 5 237 5
253 3 6 0 24 2 39 5 15 4 30 2 33 -4 4 -7 14 -5 28 5 27 19 163 21 170 3z
m-1153 -83 c0 -73 -1 -75 -25 -75 -24 0 -25 2 -25 75 0 73 1 75 25 75 24 0 25
-2 25 -75z m95 0 c0 -65 -2 -70 -23 -73 -16 -2 -25 3 -31 20 -5 13 -6 27 -3
32 2 5 6 25 7 45 2 20 4 39 4 42 1 4 11 6 24 5 21 -1 22 -5 22 -71z m125 -30
l0 -45 -44 0 c-48 0 -45 -7 -31 85 12 71 14 73 46 37 23 -25 29 -42 29 -77z
m84 79 c4 -10 2 -13 -6 -8 -7 4 -8 3 -4 -4 5 -9 13 -9 27 -1 19 10 20 9 8 -13
-7 -13 -12 -24 -11 -25 6 -9 0 -23 -9 -23 -6 0 -9 7 -6 15 4 8 3 17 -2 19 -14
9 -9 -28 6 -46 18 -20 9 -38 -17 -38 -17 0 -19 7 -17 58 3 70 17 101 31 66z
m785 -188 c8 -5 12 -5 9 0 -4 5 8 9 26 9 l32 0 -3 -53 c-2 -40 0 -51 10 -46 8
6 8 3 -1 -9 -8 -9 -11 -21 -7 -27 4 -6 -4 -10 -19 -10 -14 0 -28 5 -31 10 -4
7 -11 7 -18 2 -14 -11 -46 -10 -65 2 -7 4 -12 2 -12 -5 0 -8 -5 -7 -17 2 -9 8
-14 9 -11 4 12 -20 -74 -9 -90 11 -13 17 -14 17 -9 2 4 -10 2 -18 -3 -18 -9 0
-14 15 -11 33 1 5 -3 6 -8 2 -6 -3 -8 -12 -5 -20 4 -10 0 -13 -16 -10 -33 6
-36 13 -14 31 18 15 18 15 -2 5 -12 -6 -24 -7 -28 -3 -4 3 -4 -1 0 -11 5 -13
0 -17 -22 -18 -16 -1 -33 0 -39 1 -5 2 -35 4 -65 4 -36 0 -59 6 -68 16 -10 13
-11 13 -6 -3 5 -13 2 -18 -7 -16 -8 1 -26 -1 -42 -6 -15 -4 -61 -4 -102 0
l-75 7 0 54 0 55 130 -2 c117 -1 153 -8 118 -22 -10 -4 -10 -6 0 -6 7 -1 15 6
19 14 5 14 8 14 25 -2 16 -14 18 -14 13 -1 -5 13 4 15 59 15 38 -1 66 -6 66
-12 0 -5 4 -5 8 2 4 7 44 13 100 16 51 3 95 7 98 9 7 8 68 3 83 -6z m-1089
-61 c0 -52 -1 -55 -25 -55 -24 0 -25 3 -25 55 0 52 1 55 25 55 24 0 25 -3 25
-55z m98 3 c-3 -52 -4 -53 -35 -56 l-33 -3 0 55 0 56 36 0 35 0 -3 -52z m128
17 c1 -16 3 -34 4 -40 7 -29 -2 -35 -50 -35 l-50 0 0 56 0 55 47 -3 c45 -3 48
-5 49 -33z m112 -20 l-2 -55 -33 0 -33 0 0 55 0 55 35 0 34 0 -1 -55z"/>
<path d="M1253 901 c0 -11 5 -18 9 -15 4 3 5 11 1 19 -7 21 -12 19 -10 -4z"/>
<path d="M1346 818 c3 -5 10 -6 15 -3 13 9 11 12 -6 12 -8 0 -12 -4 -9 -9z"/>
<path d="M1383 685 c0 -8 4 -12 9 -9 5 3 6 10 3 15 -9 13 -12 11 -12 -6z"/>
<path d="M1554 649 c-8 -14 13 -18 30 -6 16 12 16 13 -4 13 -12 0 -23 -4 -26
-7z"/>
<path d="M1246 622 c-2 -4 2 -16 10 -27 8 -10 14 -14 14 -8 0 7 -5 15 -10 18
-6 4 -8 11 -5 16 4 5 4 9 1 9 -3 0 -7 -3 -10 -8z"/>
<path d="M1315 610 c-10 -17 12 -24 27 -9 16 17 15 18 -3 16 -11 -1 -22 -4
-24 -7z"/>
<path d="M1415 610 c4 -6 11 -8 16 -5 14 9 11 15 -7 15 -8 0 -12 -5 -9 -10z"/>
<path d="M1653 605 c-4 -5 -3 -7 2 -3 4 4 13 3 20 -2 8 -6 17 -5 29 3 14 10
13 12 -14 12 -17 1 -34 -4 -37 -10z"/>
<path d="M1743 605 c0 -8 4 -12 9 -9 5 3 6 10 3 15 -9 13 -12 11 -12 -6z"/>
<path d="M1875 590 c3 -5 8 -10 11 -10 2 0 4 5 4 10 0 6 -5 10 -11 10 -5 0 -7
-4 -4 -10z"/>
<path d="M1385 451 c-3 -5 -2 -12 3 -15 5 -3 9 1 9 9 0 17 -3 19 -12 6z"/>
<path d="M1630 446 c7 -7 13 -7 20 0 6 6 3 10 -10 10 -13 0 -16 -4 -10 -10z"/>
<path d="M1514 439 c-3 -6 -2 -15 3 -20 5 -5 9 -1 9 11 0 23 -2 24 -12 9z"/>
<path d="M1944 400 c0 -13 4 -16 10 -10 7 7 7 13 0 20 -6 6 -10 3 -10 -10z"/>
<path d="M910 1032 c0 -5 9 -8 20 -7 29 2 33 10 5 13 -14 1 -25 -2 -25 -6z"/>
<path d="M1836 312 c-3 -5 1 -9 9 -9 8 0 12 4 9 9 -3 4 -7 8 -9 8 -2 0 -6 -4
-9 -8z"/>
<path d="M2214 222 c3 -5 0 -13 -6 -15 -9 -4 -10 -6 -1 -6 17 -1 25 16 12 25
-7 4 -9 3 -5 -4z"/>
<path d="M2386 188 c3 -5 10 -6 15 -3 13 9 11 12 -6 12 -8 0 -12 -4 -9 -9z"/>
</g>
</svg>
