<?xml version="1.0" standalone="no"?>
<!DOCTYPE svg PUBLIC "-//W3C//DTD SVG 20010904//EN"
 "http://www.w3.org/TR/2001/REC-SVG-20010904/DTD/svg10.dtd">
<svg version="1.0" xmlns="http://www.w3.org/2000/svg"
 width="186.000000pt" height="136.000000pt" viewBox="0 0 186.000000 136.000000"
 preserveAspectRatio="xMidYMid meet">
<metadata>
Created by potrace 1.16, written by Peter Selinger 2001-2019
</metadata>
<g transform="translate(0.000000,136.000000) scale(0.100000,-0.100000)"
fill="#000000" stroke="none">
<path d="M574 1224 c-23 -6 -56 -22 -73 -36 -41 -35 -132 -140 -126 -146 2 -2
-6 -19 -19 -36 -20 -28 -64 -115 -111 -221 -35 -79 -25 -129 56 -289 58 -113
85 -153 148 -220 63 -66 119 -95 194 -99 51 -3 127 7 157 20 8 3 21 7 29 9 25
5 201 98 201 106 0 5 6 8 13 8 10 0 119 83 190 146 11 9 26 13 35 9 9 -3 18
-6 20 -6 1 1 25 -10 52 -24 28 -14 50 -22 50 -19 0 4 6 1 14 -5 14 -12 117
-47 233 -80 47 -14 63 -15 67 -6 2 7 -5 17 -17 22 -12 6 -59 29 -104 52 -46
23 -85 41 -88 41 -3 0 -18 6 -33 14 -15 7 -62 28 -105 46 l-77 32 19 36 c34
66 44 129 28 192 -15 58 -22 76 -35 86 -12 9 -7 11 24 12 21 0 48 3 59 5 11 3
55 8 97 12 43 3 90 8 105 11 33 5 93 18 111 24 4 1 13 3 21 4 8 0 16 7 19 15
4 11 -25 12 -164 7 -93 -3 -201 -9 -240 -12 -69 -6 -71 -5 -105 28 -43 42 -89
78 -159 129 -30 21 -60 42 -65 47 -15 10 -92 48 -140 69 -50 21 -223 32 -281
17z m214 -49 c20 -4 41 -10 47 -13 5 -4 15 -7 21 -8 25 -4 183 -88 230 -122
133 -98 166 -125 175 -149 5 -14 7 -28 5 -30 -3 -3 0 -17 6 -32 12 -30 20 -81
19 -129 0 -38 -28 -129 -42 -137 -5 -4 -9 -14 -9 -24 0 -19 -117 -131 -136
-131 -3 0 -20 -11 -37 -24 -46 -34 -193 -106 -201 -98 -4 3 -10 2 -14 -3 -12
-17 -77 -35 -144 -42 -111 -10 -196 31 -272 130 -20 26 -36 50 -36 53 0 3 -9
19 -21 35 -11 16 -18 29 -14 29 3 0 -6 21 -21 47 -14 26 -27 54 -29 63 -2 8
-9 29 -16 45 -7 17 -12 33 -11 38 1 4 -3 7 -9 7 -5 0 -7 5 -4 10 3 6 1 10 -6
10 -8 0 -6 6 4 18 10 10 17 24 17 31 0 6 9 30 20 51 11 22 18 40 16 40 -4 0
27 61 79 157 6 12 27 41 46 64 19 23 36 45 39 48 13 18 76 55 112 65 41 13
123 13 186 1z"/>
<path d="M673 972 c-24 -9 -43 -19 -43 -23 0 -12 110 -102 117 -96 3 4 -11 23
-32 43 l-39 36 35 16 c19 8 43 14 54 13 24 -3 56 -30 49 -42 -2 -5 24 -36 58
-70 35 -35 62 -66 61 -71 -2 -4 1 -7 6 -5 11 2 72 -63 108 -115 29 -43 47 -50
33 -13 -31 82 -179 250 -215 243 -13 -2 -20 6 -26 26 -20 72 -77 92 -166 58z"/>
<path d="M674 858 c-56 -61 -70 -176 -38 -302 5 -19 3 -27 -4 -22 -17 10 -20
-17 -6 -46 25 -48 77 -59 113 -23 18 17 5 20 -32 6 -18 -7 -30 -6 -43 4 -22
16 -22 16 27 20 116 8 203 21 224 33 5 4 16 7 25 9 50 8 77 18 96 34 11 11 24
16 29 12 4 -5 5 -2 1 5 -4 7 -12 10 -17 7 -5 -4 -17 -8 -26 -10 -10 -3 -36 -9
-58 -14 -81 -19 -112 -23 -207 -28 l-97 -5 -7 64 c-13 101 -7 145 26 211 27
54 23 78 -6 45z"/>
</g>
</svg>
