<?xml version="1.0" standalone="no"?>
<!DOCTYPE svg PUBLIC "-//W3C//DTD SVG 20010904//EN"
 "http://www.w3.org/TR/2001/REC-SVG-20010904/DTD/svg10.dtd">
<svg version="1.0" xmlns="http://www.w3.org/2000/svg"
 width="254.000000pt" height="150.000000pt" viewBox="0 0 254.000000 150.000000"
 preserveAspectRatio="xMidYMid meet">
<metadata>
Created by potrace 1.16, written by Peter Selinger 2001-2019
</metadata>
<g transform="translate(0.000000,150.000000) scale(0.100000,-0.100000)"
fill="#000000" stroke="none">
<path d="M165 1318 l2 -23 329 1 c181 0 408 4 504 8 284 12 305 12 303 -1 -3
-11 -8 -105 -18 -305 -2 -48 -5 -153 -6 -233 l-2 -146 -111 6 c-61 3 -142 8
-181 10 -38 2 -242 7 -452 11 l-383 7 0 -34 c0 -47 9 -54 60 -52 25 1 216 4
425 7 209 3 405 8 435 10 30 2 93 5 140 7 53 1 93 7 107 16 12 8 26 14 30 14
4 -1 8 79 8 176 l0 177 60 1 60 1 1 -246 c2 -439 6 -561 18 -557 7 2 12 68 13
203 2 109 4 289 5 399 l3 200 35 0 35 0 1 -245 c2 -408 7 -561 19 -557 6 2 11
89 12 243 3 473 5 554 11 555 4 1 22 2 41 3 l33 1 2 -392 c1 -216 5 -395 9
-399 4 -4 10 -4 14 -1 6 7 11 241 12 615 l1 182 30 0 c17 0 33 -6 35 -12 2 -7
6 -186 9 -398 3 -212 5 -386 5 -386 1 -1 7 -4 14 -7 9 -3 13 57 14 277 2 154
2 306 2 336 -3 116 -1 181 4 186 4 5 221 11 475 13 56 1 102 5 102 10 0 6 -8
10 -17 10 -10 1 -70 3 -133 5 -63 2 -298 6 -523 8 l-407 3 -5 30 c-4 28 -14
211 -15 263 l0 22 -583 0 -584 0 2 -22z"/>
<path d="M369 1201 c-1 -9 -2 -23 -3 -31 0 -8 4 -19 11 -25 6 -5 15 -32 18
-60 13 -97 20 -128 32 -132 14 -5 29 47 36 126 3 29 9 56 12 60 4 3 30 7 58 7
29 1 82 3 119 4 38 2 70 1 72 -1 2 -2 6 -39 9 -82 4 -43 9 -82 11 -86 3 -4 7
-20 10 -35 6 -31 13 -42 21 -34 10 10 26 116 30 195 1 35 7 58 13 59 25 3 26
5 8 16 -10 6 -39 12 -65 14 -25 1 -84 6 -131 10 -47 4 -124 8 -172 9 -74 1
-88 -1 -89 -14z"/>
<path d="M370 887 l0 -34 113 3 c113 3 272 12 316 18 14 1 26 7 28 13 5 13
-80 22 -290 29 l-167 6 0 -35z"/>
</g>
</svg>
