<?xml version="1.0" standalone="no"?>
<!DOCTYPE svg PUBLIC "-//W3C//DTD SVG 20010904//EN"
 "http://www.w3.org/TR/2001/REC-SVG-20010904/DTD/svg10.dtd">
<svg version="1.0" xmlns="http://www.w3.org/2000/svg"
 width="196.000000pt" height="164.000000pt" viewBox="0 0 196.000000 164.000000"
 preserveAspectRatio="xMidYMid meet">
<metadata>
Created by potrace 1.16, written by Peter Selinger 2001-2019
</metadata>
<g transform="translate(0.000000,164.000000) scale(0.100000,-0.100000)"
fill="#000000" stroke="none">
<path d="M1349 1466 c-83 -34 -193 -58 -257 -57 -86 1 -116 7 -210 37 -60 20
-86 19 -77 -3 16 -40 25 -146 16 -182 -6 -20 -12 -49 -15 -66 -3 -16 -15 -56
-26 -87 -16 -45 -20 -83 -20 -175 0 -135 20 -426 29 -417 3 3 6 117 7 252 1
225 3 269 20 325 3 10 7 31 9 47 2 16 15 57 29 92 18 48 23 75 19 111 -5 47
-5 47 20 38 60 -23 187 -34 250 -21 63 12 277 106 277 121 0 12 -7 11 -71 -15z"/>
<path d="M524 1438 c36 -123 39 -149 26 -203 -17 -70 -90 -207 -117 -219 -66
-30 -77 -193 -22 -311 5 -11 29 -74 53 -140 58 -158 84 -216 85 -189 1 12 -3
34 -8 50 -48 157 -93 366 -94 434 -1 47 4 73 16 90 12 17 13 27 6 36 -8 9 4
32 44 84 30 39 59 81 65 93 48 103 51 128 27 222 -17 63 -26 75 -64 75 -20 0
-22 -4 -17 -22z"/>
<path d="M1300 1183 c-158 -51 -195 -56 -292 -39 -46 8 -96 19 -111 25 -41 16
-47 14 -47 -13 0 -18 8 -27 33 -36 118 -44 223 -43 357 5 59 20 170 78 170 88
0 4 -1 7 -2 6 -2 -1 -50 -17 -108 -36z"/>
<path d="M1347 958 c-106 -57 -108 -58 -138 -42 -22 11 -37 13 -57 6 l-27 -10
33 -12 c34 -13 41 -25 18 -33 -8 -3 -31 7 -53 23 -37 29 -73 39 -73 21 0 -4
18 -21 41 -37 37 -26 39 -29 23 -41 -27 -20 -33 -17 -95 42 -50 48 -61 54 -78
45 -20 -10 -19 -12 12 -41 l32 -31 -30 8 c-17 4 -40 11 -52 15 -21 8 -42 -5
-30 -18 4 -3 43 -14 88 -24 45 -11 93 -28 108 -38 49 -33 55 -36 48 -17 -5 12
2 22 25 36 34 21 56 17 37 -6 -6 -8 -9 -17 -6 -21 4 -3 -13 -28 -38 -55 -25
-28 -42 -55 -38 -63 8 -22 37 2 73 59 17 26 36 48 42 51 7 2 81 22 163 45 213
60 237 76 58 39 l-102 -21 -31 23 c-34 26 -35 24 31 64 19 11 47 29 64 39 16
11 40 25 53 31 13 7 20 15 15 17 -4 3 -57 -22 -116 -54z m-77 -129 c-43 -12
-70 -10 -70 6 0 26 32 35 65 17 l30 -16 -25 -7z"/>
<path d="M856 771 c5 -6 38 -11 74 -13 l65 -3 -53 -34 c-39 -25 -52 -39 -52
-57 0 -13 2 -24 5 -24 18 0 66 34 105 74 24 25 51 47 60 47 28 3 -94 17 -154
18 -38 1 -56 -3 -50 -8z"/>
<path d="M1001 664 c-28 -37 -51 -70 -51 -75 0 -20 22 -18 40 3 25 30 74 127
68 134 -3 2 -28 -25 -57 -62z"/>
</g>
</svg>
