<?xml version="1.0" standalone="no"?>
<!DOCTYPE svg PUBLIC "-//W3C//DTD SVG 20010904//EN"
 "http://www.w3.org/TR/2001/REC-SVG-20010904/DTD/svg10.dtd">
<svg version="1.0" xmlns="http://www.w3.org/2000/svg"
 width="158.000000pt" height="89.000000pt" viewBox="0 0 158.000000 89.000000"
 preserveAspectRatio="xMidYMid meet">
<metadata>
Created by potrace 1.16, written by Peter Selinger 2001-2019
</metadata>
<g transform="translate(0.000000,89.000000) scale(0.100000,-0.100000)"
fill="#000000" stroke="none">
<path d="M90 800 c0 -11 141 -12 350 -1 126 7 120 8 -107 9 -157 1 -243 -2
-243 -8z"/>
<path d="M224 709 c3 -13 9 -45 13 -72 7 -57 15 -53 23 11 l5 47 77 5 c76 6
120 20 61 20 -16 0 -65 3 -108 7 l-78 6 7 -24z"/>
<path d="M821 705 c-1 -11 -4 -93 -8 -182 -5 -147 -4 -163 11 -163 14 0 16 15
16 115 l0 115 130 -2 c72 -1 133 2 137 5 3 4 4 7 2 7 -2 1 -62 3 -134 6 -71 3
-131 7 -132 8 -2 1 -7 27 -12 57 -5 30 -9 45 -10 34z"/>
<path d="M457 693 c-7 -14 5 -103 14 -103 5 0 9 25 9 55 0 48 -11 71 -23 48z"/>
<path d="M1140 596 c0 -9 30 -14 35 -6 4 6 -3 10 -14 10 -12 0 -21 -2 -21 -4z"/>
<path d="M1092 550 c0 -14 2 -19 5 -12 2 6 2 18 0 25 -3 6 -5 1 -5 -13z"/>
<path d="M220 520 c0 -12 149 -12 195 0 20 5 -9 8 -82 9 -70 1 -113 -3 -113
-9z"/>
<path d="M75 349 c-4 -6 -5 -13 -2 -15 7 -8 473 -3 532 5 40 5 20 8 -95 14
-217 10 -428 9 -435 -4z"/>
</g>
</svg>
