<?xml version="1.0" standalone="no"?>
<!DOCTYPE svg PUBLIC "-//W3C//DTD SVG 20010904//EN"
 "http://www.w3.org/TR/2001/REC-SVG-20010904/DTD/svg10.dtd">
<svg version="1.0" xmlns="http://www.w3.org/2000/svg"
 width="300.000000pt" height="172.000000pt" viewBox="0 0 300.000000 172.000000"
 preserveAspectRatio="xMidYMid meet">
<metadata>
Created by potrace 1.16, written by Peter Selinger 2001-2019
</metadata>
<g transform="translate(0.000000,172.000000) scale(0.100000,-0.100000)"
fill="#000000" stroke="none">
<path d="M1347 1528 c-21 -21 -39 -38 -42 -38 -9 0 -52 -49 -47 -54 3 -3 0 -6
-6 -6 -17 0 -52 -32 -52 -48 0 -14 -49 -84 -63 -90 -4 -2 -5 -8 -1 -13 3 -5 0
-9 -6 -9 -6 0 -9 -4 -6 -9 3 -4 -3 -16 -14 -26 -11 -10 -20 -29 -20 -42 0 -24
-1 -25 -62 -19 -35 3 -157 8 -272 12 l-208 6 5 -90 c2 -50 8 -95 11 -101 4 -6
2 -20 -4 -31 -6 -11 -7 -20 -2 -20 5 0 6 -17 2 -39 -9 -52 -1 -100 19 -109 19
-9 326 -1 326 8 0 1 21 3 47 5 25 1 51 6 57 10 6 3 11 1 11 -6 0 -9 3 -9 15 1
8 6 22 9 32 6 21 -7 56 -60 46 -70 -3 -3 -2 -6 4 -6 6 0 13 -8 17 -17 3 -10 9
-25 14 -33 28 -47 53 -102 43 -96 -11 7 -46 9 -428 21 l-212 7 3 -26 c1 -14 6
-29 10 -33 9 -9 415 -7 474 2 60 10 172 14 172 6 0 -3 10 -18 23 -32 66 -78
104 -125 122 -153 12 -18 28 -31 40 -30 28 0 111 39 137 64 12 11 27 20 34 20
7 0 14 3 16 8 5 11 95 72 99 67 3 -2 24 12 48 31 24 18 50 34 58 34 8 0 11 5
7 12 -4 7 -3 8 4 4 7 -4 24 5 39 19 16 15 43 34 62 42 18 8 45 25 59 39 15 13
33 24 41 24 8 0 33 15 55 34 23 19 58 41 76 50 36 16 71 37 80 47 3 3 19 11
36 18 33 13 64 4 89 -26 5 -7 33 -21 60 -31 28 -9 57 -22 65 -27 70 -46 172
-82 155 -55 -3 5 0 10 8 10 11 0 14 42 13 248 l-1 247 -30 -1 c-28 -1 -103
-31 -186 -75 -20 -10 -42 -19 -49 -19 -7 0 -32 -16 -55 -35 -23 -19 -45 -31
-49 -28 -3 4 -6 1 -6 -5 0 -19 -45 -14 -73 8 -14 11 -30 20 -36 20 -6 0 -11 5
-11 10 0 6 -7 10 -16 10 -9 0 -12 5 -8 12 4 7 3 8 -4 4 -6 -4 -30 7 -53 24
-23 16 -46 30 -51 30 -11 0 -81 51 -86 63 -2 4 -9 7 -16 7 -13 0 -99 59 -104
72 -2 4 -9 5 -16 2 -6 -2 -23 7 -36 21 -13 14 -29 25 -37 25 -7 0 -13 5 -13
11 0 6 -6 9 -14 6 -7 -3 -25 6 -39 19 -14 13 -31 24 -37 24 -5 0 -10 5 -10 11
0 5 -5 7 -10 4 -6 -4 -24 5 -41 19 -17 15 -34 24 -38 21 -5 -2 -26 11 -48 30
-22 19 -49 33 -59 33 -11 -1 -37 -19 -57 -40z m73 -39 c0 -5 4 -8 9 -5 5 4 22
-5 38 -18 15 -13 38 -26 51 -30 12 -4 22 -12 22 -17 0 -5 5 -9 11 -9 6 0 25
-10 42 -22 18 -13 34 -23 37 -24 14 -2 60 -28 60 -35 0 -4 12 -10 27 -14 15
-3 30 -11 33 -15 3 -5 44 -29 91 -53 47 -24 98 -52 114 -63 15 -10 34 -19 42
-20 8 -2 23 -10 32 -18 10 -9 25 -16 34 -16 9 0 17 -4 17 -10 0 -5 6 -10 14
-10 8 0 21 -6 28 -14 8 -7 25 -17 38 -21 14 -4 42 -21 63 -37 37 -30 38 -30
65 -12 15 10 44 27 65 37 20 11 37 23 37 27 0 4 11 11 25 14 14 4 25 11 25 16
0 6 5 10 11 10 6 0 28 13 48 29 20 15 46 31 59 35 24 8 23 10 27 -69 1 -22 5
-51 9 -65 9 -34 14 -290 5 -295 -4 -3 -12 2 -19 10 -7 8 -17 15 -23 15 -5 0
-36 18 -68 40 -32 22 -64 40 -69 40 -6 0 -8 5 -5 10 3 6 -2 10 -11 10 -10 0
-25 7 -34 15 -16 14 -106 65 -116 65 -3 0 -3 -4 0 -9 10 -15 -39 -76 -69 -86
-17 -6 -49 -23 -72 -39 -23 -15 -47 -25 -52 -21 -6 3 -11 2 -11 -3 0 -5 -17
-17 -37 -28 -21 -10 -56 -30 -78 -44 -22 -14 -67 -39 -100 -55 -33 -16 -66
-35 -73 -42 -7 -7 -20 -13 -28 -13 -8 0 -14 -4 -14 -8 0 -4 -12 -13 -27 -20
-39 -16 -115 -62 -131 -79 -7 -7 -20 -13 -28 -13 -8 0 -14 -4 -14 -8 0 -5 -12
-15 -27 -23 -16 -7 -43 -26 -60 -41 -18 -15 -40 -25 -48 -22 -8 3 -23 25 -35
49 -11 23 -29 50 -40 60 -11 10 -20 26 -20 35 0 10 -9 29 -20 43 -11 14 -20
32 -20 40 0 8 -10 26 -21 41 -12 15 -19 30 -15 33 3 3 -3 18 -14 33 -11 16
-20 37 -20 47 0 10 -4 23 -10 29 -5 5 -12 38 -15 74 -3 36 -10 69 -15 74 -12
12 -13 103 -1 110 5 3 12 27 16 53 4 27 12 54 17 61 6 7 8 15 4 19 -6 7 36 67
66 94 10 10 17 22 16 27 -3 12 137 162 152 162 6 0 10 -5 10 -11z m-360 -353
c0 3 4 3 9 0 5 -4 4 -24 -3 -48 -12 -44 -13 -139 -1 -194 l7 -31 -234 4 c-128
2 -238 6 -245 8 -8 3 -10 16 -7 37 2 18 7 71 10 118 3 47 8 87 11 90 5 5 34 6
275 10 76 2 135 7 132 11 -3 5 6 5 20 -1 14 -5 26 -7 26 -4z"/>
<path d="M1565 1306 c-16 -17 -20 -34 -19 -88 l0 -68 -163 0 c-90 0 -163 -3
-163 -6 0 -3 7 -13 16 -21 13 -13 37 -16 125 -14 61 1 122 6 136 12 30 11 46
1 48 -31 1 -12 -5 -20 -14 -20 -9 -1 -80 -1 -158 0 -141 1 -168 -5 -144 -33 7
-10 47 -13 148 -11 76 1 144 3 152 5 10 3 14 -6 15 -31 l1 -35 -58 -1 c-32 0
-60 2 -62 6 -3 5 -132 5 -145 0 -7 -3 -23 -7 -37 -8 -22 -3 -14 -30 10 -38 12
-4 56 -6 97 -5 41 2 102 4 135 5 l60 1 3 -31 c3 -35 -17 -50 -46 -35 -27 13
-269 14 -277 1 -17 -28 17 -35 173 -35 l157 0 1 -65 c1 -36 2 -68 3 -73 1 -10
55 3 59 15 2 4 10 8 18 8 7 0 28 16 45 35 18 19 41 37 53 41 12 4 23 10 26 13
3 4 22 20 43 35 20 16 37 35 37 42 0 8 5 14 11 14 5 0 8 4 5 9 -3 4 1 17 9 27
22 29 18 60 -15 106 -16 22 -30 45 -30 50 0 5 -15 25 -32 45 -18 19 -32 40
-30 45 3 12 -49 59 -59 52 -4 -2 -14 4 -21 13 -8 10 -32 34 -53 54 l-40 37
-20 -22z m67 -83 l27 -28 -3 -214 -2 -214 -30 -23 c-22 -18 -30 -20 -36 -10
-5 9 -4 453 1 509 2 14 18 7 43 -20z m141 -141 c4 -2 7 -10 7 -17 0 -7 4 -15
8 -17 4 -1 18 -19 30 -39 21 -34 21 -69 1 -69 -5 0 -9 -11 -9 -24 0 -21 -40
-64 -108 -117 -23 -18 -32 1 -27 59 5 56 12 97 15 97 1 0 4 45 5 100 1 55 3
101 4 103 0 1 16 -14 34 -35 17 -21 35 -39 40 -41z"/>
<path d="M556 1403 c4 -15 9 -31 11 -35 4 -8 233 -3 393 8 47 4 113 7 147 8
35 1 68 7 75 14 9 9 -9 12 -85 12 -53 0 -97 4 -97 8 0 4 -101 9 -225 11 l-226
3 7 -29z"/>
</g>
</svg>
