<?xml version="1.0" standalone="no"?>
<!DOCTYPE svg PUBLIC "-//W3C//DTD SVG 20010904//EN"
 "http://www.w3.org/TR/2001/REC-SVG-20010904/DTD/svg10.dtd">
<svg version="1.0" xmlns="http://www.w3.org/2000/svg"
 width="243.000000pt" height="122.000000pt" viewBox="0 0 243.000000 122.000000"
 preserveAspectRatio="xMidYMid meet">
<metadata>
Created by potrace 1.16, written by Peter Selinger 2001-2019
</metadata>
<g transform="translate(0.000000,122.000000) scale(0.100000,-0.100000)"
fill="#000000" stroke="none">
<path d="M99 1169 c-10 -10 -26 -19 -34 -19 -13 0 -15 -23 -16 -142 -1 -294 1
-499 5 -507 3 -4 8 -70 11 -147 12 -260 13 -276 27 -290 11 -12 118 -14 610
-14 328 0 602 2 609 4 8 3 160 8 339 11 179 4 405 9 503 11 111 2 177 0 177
-6 0 -6 7 -10 15 -10 12 0 15 19 15 113 0 61 3 175 6 252 3 77 8 271 10 430
l5 290 -283 2 c-156 1 -357 4 -448 7 -91 3 -241 8 -335 11 -93 3 -192 8 -220
10 -27 2 -259 6 -514 9 -445 4 -464 3 -482 -15z m2179 -61 c5 -7 10 -42 10
-78 0 -103 18 -530 23 -540 1 -3 3 -43 4 -90 2 -47 4 -128 5 -180 1 -52 2
-101 1 -108 -1 -11 -35 -12 -178 -8 -98 3 -275 8 -393 11 -118 3 -289 8 -380
11 -91 3 -246 7 -345 10 -99 2 -245 7 -323 10 l-144 6 6 177 c3 97 8 273 12
391 3 118 9 251 13 295 l6 79 115 3 c63 1 301 4 528 6 228 3 416 7 419 10 2 3
141 6 308 6 232 1 305 -2 313 -11z m-1784 -24 c14 -5 16 -38 16 -268 0 -145 3
-266 7 -269 6 -7 9 -43 17 -265 l5 -132 -217 2 -217 3 1 50 c0 28 3 88 7 135
4 47 7 120 8 163 1 42 4 79 8 81 3 2 7 109 9 238 2 128 5 241 8 251 5 15 22
17 169 17 90 0 170 -3 179 -6z"/>
<path d="M723 1003 c-8 -3 -9 -12 -4 -26 4 -12 9 -134 10 -271 2 -240 4 -278
17 -359 l6 -39 197 6 c108 3 314 6 459 6 144 1 262 4 262 8 0 4 57 8 128 9
268 3 264 2 259 16 -2 6 -12 11 -21 9 -14 -3 -16 12 -14 138 2 78 6 144 10
146 5 3 8 79 8 170 l0 164 -202 2 c-247 1 -327 4 -438 12 -100 8 -660 15 -677
9z m1259 -55 c2 -7 2 -52 0 -101 l-3 -87 -357 4 c-196 3 -369 6 -384 6 l-26 0
0 85 1 85 166 1 c91 0 187 0 212 -1 26 -1 49 3 52 7 3 5 80 10 170 11 126 2
166 -1 169 -10z m-1161 -15 c0 -5 2 -43 4 -85 4 -71 2 -77 -16 -83 -38 -13
-45 8 -41 123 2 48 4 52 27 52 14 0 25 -3 26 -7z m102 -78 c0 -79 0 -80 -26
-83 -25 -3 -27 0 -28 35 0 21 -1 53 -2 71 -1 19 1 36 6 39 4 2 5 9 1 14 -4 7
5 9 22 7 l27 -3 0 -80z m119 68 c2 -10 3 -38 2 -63 -1 -25 -2 -55 -3 -67 -1
-19 -7 -23 -36 -23 l-35 0 0 85 0 85 34 0 c24 0 35 -5 38 -17z m101 -48 c-1
-33 4 -66 10 -74 10 -12 9 -13 -3 -6 -13 8 -13 7 -1 -8 12 -15 10 -17 -21 -17
l-35 0 -2 86 -2 85 28 -3 c27 -3 28 -4 26 -63z m825 -134 c10 -1 12 -25 10
-98 l-3 -98 -155 3 c-85 1 -220 5 -300 8 -80 3 -182 6 -227 7 -45 1 -85 6 -90
10 -10 11 -11 77 -1 77 5 0 8 16 8 35 l0 35 113 2 c202 3 487 15 493 20 3 3
97 2 152 -1z m-1143 -89 c0 -59 -3 -76 -17 -83 -33 -18 -44 -1 -46 73 -3 75 5
90 43 86 18 -3 20 -11 20 -76z m102 23 c1 -22 -1 -55 -4 -72 -4 -28 -9 -33
-34 -33 -15 0 -31 5 -34 10 -4 6 -3 40 0 76 l7 65 32 -3 c29 -3 31 -6 33 -43z
m114 18 c1 -16 2 -50 3 -78 l1 -50 -35 2 c-19 0 -41 1 -49 2 -11 1 -12 14 -7
62 10 84 13 89 52 89 30 0 34 -3 35 -27z m124 -2 c0 -14 -4 -32 -8 -38 -5 -8
-3 -13 4 -13 8 0 8 -4 2 -12 -6 -7 -9 -23 -8 -35 1 -17 -5 -24 -28 -29 -16 -3
-33 -2 -37 2 -4 5 -6 41 -3 80 l5 71 37 0 c33 0 37 -3 36 -26z m575 -172 c0 7
8 8 24 1 13 -5 27 -6 31 -2 8 8 184 10 186 2 1 -3 3 -25 4 -50 2 -25 5 -50 6
-55 2 -6 0 -19 -4 -31 -7 -20 -12 -20 -165 -16 -86 2 -201 5 -254 5 -54 1 -98
4 -98 7 0 3 -59 4 -131 2 -71 -2 -135 -2 -142 1 -8 3 -11 24 -9 63 l4 59 214
-1 c118 -1 217 2 220 7 2 4 22 6 44 4 25 -3 40 0 40 7 0 7 5 6 15 -2 10 -8 15
-9 15 -1z m-926 -15 c12 -5 16 -20 16 -59 0 -49 -2 -53 -27 -59 -31 -8 -43 5
-43 49 0 66 14 84 54 69z m114 -47 c4 -56 -9 -77 -48 -77 -29 0 -37 11 -35 45
1 11 2 35 3 53 2 32 3 33 40 30 37 -3 37 -3 40 -51z m126 -6 c11 -62 4 -71
-61 -71 -47 0 -55 11 -48 72 5 53 11 59 58 56 l42 -3 9 -54z m109 50 c12 -2 5
-105 -7 -113 -6 -4 -23 -8 -37 -8 -28 0 -39 19 -39 72 0 44 24 59 83 49z"/>
</g>
</svg>
