<?xml version="1.0" standalone="no"?>
<!DOCTYPE svg PUBLIC "-//W3C//DTD SVG 20010904//EN"
 "http://www.w3.org/TR/2001/REC-SVG-20010904/DTD/svg10.dtd">
<svg version="1.0" xmlns="http://www.w3.org/2000/svg"
 width="228.000000pt" height="164.000000pt" viewBox="0 0 228.000000 164.000000"
 preserveAspectRatio="xMidYMid meet">
<metadata>
Created by potrace 1.16, written by Peter Selinger 2001-2019
</metadata>
<g transform="translate(0.000000,164.000000) scale(0.100000,-0.100000)"
fill="#000000" stroke="none">
<path d="M1020 1087 c0 -15 -4 -27 -10 -27 -6 0 -10 -48 -10 -125 l0 -125
-273 0 -274 0 -42 -30 c-23 -17 -57 -38 -76 -47 -19 -9 -35 -21 -35 -27 0 -6
34 -33 75 -60 41 -27 75 -53 75 -59 0 -6 79 -7 238 -2 370 11 332 16 332 -42
0 -27 3 -79 7 -117 l6 -69 346 6 c190 4 386 10 435 14 l89 6 -6 340 c-4 187
-9 342 -11 345 -3 2 -13 2 -22 -2 -16 -6 -17 -23 -10 -204 4 -108 13 -257 19
-330 7 -73 11 -135 8 -138 -2 -2 -154 -4 -338 -4 l-333 0 0 325 0 325 38 1
c20 0 55 2 77 4 22 2 123 9 225 15 208 12 313 20 319 26 2 2 -16 4 -40 5 -24
0 -62 2 -84 4 -22 2 -194 7 -382 11 l-343 7 0 -26z m159 -214 c1 -93 6 -235
10 -318 4 -82 6 -153 4 -157 -4 -7 -142 -12 -144 -5 0 1 -3 147 -6 325 l-5
322 69 0 70 0 2 -167z m-171 -177 l3 -89 -280 6 -280 5 -45 34 c-25 18 -45 38
-46 45 0 6 20 29 45 50 l45 38 277 0 278 0 3 -89z"/>
</g>
</svg>
