<?xml version="1.0" standalone="no"?>
<!DOCTYPE svg PUBLIC "-//W3C//DTD SVG 20010904//EN"
 "http://www.w3.org/TR/2001/REC-SVG-20010904/DTD/svg10.dtd">
<svg version="1.0" xmlns="http://www.w3.org/2000/svg"
 width="280.000000pt" height="228.000000pt" viewBox="0 0 280.000000 228.000000"
 preserveAspectRatio="xMidYMid meet">
<metadata>
Created by potrace 1.16, written by Peter Selinger 2001-2019
</metadata>
<g transform="translate(0.000000,228.000000) scale(0.100000,-0.100000)"
fill="#000000" stroke="none">
<path d="M1881 1913 c0 -11 3 -13 6 -5 2 6 10 9 15 6 7 -4 8 -2 4 4 -11 18
-26 14 -25 -5z"/>
<path d="M1210 1870 c0 -27 0 -52 0 -55 1 -8 -27 -35 -35 -35 -4 0 -25 -14
-46 -31 -34 -27 -39 -28 -40 -12 -1 19 1 71 4 113 2 21 -2 25 -23 25 -25 0
-25 -2 -30 -97 l-5 -97 -54 -41 c-30 -22 -58 -40 -63 -40 -5 0 -7 51 -4 113 6
139 1 167 -29 167 -20 0 -22 -5 -22 -52 -1 -29 -1 -103 -2 -164 l-1 -110 -66
-55 c-36 -30 -71 -54 -77 -54 -8 0 -11 62 -12 215 l0 215 -22 3 c-23 3 -23 3
-24 -135 0 -76 0 -183 1 -238 l1 -100 -57 -51 -57 -51 21 -23 c18 -19 25 -21
51 -12 17 6 32 8 33 4 3 -17 9 -118 14 -249 l6 -143 -30 6 c-24 5 -32 2 -41
-15 -12 -22 -13 -22 57 -46 12 -4 17 -114 12 -280 -1 -33 2 -57 6 -53 6 6 14
179 14 292 0 21 31 17 123 -16 l57 -20 0 -134 c0 -74 3 -134 8 -134 4 0 8 55
9 122 2 67 6 125 10 129 5 4 24 -1 43 -11 19 -11 51 -27 70 -36 45 -21 48 -26
42 -85 -3 -32 -1 -49 7 -49 7 0 11 22 11 59 0 33 4 62 8 65 4 2 32 -1 62 -7
65 -15 68 -21 63 -159 -2 -53 1 -99 6 -102 7 -5 15 114 13 206 -1 10 3 20 8
23 7 4 93 -21 155 -46 32 -13 63 -20 98 -24 31 -3 31 -3 7 7 -54 23 -68 28
-155 58 -49 17 -95 37 -101 45 -6 9 -10 41 -9 73 9 179 17 393 20 507 1 72 6
229 10 350 7 205 9 220 29 238 l21 18 -22 -6 c-18 -5 -24 -1 -29 22 -7 27 -20
43 -36 43 -5 0 -8 -22 -8 -50z m-8 -410 c-8 -293 -8 -442 -3 -633 2 -71 0
-131 -3 -134 -3 -4 -33 2 -66 13 -55 17 -60 21 -61 49 -1 16 -1 33 -1 36 9 77
16 323 16 572 l1 318 25 20 c14 11 38 29 55 39 28 19 30 19 36 2 4 -9 4 -136
1 -282z m-167 -135 c4 -148 8 -273 11 -277 6 -9 6 -299 0 -305 -5 -6 -88 22
-128 43 l-30 16 7 86 c3 48 10 205 13 349 l7 262 55 49 c30 28 56 49 57 48 2
-1 5 -123 8 -271z m-173 -197 c2 -175 1 -318 -4 -318 -4 0 -17 4 -30 9 -13 5
-48 16 -80 25 l-56 16 4 208 c5 259 6 263 50 297 20 15 52 43 72 63 19 20 37
32 38 27 2 -6 4 -153 6 -327z"/>
<path d="M477 1883 c-2 -5 -3 -262 -1 -573 3 -477 5 -633 13 -784 1 -11 4 -16
8 -12 4 4 8 77 10 164 1 86 4 200 7 252 4 71 9 825 6 943 0 17 -35 25 -43 10z"/>
<path d="M1328 1114 c-15 -15 -7 -32 20 -43 32 -13 84 -15 307 -8 88 2 340 8
560 12 220 4 402 9 404 11 14 12 -45 15 -415 18 -225 3 -512 7 -639 11 -126 4
-233 4 -237 -1z"/>
<path d="M1050 531 c0 -5 5 -13 10 -16 6 -3 10 -2 10 4 0 5 -4 13 -10 16 -5 3
-10 2 -10 -4z"/>
<path d="M491 484 c0 -11 3 -14 6 -6 3 7 2 16 -1 19 -3 4 -6 -2 -5 -13z"/>
<path d="M1050 486 c0 -9 5 -16 10 -16 6 0 10 4 10 9 0 6 -4 13 -10 16 -5 3
-10 -1 -10 -9z"/>
<path d="M670 460 c0 -19 3 -21 12 -12 9 9 9 15 0 24 -9 9 -12 7 -12 -12z"/>
<path d="M870 454 c0 -8 5 -12 10 -9 6 3 10 10 10 16 0 5 -4 9 -10 9 -5 0 -10
-7 -10 -16z"/>
<path d="M1050 440 c0 -5 5 -10 10 -10 6 0 10 5 10 10 0 6 -4 10 -10 10 -5 0
-10 -4 -10 -10z"/>
</g>
</svg>
