<?xml version="1.0" standalone="no"?>
<!DOCTYPE svg PUBLIC "-//W3C//DTD SVG 20010904//EN"
 "http://www.w3.org/TR/2001/REC-SVG-20010904/DTD/svg10.dtd">
<svg version="1.0" xmlns="http://www.w3.org/2000/svg"
 width="406.000000pt" height="128.000000pt" viewBox="0 0 406.000000 128.000000"
 preserveAspectRatio="xMidYMid meet">
<metadata>
Created by potrace 1.16, written by Peter Selinger 2001-2019
</metadata>
<g transform="translate(0.000000,128.000000) scale(0.100000,-0.100000)"
fill="#000000" stroke="none">
<path d="M122 1054 c2 -23 9 -30 31 -32 24 -3 27 -7 28 -45 1 -23 3 -52 4 -65
1 -12 -2 -25 -6 -28 -13 -8 -11 -41 4 -46 27 -11 167 9 167 23 0 13 -17 18
-80 22 l-55 4 0 54 c0 30 -3 59 -7 65 -4 6 8 11 34 13 23 1 45 4 50 7 4 3 10
-1 12 -8 5 -12 14 -88 15 -115 1 -7 6 -13 12 -13 5 0 8 4 4 9 -3 5 -1 12 5 16
5 3 10 28 10 56 0 27 3 49 8 50 59 5 372 7 373 1 0 -4 2 -119 4 -257 2 -137 4
-254 5 -260 7 -34 0 -37 -82 -31 -46 2 -131 5 -189 5 l-107 1 0 33 c0 59 -6
96 -17 101 -12 4 -18 -25 -19 -89 l-1 -41 -47 1 c-28 0 -44 4 -40 10 3 6 -1 5
-9 -2 -12 -10 -14 -1 -14 58 -1 55 2 69 15 70 8 1 29 3 45 4 17 2 45 3 63 4
34 1 43 16 15 25 -10 3 -55 8 -99 11 -67 5 -83 3 -87 -9 -4 -9 -1 -21 6 -28
13 -14 16 -32 6 -42 -3 -3 -3 -27 1 -54 l6 -48 -38 2 c-37 1 -38 0 -38 -33 l0
-35 323 3 c177 1 327 5 332 8 6 3 37 6 70 6 70 1 127 13 137 29 4 6 8 21 8 33
0 22 10 24 70 10 21 -5 74 -15 210 -42 20 -4 100 -17 125 -21 11 -2 32 -6 48
-9 29 -6 38 10 10 19 -24 6 -103 27 -125 32 -21 5 -37 8 -103 24 -27 7 -57 14
-65 15 -20 3 -63 13 -125 30 l-50 14 -2 133 c-1 73 -5 154 -8 180 -5 51 -5 51
82 63 51 8 87 14 143 24 30 6 66 12 80 15 14 2 54 9 90 16 36 7 74 13 84 14
11 0 21 8 23 16 4 13 3 13 -7 0 -8 -10 -13 -11 -16 -4 -5 12 -27 11 -106 -4
-26 -5 -65 -9 -87 -8 -23 0 -41 -1 -41 -4 0 -6 -127 -28 -207 -37 -42 -4 -43
-4 -44 26 -2 41 -3 48 -9 55 -15 14 -98 19 -448 23 l-384 5 4 -28z m813 -57
c-5 -30 -13 -250 -16 -450 l-2 -88 -67 4 c-38 3 -72 7 -77 10 -8 5 -9 115 -3
554 0 14 138 23 157 10 7 -5 10 -22 8 -40z"/>
<path d="M1485 768 c5 -291 9 -355 19 -366 3 -3 4 9 2 27 -2 17 0 34 5 37 5 3
9 51 9 108 l0 103 73 -1 72 0 2 -111 c0 -60 1 -180 2 -265 1 -85 5 -170 8
-188 12 -69 21 -6 22 162 2 94 3 223 4 286 l2 115 34 3 c18 2 37 0 41 -5 5 -4
10 -135 12 -290 1 -156 6 -283 10 -283 4 0 5 -8 2 -18 -5 -14 -4 -14 4 -2 6 8
10 35 11 60 0 25 2 155 3 290 l3 245 49 0 50 0 1 -40 c1 -22 4 -156 6 -297 3
-250 12 -324 21 -195 3 34 6 156 7 272 3 286 -2 258 50 262 38 2 43 0 38 -16
-2 -10 0 -26 5 -35 6 -10 5 -16 -2 -16 -6 0 -9 -4 -5 -9 5 -9 12 -199 17 -423
0 -48 4 -92 8 -97 6 -11 10 92 13 391 1 109 6 191 12 197 6 6 242 12 620 15
336 3 622 7 638 9 15 2 30 0 34 -6 3 -6 2 -7 -3 -4 -6 3 -16 2 -24 -3 -12 -7
-12 -12 3 -28 16 -17 22 -18 75 -6 31 6 69 16 83 22 14 6 39 13 55 16 33 6
189 50 219 62 22 9 50 33 41 35 -3 1 -9 2 -13 3 -5 1 -33 10 -63 21 -30 10
-59 20 -65 22 -5 1 -26 7 -45 12 -19 5 -62 17 -95 26 -33 10 -68 19 -77 21
-43 10 -54 13 -68 18 -9 4 -25 -2 -38 -14 -25 -23 -28 -32 -9 -29 17 3 86 -12
91 -20 3 -4 -28 -6 -67 -4 -143 4 -1042 12 -1447 13 l-415 0 0 105 c1 103 1
105 -22 105 l-23 0 5 -292z m2045 52 c23 0 205 -34 235 -44 11 -4 -58 -24
-103 -31 -15 -2 -52 -10 -82 -18 -42 -10 -147 -12 -450 -10 -941 7 -1576 12
-1591 12 -12 1 -16 10 -15 36 l1 35 95 0 c250 0 1532 12 1655 15 77 2 157 4
178 4 28 1 36 4 31 14 -6 10 -4 10 7 0 7 -7 25 -13 39 -13z"/>
</g>
</svg>
