<?xml version="1.0" standalone="no"?>
<!DOCTYPE svg PUBLIC "-//W3C//DTD SVG 20010904//EN"
 "http://www.w3.org/TR/2001/REC-SVG-20010904/DTD/svg10.dtd">
<svg version="1.0" xmlns="http://www.w3.org/2000/svg"
 width="252.000000pt" height="164.000000pt" viewBox="0 0 252.000000 164.000000"
 preserveAspectRatio="xMidYMid meet">
<metadata>
Created by potrace 1.16, written by Peter Selinger 2001-2019
</metadata>
<g transform="translate(0.000000,164.000000) scale(0.100000,-0.100000)"
fill="#000000" stroke="none">
<path d="M314 1279 c-16 -17 -16 -22 -4 -29 8 -6 20 -10 26 -10 6 0 47 -23 90
-51 77 -50 351 -315 339 -327 -13 -14 -158 0 -201 19 -53 22 -228 194 -220
215 3 7 -2 18 -11 26 -9 7 -25 31 -35 53 -11 22 -25 51 -33 64 -13 23 -13 23
-24 3 -12 -22 6 -69 67 -174 31 -54 164 -194 193 -203 10 -4 19 -10 19 -15 0
-23 251 -46 597 -53 56 -2 105 -5 108 -9 3 -3 -36 -43 -87 -89 -146 -133 -152
-141 -122 -153 24 -9 40 4 153 118 57 58 107 106 111 106 4 0 13 -7 20 -15 7
-8 16 -15 21 -15 5 0 9 7 9 15 0 8 -5 15 -11 15 -5 0 -8 4 -5 9 4 5 39 8 79 6
90 -3 90 -3 82 -16 -4 -6 -9 -8 -12 -5 -3 2 -19 -10 -37 -27 -18 -18 -68 -65
-111 -105 -61 -57 -75 -76 -64 -83 8 -5 17 -9 21 -9 4 0 58 52 120 115 69 71
119 114 128 112 8 -3 23 -8 33 -12 12 -5 17 -2 17 9 0 14 20 16 166 16 l166 0
-7 -27 c-4 -16 -8 -55 -9 -88 -1 -54 5 -94 34 -206 5 -20 12 -53 14 -74 3 -21
12 -45 20 -53 14 -14 15 -13 11 14 -11 75 -14 93 -24 149 -13 74 -18 232 -8
262 10 26 20 29 108 25 l69 -4 -7 -41 c-12 -71 -5 -126 32 -262 9 -33 18 -67
19 -75 15 -66 20 -79 28 -74 5 4 7 16 3 28 -3 11 -8 39 -11 61 -3 21 -8 43
-10 47 -3 5 -7 21 -9 36 -3 15 -8 50 -12 77 -12 74 -7 175 9 191 9 9 40 15 87
16 84 2 108 17 29 19 -29 1 -57 1 -62 0 -4 -1 -17 1 -27 4 -14 5 -18 13 -15
38 3 18 5 32 6 32 3 0 11 89 11 125 1 66 -17 178 -31 195 -13 16 -15 16 -27
-1 -8 -11 -9 -22 -4 -28 17 -21 27 -205 16 -286 -2 -14 -4 -37 -4 -51 l-1 -26
-90 1 -90 1 4 45 c2 25 9 60 15 78 10 35 7 104 -9 182 -5 25 -12 57 -15 72 -4
20 -10 26 -21 21 -16 -6 -15 -67 4 -175 5 -25 5 -70 0 -100 -4 -29 -9 -65 -11
-80 -2 -15 -6 -30 -9 -34 -8 -8 -261 -6 -306 2 -23 5 -32 11 -28 20 7 19 -8
18 -24 -1 -7 -8 -18 -15 -26 -15 -14 0 -180 163 -222 218 l-25 33 -24 -23 -23
-22 66 -63 c36 -35 69 -63 73 -63 12 0 76 -70 65 -71 -54 -6 -77 -5 -89 7 -14
14 -45 9 -45 -7 0 -22 -62 26 -155 120 -97 99 -122 114 -144 88 -8 -10 -6 -18
8 -33 40 -40 108 -101 144 -128 21 -15 36 -30 33 -33 -6 -7 -95 -6 -246 2
-120 6 -126 7 -152 35 -15 15 -24 30 -22 33 3 3 -7 20 -24 39 -39 44 -121 138
-152 175 -14 16 -46 44 -72 61 -25 18 -54 39 -62 48 -9 8 -16 12 -16 7 0 -4
-4 -3 -8 2 -6 9 -86 55 -95 55 -2 0 -12 -9 -23 -21z"/>
<path d="M1500 630 c0 -5 5 -10 11 -10 5 0 7 5 4 10 -3 6 -8 10 -11 10 -2 0
-4 -4 -4 -10z"/>
</g>
</svg>
