<?xml version="1.0" standalone="no"?>
<!DOCTYPE svg PUBLIC "-//W3C//DTD SVG 20010904//EN"
 "http://www.w3.org/TR/2001/REC-SVG-20010904/DTD/svg10.dtd">
<svg version="1.0" xmlns="http://www.w3.org/2000/svg"
 width="172.000000pt" height="142.000000pt" viewBox="0 0 172.000000 142.000000"
 preserveAspectRatio="xMidYMid meet">
<metadata>
Created by potrace 1.16, written by Peter Selinger 2001-2019
</metadata>
<g transform="translate(0.000000,142.000000) scale(0.100000,-0.100000)"
fill="#000000" stroke="none">
<path d="M435 1253 c-52 -27 -115 -95 -166 -181 -27 -45 -49 -85 -49 -87 0 -2
-12 -30 -26 -62 -36 -79 -46 -113 -31 -113 8 0 8 -3 -1 -9 -15 -9 -7 -64 19
-126 7 -16 13 -34 14 -40 0 -5 6 -23 13 -38 7 -16 12 -34 12 -41 0 -7 3 -16 7
-20 4 -3 8 -13 9 -20 2 -14 44 -101 85 -175 13 -24 39 -56 57 -72 32 -29 34
-29 156 -29 120 0 123 1 162 30 21 16 45 30 51 30 20 0 243 231 264 273 l20
38 30 -25 c17 -15 34 -26 39 -26 5 0 15 -6 22 -13 7 -8 34 -26 58 -42 25 -15
47 -31 50 -35 3 -3 38 -25 78 -48 77 -44 127 -63 121 -45 -4 10 -114 105 -194
168 -21 17 -44 36 -52 43 -7 7 -13 10 -13 6 0 -3 -20 12 -45 35 -45 42 -75 52
-75 27 0 -8 -57 -72 -127 -143 -93 -93 -148 -140 -203 -172 -41 -24 -82 -45
-90 -46 -8 -2 -15 -4 -15 -6 0 -1 -16 -3 -35 -4 -19 -2 -37 -4 -40 -5 -3 -1
-21 -1 -40 0 -42 2 -76 23 -117 70 -31 35 -110 170 -100 170 3 0 -5 27 -18 60
-13 33 -22 60 -20 60 3 0 0 12 -6 28 -6 15 -13 43 -16 62 -3 19 -9 40 -14 46
-5 6 -6 13 -3 16 3 4 8 21 11 39 3 19 14 51 24 71 11 21 17 38 14 38 -18 0
102 195 141 231 73 66 211 75 338 24 62 -25 187 -116 209 -152 19 -31 87 -97
87 -85 0 40 -150 203 -242 261 -27 17 -48 28 -48 25 0 -2 -10 1 -22 7 -36 20
-246 21 -283 2z"/>
<path d="M1425 1192 c-11 -2 -34 -15 -52 -28 -17 -13 -34 -24 -37 -24 -3 0
-30 -16 -60 -35 -29 -19 -55 -33 -57 -32 -2 1 -3 0 -2 -2 4 -6 -86 -61 -99
-61 -15 0 -48 -40 -48 -59 1 -46 36 -52 79 -12 14 13 47 38 72 55 108 73 241
189 228 199 -2 2 -13 1 -24 -1z"/>
<path d="M658 1104 c-3 -3 -12 -6 -20 -8 -22 -3 -131 -77 -160 -108 -16 -16
-28 -26 -28 -21 0 4 -11 -10 -25 -32 -20 -32 -25 -52 -23 -98 1 -32 7 -65 14
-75 8 -9 14 -22 14 -29 0 -16 71 -120 109 -160 16 -18 28 -33 27 -33 -2 0 15
-18 37 -40 52 -53 72 -38 22 16 -35 37 -52 61 -110 146 l-24 36 25 6 c14 4 29
4 34 1 6 -4 10 -2 10 3 0 11 59 33 170 64 25 7 50 20 57 28 10 12 6 19 -22 36
-19 11 -44 29 -55 39 -11 10 -20 15 -20 10 0 -4 -15 4 -34 19 -19 14 -38 26
-42 26 -4 0 -15 7 -25 16 -15 14 -34 21 -63 23 -20 2 32 44 96 79 63 34 77 51
52 59 -6 2 -13 1 -16 -3z m-148 -154 c0 -5 24 -21 53 -36 166 -83 189 -96 181
-103 -9 -9 -95 -31 -124 -33 -8 0 -19 -4 -25 -8 -11 -9 -92 -33 -113 -34 -17
-1 -42 66 -43 116 -1 28 6 47 27 72 29 35 44 44 44 26z"/>
</g>
</svg>
