<?xml version="1.0" standalone="no"?>
<!DOCTYPE svg PUBLIC "-//W3C//DTD SVG 20010904//EN"
 "http://www.w3.org/TR/2001/REC-SVG-20010904/DTD/svg10.dtd">
<svg version="1.0" xmlns="http://www.w3.org/2000/svg"
 width="280.000000pt" height="178.000000pt" viewBox="0 0 280.000000 178.000000"
 preserveAspectRatio="xMidYMid meet">
<metadata>
Created by potrace 1.16, written by Peter Selinger 2001-2019
</metadata>
<g transform="translate(0.000000,178.000000) scale(0.100000,-0.100000)"
fill="#000000" stroke="none">
<path d="M1674 1637 c-8 -5 -22 -6 -29 -3 -8 3 -17 1 -20 -4 -3 -5 -31 -11
-63 -15 -31 -3 -70 -13 -85 -22 -16 -8 -31 -12 -34 -9 -3 3 -18 -1 -34 -10
-16 -8 -29 -12 -29 -9 0 3 -13 -1 -30 -10 -16 -9 -30 -13 -30 -10 0 3 -10 0
-22 -7 -13 -7 -33 -13 -46 -15 -26 -2 -47 -21 -56 -51 -4 -12 -13 -22 -21 -22
-18 0 -232 -216 -241 -243 -4 -12 -22 -40 -41 -62 -50 -59 -52 -62 -46 -69 4
-3 -2 -6 -11 -6 -11 0 -16 -5 -13 -13 4 -11 -43 -13 -252 -10 l-256 3 -1 -24
-2 -24 262 4 c143 2 276 5 294 7 38 4 52 15 34 26 -12 7 -8 34 10 56 33 40 56
74 73 107 28 53 216 242 262 263 21 9 52 23 68 30 104 47 139 59 239 81 61 14
118 27 126 28 8 1 24 6 34 11 14 6 31 2 57 -13 20 -12 47 -19 59 -17 12 2 32
-1 44 -7 11 -6 44 -12 72 -14 28 -1 61 -7 74 -14 12 -6 24 -9 27 -6 3 3 14 -1
25 -8 11 -8 29 -11 40 -8 12 3 19 1 15 -5 -3 -5 7 -46 23 -92 30 -88 40 -157
45 -321 3 -80 0 -110 -11 -127 -9 -14 -10 -23 -4 -23 6 0 8 -5 4 -12 -4 -7 -7
-27 -6 -45 2 -19 -9 -57 -25 -90 -15 -32 -26 -62 -25 -66 1 -4 -4 -18 -13 -30
-8 -12 -15 -28 -15 -35 0 -8 -13 -30 -30 -49 -16 -18 -30 -40 -30 -47 0 -8
-16 -31 -35 -50 -19 -20 -35 -41 -35 -46 0 -6 -3 -10 -7 -10 -5 0 -16 -14 -25
-30 -9 -17 -23 -30 -31 -30 -18 0 -20 -57 -3 -63 17 -7 363 0 446 8 36 4 97 8
135 10 123 6 112 4 93 19 -20 15 -20 1 -16 311 4 288 -6 453 -31 519 -7 16 -9
31 -7 33 3 3 -4 22 -15 41 -10 20 -19 40 -19 45 0 16 -84 98 -107 103 -13 4
-23 11 -23 17 0 6 -3 7 -7 4 -3 -4 -20 3 -37 16 -17 13 -51 29 -76 37 -25 8
-54 20 -65 27 -11 7 -29 13 -40 13 -12 0 -26 5 -32 11 -5 5 -28 12 -49 15 -21
3 -59 12 -84 20 -25 9 -62 17 -83 19 -20 3 -46 9 -56 15 -22 11 -134 9 -157
-3z m601 -171 c16 -11 35 -21 42 -22 21 -3 113 -86 113 -103 0 -9 9 -29 19
-45 11 -17 18 -33 15 -37 -2 -4 3 -26 11 -49 8 -23 12 -46 9 -51 -2 -5 0 -17
5 -28 6 -10 13 -52 16 -93 3 -40 8 -86 11 -103 13 -74 20 -507 9 -525 -8 -13
-141 -13 -166 0 -13 8 -19 7 -19 0 0 -7 -6 -8 -17 -2 -10 5 -94 9 -187 10 -93
1 -172 4 -175 7 -3 4 12 23 34 44 66 62 126 132 121 140 -3 4 6 20 19 35 13
15 22 33 19 40 -3 7 2 19 11 26 8 7 15 20 15 29 0 10 6 26 14 36 8 11 12 25 9
32 -3 7 0 20 7 28 7 9 10 18 6 22 -3 3 0 16 8 28 16 25 31 162 26 250 -3 72
-7 108 -10 115 -1 3 -1 15 0 27 0 12 -6 43 -16 70 -9 26 -18 57 -19 68 -2 11
-4 20 -5 20 -1 0 -4 12 -6 27 -2 24 0 27 24 26 15 -1 40 -11 57 -22z"/>
<path d="M1304 1341 c4 -6 3 -11 -2 -11 -9 0 -8 -127 3 -375 9 -213 11 -355 4
-366 -3 -6 -17 -11 -30 -10 -13 0 -139 3 -279 6 -226 4 -344 7 -723 19 -70 2
-102 -1 -111 -10 -9 -9 -12 -50 -11 -147 1 -74 5 -139 8 -144 4 -6 7 -33 8
-62 1 -28 8 -56 16 -62 10 -9 13 -8 13 2 0 16 58 85 171 203 76 79 76 79 109
67 18 -6 45 -11 59 -11 14 0 33 -4 41 -10 16 -10 11 -15 -95 -123 -34 -34 -49
-57 -47 -71 5 -32 20 -42 29 -20 4 10 21 32 37 50 17 17 55 58 85 92 l53 61
57 -5 c32 -2 70 -8 86 -13 l29 -7 -67 -66 c-37 -37 -67 -71 -67 -77 0 -5 8
-14 17 -19 13 -8 23 -3 44 19 14 15 28 26 31 24 3 -3 11 6 18 20 7 13 21 27
32 31 10 3 18 11 18 17 0 7 9 23 19 36 14 19 22 21 37 13 15 -8 99 -19 160
-22 26 -1 2 -60 -24 -60 -6 0 -24 -13 -41 -29 -29 -27 -30 -31 -15 -45 20 -21
34 -13 107 59 58 58 58 58 105 50 26 -4 58 -8 70 -10 34 -5 38 -12 17 -35 -16
-18 -17 -22 -4 -35 13 -13 19 -10 53 20 37 32 42 34 95 29 31 -2 70 -7 86 -11
17 -4 41 -7 55 -8 14 -1 45 -5 70 -8 25 -4 65 -10 90 -13 73 -9 75 -10 88 -18
9 -5 12 14 13 81 0 48 1 293 2 543 l2 455 -65 3 c-212 12 -462 13 -456 3z
m457 -55 c1 -11 3 -32 4 -46 3 -28 18 -545 17 -573 -1 -9 2 -16 6 -13 4 2 7
-79 7 -182 0 -149 -3 -186 -14 -190 -9 -3 -11 0 -6 8 5 8 4 11 -2 7 -5 -3 -41
-2 -79 4 -38 5 -82 11 -99 14 -16 2 -30 5 -30 6 0 2 -26 6 -95 15 -83 10 -83
12 -17 83 20 22 37 45 37 51 0 5 5 10 10 10 6 0 10 5 10 11 0 7 12 23 28 37
24 23 36 26 105 27 80 2 121 14 51 16 -86 2 -99 4 -96 16 3 18 -13 16 -28 -2
-10 -12 -32 -14 -110 -11 -54 2 -103 6 -109 10 -15 10 -14 113 2 123 6 4 86 8
176 10 90 1 168 6 173 11 6 6 -10 10 -39 11 -47 2 -93 7 -103 11 -3 2 -44 2
-92 0 -114 -2 -126 2 -123 43 2 18 4 34 5 37 1 3 3 12 4 20 1 17 6 18 163 20
64 1 129 8 150 16 36 12 32 13 -77 14 -63 1 -142 2 -175 3 l-60 2 -2 42 c-1
24 3 46 10 50 7 4 65 9 130 10 66 1 140 5 165 7 26 3 50 5 55 5 4 1 7 6 7 12
0 8 -4 8 -14 0 -8 -7 -17 -8 -20 -3 -7 12 -23 13 -192 15 l-140 2 0 43 c-1 40
1 42 30 43 17 1 42 3 56 5 14 1 64 4 111 7 47 2 90 6 95 8 5 3 24 4 41 4 18 0
29 2 25 6 -7 7 -54 12 -247 25 -55 3 -105 10 -111 15 -15 12 -10 69 7 80 13 8
50 13 77 10 6 -1 20 3 30 8 10 6 76 10 155 9 132 -1 137 -2 138 -22z m-242
-745 c2 0 -41 -44 -95 -96 -61 -59 -102 -91 -108 -86 -6 5 -40 12 -76 15 -36
4 -68 10 -73 15 -9 9 110 141 138 151 16 6 200 7 214 1z m-279 -6 c0 -14 -14
-35 -24 -35 -6 0 -18 -9 -26 -21 -28 -40 -47 -59 -59 -59 -7 0 -9 -4 -6 -10 4
-6 -10 -10 -34 -10 -23 0 -41 4 -41 9 0 5 -15 8 -32 7 -37 -3 -98 11 -98 22 0
4 19 27 43 52 l42 45 118 1 c64 1 117 0 117 -1z m-564 -16 c9 -16 -31 -53 -47
-43 -7 4 -25 9 -39 11 -14 2 -34 6 -45 7 -11 2 -31 4 -44 5 -20 1 -21 3 -11
16 15 18 175 22 186 4z m231 -34 c-40 -37 -55 -45 -87 -45 -21 0 -42 5 -45 10
-4 6 -14 10 -23 9 -57 -5 -75 24 -32 53 20 14 46 18 130 18 l105 -1 -48 -44z
m-602 -9 c11 -2 32 -5 48 -5 15 -1 27 -7 27 -14 0 -7 -40 -54 -90 -105 l-90
-92 -1 45 c0 25 -1 74 -1 110 0 36 1 68 1 71 1 6 57 0 106 -10z"/>
</g>
</svg>
