<?xml version="1.0" standalone="no"?>
<!DOCTYPE svg PUBLIC "-//W3C//DTD SVG 20010904//EN"
 "http://www.w3.org/TR/2001/REC-SVG-20010904/DTD/svg10.dtd">
<svg version="1.0" xmlns="http://www.w3.org/2000/svg"
 width="278.000000pt" height="184.000000pt" viewBox="0 0 278.000000 184.000000"
 preserveAspectRatio="xMidYMid meet">
<metadata>
Created by potrace 1.16, written by Peter Selinger 2001-2019
</metadata>
<g transform="translate(0.000000,184.000000) scale(0.100000,-0.100000)"
fill="#000000" stroke="none">
<path d="M1655 1561 c-2 -4 -19 -7 -37 -6 -18 2 -37 -1 -43 -5 -5 -5 -32 -10
-58 -13 -26 -3 -54 -11 -63 -17 -8 -7 -17 -10 -21 -7 -3 4 -15 1 -27 -6 -11
-6 -25 -12 -31 -13 -21 -2 -70 -18 -94 -30 -13 -7 -29 -11 -33 -8 -5 3 -17 -1
-27 -10 -10 -9 -25 -14 -33 -11 -17 7 -43 -19 -33 -34 3 -6 -4 -18 -16 -28
-12 -10 -27 -24 -34 -30 -8 -7 -16 -13 -19 -13 -8 0 -46 -38 -46 -46 0 -7 -21
-26 -45 -41 -11 -6 -19 -17 -17 -23 2 -8 -3 -10 -13 -7 -9 4 -15 1 -15 -7 0
-7 -14 -29 -31 -47 -17 -19 -50 -63 -74 -99 -66 -97 -68 -99 -106 -98 -341 7
-472 8 -466 2 4 -4 2 -13 -4 -20 -7 -8 -6 -14 2 -20 11 -6 223 -6 364 2 234
12 247 14 215 34 -12 7 -12 12 3 28 9 10 17 24 17 30 0 7 5 12 10 12 6 0 10 6
10 14 0 23 99 147 194 244 50 50 94 92 99 92 4 0 23 7 43 15 19 8 38 15 42 15
4 1 17 7 29 15 31 20 161 65 197 67 17 1 33 6 36 10 4 4 26 10 50 13 25 3 60
11 78 18 26 9 37 9 55 -3 22 -14 46 -19 182 -40 39 -6 77 -15 85 -19 9 -5 31
-12 50 -16 29 -6 74 -35 54 -35 -3 0 -1 -6 5 -13 6 -8 8 -16 5 -20 -3 -3 0
-16 7 -29 7 -12 13 -26 12 -29 -1 -3 4 -26 12 -52 7 -25 11 -48 7 -52 -4 -3
-1 -10 6 -14 15 -9 21 -299 7 -322 -5 -7 -10 -31 -12 -54 -4 -60 -14 -105 -23
-105 -5 0 -16 -25 -25 -55 -10 -30 -21 -55 -26 -55 -5 0 -6 -6 -3 -13 2 -7 -4
-21 -15 -31 -11 -10 -18 -23 -15 -27 3 -5 1 -9 -3 -9 -5 0 -14 -15 -21 -32 -6
-18 -26 -48 -43 -66 -17 -18 -28 -36 -25 -39 3 -3 -15 -26 -39 -51 -28 -27
-45 -54 -45 -68 0 -23 2 -24 68 -20 37 1 72 -1 79 -6 6 -5 14 -5 17 0 3 6 20
7 40 2 19 -4 37 -6 39 -4 5 5 88 13 207 19 52 3 120 8 150 11 30 4 65 6 78 6
27 0 28 9 3 25 -17 11 -19 23 -16 140 2 70 6 136 10 146 9 23 -6 333 -22 457
-4 30 -7 60 -8 67 0 6 -4 15 -8 19 -4 4 -7 17 -7 28 0 12 -7 32 -16 44 -9 13
-14 26 -10 29 3 3 0 11 -7 18 -7 7 -34 35 -60 64 -27 28 -54 51 -62 51 -7 0
-15 3 -17 8 -6 15 -124 65 -138 59 -3 -1 -18 6 -34 16 -15 10 -30 16 -33 13
-3 -3 -18 1 -33 9 -15 8 -30 11 -33 8 -4 -3 -13 -1 -21 6 -15 12 -19 14 -101
31 -27 6 -57 14 -65 17 -37 15 -187 26 -195 14z m576 -177 c10 -9 23 -13 28
-9 6 3 11 1 11 -4 0 -6 6 -11 13 -11 20 0 90 -80 114 -130 25 -53 56 -170 58
-222 2 -21 3 -39 4 -40 9 -11 20 -169 22 -290 1 -65 4 -118 8 -118 11 0 5
-204 -7 -227 -11 -20 -18 -22 -65 -17 -28 3 -137 7 -242 9 -104 2 -204 4 -222
4 -24 1 -31 5 -27 16 3 8 14 17 23 20 10 3 27 23 39 44 12 22 40 61 62 87 21
26 37 51 35 55 -3 4 2 12 10 19 8 7 15 20 15 29 0 9 7 26 15 38 27 38 79 235
63 239 -1 0 2 7 8 15 15 18 11 229 -5 314 -6 33 -12 67 -12 75 -1 8 -6 20 -11
27 -5 7 -7 16 -4 21 3 5 -1 17 -8 27 -7 10 -11 27 -8 38 4 15 11 18 35 13 17
-3 39 -13 48 -22z"/>
<path d="M1343 1405 c-20 -14 -20 -21 -18 -449 1 -323 5 -439 14 -450 8 -9 8
-16 2 -20 -6 -4 -8 -13 -5 -21 3 -7 1 -22 -5 -33 -8 -16 -7 -25 9 -44 11 -12
19 -18 20 -11 0 6 9 14 20 18 11 3 37 23 57 44 21 20 54 48 73 61 37 25 129
103 193 164 21 20 43 36 48 36 10 0 33 19 128 104 74 66 130 95 179 92 19 -2
31 1 29 8 -2 5 -23 11 -47 13 -24 2 -52 10 -62 20 -10 9 -18 12 -18 8 0 -4 -8
2 -19 13 -10 12 -23 22 -28 22 -10 0 -25 12 -110 88 -67 61 -75 67 -105 83
-26 14 -140 113 -205 177 -18 17 -37 32 -42 32 -5 0 -11 4 -13 8 -1 4 -19 18
-39 30 -31 19 -38 20 -56 7z m232 -215 c4 -6 43 -35 88 -65 45 -29 98 -68 117
-85 19 -16 43 -33 53 -36 9 -3 17 -10 17 -15 0 -5 6 -9 13 -9 21 0 61 -47 45
-52 -7 -3 -74 -3 -149 0 -119 4 -137 2 -142 -12 -4 -9 -4 -23 0 -31 5 -14 26
-15 161 -9 113 5 153 3 148 -5 -4 -6 -11 -11 -16 -11 -6 0 -18 -6 -27 -14 -93
-76 -133 -106 -142 -106 -6 0 -11 -4 -11 -8 0 -4 -15 -16 -32 -26 -18 -11 -50
-34 -71 -53 -20 -18 -42 -33 -47 -33 -6 0 -21 -9 -33 -20 -65 -59 -125 -104
-154 -116 -39 -17 -46 -17 -38 -3 4 6 9 65 11 132 2 67 6 151 9 187 3 36 7
155 9 265 2 110 4 212 5 227 l1 27 90 -60 c49 -33 92 -64 95 -69z"/>
</g>
</svg>
