<?xml version="1.0" standalone="no"?>
<!DOCTYPE svg PUBLIC "-//W3C//DTD SVG 20010904//EN"
 "http://www.w3.org/TR/2001/REC-SVG-20010904/DTD/svg10.dtd">
<svg version="1.0" xmlns="http://www.w3.org/2000/svg"
 width="236.000000pt" height="198.000000pt" viewBox="0 0 236.000000 198.000000"
 preserveAspectRatio="xMidYMid meet">
<metadata>
Created by potrace 1.16, written by Peter Selinger 2001-2019
</metadata>
<g transform="translate(0.000000,198.000000) scale(0.100000,-0.100000)"
fill="#000000" stroke="none">
<path d="M1398 1648 c-3 -7 -4 -55 -3 -106 2 -100 -6 -121 -48 -123 -12 -1
-31 -3 -42 -6 -11 -2 -41 -6 -67 -9 -27 -3 -48 -10 -48 -15 0 -5 -12 -9 -28
-9 -15 0 -36 -6 -47 -14 -11 -7 -38 -16 -60 -20 -22 -4 -49 -13 -60 -19 -19
-12 -26 -13 -52 -16 -7 0 -13 -12 -13 -26 0 -14 -8 -33 -17 -43 -36 -37 -63
-72 -63 -81 0 -5 -18 -29 -41 -53 -22 -23 -47 -59 -56 -78 -8 -19 -31 -52 -49
-73 -19 -20 -34 -44 -34 -52 0 -32 -33 -50 -85 -47 -27 2 -149 5 -270 8 l-221
6 -1 -22 -2 -22 297 4 297 3 25 52 c14 28 33 60 43 71 9 10 14 22 11 25 -7 6
40 75 60 89 6 4 7 10 3 14 -3 4 4 16 16 28 13 12 39 41 58 66 53 70 100 110
129 110 6 0 29 12 51 26 23 14 43 23 47 20 3 -3 11 -1 18 5 7 6 35 13 61 16
26 3 53 8 58 13 9 7 52 16 110 23 22 2 21 7 25 -134 2 -48 0 -91 -3 -97 -4 -5
-1 -15 7 -21 11 -9 15 1 20 56 4 38 9 79 10 93 2 14 4 40 5 58 1 29 4 32 35
32 18 0 58 -5 87 -11 30 -5 65 -12 79 -14 62 -8 101 -18 106 -26 3 -5 14 -9
25 -9 14 0 19 -7 19 -24 0 -14 5 -28 10 -31 6 -4 8 -10 6 -14 -3 -4 4 -34 15
-66 18 -54 31 -164 30 -255 0 -50 -8 -165 -11 -165 -3 0 -8 -28 -13 -72 -1
-17 -8 -37 -14 -45 -6 -7 -16 -31 -23 -53 -22 -68 -91 -191 -121 -215 -4 -3
-9 -15 -13 -27 -4 -12 -25 -38 -47 -57 -21 -20 -40 -46 -42 -59 l-2 -22 185
-1 c102 0 195 3 207 7 12 5 74 10 138 12 78 3 120 8 128 17 10 10 9 12 -5 7
-9 -3 -21 0 -26 6 -11 12 -9 105 3 237 9 88 9 160 0 250 -4 36 -8 97 -10 135
-1 39 -6 81 -9 95 -4 14 -9 38 -11 54 -3 16 -9 34 -14 39 -5 5 -7 16 -4 23 3
8 0 14 -6 14 -6 0 -11 10 -11 23 0 24 -97 127 -120 127 -6 0 -24 10 -39 21
-16 12 -34 18 -40 15 -6 -4 -11 -3 -11 3 0 5 -15 13 -32 16 -18 4 -48 16 -65
27 -18 11 -33 16 -33 13 0 -4 -11 0 -25 9 -14 9 -29 15 -33 12 -5 -3 -20 1
-33 8 -14 7 -45 16 -70 20 -53 8 -72 12 -124 25 -22 5 -42 10 -45 11 -3 0 -5
50 -4 110 l1 110 -27 0 c-16 0 -30 -6 -32 -12z m541 -390 c13 -10 30 -18 37
-18 18 0 94 -76 94 -93 0 -19 24 -67 33 -67 5 0 6 -4 3 -9 -3 -4 -1 -23 5 -42
5 -19 12 -59 15 -89 3 -30 10 -70 15 -87 6 -18 9 -43 8 -55 -1 -13 1 -48 6
-78 10 -73 14 -435 4 -451 -7 -13 -123 -14 -143 -2 -5 4 -91 8 -191 9 -218 2
-203 0 -179 23 10 10 22 17 27 14 4 -2 7 1 7 7 0 6 5 16 10 23 60 71 116 160
124 197 5 20 32 70 39 70 5 0 6 4 3 9 -3 5 1 28 10 52 23 66 27 110 28 264 0
138 -5 213 -17 232 -14 23 -35 97 -30 109 6 17 60 7 92 -18z"/>
</g>
</svg>
