<?xml version="1.0" standalone="no"?>
<!DOCTYPE svg PUBLIC "-//W3C//DTD SVG 20010904//EN"
 "http://www.w3.org/TR/2001/REC-SVG-20010904/DTD/svg10.dtd">
<svg version="1.0" xmlns="http://www.w3.org/2000/svg"
 width="252.000000pt" height="174.000000pt" viewBox="0 0 252.000000 174.000000"
 preserveAspectRatio="xMidYMid meet">
<metadata>
Created by potrace 1.16, written by Peter Selinger 2001-2019
</metadata>
<g transform="translate(0.000000,174.000000) scale(0.100000,-0.100000)"
fill="#000000" stroke="none">
<path d="M1022 1512 c-63 -6 -64 -13 -64 -384 1 -183 -1 -341 -4 -350 -5 -17
-28 -18 -297 -18 -161 0 -301 -3 -312 -6 -19 -5 -20 -13 -20 -205 0 -183 2
-201 18 -211 22 -12 111 -11 692 6 94 2 296 7 450 11 362 8 521 14 620 23 l80
7 2 165 c1 91 4 221 8 290 4 69 7 241 8 383 1 215 -2 260 -14 268 -8 5 -59 9
-114 9 -55 1 -131 3 -170 5 -92 5 -840 11 -883 7z m1124 -35 c4 -4 8 -215 10
-469 2 -255 5 -495 6 -535 3 -58 1 -72 -12 -75 -8 -2 -121 -2 -250 -1 -129 2
-527 5 -885 7 -357 3 -653 5 -658 5 -4 1 -5 11 -2 23 8 34 15 113 20 202 2 43
7 82 12 87 4 4 133 9 286 11 l278 3 6 -22 c3 -13 11 -23 18 -23 8 0 12 17 11
56 -1 31 2 57 5 60 4 2 3 19 -1 38 -4 19 -5 38 -2 41 4 3 7 59 8 123 3 184 7
276 13 287 3 6 6 43 7 83 0 40 4 75 7 79 4 3 143 8 310 10 388 4 749 12 753
16 6 5 54 1 60 -6z"/>
<path d="M1257 1208 c-9 -5 -8 -11 6 -25 15 -15 37 -17 167 -17 89 0 150 -3
150 -9 0 -5 6 -4 14 2 7 6 24 11 37 10 102 -3 343 11 352 20 8 8 -5 11 -49 11
-32 0 -88 3 -124 6 -107 9 -539 11 -553 2z"/>
<path d="M1260 915 l0 -27 293 3 c160 1 302 6 315 10 12 5 45 9 73 10 28 1 46
6 41 11 -5 5 -169 11 -365 14 l-357 6 0 -27z"/>
<path d="M1270 672 c-36 -5 -49 -21 -28 -36 12 -8 56 -11 150 -10 434 9 559
13 570 21 23 14 -602 37 -692 25z"/>
</g>
</svg>
