<?xml version="1.0" standalone="no"?>
<!DOCTYPE svg PUBLIC "-//W3C//DTD SVG 20010904//EN"
 "http://www.w3.org/TR/2001/REC-SVG-20010904/DTD/svg10.dtd">
<svg version="1.0" xmlns="http://www.w3.org/2000/svg"
 width="260.000000pt" height="166.000000pt" viewBox="0 0 260.000000 166.000000"
 preserveAspectRatio="xMidYMid meet">
<metadata>
Created by potrace 1.16, written by Peter Selinger 2001-2019
</metadata>
<g transform="translate(0.000000,166.000000) scale(0.100000,-0.100000)"
fill="#000000" stroke="none">
<path d="M380 1400 c-9 -17 -2 -28 52 -82 34 -35 65 -62 70 -60 4 1 8 -4 8
-12 0 -8 13 -24 30 -37 28 -23 40 -49 22 -49 -5 0 -26 -15 -47 -32 -21 -18
-43 -33 -49 -33 -6 0 -20 -8 -30 -18 -11 -9 -39 -26 -62 -37 -28 -14 -43 -29
-46 -45 -5 -25 7 -45 29 -45 7 0 13 -4 13 -10 0 -5 7 -10 15 -10 17 0 56 -20
66 -33 3 -5 9 -7 12 -5 8 5 67 -41 67 -53 0 -6 -4 -8 -9 -5 -5 4 -11 3 -13 -1
-1 -5 -21 -20 -43 -34 -159 -101 -166 -109 -141 -134 12 -12 16 -12 26 0 6 8
21 17 33 21 25 8 27 9 109 83 37 34 74 61 83 61 33 0 1 41 -42 54 -13 4 -23
12 -23 17 0 5 -7 9 -15 9 -8 0 -15 3 -15 8 0 4 -20 21 -45 37 -24 17 -45 33
-45 36 0 4 16 17 35 30 19 13 35 27 35 32 0 4 5 7 11 7 7 0 19 8 28 18 17 18
42 23 52 9 3 -4 100 -10 215 -12 115 -3 263 -8 329 -11 66 -3 193 -7 282 -8
89 -1 164 -4 166 -6 3 -3 7 -29 9 -57 5 -52 5 -53 -22 -53 -15 0 -30 3 -33 7
-4 3 -40 7 -80 8 -40 0 -77 4 -83 7 -5 4 -65 9 -133 13 -68 3 -131 9 -140 14
-9 4 -51 8 -94 9 -43 1 -83 5 -90 9 -7 4 -48 8 -92 9 -44 1 -80 3 -80 4 0 1
-23 4 -52 7 -49 4 -52 3 -67 -26 -15 -28 -15 -30 3 -36 11 -3 48 -8 83 -10 34
-2 90 -7 123 -11 33 -4 67 -8 75 -9 8 -1 31 -3 50 -5 19 -3 -41 -7 -135 -10
l-170 -5 -3 -26 c-2 -19 2 -28 16 -31 23 -6 450 -1 642 7 252 12 290 12 290 4
0 -5 -1 -10 -2 -11 -1 -2 4 -13 10 -25 8 -15 9 -24 2 -28 -8 -5 -8 -11 0 -20
8 -10 8 -15 -1 -21 -7 -4 -233 -8 -503 -9 l-491 -1 -3 -33 -3 -32 148 5 c81 3
157 7 168 10 11 3 103 8 205 11 102 3 242 9 311 13 69 4 139 5 155 2 28 -5 28
-5 29 -85 0 -44 5 -86 9 -94 5 -8 11 -55 13 -105 5 -105 16 -135 58 -155 38
-19 213 -21 272 -4 22 6 45 8 49 5 4 -4 4 -1 0 6 -4 6 -15 12 -24 12 -15 0
-16 9 -12 76 3 41 3 78 0 81 -3 2 -5 37 -6 77 0 40 -4 77 -7 83 -4 6 -4 13 0
17 8 8 48 8 56 -1 13 -12 142 -52 170 -53 15 0 27 -4 27 -8 0 -5 15 -8 33 -7
17 2 37 -1 43 -6 5 -4 30 -10 55 -11 48 -3 74 -19 58 -35 -6 -6 -4 -14 6 -23
13 -11 15 -5 16 46 0 33 2 82 5 109 5 60 6 384 1 441 -2 22 -7 46 -11 52 -4 7
-4 17 -1 23 5 7 -12 9 -52 5 -32 -3 -85 -8 -118 -10 -33 -3 -60 -5 -60 -7 0
-2 -28 -6 -105 -14 -86 -8 -90 -10 -88 -39 2 -17 9 -26 25 -29 13 -2 23 -1 23
3 0 6 57 17 125 24 6 1 35 9 65 18 65 19 138 29 144 19 3 -4 6 -59 7 -124 2
-64 6 -117 9 -117 5 0 6 -245 1 -307 -1 -7 -9 -13 -18 -13 -21 1 -151 44 -160
54 -4 3 -14 6 -22 6 -9 0 -33 9 -54 20 -20 11 -37 18 -37 15 0 -3 -10 0 -22 7
-38 21 -88 36 -88 27 0 -18 -28 -8 -33 12 -3 11 -6 102 -7 202 -1 153 -4 259
-9 301 -1 5 -8 3 -16 -4 -9 -8 -15 -29 -15 -56 0 -50 -17 -65 -65 -57 -16 2
-73 7 -125 10 -52 3 -96 6 -97 7 -1 1 -5 24 -8 52 -6 41 -4 52 9 57 8 3 67 7
130 8 67 1 131 7 153 15 33 11 35 13 13 15 -14 1 -36 3 -50 5 -162 17 -303 8
-313 -20 -2 -6 -1 -40 3 -76 10 -100 9 -101 -68 -94 -35 3 -83 7 -106 8 -23 1
-47 5 -54 9 -6 5 -16 5 -22 2 -5 -3 -45 -2 -87 4 -92 12 -188 20 -298 25 -44
3 -80 5 -80 6 0 4 -37 8 -125 13 -54 3 -86 9 -88 17 -3 7 -26 37 -53 66 -27
30 -49 60 -49 67 -1 6 -21 32 -45 57 -25 25 -45 48 -45 53 0 15 -30 6 -40 -13z
m1505 -356 l0 -39 -40 2 c-22 2 -60 4 -85 6 -25 2 -68 5 -96 5 -38 2 -54 6
-58 19 -4 9 -3 20 1 24 4 4 61 10 127 13 65 2 121 7 124 11 14 14 27 -5 27
-41z m-17 -70 c21 -4 23 -9 20 -52 l-3 -47 -55 1 c-30 1 -93 2 -139 3 l-83 1
4 45 c2 25 -1 46 -7 48 -16 6 237 6 263 1z m-654 -43 c3 -5 15 -7 25 -4 10 3
21 0 25 -5 3 -5 -15 -9 -44 -9 -39 1 -47 3 -38 14 12 15 25 17 32 4z m-139
-11 c-3 -5 -10 -10 -16 -10 -5 0 -9 5 -9 10 0 6 7 10 16 10 8 0 12 -4 9 -10z
m35 0 c0 -5 -4 -10 -10 -10 -5 0 -10 5 -10 10 0 6 5 10 10 10 6 0 10 -4 10
-10z m207 -6 c-3 -3 -12 -4 -19 -1 -8 3 -5 6 6 6 11 1 17 -2 13 -5z m248 -4
c4 -6 -15 -10 -52 -11 -32 0 -71 -2 -86 -3 -16 -1 -31 2 -34 7 -2 4 -10 4 -16
-2 -8 -6 -18 -5 -30 4 -15 11 -1 13 97 14 69 1 117 -2 121 -9z m326 -84 c3
-30 0 -79 -6 -84 -7 -7 -244 -4 -256 4 -4 2 -7 12 -7 22 0 9 -3 25 -7 34 -8
21 12 27 105 30 141 6 170 5 171 -6z m8 -158 c10 -22 11 -36 3 -53 -9 -20 -17
-22 -66 -21 -30 1 -58 5 -62 9 -4 4 -38 7 -76 7 -47 0 -68 4 -69 13 -2 17 2
61 6 67 2 3 59 6 127 7 l124 1 13 -30z m-58 -97 c65 -1 67 -2 72 -30 11 -54 1
-67 -51 -64 -26 1 -87 4 -137 6 l-90 4 -6 37 c-4 24 -2 39 5 41 23 8 51 10 95
8 25 -1 76 -2 112 -2z m74 -164 c0 -20 3 -37 8 -37 4 0 6 -4 2 -9 -3 -5 -1
-13 5 -16 8 -5 8 -11 1 -19 -8 -9 -46 -12 -137 -10 -70 2 -132 5 -139 8 -6 2
-10 19 -9 37 1 19 -3 37 -9 42 -25 16 28 30 131 33 57 2 107 6 110 9 3 3 13 4
22 3 10 -2 15 -15 15 -41z"/>
<path d="M1477 683 c-4 -3 -89 -8 -189 -10 -101 -2 -187 -8 -193 -12 -5 -4
-79 -8 -163 -10 -84 -1 -163 -6 -175 -10 -12 -4 -56 -8 -97 -9 -112 -3 -180
-13 -180 -26 1 -39 26 -42 205 -22 28 3 88 8 135 11 97 6 164 11 300 25 52 6
122 13 154 15 33 3 62 8 66 10 4 2 35 5 69 6 59 2 105 19 84 32 -6 4 -13 4
-16 0z"/>
<path d="M375 641 c3 -5 -3 -11 -12 -13 -14 -3 2 -24 65 -88 46 -47 82 -93 83
-105 0 -11 2 -30 3 -43 2 -19 -6 -27 -40 -43 -23 -11 -50 -29 -60 -40 -9 -10
-22 -19 -29 -19 -7 0 -22 -9 -35 -20 -13 -11 -18 -20 -13 -20 6 0 14 -10 18
-22 4 -14 8 -18 12 -10 2 6 10 12 16 12 7 0 32 18 57 40 25 22 51 40 58 40 6
0 12 5 12 12 0 6 3 9 6 6 3 -3 17 5 31 18 14 13 33 24 42 24 9 0 41 9 71 20
30 11 67 20 81 20 15 0 46 7 69 15 23 8 45 13 50 10 7 -4 48 7 95 26 11 4 47
13 80 19 33 6 69 15 80 20 11 5 34 11 50 15 134 28 248 56 267 66 10 5 28 9
41 9 13 0 27 4 32 9 6 5 21 11 34 13 14 1 26 8 28 15 5 13 -46 11 -69 -3 -7
-4 -26 -9 -43 -11 -16 -1 -41 -6 -55 -9 -14 -4 -35 -8 -46 -10 -12 -1 -39 -6
-60 -9 -22 -4 -48 -8 -59 -8 -11 0 -22 -4 -25 -8 -3 -4 -39 -12 -80 -18 -41
-6 -97 -16 -125 -22 -27 -5 -59 -11 -71 -13 -11 -1 -25 -5 -31 -9 -7 -4 -14
-3 -18 3 -4 6 -15 4 -29 -5 -13 -9 -28 -15 -32 -14 -5 1 -11 0 -14 -1 -6 -2
-24 -6 -95 -19 -65 -12 -120 -27 -134 -35 -17 -11 -47 11 -61 44 -7 16 -16 30
-21 30 -5 0 -9 4 -9 10 0 11 -28 46 -78 97 -31 32 -50 43 -37 24z"/>
</g>
</svg>
