<?xml version="1.0" standalone="no"?>
<!DOCTYPE svg PUBLIC "-//W3C//DTD SVG 20010904//EN"
 "http://www.w3.org/TR/2001/REC-SVG-20010904/DTD/svg10.dtd">
<svg version="1.0" xmlns="http://www.w3.org/2000/svg"
 width="252.000000pt" height="186.000000pt" viewBox="0 0 252.000000 186.000000"
 preserveAspectRatio="xMidYMid meet">
<metadata>
Created by potrace 1.16, written by Peter Selinger 2001-2019
</metadata>
<g transform="translate(0.000000,186.000000) scale(0.100000,-0.100000)"
fill="#000000" stroke="none">
<path d="M1883 1695 c-6 -7 -10 -15 -8 -17 2 -2 5 -38 6 -81 1 -42 4 -75 8
-73 3 2 7 -34 9 -81 3 -73 1 -85 -12 -80 -8 3 -16 2 -18 -3 -2 -5 -80 -11
-175 -13 -109 -3 -177 -8 -186 -15 -8 -7 -16 -9 -20 -6 -3 3 -17 -2 -31 -11
-14 -9 -29 -14 -34 -11 -6 3 -15 -1 -22 -9 -7 -8 -19 -15 -26 -15 -8 0 -14 -4
-14 -10 0 -5 -7 -10 -15 -10 -21 0 -205 -183 -206 -206 0 -10 -3 -68 -5 -128
-2 -60 -9 -115 -14 -121 -8 -9 -7 -14 2 -17 10 -4 10 -8 -1 -21 -7 -10 -10
-17 -5 -17 9 0 11 -12 16 -92 1 -27 6 -48 10 -48 5 0 7 -11 5 -25 -3 -22 -7
-28 -19 -24 -2 0 -141 1 -310 2 -210 1 -311 6 -318 13 -7 7 -11 61 -10 155 2
223 -2 205 45 200 22 -1 42 -6 45 -10 4 -6 19 -8 82 -11 10 -1 20 -5 23 -10 3
-5 12 -7 20 -3 8 3 15 0 15 -6 0 -6 14 -11 31 -11 17 0 39 -4 49 -10 10 -5 36
-12 57 -15 76 -9 138 -21 150 -28 19 -12 93 -15 93 -5 0 6 -9 12 -20 15 -11 3
-20 9 -20 13 0 4 -17 7 -37 8 -20 1 -41 6 -47 12 -5 5 -19 10 -31 10 -12 0
-26 5 -33 12 -10 10 -20 13 -77 20 -11 2 -26 9 -34 16 -8 8 -22 11 -32 9 -11
-3 -21 -2 -24 3 -7 11 -100 40 -130 40 -14 0 -24 3 -22 8 3 4 -11 8 -31 10
-20 1 -41 7 -46 12 -6 6 -22 10 -37 10 -40 0 -46 -31 -42 -230 3 -188 9 -383
13 -387 5 -7 3 -90 -3 -100 -8 -13 20 -39 31 -29 9 9 19 146 12 151 -10 6 2
75 14 82 6 4 103 9 216 11 276 4 319 6 314 14 -2 3 21 5 51 4 41 -1 58 -6 69
-21 11 -15 11 -22 3 -27 -9 -6 -8 -10 2 -17 7 -5 14 -28 15 -52 0 -24 5 -47 9
-50 8 -5 14 -50 16 -122 1 -10 6 -15 11 -12 5 3 10 1 10 -4 0 -6 12 -11 27
-11 14 0 34 -6 42 -14 9 -8 52 -24 96 -36 44 -12 87 -26 95 -30 25 -12 247
-12 269 -1 11 6 45 13 74 15 30 1 60 7 67 11 8 5 41 10 74 11 34 1 61 3 61 4
0 2 9 4 20 6 11 1 35 5 53 8 18 2 39 9 45 14 7 4 25 9 40 10 15 1 38 7 50 14
12 7 29 11 39 10 9 -2 19 2 23 8 3 5 18 10 33 10 l27 0 2 207 c1 113 6 209 11
212 9 6 9 16 12 586 2 324 0 370 -13 373 -8 2 -18 -2 -22 -7 -3 -6 -6 -115 -7
-243 -1 -128 -5 -241 -11 -252 -5 -10 -5 -16 0 -13 10 7 10 -804 -1 -822 -4
-7 -15 -10 -23 -7 -10 4 -13 2 -10 -6 3 -10 -12 -14 -56 -15 -33 -2 -65 -7
-71 -12 -6 -4 -18 -9 -26 -9 -31 -2 -66 -8 -77 -15 -6 -4 -15 -3 -18 3 -4 7
-11 7 -18 2 -7 -5 -28 -10 -47 -11 -85 -3 -169 -9 -177 -13 -4 -2 -23 -3 -40
-3 -18 0 -33 -3 -33 -7 0 -4 -43 -8 -95 -8 -52 0 -95 4 -95 9 0 5 -15 8 -32 7
-18 -2 -37 0 -43 3 -5 3 -19 7 -30 8 -44 5 -61 10 -92 26 -18 9 -37 17 -43 17
-18 0 -71 53 -69 69 1 9 -1 24 -5 33 -5 10 -9 62 -10 115 -1 54 -6 105 -11
113 -5 8 -10 116 -11 243 l-1 229 40 39 c22 21 48 41 58 44 11 4 19 11 19 16
0 5 5 9 12 9 6 0 26 11 44 25 18 14 42 25 53 25 11 0 23 5 26 11 4 6 13 8 20
5 7 -2 21 1 31 8 24 16 22 16 179 21 72 2 130 4 130 5 0 8 99 2 105 -6 16 -18
19 -102 5 -107 -7 -3 -89 -6 -184 -7 -94 0 -177 -3 -184 -6 -10 -4 -13 -39
-13 -149 1 -122 3 -145 16 -146 10 0 11 -2 2 -6 -6 -2 -9 -10 -6 -15 4 -6 8
-128 9 -272 1 -144 3 -264 4 -268 0 -5 7 -8 15 -8 8 0 17 -6 19 -12 4 -10 6
-10 6 0 1 6 8 12 16 12 8 0 15 -6 15 -12 0 -9 3 -10 8 -2 9 13 72 14 72 1 0
-5 7 -4 16 4 11 9 18 9 22 2 5 -8 12 -7 25 2 16 12 19 30 20 142 1 70 6 134
10 141 5 7 8 66 8 132 -1 116 0 121 21 129 21 7 99 14 173 14 29 0 30 1 32 54
1 30 6 60 11 66 6 7 9 53 9 102 l-2 90 -37 3 c-21 2 -39 9 -39 15 -1 7 -3 36
-4 65 l-3 53 37 -2 c20 -2 42 1 49 5 7 4 12 2 12 -6 0 -10 2 -10 8 -1 4 7 38
13 82 15 67 3 75 5 75 23 1 11 4 25 7 31 5 7 -31 10 -116 8 -68 -1 -128 1
-134 5 -6 3 -13 47 -16 96 -4 50 -8 106 -11 125 -2 19 -6 50 -8 68 -2 17 -7
35 -10 39 -13 12 -52 11 -64 -2z m117 -575 c11 -7 14 -32 15 -110 0 -56 -3
-106 -6 -112 -3 -5 -44 -11 -89 -12 -78 -3 -85 -1 -107 22 l-23 25 -18 -20
c-16 -19 -17 -47 -17 -303 1 -189 -2 -283 -10 -286 -33 -10 -146 -10 -155 1
-7 8 -9 148 -8 396 l3 384 80 3 c44 2 129 5 189 7 59 2 111 6 114 9 7 8 15 7
32 -4z"/>
</g>
</svg>
