<?xml version="1.0" standalone="no"?>
<!DOCTYPE svg PUBLIC "-//W3C//DTD SVG 20010904//EN"
 "http://www.w3.org/TR/2001/REC-SVG-20010904/DTD/svg10.dtd">
<svg version="1.0" xmlns="http://www.w3.org/2000/svg"
 width="280.000000pt" height="174.000000pt" viewBox="0 0 280.000000 174.000000"
 preserveAspectRatio="xMidYMid meet">
<metadata>
Created by potrace 1.16, written by Peter Selinger 2001-2019
</metadata>
<g transform="translate(0.000000,174.000000) scale(0.100000,-0.100000)"
fill="#000000" stroke="none">
<path d="M1375 1619 c-60 -27 -111 -54 -113 -60 -2 -5 -12 -9 -23 -9 -18 0
-19 -5 -13 -67 3 -38 8 -74 10 -82 5 -16 36 -308 38 -356 l1 -29 -120 -27
c-237 -52 -318 -76 -337 -101 -42 -56 -128 -245 -191 -422 l-32 -88 -162 5
c-137 5 -163 3 -163 -9 0 -16 84 -19 251 -8 l97 7 13 41 c23 74 70 200 95 254
13 29 24 55 24 58 0 4 15 39 34 80 33 69 37 74 78 84 40 11 314 70 385 83 37
7 32 23 58 -188 9 -71 20 -161 25 -200 5 -38 14 -117 20 -175 7 -58 13 -112
15 -120 5 -19 -5 260 -11 320 -9 91 -13 127 -18 205 -4 44 -9 101 -12 127 -7
54 -19 47 125 73 46 8 101 15 123 15 l41 0 -7 -37 c-3 -21 -8 -49 -11 -62 -2
-13 -7 -67 -11 -120 -7 -105 -8 -118 -17 -206 -4 -33 -12 -118 -18 -190 -6
-72 -12 -146 -14 -165 -7 -57 12 -12 20 50 5 30 9 64 11 75 1 11 8 63 14 115
6 52 15 127 20 165 5 39 14 115 20 170 7 55 17 127 23 160 l12 60 45 8 c25 5
135 9 245 10 185 2 203 0 238 -19 33 -17 42 -31 64 -90 20 -57 25 -91 28 -192
3 -115 1 -129 -25 -203 -35 -97 -94 -195 -122 -202 -11 -3 -18 -12 -16 -19 6
-17 425 -15 441 1 8 8 -34 11 -140 11 -82 0 -171 3 -196 6 l-46 7 39 56 c97
143 127 308 86 466 -8 33 -13 61 -11 64 6 6 47 -41 98 -114 56 -80 91 -139
154 -265 51 -101 64 -97 16 5 -12 28 -23 57 -23 66 0 8 -4 19 -10 25 -5 5 -25
42 -45 82 -92 190 -212 319 -315 338 -72 14 -198 18 -306 11 -207 -15 -199
-15 -197 8 5 58 14 144 28 265 8 74 15 140 15 147 0 15 -183 152 -205 152 -5
1 -59 -22 -120 -50z m158 -13 c31 -19 69 -38 84 -43 24 -8 28 -15 31 -54 1
-24 -1 -69 -5 -99 l-8 -55 -75 4 c-41 2 -111 5 -155 5 -79 1 -80 1 -80 -24 0
-25 0 -25 85 -23 47 2 116 5 153 9 l69 5 -6 -78 c-14 -170 -16 -183 -40 -184
-24 -1 -41 -3 -146 -24 -41 -8 -86 -15 -99 -17 -26 -3 -26 -6 -35 122 -10 149
-17 229 -26 298 -10 72 -8 92 9 92 9 0 98 53 141 83 33 23 37 22 103 -17z"/>
<path d="M1361 265 c1 -19 18 -51 18 -35 0 8 -4 22 -9 30 -5 8 -9 11 -9 5z"/>
<path d="M1532 177 l-2 -39 -62 7 c-71 9 -124 8 -138 0 -6 -4 -10 -16 -10 -27
0 -20 3 -21 108 -15 134 8 188 17 170 28 -7 5 -23 9 -35 9 -18 0 -23 7 -26 38
l-4 37 -1 -38z"/>
</g>
</svg>
