<?xml version="1.0" standalone="no"?>
<!DOCTYPE svg PUBLIC "-//W3C//DTD SVG 20010904//EN"
 "http://www.w3.org/TR/2001/REC-SVG-20010904/DTD/svg10.dtd">
<svg version="1.0" xmlns="http://www.w3.org/2000/svg"
 width="232.000000pt" height="120.000000pt" viewBox="0 0 232.000000 120.000000"
 preserveAspectRatio="xMidYMid meet">
<metadata>
Created by potrace 1.16, written by Peter Selinger 2001-2019
</metadata>
<g transform="translate(0.000000,120.000000) scale(0.100000,-0.100000)"
fill="#000000" stroke="none">
<path d="M1030 944 c-14 -14 -77 -60 -140 -102 -63 -42 -118 -81 -121 -85 -3
-5 -70 -5 -148 -1 -140 7 -141 7 -141 -15 0 -25 -4 -25 178 -11 157 12 174 19
293 120 46 39 88 69 94 66 6 -2 85 2 175 10 91 7 174 13 185 14 18 0 20 -7 21
-64 0 -57 -2 -65 -20 -70 -12 -3 -46 -30 -76 -60 l-55 -55 -132 -1 c-72 0
-134 -3 -136 -7 -2 -5 -1 -37 2 -73 6 -65 6 -65 36 -63 17 1 71 5 120 9 l90 7
45 -38 c25 -21 64 -47 88 -58 l42 -21 0 -68 0 -69 -132 2 c-73 1 -163 5 -199
8 -69 6 -79 12 -185 104 -75 64 -108 74 -277 82 -145 7 -157 6 -157 -10 0 -15
13 -17 142 -13 128 3 144 1 163 -16 11 -10 58 -42 105 -72 142 -90 160 -104
160 -119 0 -13 23 -14 163 -10 89 3 191 8 227 10 36 3 155 8 265 11 335 11
347 21 27 23 l-293 1 7 63 c3 34 9 65 13 69 3 4 35 18 71 31 291 108 400 151
400 157 0 4 -19 14 -42 23 -65 25 -262 95 -360 129 l-88 30 7 61 c3 34 6 63 7
63 1 2 466 14 524 14 24 0 41 4 37 9 -3 6 -197 10 -483 10 l-477 0 -25 -25z
m456 -180 c22 -9 40 -16 41 -15 2 0 8 -2 15 -4 7 -3 92 -29 188 -59 164 -51
173 -55 145 -65 -16 -6 -38 -16 -47 -21 -29 -16 -37 -12 -40 22 -2 17 -9 33
-17 36 -10 3 -12 -4 -9 -33 4 -35 2 -39 -29 -51 -18 -8 -36 -14 -40 -14 -4 0
-6 29 -5 65 3 49 0 65 -10 65 -10 0 -12 -17 -10 -69 3 -67 2 -69 -25 -79 -15
-5 -36 -13 -45 -17 -16 -6 -17 2 -11 94 4 72 2 101 -6 101 -13 0 -13 2 -11
-117 1 -55 -3 -93 -9 -93 -5 0 -17 -3 -26 -6 -15 -6 -16 4 -12 115 4 100 3
121 -9 121 -11 0 -14 -24 -14 -129 l0 -129 -31 -11 c-27 -9 -38 -8 -73 12
l-41 22 -3 115 -2 115 32 22 c40 27 55 28 104 7z m-156 -145 c0 -85 -7 -92
-36 -37 -17 32 -13 80 7 105 23 26 29 11 29 -68z m-142 -4 c2 -43 1 -45 -26
-45 -26 0 -27 2 -24 43 7 72 48 74 50 2z m67 5 c0 -48 -1 -50 -27 -50 -27 0
-28 2 -28 50 0 48 1 50 28 50 26 0 27 -2 27 -50z m-181 24 c3 -9 6 -29 6 -45
0 -24 -4 -29 -25 -29 -22 0 -24 4 -23 38 0 20 3 40 5 45 7 13 31 8 37 -9z m46
-29 c0 -33 -4 -45 -15 -45 -11 0 -15 12 -15 45 0 33 4 45 15 45 11 0 15 -12
15 -45z"/>
<path d="M1418 628 c5 -187 21 -198 22 -15 0 112 -3 147 -13 147 -10 0 -12
-30 -9 -132z"/>
</g>
</svg>
