<?xml version="1.0" standalone="no"?>
<!DOCTYPE svg PUBLIC "-//W3C//DTD SVG 20010904//EN"
 "http://www.w3.org/TR/2001/REC-SVG-20010904/DTD/svg10.dtd">
<svg version="1.0" xmlns="http://www.w3.org/2000/svg"
 width="224.000000pt" height="116.000000pt" viewBox="0 0 224.000000 116.000000"
 preserveAspectRatio="xMidYMid meet">
<metadata>
Created by potrace 1.16, written by Peter Selinger 2001-2019
</metadata>
<g transform="translate(0.000000,116.000000) scale(0.100000,-0.100000)"
fill="#000000" stroke="none">
<path d="M989 974 c-1 -5 -1 -11 -1 -14 0 -3 -22 -21 -49 -40 -27 -19 -55 -40
-62 -45 -24 -20 -97 -65 -104 -65 -5 0 -21 -12 -36 -26 -28 -26 -29 -26 -170
-22 -133 3 -142 2 -145 -16 -4 -18 2 -19 147 -13 l151 6 68 40 c37 22 93 63
124 91 l57 51 78 3 c326 12 697 29 793 35 l115 8 -170 2 c-93 1 -311 4 -482 8
-180 3 -314 2 -314 -3z"/>
<path d="M1062 599 l3 -152 115 2 c63 1 156 4 205 7 l91 6 2 61 c2 34 5 63 8
66 2 3 51 6 107 7 56 1 138 3 182 5 l80 2 -100 7 c-55 4 -139 8 -187 9 l-88 1
0 65 0 65 -210 0 -211 0 3 -151z m383 129 c2 -7 5 -66 7 -131 l3 -117 -52 0
c-28 0 -53 3 -55 8 -2 4 -2 59 1 122 l6 115 35 6 c19 4 39 7 43 8 4 0 10 -5
12 -11z m-117 -125 l3 -122 -103 -1 c-57 0 -112 -1 -123 -3 -19 -2 -20 5 -23
120 l-3 122 103 3 c57 2 112 3 123 3 19 0 20 -8 23 -122z"/>
<path d="M420 495 c0 -17 10 -18 150 -12 117 4 150 3 150 -7 0 -7 11 -18 24
-24 58 -26 246 -156 246 -170 0 -13 27 -14 213 -8 778 24 865 32 372 36 -209
1 -393 4 -410 6 -16 1 -67 5 -112 7 -79 4 -84 5 -126 43 -66 59 -81 70 -142
104 -54 30 -61 31 -211 37 -144 6 -154 5 -154 -12z"/>
</g>
</svg>
