<?xml version="1.0" standalone="no"?>
<!DOCTYPE svg PUBLIC "-//W3C//DTD SVG 20010904//EN"
 "http://www.w3.org/TR/2001/REC-SVG-20010904/DTD/svg10.dtd">
<svg version="1.0" xmlns="http://www.w3.org/2000/svg"
 width="142.000000pt" height="154.000000pt" viewBox="0 0 142.000000 154.000000"
 preserveAspectRatio="xMidYMid meet">
<metadata>
Created by potrace 1.16, written by Peter Selinger 2001-2019
</metadata>
<g transform="translate(0.000000,154.000000) scale(0.100000,-0.100000)"
fill="#000000" stroke="none">
<path d="M700 1405 c-13 -14 -20 -25 -17 -25 7 0 -3 -13 -55 -73 -15 -18 -28
-36 -28 -40 0 -10 -50 -79 -65 -89 -5 -4 -6 -8 -1 -8 5 0 -1 -11 -13 -24 l-23
-24 -58 23 c-32 13 -61 21 -64 18 -2 -3 -10 -1 -17 3 -8 4 -29 9 -48 11 -18 2
-41 8 -50 12 -9 5 -34 12 -56 15 -22 3 -51 8 -65 11 -18 4 -29 0 -37 -14 -14
-23 -4 -55 29 -100 10 -13 16 -27 13 -31 -3 -4 2 -13 10 -20 8 -7 15 -18 15
-25 0 -7 8 -23 19 -36 10 -13 19 -28 20 -34 1 -11 43 -72 84 -120 33 -39 33
-48 6 -74 l-22 -20 23 -63 c29 -80 79 -181 127 -255 48 -73 64 -92 137 -162
114 -109 126 -121 126 -115 0 3 19 -13 43 -35 23 -23 50 -43 60 -47 9 -3 17
-10 17 -15 0 -5 6 -9 14 -9 8 0 16 -5 18 -12 3 -7 7 -8 10 -2 4 5 -28 46 -70
89 -96 100 -186 202 -191 218 -2 7 -17 24 -33 40 -16 15 -27 27 -24 27 3 0
-14 30 -39 66 -25 36 -43 69 -40 74 3 5 1 11 -4 15 -10 6 -61 111 -61 126 0 5
-10 30 -21 55 l-22 45 22 27 c11 15 25 36 30 47 5 11 23 35 40 54 17 19 31 39
31 44 0 6 11 25 25 43 14 18 25 36 25 41 0 4 14 21 30 36 17 16 30 34 30 41 0
7 15 30 33 52 18 21 44 55 59 74 14 19 45 55 68 80 l42 45 48 -55 c27 -30 46
-57 44 -59 -2 -3 4 -14 15 -25 25 -27 102 -154 137 -226 14 -30 33 -63 42 -72
8 -10 12 -18 8 -18 -4 0 3 -14 15 -32 13 -17 23 -45 23 -62 0 -37 -22 -165
-31 -180 -4 -6 -8 -22 -8 -36 -1 -14 -12 -54 -24 -90 -12 -36 -24 -72 -26 -80
-2 -9 -17 -39 -34 -68 -17 -29 -31 -55 -31 -57 0 -2 -29 -54 -65 -115 -36 -61
-65 -114 -65 -118 0 -10 71 61 89 89 9 14 28 41 44 60 68 84 162 271 171 339
2 14 6 32 8 40 38 110 36 192 -8 285 -16 33 -29 62 -29 65 -4 28 -194 378
-226 416 -7 9 -18 26 -24 38 -9 17 -21 21 -71 24 -53 3 -62 0 -84 -23z m-463
-245 c26 -5 59 -12 73 -14 14 -3 52 -12 85 -21 33 -9 66 -17 73 -17 19 -2 14
-24 -11 -55 -13 -15 -32 -47 -42 -70 -11 -24 -23 -39 -29 -36 -6 3 -8 3 -4 -2
4 -4 -4 -28 -17 -54 -14 -25 -25 -53 -25 -61 0 -8 -20 18 -45 58 -25 40 -45
74 -45 77 0 2 -13 27 -30 55 -16 28 -30 57 -30 65 0 7 -7 21 -16 29 -8 9 -13
16 -9 16 3 0 1 9 -5 20 -13 24 1 26 77 10z"/>
<path d="M674 983 c-10 -21 -18 -40 -19 -43 0 -3 -3 -10 -7 -15 -3 -6 -25 -57
-48 -114 -46 -116 -47 -169 -6 -204 11 -10 53 -50 93 -88 63 -62 135 -119 149
-119 4 0 24 45 28 65 1 6 8 28 15 50 20 64 20 65 20 68 0 1 5 16 11 32 7 17
14 44 17 60 3 17 9 37 13 45 14 25 -22 75 -179 242 -30 32 -57 58 -61 58 -4 0
-16 -17 -26 -37z m173 -163 c79 -74 80 -76 68 -105 -7 -17 -21 -50 -30 -75
-10 -25 -26 -64 -36 -87 -11 -24 -19 -49 -19 -56 0 -7 -6 -21 -12 -30 -12 -15
-25 -5 -121 91 -59 60 -104 111 -101 114 3 4 7 17 9 30 4 24 40 138 55 173 5
11 14 36 21 56 l12 36 37 -36 c20 -20 72 -70 117 -111z"/>
</g>
</svg>
