<?xml version="1.0" standalone="no"?>
<!DOCTYPE svg PUBLIC "-//W3C//DTD SVG 20010904//EN"
 "http://www.w3.org/TR/2001/REC-SVG-20010904/DTD/svg10.dtd">
<svg version="1.0" xmlns="http://www.w3.org/2000/svg"
 width="154.000000pt" height="118.000000pt" viewBox="0 0 154.000000 118.000000"
 preserveAspectRatio="xMidYMid meet">
<metadata>
Created by potrace 1.16, written by Peter Selinger 2001-2019
</metadata>
<g transform="translate(0.000000,118.000000) scale(0.100000,-0.100000)"
fill="#000000" stroke="none">
<path d="M1047 1020 c-15 -16 -27 -32 -27 -35 0 -2 -30 -46 -67 -96 -38 -51
-67 -96 -66 -100 1 -4 -4 -13 -12 -19 -8 -7 -15 -20 -15 -30 0 -10 -13 -32
-28 -48 -21 -22 -26 -35 -20 -46 5 -9 6 -16 2 -16 -3 0 -2 -6 3 -12 6 -7 14
-26 18 -43 5 -16 9 -32 10 -35 1 -3 9 -23 19 -45 9 -22 16 -42 14 -44 -3 -4
-338 -4 -348 -1 -3 1 -12 2 -20 1 -20 -1 -28 6 -73 62 -32 39 -42 46 -54 36
-12 -10 -7 -19 31 -58 l45 -46 -64 0 c-36 0 -65 4 -65 8 0 4 -9 3 -20 -3 -11
-6 -20 -7 -20 -2 0 5 -10 20 -22 34 -13 13 -36 41 -51 62 -27 34 -52 44 -52
19 0 -6 26 -39 58 -73 l57 -63 -57 -61 c-32 -34 -61 -64 -66 -67 -4 -3 -1 -11
7 -18 12 -10 20 -6 48 25 88 99 98 108 98 95 0 -12 3 -12 12 -3 13 13 124 17
131 5 3 -5 -12 -26 -34 -48 -43 -44 -46 -50 -24 -59 8 -3 15 -1 15 3 0 5 19
29 43 55 35 36 48 44 67 39 16 -4 21 -3 16 5 -5 8 6 12 36 13 90 1 235 8 279
14 47 5 64 -3 71 -35 5 -26 221 -250 240 -250 10 0 56 45 131 128 36 41 108
163 101 174 -3 4 0 8 5 8 6 0 11 9 11 19 0 11 5 23 11 26 6 4 8 13 5 20 -2 7
0 17 6 23 6 6 13 40 15 76 4 50 2 71 -9 84 -8 9 -31 44 -51 77 -19 33 -64 92
-99 132 -35 40 -76 88 -92 108 -26 31 -35 35 -76 35 -39 0 -51 -5 -73 -30z
m153 -91 c25 -26 56 -59 68 -75 13 -16 40 -47 61 -69 20 -22 44 -52 53 -67 17
-25 17 -37 1 -103 -3 -16 -7 -37 -9 -45 -10 -66 -41 -139 -101 -240 -31 -52
-65 -104 -75 -116 -10 -11 -16 -22 -14 -25 2 -2 -2 -9 -9 -15 -9 -9 -21 -1
-51 38 -21 28 -47 58 -56 67 -10 8 -18 19 -18 24 0 5 -14 27 -31 48 -26 33
-116 194 -117 209 0 3 -5 25 -12 50 -7 25 -14 53 -16 63 -3 18 17 53 68 122
12 17 40 55 62 85 22 30 56 72 75 92 40 43 36 45 121 -43z"/>
<path d="M947 726 c-10 -26 9 -37 54 -32 24 3 99 7 165 8 92 2 120 6 117 16
-3 6 -19 12 -37 13 -17 0 -90 2 -163 4 -101 3 -132 1 -136 -9z"/>
<path d="M979 544 c-9 -11 -9 -14 0 -14 7 0 10 -4 7 -8 -3 -5 21 -8 52 -7 31
1 104 2 160 3 76 2 103 5 100 14 -3 8 -32 13 -84 15 -43 1 -111 4 -151 6 -54
4 -75 1 -84 -9z"/>
<path d="M156 961 c-3 -5 1 -14 9 -21 9 -7 34 -35 57 -62 48 -57 46 -68 -23
-142 -30 -33 -39 -50 -34 -65 6 -19 8 -18 33 12 15 18 40 48 54 68 15 20 32
37 40 38 46 8 158 11 158 4 -1 -4 -19 -26 -40 -48 -44 -44 -47 -50 -25 -59 10
-3 25 8 43 32 52 70 65 82 79 70 8 -6 13 -6 13 -1 0 8 202 24 320 26 8 0 21 5
29 11 11 8 13 8 7 -1 -5 -9 -2 -11 8 -7 44 17 -12 25 -169 24 -96 -1 -179 1
-185 5 -6 4 -17 2 -24 -4 -13 -11 -27 1 -79 72 -23 32 -31 36 -43 26 -13 -10
-10 -17 21 -49 19 -20 35 -40 35 -46 0 -5 -28 -9 -62 -8 -43 1 -62 5 -60 13 2
9 -3 9 -17 1 -17 -8 -22 -6 -32 12 -11 21 -26 40 -71 89 -19 21 -34 24 -42 10z"/>
</g>
</svg>
