<?xml version="1.0" standalone="no"?>
<!DOCTYPE svg PUBLIC "-//W3C//DTD SVG 20010904//EN"
 "http://www.w3.org/TR/2001/REC-SVG-20010904/DTD/svg10.dtd">
<svg version="1.0" xmlns="http://www.w3.org/2000/svg"
 width="364.000000pt" height="164.000000pt" viewBox="0 0 364.000000 164.000000"
 preserveAspectRatio="xMidYMid meet">
<metadata>
Created by potrace 1.16, written by Peter Selinger 2001-2019
</metadata>
<g transform="translate(0.000000,164.000000) scale(0.100000,-0.100000)"
fill="#000000" stroke="none">
<path d="M2350 1455 c-7 -8 -9 -15 -4 -15 5 0 2 -4 -5 -9 -12 -8 -7 -17 24
-45 21 -20 46 -36 54 -36 9 0 36 -18 61 -40 25 -22 61 -47 80 -57 19 -10 40
-22 46 -28 6 -5 28 -23 48 -40 21 -16 47 -38 59 -47 11 -10 24 -18 29 -18 5 0
31 -15 58 -32 26 -18 78 -51 115 -73 36 -22 78 -50 93 -62 24 -19 25 -23 11
-35 -33 -28 -62 -198 -33 -198 7 0 10 -8 7 -20 -3 -11 -9 -20 -14 -20 -4 0
-24 -13 -42 -30 -19 -16 -42 -30 -50 -30 -8 0 -17 -3 -19 -8 -6 -15 -105 -81
-112 -75 -3 3 -6 -1 -6 -10 0 -9 -6 -14 -12 -12 -7 3 -33 -13 -56 -35 -24 -22
-50 -40 -58 -40 -8 0 -14 -4 -14 -10 0 -5 -6 -10 -12 -10 -7 0 -31 -16 -53
-35 -22 -20 -50 -38 -62 -41 -13 -4 -20 -10 -17 -15 3 -5 0 -9 -6 -9 -12 0
-12 0 -80 -57 -39 -33 -44 -41 -35 -60 16 -38 35 -35 86 12 26 25 53 45 59 45
12 0 9 -2 105 78 39 33 79 62 90 66 11 3 47 32 80 63 33 31 74 62 91 69 17 7
55 34 85 59 49 42 89 58 89 35 0 -5 7 -10 15 -10 11 0 14 7 9 24 -4 19 3 30
40 61 25 20 50 34 56 30 11 -6 52 -92 48 -98 -2 -2 27 -39 50 -63 7 -7 22 -20
34 -28 11 -8 17 -19 14 -25 -10 -16 -58 -9 -80 11 -25 22 -36 14 -13 -10 11
-11 42 -19 85 -24 37 -4 84 -10 105 -14 20 -3 37 -2 38 2 3 26 5 571 2 580 -5
13 -77 8 -81 -6 -3 -7 -9 -6 -20 2 -12 11 -16 11 -20 0 -3 -9 -7 -10 -17 -2
-9 8 -15 8 -20 0 -3 -6 -11 -8 -16 -4 -5 3 -26 -4 -45 -15 -19 -12 -41 -21
-48 -21 -8 0 -19 -7 -26 -15 -7 -9 -19 -14 -27 -11 -7 3 -13 -1 -13 -10 0 -8
-4 -12 -10 -9 -5 3 -10 1 -10 -5 0 -13 -67 25 -91 52 -9 10 -22 18 -28 18 -7
0 -9 5 -5 12 4 7 3 8 -5 4 -7 -4 -26 5 -44 21 -49 41 -99 78 -106 77 -6 -1
-97 69 -137 105 -12 11 -24 18 -26 16 -2 -3 -33 19 -69 49 -35 29 -73 56 -84
60 -12 3 -40 24 -64 46 -48 45 -53 46 -71 25z m954 -424 c14 -1 -36 -51 -51
-51 -7 0 -13 -5 -13 -11 0 -5 -12 -26 -27 -44 -21 -26 -33 -33 -48 -29 -11 4
-22 9 -25 13 -3 3 -13 11 -23 16 -10 6 -19 15 -19 20 -1 11 96 64 127 69 11 2
19 8 18 13 -1 7 11 8 61 4z m-175 -150 c31 -27 41 -43 35 -52 -5 -8 -9 -18
-10 -24 0 -5 -2 -15 -2 -22 -1 -6 -12 -15 -24 -19 -13 -4 -25 -9 -28 -13 -3
-3 -24 -16 -47 -29 -42 -23 -43 -23 -43 -3 0 11 -4 22 -9 25 -10 7 -12 57 -1
71 4 6 10 23 14 39 7 28 42 65 61 65 6 0 30 -17 54 -38z"/>
<path d="M467 1287 c-15 -12 -27 -25 -27 -29 0 -8 184 -68 209 -68 11 0 22 -4
25 -8 3 -5 22 -9 42 -10 66 -3 68 -9 70 -224 1 -106 5 -215 9 -243 10 -76 14
-201 6 -214 -7 -10 -61 -23 -156 -37 -47 -7 -194 -55 -201 -66 -3 -5 -12 -7
-20 -4 -20 8 -26 -10 -9 -27 8 -9 15 -20 15 -25 0 -17 24 -20 47 -5 12 8 27
12 33 8 5 -3 10 -2 10 3 0 8 96 45 125 48 6 0 17 3 25 6 25 10 154 40 170 40
8 0 44 6 80 12 36 7 80 12 98 11 17 0 32 4 32 8 0 15 432 -1 458 -17 4 -2 30
-6 58 -7 27 -1 51 -6 54 -11 3 -4 15 -9 25 -11 45 -9 80 -21 86 -29 7 -10 167
-23 274 -22 104 0 214 12 238 26 12 7 31 13 41 15 11 2 27 10 36 18 9 8 23 15
32 15 8 0 27 9 41 20 14 11 30 20 36 20 6 0 11 5 11 12 0 6 3 9 6 5 10 -10
124 93 124 112 0 7 5 9 12 5 7 -5 8 -3 3 5 -4 7 1 22 12 34 11 12 23 28 28 35
12 22 -24 -1 -67 -42 -21 -20 -38 -33 -39 -28 0 4 -4 -3 -9 -16 -6 -12 -18
-22 -30 -22 -11 0 -20 -4 -20 -8 0 -5 -16 -17 -35 -28 -19 -10 -35 -22 -35
-25 0 -4 -13 -10 -30 -14 -16 -4 -32 -11 -35 -16 -4 -5 -17 -9 -30 -9 -13 0
-27 -4 -30 -10 -3 -5 -17 -10 -30 -10 -13 0 -25 -5 -27 -10 -2 -6 -33 -11 -71
-13 -37 -1 -67 -6 -67 -10 0 -5 -37 -6 -82 -3 -108 7 -168 16 -168 25 0 11
-59 6 -71 -6 -12 -12 -49 -5 -49 9 0 6 -6 8 -14 5 -7 -3 -17 -2 -22 3 -15 15
-96 39 -110 33 -8 -3 -14 -1 -14 4 0 5 -8 9 -17 10 -37 3 -69 10 -82 18 -8 4
-88 9 -177 11 -90 1 -168 6 -174 9 -5 3 -10 1 -10 -5 0 -6 -8 -10 -17 -9 -10
2 -27 0 -38 -4 -11 -3 -38 -9 -60 -12 -22 -3 -49 -8 -60 -10 -62 -13 -60 -15
-65 60 -3 39 -4 184 -2 322 l3 253 47 -5 c349 -31 601 -23 717 25 35 15 75 21
75 11 0 -15 30 -22 50 -11 22 12 310 17 328 6 7 -4 32 -10 55 -12 23 -3 60
-13 82 -23 22 -10 65 -26 96 -35 31 -9 62 -23 69 -31 7 -8 17 -15 23 -15 5 0
17 -8 26 -18 9 -9 27 -23 41 -29 27 -12 48 -28 112 -85 42 -38 68 -48 68 -27
0 25 -186 195 -243 223 -31 15 -57 32 -57 38 0 5 -6 8 -12 6 -7 -3 -41 8 -76
24 -35 16 -80 30 -101 32 -21 2 -42 6 -48 9 -5 3 -54 9 -109 12 -122 7 -144
12 -144 29 0 11 -7 11 -41 0 -22 -8 -45 -12 -50 -9 -5 4 -9 1 -9 -4 0 -6 -17
-11 -38 -11 -21 0 -43 -5 -50 -12 -6 -6 -31 -13 -54 -15 -24 -3 -47 -8 -53
-12 -5 -4 -32 -9 -58 -10 -27 -1 -59 -6 -71 -11 -28 -10 -355 -10 -376 1 -9 4
-49 9 -90 10 -41 1 -80 6 -85 10 -6 4 -28 10 -50 13 -93 14 -165 30 -165 37 0
4 -15 10 -32 14 -32 6 -64 18 -100 36 -23 12 -21 12 -51 -14z"/>
<path d="M3056 611 c-8 -12 41 -54 54 -46 8 5 5 15 -11 31 -24 25 -35 29 -43
15z"/>
<path d="M3130 561 c0 -12 29 -35 36 -28 4 3 -1 13 -9 22 -17 17 -27 19 -27 6z"/>
</g>
</svg>
