<?xml version="1.0" standalone="no"?>
<!DOCTYPE svg PUBLIC "-//W3C//DTD SVG 20010904//EN"
 "http://www.w3.org/TR/2001/REC-SVG-20010904/DTD/svg10.dtd">
<svg version="1.0" xmlns="http://www.w3.org/2000/svg"
 width="292.000000pt" height="200.000000pt" viewBox="0 0 292.000000 200.000000"
 preserveAspectRatio="xMidYMid meet">
<metadata>
Created by potrace 1.16, written by Peter Selinger 2001-2019
</metadata>
<g transform="translate(0.000000,200.000000) scale(0.100000,-0.100000)"
fill="#000000" stroke="none">
<path d="M1640 1698 c-36 -9 -66 -17 -67 -18 -2 -1 -18 -2 -35 -3 -18 0 -36
-4 -39 -9 -3 -5 -19 -10 -36 -12 -17 -3 -41 -9 -52 -16 -12 -6 -21 -8 -21 -5
0 3 -14 -2 -30 -10 -17 -9 -34 -13 -39 -11 -5 3 -14 -1 -21 -10 -7 -8 -20 -12
-28 -9 -9 3 -26 -8 -44 -27 -16 -18 -32 -36 -36 -40 -4 -3 -55 -52 -114 -109
-60 -56 -108 -108 -108 -116 0 -7 -5 -13 -12 -13 -6 0 -9 -3 -5 -6 3 -3 -5
-18 -18 -32 -13 -15 -33 -38 -44 -52 -11 -14 -25 -30 -31 -37 -5 -7 -10 -17
-10 -23 0 -5 -4 -10 -10 -10 -5 0 -9 -6 -7 -12 1 -9 -13 -13 -46 -14 -26 0
-49 2 -51 5 -2 3 -44 5 -93 4 -48 -1 -141 -2 -205 -2 -111 -1 -118 -2 -118
-21 0 -23 -18 -22 225 -20 350 3 395 7 361 33 -13 10 -10 19 24 67 22 30 46
68 54 84 28 60 225 263 264 272 15 4 41 17 57 28 17 12 35 22 40 22 9 0 48 16
110 44 11 5 78 21 149 35 71 14 133 28 138 31 4 3 20 -3 36 -14 15 -11 54 -22
87 -26 137 -15 161 -19 172 -28 7 -5 16 -7 21 -4 5 3 17 -1 28 -8 10 -8 24
-12 30 -9 8 3 17 -12 24 -39 6 -23 19 -63 27 -88 9 -25 17 -54 18 -65 2 -11 4
-20 5 -20 12 0 19 -259 8 -310 -5 -27 -11 -70 -12 -95 -3 -55 -16 -110 -25
-110 -4 0 -18 -30 -31 -67 -13 -38 -27 -70 -31 -73 -4 -3 -19 -27 -33 -55 -43
-81 -119 -184 -141 -190 -29 -9 -30 -63 -1 -71 29 -7 417 3 497 13 37 5 92 9
123 8 58 0 69 7 38 24 -14 8 -18 19 -15 53 2 24 5 48 8 55 2 7 1 14 -3 17 -9
5 -9 47 0 62 6 11 1 405 -7 494 -4 36 -7 82 -8 102 -1 21 -5 38 -8 38 -3 0
-13 27 -23 60 -10 32 -30 74 -44 93 -31 39 -104 100 -125 103 -8 1 -29 12 -45
24 -17 12 -35 19 -41 16 -6 -4 -11 -3 -11 3 0 5 -10 12 -22 16 -30 8 -98 34
-122 47 -10 5 -30 12 -45 14 -14 2 -51 10 -81 19 -30 9 -68 18 -84 20 -15 2
-38 8 -50 11 -39 13 -150 9 -216 -8z m620 -147 c10 -13 59 -41 72 -41 17 0
108 -91 108 -107 0 -8 6 -24 14 -36 16 -25 37 -109 51 -197 2 -14 4 -25 5 -25
1 0 4 -38 7 -85 2 -46 8 -89 12 -95 11 -13 9 -486 -2 -503 -5 -6 -18 -10 -30
-7 -29 7 -185 14 -369 18 -81 2 -150 5 -153 8 -3 3 12 24 32 45 83 87 174 231
177 279 1 6 7 16 14 23 6 7 12 26 12 42 0 16 5 32 10 35 6 3 10 17 10 30 0 13
4 26 9 29 5 3 8 20 7 38 -1 18 2 47 6 63 12 40 11 181 -1 222 -6 21 -6 35 0
39 5 3 6 11 2 17 -4 7 -6 19 -5 29 2 9 -2 19 -8 23 -5 3 -10 17 -10 30 0 13
-5 27 -11 31 -6 3 -9 15 -6 25 3 10 2 21 -3 24 -4 2 -7 15 -7 29 0 19 5 24 26
24 14 0 28 -3 31 -7z"/>
<path d="M1014 1195 c-4 -8 -12 -15 -20 -15 -8 0 -14 -6 -15 -12 -6 -82 5
-752 14 -868 2 -14 -1 -30 -6 -37 -4 -6 -3 -14 3 -18 8 -5 8 -11 0 -20 -22
-27 16 -38 123 -35 89 1 116 3 162 9 6 0 10 29 10 69 -1 37 3 72 7 79 5 6 5
14 -2 18 -6 3 -7 12 -3 18 4 7 9 100 11 207 2 107 5 197 8 199 2 2 95 6 207 7
111 2 252 6 312 9 61 3 142 7 182 8 39 1 74 4 76 7 3 3 7 32 10 65 3 33 6 60
7 60 1 0 3 57 4 127 l2 126 -216 2 c-118 1 -363 4 -543 6 -284 3 -328 2 -333
-11z m1043 -29 c3 -3 6 -77 7 -165 l2 -161 -25 0 c-14 -1 -50 -2 -79 -3 -30
-1 -56 1 -59 6 -7 11 -7 303 0 314 3 5 20 10 38 11 18 1 34 4 36 5 4 5 75 -2
80 -7z m-201 -9 c3 -3 8 -76 11 -161 3 -123 1 -156 -9 -157 -31 -3 -83 0 -106
6 -23 6 -24 9 -18 53 3 26 6 93 6 150 0 97 2 103 23 111 24 10 83 9 93 -2z
m-531 -9 c3 -3 7 -71 9 -151 3 -142 2 -146 -18 -149 -12 -2 -21 -10 -21 -18 0
-8 -9 -17 -20 -20 -20 -6 -20 -13 -17 -298 3 -288 2 -292 -18 -292 -11 -1 -60
-1 -110 -1 -49 0 -97 0 -105 1 -13 0 -15 21 -11 148 2 81 7 286 11 457 4 171
9 312 11 314 3 3 45 5 94 6 50 1 92 4 94 6 6 6 95 3 101 -3z m133 -1 c4 -7 8
-48 9 -92 2 -44 4 -107 5 -140 l3 -60 -55 0 -55 0 -3 139 c-2 87 1 143 8 151
13 16 77 17 88 2z m113 6 c1 -5 3 -60 4 -124 1 -64 5 -121 9 -127 3 -6 2 -13
-3 -17 -6 -3 -8 -12 -4 -20 4 -12 -4 -15 -36 -15 -36 0 -41 3 -42 23 -3 108 0
267 5 276 8 12 65 15 67 4z m125 -18 c1 -11 3 -22 4 -25 1 -3 3 -62 5 -132 l3
-128 -47 0 -47 0 0 148 c1 85 5 150 11 155 6 4 24 6 40 5 22 -2 30 -8 31 -23z"/>
</g>
</svg>
