<?xml version="1.0" standalone="no"?>
<!DOCTYPE svg PUBLIC "-//W3C//DTD SVG 20010904//EN"
 "http://www.w3.org/TR/2001/REC-SVG-20010904/DTD/svg10.dtd">
<svg version="1.0" xmlns="http://www.w3.org/2000/svg"
 width="328.000000pt" height="178.000000pt" viewBox="0 0 328.000000 178.000000"
 preserveAspectRatio="xMidYMid meet">
<metadata>
Created by potrace 1.16, written by Peter Selinger 2001-2019
</metadata>
<g transform="translate(0.000000,178.000000) scale(0.100000,-0.100000)"
fill="#000000" stroke="none">
<path d="M1378 1522 c-9 -2 -15 -9 -12 -16 6 -15 -50 -66 -72 -66 -8 0 -14 -5
-14 -11 0 -5 -4 -7 -10 -4 -5 3 -10 2 -10 -2 0 -11 -96 -83 -109 -83 -5 0 -16
-6 -23 -12 -22 -21 -71 -54 -105 -71 -17 -9 -37 -22 -45 -30 -7 -7 -27 -19
-45 -26 -18 -7 -34 -22 -37 -36 -5 -21 -13 -24 -72 -27 -36 -1 -73 1 -82 7
-22 12 -73 15 -66 4 3 -5 1 -9 -5 -9 -5 0 -12 4 -15 9 -6 9 -250 14 -277 5
-14 -4 -15 -9 -6 -33 l11 -29 190 4 c104 2 199 7 210 11 12 3 49 7 83 8 50 1
68 6 87 24 14 13 29 20 35 16 6 -3 11 -1 11 4 0 6 6 11 13 11 7 0 24 11 38 24
14 13 34 26 45 30 10 3 55 40 99 82 44 42 94 82 112 90 17 7 33 19 35 26 4 10
61 13 239 15 129 1 275 5 324 8 50 2 277 7 505 10 595 8 638 9 646 18 14 14
-6 20 -68 20 -35 0 -69 4 -75 10 -8 6 -13 6 -13 0 0 -5 -23 -8 -52 -6 -29 2
-118 5 -198 7 -80 2 -183 8 -230 12 -84 7 -1009 13 -1042 6z"/>
<path d="M1480 1150 c0 -8 -3 -10 -7 -7 -16 16 -32 -17 -28 -56 2 -23 7 -66 9
-95 l5 -52 -79 1 c-43 1 -83 -2 -89 -6 -18 -11 -12 -37 9 -42 11 -3 20 -10 20
-15 0 -6 7 -5 16 3 13 10 17 10 25 -2 6 -10 9 -10 9 -1 0 6 7 12 15 12 8 0 15
-5 15 -10 0 -7 6 -7 20 0 14 8 20 8 20 0 0 -6 4 -9 9 -6 12 8 18 -25 20 -109
1 -38 4 -86 6 -105 2 -19 4 -43 4 -54 1 -14 4 -16 14 -8 8 7 12 44 10 124 -1
111 4 164 15 154 3 -3 11 -1 18 5 23 19 33 -23 38 -151 3 -67 9 -127 15 -133
8 -8 11 -5 13 9 0 10 2 30 4 44 2 14 5 65 7 113 4 71 8 92 24 107 12 11 25 15
33 10 7 -5 18 -6 24 -4 7 3 12 -3 12 -13 1 -10 5 -67 9 -128 4 -60 8 -119 7
-129 -1 -13 2 -16 9 -9 6 6 12 64 14 129 2 65 4 127 4 137 1 10 5 16 10 13 5
-4 11 -1 13 6 3 9 9 8 24 -3 18 -12 20 -27 22 -119 2 -58 4 -118 5 -134 3 -39
27 -47 28 -9 3 107 9 186 13 191 3 3 1 11 -5 19 -9 9 -8 13 0 13 6 0 11 6 11
14 0 13 37 33 45 24 2 -1 5 -64 6 -138 3 -121 9 -149 30 -150 3 0 6 17 6 38 1
95 11 175 23 182 10 6 10 8 0 12 -21 7 2 63 26 63 17 0 19 -9 21 -105 1 -58 4
-118 6 -135 3 -16 5 -36 6 -43 0 -7 6 -10 11 -7 6 4 10 64 10 146 0 103 3 141
13 144 6 3 191 7 410 9 370 3 443 8 409 30 -5 3 -127 7 -272 8 -144 2 -264 6
-266 9 -4 7 28 17 81 26 17 3 38 9 47 14 9 5 31 9 48 9 17 0 39 4 49 9 9 5 35
12 57 14 21 3 68 14 103 26 35 12 72 21 82 21 10 0 21 5 24 10 8 12 25 13 43
1 10 -6 15 -43 18 -130 2 -67 6 -126 10 -132 15 -25 29 1 29 57 1 33 5 66 10
74 10 16 7 110 -4 125 -3 6 -6 24 -5 40 2 39 -13 60 -32 44 -8 -6 -12 -15 -9
-19 7 -11 -61 -29 -165 -45 -14 -2 -25 -4 -25 -5 0 -1 -18 -3 -40 -6 -22 -2
-47 -7 -55 -11 -8 -3 -22 -7 -30 -8 -8 -1 -40 -5 -70 -9 -30 -4 -77 -11 -105
-16 -27 -6 -67 -12 -87 -14 -21 -2 -42 -7 -47 -11 -10 -6 -102 -16 -176 -18
l-40 -2 -3 75 c-3 93 -7 106 -26 88 -9 -10 -13 -37 -12 -87 1 -78 -11 -104
-38 -82 -8 7 -15 20 -15 29 0 34 -11 145 -15 149 -2 2 -11 -3 -20 -12 -15 -16
-20 -51 -18 -147 1 -31 -2 -38 -18 -38 -25 0 -33 15 -36 64 -1 23 -3 41 -4 41
-1 0 -3 20 -4 45 0 25 -4 44 -8 43 -5 -2 -12 -3 -18 -3 -5 0 -10 -9 -10 -21 0
-11 -5 -29 -10 -40 -8 -14 -7 -19 1 -19 7 0 9 -11 5 -32 -4 -18 -7 -43 -7 -55
1 -23 -20 -36 -43 -27 -19 7 -25 44 -22 122 2 43 -1 66 -11 73 -10 9 -13 8
-13 0 0 -7 -4 -10 -9 -6 -11 6 -33 -29 -24 -38 9 -9 11 -147 2 -147 -4 0 -14
-3 -22 -6 -32 -12 -45 22 -44 107 1 54 -2 84 -10 91 -9 7 -13 7 -13 -1 0 -7
-4 -10 -9 -7 -15 10 -28 -18 -27 -57 1 -21 -2 -41 -6 -43 -5 -3 -5 -10 -2 -16
17 -27 11 -66 -11 -78 -13 -7 -27 -10 -32 -7 -5 3 -9 49 -9 102 1 66 -3 100
-11 107 -9 7 -13 7 -13 -2z"/>
<path d="M384 712 c-15 -10 -24 -40 -18 -56 4 -10 17 -13 42 -10 20 2 93 6
162 9 141 5 281 15 290 20 3 2 20 -11 38 -30 18 -18 50 -41 70 -50 20 -10 48
-28 62 -40 14 -13 39 -31 57 -42 32 -19 150 -97 168 -111 6 -4 26 -19 45 -32
46 -33 55 -42 63 -63 7 -17 32 -18 524 -14 285 3 579 7 653 11 74 3 220 7 324
10 170 4 226 12 198 30 -5 3 -294 6 -643 7 -411 1 -671 6 -739 14 -76 9 -107
9 -112 1 -6 -8 -10 -8 -15 0 -5 6 -47 10 -103 9 l-95 0 -52 44 c-29 24 -53 41
-53 37 0 -6 -5 -1 -123 103 -38 34 -72 59 -76 56 -4 -2 -24 9 -43 25 -51 42
-82 52 -178 56 -47 3 -92 7 -100 10 -22 9 -334 14 -346 6z"/>
</g>
</svg>
