<?xml version="1.0" standalone="no"?>
<!DOCTYPE svg PUBLIC "-//W3C//DTD SVG 20010904//EN"
 "http://www.w3.org/TR/2001/REC-SVG-20010904/DTD/svg10.dtd">
<svg version="1.0" xmlns="http://www.w3.org/2000/svg"
 width="150.000000pt" height="100.000000pt" viewBox="0 0 150.000000 100.000000"
 preserveAspectRatio="xMidYMid meet">
<metadata>
Created by potrace 1.16, written by Peter Selinger 2001-2019
</metadata>
<g transform="translate(0.000000,100.000000) scale(0.100000,-0.100000)"
fill="#000000" stroke="none">
<path d="M542 894 c-56 -61 -77 -93 -106 -167 l-15 -37 -118 6 c-65 3 -142 10
-171 16 -30 5 -57 7 -60 3 -4 -4 -8 -84 -10 -179 l-3 -172 58 7 c32 4 102 8
156 8 54 1 107 5 117 11 29 16 49 2 77 -53 14 -28 43 -75 64 -104 43 -58 158
-173 172 -173 11 0 76 38 190 110 43 28 81 50 83 50 3 0 17 11 32 25 15 14 32
25 39 25 7 0 13 4 13 9 0 5 15 16 33 25 66 30 357 256 357 275 0 12 -202 124
-335 186 -66 31 -127 60 -135 65 -26 16 -101 50 -195 90 -65 27 -104 38 -138
38 -46 -1 -51 -4 -105 -64z m205 -28 c55 -24 124 -51 153 -61 30 -10 67 -26
84 -35 17 -10 75 -35 128 -55 54 -21 95 -42 92 -47 -3 -4 -38 -8 -79 -8 l-73
0 -46 47 c-39 42 -46 45 -52 29 -5 -14 0 -24 19 -38 15 -11 27 -25 27 -31 0
-6 -20 8 -44 32 -33 32 -49 42 -63 37 -16 -7 -15 -10 10 -31 31 -27 33 -35 12
-35 -8 0 -32 19 -54 43 -35 38 -40 40 -47 23 -5 -14 0 -25 22 -43 l29 -23 -61
0 -62 0 -56 64 c-30 35 -72 71 -93 81 l-37 18 44 38 c25 22 45 39 46 39 1 0
46 -20 101 -44z m-154 -85 c42 -33 107 -95 107 -102 0 -36 -123 45 -125 81 0
3 -4 11 -8 18 -10 14 8 16 26 3z m-35 -52 c31 -53 84 -77 177 -80 39 -2 78 -7
88 -12 18 -8 18 -10 -4 -33 -18 -19 -20 -27 -11 -36 10 -10 19 -4 42 24 27 33
75 55 85 38 2 -4 -10 -17 -26 -29 -23 -17 -28 -26 -20 -34 9 -9 17 -8 31 1 12
7 20 8 20 2 0 -5 11 -10 25 -10 14 0 25 5 25 11 0 7 12 23 28 37 25 24 34 26
135 28 60 1 111 5 114 8 3 3 37 -11 75 -30 53 -27 68 -38 59 -47 -12 -12 -85
-56 -136 -82 -16 -9 -42 -23 -57 -33 -15 -9 -60 -37 -100 -61 -40 -24 -111
-70 -158 -101 -47 -31 -99 -64 -117 -73 -17 -9 -37 -22 -45 -29 -7 -7 -37 -26
-66 -41 l-53 -28 -19 23 c-16 19 -19 39 -20 106 0 63 3 83 13 80 6 -3 15 -20
18 -39 5 -27 7 -29 8 -9 1 14 5 30 9 35 9 13 62 16 62 4 0 -5 5 -9 10 -9 6 0
10 6 10 13 0 10 18 14 63 15 170 4 248 32 88 32 -50 0 -93 5 -96 10 -9 14 8
19 105 29 l85 8 -97 2 c-78 1 -98 4 -98 15 0 11 22 16 90 22 50 3 90 10 90 15
0 5 -38 9 -84 9 -47 0 -87 4 -90 9 -11 18 21 29 84 30 36 0 79 5 95 10 21 6
-34 10 -176 10 -131 1 -209 -3 -216 -10 -6 -6 -8 -60 -5 -155 3 -79 2 -144 -1
-144 -11 0 -55 87 -81 159 -43 119 -45 253 -7 354 6 15 14 27 18 27 5 0 19
-19 31 -41z m-141 -131 c-2 -47 1 -105 8 -135 l12 -53 -71 0 c-79 1 -266 17
-274 24 -8 9 18 220 28 226 5 3 65 7 132 9 68 1 125 4 127 7 2 2 13 4 23 4 18
0 19 -6 15 -82z m578 22 c-3 -5 -11 -10 -16 -10 -6 0 -7 5 -4 10 3 6 11 10 16
10 6 0 7 -4 4 -10z m-205 -130 c0 -5 -4 -10 -9 -10 -6 0 -13 5 -16 10 -3 6 1
10 9 10 9 0 16 -4 16 -10z m-2 -51 c-2 -6 -8 -10 -13 -10 -5 0 -11 4 -13 10
-2 6 4 11 13 11 9 0 15 -5 13 -11z m2 -54 c10 -13 9 -15 -9 -15 -12 0 -21 6
-21 15 0 8 4 15 9 15 5 0 14 -7 21 -15z m-95 -5 c3 -5 1 -10 -4 -10 -6 0 -11
5 -11 10 0 6 2 10 4 10 3 0 8 -4 11 -10z"/>
</g>
</svg>
