<?xml version="1.0" standalone="no"?>
<!DOCTYPE svg PUBLIC "-//W3C//DTD SVG 20010904//EN"
 "http://www.w3.org/TR/2001/REC-SVG-20010904/DTD/svg10.dtd">
<svg version="1.0" xmlns="http://www.w3.org/2000/svg"
 width="94.000000pt" height="144.000000pt" viewBox="0 0 94.000000 144.000000"
 preserveAspectRatio="xMidYMid meet">
<metadata>
Created by potrace 1.16, written by Peter Selinger 2001-2019
</metadata>
<g transform="translate(0.000000,144.000000) scale(0.100000,-0.100000)"
fill="#000000" stroke="none">
<path d="M392 1268 c-7 -7 -12 -18 -12 -24 0 -7 -11 -26 -25 -42 -14 -17 -25
-34 -25 -40 0 -5 -6 -14 -13 -21 -10 -8 -22 -2 -50 27 -21 21 -34 41 -31 45 4
4 -1 9 -10 13 -18 7 -48 -25 -52 -56 -14 -98 -18 -162 -12 -186 5 -16 6 -37 4
-46 -2 -9 0 -18 6 -20 5 -2 11 -19 14 -38 3 -19 10 -40 16 -47 6 -8 6 -19 -1
-32 -6 -11 -10 -64 -10 -118 1 -54 -1 -105 -4 -113 -24 -59 -60 -181 -63 -210
-11 -130 -13 -257 -4 -270 9 -13 12 -13 25 4 8 10 12 23 9 27 -3 5 -1 9 3 9 5
0 21 37 37 83 15 45 31 91 36 102 9 21 20 66 26 103 11 62 13 78 13 95 1 15
16 17 169 17 l167 0 3 -53 c2 -28 4 -68 5 -87 1 -19 4 -37 8 -40 5 -5 45 -142
55 -189 3 -13 10 -34 17 -45 6 -12 11 -25 12 -30 0 -9 24 -22 25 -14 17 136
20 334 6 403 -4 22 -9 84 -9 137 -1 54 -5 98 -9 98 -4 0 -5 6 -3 13 2 6 6 33
9 59 2 25 9 55 14 65 5 10 12 87 15 171 5 127 3 159 -9 186 -18 36 -45 58 -61
48 -11 -8 -76 -100 -84 -121 -3 -9 -16 0 -39 30 -85 111 -133 142 -168 107z
m112 -88 c38 -39 72 -70 77 -70 4 0 -8 -34 -27 -76 -19 -41 -34 -84 -34 -94 0
-10 -4 -21 -9 -24 -4 -3 -11 -20 -15 -37 -6 -32 -22 -59 -35 -59 -4 0 -17 24
-30 53 -12 28 -43 94 -68 145 l-45 93 41 44 c23 25 41 49 41 55 0 11 21 39 30
39 3 1 36 -31 74 -69z m206 -10 c21 -39 30 -169 18 -240 -5 -25 -10 -55 -13
-67 -7 -42 -14 -44 -115 -42 l-98 3 23 50 c43 96 70 151 78 157 5 3 8 9 8 13
-3 18 1 27 25 55 14 16 25 34 26 38 1 10 29 53 34 53 2 0 8 -9 14 -20z m-445
-67 c17 -26 40 -63 53 -83 12 -19 28 -46 35 -60 7 -14 20 -37 30 -51 10 -15
22 -41 27 -58 l9 -31 -94 2 -93 1 -12 45 c-10 42 -22 139 -23 187 0 11 5 33
11 48 7 16 10 33 6 38 -3 5 1 9 8 9 7 0 27 -22 43 -47z m393 -351 c-3 -15 -27
-17 -211 -20 -114 -1 -207 0 -207 2 0 2 3 11 6 20 5 13 34 15 211 15 184 -1
204 -3 201 -17z m2 -81 c3 -1 5 -20 5 -43 l0 -43 -207 0 c-132 0 -208 4 -209
10 -7 58 -3 70 20 75 19 4 365 4 391 1z m26 -168 c3 -16 8 -35 10 -42 11 -34
19 -182 15 -280 -2 -59 -7 -43 -31 99 -5 30 -14 73 -19 95 -12 45 -14 138 -4
148 13 14 23 6 29 -20z m-470 -30 c-2 -27 -5 -50 -6 -53 -1 -3 -2 -8 -2 -11 1
-4 -3 -22 -9 -40 -5 -19 -11 -45 -14 -59 -2 -14 -11 -43 -20 -65 l-15 -40 5
60 c3 33 8 74 10 90 7 34 46 165 51 165 1 0 1 -21 0 -47z"/>
</g>
</svg>
