<?xml version="1.0" standalone="no"?>
<!DOCTYPE svg PUBLIC "-//W3C//DTD SVG 20010904//EN"
 "http://www.w3.org/TR/2001/REC-SVG-20010904/DTD/svg10.dtd">
<svg version="1.0" xmlns="http://www.w3.org/2000/svg"
 width="198.000000pt" height="146.000000pt" viewBox="0 0 198.000000 146.000000"
 preserveAspectRatio="xMidYMid meet">
<metadata>
Created by potrace 1.16, written by Peter Selinger 2001-2019
</metadata>
<g transform="translate(0.000000,146.000000) scale(0.100000,-0.100000)"
fill="#000000" stroke="none">
<path d="M570 1191 c-6 -12 -8 -26 -5 -31 7 -12 105 -61 105 -53 0 3 8 -1 18
-9 9 -8 33 -21 52 -28 19 -7 79 -35 133 -61 53 -26 97 -45 97 -43 0 2 17 -5
38 -15 65 -33 137 -66 147 -66 6 -1 30 -11 55 -22 25 -11 56 -24 70 -28 14 -4
30 -11 35 -15 18 -14 88 -22 80 -10 -4 6 -9 9 -12 6 -3 -3 -17 4 -31 14 -13
11 -30 20 -36 20 -6 0 -28 9 -49 20 -20 11 -37 18 -37 15 0 -2 -23 9 -50 25
-28 17 -53 30 -56 30 -3 0 -33 14 -67 31 -34 18 -93 47 -132 66 -38 19 -77 38
-85 43 -8 5 -57 30 -107 56 -51 26 -93 50 -93 54 0 4 -6 7 -12 7 -7 0 -21 4
-30 8 -11 4 -20 0 -28 -14z"/>
<path d="M481 1183 c-8 -15 -11 -15 -25 -4 -14 12 -20 11 -42 -10 -24 -23
-104 -152 -104 -169 0 -5 -11 -30 -25 -57 -76 -143 -86 -383 -21 -514 9 -18
16 -37 16 -44 0 -14 116 -135 130 -135 15 0 13 5 -26 51 -37 45 -69 99 -58 99
4 0 0 8 -9 18 -17 19 -34 84 -43 167 -7 61 -10 59 101 70 39 4 76 12 84 18 11
9 13 9 8 1 -4 -8 5 -7 31 2 20 7 49 13 64 14 30 0 50 20 21 21 -25 0 -219 -3
-269 -5 l-41 -2 9 36 c6 19 10 43 11 53 1 11 10 17 27 18 14 0 34 2 45 4 11 1
41 5 67 9 25 3 57 10 70 15 13 5 25 8 28 8 18 -1 49 16 45 24 -5 7 -120 5
-210 -5 -41 -4 -44 12 -14 69 16 30 26 55 23 55 -4 0 -1 7 6 15 7 8 20 28 29
44 31 54 56 91 62 91 3 0 11 -10 17 -22 6 -13 23 -41 36 -63 28 -45 88 -164
92 -181 1 -6 13 -35 27 -65 13 -30 33 -75 43 -101 11 -28 25 -48 34 -48 12 0
12 2 2 8 -7 5 -15 22 -18 38 -3 16 -21 76 -40 134 -30 91 -54 143 -147 325
-20 40 -22 41 -36 18z"/>
<path d="M1783 1052 c-29 -15 -77 -40 -108 -56 -30 -15 -55 -32 -55 -36 0 -5
-9 -12 -21 -15 -29 -10 -139 -84 -139 -95 0 -40 14 -35 116 34 58 39 124 83
147 99 23 15 45 34 50 42 4 9 12 13 16 11 5 -3 19 6 31 19 29 31 27 31 -37 -3z"/>
<path d="M1800 929 c-257 -143 -310 -178 -308 -204 3 -29 6 -30 36 -9 12 8 22
12 22 9 0 -3 10 3 22 15 12 11 25 20 30 20 4 0 23 14 43 31 19 17 35 27 35 23
0 -5 4 -4 8 1 10 13 89 75 97 75 3 0 11 5 18 10 7 6 23 19 37 29 42 32 18 32
-40 0z"/>
<path d="M1362 694 c-12 -8 -22 -12 -22 -8 0 4 -9 -1 -19 -10 -11 -10 -25 -19
-33 -20 -7 -1 -35 -14 -63 -28 -146 -76 -189 -99 -202 -109 -7 -6 -13 -8 -13
-4 0 3 -15 -2 -32 -13 -18 -11 -60 -34 -93 -52 -33 -18 -83 -46 -112 -61 -90
-50 -191 -99 -203 -99 -7 0 -3 14 10 35 12 19 18 35 15 35 -4 0 -3 6 3 13 24
30 92 257 77 257 -5 0 -45 -85 -45 -95 0 -16 -92 -195 -116 -227 -77 -100 -86
-125 -49 -134 22 -5 93 25 128 54 9 8 17 12 17 8 0 -4 12 2 26 13 15 12 32 21
39 21 6 0 20 9 30 20 10 11 22 20 28 20 5 0 22 9 38 21 16 11 29 17 29 12 0
-4 4 -3 8 3 4 6 57 40 117 74 61 35 117 69 126 77 8 7 23 13 32 13 9 0 17 4
17 8 0 5 12 15 28 23 34 18 286 160 291 165 14 12 -38 1 -57 -12z"/>
<path d="M1476 689 c10 -12 46 -41 79 -65 33 -24 66 -49 72 -54 7 -6 16 -11
20 -11 5 0 15 -6 23 -14 25 -22 124 -87 146 -95 32 -13 40 25 11 46 -51 35
-134 86 -246 150 -20 11 -53 30 -74 42 -47 28 -55 28 -31 1z"/>
<path d="M1442 581 c-13 -8 57 -66 139 -116 18 -11 43 -27 54 -35 100 -71 161
-106 167 -96 15 22 7 43 -19 55 -16 7 -54 30 -85 52 -32 21 -61 39 -65 39 -3
0 -14 7 -24 16 -9 8 -24 16 -31 18 -8 1 -27 12 -42 24 -16 12 -33 22 -39 22
-6 0 -18 7 -26 14 -10 9 -22 12 -29 7z"/>
</g>
</svg>
