<?xml version="1.0" standalone="no"?>
<!DOCTYPE svg PUBLIC "-//W3C//DTD SVG 20010904//EN"
 "http://www.w3.org/TR/2001/REC-SVG-20010904/DTD/svg10.dtd">
<svg version="1.0" xmlns="http://www.w3.org/2000/svg"
 width="300.000000pt" height="132.000000pt" viewBox="0 0 300.000000 132.000000"
 preserveAspectRatio="xMidYMid meet">
<metadata>
Created by potrace 1.16, written by Peter Selinger 2001-2019
</metadata>
<g transform="translate(0.000000,132.000000) scale(0.100000,-0.100000)"
fill="#000000" stroke="none">
<path d="M2630 1106 c-8 -8 -107 -70 -220 -138 -113 -69 -239 -145 -281 -171
-42 -26 -82 -47 -89 -47 -6 0 -108 48 -226 107 -206 102 -215 106 -229 87 -13
-18 -10 -21 48 -47 34 -16 132 -56 217 -89 85 -34 159 -64 164 -69 8 -7 -64
-57 -140 -96 -39 -20 -50 -21 -135 -13 -52 5 -149 10 -215 10 -99 0 -123 -3
-128 -15 -4 -13 24 -15 200 -17 l204 -3 -96 -60 c-95 -58 -116 -82 -71 -78 23
1 31 6 251 149 71 46 133 84 138 84 13 0 231 -111 249 -126 9 -8 25 -16 36
-18 18 -4 46 -16 251 -112 52 -24 97 -44 101 -44 5 0 20 -9 35 -21 l27 -21 -6
63 c-3 35 -10 195 -15 354 -6 160 -13 302 -16 318 -6 30 -31 36 -54 13z m4
-61 c2 -22 13 -122 22 -223 l17 -183 -34 -29 c-19 -17 -55 -44 -81 -61 -26
-18 -45 -36 -42 -41 8 -12 38 7 102 65 l57 51 6 -44 c4 -25 10 -78 14 -118 l7
-74 -68 38 c-38 20 -98 53 -134 73 -36 20 -82 45 -103 56 -20 11 -36 24 -34
29 2 5 52 45 113 88 60 43 123 93 139 110 37 38 23 30 -83 -45 -46 -32 -93
-64 -105 -71 -12 -6 -41 -24 -64 -39 l-41 -28 -41 21 c-23 11 -41 24 -41 29 0
5 26 26 58 47 64 43 290 223 311 248 24 29 3 17 -86 -48 -130 -96 -321 -226
-330 -226 -18 0 -93 46 -90 55 2 5 107 80 234 165 126 85 243 165 259 177 16
12 30 21 31 20 1 -1 4 -20 7 -42z"/>
<path d="M345 955 c-25 -11 -27 -14 -12 -20 15 -6 17 -23 17 -153 0 -177 19
-473 31 -486 5 -6 9 -1 9 12 0 25 1 26 34 11 22 -10 56 4 333 144 169 85 321
161 336 170 27 14 33 13 105 -20 63 -28 290 -118 377 -148 l20 -7 -20 14 c-11
9 -85 48 -165 88 -80 39 -153 76 -162 81 -10 5 -23 9 -30 9 -7 0 -23 8 -36 18
l-23 18 43 24 c80 44 358 223 354 227 -5 6 -255 -125 -365 -190 l-84 -50 -51
17 c-28 10 -76 28 -106 41 -113 48 -566 217 -573 214 -1 0 -15 -7 -32 -14z
m195 -96 c212 -74 547 -179 575 -179 2 0 2 -7 -1 -14 -3 -8 -29 -22 -57 -32
-86 -27 -333 -132 -496 -210 -84 -41 -157 -74 -162 -74 -4 0 -6 8 -4 18 1 10
7 69 11 132 4 63 9 117 9 120 1 3 5 65 10 138 5 86 11 132 19 132 6 -1 49 -14
96 -31z"/>
<path d="M570 752 c0 -5 9 -17 20 -27 25 -23 25 -27 -1 -43 -17 -11 -24 -10
-50 13 -17 14 -36 22 -42 18 -6 -4 2 -17 23 -35 33 -27 33 -29 17 -45 -17 -17
-19 -17 -49 0 -22 12 -34 15 -42 7 -6 -6 -6 -10 0 -10 6 0 19 -6 30 -14 19
-14 19 -15 -5 -40 -19 -20 -21 -26 -9 -26 9 0 21 7 28 15 7 8 18 15 26 15 22
0 27 -20 9 -40 -22 -24 -1 -38 24 -16 10 10 25 14 35 10 15 -6 15 -9 -5 -30
-18 -19 -19 -24 -7 -24 9 0 21 7 28 15 11 14 15 14 36 0 14 -9 24 -11 24 -5 0
6 -7 13 -15 16 -21 9 -19 19 9 33 19 11 28 11 47 1 l24 -13 -19 22 c-20 21
-20 22 1 42 17 17 24 19 42 10 11 -7 21 -8 21 -4 -1 14 -27 43 -39 43 -6 0
-16 9 -23 20 -7 11 -18 20 -24 20 -6 0 -17 7 -24 15 -10 13 -10 19 5 35 10 11
13 20 8 20 -6 0 -16 -7 -23 -15 -11 -13 -16 -12 -40 5 -31 22 -40 25 -40 12z
m84 -77 c18 -14 18 -15 -5 -34 -22 -18 -25 -18 -42 -4 -16 15 -16 17 -1 35 20
21 23 22 48 3z m41 -73 c-15 -7 -34 -11 -42 -7 -14 5 -12 9 7 30 22 24 24 24
42 8 18 -16 18 -17 -7 -31z m-105 18 c23 -14 -10 -44 -39 -35 -17 5 -19 10
-11 26 12 21 27 24 50 9z m55 -41 c4 -5 -1 -19 -11 -30 -13 -15 -20 -16 -31
-8 -11 10 -11 15 3 30 19 22 30 24 39 8z"/>
<path d="M1365 730 c11 -5 117 -8 235 -8 145 1 195 3 155 8 -85 11 -415 11
-390 0z"/>
</g>
</svg>
