<?xml version="1.0" standalone="no"?>
<!DOCTYPE svg PUBLIC "-//W3C//DTD SVG 20010904//EN"
 "http://www.w3.org/TR/2001/REC-SVG-20010904/DTD/svg10.dtd">
<svg version="1.0" xmlns="http://www.w3.org/2000/svg"
 width="122.000000pt" height="74.000000pt" viewBox="0 0 122.000000 74.000000"
 preserveAspectRatio="xMidYMid meet">
<metadata>
Created by potrace 1.16, written by Peter Selinger 2001-2019
</metadata>
<g transform="translate(0.000000,74.000000) scale(0.100000,-0.100000)"
fill="#000000" stroke="none">
<path d="M207 718 c3 -13 10 -29 15 -35 7 -9 0 -41 -21 -100 -17 -49 -33 -97
-35 -108 -3 -11 -12 -40 -20 -64 -19 -53 -12 -69 8 -20 8 19 32 75 54 124 21
50 45 107 51 128 l13 37 176 1 c97 1 188 3 202 4 14 2 104 4 200 5 96 1 193 5
215 9 l40 7 -60 7 c-33 4 -166 9 -295 12 -129 3 -305 7 -392 10 l-156 6 5 -23z"/>
<path d="M1150 547 c0 -235 12 -481 21 -437 4 19 11 162 15 318 l7 282 -22 0
c-21 0 -21 -3 -21 -163z"/>
<path d="M637 588 c-26 -35 -52 -81 -58 -103 -10 -40 -32 -95 -67 -167 -2 -5
1 -8 5 -8 5 0 17 16 27 35 22 41 36 45 36 11 0 -13 16 -54 36 -91 l35 -69 -18
-33 -17 -33 -186 6 -185 6 -30 33 c-16 18 -58 65 -92 104 -34 39 -65 66 -69
60 -5 -9 90 -118 153 -174 12 -11 23 -31 25 -45 l3 -25 178 -3 c175 -2 177 -3
178 -25 l0 -22 11 23 c10 19 19 22 70 22 51 0 61 -3 65 -20 3 -11 10 -20 15
-20 6 0 8 8 5 19 -4 16 4 19 77 25 44 3 109 6 143 6 34 0 65 5 68 10 4 6 -42
10 -132 10 -161 0 -179 4 -187 36 -4 13 -11 24 -17 24 -7 0 -9 -10 -5 -25 6
-23 3 -25 -25 -25 -24 0 -30 3 -25 16 3 9 6 18 6 20 0 3 5 2 10 -1 16 -10 12
2 -24 77 -38 75 -62 167 -53 192 5 12 20 16 57 16 50 0 50 0 51 -32 3 -200 12
-242 19 -93 l5 120 78 6 c107 9 109 19 4 19 l-87 0 0 90 c0 81 -2 90 -18 90
-11 0 -38 -26 -65 -62z m63 -43 l0 -75 -50 0 c-27 0 -50 2 -50 5 0 24 77 145
92 145 4 0 8 -34 8 -75z"/>
</g>
</svg>
