<?xml version="1.0" standalone="no"?>
<!DOCTYPE svg PUBLIC "-//W3C//DTD SVG 20010904//EN"
 "http://www.w3.org/TR/2001/REC-SVG-20010904/DTD/svg10.dtd">
<svg version="1.0" xmlns="http://www.w3.org/2000/svg"
 width="202.000000pt" height="164.000000pt" viewBox="0 0 202.000000 164.000000"
 preserveAspectRatio="xMidYMid meet">
<metadata>
Created by potrace 1.16, written by Peter Selinger 2001-2019
</metadata>
<g transform="translate(0.000000,164.000000) scale(0.100000,-0.100000)"
fill="#000000" stroke="none">
<path d="M907 1589 c-17 -19 -15 -25 47 -163 35 -80 104 -208 156 -291 51 -81
95 -156 97 -165 5 -17 -147 -310 -170 -328 -7 -5 -145 -17 -307 -26 -162 -10
-305 -20 -317 -23 -18 -4 -25 1 -33 23 -6 15 -29 63 -50 106 -22 43 -40 83
-40 89 0 9 20 34 148 181 83 96 40 71 -63 -36 -58 -60 -107 -107 -110 -105
-16 16 -104 202 -100 210 4 5 30 9 58 9 29 0 81 4 117 9 67 10 121 14 370 31
251 17 300 22 300 33 0 11 -738 3 -837 -9 -48 -6 -51 -9 -56 -38 -4 -24 9 -57
59 -154 l65 -123 -53 -52 c-123 -121 -142 -145 -128 -162 7 -8 15 -15 19 -15
3 0 44 43 91 95 47 52 88 95 92 95 8 0 108 -167 108 -180 0 -4 -51 -11 -112
-14 -170 -10 -212 -16 -220 -29 -11 -17 -10 -67 1 -67 5 0 78 9 162 20 85 11
206 27 269 35 254 33 543 65 547 61 3 -3 -17 -47 -45 -98 -53 -99 -136 -303
-148 -362 l-6 -36 30 11 c22 7 35 23 50 57 11 26 54 128 96 226 80 190 101
230 116 221 5 -3 11 -1 15 5 3 5 -1 10 -9 10 -9 0 -16 2 -16 4 0 15 119 281
128 284 5 1 19 -14 31 -34 32 -53 37 -35 7 25 -14 28 -26 57 -26 65 0 8 -4 16
-9 18 -10 4 -252 488 -243 488 3 0 40 -22 81 -49 42 -26 171 -108 286 -181
116 -73 221 -140 235 -149 14 -9 32 -20 42 -26 26 -16 121 -74 142 -88 133
-83 159 -97 164 -93 3 3 3 7 1 9 -2 2 -22 17 -44 33 -22 16 -44 33 -50 37 -27
21 -442 310 -598 417 -98 66 -207 141 -242 166 -35 24 -67 44 -72 43 -4 0 -16
-9 -26 -20z"/>
<path d="M1825 774 c-49 -36 -135 -97 -190 -135 -370 -258 -765 -547 -765
-560 0 -4 8 -17 19 -30 l18 -23 44 35 c113 88 485 381 564 444 48 39 145 113
214 167 142 109 211 167 196 167 -5 0 -50 -29 -100 -65z"/>
</g>
</svg>
