<?xml version="1.0" standalone="no"?>
<!DOCTYPE svg PUBLIC "-//W3C//DTD SVG 20010904//EN"
 "http://www.w3.org/TR/2001/REC-SVG-20010904/DTD/svg10.dtd">
<svg version="1.0" xmlns="http://www.w3.org/2000/svg"
 width="77.000000pt" height="105.000000pt" viewBox="0 0 77.000000 105.000000"
 preserveAspectRatio="xMidYMid meet">
<metadata>
Created by potrace 1.16, written by Peter Selinger 2001-2019
</metadata>
<g transform="translate(0.000000,105.000000) scale(0.100000,-0.100000)"
fill="#000000" stroke="none">
<path d="M251 955 c-40 -13 -79 -29 -85 -36 -8 -9 -7 -11 5 -6 9 3 65 13 125
22 107 17 203 16 240 -2 10 -5 39 -20 62 -32 24 -12 45 -21 47 -19 13 13 -12
46 -46 61 -102 44 -234 49 -348 12z"/>
<path d="M539 899 c0 -2 -3 -41 -6 -86 -5 -74 -3 -83 12 -83 15 0 16 9 11 82
-4 45 -9 84 -11 87 -3 2 -5 2 -6 0z"/>
<path d="M130 785 c-1 -38 -3 -88 -5 -110 -2 -22 -6 -145 -11 -272 -6 -212 -5
-233 10 -233 18 0 17 -14 21 390 1 113 -1 225 -5 250 -7 43 -8 42 -10 -25z"/>
<path d="M636 799 c-3 -13 -7 -91 -10 -174 -20 -518 -8 -462 -105 -491 -44
-13 -81 -15 -171 -11 -63 3 -130 11 -148 17 -44 16 -53 5 -11 -13 134 -57 266
-64 374 -21 36 15 70 35 76 46 10 19 15 655 5 665 -3 3 -7 -5 -10 -18z"/>
<path d="M205 720 c-27 -5 2 -8 88 -9 79 0 127 3 127 9 0 11 -152 11 -215 0z"/>
<path d="M509 506 c-3 -3 -64 -6 -135 -7 -72 0 -137 -5 -145 -10 -8 -5 58 -9
169 -9 115 0 182 4 182 10 0 6 -9 10 -19 10 -11 0 -26 2 -33 5 -8 3 -16 3 -19
1z"/>
<path d="M369 419 c-13 -205 -13 -249 -1 -249 6 0 13 12 13 28 3 48 -3 227 -7
231 -2 2 -4 -2 -5 -10z"/>
</g>
</svg>
