<?xml version="1.0" standalone="no"?>
<!DOCTYPE svg PUBLIC "-//W3C//DTD SVG 20010904//EN"
 "http://www.w3.org/TR/2001/REC-SVG-20010904/DTD/svg10.dtd">
<svg version="1.0" xmlns="http://www.w3.org/2000/svg"
 width="187.000000pt" height="231.000000pt" viewBox="0 0 187.000000 231.000000"
 preserveAspectRatio="xMidYMid meet">
<metadata>
Created by potrace 1.16, written by Peter Selinger 2001-2019
</metadata>
<g transform="translate(0.000000,231.000000) scale(0.100000,-0.100000)"
fill="#000000" stroke="none">
<path d="M1640 2245 c0 -19 5 -35 10 -35 6 0 10 -7 10 -15 0 -11 -11 -15 -40
-15 -23 0 -40 -5 -40 -11 0 -7 -10 -9 -25 -7 -17 4 -25 1 -25 -9 0 -10 -6 -12
-20 -8 -11 3 -20 3 -20 -2 0 -16 -48 -31 -60 -19 -7 7 -13 7 -18 1 -11 -16
-50 -35 -72 -35 -11 0 -20 -4 -20 -10 0 -5 -7 -10 -15 -10 -8 0 -15 -4 -15
-10 0 -5 -9 -10 -19 -10 -11 0 -22 -6 -24 -12 -4 -10 -6 -10 -6 0 -1 13 -31
17 -31 5 0 -13 -50 -32 -66 -26 -8 3 -14 0 -14 -6 0 -6 -9 -11 -20 -11 -11 0
-20 -5 -20 -11 0 -5 -8 -9 -17 -8 -31 3 -38 -1 -23 -12 12 -8 10 -9 -7 -4 -14
4 -32 0 -45 -9 -12 -9 -32 -16 -44 -16 -11 0 -24 -3 -28 -7 -4 -5 -11 -8 -14
-9 -4 0 -14 -3 -22 -6 -20 -8 -82 -28 -86 -28 -2 0 -1 7 3 16 5 13 2 15 -17 9
-20 -6 -22 -4 -17 14 5 21 -8 31 -15 11 -2 -6 -18 3 -35 20 -18 18 -37 29 -42
26 -5 -3 -22 -1 -38 6 -30 13 -112 11 -128 -3 -6 -4 -20 -8 -30 -7 -20 0 -61
-13 -123 -39 -24 -11 -37 -12 -46 -3 -10 8 -15 7 -19 -4 -3 -8 -23 -18 -44
-22 -21 -4 -40 -10 -43 -13 -3 -3 -16 -12 -29 -19 -20 -12 -25 -12 -32 0 -7
10 -9 10 -9 1 0 -7 -6 -13 -14 -13 -28 0 -65 -26 -56 -40 6 -10 12 -11 22 -2
8 6 25 8 39 5 21 -6 22 -5 11 9 -11 14 -10 16 7 11 12 -3 27 -1 34 5 6 5 40
13 74 17 35 4 60 11 57 16 -5 9 23 14 60 10 11 -1 22 2 25 6 16 21 49 31 61
20 10 -9 14 -9 17 1 6 15 43 16 43 2 0 -7 6 -7 20 0 11 6 20 7 20 3 0 -4 4 -2
9 6 6 10 13 11 29 2 11 -6 34 -11 51 -11 17 0 31 -4 31 -10 0 -5 7 -10 16 -10
8 0 12 -4 9 -10 -3 -6 5 -10 19 -10 19 0 24 -4 19 -16 -5 -13 -2 -15 15 -9 13
4 22 2 22 -4 0 -6 7 -11 15 -11 8 0 15 5 15 10 0 6 7 10 15 10 8 0 15 4 15 10
0 5 13 7 29 4 16 -4 32 -1 35 5 4 6 23 11 42 11 19 0 34 5 34 10 0 6 9 10 20
10 11 0 20 5 20 11 0 8 4 8 14 0 11 -9 16 -9 21 -1 4 7 18 9 31 6 13 -4 24 -3
24 1 0 5 14 14 32 22 24 11 33 11 36 3 2 -7 8 -12 13 -12 6 0 7 5 4 10 -3 6 3
10 14 10 12 0 21 5 21 10 0 6 12 10 28 10 15 1 38 7 51 14 13 7 33 11 44 8 14
-3 18 -1 13 6 -5 8 1 12 16 13 68 3 93 8 96 18 2 6 15 11 28 11 14 0 22 4 19
10 -3 6 3 10 15 10 22 0 60 19 72 35 5 6 8 6 8 -1 0 -15 -60 -74 -75 -74 -6 0
-17 -9 -25 -20 -8 -11 -22 -20 -32 -20 -10 0 -18 -6 -18 -14 0 -9 -7 -12 -20
-9 -14 4 -20 0 -20 -11 0 -10 -5 -14 -10 -11 -6 3 -13 -1 -16 -9 -3 -9 -11
-16 -18 -16 -6 0 -35 -23 -64 -50 -30 -28 -58 -50 -63 -50 -5 0 -9 -4 -9 -10
0 -5 -7 -10 -15 -10 -8 0 -15 -4 -15 -10 0 -5 -9 -10 -20 -10 -11 0 -19 -6
-18 -12 2 -7 -3 -12 -9 -10 -7 1 -13 -5 -13 -13 0 -9 -9 -15 -21 -15 -14 0
-19 -5 -16 -14 4 -10 0 -12 -14 -9 -10 3 -19 0 -19 -6 0 -6 -6 -11 -13 -11
-19 0 -81 -67 -69 -74 5 -3 15 1 22 9 7 8 16 12 21 9 5 -3 9 2 9 12 0 11 6 15
19 11 15 -3 18 -1 14 11 -5 12 -2 14 11 9 11 -5 25 2 40 18 13 14 30 25 37 25
8 0 21 9 29 20 8 11 22 20 32 20 10 0 17 6 16 13 -2 7 6 11 21 9 15 -2 21 0
17 7 -4 7 1 11 13 11 12 0 21 5 21 10 0 6 5 10 10 10 6 0 23 11 38 25 15 14
39 31 54 37 15 7 24 16 22 20 -3 4 6 8 20 8 19 0 24 4 20 15 -5 11 -2 13 11 9
10 -4 21 -1 25 7 12 18 16 11 24 -38 4 -26 2 -43 -4 -43 -5 0 -1 -15 9 -34 13
-22 16 -37 9 -44 -6 -6 -5 -17 4 -31 11 -18 11 -23 -2 -31 -10 -6 -11 -10 -2
-10 6 0 12 -9 12 -19 0 -11 6 -21 13 -24 9 -3 9 -7 -1 -19 -9 -12 -10 -18 -2
-23 6 -4 10 -14 9 -23 -3 -30 1 -37 11 -22 5 8 13 11 17 6 4 -4 0 -13 -9 -20
-11 -8 -14 -17 -7 -27 13 -20 11 -29 -6 -29 -8 0 -15 -5 -15 -11 0 -6 -7 -8
-16 -5 -9 4 -28 -1 -41 -10 -14 -8 -31 -13 -39 -10 -8 3 -24 0 -35 -7 -17 -10
-22 -9 -32 8 -6 11 -12 34 -14 50 -1 17 -4 50 -7 75 -3 25 -7 64 -8 88 -1 23
-6 42 -11 42 -4 0 -6 4 -3 9 10 16 -5 41 -25 41 -21 0 -25 -15 -6 -24 10 -5
10 -7 0 -12 -15 -7 -17 -31 -4 -36 6 -1 12 -31 14 -64 2 -34 7 -67 11 -73 4
-6 4 -21 0 -34 -6 -18 -5 -20 8 -10 12 11 14 7 14 -25 -1 -42 -16 -63 -43 -60
-38 3 -74 -2 -69 -10 3 -5 -16 -8 -42 -7 -26 1 -55 -3 -65 -9 -13 -8 -20 -8
-26 3 -6 9 -10 10 -12 2 -3 -7 -24 -12 -49 -13 -25 0 -49 -5 -53 -12 -6 -8
-10 -8 -14 2 -6 14 -33 16 -33 2 0 -5 -8 -10 -17 -10 -13 0 -14 -3 -5 -12 8
-8 15 -8 27 2 10 8 15 9 15 1 0 -6 9 -11 20 -11 11 0 20 5 20 11 0 8 4 8 15
-1 8 -6 23 -9 36 -5 13 5 25 2 29 -6 7 -10 12 -10 26 2 13 11 18 11 21 2 5
-15 33 -17 33 -3 0 14 27 12 34 -2 5 -10 7 -10 12 0 7 14 44 16 44 2 0 -5 5
-10 11 -10 5 0 7 5 4 10 -4 6 5 10 19 10 14 0 26 5 26 11 0 6 8 3 17 -6 15
-16 18 -16 28 -1 7 8 16 12 21 7 13 -12 85 -1 78 11 -4 6 -1 8 7 6 16 -6 69
22 69 35 0 5 7 4 16 -4 9 -8 18 -9 22 -3 11 16 63 35 74 27 8 -4 9 0 5 11 -6
14 -3 16 13 11 11 -4 20 -2 20 4 0 6 7 11 15 11 7 0 18 8 24 17 5 10 13 14 17
10 5 -4 3 -17 -4 -27 -8 -14 -9 -20 -1 -20 6 0 10 -10 9 -22 -5 -55 0 -77 15
-72 9 4 15 0 15 -10 0 -10 -6 -13 -15 -10 -10 4 -15 0 -15 -15 0 -12 4 -21 10
-21 19 0 28 36 24 93 -2 34 0 57 6 57 6 0 5 8 -2 20 -11 17 -10 22 2 31 11 8
12 12 3 16 -7 2 -13 13 -13 23 0 10 6 21 13 23 8 4 9 8 1 14 -12 9 -11 245 2
426 6 88 5 99 -12 111 -15 11 -20 11 -33 -2 -13 -12 -16 -42 -17 -149 0 -73
-3 -135 -7 -139 -3 -3 0 -15 6 -25 10 -16 9 -22 -3 -30 -11 -8 -12 -12 -2 -16
8 -3 12 -28 12 -73 0 -38 4 -72 10 -75 6 -4 5 -13 -2 -25 -9 -14 -9 -22 0 -32
8 -11 6 -17 -9 -27 -19 -11 -20 -10 -14 8 3 11 1 23 -7 27 -6 4 -14 2 -16 -4
-2 -7 -12 -12 -23 -12 -10 0 -18 -6 -17 -12 2 -8 -6 -12 -19 -10 -13 2 -23 -2
-23 -7 0 -6 -4 -11 -9 -11 -12 0 -29 107 -35 218 0 12 -4 22 -8 22 -3 0 -4 8
-1 19 3 10 0 22 -7 26 -8 5 -8 10 1 21 9 11 8 18 -2 31 -11 13 -11 17 -1 20
14 5 16 33 2 33 -5 0 -10 7 -10 15 0 8 -7 15 -15 15 -8 0 -15 2 -15 5 0 8 39
45 48 45 4 0 18 10 32 23 14 13 31 22 38 19 6 -2 12 4 12 13 0 11 5 15 15 11
9 -3 24 3 35 14 17 17 18 23 8 40 -7 11 -16 20 -20 20 -5 0 -8 9 -8 21 0 11
-4 17 -10 14 -6 -4 -10 5 -10 19 0 14 -4 26 -10 26 -5 0 -10 5 -10 11 0 11
-24 39 -34 39 -3 0 -6 -16 -6 -35z"/>
<path d="M20 1830 c0 -5 9 -14 20 -20 22 -12 27 -1 8 18 -14 14 -28 16 -28 2z"/>
<path d="M93 1735 c-18 -20 -18 -20 27 -66 24 -25 46 -39 55 -36 15 6 31 -8
18 -16 -5 -2 -2 -2 5 0 8 2 19 0 25 -4 17 -10 87 -11 93 -1 3 5 12 3 21 -3 12
-10 16 -10 23 1 4 7 26 13 49 13 23 0 41 4 41 8 0 5 18 9 40 9 22 0 40 3 40 8
0 11 95 31 119 25 27 -7 27 1 0 28 -15 15 -24 18 -32 10 -6 -6 -20 -11 -31
-11 -11 0 -36 -5 -55 -11 -20 -6 -48 -14 -64 -19 -15 -5 -25 -5 -22 0 3 5 1
11 -5 15 -5 3 -10 0 -10 -8 0 -18 -50 -29 -67 -15 -9 7 -18 6 -30 -3 -13 -11
-17 -11 -20 -1 -3 6 -11 12 -18 12 -7 0 -15 -6 -18 -12 -3 -10 -7 -10 -20 0
-9 8 -22 12 -29 9 -13 -5 -70 33 -99 65 -19 21 -20 21 -36 3z m487 -55 c0 -5
-2 -10 -4 -10 -3 0 -8 5 -11 10 -3 6 -1 10 4 10 6 0 11 -4 11 -10z"/>
<path d="M718 1708 c12 -12 24 -19 28 -15 3 3 -1 13 -9 22 -9 8 -21 15 -29 15
-7 0 -4 -9 10 -22z"/>
<path d="M665 1700 c3 -5 13 -10 21 -10 8 0 14 5 14 10 0 6 -9 10 -21 10 -11
0 -17 -4 -14 -10z"/>
<path d="M1410 1374 c0 -8 5 -12 10 -9 6 3 10 10 10 16 0 5 -4 9 -10 9 -5 0
-10 -7 -10 -16z"/>
<path d="M830 1360 c0 -5 -20 -10 -44 -10 -25 0 -48 -4 -51 -10 -4 -6 -13 -5
-26 3 -16 10 -21 9 -29 -3 -8 -13 -11 -12 -24 5 -13 19 -15 19 -21 3 -6 -15
-15 -17 -47 -12 -29 5 -43 3 -49 -7 -8 -12 -10 -12 -18 0 -7 11 -13 12 -23 4
-7 -6 -33 -10 -58 -9 -25 2 -83 -2 -130 -9 -47 -7 -91 -10 -98 -8 -7 3 -19 -1
-28 -8 -13 -10 -17 -10 -26 2 -7 11 -11 11 -15 2 -2 -8 -22 -13 -44 -13 -21 0
-39 -4 -39 -10 0 -5 5 -10 10 -10 6 0 10 -7 10 -15 0 -8 -4 -15 -10 -15 -15 0
-12 -19 5 -36 8 -9 15 -11 15 -5 0 6 9 11 20 11 11 0 20 5 20 10 0 14 28 12
33 -2 3 -10 7 -10 20 0 9 8 21 11 27 7 6 -4 23 -2 38 4 15 6 52 13 82 16 102
9 140 17 140 29 0 6 7 3 14 -7 12 -16 17 -17 36 -5 18 10 24 10 27 1 3 -10 8
-9 20 2 8 8 19 13 24 10 5 -4 9 -1 9 5 0 8 9 10 24 6 14 -3 27 -2 30 3 3 4 18
6 33 4 22 -4 25 -2 13 6 -12 9 -10 11 10 11 45 0 65 2 80 7 8 4 19 7 23 7 4 1
12 8 17 16 9 13 11 13 19 0 6 -8 13 -11 17 -8 3 4 -1 14 -9 23 -18 17 -27 19
-27 5z"/>
<path d="M1813 1326 c4 -10 1 -13 -9 -9 -18 7 -18 -14 0 -33 20 -20 22 -18 23
21 1 19 -4 35 -9 35 -6 0 -8 -7 -5 -14z"/>
<path d="M1660 1265 c6 -7 -17 -10 -68 -9 -43 1 -83 -3 -90 -9 -10 -8 -16 -7
-23 4 -6 10 -11 11 -16 3 -10 -15 -43 -19 -67 -9 -12 5 -21 3 -26 -5 -7 -11
-11 -11 -24 -1 -13 11 -19 11 -31 1 -12 -10 -19 -10 -27 -2 -8 8 -16 7 -31 -1
-15 -9 -21 -9 -24 1 -10 26 -22 10 -19 -25 2 -36 4 -38 44 -44 32 -4 42 -2 45
10 4 13 5 13 6 -1 1 -19 31 -26 31 -8 0 14 28 12 33 -2 3 -10 7 -10 18 -1 8 7
24 12 34 11 11 0 35 5 53 11 78 27 92 29 92 18 0 -8 3 -8 9 1 4 7 32 15 62 17
32 2 58 10 65 19 7 11 14 12 21 5 7 -7 17 -7 32 3 11 7 21 15 21 18 0 3 -29 6
-64 6 -43 0 -62 -4 -56 -11z"/>
<path d="M50 1065 c0 -20 44 -75 59 -75 6 0 11 -4 11 -10 0 -5 9 -10 21 -10
12 0 17 -4 13 -11 -3 -6 1 -10 12 -9 11 1 21 1 24 0 14 -8 149 -6 144 1 -5 9
23 14 56 11 8 -1 24 3 35 8 11 5 46 12 78 15 45 5 56 9 48 19 -9 10 0 12 39
10 28 -1 50 1 50 4 0 4 14 13 30 20 32 14 40 32 15 32 -8 0 -15 -4 -15 -10 0
-5 -7 -10 -15 -10 -8 0 -15 -4 -15 -10 0 -5 -4 -10 -10 -10 -5 0 -10 7 -10 15
0 17 -11 20 -26 6 -5 -5 -22 -12 -39 -15 -16 -3 -48 -10 -70 -15 -96 -24 -136
-30 -151 -24 -9 3 -20 0 -25 -8 -8 -12 -11 -11 -20 3 -8 15 -13 16 -30 5 -16
-10 -21 -9 -29 2 -7 12 -11 12 -24 2 -12 -10 -19 -9 -37 8 -21 19 -33 25 -50
23 -4 -1 -5 8 -2 18 6 22 -7 26 -25 8 -9 -9 -12 -9 -12 0 0 7 -7 12 -15 12 -8
0 -15 -2 -15 -5z"/>
<path d="M1395 970 c3 -5 -2 -10 -12 -10 -13 0 -15 -2 -5 -9 7 -4 13 -27 14
-49 0 -23 4 -42 9 -42 5 0 9 -7 9 -15 0 -8 -5 -15 -10 -15 -6 0 -3 -14 6 -31
8 -17 14 -40 11 -50 -3 -11 -1 -22 4 -25 5 -3 6 -17 3 -31 -5 -18 -3 -24 5
-19 11 7 16 -21 11 -71 -1 -13 3 -23 9 -23 7 0 9 -14 6 -35 -2 -19 0 -37 5
-40 5 -3 10 -16 10 -28 0 -12 1 -32 1 -45 0 -13 5 -20 11 -16 7 5 9 -1 4 -19
-3 -14 -2 -29 4 -32 6 -3 8 -16 5 -28 -7 -31 10 -56 27 -39 9 9 8 12 -7 12
-20 1 -20 1 0 16 17 13 18 17 6 36 -10 17 -10 22 0 29 10 6 10 10 0 23 -7 8
-10 20 -6 26 3 6 1 26 -5 44 -6 19 -12 54 -12 78 -1 23 -6 46 -11 49 -4 3 -9
21 -9 40 0 19 -5 40 -11 47 -6 8 -6 16 2 25 7 10 7 17 0 24 -6 6 -12 27 -14
47 -2 19 -6 40 -10 46 -4 6 -1 18 7 27 11 15 11 16 -6 10 -14 -6 -17 -4 -12 9
4 9 1 23 -5 30 -9 11 -8 18 0 28 10 12 8 17 -8 25 -25 14 -34 14 -26 1z"/>
<path d="M782 958 c-15 -15 -15 -37 3 -68 10 -19 11 -28 2 -39 -9 -11 -9 -15
1 -18 6 -3 12 -11 12 -19 0 -8 5 -14 11 -14 7 0 9 -9 5 -23 -3 -14 1 -32 9
-43 8 -10 15 -29 15 -42 0 -13 5 -33 11 -44 6 -11 13 -48 16 -82 3 -33 8 -63
13 -66 4 -3 10 -18 13 -35 3 -16 11 -50 17 -75 6 -25 12 -58 13 -75 1 -16 5
-34 8 -40 4 -5 7 -23 7 -39 0 -17 7 -35 18 -43 17 -13 17 -14 -2 -41 -11 -15
-54 -44 -95 -65 -41 -21 -67 -36 -59 -34 8 3 23 -2 32 -10 10 -9 22 -12 30 -7
7 5 20 7 29 6 9 -2 33 8 52 21 51 35 278 87 340 78 9 -1 17 1 17 6 0 24 -78
37 -109 19 -6 -4 -19 -2 -27 5 -9 8 -18 9 -22 3 -4 -5 -18 -15 -31 -22 -20
-12 -25 -12 -32 0 -7 11 -11 10 -19 -2 -8 -12 -13 -13 -29 -3 -13 8 -22 9 -26
3 -3 -6 -9 -10 -13 -10 -11 0 -32 98 -25 116 3 9 0 20 -7 24 -11 7 -11 11 -1
24 9 11 10 16 2 16 -6 0 -11 9 -11 19 0 11 -6 22 -12 24 -10 4 -9 8 2 16 12 8
12 13 2 23 -6 6 -12 23 -12 36 0 16 -4 21 -12 16 -9 -6 -9 -3 0 9 8 9 10 21 5
29 -4 7 -9 22 -10 33 -8 62 -17 102 -26 113 -8 10 -7 16 2 21 10 7 10 13 -1
32 -7 13 -17 27 -23 31 -6 5 -6 11 2 19 9 9 8 18 -8 41 -13 17 -18 36 -14 48
3 11 3 20 -2 20 -16 0 -31 48 -19 61 8 8 8 13 -1 16 -7 3 -13 13 -13 24 0 22
-11 24 -28 7z"/>
</g>
</svg>
