<?xml version="1.0" standalone="no"?>
<!DOCTYPE svg PUBLIC "-//W3C//DTD SVG 20010904//EN"
 "http://www.w3.org/TR/2001/REC-SVG-20010904/DTD/svg10.dtd">
<svg version="1.0" xmlns="http://www.w3.org/2000/svg"
 width="208.000000pt" height="120.000000pt" viewBox="0 0 208.000000 120.000000"
 preserveAspectRatio="xMidYMid meet">
<metadata>
Created by potrace 1.16, written by Peter Selinger 2001-2019
</metadata>
<g transform="translate(0.000000,120.000000) scale(0.100000,-0.100000)"
fill="#000000" stroke="none">
<path d="M80 1153 c0 -7 -10 -13 -22 -13 l-21 0 6 -317 c6 -306 21 -652 33
-741 l5 -42 406 0 c369 0 848 10 1331 28 118 5 183 4 186 -3 2 -5 6 -8 9 -5
11 10 27 358 34 717 l6 362 -96 0 c-52 0 -288 4 -524 10 -680 17 -1353 19
-1353 4z m1893 -380 c3 -186 11 -414 17 -507 6 -92 10 -170 8 -172 -3 -2 -112
1 -244 6 -131 6 -547 13 -924 16 -377 3 -696 7 -709 10 l-24 5 8 142 c4 78 11
291 14 472 l6 330 156 3 156 2 7 -377 c7 -401 14 -563 26 -563 11 0 20 184 27
578 l6 362 145 0 c154 0 815 17 1122 29 102 3 188 6 191 4 3 -1 9 -154 12
-340z"/>
<path d="M702 886 l3 -40 75 -19 c41 -10 142 -33 225 -51 l150 -31 3 -113 c2
-61 2 -112 -1 -112 -13 0 -216 -43 -334 -71 l-133 -32 0 -40 0 -40 218 7 c119
4 226 8 237 9 17 2 21 -5 25 -43 l5 -45 8 55 c4 30 7 109 7 176 l0 121 218 7
c266 8 329 20 157 29 -66 4 -169 7 -229 8 -159 2 -146 -9 -146 130 l0 119 -42
1 c-24 1 -134 4 -246 8 l-203 6 3 -39z m448 -61 l0 -65 -52 20 c-29 10 -91 30
-138 43 -196 57 -191 51 -55 57 66 4 148 7 183 8 l62 2 0 -65z m19 -414 l1
-43 -92 6 c-51 3 -140 8 -198 12 l-105 6 120 34 c66 18 152 44 190 57 l70 24
6 -26 c4 -14 7 -46 8 -70z"/>
</g>
</svg>
