<?xml version="1.0" standalone="no"?>
<!DOCTYPE svg PUBLIC "-//W3C//DTD SVG 20010904//EN"
 "http://www.w3.org/TR/2001/REC-SVG-20010904/DTD/svg10.dtd">
<svg version="1.0" xmlns="http://www.w3.org/2000/svg"
 width="69.000000pt" height="99.000000pt" viewBox="0 0 69.000000 99.000000"
 preserveAspectRatio="xMidYMid meet">
<metadata>
Created by potrace 1.16, written by Peter Selinger 2001-2019
</metadata>
<g transform="translate(0.000000,99.000000) scale(0.100000,-0.100000)"
fill="#000000" stroke="none">
<path d="M305 950 c-70 -11 -235 -75 -235 -92 0 -6 24 1 158 43 43 14 206 24
229 14 10 -4 27 -10 37 -12 11 -2 35 -13 54 -25 l35 -22 -6 25 c-4 13 -7 27
-7 30 0 9 -115 37 -170 42 -25 2 -67 1 -95 -3z"/>
<path d="M469 870 c-2 -14 -3 -55 -1 -92 3 -51 7 -68 18 -68 17 0 17 33 0 120
-9 45 -14 57 -17 40z"/>
<path d="M574 690 c14 -359 17 -437 22 -482 5 -56 -7 -68 -105 -98 -70 -22
-234 -28 -303 -11 -49 12 -49 -2 0 -18 150 -47 265 -44 368 10 68 35 90 63 80
104 -2 11 -7 81 -11 155 -4 74 -8 142 -10 150 -2 8 -7 51 -10 95 -10 135 -24
247 -31 254 -3 3 -3 -68 0 -159z"/>
<path d="M77 590 c3 -124 7 -228 9 -231 2 -3 4 -44 4 -90 2 -111 9 -149 27
-149 13 0 15 12 9 77 -3 43 -8 121 -11 173 -3 52 -8 106 -10 120 -3 14 -7 68
-10 120 -13 213 -24 202 -18 -20z"/>
<path d="M228 689 c-31 -4 -72 -12 -90 -18 -26 -7 -17 -8 42 -5 66 5 171 12
178 14 1 0 2 5 2 10 0 12 -50 11 -132 -1z"/>
<path d="M326 469 c-184 -22 -210 -29 -86 -24 229 11 301 18 297 29 -5 16 -46
15 -211 -5z"/>
<path d="M342 273 c0 -113 2 -133 15 -133 13 0 15 12 8 88 -14 169 -23 186
-23 45z"/>
</g>
</svg>
