<?xml version="1.0" standalone="no"?>
<!DOCTYPE svg PUBLIC "-//W3C//DTD SVG 20010904//EN"
 "http://www.w3.org/TR/2001/REC-SVG-20010904/DTD/svg10.dtd">
<svg version="1.0" xmlns="http://www.w3.org/2000/svg"
 width="157.000000pt" height="97.000000pt" viewBox="0 0 157.000000 97.000000"
 preserveAspectRatio="xMidYMid meet">
<metadata>
Created by potrace 1.16, written by Peter Selinger 2001-2019
</metadata>
<g transform="translate(0.000000,97.000000) scale(0.100000,-0.100000)"
fill="#000000" stroke="none">
<path d="M644 893 c-84 -87 -166 -211 -200 -299 -22 -58 -25 -79 -20 -135 3
-36 10 -78 16 -93 5 -15 8 -31 5 -36 -3 -5 -2 -10 3 -12 4 -1 23 -28 41 -58
37 -60 128 -159 176 -192 25 -18 24 -14 -11 23 -119 128 -192 259 -201 359 -7
76 24 179 81 264 51 76 173 206 194 206 8 0 99 -34 201 -76 286 -118 501 -202
501 -197 0 2 -21 13 -47 25 -60 25 -190 83 -268 118 -141 64 -362 159 -383
165 -19 6 -34 -5 -88 -62z"/>
<path d="M764 784 c-56 -60 -104 -138 -104 -171 0 -10 -14 -47 -30 -82 -17
-35 -29 -66 -27 -68 3 -2 12 12 21 31 24 51 32 51 50 1 13 -40 73 -145 83
-145 2 0 -12 31 -32 69 -38 76 -56 140 -48 172 5 18 13 20 79 17 l74 -3 4
-123 c2 -68 7 -126 10 -130 3 -3 6 54 6 126 l0 132 73 1 72 2 -67 11 c-36 6
-69 13 -72 16 -3 3 -6 45 -7 93 -2 121 -14 128 -85 51z m60 10 c3 -9 6 -49 6
-90 l0 -74 -70 0 c-38 0 -70 2 -70 4 0 28 101 176 120 176 5 0 11 -7 14 -16z"/>
<path d="M87 783 c-23 -23 5 -26 185 -19 106 4 194 9 197 12 2 2 -40 4 -95 4
-54 1 -140 3 -190 5 -50 3 -94 2 -97 -2z"/>
<path d="M1453 633 c13 -3 17 -11 14 -23 -4 -16 -2 -17 14 -7 18 11 18 13 2
25 -9 6 -24 11 -32 11 -12 -1 -11 -3 2 -6z"/>
<path d="M1410 562 c-14 -9 -41 -29 -60 -43 -19 -14 -98 -72 -175 -129 -77
-57 -166 -126 -198 -152 -32 -26 -63 -48 -68 -48 -6 0 -21 25 -35 55 -14 30
-30 55 -35 55 -17 0 -9 -24 21 -70 16 -25 30 -49 30 -55 0 -5 -39 -39 -85 -74
-47 -35 -85 -65 -85 -66 0 -1 6 -8 14 -14 11 -9 27 -1 79 41 36 29 116 94 177
143 233 187 383 310 425 347 34 31 32 35 -5 10z"/>
<path d="M25 541 c-3 -6 -3 -74 1 -150 l7 -138 101 19 c55 10 136 23 179 30
42 6 77 15 77 19 0 5 -12 6 -27 4 -31 -5 -296 -35 -312 -35 -11 0 -3 210 8
221 3 4 78 10 166 14 88 4 162 9 164 11 2 2 -52 4 -120 5 -68 0 -149 2 -180 5
-36 4 -59 2 -64 -5z"/>
<path d="M762 298 c-11 -13 -62 -126 -62 -136 0 -11 30 35 56 88 25 50 28 74
6 48z"/>
</g>
</svg>
