<?xml version="1.0" standalone="no"?>
<!DOCTYPE svg PUBLIC "-//W3C//DTD SVG 20010904//EN"
 "http://www.w3.org/TR/2001/REC-SVG-20010904/DTD/svg10.dtd">
<svg version="1.0" xmlns="http://www.w3.org/2000/svg"
 width="102.000000pt" height="106.000000pt" viewBox="0 0 102.000000 106.000000"
 preserveAspectRatio="xMidYMid meet">
<metadata>
Created by potrace 1.16, written by Peter Selinger 2001-2019
</metadata>
<g transform="translate(0.000000,106.000000) scale(0.100000,-0.100000)"
fill="#000000" stroke="none">
<path d="M225 1009 c-3 -3 -2 -17 0 -29 3 -13 7 -53 10 -89 9 -119 17 -196 21
-202 5 -9 -47 -16 -140 -18 -44 -1 -83 -4 -87 -7 -4 -2 -4 -19 0 -36 4 -18 9
-69 10 -113 1 -43 5 -83 7 -87 10 -16 20 -7 21 20 1 15 3 61 6 102 l4 75 51 6
c28 4 106 10 174 13 68 4 141 9 163 10 22 2 103 7 180 11 77 3 167 8 199 11
107 8 74 16 -56 13 l-126 -2 -54 48 c-29 26 -69 59 -88 74 -19 14 -64 54 -100
88 -85 81 -139 120 -168 119 -13 0 -25 -3 -27 -7z m135 -97 c29 -27 167 -136
214 -169 55 -39 70 -53 61 -54 -6 0 -90 -3 -188 -5 l-179 -4 7 102 c3 57 8
123 11 146 6 49 2 50 74 -16z"/>
<path d="M936 676 c10 -8 17 -38 21 -99 3 -48 9 -90 13 -92 3 -2 7 40 9 93 1
53 4 99 7 104 3 4 -11 7 -30 6 -28 -1 -32 -3 -20 -12z"/>
<path d="M963 455 c0 -8 4 -12 9 -9 5 3 6 10 3 15 -9 13 -12 11 -12 -6z"/>
<path d="M418 445 c-2 -2 -77 -6 -168 -8 -91 -3 -166 -6 -167 -6 -2 -1 -3 -11
-3 -22 0 -21 3 -22 83 -15 l82 7 -2 -133 c-1 -73 -3 -152 -4 -175 -3 -47 -1
-52 28 -58 16 -2 66 42 207 184 102 104 186 191 186 196 0 11 -92 -71 -249
-222 l-106 -102 -7 33 c-4 18 -9 57 -12 87 -6 68 -14 116 -26 151 -7 22 -5 30
8 37 15 7 151 17 367 26 131 5 300 17 305 22 2 2 -113 3 -257 2 -144 0 -263
-3 -265 -4z"/>
</g>
</svg>
