<?xml version="1.0" standalone="no"?>
<!DOCTYPE svg PUBLIC "-//W3C//DTD SVG 20010904//EN"
 "http://www.w3.org/TR/2001/REC-SVG-20010904/DTD/svg10.dtd">
<svg version="1.0" xmlns="http://www.w3.org/2000/svg"
 width="200.000000pt" height="56.000000pt" viewBox="0 0 200.000000 56.000000"
 preserveAspectRatio="xMidYMid meet">
<metadata>
Created by potrace 1.16, written by Peter Selinger 2001-2019
</metadata>
<g transform="translate(0.000000,56.000000) scale(0.100000,-0.100000)"
fill="#000000" stroke="none">
<path d="M114 529 c-3 -6 0 -16 7 -23 8 -7 45 -41 83 -77 82 -77 83 -57 2 41
-57 68 -78 82 -92 59z"/>
<path d="M46 425 c-3 -10 5 -24 22 -38 15 -12 51 -46 80 -75 30 -29 56 -51 59
-48 6 5 -1 15 -75 109 -54 67 -75 80 -86 52z"/>
<path d="M1239 406 c-9 -9 -254 -56 -290 -56 -21 0 -40 -4 -43 -9 -10 -15
-313 -5 -426 13 -153 26 -200 30 -200 17 0 -6 15 -11 33 -11 17 0 59 -7 92
-15 70 -16 282 -38 370 -38 99 0 342 40 386 63 9 5 45 11 80 14 l64 6 -65 -32
c-40 -19 -59 -33 -48 -35 28 -7 138 56 138 79 0 8 -83 12 -91 4z"/>
<path d="M1735 350 c-84 -8 -158 -25 -201 -48 -17 -9 -165 -29 -289 -39 -69
-5 -95 -12 -95 -23 0 -13 87 -13 130 1 19 6 82 13 140 16 58 3 107 8 110 12
15 23 230 75 216 53 -3 -5 1 -18 9 -28 13 -18 15 -18 42 9 30 28 68 33 123 18
l25 -7 -25 -16 c-33 -22 -159 -63 -290 -95 -103 -25 -105 -25 -138 -7 -34 18
-34 18 -51 -5 -20 -26 -1 -25 -216 -5 -69 7 -138 -2 -133 -16 5 -12 175 -100
195 -100 14 0 15 -2 4 -13 -9 -9 -58 -12 -179 -11 -141 0 -186 5 -293 27 -69
15 -154 38 -188 52 -34 13 -83 27 -108 31 -29 4 -40 9 -32 15 10 6 9 12 -5 28
-22 25 -46 27 -46 6 0 -18 -9 -19 -47 -4 -15 6 -53 17 -83 25 -30 7 -65 16
-77 19 -17 5 -23 3 -23 -7 0 -11 25 -20 83 -33 45 -10 101 -26 124 -37 23 -11
65 -25 95 -33 29 -7 87 -25 128 -40 89 -33 125 -42 243 -60 176 -27 452 -15
464 21 4 12 -30 28 -81 40 -31 7 -119 64 -111 72 7 8 114 -9 120 -19 10 -15
221 0 325 22 180 39 363 105 374 136 8 21 -42 46 -97 49 -29 1 -92 -2 -142 -6z"/>
<path d="M296 301 c-10 -16 5 -41 24 -41 25 0 35 18 20 35 -14 17 -36 20 -44
6z"/>
<path d="M477 266 c-8 -19 1 -26 35 -26 32 0 34 5 14 26 -19 18 -42 18 -49 0z"/>
<path d="M1616 264 c-11 -28 8 -37 48 -23 41 15 47 29 12 29 -13 0 -31 3 -39
6 -8 3 -17 -2 -21 -12z"/>
<path d="M711 247 c-15 -19 -4 -27 41 -27 41 0 50 13 19 30 -27 14 -46 13 -60
-3z"/>
<path d="M880 246 c0 -20 16 -29 41 -21 16 5 18 10 8 21 -15 18 -49 18 -49 0z"/>
<path d="M616 205 c-4 -11 3 -19 20 -25 53 -21 73 -5 32 24 -28 20 -44 20 -52
1z"/>
<path d="M816 134 c-10 -25 2 -34 45 -34 45 0 50 11 14 34 -31 20 -51 20 -59
0z"/>
<path d="M925 130 c-11 -17 5 -30 36 -30 36 0 38 13 4 28 -31 14 -32 15 -40 2z"/>
<path d="M1053 88 c2 -7 9 -13 15 -12 7 1 21 2 32 3 35 2 21 21 -16 21 -24 0
-34 -4 -31 -12z"/>
</g>
</svg>
