<?xml version="1.0" standalone="no"?>
<!DOCTYPE svg PUBLIC "-//W3C//DTD SVG 20010904//EN"
 "http://www.w3.org/TR/2001/REC-SVG-20010904/DTD/svg10.dtd">
<svg version="1.0" xmlns="http://www.w3.org/2000/svg"
 width="356.000000pt" height="286.000000pt" viewBox="0 0 356.000000 286.000000"
 preserveAspectRatio="xMidYMid meet">
<metadata>
Created by potrace 1.16, written by Peter Selinger 2001-2019
</metadata>
<g transform="translate(0.000000,286.000000) scale(0.100000,-0.100000)"
fill="#000000" stroke="none">
<path d="M965 2850 c3 -5 10 -10 16 -10 5 0 9 5 9 10 0 6 -7 10 -16 10 -8 0
-12 -4 -9 -10z"/>
<path d="M1114 2836 c-15 -62 23 -86 42 -26 8 23 20 37 35 41 17 5 11 7 -23 8
-42 1 -48 -2 -54 -23z"/>
<path d="M1324 2844 c3 -9 6 -18 6 -20 0 -12 21 -1 30 16 9 18 8 20 -16 20
-20 0 -25 -4 -20 -16z"/>
<path d="M1456 2815 c-26 -65 -52 -76 -156 -64 -47 5 -89 9 -95 10 -5 0 -34
-8 -62 -19 -59 -23 -89 -19 -99 10 -4 14 -13 18 -32 16 -22 -2 -27 -8 -24 -28
3 -37 -10 -51 -56 -57 -23 -3 -47 -12 -53 -19 -6 -8 -17 -14 -24 -14 -19 0
-66 -40 -60 -51 4 -5 23 -9 44 -9 36 0 38 -2 33 -25 -2 -15 -16 -32 -33 -40
-15 -8 -31 -25 -35 -37 -4 -12 -26 -42 -50 -65 -24 -23 -44 -51 -44 -61 0 -10
-9 -27 -21 -38 -28 -26 -78 -100 -85 -128 -3 -14 1 -27 11 -36 17 -14 22 -12
94 29 25 15 39 17 57 11 17 -7 24 -6 24 3 0 7 9 29 20 50 22 41 25 68 9 84
-23 23 -5 57 42 83 56 30 103 69 112 93 8 21 52 22 87 2 35 -20 37 -19 55 15
9 17 22 30 29 30 19 0 28 -43 16 -76 -15 -38 -6 -54 30 -54 29 0 49 -11 170
-94 19 -14 45 -34 57 -46 l22 -22 33 23 c18 12 43 31 55 42 20 18 27 18 69 8
26 -7 66 -9 91 -5 42 6 47 4 75 -26 16 -18 25 -36 21 -39 -19 -13 -23 -42 -6
-48 18 -7 46 24 39 43 -2 6 11 26 31 44 26 25 46 34 79 37 25 2 44 -1 44 -7 0
-5 -20 -31 -45 -57 -36 -37 -42 -49 -31 -55 20 -11 60 6 117 50 30 23 48 45
49 58 0 29 40 86 70 101 14 7 50 12 80 11 l55 -3 -1 -52 c-2 -51 -1 -52 20
-38 19 13 26 12 62 -5 38 -19 80 -19 69 0 -14 22 17 58 74 88 72 37 71 37 71
14 0 -10 6 -27 14 -38 14 -18 16 -18 43 -3 16 10 41 15 58 12 27 -4 37 2 73
41 23 25 42 52 42 61 0 8 5 15 10 15 6 0 10 7 10 16 0 12 -5 14 -17 9 -50 -21
-58 -14 -63 60 -5 59 -3 74 14 98 12 16 29 27 43 27 32 0 87 -24 112 -49 12
-12 32 -21 45 -21 25 0 56 -32 56 -59 0 -23 -34 -90 -46 -91 -6 0 -9 -13 -6
-30 4 -25 -1 -32 -32 -51 -41 -24 -78 -85 -86 -139 -4 -27 -10 -35 -25 -35
-14 0 -21 8 -23 26 -3 24 -7 27 -65 32 -57 5 -65 4 -97 -22 -19 -15 -48 -47
-64 -70 -33 -49 -49 -58 -79 -43 -12 6 -33 13 -47 15 -14 3 -54 17 -89 32 -52
22 -68 25 -87 16 -13 -6 -38 -8 -55 -4 -31 6 -32 6 -23 -23 4 -16 7 -49 5 -74
-9 -119 -10 -115 32 -118 45 -4 67 11 67 44 0 13 5 24 10 24 6 0 10 -5 10 -12
0 -7 12 -25 27 -40 23 -24 25 -32 17 -55 -6 -18 -19 -29 -42 -35 -35 -9 -41
-30 -17 -54 8 -9 15 -34 16 -57 2 -78 4 -90 16 -94 7 -3 16 4 20 14 3 10 17
36 31 57 18 29 26 35 33 25 16 -27 108 -5 221 52 22 11 74 1 89 -17 9 -11 8
-15 -5 -20 -9 -3 -16 -15 -16 -25 0 -14 7 -19 30 -19 18 0 33 -6 36 -15 9 -23
40 -18 61 11 22 30 93 45 118 24 8 -7 36 -17 62 -21 32 -6 55 -18 70 -36 28
-32 29 -45 3 -68 -11 -10 -20 -13 -20 -8 0 14 -38 24 -46 12 -3 -5 -13 -9 -23
-9 -9 0 -33 -16 -52 -36 -18 -19 -62 -49 -97 -65 -39 -19 -67 -40 -74 -55 -9
-20 -17 -24 -37 -19 -32 6 -47 -3 -60 -38 -27 -70 6 -99 51 -45 15 18 28 39
28 46 0 7 13 12 29 12 37 0 48 -28 30 -73 -22 -57 -37 -67 -99 -67 -64 0 -106
-26 -95 -60 3 -10 1 -21 -5 -25 -16 -10 -12 -32 7 -39 9 -4 21 -2 27 4 19 19
34 10 38 -24 3 -30 0 -35 -29 -45 -26 -10 -38 -9 -62 4 -17 8 -36 15 -44 15
-8 0 -20 7 -27 15 -16 20 -69 19 -91 -1 -10 -9 -25 -14 -34 -10 -14 5 -14 9 0
37 21 40 13 63 -20 55 -29 -7 -41 10 -31 48 5 20 15 25 78 35 40 7 95 15 121
18 l49 5 -7 52 c-4 28 -9 54 -12 59 -8 14 -23 -4 -23 -28 0 -27 -25 -45 -63
-45 -14 0 -30 -6 -36 -14 -13 -15 -69 -12 -103 6 -14 7 -23 0 -43 -32 -14 -22
-25 -43 -25 -48 0 -14 -74 0 -99 19 -13 11 -30 19 -38 19 -22 0 -71 -36 -136
-101 -34 -35 -76 -64 -103 -75 -45 -17 -47 -17 -60 0 -13 18 -9 45 8 57 5 3
-27 5 -71 3 -81 -3 -102 -10 -170 -59 -44 -32 -85 -32 -116 0 -27 26 -31 40
-15 50 16 10 12 45 -5 45 -8 0 -17 -11 -21 -25 -3 -14 -10 -25 -15 -25 -5 0
-26 -11 -47 -23 -45 -29 -91 -39 -129 -28 -15 4 -41 4 -58 0 -21 -6 -43 -4
-72 7 -34 13 -51 14 -85 6 -44 -11 -118 -10 -218 3 -52 6 -57 5 -88 -24 -50
-49 -72 -38 -72 34 0 24 -6 38 -20 45 -29 15 -25 29 25 105 25 37 44 73 42 79
-2 6 -14 13 -26 14 -32 5 -85 -48 -106 -107 -10 -25 -28 -62 -41 -81 -17 -26
-25 -56 -30 -115 -5 -59 -12 -86 -26 -102 -20 -21 -20 -21 6 -38 29 -20 35
-64 12 -88 -20 -20 -21 -35 -6 -89 9 -34 17 -48 30 -48 9 0 46 34 80 76 34 41
74 80 87 85 31 12 26 29 -16 51 -43 21 -44 23 -36 47 8 27 31 27 38 0 4 -16
10 -20 24 -14 10 4 56 12 101 18 69 8 85 8 92 -4 7 -11 15 -11 45 -1 30 12 37
11 51 -3 12 -12 25 -14 52 -8 43 9 135 9 207 -1 28 -4 68 -6 90 -5 22 1 51 1
65 1 199 -8 402 -2 460 13 140 36 132 31 182 105 21 30 52 69 70 86 36 33 97
58 121 48 8 -3 18 -1 22 5 9 16 32 13 39 -4 9 -25 -96 -122 -147 -136 -23 -7
-46 -17 -52 -23 -5 -6 -22 -19 -37 -29 -36 -22 -35 -38 2 -65 35 -26 56 -28
68 -6 11 20 47 21 227 5 72 -6 156 -13 188 -15 55 -4 107 -26 107 -45 0 -16
-25 -28 -74 -35 -41 -5 -55 -13 -90 -51 -24 -25 -47 -45 -53 -45 -5 0 -15 -11
-21 -25 -13 -28 -32 -34 -32 -10 0 27 -21 15 -36 -21 -12 -28 -19 -34 -35 -29
-28 9 -87 -13 -132 -48 -32 -25 -49 -30 -95 -32 -32 -1 -87 -9 -124 -19 -37
-10 -72 -15 -78 -11 -15 9 -70 -49 -70 -74 0 -12 -4 -21 -9 -21 -12 0 -21 26
-21 60 0 31 -3 34 -41 43 -16 4 -33 1 -45 -9 -18 -15 -17 -15 14 -10 36 6 41
-3 14 -27 -20 -19 -67 -23 -77 -7 -4 7 -13 6 -27 -1 -11 -6 -35 -8 -54 -4 -24
4 -43 1 -63 -11 -42 -25 -65 -5 -56 45 9 49 33 91 50 91 8 0 15 5 15 10 0 6
-7 10 -15 10 -8 0 -15 -4 -15 -10 0 -5 -6 -10 -13 -10 -7 0 -26 -14 -42 -30
-28 -29 -68 -40 -79 -21 -3 4 -17 6 -31 4 -25 -5 -89 19 -100 37 -11 17 -54
11 -81 -12 -21 -19 -24 -28 -19 -56 8 -41 -16 -53 -48 -25 -12 10 -34 25 -50
33 -31 15 -35 34 -9 49 14 9 15 12 3 20 -12 8 -12 12 2 26 21 20 21 29 3 44
-10 8 -19 6 -39 -9 -30 -24 -60 -26 -77 -5 -7 8 -19 15 -27 15 -8 0 -12 4 -8
10 3 5 12 7 20 4 8 -3 29 5 47 19 18 13 41 27 51 30 15 6 18 16 15 54 l-3 48
-53 1 c-62 1 -82 -13 -82 -58 0 -23 -4 -29 -15 -24 -41 15 -60 -32 -30 -77 14
-22 13 -25 -25 -53 -48 -35 -56 -70 -23 -106 19 -21 9 -74 -18 -91 -10 -6 -19
-18 -19 -26 0 -8 -9 -24 -20 -36 -19 -20 -19 -23 -3 -64 14 -35 14 -44 3 -51
-7 -5 -14 -17 -15 -27 -1 -10 -8 -35 -15 -55 -11 -30 -11 -41 -2 -50 9 -9 18
-6 39 14 16 14 48 32 73 39 63 17 77 31 62 65 -11 23 -16 25 -50 20 -20 -4
-45 -16 -54 -27 -10 -12 -22 -19 -28 -17 -5 1 7 26 28 53 37 49 40 50 83 46
99 -9 94 -10 91 33 -2 29 2 44 19 63 21 21 28 23 83 17 64 -7 120 -33 130 -61
4 -9 5 -17 4 -17 -59 -35 -76 -67 -43 -80 20 -7 82 26 102 53 8 12 21 21 29
21 8 0 26 7 40 16 32 22 42 10 21 -25 -16 -27 -16 -29 7 -50 13 -12 23 -30 22
-39 -1 -14 7 -16 49 -14 28 2 52 8 53 13 2 5 23 9 46 9 23 0 51 7 62 15 27 20
51 19 91 -6 25 -16 37 -19 46 -10 8 8 17 5 34 -11 29 -27 29 -37 -2 -67 -48
-45 -24 -75 51 -64 38 5 56 14 81 40 18 18 42 33 55 33 13 0 41 7 63 15 22 8
56 14 76 15 22 0 45 8 60 21 33 29 62 39 117 39 26 1 58 7 72 15 14 8 40 14
58 15 37 0 68 14 95 41 14 15 33 19 86 19 67 0 138 20 153 44 4 6 8 26 8 44 0
31 12 48 97 139 6 7 14 31 18 54 8 46 37 79 98 110 32 17 37 24 37 55 0 24 5
36 18 40 9 3 23 9 31 13 19 9 52 105 54 156 2 35 5 40 29 43 30 4 42 25 28 52
-6 10 -10 40 -10 65 0 36 6 54 25 77 14 16 25 37 25 47 0 10 7 33 16 50 11 23
14 39 7 54 -5 12 -6 40 -3 62 4 33 9 40 27 40 38 1 48 19 28 53 -17 29 -17 31
3 60 16 22 20 38 16 60 -5 24 -2 32 15 41 17 10 19 16 11 31 -12 23 -13 63 -1
75 6 6 6 45 0 99 -5 49 -8 91 -6 92 13 13 172 36 222 32 33 -3 66 -3 73 -1 9
4 12 49 12 180 l0 176 -30 -6 c-24 -5 -30 -3 -30 10 0 13 -3 14 -12 5 -14 -14
-64 -16 -73 -2 -3 5 8 18 26 29 31 19 74 95 63 112 -10 17 -30 9 -60 -23 -16
-18 -38 -37 -47 -43 -12 -7 -18 -27 -21 -64 -2 -36 -9 -57 -20 -63 -9 -5 -16
-15 -16 -23 0 -7 -9 -16 -19 -20 -11 -3 -24 -12 -31 -20 -9 -11 -7 -16 10 -25
18 -9 25 -8 40 5 22 20 76 12 89 -13 13 -25 1 -81 -19 -92 -9 -5 -47 -12 -83
-16 -60 -6 -66 -5 -76 15 -7 12 -11 27 -10 34 3 21 -13 77 -22 77 -5 0 -18 -5
-29 -12 -23 -15 -28 -11 -36 29 -5 25 0 36 24 61 17 17 33 40 37 52 4 12 17
25 29 30 15 5 25 20 29 39 4 19 16 35 29 42 64 28 102 59 121 95 9 18 28 46
43 63 l26 31 -62 0 c-47 0 -68 -5 -87 -20 -14 -11 -34 -20 -44 -20 -24 0 -78
-47 -90 -78 -9 -24 -12 -25 -70 -18 -74 7 -100 19 -73 31 11 5 44 11 74 14 39
4 54 10 52 20 -1 7 4 24 13 37 8 13 15 26 15 29 0 10 -106 5 -117 -6 -8 -8
-13 -8 -17 0 -5 7 -90 11 -263 11 l-255 0 14 -22 c11 -16 27 -24 54 -26 21 -2
44 -8 52 -14 20 -17 -26 -35 -115 -43 -76 -6 -81 -6 -110 19 -31 26 -57 27
-67 1 -2 -7 4 -21 15 -31 10 -9 19 -20 19 -24 0 -8 -61 -30 -83 -30 -21 0 -21
1 -2 36 17 34 19 60 5 69 -5 3 -10 20 -10 36 0 24 -4 30 -17 27 -13 -2 -20
-16 -23 -48 -11 -86 -52 -121 -137 -118 -36 1 -40 2 -15 5 17 2 32 8 32 14 0
5 15 26 33 46 19 21 37 53 40 71 l7 32 -128 0 c-89 0 -132 -4 -141 -12 -6 -7
-28 -13 -47 -13 -23 0 -33 4 -29 13 6 16 -78 17 -108 0 -25 -13 -97 -12 -111
2 -6 6 -57 10 -116 10 l-105 0 -19 -45z m1521 29 c-3 -3 -12 -4 -19 -1 -8 3
-5 6 6 6 11 1 17 -2 13 -5z m-1900 -168 c0 -1 3 -16 5 -35 3 -37 -17 -59 -46
-48 -11 5 -16 19 -16 52 0 44 1 45 28 39 15 -4 28 -7 29 -8z m1211 -42 c4 -27
-24 -39 -36 -16 -5 9 -7 23 -5 30 8 20 38 9 41 -14z m399 -66 c-3 -8 -6 -5 -6
6 -1 11 2 17 5 13 3 -3 4 -12 1 -19z m-307 -68 c0 -5 -19 -10 -42 -9 -37 1
-39 2 -18 9 36 12 60 12 60 0z m-448 -34 c17 -12 17 -14 0 -30 -23 -20 -27
-20 -47 0 -14 15 -14 17 2 30 22 17 24 17 45 0z m1176 -54 c2 -7 -3 -12 -12
-12 -9 0 -16 7 -16 16 0 17 22 14 28 -4z m70 -340 c4 -23 -13 -52 -29 -52 -5
0 -9 18 -9 41 0 33 3 40 18 37 9 -2 18 -14 20 -26z m-128 -414 c0 -16 -31 -48
-47 -48 -19 0 -16 10 9 37 24 25 38 30 38 11z m-306 -444 c9 -3 16 -13 16 -20
0 -23 -29 -28 -51 -8 -19 17 -19 19 -2 25 10 4 19 8 20 8 1 1 8 -2 17 -5z
m-94 -484 c0 -6 -7 -24 -15 -40 -12 -23 -22 -30 -46 -30 -22 0 -32 -6 -38 -24
-10 -25 -37 -41 -46 -26 -12 19 38 85 79 106 47 24 66 28 66 14z m-522 -93 c3
-12 -4 -17 -22 -17 -24 0 -25 2 -14 20 15 23 31 21 36 -3z m-873 -77 c-3 -5
-17 -10 -31 -10 -13 0 -24 5 -24 10 0 6 14 10 31 10 17 0 28 -4 24 -10z m486
-76 c9 -11 10 -20 3 -32 -16 -25 -32 -25 -44 -2 -22 41 12 69 41 34z"/>
<path d="M3552 2810 c0 -14 2 -19 5 -12 2 6 2 18 0 25 -3 6 -5 1 -5 -13z"/>
<path d="M355 2780 c3 -5 10 -10 16 -10 5 0 9 5 9 10 0 6 -7 10 -16 10 -8 0
-12 -4 -9 -10z"/>
<path d="M140 2616 c0 -27 16 -44 23 -24 5 18 -3 48 -14 48 -5 0 -9 -11 -9
-24z"/>
<path d="M2446 2326 c-6 -26 1 -56 14 -56 11 0 17 29 12 58 -6 29 -18 28 -26
-2z"/>
<path d="M1700 2300 c-18 -11 -5 -27 25 -32 14 -2 21 3 23 20 4 24 -20 30 -48
12z"/>
<path d="M1530 2250 c0 -5 4 -10 9 -10 6 0 13 5 16 10 3 6 -1 10 -9 10 -9 0
-16 -4 -16 -10z"/>
<path d="M1712 2203 c2 -10 10 -18 18 -18 8 0 16 8 18 18 2 12 -3 17 -18 17
-15 0 -20 -5 -18 -17z"/>
<path d="M1088 2143 c7 -3 16 -2 19 1 4 3 -2 6 -13 5 -11 0 -14 -3 -6 -6z"/>
<path d="M3474 2069 c0 -32 -5 -45 -23 -60 -13 -10 -21 -25 -18 -33 4 -9 0
-12 -11 -9 -12 3 -21 -6 -31 -27 -18 -42 -8 -48 26 -16 33 31 30 31 87 7 40
-18 45 -23 49 -58 2 -21 4 21 5 92 l2 131 -35 -4 c-21 -3 -35 0 -35 7 0 6 -4
11 -9 11 -5 0 -8 -18 -7 -41z"/>
<path d="M2078 2033 c7 -3 16 -2 19 1 4 3 -2 6 -13 5 -11 0 -14 -3 -6 -6z"/>
<path d="M550 2025 c0 -3 7 -16 16 -29 14 -22 14 -28 -1 -63 -9 -21 -23 -44
-32 -50 -15 -12 -15 -16 5 -52 19 -33 20 -40 7 -45 -20 -7 -19 -35 2 -58 9
-10 14 -19 12 -21 -2 -1 -17 -9 -34 -17 -38 -20 -42 -42 -15 -80 24 -33 41
-37 64 -15 8 8 20 15 26 15 19 0 80 63 80 82 0 9 -8 21 -17 27 -16 8 -15 12
10 35 44 40 38 48 -33 50 -32 1 -35 4 -38 33 -2 17 3 44 11 60 23 44 16 102
-13 119 -26 14 -50 18 -50 9z"/>
<path d="M710 2003 c-14 -9 -27 -18 -29 -20 -8 -6 34 -73 45 -73 41 0 57 27
29 50 -9 8 -13 21 -9 36 7 28 -2 30 -36 7z"/>
<path d="M1041 2006 c-15 -18 -11 -68 6 -73 22 -8 35 34 20 63 -12 22 -15 24
-26 10z"/>
<path d="M1397 1973 c-10 -9 -9 -53 1 -53 12 0 42 34 42 48 0 13 -32 17 -43 5z"/>
<path d="M818 1963 c7 -3 16 -2 19 1 4 3 -2 6 -13 5 -11 0 -14 -3 -6 -6z"/>
<path d="M315 1944 c-44 -11 -46 -13 -36 -31 6 -12 22 -18 48 -19 21 0 45 -4
54 -7 18 -9 75 31 62 43 -10 10 -102 20 -128 14z"/>
<path d="M1264 1829 c-8 -14 4 -25 39 -33 l27 -6 -22 25 c-24 27 -33 31 -44
14z"/>
<path d="M1636 1833 c-11 -11 -6 -23 9 -23 8 0 15 4 15 9 0 13 -16 22 -24 14z"/>
<path d="M840 1795 c0 -13 -5 -36 -12 -51 -11 -24 -10 -28 16 -49 34 -27 56
-23 56 11 0 13 5 32 11 42 7 12 7 25 0 45 -8 21 -17 27 -41 27 -25 0 -30 -4
-30 -25z"/>
<path d="M986 1779 c-16 -28 -17 -33 -3 -46 22 -23 54 -8 61 29 7 35 8 33 -19
42 -16 5 -25 -1 -39 -25z"/>
<path d="M2125 1780 c-3 -5 3 -10 14 -10 12 0 21 5 21 10 0 6 -6 10 -14 10 -8
0 -18 -4 -21 -10z"/>
<path d="M2747 1783 c-10 -9 -8 -43 2 -43 5 0 14 7 21 15 17 21 -4 48 -23 28z"/>
<path d="M3537 1747 c-24 -37 -90 -77 -126 -77 -21 0 -35 -8 -50 -29 -28 -39
-26 -58 7 -112 15 -24 31 -49 35 -56 9 -14 -32 -55 -48 -49 -23 8 -75 -23 -77
-46 -1 -13 -2 -32 -3 -43 -2 -27 13 -55 29 -55 8 0 17 -16 21 -37 8 -42 -15
-99 -52 -126 -22 -17 -23 -17 -29 9 -5 21 -2 31 16 44 16 12 21 23 15 38 -9
31 -29 27 -60 -10 -22 -26 -25 -37 -20 -69 7 -41 -7 -79 -30 -79 -9 0 -15 -9
-15 -22 0 -12 -17 -37 -40 -58 -46 -43 -45 -66 3 -67 68 -2 82 -8 85 -36 4
-33 -11 -35 -32 -5 -16 22 -16 22 -30 3 -8 -11 -19 -21 -25 -21 -6 -1 -16 -2
-21 -3 -6 0 -15 -12 -20 -26 -9 -24 -11 -25 -32 -11 -35 21 -87 -3 -69 -33 7
-11 51 -17 76 -11 6 2 18 0 28 -5 15 -6 17 -15 11 -50 -5 -38 -3 -44 15 -50
31 -10 28 -45 -5 -45 -38 0 -28 -34 11 -38 37 -5 45 -17 38 -57 -5 -25 -3 -28
8 -18 7 7 20 13 28 13 8 0 31 11 51 25 27 19 42 23 62 17 15 -4 28 -10 28 -14
0 -5 0 -14 0 -22 0 -19 -82 -58 -104 -50 -9 3 -23 1 -31 -6 -8 -6 -23 -9 -33
-6 -13 4 -22 1 -26 -9 -6 -16 -26 -21 -26 -6 0 5 -12 22 -27 38 -16 16 -38 41
-51 57 -20 24 -26 26 -40 14 -34 -27 -59 -36 -73 -27 -26 16 -48 9 -64 -21
-12 -23 -22 -30 -44 -30 -16 0 -39 -9 -53 -19 -13 -11 -37 -21 -52 -23 -16 -1
-34 -12 -40 -23 -17 -30 -48 -52 -88 -64 -40 -12 -54 -31 -73 -95 -9 -29 -19
-42 -39 -49 -43 -14 -59 9 -24 34 23 17 26 24 18 40 -15 26 -55 24 -77 -5 -11
-13 -49 -49 -86 -81 -38 -31 -66 -62 -64 -69 7 -20 35 -17 76 8 22 14 45 26
51 26 5 0 10 -20 10 -44 0 -49 -13 -65 -62 -75 -17 -4 -33 -12 -36 -19 -6 -19
125 -16 145 3 8 8 19 12 25 9 6 -4 28 -6 50 -6 21 1 38 -3 38 -8 0 -6 63 -10
168 -10 152 1 164 2 135 15 -25 11 -31 18 -26 32 14 39 39 66 70 80 64 26 99
-24 48 -71 -14 -13 -25 -31 -25 -40 0 -14 16 -16 130 -16 80 0 130 4 130 10 0
6 -4 10 -10 10 -23 0 -7 17 31 34 34 15 43 16 50 5 12 -19 11 -33 -3 -47 -9
-9 27 -12 165 -12 l177 0 0 210 c0 116 -3 210 -6 210 -3 0 -21 -7 -40 -16 -35
-17 -37 -34 -3 -34 10 0 19 -4 19 -9 0 -18 -28 -62 -53 -81 -48 -38 -68 -20
-32 31 24 33 24 35 8 83 -13 38 -14 53 -5 67 10 16 8 20 -13 25 -19 5 -25 13
-25 35 0 18 5 29 14 29 32 0 46 -13 46 -41 0 -38 34 -54 67 -30 21 15 22 23
21 121 0 58 -3 94 -5 80 -2 -14 -9 -40 -15 -59 -9 -28 -12 -31 -20 -18 -6 11
-5 25 3 39 7 12 11 41 10 65 -1 28 4 45 14 50 13 8 15 71 13 513 -3 487 -4
503 -21 477z m-109 -159 c-3 -33 -22 -49 -30 -26 -7 18 9 58 22 58 7 0 10 -13
8 -32z m122 -148 c0 -5 -4 -10 -9 -10 -6 0 -13 5 -16 10 -3 6 1 10 9 10 9 0
16 -4 16 -10z m-10 -94 c0 -20 -17 -39 -29 -32 -12 8 -15 39 -5 49 9 9 34 -3
34 -17z m-95 -217 c-7 -20 -8 -21 -17 -5 -5 9 -7 24 -4 33 10 26 29 -1 21 -28z
m-219 -104 c9 -21 -15 -85 -32 -85 -10 0 -14 13 -14 43 0 24 3 47 7 50 11 12
33 8 39 -8z m72 -67 c-4 -27 -28 -36 -28 -10 0 20 8 32 22 32 5 0 8 -10 6 -22z
m151 -11 c14 -17 4 -27 -26 -27 -35 0 -28 35 8 39 4 1 12 -5 18 -12z m-314
-152 c0 -11 -7 -21 -16 -23 -18 -3 -33 23 -23 39 10 17 39 5 39 -16z m75 -15
c0 -5 -4 -10 -10 -10 -5 0 -10 5 -10 10 0 6 5 10 10 10 6 0 10 -4 10 -10z
m103 -74 c5 -13 -10 -36 -24 -36 -3 0 -4 11 -1 25 5 27 17 33 25 11z m-67 -71
c8 -20 -13 -45 -31 -39 -11 5 -11 11 -3 30 13 27 26 31 34 9z m289 -65 c3 -5
-1 -10 -10 -10 -9 0 -13 5 -10 10 3 6 8 10 10 10 2 0 7 -4 10 -10z m-261 -146
c25 -9 19 -24 -9 -24 -24 0 -32 10 -18 23 8 8 8 8 27 1z m-119 -71 c7 -40 -4
-54 -37 -45 -27 7 -34 29 -14 51 9 10 16 28 16 42 1 22 2 23 14 6 8 -10 17
-34 21 -54z m158 -90 c5 -64 -4 -83 -39 -83 -18 0 -24 5 -24 23 0 13 -5 28
-11 34 -17 17 -2 62 24 73 40 16 44 12 50 -47z m-383 42 c0 -16 -42 -85 -49
-80 -14 8 -7 65 9 75 16 11 40 13 40 5z m144 -63 c2 -4 -2 -18 -9 -31 l-13
-24 -6 21 c-10 31 13 59 28 34z m306 -33 c0 -21 -7 -23 -29 -10 -12 8 -12 12
-2 25 16 19 31 12 31 -15z m-800 1 c0 -5 -5 -10 -11 -10 -5 0 -7 5 -4 10 3 6
8 10 11 10 2 0 4 -4 4 -10z m157 -82 c-3 -8 -6 -5 -6 6 -1 11 2 17 5 13 3 -3
4 -12 1 -19z m758 -29 c0 -13 4 -34 8 -46 12 -34 -3 -51 -19 -22 -17 32 -19
102 -1 96 6 -2 12 -15 12 -28z"/>
<path d="M2511 1746 c-15 -18 -10 -88 6 -94 7 -2 17 7 22 20 6 16 23 28 50 37
50 14 53 31 7 31 -19 0 -38 5 -41 10 -9 14 -31 12 -44 -4z"/>
<path d="M2000 1730 c0 -5 5 -10 10 -10 6 0 10 5 10 10 0 6 -4 10 -10 10 -5 0
-10 -4 -10 -10z"/>
<path d="M2233 1645 c-3 -9 -3 -18 -1 -21 9 -9 59 16 53 26 -10 16 -45 12 -52
-5z"/>
<path d="M1915 1604 c-19 -30 -12 -44 13 -26 9 7 29 17 44 23 34 13 27 29 -11
29 -20 0 -34 -8 -46 -26z"/>
<path d="M2223 1596 c-4 -8 -6 -38 -5 -66 5 -73 27 -59 29 18 2 60 -7 78 -24
48z"/>
<path d="M2600 1585 c-13 -16 -7 -45 10 -45 5 0 10 14 10 30 0 34 -3 36 -20
15z"/>
<path d="M1240 1566 c0 -10 9 -16 21 -16 24 0 21 23 -4 28 -10 2 -17 -3 -17
-12z"/>
<path d="M2311 1548 c-1 -9 -4 -23 -7 -32 -4 -11 -1 -16 10 -16 17 0 19 14 6
45 -7 16 -9 17 -9 3z"/>
<path d="M540 1519 c0 -5 5 -7 10 -4 6 3 10 8 10 11 0 2 -4 4 -10 4 -5 0 -10
-5 -10 -11z"/>
<path d="M3170 1470 c0 -5 5 -10 11 -10 5 0 7 5 4 10 -3 6 -8 10 -11 10 -2 0
-4 -4 -4 -10z"/>
<path d="M1365 1440 c-3 -5 -15 -10 -26 -10 -20 0 -37 -25 -25 -37 11 -11 86
17 96 37 9 17 7 20 -14 20 -14 0 -28 -4 -31 -10z"/>
<path d="M2215 1050 c-4 -6 5 -10 19 -10 14 0 26 5 26 10 0 6 -9 10 -19 10
-11 0 -23 -4 -26 -10z"/>
<path d="M1390 945 c-20 -24 -6 -28 15 -5 10 11 13 20 8 20 -6 0 -16 -7 -23
-15z"/>
<path d="M1632 948 c-18 -18 -15 -28 8 -28 13 0 20 7 20 20 0 23 -10 26 -28 8z"/>
<path d="M28 913 c7 -3 16 -2 19 1 4 3 -2 6 -13 5 -11 0 -14 -3 -6 -6z"/>
<path d="M1479 907 c-9 -7 -19 -24 -23 -39 -10 -43 17 -35 42 12 21 41 13 52
-19 27z"/>
<path d="M2160 910 c0 -13 11 -13 30 0 12 8 11 10 -7 10 -13 0 -23 -4 -23 -10z"/>
<path d="M1063 880 c-33 -13 -19 -42 16 -34 33 9 35 10 28 29 -7 17 -13 18
-44 5z"/>
<path d="M1320 864 c0 -8 5 -12 10 -9 6 4 8 11 5 16 -9 14 -15 11 -15 -7z"/>
<path d="M1700 835 c-16 -20 -3 -55 21 -55 21 0 40 35 32 58 -7 16 -38 15 -53
-3z"/>
<path d="M1550 809 c0 -17 4 -28 10 -24 6 3 10 17 10 31 0 13 -4 24 -10 24 -5
0 -10 -14 -10 -31z"/>
<path d="M748 803 c7 -3 16 -2 19 1 4 3 -2 6 -13 5 -11 0 -14 -3 -6 -6z"/>
<path d="M1035 788 c-10 -26 2 -55 17 -40 8 8 8 18 1 34 -10 21 -12 21 -18 6z"/>
<path d="M141 721 c-13 -10 -21 -23 -17 -30 12 -18 24 -13 40 19 17 34 11 37
-23 11z"/>
<path d="M638 709 c-15 -16 -37 -29 -51 -29 -16 0 -28 -8 -35 -25 -15 -32 1
-41 43 -25 29 11 44 2 45 -28 0 -9 10 -12 28 -10 22 2 30 11 40 42 10 32 10
42 -1 55 -8 9 -17 24 -20 34 -8 23 -17 20 -49 -14z m52 -33 c0 -21 -21 -31
-31 -15 -5 8 -3 17 4 21 18 12 27 10 27 -6z"/>
<path d="M584 544 c-13 -19 -14 -28 -5 -37 13 -13 35 5 46 41 9 31 -20 29 -41
-4z"/>
<path d="M575 417 c-9 -34 0 -46 20 -26 13 13 13 17 1 34 -14 19 -15 19 -21
-8z"/>
<path d="M2408 383 c7 -3 16 -2 19 1 4 3 -2 6 -13 5 -11 0 -14 -3 -6 -6z"/>
<path d="M2170 306 c0 -9 5 -16 10 -16 6 0 10 4 10 9 0 6 -4 13 -10 16 -5 3
-10 -1 -10 -9z"/>
<path d="M595 268 c-3 -7 -6 -24 -7 -38 -2 -19 2 -26 20 -28 28 -4 39 20 24
54 -12 26 -30 32 -37 12z"/>
<path d="M1594 262 c-20 -14 -56 -83 -50 -97 3 -8 14 -15 24 -15 15 0 17 -6
14 -36 -2 -19 -12 -40 -22 -46 -16 -10 -16 -12 2 -30 19 -19 20 -19 34 -1 8
10 12 29 10 43 -8 44 5 81 31 91 19 7 23 14 18 27 -4 9 -10 29 -13 45 -4 27
-25 35 -48 19z"/>
<path d="M844 205 c-4 -22 -7 -46 -5 -53 1 -6 -10 -17 -25 -24 -23 -11 -28
-10 -45 11 -14 17 -17 32 -13 61 l6 38 -36 0 c-28 0 -36 -4 -36 -18 0 -30 11
-50 29 -50 13 0 13 -2 2 -9 -9 -6 -12 -19 -8 -36 2 -16 -1 -43 -9 -61 -28 -67
-43 -63 271 -64 l285 0 0 28 c0 19 -9 35 -28 49 l-29 21 -44 -20 c-32 -15 -71
-21 -141 -24 -92 -3 -96 -3 -91 16 3 11 10 23 15 26 12 7 -20 44 -39 44 -26 0
-13 28 21 44 19 9 39 16 45 16 18 0 13 14 -11 30 -13 8 -42 14 -65 15 -41 0
-42 -1 -49 -40z"/>
<path d="M1765 223 c-33 -5 -65 -29 -65 -49 0 -7 8 -14 18 -16 22 -5 90 23 97
40 6 15 -2 33 -13 31 -4 -1 -20 -4 -37 -6z"/>
<path d="M1300 212 c0 -5 9 -17 19 -26 11 -10 22 -29 25 -42 6 -22 10 -24 44
-19 79 13 91 17 96 30 3 10 -11 15 -54 20 -36 4 -68 14 -81 26 -23 20 -49 25
-49 11z"/>
<path d="M1110 195 c0 -8 7 -15 15 -15 8 0 15 7 15 15 0 8 -7 15 -15 15 -8 0
-15 -7 -15 -15z"/>
<path d="M245 159 c-4 -6 -5 -13 -2 -16 7 -7 27 6 27 18 0 12 -17 12 -25 -2z"/>
<path d="M1050 155 c0 -8 4 -15 9 -15 5 0 11 7 15 15 3 9 0 15 -9 15 -8 0 -15
-7 -15 -15z"/>
<path d="M650 110 c-23 -17 -23 -19 -7 -26 22 -8 40 7 35 29 -3 14 -6 14 -28
-3z"/>
<path d="M1382 81 c-28 -5 -36 -13 -47 -44 l-13 -37 87 0 c55 0 81 4 72 9 -8
5 -19 24 -25 43 -12 35 -22 39 -74 29z"/>
<path d="M2147 20 c-4 -17 0 -20 24 -20 27 0 29 2 19 20 -6 11 -17 20 -24 20
-8 0 -16 -9 -19 -20z"/>
<path d="M500 15 c-23 -14 -20 -15 50 -15 48 1 70 4 60 9 -29 17 -85 20 -110
6z"/>
<path d="M1754 15 c-18 -13 -15 -14 30 -15 42 0 47 2 36 15 -16 19 -41 19 -66
0z"/>
<path d="M345 10 c-3 -5 -2 -10 4 -10 5 0 13 5 16 10 3 6 2 10 -4 10 -5 0 -13
-4 -16 -10z"/>
</g>
</svg>
