<?xml version="1.0" standalone="no"?>
<!DOCTYPE svg PUBLIC "-//W3C//DTD SVG 20010904//EN"
 "http://www.w3.org/TR/2001/REC-SVG-20010904/DTD/svg10.dtd">
<svg version="1.0" xmlns="http://www.w3.org/2000/svg"
 width="47.000000pt" height="79.000000pt" viewBox="0 0 47.000000 79.000000"
 preserveAspectRatio="xMidYMid meet">
<metadata>
Created by potrace 1.16, written by Peter Selinger 2001-2019
</metadata>
<g transform="translate(0.000000,79.000000) scale(0.100000,-0.100000)"
fill="#000000" stroke="none">
<path d="M325 727 c-16 -12 -36 -28 -43 -37 -12 -13 -12 -13 -6 0 4 8 -24 -14
-62 -50 -89 -83 -111 -100 -119 -92 -3 4 -3 -2 1 -12 6 -15 4 -17 -6 -11 -8 5
-11 4 -7 -2 4 -6 -5 -15 -18 -21 -14 -7 -25 -16 -25 -22 0 -6 -4 -8 -10 -5 -5
3 -7 0 -5 -7 4 -11 33 -13 128 -11 67 2 140 4 163 6 l40 2 1 -46 2 -46 -70 3
c-38 1 -72 -2 -75 -7 -3 -5 -11 -6 -17 -2 -18 12 -86 12 -93 1 -3 -5 -10 -5
-17 0 -19 15 -47 10 -47 -7 0 -19 163 -184 173 -176 4 3 5 2 2 -2 -7 -9 96
-113 107 -107 4 3 8 0 8 -7 0 -10 3 -10 11 -2 6 6 19 9 28 6 12 -4 13 -3 3 5
-8 5 -24 8 -37 7 -16 -2 -26 4 -34 22 -6 13 -16 21 -21 18 -6 -3 -10 -1 -10 4
0 23 -2 26 -23 38 -12 7 -18 12 -14 13 5 0 -28 37 -73 83 -60 60 -76 83 -63
84 10 1 59 4 108 7 50 2 104 6 120 8 l30 3 2 -130 c1 -99 4 -130 15 -133 9 -2
8 0 -2 7 -8 6 -10 11 -4 11 6 0 9 18 8 45 -1 25 2 47 7 51 5 3 6 10 3 16 -9
14 -13 80 -6 92 3 5 5 103 6 217 1 230 1 230 -59 186z m31 -119 c-1 -113 -3
-132 -16 -129 -35 8 -61 8 -66 0 -3 -5 -13 -5 -23 0 -10 6 -23 6 -31 1 -8 -5
-18 -6 -22 -4 -15 10 -51 13 -62 7 -16 -10 -46 -11 -52 -2 -2 4 9 22 26 39 16
17 30 28 30 25 0 -3 8 3 18 13 11 9 17 20 15 24 -2 4 3 5 11 2 9 -4 20 5 30
24 9 17 24 33 34 36 10 3 38 26 62 51 24 25 45 45 46 45 1 0 1 -60 0 -132z"/>
<path d="M346 51 c-4 -5 -2 -12 3 -15 5 -4 12 -2 15 3 4 5 2 12 -3 15 -5 4
-12 2 -15 -3z"/>
</g>
</svg>
