<?xml version="1.0" standalone="no"?>
<!DOCTYPE svg PUBLIC "-//W3C//DTD SVG 20010904//EN"
 "http://www.w3.org/TR/2001/REC-SVG-20010904/DTD/svg10.dtd">
<svg version="1.0" xmlns="http://www.w3.org/2000/svg"
 width="510.000000pt" height="434.000000pt" viewBox="0 0 510.000000 434.000000"
 preserveAspectRatio="xMidYMid meet">
<metadata>
Created by potrace 1.16, written by Peter Selinger 2001-2019
</metadata>
<g transform="translate(0.000000,434.000000) scale(0.100000,-0.100000)"
fill="#000000" stroke="none">
<path d="M0 3646 l0 -694 40 -7 c22 -4 42 -11 46 -16 13 -21 52 -8 73 24 12
17 31 47 44 66 20 32 69 83 116 123 12 10 24 40 31 76 l12 59 52 7 c70 8 132
39 151 77 13 23 15 46 9 100 -6 66 -6 69 15 69 17 0 21 -4 16 -19 -8 -26 3
-48 27 -54 17 -5 20 -11 15 -36 -6 -29 -5 -31 23 -31 18 0 34 -8 44 -21 13
-20 13 -25 0 -51 -31 -59 7 -79 50 -27 21 24 24 34 15 45 -18 21 18 31 39 10
13 -13 14 -20 6 -34 -6 -10 -15 -32 -19 -50 -4 -22 -15 -36 -31 -42 -14 -6
-28 -18 -32 -29 -9 -24 -57 -63 -106 -86 -21 -10 -41 -27 -44 -37 -2 -10 -8
-18 -13 -18 -4 0 -23 -13 -42 -29 -23 -21 -37 -27 -48 -20 -20 12 -66 11 -75
-2 -3 -6 -27 -20 -52 -31 l-45 -20 42 -20 c23 -10 41 -24 39 -30 -2 -6 -20
-20 -40 -32 -32 -18 -41 -19 -68 -9 -29 11 -32 10 -41 -15 -18 -46 -28 -54
-52 -37 -29 20 -50 19 -72 -5 -13 -14 -22 -17 -29 -10 -5 5 -29 10 -53 10 -39
0 -43 -2 -43 -25 0 -17 5 -25 18 -25 10 0 22 -4 28 -9 5 -6 28 -13 50 -17 35
-5 45 -3 62 16 21 22 22 22 57 6 30 -15 41 -15 69 -5 45 16 86 -7 86 -50 0
-45 49 -78 77 -50 8 8 13 7 18 -1 4 -6 2 -17 -4 -23 -6 -6 -11 -21 -11 -33 0
-34 -17 -38 -36 -9 -23 36 -54 29 -76 -15 -11 -22 -17 -28 -18 -17 0 25 -22
16 -40 -16 -13 -24 -13 -28 10 -52 20 -22 22 -29 12 -43 -7 -9 -17 -26 -23
-38 -21 -40 -93 -67 -125 -46 -6 4 -15 18 -19 31 l-7 23 -28 -31 c-16 -17 -38
-31 -49 -31 -11 0 -27 -10 -35 -22 -14 -20 -16 -148 -16 -1170 l0 -1148 2550
0 2550 0 0 2170 0 2170 -2550 0 -2550 0 0 -694z m573 581 c14 -22 13 -24 -35
-45 -57 -25 -71 -27 -86 -9 -15 18 -4 31 48 55 57 26 55 26 73 -1z m327 -21
c0 -2 -7 -6 -15 -10 -8 -3 -15 -1 -15 4 0 6 7 10 15 10 8 0 15 -2 15 -4z
m-550 -16 c0 -5 -8 -10 -17 -10 -15 0 -16 2 -3 10 19 12 20 12 20 0z m470 -63
c0 -28 -17 -47 -42 -47 -10 0 -18 -6 -18 -13 0 -7 -20 -28 -45 -47 -25 -19
-45 -42 -45 -52 0 -20 -34 -25 -45 -8 -7 11 67 88 111 117 13 8 24 21 24 28 0
12 37 43 53 44 4 1 7 -9 7 -22z m-140 -247 c0 -5 -9 -10 -21 -10 -11 0 -17 5
-14 10 3 6 13 10 21 10 8 0 14 -4 14 -10z m2805 -18 c6 -4 11 -23 12 -42 3
-34 0 -37 -40 -50 -38 -14 -42 -18 -42 -49 0 -32 3 -35 48 -48 36 -10 47 -18
45 -31 -2 -9 -7 -16 -11 -16 -4 1 -43 5 -87 9 -53 5 -83 12 -88 21 -5 9 2 36
19 72 l28 57 -49 10 c-27 6 -52 13 -55 17 -9 9 39 39 78 48 42 10 129 12 142
2z m-335 -32 c0 -5 -7 -10 -15 -10 -8 0 -15 5 -15 10 0 6 7 10 15 10 8 0 15
-4 15 -10z m-2537 -29 c4 -16 21 -28 94 -65 13 -6 23 -17 23 -23 0 -17 -50
-16 -73 2 -11 7 -24 12 -30 10 -16 -6 -58 61 -51 80 8 21 31 19 37 -4z m3092
-41 c3 -5 4 -14 0 -20 -8 -13 -35 -1 -35 16 0 16 26 19 35 4z m-440 -50 c1
-19 -5 -45 -13 -57 -11 -18 -11 -26 2 -52 9 -16 16 -35 16 -41 0 -17 -42 -70
-52 -64 -4 3 -5 36 -2 74 6 56 4 74 -11 96 -15 23 -22 26 -55 21 -22 -3 -46 0
-55 7 -14 10 -14 13 0 33 14 21 23 22 93 20 l77 -2 0 -35z m-2412 -7 c-7 -2
-19 -2 -25 0 -7 3 -2 5 12 5 14 0 19 -2 13 -5z m2210 0 c16 -15 -18 -33 -65
-33 -63 0 -106 -31 -139 -100 -13 -28 -29 -50 -35 -50 -12 0 -44 58 -44 79 0
6 -12 16 -27 22 -28 11 -27 11 32 35 34 13 84 24 115 24 30 1 71 8 90 15 40
15 64 18 73 8z m847 -58 c9 -11 9 -22 -1 -50 -18 -48 -32 -59 -58 -46 -16 9
-19 18 -14 49 8 54 46 79 73 47z m-1252 -31 c4 -31 -22 -48 -56 -36 -41 14
-102 0 -136 -31 -16 -15 -38 -27 -50 -27 -12 -1 -33 -17 -51 -40 -16 -21 -35
-39 -42 -40 -20 0 -63 -23 -63 -32 0 -5 -9 -18 -20 -30 -11 -12 -20 -28 -20
-35 0 -7 -5 -13 -11 -13 -19 0 -90 -82 -106 -122 -8 -21 -19 -38 -23 -38 -12
0 -21 -90 -10 -109 5 -10 5 -22 1 -27 -11 -13 -32 -95 -29 -119 4 -40 -50 -95
-93 -95 -26 0 -49 42 -49 88 0 48 29 112 51 112 6 0 33 23 60 51 39 41 47 54
38 65 -6 8 -18 14 -25 14 -34 0 4 59 111 173 41 43 75 83 75 87 0 4 21 23 46
41 25 19 63 50 85 69 37 32 148 79 194 81 11 0 34 9 50 19 38 24 69 21 73 -6z
m892 -4 c0 -5 -7 -10 -15 -10 -8 0 -15 5 -15 10 0 6 7 10 15 10 8 0 15 -4 15
-10z m243 -95 c-3 -8 -12 -15 -19 -15 -12 0 -12 4 -4 20 12 23 32 18 23 -5z
m-3369 -48 c-3 -9 -10 -17 -15 -17 -11 0 -12 34 -2 44 11 11 24 -9 17 -27z
m2824 -165 c-4 -13 -8 -34 -8 -48 0 -13 -4 -24 -10 -24 -15 0 -17 170 -2 195
10 16 29 -98 20 -123z m-2858 59 c-12 -47 -30 -54 -30 -13 0 29 31 83 37 65 3
-7 -1 -30 -7 -52z m3848 -83 c2 -10 -8 -22 -25 -30 -15 -7 -32 -23 -38 -36
-14 -32 -35 -28 -35 7 0 53 89 106 98 59z m-3122 -68 c24 -28 31 -31 64 -25
23 4 41 2 44 -4 4 -6 27 -19 51 -30 51 -23 54 -28 23 -41 -19 -7 -14 -9 24 -9
27 -1 53 -7 62 -16 8 -8 28 -15 45 -15 16 0 33 -4 36 -10 4 -6 -5 -10 -20 -10
-14 0 -28 -7 -31 -15 -9 -22 23 -65 57 -77 16 -5 29 -13 29 -17 0 -18 -34 -51
-52 -51 -27 0 -68 37 -68 61 0 22 -16 33 -32 23 -7 -4 -33 -7 -58 -5 -35 1
-50 8 -67 29 -13 15 -23 38 -23 50 0 15 -7 26 -19 29 -12 3 -21 15 -23 31 -3
23 -8 26 -43 26 -34 1 -40 4 -43 24 -2 13 -10 26 -18 29 -8 3 -14 12 -14 19 0
8 -13 17 -30 21 -53 10 -34 26 25 20 46 -5 60 -11 81 -37z m-236 -59 l0 -39
-50 0 c-46 -1 -50 1 -50 23 0 17 9 27 38 38 56 24 62 22 62 -22z m2378 -3 c28
-54 28 -78 2 -78 -15 0 -20 -7 -20 -26 0 -15 -4 -23 -11 -19 -6 4 -9 19 -8 33
1 15 -1 42 -5 59 -7 33 -1 73 12 73 4 0 17 -19 30 -42z m-1281 -40 c-3 -8 -6
-5 -6 6 -1 11 2 17 5 13 3 -3 4 -12 1 -19z m-917 -23 c0 -29 -34 -36 -44 -9
-10 27 -7 34 19 34 20 0 25 -5 25 -25z m3450 9 c0 -14 -3 -15 -17 -3 -10 7
-20 15 -22 16 -2 2 5 3 17 3 14 0 22 -6 22 -16z m-2840 -53 c0 -6 -4 -13 -10
-16 -5 -3 -10 -19 -10 -36 0 -20 -5 -29 -16 -29 -31 0 -3 89 29 90 4 0 7 -4 7
-9z m-133 -18 c-9 -9 -19 -14 -23 -11 -10 10 6 28 24 28 15 0 15 -1 -1 -17z
m-787 -33 c0 -5 -5 -21 -12 -35 -8 -18 -8 -35 -1 -59 18 -58 -15 -87 -52 -46
-19 21 -36 102 -26 118 6 10 58 30 79 31 6 1 12 -3 12 -9z m-235 -79 c-3 -6
-11 -11 -17 -11 -6 0 -6 6 2 15 14 17 26 13 15 -4z m827 -13 c-9 -9 -12 -7
-12 12 0 19 3 21 12 12 9 -9 9 -15 0 -24z m1898 -118 c-7 -43 -8 -43 -8 20 -1
42 2 58 7 45 5 -11 5 -40 1 -65z m-1306 -6 c6 -10 18 -30 26 -44 9 -14 20 -38
24 -54 4 -17 16 -42 27 -57 23 -32 24 -39 5 -39 -19 0 -46 -39 -46 -66 0 -11
9 -29 20 -39 24 -22 23 -58 -2 -63 -10 -2 -42 13 -72 33 l-55 36 0 55 c0 31 4
52 10 49 5 -4 9 -13 9 -21 0 -12 3 -12 20 -2 23 15 26 41 6 58 -8 6 -17 21
-19 33 -3 15 -5 12 -6 -10 -1 -44 -21 -42 -21 1 0 19 -4 38 -10 41 -14 9 -12
81 3 93 13 11 47 21 61 18 5 -1 14 -11 20 -22z m133 -196 c-3 -8 -6 -5 -6 6
-1 11 2 17 5 13 3 -3 4 -12 1 -19z m1196 8 c8 -21 -4 -57 -17 -53 -6 2 -13 11
-14 21 -7 36 19 63 31 32z m1585 -141 c19 -42 15 -55 -18 -55 -23 0 -33 -6
-42 -25 -11 -25 -20 -30 -31 -19 -15 15 44 122 69 123 6 1 16 -10 22 -24z
m-4472 -30 c-25 -19 -31 -19 -46 0 -11 13 -7 15 26 15 36 -1 38 -2 20 -15z
m2914 -4 c0 -40 -13 -81 -26 -81 -10 0 -14 13 -14 43 0 24 3 47 7 50 13 14 33
7 33 -12z m-2810 -11 c0 -5 -4 -10 -9 -10 -6 0 -13 5 -16 10 -3 6 1 10 9 10 9
0 16 -4 16 -10z m1524 -72 c-15 -7 -28 -7 -40 1 -16 9 -12 10 21 10 35 0 37
-2 19 -11z m-1669 -80 c19 -9 25 -19 25 -45 0 -32 -12 -43 -25 -23 -3 6 -20
10 -36 10 -40 0 -69 16 -69 40 0 28 59 39 105 18z m-207 -47 c-4 -36 -35 -39
-50 -6 -11 24 -10 29 7 41 25 18 47 0 43 -35z m1920 9 c4 -22 -19 -50 -40 -50
-11 0 -10 38 3 61 13 26 33 20 37 -11z m-111 -32 c-2 -13 -4 -5 -4 17 -1 22 1
32 4 23 2 -10 2 -28 0 -40z m1353 -46 c0 -58 -11 -80 -29 -58 -12 14 -10 43 5
99 10 32 24 7 24 -41z m1503 28 c-9 -16 -46 -60 -81 -96 -49 -51 -66 -64 -73
-53 -5 9 0 22 16 39 14 15 25 31 25 38 0 7 4 12 8 12 5 0 13 10 18 21 9 19 76
67 97 68 5 1 0 -12 -10 -29z m-4466 -102 c-3 -8 -6 -5 -6 6 -1 11 2 17 5 13 3
-3 4 -12 1 -19z m1433 -14 c0 -20 -5 -24 -30 -24 -33 0 -83 -20 -113 -43 -17
-14 -17 -16 3 -51 l22 -35 -28 -27 c-21 -18 -36 -24 -54 -20 -14 3 -48 9 -77
15 -28 5 -61 15 -73 21 -28 15 -83 3 -76 -16 7 -19 -24 -18 -53 2 -17 13 -28
14 -44 6 -12 -6 -32 -14 -45 -17 -13 -4 -28 -18 -34 -31 -8 -17 -18 -24 -32
-22 -31 4 -31 33 1 68 25 28 37 33 107 41 43 4 97 15 120 23 22 7 66 19 96 26
30 7 75 24 100 38 25 14 56 25 70 24 14 -1 46 11 70 26 50 32 70 31 70 -4z
m326 -24 c17 -17 4 -70 -16 -70 -19 0 -29 -11 -85 -92 -24 -35 -30 -39 -33
-23 -1 11 -14 53 -29 93 -33 95 -28 102 76 102 42 0 82 -5 87 -10z m1191 -62
c-2 -13 -4 -5 -4 17 -1 22 1 32 4 23 2 -10 2 -28 0 -40z m-2964 -34 c14 -14
-7 -34 -36 -34 -29 0 -30 0 -12 20 18 20 36 25 48 14z m4277 -29 c-8 -16 -22
-25 -36 -25 -30 0 -23 20 14 41 34 20 39 16 22 -16z m-2515 -21 l-15 -29 0 32
c0 17 6 33 13 36 18 6 19 -6 2 -39z m1215 -77 c0 -53 -18 -104 -21 -62 -10
105 -7 131 11 120 5 -3 10 -30 10 -58z m1220 53 c0 -12 -40 -34 -47 -26 -9 8
17 36 33 36 8 0 14 -4 14 -10z m-77 -75 c-3 -9 -25 -21 -49 -27 -24 -7 -44
-17 -44 -22 0 -13 -51 -66 -63 -66 -5 0 -27 -15 -50 -33 -47 -38 -77 -52 -77
-36 0 15 59 69 75 69 8 0 20 9 27 19 8 10 30 29 51 41 20 12 37 27 37 34 0 14
44 33 77 35 16 1 21 -3 16 -14z m-3329 -37 c8 -15 13 -45 11 -83 l-2 -60 -48
-13 c-31 -9 -67 -12 -102 -7 l-54 7 25 23 c17 15 23 30 19 44 -3 11 1 26 8 33
19 18 112 78 121 78 4 0 14 -10 22 -22z m1146 -36 c19 -6 51 -15 70 -19 45
-11 51 -37 13 -57 -32 -16 -44 -12 -62 23 -11 19 -18 22 -46 18 -19 -3 -47
-16 -64 -28 -25 -19 -33 -20 -46 -9 -21 17 -29 7 -16 -18 15 -28 14 -32 -9
-32 -25 0 -34 21 -26 55 4 15 13 25 25 25 10 0 25 7 32 17 16 19 69 44 84 39
6 -2 26 -8 45 -14z m-1610 -16 c0 -8 -6 -16 -14 -19 -8 -3 -16 -18 -18 -34 -3
-24 -8 -28 -35 -30 -18 -1 -35 3 -38 8 -10 14 14 49 48 69 38 23 57 25 57 6z
m256 -17 c4 -7 -1 -16 -10 -21 -9 -5 -16 -20 -16 -33 0 -23 -4 -24 -47 -24
-27 1 -56 3 -65 6 -19 5 -25 33 -8 33 16 0 12 22 -7 36 -16 11 -6 13 64 14 50
0 85 -4 89 -11z m-536 -19 c0 -11 -4 -20 -10 -20 -5 0 -10 9 -10 20 0 11 5 20
10 20 6 0 10 -9 10 -20z m-19 -150 c-15 -49 -36 -58 -50 -20 -10 29 -49 49
-70 35 -6 -3 -11 -1 -11 4 0 6 13 11 28 11 20 0 38 10 57 32 l28 31 15 -28
c11 -23 12 -35 3 -65z m1705 33 c-10 -10 -19 5 -10 18 6 11 8 11 12 0 2 -7 1
-15 -2 -18z m1274 -18 c0 -8 -4 -15 -10 -15 -5 0 -10 7 -10 15 0 8 5 15 10 15
6 0 10 -7 10 -15z m1560 -46 c0 -35 -99 -129 -135 -129 -28 0 -15 24 48 82 59
56 87 70 87 47z m-2691 -69 c-13 -9 -39 -2 -39 10 0 4 10 12 23 17 17 8 23 7
25 -5 2 -8 -2 -18 -9 -22z m1191 -25 c-7 -8 -17 -12 -23 -8 -6 4 -3 9 9 14 27
11 28 11 14 -6z m-705 -41 c32 -21 32 -34 -1 -34 -15 0 -38 -12 -56 -31 -26
-25 -37 -30 -72 -27 -33 2 -42 7 -44 25 -3 17 5 24 47 38 27 9 55 23 61 31 16
18 35 18 65 -2z m230 -65 c12 -19 -5 -23 -22 -6 -16 16 -16 17 -1 17 9 0 20
-5 23 -11z m646 -49 c36 0 20 -29 -22 -40 -43 -12 -258 -7 -292 6 -17 6 -17 7
1 20 21 14 141 23 236 18 32 -2 67 -4 77 -4z m-396 -35 c-27 -7 -62 -10 -76
-8 -17 3 -37 -2 -55 -16 -38 -27 -77 -32 -82 -9 -6 30 52 46 163 46 l100 0
-50 -13z m1571 -73 c-4 -3 -11 -1 -18 6 -8 8 -8 15 3 28 13 16 14 16 17 -5 2
-13 1 -25 -2 -29z m-2531 19 c8 -14 -13 -24 -33 -16 -14 5 -14 7 -2 15 19 12
27 12 35 1z m445 -63 c56 -21 60 -26 50 -54 -6 -14 -10 -42 -10 -63 0 -41 -25
-71 -92 -109 l-37 -21 -20 28 c-35 49 -26 151 14 151 20 0 47 30 41 46 -22 54
-26 52 54 22z m-295 -98 c3 -5 21 -10 40 -10 25 0 42 -8 64 -32 48 -51 56
-130 14 -136 -18 -3 -24 3 -31 30 -4 18 -14 33 -20 32 -7 -1 -23 -2 -36 -2
-16 -1 -31 -13 -42 -32 -11 -17 -30 -32 -46 -35 -16 -4 -52 -25 -80 -47 -52
-42 -131 -78 -169 -78 -13 0 -25 -11 -35 -35 -8 -19 -21 -35 -30 -35 -9 0 -27
-9 -41 -20 -14 -11 -34 -20 -45 -20 -10 0 -21 -7 -24 -15 -4 -8 -12 -15 -20
-15 -7 0 -18 -8 -23 -18 -12 -23 -173 -72 -235 -72 -12 0 -31 -9 -41 -20 -10
-11 -28 -20 -41 -20 -13 0 -26 -4 -29 -10 -8 -13 -35 -13 -35 -1 0 5 16 15 35
22 22 8 38 22 44 40 7 22 17 28 53 33 23 4 60 6 81 6 29 0 45 6 67 29 17 16
30 38 30 48 1 30 27 56 50 50 25 -6 115 53 124 81 6 18 70 61 151 100 47 24
145 88 155 102 3 4 20 15 38 24 23 12 32 23 32 41 0 18 5 25 19 25 11 0 23 -4
26 -10z m-455 -255 c0 -7 -6 -17 -12 -22 -19 -15 -96 -25 -103 -13 -3 6 4 10
18 10 13 0 34 11 46 24 23 25 51 25 51 1z m-233 8 c-10 -3 -22 -16 -27 -29
-12 -30 -56 -49 -85 -35 -11 5 -14 10 -7 10 7 1 18 6 25 11 50 43 63 50 86 49
18 -1 20 -3 8 -6z m-50 -169 c-3 -3 -12 -4 -19 -1 -8 3 -5 6 6 6 11 1 17 -2
13 -5z m-207 -48 c0 -27 -18 -37 -49 -29 -26 7 -27 28 -3 42 31 18 52 13 52
-13z"/>
<path d="M775 1649 c-10 -15 0 -21 27 -17 l23 3 -22 13 c-15 8 -24 9 -28 1z"/>
<path d="M538 3173 c7 -3 16 -2 19 1 4 3 -2 6 -13 5 -11 0 -14 -3 -6 -6z"/>
<path d="M222 2908 c-18 -18 -14 -28 8 -28 11 0 20 6 20 14 0 21 -15 27 -28
14z"/>
<path d="M95 2820 c-3 -5 -1 -10 4 -10 6 0 11 5 11 10 0 6 -2 10 -4 10 -3 0
-8 -4 -11 -10z"/>
<path d="M0 2660 c0 -26 37 -63 56 -56 25 9 16 45 -16 61 -37 19 -40 19 -40
-5z"/>
</g>
</svg>
