<?xml version="1.0" standalone="no"?>
<!DOCTYPE svg PUBLIC "-//W3C//DTD SVG 20010904//EN"
 "http://www.w3.org/TR/2001/REC-SVG-20010904/DTD/svg10.dtd">
<svg version="1.0" xmlns="http://www.w3.org/2000/svg"
 width="164.000000pt" height="100.000000pt" viewBox="0 0 164.000000 100.000000"
 preserveAspectRatio="xMidYMid meet">
<metadata>
Created by potrace 1.16, written by Peter Selinger 2001-2019
</metadata>
<g transform="translate(0.000000,100.000000) scale(0.100000,-0.100000)"
fill="#000000" stroke="none">
<path d="M1070 861 c0 -7 -8 -15 -17 -18 -10 -4 -54 -33 -98 -66 -78 -59 -112
-87 -89 -74 6 4 30 -7 52 -23 22 -16 84 -48 139 -70 54 -23 103 -46 108 -50 6
-5 40 -19 76 -33 70 -27 109 -47 109 -59 0 -4 -14 -17 -31 -29 l-31 -22 -55
28 c-30 15 -56 25 -59 23 -2 -3 21 -17 51 -32 l54 -28 -28 -24 c-16 -13 -34
-24 -40 -24 -10 0 -99 38 -301 130 -58 26 -115 51 -127 54 -13 4 -23 13 -23
20 0 15 37 56 51 56 5 0 43 -18 85 -40 73 -40 233 -104 241 -97 2 2 -41 24
-94 48 -54 24 -120 56 -148 71 -47 26 -49 29 -46 64 l3 36 -63 -51 c-35 -28
-74 -51 -86 -51 -27 0 -61 -31 -55 -48 2 -7 -1 -18 -6 -25 -5 -7 -13 -26 -16
-42 -6 -27 -3 -32 24 -42 33 -12 33 -14 32 -128 -1 -33 -9 -87 -19 -119 -17
-55 -21 -60 -58 -72 -54 -16 -167 -32 -183 -26 -10 3 -12 20 -7 66 3 33 7 89
8 123 l2 63 35 1 c114 4 204 10 208 14 3 3 -39 6 -94 6 -54 1 -108 2 -119 3
-17 1 -21 10 -27 56 -4 30 -10 69 -13 86 -4 18 -2 41 4 52 10 20 17 21 99 15
115 -7 98 10 -25 27 -106 15 -269 7 -293 -14 -8 -7 -21 -15 -29 -18 -8 -2 -16
-11 -17 -19 -2 -7 -13 -50 -24 -94 -30 -109 -20 -240 23 -313 16 -27 22 -31
28 -19 9 16 -13 81 -31 92 -5 3 -10 33 -10 66 l0 60 125 -3 126 -3 3 -123 3
-123 -76 6 c-42 3 -87 8 -99 11 -17 3 -23 1 -20 -8 5 -15 126 -30 258 -32 65
-1 94 3 123 18 29 14 41 16 46 7 10 -16 18 -5 60 78 30 60 53 163 45 204 -1 9
-1 17 1 17 8 0 184 -49 248 -70 38 -12 73 -20 80 -17 11 3 -15 15 -173 77
-144 56 -164 70 -168 113 -3 40 -1 42 26 28 37 -19 141 -61 237 -94 55 -19
126 -47 158 -62 62 -29 63 -34 12 -77 -20 -17 -19 -18 15 -18 28 0 46 10 89
48 80 71 311 297 311 304 0 9 -89 42 -96 35 -3 -3 4 -8 15 -12 27 -8 28 -55 1
-80 -18 -17 -21 -17 -52 2 -18 10 -80 38 -138 61 -58 23 -150 64 -204 90 l-99
47 25 30 25 29 104 -43 c109 -46 229 -83 229 -72 0 6 -148 80 -255 127 -22 10
-43 20 -47 22 -5 2 -8 -1 -8 -7z m-8 -147 c45 -20 125 -51 177 -70 116 -42
211 -84 211 -94 0 -4 -18 -21 -40 -39 -30 -24 -44 -29 -57 -22 -38 20 -231
110 -290 135 -34 14 -82 38 -107 53 l-45 27 21 23 c12 13 27 23 34 23 7 0 50
-16 96 -36z m486 -86 c-6 -18 -28 -21 -28 -4 0 9 7 16 16 16 9 0 14 -5 12 -12z
m-1155 -59 c3 -12 3 -59 0 -105 l-6 -84 -125 0 c-114 0 -124 1 -118 17 4 10
16 51 27 93 11 41 23 78 27 82 8 7 61 14 138 16 45 2 52 -1 57 -19z"/>
</g>
</svg>
