<?xml version="1.0" standalone="no"?>
<!DOCTYPE svg PUBLIC "-//W3C//DTD SVG 20010904//EN"
 "http://www.w3.org/TR/2001/REC-SVG-20010904/DTD/svg10.dtd">
<svg version="1.0" xmlns="http://www.w3.org/2000/svg"
 width="1044.000000pt" height="318.000000pt" viewBox="0 0 1044.000000 318.000000"
 preserveAspectRatio="xMidYMid meet">
<metadata>
Created by potrace 1.16, written by Peter Selinger 2001-2019
</metadata>
<g transform="translate(0.000000,318.000000) scale(0.100000,-0.100000)"
fill="#000000" stroke="none">
<path d="M203 3173 c-21 -4 -38 -35 -32 -59 1 -5 -1 -17 -6 -27 -10 -24 8 -56
51 -91 24 -19 39 -25 46 -18 15 15 17 93 3 89 -7 -1 -24 12 -39 30 l-27 32 21
14 c17 12 27 12 50 4 32 -12 46 -6 37 18 -6 15 -51 18 -104 8z"/>
<path d="M428 3155 c-8 -18 -15 -22 -23 -15 -15 13 -25 3 -25 -27 0 -16 6 -23
20 -23 11 0 20 5 20 10 0 6 5 10 10 10 19 0 11 -87 -11 -124 -12 -20 -25 -36
-30 -36 -5 0 -9 -9 -9 -21 0 -12 -8 -23 -19 -26 -11 -3 -22 -11 -25 -19 -8
-22 -34 -16 -38 8 -2 12 -9 23 -17 26 -11 4 -12 -3 -7 -34 8 -41 31 -74 51
-74 26 0 49 -54 53 -122 2 -40 -1 -68 -7 -68 -5 0 -11 5 -13 12 -6 18 -28 -1
-28 -25 0 -14 13 -30 36 -45 28 -18 35 -29 33 -50 -3 -36 11 -82 24 -82 9 0
26 16 92 89 l19 22 -27 -6 c-17 -5 -27 -3 -27 4 0 6 5 11 10 11 6 0 16 11 22
25 6 14 14 25 18 25 4 0 22 -21 39 -47 30 -46 30 -48 11 -57 -26 -12 -25 -22
5 -62 18 -24 30 -31 46 -27 25 7 39 -11 39 -49 0 -64 35 -78 72 -28 12 17 25
30 29 30 15 0 19 -34 4 -50 -19 -21 -19 -30 0 -30 8 0 19 9 25 20 6 11 17 20
25 20 20 0 19 -39 0 -46 -8 -4 -15 -15 -15 -25 0 -10 -6 -19 -14 -19 -24 0
-36 -24 -27 -56 9 -28 12 -28 15 -1 0 6 16 13 34 15 27 3 32 7 32 29 0 14 7
41 17 60 l16 35 19 -23 c11 -15 16 -33 13 -48 -6 -25 17 -50 46 -51 9 0 22 -7
29 -15 8 -9 21 -13 36 -9 19 5 24 2 24 -14 0 -12 4 -24 10 -27 5 -3 17 -21 26
-40 9 -19 20 -35 25 -35 5 0 9 -7 9 -15 0 -18 17 -20 22 -3 2 6 10 8 16 4 17
-10 15 -26 -3 -26 -22 0 -18 -17 5 -23 11 -3 24 -16 29 -29 5 -13 16 -29 24
-36 8 -7 18 -24 22 -39 7 -31 28 -53 49 -53 19 0 20 -4 4 -30 -10 -16 -10 -24
0 -38 7 -9 18 -29 25 -44 6 -16 15 -28 19 -28 4 0 8 -9 8 -20 0 -14 -7 -20
-21 -20 -18 0 -20 2 -8 16 10 13 10 17 -2 24 -27 17 -34 -8 -11 -40 12 -16 22
-34 22 -39 0 -6 7 -14 15 -19 9 -4 19 -21 24 -38 4 -16 18 -34 32 -41 13 -7
29 -20 36 -29 11 -15 16 -15 43 -4 38 16 42 12 30 -30 -7 -26 -6 -39 5 -57 18
-28 12 -28 -60 -6 -34 11 -57 24 -61 35 -6 20 -24 25 -24 6 0 -7 -24 12 -53
41 -29 28 -71 61 -95 71 -38 17 -172 143 -172 163 0 4 -11 7 -25 7 -18 0 -25
5 -25 20 0 11 -13 31 -29 46 -16 14 -31 38 -34 52 -4 20 -17 32 -47 46 -28 12
-51 33 -74 69 -19 29 -69 91 -112 138 -44 48 -92 103 -109 123 -74 90 -140
156 -155 156 -9 0 -25 9 -36 21 -14 16 -28 20 -61 17 -47 -3 -50 -2 -29 21 8
9 17 37 21 63 6 41 5 49 -11 55 -12 4 -22 0 -32 -15 -17 -25 -32 -29 -32 -7 0
8 -6 15 -13 15 -20 0 -37 -22 -37 -47 0 -16 -6 -23 -20 -23 -11 0 -21 6 -21
13 -2 22 3 42 12 47 5 4 11 19 15 36 4 22 0 34 -16 49 -20 18 -21 18 -42 -3
-21 -20 -21 -22 -5 -64 10 -24 17 -55 17 -70 0 -14 9 -32 20 -39 14 -10 17
-18 10 -29 -8 -12 -13 -13 -30 -2 -33 20 -60 15 -60 -11 0 -13 -8 -32 -19 -41
-10 -9 -21 -30 -24 -45 -8 -41 3 -101 19 -101 7 0 18 -9 24 -20 8 -15 4 -29
-20 -68 -35 -57 -38 -92 -10 -117 11 -10 20 -26 20 -36 0 -24 20 -35 31 -18 8
12 11 12 19 -1 6 -10 4 -22 -5 -37 -8 -12 -15 -36 -15 -52 0 -16 -5 -33 -10
-36 -16 -10 -12 -22 15 -51 22 -24 25 -25 32 -9 8 22 81 95 95 95 5 0 8 -3 6
-7 -28 -54 -40 -95 -41 -140 -1 -51 -2 -53 -29 -53 -24 0 -30 5 -35 30 -3 17
-10 33 -15 36 -17 11 -2 -50 25 -104 27 -51 28 -52 50 -37 29 21 47 19 47 -5
0 -16 7 -20 35 -20 29 0 36 4 41 25 9 35 -12 57 -46 50 -31 -7 -61 18 -43 36
8 8 13 7 17 0 13 -21 35 -11 38 16 3 25 7 28 40 28 32 0 38 -3 38 -22 0 -55
57 -113 113 -113 32 0 45 -12 49 -44 4 -34 -17 -47 -25 -15 -6 24 -30 21 -35
-4 -2 -10 3 -17 12 -17 12 0 14 -7 9 -31 -4 -24 -2 -34 10 -41 38 -21 59 -108
26 -108 -15 0 -10 -57 6 -70 12 -10 19 -10 27 -2 7 7 17 12 23 12 15 0 45 -53
45 -80 0 -23 -8 -23 -52 -5 -13 5 -18 2 -18 -10 0 -25 -34 -14 -38 13 -4 23
-36 47 -51 37 -5 -3 -20 -1 -34 4 -18 7 -26 20 -32 47 -6 32 -3 40 17 56 22
18 34 18 71 3 14 -6 17 -2 17 24 0 28 -3 31 -30 31 -16 0 -30 5 -30 10 0 6 -5
10 -11 10 -6 0 -8 -9 -4 -21 6 -19 4 -21 -19 -15 -18 4 -26 2 -27 -6 0 -7 -5
0 -9 16 -8 25 -5 33 22 57 16 16 34 29 39 29 16 0 9 20 -8 26 -10 3 -26 10
-35 15 -23 12 -55 12 -63 -1 -3 -5 -27 -8 -53 -6 -42 4 -47 7 -50 30 -3 20 -9
26 -27 26 -18 0 -24 -7 -30 -37 -6 -32 -3 -40 16 -56 18 -14 20 -21 12 -40
-13 -28 0 -57 26 -57 26 0 44 25 36 49 -4 13 1 27 15 41 26 26 46 21 42 -11
-1 -13 -3 -39 -3 -56 -1 -20 -6 -33 -14 -33 -19 0 -25 -37 -9 -51 8 -6 18 -29
24 -50 10 -35 14 -38 55 -45 24 -3 50 -13 57 -22 11 -13 10 -15 -11 -9 -18 4
-24 1 -28 -14 -3 -10 -14 -19 -25 -19 -26 0 -20 -34 7 -38 19 -3 85 -66 85
-81 0 -5 11 -13 25 -19 14 -7 25 -20 25 -31 0 -10 9 -25 21 -32 16 -11 19 -20
14 -42 -10 -37 -32 -45 -51 -18 -9 12 -20 19 -25 16 -5 -4 -9 7 -9 24 0 22 -7
33 -27 43 -14 7 -31 22 -37 32 -15 27 -44 56 -55 56 -16 0 -51 -57 -45 -73 3
-9 -5 -29 -17 -46 l-22 -31 -11 23 c-8 15 -24 24 -51 27 -22 3 -47 10 -55 15
-8 5 -19 10 -25 10 -5 0 -10 5 -10 10 0 6 20 10 45 10 40 0 45 3 48 24 2 13
-1 28 -7 34 -6 6 -11 28 -11 48 0 24 -5 39 -15 43 -8 3 -15 15 -15 26 0 34
-19 22 -30 -19 -5 -21 -19 -50 -30 -64 -14 -17 -17 -28 -10 -32 8 -5 7 -12 -3
-23 -30 -35 -38 -61 -26 -83 9 -18 7 -27 -11 -51 -12 -16 -19 -32 -16 -35 3
-3 25 4 49 16 24 11 46 21 48 21 9 0 7 -70 -2 -76 -5 -3 -9 -18 -9 -35 0 -19
-5 -29 -15 -29 -7 0 -18 -6 -22 -13 -4 -8 -16 -16 -26 -20 -27 -10 -20 -45 18
-98 19 -27 35 -56 35 -64 0 -18 37 -38 56 -31 24 9 17 69 -11 94 -14 12 -25
33 -25 46 0 14 -5 28 -10 31 -16 10 8 35 32 35 25 0 34 26 20 64 -15 38 -2 54
30 39 19 -9 26 -7 44 15 l21 26 12 -22 c16 -30 7 -42 -31 -42 -22 0 -29 -4
-25 -14 17 -44 18 -88 2 -135 -15 -45 -15 -53 -1 -79 8 -16 12 -32 9 -36 -4
-3 3 -16 15 -29 13 -13 21 -35 21 -52 -1 -17 2 -41 6 -54 7 -21 5 -23 -9 -18
-10 4 -28 7 -41 7 -22 0 -25 6 -31 51 -6 48 -8 50 -33 44 -52 -13 -71 -33 -71
-75 0 -30 6 -43 26 -59 l26 -20 -30 -49 c-37 -60 -49 -121 -30 -162 17 -39 31
-43 61 -19 14 10 32 19 41 19 21 0 21 -34 -1 -56 -16 -16 -16 -18 5 -34 32
-26 109 -40 222 -40 70 0 100 4 103 13 3 9 9 9 28 -1 19 -10 495 -12 2384 -10
l2360 3 -52 24 c-46 20 -53 27 -53 53 0 39 -24 46 -52 15 -31 -34 -68 -22 -68
22 0 16 -3 37 -6 46 -9 24 -51 37 -75 25 -26 -14 -55 2 -63 36 -9 36 -5 37 35
9 28 -20 42 -23 82 -18 41 5 47 8 47 29 0 13 -4 24 -9 24 -5 0 -14 14 -20 30
-5 17 -14 30 -20 30 -5 0 -14 14 -20 30 -6 18 -17 30 -28 30 -10 0 -36 7 -58
14 -48 17 -60 39 -16 30 24 -5 31 -3 31 9 0 9 -7 20 -16 25 -13 7 -14 11 -4
17 8 5 19 0 29 -13 9 -12 30 -23 46 -26 54 -6 84 -23 78 -44 -5 -21 20 -52 43
-52 9 0 14 -10 14 -27 0 -16 9 -43 20 -60 17 -29 23 -32 44 -23 22 8 29 5 56
-28 16 -20 30 -46 30 -58 0 -30 27 -52 36 -30 7 17 29 22 38 7 3 -5 -2 -19
-13 -32 -17 -21 -17 -25 -3 -61 l15 -38 68 0 67 0 7 40 c9 51 -1 79 -31 90
-29 11 -41 37 -26 52 9 9 17 7 31 -6 46 -41 53 25 9 84 -12 17 -35 39 -51 49
-26 16 -32 17 -72 3 -32 -10 -55 -12 -82 -5 -31 7 -42 17 -65 61 l-27 52 24
16 c22 14 26 14 53 -6 22 -17 34 -20 48 -12 11 5 72 12 137 14 104 5 121 3
135 -12 9 -10 38 -27 65 -38 38 -17 47 -18 47 -6 0 8 7 14 15 14 8 0 15 9 15
20 0 11 -5 20 -11 20 -6 0 -9 12 -7 28 4 40 32 35 36 -7 3 -31 5 -33 38 -29
31 4 37 0 56 -29 18 -30 22 -32 37 -20 9 8 27 18 39 22 17 5 22 12 19 25 -8
29 83 26 115 -3 23 -21 27 -22 58 -9 44 18 60 10 59 -30 0 -18 1 -44 3 -58 3
-22 -1 -25 -30 -28 -25 -3 -32 -7 -28 -19 3 -8 6 -25 6 -38 0 -28 81 -88 105
-79 9 4 15 0 15 -10 0 -9 -5 -16 -11 -16 -6 0 -9 -6 -6 -14 3 -7 -8 -30 -25
-50 -43 -52 -33 -66 48 -66 48 0 65 3 62 13 -3 6 -15 14 -29 15 -34 5 -43 17
-35 46 6 23 9 24 32 16 14 -6 46 -10 72 -10 26 0 60 -7 76 -15 15 -8 41 -15
56 -15 43 0 58 -9 53 -31 -5 -18 2 -19 231 -19 171 0 242 3 256 12 16 10 24
10 40 0 24 -15 62 -16 77 -1 8 8 13 8 17 0 4 -6 18 -11 32 -11 20 0 25 4 22
22 -2 14 2 23 10 22 6 -1 23 -2 36 -2 15 -1 27 -10 31 -22 5 -16 15 -20 51
-20 29 0 43 4 42 12 -2 6 5 14 15 16 10 2 17 -2 17 -12 0 -14 16 -16 98 -16
92 0 100 2 122 25 30 32 44 32 58 0 9 -20 19 -25 47 -25 42 0 48 24 9 34 -23
6 -26 11 -21 35 3 15 1 33 -6 40 -15 15 6 36 28 28 11 -5 14 -14 9 -31 -7 -28
25 -56 63 -56 16 0 23 -6 23 -20 0 -11 6 -23 14 -26 16 -6 66 17 86 40 15 20
40 4 40 -25 0 -14 7 -19 29 -19 29 0 30 1 24 37 -8 46 -30 73 -61 73 -13 0
-39 15 -59 35 -20 19 -42 35 -50 35 -7 0 -26 14 -41 31 -26 29 -29 30 -44 16
-15 -15 -19 -15 -50 1 l-33 17 49 5 c44 5 59 14 72 48 5 12 37 -17 49 -43 10
-25 26 -39 62 -55 l48 -21 14 20 c17 26 41 27 74 1 31 -25 105 -28 113 -5 9
22 37 19 30 -3 -3 -9 -8 -29 -11 -44 -4 -15 -18 -34 -32 -43 -23 -16 -25 -15
-30 4 -4 15 -13 21 -32 21 -24 0 -28 -4 -28 -32 0 -38 25 -71 68 -88 24 -10
33 -9 61 7 30 18 33 23 31 66 -1 26 2 47 7 47 5 0 29 -9 55 -20 57 -24 55 -24
55 0 0 12 -10 25 -25 32 -32 14 -32 55 0 49 11 -2 44 -3 73 -2 47 2 53 0 62
-24 10 -27 21 -30 50 -15 13 7 21 6 30 -5 9 -11 4 -19 -29 -41 -23 -15 -41
-35 -41 -44 0 -18 -25 -34 -40 -25 -5 3 -20 0 -34 -6 -21 -10 -29 -9 -44 4
-10 10 -21 17 -25 17 -9 0 -37 -30 -37 -41 0 -5 69 -9 162 -9 89 0 158 3 154
7 -4 4 -24 7 -44 8 -33 0 -37 3 -40 29 -2 19 0 26 8 21 6 -4 23 -4 37 0 23 5
24 9 18 42 l-6 36 37 -6 c39 -7 64 5 64 30 0 8 12 24 26 37 24 20 25 23 10 38
-22 23 -20 30 7 26 12 -2 27 -13 32 -26 15 -35 54 -40 76 -11 48 65 48 65 59
49 5 -8 10 -27 10 -42 0 -15 4 -29 9 -32 14 -9 1 -45 -20 -51 -10 -3 -34 -3
-54 1 -37 7 -41 1 -29 -43 4 -14 17 -24 35 -28 16 -4 29 -13 29 -21 0 -16 18
-18 40 -4 10 6 20 4 32 -7 23 -21 50 -9 46 19 -4 29 43 53 72 38 27 -15 38
-12 50 10 9 17 5 22 -30 39 -22 10 -49 17 -61 14 -15 -4 -22 0 -26 15 -3 12
-13 24 -22 27 -17 5 -28 55 -13 55 5 0 22 -13 38 -30 20 -21 39 -30 62 -30 18
0 47 -7 64 -16 17 -9 39 -13 50 -11 15 4 18 1 14 -16 -3 -12 -3 -16 0 -10 9
20 84 37 98 23 8 -9 5 -16 -11 -27 -25 -17 -30 -39 -10 -46 6 -2 8 -8 4 -13
-4 -5 -11 -4 -15 1 -4 6 -22 10 -39 11 -32 1 -33 0 -33 -42 0 -33 5 -46 19
-54 30 -15 71 -13 71 5 0 20 24 19 41 -1 11 -14 27 -16 86 -11 41 3 85 13 101
23 33 19 67 13 58 -11 -4 -12 5 -15 53 -15 44 0 60 4 65 16 3 8 10 12 16 9 6
-4 8 -11 5 -16 -4 -5 146 -9 384 -9 l391 0 0 1590 0 1590 -733 0 c-573 0 -736
-3 -746 -12 -11 -11 -14 -10 -18 0 -4 10 -633 12 -3128 12 -3110 0 -3123 0
-3128 -20 -7 -26 -27 -26 -34 0 -5 20 -14 20 -379 20 -313 0 -374 -2 -374 -14
0 -8 -7 -17 -16 -20 -13 -5 -15 -2 -11 14 5 19 0 20 -109 18 -88 -1 -114 -5
-114 -15 0 -7 11 -19 25 -25 34 -15 31 -35 -5 -35 -25 0 -30 4 -30 24 0 14 -7
32 -16 40 -13 14 -17 14 -25 2 -5 -8 -9 -17 -9 -21 0 -17 -18 -7 -23 12 -8 31
-47 27 -47 -5 0 -14 -4 -25 -10 -25 -5 0 -10 12 -10 28 -1 25 -1 26 -15 8 -14
-19 -52 -15 -40 4 4 6 -15 10 -49 10 -47 0 -56 -3 -56 -17 0 -13 -9 -18 -30
-19 -30 -1 -42 19 -17 29 6 3 0 6 -15 6 -15 1 -31 -6 -36 -14 -8 -16 -42 -11
-42 6 0 5 -16 9 -35 9 -19 0 -35 -4 -35 -10 0 -5 4 -10 8 -10 5 0 18 -22 30
-50 16 -36 27 -50 42 -50 19 0 24 10 21 38 -1 6 2 12 7 12 14 0 32 -23 32 -42
0 -10 6 -18 14 -18 22 0 30 19 12 26 -27 10 -20 35 8 28 15 -3 29 1 40 11 9 9
16 13 16 8 0 -4 5 0 11 10 12 21 29 22 29 2 0 -8 9 -31 21 -51 25 -45 20 -71
-11 -52 -11 7 -20 19 -20 26 0 20 -43 32 -59 17 -17 -16 -7 -47 13 -39 26 10
30 -18 5 -37 -31 -24 -42 -24 -54 3 -7 16 -19 23 -43 24 -24 1 -31 -1 -23 -9
6 -6 11 -19 11 -29 0 -10 6 -18 14 -18 16 0 28 -60 15 -74 -5 -6 -9 -20 -9
-33 0 -16 6 -23 20 -23 15 0 20 7 20 29 0 16 7 34 15 41 8 7 15 16 15 21 0 4
11 19 24 33 27 30 62 36 51 9 -4 -10 -11 -33 -15 -52 -8 -33 -53 -80 -77 -81
-34 -1 -44 -123 -11 -143 25 -16 5 -47 -32 -47 -19 0 -30 -5 -30 -14 0 -24
-20 -29 -41 -10 -25 22 -24 44 1 44 23 0 26 18 7 44 -20 27 -62 18 -62 -14 0
-18 -9 -30 -32 -43 -34 -18 -40 -35 -23 -68 21 -38 -15 -20 -50 26 -19 26 -55
68 -80 95 -25 26 -63 71 -85 99 -49 62 -122 114 -150 107 -27 -7 -85 33 -85
60 0 44 69 84 146 84 51 0 67 -19 40 -49 -24 -27 -19 -41 13 -41 43 0 85 70
50 82 -9 3 -9 10 0 26 15 28 29 28 33 0 4 -33 32 -29 36 6 2 18 11 30 23 33
38 10 20 32 -28 35 -32 2 -47 7 -45 16 4 20 -20 13 -25 -8 -4 -15 -14 -20 -39
-20 -36 0 -49 25 -16 33 9 2 -46 5 -123 5 -79 1 -144 -3 -151 -9 -8 -7 -14 -7
-19 1 -3 5 -26 10 -51 10 -38 0 -46 -4 -56 -25z m3302 5 c0 -5 -2 -10 -4 -10
-3 0 -8 5 -11 10 -3 6 -1 10 4 10 6 0 11 -4 11 -10z m4090 -20 c0 -5 -4 -10
-10 -10 -5 0 -10 5 -10 10 0 6 5 10 10 10 6 0 10 -4 10 -10z m-7260 -20 c0 -5
-4 -10 -9 -10 -6 0 -13 5 -16 10 -3 6 1 10 9 10 9 0 16 -4 16 -10z m2240 -7
c0 -22 -17 -49 -25 -41 -8 8 5 58 16 58 5 0 9 -8 9 -17z m216 -29 c-5 -13 -10
-14 -18 -6 -6 6 -8 18 -4 28 5 13 10 14 18 6 6 -6 8 -18 4 -28z m-1261 16 c3
-5 1 -10 -4 -10 -6 0 -11 5 -11 10 0 6 2 10 4 10 3 0 8 -4 11 -10z m805 -10
c0 -5 -5 -10 -11 -10 -5 0 -7 5 -4 10 3 6 8 10 11 10 2 0 4 -4 4 -10z m-820
-40 c0 -11 -4 -20 -10 -20 -5 0 -10 -7 -10 -16 0 -8 -4 -12 -10 -9 -11 7 -14
48 -3 58 13 14 33 6 33 -13z m557 -42 c-3 -8 -6 -5 -6 6 -1 11 2 17 5 13 3 -3
4 -12 1 -19z m214 -1 c-13 -13 -26 -3 -16 12 3 6 11 8 17 5 6 -4 6 -10 -1 -17z
m-431 -3 c0 -8 -4 -12 -10 -9 -5 3 -10 10 -10 16 0 5 5 9 10 9 6 0 10 -7 10
-16z m522 -26 c-10 -10 -15 -10 -21 1 -5 8 -7 21 -4 28 5 12 8 12 21 -1 13
-13 14 -18 4 -28z m-762 2 c5 -34 0 -49 -15 -44 -20 8 -29 42 -14 60 13 16 26
9 29 -16z m336 -5 c18 -45 18 -52 -6 -58 -16 -4 -20 0 -20 21 0 15 -3 37 -6
50 -10 36 15 26 32 -13z m-156 -21 c0 -8 -4 -12 -10 -9 -5 3 -10 10 -10 16 0
5 5 9 10 9 6 0 10 -7 10 -16z m-434 -30 c24 -19 44 -42 44 -49 0 -8 8 -18 17
-24 10 -5 15 -13 11 -16 -4 -4 -22 5 -41 19 -22 17 -38 23 -42 17 -13 -23 -35
-11 -35 18 0 17 -4 33 -10 36 -14 8 -13 35 1 35 7 0 32 -16 55 -36z m7134 17
c19 -36 13 -54 -16 -47 -29 8 -28 13 -8 -69 5 -21 3 -25 -15 -25 -11 0 -22 6
-22 13 -2 21 -5 31 -13 50 -9 19 16 82 37 90 21 9 26 7 37 -12z m-6220 -1 c0
-5 -4 -10 -10 -10 -5 0 -10 5 -10 10 0 6 5 10 10 10 6 0 10 -4 10 -10z m130
-5 c0 -8 -4 -15 -10 -15 -5 0 -10 7 -10 15 0 8 5 15 10 15 6 0 10 -7 10 -15z
m-1180 -15 c21 -21 26 -56 10 -80 -5 -8 -10 -13 -11 -10 -8 45 -11 56 -19 64
-10 10 -14 46 -5 46 3 0 14 -9 25 -20z m6520 -25 c0 -26 -14 -33 -25 -15 -9
14 1 40 15 40 5 0 10 -11 10 -25z m-6235 -5 c0 -8 -10 -16 -22 -18 -25 -4 -26
-2 -17 23 8 19 39 16 39 -5z m145 5 c7 -8 20 -15 29 -15 20 -1 66 -38 57 -47
-4 -4 -16 -2 -27 5 -25 16 -35 10 -45 -30 l-8 -33 -4 39 c-2 22 -10 49 -18 60
-24 35 -10 53 16 21z m-90 -25 c0 -11 -7 -20 -15 -20 -15 0 -21 21 -8 33 12
13 23 7 23 -13z m1630 -10 c-11 -21 -31 -23 -37 -4 -3 8 37 33 45 28 2 -1 -2
-12 -8 -24z m-190 10 c0 -5 -2 -10 -4 -10 -3 0 -8 5 -11 10 -3 6 -1 10 4 10 6
0 11 -4 11 -10z m398 -37 c3 -40 2 -41 -34 -48 -41 -7 -54 3 -54 43 0 19 4 22
20 17 13 -4 23 0 32 14 19 30 33 20 36 -26z m-1464 21 c3 -8 2 -12 -4 -9 -6 3
-10 10 -10 16 0 14 7 11 14 -7z m280 -9 c-6 -16 -34 -21 -34 -7 0 13 11 22 26
22 8 0 11 -6 8 -15z m432 -12 c-10 -10 -19 5 -10 18 6 11 8 11 12 0 2 -7 1
-15 -2 -18z m884 -14 c0 -16 5 -29 10 -29 6 0 15 -11 21 -24 15 -32 -16 -107
-39 -98 -13 4 -14 -2 -9 -36 4 -24 3 -43 -3 -47 -7 -4 -7 -12 0 -25 5 -10 10
-31 10 -46 0 -24 3 -26 30 -20 25 4 30 2 30 -13 0 -10 -6 -24 -14 -30 -18 -15
-27 -49 -15 -57 5 -3 9 -16 9 -30 0 -14 7 -39 16 -55 14 -28 14 -33 -1 -55
-21 -32 -36 -30 -29 4 7 36 -56 108 -82 94 -9 -5 -25 -7 -36 -4 -10 2 -27 -3
-38 -13 -18 -16 -20 -16 -26 -1 -3 9 -4 33 -2 54 4 24 -1 50 -14 76 l-20 39
31 28 c33 30 40 49 17 49 -7 0 -19 7 -27 16 -7 8 -21 13 -31 11 -11 -3 -18 0
-18 9 0 8 5 14 11 14 6 0 9 7 5 15 -7 20 21 46 41 38 14 -5 15 -1 10 30 -4 28
-2 37 9 37 8 0 14 -9 14 -20 0 -31 36 -26 44 6 7 25 8 26 27 9 16 -15 23 -16
44 -7 30 14 31 22 5 55 -29 37 -25 72 6 60 8 -3 14 -18 14 -34z m-1673 9 c-3
-8 -6 -5 -6 6 -1 11 2 17 5 13 3 -3 4 -12 1 -19z m-1677 -6 c0 -13 -12 -22
-22 -16 -10 6 -1 24 13 24 5 0 9 -4 9 -8z m990 -22 c0 -5 9 -10 21 -10 15 0
19 -4 14 -19 -7 -23 8 -35 35 -26 12 4 20 15 20 28 0 20 0 20 15 1 14 -18 16
-18 29 -1 16 21 46 13 46 -12 0 -9 5 -22 12 -29 9 -9 9 -18 -1 -38 -9 -22 -9
-30 2 -43 9 -10 13 -28 10 -47 -4 -27 -1 -34 26 -47 l31 -15 -6 41 c-4 23 -7
44 -7 47 -1 13 23 57 37 69 21 17 46 7 46 -19 0 -18 -3 -19 -21 -10 -11 7 -22
10 -23 8 -15 -23 -23 -58 -16 -63 6 -4 10 -13 10 -22 0 -9 8 -22 18 -29 16
-12 16 -13 0 -19 -13 -5 -18 -18 -18 -46 0 -28 -5 -41 -20 -49 -24 -13 -27
-40 -5 -40 20 0 30 -26 17 -43 -5 -6 -13 -31 -17 -54 -4 -29 -12 -43 -26 -46
-11 -3 -19 -14 -19 -27 0 -16 5 -21 23 -18 13 2 29 -5 39 -17 20 -24 37 -12
20 15 -12 20 -17 60 -6 60 3 0 13 -7 21 -16 15 -14 17 -14 26 2 7 13 5 20 -8
30 -9 7 -24 25 -31 39 -12 24 -12 26 2 21 9 -3 27 -6 40 -6 17 0 24 -5 24 -20
0 -13 10 -24 26 -30 25 -10 26 -14 22 -60 -5 -45 -2 -52 26 -79 29 -29 33 -30
53 -16 12 8 28 13 35 10 8 -3 28 -1 44 5 20 8 30 8 32 1 6 -18 42 -13 42 5 0
12 7 15 30 12 24 -4 30 -1 30 14 0 10 7 18 15 18 8 0 19 10 26 21 10 19 13 20
26 6 17 -16 14 -22 -31 -67 -24 -24 -14 -54 15 -47 30 8 61 -21 48 -46 -8 -14
-7 -23 6 -37 15 -17 14 -18 -17 -23 -18 -2 -42 0 -53 6 -19 10 -19 10 3 20 31
14 30 55 -3 63 -18 4 -33 -1 -56 -20 -37 -31 -32 -31 -104 -6 -49 17 -64 18
-96 8 -42 -12 -92 -2 -157 34 -40 22 -115 24 -132 3 -7 -8 -19 -15 -28 -15
-18 0 -100 38 -107 50 -5 8 14 33 56 80 16 17 16 20 -1 48 -10 17 -28 33 -40
37 -35 11 -52 -14 -52 -81 l-1 -59 -36 41 c-20 23 -47 44 -59 49 -40 12 -69
106 -36 119 8 3 13 10 10 15 -9 14 18 31 42 24 12 -3 22 -13 23 -22 1 -9 7 7
14 35 7 28 15 57 19 63 4 6 2 20 -5 33 -9 18 -9 24 5 34 29 21 11 82 -30 102
-36 17 -44 39 -18 49 12 4 14 14 9 44 -6 37 -5 39 19 39 14 0 26 -4 26 -10z
m385 -21 c4 -6 0 -16 -8 -22 -8 -7 -17 -20 -19 -30 -5 -28 -23 -16 -20 13 6
41 33 63 47 39z m795 -9 c0 -11 -7 -20 -15 -20 -15 0 -21 21 -8 33 12 13 23 7
23 -13z m-2135 -48 c-6 -16 -7 -16 -16 0 -7 13 -6 22 3 32 11 12 13 12 16 -1
2 -8 1 -22 -3 -31z m1955 17 c0 -6 -4 -7 -10 -4 -5 3 -10 11 -10 16 0 6 5 7
10 4 6 -3 10 -11 10 -16z m-564 -35 c3 -16 9 -30 15 -32 16 -6 10 -22 -10 -22
-15 0 -20 9 -23 41 -5 58 8 68 18 13z m243 -42 c-1 -20 1 -47 5 -59 10 -30 1
-42 -24 -36 -17 4 -20 13 -18 52 0 25 0 51 -2 56 -1 6 -2 18 -1 28 1 15 4 16
22 7 16 -9 20 -20 18 -48z m7021 28 c0 -25 -41 -28 -64 -4 -23 22 -21 24 24
24 33 0 40 -3 40 -20z m-150 -33 l0 -21 -21 21 c-12 11 -18 26 -14 32 10 17
35 -6 35 -32z m-6743 -17 c0 -46 -5 -45 -23 5 -10 31 -10 35 6 35 14 0 17 -9
17 -40z m-285 -95 c9 -9 -19 -119 -31 -123 -10 -3 -12 5 -6 34 3 22 6 63 6 92
-2 66 11 91 20 39 3 -20 8 -39 11 -42z m-1477 17 c0 -23 -4 -42 -10 -42 -13 0
-28 58 -21 77 11 29 31 6 31 -35z m1539 33 c3 -8 12 -15 20 -15 28 0 27 -20
-1 -45 -23 -20 -30 -22 -39 -10 -11 15 -7 85 6 85 4 0 10 -7 14 -15z m1796
-16 c0 -5 -4 -9 -10 -9 -5 0 -10 7 -10 16 0 8 5 12 10 9 6 -3 10 -10 10 -16z
m3090 0 c0 -25 -33 -22 -38 4 -2 12 3 17 17 17 15 0 21 -6 21 -21z m-4622 -31
c7 -7 12 -29 12 -49 0 -21 5 -41 10 -44 6 -3 10 -20 10 -36 0 -27 -2 -29 -21
-19 -33 18 -61 8 -73 -27 l-11 -31 -35 29 c-30 26 -33 32 -22 49 6 11 12 40
12 65 0 40 3 45 26 51 29 7 57 -20 48 -48 -7 -22 3 -23 23 -2 13 12 13 20 4
40 -6 14 -11 27 -11 29 0 9 16 5 28 -7z m6732 -62 c0 -41 -49 -49 -66 -11 -14
29 -14 29 30 32 32 3 36 0 36 -21z m-5042 -33 c-4 -22 -22 -20 -26 1 -2 10 3
16 13 16 10 0 15 -7 13 -17z m-534 -9 c4 -10 1 -14 -6 -12 -15 5 -23 28 -10
28 5 0 13 -7 16 -16z m4626 6 c0 -5 -4 -10 -10 -10 -5 0 -10 5 -10 10 0 6 5
10 10 10 6 0 10 -4 10 -10z m-4580 -10 c0 -5 -7 -10 -16 -10 -8 0 -12 5 -9 10
3 6 10 10 16 10 5 0 9 -4 9 -10z m4925 -31 c0 -7 -8 -15 -17 -17 -18 -3 -25
18 -11 32 10 10 28 1 28 -15z m-5519 -66 c-4 -4 -13 -1 -19 8 -7 9 -22 19 -35
23 -12 4 -22 13 -22 20 0 28 16 25 49 -8 19 -20 31 -39 27 -43z m-1022 27
c-14 -14 -38 5 -30 26 6 16 8 16 23 1 11 -11 14 -20 7 -27z m7437 -6 c45 -23
32 -40 -29 -36 -40 3 -57 -1 -81 -19 -39 -28 -49 -19 -28 25 13 27 23 36 49
39 18 2 39 5 46 5 7 1 27 -5 43 -14z m-7171 -13 c0 -5 -7 -14 -15 -21 -16 -14
-18 -10 -9 14 6 17 24 22 24 7z m1409 -30 c8 -14 6 -28 -8 -55 -15 -31 -19
-35 -30 -23 -15 19 -4 97 15 97 7 0 18 -8 23 -19z m5959 7 c-7 -19 -38 -22
-38 -4 0 10 9 16 21 16 12 0 19 -5 17 -12z m-7331 -14 c7 -20 -14 -67 -27 -59
-17 10 -12 75 5 75 9 0 18 -7 22 -16z m1596 -54 c2 -40 -15 -49 -32 -16 -10
18 -10 28 -1 46 15 28 31 14 33 -30z m4763 39 c3 -6 1 -16 -5 -22 -8 -8 -14
-7 -23 5 -7 9 -24 19 -38 21 -16 3 -10 5 17 6 23 0 45 -4 49 -10z m1334 4 c-1
-20 -19 -35 -35 -29 -14 5 -15 9 -5 21 13 16 40 21 40 8z m-7900 -27 c0 -7 -7
-19 -15 -26 -8 -7 -15 -18 -15 -25 0 -7 -7 -18 -15 -25 -12 -10 -16 -9 -21 5
-5 11 -1 21 10 27 9 5 21 21 26 34 10 26 30 33 30 10z m5070 -37 c0 -8 -26
-19 -46 -19 -17 0 -18 22 -3 37 9 9 16 9 30 0 11 -7 19 -15 19 -18z m153 19
c12 -7 29 -18 37 -25 8 -6 31 -15 50 -20 30 -8 35 -14 38 -41 3 -28 0 -32 -21
-32 -17 0 -28 -9 -39 -33 -15 -30 -15 -36 0 -60 13 -21 14 -29 4 -39 -18 -18
-40 8 -43 52 -2 19 -14 49 -26 66 -13 17 -23 38 -23 46 0 23 -23 38 -71 46
-56 10 -62 37 -7 37 20 0 40 3 44 8 11 10 31 9 57 -5z m-4453 -33 c0 -4 -16
-23 -36 -43 l-36 -37 8 30 c4 17 14 35 23 42 17 13 41 17 41 8z m4205 -5 c-3
-5 -13 -10 -21 -10 -8 0 -12 5 -9 10 3 6 13 10 21 10 8 0 12 -4 9 -10z m2745
6 c0 -18 -15 -36 -31 -36 -17 0 -18 3 -7 20 11 17 38 28 38 16z m-8569 -21 c0
-6 -7 -12 -16 -13 -23 -5 -65 7 -65 18 0 13 80 7 81 -5z m1407 -32 c16 -36 15
-52 -3 -60 -22 -8 -46 27 -34 49 5 9 6 24 3 32 -11 28 20 8 34 -21z m1228 11
c-4 -9 -9 -15 -11 -12 -3 3 -3 13 1 22 4 9 9 15 11 12 3 -3 3 -13 -1 -22z
m3694 -18 c0 -11 -19 -15 -25 -6 -3 5 1 10 9 10 9 0 16 -2 16 -4z m-4760 -83
c0 -17 -12 -16 -34 0 -16 12 -17 16 -5 35 l14 22 12 -23 c7 -12 12 -28 13 -34z
m4278 32 c1 -14 -3 -25 -8 -25 -6 0 -10 4 -10 9 0 5 -3 16 -6 25 -4 10 -1 16
8 16 7 0 15 -11 16 -25z m-3263 -4 c3 -5 1 -12 -5 -16 -5 -3 -10 1 -10 9 0 18
6 21 15 7z m-2335 -35 c-14 -14 -22 -2 -14 18 5 14 9 15 15 4 4 -7 4 -17 -1
-22z m-1170 -1 c0 -14 -4 -25 -10 -25 -5 0 -10 11 -10 25 0 14 5 25 10 25 6 0
10 -11 10 -25z m2120 15 c11 0 20 -10 24 -25 4 -14 17 -32 31 -41 33 -22 35
-59 3 -49 -13 4 -36 8 -53 10 -16 2 -35 11 -42 21 -17 24 -13 96 5 89 8 -3 22
-5 32 -5z m211 -25 c52 9 74 -12 70 -69 -3 -52 -14 -63 -45 -46 -14 7 -32 10
-42 6 -25 -9 -54 2 -47 20 3 9 -2 14 -17 14 -13 0 -20 5 -17 13 2 6 0 22 -4
34 -7 19 -4 25 19 37 24 12 28 12 35 -1 7 -11 19 -13 48 -8z m6298 11 c9 -10
5 -20 -18 -45 -35 -37 -52 -39 -85 -8 -29 27 -19 47 24 47 14 0 32 5 40 10 20
13 26 12 39 -4z m591 -22 c0 -15 -6 -24 -15 -24 -16 0 -19 17 -9 44 9 22 24
10 24 -20z m-535 16 c3 -5 -1 -10 -9 -10 -9 0 -16 5 -16 10 0 6 4 10 9 10 6 0
13 -4 16 -10z m-4602 -77 c-4 -94 -7 -103 -33 -103 -31 0 -37 29 -11 49 13 10
18 20 13 26 -5 6 -7 31 -4 58 3 36 8 47 21 47 14 0 16 -10 14 -77z m-2943 43
c0 -13 4 -26 9 -28 13 -4 18 -32 6 -36 -6 -1 -11 6 -13 18 -2 12 -11 20 -23
20 -14 0 -19 7 -19 25 0 18 5 25 20 25 14 0 20 -7 20 -24z m7580 -6 c0 -11 -4
-20 -10 -20 -5 0 -10 9 -10 20 0 11 5 20 10 20 6 0 10 -9 10 -20z m-8750 -5
c16 -19 3 -40 -16 -24 -15 13 -19 39 -5 39 5 0 14 -7 21 -15z m110 -19 c0 -8
-4 -18 -10 -21 -5 -3 -10 3 -10 14 0 12 5 21 10 21 6 0 10 -6 10 -14z m2480 1
c0 -14 -20 -37 -32 -37 -13 0 -9 38 5 43 21 9 27 7 27 -6z m240 -17 c8 -5 11
-12 7 -16 -4 -4 -2 -13 5 -21 6 -7 8 -17 4 -21 -4 -4 -14 2 -22 13 -8 11 -21
28 -29 38 -13 15 -13 17 3 17 9 0 24 -4 32 -10z m6740 -16 c14 -14 43 -33 67
-44 26 -11 48 -30 58 -49 13 -27 21 -31 54 -31 30 0 40 -4 44 -20 5 -19 22
-29 97 -55 36 -13 104 -97 97 -119 -5 -14 -60 -8 -69 8 -4 6 -5 19 -2 28 4 13
-2 21 -20 27 -13 6 -28 17 -33 26 -5 9 -25 20 -44 25 -125 33 -269 101 -269
127 0 21 -29 53 -48 53 -10 0 -7 7 9 25 30 31 30 31 59 -1z m-824 -15 c13 -15
26 -19 46 -15 15 3 30 1 33 -4 3 -6 -1 -10 -9 -10 -21 0 -20 -10 0 -25 12 -8
15 -20 10 -38 -8 -32 -29 -34 -56 -7 -11 11 -30 20 -42 20 -41 1 -132 26 -135
37 -3 7 8 20 22 29 25 17 28 17 37 1 12 -23 38 -21 38 2 0 17 11 28 31 30 3 1
14 -8 25 -20z m-1711 1 c3 -5 -1 -10 -9 -10 -9 0 -16 5 -16 10 0 6 4 10 9 10
6 0 13 -4 16 -10z m2102 4 c-3 -3 -12 -4 -19 -1 -8 3 -5 6 6 6 11 1 17 -2 13
-5z m86 -12 c-2 -8 10 -12 32 -12 42 0 47 -17 8 -25 -16 -3 -42 -10 -59 -15
-17 -6 -36 -10 -42 -10 -21 0 -13 20 14 32 18 8 24 17 20 30 -3 14 0 18 12 15
9 -2 16 -9 15 -15z m-6583 4 c0 -11 -19 -15 -25 -6 -3 5 1 10 9 10 9 0 16 -2
16 -4z m1723 -18 c6 -8 7 -24 3 -34 -6 -16 -9 -15 -21 10 -8 16 -15 33 -15 38
0 14 22 5 33 -14z m-4303 2 c0 -5 -4 -10 -10 -10 -5 0 -10 5 -10 10 0 6 5 10
10 10 6 0 10 -4 10 -10z m7115 -49 c-7 -7 -45 39 -44 54 0 6 11 -3 25 -19 14
-15 22 -31 19 -35z m2295 34 c0 -20 -5 -25 -24 -25 -26 0 -51 24 -41 40 3 5
19 10 36 10 24 0 29 -4 29 -25z m-8310 7 c0 -13 -12 -22 -22 -16 -10 6 -1 24
13 24 5 0 9 -4 9 -8z m1830 -23 c0 -20 -15 -26 -25 -9 -9 15 3 43 15 35 5 -3
10 -15 10 -26z m755 10 c11 -17 -1 -21 -15 -4 -8 9 -8 15 -2 15 6 0 14 -5 17
-11z m751 0 c10 -17 -13 -36 -27 -22 -12 12 -4 33 11 33 5 0 12 -5 16 -11z
m2544 1 c0 -5 -4 -10 -10 -10 -5 0 -10 5 -10 10 0 6 5 10 10 10 6 0 10 -4 10
-10z m-6990 -30 c0 -31 -16 -41 -26 -15 -5 13 11 45 22 45 2 0 4 -13 4 -30z
m3960 17 c0 -7 -9 -18 -20 -25 -18 -11 -20 -10 -20 13 0 18 5 25 20 25 11 0
20 -6 20 -13z m-2416 -9 c3 -7 7 -25 10 -40 7 -31 40 -39 50 -13 3 8 12 15 21
15 19 0 19 -36 0 -70 -8 -14 -14 -31 -15 -37 0 -16 42 -17 58 -1 9 9 17 7 36
-11 27 -26 40 -16 30 24 -8 33 9 32 35 -1 30 -38 28 -74 -4 -74 -14 0 -25 5
-25 10 0 6 -5 10 -11 10 -6 0 -1 -13 11 -30 l21 -30 33 25 c18 14 36 25 39 25
4 0 13 -13 22 -30 21 -41 47 -40 43 2 -5 47 15 44 40 -7 12 -25 28 -48 36 -51
7 -3 27 -24 43 -47 37 -52 55 -153 29 -163 -13 -5 -15 -16 -10 -55 5 -40 4
-50 -10 -55 -22 -8 -21 -60 2 -69 15 -6 14 -8 -7 -16 -18 -7 -22 -14 -17 -34
7 -27 -3 -31 -35 -15 -10 6 -19 20 -19 32 0 17 -4 20 -30 15 -17 -4 -30 -2
-30 3 0 6 -11 15 -25 20 -16 6 -25 18 -26 32 l0 23 -10 -23 c-10 -26 -32 -25
-37 2 -4 20 25 56 45 56 7 0 13 3 13 7 0 14 -34 43 -51 43 -10 0 -20 4 -24 9
-3 6 -17 3 -34 -6 -15 -9 -35 -13 -45 -10 -25 10 -9 27 25 27 29 0 30 1 23 38
-3 20 -17 49 -30 63 -24 25 -24 26 -5 43 16 15 18 23 9 46 -5 16 -18 32 -27
35 -10 3 -23 17 -29 30 -6 14 -18 25 -26 25 -9 0 -20 9 -26 20 -12 22 -79 60
-108 60 -10 0 -22 3 -25 7 -11 10 13 33 34 33 29 0 43 46 24 73 -8 12 -15 27
-15 34 0 17 19 17 24 1z m2736 -3 c0 -8 -4 -15 -9 -15 -5 0 -14 7 -21 15 -10
13 -9 15 9 15 12 0 21 -6 21 -15z m4788 1 c5 -6 12 -21 15 -33 4 -19 1 -23
-18 -23 -13 0 -25 7 -29 15 -3 8 -16 15 -29 15 -25 0 -52 22 -41 33 11 11 93
5 102 -7z m-5553 -6 c3 -5 1 -10 -4 -10 -6 0 -11 5 -11 10 0 6 2 10 4 10 3 0
8 -4 11 -10z m5313 1 c11 -7 11 -9 -1 -14 -16 -6 -27 0 -27 15 0 10 11 10 28
-1z m81 0 c19 -12 -4 -24 -30 -16 -17 6 -19 9 -8 16 17 11 21 11 38 0z m-8769
-11 c0 -5 -4 -10 -10 -10 -5 0 -10 5 -10 10 0 6 5 10 10 10 6 0 10 -4 10 -10z
m1076 -56 c-5 -13 -10 -14 -18 -6 -6 6 -8 18 -4 28 5 13 10 14 18 6 6 -6 8
-18 4 -28z m7116 1 c3 -13 3 -27 0 -30 -10 -10 -57 -4 -74 9 -21 15 -13 26 18
26 13 0 26 5 29 10 11 17 22 11 27 -15z m-6072 -19 c0 -12 -28 -55 -33 -50 -7
8 14 54 25 54 4 0 8 -2 8 -4z m-2080 -16 c0 -6 11 -8 26 -4 46 12 62 -40 17
-57 -23 -8 -30 -6 -50 14 -15 15 -21 29 -17 40 7 19 24 23 24 7z m7655 0 c4
-7 13 -6 27 1 36 19 90 -6 56 -27 -16 -10 -148 -13 -153 -3 -3 4 -2 14 1 23 7
18 59 22 69 6z m150 -10 c3 -5 -1 -10 -9 -10 -9 0 -16 5 -16 10 0 6 4 10 9 10
6 0 13 -4 16 -10z m-5971 -56 c8 -22 8 -44 -2 -44 -12 0 -33 40 -27 50 9 15
22 12 29 -6z m493 -10 c1 -5 -2 -16 -7 -24 -12 -20 -33 0 -24 24 7 17 25 17
31 0z m5161 -1 c-6 -29 -35 -39 -56 -20 -10 9 -26 17 -35 17 -9 0 -18 4 -21 8
-3 5 22 9 55 9 49 1 60 -2 57 -14z m-7130 -21 c4 -25 -6 -28 -33 -9 -10 8 -15
19 -11 26 12 19 41 8 44 -17z m682 13 c0 -8 -4 -15 -9 -15 -13 0 -22 16 -14
24 11 11 23 6 23 -9z m6220 -10 c0 -11 -11 -15 -36 -15 -31 0 -35 2 -24 15 7
8 23 15 36 15 15 0 24 -6 24 -15z m-120 -20 c0 -8 -7 -15 -16 -15 -14 0 -14 3
-4 15 7 8 14 15 16 15 2 0 4 -7 4 -15z m-2802 -36 c2 -30 1 -32 -9 -14 -7 11
-17 23 -22 26 -13 9 1 31 16 26 7 -2 13 -19 15 -38z m-1818 -5 c6 -14 23 -31
40 -37 17 -6 33 -19 36 -29 7 -23 53 -24 69 -1 11 15 13 15 20 -7 4 -13 29
-45 55 -70 46 -45 48 -48 34 -71 -7 -13 -16 -32 -20 -41 -10 -28 -34 -9 -34
27 0 34 -22 61 -40 50 -6 -4 -10 -28 -9 -53 3 -64 -26 -115 -46 -82 -3 6 -16
10 -29 10 -37 0 -86 21 -86 36 0 8 11 19 25 24 29 11 24 40 -6 40 -11 0 -22 7
-25 15 -4 8 -12 15 -20 15 -8 0 -14 5 -14 10 0 6 -10 20 -22 32 -13 13 -23 29
-23 38 0 8 -19 24 -42 35 -25 11 -43 26 -43 36 0 14 6 15 45 6 40 -9 48 -8 68
10 18 17 34 26 55 32 1 1 7 -11 12 -25z m-2195 -27 c0 -26 -20 -25 -23 2 -3
16 1 22 10 19 7 -3 13 -12 13 -21z m-125 -38 c0 -15 5 -19 15 -15 8 3 15 1 15
-5 0 -6 14 -28 30 -49 17 -21 30 -43 30 -49 0 -6 3 -10 8 -10 20 4 72 -27 72
-43 0 -27 -18 -31 -46 -9 -28 22 -88 19 -112 -6 -8 -7 -18 -11 -23 -8 -12 8
-12 112 1 120 17 11 11 50 -10 63 -11 7 -20 17 -20 22 0 6 9 10 20 10 14 0 20
-7 20 -21z m8272 -10 c2 -15 18 -28 55 -43 29 -11 53 -26 53 -33 0 -6 8 -14
18 -16 12 -3 10 -5 -8 -7 -14 -1 -30 -2 -37 -1 -6 1 -9 -6 -6 -17 2 -10 -2
-24 -9 -30 -19 -15 -58 11 -58 39 0 10 -4 19 -10 19 -5 0 -10 -4 -10 -9 0 -14
-45 -61 -58 -61 -6 0 -19 11 -29 24 -16 20 -26 23 -77 20 -61 -3 -106 11 -106
31 0 7 -9 20 -19 29 -24 22 -17 60 8 44 12 -7 27 -6 55 6 43 18 102 21 111 6
8 -13 82 -7 97 8 17 17 26 15 30 -9z m-8071 -6 c1 -10 0 -22 -1 -28 -2 -5 -2
-20 -2 -32 1 -13 -3 -23 -8 -23 -6 0 -10 8 -10 18 0 11 -11 24 -25 30 -31 14
-32 24 -2 38 33 17 47 16 48 -3z m656 -5 c-3 -8 -6 -5 -6 6 -1 11 2 17 5 13 3
-3 4 -12 1 -19z m3863 -10 c0 -19 -2 -20 -10 -8 -13 19 -13 30 0 30 6 0 10
-10 10 -22z m1595 -23 c0 -25 -37 -32 -54 -11 -18 21 -4 38 27 34 19 -2 27 -9
27 -23z m1600 15 c8 -13 -20 -24 -41 -16 -20 8 -9 26 16 26 10 0 22 -5 25 -10z
m-6098 -55 c-4 -8 -11 -15 -17 -15 -7 0 -7 6 0 21 13 23 26 19 17 -6z m1730
-15 c23 -21 53 -42 67 -46 21 -5 25 -10 20 -30 -4 -17 0 -31 11 -44 10 -11 15
-23 12 -26 -8 -9 -65 33 -78 57 -5 11 -14 17 -18 14 -5 -2 -22 2 -39 11 -27
13 -30 19 -26 43 4 16 1 32 -5 35 -6 4 -11 11 -11 17 0 20 28 7 67 -31z m-129
9 c4 -22 -20 -30 -48 -16 -41 21 -37 39 6 35 26 -2 40 -8 42 -19z m-3140 -1
c19 -19 14 -38 -20 -76 l-31 -37 6 34 c4 18 7 46 7 62 0 30 17 38 38 17z m717
-9 c12 -19 -5 -23 -22 -6 -16 16 -16 17 -1 17 9 0 20 -5 23 -11z m3365 -15 c0
-14 -12 -19 -23 -8 -9 9 4 35 14 28 5 -3 9 -12 9 -20z m202 -6 c-15 -15 -26
-4 -18 18 5 13 9 15 18 6 9 -9 9 -15 0 -24z m-25 -50 c20 -16 54 -36 76 -44 9
-3 17 -13 17 -20 0 -19 -39 -18 -62 2 -13 13 -21 14 -31 6 -10 -9 -18 -8 -33
3 -10 8 -27 15 -36 15 -19 0 -26 20 -8 20 6 0 10 5 10 11 0 5 -4 8 -9 5 -5 -3
-14 0 -20 8 -7 8 -21 12 -33 9 -18 -5 -19 -3 -9 14 10 20 11 20 67 2 31 -10
63 -24 71 -31z m1194 30 c-12 -32 -36 -45 -55 -29 -23 19 -20 28 12 39 44 17
52 15 43 -10z m2890 3 c20 -16 21 -21 10 -35 -14 -17 -46 -22 -54 -8 -7 10 4
62 13 62 4 0 18 -8 31 -19z m-7581 -26 c0 -19 -4 -35 -10 -35 -5 0 -10 16 -10
35 0 19 5 35 10 35 6 0 10 -16 10 -35z m4821 21 c-7 -8 -21 -12 -31 -9 -31 8
-23 23 11 23 26 0 29 -3 20 -14z m-261 -26 c0 -11 -7 -20 -15 -20 -15 0 -21
21 -8 33 12 13 23 7 23 -13z m-1853 -3 c12 -7 31 -24 43 -39 12 -16 26 -28 33
-28 15 0 57 -41 57 -57 0 -20 -24 -16 -45 7 -21 23 -72 24 -67 2 4 -23 -29
-26 -44 -3 -8 11 -23 21 -32 22 -12 0 -11 3 6 9 12 5 28 21 34 36 11 23 10 28
-11 45 -26 21 -9 25 26 6z m-2487 -32 c0 -8 -4 -15 -9 -15 -13 0 -22 16 -14
24 11 11 23 6 23 -9z m6998 -25 c-8 -12 -16 -16 -22 -10 -6 6 -4 15 4 24 17
22 32 9 18 -14z m-6328 -3 c14 -12 31 -34 37 -50 16 -34 33 -35 33 -2 0 29 -2
29 44 10 35 -15 106 -80 106 -97 0 -4 10 -8 21 -8 26 0 48 -26 49 -56 0 -12 7
-24 15 -28 18 -6 34 20 28 45 -4 13 0 19 11 19 10 0 16 -8 16 -22 0 -13 6 -35
14 -49 23 -45 29 -96 11 -103 -9 -3 -25 -1 -35 4 -14 7 -23 6 -34 -5 -8 -8
-25 -15 -39 -15 -13 0 -34 -11 -47 -25 -18 -19 -26 -22 -37 -13 -8 6 -12 17
-9 25 3 7 1 13 -4 13 -6 0 -10 9 -10 20 0 16 7 20 30 20 17 0 30 5 30 10 0 6
-6 10 -14 10 -8 0 -24 16 -36 35 -12 19 -26 35 -31 35 -6 0 -36 26 -67 58 -31
32 -74 69 -95 83 -41 27 -52 48 -43 85 8 30 23 30 56 1z m-733 -9 c-3 -8 -6
-5 -6 6 -1 11 2 17 5 13 3 -3 4 -12 1 -19z m-1077 -5 c0 -5 -5 -15 -10 -23 -8
-12 -10 -11 -10 8 0 12 5 22 10 22 6 0 10 -3 10 -7z m260 -13 c0 -21 -15 -27
-25 -10 -7 12 2 30 16 30 5 0 9 -9 9 -20z m2480 -5 c14 5 20 2 20 -10 0 -13
-7 -15 -37 -9 -45 8 -47 9 -38 24 5 8 10 8 20 0 8 -7 23 -9 35 -5z m5360 -11
c0 -9 -5 -14 -12 -12 -18 6 -21 28 -4 28 9 0 16 -7 16 -16z m-2120 -4 c0 -5
14 -16 30 -25 17 -9 30 -24 30 -35 0 -13 8 -20 26 -22 33 -4 54 -32 37 -49 -8
-8 -19 -7 -44 5 -18 9 -38 16 -46 16 -15 0 -17 16 -3 25 24 15 8 30 -34 32
-46 1 -86 17 -86 33 0 6 9 10 19 10 11 0 23 5 26 10 8 13 45 13 45 0z m185 -4
c24 -13 62 -55 54 -59 -2 -1 -15 -8 -28 -15 -20 -12 -26 -11 -47 9 -23 21 -32
58 -17 72 8 9 6 9 38 -7z m1816 1 c-1 -4 -1 -16 -1 -27 0 -24 -22 -26 -41 -4
-11 14 -10 18 6 30 19 14 37 15 36 1z m-599 -36 c-3 -33 -8 -36 -27 -17 -9 9
-24 16 -33 16 -15 1 -14 3 3 16 30 22 61 14 57 -15z m418 19 c0 -5 -5 -10 -11
-10 -5 0 -7 5 -4 10 3 6 8 10 11 10 2 0 4 -4 4 -10z m-4937 -8 c3 -4 -3 -17
-13 -29 -15 -19 -20 -20 -29 -9 -15 18 -3 46 19 46 11 0 21 -3 23 -8z m3507
-27 c0 -8 -6 -15 -13 -15 -7 0 -22 -7 -33 -15 -18 -14 -18 -16 -1 -26 9 -5 17
-17 17 -24 0 -17 16 -20 25 -5 11 18 35 11 35 -10 0 -28 25 -35 72 -23 21 6
41 7 44 2 2 -5 27 -11 54 -15 27 -4 55 -13 61 -20 6 -8 19 -14 28 -14 9 0 24
-7 34 -14 17 -14 17 -15 -5 -22 -30 -10 -118 -7 -149 4 -13 5 -46 8 -74 7 -27
-1 -54 0 -60 4 -5 3 -36 6 -67 6 -72 0 -91 15 -60 48 22 23 22 57 1 57 -5 0
-9 9 -9 20 0 11 7 20 15 20 8 0 15 5 15 10 0 6 7 22 16 35 13 20 20 23 35 14
10 -5 19 -16 19 -24z m1526 19 c-3 -9 -6 -20 -6 -25 0 -5 -7 -9 -15 -9 -15 0
-21 31 -8 43 13 14 35 7 29 -9z m-7866 -1 c0 -17 -19 -35 -29 -29 -18 12 -12
36 9 36 11 0 20 -3 20 -7z m2430 -2 c0 -6 -4 -13 -10 -16 -5 -3 -10 1 -10 9 0
9 5 16 10 16 6 0 10 -4 10 -9z m540 -6 c11 -3 25 -15 31 -26 6 -13 17 -18 26
-15 27 11 84 -24 90 -56 9 -45 39 -33 35 14 -3 44 20 58 43 25 19 -28 19 -35
-5 -85 -11 -22 -20 -45 -20 -50 0 -9 -30 -26 -35 -20 -1 2 -7 18 -14 36 -8 17
-19 32 -25 32 -14 0 -56 -45 -56 -60 0 -22 -28 -8 -58 29 -18 22 -42 41 -54
43 -30 4 -63 69 -42 81 9 5 11 18 8 37 -6 28 -5 29 25 25 17 -2 40 -6 51 -10z
m4097 6 c19 -6 35 -5 41 1 6 6 14 3 23 -9 8 -10 26 -24 42 -30 19 -9 27 -20
27 -37 0 -13 6 -26 14 -29 17 -7 31 -58 18 -66 -5 -3 -11 -15 -13 -26 -3 -14
-13 -21 -37 -23 -35 -4 -45 16 -13 25 21 5 32 44 24 86 -6 31 -29 36 -38 7 -5
-17 -12 -19 -53 -13 -26 3 -55 10 -64 15 -10 4 -28 6 -41 3 -15 -4 -28 -1 -36
9 -8 9 -26 16 -42 16 -20 0 -29 5 -29 16 0 11 5 14 16 10 9 -4 23 -1 31 5 10
9 20 9 39 -2 22 -11 27 -11 34 1 6 8 10 23 10 33 0 20 4 20 47 8z m-5817 -11
c0 -5 -9 -10 -21 -10 -11 0 -17 5 -14 10 3 6 13 10 21 10 8 0 14 -4 14 -10z
m6017 -20 c14 0 37 -29 29 -37 -8 -9 -86 30 -86 43 0 20 13 24 30 9 9 -8 21
-15 27 -15z m-7217 -5 c0 -8 -4 -15 -10 -15 -5 0 -10 7 -10 15 0 8 5 15 10 15
6 0 10 -7 10 -15z m5795 -25 c0 -22 -29 -18 -33 3 -3 14 1 18 15 15 10 -2 18
-10 18 -18z m532 -2 c-3 -8 -6 -5 -6 6 -1 11 2 17 5 13 3 -3 4 -12 1 -19z
m1077 7 c8 -8 23 -15 33 -15 16 -1 16 -2 -2 -12 -11 -6 -34 -24 -52 -39 -28
-24 -88 -47 -98 -37 -2 1 -6 15 -10 30 -7 26 -5 27 37 30 30 2 42 7 40 17 -8
38 24 54 52 26z m-2164 -5 c8 -5 11 -10 5 -10 -5 0 -20 -3 -32 -6 -17 -5 -23
-2 -23 10 0 18 27 21 50 6z m105 -13 c22 -17 12 -37 -19 -37 -30 0 -37 9 -25
31 12 23 19 23 44 6z m135 -21 c37 -4 32 -32 -5 -29 -50 5 -95 15 -95 22 0 16
16 22 45 16 16 -3 41 -7 55 -9z m1231 -9 c-13 -13 -26 -3 -16 12 3 6 11 8 17
5 6 -4 6 -10 -1 -17z m-6551 -11 c0 -7 -8 -16 -19 -19 -10 -2 -29 -27 -42 -55
-13 -28 -28 -50 -34 -48 -5 1 -12 20 -15 42 -3 21 -9 44 -13 50 -4 7 0 17 8
24 13 11 15 8 15 -19 0 -40 16 -39 60 4 39 40 40 40 40 21z m5430 -10 c0 -16
-27 -29 -41 -20 -19 11 -9 34 16 34 15 0 25 -6 25 -14z m-5694 -36 c8 0 14 -9
14 -20 0 -12 -7 -20 -16 -20 -9 0 -32 -10 -51 -21 -40 -25 -52 -20 -29 13 9
12 16 35 16 49 0 34 20 43 39 18 7 -10 20 -19 27 -19z m6215 -9 l30 -18 -33
-7 c-42 -8 -62 10 -52 49 6 24 8 25 16 11 5 -10 23 -25 39 -35z m-5371 9 c-8
-15 -7 -23 7 -35 66 -57 94 -89 89 -101 -3 -8 -12 -14 -21 -14 -19 0 -65 39
-65 56 0 6 -7 17 -15 24 -15 12 -21 71 -8 83 14 15 23 6 13 -13z m780 10 c0
-5 8 -10 18 -10 23 0 42 -19 42 -42 0 -29 -37 -21 -57 12 -9 17 -21 30 -25 30
-4 0 -8 5 -8 10 0 6 7 10 15 10 8 0 15 -4 15 -10z m-1235 -77 c6 -27 -22 -59
-39 -43 -10 10 -17 80 -9 93 8 13 40 -21 48 -50z m73 -13 c-2 -8 -11 -16 -21
-18 -13 -3 -17 3 -17 26 0 16 3 32 7 36 10 10 34 -25 31 -44z m255 -7 c7 -34
-6 -46 -17 -17 -3 8 -10 12 -16 9 -19 -12 -23 26 -4 46 20 22 27 15 37 -38z
m2583 41 c-3 -9 -6 -21 -6 -27 0 -8 -3 -8 -10 -1 -12 12 -3 44 12 44 6 0 7 -7
4 -16z m3879 -20 c0 -14 -7 -19 -25 -19 -30 0 -40 31 -13 38 28 7 38 2 38 -19z
m-5420 -4 c4 -6 -5 -10 -20 -10 -15 0 -24 4 -20 10 3 6 12 10 20 10 8 0 17 -4
20 -10z m-1655 -14 c0 -3 -4 -8 -10 -11 -5 -3 -10 -1 -10 4 0 6 5 11 10 11 6
0 10 -2 10 -4z m3222 -38 c-15 -15 -26 -4 -18 18 5 13 9 15 18 6 9 -9 9 -15 0
-24z m588 -18 c0 -6 7 -10 15 -10 9 0 15 -9 15 -25 0 -29 0 -29 35 -13 23 10
28 10 37 -6 7 -12 13 -14 22 -7 9 8 25 5 54 -9 58 -28 64 -26 56 16 -6 35 -6
36 17 29 32 -10 32 -8 20 -52 -9 -32 -18 -42 -52 -57 -23 -10 -43 -26 -46 -35
-4 -15 -72 -45 -82 -36 -5 6 26 35 38 35 6 0 11 5 11 10 0 6 -6 10 -14 10 -7
0 -19 7 -26 15 -7 8 -24 15 -39 15 -14 1 -42 14 -61 30 -19 17 -41 30 -50 30
-21 1 -60 35 -60 54 0 11 9 16 29 16 17 0 33 5 36 10 7 12 45 -5 45 -20z
m-3930 4 c0 -17 -22 -14 -28 4 -2 7 3 12 12 12 9 0 16 -7 16 -16z m40 1 c19
-22 7 -41 -13 -21 -18 19 -22 36 -8 36 5 0 14 -7 21 -15z m396 -12 c-10 -10
-19 5 -10 18 6 11 8 11 12 0 2 -7 1 -15 -2 -18z m67 15 c2 -7 -7 -23 -20 -35
-43 -41 -60 -23 -21 22 24 28 34 31 41 13z m3147 -3 c12 -14 11 -16 -6 -14 -4
0 -12 -10 -18 -22 -6 -12 -16 -24 -21 -26 -15 -5 -45 65 -31 71 24 10 64 5 76
-9z m4954 9 c38 -14 8 -48 -33 -37 -25 7 -28 30 -3 36 9 3 18 5 19 6 1 0 8 -2
17 -5z m-6376 -34 c11 -18 10 -20 -12 -20 -29 0 -44 19 -25 31 20 12 23 11 37
-11z m102 5 c0 -8 -6 -15 -14 -15 -7 0 -19 7 -26 15 -11 13 -8 15 14 15 16 0
26 -5 26 -15z m-2626 -27 c23 -30 24 -34 8 -39 -23 -9 -52 18 -52 48 0 32 14
29 44 -9z m686 7 c0 -14 -4 -25 -9 -25 -12 0 -19 21 -13 38 8 21 22 13 22 -13z
m500 -25 c-14 -26 -44 -22 -48 7 -2 15 4 23 25 30 33 11 41 -3 23 -37z m1710
3 c0 -13 -3 -13 -15 -3 -8 7 -15 16 -15 21 0 5 7 6 15 3 8 -4 15 -13 15 -21z
m-1950 -4 c13 -24 -2 -49 -30 -49 -18 0 -30 34 -22 58 6 19 40 14 52 -9z
m-527 -3 c3 -8 3 -17 0 -20 -9 -9 -34 15 -27 25 8 13 21 11 27 -5z m900 -6 c6
-22 -7 -35 -23 -25 -15 9 -12 45 4 45 7 0 16 -9 19 -20z m1492 -1 c10 -14 1
-21 -19 -13 -9 3 -13 10 -10 15 7 12 21 11 29 -2z m165 2 c0 -6 12 -16 27 -23
19 -9 28 -21 28 -38 0 -20 5 -25 27 -25 34 -1 45 -12 30 -27 -8 -8 -18 -9 -34
-1 -13 6 -36 14 -53 19 -20 6 -33 19 -40 39 -5 17 -16 34 -24 39 -11 7 -11 10
0 17 19 12 39 11 39 0z m2675 -1 c3 -5 -1 -10 -10 -10 -9 0 -13 5 -10 10 3 6
8 10 10 10 2 0 7 -4 10 -10z m2403 -49 c7 -22 -39 -8 -56 17 l-15 23 33 -13
c19 -8 36 -20 38 -27z m-7908 16 c0 -21 -37 -50 -55 -44 -24 10 -18 32 13 44
37 15 42 15 42 0z m740 -2 c10 -12 10 -24 1 -54 -6 -22 -8 -46 -5 -55 4 -9 0
-24 -8 -34 -8 -9 -18 -25 -21 -34 -4 -10 -16 -18 -27 -18 -23 0 -27 18 -5 26
18 7 19 37 3 64 -10 15 -9 22 4 37 11 12 14 23 8 32 -9 16 8 51 26 51 6 0 17
-7 24 -15z m2013 8 c-7 -2 -19 -2 -25 0 -7 3 -2 5 12 5 14 0 19 -2 13 -5z
m1759 -15 c11 11 74 -3 97 -21 11 -9 17 -7 29 11 18 28 51 28 86 1 20 -15 24
-25 17 -37 -5 -10 -6 -37 -1 -62 5 -25 7 -47 5 -49 -10 -9 -36 11 -47 36 -16
36 -29 45 -45 31 -15 -12 -103 16 -103 33 0 5 -7 9 -16 9 -23 0 -105 50 -98
61 3 5 19 2 36 -7 20 -10 34 -12 40 -6z m-1042 -2 c0 -20 -11 -46 -19 -46 -4
0 -6 14 -3 30 4 30 22 43 22 16z m-3000 -29 c0 -16 -35 -1 -38 16 -3 16 -1 17
17 5 12 -7 21 -17 21 -21z m4355 13 c3 -6 -1 -13 -10 -16 -14 -6 -14 -8 1 -25
9 -10 14 -25 11 -34 -11 -27 -33 -16 -45 22 -10 31 -9 38 6 49 21 16 29 17 37
4z m-4620 -9 c3 -5 1 -12 -5 -16 -5 -3 -10 1 -10 9 0 18 6 21 15 7z m6330 -10
c0 -23 -19 -23 -33 0 -12 19 -11 20 10 17 13 -2 23 -9 23 -17z m-858 -21 c7
-15 9 -26 3 -28 -15 -6 -81 39 -74 49 11 19 58 5 71 -21z m-5867 -1 c0 -11 -4
-17 -10 -14 -5 3 -10 13 -10 21 0 8 5 14 10 14 6 0 10 -9 10 -21z m1001 5 c7
-8 21 -13 31 -11 15 4 18 -1 18 -35 0 -21 5 -48 11 -59 9 -18 8 -19 -9 -10
-11 6 -23 22 -26 36 -3 13 -20 32 -36 40 -18 9 -30 23 -30 35 0 24 22 26 41 4z
m7819 12 c0 -3 -4 -8 -10 -11 -5 -3 -10 -1 -10 4 0 6 5 11 10 11 6 0 10 -2 10
-4z m-7500 -32 c0 -8 -6 -14 -14 -14 -7 0 -19 -7 -26 -15 -7 -8 -24 -15 -39
-15 -18 0 -32 -9 -46 -30 -11 -16 -22 -30 -25 -30 -3 0 -5 26 -5 59 l-1 58 27
-19 c26 -19 26 -19 70 5 45 26 59 26 59 1z m2000 -9 c68 0 85 -3 88 -15 2 -13
-10 -15 -71 -14 -41 1 -83 7 -94 13 -11 5 -23 8 -26 4 -9 -8 -38 18 -31 28 3
5 15 4 27 -3 12 -7 60 -12 107 -13z m-2980 5 c0 -5 -5 -10 -11 -10 -5 0 -7 5
-4 10 3 6 8 10 11 10 2 0 4 -4 4 -10z m8670 -20 c0 -18 -2 -19 -20 -8 -11 7
-20 16 -20 20 0 5 9 8 20 8 13 0 20 -7 20 -20z m-143 -22 c-3 -7 -5 -2 -5 12
0 14 2 19 5 13 2 -7 2 -19 0 -25z m-8667 8 c0 -8 2 -20 5 -28 3 -7 1 -19 -4
-27 -8 -12 -12 -12 -24 -2 -12 9 -13 18 -4 41 12 31 27 40 27 16z m3350 -4
c43 -21 51 -53 16 -71 -21 -12 -28 -11 -49 5 -38 28 -47 85 -14 84 7 -1 28 -9
47 -18z m-3204 -39 c-13 -14 -25 9 -13 28 12 20 12 20 15 -1 2 -12 1 -24 -2
-27z m448 6 c3 -16 15 -29 28 -32 18 -5 19 -8 9 -21 -11 -14 -16 -11 -37 20
-17 25 -23 43 -18 57 4 12 8 18 10 12 1 -5 5 -22 8 -36z m5216 31 c13 -9 12
-12 -4 -25 -11 -8 -23 -15 -27 -15 -14 0 -39 31 -34 41 8 12 46 11 65 -1z
m-4417 -14 c3 -8 2 -27 -2 -42 l-7 -28 -17 24 c-23 33 -22 60 2 60 10 0 21 -6
24 -14z m3867 -8 c19 -6 54 -12 78 -15 32 -4 42 -9 42 -23 0 -11 5 -22 10 -25
22 -13 8 -33 -27 -38 -27 -5 -42 -2 -55 10 -9 8 -24 13 -33 9 -8 -3 -25 -1
-38 3 -12 5 -29 12 -37 15 -34 14 -72 42 -70 51 4 14 62 34 80 28 8 -3 31 -10
50 -15z m650 12 c0 -5 -10 -10 -22 -10 -19 0 -20 2 -8 10 19 13 30 13 30 0z
m30 -30 c6 -11 15 -18 19 -16 19 12 81 -16 102 -46 l23 -31 -25 7 c-13 4 -39
9 -56 13 -18 3 -38 12 -44 19 -6 8 -18 14 -27 14 -8 0 -24 7 -34 16 -17 16
-17 18 0 30 23 18 30 17 42 -6z m2414 1 c9 -14 -4 -41 -20 -41 -8 0 -14 10
-14 25 0 25 23 35 34 16z m-606 -12 c-2 -6 -8 -10 -13 -10 -5 0 -11 4 -13 10
-2 6 4 11 13 11 9 0 15 -5 13 -11z m-6523 -9 c3 -5 1 -10 -4 -10 -6 0 -11 5
-11 10 0 6 2 10 4 10 3 0 8 -4 11 -10z m-731 -32 c5 -27 2 -36 -16 -50 -25
-19 -58 -24 -58 -8 0 6 11 15 25 20 21 8 24 14 19 40 -5 23 -3 30 9 30 8 0 17
-13 21 -32z m4974 20 c7 -7 12 -26 11 -42 l-1 -31 -8 28 c-5 16 -14 35 -21 43
-14 17 2 19 19 2z m-3948 -13 c10 -12 10 -19 1 -28 -9 -9 -14 -9 -21 3 -22 34
-4 54 20 25z m5935 5 c8 -13 -5 -13 -25 0 -13 8 -13 10 2 10 9 0 20 -4 23 -10z
m695 -9 c0 -3 -4 -12 -9 -20 -8 -12 -12 -12 -26 2 -9 10 -21 17 -26 17 -6 0
-8 4 -5 8 6 10 66 3 66 -7z m-7410 -3 c0 -7 -4 -19 -9 -26 -7 -11 -10 -10 -15
3 -10 26 -7 35 9 35 8 0 15 -6 15 -12z m2804 -4 c22 -21 20 -31 -9 -50 -30
-20 -45 -11 -45 25 0 44 24 55 54 25z m4216 6 c0 -5 -4 -10 -10 -10 -5 0 -10
5 -10 10 0 6 5 10 10 10 6 0 10 -4 10 -10z m-4350 -24 c0 -29 24 -56 50 -56
19 0 40 -27 40 -51 0 -7 -10 -3 -23 10 -15 14 -42 24 -75 28 -29 3 -52 10 -52
16 0 15 41 77 51 77 5 0 9 -11 9 -24z m2758 -6 c27 -16 54 -30 59 -30 14 0 38
-29 30 -36 -6 -6 -76 16 -129 41 -26 13 -34 22 -31 36 7 25 14 24 71 -11z
m2942 15 c17 -20 8 -50 -14 -50 -19 0 -41 47 -28 59 10 10 29 6 42 -9z m-901
-21 c6 -14 9 -30 6 -35 -3 -5 -1 -18 5 -29 15 -29 -4 -25 -36 7 -26 26 -27 26
-41 7 -12 -16 -12 -20 2 -30 14 -11 22 -44 9 -44 -3 0 -15 5 -26 11 -17 9 -25
6 -52 -20 -22 -22 -35 -28 -46 -21 -13 8 -8 25 8 25 19 0 52 48 52 75 0 34 36
62 51 39 6 -10 10 -10 23 0 9 8 16 20 16 27 0 23 16 16 29 -12z m81 16 c0 -5
-4 -10 -10 -10 -5 0 -10 5 -10 10 0 6 5 10 10 10 6 0 10 -4 10 -10z m-1210
-46 c0 -8 -4 -14 -10 -14 -5 0 -10 9 -10 21 0 11 5 17 10 14 6 -3 10 -13 10
-21z m-3061 2 c17 -20 -34 -54 -81 -54 -68 0 -76 47 -9 53 17 1 34 5 38 9 11
11 40 7 52 -8z m3481 -6 c0 -5 -4 -10 -10 -10 -5 0 -10 5 -10 10 0 6 5 10 10
10 6 0 10 -4 10 -10z m316 -22 c27 -19 44 -39 44 -51 0 -19 -1 -19 -20 -2 -23
20 -50 14 -57 -15 -3 -11 -8 -20 -11 -20 -11 0 -31 36 -32 57 0 12 -4 25 -10
28 -17 10 -11 23 13 28 12 2 24 5 25 6 2 0 24 -13 48 -31z m-6956 12 c0 -5 -4
-10 -10 -10 -5 0 -10 5 -10 10 0 6 5 10 10 10 6 0 10 -4 10 -10z m3310 0 c0
-5 -9 -10 -20 -10 -11 0 -20 5 -20 10 0 6 9 10 20 10 11 0 20 -4 20 -10z
m4251 -3 c-1 -12 -15 -9 -19 4 -3 6 1 10 8 8 6 -3 11 -8 11 -12z m-7633 -35
c2 -17 10 -36 18 -42 20 -17 18 -30 -5 -30 -23 0 -55 62 -46 91 10 29 29 18
33 -19z m-78 2 c0 -23 -4 -26 -24 -22 -25 5 -42 -14 -30 -33 3 -5 1 -9 -4 -9
-14 0 -20 22 -13 44 6 14 36 35 69 45 1 1 2 -11 2 -25z m5614 9 c4 -4 22 -8
39 -9 65 -3 147 -52 147 -89 0 -7 8 -18 17 -23 16 -9 16 -11 0 -27 -22 -22
-21 -32 3 -38 11 -3 20 -12 20 -21 0 -21 -26 -21 -34 0 -9 24 -30 11 -36 -22
-4 -24 -11 -30 -36 -32 -18 -2 -40 -12 -50 -23 -25 -28 -44 -24 -44 10 0 16
-7 36 -15 45 -18 17 -11 20 67 31 40 5 49 10 54 31 10 38 -42 98 -87 102 -19
2 -48 14 -64 27 -25 21 -28 26 -15 35 18 12 24 12 34 3z m816 -3 c0 -5 -4 -10
-10 -10 -5 0 -10 5 -10 10 0 6 5 10 10 10 6 0 10 -4 10 -10z m-2858 -15 c0
-17 -28 -29 -48 -21 -18 7 -17 9 6 21 27 15 41 15 42 0z m2238 6 c0 -6 -4 -13
-10 -16 -5 -3 -10 1 -10 9 0 9 5 16 10 16 6 0 10 -4 10 -9z m280 -1 c0 -5 -4
-10 -10 -10 -5 0 -10 5 -10 10 0 6 5 10 10 10 6 0 10 -4 10 -10z m604 -6 c4
-10 1 -14 -6 -12 -15 5 -23 28 -10 28 5 0 13 -7 16 -16z m-6884 -19 c0 -14 -6
-25 -13 -25 -21 0 -27 11 -16 31 14 27 29 23 29 -6z m7385 5 c-3 -5 -10 -10
-16 -10 -5 0 -9 5 -9 10 0 6 7 10 16 10 8 0 12 -4 9 -10z m-705 -15 c0 -8 -4
-15 -9 -15 -5 0 -11 7 -15 15 -3 9 0 15 9 15 8 0 15 -7 15 -15z m-5160 -5 c0
-5 -7 -10 -16 -10 -8 0 -12 5 -9 10 3 6 10 10 16 10 5 0 9 -4 9 -10z m1720 -5
c0 -8 -4 -15 -10 -15 -5 0 -10 7 -10 15 0 8 5 15 10 15 6 0 10 -7 10 -15z
m123 -21 c-1 -10 3 -32 9 -47 13 -33 0 -52 -43 -62 -39 -10 -72 22 -73 71 -1
38 0 39 44 50 55 14 66 12 63 -12z m2852 -14 c-5 -8 -11 -8 -17 -2 -6 6 -7 16
-3 22 5 8 11 8 17 2 6 -6 7 -16 3 -22z m787 5 c11 -14 28 -25 39 -25 12 0 19
-7 19 -19 0 -31 -26 -32 -58 -2 -16 16 -35 30 -43 33 -12 4 -12 7 0 21 18 22
20 22 43 -8z m1428 11 c0 -3 -4 -8 -10 -11 -5 -3 -10 -1 -10 4 0 6 5 11 10 11
6 0 10 -2 10 -4z m-3030 -26 c4 -7 13 -9 20 -5 23 15 98 14 111 -1 16 -20 96
-54 126 -54 14 0 37 -8 51 -19 15 -10 34 -21 42 -25 8 -3 4 -3 -10 0 -14 3
-79 8 -144 10 -112 4 -120 5 -130 26 -8 17 -22 24 -50 26 -21 2 -43 -1 -49 -7
-6 -6 -19 -11 -29 -11 -11 0 -33 -7 -49 -16 -23 -11 -30 -21 -26 -35 4 -14 0
-19 -14 -19 -20 0 -39 28 -39 59 0 14 -6 21 -19 21 -23 0 -45 25 -36 40 4 7
17 9 29 6 13 -3 31 1 42 9 24 18 162 14 174 -5z m-4890 6 c0 -31 -23 -43 -50
-26 -13 9 -13 11 0 20 15 10 50 14 50 6z m5305 -6 c3 -5 2 -10 -4 -10 -5 0
-13 5 -16 10 -3 6 -2 10 4 10 5 0 13 -4 16 -10z m1475 1 c0 -5 3 -23 6 -40 4
-19 2 -31 -4 -31 -12 0 -34 59 -26 71 7 12 24 12 24 0z m766 -6 c3 -8 14 -17
25 -20 28 -9 23 -27 -16 -65 -19 -19 -35 -29 -35 -23 0 6 7 16 15 23 16 13 21
60 7 60 -5 0 -14 -11 -20 -25 -12 -26 -36 -33 -47 -14 -4 6 2 13 14 16 13 3
21 13 21 27 0 36 25 50 36 21z m454 0 c0 -8 -4 -15 -9 -15 -13 0 -22 16 -14
24 11 11 23 6 23 -9z m-2097 -2 c-7 -2 -19 -2 -25 0 -7 3 -2 5 12 5 14 0 19
-2 13 -5z m-263 -13 c0 -5 -5 -10 -11 -10 -5 0 -7 5 -4 10 3 6 8 10 11 10 2 0
4 -4 4 -10z m585 -10 c3 -5 2 -10 -4 -10 -5 0 -13 5 -16 10 -3 6 -2 10 4 10 5
0 13 -4 16 -10z m170 0 c3 -5 15 -10 26 -10 10 0 19 -7 19 -15 0 -8 -6 -15
-13 -15 -13 0 -57 35 -57 45 0 9 19 5 25 -5z m1685 -4 c0 -3 -4 -8 -10 -11 -5
-3 -10 -1 -10 4 0 6 5 11 10 11 6 0 10 -2 10 -4z m60 -15 c0 -28 -17 -35 -29
-13 -11 21 -6 32 16 32 7 0 13 -9 13 -19z m-8050 -1 c0 -5 -4 -10 -10 -10 -5
0 -10 5 -10 10 0 6 5 10 10 10 6 0 10 -4 10 -10z m7055 -9 l30 -8 -28 -12
c-36 -14 -37 -14 -59 6 -25 22 -23 37 5 28 12 -3 36 -10 52 -14z m-6658 -51
l2 -55 -19 25 c-11 14 -20 33 -20 42 0 9 -3 24 -6 33 -5 13 -2 16 17 13 22 -3
24 -8 26 -58z m7363 20 c0 -16 5 -32 10 -35 15 -9 12 -38 -2 -32 -7 2 -12 10
-10 16 1 7 -4 19 -13 27 -20 21 -20 65 0 58 8 -4 15 -19 15 -34z m-5259 17
c-1 -12 -15 -9 -19 4 -3 6 1 10 8 8 6 -3 11 -8 11 -12z m3649 -12 c0 -14 -8
-29 -21 -35 -28 -16 -34 -7 -18 29 17 37 39 41 39 6z m2050 15 c0 -5 -4 -10
-10 -10 -5 0 -10 5 -10 10 0 6 5 10 10 10 6 0 10 -4 10 -10z m-2320 -10 c0 -5
-4 -10 -10 -10 -5 0 -10 5 -10 10 0 6 5 10 10 10 6 0 10 -4 10 -10z m-6140
-10 c0 -5 -4 -10 -10 -10 -5 0 -10 5 -10 10 0 6 5 10 10 10 6 0 10 -4 10 -10z
m246 -14 c9 -35 -5 -54 -23 -31 -7 11 -13 27 -13 37 0 27 29 22 36 -6z m2870
9 c4 -8 3 -23 0 -32 -6 -15 -8 -15 -23 -1 -16 17 -12 48 7 48 6 0 13 -7 16
-15z m2784 5 c0 -5 -4 -10 -10 -10 -5 0 -10 5 -10 10 0 6 5 10 10 10 6 0 10
-4 10 -10z m1210 -15 c26 -27 35 -60 24 -85 -5 -11 -9 -7 -13 15 -5 26 -26 44
-66 58 -10 4 12 37 24 37 4 0 18 -11 31 -25z m-7060 0 c0 -8 -7 -15 -15 -15
-8 0 -15 7 -15 15 0 8 7 15 15 15 8 0 15 -7 15 -15z m6658 -2 c-4 -21 -36 -29
-51 -14 -9 9 -8 14 3 21 25 16 52 12 48 -7z m254 -7 c23 -35 -5 -60 -84 -72
l-41 -7 6 39 c4 21 7 45 7 52 0 11 12 12 53 7 28 -4 55 -13 59 -19z m-7988 5
c3 -4 -1 -16 -8 -27 -21 -28 -9 -47 17 -29 12 8 25 15 28 15 8 0 30 -93 23
-99 -2 -2 -22 2 -45 9 -39 13 -41 13 -63 -15 -20 -25 -26 -28 -40 -16 -12 10
-15 27 -12 75 3 55 5 61 24 59 13 -2 26 5 32 17 11 21 35 27 44 11z m1186 -1
c0 -5 -4 -10 -10 -10 -5 0 -10 5 -10 10 0 6 5 10 10 10 6 0 10 -4 10 -10z
m8177 -34 c-10 -25 -37 -19 -37 7 0 13 3 27 7 31 11 11 36 -21 30 -38z m-2527
24 c0 -5 -4 -10 -10 -10 -5 0 -10 5 -10 10 0 6 5 10 10 10 6 0 10 -4 10 -10z
m802 -12 c-7 -7 -12 -8 -12 -2 0 14 12 26 19 19 2 -3 -1 -11 -7 -17z m1362 -8
c14 -13 -4 -70 -22 -70 -25 0 -82 37 -82 53 0 30 76 42 104 17z m146 6 c0 -8
-4 -17 -9 -21 -12 -7 -24 12 -16 25 9 15 25 12 25 -4z m-8674 -7 c8 -14 -11
-33 -25 -25 -11 7 -4 36 9 36 5 0 12 -5 16 -11z m3986 0 c26 -7 43 -19 53 -39
21 -42 19 -70 -5 -70 -11 0 -20 4 -20 9 0 5 -9 11 -19 14 -11 3 -28 22 -37 43
-10 22 -20 42 -22 47 -5 10 6 9 50 -4z m-2582 -14 c0 -9 -6 -12 -15 -9 -8 4
-15 10 -15 15 0 5 7 9 15 9 8 0 15 -7 15 -15z m7433 -19 c28 -20 36 -46 15
-46 -7 0 -22 7 -32 15 -11 8 -28 15 -38 15 -21 0 -22 4 -7 31 10 20 15 19 62
-15z m-8973 -26 c0 -23 -4 -30 -20 -30 -36 0 -25 55 13 59 4 1 7 -12 7 -29z
m477 8 c-3 -8 -6 -5 -6 6 -1 11 2 17 5 13 3 -3 4 -12 1 -19z m6102 -21 c15
-35 28 -48 67 -67 44 -20 47 -23 28 -31 -12 -4 -25 -13 -29 -19 -4 -7 -13 -4
-25 10 -11 12 -24 19 -30 15 -6 -3 -24 -3 -41 0 -45 10 -55 46 -26 95 12 22
26 40 30 40 4 0 16 -20 26 -43z m1331 8 c0 -8 -4 -15 -9 -15 -13 0 -22 16 -14
24 11 11 23 6 23 -9z m-7280 -16 c0 -12 -29 -24 -37 -16 -3 4 -3 13 0 21 6 16
37 11 37 -5z m508 -3 c3 -12 -1 -17 -10 -14 -7 3 -15 13 -16 22 -3 12 1 17 10
14 7 -3 15 -13 16 -22z m5320 15 c16 -10 12 -63 -5 -68 -9 -3 -43 54 -43 73 0
7 35 4 48 -5z m444 -19 c11 -19 14 -33 7 -42 -8 -13 -12 -12 -24 4 -16 21 -21
66 -7 66 4 0 15 -13 24 -28z m1919 18 c29 -16 23 -48 -13 -70 -63 -39 -102 -3
-58 53 23 29 40 33 71 17z m233 -36 c9 -3 16 -12 16 -19 0 -7 10 -19 22 -27
20 -13 21 -18 9 -32 -16 -19 -29 -13 -41 20 -5 13 -16 24 -25 24 -8 0 -15 9
-15 20 0 21 8 24 34 14z m-5749 -45 c16 -16 -30 -10 -51 7 -18 15 -18 15 11 9
17 -4 34 -11 40 -16z m4954 -30 c-9 -5 -16 -3 -21 9 -14 36 -8 46 13 23 18
-19 19 -25 8 -32z m-3979 31 c0 -5 -4 -10 -10 -10 -5 0 -10 5 -10 10 0 6 5 10
10 10 6 0 10 -4 10 -10z m2127 -4 c7 -6 -11 -76 -20 -76 -25 0 -49 65 -30 83
5 6 41 0 50 -7z m2303 -5 c0 -11 -4 -22 -8 -25 -14 -9 -35 12 -29 28 9 23 37
20 37 -3z m-2690 -11 c0 -5 -4 -10 -9 -10 -6 0 -13 5 -16 10 -3 6 1 10 9 10 9
0 16 -4 16 -10z m2708 -58 c4 -24 -7 -29 -25 -11 -14 14 -5 41 11 36 6 -2 12
-13 14 -25z"/>
<path d="M3665 2400 c-3 -5 -1 -10 4 -10 6 0 11 5 11 10 0 6 -2 10 -4 10 -3 0
-8 -4 -11 -10z"/>
<path d="M1586 2484 c-17 -17 -13 -34 9 -34 12 0 25 21 25 41 0 14 -17 11 -34
-7z"/>
<path d="M1732 2168 c2 -12 9 -23 16 -26 18 -6 15 35 -4 42 -11 4 -15 0 -12
-16z"/>
<path d="M2166 1455 c-23 -17 -15 -65 12 -65 13 0 17 9 17 40 1 44 -1 46 -29
25z"/>
<path d="M2152 1323 c4 -21 33 -25 33 -3 0 8 -8 16 -18 18 -14 3 -18 -1 -15
-15z"/>
<path d="M2820 1620 c0 -5 5 -10 10 -10 6 0 10 5 10 10 0 6 -4 10 -10 10 -5 0
-10 -4 -10 -10z"/>
<path d="M2886 1481 c-9 -15 23 -36 36 -23 5 5 7 15 4 21 -9 13 -33 14 -40 2z"/>
<path d="M2980 1480 c0 -5 5 -10 10 -10 6 0 10 5 10 10 0 6 -4 10 -10 10 -5 0
-10 -4 -10 -10z"/>
<path d="M7795 1200 c3 -5 10 -10 16 -10 5 0 9 5 9 10 0 6 -7 10 -16 10 -8 0
-12 -4 -9 -10z"/>
<path d="M6890 280 c0 -5 5 -10 11 -10 5 0 7 5 4 10 -3 6 -8 10 -11 10 -2 0
-4 -4 -4 -10z"/>
<path d="M1030 3159 c0 -5 5 -7 10 -4 6 3 10 8 10 11 0 2 -4 4 -10 4 -5 0 -10
-5 -10 -11z"/>
<path d="M0 3045 c0 -28 4 -44 10 -40 13 8 13 72 0 80 -6 4 -10 -12 -10 -40z"/>
<path d="M312 3036 c-7 -17 -7 -27 1 -35 17 -17 33 -13 51 14 16 24 16 26 -9
35 -33 13 -30 14 -43 -14z"/>
<path d="M1140 3040 c0 -5 5 -10 10 -10 6 0 10 5 10 10 0 6 -4 10 -10 10 -5 0
-10 -4 -10 -10z"/>
<path d="M1026 3003 c-11 -12 -6 -53 7 -53 14 0 37 19 37 32 0 11 -36 28 -44
21z"/>
<path d="M870 2955 c-18 -21 -5 -45 25 -45 28 0 28 0 15 34 -11 30 -22 33 -40
11z"/>
<path d="M195 2950 c-7 -12 2 -30 16 -30 12 0 12 27 0 35 -5 3 -12 1 -16 -5z"/>
<path d="M327 2933 c-4 -3 -7 -11 -7 -17 0 -6 5 -5 12 2 6 6 9 14 7 17 -3 3
-9 2 -12 -2z"/>
<path d="M1155 2890 c-3 -5 -1 -10 4 -10 6 0 11 5 11 10 0 6 -2 10 -4 10 -3 0
-8 -4 -11 -10z"/>
<path d="M1204 2835 c-7 -18 3 -35 21 -35 18 0 26 15 19 34 -8 20 -33 21 -40
1z"/>
<path d="M246 2798 c-25 -21 -26 -26 -16 -50 12 -25 40 -29 40 -5 0 6 7 18 15
27 12 14 13 19 2 34 -13 17 -15 17 -41 -6z"/>
<path d="M1097 2813 c-12 -20 -19 -103 -8 -103 6 0 11 9 11 20 0 14 7 20 24
20 28 0 51 24 42 46 -4 10 -13 13 -26 9 -11 -4 -20 -2 -20 4 0 13 -17 15 -23
4z"/>
<path d="M274 2676 c-4 -19 -14 -26 -37 -29 -29 -4 -30 -5 -9 -12 12 -4 22
-11 22 -16 0 -5 11 -9 24 -9 26 0 36 16 36 61 0 36 -27 40 -36 5z"/>
<path d="M180 2660 c0 -5 5 -10 11 -10 5 0 7 5 4 10 -3 6 -8 10 -11 10 -2 0
-4 -4 -4 -10z"/>
<path d="M247 2594 c-11 -11 -8 -54 3 -54 6 0 13 6 16 14 7 17 -9 50 -19 40z"/>
<path d="M57 2459 c-21 -12 -13 -29 14 -29 12 0 19 7 19 20 0 22 -7 24 -33 9z"/>
<path d="M600 2370 c0 -11 7 -20 15 -20 17 0 18 2 9 24 -9 23 -24 20 -24 -4z"/>
<path d="M7 2163 c-14 -13 -6 -33 13 -33 13 0 20 7 20 20 0 19 -20 27 -33 13z"/>
<path d="M895 2161 c-6 -11 9 -23 19 -14 9 9 7 23 -3 23 -6 0 -12 -4 -16 -9z"/>
<path d="M827 2133 c-15 -14 -7 -53 11 -53 32 0 45 15 33 39 -12 21 -31 27
-44 14z"/>
<path d="M1002 2108 c3 -7 13 -15 22 -16 12 -3 17 1 14 10 -3 7 -13 15 -22 16
-12 3 -17 -1 -14 -10z"/>
<path d="M1030 2010 c-13 -9 -11 -13 10 -30 30 -23 47 -11 28 19 -15 24 -17
25 -38 11z"/>
<path d="M1170 1896 c0 -8 7 -16 15 -20 8 -3 15 -15 15 -26 0 -11 5 -20 11
-20 8 0 9 11 5 31 -3 17 -6 35 -6 40 0 5 -9 9 -20 9 -11 0 -20 -6 -20 -14z"/>
<path d="M18 1693 c5 -27 35 -28 40 -2 2 11 -6 18 -21 21 -20 4 -23 1 -19 -19z"/>
<path d="M74 1535 c-8 -21 4 -35 31 -35 29 0 41 16 25 35 -16 19 -49 19 -56 0z"/>
<path d="M0 1440 c0 -11 5 -20 10 -20 6 0 10 9 10 20 0 11 -4 20 -10 20 -5 0
-10 -9 -10 -20z"/>
<path d="M70 1435 c-7 -8 -19 -15 -26 -15 -18 0 -18 -21 0 -46 19 -25 50 -8
54 31 4 35 -10 51 -28 30z"/>
<path d="M440 1420 c0 -5 4 -10 9 -10 6 0 13 5 16 10 3 6 -1 10 -9 10 -9 0
-16 -4 -16 -10z"/>
<path d="M1460 1400 c0 -5 5 -10 10 -10 6 0 10 5 10 10 0 6 -4 10 -10 10 -5 0
-10 -4 -10 -10z"/>
<path d="M117 1313 c-12 -11 -8 -40 8 -53 13 -11 15 -7 15 24 0 34 -8 44 -23
29z"/>
<path d="M211 1235 c-12 -16 -20 -33 -18 -39 5 -16 36 -19 52 -6 19 15 19 31
2 54 -13 17 -15 17 -36 -9z"/>
<path d="M0 1215 c0 -9 5 -15 11 -13 14 5 14 21 0 26 -6 2 -11 -4 -11 -13z"/>
<path d="M15 1130 c-7 -12 2 -30 16 -30 5 0 9 9 9 20 0 21 -15 27 -25 10z"/>
<path d="M210 1005 c-15 -18 -5 -35 20 -35 10 0 22 5 25 10 7 11 -12 40 -25
40 -4 0 -13 -7 -20 -15z"/>
<path d="M42 833 c2 -10 13 -19 26 -21 24 -4 29 7 10 26 -18 18 -40 15 -36 -5z"/>
<path d="M13 613 c-7 -2 -13 -14 -13 -25 0 -20 1 -21 20 -3 30 27 26 42 -7 28z"/>
<path d="M12 510 c-19 -31 -15 -50 12 -50 32 0 39 12 26 44 -11 31 -21 33 -38
6z"/>
<path d="M1 345 l1 -50 14 34 c14 30 14 36 0 50 -15 14 -16 11 -15 -34z"/>
<path d="M5963 374 c-4 -10 4 -24 23 -39 16 -13 30 -22 31 -21 1 1 -2 19 -8
39 -10 38 -35 50 -46 21z"/>
<path d="M5864 338 c3 -7 9 -21 12 -30 4 -10 13 -18 20 -18 20 0 29 27 14 45
-15 18 -54 20 -46 3z"/>
<path d="M5715 330 c-9 -15 -2 -21 43 -37 45 -15 52 -16 52 -3 0 23 -84 58
-95 40z"/>
<path d="M5836 263 c-11 -11 -6 -23 9 -23 8 0 15 4 15 9 0 13 -16 22 -24 14z"/>
<path d="M5598 253 c7 -3 16 -2 19 1 4 3 -2 6 -13 5 -11 0 -14 -3 -6 -6z"/>
<path d="M5980 234 c0 -13 21 -44 30 -44 6 0 10 11 10 25 0 18 -5 25 -20 25
-11 0 -20 -3 -20 -6z"/>
<path d="M8400 135 c0 -8 5 -15 10 -15 6 0 10 7 10 15 0 8 -4 15 -10 15 -5 0
-10 -7 -10 -15z"/>
<path d="M5673 133 c-21 -8 -15 -60 9 -83 29 -27 35 -25 43 10 5 21 2 39 -9
55 -17 25 -21 27 -43 18z"/>
<path d="M5548 123 c-22 -5 -22 -7 -3 -43 18 -34 35 -38 58 -12 38 42 8 72
-55 55z"/>
<path d="M5778 38 c-21 -11 -38 -24 -38 -29 0 -12 47 -12 55 0 3 5 19 12 35
16 35 8 41 35 8 34 -13 0 -40 -9 -60 -21z"/>
<path d="M9030 50 c0 -5 5 -10 10 -10 6 0 10 5 10 10 0 6 -4 10 -10 10 -5 0
-10 -4 -10 -10z"/>
<path d="M8737 43 c-4 -3 -7 -15 -7 -25 0 -13 7 -18 26 -18 20 0 25 4 20 16
-3 9 -6 20 -6 25 0 10 -23 12 -33 2z"/>
<path d="M5950 10 c-12 -8 -10 -10 8 -10 13 0 20 4 17 10 -7 12 -6 12 -25 0z"/>
</g>
</svg>
