<?xml version="1.0" standalone="no"?>
<!DOCTYPE svg PUBLIC "-//W3C//DTD SVG 20010904//EN"
 "http://www.w3.org/TR/2001/REC-SVG-20010904/DTD/svg10.dtd">
<svg version="1.0" xmlns="http://www.w3.org/2000/svg"
 width="156.000000pt" height="107.000000pt" viewBox="0 0 156.000000 107.000000"
 preserveAspectRatio="xMidYMid meet">
<metadata>
Created by potrace 1.16, written by Peter Selinger 2001-2019
</metadata>
<g transform="translate(0.000000,107.000000) scale(0.100000,-0.100000)"
fill="#000000" stroke="none">
<path d="M443 1013 c3 -5 8 -30 11 -58 5 -46 8 -74 22 -225 10 -108 11 -114
30 -245 4 -27 8 -62 9 -78 1 -15 5 -31 10 -35 7 -7 5 175 -2 190 -2 4 -6 50
-8 103 -2 52 -6 116 -9 143 -3 26 -8 81 -12 122 -7 86 -8 90 -35 90 -11 0 -18
-3 -16 -7z"/>
<path d="M365 989 c-4 -6 -4 -56 0 -112 4 -56 8 -120 10 -142 3 -49 20 -242
29 -320 2 -16 4 -38 5 -47 0 -10 5 -18 11 -18 6 0 6 9 0 25 -5 14 -6 25 -1 25
4 0 7 12 5 28 -3 26 -6 86 -20 412 -3 80 -8 148 -10 152 -7 11 -22 10 -29 -3z"/>
<path d="M295 842 c4 -75 8 -162 9 -192 3 -53 9 -118 23 -225 4 -27 7 -69 6
-93 0 -31 3 -39 9 -27 9 16 3 209 -8 226 -3 5 0 9 6 9 6 0 9 4 6 9 -3 5 -8 82
-12 172 -5 139 -8 206 -13 240 -1 4 -8 10 -16 13 -14 5 -15 -10 -10 -132z"/>
<path d="M205 920 c-3 -5 -4 -58 0 -117 8 -168 17 -362 19 -425 0 -31 4 -54 8
-52 4 2 7 12 7 22 1 320 -1 566 -5 573 -7 12 -21 11 -29 -1z"/>
<path d="M105 818 c-11 -46 -20 -87 -22 -93 -5 -22 -12 -62 -18 -100 -3 -22
-8 -56 -12 -75 -11 -60 -9 -183 5 -240 7 -30 15 -64 17 -74 6 -28 55 -85 85
-100 14 -7 40 -21 58 -30 17 -9 32 -15 32 -11 0 3 15 -1 33 -8 32 -14 137 -15
185 -3 12 3 30 8 41 10 10 2 47 16 82 29 35 14 89 33 119 42 30 9 62 19 70 22
8 4 18 5 22 5 4 -1 25 5 46 13 31 13 215 66 272 79 13 3 77 21 115 32 6 2 28
8 50 14 57 15 63 17 135 39 36 12 72 21 81 21 13 0 16 8 14 38 -2 20 -4 74 -4
119 -1 69 -3 81 -16 77 -8 -4 -15 -12 -15 -19 0 -11 -37 -21 -155 -41 -32 -5
-77 -14 -110 -21 -16 -4 -34 -8 -40 -9 -152 -30 -215 -44 -305 -69 -8 -2 -55
-18 -105 -35 -49 -18 -99 -34 -110 -36 -31 -8 -38 -10 -70 -24 -16 -7 -39 -13
-50 -14 -26 -1 -26 -50 0 -83 1 -2 50 22 109 52 58 30 139 64 179 76 40 11 81
24 92 29 11 4 65 20 120 35 55 15 107 30 115 33 8 3 17 6 20 7 6 2 122 27 135
29 6 1 26 7 45 14 19 6 46 13 60 16 14 3 34 8 45 11 17 5 21 1 23 -22 1 -15 6
-53 11 -83 5 -30 6 -58 3 -61 -6 -6 -82 -14 -212 -24 -25 -2 -47 -4 -50 -6 -6
-2 -9 -3 -77 -13 -29 -4 -56 -12 -59 -17 -3 -5 -9 -7 -13 -4 -5 2 -48 -9 -97
-26 -49 -17 -93 -32 -99 -33 -5 -2 -17 -6 -25 -9 -25 -9 -95 -30 -100 -30 -3
1 -22 -8 -42 -18 -21 -11 -38 -17 -38 -14 0 3 -9 1 -21 -5 -11 -6 -28 -13 -37
-15 -9 -2 -30 -9 -47 -16 -82 -33 -215 -65 -223 -53 -4 6 -14 11 -22 12 -22 1
-73 12 -90 19 -8 3 -18 7 -21 7 -25 4 -81 45 -86 64 -3 12 -9 22 -15 22 -5 0
-6 5 -3 10 4 6 1 17 -5 25 -11 13 -9 86 6 205 17 146 29 410 17 410 -5 0 -18
-37 -28 -82z"/>
</g>
</svg>
