<?xml version="1.0" standalone="no"?>
<!DOCTYPE svg PUBLIC "-//W3C//DTD SVG 20010904//EN"
 "http://www.w3.org/TR/2001/REC-SVG-20010904/DTD/svg10.dtd">
<svg version="1.0" xmlns="http://www.w3.org/2000/svg"
 width="136.000000pt" height="123.000000pt" viewBox="0 0 136.000000 123.000000"
 preserveAspectRatio="xMidYMid meet">
<metadata>
Created by potrace 1.16, written by Peter Selinger 2001-2019
</metadata>
<g transform="translate(0.000000,123.000000) scale(0.100000,-0.100000)"
fill="#000000" stroke="none">
<path d="M532 1115 c2 -80 -1 -110 -10 -113 -17 -5 -15 -42 3 -42 11 0 15 -14
16 -57 1 -32 3 -91 5 -130 1 -40 1 -73 -1 -73 -3 0 -11 12 -19 28 -18 33 -76
94 -139 146 -66 54 -106 56 -183 10 -81 -49 -96 -64 -140 -148 l-38 -73 27
-45 c32 -56 147 -162 189 -177 l32 -11 -40 34 c-21 20 -42 35 -46 36 -22 1 -1
36 55 95 l63 67 69 -58 c39 -31 70 -62 70 -68 0 -6 -28 -33 -62 -60 -62 -49
-76 -69 -31 -44 46 26 118 87 154 129 20 24 40 46 45 47 5 2 10 -34 10 -80 1
-45 3 -132 5 -193 2 -60 5 -144 6 -185 l1 -75 6 65 6 65 80 9 c57 6 80 6 83
-2 2 -8 8 -8 17 2 8 8 51 16 112 20 250 17 259 21 63 26 -102 3 -189 2 -194
-3 -6 -4 -45 -7 -88 -7 l-78 0 0 70 c0 48 4 72 13 75 6 2 45 6 85 10 l72 6 2
-63 1 -63 6 65 6 65 77 6 c175 15 308 32 308 41 0 5 -3 7 -7 5 -5 -3 -92 -8
-195 -11 l-188 -7 0 159 0 160 138 7 c267 13 294 22 71 24 -238 1 -219 -8
-219 109 l0 62 183 1 c199 2 180 11 -50 24 -82 5 -133 12 -136 19 -2 6 -3 47
-3 91 l1 80 55 5 55 5 -45 8 c-25 4 -98 10 -163 14 l-118 6 3 -108z m182 53
c3 -13 6 -56 6 -95 l0 -73 -75 0 -75 0 0 53 c0 28 -3 69 -6 89 l-6 37 48 3
c27 2 61 4 75 6 20 2 28 -3 33 -20z m10 -214 c3 -9 6 -47 6 -85 0 -65 -1 -69
-22 -70 -13 -1 -44 -2 -71 -4 -57 -4 -62 3 -66 97 l-3 67 54 4 c29 2 63 4 74
5 12 1 25 -5 28 -14z m-346 -107 c23 -17 42 -35 42 -41 0 -6 -25 -33 -55 -59
l-55 -48 -38 29 c-60 48 -102 96 -94 108 4 6 32 22 62 36 60 29 62 29 138 -25z
m-93 -167 c6 -9 -122 -130 -138 -130 -12 1 -22 13 -71 84 l-25 38 19 38 c10
20 31 51 46 69 l26 31 69 -61 c38 -34 71 -65 74 -69z m209 58 c25 -29 46 -60
46 -69 0 -9 -14 -34 -31 -55 -17 -22 -35 -46 -39 -54 -7 -12 -22 -2 -75 50
-36 35 -64 67 -63 71 7 17 94 108 105 108 6 1 32 -23 57 -51z m239 -5 c3 -14
6 -84 6 -155 2 -97 -1 -129 -11 -133 -7 -2 -42 -6 -77 -7 l-65 -3 -3 163 -4
162 74 0 c73 0 75 -1 80 -27z"/>
<path d="M749 101 c-3 -9 -25 -16 -62 -19 -47 -4 -57 -8 -57 -23 0 -17 6 -18
60 -12 46 4 60 3 60 -7 0 -10 3 -10 13 2 6 9 33 19 60 23 64 9 60 25 -7 25
-35 0 -56 5 -58 13 -4 9 -6 8 -9 -2z"/>
</g>
</svg>
