<?xml version="1.0" standalone="no"?>
<!DOCTYPE svg PUBLIC "-//W3C//DTD SVG 20010904//EN"
 "http://www.w3.org/TR/2001/REC-SVG-20010904/DTD/svg10.dtd">
<svg version="1.0" xmlns="http://www.w3.org/2000/svg"
 width="104.000000pt" height="163.000000pt" viewBox="0 0 104.000000 163.000000"
 preserveAspectRatio="xMidYMid meet">
<metadata>
Created by potrace 1.16, written by Peter Selinger 2001-2019
</metadata>
<g transform="translate(0.000000,163.000000) scale(0.100000,-0.100000)"
fill="#000000" stroke="none">
<path d="M328 1481 c-47 -75 -105 -172 -128 -216 -23 -44 -55 -99 -71 -123
-15 -23 -41 -76 -55 -118 -15 -42 -36 -84 -46 -93 -14 -14 -16 -23 -8 -47 62
-189 93 -270 105 -277 8 -4 15 -18 15 -30 0 -12 7 -35 15 -51 8 -15 15 -34 15
-42 0 -7 21 -33 46 -58 26 -24 44 -48 41 -53 -9 -15 75 -127 182 -242 58 -61
108 -116 112 -123 4 -7 10 -10 12 -8 98 128 139 183 160 215 15 22 39 57 53
78 75 113 127 228 159 354 7 28 16 56 19 62 6 10 46 229 46 252 0 5 -6 9 -14
9 -7 0 -35 43 -61 95 -26 52 -56 102 -66 111 -11 10 -19 23 -19 30 0 7 -6 19
-12 26 -7 7 -47 58 -88 113 -40 55 -78 105 -82 110 -5 6 -16 20 -26 32 -110
136 -102 131 -162 130 l-55 0 -87 -136z m323 -103 l30 -37 -74 -54 c-75 -55
-116 -81 -122 -75 -1 2 -6 84 -9 183 l-7 180 77 -80 c42 -44 89 -97 105 -117z
m-226 -28 c4 -80 9 -153 10 -163 3 -11 -7 -23 -26 -32 -16 -9 -29 -19 -29 -24
0 -17 14 -19 36 -4 24 15 24 15 25 -23 1 -22 3 -48 4 -59 1 -11 4 -58 6 -105
4 -80 3 -86 -18 -95 -13 -5 -23 -18 -23 -27 0 -21 4 -22 31 -8 14 8 19 7 20
-2 0 -7 4 -47 8 -88 4 -41 4 -82 0 -91 -5 -9 -4 -29 1 -45 5 -16 14 -101 21
-189 18 -259 27 -294 27 -116 0 144 -5 213 -23 284 -6 24 -4 29 14 34 12 3 24
16 27 29 5 18 13 24 33 24 14 0 49 16 76 35 28 19 61 43 75 53 50 35 93 79 89
91 -3 8 -18 2 -44 -20 -35 -27 -146 -102 -226 -152 -15 -9 -29 -13 -33 -10 -3
4 -6 52 -6 107 l1 101 90 65 c80 58 181 152 203 188 11 19 -20 1 -54 -30 -14
-13 -45 -39 -70 -58 -25 -19 -52 -41 -60 -49 -18 -18 -101 -71 -110 -71 -8 0
-7 -7 -10 148 -1 68 -1 124 1 126 2 2 27 18 54 36 28 19 71 54 96 77 l47 44
32 -40 c111 -141 219 -298 214 -311 -3 -8 -10 -64 -16 -125 -5 -60 -14 -119
-18 -130 -5 -11 -16 -44 -25 -72 -9 -29 -21 -55 -26 -58 -5 -4 -9 -15 -9 -26
0 -10 -4 -19 -10 -19 -5 0 -10 -8 -10 -19 0 -17 -56 -150 -82 -196 -7 -11 -27
-49 -46 -85 -18 -36 -49 -90 -68 -120 -19 -30 -39 -65 -44 -77 -13 -32 -28
-28 -47 12 -9 19 -20 35 -24 35 -7 0 -69 81 -153 200 -54 76 -140 242 -186
355 -17 44 -36 89 -41 100 -8 19 -19 58 -41 155 -12 50 -8 62 59 182 52 91
181 297 207 330 11 15 29 39 39 53 11 15 20 25 22 23 2 -2 6 -68 10 -148z"/>
<path d="M170 994 c0 -9 55 -87 83 -116 15 -16 24 -28 21 -28 -3 0 0 -6 5 -12
6 -7 23 -29 39 -48 15 -19 47 -65 71 -102 24 -38 47 -68 52 -68 39 0 -13 94
-113 205 -30 33 -65 76 -78 95 -46 65 -80 97 -80 74z"/>
</g>
</svg>
