<?xml version="1.0" standalone="no"?>
<!DOCTYPE svg PUBLIC "-//W3C//DTD SVG 20010904//EN"
 "http://www.w3.org/TR/2001/REC-SVG-20010904/DTD/svg10.dtd">
<svg version="1.0" xmlns="http://www.w3.org/2000/svg"
 width="158.000000pt" height="116.000000pt" viewBox="0 0 158.000000 116.000000"
 preserveAspectRatio="xMidYMid meet">
<metadata>
Created by potrace 1.16, written by Peter Selinger 2001-2019
</metadata>
<g transform="translate(0.000000,116.000000) scale(0.100000,-0.100000)"
fill="#000000" stroke="none">
<path d="M987 1036 c-4 -10 -20 -17 -44 -17 -34 -2 -35 -2 -8 -6 46 -7 55 -20
56 -82 2 -55 2 -54 9 19 7 74 0 121 -13 86z"/>
<path d="M748 983 c18 -2 45 -2 60 0 15 2 0 4 -33 4 -33 0 -45 -2 -27 -4z"/>
<path d="M608 953 c12 -2 32 -2 45 0 12 2 2 4 -23 4 -25 0 -35 -2 -22 -4z"/>
<path d="M332 870 c0 -19 2 -27 5 -17 2 9 2 25 0 35 -3 9 -5 1 -5 -18z"/>
<path d="M453 805 c0 -33 2 -45 4 -27 2 18 2 45 0 60 -2 15 -4 0 -4 -33z"/>
<path d="M319 817 c-15 -9 -15 -12 0 -29 20 -23 31 -23 31 0 0 29 -13 41 -31
29z"/>
<path d="M987 824 c-25 -25 2 -29 201 -27 275 3 252 1 222 18 -15 8 -29 10
-35 4 -13 -13 -358 -12 -371 1 -6 6 -13 7 -17 4z"/>
<path d="M960 653 c-3 -68 -3 -132 0 -144 5 -22 6 -21 17 3 7 15 8 29 3 34 -5
5 -11 59 -12 119 l-3 110 -5 -122z"/>
<path d="M360 736 c0 -8 -8 -17 -17 -19 -10 -3 -2 -5 17 -6 19 -1 45 -4 58 -7
16 -5 22 -2 22 10 0 17 -5 20 -52 30 -21 5 -28 2 -28 -8z"/>
<path d="M536 613 c-8 -20 -3 -25 21 -21 17 3 17 4 1 20 -15 15 -17 15 -22 1z"/>
<path d="M453 563 c9 -2 23 -2 30 0 6 3 -1 5 -18 5 -16 0 -22 -2 -12 -5z"/>
<path d="M1372 541 c-11 -6 -10 -10 0 -19 11 -8 17 -6 26 9 10 15 10 19 0 19
-7 0 -19 -4 -26 -9z"/>
<path d="M698 533 c6 -2 18 -2 25 0 6 3 1 5 -13 5 -14 0 -19 -2 -12 -5z"/>
<path d="M1098 533 c46 -2 118 -2 160 0 42 1 5 3 -83 3 -88 0 -123 -2 -77 -3z"/>
<path d="M648 503 c7 -3 16 -2 19 1 4 3 -2 6 -13 5 -11 0 -14 -3 -6 -6z"/>
<path d="M598 473 c7 -3 16 -2 19 1 4 3 -2 6 -13 5 -11 0 -14 -3 -6 -6z"/>
<path d="M565 450 c-3 -5 -1 -10 4 -10 6 0 11 5 11 10 0 6 -2 10 -4 10 -3 0
-8 -4 -11 -10z"/>
<path d="M535 420 c-3 -5 -1 -10 4 -10 6 0 11 5 11 10 0 6 -2 10 -4 10 -3 0
-8 -4 -11 -10z"/>
<path d="M512 380 c0 -14 2 -19 5 -12 2 6 2 18 0 25 -3 6 -5 1 -5 -13z"/>
<path d="M698 203 c6 -2 18 -2 25 0 6 3 1 5 -13 5 -14 0 -19 -2 -12 -5z"/>
<path d="M838 143 c7 -3 16 -2 19 1 4 3 -2 6 -13 5 -11 0 -14 -3 -6 -6z"/>
</g>
</svg>
