<?xml version="1.0" standalone="no"?>
<!DOCTYPE svg PUBLIC "-//W3C//DTD SVG 20010904//EN"
 "http://www.w3.org/TR/2001/REC-SVG-20010904/DTD/svg10.dtd">
<svg version="1.0" xmlns="http://www.w3.org/2000/svg"
 width="170.000000pt" height="114.000000pt" viewBox="0 0 170.000000 114.000000"
 preserveAspectRatio="xMidYMid meet">
<metadata>
Created by potrace 1.16, written by Peter Selinger 2001-2019
</metadata>
<g transform="translate(0.000000,114.000000) scale(0.100000,-0.100000)"
fill="#000000" stroke="none">
<path d="M683 1042 c-6 -4 -15 -20 -18 -35 -4 -16 -15 -31 -23 -35 -9 -3 -54
0 -100 7 -53 7 -89 8 -94 3 -6 -6 -5 -24 2 -48 6 -22 14 -70 17 -109 3 -38 8
-77 13 -85 4 -8 5 -43 2 -78 -5 -70 -14 -77 -85 -68 -58 7 -165 45 -171 61 -4
12 -10 12 -36 -3 -36 -21 -42 -35 -41 -114 0 -40 5 -66 15 -76 13 -13 19 -10
53 23 59 58 71 63 168 67 l90 3 -1 -40 c-5 -186 -14 -383 -19 -396 -3 -8 1
-23 8 -33 13 -17 20 -12 109 77 l96 95 253 -1 c140 0 286 3 325 7 l71 8 7 54
c4 39 2 61 -8 77 -20 31 -10 137 13 137 9 0 35 11 58 25 32 17 52 22 77 18 51
-8 126 5 126 23 0 11 -14 14 -60 14 -58 0 -125 12 -182 33 -26 9 -28 13 -28
71 0 50 5 69 27 101 14 22 29 42 33 45 3 3 17 21 30 40 14 19 33 43 43 53 25
25 9 44 -22 28 -12 -7 -72 -14 -134 -16 -61 -3 -132 -7 -157 -10 -147 -16
-208 -16 -245 -1 -21 9 -51 16 -68 16 -21 0 -41 10 -62 29 -33 32 -64 44 -82
33z m70 -75 l28 -22 -43 -33 -43 -33 -3 25 c-2 14 2 34 8 46 6 11 8 25 5 30
-11 18 20 10 48 -13z m627 -33 c0 -19 -38 -74 -51 -74 -5 0 -9 18 -9 39 0 40
0 40 53 50 4 0 7 -6 7 -15z m-766 -3 c8 -1 -70 -90 -89 -101 -9 -5 -45 96 -37
104 4 4 58 3 126 -3z m650 3 c12 -5 16 -21 16 -69 l0 -63 -67 -8 c-76 -9 -164
-6 -176 6 -5 4 -25 6 -45 3 -42 -5 -102 26 -102 53 0 19 -21 14 -32 -9 -26
-54 -23 -52 -84 -49 -33 2 -61 6 -63 8 -14 13 21 63 64 93 46 31 54 32 100 26
28 -5 66 -8 85 -7 41 1 284 18 287 20 1 1 8 -1 17 -4z m-610 -75 c12 -64 -3
-79 -39 -39 -15 17 -16 24 -7 45 16 34 38 31 46 -6z m-101 -99 c-2 -14 -4 -49
-6 -79 -5 -91 -25 -74 -29 24 -3 81 -2 86 17 83 15 -2 19 -10 18 -28z m82 14
c14 -6 14 -8 -1 -25 -24 -27 -44 -24 -44 6 0 25 13 31 45 19z m305 -14 c0 -5
-5 -12 -11 -16 -14 -8 -33 11 -25 25 7 11 36 4 36 -9z m-81 -112 c-1 -68 1
-137 5 -154 5 -20 2 -43 -8 -67 l-15 -37 -100 0 c-56 0 -101 3 -101 8 0 4 13
19 30 34 27 24 35 26 89 21 33 -3 67 -3 76 1 29 11 -2 36 -44 36 -87 -2 -173
6 -174 15 0 6 24 22 53 37 43 21 63 26 100 21 37 -4 48 -2 53 11 8 20 -14 26
-105 29 -73 2 -85 14 -46 41 14 10 45 16 83 16 65 0 97 12 79 30 -6 6 -51 11
-102 11 -70 0 -90 3 -86 13 9 23 56 40 129 46 39 4 74 7 78 8 5 1 7 -53 6
-120z m411 110 c0 -7 3 -23 6 -36 l6 -22 -166 2 c-129 1 -166 4 -166 14 0 24
37 34 127 35 48 1 102 5 118 9 47 12 75 11 75 -2z m-642 -86 c9 -6 6 -14 -13
-32 -22 -20 -25 -21 -31 -6 -3 9 -1 23 6 31 14 17 20 18 38 7z m306 0 c3 -5
-2 -19 -11 -31 -18 -27 -39 -14 -28 18 6 21 29 28 39 13z m340 -124 c-4 -68
-11 -127 -16 -133 -8 -9 -113 -11 -223 -3 -27 2 -63 5 -78 6 -35 2 -28 15 25
49 40 24 45 25 148 19 88 -5 109 -4 120 8 16 21 -6 25 -158 29 -67 2 -126 7
-130 11 -4 4 2 14 12 22 15 10 52 14 137 14 109 0 144 8 124 28 -4 4 -48 9
-98 10 -51 2 -97 8 -104 14 -7 5 -26 7 -43 3 -36 -8 -40 7 -8 29 18 13 52 16
161 16 l138 0 -7 -122z m77 31 c-26 -21 -41 -17 -41 11 0 23 19 30 44 17 19
-9 19 -10 -3 -28z m-1113 15 c40 -11 30 -28 -40 -62 -5 -2 -8 12 -8 32 0 37 6
41 48 30z m702 -14 c0 -5 -9 -14 -19 -20 -25 -13 -38 5 -14 19 23 13 33 14 33
1z m-386 -8 c3 -5 1 -26 -5 -47 -8 -28 -8 -44 1 -61 7 -12 10 -35 7 -51 -2
-15 -1 -37 3 -48 14 -37 -7 -56 -39 -36 -11 7 -14 34 -12 122 1 62 5 117 7
121 7 11 31 10 38 0z m80 -1 c3 -4 -6 -13 -19 -19 -20 -9 -25 -9 -25 2 0 20
34 34 44 17z m316 -75 c0 -18 -17 -29 -30 -21 -8 5 -7 11 1 21 15 18 29 18 29
0z m-331 -62 c-14 -18 -24 -11 -15 11 3 9 11 13 16 10 8 -5 7 -11 -1 -21z
m341 -57 c0 -19 -47 -60 -59 -52 -15 9 -14 52 2 58 24 10 57 7 57 -6z m323
-21 c13 -19 13 -27 4 -40 -10 -14 -37 -17 -175 -19 -89 -1 -162 0 -162 3 0 3
11 19 24 35 24 30 25 30 148 36 67 3 128 6 134 7 7 1 19 -9 27 -22z m-632 4
c17 0 9 -18 -16 -34 -23 -15 -26 -15 -31 -1 -9 23 4 48 22 41 9 -3 20 -6 25
-6z m202 -33 c5 -16 7 -29 6 -31 -2 -1 -46 0 -97 2 -93 4 -93 4 -75 24 26 29
51 37 107 35 44 -2 50 -5 59 -30z m-262 -57 c29 0 23 -12 -32 -69 -39 -41 -53
-50 -60 -40 -5 8 -7 20 -4 27 3 8 8 32 11 54 7 38 8 40 37 34 16 -3 38 -6 48
-6z"/>
</g>
</svg>
