<?xml version="1.0" standalone="no"?>
<!DOCTYPE svg PUBLIC "-//W3C//DTD SVG 20010904//EN"
 "http://www.w3.org/TR/2001/REC-SVG-20010904/DTD/svg10.dtd">
<svg version="1.0" xmlns="http://www.w3.org/2000/svg"
 width="192.000000pt" height="112.000000pt" viewBox="0 0 192.000000 112.000000"
 preserveAspectRatio="xMidYMid meet">
<metadata>
Created by potrace 1.16, written by Peter Selinger 2001-2019
</metadata>
<g transform="translate(0.000000,112.000000) scale(0.100000,-0.100000)"
fill="#000000" stroke="none">
<path d="M710 1108 c1 -37 50 -52 93 -29 33 18 43 41 17 41 -10 0 -22 -4 -25
-10 -3 -5 -15 -10 -26 -10 -10 0 -19 5 -19 10 0 6 -9 10 -20 10 -11 0 -20 -6
-20 -12z"/>
<path d="M551 926 c-10 -11 -11 -37 -6 -98 7 -92 7 -101 -1 -206 l-6 -73 -101
6 c-106 6 -164 17 -209 41 -35 19 -48 18 -48 -5 0 -26 81 -63 128 -59 53 4 49
-15 -10 -52 -29 -19 -63 -44 -76 -57 -13 -13 -26 -23 -31 -23 -9 0 -21 96 -21
161 0 53 -26 52 -40 0 -7 -28 -7 -61 1 -113 16 -108 18 -118 30 -118 6 0 40
27 76 60 35 33 68 60 73 60 6 0 30 15 55 34 42 33 49 35 120 34 62 -1 75 -4
70 -16 -5 -14 -18 -181 -17 -217 1 -22 1 -79 -2 -135 -2 -49 24 -50 87 -2 29
22 68 49 87 59 38 22 129 37 146 25 6 -4 11 -35 11 -70 0 -84 14 -93 68 -44
81 75 109 86 226 92 107 5 153 20 129 44 -7 7 -13 7 -20 0 -11 -11 -134 -8
-160 3 -8 3 -42 7 -76 8 -80 2 -91 10 -57 39 67 54 79 57 161 50 53 -5 81 -12
89 -23 10 -14 14 -14 35 4 13 11 41 29 63 40 22 11 42 22 45 25 3 3 37 21 75
39 69 33 72 33 195 31 151 -3 150 -3 150 14 0 14 -21 16 -234 31 -54 4 -76 11
-106 32 -73 55 -118 102 -125 131 -3 17 -13 33 -21 36 -14 5 -17 -2 -29 -76
-3 -21 -9 -40 -14 -42 -4 -3 -32 -1 -62 5 -30 5 -79 14 -109 18 -86 14 -103
25 -82 57 10 16 128 74 150 74 10 0 23 5 30 12 6 6 44 12 84 13 59 1 74 5 76
18 3 16 -12 22 -48 19 -8 -1 -60 3 -115 9 -114 12 -179 37 -204 80 -17 31 -39
37 -59 17 -18 -18 -150 -19 -218 -2 -94 25 -138 28 -153 10z m128 -51 l25 -12
-45 -42 c-61 -56 -69 -54 -69 20 l0 61 33 -7 c17 -4 43 -13 56 -20z m217 -55
c-4 -28 -9 -56 -11 -63 -7 -16 -206 -11 -217 6 -12 20 10 44 64 70 70 34 75
35 127 36 l44 1 -7 -50z m97 4 c41 -22 71 -31 116 -33 21 -1 -7 -31 -29 -31
-10 0 -41 -16 -70 -35 -49 -33 -76 -38 -67 -12 2 7 0 25 -5 42 -7 25 -2 95 7
95 1 0 23 -12 48 -26z m-298 -116 c7 -7 4 -14 -9 -22 -10 -6 -31 -21 -46 -33
-15 -13 -36 -23 -45 -23 -15 0 -17 6 -11 42 4 22 9 45 13 51 7 11 84 0 98 -15z
m204 -4 c9 -8 0 -98 -11 -111 -18 -22 -248 -15 -248 7 0 15 137 108 165 113
29 4 86 -1 94 -9z m80 -98 c7 -8 30 -17 52 -21 24 -4 38 -12 36 -18 -3 -7 -9
-11 -15 -10 -6 2 -28 -8 -48 -22 -56 -38 -64 -34 -64 30 0 57 14 71 39 41z
m397 -62 c21 -20 47 -42 58 -49 16 -12 10 -17 -64 -54 -45 -23 -85 -41 -90
-41 -30 0 -13 120 22 157 12 13 24 23 28 23 3 0 24 -16 46 -36z m-715 6 c28 0
23 -13 -18 -54 -44 -42 -53 -44 -53 -12 0 42 18 79 36 72 9 -3 24 -6 35 -6z
m599 7 c0 -1 -5 -18 -11 -37 -6 -19 -14 -57 -17 -85 l-7 -50 -42 2 c-57 2
-208 55 -208 72 0 8 7 17 15 21 8 4 47 22 86 41 52 25 87 34 128 36 31 1 56 1
56 0z m-366 -45 c-4 -20 -9 -59 -11 -87 -7 -155 -5 -150 -47 -153 -22 -2 -47
3 -60 12 -21 13 -26 13 -45 0 -18 -13 -25 -13 -63 3 l-42 19 58 33 c34 19 84
37 119 42 33 6 65 13 71 16 17 11 -27 22 -95 22 -64 1 -129 16 -129 30 0 11
87 80 111 89 12 5 49 9 82 10 l59 2 -8 -38z m86 -107 c17 -9 30 -19 30 -23 0
-10 -80 -72 -93 -72 -5 0 -6 16 -3 38 15 80 17 82 66 57z m-330 -5 c20 -11 17
-40 -5 -40 -6 0 -20 -9 -30 -20 -10 -11 -22 -20 -27 -20 -9 0 -11 74 -1 83 10
10 42 8 63 -3z m-7 -148 l37 -18 -49 -36 -49 -37 3 52 c1 29 3 53 4 55 3 6 20
1 54 -16z m335 -17 c35 -7 42 -22 15 -32 -10 -3 -33 -17 -51 -30 -27 -21 -33
-22 -38 -9 -3 9 -3 32 0 52 6 27 11 34 24 30 9 -2 32 -7 50 -11z"/>
</g>
</svg>
