<?xml version="1.0" standalone="no"?>
<!DOCTYPE svg PUBLIC "-//W3C//DTD SVG 20010904//EN"
 "http://www.w3.org/TR/2001/REC-SVG-20010904/DTD/svg10.dtd">
<svg version="1.0" xmlns="http://www.w3.org/2000/svg"
 width="192.000000pt" height="102.000000pt" viewBox="0 0 192.000000 102.000000"
 preserveAspectRatio="xMidYMid meet">
<metadata>
Created by potrace 1.16, written by Peter Selinger 2001-2019
</metadata>
<g transform="translate(0.000000,102.000000) scale(0.100000,-0.100000)"
fill="#000000" stroke="none">
<path d="M752 888 c-8 -32 -11 -33 -58 -34 -27 0 -73 -1 -102 -2 l-52 -2 -1
-92 c0 -134 -3 -196 -9 -201 -3 -2 -70 -1 -150 3 -138 8 -146 10 -166 34 -19
21 -28 24 -58 19 -40 -6 -37 1 -56 -147 -13 -99 -3 -115 41 -68 16 17 35 32
40 32 6 0 36 18 69 40 56 38 62 40 158 45 61 3 103 1 107 -4 9 -15 -15 -179
-36 -244 -20 -61 -23 -89 -13 -150 5 -25 12 -37 23 -37 15 0 76 50 171 141
l38 36 79 -5 c43 -2 82 -8 87 -13 5 -4 16 -4 25 1 26 13 126 23 256 24 127 1
161 10 132 31 -10 7 -28 10 -41 8 -21 -4 -23 -1 -29 47 -4 33 -2 60 5 74 7 11
12 28 13 36 0 9 16 19 40 25 22 6 58 22 80 36 28 18 61 28 110 33 67 7 111 12
185 22 19 2 73 7 120 11 47 5 85 13 85 18 0 16 -71 18 -185 6 -143 -16 -317
-23 -363 -15 -28 4 -41 13 -53 36 -15 29 -15 33 7 72 36 66 68 103 106 126 19
11 33 26 30 33 -6 20 -137 17 -137 -4 0 -5 9 -9 19 -9 30 0 35 -19 13 -43 -11
-12 -25 -34 -31 -49 -19 -51 -34 -33 -27 32 l7 59 -43 -1 c-24 -1 -56 0 -73 1
-16 2 -52 0 -80 -4 -46 -6 -101 4 -214 40 -19 7 -22 5 -19 -11 2 -10 16 -25
31 -32 35 -17 34 -22 -6 -49 -62 -42 -64 -36 -41 95 5 25 3 32 -10 32 -9 0
-19 -13 -24 -32z m-66 -69 c3 -6 -9 -27 -28 -47 -20 -21 -47 -55 -61 -76 l-26
-39 3 73 2 74 45 12 c59 16 57 15 65 3z m226 -42 c-14 -24 -25 -32 -47 -32
-42 0 -40 17 7 47 51 32 65 27 40 -15z m276 7 c-3 -16 -16 -20 -78 -26 -41 -3
-85 -9 -97 -13 -20 -6 -23 -4 -23 18 0 37 18 46 105 49 87 3 99 0 93 -28z
m-452 -20 c-6 -15 -56 -20 -56 -5 0 5 12 19 28 31 24 19 27 20 30 5 2 -9 1
-23 -2 -31z m233 39 c0 -5 -4 -17 -9 -28 -8 -18 -9 -17 -9 8 -1 15 4 27 9 27
6 0 10 -3 9 -7z m209 -82 c19 -12 6 -147 -15 -155 -8 -4 -40 -8 -71 -11 -32
-3 -76 -8 -99 -10 -36 -4 -43 -2 -43 13 0 30 25 55 56 57 98 7 154 18 154 31
0 17 -8 17 -105 3 -42 -6 -78 -9 -81 -6 -14 14 18 47 46 47 23 0 30 4 30 20 0
18 7 20 58 20 31 0 63 -4 70 -9z m-388 -12 c0 -3 -23 -12 -51 -19 -28 -8 -53
-20 -56 -27 -14 -37 -26 12 -14 54 2 5 121 -2 121 -8z m150 -34 c0 -19 -3 -36
-7 -36 -9 -1 -18 -3 -138 -18 -76 -9 -112 -3 -84 15 42 25 102 54 115 54 7 0
14 5 14 10 0 6 23 10 50 10 l50 0 0 -35z m-314 -17 c-4 -13 -9 -97 -12 -188
-3 -90 -9 -169 -13 -173 -5 -5 -23 -6 -41 -2 -30 6 -32 9 -26 38 3 17 11 71
16 121 12 106 17 127 41 184 19 44 47 60 35 20z m298 -85 c-6 -29 -9 -31 -63
-37 -31 -4 -77 -10 -103 -13 -38 -4 -48 -2 -48 9 0 19 100 68 141 68 19 0 41
5 49 10 21 13 31 -2 24 -37z m-218 19 c6 -4 -2 -18 -23 -35 l-33 -29 0 29 c0
16 3 33 7 36 8 9 35 9 49 -1z m599 -36 c7 3 16 1 19 -4 7 -12 -91 -55 -104
-47 -9 5 -7 33 6 73 2 9 12 7 35 -7 17 -11 37 -17 44 -15z m-1117 -10 c15 -8
38 -18 51 -23 23 -9 21 -11 -33 -42 -32 -18 -60 -30 -63 -27 -6 6 7 106 14
106 3 0 17 -6 31 -14z m987 -38 c-4 -18 -10 -36 -14 -40 -3 -4 -45 -9 -91 -12
-47 -2 -93 -7 -102 -11 -15 -6 -18 -2 -18 28 0 41 12 46 115 48 33 1 69 5 80
10 33 13 37 10 30 -23z m-477 -23 c3 -11 0 -15 -7 -10 -7 4 -18 2 -26 -5 -10
-8 -15 -8 -21 1 -8 13 24 41 41 36 5 -2 12 -12 13 -22z m222 3 c0 -39 -14 -48
-81 -53 -92 -8 -107 -12 -143 -45 -47 -45 -58 -36 -35 28 9 26 21 34 72 52 89
31 118 38 155 39 27 1 32 -3 32 -21z m243 -73 c9 -21 -4 -26 -85 -31 -40 -3
-88 -10 -105 -16 -39 -11 -53 -5 -46 22 7 27 50 38 149 39 63 1 83 -2 87 -14z
m-263 -28 c0 -29 -34 -50 -69 -42 -15 3 -49 1 -76 -5 -56 -13 -75 -2 -44 26
23 21 93 41 152 43 32 1 37 -2 37 -22z m249 -33 c31 -7 41 -27 20 -40 -12 -7
-36 -10 -154 -18 -38 -2 -78 -8 -87 -11 -14 -6 -18 -2 -18 18 0 20 7 26 43 36
23 6 67 12 97 14 30 2 58 4 61 5 4 1 21 -1 38 -4z m-450 -50 c8 -7 -12 -24
-29 -24 -22 0 -34 15 -25 30 6 9 41 5 54 -6z m179 -1 c-3 -15 -14 -18 -63 -18
-49 0 -60 3 -63 18 -3 15 5 17 63 17 58 0 66 -2 63 -17z m-287 -53 c11 0 19
-6 19 -13 0 -18 -96 -111 -103 -100 -3 5 -3 35 0 67 l6 58 30 -6 c16 -3 38 -6
48 -6z"/>
</g>
</svg>
