<?xml version="1.0" standalone="no"?>
<!DOCTYPE svg PUBLIC "-//W3C//DTD SVG 20010904//EN"
 "http://www.w3.org/TR/2001/REC-SVG-20010904/DTD/svg10.dtd">
<svg version="1.0" xmlns="http://www.w3.org/2000/svg"
 width="114.000000pt" height="63.000000pt" viewBox="0 0 114.000000 63.000000"
 preserveAspectRatio="xMidYMid meet">
<metadata>
Created by potrace 1.16, written by Peter Selinger 2001-2019
</metadata>
<g transform="translate(0.000000,63.000000) scale(0.100000,-0.100000)"
fill="#000000" stroke="none">
<path d="M303 583 c-21 -15 -44 -89 -51 -169 -5 -61 -11 -79 -22 -78 -8 0 -50
4 -93 8 -66 6 -78 5 -83 -9 -11 -27 7 -34 96 -42 l85 -8 5 -87 c3 -48 10 -91
15 -96 6 -5 153 -12 328 -15 309 -4 318 -4 328 15 14 26 3 36 -46 40 -34 2
-39 6 -37 23 2 11 5 47 5 80 l2 60 50 6 c28 3 80 2 118 -4 51 -7 71 -6 82 3
35 29 16 37 -106 43 -72 4 -128 12 -137 19 -11 10 -13 31 -10 100 3 52 1 91
-4 94 -5 4 -109 7 -231 9 -122 1 -235 5 -252 9 -16 4 -35 3 -42 -1z m462 -94
l0 -34 -75 0 c-68 0 -75 -2 -75 -20 0 -18 8 -21 75 -25 67 -4 75 -7 75 -25 0
-18 -7 -20 -60 -21 -53 -1 -60 -3 -63 -22 -4 -24 0 -25 78 -26 l45 -1 3 -43 3
-43 -69 6 c-51 6 -71 4 -77 -5 -13 -22 25 -40 82 -40 39 0 55 -4 60 -16 3 -8
2 -19 -3 -24 -5 -5 -110 -10 -234 -11 -217 -3 -225 -2 -225 17 0 17 8 19 87
22 59 2 90 7 98 17 22 27 0 35 -96 35 l-95 0 3 33 3 32 75 5 c67 4 75 7 75 25
0 18 -7 20 -70 20 -57 0 -70 3 -73 17 -4 21 42 31 119 26 49 -3 54 -1 57 19 3
21 -1 22 -80 25 -75 3 -83 5 -86 24 -2 11 1 32 7 46 l9 25 214 -3 213 -2 0
-33z"/>
<path d="M1 78 l0 -63 20 49 c21 52 19 76 -6 76 -12 0 -15 -13 -14 -62z"/>
<path d="M1108 47 l-27 -42 25 -3 c34 -5 36 -1 32 47 l-3 41 -27 -43z"/>
</g>
</svg>
