<?xml version="1.0" standalone="no"?>
<!DOCTYPE svg PUBLIC "-//W3C//DTD SVG 20010904//EN"
 "http://www.w3.org/TR/2001/REC-SVG-20010904/DTD/svg10.dtd">
<svg version="1.0" xmlns="http://www.w3.org/2000/svg"
 width="210.000000pt" height="128.000000pt" viewBox="0 0 210.000000 128.000000"
 preserveAspectRatio="xMidYMid meet">
<metadata>
Created by potrace 1.16, written by Peter Selinger 2001-2019
</metadata>
<g transform="translate(0.000000,128.000000) scale(0.100000,-0.100000)"
fill="#000000" stroke="none">
<path d="M757 1177 c-9 -7 -17 -25 -19 -42 l-3 -30 -77 -3 c-46 -2 -79 1 -83
7 -9 16 -42 13 -49 -4 -3 -8 3 -30 13 -47 10 -18 21 -54 24 -79 l6 -47 -37 0
c-47 0 -120 -10 -133 -18 -20 -12 11 -33 39 -25 31 7 131 6 139 -3 3 -3 3 -12
0 -20 -4 -10 -26 -14 -94 -14 -96 0 -123 -6 -123 -29 0 -12 14 -14 78 -10 42
2 85 7 95 12 9 4 24 5 32 1 17 -6 21 -36 5 -36 -5 0 -10 -7 -10 -15 0 -8 5
-15 10 -15 6 0 10 -11 10 -25 0 -25 0 -25 -96 -25 -86 0 -96 -2 -101 -19 -11
-44 -178 -40 -266 6 -38 20 -54 11 -67 -37 -11 -41 0 -144 18 -162 10 -10 60
7 82 28 40 39 65 54 89 54 15 0 44 10 66 22 44 24 253 54 269 38 16 -16 -6
-32 -40 -28 -55 6 -169 -16 -169 -33 0 -10 10 -13 40 -11 22 2 44 7 50 11 5 5
36 11 68 14 55 5 57 5 57 -18 0 -13 -5 -27 -10 -30 -9 -5 -130 -16 -182 -16
-9 0 -22 -7 -28 -15 -18 -20 8 -27 72 -20 29 3 72 8 96 11 35 4 42 2 42 -13 0
-32 -15 -37 -102 -38 -54 -1 -94 -6 -103 -14 -25 -21 -5 -33 44 -27 44 6 62 9
124 23 22 4 27 2 27 -13 0 -10 -4 -24 -9 -32 -8 -12 -12 -13 -25 -1 -14 11
-19 10 -34 -4 -11 -10 -36 -16 -63 -16 -50 0 -75 -12 -64 -30 7 -11 68 -8 117
6 13 4 17 -5 22 -53 7 -70 11 -126 14 -170 2 -28 6 -33 27 -33 18 0 32 12 56
48 32 48 73 92 85 92 3 0 25 15 47 33 41 32 42 32 162 33 150 2 300 10 347 19
20 4 72 8 115 9 43 2 104 3 136 4 51 2 57 4 57 23 0 20 -4 21 -45 15 -37 -6
-45 -4 -45 8 0 13 24 16 163 18 l162 3 3 24 c3 18 0 22 -12 18 -8 -3 -61 -9
-118 -12 -57 -3 -118 -8 -137 -11 -33 -5 -91 11 -91 26 0 20 31 31 72 25 70
-8 208 5 208 21 0 11 -28 14 -136 14 -120 0 -135 2 -130 16 3 9 6 22 6 30 0
14 6 14 175 15 10 0 25 5 32 11 30 25 11 30 -98 25 l-110 -6 3 42 c2 31 8 43
21 45 16 3 17 1 7 -18 -12 -22 -11 -22 16 -16 16 4 46 7 66 6 21 0 55 4 76 9
20 6 83 11 138 12 103 1 120 5 126 27 2 9 -33 13 -137 16 -77 2 -162 9 -189
15 -58 14 -86 7 -86 -21 0 -11 -5 -18 -12 -15 -7 2 -13 19 -13 38 l0 34 160 2
c88 2 171 5 184 8 21 5 22 7 7 18 -12 9 -60 10 -184 5 -92 -3 -169 -4 -171 -2
-3 3 5 15 17 27 25 24 68 27 194 13 58 -7 69 -5 74 9 4 9 4 18 1 21 -3 3 -58
6 -121 7 -97 2 -116 4 -116 17 0 31 23 40 104 41 95 1 131 9 131 29 0 8 -6 14
-13 12 -32 -6 -187 -20 -191 -16 -2 2 8 22 23 44 14 22 26 44 26 50 0 14 21
49 43 72 10 10 15 23 12 28 -3 5 -50 7 -108 4 -80 -4 -105 -9 -114 -22 -30
-41 -36 -44 -73 -38 -20 3 -93 6 -161 5 -189 0 -203 1 -276 17 -37 8 -75 16
-83 18 -8 1 -19 12 -25 24 -12 27 -29 34 -48 19z m83 -78 c47 -25 59 -39 33
-39 -11 0 -28 -7 -39 -15 -30 -23 -41 -18 -48 20 -6 32 -2 55 9 55 3 0 23 -9
45 -21z m719 -27 c-8 -15 -26 -47 -40 -72 -13 -25 -28 -48 -34 -52 -16 -11
-26 30 -23 98 l2 63 46 3 c58 4 69 -5 49 -40z m-802 -61 c9 -61 24 -73 50 -40
36 43 57 59 80 59 12 0 35 8 51 18 23 14 49 17 128 15 86 -2 262 -8 332 -12
21 -1 23 -5 20 -53 l-3 -52 -70 -1 c-38 0 -79 5 -91 11 -13 7 -27 8 -35 3 -8
-5 -38 -9 -66 -9 -45 0 -53 -3 -53 -19 0 -18 9 -19 160 -17 144 1 160 -1 160
-16 0 -9 -5 -20 -11 -24 -6 -4 -75 -9 -153 -11 -77 -3 -144 -8 -149 -12 -4 -4
-1 -16 7 -26 10 -14 17 -17 27 -9 8 6 55 11 104 12 50 1 106 4 126 7 29 5 38
3 43 -11 11 -28 -9 -38 -81 -40 -159 -6 -205 -12 -221 -28 -14 -14 -14 -16 2
-22 9 -3 45 -4 79 0 34 3 97 9 140 12 l77 7 0 -27 c0 -25 -2 -26 -57 -28 -32
0 -69 -3 -83 -5 -102 -14 -124 -20 -128 -32 -4 -11 13 -12 99 -7 57 4 118 8
134 9 28 2 30 -1 33 -36 2 -24 -1 -39 -10 -42 -7 -3 -70 -6 -139 -8 -131 -4
-149 -8 -149 -33 0 -16 44 -18 122 -5 32 5 49 4 51 -3 2 -7 12 -7 31 2 35 16
83 16 89 0 9 -26 -13 -48 -46 -47 -38 1 -153 -9 -222 -19 -34 -5 -50 -12 -50
-22 0 -18 43 -18 197 1 59 7 111 10 114 6 4 -3 4 -17 0 -30 -5 -23 -12 -25
-83 -30 -72 -5 -113 -11 -171 -23 -16 -3 -22 -10 -18 -19 3 -8 0 -15 -7 -16
-7 0 -123 -1 -259 -2 -228 -2 -248 -1 -248 15 0 9 -4 20 -10 23 -13 8 -13 52
1 60 6 4 8 14 4 22 -3 9 -3 24 0 34 5 16 18 18 94 17 93 -1 121 6 102 25 -7 7
-45 10 -96 8 l-85 -2 0 29 0 29 98 -4 c77 -3 101 -1 116 12 15 11 17 18 9 26
-11 11 -157 0 -195 -16 -19 -7 -26 13 -20 57 3 21 8 26 21 20 9 -4 69 -6 133
-4 106 3 119 5 129 23 10 20 9 20 -78 14 -197 -14 -204 -14 -210 2 -10 26 11
32 132 34 145 2 175 7 175 26 0 13 -19 14 -127 8 -71 -3 -136 -9 -146 -11 -21
-7 -34 23 -18 39 7 7 42 12 83 12 51 0 72 4 76 13 3 11 -10 13 -62 10 -50 -2
-67 0 -71 11 -9 22 10 33 52 31 76 -4 114 0 134 14 20 13 20 14 2 19 -10 3
-52 5 -93 5 -41 0 -75 2 -75 5 0 19 51 135 56 129 4 -4 11 -31 16 -61z m-93
-19 c-18 -45 -28 -57 -45 -57 -19 0 -21 6 -23 60 l-1 60 40 5 c22 3 43 1 46
-3 3 -5 -4 -34 -17 -65z m812 -109 c-11 -11 -19 6 -11 24 8 17 8 17 12 0 3
-10 2 -21 -1 -24z m-846 1 c0 -8 -4 -12 -10 -9 -5 3 -10 10 -10 16 0 5 5 9 10
9 6 0 10 -7 10 -16z m-185 -204 c-3 -5 -13 -10 -21 -10 -8 0 -12 5 -9 10 3 6
13 10 21 10 8 0 12 -4 9 -10z m125 0 c0 -5 -15 -10 -32 -10 -25 0 -29 3 -18
10 20 13 50 13 50 0z m963 3 c-7 -2 -19 -2 -25 0 -7 3 -2 5 12 5 14 0 19 -2
13 -5z m-1349 -53 c34 -9 45 -15 35 -21 -8 -5 -20 -9 -27 -9 -7 0 -28 -11 -46
-25 -48 -36 -56 -33 -56 26 0 48 1 51 23 46 12 -3 44 -11 71 -17z m1241 -260
c9 -15 -8 -18 -136 -24 -64 -3 -124 -9 -134 -12 -12 -5 -16 -4 -12 3 7 11 51
20 136 28 24 2 46 6 49 9 10 10 91 6 97 -4z m-800 -55 c11 -1 22 -3 25 -5 3
-1 20 -1 38 0 45 2 41 -21 -8 -44 -36 -17 -110 -97 -110 -118 0 -4 -4 -8 -9
-8 -9 0 -23 168 -15 182 4 5 18 6 33 3 14 -4 35 -8 46 -10z"/>
<path d="M853 873 c-32 -3 -43 -8 -43 -21 0 -14 10 -17 53 -17 44 0 52 3 52
19 0 22 -5 24 -62 19z"/>
<path d="M640 462 c-5 -2 -10 -9 -10 -16 0 -9 29 -13 100 -15 106 -2 140 3
140 22 0 9 -31 12 -110 12 -60 0 -114 -1 -120 -3z"/>
<path d="M825 400 c-16 -4 -49 -8 -72 -9 -41 -1 -65 -15 -41 -24 19 -6 149 4
176 14 13 5 20 13 17 19 -7 11 -36 11 -80 0z"/>
<path d="M624 379 c-9 -16 17 -30 41 -23 37 12 35 18 -7 28 -16 3 -30 1 -34
-5z"/>
<path d="M400 773 c-14 -3 -31 -9 -37 -15 -20 -16 -4 -30 26 -22 14 4 55 10
90 13 89 8 96 31 9 30 -34 -1 -74 -4 -88 -6z"/>
<path d="M2092 620 c0 -14 2 -19 5 -12 2 6 2 18 0 25 -3 6 -5 1 -5 -13z"/>
<path d="M1751 614 c0 -11 3 -14 6 -6 3 7 2 16 -1 19 -3 4 -6 -2 -5 -13z"/>
</g>
</svg>
