<?xml version="1.0" standalone="no"?>
<!DOCTYPE svg PUBLIC "-//W3C//DTD SVG 20010904//EN"
 "http://www.w3.org/TR/2001/REC-SVG-20010904/DTD/svg10.dtd">
<svg version="1.0" xmlns="http://www.w3.org/2000/svg"
 width="105.000000pt" height="62.000000pt" viewBox="0 0 105.000000 62.000000"
 preserveAspectRatio="xMidYMid meet">
<metadata>
Created by potrace 1.16, written by Peter Selinger 2001-2019
</metadata>
<g transform="translate(0.000000,62.000000) scale(0.100000,-0.100000)"
fill="#000000" stroke="none">
<path d="M251 547 c-7 -9 -10 -40 -7 -83 3 -38 2 -88 -1 -111 l-6 -42 -96 -3
c-88 -3 -96 -5 -96 -23 0 -18 8 -20 90 -25 l90 -5 -1 -30 c0 -16 -4 -58 -8
-92 -8 -62 -8 -62 19 -69 15 -4 52 -1 82 6 37 8 124 11 264 9 178 -3 211 -1
219 11 14 21 12 28 -9 49 -19 19 -28 104 -13 128 9 14 115 33 184 33 51 0 69
13 40 29 -12 6 -54 7 -113 2 -52 -4 -97 -6 -100 -5 -10 5 -8 174 2 180 5 3 9
14 9 26 0 20 -4 20 -247 17 -137 -2 -257 0 -269 4 -14 5 -25 3 -33 -6z m467
-46 c5 -3 7 -21 4 -39 -4 -33 -5 -33 -56 -32 -75 2 -78 2 -74 -17 2 -14 16
-19 63 -23 l60 -5 6 -39 c4 -22 3 -51 -1 -65 -5 -22 -12 -26 -47 -27 -22 -1
-46 -4 -52 -8 -22 -14 9 -36 49 -36 43 0 55 -16 40 -54 -9 -24 -11 -24 -177
-30 -92 -3 -188 -7 -213 -8 -37 -3 -45 0 -48 16 -6 31 13 38 119 42 107 4 131
12 110 38 -13 16 -53 16 -158 1 -49 -7 -53 -6 -53 12 0 12 9 27 21 34 l21 14
-21 26 c-20 26 -19 66 1 80 5 3 54 4 109 1 l101 -5 -4 24 c-3 21 -8 24 -48 25
-25 0 -73 1 -108 2 l-63 2 3 33 3 32 80 6 c108 8 321 8 333 0z"/>
<path d="M1028 57 c-15 -42 -15 -49 -2 -54 22 -8 26 0 22 53 l-3 49 -17 -48z"/>
</g>
</svg>
