<?xml version="1.0" standalone="no"?>
<!DOCTYPE svg PUBLIC "-//W3C//DTD SVG 20010904//EN"
 "http://www.w3.org/TR/2001/REC-SVG-20010904/DTD/svg10.dtd">
<svg version="1.0" xmlns="http://www.w3.org/2000/svg"
 width="256.000000pt" height="116.000000pt" viewBox="0 0 256.000000 116.000000"
 preserveAspectRatio="xMidYMid meet">
<metadata>
Created by potrace 1.16, written by Peter Selinger 2001-2019
</metadata>
<g transform="translate(0.000000,116.000000) scale(0.100000,-0.100000)"
fill="#000000" stroke="none">
<path d="M2088 1153 c7 -3 16 -2 19 1 4 3 -2 6 -13 5 -11 0 -14 -3 -6 -6z"/>
<path d="M2218 1153 c28 -2 76 -2 105 0 28 2 5 3 -53 3 -58 0 -81 -1 -52 -3z"/>
<path d="M2433 1153 c26 -2 67 -2 90 0 23 2 2 3 -48 3 -49 0 -68 -1 -42 -3z"/>
<path d="M930 1125 c7 -8 16 -15 21 -15 5 0 9 7 9 15 0 9 -9 15 -21 15 -18 0
-19 -2 -9 -15z"/>
<path d="M857 1053 c-4 -3 -7 -19 -7 -34 0 -15 -4 -30 -9 -33 -4 -3 -45 -1
-91 4 -46 5 -90 6 -98 1 -12 -7 -16 -33 -17 -135 -1 -70 -5 -130 -9 -134 -10
-10 -152 -3 -201 9 -103 27 -178 56 -186 72 -15 27 -27 20 -54 -34 -21 -41
-26 -62 -24 -122 1 -40 -3 -84 -9 -98 -19 -48 15 -53 74 -11 21 16 55 34 74
41 42 16 65 24 105 41 17 7 56 16 87 20 32 5 72 16 89 24 43 21 43 21 35 -21
-4 -21 -11 -80 -16 -131 -5 -51 -14 -101 -19 -111 -13 -23 -62 -35 -121 -29
-35 4 -38 -30 -7 -79 21 -32 39 -75 53 -130 6 -22 33 -14 40 12 4 18 15 26 41
31 19 4 56 17 83 30 26 13 60 26 75 30 24 6 26 4 21 -14 -9 -28 3 -72 20 -72
14 0 22 23 26 80 3 34 5 35 78 58 41 13 94 33 118 44 23 12 45 18 49 15 3 -4
-2 -49 -12 -99 -23 -120 -24 -153 -5 -153 15 0 20 17 39 121 13 73 35 120 70
150 33 29 55 37 326 124 50 15 112 38 138 49 27 12 56 21 66 21 21 0 126 -102
147 -143 9 -16 24 -38 33 -48 22 -24 61 -97 61 -115 0 -8 5 -23 12 -34 10 -16
9 -23 -10 -43 -20 -21 -30 -75 -17 -89 3 -3 16 -3 30 0 24 4 27 9 39 65 4 17
16 31 31 37 26 10 32 24 15 35 -12 7 -13 42 -2 47 4 2 23 35 42 73 19 39 48
90 65 115 33 48 79 125 165 275 43 75 74 120 107 156 39 41 36 63 -10 75 -45
11 -386 13 -393 3 -3 -5 -10 -7 -16 -3 -5 3 -62 5 -126 4 -65 -2 -126 -3 -137
-3 -72 -2 -465 16 -535 24 -47 5 -120 9 -163 9 -46 0 -92 6 -114 15 -41 17
-38 17 -46 8z m228 -68 c66 -2 209 -8 318 -13 108 -6 279 -9 380 -7 129 3 173
2 152 -5 -16 -6 -94 -12 -173 -15 -79 -2 -148 -7 -153 -11 -6 -3 -81 -6 -168
-6 -115 0 -172 5 -211 16 -71 21 -119 21 -136 -1 -10 -15 -29 -18 -104 -19
-50 0 -93 3 -96 8 -3 5 -2 22 1 39 6 28 9 30 38 23 18 -4 86 -8 152 -9z m1125
-30 c5 -3 0 -27 -10 -53 -30 -78 -77 -203 -100 -267 -12 -33 -26 -69 -30 -80
-5 -11 -14 -38 -21 -60 -23 -79 -64 -177 -74 -178 -12 -2 -18 19 -44 163 -26
140 -26 156 -2 197 16 25 17 34 7 48 -11 15 -16 15 -60 -8 -27 -13 -56 -23
-65 -20 -9 2 -45 -8 -80 -22 -36 -14 -73 -25 -83 -25 -10 0 -40 -9 -66 -21
-26 -11 -63 -27 -82 -36 -46 -20 -205 -73 -219 -73 -19 0 -12 19 29 80 22 32
40 63 40 67 0 15 161 173 176 173 7 0 25 16 40 35 l26 35 163 0 c119 0 174 4
205 15 23 8 63 15 89 15 25 0 52 4 59 9 15 9 90 14 102 6z m150 -3 c0 -5 -13
-27 -28 -48 -26 -36 -179 -297 -206 -351 -11 -24 -32 -32 -23 -10 2 6 34 89
71 183 36 94 66 174 66 177 0 3 4 17 10 31 8 23 15 26 60 26 27 0 50 -4 50 -8z
m-1580 -26 c0 -8 -5 -18 -10 -21 -6 -4 -21 -27 -34 -53 -14 -26 -31 -56 -40
-67 -14 -19 -15 -13 -16 68 l0 87 50 0 c37 0 50 -4 50 -14z m60 -50 c0 -13 4
-16 18 -10 24 10 211 27 229 20 16 -6 15 -13 -6 -106 -20 -86 -22 -128 -8
-157 7 -15 13 -53 12 -83 l-1 -55 -55 -11 c-30 -6 -70 -16 -89 -21 -57 -16
-64 -7 -36 45 14 26 39 78 56 116 17 37 38 75 46 83 8 9 14 23 12 32 -3 13
-18 16 -88 16 l-85 0 -7 -55 c-4 -30 -11 -99 -14 -152 -4 -56 -12 -102 -19
-108 -14 -12 -162 -36 -171 -28 -3 3 -1 23 5 45 6 21 11 59 11 85 0 76 30 196
50 201 9 2 41 46 70 96 51 89 69 101 70 47z m580 24 c0 -5 -9 -10 -19 -10 -11
0 -23 5 -26 10 -4 6 5 10 19 10 14 0 26 -4 26 -10z m-163 -15 c1 -5 -13 -28
-33 -50 -19 -22 -47 -59 -62 -82 -15 -24 -30 -43 -34 -43 -11 0 -10 42 3 97
22 92 24 94 76 91 25 -2 48 -7 50 -13z m80 -27 c-7 -40 -39 -153 -55 -190 -10
-24 -17 -26 -72 -30 -34 -1 -65 1 -70 6 -5 5 17 39 54 81 35 40 78 94 95 119
38 54 55 60 48 14z m133 -3 c0 -3 -30 -34 -66 -70 -59 -57 -66 -62 -61 -37 13
63 20 88 30 100 9 11 97 18 97 7z m-1175 -140 c24 -15 55 -25 78 -25 49 0 47
-12 -5 -34 -24 -9 -62 -26 -86 -37 -23 -10 -47 -19 -52 -19 -11 0 -14 99 -4
124 8 22 22 20 69 -9z m655 -23 c0 -10 -4 -22 -8 -27 -5 -6 -21 -41 -36 -80
-16 -38 -35 -83 -43 -100 -13 -29 -14 -27 -9 35 11 141 18 171 40 180 35 14
56 11 56 -8z m913 -91 c-5 -50 -2 -64 16 -89 21 -29 29 -72 13 -72 -4 0 -16
17 -27 37 -11 20 -42 59 -68 86 -26 27 -45 52 -42 56 6 6 92 39 107 40 3 1 4
-26 1 -58z m-613 -11 c0 -38 -86 -120 -111 -105 -9 6 -13 108 -4 116 2 3 29 5
60 5 42 -1 55 -5 55 -16z m-90 -134 c0 -13 -20 -26 -41 -26 -14 0 -11 28 4 33
23 10 37 7 37 -7z m-85 -25 c0 -18 -236 -94 -249 -81 -21 21 29 50 123 70 52
11 97 22 100 25 8 9 26 -1 26 -14z m-275 -55 c0 -20 -25 -66 -37 -66 -8 0 -60
-18 -114 -40 -113 -46 -119 -47 -119 -22 0 10 -7 27 -15 38 -27 36 -19 54 23
54 21 0 43 -5 49 -11 7 -7 16 -5 28 8 20 20 185 55 185 39z"/>
</g>
</svg>
