<?xml version="1.0" standalone="no"?>
<!DOCTYPE svg PUBLIC "-//W3C//DTD SVG 20010904//EN"
 "http://www.w3.org/TR/2001/REC-SVG-20010904/DTD/svg10.dtd">
<svg version="1.0" xmlns="http://www.w3.org/2000/svg"
 width="188.000000pt" height="100.000000pt" viewBox="0 0 188.000000 100.000000"
 preserveAspectRatio="xMidYMid meet">
<metadata>
Created by potrace 1.16, written by Peter Selinger 2001-2019
</metadata>
<g transform="translate(0.000000,100.000000) scale(0.100000,-0.100000)"
fill="#000000" stroke="none">
<path d="M509 803 c-16 -19 -19 -138 -5 -249 5 -40 6 -84 2 -98 -8 -32 -31
-33 -142 -7 -126 31 -142 32 -159 15 -22 -22 -26 -49 -23 -133 4 -92 18 -107
69 -69 75 56 216 117 239 103 5 -3 10 -32 10 -63 0 -77 8 -102 32 -102 19 0
20 4 12 47 -18 107 0 162 50 149 34 -8 33 -38 -6 -177 -6 -20 -7 -46 -3 -59
11 -35 32 -5 45 65 24 131 27 146 36 154 5 4 71 5 147 3 l137 -4 26 -44 c14
-24 30 -44 35 -44 15 0 23 30 10 43 -6 6 -11 18 -11 28 0 17 40 24 209 34 45
3 91 10 102 15 14 8 21 6 30 -12 7 -13 33 -45 58 -71 25 -27 52 -61 60 -75 19
-37 70 -90 104 -108 15 -8 27 -21 27 -29 0 -7 5 -17 12 -21 13 -8 40 24 31 38
-5 9 14 349 23 394 7 38 101 172 131 186 37 18 39 55 3 49 -14 -2 -75 -3 -136
-2 -93 1 -114 -1 -135 -17 -21 -16 -35 -17 -114 -11 -49 4 -164 11 -255 15
-124 5 -167 10 -173 20 -11 19 -36 18 -58 -2 -15 -13 -24 -14 -50 -5 -18 6
-66 11 -107 11 -54 0 -93 7 -144 25 -81 29 -101 31 -119 8z m95 -59 c23 -9 20
-21 -10 -40 -30 -20 -50 -7 -39 25 6 21 21 26 49 15z m251 -40 c0 -17 -97 -88
-104 -76 -3 6 -24 12 -46 14 -35 3 -40 6 -40 28 0 20 7 27 40 37 49 15 150 13
150 -3z m275 -1 c0 -15 -95 -103 -111 -103 -48 0 -63 94 -15 103 37 7 126 7
126 0z m341 0 c18 11 97 -22 119 -49 9 -10 11 -67 8 -217 -5 -196 -11 -243
-29 -232 -17 11 -79 133 -79 156 0 14 18 60 40 103 50 97 43 111 -34 73 -30
-15 -59 -27 -65 -27 -5 0 -30 -11 -55 -24 -48 -26 -176 -52 -202 -42 -10 4
-14 13 -10 22 3 9 6 55 7 102 1 95 13 128 51 134 13 2 70 0 128 -3 61 -3 112
-1 121 4z m228 -2 c12 -8 9 -18 -16 -56 l-30 -47 -12 46 c-14 57 -15 54 12 59
12 2 24 5 27 5 3 1 11 -2 19 -7z m-769 -25 c0 -20 -19 -31 -32 -18 -6 6 -7 15
-4 21 10 16 36 13 36 -3z m-340 -68 c0 -13 -9 -41 -19 -63 l-18 -40 -6 54 c-7
61 -4 71 24 71 13 0 19 -7 19 -22z m324 -10 c24 -34 20 -43 -36 -79 -29 -18
-65 -46 -81 -61 -23 -24 -35 -28 -81 -28 -30 0 -57 4 -60 9 -6 9 27 82 56 124
14 19 25 26 41 22 13 -3 32 3 47 15 35 28 94 27 114 -2z m214 -12 c5 -42 -13
-55 -40 -28 -21 21 -21 22 -3 42 24 26 39 21 43 -14z m-448 2 c-1 -7 -7 -24
-14 -37 l-13 -24 -13 22 c-6 12 -9 29 -6 37 7 17 46 19 46 2z m392 -85 c52
-51 50 -69 -9 -76 -51 -6 -73 4 -73 33 0 28 21 80 33 80 6 0 28 -17 49 -37z
m-122 -29 c0 -31 -26 -42 -48 -20 -16 16 -15 18 8 36 29 22 40 18 40 -16z
m-335 16 c10 -16 -14 -50 -35 -50 -24 0 -25 5 -2 35 19 27 28 30 37 15z m845
-60 c-14 -42 -33 -51 -49 -23 -12 22 3 51 32 62 30 12 32 7 17 -39z m-1112
-26 c17 -4 32 -9 32 -13 0 -9 -129 -68 -135 -62 -9 8 -5 52 6 73 8 15 17 19
37 14 15 -3 42 -9 60 -12z"/>
<path d="M1863 590 c-6 -19 -23 -68 -37 -108 -28 -80 -35 -186 -15 -225 15
-28 50 -67 61 -67 14 0 9 55 -7 76 -19 25 -19 111 0 186 9 33 15 85 13 116
l-3 57 -12 -35z"/>
</g>
</svg>
