<?xml version="1.0" standalone="no"?>
<!DOCTYPE svg PUBLIC "-//W3C//DTD SVG 20010904//EN"
 "http://www.w3.org/TR/2001/REC-SVG-20010904/DTD/svg10.dtd">
<svg version="1.0" xmlns="http://www.w3.org/2000/svg"
 width="176.000000pt" height="104.000000pt" viewBox="0 0 176.000000 104.000000"
 preserveAspectRatio="xMidYMid meet">
<metadata>
Created by potrace 1.16, written by Peter Selinger 2001-2019
</metadata>
<g transform="translate(0.000000,104.000000) scale(0.100000,-0.100000)"
fill="#000000" stroke="none">
<path d="M536 905 c-10 -27 -7 -84 8 -138 8 -29 17 -75 20 -103 l6 -51 -47
-10 c-54 -12 -169 3 -195 24 -8 7 -30 16 -49 19 -19 4 -42 13 -51 21 -47 41
-76 -21 -59 -122 6 -34 11 -78 11 -98 0 -30 4 -37 19 -37 11 0 32 11 46 24 15
14 50 37 78 52 29 15 63 33 77 41 14 7 36 13 50 13 14 1 43 7 65 15 22 8 43
11 48 6 5 -5 1 -80 -8 -167 -9 -88 -19 -196 -22 -241 -5 -96 3 -103 66 -55 99
77 134 92 209 92 59 0 72 3 76 18 7 21 10 73 6 87 -4 10 8 107 16 136 3 9 19
23 37 30 18 7 55 27 82 45 40 25 62 32 110 34 87 4 121 6 209 15 l79 8 -9 -39
c-4 -21 -8 -61 -9 -89 0 -41 3 -50 19 -53 25 -5 36 14 36 69 0 26 7 64 16 85
9 22 19 64 21 94 5 65 52 171 95 217 46 48 34 65 -44 58 -35 -3 -139 -7 -233
-10 -93 -2 -177 -6 -185 -7 -8 -1 -62 1 -120 6 -58 4 -175 9 -260 10 -85 2
-167 7 -181 10 -20 6 -28 3 -33 -9z m154 -63 c0 -4 -15 -32 -34 -62 l-35 -55
-11 30 c-7 17 -14 45 -17 63 l-6 32 52 0 c28 0 51 -4 51 -8z m158 -14 c-2 -16
-12 -24 -35 -29 -43 -8 -85 0 -79 16 2 7 -1 18 -7 24 -8 8 7 11 57 11 64 0 67
-1 64 -22z m157 12 c8 -13 -74 -122 -85 -115 -12 7 -23 81 -15 105 5 16 15 20
50 20 24 0 47 -5 50 -10z m398 1 c23 -9 25 -14 26 -98 1 -48 3 -97 4 -107 2
-17 -8 -21 -73 -31 -138 -22 -407 -12 -434 15 -6 6 -2 18 11 32 11 13 34 43
51 68 17 25 46 62 64 82 31 35 37 38 98 41 143 7 230 7 253 -2z m112 -21 c-9
-16 -20 -30 -25 -30 -6 0 -10 14 -10 30 0 25 4 30 25 30 25 0 25 0 10 -30z
m-660 -90 c0 -10 -9 -15 -27 -14 -133 3 -148 5 -148 18 0 20 10 22 97 16 60
-4 78 -8 78 -20z m-97 -61 c98 -1 130 -11 101 -30 -8 -5 -65 -9 -126 -9 -105
0 -113 1 -113 19 0 18 18 32 31 25 3 -2 51 -4 107 -5z m-470 -93 c15 -8 36
-18 47 -21 17 -6 12 -11 -30 -31 -27 -12 -53 -23 -56 -23 -8 -1 -20 70 -13 81
7 12 22 10 52 -6z m582 -5 c0 -16 -9 -21 -45 -27 -100 -15 -239 9 -198 34 6 4
63 8 127 10 110 3 116 2 116 -17z m118 -20 c23 -6 22 -7 -17 -29 -41 -23 -61
-22 -61 2 0 31 30 41 78 27z m-130 -68 c-3 -31 3 -30 -140 -35 -89 -3 -114 5
-103 33 4 11 22 14 78 11 39 -2 88 1 107 6 56 16 62 15 58 -15z m-10 -85 c-8
-22 -221 -38 -233 -18 -7 11 21 19 90 23 122 8 147 7 143 -5z m-11 -73 c8 -26
-17 -35 -108 -39 -52 -2 -102 -7 -111 -11 -14 -6 -18 -2 -18 18 0 24 3 26 78
32 42 3 84 8 92 10 26 6 63 0 67 -10z m-192 -135 c0 -15 -50 -38 -61 -28 -3 4
0 16 6 28 13 24 55 24 55 0z"/>
<path d="M1751 294 c0 -11 3 -14 6 -6 3 7 2 16 -1 19 -3 4 -6 -2 -5 -13z"/>
</g>
</svg>
