<?xml version="1.0" standalone="no"?>
<!DOCTYPE svg PUBLIC "-//W3C//DTD SVG 20010904//EN"
 "http://www.w3.org/TR/2001/REC-SVG-20010904/DTD/svg10.dtd">
<svg version="1.0" xmlns="http://www.w3.org/2000/svg"
 width="278.000000pt" height="202.000000pt" viewBox="0 0 278.000000 202.000000"
 preserveAspectRatio="xMidYMid meet">
<metadata>
Created by potrace 1.16, written by Peter Selinger 2001-2019
</metadata>
<g transform="translate(0.000000,202.000000) scale(0.100000,-0.100000)"
fill="#000000" stroke="none">
<path d="M1283 1812 c-18 -3 -23 -10 -23 -35 0 -18 -11 -49 -26 -70 -25 -37
-27 -38 -72 -32 -97 13 -147 28 -164 49 -14 17 -21 19 -35 10 -14 -9 -20 -32
-27 -108 -10 -111 -5 -126 41 -108 33 13 153 27 153 18 0 -3 -19 -32 -42 -64
-24 -32 -60 -87 -81 -122 -69 -119 -53 -110 -212 -113 -77 -2 -158 1 -180 5
-22 5 -78 12 -125 14 -47 3 -89 10 -95 15 -13 13 -38 11 -81 -7 l-38 -16 23
-17 c19 -15 22 -25 20 -72 -3 -71 3 -80 49 -74 20 2 122 7 225 10 104 3 202 8
218 12 44 8 38 -17 -25 -100 -29 -40 -61 -88 -71 -107 -10 -19 -55 -76 -100
-126 -45 -50 -110 -132 -145 -183 -47 -69 -67 -90 -79 -86 -9 4 -29 9 -46 12
-16 3 -49 16 -72 29 -55 32 -73 31 -73 -3 0 -16 -10 -62 -21 -103 -12 -41 -25
-92 -30 -114 -5 -21 -16 -51 -24 -67 -17 -31 -20 -75 -6 -83 16 -10 35 3 58
38 23 36 42 44 148 66 33 7 78 18 100 25 22 7 72 16 110 20 39 4 75 11 80 14
26 18 110 34 220 42 192 13 367 29 376 35 5 3 9 12 9 20 0 11 -19 14 -97 14
-54 0 -108 3 -120 6 -30 8 -36 31 -13 52 19 17 46 52 94 122 13 19 34 46 46
60 12 14 37 48 55 76 18 29 44 59 56 68 13 9 44 45 69 80 25 35 76 103 114
150 l70 86 50 1 c220 3 380 9 491 18 263 23 294 24 310 11 9 -7 13 -20 11 -29
-3 -9 -10 -57 -16 -108 -13 -104 -5 -136 33 -131 20 3 22 10 24 68 1 36 9 121
18 190 8 68 15 139 15 158 0 20 10 46 24 65 13 18 36 57 51 87 34 67 104 167
139 197 14 13 26 31 26 42 0 17 -11 19 -137 23 -162 6 -199 -5 -158 -46 20
-20 19 -36 -2 -37 -10 0 -29 -2 -43 -3 -102 -11 -296 -20 -403 -18 -105 2
-136 6 -169 22 -52 25 -52 25 -88 -1 -27 -20 -36 -21 -120 -15 -51 4 -105 10
-122 13 l-30 6 42 38 c23 21 40 44 38 50 -5 16 -166 65 -195 61z m86 -73 l33
-11 -33 -34 c-26 -27 -41 -34 -71 -34 -21 0 -38 3 -38 8 0 11 60 82 69 82 5 0
23 -5 40 -11z m1211 -55 c0 -3 -19 -31 -43 -62 -24 -31 -53 -79 -65 -105 -13
-26 -27 -45 -32 -42 -5 3 -7 41 -4 88 9 134 4 127 79 127 36 0 65 -3 65 -6z
m-1401 -60 c2 -2 1 -10 -2 -19 -5 -12 -24 -15 -91 -15 -86 0 -101 6 -90 35 6
14 18 15 93 9 47 -4 88 -8 90 -10z m105 -13 c6 -10 -33 -20 -52 -13 -7 2 -10
8 -6 13 7 12 51 12 58 0z m136 -1 c0 -5 -15 -10 -32 -9 -31 1 -32 1 -8 9 35
11 40 11 40 0z m952 -11 c17 -9 19 -17 13 -57 -4 -26 -10 -105 -14 -177 l-6
-130 -50 2 c-27 1 -165 -5 -305 -13 -494 -29 -484 -28 -478 -12 21 52 235 316
282 346 39 24 51 26 230 34 104 4 192 10 194 13 10 10 113 5 134 -6z m-712
-43 c0 -8 -4 -18 -10 -21 -12 -7 -69 -105 -135 -230 -26 -49 -49 -92 -51 -94
-5 -6 -313 0 -367 8 l-48 6 45 60 c24 33 56 74 69 90 14 17 50 64 81 105 l57
75 62 6 c34 3 115 6 180 7 96 2 117 -1 117 -12z m-428 -31 c-9 -13 -64 -85
-121 -160 -93 -122 -121 -151 -121 -120 0 6 37 66 83 134 45 68 85 133 89 143
9 22 44 37 70 30 17 -4 17 -5 0 -27z m-661 -332 c26 -5 104 -6 175 -3 138 7
154 5 154 -16 0 -29 -41 -34 -260 -34 -133 0 -229 4 -241 10 -19 11 -26 40
-12 54 9 9 118 2 184 -11z m534 -24 c11 -1 -7 -5 -40 -9 -65 -9 -71 -8 -60 10
5 8 21 10 44 6 20 -3 45 -6 56 -7z m305 -24 c0 -4 -7 -19 -14 -34 -14 -26 -21
-28 -92 -34 -115 -10 -372 -8 -379 2 -12 20 40 41 105 42 36 0 115 6 175 13
121 15 205 19 205 11z m-80 -116 c0 -6 -20 -36 -44 -67 -95 -121 -98 -124
-120 -117 -12 4 -84 9 -161 11 -152 4 -224 10 -233 18 -3 3 3 15 13 26 17 19
31 20 214 20 207 0 241 4 241 26 0 11 -22 14 -97 16 -54 1 -129 3 -168 4 -38
2 -82 3 -97 3 -32 1 -36 16 -12 42 12 14 21 16 41 8 13 -5 28 -7 32 -5 3 3 85
7 181 11 96 3 176 8 179 11 9 8 31 4 31 -7z m-171 -219 c3 0 -34 -45 -78 -95
-10 -11 -26 -33 -36 -49 -19 -28 -19 -28 -89 -21 -52 5 -288 15 -364 15 -1 0
5 11 13 24 14 21 25 24 118 30 57 4 142 2 194 -3 90 -11 152 -3 139 18 -9 15
-76 23 -236 30 l-155 6 27 27 27 28 218 -5 c120 -2 220 -5 222 -5z m-210 -206
c17 -4 31 -12 31 -19 0 -31 -24 -34 -212 -23 -147 9 -192 9 -214 -1 -49 -22
-11 -33 128 -37 73 -3 140 -5 148 -5 8 0 30 -2 48 -5 27 -4 33 -9 30 -27 -3
-19 -10 -22 -53 -25 -27 -2 -68 2 -90 8 -22 7 -75 14 -118 15 -109 5 -157 14
-157 31 0 32 40 79 72 85 45 9 348 11 387 3z m-617 -138 c35 -8 124 -17 198
-21 161 -7 206 -13 193 -26 -9 -9 -40 -17 -203 -48 -52 -10 -143 -29 -203 -41
-59 -13 -109 -21 -112 -19 -2 3 4 29 15 59 10 30 21 67 25 83 6 32 5 31 87 13z"/>
<path d="M14 1306 c-21 -34 -15 -70 14 -74 18 -3 23 2 28 27 4 18 11 34 15 37
5 3 9 12 9 20 0 24 -48 17 -66 -10z"/>
<path d="M0 1129 c0 -11 4 -17 10 -14 13 8 13 35 0 35 -5 0 -10 -9 -10 -21z"/>
<path d="M2280 243 c-86 -90 -207 -191 -248 -209 -42 -17 -100 -11 -109 12 -3
10 8 28 32 49 37 34 42 57 14 63 -9 1 -46 -24 -83 -57 -57 -50 -73 -60 -94
-54 -19 4 -29 0 -43 -18 -10 -13 -21 -20 -25 -16 -4 4 9 23 29 42 21 20 44 50
53 66 14 28 14 33 -1 55 -19 29 -23 30 -76 2 -51 -28 -99 -96 -91 -133 4 -23
2 -25 -36 -25 -23 0 -44 -5 -47 -10 -9 -15 247 -13 280 2 19 9 28 9 37 0 7 -7
46 -12 99 -12 92 0 121 12 190 76 31 30 43 21 24 -17 -26 -49 -20 -59 31 -59
27 0 43 4 39 10 -3 6 -12 10 -20 10 -17 0 -1 63 26 102 11 14 19 31 19 36 0
19 23 25 107 28 46 2 88 6 94 10 17 10 -11 34 -40 32 -14 -1 -40 -1 -58 0 -30
2 -32 3 -26 37 8 51 -12 45 -77 -22z m-510 -110 c0 -17 -53 -73 -71 -73 -27 0
-24 17 10 51 27 26 61 39 61 22z"/>
<path d="M1259 254 c-9 -11 -4 -17 27 -30 36 -15 51 -15 132 2 25 5 32 3 32
-10 0 -9 -4 -16 -8 -16 -5 0 -48 -45 -96 -100 l-86 -100 122 2 c108 2 112 3
36 5 -49 2 -88 8 -88 13 0 5 45 55 100 111 55 57 100 109 100 115 0 20 -27 24
-147 23 -82 -1 -116 -5 -124 -15z"/>
<path d="M2081 251 c-34 -34 -20 -79 15 -50 27 22 35 46 19 59 -11 9 -18 7
-34 -9z"/>
<path d="M776 227 c-13 -17 -34 -54 -45 -80 -11 -26 -34 -68 -51 -92 -16 -24
-30 -46 -30 -50 0 -3 19 -5 42 -3 38 3 43 6 49 33 8 36 34 93 72 157 16 26 26
52 22 58 -12 19 -34 10 -59 -23z"/>
<path d="M595 85 c-36 -13 -85 -58 -85 -77 0 -17 44 -6 72 17 16 14 38 25 48
25 9 0 23 7 31 16 10 13 10 17 -2 25 -17 11 -16 11 -64 -6z"/>
<path d="M2706 88 c-31 -11 -96 -65 -96 -80 0 -18 48 -7 70 17 13 14 31 25 41
25 27 0 49 11 49 25 0 10 -25 28 -33 24 -1 0 -15 -5 -31 -11z"/>
<path d="M920 10 c-11 -7 -4 -10 25 -10 29 0 36 3 25 10 -8 5 -19 10 -25 10
-5 0 -17 -5 -25 -10z"/>
<path d="M2765 10 c-3 -5 -1 -10 4 -10 6 0 11 5 11 10 0 6 -2 10 -4 10 -3 0
-8 -4 -11 -10z"/>
<path d="M78 3 c7 -3 16 -2 19 1 4 3 -2 6 -13 5 -11 0 -14 -3 -6 -6z"/>
</g>
</svg>
