<?xml version="1.0" standalone="no"?>
<!DOCTYPE svg PUBLIC "-//W3C//DTD SVG 20010904//EN"
 "http://www.w3.org/TR/2001/REC-SVG-20010904/DTD/svg10.dtd">
<svg version="1.0" xmlns="http://www.w3.org/2000/svg"
 width="234.000000pt" height="138.000000pt" viewBox="0 0 234.000000 138.000000"
 preserveAspectRatio="xMidYMid meet">
<metadata>
Created by potrace 1.16, written by Peter Selinger 2001-2019
</metadata>
<g transform="translate(0.000000,138.000000) scale(0.100000,-0.100000)"
fill="#000000" stroke="none">
<path d="M2152 1289 c-13 -5 -76 -14 -140 -19 -65 -6 -157 -15 -207 -21 -49
-5 -160 -9 -245 -9 -85 1 -177 -3 -205 -9 -27 -6 -162 -15 -300 -21 -137 -6
-261 -12 -275 -14 -33 -6 -132 20 -173 44 -46 28 -72 25 -98 -11 -19 -27 -22
-44 -23 -140 0 -90 2 -112 17 -126 16 -16 18 -16 40 5 41 39 49 30 42 -50 -10
-124 3 -113 -139 -116 l-125 -3 -39 35 c-41 38 -63 44 -79 24 -35 -47 -39
-288 -4 -288 9 0 37 25 63 54 37 42 60 58 100 72 29 9 69 28 88 41 25 16 49
23 84 23 l49 0 -7 -47 c-3 -27 -9 -93 -13 -148 -4 -68 -12 -111 -24 -135 -11
-19 -19 -40 -19 -47 0 -16 -15 -17 -41 -2 -33 17 -46 -4 -53 -89 -3 -42 -10
-102 -15 -132 -7 -43 -6 -58 5 -70 20 -20 43 -4 71 51 30 58 117 137 161 145
18 4 55 3 80 -1 119 -21 312 18 312 62 0 18 -23 16 -81 -4 -26 -10 -51 -14
-54 -11 -4 4 1 32 10 63 9 31 16 80 16 108 -1 29 2 82 5 118 6 64 7 67 38 76
43 12 48 43 7 43 -21 0 -31 5 -31 15 0 8 1 15 3 15 22 4 408 22 617 30 151 5
290 12 309 16 l33 7 -2 -74 c-5 -130 -3 -139 24 -139 26 0 27 4 42 240 5 77
10 97 25 108 11 7 19 20 19 27 0 31 67 123 142 196 88 86 101 119 46 118 -18
0 -44 -5 -56 -10z m-42 -68 c0 -12 -99 -145 -111 -149 -5 -2 -10 21 -10 52 -1
31 -2 61 -3 68 -1 10 40 23 117 37 4 0 7 -3 7 -8z m-189 -28 c13 -34 6 -300
-8 -314 -14 -14 -162 -28 -312 -30 -69 -1 -180 -5 -246 -9 -351 -23 -355 -23
-355 1 0 12 -8 23 -20 26 -11 3 -20 12 -20 19 0 8 22 59 50 114 27 55 50 106
50 113 0 36 34 45 216 61 99 9 248 19 330 21 120 4 242 14 297 24 4 0 12 -11
18 -26z m-1315 -28 c10 -8 36 -15 56 -15 50 0 42 -20 -26 -60 -28 -17 -59 -36
-68 -42 -9 -7 -19 -10 -21 -8 -9 10 17 140 28 140 6 0 20 -7 31 -15z m324 -18
c0 -7 -6 -21 -14 -32 -11 -16 -22 -17 -76 -12 -35 4 -66 9 -69 12 -11 12 22
29 67 36 76 10 92 10 92 -4z m98 6 c-3 -5 -13 -27 -23 -50 -30 -70 -48 -49
-30 35 4 16 13 22 31 22 14 0 24 -3 22 -7z m-174 -101 c33 -4 61 -13 64 -19 3
-10 -21 -13 -97 -13 -91 0 -101 2 -101 18 0 27 8 31 43 26 18 -3 59 -8 91 -12z
m-194 -31 c0 -11 -4 -23 -10 -26 -6 -4 -10 5 -10 19 0 14 5 26 10 26 6 0 10
-9 10 -19z m255 -67 c0 -18 -8 -19 -112 -19 -106 0 -136 6 -119 23 7 6 194 21
221 17 6 -1 10 -10 10 -21z m-160 -75 c39 -1 87 2 109 6 31 6 38 5 34 -6 -3
-10 -33 -15 -116 -19 -69 -3 -116 -10 -124 -17 -18 -19 -28 -16 -28 10 0 30 9
39 35 33 11 -3 52 -6 90 -7z m115 -69 c0 -5 -24 -10 -52 -10 -38 0 -49 3 -38
10 20 13 90 13 90 0z m-578 -53 c41 -15 39 -23 -13 -55 -41 -25 -49 -21 -49
23 0 48 6 51 62 32z m603 3 c15 -24 -16 -35 -101 -38 -102 -4 -167 5 -161 21
2 8 46 14 123 17 65 4 122 7 126 8 4 1 10 -3 13 -8z m-8 -126 c-3 -31 -10 -61
-14 -65 -11 -11 -37 -12 -158 -2 -134 11 -124 29 15 25 109 -2 137 5 127 32
-5 13 -23 16 -90 16 -102 0 -147 8 -147 26 0 10 26 14 108 17 59 1 120 4 136
5 l29 2 -6 -56z m-94 -120 c37 -4 70 -11 73 -16 15 -24 -18 -29 -130 -22 -102
6 -116 9 -116 25 0 21 23 29 70 23 19 -2 66 -7 103 -10z m63 -95 c3 -6 3 -22
0 -35 -5 -18 -10 -23 -19 -16 -7 5 -61 12 -121 16 l-108 7 4 -26 c4 -19 1 -25
-13 -25 -28 0 -33 19 -13 56 l18 34 123 -1 c71 0 125 -4 129 -10z m2 -81 c-3
-7 -12 -14 -21 -16 -12 -2 -15 1 -11 12 7 19 38 22 32 4z m-324 -46 c3 -5 -8
-22 -24 -37 l-30 -29 0 37 c0 33 3 37 24 37 14 0 27 -4 30 -8z"/>
<path d="M2313 677 c-27 -12 -30 -35 -7 -44 20 -8 37 10 32 34 -2 17 -7 19
-25 10z"/>
<path d="M2317 467 c-33 -91 -33 -97 -3 -97 26 0 26 1 26 75 0 41 -1 75 -2 75
-2 0 -11 -24 -21 -53z"/>
</g>
</svg>
