<?xml version="1.0" standalone="no"?>
<!DOCTYPE svg PUBLIC "-//W3C//DTD SVG 20010904//EN"
 "http://www.w3.org/TR/2001/REC-SVG-20010904/DTD/svg10.dtd">
<svg version="1.0" xmlns="http://www.w3.org/2000/svg"
 width="254.000000pt" height="130.000000pt" viewBox="0 0 254.000000 130.000000"
 preserveAspectRatio="xMidYMid meet">
<metadata>
Created by potrace 1.16, written by Peter Selinger 2001-2019
</metadata>
<g transform="translate(0.000000,130.000000) scale(0.100000,-0.100000)"
fill="#000000" stroke="none">
<path d="M667 1196 c-38 -22 -84 -97 -71 -117 4 -6 20 -8 40 -4 33 6 94 -16
94 -33 0 -4 -15 -12 -32 -17 -32 -10 -33 -11 -32 -65 1 -30 5 -96 9 -146 8
-90 8 -91 -16 -97 -87 -24 -243 13 -296 70 -29 30 -37 33 -61 26 -37 -13 -51
-57 -51 -164 -1 -81 11 -142 30 -163 6 -6 22 2 41 21 37 35 122 83 147 83 9 0
33 9 54 20 21 12 67 24 102 27 l62 6 5 -129 c3 -71 3 -134 1 -139 -2 -6 -17
-16 -33 -22 -17 -6 -30 -17 -30 -25 0 -7 27 -37 60 -66 33 -30 70 -71 83 -93
12 -21 27 -39 34 -39 14 0 47 43 86 110 14 25 34 54 44 65 17 19 76 91 185
225 26 32 54 62 61 67 8 4 19 18 26 31 20 38 30 25 33 -45 3 -57 6 -68 21 -71
11 -2 29 5 40 16 20 19 80 53 207 119 24 13 47 27 50 33 6 10 33 12 275 11 99
0 209 3 245 7 93 10 220 3 220 -12 0 -12 -200 -116 -224 -116 -23 0 -58 -34
-51 -50 3 -9 23 -26 44 -40 22 -13 70 -59 107 -102 48 -55 74 -78 91 -78 30 0
29 7 -11 74 -31 51 -33 60 -25 97 15 67 70 156 106 173 20 10 35 26 39 43 6
22 2 31 -25 54 -32 26 -32 27 -21 70 29 107 49 145 85 162 32 15 44 35 29 50
-6 6 -93 -37 -187 -91 -21 -12 -48 -22 -60 -22 -26 0 -47 -17 -47 -38 0 -8 20
-37 45 -64 25 -28 45 -54 45 -58 0 -13 -322 -23 -514 -16 -248 8 -337 32 -404
105 -45 49 -62 39 -89 -58 -3 -11 -10 -8 -31 11 -15 14 -45 35 -67 48 -22 13
-67 49 -100 79 -33 31 -85 72 -115 92 -61 41 -177 153 -185 180 -9 27 -27 28
-68 5z m79 -230 c3 -8 0 -33 -6 -57 -9 -31 -14 -39 -21 -28 -10 16 -12 83 -2
92 10 11 23 8 29 -7z m141 -20 l28 -25 -43 -7 c-54 -9 -65 -29 -63 -116 2 -65
1 -68 -23 -74 -14 -3 -33 -4 -41 0 -19 7 -20 69 -1 85 8 7 22 38 32 69 9 31
21 65 26 75 12 24 52 21 85 -7z m1413 -68 c0 -40 -14 -51 -35 -28 -18 20 -18
21 1 35 27 20 34 18 34 -7z m-1390 -18 c0 -20 -42 -120 -51 -120 -5 0 -9 27
-9 59 0 48 3 60 18 64 30 8 42 7 42 -3z m115 -10 c22 -25 21 -26 -37 -33 -52
-7 -56 -3 -32 31 19 27 45 28 69 2z m75 -69 c0 -5 -9 -11 -20 -14 -22 -6 -26
3 -8 21 11 11 28 7 28 -7z m-90 -10 c0 -14 -18 -23 -30 -16 -6 4 -8 11 -5 16
8 12 35 12 35 0z m-70 -21 c0 -5 -7 -10 -16 -10 -8 0 -12 5 -9 10 3 6 10 10
16 10 5 0 9 -4 9 -10z m415 -8 c17 -11 54 -25 83 -32 30 -7 50 -16 45 -21 -19
-19 -176 -98 -185 -93 -5 3 -6 13 -4 22 3 10 6 45 7 80 2 68 7 72 54 44z
m-981 -36 c23 -13 61 -27 84 -31 23 -4 42 -10 42 -14 0 -4 -19 -14 -42 -21
-24 -8 -55 -22 -69 -31 -14 -10 -37 -21 -52 -24 l-27 -7 0 69 c0 62 4 83 17
83 2 0 23 -11 47 -24z m825 -18 c-29 -42 -81 -98 -91 -98 -15 0 -9 68 7 74 8
3 20 17 27 31 9 20 19 25 45 25 l34 0 -22 -32z m-133 0 c-3 -13 -6 -49 -6 -81
0 -54 -2 -58 -32 -77 -18 -11 -36 -20 -40 -20 -13 0 -9 59 7 97 8 19 15 44 15
54 0 22 26 49 47 49 11 0 14 -6 9 -22z m-118 -59 c2 -31 -1 -78 -5 -104 -7
-41 -13 -50 -43 -66 -32 -17 -35 -17 -44 -2 -12 21 1 203 16 220 6 8 25 13 42
11 30 -3 31 -4 34 -59z m-133 -83 l0 -129 -30 -18 c-16 -10 -33 -15 -38 -10
-9 9 -12 265 -2 281 4 6 21 10 38 8 l32 -3 0 -129z m1405 17 c-1 -10 -9 -32
-18 -50 l-17 -31 -30 25 c-16 14 -25 27 -20 29 6 2 24 13 40 23 38 25 45 25
45 4z m-1215 -110 c-10 -16 -22 -33 -29 -38 -18 -16 -110 -127 -135 -162 -12
-18 -25 -33 -29 -33 -8 0 -67 91 -67 102 0 9 48 38 130 77 33 16 78 41 100 55
50 32 51 32 30 -1z"/>
</g>
</svg>
