<?xml version="1.0" standalone="no"?>
<!DOCTYPE svg PUBLIC "-//W3C//DTD SVG 20010904//EN"
 "http://www.w3.org/TR/2001/REC-SVG-20010904/DTD/svg10.dtd">
<svg version="1.0" xmlns="http://www.w3.org/2000/svg"
 width="178.000000pt" height="140.000000pt" viewBox="0 0 178.000000 140.000000"
 preserveAspectRatio="xMidYMid meet">
<metadata>
Created by potrace 1.16, written by Peter Selinger 2001-2019
</metadata>
<g transform="translate(0.000000,140.000000) scale(0.100000,-0.100000)"
fill="#000000" stroke="none">
<path d="M690 1390 c8 -5 24 -10 35 -10 11 0 27 5 35 10 11 7 1 10 -35 10 -36
0 -46 -3 -35 -10z"/>
<path d="M866 1390 c7 -7 24 -7 50 -1 l39 9 -49 1 c-34 1 -47 -2 -40 -9z"/>
<path d="M1070 1392 c0 -15 35 -42 54 -42 22 0 33 29 15 41 -18 11 -69 12 -69
1z"/>
<path d="M1560 1380 c13 -25 37 -37 75 -41 52 -4 67 0 63 18 -4 20 -59 41
-111 42 -35 1 -37 -1 -27 -19z"/>
<path d="M717 1114 c-3 -20 -13 -44 -20 -53 -34 -37 -28 -111 7 -98 14 6 16
-4 15 -71 -1 -42 -4 -102 -7 -132 -7 -53 -9 -56 -52 -76 -77 -38 -136 -38
-242 -3 -101 34 -128 46 -143 64 -14 17 -92 28 -100 15 -4 -6 5 -22 20 -36 27
-25 27 -27 24 -132 -5 -124 1 -131 71 -87 23 15 61 33 83 41 23 8 48 20 57 27
8 8 32 18 53 25 33 9 50 7 123 -16 l83 -26 7 -43 c9 -61 -14 -264 -32 -284
-25 -28 -15 -48 49 -94 79 -58 102 -56 173 18 70 72 124 121 235 209 51 42
134 115 182 162 48 47 90 86 93 86 10 0 -10 -58 -44 -127 -21 -44 -52 -88 -78
-112 -24 -22 -44 -47 -44 -56 0 -15 8 -16 59 -10 38 4 61 3 65 -4 10 -15 73
-14 79 2 2 6 -1 22 -6 34 -7 16 -6 41 2 80 27 132 44 199 52 207 5 5 27 -8 54
-33 38 -35 48 -40 65 -31 11 6 20 14 20 18 0 4 -27 35 -60 68 l-60 60 16 73
c8 41 21 89 29 108 18 42 19 63 5 63 -6 0 -30 -43 -55 -95 -24 -52 -46 -95
-49 -95 -2 0 -14 16 -26 35 -20 32 -22 47 -19 142 3 74 1 107 -8 110 -6 2 -39
-21 -73 -51 -35 -31 -69 -56 -76 -56 -28 0 -13 -34 34 -79 49 -46 127 -149
119 -157 -5 -5 -65 25 -72 36 -3 5 -36 25 -73 46 -70 39 -158 104 -254 187
-31 28 -76 64 -100 81 -25 17 -64 46 -88 64 -59 44 -86 43 -93 -4z m224 -154
c32 -29 59 -56 59 -60 0 -25 -128 44 -140 75 -7 17 -14 22 -30 18 -35 -9 -78
46 -53 70 10 11 99 -45 164 -103z m-140 -22 c3 -32 -2 -166 -7 -190 -3 -16
-12 -28 -20 -28 -10 0 -14 14 -14 54 0 97 12 176 26 176 8 0 14 -6 15 -12z
m549 -18 c0 -33 -11 -38 -30 -15 -15 18 -6 45 15 45 10 0 15 -10 15 -30z
m-482 -87 c-2 -50 -7 -78 -15 -81 -10 -3 -13 16 -13 71 0 40 3 77 7 80 18 19
24 0 21 -70z m82 32 c8 -9 10 -28 6 -50 -13 -68 -46 -53 -46 23 0 45 16 56 40
27z m80 -55 c0 -11 -7 -20 -15 -20 -8 0 -15 9 -15 20 0 11 7 20 15 20 8 0 15
-9 15 -20z m-8 -186 c-2 -65 -5 -121 -7 -123 -2 -2 -11 -1 -20 3 -14 5 -16 20
-10 113 7 123 10 136 28 130 9 -3 11 -34 9 -123z m-72 0 c0 -95 -2 -105 -17
-102 -16 3 -18 16 -18 93 1 94 8 131 25 120 6 -3 10 -52 10 -111z m135 -132
c-3 -7 -9 -10 -15 -7 -12 7 -14 214 -2 242 7 19 24 -212 17 -235z m76 42 c9
-11 8 -15 -6 -20 -28 -11 -35 15 -34 116 2 129 12 137 21 17 4 -55 12 -105 19
-113z m47 125 c2 -35 7 -68 12 -73 13 -13 68 24 75 51 4 16 13 23 30 23 14 0
25 -4 25 -9 0 -10 -144 -111 -157 -111 -4 0 -9 43 -11 96 -2 75 0 95 10 92 8
-3 14 -27 16 -69z m-337 34 c3 -35 -3 -138 -8 -143 -2 -2 -8 2 -13 10 -11 17
-13 133 -3 143 12 12 23 7 24 -10z m-498 -35 c31 -11 57 -23 57 -28 0 -4 -20
-13 -44 -19 -24 -6 -49 -18 -56 -26 -7 -9 -22 -21 -32 -26 -17 -9 -18 -4 -18
62 0 64 2 70 18 64 9 -4 43 -16 75 -27z m421 16 c10 -26 7 -92 -4 -99 -23 -14
-42 18 -36 59 10 57 27 75 40 40z m-84 -45 c0 -27 -24 -34 -72 -20 -46 14 -41
26 17 39 47 10 55 8 55 -19z m79 -98 c14 -9 13 -32 -5 -181 -7 -56 -28 -95
-47 -83 -6 3 -7 28 -3 62 4 31 9 85 12 121 7 93 11 101 43 81z m430 -37 c-23
-23 -43 -35 -55 -32 -15 3 -8 11 31 36 64 41 68 40 24 -4z m-365 -76 c-3 -51
-9 -97 -12 -102 -12 -22 -17 30 -9 97 10 82 14 97 22 97 4 0 3 -42 -1 -92z
m90 -1 c-8 -87 -54 -106 -54 -22 0 24 4 55 10 70 8 22 13 24 30 15 17 -9 19
-18 14 -63z m66 33 c12 -7 12 -13 4 -27 -16 -26 -29 -22 -32 10 -4 29 3 33 28
17z m370 -61 c-7 -16 -16 -29 -21 -29 -19 0 -18 21 3 57 18 29 24 34 26 20 2
-10 -2 -32 -8 -48z m-281 2 c-13 -10 -44 -35 -69 -55 -37 -30 -46 -33 -49 -19
-3 17 10 30 85 86 25 18 41 24 48 17 6 -6 1 -16 -15 -29z m-146 -90 c16 -6 7
-18 -58 -79 -42 -40 -82 -72 -88 -72 -15 1 -67 46 -67 58 0 15 32 24 44 12 16
-16 26 -12 36 15 6 16 14 23 25 19 9 -4 26 6 44 25 30 33 35 34 64 22z"/>
<path d="M0 670 c0 -16 5 -21 23 -18 12 2 22 10 22 18 0 8 -10 16 -22 18 -18
3 -23 -2 -23 -18z"/>
<path d="M1721 671 c-23 -15 -5 -41 29 -41 25 0 30 4 30 25 0 19 -5 25 -22 25
-13 0 -29 -4 -37 -9z"/>
<path d="M40 545 c-15 -18 -6 -45 14 -45 17 0 28 24 20 45 -8 19 -18 19 -34 0z"/>
<path d="M1 63 l1 -38 13 30 c13 30 11 45 -6 45 -5 0 -9 -17 -8 -37z"/>
<path d="M152 28 c-18 -18 -15 -28 8 -28 13 0 20 7 20 20 0 23 -10 26 -28 8z"/>
</g>
</svg>
