<?xml version="1.0" standalone="no"?>
<!DOCTYPE svg PUBLIC "-//W3C//DTD SVG 20010904//EN"
 "http://www.w3.org/TR/2001/REC-SVG-20010904/DTD/svg10.dtd">
<svg version="1.0" xmlns="http://www.w3.org/2000/svg"
 width="226.000000pt" height="118.000000pt" viewBox="0 0 226.000000 118.000000"
 preserveAspectRatio="xMidYMid meet">
<metadata>
Created by potrace 1.16, written by Peter Selinger 2001-2019
</metadata>
<g transform="translate(0.000000,118.000000) scale(0.100000,-0.100000)"
fill="#000000" stroke="none">
<path d="M90 1085 c-25 -41 -37 -100 -21 -109 6 -4 -5 -21 -29 -44 -41 -37
-52 -75 -25 -86 20 -7 20 -65 0 -72 -19 -8 -20 -54 -1 -54 50 0 70 36 73 130
4 118 2 114 52 138 25 13 68 28 95 35 47 12 78 38 63 54 -7 6 -60 -5 -146 -33
-21 -6 -23 -5 -16 12 4 10 10 29 12 42 9 37 -31 28 -57 -13z"/>
<path d="M447 1043 c-12 -14 -43 -48 -69 -74 -27 -27 -48 -55 -48 -62 0 -22
32 -44 75 -51 22 -4 60 -17 85 -29 42 -21 43 -22 16 -25 -36 -5 -45 -30 -17
-51 16 -13 23 -31 28 -72 7 -73 -4 -82 -118 -87 -82 -4 -93 -2 -145 24 -31 16
-63 39 -71 51 -19 28 -39 29 -52 4 -6 -10 -11 -77 -13 -147 -2 -150 -3 -149
86 -89 63 41 224 105 266 105 27 0 27 -1 34 -77 3 -45 2 -81 -4 -87 -5 -5 -28
-10 -51 -10 -58 -1 -69 -21 -41 -75 12 -23 22 -54 22 -69 0 -42 11 -72 26 -72
13 0 77 52 154 124 19 18 51 39 70 46 19 8 46 21 60 30 53 35 319 154 327 146
2 -2 6 -27 10 -55 3 -29 14 -62 24 -74 l19 -22 43 47 c43 47 106 82 182 100
81 20 384 31 473 18 71 -10 81 -14 71 -27 -17 -19 -60 -41 -144 -73 -96 -35
-98 -54 -14 -110 74 -49 197 -110 221 -110 31 0 20 26 -22 54 -38 25 -40 28
-40 80 0 91 9 115 54 146 87 61 91 68 45 111 l-30 28 21 58 c23 62 61 95 143
124 49 17 66 36 41 46 -11 4 -36 -4 -68 -21 -128 -70 -253 -133 -273 -138 -52
-13 -35 -61 33 -93 19 -9 34 -19 34 -23 0 -12 -491 -5 -523 7 -16 6 -40 11
-54 11 -14 0 -52 12 -84 26 -44 20 -62 34 -74 60 -9 20 -23 34 -34 34 -20 0
-41 -38 -41 -75 0 -38 -17 -39 -88 -5 -37 18 -100 49 -141 68 -98 48 -232 182
-274 275 -50 108 -89 132 -130 80z m73 -133 c7 -22 11 -42 8 -45 -10 -10 -68
30 -68 47 0 9 5 29 12 43 10 23 14 25 23 11 6 -8 17 -33 25 -56z m59 -191 c-9
-17 -13 -19 -19 -8 -11 16 -4 29 16 29 12 0 13 -4 3 -21z m88 5 c-3 -3 -12 -4
-19 -1 -8 3 -5 6 6 6 11 1 17 -2 13 -5z m1269 -63 c-11 -20 -21 -28 -31 -25
-22 9 -19 20 12 43 33 27 39 21 19 -18z m-1286 0 c0 -6 -4 -13 -10 -16 -5 -3
-10 -20 -10 -36 0 -29 -1 -30 -32 -24 -18 4 -35 9 -37 11 -2 1 7 19 19 38 15
25 29 36 46 36 13 0 24 -4 24 -9z m50 5 c0 -12 -13 -36 -20 -36 -4 0 -10 9
-13 20 -4 15 0 20 14 20 10 0 19 -2 19 -4z m95 -6 c6 -10 -44 -35 -53 -26 -8
8 19 36 34 36 7 0 16 -5 19 -10z m160 -70 c3 -5 14 -10 23 -10 9 0 27 -9 40
-18 l24 -18 -94 -42 c-126 -57 -145 -55 -90 10 15 18 36 45 45 61 18 27 41 35
52 17z m-730 -20 c20 -11 50 -20 68 -20 29 0 27 -3 -41 -45 -40 -25 -74 -45
-77 -45 -3 0 -5 29 -5 65 0 36 4 65 10 65 5 0 25 -9 45 -20z m1007 -25 l40
-23 -43 -20 c-24 -10 -52 -29 -63 -40 -21 -24 -36 -20 -36 9 0 14 7 19 30 19
23 0 30 4 30 20 0 10 -6 23 -13 27 -8 4 -17 16 -20 26 -6 15 -3 17 13 12 12
-4 39 -17 62 -30z m-388 10 c-4 -8 -10 -15 -15 -15 -5 0 -9 7 -9 15 0 8 7 15
15 15 9 0 12 -6 9 -15z m-228 -32 c-3 -21 -8 -64 -11 -95 -6 -56 -27 -90 -45
-72 -5 5 -10 49 -12 99 l-3 89 30 7 c17 4 34 7 38 8 5 0 6 -16 3 -36z m90 -9
c7 -27 -1 -117 -11 -134 -11 -18 -55 -12 -55 8 0 20 27 130 36 143 10 17 24 9
30 -17z m74 -34 c0 -48 -3 -60 -16 -60 -12 0 -14 9 -10 43 4 42 15 77 22 77 2
0 4 -27 4 -60z m1072 -106 c-5 -41 -16 -48 -46 -29 -33 22 -33 38 2 52 38 15
47 10 44 -23z m-1302 -80 c0 -8 -43 -43 -52 -44 -13 0 -9 38 5 43 17 8 47 8
47 1z"/>
</g>
</svg>
