<?xml version="1.0" standalone="no"?>
<!DOCTYPE svg PUBLIC "-//W3C//DTD SVG 20010904//EN"
 "http://www.w3.org/TR/2001/REC-SVG-20010904/DTD/svg10.dtd">
<svg version="1.0" xmlns="http://www.w3.org/2000/svg"
 width="222.000000pt" height="158.000000pt" viewBox="0 0 222.000000 158.000000"
 preserveAspectRatio="xMidYMid meet">
<metadata>
Created by potrace 1.16, written by Peter Selinger 2001-2019
</metadata>
<g transform="translate(0.000000,158.000000) scale(0.100000,-0.100000)"
fill="#000000" stroke="none">
<path d="M2134 1555 c29 -27 41 -31 50 -16 13 21 -7 41 -42 41 l-35 0 27 -25z"/>
<path d="M567 1441 c-20 -26 -37 -56 -37 -65 0 -9 -7 -31 -16 -47 -22 -44 -12
-63 29 -55 50 9 71 -18 63 -81 -3 -26 -8 -115 -12 -198 -3 -82 -8 -153 -10
-157 -12 -19 -62 -24 -114 -12 -30 7 -77 18 -105 25 -72 16 -149 41 -160 50
-5 5 -28 9 -52 9 -45 0 -56 -14 -27 -35 13 -9 17 -36 20 -136 2 -68 3 -127 4
-131 1 -18 33 -5 68 27 75 67 345 151 368 114 10 -17 5 -276 -7 -344 -6 -33
-11 -75 -11 -93 0 -25 -6 -36 -27 -47 -61 -31 -62 -64 -3 -89 20 -8 59 -38 87
-66 27 -27 57 -50 65 -50 9 0 50 36 90 81 236 256 581 611 588 604 5 -5 -15
-41 -70 -124 -27 -40 -47 -80 -44 -87 4 -9 22 -14 53 -14 26 0 65 -5 87 -11
49 -14 65 -1 50 39 -8 21 -5 43 14 105 25 77 38 93 48 60 3 -10 23 -54 45 -98
21 -45 39 -93 39 -107 0 -16 12 -40 30 -60 16 -18 30 -36 30 -40 0 -5 7 -8 15
-8 21 0 19 44 -4 89 -44 86 -93 219 -104 286 l-6 31 102 22 c56 13 158 36 227
53 75 17 152 29 192 29 58 0 67 3 73 20 11 35 -3 43 -64 37 -319 -34 -504 -47
-516 -35 -5 5 42 123 75 187 26 52 13 81 -16 35 -10 -16 -22 -31 -26 -34 -3
-3 -21 -34 -40 -70 -18 -36 -37 -65 -43 -65 -14 0 -28 63 -29 132 -1 34 -6 67
-12 73 -7 7 -30 1 -77 -20 -37 -16 -78 -30 -92 -30 -14 0 -28 -7 -31 -15 -6
-15 40 -104 83 -163 21 -28 22 -33 8 -38 -9 -4 -31 5 -53 20 -20 15 -64 44
-97 66 -33 21 -82 56 -110 77 -27 21 -70 51 -95 67 -70 44 -168 127 -280 236
-57 55 -108 100 -114 100 -7 0 -29 -22 -49 -49z m113 -77 c27 -20 50 -40 50
-44 0 -14 168 -151 247 -203 39 -25 74 -51 78 -57 12 -20 -17 -10 -68 23 -29
19 -91 59 -138 89 -47 31 -111 70 -142 87 -30 18 -58 38 -61 46 -3 8 -14 15
-25 15 -11 0 -22 3 -24 8 -5 8 20 72 28 72 3 0 27 -16 55 -36z m-11 -319 c-2
-175 -6 -204 -29 -190 -9 6 -11 40 -6 139 9 174 16 237 28 230 5 -3 8 -80 7
-179z m62 -11 c-3 -144 -9 -193 -21 -146 -10 44 0 304 12 300 9 -3 11 -48 9
-154z m60 75 c-8 -21 -10 -22 -16 -6 -10 23 2 54 16 40 6 -6 6 -18 0 -34z
m649 -14 c0 -14 9 -51 20 -82 26 -73 25 -85 -1 -81 -20 3 -109 117 -109 139 0
8 67 48 83 49 4 0 7 -11 7 -25z m-594 -162 c-3 -7 -9 -13 -13 -13 -10 0 -5
139 5 160 8 17 16 -126 8 -147z m97 115 c25 -18 31 -29 29 -50 -4 -35 -22 -37
-22 -3 0 14 -4 25 -8 25 -15 0 -32 -24 -32 -46 0 -13 -4 -26 -10 -29 -6 -4
-10 6 -10 22 0 35 11 103 17 103 2 0 18 -10 36 -22z m-153 -78 c0 -38 -5 -72
-11 -75 -15 -10 -16 -7 -11 77 5 95 22 93 22 -2z m314 -19 c3 -5 -1 -14 -8
-20 -16 -13 -32 2 -21 19 8 12 22 13 29 1z m570 -71 c-14 -14 -117 -30 -128
-20 -19 18 9 30 72 30 45 0 63 -3 56 -10z m-357 -20 c14 -11 33 -20 42 -20 12
-1 11 -5 -8 -20 -31 -27 -59 -26 -63 3 -2 16 -9 21 -26 20 -13 -2 -22 3 -22
10 0 33 40 36 77 7z m-227 -35 c0 -25 -4 -45 -10 -45 -5 0 -10 20 -10 45 0 25
5 45 10 45 6 0 10 -20 10 -45z m64 10 c7 -37 1 -59 -15 -50 -12 8 -12 85 0 85
5 0 12 -16 15 -35z m-323 -50 l-9 -40 -1 46 c-1 25 2 49 7 53 12 12 13 -16 3
-59z m140 -1 c-10 -39 -19 -18 -13 31 4 34 6 36 13 18 4 -12 4 -34 0 -49z
m-664 37 c43 -11 91 -23 107 -26 16 -3 25 -10 20 -14 -14 -12 -205 -71 -214
-66 -11 7 -12 125 0 125 5 0 44 -9 87 -19z m483 -31 c0 -41 -16 -62 -31 -39
-7 12 -5 39 7 77 8 26 24 0 24 -38z m237 -2 c-2 -13 -4 -5 -4 17 -1 22 1 32 4
23 2 -10 2 -28 0 -40z m-307 18 c0 -8 -4 -18 -10 -21 -5 -3 -10 3 -10 14 0 12
5 21 10 21 6 0 10 -6 10 -14z m-60 -11 c0 -8 -4 -15 -10 -15 -5 0 -10 7 -10
15 0 8 5 15 10 15 6 0 10 -7 10 -15z m773 -78 c-11 -23 -26 -62 -33 -86 -14
-45 -34 -61 -52 -43 -7 7 -5 17 5 33 8 13 31 55 52 94 40 73 61 75 28 2z
m-203 3 c-12 -23 -30 -27 -30 -6 0 8 8 17 18 19 9 3 18 5 20 6 1 0 -2 -8 -8
-19z m-136 -34 c-3 -9 -10 -16 -15 -16 -11 0 -12 43 -2 54 10 10 24 -20 17
-38z m53 -8 c-2 -13 -4 -5 -4 17 -1 22 1 32 4 23 2 -10 2 -28 0 -40z m-496 30
c3 -33 -4 -124 -11 -142 -6 -14 -9 10 -9 67 -1 52 3 87 9 87 6 0 11 -6 11 -12z
m319 -8 c0 -5 -2 -10 -4 -10 -3 0 -8 5 -11 10 -3 6 -1 10 4 10 6 0 11 -4 11
-10z m60 0 c0 -5 -2 -10 -4 -10 -3 0 -8 5 -11 10 -3 6 -1 10 4 10 6 0 11 -4
11 -10z m-326 -74 c-4 -36 -10 -66 -14 -66 -3 0 -3 24 1 53 4 28 8 61 8 71 1
11 3 17 6 14 3 -3 3 -35 -1 -72z m66 -36 c-14 -128 -26 -199 -33 -207 -17 -17
-24 16 -16 72 5 33 14 96 20 139 11 86 17 102 30 89 4 -4 4 -46 -1 -93z m55
-77 c-3 -24 -11 -43 -17 -43 -10 0 -8 42 10 150 l7 45 3 -55 c2 -30 1 -74 -3
-97z m77 71 c-3 -65 -14 -104 -30 -104 -7 0 -5 145 3 168 3 8 11 12 18 9 8 -3
11 -24 9 -73z m68 7 c0 -22 -6 -44 -15 -51 -13 -11 -15 -6 -15 32 0 25 3 48 7
51 15 16 23 5 23 -32z m60 10 c0 -20 -17 -37 -27 -28 -7 8 7 47 18 47 5 0 9
-9 9 -19z m21 -88 c-42 -53 -347 -363 -356 -363 -8 0 -88 70 -93 81 -2 3 14
17 35 30 21 13 52 33 69 44 16 11 46 30 65 42 19 13 42 23 51 23 9 0 26 14 38
30 12 17 27 30 34 30 7 0 23 11 36 25 13 14 31 25 41 25 10 0 22 7 27 16 9 15
60 52 75 53 5 1 -5 -16 -22 -36z m-421 -164 c0 -17 -4 -28 -10 -24 -5 3 -10
17 -10 31 0 13 5 24 10 24 6 0 10 -14 10 -31z"/>
<path d="M230 16 c-33 -14 -28 -15 85 -15 93 0 116 2 101 11 -30 17 -146 20
-186 4z"/>
</g>
</svg>
