<?xml version="1.0" standalone="no"?>
<!DOCTYPE svg PUBLIC "-//W3C//DTD SVG 20010904//EN"
 "http://www.w3.org/TR/2001/REC-SVG-20010904/DTD/svg10.dtd">
<svg version="1.0" xmlns="http://www.w3.org/2000/svg"
 width="188.000000pt" height="144.000000pt" viewBox="0 0 188.000000 144.000000"
 preserveAspectRatio="xMidYMid meet">
<metadata>
Created by potrace 1.16, written by Peter Selinger 2001-2019
</metadata>
<g transform="translate(0.000000,144.000000) scale(0.100000,-0.100000)"
fill="#000000" stroke="none">
<path d="M36 1401 c-18 -40 -19 -72 -1 -78 6 -1 24 24 41 57 l31 60 -27 0
c-22 0 -30 -8 -44 -39z"/>
<path d="M513 1328 c-4 -7 -9 -22 -10 -33 -4 -42 -20 -112 -33 -147 -11 -30
-11 -40 -1 -52 10 -12 18 -13 32 -5 11 5 24 7 29 4 6 -4 10 -53 10 -113 -1
-59 0 -131 2 -161 3 -53 3 -54 -27 -57 -48 -6 -206 34 -247 63 -31 21 -45 24
-77 19 -23 -3 -58 0 -87 9 -27 8 -61 15 -76 15 -23 0 -28 -4 -28 -24 0 -22 6
-26 58 -36 112 -23 102 -13 104 -99 2 -42 3 -104 3 -138 0 -88 12 -94 76 -41
30 24 69 59 88 76 19 19 44 32 60 32 14 1 52 7 84 14 68 17 62 41 46 -194 -6
-91 -16 -170 -21 -177 -5 -6 -19 -13 -30 -15 -12 -2 -26 -11 -32 -20 -9 -14
-4 -25 25 -55 19 -21 47 -57 62 -80 30 -47 43 -52 78 -25 13 10 53 35 89 57
36 21 99 61 140 88 41 27 111 68 155 92 150 80 247 136 323 188 43 29 104 63
137 76 33 14 66 29 73 34 22 17 13 -12 -17 -56 -33 -48 -135 -154 -170 -177
-32 -21 -19 -43 35 -59 32 -10 48 -21 55 -38 14 -37 40 -25 60 27 56 148 102
240 119 240 5 0 12 -10 15 -21 11 -32 74 -92 91 -85 21 8 18 23 -16 72 -50 75
-51 77 -40 155 10 70 48 155 102 229 24 34 36 94 17 88 -13 -4 -36 -40 -100
-155 -68 -123 -73 -125 -82 -31 -6 63 2 113 28 196 12 37 12 44 0 48 -8 3 -27
-3 -42 -14 -15 -11 -61 -36 -100 -56 -40 -21 -73 -40 -73 -43 0 -3 20 -23 44
-44 26 -23 50 -55 57 -77 6 -20 18 -46 25 -57 30 -43 5 -48 -47 -9 -19 14 -70
44 -114 65 -129 63 -274 149 -390 233 -38 28 -79 56 -90 63 -102 60 -275 172
-300 193 -29 25 -62 33 -72 18z m220 -171 c65 -37 130 -76 145 -87 52 -40 127
-90 219 -145 84 -50 116 -75 98 -75 -4 0 -136 64 -293 141 -158 78 -302 148
-320 155 -31 14 -32 17 -26 52 9 51 13 55 38 39 12 -8 74 -44 139 -80z m-141
-99 c-7 -7 -12 -8 -12 -2 0 14 12 26 19 19 2 -3 -1 -11 -7 -17z m86 -11 c8 -9
8 -40 2 -103 -5 -49 -10 -113 -10 -141 l0 -53 -40 0 c-45 0 -46 2 -31 91 5 30
15 86 21 124 6 39 13 76 15 83 6 16 30 16 43 -1z m95 -44 c5 -10 -10 -254 -17
-260 -2 -3 -14 -2 -26 2 -21 7 -22 10 -15 108 8 138 13 157 35 157 10 0 21 -3
23 -7z m783 -40 c-2 -10 -8 -33 -11 -51 l-7 -34 -24 23 c-30 28 -30 42 -1 62
30 22 50 21 43 0z m-702 -3 c23 -8 25 -12 15 -37 -6 -15 -12 -104 -14 -197 -2
-92 -9 -206 -16 -251 -11 -73 -16 -85 -37 -95 -14 -6 -26 -9 -28 -7 -6 5 32
526 42 575 5 25 4 25 38 12z m98 -78 c2 -21 0 -66 -4 -102 -4 -36 -7 -105 -8
-155 0 -138 -9 -194 -33 -206 -33 -18 -38 1 -27 102 5 52 12 157 15 234 4 77
11 147 16 157 15 27 38 10 41 -30z m71 2 c12 -4 14 -22 11 -87 -2 -45 -8 -106
-14 -136 -12 -63 -13 -171 -2 -171 21 0 32 29 32 83 0 80 31 267 44 267 6 0
17 -4 25 -9 11 -7 12 -13 3 -23 -7 -9 -12 -69 -14 -163 l-3 -149 -59 -23 c-32
-12 -62 -21 -65 -19 -16 10 8 436 25 436 1 0 9 -3 17 -6z m156 -83 c9 -6 16
-30 18 -58 11 -170 19 -198 43 -153 8 14 17 19 30 15 10 -3 21 -1 25 5 4 6 13
9 21 6 18 -7 34 24 34 63 0 21 -5 31 -15 31 -8 0 -15 -6 -16 -12 0 -7 -5 -3
-11 10 -6 12 -9 25 -6 27 3 3 39 -8 81 -25 41 -16 86 -30 98 -30 15 0 20 -3
13 -10 -25 -25 -330 -157 -341 -147 -15 15 -9 287 6 287 3 0 12 -4 20 -9z
m-926 -45 c12 -7 55 -19 95 -26 71 -13 89 -25 55 -36 -53 -17 -95 -40 -119
-65 -33 -35 -50 -37 -58 -6 -7 27 -8 147 -1 147 3 0 16 -6 28 -14z m1007 -52
c0 -34 -4 -53 -10 -49 -18 11 -12 105 7 105 2 0 3 -25 3 -56z m-513 -136 c-6
-145 -20 -218 -43 -218 -19 0 -22 44 -13 184 4 72 8 136 9 142 0 9 32 30 49
33 2 1 1 -63 -2 -141z m-85 112 c-2 -8 -9 -93 -15 -189 l-11 -174 -33 -14
c-19 -7 -39 -11 -45 -7 -13 8 -3 166 12 194 6 10 10 50 10 89 0 38 4 82 10 96
8 22 15 26 42 23 23 -2 32 -7 30 -18z m829 -234 c-32 -69 -51 -87 -76 -66 -12
10 -6 22 42 76 32 35 59 62 60 60 2 -2 -10 -33 -26 -70z m-371 -1 c0 -3 -49
-30 -110 -60 -60 -30 -142 -77 -182 -103 -103 -69 -181 -118 -217 -136 -31
-16 -31 -16 -43 11 -7 15 -18 36 -26 45 -19 23 -10 33 45 48 27 7 65 22 86 32
21 11 46 18 55 16 10 -1 31 7 46 20 16 12 35 22 42 22 7 0 48 16 91 36 75 34
136 57 178 67 30 7 35 7 35 2z"/>
<path d="M11 496 c-7 -8 -11 -30 -9 -48 3 -28 5 -30 13 -13 4 11 15 28 22 37
14 16 11 38 -6 38 -5 0 -14 -6 -20 -14z"/>
</g>
</svg>
