<?xml version="1.0" standalone="no"?>
<!DOCTYPE svg PUBLIC "-//W3C//DTD SVG 20010904//EN"
 "http://www.w3.org/TR/2001/REC-SVG-20010904/DTD/svg10.dtd">
<svg version="1.0" xmlns="http://www.w3.org/2000/svg"
 width="148.000000pt" height="118.000000pt" viewBox="0 0 148.000000 118.000000"
 preserveAspectRatio="xMidYMid meet">
<metadata>
Created by potrace 1.16, written by Peter Selinger 2001-2019
</metadata>
<g transform="translate(0.000000,118.000000) scale(0.100000,-0.100000)"
fill="#000000" stroke="none">
<path d="M432 1073 c-5 -10 -12 -61 -16 -113 -4 -52 -9 -112 -13 -133 l-6 -37
-103 6 c-92 6 -104 5 -110 -10 -11 -28 11 -38 81 -37 37 0 78 -2 91 -5 23 -6
24 -9 18 -58 -4 -28 -13 -76 -20 -106 -8 -30 -14 -67 -14 -83 0 -27 2 -29 28
-22 15 4 48 9 74 12 31 3 49 10 53 21 9 25 -23 43 -63 36 l-34 -7 6 44 c4 24
9 68 12 97 3 29 11 55 17 58 14 4 144 10 457 19 118 4 239 11 269 16 63 10
131 12 131 3 0 -18 -106 -177 -124 -186 -14 -8 -89 -11 -216 -10 -107 1 -201
-2 -209 -7 -10 -6 -11 -13 -2 -29 6 -11 11 -34 11 -51 0 -16 5 -42 11 -58 6
-15 21 -73 34 -128 51 -219 57 -236 82 -248 27 -12 43 1 43 36 0 20 31 81 75
146 17 24 41 60 55 81 14 21 66 98 116 171 50 74 98 148 107 165 9 17 32 52
52 78 36 47 45 81 23 88 -7 3 -44 1 -83 -3 -38 -5 -203 -13 -365 -18 -162 -6
-330 -12 -372 -13 -58 -2 -79 0 -83 10 -3 8 -3 17 -1 21 9 15 34 243 28 260
-6 17 -30 13 -40 -6z m708 -545 c0 -7 -9 -24 -19 -37 -18 -23 -23 -24 -129
-23 -61 1 -123 -3 -139 -7 -41 -12 -53 -4 -53 35 l0 33 138 4 c75 1 152 4 170
5 20 1 32 -3 32 -10z m-70 -97 c0 -9 -39 -62 -52 -72 -4 -3 -47 -5 -94 -5 -78
1 -87 3 -94 22 -16 41 2 49 109 49 55 1 103 4 107 8 10 10 24 9 24 -2z m-80
-120 c0 -5 -7 -14 -15 -21 -8 -7 -29 -37 -46 -66 -17 -30 -34 -54 -39 -54 -9
0 -20 36 -35 107 l-6 32 53 4 c29 2 61 4 71 5 9 1 17 -2 17 -7z"/>
</g>
</svg>
