<?xml version="1.0" standalone="no"?>
<!DOCTYPE svg PUBLIC "-//W3C//DTD SVG 20010904//EN"
 "http://www.w3.org/TR/2001/REC-SVG-20010904/DTD/svg10.dtd">
<svg version="1.0" xmlns="http://www.w3.org/2000/svg"
 width="180.000000pt" height="198.000000pt" viewBox="0 0 180.000000 198.000000"
 preserveAspectRatio="xMidYMid meet">
<metadata>
Created by potrace 1.16, written by Peter Selinger 2001-2019
</metadata>
<g transform="translate(0.000000,198.000000) scale(0.100000,-0.100000)"
fill="#000000" stroke="none">
<path d="M1121 1936 c-33 -76 -35 -88 -14 -84 10 2 32 29 51 66 l33 62 -25 0
c-20 0 -29 -9 -45 -44z"/>
<path d="M501 1798 c-17 -6 -19 -14 -14 -62 8 -80 1 -85 -94 -70 -43 7 -83 13
-89 13 -19 1 -44 -75 -44 -133 0 -60 18 -154 33 -173 13 -17 46 -16 53 1 6 16
96 41 117 33 9 -3 10 -26 4 -98 -10 -107 -15 -123 -46 -127 -27 -4 -28 -22 -1
-22 33 0 27 -48 -7 -61 -26 -10 -27 -12 -10 -23 10 -8 17 -26 17 -45 0 -24 -6
-34 -25 -41 -29 -11 -33 -27 -8 -32 14 -3 17 -17 18 -96 0 -73 -3 -95 -14
-102 -12 -6 -13 -13 -4 -33 9 -19 8 -27 -4 -39 -12 -13 -12 -19 -3 -35 9 -13
10 -38 6 -76 -7 -54 -9 -57 -35 -57 -33 0 -123 31 -146 50 -24 20 -47 2 -62
-49 -9 -33 -17 -209 -14 -298 1 -23 28 -14 74 25 25 20 61 44 79 53 73 37 210
70 363 89 88 11 173 23 188 26 49 10 477 6 490 -4 7 -6 32 -12 56 -14 l45 -3
2 155 c2 133 6 168 29 245 14 50 32 104 41 122 8 17 19 55 24 83 5 28 12 56
15 60 3 5 28 96 54 202 l49 193 30 3 c40 4 49 29 17 44 -14 6 -25 19 -25 29 0
24 29 88 51 114 22 26 34 71 20 79 -6 4 -36 7 -68 7 -32 0 -79 7 -105 16 -26
9 -51 13 -55 9 -5 -4 -10 -51 -13 -104 l-5 -97 -60 2 c-282 12 -462 21 -475
26 -8 3 -60 8 -115 12 -96 5 -170 17 -182 29 -7 7 25 87 43 107 8 9 16 29 17
45 l2 29 -98 0 c-53 0 -106 -3 -116 -7z m144 -65 c-4 -10 -14 -38 -22 -62 -15
-42 -17 -43 -51 -37 -48 7 -54 16 -44 62 8 41 24 50 96 53 23 1 27 -2 21 -16z
m1013 -68 c3 -3 0 -20 -7 -38 -7 -18 -19 -48 -26 -67 -15 -41 -55 -61 -79 -41
-12 10 -16 31 -14 80 0 36 3 70 6 75 5 9 110 2 120 -9z m-1217 -61 l39 -7 0
-67 0 -68 -50 -11 c-28 -6 -60 -11 -72 -11 -20 0 -20 1 -5 18 19 21 22 42 7
42 -5 0 -10 24 -10 54 0 54 10 69 38 60 8 -2 31 -7 53 -10z m145 -46 c-4 -18
-10 -48 -13 -66 -5 -27 -10 -32 -27 -30 -17 2 -22 11 -24 42 -6 66 4 86 39 86
30 0 31 -1 25 -32z m249 -9 c72 -5 218 -14 325 -18 223 -10 200 -8 200 -21 0
-6 -34 -10 -82 -10 -46 0 -142 -7 -215 -15 -144 -16 -438 -29 -452 -21 -10 6
6 83 21 103 6 8 18 9 41 2 18 -6 91 -14 162 -20z m635 -79 c12 -6 16 -17 13
-30 -3 -11 -8 -18 -12 -16 -8 5 -483 -22 -581 -33 -77 -8 -97 -3 -87 22 4 10
29 16 89 20 46 3 126 11 178 17 52 7 129 12 170 11 41 0 100 4 130 8 78 12 79
12 100 1z m120 -22 c0 -32 -118 -473 -125 -466 -6 5 15 172 29 233 8 33 17 87
21 120 13 124 13 125 45 125 17 0 30 -5 30 -12z m-1040 -58 c0 -10 -5 -22 -11
-26 -6 -3 -9 -19 -5 -35 3 -15 1 -31 -4 -34 -6 -3 -10 -24 -10 -45 0 -21 -5
-42 -11 -45 -13 -9 -1 185 13 202 13 16 28 7 28 -17z m160 19 c0 -5 -16 -17
-35 -25 -62 -25 -113 -13 -85 21 15 18 120 21 120 4z m762 -76 c-9 -119 16
-107 -267 -122 l-247 -13 -34 33 c-55 53 -48 59 76 61 61 1 122 2 138 4 15 1
88 5 162 9 145 7 160 9 160 24 0 18 -37 22 -126 12 -49 -6 -170 -13 -269 -17
-99 -3 -183 -8 -187 -10 -12 -8 -48 16 -48 31 0 8 10 16 23 19 89 16 176 23
332 25 99 2 182 5 184 7 2 2 28 4 57 4 l52 0 -6 -67z m-674 -4 c2 -13 -7 -18
-40 -21 -51 -6 -80 6 -71 28 8 22 107 16 111 -7z m-178 -9 c0 -15 -7 -20 -25
-20 -18 0 -25 5 -25 20 0 15 7 20 25 20 18 0 25 -5 25 -20z m246 -66 c19 -19
34 -40 34 -45 0 -5 -18 -9 -41 -9 -31 0 -51 8 -81 31 -42 34 -41 45 7 52 17 2
34 5 39 6 5 0 24 -15 42 -35z m-137 -18 l34 -35 -104 -3 c-57 -2 -107 -2 -111
-1 -3 2 -3 15 1 30 8 31 32 40 102 42 39 1 50 -4 78 -33z m717 -59 c2 -2 2
-11 -1 -19 -7 -18 -56 -30 -88 -23 -12 3 -89 1 -172 -4 -153 -9 -195 -4 -195
24 0 12 14 15 68 16 37 1 99 5 137 9 72 7 243 5 251 -3z m-628 -30 c26 -21 13
-37 -31 -37 -24 0 -92 -3 -151 -7 l-108 -6 4 29 c3 29 3 29 88 35 98 6 180 1
198 -14z m130 11 c23 -23 13 -38 -26 -38 -61 0 -86 36 -29 43 17 2 34 5 38 5
3 1 10 -3 17 -10z m-448 -27 c0 -20 -17 -37 -27 -28 -7 8 7 47 18 47 5 0 9 -9
9 -19z m878 -31 c52 0 53 -1 50 -27 l-3 -28 -125 -7 c-69 -3 -146 -9 -172 -12
-44 -5 -49 -3 -69 25 -12 18 -18 34 -13 39 9 9 217 19 259 13 11 -1 44 -3 73
-3z m-369 -34 c27 -43 27 -46 -7 -46 -18 0 -38 10 -55 28 -32 33 -33 39 -9 45
38 10 51 6 71 -27z m-115 -8 c14 -18 22 -36 18 -39 -12 -12 -391 -19 -398 -8
-3 6 -3 21 0 35 6 22 11 24 69 25 34 0 80 4 102 8 22 5 72 9 112 10 69 1 72 0
97 -31z m-420 -23 c-4 -8 -8 -15 -10 -15 -2 0 -4 7 -4 15 0 8 4 15 10 15 5 0
7 -7 4 -15z m952 -37 c-3 -13 -11 -55 -18 -95 -12 -71 -12 -71 -37 -61 -14 5
-51 7 -82 4 -57 -7 -89 -1 -89 16 0 5 -7 16 -15 25 -26 25 -8 32 75 29 59 -2
83 1 92 11 8 10 8 17 0 25 -8 8 -37 8 -109 -1 -95 -12 -98 -11 -115 10 -10 12
-18 25 -18 30 0 5 51 9 113 10 61 0 130 4 152 8 22 5 44 9 49 10 4 0 6 -9 2
-21z m-456 -33 c13 -14 22 -27 19 -29 -2 -2 -115 -6 -251 -9 -243 -6 -248 -6
-248 14 0 11 6 22 13 24 6 2 107 8 222 13 116 5 213 10 216 10 3 1 16 -9 29
-23z m118 -2 c13 -21 13 -23 -3 -30 -23 -8 -69 17 -73 41 -6 27 56 18 76 -11z
m61 -82 c27 -37 26 -41 -2 -41 -27 0 -72 43 -62 59 12 20 43 11 64 -18z m-101
0 c12 -11 22 -26 22 -35 0 -14 -32 -16 -300 -16 -290 0 -300 1 -300 19 0 11 6
23 13 28 10 7 165 14 477 21 50 1 70 -3 88 -17z m284 -73 c15 -6 34 -8 43 -4
12 4 15 -4 15 -44 0 -42 -4 -52 -25 -66 -21 -14 -31 -15 -50 -6 -37 17 -30 32
13 29 27 -1 37 2 37 13 0 11 -14 16 -51 18 -43 2 -53 7 -63 28 -24 54 -2 63
81 32z m-206 -14 c19 -15 34 -31 34 -37 0 -14 -683 3 -698 17 -21 22 37 28
314 35 165 4 303 8 307 9 5 1 24 -10 43 -24z m80 9 c14 -19 19 -53 7 -53 -12
0 -53 43 -53 57 0 19 30 16 46 -4z m-312 -77 c246 -3 310 -6 317 -17 4 -7 7
-14 6 -16 -7 -6 -650 -12 -704 -7 -50 5 -63 10 -63 24 0 27 10 30 74 25 34 -3
200 -7 370 -9z m361 -79 c8 -11 13 -22 11 -24 -6 -7 -620 -11 -723 -6 -88 5
-103 8 -103 23 0 15 18 16 203 15 111 -1 243 0 292 4 50 3 138 7 197 8 100 1
109 0 123 -20z m105 -11 c0 -11 -19 -15 -25 -6 -3 5 1 10 9 10 9 0 16 -2 16
-4z m-36 -71 c21 -26 22 -31 9 -39 -15 -8 -105 -4 -278 14 -152 15 -551 23
-575 10 -11 -6 -20 -14 -20 -18 0 -4 87 -7 193 -6 105 1 251 -3 322 -8 72 -5
175 -11 230 -14 121 -6 145 -11 145 -27 0 -9 -39 -12 -162 -10 -90 1 -185 4
-213 7 -27 3 -142 8 -255 12 -113 3 -223 9 -245 13 -38 6 -40 8 -38 41 0 19 1
38 2 41 1 4 157 7 348 8 191 1 348 3 349 4 1 1 39 2 83 2 78 0 82 -1 105 -30z
m-1079 -71 c75 -23 264 -44 394 -44 63 0 112 -2 110 -4 -2 -2 -60 -9 -129 -15
-73 -6 -150 -19 -184 -31 -33 -11 -68 -20 -79 -20 -11 0 -53 -16 -93 -35 -40
-19 -75 -35 -78 -35 -3 0 -4 19 -2 43 3 23 5 68 5 100 1 31 2 57 4 57 1 0 25
-7 52 -16z"/>
<path d="M666 266 c-37 -45 -47 -93 -27 -125 14 -22 39 3 68 67 45 102 22 135
-41 58z"/>
</g>
</svg>
