<?xml version="1.0" standalone="no"?>
<!DOCTYPE svg PUBLIC "-//W3C//DTD SVG 20010904//EN"
 "http://www.w3.org/TR/2001/REC-SVG-20010904/DTD/svg10.dtd">
<svg version="1.0" xmlns="http://www.w3.org/2000/svg"
 width="150.000000pt" height="104.000000pt" viewBox="0 0 150.000000 104.000000"
 preserveAspectRatio="xMidYMid meet">
<metadata>
Created by potrace 1.16, written by Peter Selinger 2001-2019
</metadata>
<g transform="translate(0.000000,104.000000) scale(0.100000,-0.100000)"
fill="#000000" stroke="none">
<path d="M315 899 c-41 -36 -61 -70 -70 -119 -5 -28 0 -44 23 -80 29 -46 50
-57 150 -81 48 -12 50 -19 27 -93 -17 -55 -14 -66 20 -66 19 0 26 7 31 28 4
15 12 50 19 77 l12 50 89 2 c49 1 122 4 163 8 l74 6 -6 -143 c-7 -136 -6 -146
16 -188 16 -31 38 -54 79 -79 31 -20 88 -60 125 -88 73 -57 88 -61 133 -38 24
12 30 23 35 62 3 27 10 66 15 88 21 95 30 144 39 210 4 39 16 105 26 148 11
48 15 81 9 87 -8 8 -264 -1 -379 -13 -22 -2 -24 13 -14 118 4 45 2 50 -18 53
-28 4 -39 -17 -48 -95 -4 -34 -12 -66 -18 -71 -16 -11 -289 -34 -298 -24 -3 4
1 49 9 100 17 102 11 123 -28 102 -12 -6 -20 -17 -17 -23 8 -21 -21 -159 -34
-168 -19 -12 -36 -10 -93 9 -66 23 -94 67 -76 125 6 21 27 55 46 76 19 21 34
41 34 45 0 17 -43 2 -75 -25z m919 -265 c11 -30 -5 -35 -105 -32 -102 2 -127
-6 -116 -36 5 -13 24 -16 99 -16 107 0 124 -7 114 -44 -7 -28 -2 -27 -131 -31
-88 -3 -95 -5 -95 -19 0 -18 32 -26 113 -26 76 0 107 -11 107 -39 0 -32 -24
-41 -103 -39 -80 2 -93 -2 -84 -27 4 -10 19 -15 44 -15 21 0 55 -3 76 -7 34
-5 38 -9 35 -32 -3 -25 -6 -26 -58 -26 -30 0 -61 -4 -68 -9 -9 -5 -23 0 -41
18 -15 14 -34 26 -43 26 -9 0 -26 9 -39 19 -23 19 -24 23 -23 170 1 83 4 154
8 158 12 12 89 20 197 22 89 1 108 -2 113 -15z m-67 -439 c10 -3 16 -65 7 -65
-10 0 -94 65 -94 72 0 8 53 3 87 -7z"/>
<path d="M245 387 c-27 -9 -32 -22 -12 -34 6 -4 86 -8 177 -9 91 -1 179 -5
197 -9 25 -6 33 -3 42 13 8 15 7 23 -2 30 -15 13 -368 20 -402 9z"/>
</g>
</svg>
