<?xml version="1.0" standalone="no"?>
<!DOCTYPE svg PUBLIC "-//W3C//DTD SVG 20010904//EN"
 "http://www.w3.org/TR/2001/REC-SVG-20010904/DTD/svg10.dtd">
<svg version="1.0" xmlns="http://www.w3.org/2000/svg"
 width="196.000000pt" height="142.000000pt" viewBox="0 0 196.000000 142.000000"
 preserveAspectRatio="xMidYMid meet">
<metadata>
Created by potrace 1.16, written by Peter Selinger 2001-2019
</metadata>
<g transform="translate(0.000000,142.000000) scale(0.100000,-0.100000)"
fill="#000000" stroke="none">
<path d="M717 1389 c-9 -6 -42 -60 -73 -122 -31 -62 -59 -116 -64 -120 -4 -5
-57 -5 -116 0 -103 8 -109 9 -112 31 -3 21 -7 23 -50 16 -26 -3 -51 -10 -56
-15 -15 -13 -26 -182 -13 -197 13 -16 55 -13 187 16 47 11 89 16 93 12 5 -4
-17 -59 -48 -121 -63 -126 -105 -225 -105 -246 0 -8 -11 -29 -25 -47 -28 -37
-32 -56 -11 -56 18 0 128 136 208 258 34 50 64 92 67 92 4 0 13 -16 20 -35 11
-32 104 -178 136 -215 7 -8 20 -37 29 -64 10 -27 38 -79 63 -115 25 -36 54
-85 64 -109 10 -23 25 -45 34 -48 8 -4 15 -11 15 -18 0 -6 11 -24 24 -39 14
-16 42 -58 63 -93 21 -35 43 -64 50 -64 6 0 22 15 34 32 13 18 26 35 29 38 4
3 24 30 45 60 21 30 54 75 74 100 51 62 69 88 168 235 105 154 223 311 287
380 58 62 58 87 1 96 -22 3 -64 18 -93 33 l-54 28 -191 -3 c-196 -3 -482 7
-500 18 -5 3 -36 7 -68 7 -32 1 -61 5 -65 9 -4 4 2 17 13 30 11 12 38 48 59
80 21 32 50 65 66 73 32 17 39 54 10 54 -11 0 -45 9 -77 20 -65 22 -92 24
-118 9z m96 -60 c12 -7 23 -13 25 -15 2 -1 -24 -43 -57 -93 -60 -89 -62 -91
-101 -91 -21 0 -42 4 -45 10 -3 5 16 52 42 104 46 92 49 96 81 96 18 0 43 -5
55 -11z m-256 -237 c9 -23 -15 -36 -84 -44 -38 -4 -92 -11 -120 -14 -59 -7
-64 0 -41 51 l12 26 114 -2 c85 -2 116 -7 119 -17z m143 -2 c0 -15 -35 -30
-69 -30 -33 0 -39 8 -19 28 14 14 88 16 88 2z m141 -10 c11 0 19 -3 19 -7 0
-9 -118 -15 -131 -7 -23 14 7 26 49 20 25 -3 53 -6 63 -6z m700 -46 c14 -8
-14 -54 -37 -60 -12 -3 -73 -1 -135 5 -63 6 -186 16 -274 22 -214 15 -216 15
-198 27 13 8 631 14 644 6z m-812 -13 c11 -7 7 -13 -17 -25 -34 -18 -51 -6
-26 18 18 18 24 19 43 7z m-89 -10 c0 -5 -10 -22 -23 -38 -13 -15 -47 -63 -76
-105 -29 -42 -59 -82 -67 -89 -27 -22 -27 0 -1 40 14 21 38 67 52 102 15 35
34 72 43 82 16 18 72 24 72 8z m1015 -14 c21 -8 41 -20 43 -26 2 -6 -40 -67
-93 -136 l-96 -125 -44 0 c-32 0 -45 4 -45 14 0 20 25 37 44 30 23 -9 68 4 63
19 -2 7 -15 12 -28 12 -40 0 -36 20 5 25 46 6 59 26 21 36 -30 7 -29 25 4 39
16 7 20 16 16 33 -5 20 -2 22 27 20 24 -2 33 1 36 15 2 12 -3 17 -17 17 -21 0
-29 28 -14 44 8 8 14 6 78 -17z m-789 -78 c6 -41 22 -117 37 -169 14 -52 33
-131 42 -175 9 -44 20 -96 25 -115 5 -19 15 -61 24 -92 8 -32 12 -58 9 -58 -9
0 -43 45 -64 84 -12 21 -35 60 -53 85 -33 48 -42 66 -74 142 -11 26 -43 80
-70 122 -58 85 -92 143 -92 157 0 11 181 101 195 96 6 -1 15 -36 21 -77z m159
50 c49 -2 49 -2 -15 -9 -36 -4 -75 -10 -87 -14 -19 -6 -23 -4 -23 15 0 19 4
21 38 15 20 -3 60 -6 87 -7z m330 -24 c6 -2 -27 -4 -72 -4 -46 -1 -83 3 -83 8
0 7 130 4 155 -4z m93 -41 c26 -5 30 -41 5 -51 -9 -4 -48 -1 -87 6 -39 6 -158
17 -263 23 -178 11 -228 20 -170 31 27 5 483 -2 515 -9z m-118 -74 c101 -12
109 -15 94 -30 -6 -6 -61 -6 -154 1 -80 6 -189 9 -242 6 -54 -4 -98 -4 -98 -2
0 2 -3 10 -6 18 -3 9 2 17 13 20 29 9 289 0 393 -13z m12 -61 c53 2 69 -13 42
-39 -18 -17 -25 -17 -164 1 -176 23 -243 22 -248 -4 -3 -16 1 -18 40 -12 24 4
71 2 103 -3 33 -6 99 -14 148 -17 77 -6 87 -9 87 -26 0 -18 -8 -19 -117 -18
-65 1 -152 4 -193 8 l-74 6 -12 41 c-21 72 -11 75 186 68 85 -4 176 -6 202 -5z
m138 -103 c0 -8 -5 -18 -11 -22 -6 -3 -35 -43 -65 -88 -99 -150 -222 -312
-230 -303 -3 2 22 50 55 105 32 55 65 117 72 137 10 27 21 38 41 42 27 5 40
23 17 23 -6 0 -9 10 -7 22 2 17 10 22 32 23 16 0 31 6 33 13 3 6 -2 12 -11 12
-21 0 -30 18 -16 35 17 20 90 20 90 1z m-172 -52 c10 -3 10 -8 1 -25 -10 -20
-16 -21 -99 -15 -49 4 -120 7 -159 7 -62 0 -71 2 -71 18 0 10 3 20 6 24 6 6
300 -2 322 -9z m-96 -72 c54 -6 66 -10 59 -21 -8 -12 -19 -12 -67 -3 -31 7
-90 12 -130 12 -64 0 -93 8 -79 21 5 5 120 0 217 -9z m13 -62 c48 -18 16 -31
-50 -20 -33 5 -84 10 -112 10 -50 0 -63 7 -45 24 9 11 172 -1 207 -14z m-47
-56 c43 -6 47 -10 34 -32 -7 -10 -24 -10 -88 0 -81 12 -108 23 -98 40 6 10 34
8 152 -8z m-55 -65 c59 -12 67 -19 43 -38 -9 -7 -31 -9 -67 -4 -45 7 -55 12
-57 31 -4 26 2 26 81 11z m12 -84 c0 -5 -17 -11 -37 -13 -30 -3 -38 0 -38 13
0 13 8 16 38 13 20 -2 37 -7 37 -13z m-25 -47 c0 -7 -5 -20 -10 -28 -12 -19
-35 2 -27 24 7 19 37 21 37 4z"/>
<path d="M448 57 c-7 -7 -29 -22 -48 -35 l-35 -22 102 0 c101 0 153 10 153 30
0 5 -24 10 -54 10 -35 0 -58 5 -66 15 -15 18 -34 19 -52 2z"/>
<path d="M187 25 l-28 -25 34 0 c30 0 67 24 67 43 0 16 -47 4 -73 -18z"/>
</g>
</svg>
