<?xml version="1.0" standalone="no"?>
<!DOCTYPE svg PUBLIC "-//W3C//DTD SVG 20010904//EN"
 "http://www.w3.org/TR/2001/REC-SVG-20010904/DTD/svg10.dtd">
<svg version="1.0" xmlns="http://www.w3.org/2000/svg"
 width="154.000000pt" height="104.000000pt" viewBox="0 0 154.000000 104.000000"
 preserveAspectRatio="xMidYMid meet">
<metadata>
Created by potrace 1.16, written by Peter Selinger 2001-2019
</metadata>
<g transform="translate(0.000000,104.000000) scale(0.100000,-0.100000)"
fill="#000000" stroke="none">
<path d="M524 884 c-4 -14 -2 -50 5 -81 14 -73 4 -93 -50 -93 -58 0 -159 37
-195 71 -38 37 -56 31 -83 -26 -28 -60 -32 -82 -23 -145 6 -45 11 -56 28 -58
11 -2 69 22 129 53 83 43 117 55 144 53 35 -3 36 -4 33 -43 -2 -22 -7 -53 -12
-70 -4 -16 -11 -47 -15 -68 -6 -34 -9 -38 -28 -32 -31 10 -90 6 -98 -6 -11
-19 -18 -223 -7 -236 13 -15 36 -7 73 28 17 15 65 44 107 65 65 30 93 37 162
41 77 5 84 4 83 -13 -2 -14 6 -18 30 -20 17 -1 44 -11 59 -23 15 -11 32 -21
40 -21 7 0 27 -16 46 -36 18 -19 52 -44 74 -54 23 -11 56 -31 73 -46 36 -30
63 -28 73 6 4 14 17 59 28 100 27 95 32 104 59 108 24 4 29 32 6 32 -24 0 -17
24 20 67 19 23 35 45 35 50 0 4 39 51 85 103 47 52 85 100 85 106 0 20 -27 24
-83 14 -29 -6 -86 -9 -127 -8 -41 2 -178 -1 -305 -6 -126 -4 -241 -9 -255 -9
-64 -2 -120 4 -120 13 0 6 36 47 80 92 77 80 94 107 68 109 -7 0 -59 3 -115 5
l-103 4 -6 -26z m135 -40 c6 -6 -52 -76 -64 -78 -11 -1 -19 58 -11 80 4 10 15
12 38 7 18 -3 35 -7 37 -9z m-319 -174 c0 -7 -77 -50 -89 -50 -11 0 -16 92 -5
102 6 6 93 -43 94 -52z m835 -10 c3 -5 22 -10 40 -10 28 0 37 -6 50 -30 12
-24 13 -35 4 -52 -11 -20 -16 -21 -125 -14 -77 4 -115 3 -120 -5 -13 -21 12
-29 114 -35 76 -5 102 -10 102 -21 0 -20 -206 -19 -226 2 -23 22 -29 20 -87
-38 -42 -42 -62 -55 -93 -59 -65 -8 -247 -1 -278 11 -24 10 -27 15 -22 39 4
15 13 65 21 112 8 47 14 85 15 86 0 0 46 0 103 0 128 -1 459 13 465 19 9 9 31
5 37 -5z m215 -17 c-1 -16 -70 -86 -70 -71 0 9 -3 30 -6 47 -6 31 -6 31 35 31
22 0 41 -3 41 -7z m-252 -200 c86 -5 99 -15 64 -47 -16 -14 -32 -15 -105 -10
l-87 7 0 35 c0 31 2 34 23 27 12 -4 59 -10 105 -12z m-194 -70 c-10 -47 -13
-53 -27 -53 -8 0 -20 6 -26 14 -9 11 -6 15 14 20 16 4 25 13 25 26 0 11 5 20
10 20 6 0 8 -12 4 -27z m-470 -3 c25 -10 46 -21 46 -24 0 -5 -107 -66 -116
-66 -7 0 3 86 12 101 7 12 5 12 58 -11z m681 -30 c42 -16 19 -32 -44 -30 -80
3 -91 2 -91 -14 0 -14 49 -26 108 -26 17 0 32 -2 32 -4 0 -11 -23 -66 -28 -66
-14 0 -110 51 -121 64 -7 8 -15 30 -18 50 l-6 36 71 0 c39 0 83 -4 97 -10z"/>
<path d="M1037 617 c-8 -20 6 -24 109 -33 51 -4 84 -3 88 4 12 19 -22 32 -106
38 -72 6 -86 4 -91 -9z"/>
<path d="M1447 176 c-21 -41 -37 -77 -37 -80 0 -16 37 -4 50 16 23 36 59 122
54 130 -14 22 -34 1 -67 -66z"/>
</g>
</svg>
