<?xml version="1.0" standalone="no"?>
<!DOCTYPE svg PUBLIC "-//W3C//DTD SVG 20010904//EN"
 "http://www.w3.org/TR/2001/REC-SVG-20010904/DTD/svg10.dtd">
<svg version="1.0" xmlns="http://www.w3.org/2000/svg"
 width="200.000000pt" height="118.000000pt" viewBox="0 0 200.000000 118.000000"
 preserveAspectRatio="xMidYMid meet">
<metadata>
Created by potrace 1.16, written by Peter Selinger 2001-2019
</metadata>
<g transform="translate(0.000000,118.000000) scale(0.100000,-0.100000)"
fill="#000000" stroke="none">
<path d="M598 1029 c-25 -14 -22 -32 7 -57 50 -44 33 -54 -91 -53 -105 0 -159
13 -174 42 -7 12 -21 19 -39 19 -29 0 -44 -19 -56 -75 -8 -37 -8 -232 0 -246
7 -10 100 38 145 75 14 12 46 29 70 39 25 11 65 28 89 38 24 11 46 17 49 14
10 -9 2 -85 -18 -187 -11 -53 -20 -113 -20 -133 0 -36 -1 -37 -27 -31 -16 4
-48 11 -73 15 -32 6 -52 17 -71 41 -17 20 -34 31 -46 28 -15 -3 -20 -20 -32
-113 -9 -81 -10 -117 -2 -138 6 -15 14 -27 19 -27 4 0 30 20 57 45 29 25 64
48 83 51 18 3 35 10 38 15 3 5 14 9 25 9 21 0 20 5 24 -154 1 -70 5 -90 18
-97 28 -16 44 27 50 134 6 114 16 131 64 122 19 -3 115 -6 213 -5 99 0 180 -2
180 -5 0 -4 -7 -38 -16 -77 -10 -43 -14 -92 -11 -124 3 -30 1 -56 -5 -62 -6
-6 -7 -15 -4 -21 15 -23 52 -9 106 42 31 28 90 78 131 109 87 68 101 80 339
299 106 98 161 140 217 166 30 14 39 24 41 49 2 25 -7 41 -58 97 -61 66 -63
67 -113 67 -61 0 -176 27 -198 46 -8 8 -22 14 -31 14 -8 0 -18 3 -22 7 -4 4
-46 6 -94 4 -71 -2 -91 1 -101 13 -16 19 -31 20 -55 3 -16 -12 -23 -39 -25
-97 -1 -23 -110 -40 -261 -40 -149 0 -154 4 -93 70 50 56 38 65 -85 65 -53 1
-104 4 -112 8 -8 3 -23 2 -32 -4z m162 -76 c-1 -33 -26 -54 -55 -47 -56 14
-45 64 15 64 32 0 40 -4 40 -17z m536 -3 c14 0 27 -6 30 -13 2 -8 -17 -60 -44
-118 -27 -57 -55 -121 -62 -141 -14 -45 -30 -59 -30 -26 0 31 28 186 35 198 3
6 13 10 21 10 19 0 18 29 -1 36 -15 6 -21 45 -8 58 4 3 13 4 21 1 7 -3 25 -5
38 -5z m244 -40 c0 -15 -73 -22 -81 -8 -10 15 -11 32 -3 40 7 7 84 -23 84 -32z
m-136 -24 c-3 -9 -10 -16 -15 -16 -5 0 -21 -25 -34 -55 -24 -51 -45 -71 -45
-42 0 12 39 91 67 136 13 21 17 22 24 8 5 -8 6 -22 3 -31z m272 11 c4 -4 -1
-16 -11 -27 -14 -15 -31 -20 -73 -20 l-56 0 29 30 c24 26 36 30 67 27 21 -2
41 -6 44 -10z m-1340 -12 c20 -10 60 -15 129 -15 l100 0 -40 -25 c-22 -13 -48
-25 -58 -25 -9 0 -47 -18 -83 -40 -79 -48 -94 -50 -94 -12 0 32 12 132 15 132
2 0 16 -7 31 -15z m830 -77 c-4 -29 -11 -86 -16 -126 -5 -40 -21 -112 -35
-159 l-26 -85 -211 5 c-115 3 -214 9 -219 14 -10 10 24 150 67 282 41 122 17
110 237 114 105 1 196 3 201 5 5 1 6 -21 2 -50z m602 11 c18 -17 32 -36 32
-43 0 -6 -14 -22 -32 -36 -69 -55 -116 -96 -193 -168 -206 -196 -235 -219
-235 -191 0 14 100 139 111 139 4 0 18 18 30 40 16 28 29 40 45 40 34 0 76 19
69 30 -3 5 -15 10 -26 10 -28 0 -24 13 19 58 20 22 55 65 76 96 22 31 47 56
56 56 9 0 31 -14 48 -31z m-1058 10 c0 -6 -16 -58 -35 -116 -19 -58 -35 -113
-35 -123 0 -32 -22 -82 -32 -72 -6 6 -2 46 10 108 11 55 23 121 26 147 3 27 8
53 12 58 7 13 54 11 54 -2z m760 -14 c0 -5 -77 -55 -85 -55 -14 0 -2 31 17 44
21 15 68 22 68 11z m144 -17 c-22 -39 -49 -58 -83 -57 -20 0 -45 4 -55 8 -16
6 -13 11 25 34 47 28 127 38 113 15z m-269 -104 c0 -12 -8 -20 -22 -22 -26 -4
-28 1 -12 29 13 24 34 20 34 -7z m185 -2 c0 -5 -11 -19 -24 -31 -22 -20 -31
-22 -75 -16 -52 7 -61 15 -38 33 22 18 137 30 137 14z m-230 -82 c-19 -13 -30
-13 -30 0 0 6 10 10 23 10 18 0 19 -2 7 -10z m150 -17 c0 -3 -7 -15 -17 -25
-13 -14 -31 -18 -86 -18 -39 0 -67 3 -63 8 21 21 166 52 166 35z m-189 -80 c2
-5 -7 -10 -21 -11 -21 -4 -22 -2 -11 12 13 16 24 15 32 -1z m109 -22 c0 -5
-14 -21 -31 -35 -31 -26 -54 -30 -99 -16 -24 7 -24 8 15 24 22 9 49 21 60 26
27 12 55 12 55 1z m-936 -60 c17 -6 13 -11 -27 -33 -50 -28 -61 -24 -51 17 6
26 36 32 78 16z m856 -39 c0 -21 -29 -32 -87 -32 -46 0 -63 4 -63 13 0 8 3 17
7 20 9 10 143 9 143 -1z m-60 -76 c0 -13 -81 -96 -93 -96 -5 0 -7 24 -5 53 l3
52 40 5 c45 7 55 4 55 -14z"/>
<path d="M1977 404 c-3 -3 -34 -6 -68 -5 -69 1 -81 -3 -72 -24 4 -11 22 -15
68 -15 76 0 95 6 95 31 0 19 -11 25 -23 13z"/>
</g>
</svg>
