<?xml version="1.0" standalone="no"?>
<!DOCTYPE svg PUBLIC "-//W3C//DTD SVG 20010904//EN"
 "http://www.w3.org/TR/2001/REC-SVG-20010904/DTD/svg10.dtd">
<svg version="1.0" xmlns="http://www.w3.org/2000/svg"
 width="168.000000pt" height="126.000000pt" viewBox="0 0 168.000000 126.000000"
 preserveAspectRatio="xMidYMid meet">
<metadata>
Created by potrace 1.16, written by Peter Selinger 2001-2019
</metadata>
<g transform="translate(0.000000,126.000000) scale(0.100000,-0.100000)"
fill="#000000" stroke="none">
<path d="M412 1053 c-31 -45 -60 -106 -97 -209 -40 -111 -40 -110 -19 -118 25
-10 41 10 49 60 7 47 52 163 85 217 35 56 18 101 -18 50z"/>
<path d="M717 1053 c-14 -14 -6 -42 14 -48 17 -6 19 -12 14 -33 -12 -47 -35
-255 -35 -313 0 -43 -5 -60 -20 -74 -17 -16 -20 -16 -20 -2 0 9 5 28 11 44 8
22 7 30 -6 39 -15 11 -14 17 5 70 32 91 33 94 22 94 -34 0 -51 -40 -133 -307
-9 -29 -54 -73 -75 -73 -4 0 -25 -12 -45 -26 -30 -21 -41 -24 -57 -15 -29 15
-51 4 -67 -35 -8 -19 -22 -37 -32 -41 -25 -8 -63 -44 -63 -58 0 -7 -9 -24 -20
-38 -21 -26 -27 -81 -10 -92 12 -7 47 10 77 38 l22 20 69 -22 c37 -11 79 -21
92 -21 38 -1 116 -44 112 -63 -1 -8 2 -18 8 -22 20 -12 260 51 385 101 33 13
89 32 125 43 36 10 88 31 115 46 28 15 93 42 145 60 52 18 112 41 133 49 20 9
47 14 60 11 31 -8 49 24 41 73 -7 43 -48 76 -94 78 -79 2 -97 6 -129 32 -38
30 -155 131 -241 207 -32 28 -95 79 -141 115 -46 36 -102 81 -124 101 -60 55
-119 81 -138 62z m142 -134 c24 -17 41 -32 39 -34 -1 -1 -27 0 -55 2 -50 5
-53 7 -53 34 0 37 16 37 69 -2z m44 -95 c28 -5 37 -10 35 -23 -3 -13 -17 -16
-77 -16 -75 0 -90 7 -77 41 5 13 14 15 44 10 20 -4 54 -9 75 -12z m189 -87
c61 -54 200 -162 235 -184 38 -23 162 -126 162 -135 1 -3 -36 -18 -81 -33 -46
-15 -92 -30 -103 -34 -45 -18 -91 -33 -112 -38 -26 -6 -27 -2 -23 125 1 60 -1
72 -14 72 -9 0 -25 -15 -37 -32 -16 -27 -20 -48 -18 -108 1 -41 1 -80 0 -86
-1 -12 -140 -68 -148 -60 -7 6 36 556 44 568 6 11 45 -11 95 -55z m-173 -13
c2 -2 1 -11 -3 -20 -5 -13 -15 -15 -55 -9 -30 4 -57 2 -70 -5 -19 -9 -21 -8
-21 14 0 13 6 27 13 29 12 5 129 -3 136 -9z m-63 -80 c61 -8 70 -15 54 -44
-11 -21 -48 -26 -109 -14 -28 6 -31 10 -31 41 0 28 3 34 16 29 9 -3 40 -9 70
-12z m27 -113 c16 -1 26 -5 22 -11 -7 -12 -155 -14 -155 -2 0 17 13 21 59 17
25 -2 59 -4 74 -4z m-196 -73 c-3 -18 -9 -82 -12 -143 -3 -60 -8 -122 -11
-137 l-5 -28 -67 34 c-37 19 -107 46 -155 62 -48 15 -90 31 -92 35 -3 4 43 34
103 68 59 33 132 78 161 101 68 50 85 52 78 8z m213 -24 c0 -30 -3 -34 -14
-25 -7 6 -41 14 -75 17 -40 5 -61 11 -61 20 0 9 21 14 73 17 39 1 73 4 75 5 1
1 2 -14 2 -34z m-6 -71 c8 -21 -12 -25 -85 -18 -62 6 -78 13 -65 26 11 10 146
3 150 -8z m-7 -75 c-3 -9 -22 -12 -59 -10 -38 2 -58 -2 -67 -11 -17 -21 7 -37
68 -44 65 -7 61 -22 -10 -45 -88 -27 -89 -27 -89 40 0 32 5 63 12 70 17 17
151 16 145 0z"/>
<path d="M442 973 c-37 -74 -97 -233 -113 -301 -11 -45 -11 -56 3 -80 11 -19
13 -36 7 -56 -9 -33 4 -58 26 -50 7 3 16 -3 20 -15 3 -12 14 -21 24 -21 22 0
45 25 37 39 -6 9 65 217 103 306 46 104 64 155 58 161 -13 13 -39 -7 -53 -43
-8 -21 -23 -56 -33 -78 -10 -22 -24 -57 -30 -77 -21 -63 -70 -155 -70 -132 -2
52 90 281 119 299 12 7 14 55 2 55 -18 0 -52 -48 -83 -115 -18 -39 -34 -64
-36 -58 -6 16 22 92 55 151 23 42 24 72 2 72 -5 0 -23 -26 -38 -57z"/>
<path d="M630 866 c-38 -47 -150 -317 -150 -364 0 -29 3 -33 22 -30 17 2 24
12 29 38 11 62 50 173 82 235 54 104 57 112 43 125 -10 7 -17 6 -26 -4z"/>
<path d="M105 695 c-16 -7 -47 -29 -67 -50 -32 -31 -38 -42 -38 -79 0 -27 6
-48 15 -56 15 -13 71 -10 109 6 16 6 17 5 6 -16 -19 -35 -89 -108 -111 -115
-12 -4 -19 -16 -19 -31 0 -13 2 -24 5 -24 21 0 88 46 122 83 56 60 84 119 90
186 4 47 2 60 -17 84 -23 30 -48 33 -95 12z m25 -45 c0 -23 -33 -89 -47 -94
-41 -16 -44 30 -4 73 29 31 51 40 51 21z"/>
<path d="M260 575 c-19 -23 -8 -50 20 -50 18 0 26 6 28 22 4 29 -30 49 -48 28z"/>
<path d="M253 433 c-18 -6 -16 -48 1 -62 11 -9 20 -10 35 -1 12 6 21 14 21 19
0 14 -45 49 -57 44z"/>
<path d="M944 49 c-26 -28 -32 -29 -113 -29 -47 0 -93 -5 -101 -10 -10 -6 50
-10 180 -10 l195 0 -35 34 c-50 48 -90 53 -126 15z"/>
<path d="M1282 58 c-6 -6 -12 -22 -12 -35 0 -19 5 -23 31 -23 28 0 30 2 27 32
-3 35 -25 47 -46 26z"/>
<path d="M1645 10 c-18 -8 -17 -9 8 -9 15 -1 27 4 27 9 0 12 -8 12 -35 0z"/>
</g>
</svg>
