<?xml version="1.0" standalone="no"?>
<!DOCTYPE svg PUBLIC "-//W3C//DTD SVG 20010904//EN"
 "http://www.w3.org/TR/2001/REC-SVG-20010904/DTD/svg10.dtd">
<svg version="1.0" xmlns="http://www.w3.org/2000/svg"
 width="198.000000pt" height="118.000000pt" viewBox="0 0 198.000000 118.000000"
 preserveAspectRatio="xMidYMid meet">
<metadata>
Created by potrace 1.16, written by Peter Selinger 2001-2019
</metadata>
<g transform="translate(0.000000,118.000000) scale(0.100000,-0.100000)"
fill="#000000" stroke="none">
<path d="M968 1073 c-9 -10 -25 -36 -36 -58 -11 -23 -31 -46 -44 -53 -12 -8
-34 -28 -48 -46 -14 -18 -56 -67 -94 -109 l-70 -77 -31 30 c-17 16 -35 30 -41
30 -18 0 -90 80 -78 88 6 4 14 20 18 37 4 16 19 53 34 83 22 44 24 55 12 62
-9 6 -25 2 -45 -10 -16 -10 -64 -30 -105 -44 -41 -13 -76 -30 -78 -36 -2 -6 6
-22 19 -36 22 -24 22 -24 3 -38 -18 -14 -18 -15 0 -35 11 -12 27 -21 38 -21
23 0 23 -12 0 -33 -24 -22 -30 -21 -34 5 -2 13 -10 24 -19 26 -13 2 -18 -12
-25 -75 -9 -75 -10 -78 -34 -74 -14 1 -40 16 -58 32 -35 31 -52 35 -82 19 -28
-15 -39 -42 -49 -117 -5 -38 -12 -75 -15 -83 -4 -9 -1 -24 7 -33 15 -21 46
-13 87 23 45 40 85 68 107 74 20 6 22 2 28 -49 4 -30 11 -55 16 -55 15 0 29
38 29 79 0 34 3 41 19 41 28 0 32 -11 24 -80 l-6 -62 -64 -40 c-35 -22 -62
-45 -60 -52 2 -6 19 -15 38 -21 19 -5 58 -22 87 -38 71 -37 86 -36 78 7 -4 22
-1 48 9 72 8 20 15 56 15 79 0 41 4 46 61 94 33 28 66 51 72 51 14 0 115 -109
122 -132 6 -16 34 -32 42 -24 13 12 -13 73 -50 119 -23 29 -48 64 -56 80 -14
26 -13 29 25 70 22 23 64 70 94 105 31 37 58 61 66 58 8 -3 32 1 55 9 23 8 53
15 66 15 14 0 38 8 54 17 24 14 33 15 47 5 9 -7 26 -16 37 -21 11 -5 42 -19
68 -31 l48 -23 -34 -21 c-20 -12 -83 -50 -141 -85 -67 -41 -106 -70 -106 -81
0 -9 11 -27 25 -40 14 -13 25 -31 25 -40 0 -18 -113 -99 -172 -124 -49 -19
-43 -34 31 -80 32 -19 78 -56 103 -82 62 -64 87 -46 37 27 -23 32 -35 139 -20
167 21 39 46 45 90 22 22 -11 43 -20 46 -20 9 0 6 35 -4 46 -16 15 -22 73 -12
112 5 20 12 49 15 64 4 19 23 38 66 64 33 20 60 43 60 50 0 8 3 14 8 14 16 -1
86 -46 84 -55 -3 -11 -72 -53 -149 -90 -29 -14 -53 -28 -53 -31 0 -4 18 -31
40 -60 22 -29 40 -55 40 -58 0 -10 -149 -104 -171 -108 -38 -5 -34 -32 11 -62
22 -14 40 -33 40 -41 0 -8 9 -23 20 -33 l21 -19 -25 -17 c-14 -9 -34 -16 -44
-16 -10 0 -24 -6 -31 -13 -8 -8 -41 -11 -99 -10 -57 1 -89 -2 -94 -10 -12 -19
-9 -25 13 -32 27 -9 99 -74 99 -90 0 -22 36 -45 69 -45 30 0 33 2 27 25 -9 35
5 57 88 140 69 70 120 101 246 151 25 10 71 33 103 52 31 18 72 38 90 44 17 6
59 25 92 43 33 17 86 42 118 54 81 33 74 48 -48 93 -55 21 -119 47 -142 58
-24 11 -47 20 -53 20 -5 0 -15 9 -22 20 -9 14 -24 20 -50 20 -21 0 -38 4 -38
9 0 5 -10 13 -22 17 -35 11 -278 131 -297 147 -9 7 -36 22 -61 32 -60 25 -79
42 -73 66 7 25 -28 26 -49 2z m55 -72 c15 -8 27 -18 27 -22 0 -8 -79 -23 -86
-16 -7 7 15 59 24 55 4 -2 19 -10 35 -17z m-517 -43 c-3 -13 -6 -29 -6 -35 0
-18 -20 -16 -42 4 -24 21 -23 32 5 43 38 15 50 12 43 -12z m4 -169 c0 -5 -8
-9 -19 -9 -21 0 -45 -23 -34 -33 3 -4 17 -7 30 -7 24 0 29 -15 13 -40 -9 -13
-12 -13 -21 3 -16 27 -49 22 -49 -9 0 -21 -4 -25 -22 -22 -39 5 -28 40 30 91
48 43 72 52 72 26z m954 -5 c9 -3 16 -10 16 -15 0 -14 -124 -90 -128 -79 -3 9
23 65 40 88 11 13 46 16 72 6z m163 -68 c43 -19 104 -44 136 -56 31 -12 57
-25 56 -29 0 -3 -32 -21 -72 -40 -69 -32 -253 -123 -286 -142 -42 -23 -252
-119 -260 -119 -14 0 -24 59 -13 73 6 7 16 31 23 55 9 31 21 48 42 59 28 14
30 14 61 -16 56 -54 75 -34 31 31 -26 39 -35 111 -14 124 6 3 24 -7 41 -22 26
-25 29 -34 25 -68 -6 -41 6 -76 24 -76 19 0 65 54 74 85 4 17 8 55 9 86 1 51
16 89 36 89 5 0 44 -15 87 -34z m-1019 2 c16 -16 15 -47 0 -53 -7 -2 -28 -1
-46 3 l-34 7 22 28 c23 29 39 34 58 15z m492 0 c0 -24 -12 -58 -20 -58 -15 0
-22 41 -10 55 15 18 30 19 30 3z m210 0 c0 -7 -8 -26 -19 -41 l-18 -28 -17 25
c-16 25 -15 26 11 40 35 19 43 19 43 4z m150 -53 c0 -33 -14 -38 -36 -14 -18
20 -18 21 0 35 24 17 36 10 36 -21z m-1236 -14 c16 -18 16 -20 -6 -35 -12 -9
-26 -16 -30 -16 -9 0 -10 32 -2 54 8 21 17 20 38 -3z m326 -38 c-1 -9 -68 -83
-75 -83 -8 0 -6 76 2 83 9 10 73 9 73 0z m408 -156 c4 -19 -6 -21 -27 -8 -16
10 -5 34 12 28 7 -2 13 -11 15 -20z m-478 3 c0 -6 -7 -26 -15 -46 -12 -30 -17
-34 -34 -24 -33 17 -33 27 0 54 32 27 49 33 49 16z m679 -21 c-7 -14 -14 -18
-21 -11 -13 13 -2 32 18 32 12 0 13 -4 3 -21z m-29 -184 c0 -11 -64 -75 -75
-75 -13 0 -31 37 -23 46 5 5 80 32 91 33 4 1 7 -1 7 -4z"/>
<path d="M1010 866 c-95 -48 -192 -110 -204 -130 -9 -14 -1 -26 47 -71 31 -30
57 -61 57 -69 0 -24 18 -28 50 -11 16 8 30 18 30 21 0 2 -9 18 -21 33 -19 26
-20 33 -9 77 6 27 14 62 17 78 5 24 16 33 64 54 33 14 59 31 59 39 0 20 -19
16 -90 -21z m-100 -125 c0 -24 -18 -37 -32 -23 -8 8 -7 16 2 27 17 21 30 19
30 -4z"/>
<path d="M65 78 c-52 -60 -60 -78 -38 -78 17 0 103 93 103 111 0 22 -31 6 -65
-33z"/>
<path d="M467 23 c-14 -13 -6 -24 15 -21 27 4 36 28 11 28 -11 0 -23 -3 -26
-7z"/>
</g>
</svg>
