<?xml version="1.0" standalone="no"?>
<!DOCTYPE svg PUBLIC "-//W3C//DTD SVG 20010904//EN"
 "http://www.w3.org/TR/2001/REC-SVG-20010904/DTD/svg10.dtd">
<svg version="1.0" xmlns="http://www.w3.org/2000/svg"
 width="364.000000pt" height="126.000000pt" viewBox="0 0 364.000000 126.000000"
 preserveAspectRatio="xMidYMid meet">
<metadata>
Created by potrace 1.16, written by Peter Selinger 2001-2019
</metadata>
<g transform="translate(0.000000,126.000000) scale(0.100000,-0.100000)"
fill="#000000" stroke="none">
<path d="M1639 1120 l-64 -70 -83 0 c-89 0 -104 -9 -83 -49 9 -15 8 -51 0
-133 -18 -192 -14 -178 -62 -178 -91 1 -274 44 -322 77 -54 37 -75 3 -75 -120
0 -45 -4 -99 -9 -119 -13 -57 5 -65 71 -32 29 14 62 35 74 45 55 51 278 105
292 71 3 -9 0 -59 -6 -111 -7 -53 -12 -117 -12 -142 0 -45 -2 -47 -39 -62 -21
-9 -41 -22 -44 -30 -3 -8 -26 -23 -50 -35 -25 -12 -48 -26 -52 -32 -14 -23 46
-7 126 33 134 67 202 95 348 142 75 24 165 57 201 73 36 17 83 33 103 37 20 4
47 15 60 24 33 25 74 13 105 -31 125 -173 190 -241 276 -288 54 -30 60 -31 72
-16 6 9 10 25 7 36 -5 19 -19 12 317 172 63 30 131 62 150 70 121 52 344 158
393 186 l57 33 29 -20 c42 -30 83 -7 50 26 -16 16 -3 31 34 41 19 5 33 16 35
26 3 15 -1 18 -25 13 -15 -3 -48 -13 -73 -23 -44 -17 -48 -17 -92 0 -28 11
-45 23 -42 30 8 20 -16 32 -88 46 -36 6 -101 28 -145 47 -43 19 -123 50 -178
69 -140 49 -296 123 -320 151 -18 21 -23 22 -58 12 -34 -9 -38 -13 -33 -34 5
-19 1 -27 -16 -36 -13 -6 -59 -42 -103 -78 -76 -63 -158 -121 -170 -121 -3 0
-29 -15 -58 -33 -70 -45 -176 -97 -197 -97 -9 0 -32 22 -51 50 -19 27 -37 50
-41 50 -5 0 -8 5 -8 10 0 6 -18 35 -39 64 -49 65 -60 106 -64 226 -2 75 -6 95
-18 98 -8 1 -44 -29 -80 -68z m41 -96 c0 -52 -1 -55 -17 -43 -32 25 -43 37
-43 48 0 12 40 51 52 51 4 0 8 -25 8 -56z m955 -42 c22 -12 26 -17 13 -20 -21
-4 -98 16 -98 27 0 25 28 23 85 -7z m-1119 3 c6 -14 -44 -155 -54 -155 -6 0 6
149 14 161 8 14 34 11 40 -6z m84 -33 c0 -5 22 -20 49 -33 42 -20 81 -61 81
-84 0 -3 -27 -3 -59 1 -57 6 -60 5 -65 -17 -11 -50 -26 -169 -26 -205 0 -20
-10 -73 -22 -116 -21 -76 -24 -82 -67 -109 -72 -45 -75 -42 -68 54 3 45 18
120 32 167 15 47 38 123 52 170 30 96 68 180 83 180 6 0 10 -4 10 -8z m885 -2
c3 -5 21 -10 39 -10 52 0 97 -12 103 -26 4 -12 -92 -187 -127 -229 -9 -11 -29
-42 -44 -68 -15 -27 -30 -47 -32 -44 -8 8 36 108 92 209 61 110 64 119 47 125
-6 2 -24 -15 -40 -39 -15 -24 -38 -56 -50 -71 -13 -16 -23 -40 -23 -53 0 -14
-4 -23 -9 -19 -5 3 -13 0 -17 -6 -3 -6 -2 -14 5 -18 7 -5 4 -23 -10 -61 -11
-30 -18 -62 -16 -72 3 -10 1 -18 -4 -18 -11 0 -41 -71 -34 -79 13 -13 44 22
99 113 32 53 60 95 62 93 2 -2 -3 -26 -11 -53 -17 -56 -18 -64 -7 -64 4 0 20
35 36 78 51 141 118 272 138 272 36 0 208 -53 207 -64 0 -6 -22 -45 -49 -86
-27 -41 -66 -103 -86 -137 -21 -34 -39 -61 -41 -59 -2 2 24 60 57 130 33 70
60 134 60 141 0 23 -24 7 -44 -28 -52 -90 -196 -315 -196 -305 0 19 77 203
111 264 38 70 48 104 30 104 -11 0 -91 -108 -91 -122 0 -5 -11 -26 -25 -46
-14 -20 -25 -46 -25 -58 0 -12 -7 -28 -16 -35 -9 -8 -28 -31 -41 -53 -17 -27
-27 -35 -33 -26 -8 13 -34 -50 -44 -108 -10 -58 16 -32 69 71 28 53 53 99 57
102 3 3 -12 -45 -32 -106 -21 -64 -45 -118 -56 -126 -13 -10 -32 -12 -56 -9
-29 5 -38 3 -38 -8 0 -7 -6 -18 -13 -24 -10 -8 -21 0 -48 36 -19 26 -41 63
-49 82 -7 19 -22 48 -33 63 -19 28 -19 28 2 51 11 12 21 26 21 31 0 14 51 97
57 92 2 -3 -4 -34 -15 -69 -11 -34 -23 -82 -27 -105 -6 -36 -4 -43 9 -43 9 0
19 8 23 18 3 9 16 40 29 69 13 28 24 55 24 58 0 4 9 18 20 32 11 14 20 32 20
39 0 20 -28 6 -36 -18 -3 -11 -8 -17 -11 -14 -7 7 25 99 64 185 23 50 31 77
24 84 -14 14 -37 -7 -60 -52 -29 -58 -90 -155 -111 -176 -28 -27 -25 -5 5 55
14 27 25 61 25 76 0 27 36 65 114 121 35 25 42 27 51 13z m565 -145 c10 -6
-48 -112 -66 -119 -9 -3 -6 15 9 54 11 33 17 63 13 67 -9 9 -62 -50 -107 -120
-18 -26 -34 -46 -36 -43 -5 4 51 178 63 197 4 7 100 -21 124 -36z m-770 -7 c0
-7 -9 -35 -19 -63 -11 -27 -25 -72 -32 -99 l-13 -49 -12 29 c-31 76 -37 107
-23 118 8 7 19 20 25 31 10 18 49 45 67 45 4 0 7 -6 7 -12z m900 -46 c41 -16
90 -36 108 -42 40 -16 41 -25 0 -39 -31 -11 -47 -3 -48 22 0 4 -7 7 -16 7 -11
0 -14 -8 -12 -27 3 -24 -3 -28 -72 -55 -41 -16 -93 -38 -115 -48 -22 -10 -53
-22 -69 -26 l-29 -7 19 34 c34 62 44 70 62 53 21 -22 37 -3 38 46 0 45 33 123
48 117 6 -3 45 -18 86 -35z m-1496 22 c23 -9 20 -22 -18 -105 l-35 -74 0 55
c-1 60 15 130 29 130 4 0 15 -3 24 -6z m140 -59 c20 -30 41 -57 46 -60 6 -3
10 -10 10 -15 0 -11 -204 -150 -220 -150 -6 0 -8 11 -4 28 12 44 112 252 122
252 6 0 26 -25 46 -55z m266 -17 c0 -16 -50 -88 -62 -88 -11 0 -27 41 -21 56
4 10 59 42 76 43 4 1 7 -4 7 -11z m-933 -54 c-6 -6 -42 -27 -79 -47 l-68 -37
0 64 c0 34 2 65 5 68 3 3 39 -4 80 -16 56 -16 72 -23 62 -32z m1647 -25 c-9
-24 -19 -61 -21 -82 -5 -34 -3 -38 13 -35 11 2 38 32 61 68 l43 65 -4 -60 c-3
-59 -3 -60 -42 -76 -73 -29 -136 -61 -131 -66 7 -7 148 43 220 78 33 16 62 27
64 25 4 -3 -63 -46 -72 -46 -3 0 -73 -33 -157 -74 -84 -41 -175 -84 -203 -96
-27 -12 -62 -28 -76 -35 -16 -9 -31 -10 -40 -5 -18 12 -3 27 42 44 49 17 162
77 157 82 -3 2 -19 -1 -37 -7 -18 -6 -35 -9 -38 -6 -7 8 74 172 93 188 22 18
26 6 9 -28 -24 -48 -30 -93 -13 -93 14 0 87 102 105 146 11 26 36 64 41 60 1
-2 -5 -23 -14 -47z m-649 -30 c4 -12 22 -48 41 -79 35 -60 62 -122 46 -105 -6
6 -37 45 -71 88 -34 42 -68 77 -76 77 -36 0 0 39 37 40 9 0 20 -10 23 -21z
m-252 4 c3 -5 8 -22 11 -39 7 -30 6 -31 -66 -61 -86 -36 -181 -66 -174 -54 3
5 44 34 90 66 47 31 93 66 102 76 18 20 30 24 37 12z"/>
<path d="M3097 720 c-13 -19 -13 -25 0 -51 26 -51 48 -35 56 41 3 33 -35 40
-56 10z"/>
<path d="M740 970 c-9 -7 -56 -10 -115 -8 l-100 3 3 -40 c6 -89 1 -250 -9
-260 -5 -4 -162 35 -228 56 -41 14 -73 0 -91 -40 -7 -14 -15 -79 -18 -143 -6
-140 -1 -146 79 -95 71 45 209 115 234 119 19 3 20 -3 20 -171 0 -125 3 -175
12 -178 18 -6 30 25 37 96 4 36 14 77 21 91 8 15 22 57 31 94 25 99 32 105
142 115 51 5 98 13 104 19 22 22 -5 32 -93 32 -71 0 -91 3 -95 15 -8 20 61
179 98 228 16 21 28 45 26 55 -4 20 -37 27 -58 12z m-40 -80 c0 -6 -12 -34
-26 -63 -15 -29 -35 -74 -44 -102 -12 -36 -22 -50 -35 -50 -17 0 -18 7 -15 65
6 112 8 155 9 158 3 8 111 0 111 -8z m-337 -252 c48 -13 87 -25 87 -28 0 -4
-176 -99 -203 -109 -11 -4 -4 109 8 142 9 21 3 21 108 -5z"/>
</g>
</svg>
