<?xml version="1.0" standalone="no"?>
<!DOCTYPE svg PUBLIC "-//W3C//DTD SVG 20010904//EN"
 "http://www.w3.org/TR/2001/REC-SVG-20010904/DTD/svg10.dtd">
<svg version="1.0" xmlns="http://www.w3.org/2000/svg"
 width="146.000000pt" height="76.000000pt" viewBox="0 0 146.000000 76.000000"
 preserveAspectRatio="xMidYMid meet">
<metadata>
Created by potrace 1.16, written by Peter Selinger 2001-2019
</metadata>
<g transform="translate(0.000000,76.000000) scale(0.100000,-0.100000)"
fill="#000000" stroke="none">
<path d="M0 751 c0 -6 4 -12 10 -16 5 -3 7 -12 4 -19 -3 -8 -1 -17 5 -20 13
-8 147 19 221 44 l55 19 -147 0 c-86 1 -148 -3 -148 -8z"/>
<path d="M1360 734 c-54 -46 -74 -109 -50 -155 12 -22 46 -25 85 -7 14 6 27 9
30 6 13 -12 -19 -67 -59 -101 -71 -60 -85 -138 -31 -173 41 -27 66 -2 98 97
24 75 27 99 27 222 l0 137 -34 0 c-23 0 -45 -9 -66 -26z m75 -50 c-42 -64 -85
-84 -85 -40 0 30 43 66 77 66 25 0 25 0 8 -26z m-59 -299 c-16 -37 -36 -40
-36 -5 0 24 44 75 48 56 2 -8 -4 -31 -12 -51z"/>
<path d="M384 669 c-27 -28 -31 -29 -121 -29 -78 0 -95 -3 -100 -16 -12 -31
25 -44 120 -44 79 0 88 -2 85 -17 -3 -15 -14 -18 -58 -18 -30 0 -80 4 -110 8
-64 8 -91 -2 -74 -30 13 -22 55 -32 159 -38 45 -2 81 -9 83 -15 3 -8 -26 -9
-101 -4 -122 8 -157 2 -157 -26 0 -25 19 -30 150 -34 102 -3 118 -8 102 -33
-6 -10 -17 -10 -42 -3 -19 6 -69 10 -111 10 -81 0 -117 -15 -106 -44 5 -13 23
-16 94 -18 48 -1 103 -2 121 -1 17 0 32 -3 32 -7 0 -4 -44 -10 -97 -14 -54 -4
-103 -12 -110 -18 -21 -17 -16 -48 7 -48 21 0 27 -15 10 -25 -34 -21 32 -45
125 -45 34 0 66 -5 72 -11 13 -13 46 4 188 96 104 67 130 78 121 48 -4 -16
-10 -159 -7 -190 2 -18 34 -20 61 -4 18 12 83 19 280 29 140 7 265 13 277 13
39 -1 73 17 73 39 0 24 9 23 -203 20 l-167 -2 -46 37 c-25 21 -49 48 -54 60
-5 13 -22 38 -39 58 l-31 35 33 24 c39 30 200 133 265 169 26 15 48 34 50 43
5 26 -58 21 -99 -8 -19 -13 -65 -44 -104 -68 -38 -23 -94 -60 -124 -80 -78
-55 -83 -52 -74 35 13 118 10 181 -7 184 -27 5 -40 -13 -44 -58 -7 -80 -18
-149 -25 -149 -4 0 -27 24 -51 53 -73 85 -152 154 -186 160 -26 5 -36 1 -60
-24z m212 -216 c36 -41 65 -75 63 -77 -23 -16 -172 -107 -196 -120 -17 -9 -34
-12 -37 -8 -2 4 2 55 9 112 8 58 15 133 15 168 l0 63 39 -32 c22 -17 70 -65
107 -106z m221 -200 l44 -63 -43 0 c-24 0 -53 -3 -65 -6 -21 -6 -23 -3 -23 34
0 65 11 103 28 100 9 -2 35 -31 59 -65z m-477 -22 c0 -9 -93 -19 -124 -13 -9
2 -14 8 -11 13 8 12 135 12 135 0z"/>
</g>
</svg>
