<?xml version="1.0" standalone="no"?>
<!DOCTYPE svg PUBLIC "-//W3C//DTD SVG 20010904//EN"
 "http://www.w3.org/TR/2001/REC-SVG-20010904/DTD/svg10.dtd">
<svg version="1.0" xmlns="http://www.w3.org/2000/svg"
 width="206.000000pt" height="118.000000pt" viewBox="0 0 206.000000 118.000000"
 preserveAspectRatio="xMidYMid meet">
<metadata>
Created by potrace 1.16, written by Peter Selinger 2001-2019
</metadata>
<g transform="translate(0.000000,118.000000) scale(0.100000,-0.100000)"
fill="#000000" stroke="none">
<path d="M354 1095 c-10 -15 -43 -43 -73 -64 -60 -39 -71 -64 -31 -69 33 -5
95 -63 77 -74 -6 -4 -22 -8 -33 -8 -30 0 -52 -27 -30 -36 13 -5 16 -22 16 -95
0 -96 -3 -100 -51 -72 -46 28 -62 10 -75 -83 -7 -43 -15 -91 -19 -106 -9 -34
16 -48 43 -26 29 25 90 57 96 51 11 -11 -7 -148 -20 -156 -7 -4 -16 -29 -20
-55 -4 -34 -15 -55 -36 -75 -36 -33 -33 -59 7 -67 32 -7 108 -41 138 -62 16
-11 21 -10 38 11 10 13 19 36 19 52 0 51 123 283 172 324 36 30 34 31 115 -68
32 -39 80 -93 106 -119 26 -27 52 -60 57 -73 12 -32 45 -32 66 0 9 13 40 41
71 61 30 20 57 42 60 50 7 19 47 36 188 79 66 21 129 41 140 45 11 5 29 11 40
13 44 12 186 68 292 116 62 28 117 51 122 51 4 0 32 10 60 22 69 28 68 54 -4
82 -27 10 -79 32 -115 49 -69 31 -312 119 -395 142 -157 44 -279 105 -309 155
-27 46 -65 39 -91 -17 -19 -41 -46 -56 -60 -33 -12 19 -25 10 -25 -18 0 -30
-60 -139 -115 -207 -17 -22 -55 -75 -84 -117 -30 -43 -56 -78 -60 -78 -3 1
-19 20 -34 43 -15 23 -43 62 -62 87 -18 25 -34 50 -34 55 -1 6 -19 30 -41 52
-42 44 -41 41 -53 223 -3 44 -29 52 -53 15z m740 -85 c7 0 21 -9 32 -21 l19
-21 -60 7 c-76 9 -87 17 -73 56 l10 29 30 -25 c16 -14 35 -25 42 -25z m-724
-25 c0 -40 -9 -44 -35 -15 -15 16 -15 22 -5 35 22 27 40 18 40 -20z m649 -47
l74 -3 -68 -65 c-37 -36 -74 -71 -81 -78 -17 -17 -11 -28 45 -87 42 -44 43
-46 27 -70 -9 -13 -34 -35 -56 -47 -47 -27 -48 -48 -2 -60 32 -9 45 -39 22
-53 -16 -10 -80 43 -80 65 0 32 34 89 55 92 32 5 26 48 -10 68 -56 31 -46 112
22 175 48 45 45 74 -3 36 -15 -12 -31 -21 -37 -21 -6 0 -32 -24 -58 -52 -26
-29 -50 -50 -54 -46 -3 3 20 44 51 91 46 67 60 82 69 71 6 -9 36 -14 84 -16z
m284 -10 c15 -7 27 -17 27 -21 0 -16 -72 -79 -101 -89 -37 -13 -36 -24 4 -66
l32 -33 -25 -19 c-22 -17 -25 -17 -37 -2 -7 10 -13 46 -13 84 0 61 3 71 30
101 35 40 36 44 13 50 -10 3 -4 5 13 6 16 0 42 -5 57 -11z m-124 -34 c-25 -28
-107 -84 -122 -84 -16 0 5 45 36 78 25 26 39 32 71 32 l39 0 -24 -26z m259
-13 c11 -6 7 -13 -15 -28 -30 -21 -88 -53 -98 -53 -15 0 -1 35 24 61 29 29 64
37 89 20z m86 -28 c7 -7 -62 -83 -76 -83 -4 0 -8 11 -8 24 0 35 63 80 84 59z
m-1184 -21 c0 -10 -7 -27 -15 -38 -14 -18 -14 -17 -15 12 0 17 3 34 7 37 12
13 23 7 23 -11z m78 -4 c18 -18 15 -35 -7 -41 -27 -7 -41 5 -34 31 6 24 23 28
41 10z m1375 -83 c42 -20 77 -43 77 -51 0 -8 -6 -14 -12 -14 -7 0 -65 -23
-127 -50 -63 -28 -120 -50 -127 -50 -27 0 -34 99 -9 120 22 18 18 30 -10 30
-29 0 -31 13 -10 64 l15 36 63 -24 c34 -13 97 -41 140 -61z m-653 43 c0 -16
-3 -19 -11 -11 -6 6 -8 16 -5 22 11 17 16 13 16 -11z m260 -18 c0 -11 -4 -20
-9 -20 -11 0 -22 26 -14 34 12 12 23 5 23 -14z m125 1 c-3 -6 -11 -11 -17 -11
-6 0 -6 6 2 15 14 17 26 13 15 -4z m-710 -51 c7 -8 15 -24 17 -35 1 -10 14
-22 27 -25 22 -5 20 -8 -30 -46 -30 -22 -62 -43 -71 -47 -31 -11 -19 -34 27
-52 25 -9 50 -25 55 -35 6 -11 17 -16 29 -13 10 3 37 -7 61 -22 41 -26 42 -26
62 -8 11 10 24 29 29 42 8 18 14 22 32 16 12 -4 33 -9 47 -10 14 -1 32 -5 40
-8 8 -3 36 -8 63 -12 37 -5 47 -3 47 8 0 8 -14 20 -30 27 -30 12 -55 42 -44
53 10 10 45 -6 62 -28 10 -13 27 -24 37 -26 49 -10 20 -30 -102 -69 -136 -45
-178 -49 -266 -30 -64 15 -87 9 -87 -21 0 -22 0 -22 -20 -4 -12 10 -30 35 -42
54 -12 20 -39 55 -60 78 -21 24 -38 51 -38 61 0 10 15 40 33 67 17 27 37 56
42 64 6 9 21 32 35 51 25 35 25 35 28 10 2 -14 10 -32 17 -40z m297 -3 c15
-15 42 -30 59 -34 l32 -6 -39 -34 c-21 -18 -53 -36 -71 -39 -32 -6 -44 -26
-23 -39 5 -3 15 -15 21 -27 10 -18 8 -19 -13 -13 -46 14 -53 30 -30 67 12 18
30 39 41 46 28 16 29 62 1 62 -20 0 -40 27 -40 56 0 19 12 11 62 -39z m-744
-29 c-6 -55 -11 -63 -33 -55 -19 8 -19 50 0 88 22 42 38 26 33 -33z m52 47 c0
-8 -4 -15 -10 -15 -5 0 -10 7 -10 15 0 8 5 15 10 15 6 0 10 -7 10 -15z m127
-89 c7 -12 13 -29 13 -38 0 -20 -15 -24 -25 -8 -3 6 -16 10 -28 10 -12 0 -33
6 -47 13 -28 14 -29 37 -4 96 l14 34 33 -43 c17 -24 38 -52 44 -64z m803 79
c7 -9 8 -15 2 -15 -5 0 -12 7 -16 15 -3 8 -4 15 -2 15 2 0 9 -7 16 -15z m160
-25 c0 -5 -16 -22 -35 -37 -19 -15 -35 -34 -35 -41 0 -7 21 -22 47 -35 26 -12
46 -26 44 -32 -3 -11 -90 -39 -97 -32 -3 2 -5 29 -6 59 -1 47 3 60 28 91 27
35 54 48 54 27z m-206 -25 c0 -11 -94 -85 -106 -85 -19 0 -5 26 33 62 37 36
75 47 73 23z m66 -20 c0 -2 -10 -10 -22 -16 -21 -11 -22 -11 -9 4 13 16 31 23
31 12z m166 -32 c-3 -3 -13 -2 -23 1 -17 7 -17 8 2 22 18 13 20 13 23 -1 2 -9
1 -19 -2 -22z m-1276 -23 c22 -14 -6 -60 -38 -60 -20 0 -23 4 -18 23 3 12 6
28 6 35 0 14 29 16 50 2z m603 -30 c-3 -11 -12 -20 -19 -20 -17 0 -18 12 -2
28 18 18 27 15 21 -8z m483 -16 c36 -38 42 -54 20 -54 -15 0 -76 64 -76 80 0
20 24 9 56 -26z m-829 0 l42 -7 -36 -43 c-32 -40 -121 -114 -137 -114 -10 0
-7 59 6 123 l12 59 36 -6 c19 -3 54 -9 77 -12z m-167 -69 c-5 -33 -10 -79 -10
-101 0 -24 -6 -47 -14 -53 -21 -17 -30 34 -20 112 4 34 7 66 5 71 -3 14 32 47
41 38 4 -4 3 -35 -2 -67z m98 -117 c-2 -7 -25 -55 -51 -106 l-47 -92 -40 20
c-22 11 -40 23 -40 26 0 9 162 164 172 164 5 0 8 -6 6 -12z m487 -25 c16 -16
16 -17 -1 -30 -24 -18 -31 -16 -44 7 -20 38 14 55 45 23z m-646 -49 c-16 -20
-28 -17 -22 5 3 12 11 17 19 14 11 -4 12 -9 3 -19z"/>
<path d="M1386 48 c-24 -33 -20 -48 12 -48 25 0 28 4 30 35 3 41 -18 48 -42
13z"/>
<path d="M1470 10 c-28 -6 -21 -8 38 -9 42 0 72 3 72 9 0 11 -57 11 -110 0z"/>
</g>
</svg>
