<?xml version="1.0" standalone="no"?>
<!DOCTYPE svg PUBLIC "-//W3C//DTD SVG 20010904//EN"
 "http://www.w3.org/TR/2001/REC-SVG-20010904/DTD/svg10.dtd">
<svg version="1.0" xmlns="http://www.w3.org/2000/svg"
 width="266.000000pt" height="122.000000pt" viewBox="0 0 266.000000 122.000000"
 preserveAspectRatio="xMidYMid meet">
<metadata>
Created by potrace 1.16, written by Peter Selinger 2001-2019
</metadata>
<g transform="translate(0.000000,122.000000) scale(0.100000,-0.100000)"
fill="#000000" stroke="none">
<path d="M1901 1174 c-42 -61 -39 -80 9 -54 20 10 60 70 60 89 0 28 -41 8 -69
-35z"/>
<path d="M1645 1068 c-33 -33 -80 -74 -105 -90 -25 -17 -87 -64 -137 -105 -51
-41 -96 -72 -101 -69 -5 3 -52 10 -103 16 -107 11 -308 57 -450 102 -53 17
-103 29 -110 26 -17 -7 -53 -159 -45 -191 17 -71 -21 -82 -141 -42 -76 25
-116 48 -170 98 -27 25 -35 28 -48 17 -8 -7 -15 -27 -15 -44 0 -18 -5 -37 -10
-42 -6 -6 -13 -43 -15 -81 -2 -39 -12 -89 -21 -112 -31 -77 5 -120 56 -66 13
14 27 25 30 25 7 0 147 76 199 108 13 8 47 14 75 14 96 1 90 6 81 -64 -4 -35
-11 -103 -16 -153 -5 -49 -12 -107 -15 -127 -5 -33 -4 -38 13 -38 11 0 34 18
51 39 33 40 173 123 232 136 l30 7 -6 -85 c-8 -95 -1 -137 21 -137 11 0 15 12
15 47 0 32 6 53 19 67 11 12 23 41 28 65 6 35 15 48 39 62 17 9 42 17 55 17
13 0 49 4 79 10 62 11 68 10 80 -24 6 -16 17 -24 33 -24 18 0 35 -16 68 -63
57 -83 153 -190 183 -207 23 -12 27 -10 59 24 19 20 39 36 46 36 6 0 30 14 53
30 22 17 46 30 53 30 6 0 35 11 63 25 29 14 55 25 59 25 5 1 26 9 48 20 22 11
44 19 48 20 5 0 76 34 158 75 83 41 156 75 163 75 7 0 38 13 67 29 30 16 74
35 97 42 47 14 57 43 20 55 -13 4 -29 15 -36 25 -7 11 -18 19 -24 19 -12 0
-108 60 -188 117 -32 23 -78 52 -102 64 -78 40 -347 224 -353 242 -11 32 -49
17 -110 -45z m170 -69 c22 -11 63 -38 90 -59 28 -21 88 -57 135 -80 94 -45
201 -127 145 -111 -71 21 -196 81 -269 129 -43 29 -82 52 -87 52 -6 0 -88 47
-118 67 -2 2 1 15 8 29 11 25 13 25 34 10 12 -8 40 -25 62 -37z m-178 -89 c9
0 25 7 35 16 16 16 23 15 95 -17 43 -18 103 -47 133 -64 71 -39 253 -126 325
-155 11 -5 49 -22 84 -38 l63 -29 -53 -27 c-30 -14 -85 -36 -124 -49 -38 -14
-128 -45 -200 -70 -143 -50 -314 -101 -320 -95 -2 2 -1 37 2 77 5 58 11 79 30
99 12 14 23 33 23 44 0 24 37 38 103 38 58 1 164 23 180 39 24 24 -7 33 -112
31 -58 -2 -109 -2 -114 -1 -10 1 20 59 49 94 19 22 22 33 14 47 -9 16 -21 18
-112 16 -89 -2 -103 -5 -106 -20 -2 -10 4 -23 13 -30 12 -8 16 -24 13 -56 -4
-55 -20 -60 -88 -31 -107 46 -135 24 -142 -112 -6 -116 4 -125 73 -63 45 41
121 77 134 64 8 -8 -12 -211 -23 -240 -10 -25 -17 -28 -56 -28 -46 0 -56 -10
-56 -53 0 -19 -4 -17 -30 13 -17 19 -42 55 -57 80 -15 25 -44 65 -66 89 l-40
44 6 71 c4 40 15 100 26 134 21 70 66 117 199 208 l77 53 3 -39 c2 -29 8 -40
19 -40z m-872 -54 c39 -14 82 -26 97 -26 32 0 58 -9 58 -20 0 -4 -30 -13 -67
-20 -38 -6 -95 -20 -127 -31 -64 -21 -81 -14 -71 26 2 11 5 40 5 64 0 49 -9
48 105 7z m985 -67 c0 -18 -32 -79 -41 -79 -8 0 -6 22 8 73 5 18 33 24 33 6z
m-535 -27 l49 -7 -39 -32 c-22 -18 -55 -40 -75 -49 -65 -31 -90 -64 -47 -64
23 0 86 -55 75 -65 -3 -3 -34 -2 -69 2 -73 10 -75 16 -37 89 34 66 24 75 -78
72 -69 -2 -89 -7 -98 -20 -8 -13 -6 -21 7 -36 9 -10 17 -35 17 -55 0 -36 -1
-37 -37 -37 -57 0 -166 30 -190 53 -13 11 -23 31 -23 44 0 33 31 48 150 73 58
12 121 25 140 30 43 10 187 11 255 2z m-894 -56 c20 -14 48 -28 63 -32 14 -3
28 -9 30 -13 4 -5 -119 -76 -156 -90 -6 -2 -8 13 -4 40 4 24 9 61 12 82 3 20
9 37 13 37 3 0 23 -11 42 -24z m943 -48 c-4 -29 -8 -55 -10 -57 -6 -7 -54 41
-54 53 0 9 57 56 68 56 1 0 0 -24 -4 -52z m268 11 c20 -11 20 -11 -2 -26 -25
-17 -47 -5 -37 21 7 19 12 19 39 5z m-532 -53 c0 -18 -7 -39 -15 -46 -13 -11
-15 -7 -15 27 0 22 3 43 7 46 14 15 23 5 23 -27z m-247 -90 c85 -22 117 -36
84 -36 -9 0 -22 -9 -29 -21 -7 -11 -31 -30 -53 -41 -22 -11 -54 -31 -72 -44
-17 -13 -34 -24 -37 -24 -8 0 -7 105 0 153 4 20 9 37 13 37 3 -1 45 -11 94
-24z m1032 -175 c-11 -10 -111 -66 -167 -93 -55 -27 -68 -24 -68 16 0 30 3 34
33 39 17 4 64 15 102 26 76 22 115 26 100 12z"/>
<path d="M2631 858 c-13 -16 -44 -77 -68 -136 -25 -59 -51 -110 -58 -114 -7
-4 -33 -55 -59 -113 -49 -111 -59 -169 -29 -163 11 2 26 32 45 87 15 47 39 97
53 111 14 14 25 33 25 41 0 9 27 70 61 137 41 83 59 131 57 150 l-3 29 -24
-29z"/>
<path d="M2646 715 c-5 -11 -20 -49 -33 -85 -23 -61 -64 -154 -120 -280 -37
-81 -43 -107 -29 -119 19 -16 40 6 60 61 10 26 28 62 40 81 21 30 28 56 39
132 2 11 11 37 20 58 27 63 39 110 35 142 -4 26 -5 28 -12 10z"/>
<path d="M2637 422 c-10 -26 -25 -63 -34 -82 -25 -56 -31 -86 -22 -101 7 -11
12 -12 28 -2 11 7 27 10 36 7 13 -5 15 10 15 110 0 64 -1 116 -2 116 -2 0 -11
-21 -21 -48z"/>
</g>
</svg>
