<?xml version="1.0" standalone="no"?>
<!DOCTYPE svg PUBLIC "-//W3C//DTD SVG 20010904//EN"
 "http://www.w3.org/TR/2001/REC-SVG-20010904/DTD/svg10.dtd">
<svg version="1.0" xmlns="http://www.w3.org/2000/svg"
 width="484.000000pt" height="192.000000pt" viewBox="0 0 484.000000 192.000000"
 preserveAspectRatio="xMidYMid meet">
<metadata>
Created by potrace 1.16, written by Peter Selinger 2001-2019
</metadata>
<g transform="translate(0.000000,192.000000) scale(0.100000,-0.100000)"
fill="#000000" stroke="none">
<path d="M2475 1910 c-11 -18 26 -23 43 -6 15 15 14 16 -10 16 -15 0 -30 -5
-33 -10z"/>
<path d="M4467 1913 c-4 -3 -7 -15 -7 -25 0 -27 40 -20 51 10 7 19 5 22 -15
22 -12 0 -26 -3 -29 -7z"/>
<path d="M3494 1889 c-10 -17 13 -36 27 -22 12 12 4 33 -11 33 -5 0 -12 -5
-16 -11z"/>
<path d="M3930 1770 c0 -5 7 -10 15 -10 8 0 15 5 15 10 0 6 -7 10 -15 10 -8 0
-15 -4 -15 -10z"/>
<path d="M3560 1736 c0 -9 7 -16 16 -16 17 0 14 22 -4 28 -7 2 -12 -3 -12 -12z"/>
<path d="M4255 1650 c-3 -5 -24 -19 -46 -31 -22 -11 -57 -37 -77 -57 -52 -53
-196 -162 -213 -162 -8 0 -22 -12 -31 -28 -16 -27 -43 -40 -125 -62 -36 -9
-43 -15 -43 -35 0 -19 -10 -30 -42 -46 -50 -25 -93 -54 -130 -88 -26 -23 -32
-24 -105 -17 -43 4 -114 8 -158 10 -44 2 -113 12 -153 22 -67 16 -74 16 -89 1
-14 -14 -14 -24 -5 -73 16 -75 15 -139 0 -151 -14 -10 -379 -102 -484 -122
-100 -18 -109 -16 -144 33 -34 50 -37 80 -15 153 18 60 47 92 69 74 23 -19 60
-10 64 16 2 17 -3 24 -21 28 -19 5 -27 16 -31 40 -4 22 -18 42 -36 55 -27 19
-29 24 -18 43 7 12 20 45 28 72 13 41 22 53 53 68 37 17 53 57 23 57 -26 0
-81 -28 -104 -53 -13 -14 -46 -35 -73 -47 -28 -11 -52 -27 -55 -35 -3 -8 6
-36 19 -64 14 -27 23 -52 20 -55 -3 -3 -3 -12 1 -21 4 -12 10 -14 26 -5 22 12
55 -3 65 -29 8 -21 -10 -28 -75 -29 -98 -1 -133 49 -112 161 12 65 31 91 100
139 45 31 55 58 21 58 -19 0 -43 -17 -145 -102 -24 -20 -64 -46 -89 -57 -25
-11 -45 -25 -45 -31 0 -24 30 -67 80 -114 35 -33 48 -52 41 -59 -7 -7 -14 -7
-23 1 -7 5 -26 12 -43 14 -24 2 -35 12 -58 57 -24 46 -28 61 -22 102 7 50 39
92 97 127 29 17 42 38 32 53 -9 16 -30 10 -54 -16 -13 -14 -34 -25 -46 -25
-26 0 -54 -24 -54 -46 0 -8 -22 -29 -50 -46 -27 -17 -50 -36 -49 -42 0 -10 30
-53 92 -130 31 -38 29 -63 -3 -46 -11 6 -30 8 -42 5 -20 -5 -27 2 -51 52 -44
92 -35 149 29 195 47 34 61 56 40 64 -17 7 -126 -64 -126 -81 0 -15 -39 -42
-74 -51 -14 -3 -30 -12 -37 -20 -15 -18 8 -46 68 -80 40 -24 80 -70 69 -81 -2
-3 -62 -5 -133 -4 l-128 1 -32 38 c-34 39 -38 49 -24 70 6 10 18 8 57 -14 27
-14 58 -35 70 -45 24 -23 64 -25 64 -4 0 8 -9 23 -21 34 -17 16 -20 26 -14 67
10 76 22 96 75 134 27 19 48 42 47 50 -4 27 -38 23 -71 -8 -17 -17 -40 -32
-51 -34 -11 -1 -26 -18 -34 -36 -8 -17 -19 -32 -24 -32 -5 0 -23 -11 -39 -25
-16 -14 -34 -23 -39 -19 -15 9 2 87 23 111 20 22 17 43 -6 43 -7 0 -23 -12
-37 -26 -22 -24 -155 -116 -206 -143 -36 -18 -29 -41 12 -41 19 0 35 -4 35 -8
0 -5 15 -15 33 -24 38 -18 97 -66 97 -79 0 -13 -114 -10 -181 4 -60 13 -126
51 -135 80 -6 19 -26 22 -53 8 -15 -8 -17 -22 -14 -103 5 -135 5 -161 1 -182
-2 -10 5 -23 15 -30 14 -9 21 -6 40 16 12 15 58 47 103 70 44 24 91 50 105 59
30 21 132 34 126 16 -4 -12 -97 -82 -159 -120 -21 -12 -38 -30 -38 -39 0 -20
47 -57 111 -86 26 -11 61 -40 83 -66 38 -47 54 -54 73 -35 8 8 0 27 -33 71
-47 64 -51 86 -33 153 6 22 12 50 14 62 4 37 43 60 113 67 36 4 67 4 70 1 9
-8 -90 -98 -141 -127 -26 -15 -47 -31 -47 -35 1 -13 64 -76 103 -103 20 -14
42 -35 49 -48 18 -34 43 -45 58 -26 15 17 2 51 -33 91 -12 13 -17 29 -13 39 6
15 8 15 29 0 12 -9 36 -23 52 -32 17 -10 47 -34 67 -55 39 -40 74 -50 84 -24
4 8 -10 29 -35 53 -39 37 -55 82 -30 82 6 0 31 -20 55 -44 31 -32 54 -46 83
-51 63 -11 87 17 31 36 -31 11 -34 17 -24 43 8 21 19 20 54 -6 21 -15 30 -30
30 -50 0 -28 22 -39 36 -17 3 6 18 9 32 6 57 -11 71 22 21 49 -28 14 -30 19
-23 47 4 18 8 57 8 89 1 31 5 60 9 65 8 8 159 33 166 27 5 -4 -119 -118 -140
-128 -36 -17 -19 -48 36 -68 46 -16 105 -65 105 -88 0 -10 -10 -13 -100 -29
-113 -20 -450 -59 -615 -71 -60 -4 -200 -7 -310 -5 -222 2 -277 12 -338 61
-34 26 -37 34 -37 77 0 29 7 61 18 79 16 28 16 30 0 39 -20 11 -25 73 -7 85 7
4 9 20 6 40 -4 23 0 40 12 56 10 13 42 67 72 122 48 88 91 142 160 200 21 18
21 20 4 32 -12 9 -24 10 -42 3 -36 -13 -83 -11 -137 7 -31 11 -59 14 -84 9
-95 -18 -309 -6 -348 19 -25 17 -60 21 -68 8 -3 -5 -6 -55 -7 -111 -1 -83 -5
-106 -19 -119 -10 -10 -20 -41 -24 -72 -7 -51 -15 -277 -15 -397 0 -43 -3 -53
-17 -53 -38 0 -151 23 -176 36 -36 18 -73 18 -88 -2 -10 -12 -11 -28 -3 -72
10 -53 9 -110 -2 -174 -3 -17 3 -35 15 -50 l20 -23 23 25 c13 14 45 40 72 59
28 19 64 46 80 61 17 15 46 32 65 39 19 7 48 20 63 28 19 10 42 13 75 9 27 -4
78 0 120 8 40 7 81 12 91 9 11 -3 30 3 44 12 24 15 26 15 31 -2 3 -10 8 -67
11 -128 10 -188 19 -235 45 -235 5 0 32 19 62 43 29 23 76 58 105 76 29 18 69
46 90 63 71 56 105 65 293 78 96 6 202 15 235 20 33 5 91 12 130 16 38 3 72 7
75 9 3 2 38 6 77 9 75 6 171 19 258 35 28 5 118 21 200 35 83 14 220 44 305
67 85 22 172 44 193 50 21 5 43 7 48 3 6 -3 19 2 29 11 10 9 33 20 52 25 55
13 248 89 321 126 73 36 121 43 131 19 3 -10 19 -15 46 -15 80 0 135 -35 207
-131 46 -60 108 -128 269 -294 39 -40 84 -89 99 -109 22 -28 34 -36 60 -36 37
0 47 16 39 59 -4 18 2 51 15 85 12 31 21 72 21 90 0 40 67 186 121 265 21 31
63 82 94 114 46 49 53 62 45 78 -6 10 -22 21 -35 24 -14 3 -36 7 -49 10 -28 6
-95 69 -132 125 -27 40 -32 68 -52 265 -7 66 -8 70 -34 73 -14 2 -29 -2 -33
-8z m16 -141 c20 -87 9 -98 -43 -39 -37 42 -45 64 -30 86 9 14 46 34 52 28 2
-3 12 -36 21 -75z m-107 -64 c21 -25 43 -45 50 -45 6 0 30 -18 51 -40 23 -23
33 -40 25 -40 -41 2 -119 28 -150 51 -41 31 -94 44 -108 26 -11 -13 -8 -222 3
-250 4 -9 2 -24 -5 -32 -9 -11 -11 -52 -7 -158 7 -165 0 -188 -39 -142 -15 17
-39 45 -55 62 -16 18 -29 35 -29 39 0 4 -25 36 -56 71 -43 48 -54 67 -45 76 8
8 14 8 23 -1 25 -25 38 -13 38 33 0 25 10 68 24 99 13 29 27 71 30 93 4 21 17
51 29 67 25 31 156 134 173 135 7 1 28 -19 48 -44z m-3443 -6 c33 0 59 -3 59
-8 0 -4 -19 -16 -41 -27 -23 -10 -57 -31 -76 -46 -20 -15 -40 -25 -45 -22 -7
4 -6 76 1 112 1 2 11 0 22 -3 12 -4 48 -7 80 -6z m199 -23 c0 -13 2 -30 5 -38
10 -28 -12 -37 -113 -44 -71 -4 -102 -3 -102 5 0 12 42 35 82 45 15 3 35 17
44 31 12 19 25 25 50 25 29 0 34 -3 34 -24z m148 7 c54 -7 61 -23 29 -65 -14
-18 -40 -62 -58 -98 -39 -79 -38 -78 -49 -60 -13 20 -12 117 0 125 7 4 7 11 2
18 -12 16 -22 83 -14 92 4 3 16 3 27 0 11 -3 40 -9 63 -12z m3065 -108 c15
-13 27 -26 27 -29 0 -7 -56 -36 -68 -36 -5 0 -9 20 -10 45 0 52 10 56 51 20z
m-2583 -4 c0 -37 -13 -81 -24 -81 -6 1 -24 12 -41 26 -25 20 -27 26 -15 34 8
5 24 16 35 24 27 21 45 20 45 -3z m848 -8 c-2 -17 -9 -28 -18 -28 -19 0 -26
35 -8 46 23 15 29 10 26 -18z m-384 -14 c-3 -5 -10 -7 -15 -3 -5 3 -7 10 -3
15 3 5 10 7 15 3 5 -3 7 -10 3 -15z m180 3 c-1 -7 -2 -21 -2 -32 -3 -32 -32
-24 -32 8 0 16 3 32 7 36 10 9 28 1 27 -12z m-1464 0 c0 -4 -14 -13 -31 -21
-17 -7 -51 -31 -75 -52 -48 -42 -64 -48 -64 -24 0 19 58 85 84 95 27 11 86 12
86 2z m200 -45 c4 -26 4 -50 1 -52 -2 -3 -62 -5 -133 -5 -118 0 -129 2 -126
18 2 11 25 24 68 39 36 12 79 28 95 37 17 9 44 15 60 14 28 -3 30 -6 35 -51z
m765 14 c-7 -23 -22 -26 -45 -11 -13 9 -11 13 9 31 28 23 47 13 36 -20z m2165
19 c0 -24 -26 -90 -35 -90 -7 0 -35 64 -35 79 0 8 41 28 63 30 4 1 7 -8 7 -19z
m-1997 -26 c-3 -8 -12 -14 -19 -14 -20 0 -30 30 -13 40 17 11 40 -7 32 -26z
m2432 21 c37 -6 105 -56 105 -77 0 -13 -52 -9 -69 6 -9 8 -47 17 -85 20 -37 3
-72 9 -77 12 -13 8 52 53 71 49 8 -2 33 -6 55 -10z m-142 -81 c3 -4 -1 -17
-10 -30 -19 -30 -63 -33 -63 -4 0 28 53 53 73 34z m-413 -29 c19 -23 3 -32
-67 -40 -76 -8 -82 4 -15 33 58 25 66 26 82 7z m594 -10 c7 -19 -1 -22 -91
-29 -57 -4 -73 -2 -73 9 0 32 152 50 164 20z m-3648 -17 c4 -6 2 -14 -5 -16
-6 -2 -35 -19 -62 -38 -28 -19 -53 -34 -55 -34 -12 0 -2 66 13 82 19 21 97 25
109 6z m3832 -3 c2 -2 -15 -26 -39 -53 -24 -27 -57 -75 -74 -106 -31 -59 -42
-72 -52 -62 -11 10 29 170 46 183 15 12 15 14 -1 26 -10 8 -14 17 -10 22 7 7
121 -1 130 -10z m-3587 0 c3 -2 3 -20 1 -40 l-4 -35 -124 0 c-112 0 -146 7
-111 24 6 3 30 17 52 30 32 20 54 25 111 25 39 1 73 -1 75 -4z m324 -35 c3 -5
32 -14 65 -21 33 -6 60 -14 60 -18 0 -11 -134 -71 -141 -63 -4 4 -10 31 -14
60 -6 43 -4 52 8 52 9 0 18 -4 22 -10z m1959 -19 l71 -7 -55 -28 c-29 -16 -67
-38 -83 -49 -24 -18 -29 -19 -37 -7 -5 8 -10 37 -10 63 0 45 2 48 22 42 11 -4
53 -10 92 -14z m532 8 c11 -19 -13 -34 -31 -19 -13 11 -13 15 -3 21 18 12 26
11 34 -2z m384 -7 c0 -12 -49 -37 -56 -29 -4 3 -4 13 -1 22 7 15 57 22 57 7z
m200 -11 c0 -10 -5 -43 -10 -72 -6 -30 -12 -79 -15 -109 -6 -88 -3 -86 -112
-85 -74 0 -97 3 -101 14 -7 22 27 41 74 41 60 0 105 11 111 27 9 23 -3 26 -81
24 -42 -1 -77 2 -81 8 -12 20 57 51 113 51 39 0 54 4 59 16 10 26 -18 35 -84
29 -143 -13 -44 48 120 74 4 0 7 -7 7 -18z m-910 0 c0 -9 -171 -81 -193 -81
-21 1 35 37 74 49 20 6 40 18 43 26 6 16 76 22 76 6z m-1506 -10 c17 -2 -46
-60 -111 -102 -35 -23 -66 -39 -69 -36 -13 13 7 54 48 97 43 45 59 50 132 41z
m126 1 c0 -4 -26 -33 -58 -65 -56 -56 -91 -74 -78 -41 3 9 6 20 6 25 0 5 16
27 36 49 26 29 44 40 65 40 16 0 29 -4 29 -8z m130 -2 c0 -12 -86 -100 -98
-100 -17 0 6 74 29 93 23 18 69 23 69 7z m-1460 -50 c0 -5 -7 -10 -15 -10 -20
0 -61 -26 -101 -63 -21 -19 -34 -25 -39 -17 -9 14 13 71 33 88 19 14 122 16
122 2z m211 -2 c3 -5 3 -26 0 -46 l-6 -37 -133 -8 c-74 -5 -136 -6 -139 -3
-12 12 21 36 58 42 22 4 40 12 40 18 1 10 3 19 7 37 3 10 166 7 173 -3z m3182
-44 c-8 -20 -33 -17 -33 4 0 10 3 22 7 25 10 11 32 -13 26 -29z m-2077 -12
c-2 -10 -7 -29 -10 -44 -7 -32 -26 -36 -49 -10 -15 16 -14 20 14 50 31 33 54
34 45 4z m126 -54 c-5 -5 -18 -1 -33 12 l-24 20 30 27 30 27 3 -39 c2 -20 -1
-42 -6 -47z m-636 41 c-3 -17 -6 -40 -6 -50 0 -22 -27 -25 -52 -5 -25 18 -22
33 10 61 39 35 56 33 48 -6z m824 6 c0 -18 -5 -25 -20 -25 -22 0 -26 20 -8 38
19 19 28 14 28 -13z m-488 -35 c-5 -33 -22 -39 -43 -14 -11 14 -9 19 11 34 31
23 38 19 32 -20z m-162 -6 c0 -26 -17 -33 -26 -9 -8 20 3 48 16 40 5 -3 10
-17 10 -31z m-764 -28 c3 -7 1 -29 -3 -47 -9 -32 -13 -34 -59 -40 -27 -4 -78
-13 -114 -21 -110 -25 -173 0 -97 38 17 9 42 27 54 40 18 20 33 24 80 25 32 1
69 5 83 9 38 12 50 11 56 -4z m-311 -51 c-28 -24 -56 -44 -62 -45 -20 0 -15
34 8 64 16 21 29 26 62 26 l41 0 -49 -45z m3475 -70 c0 -8 -7 -15 -15 -15 -8
0 -15 7 -15 15 0 8 7 15 15 15 8 0 15 -7 15 -15z m188 -37 c-9 -70 -38 -158
-53 -158 -8 0 -23 13 -35 30 -11 16 -39 47 -60 68 -22 21 -40 43 -40 49 0 12
122 50 164 52 28 1 28 0 24 -41z m-3885 5 c40 -3 57 -9 57 -19 0 -8 -4 -14 -9
-14 -4 0 -38 -22 -75 -50 -37 -28 -71 -50 -76 -50 -7 0 -7 53 -1 144 1 4 11 5
24 1 12 -4 48 -10 80 -12z m650 -65 c28 -14 67 -23 120 -26 42 -2 77 -7 77
-11 -1 -6 -66 -51 -124 -84 -17 -10 -48 -32 -69 -48 -20 -17 -41 -27 -47 -24
-5 3 -7 26 -5 51 3 25 0 65 -6 90 -10 40 -8 74 6 74 3 0 25 -10 48 -22z"/>
<path d="M4420 1450 c0 -5 5 -10 10 -10 6 0 10 5 10 10 0 6 -4 10 -10 10 -5 0
-10 -4 -10 -10z"/>
<path d="M2630 700 c0 -5 5 -10 10 -10 6 0 10 5 10 10 0 6 -4 10 -10 10 -5 0
-10 -4 -10 -10z"/>
<path d="M4778 653 c-6 -16 -29 -66 -50 -112 -21 -46 -38 -88 -38 -92 0 -18
38 -8 52 14 29 43 89 190 84 204 -9 22 -36 14 -48 -14z"/>
<path d="M2130 535 c0 -9 5 -15 10 -13 12 4 11 16 -1 24 -5 3 -9 -2 -9 -11z"/>
</g>
</svg>
