<?xml version="1.0" standalone="no"?>
<!DOCTYPE svg PUBLIC "-//W3C//DTD SVG 20010904//EN"
 "http://www.w3.org/TR/2001/REC-SVG-20010904/DTD/svg10.dtd">
<svg version="1.0" xmlns="http://www.w3.org/2000/svg"
 width="190.000000pt" height="118.000000pt" viewBox="0 0 190.000000 118.000000"
 preserveAspectRatio="xMidYMid meet">
<metadata>
Created by potrace 1.16, written by Peter Selinger 2001-2019
</metadata>
<g transform="translate(0.000000,118.000000) scale(0.100000,-0.100000)"
fill="#000000" stroke="none">
<path d="M1151 1005 c-40 -40 -120 -106 -179 -147 l-107 -73 -160 0 c-197 0
-217 2 -335 33 -62 16 -104 32 -121 48 -14 13 -30 24 -37 24 -22 0 -35 -44
-38 -127 -1 -46 -5 -97 -9 -113 -10 -45 15 -47 74 -5 28 19 75 44 104 56 28
11 61 24 72 29 11 5 119 11 240 13 241 4 275 -2 275 -47 0 -30 9 -37 31 -25
39 21 13 -26 -58 -103 -27 -30 -41 -53 -37 -62 5 -14 -15 -16 -172 -18 -99 0
-186 0 -194 0 -8 1 -69 7 -135 13 -108 11 -122 14 -141 36 -31 36 -39 16 -40
-97 0 -52 -4 -119 -8 -147 -10 -66 6 -70 56 -15 19 20 65 61 103 90 39 28 79
59 90 68 11 8 31 13 45 11 14 -3 117 -2 230 2 l205 8 50 -45 c28 -24 65 -67
84 -96 48 -71 117 -136 146 -136 41 0 38 18 -9 47 -44 28 -116 108 -116 130 0
6 -5 13 -11 15 -5 2 -11 25 -13 52 -3 46 0 52 41 94 23 25 43 49 43 54 0 4 7
8 15 8 12 0 15 -13 15 -59 0 -33 7 -71 15 -87 30 -58 14 -58 -37 0 -44 50 -53
56 -59 40 -7 -22 15 -50 159 -203 50 -55 92 -106 92 -114 0 -16 24 -30 34 -20
21 21 1 58 -69 130 -47 49 -74 85 -73 98 1 11 -2 30 -6 42 -4 12 -3 24 1 26
12 8 34 -13 73 -67 51 -72 177 -199 189 -191 18 10 14 17 -50 84 -68 71 -98
127 -99 183 0 31 7 42 50 78 l50 42 0 -39 c0 -21 7 -63 15 -93 8 -30 15 -59
15 -63 0 -5 -23 12 -52 38 -36 32 -54 43 -62 35 -7 -7 4 -24 37 -58 60 -61
166 -191 180 -219 12 -27 32 -30 41 -7 7 17 5 20 -58 97 -30 37 -43 66 -57
128 l-19 79 40 42 c22 22 42 39 43 37 2 -2 8 -28 13 -57 9 -46 9 -52 -7 -52
-9 0 -22 7 -29 15 -12 15 -30 12 -30 -6 0 -5 19 -23 43 -40 23 -17 41 -37 39
-44 -4 -20 15 -27 38 -15 17 9 27 4 70 -36 58 -54 79 -51 50 7 -11 21 -25 39
-30 39 -16 0 -98 60 -105 77 -4 10 -9 58 -11 107 -2 48 -9 95 -15 102 -14 17
4 59 58 135 18 26 33 51 34 55 0 5 32 36 70 69 88 76 110 98 105 103 -9 9 -43
-10 -82 -46 -107 -98 -252 -212 -270 -212 -4 0 -16 -7 -26 -17 -10 -9 -21 -13
-24 -10 -11 10 26 58 85 112 30 27 75 69 100 93 25 23 49 42 53 42 5 0 8 7 8
15 0 39 -52 0 -243 -185 -87 -83 -102 -94 -122 -86 -11 4 -10 13 7 48 11 24
28 52 38 63 10 11 21 29 24 40 4 11 36 40 72 65 96 66 114 80 114 91 0 17 -31
9 -68 -18 -36 -27 -61 -47 -158 -129 -93 -78 -144 -114 -164 -114 -19 0 -20 2
-6 28 24 45 175 193 233 228 10 6 20 19 21 28 3 16 1 16 -25 2 -15 -8 -39 -25
-53 -38 -14 -13 -54 -48 -90 -78 -35 -30 -78 -67 -95 -82 -16 -15 -57 -42 -90
-60 -33 -17 -63 -36 -67 -42 -4 -6 -10 -7 -14 -4 -8 9 53 120 72 131 8 4 14
14 14 21 0 14 146 156 161 156 14 0 10 27 -5 33 -9 3 -42 -23 -85 -68z m-153
-187 c-17 -25 -63 -39 -56 -16 4 13 44 38 62 38 5 0 2 -10 -6 -22z m-718 -23
c23 -8 53 -15 66 -15 29 0 41 -18 17 -27 -15 -5 -113 -49 -135 -61 -5 -2 -8
24 -8 57 0 34 4 61 9 61 5 0 28 -7 51 -15z m856 -31 c-3 -9 -6 -18 -6 -20 0
-2 -7 -4 -15 -4 -18 0 -20 26 -2 33 23 10 29 7 23 -9z m149 -16 c-13 -33 -35
-43 -42 -21 -4 11 34 53 48 53 5 0 2 -15 -6 -32z m271 -34 c-17 -25 -36 -25
-36 1 0 18 44 49 48 35 2 -6 -3 -22 -12 -36z m-478 -14 c12 -11 19 -27 16 -35
-4 -8 -3 -23 0 -32 6 -15 10 -13 30 12 21 26 26 28 41 15 13 -11 21 -11 36 -2
17 11 21 9 29 -13 5 -14 16 -25 25 -25 27 0 16 -27 -27 -66 l-43 -39 -3 60
c-2 33 -7 64 -11 68 -5 5 -35 -19 -67 -52 -32 -34 -64 -61 -71 -61 -15 0 -26
51 -19 88 2 15 7 44 11 65 7 42 21 46 53 17z m132 -6 c0 -8 -5 -12 -10 -9 -6
4 -8 11 -5 16 9 14 15 11 15 -7z m253 -19 c23 6 28 3 37 -21 8 -20 8 -35 -1
-55 -6 -15 -8 -32 -5 -37 6 -10 -21 -52 -35 -52 -5 0 -9 25 -9 55 0 40 -4 55
-14 55 -18 0 -26 22 -19 50 4 14 8 17 13 10 4 -7 17 -9 33 -5z m-96 -45 c3
-16 9 -30 14 -30 5 0 9 -6 9 -12 0 -14 -69 -78 -84 -78 -5 0 -6 28 -3 65 5 54
4 66 -11 74 -13 8 -8 10 26 11 39 0 43 -2 49 -30z m-378 -131 c7 -33 10 -64 6
-67 -3 -3 -24 13 -47 36 l-42 42 28 29 c16 17 32 28 36 26 4 -3 13 -32 19 -66z
m290 -16 c16 -79 15 -81 -18 -45 -18 19 -36 30 -44 26 -29 -11 -26 13 5 44 16
18 34 32 38 32 4 0 12 -26 19 -57z m-909 -33 c0 -5 -12 -17 -27 -27 -16 -10
-39 -28 -53 -41 -33 -30 -58 -44 -63 -35 -3 5 -2 32 0 61 l6 52 68 0 c38 0 69
-4 69 -10z"/>
</g>
</svg>
