<?xml version="1.0" standalone="no"?>
<!DOCTYPE svg PUBLIC "-//W3C//DTD SVG 20010904//EN"
 "http://www.w3.org/TR/2001/REC-SVG-20010904/DTD/svg10.dtd">
<svg version="1.0" xmlns="http://www.w3.org/2000/svg"
 width="152.000000pt" height="100.000000pt" viewBox="0 0 152.000000 100.000000"
 preserveAspectRatio="xMidYMid meet">
<metadata>
Created by potrace 1.16, written by Peter Selinger 2001-2019
</metadata>
<g transform="translate(0.000000,100.000000) scale(0.100000,-0.100000)"
fill="#000000" stroke="none">
<path d="M1002 840 c-29 -27 -63 -55 -76 -62 -13 -7 -43 -26 -67 -42 -24 -16
-66 -33 -92 -37 -76 -12 -246 -12 -319 0 -74 12 -208 74 -208 95 0 17 -38 28
-47 13 -4 -6 -8 -20 -9 -31 -2 -12 -7 -43 -13 -71 -5 -27 -7 -69 -4 -92 3 -22
0 -64 -7 -93 -11 -45 -10 -53 5 -70 10 -11 14 -24 9 -31 -7 -12 -17 -156 -18
-274 -1 -40 2 -50 17 -53 13 -3 22 7 33 35 12 28 35 52 92 93 159 116 153 113
230 107 38 -2 91 -1 118 3 27 4 94 10 148 11 l100 4 8 -35 c16 -64 16 -64 41
-47 20 13 24 12 40 -9 15 -20 22 -22 38 -14 18 10 17 14 -21 70 -43 64 -49 98
-26 154 17 42 72 70 120 61 30 -6 34 -4 40 21 4 15 3 31 -3 37 -26 26 2 97 38
97 26 0 37 -18 44 -67 l5 -43 -80 -60 c-43 -33 -87 -60 -96 -60 -24 0 -64 -29
-57 -41 4 -5 14 -9 24 -9 10 0 30 -10 45 -21 22 -18 27 -28 24 -58 -3 -32 0
-36 21 -39 13 -2 32 -13 41 -25 18 -22 50 -18 46 5 -1 8 -12 31 -24 51 -12 21
-22 47 -22 57 0 16 5 18 29 14 16 -4 32 -1 35 5 19 31 76 -13 69 -53 -5 -24
-4 -25 41 -23 58 4 65 11 38 40 -21 23 -21 25 -7 75 9 28 15 54 14 59 -3 20 3
29 30 41 33 15 49 52 22 52 -15 0 -88 -44 -101 -60 -11 -13 -116 -87 -134 -94
-16 -5 -17 -2 -12 21 7 30 55 79 103 104 27 15 30 21 32 73 3 88 51 180 104
199 9 4 17 13 17 22 0 28 -44 16 -114 -32 -38 -27 -76 -52 -84 -58 -9 -5 -22
-16 -30 -22 -22 -21 -52 -16 -52 8 0 19 55 79 72 79 5 0 8 9 8 20 0 27 -21 25
-56 -5 -26 -23 -131 -94 -179 -121 -33 -18 -25 -47 15 -55 38 -8 60 -32 60
-65 0 -16 -12 -28 -42 -43 l-41 -20 -37 37 -37 37 11 58 c10 57 13 60 98 133
49 42 86 80 83 85 -13 19 -42 6 -93 -41z m268 -117 c0 -10 -4 -24 -9 -31 -6
-11 -11 -10 -25 3 -16 16 -16 18 1 31 24 18 33 17 33 -3z m-180 -24 c0 -28 -2
-30 -17 -18 -10 7 -20 15 -22 16 -6 4 20 33 30 33 5 0 9 -14 9 -31z m-730 -58
c0 -5 -81 -55 -112 -69 -9 -5 -21 102 -14 126 6 19 10 18 66 -16 33 -19 60
-38 60 -41z m510 24 c0 -29 -12 -32 -36 -8 -15 16 -15 17 2 24 30 12 34 10 34
-16z m-72 -50 c40 -28 52 -41 52 -61 0 -23 3 -26 27 -21 32 6 53 -1 53 -18 0
-11 -86 -55 -108 -55 -5 0 -15 -6 -21 -14 -10 -12 -7 -18 18 -31 17 -8 31 -19
31 -23 0 -9 -297 -15 -311 -6 -6 3 -47 8 -91 9 -67 3 -92 9 -142 34 -40 20
-69 29 -83 25 -42 -11 -24 14 50 69 112 84 145 98 266 108 58 5 113 11 121 13
51 12 88 4 138 -29z m506 -179 c-5 -22 -9 -24 -27 -15 -20 11 -20 12 4 30 29
21 32 19 23 -15z m-374 20 c0 -16 -14 -36 -25 -36 -17 0 -28 17 -20 30 6 10
45 15 45 6z m180 -32 c0 -8 -5 -12 -10 -9 -6 4 -8 11 -5 16 9 14 15 11 15 -7z
m-842 -44 c17 -11 50 -23 72 -26 53 -9 58 -20 19 -42 -17 -9 -54 -34 -82 -54
-29 -22 -55 -34 -60 -29 -9 9 2 171 12 171 3 0 21 -9 39 -20z"/>
<path d="M1512 185 c0 -16 2 -22 5 -12 2 9 2 23 0 30 -3 6 -5 -1 -5 -18z"/>
</g>
</svg>
