<?xml version="1.0" standalone="no"?>
<!DOCTYPE svg PUBLIC "-//W3C//DTD SVG 20010904//EN"
 "http://www.w3.org/TR/2001/REC-SVG-20010904/DTD/svg10.dtd">
<svg version="1.0" xmlns="http://www.w3.org/2000/svg"
 width="238.000000pt" height="68.000000pt" viewBox="0 0 238.000000 68.000000"
 preserveAspectRatio="xMidYMid meet">
<metadata>
Created by potrace 1.16, written by Peter Selinger 2001-2019
</metadata>
<g transform="translate(0.000000,68.000000) scale(0.100000,-0.100000)"
fill="#000000" stroke="none">
<path d="M633 592 c-12 -2 -22 -10 -22 -20 0 -29 -19 -176 -30 -238 -6 -32
-12 -72 -13 -89 l-3 -30 -81 -2 c-45 -2 -128 3 -185 10 -98 12 -170 9 -186 -7
-16 -16 17 -41 63 -49 53 -8 511 -18 659 -15 50 1 135 2 190 3 96 0 100 -1
103 -22 4 -28 28 -30 37 -3 3 11 9 20 13 21 4 0 101 2 216 2 146 2 214 -2 225
-10 9 -6 20 -8 26 -4 21 17 70 19 87 4 14 -13 19 -13 40 0 17 10 48 13 118 10
130 -5 141 -4 155 7 6 5 14 8 17 5 2 -3 25 -9 50 -13 68 -13 78 -3 76 72 -1
35 3 76 9 92 6 16 16 58 23 94 6 36 21 84 32 108 24 51 18 75 -19 70 -21 -2
-27 -9 -29 -33 -1 -16 -11 -56 -23 -87 -12 -32 -29 -104 -38 -162 l-18 -104
-43 -6 c-24 -3 -48 -4 -52 -1 -12 7 -3 73 24 194 14 61 19 104 13 108 -20 12
-32 -31 -58 -207 -14 -90 -19 -100 -58 -100 -24 0 -24 0 -17 80 3 44 11 92 16
106 6 15 15 56 20 91 5 36 10 66 12 68 2 2 41 6 88 10 91 6 120 12 120 23 0 4
-232 8 -516 9 -284 0 -573 4 -643 8 -134 8 -361 12 -398 7z m158 -38 c14 -4
15 -9 4 -42 -7 -20 -20 -95 -29 -166 -9 -71 -18 -132 -22 -135 -3 -3 -33 -5
-67 -3 -60 3 -94 22 -81 44 9 14 34 178 34 220 0 70 13 83 83 85 34 1 69 0 78
-3z m214 -22 c-23 -60 -55 -240 -55 -314 0 -16 -10 -18 -74 -18 -47 0 -77 5
-84 13 -13 15 -3 137 11 137 5 0 7 9 4 21 -3 11 -1 49 5 82 6 34 12 71 13 82
2 11 4 20 4 20 1 0 42 -1 92 -3 80 -3 90 -5 84 -20z m156 -3 c-2 -8 -5 -27 -6
-44 -1 -16 -7 -59 -14 -95 -6 -36 -13 -92 -14 -125 l-2 -60 -68 -3 -68 -3 5
88 c6 109 15 171 27 179 5 3 9 17 9 31 0 36 25 50 84 48 38 -2 50 -6 47 -16z
m296 15 c31 -8 35 -27 22 -102 -7 -37 -17 -107 -23 -157 l-11 -90 -53 -3 c-42
-2 -54 0 -59 14 -6 17 9 162 29 263 11 58 -1 90 -20 54 -9 -17 -32 -143 -51
-282 l-6 -45 -55 0 -54 -1 -9 38 c-11 47 4 182 26 225 8 17 12 42 10 56 -5 24
-4 25 58 29 121 6 174 7 196 1z m175 -4 c39 0 43 -30 19 -127 -12 -45 -21
-108 -21 -141 0 -86 -1 -88 -68 -84 -31 2 -61 8 -66 12 -12 12 -14 59 -4 88 5
13 11 52 13 85 16 179 16 181 64 173 20 -3 48 -6 63 -6z m316 -5 c2 -2 -8 -64
-22 -137 -14 -73 -27 -149 -28 -168 -3 -35 -3 -35 -57 -38 -30 -2 -58 1 -62 5
-9 9 9 126 36 235 16 64 15 98 -2 98 -10 0 -47 -155 -64 -263 -6 -42 -15 -78
-18 -78 -45 -9 -61 -6 -66 10 -11 34 13 234 31 263 7 10 10 29 13 72 1 18 8
18 118 12 64 -4 119 -8 121 -11z"/>
</g>
</svg>
