<?xml version="1.0" standalone="no"?>
<!DOCTYPE svg PUBLIC "-//W3C//DTD SVG 20010904//EN"
 "http://www.w3.org/TR/2001/REC-SVG-20010904/DTD/svg10.dtd">
<svg version="1.0" xmlns="http://www.w3.org/2000/svg"
 width="156.000000pt" height="96.000000pt" viewBox="0 0 156.000000 96.000000"
 preserveAspectRatio="xMidYMid meet">
<metadata>
Created by potrace 1.16, written by Peter Selinger 2001-2019
</metadata>
<g transform="translate(0.000000,96.000000) scale(0.100000,-0.100000)"
fill="#000000" stroke="none">
<path d="M553 813 l-33 -15 5 -105 c3 -58 10 -113 15 -124 12 -22 31 -24 48
-7 9 9 12 -2 12 -52 0 -36 3 -89 6 -117 l7 -53 -34 0 c-19 0 -61 7 -94 16 -33
8 -86 21 -118 28 -33 7 -69 23 -85 38 -55 50 -72 18 -78 -146 -2 -49 1 -97 7
-108 17 -32 51 -21 96 31 58 68 128 100 208 96 73 -4 83 -15 69 -82 -12 -60
-8 -83 16 -83 22 0 29 17 37 94 5 62 23 89 49 79 9 -3 14 -20 14 -47 0 -50 12
-71 35 -62 14 5 16 14 11 47 -7 45 5 69 35 69 17 0 18 -7 14 -56 -4 -59 8
-109 25 -99 5 3 10 21 10 40 0 19 4 36 10 40 5 3 7 11 4 18 -2 7 3 22 13 33
16 17 32 19 157 19 84 0 140 -4 142 -10 1 -5 5 -36 9 -67 5 -48 10 -58 25 -58
29 0 34 18 36 118 1 58 7 98 14 108 10 11 10 18 2 26 -19 19 -14 43 19 105 32
59 37 66 124 152 38 38 47 53 38 62 -7 7 -22 9 -40 4 -15 -4 -66 -7 -113 -7
-343 4 -447 8 -465 18 -21 12 -149 44 -174 44 -8 0 -22 6 -30 14 -14 13 -20
13 -48 -1z m114 -74 c32 -12 64 -23 72 -25 14 -4 -114 -74 -136 -74 -9 0 -13
17 -13 60 0 33 4 60 9 60 5 0 35 -10 68 -21z m514 -56 c4 -4 1 -41 -6 -82 -8
-41 -13 -103 -10 -139 6 -101 0 -109 -87 -117 -40 -4 -98 -5 -128 -3 l-55 3
43 42 c23 23 42 47 42 53 0 7 -27 10 -75 8 -61 -2 -75 -6 -73 -18 2 -9 16 -16
35 -18 l32 -3 -16 -35 c-19 -38 -38 -40 -38 -4 0 31 -21 37 -30 8 -9 -27 -23
-38 -48 -38 -17 0 -17 3 5 43 12 23 40 61 60 84 57 64 54 68 -49 63 -29 -1
-53 2 -53 6 0 4 14 23 31 40 40 41 34 69 -11 59 -38 -8 -40 9 -2 23 15 6 36
14 47 18 22 9 276 23 339 18 21 -1 42 -6 47 -11z m143 8 c3 -4 -17 -36 -44
-70 l-50 -62 0 65 c0 42 4 66 13 69 21 9 76 8 81 -2z m-614 -108 c0 -9 -45
-53 -54 -53 -3 0 -6 9 -6 20 0 11 -4 20 -10 20 -5 0 -10 5 -10 10 0 6 18 10
40 10 22 0 40 -3 40 -7z m79 -89 c2 -2 -6 -17 -17 -35 -19 -31 -20 -31 -27
-10 -8 28 -42 24 -37 -4 2 -10 1 -38 -3 -62 -5 -34 -10 -43 -26 -43 -10 0 -19
6 -20 13 -2 30 4 83 11 92 4 6 10 22 14 36 5 25 8 26 53 21 27 -2 50 -6 52 -8z
m-443 -178 c18 -14 18 -15 -11 -26 -16 -6 -37 -18 -46 -26 -15 -13 -17 -12
-21 14 -2 16 -2 34 0 40 5 17 54 15 78 -2z"/>
</g>
</svg>
