<?xml version="1.0" standalone="no"?>
<!DOCTYPE svg PUBLIC "-//W3C//DTD SVG 20010904//EN"
 "http://www.w3.org/TR/2001/REC-SVG-20010904/DTD/svg10.dtd">
<svg version="1.0" xmlns="http://www.w3.org/2000/svg"
 width="194.000000pt" height="102.000000pt" viewBox="0 0 194.000000 102.000000"
 preserveAspectRatio="xMidYMid meet">
<metadata>
Created by potrace 1.16, written by Peter Selinger 2001-2019
</metadata>
<g transform="translate(0.000000,102.000000) scale(0.100000,-0.100000)"
fill="#000000" stroke="none">
<path d="M577 912 c-17 -19 -28 -196 -14 -220 5 -7 18 -10 34 -6 23 6 25 5 20
-17 -36 -157 -51 -237 -63 -328 -8 -57 -12 -59 -122 -46 -94 12 -145 31 -165
62 -11 18 -52 16 -71 -2 -22 -22 -30 -76 -18 -128 7 -33 6 -53 -4 -76 -18 -43
1 -50 61 -22 25 12 51 21 58 21 7 0 21 6 32 14 11 7 45 19 75 25 30 7 68 19
83 27 38 19 47 18 47 -7 0 -28 34 -21 38 9 5 33 59 31 72 -3 11 -30 30 -33 37
-5 8 32 22 23 25 -17 4 -49 28 -57 28 -9 0 34 2 36 34 36 26 0 36 -5 41 -19 7
-24 31 -18 38 10 3 13 14 19 32 19 24 0 26 -3 20 -30 -8 -37 -1 -38 30 -4 l25
27 299 3 299 3 0 -64 c1 -68 14 -107 35 -99 9 3 13 28 12 82 l0 77 45 0 c25 0
51 4 58 8 23 15 1 27 -50 27 -47 0 -50 1 -45 22 3 13 9 60 13 106 4 50 12 89
21 97 7 8 21 31 30 52 8 21 23 49 33 63 10 14 29 46 42 70 40 76 72 119 91
124 9 2 17 12 17 21 0 13 -5 16 -22 10 -78 -24 -187 -32 -205 -14 -7 7 -104
12 -285 13 -152 2 -281 7 -288 11 -8 5 -41 9 -74 10 -96 2 -249 16 -276 25
-14 5 -37 11 -52 14 -16 4 -28 13 -28 20 0 22 -27 26 -43 8z m153 -79 l45 -6
-50 -23 c-27 -13 -55 -24 -62 -24 -8 0 -16 -7 -19 -15 -4 -8 -12 -15 -19 -15
-9 0 -12 15 -10 48 1 26 3 48 4 49 0 0 16 -1 34 -4 17 -2 52 -7 77 -10z m110
-50 c0 -15 -4 -40 -10 -57 -15 -48 -100 -403 -100 -418 0 -25 -24 -49 -43 -42
-25 9 -22 44 23 215 84 326 85 328 118 329 6 0 12 -12 12 -27z m70 15 c0 -15
-23 -117 -55 -248 -32 -125 -55 -240 -55 -267 0 -18 -6 -23 -25 -23 -34 0 -33
20 11 188 20 75 40 153 44 172 30 136 40 182 40 186 0 2 9 4 20 4 11 0 20 -6
20 -12z m80 -3 c0 -7 -7 -40 -15 -72 -23 -86 -56 -287 -64 -378 l-6 -80 -39
-3 -39 -3 6 53 c3 29 10 71 16 93 5 22 16 74 25 115 9 41 20 91 25 110 5 19
15 62 22 95 7 33 17 66 22 73 13 17 47 15 47 -3z m345 1 c148 -2 234 -7 264
-16 l43 -14 -6 -70 c-4 -39 -17 -114 -31 -166 -13 -52 -27 -129 -30 -170 -4
-42 -10 -81 -14 -88 -5 -9 -89 -13 -310 -16 -325 -5 -313 -6 -313 46 1 46 12
135 27 218 59 311 52 293 107 285 24 -3 142 -8 263 -9z m425 -21 c0 -9 -57
-118 -85 -160 -20 -32 -24 -35 -20 -15 2 14 7 54 10 89 3 36 11 71 17 78 10
12 78 19 78 8z m-1004 -22 c-33 -109 -79 -281 -98 -367 -22 -103 -24 -106 -50
-106 -35 0 -36 14 -7 165 39 212 57 267 91 298 37 31 72 37 64 10z m-484 -464
c19 -14 55 -24 105 -30 76 -8 98 -15 72 -22 -46 -13 -168 -49 -190 -56 l-27
-9 -1 69 c-1 38 1 69 5 69 3 0 19 -10 36 -21z"/>
<path d="M1927 299 c-4 -20 -26 -74 -48 -119 -38 -77 -44 -100 -20 -86 5 4 26
38 46 77 29 57 35 80 33 118 l-3 46 -8 -36z"/>
<path d="M7 293 c-12 -11 -8 -43 6 -43 14 0 39 35 30 44 -8 8 -28 8 -36 -1z"/>
</g>
</svg>
