<?xml version="1.0" standalone="no"?>
<!DOCTYPE svg PUBLIC "-//W3C//DTD SVG 20010904//EN"
 "http://www.w3.org/TR/2001/REC-SVG-20010904/DTD/svg10.dtd">
<svg version="1.0" xmlns="http://www.w3.org/2000/svg"
 width="158.000000pt" height="172.000000pt" viewBox="0 0 158.000000 172.000000"
 preserveAspectRatio="xMidYMid meet">
<metadata>
Created by potrace 1.16, written by Peter Selinger 2001-2019
</metadata>
<g transform="translate(0.000000,172.000000) scale(0.100000,-0.100000)"
fill="#000000" stroke="none">
<path d="M425 1495 c-66 -63 -79 -95 -39 -95 9 0 45 -16 81 -35 36 -19 71 -35
79 -35 8 0 14 -5 14 -11 0 -8 -11 -9 -31 -5 -34 6 -59 -7 -59 -30 0 -8 8 -14
18 -14 16 0 18 -9 18 -72 -1 -48 -5 -73 -13 -76 -7 -2 -16 5 -20 15 -4 10 -14
23 -23 29 -8 7 -22 28 -30 48 -7 20 -17 36 -21 36 -3 0 -9 12 -12 28 -16 78
-53 79 -136 2 -30 -27 -59 -50 -63 -50 -4 0 -8 -8 -8 -19 0 -19 88 -65 149
-77 17 -4 31 -10 31 -15 0 -5 5 -9 11 -9 5 0 28 -14 49 -31 32 -26 42 -30 54
-20 21 17 28 0 34 -81 4 -56 8 -68 21 -66 11 2 17 17 19 51 3 51 10 57 36 29
12 -14 17 -40 18 -100 1 -70 4 -82 19 -82 19 0 29 28 29 83 l0 39 33 -27 c42
-36 46 -44 52 -101 9 -94 16 -116 31 -103 10 8 14 8 14 0 0 -6 7 -11 15 -11
19 0 20 16 1 27 -7 4 -16 27 -20 51 -8 52 8 56 53 11 29 -29 39 -70 31 -128
-4 -31 11 -61 30 -61 18 0 20 6 19 50 -1 28 0 53 4 56 16 16 25 -14 32 -100 7
-101 22 -133 50 -105 11 12 11 23 -3 76 -9 34 -14 65 -10 68 3 3 21 -10 39
-28 19 -19 39 -36 46 -38 7 -2 16 -38 22 -88 10 -89 21 -112 45 -92 11 9 12
20 5 44 -11 40 -12 87 -1 87 5 0 16 -8 25 -18 12 -13 16 -40 16 -111 1 -97 8
-118 36 -107 14 5 15 15 10 60 -8 62 1 97 52 203 37 77 54 91 78 67 22 -23 19
-30 -22 -40 -35 -9 -37 -12 -48 -66 -6 -32 -10 -120 -8 -205 3 -130 6 -150 23
-167 15 -15 22 -17 33 -7 8 6 13 20 10 31 -3 12 3 22 17 30 14 7 20 18 17 30
-7 27 14 99 59 198 13 29 24 59 24 68 0 8 16 32 35 52 38 41 42 54 20 72 -11
9 -19 8 -37 -4 -30 -21 -45 -20 -65 4 -10 11 -23 20 -30 20 -7 0 -13 4 -13 9
0 16 -53 61 -71 61 -23 0 -25 -18 -4 -26 26 -10 5 -24 -33 -22 -20 1 -49 -2
-64 -6 l-26 -8 15 44 c19 57 28 65 51 45 19 -17 47 -24 40 -9 -2 4 -12 24 -21
45 -12 25 -24 37 -38 37 -25 0 -177 146 -181 174 -2 13 -10 21 -23 21 -11 0
-23 4 -26 9 -22 30 -195 196 -204 196 -15 0 -76 75 -92 112 -7 15 -19 28 -28
28 -8 0 -15 5 -15 10 0 6 -18 39 -40 72 -22 34 -40 67 -40 74 0 20 -41 64 -60
64 -10 0 -48 -29 -85 -65z m134 -56 c17 -33 31 -65 31 -70 0 -17 -47 -9 -65
11 -10 11 -26 20 -35 20 -10 0 -23 7 -30 15 -10 12 -5 21 25 50 21 19 39 35
40 35 2 0 17 -27 34 -61z m64 -165 c3 -3 -10 -28 -29 -56 -41 -57 -43 -101 -7
-106 19 -3 21 -8 16 -35 -8 -44 -17 -51 -37 -28 -14 16 -18 37 -17 112 0 96 3
104 36 112 31 7 31 7 38 1z m-263 -39 c0 -6 13 -30 29 -52 30 -41 31 -65 2
-39 -9 8 -38 23 -66 34 -27 11 -51 26 -53 33 -3 20 60 59 76 47 6 -6 12 -16
12 -23z m353 -10 c17 -24 17 -25 -10 -30 -24 -5 -48 -15 -85 -33 -17 -8 -7 23
18 55 30 39 52 41 77 8z m77 -65 c0 -5 12 -20 27 -34 29 -27 26 -31 -32 -39
-16 -2 -36 -6 -44 -8 -20 -6 -24 16 -6 34 8 9 15 19 15 24 0 11 21 33 32 33 4
0 8 -4 8 -10z m-87 -6 c9 -9 -51 -124 -64 -124 -7 0 -9 9 -5 23 3 12 6 34 6
49 0 39 41 73 63 52z m237 -139 c0 -2 2 -10 6 -18 4 -11 -6 -16 -40 -19 -50
-6 -85 -26 -66 -38 12 -7 71 2 104 15 11 5 17 4 15 -1 -2 -5 -15 -37 -28 -71
-25 -67 -39 -74 -39 -19 0 19 -3 40 -7 45 -14 23 -25 -2 -25 -55 0 -30 -4 -54
-8 -54 -5 0 -23 17 -41 37 -39 44 -37 71 9 139 16 25 30 49 30 55 0 5 6 16 12
23 11 11 19 9 45 -12 18 -13 33 -26 33 -27z m-120 39 c0 -3 -11 -21 -24 -40
l-24 -35 -5 33 c-2 18 -3 36 0 41 5 8 53 10 53 1z m-94 -31 c11 -25 12 -113 1
-113 -5 0 -21 12 -37 26 -23 23 -26 31 -20 55 5 16 11 33 15 39 10 16 32 12
41 -7z m317 -117 c30 -28 33 -35 20 -40 -19 -8 -81 3 -88 14 -6 10 15 60 25
60 4 0 23 -15 43 -34z m-25 -73 c13 -3 21 -8 19 -12 -1 -3 -13 -28 -25 -54
-23 -51 -41 -55 -40 -9 1 15 -4 37 -11 49 -18 34 -14 46 12 38 12 -3 32 -9 45
-12z m127 -23 c26 -27 27 -30 9 -32 -34 -2 -39 -3 -71 -17 -32 -13 -49 -36
-33 -46 5 -3 11 -1 15 5 14 23 25 -5 24 -61 -1 -32 -4 -59 -7 -59 -2 0 -22 14
-43 31 -43 34 -44 51 -8 98 11 13 19 32 19 42 0 11 4 19 8 19 5 0 15 11 22 25
17 32 30 32 65 -5z m-201 -38 c7 -12 -5 -52 -15 -52 -13 0 -22 27 -15 45 6 16
22 20 30 7z m226 -29 c0 -11 -49 -139 -50 -133 -7 24 -3 127 5 132 13 10 45
10 45 1z m94 -133 c5 -5 0 -21 -13 -38 -11 -17 -21 -35 -21 -41 0 -6 -4 -11
-10 -11 -5 0 -10 16 -10 35 0 24 -5 35 -15 35 -10 0 -15 -10 -15 -30 0 -34 -6
-36 -37 -15 -21 14 -21 15 11 50 27 31 35 35 66 30 19 -3 39 -10 44 -15z m178
-74 c12 -18 9 -34 -7 -38 -15 -3 -69 -110 -79 -158 -3 -14 -12 -34 -20 -45
-14 -19 -15 -17 -16 26 0 34 4 49 16 53 15 6 15 8 1 24 -20 23 -22 37 -14 99
l8 53 52 -2 c29 -1 55 -7 59 -12z"/>
<path d="M0 1175 c0 -21 5 -25 31 -25 18 0 49 -5 70 -12 22 -6 42 -8 46 -4 17
16 -18 41 -73 53 -78 16 -74 17 -74 -12z"/>
<path d="M1552 1143 c-13 -28 -3 -51 17 -39 12 8 15 66 4 66 -5 0 -14 -12 -21
-27z"/>
<path d="M1186 1117 c-29 -21 -1 -34 97 -41 82 -7 88 -6 85 11 -6 32 -148 55
-182 30z"/>
<path d="M0 1101 c0 -12 11 -23 30 -29 38 -14 100 -4 100 15 0 16 -9 20 -77
27 -47 4 -53 3 -53 -13z"/>
<path d="M1571 964 c0 -11 3 -14 6 -6 3 7 2 16 -1 19 -3 4 -6 -2 -5 -13z"/>
<path d="M1490 501 c0 -5 7 -11 15 -15 9 -3 15 0 15 9 0 8 -7 15 -15 15 -8 0
-15 -4 -15 -9z"/>
<path d="M445 230 c-3 -5 1 -10 10 -10 9 0 13 5 10 10 -3 6 -8 10 -10 10 -2 0
-7 -4 -10 -10z"/>
<path d="M338 103 c-11 -3 -18 -14 -18 -28 0 -32 16 -40 30 -15 14 27 28 25
40 -5 6 -16 17 -25 31 -25 15 0 19 -5 15 -15 -9 -24 19 -18 64 13 41 28 49 59
15 54 -11 -1 -36 -5 -55 -8 -28 -5 -39 -1 -54 15 -19 20 -33 23 -68 14z"/>
<path d="M712 61 c-18 -22 -32 -44 -32 -49 0 -14 88 -12 99 2 6 7 12 28 13 47
3 30 0 34 -22 37 -20 2 -33 -6 -58 -37z m41 -29 c-20 -21 -28 -20 -20 3 4 8
13 15 22 15 13 0 12 -3 -2 -18z"/>
</g>
</svg>
