<?xml version="1.0" standalone="no"?>
<!DOCTYPE svg PUBLIC "-//W3C//DTD SVG 20010904//EN"
 "http://www.w3.org/TR/2001/REC-SVG-20010904/DTD/svg10.dtd">
<svg version="1.0" xmlns="http://www.w3.org/2000/svg"
 width="238.000000pt" height="74.000000pt" viewBox="0 0 238.000000 74.000000"
 preserveAspectRatio="xMidYMid meet">
<metadata>
Created by potrace 1.16, written by Peter Selinger 2001-2019
</metadata>
<g transform="translate(0.000000,74.000000) scale(0.100000,-0.100000)"
fill="#000000" stroke="none">
<path d="M1448 590 c-15 -4 -83 -9 -150 -10 -68 0 -166 -5 -218 -9 -107 -10
-409 -7 -542 4 -78 7 -88 6 -88 -9 0 -9 8 -16 20 -16 12 0 20 -7 20 -17 0 -21
-26 -134 -41 -181 l-11 -32 -157 2 c-148 1 -188 -3 -177 -21 3 -4 84 -8 181
-9 175 -3 259 -7 345 -18 25 -3 113 -5 197 -5 129 0 152 -2 157 -16 6 -14 8
-14 24 0 14 13 37 15 137 10 146 -6 507 -3 519 4 4 3 12 -1 17 -8 7 -11 12
-12 29 -1 28 17 67 15 80 -5 10 -17 12 -16 26 4 19 27 46 30 64 8 12 -14 15
-13 35 5 19 18 34 21 101 19 43 0 87 2 96 6 30 12 36 -3 21 -58 -12 -47 -11
-59 2 -91 25 -59 40 -40 41 52 2 94 7 106 35 92 23 -13 35 -7 42 20 4 16 0 20
-20 20 -24 0 -25 2 -19 43 7 47 53 147 67 147 5 0 9 9 9 19 0 25 -44 35 -109
26 -33 -4 -51 -3 -56 5 -5 9 -52 10 -174 5 -145 -6 -419 5 -461 19 -8 2 -27 1
-42 -4z m-4 -39 c3 -4 -6 -43 -19 -86 -14 -43 -25 -100 -25 -126 l0 -49 -39 0
c-22 0 -43 5 -46 10 -4 6 4 51 16 100 22 86 24 89 47 83 17 -4 23 -2 18 6 -4
6 -14 11 -21 11 -18 0 -9 29 13 48 18 14 48 16 56 3z m104 1 c9 -7 8 -21 -7
-68 -11 -32 -25 -90 -32 -127 -12 -64 -14 -68 -38 -65 -41 5 -45 47 -15 157
14 53 31 99 37 103 16 10 39 10 55 0z m-298 -9 c0 -4 -6 -25 -14 -48 -8 -22
-20 -74 -27 -115 -7 -41 -17 -78 -22 -81 -14 -10 -47 2 -47 16 0 28 33 171 41
180 14 14 11 35 -6 35 -20 0 -43 -58 -58 -149 l-12 -76 -44 -3 -43 -3 7 43 c4
24 13 57 21 73 17 38 22 97 8 102 -9 3 -56 -124 -69 -189 -4 -23 -11 -28 -36
-28 l-32 0 7 52 c4 28 11 59 15 67 15 28 24 101 12 101 -18 0 -48 -72 -61
-147 -12 -66 -16 -73 -36 -73 -13 0 -25 4 -28 8 -7 11 20 141 37 182 l15 35
114 11 c138 13 258 16 258 7z m93 -5 c-9 -12 -42 -123 -61 -208 -6 -25 -14
-36 -30 -38 -26 -4 -25 -10 -7 102 23 141 30 156 77 156 23 0 28 -3 21 -12z
m302 -5 c-19 -44 -55 -180 -55 -205 0 -30 -35 -57 -51 -41 -11 11 20 155 47
222 13 33 21 41 41 41 20 0 24 -4 18 -17z m90 6 c4 -6 0 -30 -9 -53 -9 -24
-22 -76 -29 -117 -12 -73 -12 -74 -42 -74 -29 0 -30 1 -27 45 4 47 39 176 55
198 12 15 43 16 52 1z m111 0 c3 -6 1 -14 -5 -18 -16 -10 -31 -66 -37 -136 -7
-82 -8 -85 -48 -85 -40 0 -40 -4 -9 130 22 98 22 98 51 109 36 13 40 13 48 0z
m99 2 c3 -5 -1 -27 -8 -48 -21 -58 -34 -104 -41 -144 -5 -29 -12 -38 -32 -42
-32 -6 -39 9 -30 70 12 89 37 152 65 162 34 12 39 13 46 2z m88 -13 c-16 -72
-67 -210 -80 -215 -33 -13 -35 14 -7 113 32 113 38 124 69 124 19 0 22 -4 18
-22z m-1433 -15 c-1 -16 -7 -46 -15 -68 -8 -22 -15 -59 -15 -82 l0 -43 -45 0
c-27 0 -45 5 -45 11 0 7 12 56 27 110 l28 99 32 0 c29 0 33 -3 33 -27z m130 9
c0 -31 -40 -185 -52 -199 -12 -15 -64 -18 -73 -3 -7 12 24 190 36 205 4 6 26
11 48 12 32 1 41 -3 41 -15z m103 -7 c-1 -11 -12 -47 -24 -80 -12 -33 -23 -76
-23 -95 -1 -33 -3 -35 -38 -38 -42 -4 -49 10 -24 43 8 11 12 25 9 32 -3 7 -1
19 5 26 6 6 13 30 17 52 10 56 31 87 58 83 15 -2 21 -9 20 -23z m1291 6 c3 -5
-5 -34 -19 -65 -14 -31 -25 -67 -25 -80 0 -44 -10 -56 -47 -56 -29 0 -34 3
-28 18 4 9 18 51 31 92 14 41 27 81 29 88 5 14 51 17 59 3z m96 3 c0 -4 -14
-51 -31 -105 -31 -96 -33 -99 -61 -99 -29 0 -30 1 -23 40 4 22 18 62 31 90 13
27 24 57 24 65 0 10 10 15 30 15 17 0 30 -3 30 -6z"/>
<path d="M2255 410 c3 -5 13 -10 21 -10 8 0 14 5 14 10 0 6 -9 10 -21 10 -11
0 -17 -4 -14 -10z"/>
</g>
</svg>
