<?xml version="1.0" standalone="no"?>
<!DOCTYPE svg PUBLIC "-//W3C//DTD SVG 20010904//EN"
 "http://www.w3.org/TR/2001/REC-SVG-20010904/DTD/svg10.dtd">
<svg version="1.0" xmlns="http://www.w3.org/2000/svg"
 width="122.000000pt" height="108.000000pt" viewBox="0 0 122.000000 108.000000"
 preserveAspectRatio="xMidYMid meet">
<metadata>
Created by potrace 1.16, written by Peter Selinger 2001-2019
</metadata>
<g transform="translate(0.000000,108.000000) scale(0.100000,-0.100000)"
fill="#000000" stroke="none">
<path d="M572 868 c-5 -13 -7 -62 -6 -110 1 -56 -2 -88 -9 -88 -6 0 -36 6 -66
14 -31 8 -101 24 -156 36 -55 11 -116 25 -136 30 -53 14 -89 12 -96 -5 -8 -22
0 -27 49 -35 57 -10 335 -68 373 -78 l30 -8 -2 -109 c-1 -59 -6 -111 -10 -115
-8 -7 -119 -42 -268 -85 -99 -29 -135 -48 -135 -70 0 -19 24 -19 53 -1 12 8
51 21 87 30 36 9 106 30 157 46 50 17 97 30 102 30 6 0 11 -20 11 -46 0 -25 5
-65 11 -90 9 -36 9 -51 -1 -70 -27 -50 21 -55 58 -6 35 48 57 66 112 94 25 12
65 36 90 52 25 17 99 58 165 92 69 35 128 73 140 88 l20 28 -70 64 c-38 36
-90 77 -115 91 -25 14 -68 46 -97 69 -28 24 -56 44 -61 44 -11 0 -89 61 -133
104 -35 34 -86 36 -97 4z m120 -108 c31 -27 61 -50 67 -50 6 0 30 -17 54 -38
41 -38 130 -102 141 -102 16 0 116 -86 114 -98 -2 -7 -55 -41 -119 -75 -110
-59 -155 -86 -277 -164 -29 -18 -57 -31 -62 -28 -13 8 -11 157 2 172 6 7 21
13 34 13 17 0 24 6 24 19 0 22 -21 33 -40 21 -8 -5 -18 -6 -22 -3 -5 2 -6 80
-3 171 3 92 5 177 5 190 0 34 21 27 82 -28z"/>
</g>
</svg>
