<?xml version="1.0" standalone="no"?>
<!DOCTYPE svg PUBLIC "-//W3C//DTD SVG 20010904//EN"
 "http://www.w3.org/TR/2001/REC-SVG-20010904/DTD/svg10.dtd">
<svg version="1.0" xmlns="http://www.w3.org/2000/svg"
 width="122.000000pt" height="112.000000pt" viewBox="0 0 122.000000 112.000000"
 preserveAspectRatio="xMidYMid meet">
<metadata>
Created by potrace 1.16, written by Peter Selinger 2001-2019
</metadata>
<g transform="translate(0.000000,112.000000) scale(0.100000,-0.100000)"
fill="#000000" stroke="none">
<path d="M622 977 c-11 -13 -38 -154 -49 -252 -9 -84 -16 -84 -112 2 -47 42
-93 84 -101 94 -8 9 -27 24 -42 34 -34 21 -93 13 -108 -14 -8 -17 -2 -23 48
-49 31 -17 84 -56 116 -86 33 -31 64 -56 68 -56 5 0 31 -15 59 -34 46 -31 49
-35 34 -50 -9 -9 -31 -24 -48 -33 -18 -9 -58 -33 -89 -54 -31 -22 -62 -39 -67
-39 -6 0 -11 -4 -11 -9 0 -5 -15 -16 -34 -25 -19 -9 -57 -32 -85 -51 -29 -19
-74 -46 -101 -61 -50 -27 -59 -38 -40 -49 12 -8 93 32 124 60 12 11 35 27 52
35 16 8 54 31 84 51 101 66 196 119 214 119 15 0 16 -8 10 -83 -6 -83 5 -135
26 -122 5 3 19 1 31 -5 17 -9 30 -7 72 13 29 13 63 27 77 31 14 4 53 21 87 37
34 16 64 29 68 29 3 0 24 12 48 27 92 60 195 113 217 113 25 0 5 38 -31 60
-22 14 -54 43 -72 66 -17 22 -49 55 -71 72 -23 18 -70 59 -105 92 -35 33 -69
60 -74 60 -6 0 -24 10 -41 23 -39 29 -112 67 -130 67 -7 0 -18 -6 -24 -13z
m120 -95 c60 -33 194 -153 291 -261 16 -17 33 -31 38 -31 5 0 9 -6 9 -14 0
-13 -78 -62 -198 -126 -79 -41 -277 -119 -285 -111 -10 10 11 352 28 436 7 39
16 87 20 108 3 20 11 37 18 37 7 -1 42 -18 79 -38z"/>
<path d="M164 542 c-20 -13 -52 -91 -59 -144 l-7 -53 21 19 c11 11 21 26 21
35 0 9 11 40 25 69 33 71 33 97 -1 74z"/>
</g>
</svg>
