<?xml version="1.0" standalone="no"?>
<!DOCTYPE svg PUBLIC "-//W3C//DTD SVG 20010904//EN"
 "http://www.w3.org/TR/2001/REC-SVG-20010904/DTD/svg10.dtd">
<svg version="1.0" xmlns="http://www.w3.org/2000/svg"
 width="166.000000pt" height="96.000000pt" viewBox="0 0 166.000000 96.000000"
 preserveAspectRatio="xMidYMid meet">
<metadata>
Created by potrace 1.16, written by Peter Selinger 2001-2019
</metadata>
<g transform="translate(0.000000,96.000000) scale(0.100000,-0.100000)"
fill="#000000" stroke="none">
<path d="M574 825 c-63 -28 -127 -116 -74 -102 15 4 28 -7 55 -44 49 -68 47
-82 -10 -73 -31 4 -50 2 -61 -6 -23 -20 0 -28 64 -25 31 2 63 0 72 -5 19 -10
221 -253 238 -286 11 -21 9 -21 -151 -32 -89 -6 -218 -14 -287 -17 -265 -13
-378 -31 -352 -57 7 -7 39 -6 98 1 49 6 145 13 214 15 129 6 180 9 388 27 122
11 124 11 148 -12 13 -12 24 -32 24 -43 0 -21 81 -116 99 -116 4 0 14 6 20 14
17 21 3 65 -28 83 -40 25 -81 65 -81 80 0 8 14 14 38 15 20 1 61 2 90 3 30 2
58 7 64 13 8 8 17 8 30 1 12 -6 24 -6 37 0 10 6 21 8 24 5 3 -3 14 -1 25 5 11
6 23 6 28 1 5 -5 23 -10 39 -12 33 -3 33 -5 20 -90 -9 -59 -1 -86 20 -68 8 7
15 25 15 41 0 15 5 31 10 34 6 3 10 17 10 31 0 35 19 67 36 60 20 -8 44 3 44
20 0 8 -11 19 -25 24 -14 5 -25 12 -25 15 0 37 92 266 117 293 34 36 12 41
-122 31 -359 -28 -770 -47 -782 -37 -28 23 -46 169 -23 183 14 9 12 45 -2 44
-7 0 -27 -7 -44 -14z m849 -245 c-2 -19 -10 -86 -19 -148 -19 -129 -21 -132
-111 -133 -32 0 -80 -4 -108 -9 -27 -5 -100 -12 -161 -15 l-112 -7 -45 59
c-43 55 -80 99 -110 133 -45 51 -79 102 -71 110 5 4 68 11 139 14 313 16 479
27 485 33 2 2 29 3 60 1 l55 -3 -2 -35z m70 34 c3 -4 -4 -25 -16 -48 -21 -40
-22 -40 -25 -14 -5 42 21 81 41 62z"/>
</g>
</svg>
