<?xml version="1.0" standalone="no"?>
<!DOCTYPE svg PUBLIC "-//W3C//DTD SVG 20010904//EN"
 "http://www.w3.org/TR/2001/REC-SVG-20010904/DTD/svg10.dtd">
<svg version="1.0" xmlns="http://www.w3.org/2000/svg"
 width="116.000000pt" height="92.000000pt" viewBox="0 0 116.000000 92.000000"
 preserveAspectRatio="xMidYMid meet">
<metadata>
Created by potrace 1.16, written by Peter Selinger 2001-2019
</metadata>
<g transform="translate(0.000000,92.000000) scale(0.100000,-0.100000)"
fill="#000000" stroke="none">
<path d="M656 773 c-4 -5 -51 -8 -103 -8 -68 0 -97 -4 -100 -12 -6 -16 6 -20
80 -28 31 -4 57 -11 57 -17 0 -19 -51 -79 -61 -72 -5 3 -7 9 -4 14 8 13 -16
60 -31 60 -19 0 -28 -20 -15 -33 6 -6 11 -19 11 -29 0 -17 -8 -19 -87 -17 -95
2 -153 22 -173 59 -9 16 -15 18 -30 10 -25 -13 -38 -60 -42 -150 -3 -82 9 -98
47 -63 33 30 124 83 143 83 10 0 22 4 27 9 6 5 34 11 63 14 52 6 52 6 52 -22
0 -16 -6 -44 -14 -63 -8 -19 -17 -57 -21 -85 -3 -28 -12 -67 -20 -86 l-14 -34
-68 2 c-89 3 -128 13 -149 36 -40 44 -59 18 -68 -89 -5 -70 -4 -83 9 -88 9 -4
23 0 33 9 40 36 129 75 177 79 35 2 49 -1 48 -9 -2 -7 -6 -44 -9 -83 -6 -60
-5 -70 9 -70 17 0 41 33 31 43 -6 6 16 118 25 129 10 11 271 19 331 11 60 -9
58 -3 44 -93 -5 -35 -2 -49 9 -59 13 -10 17 -9 26 7 6 11 8 21 6 23 -2 3 0 20
4 39 45 186 91 293 160 372 23 25 41 51 41 57 0 12 -96 16 -275 11 -60 -1
-134 -3 -164 -4 -33 0 -56 4 -58 10 -2 7 19 34 47 62 27 27 50 57 50 66 0 17
-12 21 -24 9z m-399 -153 c21 -11 45 -20 53 -20 20 -1 -27 -37 -55 -43 -11 -2
-28 -8 -37 -12 -16 -6 -18 -1 -18 37 0 39 5 58 17 58 2 0 20 -9 40 -20z m639
-31 c18 -15 18 -67 -1 -165 -24 -124 -9 -116 -233 -118 -213 -1 -200 -6 -181
68 6 22 15 59 21 81 6 22 14 49 19 60 5 11 13 32 18 47 12 32 14 32 199 36 99
2 148 -1 158 -9z m109 1 c3 -5 -7 -26 -22 -45 l-28 -35 -8 31 c-5 20 -4 36 4
45 13 16 45 19 54 4z m-771 -313 c17 -13 17 -14 -8 -30 -34 -23 -46 -21 -46 6
0 39 21 48 54 24z"/>
<path d="M1143 158 c-7 -24 -8 -40 -1 -44 15 -10 20 1 16 42 l-3 39 -12 -37z"/>
</g>
</svg>
