<?xml version="1.0" standalone="no"?>
<!DOCTYPE svg PUBLIC "-//W3C//DTD SVG 20010904//EN"
 "http://www.w3.org/TR/2001/REC-SVG-20010904/DTD/svg10.dtd">
<svg version="1.0" xmlns="http://www.w3.org/2000/svg"
 width="138.000000pt" height="90.000000pt" viewBox="0 0 138.000000 90.000000"
 preserveAspectRatio="xMidYMid meet">
<metadata>
Created by potrace 1.16, written by Peter Selinger 2001-2019
</metadata>
<g transform="translate(0.000000,90.000000) scale(0.100000,-0.100000)"
fill="#000000" stroke="none">
<path d="M536 748 c-14 -21 -29 -119 -30 -193 -1 -25 3 -29 19 -27 11 2 32 13
47 23 15 11 60 33 100 50 40 16 81 39 91 50 15 19 24 21 78 15 33 -4 67 -10
75 -13 15 -6 11 -11 -80 -93 l-28 -25 7 63 c5 41 3 62 -3 62 -19 0 -23 -17
-37 -143 -8 -67 -19 -139 -25 -161 l-12 -38 -97 6 c-53 4 -140 9 -193 11 -85
3 -105 7 -162 35 -36 18 -72 30 -80 27 -9 -4 -17 -25 -20 -54 -4 -26 -15 -75
-26 -108 -24 -71 -25 -98 -6 -114 12 -10 25 -3 68 40 44 43 68 57 138 81 136
47 157 50 268 43 l102 -7 -2 -37 c-4 -50 14 -54 30 -6 15 46 27 56 56 45 46
-17 127 -31 163 -28 l38 3 0 -70 c0 -55 3 -70 15 -70 9 0 17 15 23 40 15 76
30 115 44 115 17 0 17 17 1 23 -10 3 -10 13 0 50 6 26 12 61 12 79 0 39 76
154 138 209 24 21 42 44 40 51 -4 10 -61 13 -254 15 -293 3 -329 5 -369 27
-16 9 -37 16 -46 16 -9 0 -22 7 -29 15 -18 21 -37 19 -54 -7z m101 -62 c44
-16 48 -22 30 -41 -22 -21 -99 -55 -110 -48 -8 5 -1 89 10 106 3 5 12 5 22 1
9 -4 31 -12 48 -18z m583 -35 c0 -5 -8 -16 -18 -23 -9 -7 -30 -28 -45 -46 -29
-37 -30 -36 -27 25 1 36 -1 42 -14 37 -9 -3 -19 -18 -22 -33 -3 -14 -9 -45
-15 -68 -5 -23 -9 -61 -10 -85 -1 -64 -23 -158 -39 -168 -19 -12 -67 -13 -74
-1 -3 5 -39 12 -79 15 -106 10 -105 8 -72 114 26 84 32 95 94 156 36 37 71 70
78 74 19 12 243 15 243 3z m-947 -325 c18 -8 52 -20 77 -27 49 -13 51 -11 -44
-44 -26 -10 -64 -31 -82 -48 -19 -16 -37 -27 -40 -25 -3 3 4 30 16 59 11 30
20 64 20 77 0 26 10 27 53 8z"/>
<path d="M320 580 c0 -5 4 -10 9 -10 6 0 13 5 16 10 3 6 -1 10 -9 10 -9 0 -16
-4 -16 -10z"/>
<path d="M1355 140 c-10 -36 -21 -71 -23 -77 -2 -8 5 -13 17 -13 16 0 21 9 26
53 12 93 2 110 -20 37z"/>
</g>
</svg>
