<?xml version="1.0" standalone="no"?>
<!DOCTYPE svg PUBLIC "-//W3C//DTD SVG 20010904//EN"
 "http://www.w3.org/TR/2001/REC-SVG-20010904/DTD/svg10.dtd">
<svg version="1.0" xmlns="http://www.w3.org/2000/svg"
 width="224.000000pt" height="124.000000pt" viewBox="0 0 224.000000 124.000000"
 preserveAspectRatio="xMidYMid meet">
<metadata>
Created by potrace 1.16, written by Peter Selinger 2001-2019
</metadata>
<g transform="translate(0.000000,124.000000) scale(0.100000,-0.100000)"
fill="#000000" stroke="none">
<path d="M791 1052 c-6 -2 -7 -13 0 -28 12 -34 12 -97 -2 -111 -12 -12 -81 -9
-194 9 -38 5 -88 12 -110 14 -22 3 -65 10 -95 16 -158 31 -164 27 -168 -111
-5 -126 -1 -129 111 -73 77 38 89 41 192 47 61 3 145 11 188 17 43 6 80 9 82
6 2 -2 -3 -71 -13 -153 -19 -169 -7 -154 -111 -139 -34 4 -60 15 -72 28 -16
16 -23 18 -37 10 -13 -9 -17 -27 -19 -80 0 -38 -4 -90 -7 -117 -8 -59 6 -67
67 -38 24 12 48 21 54 21 6 0 24 7 39 15 16 8 34 15 39 15 6 0 9 -60 8 -166
-3 -149 -1 -165 14 -162 22 4 41 65 48 156 9 118 25 191 44 196 25 8 147 17
456 33 180 9 511 -2 531 -18 7 -6 9 -22 5 -40 -3 -17 -5 -49 -3 -71 4 -33 7
-39 26 -36 19 3 21 10 24 68 2 48 8 70 23 86 13 14 17 24 10 29 -17 10 -13 75
5 82 11 4 12 8 4 13 -19 11 15 120 72 230 53 104 64 119 93 136 31 17 25 39
-10 37 -85 -6 -114 -6 -152 0 -26 4 -47 1 -58 -7 -17 -12 -17 -14 0 -39 16
-25 16 -27 0 -33 -9 -4 -54 -2 -99 5 -52 7 -163 10 -311 7 -268 -6 -413 -8
-472 -7 -53 1 -55 16 -13 96 17 31 30 58 30 59 0 4 -208 2 -219 -2z m149 -44
c0 -26 -23 -93 -34 -100 -6 -4 -26 -8 -44 -8 l-33 0 3 52 c3 50 5 53 33 59 50
11 75 10 75 -3z m-450 -107 c80 -12 171 -22 202 -22 31 0 60 -4 63 -9 3 -6 0
-10 -7 -10 -7 -1 -73 -5 -146 -10 -97 -7 -139 -6 -152 2 -24 16 -93 -6 -140
-44 -19 -15 -37 -28 -41 -28 -8 0 -9 108 -2 133 4 15 12 18 41 14 21 -3 102
-15 182 -26z m1530 23 c0 -3 -21 -50 -47 -105 -29 -60 -50 -94 -54 -87 -4 7
-5 16 -2 21 3 5 5 42 4 84 -1 41 1 79 5 84 6 10 94 13 94 3z m-245 -64 c20 -6
46 -9 58 -6 46 11 50 -3 43 -130 -4 -66 -10 -146 -14 -179 -7 -57 -8 -60 -32
-56 -39 6 -146 9 -369 10 -113 1 -201 5 -195 9 5 4 32 14 59 21 59 15 100 50
126 109 35 80 26 118 -39 168 -37 28 -53 34 -96 34 -43 1 -48 2 -32 12 42 24
423 30 491 8z m-882 -30 c-1 -8 -15 -64 -32 -125 -17 -60 -33 -122 -36 -137
-3 -16 -12 -28 -21 -28 -8 0 -13 4 -10 8 8 13 28 174 27 214 -2 61 14 90 47
86 17 -2 26 -8 25 -18z m136 -7 c-6 -16 -12 -41 -14 -58 -17 -174 -17 -190 -2
-210 24 -31 40 -6 43 67 5 139 16 228 29 228 8 0 11 -8 8 -20 -5 -17 -1 -20
33 -18 84 3 188 -13 221 -33 63 -39 77 -80 47 -142 -22 -45 -69 -75 -156 -98
-92 -24 -97 -24 -91 1 7 26 -9 26 -33 -1 -18 -20 -25 -21 -99 -13 -44 4 -99 6
-122 5 -23 -1 -44 2 -47 7 -4 7 19 106 36 152 3 8 14 44 24 80 9 36 19 68 21
73 2 4 29 7 58 7 l55 0 -11 -27z m-271 -346 c-3 -30 -7 -33 -72 -54 -39 -13
-71 -22 -72 -20 -3 3 -7 60 -6 84 2 25 21 30 100 25 53 -4 53 -4 50 -35z m213
22 c68 -15 49 -25 -58 -32 -66 -4 -83 -2 -83 8 0 33 54 42 141 24z m-157 -8
c3 -4 -1 -17 -9 -27 -14 -18 -14 -18 -15 9 0 26 13 36 24 18z m-15 -88 c0 -5
-4 -17 -9 -28 -8 -18 -9 -17 -9 8 -1 15 4 27 9 27 6 0 10 -3 9 -7z m-22 -120
c-3 -10 -5 -2 -5 17 0 19 2 27 5 18 2 -10 2 -26 0 -35z"/>
<path d="M1110 775 c0 -18 24 -30 39 -21 16 10 1 36 -20 36 -10 0 -19 -7 -19
-15z"/>
<path d="M1177 723 c-13 -12 -7 -53 7 -53 14 0 26 21 26 46 0 14 -21 19 -33 7z"/>
<path d="M1143 624 c-7 -19 2 -28 22 -21 19 8 19 23 0 31 -9 3 -18 -1 -22 -10z"/>
</g>
</svg>
