<?xml version="1.0" standalone="no"?>
<!DOCTYPE svg PUBLIC "-//W3C//DTD SVG 20010904//EN"
 "http://www.w3.org/TR/2001/REC-SVG-20010904/DTD/svg10.dtd">
<svg version="1.0" xmlns="http://www.w3.org/2000/svg"
 width="198.000000pt" height="114.000000pt" viewBox="0 0 198.000000 114.000000"
 preserveAspectRatio="xMidYMid meet">
<metadata>
Created by potrace 1.16, written by Peter Selinger 2001-2019
</metadata>
<g transform="translate(0.000000,114.000000) scale(0.100000,-0.100000)"
fill="#000000" stroke="none">
<path d="M1150 1131 c0 -6 5 -13 10 -16 6 -3 10 -22 10 -41 0 -48 22 -53 61
-15 17 17 39 31 50 31 10 0 19 5 19 12 0 6 3 8 7 5 8 -8 -39 -59 -82 -90 -21
-16 -51 -24 -103 -28 -47 -4 -77 -11 -83 -20 -5 -8 -9 -38 -9 -68 l0 -54 -57
7 c-82 10 -118 15 -200 32 -40 8 -81 14 -91 14 -11 0 -25 7 -32 15 -27 33 -49
10 -56 -61 -3 -32 -10 -83 -15 -113 -14 -83 -12 -111 8 -111 9 0 26 9 37 19
44 40 158 87 313 127 71 18 90 18 95 -3 5 -22 -19 -244 -33 -295 -9 -36 -11
-36 -47 -31 -20 3 -48 11 -62 17 -14 6 -38 11 -55 10 -16 -1 -41 3 -55 8 -14
6 -82 12 -152 14 -152 5 -224 10 -258 17 -14 3 -55 8 -92 10 -51 4 -68 1 -68
-8 0 -7 -10 -19 -23 -27 -21 -15 -22 -22 -22 -143 0 -80 4 -130 10 -132 6 -2
29 13 50 33 72 65 187 101 400 124 224 24 301 31 330 28 28 -3 30 -5 27 -40
-3 -33 -1 -38 17 -38 12 0 21 -6 21 -16 0 -29 -21 -54 -44 -54 -13 0 -29 -7
-36 -15 -11 -13 -3 -25 50 -75 35 -33 67 -60 72 -60 5 0 17 13 26 30 9 16 20
30 23 30 3 0 19 12 35 26 96 85 273 204 303 204 6 0 40 14 76 30 36 17 70 30
75 30 6 0 10 4 10 8 0 5 12 15 28 23 15 7 38 20 51 29 13 8 56 27 94 41 39 14
73 31 75 37 2 7 -11 19 -30 26 -44 19 -49 25 -35 47 9 15 7 22 -11 42 -13 14
-40 33 -60 43 -20 11 -55 33 -78 49 -82 58 -132 85 -158 85 -25 0 -30 7 -27
42 1 9 -8 23 -20 31 -27 19 -59 71 -59 96 0 10 -9 30 -20 44 -24 31 -25 34 -2
40 9 3 0 5 -20 6 -21 0 -53 -8 -73 -19 -20 -11 -42 -20 -50 -20 -8 0 -15 9
-15 20 0 15 -7 20 -25 20 -14 0 -25 -4 -25 -9z m194 -126 l15 -46 -29 21 c-39
28 -44 38 -30 55 19 23 27 18 44 -30z m-14 -101 c0 -18 -23 -41 -95 -94 -86
-63 -92 -53 -34 56 58 110 55 108 95 76 19 -15 34 -32 34 -38z m-150 24 c0
-23 -44 -108 -55 -108 -24 0 -65 49 -65 78 0 16 3 32 7 35 12 12 113 8 113 -5z
m234 -67 c3 -5 28 -14 55 -21 27 -6 52 -18 55 -25 3 -9 -31 -50 -87 -104 -88
-86 -92 -89 -104 -68 -6 12 -8 26 -3 32 4 5 12 30 18 55 6 25 16 61 23 80 6
19 13 41 15 48 4 14 20 16 28 3z m-603 -25 c36 -6 66 -15 66 -21 0 -5 -35 -21
-76 -34 -42 -13 -95 -32 -119 -44 -23 -11 -44 -18 -46 -16 -5 5 13 119 20 131
5 8 21 6 155 -16z m499 -63 c-10 -32 -22 -58 -26 -58 -17 1 -64 29 -62 36 4 8
90 77 99 78 4 1 -1 -25 -11 -56z m-200 7 c0 -6 -9 -27 -20 -47 l-20 -38 0 32
c0 17 3 38 6 47 7 17 34 22 34 6z m571 -65 c13 -4 37 -16 52 -27 25 -18 26
-21 12 -32 -15 -11 -14 -14 4 -38 12 -14 21 -28 21 -30 0 -3 -24 -15 -52 -28
-29 -13 -64 -31 -78 -40 -67 -45 -144 -80 -177 -80 -21 0 -55 -11 -79 -25
l-43 -25 -12 21 c-7 15 -9 49 -4 106 6 70 10 84 23 82 10 -1 25 1 35 6 21 9
68 -12 122 -55 49 -39 62 -28 44 39 -10 41 -10 61 -1 96 7 25 12 53 12 63 0
40 22 43 61 8 20 -19 47 -37 60 -41z m-178 -52 c-6 -58 -14 -62 -56 -34 l-28
18 41 37 c23 21 43 36 45 34 1 -2 0 -27 -2 -55z m-266 21 c24 -14 42 -31 40
-37 -4 -13 -75 -70 -155 -124 -29 -20 -51 -41 -49 -47 2 -6 26 -14 53 -19 27
-4 60 -13 74 -20 39 -19 100 -69 95 -78 -5 -6 -216 -79 -231 -79 -2 0 -2 17 1
37 4 21 2 74 -3 118 -7 63 -6 89 5 120 8 22 21 60 29 85 8 25 16 51 19 58 8
21 75 14 122 -14z m39 -168 c-3 -33 -5 -64 -6 -69 0 -4 -17 2 -37 13 -21 11
-46 20 -55 20 -28 0 -21 28 10 44 15 8 38 26 51 40 13 14 28 23 33 20 5 -3 7
-34 4 -68z m-866 -47 c74 -6 164 -11 200 -10 89 3 165 -8 152 -21 -6 -6 -89
-21 -184 -34 -185 -25 -223 -33 -306 -72 -29 -13 -55 -22 -57 -21 -2 2 -1 44
2 92 l6 89 26 -6 c14 -3 87 -11 161 -17z m790 -183 c0 -10 -129 -106 -142
-106 -16 0 -41 37 -33 49 6 11 98 41 124 41 11 0 23 5 26 10 6 10 25 14 25 6z"/>
<path d="M1961 352 c-10 -47 -11 -66 -3 -74 19 -19 23 -4 20 68 l-3 69 -14
-63z"/>
</g>
</svg>
