<?xml version="1.0" standalone="no"?>
<!DOCTYPE svg PUBLIC "-//W3C//DTD SVG 20010904//EN"
 "http://www.w3.org/TR/2001/REC-SVG-20010904/DTD/svg10.dtd">
<svg version="1.0" xmlns="http://www.w3.org/2000/svg"
 width="136.000000pt" height="100.000000pt" viewBox="0 0 136.000000 100.000000"
 preserveAspectRatio="xMidYMid meet">
<metadata>
Created by potrace 1.16, written by Peter Selinger 2001-2019
</metadata>
<g transform="translate(0.000000,100.000000) scale(0.100000,-0.100000)"
fill="#000000" stroke="none">
<path d="M960 875 c-25 -25 -64 -55 -88 -67 -40 -19 -55 -20 -144 -14 l-99 6
6 -101 6 -102 -28 7 c-15 3 -75 13 -133 21 -122 18 -196 39 -221 61 -9 8 -28
14 -41 12 -22 -3 -23 -6 -26 -127 -3 -154 7 -175 64 -126 16 14 43 32 60 40
16 8 47 28 68 45 57 44 101 53 188 37 l73 -13 -2 -40 c0 -21 -4 -78 -8 -126
l-8 -88 -116 0 c-64 1 -145 7 -181 15 -36 8 -78 14 -94 15 -16 0 -35 8 -42 18
-22 29 -33 2 -44 -103 -11 -119 -4 -169 27 -173 16 -2 30 9 54 45 42 61 63 78
119 99 25 10 49 21 55 26 5 4 58 8 117 8 l108 0 1 -32 c1 -18 1 -39 0 -46 -3
-20 19 -42 40 -42 10 0 30 -16 45 -35 51 -68 104 -72 104 -9 0 20 11 50 26 74
16 24 24 46 20 58 -5 16 2 25 36 44 24 13 59 30 78 38 19 8 37 17 40 21 3 4
32 22 65 39 77 42 165 116 165 139 0 10 -17 34 -37 53 -148 137 -143 130 -153
187 -6 29 -10 77 -10 105 0 88 -26 97 -90 31z m40 -80 c0 -40 -17 -46 -45 -15
-18 20 -18 21 1 35 31 24 44 18 44 -20z m-195 -55 c4 -6 -9 -28 -28 -49 -18
-20 -42 -52 -53 -69 -32 -55 -44 -41 -44 48 l0 80 59 0 c33 0 63 -5 66 -10z
m163 -37 c132 -114 191 -162 211 -172 28 -16 27 -32 -6 -63 -35 -32 -118 -88
-131 -88 -21 0 -22 66 -1 120 12 30 22 64 23 75 2 37 -33 28 -85 -20 -27 -25
-55 -45 -62 -42 -15 5 -13 55 3 121 14 56 0 76 -35 51 -56 -41 -65 -46 -80
-43 -11 2 0 18 36 56 28 28 56 52 62 52 5 0 35 -21 65 -47z m-629 -96 c19 -7
36 -16 38 -22 2 -9 -113 -85 -129 -85 -3 0 -5 27 -5 60 2 60 2 60 32 59 16 0
45 -5 64 -12z m520 -18 c-10 -19 -39 -25 -53 -12 -10 10 35 42 51 36 9 -4 10
-10 2 -24z m-72 -46 c69 -29 66 -41 -17 -96 -51 -34 -90 -47 -90 -29 1 16 28
121 35 131 9 15 23 14 72 -6z m176 -112 c6 -16 21 -35 34 -42 13 -7 22 -17 20
-22 -5 -15 -308 -177 -332 -177 -3 0 -5 36 -5 79 0 95 12 106 73 65 22 -14 54
-27 71 -28 29 -1 31 1 32 34 1 62 4 71 30 95 36 34 63 32 77 -4z m-153 -36 c0
-38 -18 -47 -41 -19 -11 14 -9 19 11 35 14 10 26 19 28 19 1 0 2 -16 2 -35z
m-524 -125 c15 0 24 -6 24 -15 0 -8 -5 -15 -10 -15 -6 0 -30 -18 -54 -40 -24
-22 -46 -40 -50 -40 -8 0 -8 68 1 98 5 20 10 23 36 18 16 -3 40 -6 53 -6z
m544 -60 c0 -13 -51 -90 -59 -90 -8 0 -41 38 -41 48 0 7 76 49 93 51 4 1 7 -4
7 -9z"/>
</g>
</svg>
