<?xml version="1.0" standalone="no"?>
<!DOCTYPE svg PUBLIC "-//W3C//DTD SVG 20010904//EN"
 "http://www.w3.org/TR/2001/REC-SVG-20010904/DTD/svg10.dtd">
<svg version="1.0" xmlns="http://www.w3.org/2000/svg"
 width="148.000000pt" height="126.000000pt" viewBox="0 0 148.000000 126.000000"
 preserveAspectRatio="xMidYMid meet">
<metadata>
Created by potrace 1.16, written by Peter Selinger 2001-2019
</metadata>
<g transform="translate(0.000000,126.000000) scale(0.100000,-0.100000)"
fill="#000000" stroke="none">
<path d="M650 1095 c-36 -19 -89 -39 -118 -46 -29 -7 -55 -16 -58 -21 -3 -5
10 -15 28 -22 33 -14 118 -90 118 -106 0 -5 -15 -10 -32 -12 l-33 -3 4 -50 c2
-27 5 -70 5 -95 l1 -45 -80 -8 c-56 -6 -109 -5 -175 5 -88 12 -96 15 -108 41
-26 54 -56 -4 -40 -78 7 -35 7 -58 0 -80 -6 -16 -12 -69 -13 -117 -2 -73 0
-91 16 -108 10 -11 22 -20 26 -20 5 0 27 18 51 39 23 22 74 55 113 74 65 32
75 34 143 30 l73 -5 -4 -84 c-3 -45 -8 -87 -11 -92 -3 -5 -39 -26 -81 -46 -72
-37 -93 -55 -59 -52 23 2 27 -16 10 -39 -12 -17 -17 -18 -40 -7 -17 7 -26 19
-24 29 2 14 -5 19 -30 21 -54 5 -53 -22 5 -79 47 -46 52 -49 77 -38 23 11 66
79 66 105 0 14 35 46 101 91 81 55 119 90 119 107 0 24 -13 19 -45 -14 -16
-17 -31 -30 -35 -30 -3 0 -5 68 -4 150 1 139 3 152 23 173 11 13 21 27 21 31
0 4 10 21 21 38 l22 30 23 -29 c19 -24 23 -25 29 -11 4 9 -1 28 -10 42 -18 28
-13 46 14 46 18 0 95 -60 171 -133 25 -24 57 -47 71 -50 43 -11 78 -44 77 -75
-1 -21 -13 -36 -57 -67 -31 -22 -77 -51 -103 -65 -26 -14 -79 -42 -117 -62
-38 -20 -92 -53 -119 -72 -27 -20 -56 -36 -65 -36 -31 0 -107 -39 -101 -52 2
-7 25 -25 49 -40 29 -18 45 -34 45 -47 0 -11 4 -22 9 -25 13 -8 59 31 66 57 4
12 18 45 30 72 13 28 26 57 29 66 2 9 26 27 53 41 26 13 66 35 88 48 22 12 60
34 85 48 25 14 74 43 109 65 56 36 66 39 84 27 11 -7 54 -30 96 -51 66 -35 77
-37 90 -25 13 13 10 17 -18 33 -68 38 -65 30 -48 129 14 84 11 114 -12 114 -4
0 -39 -27 -77 -60 l-69 -60 -35 34 c-19 19 -46 37 -60 41 -14 4 -46 28 -72 53
-26 25 -54 50 -63 55 -12 6 -13 12 -5 22 12 15 14 46 7 128 -7 90 -19 93 -85
19 -37 -40 -66 -63 -82 -65 -20 -2 -24 2 -22 18 2 11 3 46 3 78 -1 40 5 70 19
98 35 68 16 74 -80 24z m18 -111 l1 -77 -44 44 c-25 24 -45 49 -45 56 0 9 63
50 82 52 3 1 6 -33 6 -75z m190 -127 c4 -43 -12 -49 -49 -18 l-24 19 20 21
c30 30 49 22 53 -22z m-193 -31 c19 -14 19 -15 -4 -58 -28 -50 -39 -64 -46
-56 -9 8 -17 107 -10 118 9 14 38 12 60 -4z m-327 -181 c5 -5 -116 -85 -127
-85 -6 0 -8 16 -5 38 9 64 8 63 71 56 32 -4 59 -8 61 -9z m226 -17 c3 -13 6
-43 6 -67 l0 -43 -142 7 c-79 4 -146 9 -151 12 -14 8 112 93 141 94 15 1 38 5
52 9 14 4 39 8 56 9 25 1 33 -4 38 -21z m676 -17 c0 -39 -13 -81 -25 -81 -7 0
-23 9 -36 19 l-24 20 35 30 c41 35 50 38 50 12z m-947 -121 c26 0 47 -4 47
-10 0 -5 -19 -18 -42 -29 -24 -11 -54 -31 -67 -45 -40 -43 -55 -35 -47 26 9
64 13 71 40 64 11 -3 42 -6 69 -6z m397 -251 c0 -7 -10 -27 -21 -46 l-21 -34
-25 23 -24 23 26 22 c28 24 65 31 65 12z"/>
</g>
</svg>
