<?xml version="1.0" standalone="no"?>
<!DOCTYPE svg PUBLIC "-//W3C//DTD SVG 20010904//EN"
 "http://www.w3.org/TR/2001/REC-SVG-20010904/DTD/svg10.dtd">
<svg version="1.0" xmlns="http://www.w3.org/2000/svg"
 width="110.000000pt" height="76.000000pt" viewBox="0 0 110.000000 76.000000"
 preserveAspectRatio="xMidYMid meet">
<metadata>
Created by potrace 1.16, written by Peter Selinger 2001-2019
</metadata>
<g transform="translate(0.000000,76.000000) scale(0.100000,-0.100000)"
fill="#000000" stroke="none">
<path d="M516 613 c-4 -4 -65 -8 -134 -8 -120 0 -127 -1 -127 -20 0 -14 8 -21
27 -23 49 -6 107 -133 61 -132 -10 1 -47 8 -83 16 -36 9 -77 18 -92 21 -15 3
-33 11 -39 19 -15 18 -43 18 -59 -1 -15 -18 -14 -168 1 -196 12 -24 29 -24 83
1 81 37 209 80 219 73 6 -4 8 -51 5 -127 -6 -130 -4 -146 17 -146 18 0 22 26
31 168 l7 122 36 1 c20 0 72 2 116 4 l80 4 -25 -20 c-108 -85 -131 -107 -136
-127 -8 -30 -1 -36 24 -23 28 15 77 14 103 -1 12 -7 42 -35 68 -63 73 -78 103
-104 125 -107 13 -2 22 -12 24 -25 2 -15 10 -23 22 -23 15 0 20 10 25 48 25
196 38 246 79 307 23 33 53 73 68 90 16 16 28 35 28 42 0 14 -42 23 -130 26
l-65 2 0 -35 0 -35 -115 -6 c-183 -10 -330 -10 -330 0 0 12 48 70 78 94 41 34
53 49 50 66 -4 17 -29 26 -42 14z m-66 -67 c0 -16 -26 -46 -40 -46 -5 0 -14
10 -21 21 -9 17 -8 23 2 30 22 14 59 10 59 -5z m529 -90 c9 -10 9 -16 1 -21
-6 -4 -15 -18 -21 -32 -12 -32 -29 -20 -29 21 0 47 24 62 49 32z m-754 -50
l60 -14 -40 -17 c-103 -44 -107 -45 -121 -34 -14 12 -19 61 -7 72 9 10 39 8
108 -7z m656 -33 c2 -52 -3 -85 -17 -120 -8 -19 -12 -43 -9 -54 7 -23 -4 -109
-15 -109 -11 0 -42 31 -79 78 -35 45 -35 38 -15 172 3 25 12 48 18 52 6 4 35
8 64 8 50 0 52 -1 53 -27z m-195 -48 c9 -23 -5 -65 -21 -65 -19 0 -65 21 -65
31 0 7 59 47 73 48 4 1 10 -6 13 -14z"/>
<path d="M1078 249 c-19 -11 -58 -107 -58 -144 0 -13 5 -27 10 -30 15 -9 40
14 40 37 0 11 7 41 16 68 19 59 16 83 -8 69z"/>
</g>
</svg>
