<?xml version="1.0" standalone="no"?>
<!DOCTYPE svg PUBLIC "-//W3C//DTD SVG 20010904//EN"
 "http://www.w3.org/TR/2001/REC-SVG-20010904/DTD/svg10.dtd">
<svg version="1.0" xmlns="http://www.w3.org/2000/svg"
 width="234.000000pt" height="106.000000pt" viewBox="0 0 234.000000 106.000000"
 preserveAspectRatio="xMidYMid meet">
<metadata>
Created by potrace 1.16, written by Peter Selinger 2001-2019
</metadata>
<g transform="translate(0.000000,106.000000) scale(0.100000,-0.100000)"
fill="#000000" stroke="none">
<path d="M131 998 c-43 -46 -51 -68 -24 -68 20 0 93 75 93 95 0 27 -28 16 -69
-27z"/>
<path d="M498 950 c-2 -7 5 -47 15 -89 17 -67 18 -87 9 -171 -7 -52 -11 -102
-9 -110 3 -23 -14 -129 -21 -134 -4 -2 -43 2 -87 9 -44 7 -117 15 -163 18 -78
5 -84 4 -91 -16 -5 -12 -7 -48 -5 -80 2 -33 0 -77 -5 -99 -15 -64 16 -95 67
-69 29 16 192 42 307 51 61 5 157 13 215 19 58 5 169 12 248 15 79 4 152 11
163 16 11 7 91 11 192 11 94 0 228 4 297 10 293 22 350 23 350 8 0 -8 -34 -41
-75 -74 -41 -33 -75 -68 -75 -77 0 -9 16 -26 35 -38 19 -12 40 -30 45 -41 12
-21 50 -25 67 -8 7 7 9 24 6 40 -4 20 3 39 24 71 16 23 35 55 42 71 19 36 41
35 41 -3 0 -28 29 -57 44 -43 12 12 6 84 -10 108 -24 36 -12 61 61 137 36 38
65 72 65 77 0 5 -6 14 -14 20 -11 9 -27 -3 -82 -64 -98 -108 -107 -103 -78 43
13 64 14 86 5 95 -9 9 -16 9 -29 0 -9 -7 -42 -24 -72 -38 -30 -15 -66 -32 -80
-39 -34 -16 -39 -46 -8 -46 19 0 34 -15 66 -63 23 -35 42 -66 42 -69 0 -6
-233 -19 -525 -27 l-230 -7 -40 27 c-33 23 -40 32 -37 56 1 15 5 78 8 140 l6
112 29 10 c34 12 38 27 9 36 -11 3 -20 13 -20 20 0 21 58 115 82 135 14 11 19
23 15 34 -6 15 -18 16 -114 10 -121 -8 -504 -9 -573 -2 -25 3 -59 8 -76 12
-22 6 -33 4 -36 -4z m630 -73 c-3 -21 -9 -22 -107 -25 -62 -2 -108 1 -114 7
-17 17 -3 22 65 28 35 3 65 6 66 8 2 2 24 3 48 3 41 0 45 -2 42 -21z m82 9 c0
-24 -26 -38 -40 -22 -6 9 -9 20 -5 26 9 15 45 12 45 -4z m-612 -8 c-7 -19 -38
-22 -38 -4 0 10 9 16 21 16 12 0 19 -5 17 -12z m248 1 c11 -18 -16 -28 -68
-24 -60 5 -90 14 -83 26 9 13 142 11 151 -2z m-138 -86 c14 -23 14 -23 -36
-23 -52 0 -68 10 -58 36 9 24 75 14 94 -13z m135 5 c8 -27 1 -38 -24 -38 -20
0 -59 33 -59 50 0 6 17 10 39 10 31 0 40 -4 44 -22z m289 -6 c6 -6 8 -18 4
-28 -6 -15 -19 -16 -118 -11 -113 6 -135 13 -125 41 5 14 23 16 117 12 61 -2
116 -8 122 -14z m-352 -81 c0 -15 -23 -18 -104 -12 -109 8 -115 29 -9 33 76 3
113 -4 113 -21z m348 -37 l3 -41 -91 -7 c-91 -7 -110 -4 -110 16 0 7 28 9 86
5 70 -4 86 -2 91 10 10 25 -18 33 -119 33 -81 0 -98 3 -98 15 0 13 17 15 118
13 l117 -3 3 -41z m-293 -25 c22 -22 -15 -28 -138 -22 -92 4 -127 9 -127 19 0
7 5 14 10 16 22 7 245 -4 255 -13z m-1 -79 c4 -4 5 -14 1 -20 -5 -9 -39 -10
-124 -5 -135 8 -151 11 -151 32 0 13 18 14 133 8 72 -3 136 -10 141 -15z m293
4 c8 -22 -15 -34 -61 -29 -37 3 -60 20 -50 37 3 4 28 8 55 8 36 0 51 -4 56
-16z m-176 -5 c27 -14 14 -29 -25 -29 -39 0 -50 8 -35 27 14 16 33 17 60 2z
m1079 -15 c0 -32 -18 -66 -31 -58 -19 11 -30 55 -18 70 20 24 49 17 49 -12z
m-1302 -50 c67 -5 92 -11 92 -20 0 -16 -27 -17 -172 -7 -72 4 -98 10 -98 20 0
15 38 16 178 7z m298 -11 c16 -16 15 -17 -7 -23 -42 -10 -139 0 -139 15 0 26
122 32 146 8z m94 -3 c0 -23 -25 -27 -33 -6 -7 16 1 26 20 26 7 0 13 -9 13
-20z m-300 -66 c7 -7 6 -16 -2 -26 -11 -12 -25 -14 -78 -8 -132 15 -170 23
-182 38 -11 13 3 14 120 10 73 -3 137 -9 142 -14z m-403 -16 c59 -10 73 -16
82 -35 12 -27 26 -30 39 -8 7 14 14 14 67 0 33 -8 77 -15 100 -16 22 -1 51 -4
65 -8 22 -6 20 -8 -20 -15 -25 -4 -106 -11 -180 -16 -74 -5 -180 -16 -235 -24
-144 -22 -131 -28 -129 62 0 42 2 79 3 81 1 5 120 -7 208 -21z m687 3 c31 -34
12 -41 -110 -41 -93 0 -116 3 -120 15 -14 36 2 43 108 44 92 2 106 -1 122 -18z
m886 -141 c0 -20 -50 -90 -65 -90 -30 0 -26 23 11 60 40 40 54 47 54 30z"/>
</g>
</svg>
