<?xml version="1.0" standalone="no"?>
<!DOCTYPE svg PUBLIC "-//W3C//DTD SVG 20010904//EN"
 "http://www.w3.org/TR/2001/REC-SVG-20010904/DTD/svg10.dtd">
<svg version="1.0" xmlns="http://www.w3.org/2000/svg"
 width="540.000000pt" height="102.000000pt" viewBox="0 0 540.000000 102.000000"
 preserveAspectRatio="xMidYMid meet">
<metadata>
Created by potrace 1.16, written by Peter Selinger 2001-2019
</metadata>
<g transform="translate(0.000000,102.000000) scale(0.100000,-0.100000)"
fill="#000000" stroke="none">
<path d="M1281 1007 c-13 -16 -5 -27 20 -27 14 0 29 18 29 36 0 10 -39 3 -49
-9z"/>
<path d="M504 918 c-4 -6 1 -17 11 -24 22 -16 22 -76 -1 -194 -8 -41 -14 -112
-14 -158 0 -61 -4 -84 -14 -88 -7 -3 -60 7 -117 21 -166 43 -156 43 -167 -1
-6 -22 -13 -77 -17 -123 l-7 -84 35 6 c19 3 57 22 83 43 97 74 118 79 314 78
96 -1 238 -4 315 -8 77 -3 250 -6 384 -6 l245 0 -32 -33 c-17 -18 -54 -46 -82
-62 -27 -17 -50 -36 -50 -43 0 -7 20 -22 45 -33 24 -11 48 -26 52 -34 5 -8 19
-16 33 -17 21 -3 25 2 30 32 8 42 42 111 65 130 13 11 19 10 38 -9 13 -11 31
-21 40 -21 30 0 19 37 -20 70 l-38 32 30 23 c17 14 50 39 74 57 50 37 60 55
37 64 -9 4 -39 -12 -75 -40 -57 -44 -61 -45 -71 -27 -17 33 -11 80 15 125 21
36 23 45 11 55 -10 9 -26 2 -74 -33 -33 -24 -75 -52 -93 -62 -62 -31 -64 -54
-8 -90 29 -18 38 -29 31 -36 -17 -17 -445 -15 -472 2 -14 9 -3 250 11 250 5 0
9 9 9 19 0 11 4 21 8 23 4 2 20 24 35 50 15 26 33 53 41 61 8 8 16 23 18 33 2
16 -6 20 -52 27 -30 4 -125 10 -210 13 -85 3 -159 10 -165 15 -14 14 -222 11
-231 -3z m126 -45 c0 -2 -11 -21 -25 -41 l-25 -37 0 42 c0 41 12 55 38 45 6
-2 12 -6 12 -9z m134 -12 c3 -4 1 -12 -3 -19 -9 -16 -103 -4 -98 12 7 21 89
26 101 7z m119 2 c11 -11 -24 -43 -48 -43 -29 0 -36 9 -24 31 9 19 58 27 72
12z m105 1 c15 -4 22 -14 22 -30 0 -22 -4 -24 -45 -24 -49 0 -56 11 -28 42 18
20 19 20 51 12z m100 -31 c-5 -25 -28 -28 -28 -4 0 12 6 21 16 21 9 0 14 -7
12 -17z m-345 -52 c6 -6 7 -17 3 -27 -5 -12 -14 -15 -37 -10 -18 3 -44 6 -60
6 -22 0 -29 5 -29 19 0 11 6 22 13 25 17 8 99 -2 110 -13z m87 -15 c0 -20 -19
-31 -32 -18 -6 6 -7 15 -4 21 10 16 36 13 36 -3z m175 -7 c6 -6 6 -15 -1 -26
-8 -13 -23 -17 -60 -15 -78 5 -85 9 -72 38 11 25 15 25 68 19 30 -4 59 -11 65
-16z m-317 -56 c49 -5 62 -9 58 -20 -4 -8 -6 -19 -6 -25 0 -7 -25 -9 -75 -4
-88 8 -105 13 -105 32 0 17 31 35 50 28 8 -3 43 -8 78 -11z m264 -23 c42 0 49
-3 46 -17 -3 -15 -16 -18 -91 -20 -48 0 -89 3 -92 7 -11 18 28 42 58 36 16 -3
52 -6 79 -6z m-264 -62 c22 8 43 -18 31 -39 -7 -15 -21 -19 -58 -19 -81 0
-111 9 -111 35 0 31 3 32 67 25 32 -4 64 -5 71 -2z m289 -15 c7 -3 13 -13 13
-23 0 -14 -12 -18 -67 -23 -146 -14 -175 -8 -153 33 10 19 20 20 103 19 50 -1
97 -4 104 -6z m593 -88 c0 -15 7 -39 15 -55 20 -39 9 -37 -37 5 -43 40 -44 43
-20 61 27 21 42 16 42 -11z m-862 0 c3 -3 1 -10 -5 -16 -8 -8 -35 -9 -82 -4
-67 7 -80 12 -64 29 7 7 143 -1 151 -9z m276 -10 c-9 -22 -224 -22 -224 0 0
12 19 15 115 15 98 0 114 -2 109 -15z m-344 -45 c39 0 50 -3 50 -16 0 -13 -7
-15 -31 -10 -17 3 -51 6 -75 6 -41 0 -44 2 -44 26 0 26 1 26 25 10 14 -9 45
-16 75 -16z m335 -20 c0 -13 -18 -15 -115 -12 -63 2 -117 5 -119 8 -14 14 29
20 127 20 88 -1 107 -4 107 -16z m-626 -12 c22 -8 20 -11 -40 -47 l-64 -39 -3
40 c-5 66 22 77 107 46z m1195 -141 c-30 -54 -35 -59 -54 -47 -12 7 -6 18 29
54 25 25 46 44 48 42 2 -1 -8 -24 -23 -49z"/>
<path d="M2622 891 c-6 -3 -12 -54 -15 -111 -4 -124 -32 -299 -50 -317 -19
-19 -113 0 -181 36 -31 17 -65 31 -76 31 -27 0 -39 -35 -33 -94 3 -26 0 -72
-7 -101 -11 -44 -11 -57 0 -70 17 -21 35 -19 62 8 13 12 48 32 78 44 158 63
210 68 410 40 102 -14 191 -19 300 -16 111 3 350 -14 350 -25 -1 -14 -84 -76
-135 -99 l-40 -19 43 -38 c49 -44 107 -74 128 -66 8 3 19 17 24 31 48 127 80
162 100 110 11 -29 37 -42 52 -27 12 12 -4 64 -29 93 -7 8 -13 31 -13 50 0 28
10 44 59 94 65 65 78 90 53 100 -12 4 -36 -16 -85 -69 -38 -42 -73 -74 -78
-70 -17 10 -9 74 15 134 22 54 23 61 9 75 -8 9 -18 14 -22 12 -17 -9 -100 -47
-133 -61 -51 -20 -52 -54 -2 -93 19 -15 45 -46 56 -67 l20 -39 -144 7 c-78 4
-172 11 -207 14 -61 7 -65 9 -72 36 -5 16 -5 34 -1 40 3 6 5 24 3 39 -1 16 3
51 9 78 10 41 17 50 39 55 47 10 51 13 51 39 0 29 49 106 89 142 26 23 26 23
6 39 -14 11 -30 13 -55 8 -87 -16 -438 -1 -531 24 -21 5 -42 7 -47 3z m85 -81
c1 -8 -9 -28 -22 -45 l-25 -30 0 32 c0 17 3 39 6 48 8 19 38 16 41 -5z m361
-13 c2 -9 -2 -17 -10 -18 -21 -1 -190 4 -218 6 -14 1 -38 3 -54 3 -22 2 -26 5
-18 15 8 9 50 12 154 12 127 0 143 -2 146 -18z m88 2 c9 -15 -11 -33 -30 -26
-9 4 -13 13 -10 22 7 17 30 20 40 4z m-101 -70 c19 -19 -11 -27 -100 -29 -218
-4 -254 1 -241 35 6 17 20 17 169 11 89 -4 166 -11 172 -17z m-181 -69 c160 0
174 -4 155 -42 -7 -13 -19 -16 -57 -13 -26 3 -109 7 -186 9 -76 3 -141 7 -144
10 -3 4 5 17 18 31 17 19 27 22 41 15 10 -6 87 -10 173 -10z m-107 -86 c129 0
241 -13 246 -29 3 -6 1 -18 -3 -25 -7 -11 -29 -11 -122 -2 -63 7 -144 12 -180
12 -58 0 -67 3 -73 20 -3 11 -3 29 0 41 6 19 7 20 20 2 11 -15 29 -18 112 -19z
m723 -53 c0 -26 -17 -36 -36 -21 -11 10 -12 16 -3 26 17 20 39 17 39 -5z
m-560 -46 c61 -8 74 -17 65 -45 -6 -20 -12 -21 -53 -16 -26 2 -107 9 -179 15
-73 5 -137 12 -142 15 -5 3 -7 15 -4 26 5 18 13 19 137 15 72 -2 151 -7 176
-10z m-474 -65 c21 0 47 -20 27 -20 -4 0 -39 -9 -78 -20 -38 -11 -73 -20 -78
-20 -6 0 -1 66 8 96 2 8 20 4 51 -12 26 -13 58 -24 70 -24z m1044 -135 c0 -15
-55 -108 -67 -112 -8 -3 -22 2 -33 12 -19 17 -19 18 18 45 20 14 43 34 51 43
13 16 31 23 31 12z"/>
<path d="M4567 884 c-3 -5 2 -40 10 -78 13 -56 13 -75 3 -106 -9 -29 -10 -42
0 -59 15 -28 -6 -170 -26 -178 -8 -3 -27 6 -44 18 -16 13 -43 34 -60 47 -19
15 -30 33 -30 48 0 13 -6 24 -13 24 -26 0 -78 -32 -87 -54 -14 -32 -30 -157
-30 -225 0 -68 15 -79 55 -41 11 10 58 38 104 60 l84 41 136 -7 c75 -4 186 -8
246 -10 138 -2 137 -2 131 -12 -2 -4 -25 -18 -50 -31 -25 -12 -46 -29 -46 -37
0 -14 97 -114 111 -114 10 0 44 -33 62 -63 11 -17 26 -27 42 -27 37 0 32 29
-15 89 -22 28 -40 54 -40 58 0 4 12 36 26 71 26 59 29 62 61 62 43 0 53 23 24
54 -11 12 -21 29 -21 38 0 28 30 75 81 127 41 41 48 55 39 66 -9 11 -19 9 -62
-13 -27 -15 -69 -37 -92 -49 -22 -12 -51 -22 -63 -22 -21 -1 -53 -25 -53 -39
0 -4 14 -25 30 -46 16 -21 27 -43 24 -47 -3 -5 -24 -9 -46 -9 l-41 0 7 107 c4
59 10 111 12 115 3 5 16 8 30 8 25 0 32 18 14 36 -7 7 9 30 50 71 34 35 58 67
55 75 -4 10 -48 13 -205 14 -179 1 -202 3 -220 19 -15 14 -41 20 -104 23 -46
2 -86 0 -89 -4z m101 -74 c-15 -24 -41 -22 -46 3 -3 13 3 17 27 17 29 0 30 -2
19 -20z m245 -16 c55 -4 77 -10 77 -19 0 -11 -26 -12 -132 -8 -73 3 -135 7
-137 9 -2 2 -1 10 2 18 5 11 19 14 59 10 29 -2 88 -6 131 -10z m162 -23 c-9
-16 -25 -3 -18 15 4 10 9 12 15 6 6 -6 7 -15 3 -21z m-220 -45 c118 -4 130 -6
130 -23 0 -16 -8 -18 -90 -15 -49 2 -117 7 -150 12 -64 8 -94 -2 -75 -25 9
-11 48 -16 225 -31 62 -6 78 -11 70 -24 -7 -11 -120 -13 -242 -3 l-83 6 0 47
c0 33 6 53 20 68 19 20 23 21 43 7 15 -10 62 -16 152 -19z m83 -165 c14 -4 28
-13 30 -20 3 -10 -5 -12 -34 -8 -22 4 -95 13 -163 21 -68 9 -126 18 -130 22
-8 8 261 -6 297 -15z m242 -36 c0 -16 -27 -32 -37 -22 -3 4 -3 13 0 22 8 20
37 20 37 0z m-310 -27 c30 -6 65 -10 78 -9 15 2 22 -3 22 -15 0 -15 -8 -16
-67 -10 -38 3 -116 9 -175 12 -60 4 -108 11 -108 15 0 30 119 33 250 7z m-461
-22 c13 -14 36 -30 52 -36 37 -16 36 -22 -3 -38 -18 -7 -48 -20 -66 -28 l-33
-14 2 57 c3 91 10 99 48 59z m318 -42 c-3 -3 -12 -4 -19 -1 -8 3 -5 6 6 6 11
1 17 -2 13 -5z m363 -118 c0 -20 -23 -56 -35 -56 -24 0 -31 31 -10 46 18 13
45 19 45 10z"/>
<path d="M96 621 c-4 -5 -2 -12 3 -15 5 -4 12 -2 15 3 4 5 2 12 -3 15 -5 4
-12 2 -15 -3z"/>
<path d="M5392 364 c-1 -7 -20 -42 -43 -79 -22 -37 -38 -73 -35 -81 20 -52 91
61 83 132 -2 22 -4 34 -5 28z"/>
<path d="M1963 298 c-6 -7 -20 -29 -30 -48 -72 -130 -76 -141 -65 -152 17 -17
37 4 78 83 20 38 41 69 46 69 13 0 6 53 -8 57 -6 2 -16 -2 -21 -9z"/>
<path d="M3966 271 c-42 -46 -73 -189 -45 -207 17 -10 31 10 40 60 4 25 18 66
29 92 29 64 15 98 -24 55z"/>
</g>
</svg>
