<?xml version="1.0" standalone="no"?>
<!DOCTYPE svg PUBLIC "-//W3C//DTD SVG 20010904//EN"
 "http://www.w3.org/TR/2001/REC-SVG-20010904/DTD/svg10.dtd">
<svg version="1.0" xmlns="http://www.w3.org/2000/svg"
 width="216.000000pt" height="116.000000pt" viewBox="0 0 216.000000 116.000000"
 preserveAspectRatio="xMidYMid meet">
<metadata>
Created by potrace 1.16, written by Peter Selinger 2001-2019
</metadata>
<g transform="translate(0.000000,116.000000) scale(0.100000,-0.100000)"
fill="#000000" stroke="none">
<path d="M88 1153 c6 -2 18 -2 25 0 6 3 1 5 -13 5 -14 0 -19 -2 -12 -5z"/>
<path d="M775 1150 c3 -5 15 -10 25 -10 10 0 22 5 25 10 4 6 -7 10 -25 10 -18
0 -29 -4 -25 -10z"/>
<path d="M976 1145 c4 -8 17 -15 30 -15 15 0 24 6 24 15 0 10 -10 15 -30 15
-22 0 -28 -4 -24 -15z"/>
<path d="M1610 1145 c0 -8 -4 -15 -9 -15 -5 0 -13 -9 -16 -20 -3 -11 -12 -26
-18 -32 -56 -59 -80 -118 -49 -118 12 0 53 54 75 97 9 17 22 37 29 45 7 8 19
24 26 36 11 20 10 22 -13 22 -16 0 -25 -6 -25 -15z"/>
<path d="M578 1020 c-22 -13 -24 -40 -3 -40 18 0 23 -80 14 -240 -8 -141 -18
-205 -33 -223 -18 -23 -162 -4 -279 37 l-98 35 -11 -25 c-9 -20 -9 -41 2 -92
13 -64 17 -158 9 -212 -3 -20 0 -24 16 -22 11 2 29 12 40 21 11 10 27 21 35
25 8 3 42 22 75 41 109 62 134 75 151 75 9 0 18 9 21 20 3 11 8 21 12 21 3 1
15 3 26 6 11 2 45 6 76 9 52 5 57 4 62 -17 6 -21 7 -21 31 -6 20 14 44 16 138
11 62 -2 142 -9 178 -14 36 -5 134 -9 218 -9 84 0 171 -5 192 -11 21 -6 42
-10 47 -9 41 7 222 -3 236 -13 14 -12 11 -17 -29 -52 -25 -21 -71 -49 -102
-62 -32 -13 -58 -29 -60 -36 -4 -18 22 -46 77 -83 42 -28 44 -29 57 -10 8 10
14 23 14 28 0 32 84 167 103 167 7 0 19 -16 26 -36 9 -24 18 -34 29 -32 22 5
18 47 -9 92 l-20 34 65 72 c71 80 98 130 67 130 -10 0 -27 -17 -40 -40 -29
-53 -102 -123 -114 -111 -9 9 6 71 40 169 25 70 9 73 -102 17 -52 -26 -98 -51
-101 -56 -3 -5 5 -13 18 -18 21 -8 98 -107 98 -126 0 -7 -137 -2 -245 9 -65 7
-247 17 -372 21 -157 5 -233 14 -233 28 0 8 107 6 230 -6 18 -1 25 4 28 18 2
11 6 27 9 35 4 8 8 40 9 71 1 33 8 67 17 79 12 18 13 26 4 41 -9 15 -8 21 8
33 17 12 18 18 8 34 -10 17 -5 28 42 85 30 36 62 70 71 75 44 25 4 31 -211 36
-121 3 -251 10 -290 16 -108 17 -228 22 -247 10z m122 -54 c0 -20 -49 -76 -66
-76 -15 0 -19 44 -8 74 8 21 74 22 74 2z m130 -9 c0 -22 -24 -67 -36 -67 -12
0 -25 66 -15 75 10 11 51 4 51 -8z m89 -14 c13 -25 -5 -53 -34 -53 -28 0 -32
18 -13 50 16 25 34 26 47 3z m116 7 c11 -17 -26 -60 -51 -60 -21 0 -24 5 -24
33 0 32 2 34 35 35 19 1 37 -3 40 -8z m90 -16 c23 -24 13 -39 -28 -42 -41 -4
-48 10 -20 40 20 22 27 22 48 2z m118 10 c7 -7 -44 -74 -55 -74 -5 0 -8 18 -8
40 0 37 2 40 28 40 16 0 31 -3 35 -6z m-493 -24 c0 -11 -7 -20 -15 -20 -18 0
-19 12 -3 28 16 16 18 15 18 -8z m-10 -85 c0 -22 -4 -25 -40 -25 -22 0 -40 3
-40 7 0 16 35 43 57 43 18 0 23 -5 23 -25z m175 15 c3 -6 3 -19 0 -31 -5 -16
-14 -20 -43 -17 -31 2 -36 6 -34 23 2 11 9 23 15 27 17 11 55 10 62 -2z m65
-2 c0 -19 -18 -43 -25 -36 -9 9 4 48 16 48 5 0 9 -6 9 -12z m-185 -7 c3 -5 1
-12 -5 -16 -5 -3 -10 1 -10 9 0 18 6 21 15 7z m346 -8 c17 -17 -8 -30 -69 -36
-67 -6 -88 7 -62 38 13 16 115 14 131 -2z m-427 -59 c9 -3 16 -15 16 -25 0
-16 -8 -19 -44 -19 -46 0 -62 11 -52 35 5 15 51 20 80 9z m180 -10 c30 -12 5
-34 -40 -34 -42 0 -57 14 -37 33 8 9 56 9 77 1z m250 -2 c5 -1 3 -9 -4 -17 -9
-11 -34 -15 -97 -15 -77 0 -83 1 -74 18 8 14 23 17 88 16 43 0 82 -1 87 -2z
m-430 -73 c18 -16 -3 -39 -37 -39 -39 0 -57 14 -50 40 4 15 12 17 41 13 21 -3
41 -9 46 -14z m176 -11 c0 -10 -3 -19 -7 -19 -52 -8 -78 -7 -90 2 -22 19 2 36
52 36 37 0 45 -4 45 -19z m218 16 c23 -7 32 -43 10 -45 -57 -3 -175 4 -182 11
-5 5 -6 16 -3 24 5 13 22 16 79 16 40 0 83 -3 96 -6z m-233 -89 c0 -17 -8 -20
-54 -23 -58 -3 -75 5 -65 32 5 14 17 16 63 14 48 -3 56 -6 56 -23z m-165 -5
c0 -21 -23 -26 -67 -14 -42 11 -27 34 22 34 38 0 45 -3 45 -20z m395 11 c14
-6 5 -9 -35 -14 -96 -12 -150 -9 -150 8 0 12 16 15 83 14 45 0 91 -4 102 -8z
m675 -20 c0 -29 -14 -71 -24 -71 -6 0 -20 14 -29 30 -18 30 -18 30 5 39 30 13
48 13 48 2z m-660 -46 c0 -8 -6 -15 -12 -16 -29 -2 -193 3 -197 6 -1 2 0 8 4
14 4 7 46 11 106 11 81 0 99 -3 99 -15z m-420 -1 c0 -15 -48 -43 -72 -44 -21
0 -28 5 -28 18 0 10 3 22 7 25 8 9 93 9 93 1z m150 -4 c0 -5 -7 -10 -16 -10
-8 0 -12 5 -9 10 3 6 10 10 16 10 5 0 9 -4 9 -10z m-555 -36 c20 -8 62 -20 93
-25 75 -14 77 -17 47 -44 -32 -31 -173 -108 -183 -101 -5 3 -9 32 -10 66 -1
33 -6 69 -12 80 -23 43 -1 52 65 24z m549 0 c28 -11 6 -24 -39 -24 -52 0 -69
17 -23 23 18 2 36 5 40 5 3 1 13 -1 22 -4z m830 -269 c-10 -19 -24 -35 -30
-35 -16 0 -42 32 -29 37 6 2 24 11 40 22 17 10 32 17 34 15 2 -2 -4 -20 -15
-39z"/>
<path d="M2034 222 c-15 -31 -35 -69 -45 -83 -19 -26 -16 -39 7 -39 15 0 79
103 89 141 5 19 2 28 -8 32 -11 4 -23 -11 -43 -51z"/>
</g>
</svg>
