<?xml version="1.0" standalone="no"?>
<!DOCTYPE svg PUBLIC "-//W3C//DTD SVG 20010904//EN"
 "http://www.w3.org/TR/2001/REC-SVG-20010904/DTD/svg10.dtd">
<svg version="1.0" xmlns="http://www.w3.org/2000/svg"
 width="188.000000pt" height="110.000000pt" viewBox="0 0 188.000000 110.000000"
 preserveAspectRatio="xMidYMid meet">
<metadata>
Created by potrace 1.16, written by Peter Selinger 2001-2019
</metadata>
<g transform="translate(0.000000,110.000000) scale(0.100000,-0.100000)"
fill="#000000" stroke="none">
<path d="M506 951 c-5 -7 -18 -16 -30 -21 -29 -11 -42 -82 -61 -337 -8 -101
-17 -199 -21 -219 l-7 -37 -96 5 c-108 6 -144 0 -149 -25 -3 -15 7 -17 82 -17
47 0 107 -5 133 -10 26 -6 155 -12 286 -13 216 -4 239 -6 251 -22 15 -21 46
-14 46 10 0 12 16 15 88 17 48 0 98 2 112 3 14 2 79 5 145 9 267 13 385 16
385 8 0 -10 -130 -109 -169 -128 -19 -9 -31 -23 -31 -35 0 -31 -1 -31 142 66
52 34 128 112 128 130 0 8 -17 34 -37 56 -21 23 -49 62 -63 88 -28 51 -63 63
-68 24 -3 -22 28 -90 57 -126 8 -9 12 -20 9 -23 -4 -3 -71 -8 -150 -10 -78 -3
-213 -9 -298 -14 -85 -6 -176 -10 -201 -10 l-47 0 3 48 c4 49 31 164 46 194 5
10 9 31 9 48 0 18 6 33 15 36 11 5 12 10 4 26 -7 14 -9 60 -6 133 6 102 4 114
-13 130 -16 14 -51 18 -253 22 -177 5 -236 3 -241 -6z m401 -55 c3 -3 3 -12 0
-20 -5 -11 -25 -13 -114 -9 -163 8 -226 16 -231 31 -3 10 30 12 168 8 95 -3
174 -7 177 -10z m63 -71 l0 -55 -50 0 c-27 0 -50 4 -50 9 0 13 50 51 66 51 8
0 14 8 14 18 0 17 8 32 17 32 2 0 3 -25 3 -55z m-237 10 c59 -4 110 -11 113
-16 3 -6 0 -17 -7 -25 -17 -21 -245 -9 -271 14 -32 27 -23 44 20 38 20 -3 85
-8 145 -11z m-218 -43 c-35 -4 -39 1 -24 29 l12 23 20 -25 19 -24 -27 -3z m52
-58 c17 -24 7 -31 -47 -36 -37 -2 -45 0 -48 15 -2 10 -1 24 2 32 7 20 76 12
93 -11z m202 10 c11 -3 8 -10 -9 -29 -32 -34 -109 -36 -140 -3 -23 25 -25 34
-7 41 13 6 132 -2 156 -9z m194 -16 c2 -7 1 -23 -4 -34 -7 -21 -12 -22 -91
-17 -46 3 -85 8 -88 10 -3 3 9 16 25 29 24 19 42 24 91 24 40 0 64 -4 67 -12z
m-345 -87 c3 -10 -1 -12 -19 -8 -36 10 -99 -3 -99 -20 0 -11 13 -14 58 -13 80
2 82 2 82 -15 0 -26 -36 -36 -111 -29 l-71 7 6 40 c4 22 9 44 12 49 9 15 137
5 142 -11z m72 3 c0 -8 -5 -12 -10 -9 -6 4 -8 11 -5 16 9 14 15 11 15 -7z
m186 -4 c46 0 74 -4 74 -11 0 -11 -158 -12 -208 -1 -36 7 -4 24 32 17 16 -3
62 -5 102 -5z m62 -65 c2 -2 0 -15 -4 -29 -5 -23 -11 -26 -33 -22 -14 3 -57 8
-96 12 -65 6 -105 23 -105 46 0 7 229 0 238 -7z m-358 -62 c0 -17 -36 -43 -61
-43 -40 0 -59 10 -59 31 0 17 8 19 60 19 33 0 60 -3 60 -7z m163 -20 c30 -28
19 -33 -59 -32 -81 2 -104 16 -68 45 23 18 101 10 127 -13z m132 -2 c26 -4 40
-11 40 -21 0 -23 -91 -26 -116 -4 -30 27 -25 48 9 39 15 -5 45 -11 67 -14z
m-375 -60 c0 -11 -51 -53 -57 -47 -2 2 -1 15 3 30 4 19 13 26 30 26 13 0 24
-4 24 -9z m287 -23 c28 -23 -2 -29 -110 -22 -114 7 -153 17 -141 36 8 13 233
1 251 -14z m107 -3 c6 -18 -16 -30 -39 -21 -8 3 -15 12 -15 21 0 20 46 20 54
0z m-214 -52 c136 -6 186 -15 176 -32 -6 -9 -386 -3 -396 6 -11 11 45 44 64
39 12 -4 82 -9 156 -13z"/>
</g>
</svg>
