<?xml version="1.0" standalone="no"?>
<!DOCTYPE svg PUBLIC "-//W3C//DTD SVG 20010904//EN"
 "http://www.w3.org/TR/2001/REC-SVG-20010904/DTD/svg10.dtd">
<svg version="1.0" xmlns="http://www.w3.org/2000/svg"
 width="184.000000pt" height="146.000000pt" viewBox="0 0 184.000000 146.000000"
 preserveAspectRatio="xMidYMid meet">
<metadata>
Created by potrace 1.16, written by Peter Selinger 2001-2019
</metadata>
<g transform="translate(0.000000,146.000000) scale(0.100000,-0.100000)"
fill="#000000" stroke="none">
<path d="M377 1263 c-26 -7 -46 -55 -57 -136 -5 -40 -14 -94 -20 -120 -5 -26
-17 -95 -26 -154 -24 -162 -19 -155 -112 -147 -83 7 -109 -3 -80 -32 18 -18
149 -42 298 -54 189 -16 234 -21 242 -26 4 -3 49 -12 100 -20 101 -16 235 -46
338 -75 36 -11 83 -24 105 -30 22 -6 51 -15 65 -19 14 -5 85 -27 158 -50 79
-24 132 -46 132 -54 0 -7 -20 -41 -45 -77 -42 -60 -53 -88 -39 -101 8 -9 44 3
44 14 0 5 14 29 30 53 17 24 30 48 30 53 0 4 11 19 25 32 14 13 25 34 25 47 0
13 25 70 55 128 30 57 55 110 55 118 0 8 -18 42 -40 76 -22 34 -40 68 -40 77
0 15 -43 102 -85 169 -14 22 -34 57 -46 78 -14 27 -25 37 -35 33 -9 -3 -18 -6
-20 -6 -15 0 1 -53 26 -86 16 -21 30 -44 30 -49 0 -14 -48 -34 -154 -62 -50
-13 -113 -31 -141 -39 -101 -29 -401 -81 -411 -71 -4 4 -2 46 5 94 10 80 19
119 42 178 12 32 39 152 39 175 0 25 -32 39 -120 51 -36 5 -78 11 -95 14 -16
3 -70 8 -119 10 -50 2 -101 6 -115 9 -15 2 -34 2 -44 -1z m273 -74 c30 -6 69
-13 87 -13 58 -2 58 -17 -2 -91 -31 -37 -62 -80 -70 -95 -25 -48 -35 -52 -115
-39 -71 12 -72 13 -89 53 -10 23 -21 54 -25 71 -4 16 -16 49 -27 72 -11 24
-18 47 -15 52 7 11 193 5 256 -10z m-249 -150 c9 -30 15 -57 12 -61 -2 -5 -18
-8 -35 -8 l-31 0 7 46 c3 26 6 56 6 66 0 37 25 11 41 -43z m409 52 c0 -6 -11
-46 -25 -90 -23 -71 -29 -81 -50 -81 -49 0 -67 17 -45 43 6 7 31 40 55 75 42
57 65 76 65 53z m-372 -184 c6 -5 12 -18 12 -28 0 -11 10 -36 23 -57 13 -20
26 -45 30 -54 11 -31 36 -19 70 35 54 84 61 88 120 81 29 -4 53 -8 55 -9 9 -7
-24 -137 -37 -149 -12 -11 -65 -16 -215 -22 l-199 -7 7 39 c3 21 11 70 16 108
6 37 12 72 15 76 6 10 86 0 103 -13z m136 -6 c17 -6 16 -9 -9 -39 -15 -18 -30
-32 -34 -32 -12 0 -42 60 -36 70 7 11 51 12 79 1z m966 -83 c11 -18 22 -46 26
-63 4 -16 24 -56 46 -88 l40 -58 -53 -105 c-29 -57 -58 -104 -64 -104 -6 0
-47 13 -92 29 -74 27 -328 102 -413 121 -174 40 -264 56 -405 75 -165 22 -187
34 -70 37 127 3 148 2 166 -6 10 -4 22 -1 30 6 8 8 46 20 84 26 258 46 345 63
380 75 22 8 66 17 99 21 32 3 71 13 85 20 47 25 96 46 109 46 7 0 21 -14 32
-32z"/>
<path d="M1805 403 c-9 -32 -21 -68 -27 -81 -13 -25 2 -50 22 -37 31 19 58
175 30 175 -5 0 -17 -26 -25 -57z"/>
<path d="M1673 290 c-24 -10 -27 -18 -17 -44 14 -38 71 -5 59 34 -7 22 -10 23
-42 10z"/>
</g>
</svg>
