<?xml version="1.0" standalone="no"?>
<!DOCTYPE svg PUBLIC "-//W3C//DTD SVG 20010904//EN"
 "http://www.w3.org/TR/2001/REC-SVG-20010904/DTD/svg10.dtd">
<svg version="1.0" xmlns="http://www.w3.org/2000/svg"
 width="176.000000pt" height="222.000000pt" viewBox="0 0 176.000000 222.000000"
 preserveAspectRatio="xMidYMid meet">
<metadata>
Created by potrace 1.16, written by Peter Selinger 2001-2019
</metadata>
<g transform="translate(0.000000,222.000000) scale(0.100000,-0.100000)"
fill="#000000" stroke="none">
<path d="M0 2188 l0 -31 25 23 c14 13 25 27 25 32 0 4 -11 8 -25 8 -21 0 -25
-5 -25 -32z"/>
<path d="M322 2197 c-29 -30 -28 -45 4 -59 22 -10 27 -9 37 7 7 11 15 32 18
48 6 23 3 27 -16 27 -12 0 -31 -10 -43 -23z"/>
<path d="M527 2213 c-11 -10 -7 -47 6 -64 32 -41 105 -28 162 31 l39 40 -31 0
c-17 0 -36 -7 -43 -16 -33 -39 -90 -41 -90 -3 0 19 -29 27 -43 12z"/>
<path d="M1150 2196 c0 -22 6 -26 44 -31 46 -7 89 8 117 41 13 16 11 16 -21
10 -87 -17 -103 -19 -96 -7 5 7 -2 11 -18 11 -21 0 -26 -5 -26 -24z"/>
<path d="M1499 2202 c-30 -25 -20 -57 15 -48 15 4 28 0 36 -9 25 -31 145 -16
193 23 18 16 23 52 7 52 -5 0 -10 -4 -10 -9 0 -10 -91 -51 -112 -51 -19 0 -60
39 -53 51 11 17 -52 9 -76 -9z"/>
<path d="M864 2155 c-19 -29 -12 -45 21 -45 25 0 39 23 30 51 -9 26 -32 24
-51 -6z"/>
<path d="M119 2143 c-21 -55 -54 -116 -66 -120 -7 -3 -13 -10 -13 -15 0 -5 -9
-23 -20 -38 -15 -21 -17 -31 -8 -36 27 -17 158 184 144 221 -9 23 -25 18 -37
-12z"/>
<path d="M715 2000 c-21 -22 -44 -40 -50 -40 -6 0 -25 -15 -43 -34 -39 -41
-43 -82 -9 -95 12 -5 33 -21 46 -35 14 -14 29 -26 35 -26 16 -1 79 -62 93 -90
22 -48 152 -186 187 -200 12 -4 42 -4 67 0 24 5 96 6 159 4 103 -4 155 4 139
21 -9 8 -213 10 -281 3 -67 -8 -101 8 -82 39 7 10 20 17 30 15 11 -1 78 -4
149 -6 179 -5 191 -8 215 -64 11 -25 18 -48 14 -51 -3 -3 -99 -6 -212 -6 -282
0 -286 -18 -7 -26 116 -3 215 -7 222 -8 17 -2 42 -57 33 -71 -6 -10 -19 -10
-56 -2 -66 15 -406 37 -429 28 -39 -15 5 -24 145 -31 80 -4 170 -11 200 -16
30 -5 74 -9 96 -9 39 0 75 -22 61 -36 -3 -4 -52 -1 -109 6 -57 6 -155 13 -218
14 -63 2 -130 7 -148 11 -29 7 -33 5 -30 -11 4 -25 45 -33 141 -29 102 5 379
-23 389 -39 14 -22 8 -46 -11 -46 -11 0 -21 4 -23 10 -4 13 -129 27 -312 35
-83 3 -153 8 -157 11 -4 2 -9 -3 -13 -11 -6 -17 -121 -22 -131 -5 -3 6 -31 10
-61 10 -31 0 -63 4 -73 10 -10 5 -72 14 -137 20 -125 11 -200 24 -247 42 -17
6 -32 7 -37 2 -5 -5 -11 -60 -13 -121 -3 -101 -6 -115 -26 -137 -14 -15 -21
-32 -18 -40 8 -20 22 -20 55 -1 43 23 165 55 213 55 24 0 84 9 133 20 50 11
123 20 162 20 41 0 76 5 79 11 4 6 13 8 20 5 8 -3 75 2 150 10 76 8 173 11
218 8 99 -7 190 -6 235 2 29 6 32 4 32 -20 l0 -26 -277 0 c-162 0 -284 -4
-293 -10 -19 -12 -28 -11 135 -15 201 -4 395 -16 395 -25 0 -11 -26 -31 -32
-25 -3 3 -34 8 -69 10 -35 3 -93 7 -129 10 -36 2 -117 5 -180 7 -101 1 -115 0
-118 -15 -2 -9 0 -18 5 -18 12 -2 101 -6 277 -14 88 -4 170 -11 184 -16 23 -9
24 -11 10 -25 -12 -13 -29 -13 -107 -6 -108 11 -330 10 -348 -1 -31 -19 -3
-24 165 -30 202 -7 264 -15 259 -31 -3 -8 -65 -11 -200 -11 -133 0 -200 -4
-207 -11 -22 -22 10 -26 179 -28 173 -1 202 -6 180 -33 -10 -12 -25 -13 -68
-8 -31 4 -105 11 -166 15 -119 8 -156 1 -134 -27 10 -11 24 -13 56 -8 23 3 97
1 163 -6 103 -11 118 -15 107 -27 -9 -12 -33 -13 -132 -8 -66 4 -140 9 -164
11 -36 4 -49 0 -73 -20 -39 -33 -113 -66 -162 -73 -31 -4 -41 -11 -49 -33 -6
-15 -21 -30 -33 -33 -12 -3 -27 -20 -35 -38 -7 -18 -24 -42 -37 -53 -13 -11
-39 -34 -58 -52 -19 -17 -73 -50 -120 -72 -78 -38 -84 -43 -84 -71 0 -52 107
-139 153 -124 21 6 21 6 4 -19 -9 -15 -17 -33 -17 -41 0 -8 -8 -21 -17 -28
-10 -7 -26 -28 -36 -45 l-18 -33 28 0 c24 1 32 9 58 62 17 34 35 66 41 72 6 7
15 22 18 34 6 16 3 22 -8 22 -21 0 -20 9 3 29 10 9 33 43 51 76 18 33 37 67
44 75 6 8 22 35 35 60 14 25 37 60 53 78 l28 33 10 -26 c6 -15 10 -31 10 -36
0 -5 5 -9 10 -9 6 0 10 -6 10 -12 0 -7 15 -29 33 -49 58 -66 65 -76 71 -107 7
-29 48 -75 76 -84 8 -3 23 2 33 10 16 14 25 13 96 -7 43 -13 87 -21 96 -19 20
4 45 69 45 120 0 20 4 39 9 42 5 3 15 30 22 58 6 29 18 62 25 73 7 11 20 43
30 70 9 28 25 70 36 95 35 80 37 84 48 127 6 23 15 45 20 48 6 3 10 17 10 30
0 13 4 26 9 29 4 3 11 19 14 36 4 17 18 54 31 83 14 28 28 65 32 80 3 16 13
31 20 34 21 8 17 44 -6 50 -13 3 -20 14 -20 29 0 17 6 24 20 24 11 0 20 5 20
10 0 6 -11 8 -25 4 -21 -5 -25 -2 -30 23 -3 15 -10 44 -14 63 -5 19 -7 141 -5
270 4 227 5 237 30 293 14 32 23 65 20 73 -7 18 -35 18 -55 0 -19 -16 -130
-47 -224 -63 -24 -3 -52 -19 -77 -43 -47 -44 -97 -78 -170 -115 -30 -15 -57
-31 -60 -35 -7 -10 -96 -33 -110 -28 -14 4 -50 103 -50 137 0 13 11 39 25 57
14 18 25 39 25 47 0 9 4 17 9 19 5 2 13 20 16 41 7 35 5 39 -11 35 -11 -2 -20
-13 -22 -27 -5 -32 -45 -101 -57 -98 -5 1 -10 33 -10 71 0 39 -5 71 -10 73 -6
2 -28 -15 -50 -37z m17 -122 c10 -39 16 -74 14 -76 -9 -9 -43 10 -80 45 l-38
36 38 33 c22 18 41 33 44 34 3 0 13 -32 22 -72z m729 0 c1 -7 1 -16 1 -19 -15
-138 -15 -134 -12 -354 0 -64 -2 -86 -9 -75 -6 8 -11 23 -11 33 0 9 -4 25 -9
35 -21 41 -32 70 -45 122 -16 63 -42 131 -68 178 -24 44 -23 52 10 53 15 0 50
9 77 19 61 23 65 23 66 8z m-201 -80 c11 -23 20 -45 20 -49 0 -11 -108 -10
-115 1 -5 8 59 85 72 89 2 1 12 -18 23 -41z m-185 -85 c-48 -45 -105 -113
-105 -125 0 -21 -31 -4 -51 29 -18 29 -20 38 -9 41 8 3 51 24 95 48 100 53
122 55 70 7z m231 -29 c6 -16 14 -46 18 -66 l7 -37 -149 3 c-82 2 -154 6 -160
10 -7 4 0 18 21 39 18 18 40 43 49 57 15 24 19 25 109 24 l93 0 12 -30z m-791
-469 c72 -8 155 -21 185 -30 30 -8 92 -18 138 -21 45 -4 80 -9 78 -11 -2 -3
-53 -9 -113 -13 -121 -10 -174 -17 -218 -29 -16 -4 -55 -9 -85 -10 -30 -1 -83
-8 -119 -16 -36 -7 -68 -12 -71 -10 -4 2 -4 139 -1 164 1 2 18 1 39 -3 20 -4
96 -13 167 -21z m459 -54 c3 -5 -1 -12 -10 -15 -20 -8 -29 -1 -19 13 8 13 22
14 29 2z m446 -286 c0 -8 -7 -15 -15 -15 -16 0 -20 12 -8 23 11 12 23 8 23 -8z
m-49 -122 c-16 -38 -34 -81 -41 -98 -7 -16 -19 -46 -28 -65 -8 -19 -29 -66
-47 -105 -27 -59 -56 -138 -72 -194 -2 -9 -11 -11 -26 -7 -12 4 -38 9 -57 13
-58 10 -64 21 -29 57 17 17 37 46 46 64 8 17 21 32 28 32 14 0 59 79 50 88 -3
3 -15 0 -28 -7 -16 -8 -36 -9 -76 -1 -29 5 -82 10 -116 10 -71 0 -78 7 -65 65
11 47 27 66 40 45 7 -12 35 -15 132 -16 162 -1 152 2 133 -35 -9 -17 -14 -33
-11 -36 12 -12 40 25 72 94 40 88 90 163 109 163 10 0 7 -17 -14 -67z m-212
-58 c96 -4 116 -10 91 -25 -15 -9 -275 -4 -291 6 -30 18 6 34 66 28 22 -2 82
-6 134 -9z m-296 -123 c-4 -41 -1 -58 26 -112 17 -34 30 -65 28 -67 -7 -7 -85
94 -110 143 -29 56 -25 70 18 77 17 2 33 5 37 6 4 0 4 -21 1 -47z m270 -82
c10 -9 1 -10 -43 -4 -57 8 -120 8 -129 -1 -14 -15 24 -27 78 -23 63 3 69 0 50
-31 -10 -15 -18 -17 -56 -9 -49 11 -59 7 -49 -18 4 -11 13 -14 31 -10 31 8 31
1 -1 -41 -35 -47 -50 -43 -51 15 0 26 -9 65 -21 87 -11 22 -18 44 -15 49 8 13
192 1 206 -14z m-492 -39 c-12 -16 -21 -34 -21 -40 0 -6 -3 -11 -7 -11 -5 0
-21 -27 -38 -61 -37 -75 -75 -113 -104 -104 -23 7 -81 53 -81 64 0 4 33 22 73
41 49 24 91 54 132 95 61 61 84 69 46 16z"/>
<path d="M1135 1643 c-43 -10 -49 -13 -38 -24 15 -15 175 -1 170 15 -4 11 -95
18 -132 9z"/>
<path d="M927 594 c-18 -18 15 -24 129 -24 104 0 124 2 124 15 0 13 -20 15
-123 15 -68 0 -127 -3 -130 -6z"/>
<path d="M925 1831 c-4 -13 -12 -17 -30 -13 -19 3 -25 0 -25 -13 0 -13 5 -16
23 -11 12 4 40 10 62 13 31 4 41 10 42 24 2 27 -63 27 -72 0z"/>
<path d="M1740 1106 c0 -8 5 -18 10 -21 6 -3 10 3 10 14 0 12 -4 21 -10 21 -5
0 -10 -6 -10 -14z"/>
<path d="M500 1030 c-12 -8 -10 -10 8 -10 13 0 20 4 17 10 -7 12 -6 12 -25 0z"/>
<path d="M870 96 c0 -30 13 -40 41 -31 31 10 21 49 -13 53 -24 3 -28 0 -28
-22z"/>
<path d="M615 93 c-43 -15 -134 -73 -135 -85 0 -14 43 -8 62 9 17 15 18 15 18
0 0 -12 8 -17 26 -17 26 0 26 1 10 25 -12 18 -13 25 -4 26 85 3 138 23 138 51
0 12 -70 7 -115 -9z"/>
<path d="M1728 26 c-25 -18 -22 -26 7 -26 18 0 25 5 25 20 0 23 -8 25 -32 6z"/>
<path d="M780 10 c-12 -8 -9 -10 13 -10 16 0 26 4 22 10 -8 12 -16 12 -35 0z"/>
</g>
</svg>
