<?xml version="1.0" standalone="no"?>
<!DOCTYPE svg PUBLIC "-//W3C//DTD SVG 20010904//EN"
 "http://www.w3.org/TR/2001/REC-SVG-20010904/DTD/svg10.dtd">
<svg version="1.0" xmlns="http://www.w3.org/2000/svg"
 width="226.000000pt" height="146.000000pt" viewBox="0 0 226.000000 146.000000"
 preserveAspectRatio="xMidYMid meet">
<metadata>
Created by potrace 1.16, written by Peter Selinger 2001-2019
</metadata>
<g transform="translate(0.000000,146.000000) scale(0.100000,-0.100000)"
fill="#000000" stroke="none">
<path d="M947 1333 c-4 -3 -7 -13 -7 -21 0 -9 -21 -58 -47 -109 -41 -83 -45
-95 -32 -109 14 -13 20 -12 61 6 50 22 138 38 138 24 0 -17 -72 -154 -81 -154
-5 0 -9 -13 -9 -29 0 -17 -4 -33 -10 -36 -5 -3 -10 3 -10 14 0 10 -6 21 -12
24 -10 4 -10 7 0 18 6 7 12 23 12 36 0 32 -39 31 -96 -3 l-45 -27 -177 7
c-122 5 -199 13 -247 26 -38 11 -82 22 -97 25 -15 3 -33 11 -40 18 -7 7 -26
18 -41 25 -39 17 -62 2 -75 -50 -20 -81 -40 -211 -35 -225 7 -19 44 -16 78 7
17 11 77 44 135 72 l105 51 155 -7 c85 -3 163 -6 173 -6 9 0 17 -7 17 -15 0
-8 4 -15 9 -15 16 0 48 -65 54 -110 6 -47 -3 -62 -70 -107 -62 -42 -113 -46
-251 -18 -70 14 -144 32 -165 40 -20 8 -47 15 -58 15 -12 0 -43 11 -71 25 -55
28 -73 31 -84 14 -4 -6 -10 -64 -15 -127 -10 -150 5 -181 62 -131 13 12 49 33
79 46 30 14 69 31 87 39 17 8 33 19 35 25 2 7 32 6 98 -4 52 -9 122 -18 155
-22 61 -6 95 -25 95 -55 0 -9 9 -25 20 -35 11 -10 31 -37 45 -61 18 -31 32
-44 52 -46 19 -2 41 -21 75 -63 27 -32 53 -71 60 -85 10 -23 48 -50 70 -50 13
0 68 -52 68 -64 0 -20 15 -34 43 -41 24 -6 29 -3 42 28 22 54 71 121 121 169
25 24 87 82 136 130 50 49 98 88 108 88 11 0 22 10 26 22 8 28 59 91 136 171
32 32 69 72 82 89 l24 31 36 -29 c32 -26 42 -42 60 -96 3 -12 16 -18 34 -18
19 0 40 -11 60 -30 66 -63 106 -17 45 51 -29 32 -32 40 -19 45 9 3 16 10 16
15 0 6 -10 5 -21 -2 -17 -9 -25 -8 -37 5 -14 14 -14 23 -3 78 7 35 17 67 22
72 5 6 9 18 9 28 0 10 27 47 60 81 62 64 71 83 45 93 -20 8 -58 -18 -129 -88
-33 -32 -63 -58 -67 -58 -5 0 -24 -14 -43 -31 l-36 -31 -27 20 c-16 11 -46 25
-68 33 -22 7 -51 21 -65 29 -49 32 -253 120 -277 120 -7 0 -21 4 -31 9 -9 6
-46 23 -82 40 -36 16 -74 38 -86 48 -11 10 -29 23 -40 29 -10 6 -30 17 -44 25
-13 8 -50 35 -83 62 -53 43 -93 58 -110 40z m147 -145 c6 0 -20 -4 -59 -8 -38
-3 -73 -5 -76 -3 -4 1 3 23 14 47 l20 45 45 -40 c25 -21 50 -40 56 -41z m80
-57 c6 -9 -92 -106 -100 -99 -8 8 41 97 56 101 26 8 39 7 44 -2z m54 -58 c-5
-25 -28 -28 -28 -4 0 12 6 21 16 21 9 0 14 -7 12 -17z m126 -32 l38 -18 -23
-22 c-39 -37 -79 -63 -79 -52 0 6 9 26 20 46 17 31 18 36 5 41 -22 9 -36 -6
-70 -74 -17 -35 -42 -68 -58 -77 -16 -9 -34 -29 -40 -43 -17 -38 -134 -217
-152 -232 -8 -7 -22 -10 -31 -6 -8 3 -25 1 -37 -6 -12 -6 -35 -14 -52 -18 -36
-7 -59 -45 -44 -72 11 -21 31 -23 59 -6 10 7 21 10 23 8 8 -9 16 -110 9 -110
-4 1 -19 19 -34 40 -15 22 -36 40 -46 40 -22 0 -42 19 -42 39 0 12 25 70 61
143 5 10 9 24 9 31 0 7 15 20 33 28 24 11 31 19 29 37 -1 13 -9 30 -17 38 -19
20 -3 54 26 54 34 0 54 17 74 59 10 22 25 43 34 46 9 3 34 21 56 40 22 19 43
35 47 35 17 0 -30 -65 -49 -68 -12 -2 -28 -11 -36 -20 -22 -26 -67 -111 -67
-127 0 -8 -4 -15 -9 -15 -5 0 -14 -13 -21 -30 -7 -16 -28 -46 -46 -66 -19 -19
-32 -40 -29 -45 13 -20 45 -7 72 28 15 21 36 47 46 57 9 11 17 26 17 33 0 8
12 13 29 13 27 0 33 7 62 68 18 37 37 69 42 71 15 6 59 51 90 94 31 42 45 44
101 18z m104 -98 c-43 -44 -58 -50 -39 -15 6 12 11 29 11 39 0 31 19 43 47 30
l24 -11 -43 -43z m-1173 12 l30 -12 -30 -14 c-16 -7 -42 -21 -57 -32 -35 -23
-46 -17 -40 25 8 61 20 65 97 33z m1290 -9 c0 -12 -74 -71 -81 -64 -8 8 23 65
38 71 18 8 43 3 43 -7z m-205 -11 c0 -22 -37 -75 -54 -77 -16 -2 -21 -11 -22
-34 -1 -34 -51 -144 -65 -144 -5 0 -19 6 -30 13 -18 10 -23 9 -36 -10 -9 -13
-22 -23 -29 -23 -8 0 -14 -4 -14 -10 0 -5 -7 -10 -15 -10 -18 0 -20 31 -3 48
7 7 24 12 39 12 26 0 37 16 83 118 15 33 146 139 146 117z m-500 -30 c0 -28
-12 -32 -30 -10 -14 16 -6 35 16 35 8 0 14 -10 14 -25z m788 -7 c-2 -6 -10
-14 -16 -16 -7 -2 -10 2 -6 12 7 18 28 22 22 4z m-58 -16 c0 -16 -62 -82 -78
-82 -9 0 -31 -14 -49 -32 -18 -17 -35 -29 -38 -26 -14 13 35 75 81 101 27 16
51 33 52 38 4 11 32 12 32 1z m-170 -47 c-7 -8 -20 -15 -29 -15 -12 0 -10 6 9
24 26 24 41 17 20 -9z m330 22 c0 -12 -39 -42 -46 -35 -2 2 -1 14 3 26 6 23
43 31 43 9z m184 -9 c-9 -31 -14 -35 -24 -18 -5 9 -5 19 2 27 17 21 30 15 22
-9z m-298 -63 c-17 -25 -56 -35 -56 -14 0 6 15 24 33 40 25 22 33 25 35 13 2
-8 -4 -26 -12 -39z m-259 -7 c12 -9 -4 -47 -43 -103 -15 -21 -18 -63 -6 -81 4
-7 16 -13 27 -15 16 -4 21 -13 23 -57 2 -37 7 -52 18 -52 26 0 15 -27 -17 -40
-40 -17 -49 -4 -49 67 0 28 -5 64 -10 79 -15 39 -21 112 -10 119 6 3 10 20 10
36 0 17 5 39 11 50 10 19 18 18 46 -3z m373 9 c0 -1 -29 -32 -66 -67 -58 -58
-74 -60 -37 -5 19 29 103 88 103 72z m-160 -88 c0 -10 -5 -21 -10 -24 -6 -4
-8 -15 -5 -26 4 -13 1 -21 -10 -26 -34 -13 -39 30 -12 101 10 27 11 27 24 10
7 -10 13 -26 13 -35z m-125 -40 c-2 -19 4 -48 16 -72 23 -44 19 -90 -8 -85
-26 5 -53 79 -53 146 0 38 2 42 25 42 21 0 24 -4 20 -31z m-1217 -17 c49 -14
60 -20 50 -30 -7 -7 -21 -12 -33 -12 -12 0 -25 -4 -30 -9 -6 -5 -24 -12 -42
-16 l-31 -6 3 43 c2 24 4 44 4 46 2 4 16 1 79 -16z m1003 -22 c13 -7 19 -21
19 -43 l-1 -32 -19 27 c-14 18 -26 24 -40 21 -15 -4 -20 0 -20 16 0 23 28 28
61 11z m-111 -45 c0 -14 -4 -25 -10 -25 -5 0 -10 11 -10 25 0 14 5 25 10 25 6
0 10 -11 10 -25z m111 -75 c52 -109 52 -108 24 -126 -14 -9 -27 -15 -28 -13
-29 46 -50 105 -53 152 -5 56 -4 57 16 45 11 -7 30 -33 41 -58z m-139 9 c15
-23 30 -54 33 -70 4 -16 20 -43 36 -60 35 -38 36 -42 3 -64 -29 -19 -51 -14
-61 12 -3 10 -14 29 -23 43 -18 26 -37 180 -23 180 5 0 21 -19 35 -41z m-93
-95 c19 -36 44 -81 57 -100 22 -33 23 -34 4 -44 -41 -22 -63 -5 -87 70 -16 49
-27 140 -16 140 4 0 23 -30 42 -66z m271 -104 c0 -5 -5 -10 -11 -10 -5 0 -7 5
-4 10 3 6 8 10 11 10 2 0 4 -4 4 -10z m-61 -52 c0 -7 -18 -28 -39 -46 -34 -29
-42 -32 -61 -22 -25 14 -19 23 42 55 52 27 59 29 58 13z"/>
<path d="M1874 949 c-10 -17 13 -36 27 -22 12 12 4 33 -11 33 -5 0 -12 -5 -16
-11z"/>
<path d="M2225 459 c-12 -19 5 -23 22 -6 16 16 16 17 1 17 -9 0 -20 -5 -23
-11z"/>
<path d="M1420 62 c-8 -3 -21 -13 -30 -23 -8 -10 -31 -22 -50 -28 -30 -8 -24
-9 48 -10 81 -1 82 -1 82 24 0 26 -26 46 -50 37z"/>
</g>
</svg>
