<?xml version="1.0" standalone="no"?>
<!DOCTYPE svg PUBLIC "-//W3C//DTD SVG 20010904//EN"
 "http://www.w3.org/TR/2001/REC-SVG-20010904/DTD/svg10.dtd">
<svg version="1.0" xmlns="http://www.w3.org/2000/svg"
 width="222.000000pt" height="130.000000pt" viewBox="0 0 222.000000 130.000000"
 preserveAspectRatio="xMidYMid meet">
<metadata>
Created by potrace 1.16, written by Peter Selinger 2001-2019
</metadata>
<g transform="translate(0.000000,130.000000) scale(0.100000,-0.100000)"
fill="#000000" stroke="none">
<path d="M1100 1183 c0 -9 7 -24 16 -34 22 -24 11 -49 -20 -49 -19 0 -63 -37
-175 -149 -83 -82 -159 -152 -169 -155 -10 -4 -41 -2 -69 3 -28 6 -98 13 -154
17 -57 3 -107 8 -110 10 -3 2 -41 10 -85 19 -43 9 -89 23 -102 31 -16 11 -27
12 -42 4 -34 -18 -39 -40 -25 -119 8 -50 10 -85 3 -108 -11 -41 -4 -67 16 -60
23 9 26 -3 6 -23 -14 -14 -18 -29 -14 -57 2 -21 0 -71 -7 -112 -10 -68 -9 -75
8 -93 20 -19 53 -16 53 5 0 16 70 75 105 88 17 6 43 18 59 26 19 11 42 14 72
9 24 -3 45 -2 48 3 3 4 36 9 73 10 37 1 87 4 110 7 50 7 92 -14 119 -61 11
-17 48 -57 84 -88 36 -32 74 -66 86 -76 61 -54 109 -81 144 -81 29 0 41 -6 58
-30 29 -39 61 -40 68 -2 3 16 30 52 61 83 196 192 197 193 338 300 39 29 98
77 133 106 34 29 70 53 80 53 17 0 48 -18 85 -50 26 -23 120 -70 138 -70 22 0
32 27 16 40 -55 47 -74 60 -83 60 -23 0 -24 33 -4 101 20 66 38 92 105 148 11
8 13 17 7 23 -15 15 -62 -14 -144 -87 -86 -76 -114 -82 -181 -37 -23 16 -62
40 -87 53 -25 13 -51 32 -58 42 -7 9 -25 17 -41 17 -15 0 -31 4 -37 9 -5 5
-45 29 -89 52 -44 23 -133 78 -198 123 -191 131 -197 134 -197 99z m140 -114
c25 -17 38 -29 30 -26 -8 3 -34 11 -57 18 -42 11 -50 19 -36 32 10 11 15 9 63
-24z m-120 -38 c13 -25 13 -31 0 -31 -6 0 -35 -24 -66 -53 -57 -56 -100 -85
-110 -74 -13 12 129 177 152 177 7 0 18 -9 24 -19z m144 -35 l39 -14 -39 -24
c-21 -14 -63 -46 -93 -72 -30 -25 -60 -46 -66 -46 -7 0 -20 -9 -29 -19 -14
-15 -15 -21 -4 -29 49 -40 98 -86 98 -92 0 -5 -9 -11 -20 -15 -11 -3 -60 -46
-110 -96 -50 -49 -97 -89 -105 -89 -9 0 -15 -10 -15 -25 0 -16 6 -25 16 -25 8
0 27 -13 42 -28 35 -37 76 -62 102 -62 28 0 26 28 -5 60 -23 24 -24 30 -14 56
10 26 12 27 18 10 12 -30 153 -165 168 -159 23 9 14 50 -17 83 -16 18 -30 37
-30 44 0 6 12 43 26 81 21 55 35 76 66 98 21 15 36 32 32 38 -3 6 3 17 15 25
17 13 20 21 14 60 l-6 46 50 -36 c64 -46 79 -46 88 1 6 31 8 34 16 20 6 -9 18
-17 29 -17 24 0 36 -35 18 -54 -7 -8 -48 -50 -92 -95 -54 -55 -77 -85 -73 -96
5 -11 14 -14 30 -10 18 5 28 0 41 -19 10 -16 26 -26 41 -26 37 0 22 -22 -43
-60 -31 -18 -66 -41 -77 -51 -48 -40 -194 -119 -221 -119 -20 0 -41 11 -67 36
-34 33 -98 76 -170 113 -32 17 -31 14 -11 88 29 103 36 176 20 185 -8 5 -22
16 -31 24 -14 15 -14 19 0 40 8 13 15 30 15 37 0 8 6 20 14 26 11 9 19 3 39
-31 34 -58 70 -90 90 -82 21 8 21 23 1 52 -11 16 -13 32 -9 54 7 31 38 94 56
112 5 6 9 16 9 23 0 17 81 92 100 93 8 0 33 -6 54 -14z m115 -40 c13 -8 -74
-91 -116 -111 -18 -9 -33 -22 -33 -30 0 -8 20 -36 45 -61 43 -46 49 -64 20
-64 -8 0 -53 -37 -101 -82 -47 -46 -91 -84 -98 -86 -8 -2 -11 8 -8 32 4 35 46
84 86 99 10 4 16 13 13 22 -4 8 2 16 14 20 21 7 24 26 9 56 -18 33 7 98 56
148 24 24 44 52 44 62 0 15 5 16 30 9 16 -5 34 -11 39 -14z m108 -38 c10 -8 3
-18 -25 -40 -20 -17 -49 -36 -64 -44 -27 -14 -28 -13 -28 9 0 13 13 36 30 52
17 16 30 35 30 42 0 11 5 11 23 2 12 -6 28 -16 34 -21z m88 -47 c6 -10 -46
-51 -64 -51 -14 0 -2 32 17 48 19 14 39 16 47 3z m-555 -30 c0 -5 -7 -12 -16
-15 -14 -5 -15 -4 -4 9 14 17 20 19 20 6z m-151 -72 c-11 -27 -14 -29 -27 -16
-13 14 -12 19 9 49 19 27 24 29 27 15 2 -10 -2 -32 -9 -48z m807 52 c9 -9 99
-62 142 -83 32 -16 27 -34 -15 -62 -21 -13 -54 -37 -73 -55 -43 -37 -46 -38
-54 -5 -5 17 0 37 14 61 26 45 26 63 -3 63 -27 0 -43 -17 -72 -75 -11 -22 -31
-49 -44 -61 -27 -23 -21 -49 10 -41 10 3 26 -1 35 -7 15 -12 12 -17 -31 -50
l-49 -37 -13 32 c-24 59 -16 95 38 157 16 18 29 41 29 51 0 10 9 21 20 24 13
3 23 20 31 51 12 47 18 53 35 37z m-1374 -37 c52 -15 56 -18 41 -30 -10 -7
-25 -14 -34 -14 -9 0 -22 -7 -29 -16 -8 -8 -22 -20 -32 -25 -16 -9 -18 -5 -18
46 0 30 3 55 7 55 4 0 33 -7 65 -16z m296 -34 c130 -10 206 -33 219 -66 3 -10
15 -26 25 -36 15 -15 16 -22 6 -37 -12 -19 -85 -61 -106 -61 -6 0 -16 -8 -21
-18 -8 -15 -23 -19 -78 -21 -37 0 -91 -4 -118 -7 -96 -11 -235 27 -292 80
l-25 24 60 41 c34 22 66 41 71 41 6 0 11 4 11 8 0 14 83 56 120 61 3 0 60 -4
128 -9z m277 -210 c-3 -5 -10 -10 -16 -10 -5 0 -9 5 -9 10 0 6 7 10 16 10 8 0
12 -4 9 -10z m-607 -59 c9 -5 25 -12 35 -15 20 -6 23 -26 5 -26 -7 0 -24 -9
-38 -20 -36 -28 -40 -25 -40 25 0 46 7 52 38 36z m974 -283 c-7 -7 -12 -8 -12
-2 0 14 12 26 19 19 2 -3 -1 -11 -7 -17z"/>
<path d="M1333 619 c-53 -52 -93 -99 -93 -110 0 -23 80 -109 102 -109 23 0 30
29 13 53 -21 30 -19 43 13 112 18 36 43 71 65 88 23 17 34 33 31 42 -12 30
-41 13 -131 -76z"/>
</g>
</svg>
