<?xml version="1.0" standalone="no"?>
<!DOCTYPE svg PUBLIC "-//W3C//DTD SVG 20010904//EN"
 "http://www.w3.org/TR/2001/REC-SVG-20010904/DTD/svg10.dtd">
<svg version="1.0" xmlns="http://www.w3.org/2000/svg"
 width="236.000000pt" height="118.000000pt" viewBox="0 0 236.000000 118.000000"
 preserveAspectRatio="xMidYMid meet">
<metadata>
Created by potrace 1.16, written by Peter Selinger 2001-2019
</metadata>
<g transform="translate(0.000000,118.000000) scale(0.100000,-0.100000)"
fill="#000000" stroke="none">
<path d="M1366 1073 c-3 -4 -6 -15 -6 -26 0 -19 -34 -57 -52 -57 -5 0 -43 -33
-84 -73 -41 -41 -87 -80 -102 -88 -15 -7 -47 -27 -71 -44 -43 -30 -44 -30
-170 -28 -134 1 -199 13 -242 44 -34 24 -65 24 -78 2 -9 -16 -12 -16 -21 -3
-6 8 -8 26 -4 40 3 14 9 54 14 90 4 36 11 72 14 81 10 24 -18 47 -49 41 -18
-3 -28 -12 -31 -31 -4 -20 -19 -32 -65 -53 -48 -23 -59 -32 -59 -52 0 -23 44
-66 68 -66 12 0 72 -67 72 -80 0 -27 -70 3 -98 42 -18 25 -48 39 -66 32 -21
-8 -33 -55 -39 -147 -5 -73 -4 -79 16 -86 15 -6 27 -4 38 5 28 25 138 74 165
74 28 0 28 6 8 -89 -10 -48 24 -46 76 5 25 24 50 44 58 44 7 0 20 4 30 9 9 4
31 15 47 23 23 11 64 14 165 12 74 -1 143 -2 152 -3 9 0 23 -13 30 -28 21 -44
51 -37 59 13 4 22 19 61 33 87 14 25 26 55 26 66 0 12 24 44 57 76 50 49 61
54 92 51 68 -7 131 -26 179 -56 27 -17 54 -30 59 -30 6 0 16 -7 23 -15 7 -8 8
-15 3 -15 -6 0 -40 -27 -78 -60 -37 -32 -80 -65 -96 -72 -16 -7 -29 -16 -29
-20 0 -15 37 -45 89 -73 28 -16 51 -33 51 -40 0 -18 -102 -121 -127 -129 -34
-11 -28 -33 11 -46 19 -6 36 -19 39 -29 5 -19 62 -39 75 -27 3 4 -1 19 -10 34
-24 41 -16 107 16 139 24 23 30 25 47 15 21 -13 39 -8 39 10 0 7 -19 34 -41
60 -35 42 -40 54 -35 80 9 47 55 138 72 145 9 3 34 -4 57 -17 108 -57 236
-120 246 -120 6 0 11 -4 11 -10 0 -5 6 -10 14 -10 8 0 16 -5 18 -11 6 -17 -25
-78 -38 -79 -6 0 -17 -7 -24 -15 -10 -12 -108 -82 -169 -120 -9 -5 -35 -22
-58 -37 -23 -16 -46 -28 -50 -28 -5 0 -18 -8 -29 -17 -24 -22 -122 -83 -134
-83 -5 0 -10 -4 -12 -8 -1 -4 -34 -23 -73 -41 -38 -18 -78 -37 -87 -42 -10 -5
-24 -9 -32 -9 -20 0 -57 63 -54 91 2 18 -2 23 -13 21 -26 -4 -43 82 -34 168 4
39 11 73 16 76 15 9 10 44 -6 44 -8 0 -38 -18 -67 -40 -29 -22 -61 -40 -70
-40 -9 0 -21 -6 -25 -14 -15 -24 -184 -27 -288 -5 -49 11 -94 24 -100 29 -14
11 -56 15 -78 5 -10 -4 -24 -22 -31 -40 -15 -35 -140 -143 -194 -166 -42 -18
-48 -39 -22 -89 26 -51 59 -53 75 -5 6 17 30 58 55 92 25 33 52 71 60 82 22
32 30 25 30 -25 0 -43 -3 -48 -87 -131 l-87 -87 29 -9 c17 -5 44 -15 60 -22
29 -13 58 -18 82 -16 9 1 10 8 3 25 -8 22 -6 63 6 124 3 13 12 22 23 22 10 0
24 7 31 14 6 8 27 20 45 26 18 6 36 17 39 25 3 8 10 15 16 15 5 0 31 13 57 29
46 28 53 29 178 30 72 0 135 -3 141 -7 14 -9 104 -140 114 -167 19 -47 69
-104 97 -107 16 -2 32 -12 38 -24 15 -30 36 -54 46 -54 5 0 13 10 18 23 10 25
149 159 191 184 14 8 36 29 48 46 11 18 38 41 59 52 21 10 64 38 96 62 33 24
73 50 91 58 18 9 52 33 77 55 24 22 50 40 57 40 7 0 32 -18 54 -40 23 -22 47
-40 54 -40 7 0 14 -4 16 -9 6 -15 80 -61 99 -61 12 0 19 7 19 20 0 11 -5 20
-11 20 -6 0 -33 22 -59 48 -48 48 -48 50 -39 88 6 21 14 59 19 84 12 63 25 91
55 119 17 16 23 27 16 34 -14 14 -47 -10 -130 -95 -63 -66 -71 -71 -83 -56 -7
9 -67 45 -133 79 -66 34 -132 70 -148 81 -15 11 -60 36 -100 57 -39 20 -94 54
-122 75 -27 21 -60 43 -72 49 -13 6 -23 15 -23 21 0 14 -36 37 -44 29z m89
-104 c8 -13 0 -11 -41 6 -20 8 -33 19 -30 24 6 10 61 -13 71 -30z m-965 -57
c0 -27 -9 -32 -36 -20 -36 17 -29 38 13 38 16 0 23 -6 23 -18z m638 -143 c-26
-48 -29 -51 -44 -38 -22 18 -16 35 18 52 39 19 42 17 26 -14z m-736 -33 c13
-10 15 -15 6 -24 -20 -20 -38 -13 -38 13 0 28 7 30 32 11z m247 -37 c-34 -26
-49 -24 -49 9 0 39 8 44 43 25 l30 -15 -24 -19z m891 8 c0 -7 -4 -18 -9 -26
-8 -12 -12 -13 -25 -1 -15 12 -15 14 0 31 17 19 34 17 34 -4z m576 -39 c-3
-13 -6 -38 -6 -55 0 -36 -15 -43 -36 -15 -19 25 -17 42 8 69 27 29 42 29 34 1z
m-966 -229 c0 -54 -2 -59 -15 -45 -8 8 -20 27 -26 43 -9 24 -7 30 11 45 12 10
24 18 26 18 2 0 4 -27 4 -61z m-470 -6 l35 -9 -47 -32 c-26 -18 -51 -32 -57
-32 -6 0 -11 20 -11 46 0 43 2 46 23 41 12 -3 38 -10 57 -14z m828 5 c-6 -18
-28 -21 -28 -4 0 9 7 16 16 16 9 0 14 -5 12 -12z m-1118 -168 c-12 -23 -30
-27 -30 -7 0 17 10 27 27 27 11 0 11 -5 3 -20z m111 -77 c-6 -31 -11 -37 -26
-35 -35 6 -40 20 -15 47 34 37 48 32 41 -12z m946 -1 c-14 -15 -39 -35 -56
-45 -25 -15 -30 -15 -35 -2 -5 15 6 23 74 56 47 23 48 23 17 -9z"/>
<path d="M1449 892 c-13 -9 -33 -23 -43 -32 -18 -14 -32 -27 -110 -97 -14 -13
-41 -31 -61 -40 -19 -9 -35 -24 -35 -32 0 -16 71 -86 127 -124 18 -12 33 -26
33 -31 0 -13 -93 -98 -129 -118 -17 -9 -31 -23 -31 -31 0 -8 34 -31 76 -51 99
-47 128 -48 85 -2 -22 24 -28 80 -13 118 6 14 27 42 47 62 33 34 34 37 18 50
-10 8 -33 27 -50 41 -33 27 -40 51 -25 83 5 9 20 39 33 67 24 50 70 100 102
110 18 7 23 30 9 39 -5 3 -20 -2 -33 -12z m-139 -196 c-5 -15 -14 -24 -20 -21
-15 9 -12 26 7 47 21 24 27 11 13 -26z m-1 -308 c1 -5 -8 -8 -19 -8 -22 0 -26
20 -8 38 10 10 14 9 20 -5 3 -10 7 -21 7 -25z"/>
<path d="M2160 606 c0 -8 5 -18 10 -21 13 -8 42 14 34 26 -9 15 -44 10 -44 -5z"/>
</g>
</svg>
