<?xml version="1.0" standalone="no"?>
<!DOCTYPE svg PUBLIC "-//W3C//DTD SVG 20010904//EN"
 "http://www.w3.org/TR/2001/REC-SVG-20010904/DTD/svg10.dtd">
<svg version="1.0" xmlns="http://www.w3.org/2000/svg"
 width="166.000000pt" height="130.000000pt" viewBox="0 0 166.000000 130.000000"
 preserveAspectRatio="xMidYMid meet">
<metadata>
Created by potrace 1.16, written by Peter Selinger 2001-2019
</metadata>
<g transform="translate(0.000000,130.000000) scale(0.100000,-0.100000)"
fill="#000000" stroke="none">
<path d="M816 1285 c4 -8 9 -15 13 -15 3 0 16 -3 28 -6 15 -4 24 0 32 15 11
20 9 21 -33 21 -36 0 -44 -3 -40 -15z"/>
<path d="M1120 1262 c-8 -3 -18 -11 -23 -18 -8 -14 -64 -44 -81 -44 -6 0 -22
-17 -35 -37 -12 -21 -42 -52 -64 -70 -23 -18 -55 -44 -72 -58 -16 -15 -42 -34
-57 -43 -16 -9 -28 -20 -28 -24 0 -4 -4 -8 -9 -8 -5 0 -49 -24 -97 -54 l-89
-53 -108 5 -109 4 -29 41 c-16 22 -29 46 -29 53 0 7 -9 18 -19 24 -39 20 -102
-27 -64 -49 20 -10 21 -87 2 -163 -9 -38 -8 -52 1 -63 14 -16 46 -20 54 -6 3
4 38 11 78 14 40 3 119 20 176 36 100 30 129 31 145 4 14 -23 45 -14 76 24 17
21 31 43 31 51 0 11 36 63 98 141 l20 25 23 -26 c23 -25 27 -26 79 -16 116 20
150 21 150 4 0 -12 -10 -16 -37 -16 -21 0 -54 -4 -73 -9 -20 -4 -45 -5 -55 -1
-20 7 -85 -14 -85 -28 0 -4 4 -13 9 -21 8 -12 30 -12 150 -1 130 12 165 11
148 -7 -4 -4 -56 -10 -115 -14 -157 -10 -184 -17 -180 -43 3 -18 9 -21 43 -20
71 3 249 22 268 29 17 7 47 -9 47 -25 0 -8 -136 -23 -227 -24 -60 -1 -84 -17
-66 -44 6 -9 19 -16 29 -15 175 20 284 25 298 13 9 -7 16 -16 16 -20 0 -4 -68
-10 -152 -13 -158 -7 -176 -13 -156 -50 8 -16 17 -18 51 -13 23 4 102 10 175
13 112 4 132 3 132 -10 0 -18 -45 -26 -222 -36 -131 -7 -177 -19 -162 -42 7
-13 154 -11 252 3 45 6 85 8 89 4 20 -19 -27 -27 -175 -29 -89 -2 -164 -6
-168 -9 -12 -13 5 -38 33 -49 20 -7 39 -7 64 0 20 6 66 11 102 11 36 0 77 4
91 10 21 8 24 7 19 -8 -14 -36 -58 -94 -77 -101 -12 -4 -61 -9 -111 -10 -61
-2 -95 -7 -106 -17 -23 -21 -28 -19 -90 34 -31 26 -71 55 -88 64 -17 9 -35 28
-40 40 -16 43 -34 50 -96 39 -63 -12 -252 -5 -305 11 -19 6 -44 17 -55 24 -27
19 -59 17 -79 -4 -12 -14 -17 -43 -20 -115 -4 -89 -3 -96 17 -101 12 -3 35 6
61 23 23 16 59 34 81 40 22 7 56 18 75 24 19 6 61 12 92 13 32 1 62 5 68 9 16
10 11 -17 -7 -37 -24 -27 -6 -51 43 -60 21 -3 57 -13 79 -21 22 -8 67 -25 100
-37 33 -13 71 -30 85 -39 14 -10 37 -22 52 -28 14 -7 53 -32 86 -57 33 -25 64
-46 69 -46 24 -1 35 -18 24 -39 -14 -25 4 -37 42 -27 18 4 26 17 36 56 7 27
17 52 22 56 5 3 9 13 9 22 0 9 26 70 59 137 32 66 66 136 75 155 9 19 20 42
25 50 21 40 61 126 61 133 0 5 -13 12 -28 18 -22 7 -38 29 -68 86 -21 41 -49
82 -61 90 -13 9 -23 19 -23 23 0 4 -17 37 -38 71 -46 79 -71 149 -79 223 -6
58 -22 79 -53 68z m3 -133 c24 -98 24 -97 -27 -45 -25 26 -46 51 -46 55 0 10
42 30 55 27 5 -1 13 -18 18 -37z m-95 -51 c10 -10 3 -15 -30 -25 -51 -15 -61
-8 -29 18 27 22 42 24 59 7z m-300 -213 c-11 -25 -38 -35 -38 -14 0 12 29 38
42 39 4 0 2 -11 -4 -25z m-275 -82 c-7 -2 -19 -2 -25 0 -7 3 -2 5 12 5 14 0
19 -2 13 -5z m-131 -273 c18 -11 42 -20 53 -20 12 -1 4 -7 -20 -16 -78 -30
-75 -30 -75 15 0 22 2 41 5 41 2 0 19 -9 37 -20z m405 -59 c6 -10 38 -33 70
-51 65 -37 59 -52 -9 -21 -23 10 -54 22 -68 25 -41 9 -53 21 -45 45 8 26 36
27 52 2z m426 -121 c6 0 -4 -16 -23 -35 l-33 -34 -28 19 c-15 11 -32 20 -39
20 -6 0 -10 6 -8 13 5 12 81 27 106 20 8 -1 19 -3 25 -3z m97 4 c0 -4 -46 -88
-56 -102 -1 -2 -12 -1 -23 3 -20 6 -19 9 21 55 39 45 58 59 58 44z"/>
<path d="M22 654 c-28 -19 -28 -40 -1 -54 27 -15 49 3 49 41 0 33 -15 37 -48
13z"/>
<path d="M924 451 c-9 -10 -3 -39 9 -44 20 -7 263 5 278 14 10 6 10 11 0 23
-12 14 -35 16 -148 14 -74 -2 -136 -5 -139 -7z"/>
<path d="M143 148 c2 -7 10 -13 17 -13 7 0 15 6 18 13 2 7 -5 12 -18 12 -13 0
-20 -5 -17 -12z"/>
<path d="M195 10 c-3 -5 3 -10 15 -10 12 0 18 5 15 10 -3 6 -10 10 -15 10 -5
0 -12 -4 -15 -10z"/>
<path d="M1148 3 c7 -3 16 -2 19 1 4 3 -2 6 -13 5 -11 0 -14 -3 -6 -6z"/>
<path d="M1508 3 c6 -2 18 -2 25 0 6 3 1 5 -13 5 -14 0 -19 -2 -12 -5z"/>
</g>
</svg>
