<?xml version="1.0" standalone="no"?>
<!DOCTYPE svg PUBLIC "-//W3C//DTD SVG 20010904//EN"
 "http://www.w3.org/TR/2001/REC-SVG-20010904/DTD/svg10.dtd">
<svg version="1.0" xmlns="http://www.w3.org/2000/svg"
 width="186.000000pt" height="156.000000pt" viewBox="0 0 186.000000 156.000000"
 preserveAspectRatio="xMidYMid meet">
<metadata>
Created by potrace 1.16, written by Peter Selinger 2001-2019
</metadata>
<g transform="translate(0.000000,156.000000) scale(0.100000,-0.100000)"
fill="#000000" stroke="none">
<path d="M148 1553 c7 -3 16 -2 19 1 4 3 -2 6 -13 5 -11 0 -14 -3 -6 -6z"/>
<path d="M501 1520 c-23 -22 -41 -46 -38 -53 7 -22 34 -18 58 9 13 15 37 39
54 55 l29 29 -30 0 c-22 0 -43 -11 -73 -40z"/>
<path d="M1486 1508 c-10 -6 -31 -22 -46 -37 -15 -14 -59 -42 -96 -60 -62 -32
-76 -35 -146 -33 -42 1 -88 6 -103 12 -14 5 -47 10 -73 10 -48 1 -135 20 -148
33 -4 4 -16 7 -27 7 -17 0 -19 -5 -14 -35 6 -39 -6 -49 -93 -74 -85 -25 -115
-39 -118 -55 -2 -9 6 -20 20 -25 13 -5 32 -21 43 -35 11 -14 25 -26 30 -26 6
0 29 -17 51 -37 22 -21 55 -50 73 -65 24 -21 30 -32 26 -50 -4 -16 1 -33 15
-51 l21 -27 -103 -2 c-57 -1 -121 -2 -143 -3 -22 0 -60 5 -84 12 -24 7 -55 13
-67 13 -13 0 -47 14 -76 31 -56 33 -89 39 -112 20 -18 -15 -41 -219 -29 -263
5 -22 41 -23 63 -3 31 28 132 85 151 85 10 0 20 4 23 8 6 10 177 36 321 48 39
4 64 11 73 22 11 14 13 14 26 -4 16 -21 5 -34 -23 -27 -10 2 -23 -2 -29 -10
-10 -12 -8 -16 13 -21 26 -7 26 -7 9 -36 -10 -16 -27 -31 -39 -34 -17 -4 -21
-11 -17 -34 2 -17 -2 -33 -11 -41 -39 -31 -326 -34 -421 -4 -48 15 -50 15 -68
-7 -15 -18 -18 -39 -17 -125 2 -121 11 -133 68 -87 65 52 291 142 357 142 25
0 15 -34 -21 -75 -79 -89 -190 -196 -246 -237 -32 -23 -59 -46 -59 -50 0 -11
33 -26 47 -21 14 5 111 -24 129 -39 7 -5 10 -26 6 -53 -5 -53 1 -55 61 -22 59
32 146 67 169 67 10 0 29 9 41 21 17 15 29 19 52 14 49 -11 175 -17 211 -10
29 5 34 10 34 33 1 22 2 24 10 10 8 -12 19 -15 49 -11 21 3 47 0 59 -6 20 -11
108 -18 117 -10 2 3 11 31 20 64 16 64 186 415 210 435 8 7 15 18 15 25 0 6 9
20 19 29 15 14 18 26 14 52 l-6 35 40 -7 c25 -4 43 -2 47 5 9 13 -11 44 -39
62 -30 19 -135 145 -135 162 0 7 -16 29 -36 48 -20 18 -54 58 -75 86 -39 51
-39 54 -24 82 8 17 15 40 15 53 0 13 9 38 21 57 32 53 17 94 -25 69z m-51
-118 c3 -6 -4 -10 -17 -10 -18 0 -20 2 -8 10 19 12 18 12 25 0z m-515 -40 c-6
-11 -15 -20 -20 -20 -6 0 -10 9 -10 20 0 13 7 20 20 20 18 0 19 -3 10 -20z
m220 -22 c52 -6 116 -10 141 -9 31 1 50 -4 59 -14 7 -8 18 -15 25 -15 6 0 27
-17 45 -37 19 -20 27 -34 18 -31 -22 9 -42 -7 -34 -27 4 -11 12 -15 24 -10 9
4 22 8 27 10 6 2 23 -12 39 -32 27 -31 28 -36 13 -45 -21 -11 -22 -28 -2 -28
24 0 65 -23 65 -36 0 -9 -9 -12 -27 -9 -16 2 -109 7 -208 10 -194 6 -389 20
-405 30 -23 14 -7 25 39 25 50 0 76 14 44 24 -10 2 -46 8 -80 11 -62 7 -91 24
-78 46 6 8 67 9 229 5 133 -4 227 -3 235 3 21 13 -9 19 -139 26 -340 18 -320
16 -320 37 0 16 5 18 33 13 25 -5 37 -2 51 14 17 18 21 19 35 7 29 -25 276
-58 319 -41 26 10 -5 25 -53 25 -22 0 -76 8 -120 16 -44 9 -95 18 -112 21 -18
3 -30 9 -27 14 7 12 49 11 164 -3z m-337 -76 c-3 -20 -7 -38 -8 -40 -1 -1 -16
3 -33 9 -55 19 -49 52 13 70 30 9 34 2 28 -39z m477 -242 c266 -11 330 -17
348 -32 31 -26 4 -26 -428 -4 -166 9 -212 16 -240 38 l-25 20 65 -6 c36 -3
162 -10 280 -16z m-801 -99 c0 -7 -110 -61 -121 -61 -11 0 -10 38 2 81 l10 37
55 -26 c30 -14 55 -28 54 -31z m896 17 c110 -6 217 -10 237 -9 45 2 52 -7 27
-38 -19 -23 -22 -24 -122 -17 -56 3 -120 8 -142 10 -22 3 -71 7 -110 10 -38 3
-110 8 -160 12 -84 6 -113 18 -115 45 0 7 83 4 385 -13z m-60 -93 c72 -8 164
-17 205 -20 41 -3 75 -7 77 -8 1 -2 -2 -9 -7 -17 -7 -12 -43 -14 -202 -11
-106 1 -196 5 -200 7 -4 3 -41 5 -80 5 -40 0 -85 2 -100 5 -26 5 -27 6 -12 29
23 36 64 37 319 10z m10 -91 c116 -4 213 -8 218 -11 9 -6 -24 -63 -38 -64 -18
-2 -118 0 -250 5 -71 3 -173 7 -225 8 -78 2 -98 6 -113 22 -16 18 -16 20 0 39
16 17 27 18 108 13 49 -3 185 -9 300 -12z m-780 -93 c39 -8 39 -8 15 -18 -14
-6 -51 -23 -83 -37 -32 -15 -61 -24 -66 -22 -13 9 -19 52 -9 70 10 18 73 21
143 7z m685 -12 c124 -6 231 -13 238 -15 18 -5 15 -27 -7 -50 -17 -19 -26 -20
-83 -13 -59 7 -418 29 -480 29 -32 0 -47 32 -27 57 11 12 26 14 74 10 33 -4
161 -11 285 -18z m282 -51 c-7 -7 -12 -20 -12 -30 0 -10 -4 -18 -10 -18 -5 0
-10 3 -10 8 0 11 30 52 38 52 3 0 1 -5 -6 -12z m-245 -52 c67 -6 127 -16 133
-22 7 -7 1 -21 -18 -44 l-29 -33 -220 13 c-201 12 -222 14 -226 31 -5 18 -26
24 -74 20 -27 -2 -38 15 -22 35 10 13 40 15 173 13 89 -1 216 -7 283 -13z
m-604 -151 c-32 -47 -64 -85 -71 -85 -7 0 -22 5 -34 11 l-20 11 21 14 c11 8
51 45 88 82 38 38 69 65 71 60 2 -4 -23 -46 -55 -93z m773 48 c-11 -11 -17 4
-9 23 7 18 8 18 11 1 2 -10 1 -21 -2 -24z m-519 -4 c34 -5 97 -11 140 -14 272
-17 272 -17 253 -40 -9 -11 -16 -11 -39 1 -16 8 -42 14 -58 14 -15 -1 -116 2
-224 5 -126 4 -199 3 -203 -4 -7 -11 69 -20 229 -26 136 -6 213 -13 226 -20
23 -15 5 -24 -38 -21 -210 17 -400 28 -455 27 -20 0 -40 4 -43 9 -6 9 26 22
45 18 7 -2 15 3 17 10 3 6 -2 12 -11 12 -16 0 -22 21 -10 33 10 9 98 7 171 -4z
m484 -75 c-14 -36 -25 -50 -41 -52 -36 -6 -48 15 -23 38 12 11 25 25 30 32 8
13 46 38 50 34 1 -1 -6 -24 -16 -52z m-506 -39 c171 -8 229 -15 216 -28 -10
-10 -385 7 -416 19 -26 10 4 25 40 19 17 -2 89 -7 160 -10z m-131 -61 l48 -7
-67 -28 c-37 -16 -69 -29 -71 -29 -9 0 -3 31 8 50 14 22 16 23 82 14z"/>
<path d="M1018 1176 c-22 -16 -13 -26 22 -26 39 0 223 -40 235 -51 10 -10 114
-12 139 -3 21 8 20 41 -1 53 -10 5 -51 9 -91 9 -39 1 -76 4 -82 7 -5 3 -44 8
-87 10 -43 3 -87 7 -98 10 -11 2 -28 -2 -37 -9z"/>
<path d="M1296 491 c-3 -5 1 -14 8 -20 16 -13 32 2 21 19 -8 12 -22 13 -29 1z"/>
<path d="M1823 389 c-17 -31 -38 -72 -46 -92 -14 -32 -14 -37 0 -48 18 -16 46
-1 51 27 2 10 10 34 18 52 8 18 14 51 12 75 l-3 42 -32 -56z"/>
</g>
</svg>
