<?xml version="1.0" standalone="no"?>
<!DOCTYPE svg PUBLIC "-//W3C//DTD SVG 20010904//EN"
 "http://www.w3.org/TR/2001/REC-SVG-20010904/DTD/svg10.dtd">
<svg version="1.0" xmlns="http://www.w3.org/2000/svg"
 width="196.000000pt" height="140.000000pt" viewBox="0 0 196.000000 140.000000"
 preserveAspectRatio="xMidYMid meet">
<metadata>
Created by potrace 1.16, written by Peter Selinger 2001-2019
</metadata>
<g transform="translate(0.000000,140.000000) scale(0.100000,-0.100000)"
fill="#000000" stroke="none">
<path d="M656 1225 c-9 -10 -14 -27 -11 -43 2 -15 7 -62 10 -104 9 -106 16
-110 112 -57 95 51 180 82 189 68 8 -13 -3 -83 -20 -134 l-14 -40 -89 -1 c-48
0 -140 5 -203 12 -63 7 -167 15 -230 18 -63 3 -140 8 -171 12 -36 4 -59 3 -63
-4 -11 -19 -23 -173 -13 -179 5 -3 19 -1 30 5 86 40 368 82 645 96 96 5 98 3
88 -77 l-7 -52 -337 2 c-185 2 -344 5 -352 8 -26 10 -40 -25 -40 -102 0 -57 4
-75 15 -79 8 -4 21 -2 28 4 6 5 58 21 115 36 57 14 106 27 110 30 4 2 61 14
127 26 114 21 301 30 324 15 13 -8 4 -107 -19 -200 l-17 -70 -37 1 c-47 2 -81
19 -95 50 -12 27 -33 31 -50 10 -8 -9 -14 -81 -17 -200 l-6 -186 24 0 c18 0
31 12 53 51 25 41 41 55 90 79 67 31 232 65 420 86 11 1 63 3 115 4 156 4 290
29 290 56 0 13 -17 15 -107 13 l-108 -1 2 58 c2 33 12 120 23 194 12 74 26
167 32 206 9 63 14 73 39 88 16 10 50 49 75 87 25 38 55 74 65 80 37 19 23 45
-32 57 -63 15 -86 15 -91 1 -3 -8 -24 -8 -78 0 -41 5 -149 13 -240 16 -282 10
-336 14 -376 31 -33 14 -153 44 -176 44 -4 0 -13 -7 -22 -15z m159 -74 c27
-10 50 -23 52 -27 3 -11 -138 -75 -149 -68 -4 3 -8 30 -8 60 0 52 1 54 28 54
15 0 49 -8 77 -19z m637 -55 c4 -6 5 -31 2 -56 -3 -25 -7 -76 -9 -115 -2 -65
-10 -125 -35 -285 -6 -36 -15 -107 -20 -159 -5 -52 -11 -96 -14 -98 -2 -2 -57
0 -122 4 l-119 8 2 70 c2 39 8 102 14 140 7 39 11 94 11 123 -1 52 8 91 28
115 5 6 37 54 71 106 33 52 67 100 75 108 18 19 18 43 0 43 -19 0 -77 -68
-106 -125 -13 -25 -27 -45 -31 -45 -4 0 -5 39 -2 86 6 81 5 86 -13 82 -15 -2
-21 -16 -27 -63 -14 -107 -29 -180 -39 -193 -6 -7 -10 -45 -9 -85 1 -40 -7
-137 -18 -215 -12 -79 -21 -145 -21 -148 0 -3 -35 -3 -77 -2 -94 4 -95 5 -59
122 19 61 25 95 20 124 -5 34 -3 42 14 51 11 6 39 11 61 11 78 0 63 40 -18 48
l-51 5 0 43 c0 23 4 54 10 68 9 25 13 26 81 26 52 0 70 3 67 13 -3 7 -26 13
-56 15 -29 2 -52 7 -52 12 0 4 21 34 47 67 25 32 51 63 56 70 5 7 5 19 -1 28
-7 14 -17 7 -61 -42 l-53 -58 6 40 c3 22 6 50 6 63 l0 23 218 -7 c141 -4 219
-10 224 -18z m153 4 c6 -10 -75 -132 -93 -138 -13 -4 -14 19 -4 88 6 40 11 46
37 51 45 10 53 10 60 -1z m-1167 -192 c73 -1 137 -5 142 -8 5 -3 -43 -14 -108
-24 -64 -9 -150 -24 -189 -33 -40 -9 -76 -14 -79 -10 -4 4 -2 25 5 48 12 41
12 41 54 35 23 -3 102 -6 175 -8z m77 -204 c-22 -8 -247 -64 -260 -64 -21 0
-30 41 -12 55 9 7 68 11 149 12 73 1 129 0 123 -3z m270 -335 c22 -7 48 -19
58 -28 13 -11 22 -12 35 -5 10 6 77 11 157 11 136 0 139 0 85 -13 -30 -7 -95
-18 -143 -24 -94 -13 -198 -53 -231 -89 -10 -11 -23 -18 -27 -15 -10 6 -12
144 -3 169 4 9 12 14 18 11 6 -3 29 -10 51 -17z"/>
<path d="M1940 710 c-13 -31 -8 -60 10 -60 5 0 10 20 10 45 0 25 -2 45 -4 45
-2 0 -9 -13 -16 -30z"/>
<path d="M1930 30 l-21 -30 25 0 c22 0 26 4 26 30 0 17 -2 30 -4 30 -3 0 -14
-13 -26 -30z"/>
</g>
</svg>
