<?xml version="1.0" standalone="no"?>
<!DOCTYPE svg PUBLIC "-//W3C//DTD SVG 20010904//EN"
 "http://www.w3.org/TR/2001/REC-SVG-20010904/DTD/svg10.dtd">
<svg version="1.0" xmlns="http://www.w3.org/2000/svg"
 width="172.000000pt" height="122.000000pt" viewBox="0 0 172.000000 122.000000"
 preserveAspectRatio="xMidYMid meet">
<metadata>
Created by potrace 1.16, written by Peter Selinger 2001-2019
</metadata>
<g transform="translate(0.000000,122.000000) scale(0.100000,-0.100000)"
fill="#000000" stroke="none">
<path d="M566 1088 c-22 -37 -25 -58 -18 -143 8 -94 19 -102 75 -51 21 19 66
51 99 71 56 35 64 37 118 32 32 -3 63 -8 68 -11 6 -3 10 -36 9 -74 l-2 -67
-80 -8 c-44 -4 -187 -6 -317 -3 -208 5 -243 8 -289 27 -29 11 -63 18 -75 15
-29 -8 -39 -54 -27 -127 9 -62 26 -71 70 -41 15 10 52 33 81 50 l53 32 289 3
290 3 -1 -40 c-1 -23 -6 -70 -13 -106 l-11 -65 -200 -11 c-217 -12 -395 0
-458 31 -63 32 -82 2 -82 -130 0 -103 14 -108 88 -35 84 85 84 85 237 86 74 1
199 4 277 9 l142 7 3 -118 c4 -169 6 -164 -56 -164 -28 0 -62 7 -76 15 -49 28
-53 28 -67 9 -10 -14 -12 -37 -7 -94 13 -138 22 -150 81 -96 21 19 63 45 93
59 30 13 61 31 69 40 16 20 52 22 69 5 10 -10 17 -10 32 0 31 19 58 14 76 -13
13 -20 19 -23 30 -14 8 6 14 18 14 25 0 16 36 19 45 4 8 -13 45 -13 45 -1 0 5
26 11 58 14 31 3 69 8 84 12 24 6 29 4 38 -19 12 -33 28 -33 40 -1 5 13 12
144 15 290 l6 266 32 52 c49 80 85 129 107 144 11 8 20 22 20 32 0 16 -17 19
-197 24 -109 4 -232 9 -273 12 -41 2 -118 7 -170 10 -122 7 -207 21 -298 51
-91 30 -118 30 -136 2z m131 -74 c3 -13 -76 -66 -88 -59 -13 8 -11 69 2 82 12
12 81 -6 86 -23z m314 -36 c1 -7 1 -96 1 -198 1 -257 -12 -513 -25 -522 -6 -4
-18 -3 -27 2 -14 8 -17 28 -18 120 -1 107 4 135 30 172 10 14 9 21 -6 37 -16
18 -18 31 -12 88 3 38 9 79 12 93 4 14 6 62 5 108 -2 53 2 88 9 97 15 18 30
19 31 3z m110 0 c14 -11 15 -36 8 -183 -5 -93 -10 -192 -13 -220 -3 -27 -6
-104 -7 -171 0 -66 -4 -126 -9 -133 -4 -7 -18 -11 -31 -9 l-24 3 0 140 c1 77
4 226 8 330 3 105 6 202 7 217 0 24 7 30 41 37 3 0 12 -5 20 -11z m97 -44 c2
-21 -2 -115 -9 -209 -14 -181 -15 -257 -6 -345 7 -66 -8 -122 -31 -118 -8 2
-18 14 -22 28 -11 46 19 654 34 678 14 23 31 7 34 -34z m89 21 c-4 -8 -7 -74
-8 -147 0 -73 -6 -171 -11 -218 -6 -47 -13 -141 -17 -209 -4 -86 -10 -126 -18
-129 -10 -3 -13 18 -14 80 0 46 -4 103 -7 127 -5 32 28 480 37 509 1 1 10 2
22 2 14 0 19 -5 16 -15z m47 -375 c-23 -157 -24 -177 -15 -241 8 -62 5 -79
-13 -79 -23 0 -26 119 -7 270 7 58 16 175 20 261 10 204 25 228 29 44 2 -93
-3 -178 -14 -255z m196 371 c0 -14 -45 -76 -55 -76 -6 0 -11 12 -13 28 -4 31
-28 36 -37 8 -3 -11 -8 -80 -11 -153 -12 -361 -22 -469 -40 -475 -16 -5 -26
152 -14 218 16 87 41 321 40 364 -3 68 -1 75 23 85 28 11 107 13 107 1z
m-1305 -150 c6 -11 -26 -31 -49 -31 -9 0 -16 9 -16 20 0 15 7 20 29 20 17 0
32 -4 36 -9z m22 -267 c4 -13 -62 -66 -71 -57 -7 8 -8 46 0 66 6 16 65 9 71
-9z m587 -324 c16 0 13 -4 -14 -17 -19 -9 -46 -25 -59 -35 -35 -26 -41 -23
-41 23 l0 42 46 -7 c26 -3 56 -6 68 -6z"/>
</g>
</svg>
