<?xml version="1.0" standalone="no"?>
<!DOCTYPE svg PUBLIC "-//W3C//DTD SVG 20010904//EN"
 "http://www.w3.org/TR/2001/REC-SVG-20010904/DTD/svg10.dtd">
<svg version="1.0" xmlns="http://www.w3.org/2000/svg"
 width="414.000000pt" height="160.000000pt" viewBox="0 0 414.000000 160.000000"
 preserveAspectRatio="xMidYMid meet">
<metadata>
Created by potrace 1.16, written by Peter Selinger 2001-2019
</metadata>
<g transform="translate(0.000000,160.000000) scale(0.100000,-0.100000)"
fill="#000000" stroke="none">
<path d="M3625 1492 c-16 -11 -53 -102 -66 -162 -10 -46 -36 -140 -68 -250 -7
-22 -15 -26 -77 -33 -92 -10 -770 -14 -780 -4 -14 14 26 172 71 285 14 33 15
46 6 55 -15 15 -270 10 -288 -5 -8 -7 -12 -36 -11 -85 0 -40 -3 -78 -8 -83
-26 -26 -1431 -11 -1654 16 -69 9 -170 19 -225 24 -149 11 -175 -9 -175 -140
0 -95 -10 -117 -57 -125 -72 -11 -85 -31 -60 -87 26 -57 36 -101 39 -177 l3
-74 -88 -30 c-48 -17 -86 -35 -84 -41 6 -19 56 -18 108 0 65 24 72 15 63 -87
-4 -57 -3 -78 8 -86 31 -27 55 23 65 133 4 55 10 75 22 78 9 3 57 12 106 21
100 18 181 34 208 42 15 4 17 -3 17 -52 0 -32 -7 -88 -17 -126 -13 -56 -14
-71 -3 -84 7 -8 16 -15 21 -15 24 0 69 135 69 207 0 80 8 89 104 106 72 14
112 15 253 6 159 -9 297 -30 335 -50 9 -5 24 -9 34 -9 37 0 157 -65 244 -132
20 -15 85 -52 145 -83 61 -30 151 -78 200 -105 50 -27 125 -67 168 -87 72 -35
77 -41 83 -75 4 -20 15 -46 26 -57 19 -21 72 -29 82 -13 3 4 7 44 10 88 12
179 41 372 71 479 13 44 26 96 29 116 8 44 24 59 74 69 20 4 84 18 142 29 58
12 157 28 220 36 63 8 151 18 195 24 44 5 120 12 168 15 104 7 102 19 27 -139
-55 -116 -174 -270 -292 -380 -81 -75 -205 -149 -273 -161 -47 -8 -65 -20 -65
-44 0 -29 32 -47 108 -59 41 -6 104 -22 141 -35 79 -28 247 -51 320 -44 59 6
81 23 160 123 60 75 111 202 147 360 35 158 44 213 52 312 4 45 11 85 15 90 5
4 50 11 100 15 87 6 123 10 224 23 50 7 73 29 52 50 -12 12 -37 12 -179 0 -91
-8 -173 -12 -184 -9 -16 5 -18 13 -12 73 12 137 18 310 12 335 -5 21 -12 26
-39 26 -17 0 -37 -4 -42 -8z m-995 -182 c0 -5 -41 -183 -82 -358 -7 -31 -17
-46 -34 -52 -27 -10 -30 -30 -12 -60 10 -16 9 -32 -4 -82 -10 -35 -25 -92 -34
-128 -24 -94 -24 -93 -30 -87 -3 3 2 67 11 142 9 75 13 155 10 177 -6 36 9
347 21 426 l5 33 75 -3 c40 -1 74 -5 74 -8z m1008 -120 c-5 -36 -11 -80 -14
-97 -4 -24 -10 -33 -24 -33 -22 0 -25 16 -11 52 5 13 14 48 21 78 19 90 21 95
30 79 4 -8 3 -43 -2 -79z m-2993 -6 c88 -19 357 -33 631 -34 116 0 240 -3 275
-7 64 -7 64 -7 24 -15 -22 -4 -94 -10 -160 -13 -66 -4 -142 -11 -168 -16 -26
-5 -75 -9 -107 -9 -33 0 -103 -5 -157 -10 -160 -17 -528 -38 -534 -31 -4 3 -9
39 -11 79 l-5 72 71 0 c39 0 103 -7 141 -16z m1757 -199 c-1 -93 -7 -233 -12
-310 -6 -77 -12 -176 -15 -220 -2 -44 -8 -99 -11 -123 -6 -38 -9 -42 -28 -36
-26 8 -255 132 -276 150 -9 7 -67 39 -130 70 -63 31 -144 78 -180 104 -36 26
-84 54 -107 63 -97 38 -172 60 -243 73 -113 20 -420 29 -512 15 -43 -7 -82
-10 -87 -6 -12 7 48 152 82 199 12 17 21 36 19 42 -3 16 27 20 473 59 94 9
179 18 190 21 11 3 112 9 225 14 261 11 419 25 495 44 33 8 74 14 90 13 l30
-2 -3 -170z m-1559 12 c-4 -7 -19 -29 -34 -49 l-27 -38 -6 42 c-7 46 -3 55 34
60 31 5 42 0 33 -15z m-152 -37 c4 -19 11 -77 14 -127 l7 -93 -28 -11 c-16 -6
-67 -18 -114 -26 -47 -8 -112 -21 -145 -28 -46 -11 -61 -11 -67 -2 -14 21 -9
72 10 97 9 13 40 67 67 119 56 108 59 110 185 107 l64 -1 7 -35z m2166 7 c3
-4 -8 -7 -26 -7 -18 0 -77 -9 -132 -21 -56 -11 -103 -18 -105 -16 -3 3 -2 15
1 29 6 23 7 23 130 23 69 -1 128 -4 132 -8z m753 -29 c0 -73 -68 -394 -107
-504 -42 -119 -135 -228 -213 -247 -40 -10 -231 24 -283 50 -33 17 -28 28 20
48 43 18 246 220 321 320 29 39 87 139 129 223 71 143 77 152 104 152 27 0 29
-2 29 -42z m-3240 -17 c0 -5 -10 -31 -21 -58 l-21 -48 -14 31 c-7 17 -16 43
-20 58 -6 25 -4 26 35 26 23 0 41 -4 41 -9z"/>
<path d="M3886 625 c-39 -47 -44 -77 -14 -83 20 -4 80 83 76 107 -6 28 -26 21
-62 -24z"/>
<path d="M802 299 c-19 -18 -52 -70 -75 -116 -28 -59 -53 -95 -81 -118 -53
-42 -84 -58 -102 -51 -20 8 -17 20 12 56 20 23 24 34 16 42 -9 9 -16 7 -30 -5
-23 -21 -32 -21 -32 -3 0 7 -7 19 -15 26 -22 18 -106 -16 -186 -74 -35 -25
-64 -44 -67 -42 -2 3 2 20 9 39 15 44 5 87 -21 87 -11 0 -35 -13 -53 -30 -43
-37 -50 -37 -64 0 -15 39 -37 47 -79 27 -28 -14 -34 -22 -34 -49 l0 -31 24 22
c14 13 30 20 36 16 12 -7 10 -44 -5 -77 -12 -29 42 -22 84 10 62 49 65 49 57
8 l-7 -36 56 0 c30 0 65 6 76 13 17 10 23 10 26 0 6 -17 95 -17 111 -1 9 9 15
9 24 0 15 -15 132 -16 158 -2 13 7 21 7 25 0 9 -14 52 -12 59 3 5 10 7 10 12
0 3 -8 26 -13 60 -13 31 0 53 4 50 9 -3 5 -16 7 -28 3 -16 -4 -20 -1 -16 9 30
80 32 89 20 101 -9 9 -18 9 -37 0 -14 -6 -25 -9 -25 -7 0 3 19 31 43 64 50 67
72 114 63 136 -8 23 -28 18 -64 -16z m-352 -219 c0 -15 -31 -60 -41 -60 -15 0
-10 32 8 52 18 20 33 24 33 8z"/>
<path d="M1860 267 c-51 -26 -64 -107 -17 -107 11 0 34 12 49 27 l28 27 0 -23
c0 -31 -70 -101 -102 -101 -27 0 -98 -55 -98 -76 0 -11 17 -14 78 -14 l79 0
-4 28 c-3 20 4 36 29 62 71 75 84 116 52 165 -18 28 -54 32 -94 12z"/>
<path d="M1134 221 c-51 -37 -73 -63 -117 -137 -40 -67 -45 -84 -22 -84 8 0
15 4 15 9 0 24 103 160 143 190 25 19 44 38 41 43 -8 13 -19 10 -60 -21z"/>
<path d="M3796 74 c-42 -36 -76 -68 -76 -70 0 -2 27 -4 60 -4 53 0 60 2 60 19
0 11 14 33 31 50 30 30 35 61 13 68 -7 2 -46 -26 -88 -63z"/>
<path d="M3607 96 c-71 -30 -103 -50 -117 -76 -10 -18 -8 -20 24 -20 26 0 34
4 30 14 -3 8 5 17 23 24 15 5 37 13 47 18 29 11 10 -14 -28 -37 l-31 -19 66 0
67 0 6 33 c3 18 15 40 26 50 49 42 -23 50 -113 13z"/>
<path d="M3970 111 c0 -5 -22 -32 -49 -60 l-50 -51 79 0 c65 0 81 3 90 17 10
17 10 17 20 1 7 -12 23 -18 45 -18 31 0 35 3 35 25 0 14 -3 25 -8 25 -4 0 -12
10 -17 22 -10 24 -42 29 -77 13 -14 -5 -18 -2 -18 14 0 16 -6 21 -25 21 -14 0
-25 -4 -25 -9z"/>
<path d="M1190 90 c-24 -15 -9 -19 73 -21 80 -2 94 2 82 20 -8 13 -134 14
-155 1z"/>
<path d="M1114 15 c-17 -13 -12 -14 59 -15 78 0 103 12 46 24 -50 10 -84 7
-105 -9z"/>
</g>
</svg>
