<?xml version="1.0" standalone="no"?>
<!DOCTYPE svg PUBLIC "-//W3C//DTD SVG 20010904//EN"
 "http://www.w3.org/TR/2001/REC-SVG-20010904/DTD/svg10.dtd">
<svg version="1.0" xmlns="http://www.w3.org/2000/svg"
 width="142.000000pt" height="84.000000pt" viewBox="0 0 142.000000 84.000000"
 preserveAspectRatio="xMidYMid meet">
<metadata>
Created by potrace 1.16, written by Peter Selinger 2001-2019
</metadata>
<g transform="translate(0.000000,84.000000) scale(0.100000,-0.100000)"
fill="#000000" stroke="none">
<path d="M658 680 c-19 -15 -21 -22 -12 -51 6 -19 9 -39 7 -45 -4 -13 -228
-10 -303 5 -30 6 -79 21 -108 33 l-54 22 -19 -24 c-17 -21 -19 -38 -17 -112 2
-52 8 -92 15 -99 13 -13 46 -1 146 52 73 39 152 60 245 66 51 3 92 2 92 -3 9
-158 8 -244 0 -249 -6 -3 -24 1 -42 9 -20 10 -58 16 -107 16 -42 0 -103 4
-136 10 -33 5 -85 11 -115 13 -30 3 -62 8 -71 11 -29 13 -40 -19 -43 -124 -2
-76 1 -103 11 -107 14 -5 62 22 106 60 16 13 57 34 92 46 35 13 69 29 76 37 6
8 26 14 44 14 25 0 34 -5 38 -21 5 -17 10 -19 29 -13 25 8 32 9 92 6 28 -2 37
-6 33 -16 -3 -7 -9 -35 -12 -61 -7 -42 -6 -47 11 -43 12 2 23 20 34 56 9 28
21 57 28 64 15 15 16 48 1 48 -8 0 -10 22 -7 68 3 66 5 70 58 133 30 36 64 79
76 95 l21 29 -4 -220 c-4 -229 0 -261 32 -235 11 9 16 27 15 54 -4 101 -11 91
109 168 14 9 31 21 37 26 33 29 54 32 149 21 71 -8 100 -8 108 0 7 7 8 14 1
21 -15 15 -196 30 -290 24 l-86 -6 13 24 c7 13 36 58 66 102 30 43 52 84 50
90 -2 7 -34 11 -83 12 -43 0 -130 3 -191 6 -99 6 -115 4 -135 -12z m172 -44
c0 -12 -42 -80 -52 -84 -4 -2 -8 -8 -8 -13 0 -13 -42 -59 -54 -59 -7 0 -11 30
-12 80 -1 88 -3 86 78 85 27 0 48 -4 48 -9z m164 5 c6 -8 -61 -120 -87 -146
-13 -13 1 116 14 132 6 6 20 14 32 16 12 2 25 5 29 6 4 0 9 -3 12 -8z m-651
-110 c11 -11 -75 -51 -109 -51 -20 0 -25 4 -20 16 3 9 6 25 6 36 0 19 4 20 57
14 32 -4 61 -10 66 -15z m672 -114 c-6 -14 -87 -67 -104 -67 -18 0 -13 58 7
69 26 15 103 14 97 -2z m-695 -160 c0 -7 -15 -18 -32 -26 -18 -8 -45 -23 -60
-33 -21 -14 -28 -16 -29 -6 -2 19 3 72 6 78 6 11 115 -2 115 -13z"/>
</g>
</svg>
