<?xml version="1.0" standalone="no"?>
<!DOCTYPE svg PUBLIC "-//W3C//DTD SVG 20010904//EN"
 "http://www.w3.org/TR/2001/REC-SVG-20010904/DTD/svg10.dtd">
<svg version="1.0" xmlns="http://www.w3.org/2000/svg"
 width="240.000000pt" height="120.000000pt" viewBox="0 0 240.000000 120.000000"
 preserveAspectRatio="xMidYMid meet">
<metadata>
Created by potrace 1.16, written by Peter Selinger 2001-2019
</metadata>
<g transform="translate(0.000000,120.000000) scale(0.100000,-0.100000)"
fill="#000000" stroke="none">
<path d="M1956 1175 c16 -24 44 -34 44 -16 0 25 -14 41 -36 41 -24 0 -24 -1
-8 -25z"/>
<path d="M2153 1103 c-3 -7 0 -33 6 -58 15 -60 14 -155 -1 -159 -28 -9 -304
-22 -312 -15 -4 4 11 28 34 53 23 25 39 49 36 54 -3 6 -35 10 -72 10 -36 0
-83 3 -105 7 -49 8 -64 -15 -30 -46 32 -30 25 -73 -13 -77 -45 -5 -72 5 -84
33 -10 22 -15 24 -33 14 -19 -10 -21 -18 -17 -93 l3 -83 -215 -7 c-118 -3
-284 -11 -368 -18 -121 -8 -158 -8 -176 2 -19 10 -32 10 -60 0 -60 -19 -135 2
-218 62 -13 9 -20 9 -33 -2 -26 -21 -36 -57 -36 -126 -1 -83 6 -104 36 -104
18 0 26 -7 31 -24 3 -14 3 -30 -1 -35 -15 -25 -259 -3 -312 29 -44 26 -59 25
-77 -3 -20 -30 -16 -195 5 -208 22 -14 28 -11 62 25 57 60 139 87 272 90 l49
1 4 -84 c1 -45 -2 -99 -9 -118 -8 -26 -8 -41 1 -61 15 -36 83 -82 120 -82 33
0 50 24 31 43 -6 6 -11 20 -11 32 0 24 48 98 59 91 5 -3 4 -28 -2 -56 -7 -36
-7 -54 1 -62 21 -21 40 11 53 85 16 94 22 105 74 128 24 11 59 32 76 47 32 27
56 32 153 32 42 0 106 -37 181 -105 22 -20 49 -44 60 -54 11 -10 53 -39 93
-64 62 -41 72 -51 72 -76 0 -72 26 -79 83 -21 63 65 95 76 257 89 275 22 350
34 350 57 0 13 -13 14 -87 9 -49 -4 -115 -11 -148 -16 -146 -22 -316 -3 -379
42 -44 32 -76 26 -76 -14 -1 -61 -29 -49 -174 73 -82 69 -91 87 -103 188 -3
30 -12 56 -18 58 -7 3 -52 -21 -101 -54 -49 -32 -107 -69 -129 -82 -22 -13
-63 -41 -92 -62 -29 -21 -55 -34 -58 -28 -3 5 -3 40 1 77 6 64 10 72 61 133
96 113 92 112 271 121 87 4 227 11 312 14 85 3 176 8 201 10 35 4 51 1 67 -12
20 -17 20 -24 12 -168 -8 -161 -4 -188 23 -160 13 13 17 36 17 103 1 134 18
292 34 317 10 15 32 26 73 34 75 15 243 26 277 17 25 -6 26 -8 26 -84 0 -79
-16 -271 -35 -427 -8 -59 3 -75 30 -44 12 12 20 39 22 72 5 99 33 412 39 437
3 14 14 34 23 45 10 11 21 38 25 61 7 51 42 132 68 161 39 42 20 52 -92 51
-76 -1 -103 -5 -107 -15z m122 -60 c-8 -36 -47 -144 -50 -141 -1 2 -5 38 -9
80 l-7 77 28 4 c15 2 32 5 37 6 4 0 5 -11 1 -26z m-462 -109 c3 -4 -1 -21 -10
-38 -15 -28 -17 -29 -24 -11 -13 35 -10 55 9 55 10 0 21 -3 25 -6z m-73 -149
c0 -31 -14 -37 -76 -33 l-48 3 40 27 c52 36 84 37 84 3z m-1132 -110 c3 -3
-63 -45 -71 -45 -12 0 -16 32 -7 55 10 25 10 25 42 9 18 -9 34 -18 36 -19z
m292 -10 c0 -9 -72 -85 -81 -85 -10 0 -12 73 -2 83 7 8 83 10 83 2z m-134 -87
c-4 -46 -7 -98 -6 -117 2 -59 -21 -145 -42 -160 -37 -25 -138 -72 -145 -68 -5
3 -6 47 -3 98 l5 93 48 14 c51 14 65 45 26 57 -21 7 -21 7 -1 28 29 32 72 104
65 110 -11 11 9 27 34 27 l26 0 -7 -82z m-106 43 c0 -16 -71 -101 -81 -96 -5
4 -9 19 -9 35 0 21 8 33 33 48 35 22 57 27 57 13z m490 -118 c0 -5 3 -18 6
-31 6 -21 4 -22 -22 -16 -40 9 -50 20 -34 39 13 15 50 21 50 8z m-907 -49 c37
-8 34 -17 -10 -34 -21 -8 -41 -16 -45 -18 -5 -2 -8 13 -8 33 0 30 3 35 18 31
9 -3 29 -8 45 -12z m1340 -241 c25 -8 21 -28 -10 -44 -16 -7 -31 -15 -34 -17
-10 -5 -20 44 -13 63 4 10 12 14 23 9 9 -3 24 -9 34 -11z m-972 -46 c-8 -8
-14 -7 -23 2 -11 10 -9 15 7 27 18 13 20 13 23 -2 2 -9 -1 -21 -7 -27z"/>
</g>
</svg>
