<?xml version="1.0" standalone="no"?>
<!DOCTYPE svg PUBLIC "-//W3C//DTD SVG 20010904//EN"
 "http://www.w3.org/TR/2001/REC-SVG-20010904/DTD/svg10.dtd">
<svg version="1.0" xmlns="http://www.w3.org/2000/svg"
 width="276.000000pt" height="132.000000pt" viewBox="0 0 276.000000 132.000000"
 preserveAspectRatio="xMidYMid meet">
<metadata>
Created by potrace 1.16, written by Peter Selinger 2001-2019
</metadata>
<g transform="translate(0.000000,132.000000) scale(0.100000,-0.100000)"
fill="#000000" stroke="none">
<path d="M540 1300 c-12 -23 -6 -40 16 -40 12 0 34 36 34 56 0 14 -41 1 -50
-16z"/>
<path d="M1936 1153 c-7 -16 -20 -48 -27 -71 -16 -56 -43 -68 -118 -53 -76 15
-111 14 -118 -5 -8 -23 7 -29 103 -44 57 -8 84 -16 84 -25 0 -8 -20 -42 -43
-77 -24 -35 -63 -91 -87 -125 -101 -147 -223 -199 -445 -190 -81 3 -143 12
-190 26 -177 54 -212 67 -240 87 -32 22 -72 42 -145 69 -25 9 -61 27 -80 39
-35 22 -140 63 -191 73 -19 3 -32 -1 -46 -16 -16 -18 -21 -41 -26 -133 -5 -73
-11 -114 -19 -120 -13 -8 -93 -4 -174 8 -45 6 -84 -8 -84 -31 0 -23 77 -40
168 -37 99 3 103 -2 73 -88 -27 -78 -28 -146 -2 -160 12 -6 29 -7 43 -1 31 12
116 20 286 27 91 4 157 11 179 20 31 13 43 13 105 -1 38 -8 77 -20 86 -25 32
-18 164 -72 285 -117 67 -25 147 -54 177 -66 70 -27 278 -32 321 -7 48 28 107
69 131 92 13 13 54 51 91 85 81 76 198 231 263 350 93 169 113 213 128 285 8
36 48 48 161 48 76 0 94 3 99 16 13 33 -4 37 -120 30 -128 -8 -121 -13 -104
74 10 54 -2 83 -33 78 -18 -2 -25 -16 -42 -83 l-20 -80 -110 -3 c-61 -2 -154
2 -207 9 l-98 12 0 31 c0 17 9 46 21 65 11 18 18 40 15 47 -9 23 -35 16 -50
-13z m421 -206 c9 -10 -28 -112 -77 -209 -91 -182 -201 -337 -316 -448 -124
-119 -180 -149 -279 -149 -70 0 -201 34 -249 63 -11 8 -70 31 -131 51 -60 21
-122 43 -136 50 -58 30 -178 66 -239 71 -37 4 -104 2 -151 -5 -46 -6 -106 -12
-134 -13 l-50 -3 0 80 c0 44 4 108 9 143 7 54 6 62 -7 62 -35 0 -52 -49 -56
-162 -2 -64 -8 -111 -15 -116 -13 -11 -137 -34 -144 -27 -2 2 -1 12 3 22 5 10
9 47 9 83 1 43 7 75 17 91 11 16 14 31 8 41 -9 16 0 210 10 227 9 14 124 -28
186 -68 27 -17 73 -38 103 -47 31 -8 69 -26 86 -39 29 -21 79 -39 276 -97 95
-27 266 -36 365 -17 38 7 99 26 135 42 96 44 140 85 227 217 9 14 27 36 39 50
13 14 32 47 44 73 l21 48 222 -6 c122 -4 223 -7 224 -8z"/>
<path d="M2738 808 c-10 -18 -26 -57 -38 -86 -24 -63 -49 -101 -109 -164 -34
-36 -42 -51 -34 -59 9 -9 19 -9 41 0 16 7 59 13 95 14 61 2 67 4 67 23 0 19
-4 21 -50 16 -27 -2 -50 -1 -50 3 0 17 53 101 77 121 22 19 24 27 21 93 l-3
72 -17 -33z"/>
<path d="M2418 3 c6 -2 18 -2 25 0 6 3 1 5 -13 5 -14 0 -19 -2 -12 -5z"/>
</g>
</svg>
