<?xml version="1.0" standalone="no"?>
<!DOCTYPE svg PUBLIC "-//W3C//DTD SVG 20010904//EN"
 "http://www.w3.org/TR/2001/REC-SVG-20010904/DTD/svg10.dtd">
<svg version="1.0" xmlns="http://www.w3.org/2000/svg"
 width="164.000000pt" height="154.000000pt" viewBox="0 0 164.000000 154.000000"
 preserveAspectRatio="xMidYMid meet">
<metadata>
Created by potrace 1.16, written by Peter Selinger 2001-2019
</metadata>
<g transform="translate(0.000000,154.000000) scale(0.100000,-0.100000)"
fill="#000000" stroke="none">
<path d="M1365 1349 c-38 -5 -216 -8 -395 -6 -179 1 -331 -2 -338 -6 -18 -12
1 -33 36 -40 27 -5 27 -6 27 -84 -1 -69 -4 -82 -24 -102 -23 -23 -24 -24 -5
-38 17 -12 19 -28 20 -123 l1 -108 -131 5 c-72 3 -134 8 -138 12 -4 4 -1 19 7
35 19 37 19 66 -1 66 -9 0 -24 -20 -36 -50 -12 -28 -29 -52 -40 -56 -15 -4
-18 -12 -13 -31 6 -24 1 -34 -125 -268 -18 -33 -41 -72 -51 -87 -26 -37 -24
-50 9 -46 23 3 32 14 61 76 24 50 40 72 52 72 16 0 17 -4 9 -26 -6 -14 -14
-34 -20 -44 -16 -30 29 -70 76 -67 34 2 40 7 73 62 41 67 52 73 160 74 l74 1
-7 -53 c-20 -153 -20 -197 1 -220 17 -19 19 -32 14 -111 -5 -67 -3 -93 7 -103
7 -7 15 -13 17 -13 2 0 32 28 67 63 35 34 79 71 98 82 96 56 87 54 250 55 158
1 260 16 268 39 7 20 -18 30 -46 20 -14 -5 -29 -6 -33 -2 -4 4 -3 42 2 83 5
41 14 127 20 190 5 63 17 149 25 190 9 41 17 109 17 150 2 70 5 79 43 135 22
33 56 87 75 119 19 33 49 74 67 92 36 37 41 61 15 67 -29 7 -114 5 -188 -4z
m89 -52 c18 -13 17 -15 -6 -53 -14 -21 -38 -61 -53 -88 -16 -28 -30 -44 -34
-37 -8 12 10 160 22 179 11 16 48 15 71 -1z m-543 -97 c-2 -52 -8 -102 -14
-111 -8 -13 -8 -21 1 -31 8 -10 9 -24 2 -49 -6 -18 -10 -56 -10 -82 0 -77 -10
-87 -85 -87 l-65 0 -2 48 c-1 26 -1 56 0 67 0 11 2 46 2 78 2 51 7 63 41 105
21 25 39 52 39 59 0 7 14 23 31 35 19 14 28 29 26 40 -5 17 9 29 28 24 6 -2 9
-39 6 -96z m119 83 c-1 -24 -43 -96 -59 -101 -19 -6 -9 97 10 109 23 15 49 10
49 -8z m220 -1 c0 -16 -75 -142 -84 -142 -2 0 -3 33 -2 73 l1 72 35 6 c19 3
38 7 43 8 4 0 7 -7 7 -17z m-433 -24 c-18 -18 -38 -42 -44 -52 -16 -29 -33 -9
-33 40 l0 44 56 0 55 0 -34 -32z m306 -10 c-2 -24 -9 -68 -15 -98 -6 -30 -13
-109 -17 -175 l-6 -120 -75 0 -75 0 3 40 c1 22 7 60 12 85 5 25 11 61 15 82 3
20 21 58 41 85 19 26 48 69 64 96 38 61 60 63 53 5z m191 -50 c-3 -29 -9 -120
-12 -203 l-7 -150 -78 -3 -78 -3 3 93 c2 79 6 96 26 120 13 15 34 47 47 71 73
139 110 166 99 75z m-260 -394 c13 -5 16 -23 16 -89 l0 -83 -67 -4 c-91 -7
-96 -1 -86 93 l8 74 35 6 c50 9 76 10 94 3z m-373 -21 c9 -9 -5 -144 -17 -164
-3 -5 -43 -9 -89 -9 -70 0 -86 3 -94 18 -8 14 -12 15 -22 5 -21 -21 -29 -15
-19 13 13 34 13 44 -4 44 -8 0 -23 -16 -35 -35 -30 -51 -44 -43 -22 13 34 84
49 117 58 126 11 11 232 1 244 -11z m185 -55 c-11 -112 -8 -108 -82 -108 -58
0 -65 2 -60 18 2 9 8 47 11 84 l7 67 42 4 c99 9 89 16 82 -65z m402 -11 c3
-76 4 -75 -78 -79 l-55 -3 -6 70 c-4 39 -3 75 1 80 5 6 35 8 72 5 l63 -5 3
-68z m-921 -29 c-3 -8 -6 -5 -6 6 -1 11 2 17 5 13 3 -3 4 -12 1 -19z m-14 -38
c-6 -21 -21 -35 -29 -27 -6 6 18 47 27 47 4 0 5 -9 2 -20z m912 -66 c17 -18
15 -43 -11 -123 -12 -35 -12 -51 -4 -72 19 -45 -1 -71 -53 -67 -40 3 -42 4
-39 32 5 43 -6 76 -24 76 -13 0 -15 7 -9 38 5 20 11 55 14 77 6 40 7 40 56 46
28 3 51 7 52 7 1 1 9 -5 18 -14z m-187 -7 c8 -10 6 -34 -7 -92 -21 -87 -19
-102 12 -107 16 -2 22 -10 22 -28 0 -25 -2 -25 -88 -28 -111 -4 -119 2 -112
77 10 116 18 166 27 179 14 17 132 16 146 -1z m-216 -27 c-1 -14 -5 -66 -8
-117 -4 -53 -11 -94 -18 -96 -14 -5 -114 7 -121 15 -12 12 12 210 26 219 8 5
39 8 69 7 52 -3 55 -4 52 -28z m-443 -17 c-8 -10 -20 -25 -28 -33 -13 -13 -13
-13 -8 0 4 8 10 23 13 33 4 9 13 17 21 17 13 0 13 -3 2 -17z m461 -253 c0 -5
-24 -25 -54 -44 -30 -19 -57 -39 -60 -45 -15 -24 -26 -8 -26 38 0 56 3 58 88
60 28 0 52 -3 52 -9z"/>
<path d="M1607 980 c-33 -58 -33 -93 1 -98 28 -4 34 11 30 87 l-3 61 -28 -50z"/>
<path d="M285 937 c-19 -35 -35 -67 -35 -70 0 -4 -36 -80 -79 -169 -85 -175
-109 -234 -98 -244 14 -14 36 7 52 53 10 26 65 143 123 260 57 116 101 217 97
222 -12 21 -24 10 -60 -52z"/>
<path d="M222 978 c-6 -7 -29 -56 -52 -108 -47 -108 -105 -224 -143 -290 -17
-29 -27 -59 -26 -85 l0 -40 22 42 c12 24 47 89 79 145 66 120 158 315 158 334
0 17 -24 18 -38 2z"/>
<path d="M7 843 c-4 -3 -7 -38 -7 -76 l0 -70 30 44 c34 51 38 84 11 99 -23 12
-26 12 -34 3z"/>
</g>
</svg>
