<?xml version="1.0" standalone="no"?>
<!DOCTYPE svg PUBLIC "-//W3C//DTD SVG 20010904//EN"
 "http://www.w3.org/TR/2001/REC-SVG-20010904/DTD/svg10.dtd">
<svg version="1.0" xmlns="http://www.w3.org/2000/svg"
 width="262.000000pt" height="116.000000pt" viewBox="0 0 262.000000 116.000000"
 preserveAspectRatio="xMidYMid meet">
<metadata>
Created by potrace 1.16, written by Peter Selinger 2001-2019
</metadata>
<g transform="translate(0.000000,116.000000) scale(0.100000,-0.100000)"
fill="#000000" stroke="none">
<path d="M803 973 c-15 -5 -18 -40 -4 -45 5 -1 11 -28 12 -58 4 -50 2 -54 -21
-61 -14 -4 -102 -7 -195 -8 -146 -1 -183 2 -260 22 -50 12 -108 32 -130 43
-22 12 -56 21 -75 20 l-35 -1 3 -87 c2 -57 -1 -95 -9 -110 -18 -33 -20 -264
-3 -279 14 -12 22 -8 74 32 44 34 168 73 296 93 54 9 124 21 154 26 120 20
150 21 157 3 5 -14 8 -13 15 6 4 13 13 21 20 19 8 -3 11 -44 10 -137 -1 -74
-4 -136 -7 -139 -3 -3 -5 -27 -5 -52 0 -50 18 -77 45 -66 12 4 15 28 14 133 0
80 5 151 14 188 28 111 85 283 98 291 5 3 9 14 9 25 0 10 7 19 15 19 21 0 21
-149 0 -191 -14 -26 -14 -34 0 -82 15 -46 20 -188 12 -307 -1 -16 4 -26 15
-28 26 -5 38 36 38 124 l0 75 72 69 c40 39 75 70 78 70 3 0 11 -35 17 -77 12
-81 3 -237 -17 -322 -12 -49 -4 -67 28 -57 15 5 20 19 26 67 3 33 8 65 11 69
4 7 121 68 169 89 9 4 2 -148 -9 -192 -7 -25 -5 -27 23 -27 l30 0 7 75 c5 50
14 83 26 99 11 13 19 29 19 34 0 24 37 33 176 41 147 8 149 8 176 -15 16 -12
37 -26 49 -29 12 -4 32 -31 50 -68 66 -135 67 -137 107 -137 38 0 39 1 93 92
24 41 41 59 71 78 16 9 45 32 65 51 21 19 54 46 73 59 19 13 44 33 55 43 11
10 32 25 46 32 27 15 42 38 32 49 -4 3 -20 6 -38 6 -35 0 -55 15 -55 41 0 10
-23 44 -50 75 -65 74 -69 92 -37 157 14 29 29 69 33 90 8 46 -2 47 -77 10 -30
-14 -67 -25 -84 -24 -43 2 -121 29 -135 47 -7 7 -21 14 -32 14 -34 0 -54 -31
-128 -196 -18 -41 -19 -41 -87 -49 -37 -4 -196 -9 -353 -10 -157 -1 -314 -6
-349 -10 l-63 -7 33 58 c18 33 45 83 61 111 16 29 43 64 60 77 26 20 29 27 20
39 -9 11 -54 14 -224 14 -117 1 -219 -1 -225 -4z m157 -64 c0 -11 -14 -53 -31
-92 -16 -40 -34 -82 -39 -94 -5 -13 -14 -23 -20 -23 -14 0 -13 63 2 78 9 9 9
15 0 24 -7 7 -12 38 -12 70 l0 58 50 0 c44 0 50 -3 50 -21z m210 17 c0 -6 -89
-149 -98 -158 -5 -5 -12 22 -16 61 -3 38 -9 76 -12 85 -5 14 4 16 60 16 36 0
66 -2 66 -4z m901 -46 c26 -15 24 -22 -19 -66 -21 -22 -47 -52 -59 -69 -32
-46 -37 -24 -8 38 14 31 29 67 35 81 10 28 21 31 51 16z m259 -23 c0 -7 -7
-22 -15 -33 -15 -18 -15 -18 -29 -1 -8 11 -12 25 -9 33 7 18 53 19 53 1z
m-106 -46 c20 -18 70 -110 63 -118 -7 -6 -39 -6 -63 2 -30 9 -38 -17 -16 -54
14 -25 15 -36 5 -68 -6 -21 -23 -81 -37 -133 -15 -52 -33 -108 -41 -125 -8
-16 -19 -49 -25 -72 -12 -50 -23 -54 -38 -15 -23 59 -27 102 -22 242 l5 145
48 80 c51 87 54 97 32 115 -8 7 -12 16 -9 21 8 13 75 0 98 -20z m-2024 -6 c14
-8 36 -14 50 -15 41 0 103 -21 94 -30 -12 -12 -197 -81 -202 -76 -2 2 1 21 7
43 6 21 11 50 11 66 0 31 5 32 40 12z m614 -51 c3 -9 6 -35 6 -59 0 -36 -4
-44 -22 -49 -30 -8 -388 -6 -503 3 l-90 7 55 26 c112 54 180 71 305 78 217 12
242 12 249 -6z m1266 -9 c0 -4 -7 -20 -17 -38 l-16 -32 -11 24 c-8 19 -7 26 9
37 19 14 35 18 35 9z m-90 -86 c8 -11 13 -267 5 -278 -11 -18 -35 1 -35 28 0
15 -5 32 -11 38 -8 8 -8 27 1 68 14 68 5 85 -36 66 -15 -6 -29 -10 -31 -7 -5
4 32 82 49 103 8 10 15 10 32 1 11 -6 23 -15 26 -19z m-120 -7 c0 -24 -60
-118 -88 -138 -30 -21 -28 -39 7 -54 16 -6 32 -18 34 -24 4 -10 -24 -15 -116
-19 -67 -3 -123 -4 -126 -2 -5 5 7 33 40 98 25 47 20 49 -89 44 -91 -4 -114
-16 -94 -47 6 -10 15 -38 18 -61 l7 -42 -76 6 c-42 3 -81 8 -86 11 -19 12 95
172 132 185 15 5 27 17 27 25 0 13 14 16 73 17 39 0 95 4 122 9 28 4 87 8 133
9 73 1 82 -1 82 -17z m-680 -20 c0 -22 -104 -126 -121 -120 -17 6 -39 96 -25
106 18 11 88 30 119 31 20 1 27 -4 27 -17z m200 12 c0 -3 -20 -29 -45 -57 -25
-29 -45 -55 -45 -59 0 -5 -6 -8 -14 -8 -8 0 -16 17 -20 46 -12 87 -14 84 59
84 36 0 65 -3 65 -6z m960 -36 c0 -12 7 -29 15 -38 14 -15 12 -20 -18 -52 -19
-20 -42 -52 -51 -72 -10 -20 -37 -61 -62 -91 -24 -30 -44 -59 -44 -65 0 -5 -4
-10 -9 -10 -11 0 -2 34 23 94 9 21 16 49 16 63 0 35 44 123 81 161 37 38 49
40 49 10z m-1857 -17 c4 -4 -27 -14 -70 -21 -43 -7 -124 -28 -181 -47 -109
-37 -122 -36 -117 10 1 12 3 35 4 51 l1 29 177 -7 c98 -3 181 -10 186 -15z
m1405 -102 c-4 -28 -17 -33 -43 -13 -20 15 -20 15 5 34 28 21 43 13 38 -21z
m538 19 c4 -7 -14 -31 -46 -60 -78 -71 -89 -66 -38 19 23 39 38 53 55 53 12 0
25 -5 29 -12z m-876 -12 c0 -22 -29 -86 -40 -86 -5 0 -12 12 -16 28 -3 15 -8
33 -10 40 -7 22 5 32 37 32 18 0 29 -5 29 -14z m-212 -122 c31 -9 28 -18 -14
-37 -39 -19 -54 -15 -54 13 0 26 25 35 68 24z"/>
<path d="M2605 120 c-3 -5 -1 -10 4 -10 6 0 11 5 11 10 0 6 -2 10 -4 10 -3 0
-8 -4 -11 -10z"/>
<path d="M198 53 c6 -2 18 -2 25 0 6 3 1 5 -13 5 -14 0 -19 -2 -12 -5z"/>
<path d="M518 53 c6 -2 18 -2 25 0 6 3 1 5 -13 5 -14 0 -19 -2 -12 -5z"/>
</g>
</svg>
