<?xml version="1.0" standalone="no"?>
<!DOCTYPE svg PUBLIC "-//W3C//DTD SVG 20010904//EN"
 "http://www.w3.org/TR/2001/REC-SVG-20010904/DTD/svg10.dtd">
<svg version="1.0" xmlns="http://www.w3.org/2000/svg"
 width="218.000000pt" height="144.000000pt" viewBox="0 0 218.000000 144.000000"
 preserveAspectRatio="xMidYMid meet">
<metadata>
Created by potrace 1.16, written by Peter Selinger 2001-2019
</metadata>
<g transform="translate(0.000000,144.000000) scale(0.100000,-0.100000)"
fill="#000000" stroke="none">
<path d="M725 1285 c-22 -8 -75 -14 -117 -14 -42 -1 -79 -5 -83 -11 -5 -8 12
-48 26 -60 11 -9 29 -98 29 -140 l0 -42 -89 5 c-94 5 -117 13 -169 58 -37 33
-41 34 -67 15 -16 -12 -19 -29 -20 -150 -2 -104 1 -136 10 -136 7 0 45 14 84
30 66 28 142 50 219 64 l33 6 -7 -99 c-5 -72 -3 -100 5 -106 19 -11 23 -1 27
77 7 129 12 138 91 138 l32 0 -6 -57 c-2 -32 -9 -82 -14 -112 -9 -56 -6 -71
15 -71 9 0 17 35 25 121 7 67 15 127 18 135 4 11 31 14 118 14 63 0 116 -4
119 -9 3 -5 -14 -25 -39 -46 -25 -20 -45 -42 -45 -49 0 -7 21 -19 47 -27 82
-25 80 -36 -30 -145 -54 -53 -95 -99 -93 -102 14 -14 74 29 145 104 79 84 79
85 95 62 22 -31 20 -43 -8 -62 -14 -9 -51 -48 -82 -87 -46 -56 -55 -72 -43
-80 9 -6 18 -3 27 9 27 37 136 142 146 142 12 0 22 -18 82 -145 64 -134 64
-130 -39 -239 -45 -47 -59 -76 -36 -76 6 0 39 27 73 60 35 33 67 60 73 60 6 0
10 6 9 13 0 6 3 12 9 12 19 0 13 -56 -9 -78 -43 -46 -111 -130 -111 -140 0
-26 26 -13 74 38 29 30 58 55 65 55 14 0 46 -51 46 -75 0 -26 29 -75 45 -75 8
0 15 5 15 11 0 27 -35 126 -52 150 -19 26 -20 27 -2 55 10 16 22 31 25 34 4 3
7 10 6 15 0 6 8 12 18 14 13 2 16 -1 11 -14 -3 -9 1 -29 9 -43 8 -15 19 -40
25 -55 11 -30 33 -32 38 -4 2 9 -4 31 -12 49 -9 17 -16 41 -16 52 0 12 -9 27
-20 34 -27 17 -25 36 15 112 19 36 43 84 54 108 11 23 25 42 31 42 16 0 67
-28 113 -61 22 -16 46 -29 54 -29 38 0 -14 68 -89 119 -51 34 -58 45 -32 55
19 7 44 -6 107 -56 51 -39 71 -46 83 -27 7 11 -14 33 -90 93 -20 15 -36 34
-36 40 0 7 15 27 34 45 34 33 34 33 59 15 13 -11 29 -31 35 -46 6 -16 16 -28
22 -28 12 0 11 6 -7 62 -6 18 13 22 166 33 96 8 131 18 131 40 0 12 -14 14
-92 9 -51 -3 -124 -10 -161 -16 -38 -5 -71 -8 -73 -5 -3 3 6 16 20 30 14 15
26 33 26 40 0 20 14 24 132 37 103 11 153 31 114 46 -52 20 -266 -17 -308 -53
-15 -13 -24 -13 -75 3 -52 15 -103 17 -467 15 -225 -1 -417 1 -427 4 -16 5
-14 14 24 87 23 44 59 99 80 121 20 23 37 45 37 49 0 9 -4 10 -74 13 -33 1
-51 7 -58 18 -10 20 -18 20 -73 2z m113 -70 c5 -4 -52 -115 -59 -115 -7 0 -17
103 -11 120 3 7 59 3 70 -5z m-158 -1 c0 -10 -55 -104 -60 -104 -8 0 -29 93
-23 103 5 8 83 10 83 1z m55 -120 l0 -79 -53 -3 c-50 -3 -53 -2 -47 17 12 39
80 150 90 147 6 -1 10 -38 10 -82z m-403 -94 c24 -14 59 -21 123 -24 50 -3 94
-5 98 -5 5 -1 6 -5 3 -10 -3 -4 -28 -11 -55 -15 -27 -4 -76 -16 -108 -27 -109
-39 -103 -41 -103 35 0 36 2 66 4 66 3 0 20 -9 38 -20z m1276 -63 c6 -5 12
-16 12 -23 0 -18 -80 -213 -100 -244 -9 -14 -43 -77 -75 -140 -94 -187 -109
-200 -140 -127 -10 23 -33 74 -50 112 -18 39 -36 81 -40 95 -4 14 -24 52 -45
85 -22 33 -40 74 -41 90 -5 85 -3 144 4 152 21 21 448 21 475 0z m105 -19 c15
-12 11 -19 -34 -65 -28 -29 -52 -53 -54 -53 -4 0 33 109 42 123 7 11 27 9 46
-5z m-633 -42 c0 -43 -6 -47 -41 -28 -36 21 -36 25 -3 51 32 26 44 19 44 -23z"/>
<path d="M2135 580 c-9 -15 4 -30 26 -30 12 0 19 7 19 20 0 21 -33 29 -45 10z"/>
<path d="M38 383 c23 -2 59 -2 80 0 20 2 1 4 -43 4 -44 0 -61 -2 -37 -4z"/>
<path d="M328 373 c7 -3 16 -2 19 1 4 3 -2 6 -13 5 -11 0 -14 -3 -6 -6z"/>
<path d="M433 373 c9 -2 25 -2 35 0 9 3 1 5 -18 5 -19 0 -27 -2 -17 -5z"/>
<path d="M808 363 c6 -2 18 -2 25 0 6 3 1 5 -13 5 -14 0 -19 -2 -12 -5z"/>
<path d="M913 363 c9 -2 25 -2 35 0 9 3 1 5 -18 5 -19 0 -27 -2 -17 -5z"/>
<path d="M8 343 c7 -3 16 -2 19 1 4 3 -2 6 -13 5 -11 0 -14 -3 -6 -6z"/>
<path d="M458 333 c12 -2 30 -2 40 0 9 3 -1 5 -23 4 -22 0 -30 -2 -17 -4z"/>
<path d="M548 333 c12 -2 32 -2 45 0 12 2 2 4 -23 4 -25 0 -35 -2 -22 -4z"/>
<path d="M803 323 c9 -2 25 -2 35 0 9 3 1 5 -18 5 -19 0 -27 -2 -17 -5z"/>
<path d="M898 323 c17 -2 47 -2 65 0 17 2 3 4 -33 4 -36 0 -50 -2 -32 -4z"/>
<path d="M1028 323 c6 -2 18 -2 25 0 6 3 1 5 -13 5 -14 0 -19 -2 -12 -5z"/>
<path d="M2165 310 c3 -5 8 -10 11 -10 2 0 4 5 4 10 0 6 -5 10 -11 10 -5 0 -7
-4 -4 -10z"/>
<path d="M1543 24 c-39 -17 3 -24 144 -24 86 0 154 2 152 5 -3 2 -56 6 -119 8
-63 3 -126 7 -140 10 -14 3 -31 4 -37 1z"/>
<path d="M178 3 c7 -3 16 -2 19 1 4 3 -2 6 -13 5 -11 0 -14 -3 -6 -6z"/>
</g>
</svg>
