<?xml version="1.0" standalone="no"?>
<!DOCTYPE svg PUBLIC "-//W3C//DTD SVG 20010904//EN"
 "http://www.w3.org/TR/2001/REC-SVG-20010904/DTD/svg10.dtd">
<svg version="1.0" xmlns="http://www.w3.org/2000/svg"
 width="150.000000pt" height="126.000000pt" viewBox="0 0 150.000000 126.000000"
 preserveAspectRatio="xMidYMid meet">
<metadata>
Created by potrace 1.16, written by Peter Selinger 2001-2019
</metadata>
<g transform="translate(0.000000,126.000000) scale(0.100000,-0.100000)"
fill="#000000" stroke="none">
<path d="M17 1242 c-18 -20 -23 -92 -7 -92 6 0 15 12 21 28 6 15 17 39 24 55
13 24 12 27 -4 27 -10 0 -25 -8 -34 -18z"/>
<path d="M126 1227 c-15 -19 -26 -39 -26 -45 0 -18 18 -24 41 -12 27 15 36 6
15 -16 -22 -21 -17 -48 9 -51 15 -2 33 17 72 77 l52 80 -27 0 c-18 0 -36 -10
-54 -32 -29 -36 -48 -32 -30 7 10 22 9 25 -8 25 -10 0 -30 -15 -44 -33z"/>
<path d="M317 1218 c-61 -76 -71 -96 -57 -114 22 -26 53 -13 61 24 4 18 20 50
36 70 46 58 47 62 19 62 -17 0 -35 -13 -59 -42z"/>
<path d="M424 1207 c-81 -102 -89 -127 -40 -127 28 0 46 18 46 45 0 12 18 47
41 78 38 54 39 57 17 57 -15 -1 -36 -18 -64 -53z"/>
<path d="M498 1183 c-60 -80 -62 -97 -12 -91 23 2 30 9 35 34 3 18 15 41 25
52 10 11 27 34 37 51 18 31 18 31 -5 31 -17 0 -38 -21 -80 -77z"/>
<path d="M584 1097 c-76 -58 -96 -93 -47 -83 17 4 39 0 57 -9 15 -8 36 -15 45
-15 10 0 26 -6 37 -14 19 -15 19 -15 -3 -37 -16 -17 -25 -20 -35 -12 -7 6 -44
13 -83 15 -60 3 -70 1 -73 -14 -3 -15 4 -18 42 -18 51 0 56 -8 25 -36 -20 -18
-21 -18 -38 4 -9 13 -20 20 -23 17 -4 -4 -4 -40 -1 -80 5 -69 5 -74 -19 -89
-22 -14 -35 -15 -104 -5 -47 6 -90 19 -107 31 -30 21 -63 17 -54 -5 13 -33 19
-145 8 -151 -18 -11 -13 -36 8 -36 10 0 29 8 42 19 48 37 135 80 176 87 l43 7
-6 -169 c-7 -187 -3 -178 -89 -239 -39 -27 -75 -64 -75 -75 0 -15 26 -12 40 5
24 30 181 135 201 135 11 0 47 9 81 21 34 11 72 18 84 15 33 -9 39 10 19 55
-16 34 -17 47 -6 107 6 37 12 81 14 97 2 29 3 30 75 38 94 11 118 4 74 -23
-48 -29 -49 -44 -4 -92 195 -210 271 -314 256 -352 -9 -22 4 -66 19 -66 8 0
22 53 41 148 23 120 34 155 59 192 43 63 108 141 135 163 35 29 28 47 -19 47
-22 0 -50 5 -62 12 -15 8 -59 11 -134 9 -66 -1 -119 2 -131 8 -15 8 -29 7 -54
-3 -24 -10 -62 -12 -137 -8 l-103 5 6 56 c7 57 38 104 78 117 10 3 18 14 18
24 0 19 -19 30 -54 30 -12 0 -33 12 -47 26 -13 14 -43 37 -66 51 -48 28 -50
34 -28 86 31 75 11 76 -81 4z m31 -37 c-3 -5 -10 -10 -16 -10 -5 0 -9 5 -9 10
0 6 7 10 16 10 8 0 12 -4 9 -10z m109 -151 c-3 -5 0 -16 6 -24 8 -10 9 -25 4
-42 -4 -16 -8 -49 -9 -74 -1 -25 -5 -51 -9 -57 -10 -16 -168 -16 -184 0 -8 8
0 19 36 45 26 18 66 43 90 54 46 23 57 45 17 35 -14 -4 -25 -4 -25 -1 0 14 64
84 72 79 4 -3 6 -10 2 -15z m-150 -81 c-42 -48 -54 -56 -54 -37 0 18 61 79 78
79 9 0 -1 -17 -24 -42z m-241 -148 c5 -4 -7 -17 -25 -28 -36 -23 -43 -20 -54
21 -6 28 -6 28 32 21 22 -3 43 -10 47 -14z m325 -20 l52 0 0 -34 c0 -63 -12
-96 -53 -142 -41 -47 -145 -129 -153 -121 -7 7 12 283 21 297 5 8 20 10 44 6
20 -3 60 -6 89 -6z m648 -11 c16 -7 31 -14 32 -15 7 -5 -59 -94 -69 -94 -10 0
-7 32 7 82 7 24 -13 32 -25 9 -6 -11 -15 -50 -21 -88 -5 -38 -16 -85 -24 -104
-8 -18 -17 -61 -21 -94 -10 -81 -15 -85 -39 -37 -12 22 -47 69 -78 105 -55 61
-57 65 -48 98 6 19 10 45 10 59 0 14 5 42 11 63 l10 37 113 -4 c62 -3 126 -10
142 -17z m-313 -61 c-3 -35 -9 -67 -13 -71 -10 -11 -83 79 -75 93 7 11 62 38
82 39 8 1 10 -18 6 -61z m-313 -178 c0 -21 -30 -38 -85 -46 -27 -4 -28 -4 -11
8 10 7 31 23 45 35 33 28 51 29 51 3z"/>
<path d="M0 8 c0 -5 260 -7 578 -6 317 1 559 3 537 5 -92 6 -1115 7 -1115 1z"/>
</g>
</svg>
