<?xml version="1.0" standalone="no"?>
<!DOCTYPE svg PUBLIC "-//W3C//DTD SVG 20010904//EN"
 "http://www.w3.org/TR/2001/REC-SVG-20010904/DTD/svg10.dtd">
<svg version="1.0" xmlns="http://www.w3.org/2000/svg"
 width="150.000000pt" height="120.000000pt" viewBox="0 0 150.000000 120.000000"
 preserveAspectRatio="xMidYMid meet">
<metadata>
Created by potrace 1.16, written by Peter Selinger 2001-2019
</metadata>
<g transform="translate(0.000000,120.000000) scale(0.100000,-0.100000)"
fill="#000000" stroke="none">
<path d="M517 1013 c-4 -3 -7 -17 -7 -31 0 -14 -8 -30 -17 -37 -23 -17 -42
-97 -43 -177 l0 -68 -95 0 c-103 0 -165 -17 -165 -45 0 -14 15 -16 115 -13 66
1 118 -2 124 -7 5 -6 6 -34 1 -67 -5 -31 -10 -87 -12 -125 -2 -56 0 -68 13
-71 9 -2 24 9 33 23 l18 27 24 -23 c13 -12 24 -26 24 -31 0 -4 -29 -27 -65
-50 -59 -39 -82 -68 -54 -68 6 0 43 21 82 46 71 46 72 47 101 30 39 -22 55 -7
32 29 -12 18 -15 36 -11 56 7 31 -5 38 -25 14 -10 -13 -16 -11 -44 10 -18 14
-41 25 -51 25 -16 0 -17 7 -12 82 4 45 10 85 15 90 10 10 136 13 151 3 13 -8
14 -94 0 -155 -22 -102 -22 -119 -5 -126 9 -4 19 -4 22 -1 11 11 36 136 43
212 l6 80 73 3 c51 2 72 -1 72 -9 0 -23 119 -258 168 -331 27 -40 61 -92 76
-116 37 -59 65 -55 87 11 9 26 25 65 36 85 11 20 26 55 33 77 15 46 104 227
132 267 44 63 21 72 -167 68 -193 -4 -506 -2 -511 3 -3 2 -1 55 3 116 8 100 7
111 -8 111 -20 0 -24 -14 -40 -135 -7 -49 -16 -93 -21 -96 -13 -9 -130 -1
-140 9 -4 4 -5 30 -2 56 6 39 13 51 42 71 28 19 38 21 53 12 24 -15 48 5 32
25 -13 15 26 67 65 87 24 13 30 41 8 41 -7 0 -33 -18 -56 -40 -23 -22 -47 -40
-52 -40 -5 0 -19 23 -31 50 -20 47 -34 59 -50 43z m31 -117 c4 -20 -18 -50
-29 -39 -11 12 2 64 15 60 6 -2 12 -11 14 -21z m788 -238 c2 -3 -22 -54 -56
-114 -33 -60 -65 -124 -71 -144 -20 -61 -62 -140 -74 -140 -7 0 -18 14 -25 30
-7 17 -28 50 -46 73 -19 23 -34 46 -34 51 0 10 -38 94 -76 168 -13 26 -24 52
-24 56 0 18 389 37 406 20z"/>
</g>
</svg>
