<?xml version="1.0" standalone="no"?>
<!DOCTYPE svg PUBLIC "-//W3C//DTD SVG 20010904//EN"
 "http://www.w3.org/TR/2001/REC-SVG-20010904/DTD/svg10.dtd">
<svg version="1.0" xmlns="http://www.w3.org/2000/svg"
 width="220.000000pt" height="138.000000pt" viewBox="0 0 220.000000 138.000000"
 preserveAspectRatio="xMidYMid meet">
<metadata>
Created by potrace 1.16, written by Peter Selinger 2001-2019
</metadata>
<g transform="translate(0.000000,138.000000) scale(0.100000,-0.100000)"
fill="#000000" stroke="none">
<path d="M490 1371 c0 -4 11 -6 25 -3 14 2 25 6 25 8 0 2 -11 4 -25 4 -14 0
-25 -4 -25 -9z"/>
<path d="M1356 1364 c-9 -23 -4 -24 17 -2 13 14 14 18 3 18 -8 0 -17 -7 -20
-16z"/>
<path d="M1421 1364 c0 -11 3 -14 6 -6 3 7 2 16 -1 19 -3 4 -6 -2 -5 -13z"/>
<path d="M2185 1370 c3 -5 8 -10 11 -10 2 0 4 5 4 10 0 6 -5 10 -11 10 -5 0
-7 -4 -4 -10z"/>
<path d="M805 1350 c3 -5 10 -10 16 -10 5 0 9 5 9 10 0 6 -7 10 -16 10 -8 0
-12 -4 -9 -10z"/>
<path d="M530 1319 c0 -5 5 -7 10 -4 6 3 10 8 10 11 0 2 -4 4 -10 4 -5 0 -10
-5 -10 -11z"/>
<path d="M1495 1276 c-59 -60 -67 -107 -63 -366 2 -147 -1 -231 -7 -234 -5 -1
-66 -1 -135 2 -69 2 -150 0 -180 -6 -31 -6 -59 -7 -64 -2 -12 12 21 61 44 67
10 3 38 39 63 81 41 71 69 106 111 140 9 7 16 24 16 37 l0 25 -122 -5 c-68 -3
-204 -8 -303 -11 -99 -3 -193 -7 -210 -8 -16 0 -44 2 -61 5 -41 8 -99 -19 -99
-46 0 -16 9 -21 45 -26 48 -7 203 -3 257 6 30 5 34 3 58 -42 15 -26 37 -66 51
-88 35 -59 54 -102 54 -125 0 -20 -4 -21 -137 -19 -76 2 -205 -1 -288 -5 -98
-5 -166 -4 -197 3 -93 21 -129 -17 -136 -143 -4 -77 -3 -82 22 -105 17 -16 30
-21 36 -15 5 5 10 54 12 109 l3 100 40 2 c68 3 72 -4 29 -48 -31 -32 -36 -42
-24 -49 19 -11 43 3 70 40 12 17 34 37 50 45 28 14 100 21 100 9 0 -3 -25 -28
-55 -56 -39 -36 -55 -58 -53 -72 4 -31 44 -34 51 -4 8 31 111 136 140 143 13
4 41 5 61 3 l38 -3 -54 -55 c-70 -73 -98 -110 -98 -133 0 -31 31 -16 68 33 18
25 59 71 89 103 56 57 56 57 116 57 l59 0 -81 -86 c-81 -85 -97 -119 -56 -119
12 0 26 12 35 31 8 17 44 63 79 102 58 66 67 72 102 72 22 0 39 -3 39 -8 0 -4
-32 -41 -70 -82 -77 -82 -104 -124 -96 -146 10 -25 35 -15 56 24 18 33 42 64
138 179 14 18 40 37 56 43 27 9 106 14 106 6 0 -2 -21 -25 -47 -53 -75 -77
-143 -166 -143 -185 0 -13 8 -18 30 -18 19 0 30 5 30 14 0 8 15 34 33 58 18
24 40 54 48 68 9 14 37 47 62 73 l46 47 71 0 c38 0 70 -4 70 -8 0 -4 -33 -41
-73 -82 -116 -119 -197 -222 -197 -251 0 -5 12 -9 28 -7 22 2 29 11 41 46 10
31 43 74 130 165 113 119 142 140 164 118 8 -8 -12 -35 -69 -93 -84 -87 -164
-187 -164 -206 0 -18 18 -24 41 -12 27 15 36 6 15 -16 -22 -21 -17 -48 9 -51
15 -2 32 16 69 73 46 73 170 234 245 319 66 75 136 125 175 125 20 0 36 -4 36
-9 0 -4 -22 -28 -48 -52 -26 -24 -74 -74 -107 -111 -32 -37 -67 -70 -77 -74
-10 -3 -18 -11 -18 -17 0 -7 -27 -39 -60 -72 -34 -33 -77 -83 -97 -112 -30
-45 -34 -55 -23 -68 22 -26 53 -14 61 22 6 33 56 103 124 178 21 22 58 63 83
90 106 116 205 215 211 211 4 -3 5 -21 3 -41 -3 -25 -11 -39 -26 -45 -42 -17
-280 -283 -350 -392 -20 -31 -14 -48 18 -48 28 0 46 18 46 45 0 48 258 365
297 365 27 0 12 -38 -30 -76 -66 -60 -243 -276 -249 -305 -4 -16 43 -29 60
-16 6 5 12 19 12 31 0 12 9 33 19 46 11 14 46 61 79 105 50 68 96 116 160 166
6 5 12 29 13 52 1 65 9 139 19 172 8 27 25 217 32 370 l3 60 -88 7 c-49 3
-112 12 -140 19 -28 6 -96 20 -151 29 l-100 17 -31 -31z m165 -65 c63 -11 152
-23 198 -27 l82 -7 0 -51 c-1 -81 -18 -300 -26 -320 -6 -16 -14 -17 -73 -11
-36 4 -124 8 -196 10 -123 2 -130 3 -133 22 -3 20 3 22 84 28 79 7 117 5 244
-10 47 -6 86 8 63 23 -39 25 -268 38 -368 20 -21 -3 -30 19 -16 40 12 20 118
26 197 13 38 -7 91 -14 119 -17 52 -4 88 8 70 24 -14 13 -270 46 -332 43 l-53
-2 0 65 c0 90 1 91 195 66 86 -11 165 -20 175 -20 27 0 25 19 -2 29 -21 8
-219 45 -313 58 -39 6 -58 19 -49 35 7 10 1 11 134 -11z m-520 -264 c0 -8 -10
-22 -21 -33 -21 -18 -46 -53 -90 -121 -12 -18 -25 -33 -29 -33 -14 0 -92 172
-83 181 8 8 45 12 156 17 52 2 67 0 67 -11z m490 -183 c0 -14 -67 -84 -80 -84
-42 0 -56 64 -17 80 25 10 97 13 97 4z m73 0 c11 -4 -5 -26 -61 -82 -86 -86
-228 -249 -264 -301 -25 -38 -48 -51 -48 -28 0 19 66 104 167 213 45 49 104
115 130 147 49 59 52 61 76 51z"/>
<path d="M1553 1064 c-7 -3 -13 -11 -13 -17 0 -9 50 -13 175 -14 163 -3 224 7
138 20 -57 10 -286 18 -300 11z"/>
<path d="M1095 1240 c3 -5 11 -10 16 -10 6 0 7 5 4 10 -3 6 -11 10 -16 10 -6
0 -7 -4 -4 -10z"/>
<path d="M1261 1239 c18 -11 52 -11 45 0 -3 5 -17 9 -32 9 -18 0 -22 -3 -13
-9z"/>
<path d="M1150 1180 c-9 -6 -10 -10 -3 -10 6 0 15 5 18 10 8 12 4 12 -15 0z"/>
<path d="M531 1164 c0 -11 3 -14 6 -6 3 7 2 16 -1 19 -3 4 -6 -2 -5 -13z"/>
<path d="M951 1146 c-23 -12 -18 -13 43 -10 73 4 104 14 43 14 -19 0 -41 2
-49 5 -7 2 -24 -2 -37 -9z"/>
<path d="M863 1113 c9 -2 23 -2 30 0 6 3 -1 5 -18 5 -16 0 -22 -2 -12 -5z"/>
<path d="M728 1103 c7 -3 16 -2 19 1 4 3 -2 6 -13 5 -11 0 -14 -3 -6 -6z"/>
<path d="M1835 240 c-10 -11 -16 -22 -13 -25 3 -3 13 4 23 15 10 11 16 22 13
25 -3 3 -13 -4 -23 -15z"/>
<path d="M1669 193 c-13 -16 -12 -17 4 -4 16 13 21 21 13 21 -2 0 -10 -8 -17
-17z"/>
<path d="M1950 100 c0 -5 5 -10 11 -10 5 0 7 5 4 10 -3 6 -8 10 -11 10 -2 0
-4 -4 -4 -10z"/>
<path d="M1941 36 c9 -9 88 -16 93 -8 3 5 -18 10 -47 11 -28 1 -49 0 -46 -3z"/>
<path d="M1675 10 l-30 -8 32 -1 c17 0 35 4 38 9 7 11 3 11 -40 0z"/>
<path d="M1780 10 c-12 -8 -10 -10 8 -10 13 0 20 4 17 10 -7 12 -6 12 -25 0z"/>
</g>
</svg>
