<?xml version="1.0" standalone="no"?>
<!DOCTYPE svg PUBLIC "-//W3C//DTD SVG 20010904//EN"
 "http://www.w3.org/TR/2001/REC-SVG-20010904/DTD/svg10.dtd">
<svg version="1.0" xmlns="http://www.w3.org/2000/svg"
 width="180.000000pt" height="136.000000pt" viewBox="0 0 180.000000 136.000000"
 preserveAspectRatio="xMidYMid meet">
<metadata>
Created by potrace 1.16, written by Peter Selinger 2001-2019
</metadata>
<g transform="translate(0.000000,136.000000) scale(0.100000,-0.100000)"
fill="#000000" stroke="none">
<path d="M523 1283 c-22 -8 -14 -45 26 -125 27 -55 35 -80 27 -86 -25 -19 -94
-50 -100 -45 -7 7 4 55 15 68 15 16 11 75 -5 75 -8 0 -18 -6 -22 -12 -15 -24
-44 -174 -48 -251 -8 -122 -3 -117 -104 -113 -90 3 -122 -5 -122 -28 0 -21 28
-28 110 -27 41 0 80 -3 87 -7 9 -5 8 -22 -3 -67 -8 -33 -17 -96 -20 -140 -3
-44 -10 -95 -16 -113 -7 -23 -7 -37 0 -44 18 -18 45 8 57 53 5 23 15 44 20 45
6 2 28 -12 49 -30 l40 -34 -45 -21 c-62 -30 -139 -88 -139 -106 0 -21 12 -19
54 10 20 13 65 38 100 55 l64 31 51 -26 c61 -32 75 -27 66 27 -7 37 -5 42 29
70 42 34 47 53 12 44 -34 -8 -37 8 -20 100 8 44 18 97 22 119 7 38 9 40 52 46
25 3 88 5 140 5 l95 -1 6 -78 c6 -73 14 -102 45 -174 8 -17 19 -53 24 -80 12
-59 32 -116 48 -135 6 -8 18 -39 25 -69 13 -50 16 -54 47 -57 34 -4 54 12 45
36 -5 13 38 101 169 352 36 69 71 137 77 152 6 15 25 36 43 46 37 22 53 60 29
69 -15 6 -400 -5 -478 -14 -22 -2 -111 -7 -197 -9 l-158 -6 0 34 c1 18 5 53
11 78 5 25 16 81 23 124 11 68 17 82 42 102 16 13 32 24 37 24 11 0 8 28 -3
35 -6 4 -17 2 -24 -4 -7 -6 -46 -24 -86 -41 -86 -35 -90 -34 -121 50 -22 61
-55 101 -76 93z m197 -222 c0 -26 -17 -36 -36 -21 -11 10 -12 16 -3 26 17 20
39 17 39 -5z m-41 -70 c22 -17 22 -18 7 -82 -8 -35 -17 -76 -20 -90 -5 -24
-11 -27 -73 -32 -108 -11 -140 -9 -147 8 -3 9 -1 49 5 89 11 73 12 74 50 92
22 9 54 28 71 40 33 25 43 23 107 -25z m801 -214 c0 -7 -16 -36 -35 -64 -19
-29 -35 -54 -35 -56 0 -3 -29 -56 -63 -118 -35 -63 -75 -135 -89 -160 -42 -74
-52 -89 -64 -89 -14 0 -40 76 -49 145 -4 28 -13 64 -20 80 -44 104 -68 236
-46 250 6 3 53 9 104 12 50 3 94 7 96 9 2 2 49 4 103 4 72 0 98 -3 98 -13z
m-825 -37 c3 -5 1 -27 -4 -47 -5 -21 -15 -78 -22 -128 -20 -156 -30 -163 -120
-85 -32 28 -67 50 -78 50 -17 0 -21 6 -21 33 1 42 25 156 36 167 8 8 56 14
161 18 23 1 45 -2 48 -8z"/>
</g>
</svg>
