<?xml version="1.0" standalone="no"?>
<!DOCTYPE svg PUBLIC "-//W3C//DTD SVG 20010904//EN"
 "http://www.w3.org/TR/2001/REC-SVG-20010904/DTD/svg10.dtd">
<svg version="1.0" xmlns="http://www.w3.org/2000/svg"
 width="154.000000pt" height="94.000000pt" viewBox="0 0 154.000000 94.000000"
 preserveAspectRatio="xMidYMid meet">
<metadata>
Created by potrace 1.16, written by Peter Selinger 2001-2019
</metadata>
<g transform="translate(0.000000,94.000000) scale(0.100000,-0.100000)"
fill="#000000" stroke="none">
<path d="M454 825 c-18 -15 -18 -16 4 -35 29 -24 42 -124 20 -152 -12 -17 -17
-17 -83 1 -68 17 -187 64 -213 84 -9 7 -19 4 -33 -10 -19 -19 -20 -28 -14
-132 5 -78 11 -111 20 -111 16 0 125 49 145 65 25 20 117 47 152 43 l33 -3 -2
-75 c-2 -41 -8 -85 -15 -98 -11 -21 -8 -26 20 -53 33 -31 36 -54 9 -87 -7 -9
-7 -16 1 -24 15 -15 15 -50 0 -83 -8 -17 -8 -29 -1 -36 18 -18 42 25 49 86 5
39 16 74 33 99 73 110 73 122 0 102 -56 -15 -62 -4 -54 88 l7 76 82 0 c44 0
86 -4 92 -8 7 -4 11 -39 10 -89 -1 -74 -4 -84 -28 -110 -19 -21 -26 -39 -26
-69 -1 -22 -8 -80 -17 -128 -9 -48 -14 -90 -11 -93 15 -15 34 11 45 60 12 56
19 65 127 178 58 60 63 69 39 69 -8 0 -15 3 -15 6 0 14 36 33 61 34 37 0 138
-68 190 -129 24 -28 52 -51 62 -51 9 0 17 3 17 6 0 14 -27 54 -73 107 l-50 59
13 53 c7 29 10 60 7 69 -9 23 20 34 67 25 22 -5 57 -8 77 -9 19 0 44 -6 54
-14 18 -13 17 -17 -23 -108 -22 -52 -46 -115 -52 -142 -6 -26 -17 -64 -25 -83
-16 -37 -13 -53 10 -53 9 0 22 28 36 73 35 117 39 124 87 164 25 21 55 49 67
62 11 13 32 35 47 49 39 35 24 54 -54 70 -120 25 -194 31 -385 31 -105 1 -194
4 -196 9 -13 21 11 77 59 141 43 58 50 73 38 78 -9 3 -93 3 -187 0 -94 -3
-179 -2 -188 3 -11 6 -23 4 -35 -5z m280 -49 c18 -28 12 -80 -12 -108 -8 -10
-12 -26 -9 -38 5 -19 1 -20 -89 -20 -86 0 -94 2 -94 19 0 22 81 134 113 156
33 23 72 19 91 -9z m71 5 c0 -23 -19 -23 -33 0 -12 19 -11 20 10 17 13 -2 23
-9 23 -17z m-225 -7 c0 -3 -10 -19 -21 -36 -23 -32 -39 -25 -39 20 0 18 6 22
30 22 17 0 30 -3 30 -6z m-355 -124 c3 -5 30 -17 60 -26 30 -10 55 -21 55 -24
0 -6 -108 -56 -135 -63 -10 -2 -26 101 -18 116 6 10 31 9 38 -3z m775 -97 c-1
-10 -84 -72 -107 -80 -41 -14 -85 -55 -80 -75 5 -16 1 -19 -26 -16 l-32 3 4
80 c1 44 5 83 8 88 6 9 233 9 233 0z m360 -34 c0 -12 -67 -91 -81 -97 -9 -4 3
40 21 81 9 18 21 27 37 27 12 0 23 -5 23 -11z m-352 -55 c-6 -16 -13 -30 -14
-32 -3 -6 -54 18 -54 27 0 14 64 51 73 42 4 -4 2 -21 -5 -37z m-438 -109 c0
-8 -7 -15 -15 -15 -8 0 -15 7 -15 15 0 8 7 15 15 15 8 0 15 -7 15 -15z m200
-25 c0 -16 -69 -87 -70 -71 0 8 11 29 26 48 25 33 44 43 44 23z"/>
</g>
</svg>
