<?xml version="1.0" standalone="no"?>
<!DOCTYPE svg PUBLIC "-//W3C//DTD SVG 20010904//EN"
 "http://www.w3.org/TR/2001/REC-SVG-20010904/DTD/svg10.dtd">
<svg version="1.0" xmlns="http://www.w3.org/2000/svg"
 width="132.000000pt" height="120.000000pt" viewBox="0 0 132.000000 120.000000"
 preserveAspectRatio="xMidYMid meet">
<metadata>
Created by potrace 1.16, written by Peter Selinger 2001-2019
</metadata>
<g transform="translate(0.000000,120.000000) scale(0.100000,-0.100000)"
fill="#000000" stroke="none">
<path d="M548 1052 c-41 -38 -45 -69 -9 -57 10 3 30 -4 45 -16 53 -42 -16 -64
-120 -38 -52 13 -77 2 -54 -26 7 -8 10 -18 6 -22 -3 -3 2 -15 11 -25 14 -15
17 -35 15 -90 -1 -39 -4 -73 -6 -75 -8 -8 -181 40 -213 59 -32 19 -32 19 -52
-1 -20 -20 -34 -101 -27 -151 3 -14 5 -31 5 -37 1 -19 29 -16 61 7 53 37 155
80 193 80 36 0 37 -1 38 -37 2 -69 -3 -107 -18 -144 -11 -29 -12 -45 -3 -78
12 -45 43 -59 40 -18 -4 44 -2 46 35 35 19 -6 37 -18 40 -26 6 -16 -60 -82
-83 -82 -25 0 -51 -20 -46 -35 4 -8 12 -15 20 -15 7 0 29 -14 47 -30 19 -17
39 -30 45 -30 22 0 23 22 3 41 -18 17 -19 24 -10 42 15 28 60 77 72 77 5 0 28
-16 51 -35 69 -56 105 -44 44 15 -32 29 -32 31 -14 45 10 8 38 17 62 21 66 10
74 27 34 69 -35 36 -70 46 -70 20 0 -8 -5 -15 -10 -15 -10 0 -6 153 5 170 7
11 83 23 121 18 l29 -3 -42 -23 c-24 -12 -43 -27 -43 -32 0 -18 25 -66 58
-110 19 -24 38 -54 42 -65 5 -12 20 -39 34 -60 14 -21 26 -52 27 -69 1 -38 32
-129 45 -133 19 -6 68 57 71 90 1 18 9 59 17 92 8 33 19 89 26 125 14 78 26
102 79 160 63 69 57 74 -89 71 -69 -1 -177 -6 -240 -10 -63 -5 -118 -6 -122
-4 -14 8 -8 20 48 102 59 87 64 117 18 108 -19 -3 -32 3 -55 27 -16 17 -29 36
-28 41 0 6 24 28 52 50 38 29 47 40 35 43 -10 2 -34 -12 -55 -32 -21 -20 -43
-36 -49 -36 -15 0 -24 23 -24 61 0 43 -40 39 -92 -9z m132 -147 c0 -13 -4 -14
-20 -5 -30 16 -45 2 -23 -22 13 -15 17 -37 18 -101 l0 -82 -86 -3 c-98 -3
-103 1 -89 63 12 51 31 70 58 56 11 -6 23 -20 27 -30 3 -12 12 -18 20 -15 10
4 14 24 14 70 0 35 3 68 6 74 10 17 75 12 75 -5z m-183 -13 c10 -6 10 -12 -2
-28 -15 -19 -15 -19 -30 0 -22 29 0 48 32 28z m79 -23 c9 -16 -12 -33 -31 -25
-14 5 -15 9 -5 21 15 18 26 19 36 4z m174 -7 c0 -13 -50 -82 -60 -82 -6 0 -10
18 -10 39 0 29 5 41 18 44 29 8 52 7 52 -1z m-477 -163 c20 -5 37 -13 37 -18
0 -7 -97 -51 -113 -51 -8 0 0 56 10 73 6 10 21 9 66 -4z m847 -33 c0 -8 -9
-24 -20 -37 l-19 -24 -13 33 c-7 17 -18 32 -25 32 -16 0 -16 -8 -2 -49 12 -34
-6 -176 -38 -296 -27 -101 -53 -108 -53 -15 0 25 -8 61 -19 80 -11 19 -31 59
-46 87 l-26 53 22 69 c25 80 19 77 157 80 64 1 82 -2 82 -13z m-478 -51 c-1
-22 -2 -67 -2 -101 1 -45 -4 -67 -18 -84 -25 -31 -44 -18 -36 25 7 37 -9 75
-32 75 -8 0 -31 -12 -50 -26 -41 -32 -50 -27 -35 17 6 18 11 54 11 80 l0 48
38 4 c20 2 57 4 82 3 l45 -1 -3 -40z m198 -21 c-11 -28 -12 -28 -26 -10 -19
27 -18 35 9 45 27 10 31 3 17 -35z m-290 -134 c0 -21 -33 -29 -45 -10 -9 15 4
30 26 30 12 0 19 -7 19 -20z"/>
<path d="M255 450 c-3 -5 -1 -10 4 -10 6 0 11 5 11 10 0 6 -2 10 -4 10 -3 0
-8 -4 -11 -10z"/>
<path d="M850 20 c0 -5 5 -10 11 -10 5 0 7 5 4 10 -3 6 -8 10 -11 10 -2 0 -4
-4 -4 -10z"/>
</g>
</svg>
