<?xml version="1.0" standalone="no"?>
<!DOCTYPE svg PUBLIC "-//W3C//DTD SVG 20010904//EN"
 "http://www.w3.org/TR/2001/REC-SVG-20010904/DTD/svg10.dtd">
<svg version="1.0" xmlns="http://www.w3.org/2000/svg"
 width="272.000000pt" height="146.000000pt" viewBox="0 0 272.000000 146.000000"
 preserveAspectRatio="xMidYMid meet">
<metadata>
Created by potrace 1.16, written by Peter Selinger 2001-2019
</metadata>
<g transform="translate(0.000000,146.000000) scale(0.100000,-0.100000)"
fill="#000000" stroke="none">
<path d="M515 1450 c3 -5 12 -10 20 -10 8 0 17 5 20 10 4 6 -5 10 -20 10 -15
0 -24 -4 -20 -10z"/>
<path d="M1167 1347 c-15 -34 -74 -88 -162 -147 -27 -19 -56 -40 -63 -47 -26
-25 -132 -82 -174 -93 -83 -22 -108 -34 -108 -51 0 -10 -3 -20 -7 -22 -19 -11
-363 34 -411 54 -71 29 -99 -42 -86 -216 8 -99 11 -110 29 -113 13 -1 36 14
63 41 26 27 76 60 130 86 129 63 128 63 286 91 59 10 61 10 98 -21 42 -33 71
-35 77 -4 2 11 25 53 52 93 27 40 49 76 49 80 0 12 69 74 116 105 22 15 50 36
62 47 12 11 24 20 28 20 3 0 3 -26 -1 -58 -9 -77 7 -93 56 -58 50 36 106 62
174 81 33 9 77 26 98 37 33 16 59 19 160 19 97 0 125 3 139 16 16 14 52 15
355 6 186 -5 348 -6 361 -1 12 4 22 14 22 21 0 12 -66 16 -387 21 -321 6 -532
13 -870 30 -17 1 -35 5 -39 9 -16 15 -34 6 -47 -26z m155 -34 l67 -6 -19 -28
c-12 -16 -34 -30 -53 -34 -17 -4 -47 -16 -65 -26 -51 -29 -55 -26 -47 39 8 68
12 75 34 67 9 -4 46 -10 83 -12z m-452 -270 c0 -5 -8 -18 -18 -31 -15 -19 -26
-23 -58 -20 -52 4 -49 18 6 39 51 19 70 22 70 12z m-495 -83 c55 -5 101 -9
103 -10 1 0 2 -4 2 -9 0 -5 -24 -17 -52 -27 -29 -9 -65 -25 -80 -35 -14 -11
-29 -19 -32 -19 -4 0 -25 -12 -47 -26 -23 -14 -42 -24 -44 -22 -8 8 -9 144 -1
156 5 9 17 11 30 7 11 -3 66 -10 121 -15z"/>
<path d="M1838 1167 c-76 -43 -82 -50 -69 -75 6 -11 8 -27 5 -34 -7 -17 -64
-62 -70 -55 -3 3 -8 40 -11 84 -3 43 -10 81 -15 84 -8 5 -66 -11 -160 -44 -26
-9 -41 -47 -19 -47 12 0 46 -48 55 -76 5 -16 -4 -35 -35 -74 -22 -28 -45 -48
-49 -43 -9 9 -26 106 -35 205 -8 78 -24 92 -64 54 -15 -14 -44 -32 -66 -40
-34 -12 -40 -17 -38 -41 1 -15 15 -43 30 -63 46 -60 68 -100 60 -108 -7 -7
-164 24 -188 37 -30 16 -77 11 -82 -8 -16 -56 -17 -80 -6 -136 6 -34 11 -84
10 -111 -2 -55 -13 -54 107 -11 41 14 76 24 78 22 6 -5 -104 -117 -136 -138
-33 -22 -17 -38 37 -37 39 0 51 -4 69 -26 41 -47 42 -46 168 177 15 26 30 47
34 47 14 0 32 -24 32 -42 0 -23 -60 -115 -99 -152 -17 -17 -31 -35 -31 -42 0
-22 20 -26 44 -10 24 15 57 12 87 -8 10 -7 46 -10 85 -8 103 5 105 4 119 -15
11 -14 17 -15 36 -6 13 6 32 14 42 17 21 7 23 36 1 36 -13 0 -15 6 -9 28 9 38
33 72 50 72 16 0 18 -10 19 -75 1 -30 5 -39 16 -36 52 13 60 13 67 -5 10 -29
24 -34 48 -18 12 8 24 11 28 8 4 -4 18 1 31 10 34 21 43 20 78 -9 36 -31 79
-32 117 -4 l28 21 34 -21 c40 -25 82 -27 99 -6 10 12 10 19 2 27 -7 7 -12 20
-12 31 0 21 57 167 70 181 6 6 22 -15 40 -55 93 -194 115 -227 145 -215 20 7
19 32 -3 54 -26 26 -104 171 -99 185 2 7 -4 29 -14 49 -23 46 -23 48 -1 48 9
0 34 5 55 11 50 14 48 37 -3 45 -22 4 -43 11 -46 16 -3 5 3 24 14 42 11 18 23
47 26 64 4 16 20 44 37 63 20 23 26 36 19 43 -16 16 -38 -2 -94 -75 -27 -35
-53 -66 -58 -68 -5 -2 -9 44 -8 110 1 63 1 120 1 127 -1 18 -36 14 -55 -7 -10
-10 -36 -24 -60 -30 -62 -15 -75 -44 -52 -117 l18 -56 -28 -41 c-16 -23 -30
-44 -31 -46 -11 -15 -21 25 -25 92 -5 73 -3 81 19 108 21 24 22 30 9 35 -8 3
-20 3 -25 0 -18 -12 -32 30 -19 59 16 35 -3 56 -29 32 -10 -8 -40 -23 -68 -32
-27 -9 -59 -26 -71 -36 -11 -10 -25 -19 -31 -19 -6 0 -16 -7 -23 -15 -19 -23
-25 -19 -38 32 -11 41 -11 49 2 59 30 22 13 55 -27 54 -7 -1 -38 -16 -69 -33z
m66 -115 c12 -46 14 -68 6 -82 -6 -11 -14 -20 -19 -20 -11 0 -71 113 -71 134
0 8 10 24 22 36 29 26 39 15 62 -68z m-254 50 c0 -10 -14 -29 -32 -42 -30 -22
-32 -22 -45 -5 -21 30 -15 42 25 53 52 14 52 14 52 -6z m504 -47 c7 -33 -6
-75 -22 -75 -5 0 -18 20 -29 45 l-21 46 27 13 c33 18 37 15 45 -29z m-759 13
c42 -191 41 -186 20 -168 -8 7 -29 39 -47 71 -17 33 -35 59 -39 59 -19 0 -7
26 19 42 37 22 41 22 47 -4z m995 -21 c0 -7 -16 -28 -35 -47 -39 -38 -59 -32
-53 16 2 23 9 30 33 35 48 10 55 10 55 -4z m-726 -29 c12 -47 4 -108 -15 -108
-5 0 -15 13 -23 28 -13 26 -13 33 2 65 20 42 27 45 36 15z m415 -32 l22 -54
-36 -56 c-20 -31 -40 -54 -45 -51 -5 3 -12 20 -15 38 -4 17 -11 37 -16 43 -28
35 5 134 45 134 18 0 27 -11 45 -54z m-245 -20 c29 -50 32 -73 12 -99 -12 -15
-22 -17 -60 -12 -26 4 -49 11 -52 16 -6 10 56 139 67 139 4 0 19 -20 33 -44z
m575 -108 c1 -38 -13 -35 -38 7 -21 36 -18 68 12 104 10 12 13 5 19 -35 3 -27
7 -61 7 -76z m-796 10 c-6 -12 -61 -10 -68 2 -3 6 4 24 16 41 l22 32 18 -34
c9 -19 15 -37 12 -41z m567 41 c0 -10 -4 -19 -10 -19 -5 0 -10 12 -10 26 0 14
4 23 10 19 6 -3 10 -15 10 -26z m-215 -40 c4 -17 5 -32 2 -35 -8 -8 -38 46
-32 56 11 18 23 10 30 -21z m-760 5 c28 -9 84 -19 125 -22 89 -8 100 -25 50
-77 -23 -24 -43 -34 -78 -39 -26 -3 -69 -13 -95 -22 -27 -9 -52 -12 -57 -8 -7
7 -16 151 -11 177 2 10 9 9 66 -9z m945 -30 c13 -34 13 -34 -13 -34 -32 0 -38
8 -25 36 14 31 26 30 38 -2z m200 -9 c10 -12 9 -16 -4 -21 -9 -3 -23 -3 -32 0
-13 5 -14 9 -4 21 7 8 16 15 20 15 4 0 13 -7 20 -15z m-770 -24 c0 -13 -49
-51 -66 -51 -15 0 -22 19 -16 43 3 12 15 17 43 17 22 0 39 -4 39 -9z m73 3
c10 -10 -12 -44 -28 -44 -16 0 -18 9 -9 34 6 16 25 21 37 10z m137 -9 c10 -12
9 -16 -4 -21 -22 -8 -46 2 -46 21 0 19 34 20 50 0z m190 -62 c0 -21 -103 -163
-118 -163 -4 0 -17 18 -30 40 l-23 41 23 42 c22 40 26 42 78 48 30 3 58 6 63
7 4 1 7 -5 7 -15z m185 8 c7 -13 -46 -90 -63 -91 -17 0 -34 49 -27 77 4 19 12
23 45 23 21 0 41 -4 45 -9z m194 -7 c6 -6 -68 -114 -78 -114 -10 0 -31 54 -31
81 0 32 27 48 68 42 20 -3 39 -7 41 -9z m-640 -36 c0 -33 -74 -168 -94 -175
-11 -3 -35 42 -35 65 0 8 16 43 36 78 31 56 39 64 65 64 26 0 29 -3 28 -32z
m-116 16 c9 -9 -34 -85 -47 -81 -20 6 -17 42 4 65 21 22 32 27 43 16z m-254
-96 c-28 -46 -54 -87 -58 -91 -10 -10 -61 13 -61 27 0 6 27 42 61 79 42 47 68
67 84 67 23 0 22 -3 -26 -82z m1005 -25 c-33 -81 -41 -92 -50 -69 -7 18 3 42
44 109 35 58 38 37 6 -40z m-304 38 c16 -31 12 -50 -22 -92 -42 -52 -64 -53
-42 -1 9 20 21 54 26 75 12 41 22 46 38 18z m-70 1 c0 -4 -4 -12 -8 -17 -5 -6
-14 -29 -21 -52 -10 -36 -16 -43 -37 -43 -31 0 -29 9 18 73 31 43 48 57 48 39z
m169 -47 c-17 -57 -35 -75 -44 -45 -5 15 2 34 20 62 33 49 42 43 24 -17z m81
26 c19 -36 11 -74 -21 -108 -33 -36 -65 -45 -56 -15 48 146 57 160 77 123z
m-701 -19 c7 -13 4 -30 -9 -60 -18 -40 -20 -41 -44 -31 -24 11 -25 13 -9 43
14 29 42 66 49 66 2 0 8 -8 13 -18z m221 14 c0 -2 -10 -29 -21 -60 -16 -40
-27 -56 -40 -56 -24 0 -24 18 1 50 11 14 20 30 20 36 0 18 40 48 40 30z m-166
-105 c3 -4 3 -11 0 -14 -8 -8 -34 3 -34 14 0 11 27 12 34 0z"/>
<path d="M193 678 c-26 -33 -23 -285 3 -295 8 -3 33 12 57 34 44 38 75 55 198
112 54 24 84 31 163 35 61 3 96 2 96 -5 0 -5 -7 -12 -15 -15 -26 -10 -18 -41
13 -47 131 -27 122 -21 262 -157 l105 -102 5 -91 c5 -99 19 -119 47 -70 11 21
33 36 72 50 91 33 161 53 191 53 15 0 72 9 126 19 159 30 224 40 304 47 41 3
121 12 178 20 57 8 178 17 270 20 252 8 261 9 274 22 10 10 9 16 -3 28 -14 14
-28 14 -118 3 -79 -10 -131 -10 -238 -1 -100 8 -161 8 -223 0 -47 -6 -115 -10
-152 -9 -70 2 -93 -11 -62 -34 18 -13 18 -14 -6 -19 -14 -3 -56 -11 -95 -17
-38 -6 -90 -14 -115 -19 -25 -4 -77 -12 -115 -18 -39 -6 -108 -23 -155 -37
-130 -40 -123 -42 -133 44 -4 40 -6 75 -5 77 2 2 24 -4 48 -13 53 -19 262 -29
375 -18 138 13 96 19 -239 35 -11 1 -48 7 -84 15 -36 7 -71 11 -77 9 -7 -3
-15 2 -18 10 -9 22 -34 20 -42 -4 -9 -30 -23 -25 -71 28 -38 40 -44 53 -44 92
-1 25 -9 76 -19 115 -10 38 -16 75 -14 82 11 29 -29 23 -86 -12 -51 -32 -66
-36 -98 -31 -21 3 -94 10 -163 16 -69 6 -135 15 -148 20 -13 6 -49 10 -80 10
-54 0 -107 9 -143 24 -9 4 -20 1 -26 -6z m210 -73 c37 -4 67 -10 67 -14 0 -4
-15 -12 -33 -19 -19 -7 -71 -32 -117 -57 -46 -25 -84 -44 -86 -42 -7 7 -7 124
0 135 6 10 22 12 55 8 25 -3 76 -8 114 -11z m505 -74 c2 -28 2 -51 -1 -51 -4
0 -26 9 -49 19 -24 11 -56 23 -72 26 -27 6 -28 7 -12 23 21 21 108 51 120 41
5 -4 11 -31 14 -58z"/>
</g>
</svg>
