<?xml version="1.0" standalone="no"?>
<!DOCTYPE svg PUBLIC "-//W3C//DTD SVG 20010904//EN"
 "http://www.w3.org/TR/2001/REC-SVG-20010904/DTD/svg10.dtd">
<svg version="1.0" xmlns="http://www.w3.org/2000/svg"
 width="160.000000pt" height="80.000000pt" viewBox="0 0 160.000000 80.000000"
 preserveAspectRatio="xMidYMid meet">
<metadata>
Created by potrace 1.16, written by Peter Selinger 2001-2019
</metadata>
<g transform="translate(0.000000,80.000000) scale(0.100000,-0.100000)"
fill="#000000" stroke="none">
<path d="M1405 698 c-22 -5 -225 -10 -451 -12 l-412 -2 -58 -52 c-99 -89 -129
-105 -203 -113 -40 -5 -81 -3 -104 3 -42 13 -64 1 -54 -26 7 -17 24 -19 158
-18 83 0 100 7 178 74 24 21 49 38 55 38 7 0 26 11 44 23 30 23 41 24 254 30
123 3 261 2 307 -2 46 -3 115 -3 152 1 38 5 100 12 139 16 75 8 85 13 77 37
-7 17 -22 17 -82 3z"/>
<path d="M865 568 c-16 -6 -52 -25 -80 -41 -48 -29 -55 -31 -170 -31 -100 -1
-120 -4 -120 -16 0 -12 19 -16 86 -20 50 -3 93 -11 102 -19 14 -11 24 -10 64
10 27 12 59 31 72 41 34 26 43 23 97 -29 l49 -46 113 2 112 3 0 -35 c0 -20 -6
-37 -14 -40 -7 -3 -59 -3 -114 -1 -61 2 -103 0 -107 -6 -3 -6 -18 -10 -33 -10
-19 0 -32 -8 -44 -30 -9 -17 -22 -30 -28 -30 -5 0 -28 17 -51 37 -40 36 -41
36 -69 20 -21 -13 -55 -18 -127 -19 -54 -1 -106 -6 -115 -12 -13 -8 -22 -5
-40 12 -22 20 -34 21 -180 23 -87 0 -162 -2 -168 -6 -24 -15 -9 -35 28 -36
163 -3 218 -10 255 -35 41 -27 93 -93 109 -138 10 -26 14 -28 47 -22 20 4 56
9 81 11 25 3 56 7 70 10 14 3 133 12 265 21 259 18 441 21 492 9 26 -6 34 -4
39 9 3 9 0 24 -7 32 -16 19 -131 16 -554 -14 -132 -9 -269 -17 -304 -17 l-64
0 -30 48 c-16 26 -28 50 -26 52 2 2 59 7 126 11 122 7 122 7 153 -20 45 -37
76 -43 103 -18 12 11 45 32 74 46 44 24 63 27 140 27 48 0 104 0 123 2 l34 2
1 83 1 82 -121 0 c-133 0 -150 6 -214 79 -23 26 -29 28 -56 19z"/>
<path d="M843 443 c-9 -3 -13 -26 -13 -65 0 -51 2 -59 17 -56 25 5 42 94 22
113 -8 7 -20 11 -26 8z"/>
<path d="M532 399 c-22 -8 -30 -35 -12 -41 5 -1 55 -2 110 0 80 3 100 6 100
18 0 8 -6 16 -12 19 -28 8 -166 11 -186 4z"/>
</g>
</svg>
