<?xml version="1.0" standalone="no"?>
<!DOCTYPE svg PUBLIC "-//W3C//DTD SVG 20010904//EN"
 "http://www.w3.org/TR/2001/REC-SVG-20010904/DTD/svg10.dtd">
<svg version="1.0" xmlns="http://www.w3.org/2000/svg"
 width="206.000000pt" height="116.000000pt" viewBox="0 0 206.000000 116.000000"
 preserveAspectRatio="xMidYMid meet">
<metadata>
Created by potrace 1.16, written by Peter Selinger 2001-2019
</metadata>
<g transform="translate(0.000000,116.000000) scale(0.100000,-0.100000)"
fill="#000000" stroke="none">
<path d="M1017 1097 c-28 -29 -70 -67 -92 -83 -22 -16 -71 -54 -108 -86 -94
-78 -175 -109 -299 -116 -101 -5 -150 5 -245 49 -24 10 -48 19 -55 19 -6 0
-21 9 -32 19 -19 18 -43 25 -72 22 -18 -2 -24 -26 -40 -141 -17 -132 -18 -179
-1 -186 12 -4 66 25 195 104 71 43 97 49 234 56 150 7 218 -4 218 -36 0 -24
19 -33 34 -17 7 8 27 53 45 101 34 88 55 115 136 173 22 15 45 35 52 43 21 26
43 6 43 -38 0 -27 5 -43 15 -46 15 -6 23 -1 116 75 l54 44 211 -7 c123 -4 241
-2 285 3 41 6 99 13 129 16 66 7 90 19 73 36 -8 8 -48 7 -156 -6 -89 -10 -177
-14 -228 -10 -45 3 -153 10 -238 14 -165 10 -186 14 -195 37 -9 24 -24 16 -79
-39z m113 -47 c0 -14 -39 -42 -49 -35 -14 8 -14 28 0 42 11 11 49 6 49 -7z
m-912 -239 c70 -27 78 -45 28 -66 -19 -8 -51 -26 -72 -40 -42 -28 -57 -24 -50
13 2 15 8 49 11 75 4 27 9 47 13 45 4 -2 35 -14 70 -27z m542 10 c0 -21 -13
-41 -26 -41 -20 0 -30 30 -13 41 18 11 39 11 39 0z"/>
<path d="M1133 936 c-156 -96 -203 -133 -203 -157 0 -12 17 -37 40 -58 22 -20
40 -45 40 -55 0 -16 5 -17 37 -11 21 4 41 9 45 11 14 9 9 42 -7 48 -27 10 -13
117 21 156 7 8 44 31 83 50 68 34 87 52 75 71 -10 16 -27 9 -131 -55z m-103
-135 c0 -23 -16 -36 -25 -21 -9 14 1 40 15 40 5 0 10 -9 10 -19z"/>
<path d="M1280 900 c-119 -94 -127 -100 -147 -100 -21 -1 -53 -23 -53 -37 0
-5 15 -15 34 -21 19 -7 52 -31 74 -54 48 -49 78 -48 68 2 -7 37 9 39 35 6 10
-13 33 -30 50 -39 53 -25 80 1 39 38 -11 10 -20 29 -20 43 0 55 21 87 87 130
62 41 83 66 69 80 -8 7 -22 -1 -130 -76 -42 -29 -83 -55 -91 -58 -23 -9 -19
33 6 54 11 9 33 27 47 39 15 13 30 23 35 23 4 0 7 7 7 15 0 28 -35 14 -110
-45z m-50 -101 c0 -17 -20 -49 -31 -49 -19 0 -21 31 -3 45 23 17 34 19 34 4z
m86 -36 c-10 -10 -19 5 -10 18 6 11 8 11 12 0 2 -7 1 -15 -2 -18z"/>
<path d="M1600 913 c-14 -10 -52 -39 -84 -65 -33 -26 -65 -48 -72 -48 -14 0
-64 -39 -64 -50 0 -5 10 -12 23 -15 12 -4 40 -25 63 -46 60 -59 77 -47 75 51
-1 49 28 101 72 129 20 14 37 32 37 43 0 23 -18 23 -50 1z m-100 -148 c0 -8
-4 -15 -9 -15 -13 0 -22 16 -14 24 11 11 23 6 23 -9z"/>
<path d="M1784 909 c-10 -12 -35 -32 -54 -44 -19 -13 -45 -33 -58 -45 -12 -11
-36 -26 -52 -32 -40 -13 -38 -38 5 -67 19 -13 37 -32 41 -43 4 -14 13 -18 32
-16 26 3 27 6 32 76 5 78 7 81 80 132 26 18 31 53 9 57 -8 2 -24 -6 -35 -18z
m-104 -145 c0 -8 -5 -12 -10 -9 -6 4 -8 11 -5 16 9 14 15 11 15 -7z"/>
<path d="M1085 600 c-28 -22 -66 -53 -85 -69 -19 -15 -54 -40 -77 -54 -24 -15
-43 -34 -43 -42 0 -8 19 -23 43 -33 23 -11 51 -29 61 -41 12 -13 31 -21 53
-21 36 0 44 18 18 40 -19 16 -19 53 0 116 13 40 23 54 60 77 28 18 45 36 45
48 0 29 -20 23 -75 -21z m-85 -140 c0 -19 -5 -30 -14 -30 -21 0 -25 23 -8 43
20 23 22 22 22 -13z"/>
<path d="M1607 592 c-59 -56 -139 -112 -159 -112 -7 0 -24 -9 -37 -19 -32 -24
-22 -56 14 -47 19 5 33 -2 64 -29 21 -19 45 -35 53 -35 14 0 29 45 43 135 5
31 18 50 58 86 31 28 48 50 43 57 -12 20 -25 14 -79 -36z m-72 -170 c-3 -3
-13 2 -22 11 -16 15 -15 18 3 38 l19 21 3 -32 c2 -17 1 -35 -3 -38z"/>
<path d="M1391 555 c-98 -67 -161 -120 -161 -134 0 -5 13 -14 30 -21 16 -7 41
-27 55 -46 27 -36 62 -45 71 -19 4 8 1 22 -5 29 -7 8 -11 38 -9 72 3 56 5 59
48 91 74 55 92 72 85 83 -10 16 -14 14 -114 -55z m-67 -116 c-3 -5 -10 -7 -15
-3 -5 3 -7 10 -3 15 3 5 10 7 15 3 5 -3 7 -10 3 -15z"/>
<path d="M1284 588 c-16 -12 -59 -46 -95 -75 -36 -29 -76 -53 -87 -53 -11 0
-24 -5 -28 -11 -9 -15 14 -55 41 -69 13 -7 29 -25 35 -41 14 -32 37 -44 56
-28 11 9 11 16 -2 41 -14 26 -14 35 1 84 9 30 25 63 37 72 11 9 25 22 32 27 6
6 26 21 44 34 17 12 32 27 32 32 0 16 -37 9 -66 -13z"/>
<path d="M677 557 l-58 -42 -232 3 c-187 3 -234 6 -243 18 -12 15 -40 19 -47
7 -3 -5 -8 -53 -12 -108 -5 -80 -4 -104 8 -120 13 -16 19 -17 40 -8 14 7 31
24 39 40 9 19 34 38 75 58 34 17 70 38 81 48 17 16 34 17 136 13 107 -4 119
-7 158 -34 24 -15 59 -35 78 -42 97 -38 190 -132 190 -191 1 -51 19 -121 37
-141 27 -30 51 -22 74 24 34 67 61 98 107 125 49 29 74 29 430 2 173 -13 200
-11 210 19 2 8 -15 12 -60 12 -34 0 -109 5 -165 12 -98 11 -103 13 -103 35 0
28 -26 31 -35 3 -3 -11 -12 -20 -18 -21 -49 -3 -186 3 -252 11 -44 6 -109 11
-145 13 l-65 3 -68 69 -69 69 4 80 c3 75 1 81 -17 83 -11 1 -46 -17 -78 -40z
m41 -75 c4 -35 -16 -44 -37 -18 -9 11 -10 20 -1 36 16 29 34 20 38 -18z m-516
-41 c-22 -16 -43 -34 -47 -40 -13 -21 -25 -10 -25 22 0 19 3 37 7 40 3 4 29 7
56 7 l50 0 -41 -29z m848 -209 c0 -10 -85 -102 -94 -102 -8 0 -8 95 1 103 9
10 93 9 93 -1z"/>
<path d="M990 15 c-11 -13 -6 -15 36 -15 l49 0 -29 15 c-35 19 -41 19 -56 0z"/>
</g>
</svg>
