<?xml version="1.0" standalone="no"?>
<!DOCTYPE svg PUBLIC "-//W3C//DTD SVG 20010904//EN"
 "http://www.w3.org/TR/2001/REC-SVG-20010904/DTD/svg10.dtd">
<svg version="1.0" xmlns="http://www.w3.org/2000/svg"
 width="174.000000pt" height="96.000000pt" viewBox="0 0 174.000000 96.000000"
 preserveAspectRatio="xMidYMid meet">
<metadata>
Created by potrace 1.16, written by Peter Selinger 2001-2019
</metadata>
<g transform="translate(0.000000,96.000000) scale(0.100000,-0.100000)"
fill="#000000" stroke="none">
<path d="M897 898 c-8 -18 -18 -42 -21 -53 -13 -40 -175 -144 -279 -179 -15
-5 -17 -12 -12 -37 l7 -31 -159 4 c-149 3 -162 5 -210 29 -62 33 -103 42 -123
29 -19 -12 -30 -182 -19 -289 5 -41 5 -91 0 -111 -9 -39 1 -70 23 -70 7 0 33
24 58 52 27 32 67 64 100 81 49 24 66 27 151 27 97 0 119 -8 97 -35 -10 -12
-9 -16 5 -21 9 -4 21 -2 28 5 15 15 61 14 125 -3 36 -10 68 -29 106 -63 50
-44 55 -52 55 -90 1 -29 8 -50 21 -63 20 -20 21 -20 53 -3 18 10 63 41 101 68
l68 50 246 0 c213 0 247 2 247 15 0 16 -61 20 -495 34 -95 3 -174 11 -187 17
-17 9 -26 9 -38 -1 -13 -11 -23 -6 -64 31 -27 24 -52 55 -56 69 -14 54 -31 94
-41 97 -6 2 -30 -12 -54 -32 -39 -33 -46 -35 -108 -34 -231 2 -352 23 -352 62
0 7 30 28 68 46 37 18 75 37 84 42 27 13 275 14 292 0 20 -16 66 -3 66 18 0
44 164 221 203 221 8 0 20 -13 26 -30 12 -36 42 -40 60 -7 19 35 99 81 140 81
437 -8 514 -4 487 23 -4 4 -89 11 -189 15 -226 9 -457 39 -457 59 0 5 -8 9
-19 9 -11 0 -25 -13 -34 -32z m100 -55 c3 -6 -10 -19 -27 -28 -27 -14 -31 -14
-36 0 -11 27 4 47 33 43 14 -2 28 -8 30 -15z m-327 -208 c0 -8 -7 -15 -16 -15
-14 0 -14 3 -4 15 7 8 14 15 16 15 2 0 4 -7 4 -15z m-476 -50 c20 -8 36 -19
36 -23 0 -9 -66 -52 -79 -52 -17 0 -22 19 -15 55 7 40 9 40 58 20z m-16 -211
c18 -8 32 -19 32 -22 0 -12 -67 -61 -74 -55 -9 10 -7 93 2 93 5 0 23 -7 40
-16z m496 -9 c3 -9 0 -15 -9 -15 -16 0 -27 14 -18 24 10 10 21 7 27 -9z m296
-180 c-7 -9 -26 -25 -42 -37 -37 -26 -58 -12 -40 27 10 21 18 25 53 25 36 0
40 -2 29 -15z"/>
<path d="M1073 747 c-52 -45 -139 -106 -169 -117 -34 -13 -30 -44 9 -69 17
-11 44 -30 60 -43 21 -17 30 -19 39 -10 9 9 9 17 -2 36 -18 35 -6 96 23 121
13 11 42 35 65 54 43 35 54 61 27 61 -8 0 -32 -15 -52 -33z"/>
<path d="M1205 720 c-39 -28 -83 -58 -98 -68 -65 -40 -65 -39 -29 -69 18 -16
32 -33 32 -40 0 -17 -116 -100 -188 -134 -67 -33 -74 -50 -25 -60 17 -3 44
-15 60 -27 40 -28 79 -37 89 -20 5 7 9 27 10 43 4 80 16 110 51 135 20 14 46
35 60 48 13 12 27 22 31 22 15 0 74 -68 70 -80 -2 -6 -35 -28 -73 -49 -48 -26
-71 -45 -73 -60 -2 -12 2 -21 10 -21 7 0 30 -5 51 -11 27 -7 37 -15 37 -31 0
-18 4 -20 32 -14 43 8 55 21 38 41 -22 27 -5 96 32 126 21 17 33 37 34 55 1
16 3 32 3 37 1 4 15 7 32 7 24 0 40 -9 65 -37 33 -37 34 -37 49 -19 8 11 15
38 15 60 0 48 19 108 43 134 9 10 17 24 17 30 0 24 -30 11 -66 -28 -41 -44
-120 -100 -141 -100 -27 0 -13 49 27 92 37 38 46 68 21 68 -5 0 -30 -22 -57
-50 -43 -45 -168 -120 -180 -108 -2 3 4 26 15 51 14 33 31 52 60 69 38 21 50
47 26 55 -6 2 -42 -19 -80 -47z m111 -142 c-3 -13 -6 -26 -6 -30 0 -14 -31 -8
-36 7 -7 18 13 45 33 45 11 0 14 -7 9 -22z m-296 -188 c0 -25 -27 -37 -43 -21
-9 10 -8 16 7 27 27 19 36 18 36 -6z m220 -5 c0 -8 -7 -15 -15 -15 -26 0 -18
20 13 29 1 1 2 -6 2 -14z"/>
</g>
</svg>
