<?xml version="1.0" standalone="no"?>
<!DOCTYPE svg PUBLIC "-//W3C//DTD SVG 20010904//EN"
 "http://www.w3.org/TR/2001/REC-SVG-20010904/DTD/svg10.dtd">
<svg version="1.0" xmlns="http://www.w3.org/2000/svg"
 width="274.000000pt" height="116.000000pt" viewBox="0 0 274.000000 116.000000"
 preserveAspectRatio="xMidYMid meet">
<metadata>
Created by potrace 1.16, written by Peter Selinger 2001-2019
</metadata>
<g transform="translate(0.000000,116.000000) scale(0.100000,-0.100000)"
fill="#000000" stroke="none">
<path d="M932 1088 c-7 -7 -12 -28 -12 -47 0 -33 -11 -47 -115 -148 -90 -88
-131 -120 -182 -144 -63 -29 -71 -31 -147 -24 -45 3 -101 8 -126 10 -58 4 -90
17 -131 53 -32 27 -71 52 -83 52 -18 0 -34 -62 -30 -111 3 -30 1 -83 -4 -119
-17 -117 -2 -119 121 -19 79 65 119 76 292 82 l160 5 46 -34 c26 -19 51 -34
56 -34 5 0 18 -6 28 -14 18 -13 16 -16 -30 -45 -27 -17 -74 -39 -105 -48 -30
-9 -63 -23 -72 -31 -13 -11 -32 -13 -75 -8 -32 3 -129 6 -216 7 -208 3 -199
10 -185 -163 13 -148 18 -154 81 -82 42 47 90 84 160 120 22 11 44 30 48 42
13 35 94 32 308 -12 36 -7 58 -18 65 -31 16 -28 28 -35 43 -24 16 14 48 3 99
-32 l41 -28 -4 -93 c-5 -85 -3 -95 16 -116 26 -27 32 -27 62 -4 30 23 124 67
164 76 17 4 47 19 68 33 l37 26 198 -8 c108 -4 220 -10 247 -12 72 -5 66 -5
343 -3 248 1 253 2 266 23 19 30 26 111 27 310 2 167 2 168 26 184 20 13 24
22 19 46 -4 21 0 37 17 57 12 15 40 54 62 85 22 32 52 73 68 90 30 36 35 63
13 71 -27 10 -306 -16 -344 -32 -32 -13 -102 -15 -522 -14 -433 1 -495 3 -575
19 -72 15 -94 25 -116 48 -46 50 -84 64 -107 41z m91 -102 c23 -18 21 -33 -8
-52 -30 -20 -45 -11 -45 25 0 43 19 53 53 27z m1497 -28 c0 -7 -15 -32 -33
-55 -17 -23 -45 -60 -61 -83 -15 -23 -30 -39 -33 -37 -2 3 -11 37 -19 77 -18
83 -12 97 44 103 79 8 102 7 102 -5z m-980 -26 c206 -2 422 -3 480 -1 58 2
145 4 194 4 l90 0 17 -70 c18 -70 23 -117 14 -126 -5 -6 -251 17 -330 31 -129
22 -248 34 -382 38 l-72 2 -3 33 c-3 28 -6 32 -28 29 -13 -1 -38 -16 -55 -32
-17 -17 -34 -30 -38 -30 -4 0 -26 -14 -50 -31 -42 -31 -43 -31 -131 -25 -101
8 -226 30 -255 45 -33 18 -42 -8 -38 -103 3 -64 8 -91 21 -105 10 -11 15 -25
11 -31 -4 -7 -9 -61 -10 -122 -2 -60 -5 -112 -9 -115 -3 -4 -16 3 -29 14 -12
11 -41 31 -64 43 -45 25 -54 50 -33 91 8 13 7 25 -1 40 -9 18 -7 26 17 50 l28
29 -35 30 c-18 16 -37 29 -41 30 -4 0 -12 9 -18 20 -8 16 -5 31 14 72 13 29
27 69 31 88 7 32 59 100 77 100 4 0 8 -22 8 -48 0 -27 3 -52 7 -55 7 -7 47 16
72 40 7 8 30 22 50 33 21 10 43 26 51 35 10 12 21 14 39 9 14 -4 195 -10 401
-12z m-777 -182 c-17 -43 -33 -50 -54 -24 -11 14 -9 20 19 45 42 38 55 30 35
-21z m727 -13 c6 -47 32 -87 57 -87 8 0 37 17 66 39 29 21 66 43 82 48 34 11
248 1 334 -16 29 -6 77 -11 105 -11 30 0 60 -6 72 -15 10 -8 40 -15 66 -15 36
0 50 -5 58 -19 12 -23 14 -148 2 -155 -9 -5 -508 -8 -574 -4 -41 3 -46 13 -23
44 15 20 20 70 7 78 -13 8 -25 -5 -62 -64 -19 -30 -51 -73 -71 -95 -21 -22
-47 -52 -59 -67 -28 -36 -40 -35 -40 3 0 22 9 40 30 59 46 43 40 73 -26 144
-83 89 -102 137 -68 171 25 24 38 13 44 -38z m135 24 c7 -12 -43 -51 -66 -51
-11 0 -19 3 -19 8 0 4 -3 17 -6 30 -6 20 -3 22 39 22 25 0 48 -4 52 -9z
m-1365 -83 c0 -10 -82 -68 -98 -68 -9 0 -11 7 -6 23 4 12 8 38 10 57 2 19 3
38 3 42 1 9 90 -44 91 -54z m798 52 c20 0 13 -24 -13 -43 -31 -22 -45 -15 -45
25 0 27 3 30 23 24 12 -3 28 -6 35 -6z m327 -9 c7 -12 -12 -24 -25 -16 -11 7
-4 25 10 25 5 0 11 -4 15 -9z m-129 -36 c14 -14 29 -23 34 -20 4 3 16 2 26 -2
49 -18 -82 -30 -164 -14 -54 11 -59 16 -37 41 28 31 108 28 141 -5z m144 -75
c0 -9 -17 -26 -39 -38 -30 -17 -55 -22 -115 -22 -42 0 -76 4 -76 9 0 19 31 33
87 38 66 7 93 17 93 38 0 12 5 12 25 3 14 -6 25 -19 25 -28z m-281 -9 c11 -7
8 -14 -15 -35 -32 -28 -67 -30 -72 -5 -7 36 51 62 87 40z m377 -55 c38 -38 37
-54 -5 -79 -46 -27 -81 -1 -81 60 0 60 37 68 86 19z m-126 -35 c0 -6 -4 -13
-10 -16 -5 -3 -10 1 -10 9 0 9 5 16 10 16 6 0 10 -4 10 -9z m-573 -37 c-3 -20
-8 -39 -11 -41 -7 -7 -76 17 -76 27 0 10 60 48 79 49 10 1 12 -8 8 -35z m437
21 c8 -8 21 -15 30 -15 25 0 66 -22 66 -36 0 -11 -19 -12 -92 -7 -51 3 -95 8
-98 10 -6 6 57 63 69 63 5 0 16 -7 25 -15z m-124 -4 c0 -13 -22 -29 -53 -36
-21 -6 -27 -4 -27 9 0 17 31 34 63 35 9 1 17 -3 17 -8z m1215 -161 l0 -125
-285 3 c-158 2 -356 9 -440 16 l-155 12 42 42 c42 44 55 46 113 25 8 -3 34 -7
58 -9 49 -4 69 19 37 42 -15 11 -16 19 -8 46 9 29 11 30 17 13 23 -63 43 -68
99 -22 91 74 83 71 297 78 107 3 202 5 210 4 12 0 15 -21 15 -125z m-515 111
c0 -15 -30 -41 -46 -41 -14 0 -20 31 -7 43 10 10 53 8 53 -2z m-160 -24 c0
-31 -27 -67 -51 -67 -26 0 -24 23 7 59 31 37 44 39 44 8z m-1280 -10 c0 -7
-21 -23 -47 -37 -27 -13 -69 -41 -94 -62 -26 -21 -50 -38 -53 -38 -10 0 -7
148 4 152 5 2 50 2 100 0 61 -2 90 -7 90 -15z m961 -24 c-33 -22 -26 -43 13
-43 53 0 97 -12 103 -27 3 -8 -11 -29 -31 -49 l-37 -36 -117 5 c-136 6 -220
23 -259 55 l-27 22 31 0 c40 0 129 33 170 62 24 18 45 23 102 24 66 2 70 1 52
-13z m139 2 c0 -9 -9 -15 -25 -15 -24 0 -32 10 -18 23 12 13 43 7 43 -8z
m-385 -16 c-48 -22 -65 -24 -65 -5 0 16 16 21 70 23 l34 1 -39 -19z m28 -169
c37 -7 69 -16 72 -20 2 -4 -21 -17 -53 -29 -31 -12 -67 -32 -79 -43 -35 -33
-53 -18 -53 45 0 58 5 69 29 63 9 -2 46 -10 84 -16z"/>
<path d="M2709 255 c-42 -93 -44 -105 -20 -105 24 0 54 81 49 132 -3 32 -4 32
-29 -27z"/>
<path d="M1443 63 c9 -2 25 -2 35 0 9 3 1 5 -18 5 -19 0 -27 -2 -17 -5z"/>
<path d="M2190 60 c-123 -4 -74 -6 193 -8 196 -1 357 1 357 6 0 8 -311 9 -550
2z"/>
<path d="M1802 53 c37 -2 100 -2 140 0 40 1 10 3 -67 3 -77 0 -110 -1 -73 -3z"/>
<path d="M745 30 c-91 -5 -85 -6 64 -7 103 -1 159 2 150 8 -15 9 -49 9 -214
-1z"/>
<path d="M603 23 c9 -2 23 -2 30 0 6 3 -1 5 -18 5 -16 0 -22 -2 -12 -5z"/>
<path d="M1663 23 c15 -2 37 -2 50 0 12 2 0 4 -28 4 -27 0 -38 -2 -22 -4z"/>
</g>
</svg>
