<?xml version="1.0" standalone="no"?>
<!DOCTYPE svg PUBLIC "-//W3C//DTD SVG 20010904//EN"
 "http://www.w3.org/TR/2001/REC-SVG-20010904/DTD/svg10.dtd">
<svg version="1.0" xmlns="http://www.w3.org/2000/svg"
 width="156.000000pt" height="100.000000pt" viewBox="0 0 156.000000 100.000000"
 preserveAspectRatio="xMidYMid meet">
<metadata>
Created by potrace 1.16, written by Peter Selinger 2001-2019
</metadata>
<g transform="translate(0.000000,100.000000) scale(0.100000,-0.100000)"
fill="#000000" stroke="none">
<path d="M1357 834 c-3 -4 -141 -7 -307 -9 l-301 -2 -47 -44 c-26 -25 -66 -62
-89 -82 l-42 -36 -168 1 c-176 2 -217 -6 -211 -40 3 -15 24 -17 192 -18 l188
-1 105 92 104 93 267 0 c209 0 272 -3 288 -13 45 -29 121 20 80 51 -21 15 -48
18 -59 8z"/>
<path d="M568 415 c-2 -1 -84 -5 -183 -8 -191 -6 -218 -10 -213 -36 3 -14 17
-15 113 -11 61 3 140 5 177 5 l66 0 61 -60 c34 -33 61 -69 61 -80 1 -46 7 -48
196 -44 99 2 274 3 391 2 172 -2 213 0 223 12 6 8 9 18 7 22 -3 5 -168 8 -367
6 -230 -2 -369 1 -381 8 -11 5 -19 19 -19 31 0 11 -17 37 -39 57 -21 20 -41
48 -45 62 -5 22 -36 44 -48 34z"/>
</g>
</svg>
