<?xml version="1.0" standalone="no"?>
<!DOCTYPE svg PUBLIC "-//W3C//DTD SVG 20010904//EN"
 "http://www.w3.org/TR/2001/REC-SVG-20010904/DTD/svg10.dtd">
<svg version="1.0" xmlns="http://www.w3.org/2000/svg"
 width="134.000000pt" height="116.000000pt" viewBox="0 0 134.000000 116.000000"
 preserveAspectRatio="xMidYMid meet">
<metadata>
Created by potrace 1.16, written by Peter Selinger 2001-2019
</metadata>
<g transform="translate(0.000000,116.000000) scale(0.100000,-0.100000)"
fill="#000000" stroke="none">
<path d="M766 928 c-8 -13 -23 -76 -34 -142 -11 -65 -24 -122 -29 -126 -4 -5
-35 -12 -67 -15 -53 -7 -59 -6 -53 10 4 9 10 35 13 58 4 23 15 70 26 105 11
34 17 70 14 79 -19 49 -69 -84 -83 -218 -5 -51 -27 -69 -85 -69 -23 0 -29 4
-24 16 6 17 47 199 49 224 1 9 -6 15 -17 15 -23 0 -35 -39 -56 -176 -7 -46
-16 -88 -20 -92 -4 -5 -57 -12 -119 -16 -106 -8 -170 -28 -157 -50 3 -4 45
-13 93 -21 140 -20 158 -25 157 -41 -1 -8 -14 -69 -29 -137 -30 -128 -28 -151
13 -138 16 6 20 19 26 94 7 96 25 169 45 181 12 8 32 6 68 -4 8 -3 9 -14 2
-42 -19 -77 -39 -199 -39 -236 0 -34 3 -38 23 -35 18 2 22 10 24 38 4 85 33
249 45 256 5 3 30 0 55 -7 l45 -12 -7 -46 c-18 -123 -21 -186 -9 -204 12 -18
13 -18 27 5 8 13 17 61 20 111 4 49 11 95 17 101 10 13 68 8 305 -30 181 -29
205 -31 217 -17 13 16 -9 46 -28 39 -7 -3 -39 -1 -71 5 -111 19 -169 27 -286
40 -65 7 -120 16 -123 21 -9 14 18 149 32 163 7 7 34 15 61 19 26 3 86 20 133
37 49 17 123 35 175 40 97 11 128 27 106 53 -8 9 -16 14 -20 12 -4 -3 -42 -9
-86 -15 -44 -6 -136 -29 -205 -51 -68 -22 -130 -40 -137 -40 -17 0 -16 16 3
120 26 142 26 147 15 154 -5 4 -17 -4 -25 -16z m-81 -328 c7 -12 -15 -119 -26
-126 -4 -2 -28 1 -53 8 -44 12 -46 14 -46 49 0 43 12 55 66 68 53 12 52 12 59
1z m-155 -48 c0 -36 -22 -52 -60 -44 -43 9 -49 42 -10 53 47 13 70 10 70 -9z"/>
</g>
</svg>
