<?xml version="1.0" standalone="no"?>
<!DOCTYPE svg PUBLIC "-//W3C//DTD SVG 20010904//EN"
 "http://www.w3.org/TR/2001/REC-SVG-20010904/DTD/svg10.dtd">
<svg version="1.0" xmlns="http://www.w3.org/2000/svg"
 width="222.000000pt" height="98.000000pt" viewBox="0 0 222.000000 98.000000"
 preserveAspectRatio="xMidYMid meet">
<metadata>
Created by potrace 1.16, written by Peter Selinger 2001-2019
</metadata>
<g transform="translate(0.000000,98.000000) scale(0.100000,-0.100000)"
fill="#000000" stroke="none">
<path d="M460 930 c0 -5 7 -10 15 -10 8 0 15 5 15 10 0 6 -7 10 -15 10 -8 0
-15 -4 -15 -10z"/>
<path d="M396 768 c-8 -18 -19 -87 -25 -152 -7 -65 -14 -123 -18 -129 -3 -5
-38 -7 -87 -3 -48 4 -87 2 -96 -3 -28 -19 6 -34 85 -39 41 -2 78 -8 80 -12 3
-4 0 -30 -5 -56 -26 -127 -32 -176 -21 -187 18 -18 33 5 36 54 5 78 17 164 27
182 12 23 96 25 104 2 4 -9 -1 -43 -9 -78 -21 -81 -33 -197 -20 -197 18 0 33
24 33 54 0 32 35 214 42 221 2 3 28 2 57 -2 53 -6 53 -6 47 -37 -7 -38 -25
-155 -33 -218 -4 -39 -3 -48 10 -48 14 0 36 41 35 70 0 28 24 214 28 222 3 5
28 8 56 8 50 0 50 0 44 -27 -11 -48 -36 -207 -36 -230 0 -17 6 -23 20 -23 26
0 32 15 34 92 3 80 16 159 29 176 8 10 27 12 71 7 34 -3 243 -8 465 -10 222
-3 406 -7 409 -10 3 -3 13 -5 22 -5 17 0 190 -173 190 -190 0 -4 9 -10 19 -13
65 -17 23 67 -97 191 -29 30 -52 58 -52 62 0 21 29 71 83 144 71 95 76 106 48
106 -21 0 -30 -11 -139 -159 -31 -43 -57 -68 -77 -74 -47 -15 -833 -14 -914 1
-21 4 -23 8 -17 46 4 22 9 68 12 101 3 33 9 83 14 110 9 54 0 76 -23 57 -9 -7
-17 -44 -21 -94 -4 -46 -11 -112 -14 -148 l-7 -65 -50 0 c-58 0 -55 -15 -36
165 11 108 8 144 -12 137 -7 -2 -15 -39 -19 -93 -4 -49 -11 -116 -15 -149 l-8
-60 -55 3 c-30 2 -56 5 -56 5 -3 4 21 166 42 280 4 25 3 37 -5 37 -21 0 -41
-69 -62 -215 -14 -104 -16 -108 -47 -100 -15 4 -36 8 -47 9 -15 1 -20 8 -19
31 1 62 26 230 35 240 15 15 10 45 -7 45 -8 0 -21 -15 -28 -32z"/>
</g>
</svg>
