<?xml version="1.0" standalone="no"?>
<!DOCTYPE svg PUBLIC "-//W3C//DTD SVG 20010904//EN"
 "http://www.w3.org/TR/2001/REC-SVG-20010904/DTD/svg10.dtd">
<svg version="1.0" xmlns="http://www.w3.org/2000/svg"
 width="144.000000pt" height="92.000000pt" viewBox="0 0 144.000000 92.000000"
 preserveAspectRatio="xMidYMid meet">
<metadata>
Created by potrace 1.16, written by Peter Selinger 2001-2019
</metadata>
<g transform="translate(0.000000,92.000000) scale(0.100000,-0.100000)"
fill="#000000" stroke="none">
<path d="M534 767 c-3 -8 -8 -37 -12 -63 -7 -45 -10 -49 -37 -52 -34 -4 -151
23 -196 45 -29 15 -32 14 -52 -5 -16 -16 -21 -37 -25 -94 -2 -40 -8 -78 -13
-84 -12 -14 -1 -44 15 -44 7 0 28 12 47 26 19 14 52 34 74 44 63 28 168 70
171 67 1 -1 4 -60 6 -132 3 -125 2 -130 -17 -127 -11 1 -42 3 -70 4 -60 1
-159 24 -163 38 -5 14 -39 13 -48 -1 -3 -6 -8 -39 -9 -73 -1 -33 -6 -78 -10
-98 -6 -31 -4 -39 10 -44 10 -4 25 -2 34 5 9 6 41 23 71 37 30 14 83 39 116
55 34 16 67 29 73 29 14 0 14 -52 -1 -102 -9 -30 -9 -41 1 -51 17 -17 41 17
41 59 0 67 33 110 64 85 12 -10 12 -20 0 -67 -8 -30 -12 -59 -9 -65 11 -17 34
11 40 50 14 83 13 82 48 79 31 -3 32 -5 30 -42 -2 -22 -10 -47 -18 -56 -19
-21 -19 -34 -2 -49 22 -17 44 16 52 79 7 53 19 80 36 80 19 0 39 -34 39 -66 0
-28 4 -35 18 -32 13 3 17 13 17 45 0 23 2 43 5 46 3 2 61 7 129 10 l124 5 -7
-74 c-6 -62 -4 -74 8 -74 19 0 31 23 40 73 4 20 10 37 14 37 4 0 16 15 27 32
10 18 42 57 72 85 66 66 68 83 10 83 -24 0 -46 3 -50 6 -7 7 42 84 79 124 15
17 20 30 15 39 -8 12 -16 12 -58 -1 -36 -12 -80 -14 -178 -11 -71 2 -136 6
-143 9 -9 3 -6 14 14 39 42 55 31 63 -83 60 -67 -2 -112 2 -143 13 -25 8 -65
16 -90 17 -25 1 -57 6 -72 10 -21 5 -29 3 -34 -8z m63 -53 c5 -14 -33 -61 -42
-52 -13 13 6 69 23 66 8 -2 17 -8 19 -14z m98 -14 c4 -6 -1 -23 -11 -37 -15
-24 -18 -25 -29 -10 -7 9 -17 17 -24 17 -14 0 -14 13 1 28 15 15 55 16 63 2z
m102 -17 c5 -14 -26 -45 -38 -38 -13 9 -11 43 4 48 16 7 30 3 34 -10z m63 -4
c0 -17 -20 -49 -30 -49 -11 0 -14 43 -3 53 10 11 33 8 33 -4z m60 -10 c0 -5
-7 -9 -15 -9 -15 0 -20 12 -9 23 8 8 24 -1 24 -14z m-571 -37 c51 -10 48 -26
-12 -50 -73 -31 -77 -29 -77 24 0 45 1 46 28 40 15 -4 42 -10 61 -14z m264
-39 c2 -10 4 -72 3 -138 -1 -107 -3 -120 -19 -123 -38 -8 -44 13 -42 136 1 65
5 123 9 130 11 18 44 14 49 -5z m102 -130 l0 -128 -26 -3 c-25 -3 -27 0 -34
45 -9 68 31 233 53 219 4 -2 7 -62 7 -133z m120 122 c0 -5 -6 -65 -14 -132
-13 -117 -15 -123 -37 -123 -13 0 -25 4 -28 9 -3 4 -6 49 -7 98 -2 78 0 95 20
127 17 27 29 36 45 34 11 -2 21 -7 21 -13z m300 -14 c3 -11 1 -48 -6 -83 -6
-34 -13 -76 -16 -93 -3 -16 -9 -35 -14 -41 -13 -16 -249 -18 -249 -2 1 73 22
192 37 212 17 24 22 25 130 26 101 0 112 -2 118 -19z m97 -7 c-6 -31 -43 -77
-54 -66 -14 14 1 80 21 85 26 7 36 1 33 -19z m-7 -161 c-27 -43 -57 -73 -66
-67 -11 6 -11 55 -1 70 7 12 33 21 66 23 18 1 18 0 1 -26z m-857 -108 c-19
-18 -98 -46 -109 -40 -14 9 -11 42 5 58 12 12 25 12 66 4 41 -8 49 -12 38 -22z"/>
</g>
</svg>
