<?xml version="1.0" standalone="no"?>
<!DOCTYPE svg PUBLIC "-//W3C//DTD SVG 20010904//EN"
 "http://www.w3.org/TR/2001/REC-SVG-20010904/DTD/svg10.dtd">
<svg version="1.0" xmlns="http://www.w3.org/2000/svg"
 width="144.000000pt" height="102.000000pt" viewBox="0 0 144.000000 102.000000"
 preserveAspectRatio="xMidYMid meet">
<metadata>
Created by potrace 1.16, written by Peter Selinger 2001-2019
</metadata>
<g transform="translate(0.000000,102.000000) scale(0.100000,-0.100000)"
fill="#000000" stroke="none">
<path d="M242 838 c-7 -7 -12 -39 -12 -75 0 -58 -2 -63 -25 -69 -14 -3 -36 -3
-49 0 -15 4 -28 0 -36 -8 -15 -19 15 -36 60 -36 l32 0 -4 -62 c-3 -57 -1 -63
17 -63 16 0 22 10 30 52 12 64 23 75 66 71 l34 -3 0 -70 c0 -63 2 -70 20 -70
21 0 32 28 34 86 1 49 22 65 69 53 36 -9 37 -11 42 -59 4 -42 8 -50 25 -50 16
0 20 7 20 35 1 19 4 40 7 45 4 6 60 12 135 13 362 7 434 10 447 21 27 23 25
-310 -3 -341 -11 -13 -124 -19 -379 -20 -155 0 -257 3 -263 9 -6 6 -6 25 2 55
7 25 9 53 5 63 -6 17 -8 17 -22 3 -9 -9 -20 -38 -25 -64 -11 -60 -32 -85 -53
-64 -11 12 -12 27 -6 65 6 36 5 54 -4 63 -18 19 -33 -2 -43 -62 -9 -51 -34
-79 -53 -60 -6 6 -13 34 -17 63 -4 32 -12 55 -21 58 -22 9 -31 -16 -25 -68 l6
-48 -64 -3 c-58 -3 -64 -5 -67 -26 -3 -20 0 -22 52 -22 30 0 57 -3 59 -7 2 -5
0 -36 -6 -71 -12 -71 -4 -92 31 -73 18 10 20 18 15 59 -6 58 19 99 55 88 20
-7 21 -12 15 -71 -5 -55 -3 -66 11 -71 24 -9 28 -2 31 61 2 59 14 81 38 72 10
-4 14 -22 14 -60 0 -62 6 -77 33 -77 23 0 30 18 18 49 -13 36 0 81 27 91 13 5
61 7 107 4 46 -3 175 -1 288 3 113 5 213 7 223 4 15 -3 18 -10 13 -37 -5 -26
-3 -35 12 -43 27 -14 38 -1 46 54 30 236 32 280 28 498 -2 60 -5 77 -16 77
-22 0 -46 -40 -46 -76 0 -30 -2 -32 -46 -38 -26 -3 -83 -6 -127 -6 -63 0 -82
4 -92 17 -11 15 -21 15 -96 5 -95 -14 -225 -16 -233 -4 -2 4 0 27 6 52 21 100
21 100 4 100 -19 0 -46 -56 -54 -112 -6 -52 -23 -63 -75 -52 l-42 9 3 61 c6
104 -39 97 -51 -8 -4 -28 -12 -55 -19 -59 -11 -7 -56 -2 -67 8 -3 2 -5 35 -5
75 -1 71 -10 90 -34 66z"/>
</g>
</svg>
