<?xml version="1.0" standalone="no"?>
<!DOCTYPE svg PUBLIC "-//W3C//DTD SVG 20010904//EN"
 "http://www.w3.org/TR/2001/REC-SVG-20010904/DTD/svg10.dtd">
<svg version="1.0" xmlns="http://www.w3.org/2000/svg"
 width="122.000000pt" height="100.000000pt" viewBox="0 0 122.000000 100.000000"
 preserveAspectRatio="xMidYMid meet">
<metadata>
Created by potrace 1.16, written by Peter Selinger 2001-2019
</metadata>
<g transform="translate(0.000000,100.000000) scale(0.100000,-0.100000)"
fill="#000000" stroke="none">
<path d="M402 872 c-13 -13 -22 -41 -27 -83 -8 -71 -15 -79 -64 -79 l-34 0 6
67 c7 69 -2 96 -29 86 -11 -4 -13 -16 -8 -52 3 -25 1 -58 -5 -73 -9 -24 -16
-27 -63 -30 -39 -2 -53 -7 -53 -18 0 -11 13 -16 48 -18 32 -2 50 -8 54 -18 3
-9 -2 -52 -11 -97 -9 -45 -20 -104 -24 -132 l-8 -50 -42 0 c-23 -1 -47 -6 -53
-12 -20 -20 1 -34 44 -31 l42 3 -4 -45 c-8 -82 -7 -95 8 -95 16 0 39 56 40 98
1 31 34 50 70 40 24 -6 25 -9 9 -66 -6 -24 -8 -52 -4 -63 7 -18 8 -18 27 5 10
13 19 38 19 56 0 60 6 65 75 65 35 0 66 -4 70 -9 3 -5 -4 -48 -15 -96 -21 -88
-20 -108 4 -99 14 6 46 115 46 158 0 14 5 28 12 32 6 4 105 8 219 8 l208 1 3
-50 c3 -46 5 -50 28 -50 24 0 25 3 22 47 -3 42 -1 47 24 60 37 18 41 36 9 44
-23 6 -25 10 -19 37 3 17 12 40 18 49 9 15 8 21 -4 28 -21 13 -39 -8 -60 -71
l-17 -54 -203 -3 c-112 -1 -207 1 -211 5 -8 9 5 153 23 246 l11 57 201 -2 201
-3 -1 -30 c0 -16 -4 -37 -7 -45 -4 -8 -2 -22 3 -30 16 -26 44 2 54 53 7 33 14
47 26 47 17 0 40 18 40 32 0 4 -8 8 -18 8 -28 0 -43 20 -31 42 13 24 8 70 -8
76 -7 2 -18 -9 -24 -25 -6 -15 -17 -43 -25 -61 l-14 -34 -188 7 c-103 4 -191
10 -196 13 -7 4 -6 37 7 136 3 28 -20 31 -34 4 -7 -12 -15 -47 -18 -78 l-6
-55 -55 -7 c-31 -4 -59 -3 -65 3 -12 12 -8 85 7 122 15 39 -3 56 -30 29z m131
-222 c-10 -119 -31 -272 -39 -278 -5 -4 -38 -6 -72 -4 l-64 4 6 31 c4 18 11
70 15 117 16 151 23 162 100 158 53 -3 56 -4 54 -28z m-173 1 c0 -10 -7 -38
-15 -61 -8 -23 -15 -68 -15 -100 0 -83 -14 -116 -52 -124 -55 -11 -58 10 -27
170 26 142 22 134 69 134 32 0 40 -4 40 -19z"/>
</g>
</svg>
