<?xml version="1.0" standalone="no"?>
<!DOCTYPE svg PUBLIC "-//W3C//DTD SVG 20010904//EN"
 "http://www.w3.org/TR/2001/REC-SVG-20010904/DTD/svg10.dtd">
<svg version="1.0" xmlns="http://www.w3.org/2000/svg"
 width="124.000000pt" height="68.000000pt" viewBox="0 0 124.000000 68.000000"
 preserveAspectRatio="xMidYMid meet">
<metadata>
Created by potrace 1.16, written by Peter Selinger 2001-2019
</metadata>
<g transform="translate(0.000000,68.000000) scale(0.100000,-0.100000)"
fill="#000000" stroke="none">
<path d="M282 553 c-6 -10 -16 -48 -23 -83 -7 -36 -17 -71 -22 -77 -6 -8 -33
-13 -67 -13 -62 0 -76 -6 -59 -27 7 -8 33 -13 66 -13 l55 0 -5 -37 c-7 -55 13
-135 32 -131 12 3 17 21 21 83 l5 80 53 3 53 3 -7 -70 c-8 -82 6 -131 39 -131
18 0 19 4 13 49 -3 26 -1 71 5 100 l11 51 59 0 c61 0 63 -2 59 -48 -3 -43 23
-164 37 -169 24 -9 28 6 28 102 0 77 3 96 19 114 13 14 15 21 6 21 -14 0 -10
45 12 131 24 99 -27 101 -56 2 -42 -139 -31 -124 -94 -121 -65 3 -60 -8 -47
121 7 58 5 67 -8 67 -23 0 -34 -26 -42 -95 -11 -94 -11 -95 -59 -95 -23 0 -50
6 -59 13 -16 11 -16 16 -2 72 17 65 17 106 -2 112 -6 2 -16 -4 -21 -14z"/>
<path d="M1088 508 c-15 -11 -42 -104 -39 -133 1 -5 4 -47 7 -92 6 -85 19
-111 50 -99 11 4 14 13 10 30 -3 13 3 50 13 83 10 32 20 94 22 138 4 79 4 80
-21 83 -14 2 -33 -3 -42 -10z"/>
<path d="M915 370 c-13 -5 -14 -9 -5 -9 8 0 24 4 35 9 13 5 14 9 5 9 -8 0 -24
-4 -35 -9z"/>
<path d="M700 351 c27 -8 119 -5 128 4 3 3 -30 5 -74 4 -49 -1 -70 -4 -54 -8z"/>
</g>
</svg>
