<?xml version="1.0" standalone="no"?>
<!DOCTYPE svg PUBLIC "-//W3C//DTD SVG 20010904//EN"
 "http://www.w3.org/TR/2001/REC-SVG-20010904/DTD/svg10.dtd">
<svg version="1.0" xmlns="http://www.w3.org/2000/svg"
 width="170.000000pt" height="96.000000pt" viewBox="0 0 170.000000 96.000000"
 preserveAspectRatio="xMidYMid meet">
<metadata>
Created by potrace 1.16, written by Peter Selinger 2001-2019
</metadata>
<g transform="translate(0.000000,96.000000) scale(0.100000,-0.100000)"
fill="#000000" stroke="none">
<path d="M561 816 c-15 -18 -71 -242 -71 -287 0 -69 -9 -73 -163 -65 -138 7
-161 2 -131 -28 12 -13 40 -16 139 -16 135 0 137 -1 124 -60 -4 -19 -13 -62
-19 -95 -7 -33 -16 -70 -21 -83 -11 -28 -4 -42 20 -42 26 0 38 19 40 65 1 22
7 78 14 124 l12 85 70 12 c106 19 115 18 115 -10 0 -14 -14 -78 -30 -142 -17
-65 -28 -124 -26 -131 8 -19 43 -16 51 5 4 9 9 44 12 77 2 33 14 96 27 139 21
74 25 80 52 83 16 1 49 5 73 8 l43 5 -6 -43 c-32 -233 -30 -287 12 -261 13 9
17 27 19 79 1 56 16 164 28 211 4 14 193 28 224 16 12 -4 39 -30 59 -57 36
-47 147 -143 167 -144 6 -1 22 -14 37 -31 34 -39 50 -39 46 2 -3 28 -14 40
-82 88 -50 34 -92 74 -113 105 -19 28 -41 57 -49 66 -22 24 -17 37 20 54 18 9
65 51 102 93 38 42 77 83 86 90 19 14 24 42 8 42 -14 0 -46 -27 -94 -79 -23
-24 -52 -55 -66 -70 -27 -28 -85 -71 -96 -71 -3 0 -18 -9 -33 -19 -20 -15 -48
-20 -116 -23 l-90 -3 3 45 c1 25 11 89 23 144 15 70 17 102 10 109 -8 8 -14 8
-22 0 -15 -15 -58 -197 -59 -244 0 -54 -16 -67 -87 -71 -34 -2 -64 -1 -67 2
-3 3 1 30 9 60 15 56 32 167 37 234 4 51 -18 59 -36 14 -7 -18 -21 -93 -31
-166 -10 -72 -23 -138 -29 -146 -7 -9 -42 -16 -98 -19 -79 -5 -88 -4 -88 11 0
17 53 275 66 318 7 26 -9 39 -25 20z"/>
</g>
</svg>
