<?xml version="1.0" standalone="no"?>
<!DOCTYPE svg PUBLIC "-//W3C//DTD SVG 20010904//EN"
 "http://www.w3.org/TR/2001/REC-SVG-20010904/DTD/svg10.dtd">
<svg version="1.0" xmlns="http://www.w3.org/2000/svg"
 width="130.000000pt" height="80.000000pt" viewBox="0 0 130.000000 80.000000"
 preserveAspectRatio="xMidYMid meet">
<metadata>
Created by potrace 1.16, written by Peter Selinger 2001-2019
</metadata>
<g transform="translate(0.000000,80.000000) scale(0.100000,-0.100000)"
fill="#000000" stroke="none">
<path d="M446 631 c-9 -14 -28 -107 -35 -171 l-6 -55 -45 0 -45 0 0 90 c0 85
-1 90 -22 93 -27 4 -32 -12 -35 -113 l-3 -70 -57 3 c-64 2 -108 -10 -108 -32
0 -20 23 -25 99 -23 45 2 65 -2 69 -11 2 -8 -3 -40 -13 -72 -19 -62 -14 -110
10 -110 18 0 26 13 31 53 2 18 10 55 17 82 14 49 15 50 53 50 35 0 39 -2 37
-25 -7 -102 -6 -129 6 -143 25 -31 38 -8 45 76 7 90 18 107 69 107 28 0 29 -2
25 -37 -5 -37 8 -93 20 -93 21 1 31 22 34 70 l3 55 240 6 c132 3 242 4 244 2
2 -2 0 -27 -5 -57 -14 -73 6 -123 43 -109 8 3 13 23 13 57 0 28 7 72 16 97 26
70 20 76 -67 68 -103 -11 -467 -11 -473 -1 -3 5 0 52 6 106 7 65 8 100 1 107
-21 21 -38 -19 -52 -117 -7 -54 -14 -100 -14 -101 -1 0 -20 -4 -41 -9 l-39 -7
8 89 c13 136 12 148 -7 152 -9 2 -19 -1 -22 -7z"/>
</g>
</svg>
