<?xml version="1.0" standalone="no"?>
<!DOCTYPE svg PUBLIC "-//W3C//DTD SVG 20010904//EN"
 "http://www.w3.org/TR/2001/REC-SVG-20010904/DTD/svg10.dtd">
<svg version="1.0" xmlns="http://www.w3.org/2000/svg"
 width="224.000000pt" height="106.000000pt" viewBox="0 0 224.000000 106.000000"
 preserveAspectRatio="xMidYMid meet">
<metadata>
Created by potrace 1.16, written by Peter Selinger 2001-2019
</metadata>
<g transform="translate(0.000000,106.000000) scale(0.100000,-0.100000)"
fill="#000000" stroke="none">
<path d="M2104 1046 c-10 -25 27 -74 68 -91 51 -20 68 -19 68 5 0 12 -7 20
-18 20 -27 0 -60 27 -64 53 -4 26 -45 37 -54 13z"/>
<path d="M1168 934 c-9 -8 -166 -25 -272 -30 -107 -4 -128 -17 -68 -41 39 -15
42 -19 42 -53 0 -21 -6 -40 -13 -43 -22 -8 -200 23 -226 40 -23 15 -25 14 -38
-3 -7 -10 -16 -35 -19 -56 -10 -59 -22 -69 -69 -58 -22 5 -54 10 -71 10 -17 0
-65 15 -105 34 -41 18 -91 36 -111 40 -51 9 -58 -8 -51 -125 4 -83 2 -103 -21
-168 -31 -88 -37 -229 -11 -251 21 -17 50 -4 85 41 21 25 54 49 96 69 64 29
186 56 205 45 5 -4 9 -38 9 -76 0 -54 4 -71 16 -76 9 -3 21 3 30 15 20 28 105
58 188 65 l69 6 -7 -60 c-7 -55 -6 -60 11 -57 14 2 19 14 21 55 3 59 11 68 68
78 40 6 41 6 48 -26 3 -17 6 -49 6 -70 0 -21 5 -41 11 -45 20 -12 29 19 23 74
-7 59 5 82 42 82 18 0 25 -7 30 -27 3 -16 9 -41 13 -58 12 -50 36 -38 32 16
-1 27 2 50 9 54 19 12 90 13 91 1 0 -6 0 -34 -1 -62 -1 -29 3 -55 8 -58 18
-11 33 22 35 76 l2 53 48 3 47 3 0 -111 c0 -101 2 -111 18 -108 14 3 17 13 14
58 -1 30 0 78 3 107 l6 51 47 4 c26 3 49 3 51 1 2 -1 4 -44 4 -95 0 -97 8
-128 32 -128 12 0 14 19 12 108 l-2 107 105 2 c58 1 133 -3 168 -9 55 -9 65
-8 82 7 19 17 20 17 26 0 8 -20 -9 -126 -33 -203 -18 -60 -11 -79 17 -42 18
24 22 36 40 118 5 23 30 74 55 113 25 38 45 72 45 75 0 18 57 84 81 94 17 8
29 20 29 31 0 17 -8 19 -75 19 -83 0 -91 8 -55 53 11 14 20 28 20 32 0 13 64
101 86 118 13 10 24 28 24 39 0 20 -4 20 -77 14 -67 -6 -84 -4 -118 14 -47 24
-59 25 -75 5 -10 -13 -8 -19 12 -38 29 -27 45 -92 28 -112 -7 -8 -24 -12 -43
-10 -18 2 -86 9 -152 16 -66 6 -123 15 -127 18 -13 11 24 121 48 144 13 12 24
30 24 41 0 15 -5 17 -27 11 -16 -4 -45 -7 -65 -6 -20 0 -40 -4 -43 -9 -3 -6
-20 -10 -36 -10 -70 0 -101 -38 -111 -135 -3 -26 -8 -30 -35 -33 -18 -2 -33 0
-33 5 0 25 65 140 83 148 13 6 23 21 25 37 l3 28 -41 -15 c-38 -13 -45 -13
-73 2 -18 10 -52 18 -77 18 -25 1 -54 4 -66 8 -11 4 -23 5 -26 1z m-84 -111
c-15 -38 -19 -43 -22 -25 -5 34 18 96 31 83 7 -7 4 -25 -9 -58z m90 51 c9 -3
16 -18 16 -33 0 -36 -18 -99 -31 -107 -20 -12 -29 11 -19 45 6 22 6 40 -1 53
-19 35 -1 56 35 42z m-208 -19 c6 -15 -11 -69 -28 -92 -19 -24 -38 -2 -38 43
0 37 4 46 23 54 31 13 37 12 43 -5z m67 -62 c-5 -47 -8 -53 -29 -53 -35 0 -36
13 -8 76 30 69 45 59 37 -23z m329 61 c3 -3 -4 -26 -17 -52 -12 -26 -26 -57
-29 -70 -12 -36 -26 -15 -26 38 0 39 -3 48 -14 44 -10 -4 -15 -20 -14 -46 0
-45 -11 -62 -35 -52 -21 8 -21 26 -1 67 28 56 54 77 94 77 20 0 39 -2 42 -6z
m248 -33 c0 -11 -4 -23 -10 -26 -6 -4 -10 5 -10 19 0 14 5 26 10 26 6 0 10 -9
10 -19z m-120 -5 c0 -7 -10 -35 -22 -62 -18 -39 -23 -44 -26 -27 -5 34 17 103
33 103 8 0 15 -6 15 -14z m70 -23 c0 -16 -3 -45 -6 -65 -6 -34 -10 -38 -35
-38 -34 0 -36 13 -14 67 28 66 55 84 55 36z m-863 -48 c31 -8 81 -15 109 -15
56 0 73 -15 54 -51 -9 -15 -22 -19 -65 -19 -38 0 -72 -8 -112 -26 -32 -15 -60
-27 -63 -28 -7 -1 -10 103 -4 132 5 26 7 26 81 7z m413 5 c0 -5 -7 -10 -15
-10 -8 0 -15 5 -15 10 0 6 7 10 15 10 8 0 15 -4 15 -10z m966 -1 c3 -6 -6 -28
-20 -49 -14 -22 -26 -43 -26 -47 -1 -5 -12 -21 -25 -38 -22 -26 -25 -28 -26
-10 -2 41 3 140 7 146 6 11 83 9 90 -2z m-1161 -59 c-3 -6 -10 -10 -16 -10
-10 0 -12 33 -2 44 9 9 26 -22 18 -34z m-612 -6 c26 -9 47 -23 47 -30 0 -8 -3
-14 -8 -14 -4 0 -29 -18 -56 -40 -26 -22 -52 -40 -57 -40 -4 0 -7 34 -6 76 2
62 5 74 17 70 8 -3 36 -12 63 -22z m712 1 c0 -16 -8 -21 -37 -23 -32 -3 -38 0
-38 16 0 27 10 33 45 30 22 -2 30 -8 30 -23z m95 -6 c0 -15 -5 -20 -22 -17
-34 5 -37 38 -4 38 20 0 26 -5 26 -21z m140 -9 c0 -21 -22 -26 -54 -14 -23 9
-1 34 30 34 17 0 24 -6 24 -20z m147 -17 c-7 -11 -77 -4 -77 7 0 11 62 18 74
9 4 -4 6 -11 3 -16z m118 -3 c3 -5 -3 -10 -15 -10 -12 0 -18 5 -15 10 3 6 10
10 15 10 5 0 12 -4 15 -10z m-962 -17 c4 -2 7 -24 7 -49 0 -28 5 -47 13 -50 8
-3 49 13 93 34 46 23 101 43 132 46 l53 7 -5 -75 c-2 -41 -7 -80 -10 -85 -7
-11 -43 -7 -156 16 -135 28 -125 29 -136 -9 -9 -31 -12 -33 -62 -36 -28 -2
-76 2 -104 7 -29 6 -75 16 -103 21 -64 13 -77 27 -45 48 13 10 48 37 78 61 84
68 117 82 182 75 30 -4 58 -8 63 -11z m1120 10 c-13 -2 -35 -2 -50 0 -16 2 -5
4 22 4 28 0 40 -2 28 -4z m-673 -22 c0 -6 -12 -46 -26 -90 -26 -80 -26 -81
-60 -81 -33 0 -34 1 -34 43 0 39 15 97 32 123 9 13 88 17 88 5z m110 -26 c0
-37 -18 -85 -32 -85 -4 0 -8 -15 -8 -34 0 -39 -10 -49 -35 -40 -18 7 -18 18 1
152 6 40 8 42 40 42 32 0 34 -2 34 -35z m133 -25 c-1 -30 -5 -74 -8 -97 l-6
-43 -45 0 -44 0 0 46 c0 49 17 120 33 142 6 7 24 12 41 10 31 -3 31 -3 29 -58z
m692 -65 c0 -114 -1 -120 -20 -118 -11 1 -96 5 -189 9 l-169 6 7 89 c4 49 9
96 12 103 4 11 30 14 107 14 56 0 129 4 162 9 96 16 90 24 90 -112z m-542 101
c6 -16 -7 -168 -16 -183 -3 -5 -27 -7 -54 -4 -36 5 -49 10 -51 25 -4 17 24
151 35 169 8 13 81 8 86 -7z m141 -26 c-7 -131 -10 -156 -19 -162 -5 -4 -29
-8 -52 -8 -42 0 -43 1 -43 34 0 18 7 47 15 62 8 16 18 46 21 67 6 37 8 38 43
35 31 -3 36 -6 35 -28z m532 -95 c-9 -13 -28 -46 -42 -72 -39 -71 -44 -73 -44
-16 0 28 -3 65 -6 82 l-6 31 57 0 57 0 -16 -25z m-1397 -45 c10 -5 50 -11 90
-12 76 -3 90 -14 76 -58 -5 -17 -15 -20 -73 -20 -37 -1 -85 -7 -107 -15 -67
-24 -75 -21 -75 29 0 25 4 47 10 51 5 3 7 12 3 20 -4 11 3 15 27 15 17 0 39
-4 49 -10z m-386 -35 c37 -8 34 -20 -10 -38 -21 -8 -49 -27 -62 -41 -14 -14
-28 -26 -33 -26 -7 0 -9 117 -1 132 2 3 20 0 41 -7 20 -8 49 -16 65 -20z m685
-11 c3 -19 -3 -23 -44 -29 -56 -8 -73 3 -57 38 10 21 16 23 55 18 34 -5 44
-10 46 -27z m92 11 c15 -18 5 -35 -20 -35 -10 0 -22 5 -25 10 -7 11 12 40 25
40 4 0 13 -7 20 -15z m168 -17 c-5 -13 -62 -23 -85 -14 -27 11 -2 26 43 26 31
0 44 -4 42 -12z m115 -5 c-13 -2 -33 -2 -45 0 -13 2 -3 4 22 4 25 0 35 -2 23
-4z"/>
</g>
</svg>
