<?xml version="1.0" standalone="no"?>
<!DOCTYPE svg PUBLIC "-//W3C//DTD SVG 20010904//EN"
 "http://www.w3.org/TR/2001/REC-SVG-20010904/DTD/svg10.dtd">
<svg version="1.0" xmlns="http://www.w3.org/2000/svg"
 width="136.000000pt" height="112.000000pt" viewBox="0 0 136.000000 112.000000"
 preserveAspectRatio="xMidYMid meet">
<metadata>
Created by potrace 1.16, written by Peter Selinger 2001-2019
</metadata>
<g transform="translate(0.000000,112.000000) scale(0.100000,-0.100000)"
fill="#000000" stroke="none">
<path d="M890 941 c-8 -5 -76 -11 -150 -13 -131 -3 -135 -4 -138 -25 -3 -17 2
-23 17 -23 35 0 71 -22 71 -44 1 -12 7 -32 15 -46 18 -31 19 -80 3 -81 -50 -6
-243 15 -318 34 -64 15 -104 40 -108 65 -3 19 -10 22 -57 22 l-54 0 -10 -52
c-5 -29 -15 -90 -21 -135 -10 -72 -9 -88 6 -118 17 -36 14 -68 -15 -179 -9
-37 -1 -86 15 -86 4 0 21 11 38 23 29 22 153 77 174 77 5 0 39 13 75 30 59 27
77 30 161 30 l94 0 -4 -57 c-3 -32 -9 -76 -14 -98 -14 -58 -12 -85 5 -85 8 0
19 17 25 43 6 23 15 53 19 67 4 14 8 47 10 75 1 27 7 53 14 57 19 12 124 19
297 21 139 2 165 4 165 17 0 11 -12 15 -50 16 -27 0 -88 2 -135 4 -47 2 -129
0 -184 -5 l-99 -8 6 44 c4 24 9 68 13 96 8 63 -5 59 237 68 170 7 266 22 257
40 -6 12 -101 12 -304 1 l-150 -9 36 50 c20 28 44 66 53 84 10 19 26 44 37 56
33 35 9 67 -32 44z m-40 -62 c0 -22 -65 -129 -78 -129 -7 0 -10 5 -7 10 4 6 0
21 -9 34 -8 13 -16 36 -18 52 -3 27 0 29 37 35 65 10 75 10 75 -2z m-576 -150
c26 -11 46 -24 44 -28 -6 -16 -119 -102 -127 -97 -9 6 19 146 29 146 4 0 29
-9 54 -21z m289 -59 c43 -5 97 -10 119 -10 40 0 40 0 34 -32 -4 -18 -9 -59
-13 -90 -3 -32 -11 -62 -17 -67 -14 -11 -390 21 -429 37 -46 19 -44 38 8 85
80 71 137 98 195 90 14 -1 60 -7 103 -13z m-313 -215 c23 -8 66 -15 96 -15 73
0 76 -16 7 -35 -32 -9 -82 -28 -112 -41 -29 -14 -56 -23 -59 -20 -4 4 19 126
24 126 1 0 21 -7 44 -15z"/>
</g>
</svg>
