<?xml version="1.0" standalone="no"?>
<!DOCTYPE svg PUBLIC "-//W3C//DTD SVG 20010904//EN"
 "http://www.w3.org/TR/2001/REC-SVG-20010904/DTD/svg10.dtd">
<svg version="1.0" xmlns="http://www.w3.org/2000/svg"
 width="144.000000pt" height="114.000000pt" viewBox="0 0 144.000000 114.000000"
 preserveAspectRatio="xMidYMid meet">
<metadata>
Created by potrace 1.16, written by Peter Selinger 2001-2019
</metadata>
<g transform="translate(0.000000,114.000000) scale(0.100000,-0.100000)"
fill="#000000" stroke="none">
<path d="M170 1125 c0 -8 4 -23 9 -33 5 -9 17 -39 26 -66 10 -26 29 -62 44
-80 15 -17 33 -44 41 -60 17 -33 37 -43 53 -27 9 9 8 19 -5 41 -9 16 -14 38
-11 50 4 13 -2 29 -15 43 -11 12 -23 33 -27 47 -4 14 -16 42 -26 63 -17 32
-24 37 -54 37 -25 0 -35 -5 -35 -15z"/>
<path d="M443 1061 c-24 -43 -43 -88 -43 -99 0 -12 -9 -38 -21 -58 -13 -24
-17 -40 -10 -47 15 -15 27 -2 77 91 26 48 57 101 69 117 12 17 27 40 34 53 11
21 10 22 -26 22 -37 0 -39 -2 -80 -79z"/>
<path d="M1031 963 c-79 -56 -95 -64 -100 -52 -2 6 2 16 8 22 17 17 13 47 -5
47 -9 0 -34 -16 -55 -35 -22 -20 -50 -35 -63 -35 -65 0 -75 -31 -16 -49 21 -6
42 -16 46 -22 8 -13 -66 -81 -119 -110 -37 -20 -42 -45 -6 -36 10 3 24 -2 31
-11 13 -16 69 -42 89 -42 8 0 10 19 5 68 -8 77 3 96 52 97 23 0 27 4 27 29 0
40 16 42 49 7 32 -33 30 -52 -6 -73 -55 -30 -98 -61 -98 -68 0 -5 13 -22 30
-38 16 -16 27 -31 25 -34 -7 -6 -325 1 -336 8 -5 3 16 34 47 70 35 40 54 69
50 79 -9 23 -96 19 -157 -7 -47 -21 -50 -24 -46 -53 3 -16 8 -40 12 -52 10
-31 -16 -30 -83 3 -34 17 -63 24 -89 22 -34 -3 -38 -6 -44 -38 -4 -19 -7 -75
-6 -125 2 -108 10 -113 91 -61 117 74 168 92 180 60 3 -9 6 -44 6 -79 0 -71 9
-84 35 -55 15 17 17 32 12 95 l-5 75 84 0 c95 0 99 -7 24 -45 -27 -14 -51 -28
-54 -33 -3 -5 12 -21 32 -37 21 -16 49 -43 62 -62 14 -18 43 -47 65 -63 22
-17 56 -54 75 -83 21 -31 51 -60 75 -72 21 -11 40 -26 43 -33 2 -7 12 -12 23
-12 14 0 19 7 19 30 0 65 46 138 157 252 60 60 108 117 108 126 0 13 -9 17
-34 17 -23 0 -37 6 -45 20 -16 29 -24 33 -79 40 -29 4 -47 11 -44 19 6 18 54
19 92 1 19 -10 42 -14 51 -11 14 5 13 10 -5 40 -30 48 -27 63 24 98 28 20 43
38 40 46 -16 42 -15 63 5 106 12 25 26 46 32 46 5 0 7 4 3 10 -8 13 -35 2 -70
-30 -32 -30 -67 -50 -85 -50 -15 0 -3 40 21 66 11 11 19 23 19 27 0 11 -38 8
-45 -2 -3 -6 -35 -30 -70 -55 -63 -44 -65 -45 -65 -21 0 16 11 32 30 47 31 22
40 48 17 48 -7 0 -36 -17 -66 -37z m-24 -85 c-3 -8 -6 -5 -6 6 -1 11 2 17 5
13 3 -3 4 -12 1 -19z m133 1 c0 -11 -4 -17 -10 -14 -5 3 -10 13 -10 21 0 8 5
14 10 14 6 0 10 -9 10 -21z m114 -10 c-3 -5 -10 -7 -15 -3 -5 3 -7 10 -3 15 3
5 10 7 15 3 5 -3 7 -10 3 -15z m-159 -41 l28 -42 -25 -20 c-13 -12 -41 -35
-62 -52 l-39 -30 39 -24 c35 -21 37 -25 17 -28 -22 -3 -82 50 -83 74 0 6 20
30 45 53 42 38 45 45 39 77 -9 46 7 43 41 -8z m154 -15 c6 -4 -74 -73 -111
-96 -16 -9 -32 -27 -37 -39 -4 -12 -10 -17 -14 -11 -11 17 22 85 43 90 21 6
50 55 50 85 0 18 2 18 33 -3 17 -12 34 -24 36 -26z m-655 -59 c14 -6 14 -9 -1
-35 -24 -40 -40 -43 -52 -9 -8 24 -7 31 7 40 20 11 26 12 46 4z m212 -52 c-10
-10 -29 15 -21 28 6 9 10 8 17 -4 6 -10 7 -20 4 -24z m-408 -91 c29 -10 55
-21 58 -24 3 -3 -14 -14 -39 -25 -24 -11 -48 -25 -51 -31 -4 -6 -13 -11 -20
-11 -10 0 -12 14 -10 53 4 61 3 57 7 57 1 -1 26 -9 55 -19z m748 -54 c4 -4 2
-17 -4 -30 -6 -12 -25 -56 -43 -97 -17 -41 -41 -97 -54 -125 -12 -27 -25 -60
-29 -72 -4 -13 -13 -23 -19 -23 -23 0 -57 31 -71 64 -14 34 -46 71 -85 96 -21
14 -21 18 -12 60 6 25 13 67 17 93 l5 49 144 -4 c79 -1 147 -6 151 -11z m-362
-64 c-9 -49 -8 -49 -39 -25 l-25 20 27 21 c39 29 45 26 37 -16z m445 10 c-30
-39 -83 -92 -87 -88 -2 2 6 27 19 54 20 45 26 51 52 51 27 0 28 -2 16 -17z"/>
</g>
</svg>
