<?xml version="1.0" standalone="no"?>
<!DOCTYPE svg PUBLIC "-//W3C//DTD SVG 20010904//EN"
 "http://www.w3.org/TR/2001/REC-SVG-20010904/DTD/svg10.dtd">
<svg version="1.0" xmlns="http://www.w3.org/2000/svg"
 width="192.000000pt" height="164.000000pt" viewBox="0 0 192.000000 164.000000"
 preserveAspectRatio="xMidYMid meet">
<metadata>
Created by potrace 1.16, written by Peter Selinger 2001-2019
</metadata>
<g transform="translate(0.000000,164.000000) scale(0.100000,-0.100000)"
fill="#000000" stroke="none">
<path d="M1200 1483 c-83 -27 -120 -47 -120 -64 0 -11 4 -19 9 -19 13 0 85
-109 78 -117 -9 -9 -63 16 -83 38 -38 42 -67 11 -87 -93 -22 -117 -8 -188 31
-160 30 22 103 54 109 48 11 -11 -30 -46 -61 -54 -20 -5 -32 -15 -34 -28 -2
-16 11 -22 92 -42 72 -18 99 -21 115 -13 31 17 41 13 41 -14 0 -29 -3 -28 74
-15 50 8 63 7 97 -11 30 -15 44 -17 59 -9 23 12 25 21 8 38 -9 9 -6 12 14 12
34 0 42 -23 22 -62 l-16 -30 -305 4 c-240 3 -306 7 -313 17 -5 10 -16 11 -36
6 -28 -8 -215 -7 -223 0 -4 5 49 135 63 154 6 7 20 17 33 22 16 6 23 17 23 34
0 31 -23 42 -55 25 -27 -14 -104 -9 -161 12 -26 9 -39 9 -52 1 -18 -12 -18
-11 -2 -127 15 -105 10 -110 -84 -91 -38 8 -79 12 -92 9 -16 -4 -24 0 -29 15
-15 49 -55 9 -96 -99 -25 -65 -35 -135 -21 -144 12 -7 83 18 209 72 51 22 95
36 98 32 3 -5 3 -19 0 -32 -10 -43 -16 -103 -22 -223 -4 -75 -11 -127 -19
-140 -32 -46 -3 -62 36 -20 16 17 24 38 25 70 1 24 7 50 13 57 6 7 15 42 22
78 11 62 49 180 70 221 9 16 22 19 96 19 59 0 85 -3 82 -11 -2 -7 -37 -35 -78
-63 -76 -52 -100 -86 -61 -86 11 0 21 -6 23 -14 2 -7 32 -36 68 -63 60 -46 86
-77 168 -208 12 -20 22 -43 22 -51 0 -8 4 -22 9 -32 5 -9 17 -39 26 -66 10
-26 29 -62 44 -80 15 -17 33 -44 41 -60 17 -33 37 -43 53 -27 9 9 8 19 -5 41
-9 16 -14 38 -11 50 4 13 -2 29 -14 43 -12 12 -26 38 -32 58 -6 20 -24 56 -40
81 -15 24 -31 57 -34 74 -3 16 -10 49 -15 74 -5 25 -17 66 -26 93 -9 26 -21
82 -26 125 -6 42 -11 86 -12 97 -3 18 2 20 52 18 30 -1 166 -3 303 -4 147 -1
247 -5 247 -11 0 -19 -86 -186 -145 -283 -86 -141 -185 -330 -185 -354 0 -11
-9 -37 -21 -57 -13 -24 -17 -40 -10 -47 15 -15 27 -2 77 91 26 48 64 112 84
142 21 30 63 96 95 145 32 50 87 121 122 158 35 37 91 101 124 141 33 41 87
93 120 116 85 60 78 79 -29 81 -64 0 -123 17 -130 37 -3 9 3 13 14 11 31 -5
44 10 44 52 0 54 15 49 35 -12 16 -47 37 -70 52 -55 4 3 -1 30 -10 60 -22 70
-22 72 14 85 38 13 33 35 -9 39 -29 3 -32 7 -32 35 0 18 9 46 20 62 25 37 25
42 1 50 -12 4 -18 12 -14 21 3 7 2 21 -1 30 -5 14 -9 15 -29 2 -17 -11 -111
-48 -122 -48 -1 0 -2 17 -1 38 1 34 -1 37 -26 34 -28 -3 -118 -39 -118 -48 0
-3 5 -14 10 -25 12 -21 -11 -79 -31 -79 -12 0 -7 130 6 167 5 16 3 24 -7 28
-16 6 -122 -38 -133 -54 -3 -5 4 -25 15 -44 20 -34 20 -35 1 -58 -23 -29 -26
-27 -43 34 -9 36 -9 57 -1 89 16 61 4 78 -47 61z m0 -111 c-1 -44 -2 -46 -16
-27 -22 30 -29 66 -13 75 22 14 29 1 29 -48z m160 18 c0 -11 -7 -20 -15 -20
-27 0 -18 30 13 39 1 1 2 -8 2 -19z m159 -57 c0 -25 -1 -25 -8 -8 -5 11 -7 23
-4 28 8 14 13 7 12 -20z m154 -10 c2 -5 1 -19 -3 -33 l-7 -25 -10 25 c-11 26
-8 40 7 40 5 0 11 -3 13 -7z m-176 -79 c15 -32 10 -44 -17 -37 -26 7 -29 13
-19 41 11 29 21 28 36 -4z m128 -5 c5 -22 3 -34 -6 -40 -38 -24 -61 6 -35 46
22 33 33 31 41 -6z m-517 -3 c15 -8 45 -17 65 -21 47 -9 43 -28 -9 -37 -21 -3
-52 -11 -67 -17 -50 -19 -59 -15 -52 27 12 70 16 73 63 48z m242 -65 c0 -5 -9
-19 -19 -32 -18 -22 -20 -22 -26 -6 -4 9 -2 24 5 32 14 16 40 20 40 6z m119
-10 c17 -11 7 -45 -12 -39 -13 5 -23 48 -10 48 4 0 14 -4 22 -9z m-219 -19 c0
-14 -31 -75 -48 -94 -17 -20 -21 -21 -41 -9 -12 8 -8 17 22 50 20 23 37 46 37
51 0 6 7 10 15 10 8 0 15 -4 15 -8z m310 -35 c0 -12 -8 -33 -17 -46 -16 -23
-17 -23 -24 -4 -12 32 1 73 22 73 13 0 19 -7 19 -23z m-130 -12 c9 -11 4 -22
-29 -57 -46 -49 -55 -35 -21 32 22 43 31 48 50 25z m-748 -10 c3 -3 -8 -39
-25 -80 -28 -71 -31 -75 -61 -75 l-31 0 0 80 -1 80 56 0 c31 0 59 -2 62 -5z
m598 -19 c0 -2 -7 -9 -15 -16 -13 -11 -14 -10 -9 4 5 14 24 23 24 12z m60 0
c0 -3 -4 -8 -10 -11 -5 -3 -10 -1 -10 4 0 6 5 11 10 11 6 0 10 -2 10 -4z m140
-13 c-1 -28 -14 -51 -26 -46 -17 6 -18 25 -2 41 13 13 28 16 28 5z m-1127
-143 c27 0 117 -23 117 -30 0 -6 -95 -42 -182 -70 -36 -11 -36 1 -2 77 23 52
27 56 38 41 7 -10 20 -18 29 -18z m1357 -2 c0 -6 -11 -23 -24 -37 -45 -48
-112 -126 -156 -181 -62 -77 -90 -106 -90 -96 0 11 78 162 108 208 13 20 34
38 45 40 17 2 22 10 23 33 1 17 2 33 3 38 2 12 91 8 91 -5z m-1123 -60 c-3
-18 -15 -53 -26 -78 l-21 -45 4 50 c5 60 21 105 37 105 8 0 10 -11 6 -32z
m268 -45 c4 -10 9 -52 12 -93 4 -46 13 -86 25 -105 37 -62 19 -65 -39 -7 -32
32 -75 70 -95 85 -21 15 -38 33 -38 40 0 7 20 25 44 40 24 15 50 34 56 42 16
20 26 19 35 -2z"/>
<path d="M1809 563 c-51 -59 -89 -125 -89 -156 0 -43 32 -32 44 16 5 20 31 63
58 94 26 31 48 63 48 70 0 24 -28 13 -61 -24z"/>
<path d="M1811 203 c-79 -56 -95 -64 -100 -52 -2 6 2 16 8 22 17 17 13 47 -5
47 -9 0 -34 -16 -55 -35 -22 -20 -50 -35 -63 -35 -65 0 -75 -31 -16 -49 21 -6
42 -17 46 -23 4 -6 -10 -25 -32 -44 l-39 -33 28 -1 c18 0 36 8 47 22 10 13 29
22 46 23 25 0 29 4 29 29 0 40 16 42 49 7 32 -33 30 -56 -6 -71 -20 -8 -19 -9
12 -9 20 0 45 8 58 19 19 16 22 25 16 55 -8 47 7 45 40 -6 23 -34 25 -43 14
-56 -10 -13 -9 -15 7 -12 25 5 33 70 14 106 -11 20 -11 26 0 32 7 5 11 16 9
25 -2 15 -9 13 -45 -13 l-43 -31 0 25 c0 16 11 32 30 47 31 22 40 48 17 48 -7
0 -36 -17 -66 -37z m-24 -85 c-3 -8 -6 -5 -6 6 -1 11 2 17 5 13 3 -3 4 -12 1
-19z"/>
<path d="M62 133 c-19 -26 -42 -93 -42 -120 0 -19 71 -16 148 6 37 11 79 22
95 25 19 5 27 13 27 28 0 19 -4 20 -45 15 -24 -4 -71 -18 -105 -31 -68 -28
-74 -22 -40 44 11 22 20 44 20 50 0 21 -39 9 -58 -17z"/>
<path d="M1315 20 l-40 -19 98 -1 c88 0 98 2 95 17 -5 27 -101 29 -153 3z"/>
</g>
</svg>
