<?xml version="1.0" standalone="no"?>
<!DOCTYPE svg PUBLIC "-//W3C//DTD SVG 20010904//EN"
 "http://www.w3.org/TR/2001/REC-SVG-20010904/DTD/svg10.dtd">
<svg version="1.0" xmlns="http://www.w3.org/2000/svg"
 width="308.000000pt" height="96.000000pt" viewBox="0 0 308.000000 96.000000"
 preserveAspectRatio="xMidYMid meet">
<metadata>
Created by potrace 1.16, written by Peter Selinger 2001-2019
</metadata>
<g transform="translate(0.000000,96.000000) scale(0.100000,-0.100000)"
fill="#000000" stroke="none">
<path d="M665 843 c-52 -10 -119 -12 -261 -7 -159 4 -192 3 -202 -9 -10 -11
-9 -17 4 -28 13 -10 68 -13 246 -14 224 0 229 0 224 -20 -18 -67 -113 -330
-147 -403 -31 -67 -34 -98 -12 -104 31 -8 43 2 43 36 0 18 4 36 8 42 5 5 19
36 31 69 13 33 27 69 31 80 5 11 18 52 30 90 31 97 60 164 87 202 27 37 30 68
7 77 -9 3 -16 5 -17 5 -1 -1 -33 -8 -72 -16z"/>
<path d="M1353 842 c-33 -5 -47 -26 -27 -43 12 -10 71 -13 255 -13 131 0 239
-3 239 -6 0 -3 -13 -45 -29 -95 -70 -217 -149 -382 -184 -389 -12 -3 -71 -7
-132 -10 -60 -4 -125 -9 -142 -12 -26 -5 -34 -2 -39 11 -4 10 -2 25 4 34 17
24 109 213 117 239 8 29 52 121 67 143 12 18 5 49 -11 49 -17 0 -56 -62 -80
-125 -12 -33 -58 -134 -102 -224 -44 -90 -78 -169 -75 -176 4 -10 24 -12 83
-9 43 3 87 7 98 10 11 3 70 7 130 10 112 5 155 19 155 50 0 8 22 61 48 117 27
56 55 120 62 142 7 22 16 45 20 50 4 6 15 37 25 70 10 33 27 80 37 105 34 76
37 75 -248 75 -137 0 -259 -1 -271 -3z"/>
<path d="M2645 810 c-121 -3 -228 -10 -238 -14 -10 -5 -17 -16 -15 -25 3 -14
23 -16 168 -13 91 1 210 5 264 8 94 6 99 5 93 -12 -33 -99 -130 -397 -139
-427 -6 -20 -17 -42 -25 -48 -22 -19 -404 -28 -466 -11 l-28 7 23 31 c32 43
160 185 236 263 59 59 73 89 46 98 -6 2 -36 -22 -66 -54 -105 -110 -201 -218
-240 -270 -22 -29 -43 -53 -47 -53 -13 0 -40 -56 -33 -67 9 -15 102 -18 422
-13 63 0 136 -2 163 -5 l47 -7 0 37 c0 20 7 50 16 67 9 18 32 84 50 147 53
182 95 293 122 320 7 7 12 21 10 30 -4 19 -42 21 -363 11z"/>
<path d="M300 648 c-11 -18 -27 -55 -36 -83 -9 -27 -39 -97 -65 -153 -27 -57
-49 -108 -49 -113 0 -6 -8 -26 -19 -47 -29 -59 -34 -100 -12 -111 13 -8 461
-9 549 -2 6 1 12 12 12 26 l0 25 -252 2 -253 3 2 29 c1 16 11 48 23 72 11 24
20 46 20 49 0 3 17 42 38 88 56 119 95 225 87 237 -11 18 -25 11 -45 -22z"/>
<path d="M2495 481 c-3 -5 -1 -12 5 -16 5 -3 10 1 10 9 0 18 -6 21 -15 7z"/>
<path d="M1884 163 c-9 -21 -22 -49 -30 -63 -8 -16 -9 -31 -4 -40 12 -19 35 1
56 49 9 20 19 43 23 51 4 8 6 21 4 28 -9 24 -34 11 -49 -25z"/>
<path d="M872 137 c-12 -29 -22 -57 -22 -62 0 -6 -9 -21 -20 -35 -25 -31 -25
-40 -2 -40 20 0 52 29 52 48 0 6 9 27 20 47 23 41 27 95 7 95 -7 0 -23 -24
-35 -53z"/>
<path d="M3048 47 c-23 -35 -25 -43 -12 -45 25 -6 46 22 42 57 l-3 31 -27 -43z"/>
</g>
</svg>
