<?xml version="1.0" standalone="no"?>
<!DOCTYPE svg PUBLIC "-//W3C//DTD SVG 20010904//EN"
 "http://www.w3.org/TR/2001/REC-SVG-20010904/DTD/svg10.dtd">
<svg version="1.0" xmlns="http://www.w3.org/2000/svg"
 width="176.000000pt" height="84.000000pt" viewBox="0 0 176.000000 84.000000"
 preserveAspectRatio="xMidYMid meet">
<metadata>
Created by potrace 1.16, written by Peter Selinger 2001-2019
</metadata>
<g transform="translate(0.000000,84.000000) scale(0.100000,-0.100000)"
fill="#000000" stroke="none">
<path d="M488 639 c-13 -27 -16 -67 -15 -192 2 -130 -1 -160 -13 -167 -8 -6
-22 -7 -30 -4 -8 3 -51 7 -95 9 -52 2 -96 10 -127 24 -62 26 -73 16 -82 -82
-11 -123 5 -133 101 -63 67 49 114 66 184 66 54 0 62 -10 48 -66 -12 -56 -11
-74 6 -74 18 0 30 27 39 92 7 45 9 48 48 58 58 16 70 8 66 -42 -2 -37 0 -43
16 -43 15 0 22 11 30 45 l11 45 165 6 c173 7 394 24 445 34 33 7 85 -24 85
-51 0 -8 15 -31 33 -50 17 -19 38 -41 45 -49 7 -8 17 -15 22 -15 15 0 28 61
34 154 5 78 9 93 31 116 14 14 25 29 25 33 0 13 63 99 112 153 62 67 55 78
-42 68 -68 -7 -478 -17 -710 -18 -96 0 -153 5 -197 17 -35 9 -98 19 -141 23
l-78 7 -16 -34z m136 -30 c10 -9 -51 -49 -76 -49 -21 0 -25 39 -7 57 12 12 67
7 83 -8z m780 -12 c53 -8 82 -17 89 -29 8 -12 5 -42 -11 -110 -11 -51 -24
-128 -28 -170 -4 -43 -10 -78 -15 -78 -22 0 -40 66 -56 198 -3 31 -11 56 -19
59 -7 3 -39 -17 -71 -44 -32 -27 -83 -66 -114 -86 l-56 -36 -212 -11 c-117 -6
-217 -7 -223 -4 -16 10 1 75 29 114 15 19 39 48 55 64 16 16 27 34 25 40 -4
13 -122 14 -180 1 -49 -10 -47 4 6 35 70 42 103 50 175 44 37 -3 69 -7 72 -9
6 -3 378 23 400 29 25 6 52 5 134 -7z m226 8 c0 -4 -64 -104 -83 -130 -4 -5
-6 19 -5 55 3 59 5 65 28 71 31 9 60 11 60 4z m-905 -135 c-3 -5 -10 -10 -16
-10 -5 0 -9 5 -9 10 0 6 7 10 16 10 8 0 12 -4 9 -10z m-145 -20 c0 -5 -13 -24
-30 -42 l-29 -33 -1 43 c0 40 1 42 30 42 17 0 30 -4 30 -10z m64 -77 c-8 -96
-6 -93 -69 -93 -30 0 -55 3 -55 6 0 22 103 154 121 154 6 0 7 -27 3 -67z m690
-10 c9 -24 -14 -39 -71 -47 -42 -5 -73 1 -48 10 6 2 28 15 50 29 48 29 61 31
69 8z m-1081 -111 c16 -7 14 -10 -12 -30 -39 -29 -61 -28 -61 1 0 13 3 27 7
30 8 9 42 8 66 -1z"/>
<path d="M1734 333 c-10 -34 -18 -94 -18 -145 -1 -75 2 -90 19 -107 l20 -20 2
164 c1 91 0 165 -3 165 -2 0 -11 -26 -20 -57z"/>
<path d="M0 320 c0 -25 4 -39 10 -35 6 3 10 19 10 35 0 16 -4 32 -10 35 -6 4
-10 -10 -10 -35z"/>
</g>
</svg>
