<?xml version="1.0" standalone="no"?>
<!DOCTYPE svg PUBLIC "-//W3C//DTD SVG 20010904//EN"
 "http://www.w3.org/TR/2001/REC-SVG-20010904/DTD/svg10.dtd">
<svg version="1.0" xmlns="http://www.w3.org/2000/svg"
 width="168.000000pt" height="108.000000pt" viewBox="0 0 168.000000 108.000000"
 preserveAspectRatio="xMidYMid meet">
<metadata>
Created by potrace 1.16, written by Peter Selinger 2001-2019
</metadata>
<g transform="translate(0.000000,108.000000) scale(0.100000,-0.100000)"
fill="#000000" stroke="none">
<path d="M348 1073 c7 -3 16 -2 19 1 4 3 -2 6 -13 5 -11 0 -14 -3 -6 -6z"/>
<path d="M1125 912 c-44 -5 -48 -15 -31 -66 21 -62 20 -105 -4 -168 -15 -39
-17 -55 -8 -65 8 -10 8 -32 -1 -83 -15 -80 11 -73 -211 -57 -80 5 -161 9 -180
9 -68 -3 -69 10 -4 88 80 98 80 98 69 108 -6 6 -57 6 -120 2 -66 -5 -120 -4
-138 2 -15 6 -39 8 -53 5 -29 -5 -39 6 -20 22 10 8 64 9 187 5 l173 -7 98
-100 c87 -89 118 -109 118 -74 0 7 -9 23 -20 37 -29 38 -26 109 10 205 30 81
37 120 22 129 -5 3 -32 -15 -61 -38 -29 -24 -65 -50 -80 -57 -14 -8 -38 -22
-53 -33 -24 -17 -40 -18 -166 -14 -110 4 -146 9 -170 23 -25 15 -34 16 -46 6
-12 -10 -27 -9 -78 4 -35 9 -69 22 -77 30 -12 12 -18 12 -42 -2 -15 -9 -32
-26 -37 -37 -10 -23 -16 -191 -8 -205 10 -15 78 10 126 46 l45 34 7 -32 c3
-18 18 -41 32 -52 19 -14 26 -28 26 -53 0 -32 -1 -33 -32 -27 -18 3 -42 12
-53 19 -11 7 -38 16 -60 20 -22 3 -48 11 -58 16 -11 5 -29 7 -41 4 -19 -5 -27
-20 -44 -84 -27 -96 -30 -182 -7 -182 9 0 39 17 68 39 29 21 72 45 97 54 25 8
61 22 82 31 33 14 37 14 49 0 11 -13 11 -21 -2 -43 -17 -29 -15 -51 5 -51 21
0 43 32 50 73 6 33 10 37 36 37 22 0 30 -5 30 -17 0 -10 4 -25 9 -32 8 -12 13
-8 28 17 l18 32 160 -4 c88 -3 161 -5 162 -5 1 -1 3 -73 5 -160 1 -88 6 -162
10 -166 15 -15 46 8 100 74 78 96 116 113 266 118 158 5 182 10 182 32 0 12
-11 23 -29 29 -27 10 -29 15 -33 69 -4 50 2 117 18 200 6 32 89 152 136 196
22 21 38 43 35 50 -5 15 -177 26 -224 14 -23 -6 -39 -4 -56 8 -29 18 -152 35
-212 27z m85 -67 c0 -14 -31 -65 -39 -65 -11 0 -21 25 -21 51 0 14 7 19 30 19
17 0 30 -2 30 -5z m160 -39 c0 -7 -12 -23 -26 -37 l-26 -24 7 35 c4 19 9 38
11 42 7 11 34 -2 34 -16z m140 -7 c-12 -22 -30 -25 -30 -6 0 17 21 38 32 31 4
-3 3 -14 -2 -25z m-234 -36 c-4 -32 -14 -78 -22 -103 -20 -58 -44 -193 -44
-246 0 -46 -9 -53 -55 -44 l-30 5 1 70 c1 39 6 104 12 146 9 68 15 84 63 152
66 95 84 100 75 20z m150 -20 c-4 -32 -14 -69 -24 -83 -13 -20 -17 -51 -18
-160 l-1 -135 -47 -3 c-71 -5 -80 7 -73 100 6 92 40 173 114 273 26 36 50 65
52 65 2 0 1 -26 -3 -57z m-497 -9 c-12 -62 -17 -69 -40 -48 -25 23 -24 52 4
75 37 31 45 24 36 -27z m-580 0 c10 -9 -26 -34 -57 -40 -29 -6 -32 -4 -32 18
0 14 3 28 7 32 7 7 73 -1 82 -10z m135 -110 c17 -6 22 -29 8 -37 -4 -3 -21 6
-37 19 -28 22 -28 24 -8 24 12 0 28 -3 37 -6z m112 -55 c-11 -67 -26 -89 -60
-89 -58 0 -62 13 -21 66 64 83 92 91 81 23z m-308 -94 c13 -4 21 -12 19 -18
-4 -13 -115 -63 -122 -55 -9 8 14 62 32 76 10 6 24 10 32 8 9 -2 26 -7 39 -11z
m767 -66 c11 -16 -1 -22 -30 -15 -14 4 -23 11 -20 16 8 13 42 13 50 -1z m11
-99 l27 -11 -49 -50 c-41 -42 -50 -47 -55 -32 -6 16 -3 59 7 91 4 15 33 16 70
2z"/>
<path d="M1588 579 c-41 -24 -8 -59 56 -59 33 0 36 2 36 30 0 22 -5 30 -17 30
-10 0 -27 2 -38 5 -11 3 -28 0 -37 -6z"/>
</g>
</svg>
