<?xml version="1.0" standalone="no"?>
<!DOCTYPE svg PUBLIC "-//W3C//DTD SVG 20010904//EN"
 "http://www.w3.org/TR/2001/REC-SVG-20010904/DTD/svg10.dtd">
<svg version="1.0" xmlns="http://www.w3.org/2000/svg"
 width="164.000000pt" height="90.000000pt" viewBox="0 0 164.000000 90.000000"
 preserveAspectRatio="xMidYMid meet">
<metadata>
Created by potrace 1.16, written by Peter Selinger 2001-2019
</metadata>
<g transform="translate(0.000000,90.000000) scale(0.100000,-0.100000)"
fill="#000000" stroke="none">
<path d="M1080 885 c16 -19 30 -19 66 0 l29 15 -54 0 c-46 0 -52 -2 -41 -15z"/>
<path d="M500 694 c-85 -76 -85 -76 -131 -71 -26 3 -51 1 -56 -4 -15 -15 -3
-58 18 -64 13 -5 19 -16 19 -38 0 -18 3 -48 5 -67 10 -61 0 -65 -109 -45 -53
9 -98 21 -102 26 -3 5 -16 9 -28 9 -21 0 -24 -6 -30 -61 -11 -110 -8 -157 12
-168 19 -10 51 2 65 26 16 27 129 93 159 93 22 0 28 -4 28 -23 0 -14 -9 -26
-22 -32 -20 -9 -23 -17 -22 -67 3 -114 65 -163 118 -93 26 34 90 82 118 87 7
2 13 -7 14 -18 4 -56 50 -49 56 8 3 29 8 34 38 40 19 3 87 20 150 38 63 17
131 35 150 39 19 5 56 17 82 27 l47 18 45 -40 c92 -79 124 -104 132 -104 5 0
29 -18 53 -40 50 -46 61 -48 87 -19 17 19 19 35 16 179 -3 144 -2 161 17 198
35 69 70 115 102 134 19 11 29 25 27 36 -3 14 -21 18 -118 24 -133 8 -145 4
-136 -53 5 -34 3 -38 -37 -64 -23 -16 -70 -50 -104 -77 -94 -73 -102 -75 -170
-47 -32 12 -71 31 -88 41 -16 10 -41 18 -54 18 -13 0 -63 19 -112 43 -91 44
-109 64 -109 124 0 31 -17 63 -33 63 -7 0 -50 -34 -97 -76z m78 -32 c2 -7 -6
-12 -17 -12 -21 0 -27 11 -14 24 9 9 26 2 31 -12z m862 -9 c0 -5 -7 -16 -15
-26 -13 -18 -14 -18 -24 2 -15 28 -14 31 14 31 14 0 25 -3 25 -7z m-870 -53
c5 0 20 -12 34 -26 17 -19 31 -25 45 -21 13 3 42 -6 73 -23 29 -15 69 -31 89
-34 52 -9 214 -83 217 -99 2 -8 -7 -17 -20 -20 -13 -2 -70 -19 -128 -36 -101
-30 -231 -61 -257 -61 -33 0 9 101 68 165 53 57 45 69 -43 63 -44 -3 -70 -1
-85 9 -19 13 -23 12 -42 -8 -24 -26 -27 -47 -7 -55 15 -6 31 -64 39 -142 6
-49 -1 -55 -80 -70 -69 -12 -78 -6 -68 54 4 27 7 68 6 91 -1 23 3 53 9 68 16
42 113 156 128 150 8 -3 18 -5 22 -5z m780 -73 c0 -26 -5 -56 -12 -67 -9 -14
-9 -24 -1 -42 6 -13 14 -67 18 -121 6 -98 6 -98 -15 -85 -11 7 -48 38 -82 69
l-61 56 37 76 c20 41 36 88 36 104 0 33 7 43 40 66 31 21 40 9 40 -56z m-140
-46 c0 -22 -42 -101 -54 -101 -7 0 -21 9 -32 21 -19 21 -19 21 21 55 39 33 65
43 65 25z m-601 -48 c-10 -11 -14 -11 -20 -1 -10 17 -2 28 17 21 11 -4 12 -8
3 -20z m-389 -82 c0 -5 -16 -18 -35 -30 -36 -21 -51 -15 -40 19 5 15 15 20 41
20 19 0 34 -4 34 -9z m178 -170 c10 -6 10 -10 -2 -20 -17 -14 -36 -7 -36 15 0
15 18 18 38 5z"/>
<path d="M150 695 c-7 -9 -10 -18 -7 -22 8 -7 37 15 37 28 0 14 -16 11 -30 -6z"/>
<path d="M0 293 c1 -34 2 -36 14 -20 8 10 12 27 9 37 -9 33 -23 22 -23 -17z"/>
<path d="M1633 255 c0 -44 2 -61 4 -37 2 23 2 59 0 80 -2 20 -4 1 -4 -43z"/>
</g>
</svg>
