<?xml version="1.0" standalone="no"?>
<!DOCTYPE svg PUBLIC "-//W3C//DTD SVG 20010904//EN"
 "http://www.w3.org/TR/2001/REC-SVG-20010904/DTD/svg10.dtd">
<svg version="1.0" xmlns="http://www.w3.org/2000/svg"
 width="156.000000pt" height="112.000000pt" viewBox="0 0 156.000000 112.000000"
 preserveAspectRatio="xMidYMid meet">
<metadata>
Created by potrace 1.16, written by Peter Selinger 2001-2019
</metadata>
<g transform="translate(0.000000,112.000000) scale(0.100000,-0.100000)"
fill="#000000" stroke="none">
<path d="M282 1095 c-17 -36 -15 -45 7 -45 11 0 28 15 40 35 l20 35 -28 0
c-20 0 -31 -7 -39 -25z"/>
<path d="M1500 1111 c0 -10 24 -21 46 -21 8 0 14 7 14 15 0 10 -10 15 -30 15
-16 0 -30 -4 -30 -9z"/>
<path d="M934 925 c-4 -9 -2 -20 4 -24 6 -4 18 -23 27 -44 27 -66 14 -117 -23
-84 -14 13 -29 14 -87 7 -92 -12 -220 -12 -270 0 -22 5 -91 15 -154 21 -63 6
-132 17 -153 26 -45 18 -87 6 -89 -24 -1 -10 -2 -46 -4 -81 -1 -35 -7 -68 -14
-75 -14 -14 -14 -54 -1 -62 6 -4 19 -1 29 7 82 60 173 117 211 132 38 15 62
17 160 11 121 -8 160 -17 122 -29 -30 -10 -27 -28 8 -54 36 -27 51 -27 81 -4
26 22 20 52 -11 52 -11 0 -20 5 -20 10 0 17 41 28 120 31 l75 4 -2 -37 c-1
-21 2 -38 7 -38 6 0 10 -27 10 -61 0 -44 -3 -59 -12 -56 -7 2 -12 16 -10 31 4
33 1 33 -26 -3 -25 -34 -20 -58 15 -72 18 -6 23 -15 21 -32 -2 -18 -11 -23
-51 -27 -66 -8 -81 9 -66 76 18 81 17 99 -5 96 -10 -2 -27 -12 -38 -22 -11
-10 -34 -24 -52 -31 -41 -17 -117 -67 -137 -91 -11 -14 -25 -19 -54 -16 -21 2
-40 8 -42 14 -2 6 21 36 51 67 31 31 53 62 51 69 -6 15 -163 12 -180 -3 -6 -6
-4 -21 4 -42 23 -55 25 -86 7 -93 -28 -11 -103 6 -142 32 -56 39 -78 24 -98
-65 -20 -86 -24 -187 -8 -203 8 -8 25 -1 64 29 29 21 73 50 98 64 25 13 56 32
69 41 33 25 41 15 41 -48 0 -73 22 -68 33 6 11 78 13 80 131 76 81 -3 111 -8
146 -26 56 -29 90 -63 90 -93 0 -12 5 -28 12 -35 7 -7 11 -39 10 -77 0 -47 3
-68 13 -71 8 -3 47 28 93 74 105 105 148 122 306 122 126 0 176 12 176 41 0
17 -8 19 -67 19 -38 0 -73 4 -79 8 -7 4 -13 61 -16 150 -5 136 -4 144 19 190
13 26 47 68 75 94 30 28 48 53 45 61 -3 8 -27 17 -59 20 -29 4 -118 16 -198
27 -243 35 -249 35 -256 15z m142 -56 c3 -6 -3 -20 -14 -31 l-20 -20 -11 21
c-7 12 -9 26 -6 31 8 13 42 13 51 -1z m145 -37 c-11 -16 -27 -35 -36 -42 -13
-11 -15 -7 -15 29 0 40 1 41 36 41 l35 0 -20 -28z m138 9 c11 -7 9 -15 -10
-40 -26 -35 -42 -36 -47 -2 -6 39 25 62 57 42z m-233 -38 c-10 -53 -28 -352
-23 -379 8 -43 -1 -54 -36 -47 -62 11 -69 20 -63 71 3 26 8 90 11 142 8 128
13 148 48 198 36 50 72 58 63 15z m125 -108 c-8 -42 -8 -79 -2 -107 5 -24 12
-83 16 -131 l7 -88 -59 3 -58 3 1 70 c2 170 26 281 72 330 l27 30 3 -24 c2
-13 -1 -52 -7 -86z m-907 55 c8 -8 -82 -60 -104 -60 -13 0 -13 23 2 54 10 23
15 25 52 20 23 -4 45 -10 50 -14z m169 -177 c9 -9 -13 -34 -24 -27 -14 8 -11
34 4 34 8 0 17 -3 20 -7z m263 -49 c-3 -9 -6 -29 -6 -45 0 -17 -5 -29 -12 -29
-14 1 -75 47 -68 52 58 37 95 47 86 22z m-106 -53 c0 -11 -31 -24 -39 -16 -3
3 1 10 9 15 19 12 30 12 30 1z m-373 -26 c19 -8 56 -15 80 -15 27 0 43 -4 41
-11 -2 -5 -45 -32 -96 -59 -87 -47 -92 -48 -92 -28 0 24 23 128 28 128 1 0 19
-7 39 -15z m601 -67 c4 -34 -16 -37 -41 -8 -21 25 -13 42 16 38 16 -2 23 -11
25 -30z m160 -72 c2 -9 -1 -16 -6 -16 -5 0 -30 -16 -56 -36 -48 -38 -53 -39
-56 -14 -5 34 1 60 13 60 8 0 24 9 36 19 26 22 64 15 69 -13z"/>
<path d="M854 668 c9 -44 22 -56 42 -36 15 15 15 18 -2 42 -28 37 -48 34 -40
-6z"/>
</g>
</svg>
