<?xml version="1.0" standalone="no"?>
<!DOCTYPE svg PUBLIC "-//W3C//DTD SVG 20010904//EN"
 "http://www.w3.org/TR/2001/REC-SVG-20010904/DTD/svg10.dtd">
<svg version="1.0" xmlns="http://www.w3.org/2000/svg"
 width="202.000000pt" height="108.000000pt" viewBox="0 0 202.000000 108.000000"
 preserveAspectRatio="xMidYMid meet">
<metadata>
Created by potrace 1.16, written by Peter Selinger 2001-2019
</metadata>
<g transform="translate(0.000000,108.000000) scale(0.100000,-0.100000)"
fill="#000000" stroke="none">
<path d="M911 997 c-6 -6 -11 -32 -11 -58 0 -26 -4 -59 -10 -73 -9 -25 -12
-26 -104 -26 -114 0 -240 16 -279 36 -57 30 -81 -2 -93 -123 -6 -57 -5 -68 11
-79 13 -10 19 -31 23 -82 2 -38 0 -72 -5 -75 -15 -9 -94 -9 -139 1 -23 5 -58
19 -79 32 -32 20 -38 21 -51 8 -13 -13 -33 -109 -34 -159 0 -9 9 -27 20 -40
l20 -24 34 37 c35 39 111 78 151 78 13 0 27 5 30 10 3 6 13 10 20 10 12 0 14
-16 9 -87 -5 -92 2 -120 30 -110 12 5 16 21 17 64 2 99 9 118 47 121 32 3 32
3 34 -45 1 -26 3 -59 4 -73 1 -14 3 -31 3 -38 1 -8 9 -12 19 -10 14 3 18 17
22 83 l5 80 110 0 110 -1 -2 -24 c-1 -14 -5 -37 -8 -52 -6 -22 -4 -28 8 -28 9
0 21 -8 26 -18 9 -15 12 -15 21 -2 6 8 8 25 5 36 -3 12 2 38 10 58 14 33 19
36 56 36 39 0 40 -1 35 -27 -2 -16 -8 -50 -11 -78 -4 -27 -11 -55 -17 -62 -11
-13 -69 -6 -79 9 -4 6 -15 5 -26 -3 -18 -10 -25 -9 -49 10 -23 18 -30 19 -41
9 -10 -11 -11 -37 -3 -128 6 -63 13 -123 16 -132 9 -29 41 -21 63 16 21 34
102 106 118 106 5 0 20 11 32 24 20 21 29 23 97 21 41 -2 81 -8 89 -15 10 -8
19 -8 34 -1 11 6 58 11 105 11 46 0 91 3 100 6 19 7 22 44 4 45 -7 0 -44 1
-83 2 l-70 2 2 30 c14 182 19 196 62 194 14 0 70 3 124 7 110 8 120 3 150 -69
17 -40 83 -117 101 -117 6 0 17 -14 23 -31 22 -56 38 -30 43 72 4 54 13 109
22 129 83 180 119 244 154 274 20 18 34 37 31 43 -12 20 -116 28 -424 33 -101
1 -183 7 -183 12 0 24 41 85 65 96 31 14 31 49 0 44 -11 -2 -53 -3 -92 -3 -52
1 -73 -3 -74 -11 -4 -71 -19 -138 -30 -138 -12 0 -11 16 2 64 8 28 8 41 -1 50
-15 15 -28 -7 -36 -62 -3 -23 -10 -45 -14 -47 -18 -11 -20 17 -5 76 11 40 13
65 7 71 -14 14 -35 -26 -47 -92 -7 -38 -15 -55 -25 -55 -16 0 -17 13 -6 92 7
49 7 52 -16 57 -53 11 -167 13 -177 3z m63 -104 c-10 -25 -25 -48 -33 -51 -22
-7 -8 88 15 105 31 23 40 -2 18 -54z m90 15 c-8 -62 -11 -68 -33 -68 -29 0
-34 15 -15 52 36 71 57 78 48 16z m280 10 c-16 -52 -24 -68 -35 -68 -8 0 -9
11 -5 31 3 17 6 38 6 45 0 8 9 14 21 14 17 0 19 -4 13 -22z m-801 -108 c28 0
20 -17 -14 -29 -45 -16 -59 -14 -59 7 0 26 11 34 35 28 11 -3 28 -6 38 -6z
m339 -90 c-2 -41 -8 -93 -13 -115 -6 -22 -14 -53 -18 -70 l-7 -30 -117 -3
c-85 -2 -117 1 -117 9 0 11 32 49 89 105 35 35 22 55 -32 48 -50 -7 -71 9 -41
31 17 12 17 15 4 29 -12 12 -24 13 -55 6 -22 -5 -41 -7 -44 -4 -8 8 34 33 56
34 12 0 34 5 50 12 26 11 166 26 223 24 25 -1 25 -2 22 -76z m158 63 c0 -21
-38 -230 -46 -255 -5 -18 -80 -36 -95 -21 -15 15 35 220 67 271 18 28 74 32
74 5z m74 -14 c-1 -23 -28 -187 -39 -236 -3 -15 -13 -23 -25 -23 -22 0 -25 20
-11 66 5 16 14 63 21 104 6 41 16 85 21 98 12 30 34 23 33 -9z m605 24 c23 -6
23 -8 17 -72 -8 -78 -25 -305 -26 -340 0 -23 -2 -23 -34 14 -47 53 -62 156
-35 242 6 18 8 42 4 53 -8 25 -41 26 -54 2 -8 -16 -116 -84 -218 -139 -23 -13
-54 -23 -69 -23 -26 0 -26 1 -22 53 5 59 47 198 62 209 13 9 342 10 375 1z
m-539 -5 c0 -2 -9 -64 -20 -138 -11 -74 -20 -136 -20 -137 0 -2 -7 -3 -16 -3
-14 0 -15 7 -10 43 4 23 13 85 21 137 8 52 14 96 14 98 1 1 8 2 16 2 8 0 15
-1 15 -2z m36 -58 c-5 -27 -13 -50 -17 -50 -4 0 -6 10 -3 23 2 12 7 37 10 54
3 18 9 31 13 28 4 -2 3 -27 -3 -55z m650 50 c19 0 18 -24 -1 -40 -8 -7 -25
-33 -38 -58 -43 -89 -51 -102 -59 -102 -9 0 -2 61 13 120 5 19 9 48 9 64 0 27
2 28 31 22 17 -3 38 -6 45 -6z m-1346 -100 c13 -8 13 -11 -2 -27 -21 -20 -45
-5 -35 21 7 18 16 20 37 6z m680 -77 c0 -49 -13 -83 -26 -70 -7 6 15 117 23
117 1 0 3 -21 3 -47z m-577 27 c21 0 23 -23 3 -39 -10 -8 -16 -9 -21 -1 -9 14
-35 13 -35 -2 0 -7 -5 -30 -11 -50 -8 -31 -15 -38 -34 -38 -22 0 -25 5 -25 33
0 53 48 111 85 102 11 -3 28 -5 38 -5z m626 -22 c0 -18 -4 -42 -9 -53 -6 -15
-9 -6 -9 33 -1 28 4 52 9 52 6 0 10 -15 9 -32z m341 -1 c0 -44 -21 -58 -80
-55 l-54 3 60 37 c32 21 62 37 67 38 4 0 7 -10 7 -23z m-1346 -123 c23 -9 20
-19 -9 -32 -35 -16 -35 -16 -35 13 0 25 13 31 44 19z m888 -65 c-5 -114 -12
-139 -34 -139 -21 0 -22 12 -4 156 8 68 42 53 38 -17z m50 -44 c-4 -55 -11
-88 -17 -85 -5 3 -9 14 -8 25 0 11 2 47 4 80 2 69 8 90 20 78 5 -5 6 -49 1
-98z m51 85 c-3 -12 -8 -19 -11 -16 -5 6 5 36 12 36 2 0 2 -9 -1 -20z m-170 3
c6 -11 -21 -165 -31 -175 -5 -5 -16 -6 -25 -2 -19 7 -24 86 -8 126 5 13 12 31
15 41 5 17 41 24 49 10z m164 -95 c-3 -7 -5 -2 -5 12 0 14 2 19 5 13 2 -7 2
-19 0 -25z m-397 -148 c0 -10 7 -26 16 -35 16 -15 15 -18 -9 -43 -15 -14 -30
-23 -33 -19 -11 10 -12 89 -2 110 11 21 28 13 28 -13z m110 7 c0 -11 -39 -37
-55 -37 -3 0 -5 11 -5 25 0 21 5 25 30 25 18 0 30 -5 30 -13z"/>
</g>
</svg>
