<?xml version="1.0" standalone="no"?>
<!DOCTYPE svg PUBLIC "-//W3C//DTD SVG 20010904//EN"
 "http://www.w3.org/TR/2001/REC-SVG-20010904/DTD/svg10.dtd">
<svg version="1.0" xmlns="http://www.w3.org/2000/svg"
 width="186.000000pt" height="86.000000pt" viewBox="0 0 186.000000 86.000000"
 preserveAspectRatio="xMidYMid meet">
<metadata>
Created by potrace 1.16, written by Peter Selinger 2001-2019
</metadata>
<g transform="translate(0.000000,86.000000) scale(0.100000,-0.100000)"
fill="#000000" stroke="none">
<path d="M367 653 c-4 -3 -7 -43 -7 -88 0 -90 11 -112 50 -100 20 6 21 4 18
-52 -3 -50 -5 -58 -22 -55 -10 2 -26 -5 -36 -15 -16 -18 -23 -18 -111 -7 -52
7 -106 16 -121 19 -37 10 -50 -19 -46 -108 4 -87 15 -93 79 -43 24 20 56 38
71 41 15 4 32 13 39 21 6 8 27 14 46 14 34 0 34 -1 33 -37 -3 -68 -2 -73 25
-73 14 0 28 6 31 14 11 28 113 89 152 90 37 1 37 1 42 -44 3 -31 10 -45 20
-45 10 0 17 14 20 45 l5 45 70 6 c39 3 140 2 225 -3 85 -5 182 -9 215 -9 95 0
175 -31 255 -101 38 -33 74 -57 80 -53 5 3 10 30 10 58 0 29 7 84 16 122 10
39 21 86 26 106 8 36 85 125 166 192 57 46 40 56 -78 42 -59 -8 -128 -10 -164
-6 -33 4 -95 4 -136 -1 -101 -11 -673 -10 -782 2 -48 6 -99 15 -113 20 -30 11
-69 13 -78 3z m116 -63 c8 -7 -38 -50 -54 -50 -11 0 -12 54 -2 63 7 8 43 -1
56 -13z m995 -6 c30 -15 32 -19 32 -71 0 -60 -17 -172 -28 -190 -4 -6 -21 -14
-38 -17 -41 -9 -49 10 -28 69 25 75 7 83 -63 28 -27 -20 -79 -51 -118 -68
l-70 -33 -255 10 c-140 6 -256 11 -257 12 -1 1 1 21 4 46 5 35 16 54 60 99 29
30 52 59 50 64 -3 9 -87 17 -174 16 -53 0 -71 14 -33 26 11 3 209 8 441 10
232 2 424 6 427 9 8 9 16 7 50 -10z m146 -29 c-29 -38 -57 -58 -68 -48 -10 11
-7 58 6 71 7 7 29 12 51 12 l38 0 -27 -35z m-1001 -48 c3 -7 1 -33 -5 -58 -5
-24 -9 -63 -8 -87 l1 -43 -68 3 c-66 3 -68 4 -71 31 -5 44 95 164 139 167 4 0
9 -6 12 -13z m-113 -5 c0 -4 -5 -13 -12 -20 -18 -18 -28 -15 -28 8 0 13 7 20
20 20 11 0 20 -4 20 -8z m175 -1 c3 -5 1 -12 -5 -16 -5 -3 -10 1 -10 9 0 18 6
21 15 7z m663 -178 c-4 -20 -30 -28 -56 -18 -15 6 -13 8 8 20 34 19 52 18 48
-2z m-1140 -31 c9 -6 5 -12 -14 -21 -20 -9 -30 -9 -38 -1 -20 20 25 38 52 22z
m1254 -52 c-5 -35 -9 -36 -37 -10 -34 31 -31 42 8 38 28 -3 32 -6 29 -28z"/>
</g>
</svg>
