<?xml version="1.0" standalone="no"?>
<!DOCTYPE svg PUBLIC "-//W3C//DTD SVG 20010904//EN"
 "http://www.w3.org/TR/2001/REC-SVG-20010904/DTD/svg10.dtd">
<svg version="1.0" xmlns="http://www.w3.org/2000/svg"
 width="142.000000pt" height="96.000000pt" viewBox="0 0 142.000000 96.000000"
 preserveAspectRatio="xMidYMid meet">
<metadata>
Created by potrace 1.16, written by Peter Selinger 2001-2019
</metadata>
<g transform="translate(0.000000,96.000000) scale(0.100000,-0.100000)"
fill="#000000" stroke="none">
<path d="M906 849 c-24 -19 -26 -26 -26 -98 0 -74 -14 -141 -29 -141 -4 0 -17
9 -29 20 -28 26 -28 63 -1 140 32 94 9 105 -77 35 -30 -25 -58 -45 -62 -46
-23 -3 -157 1 -212 5 -238 21 -286 23 -297 13 -19 -14 -16 -128 4 -195 14 -50
15 -72 4 -185 -6 -70 -9 -132 -6 -137 12 -19 33 -10 99 41 37 29 70 49 74 44
4 -4 7 -28 7 -53 0 -34 4 -47 14 -47 10 0 19 23 28 70 16 77 24 86 68 83 27
-3 31 -7 36 -45 3 -24 8 -46 12 -49 6 -6 28 37 41 79 5 15 21 17 146 17 105 0
140 -3 140 -12 0 -7 3 -23 6 -35 6 -20 3 -23 -24 -23 -17 0 -34 5 -37 10 -10
17 -44 11 -55 -9 -14 -27 -13 -164 2 -213 16 -55 42 -48 93 27 61 89 87 99
265 102 162 2 190 7 190 28 0 11 -11 15 -39 15 -56 0 -63 13 -46 95 8 39 15
102 15 141 0 61 4 76 30 117 17 26 30 51 30 55 0 3 21 28 47 54 34 34 44 51
36 59 -6 6 -64 13 -129 16 -66 2 -128 8 -139 13 -18 7 -127 30 -145 30 -4 0
-19 -9 -34 -21z m74 -62 c0 -8 -11 -24 -25 -37 l-25 -23 0 36 c0 33 3 37 25
37 14 0 25 -6 25 -13z m135 -17 c3 -5 -6 -27 -20 -47 l-25 -38 0 48 c0 40 3
47 19 47 11 0 23 -4 26 -10z m145 -2 c-1 -18 -29 -53 -36 -45 -11 11 6 57 21
57 8 0 15 -6 15 -12z m-241 -168 c-4 -74 -11 -163 -15 -197 -6 -55 -5 -63 10
-63 22 0 23 5 40 146 14 116 17 125 58 188 48 73 72 86 64 34 -3 -18 -8 -91
-11 -163 -3 -71 -11 -154 -17 -183 l-12 -54 -115 4 c-93 3 -115 6 -113 17 2 8
-2 27 -9 43 -10 24 -9 32 7 49 14 16 16 24 7 38 -8 13 -9 39 -3 87 5 38 9 74
10 81 0 18 92 125 99 116 4 -4 4 -69 0 -143z m-273 105 c-5 -14 -9 -15 -21 -5
-12 10 -13 16 -4 27 15 18 34 1 25 -22z m-398 7 c9 -6 -5 -21 -44 -50 -31 -23
-60 -39 -65 -36 -5 3 -9 23 -9 44 0 28 5 40 18 43 29 8 86 7 100 -1z m325 -57
c28 -24 77 -58 109 -75 44 -23 58 -36 58 -53 0 -12 1 -33 2 -47 l3 -25 -128 0
c-71 0 -131 4 -134 8 -3 5 11 32 31 61 44 64 46 86 9 87 -86 1 -246 18 -255
27 -6 6 0 16 19 30 37 26 53 29 151 31 l84 1 51 -45z m-325 -65 c9 -15 10 -26
2 -40 -6 -11 -7 -32 -4 -46 6 -25 5 -26 -19 -20 -14 3 -38 11 -52 16 -37 14
-33 52 8 84 39 31 48 32 65 6z m112 -25 c0 -12 -33 -55 -41 -55 -5 0 -9 14 -9
30 0 25 4 30 25 30 14 0 25 -2 25 -5z m110 -14 c0 -6 -4 -13 -10 -16 -5 -3
-10 1 -10 9 0 9 5 16 10 16 6 0 10 -4 10 -9z m-60 -46 c0 -27 -25 -44 -41 -28
-10 10 16 53 32 53 5 0 9 -11 9 -25z m-219 -77 c22 -6 39 -14 39 -18 0 -6 -86
-70 -95 -70 -7 0 -6 51 1 78 7 26 5 25 55 10z m547 -172 c4 -5 -56 -96 -63
-96 -3 0 -5 25 -5 56 l0 57 32 -7 c17 -3 33 -8 36 -10z"/>
<path d="M1376 495 c-16 -12 -17 -17 -6 -30 7 -8 21 -15 31 -15 14 0 19 7 19
30 0 33 -14 38 -44 15z"/>
</g>
</svg>
