<?xml version="1.0" standalone="no"?>
<!DOCTYPE svg PUBLIC "-//W3C//DTD SVG 20010904//EN"
 "http://www.w3.org/TR/2001/REC-SVG-20010904/DTD/svg10.dtd">
<svg version="1.0" xmlns="http://www.w3.org/2000/svg"
 width="142.000000pt" height="76.000000pt" viewBox="0 0 142.000000 76.000000"
 preserveAspectRatio="xMidYMid meet">
<metadata>
Created by potrace 1.16, written by Peter Selinger 2001-2019
</metadata>
<g transform="translate(0.000000,76.000000) scale(0.100000,-0.100000)"
fill="#000000" stroke="none">
<path d="M976 651 c-3 -5 -18 -12 -33 -16 -30 -7 -75 -40 -67 -48 3 -3 12 -3
19 -1 23 9 26 -29 14 -187 -6 -85 -10 -167 -10 -183 2 -44 -8 -66 -26 -59 -13
5 -14 20 -10 92 11 157 25 268 36 289 15 29 15 29 -26 35 -22 4 -49 1 -67 -7
-32 -14 -102 -29 -191 -43 -27 -4 -126 -8 -220 -9 -93 -1 -176 -3 -182 -3 -16
-1 -17 -41 -2 -41 7 0 9 -9 6 -21 -6 -23 12 -71 23 -64 5 3 4 20 0 39 -7 32
-6 34 20 38 48 7 51 0 22 -58 -14 -30 -32 -52 -38 -50 -7 3 -14 -11 -17 -37
-7 -53 3 -196 15 -203 4 -3 8 3 8 14 0 30 31 50 103 67 67 15 254 34 262 26 3
-2 -3 -17 -12 -32 -9 -16 -14 -31 -10 -35 11 -12 37 17 37 42 0 30 29 32 55 4
10 -11 26 -20 36 -20 10 0 20 -4 24 -9 3 -5 19 -12 36 -16 19 -4 34 -16 39
-31 9 -24 30 -33 30 -14 0 18 29 10 35 -10 15 -48 34 -14 41 75 9 106 17 130
44 133 14 2 30 8 35 14 7 7 0 9 -22 5 -33 -6 -53 7 -36 24 5 5 23 5 43 -2 35
-10 128 -12 185 -3 17 3 57 7 90 10 73 6 88 10 79 25 -5 9 -51 10 -168 6 -89
-4 -171 -4 -183 -1 -23 6 -33 44 -13 44 6 0 10 7 10 15 0 8 4 15 9 15 5 0 11
8 15 18 7 21 25 49 49 76 9 11 17 28 17 38 0 15 -9 18 -57 18 l-57 0 22 20
c12 12 22 23 22 25 0 9 -29 5 -34 -4z m54 -84 c0 -5 -8 -26 -18 -46 -11 -20
-27 -53 -37 -73 -10 -21 -22 -38 -26 -38 -5 0 -8 38 -6 85 l2 84 43 -2 c23 -1
42 -5 42 -10z m-177 -69 c-2 -40 -8 -109 -13 -152 -6 -44 -10 -99 -10 -123 0
-32 -4 -43 -15 -43 -8 0 -15 9 -15 19 0 25 -16 36 -24 15 -14 -38 -22 5 -24
140 -2 135 -1 146 17 156 30 15 32 13 29 -30 -4 -80 19 -37 27 50 0 9 4 21 9
28 17 27 23 8 19 -60z m-68 32 c-3 -5 -12 -10 -18 -10 -7 0 -6 4 3 10 19 12
23 12 15 0z m-65 -30 c-11 -20 -31 -26 -43 -13 -11 10 13 33 35 33 16 0 17 -3
8 -20z m-264 -35 c13 -13 14 -28 5 -103 -6 -48 -11 -93 -11 -99 0 -7 -9 -13
-20 -13 -18 0 -19 5 -13 103 3 56 11 105 17 109 22 15 -13 8 -49 -9 -43 -20
-59 -9 -25 19 27 22 70 19 96 -7z m182 5 c8 -13 12 -53 11 -110 l-1 -90 -27 0
-27 0 8 102 c7 98 6 119 -8 105 -8 -7 -12 -36 -18 -131 -5 -72 -15 -94 -36
-81 -15 9 -6 176 11 207 14 26 70 24 87 -2z m-113 0 c4 -6 1 -26 -5 -45 -6
-20 -15 -66 -18 -103 -4 -39 -11 -65 -17 -62 -5 3 -9 19 -8 35 1 25 12 175 13
183 0 7 30 0 35 -8z m196 -176 c3 -54 -6 -67 -33 -53 -18 10 -20 17 -14 65 3
30 12 76 19 101 l12 47 7 -60 c4 -32 8 -77 9 -100z m-335 44 c-4 -46 -11 -87
-15 -91 -13 -13 -53 2 -48 17 3 7 2 18 -3 25 -5 9 -11 3 -18 -18 -11 -31 -35
-41 -48 -20 -7 12 45 129 58 129 4 0 8 -8 9 -17 0 -15 2 -15 9 2 5 11 11 28
14 38 3 9 15 17 27 17 21 0 22 -2 15 -82z m-58 -123 c-3 -3 -19 -10 -37 -15
-24 -7 -31 -6 -31 6 0 10 12 14 37 14 20 0 34 -2 31 -5z"/>
<path d="M788 341 c-2 -16 0 -37 4 -47 7 -16 8 -16 4 4 -2 12 0 22 5 22 5 0 9
11 9 25 0 34 -17 32 -22 -4z"/>
<path d="M1360 620 c0 -5 5 -10 11 -10 5 0 7 5 4 10 -3 6 -8 10 -11 10 -2 0
-4 -4 -4 -10z"/>
<path d="M2 335 c0 -16 2 -22 5 -12 2 9 2 23 0 30 -3 6 -5 -1 -5 -18z"/>
<path d="M1413 165 c0 -22 2 -30 4 -17 2 12 2 30 0 40 -3 9 -5 -1 -4 -23z"/>
<path d="M1383 25 c-18 -20 -16 -25 12 -25 18 0 25 5 25 20 0 23 -19 26 -37 5z"/>
<path d="M429 14 c-11 -14 -9 -15 21 -12 18 2 35 9 38 16 6 18 -43 15 -59 -4z"/>
</g>
</svg>
