<?xml version="1.0" standalone="no"?>
<!DOCTYPE svg PUBLIC "-//W3C//DTD SVG 20010904//EN"
 "http://www.w3.org/TR/2001/REC-SVG-20010904/DTD/svg10.dtd">
<svg version="1.0" xmlns="http://www.w3.org/2000/svg"
 width="126.000000pt" height="86.000000pt" viewBox="0 0 126.000000 86.000000"
 preserveAspectRatio="xMidYMid meet">
<metadata>
Created by potrace 1.16, written by Peter Selinger 2001-2019
</metadata>
<g transform="translate(0.000000,86.000000) scale(0.100000,-0.100000)"
fill="#000000" stroke="none">
<path d="M667 647 c-12 -12 -35 -31 -51 -41 -16 -10 -49 -37 -73 -59 l-44 -41
-47 13 c-26 7 -85 17 -132 21 -47 5 -113 12 -146 16 -59 6 -63 6 -79 -20 -31
-47 -46 -133 -39 -224 6 -77 8 -83 28 -80 14 2 22 11 24 30 3 25 7 27 60 30
115 6 222 -2 222 -18 0 -19 26 -18 34 1 14 37 78 -6 160 -110 l24 -30 264 0
c229 0 262 2 258 15 -11 37 -5 130 13 185 10 33 23 91 28 129 9 71 21 96 45
96 8 0 14 7 14 16 0 22 -67 47 -111 41 -21 -3 -41 -1 -47 5 -5 5 -54 11 -108
13 -54 3 -137 11 -184 20 -47 8 -86 15 -88 15 -2 0 -13 -10 -25 -23z m142 -48
c119 -19 113 -15 105 -57 -3 -20 -21 -95 -39 -167 -22 -84 -31 -142 -28 -164
l6 -34 -104 7 c-101 6 -149 22 -149 48 0 6 -16 26 -35 44 -31 28 -34 36 -29
65 8 41 10 43 25 33 7 -4 37 -8 68 -9 31 -1 72 -7 92 -15 45 -16 69 -8 69 23
0 22 -6 25 -52 31 -29 3 -72 6 -95 6 -23 0 -44 4 -48 10 -3 5 -12 7 -19 4 -7
-3 -16 2 -19 10 -7 17 10 85 26 104 15 19 87 56 122 63 17 4 32 7 34 8 2 0 34
-4 70 -10z m283 -23 c21 -1 40 -5 43 -8 9 -9 -15 -138 -48 -258 -9 -30 -17
-71 -19 -90 l-3 -35 -73 -5 c-41 -3 -77 -3 -80 0 -15 11 -10 119 8 186 10 39
24 102 30 140 6 38 16 72 23 76 7 5 28 5 47 2 19 -4 52 -8 72 -8z m-929 -62
c3 -3 1 -18 -4 -32 -5 -14 -10 -54 -11 -89 -1 -59 -2 -63 -25 -63 -19 0 -23 4
-19 23 3 12 7 49 11 81 7 69 26 102 48 80z m97 -23 c0 -6 -5 -13 -10 -16 -6
-4 -8 -11 -4 -16 3 -6 3 -35 -1 -65 -6 -52 -8 -55 -33 -52 -33 4 -39 31 -22
106 11 48 14 52 41 52 16 0 29 -4 29 -9z m79 -33 c0 -18 -3 -51 -7 -73 -6 -34
-11 -40 -32 -40 -14 0 -25 6 -24 13 1 6 2 39 3 72 1 60 1 60 31 60 27 0 30 -3
29 -32z m79 -38 c-4 -61 -23 -95 -45 -82 -7 5 -9 29 -6 75 5 63 7 67 31 67 24
0 24 -2 20 -60z m74 28 c21 21 29 13 23 -25 -11 -63 -14 -69 -41 -82 -15 -6
-29 -10 -31 -7 -2 2 -1 31 3 65 5 51 9 59 21 50 10 -9 17 -9 25 -1z"/>
</g>
</svg>
