<?xml version="1.0" standalone="no"?>
<!DOCTYPE svg PUBLIC "-//W3C//DTD SVG 20010904//EN"
 "http://www.w3.org/TR/2001/REC-SVG-20010904/DTD/svg10.dtd">
<svg version="1.0" xmlns="http://www.w3.org/2000/svg"
 width="222.000000pt" height="96.000000pt" viewBox="0 0 222.000000 96.000000"
 preserveAspectRatio="xMidYMid meet">
<metadata>
Created by potrace 1.16, written by Peter Selinger 2001-2019
</metadata>
<g transform="translate(0.000000,96.000000) scale(0.100000,-0.100000)"
fill="#000000" stroke="none">
<path d="M1333 823 c-7 -2 -13 -10 -13 -16 0 -23 -127 -110 -247 -171 -38 -18
-133 -51 -213 -71 -151 -40 -259 -49 -432 -37 -72 5 -81 13 -47 43 40 35 19
46 -81 45 -120 -1 -128 -10 -124 -128 1 -46 3 -148 4 -228 2 -80 4 -153 7
-163 3 -12 14 -17 41 -17 32 0 34 1 18 13 -15 11 -17 22 -11 70 5 38 12 57 21
57 11 0 11 -5 2 -25 -7 -16 -8 -29 -2 -34 10 -10 134 37 161 61 26 23 301 46
518 43 234 -3 271 -13 349 -95 l56 -60 53 30 c42 23 56 27 65 18 10 -10 14 -8
18 10 6 22 10 22 168 23 207 2 356 7 374 14 7 3 11 9 7 15 -3 6 -105 9 -261 9
-153 0 -260 4 -267 10 -8 6 -10 30 -7 73 l5 63 52 17 c29 10 100 25 160 34 59
8 110 19 113 24 3 4 51 10 107 11 96 4 125 10 110 26 -4 3 -33 5 -64 4 -103
-3 -403 28 -439 45 -31 15 -34 20 -35 63 -1 25 -3 65 -3 88 -1 24 1 48 5 55 5
8 69 8 266 -1 142 -7 265 -14 273 -17 8 -2 22 1 30 6 31 19 -8 30 -130 35 -69
3 -163 7 -210 10 -47 3 -136 8 -199 10 -90 5 -122 10 -147 25 -17 11 -33 20
-35 19 -2 0 -10 -3 -16 -6z m57 -73 c0 -5 -4 -10 -10 -10 -5 0 -10 5 -10 10 0
6 5 10 10 10 6 0 10 -4 10 -10z m-56 -45 c4 -19 3 -110 -1 -203 -4 -92 -7
-185 -7 -207 2 -34 -2 -42 -22 -52 -44 -20 -47 -3 -39 234 5 161 11 224 21
241 21 32 41 27 48 -13z m125 -202 c-1 -131 -6 -245 -10 -254 -6 -12 -17 -15
-46 -10 l-38 6 0 218 c0 205 1 219 20 236 22 20 56 40 68 41 4 0 7 -107 6
-237z m-213 160 c-2 -10 -8 -103 -12 -206 l-6 -189 -27 7 c-14 3 -30 10 -34
14 -4 5 -1 75 8 157 9 81 14 159 12 172 -3 15 3 30 16 43 26 24 50 25 43 2z
m-90 -102 c-3 -31 -8 -92 -11 -136 -7 -114 -13 -138 -33 -130 -10 4 -74 6
-145 6 l-127 -1 7 57 c11 83 10 146 -3 150 -7 2 -14 -26 -18 -79 -10 -124 -12
-128 -54 -128 l-35 0 7 80 c10 128 6 124 143 155 107 24 200 57 213 76 7 9 43
17 53 11 5 -2 6 -30 3 -61z m-853 -11 c-12 -5 -25 -22 -29 -37 -10 -41 -33
-83 -45 -83 -8 0 -9 16 -5 48 12 81 13 82 59 81 35 0 38 -2 20 -9z m411 -158
c-7 -91 -7 -91 -37 -98 -18 -4 -32 -2 -36 5 -7 11 2 121 14 168 5 21 42 36 58
23 4 -4 5 -48 1 -98z m828 93 c20 -8 50 -12 69 -9 19 3 59 1 89 -4 l55 -8 -75
-13 c-41 -7 -97 -19 -124 -26 -27 -8 -53 -12 -58 -9 -9 6 -11 46 -2 68 7 19 4
19 46 1z m-1087 -5 c3 -5 -4 -14 -17 -19 -13 -5 -42 -17 -66 -27 -50 -20 -68
-11 -58 30 6 25 10 26 71 26 35 0 67 -4 70 -10z m159 0 c9 0 10 -18 3 -72 -14
-119 -14 -118 -46 -118 l-28 0 5 93 c5 90 13 112 40 102 8 -3 19 -5 26 -5z
m-100 -115 c-4 -38 -11 -73 -16 -76 -4 -3 -22 -3 -39 -1 -30 4 -31 6 -25 41 3
20 6 47 6 61 0 17 11 32 33 46 42 28 49 17 41 -71z m-109 -17 c-7 -55 -25 -85
-44 -74 -14 9 -14 40 0 89 7 27 15 37 30 37 19 0 20 -4 14 -52z m-125 32 c0
-6 11 -8 26 -4 25 6 25 5 19 -32 -14 -80 -21 -88 -58 -60 -15 12 -17 22 -12
60 4 25 11 46 16 46 5 0 9 -5 9 -10z m50 -160 c-20 -13 -33 -13 -25 0 3 6 14
10 23 10 15 0 15 -2 2 -10z m1070 -29 c0 -11 -39 -25 -47 -18 -3 3 -2 10 2 16
8 13 45 15 45 2z"/>
<path d="M1076 568 c-3 -13 -10 -71 -17 -131 -11 -102 -8 -138 10 -108 7 10
31 206 31 249 0 21 -19 13 -24 -10z"/>
<path d="M956 528 c-2 -7 -7 -42 -10 -78 -3 -36 -8 -80 -12 -97 -5 -26 -3 -33
8 -33 28 0 53 199 28 215 -6 3 -12 0 -14 -7z"/>
<path d="M1928 171 c-38 -8 -98 -67 -136 -133 l-21 -38 91 0 c81 0 89 2 78 16
-23 27 -47 35 -74 24 -38 -14 -33 8 10 50 l36 35 97 0 c78 0 96 3 96 15 0 14
-20 19 -115 32 -19 2 -47 2 -62 -1z"/>
<path d="M1625 75 l-80 -75 52 0 c47 0 54 3 67 28 8 15 28 40 45 56 34 33 41
66 14 66 -10 0 -54 -34 -98 -75z"/>
<path d="M1125 93 c-27 -7 -82 -49 -95 -73 -9 -17 -5 -18 59 -18 59 0 72 3 91
23 29 31 24 69 -10 72 -14 0 -34 -1 -45 -4z"/>
<path d="M100 75 c-11 -13 -10 -14 4 -9 9 3 16 10 16 15 0 13 -6 11 -20 -6z"/>
<path d="M678 80 c-88 -11 -138 -28 -138 -47 0 -12 7 -14 33 -9 95 21 100 21
92 -3 -5 -18 -2 -21 20 -21 18 0 29 6 32 20 6 21 39 26 139 21 71 -4 154 27
112 41 -23 8 -221 6 -290 -2z"/>
<path d="M375 60 c-3 -5 3 -17 14 -27 11 -9 18 -20 15 -25 -3 -4 8 -8 25 -8
38 0 54 36 25 57 -21 15 -70 17 -79 3z"/>
<path d="M240 49 c0 -5 5 -7 10 -4 6 3 10 8 10 11 0 2 -4 4 -10 4 -5 0 -10 -5
-10 -11z"/>
<path d="M203 3 c9 -2 23 -2 30 0 6 3 -1 5 -18 5 -16 0 -22 -2 -12 -5z"/>
</g>
</svg>
