<?xml version="1.0" standalone="no"?>
<!DOCTYPE svg PUBLIC "-//W3C//DTD SVG 20010904//EN"
 "http://www.w3.org/TR/2001/REC-SVG-20010904/DTD/svg10.dtd">
<svg version="1.0" xmlns="http://www.w3.org/2000/svg"
 width="384.000000pt" height="142.000000pt" viewBox="0 0 384.000000 142.000000"
 preserveAspectRatio="xMidYMid meet">
<metadata>
Created by potrace 1.16, written by Peter Selinger 2001-2019
</metadata>
<g transform="translate(0.000000,142.000000) scale(0.100000,-0.100000)"
fill="#000000" stroke="none">
<path d="M2606 1282 c-20 -38 -20 -70 -2 -113 9 -20 11 -42 6 -59 -4 -15 -4
-34 1 -41 5 -8 9 -73 9 -145 0 -160 -6 -170 -75 -133 -25 13 -45 27 -45 31 0
13 -28 9 -32 -3 -2 -7 -44 13 -102 50 -53 33 -99 61 -102 61 -5 0 -42 23 -159
99 -22 14 -46 32 -53 39 -8 7 -27 19 -43 28 -28 14 -30 14 -40 -13 -6 -15 -18
-37 -28 -48 -24 -27 -45 -81 -36 -94 3 -6 16 -9 29 -5 21 5 121 -42 311 -146
33 -18 87 -47 121 -65 33 -17 58 -37 56 -43 -2 -7 -8 -12 -13 -12 -4 0 -39
-14 -76 -31 -185 -85 -242 -109 -257 -109 -9 0 -21 12 -26 28 -6 15 -15 35
-20 44 -18 32 -11 55 29 91 36 32 61 66 61 81 0 3 -9 6 -20 6 -11 0 -20 -3
-20 -8 0 -9 -60 -76 -64 -71 -29 44 -36 65 -36 119 0 41 -4 60 -12 60 -7 0
-35 -25 -61 -55 -27 -30 -52 -55 -56 -55 -17 0 18 75 44 96 46 37 33 46 -80
55 -5 0 -164 -2 -353 -6 -264 -5 -347 -3 -358 6 -20 16 -234 13 -250 -4 -8 -8
-9 -38 -3 -97 4 -46 5 -88 2 -93 -3 -5 -35 -6 -72 -2 -36 4 -114 7 -174 6
l-107 -1 -95 50 c-94 50 -119 54 -130 20 -7 -22 2 -276 10 -290 3 -5 36 6 73
25 165 83 355 145 452 148 l45 2 -1 -65 c-1 -36 -6 -94 -13 -130 -21 -125 -32
-293 -19 -301 21 -13 25 -2 32 81 4 44 11 82 15 84 7 4 230 44 276 49 18 2 20
-4 21 -53 1 -30 -2 -86 -7 -125 -4 -45 -3 -75 3 -83 15 -18 20 -9 39 66 38
151 54 195 75 209 15 9 67 14 175 17 85 2 172 7 193 11 l39 8 -7 -29 c-16 -63
-18 -95 -7 -108 7 -9 9 -33 5 -70 -6 -48 -4 -56 9 -56 20 0 23 15 34 145 8 97
9 100 33 101 35 2 80 -32 80 -61 0 -25 60 -85 86 -85 17 0 196 92 264 135 25
16 63 39 85 51 100 53 125 68 125 76 0 4 6 8 13 8 8 0 22 9 32 20 10 11 22 20
27 20 5 0 18 9 30 20 26 24 49 25 88 5 l28 -15 -3 -142 c-2 -79 -3 -151 -4
-160 -1 -21 -31 -25 -31 -4 0 23 -29 41 -43 27 -13 -13 -28 -181 -20 -224 5
-24 10 -27 27 -22 80 25 255 36 779 50 l238 7 44 -26 44 -26 17 36 c27 56 13
68 -80 72 -67 3 -86 8 -159 46 -127 66 -160 86 -187 116 -21 24 -220 150 -237
150 -3 0 -24 13 -47 28 -22 15 -49 31 -58 35 -15 5 -18 19 -18 85 0 45 7 98
15 122 8 23 15 55 15 70 0 32 17 49 87 84 28 14 54 30 58 36 3 5 56 35 117 66
61 30 131 69 154 85 23 16 48 29 54 29 13 0 89 40 107 57 25 23 93 35 134 25
35 -9 40 -7 54 15 9 13 15 29 12 36 -4 14 -76 18 -100 5 -26 -13 -173 -18
-571 -19 -333 0 -339 0 -361 21 l-23 22 -16 -30z m209 -53 c47 -1 70 -4 55 -8
-14 -4 -55 -21 -92 -38 -37 -18 -78 -35 -91 -38 -22 -6 -25 -3 -31 35 -8 54
-1 64 43 56 20 -3 72 -6 116 -7z m635 -5 c0 -1 -39 -22 -87 -46 -49 -23 -101
-52 -118 -63 -16 -12 -66 -38 -111 -58 -44 -19 -104 -52 -134 -71 -79 -52 -83
-50 -75 37 4 39 15 97 24 127 l17 55 54 7 c68 10 400 25 418 20 6 -2 12 -6 12
-8z m-525 -46 c-13 -42 -34 -163 -35 -200 0 -40 -15 -59 -24 -30 -3 10 -5 66
-4 125 2 105 2 107 27 116 39 14 44 13 36 -11z m-91 -140 c2 -69 1 -130 -3
-136 -11 -18 -111 -73 -120 -67 -6 3 -7 15 -1 29 4 13 11 56 15 97 10 119 30
173 68 191 17 9 33 15 34 14 2 -1 4 -59 7 -128z m-125 55 c-3 -72 -36 -278
-44 -278 -6 0 -11 53 -12 132 -2 126 -1 134 20 148 28 20 37 19 36 -2z m-619
-102 c25 -13 52 -29 60 -36 8 -6 35 -23 60 -36 25 -13 47 -26 50 -29 3 -3 25
-16 50 -29 25 -14 72 -42 104 -63 33 -21 64 -38 71 -38 6 0 16 -5 23 -12 15
-15 -3 -38 -30 -38 -19 0 -148 65 -200 101 -14 11 -29 19 -32 19 -4 0 -24 11
-46 25 -21 13 -79 45 -129 70 -50 25 -91 51 -91 57 0 6 7 19 16 29 17 19 22
18 94 -20z m-1087 -128 c-3 -16 -18 -48 -33 -73 -14 -25 -34 -71 -44 -102 -10
-32 -21 -60 -25 -62 -6 -4 -8 232 -3 257 1 4 27 7 57 7 55 0 55 0 48 -27z
m687 18 c-8 -5 -62 -12 -120 -15 -58 -4 -127 -11 -155 -16 -81 -15 -266 -39
-327 -43 -51 -3 -58 -1 -58 15 0 10 9 27 20 38 19 19 31 20 118 17 53 -2 138
0 187 3 136 10 352 11 335 1z m135 -53 c-4 -13 -25 -65 -46 -117 -21 -52 -39
-100 -39 -108 0 -7 -5 -13 -11 -13 -8 0 -9 14 -3 48 5 26 7 80 6 120 -1 41 0
78 3 83 4 5 26 9 51 9 42 0 45 -1 39 -22z m-127 -58 c2 -36 -2 -96 -9 -133
-10 -55 -10 -75 0 -104 7 -19 9 -39 5 -43 -5 -4 -98 -10 -206 -12 -157 -4
-198 -2 -198 8 0 7 4 15 9 18 5 3 12 18 16 33 10 40 65 112 89 115 11 2 21 10
21 18 0 17 -60 28 -166 29 -50 1 -72 -3 -88 -16 -20 -17 -21 -22 -11 -76 6
-32 10 -74 8 -95 l-3 -37 -120 3 c-66 2 -123 7 -127 10 -16 16 47 225 80 264
10 12 36 18 100 21 48 3 139 14 202 26 123 23 277 39 350 37 l45 -1 3 -65z
m1135 -33 c-9 -136 -7 -134 -80 -84 -87 58 -85 86 10 147 33 22 64 37 68 34 5
-3 6 -46 2 -97z m-893 41 c0 -13 7 -41 14 -63 8 -22 12 -42 10 -44 -6 -6 -73
42 -79 57 -5 14 33 72 47 72 4 0 8 -10 8 -22z m-1546 -50 c48 -31 56 -33 148
-33 96 0 116 -7 55 -21 -17 -3 -60 -20 -95 -35 -34 -16 -69 -29 -77 -29 -8 0
-29 -9 -47 -20 -54 -33 -56 -29 -57 75 0 62 4 95 11 95 6 0 34 -15 62 -32z
m2212 -15 c12 -16 20 -73 10 -73 -19 0 -36 16 -36 32 0 16 -5 19 -29 13 -42
-9 -48 12 -9 29 44 19 49 19 64 -1z m-734 -34 c18 -17 39 -35 48 -40 12 -7 3
-20 -45 -66 -79 -75 -102 -93 -120 -93 -20 0 -20 -4 21 121 23 69 42 109 50
109 8 0 29 -14 46 -31z m621 -15 c9 -9 -162 -122 -288 -189 -232 -123 -257
-135 -278 -135 -28 0 -47 18 -47 42 0 13 24 30 84 58 46 22 89 40 95 40 12 0
181 78 311 145 84 42 111 51 123 39z m-1155 -14 c2 0 -10 -19 -26 -43 -16 -23
-36 -62 -45 -87 -12 -36 -20 -45 -38 -45 -23 0 -24 3 -25 85 -1 47 0 88 2 91
3 5 76 5 132 -1z m1372 -4 c6 -8 34 -29 61 -46 30 -20 49 -39 49 -51 0 -24
-14 -24 -48 -1 -15 10 -44 27 -64 37 -26 13 -38 26 -38 41 0 35 19 44 40 20z
m-712 -81 c12 -19 22 -41 22 -48 0 -16 -107 -70 -115 -58 -2 5 4 31 14 57 11
27 22 57 25 67 8 27 29 20 54 -18z m722 -20 c19 -14 41 -25 50 -25 37 0 47
-30 40 -127 -3 -51 -9 -95 -12 -99 -8 -8 -138 -8 -146 0 -10 11 -2 248 9 262
15 19 20 18 59 -11z m184 -18 c17 -12 45 -29 61 -36 17 -7 60 -33 96 -57 37
-24 74 -44 83 -44 9 0 16 -2 16 -4 0 -2 3 -12 6 -21 5 -11 -47 10 -155 65
-125 63 -161 86 -161 101 0 25 16 24 54 -4z m-1034 -58 c-14 -32 -31 -37 -51
-13 -11 14 -8 20 21 44 40 33 51 21 30 -31z m1130 -70 c36 -17 121 -58 190
-91 69 -33 135 -65 148 -71 31 -15 28 -30 -5 -24 -119 23 -226 39 -319 47
-119 11 -165 17 -168 22 -1 2 0 47 2 100 l4 98 41 -25 c23 -14 71 -39 107 -56z
m-1925 41 c30 -7 30 -7 5 -12 -14 -4 -54 -11 -90 -17 -36 -7 -77 -14 -92 -18
-26 -5 -28 -3 -28 26 l0 31 88 -1 c48 -1 101 -5 117 -9z m141 -77 c-10 -26
-18 -8 -9 23 5 21 8 24 11 11 2 -10 1 -25 -2 -34z m1591 -131 c10 -12 16 -12
26 -3 22 17 269 -6 472 -46 70 -14 -19 -21 -262 -22 -139 -1 -258 -3 -265 -6
-7 -2 -62 -6 -122 -9 -108 -5 -108 -5 -102 17 3 12 6 36 6 54 0 31 2 32 48 36
85 6 186 -4 199 -21z"/>
<path d="M1582 75 c-17 -37 -15 -75 3 -75 9 0 18 8 21 18 3 9 10 25 15 34 14
28 11 48 -9 48 -11 0 -24 -11 -30 -25z"/>
<path d="M2020 61 c-8 -5 -34 -12 -57 -16 -28 -4 -43 -12 -43 -22 0 -12 8 -13
40 -8 26 4 40 3 40 -4 0 -17 47 -13 54 4 3 8 16 15 29 15 14 0 30 -7 37 -15 7
-8 23 -15 35 -15 18 0 22 4 18 20 -3 11 -15 27 -26 35 -23 16 -103 20 -127 6z"/>
<path d="M2950 21 c-10 -19 -8 -21 25 -21 29 0 36 3 33 18 -5 25 -44 27 -58 3z"/>
<path d="M636 15 c-18 -14 -16 -15 28 -15 34 0 46 4 44 13 -6 18 -50 19 -72 2z"/>
<path d="M1228 3 c6 -2 18 -2 25 0 6 3 1 5 -13 5 -14 0 -19 -2 -12 -5z"/>
</g>
</svg>
