<?xml version="1.0" standalone="no"?>
<!DOCTYPE svg PUBLIC "-//W3C//DTD SVG 20010904//EN"
 "http://www.w3.org/TR/2001/REC-SVG-20010904/DTD/svg10.dtd">
<svg version="1.0" xmlns="http://www.w3.org/2000/svg"
 width="250.000000pt" height="110.000000pt" viewBox="0 0 250.000000 110.000000"
 preserveAspectRatio="xMidYMid meet">
<metadata>
Created by potrace 1.16, written by Peter Selinger 2001-2019
</metadata>
<g transform="translate(0.000000,110.000000) scale(0.100000,-0.100000)"
fill="#000000" stroke="none">
<path d="M845 1090 c3 -5 17 -10 30 -10 13 0 27 5 30 10 4 6 -8 10 -30 10 -22
0 -34 -4 -30 -10z"/>
<path d="M912 1049 c-11 -11 -22 -35 -25 -53 -6 -40 -91 -124 -223 -222 l-89
-67 -173 7 c-129 6 -188 12 -230 27 -75 24 -87 24 -100 -6 -16 -34 -4 -205 14
-212 7 -2 41 17 76 44 116 89 132 96 201 91 34 -3 117 -1 185 3 122 7 123 7
148 -18 32 -32 49 -19 58 44 3 26 17 61 32 80 14 18 24 43 22 54 -2 14 8 29
30 46 l32 26 0 -27 c0 -36 25 -44 54 -17 12 11 26 21 32 22 5 0 29 16 54 34
91 70 84 68 243 44 130 -20 181 -22 611 -23 385 -1 469 1 474 13 10 26 -25 31
-198 31 -312 -2 -764 9 -815 20 -27 5 -97 14 -155 20 -110 11 -205 33 -215 50
-9 15 -22 12 -43 -11z m98 -66 c11 -3 8 -10 -15 -29 -16 -13 -36 -24 -42 -24
-13 0 -18 51 -7 62 5 6 32 2 64 -9z m-270 -212 c0 -5 -9 -19 -19 -32 -18 -22
-20 -23 -27 -6 -4 12 0 23 12 32 22 17 34 19 34 6z m-562 -98 c30 -7 28 -17
-7 -42 -42 -30 -51 -26 -51 20 0 35 2 40 18 34 9 -4 27 -10 40 -12z"/>
<path d="M982 828 c-43 -40 -91 -80 -107 -88 -43 -21 -46 -30 -25 -69 42 -82
108 -108 95 -38 -12 63 11 113 82 182 58 56 73 85 42 85 -5 0 -44 -33 -87 -72z"/>
<path d="M1127 802 c-62 -67 -96 -92 -123 -92 -23 0 -25 -3 -28 -31 -1 -6 15
-19 34 -28 57 -26 51 -49 -32 -126 -40 -37 -92 -76 -115 -87 -24 -10 -43 -23
-43 -28 0 -13 34 -30 59 -30 11 0 36 -14 55 -31 25 -22 41 -29 56 -24 24 8 26
33 4 50 -26 19 0 110 46 156 19 21 50 54 68 75 l33 38 31 -33 c22 -24 36 -31
52 -27 11 3 24 6 29 6 4 0 7 36 7 81 0 77 1 81 30 106 31 26 40 53 17 53 -8 0
-27 -12 -43 -26 -58 -51 -126 -104 -135 -104 -24 0 -6 49 31 85 22 21 40 45
40 52 0 26 -28 12 -73 -35z m97 -134 c7 -32 0 -35 -26 -11 -21 19 -23 39 -5
46 16 6 23 -2 31 -35z m-274 -237 c0 -12 -20 -25 -27 -18 -7 7 6 27 18 27 5 0
9 -4 9 -9z"/>
<path d="M1394 750 c-39 -31 -80 -62 -92 -69 -32 -17 -27 -38 13 -51 19 -6 46
-25 59 -42 16 -21 29 -29 41 -24 14 5 15 14 10 47 -9 52 13 127 43 147 12 8
22 20 22 27 0 30 -31 19 -96 -35z m-18 -87 c-10 -10 -19 5 -10 18 6 11 8 11
12 0 2 -7 1 -15 -2 -18z"/>
<path d="M1557 802 c-23 -5 -38 -65 -26 -102 7 -20 7 -35 0 -49 -6 -11 -11
-33 -11 -49 0 -16 -8 -53 -18 -83 -11 -30 -22 -98 -26 -152 -6 -91 -5 -98 11
-95 25 5 43 46 43 98 0 109 48 256 103 315 17 18 -1 -103 -20 -135 -16 -27
-16 -32 -3 -41 8 -5 34 -8 57 -5 48 6 57 -1 37 -29 -12 -17 -17 -18 -35 -7
-27 17 -39 7 -37 -33 1 -20 -6 -43 -15 -53 -21 -23 -21 -29 -1 -49 11 -12 14
-25 9 -47 -12 -53 -11 -70 6 -74 22 -4 30 18 39 107 7 70 9 75 54 117 47 45
66 88 48 106 -5 5 -28 12 -51 15 -25 3 -41 11 -41 19 0 7 34 54 75 103 75 91
86 110 63 113 -62 8 -235 15 -261 10z m60 -58 c3 -8 -1 -23 -10 -32 -15 -14
-17 -14 -23 1 -8 21 1 47 16 47 6 0 13 -7 17 -16z m133 0 c0 -10 -55 -84 -62
-84 -13 0 -9 78 5 83 17 8 57 8 57 1z"/>
<path d="M2201 787 c-8 -8 -3 -18 19 -38 27 -25 29 -31 24 -81 -3 -29 -7 -59
-10 -65 -9 -32 -78 0 -94 43 -5 13 -16 24 -24 24 -19 0 -56 -47 -56 -71 0 -11
-4 -19 -9 -19 -19 0 -107 42 -127 61 -28 26 -77 34 -93 16 -7 -9 -13 -63 -15
-136 -5 -132 0 -143 45 -95 35 38 138 104 161 104 18 0 20 -6 17 -67 -5 -88 7
-89 100 -5 69 62 108 79 97 45 -9 -31 -26 -107 -26 -121 0 -8 9 -12 22 -10 19
3 23 13 34 76 7 41 15 76 18 79 2 3 21 -1 42 -7 61 -21 176 2 158 31 -3 5 -38
9 -79 9 -41 0 -86 4 -100 10 l-26 10 42 61 c24 33 58 75 76 92 18 18 29 37 25
43 -10 16 -207 25 -221 11z m129 -60 c0 -14 -20 -37 -32 -37 -10 0 -11 34 -1
43 11 12 33 8 33 -6z m-412 -146 c17 -7 32 -16 32 -21 0 -12 -68 -61 -73 -53
-11 19 -11 97 1 91 4 -3 22 -10 40 -17z m223 -20 l24 -20 -34 -35 c-20 -20
-39 -32 -43 -28 -10 10 10 102 22 102 4 0 18 -9 31 -19z"/>
<path d="M1195 510 c-33 -28 -84 -66 -113 -86 -29 -20 -51 -41 -49 -47 2 -7
21 -12 42 -12 35 0 39 -3 47 -34 8 -28 13 -32 31 -27 12 3 32 6 45 6 27 0 29
21 2 45 -40 36 -21 100 45 145 44 31 54 53 24 57 -8 1 -41 -20 -74 -47z"/>
<path d="M708 489 c-42 -45 -67 -63 -95 -70 -56 -12 -169 -12 -308 0 -66 6
-135 11 -153 11 -25 0 -35 5 -39 20 -3 11 -11 20 -18 20 -29 0 -36 -28 -33
-146 l3 -119 27 -3 c21 -3 30 3 43 27 8 17 40 56 70 86 l54 54 193 -6 193 -6
37 -33 c21 -19 53 -40 72 -48 20 -8 56 -36 80 -63 37 -38 46 -55 46 -84 0 -69
12 -129 26 -129 7 0 43 23 80 51 37 28 78 55 91 60 30 11 347 11 583 -1 97 -4
182 -4 191 1 9 4 108 13 220 19 210 11 260 20 240 43 -8 10 -29 11 -88 5 -43
-4 -307 -8 -588 -10 -539 -3 -601 1 -673 43 -18 10 -46 19 -62 19 -20 0 -31 6
-35 20 -3 11 -26 34 -51 50 l-44 31 0 72 c0 40 5 78 11 84 13 13 8 55 -6 59
-5 2 -36 -24 -67 -57z m18 -84 c4 -8 3 -22 0 -31 -6 -15 -8 -15 -26 1 -20 18
-17 45 6 45 8 0 17 -7 20 -15z m-532 -24 c5 -8 -67 -91 -79 -91 -3 0 -5 23 -5
50 l0 50 39 0 c22 0 42 -4 45 -9z m791 -277 c-39 -31 -55 -30 -55 4 0 43 17
54 54 35 l30 -16 -29 -23z"/>
</g>
</svg>
