<?xml version="1.0" standalone="no"?>
<!DOCTYPE svg PUBLIC "-//W3C//DTD SVG 20010904//EN"
 "http://www.w3.org/TR/2001/REC-SVG-20010904/DTD/svg10.dtd">
<svg version="1.0" xmlns="http://www.w3.org/2000/svg"
 width="164.000000pt" height="112.000000pt" viewBox="0 0 164.000000 112.000000"
 preserveAspectRatio="xMidYMid meet">
<metadata>
Created by potrace 1.16, written by Peter Selinger 2001-2019
</metadata>
<g transform="translate(0.000000,112.000000) scale(0.100000,-0.100000)"
fill="#000000" stroke="none">
<path d="M647 995 c-15 -14 -40 -28 -55 -32 -15 -3 -34 -14 -42 -24 -9 -9 -32
-24 -53 -32 -44 -19 -47 -38 -11 -62 14 -9 40 -30 58 -47 47 -46 109 -94 129
-101 10 -4 17 -13 14 -20 -5 -15 -39 -10 -50 9 -9 16 -43 19 -52 5 -3 -6 3
-14 12 -20 22 -13 -209 -5 -235 8 -16 8 -68 27 -103 38 -9 2 -24 -3 -33 -13
-15 -14 -17 -27 -10 -73 4 -31 8 -67 9 -81 1 -14 3 -29 3 -33 1 -5 15 1 31 12
16 12 35 21 43 21 8 0 18 4 23 8 20 16 88 34 163 41 43 5 88 14 101 20 12 7
35 10 50 6 25 -5 36 1 80 44 29 28 57 51 62 51 5 0 9 6 9 14 0 7 19 29 41 47
60 49 69 53 82 36 7 -8 58 -31 115 -50 56 -20 121 -49 145 -65 23 -16 49 -31
59 -35 9 -3 46 -26 82 -51 35 -25 69 -46 74 -46 4 0 16 -6 26 -13 17 -13 15
-16 -29 -41 -26 -16 -55 -35 -64 -45 -9 -9 -48 -37 -86 -62 -67 -44 -99 -63
-190 -112 -22 -12 -46 -28 -53 -34 -7 -7 -29 -13 -47 -13 -19 0 -36 -4 -40 -9
-3 -5 -28 6 -56 25 -28 19 -55 34 -60 34 -18 0 -38 59 -36 109 2 42 6 52 22
56 70 19 102 30 116 42 35 29 76 9 158 -80 43 -46 71 -60 71 -34 0 7 -20 35
-45 63 l-44 51 42 -4 c54 -5 151 9 146 22 -2 5 -52 10 -111 10 -95 0 -110 2
-128 20 -22 22 -43 118 -33 153 7 28 -10 35 -33 14 -20 -19 -86 -56 -118 -66
-24 -8 -23 -9 54 -48 73 -38 87 -58 41 -58 -47 0 -134 21 -152 36 -35 31 -42
18 -35 -65 7 -89 3 -97 -47 -82 -64 20 -144 32 -242 38 -55 3 -108 10 -118 15
-13 7 -29 6 -49 -3 -27 -11 -29 -15 -22 -43 4 -17 8 -55 8 -85 1 -31 6 -56 12
-58 6 -2 24 7 40 20 17 15 48 27 74 30 91 12 168 25 177 30 5 3 32 8 60 12 57
6 82 -9 33 -20 -33 -7 -36 -28 -4 -33 10 -2 23 -7 27 -12 13 -11 -141 -82
-187 -85 -46 -3 -59 -25 -29 -47 11 -7 25 -28 32 -45 17 -43 54 -47 56 -7 1
39 130 164 169 164 19 0 66 -28 66 -40 0 -10 -97 -80 -111 -80 -18 0 -89 -45
-89 -56 0 -6 7 -18 16 -25 9 -7 20 -24 25 -37 12 -31 42 -25 49 9 6 32 119
167 141 168 8 1 30 -10 49 -24 24 -17 37 -22 46 -14 14 11 39 -9 49 -41 10
-31 54 -26 66 8 10 25 135 142 162 151 7 2 14 7 17 10 3 3 14 11 25 17 45 25
69 40 89 57 37 32 158 107 172 107 8 0 14 7 14 15 0 8 7 15 15 15 8 0 15 9 15
20 0 24 -17 26 -40 5 -16 -14 -23 -12 -86 31 -38 26 -72 51 -75 56 -3 5 -30
22 -60 37 -29 16 -74 45 -99 66 -25 20 -66 49 -92 65 -30 19 -48 37 -48 49 0
26 -50 39 -66 17 -6 -9 -14 -16 -18 -16 -9 0 -92 -56 -124 -84 l-23 -20 -29
29 c-25 26 -31 42 -42 123 -7 50 -17 92 -23 92 -5 0 -23 -12 -38 -25z m27 -51
c3 -9 6 -25 6 -37 0 -21 -1 -21 -26 5 -26 25 -26 48 1 48 7 0 16 -7 19 -16z
m-31 -60 c20 -23 37 -45 37 -50 0 -4 14 -23 31 -40 l32 -33 -34 -20 c-31 -19
-35 -19 -51 -4 -10 9 -32 45 -50 81 -17 37 -34 60 -36 54 -2 -7 2 -19 8 -28
21 -25 3 -27 -30 -4 -25 18 -28 25 -19 36 6 8 20 14 31 14 12 0 22 9 25 20 7
26 11 24 56 -26z m383 -82 c-8 -7 -76 22 -76 33 0 6 5 16 12 23 9 9 18 4 40
-20 15 -17 26 -33 24 -36z m54 -18 l25 -15 -25 7 c-14 3 -29 10 -34 15 -16 14
6 10 34 -7z m-339 -65 c-13 -11 -27 -17 -30 -13 -7 7 28 34 43 34 6 -1 0 -10
-13 -21z m-417 -64 c28 -8 65 -17 81 -21 l30 -7 -30 -13 c-16 -7 -40 -13 -51
-14 -12 0 -34 -7 -50 -15 -34 -17 -40 -13 -48 43 -7 48 -6 49 68 27z m596 -10
c0 -28 -18 -32 -52 -14 -21 11 -21 12 3 25 36 20 49 17 49 -11z m-120 -112
c49 -9 57 -13 40 -22 -8 -5 -32 -11 -52 -15 -31 -6 -39 -3 -48 14 -14 25 -4
44 19 34 9 -3 27 -9 41 -11z m-385 -93 c55 -6 106 -13 113 -15 20 -7 2 -27
-19 -22 -23 6 -172 -19 -199 -33 -34 -18 -40 -11 -40 41 0 48 1 51 23 45 12
-3 67 -11 122 -16z m305 -65 c0 -39 -7 -42 -36 -20 -19 15 -19 15 5 35 13 11
25 20 27 20 2 0 4 -16 4 -35z m295 -145 c-21 -23 -45 -26 -45 -6 0 14 17 22
49 25 11 1 10 -4 -4 -19z m-475 2 c0 -12 -23 -32 -37 -32 -19 0 -16 28 5 33
28 8 32 7 32 -1z m105 -92 c-21 -23 -35 -26 -35 -7 0 13 41 38 49 31 2 -2 -4
-13 -14 -24z"/>
</g>
</svg>
