<?xml version="1.0" standalone="no"?>
<!DOCTYPE svg PUBLIC "-//W3C//DTD SVG 20010904//EN"
 "http://www.w3.org/TR/2001/REC-SVG-20010904/DTD/svg10.dtd">
<svg version="1.0" xmlns="http://www.w3.org/2000/svg"
 width="330.000000pt" height="130.000000pt" viewBox="0 0 330.000000 130.000000"
 preserveAspectRatio="xMidYMid meet">
<metadata>
Created by potrace 1.16, written by Peter Selinger 2001-2019
</metadata>
<g transform="translate(0.000000,130.000000) scale(0.100000,-0.100000)"
fill="#000000" stroke="none">
<path d="M2980 1290 c0 -5 9 -10 19 -10 11 0 23 5 26 10 4 6 -5 10 -19 10 -14
0 -26 -4 -26 -10z"/>
<path d="M3262 1284 c-12 -8 -22 -21 -22 -28 0 -14 49 -106 56 -106 2 0 4 34
4 75 0 41 -3 75 -8 75 -4 0 -18 -7 -30 -16z"/>
<path d="M2312 1218 c-7 -7 -12 -18 -12 -25 0 -21 -29 -73 -40 -73 -6 0 -43
-32 -83 -71 -39 -39 -116 -104 -171 -143 -54 -39 -107 -77 -117 -85 -16 -11
-32 -12 -95 -1 -42 6 -130 11 -197 10 -210 -4 -531 6 -552 16 -28 15 -263 8
-282 -8 -13 -10 -14 -32 -10 -130 3 -65 3 -119 -1 -121 -18 -8 -195 13 -262
31 -147 40 -214 62 -224 72 -9 9 -45 15 -47 8 0 -3 -15 -138 -25 -239 -6 -55
6 -99 26 -99 5 0 29 17 53 38 27 24 66 45 103 56 188 56 186 55 364 69 20 2
25 -2 23 -18 -1 -11 -5 -93 -8 -182 -5 -134 -4 -163 7 -163 26 0 38 24 38 72
0 47 0 47 33 46 38 -1 214 19 270 31 20 5 40 4 43 0 3 -5 0 -43 -5 -85 -6 -41
-11 -86 -11 -100 0 -33 28 -31 36 4 4 15 12 34 19 42 7 8 15 42 18 74 3 32 9
62 14 67 17 16 295 50 466 56 98 3 180 10 182 14 3 4 2 15 -1 24 -6 14 -14 16
-43 10 -20 -4 -54 -7 -76 -6 -22 1 -139 -6 -261 -15 -121 -10 -229 -14 -239
-11 -20 8 -19 14 22 145 14 46 35 92 45 102 11 10 18 26 16 37 -4 22 -47 28
-126 18 -57 -7 -87 -28 -76 -54 3 -9 8 -41 9 -71 2 -30 6 -80 10 -111 6 -43 4
-57 -6 -61 -8 -2 -87 -3 -175 0 l-162 4 14 62 c8 33 18 70 23 81 5 11 19 46
32 78 13 37 30 62 43 67 25 11 338 48 451 54 44 3 148 11 230 19 141 14 206
13 205 -2 -1 -10 -70 -51 -86 -51 -8 0 -14 -5 -14 -10 0 -6 -21 -20 -47 -33
-38 -18 -48 -27 -48 -47 0 -20 6 -26 29 -30 30 -5 49 -30 24 -30 -19 -1 34
-40 54 -40 9 0 27 -4 40 -9 13 -5 50 -19 83 -31 84 -31 85 -31 235 -103 74
-36 153 -70 175 -77 46 -14 148 -75 179 -106 12 -12 41 -24 70 -28 l48 -8 -6
39 c-7 47 0 57 84 113 36 23 97 68 135 100 64 52 190 140 201 140 2 0 35 20
72 44 37 23 79 51 95 60 15 9 27 23 27 31 0 21 8 19 42 -10 36 -30 44 -31 58
-5 8 15 6 21 -9 30 -11 5 -23 19 -26 30 -3 11 -14 20 -23 20 -10 0 -33 11 -52
24 -19 13 -53 32 -75 43 -22 11 -70 39 -108 62 -37 23 -118 68 -180 100 -131
68 -255 143 -350 212 -69 50 -94 58 -115 37z m63 -38 c17 -27 265 -179 449
-274 99 -51 154 -87 161 -104 3 -9 0 -10 -13 -3 -9 4 -42 21 -72 35 -30 15
-62 31 -70 36 -8 6 -76 37 -150 71 -74 33 -166 76 -205 94 -38 19 -90 37 -113
41 -24 4 -46 13 -49 20 -5 14 36 94 48 94 4 0 11 -5 14 -10z m10 -150 c23 -11
64 -28 91 -38 76 -31 201 -89 284 -133 128 -67 198 -99 272 -123 40 -13 73
-27 75 -33 2 -5 -16 -18 -39 -29 -23 -10 -67 -34 -96 -51 -30 -18 -59 -33 -65
-33 -6 0 -29 -8 -51 -19 -88 -40 -114 -51 -123 -51 -10 0 -165 -79 -213 -108
-19 -12 -47 -22 -61 -22 -15 0 -55 -9 -89 -20 -34 -11 -77 -20 -95 -20 -31 0
-106 32 -135 58 -8 7 -49 30 -90 51 -67 33 -78 43 -98 86 -13 27 -32 60 -43
73 -10 14 -19 33 -19 42 0 26 142 195 250 297 115 110 145 119 245 73z m-452
-244 c-5 -9 -49 -61 -98 -115 -76 -84 -92 -98 -108 -89 -28 14 -33 39 -11 55
10 7 41 33 68 56 60 52 150 117 154 112 2 -2 0 -11 -5 -19z m-1045 -1 c3 -3
-9 -40 -26 -83 -17 -42 -34 -90 -38 -105 -3 -15 -11 -26 -18 -24 -11 4 -26
188 -17 216 3 10 16 12 49 7 25 -3 48 -8 50 -11z m591 1 c-2 -3 -45 -7 -94
-11 -103 -7 -241 -20 -368 -37 -48 -6 -90 -8 -94 -4 -3 3 4 17 17 31 l23 25
260 0 c143 0 258 -2 256 -4z m-234 -148 c7 -17 -49 -241 -61 -245 -7 -2 -12
193 -6 234 3 20 60 30 67 11z m-881 -38 c22 -10 69 -24 104 -31 35 -6 60 -15
55 -19 -4 -4 -42 -15 -83 -24 -41 -9 -99 -28 -128 -42 -29 -15 -55 -24 -56
-23 -2 2 -1 41 2 87 l5 83 29 -7 c17 -3 49 -14 72 -24z m1539 -49 c21 -40 37
-75 35 -77 -2 -2 -28 8 -57 21 -29 14 -59 25 -67 25 -24 0 -28 30 -7 53 11 12
23 30 27 40 10 31 29 14 69 -62z m967 -15 c0 -2 -48 -39 -106 -82 -59 -44
-139 -105 -180 -136 -41 -32 -78 -58 -83 -58 -11 0 -86 68 -80 74 12 11 95 46
109 46 9 0 40 11 68 25 29 14 56 25 61 25 4 0 21 10 36 22 41 32 175 97 175
84z m-1909 -186 c59 0 99 -4 99 -10 0 -5 -22 -10 -49 -10 -27 0 -85 -7 -128
-15 -43 -8 -79 -15 -80 -15 -2 0 -3 14 -3 31 0 30 2 31 31 25 17 -3 76 -6 130
-6z m1454 -85 c22 -18 37 -36 34 -40 -8 -7 -109 55 -109 66 0 19 37 6 75 -26z"/>
<path d="M664 405 c-3 -8 -3 -19 1 -25 11 -18 25 -11 25 15 0 27 -17 34 -26
10z"/>
</g>
</svg>
