<?xml version="1.0" standalone="no"?>
<!DOCTYPE svg PUBLIC "-//W3C//DTD SVG 20010904//EN"
 "http://www.w3.org/TR/2001/REC-SVG-20010904/DTD/svg10.dtd">
<svg version="1.0" xmlns="http://www.w3.org/2000/svg"
 width="194.000000pt" height="104.000000pt" viewBox="0 0 194.000000 104.000000"
 preserveAspectRatio="xMidYMid meet">
<metadata>
Created by potrace 1.16, written by Peter Selinger 2001-2019
</metadata>
<g transform="translate(0.000000,104.000000) scale(0.100000,-0.100000)"
fill="#000000" stroke="none">
<path d="M1068 943 c-16 -19 -33 -70 -43 -134 -3 -21 -12 -42 -19 -48 -19 -16
-216 1 -329 29 -49 12 -108 20 -138 18 -51 -3 -54 -5 -82 -49 -16 -26 -31 -66
-34 -89 -3 -23 -12 -44 -21 -47 -8 -4 -62 -1 -120 5 -123 14 -152 5 -152 -48
0 -50 36 -65 155 -65 55 0 106 -4 114 -9 10 -6 12 -25 6 -80 -5 -59 -4 -75 9
-85 13 -11 22 -11 44 -2 16 7 55 11 88 9 51 -3 59 -6 60 -23 2 -41 4 -45 24
-45 13 0 26 13 38 38 l18 37 109 -3 c109 -2 173 -15 187 -36 14 -21 -4 -150
-25 -178 -11 -14 -16 -31 -13 -37 11 -17 82 -13 96 4 14 17 80 50 122 60 19 5
32 1 47 -14 27 -27 50 -17 65 29 6 18 18 37 26 41 61 31 215 102 250 114 24 8
49 20 55 25 7 6 53 22 101 36 49 14 97 33 107 41 17 16 23 59 9 79 -8 13 -261
174 -273 174 -4 0 -65 43 -136 96 -70 53 -147 105 -171 115 -25 11 -57 28 -72
39 -35 25 -82 26 -102 3z m61 -77 c6 -8 26 -20 44 -27 18 -7 50 -27 72 -44 22
-18 54 -39 70 -48 17 -8 39 -24 50 -34 26 -24 100 -74 145 -96 78 -40 205
-124 205 -137 0 -7 -12 -17 -26 -20 -14 -4 -57 -23 -95 -43 -135 -69 -240
-117 -273 -123 l-34 -7 7 34 c4 19 12 65 17 104 7 57 6 72 -6 84 -34 35 -79
-60 -92 -194 -4 -41 -12 -69 -22 -78 -25 -21 -120 -59 -131 -52 -7 4 -7 25 -3
53 4 26 7 67 6 92 -1 25 5 103 14 173 8 70 16 183 18 250 1 67 3 123 4 125 3
7 20 0 30 -12z m-451 -165 c75 -11 176 -22 224 -26 56 -4 91 -12 99 -21 13
-16 6 -146 -12 -202 -13 -41 -32 -45 -151 -38 -51 3 -106 5 -121 6 -29 0 -29
0 -23 53 3 28 6 65 8 82 2 20 -2 30 -12 32 -29 5 -50 -24 -61 -83 -14 -75 -22
-84 -73 -84 -72 0 -75 6 -67 155 8 136 13 160 37 151 8 -3 76 -14 152 -25z"/>
</g>
</svg>
