<?xml version="1.0" standalone="no"?>
<!DOCTYPE svg PUBLIC "-//W3C//DTD SVG 20010904//EN"
 "http://www.w3.org/TR/2001/REC-SVG-20010904/DTD/svg10.dtd">
<svg version="1.0" xmlns="http://www.w3.org/2000/svg"
 width="182.000000pt" height="104.000000pt" viewBox="0 0 182.000000 104.000000"
 preserveAspectRatio="xMidYMid meet">
<metadata>
Created by potrace 1.16, written by Peter Selinger 2001-2019
</metadata>
<g transform="translate(0.000000,104.000000) scale(0.100000,-0.100000)"
fill="#000000" stroke="none">
<path d="M1625 961 c-45 -12 -174 -79 -230 -121 -27 -20 -78 -67 -111 -103
-48 -50 -66 -78 -79 -124 -21 -66 -31 -83 -52 -83 -12 0 -14 7 -9 33 11 53 32
251 28 269 -3 14 -7 16 -23 8 -15 -9 -19 -22 -19 -70 0 -75 -19 -211 -33 -227
-14 -19 -113 -17 -121 2 -3 8 -4 21 -2 28 3 6 7 67 10 135 6 115 5 122 -12
122 -16 0 -20 -11 -28 -77 -4 -43 -8 -109 -9 -148 l0 -70 -81 -3 -81 -3 4 103
c3 57 9 116 14 132 18 56 4 105 -23 78 -12 -12 -15 -36 -27 -185 -5 -66 -12
-121 -14 -124 -3 -2 -33 -6 -66 -8 l-61 -5 5 103 c3 56 8 121 10 145 4 36 2
42 -15 42 -24 0 -37 -47 -39 -140 0 -36 -4 -82 -7 -102 l-6 -38 -103 0 -104 0
-4 108 c-6 126 -17 194 -34 199 -24 8 -36 -48 -22 -102 17 -66 15 -185 -3
-197 -7 -5 -33 -5 -58 -1 -71 12 -143 10 -147 -4 -7 -19 33 -32 122 -40 l80
-8 -2 -35 c-1 -19 -5 -81 -9 -136 -7 -98 -6 -102 15 -113 12 -7 26 -9 31 -6
12 8 13 38 1 51 -5 5 -5 38 0 79 6 39 12 89 15 113 l5 42 100 0 100 0 -6 -102
c-8 -112 2 -158 33 -158 16 0 18 9 17 93 0 50 4 108 8 129 8 36 8 36 65 40 31
2 61 1 66 -3 4 -4 2 -48 -4 -97 -14 -98 -7 -182 14 -182 10 0 15 26 20 93 3
50 9 113 12 138 6 44 8 47 42 53 55 9 120 7 126 -3 4 -5 -1 -44 -10 -88 -32
-153 -31 -203 6 -203 17 0 19 6 18 53 -2 53 21 227 31 238 3 4 32 9 65 12 l59
6 -8 -92 c-4 -51 -8 -117 -9 -147 -1 -49 1 -55 19 -55 19 0 21 9 28 130 4 71
11 133 15 137 15 15 48 -21 61 -64 15 -52 51 -107 110 -170 32 -35 75 -62 157
-103 62 -30 118 -55 126 -55 34 1 51 29 53 87 1 32 7 83 13 114 6 31 9 110 7
175 -3 96 1 143 21 244 33 173 30 263 -11 267 -11 1 -33 -2 -50 -6z m23 -103
c2 -34 -5 -89 -19 -140 -18 -72 -21 -116 -24 -326 -1 -134 -6 -247 -12 -253
-5 -5 -30 3 -63 21 -30 16 -76 39 -102 51 -35 16 -62 40 -102 92 -55 72 -64
101 -21 73 13 -9 40 -25 60 -36 20 -11 46 -29 57 -40 11 -10 36 -26 55 -36 31
-14 37 -14 49 -2 13 12 8 19 -36 49 -27 19 -50 37 -50 41 0 4 -17 15 -37 24
-43 20 -149 89 -157 103 -13 20 9 41 94 87 85 46 250 175 250 195 0 31 -37 14
-117 -53 -86 -73 -219 -156 -230 -144 -15 14 25 93 75 148 69 78 95 99 162
134 30 15 71 38 90 51 19 13 44 22 55 21 17 -3 20 -12 23 -60z"/>
<path d="M0 36 l0 -23 258 -6 c141 -4 551 -7 910 -7 553 0 652 2 652 14 0 8
-6 16 -14 19 -14 6 -574 14 -1368 22 l-438 4 0 -23z"/>
</g>
</svg>
