<?xml version="1.0" standalone="no"?>
<!DOCTYPE svg PUBLIC "-//W3C//DTD SVG 20010904//EN"
 "http://www.w3.org/TR/2001/REC-SVG-20010904/DTD/svg10.dtd">
<svg version="1.0" xmlns="http://www.w3.org/2000/svg"
 width="186.000000pt" height="100.000000pt" viewBox="0 0 186.000000 100.000000"
 preserveAspectRatio="xMidYMid meet">
<metadata>
Created by potrace 1.16, written by Peter Selinger 2001-2019
</metadata>
<g transform="translate(0.000000,100.000000) scale(0.100000,-0.100000)"
fill="#000000" stroke="none">
<path d="M1070 780 c-30 -23 -76 -63 -103 -90 -40 -41 -55 -50 -85 -51 -104
-2 -239 0 -342 6 -109 7 -116 6 -134 -14 -11 -12 -25 -42 -31 -68 l-12 -48
-114 -5 c-63 -3 -120 -9 -126 -13 -7 -5 -13 -26 -13 -48 0 -29 4 -39 16 -39 9
0 22 7 29 16 14 19 170 31 194 15 12 -7 14 -30 12 -100 -1 -60 1 -91 8 -91 6
0 32 11 58 24 27 14 68 30 92 37 39 12 45 11 57 -6 8 -10 14 -27 14 -36 0 -45
47 -28 52 19 3 29 -1 28 154 31 17 1 41 10 54 21 22 19 23 19 73 0 86 -33 149
-107 157 -184 6 -63 25 -70 40 -15 22 79 55 110 135 124 67 12 215 65 315 112
52 25 120 54 150 64 58 21 70 32 70 66 0 28 -33 51 -150 103 -52 23 -126 57
-165 75 -38 18 -91 40 -118 49 -26 9 -81 32 -121 51 -41 19 -83 35 -93 35 -11
0 -44 -18 -73 -40z m70 -20 c0 -5 -5 -10 -11 -10 -5 0 -7 5 -4 10 3 6 8 10 11
10 2 0 4 -4 4 -10z m184 -82 c33 -10 81 -30 107 -44 27 -13 53 -24 58 -24 6 0
40 -13 76 -30 36 -16 69 -30 74 -30 4 0 16 -9 27 -21 18 -20 18 -21 -1 -36
-49 -36 -107 -64 -200 -97 -55 -19 -132 -48 -171 -64 -99 -41 -132 -48 -140
-27 -7 17 38 116 85 185 47 69 43 77 -40 85 -38 4 -73 4 -76 1 -3 -3 -7 -58
-9 -121 -2 -63 -7 -122 -12 -131 -7 -13 -29 2 -126 87 -64 57 -116 107 -116
110 0 12 134 126 169 144 72 37 207 43 295 13z m-873 -101 c-13 -13 -26 -3
-16 12 3 6 11 8 17 5 6 -4 6 -10 -1 -17z m399 5 c0 -10 -36 -43 -73 -66 -58
-36 -60 -104 -2 -78 21 10 32 9 55 -3 37 -19 40 -45 5 -45 -15 0 -38 -6 -53
-14 -24 -12 -48 -13 -125 -7 -16 1 -17 6 -12 34 4 17 13 39 21 48 23 26 16 37
-26 44 -55 9 -68 -4 -72 -73 l-3 -57 -45 -6 c-68 -9 -95 2 -94 37 5 95 43 164
90 164 13 0 25 4 28 9 3 5 65 9 137 9 72 1 134 3 137 7 8 8 32 6 32 -3z"/>
<path d="M1852 360 c0 -19 2 -27 5 -17 2 9 2 25 0 35 -3 9 -5 1 -5 -18z"/>
<path d="M1848 220 c-4 -19 -16 -73 -27 -120 -25 -106 -26 -102 2 -98 20 3 23
11 30 78 4 41 6 98 5 125 -3 48 -3 49 -10 15z"/>
<path d="M990 183 c-8 -3 -30 -12 -49 -21 -32 -15 -35 -14 -48 4 -12 16 -15
17 -23 4 -6 -8 -9 -26 -8 -40 4 -33 33 -37 104 -14 58 18 82 42 62 62 -13 13
-15 13 -38 5z"/>
<path d="M837 24 c-14 -14 -6 -24 19 -24 16 0 24 5 22 13 -5 14 -31 21 -41 11z"/>
</g>
</svg>
