<?xml version="1.0" standalone="no"?>
<!DOCTYPE svg PUBLIC "-//W3C//DTD SVG 20010904//EN"
 "http://www.w3.org/TR/2001/REC-SVG-20010904/DTD/svg10.dtd">
<svg version="1.0" xmlns="http://www.w3.org/2000/svg"
 width="364.000000pt" height="120.000000pt" viewBox="0 0 364.000000 120.000000"
 preserveAspectRatio="xMidYMid meet">
<metadata>
Created by potrace 1.16, written by Peter Selinger 2001-2019
</metadata>
<g transform="translate(0.000000,120.000000) scale(0.100000,-0.100000)"
fill="#000000" stroke="none">
<path d="M2563 1078 c-35 -39 -78 -137 -65 -150 8 -8 18 -6 38 7 24 15 34 16
78 6 28 -6 92 -20 142 -31 50 -11 103 -24 118 -30 34 -13 145 -37 211 -45 28
-4 61 -13 75 -20 26 -14 57 -25 130 -46 25 -7 49 -16 54 -21 13 -10 96 -11 96
0 0 11 -70 46 -135 68 -27 9 -68 24 -90 34 -22 10 -67 28 -100 40 -33 13 -64
26 -70 30 -5 4 -28 13 -50 20 -22 7 -45 16 -50 21 -6 4 -47 21 -90 38 -85 31
-189 75 -217 91 -28 16 -53 12 -75 -12z m171 -72 c61 -24 136 -52 166 -61 30
-10 77 -29 105 -41 l50 -24 -40 6 c-22 3 -69 14 -105 24 -76 21 -244 66 -280
74 -44 10 -53 21 -41 45 7 11 17 21 23 21 6 0 61 -20 122 -44z"/>
<path d="M2405 1009 c-120 -27 -448 -89 -472 -89 -43 0 -56 -14 -55 -54 l1
-36 -102 1 c-56 1 -180 -2 -275 -5 -152 -7 -191 -5 -320 15 -81 12 -169 22
-197 21 -118 -5 -176 -3 -211 7 -44 12 -74 0 -74 -29 0 -11 4 -20 8 -20 10 0
32 -89 32 -127 l0 -26 -104 7 c-120 8 -245 30 -284 50 -15 8 -36 23 -46 35
-24 27 -37 26 -64 -2 -21 -22 -22 -32 -21 -161 1 -99 5 -139 14 -142 12 -5 33
6 190 101 l80 49 118 2 c104 2 118 0 127 -15 5 -10 6 -21 3 -25 -7 -7 -32
-184 -33 -233 0 -42 18 -43 60 -3 21 20 43 30 64 30 17 0 72 7 121 15 171 29
361 43 660 49 46 1 43 18 30 -166 -7 -105 -7 -108 13 -108 16 0 23 8 28 38 4
20 10 42 14 47 4 6 8 28 8 50 1 42 27 175 42 210 4 11 27 69 51 129 23 60 52
120 65 135 l22 26 13 -28 c14 -31 44 -36 58 -8 6 10 25 24 43 31 18 8 78 35
133 60 119 56 190 84 265 105 68 19 77 25 82 50 4 24 -24 28 -87 14z m-165
-88 c-44 -25 -273 -112 -284 -108 -8 3 -17 18 -20 33 -9 34 5 44 60 44 22 0
44 3 48 8 10 9 119 29 171 30 27 1 35 -1 25 -7z m-1130 -122 c182 -23 187 -24
155 -31 -16 -4 -56 -7 -88 -8 -32 0 -97 -7 -145 -15 -48 -8 -98 -15 -112 -15
-23 0 -22 3 20 45 36 35 50 43 70 39 14 -3 59 -9 100 -15z m-269 -9 c27 0 24
-24 -13 -89 l-33 -56 -7 65 c-9 74 -5 95 18 86 9 -3 24 -6 35 -6z m823 -21
c11 -11 20 -286 9 -292 -11 -7 -439 -12 -710 -9 l-173 2 0 29 c0 39 18 87 52
137 30 45 77 64 157 64 23 0 60 4 83 10 24 5 92 14 153 20 64 7 116 17 125 25
8 7 33 16 55 18 56 6 242 3 249 -4z m145 -5 c2 -2 -13 -50 -34 -106 -20 -57
-42 -117 -49 -134 -9 -27 -11 -9 -10 105 0 75 1 139 2 143 2 6 83 -1 91 -8z
m-1507 -105 c12 -7 44 -14 71 -18 28 -3 52 -11 54 -17 3 -10 -112 -74 -134
-74 -10 0 -23 53 -23 98 0 25 3 26 32 11z m573 -238 l40 -7 -30 -7 c-85 -18
-115 -19 -115 -5 0 30 26 34 105 19z"/>
<path d="M3493 716 c-7 -8 -49 -26 -95 -41 -91 -30 -188 -66 -258 -97 -65 -29
-381 -177 -410 -192 -39 -21 -125 -47 -178 -54 -55 -8 -67 -32 -30 -61 33 -27
15 -38 -29 -17 -20 10 -58 24 -83 32 -25 8 -54 19 -65 24 -11 5 -45 17 -75 28
-30 11 -80 31 -110 45 -30 13 -66 28 -80 32 -25 7 -70 25 -124 51 -16 8 -34
14 -41 14 -6 0 -21 9 -33 21 -25 22 -51 22 -62 -1 -16 -34 -33 -87 -34 -110
-1 -23 3 -25 79 -36 44 -7 103 -19 130 -27 50 -15 103 -25 245 -48 41 -6 94
-22 117 -35 23 -13 53 -24 67 -24 15 0 61 -9 104 -21 l77 -20 25 29 c28 34 95
81 185 132 33 19 87 53 120 77 32 24 64 43 70 43 6 0 36 12 66 26 30 14 79 37
109 50 30 14 82 38 115 54 92 45 206 83 250 84 36 1 40 4 43 29 3 26 1 27 -40
27 -24 -1 -48 -7 -55 -14z m-1541 -287 c39 -17 98 -41 132 -54 33 -13 79 -33
101 -45 l40 -21 -35 6 c-55 10 -261 62 -305 78 -22 8 -40 19 -39 26 1 6 2 18
3 26 2 22 25 19 103 -16z m798 -89 c-14 -11 -50 -33 -81 -50 -49 -26 -58 -28
-69 -15 -10 12 -9 16 6 21 11 3 46 18 79 34 71 34 102 39 65 10z"/>
</g>
</svg>
