<?xml version="1.0" standalone="no"?>
<!DOCTYPE svg PUBLIC "-//W3C//DTD SVG 20010904//EN"
 "http://www.w3.org/TR/2001/REC-SVG-20010904/DTD/svg10.dtd">
<svg version="1.0" xmlns="http://www.w3.org/2000/svg"
 width="212.000000pt" height="102.000000pt" viewBox="0 0 212.000000 102.000000"
 preserveAspectRatio="xMidYMid meet">
<metadata>
Created by potrace 1.16, written by Peter Selinger 2001-2019
</metadata>
<g transform="translate(0.000000,102.000000) scale(0.100000,-0.100000)"
fill="#000000" stroke="none">
<path d="M1260 848 c-11 -18 -25 -49 -31 -68 -17 -53 -27 -60 -79 -60 -61 0
-79 -7 -90 -35 -8 -20 -18 -23 -107 -30 -54 -4 -174 -8 -267 -10 -140 -2 -171
-5 -180 -18 -12 -15 -12 -61 0 -109 6 -27 5 -28 -37 -28 -54 0 -176 45 -192
71 -8 13 -23 19 -49 19 -57 0 -78 -34 -78 -124 0 -151 30 -179 110 -105 63 57
84 65 177 73 l82 6 6 -55 c4 -31 5 -68 2 -84 -13 -66 31 -104 76 -64 23 21 89
43 126 43 21 0 22 -4 20 -80 -1 -44 1 -83 5 -87 3 -3 15 2 26 12 17 15 19 30
18 103 -1 76 1 86 18 93 10 4 29 5 41 2 13 -3 62 0 110 6 49 6 105 14 126 16
36 5 37 4 37 -25 0 -27 -4 -30 -39 -36 -52 -8 -64 -17 -56 -43 4 -13 20 -24
44 -31 38 -10 63 -32 94 -82 23 -36 57 -36 99 0 68 59 200 154 205 148 3 -3 0
-26 -6 -51 -17 -67 3 -86 47 -45 19 18 22 32 22 89 0 68 0 69 33 84 17 8 91
34 162 57 72 24 152 53 179 66 28 13 55 24 62 24 6 0 17 7 24 15 7 8 25 15 40
15 15 0 33 7 40 15 10 13 10 19 -5 35 -10 11 -25 20 -34 20 -9 0 -41 9 -71 21
-30 12 -104 36 -165 53 -148 44 -388 140 -452 182 -29 19 -57 34 -63 34 -6 0
-19 -15 -30 -32z m117 -90 c76 -28 79 -43 7 -34 -86 10 -104 16 -104 35 0 24
11 33 29 25 9 -3 40 -15 68 -26z m117 -94 c23 -8 77 -21 120 -29 43 -8 89 -21
102 -30 12 -8 64 -24 115 -35 51 -11 97 -24 102 -29 9 -9 -53 -35 -173 -73
-36 -11 -83 -29 -106 -39 -48 -22 -94 -25 -94 -5 0 7 18 34 40 59 41 47 49 70
28 84 -21 13 -180 3 -205 -13 -24 -15 -31 -52 -14 -69 16 -16 29 -91 19 -109
-5 -9 -20 -16 -33 -16 -12 0 -64 -14 -115 -31 -50 -17 -94 -29 -96 -26 -7 6
-7 28 0 112 13 163 26 208 73 250 27 25 32 26 112 20 47 -4 103 -13 125 -21z
m-316 -19 c-6 -14 -15 -25 -20 -25 -4 0 -8 11 -8 25 0 18 5 25 20 25 17 0 18
-3 8 -25z m-60 -47 c17 -55 24 -165 13 -186 -9 -17 -25 -21 -98 -26 -49 -4
-116 -9 -150 -12 -35 -2 -63 -1 -63 3 0 4 23 28 51 54 66 61 62 83 -14 93 -28
3 -64 9 -78 12 -50 11 -75 -52 -49 -122 6 -15 7 -31 3 -35 -5 -5 -41 -6 -81
-2 -69 6 -72 7 -72 32 0 14 19 55 43 90 53 81 72 88 282 103 88 6 167 15 175
19 24 13 28 11 38 -23z m-528 -37 c0 -21 -23 -45 -33 -34 -4 3 -7 17 -7 30 0
16 6 23 20 23 13 0 20 -7 20 -19z m-333 -83 c21 -20 22 -23 6 -40 -22 -24 -39
-23 -47 5 -16 59 1 73 41 35z m1273 16 c0 -15 -36 -64 -45 -61 -12 4 -19 33
-11 53 5 13 56 21 56 8z m-733 -58 c-4 -9 -11 -16 -17 -16 -11 0 -14 33 -3 43
11 11 26 -10 20 -27z m-133 -115 c8 -12 -53 -63 -68 -58 -13 4 -20 33 -12 53
6 16 71 20 80 5z m661 -75 c-61 -50 -105 -59 -105 -22 0 15 69 44 110 45 l25
1 -30 -24z"/>
<path d="M1535 122 c-18 -13 -42 -56 -49 -90 l-8 -32 101 0 c77 0 101 3 101
13 0 8 -11 20 -25 27 -23 12 -31 11 -70 -8 -41 -20 -45 -20 -45 -4 1 9 7 28
15 42 26 45 13 76 -20 52z"/>
<path d="M1828 3 c12 -2 30 -2 40 0 9 3 -1 5 -23 4 -22 0 -30 -2 -17 -4z"/>
</g>
</svg>
