<?xml version="1.0" standalone="no"?>
<!DOCTYPE svg PUBLIC "-//W3C//DTD SVG 20010904//EN"
 "http://www.w3.org/TR/2001/REC-SVG-20010904/DTD/svg10.dtd">
<svg version="1.0" xmlns="http://www.w3.org/2000/svg"
 width="210.000000pt" height="112.000000pt" viewBox="0 0 210.000000 112.000000"
 preserveAspectRatio="xMidYMid meet">
<metadata>
Created by potrace 1.16, written by Peter Selinger 2001-2019
</metadata>
<g transform="translate(0.000000,112.000000) scale(0.100000,-0.100000)"
fill="#000000" stroke="none">
<path d="M667 1083 c-12 -15 -57 -63 -99 -106 -92 -93 -101 -122 -40 -132 56
-10 102 -25 102 -35 0 -9 -68 -19 -160 -23 l-55 -2 2 -35 c2 -39 15 -74 39
-107 15 -21 15 -21 -53 -29 -75 -8 -207 9 -255 33 -40 20 -54 12 -62 -39 -10
-60 31 -218 56 -218 9 0 43 23 75 51 32 28 80 62 107 75 61 29 134 33 142 7
21 -72 64 -93 74 -38 5 28 9 30 53 33 46 3 47 3 47 -27 0 -16 -4 -33 -10 -36
-30 -18 -150 -55 -181 -55 -36 0 -69 -23 -69 -48 0 -25 52 -93 92 -122 66 -48
108 -34 108 35 0 15 16 57 35 94 35 67 36 67 111 96 41 16 77 32 80 36 2 4 43
26 89 48 47 22 85 43 85 47 0 4 -16 24 -35 45 -19 22 -35 44 -35 49 0 10 30
15 60 11 8 -1 71 -3 140 -5 122 -3 220 -21 281 -52 15 -7 80 -27 145 -44 66
-17 136 -35 157 -41 44 -12 49 -29 8 -29 -27 0 -207 -43 -306 -73 -28 -9 -94
-25 -147 -37 -85 -19 -106 -21 -161 -11 -35 6 -79 11 -98 11 -19 0 -47 7 -63
15 -37 19 -49 19 -69 -2 -30 -34 -30 -83 -1 -168 15 -44 31 -85 36 -92 12 -15
36 -7 73 27 38 35 136 85 203 105 14 4 22 14 22 29 0 24 -1 24 130 56 19 5 85
22 145 39 61 17 170 39 243 51 l133 20 75 -21 c42 -11 82 -18 90 -15 23 9 16
36 -13 47 -57 20 -58 22 -14 30 51 10 66 21 58 43 -8 20 -31 20 -130 1 -43 -8
-88 -15 -99 -15 -20 0 -20 1 -5 18 19 21 22 38 7 47 -17 10 -38 -14 -33 -35 3
-11 2 -20 -2 -20 -12 0 -252 69 -326 94 -182 61 -205 73 -280 136 -41 34 -84
67 -96 72 -11 6 -29 26 -39 44 -21 39 -41 48 -77 35 -32 -12 -35 -18 -72 -120
-16 -47 -35 -86 -41 -88 -6 -2 -25 10 -43 26 -24 22 -30 35 -26 53 3 13 -4 50
-15 83 -11 33 -23 87 -27 120 -9 89 -28 106 -66 58z m13 -145 c21 -47 26 -88
10 -88 -6 0 -21 6 -33 14 -12 8 -42 17 -66 21 l-45 7 50 44 c27 24 53 43 57
44 4 0 17 -19 27 -42z m340 -85 c18 -16 45 -38 59 -50 l26 -22 -37 -15 c-41
-18 -123 -21 -133 -7 -3 5 1 27 9 48 8 21 17 46 20 56 7 23 16 22 56 -10z
m-410 -112 c0 -5 -16 -21 -35 -35 -19 -15 -35 -33 -35 -41 0 -8 -4 -16 -9 -19
-12 -8 -64 81 -56 94 8 12 135 13 135 1z m130 -6 c19 -23 5 -42 -35 -49 -20
-4 -43 -10 -51 -13 -27 -10 -14 25 19 51 37 30 50 32 67 11z m-105 -131 c0
-25 -3 -29 -25 -26 -52 5 -56 12 -25 37 37 30 50 27 50 -11z m90 6 c-17 -33
-30 -38 -39 -14 -13 33 -6 44 24 44 l31 0 -16 -30z m147 13 c23 -21 23 -40 -1
-48 -11 -3 -36 -17 -56 -30 -19 -14 -47 -28 -61 -31 l-25 -6 26 48 c41 79 79
101 117 67z m-599 -63 c5 -4 -6 -18 -25 -31 -18 -13 -42 -31 -52 -41 -23 -21
-29 -16 -44 30 -18 54 -8 65 57 57 31 -4 60 -10 64 -15z m299 -176 c7 -6 -19
-62 -40 -86 -18 -21 -27 -16 -47 23 l-16 29 43 20 c49 21 53 22 60 14z m396
-24 c6 0 12 -9 12 -19 0 -12 10 -23 28 -29 l27 -9 -48 -24 c-55 -27 -66 -21
-77 40 -8 46 -4 54 25 47 11 -3 26 -6 33 -6z"/>
<path d="M0 10 c0 -5 10 -10 23 -10 18 0 19 2 7 10 -19 13 -30 13 -30 0z"/>
</g>
</svg>
