<?xml version="1.0" standalone="no"?>
<!DOCTYPE svg PUBLIC "-//W3C//DTD SVG 20010904//EN"
 "http://www.w3.org/TR/2001/REC-SVG-20010904/DTD/svg10.dtd">
<svg version="1.0" xmlns="http://www.w3.org/2000/svg"
 width="296.000000pt" height="172.000000pt" viewBox="0 0 296.000000 172.000000"
 preserveAspectRatio="xMidYMid meet">
<metadata>
Created by potrace 1.16, written by Peter Selinger 2001-2019
</metadata>
<g transform="translate(0.000000,172.000000) scale(0.100000,-0.100000)"
fill="#000000" stroke="none">
<path d="M2579 1657 c-20 -9 -196 -11 -658 -10 -347 1 -659 -1 -694 -5 -56 -6
-63 -10 -77 -37 -20 -39 -123 -136 -235 -220 l-90 -67 -160 5 c-194 7 -368 36
-397 67 -15 16 -23 18 -38 10 -34 -18 -48 -52 -54 -135 -3 -44 -8 -105 -12
-136 -9 -80 8 -83 105 -20 80 52 102 62 246 106 50 16 100 34 111 42 12 8 44
13 70 12 27 0 93 0 147 1 82 1 102 -1 118 -16 10 -9 22 -14 25 -11 4 3 21 41
40 84 47 108 98 180 137 192 45 14 250 49 397 68 92 12 218 16 477 17 l352 1
16 -45 c9 -25 23 -65 32 -90 8 -25 31 -82 50 -127 19 -44 32 -86 29 -91 -4 -6
-34 -11 -69 -11 -34 0 -129 -7 -212 -14 -199 -18 -465 -22 -465 -8 0 7 16 43
36 83 45 90 42 124 -12 113 -20 -3 -50 -15 -67 -26 -37 -22 -67 -25 -67 -6 0
6 9 27 21 46 37 62 10 77 -69 38 -26 -13 -80 -34 -119 -47 -40 -14 -75 -31
-78 -38 -3 -8 4 -24 16 -36 33 -34 71 -98 62 -106 -12 -12 -235 15 -268 33
-17 8 -38 25 -47 36 -32 37 -48 24 -72 -58 -16 -55 -21 -155 -10 -185 9 -25
29 -19 83 22 27 20 83 48 123 61 40 14 77 28 83 33 5 4 40 8 77 8 65 0 69 -1
87 -31 10 -17 22 -54 25 -82 8 -57 29 -97 51 -97 25 0 26 17 5 96 -27 98 -23
107 36 100 57 -7 60 -9 69 -43 3 -16 19 -48 35 -71 16 -24 31 -49 33 -55 5
-16 37 0 37 19 0 9 -16 41 -36 71 -19 29 -32 58 -29 63 4 6 68 10 158 10 133
0 304 12 538 36 56 5 67 4 72 -10 4 -10 -3 -25 -17 -38 -13 -13 -36 -43 -51
-68 -59 -95 -166 -197 -194 -183 -9 4 -182 11 -386 14 -203 4 -395 11 -425 16
-49 7 -55 11 -52 30 2 12 -2 24 -8 28 -5 3 -97 2 -202 -4 -368 -20 -382 -18
-308 31 19 13 35 30 35 38 0 13 -44 15 -300 16 -165 0 -315 -4 -332 -9 -39
-10 -42 -29 -8 -45 24 -11 24 -14 19 -94 -3 -46 -10 -110 -15 -143 -6 -33 -13
-102 -15 -152 -3 -87 -2 -93 16 -93 19 0 20 -5 14 -103 -3 -56 -15 -136 -25
-179 -23 -94 -23 -108 -2 -153 18 -37 28 -40 84 -25 27 8 39 19 53 50 31 71
313 370 388 412 39 22 55 45 40 60 -4 4 -100 1 -213 -7 -300 -22 -305 -21
-226 30 23 15 53 38 67 50 14 13 36 26 50 30 26 8 86 58 214 178 40 37 77 67
83 67 7 0 13 -35 16 -87 7 -105 19 -172 41 -232 9 -24 16 -52 16 -63 0 -11 9
-22 20 -25 16 -4 18 -9 9 -25 -6 -11 -8 -26 -5 -34 9 -22 44 -16 58 10 19 36
320 367 341 375 6 2 7 -10 2 -35 -9 -53 -20 -71 -53 -86 -20 -10 -26 -20 -25
-38 1 -14 4 -66 7 -116 2 -50 8 -107 11 -126 4 -20 2 -51 -3 -71 -9 -31 -7
-38 10 -54 16 -14 19 -26 14 -59 -3 -27 -1 -48 9 -60 13 -19 14 -18 42 2 29
22 179 85 259 109 25 7 54 21 64 30 31 28 389 45 397 18 2 -4 -5 -42 -15 -83
l-18 -75 -38 1 c-21 1 -65 10 -97 19 -44 14 -63 15 -71 7 -13 -13 -30 -105
-32 -172 -1 -39 2 -45 21 -48 12 -2 42 6 67 17 25 12 57 21 72 21 15 0 32 6
38 14 6 8 67 33 134 56 121 41 127 42 300 49 168 6 177 7 177 26 0 18 -8 20
-62 23 l-62 3 6 37 c2 20 9 46 13 57 5 11 23 59 39 107 22 64 47 111 93 174
114 157 214 279 241 297 50 33 30 60 -33 46 -19 -5 -43 -6 -53 -3 -10 3 -57 1
-105 -5 -208 -24 -202 -24 -202 -3 0 24 63 154 83 170 12 10 21 11 37 2 12 -6
28 -9 37 -6 13 6 13 9 -1 31 -9 13 -16 31 -16 39 0 8 36 51 80 95 80 81 93
101 65 101 -16 0 -103 -83 -130 -124 -10 -14 -23 -26 -30 -26 -20 0 -44 96
-46 176 -2 74 25 157 64 201 19 21 20 54 2 59 -5 1 -22 -3 -36 -9z m-1190 -52
c-7 -7 -147 -35 -175 -35 -35 0 -30 18 9 29 33 9 174 15 166 6z m1157 -12
c-41 -112 -55 -125 -77 -70 -7 17 -14 35 -17 40 -3 6 71 45 92 46 4 1 5 -7 2
-16z m-936 -185 c0 -21 -48 -132 -58 -136 -10 -3 -62 79 -62 97 0 12 76 49
103 50 9 1 17 -5 17 -11z m-601 -20 c-1 -27 -36 -73 -57 -76 -33 -5 -28 31 9
62 33 28 49 33 48 14z m771 -32 c0 -15 -41 -96 -48 -96 -5 0 -15 14 -23 31
-12 29 -11 33 10 50 20 17 61 26 61 15z m-1479 -40 c24 -8 84 -20 134 -26 123
-16 125 -20 24 -46 -35 -9 -99 -34 -143 -55 -43 -22 -80 -38 -83 -35 -3 2 0
13 6 23 5 11 7 35 3 54 -8 40 -4 99 7 99 4 0 27 -6 52 -14z m1379 -43 c11 -26
17 -50 12 -55 -13 -13 -92 2 -92 17 0 15 25 77 36 87 11 12 22 0 44 -49z
m-445 -52 l60 -19 -37 -16 c-21 -9 -40 -16 -44 -16 -3 0 -17 -9 -31 -20 -34
-27 -46 -16 -38 34 11 65 6 63 90 37z m-416 -198 c-1 -24 -182 -191 -227 -210
-19 -8 -49 -27 -66 -43 -106 -95 -175 -150 -190 -150 -10 0 -7 51 9 160 9 57
15 113 14 124 0 12 -1 45 0 75 l1 53 58 -7 c90 -12 288 -5 395 14 4 0 7 -7 6
-16z m506 -73 c6 -10 -21 -41 -159 -184 -22 -23 -75 -80 -118 -128 -44 -49
-83 -88 -89 -88 -5 0 -9 15 -9 33 0 17 -7 50 -14 72 -20 57 -48 254 -38 271 6
11 48 15 196 19 104 2 191 7 194 10 9 9 30 6 37 -5z m1085 -25 c-7 -9 -15 -13
-18 -10 -3 2 1 11 8 20 7 9 15 13 18 10 3 -2 -1 -11 -8 -20z m368 -18 c6 -18
0 -28 -27 -41 -15 -8 -43 -39 -61 -68 -18 -29 -43 -68 -54 -85 -25 -38 -51
-45 -43 -10 2 12 12 58 22 102 24 115 24 115 98 112 34 -2 63 -6 65 -10z
m-194 -6 c10 -15 -82 -374 -134 -525 -17 -48 -29 -100 -28 -114 l3 -27 -164
-8 c-91 -4 -168 -4 -173 1 -23 23 59 230 145 365 56 87 47 118 -24 82 -34 -18
-52 -12 -44 16 7 22 12 22 -165 9 -73 -5 -129 -5 -134 0 -5 5 9 28 35 55 50
52 61 74 47 93 -11 13 -10 13 162 17 92 2 99 0 223 -48 104 -40 130 -47 142
-37 22 18 19 27 -15 47 -54 32 -35 69 40 76 25 2 53 4 62 5 9 1 19 -2 22 -7z
m-931 -15 c105 -1 139 -9 75 -18 -52 -8 -238 -58 -316 -85 -24 -8 -45 -13 -48
-11 -2 3 -1 33 3 68 l6 63 86 -8 c47 -5 134 -9 194 -9z m737 -6 c0 -11 -6 -20
-14 -20 -21 0 -31 21 -15 31 22 14 29 11 29 -11z m-470 -24 c0 -11 -19 -15
-25 -6 -3 5 1 10 9 10 9 0 16 -2 16 -4z m-201 -62 c13 -17 21 -41 21 -65 l0
-39 -138 0 c-76 0 -142 3 -145 6 -15 15 36 63 85 82 125 48 150 50 177 16z
m151 2 c0 -7 -9 -25 -20 -39 -11 -14 -20 -30 -20 -36 0 -6 -9 -15 -19 -21 -17
-9 -20 -5 -26 41 -8 58 0 69 53 69 20 0 32 -5 32 -14z m-460 -76 c0 -5 -11
-26 -25 -46 -14 -20 -35 -63 -46 -95 -32 -87 -44 -76 -43 39 1 92 2 97 22 94
12 -2 34 3 49 12 28 14 43 13 43 -4z m67 -76 c5 -15 -63 -58 -77 -49 -11 7 4
44 24 58 15 10 49 4 53 -9z m273 -29 c0 -19 -3 -36 -7 -38 -5 -3 -72 -8 -151
-12 -128 -7 -142 -6 -136 8 11 30 106 66 190 73 43 4 81 8 83 10 11 9 21 -11
21 -41z m343 33 c2 -7 1 -23 -4 -35 -7 -20 -15 -23 -68 -23 -33 0 -94 -5 -137
-11 -85 -12 -97 -6 -85 40 7 24 12 26 77 32 134 11 212 10 217 -3z m102 -18
c5 -9 -35 -93 -56 -114 -12 -13 -12 66 1 98 10 26 43 36 55 16z m-1581 -212
c-79 -79 -153 -152 -165 -163 -12 -11 -41 -42 -64 -70 -24 -27 -47 -46 -51
-42 -4 4 -2 40 6 80 7 40 16 125 19 189 3 64 8 119 11 122 3 3 49 6 102 7 53
1 123 5 155 9 147 19 148 28 -13 -132z m1460 70 c-8 -45 -12 -52 -29 -49 -18
3 -159 2 -240 -2 -29 -2 -30 -1 -27 38 2 22 9 45 15 52 14 13 267 33 281 21 5
-4 5 -29 0 -60z m-612 43 c21 -2 -8 -30 -37 -35 -18 -4 -44 -15 -58 -26 -30
-24 -44 -11 -26 22 23 46 24 46 121 39z m269 -3 c3 -36 -4 -85 -14 -97 -9 -11
-35 -12 -127 -7 -196 12 -211 15 -173 34 26 13 242 71 306 81 4 0 7 -5 8 -11z
m-247 -144 l68 -6 -28 -17 c-35 -20 -176 -73 -181 -67 -6 6 -11 90 -6 99 2 4
21 5 41 2 20 -2 68 -7 106 -11z m565 -210 c2 -2 -9 -8 -25 -15 -16 -6 -61 -27
-100 -45 -40 -19 -75 -34 -78 -34 -9 0 -7 56 4 84 9 25 10 25 102 19 51 -3 95
-7 97 -9z"/>
<path d="M2038 63 c7 -3 16 -2 19 1 4 3 -2 6 -13 5 -11 0 -14 -3 -6 -6z"/>
<path d="M128 33 c6 -2 18 -2 25 0 6 3 1 5 -13 5 -14 0 -19 -2 -12 -5z"/>
<path d="M2950 25 c0 -13 -61 -15 -467 -18 l-468 -2 473 -3 c466 -2 472 -2
472 18 0 11 -2 20 -5 20 -3 0 -5 -7 -5 -15z"/>
<path d="M0 10 c0 -5 5 -10 11 -10 5 0 7 5 4 10 -3 6 -8 10 -11 10 -2 0 -4 -4
-4 -10z"/>
<path d="M988 3 c18 -2 45 -2 60 0 15 2 0 4 -33 4 -33 0 -45 -2 -27 -4z"/>
<path d="M1528 3 c39 -2 105 -2 145 0 39 1 7 3 -73 3 -80 0 -112 -2 -72 -3z"/>
<path d="M1883 3 c26 -2 67 -2 90 0 23 2 2 3 -48 3 -49 0 -68 -1 -42 -3z"/>
</g>
</svg>
