<?xml version="1.0" standalone="no"?>
<!DOCTYPE svg PUBLIC "-//W3C//DTD SVG 20010904//EN"
 "http://www.w3.org/TR/2001/REC-SVG-20010904/DTD/svg10.dtd">
<svg version="1.0" xmlns="http://www.w3.org/2000/svg"
 width="190.000000pt" height="92.000000pt" viewBox="0 0 190.000000 92.000000"
 preserveAspectRatio="xMidYMid meet">
<metadata>
Created by potrace 1.16, written by Peter Selinger 2001-2019
</metadata>
<g transform="translate(0.000000,92.000000) scale(0.100000,-0.100000)"
fill="#000000" stroke="none">
<path d="M996 779 c-16 -12 -26 -30 -26 -45 0 -14 -5 -35 -11 -46 -11 -20 -17
-21 -128 -14 -64 3 -156 11 -206 17 -110 14 -160 0 -170 -48 -19 -92 -25 -101
-69 -105 -23 -1 -82 0 -132 3 -95 6 -124 -1 -124 -29 0 -33 37 -43 161 -44
134 0 140 -4 132 -68 -3 -23 1 -48 11 -68 16 -31 17 -32 79 -26 34 3 70 7 80
9 11 2 23 -7 34 -28 l16 -31 32 37 33 37 103 -1 c57 -1 110 -6 117 -11 8 -7
12 -39 12 -92 0 -82 9 -106 39 -106 8 0 24 8 35 18 12 10 47 26 78 36 53 15
59 16 82 1 22 -14 25 -14 40 0 9 9 16 20 16 24 0 18 136 79 237 106 29 8 70
25 90 38 21 13 49 27 63 31 14 4 34 11 45 16 11 5 32 11 47 14 39 9 54 41 33
72 -9 14 -24 28 -33 31 -9 3 -96 42 -192 88 -96 45 -195 88 -220 96 -25 7 -87
35 -139 61 -105 54 -127 57 -165 27z m82 -67 c45 -31 157 -82 224 -101 35 -11
125 -49 201 -86 111 -54 136 -70 125 -79 -27 -24 -344 -156 -374 -156 -18 0
-19 53 -2 115 13 48 4 71 -24 60 -22 -9 -39 -52 -45 -115 -8 -99 -6 -96 -82
-119 -38 -12 -75 -21 -81 -21 -12 0 -8 109 7 220 3 19 6 87 7 150 4 171 1 162
44 132z m-307 -107 c86 -4 160 -10 166 -13 16 -11 23 -70 17 -143 l-7 -70
-126 3 -126 3 3 68 c4 66 4 67 -22 67 -32 0 -46 -30 -46 -100 0 -53 -8 -60
-66 -60 -40 0 -74 29 -74 63 0 39 20 209 25 217 3 4 26 0 52 -10 34 -12 93
-20 204 -25z"/>
<path d="M1871 306 c-9 -11 -8 -15 5 -20 23 -9 24 -8 24 14 0 23 -13 26 -29 6z"/>
</g>
</svg>
