<?xml version="1.0" standalone="no"?>
<!DOCTYPE svg PUBLIC "-//W3C//DTD SVG 20010904//EN"
 "http://www.w3.org/TR/2001/REC-SVG-20010904/DTD/svg10.dtd">
<svg version="1.0" xmlns="http://www.w3.org/2000/svg"
 width="310.000000pt" height="116.000000pt" viewBox="0 0 310.000000 116.000000"
 preserveAspectRatio="xMidYMid meet">
<metadata>
Created by potrace 1.16, written by Peter Selinger 2001-2019
</metadata>
<g transform="translate(0.000000,116.000000) scale(0.100000,-0.100000)"
fill="#000000" stroke="none">
<path d="M725 1124 c-7 -40 5 -60 29 -51 11 4 16 19 16 47 0 33 -3 40 -19 40
-14 0 -21 -10 -26 -36z"/>
<path d="M2717 1029 c-11 -6 -38 -8 -68 -4 -37 5 -56 3 -74 -9 -23 -15 -79
-20 -180 -16 -58 2 -334 -18 -346 -25 -4 -3 -47 1 -96 9 -185 29 -309 40 -435
37 l-58 -1 0 -50 c0 -48 -1 -50 -62 -101 -63 -51 -81 -67 -137 -123 l-29 -29
-246 -5 c-180 -3 -246 -2 -246 7 0 6 -9 11 -20 11 -14 0 -20 -7 -20 -21 0 -21
-3 -22 -69 -15 -39 3 -80 10 -93 15 -31 12 -58 -3 -51 -28 5 -18 12 -20 121
-38 17 -3 32 -8 32 -12 -1 -3 -21 -28 -46 -56 -35 -40 -46 -47 -54 -35 -5 8
-6 26 -3 41 6 34 -13 71 -35 67 -14 -3 -17 -17 -17 -88 l0 -85 -50 2 c-47 1
-197 45 -220 63 -5 5 -34 10 -63 12 l-53 3 -3 -122 c-3 -119 -2 -123 18 -123
12 0 35 9 51 20 50 34 158 82 195 86 106 14 98 15 116 -22 12 -25 15 -55 13
-116 l-4 -83 30 -3 c17 -2 44 3 60 11 17 8 41 19 55 25 14 5 45 19 70 30 25
11 48 17 53 13 4 -4 0 -28 -10 -54 -13 -36 -14 -50 -6 -58 19 -19 37 3 52 60
7 27 20 56 29 64 12 9 75 19 197 30 99 9 189 19 200 22 21 6 44 -7 135 -82 29
-24 62 -43 76 -43 13 0 24 -4 24 -10 0 -13 37 -13 45 0 3 5 31 10 61 10 30 0
74 4 97 10 36 8 282 21 727 37 88 3 119 8 133 21 27 24 35 3 31 -84 -3 -60 -1
-76 11 -80 29 -12 45 16 45 77 0 52 2 58 23 61 30 4 36 44 8 53 -23 7 -25 21
-12 74 6 20 16 78 22 129 14 104 5 94 118 112 36 5 67 8 69 5 2 -2 16 1 31 7
14 6 67 15 116 22 79 10 90 14 90 31 0 19 -7 20 -180 21 -99 1 -185 2 -192 3
-34 3 54 301 88 301 8 0 7 5 -1 15 -14 17 -37 19 -63 4z m-998 -57 c24 -4 46
-12 48 -18 5 -14 -203 -33 -239 -21 -27 9 -36 26 -21 40 8 9 154 8 212 -1z
m966 -12 c3 -5 -3 -39 -15 -76 -11 -37 -23 -91 -26 -120 -6 -45 -10 -54 -26
-54 -19 0 -20 5 -14 83 3 45 6 103 6 130 0 47 0 47 34 47 19 0 38 -4 41 -10z
m-265 -10 c19 -12 18 -12 -65 -44 -68 -27 -257 -114 -301 -139 -12 -7 -57 -33
-100 -60 -44 -26 -97 -52 -119 -58 -22 -6 -62 -20 -89 -30 -61 -24 -91 -24
-108 -1 -13 17 -52 46 -93 67 -12 7 -19 19 -17 31 2 10 4 51 5 89 l2 70 95 8
c52 4 192 19 310 33 371 44 456 50 480 34z m144 -125 l1 -115 -121 0 c-85 0
-132 4 -157 15 -34 14 -37 14 -47 -4 -14 -27 -12 -55 9 -136 12 -48 22 -69 32
-68 22 3 180 42 215 53 17 6 41 10 53 10 22 0 23 -1 7 -25 -12 -18 -16 -48
-16 -115 0 -89 -7 -106 -35 -82 -6 5 -30 14 -55 21 -178 52 -309 87 -395 106
-38 9 -90 22 -115 30 -25 7 -59 17 -77 20 -42 8 -35 24 25 55 45 23 127 73
182 110 14 9 42 23 64 31 21 8 46 24 56 37 20 25 105 69 270 139 19 9 48 21
65 29 16 7 32 11 34 8 2 -2 5 -56 5 -119z m-1081 -22 c4 -37 5 -69 2 -71 -2
-2 -16 5 -31 17 -15 11 -32 21 -38 21 -6 0 -18 5 -26 10 -12 8 -8 16 25 50 21
22 44 40 51 40 7 0 14 -27 17 -67z m-94 -72 c20 -11 43 -27 50 -35 8 -9 18
-16 24 -16 6 0 17 -7 26 -15 9 -9 40 -32 70 -53 96 -66 97 -60 -38 -201 -99
-103 -122 -122 -140 -116 -11 3 -21 10 -21 14 0 5 -17 20 -39 35 -35 24 -39
32 -44 82 -3 31 -11 61 -17 69 -6 7 -8 25 -4 39 4 19 2 28 -11 32 -13 5 -27
-4 -52 -34 -53 -64 -58 -40 -8 34 25 36 45 71 45 77 0 16 92 106 108 107 7 0
30 -9 51 -19z m-209 -64 c0 -13 -38 -44 -122 -98 -27 -17 -48 -36 -48 -42 1
-7 15 -21 33 -32 37 -24 45 -54 22 -89 -9 -14 -14 -30 -10 -36 3 -5 5 -10 3
-11 -21 -5 -208 -9 -208 -5 0 20 69 105 93 116 31 13 45 36 31 50 -5 5 -47 12
-94 15 -116 9 -126 2 -112 -86 6 -35 14 -73 18 -83 7 -18 4 -19 -57 -11 -35 5
-93 9 -129 9 l-65 1 -3 40 c-3 36 2 45 50 97 29 31 63 69 75 85 l22 28 0 -37
c1 -33 4 -38 24 -38 13 0 27 4 33 9 5 5 53 32 107 60 85 44 106 51 160 52 51
1 165 12 175 18 1 0 2 -5 2 -12z m1269 -2 c84 0 115 -3 119 -13 7 -23 -18 -39
-71 -45 -28 -4 -74 -11 -102 -16 -92 -19 -89 -20 -101 29 -13 53 -10 63 19 53
12 -4 73 -8 136 -8z m-1615 -3 c5 -9 -34 -35 -78 -52 -26 -9 -27 -9 -24 17 3
24 9 29 43 34 22 3 43 7 47 8 4 0 9 -3 12 -7z m1786 -26 c-15 -15 -33 4 -19
20 10 12 14 12 20 2 5 -7 4 -17 -1 -22z m150 23 c0 -9 -90 -20 -103 -12 -7 4
-2 10 13 14 32 8 90 7 90 -2z m-960 -59 c0 -14 -48 -43 -60 -35 -17 10 -11 25
9 25 11 0 23 5 26 10 8 13 25 13 25 0z m795 -57 c-4 -25 -11 -58 -17 -72 -14
-36 -23 -8 -9 31 6 17 11 44 11 59 0 16 5 29 11 29 8 0 9 -15 4 -47z m-1475
-2 c-12 -23 -40 -28 -40 -8 0 13 40 39 48 32 2 -2 -1 -13 -8 -24z m-934 -56
c16 -8 38 -15 49 -15 11 0 26 -4 34 -9 11 -7 11 -10 0 -17 -24 -15 -111 -54
-120 -54 -5 0 -9 25 -9 55 0 30 4 55 9 55 5 0 22 -7 37 -15z m1664 -13 c47
-11 121 -27 165 -37 44 -9 109 -26 145 -37 36 -11 85 -21 110 -23 72 -6 203
-40 208 -53 3 -10 -93 -12 -459 -7 -254 3 -466 8 -471 11 -5 3 0 21 12 40 11
20 20 40 20 47 0 6 17 29 38 50 36 38 38 39 92 33 30 -3 93 -14 140 -24z
m-990 9 c0 -6 -10 -26 -21 -46 -16 -27 -24 -33 -30 -23 -10 16 -12 62 -2 71
10 11 53 8 53 -2z m356 -37 c8 -20 13 -38 10 -41 -9 -9 -96 8 -96 18 0 11 51
58 63 59 4 0 15 -16 23 -36z m-111 -74 c-3 -5 -13 -10 -21 -10 -8 0 -12 5 -9
10 3 6 13 10 21 10 8 0 12 -4 9 -10z m385 -69 c-19 -39 -50 -56 -50 -28 0 14
60 80 67 74 2 -3 -5 -23 -17 -46z m-840 11 c0 -18 -91 -72 -120 -72 -12 0 -13
40 -2 57 11 17 122 31 122 15z m998 -41 c8 -5 -14 -11 -59 -15 -73 -7 -95 -2
-69 14 19 12 110 13 128 1z"/>
<path d="M1423 23 c-26 -10 -12 -23 23 -23 31 0 35 2 24 15 -13 15 -25 17 -47
8z"/>
<path d="M1680 10 c-12 -8 -9 -10 13 -10 16 0 26 4 22 10 -8 12 -16 12 -35 0z"/>
<path d="M1858 3 c6 -2 18 -2 25 0 6 3 1 5 -13 5 -14 0 -19 -2 -12 -5z"/>
</g>
</svg>
