<?xml version="1.0" standalone="no"?>
<!DOCTYPE svg PUBLIC "-//W3C//DTD SVG 20010904//EN"
 "http://www.w3.org/TR/2001/REC-SVG-20010904/DTD/svg10.dtd">
<svg version="1.0" xmlns="http://www.w3.org/2000/svg"
 width="366.000000pt" height="148.000000pt" viewBox="0 0 366.000000 148.000000"
 preserveAspectRatio="xMidYMid meet">
<metadata>
Created by potrace 1.16, written by Peter Selinger 2001-2019
</metadata>
<g transform="translate(0.000000,148.000000) scale(0.100000,-0.100000)"
fill="#000000" stroke="none">
<path d="M0 1451 c0 -23 5 -31 18 -31 9 0 222 -2 472 -4 250 -3 966 -8 1590
-12 l1135 -7 14 29 c7 16 14 30 14 31 1 2 -563 5 -1253 7 -690 3 -1420 8
-1622 12 l-368 7 0 -32z"/>
<path d="M3548 1473 c7 -3 16 -2 19 1 4 3 -2 6 -13 5 -11 0 -14 -3 -6 -6z"/>
<path d="M3585 1470 c-3 -6 1 -7 9 -4 18 7 21 14 7 14 -6 0 -13 -4 -16 -10z"/>
<path d="M3378 1463 c12 -2 30 -2 40 0 9 3 -1 5 -23 4 -22 0 -30 -2 -17 -4z"/>
<path d="M3469 1406 c-3 -3 -41 -6 -86 -7 -45 -1 -85 -5 -90 -8 -5 -3 -9 -22
-9 -41 1 -32 -2 -35 -34 -40 -19 -3 -224 -5 -455 -5 -373 1 -666 12 -836 31
-46 5 -58 3 -70 -11 -34 -41 -63 -65 -80 -65 -10 0 -44 -24 -76 -54 -173 -162
-164 -156 -215 -156 -26 0 -91 4 -145 9 -54 6 -172 15 -263 21 -172 12 -251
24 -285 46 -28 17 -63 1 -71 -33 -11 -47 -22 -53 -95 -53 -37 0 -70 -4 -73 -9
-10 -16 -9 -75 3 -161 6 -47 13 -94 14 -104 2 -18 -4 -20 -48 -17 -91 4 -189
21 -204 35 -9 8 -26 17 -38 20 -13 4 -41 23 -64 42 -23 19 -47 33 -53 31 -6
-2 -19 -18 -30 -36 -17 -29 -17 -39 -6 -124 11 -84 10 -97 -8 -149 -16 -49
-17 -60 -5 -69 11 -10 23 -1 63 43 45 51 55 57 147 86 55 18 105 32 112 32 6
0 29 9 51 20 71 36 72 35 68 -97 -3 -103 -1 -118 14 -121 10 -2 19 6 23 20 11
32 23 38 82 38 48 0 116 11 191 30 26 7 34 5 41 -9 5 -9 8 -78 6 -154 -3 -115
-1 -137 11 -137 16 0 16 -1 34 80 17 72 66 218 79 234 6 7 46 16 89 20 86 8
197 22 254 32 21 3 49 4 62 0 23 -6 88 -77 171 -186 76 -101 101 -125 117
-113 11 9 24 8 58 -4 39 -13 108 -15 500 -14 305 2 506 7 610 17 318 29 299
29 306 9 4 -9 3 -61 -3 -114 -8 -76 -7 -99 3 -110 8 -8 16 -12 20 -8 4 3 17
78 30 166 13 87 30 192 38 233 8 40 20 116 27 168 7 52 18 98 23 102 6 4 12
38 12 75 1 37 6 86 12 108 33 129 86 292 117 360 27 59 28 82 7 94 -21 11 -45
14 -53 7z m3 -66 c-2 -14 -25 -92 -52 -175 -26 -82 -57 -195 -69 -249 -11 -55
-23 -101 -25 -104 -3 -2 -11 -2 -19 1 -10 4 -13 27 -10 98 2 52 5 108 9 124 3
17 7 57 10 90 7 104 14 139 32 159 13 14 14 20 5 23 -7 3 -13 15 -13 28 0 25
26 34 100 31 31 -1 35 -4 32 -26z m-1392 -68 c8 -3 -19 -9 -60 -13 -72 -6 -98
-1 -87 18 6 10 121 6 147 -5z m1079 -16 c-5 -5 -134 -54 -259 -98 -46 -17
-161 -62 -255 -100 -93 -38 -206 -83 -250 -100 -44 -17 -117 -46 -162 -64 -45
-19 -91 -34 -102 -34 -11 0 -23 -4 -26 -10 -10 -16 -25 -12 -25 6 0 33 -55
191 -86 249 -57 106 -60 100 63 114 227 27 450 39 772 40 184 0 332 -1 330 -3z
m128 -38 c-4 -24 -12 -119 -18 -213 -7 -93 -16 -175 -21 -182 -10 -13 -110 -7
-140 9 -17 8 -17 11 -1 51 9 23 22 49 28 57 18 22 27 57 20 79 -5 16 -20 20
-96 26 -59 5 -94 4 -101 -3 -6 -6 -10 -49 -9 -103 2 -91 2 -91 -21 -86 -13 3
-45 8 -73 12 -72 9 -135 26 -135 37 0 5 -10 8 -22 6 -21 -3 -24 -10 -30 -83
-3 -44 -8 -89 -10 -100 -4 -23 0 -23 137 -1 50 8 105 15 124 15 l34 1 -6 -95
c-3 -52 -8 -98 -11 -103 -5 -9 -142 35 -320 102 -103 39 -359 162 -364 174 -2
8 146 85 263 135 189 82 244 104 604 239 58 22 114 46 125 54 38 26 49 18 43
-28z m-1389 -21 c7 -15 12 -42 10 -60 l-3 -32 -27 47 c-16 26 -28 54 -28 63 0
26 33 14 48 -18z m-64 -54 c13 -27 35 -60 48 -76 13 -15 39 -53 58 -85 19 -31
51 -80 72 -108 79 -109 66 -141 -151 -361 -50 -51 -99 -93 -109 -93 -22 0 -42
19 -42 40 0 8 -14 44 -31 78 -17 35 -42 100 -55 145 -14 45 -30 92 -36 104 -8
17 -8 30 0 48 7 14 12 28 12 30 0 11 -33 4 -58 -12 -20 -13 -24 -14 -16 -3 6
8 28 38 48 65 44 59 39 53 139 178 43 53 82 97 87 97 5 0 21 -21 34 -47z m152
-109 c16 -39 17 -44 6 -44 -12 0 -53 76 -45 83 10 11 24 -4 39 -39z m-1081 13
l40 -12 -45 -3 c-26 -2 -50 -10 -57 -19 -10 -13 -15 -14 -28 -3 -8 7 -15 23
-15 36 0 21 3 23 33 18 17 -3 50 -11 72 -17z m534 -33 c33 -4 61 -10 61 -13 0
-9 -89 -75 -128 -95 -23 -12 -32 -24 -32 -41 0 -14 5 -25 11 -25 6 0 29 -18
51 -40 l40 -41 -26 -26 c-34 -34 -34 -63 -1 -63 14 0 25 -4 25 -10 0 -6 -28
-10 -65 -10 -35 0 -110 -5 -166 -11 -68 -7 -104 -8 -111 -1 -13 13 25 97 75
166 20 27 34 53 31 58 -3 5 -49 8 -102 8 -54 -1 -104 1 -112 4 -32 12 -61 -33
-55 -85 2 -19 7 -62 9 -96 l6 -63 -47 0 c-26 0 -86 5 -135 11 -87 11 -88 12
-88 40 0 30 15 107 35 184 7 28 16 62 19 78 8 34 22 35 30 2 8 -32 15 -31 79
4 49 28 66 31 267 49 262 24 253 23 329 16z m151 -9 c0 -13 -124 -165 -135
-165 -7 0 -18 7 -25 16 -15 17 -15 18 84 103 54 46 76 60 76 46z m-900 -32 c0
-10 -11 -31 -24 -48 l-24 -30 -11 39 c-13 48 -8 56 30 56 21 0 29 -5 29 -17z
m2402 1 c4 -3 -4 -26 -18 -53 -13 -27 -24 -56 -24 -65 0 -10 -9 -16 -25 -16
-24 0 -25 2 -25 76 l0 76 43 -7 c23 -4 45 -9 49 -11z m-212 -152 c55 -6 65
-10 68 -27 2 -19 -4 -20 -113 -23 l-115 -3 0 29 c0 38 6 42 54 36 22 -3 70 -8
106 -12z m-1770 -17 c0 -8 -4 -16 -8 -19 -5 -3 -19 -39 -31 -81 -20 -66 -25
-75 -46 -75 -13 0 -26 4 -29 9 -12 19 -18 127 -8 151 9 22 16 25 66 27 42 1
56 -2 56 -12z m1914 -16 c-3 -5 -10 -7 -15 -3 -5 3 -7 10 -3 15 3 5 10 7 15 3
5 -3 7 -10 3 -15z m-2733 -38 c30 -16 69 -32 87 -36 47 -10 39 -22 -25 -40
-32 -9 -73 -23 -92 -31 -18 -8 -35 -14 -36 -12 -1 2 -6 36 -9 76 -8 85 -6 86
75 43z m1293 -78 c53 -153 53 -155 7 -103 -23 25 -41 53 -41 62 0 10 -9 22
-21 28 -24 13 -59 47 -59 57 0 12 53 63 65 63 6 0 28 -48 49 -107z m1669 83
c3 -8 1 -58 -6 -113 -6 -54 -11 -124 -11 -156 -1 -55 -2 -57 -28 -57 -15 0
-30 5 -33 10 -3 6 -13 10 -21 10 -8 0 -33 8 -57 19 -23 10 -54 23 -69 29 -34
14 -34 22 -4 87 14 28 28 75 32 103 4 29 12 56 18 60 10 6 87 17 147 21 15 0
29 -5 32 -13z m56 -76 c-16 -137 -22 -172 -28 -162 -5 8 11 228 18 252 0 2 5
0 10 -5 6 -6 6 -40 0 -85z m-1099 55 c25 -9 61 -22 80 -30 183 -74 322 -125
343 -125 31 0 103 -19 217 -58 l85 -29 3 -44 c5 -62 42 -80 42 -20 0 15 2 30
6 33 6 6 130 -34 171 -55 24 -13 25 -15 7 -20 -10 -4 -41 -9 -69 -11 -27 -3
-93 -9 -145 -14 -116 -12 -414 -6 -695 14 -316 22 -321 23 -291 69 9 13 24 39
35 58 10 19 25 45 33 58 7 13 28 43 46 68 17 24 37 61 44 83 13 43 21 45 88
23z m810 -8 c0 -7 -7 -22 -15 -33 -14 -18 -14 -18 -15 7 0 14 3 29 7 32 11 11
23 8 23 -6z m-2237 -133 c26 -4 45 -10 42 -14 -6 -10 -172 -23 -186 -15 -7 5
-6 11 2 21 12 15 67 18 142 8z m1214 -18 c-11 -29 -116 -192 -134 -209 -19
-16 -21 -16 -42 7 l-22 23 31 26 c17 14 58 58 92 97 57 66 87 88 75 56z m-977
-28 c-1 -13 -7 -34 -14 -47 l-14 -24 -7 22 c-4 12 -4 33 -1 47 8 31 36 32 36
2z m975 -198 c25 -6 20 -8 -27 -9 -33 0 -58 3 -58 9 0 11 40 11 85 0z"/>
<path d="M3647 473 c-4 -21 -2 -42 3 -47 7 -7 10 7 10 37 0 57 -5 60 -13 10z"/>
</g>
</svg>
