<?xml version="1.0" standalone="no"?>
<!DOCTYPE svg PUBLIC "-//W3C//DTD SVG 20010904//EN"
 "http://www.w3.org/TR/2001/REC-SVG-20010904/DTD/svg10.dtd">
<svg version="1.0" xmlns="http://www.w3.org/2000/svg"
 width="310.000000pt" height="126.000000pt" viewBox="0 0 310.000000 126.000000"
 preserveAspectRatio="xMidYMid meet">
<metadata>
Created by potrace 1.16, written by Peter Selinger 2001-2019
</metadata>
<g transform="translate(0.000000,126.000000) scale(0.100000,-0.100000)"
fill="#000000" stroke="none">
<path d="M2753 1223 c9 -2 23 -2 30 0 6 3 -1 5 -18 5 -16 0 -22 -2 -12 -5z"/>
<path d="M2644 1156 c-3 -9 -4 -25 -1 -36 5 -20 -7 -37 -17 -22 -2 4 -168 7
-368 5 -207 -1 -430 3 -518 10 -182 13 -219 14 -228 1 -4 -5 -24 -17 -44 -26
-21 -10 -38 -24 -38 -33 0 -9 -9 -15 -21 -15 -14 0 -62 -41 -138 -117 l-116
-118 -375 2 c-206 1 -424 4 -484 5 -132 4 -141 -1 -131 -76 5 -45 6 -326 2
-476 -2 -49 0 -55 18 -55 16 0 21 8 23 37 l3 36 87 12 c48 6 112 18 142 25 30
7 59 11 63 8 5 -3 7 -58 6 -122 -2 -64 0 -122 5 -129 11 -19 26 -4 26 26 0 34
48 224 59 235 12 12 110 26 254 36 95 6 132 13 146 25 11 10 36 16 69 16 62 0
102 14 102 36 0 11 5 14 16 10 9 -3 24 -6 34 -6 19 0 91 -56 180 -140 25 -23
60 -48 78 -55 17 -8 32 -19 32 -25 0 -6 10 -10 23 -8 16 2 21 9 19 25 -2 16 2
23 12 23 12 0 16 -10 16 -36 0 -33 2 -36 23 -29 12 4 81 9 152 10 467 13 750
35 830 66 5 2 10 -21 10 -56 0 -58 16 -91 23 -50 2 11 14 28 25 37 20 16 22
24 19 125 -1 60 2 131 8 158 6 28 15 76 20 108 6 32 15 66 20 75 5 9 11 25 14
35 3 10 15 17 29 17 13 0 27 3 31 7 4 4 20 8 36 9 16 1 48 11 72 23 24 11 59
24 78 27 40 8 62 22 54 35 -3 5 -66 9 -141 9 l-135 0 7 63 c8 72 37 161 64
198 29 39 13 54 -56 55 -32 1 -70 4 -85 9 -21 5 -29 3 -34 -9z m112 -73 c-4
-16 -14 -83 -24 -150 -16 -119 -17 -123 -40 -123 -22 0 -24 3 -17 33 6 26 13
140 15 250 0 13 9 17 36 17 35 0 36 -1 30 -27z m-767 -15 c123 1 222 0 220 -2
-4 -4 -45 -7 -437 -27 -191 -10 -225 -10 -233 2 -23 37 -13 40 109 33 64 -4
218 -6 341 -6z m661 -53 c1 -17 -2 -69 -6 -117 l-7 -88 -124 0 c-91 0 -125 -3
-129 -13 -2 -7 2 -35 11 -62 8 -28 15 -60 15 -72 0 -31 29 -30 118 2 38 14 75
25 81 25 7 0 11 -20 11 -52 0 -57 -20 -281 -26 -287 -8 -9 -296 115 -302 131
-2 4 -10 8 -17 8 -11 0 -44 14 -117 51 -10 5 -23 9 -29 9 -29 0 -219 84 -219
97 0 7 21 26 48 42 26 16 56 38 67 49 11 11 58 43 105 72 47 28 94 60 105 70
11 9 49 33 85 53 36 20 87 52 115 71 40 29 60 36 100 37 27 1 61 4 75 8 31 10
39 3 40 -34z m-1150 -6 c0 -8 12 -35 28 -60 73 -117 59 -130 -35 -33 -35 36
-63 67 -63 68 0 2 12 17 28 34 27 30 41 27 42 -9z m900 21 c0 -6 -39 -30 -87
-53 -49 -24 -98 -49 -110 -55 -13 -7 -33 -17 -45 -24 -69 -36 -128 -68 -168
-92 -25 -14 -74 -41 -110 -60 -36 -19 -74 -44 -85 -55 l-19 -22 -72 76 c-40
42 -78 91 -85 108 -13 32 -36 77 -60 115 -7 12 -11 23 -9 26 6 5 124 11 504
25 153 6 281 13 284 16 10 9 62 5 62 -5z m-980 -91 c0 -11 101 -110 121 -118
9 -3 62 -48 117 -99 l100 -93 -26 -47 c-32 -59 -224 -281 -243 -282 -10 0 -61
55 -99 106 -19 26 -50 64 -68 85 -28 32 -32 41 -23 58 9 16 8 22 -7 30 -10 5
-24 21 -31 35 -11 20 -12 28 -1 41 7 8 9 22 6 32 -6 14 -12 11 -41 -17 -19
-19 -35 -31 -35 -28 0 11 32 68 41 73 5 4 16 21 25 38 49 102 129 208 150 200
8 -3 14 -9 14 -14z m-158 -110 c-10 -19 -28 -49 -40 -66 -12 -17 -22 -34 -22
-37 0 -4 -12 -24 -26 -46 -28 -42 -53 -50 -74 -25 -11 13 -9 20 11 43 44 51
163 171 166 169 1 -2 -5 -19 -15 -38z m1585 -41 c-2 -7 -16 -12 -30 -10 -14 1
-28 -2 -32 -8 -10 -16 -55 -13 -49 4 4 9 24 16 52 19 26 2 51 4 55 5 5 1 7 -4
4 -10z m-222 -38 c0 -22 -6 -26 -60 -38 -122 -27 -112 -28 -117 12 -2 20 0 40
5 45 5 5 46 9 91 7 79 -2 81 -2 81 -26z m85 16 c0 -14 -29 -31 -38 -22 -2 3
-2 12 1 21 8 19 37 20 37 1z m-2429 -72 c-17 -33 -31 -66 -31 -75 0 -8 -7 -24
-15 -35 -16 -22 -16 -23 -20 71 -1 33 -4 69 -6 80 -3 17 3 21 41 25 25 3 49 3
53 -1 5 -4 -5 -33 -22 -65z m497 71 c-8 -8 -110 -26 -263 -45 -83 -10 -158
-22 -168 -26 -22 -8 -21 2 3 36 18 25 28 29 78 32 102 5 355 7 350 3z m316
-26 c-16 -17 -41 -37 -56 -45 -43 -23 -35 -48 25 -79 89 -46 92 -56 30 -81
-44 -19 -42 -49 2 -49 17 -1 39 -6 50 -12 18 -10 16 -12 -15 -17 -62 -11 -485
-24 -493 -16 -9 8 21 74 54 122 38 53 30 58 -85 58 -128 0 -130 -1 -118 -101
5 -41 8 -77 6 -80 -5 -9 -203 -18 -237 -12 -21 4 -27 10 -23 22 30 96 61 178
70 188 6 7 74 22 151 33 77 12 171 28 208 36 80 16 196 30 394 47 12 1 25 5
29 10 4 4 14 7 23 7 10 0 6 -9 -15 -31z m814 -49 c-16 -16 -40 -30 -53 -30
-19 0 -22 -4 -18 -21 5 -17 2 -20 -13 -17 -39 7 -24 33 38 65 79 39 83 40 46
3z m763 -30 l-10 -25 0 27 c-1 14 2 35 6 45 7 17 8 17 11 -2 1 -12 -2 -32 -7
-45z m-1 -57 c0 -16 -5 -35 -10 -43 -7 -11 -10 -4 -10 28 0 23 5 42 10 42 6 0
10 -12 10 -27z m-1435 -63 c42 -57 41 -72 -3 -41 -17 12 -35 21 -40 21 -19 0
-25 22 -11 46 7 13 13 24 15 24 1 0 19 -23 39 -50z m563 28 c8 -8 15 -8 25 0
10 9 27 7 68 -9 30 -11 106 -38 169 -60 63 -22 140 -52 170 -66 78 -38 92 -42
120 -42 32 1 201 -61 195 -71 -12 -19 -164 -27 -300 -16 -33 3 -161 8 -285 12
-193 6 -277 10 -287 13 -2 1 20 43 47 95 29 54 50 108 50 125 0 33 8 39 28 19z
m-1158 -6 c0 -5 -9 -27 -20 -50 -11 -22 -20 -48 -20 -56 0 -23 -34 -38 -53
-23 -13 10 -23 82 -18 130 1 10 111 9 111 -1z m1013 -192 c-36 -67 -62 -86
-78 -60 -7 11 92 130 107 130 5 0 -8 -31 -29 -70z m-1407 19 c5 -8 45 -10 131
-7 113 5 150 0 123 -17 -5 -3 -62 -12 -127 -20 -64 -8 -125 -18 -135 -21 -22
-7 -33 16 -24 51 7 27 20 32 32 14z m404 1 c0 -5 -9 -10 -21 -10 -11 0 -17 5
-14 10 3 6 13 10 21 10 8 0 14 -4 14 -10z m-80 -10 c0 -5 -7 -10 -15 -10 -8 0
-15 5 -15 10 0 6 7 10 15 10 8 0 15 -4 15 -10z m-10 -60 c0 -5 -5 -10 -11 -10
-5 0 -7 5 -4 10 3 6 8 10 11 10 2 0 4 -4 4 -10z m1360 -40 c253 -1 211 -17
-63 -24 -172 -4 -217 -3 -217 7 0 26 21 35 58 26 20 -5 120 -9 222 -9z"/>
<path d="M3092 600 c0 -14 2 -19 5 -12 2 6 2 18 0 25 -3 6 -5 1 -5 -13z"/>
<path d="M3081 501 c-8 -14 -7 -22 4 -31 13 -11 15 -8 15 19 0 36 -5 39 -19
12z"/>
<path d="M3075 417 c-19 -15 -13 -37 11 -37 8 0 14 10 14 25 0 29 0 29 -25 12z"/>
<path d="M3074 325 c-3 -8 -3 -19 1 -25 11 -18 25 -11 25 15 0 27 -17 34 -26
10z"/>
<path d="M3077 243 c-12 -11 -8 -31 8 -37 11 -4 15 1 15 19 0 24 -10 32 -23
18z"/>
<path d="M3067 156 c-5 -14 10 -36 25 -36 4 0 8 11 8 25 0 27 -24 35 -33 11z"/>
<path d="M1691 118 c-4 -13 -11 -44 -14 -70 -7 -48 -6 -48 22 -48 27 0 29 2
34 58 4 54 -4 82 -24 82 -5 0 -13 -10 -18 -22z"/>
<path d="M1432 91 c-26 -30 -29 -31 -113 -31 -70 0 -88 -3 -93 -16 -10 -25 3
-36 35 -29 16 4 62 1 103 -5 65 -11 77 -10 97 4 21 14 25 14 40 0 11 -10 32
-14 64 -12 l48 3 -64 50 c-91 72 -86 70 -117 36z"/>
<path d="M1965 25 l-30 -24 43 -1 c39 0 43 2 40 22 -4 31 -19 32 -53 3z"/>
</g>
</svg>
