<?xml version="1.0" standalone="no"?>
<!DOCTYPE svg PUBLIC "-//W3C//DTD SVG 20010904//EN"
 "http://www.w3.org/TR/2001/REC-SVG-20010904/DTD/svg10.dtd">
<svg version="1.0" xmlns="http://www.w3.org/2000/svg"
 width="200.000000pt" height="112.000000pt" viewBox="0 0 200.000000 112.000000"
 preserveAspectRatio="xMidYMid meet">
<metadata>
Created by potrace 1.16, written by Peter Selinger 2001-2019
</metadata>
<g transform="translate(0.000000,112.000000) scale(0.100000,-0.100000)"
fill="#000000" stroke="none">
<path d="M503 1113 c9 -2 25 -2 35 0 9 3 1 5 -18 5 -19 0 -27 -2 -17 -5z"/>
<path d="M1450 1110 c0 -19 31 -23 48 -6 15 15 14 16 -16 16 -18 0 -32 -5 -32
-10z"/>
<path d="M465 1023 c-38 -2 -80 -5 -92 -8 -27 -6 -31 -35 -5 -42 12 -3 22 -21
30 -56 19 -84 23 -81 -70 -74 -46 4 -98 11 -116 16 -42 13 -59 6 -78 -32 -20
-39 -32 -221 -15 -231 6 -4 41 12 79 35 78 50 156 89 176 89 12 0 13 -14 9
-76 -5 -58 -3 -78 8 -84 23 -15 37 8 38 63 0 29 6 75 14 102 l12 50 40 -3 c70
-5 72 -9 26 -56 -50 -51 -47 -69 8 -60 50 8 72 -5 121 -71 22 -29 49 -57 61
-60 15 -5 19 -12 15 -26 -3 -10 -9 -28 -12 -39 -4 -13 -1 -22 11 -27 23 -8 39
14 61 81 12 37 32 66 73 107 96 95 142 151 138 164 -6 14 -154 28 -175 16 -8
-5 -31 -5 -51 0 -20 5 -78 9 -130 9 -139 0 -200 24 -155 61 8 7 22 26 31 43 8
17 29 43 46 57 27 23 29 29 18 43 -7 9 -21 15 -30 14 -9 -1 -47 -3 -86 -5z
m15 -62 c0 -21 -13 -41 -26 -41 -14 0 -19 31 -7 43 10 10 33 8 33 -2z m-106
-182 c6 -5 4 -10 -5 -13 -8 -3 -36 -12 -62 -21 -27 -8 -62 -22 -78 -30 -16 -9
-29 -12 -30 -8 -2 18 3 79 8 86 6 10 155 -2 167 -14z m424 -32 c10 -8 12 -23
8 -50 -7 -44 -52 -137 -66 -137 -28 0 -85 168 -66 198 6 11 109 2 124 -11z
m91 4 c15 -10 4 -38 -23 -61 -14 -11 -16 -7 -16 29 0 41 10 50 39 32z m-279
-36 c0 -8 -7 -15 -15 -15 -16 0 -20 12 -8 23 11 12 23 8 23 -8z"/>
<path d="M1191 896 c-22 -29 -35 -67 -45 -131 -20 -130 -8 -140 104 -81 41 22
91 43 110 47 19 4 44 10 56 14 19 6 22 2 28 -43 10 -79 -28 -298 -63 -358 -6
-10 -15 -31 -21 -46 -9 -25 -14 -28 -59 -28 -40 0 -51 -4 -64 -23 -17 -26 -40
-134 -31 -148 3 -5 29 -9 58 -9 43 0 65 7 111 35 72 43 116 49 276 41 112 -6
129 -5 129 8 0 21 -27 34 -88 42 -46 6 -52 9 -52 30 0 50 106 311 161 395 76
118 103 148 137 155 36 7 49 21 34 36 -5 5 -125 11 -288 14 -338 5 -376 8
-437 38 -33 16 -50 20 -56 12z m139 -90 c65 -13 65 -16 -5 -30 -16 -4 -49 -17
-72 -29 -23 -12 -45 -19 -48 -15 -4 3 -1 24 6 47 14 47 16 47 119 27z m379
-35 c7 -13 5 -40 -9 -92 -10 -41 -26 -103 -35 -139 -8 -36 -27 -101 -40 -145
-13 -44 -29 -99 -35 -122 -6 -23 -15 -45 -20 -48 -11 -7 -144 5 -160 15 -8 5
-9 13 -2 26 5 11 17 46 27 79 9 33 23 74 32 90 81 159 118 223 139 240 13 12
24 28 24 38 0 18 -18 24 -98 30 -90 7 -85 26 10 37 119 14 156 12 167 -9z
m105 -19 c3 -5 -13 -35 -35 -68 -22 -32 -38 -50 -35 -39 3 11 8 38 12 60 4 22
9 43 11 48 6 10 41 9 47 -1z m-284 -77 c0 -9 -8 -30 -17 -48 l-18 -32 -3 33
c-2 19 -1 40 2 48 7 19 36 18 36 -1z m-195 -466 c5 -5 17 -9 28 -9 30 0 14
-22 -34 -47 -65 -33 -73 -31 -65 19 4 22 9 45 12 50 6 10 43 1 59 -13z"/>
<path d="M1367 79 c8 -8 19 -8 40 -1 28 10 28 10 -11 11 -29 1 -37 -2 -29 -10z"/>
<path d="M1705 80 c-148 -3 -265 -8 -258 -13 16 -10 10 -34 -13 -52 -17 -13
-16 -13 16 -4 19 5 78 9 130 8 52 0 168 0 258 0 l163 1 -3 32 c-2 17 -7 32
-13 32 -5 1 -131 -1 -280 -4z"/>
<path d="M767 73 c-1 0 -174 -3 -384 -4 l-383 -4 0 -30 0 -31 108 2 c272 6
1039 5 1057 -2 18 -7 18 -6 6 9 -7 9 -23 17 -36 17 -33 0 -38 12 -13 32 22 17
16 17 -165 15 -104 -1 -189 -3 -190 -4z"/>
</g>
</svg>
