<?xml version="1.0" standalone="no"?>
<!DOCTYPE svg PUBLIC "-//W3C//DTD SVG 20010904//EN"
 "http://www.w3.org/TR/2001/REC-SVG-20010904/DTD/svg10.dtd">
<svg version="1.0" xmlns="http://www.w3.org/2000/svg"
 width="174.000000pt" height="84.000000pt" viewBox="0 0 174.000000 84.000000"
 preserveAspectRatio="xMidYMid meet">
<metadata>
Created by potrace 1.16, written by Peter Selinger 2001-2019
</metadata>
<g transform="translate(0.000000,84.000000) scale(0.100000,-0.100000)"
fill="#000000" stroke="none">
<path d="M140 828 c0 -13 29 -53 67 -95 19 -20 26 -22 43 -13 18 10 20 17 14
58 -3 26 -8 50 -11 55 -8 13 -113 8 -113 -5z"/>
<path d="M1369 732 c-46 -30 -84 -66 -109 -102 -65 -94 -150 -158 -247 -186
-20 -5 -15 -43 8 -72 15 -20 19 -35 14 -59 -6 -31 -5 -32 77 -72 46 -22 110
-56 143 -75 33 -19 70 -39 81 -45 12 -5 24 -19 27 -32 5 -19 10 -21 38 -15 42
8 43 10 41 56 -5 76 12 110 103 200 46 47 85 90 85 96 0 14 -71 64 -132 93
-52 25 -61 45 -60 140 1 88 -18 108 -69 73z m13 -87 c6 -31 -2 -37 -26 -20
-11 8 -16 21 -13 30 10 24 34 18 39 -10z m-48 -75 c17 -10 43 -32 58 -48 15
-16 56 -43 91 -60 36 -17 68 -36 72 -43 7 -10 -42 -62 -140 -147 -87 -76 -119
-80 -176 -23 -37 36 -39 42 -39 99 0 49 -4 65 -20 80 l-21 19 27 32 c32 39
105 111 112 111 3 0 19 -9 36 -20z m-234 -155 c0 -8 -7 -15 -15 -15 -16 0 -20
12 -8 23 11 12 23 8 23 -8z m50 -94 c0 -11 -5 -23 -11 -27 -15 -9 -33 12 -26
30 9 23 37 20 37 -3z"/>
<path d="M393 673 c-21 -8 -16 -77 7 -98 20 -18 27 -59 11 -69 -4 -3 -39 -2
-77 3 -59 7 -71 12 -94 39 -37 44 -57 41 -71 -10 -17 -65 3 -208 29 -208 4 0
40 25 81 55 61 45 81 55 114 55 l40 0 -7 -120 c-7 -125 -2 -143 29 -96 10 15
18 58 22 112 3 49 10 95 16 102 9 12 117 18 117 6 0 -3 -19 -27 -41 -54 -44
-52 -48 -87 -8 -75 53 17 91 -3 187 -103 53 -55 96 -92 98 -85 3 7 15 24 27
40 17 21 21 38 19 78 -1 27 3 69 11 92 14 46 121 183 143 183 18 0 37 37 23
45 -5 4 -42 8 -82 10 -40 2 -88 5 -107 7 -32 3 -35 1 -35 -24 0 -15 -4 -31
-10 -37 -5 -5 -85 -13 -177 -17 -145 -6 -168 -5 -168 8 0 24 53 86 88 103 24
12 32 22 30 37 -3 20 -10 21 -103 24 -55 1 -106 0 -112 -3z m97 -68 c0 -21
-30 -31 -40 -14 -11 17 -3 29 21 29 10 0 19 -7 19 -15z m480 -95 c0 -12 -41
-60 -51 -60 -15 0 -5 64 11 71 17 7 40 1 40 -11z m-680 -59 c0 -4 -11 -14 -25
-21 -30 -16 -47 -4 -39 27 5 19 9 20 35 11 16 -5 29 -13 29 -17z m567 2 c3 -9
1 -39 -6 -67 -6 -28 -14 -64 -17 -81 -11 -64 -15 -75 -27 -74 -19 0 -76 95
-83 138 -11 66 0 89 44 94 75 8 83 7 89 -10z m-192 -69 c0 -12 -8 -20 -22 -22
-25 -4 -31 16 -11 36 17 17 33 10 33 -14z"/>
</g>
</svg>
