<?xml version="1.0" standalone="no"?>
<!DOCTYPE svg PUBLIC "-//W3C//DTD SVG 20010904//EN"
 "http://www.w3.org/TR/2001/REC-SVG-20010904/DTD/svg10.dtd">
<svg version="1.0" xmlns="http://www.w3.org/2000/svg"
 width="124.000000pt" height="132.000000pt" viewBox="0 0 124.000000 132.000000"
 preserveAspectRatio="xMidYMid meet">
<metadata>
Created by potrace 1.16, written by Peter Selinger 2001-2019
</metadata>
<g transform="translate(0.000000,132.000000) scale(0.100000,-0.100000)"
fill="#000000" stroke="none">
<path d="M121 1298 c-17 -45 17 -47 37 -2 10 21 9 24 -9 24 -11 0 -23 -9 -28
-22z"/>
<path d="M365 1230 c-8 -16 -15 -36 -15 -45 0 -9 -7 -38 -16 -65 -14 -44 -20
-50 -50 -56 -44 -8 -55 -29 -47 -91 3 -33 1 -53 -6 -57 -6 -4 -11 -20 -11 -36
0 -15 -9 -56 -20 -91 -23 -78 -28 -145 -12 -161 16 -16 32 5 32 43 0 30 14 44
50 52 14 2 62 19 107 36 83 31 119 28 63 -6 -33 -19 -46 -49 -35 -82 7 -23 92
-131 112 -144 7 -4 13 -15 13 -23 0 -8 11 -24 25 -36 28 -24 34 -72 12 -102
-11 -15 -19 -16 -48 -9 -19 6 -39 8 -46 6 -6 -2 -17 -30 -23 -61 -6 -31 -18
-86 -26 -122 -8 -36 -14 -71 -14 -77 0 -28 37 -9 72 37 28 37 53 56 105 80 37
17 76 35 85 41 10 5 62 9 115 9 66 1 104 5 116 14 28 22 20 36 -22 36 -22 0
-42 4 -45 9 -3 5 8 49 25 97 36 105 74 225 99 311 9 35 24 71 31 82 46 62 99
141 99 146 0 3 27 38 60 76 33 39 58 75 54 81 -4 6 -23 7 -48 4 -28 -5 -54 -1
-79 9 -29 12 -73 15 -185 15 -199 -2 -355 21 -439 63 -24 12 -43 27 -43 34 0
24 -29 13 -45 -17z m85 -80 c0 -4 -12 -12 -27 -19 -33 -15 -49 -2 -34 28 10
18 15 19 36 9 14 -6 25 -14 25 -18z m215 -41 c66 -6 166 -10 222 -9 121 2 130
-5 107 -79 -8 -25 -23 -82 -33 -126 -11 -44 -28 -102 -40 -130 -11 -27 -38
-106 -60 -175 -36 -115 -48 -157 -65 -233 l-7 -28 -77 7 c-42 4 -83 11 -89 16
-12 10 -8 51 7 73 8 12 25 73 40 142 10 45 21 62 75 113 34 34 79 73 99 86 36
25 46 48 24 56 -11 4 -91 3 -198 -3 -58 -2 -347 10 -372 16 -54 14 -31 65 60
135 72 56 86 81 55 99 -23 12 -11 23 40 37 56 15 71 15 212 3z m459 -27 c3 -5
-12 -32 -32 -59 -20 -28 -47 -66 -59 -84 -20 -30 -23 -31 -23 -12 0 13 6 40
14 60 8 21 17 50 20 65 4 19 13 28 34 31 15 2 30 5 34 6 4 0 9 -3 12 -7z
m-784 -70 c0 -15 -38 -44 -49 -37 -6 3 -11 15 -11 26 0 14 7 19 30 19 17 0 30
-4 30 -8z m-36 -218 c25 -10 0 -34 -35 -34 -31 0 -32 1 -23 24 6 17 31 21 58
10z m372 -39 c3 -8 -6 -49 -19 -92 -14 -43 -32 -98 -39 -123 -15 -53 -29 -57
-42 -12 -5 17 -12 32 -17 32 -4 0 -17 15 -28 34 l-21 33 36 72 35 71 45 0 c30
0 46 -5 50 -15z m78 -10 c-19 -29 -34 -32 -34 -7 0 24 8 32 32 32 17 0 18 -1
2 -25z m-234 -4 c0 -18 -31 -81 -40 -81 -10 0 -30 32 -30 49 0 6 12 17 28 25
32 18 42 19 42 7z m55 -460 c17 -7 12 -12 -33 -35 -30 -15 -56 -25 -59 -22 -3
2 -2 18 2 35 6 27 11 31 38 30 18 0 41 -4 52 -8z"/>
<path d="M1173 734 c-6 -17 30 -53 55 -54 15 0 16 42 0 58 -17 17 -48 15 -55
-4z"/>
<path d="M33 77 c-18 -12 -33 -30 -33 -41 0 -15 3 -16 15 -6 19 16 47 6 39
-15 -5 -11 0 -15 18 -15 20 0 26 7 35 42 6 23 9 46 7 50 -9 14 -49 7 -81 -15z"/>
<path d="M245 43 c-36 -27 -45 -38 -33 -41 28 -6 118 40 118 60 0 28 -30 21
-85 -19z"/>
</g>
</svg>
