<?xml version="1.0" standalone="no"?>
<!DOCTYPE svg PUBLIC "-//W3C//DTD SVG 20010904//EN"
 "http://www.w3.org/TR/2001/REC-SVG-20010904/DTD/svg10.dtd">
<svg version="1.0" xmlns="http://www.w3.org/2000/svg"
 width="184.000000pt" height="146.000000pt" viewBox="0 0 184.000000 146.000000"
 preserveAspectRatio="xMidYMid meet">
<metadata>
Created by potrace 1.16, written by Peter Selinger 2001-2019
</metadata>
<g transform="translate(0.000000,146.000000) scale(0.100000,-0.100000)"
fill="#000000" stroke="none">
<path d="M717 1388 c-33 -26 -49 -168 -23 -204 14 -19 15 -18 43 8 25 24 42
29 143 42 63 8 149 17 190 21 41 3 100 10 130 15 30 5 101 11 158 14 l103 6
-6 -73 c-13 -145 -25 -260 -30 -267 -3 -5 -8 -62 -11 -127 -3 -65 -12 -149
-21 -188 -8 -38 -19 -105 -23 -149 -5 -43 -10 -80 -12 -82 -3 -3 -138 -21
-203 -27 -31 -3 -30 34 4 163 34 132 58 202 94 280 14 30 35 83 47 117 13 35
37 78 56 99 19 19 32 39 29 44 -3 5 -33 9 -68 9 -34 0 -77 5 -96 10 -53 16
-70 1 -63 -55 2 -25 0 -76 -6 -113 -6 -36 -18 -127 -27 -201 -9 -74 -23 -165
-31 -201 -8 -37 -14 -77 -14 -90 -1 -66 -2 -66 -128 -71 -65 -3 -121 -2 -125
2 -10 9 8 160 29 249 14 55 34 111 65 172 57 116 97 184 116 196 13 8 23 24
23 35 0 17 -5 19 -44 13 -25 -4 -59 -2 -78 3 -18 6 -49 12 -68 14 -31 3 -35 0
-40 -27 -3 -20 -11 -30 -23 -29 -9 0 -63 1 -119 2 -57 1 -109 6 -116 10 -10 7
-6 20 14 58 15 27 36 57 47 68 11 10 15 22 10 27 -5 5 -66 11 -136 13 -118 3
-127 2 -133 -16 -3 -11 1 -27 9 -36 8 -9 17 -35 19 -57 3 -36 1 -40 -22 -44
-14 -2 -70 3 -124 10 l-99 13 -20 -25 c-18 -22 -19 -34 -13 -129 3 -57 10
-108 15 -113 6 -6 28 4 59 26 51 38 199 100 214 91 5 -4 7 -53 3 -117 -6 -117
2 -172 26 -172 11 0 15 19 17 85 2 86 32 200 59 221 7 6 41 13 75 16 l63 4
-31 -28 c-17 -15 -57 -47 -88 -71 -31 -23 -54 -47 -51 -52 3 -5 27 -6 53 -3
42 5 51 2 82 -26 19 -17 47 -36 63 -42 15 -6 27 -15 27 -19 0 -5 18 -25 40
-46 l39 -38 -4 -120 c-4 -80 -9 -123 -18 -128 -22 -14 -69 -9 -83 10 -30 41
-42 -26 -36 -200 2 -67 12 -71 77 -38 22 11 47 20 56 20 10 0 38 9 64 20 26
11 55 20 66 20 10 0 51 11 91 24 40 14 116 34 168 46 52 12 111 26 130 31 135
34 253 59 281 60 19 0 65 6 103 13 125 22 86 56 -62 55 -48 0 -109 -4 -135 -8
-55 -9 -61 -4 -59 53 1 54 47 251 73 318 11 29 46 127 76 218 31 91 74 202 96
247 48 96 44 115 -20 95 -30 -9 -40 -9 -53 3 -13 12 -28 12 -82 4 -47 -7 -100
-7 -180 1 -62 6 -162 14 -223 16 -60 3 -168 12 -238 20 -155 17 -140 17 -160
2z m308 -54 c290 -9 300 -20 40 -44 -86 -8 -245 -25 -310 -33 -16 -2 -21 5
-23 31 -6 56 3 65 51 58 23 -4 132 -9 242 -12z m625 -40 c0 -3 -16 -47 -36
-98 -20 -50 -44 -113 -53 -141 -10 -27 -24 -66 -30 -85 -7 -19 -22 -63 -32
-97 -11 -34 -25 -65 -31 -69 -12 -7 -8 59 13 231 5 44 11 103 12 130 2 28 4
67 5 88 2 32 5 37 21 32 10 -3 29 -1 42 4 27 11 89 14 89 5z m-1080 -174 c0
-6 -11 -33 -25 -61 -25 -48 -28 -50 -63 -47 l-37 3 -3 58 -2 57 65 0 c38 0 65
-4 65 -10z m724 -80 c5 -5 -1 -28 -12 -52 -11 -24 -26 -63 -33 -88 -7 -25 -23
-65 -36 -89 -13 -24 -23 -51 -23 -60 -1 -9 -7 -27 -15 -41 -13 -23 -14 -23
-15 -4 0 11 4 45 9 75 5 30 15 101 21 159 7 58 15 109 17 113 5 9 74 -2 87
-13z m-350 -48 c12 -7 -15 -22 -41 -22 -16 0 -23 6 -23 20 0 17 4 19 28 14 15
-4 31 -9 36 -12z m-609 -11 c63 -5 80 -9 83 -22 2 -13 -14 -22 -70 -39 -40
-12 -90 -31 -110 -42 -44 -25 -73 -18 -64 15 3 12 6 42 6 66 l0 43 38 -7 c20
-5 73 -11 117 -14z m158 -16 c-4 -15 -26 -12 -31 3 -3 9 2 13 14 10 11 -2 18
-8 17 -13z m74 -1 c-3 -3 -12 -4 -19 -1 -8 3 -5 6 6 6 11 1 17 -2 13 -5z m251
-23 c10 -6 9 -22 -3 -80 -8 -40 -15 -90 -15 -112 0 -50 -16 -48 -46 5 -24 42
-39 162 -24 181 11 14 69 18 88 6z m134 3 c3 -3 -11 -40 -33 -82 -21 -42 -48
-99 -60 -127 -16 -36 -23 -45 -27 -31 -5 21 26 218 36 228 6 5 33 12 68 17 6
0 13 -2 16 -5z m-485 -66 c-3 -7 -5 -2 -5 12 0 14 2 19 5 13 2 -7 2 -19 0 -25z
m217 -15 c3 -21 6 -53 6 -71 l0 -33 -52 28 c-29 15 -55 29 -58 31 -5 3 82 81
91 82 4 0 9 -17 13 -37z m802 -492 c-3 -5 -16 -11 -28 -14 -118 -28 -304 -66
-329 -67 -3 0 -4 11 -1 25 2 14 9 25 16 25 42 1 268 29 273 34 10 10 75 7 69
-3z m-397 -57 c18 -21 20 -28 10 -35 -8 -5 -20 -9 -27 -9 -14 0 -39 -7 -235
-70 -71 -22 -133 -38 -138 -35 -11 7 -12 145 -1 146 66 9 80 7 90 -14 10 -22
10 -22 22 5 12 26 16 27 104 31 50 1 105 4 122 5 22 1 37 -5 53 -24z"/>
<path d="M352 68 c-25 -25 -8 -58 29 -58 13 0 7 62 -6 67 -6 2 -16 -2 -23 -9z"/>
<path d="M1526 15 c-4 -10 1 -15 14 -15 11 0 20 7 20 15 0 19 -26 19 -34 0z"/>
</g>
</svg>
