<?xml version="1.0" standalone="no"?>
<!DOCTYPE svg PUBLIC "-//W3C//DTD SVG 20010904//EN"
 "http://www.w3.org/TR/2001/REC-SVG-20010904/DTD/svg10.dtd">
<svg version="1.0" xmlns="http://www.w3.org/2000/svg"
 width="144.000000pt" height="134.000000pt" viewBox="0 0 144.000000 134.000000"
 preserveAspectRatio="xMidYMid meet">
<metadata>
Created by potrace 1.16, written by Peter Selinger 2001-2019
</metadata>
<g transform="translate(0.000000,134.000000) scale(0.100000,-0.100000)"
fill="#000000" stroke="none">
<path d="M2 1335 c3 -3 328 -8 722 -12 536 -4 716 -3 716 6 0 8 -185 11 -722
11 -397 0 -719 -2 -716 -5z"/>
<path d="M406 1241 c-9 -16 -17 -56 -18 -88 -3 -58 -3 -58 -53 -90 -28 -18
-59 -39 -70 -48 -11 -8 -28 -21 -37 -28 -27 -19 -117 -148 -129 -185 -6 -18
-9 -39 -6 -46 8 -22 113 -26 226 -10 60 8 167 14 246 14 77 -1 183 2 236 6
l96 7 7 -47 c4 -26 18 -70 32 -99 13 -29 24 -60 24 -70 0 -10 8 -30 17 -44 10
-15 23 -41 29 -58 15 -44 92 -137 141 -171 25 -17 65 -62 98 -111 56 -85 82
-107 104 -93 14 8 15 32 23 545 l3 230 -123 -2 c-67 -2 -122 1 -122 5 0 13
144 152 170 165 13 7 25 17 27 24 5 15 -59 80 -118 119 -29 20 -45 39 -51 62
-10 38 -26 41 -58 8 -12 -14 -34 -28 -49 -31 -88 -20 -204 -178 -151 -205 63
-32 104 -50 113 -50 7 0 24 -10 38 -23 25 -21 26 -24 14 -53 l-14 -31 -157 -6
c-173 -7 -184 -4 -185 47 -1 52 -22 94 -72 145 -44 45 -75 60 -149 76 -26 5
-27 7 -30 82 -2 64 -6 78 -20 81 -11 2 -23 -8 -32 -27z m738 -116 c60 -35 79
-59 71 -87 -8 -25 -63 -88 -78 -88 -5 0 -27 15 -48 33 -21 17 -50 41 -65 52
l-26 21 48 47 c27 26 50 47 52 47 2 0 23 -11 46 -25z m-572 -149 c40 -32 58
-55 67 -85 6 -23 9 -46 6 -51 -8 -13 -180 -8 -180 5 1 31 17 161 21 167 10 16
34 6 86 -36z m-164 -41 c4 -103 -2 -109 -127 -113 -56 -2 -101 -1 -101 2 0 4
12 25 26 49 44 71 132 139 174 135 24 -3 25 -7 28 -73z m884 -205 c-1 -36 2
-126 7 -200 9 -126 4 -221 -13 -237 -4 -4 -31 5 -59 21 -79 42 -179 189 -202
297 -4 19 -16 51 -26 71 -11 21 -19 48 -19 62 0 27 16 31 193 46 131 11 122
15 119 -60z"/>
</g>
</svg>
