<?xml version="1.0" standalone="no"?>
<!DOCTYPE svg PUBLIC "-//W3C//DTD SVG 20010904//EN"
 "http://www.w3.org/TR/2001/REC-SVG-20010904/DTD/svg10.dtd">
<svg version="1.0" xmlns="http://www.w3.org/2000/svg"
 width="148.000000pt" height="138.000000pt" viewBox="0 0 148.000000 138.000000"
 preserveAspectRatio="xMidYMid meet">
<metadata>
Created by potrace 1.16, written by Peter Selinger 2001-2019
</metadata>
<g transform="translate(0.000000,138.000000) scale(0.100000,-0.100000)"
fill="#000000" stroke="none">
<path d="M422 1178 c-7 -7 -12 -19 -12 -28 0 -9 -4 -20 -8 -25 -25 -29 -43
-165 -22 -165 5 0 35 13 67 29 129 64 155 69 447 76 148 3 277 10 286 15 26
14 30 3 30 -74 0 -78 -24 -179 -88 -372 -22 -65 -43 -139 -47 -164 -4 -25 -14
-58 -23 -75 -8 -16 -20 -50 -27 -75 l-11 -45 -75 3 c-41 2 -78 8 -83 13 -6 5
-5 25 3 51 11 40 17 56 40 126 6 15 15 52 21 84 10 49 19 64 74 120 34 34 74
71 89 81 15 10 27 24 27 31 0 19 -237 17 -249 -2 -6 -9 -17 -6 -46 14 -38 26
-39 26 -88 10 -58 -19 -237 -23 -237 -5 0 6 32 46 70 88 82 91 90 117 33 107
-21 -4 -59 -10 -86 -13 -61 -6 -77 -34 -77 -129 l0 -66 -57 7 c-61 7 -133 32
-133 45 0 4 -14 14 -32 23 -44 21 -65 8 -73 -45 -4 -24 -14 -69 -22 -101 -9
-34 -12 -62 -7 -67 5 -5 50 9 109 35 82 36 111 44 162 45 53 0 63 -3 68 -20 8
-26 35 -26 42 0 6 23 35 33 84 28 l34 -3 -32 -18 c-35 -19 -43 -44 -18 -53 8
-4 22 -1 31 6 16 14 35 0 130 -101 24 -25 59 -54 79 -64 42 -23 46 -33 35 -77
-5 -18 -12 -54 -15 -80 -5 -39 -10 -48 -26 -48 -11 0 -31 11 -45 25 -27 27
-49 32 -61 13 -20 -33 -55 -130 -68 -192 -23 -110 -11 -112 103 -17 71 59 91
70 142 80 33 7 92 11 133 10 40 -2 78 1 85 5 17 10 15 36 -3 36 -24 0 -18 56
10 99 14 21 34 74 45 117 10 43 31 112 45 153 14 40 33 108 42 150 8 42 24 88
34 102 10 14 28 51 39 82 13 35 36 71 61 94 29 28 39 45 37 63 -2 15 -8 24
-17 22 -44 -9 -316 -23 -496 -25 -223 -2 -332 12 -343 43 -8 23 -24 30 -43 19
-11 -6 -20 -5 -24 1 -8 14 -28 13 -43 -2z m61 -58 c3 -11 12 -20 21 -20 28 0
17 -19 -24 -40 -50 -26 -53 -25 -46 5 18 72 38 95 49 55z m827 -36 c0 -13 -44
-84 -52 -84 -10 0 -11 74 -1 83 8 9 53 9 53 1z m-769 -162 c-5 -10 -18 -26
-30 -36 -20 -18 -21 -18 -31 9 -12 32 -6 42 30 47 34 5 42 0 31 -20z m-302
-162 c1 -8 -70 -52 -76 -47 -2 3 -1 25 2 50 l7 45 34 -22 c18 -11 33 -23 33
-26z m761 -16 c0 -12 -48 -63 -54 -57 -8 8 -8 48 1 56 8 9 53 9 53 1z m-278
-34 c-5 -48 -11 -54 -32 -35 -23 21 -25 36 -8 53 20 20 43 9 40 -18z m143 16
c24 -1 30 -6 32 -26 4 -35 -30 -165 -43 -165 -5 0 -25 12 -43 28 -28 23 -33
35 -37 82 -6 67 8 100 39 90 12 -4 36 -8 52 -9z m-128 -478 c18 -7 33 -15 33
-19 0 -8 -91 -79 -102 -79 -11 0 -10 10 3 51 6 19 12 40 15 47 4 15 9 15 51 0z"/>
<path d="M1438 882 c-48 -65 -82 -134 -113 -227 -22 -70 -23 -80 -11 -110 16
-37 42 -55 80 -55 35 0 33 15 -4 37 -44 26 -48 66 -15 155 28 74 67 150 92
180 8 9 13 28 11 43 -3 25 -4 25 -40 -23z"/>
</g>
</svg>
