<?xml version="1.0" standalone="no"?>
<!DOCTYPE svg PUBLIC "-//W3C//DTD SVG 20010904//EN"
 "http://www.w3.org/TR/2001/REC-SVG-20010904/DTD/svg10.dtd">
<svg version="1.0" xmlns="http://www.w3.org/2000/svg"
 width="408.000000pt" height="110.000000pt" viewBox="0 0 408.000000 110.000000"
 preserveAspectRatio="xMidYMid meet">
<metadata>
Created by potrace 1.16, written by Peter Selinger 2001-2019
</metadata>
<g transform="translate(0.000000,110.000000) scale(0.100000,-0.100000)"
fill="#000000" stroke="none">
<path d="M573 1058 c-5 -7 -18 -33 -27 -58 -10 -25 -33 -73 -51 -108 -22 -41
-29 -65 -22 -67 7 -2 118 -6 247 -10 128 -3 235 -7 237 -8 11 -11 -174 -481
-206 -523 -14 -19 -28 -22 -146 -27 -71 -3 -134 -3 -138 0 -4 2 1 19 12 36 10
18 27 58 36 90 9 33 27 82 40 110 13 29 29 75 36 102 7 28 23 63 36 79 26 31
27 61 3 61 -23 0 -66 -74 -98 -166 -38 -109 -65 -175 -113 -275 -50 -105 -46
-119 30 -110 31 3 113 9 183 13 l127 6 31 38 c16 21 30 42 30 48 0 5 11 36 24
68 13 32 34 83 46 113 12 30 28 69 35 85 6 17 21 57 33 90 11 33 30 85 41 115
12 30 21 67 21 83 0 26 -3 28 -37 28 -123 -1 -429 12 -436 19 -5 4 -2 18 6 31
27 44 52 128 41 139 -8 8 -14 7 -21 -2z"/>
<path d="M1282 963 c-11 -16 -25 -45 -31 -66 -15 -44 -35 -57 -90 -57 -49 0
-71 -8 -71 -26 0 -20 38 -36 71 -29 26 6 29 4 29 -17 0 -13 -7 -33 -15 -44
-21 -27 -19 -64 3 -64 24 0 42 19 42 45 0 11 9 35 20 53 18 29 25 33 56 30
l36 -3 3 -100 c5 -142 21 -303 34 -350 7 -22 15 -53 19 -69 15 -60 72 -56 72
4 0 15 7 33 15 40 7 6 28 35 45 63 16 29 46 72 64 97 19 25 35 48 35 53 1 4
18 33 40 65 21 31 49 77 61 102 13 25 40 66 61 91 22 26 39 55 39 64 0 15 -6
17 -47 11 -25 -3 -144 -9 -264 -13 -251 -7 -247 -9 -204 76 24 48 26 71 5 71
-5 0 -17 -12 -28 -27z m468 -152 c0 -10 -18 -39 -156 -251 -52 -79 -98 -147
-102 -150 -4 -3 -16 -18 -25 -33 -25 -38 -47 -20 -47 37 0 22 -7 114 -17 203
-9 89 -13 166 -9 170 4 4 80 13 169 19 89 6 168 12 175 12 6 1 12 -2 12 -7z"/>
<path d="M3463 958 c-23 -25 -55 -91 -73 -153 -7 -22 -16 -44 -21 -50 -5 -5
-9 -17 -9 -26 0 -14 16 -18 108 -23 59 -3 182 -5 275 -3 92 2 173 -1 180 -5 9
-6 6 -17 -11 -45 -12 -21 -52 -97 -87 -169 -36 -72 -71 -137 -80 -144 -8 -7
-29 -38 -46 -69 l-31 -56 -136 3 c-75 2 -139 5 -141 7 -2 3 12 30 30 62 63
106 180 343 175 352 -13 21 -45 -4 -68 -52 -12 -29 -67 -129 -121 -224 -90
-158 -109 -202 -89 -204 4 0 89 -2 190 -4 101 -3 188 -7 193 -11 5 -3 16 0 24
6 11 9 11 17 3 35 -9 20 -6 30 22 64 17 23 36 41 41 41 5 0 9 13 9 29 0 17 4
32 9 35 5 3 41 72 81 153 39 80 83 164 98 185 40 61 33 63 -216 64 -352 1
-332 -1 -332 34 0 17 16 62 35 101 33 64 37 89 16 89 -4 0 -17 -10 -28 -22z"/>
<path d="M2597 946 c-8 -9 -26 -43 -39 -76 -26 -69 -39 -76 -123 -66 -39 4
-56 2 -64 -8 -16 -19 -3 -25 64 -30 31 -2 59 -7 62 -10 3 -3 -2 -33 -11 -67
-21 -73 -16 -92 21 -87 26 3 29 7 35 61 10 81 17 90 74 93 27 1 56 4 64 6 11
2 14 -4 11 -22 -10 -66 5 -476 19 -531 6 -23 19 -40 34 -47 23 -10 29 -7 70
36 25 26 58 70 72 97 49 90 271 421 308 458 66 67 62 68 -166 66 -170 -1 -296
-8 -413 -22 -26 -3 -25 29 1 95 13 34 15 51 7 59 -7 7 -15 6 -26 -5z m531
-180 c7 -4 -9 -37 -51 -100 -34 -51 -108 -162 -164 -247 -118 -177 -121 -181
-133 -174 -5 3 -9 63 -9 135 0 71 -5 155 -11 187 -6 32 -10 90 -8 128 l3 70
90 5 c124 7 269 5 283 -4z"/>
<path d="M0 853 l0 -78 20 25 c38 49 40 123 2 128 -21 3 -22 1 -22 -75z"/>
<path d="M0 734 c0 -16 5 -24 13 -22 18 7 20 35 2 41 -11 5 -15 0 -15 -19z"/>
<path d="M4043 328 c-34 -55 -40 -78 -23 -78 19 0 62 77 58 105 -3 25 -5 23
-35 -27z"/>
<path d="M1846 218 c-34 -40 -79 -135 -70 -150 10 -17 33 7 59 62 16 33 41 72
57 87 33 31 35 43 9 43 -11 0 -36 -19 -55 -42z"/>
<path d="M2025 30 l-16 -30 63 0 63 0 -32 20 c-18 11 -33 24 -33 30 0 22 -30
8 -45 -20z"/>
</g>
</svg>
