<?xml version="1.0" standalone="no"?>
<!DOCTYPE svg PUBLIC "-//W3C//DTD SVG 20010904//EN"
 "http://www.w3.org/TR/2001/REC-SVG-20010904/DTD/svg10.dtd">
<svg version="1.0" xmlns="http://www.w3.org/2000/svg"
 width="202.000000pt" height="168.000000pt" viewBox="0 0 202.000000 168.000000"
 preserveAspectRatio="xMidYMid meet">
<metadata>
Created by potrace 1.16, written by Peter Selinger 2001-2019
</metadata>
<g transform="translate(0.000000,168.000000) scale(0.100000,-0.100000)"
fill="#000000" stroke="none">
<path d="M416 1549 c-12 -35 -25 -131 -28 -199 -3 -71 -2 -75 20 -78 26 -4
128 41 159 70 19 18 46 22 200 35 342 28 317 27 309 6 -14 -33 -64 -207 -75
-258 -12 -53 -87 -296 -101 -330 -5 -11 -17 -49 -25 -85 -18 -72 -61 -207 -74
-230 -5 -9 -12 -30 -16 -49 -4 -18 -12 -34 -18 -36 -7 -2 -82 -6 -169 -8 -153
-5 -156 -5 -162 16 -11 44 -36 -6 -52 -104 -15 -94 -39 -184 -55 -205 -5 -6
-6 -14 -2 -17 13 -14 42 -6 56 14 16 22 115 57 187 65 79 9 285 47 445 81 102
21 169 32 265 43 47 5 139 18 205 30 66 12 180 25 254 29 141 6 164 15 117 46
-22 14 -33 15 -81 5 -52 -11 -58 -10 -75 8 -17 18 -29 19 -192 14 l-175 -5 -6
24 c-4 13 -2 42 4 64 26 99 29 114 29 135 0 61 142 416 200 500 10 14 32 66
49 115 18 50 39 104 47 122 8 17 14 35 14 40 0 4 9 19 20 33 19 24 26 61 14
73 -3 3 -17 2 -29 -3 -30 -11 -295 -13 -684 -5 -259 6 -312 10 -351 25 -62 24
-218 37 -224 19z m194 -69 c56 -17 94 -20 268 -20 113 0 202 -4 202 -9 0 -16
-224 -27 -410 -21 -25 0 -62 -6 -82 -15 -21 -8 -60 -15 -88 -15 l-51 0 6 38
c4 20 8 43 10 50 6 18 71 15 145 -8z m910 -39 c0 -24 -57 -239 -107 -401 -20
-63 -48 -162 -64 -220 -51 -192 -60 -225 -79 -280 -10 -30 -21 -70 -25 -87 -4
-18 -10 -35 -14 -37 -4 -3 -90 -6 -192 -7 l-184 -2 3 29 c2 16 7 38 11 49 5
11 18 49 29 85 11 36 34 103 52 150 17 47 40 112 52 145 11 32 33 85 49 117
16 32 29 63 29 70 0 11 17 52 65 153 13 28 31 70 41 95 37 94 68 130 114 130
20 0 40 4 46 9 12 12 33 15 111 19 58 3 63 2 63 -17z m130 15 c0 -4 -32 -81
-61 -143 -10 -24 -19 -49 -19 -56 0 -18 -107 -237 -116 -237 -3 0 -4 8 -1 18
23 77 97 349 97 359 0 6 4 23 10 37 8 22 16 26 50 26 22 0 40 -2 40 -4z m-450
-41 c0 -3 -17 -38 -38 -77 -21 -40 -56 -116 -78 -168 -45 -110 -58 -94 -23 30
11 41 29 104 38 139 17 66 30 79 79 80 12 1 22 -1 22 -4z m-723 -71 c-3 -3
-12 -4 -19 -1 -8 3 -5 6 6 6 11 1 17 -2 13 -5z m990 -988 c6 -6 -118 -26 -160
-26 -39 0 -48 13 -21 28 15 8 173 7 181 -2z m-242 -7 c12 -19 -9 -29 -81 -38
-38 -6 -103 -17 -144 -25 -41 -9 -97 -20 -125 -26 -27 -5 -113 -19 -190 -30
-77 -12 -171 -30 -208 -42 -37 -11 -69 -19 -71 -17 -3 2 2 29 10 59 8 30 14
64 14 76 0 21 4 22 158 28 86 4 211 10 277 14 195 13 353 14 360 1z"/>
<path d="M371 1225 c-5 -5 -11 -32 -14 -58 -4 -26 -11 -57 -17 -67 -14 -26
-60 -26 -93 0 -14 11 -30 20 -35 20 -27 0 -47 -55 -61 -170 -5 -36 -10 -71
-12 -78 -2 -8 3 -19 13 -25 13 -9 23 -4 52 21 37 32 66 41 66 22 0 -6 -8 -28
-18 -49 -20 -40 -18 -61 4 -61 16 0 36 40 53 107 9 32 20 47 43 59 19 10 34
12 40 6 5 -5 12 -65 14 -133 3 -67 9 -130 14 -139 5 -9 7 -26 4 -37 -4 -14 0
-22 13 -27 10 -3 23 -9 30 -12 6 -3 26 16 44 43 18 26 60 75 93 109 34 33 79
83 101 111 22 27 66 68 97 89 91 62 90 93 -5 99 -30 2 -65 9 -77 15 -16 8 -61
10 -156 5 -74 -3 -134 -4 -134 -1 0 10 69 114 80 121 5 3 10 15 10 26 0 17 -7
19 -71 17 -38 -1 -74 -7 -78 -13z m59 -52 c0 -22 -39 -87 -47 -79 -3 3 -1 18
5 33 5 15 13 36 16 46 3 9 10 17 16 17 5 0 10 -8 10 -17z m-125 -153 c10 -16
-13 -49 -46 -66 -40 -20 -53 -8 -44 40 7 34 9 36 46 36 21 0 41 -4 44 -10z
m334 -85 c-17 -32 -39 -70 -49 -84 -10 -14 -31 -51 -48 -81 -51 -91 -70 -72
-40 40 10 35 18 85 18 111 0 29 6 51 15 59 17 14 116 30 127 20 5 -3 -6 -32
-23 -65z m136 65 c0 -3 -21 -26 -47 -51 -54 -51 -60 -46 -22 18 19 34 31 43
47 41 12 -2 22 -5 22 -8z m-307 -97 c-4 -102 -23 -102 -24 0 0 58 3 77 13 77
11 0 13 -18 11 -77z"/>
</g>
</svg>
