<?xml version="1.0" standalone="no"?>
<!DOCTYPE svg PUBLIC "-//W3C//DTD SVG 20010904//EN"
 "http://www.w3.org/TR/2001/REC-SVG-20010904/DTD/svg10.dtd">
<svg version="1.0" xmlns="http://www.w3.org/2000/svg"
 width="214.000000pt" height="100.000000pt" viewBox="0 0 214.000000 100.000000"
 preserveAspectRatio="xMidYMid meet">
<metadata>
Created by potrace 1.16, written by Peter Selinger 2001-2019
</metadata>
<g transform="translate(0.000000,100.000000) scale(0.100000,-0.100000)"
fill="#000000" stroke="none">
<path d="M516 983 c-9 -22 24 -67 51 -71 13 -2 28 9 46 36 15 21 27 41 27 45
0 15 -25 6 -52 -20 l-28 -27 0 27 c0 20 -5 27 -19 27 -10 0 -22 -8 -25 -17z"/>
<path d="M1062 988 c-17 -22 -23 -73 -13 -101 15 -39 44 -51 81 -32 16 9 30
21 30 27 0 6 8 21 19 32 10 12 23 36 29 54 10 29 9 32 -8 32 -13 0 -25 -14
-38 -43 -23 -52 -48 -78 -67 -71 -21 9 -18 51 6 85 l20 29 -24 0 c-14 0 -29
-6 -35 -12z"/>
<path d="M1710 990 c0 -13 20 -13 40 0 12 8 9 10 -12 10 -16 0 -28 -4 -28 -10z"/>
<path d="M1821 976 c-14 -25 -39 -41 -83 -50 -30 -7 -38 -33 -13 -42 28 -11
69 7 112 50 24 24 43 48 43 55 0 21 -46 12 -59 -13z"/>
<path d="M451 901 c-10 -6 -15 -38 -18 -112 -2 -57 -8 -108 -13 -113 -6 -6
-28 -5 -61 2 -28 7 -60 12 -71 12 -45 0 -126 31 -131 50 -7 28 -35 36 -55 17
-11 -12 -16 -38 -17 -94 -1 -43 -8 -102 -15 -131 -22 -82 -12 -85 160 -42 50
13 178 21 183 13 3 -5 1 -30 -5 -58 -5 -27 -13 -77 -17 -110 -5 -33 -12 -80
-16 -103 -8 -42 -7 -44 16 -40 19 2 25 11 31 48 12 75 41 193 55 228 8 18 24
37 37 41 21 9 282 5 296 -4 10 -6 -6 -100 -27 -162 -13 -40 -14 -56 -5 -65 14
-14 42 6 42 32 0 10 6 45 14 77 8 32 17 70 20 86 6 24 11 27 46 27 22 0 40 -3
40 -6 0 -3 -9 -42 -21 -86 -21 -84 -20 -108 6 -108 10 0 15 10 15 30 0 41 30
152 47 170 9 10 16 11 23 4 8 -8 3 -42 -15 -114 -19 -78 -22 -106 -14 -117 20
-23 36 3 42 67 3 33 13 83 23 110 14 40 22 50 41 50 29 0 28 3 18 -117 -6 -72
-5 -83 9 -83 16 0 20 17 31 125 3 32 11 62 17 66 13 8 53 -4 53 -17 0 -19 -27
-161 -37 -197 -8 -27 -8 -41 -1 -48 18 -18 39 28 52 111 7 41 16 92 22 113
l10 39 62 -7 c34 -4 78 -11 97 -16 19 -5 51 -9 71 -9 20 0 42 -6 48 -13 11
-14 -21 -43 -97 -88 -18 -11 -31 -23 -28 -28 3 -5 35 -9 72 -10 49 -1 72 -6
91 -21 14 -11 32 -20 39 -20 29 0 93 -48 174 -130 88 -89 109 -104 135 -94 23
9 18 30 -11 43 -25 11 -25 13 -10 29 26 30 38 75 27 105 -7 17 -7 37 0 59 5
18 12 63 14 99 5 68 33 156 86 266 16 34 29 68 29 76 0 7 16 32 35 54 19 23
35 48 35 56 0 24 -19 31 -46 16 -20 -10 -34 -10 -70 -1 -65 18 -144 13 -144
-9 0 -14 -97 -109 -112 -109 -7 0 -29 -14 -48 -32 -51 -47 -172 -138 -183
-138 -6 0 -18 -7 -28 -16 -14 -12 -34 -14 -118 -8 -113 8 -119 13 -76 68 54
65 95 127 95 140 0 19 -20 25 -49 14 -14 -5 -28 -5 -36 2 -7 6 -32 7 -59 4
-28 -4 -70 -2 -100 6 -47 11 -58 11 -86 -4 -31 -15 -35 -15 -51 0 -21 19 -137
28 -156 12 -7 -6 -13 -19 -13 -31 0 -17 5 -19 36 -14 45 8 56 -14 23 -49 l-24
-26 -5 28 c-8 44 -24 34 -33 -21 -4 -27 -10 -51 -12 -53 -2 -2 -62 4 -134 14
-98 13 -131 20 -131 31 0 14 33 78 65 127 8 12 26 29 40 36 16 8 25 22 25 37
0 22 -2 23 -52 17 -47 -5 -100 2 -163 20 -11 4 -26 2 -34 -3z m140 -76 c7 -5
-62 -150 -79 -167 -4 -4 -14 -3 -22 2 -17 11 -15 146 3 168 10 13 75 10 98 -3z
m1349 -15 c8 -15 7 -51 -5 -138 -24 -175 -18 -163 -79 -160 l-51 3 3 35 c4 62
53 214 78 248 29 37 39 40 54 12z m89 -9 c15 -10 12 -21 -35 -126 -13 -29 -14
-29 -14 27 0 57 13 108 27 108 5 0 14 -4 22 -9z m-1009 -96 c0 -17 -2 -18 -24
-9 -23 9 -20 24 4 24 11 0 20 -7 20 -15z m147 -7 c-26 -111 -32 -123 -59 -126
-23 -3 -28 1 -28 19 0 30 60 129 78 129 10 0 13 -7 9 -22z m63 18 c0 -2 -7 -9
-15 -16 -13 -11 -14 -10 -9 4 5 14 24 23 24 12z m570 -15 c0 -29 -18 -71 -30
-71 -13 0 -13 46 0 71 14 25 30 25 30 0z m-828 -74 c-6 -23 -15 -33 -31 -35
-42 -6 -45 13 -10 64 31 45 33 46 41 25 4 -13 4 -37 0 -54z m308 64 c0 -5 -7
-33 -16 -62 -9 -30 -18 -60 -20 -66 -2 -7 -17 -13 -34 -13 -47 0 -49 25 -6 64
20 19 36 40 36 48 0 15 19 38 32 38 4 0 8 -4 8 -9z m-945 -53 c76 -12 80 -14
83 -41 4 -33 -25 -47 -95 -47 -26 0 -75 -5 -110 -11 -35 -6 -66 -9 -68 -7 -2
2 1 32 8 67 l12 63 45 -6 c25 -2 81 -11 125 -18z m706 -20 c-7 -34 -41 -53
-41 -24 0 14 33 56 44 56 2 0 0 -15 -3 -32z m694 -18 c4 -27 4 -54 0 -60 -8
-13 -85 -13 -85 0 0 27 54 110 71 110 4 0 10 -22 14 -50z m-1245 1 c0 -10 -7
-24 -15 -31 -13 -10 -15 -9 -15 12 0 14 3 28 7 31 12 13 23 7 23 -12z m208
-12 c50 -6 100 -18 110 -25 14 -12 -5 -13 -128 -8 -80 4 -149 10 -154 15 -18
16 16 41 48 35 17 -2 73 -10 124 -17z m922 -28 c-6 -12 -17 -21 -25 -21 -21 0
-19 10 7 37 25 26 36 16 18 -16z m269 -107 c11 -4 12 -18 5 -77 -4 -39 -8
-101 -9 -137 0 -96 -7 -100 -72 -35 l-56 56 6 90 c3 50 11 97 18 105 11 13 63
12 108 -2z m-171 -13 c10 -6 11 -22 6 -58 -9 -72 -17 -82 -51 -62 -24 13 -28
21 -26 52 4 66 32 93 71 68z m-122 -46 c8 -21 -3 -34 -26 -28 -32 8 -23 39 13
42 4 1 10 -6 13 -14z"/>
<path d="M0 8 c0 -4 195 -8 433 -7 237 0 428 2 422 4 -22 8 -855 11 -855 3z"/>
</g>
</svg>
