<?xml version="1.0" standalone="no"?>
<!DOCTYPE svg PUBLIC "-//W3C//DTD SVG 20010904//EN"
 "http://www.w3.org/TR/2001/REC-SVG-20010904/DTD/svg10.dtd">
<svg version="1.0" xmlns="http://www.w3.org/2000/svg"
 width="109.000000pt" height="70.000000pt" viewBox="0 0 109.000000 70.000000"
 preserveAspectRatio="xMidYMid meet">
<metadata>
Created by potrace 1.16, written by Peter Selinger 2001-2019
</metadata>
<g transform="translate(0.000000,70.000000) scale(0.100000,-0.100000)"
fill="#000000" stroke="none">
<path d="M903 660 c-22 -9 -23 -11 -22 -236 0 -124 -3 -230 -8 -235 -4 -4 -32
8 -61 28 -29 19 -90 53 -135 75 -45 22 -94 49 -108 59 -15 10 -34 19 -43 19
-20 0 -20 -2 5 54 23 53 19 66 -19 66 l-27 1 24 19 c13 11 35 23 50 26 14 3
49 12 76 20 28 8 89 18 138 22 50 4 86 11 85 17 -2 6 -21 9 -43 9 -108 -4
-274 -6 -310 -2 -37 3 -40 1 -45 -27 -5 -27 -9 -30 -50 -33 -55 -4 -142 14
-195 41 -50 25 -146 35 -161 16 -8 -10 -8 -40 -3 -94 5 -44 6 -147 3 -229 -6
-125 -5 -148 7 -144 10 3 16 30 20 92 3 48 10 91 15 95 21 19 212 36 308 28
16 -1 31 3 33 9 5 14 -42 24 -110 24 -28 0 -87 5 -132 12 l-81 11 4 34 c2 18
8 36 13 39 18 11 150 44 158 40 4 -3 41 -6 82 -7 68 -2 129 -21 98 -31 -8 -3
-14 -30 -17 -69 -3 -39 -11 -74 -22 -89 -17 -24 -17 -26 1 -48 15 -19 17 -34
12 -89 -5 -54 -4 -65 8 -61 9 3 17 29 22 79 8 77 22 99 60 99 18 0 140 -48
182 -72 11 -6 49 -27 85 -45 71 -37 78 -47 79 -110 1 -24 5 -43 10 -43 12 0
19 45 27 170 3 58 7 107 9 110 2 3 20 61 40 130 20 68 47 142 61 165 13 23 24
47 24 53 0 14 -113 15 -147 2z m107 -26 c0 -2 -13 -29 -29 -61 -16 -32 -33
-70 -36 -85 -13 -51 -25 -18 -25 67 0 79 1 84 23 87 23 3 67 -2 67 -8z m-884
-70 c-3 -9 -6 -21 -6 -28 0 -7 -7 -21 -15 -32 -13 -18 -14 -15 -15 29 0 41 3
47 21 47 15 0 19 -4 15 -16z m409 -3 c3 -6 -3 -15 -14 -21 -21 -11 -37 2 -26
20 8 13 32 13 40 1z m-335 -21 c17 -10 14 -15 -17 -24 -22 -7 -39 7 -28 24 8
12 25 13 45 0z m310 -88 c0 -5 -7 -17 -15 -28 -14 -18 -14 -18 -15 9 0 17 5
27 15 27 8 0 15 -4 15 -8z m5 -130 c-8 -8 -25 10 -19 20 4 6 9 5 15 -3 4 -7 6
-15 4 -17z"/>
<path d="M8 3 c7 -3 16 -2 19 1 4 3 -2 6 -13 5 -11 0 -14 -3 -6 -6z"/>
<path d="M633 3 c9 -2 23 -2 30 0 6 3 -1 5 -18 5 -16 0 -22 -2 -12 -5z"/>
</g>
</svg>
