<?xml version="1.0" standalone="no"?>
<!DOCTYPE svg PUBLIC "-//W3C//DTD SVG 20010904//EN"
 "http://www.w3.org/TR/2001/REC-SVG-20010904/DTD/svg10.dtd">
<svg version="1.0" xmlns="http://www.w3.org/2000/svg"
 width="48.000000pt" height="88.000000pt" viewBox="0 0 48.000000 88.000000"
 preserveAspectRatio="xMidYMid meet">
<metadata>
Created by potrace 1.16, written by Peter Selinger 2001-2019
</metadata>
<g transform="translate(0.000000,88.000000) scale(0.100000,-0.100000)"
fill="#000000" stroke="none">
<path d="M241 705 c1 -53 -3 -90 -10 -99 -8 -10 -9 -25 -1 -57 5 -24 13 -140
17 -257 7 -254 22 -275 40 -61 9 93 23 176 39 234 41 140 41 142 5 150 -42 9
-44 16 -16 58 14 20 25 41 25 46 0 6 5 11 10 11 6 0 10 9 10 19 0 21 -44 41
-92 41 l-29 0 2 -85z m79 38 c0 -10 -7 -26 -15 -36 -13 -18 -14 -18 -24 1 -6
12 -8 28 -5 36 8 22 44 21 44 -1z m2 -168 c-5 -32 -24 -75 -31 -71 -9 6 -13
74 -5 87 10 18 39 5 36 -16z"/>
<path d="M58 729 c-2 -13 0 -37 5 -54 9 -32 14 -111 21 -339 7 -186 22 -196
30 -19 8 192 22 287 50 349 29 63 23 72 -52 81 -47 5 -50 4 -54 -18z m77 -49
c-9 -16 -20 -30 -25 -30 -6 0 -10 14 -10 30 0 25 4 30 25 30 25 0 25 0 10 -30z"/>
</g>
</svg>
