<?xml version="1.0" standalone="no"?>
<!DOCTYPE svg PUBLIC "-//W3C//DTD SVG 20010904//EN"
 "http://www.w3.org/TR/2001/REC-SVG-20010904/DTD/svg10.dtd">
<svg version="1.0" xmlns="http://www.w3.org/2000/svg"
 width="57.000000pt" height="57.000000pt" viewBox="0 0 57.000000 57.000000"
 preserveAspectRatio="xMidYMid meet">
<metadata>
Created by potrace 1.16, written by Peter Selinger 2001-2019
</metadata>
<g transform="translate(0.000000,57.000000) scale(0.100000,-0.100000)"
fill="#000000" stroke="none">
<path d="M90 503 c0 -5 7 -50 15 -102 9 -52 16 -154 16 -227 0 -74 3 -134 8
-134 9 0 21 96 21 166 0 42 2 44 44 63 24 11 72 23 107 27 35 4 75 8 89 9 14
2 53 3 88 4 34 1 62 5 62 10 0 5 -39 9 -87 9 -75 0 -96 4 -140 26 -29 14 -62
26 -72 26 -28 0 -49 -25 -57 -65 -6 -35 -24 -59 -24 -32 0 21 49 160 60 171
15 15 12 43 -6 50 -22 9 -124 7 -124 -1z m108 -30 c-24 -50 -44 -83 -49 -83
-10 0 -21 68 -14 80 7 12 68 14 63 3z m56 -129 c22 -8 20 -21 -5 -35 -25 -13
-43 0 -33 24 7 18 14 20 38 11z"/>
</g>
</svg>
