<?xml version="1.0" standalone="no"?>
<!DOCTYPE svg PUBLIC "-//W3C//DTD SVG 20010904//EN"
 "http://www.w3.org/TR/2001/REC-SVG-20010904/DTD/svg10.dtd">
<svg version="1.0" xmlns="http://www.w3.org/2000/svg"
 width="126.000000pt" height="76.000000pt" viewBox="0 0 126.000000 76.000000"
 preserveAspectRatio="xMidYMid meet">
<metadata>
Created by potrace 1.16, written by Peter Selinger 2001-2019
</metadata>
<g transform="translate(0.000000,76.000000) scale(0.100000,-0.100000)"
fill="#000000" stroke="none">
<path d="M1081 704 c-12 -15 -21 -30 -21 -34 0 -10 -86 -25 -122 -21 -15 1
-38 -5 -52 -14 -16 -11 -56 -19 -108 -22 -88 -6 -108 -14 -108 -44 0 -30 -34
-39 -148 -40 -109 0 -147 8 -229 49 -29 14 -33 14 -57 -1 -14 -10 -26 -22 -26
-27 0 -6 -20 -10 -45 -10 -64 0 -98 -18 -90 -47 14 -59 38 -192 40 -228 4 -79
5 -85 19 -85 10 0 15 20 18 76 2 52 8 78 18 84 23 14 34 12 21 -4 -10 -12 -4
-14 46 -11 32 3 72 8 88 12 17 4 85 7 153 5 121 -3 123 -4 132 -28 6 -14 10
-66 10 -115 0 -49 4 -89 9 -89 5 0 12 39 16 87 4 49 12 94 17 101 12 14 74 16
83 2 3 -5 15 -10 25 -10 36 0 199 -111 220 -150 6 -11 16 -17 23 -15 6 3 27
-4 45 -15 25 -15 32 -27 32 -50 0 -16 4 -30 9 -30 8 0 14 65 25 260 2 47 12
110 20 140 9 30 22 91 30 135 8 44 21 96 30 116 8 20 12 39 9 43 -4 3 -30 6
-59 6 -45 0 -56 -4 -73 -26z m89 -13 c0 -5 -7 -28 -15 -51 -8 -23 -15 -60 -15
-81 0 -22 -4 -39 -10 -39 -11 0 -12 7 -15 108 l-2 72 29 0 c15 0 28 -4 28 -9z
m-96 -67 c7 -18 19 -280 19 -401 0 -104 -5 -110 -49 -76 -36 27 -36 28 -31 88
2 34 13 79 22 99 15 31 16 42 7 57 -19 30 -15 51 8 44 30 -10 25 15 -10 48
-35 33 -39 69 -12 121 18 38 36 46 46 20z m-74 -4 c0 -5 -9 -14 -20 -20 -11
-6 -18 -15 -14 -21 3 -5 -1 -21 -10 -34 -22 -34 -20 -54 8 -65 29 -11 45 -36
39 -61 -11 -42 -54 -17 -88 50 -15 29 -15 40 -5 78 7 24 24 53 38 63 26 21 52
26 52 10z m-149 -178 c-22 -68 -21 -89 3 -57 10 14 20 16 48 11 59 -11 68 -24
75 -104 4 -53 3 -72 -6 -72 -21 0 -141 91 -141 107 0 8 -5 13 -12 11 -7 -3
-35 13 -63 34 -27 21 -55 38 -62 38 -8 0 -10 12 -6 38 7 51 78 111 153 132 23
6 25 4 28 -33 2 -21 -6 -69 -17 -105z m-572 95 c13 -16 5 -27 -21 -27 -11 0
-18 7 -18 20 0 23 22 27 39 7z m-114 -79 c-10 -70 -21 -91 -28 -52 -21 104
-21 104 8 104 27 0 27 0 20 -52z m428 33 c16 -16 13 -111 -4 -122 -8 -5 -36
-7 -64 -5 -27 3 -104 6 -170 8 -66 1 -131 5 -144 10 -21 8 -23 13 -18 49 3 23
9 45 14 50 25 25 362 34 386 10z m67 -5 c0 -8 -4 -18 -10 -21 -5 -3 -10 3 -10
14 0 12 5 21 10 21 6 0 10 -6 10 -14z m58 -133 c2 -8 -5 -13 -17 -13 -12 0
-21 6 -21 16 0 18 31 15 38 -3z"/>
</g>
</svg>
