<?xml version="1.0" standalone="no"?>
<!DOCTYPE svg PUBLIC "-//W3C//DTD SVG 20010904//EN"
 "http://www.w3.org/TR/2001/REC-SVG-20010904/DTD/svg10.dtd">
<svg version="1.0" xmlns="http://www.w3.org/2000/svg"
 width="120.000000pt" height="75.000000pt" viewBox="0 0 120.000000 75.000000"
 preserveAspectRatio="xMidYMid meet">
<metadata>
Created by potrace 1.16, written by Peter Selinger 2001-2019
</metadata>
<g transform="translate(0.000000,75.000000) scale(0.100000,-0.100000)"
fill="#000000" stroke="none">
<path d="M118 686 c-16 -15 -44 -144 -34 -154 4 -3 16 0 28 7 51 32 203 75
235 66 20 -5 23 -12 23 -50 0 -43 -1 -45 -30 -45 -17 0 -65 7 -107 16 -84 17
-96 13 -91 -32 3 -31 0 -31 86 -15 61 11 139 2 147 -17 3 -8 3 -17 1 -20 -12
-11 -97 -13 -130 -2 -31 10 -41 9 -61 -4 -14 -9 -25 -24 -25 -32 0 -12 8 -15
38 -10 109 16 163 18 177 6 29 -24 3 -32 -89 -29 -86 4 -91 3 -91 -16 0 -15 6
-20 25 -18 38 2 133 5 153 4 12 -1 17 -9 17 -27 l0 -27 -90 5 c-83 5 -91 4
-101 -15 -13 -24 5 -40 36 -32 11 3 50 8 86 11 63 6 66 6 72 -17 13 -48 12
-49 -80 -49 -49 0 -113 7 -143 15 -43 11 -57 12 -66 2 -11 -11 -44 -113 -44
-136 0 -13 42 -15 55 -2 19 18 170 70 221 77 47 6 53 4 59 -15 8 -27 31 -27
38 -1 5 21 26 25 132 23 44 -1 47 1 30 13 -12 9 -44 14 -86 14 -45 0 -68 4
-71 13 -9 28 -2 115 11 131 29 35 171 56 171 25 0 -15 38 -10 44 6 6 18 49 20
75 3 15 -9 22 -9 33 3 11 10 41 14 113 14 96 0 100 -1 112 -25 7 -14 13 -61
13 -107 0 -67 3 -83 15 -83 12 0 15 15 16 73 1 39 0 86 -1 104 -1 17 6 58 15
90 48 164 59 200 72 218 7 11 13 28 13 38 0 18 -6 18 -72 12 -73 -7 -88 -15
-88 -47 0 -20 -44 -26 -56 -7 -3 6 -17 8 -32 4 -14 -3 -117 -8 -230 -11 -224
-4 -352 8 -458 46 -69 24 -69 24 -86 6z m972 -19 c0 -10 -43 -124 -49 -130 -5
-5 -11 20 -15 54 -8 67 -2 79 42 79 12 0 22 -1 22 -3z m-873 -40 c28 -7 24
-18 -10 -32 -54 -22 -77 -20 -77 9 0 35 17 39 87 23z m432 -40 c-15 -12 -36
-30 -48 -39 -27 -23 -27 -34 2 -42 18 -5 87 -84 87 -99 0 -3 -9 -7 -20 -10
-14 -4 -28 3 -43 19 -12 14 -37 40 -55 59 l-32 34 17 39 c17 40 46 59 93 61
l25 0 -26 -22z m111 14 c0 -5 -14 -21 -31 -35 -31 -26 -34 -56 -6 -56 7 0 32
-20 56 -44 50 -51 50 -75 2 -68 -25 3 -41 18 -75 65 -40 56 -42 62 -33 95 11
33 33 50 70 51 9 1 17 -3 17 -8z m100 0 c0 -5 -12 -19 -27 -31 -25 -19 -28
-20 -31 -5 -2 9 2 22 8 30 14 17 50 20 50 6z m121 -31 c4 -19 10 -64 14 -100
l6 -65 -34 40 c-19 22 -45 51 -56 65 -35 40 -11 104 38 98 20 -2 27 -10 32
-38z m-451 20 c0 -11 -67 -46 -74 -39 -3 3 -3 15 1 27 4 17 13 22 39 22 19 0
34 -5 34 -10z m-57 -81 c27 -14 74 -58 87 -81 10 -16 7 -16 -42 -1 -29 8 -56
17 -61 20 -4 2 -11 -6 -16 -19 -9 -21 -10 -21 -10 -3 -1 27 11 95 16 95 2 0
14 -5 26 -11z m422 -49 l59 -60 -34 0 c-29 0 -42 8 -76 48 -57 66 -59 72 -32
72 16 0 44 -21 83 -60z m-387 -69 c10 -6 7 -10 -13 -15 -30 -8 -41 -3 -30 13
7 13 25 14 43 2z m-299 -231 c28 0 31 -2 22 -14 -11 -13 -92 -46 -113 -46 -11
0 -10 28 3 52 8 14 17 18 32 14 12 -3 37 -6 56 -6z"/>
</g>
</svg>
