<?xml version="1.0" standalone="no"?>
<!DOCTYPE svg PUBLIC "-//W3C//DTD SVG 20010904//EN"
 "http://www.w3.org/TR/2001/REC-SVG-20010904/DTD/svg10.dtd">
<svg version="1.0" xmlns="http://www.w3.org/2000/svg"
 width="119.000000pt" height="69.000000pt" viewBox="0 0 119.000000 69.000000"
 preserveAspectRatio="xMidYMid meet">
<metadata>
Created by potrace 1.16, written by Peter Selinger 2001-2019
</metadata>
<g transform="translate(0.000000,69.000000) scale(0.100000,-0.100000)"
fill="#000000" stroke="none">
<path d="M367 633 c-3 -5 -8 -22 -11 -39 -4 -17 -18 -47 -32 -65 -24 -32 -25
-40 -22 -134 3 -87 1 -100 -14 -103 -29 -6 -96 18 -128 44 -40 34 -57 26 -65
-33 -3 -26 -10 -65 -14 -85 -11 -48 -5 -53 32 -22 49 41 103 64 152 64 l45 0
0 -53 c0 -44 -4 -58 -25 -77 -18 -17 -25 -34 -25 -62 0 -45 5 -46 85 -13 65
26 151 33 157 13 3 -9 10 -8 23 5 15 16 32 18 104 16 l86 -3 3 75 c3 73 4 75
35 92 49 25 83 31 192 32 176 2 221 5 205 15 -9 5 -67 10 -130 11 -117 3 -169
17 -200 53 -7 9 -23 16 -35 16 -18 0 -25 -9 -35 -45 -7 -25 -17 -48 -23 -52
-6 -4 -8 0 -4 11 4 9 14 45 22 79 9 34 27 97 41 139 14 43 23 81 20 86 -2 4
-28 5 -58 2 -43 -4 -53 -9 -56 -25 -7 -37 -18 -41 -94 -34 -82 8 -152 36 -188
73 -24 27 -36 31 -43 19z m391 -106 c-11 -28 -23 -61 -27 -72 -5 -12 -8 6 -9
48 -1 61 1 69 21 76 35 13 37 4 15 -52z m-353 24 l24 -18 -26 -12 c-31 -14
-45 -4 -37 27 8 27 10 27 39 3z m255 -40 c24 -7 25 -11 26 -81 1 -41 -3 -80
-8 -87 -11 -14 -126 -9 -141 6 -23 23 7 45 74 57 63 12 64 15 4 19 -16 1 -38
3 -49 4 -16 1 -18 7 -13 38 4 20 12 40 19 45 15 9 53 9 88 -1z m-169 -13 c2
-26 -3 -53 -12 -59 -10 -6 -114 13 -124 22 -11 11 27 33 68 40 64 10 67 10 68
-3z m36 -25 c-3 -10 -5 -4 -5 12 0 17 2 24 5 18 2 -7 2 -21 0 -30z m-32 -108
c0 -27 -3 -30 -30 -28 -16 1 -49 3 -73 3 -34 1 -43 4 -40 17 4 19 70 42 113
40 26 -2 30 -6 30 -32z m187 -85 c10 -50 -5 -59 -86 -46 -63 9 -66 10 -66 37
0 30 8 35 80 42 58 6 64 4 72 -33z m121 25 c1 -5 -6 -11 -15 -13 -11 -2 -18 3
-18 13 0 17 30 18 33 0z m-303 -34 c0 -37 -16 -43 -90 -29 -95 16 -69 56 38
57 51 1 52 0 52 -28z m-335 6 c17 -13 17 -15 -5 -30 -26 -18 -40 -14 -40 12 0
32 16 39 45 18z m523 -76 c1 -1 2 -19 2 -40 0 -26 -5 -41 -16 -45 -28 -11
-120 -6 -132 6 -19 19 -15 76 6 82 13 3 122 1 140 -3z m-193 -41 c0 -32 -2
-34 -35 -37 -51 -5 -111 10 -124 30 -19 31 18 48 94 45 l65 -3 0 -35z m-168
-76 c-3 -3 -12 -4 -19 -1 -8 3 -5 6 6 6 11 1 17 -2 13 -5z"/>
</g>
</svg>
