<?xml version="1.0" standalone="no"?>
<!DOCTYPE svg PUBLIC "-//W3C//DTD SVG 20010904//EN"
 "http://www.w3.org/TR/2001/REC-SVG-20010904/DTD/svg10.dtd">
<svg version="1.0" xmlns="http://www.w3.org/2000/svg"
 width="118.000000pt" height="90.000000pt" viewBox="0 0 118.000000 90.000000"
 preserveAspectRatio="xMidYMid meet">
<metadata>
Created by potrace 1.16, written by Peter Selinger 2001-2019
</metadata>
<g transform="translate(0.000000,90.000000) scale(0.100000,-0.100000)"
fill="#000000" stroke="none">
<path d="M162 808 c-11 -13 -24 -36 -28 -53 -3 -16 -16 -52 -27 -78 -23 -55
-17 -70 16 -39 13 12 26 22 29 22 9 0 64 -148 72 -193 9 -47 -1 -48 -79 -6
-32 17 -61 27 -65 22 -4 -4 -19 -43 -33 -85 -23 -70 -24 -78 -9 -78 9 0 25 7
35 15 11 7 25 11 33 8 8 -3 22 4 32 15 10 12 32 22 52 24 34 3 35 2 38 -34 3
-32 -1 -40 -22 -49 -24 -11 -42 -51 -31 -70 7 -10 -8 -68 -27 -106 -17 -35 -1
-40 30 -10 52 49 118 71 212 69 86 -2 128 -7 138 -17 3 -3 0 -33 -6 -67 -6
-34 -9 -64 -6 -67 10 -10 32 30 44 79 9 36 17 50 33 54 34 9 103 7 131 -4 22
-8 26 -16 26 -49 0 -38 14 -61 28 -47 3 4 7 62 8 129 4 178 11 222 38 241 32
20 178 47 251 46 86 -2 97 -1 91 9 -3 4 -34 12 -68 15 -84 10 -212 42 -247 63
-2 1 8 39 23 85 41 134 42 132 -29 139 -33 3 -73 2 -90 -1 -30 -6 -30 -6 -35
-85 l-5 -80 -42 -2 c-51 -3 -53 5 -23 85 11 29 20 57 20 62 0 20 -28 9 -45
-17 -22 -34 -73 -83 -86 -83 -22 0 -3 -44 21 -50 32 -7 38 -49 15 -104 -12
-29 -19 -36 -28 -27 -20 20 -31 12 -61 -40 -30 -54 -26 -68 17 -69 10 0 17 -8
17 -20 0 -23 3 -24 30 -8 15 9 22 10 31 1 9 -9 5 -27 -13 -75 l-24 -63 -66 0
c-37 0 -69 3 -73 6 -3 4 -1 40 5 80 7 41 12 83 12 94 3 100 78 274 129 300 29
16 30 17 14 35 -14 16 -31 19 -89 19 -90 -1 -193 23 -241 56 -46 30 -46 31
-73 3z m58 -63 c0 -7 -5 -17 -12 -21 -6 -4 -8 -3 -5 3 4 6 0 16 -8 23 -22 18
-18 32 5 20 11 -6 20 -17 20 -25z m644 6 c3 -5 -3 -35 -13 -67 -10 -33 -25
-85 -35 -116 -9 -32 -21 -60 -26 -63 -10 -6 -18 61 -22 175 l-3 76 47 2 c26 1
49 -2 52 -7z m-463 -49 c7 -7 -13 -170 -26 -211 -5 -17 -9 -20 -15 -11 -4 7
-29 14 -54 15 -25 0 -47 3 -49 6 -15 19 -27 99 -22 145 7 52 8 54 44 60 20 3
41 7 46 9 14 6 68 -4 76 -13z m82 -14 c-6 -7 -13 -25 -17 -40 -9 -39 -26 -35
-26 5 0 39 6 47 33 47 14 0 17 -3 10 -12z m188 -116 c-12 -23 -40 -47 -46 -40
-3 3 4 17 16 31 24 31 45 37 30 9z m52 -24 c5 -20 10 -129 8 -166 -2 -29 -141
13 -141 42 0 19 106 145 121 146 4 0 9 -10 12 -22z m161 -43 c11 -8 16 -18 13
-22 -10 -9 -59 9 -65 25 -5 17 28 15 52 -3z m-564 -43 c0 -10 -22 -32 -32 -32
-4 0 -8 9 -8 20 0 13 7 20 20 20 11 0 20 -4 20 -8z m66 -13 c10 -16 -23 -46
-36 -33 -6 6 -8 18 -4 27 7 19 29 22 40 6z m144 -29 c0 -5 -7 -10 -15 -10 -8
0 -15 5 -15 10 0 6 7 10 15 10 8 0 15 -4 15 -10z m-396 -6 c25 -10 19 -22 -15
-29 -36 -8 -47 -1 -29 20 14 17 21 18 44 9z m241 -35 c4 -5 4 -41 0 -80 -7
-64 -9 -69 -31 -69 -40 0 -74 21 -74 46 0 13 5 26 10 29 6 3 10 15 10 26 0 40
67 78 85 48z m295 -39 c0 -14 -46 -87 -61 -96 -19 -11 -1 45 24 77 23 29 37
36 37 19z m73 -67 c3 -38 3 -71 0 -75 -7 -12 -111 -9 -118 2 -8 12 84 140 101
140 7 0 13 -26 17 -67z m-483 -63 c13 -9 12 -12 -4 -25 -35 -27 -54 -18 -40
19 7 18 22 20 44 6z"/>
</g>
</svg>
