<?xml version="1.0" standalone="no"?>
<!DOCTYPE svg PUBLIC "-//W3C//DTD SVG 20010904//EN"
 "http://www.w3.org/TR/2001/REC-SVG-20010904/DTD/svg10.dtd">
<svg version="1.0" xmlns="http://www.w3.org/2000/svg"
 width="118.000000pt" height="77.000000pt" viewBox="0 0 118.000000 77.000000"
 preserveAspectRatio="xMidYMid meet">
<metadata>
Created by potrace 1.16, written by Peter Selinger 2001-2019
</metadata>
<g transform="translate(0.000000,77.000000) scale(0.100000,-0.100000)"
fill="#000000" stroke="none">
<path d="M483 763 c20 -2 54 -2 75 0 20 2 3 4 -38 4 -41 0 -58 -2 -37 -4z"/>
<path d="M983 734 c-21 -5 -23 -11 -23 -80 l0 -74 -39 0 c-22 0 -43 5 -46 10
-3 6 5 10 19 10 30 0 56 9 56 20 0 9 -78 1 -100 -11 -9 -4 -24 -3 -34 3 -15 8
-22 7 -30 -4 -12 -15 -99 -38 -145 -38 -15 0 -31 -3 -34 -7 -12 -11 -167 -4
-246 12 -42 9 -113 34 -159 56 -45 22 -87 39 -93 37 -6 -2 -12 -22 -13 -45 -3
-50 -21 -76 -49 -67 -17 5 -19 3 -13 -21 4 -15 9 -69 11 -119 6 -133 28 -326
36 -326 14 0 20 39 18 110 -1 39 2 75 7 79 5 5 38 18 74 29 53 17 88 20 193
18 159 -2 159 -2 165 -121 4 -75 7 -85 23 -85 17 0 19 9 19 83 0 77 2 85 23
96 20 11 38 7 132 -29 134 -51 145 -57 145 -76 0 -10 6 -14 14 -11 7 3 26 -1
41 -9 15 -8 33 -14 40 -14 9 0 12 -14 10 -45 -4 -56 4 -87 19 -82 7 2 13 69
16 205 4 138 10 206 18 214 7 7 12 20 12 30 0 25 28 104 62 176 17 35 28 65
26 68 -8 7 -130 13 -155 8z m103 -38 c3 -8 -8 -42 -25 -76 -17 -34 -31 -68
-31 -75 0 -8 -4 -16 -10 -20 -5 -3 -9 7 -10 22 0 15 -3 56 -6 90 l-6 62 29 4
c15 2 34 5 41 6 7 0 15 -5 18 -13z m-925 -96 c26 -15 24 -30 -5 -30 -27 0 -41
14 -31 30 8 13 12 12 36 0z m616 -60 c9 -13 9 -21 2 -25 -26 -17 4 -28 81 -32
102 -4 110 -7 110 -33 0 -18 -6 -20 -71 -20 -39 0 -79 4 -89 10 -22 12 -50 3
-50 -15 0 -21 11 -24 101 -26 100 -2 109 -5 109 -33 0 -21 -4 -22 -57 -19 -83
5 -123 12 -123 23 0 15 -28 12 -33 -2 -13 -39 53 -63 144 -53 56 7 59 6 68
-18 6 -14 12 -46 15 -71 6 -46 5 -46 -17 -35 -12 6 -33 21 -47 33 -14 13 -56
35 -95 51 -38 16 -108 53 -155 84 -47 30 -86 55 -87 56 -1 1 2 17 8 37 8 30
20 43 72 72 71 40 97 44 114 16z m181 4 c18 -5 15 -32 -5 -36 -16 -3 -86 6
-123 16 -8 3 -19 5 -25 6 -5 1 8 8 30 15 35 11 85 11 123 -1z m-510 -10 l52
-5 0 -43 c0 -24 3 -64 6 -90 l7 -46 -109 0 c-65 1 -133 7 -169 16 -33 9 -72
18 -87 21 -16 3 -28 11 -28 18 0 19 43 129 53 136 9 7 194 2 275 -7z m192 6
c0 -5 -5 -10 -11 -10 -5 0 -7 5 -4 10 3 6 8 10 11 10 2 0 4 -4 4 -10z m-524
-41 c-3 -15 -11 -42 -19 -60 l-13 -33 0 35 c0 19 -3 45 -7 59 -5 22 -3 25 19
25 22 0 25 -3 20 -26z m445 -40 c-10 -23 -10 -23 -10 7 -1 17 2 34 7 38 11 12
14 -18 3 -45z m49 -121 c0 -4 -9 -8 -20 -8 -15 0 -20 7 -20 27 0 25 0 26 20 8
11 -10 20 -22 20 -27z m-435 -8 c-3 -5 -13 -10 -21 -10 -8 0 -14 5 -14 10 0 6
9 10 21 10 11 0 17 -4 14 -10z"/>
</g>
</svg>
