<?xml version="1.0" standalone="no"?>
<!DOCTYPE svg PUBLIC "-//W3C//DTD SVG 20010904//EN"
 "http://www.w3.org/TR/2001/REC-SVG-20010904/DTD/svg10.dtd">
<svg version="1.0" xmlns="http://www.w3.org/2000/svg"
 width="129.000000pt" height="83.000000pt" viewBox="0 0 129.000000 83.000000"
 preserveAspectRatio="xMidYMid meet">
<metadata>
Created by potrace 1.16, written by Peter Selinger 2001-2019
</metadata>
<g transform="translate(0.000000,83.000000) scale(0.100000,-0.100000)"
fill="#000000" stroke="none">
<path d="M1053 780 c-18 -8 -21 -14 -16 -44 5 -31 2 -36 -33 -59 -22 -13 -57
-30 -79 -37 -22 -7 -50 -19 -62 -27 -13 -9 -53 -15 -100 -17 -85 -2 -103 -8
-103 -36 0 -25 -20 -30 -97 -23 -97 8 -170 29 -209 58 -41 31 -60 32 -68 1 -5
-21 -10 -24 -44 -19 -49 7 -69 -14 -54 -54 5 -16 10 -45 10 -65 0 -46 -22 -51
-57 -14 -24 26 -50 28 -62 5 -58 -110 -51 -151 19 -115 15 8 45 16 67 17 l40
4 1 -65 c2 -88 3 -90 13 -90 4 0 11 30 14 67 5 69 20 93 58 93 12 0 18 -12 23
-46 3 -25 2 -53 -3 -62 -5 -9 -7 -35 -5 -57 1 -22 3 -46 3 -52 1 -10 30 -20
31 -10 1 1 3 42 6 92 4 54 12 99 21 113 13 22 20 23 66 18 29 -4 78 -9 110
-12 31 -3 57 -10 57 -15 0 -5 15 -9 34 -9 18 0 53 -7 77 -16 24 -9 54 -16 66
-15 21 1 156 -51 248 -95 l40 -19 3 -73 c3 -63 5 -72 22 -72 18 0 19 9 17 138
0 75 2 160 6 187 13 90 56 289 72 334 8 24 15 56 15 72 0 29 0 29 -62 28 -35
0 -73 -4 -85 -9z m102 -30 c3 -4 -3 -38 -12 -75 -15 -61 -34 -88 -50 -71 -12
11 -21 120 -12 138 9 17 65 23 74 8z m-109 -138 c2 -31 -2 -34 -65 -63 -36
-16 -82 -34 -101 -38 -19 -5 -39 -10 -45 -11 -16 -5 -45 11 -45 24 0 16 94 71
158 91 29 10 55 22 58 27 13 21 38 2 40 -30z m-276 -48 c0 -12 -34 -33 -52
-34 -10 0 -18 4 -18 10 0 5 8 14 18 19 19 12 52 14 52 5z m337 -41 c-4 -17 -4
-17 -12 0 -4 9 -4 25 0 35 8 16 8 16 12 0 3 -10 3 -26 0 -35z m-762 17 c3 -5
-3 -10 -15 -10 -12 0 -18 5 -15 10 3 6 10 10 15 10 5 0 12 -4 15 -10z m710
-57 c12 -117 15 -108 -30 -106 -43 3 -106 27 -142 54 -18 13 -20 19 -10 27 14
12 158 82 168 82 4 0 10 -26 14 -57z m-805 37 c0 -5 -5 -10 -11 -10 -5 0 -7 5
-4 10 3 6 8 10 11 10 2 0 4 -4 4 -10z m435 -37 c8 -10 20 -14 34 -10 18 4 20
3 11 -8 -7 -8 -9 -18 -6 -23 3 -5 -1 -18 -9 -28 -13 -18 -14 -18 -20 -1 -11
26 -34 20 -53 -14 l-17 -31 -110 7 c-60 4 -115 11 -121 16 -14 12 -7 44 12 60
8 6 14 20 14 29 0 27 14 29 139 24 89 -4 117 -9 126 -21z m-448 -5 c-3 -8 -6
-5 -6 6 -1 11 2 17 5 13 3 -3 4 -12 1 -19z m73 -27 c0 -31 -4 -40 -20 -44 -18
-5 -20 -2 -16 24 4 27 22 59 32 59 2 0 4 -17 4 -39z m59 -3 c-17 -34 -19 -34
-19 -5 0 18 5 27 15 27 13 0 14 -4 4 -22z m421 -11 c0 -2 -10 -12 -21 -23 -22
-19 -22 -19 -10 4 10 18 31 31 31 19z m199 -81 c35 -8 67 -20 71 -26 4 -6 8
-36 9 -66 1 -39 -2 -54 -12 -54 -26 0 -297 141 -297 155 0 7 14 25 31 39 l30
26 52 -30 c29 -16 81 -36 116 -44z m-851 45 c10 -6 9 -10 -7 -14 -21 -5 -36 5
-24 17 8 8 15 7 31 -3z"/>
</g>
</svg>
