<?xml version="1.0" standalone="no"?>
<!DOCTYPE svg PUBLIC "-//W3C//DTD SVG 20010904//EN"
 "http://www.w3.org/TR/2001/REC-SVG-20010904/DTD/svg10.dtd">
<svg version="1.0" xmlns="http://www.w3.org/2000/svg"
 width="113.000000pt" height="63.000000pt" viewBox="0 0 113.000000 63.000000"
 preserveAspectRatio="xMidYMid meet">
<metadata>
Created by potrace 1.16, written by Peter Selinger 2001-2019
</metadata>
<g transform="translate(0.000000,63.000000) scale(0.100000,-0.100000)"
fill="#000000" stroke="none">
<path d="M358 581 c-9 -10 -19 -28 -23 -40 -3 -12 -13 -21 -21 -21 -8 0 -38
-13 -67 -29 -28 -16 -82 -42 -119 -56 -49 -20 -68 -32 -68 -45 0 -10 20 -43
45 -73 25 -31 45 -59 45 -62 0 -4 19 -25 43 -48 23 -23 47 -51 53 -61 11 -20
34 -15 34 7 0 7 -19 36 -41 66 -40 53 -41 55 -30 95 7 23 16 50 20 61 5 11 14
34 21 52 6 17 22 41 36 54 l24 22 0 -33 0 -33 53 8 c65 9 141 7 173 -6 14 -5
38 -9 54 -9 15 0 52 -9 82 -19 29 -11 80 -25 113 -31 33 -7 83 -18 112 -26 28
-8 62 -14 75 -14 30 -1 68 -27 47 -34 -39 -12 -156 -37 -259 -55 -63 -11 -146
-26 -185 -32 -38 -7 -109 -13 -157 -13 l-87 1 1 -42 c0 -22 -3 -60 -7 -83 -8
-48 8 -57 40 -22 38 42 222 140 282 151 77 13 173 33 310 64 61 14 125 25 142
25 17 0 31 5 31 11 0 7 -11 9 -30 6 -21 -5 -32 -2 -38 9 -5 8 -42 24 -83 34
-69 18 -206 56 -342 95 -89 25 -160 62 -202 105 -44 45 -54 48 -77 21z m56
-60 c16 -16 26 -34 22 -39 -7 -12 -84 -14 -91 -2 -7 11 22 70 33 70 5 0 21
-13 36 -29z m-176 -69 c-1 -4 -14 -35 -28 -70 -14 -34 -28 -62 -31 -62 -9 0
-59 66 -59 78 0 5 21 20 48 34 48 26 76 34 70 20z m267 -280 c-6 -5 -41 -25
-78 -46 l-68 -36 3 37 c3 36 5 38 43 44 63 10 110 10 100 1z"/>
</g>
</svg>
