<?xml version="1.0" standalone="no"?>
<!DOCTYPE svg PUBLIC "-//W3C//DTD SVG 20010904//EN"
 "http://www.w3.org/TR/2001/REC-SVG-20010904/DTD/svg10.dtd">
<svg version="1.0" xmlns="http://www.w3.org/2000/svg"
 width="116.000000pt" height="79.000000pt" viewBox="0 0 116.000000 79.000000"
 preserveAspectRatio="xMidYMid meet">
<metadata>
Created by potrace 1.16, written by Peter Selinger 2001-2019
</metadata>
<g transform="translate(0.000000,79.000000) scale(0.100000,-0.100000)"
fill="#000000" stroke="none">
<path d="M999 678 c-105 -105 -119 -111 -227 -116 -54 -2 -110 -4 -127 -5 -54
-3 -250 15 -260 24 -6 4 -26 11 -45 14 -19 3 -39 10 -44 16 -26 25 -59 7 -103
-58 -13 -19 -38 -47 -55 -61 -18 -15 -43 -38 -57 -52 l-25 -25 24 -3 c94 -11
105 -51 30 -108 -27 -21 -50 -41 -50 -44 0 -8 50 -61 89 -93 27 -23 32 -33 29
-58 -3 -18 0 -33 6 -35 7 -3 40 9 75 26 34 17 81 33 104 36 42 6 43 6 65 -40
35 -68 56 -60 30 11 -15 40 -3 53 50 53 28 0 36 -5 45 -30 14 -38 27 -39 27
-1 0 31 14 41 61 41 24 0 33 -7 46 -35 21 -43 43 -46 43 -5 0 20 7 33 22 41
32 17 117 5 176 -25 28 -14 60 -26 72 -26 11 0 20 -7 20 -15 0 -8 7 -15 15
-15 29 0 14 25 -30 52 -42 25 -58 48 -35 48 6 0 10 7 10 15 0 8 -7 15 -15 15
-26 0 -17 48 20 106 19 30 35 59 35 64 0 15 -51 -14 -75 -42 -12 -12 -38 -36
-59 -53 -20 -16 -51 -40 -67 -53 -44 -36 -95 -47 -125 -27 -30 19 -30 24 1 85
28 55 31 70 13 70 -7 1 -25 17 -40 36 -23 30 -25 39 -16 65 12 34 43 59 75 59
30 0 29 -14 -3 -39 l-26 -20 38 -33 c21 -18 49 -44 61 -57 36 -38 40 -15 5 28
-18 22 -32 44 -32 50 0 5 12 23 26 40 19 23 34 31 60 31 28 0 46 -12 111 -75
59 -56 85 -75 106 -75 15 0 27 3 27 8 0 4 -25 31 -55 61 -52 51 -55 57 -49 90
4 20 22 67 41 105 20 41 30 73 25 78 -6 6 -31 -13 -63 -44z m-31 -95 c-2 -10
-11 -19 -21 -21 -16 -3 -17 -1 -7 17 13 25 33 28 28 4z m-644 -32 c7 -11 -17
-21 -50 -21 -25 0 -33 15 -11 23 20 9 55 8 61 -2z m72 -41 c8 0 14 -4 14 -10
0 -13 -51 -60 -77 -71 -25 -10 -31 -39 -8 -39 17 0 94 -39 113 -57 7 -7 21
-17 30 -22 16 -9 16 -11 -1 -23 -18 -14 -18 -15 7 -45 14 -17 26 -34 26 -37 0
-10 -88 -7 -94 3 -3 5 2 30 10 55 9 26 14 50 11 53 -3 3 -26 -8 -51 -23 -44
-28 -58 -56 -35 -70 24 -14 -9 -22 -49 -11 -32 8 -50 8 -74 -1 -17 -6 -34 -9
-38 -7 -4 2 -3 26 1 52 4 26 8 54 8 61 1 9 12 10 41 6 22 -4 40 -2 40 2 0 14
-31 57 -52 72 -24 17 -23 57 1 81 11 11 41 22 68 26 26 4 53 8 58 10 6 2 16 2
23 -1 8 -2 20 -4 28 -4z m144 1 c0 -4 -18 -20 -40 -35 -22 -14 -40 -32 -40
-39 1 -6 19 -25 40 -42 21 -16 39 -33 40 -36 0 -3 -10 -16 -22 -29 -17 -18
-23 -20 -26 -9 -6 18 -32 43 -61 58 -26 14 -23 32 15 99 22 37 29 42 59 42 19
0 35 -4 35 -9z m55 -26 c-32 -28 -36 -35 -20 -35 11 0 38 -21 62 -49 39 -45
41 -50 27 -70 -18 -26 -33 -27 -41 -3 -3 9 -24 36 -46 59 -38 40 -39 43 -27
73 17 42 37 60 63 60 19 -1 17 -5 -18 -35z m-434 -38 c-16 -16 -26 0 -10 19 9
11 15 12 17 4 2 -6 -1 -17 -7 -23z m428 -139 c18 -11 18 -12 -2 -28 l-21 -17
27 -23 c14 -13 24 -27 21 -32 -9 -14 -56 -9 -76 9 -24 22 -23 52 4 80 25 27
23 26 47 11z m-439 -43 c0 -27 -12 -32 -29 -12 -8 10 -7 17 1 25 19 19 28 14
28 -13z m500 5 c0 -5 -2 -10 -4 -10 -3 0 -8 5 -11 10 -3 6 -1 10 4 10 6 0 11
-4 11 -10z m250 -20 c0 -5 -5 -10 -11 -10 -5 0 -7 5 -4 10 3 6 8 10 11 10 2 0
4 -4 4 -10z m-590 -94 c-8 -8 -27 -18 -42 -21 -24 -6 -28 -4 -28 14 0 18 6 21
42 21 37 0 40 -2 28 -14z"/>
</g>
</svg>
