<?xml version="1.0" standalone="no"?>
<!DOCTYPE svg PUBLIC "-//W3C//DTD SVG 20010904//EN"
 "http://www.w3.org/TR/2001/REC-SVG-20010904/DTD/svg10.dtd">
<svg version="1.0" xmlns="http://www.w3.org/2000/svg"
 width="60.000000pt" height="57.000000pt" viewBox="0 0 60.000000 57.000000"
 preserveAspectRatio="xMidYMid meet">
<metadata>
Created by potrace 1.16, written by Peter Selinger 2001-2019
</metadata>
<g transform="translate(0.000000,57.000000) scale(0.100000,-0.100000)"
fill="#000000" stroke="none">
<path d="M313 512 c-13 -8 -19 -117 -8 -144 8 -21 -1 -22 -31 -5 -35 20 -74
73 -74 101 0 36 -17 32 -34 -8 -8 -18 -19 -37 -25 -40 -24 -16 -8 -37 51 -66
60 -29 61 -30 28 -30 -43 1 -105 22 -131 46 -28 26 -37 10 -44 -81 l-7 -80 35
37 c40 42 60 49 149 51 69 2 82 -9 40 -33 -14 -8 -32 -21 -40 -27 -20 -19 -35
-16 -27 5 4 9 9 23 12 30 3 8 0 10 -10 6 -16 -6 -44 -90 -33 -101 3 -4 21 7
39 24 46 43 110 84 119 75 3 -4 8 -65 10 -136 2 -85 7 -131 14 -133 8 -3 12
25 12 89 -1 51 0 112 1 136 l1 44 33 -7 c31 -7 32 -7 15 12 -24 27 -23 33 10
33 15 0 34 5 42 11 11 7 0 9 -40 7 -53 -3 -55 -2 -58 24 -2 15 8 55 22 91 14
35 26 65 26 68 0 8 -85 9 -97 1z m64 -29 c-18 -58 -34 -92 -40 -86 -11 10 -8
33 9 69 17 35 41 48 31 17z m-177 -94 c0 -3 -11 -4 -25 -1 -29 5 -33 19 -7 24
15 4 31 -8 32 -23z m-81 -78 c11 -7 10 -11 -7 -20 -30 -16 -42 -14 -42 9 0 21
24 27 49 11z"/>
<path d="M495 340 c-13 -5 -14 -9 -5 -9 8 0 24 4 35 9 13 5 14 9 5 9 -8 0 -24
-4 -35 -9z"/>
</g>
</svg>
