<?xml version="1.0" standalone="no"?>
<!DOCTYPE svg PUBLIC "-//W3C//DTD SVG 20010904//EN"
 "http://www.w3.org/TR/2001/REC-SVG-20010904/DTD/svg10.dtd">
<svg version="1.0" xmlns="http://www.w3.org/2000/svg"
 width="101.000000pt" height="65.000000pt" viewBox="0 0 101.000000 65.000000"
 preserveAspectRatio="xMidYMid meet">
<metadata>
Created by potrace 1.16, written by Peter Selinger 2001-2019
</metadata>
<g transform="translate(0.000000,65.000000) scale(0.100000,-0.100000)"
fill="#000000" stroke="none">
<path d="M0 640 c0 -5 5 -10 10 -10 6 0 10 5 10 10 0 6 -4 10 -10 10 -5 0 -10
-4 -10 -10z"/>
<path d="M433 604 c-8 -3 -13 -24 -13 -50 0 -53 -7 -54 -86 -14 -32 16 -62 30
-66 30 -3 0 -9 -13 -13 -30 -6 -28 -8 -29 -50 -23 -37 5 -44 3 -49 -14 -4 -11
-2 -31 3 -45 8 -21 15 -86 12 -111 -1 -5 -14 0 -30 9 -16 9 -36 14 -44 11 -17
-6 -55 -113 -44 -123 3 -3 29 2 58 11 63 21 68 16 71 -70 3 -95 4 -100 14
-103 13 -5 22 34 23 109 1 74 15 95 55 85 22 -5 25 -13 31 -71 4 -35 4 -76 1
-90 -4 -14 -2 -25 3 -25 16 0 32 65 30 117 -3 59 4 73 36 73 22 0 24 -4 24
-42 -1 -70 15 -183 26 -182 6 0 17 13 25 28 8 15 32 46 53 69 30 33 40 39 47
27 11 -18 14 -14 26 30 9 32 14 36 94 62 120 38 125 38 140 -19 7 -27 16 -81
20 -121 7 -70 14 -91 26 -80 3 3 7 46 10 94 3 49 9 102 15 118 5 16 9 40 9 54
0 29 40 145 52 150 18 8 7 32 -14 33 -13 0 -48 2 -78 2 l-55 2 3 -42 c3 -37 1
-43 -16 -43 -11 0 -39 16 -62 35 -47 39 -53 41 -69 21 -11 -13 -32 -108 -26
-114 4 -5 72 15 101 30 12 5 32 8 45 6 21 -3 24 -8 24 -43 l0 -40 -55 -7 c-30
-4 -76 -13 -102 -22 -27 -8 -49 -12 -49 -8 -1 4 -2 41 -3 82 -3 73 21 174 47
208 7 9 7 16 -1 24 -11 11 -179 22 -199 12z m62 -25 c9 -14 -15 -70 -26 -63
-10 6 -12 58 -2 67 9 10 21 8 28 -4z m95 -13 c0 -3 -4 -8 -10 -11 -5 -3 -10
-1 -10 4 0 6 5 11 10 11 6 0 10 -2 10 -4z m-48 -181 l3 -120 -30 0 c-30 0 -30
1 -33 60 -3 52 4 91 34 184 12 39 24 -16 26 -124z m-208 106 c3 -5 -1 -12 -10
-15 -25 -10 -34 -7 -34 9 0 16 35 21 44 6z m-102 -46 c-6 -47 -22 -55 -22 -11
0 19 6 37 13 39 6 3 12 6 12 6 1 1 -1 -15 -3 -34z m653 -17 c-14 -29 -25 -60
-25 -67 0 -35 -20 8 -23 50 -5 53 6 69 44 69 l28 0 -24 -52z m-449 -59 l7 -76
-52 1 c-51 1 -53 3 -54 46 -1 32 28 102 47 116 32 22 45 -1 52 -87z m-146 1
c0 -63 -2 -70 -20 -70 -30 0 -42 31 -24 64 8 16 14 34 14 40 0 11 19 36 27 36
2 0 3 -31 3 -70z m421 35 c0 -5 -9 -11 -21 -13 -20 -3 -27 8 -13 22 10 9 34 3
34 -9z m-574 -112 c4 -11 -26 -27 -35 -19 -2 3 -2 12 2 21 6 18 27 16 33 -2z
m377 -89 c-23 -31 -39 -32 -39 -2 0 15 8 24 25 28 34 9 37 4 14 -26z"/>
<path d="M3 120 c0 -25 2 -35 4 -22 2 12 2 32 0 45 -2 12 -4 2 -4 -23z"/>
</g>
</svg>
