<?xml version="1.0" standalone="no"?>
<!DOCTYPE svg PUBLIC "-//W3C//DTD SVG 20010904//EN"
 "http://www.w3.org/TR/2001/REC-SVG-20010904/DTD/svg10.dtd">
<svg version="1.0" xmlns="http://www.w3.org/2000/svg"
 width="101.000000pt" height="67.000000pt" viewBox="0 0 101.000000 67.000000"
 preserveAspectRatio="xMidYMid meet">
<metadata>
Created by potrace 1.16, written by Peter Selinger 2001-2019
</metadata>
<g transform="translate(0.000000,67.000000) scale(0.100000,-0.100000)"
fill="#000000" stroke="none">
<path d="M924 606 c-55 -55 -75 -66 -129 -66 -121 0 -395 22 -449 37 -56 16
-59 16 -72 -1 -7 -11 -15 -24 -18 -30 -3 -7 -7 -7 -14 2 -7 11 -23 5 -72 -27
-35 -23 -69 -41 -76 -41 -17 0 -37 -37 -29 -51 5 -7 11 -6 20 1 22 18 58 7 72
-20 7 -14 20 -24 28 -22 13 3 14 -1 7 -15 -15 -26 -54 -68 -86 -88 -38 -25
-29 -43 31 -69 73 -31 93 -51 93 -98 0 -45 18 -50 65 -17 91 61 105 65 305 74
l135 6 94 -71 c52 -39 96 -68 99 -65 6 5 -62 82 -85 98 -7 4 -13 17 -13 27 0
15 7 20 25 20 14 0 25 5 25 10 0 6 -7 10 -15 10 -42 0 -29 96 15 107 24 6 26
39 6 88 -11 24 -12 44 -6 66 12 40 52 109 79 133 12 11 21 23 21 28 0 16 -26
5 -56 -26z m-619 -66 c3 -5 -1 -10 -10 -10 -9 0 -13 5 -10 10 3 6 8 10 10 10
2 0 7 -4 10 -10z m335 -25 c52 -2 104 -5 114 -5 19 0 19 0 1 -14 -25 -18 -14
-41 32 -65 71 -36 121 -101 78 -101 -8 0 -43 -18 -77 -40 -35 -22 -68 -40 -75
-40 -6 0 -18 -8 -25 -19 -18 -26 -103 -33 -268 -21 -74 5 -142 10 -150 11 -8
1 -22 -1 -30 -4 -29 -12 -53 19 -52 64 2 52 18 72 49 64 50 -12 49 15 -4 79
-23 28 -28 60 -8 62 6 0 21 4 35 8 55 15 198 33 240 30 25 -3 88 -6 140 -9z
m210 -30 c0 -9 -7 -18 -16 -22 -18 -7 -39 11 -30 26 11 17 46 13 46 -4z m-670
-5 c0 -5 -4 -10 -10 -10 -5 0 -10 5 -10 10 0 6 5 10 10 10 6 0 10 -4 10 -10z
m-30 -210 c0 -5 -5 -10 -11 -10 -5 0 -7 5 -4 10 3 6 8 10 11 10 2 0 4 -4 4
-10z m651 -34 c-11 -28 -18 -31 -40 -17 -17 11 -6 30 23 41 27 10 29 8 17 -24z
m-443 -61 c2 -2 -16 -17 -40 -34 l-43 -32 -7 23 c-15 54 -12 58 40 51 26 -3
48 -7 50 -8z"/>
</g>
</svg>
