<?xml version="1.0" standalone="no"?>
<!DOCTYPE svg PUBLIC "-//W3C//DTD SVG 20010904//EN"
 "http://www.w3.org/TR/2001/REC-SVG-20010904/DTD/svg10.dtd">
<svg version="1.0" xmlns="http://www.w3.org/2000/svg"
 width="72.000000pt" height="82.000000pt" viewBox="0 0 72.000000 82.000000"
 preserveAspectRatio="xMidYMid meet">
<metadata>
Created by potrace 1.16, written by Peter Selinger 2001-2019
</metadata>
<g transform="translate(0.000000,82.000000) scale(0.100000,-0.100000)"
fill="#000000" stroke="none">
<path d="M298 773 c-27 -4 -28 -7 -28 -58 0 -30 -4 -56 -9 -60 -9 -5 -114 26
-158 47 -31 15 -43 2 -43 -45 0 -50 12 -72 34 -64 17 7 22 -8 6 -18 -6 -3 -10
-14 -10 -24 0 -15 10 -16 96 -13 108 5 136 -6 97 -38 -20 -16 -28 -16 -83 -5
-99 21 -146 -4 -124 -63 7 -19 8 -35 2 -46 -6 -11 -6 -22 3 -32 9 -12 9 -20
-1 -39 -17 -31 -9 -40 21 -25 12 7 57 13 101 14 l79 2 -5 -133 c-3 -110 -2
-133 10 -133 17 0 17 -1 18 132 1 61 6 112 12 118 6 6 79 11 187 13 97 1 177
6 177 10 0 4 -64 10 -142 13 -194 6 -230 11 -226 32 3 15 22 17 173 17 224 0
239 18 20 25 -160 5 -185 10 -185 34 0 10 38 14 156 19 141 5 176 9 163 21 -2
2 -69 6 -147 9 -145 5 -176 13 -154 40 9 10 46 13 167 12 144 -1 189 4 173 21
-4 3 -77 7 -162 8 -85 1 -158 4 -161 8 -4 3 -1 16 5 28 11 21 15 22 127 15
115 -6 193 0 193 15 0 4 -44 9 -97 9 -116 1 -213 11 -213 21 0 4 7 27 15 51 9
24 13 49 11 56 -5 13 -40 15 -98 6z m54 -39 c10 -9 -15 -74 -28 -74 -16 0 -25
39 -13 62 9 17 30 24 41 12z m-67 -139 c0 -17 -8 -20 -49 -23 -48 -3 -106 12
-106 28 0 13 19 16 89 16 59 -1 66 -3 66 -21z m-5 -165 c0 -16 -7 -20 -32 -21
-80 -3 -107 6 -108 34 0 4 32 7 70 7 63 0 70 -2 70 -20z m4 -59 c13 -20 -22
-31 -80 -25 -65 7 -69 8 -59 23 8 13 131 15 139 2z"/>
</g>
</svg>
