<?xml version="1.0" standalone="no"?>
<!DOCTYPE svg PUBLIC "-//W3C//DTD SVG 20010904//EN"
 "http://www.w3.org/TR/2001/REC-SVG-20010904/DTD/svg10.dtd">
<svg version="1.0" xmlns="http://www.w3.org/2000/svg"
 width="55.000000pt" height="33.000000pt" viewBox="0 0 55.000000 33.000000"
 preserveAspectRatio="xMidYMid meet">
<metadata>
Created by potrace 1.16, written by Peter Selinger 2001-2019
</metadata>
<g transform="translate(0.000000,33.000000) scale(0.100000,-0.100000)"
fill="#000000" stroke="none">
<path d="M92 233 c-14 -36 -25 -180 -15 -186 5 -3 28 8 52 25 54 36 132 68
170 68 16 0 46 6 67 14 24 8 68 12 112 10 66 -3 72 -1 72 17 0 18 -8 19 -111
19 -107 0 -149 8 -252 46 -58 22 -83 18 -95 -13z m153 -55 c24 -11 23 -12 -42
-40 -37 -15 -69 -28 -70 -28 -9 0 -1 39 13 58 17 25 58 29 99 10z"/>
</g>
</svg>
