<?xml version="1.0" standalone="no"?>
<!DOCTYPE svg PUBLIC "-//W3C//DTD SVG 20010904//EN"
 "http://www.w3.org/TR/2001/REC-SVG-20010904/DTD/svg10.dtd">
<svg version="1.0" xmlns="http://www.w3.org/2000/svg"
 width="121.000000pt" height="90.000000pt" viewBox="0 0 121.000000 90.000000"
 preserveAspectRatio="xMidYMid meet">
<metadata>
Created by potrace 1.16, written by Peter Selinger 2001-2019
</metadata>
<g transform="translate(0.000000,90.000000) scale(0.100000,-0.100000)"
fill="#000000" stroke="none">
<path d="M543 834 c-13 -14 -23 -29 -23 -32 0 -10 -57 -69 -77 -80 -20 -12
-10 -42 14 -42 17 0 112 -46 123 -59 3 -3 36 -21 73 -40 74 -37 80 -51 35 -84
-32 -24 -48 -16 -48 24 0 16 -4 29 -8 29 -5 0 -33 -25 -63 -55 -44 -45 -55
-51 -60 -37 -4 9 -4 22 -1 27 4 6 7 17 9 25 1 8 5 34 8 58 7 46 6 46 -46 32
-35 -10 -37 -13 -44 -65 -6 -53 -8 -55 -36 -55 -28 0 -29 1 -24 41 3 23 8 46
12 52 4 7 8 18 9 27 0 8 5 32 9 53 l7 38 -38 -6 c-87 -14 -87 -14 -79 -43 3
-15 9 -53 12 -84 5 -52 3 -58 -13 -58 -24 0 -118 44 -151 70 -14 11 -36 20
-49 20 -26 0 -30 -9 -38 -106 -3 -33 -8 -68 -12 -77 -9 -24 18 -22 40 2 31 34
105 58 167 53 55 -4 57 -5 64 -35 10 -47 7 -159 -4 -170 -17 -17 -1 -177 20
-198 19 -19 39 -8 39 22 0 9 13 31 29 50 l30 34 7 -52 c5 -39 10 -50 21 -46
11 4 14 19 11 58 -3 51 -2 54 38 87 53 44 242 137 288 142 13 1 37 12 53 24
17 12 35 22 40 22 4 0 39 -41 77 -90 l69 -90 -2 -85 c-1 -48 2 -85 7 -85 12 0
22 34 22 73 0 16 5 38 12 50 6 12 13 49 14 82 1 33 12 94 23 135 11 41 30 118
42 170 11 52 25 100 30 106 14 17 1 22 -64 30 -74 9 -77 3 -77 -188 0 -209 -8
-231 -51 -146 -16 31 -21 59 -20 115 0 40 3 84 7 98 10 38 -11 31 -69 -25 -28
-27 -56 -50 -62 -50 -5 0 -31 20 -57 44 -26 23 -71 58 -100 75 -29 18 -66 51
-83 74 -25 36 -29 51 -29 105 1 34 -2 62 -5 62 -3 0 -16 -12 -28 -26z m-13
-110 c0 -8 -4 -12 -10 -9 -5 3 -10 10 -10 16 0 5 5 9 10 9 6 0 10 -7 10 -16z
m602 -75 c-2 -8 -10 -45 -19 -84 -8 -38 -16 -71 -18 -73 -2 -2 -7 17 -10 42
-8 51 -1 102 17 123 13 17 34 11 30 -8z m-785 -31 c-3 -8 -6 -5 -6 6 -1 11 2
17 5 13 3 -3 4 -12 1 -19z m-175 -121 c9 -15 -64 -57 -74 -43 -9 13 1 48 16
58 13 9 48 0 58 -15z m607 4 c21 -12 91 -75 91 -83 0 -4 -14 -9 -30 -13 -25
-6 -36 -1 -65 26 -50 47 -47 97 4 70z m137 -39 c-12 -11 -18 7 -10 30 l8 23 4
-23 c2 -13 1 -26 -2 -30z m-283 -14 c18 -13 45 -33 60 -45 38 -30 51 -29 31 2
-21 32 -4 32 26 0 l23 -24 -56 -26 c-31 -14 -60 -25 -65 -25 -17 0 -72 79 -72
103 0 21 7 37 17 37 2 0 18 -10 36 -22z m-203 -98 l0 -98 -31 -7 c-17 -4 -33
-4 -37 -1 -9 10 -2 189 9 202 5 6 20 9 34 6 25 -4 25 -6 25 -102z m144 13 l47
-46 -58 -28 c-84 -41 -96 -39 -90 14 8 62 28 107 47 107 3 0 28 -21 54 -47z
m-144 -161 c0 -5 -13 -21 -30 -37 -20 -20 -30 -24 -31 -14 -2 26 3 44 14 51
16 10 47 10 47 0z"/>
<path d="M1068 3 c6 -2 18 -2 25 0 6 3 1 5 -13 5 -14 0 -19 -2 -12 -5z"/>
</g>
</svg>
