<?xml version="1.0" standalone="no"?>
<!DOCTYPE svg PUBLIC "-//W3C//DTD SVG 20010904//EN"
 "http://www.w3.org/TR/2001/REC-SVG-20010904/DTD/svg10.dtd">
<svg version="1.0" xmlns="http://www.w3.org/2000/svg"
 width="179.000000pt" height="100.000000pt" viewBox="0 0 179.000000 100.000000"
 preserveAspectRatio="xMidYMid meet">
<metadata>
Created by potrace 1.16, written by Peter Selinger 2001-2019
</metadata>
<g transform="translate(0.000000,100.000000) scale(0.100000,-0.100000)"
fill="#000000" stroke="none">
<path d="M752 973 c-7 -12 -12 -34 -12 -49 0 -35 -49 -144 -66 -144 -21 0 -56
-51 -44 -65 6 -7 10 -37 9 -67 -1 -29 1 -117 6 -195 l7 -142 -33 -6 c-19 -3
-65 -5 -104 -3 -67 3 -70 4 -73 29 -2 15 6 53 17 85 16 47 33 71 81 115 76 71
69 79 -72 84 -61 2 -119 10 -143 19 -22 8 -50 15 -61 16 -26 0 -46 -22 -39
-42 3 -8 1 -27 -5 -43 -15 -41 0 -49 51 -27 24 11 71 22 104 26 33 3 82 9 109
12 47 6 48 6 35 -14 -19 -26 -116 -105 -156 -125 -47 -25 -68 -21 -114 21 -45
39 -69 85 -69 127 0 40 70 108 136 133 51 20 58 21 91 7 19 -8 43 -15 52 -15
10 0 36 -16 59 -36 41 -35 72 -40 72 -12 -1 21 -22 43 -72 72 -54 32 -59 48
-33 132 19 64 19 74 -4 74 -13 0 -25 -16 -41 -56 -18 -43 -35 -64 -74 -94 -93
-69 -110 -75 -226 -75 -105 0 -105 0 -102 -24 1 -13 15 -38 31 -57 45 -51 47
-68 12 -116 -17 -23 -31 -45 -31 -50 0 -4 27 -7 60 -6 53 1 64 -2 88 -25 16
-15 31 -27 34 -27 7 0 108 -61 108 -66 0 -1 -17 0 -38 3 -35 5 -40 3 -49 -23
-19 -53 -35 -133 -28 -144 4 -6 1 -19 -7 -28 -23 -30 -38 -61 -38 -83 0 -22 9
-21 79 7 18 8 44 14 57 14 18 0 24 6 24 21 0 19 4 20 48 15 152 -18 261 -7
205 22 -15 8 -148 20 -285 25 -62 3 -42 37 33 57 24 6 59 16 78 22 18 5 78 12
132 14 l99 3 0 -25 c0 -14 -5 -45 -11 -70 -6 -25 -9 -48 -5 -51 11 -11 207 61
217 80 7 12 22 17 54 17 42 0 44 -1 51 -35 3 -19 12 -39 20 -46 22 -18 28 13
29 138 0 106 1 113 20 113 11 0 32 15 47 32 19 22 31 29 38 22 12 -12 40 -115
40 -149 0 -29 26 -34 34 -7 3 9 1 42 -4 72 -26 139 -27 133 19 163 59 39 68
36 86 -30 9 -32 23 -79 31 -105 8 -26 14 -54 14 -62 0 -21 19 -21 27 0 3 9 -2
57 -12 108 -28 149 -35 134 80 167 55 16 118 31 141 33 22 2 58 11 78 20 21 9
47 16 58 16 27 0 75 38 57 44 -71 23 -108 29 -259 41 -19 2 -60 6 -90 9 -30 4
-77 9 -105 12 -106 11 -312 57 -361 80 -29 13 -68 38 -89 54 -20 16 -45 32
-54 35 -10 3 -23 15 -28 28 l-10 22 -11 -22z m78 -123 c30 -22 27 -25 -27 -34
-45 -7 -51 0 -33 35 13 24 28 24 60 -1z m102 -76 c28 -6 47 -49 30 -66 -12
-12 -87 -5 -156 13 -44 12 -50 11 -62 -6 -11 -14 -14 -15 -14 -4 0 21 21 47
50 64 24 13 79 13 152 -1z m285 -24 c20 0 22 -3 15 -17 -7 -12 -5 -24 5 -40
19 -28 25 -90 11 -100 -7 -3 -29 -10 -50 -13 -34 -7 -38 -5 -33 9 9 20 25 134
21 139 -2 2 -31 -4 -64 -12 -74 -20 -72 -20 -72 2 0 35 21 44 84 38 32 -3 70
-6 83 -6z m316 -36 c70 -4 127 -10 127 -14 0 -8 -51 -23 -155 -45 -44 -9 -93
-21 -110 -27 -16 -6 -43 -13 -59 -15 l-29 -6 7 48 c12 75 14 78 55 71 20 -3
93 -8 164 -12z m-1353 -54 c0 -16 -31 -33 -41 -23 -16 16 0 41 22 36 10 -3 19
-9 19 -13z m655 0 c11 0 44 3 73 6 48 6 52 4 52 -15 0 -31 -18 -34 -112 -23
-67 8 -86 7 -98 -4 -26 -25 4 -36 107 -38 l98 -1 3 -28 3 -28 -63 8 c-35 4
-85 8 -113 8 -49 0 -50 -1 -50 -30 0 -25 4 -30 28 -33 15 -2 40 3 56 11 37 18
137 11 146 -11 3 -8 1 -20 -4 -25 -9 -9 -135 -4 -182 8 -28 7 -59 -14 -59 -42
0 -14 15 -15 120 -8 127 7 131 6 114 -39 -7 -19 -83 -21 -154 -5 -41 9 -46 8
-62 -12 -40 -48 -16 -63 74 -47 35 6 81 12 103 12 39 1 40 0 40 -34 0 -35 0
-35 -49 -38 -52 -3 -176 29 -193 50 -6 7 -13 60 -17 118 -5 94 -4 108 14 135
11 17 20 47 20 70 l0 40 42 -3 c24 -2 52 -3 63 -2z m285 -15 c0 -8 -2 -15 -4
-15 -2 0 -6 7 -10 15 -3 8 -1 15 4 15 6 0 10 -7 10 -15z m-55 -28 c18 -33 18
-34 -9 -60 -14 -14 -26 -33 -26 -42 0 -9 -4 -14 -9 -10 -5 3 -7 22 -5 43 16
117 20 123 49 69z m-757 -26 c11 -7 10 -10 -3 -15 -20 -7 -38 1 -30 15 7 11
16 11 33 0z m-168 -81 c0 -5 -4 -10 -10 -10 -5 0 -10 5 -10 10 0 6 5 10 10 10
6 0 10 -4 10 -10z m960 -4 c0 -7 -7 -19 -15 -26 -12 -10 -15 -9 -15 7 0 11 3
23 7 26 11 12 23 8 23 -7z m-79 -83 c-15 -33 -19 -27 -13 21 4 32 6 36 14 21
7 -11 6 -25 -1 -42z m-598 -33 c-8 -31 -23 -34 -23 -6 0 16 6 26 14 26 9 0 12
-7 9 -20z m-105 -96 c28 -8 28 -20 1 -34 -24 -13 -24 -13 -33 18 -8 23 -4 25
32 16z m482 -85 c0 -8 -75 -39 -95 -39 -17 0 -21 40 -5 56 11 11 100 -5 100
-17z m-520 -95 c-40 -17 -40 -17 -40 0 0 18 17 24 48 18 24 -5 23 -5 -8 -18z"/>
</g>
</svg>
