<?xml version="1.0" standalone="no"?>
<!DOCTYPE svg PUBLIC "-//W3C//DTD SVG 20010904//EN"
 "http://www.w3.org/TR/2001/REC-SVG-20010904/DTD/svg10.dtd">
<svg version="1.0" xmlns="http://www.w3.org/2000/svg"
 width="105.000000pt" height="65.000000pt" viewBox="0 0 105.000000 65.000000"
 preserveAspectRatio="xMidYMid meet">
<metadata>
Created by potrace 1.16, written by Peter Selinger 2001-2019
</metadata>
<g transform="translate(0.000000,65.000000) scale(0.100000,-0.100000)"
fill="#000000" stroke="none">
<path d="M713 643 c9 -2 23 -2 30 0 6 3 -1 5 -18 5 -16 0 -22 -2 -12 -5z"/>
<path d="M773 643 c9 -2 25 -2 35 0 9 3 1 5 -18 5 -19 0 -27 -2 -17 -5z"/>
<path d="M873 643 c9 -2 23 -2 30 0 6 3 -1 5 -18 5 -16 0 -22 -2 -12 -5z"/>
<path d="M1008 643 c6 -2 18 -2 25 0 6 3 1 5 -13 5 -14 0 -19 -2 -12 -5z"/>
<path d="M365 613 c-47 -57 -75 -97 -75 -106 0 -6 -8 -19 -17 -29 -15 -16 -15
-25 -5 -64 26 -97 11 -115 -63 -69 -42 26 -70 31 -79 16 -12 -18 -23 -132 -14
-137 5 -4 21 4 34 17 38 35 95 59 116 48 15 -8 18 -23 17 -95 0 -65 3 -90 15
-103 9 -10 16 -23 16 -29 0 -23 18 -11 66 44 27 31 55 62 62 68 7 6 25 23 40
37 47 45 206 131 228 122 28 -10 144 -130 144 -148 0 -8 11 -25 25 -37 14 -12
25 -33 26 -47 l0 -26 11 25 c6 14 12 88 14 165 4 171 7 191 45 263 37 72 37
82 -3 82 -18 0 -49 3 -68 5 -56 9 -67 -5 -44 -57 16 -39 24 -95 40 -303 l5
-70 -23 34 c-13 18 -35 48 -50 66 -32 38 -35 73 -12 141 8 25 13 49 9 52 -8 8
-62 -25 -100 -60 -39 -36 -59 -35 -109 5 -23 18 -57 43 -77 55 -40 24 -139
125 -139 141 0 17 -19 13 -35 -6z m585 -38 c0 -4 -7 -20 -17 -38 -15 -29 -17
-30 -24 -12 -12 32 -10 43 9 48 27 7 32 7 32 2z m-540 -55 c0 -13 -4 -12 -35
2 -18 8 -22 14 -13 19 14 9 48 -7 48 -21z m73 -65 c40 -19 90 -46 112 -60 22
-14 46 -28 53 -31 6 -4 12 -10 12 -14 0 -18 -223 -126 -239 -115 -5 3 -1 27
10 55 10 27 17 50 14 50 -3 0 2 14 10 31 19 36 13 64 -11 55 -9 -4 -23 -1 -31
5 -28 24 -37 -6 -37 -123 l-1 -111 -34 -14 -34 -14 7 53 c12 102 16 120 36
165 11 25 20 50 20 56 0 10 29 47 37 47 2 0 37 -16 76 -35z m-153 -17 c0 -7
-5 -20 -10 -28 -8 -12 -10 -9 -10 13 0 15 5 27 10 27 6 0 10 -6 10 -12z m441
-35 c-7 -26 -31 -45 -31 -24 0 9 30 51 36 51 1 0 -1 -12 -5 -27z m-577 -102
c3 -4 -6 -13 -19 -19 -22 -10 -25 -9 -25 8 0 20 33 29 44 11z m176 -152 c0
-19 -21 -50 -31 -44 -13 9 -11 42 4 48 20 9 27 8 27 -4z"/>
</g>
</svg>
