<?xml version="1.0" standalone="no"?>
<!DOCTYPE svg PUBLIC "-//W3C//DTD SVG 20010904//EN"
 "http://www.w3.org/TR/2001/REC-SVG-20010904/DTD/svg10.dtd">
<svg version="1.0" xmlns="http://www.w3.org/2000/svg"
 width="111.000000pt" height="83.000000pt" viewBox="0 0 111.000000 83.000000"
 preserveAspectRatio="xMidYMid meet">
<metadata>
Created by potrace 1.16, written by Peter Selinger 2001-2019
</metadata>
<g transform="translate(0.000000,83.000000) scale(0.100000,-0.100000)"
fill="#000000" stroke="none">
<path d="M288 768 c-66 -120 -65 -116 -55 -186 7 -58 6 -68 -9 -79 -32 -24
-65 -15 -105 27 -21 22 -42 40 -48 40 -16 0 -21 -29 -10 -58 6 -16 8 -59 4
-108 -8 -89 4 -115 29 -66 21 40 83 85 118 85 40 0 40 1 50 -103 5 -51 -3 -82
-22 -87 -11 -3 -21 -8 -21 -12 -1 -3 -3 -15 -4 -26 -2 -11 -6 -43 -10 -71 -11
-79 4 -78 129 10 36 25 117 46 179 46 64 0 187 21 187 31 0 5 -31 9 -70 9
l-70 0 0 110 c0 80 4 112 13 115 6 2 87 6 179 9 149 4 167 3 173 -12 4 -9 9
-66 12 -127 2 -60 7 -117 9 -125 10 -29 23 14 28 96 9 133 25 224 52 288 37
88 48 125 40 133 -3 4 -127 7 -274 8 -254 1 -344 8 -367 26 -6 4 -20 7 -30 7
-39 -3 -75 11 -69 27 10 24 -24 18 -38 -7z m26 -57 c3 -4 -6 -13 -20 -20 -34
-15 -36 -14 -22 9 13 21 33 26 42 11z m696 -98 c-36 -91 -47 -96 -55 -25 -8
67 -3 82 25 82 10 0 22 5 26 11 4 7 9 8 17 0 7 -7 3 -28 -13 -68z m-526 58
c23 -9 31 -70 10 -78 -8 -3 -34 -1 -57 5 -23 6 -55 14 -70 17 -16 3 -25 10
-21 16 3 6 0 10 -7 8 -29 -3 -59 1 -59 9 0 26 153 43 204 23z m430 -64 c11
-106 12 -104 -41 -111 -27 -3 -104 -7 -172 -7 -148 -2 -154 2 -139 83 18 96
12 93 234 95 l111 0 7 -60z m-463 -49 c40 4 49 2 49 -11 0 -12 -15 -16 -72
-19 -80 -3 -123 13 -78 30 14 5 31 6 38 2 8 -4 36 -5 63 -2z m28 -78 c33 0 44
-9 30 -26 -8 -10 -34 -14 -89 -14 -92 0 -110 5 -110 32 0 19 5 20 73 14 39 -3
83 -6 96 -6z m-339 -36 c0 -3 -9 -17 -20 -31 l-20 -26 0 32 c0 24 4 31 20 31
11 0 20 -3 20 -6z m275 -41 l100 2 3 -26 3 -26 -96 3 c-70 2 -99 -1 -109 -11
-12 -12 -14 -11 -18 8 -5 31 2 73 11 59 4 -7 42 -10 106 -9z m-89 -93 c6 -6
22 -6 44 0 35 11 150 4 148 -8 -1 -4 2 -15 6 -24 4 -9 6 -25 4 -35 -3 -16 -16
-18 -93 -21 -50 -1 -96 2 -104 7 -7 5 -17 27 -21 50 -7 41 -3 50 16 31z m-58
-169 c-2 -8 -9 -16 -15 -19 -9 -2 -13 8 -13 35 1 36 1 37 16 18 8 -11 13 -26
12 -34z"/>
</g>
</svg>
