<?xml version="1.0" standalone="no"?>
<!DOCTYPE svg PUBLIC "-//W3C//DTD SVG 20010904//EN"
 "http://www.w3.org/TR/2001/REC-SVG-20010904/DTD/svg10.dtd">
<svg version="1.0" xmlns="http://www.w3.org/2000/svg"
 width="111.000000pt" height="109.000000pt" viewBox="0 0 111.000000 109.000000"
 preserveAspectRatio="xMidYMid meet">
<metadata>
Created by potrace 1.16, written by Peter Selinger 2001-2019
</metadata>
<g transform="translate(0.000000,109.000000) scale(0.100000,-0.100000)"
fill="#000000" stroke="none">
<path d="M476 1004 c-3 -9 -6 -29 -6 -45 0 -34 0 -34 -45 -15 -20 9 -35 22
-35 31 0 28 -34 13 -37 -16 -1 -15 -7 -45 -13 -68 l-11 -41 -52 5 c-58 5 -126
26 -160 50 -34 24 -54 19 -59 -15 -3 -16 0 -30 5 -30 5 0 7 -17 4 -40 -6 -44
4 -50 40 -25 12 9 39 18 60 21 125 17 163 10 163 -30 0 -22 -5 -25 -42 -28
-24 -2 -74 0 -113 4 -38 3 -82 4 -97 1 -26 -5 -28 -9 -26 -52 1 -25 0 -53 -2
-61 -4 -11 1 -14 15 -12 11 2 73 6 138 9 l117 5 0 -30 0 -30 -102 5 c-57 2
-115 8 -130 13 -23 7 -30 5 -38 -11 -6 -11 -9 -23 -6 -27 3 -4 64 -9 137 -10
133 -1 157 -7 146 -36 -5 -13 -17 -15 -59 -11 -29 3 -78 7 -108 10 -30 3 -66
6 -80 8 -31 3 -40 -28 -13 -48 10 -8 13 -15 7 -15 -14 0 -35 -92 -23 -104 5
-6 33 -1 71 12 97 34 218 26 218 -14 0 -14 -9 -16 -60 -11 -39 3 -62 1 -69 -7
-13 -15 -35 -105 -28 -113 4 -3 45 4 91 16 47 11 90 21 95 21 11 0 20 -54 24
-149 2 -39 8 -66 15 -69 14 -4 14 -4 12 136 l-1 102 39 0 c22 0 44 -6 50 -13
6 -7 12 -51 14 -97 2 -56 7 -85 16 -88 9 -3 12 21 12 98 l0 101 38 -3 c33 -3
37 -6 39 -33 2 -16 8 -63 14 -103 16 -99 33 -79 33 40 l1 93 47 3 47 3 3 -58
c4 -73 21 -75 28 -3 4 46 9 57 30 67 l25 13 -23 6 c-26 8 -39 48 -22 69 7 8
10 26 6 39 -11 44 14 56 117 55 128 -2 137 -1 137 14 0 10 -30 13 -122 14 -68
1 -124 6 -126 11 -7 21 33 34 122 39 71 4 96 9 96 19 0 11 -23 14 -104 14 -82
0 -105 3 -109 15 -4 8 -1 17 4 21 12 7 99 15 177 16 38 1 52 5 52 15 0 11 -22
14 -117 12 l-118 -2 -3 25 c-3 28 -13 25 161 44 55 7 75 19 40 26 -10 2 -52
-1 -95 -6 -42 -5 -84 -6 -92 -3 -23 9 -20 44 9 94 l26 43 -41 0 c-33 0 -40 -3
-40 -20 0 -11 -4 -20 -10 -20 -15 0 -12 17 11 62 25 48 17 61 -37 56 l-39 -3
0 -47 c0 -54 -6 -62 -35 -53 -24 8 -22 32 6 89 24 50 19 59 -27 53 -22 -3 -43
-8 -46 -11 -3 -3 -6 -27 -7 -53 -2 -46 -3 -48 -30 -46 -16 1 -30 4 -32 6 -2 2
3 25 12 51 14 41 14 50 3 57 -24 15 -76 10 -83 -7z m54 -26 c0 -7 -3 -23 -6
-36 -7 -26 -30 -25 -28 1 1 10 2 24 3 32 1 18 31 20 31 3z m129 -10 c0 -7 -4
-22 -8 -33 -7 -17 -8 -17 -13 8 -3 14 -3 29 0 32 10 9 22 5 21 -7z m104 -53
c-5 -13 -23 -22 -23 -11 0 15 14 35 21 31 4 -3 6 -12 2 -20z m-340 -22 l32
-16 -28 -10 c-35 -11 -57 -3 -57 23 0 24 11 25 53 3z m-295 -55 c-6 -18 -28
-21 -28 -4 0 9 7 16 16 16 9 0 14 -5 12 -12z m356 -10 c9 -41 15 -102 16 -150
0 -28 5 -48 11 -48 7 0 10 36 8 108 -3 105 -2 107 20 110 71 11 96 -34 63
-109 -31 -70 -42 -112 -42 -162 l0 -46 33 6 c17 4 68 8 112 8 76 0 80 -1 83
-23 3 -23 2 -23 -90 -21 -52 1 -99 -1 -105 -4 -6 -4 -13 -1 -16 5 -3 10 -9 10
-28 1 -13 -6 -32 -14 -42 -17 -23 -7 -13 -26 14 -26 13 0 19 -7 19 -22 -1 -21
-2 -21 -11 -5 -19 32 -29 17 -29 -43 l0 -60 -36 0 -36 0 7 53 c4 28 11 60 16
69 5 9 9 30 9 46 0 32 -14 42 -57 42 -22 0 -24 2 -13 15 10 12 10 19 2 27 -18
18 -14 66 6 78 12 8 13 13 5 16 -17 7 -16 38 2 99 21 70 69 102 79 53z m239
-12 c7 -17 3 -56 -6 -57 -4 -1 -21 1 -37 5 -25 5 -30 10 -30 35 0 16 5 31 12
33 19 7 56 -3 61 -16z m54 -50 c-4 -9 -11 -16 -17 -16 -11 0 -14 53 -3 64 11
10 27 -30 20 -48z m-397 32 c0 -7 -5 -20 -10 -28 -8 -12 -10 -9 -10 13 0 15 5
27 10 27 6 0 10 -6 10 -12z m-78 -80 c17 -6 25 -15 21 -24 -4 -11 -25 -14 -87
-13 -94 1 -178 13 -156 22 48 21 184 30 222 15z m368 2 c0 -5 -4 -10 -10 -10
-5 0 -10 5 -10 10 0 6 5 10 10 10 6 0 10 -4 10 -10z m108 -33 c3 -27 2 -27
-55 -27 -61 0 -95 12 -74 25 16 10 104 33 116 30 6 -1 11 -14 13 -28z m8 -78
c3 -6 2 -15 -2 -19 -11 -10 -174 10 -174 22 0 12 168 10 176 -3z m-366 -131
c0 -36 -11 -68 -21 -62 -5 3 -9 23 -9 45 0 28 4 39 15 39 9 0 15 -9 15 -22z
m-95 -23 l0 -30 -60 3 c-67 4 -175 30 -175 43 0 9 54 14 160 14 l75 0 0 -30z
m458 3 c2 -7 0 -21 -5 -32 -6 -10 -11 -37 -11 -60 l-2 -41 -47 -1 c-54 -1 -55
2 -32 63 9 24 15 46 12 48 -9 10 -38 -7 -38 -21 0 -8 -4 -14 -10 -14 -5 0 -7
7 -4 15 4 8 1 22 -5 29 -10 12 -2 14 50 15 34 0 64 2 67 5 9 10 20 7 25 -6z
m-175 -82 c3 -45 2 -47 -20 -44 -19 2 -23 9 -22 36 4 77 37 84 42 8z m-508 34
c0 -5 -4 -10 -10 -10 -5 0 -10 5 -10 10 0 6 5 10 10 10 6 0 10 -4 10 -10z
m275 -50 c3 -5 1 -10 -4 -10 -6 0 -11 5 -11 10 0 6 2 10 4 10 3 0 8 -4 11 -10z
m-70 -60 c22 -9 18 -12 -47 -29 -38 -9 -43 -6 -32 23 7 17 45 20 79 6z"/>
</g>
</svg>
