<?xml version="1.0" standalone="no"?>
<!DOCTYPE svg PUBLIC "-//W3C//DTD SVG 20010904//EN"
 "http://www.w3.org/TR/2001/REC-SVG-20010904/DTD/svg10.dtd">
<svg version="1.0" xmlns="http://www.w3.org/2000/svg"
 width="60.000000pt" height="62.000000pt" viewBox="0 0 60.000000 62.000000"
 preserveAspectRatio="xMidYMid meet">
<metadata>
Created by potrace 1.16, written by Peter Selinger 2001-2019
</metadata>
<g transform="translate(0.000000,62.000000) scale(0.100000,-0.100000)"
fill="#000000" stroke="none">
<path d="M115 550 c-3 -5 -2 -18 4 -27 11 -21 41 -162 41 -194 0 -16 -3 -19
-13 -11 -7 6 -18 7 -25 3 -16 -9 -56 -147 -48 -166 5 -15 12 -13 156 41 33 12
81 17 180 18 113 1 135 3 135 16 0 11 -10 15 -35 14 -80 -2 -266 18 -287 31
-21 14 -21 16 -6 72 8 32 28 86 45 121 16 35 27 66 24 69 -17 18 -161 28 -171
13z m127 -35 c3 -3 -3 -22 -13 -43 -11 -20 -19 -42 -19 -49 0 -7 -4 -13 -9
-13 -6 0 -13 21 -17 46 -5 34 -3 48 7 55 16 10 43 12 51 4z m-72 -305 c0 -18
-19 -30 -46 -30 -16 0 -11 33 9 58 12 16 37 -2 37 -28z"/>
</g>
</svg>
