<?xml version="1.0" standalone="no"?>
<!DOCTYPE svg PUBLIC "-//W3C//DTD SVG 20010904//EN"
 "http://www.w3.org/TR/2001/REC-SVG-20010904/DTD/svg10.dtd">
<svg version="1.0" xmlns="http://www.w3.org/2000/svg"
 width="149.000000pt" height="85.000000pt" viewBox="0 0 149.000000 85.000000"
 preserveAspectRatio="xMidYMid meet">
<metadata>
Created by potrace 1.16, written by Peter Selinger 2001-2019
</metadata>
<g transform="translate(0.000000,85.000000) scale(0.100000,-0.100000)"
fill="#000000" stroke="none">
<path d="M0 840 c0 -5 5 -10 10 -10 6 0 10 5 10 10 0 6 -4 10 -10 10 -5 0 -10
-4 -10 -10z"/>
<path d="M723 838 c-13 -6 -23 -17 -23 -24 0 -21 -90 -124 -131 -150 -30 -19
-39 -30 -34 -44 4 -12 -2 -24 -17 -34 -13 -9 -51 -37 -84 -61 -34 -25 -68 -45
-76 -45 -17 0 -94 71 -123 114 -11 15 -28 38 -38 50 l-17 21 -50 -55 c-28 -30
-49 -61 -48 -68 2 -7 34 -24 72 -37 38 -13 74 -29 80 -35 5 -5 20 -10 32 -10
32 0 39 -18 17 -42 -26 -29 -117 -88 -144 -93 -12 -3 -26 -10 -30 -16 -13 -22
13 -169 31 -169 14 0 38 28 46 53 11 33 85 145 100 151 8 3 14 12 14 19 0 23
39 53 54 42 7 -6 32 -23 56 -38 49 -33 130 -106 130 -118 0 -9 -37 -23 -64
-24 -46 0 -41 -39 23 -164 20 -40 37 -22 60 66 6 23 17 48 24 55 7 7 33 42 57
78 46 67 94 120 110 120 6 0 10 7 10 15 0 27 -21 16 -100 -55 l-78 -71 -92 89
-92 89 33 37 c17 21 48 46 68 57 20 10 45 26 56 34 19 13 25 12 69 -20 58 -41
62 -45 149 -129 47 -47 67 -73 67 -91 0 -29 5 -30 40 -12 33 17 56 24 160 48
191 43 277 59 310 57 72 -4 110 2 110 16 0 19 -102 29 -169 16 -59 -11 -224
-4 -286 12 -22 5 -57 19 -77 29 -54 28 -77 11 -78 -58 0 -34 -18 -37 -34 -6
-8 15 -39 54 -69 86 -36 38 -57 71 -61 92 -9 48 36 181 72 212 24 20 25 23 7
22 -11 0 -30 -5 -42 -11z m-78 -188 c-6 -29 -8 -31 -23 -16 -14 14 -14 17 3
36 10 11 20 18 23 16 2 -3 1 -19 -3 -36z m-455 -71 c15 -27 8 -32 -29 -24 -27
6 -29 9 -21 26 14 25 36 24 50 -2z m825 -159 c25 0 45 -4 45 -8 0 -14 -164
-52 -171 -41 -8 14 2 62 14 71 6 3 23 0 38 -8 16 -8 48 -14 74 -14z m-812
-142 c-36 -63 -53 -72 -53 -27 0 24 8 39 28 56 47 39 57 28 25 -29z m344 -105
l-25 -48 -8 29 c-6 25 -3 33 21 53 15 13 29 22 32 19 2 -2 -7 -26 -20 -53z"/>
</g>
</svg>
