<?xml version="1.0" standalone="no"?>
<!DOCTYPE svg PUBLIC "-//W3C//DTD SVG 20010904//EN"
 "http://www.w3.org/TR/2001/REC-SVG-20010904/DTD/svg10.dtd">
<svg version="1.0" xmlns="http://www.w3.org/2000/svg"
 width="165.000000pt" height="84.000000pt" viewBox="0 0 165.000000 84.000000"
 preserveAspectRatio="xMidYMid meet">
<metadata>
Created by potrace 1.16, written by Peter Selinger 2001-2019
</metadata>
<g transform="translate(0.000000,84.000000) scale(0.100000,-0.100000)"
fill="#000000" stroke="none">
<path d="M519 712 c-21 -2 -28 -10 -33 -34 -3 -16 -4 -34 -1 -38 9 -14 -177
-160 -203 -160 -6 0 -36 23 -67 52 -62 57 -74 55 -73 -12 0 -20 -3 -60 -7 -88
-4 -29 -4 -52 0 -52 3 0 24 15 46 32 32 26 49 32 82 32 39 -1 47 -7 125 -90
97 -105 139 -161 144 -194 2 -17 10 -26 26 -28 27 -4 27 3 3 59 -14 35 -17 61
-13 122 5 94 5 94 145 102 156 9 687 12 687 4 0 -18 -63 -79 -81 -79 -31 0
-22 -15 34 -57 28 -22 77 -63 107 -92 30 -28 56 -51 57 -51 2 0 3 7 3 17 0 9
-25 40 -55 70 -61 60 -61 64 -23 150 18 40 47 61 68 48 5 -3 10 1 10 9 0 15
-9 25 -42 49 -16 11 -16 16 -3 52 8 22 14 48 15 57 0 10 9 35 21 57 11 23 19
45 17 50 -1 6 -40 -20 -85 -57 -45 -37 -93 -75 -107 -85 -14 -10 -26 -24 -26
-31 0 -7 29 -23 65 -35 36 -13 65 -27 65 -32 0 -4 -152 -7 -337 -6 l-338 3
-77 34 c-91 40 -93 47 -53 145 14 33 21 63 17 67 -10 10 -76 16 -113 10z m68
-30 c10 -6 8 -21 -7 -65 -11 -31 -20 -65 -20 -76 0 -31 -18 -34 -24 -4 -10 48
-17 134 -11 144 7 11 45 12 62 1z m863 -73 c0 -26 -23 -99 -32 -99 -19 0 -68
31 -68 43 1 14 68 65 88 66 6 1 12 -4 12 -10z m-951 -76 c14 -68 27 -253 17
-253 -14 0 -89 84 -102 116 -12 28 -12 43 -4 76 12 44 55 118 69 118 4 0 14
-26 20 -57z m-112 -48 c-11 -36 -37 -49 -37 -18 0 17 27 53 41 53 4 0 2 -16
-4 -35z m-184 -37 c-22 -24 -33 -23 -33 5 0 32 8 38 31 24 17 -10 17 -13 2
-29z m407 15 l24 -17 -24 -7 c-29 -7 -51 6 -43 27 7 18 13 18 43 -3z m773
-120 c-4 -24 -11 -33 -24 -33 -11 0 -19 5 -19 12 0 11 41 61 46 55 1 -1 -1
-17 -3 -34z"/>
</g>
</svg>
