<?xml version="1.0" standalone="no"?>
<!DOCTYPE svg PUBLIC "-//W3C//DTD SVG 20010904//EN"
 "http://www.w3.org/TR/2001/REC-SVG-20010904/DTD/svg10.dtd">
<svg version="1.0" xmlns="http://www.w3.org/2000/svg"
 width="72.000000pt" height="79.000000pt" viewBox="0 0 72.000000 79.000000"
 preserveAspectRatio="xMidYMid meet">
<metadata>
Created by potrace 1.16, written by Peter Selinger 2001-2019
</metadata>
<g transform="translate(0.000000,79.000000) scale(0.100000,-0.100000)"
fill="#000000" stroke="none">
<path d="M444 756 c-3 -8 -1 -23 5 -35 17 -31 13 -50 -11 -55 -159 -34 -210
-39 -263 -27 -30 7 -59 10 -65 6 -12 -7 -14 -122 -2 -129 5 -3 24 8 43 23 19
15 48 35 64 43 40 21 146 47 217 55 l58 6 2 -32 c1 -17 2 -45 3 -61 1 -22 -4
-34 -18 -41 -27 -15 -123 -2 -170 22 -44 22 -56 23 -80 4 -21 -15 -40 -82 -26
-91 5 -3 31 2 57 10 64 21 220 25 233 5 5 -8 8 -53 7 -101 -1 -76 -3 -88 -18
-88 -18 0 -69 22 -130 55 -19 11 -54 26 -77 35 -40 15 -68 32 -121 77 -15 13
-32 23 -39 23 -6 0 -21 -25 -32 -56 -12 -31 -28 -69 -36 -85 -20 -37 -5 -39
56 -4 40 22 50 23 105 16 33 -5 95 -25 136 -44 41 -20 93 -40 115 -46 l40 -11
7 -61 c3 -34 6 -77 6 -95 0 -19 4 -34 9 -34 12 0 19 71 21 188 0 80 16 193 48
347 5 22 21 67 36 100 16 35 23 62 17 68 -5 5 -40 11 -77 13 -38 3 -79 7 -92
10 -14 3 -25 -1 -28 -10z m156 -33 c-1 -5 -14 -46 -30 -93 -25 -74 -29 -81
-31 -50 -1 19 0 43 1 53 1 10 -2 24 -7 30 -5 7 -14 24 -21 40 l-12 27 50 0
c28 0 50 -3 50 -7z m-424 -138 c-10 -8 -23 -12 -28 -9 -14 9 2 24 25 24 21 -1
21 -1 3 -15z m94 -95 c0 -5 -4 -10 -10 -10 -5 0 -10 5 -10 10 0 6 5 10 10 10
6 0 10 -4 10 -10z m-116 -119 c3 -5 -8 -14 -24 -20 -32 -11 -41 2 -12 18 21
13 29 13 36 2z"/>
</g>
</svg>
