<?xml version="1.0" standalone="no"?>
<!DOCTYPE svg PUBLIC "-//W3C//DTD SVG 20010904//EN"
 "http://www.w3.org/TR/2001/REC-SVG-20010904/DTD/svg10.dtd">
<svg version="1.0" xmlns="http://www.w3.org/2000/svg"
 width="116.000000pt" height="80.000000pt" viewBox="0 0 116.000000 80.000000"
 preserveAspectRatio="xMidYMid meet">
<metadata>
Created by potrace 1.16, written by Peter Selinger 2001-2019
</metadata>
<g transform="translate(0.000000,80.000000) scale(0.100000,-0.100000)"
fill="#000000" stroke="none">
<path d="M790 756 c-12 -20 -49 -57 -82 -83 l-61 -48 34 -6 34 -6 -30 -3 c-16
-2 -82 -2 -145 -1 -111 2 -149 7 -235 36 -40 13 -90 10 -111 -6 -6 -5 -14 -28
-17 -50 -6 -49 -10 -53 -45 -54 l-27 0 -3 -102 c-1 -57 -7 -103 -12 -103 -14
0 -42 -59 -34 -71 3 -6 12 -8 20 -5 22 8 32 -29 28 -106 -1 -39 1 -68 7 -68
15 0 19 20 22 105 2 76 3 80 28 89 50 17 62 3 57 -69 -2 -36 0 -65 4 -65 4 0
8 1 8 3 1 1 3 31 7 67 6 74 10 82 41 74 20 -6 22 -13 22 -65 0 -33 4 -59 10
-59 6 0 10 26 10 59 0 65 15 87 51 76 20 -7 21 -12 16 -66 -6 -66 8 -91 18
-32 12 69 21 88 43 91 23 4 25 -3 22 -50 -3 -43 19 -33 26 12 5 32 11 40 28
41 11 0 40 2 64 4 46 4 44 9 47 -90 4 -147 5 -155 19 -155 8 0 21 17 29 39 9
21 31 51 49 66 l33 28 3 -42 c4 -53 19 -44 28 17 3 26 16 58 28 71 33 37 210
150 259 165 29 9 31 34 6 56 -13 11 -64 48 -112 81 -68 48 -92 70 -107 102
-26 58 -34 87 -35 121 0 42 -19 43 -45 2z m35 -115 c4 -14 3 -21 -2 -18 -6 4
-30 9 -53 12 -24 3 -46 8 -49 11 -3 3 12 21 34 39 l39 34 12 -28 c6 -15 15
-38 19 -50z m-558 -33 c18 -7 33 -15 33 -19 0 -8 -82 -30 -88 -24 -6 6 7 55
15 55 4 0 22 -5 40 -12z m576 -73 c-15 -7 -29 -8 -31 -3 -2 4 -12 8 -23 8 -18
0 -19 -9 -19 -135 l0 -135 -32 -20 c-57 -35 -72 -18 -55 63 11 54 39 132 69
195 30 62 30 63 12 84 -15 17 -6 15 44 -12 l63 -33 -28 -12z m-200 27 c-2 -10
-5 -67 -6 -127 l-2 -110 -69 -3 -69 -3 6 58 c3 32 9 69 13 81 6 21 4 23 -17
20 -22 -3 -24 -8 -29 -78 -4 -60 -8 -75 -22 -78 -30 -6 -41 33 -25 86 15 53
13 72 -9 72 -20 0 -34 -42 -34 -101 0 -46 -1 -49 -26 -49 -26 0 -27 1 -19 53
11 85 11 92 -5 92 -11 0 -16 -16 -20 -67 -6 -75 -10 -83 -40 -73 -17 5 -20 12
-15 28 21 67 23 102 9 117 -21 21 -31 1 -40 -77 l-6 -63 -34 0 c-18 0 -35 4
-38 9 -8 12 22 120 42 156 12 20 32 34 62 43 44 14 187 27 327 30 64 2 71 0
66 -16z m71 -74 c-13 -34 -24 -63 -24 -65 0 -3 -4 -1 -10 2 -11 7 -14 108 -3
118 3 4 19 7 34 7 l28 0 -25 -62z m363 -62 c-7 -22 -250 -136 -263 -123 -12
11 17 101 52 164 l34 62 90 -47 c50 -26 89 -51 87 -56z m-227 65 c0 -3 -9 -17
-20 -31 l-20 -25 0 37 c0 31 3 35 20 31 11 -3 20 -8 20 -12z m-680 -185 c0
-11 -19 -15 -25 -6 -3 5 1 10 9 10 9 0 16 -2 16 -4z m590 -87 c0 -15 -65 -79
-80 -79 -11 0 -13 30 -2 46 7 11 61 43 75 44 4 0 7 -5 7 -11z"/>
<path d="M1133 275 c-11 -25 -2 -42 17 -30 12 7 14 55 3 55 -5 0 -13 -11 -20
-25z"/>
</g>
</svg>
