<?xml version="1.0" standalone="no"?>
<!DOCTYPE svg PUBLIC "-//W3C//DTD SVG 20010904//EN"
 "http://www.w3.org/TR/2001/REC-SVG-20010904/DTD/svg10.dtd">
<svg version="1.0" xmlns="http://www.w3.org/2000/svg"
 width="60.000000pt" height="53.000000pt" viewBox="0 0 60.000000 53.000000"
 preserveAspectRatio="xMidYMid meet">
<metadata>
Created by potrace 1.16, written by Peter Selinger 2001-2019
</metadata>
<g transform="translate(0.000000,53.000000) scale(0.100000,-0.100000)"
fill="#000000" stroke="none">
<path d="M460 484 c-14 -10 -29 -22 -35 -28 -17 -19 -78 -62 -114 -80 -39 -21
-57 -17 -153 29 -40 20 -76 34 -82 32 -5 -2 -11 -46 -13 -98 -2 -52 -5 -107
-6 -123 -3 -48 18 -40 72 27 41 52 58 66 88 72 29 5 40 3 49 -10 9 -11 19 -15
34 -10 17 5 40 -10 120 -84 54 -50 105 -91 114 -91 31 0 16 40 -39 100 -43 49
-53 67 -50 88 2 15 7 48 10 74 3 26 15 58 26 71 34 44 23 60 -21 31z m-66
-126 c-9 -31 -12 -34 -26 -20 -8 8 -8 15 2 27 19 22 32 18 24 -7z m-234 -30
c0 -7 -12 -21 -25 -31 -25 -18 -25 -18 -25 6 0 13 3 27 7 30 11 12 43 8 43 -5z"/>
</g>
</svg>
