<?xml version="1.0" standalone="no"?>
<!DOCTYPE svg PUBLIC "-//W3C//DTD SVG 20010904//EN"
 "http://www.w3.org/TR/2001/REC-SVG-20010904/DTD/svg10.dtd">
<svg version="1.0" xmlns="http://www.w3.org/2000/svg"
 width="149.000000pt" height="84.000000pt" viewBox="0 0 149.000000 84.000000"
 preserveAspectRatio="xMidYMid meet">
<metadata>
Created by potrace 1.16, written by Peter Selinger 2001-2019
</metadata>
<g transform="translate(0.000000,84.000000) scale(0.100000,-0.100000)"
fill="#000000" stroke="none">
<path d="M1264 761 c9 -16 18 -47 22 -69 6 -39 5 -41 -22 -48 -16 -4 -39 -14
-51 -22 -16 -9 -35 -12 -63 -7 -38 6 -40 5 -40 -18 0 -20 -13 -30 -82 -65 -46
-22 -87 -37 -92 -32 -4 4 -1 37 8 72 21 84 21 108 -1 108 -27 0 -44 -15 -44
-36 3 -135 1 -159 -16 -171 -25 -19 -32 -16 -43 13 -11 29 -7 66 17 157 9 32
14 60 11 62 -2 2 -21 0 -41 -6 l-38 -10 7 -116 7 -116 -32 19 c-18 10 -37 26
-41 34 -8 15 11 158 24 178 3 6 -13 12 -35 14 -36 3 -42 1 -51 -22 -5 -14 -7
-51 -4 -82 3 -32 3 -58 0 -58 -3 0 -39 16 -80 36 -58 29 -81 47 -109 86 -20
27 -38 62 -42 79 -7 37 -34 38 -50 2 -7 -16 -26 -45 -43 -65 -25 -31 -38 -38
-66 -38 -21 0 -42 -8 -55 -21 -18 -18 -25 -19 -43 -9 -22 12 -76 89 -76 108 0
18 -22 25 -31 11 -5 -8 -9 -41 -9 -74 -1 -33 -7 -77 -14 -97 -21 -57 -3 -65
41 -18 21 23 38 31 67 32 50 2 66 -19 66 -86 1 -28 3 -93 6 -143 5 -81 4 -93
-10 -93 -18 0 -20 -29 -10 -118 8 -60 19 -66 39 -18 14 32 58 76 76 76 5 0 55
22 111 49 57 27 123 52 148 56 26 5 50 15 58 26 31 44 52 8 52 -87 0 -24 4
-44 10 -44 16 0 23 47 17 110 -6 65 3 80 44 80 31 0 39 -15 39 -73 0 -44 14
-77 26 -64 5 4 8 38 9 75 l0 67 33 3 c29 3 34 -1 47 -31 8 -19 12 -48 10 -65
-6 -50 13 -37 21 13 3 25 8 45 10 45 5 0 89 -41 129 -63 17 -10 65 -33 109
-52 78 -35 78 -36 72 -67 -9 -43 4 -130 18 -125 6 2 12 19 14 38 7 90 26 170
58 237 19 40 34 75 34 78 0 3 14 25 30 49 35 52 50 105 29 106 -28 1 -71 8
-75 12 -3 3 19 140 32 200 l6 27 -81 0 -82 0 15 -29z m98 -57 c-6 -58 -14 -60
-32 -9 -20 58 -17 72 13 52 16 -11 21 -23 19 -43z m-907 -85 c-7 -10 -95 22
-95 35 0 7 9 22 21 35 l21 22 28 -43 c16 -23 27 -45 25 -49z m259 43 c-1 -7
-2 -23 -2 -37 -3 -42 -22 -28 -22 16 0 28 4 39 13 37 6 -3 12 -10 11 -16z
m-604 -52 c0 -5 -4 -10 -10 -10 -5 0 -10 5 -10 10 0 6 5 10 10 10 6 0 10 -4
10 -10z m1196 -25 c23 -35 12 -45 -38 -33 -56 12 -69 25 -44 44 30 21 63 17
82 -11z m-1016 1 c0 -7 -8 -31 -17 -52 -15 -34 -18 -36 -21 -16 -2 12 2 36 10
52 14 31 28 40 28 16z m135 -5 c73 -23 115 -42 115 -51 0 -4 -7 -13 -16 -20
-38 -32 -37 -48 6 -98 50 -60 51 -77 3 -93 -35 -11 -38 -10 -61 16 -21 24 -23
34 -17 74 4 25 13 61 21 80 8 19 12 36 9 39 -3 3 -28 -16 -55 -43 -48 -48 -61
-77 -40 -90 6 -4 21 -28 34 -54 24 -46 24 -48 5 -59 -29 -19 -37 -15 -60 30
-21 40 -21 43 -4 110 9 38 14 72 11 76 -4 3 -21 -9 -39 -26 -36 -35 -63 -42
-54 -14 54 160 46 153 142 123z m688 -98 c-3 -13 -1 -23 3 -24 5 0 27 -2 49
-3 22 -2 66 -7 98 -11 49 -7 57 -11 57 -29 0 -45 -30 -51 -120 -24 -19 6 -41
17 -48 25 -22 22 -37 10 -40 -31 -3 -37 -3 -38 30 -35 59 4 133 -1 147 -10 22
-14 6 -101 -19 -101 -22 0 -179 66 -200 85 -8 7 -43 27 -77 44 -69 34 -85 61
-57 92 9 10 22 19 28 19 6 0 38 14 70 30 55 27 60 28 72 12 7 -9 10 -27 7 -39z
m203 36 c8 -6 14 -23 14 -37 0 -23 -2 -24 -41 -18 -23 4 -65 17 -95 29 -43 19
-51 26 -41 36 15 15 142 8 163 -10z m-688 -16 c40 -26 50 -43 50 -86 1 -32 -3
-40 -24 -47 -14 -6 -30 -10 -35 -10 -26 0 -71 123 -54 150 9 15 32 12 63 -7z
m802 10 c0 -8 -68 -124 -77 -133 -11 -10 8 114 19 127 11 14 58 18 58 6z
m-679 -71 l22 -19 -31 -11 c-31 -11 -32 -10 -32 19 0 34 9 36 41 11z m-416
-29 c-8 -35 -13 -39 -26 -26 -15 15 -2 53 18 53 12 0 14 -6 8 -27z m-30 -75
c27 -32 49 -77 42 -85 -3 -2 -21 -7 -41 -10 -35 -6 -36 -5 -37 28 0 19 -4 43
-8 54 -9 22 -4 45 9 45 5 0 20 -14 35 -32z m-40 -152 c-20 -14 -35 -12 -35 5
0 5 12 9 27 9 26 0 26 -1 8 -14z"/>
</g>
</svg>
