<?xml version="1.0" standalone="no"?>
<!DOCTYPE svg PUBLIC "-//W3C//DTD SVG 20010904//EN"
 "http://www.w3.org/TR/2001/REC-SVG-20010904/DTD/svg10.dtd">
<svg version="1.0" xmlns="http://www.w3.org/2000/svg"
 width="162.000000pt" height="93.000000pt" viewBox="0 0 162.000000 93.000000"
 preserveAspectRatio="xMidYMid meet">
<metadata>
Created by potrace 1.16, written by Peter Selinger 2001-2019
</metadata>
<g transform="translate(0.000000,93.000000) scale(0.100000,-0.100000)"
fill="#000000" stroke="none">
<path d="M965 898 c-37 -19 -85 -53 -85 -60 0 -8 -37 -53 -72 -87 -16 -16 -24
-31 -20 -38 5 -7 43 -20 87 -29 87 -18 236 -81 218 -92 -6 -4 -14 -51 -18
-104 -5 -60 -12 -102 -20 -108 -7 -6 -16 -33 -20 -59 l-6 -48 -87 -40 c-48
-22 -103 -43 -124 -47 -31 -6 -39 -3 -57 20 -24 31 -28 29 -37 -13 -5 -25 1
-37 34 -76 22 -26 43 -56 47 -67 10 -32 29 -24 53 23 63 123 74 136 152 176
41 21 92 48 112 60 35 21 37 21 47 4 9 -16 10 -16 19 7 18 46 92 66 92 25 0
-23 14 -18 26 9 8 17 8 28 1 35 -7 7 -7 18 -1 32 10 21 15 18 99 -62 50 -46
106 -101 125 -121 20 -21 39 -38 43 -38 19 0 2 31 -48 92 -47 56 -55 72 -56
109 -2 55 14 115 51 190 16 33 25 59 21 59 -4 0 -27 -21 -51 -46 -25 -26 -38
-44 -29 -41 14 5 13 -6 -9 -74 -15 -43 -31 -79 -37 -78 -5 0 -23 17 -40 36
l-29 36 24 16 c13 9 36 26 50 39 24 22 24 23 2 12 -12 -6 -39 -22 -59 -35 -40
-28 -53 -25 -53 11 0 19 -5 24 -24 24 -13 0 -29 7 -36 15 -6 8 -22 17 -33 21
-12 4 -63 26 -113 49 -113 53 -139 84 -138 165 0 30 6 66 13 78 15 29 12 34
-14 20z m-32 -131 l4 -58 -41 7 c-51 8 -53 10 -33 32 10 10 17 24 17 30 0 7 4
12 8 12 5 0 15 12 22 26 17 30 17 29 23 -49z m237 -208 c0 -12 -43 6 -48 20
-3 9 2 9 22 0 14 -7 26 -16 26 -20z m93 -40 c23 -32 15 -54 -21 -57 -31 -3
-32 -2 -32 37 0 34 3 41 19 41 11 0 26 -9 34 -21z m-93 -14 c0 -20 -5 -25 -24
-25 -31 0 -56 28 -35 41 8 5 24 9 37 9 17 0 22 -6 22 -25z m106 -81 c8 -32 -6
-46 -42 -42 -22 2 -30 9 -32 27 -7 45 63 60 74 15z m-106 -4 c6 -11 9 -24 6
-29 -9 -14 -55 -10 -68 6 -10 12 -9 18 7 29 26 19 42 17 55 -6z m-104 -97
c-11 -11 -19 6 -11 24 8 17 8 17 12 0 3 -10 2 -21 -1 -24z m-176 -146 c0 -7
-14 -27 -30 -46 -25 -27 -33 -31 -45 -21 -24 20 -17 45 18 63 40 19 57 21 57
4z"/>
<path d="M203 731 c-9 -14 -26 -21 -55 -23 -42 -3 -43 -4 -41 -38 0 -19 8 -73
17 -120 9 -47 19 -157 23 -245 11 -230 28 -207 30 42 2 197 12 280 36 288 7 3
27 6 46 7 l34 3 4 -75 c3 -41 6 -93 7 -115 1 -22 3 -105 4 -184 1 -94 5 -142
12 -135 5 5 11 112 12 250 2 176 6 245 16 256 7 9 38 20 70 25 68 12 217 11
229 0 11 -12 -30 -41 -96 -68 -31 -12 -70 -33 -87 -46 -17 -13 -36 -23 -42
-23 -7 0 -12 -9 -12 -20 0 -11 5 -20 10 -20 6 0 10 -6 10 -14 0 -7 27 -31 60
-52 33 -21 60 -41 60 -45 0 -5 -21 -9 -47 -11 -55 -3 -52 13 -32 -153 6 -55
13 -106 15 -114 8 -25 15 -5 16 45 1 60 49 198 71 202 8 2 45 -22 81 -53 36
-30 66 -50 66 -43 0 7 -29 44 -65 82 -36 38 -65 74 -66 80 -5 49 18 143 41
171 9 11 20 28 23 38 4 9 22 27 42 38 19 12 35 24 35 28 0 4 -60 9 -132 10
-144 1 -218 10 -288 35 -60 21 -93 20 -107 -3z m101 -35 l31 -13 -54 -12 c-60
-13 -73 -7 -64 27 6 25 22 25 87 -2z m-137 -51 c-2 -55 -17 -61 -17 -7 0 33 6
52 16 52 1 0 2 -20 1 -45z m417 -97 c-4 -13 -11 -38 -15 -57 -11 -50 -21 -54
-67 -24 -43 28 -53 43 -28 43 7 0 20 7 27 17 13 15 64 42 82 43 5 0 5 -10 1
-22z m-64 -230 c0 -55 -16 -67 -29 -23 -11 41 -8 55 15 55 9 0 14 -11 14 -32z"/>
<path d="M745 554 c-13 -20 -14 -28 -5 -34 6 -4 10 -24 8 -46 -2 -31 -7 -39
-28 -44 -20 -5 -26 -13 -28 -43 -3 -38 5 -46 25 -26 23 23 43 2 43 -46 0 -25
5 -45 10 -45 6 0 10 22 10 49 0 46 17 81 40 81 12 0 20 -38 21 -105 1 -80 17
-36 18 53 1 55 4 64 24 71 30 12 35 7 43 -45 8 -56 17 -50 18 13 1 44 3 48 26
48 23 0 25 -4 28 -57 4 -77 22 -75 22 2 0 49 4 62 20 72 25 16 25 24 -1 31
-15 4 -20 13 -19 34 3 42 1 57 -7 49 -4 -4 -9 -19 -11 -34 -4 -34 -14 -44 -35
-36 -11 4 -17 18 -17 40 0 24 -5 34 -15 34 -9 0 -15 -9 -15 -25 0 -21 -5 -25
-30 -25 -27 0 -30 3 -30 30 0 37 -15 39 -27 3 l-9 -27 -28 27 c-15 15 -28 27
-30 27 -2 0 -11 -12 -21 -26z m83 -88 c3 -32 1 -38 -13 -32 -9 3 -21 6 -26 6
-5 0 -9 16 -9 36 0 31 3 35 23 32 18 -2 23 -10 25 -42z m89 7 c6 -16 -13 -33
-38 -33 -21 0 -33 28 -19 45 13 16 50 8 57 -12z m63 -3 c0 -5 -4 -10 -10 -10
-5 0 -10 5 -10 10 0 6 5 10 10 10 6 0 10 -4 10 -10z m-236 -75 c-6 -16 -34
-21 -34 -7 0 13 11 22 26 22 8 0 11 -6 8 -15z"/>
</g>
</svg>
