<?xml version="1.0" standalone="no"?>
<!DOCTYPE svg PUBLIC "-//W3C//DTD SVG 20010904//EN"
 "http://www.w3.org/TR/2001/REC-SVG-20010904/DTD/svg10.dtd">
<svg version="1.0" xmlns="http://www.w3.org/2000/svg"
 width="126.000000pt" height="73.000000pt" viewBox="0 0 126.000000 73.000000"
 preserveAspectRatio="xMidYMid meet">
<metadata>
Created by potrace 1.16, written by Peter Selinger 2001-2019
</metadata>
<g transform="translate(0.000000,73.000000) scale(0.100000,-0.100000)"
fill="#000000" stroke="none">
<path d="M186 687 c-20 -20 -44 -93 -34 -103 2 -2 44 2 93 8 102 13 203 4 212
-18 3 -8 2 -26 -2 -41 -5 -21 -8 -24 -16 -12 -5 7 -9 24 -9 37 0 12 -4 22 -10
22 -5 0 -10 -16 -10 -36 l0 -36 -64 6 c-34 3 -75 10 -90 16 -44 16 -84 12 -96
-10 -19 -36 -4 -40 120 -33 107 5 120 4 126 -11 4 -9 5 -19 2 -21 -2 -3 -47
-5 -99 -6 -95 -1 -159 -13 -159 -30 0 -4 12 -7 28 -4 47 7 229 15 234 10 2 -3
3 -19 0 -35 l-4 -31 -123 6 c-101 5 -124 3 -134 -9 -21 -25 -5 -34 41 -25 24
4 82 8 131 9 l87 0 0 -29 c0 -23 -5 -30 -25 -33 -34 -7 -173 -2 -212 7 -32 7
-33 6 -33 -25 0 -26 3 -31 17 -25 10 3 56 8 103 11 47 3 97 7 112 9 28 3 57
-18 39 -29 -5 -4 -58 -6 -118 -5 -115 1 -163 -6 -163 -25 0 -12 127 -13 196
-2 50 9 94 -7 94 -33 0 -11 -3 -22 -7 -24 -9 -5 -212 17 -260 27 -46 11 -64
-4 -84 -70 -19 -60 -17 -75 5 -59 52 38 71 48 108 56 24 5 50 12 58 15 8 3 85
5 170 5 106 -1 150 2 140 9 -8 5 -31 10 -50 10 -19 0 -40 4 -46 8 -20 12 -17
183 5 270 10 42 22 98 26 124 4 33 12 49 24 53 10 3 65 3 122 -1 57 -4 175 -7
262 -7 l157 0 0 -52 c0 -29 6 -90 14 -136 7 -46 14 -113 15 -149 3 -141 28
-165 33 -33 3 57 11 109 26 148 35 97 84 286 78 301 -4 12 -23 14 -83 12 -75
-3 -78 -4 -81 -28 -2 -14 -7 -28 -11 -32 -9 -10 -292 -10 -448 0 -98 7 -136
13 -147 25 -11 11 -27 14 -51 10 -26 -4 -52 3 -110 31 l-76 36 -23 -23z m50
-52 c18 -14 18 -14 -8 -15 -18 0 -28 5 -28 15 0 19 11 19 36 0z m940 -37 c-4
-23 -11 -47 -16 -53 -6 -7 -17 -45 -26 -85 -21 -93 -36 -74 -38 50 -1 106 5
117 78 129 5 0 6 -18 2 -41z m-1001 -477 c17 -7 14 -10 -18 -20 -42 -14 -53
-10 -44 14 7 16 30 18 62 6z"/>
<path d="M897 493 c-9 -10 -33 -27 -54 -38 -45 -23 -53 -33 -46 -52 5 -12 -6
-14 -53 -12 -33 2 -84 9 -114 16 -68 16 -137 17 -146 2 -9 -16 15 -29 53 -29
31 0 52 -14 36 -23 -5 -3 -23 -8 -42 -12 -29 -6 -33 -5 -28 9 9 24 -9 20 -27
-6 -26 -36 -4 -45 58 -24 61 21 127 29 234 28 l72 -1 63 -56 c34 -31 80 -78
102 -105 35 -43 65 -63 65 -44 0 10 -41 67 -94 129 -51 59 -51 59 -51 130 0
38 4 78 9 88 6 12 4 17 -6 17 -8 0 -22 -8 -31 -17z m-17 -63 c0 -11 -4 -20 -9
-20 -14 0 -23 18 -16 30 10 17 25 11 25 -10z"/>
<path d="M878 23 c7 -3 16 -2 19 1 4 3 -2 6 -13 5 -11 0 -14 -3 -6 -6z"/>
</g>
</svg>
