<?xml version="1.0" standalone="no"?>
<!DOCTYPE svg PUBLIC "-//W3C//DTD SVG 20010904//EN"
 "http://www.w3.org/TR/2001/REC-SVG-20010904/DTD/svg10.dtd">
<svg version="1.0" xmlns="http://www.w3.org/2000/svg"
 width="92.000000pt" height="79.000000pt" viewBox="0 0 92.000000 79.000000"
 preserveAspectRatio="xMidYMid meet">
<metadata>
Created by potrace 1.16, written by Peter Selinger 2001-2019
</metadata>
<g transform="translate(0.000000,79.000000) scale(0.100000,-0.100000)"
fill="#000000" stroke="none">
<path d="M725 735 c-16 -8 -41 -14 -54 -15 -22 0 -23 -3 -17 -40 l6 -40 -62
-2 c-152 -4 -266 8 -396 44 -41 11 -77 17 -80 13 -4 -4 -7 -16 -8 -28 -2 -64
-17 -113 -40 -133 l-25 -20 17 -70 c8 -38 14 -86 11 -106 -3 -20 -2 -39 1 -43
6 -6 7 -15 10 -123 1 -46 6 -63 15 -60 7 3 13 27 14 64 2 104 13 177 34 244
12 36 25 68 28 73 4 4 54 9 112 11 57 2 172 7 256 11 137 7 153 6 159 -9 14
-38 -8 -43 -207 -45 -181 -1 -229 -8 -229 -32 0 -7 51 -8 153 -3 265 12 261
12 265 -20 2 -16 0 -32 -5 -37 -17 -17 -217 -12 -259 6 -22 10 -55 19 -75 21
-20 2 -41 4 -45 5 -30 5 -31 -3 -26 -178 2 -98 6 -180 8 -182 12 -13 23 21 25
74 2 33 9 86 17 117 16 66 21 68 157 87 140 19 176 21 181 7 3 -7 -4 -46 -14
-87 -40 -153 -45 -180 -34 -191 7 -7 15 8 26 45 9 30 16 60 16 66 0 6 4 11 9
11 5 0 20 18 33 39 13 22 48 70 78 108 61 75 103 147 93 157 -3 3 -18 6 -33 6
-15 0 -41 5 -59 11 -27 10 -31 15 -31 47 1 21 7 66 15 102 25 113 21 123 -40
95z m11 -41 c-3 -9 -6 -22 -6 -30 0 -21 -18 -17 -31 7 -9 17 -8 23 2 30 23 14
42 11 35 -7z m-520 -58 c22 -7 46 -11 54 -8 10 3 12 1 5 -5 -16 -15 -117 -35
-128 -24 -12 12 1 51 17 51 8 0 31 -6 52 -14z m468 -38 c19 -27 21 -54 4 -55
-7 -1 -125 -4 -262 -8 -203 -5 -247 -4 -244 7 7 19 104 49 173 53 180 10 280
18 284 21 11 10 31 2 45 -18z m-548 -92 c3 -8 -1 -33 -9 -56 l-14 -42 -13 45
c-6 25 -9 50 -5 56 9 16 35 14 41 -3z m688 -64 c3 -5 -9 -31 -27 -58 -93 -143
-126 -172 -93 -82 8 24 17 56 18 73 2 23 12 35 43 52 44 25 51 27 59 15z
m-494 -97 c0 -8 -4 -15 -10 -15 -5 0 -10 7 -10 15 0 8 5 15 10 15 6 0 10 -7
10 -15z"/>
<path d="M208 458 c-16 -29 -25 -398 -10 -398 14 0 22 36 22 110 1 59 5 104
26 258 6 44 4 52 -9 52 -9 0 -22 -10 -29 -22z"/>
</g>
</svg>
