<?xml version="1.0" standalone="no"?>
<!DOCTYPE svg PUBLIC "-//W3C//DTD SVG 20010904//EN"
 "http://www.w3.org/TR/2001/REC-SVG-20010904/DTD/svg10.dtd">
<svg version="1.0" xmlns="http://www.w3.org/2000/svg"
 width="151.000000pt" height="88.000000pt" viewBox="0 0 151.000000 88.000000"
 preserveAspectRatio="xMidYMid meet">
<metadata>
Created by potrace 1.16, written by Peter Selinger 2001-2019
</metadata>
<g transform="translate(0.000000,88.000000) scale(0.100000,-0.100000)"
fill="#000000" stroke="none">
<path d="M488 873 c12 -2 32 -2 45 0 12 2 2 4 -23 4 -25 0 -35 -2 -22 -4z"/>
<path d="M428 834 c-7 -9 -32 -36 -55 -60 -24 -23 -43 -49 -43 -57 0 -8 23
-29 50 -46 53 -32 60 -45 34 -55 -22 -9 -24 -8 -24 9 0 10 -10 15 -30 15 -23
0 -30 4 -30 20 0 14 -7 20 -24 20 -13 0 -31 3 -39 6 -9 3 -25 -4 -36 -15 -19
-19 -21 -30 -16 -106 4 -79 3 -85 -15 -85 -32 0 -73 23 -103 58 -38 42 -63 42
-73 0 -9 -43 -12 -188 -4 -188 4 0 17 12 31 26 35 37 74 55 127 57 l47 2 3
-73 c3 -69 2 -73 -17 -67 -30 9 -34 -21 -20 -150 12 -114 26 -143 40 -79 14
68 116 235 126 207 8 -23 33 -14 33 10 0 34 32 67 65 67 18 0 28 6 32 20 4 16
111 100 128 100 3 0 5 -16 5 -35 0 -42 8 -43 60 -10 58 37 111 45 220 35 52
-5 159 -12 238 -15 125 -5 142 -4 142 9 0 9 -3 16 -7 17 -5 0 -48 3 -98 5 -87
4 -208 16 -348 33 -66 8 -147 47 -147 71 0 21 -30 9 -36 -15 -3 -14 -10 -25
-15 -25 -4 0 -39 30 -77 68 -72 70 -92 113 -92 196 0 41 -13 53 -32 30z m-15
-94 c3 -13 0 -20 -9 -20 -8 0 -14 9 -14 20 0 11 4 20 9 20 5 0 11 -9 14 -20z
m-133 -108 c0 -5 -7 -17 -15 -28 -14 -19 -14 -19 -15 2 0 11 3 24 7 27 9 10
23 9 23 -1z m20 -316 c-23 -24 -38 -14 -34 21 2 16 5 71 8 124 2 55 10 107 17
120 12 21 15 9 21 -111 6 -123 5 -137 -12 -154z m80 157 c0 -89 -10 -138 -23
-117 -6 12 -7 153 -1 187 12 58 24 22 24 -70z m194 53 l28 -23 -33 -25 c-19
-14 -45 -31 -58 -38 -23 -12 -24 -11 -18 21 8 51 25 89 39 89 7 -1 26 -11 42
-24z m-127 -70 c4 -48 2 -56 -16 -66 -20 -10 -21 -8 -21 40 0 48 15 98 27 87
3 -3 7 -30 10 -61z m247 9 c-24 -18 -34 -19 -34 0 0 19 32 37 44 24 6 -5 3
-14 -10 -24z m-591 -2 c9 -8 -12 -33 -28 -33 -8 0 -11 8 -8 20 5 20 23 26 36
13z m197 -190 c0 -5 -14 -32 -31 -62 -23 -40 -33 -50 -40 -40 -15 24 -10 40
23 75 31 33 48 42 48 27z"/>
<path d="M1303 715 c-18 -19 -60 -52 -93 -75 -34 -23 -60 -46 -58 -52 2 -6 17
-18 34 -27 71 -39 154 -104 154 -121 0 -4 -38 -34 -85 -65 -47 -31 -85 -60
-85 -64 0 -13 32 -37 85 -64 28 -14 64 -37 80 -51 33 -29 41 -31 50 -16 4 6
-8 28 -25 50 -28 35 -31 46 -25 77 8 45 45 118 79 157 39 44 34 64 -8 32 l-34
-26 -34 32 c-21 20 -32 38 -30 52 4 32 32 129 43 148 13 25 11 48 -3 47 -7 0
-28 -16 -45 -34z m-18 -92 c-9 -51 -17 -57 -43 -32 l-23 20 33 24 c18 13 35
24 37 24 2 1 0 -16 -4 -36z m20 -280 c-4 -21 -9 -41 -11 -45 -7 -11 -54 13
-54 28 0 10 55 53 69 54 2 0 0 -17 -4 -37z"/>
</g>
</svg>
