<?xml version="1.0" standalone="no"?>
<!DOCTYPE svg PUBLIC "-//W3C//DTD SVG 20010904//EN"
 "http://www.w3.org/TR/2001/REC-SVG-20010904/DTD/svg10.dtd">
<svg version="1.0" xmlns="http://www.w3.org/2000/svg"
 width="67.000000pt" height="82.000000pt" viewBox="0 0 67.000000 82.000000"
 preserveAspectRatio="xMidYMid meet">
<metadata>
Created by potrace 1.16, written by Peter Selinger 2001-2019
</metadata>
<g transform="translate(0.000000,82.000000) scale(0.100000,-0.100000)"
fill="#000000" stroke="none">
<path d="M503 768 c-5 -7 -14 -24 -21 -38 -7 -14 -31 -38 -54 -54 -37 -26 -48
-29 -127 -30 -65 -1 -97 4 -128 18 -53 24 -69 17 -78 -32 -7 -42 1 -212 11
-221 3 -3 17 1 32 9 19 11 48 14 95 12 l68 -4 -3 -31 -3 -32 -70 3 c-38 2 -80
10 -92 18 -12 8 -26 14 -32 14 -9 0 -21 -69 -14 -82 2 -4 20 -1 41 6 34 12 95
12 150 0 19 -4 22 -11 22 -51 l0 -46 -60 6 c-33 3 -83 13 -110 23 -58 21 -68
15 -77 -40 l-6 -37 69 8 c38 4 92 8 119 8 l50 0 -1 -60 c0 -33 -4 -70 -9 -82
-15 -46 12 -21 51 45 27 48 72 98 149 171 147 137 139 131 163 131 30 0 28 23
-7 62 -15 18 -47 62 -70 98 -39 59 -42 69 -38 115 3 28 8 62 12 78 6 20 4 27
-8 27 -8 0 -19 -6 -24 -12z m-333 -152 c0 -14 -29 -31 -38 -22 -2 3 -2 12 1
21 8 19 37 20 37 1z m292 -23 c13 -16 37 -45 53 -66 25 -33 26 -39 12 -50 -16
-13 -81 -111 -107 -162 -29 -56 -62 -105 -71 -105 -12 0 -4 181 11 249 14 62
56 161 68 161 5 0 20 -12 34 -27z m-152 -3 c6 -11 8 -25 5 -30 -11 -17 -155
-8 -155 10 0 8 93 38 122 39 10 1 22 -8 28 -19z m-2 -99 c-3 -23 -8 -26 -43
-29 -22 -1 -60 1 -84 5 l-45 8 29 19 c35 23 79 33 118 28 24 -4 28 -9 25 -31z
m283 -57 c11 -13 8 -19 -22 -42 -19 -15 -51 -44 -72 -66 -21 -21 -40 -37 -42
-34 -8 8 95 158 108 158 8 0 20 -7 28 -16z"/>
</g>
</svg>
