<?xml version="1.0" standalone="no"?>
<!DOCTYPE svg PUBLIC "-//W3C//DTD SVG 20010904//EN"
 "http://www.w3.org/TR/2001/REC-SVG-20010904/DTD/svg10.dtd">
<svg version="1.0" xmlns="http://www.w3.org/2000/svg"
 width="150.000000pt" height="84.000000pt" viewBox="0 0 150.000000 84.000000"
 preserveAspectRatio="xMidYMid meet">
<metadata>
Created by potrace 1.16, written by Peter Selinger 2001-2019
</metadata>
<g transform="translate(0.000000,84.000000) scale(0.100000,-0.100000)"
fill="#000000" stroke="none">
<path d="M647 768 c-21 -50 -29 -106 -18 -125 15 -29 18 -156 4 -160 -8 -3
-13 4 -13 14 0 22 -44 50 -130 82 -88 34 -96 40 -120 90 -38 79 -54 111 -59
111 -8 0 -30 -36 -31 -50 0 -9 -12 -35 -27 -57 -26 -41 -27 -42 -74 -36 -41 5
-48 3 -58 -15 -9 -17 -7 -29 9 -59 17 -32 20 -56 20 -159 0 -67 3 -148 6 -182
6 -52 10 -61 28 -64 13 -2 22 -12 24 -26 6 -39 34 -22 79 47 60 91 86 115 198
182 55 33 108 65 117 72 13 9 23 9 35 1 15 -9 18 -26 18 -95 0 -82 0 -84 -25
-84 -22 0 -26 -5 -31 -51 -4 -28 -11 -60 -18 -72 -29 -54 15 -74 59 -27 13 14
29 25 37 25 7 0 13 4 13 9 0 5 24 17 53 27 69 24 206 23 219 -1 7 -11 13 -13
21 -7 7 6 23 12 37 14 31 4 30 21 -2 29 -22 5 -23 7 -20 110 2 57 7 108 11
112 4 4 50 6 102 5 l93 -3 8 -35 c4 -19 10 -91 14 -160 10 -185 10 -189 18
-197 11 -11 36 21 35 47 0 14 -2 58 -5 98 -4 55 -2 82 10 107 9 18 16 36 16
40 0 5 22 44 48 89 92 153 100 181 55 192 -31 8 -172 -13 -190 -28 -8 -6 -13
-33 -13 -65 l0 -54 -97 3 -98 3 1 30 c1 17 17 75 37 129 20 55 34 103 32 107
-9 14 -55 16 -66 3 -9 -11 -8 -14 5 -14 9 0 16 -4 16 -10 0 -14 -16 -12 -50 5
-16 8 -53 14 -88 14 -37 -1 -73 5 -93 15 -18 9 -37 16 -43 16 -6 0 -22 9 -36
20 -36 29 -58 25 -73 -12z m116 -52 c25 -19 7 -27 -46 -20 -33 5 -44 10 -40
20 7 18 62 18 86 0z m-445 -54 c2 -7 -3 -12 -12 -12 -9 0 -16 7 -16 16 0 17
22 14 28 -4z m627 -16 c4 -17 5 -65 3 -106 l-3 -75 -115 3 c-63 2 -121 9 -128
15 -15 12 -11 41 13 125 18 61 36 69 147 70 l78 0 5 -32z m75 17 c0 -5 -5 -15
-10 -23 -8 -12 -10 -11 -10 8 0 12 5 22 10 22 6 0 10 -3 10 -7z m-667 -68 c34
-14 71 -30 82 -35 11 -5 36 -13 55 -19 19 -6 49 -20 65 -32 l30 -21 -105 5
c-63 3 -125 12 -154 22 l-49 18 -23 -28 c-27 -34 -39 -74 -26 -87 6 -6 43 -1
96 11 100 24 226 28 226 8 0 -24 -176 -122 -272 -152 -80 -26 -86 -19 -82 98
3 89 28 190 55 223 16 19 31 18 102 -11z m-153 -9 c0 -3 -4 -8 -10 -11 -5 -3
-10 -1 -10 4 0 6 5 11 10 11 6 0 10 -2 10 -4z m1180 -27 c0 -11 -17 -48 -38
-82 -21 -35 -41 -71 -45 -80 -3 -9 -14 -17 -23 -17 -13 0 -16 7 -11 34 3 18 1
38 -4 43 -5 5 -12 28 -15 50 -6 55 12 68 99 71 30 1 37 -3 37 -19z m-1066
-100 c-8 -14 -44 -10 -44 5 0 9 8 12 25 8 14 -2 22 -8 19 -13z m628 -37 c3 -4
9 -51 12 -104 4 -74 2 -98 -7 -98 -42 0 -187 24 -214 36 -31 14 -31 15 -32 86
0 39 4 76 9 83 9 11 219 9 232 -3z m-643 -184 c-14 -29 -40 -58 -49 -58 -4 0
-10 11 -13 25 -5 28 22 55 56 55 15 0 16 -3 6 -22z m379 -56 c9 -6 5 -12 -14
-21 -30 -13 -39 -9 -31 14 7 16 25 19 45 7z"/>
<path d="M1 644 c0 -11 3 -14 6 -6 3 7 2 16 -1 19 -3 4 -6 -2 -5 -13z"/>
</g>
</svg>
