<?xml version="1.0" standalone="no"?>
<!DOCTYPE svg PUBLIC "-//W3C//DTD SVG 20010904//EN"
 "http://www.w3.org/TR/2001/REC-SVG-20010904/DTD/svg10.dtd">
<svg version="1.0" xmlns="http://www.w3.org/2000/svg"
 width="82.000000pt" height="81.000000pt" viewBox="0 0 82.000000 81.000000"
 preserveAspectRatio="xMidYMid meet">
<metadata>
Created by potrace 1.16, written by Peter Selinger 2001-2019
</metadata>
<g transform="translate(0.000000,81.000000) scale(0.100000,-0.100000)"
fill="#000000" stroke="none">
<path d="M193 753 c-8 -3 -13 -25 -13 -59 0 -30 -4 -54 -10 -54 -5 0 -25 14
-44 31 -38 33 -58 34 -63 3 -1 -10 -8 -47 -15 -81 -6 -35 -8 -66 -4 -70 4 -4
21 0 37 10 17 9 41 17 54 17 13 0 27 5 30 10 5 8 11 7 21 0 9 -9 13 -39 13
-110 0 -54 5 -127 11 -163 10 -54 9 -69 -3 -89 -22 -34 -32 -128 -14 -128 8 0
22 9 31 19 10 11 29 24 44 30 88 35 368 26 381 -12 16 -44 26 -4 27 103 1 126
22 262 59 377 26 84 28 81 -55 85 l-55 3 3 -48 4 -48 -84 4 c-45 3 -125 11
-176 17 l-93 13 7 41 c3 23 11 49 16 59 17 33 2 47 -49 46 -26 0 -54 -3 -60
-6z m74 -28 c8 -22 -17 -107 -31 -102 -12 4 -28 95 -20 109 9 14 44 9 51 -7z
m435 -160 c-15 -40 -28 -73 -29 -71 -1 1 -4 36 -7 78 -4 73 -3 77 17 80 43 7
47 -8 19 -87z m-567 51 c42 -18 45 -32 8 -39 -16 -3 -35 -8 -44 -12 -21 -8
-29 13 -18 43 10 26 10 26 54 8z m180 -72 c-6 -37 -6 -37 24 -31 17 4 33 2 36
-3 3 -6 -4 -10 -16 -10 -25 0 -59 -26 -59 -46 0 -9 16 -12 58 -11 45 2 57 -1
57 -13 0 -12 -12 -14 -58 -12 -55 4 -58 3 -55 -17 4 -26 -2 -25 81 -17 64 7
71 6 94 -16 l25 -23 -104 -5 c-82 -4 -103 -8 -103 -20 0 -12 19 -14 117 -11
109 3 117 2 128 -18 10 -20 8 -21 -42 -23 -77 -3 -87 -2 -155 6 -54 7 -64 6
-69 -9 -4 -9 -2 -20 4 -24 5 -3 75 -3 153 0 l144 5 32 -35 c46 -50 44 -65 -9
-57 -24 3 -100 11 -169 16 -172 13 -174 14 -184 92 -18 128 -5 266 27 305 6 7
19 13 30 13 18 0 19 -4 13 -36z m70 26 c8 -13 -5 -13 -25 0 -13 8 -13 10 2 10
9 0 20 -4 23 -10z m72 -6 c-3 -3 -12 -4 -19 -1 -8 3 -5 6 6 6 11 1 17 -2 13
-5z m161 -10 c8 -2 12 -15 10 -31 -3 -28 -3 -28 -91 -31 -73 -2 -88 0 -93 13
-17 44 93 75 174 49z m12 -103 c0 -16 -10 -20 -65 -26 -71 -7 -105 -1 -105 20
0 19 16 23 98 24 64 1 72 -1 72 -18z m-5 -76 c0 -27 -4 -30 -34 -33 -24 -3
-40 3 -57 19 -33 30 -30 37 14 42 69 7 77 5 77 -28z m5 -70 c10 -12 10 -19 2
-27 -14 -14 -38 -4 -52 21 -9 19 -8 21 13 21 14 0 30 -7 37 -15z m-370 -165
c0 -4 -7 -11 -16 -14 -28 -11 -35 -7 -24 14 10 18 40 18 40 0z"/>
</g>
</svg>
