<?xml version="1.0" standalone="no"?>
<!DOCTYPE svg PUBLIC "-//W3C//DTD SVG 20010904//EN"
 "http://www.w3.org/TR/2001/REC-SVG-20010904/DTD/svg10.dtd">
<svg version="1.0" xmlns="http://www.w3.org/2000/svg"
 width="30.000000pt" height="56.000000pt" viewBox="0 0 30.000000 56.000000"
 preserveAspectRatio="xMidYMid meet">
<metadata>
Created by potrace 1.16, written by Peter Selinger 2001-2019
</metadata>
<g transform="translate(0.000000,56.000000) scale(0.100000,-0.100000)"
fill="#000000" stroke="none">
<path d="M76 515 c-20 -15 -20 -11 24 -340 16 -119 23 -140 42 -129 6 4 7 29
3 65 -4 36 -3 64 3 72 5 6 18 44 27 82 16 64 60 182 86 228 6 11 8 22 4 25 -3
3 -42 7 -88 9 -59 2 -87 -2 -101 -12z m116 -96 c-16 -35 -35 -77 -42 -94 l-13
-30 -8 40 c-4 22 -9 65 -11 95 l-3 55 45 5 c25 3 49 3 53 -1 5 -3 -5 -35 -21
-70z"/>
</g>
</svg>
