<?xml version="1.0" standalone="no"?>
<!DOCTYPE svg PUBLIC "-//W3C//DTD SVG 20010904//EN"
 "http://www.w3.org/TR/2001/REC-SVG-20010904/DTD/svg10.dtd">
<svg version="1.0" xmlns="http://www.w3.org/2000/svg"
 width="150.000000pt" height="88.000000pt" viewBox="0 0 150.000000 88.000000"
 preserveAspectRatio="xMidYMid meet">
<metadata>
Created by potrace 1.16, written by Peter Selinger 2001-2019
</metadata>
<g transform="translate(0.000000,88.000000) scale(0.100000,-0.100000)"
fill="#000000" stroke="none">
<path d="M276 812 c-13 -22 -67 -83 -120 -136 -94 -95 -109 -116 -83 -116 20
-1 108 -70 102 -80 -8 -13 -67 -13 -101 0 -46 18 -54 8 -37 -42 9 -26 13 -59
9 -84 -3 -27 0 -48 9 -60 13 -18 14 -18 42 4 41 33 153 84 188 86 87 4 -24
-75 -137 -98 -62 -13 -63 -13 -63 -46 0 -42 15 -47 51 -17 16 13 45 30 64 37
19 8 55 27 79 42 52 32 61 34 101 13 29 -15 30 -18 30 -87 l0 -71 -61 7 c-48
5 -64 3 -73 -9 -8 -10 -15 -12 -26 -5 -13 9 -13 12 4 21 10 6 27 20 38 31 11
11 35 26 53 34 36 15 54 34 33 34 -8 0 -52 -14 -98 -31 -47 -17 -95 -33 -107
-36 -27 -6 -33 -21 -22 -50 7 -20 12 -21 34 -13 39 15 59 -9 51 -60 -5 -31 -3
-40 8 -40 8 0 18 5 22 11 3 6 27 21 53 32 36 16 74 21 179 25 122 4 134 3 147
-14 7 -11 16 -16 20 -13 3 4 8 85 10 180 2 101 9 195 17 224 7 28 13 64 13 80
0 27 -4 30 -35 33 -20 2 -38 -2 -45 -10 -15 -20 -107 -21 -155 -2 -22 9 -44
13 -48 9 -4 -3 -8 -60 -8 -126 -1 -66 -4 -122 -7 -125 -10 -11 -55 56 -50 76
3 12 0 22 -9 25 -13 5 -11 16 10 68 14 34 40 81 59 104 41 50 31 62 -22 25
-25 -18 -40 -23 -42 -15 -2 6 -20 33 -40 59 l-36 46 22 52 c24 58 25 66 11 66
-5 0 -21 -17 -34 -38z m8 -159 c52 -54 55 -66 25 -87 -20 -14 -25 -13 -55 11
-29 22 -34 31 -34 68 0 36 6 55 16 55 2 0 23 -21 48 -47z m-64 -88 c29 -30 32
-37 20 -45 -23 -15 -28 -13 -73 29 -35 33 -39 41 -28 55 16 19 33 11 81 -39z
m460 -5 c0 -5 -2 -10 -4 -10 -3 0 -8 5 -11 10 -3 6 -1 10 4 10 6 0 11 -4 11
-10z m-52 -49 c2 -20 -2 -37 -10 -42 -17 -11 -151 1 -160 15 -10 15 11 36 36
36 11 1 32 7 46 15 14 8 39 14 55 12 26 -2 30 -6 33 -36z m-318 -29 c0 -14
-11 -21 -26 -15 -8 3 -11 9 -8 14 7 11 34 12 34 1z m-90 -37 c7 -8 21 -15 31
-15 34 0 20 -17 -28 -35 -27 -9 -62 -23 -80 -31 -35 -16 -53 -18 -53 -6 0 18
52 78 78 89 35 16 37 16 52 -2z m-120 -21 c0 -8 -5 -12 -10 -9 -6 4 -8 11 -5
16 9 14 15 11 15 -7z m536 -18 c9 -37 0 -43 -58 -36 -29 4 -56 6 -60 3 -14 -7
-58 9 -58 22 0 16 64 32 127 34 37 1 43 -2 49 -23z m-1 -77 c4 -5 4 -20 1 -32
-5 -20 -11 -22 -83 -21 -112 2 -111 2 -73 26 59 36 141 50 155 27z m-3 -131
c4 -56 0 -58 -80 -57 -83 1 -106 10 -110 40 -4 35 15 48 84 57 103 13 102 13
106 -40z m-327 -78 c3 -5 2 -10 -4 -10 -5 0 -13 5 -16 10 -3 6 -2 10 4 10 5 0
13 -4 16 -10z"/>
<path d="M529 765 c-18 -38 -43 -87 -56 -107 -29 -48 -30 -62 0 -54 104 30
143 36 250 37 81 1 168 -6 260 -20 76 -11 157 -21 180 -21 63 0 80 -16 26 -24
-165 -25 -455 -79 -463 -86 -15 -14 2 -27 31 -24 22 2 20 1 -8 -8 -20 -6 -42
-20 -48 -31 -15 -24 -23 -26 139 33 63 23 149 48 190 56 238 49 379 83 394 95
4 4 -27 8 -70 8 -44 1 -115 5 -159 11 -110 13 -422 68 -465 81 -38 12 -140 70
-140 79 0 3 -6 15 -14 26 -14 18 -17 14 -47 -51z m126 -96 c-2 -3 -23 -6 -47
-7 -24 -1 -55 -4 -70 -8 -34 -7 -34 -4 -3 46 l25 40 49 -32 c27 -18 48 -35 46
-39z"/>
</g>
</svg>
