<?xml version="1.0" standalone="no"?>
<!DOCTYPE svg PUBLIC "-//W3C//DTD SVG 20010904//EN"
 "http://www.w3.org/TR/2001/REC-SVG-20010904/DTD/svg10.dtd">
<svg version="1.0" xmlns="http://www.w3.org/2000/svg"
 width="72.000000pt" height="77.000000pt" viewBox="0 0 72.000000 77.000000"
 preserveAspectRatio="xMidYMid meet">
<metadata>
Created by potrace 1.16, written by Peter Selinger 2001-2019
</metadata>
<g transform="translate(0.000000,77.000000) scale(0.100000,-0.100000)"
fill="#000000" stroke="none">
<path d="M560 728 c-13 -7 -27 -24 -30 -38 l-6 -25 -146 1 c-119 1 -159 6
-212 23 -35 11 -72 18 -80 15 -19 -7 -19 -15 -20 -364 -1 -140 -5 -262 -9
-271 -7 -14 -3 -16 20 -12 15 3 47 13 70 24 24 10 52 19 62 19 11 0 22 4 26 9
3 5 59 10 125 10 66 0 124 3 130 6 5 3 19 1 31 -5 15 -9 19 -18 15 -35 -7 -28
9 -42 29 -25 9 8 15 44 19 113 3 56 7 120 9 142 9 90 52 262 88 353 14 37 11
62 -8 62 -10 0 -34 3 -53 5 -20 3 -46 0 -60 -7z m90 -45 c-1 -25 -17 -33 -48
-22 -44 15 -40 29 8 29 22 0 40 -3 40 -7z m-471 -39 c7 -7 -2 -11 -36 -19 -29
-6 -33 -4 -33 15 0 19 4 21 33 15 17 -4 34 -9 36 -11z m110 -69 c0 -31 3 -71
7 -90 9 -50 0 -56 -50 -38 -58 22 -72 14 -82 -44 -11 -64 -12 -73 -20 -107
l-7 -29 62 7 c34 4 69 10 77 13 14 5 15 -1 18 -109 1 -21 -3 -23 -39 -19 -22
2 -64 12 -94 23 l-54 20 5 107 c5 96 33 233 57 281 5 8 29 18 56 22 26 4 50 9
53 12 9 10 10 8 11 -49z m41 45 c0 -5 -4 -10 -10 -10 -5 0 -10 5 -10 10 0 6 5
10 10 10 6 0 10 -4 10 -10z m197 -16 c14 -19 15 -164 1 -181 -8 -9 -30 -11
-82 -7 -39 4 -75 10 -79 14 -4 4 -1 46 8 95 8 48 15 92 15 98 0 16 123 0 137
-19z m93 16 c0 -5 -5 -33 -11 -62 -9 -42 -13 -49 -20 -33 -12 32 -10 93 4 98
20 8 27 8 27 -3z m-275 -81 c-8 -23 -8 -23 -15 -4 -9 26 -1 50 12 37 6 -6 7
-21 3 -33z m-215 19 c-1 -7 -7 -24 -14 -37 l-13 -24 -6 29 c-3 16 -3 32 0 36
7 13 33 9 33 -4z m130 -147 c0 -10 -24 -21 -46 -21 -8 0 -11 6 -8 15 6 16 54
21 54 6z m272 -38 c16 -19 0 -50 -30 -56 -27 -5 -98 -1 -139 8 -25 6 -30 33
-10 54 16 16 164 11 179 -6z m-235 -9 c11 -29 -12 -37 -74 -27 l-58 9 50 16
c65 21 74 21 82 2z m227 -95 c4 -3 7 -30 9 -60 l2 -54 -80 -3 c-113 -4 -125 0
-125 46 0 57 10 81 34 84 29 4 153 -6 160 -13z m-346 -145 c4 -3 -53 -34 -63
-34 -7 0 -6 35 1 43 6 6 53 -1 62 -9z"/>
</g>
</svg>
