<?xml version="1.0" standalone="no"?>
<!DOCTYPE svg PUBLIC "-//W3C//DTD SVG 20010904//EN"
 "http://www.w3.org/TR/2001/REC-SVG-20010904/DTD/svg10.dtd">
<svg version="1.0" xmlns="http://www.w3.org/2000/svg"
 width="55.000000pt" height="83.000000pt" viewBox="0 0 55.000000 83.000000"
 preserveAspectRatio="xMidYMid meet">
<metadata>
Created by potrace 1.16, written by Peter Selinger 2001-2019
</metadata>
<g transform="translate(0.000000,83.000000) scale(0.100000,-0.100000)"
fill="#000000" stroke="none">
<path d="M345 730 c-45 -45 -53 -50 -95 -50 -25 0 -50 -4 -56 -8 -10 -6 -22
-51 -29 -109 -3 -22 -24 -91 -32 -106 -2 -4 -9 -5 -14 -1 -6 4 -6 11 2 20 9
11 8 14 -2 14 -8 0 -32 -25 -54 -55 -46 -63 -56 -91 -30 -82 28 11 73 -21 108
-76 19 -28 44 -61 56 -72 13 -11 34 -43 47 -72 14 -29 29 -55 35 -58 5 -4 9
-18 9 -31 0 -43 24 -21 36 33 14 62 27 94 80 199 23 44 47 97 53 117 7 20 28
60 47 87 19 28 32 55 29 60 -8 13 -65 40 -86 40 -9 0 -27 16 -39 36 -18 28
-21 45 -17 82 2 26 8 55 12 65 13 30 -9 18 -60 -33z m25 -45 c0 -8 -9 -15 -20
-15 -20 0 -26 11 -13 23 12 13 33 7 33 -8z m-34 -42 c47 -35 68 -77 54 -103
-14 -25 -34 -25 -90 2 -25 12 -56 25 -70 28 -25 5 -25 5 19 53 24 26 46 47 48
47 2 0 20 -12 39 -27z m-96 13 c0 -16 -14 -36 -26 -36 -16 0 -16 2 -8 24 5 14
34 24 34 12z m-20 -115 c0 -5 -5 -22 -10 -36 -10 -27 -10 -27 27 -21 21 3 62
9 92 12 l54 7 -5 -52 c-7 -72 -17 -80 -76 -57 -86 33 -97 32 -121 -8 -42 -68
-54 -19 -21 79 12 33 23 66 25 73 5 14 35 17 35 3z m265 -22 c6 -6 3 -19 -8
-37 -10 -15 -25 -42 -34 -59 -9 -18 -20 -33 -25 -33 -14 0 -8 75 8 98 9 13 13
30 10 38 -5 12 -1 14 17 9 12 -4 26 -11 32 -16z m-225 -9 c0 -5 -4 -10 -10
-10 -5 0 -10 5 -10 10 0 6 5 10 10 10 6 0 10 -4 10 -10z m-170 -110 c0 -11 -7
-20 -15 -20 -18 0 -19 12 -3 28 16 16 18 15 18 -8z m134 -16 c20 -8 11 -24
-15 -24 -19 0 -25 11 -12 23 8 8 8 8 27 1z m128 -29 c9 -9 -38 -222 -52 -239
-5 -4 -16 5 -26 20 -9 16 -37 60 -62 98 -52 81 -49 95 19 113 46 12 112 17
121 8z m37 -39 c-9 -8 -10 -7 -5 7 3 10 7 24 7 30 1 7 3 4 6 -7 3 -10 -1 -23
-8 -30z"/>
</g>
</svg>
