<?xml version="1.0" standalone="no"?>
<!DOCTYPE svg PUBLIC "-//W3C//DTD SVG 20010904//EN"
 "http://www.w3.org/TR/2001/REC-SVG-20010904/DTD/svg10.dtd">
<svg version="1.0" xmlns="http://www.w3.org/2000/svg"
 width="66.000000pt" height="82.000000pt" viewBox="0 0 66.000000 82.000000"
 preserveAspectRatio="xMidYMid meet">
<metadata>
Created by potrace 1.16, written by Peter Selinger 2001-2019
</metadata>
<g transform="translate(0.000000,82.000000) scale(0.100000,-0.100000)"
fill="#000000" stroke="none">
<path d="M454 775 c-1 -13 -20 -47 -43 -74 -25 -30 -37 -51 -29 -53 7 -3 12
-25 12 -54 1 -49 1 -49 -29 -46 -41 5 -59 20 -44 39 20 23 4 25 -24 2 -35 -27
-34 -41 6 -57 110 -45 177 -86 177 -110 0 -13 -46 -81 -65 -94 -5 -4 -1 -8 11
-8 19 0 20 -6 20 -65 -1 -36 -4 -65 -8 -65 -12 0 -88 41 -88 48 0 3 7 14 17
24 27 31 -1 20 -32 -12 -27 -28 -28 -31 -11 -49 9 -10 38 -27 64 -36 26 -10
74 -33 107 -52 89 -51 95 -54 95 -45 0 13 -36 49 -69 68 -43 25 -58 93 -42
185 8 42 20 74 32 85 24 21 25 53 2 61 -10 4 -31 16 -48 27 -16 12 -32 22 -34
23 -2 2 -6 32 -8 67 -3 67 20 151 52 183 20 19 19 33 -2 33 -12 0 -18 -8 -19
-25z"/>
<path d="M160 607 c-25 -23 -63 -57 -84 -74 -40 -35 -43 -56 -8 -61 12 -2 22
-8 22 -13 0 -5 6 -9 14 -9 7 0 19 -7 26 -15 10 -12 7 -22 -16 -52 -16 -21 -43
-50 -61 -66 -18 -16 -33 -32 -33 -36 0 -4 22 -18 49 -32 67 -33 151 -92 151
-105 0 -20 30 -38 41 -27 16 16 -5 49 -62 105 -48 46 -49 48 -49 106 0 68 15
91 49 73 52 -28 56 2 5 43 -34 27 -36 30 -29 75 4 25 15 60 26 77 40 65 22 70
-41 11z m0 -53 c0 -24 -19 -54 -35 -54 -25 0 -27 21 -4 46 26 28 39 31 39 8z
m-34 -232 c2 -33 -10 -44 -30 -29 -16 11 -17 17 -7 36 15 26 36 23 37 -7z"/>
<path d="M385 300 c-3 -5 -1 -10 4 -10 6 0 11 5 11 10 0 6 -2 10 -4 10 -3 0
-8 -4 -11 -10z"/>
</g>
</svg>
