<?xml version="1.0" standalone="no"?>
<!DOCTYPE svg PUBLIC "-//W3C//DTD SVG 20010904//EN"
 "http://www.w3.org/TR/2001/REC-SVG-20010904/DTD/svg10.dtd">
<svg version="1.0" xmlns="http://www.w3.org/2000/svg"
 width="108.000000pt" height="82.000000pt" viewBox="0 0 108.000000 82.000000"
 preserveAspectRatio="xMidYMid meet">
<metadata>
Created by potrace 1.16, written by Peter Selinger 2001-2019
</metadata>
<g transform="translate(0.000000,82.000000) scale(0.100000,-0.100000)"
fill="#000000" stroke="none">
<path d="M871 764 c-12 -15 -21 -37 -21 -50 0 -26 -74 -120 -162 -205 -57 -56
-58 -56 -58 -29 0 42 17 81 52 117 18 18 29 36 25 40 -15 14 -147 -100 -147
-127 0 -10 7 -23 15 -30 19 -16 19 -30 1 -30 -7 0 -21 12 -31 26 -19 30 -11
60 37 131 28 42 36 67 18 61 -22 -7 -160 -122 -160 -133 0 -6 11 -22 25 -35
36 -33 31 -43 -17 -36 -24 3 -70 9 -104 13 -44 6 -72 17 -104 41 -24 17 -52
32 -61 32 -10 0 -27 -16 -39 -36 -19 -30 -26 -35 -49 -29 -14 3 -37 9 -50 12
-14 3 -22 2 -18 -3 3 -6 11 -57 17 -114 7 -58 13 -116 15 -130 2 -14 4 -62 4
-107 1 -76 3 -83 21 -83 11 0 25 10 31 23 6 12 37 42 70 67 32 25 65 50 72 56
6 6 27 15 45 22 29 10 32 9 32 -9 0 -22 4 -23 31 -8 25 13 157 48 184 49 15 0
11 -8 -23 -43 -23 -23 -42 -48 -42 -54 0 -7 28 -26 63 -42 38 -18 69 -40 77
-56 14 -26 25 -31 35 -15 8 13 -21 68 -45 82 -16 10 -18 20 -13 58 7 56 18 70
54 70 36 0 37 -10 4 -38 -32 -28 -32 -34 8 -57 17 -10 55 -38 83 -62 48 -40
64 -45 64 -19 0 6 -16 28 -35 50 -36 40 -39 46 -29 82 9 33 40 42 93 29 l46
-12 3 -54 c4 -61 14 -78 37 -59 12 10 15 38 15 147 0 103 5 154 21 215 27 108
67 228 80 244 19 24 4 37 -57 50 -83 18 -90 17 -113 -12z m119 -49 c0 -29 -58
-186 -65 -175 -4 6 -9 51 -12 100 -5 87 -5 88 18 92 34 5 59 -2 59 -17z m-125
-117 c25 -151 25 -328 0 -328 -12 0 -77 20 -84 26 -9 7 23 34 40 34 33 0 31
20 -6 63 -27 31 -35 48 -31 67 15 73 19 88 38 128 25 50 35 53 43 10z m-345
-32 c0 -3 -4 -8 -10 -11 -5 -3 -10 -1 -10 4 0 6 5 11 10 11 6 0 10 -2 10 -4z
m226 -71 c-4 -14 -13 -25 -21 -25 -19 0 -19 5 1 36 20 29 29 25 20 -11z m-541
-11 c35 -23 31 -34 -10 -34 -27 0 -35 4 -35 18 0 17 8 32 17 32 2 0 15 -7 28
-16z m-99 -49 c8 -20 -5 -87 -15 -80 -12 7 -22 62 -15 80 8 19 23 19 30 0z
m481 -36 c56 -6 110 -8 121 -5 14 5 29 -2 49 -19 l28 -25 -28 -25 c-20 -18
-40 -25 -68 -25 -21 0 -39 5 -39 10 0 6 5 10 10 10 6 0 10 7 10 15 0 21 -17
19 -52 -6 -29 -21 -30 -21 -86 -4 -31 10 -70 25 -87 35 -42 23 -60 16 -85 -35
-24 -49 -39 -57 -164 -84 l-88 -19 5 31 c3 18 13 60 22 95 l17 62 110 -1 c60
0 112 1 114 4 5 5 73 0 211 -14z m-134 -101 c36 -13 25 -25 -32 -34 -39 -6
-44 -5 -38 10 4 10 7 24 7 33 0 10 5 13 18 8 9 -4 30 -12 45 -17z m271 -73
c-4 -8 -12 -15 -20 -15 -8 0 -11 6 -8 15 4 8 12 15 20 15 8 0 11 -6 8 -15z
m-169 -53 c-3 -4 -10 0 -15 8 -6 9 -5 17 3 22 13 8 24 -19 12 -30z m-355 23
c0 -2 -20 -18 -45 -35 l-45 -31 0 24 c0 32 18 47 57 47 18 0 33 -2 33 -5z"/>
</g>
</svg>
