<?xml version="1.0" standalone="no"?>
<!DOCTYPE svg PUBLIC "-//W3C//DTD SVG 20010904//EN"
 "http://www.w3.org/TR/2001/REC-SVG-20010904/DTD/svg10.dtd">
<svg version="1.0" xmlns="http://www.w3.org/2000/svg"
 width="98.000000pt" height="77.000000pt" viewBox="0 0 98.000000 77.000000"
 preserveAspectRatio="xMidYMid meet">
<metadata>
Created by potrace 1.16, written by Peter Selinger 2001-2019
</metadata>
<g transform="translate(0.000000,77.000000) scale(0.100000,-0.100000)"
fill="#000000" stroke="none">
<path d="M461 747 c-14 -6 -28 -24 -32 -38 -12 -46 -40 -80 -60 -74 -11 4 -19
2 -19 -4 0 -6 6 -11 14 -11 16 0 26 -21 26 -55 0 -22 -3 -23 -57 -18 -64 6
-98 20 -127 52 -19 21 -46 27 -60 14 -3 -4 -27 -7 -52 -8 -51 -1 -68 -17 -57
-55 9 -28 14 -160 14 -335 0 -32 1 -61 4 -63 10 -10 25 12 25 38 0 44 19 77
52 91 39 16 48 3 48 -69 0 -73 23 -64 31 12 4 32 10 61 15 66 11 11 102 15
129 7 22 -7 54 8 42 20 -5 4 -45 8 -89 9 -55 2 -84 7 -89 16 -13 19 -11 117 3
155 8 22 17 32 28 29 8 -3 43 -8 76 -11 l62 -7 6 -50 c16 -118 18 -199 6 -229
-12 -28 -15 -29 -54 -24 -27 4 -47 2 -58 -7 -16 -12 -48 -111 -48 -150 0 -19
19 -24 35 -9 25 22 171 71 196 66 17 -4 32 -1 41 8 8 8 27 15 44 15 52 2 218
-19 247 -30 42 -16 47 -1 46 142 -2 120 0 128 29 193 17 37 29 67 26 67 -2 0
2 15 9 33 21 49 30 124 17 132 -17 10 -89 8 -103 -3 -27 -23 -249 30 -295 69
-37 33 -38 33 -71 16z m53 -62 c18 -13 17 -14 -9 -21 -28 -7 -52 7 -41 25 9
15 27 13 50 -4z m211 -48 l70 -12 2 -180 c1 -99 5 -210 9 -247 7 -73 -1 -84
-40 -55 -15 11 -16 19 -7 57 5 25 12 118 14 208 4 162 4 163 -17 160 -20 -3
-21 -9 -27 -203 -3 -110 -6 -201 -7 -202 -1 -2 -13 -3 -27 -3 -23 0 -24 2 -13
28 7 15 13 108 16 220 4 166 2 192 -11 192 -24 0 -27 -21 -28 -203 -2 -218 -5
-239 -33 -235 -16 2 -20 9 -19 28 7 65 8 412 2 416 -4 2 -13 -3 -20 -12 -9
-11 -13 -54 -15 -137 -3 -308 -1 -287 -27 -287 -32 0 -37 8 -27 36 11 28 16
402 5 412 -3 4 -13 -2 -21 -12 -11 -15 -14 -64 -15 -215 -1 -108 -1 -200 0
-204 1 -5 -11 -7 -26 -5 -25 3 -28 7 -26 38 3 75 3 148 -1 229 -5 109 13 167
58 187 38 16 138 17 231 1z m158 -56 c-8 -25 -17 -58 -20 -73 -10 -54 -23 -27
-23 47 0 69 2 76 23 84 32 12 38 -5 20 -58z m-799 -16 c-4 -8 -8 -15 -10 -15
-2 0 -4 7 -4 15 0 8 4 15 10 15 5 0 7 -7 4 -15z m120 -32 c4 -4 -2 -14 -13
-23 -15 -11 -22 -33 -28 -90 -8 -72 -9 -75 -33 -72 -13 1 -28 8 -32 15 -12 17
2 107 20 135 21 32 69 52 86 35z m201 -387 l50 -11 -35 -13 c-19 -8 -50 -20
-68 -28 -51 -22 -62 -19 -62 20 0 48 22 54 115 32z"/>
</g>
</svg>
