<?xml version="1.0" standalone="no"?>
<!DOCTYPE svg PUBLIC "-//W3C//DTD SVG 20010904//EN"
 "http://www.w3.org/TR/2001/REC-SVG-20010904/DTD/svg10.dtd">
<svg version="1.0" xmlns="http://www.w3.org/2000/svg"
 width="124.000000pt" height="67.000000pt" viewBox="0 0 124.000000 67.000000"
 preserveAspectRatio="xMidYMid meet">
<metadata>
Created by potrace 1.16, written by Peter Selinger 2001-2019
</metadata>
<g transform="translate(0.000000,67.000000) scale(0.100000,-0.100000)"
fill="#000000" stroke="none">
<path d="M900 660 c0 -5 5 -10 10 -10 6 0 10 5 10 10 0 6 -4 10 -10 10 -5 0
-10 -4 -10 -10z"/>
<path d="M1115 611 c-80 -10 -90 -22 -54 -72 11 -16 17 -34 13 -40 -5 -9 -92
-11 -333 -6 -284 5 -336 8 -401 26 -41 11 -99 21 -129 23 -52 3 -54 2 -62 -26
-9 -34 -24 -46 -57 -46 -30 0 -37 -21 -22 -66 7 -20 18 -94 24 -163 9 -100 14
-126 26 -126 9 0 16 11 18 26 2 20 14 31 53 49 27 13 49 27 49 31 0 12 92 69
111 69 9 0 29 -16 44 -36 25 -33 26 -38 11 -46 -9 -5 -16 -13 -16 -17 0 -4 28
-26 63 -48 34 -23 78 -56 97 -75 67 -65 105 -55 50 14 -33 40 -33 40 -20 97
22 104 68 182 54 91 -4 -22 -4 -40 -1 -40 4 0 37 11 74 25 37 14 73 23 81 20
8 -3 21 0 29 6 9 8 61 13 144 13 114 1 132 -1 140 -16 5 -9 9 -65 9 -125 l1
-108 19 24 c18 21 20 39 20 185 0 162 2 173 46 301 13 36 13 41 -3 53 -9 6
-19 11 -22 11 -3 -1 -28 -5 -56 -8z m32 -29 c8 -5 7 -16 -4 -42 l-15 -35 -10
28 c-15 43 -1 68 29 49z m-914 -83 c7 0 -1 -5 -17 -10 -33 -9 -42 -6 -31 11 4
6 14 9 22 6 8 -3 20 -6 26 -7z m629 -41 l216 2 10 -32 c5 -18 10 -47 11 -65 1
-31 0 -32 -54 -38 -30 -4 -69 -5 -87 -2 -18 4 -62 9 -98 12 -81 7 -169 26
-176 37 -11 18 -35 5 -115 -62 -46 -39 -90 -69 -99 -67 -12 2 -15 18 -13 85 3
97 -2 100 -73 43 -73 -57 -87 -62 -147 -55 -49 6 -56 4 -72 -17 -12 -17 -16
-19 -11 -6 3 11 9 31 12 45 12 53 37 99 63 116 23 15 47 16 221 9 107 -4 293
-6 412 -5z m-708 -34 c3 -9 0 -24 -8 -35 -13 -19 -14 -19 -20 3 -3 13 -6 29
-6 36 0 18 27 15 34 -4z m256 -90 c0 -8 -5 -12 -10 -9 -6 4 -8 11 -5 16 9 14
15 11 15 -7z m330 -33 c0 -13 -58 -32 -65 -20 -4 5 -3 14 0 19 8 12 65 13 65
1z m-515 -58 c-18 -16 -31 -21 -33 -14 -8 23 8 41 35 41 l28 -1 -30 -26z m324
-25 c-15 -53 -21 -60 -42 -53 -33 13 -30 39 10 72 20 17 39 30 41 28 2 -2 -2
-23 -9 -47z"/>
</g>
</svg>
