<?xml version="1.0" standalone="no"?>
<!DOCTYPE svg PUBLIC "-//W3C//DTD SVG 20010904//EN"
 "http://www.w3.org/TR/2001/REC-SVG-20010904/DTD/svg10.dtd">
<svg version="1.0" xmlns="http://www.w3.org/2000/svg"
 width="144.000000pt" height="74.000000pt" viewBox="0 0 144.000000 74.000000"
 preserveAspectRatio="xMidYMid meet">
<metadata>
Created by potrace 1.16, written by Peter Selinger 2001-2019
</metadata>
<g transform="translate(0.000000,74.000000) scale(0.100000,-0.100000)"
fill="#000000" stroke="none">
<path d="M773 613 c-16 -21 -39 -54 -52 -73 -22 -32 -120 -112 -153 -125 -16
-6 -129 108 -154 156 -18 36 -27 36 -45 3 -19 -37 -67 -74 -94 -74 -13 0 -27
-4 -30 -10 -8 -12 15 -302 25 -315 4 -5 10 -27 14 -48 4 -21 12 -37 18 -35 6
2 30 39 52 82 43 81 106 152 162 182 l32 18 54 -38 c30 -20 70 -52 89 -70 74
-71 94 -79 166 -72 l65 7 -38 -46 c-41 -49 -55 -52 -64 -15 -6 25 -30 40 -30
18 1 -31 27 -112 38 -116 6 -2 18 12 25 30 20 47 88 120 144 156 27 16 81 43
122 58 41 16 68 30 60 32 -8 1 -61 -16 -119 -38 -121 -48 -194 -70 -230 -70
-14 0 -43 12 -65 27 -44 30 -178 142 -183 153 -1 4 10 15 25 25 32 21 39 26
115 95 l57 52 73 -7 c65 -6 186 -37 213 -55 6 -3 44 -17 85 -30 109 -34 180
-64 179 -75 -1 -5 -29 -21 -62 -34 -84 -34 -55 -38 39 -7 100 34 132 59 82 64
-13 1 -50 11 -83 22 -33 12 -73 25 -90 29 -16 4 -59 20 -95 35 -36 15 -87 36
-115 46 -57 21 -162 77 -170 91 -12 18 -34 8 -62 -28z m61 -9 c22 -9 10 -24
-20 -24 -23 0 -31 10 -17 23 8 9 17 9 37 1z m-434 -74 c8 -15 8 -20 -2 -20
-22 0 -41 17 -34 29 11 17 24 13 36 -9z m10 -65 c9 -11 3 -14 -30 -13 -22 0
-44 -2 -47 -6 -3 -3 -1 -23 5 -43 6 -21 14 -58 17 -84 6 -42 5 -46 -20 -57
-46 -21 -48 -18 -42 68 7 87 29 147 55 152 24 6 49 -2 62 -17z m-110 -9 c0 -7
-6 -19 -14 -25 -11 -9 -15 -8 -20 5 -10 26 -7 34 14 34 11 0 20 -6 20 -14z
m205 -46 c18 -20 18 -21 -1 -35 -56 -44 -106 -76 -111 -71 -6 6 12 75 29 109
12 23 60 22 83 -3z m-115 -5 c0 -8 -4 -15 -10 -15 -5 0 -10 7 -10 15 0 8 5 15
10 15 6 0 10 -7 10 -15z m-46 -197 c-13 -43 -44 -66 -44 -32 0 25 19 54 36 54
11 0 14 -6 8 -22z"/>
<path d="M92 352 c3 -62 9 -116 12 -120 8 -7 53 45 59 70 4 14 2 16 -13 8 -27
-15 -30 -13 -30 20 0 35 14 38 58 13 19 -11 35 -14 48 -8 17 7 17 9 -6 14 -30
7 -100 61 -100 77 0 6 -7 18 -17 25 -15 13 -16 5 -11 -99z"/>
</g>
</svg>
