<?xml version="1.0" standalone="no"?>
<!DOCTYPE svg PUBLIC "-//W3C//DTD SVG 20010904//EN"
 "http://www.w3.org/TR/2001/REC-SVG-20010904/DTD/svg10.dtd">
<svg version="1.0" xmlns="http://www.w3.org/2000/svg"
 width="110.000000pt" height="72.000000pt" viewBox="0 0 110.000000 72.000000"
 preserveAspectRatio="xMidYMid meet">
<metadata>
Created by potrace 1.16, written by Peter Selinger 2001-2019
</metadata>
<g transform="translate(0.000000,72.000000) scale(0.100000,-0.100000)"
fill="#000000" stroke="none">
<path d="M916 672 c-4 -6 -1 -20 6 -31 21 -34 4 -56 -174 -218 -54 -50 -62
-51 -212 -27 -95 15 -179 38 -253 70 -64 28 -80 19 -110 -61 l-19 -50 -54 -5
c-48 -4 -55 -7 -51 -25 2 -11 4 -75 5 -143 0 -67 4 -122 8 -122 5 0 27 18 49
40 23 22 47 40 54 40 6 0 34 11 61 25 27 14 83 34 124 45 41 11 83 23 93 26
12 4 17 0 17 -15 0 -23 15 -26 55 -11 23 9 172 22 250 23 58 1 180 -14 188
-22 5 -5 10 -32 11 -60 3 -50 10 -70 22 -58 3 3 7 79 9 169 2 146 4 168 25
213 26 56 52 176 41 188 -13 13 -137 21 -145 9z m114 -42 c0 -42 -22 -121 -33
-117 -14 4 -30 75 -22 104 4 19 17 27 48 32 4 0 7 -8 7 -19z m-85 -135 c4 -22
8 -86 9 -142 3 -116 2 -118 -72 -104 -26 5 -78 14 -117 21 -106 17 -169 32
-175 41 -3 4 -17 10 -30 14 -21 5 -32 -1 -57 -28 -25 -28 -46 -38 -119 -56
-91 -23 -103 -25 -190 -36 -72 -8 -83 7 -49 71 14 27 31 52 38 56 57 38 239
49 446 29 91 -9 125 -17 163 -38 26 -14 51 -23 54 -20 4 3 7 38 9 76 1 62 6
77 36 121 18 27 37 46 40 42 4 -4 10 -25 14 -47z m-126 -79 c-14 -57 -25 -65
-53 -37 l-21 22 38 35 c21 20 41 34 43 31 3 -2 0 -25 -7 -51z m-554 14 c22
-11 39 -23 38 -27 -1 -3 -25 -14 -52 -24 -39 -13 -51 -14 -51 -5 0 13 20 76
24 76 1 0 20 -9 41 -20z m-135 -121 c0 -17 -20 -49 -30 -49 -6 0 -10 14 -10
30 0 23 4 30 20 30 11 0 20 -5 20 -11z m443 -36 c29 -15 30 -17 12 -24 -11 -4
-30 -8 -42 -8 -18 -1 -23 5 -23 24 0 29 10 31 53 8z m-428 -133 c-27 -16 -53
-30 -57 -30 -4 0 -2 14 3 30 10 28 15 30 57 30 l47 0 -50 -30z"/>
</g>
</svg>
