<?xml version="1.0" standalone="no"?>
<!DOCTYPE svg PUBLIC "-//W3C//DTD SVG 20010904//EN"
 "http://www.w3.org/TR/2001/REC-SVG-20010904/DTD/svg10.dtd">
<svg version="1.0" xmlns="http://www.w3.org/2000/svg"
 width="131.000000pt" height="81.000000pt" viewBox="0 0 131.000000 81.000000"
 preserveAspectRatio="xMidYMid meet">
<metadata>
Created by potrace 1.16, written by Peter Selinger 2001-2019
</metadata>
<g transform="translate(0.000000,81.000000) scale(0.100000,-0.100000)"
fill="#000000" stroke="none">
<path d="M755 728 c-15 -29 -36 -63 -47 -75 -17 -18 -19 -25 -9 -37 16 -19 6
-36 -19 -36 -12 0 -20 -8 -22 -22 -5 -33 -80 -82 -113 -74 -43 11 -107 84
-136 156 -15 36 -34 66 -43 68 -11 2 -26 -18 -49 -67 -19 -39 -32 -73 -29 -76
3 -3 20 -5 39 -5 33 0 83 -24 83 -40 0 -5 -8 -11 -18 -14 -29 -10 -40 -56 -32
-137 9 -88 -6 -127 -41 -109 -31 17 -32 31 -4 113 14 41 25 90 25 107 0 29 -3
32 -23 26 -12 -3 -32 -6 -43 -6 -16 0 -23 -8 -27 -30 -4 -16 -12 -30 -18 -30
-7 0 -31 20 -53 45 -23 25 -46 45 -52 45 -6 0 -20 -13 -32 -30 -18 -23 -22
-43 -22 -100 0 -77 9 -86 43 -44 28 36 77 55 113 45 28 -7 29 -9 38 -100 6
-69 11 -91 21 -87 18 7 41 -22 50 -62 3 -17 11 -32 16 -32 6 0 22 26 36 57 44
96 141 233 166 233 17 0 77 -53 96 -86 12 -19 21 -46 21 -59 0 -26 15 -41 25
-25 4 6 8 52 10 103 4 98 31 198 68 250 17 25 24 28 56 23 20 -3 55 -9 79 -12
45 -7 55 -18 22 -27 -12 -3 -20 -14 -20 -26 0 -18 -3 -19 -18 -10 -10 6 -23
21 -28 33 -12 27 -56 33 -75 10 -11 -13 -14 -55 -14 -188 l0 -171 -32 -3 c-40
-4 -41 -16 -8 -82 14 -27 25 -58 25 -70 0 -36 24 -21 50 31 23 48 142 179 162
179 20 0 184 84 206 106 13 13 36 24 50 26 67 8 17 54 -169 159 -123 69 -231
150 -243 181 -15 41 -32 35 -61 -24z m58 -42 c26 -20 21 -36 -12 -36 -33 0
-44 11 -35 34 7 19 23 20 47 2z m-437 -62 c8 -20 13 -38 11 -40 -7 -7 -67 8
-67 17 0 19 20 59 30 59 6 0 18 -16 26 -36z m342 -81 c-16 -38 -28 -51 -28
-29 0 22 18 56 30 56 6 0 5 -12 -2 -27z m112 10 c0 -20 -17 -50 -24 -43 -2 3
-2 17 1 33 6 30 23 37 23 10z m228 -33 c10 -10 44 -30 75 -46 78 -38 76 -53
-13 -88 -25 -10 -54 -23 -65 -29 -107 -59 -142 -77 -152 -77 -20 0 -16 97 6
155 10 28 23 61 29 75 6 14 13 33 16 42 5 16 8 16 45 1 22 -9 49 -24 59 -33z
m-198 -130 c0 -129 0 -131 -25 -142 -14 -6 -28 -8 -31 -5 -18 18 31 277 52
277 2 0 4 -59 4 -130z m-192 42 c3 -50 2 -53 -16 -43 -11 6 -26 21 -35 34 -14
22 -14 27 0 46 26 38 48 23 51 -37z m-525 23 c32 -31 34 -41 8 -55 -40 -21
-51 -13 -51 35 0 25 3 45 8 45 4 0 20 -11 35 -25z m161 9 c7 -19 -2 -37 -15
-29 -12 8 -12 45 0 45 5 0 12 -7 15 -16z m206 -9 l24 -25 -26 -28 c-13 -15
-33 -37 -44 -48 -10 -12 -29 -26 -40 -32 -40 -21 -45 11 -13 84 12 27 26 55
31 62 16 19 42 14 68 -13z m-140 -251 c0 -8 -4 -12 -10 -9 -5 3 -10 13 -10 21
0 8 5 12 10 9 6 -3 10 -13 10 -21z m454 -38 c-27 -33 -30 -35 -38 -17 -12 26
-1 50 26 60 37 14 42 -5 12 -43z"/>
<path d="M1 384 c0 -11 3 -14 6 -6 3 7 2 16 -1 19 -3 4 -6 -2 -5 -13z"/>
</g>
</svg>
