<?xml version="1.0" standalone="no"?>
<!DOCTYPE svg PUBLIC "-//W3C//DTD SVG 20010904//EN"
 "http://www.w3.org/TR/2001/REC-SVG-20010904/DTD/svg10.dtd">
<svg version="1.0" xmlns="http://www.w3.org/2000/svg"
 width="125.000000pt" height="84.000000pt" viewBox="0 0 125.000000 84.000000"
 preserveAspectRatio="xMidYMid meet">
<metadata>
Created by potrace 1.16, written by Peter Selinger 2001-2019
</metadata>
<g transform="translate(0.000000,84.000000) scale(0.100000,-0.100000)"
fill="#000000" stroke="none">
<path d="M533 783 c-8 -3 -13 -23 -13 -48 0 -53 -11 -57 -95 -34 -87 24 -111
35 -119 56 -7 17 -9 16 -27 -6 -10 -13 -19 -36 -19 -52 0 -32 -2 -34 -29 -17
-13 8 -29 9 -52 2 -39 -11 -51 -44 -38 -101 5 -21 9 -100 9 -175 l0 -138 -29
0 c-40 0 -48 -14 -56 -105 -4 -44 -14 -92 -21 -107 -26 -51 -12 -51 46 -3 23
19 50 35 60 35 10 0 23 6 29 14 31 38 190 85 286 86 111 0 256 13 248 21 -4 4
-112 10 -238 12 -148 2 -240 8 -259 16 l-29 12 6 97 c8 126 33 254 53 268 16
13 103 29 111 20 3 -2 8 -29 12 -58 5 -44 3 -55 -12 -68 -13 -11 -20 -33 -23
-75 -2 -33 -9 -70 -16 -82 -17 -34 -1 -40 30 -10 l27 26 -1 -47 c-1 -56 5 -82
18 -82 5 0 7 4 4 9 -3 5 -3 43 0 84 l7 75 43 17 c55 21 84 13 81 -22 -1 -14 4
-28 11 -30 8 -3 12 7 12 31 0 35 3 37 37 36 4 0 6 -14 5 -30 -4 -39 16 -39 29
0 7 20 18 30 31 30 17 0 19 -5 14 -25 -5 -18 -2 -25 8 -25 8 0 16 10 18 23 2
16 10 22 28 22 20 0 24 -4 22 -22 -4 -31 16 -39 24 -9 3 14 13 31 21 38 12 10
18 9 29 -7 13 -17 15 -17 27 -2 10 13 31 16 127 14 l115 -2 2 -134 c1 -73 4
-136 7 -139 13 -12 18 11 28 120 11 133 36 260 72 378 39 128 43 120 -74 117
-55 -1 -100 -5 -100 -9 0 -4 9 -12 20 -18 21 -11 29 -73 11 -85 -16 -9 -148
-13 -162 -4 -8 4 -12 24 -11 48 2 21 -2 43 -9 46 -19 12 -33 -13 -31 -55 3
-37 1 -40 -22 -40 -24 0 -24 2 -14 33 6 17 15 36 19 41 18 20 8 27 -33 23 -42
-4 -42 -4 -43 -45 -1 -47 -7 -57 -30 -48 -12 4 -14 14 -9 47 6 38 5 42 -10 36
-10 -4 -20 -7 -22 -7 -2 0 -4 -16 -4 -35 0 -29 -4 -35 -21 -35 -18 0 -20 4
-14 27 12 50 9 63 -14 63 -17 0 -20 -8 -23 -47 -2 -28 -7 -46 -13 -43 -12 6
-12 43 -1 83 7 24 6 27 -15 26 -13 0 -30 -3 -36 -6z m637 -50 c0 -37 -13 -56
-36 -51 -40 7 -24 78 17 78 14 0 19 -7 19 -27z m-831 -50 c22 -6 22 -6 -10
-20 -33 -14 -58 -5 -45 16 8 12 21 13 55 4z m-146 -55 c-7 -40 -12 -46 -22
-30 -12 19 -1 62 15 62 10 0 12 -9 7 -32z m329 -2 c11 -15 10 -118 -1 -135
-11 -17 -87 -6 -95 15 -7 19 13 127 26 135 13 8 62 -2 70 -15z m549 -16 c4
-19 9 -57 11 -85 l3 -50 -115 0 -115 0 0 40 c0 22 2 58 5 80 5 39 6 40 50 45
25 3 70 6 100 5 54 0 54 0 61 -35z m-475 -41 c2 -75 -6 -95 -31 -85 -15 5 -17
14 -11 53 3 25 6 59 6 75 0 23 4 29 18 26 14 -3 17 -15 18 -69z m73 -9 c-2
-77 -3 -80 -25 -80 -22 0 -24 4 -24 49 0 77 10 111 32 111 17 0 19 -7 17 -80z
m71 73 c1 -5 3 -40 6 -79 6 -68 5 -72 -16 -79 -32 -10 -33 -7 -31 98 1 60 3
67 21 67 11 0 20 -3 20 -7z m86 -76 c1 -81 -3 -91 -30 -81 -13 5 -16 22 -16
86 0 77 1 79 23 76 21 -3 22 -8 23 -81z m314 62 c-7 -11 -14 -18 -17 -15 -8 8
5 36 17 36 7 0 7 -6 0 -21z m-743 -11 c-3 -8 -6 -5 -6 6 -1 11 2 17 5 13 3 -3
4 -12 1 -19z m33 -162 c0 -2 -7 -6 -15 -10 -8 -3 -15 -1 -15 4 0 6 7 10 15 10
8 0 15 -2 15 -4z m-286 -268 c11 -42 6 -57 -24 -73 l-30 -15 6 32 c11 68 15
78 28 78 8 0 16 -10 20 -22z m121 13 c17 -7 14 -11 -27 -30 -26 -11 -49 -21
-52 -21 -8 0 -7 45 1 53 8 9 53 8 78 -2z"/>
</g>
</svg>
