<?xml version="1.0" standalone="no"?>
<!DOCTYPE svg PUBLIC "-//W3C//DTD SVG 20010904//EN"
 "http://www.w3.org/TR/2001/REC-SVG-20010904/DTD/svg10.dtd">
<svg version="1.0" xmlns="http://www.w3.org/2000/svg"
 width="98.000000pt" height="68.000000pt" viewBox="0 0 98.000000 68.000000"
 preserveAspectRatio="xMidYMid meet">
<metadata>
Created by potrace 1.16, written by Peter Selinger 2001-2019
</metadata>
<g transform="translate(0.000000,68.000000) scale(0.100000,-0.100000)"
fill="#000000" stroke="none">
<path d="M833 640 c-34 -3 -63 -7 -65 -10 -2 -3 -8 -14 -14 -25 -10 -18 -21
-20 -135 -19 -227 3 -342 12 -377 29 -28 14 -38 15 -63 5 -16 -7 -36 -24 -43
-38 -7 -14 -28 -32 -47 -41 l-34 -16 3 -70 c2 -39 8 -92 13 -119 5 -27 9 -100
9 -163 0 -83 3 -114 12 -111 7 3 12 45 14 130 1 69 7 143 13 164 6 22 11 58
11 80 0 52 31 94 67 94 25 0 25 14 0 16 -7 0 -20 2 -29 2 -15 2 -16 6 -6 27
13 29 11 29 63 5 22 -10 32 -19 23 -19 -10 -1 -18 -5 -18 -9 0 -10 323 -8 443
3 l88 8 -3 -39 -3 -38 -80 -4 c-44 -1 -143 -4 -220 -5 -119 -2 -140 -4 -137
-17 2 -8 8 -16 13 -18 5 -2 9 -11 8 -20 0 -11 -2 -12 -6 -4 -16 41 -23 -7 -23
-163 0 -110 4 -175 10 -175 6 0 10 15 11 33 5 147 11 206 29 268 11 39 22 75
26 78 3 3 3 -73 0 -169 -7 -172 -2 -238 15 -194 4 10 5 37 3 59 -7 59 2 66 95
72 45 3 84 10 87 15 3 4 -22 7 -56 5 -86 -6 -112 1 -108 27 2 13 14 24 33 30
57 17 60 20 25 24 -44 4 -53 13 -38 35 11 14 38 18 170 23 l156 6 6 -83 c3
-46 8 -123 12 -171 3 -49 10 -88 15 -88 5 0 10 12 11 28 0 15 2 48 3 74 6 108
64 380 93 435 15 28 15 50 0 55 -7 2 -41 1 -75 -2z m57 -36 c0 -7 -6 -28 -14
-46 -15 -33 -38 -108 -50 -162 -13 -55 -23 -17 -30 121 -2 50 -3 93 -1 95 2 1
24 3 49 4 32 0 46 -3 46 -12z m-790 -109 c0 -8 -4 -15 -10 -15 -5 0 -10 7 -10
15 0 8 5 15 10 15 6 0 10 -7 10 -15z m665 -60 c0 -18 -8 -20 -95 -25 -52 -3
-122 -6 -155 -5 -53 0 -60 2 -63 21 -3 20 2 21 99 22 56 1 103 3 105 4 1 2 26
3 56 3 46 0 53 -3 53 -20z"/>
<path d="M274 482 c-24 -15 -31 -76 -34 -287 -1 -72 2 -129 6 -127 5 1 10 55
11 120 2 100 10 165 37 280 5 23 -1 27 -20 14z"/>
<path d="M188 458 c-14 -11 -17 -42 -20 -206 -2 -105 0 -192 4 -192 17 0 22
33 20 131 -2 76 3 131 17 193 19 88 16 102 -21 74z"/>
<path d="M536 331 c-8 -12 18 -21 33 -11 10 5 8 9 -4 14 -21 8 -23 8 -29 -3z"/>
<path d="M668 333 c6 -2 18 -2 25 0 6 3 1 5 -13 5 -14 0 -19 -2 -12 -5z"/>
<path d="M615 240 c28 -12 37 -12 30 0 -3 6 -16 10 -28 9 -21 0 -21 -1 -2 -9z"/>
</g>
</svg>
