<?xml version="1.0" standalone="no"?>
<!DOCTYPE svg PUBLIC "-//W3C//DTD SVG 20010904//EN"
 "http://www.w3.org/TR/2001/REC-SVG-20010904/DTD/svg10.dtd">
<svg version="1.0" xmlns="http://www.w3.org/2000/svg"
 width="95.000000pt" height="75.000000pt" viewBox="0 0 95.000000 75.000000"
 preserveAspectRatio="xMidYMid meet">
<metadata>
Created by potrace 1.16, written by Peter Selinger 2001-2019
</metadata>
<g transform="translate(0.000000,75.000000) scale(0.100000,-0.100000)"
fill="#000000" stroke="none">
<path d="M165 670 c-3 -5 -19 -10 -35 -10 -17 0 -30 -7 -34 -16 -4 -10 -6
-103 -5 -208 1 -183 0 -194 -25 -255 -14 -36 -26 -71 -26 -78 0 -15 26 -18 35
-3 3 6 19 10 36 10 16 0 29 4 29 8 0 5 19 16 42 25 37 15 43 15 58 2 22 -20
37 -19 43 3 6 27 46 32 275 37 154 3 204 1 207 -8 2 -7 7 -38 10 -71 11 -99
27 -49 30 96 1 73 8 153 14 178 24 91 53 176 73 213 26 50 19 70 -24 62 -27
-4 -86 -11 -130 -14 -5 -1 -8 -8 -8 -17 0 -12 -7 -14 -27 -10 -16 3 -82 8
-148 11 -214 11 -277 19 -332 42 -39 16 -50 16 -58 3z m39 -46 c18 -7 12 -24
-10 -24 -8 0 -14 7 -14 15 0 17 2 18 24 9z m639 -76 c-36 -104 -39 -107 -46
-47 -3 30 -9 69 -13 87 l-6 32 45 0 46 0 -26 -72z m-135 28 c35 -4 40 -15 44
-89 l3 -67 -45 -1 c-56 -1 -141 2 -200 6 -25 2 -72 17 -104 33 -33 17 -63 29
-66 27 -4 -3 -10 -30 -14 -62 -4 -31 -9 -67 -12 -80 -8 -30 23 -31 59 -3 14
11 31 20 39 20 7 0 31 6 53 14 24 8 90 14 167 14 l126 1 7 -62 c4 -35 5 -74 3
-87 l-3 -23 -232 -1 c-203 -1 -234 1 -249 15 -22 23 -21 206 1 273 9 26 15 57
13 69 -3 21 0 22 89 22 50 0 94 2 97 5 3 3 49 0 103 -7 54 -8 108 -15 121 -17z
m-476 -143 c2 -82 1 -159 -3 -173 -5 -22 -10 -25 -45 -21 -21 1 -43 8 -47 15
-11 15 -1 211 14 261 14 51 26 65 54 65 23 0 23 -2 27 -147z m158 -24 c0 -5
-4 -9 -10 -9 -5 0 -10 7 -10 16 0 8 5 12 10 9 6 -3 10 -10 10 -16z m-202 -224
c-2 -1 -13 -8 -25 -14 -19 -10 -23 -9 -23 3 0 8 8 16 18 19 16 3 37 -2 30 -8z"/>
</g>
</svg>
