<?xml version="1.0" standalone="no"?>
<!DOCTYPE svg PUBLIC "-//W3C//DTD SVG 20010904//EN"
 "http://www.w3.org/TR/2001/REC-SVG-20010904/DTD/svg10.dtd">
<svg version="1.0" xmlns="http://www.w3.org/2000/svg"
 width="118.000000pt" height="59.000000pt" viewBox="0 0 118.000000 59.000000"
 preserveAspectRatio="xMidYMid meet">
<metadata>
Created by potrace 1.16, written by Peter Selinger 2001-2019
</metadata>
<g transform="translate(0.000000,59.000000) scale(0.100000,-0.100000)"
fill="#000000" stroke="none">
<path d="M1012 531 c-11 -16 -44 -44 -72 -62 -27 -18 -50 -34 -50 -36 0 -2 28
-30 62 -62 59 -55 62 -60 50 -82 -7 -13 -35 -39 -62 -57 -28 -17 -50 -37 -50
-42 0 -15 16 -12 30 4 10 12 26 0 102 -75 78 -77 118 -105 118 -83 0 10 -70
94 -111 134 -32 31 -35 38 -28 66 11 39 36 50 61 28 10 -10 21 -14 25 -11 9
10 -14 50 -64 108 -24 29 -42 54 -40 58 1 3 13 27 25 52 12 26 29 52 37 59 18
15 19 30 2 30 -7 0 -23 -13 -35 -29z m-47 -91 c3 -5 1 -10 -4 -10 -6 0 -11 5
-11 10 0 6 2 10 4 10 3 0 8 -4 11 -10z"/>
<path d="M577 502 c-9 -10 -50 -36 -91 -57 l-74 -39 -78 12 c-101 17 -172 39
-182 59 -5 8 -18 13 -28 11 -15 -2 -21 -15 -25 -53 -4 -28 -10 -63 -14 -79 -7
-26 -6 -28 11 -23 125 38 164 47 194 46 19 0 78 0 131 1 l96 2 49 -37 c69 -52
70 -58 27 -94 -44 -36 -30 -34 -208 -32 -114 2 -147 6 -184 22 -24 10 -53 17
-63 13 -17 -5 -68 -90 -68 -114 0 -6 10 -10 22 -8 17 2 23 10 25 32 3 38 12
46 46 39 30 -6 36 -20 12 -29 -8 -4 -15 -10 -15 -14 0 -5 24 -1 53 9 36 12 87
18 165 20 l112 1 100 -65 c55 -37 102 -71 105 -76 9 -14 25 -11 25 5 0 8 -12
24 -27 35 -86 64 -93 72 -89 103 1 16 14 41 28 54 24 25 24 25 42 5 18 -19 17
-21 -8 -44 l-26 -24 52 -41 c29 -22 68 -54 86 -72 27 -27 32 -29 32 -13 0 10
-25 43 -54 72 -48 47 -54 57 -44 75 21 40 45 58 67 51 24 -7 28 -33 6 -41 -20
-8 -19 -34 1 -34 19 0 74 -39 132 -94 34 -33 42 -37 42 -21 0 11 -27 46 -61
78 -49 46 -60 62 -55 80 8 32 41 50 67 36 11 -6 23 -9 25 -6 6 6 -26 67 -35
67 -15 0 -61 76 -61 101 0 13 9 39 20 57 24 38 24 42 7 42 -8 0 -20 -12 -27
-26 -8 -14 -34 -37 -57 -51 -24 -14 -43 -28 -43 -32 0 -3 20 -18 43 -32 24
-15 54 -40 65 -57 21 -29 21 -29 2 -47 -17 -15 -24 -16 -43 -6 -13 7 -31 25
-40 39 -8 15 -25 38 -38 50 -19 22 -20 28 -10 63 6 21 23 52 37 69 39 46 5 38
-41 -11 -44 -45 -84 -69 -114 -69 -31 0 -32 14 -7 64 24 48 15 63 -17 28z
m-34 -72 c-3 -11 -9 -20 -14 -20 -14 0 -11 28 4 33 6 3 13 6 14 6 0 1 -1 -8
-4 -19z m267 0 c0 -5 -5 -10 -11 -10 -5 0 -7 5 -4 10 3 6 8 10 11 10 2 0 4 -4
4 -10z m-610 -21 l33 -12 -24 -12 c-33 -17 -89 -29 -89 -18 1 51 22 62 80 42z
m484 -52 c28 -18 59 -70 49 -81 -13 -12 -30 -5 -42 17 -7 13 -30 34 -52 47
-21 14 -39 28 -39 32 0 13 57 2 84 -15z"/>
</g>
</svg>
