<?xml version="1.0" standalone="no"?>
<!DOCTYPE svg PUBLIC "-//W3C//DTD SVG 20010904//EN"
 "http://www.w3.org/TR/2001/REC-SVG-20010904/DTD/svg10.dtd">
<svg version="1.0" xmlns="http://www.w3.org/2000/svg"
 width="162.000000pt" height="78.000000pt" viewBox="0 0 162.000000 78.000000"
 preserveAspectRatio="xMidYMid meet">
<metadata>
Created by potrace 1.16, written by Peter Selinger 2001-2019
</metadata>
<g transform="translate(0.000000,78.000000) scale(0.100000,-0.100000)"
fill="#000000" stroke="none">
<path d="M804 666 c-14 -23 -14 -32 -1 -98 8 -40 15 -86 15 -102 l0 -29 -59 7
c-33 3 -68 10 -79 16 -31 17 -68 12 -86 -12 l-16 -23 6 25 c3 14 13 63 22 109
15 78 15 86 0 97 -17 12 -58 7 -90 -12 -17 -10 -17 -13 -2 -42 9 -17 16 -54
16 -82 l0 -50 -64 0 c-36 0 -67 4 -70 9 -3 4 -1 23 5 42 19 65 27 134 17 147
-11 13 -49 16 -86 6 -24 -7 -24 -10 -6 -148 l5 -39 -48 7 c-26 4 -56 8 -66 9
-13 1 -24 -10 -34 -36 -9 -21 -13 -40 -10 -44 4 -3 37 2 74 11 64 16 68 16 80
0 7 -10 13 -35 13 -56 0 -36 -1 -38 -33 -38 -18 0 -60 5 -92 11 -58 11 -60 10
-83 -16 -12 -15 -21 -32 -19 -39 4 -11 16 -11 112 0 115 12 120 12 123 -19 2
-16 -3 -38 -11 -50 -23 -36 -50 -128 -40 -138 5 -5 39 6 82 27 85 41 171 57
171 30 0 -25 28 -19 55 11 l23 28 348 0 c275 0 350 -3 361 -13 9 -9 13 -40 13
-93 0 -60 3 -79 14 -79 10 0 15 34 20 153 4 83 11 166 16 182 43 137 57 178
81 232 15 34 24 65 20 68 -10 5 -147 -10 -172 -20 -13 -5 -15 -23 -14 -102 l2
-96 -165 6 c-91 4 -169 10 -173 14 -5 5 -1 52 9 106 14 86 15 99 2 107 -18 12
-22 12 -39 1 -10 -7 -14 -35 -16 -110 0 -55 -4 -103 -8 -107 -3 -3 -22 -3 -41
0 -47 9 -51 36 -25 146 11 49 18 94 14 100 -12 19 -54 11 -71 -14z m-418 -58
c-11 -69 -23 -79 -31 -26 -8 51 -2 68 22 68 13 0 14 -8 9 -42z m458 33 c8 -12
-3 -41 -15 -41 -5 0 -9 11 -9 25 0 25 14 34 24 16z m-261 -8 c2 -5 -2 -30 -8
-58 -7 -27 -13 -41 -14 -30 -1 11 -4 37 -7 58 -5 30 -3 37 9 37 9 0 18 -3 20
-7z m877 -30 c0 -5 -11 -35 -24 -68 -13 -33 -30 -75 -36 -93 -7 -18 -18 -31
-24 -29 -16 5 -34 77 -28 119 3 32 9 39 50 57 52 22 62 25 62 14z m-1223 -149
c-3 -3 -12 -4 -19 -1 -8 3 -5 6 6 6 11 1 17 -2 13 -5z m301 -72 l3 -64 -28 6
c-15 3 -48 8 -73 12 -50 7 -60 16 -60 56 0 40 34 59 100 56 l55 -3 3 -63z
m140 38 c27 0 10 -20 -23 -26 -41 -7 -50 -2 -41 22 4 11 13 14 29 10 12 -3 28
-6 35 -6z m487 -33 c83 -1 156 -6 163 -11 8 -4 12 -33 12 -81 l0 -73 -30 -7
c-32 -7 -401 3 -437 11 -20 5 -21 11 -18 76 3 78 10 91 51 86 25 -3 30 -9 39
-46 12 -47 25 -46 25 3 0 33 15 56 34 49 6 -2 79 -5 161 -7z m-333 -44 c3 -80
0 -105 -14 -114 -7 -5 -55 -8 -107 -7 -118 2 -132 12 -121 83 8 49 21 65 57
65 12 0 25 5 28 10 3 6 40 10 81 10 l74 0 2 -47z m-287 -78 l0 -30 -75 0 c-64
0 -75 3 -78 18 -8 41 4 48 80 45 l73 -3 0 -30z m-37 -80 c-9 -9 -112 -34 -120
-29 -4 3 -5 11 -1 19 4 11 22 15 66 15 33 0 58 -2 55 -5z m-169 -59 c-9 -8
-10 -7 -5 7 3 10 7 24 7 30 1 7 3 4 6 -7 3 -10 -1 -23 -8 -30z"/>
</g>
</svg>
