<?xml version="1.0" standalone="no"?>
<!DOCTYPE svg PUBLIC "-//W3C//DTD SVG 20010904//EN"
 "http://www.w3.org/TR/2001/REC-SVG-20010904/DTD/svg10.dtd">
<svg version="1.0" xmlns="http://www.w3.org/2000/svg"
 width="138.000000pt" height="61.000000pt" viewBox="0 0 138.000000 61.000000"
 preserveAspectRatio="xMidYMid meet">
<metadata>
Created by potrace 1.16, written by Peter Selinger 2001-2019
</metadata>
<g transform="translate(0.000000,61.000000) scale(0.100000,-0.100000)"
fill="#000000" stroke="none">
<path d="M325 560 c-3 -5 -4 -14 -1 -19 4 -5 -4 -35 -16 -66 l-22 -58 27 -19
c23 -17 25 -22 15 -44 -15 -33 1 -51 31 -35 11 7 36 12 53 12 102 1 155 -2
184 -11 24 -8 39 -8 54 0 29 16 235 3 251 -16 15 -18 7 -60 -11 -55 -8 2 -49
7 -90 11 -41 4 -89 14 -107 23 -42 22 -74 22 -80 -2 -4 -16 -10 -17 -51 -9
-26 5 -60 10 -77 12 -16 2 -52 9 -79 15 -56 13 -76 4 -76 -37 l0 -25 85 6 c47
2 100 1 118 -3 18 -5 50 -13 71 -19 27 -7 45 -7 58 0 13 7 59 8 129 4 105 -7
109 -8 109 -31 0 -38 -27 -56 -74 -49 -92 14 -144 27 -162 39 -13 10 -25 11
-43 5 -13 -6 -68 -7 -124 -3 -82 6 -102 11 -118 28 -17 18 -21 18 -34 5 -9 -9
-18 -33 -22 -54 l-6 -38 34 7 c79 16 138 21 194 16 l60 -5 -3 -34 c-3 -31 -2
-33 20 -27 13 4 34 10 48 13 14 2 32 7 40 10 8 3 52 5 98 4 l83 -3 52 55 c33
34 65 57 84 61 18 4 37 14 44 22 10 12 37 15 142 12 90 -2 131 0 134 8 5 15
-44 24 -137 24 -135 0 -133 -1 -257 137 -34 37 -44 42 -93 47 -77 8 -146 31
-181 60 -34 29 -57 25 -65 -13 -3 -14 -7 -32 -10 -38 -5 -17 -55 -16 -80 1
-11 8 -38 19 -60 25 -23 6 -58 22 -78 36 -40 27 -52 30 -61 15z m59 -69 c7
-10 -22 -37 -30 -28 -9 8 3 37 15 37 5 0 12 -4 15 -9z m296 -11 c11 -7 12 -12
3 -21 -13 -13 -33 -4 -33 17 0 16 9 18 30 4z m-155 -35 c67 -14 95 -32 95 -62
0 -23 -29 -26 -103 -14 -71 12 -157 46 -157 62 0 5 10 11 23 13 12 3 31 7 42
9 11 3 22 5 25 6 3 0 36 -6 75 -14z m337 -5 c51 0 59 -2 54 -16 -3 -9 -6 -29
-6 -45 0 -26 -3 -29 -34 -29 -88 0 -199 33 -194 59 5 25 66 51 95 40 13 -5 51
-9 85 -9z m150 -185 c-9 -7 -27 -15 -39 -19 -22 -7 -23 -5 -23 50 l0 58 40
-39 c36 -35 38 -40 22 -50z"/>
<path d="M259 525 c-38 -47 -94 -96 -125 -107 -19 -6 -34 -15 -34 -20 0 -4
-14 -23 -30 -41 -38 -43 -38 -57 -1 -57 22 0 46 -15 96 -62 37 -34 73 -75 81
-90 14 -27 37 -37 48 -20 7 12 -26 72 -63 111 -29 31 -31 38 -25 80 3 25 25
81 47 124 29 55 38 80 30 88 -8 8 -15 6 -24 -6z m-89 -166 c-12 -42 -18 -46
-35 -28 -14 13 -13 17 5 37 29 31 40 28 30 -9z"/>
</g>
</svg>
