<?xml version="1.0" standalone="no"?>
<!DOCTYPE svg PUBLIC "-//W3C//DTD SVG 20010904//EN"
 "http://www.w3.org/TR/2001/REC-SVG-20010904/DTD/svg10.dtd">
<svg version="1.0" xmlns="http://www.w3.org/2000/svg"
 width="67.000000pt" height="76.000000pt" viewBox="0 0 67.000000 76.000000"
 preserveAspectRatio="xMidYMid meet">
<metadata>
Created by potrace 1.16, written by Peter Selinger 2001-2019
</metadata>
<g transform="translate(0.000000,76.000000) scale(0.100000,-0.100000)"
fill="#000000" stroke="none">
<path d="M490 721 l-45 -6 0 -45 c0 -25 -4 -48 -10 -53 -13 -9 -210 1 -251 14
-17 5 -45 20 -63 34 -18 13 -39 21 -46 19 -25 -10 -50 -164 -26 -164 14 0 23
-32 11 -44 -14 -14 -12 -26 5 -26 11 0 13 -10 9 -45 -4 -36 -2 -45 10 -45 8 0
18 5 22 11 3 6 17 8 30 5 13 -4 42 -2 64 3 54 12 120 3 120 -17 0 -13 -15 -14
-104 -9 -91 5 -106 4 -120 -12 -24 -26 -20 -44 8 -37 40 10 207 9 218 -2 5 -5
8 -18 6 -27 -3 -16 -14 -18 -93 -16 -50 1 -94 6 -100 12 -23 23 -43 9 -50 -37
-3 -25 -4 -48 -1 -51 2 -3 29 4 58 15 55 21 83 25 156 23 l42 -1 0 -85 c0 -68
3 -85 15 -85 19 0 29 41 22 98 -6 62 -1 72 38 72 31 0 61 28 32 31 -7 1 -16 2
-22 4 -5 1 -18 3 -27 3 -25 3 -23 39 2 52 11 6 20 15 20 20 0 6 -9 10 -20 10
-13 0 -20 7 -20 20 0 10 9 24 20 30 24 13 26 30 5 30 -19 0 -19 0 4 52 42 96
48 93 55 -28 3 -60 7 -184 9 -276 2 -147 4 -168 18 -168 14 0 18 17 23 103 7
104 62 328 92 374 23 36 18 55 -13 52 -75 -6 -79 10 -33 108 24 51 28 68 19
79 -12 15 -15 15 -89 5z m40 -45 c0 -15 -14 -35 -21 -30 -15 9 -10 34 6 34 8
0 15 -2 15 -4z m-410 -82 c0 -2 -9 -4 -21 -4 -11 0 -18 4 -14 10 5 8 35 3 35
-6z m335 -14 c4 -6 -7 -10 -27 -10 -25 0 -29 3 -18 10 19 13 37 13 45 0z
m-132 -10 c29 0 29 -1 14 -18 -10 -10 -17 -24 -17 -30 0 -13 -10 -14 -90 -12
-30 1 -70 10 -89 20 l-36 18 40 11 c59 16 87 19 119 15 16 -2 42 -4 59 -4z
m237 -97 c-1 -5 -9 -33 -20 -63 l-19 -55 -1 63 c0 55 2 62 20 62 11 0 20 -3
20 -7z m-242 -31 l4 -24 -89 7 c-48 4 -99 12 -113 18 -23 10 -20 12 30 18 30
3 80 6 110 5 50 -1 55 -3 58 -24z"/>
</g>
</svg>
