<?xml version="1.0" standalone="no"?>
<!DOCTYPE svg PUBLIC "-//W3C//DTD SVG 20010904//EN"
 "http://www.w3.org/TR/2001/REC-SVG-20010904/DTD/svg10.dtd">
<svg version="1.0" xmlns="http://www.w3.org/2000/svg"
 width="160.000000pt" height="99.000000pt" viewBox="0 0 160.000000 99.000000"
 preserveAspectRatio="xMidYMid meet">
<metadata>
Created by potrace 1.16, written by Peter Selinger 2001-2019
</metadata>
<g transform="translate(0.000000,99.000000) scale(0.100000,-0.100000)"
fill="#000000" stroke="none">
<path d="M1592 960 c0 -19 2 -27 5 -17 2 9 2 25 0 35 -3 9 -5 1 -5 -18z"/>
<path d="M1382 935 c-34 -7 -65 -15 -69 -18 -3 -4 2 -24 11 -47 9 -22 16 -46
16 -53 0 -7 -43 -36 -95 -66 -52 -29 -95 -57 -95 -61 0 -6 -68 -54 -200 -140
-48 -32 -57 -31 -110 11 -28 22 -60 54 -70 71 -19 32 -35 114 -31 161 5 50
-26 45 -76 -12 -24 -28 -50 -51 -57 -51 -7 0 -23 -12 -37 -26 -23 -24 -28 -25
-89 -19 -36 4 -85 11 -110 18 -56 13 -140 54 -140 68 0 6 -10 9 -23 7 -17 -2
-22 -10 -23 -33 0 -16 -5 -40 -12 -52 -11 -20 -17 -73 -9 -73 2 0 19 8 38 18
26 13 59 17 147 17 128 0 145 -5 119 -33 -21 -23 -22 -32 -2 -32 13 0 85 -57
140 -110 45 -43 48 -11 5 48 -16 23 -30 52 -30 64 0 39 12 68 27 68 34 0 266
-179 233 -180 -8 0 -30 -16 -49 -35 -40 -41 -141 -105 -166 -105 -9 0 -41 25
-71 55 -44 46 -54 63 -56 93 0 20 -2 42 -2 49 -2 24 -17 26 -41 3 -13 -12 -34
-28 -47 -34 -14 -7 -23 -21 -23 -36 0 -23 -3 -24 -55 -21 -30 1 -61 7 -67 13
-15 12 -9 47 18 101 10 21 19 42 19 46 0 5 -21 9 -46 9 -58 0 -73 -24 -56 -96
5 -26 9 -49 7 -50 -2 -2 -17 -1 -34 3 -42 9 -62 47 -48 92 7 24 7 37 0 44 -17
17 -30 3 -38 -38 -4 -21 -12 -45 -20 -53 -7 -8 -15 -35 -19 -60 -3 -25 -9 -62
-12 -82 -7 -42 -4 -45 30 -22 13 8 26 11 29 7 3 -4 10 -41 17 -80 6 -40 14
-73 17 -73 3 0 3 34 -1 75 -8 85 1 109 41 120 44 11 52 -12 46 -121 -5 -76 -3
-94 8 -94 11 0 15 21 16 88 4 145 -6 135 134 130 101 -4 124 -8 147 -25 17
-14 26 -29 24 -43 -1 -12 7 -33 18 -47 11 -14 20 -32 20 -39 0 -7 4 -24 10
-38 11 -31 32 -26 51 12 22 44 110 151 149 179 19 15 41 35 48 45 14 20 47 24
57 7 4 -5 17 -15 28 -20 12 -5 40 -23 62 -39 22 -17 65 -43 96 -59 57 -29 89
-52 118 -83 18 -20 31 -23 31 -7 0 11 -63 71 -104 98 -13 9 -43 29 -67 45 -24
16 -66 47 -92 70 l-48 40 33 28 c18 15 36 28 40 28 4 0 33 18 64 39 44 30 61
37 73 29 19 -12 75 7 66 22 -3 5 -1 10 4 10 6 0 11 -5 11 -11 0 -7 24 -9 70
-7 65 3 70 1 70 -17 0 -41 -12 -46 -86 -35 -38 5 -78 12 -90 15 -23 7 -54 -16
-54 -41 0 -11 9 -13 41 -8 39 7 56 7 133 5 38 -1 38 -2 32 -33 -3 -17 -7 -32
-9 -34 -2 -2 -96 11 -142 21 -16 3 -35 2 -42 -2 -16 -12 -21 -49 -5 -45 43 8
58 8 69 0 7 -5 14 -5 18 2 17 27 98 -2 93 -34 -3 -23 -34 -26 -113 -12 -46 8
-71 -4 -62 -29 6 -14 17 -15 88 -9 l82 7 -8 -59 c-4 -32 -9 -80 -10 -106 -3
-47 -11 -107 -22 -163 -10 -53 25 -10 44 54 8 31 20 63 24 71 5 8 22 49 38 90
33 85 101 224 137 281 13 21 24 40 24 43 0 2 -20 9 -44 15 -42 10 -76 33 -76
50 0 4 18 62 40 129 22 66 40 128 40 136 0 19 -19 19 -108 1z m56 -24 c11 -6
8 -25 -15 -96 l-28 -87 -6 48 c-3 27 -9 68 -14 91 -6 35 -5 42 11 46 30 7 38
7 52 -2z m-740 -200 l-3 -51 -32 22 c-18 13 -33 25 -33 28 0 14 56 68 63 61 4
-4 7 -31 5 -60z m650 5 c2 -27 -1 -53 -6 -58 -9 -9 -107 24 -126 42 -10 10 93
71 114 67 10 -1 16 -17 18 -51z m-1100 -27 c-2 -6 -8 -10 -13 -10 -5 0 -11 4
-13 10 -2 6 4 11 13 11 9 0 15 -5 13 -11z m302 -64 c0 -8 -4 -15 -9 -15 -13 0
-22 16 -14 24 11 11 23 6 23 -9z m924 -28 c16 -11 13 -19 -31 -97 -55 -96 -68
-123 -83 -162 -5 -16 -14 -28 -20 -28 -7 0 -8 6 0 19 5 11 10 37 10 58 0 21 6
50 13 64 9 16 11 33 6 48 -7 17 -3 28 16 47 14 14 25 31 25 38 0 28 34 35 64
13z m-1229 -38 c-6 -16 -9 -18 -16 -8 -4 8 -3 19 3 26 15 18 21 9 13 -18z"/>
</g>
</svg>
