<?xml version="1.0" standalone="no"?>
<!DOCTYPE svg PUBLIC "-//W3C//DTD SVG 20010904//EN"
 "http://www.w3.org/TR/2001/REC-SVG-20010904/DTD/svg10.dtd">
<svg version="1.0" xmlns="http://www.w3.org/2000/svg"
 width="134.000000pt" height="95.000000pt" viewBox="0 0 134.000000 95.000000"
 preserveAspectRatio="xMidYMid meet">
<metadata>
Created by potrace 1.16, written by Peter Selinger 2001-2019
</metadata>
<g transform="translate(0.000000,95.000000) scale(0.100000,-0.100000)"
fill="#000000" stroke="none">
<path d="M0 928 c0 -19 2 -20 10 -8 13 19 13 30 0 30 -5 0 -10 -10 -10 -22z"/>
<path d="M255 887 c-7 -18 -23 -41 -34 -51 -27 -24 -27 -46 -1 -46 19 0 20 -4
15 -37 -22 -125 -65 -242 -104 -277 -12 -11 -21 -24 -21 -30 0 -6 -23 -34 -50
-63 l-49 -52 -4 42 c-3 40 -4 39 -5 -10 -1 -29 2 -53 8 -53 5 0 26 11 46 25
48 33 160 36 202 6 50 -34 174 -101 189 -101 11 0 13 -7 9 -27 -10 -53 -17
-183 -9 -183 20 1 33 19 39 55 3 22 12 47 20 56 8 8 14 20 14 26 0 6 7 16 16
23 8 8 21 29 29 47 8 19 28 48 45 64 36 37 32 49 -18 49 -68 0 -109 19 -159
71 -50 53 -75 88 -54 74 7 -4 21 1 31 10 24 22 98 37 107 22 3 -6 7 -31 8 -56
3 -67 4 -73 15 -66 5 3 10 28 10 55 0 59 7 80 27 80 13 0 15 -12 11 -70 -7
-87 12 -91 28 -6 11 51 33 85 57 86 7 0 12 -44 9 -88 0 -14 4 -22 11 -19 7 2
12 22 13 44 1 52 9 63 45 63 l29 0 0 -70 c0 -39 4 -70 10 -70 10 0 23 38 20
61 -7 47 1 69 26 75 32 8 45 -9 34 -46 -8 -27 2 -61 13 -44 3 5 10 28 17 52
l11 43 107 -6 c59 -4 113 -8 120 -11 10 -3 13 -33 11 -126 -1 -82 2 -123 10
-126 15 -5 19 10 25 113 13 195 29 297 60 385 20 55 12 70 -38 70 -23 0 -47 5
-54 12 -8 8 -15 8 -25 -1 -11 -9 -12 -22 -6 -58 5 -25 6 -49 3 -52 -9 -10
-208 -8 -215 2 -4 5 0 37 7 70 8 33 13 61 12 63 -2 1 -15 5 -31 9 -31 8 -31 6
-27 -97 2 -57 1 -58 -25 -58 -26 0 -27 1 -22 53 3 28 6 61 8 72 3 16 -2 20
-31 20 l-35 0 -3 -65 c-2 -36 -9 -68 -15 -72 -20 -12 -39 14 -33 44 19 92 20
88 -3 88 -34 0 -36 -3 -33 -56 3 -37 -1 -54 -13 -64 -33 -27 -40 16 -18 108 6
24 -7 28 -38 11 -15 -8 -20 -20 -19 -47 3 -66 0 -82 -14 -82 -24 0 -27 15 -15
70 6 28 8 54 5 57 -3 3 -22 2 -42 -1 l-36 -7 4 -50 c5 -53 1 -56 -41 -35 -15
8 -32 11 -39 7 -17 -10 -43 -89 -32 -96 6 -3 35 -1 67 4 31 6 58 9 61 7 2 -3
5 -30 6 -61 l2 -56 -41 7 c-37 5 -44 2 -73 -27 -18 -18 -32 -36 -32 -41 0 -4
-4 -8 -10 -8 -5 0 -10 7 -10 15 0 8 -9 15 -19 15 -23 0 -81 -52 -81 -73 0 -15
98 -67 126 -67 27 0 94 -71 94 -99 0 -56 -13 -57 -86 -11 -82 52 -166 116
-178 137 -15 28 19 111 112 275 12 21 30 46 42 58 11 11 20 31 20 45 0 20 -5
25 -24 25 -44 0 -56 10 -56 46 0 45 -26 46 -45 1z m276 -60 c-8 -8 -11 -5 -11
9 0 27 14 41 18 19 2 -9 -1 -22 -7 -28z m-272 1 c-9 -16 -14 -19 -17 -9 -2 7
2 17 9 22 20 13 21 11 8 -13z m951 -25 c-1 -22 -25 -55 -33 -46 -4 3 -7 19 -7
35 0 21 5 28 20 28 13 0 20 -7 20 -17z m-922 -71 c-7 -15 -15 -31 -20 -36 -12
-14 -10 32 3 55 15 29 30 13 17 -19z m192 -1 c0 -9 -24 -21 -41 -21 -5 0 -9 7
-9 15 0 9 9 15 25 15 14 0 25 -4 25 -9z m646 -15 c1 0 5 -34 8 -73 l7 -73 -53
0 c-29 0 -83 3 -120 6 -75 8 -80 14 -69 95 l6 44 55 5 c44 4 161 1 166 -4z
m-538 -8 c19 -19 16 -117 -4 -125 -25 -9 -38 13 -36 67 1 68 13 85 40 58z m92
-58 c0 -61 -7 -74 -34 -64 -19 7 -23 103 -5 121 24 24 39 2 39 -57z m96 57 c5
-14 8 -68 6 -105 -2 -20 -7 -23 -34 -20 -32 3 -33 4 -36 56 -2 29 -1 60 2 68
7 17 55 19 62 1z m92 -60 c3 -66 3 -67 -23 -67 -14 0 -26 3 -26 8 -8 50 -5
118 4 124 31 20 42 3 45 -65z m-548 -158 c10 -18 9 -20 -7 -17 -10 2 -19 11
-21 21 -5 24 15 21 28 -4z m-143 -86 c13 -20 12 -21 -21 -21 -19 0 -39 -3 -45
-7 -18 -10 -13 3 11 30 25 29 35 28 55 -2z m403 -88 c0 -5 -68 -104 -83 -120
-6 -6 -6 7 -2 35 7 44 21 64 37 54 4 -3 13 4 20 16 12 18 28 27 28 15z"/>
<path d="M0 780 c0 -29 2 -51 4 -49 8 8 10 88 3 95 -4 4 -7 -17 -7 -46z"/>
<path d="M1 694 c0 -11 3 -14 6 -6 3 7 2 16 -1 19 -3 4 -6 -2 -5 -13z"/>
<path d="M2 595 c0 -16 2 -22 5 -12 2 9 2 23 0 30 -3 6 -5 -1 -5 -18z"/>
<path d="M2 460 c0 -19 2 -27 5 -17 2 9 2 25 0 35 -3 9 -5 1 -5 -18z"/>
<path d="M2 280 c0 -14 2 -19 5 -12 2 6 2 18 0 25 -3 6 -5 1 -5 -13z"/>
<path d="M1 234 c0 -11 3 -14 6 -6 3 7 2 16 -1 19 -3 4 -6 -2 -5 -13z"/>
<path d="M1 164 c0 -11 3 -14 6 -6 3 7 2 16 -1 19 -3 4 -6 -2 -5 -13z"/>
<path d="M1058 3 c6 -2 18 -2 25 0 6 3 1 5 -13 5 -14 0 -19 -2 -12 -5z"/>
</g>
</svg>
