<?xml version="1.0" standalone="no"?>
<!DOCTYPE svg PUBLIC "-//W3C//DTD SVG 20010904//EN"
 "http://www.w3.org/TR/2001/REC-SVG-20010904/DTD/svg10.dtd">
<svg version="1.0" xmlns="http://www.w3.org/2000/svg"
 width="223.000000pt" height="129.000000pt" viewBox="0 0 223.000000 129.000000"
 preserveAspectRatio="xMidYMid meet">
<metadata>
Created by potrace 1.16, written by Peter Selinger 2001-2019
</metadata>
<g transform="translate(0.000000,129.000000) scale(0.100000,-0.100000)"
fill="#000000" stroke="none">
<path d="M812 1193 c-37 -38 -94 -88 -126 -112 -53 -39 -57 -45 -42 -57 25
-18 -198 -10 -301 11 -81 17 -161 42 -177 57 -25 21 -72 -7 -55 -33 5 -8 9
-37 9 -66 0 -33 5 -55 14 -60 9 -6 16 -41 21 -117 l7 -109 -28 7 c-16 4 -33 8
-38 9 -15 3 -44 -55 -52 -101 -8 -50 2 -54 50 -17 44 33 75 34 69 1 -7 -34 15
-43 23 -9 9 39 23 53 49 53 16 0 25 -9 32 -32 10 -33 12 -32 27 15 10 31 48
17 58 -20 10 -40 26 -43 30 -5 3 23 8 27 33 27 28 0 30 -3 28 -33 -1 -26 3
-32 15 -30 9 2 18 12 20 23 5 26 21 45 38 45 10 0 14 -15 14 -56 0 -40 3 -55
13 -52 6 3 13 16 14 29 4 66 8 79 26 85 21 7 56 -22 91 -72 11 -17 40 -59 64
-92 l42 -61 -15 -95 c-13 -82 -13 -126 1 -126 3 0 20 16 40 35 19 19 44 35 54
35 11 0 20 5 20 10 0 6 7 10 15 10 8 0 34 9 58 19 71 32 107 40 242 50 249 19
690 20 709 1 7 -7 6 -21 -2 -43 -7 -18 -12 -39 -12 -45 0 -6 -11 -35 -24 -64
-24 -56 -52 -176 -42 -186 11 -11 24 12 49 87 14 41 34 85 45 96 12 12 24 35
28 51 11 44 39 96 68 123 14 13 49 59 77 102 28 44 55 79 59 79 4 0 12 18 19
40 6 22 18 40 25 40 8 0 17 7 20 16 7 17 -4 28 -60 64 -22 14 -41 44 -69 105
l-38 85 27 131 c15 72 24 134 21 137 -3 3 -21 -13 -40 -35 -33 -39 -71 -58
-106 -54 -8 1 -24 -8 -34 -19 -16 -18 -17 -22 -3 -37 23 -27 28 -51 13 -57
-17 -6 -65 -7 -550 -8 -203 -1 -383 1 -398 5 -15 3 -43 15 -62 27 -43 26 -75
14 -75 -28 0 -15 -4 -34 -9 -41 -15 -23 -25 30 -16 84 8 57 48 175 70 208 11
17 13 27 5 32 -6 4 -40 -24 -78 -62z m-29 -115 c-9 -29 -17 -55 -19 -57 -6 -6
-44 30 -44 42 0 11 58 67 70 67 4 0 1 -24 -7 -52z m1244 -36 c-13 -49 -18 -51
-34 -17 -10 22 -8 27 15 44 15 11 28 19 29 18 1 -1 -4 -21 -10 -45z m-1813
-31 c3 -5 -3 -11 -14 -14 -20 -5 -26 3 -13 16 9 10 21 9 27 -2z m352 -35 c73
-3 140 -8 148 -13 13 -7 89 -93 128 -143 15 -21 14 -25 -24 -85 -24 -39 -38
-73 -36 -87 3 -22 7 -23 93 -24 163 -3 146 4 143 -56 -4 -66 14 -71 47 -13
l22 40 59 -3 c32 -2 65 -7 74 -12 18 -9 148 -38 230 -50 79 -12 165 -35 240
-63 36 -14 91 -28 123 -32 69 -9 76 -21 10 -17 -67 4 -52 3 -328 2 -137 -1
-297 -6 -355 -11 -100 -9 -132 -6 -275 24 -22 5 -60 39 -84 75 -14 22 -39 58
-55 82 -25 39 -28 49 -23 104 5 64 8 78 28 144 7 23 9 45 5 49 -3 4 -23 -9
-44 -28 -40 -38 -107 -89 -116 -89 -10 0 -7 58 5 106 14 53 3 71 -28 49 -18
-13 -21 -25 -21 -126 -1 -111 -9 -138 -33 -124 -9 6 -10 38 -6 126 l6 119 -29
0 -30 0 1 -67 c0 -38 4 -90 8 -118 5 -27 7 -53 5 -56 -2 -3 -17 -4 -33 -1 -43
6 -46 21 -38 212 2 25 -2 35 -13 35 -19 0 -30 -52 -30 -148 -1 -60 -4 -79 -16
-84 -28 -10 -34 12 -35 120 0 97 -2 107 -19 107 -23 0 -32 -37 -20 -81 6 -19
10 -60 10 -92 0 -58 0 -58 -27 -55 -24 3 -29 9 -35 46 -4 24 -3 66 2 94 6 28
10 64 10 79 0 25 -4 29 -27 29 -27 0 -27 0 -7 15 28 19 136 35 203 29 30 -2
114 -6 187 -8z m1267 -45 c49 -1 40 -15 -20 -30 -61 -16 -174 -49 -233 -68
-147 -49 -407 -105 -480 -103 -25 0 -57 -5 -72 -11 -24 -10 -34 -7 -78 21 -29
19 -49 38 -46 45 2 7 -4 29 -14 48 -18 33 -18 36 -2 51 12 10 44 17 92 20 41
3 147 10 235 17 88 6 187 9 220 7 33 -3 68 -2 77 1 15 5 141 6 321 2z m-936
-7 c-3 -3 -12 -4 -19 -1 -8 3 -5 6 6 6 11 1 17 -2 13 -5z m1089 -45 c8 -17 12
-35 7 -40 -11 -11 -165 13 -170 27 -2 6 25 17 59 26 88 21 86 21 104 -13z
m-252 -66 c-14 -49 -10 -127 6 -140 13 -10 13 -12 -2 -18 -12 -5 -18 -18 -18
-42 0 -20 4 -32 10 -28 6 3 10 1 10 -4 0 -6 -4 -11 -8 -11 -4 0 -16 -14 -26
-31 -16 -28 -20 -29 -39 -16 -12 7 -49 19 -82 27 -33 7 -64 15 -70 16 -5 1
-40 7 -78 13 -37 6 -91 20 -120 30 -28 11 -74 22 -100 26 -36 5 -47 10 -45 22
4 19 45 51 73 56 11 2 27 7 35 10 8 3 26 8 40 10 14 3 52 13 85 22 109 31 119
34 210 59 122 33 129 33 119 -1z m300 -24 c2 -2 9 -14 15 -26 11 -22 10 -23
-31 -18 -24 3 -83 7 -133 9 -49 3 -92 5 -94 5 -15 3 36 40 58 43 31 4 179 -7
185 -13z m-1378 -56 c-7 -27 -24 -27 -40 1 -9 14 -6 21 14 38 23 18 25 19 28
3 2 -9 1 -28 -2 -42z m238 -42 c16 -17 15 -19 -16 -25 -36 -7 -52 3 -42 27 8
22 37 21 58 -2z m1121 9 c3 -5 1 -19 -6 -31 -10 -19 -17 -21 -62 -16 -29 3
-79 12 -112 20 l-60 14 40 7 c22 4 45 9 50 11 24 8 144 4 150 -5z m-1435 -14
c0 -3 -4 -8 -10 -11 -5 -3 -10 -1 -10 4 0 6 5 11 10 11 6 0 10 -2 10 -4z
m1543 -17 c12 -7 24 -13 26 -15 2 -2 -11 -26 -28 -54 -17 -28 -31 -53 -31 -56
0 -16 -79 -114 -92 -114 -12 0 1 50 21 80 8 14 17 38 18 55 2 16 8 34 13 39 6
6 10 20 10 33 0 12 8 27 18 32 22 13 19 13 45 0z m-2003 -13 c0 -2 -7 -6 -15
-10 -8 -3 -15 -1 -15 4 0 6 7 10 15 10 8 0 15 -2 15 -4z m1863 -55 c4 -4 5
-16 1 -25 -6 -16 -16 -17 -78 -13 -94 7 -154 20 -139 30 34 21 195 27 216 8z
m-216 -67 c-3 -3 -12 -4 -19 -1 -8 3 -5 6 6 6 11 1 17 -2 13 -5z m183 -33 c0
-29 -18 -71 -30 -71 -5 0 -10 6 -10 14 0 16 -50 36 -87 36 -34 0 -24 23 13 31
16 4 48 7 72 8 35 1 42 -2 42 -18z m-1027 -158 c4 -3 -19 -19 -50 -35 -31 -15
-57 -27 -58 -26 -1 2 2 18 7 36 8 30 12 32 52 32 23 0 46 -3 49 -7z"/>
<path d="M890 870 c0 -5 4 -10 9 -10 6 0 13 5 16 10 3 6 -1 10 -9 10 -9 0 -16
-4 -16 -10z"/>
</g>
</svg>
