<?xml version="1.0" standalone="no"?>
<!DOCTYPE svg PUBLIC "-//W3C//DTD SVG 20010904//EN"
 "http://www.w3.org/TR/2001/REC-SVG-20010904/DTD/svg10.dtd">
<svg version="1.0" xmlns="http://www.w3.org/2000/svg"
 width="41.000000pt" height="89.000000pt" viewBox="0 0 41.000000 89.000000"
 preserveAspectRatio="xMidYMid meet">
<metadata>
Created by potrace 1.16, written by Peter Selinger 2001-2019
</metadata>
<g transform="translate(0.000000,89.000000) scale(0.100000,-0.100000)"
fill="#000000" stroke="none">
<path d="M173 816 c-72 -72 -87 -96 -59 -96 8 0 36 -25 62 -55 l47 -55 -28
-43 c-16 -23 -50 -70 -77 -104 -26 -34 -48 -67 -48 -73 0 -5 14 -10 30 -10 33
0 98 -29 124 -55 9 -9 12 -23 9 -33 -10 -25 -90 -150 -127 -197 -39 -49 -58
-86 -50 -94 4 -3 9 1 12 9 8 24 190 198 225 217 49 25 87 55 87 70 0 17 -70
61 -106 65 -23 2 -30 9 -35 34 -3 17 -13 45 -22 64 -23 44 -22 49 11 63 29 12
131 88 131 97 0 11 -90 49 -105 43 -18 -7 -43 24 -44 55 0 12 11 55 25 94 14
39 25 73 25 75 0 12 -24 -8 -87 -71z m8 -69 c-7 -7 -12 -5 -17 7 -4 11 -1 21
7 27 17 11 26 -18 10 -34z m124 -136 c5 -8 -35 -44 -72 -65 -24 -14 -13 12 19
43 34 33 43 37 53 22z m-104 -193 c12 -22 -1 -24 -34 -5 -12 6 -23 13 -25 14
-2 0 3 11 10 22 12 20 14 20 26 4 8 -10 18 -26 23 -35z m129 -133 c0 -8 -4
-15 -9 -15 -4 0 -29 -16 -55 -35 -48 -38 -53 -38 -35 -2 25 50 99 88 99 52z"/>
</g>
</svg>
