<?xml version="1.0" standalone="no"?>
<!DOCTYPE svg PUBLIC "-//W3C//DTD SVG 20010904//EN"
 "http://www.w3.org/TR/2001/REC-SVG-20010904/DTD/svg10.dtd">
<svg version="1.0" xmlns="http://www.w3.org/2000/svg"
 width="180.000000pt" height="103.000000pt" viewBox="0 0 180.000000 103.000000"
 preserveAspectRatio="xMidYMid meet">
<metadata>
Created by potrace 1.16, written by Peter Selinger 2001-2019
</metadata>
<g transform="translate(0.000000,103.000000) scale(0.100000,-0.100000)"
fill="#000000" stroke="none">
<path d="M1626 972 c-8 -16 -41 -54 -73 -86 -50 -48 -56 -58 -43 -69 25 -21
61 -77 55 -86 -6 -10 -38 -3 -98 23 -41 18 -57 14 -57 -13 0 -17 -75 -95 -120
-124 -25 -15 -26 -14 -96 51 -87 82 -108 124 -99 195 4 29 12 58 18 65 5 7 7
15 4 18 -8 9 -27 -5 -27 -19 0 -7 -27 -41 -59 -76 -42 -45 -61 -74 -63 -95 -3
-29 -5 -31 -40 -29 -35 2 -37 1 -36 -28 1 -23 -10 -41 -43 -75 -24 -24 -49
-43 -55 -42 -6 2 -35 31 -63 66 -55 66 -87 150 -75 197 9 36 -12 38 -37 3 -12
-18 -40 -50 -63 -70 -39 -36 -41 -37 -105 -32 -115 9 -206 33 -251 65 -22 16
-45 27 -50 24 -6 -4 -15 -26 -21 -50 -11 -43 -12 -44 -58 -47 -39 -3 -46 -6
-49 -25 -2 -13 1 -23 6 -23 12 0 32 -172 33 -291 2 -145 26 -164 34 -27 6 104
33 275 46 301 26 48 38 52 138 52 135 -1 311 -15 311 -26 0 -5 -11 -9 -24 -9
-14 0 -28 -5 -32 -11 -4 -8 -48 -10 -133 -9 -177 4 -251 2 -251 -9 0 -5 8 -12
18 -15 16 -6 18 -19 18 -123 l-1 -118 -28 -13 -29 -14 27 -14 c20 -10 32 -11
47 -3 13 7 82 12 167 13 125 1 146 -1 149 -15 1 -8 -6 -20 -17 -25 -19 -9 -19
-11 14 -64 19 -30 40 -55 47 -55 14 0 30 29 48 90 7 22 16 42 20 45 4 3 30 37
58 75 76 106 99 120 134 88 25 -22 33 -10 14 19 -15 23 -14 26 15 61 30 37 51
48 47 25 -2 -10 18 -13 77 -13 68 0 80 -3 83 -18 5 -25 -24 -32 -77 -18 -51
13 -81 7 -81 -15 0 -10 15 -14 53 -15 106 -3 102 -2 105 -30 l3 -26 -70 5
c-79 5 -121 -2 -121 -22 0 -29 24 -34 85 -18 65 17 115 11 115 -13 0 -23 -37
-55 -64 -55 -14 0 -27 -4 -30 -9 -9 -14 35 -111 50 -111 7 0 18 16 25 35 7 19
16 35 20 35 4 0 23 28 43 62 20 35 58 87 86 116 57 61 57 61 135 -17 28 -28
71 -72 98 -98 48 -48 54 -61 38 -91 -51 -95 -100 -236 -86 -250 6 -6 46 58 70
111 13 30 40 80 59 110 20 31 36 61 36 67 0 5 4 10 8 10 4 0 24 22 45 48 20
27 64 77 98 111 l62 62 -38 23 c-36 22 -74 75 -75 105 0 8 -7 22 -16 32 -15
17 -15 27 4 126 11 59 24 116 27 126 12 29 -23 20 -39 -11z m-29 -123 c-7 -53
-15 -59 -38 -30 -20 24 -20 24 2 48 32 34 42 29 36 -18z m-544 -44 c-6 -16
-16 -19 -26 -8 -9 8 13 34 24 28 4 -3 6 -12 2 -20z m-429 -31 c13 -34 -2 -45
-33 -25 -12 8 -12 12 -2 25 17 20 27 20 35 0z m-430 -10 c20 -8 11 -24 -15
-24 -10 0 -19 7 -19 15 0 16 9 19 34 9z m875 -40 c39 -32 39 -44 2 -44 -30 0
-91 18 -91 28 0 11 33 42 46 42 7 0 26 -12 43 -26z m-963 -28 c3 -7 -2 -29
-10 -47 l-14 -34 -1 48 c-1 44 13 64 25 33z m1498 -5 c46 -38 -9 -53 -114 -30
-49 11 -56 24 -19 37 30 12 116 7 133 -7z m-902 -70 c52 -52 58 -61 47 -78
-18 -27 -178 -173 -189 -173 -13 0 -13 53 -1 65 5 6 12 35 16 65 9 80 41 180
58 180 6 0 37 -27 69 -59z m455 24 c15 -10 37 -29 50 -43 l24 -26 -48 -48
c-26 -26 -53 -48 -59 -48 -17 0 -24 38 -11 53 7 6 12 29 13 49 1 41 -10 48
-82 48 -48 0 -106 18 -99 31 10 16 183 3 212 -16z m233 -6 c0 -27 2 -30 23
-23 18 7 198 7 204 0 1 -1 0 -11 -3 -23 -8 -30 -37 -34 -105 -17 -80 20 -133
16 -137 -12 -3 -19 2 -21 94 -21 102 -1 127 -10 103 -39 -13 -16 -15 -16 -131
2 -25 4 -38 2 -38 -5 0 -23 -27 -10 -69 33 l-43 44 42 46 c23 25 46 46 51 46
5 0 9 -14 9 -31z m-933 1 c45 0 46 -29 1 -32 -53 -2 -221 2 -225 6 -2 2 0 11
3 21 6 16 17 17 97 11 50 -3 105 -6 124 -6z m113 -14 c0 -8 -5 -18 -10 -21
-17 -11 -40 3 -34 20 8 19 44 20 44 1z m1100 -46 c0 -5 -4 -10 -10 -10 -5 0
-10 5 -10 10 0 6 5 10 10 10 6 0 10 -4 10 -10z m-1392 -6 c18 -5 22 -13 20
-33 -4 -36 -54 -43 -67 -9 -5 14 -5 28 1 36 12 14 14 14 46 6z m220 -19 c23
-51 19 -54 -65 -48 -95 7 -117 16 -103 43 11 21 32 27 106 29 45 1 52 -2 62
-24z m1212 4 c0 -19 -63 -79 -82 -79 -37 0 -17 42 33 70 40 22 49 24 49 9z
m-1421 -78 c8 -5 11 -16 8 -25 -9 -22 2 -20 21 5 13 16 31 21 77 23 86 4 115
-8 115 -47 l0 -32 -88 -2 c-48 -1 -109 -4 -137 -6 -27 -2 -56 -2 -62 1 -16 5
-17 64 -1 80 14 14 47 15 67 3z m1241 -28 c0 -17 -21 -83 -27 -83 -3 0 -21 14
-40 30 -34 30 -34 30 -11 39 13 4 30 11 38 14 22 8 40 8 40 0z m80 0 c0 -5
-14 -24 -30 -43 -30 -35 -31 -18 -2 28 14 21 32 30 32 15z m-1014 -127 c-16
-41 -24 -52 -33 -44 -24 20 -15 55 20 76 17 11 33 21 33 21 1 1 -8 -23 -20
-53z m454 25 c-12 -24 -30 -28 -30 -6 0 13 31 38 38 30 2 -2 -1 -13 -8 -24z"/>
</g>
</svg>
