<?xml version="1.0" standalone="no"?>
<!DOCTYPE svg PUBLIC "-//W3C//DTD SVG 20010904//EN"
 "http://www.w3.org/TR/2001/REC-SVG-20010904/DTD/svg10.dtd">
<svg version="1.0" xmlns="http://www.w3.org/2000/svg"
 width="93.000000pt" height="94.000000pt" viewBox="0 0 93.000000 94.000000"
 preserveAspectRatio="xMidYMid meet">
<metadata>
Created by potrace 1.16, written by Peter Selinger 2001-2019
</metadata>
<g transform="translate(0.000000,94.000000) scale(0.100000,-0.100000)"
fill="#000000" stroke="none">
<path d="M592 868 c-7 -7 -12 -16 -12 -21 0 -5 -13 -29 -30 -54 -27 -40 -30
-51 -30 -127 0 -45 -2 -85 -5 -88 -7 -7 -133 17 -183 34 -61 20 -64 25 -42 69
27 51 26 55 -16 62 -68 11 -72 4 -68 -136 4 -140 -1 -153 -53 -138 -38 11 -49
4 -59 -34 -3 -17 -13 -38 -22 -47 -15 -18 -14 -82 4 -251 10 -86 29 -67 30 29
0 66 5 90 31 149 30 68 33 70 80 83 67 18 238 28 247 14 4 -6 -7 -21 -24 -33
-16 -13 -30 -26 -30 -30 0 -4 21 -18 46 -31 26 -13 58 -35 72 -50 34 -35 48
-25 23 17 -19 33 -18 45 3 45 7 0 35 -22 64 -50 55 -52 69 -47 27 10 -29 39
-27 52 17 124 33 54 30 73 -6 34 -36 -38 -116 -102 -121 -96 -3 3 4 16 15 31
11 14 20 36 20 49 0 16 8 29 23 36 25 12 180 25 190 16 7 -7 -76 -91 -115
-117 -16 -9 -28 -21 -28 -26 0 -5 22 -23 48 -40 27 -17 59 -42 72 -56 13 -14
27 -25 32 -25 17 0 6 19 -33 58 -34 33 -41 44 -35 66 8 33 52 83 63 73 4 -5 8
-35 8 -68 -1 -32 3 -59 7 -59 11 0 21 66 15 107 -8 66 12 195 44 283 44 120
44 124 -11 128 -33 3 -47 -1 -57 -14 -21 -29 -81 -10 -128 42 -43 47 -54 51
-73 32z m45 -92 c-6 -17 -46 -19 -53 -2 -3 8 0 25 7 37 l12 23 19 -24 c10 -12
17 -28 15 -34z m223 4 c0 -5 -9 -10 -21 -10 -11 0 -17 5 -14 10 3 6 13 10 21
10 8 0 14 -4 14 -10z m-92 -26 c18 -5 22 -13 20 -33 -3 -24 -6 -26 -48 -23
-25 1 -71 3 -102 5 -32 1 -58 5 -58 9 0 13 37 28 92 37 71 12 70 12 96 5z m72
-33 c0 -11 -4 -23 -10 -26 -6 -4 -10 5 -10 19 0 14 5 26 10 26 6 0 10 -9 10
-19z m-570 -14 c0 -20 -26 -52 -33 -40 -10 15 4 53 19 53 8 0 14 -6 14 -13z
m364 -31 c120 -4 146 -7 146 -15 0 -4 -35 -11 -77 -15 -42 -3 -82 -11 -87 -16
-7 -7 18 -9 82 -4 89 6 92 5 92 -15 0 -19 -6 -21 -77 -21 -92 0 -123 -7 -123
-27 0 -11 6 -12 23 -6 12 4 56 8 97 8 74 0 75 0 78 -27 3 -26 -6 -34 -33 -28
-5 1 -34 1 -63 1 -30 0 -66 5 -80 10 -17 7 -29 6 -36 -1 -21 -21 -28 -8 -22
43 14 110 18 127 28 120 6 -3 30 -7 52 -7z m-320 -95 c3 -5 -1 -12 -10 -15
-20 -8 -29 -1 -19 13 8 13 22 14 29 2z m175 -27 c30 -6 31 -8 31 -60 0 -29 -4
-55 -10 -59 -12 -7 -228 14 -258 26 -18 7 -22 14 -17 32 10 32 19 38 72 53 53
14 133 17 182 8z m-329 -138 c0 -15 -24 -28 -34 -19 -7 7 13 33 25 33 5 0 9
-6 9 -14z m340 -51 c0 -15 -6 -25 -14 -25 -22 0 -30 19 -16 35 18 22 30 18 30
-10z m-378 -32 l-17 -36 -3 28 c-2 15 2 32 10 36 25 16 28 9 10 -28z"/>
</g>
</svg>
