<?xml version="1.0" standalone="no"?>
<!DOCTYPE svg PUBLIC "-//W3C//DTD SVG 20010904//EN"
 "http://www.w3.org/TR/2001/REC-SVG-20010904/DTD/svg10.dtd">
<svg version="1.0" xmlns="http://www.w3.org/2000/svg"
 width="111.000000pt" height="87.000000pt" viewBox="0 0 111.000000 87.000000"
 preserveAspectRatio="xMidYMid meet">
<metadata>
Created by potrace 1.16, written by Peter Selinger 2001-2019
</metadata>
<g transform="translate(0.000000,87.000000) scale(0.100000,-0.100000)"
fill="#000000" stroke="none">
<path d="M677 823 c-2 -5 -7 -24 -11 -44 -3 -20 -15 -47 -26 -59 -28 -32 -19
-35 35 -15 40 16 56 17 128 6 45 -6 93 -12 107 -14 17 -1 26 -9 28 -25 5 -33
-18 -36 -102 -13 -42 12 -80 21 -84 21 -18 -1 -32 -18 -26 -33 5 -14 21 -17
89 -17 87 0 135 -11 135 -31 0 -9 -27 -10 -104 -6 -85 6 -106 4 -116 -8 -14
-17 -18 -17 86 -15 103 2 134 -6 134 -33 0 -19 -4 -20 -110 -15 -105 5 -110 5
-110 -14 0 -19 5 -19 100 -13 106 6 123 3 113 -20 -4 -12 -27 -15 -109 -15
-96 0 -104 -1 -104 -19 0 -18 6 -19 70 -16 38 2 74 6 79 9 18 11 61 -13 61
-34 0 -19 -5 -19 -109 -15 -85 3 -112 1 -121 -10 -6 -8 -17 -12 -24 -9 -7 3
-32 -4 -57 -14 -39 -17 -61 -18 -209 -13 l-165 7 -70 37 c-80 42 -95 45 -120
17 -10 -11 -15 -20 -12 -20 3 0 -1 -23 -9 -50 -13 -43 -13 -53 -1 -64 10 -10
13 -38 11 -103 -3 -91 2 -133 16 -133 4 0 10 21 12 48 3 26 14 67 25 92 11 25
29 64 39 88 11 26 26 44 39 47 11 2 90 6 175 8 111 3 147 2 126 -5 -25 -9 -27
-14 -22 -40 3 -17 6 -34 6 -39 0 -20 27 -7 52 25 38 48 114 90 168 92 25 2 66
6 92 10 72 10 155 -3 161 -26 7 -26 -7 -41 -79 -84 -34 -21 -71 -46 -82 -57
l-21 -19 26 -45 c14 -25 30 -44 36 -42 5 1 15 23 21 48 19 75 60 129 97 129 5
0 9 -16 9 -36 0 -49 17 -34 26 24 4 26 14 52 22 58 13 9 13 12 -2 17 -12 5
-16 19 -16 57 0 27 4 50 10 50 5 0 7 13 4 29 -4 16 -1 32 5 35 6 4 9 11 6 16
-7 11 18 113 44 178 11 29 21 55 21 58 0 10 -124 -2 -146 -14 -33 -17 -139 19
-187 63 -38 35 -52 41 -60 28z m23 -83 c-18 -11 -24 -6 -16 16 5 14 9 15 19 5
9 -9 9 -14 -3 -21z m310 -57 c0 -26 -16 -47 -29 -39 -12 8 -15 39 -4 49 13 13
33 7 33 -10z m-850 -341 c0 -14 -42 -33 -61 -27 -21 7 -27 51 -6 58 14 5 67
-19 67 -31z m-36 -74 c-3 -13 -13 -34 -20 -48 -13 -24 -13 -24 -14 16 0 44 5
54 27 54 10 0 12 -7 7 -22z m716 -76 c0 -5 -7 -17 -15 -28 -14 -19 -14 -19
-15 2 0 11 3 24 7 27 9 10 23 9 23 -1z"/>
<path d="M679 693 c-15 -3 -16 -17 -13 -103 3 -54 0 -118 -5 -142 -6 -26 -6
-47 -1 -52 15 -15 28 35 34 135 4 52 9 111 12 132 6 37 4 39 -27 30z"/>
<path d="M1101 394 c0 -11 3 -14 6 -6 3 7 2 16 -1 19 -3 4 -6 -2 -5 -13z"/>
<path d="M695 315 c-22 -14 -66 -35 -97 -46 -32 -12 -58 -23 -58 -25 0 -2 5
-15 12 -29 15 -33 34 -32 53 5 16 31 112 100 139 100 8 0 18 5 21 10 12 19
-30 10 -70 -15z"/>
<path d="M777 269 c-38 -21 -80 -42 -93 -45 -31 -8 -35 -15 -28 -53 8 -40 29
-40 50 2 22 43 70 86 121 109 24 10 43 21 43 23 0 12 -31 0 -93 -36z"/>
</g>
</svg>
