<?xml version="1.0" standalone="no"?>
<!DOCTYPE svg PUBLIC "-//W3C//DTD SVG 20010904//EN"
 "http://www.w3.org/TR/2001/REC-SVG-20010904/DTD/svg10.dtd">
<svg version="1.0" xmlns="http://www.w3.org/2000/svg"
 width="94.000000pt" height="92.000000pt" viewBox="0 0 94.000000 92.000000"
 preserveAspectRatio="xMidYMid meet">
<metadata>
Created by potrace 1.16, written by Peter Selinger 2001-2019
</metadata>
<g transform="translate(0.000000,92.000000) scale(0.100000,-0.100000)"
fill="#000000" stroke="none">
<path d="M253 845 c-13 -12 -23 -26 -23 -31 0 -16 -84 -92 -105 -96 -12 -2
-21 -13 -23 -25 -3 -20 0 -22 25 -18 20 4 43 -3 82 -27 56 -34 66 -53 29 -53
-13 0 -27 -9 -34 -23 -19 -38 -26 -39 -22 -2 3 31 0 35 -29 43 -38 11 -102 1
-109 -18 -3 -7 0 -33 7 -56 17 -63 18 -73 20 -184 l1 -100 41 -41 c23 -22 55
-59 71 -82 35 -49 51 -45 42 12 -17 100 -4 152 72 287 35 64 48 78 73 83 17 3
35 3 41 0 15 -10 60 6 55 19 -2 7 -15 12 -28 13 -88 3 -88 3 -115 47 -15 23
-32 45 -37 49 -6 4 -13 36 -15 72 -3 52 0 73 16 105 29 55 8 70 -35 26z m-23
-115 c0 -43 -17 -53 -40 -25 -11 13 -9 20 10 40 13 14 25 25 27 25 2 0 3 -18
3 -40z m-84 -153 c3 -8 -4 -36 -15 -63 -21 -53 -25 -49 -36 29 -6 46 -5 47 20
47 14 0 28 -6 31 -13z m118 -43 c24 -9 19 -20 -19 -43 -39 -22 -50 -15 -35 23
9 26 24 31 54 20z m-94 -55 c-24 -44 12 -51 67 -13 23 15 39 21 41 14 9 -25
-129 -185 -153 -177 -5 2 -11 26 -13 54 -2 38 3 62 23 101 15 29 30 50 36 47
5 -4 5 -14 -1 -26z m40 -156 c0 -13 -34 -83 -41 -83 -3 0 -12 7 -19 15 -11 13
-8 21 15 45 27 29 45 38 45 23z"/>
<path d="M363 793 c-16 -6 -18 -119 -3 -128 6 -4 35 1 66 10 31 9 62 14 69 12
9 -4 12 -57 12 -204 1 -109 -1 -206 -4 -216 -4 -17 -7 -17 -39 3 -20 11 -39
20 -43 20 -4 0 -16 -44 -26 -97 -10 -54 -24 -113 -31 -132 -22 -53 -17 -58 24
-20 55 52 92 73 105 60 17 -17 25 -13 41 17 8 16 21 29 28 30 128 15 130 15
147 -7 17 -22 17 -22 35 -2 14 15 15 24 7 40 -13 23 -13 137 -1 201 17 86 50
235 64 285 7 28 12 53 9 57 -2 4 -56 7 -121 6 -96 -1 -128 3 -181 21 -36 13
-74 29 -85 37 -20 14 -50 17 -73 7z m88 -63 c19 0 8 -28 -13 -34 -41 -10 -48
-7 -48 23 0 33 18 44 38 24 7 -7 18 -13 23 -13z m134 -40 c6 -9 -28 -157 -39
-168 -11 -10 -6 139 4 159 12 21 25 25 35 9z m112 -185 c1 -104 4 -219 7 -254
l6 -64 -62 7 c-34 3 -72 13 -85 21 -21 14 -23 23 -23 94 0 76 14 148 61 304
23 78 31 88 69 85 l25 -3 2 -190z m83 172 c0 -7 -7 -37 -16 -67 -19 -64 -34
-52 -34 28 0 49 1 52 25 52 14 0 25 -6 25 -13z m-288 -491 c14 -20 4 -40 -31
-63 -19 -13 -37 -23 -41 -23 -7 0 2 53 16 98 4 15 44 7 56 -12z"/>
</g>
</svg>
