<?xml version="1.0" standalone="no"?>
<!DOCTYPE svg PUBLIC "-//W3C//DTD SVG 20010904//EN"
 "http://www.w3.org/TR/2001/REC-SVG-20010904/DTD/svg10.dtd">
<svg version="1.0" xmlns="http://www.w3.org/2000/svg"
 width="144.000000pt" height="82.000000pt" viewBox="0 0 144.000000 82.000000"
 preserveAspectRatio="xMidYMid meet">
<metadata>
Created by potrace 1.16, written by Peter Selinger 2001-2019
</metadata>
<g transform="translate(0.000000,82.000000) scale(0.100000,-0.100000)"
fill="#000000" stroke="none">
<path d="M377 783 c-4 -3 -7 -32 -7 -64 0 -48 -3 -57 -20 -62 -16 -4 -20 -14
-20 -51 0 -25 -1 -46 -2 -46 -12 1 -102 31 -124 43 -40 20 -151 20 -159 0 -3
-9 -1 -21 4 -27 10 -12 7 -324 -4 -428 -5 -47 -4 -68 4 -68 6 0 13 10 15 23
19 86 26 132 26 157 0 23 7 33 30 45 16 8 40 15 54 15 14 0 28 5 32 11 6 10
24 9 101 -7 36 -7 44 -29 30 -79 -34 -120 -37 -139 -27 -149 8 -8 20 -6 43 8
77 44 158 66 243 66 77 0 84 -2 84 -20 0 -11 5 -20 10 -20 6 0 10 7 10 15 0 9
7 18 16 22 10 4 13 13 9 32 -10 45 11 60 105 72 113 14 430 4 442 -13 4 -7 8
-59 8 -115 0 -81 3 -103 14 -103 19 0 25 30 31 147 7 137 12 162 44 266 39
124 46 173 25 181 -23 9 -107 7 -122 -2 -8 -5 -11 -26 -10 -58 l3 -49 -140 -5
c-93 -3 -178 0 -252 9 -128 17 -125 13 -93 106 26 75 26 75 -12 75 -52 0 -78
-11 -78 -31 0 -46 -159 -2 -239 66 -53 46 -62 50 -74 38z m74 -109 c12 -14 11
-16 -5 -13 -11 2 -21 10 -24 17 -5 17 13 15 29 -4z m222 -60 c13 -4 17 -14 15
-32 -3 -27 -65 -81 -134 -118 -30 -17 -33 -16 -62 4 -33 24 -57 28 -68 11 -8
-14 -9 -117 -1 -125 3 -4 17 3 31 13 17 13 42 20 79 22 51 1 55 0 86 -39 18
-23 34 -48 35 -56 1 -8 10 -20 19 -26 9 -7 15 -22 12 -33 -2 -11 -4 -23 -4
-26 -2 -17 -192 9 -254 34 l-35 15 2 139 c1 118 5 144 22 178 16 31 28 41 55
47 35 6 169 1 202 -8z m687 -32 c0 -26 -30 -126 -42 -137 -2 -2 -5 25 -6 61
-1 36 -4 69 -7 75 -4 5 4 13 17 18 35 15 38 13 38 -17z m-1250 -63 c0 -24 -4
-38 -10 -34 -17 10 -11 75 7 75 2 0 3 -18 3 -41z m219 -4 c16 -16 27 -140 13
-149 -12 -7 -203 41 -217 55 -6 6 -3 25 6 52 14 37 20 43 53 48 20 3 39 9 43
12 10 10 86 -4 102 -18z m359 -42 c-2 -31 -7 -39 -25 -41 -24 -4 -24 6 0 56
16 34 29 26 25 -15z m402 5 c80 0 151 1 159 3 17 5 31 -57 28 -123 l-2 -43
-185 3 c-192 2 -233 5 -312 24 l-47 12 5 45 c11 98 2 90 112 85 53 -3 162 -5
242 -6z m-470 -17 c0 -12 -20 -25 -27 -18 -7 7 6 27 18 27 5 0 9 -4 9 -9z
m-130 -41 c0 -5 -9 -10 -21 -10 -11 0 -17 5 -14 10 3 6 13 10 21 10 8 0 14 -4
14 -10z m187 -32 c5 -7 7 -24 4 -37 l-7 -24 -15 24 c-16 24 -15 49 1 49 4 0
12 -6 17 -12z m-249 -197 c10 -6 5 -11 -19 -20 -37 -13 -47 -8 -29 14 14 17
29 19 48 6z"/>
</g>
</svg>
