<?xml version="1.0" standalone="no"?>
<!DOCTYPE svg PUBLIC "-//W3C//DTD SVG 20010904//EN"
 "http://www.w3.org/TR/2001/REC-SVG-20010904/DTD/svg10.dtd">
<svg version="1.0" xmlns="http://www.w3.org/2000/svg"
 width="135.000000pt" height="91.000000pt" viewBox="0 0 135.000000 91.000000"
 preserveAspectRatio="xMidYMid meet">
<metadata>
Created by potrace 1.16, written by Peter Selinger 2001-2019
</metadata>
<g transform="translate(0.000000,91.000000) scale(0.100000,-0.100000)"
fill="#000000" stroke="none">
<path d="M449 848 c11 -29 -3 -68 -24 -68 -8 0 -15 -4 -15 -10 0 -5 6 -10 13
-10 9 0 12 -20 11 -68 -1 -126 -30 -112 -33 16 -1 71 -25 66 -29 -6 -3 -50 -4
-52 -33 -52 -49 0 -153 53 -184 94 -43 57 -61 49 -68 -31 -5 -45 -14 -77 -27
-95 -19 -26 -20 -40 -18 -195 2 -122 6 -167 16 -171 8 -2 12 10 12 45 0 59 7
71 51 83 38 11 164 13 221 4 33 -6 38 -11 44 -40 6 -35 -8 -185 -21 -216 -10
-25 11 -23 45 5 15 12 36 28 46 35 11 7 4 5 -14 -4 -19 -8 -36 -13 -39 -10 -3
3 1 28 8 55 14 57 27 62 85 35 41 -20 42 -29 7 -48 -41 -22 -9 -19 38 4 44 21
84 18 129 -7 22 -12 31 -12 65 0 l40 14 -33 7 c-31 7 -33 10 -30 44 3 36 5 37
53 47 53 10 328 11 368 1 21 -5 24 -11 24 -58 0 -55 11 -152 19 -178 11 -32
21 13 23 103 4 189 14 233 82 369 22 43 39 82 39 86 0 5 -30 12 -67 16 -71 7
-83 2 -83 -41 0 -25 -1 -25 -96 -23 -68 1 -136 16 -232 51 -65 23 -66 25 -47
72 6 14 2 17 -26 17 -28 0 -30 -2 -17 -12 14 -12 12 -20 -11 -78 l-25 -65 -7
45 c-4 25 -8 64 -8 88 -1 25 -6 44 -13 46 -70 22 -115 45 -158 82 -58 49 -95
59 -81 22z m70 -65 c23 -15 23 -17 6 -30 -25 -18 -30 -17 -43 11 -17 38 -1 46
37 19z m136 -49 c9 -4 14 -69 17 -252 3 -136 4 -249 2 -251 -5 -6 -70 14 -176
52 l-88 32 0 60 c0 67 17 153 50 263 19 64 27 75 59 92 34 19 93 20 136 4z
m-491 -58 c28 -22 29 -24 10 -34 -10 -5 -30 -12 -44 -13 -21 -4 -25 0 -22 21
6 57 14 61 56 26z m187 -62 c22 -11 27 -22 32 -69 7 -67 -1 -121 -19 -136 -28
-23 -246 33 -252 65 -4 17 34 122 49 140 23 26 139 26 190 0z m939 2 c0 -15
-78 -145 -83 -139 -13 12 -7 51 9 67 14 15 14 17 0 32 -30 29 -18 44 36 44 21
0 38 -2 38 -4z m-465 -17 c11 -17 0 -20 -21 -4 -17 13 -17 14 -2 15 9 0 20 -5
23 -11z m-725 -68 c-13 -51 -30 -53 -30 -4 0 39 32 90 38 60 2 -9 -2 -34 -8
-56z m926 30 c67 -5 127 -12 133 -15 7 -5 11 -47 11 -113 l0 -106 -92 7 c-146
11 -177 16 -259 46 -71 25 -79 26 -94 11 -16 -15 -17 -12 -10 54 4 39 13 84
20 100 l12 31 79 -4 c43 -2 134 -7 200 -11z m-231 -208 c38 -18 31 -33 -17
-33 -30 0 -43 13 -34 35 7 19 8 19 51 -2z"/>
</g>
</svg>
