<?xml version="1.0" standalone="no"?>
<!DOCTYPE svg PUBLIC "-//W3C//DTD SVG 20010904//EN"
 "http://www.w3.org/TR/2001/REC-SVG-20010904/DTD/svg10.dtd">
<svg version="1.0" xmlns="http://www.w3.org/2000/svg"
 width="104.000000pt" height="87.000000pt" viewBox="0 0 104.000000 87.000000"
 preserveAspectRatio="xMidYMid meet">
<metadata>
Created by potrace 1.16, written by Peter Selinger 2001-2019
</metadata>
<g transform="translate(0.000000,87.000000) scale(0.100000,-0.100000)"
fill="#000000" stroke="none">
<path d="M204 762 c-8 -21 -19 -47 -24 -58 -5 -14 -21 -24 -43 -28 -51 -10
-60 -26 -52 -93 10 -83 7 -302 -5 -343 -16 -55 -13 -70 13 -70 15 0 29 9 38
27 9 17 37 36 77 55 35 15 66 28 69 28 3 0 3 -20 1 -45 -4 -33 -2 -45 8 -45
12 0 16 8 28 63 4 15 13 27 20 27 8 0 16 5 18 12 5 14 418 12 433 -3 5 -5 11
-67 12 -137 2 -91 6 -127 15 -127 18 0 26 41 27 147 1 57 7 113 15 135 8 21
17 66 20 101 5 53 55 229 85 297 19 44 31 76 31 84 0 13 -161 13 -176 0 -8 -6
-14 -24 -14 -40 0 -35 -24 -59 -58 -59 -34 0 -190 18 -271 31 -35 5 -91 22
-125 36 -34 14 -76 29 -94 33 -32 8 -34 7 -48 -28z m721 -14 c3 -7 -14 -74
-38 -148 l-44 -135 -2 138 c-1 76 0 141 3 145 8 13 76 13 81 0z m-658 -19 c22
-8 24 -12 13 -19 -35 -22 -79 -2 -53 23 8 9 7 9 40 -4z m325 -61 c122 -10 171
-17 182 -28 11 -11 15 -46 16 -145 1 -72 1 -139 1 -149 -1 -18 -9 -19 -198
-12 -109 4 -216 10 -238 14 -39 7 -40 9 -37 45 2 20 23 85 47 144 24 60 41
111 38 116 -5 9 -91 -1 -115 -14 -23 -12 -32 -82 -23 -186 l7 -86 -38 6 c-64
11 -86 16 -92 21 -12 13 73 249 96 269 15 12 114 24 162 20 14 -1 100 -8 192
-15z m-419 -25 c2 -5 -4 -28 -14 -53 l-18 -45 0 46 c-1 25 2 49 6 52 9 9 21 9
26 0z m174 -40 c-3 -5 -10 -28 -17 -52 -15 -56 -35 -42 -25 18 5 32 11 41 26
41 11 0 18 -3 16 -7z m-146 -274 c19 -6 41 -13 49 -16 9 -3 -8 -16 -45 -34
-33 -16 -63 -29 -67 -29 -5 0 -8 16 -8 35 0 28 13 48 36 55 1 0 16 -5 35 -11z"/>
</g>
</svg>
