<?xml version="1.0" standalone="no"?>
<!DOCTYPE svg PUBLIC "-//W3C//DTD SVG 20010904//EN"
 "http://www.w3.org/TR/2001/REC-SVG-20010904/DTD/svg10.dtd">
<svg version="1.0" xmlns="http://www.w3.org/2000/svg"
 width="89.000000pt" height="80.000000pt" viewBox="0 0 89.000000 80.000000"
 preserveAspectRatio="xMidYMid meet">
<metadata>
Created by potrace 1.16, written by Peter Selinger 2001-2019
</metadata>
<g transform="translate(0.000000,80.000000) scale(0.100000,-0.100000)"
fill="#000000" stroke="none">
<path d="M533 685 c-29 -28 -53 -59 -53 -68 0 -39 -188 -24 -265 22 -48 28
-63 27 -77 -6 -16 -37 -14 -35 -42 -38 -14 -2 -30 -6 -35 -10 -16 -9 -14 -418
2 -412 8 2 11 23 9 65 -4 70 10 85 68 73 33 -6 35 -9 38 -51 5 -69 22 -74 22
-7 0 50 2 57 20 57 19 0 33 -41 27 -84 -1 -10 4 -21 11 -23 9 -3 12 11 12 51
0 55 0 56 30 56 29 0 29 0 32 -67 2 -40 8 -68 15 -70 8 -3 11 15 10 62 -1 48
3 69 13 75 26 17 35 5 41 -52 3 -31 15 -69 26 -84 11 -16 25 -42 32 -59 12
-31 49 -81 54 -74 2 2 17 31 33 63 17 36 30 53 32 43 8 -40 32 -8 32 42 0 29
72 108 127 139 117 64 114 62 104 80 -5 10 -55 58 -110 108 -59 53 -100 97
-101 109 0 11 -7 29 -15 39 -8 11 -15 32 -15 48 0 39 -16 33 -77 -27z m57 -7
c0 -7 3 -23 6 -36 6 -21 4 -22 -22 -16 -45 11 -47 14 -23 40 25 26 39 31 39
12z m-416 -69 c-3 -5 -10 -7 -15 -3 -5 3 -7 10 -3 15 3 5 10 7 15 3 5 -3 7
-10 3 -15z m381 -5 c11 -5 13 -9 5 -14 -15 -9 -61 0 -54 11 6 11 26 12 49 3z
m-132 -38 l42 -1 7 -109 c4 -61 6 -112 3 -114 -2 -3 -11 -2 -20 1 -12 5 -15
24 -15 92 0 69 -3 85 -15 85 -12 0 -15 -17 -15 -90 l0 -90 -26 0 -26 0 5 95
c2 55 0 98 -5 101 -21 13 -31 -19 -32 -103 -1 -87 -1 -88 -26 -88 -22 0 -25 5
-28 42 -2 23 2 68 7 99 13 66 7 82 -21 57 -18 -16 -20 -26 -14 -86 8 -84 0
-117 -26 -117 -18 0 -19 6 -14 98 8 159 -2 144 94 136 46 -4 102 -7 125 -8z
m215 -2 c24 -17 30 -36 8 -28 -8 3 -24 1 -35 -5 -19 -11 -21 -22 -23 -148 l-3
-137 -33 -10 c-18 -5 -35 -6 -39 -2 -4 4 -1 28 6 54 8 26 17 74 21 107 6 57
55 185 69 185 4 0 17 -7 29 -16z m-473 -112 l6 -112 -28 0 c-55 0 -58 9 -33
106 21 86 38 130 45 122 2 -2 6 -54 10 -116z m380 98 c8 -13 -24 -110 -36
-110 -5 0 -9 27 -9 60 0 53 2 60 19 60 11 0 23 -5 26 -10z m-445 -22 c0 -13
-5 -30 -10 -38 -7 -11 -10 -5 -10 23 0 20 5 37 10 37 6 0 10 -10 10 -22z m542
-60 c-16 -41 -17 -42 -20 -15 -4 37 4 57 22 57 12 0 12 -6 -2 -42z m115 -9
c28 -28 49 -56 47 -63 -10 -22 -152 -116 -176 -116 -18 0 10 127 42 191 11 21
24 39 28 39 4 0 31 -23 59 -51z m-277 -194 c0 -43 -1 -45 -20 -35 -20 10 -28
58 -13 73 20 20 33 4 33 -38z m99 -72 c-27 -72 -60 -102 -73 -67 -17 45 13 94
59 94 22 0 24 -2 14 -27z"/>
</g>
</svg>
