<?xml version="1.0" standalone="no"?>
<!DOCTYPE svg PUBLIC "-//W3C//DTD SVG 20010904//EN"
 "http://www.w3.org/TR/2001/REC-SVG-20010904/DTD/svg10.dtd">
<svg version="1.0" xmlns="http://www.w3.org/2000/svg"
 width="111.000000pt" height="109.000000pt" viewBox="0 0 111.000000 109.000000"
 preserveAspectRatio="xMidYMid meet">
<metadata>
Created by potrace 1.16, written by Peter Selinger 2001-2019
</metadata>
<g transform="translate(0.000000,109.000000) scale(0.100000,-0.100000)"
fill="#000000" stroke="none">
<path d="M716 1030 c-14 -27 -21 -50 -17 -50 11 0 51 -67 44 -74 -3 -2 -13 -1
-22 4 -9 5 -24 11 -35 14 -11 4 -16 12 -12 22 6 17 -6 12 -36 -14 -28 -23 -21
-39 18 -45 20 -3 50 -17 67 -30 18 -13 53 -35 80 -50 26 -16 47 -31 47 -34 0
-4 -7 -14 -16 -24 -11 -12 -18 -43 -21 -96 -5 -93 12 -81 28 20 11 67 22 88
40 70 7 -7 7 -27 1 -64 -6 -34 -7 -74 -1 -109 5 -30 7 -76 3 -101 -5 -41 -12
-51 -60 -90 -167 -135 -174 -141 -169 -163 5 -22 -39 -86 -51 -74 -7 8 -2 22
18 51 11 14 10 19 0 26 -11 7 -12 42 -7 182 4 96 7 190 7 209 -1 55 20 180 29
180 5 0 9 9 9 20 0 23 2 23 -39 9 -28 -10 -31 -15 -27 -38 10 -47 -4 -55 -85
-47 -129 12 -143 13 -219 26 -41 6 -100 10 -130 8 l-55 -3 1 -80 c5 -284 11
-410 20 -408 5 2 10 20 12 42 3 39 4 40 67 61 54 18 91 22 222 23 l158 2 1
-96 1 -96 -25 5 c-23 4 -24 2 -19 -24 11 -56 37 -138 47 -148 15 -15 30 5 41
54 15 65 74 143 164 215 28 21 73 60 101 85 151 136 183 160 200 153 9 -3 14
2 14 13 0 12 -16 28 -44 42 -64 34 -286 276 -286 312 0 10 -7 31 -15 46 -10
20 -13 43 -9 72 9 58 -9 54 -40 -8z m-546 -302 c-1 -20 -29 -65 -30 -48 0 8
-3 25 -6 38 -5 18 -2 22 15 22 11 0 21 -6 21 -12z m95 -8 c4 -6 -7 -10 -24
-10 -17 0 -31 5 -31 10 0 6 11 10 24 10 14 0 28 -4 31 -10z m235 -13 c78 -2
85 -4 88 -23 3 -20 -3 -21 -95 -27 -190 -11 -315 -9 -311 5 3 7 22 19 43 26
39 13 163 30 180 25 6 -2 48 -4 95 -6z m461 -51 c24 -23 54 -48 67 -55 12 -6
22 -18 22 -25 0 -11 -130 -120 -136 -113 -6 6 -12 195 -7 215 3 12 6 22 8 22
1 0 22 -20 46 -44z m-371 -31 c8 -15 -63 -23 -253 -27 -154 -3 -177 -1 -175
12 3 11 23 16 88 20 142 8 335 6 340 -5z m-5 -44 c8 -14 -41 -20 -210 -25
-132 -4 -217 -17 -203 -31 5 -5 283 10 376 21 48 5 52 4 52 -15 0 -15 -7 -21
-22 -22 -232 -5 -363 -19 -398 -41 -11 -7 -8 -8 10 -3 33 8 382 25 392 19 4
-3 8 -14 8 -25 0 -20 -5 -21 -197 -18 -179 3 -198 1 -201 -14 -3 -12 3 -17 20
-17 18 0 20 -2 8 -10 -8 -5 -25 -10 -38 -10 -18 0 -22 4 -17 19 3 11 1 22 -5
26 -15 9 -13 122 3 132 10 7 118 13 359 21 31 1 59 -2 63 -7z"/>
<path d="M694 783 c-14 -29 -14 -467 0 -453 7 7 14 78 18 188 4 97 10 201 14
230 5 43 4 52 -9 52 -8 0 -19 -8 -23 -17z"/>
<path d="M770 739 c-17 -79 -25 -388 -9 -372 8 8 12 44 11 107 -1 52 5 138 13
192 16 110 6 164 -15 73z"/>
<path d="M806 544 c-9 -24 -7 -134 3 -134 12 0 21 37 21 92 0 48 -13 71 -24
42z"/>
<path d="M688 3 c7 -3 16 -2 19 1 4 3 -2 6 -13 5 -11 0 -14 -3 -6 -6z"/>
</g>
</svg>
