<?xml version="1.0" standalone="no"?>
<!DOCTYPE svg PUBLIC "-//W3C//DTD SVG 20010904//EN"
 "http://www.w3.org/TR/2001/REC-SVG-20010904/DTD/svg10.dtd">
<svg version="1.0" xmlns="http://www.w3.org/2000/svg"
 width="111.000000pt" height="90.000000pt" viewBox="0 0 111.000000 90.000000"
 preserveAspectRatio="xMidYMid meet">
<metadata>
Created by potrace 1.16, written by Peter Selinger 2001-2019
</metadata>
<g transform="translate(0.000000,90.000000) scale(0.100000,-0.100000)"
fill="#000000" stroke="none">
<path d="M204 781 c-6 -30 -25 -41 -76 -41 -40 0 -51 -30 -44 -108 4 -35 8
-68 11 -72 2 -4 9 -59 15 -123 9 -94 8 -131 -4 -201 -8 -48 -18 -91 -21 -96
-14 -22 26 -20 57 3 45 34 113 67 138 67 13 0 20 -7 20 -20 0 -27 10 -25 35 5
24 29 59 31 315 17 91 -6 179 -9 195 -8 29 1 30 -1 33 -48 2 -27 -2 -54 -7
-59 -16 -16 -13 -44 5 -51 26 -10 35 3 33 47 -4 79 22 312 41 362 38 102 70
164 90 175 20 11 21 13 5 30 -14 16 -28 17 -113 13 -111 -6 -368 27 -492 63
-30 8 -71 19 -90 23 -19 4 -54 17 -77 29 -55 29 -62 28 -69 -7z m102 -66 c0
-9 -58 -34 -78 -35 -11 0 -10 28 2 50 8 15 14 16 43 6 18 -6 33 -15 33 -21z
m-136 -17 c0 -7 -9 -31 -19 -53 l-19 -40 -1 46 c-1 25 2 49 6 52 11 12 33 8
33 -5z m390 -27 c47 -5 131 -15 188 -22 l102 -12 0 -74 0 -74 -97 6 c-119 8
-153 12 -161 20 -3 3 4 29 16 58 32 76 31 77 -38 77 l-60 0 6 -69 7 -69 -69 5
c-86 7 -104 16 -104 52 0 30 -33 81 -45 69 -4 -4 -7 -80 -6 -170 0 -90 -3
-169 -8 -177 -7 -10 -19 -12 -47 -6 -22 4 -52 8 -67 8 l-29 0 5 141 c2 78 7
150 10 161 3 11 6 23 6 26 1 7 94 45 141 57 39 11 125 8 250 -7z m414 -39 c7
-12 -16 -84 -36 -113 -17 -24 -18 -24 -33 -4 -25 31 -16 96 15 112 29 15 47
16 54 5z m-384 -30 c-1 -9 -7 -28 -14 -42 l-14 -25 -7 39 c-6 27 -4 41 6 46
17 11 29 3 29 -18z m202 -137 c54 7 57 6 62 -17 10 -46 14 -185 6 -198 -6 -10
-32 -11 -112 -6 -56 4 -119 10 -138 14 -33 7 -35 10 -38 55 -2 33 1 47 10 49
7 0 62 1 122 2 70 1 111 5 113 12 2 7 -39 14 -124 20 -128 9 -128 9 -125 33 1
14 5 27 7 29 12 12 84 17 120 9 22 -4 66 -5 97 -2z m-267 -30 c0 -24 -5 -31
-32 -39 -43 -12 -138 4 -138 23 0 19 90 50 135 48 32 -2 35 -5 35 -32z m9 -97
c3 -13 6 -36 6 -52 l0 -29 -96 6 c-53 3 -99 8 -102 12 -8 7 42 48 83 69 17 9
46 16 66 16 30 0 38 -4 43 -22z m-364 -82 c0 -2 -7 -6 -15 -10 -8 -3 -15 -1
-15 4 0 6 7 10 15 10 8 0 15 -2 15 -4z m65 -16 c18 -7 16 -10 -19 -25 -39 -16
-66 -15 -66 5 0 6 5 8 10 5 6 -3 13 1 16 9 7 17 27 19 59 6z"/>
</g>
</svg>
