<?xml version="1.0" standalone="no"?>
<!DOCTYPE svg PUBLIC "-//W3C//DTD SVG 20010904//EN"
 "http://www.w3.org/TR/2001/REC-SVG-20010904/DTD/svg10.dtd">
<svg version="1.0" xmlns="http://www.w3.org/2000/svg"
 width="129.000000pt" height="78.000000pt" viewBox="0 0 129.000000 78.000000"
 preserveAspectRatio="xMidYMid meet">
<metadata>
Created by potrace 1.16, written by Peter Selinger 2001-2019
</metadata>
<g transform="translate(0.000000,78.000000) scale(0.100000,-0.100000)"
fill="#000000" stroke="none">
<path d="M1103 640 c-29 -32 -53 -63 -53 -69 0 -7 19 -33 43 -59 24 -26 51
-59 60 -74 15 -25 15 -28 -2 -49 -20 -25 -47 -21 -58 8 -4 10 -26 44 -50 75
-24 31 -43 65 -43 75 0 10 11 39 25 64 13 26 21 49 18 53 -4 4 -28 -17 -55
-46 -55 -60 -61 -92 -23 -110 14 -6 25 -15 25 -20 0 -4 16 -26 36 -47 l35 -40
-36 -39 -36 -40 63 -84 c34 -45 67 -86 73 -90 24 -17 13 16 -28 88 -34 58 -43
83 -37 98 8 23 25 24 25 1 0 -13 18 -40 108 -166 16 -21 33 -39 38 -39 18 0 8
29 -31 98 -40 69 -40 72 -26 105 7 19 19 38 25 41 20 13 11 43 -33 110 l-45
66 19 56 c11 31 24 62 30 69 9 11 4 26 -9 24 -3 0 -30 -26 -58 -59z m0 -45
c-3 -9 -8 -14 -10 -11 -3 3 -2 9 2 15 9 16 15 13 8 -4z"/>
<path d="M92 657 c-6 -7 -12 -41 -13 -77 -4 -73 -5 -73 71 -44 66 26 339 30
347 6 4 -10 30 -45 60 -80 29 -35 53 -70 53 -78 0 -7 -16 -24 -35 -36 -19 -13
-35 -26 -35 -30 0 -12 169 -178 181 -178 14 0 -18 53 -65 107 -28 31 -36 47
-28 55 22 22 101 -38 187 -143 18 -22 20 -22 23 -6 2 11 -15 44 -42 78 -25 32
-46 66 -46 74 0 8 10 23 22 34 25 24 33 70 13 77 -28 11 -69 77 -67 107 3 31
35 102 52 112 12 7 14 25 3 25 -5 0 -39 -30 -78 -66 -67 -65 -69 -67 -49 -83
11 -9 39 -41 63 -71 l43 -54 -31 -28 c-39 -34 -55 -28 -48 19 5 26 2 35 -11
40 -25 9 -61 55 -62 79 0 12 7 27 15 34 8 7 15 18 15 25 0 6 14 31 31 54 17
24 28 45 25 48 -3 3 -26 -13 -52 -36 l-46 -41 -142 6 c-153 6 -263 26 -293 53
-26 25 -50 32 -61 18z m88 -89 c0 -4 -15 -11 -32 -16 -34 -9 -46 2 -34 33 4
11 11 11 35 2 17 -6 31 -15 31 -19z m510 -24 c0 -8 -5 -12 -10 -9 -6 4 -8 11
-5 16 9 14 15 11 15 -7z m-110 -10 c0 -9 -5 -14 -12 -12 -18 6 -21 28 -4 28 9
0 16 -7 16 -16z m30 -204 c0 -5 -5 -10 -11 -10 -5 0 -7 5 -4 10 3 6 8 10 11
10 2 0 4 -4 4 -10z"/>
<path d="M805 615 c-72 -75 -72 -75 -14 -142 74 -85 75 -86 34 -122 -19 -17
-35 -32 -35 -34 0 -7 129 -137 135 -137 14 0 1 32 -30 73 -37 49 -43 68 -22
85 9 8 16 4 25 -16 7 -15 27 -44 45 -64 36 -41 61 -73 82 -103 7 -11 17 -17
21 -13 11 11 -16 68 -55 116 -34 43 -34 43 -18 77 9 19 23 35 32 35 27 0 16
46 -20 86 -20 22 -43 52 -51 68 -15 27 -15 32 7 77 12 27 20 51 17 55 -8 7
-98 -85 -98 -100 0 -6 25 -38 55 -71 30 -32 55 -64 55 -71 0 -13 -29 -41 -48
-46 -6 -2 -18 7 -25 18 -6 12 -29 47 -49 78 -21 31 -38 62 -38 69 0 7 12 37
26 66 15 28 24 55 21 58 -3 3 -26 -16 -52 -42z"/>
<path d="M95 438 c-2 -7 -6 -37 -10 -66 -7 -66 8 -74 73 -41 44 23 58 24 217
24 105 0 171 4 173 10 1 6 -21 11 -50 13 -175 8 -312 31 -370 63 -23 12 -28
11 -33 -3z m72 -59 l28 -11 -30 -14 c-41 -18 -55 -17 -55 4 0 34 13 38 57 21z"/>
</g>
</svg>
