<?xml version="1.0" standalone="no"?>
<!DOCTYPE svg PUBLIC "-//W3C//DTD SVG 20010904//EN"
 "http://www.w3.org/TR/2001/REC-SVG-20010904/DTD/svg10.dtd">
<svg version="1.0" xmlns="http://www.w3.org/2000/svg"
 width="114.000000pt" height="66.000000pt" viewBox="0 0 114.000000 66.000000"
 preserveAspectRatio="xMidYMid meet">
<metadata>
Created by potrace 1.16, written by Peter Selinger 2001-2019
</metadata>
<g transform="translate(0.000000,66.000000) scale(0.100000,-0.100000)"
fill="#000000" stroke="none">
<path d="M188 613 c-21 -3 -28 -11 -33 -36 -10 -43 -23 -57 -53 -57 -23 0 -24
-3 -19 -37 19 -122 30 -304 19 -325 -6 -13 -14 -42 -17 -65 -9 -57 9 -63 89
-34 155 58 196 64 456 68 303 4 305 4 305 23 0 12 -27 16 -160 22 -88 3 -195
4 -238 1 -86 -5 -91 -1 -79 57 6 26 14 36 30 38 19 3 22 -1 22 -32 0 -25 4
-36 15 -36 10 0 15 10 15 33 0 31 14 57 32 57 4 0 8 -23 8 -51 0 -43 3 -50 18
-47 13 2 18 15 20 50 2 30 8 48 18 52 24 9 36 -4 29 -31 -7 -29 10 -54 31 -46
9 3 14 20 14 45 0 44 23 50 28 7 6 -51 13 -69 28 -69 12 0 15 6 10 23 -3 12 0
33 7 46 11 22 18 24 88 25 l76 1 7 -85 c4 -46 11 -89 16 -94 19 -19 33 12 36
75 3 76 16 134 60 269 19 57 34 110 34 117 0 9 -22 12 -77 12 -64 -1 -82 -5
-100 -21 -21 -20 -31 -20 -235 -15 -223 7 -345 19 -407 41 -60 22 -65 23 -93
19z m56 -59 c22 -9 10 -24 -20 -24 -15 0 -24 6 -24 15 0 16 17 19 44 9z m796
-12 c0 -20 -33 -102 -41 -102 -15 0 -10 78 7 94 17 17 34 21 34 8z m-658 -29
c-5 -10 -12 -40 -15 -66 -5 -37 -3 -49 8 -54 9 -3 20 -14 26 -25 8 -16 6 -24
-15 -43 -14 -13 -26 -28 -26 -32 0 -16 15 -31 35 -34 24 -5 33 -52 14 -75 -12
-15 -76 -19 -95 -6 -17 10 -10 154 10 227 9 32 16 63 16 67 0 13 -39 9 -72 -8
l-31 -16 8 -76 c9 -81 9 -167 1 -189 -3 -7 -19 -13 -36 -13 -24 0 -33 6 -40
26 -16 40 -12 133 8 204 17 58 23 67 60 88 22 13 60 27 84 31 67 14 70 13 60
-6z m116 -37 c-2 -20 -9 -32 -21 -34 -22 -4 -30 18 -18 51 15 38 43 25 39 -17z
m431 11 c5 -12 7 -25 5 -28 -2 -4 -30 -9 -63 -13 -46 -5 -68 -3 -92 9 -17 9
-40 15 -50 12 -10 -3 -20 1 -23 9 -8 22 -34 16 -38 -8 -2 -13 -10 -23 -18 -23
-8 0 -16 10 -18 23 -4 24 -37 31 -45 10 -3 -10 -7 -10 -20 1 -10 7 -17 17 -17
22 0 4 83 8 185 9 183 0 186 0 194 -23z m-789 -13 c0 -8 -5 -12 -10 -9 -6 4
-8 11 -5 16 9 14 15 11 15 -7z m793 -64 c14 0 17 -9 17 -46 l0 -46 -77 7 c-43
4 -81 9 -85 12 -5 2 -8 17 -8 34 0 25 4 29 28 30 15 0 36 4 47 9 11 5 29 7 40
5 11 -3 28 -5 38 -5z m-433 -50 c0 -32 -15 -38 -44 -17 -23 17 -11 47 20 47
20 0 24 -5 24 -30z m88 3 c-2 -17 -10 -29 -20 -31 -14 -3 -18 3 -18 27 0 25 4
31 21 31 16 0 20 -5 17 -27z m74 2 c4 -19 1 -25 -13 -25 -12 0 -19 7 -19 18 0
38 26 43 32 7z m68 0 c0 -26 -14 -33 -25 -15 -9 14 1 40 15 40 5 0 10 -11 10
-25z m-555 -275 c-42 -20 -58 -18 -48 5 3 10 19 15 47 14 l41 -1 -40 -18z"/>
<path d="M727 24 c-14 -14 -6 -24 19 -24 16 0 24 5 22 13 -5 14 -31 21 -41 11z"/>
</g>
</svg>
