<?xml version="1.0" standalone="no"?>
<!DOCTYPE svg PUBLIC "-//W3C//DTD SVG 20010904//EN"
 "http://www.w3.org/TR/2001/REC-SVG-20010904/DTD/svg10.dtd">
<svg version="1.0" xmlns="http://www.w3.org/2000/svg"
 width="59.000000pt" height="80.000000pt" viewBox="0 0 59.000000 80.000000"
 preserveAspectRatio="xMidYMid meet">
<metadata>
Created by potrace 1.16, written by Peter Selinger 2001-2019
</metadata>
<g transform="translate(0.000000,80.000000) scale(0.100000,-0.100000)"
fill="#000000" stroke="none">
<path d="M273 658 c-87 -84 -81 -80 -138 -113 -27 -16 -59 -37 -69 -47 -20
-18 -20 -18 2 -34 25 -17 87 -82 108 -113 8 -11 11 -27 8 -36 -5 -12 15 -37
68 -88 42 -40 88 -89 103 -110 29 -40 55 -49 55 -19 0 10 -15 44 -34 75 -19
31 -31 59 -26 62 5 3 11 22 15 43 12 73 56 169 123 270 59 91 14 84 -49 -7
-52 -74 -88 -109 -126 -122 -18 -6 -31 -15 -28 -20 4 -5 -3 -9 -14 -9 -12 0
-21 1 -21 3 0 1 -3 25 -6 53 -6 52 -1 71 45 162 9 18 28 45 44 59 28 27 36 53
16 53 -6 0 -40 -28 -76 -62z m-63 -130 c0 -7 -7 -34 -16 -59 l-17 -46 -23 22
c-24 23 -32 55 -14 55 6 0 19 9 30 20 23 23 40 26 40 8z m149 -140 c-7 -13
-20 -47 -28 -76 l-16 -53 -33 34 -33 34 53 41 c61 47 74 51 57 20z"/>
</g>
</svg>
