<?xml version="1.0" standalone="no"?>
<!DOCTYPE svg PUBLIC "-//W3C//DTD SVG 20010904//EN"
 "http://www.w3.org/TR/2001/REC-SVG-20010904/DTD/svg10.dtd">
<svg version="1.0" xmlns="http://www.w3.org/2000/svg"
 width="141.000000pt" height="93.000000pt" viewBox="0 0 141.000000 93.000000"
 preserveAspectRatio="xMidYMid meet">
<metadata>
Created by potrace 1.16, written by Peter Selinger 2001-2019
</metadata>
<g transform="translate(0.000000,93.000000) scale(0.100000,-0.100000)"
fill="#000000" stroke="none">
<path d="M864 838 c-4 -7 -7 -28 -6 -48 2 -28 -4 -41 -29 -64 -23 -22 -29 -34
-24 -50 10 -29 27 -167 22 -172 -8 -9 -120 35 -142 56 -14 13 -29 38 -35 56
-7 19 -18 34 -25 34 -8 0 -26 -22 -41 -50 -31 -57 -28 -56 -175 -41 -53 6
-103 18 -129 31 -23 12 -48 19 -54 17 -16 -7 -30 -149 -15 -158 6 -3 14 -32
18 -64 l8 -57 -45 6 c-25 3 -56 13 -68 21 -40 26 -62 19 -74 -22 -6 -21 -13
-60 -17 -88 l-6 -50 24 21 c59 51 117 82 150 79 41 -3 46 -18 48 -153 1 -70 4
-93 14 -90 8 3 14 39 17 113 5 118 14 134 63 121 25 -6 27 -11 29 -59 1 -50 5
-125 7 -157 1 -10 4 -11 12 -3 7 7 11 46 10 96 -2 111 1 117 55 117 58 0 61
25 3 33 -22 3 -43 8 -46 11 -3 3 3 34 15 68 11 35 19 65 17 67 -2 2 -25 0 -51
-4 l-46 -7 4 -64 c2 -40 0 -64 -7 -65 -13 -2 -49 2 -53 6 -1 1 13 37 33 80 19
43 35 80 35 82 0 3 -18 2 -40 -2 -48 -8 -51 -1 -10 20 33 17 169 30 186 18 17
-12 25 -201 10 -243 -10 -29 -9 -43 3 -77 8 -23 23 -44 33 -46 10 -3 18 -14
18 -26 0 -14 6 -21 20 -21 11 0 20 6 20 14 0 43 89 163 152 206 82 57 98 52
98 -28 0 -32 -5 -39 -30 -50 -30 -14 -30 -14 -30 -93 0 -48 4 -79 10 -79 6 0
30 19 53 43 23 24 74 62 112 85 63 37 85 44 219 67 82 14 154 25 160 25 29 0
-36 29 -79 36 -58 8 -226 66 -261 89 -13 8 -24 25 -24 36 0 25 20 44 133 127
31 24 80 63 107 87 46 41 55 45 102 45 28 0 48 3 44 7 -11 11 -79 32 -88 27
-24 -15 -256 35 -335 72 -59 27 -69 29 -79 12z m109 -68 c5 -4 -11 -10 -34
-14 -47 -7 -54 -4 -45 19 5 13 13 15 38 10 18 -4 37 -11 41 -15z m195 -36 c28
-4 52 -11 52 -17 0 -15 -77 -84 -140 -126 -30 -20 -63 -44 -73 -54 -32 -32
-37 -8 -12 59 14 37 22 70 19 75 -7 11 -64 12 -82 1 -10 -7 -10 -27 -2 -98 9
-80 8 -90 -8 -102 -14 -11 -20 -10 -36 10 -15 19 -17 34 -13 85 10 103 47 152
119 160 24 3 45 7 47 9 6 6 69 5 129 -2z m-195 -99 c-3 -9 -8 -14 -10 -11 -3
3 -2 9 2 15 9 16 15 13 8 -4z m-356 -73 c-9 -2 -18 -11 -20 -20 -3 -10 -5 -7
-6 9 -1 33 8 42 27 26 13 -11 13 -12 -1 -15z m-322 -26 c17 -12 17 -13 -9 -20
-32 -8 -47 -1 -39 19 7 19 24 19 48 1z m373 -15 c10 -6 7 -10 -12 -13 -18 -4
-26 -1 -26 8 0 16 18 18 38 5z m-102 -68 l-15 -28 -1 26 c0 14 6 31 12 37 19
19 21 -3 4 -35z m231 15 c59 -26 57 -48 -11 -93 -56 -37 -112 -59 -120 -47 -7
11 20 80 45 117 26 38 42 42 86 23z m-179 -45 c1 -27 4 -65 8 -85 4 -29 1 -41
-16 -58 -23 -23 -38 -23 -54 2 -7 12 -1 39 24 102 18 47 34 86 35 86 1 0 2
-21 3 -47z m62 38 c0 -6 -4 -13 -10 -16 -5 -3 -10 1 -10 9 0 9 5 16 10 16 6 0
10 -4 10 -9z m-370 -5 c0 -2 -6 -18 -14 -36 -8 -21 -16 -28 -21 -21 -11 18 3
61 20 61 8 0 15 -2 15 -4z m630 -55 c5 -11 10 -47 10 -80 0 -53 -2 -61 -19
-61 -46 0 -51 9 -51 86 0 72 1 74 25 74 14 0 29 -8 35 -19z m155 -45 c39 -13
89 -27 113 -31 42 -7 49 -17 14 -20 -9 -1 -61 -10 -114 -20 -113 -21 -128 -16
-128 45 0 59 10 62 115 26z m-955 -52 c0 -2 -13 -10 -30 -19 -24 -12 -30 -13
-30 -2 0 21 20 35 41 30 10 -3 19 -7 19 -9z m480 -71 c-1 -18 -22 -53 -33 -53
-12 0 -16 33 -7 51 13 24 40 25 40 2z m300 -22 c0 -5 -11 -16 -25 -25 -19 -13
-25 -13 -25 -3 0 7 5 18 12 25 14 14 38 16 38 3z"/>
</g>
</svg>
