<?xml version="1.0" standalone="no"?>
<!DOCTYPE svg PUBLIC "-//W3C//DTD SVG 20010904//EN"
 "http://www.w3.org/TR/2001/REC-SVG-20010904/DTD/svg10.dtd">
<svg version="1.0" xmlns="http://www.w3.org/2000/svg"
 width="65.000000pt" height="66.000000pt" viewBox="0 0 65.000000 66.000000"
 preserveAspectRatio="xMidYMid meet">
<metadata>
Created by potrace 1.16, written by Peter Selinger 2001-2019
</metadata>
<g transform="translate(0.000000,66.000000) scale(0.100000,-0.100000)"
fill="#000000" stroke="none">
<path d="M257 622 c-2 -4 -7 -19 -11 -35 -6 -26 -9 -27 -49 -21 -23 4 -62 15
-86 25 -24 11 -45 18 -45 17 -13 -28 -24 -73 -21 -78 3 -4 33 -1 68 8 82 19
140 11 135 -21 -3 -19 -9 -22 -48 -21 -25 0 -62 4 -82 8 -32 7 -38 5 -38 -8 0
-30 5 -31 86 -28 68 3 82 1 87 -12 10 -24 -14 -30 -97 -22 -66 6 -74 5 -78
-11 -5 -17 3 -18 83 -17 86 1 108 -6 91 -33 -7 -10 -102 -2 -133 11 -20 9 -62
-39 -54 -63 2 -9 -2 -29 -10 -45 -9 -16 -14 -31 -11 -33 2 -2 19 6 39 17 29
17 49 20 109 18 l73 -3 6 -110 c8 -141 8 -137 17 -131 4 2 8 59 9 125 3 149
14 198 51 213 21 9 23 12 10 15 -10 3 -18 9 -18 15 0 6 7 7 18 2 19 -10 155
-14 215 -6 73 9 35 22 -63 22 -70 0 -110 5 -130 15 -27 14 -28 17 -18 47 6 18
24 57 41 86 26 47 27 52 10 53 -93 7 -153 7 -156 1z m123 -29 c1 -12 -74 -172
-80 -173 -3 0 -5 17 -6 38 0 20 -3 61 -7 90 l-6 52 49 0 c28 0 50 -3 50 -7z
m-124 -264 c13 -11 13 -14 -1 -22 -24 -13 -135 6 -135 23 0 21 111 20 136 -1z"/>
<path d="M0 410 c0 -5 5 -10 10 -10 6 0 10 5 10 10 0 6 -4 10 -10 10 -5 0 -10
-4 -10 -10z"/>
</g>
</svg>
