<?xml version="1.0" standalone="no"?>
<!DOCTYPE svg PUBLIC "-//W3C//DTD SVG 20010904//EN"
 "http://www.w3.org/TR/2001/REC-SVG-20010904/DTD/svg10.dtd">
<svg version="1.0" xmlns="http://www.w3.org/2000/svg"
 width="99.000000pt" height="95.000000pt" viewBox="0 0 99.000000 95.000000"
 preserveAspectRatio="xMidYMid meet">
<metadata>
Created by potrace 1.16, written by Peter Selinger 2001-2019
</metadata>
<g transform="translate(0.000000,95.000000) scale(0.100000,-0.100000)"
fill="#000000" stroke="none">
<path d="M0 911 l0 -35 35 34 c19 19 35 35 35 36 0 1 -16 2 -35 1 -33 -1 -35
-3 -35 -36z"/>
<path d="M685 903 c-9 -39 -102 -143 -121 -136 -8 3 -25 -4 -37 -15 -12 -11
-46 -32 -74 -47 -41 -20 -53 -31 -53 -49 0 -20 -4 -22 -32 -18 -18 2 -37 8
-43 12 -5 4 -23 10 -40 14 -16 4 -47 19 -67 33 -40 27 -58 24 -58 -11 0 -37
-25 -52 -62 -38 -39 14 -51 7 -43 -27 4 -14 9 -122 11 -239 1 -117 6 -217 9
-222 13 -20 25 2 25 45 0 65 14 94 50 102 17 3 33 10 36 14 3 5 12 9 20 9 10
0 14 -13 14 -46 0 -38 3 -45 17 -42 14 2 19 16 23 58 l5 55 62 3 c67 3 61 7
124 -70 17 -21 37 -38 44 -38 23 0 24 28 3 55 -23 29 -21 53 13 155 19 59 19
63 3 75 -16 11 -17 18 -6 64 7 29 22 75 34 103 18 43 23 48 33 34 7 -9 20 -16
29 -16 26 0 55 -18 127 -79 36 -31 87 -71 112 -88 26 -18 47 -38 47 -45 0 -7
-31 -33 -68 -58 -37 -25 -87 -61 -112 -81 -25 -19 -70 -51 -100 -70 -30 -20
-74 -47 -97 -62 -32 -20 -43 -34 -43 -52 0 -14 4 -25 9 -25 5 0 21 -25 35 -56
15 -30 32 -54 38 -52 7 3 18 24 26 49 26 80 148 243 217 290 89 61 177 151
130 133 -8 -4 -15 -2 -15 3 0 5 -40 50 -90 99 -108 107 -122 137 -110 225 12
82 12 79 -4 79 -8 0 -17 -12 -21 -27z m-15 -117 c0 -8 -4 -17 -9 -21 -12 -7
-24 12 -16 25 9 15 25 12 25 -4z m-177 -116 c-7 -28 -22 -35 -30 -15 -3 10 0
21 8 26 22 14 28 11 22 -11z m-282 -35 c-1 -15 -24 -12 -29 3 -3 9 2 13 12 10
10 -1 17 -7 17 -13z m204 -41 c15 -6 55 -73 55 -93 0 -6 -23 -22 -50 -36 -28
-14 -56 -36 -62 -50 -9 -20 -16 -23 -47 -18 -20 3 -40 9 -44 13 -10 9 7 105
27 154 14 34 18 36 60 36 24 0 52 -3 61 -6z m-289 -39 c-7 -29 -26 -34 -26 -7
0 18 20 45 28 37 2 -2 2 -16 -2 -30z m94 -61 l0 -86 -47 7 c-27 4 -49 8 -50 9
-5 4 39 130 50 144 5 6 18 12 28 12 17 0 19 -9 19 -86z m240 -79 c-9 -22 -13
-25 -25 -15 -22 18 -18 39 8 49 27 10 31 3 17 -34z m-311 -66 c-15 -9 -32 -2
-24 11 3 5 13 6 21 3 12 -4 13 -8 3 -14z m489 -98 c-12 -16 -36 -48 -53 -71
l-29 -41 -18 23 c-26 34 -19 49 42 85 69 42 90 43 58 4z"/>
</g>
</svg>
