<?xml version="1.0" standalone="no"?>
<!DOCTYPE svg PUBLIC "-//W3C//DTD SVG 20010904//EN"
 "http://www.w3.org/TR/2001/REC-SVG-20010904/DTD/svg10.dtd">
<svg version="1.0" xmlns="http://www.w3.org/2000/svg"
 width="61.000000pt" height="94.000000pt" viewBox="0 0 61.000000 94.000000"
 preserveAspectRatio="xMidYMid meet">
<metadata>
Created by potrace 1.16, written by Peter Selinger 2001-2019
</metadata>
<g transform="translate(0.000000,94.000000) scale(0.100000,-0.100000)"
fill="#000000" stroke="none">
<path d="M430 889 c-76 -86 -84 -93 -125 -127 l-40 -32 -5 -228 -5 -227 -68
-99 c-38 -54 -71 -105 -75 -114 -10 -26 41 18 81 69 18 25 60 69 92 99 33 30
69 64 80 75 37 36 149 117 183 133 44 22 38 42 -24 72 -106 51 -124 87 -112
221 8 87 11 98 49 151 50 72 31 76 -31 7z m-55 -155 c-7 -39 -11 -41 -45 -14
l-25 20 35 29 c39 33 47 26 35 -35z m-20 -104 c10 -11 28 -37 40 -56 l22 -36
-20 -42 c-25 -54 -90 -156 -99 -156 -20 0 -11 179 13 268 13 48 18 50 44 22z
m169 -160 c12 -12 -7 -34 -63 -73 -56 -38 -57 -39 -104 -78 -66 -56 -60 -36
32 105 l44 68 41 -6 c23 -4 45 -11 50 -16z"/>
<path d="M155 691 l-30 -6 1 -75 c0 -41 1 -164 2 -272 1 -109 6 -198 11 -198
9 0 22 119 26 250 2 47 8 98 14 113 6 16 11 40 11 55 0 15 9 50 20 78 25 66
20 71 -55 55z m35 -34 c0 -7 -7 -22 -15 -33 -12 -16 -14 -17 -15 -2 0 23 11
48 21 48 5 0 9 -6 9 -13z"/>
</g>
</svg>
