<?xml version="1.0" standalone="no"?>
<!DOCTYPE svg PUBLIC "-//W3C//DTD SVG 20010904//EN"
 "http://www.w3.org/TR/2001/REC-SVG-20010904/DTD/svg10.dtd">
<svg version="1.0" xmlns="http://www.w3.org/2000/svg"
 width="122.000000pt" height="67.000000pt" viewBox="0 0 122.000000 67.000000"
 preserveAspectRatio="xMidYMid meet">
<metadata>
Created by potrace 1.16, written by Peter Selinger 2001-2019
</metadata>
<g transform="translate(0.000000,67.000000) scale(0.100000,-0.100000)"
fill="#000000" stroke="none">
<path d="M398 663 c6 -2 18 -2 25 0 6 3 1 5 -13 5 -14 0 -19 -2 -12 -5z"/>
<path d="M0 650 c0 -5 5 -10 11 -10 5 0 7 5 4 10 -3 6 -8 10 -11 10 -2 0 -4
-4 -4 -10z"/>
<path d="M280 573 c-9 -2 -23 -25 -33 -52 -11 -33 -24 -50 -38 -54 -18 -5 -21
-11 -15 -39 23 -122 25 -117 -41 -92 -23 9 -53 14 -66 10 -21 -5 -25 -14 -31
-57 -4 -29 -3 -56 1 -60 10 -10 37 -11 111 -3 49 6 52 5 53 -18 4 -74 3 -90
-4 -95 -9 -5 10 -43 22 -43 5 0 11 19 14 42 4 24 9 64 13 90 4 30 11 48 20 48
20 0 25 -16 28 -82 4 -98 35 -83 42 19 3 54 11 68 30 52 10 -8 13 -25 9 -58
-6 -50 7 -83 25 -65 6 6 13 34 17 63 6 55 22 72 48 51 9 -7 13 -29 13 -61 -2
-87 30 -77 40 12 5 40 11 55 25 57 17 3 23 -22 19 -83 -1 -37 6 -49 23 -35 10
8 15 30 15 62 l0 50 148 -8 c81 -4 172 -8 202 -8 l56 -1 2 -60 c3 -73 10 -97
25 -92 7 2 15 38 18 88 4 46 18 129 32 184 22 85 31 104 59 127 l33 28 -25 20
c-22 18 -34 20 -89 14 -36 -3 -76 -13 -90 -22 -28 -19 -96 -21 -321 -10 -187
10 -257 22 -320 55 -30 16 -62 28 -70 26z m56 -73 c26 0 14 -18 -17 -25 -35
-8 -42 -4 -33 19 4 10 13 15 21 12 8 -3 21 -6 29 -6z m754 -69 c0 -5 -5 -32
-12 -60 -12 -53 -27 -67 -30 -28 -2 41 -3 44 -17 70 -8 14 -11 33 -8 42 6 14
9 14 37 0 16 -8 30 -20 30 -24z m-703 -36 c6 -57 -3 -95 -21 -95 -28 0 -36
108 -10 135 21 21 25 16 31 -40z m171 38 c0 -10 4 -48 8 -85 6 -56 4 -68 -8
-68 -38 0 -47 45 -27 126 11 44 28 60 27 27z m406 -3 c21 -16 46 -97 46 -143
l0 -40 -72 7 c-40 3 -122 9 -183 12 -60 3 -117 10 -127 15 -11 6 -17 25 -20
61 -5 74 0 96 26 101 49 9 317 -1 330 -13z m-493 -17 c5 -15 9 -47 7 -72 -3
-38 -6 -46 -23 -46 -18 0 -20 8 -23 73 -2 60 0 72 13 72 8 0 20 -12 26 -27z
m-175 -50 c0 -25 -6 -48 -12 -50 -14 -5 -23 61 -11 82 15 28 25 15 23 -32z
m-155 -83 c28 -16 23 -30 -11 -30 -28 0 -40 17 -23 33 8 9 11 9 34 -3z"/>
</g>
</svg>
