<?xml version="1.0" standalone="no"?>
<!DOCTYPE svg PUBLIC "-//W3C//DTD SVG 20010904//EN"
 "http://www.w3.org/TR/2001/REC-SVG-20010904/DTD/svg10.dtd">
<svg version="1.0" xmlns="http://www.w3.org/2000/svg"
 width="64.000000pt" height="84.000000pt" viewBox="0 0 64.000000 84.000000"
 preserveAspectRatio="xMidYMid meet">
<metadata>
Created by potrace 1.16, written by Peter Selinger 2001-2019
</metadata>
<g transform="translate(0.000000,84.000000) scale(0.100000,-0.100000)"
fill="#000000" stroke="none">
<path d="M302 773 c-8 -13 -18 -15 -58 -8 -119 20 -134 10 -134 -90 0 -41 -3
-75 -7 -77 -12 -5 -43 -76 -43 -99 0 -11 7 -22 15 -25 11 -5 15 -24 15 -81 0
-55 3 -74 13 -71 6 3 13 24 15 48 4 47 25 89 37 71 3 -6 11 -8 17 -5 7 5 8
-26 3 -101 -6 -88 -5 -107 6 -103 8 3 13 14 12 24 -2 10 4 51 12 89 8 39 18
97 22 130 6 47 12 61 27 63 18 4 19 -1 13 -59 -4 -35 -9 -75 -11 -89 -15 -104
-17 -140 -8 -155 7 -14 12 -7 21 36 7 30 17 70 22 89 6 19 9 40 8 45 -4 18 13
86 32 123 l19 37 -6 -45 c-3 -25 -9 -74 -14 -110 -21 -152 -22 -187 -5 -194
19 -7 19 -6 38 115 12 80 41 159 53 146 2 -1 -1 -34 -7 -72 -13 -97 -17 -344
-4 -347 5 -2 15 40 22 94 6 53 19 112 28 130 31 62 99 157 121 169 43 22 37
39 -21 65 -31 13 -69 24 -86 24 -23 0 -29 4 -27 18 2 11 -4 18 -19 20 -13 2
-23 8 -23 14 0 5 -14 23 -31 39 -28 26 -31 35 -33 94 -1 65 -14 84 -34 48z
m-79 -50 c3 -5 -13 -28 -34 -53 l-39 -45 0 41 c0 22 5 45 12 52 13 13 54 16
61 5z m-22 -148 c-6 -24 -11 -59 -11 -78 0 -43 -9 -51 -32 -30 -24 21 -23 55
2 78 11 10 20 26 20 37 0 23 24 62 29 47 1 -5 -2 -30 -8 -54z m307 -96 l32
-11 -33 -43 c-17 -23 -38 -51 -45 -61 -11 -16 -12 -12 -7 30 3 27 5 59 5 72 0
27 5 28 48 13z"/>
<path d="M632 630 c0 -14 2 -19 5 -12 2 6 2 18 0 25 -3 6 -5 1 -5 -13z"/>
</g>
</svg>
