<?xml version="1.0" standalone="no"?>
<!DOCTYPE svg PUBLIC "-//W3C//DTD SVG 20010904//EN"
 "http://www.w3.org/TR/2001/REC-SVG-20010904/DTD/svg10.dtd">
<svg version="1.0" xmlns="http://www.w3.org/2000/svg"
 width="72.000000pt" height="78.000000pt" viewBox="0 0 72.000000 78.000000"
 preserveAspectRatio="xMidYMid meet">
<metadata>
Created by potrace 1.16, written by Peter Selinger 2001-2019
</metadata>
<g transform="translate(0.000000,78.000000) scale(0.100000,-0.100000)"
fill="#000000" stroke="none">
<path d="M483 693 c-41 -5 -54 -28 -44 -75 l8 -35 -173 1 c-199 0 -208 -3
-213 -76 -1 -23 -4 -45 -7 -49 -7 -12 7 -39 22 -39 20 0 18 -6 -16 -62 -17
-26 -30 -59 -30 -73 0 -22 5 -25 38 -26 20 -1 41 -1 46 0 23 5 137 12 201 13
89 2 134 -5 146 -23 5 -8 8 -53 7 -101 -3 -90 1 -104 26 -95 13 5 14 21 9 97
-6 101 -7 101 65 76 38 -14 52 -12 52 5 0 4 -21 15 -47 25 -70 25 -76 32 -68
74 3 19 10 65 15 102 12 87 25 108 68 108 26 0 33 4 30 18 -2 9 -13 18 -26 20
-24 4 -29 21 -11 39 6 6 9 26 7 44 -3 31 -6 34 -38 35 -19 1 -50 -1 -67 -3z
m37 -73 c0 -5 -7 -10 -16 -10 -8 0 -12 5 -9 10 3 6 10 10 16 10 5 0 9 -4 9
-10z m-291 -86 c9 -8 -13 -23 -42 -29 -17 -4 -34 -11 -37 -15 -3 -5 -18 -12
-33 -15 -23 -6 -27 -4 -27 14 0 28 64 61 105 54 17 -3 32 -7 34 -9z m219 -56
c20 -78 23 -106 16 -143 -5 -28 -10 -35 -23 -29 -9 3 -40 13 -69 21 -62 16
-156 58 -191 85 -13 10 -33 18 -45 18 -20 1 -19 2 4 15 14 8 39 14 57 15 17 0
39 7 47 16 9 8 20 13 24 10 5 -3 26 4 48 14 21 11 57 20 80 20 40 0 42 -1 52
-42z m-220 -138 c28 -18 52 -33 52 -34 0 0 -28 -2 -63 -4 -34 -1 -75 -4 -92
-5 -26 -2 -30 2 -33 25 -2 15 4 41 13 57 l16 31 27 -19 c15 -10 51 -33 80 -51z"/>
</g>
</svg>
