<?xml version="1.0" standalone="no"?>
<!DOCTYPE svg PUBLIC "-//W3C//DTD SVG 20010904//EN"
 "http://www.w3.org/TR/2001/REC-SVG-20010904/DTD/svg10.dtd">
<svg version="1.0" xmlns="http://www.w3.org/2000/svg"
 width="172.000000pt" height="99.000000pt" viewBox="0 0 172.000000 99.000000"
 preserveAspectRatio="xMidYMid meet">
<metadata>
Created by potrace 1.16, written by Peter Selinger 2001-2019
</metadata>
<g transform="translate(0.000000,99.000000) scale(0.100000,-0.100000)"
fill="#000000" stroke="none">
<path d="M403 942 c-10 -10 -35 -31 -55 -46 -20 -15 -38 -37 -40 -49 -2 -16
-22 -31 -68 -54 -36 -18 -73 -33 -83 -33 -48 0 -72 -35 -42 -60 21 -17 19 -40
-9 -92 -29 -55 -20 -80 27 -78 49 3 62 1 80 -13 16 -11 10 -19 -57 -75 -41
-34 -83 -62 -93 -62 -22 0 -49 -42 -38 -59 4 -7 25 -23 48 -38 55 -35 133
-109 169 -161 16 -24 35 -41 41 -39 8 2 12 31 12 79 0 131 32 155 188 144 50
-3 92 -7 93 -9 1 -1 -2 -24 -8 -50 -5 -27 -7 -51 -4 -54 3 -3 32 4 64 16 51
19 80 23 201 23 112 0 141 2 141 13 0 8 -10 15 -22 17 -22 3 -23 8 -23 83 -1
44 3 88 8 98 8 19 114 74 123 64 3 -3 11 -40 18 -83 27 -157 27 -156 7 -161
-19 -5 -46 -92 -32 -105 6 -7 124 30 153 48 24 15 198 26 214 14 18 -16 24 12
15 72 -5 29 -6 58 -3 63 4 6 7 30 8 55 0 25 4 62 8 83 l8 37 -98 -1 c-97 -1
-195 15 -178 30 5 4 36 13 69 20 33 7 107 28 165 46 148 46 182 55 224 55 40
0 49 17 14 24 -94 20 -124 23 -138 16 -12 -7 -9 -11 15 -20 29 -11 26 -13 -80
-44 -172 -51 -292 -78 -389 -85 -101 -7 -105 -5 -88 62 8 28 8 45 1 52 -5 5
-56 10 -112 11 -56 0 -110 4 -121 9 -21 9 -36 -8 -36 -42 0 -14 6 -23 15 -23
8 0 15 4 15 8 0 8 3 9 88 18 52 6 54 5 50 -17 -2 -19 -11 -25 -42 -30 -22 -4
-55 -2 -74 3 -19 5 -43 7 -54 5 -18 -5 -19 -2 -14 43 9 76 10 77 89 85 40 5
75 8 79 7 3 -1 80 -6 170 -12 89 -6 190 -15 223 -21 93 -17 245 -23 245 -10 0
6 -17 12 -37 12 -21 1 -49 3 -63 4 -69 8 -341 36 -385 40 -54 4 -294 71 -310
86 -19 19 -35 7 -66 -55 -22 -43 -30 -69 -25 -82 5 -11 9 -37 10 -59 2 -22 6
-106 11 -187 l8 -148 -54 0 c-105 1 -229 39 -229 71 0 7 14 8 38 4 37 -6 38
-6 48 34 8 29 8 42 0 45 -6 2 -3 5 6 5 10 1 24 14 32 29 8 16 22 34 30 41 9 8
16 17 16 22 0 19 -20 7 -62 -36 -58 -59 -101 -75 -131 -48 -12 10 -41 32 -64
47 -61 40 -57 57 16 83 26 9 48 8 102 -3 106 -22 159 -22 173 -1 8 13 8 20 0
25 -6 4 -18 21 -27 38 -9 17 -37 48 -62 69 -52 42 -49 30 -29 168 6 41 -5 48
-33 19z m0 -74 c-7 -41 -8 -42 -28 -35 -18 8 -20 53 -2 60 30 13 36 7 30 -25z
m-12 -95 c135 -119 145 -131 125 -139 -22 -8 -184 31 -239 58 -21 10 -41 26
-44 34 -7 19 63 94 87 94 9 0 41 -21 71 -47z m389 25 c24 -10 24 -11 5 -18
-28 -12 -123 -12 -129 -1 -4 5 -3 17 0 26 5 13 15 15 53 9 25 -4 57 -11 71
-16z m-592 -78 c-13 -20 -38 -28 -38 -12 0 12 23 32 37 32 11 0 11 -4 1 -20z
m472 -34 c0 -14 -4 -28 -10 -31 -6 -4 -10 7 -10 24 0 17 5 31 10 31 6 0 10
-11 10 -24z m-395 -27 c9 -14 4 -18 -25 -21 -16 -2 -25 3 -28 15 -3 12 3 17
22 17 14 0 28 -5 31 -11z m685 -3 c0 -7 -7 -19 -15 -26 -19 -16 -41 1 -32 24
8 20 47 21 47 2z m-786 -77 c-7 -11 -44 -12 -44 -1 0 4 5 13 12 20 13 13 42
-4 32 -19z m532 10 c4 -8 22 -9 53 -4 84 13 126 11 126 -5 0 -17 -52 -29 -136
-29 -50 -1 -58 -4 -64 -23 l-8 -23 -4 24 c-9 47 14 90 33 60z m234 -9 c0 -5
-4 -10 -10 -10 -5 0 -10 5 -10 10 0 6 5 10 10 10 6 0 10 -4 10 -10z m98 -49
c10 -6 5 -11 -19 -20 -40 -14 -39 -14 -39 3 0 22 34 32 58 17z m-152 -12 c12
-21 -15 -32 -90 -37 -64 -4 -76 -2 -76 11 0 27 150 51 166 26z m234 1 c0 -5
-4 -10 -9 -10 -6 0 -13 5 -16 10 -3 6 1 10 9 10 9 0 16 -4 16 -10z m275 -76
l0 -59 -47 -3 c-51 -3 -63 11 -54 63 7 36 22 53 54 58 44 6 47 3 47 -59z
m-1088 30 c2 -6 -10 -14 -27 -17 -34 -7 -33 4 -10 -157 16 -115 19 -151 11
-148 -25 10 -82 90 -85 119 -8 66 30 184 68 211 15 11 38 6 43 -8z m936 4 c-6
-7 -10 -28 -9 -46 1 -40 -19 -55 -63 -46 -26 5 -31 11 -31 35 0 35 41 69 83
69 22 0 27 -3 20 -12z m-345 -45 l-3 -28 -95 0 c-52 0 -102 -2 -110 -5 -9 -3
-16 3 -18 16 -3 18 4 22 50 31 29 6 81 11 116 12 l63 1 -3 -27z m-566 -9 c4
-3 0 -17 -8 -32 -8 -15 -14 -34 -15 -42 0 -8 -7 0 -15 18 -11 26 -12 37 -3 48
12 14 31 18 41 8z m-157 -36 c-4 -13 -9 -40 -12 -60 -3 -21 -8 -38 -12 -38
-16 0 -61 49 -56 61 6 15 64 59 79 59 4 0 5 -10 1 -22z m688 -14 c59 -10 48
-34 -15 -34 -29 -1 -79 -3 -110 -5 -32 -3 -58 -1 -58 4 0 14 29 34 42 29 7 -3
22 -2 33 3 25 10 59 11 108 3z m543 -38 c8 -35 1 -67 -17 -79 -9 -5 -35 -7
-61 -3 -44 7 -46 8 -51 49 -7 51 1 57 70 57 47 0 53 -2 59 -24z m-1042 -2 c22
-9 10 -24 -19 -24 -18 0 -23 4 -19 15 7 16 14 18 38 9z m884 -41 l3 -43 -41 0
c-54 0 -80 15 -80 46 0 29 29 44 80 41 34 -2 35 -4 38 -44z m-350 12 c3 -3 1
-14 -5 -23 -9 -14 -25 -17 -104 -14 -71 3 -97 8 -106 19 -7 9 -11 19 -9 22 5
8 216 4 224 -4z m-268 -75 c-19 -12 -35 3 -26 26 6 17 8 17 24 0 15 -15 15
-18 2 -26z m480 -29 c0 -6 -4 -13 -10 -16 -5 -3 -10 1 -10 9 0 9 5 16 10 16 6
0 10 -4 10 -9z"/>
<path d="M1558 33 c6 -2 18 -2 25 0 6 3 1 5 -13 5 -14 0 -19 -2 -12 -5z"/>
</g>
</svg>
