<?xml version="1.0" standalone="no"?>
<!DOCTYPE svg PUBLIC "-//W3C//DTD SVG 20010904//EN"
 "http://www.w3.org/TR/2001/REC-SVG-20010904/DTD/svg10.dtd">
<svg version="1.0" xmlns="http://www.w3.org/2000/svg"
 width="178.000000pt" height="90.000000pt" viewBox="0 0 178.000000 90.000000"
 preserveAspectRatio="xMidYMid meet">
<metadata>
Created by potrace 1.16, written by Peter Selinger 2001-2019
</metadata>
<g transform="translate(0.000000,90.000000) scale(0.100000,-0.100000)"
fill="#000000" stroke="none">
<path d="M313 852 c-18 -48 -106 -158 -143 -177 -23 -12 -94 -28 -130 -29 -23
-1 -24 -33 -2 -75 l20 -38 -25 -43 c-15 -25 -22 -45 -16 -51 5 -5 35 -10 66
-12 31 -1 57 -5 57 -9 0 -4 10 -10 23 -14 34 -10 75 -42 73 -57 0 -7 27 -39
61 -71 51 -47 63 -54 63 -38 0 12 -4 24 -10 27 -15 9 -12 42 7 73 40 65 127
172 143 177 10 3 30 3 44 -1 70 -17 -13 83 -153 187 -32 24 -53 86 -44 130 6
31 -24 50 -34 21z m-3 -92 c0 -5 -7 -10 -16 -10 -8 0 -12 5 -9 10 3 6 10 10
16 10 5 0 9 -4 9 -10z m26 -85 c63 -29 166 -103 159 -115 -6 -10 -99 -2 -145
12 -19 6 -51 22 -70 34 -58 39 -60 37 -75 -78 -3 -27 -3 -48 2 -48 4 0 30 11
57 25 37 19 65 25 112 25 35 0 65 -4 68 -8 7 -12 -48 -63 -113 -106 -50 -33
-56 -34 -72 -20 -10 9 -32 24 -51 33 -22 12 -43 37 -65 79 l-32 61 32 42 c28
36 105 89 130 89 5 0 33 -11 63 -25z m-228 -70 c-10 -22 -13 -24 -26 -11 -17
17 -8 36 18 36 17 0 18 -3 8 -25z m157 -63 c0 -18 -20 -15 -23 4 -3 10 1 15
10 12 7 -3 13 -10 13 -16z m-168 -47 c7 -20 -2 -29 -21 -22 -9 4 -13 13 -10
22 8 19 23 19 31 0z m260 -120 c-31 -53 -49 -66 -62 -45 -12 19 5 45 48 72 23
14 43 27 44 27 1 1 -12 -24 -30 -54z"/>
<path d="M662 778 c-9 -20 -42 -98 -42 -102 0 0 73 -1 163 -1 175 1 277 -5
487 -28 74 -9 196 -19 270 -23 87 -4 126 -10 110 -15 -66 -20 -137 -39 -160
-44 -14 -2 -65 -14 -115 -25 -156 -35 -276 -51 -334 -44 l-53 7 5 33 c5 30 3
35 -19 40 -13 3 -41 4 -62 1 -68 -9 -246 39 -266 72 -10 15 -56 14 -57 -1 -2
-45 2 -288 6 -308 3 -14 5 -84 6 -157 1 -82 6 -133 12 -133 5 0 34 12 63 26
44 22 72 27 161 31 60 3 115 9 123 14 8 5 10 9 3 9 -8 0 -12 34 -12 115 0 64
-3 120 -6 125 -6 10 29 100 39 100 2 0 2 -25 -1 -55 -6 -62 8 -73 43 -34 35
39 171 96 294 124 41 9 98 21 125 28 73 16 227 66 242 78 7 6 21 9 32 6 10 -2
25 -1 32 4 11 6 15 -1 20 -29 l6 -37 2 42 c0 23 -4 45 -9 48 -6 4 -84 8 -173
9 -153 3 -307 17 -582 51 -139 18 -179 28 -257 67 -69 34 -81 35 -96 6z m67
-66 c-59 -4 -64 -1 -50 27 11 20 11 20 56 -2 l45 -22 -51 -3z m167 -165 c1 -1
4 -13 6 -27 3 -22 -1 -25 -32 -29 -59 -6 -230 20 -230 35 0 23 61 34 160 28
51 -2 95 -6 96 -7z m64 -26 c0 -17 -4 -33 -10 -36 -5 -3 -10 0 -10 7 0 7 -3
23 -6 36 -5 16 -2 22 10 22 11 0 16 -9 16 -29z m-52 -78 c-3 -25 -7 -28 -48
-31 -43 -3 -210 15 -219 24 -16 16 70 32 182 33 l88 1 -3 -27z m202 13 c0 -8
-91 -48 -96 -43 -3 3 -3 15 1 26 5 17 15 21 51 21 24 0 44 -2 44 -4z m-217
-85 c20 -1 24 -41 5 -42 -67 -3 -122 -1 -168 5 -78 10 -90 15 -84 31 7 16 113
24 184 13 25 -4 53 -7 63 -7z m13 -74 c4 -3 8 -17 9 -31 l3 -24 -101 4 c-152
6 -189 12 -185 31 2 9 14 18 27 20 14 2 26 5 28 7 7 6 213 0 219 -7z m9 -81
c7 -2 11 -20 10 -42 l-3 -37 -88 2 c-49 1 -103 9 -123 17 -19 8 -43 12 -53 8
-20 -6 -37 21 -21 37 5 5 45 11 88 14 43 3 80 6 81 8 5 5 94 -1 109 -7z m-210
-106 c-7 -12 -55 -18 -61 -8 -3 5 -3 15 0 23 4 11 11 12 36 4 16 -6 28 -14 25
-19z"/>
</g>
</svg>
