<?xml version="1.0" standalone="no"?>
<!DOCTYPE svg PUBLIC "-//W3C//DTD SVG 20010904//EN"
 "http://www.w3.org/TR/2001/REC-SVG-20010904/DTD/svg10.dtd">
<svg version="1.0" xmlns="http://www.w3.org/2000/svg"
 width="118.000000pt" height="64.000000pt" viewBox="0 0 118.000000 64.000000"
 preserveAspectRatio="xMidYMid meet">
<metadata>
Created by potrace 1.16, written by Peter Selinger 2001-2019
</metadata>
<g transform="translate(0.000000,64.000000) scale(0.100000,-0.100000)"
fill="#000000" stroke="none">
<path d="M952 618 c-7 -7 -12 -18 -12 -24 0 -7 -12 -26 -26 -43 -14 -17 -23
-35 -20 -40 4 -5 39 -31 79 -56 100 -66 109 -75 96 -92 -19 -22 -40 -15 -93
35 -29 26 -64 57 -79 69 -23 19 -27 31 -27 73 0 27 -3 50 -6 50 -8 0 -34 -27
-34 -36 0 -13 -51 -74 -62 -74 -7 0 -8 14 -4 41 4 23 3 39 -3 37 -11 -4 -86
-72 -95 -86 -3 -6 14 -20 39 -32 46 -22 57 -43 29 -54 -27 -10 -40 -7 -68 19
-23 21 -26 29 -20 65 5 32 4 40 -9 40 -9 0 -22 -8 -29 -18 -20 -29 -68 -57
-68 -41 0 8 7 23 15 33 42 56 -8 46 -73 -14 -43 -39 -53 -52 -47 -70 6 -20 4
-21 -52 -18 l-58 3 2 40 c2 22 11 51 21 65 27 37 18 51 -28 44 -37 -6 -38 -5
-32 21 4 23 2 26 -14 22 -11 -3 -47 -13 -81 -23 -66 -18 -73 -24 -48 -44 12
-10 19 -10 27 -2 20 20 28 13 16 -13 -14 -30 -19 -31 -36 -5 -7 11 -19 20 -28
20 -13 0 -15 -7 -10 -33 6 -31 5 -32 -26 -32 -31 0 -33 -2 -35 -40 -1 -22 -5
-61 -8 -87 -7 -43 -6 -48 11 -48 11 0 33 9 49 20 17 11 33 20 37 20 4 0 6 -42
5 -92 -2 -77 1 -93 13 -93 12 0 16 19 21 91 3 49 9 96 13 102 4 7 23 12 41 12
l34 0 3 -102 c2 -67 7 -103 15 -105 12 -4 18 29 27 139 5 72 11 81 47 74 16
-3 52 -1 79 4 55 10 123 -8 134 -36 5 -13 -4 -18 -59 -26 -16 -3 -19 -10 -17
-38 1 -19 9 -41 17 -49 13 -13 16 -10 29 20 8 19 29 42 46 52 30 18 32 18 51
1 23 -21 20 -39 -7 -39 -15 0 -19 -6 -17 -29 1 -16 6 -33 11 -38 10 -10 42 0
42 14 0 16 53 58 100 79 25 11 53 28 63 37 14 13 24 14 45 6 37 -14 52 -7 52
22 0 30 26 42 47 21 14 -14 11 -18 -28 -42 -23 -15 -72 -39 -107 -54 -82 -33
-91 -47 -67 -101 20 -44 48 -51 53 -13 4 25 105 121 177 169 28 18 67 36 88
40 70 12 61 28 -80 150 -22 19 -27 33 -31 83 -5 62 -9 70 -30 49z m-632 -133
c0 -8 -7 -15 -15 -15 -8 0 -15 7 -15 15 0 8 7 15 15 15 8 0 15 -7 15 -15z
m-61 -67 c1 -31 -2 -33 -31 -17 -15 8 -18 17 -13 37 4 15 12 33 18 41 10 11
13 9 18 -10 4 -13 7 -36 8 -51z m611 6 c30 -21 57 -39 59 -41 5 -3 -30 -32
-40 -33 -11 0 -89 84 -89 97 0 20 10 16 70 -23z m-247 -46 c17 -13 34 -24 36
-26 3 -1 -2 -10 -11 -18 -15 -15 -19 -13 -52 20 -20 20 -41 36 -46 36 -6 0
-10 7 -10 15 0 18 34 7 83 -27z m182 -20 c27 -23 33 -33 23 -39 -36 -23 -84 7
-74 45 3 15 8 26 11 26 2 0 20 -14 40 -32z m-675 -13 c0 -8 -7 -15 -15 -15 -8
0 -15 7 -15 15 0 8 7 15 15 15 8 0 15 -7 15 -15z m620 -67 c0 -4 -9 -12 -20
-18 -17 -9 -24 -7 -40 12 -23 27 -25 45 -7 51 13 4 67 -31 67 -45z m80 -88 c0
-5 -5 -10 -11 -10 -5 0 -7 5 -4 10 3 6 8 10 11 10 2 0 4 -4 4 -10z"/>
</g>
</svg>
