<?xml version="1.0" standalone="no"?>
<!DOCTYPE svg PUBLIC "-//W3C//DTD SVG 20010904//EN"
 "http://www.w3.org/TR/2001/REC-SVG-20010904/DTD/svg10.dtd">
<svg version="1.0" xmlns="http://www.w3.org/2000/svg"
 width="172.000000pt" height="86.000000pt" viewBox="0 0 172.000000 86.000000"
 preserveAspectRatio="xMidYMid meet">
<metadata>
Created by potrace 1.16, written by Peter Selinger 2001-2019
</metadata>
<g transform="translate(0.000000,86.000000) scale(0.100000,-0.100000)"
fill="#000000" stroke="none">
<path d="M472 732 c-7 -5 -16 -35 -20 -68 l-7 -59 -75 -3 c-80 -4 -162 9 -222
35 -54 23 -68 13 -68 -47 0 -47 2 -50 22 -46 81 17 126 24 148 23 14 -1 64 3
112 7 l86 8 7 -32 c4 -19 3 -36 -4 -43 -18 -18 -202 -12 -255 8 -44 17 -47 17
-66 0 -11 -10 -20 -31 -20 -47 0 -24 4 -28 28 -29 l27 0 -23 -16 c-12 -8 -22
-26 -22 -39 0 -20 3 -22 23 -15 25 9 100 18 228 27 l87 6 6 -47 c4 -25 4 -60
1 -77 l-7 -30 -102 6 c-55 4 -131 9 -167 12 l-66 6 -16 -41 c-23 -55 -22 -81
2 -81 10 0 24 7 31 15 12 14 71 34 115 39 11 1 25 5 30 8 6 3 48 7 94 9 l85 4
-3 -100 c-1 -55 0 -97 4 -93 13 13 24 85 31 208 4 74 11 128 18 132 6 4 27 8
47 8 46 0 49 -9 49 -154 0 -125 18 -138 20 -16 3 124 9 149 41 165 27 15 41
14 202 0 34 -3 47 -1 47 9 0 14 -28 19 -165 32 -38 4 -75 11 -81 16 -15 12 1
75 49 185 20 44 33 84 30 87 -4 3 -24 6 -45 6 -25 0 -41 5 -44 15 -6 15 -33
21 -35 8 0 -5 -2 -17 -5 -28 -2 -11 -5 -72 -7 -135 l-4 -115 -46 -3 c-49 -3
-62 -16 -27 -27 25 -8 17 -25 -12 -25 -18 0 -20 4 -14 38 8 52 71 238 91 268
l15 24 -54 0 c-30 0 -60 2 -68 5 -7 3 -19 1 -26 -3z m62 -113 c-14 -46 -28
-91 -31 -99 -9 -23 -20 35 -22 112 l-1 67 38 3 c20 2 38 3 40 2 1 -1 -9 -39
-24 -85z m186 56 c0 -14 -55 -115 -63 -115 -8 0 0 96 10 113 5 8 53 10 53 2z
m-569 -85 c6 0 7 -4 4 -10 -10 -16 -45 -12 -45 6 0 11 5 14 16 10 9 -3 20 -6
25 -6z m14 -110 c3 -5 -1 -10 -10 -10 -9 0 -13 5 -10 10 3 6 8 10 10 10 2 0 7
-4 10 -10z m293 -32 c-3 -22 -8 -23 -96 -26 -91 -3 -172 10 -172 28 0 13 34
17 158 19 112 1 113 1 110 -21z m-252 -227 c-8 -12 -66 -35 -73 -28 -15 16 9
37 42 37 20 0 34 -4 31 -9z"/>
<path d="M1467 688 l-34 -52 36 -36 c78 -78 151 -159 151 -168 0 -10 -44 -42
-57 -42 -14 0 -112 135 -138 191 -14 31 -25 73 -25 99 -1 39 -3 43 -13 25 -7
-11 -27 -34 -45 -51 -40 -38 -38 -44 36 -107 30 -25 77 -75 105 -112 l52 -67
-30 -24 c-17 -13 -33 -24 -36 -24 -12 0 -49 79 -39 85 18 11 11 25 -13 25 -17
0 -39 21 -85 84 -63 85 -73 116 -52 157 22 39 -8 17 -43 -33 l-37 -52 38 -22
c22 -13 59 -53 86 -93 41 -59 47 -73 36 -86 -7 -8 -18 -15 -24 -15 -6 0 -40
34 -75 75 -34 41 -66 75 -70 75 -12 0 -43 79 -39 102 5 44 -12 33 -72 -46 -8
-11 -10 -17 -4 -13 11 6 154 -129 162 -153 2 -5 -14 -16 -35 -25 l-38 -16 -47
53 c-26 29 -48 60 -48 69 0 9 -6 22 -14 28 -16 14 -31 64 -28 96 2 19 2 19
-10 1 -7 -10 -23 -31 -35 -46 -24 -30 -30 -50 -13 -50 6 0 33 -21 60 -47 46
-43 49 -49 33 -60 -9 -7 -26 -13 -36 -13 -27 0 -87 47 -81 63 2 7 -2 30 -11
50 -8 20 -15 52 -15 72 0 19 -4 35 -8 35 -8 0 -82 -92 -82 -102 0 -2 29 -35
65 -72 36 -37 65 -71 65 -75 0 -4 -19 -14 -42 -20 -56 -17 -67 -27 -61 -54 12
-48 38 -60 53 -24 5 12 22 36 38 54 27 31 29 32 57 17 17 -8 36 -22 42 -31 11
-14 8 -20 -24 -38 -40 -22 -54 -51 -30 -61 8 -3 28 8 45 25 17 17 37 31 46 31
8 0 16 10 18 22 5 33 51 47 78 23 30 -27 25 -41 -25 -75 -25 -17 -45 -35 -45
-39 0 -5 8 -19 19 -32 l18 -23 19 30 c10 16 35 45 56 65 21 19 38 40 38 47 0
16 57 45 65 32 11 -18 25 -10 25 15 0 28 34 52 53 36 7 -5 20 -23 30 -40 l17
-30 -57 -41 c-32 -23 -70 -44 -85 -47 -16 -3 -28 -10 -28 -16 0 -12 40 -97 45
-97 2 0 15 24 28 53 25 54 80 115 151 168 30 22 42 26 57 18 16 -8 19 -6 19
14 0 27 28 57 57 61 34 5 24 32 -41 106 -64 72 -65 74 -71 147 -4 40 -11 73
-16 73 -5 0 -24 -23 -42 -52z m33 -36 c0 -24 -1 -25 -16 -10 -10 9 -14 24 -10
33 9 23 26 9 26 -23z m-120 -27 c0 -8 -4 -15 -10 -15 -5 0 -10 7 -10 15 0 8 5
15 10 15 6 0 10 -7 10 -15z m-250 -36 c0 -11 -4 -18 -10 -14 -5 3 -7 12 -3 20
7 21 13 19 13 -6z m-230 -61 c0 -5 -7 -8 -15 -8 -15 0 -20 21 -8 33 7 7 23
-11 23 -25z m215 -144 c16 -25 16 -27 -4 -47 l-21 -21 -28 27 -27 28 25 19
c32 25 34 25 55 -6z m166 -14 l24 -20 -28 -25 c-35 -31 -52 -32 -73 0 -18 28
-12 45 17 45 10 0 19 5 19 10 0 16 16 12 41 -10z m-351 -45 c-7 -8 -18 -15
-24 -15 -6 0 -2 7 8 15 25 19 32 19 16 0z m235 -114 c-3 -6 -11 -11 -17 -11
-6 0 -6 6 2 15 14 17 26 13 15 -4z m185 -21 c-24 -15 -37 -11 -16 5 11 8 22
12 25 9 3 -3 -1 -9 -9 -14z"/>
<path d="M147 336 c-38 -36 -35 -50 11 -42 20 3 97 9 170 12 73 4 130 10 125
15 -4 4 -57 13 -118 18 -60 6 -121 13 -135 17 -19 4 -33 -1 -53 -20z"/>
</g>
</svg>
