<?xml version="1.0" standalone="no"?>
<!DOCTYPE svg PUBLIC "-//W3C//DTD SVG 20010904//EN"
 "http://www.w3.org/TR/2001/REC-SVG-20010904/DTD/svg10.dtd">
<svg version="1.0" xmlns="http://www.w3.org/2000/svg"
 width="95.000000pt" height="77.000000pt" viewBox="0 0 95.000000 77.000000"
 preserveAspectRatio="xMidYMid meet">
<metadata>
Created by potrace 1.16, written by Peter Selinger 2001-2019
</metadata>
<g transform="translate(0.000000,77.000000) scale(0.100000,-0.100000)"
fill="#000000" stroke="none">
<path d="M542 676 c-34 -42 -50 -69 -46 -80 6 -15 -10 -36 -88 -118 -32 -33
-39 -34 -63 -8 -12 14 -20 41 -23 80 -2 33 -7 60 -11 60 -4 0 -33 -27 -66 -60
-51 -51 -56 -60 -39 -65 34 -10 88 -42 92 -54 7 -20 -27 -12 -98 24 -38 19
-73 35 -78 35 -13 0 -32 -71 -32 -119 0 -22 2 -41 5 -41 3 0 16 12 29 27 20
23 33 27 90 31 36 2 66 1 66 -4 0 -5 -19 -27 -42 -51 l-42 -42 24 -51 c28 -59
47 -64 56 -13 4 21 14 49 23 63 28 44 64 90 72 90 4 0 34 -26 67 -59 62 -59
89 -111 58 -111 -30 0 -37 -34 -21 -111 18 -83 14 -76 40 -81 16 -2 20 4 26
42 8 53 29 118 58 176 18 37 153 174 170 174 4 0 18 -11 31 -25 23 -24 60 -34
60 -16 0 5 -6 16 -14 23 -7 8 -21 28 -30 46 -9 18 -23 32 -30 32 -25 0 -102
84 -120 130 -10 25 -23 48 -29 52 -7 4 -12 24 -12 45 0 57 -23 51 -83 -21z
m68 -63 c0 -8 -9 -7 -31 4 -29 15 -30 16 -13 34 18 20 18 20 31 -3 7 -13 12
-28 13 -35z m-50 -83 c0 -16 -4 -30 -10 -30 -11 0 -14 43 -3 53 11 12 13 8 13
-23z m-280 -10 c0 -5 -2 -10 -4 -10 -3 0 -8 5 -11 10 -3 6 -1 10 4 10 6 0 11
-4 11 -10z m379 -22 c22 -18 50 -40 63 -50 l23 -16 -60 -57 c-68 -65 -118
-105 -130 -105 -15 0 3 146 25 203 13 31 26 57 30 57 5 0 26 -15 49 -32z
m-161 -10 c13 -41 15 -178 3 -178 -5 0 -21 17 -37 38 -16 20 -37 44 -47 52
-19 15 -18 18 19 68 22 29 42 52 46 52 3 0 11 -15 16 -32z m-339 -67 c11 -7 9
-11 -8 -20 -18 -10 -21 -9 -21 9 0 22 7 25 29 11z m120 -122 c-21 -42 -22 -43
-31 -20 -7 21 -4 28 19 47 15 12 29 21 31 19 2 -2 -7 -23 -19 -46z m258 -147
c-10 -39 -27 -57 -27 -29 0 6 -3 22 -6 34 -5 18 -1 25 17 32 13 5 25 8 26 7 1
-1 -4 -20 -10 -44z"/>
</g>
</svg>
