<?xml version="1.0" standalone="no"?>
<!DOCTYPE svg PUBLIC "-//W3C//DTD SVG 20010904//EN"
 "http://www.w3.org/TR/2001/REC-SVG-20010904/DTD/svg10.dtd">
<svg version="1.0" xmlns="http://www.w3.org/2000/svg"
 width="119.000000pt" height="79.000000pt" viewBox="0 0 119.000000 79.000000"
 preserveAspectRatio="xMidYMid meet">
<metadata>
Created by potrace 1.16, written by Peter Selinger 2001-2019
</metadata>
<g transform="translate(0.000000,79.000000) scale(0.100000,-0.100000)"
fill="#000000" stroke="none">
<path d="M720 751 c-5 -11 -10 -29 -10 -41 0 -12 -10 -25 -25 -32 -13 -6 -28
-20 -31 -32 -9 -26 -133 -149 -182 -180 -17 -10 -150 83 -156 110 -4 13 -3 29
0 37 3 8 1 18 -4 21 -12 7 -127 -99 -119 -111 3 -5 42 -18 86 -28 44 -11 91
-27 103 -37 23 -17 23 -18 -27 -19 -27 -1 -53 -1 -56 -1 -84 11 -151 27 -179
43 -31 19 -35 19 -46 4 -14 -19 -28 -101 -19 -115 4 -6 23 -1 48 12 35 19 62
23 167 26 l125 4 -23 -25 c-13 -14 -44 -30 -69 -36 -44 -12 -45 -13 -39 -44 4
-18 10 -47 13 -65 10 -57 30 -45 83 52 30 55 74 105 93 106 18 0 117 -84 136
-116 14 -23 25 -32 36 -28 10 4 29 -7 52 -31 l37 -38 -34 -16 c-19 -8 -36 -16
-38 -17 -7 -4 25 -118 34 -121 6 -2 25 24 43 58 42 82 131 179 174 189 12 3
26 15 31 26 9 20 146 124 164 124 6 0 12 7 16 15 3 8 17 15 31 15 42 0 30 29
-22 51 -26 11 -50 23 -53 27 -3 4 -34 22 -70 40 -68 33 -124 77 -193 150 -45
46 -61 52 -77 23z m55 -51 c3 -11 11 -20 16 -20 5 0 9 -4 9 -10 0 -16 -50 -12
-56 5 -7 18 2 45 15 45 5 0 13 -9 16 -20z m20 -83 c11 -2 32 -10 48 -17 25
-12 27 -18 27 -69 0 -31 5 -87 10 -124 12 -79 5 -99 -42 -123 l-31 -16 6 161
c6 154 5 161 -13 161 -23 0 -42 -31 -31 -49 5 -7 9 -79 9 -159 2 -140 1 -148
-19 -160 -20 -13 -26 -9 -77 42 l-56 56 2 59 c1 32 9 75 17 94 8 20 15 50 15
67 0 30 16 68 35 83 9 7 30 5 100 -6z m-515 -77 c0 -5 -7 -7 -15 -4 -8 4 -15
8 -15 10 0 2 7 4 15 4 8 0 15 -4 15 -10z m751 -27 c33 -15 58 -32 56 -38 -6
-17 -150 -114 -160 -108 -10 6 -5 143 7 161 11 18 32 15 97 -15z m-441 -89 l0
-76 -40 32 c-22 17 -40 38 -40 47 0 17 53 73 69 73 7 0 11 -28 11 -76z m-450
-3 c0 -11 -39 -21 -45 -11 -2 4 -2 10 2 14 10 9 43 7 43 -3z m194 -123 c-14
-28 -17 -29 -26 -14 -13 24 -3 46 22 46 20 0 20 -1 4 -32z m389 -158 c-7 -25
-22 -35 -35 -22 -6 6 -4 15 7 26 22 22 34 20 28 -4z"/>
<path d="M685 589 c-4 -5 -3 -43 1 -82 4 -40 7 -107 5 -149 -3 -65 0 -78 13
-78 17 0 20 12 35 185 8 92 8 121 -2 127 -17 11 -45 10 -52 -3z"/>
<path d="M125 10 c-3 -5 3 -10 15 -10 12 0 18 5 15 10 -3 6 -10 10 -15 10 -5
0 -12 -4 -15 -10z"/>
</g>
</svg>
