<?xml version="1.0" standalone="no"?>
<!DOCTYPE svg PUBLIC "-//W3C//DTD SVG 20010904//EN"
 "http://www.w3.org/TR/2001/REC-SVG-20010904/DTD/svg10.dtd">
<svg version="1.0" xmlns="http://www.w3.org/2000/svg"
 width="155.000000pt" height="102.000000pt" viewBox="0 0 155.000000 102.000000"
 preserveAspectRatio="xMidYMid meet">
<metadata>
Created by potrace 1.16, written by Peter Selinger 2001-2019
</metadata>
<g transform="translate(0.000000,102.000000) scale(0.100000,-0.100000)"
fill="#000000" stroke="none">
<path d="M636 905 c-40 -63 -53 -75 -75 -75 -31 0 -51 -16 -51 -42 0 -10 -3
-18 -7 -18 -13 1 -48 23 -83 53 -31 27 -33 32 -31 90 l2 61 -58 -64 c-32 -35
-64 -71 -70 -80 -14 -20 -75 -47 -125 -55 -18 -3 -35 -10 -38 -15 -3 -5 -14
-8 -25 -7 -17 2 -20 -4 -18 -31 0 -18 8 -41 17 -51 22 -24 20 -39 -9 -86 -36
-59 -33 -69 15 -45 21 11 50 20 62 20 37 0 123 -36 120 -50 -1 -7 4 -35 12
-64 20 -72 29 -130 32 -210 l2 -69 -24 29 c-23 27 -25 35 -21 116 3 49 3 88 1
88 -1 0 -32 -28 -68 -63 -71 -68 -80 -91 -42 -101 27 -7 94 -69 139 -129 46
-61 59 -51 55 44 l-3 82 50 14 c28 8 54 19 60 24 12 12 75 12 75 -1 0 -5 -14
-10 -30 -10 -26 0 -31 -5 -37 -30 -3 -17 -10 -33 -14 -36 -5 -3 -9 -18 -9 -34
0 -16 -4 -40 -10 -54 -13 -35 6 -44 32 -16 23 24 139 80 168 80 10 0 23 7 30
15 9 11 40 15 123 17 l111 3 9 40 c5 22 7 99 5 172 l-5 132 86 26 c47 15 98
36 113 46 29 21 197 79 227 79 9 0 21 4 27 9 5 5 23 11 39 12 17 2 36 8 44 14
8 5 28 14 45 20 39 13 36 29 -7 32 -37 2 -241 30 -273 38 -12 2 -71 12 -133
20 -135 19 -209 42 -305 95 -41 22 -76 40 -78 40 -1 0 -25 -34 -52 -75z m102
-19 c18 -13 -8 -24 -60 -25 -43 -1 -45 1 -21 33 15 20 21 22 43 13 14 -6 31
-15 38 -21z m152 -77 c0 -12 -5 -16 -14 -13 -20 8 -36 -27 -36 -79 0 -36 -4
-46 -20 -50 -23 -6 -151 17 -180 33 -12 6 -22 10 -23 8 -1 -2 -8 -13 -14 -25
-7 -13 -13 -37 -13 -54 0 -27 3 -31 21 -26 18 5 20 2 15 -18 -3 -13 -9 -31
-13 -41 -6 -15 -2 -16 28 -9 19 5 75 9 124 10 89 0 90 0 90 -25 0 -25 -1 -25
-83 -23 -45 1 -98 5 -118 9 l-36 7 2 -49 c2 -27 -1 -57 -5 -67 -14 -34 8 -40
133 -35 l120 4 7 -59 c3 -33 4 -62 0 -65 -11 -12 -284 -5 -304 7 -13 9 -14 28
-7 286 3 87 14 160 36 236 12 42 33 49 160 49 41 0 81 4 89 9 20 13 41 2 41
-20z m-532 -6 c21 -9 52 -29 70 -45 18 -15 45 -28 59 -28 19 0 24 -3 16 -11
-14 -14 -159 -14 -220 0 -77 19 -82 32 -26 69 58 36 56 36 101 15z m752 -8
c287 -35 320 -44 200 -60 -30 -4 -94 -20 -141 -36 -51 -17 -116 -30 -159 -33
-46 -2 -76 -9 -81 -17 -14 -23 -4 -34 27 -32 25 2 23 0 -11 -11 -38 -12 -40
-12 -45 8 -4 12 -3 41 1 66 4 25 8 67 8 94 l1 49 43 -7 c23 -4 94 -13 157 -21z
m-551 -57 l-13 -23 -6 25 c-5 17 -2 29 9 38 13 11 17 10 19 -2 2 -8 -2 -25 -9
-38z m-405 -7 c3 -4 -3 -16 -13 -25 -22 -20 -40 -4 -21 19 14 17 26 19 34 6z
m36 -57 c0 -21 3 -25 18 -18 9 5 63 7 119 6 62 -2 111 2 124 8 11 7 23 9 26 7
8 -9 -135 -117 -155 -117 -23 0 -111 47 -147 78 -21 18 -24 26 -15 42 15 28
30 25 30 -6z m338 -200 c5 -146 4 -154 -14 -154 -32 0 -98 21 -116 37 -16 14
-15 17 4 54 11 22 18 43 14 46 -3 4 -22 2 -41 -4 -21 -7 -35 -7 -35 -2 0 28
50 101 104 151 50 47 62 54 70 41 5 -9 11 -85 14 -169z m322 136 c0 -18 -6
-20 -72 -19 -40 0 -82 4 -93 8 -19 8 -19 8 0 19 11 6 53 12 93 12 65 0 72 -2
72 -20z m-523 -127 c-11 -25 -27 -21 -27 7 0 12 7 18 19 17 16 -1 17 -5 8 -24z
m505 -33 c32 0 50 -26 27 -41 -8 -5 -52 -7 -99 -5 -47 3 -91 5 -97 5 -7 1 -13
5 -13 9 0 14 93 41 124 36 16 -2 42 -4 58 -4z m-472 -54 c0 -2 -3 -11 -6 -20
-9 -23 -24 -20 -24 4 0 11 7 20 15 20 8 0 15 -2 15 -4z m-137 -106 c-5 -19
-23 -26 -36 -14 -7 8 24 44 34 38 4 -2 5 -13 2 -24z m167 10 c0 -5 -5 -12 -11
-16 -14 -8 -33 11 -25 25 7 11 36 4 36 -9z m169 -99 c10 -7 1 -14 -34 -30 -26
-12 -48 -21 -50 -21 -1 0 0 13 3 30 4 26 8 30 36 30 17 0 37 -4 45 -9z"/>
</g>
</svg>
