<?xml version="1.0" standalone="no"?>
<!DOCTYPE svg PUBLIC "-//W3C//DTD SVG 20010904//EN"
 "http://www.w3.org/TR/2001/REC-SVG-20010904/DTD/svg10.dtd">
<svg version="1.0" xmlns="http://www.w3.org/2000/svg"
 width="91.000000pt" height="92.000000pt" viewBox="0 0 91.000000 92.000000"
 preserveAspectRatio="xMidYMid meet">
<metadata>
Created by potrace 1.16, written by Peter Selinger 2001-2019
</metadata>
<g transform="translate(0.000000,92.000000) scale(0.100000,-0.100000)"
fill="#000000" stroke="none">
<path d="M206 878 c-32 -50 -40 -77 -27 -92 17 -20 8 -32 -30 -40 -31 -6 -31
-6 -24 -56 6 -46 5 -50 -14 -50 -24 0 -30 37 -9 58 8 8 9 12 1 12 -15 0 -63
-58 -63 -76 0 -7 15 -20 33 -28 66 -29 71 -36 58 -96 -12 -54 -7 -77 9 -50 5
8 12 32 15 52 7 40 14 45 33 26 36 -36 -12 -100 -75 -103 -36 -1 -38 -3 -45
-40 -13 -73 -10 -84 27 -107 36 -24 46 -48 20 -48 -15 0 -18 -14 -15 -85 3
-78 20 -98 39 -45 5 17 20 44 32 61 20 29 22 29 40 13 25 -22 35 -11 21 22
-10 21 -9 29 5 49 21 28 41 32 49 10 10 -24 27 -17 20 8 -8 33 33 72 66 62 12
-4 31 -14 40 -22 17 -15 43 -9 33 7 -9 14 9 19 26 7 9 -7 21 -22 28 -34 6 -13
20 -23 30 -23 22 0 51 -30 51 -53 0 -9 7 -17 15 -17 8 0 15 -4 15 -9 0 -18
104 -132 118 -129 9 2 16 17 18 38 8 83 30 150 55 165 5 4 9 16 9 29 0 12 5
27 12 34 9 9 9 15 1 23 -8 8 -18 1 -35 -25 -25 -36 -131 -112 -165 -118 -15
-2 -19 5 -21 44 -3 41 1 54 30 90 18 24 34 45 35 47 1 2 14 -4 27 -13 27 -17
46 -21 46 -8 0 4 -27 29 -60 55 -33 27 -60 52 -60 57 0 4 29 27 65 50 64 41
66 42 85 25 33 -30 36 -7 6 46 -26 47 -27 53 -18 113 6 35 21 91 35 125 14 34
20 61 15 61 -6 0 -27 -17 -47 -38 -20 -21 -58 -56 -86 -77 -27 -22 -62 -54
-78 -72 -15 -18 -50 -45 -76 -61 -47 -29 -47 -29 -82 -12 -43 22 -159 128
-159 145 0 7 -7 18 -15 25 -8 7 -18 30 -21 51 -7 44 -17 49 -38 17z m14 -59
c0 -6 -4 -7 -10 -4 -5 3 -10 11 -10 16 0 6 5 7 10 4 6 -3 10 -11 10 -16z m514
-66 c-8 -59 -9 -60 -34 -38 -25 23 -25 33 2 62 32 34 40 28 32 -24z m-534 -31
c0 -13 -39 -46 -46 -39 -9 9 16 47 31 47 8 0 15 -4 15 -8z m78 -10 c2 -8 -12
-19 -37 -29 -38 -15 -41 -19 -39 -49 3 -42 -8 -53 -29 -31 -16 16 -16 19 2 50
38 65 90 96 103 59z m452 -119 c0 -14 -75 -66 -118 -81 -31 -11 -34 -9 -77 36
-50 52 -55 68 -24 77 11 4 35 19 52 34 65 57 67 56 119 -2 26 -28 48 -57 48
-64z m-375 57 c18 -20 17 -20 -11 -20 -31 0 -54 -32 -54 -77 0 -27 -16 -30
-42 -6 -27 24 -22 51 16 89 39 39 65 43 91 14z m-105 0 c0 -5 -4 -10 -10 -10
-5 0 -10 5 -10 10 0 6 5 10 10 10 6 0 10 -4 10 -10z m170 -55 c0 -8 -6 -15
-14 -15 -8 0 -23 -3 -33 -7 -17 -6 -17 -5 1 15 22 25 46 29 46 7z m-70 -4 c0
-5 -7 -14 -15 -21 -13 -10 -15 -9 -15 9 0 12 6 21 15 21 8 0 15 -4 15 -9z
m103 -42 c-46 -19 -74 -2 -30 18 15 7 26 7 35 0 11 -9 11 -12 -5 -18z m-57
-77 c8 -40 -4 -41 -42 -1 -28 30 -29 31 -9 45 24 18 42 3 51 -44z m124 43 c10
-13 9 -15 -9 -15 -20 0 -26 -9 -22 -38 3 -18 -28 -52 -46 -52 -24 0 -14 48 18
85 35 39 41 41 59 20z m-80 -4 c0 -6 -4 -13 -10 -16 -5 -3 -10 1 -10 9 0 9 5
16 10 16 6 0 10 -4 10 -9z m-200 -15 c0 -3 -4 -8 -10 -11 -5 -3 -10 -1 -10 4
0 6 5 11 10 11 6 0 10 -2 10 -4z m47 -24 c6 -4 11 -22 11 -40 -1 -20 7 -41 20
-55 l22 -23 -29 -17 c-55 -32 -91 -14 -91 47 0 40 29 96 50 96 3 0 10 -4 17
-8z m337 -36 l30 -23 -23 -12 c-12 -7 -29 -10 -36 -7 -18 7 -28 -25 -21 -69 5
-27 2 -35 -9 -35 -23 0 -45 43 -41 81 2 19 4 41 5 50 1 15 33 37 56 38 6 1 23
-10 39 -23z m-429 -16 c-3 -5 -10 -10 -16 -10 -5 0 -9 5 -9 10 0 6 7 10 16 10
8 0 12 -4 9 -10z m175 -15 c21 -22 21 -25 5 -25 -10 0 -24 8 -31 18 -29 38 -9
44 26 7z m128 -19 c2 -10 -1 -23 -8 -30 -17 -17 -44 22 -28 41 14 17 32 12 36
-11z m-304 -43 c20 -21 36 -41 36 -46 0 -4 -11 -13 -25 -19 -34 -15 -66 12
-63 56 1 31 6 46 13 46 2 0 20 -17 39 -37z m424 12 c-10 -23 -13 -24 -21 -9
-6 11 -5 19 4 25 24 15 29 10 17 -16z m-498 -15 c0 -11 -7 -20 -15 -20 -18 0
-19 12 -3 28 16 16 18 15 18 -8z m614 -125 c-7 -19 -14 -44 -14 -55 0 -24 -4
-25 -30 -3 -29 25 -25 48 13 72 44 28 48 26 31 -14z m-564 7 c0 -15 -25 -62
-32 -62 -13 0 -9 58 5 63 19 8 27 8 27 -1z"/>
</g>
</svg>
