<?xml version="1.0" standalone="no"?>
<!DOCTYPE svg PUBLIC "-//W3C//DTD SVG 20010904//EN"
 "http://www.w3.org/TR/2001/REC-SVG-20010904/DTD/svg10.dtd">
<svg version="1.0" xmlns="http://www.w3.org/2000/svg"
 width="73.000000pt" height="68.000000pt" viewBox="0 0 73.000000 68.000000"
 preserveAspectRatio="xMidYMid meet">
<metadata>
Created by potrace 1.16, written by Peter Selinger 2001-2019
</metadata>
<g transform="translate(0.000000,68.000000) scale(0.100000,-0.100000)"
fill="#000000" stroke="none">
<path d="M523 590 c-23 -9 -32 -30 -13 -30 6 0 10 -9 10 -21 0 -15 -5 -19 -17
-15 -10 2 -45 7 -78 11 -33 4 -89 13 -125 21 -95 20 -130 19 -130 -5 0 -26
-17 -36 -60 -36 -41 0 -39 16 -16 -185 9 -74 16 -157 16 -183 0 -33 4 -47 12
-45 8 3 12 30 12 78 1 73 1 74 35 94 28 16 57 20 175 23 201 5 186 15 186
-117 0 -88 3 -110 14 -110 11 0 14 16 14 68 1 63 9 111 47 261 16 65 42 118
78 158 11 13 18 25 16 27 -10 10 -156 15 -176 6z m127 -34 c0 -19 -27 -46 -46
-46 -17 0 -44 23 -44 38 0 14 18 20 58 21 21 1 32 -4 32 -13z m-385 -31 c27
-7 28 -8 10 -15 -11 -5 -32 -9 -47 -9 -22 -1 -28 4 -28 20 0 15 5 19 18 16 9
-3 31 -8 47 -12z m261 -38 c3 -3 8 -39 11 -80 5 -70 4 -75 -16 -82 -11 -3 -25
-4 -29 -1 -5 3 -58 6 -118 7 -72 1 -127 7 -164 19 -50 16 -55 20 -53 45 4 49
27 70 95 88 34 9 83 18 108 19 49 3 158 -7 166 -15z m67 -23 c-4 -10 -9 -12
-15 -6 -12 12 -1 35 12 27 5 -3 6 -13 3 -21z m-453 -4 c0 -11 -4 -20 -10 -20
-5 0 -10 9 -10 20 0 11 5 20 10 20 6 0 10 -9 10 -20z m40 -140 c8 -5 11 -12 8
-16 -10 -9 -38 3 -38 16 0 12 10 13 30 0z"/>
</g>
</svg>
