<?xml version="1.0" standalone="no"?>
<!DOCTYPE svg PUBLIC "-//W3C//DTD SVG 20010904//EN"
 "http://www.w3.org/TR/2001/REC-SVG-20010904/DTD/svg10.dtd">
<svg version="1.0" xmlns="http://www.w3.org/2000/svg"
 width="107.000000pt" height="86.000000pt" viewBox="0 0 107.000000 86.000000"
 preserveAspectRatio="xMidYMid meet">
<metadata>
Created by potrace 1.16, written by Peter Selinger 2001-2019
</metadata>
<g transform="translate(0.000000,86.000000) scale(0.100000,-0.100000)"
fill="#000000" stroke="none">
<path d="M244 798 c-9 -18 -33 -52 -52 -75 -33 -42 -36 -43 -93 -43 -72 0 -79
-10 -69 -100 9 -67 23 -297 21 -338 0 -13 6 -36 14 -52 9 -17 16 -53 18 -82 2
-41 6 -53 20 -56 9 -2 17 2 17 8 0 24 71 164 94 185 13 12 25 26 27 31 2 6 24
25 49 42 25 18 57 42 72 54 27 21 28 21 41 4 13 -17 16 -17 38 -3 13 8 55 28
93 43 68 27 69 27 192 16 197 -17 225 -45 127 -123 -32 -25 -66 -49 -75 -52
-26 -9 -22 -31 10 -45 47 -21 117 -65 125 -79 9 -15 37 -18 37 -4 0 5 -7 15
-16 22 -13 10 -15 28 -12 82 2 37 8 71 14 75 6 4 20 27 32 52 12 25 29 55 38
67 16 22 15 23 -4 23 -12 0 -28 -10 -36 -22 -15 -21 -16 -21 -35 -3 -11 9 -23
26 -26 36 -6 19 76 199 100 219 15 12 21 40 9 40 -3 0 -31 -26 -63 -58 -31
-32 -80 -73 -109 -92 -29 -18 -52 -39 -52 -45 0 -6 11 -21 25 -33 51 -44 29
-46 -150 -15 -93 17 -136 34 -193 77 -41 30 -62 24 -62 -16 l0 -29 -44 32
c-25 17 -48 39 -51 48 -6 15 -34 203 -35 229 0 23 -19 12 -36 -20z m16 -109
c0 -32 -2 -59 -5 -59 -9 0 -65 30 -65 35 0 4 29 58 47 88 12 20 23 -10 23 -64z
m-157 -51 c2 -7 -3 -33 -11 -58 l-16 -45 -9 34 c-5 22 -5 43 2 58 12 25 27 30
34 11z m69 -24 c-2 -10 -8 -20 -12 -22 -5 -2 -6 -78 -3 -170 l6 -167 -37 -17
c-20 -10 -39 -18 -41 -18 -12 0 6 208 26 290 13 52 23 97 24 100 0 3 4 11 9
18 11 19 32 8 28 -14z m724 -78 c-17 -40 -30 -45 -45 -18 -8 14 -4 22 22 44
37 31 44 24 23 -26z m-687 17 c0 -10 -4 -27 -8 -38 -7 -16 -9 -13 -13 18 -3
26 0 37 9 37 7 0 13 -8 12 -17z m129 -41 c38 -26 62 -51 62 -62 0 -17 -24 -38
-144 -127 -51 -37 -70 -34 -59 11 3 12 8 44 12 71 12 82 41 166 54 158 7 -3
40 -26 75 -51z m175 -37 c20 -10 37 -21 37 -24 0 -6 -79 -41 -92 -41 -5 0 -4
72 1 88 1 4 1 4 54 -23z m392 -182 c-4 -10 -10 -30 -13 -45 -5 -31 -18 -35
-47 -12 -20 15 -19 16 15 45 39 33 56 37 45 12z m-760 -103 c-17 -32 -35 -32
-35 0 0 18 12 28 38 29 9 1 9 -6 -3 -29z"/>
<path d="M2 715 c0 -16 2 -22 5 -12 2 9 2 23 0 30 -3 6 -5 -1 -5 -18z"/>
<path d="M4 375 c0 -110 2 -156 3 -103 2 53 2 143 0 200 -1 57 -3 13 -3 -97z"/>
<path d="M2 150 c0 -14 2 -19 5 -12 2 6 2 18 0 25 -3 6 -5 1 -5 -13z"/>
<path d="M2 100 c0 -14 2 -19 5 -12 2 6 2 18 0 25 -3 6 -5 1 -5 -13z"/>
</g>
</svg>
