<?xml version="1.0" standalone="no"?>
<!DOCTYPE svg PUBLIC "-//W3C//DTD SVG 20010904//EN"
 "http://www.w3.org/TR/2001/REC-SVG-20010904/DTD/svg10.dtd">
<svg version="1.0" xmlns="http://www.w3.org/2000/svg"
 width="72.000000pt" height="78.000000pt" viewBox="0 0 72.000000 78.000000"
 preserveAspectRatio="xMidYMid meet">
<metadata>
Created by potrace 1.16, written by Peter Selinger 2001-2019
</metadata>
<g transform="translate(0.000000,78.000000) scale(0.100000,-0.100000)"
fill="#000000" stroke="none">
<path d="M400 733 c-6 -16 -15 -35 -20 -43 -6 -8 -13 -23 -16 -32 -4 -10 -12
-18 -20 -18 -7 0 -29 -9 -48 -21 -28 -16 -34 -26 -34 -51 2 -57 -41 -58 -129
-1 -73 47 -79 45 -86 -29 -6 -67 2 -82 37 -72 10 3 53 12 95 20 69 12 77 11
88 -3 17 -22 17 -133 1 -134 -43 -3 -98 5 -142 22 -60 24 -71 17 -80 -53 -5
-43 -3 -48 13 -48 11 0 21 5 23 11 5 14 101 39 150 39 50 0 62 -24 55 -106 -6
-74 1 -114 18 -114 7 0 22 -16 34 -36 26 -44 41 -36 41 22 0 25 7 61 15 81 18
42 172 203 195 203 9 0 36 21 60 46 39 41 42 47 26 56 -9 5 -32 22 -49 37 -18
14 -51 39 -74 55 -39 26 -93 93 -93 115 0 17 -33 81 -42 81 -5 0 -13 -12 -18
-27z m43 -83 c14 -22 22 -40 18 -40 -8 0 -73 21 -79 25 -5 4 21 55 28 55 3 0
18 -18 33 -40z m26 -83 c63 -29 181 -106 181 -116 -1 -3 -22 -22 -47 -41 -25
-19 -65 -51 -87 -70 -49 -43 -108 -88 -144 -112 -51 -34 -53 -28 -47 100 5
107 20 238 31 270 5 16 25 11 113 -31z m-150 -4 c0 -21 -4 -47 -8 -58 -7 -18
-8 -17 -14 7 -8 30 2 88 14 88 5 0 9 -17 8 -37z m-219 -13 c0 -5 12 -16 28
-24 22 -12 24 -16 10 -21 -34 -13 -63 -1 -66 28 -2 19 1 27 12 27 9 0 16 -4
16 -10z m18 -218 c2 -7 -6 -12 -17 -12 -21 0 -27 11 -14 24 9 9 26 2 31 -12z
m247 -181 c-3 -12 -13 -21 -21 -21 -20 0 -17 38 4 42 23 6 25 3 17 -21z"/>
</g>
</svg>
