<?xml version="1.0" standalone="no"?>
<!DOCTYPE svg PUBLIC "-//W3C//DTD SVG 20010904//EN"
 "http://www.w3.org/TR/2001/REC-SVG-20010904/DTD/svg10.dtd">
<svg version="1.0" xmlns="http://www.w3.org/2000/svg"
 width="109.000000pt" height="99.000000pt" viewBox="0 0 109.000000 99.000000"
 preserveAspectRatio="xMidYMid meet">
<metadata>
Created by potrace 1.16, written by Peter Selinger 2001-2019
</metadata>
<g transform="translate(0.000000,99.000000) scale(0.100000,-0.100000)"
fill="#000000" stroke="none">
<path d="M764 911 c-27 -21 -64 -42 -82 -46 -34 -7 -60 -39 -42 -50 5 -3 14
-3 20 0 19 12 130 -60 130 -85 0 -5 9 -11 19 -15 26 -8 168 -149 176 -174 11
-34 -195 -217 -235 -208 -25 5 -13 45 41 142 27 49 47 95 45 102 -9 23 -145 9
-160 -16 -3 -5 2 -37 12 -72 11 -42 15 -84 12 -124 -4 -52 -8 -60 -29 -65 -31
-7 -53 -40 -31 -48 26 -9 130 -125 147 -165 26 -59 44 -44 48 38 7 167 40 249
134 338 34 32 61 64 61 71 0 21 -50 89 -122 166 -38 39 -69 79 -69 88 -3 43 4
129 12 145 18 32 -35 19 -87 -22z m18 -56 c-13 -28 -30 -33 -39 -10 -7 21 27
59 40 46 7 -7 7 -19 -1 -36z m-2 -317 c-1 -25 -26 -65 -35 -56 -3 3 -9 22 -12
42 -5 34 -4 36 21 36 20 0 26 -5 26 -22z m35 -249 c-9 -30 -19 -60 -21 -66 -6
-21 -31 -15 -48 13 -10 14 -16 29 -14 33 4 10 92 79 96 76 2 -2 -4 -27 -13
-56z"/>
<path d="M170 736 c-4 -13 -14 -42 -20 -65 -10 -36 -17 -45 -56 -61 -24 -11
-44 -23 -44 -27 0 -5 7 -66 15 -137 8 -71 12 -151 9 -178 -6 -44 -5 -48 15
-48 11 0 21 3 22 8 1 12 10 96 14 117 1 11 3 28 4 37 1 20 27 26 152 33 131 8
129 10 129 -152 0 -94 3 -124 12 -121 17 6 26 42 27 105 1 29 8 67 16 85 8 18
24 61 37 95 13 35 28 63 33 63 6 0 28 -23 48 -50 58 -78 96 -56 42 24 -14 20
-25 51 -25 67 0 46 28 133 55 173 38 56 4 46 -68 -19 -33 -30 -78 -63 -99 -72
-44 -20 -48 -34 -13 -53 35 -19 26 -34 -24 -41 -46 -6 -57 -14 -63 -44 -3 -18
-12 -20 -117 -23 l-113 -3 6 26 c13 50 51 118 79 139 23 17 44 20 133 22 59 2
111 7 117 13 14 14 -3 19 -88 24 -62 3 -79 9 -136 46 -37 22 -71 41 -78 41 -6
0 -16 -11 -21 -24z m69 -64 l22 -17 -29 -11 c-39 -15 -58 -4 -43 25 14 26 22
26 50 3z m327 -58 c-3 -9 -6 -22 -6 -30 0 -19 -29 -18 -37 2 -4 11 1 22 12 30
25 19 39 18 31 -2z m-423 -36 c4 -12 -5 -50 -21 -88 -3 -8 -8 8 -11 35 -5 45
1 64 21 65 3 0 8 -6 11 -12z m337 -104 c0 -20 -30 -30 -41 -13 -6 9 -3 18 8
26 18 14 33 8 33 -13z"/>
</g>
</svg>
