<?xml version="1.0" standalone="no"?>
<!DOCTYPE svg PUBLIC "-//W3C//DTD SVG 20010904//EN"
 "http://www.w3.org/TR/2001/REC-SVG-20010904/DTD/svg10.dtd">
<svg version="1.0" xmlns="http://www.w3.org/2000/svg"
 width="105.000000pt" height="75.000000pt" viewBox="0 0 105.000000 75.000000"
 preserveAspectRatio="xMidYMid meet">
<metadata>
Created by potrace 1.16, written by Peter Selinger 2001-2019
</metadata>
<g transform="translate(0.000000,75.000000) scale(0.100000,-0.100000)"
fill="#000000" stroke="none">
<path d="M68 743 c7 -3 16 -2 19 1 4 3 -2 6 -13 5 -11 0 -14 -3 -6 -6z"/>
<path d="M572 665 c-10 -21 -18 -25 -47 -23 -35 2 -61 -11 -37 -19 18 -7 17
-113 -2 -113 -24 0 -80 23 -125 52 -25 15 -48 28 -53 28 -4 0 -17 -18 -28 -39
-10 -22 -25 -41 -32 -43 -9 -3 -9 -28 -2 -102 5 -54 6 -100 1 -103 -10 -6 -63
42 -78 70 -11 19 -3 49 39 155 14 34 22 65 18 69 -3 4 -28 -14 -54 -39 -26
-25 -64 -57 -85 -73 -22 -16 -37 -36 -37 -48 0 -20 164 -192 185 -192 5 0 10
-13 10 -28 -1 -15 5 -27 12 -27 11 0 25 39 35 94 2 11 9 21 16 24 9 3 12 -13
12 -57 0 -34 4 -61 10 -61 10 0 14 12 28 85 l8 40 58 3 c34 2 64 -2 72 -9 22
-18 17 -92 -11 -146 -22 -44 -23 -49 -8 -60 23 -18 29 -16 52 9 31 32 82 46
138 38 26 -4 76 -4 110 1 62 9 93 5 93 -12 0 -16 19 -9 24 9 3 9 10 73 15 142
6 73 21 168 37 228 17 67 23 107 17 113 -6 6 -25 6 -53 0 -63 -14 -199 3 -262
34 -29 14 -55 25 -58 25 -4 0 -12 -11 -18 -25z m195 -61 c37 -5 41 -8 33 -24
-6 -10 -10 -49 -10 -87 0 -81 -8 -113 -26 -113 -16 0 -16 -1 -14 118 1 78 -1
92 -14 92 -13 0 -16 -12 -16 -64 0 -35 -3 -78 -6 -95 -13 -62 -24 -29 -24 69
0 94 -7 118 -27 88 -4 -7 -8 -48 -8 -90 -1 -82 -5 -94 -30 -85 -12 5 -15 24
-15 92 0 47 -4 85 -9 85 -9 0 -21 -57 -21 -107 0 -26 -3 -30 -20 -26 -14 4
-18 12 -15 32 2 14 7 46 10 71 3 24 11 48 18 53 11 7 102 3 194 -9z m163 -18
c0 -7 -6 -20 -13 -30 -18 -24 -28 -2 -16 32 9 23 29 22 29 -2z m-72 -129 c-3
-59 -7 -72 -21 -75 -12 -3 -17 3 -17 19 0 42 24 138 32 132 5 -2 8 -37 6 -76z
m-713 6 c-9 -48 -11 -50 -35 -28 l-21 19 28 22 c15 13 30 23 32 24 2 0 0 -17
-4 -37z m353 12 c2 -1 4 -31 5 -66 l2 -64 -46 -3 c-62 -4 -73 11 -49 66 11 23
15 44 10 47 -6 3 -31 -3 -56 -14 -40 -18 -45 -23 -34 -36 11 -13 10 -19 -3
-33 -28 -27 -40 -2 -21 44 29 71 39 76 119 69 38 -4 71 -8 73 -10z m148 -209
c-5 -37 -12 -56 -21 -56 -8 0 -16 4 -19 9 -6 9 12 119 22 135 13 21 24 -36 18
-88z m136 14 c0 -38 1 -76 2 -82 1 -7 -9 -14 -21 -16 -25 -4 -25 -3 -23 78 1
69 7 90 26 90 11 0 14 -17 16 -70z m82 22 c3 -20 6 -56 6 -79 0 -39 -2 -43
-25 -43 -24 0 -25 2 -25 69 0 38 3 76 6 85 10 25 31 7 38 -32z m-284 9 c0 -49
-12 -91 -26 -91 -10 0 -14 15 -14 53 0 56 4 67 27 67 8 0 13 -11 13 -29z m128
-47 c-2 -44 -7 -59 -18 -59 -14 0 -16 42 -5 102 2 10 4 22 4 28 1 5 6 4 12 -2
5 -5 9 -37 7 -69z m-142 -99 c-19 -14 -36 -12 -36 6 0 5 12 9 28 9 26 -1 26
-1 8 -15z"/>
</g>
</svg>
