<?xml version="1.0" standalone="no"?>
<!DOCTYPE svg PUBLIC "-//W3C//DTD SVG 20010904//EN"
 "http://www.w3.org/TR/2001/REC-SVG-20010904/DTD/svg10.dtd">
<svg version="1.0" xmlns="http://www.w3.org/2000/svg"
 width="165.000000pt" height="78.000000pt" viewBox="0 0 165.000000 78.000000"
 preserveAspectRatio="xMidYMid meet">
<metadata>
Created by potrace 1.16, written by Peter Selinger 2001-2019
</metadata>
<g transform="translate(0.000000,78.000000) scale(0.100000,-0.100000)"
fill="#000000" stroke="none">
<path d="M1044 742 c-6 -4 -26 -29 -44 -57 -19 -27 -59 -76 -89 -108 l-55 -58
23 -15 c33 -23 13 -38 -39 -29 -30 5 -44 13 -47 26 -6 22 -4 22 -37 9 -22 -8
-26 -16 -26 -48 0 -21 5 -43 12 -50 9 -9 9 -12 0 -12 -14 0 -80 36 -97 53 -28
28 -21 104 20 235 12 37 -9 25 -33 -20 -35 -66 -136 -167 -174 -175 l-31 -6 6
54 c4 30 10 65 13 77 6 21 4 23 -17 20 -22 -3 -24 -8 -27 -72 -2 -67 -13 -90
-37 -82 -12 3 -12 100 0 134 6 19 4 22 -19 22 -31 0 -37 -19 -34 -100 3 -50 1
-55 -19 -58 -29 -4 -38 31 -25 95 13 59 8 67 -25 46 -24 -16 -25 -20 -19 -75
4 -35 3 -58 -3 -58 -5 0 -16 -3 -25 -6 -13 -5 -16 7 -18 73 -5 121 -22 90 -28
-49 -5 -127 -1 -150 23 -129 18 14 245 17 259 3 23 -23 -7 -28 -137 -25 -108
2 -142 -1 -160 -13 l-23 -15 -7 94 c-5 72 -3 107 10 156 9 35 14 65 11 68 -2
3 -18 2 -35 -2 -29 -6 -31 -10 -31 -48 0 -23 5 -80 10 -127 6 -47 13 -116 16
-155 3 -38 6 -70 7 -71 1 -1 20 1 42 4 22 4 101 5 175 2 127 -5 135 -6 135
-25 0 -17 -9 -21 -70 -28 -84 -9 -197 -1 -262 18 -26 8 -51 11 -55 7 -4 -4
-11 -29 -14 -55 -7 -52 0 -58 42 -31 17 11 53 18 116 20 50 2 116 8 146 14 83
15 103 13 109 -10 4 -15 11 -19 25 -14 22 7 77 -30 125 -85 37 -43 51 -36 33
18 -21 65 7 167 63 229 27 29 33 28 52 -8 9 -16 23 -30 33 -30 9 0 23 -9 30
-20 14 -23 34 -18 30 8 -4 23 67 30 75 8 8 -19 -51 -66 -81 -66 -39 0 -26 -36
21 -64 24 -14 56 -41 71 -61 43 -56 61 -44 30 21 -14 29 -14 42 -5 82 17 65
50 112 80 112 14 0 33 8 43 17 24 21 33 9 43 -55 4 -24 9 -51 12 -58 9 -24 24
-3 19 24 -3 15 -8 48 -11 75 -5 43 -3 48 20 59 14 6 28 8 31 5 4 -3 6 -38 6
-77 -1 -38 3 -70 8 -70 13 0 24 65 17 99 -7 34 9 58 44 66 23 6 27 3 33 -26 3
-17 6 -56 6 -86 0 -34 4 -52 10 -48 6 3 10 42 10 86 0 78 1 80 23 77 20 -3 23
-12 33 -83 12 -89 30 -83 21 8 -4 38 -1 57 10 69 14 16 18 15 59 -13 24 -17
54 -43 66 -60 12 -16 25 -29 30 -29 18 0 6 39 -23 79 -28 39 -29 45 -18 79 13
43 44 98 71 128 15 17 16 24 7 30 -8 4 -21 -4 -36 -22 -64 -78 -135 -135 -151
-120 -3 3 5 28 18 55 26 56 22 72 -17 62 -31 -8 -40 -32 -42 -103 -1 -44 -3
-48 -26 -48 -21 0 -25 5 -25 29 0 15 10 52 21 80 12 28 20 53 17 56 -2 2 -21
2 -41 -2 l-37 -6 0 -74 0 -74 -32 3 c-28 3 -34 7 -36 31 -2 16 4 44 13 63 24
51 17 67 -35 77 -99 20 -95 22 -91 -63 l3 -75 -20 18 c-26 24 -42 14 -42 -24
0 -41 -26 -35 -53 13 -20 33 -21 41 -9 95 6 32 26 86 43 121 31 60 35 78 13
64z m-944 -142 c0 -5 -4 -10 -10 -10 -5 0 -10 5 -10 10 0 6 5 10 10 10 6 0 10
-4 10 -10z m855 -44 c-8 -39 -16 -44 -34 -22 -8 10 -6 20 10 40 26 33 32 29
24 -18z m-359 -21 c-4 -14 -13 -25 -21 -25 -26 0 -27 21 -4 46 25 27 35 18 25
-21z m554 21 c0 -3 -4 -8 -10 -11 -5 -3 -10 -1 -10 4 0 6 5 11 10 11 6 0 10
-2 10 -4z m40 -62 c0 -55 -3 -65 -16 -62 -34 6 -40 34 -16 83 12 25 24 45 27
45 3 0 5 -30 5 -66z m150 47 c0 -6 -4 -13 -10 -16 -5 -3 -10 1 -10 9 0 9 5 16
10 16 6 0 10 -4 10 -9z m83 -26 c-3 -9 -8 -14 -10 -11 -3 3 -2 9 2 15 9 16 15
13 8 -4z m-1103 -81 c0 -8 -10 -14 -25 -14 -29 0 -35 26 -7 33 22 5 32 -1 32
-19z m80 16 c0 -5 9 -10 20 -10 22 0 27 -15 8 -23 -15 -5 -68 0 -76 7 -8 8 19
36 34 36 8 0 14 -4 14 -10z m90 -11 c-7 -11 -14 -19 -16 -16 -7 7 7 37 17 37
6 0 5 -9 -1 -21z m29 -242 c-20 -16 -24 -16 -31 -3 -15 27 -16 98 -2 132 8 18
14 46 14 61 0 16 8 40 18 53 17 24 17 22 20 -100 3 -119 2 -126 -19 -143z
m395 233 c5 -5 6 -16 3 -24 -5 -12 -20 -16 -59 -15 -66 1 -98 11 -77 25 51 33
108 39 133 14z m585 -1 c-8 -16 -14 -18 -22 -10 -9 9 -8 14 3 21 24 16 31 11
19 -11z m-1259 1 c0 -5 -15 -10 -32 -10 -25 0 -29 3 -18 10 20 13 50 13 50 0z
m349 -176 c-6 -8 -16 -14 -22 -14 -14 0 -3 130 14 160 13 23 14 20 17 -53 2
-50 -1 -84 -9 -93z m421 132 l23 -25 -33 -41 c-17 -22 -36 -38 -41 -34 -19 11
-5 124 16 124 6 0 22 -11 35 -24z m100 4 c0 -13 -5 -18 -15 -14 -16 7 -19 17
-8 27 12 13 23 7 23 -13z m-413 -26 c4 -12 -55 -74 -69 -74 -12 0 -2 64 14 93
8 16 12 17 31 4 11 -7 22 -18 24 -23z m223 -24 c0 -26 -39 -42 -82 -33 -45 8
-68 21 -68 38 0 12 16 15 75 15 69 0 75 -2 75 -20z m-512 -17 c33 -5 46 -36
19 -46 -25 -9 -242 9 -267 23 -23 13 -24 14 -5 21 21 9 199 10 253 2z m205
-136 c-10 -26 -20 -47 -24 -47 -14 0 -30 30 -25 47 5 16 57 56 63 49 2 -2 -5
-24 -14 -49z m319 2 c-5 -11 -11 -20 -15 -20 -4 1 -11 1 -17 1 -17 0 -11 28 8
33 30 8 31 7 24 -14z m-826 0 c10 -17 -13 -36 -27 -22 -12 12 -4 33 11 33 5 0
12 -5 16 -11z"/>
</g>
</svg>
