<?xml version="1.0" standalone="no"?>
<!DOCTYPE svg PUBLIC "-//W3C//DTD SVG 20010904//EN"
 "http://www.w3.org/TR/2001/REC-SVG-20010904/DTD/svg10.dtd">
<svg version="1.0" xmlns="http://www.w3.org/2000/svg"
 width="90.000000pt" height="89.000000pt" viewBox="0 0 90.000000 89.000000"
 preserveAspectRatio="xMidYMid meet">
<metadata>
Created by potrace 1.16, written by Peter Selinger 2001-2019
</metadata>
<g transform="translate(0.000000,89.000000) scale(0.100000,-0.100000)"
fill="#000000" stroke="none">
<path d="M433 837 c-16 -18 -40 -50 -53 -71 -32 -52 -164 -115 -252 -121 -80
-5 -86 -12 -65 -78 22 -70 22 -80 -8 -115 -37 -44 -32 -52 33 -51 61 2 91 -10
151 -59 20 -17 60 -49 89 -71 47 -38 67 -71 42 -71 -29 0 22 -154 55 -167 20
-7 23 -4 30 36 9 51 60 157 99 205 20 24 36 47 36 53 0 5 15 23 33 39 17 16
45 46 62 67 43 53 84 82 98 68 13 -13 37 -15 37 -3 0 16 -104 122 -188 194
-46 39 -99 95 -118 124 -20 30 -40 54 -44 54 -4 0 -21 -15 -37 -33z m45 -57
c12 -20 6 -25 -22 -14 -19 7 -21 34 -3 34 7 0 18 -9 25 -20z m-44 -66 c3 -9 6
-29 6 -45 0 -27 -2 -29 -27 -23 -16 4 -41 12 -58 19 l-30 12 36 16 c20 8 40
20 43 26 10 16 23 14 30 -5z m53 -36 c-3 -8 -6 -5 -6 6 -1 11 2 17 5 13 3 -3
4 -12 1 -19z m103 -15 c14 -9 27 -20 30 -23 3 -3 31 -27 63 -53 l58 -47 -94
-95 c-51 -52 -98 -95 -103 -95 -5 0 -19 7 -31 15 -17 12 -20 21 -14 42 7 25
12 28 51 28 57 0 63 20 9 29 -23 4 -46 9 -50 12 -16 9 3 34 26 34 30 0 55 10
55 21 0 5 -15 9 -32 9 -18 0 -39 4 -47 9 -21 13 -5 41 24 41 16 0 25 6 25 15
0 8 -6 15 -13 15 -21 0 -35 20 -30 41 7 24 40 25 73 2z m-326 -48 c3 -8 12
-15 20 -15 12 0 12 -4 -1 -31 -8 -16 -12 -33 -8 -37 3 -4 37 -5 75 -3 71 3
110 -9 110 -34 0 -16 -32 -14 -125 6 -35 7 -42 6 -58 -13 -30 -35 -17 -42 85
-40 103 1 109 -2 99 -50 -6 -26 -6 -26 -46 -12 -62 21 -136 29 -145 15 -8 -15
-90 73 -90 97 0 9 -6 23 -14 31 -13 14 -12 19 7 41 23 27 67 60 78 60 4 0 9
-7 13 -15z m184 -31 c3 -21 2 -21 -54 -8 -86 20 -93 36 -14 32 58 -3 65 -5 68
-24z m-298 13 c0 -2 -9 -12 -20 -22 -19 -18 -20 -17 -20 3 0 15 6 22 20 22 11
0 20 -2 20 -3z m-10 -133 c0 -8 -9 -14 -20 -14 -22 0 -26 10 -8 28 13 13 28 7
28 -14z m317 -127 c5 -3 10 -21 11 -40 2 -28 -3 -40 -24 -56 -27 -21 -44 -20
-44 4 0 7 -12 24 -27 37 -16 13 -37 34 -48 47 l-20 23 72 -5 c39 -2 75 -7 80
-10z m63 -17 c0 -5 -5 -10 -11 -10 -5 0 -7 5 -4 10 3 6 8 10 11 10 2 0 4 -4 4
-10z m-61 -137 c0 -10 -6 -34 -13 -53 l-13 -35 -16 32 c-22 42 -21 52 6 63 32
13 37 12 36 -7z"/>
</g>
</svg>
