<?xml version="1.0" standalone="no"?>
<!DOCTYPE svg PUBLIC "-//W3C//DTD SVG 20010904//EN"
 "http://www.w3.org/TR/2001/REC-SVG-20010904/DTD/svg10.dtd">
<svg version="1.0" xmlns="http://www.w3.org/2000/svg"
 width="84.000000pt" height="101.000000pt" viewBox="0 0 84.000000 101.000000"
 preserveAspectRatio="xMidYMid meet">
<metadata>
Created by potrace 1.16, written by Peter Selinger 2001-2019
</metadata>
<g transform="translate(0.000000,101.000000) scale(0.100000,-0.100000)"
fill="#000000" stroke="none">
<path d="M734 939 c-16 -17 -44 -39 -61 -51 -18 -11 -33 -25 -33 -32 0 -20
-94 -106 -117 -106 -12 0 -30 -14 -44 -35 -13 -19 -32 -35 -41 -35 -20 0 -43
-32 -53 -72 -5 -18 -14 -28 -26 -28 -42 0 -121 23 -154 46 -42 28 -71 31 -84
7 -11 -22 -26 -133 -17 -133 4 0 23 8 44 19 42 21 205 35 235 19 13 -7 17 -22
17 -74 l0 -65 -67 2 c-66 1 -141 16 -208 40 -44 16 -60 3 -68 -56 -4 -25 -9
-56 -13 -70 -5 -20 -3 -25 14 -25 11 0 25 7 32 14 26 32 101 50 209 51 l106 0
3 -60 c4 -68 -11 -88 -59 -78 -16 3 -29 1 -29 -4 0 -11 60 -176 66 -182 7 -7
44 32 44 47 0 27 61 116 108 159 49 44 67 52 75 31 2 -7 14 6 26 29 11 24 33
50 46 59 24 15 27 15 44 0 26 -24 33 -20 26 14 -5 23 -3 30 9 30 17 0 36 30
36 57 0 23 -74 139 -107 167 -21 19 -24 29 -24 93 0 77 8 100 68 187 47 69 46
86 -3 35z m-99 -150 c-4 -6 -7 -26 -7 -45 0 -43 -7 -47 -38 -24 l-24 18 29 30
c30 29 52 41 40 21z m-78 -115 c39 -30 34 -49 -21 -83 -50 -31 -59 -27 -40 17
9 20 18 43 21 50 3 6 -2 12 -11 12 -27 0 -17 23 13 29 2 1 19 -10 38 -25z
m-97 -52 c0 -5 -7 -17 -15 -28 -14 -18 -14 -18 -15 9 0 17 5 27 15 27 8 0 15
-4 15 -8z m188 -31 c28 -24 28 -39 0 -68 -23 -25 -64 -31 -71 -10 -6 17 13 81
27 89 15 11 18 10 44 -11z m-458 -11 c18 -11 13 -16 -23 -25 -20 -5 -27 -3
-27 7 0 28 22 36 50 18z m360 -30 c0 -5 -4 -10 -10 -10 -5 0 -10 5 -10 10 0 6
5 10 10 10 6 0 10 -4 10 -10z m-22 -58 l23 -17 -37 -40 c-35 -39 -35 -40 -16
-55 11 -8 34 -23 52 -33 17 -9 30 -22 28 -28 -2 -6 -30 -24 -62 -42 -48 -26
-59 -28 -67 -16 -4 8 -6 21 -4 30 3 9 8 60 10 114 3 53 7 101 10 105 7 11 35
3 63 -18z m245 -34 c5 -17 -21 -48 -40 -48 -5 0 -18 15 -28 33 -14 27 -15 38
-6 56 l12 22 29 -23 c15 -13 30 -31 33 -40z m-140 -19 c12 -6 29 -20 36 -31
11 -18 10 -23 -16 -44 l-28 -23 -29 28 c-27 28 -28 29 -11 55 20 30 17 29 48
15z m-485 -57 c8 -6 1 -13 -23 -25 l-35 -17 0 25 c0 19 5 25 23 25 12 0 28 -4
35 -8z m282 -233 c0 -3 -6 -12 -14 -18 -11 -9 -15 -6 -20 14 -9 36 3 53 21 30
7 -11 13 -22 13 -26z"/>
</g>
</svg>
