<?xml version="1.0" standalone="no"?>
<!DOCTYPE svg PUBLIC "-//W3C//DTD SVG 20010904//EN"
 "http://www.w3.org/TR/2001/REC-SVG-20010904/DTD/svg10.dtd">
<svg version="1.0" xmlns="http://www.w3.org/2000/svg"
 width="66.000000pt" height="95.000000pt" viewBox="0 0 66.000000 95.000000"
 preserveAspectRatio="xMidYMid meet">
<metadata>
Created by potrace 1.16, written by Peter Selinger 2001-2019
</metadata>
<g transform="translate(0.000000,95.000000) scale(0.100000,-0.100000)"
fill="#000000" stroke="none">
<path d="M240 820 c-13 -50 -28 -94 -32 -96 -4 -3 -8 -16 -8 -30 0 -14 -12
-35 -30 -51 -17 -14 -30 -34 -30 -43 0 -9 -4 -20 -9 -25 -5 -6 -21 -59 -36
-120 -54 -230 -53 -224 -30 -205 8 7 20 31 27 54 6 22 26 57 43 76 18 19 45
56 60 83 24 43 30 47 63 47 38 -1 124 -20 177 -39 17 -6 38 -25 48 -42 12 -22
22 -29 34 -25 29 12 31 -15 6 -67 -30 -60 -40 -51 -51 46 -5 45 -11 63 -23 65
-23 4 -27 -23 -16 -98 5 -36 11 -99 12 -140 1 -41 3 -90 4 -107 2 -51 28 -42
36 11 4 25 4 50 0 56 -7 12 21 80 34 80 4 0 13 19 20 43 7 23 23 61 36 84 13
23 20 44 17 47 -3 3 -23 6 -44 6 l-38 0 0 45 c0 48 1 48 59 45 24 -1 32 2 29
12 -3 7 -11 13 -19 14 -8 0 -26 2 -41 2 -21 2 -28 7 -28 22 0 16 7 20 36 20
21 0 33 4 29 10 -3 6 -19 10 -35 10 -34 0 -47 15 -30 35 8 9 22 12 41 8 17 -3
29 -1 29 5 0 5 -16 13 -35 16 -53 10 -44 30 10 22 56 -9 59 7 5 23 -52 16 -45
41 14 42 l41 1 -35 11 c-19 6 -36 11 -38 13 -2 1 4 19 12 39 22 52 21 79 -1
70 -10 -4 -39 -10 -65 -12 -49 -6 -51 -8 -48 -55 2 -30 -16 -36 -49 -18 -13 6
-24 5 -37 -5 -29 -21 -3 -40 51 -37 35 1 45 -2 45 -14 0 -12 -11 -15 -56 -12
-38 2 -58 -1 -61 -9 -3 -8 14 -13 54 -15 44 -2 58 -7 58 -18 0 -15 -9 -15
-100 -7 -13 1 -20 -4 -21 -18 -1 -11 -4 -30 -8 -42 -9 -27 -2 -31 64 -34 67
-3 80 -7 80 -26 0 -11 -6 -12 -22 -6 -13 4 -44 7 -70 6 -41 -2 -50 1 -81 32
-19 19 -42 35 -51 35 -22 0 -20 17 5 48 11 15 41 54 67 87 49 64 78 112 71
119 -2 2 -29 7 -59 11 l-55 7 -25 -92z m90 38 c0 -19 -44 -78 -58 -78 -8 0
-10 9 -6 28 9 40 64 83 64 50z m187 -38 c-10 -27 -27 -41 -27 -22 0 4 -3 17
-6 30 -5 18 -2 22 19 22 24 0 25 -2 14 -30z m-63 -170 c20 -19 -7 -32 -52 -26
-53 7 -80 24 -60 38 15 9 98 0 112 -12z m-234 -59 c0 -6 -4 -13 -10 -16 -5 -3
-17 -31 -26 -62 -9 -31 -25 -66 -35 -77 -19 -20 -19 -20 -19 6 0 45 29 122 52
140 26 20 38 22 38 9z m54 -52 c-8 -14 -34 -11 -34 4 0 8 3 17 7 20 9 9 34
-13 27 -24z m182 -13 c10 -8 16 -17 13 -21 -10 -9 -75 5 -96 21 -16 12 -14 13
23 14 22 0 49 -6 60 -14z"/>
<path d="M651 244 c0 -11 3 -14 6 -6 3 7 2 16 -1 19 -3 4 -6 -2 -5 -13z"/>
</g>
</svg>
