<?xml version="1.0" standalone="no"?>
<!DOCTYPE svg PUBLIC "-//W3C//DTD SVG 20010904//EN"
 "http://www.w3.org/TR/2001/REC-SVG-20010904/DTD/svg10.dtd">
<svg version="1.0" xmlns="http://www.w3.org/2000/svg"
 width="81.000000pt" height="90.000000pt" viewBox="0 0 81.000000 90.000000"
 preserveAspectRatio="xMidYMid meet">
<metadata>
Created by potrace 1.16, written by Peter Selinger 2001-2019
</metadata>
<g transform="translate(0.000000,90.000000) scale(0.100000,-0.100000)"
fill="#000000" stroke="none">
<path d="M437 860 c-53 -10 -64 -23 -48 -57 7 -16 22 -86 33 -158 19 -128 23
-174 13 -183 -8 -9 -86 19 -126 44 -21 13 -52 24 -69 24 -16 0 -30 2 -30 5 0
3 17 29 39 58 21 29 51 74 67 100 16 26 37 61 47 77 l18 29 -36 17 c-52 24
-99 10 -103 -31 -4 -53 -34 -158 -64 -228 -16 -38 -35 -101 -43 -140 -7 -40
-26 -119 -43 -177 -16 -58 -32 -117 -36 -132 -3 -14 -9 -33 -12 -42 -4 -10 -1
-16 9 -16 14 0 28 32 63 140 21 67 91 188 120 206 11 8 43 16 70 19 27 2 69 7
94 11 69 9 73 -1 77 -169 3 -156 10 -224 23 -232 11 -7 16 11 19 70 4 93 49
194 129 293 19 23 33 44 31 46 -5 5 -71 15 -145 23 l-62 6 -4 61 c-6 80 7 188
32 256 34 93 30 98 -63 80z m43 -30 c0 -20 -24 -60 -34 -57 -6 2 -12 18 -14
35 -3 28 0 32 22 32 14 0 26 -4 26 -10z m-150 -51 c0 -12 -71 -131 -76 -126
-3 2 5 43 21 115 4 15 13 22 30 22 14 0 25 -5 25 -11z m-100 -297 c0 -10 -8
-29 -17 -42 -10 -14 -28 -45 -41 -70 -12 -25 -20 -36 -17 -26 3 11 10 40 15
65 6 25 12 56 15 69 7 27 45 31 45 4z m70 -27 c11 -13 8 -15 -19 -15 -30 0
-39 9 -24 23 11 11 30 8 43 -8z m330 -41 c0 -4 -16 -29 -35 -55 -19 -27 -35
-52 -35 -55 0 -10 -40 -57 -41 -48 -4 32 -5 150 -2 157 5 9 113 10 113 1z"/>
<path d="M530 726 c-14 -17 -51 -138 -45 -145 3 -2 22 4 43 13 53 24 170 26
194 4 7 -7 20 -12 28 -12 8 1 22 2 30 3 29 3 -28 39 -82 51 -41 10 -63 22 -95
56 -46 48 -54 51 -73 30z m37 -66 c11 -16 10 -21 -6 -30 -34 -17 -41 -13 -30
20 13 35 20 37 36 10z"/>
</g>
</svg>
