<?xml version="1.0" standalone="no"?>
<!DOCTYPE svg PUBLIC "-//W3C//DTD SVG 20010904//EN"
 "http://www.w3.org/TR/2001/REC-SVG-20010904/DTD/svg10.dtd">
<svg version="1.0" xmlns="http://www.w3.org/2000/svg"
 width="97.000000pt" height="66.000000pt" viewBox="0 0 97.000000 66.000000"
 preserveAspectRatio="xMidYMid meet">
<metadata>
Created by potrace 1.16, written by Peter Selinger 2001-2019
</metadata>
<g transform="translate(0.000000,66.000000) scale(0.100000,-0.100000)"
fill="#000000" stroke="none">
<path d="M204 617 c-2 -7 -1 -24 4 -37 5 -13 7 -34 4 -48 -4 -23 -7 -23 -51
-16 -94 15 -96 15 -99 -40 -4 -67 6 -73 72 -47 70 29 91 20 100 -45 11 -81 15
-77 -74 -72 l-80 5 -9 -31 c-20 -68 -21 -96 -4 -96 9 0 24 6 32 13 21 18 96
47 122 47 26 0 30 -12 37 -120 10 -126 26 -120 30 11 l3 105 52 15 c33 9 104
14 197 14 197 1 198 1 210 -44 5 -20 10 -49 10 -64 0 -19 4 -27 13 -24 8 3 11
27 10 82 -3 80 5 119 58 278 42 129 43 127 -41 127 -81 0 -90 -9 -90 -89 0
-62 -5 -64 -137 -56 -213 12 -258 16 -266 24 -5 5 -1 25 7 46 29 68 24 75 -44
75 -41 0 -62 -4 -66 -13z m79 -62 c-19 -57 -33 -57 -33 -1 0 34 4 45 18 49 29
6 31 -1 15 -48z m547 33 c0 -21 -52 -178 -59 -178 -8 0 -31 95 -31 128 0 42
18 62 55 62 21 0 35 -5 35 -12z m-695 -128 c-3 -5 -13 -10 -21 -10 -8 0 -14 5
-14 10 0 6 9 10 21 10 11 0 17 -4 14 -10z m571 -5 c13 -4 39 -129 30 -143 -3
-5 -98 -8 -227 -7 -239 2 -239 2 -239 57 0 23 15 71 28 88 11 14 366 19 408 5z
m-566 -194 c0 -11 -39 -25 -47 -18 -3 3 -2 10 2 16 8 13 45 15 45 2z"/>
</g>
</svg>
