<?xml version="1.0" standalone="no"?>
<!DOCTYPE svg PUBLIC "-//W3C//DTD SVG 20010904//EN"
 "http://www.w3.org/TR/2001/REC-SVG-20010904/DTD/svg10.dtd">
<svg version="1.0" xmlns="http://www.w3.org/2000/svg"
 width="148.000000pt" height="75.000000pt" viewBox="0 0 148.000000 75.000000"
 preserveAspectRatio="xMidYMid meet">
<metadata>
Created by potrace 1.16, written by Peter Selinger 2001-2019
</metadata>
<g transform="translate(0.000000,75.000000) scale(0.100000,-0.100000)"
fill="#000000" stroke="none">
<path d="M1288 724 c-16 -8 -28 -20 -28 -27 0 -7 -15 -27 -32 -46 -30 -34 -33
-35 -132 -42 -299 -20 -521 -5 -554 39 -19 25 -29 2 -37 -84 -11 -108 -16
-111 -166 -95 -66 7 -141 19 -167 27 -64 19 -72 18 -72 -11 0 -17 -9 -29 -29
-40 l-29 -15 -4 -132 c-2 -73 0 -137 4 -142 5 -6 8 -36 8 -68 0 -32 4 -58 10
-58 6 0 10 28 10 63 1 68 12 91 54 107 58 22 64 17 71 -65 4 -41 11 -75 16
-75 5 0 8 34 7 75 -1 41 2 78 6 82 7 8 33 8 163 5 54 -2 67 -6 95 -31 l33 -29
-17 -63 c-19 -69 -17 -80 9 -57 37 32 199 90 298 107 33 6 141 10 240 10 l180
0 35 -28 c47 -36 110 -74 110 -66 0 4 -13 23 -30 42 -32 36 -36 48 -20 58 8 5
8 11 1 19 -7 8 -6 27 4 59 8 26 11 47 8 47 -3 0 13 17 36 39 45 43 49 52 24
72 -36 30 -93 112 -103 148 -8 30 -6 52 11 110 11 41 18 75 17 76 -2 2 -15 -3
-30 -11z m-41 -139 c3 -9 3 -19 -1 -22 -7 -7 -36 16 -36 28 0 15 30 10 37 -6z
m-667 1 c0 -11 -33 -36 -40 -31 -15 9 1 35 21 35 10 0 19 -2 19 -4z m608 -42
c25 -25 62 -56 81 -69 20 -13 53 -40 74 -59 l39 -36 -29 -33 c-15 -18 -48 -50
-73 -70 -25 -20 -58 -49 -74 -63 -28 -26 -34 -28 -155 -30 -69 -2 -166 -6
-216 -8 -109 -7 -270 8 -292 25 -11 10 -14 25 -10 61 9 71 23 91 58 84 39 -7
37 7 -6 39 -19 15 -37 35 -40 46 -9 28 13 87 38 101 49 26 259 50 495 56 63 2
64 2 110 -44z m-1028 -94 c0 -5 -9 -10 -20 -10 -11 0 -20 5 -20 10 0 6 9 10
20 10 11 0 20 -4 20 -10z m299 -25 c29 -5 57 -30 64 -56 4 -14 -10 -35 -50
-74 -30 -31 -58 -53 -63 -50 -4 3 -45 7 -91 9 -80 4 -84 5 -85 27 0 23 7 59
22 107 6 21 4 23 -22 20 -26 -3 -29 -7 -32 -43 -5 -92 -11 -105 -42 -105 -56
0 -59 5 -37 68 20 61 40 90 72 102 19 8 215 4 264 -5z m-353 -49 c7 -19 -10
-79 -24 -84 -13 -4 -18 79 -5 91 10 11 23 8 29 -7z m396 -127 c-4 -27 -6 -29
-20 -16 -17 17 -10 47 11 47 9 0 12 -9 9 -31z m-362 -30 c0 -5 -11 -9 -25 -9
-24 0 -32 10 -19 22 8 8 44 -3 44 -13z m1134 -4 c-4 -8 -8 -15 -10 -15 -2 0
-4 7 -4 15 0 8 4 15 10 15 5 0 7 -7 4 -15z m-700 -101 c3 -7 -3 -18 -14 -24
-27 -14 -40 -12 -35 5 3 8 7 22 10 30 5 17 31 10 39 -11z m58 14 c-17 -8 -26
-8 -34 0 -9 9 -4 12 23 11 32 0 33 -1 11 -11z"/>
<path d="M1008 540 c-20 -16 -48 -34 -62 -40 -36 -13 -33 -24 17 -58 23 -16
54 -42 69 -57 41 -41 54 -26 19 23 -35 47 -38 79 -15 123 8 17 14 33 12 35 -2
2 -20 -10 -40 -26z"/>
<path d="M697 497 c-53 -47 -57 -61 -25 -78 12 -6 30 -20 40 -29 19 -17 18
-18 -14 -43 -18 -14 -30 -28 -28 -30 15 -13 130 -87 134 -87 15 0 2 23 -29 51
-19 18 -35 38 -35 45 0 25 20 25 45 0 14 -15 35 -26 45 -26 11 0 45 -25 77
-55 52 -49 73 -64 73 -51 0 3 -23 32 -51 66 -54 66 -60 97 -14 86 25 -6 35 7
15 19 -6 4 -8 16 -4 27 5 16 3 19 -13 14 -21 -7 -73 27 -73 47 0 7 7 25 15 41
9 16 14 30 12 32 -4 4 -91 -65 -95 -76 -2 -4 17 -19 42 -34 58 -34 62 -42 32
-61 -23 -15 -25 -14 -75 34 -55 54 -59 66 -35 112 8 17 14 32 12 34 -2 2 -25
-15 -51 -38z"/>
</g>
</svg>
