<?xml version="1.0" standalone="no"?>
<!DOCTYPE svg PUBLIC "-//W3C//DTD SVG 20010904//EN"
 "http://www.w3.org/TR/2001/REC-SVG-20010904/DTD/svg10.dtd">
<svg version="1.0" xmlns="http://www.w3.org/2000/svg"
 width="75.000000pt" height="73.000000pt" viewBox="0 0 75.000000 73.000000"
 preserveAspectRatio="xMidYMid meet">
<metadata>
Created by potrace 1.16, written by Peter Selinger 2001-2019
</metadata>
<g transform="translate(0.000000,73.000000) scale(0.100000,-0.100000)"
fill="#000000" stroke="none">
<path d="M462 673 c-6 -16 -21 -39 -34 -53 -58 -64 -63 -71 -50 -79 21 -13
-126 -55 -198 -57 -76 -2 -77 -3 -56 -95 15 -63 15 -64 -7 -81 -26 -21 -24
-22 63 -67 63 -33 130 -88 130 -106 0 -19 40 -105 48 -105 5 0 16 23 26 50 10
28 23 54 30 58 6 4 19 19 29 34 9 15 45 50 79 78 35 29 82 69 105 90 l42 38
-79 81 c-44 46 -82 91 -85 101 -3 11 -6 46 -6 80 -1 66 -19 82 -37 33z m-4
-98 c-2 -10 -8 -12 -17 -6 -12 8 -12 11 0 24 15 16 23 8 17 -18z m25 -82 c53
-34 147 -113 147 -124 0 -10 -129 -115 -208 -168 l-62 -43 -33 25 c-98 77 -92
69 -91 145 l0 70 -24 -19 c-41 -32 -38 -11 4 32 41 43 163 109 201 109 12 0
42 -12 66 -27z m-249 -35 c-7 -16 -64 -62 -69 -56 -3 2 -6 15 -7 28 -3 21 2
26 32 31 19 4 38 7 42 8 4 0 5 -5 2 -11z m-47 -174 c-2 -3 -12 -2 -21 2 -21 8
-21 30 2 43 14 8 18 5 20 -16 2 -13 2 -27 -1 -29z m213 -132 c0 -5 -9 -17 -20
-27 -22 -20 -26 -14 -10 16 11 19 30 26 30 11z"/>
</g>
</svg>
