<?xml version="1.0" standalone="no"?>
<!DOCTYPE svg PUBLIC "-//W3C//DTD SVG 20010904//EN"
 "http://www.w3.org/TR/2001/REC-SVG-20010904/DTD/svg10.dtd">
<svg version="1.0" xmlns="http://www.w3.org/2000/svg"
 width="67.000000pt" height="72.000000pt" viewBox="0 0 67.000000 72.000000"
 preserveAspectRatio="xMidYMid meet">
<metadata>
Created by potrace 1.16, written by Peter Selinger 2001-2019
</metadata>
<g transform="translate(0.000000,72.000000) scale(0.100000,-0.100000)"
fill="#000000" stroke="none">
<path d="M427 660 c-8 -11 -32 -39 -53 -62 -21 -23 -44 -51 -49 -63 -18 -35
-99 -52 -204 -43 l-34 3 -4 -62 c-2 -35 0 -63 5 -63 5 0 27 16 48 35 42 38
175 95 224 95 40 0 39 -23 -1 -58 -50 -42 -58 -45 -84 -28 -13 9 -31 16 -40
16 -17 0 -45 -56 -45 -90 0 -29 -13 -25 -28 10 -15 33 -42 41 -42 13 0 -10
-20 -40 -44 -68 -24 -27 -42 -53 -40 -57 2 -3 37 -4 77 -1 70 5 74 4 121 -29
54 -37 54 -37 88 -120 12 -32 28 -58 33 -58 6 0 21 21 34 48 42 81 127 195
175 235 42 35 60 67 36 67 -5 0 -38 30 -74 67 -62 64 -64 70 -71 130 -4 34 -4
72 0 83 8 26 -10 26 -28 0z m-7 -102 c0 -11 -8 -18 -19 -18 -28 0 -33 13 -14
39 12 18 17 20 24 10 5 -8 9 -22 9 -31z m-250 -108 c0 -13 -38 -32 -50 -25 -5
3 -7 12 -3 20 6 16 53 21 53 5z m302 -11 c16 -12 46 -36 66 -55 l36 -33 -45
-40 c-57 -52 -67 -52 -102 -1 -21 30 -21 40 -2 40 8 0 15 4 15 9 0 5 -7 11
-15 15 -17 6 -20 39 -5 67 13 24 15 24 52 -2z m-102 -39 c0 -5 -5 -10 -11 -10
-5 0 -7 5 -4 10 3 6 8 10 11 10 2 0 4 -4 4 -10z m-130 -35 c0 -8 -4 -15 -10
-15 -5 0 -7 7 -4 15 4 8 8 15 10 15 2 0 4 -7 4 -15z m125 -67 c30 -24 54 -50
54 -58 1 -14 -26 -38 -59 -51 -33 -14 -154 75 -148 109 4 20 67 54 86 47 7 -2
37 -24 67 -47z m-234 -28 c-7 -4 -22 -5 -33 -2 -18 4 -18 6 4 29 l23 24 9 -21
c7 -15 6 -24 -3 -30z m267 -130 c-25 -43 -35 -49 -45 -24 -6 17 33 64 54 64
10 0 7 -11 -9 -40z"/>
</g>
</svg>
