<?xml version="1.0" standalone="no"?>
<!DOCTYPE svg PUBLIC "-//W3C//DTD SVG 20010904//EN"
 "http://www.w3.org/TR/2001/REC-SVG-20010904/DTD/svg10.dtd">
<svg version="1.0" xmlns="http://www.w3.org/2000/svg"
 width="91.000000pt" height="63.000000pt" viewBox="0 0 91.000000 63.000000"
 preserveAspectRatio="xMidYMid meet">
<metadata>
Created by potrace 1.16, written by Peter Selinger 2001-2019
</metadata>
<g transform="translate(0.000000,63.000000) scale(0.100000,-0.100000)"
fill="#000000" stroke="none">
<path d="M76 508 c-3 -13 -8 -58 -11 -100 -5 -73 -5 -78 14 -78 17 0 18 -3 8
-35 -6 -19 -8 -37 -6 -39 2 -2 37 4 77 15 59 15 83 16 127 8 31 -5 60 -7 66
-3 18 11 -8 21 -96 39 -43 9 -89 24 -102 33 -24 15 -24 16 -7 29 11 8 43 21
72 29 44 13 62 14 103 4 28 -7 53 -9 57 -5 14 14 -32 34 -96 40 -78 8 -127 29
-149 61 -20 31 -51 31 -57 2z m79 -82 c18 -13 17 -14 -13 -30 -34 -17 -44 -11
-35 22 6 25 21 28 48 8z m-10 -126 c3 -5 -1 -10 -9 -10 -9 0 -16 5 -16 10 0 6
4 10 9 10 6 0 13 -4 16 -10z"/>
<path d="M416 482 c-7 -11 -11 -180 -4 -187 6 -7 -4 -55 -21 -98 -6 -16 -9
-33 -6 -37 3 -5 44 5 92 21 87 30 87 30 212 21 69 -6 128 -8 131 -6 9 10 -25
23 -75 29 -188 22 -234 31 -267 47 -21 10 -38 22 -38 26 0 5 28 22 61 38 58
27 69 29 185 29 67 0 125 3 128 6 3 3 -33 12 -81 19 -91 14 -193 47 -251 81
-35 20 -58 24 -66 11z m95 -74 c22 -6 39 -15 39 -19 0 -7 -79 -49 -93 -49 -9
0 -9 65 0 73 8 9 9 9 54 -5z m-46 -206 c-34 -17 -45 -13 -34 15 7 20 11 22 34
11 l26 -12 -26 -14z"/>
<path d="M90 185 c-5 -13 -10 -36 -12 -52 -3 -26 -1 -28 32 -25 19 2 51 12 71
21 22 11 44 15 60 10 95 -27 187 -39 189 -24 2 11 -134 51 -220 64 -30 5 -68
14 -83 20 -25 10 -29 8 -37 -14z m40 -35 c0 -5 -4 -10 -10 -10 -5 0 -10 5 -10
10 0 6 5 10 10 10 6 0 10 -4 10 -10z"/>
</g>
</svg>
