<?xml version="1.0" standalone="no"?>
<!DOCTYPE svg PUBLIC "-//W3C//DTD SVG 20010904//EN"
 "http://www.w3.org/TR/2001/REC-SVG-20010904/DTD/svg10.dtd">
<svg version="1.0" xmlns="http://www.w3.org/2000/svg"
 width="71.000000pt" height="89.000000pt" viewBox="0 0 71.000000 89.000000"
 preserveAspectRatio="xMidYMid meet">
<metadata>
Created by potrace 1.16, written by Peter Selinger 2001-2019
</metadata>
<g transform="translate(0.000000,89.000000) scale(0.100000,-0.100000)"
fill="#000000" stroke="none">
<path d="M400 875 c0 -8 5 -15 10 -15 6 0 10 7 10 15 0 8 -4 15 -10 15 -5 0
-10 -7 -10 -15z"/>
<path d="M457 813 c-12 -27 -28 -52 -34 -56 -7 -4 -13 -14 -13 -22 0 -8 -16
-29 -35 -48 -19 -19 -35 -39 -35 -44 0 -6 17 -13 38 -17 59 -10 67 -18 64 -78
-2 -56 -12 -74 -36 -65 -12 5 -14 17 -9 57 5 41 3 50 -10 50 -19 0 -27 -21
-27 -71 0 -35 -2 -39 -26 -39 -22 0 -25 4 -21 23 23 100 18 109 -48 81 -21 -9
-77 -19 -123 -22 -109 -9 -118 -20 -78 -95 l29 -53 -26 -39 c-35 -51 -34 -57
8 -49 53 10 80 -2 142 -61 60 -57 68 -61 93 -45 12 7 11 13 -9 34 -21 22 -23
32 -18 83 8 79 22 115 45 111 15 -3 17 -16 17 -101 0 -53 3 -97 8 -97 14 0 27
51 27 110 0 67 7 90 26 90 11 0 14 -20 14 -89 0 -85 -1 -91 -26 -110 -15 -12
-32 -21 -38 -21 -6 0 -17 -4 -25 -9 -12 -8 -8 -18 18 -60 18 -27 36 -63 40
-78 13 -48 35 -34 42 27 14 127 34 158 193 312 l59 58 -39 37 c-21 20 -62 51
-91 70 -28 18 -54 37 -58 43 -10 17 -18 108 -10 127 12 30 15 103 5 103 -6 0
-20 -21 -33 -47z m-11 -136 c2 -18 -5 -21 -30 -11 -13 5 -14 9 -5 21 15 17 31
12 35 -10z m-162 -156 c-6 -38 -25 -54 -38 -32 -12 18 28 91 42 77 1 -2 0 -22
-4 -45z m218 0 c-10 -47 -32 -53 -32 -9 0 35 18 64 31 51 4 -5 4 -23 1 -42z
m88 -11 l35 -29 -27 -1 c-14 0 -32 -2 -40 -5 -25 -9 -40 9 -29 38 13 34 18 33
61 -3z m-440 2 c0 -21 -18 -42 -36 -42 -18 0 -26 30 -13 46 17 20 49 18 49 -4z
m60 -5 c0 -13 -3 -27 -7 -31 -4 -4 -9 -22 -11 -39 -1 -18 -3 -37 -4 -44 -2
-18 -24 -4 -37 23 -12 27 -11 30 23 81 25 39 36 42 36 10z m400 -57 c0 -11
-71 -79 -82 -80 -19 0 -7 60 14 74 25 18 68 21 68 6z m-349 -56 c-4 -66 -17
-90 -38 -72 -18 15 -11 106 9 120 24 15 33 1 29 -48z m229 -8 c0 -48 -12 -76
-32 -76 -12 0 -10 98 3 121 16 31 29 12 29 -45z m-370 -10 c0 -3 -4 -8 -10
-11 -5 -3 -10 -1 -10 4 0 6 5 11 10 11 6 0 10 -2 10 -4z m303 -162 c3 -4 2
-16 -4 -26 -13 -24 -33 -10 -23 15 6 18 16 21 27 11z"/>
</g>
</svg>
