<?xml version="1.0" standalone="no"?>
<!DOCTYPE svg PUBLIC "-//W3C//DTD SVG 20010904//EN"
 "http://www.w3.org/TR/2001/REC-SVG-20010904/DTD/svg10.dtd">
<svg version="1.0" xmlns="http://www.w3.org/2000/svg"
 width="70.000000pt" height="89.000000pt" viewBox="0 0 70.000000 89.000000"
 preserveAspectRatio="xMidYMid meet">
<metadata>
Created by potrace 1.16, written by Peter Selinger 2001-2019
</metadata>
<g transform="translate(0.000000,89.000000) scale(0.100000,-0.100000)"
fill="#000000" stroke="none">
<path d="M356 825 c-9 -13 -34 -41 -56 -61 -22 -21 -40 -41 -40 -46 0 -4 15
-8 33 -8 17 -1 48 -10 67 -20 19 -11 43 -22 53 -26 33 -12 17 -23 -27 -19 -38
4 -46 1 -60 -20 -14 -21 -24 -25 -67 -25 l-51 0 5 33 c3 17 8 43 12 56 6 16 4
22 -3 20 -19 -7 -162 -130 -162 -140 0 -5 18 -20 40 -34 22 -14 40 -29 40 -34
0 -5 -20 -29 -45 -53 -47 -48 -53 -61 -32 -77 6 -6 35 -29 62 -51 28 -22 64
-54 81 -70 65 -63 75 -24 10 41 -24 24 -47 54 -50 66 -6 19 -2 23 28 31 67 19
139 -23 151 -88 6 -31 2 -39 -34 -74 -29 -29 -49 -40 -76 -41 -20 -1 -38 -4
-40 -7 -5 -4 32 -99 52 -132 14 -25 43 -14 43 17 0 52 39 137 83 182 25 25 49
45 55 45 6 0 39 29 74 63 34 35 81 75 103 89 50 31 69 53 62 72 -5 13 -68 64
-201 162 -50 37 -68 71 -68 130 0 50 -16 58 -42 19z m-6 -70 c0 -8 -7 -15 -16
-15 -14 0 -14 3 -4 15 7 8 14 15 16 15 2 0 4 -7 4 -15z m-180 -160 c0 -38 -18
-47 -41 -19 -11 14 -9 19 11 35 14 10 26 19 28 19 1 0 2 -16 2 -35z m380 -28
c41 -29 75 -60 75 -68 0 -19 -90 -99 -152 -136 -42 -24 -43 -24 -74 -6 -31 18
-31 18 -24 83 10 109 25 160 49 170 36 15 49 11 126 -43z m-218 -7 c2 -5 2
-41 0 -80 l-4 -70 -26 14 c-42 22 -85 73 -79 91 4 8 19 20 34 25 16 6 35 14
43 19 20 13 28 13 32 1z m-122 -119 c13 -26 13 -28 -5 -35 -10 -4 -19 2 -24
17 -15 38 10 53 29 18z m-80 -26 c0 -16 -6 -25 -15 -25 -15 0 -21 31 -8 43 13
14 23 6 23 -18z m270 -104 c0 -5 -7 -14 -15 -21 -16 -14 -18 -10 -9 14 6 17
24 22 24 7z m-119 -165 c-12 -30 -17 -32 -25 -11 -3 8 2 22 11 30 21 21 26 14
14 -19z"/>
</g>
</svg>
