<?xml version="1.0" standalone="no"?>
<!DOCTYPE svg PUBLIC "-//W3C//DTD SVG 20010904//EN"
 "http://www.w3.org/TR/2001/REC-SVG-20010904/DTD/svg10.dtd">
<svg version="1.0" xmlns="http://www.w3.org/2000/svg"
 width="82.000000pt" height="93.000000pt" viewBox="0 0 82.000000 93.000000"
 preserveAspectRatio="xMidYMid meet">
<metadata>
Created by potrace 1.16, written by Peter Selinger 2001-2019
</metadata>
<g transform="translate(0.000000,93.000000) scale(0.100000,-0.100000)"
fill="#000000" stroke="none">
<path d="M238 859 c-33 -13 -42 -38 -33 -95 3 -24 3 -44 0 -44 -4 0 -26 11
-50 25 -42 25 -44 26 -62 7 -10 -10 -25 -21 -34 -24 -17 -6 -42 -118 -32 -144
6 -17 22 -14 112 27 35 16 66 27 70 23 3 -3 5 -81 4 -173 -2 -168 3 -199 30
-188 11 4 15 25 15 89 1 200 1 208 17 208 45 0 187 -126 250 -222 6 -8 22 -33
37 -54 23 -33 27 -51 29 -119 3 -93 6 -105 25 -105 11 0 14 26 14 131 0 139 9
195 45 274 12 28 27 78 33 111 6 34 25 98 42 142 18 45 30 88 27 96 -4 11 -26
14 -99 13 l-93 -2 4 -89 3 -89 -78 7 c-119 10 -137 15 -129 34 24 58 9 73 -22
22 -14 -24 -24 -30 -50 -30 -40 0 -42 12 -12 76 27 60 23 98 -11 101 -14 1
-37 -3 -52 -8z m41 -41 c0 -7 -6 -29 -13 -48 l-13 -35 -7 33 c-5 21 -3 38 4
47 15 18 30 19 29 3z m448 -21 c9 -10 -53 -142 -67 -142 -20 0 -28 134 -9 146
13 8 67 4 76 -4z m-597 -109 c17 -12 30 -24 30 -28 0 -9 -70 -44 -76 -37 -7 6
5 87 12 87 3 0 18 -10 34 -22z m150 -53 c-14 -17 -30 -20 -30 -6 0 5 8 12 18
14 9 3 19 5 21 6 2 0 -2 -6 -9 -14z m60 -15 c0 -13 -5 -18 -15 -14 -16 7 -19
17 -8 27 12 13 23 7 23 -13z m166 9 l81 -12 -3 -126 c-1 -69 -3 -130 -3 -136
-1 -5 -10 4 -20 22 -11 17 -48 61 -83 97 -35 37 -66 79 -70 94 -3 15 -10 37
-13 50 -9 26 -4 27 111 11z m151 -52 c-7 -54 -24 -68 -22 -17 3 65 4 72 16 64
7 -4 9 -22 6 -47z"/>
</g>
</svg>
