<?xml version="1.0" standalone="no"?>
<!DOCTYPE svg PUBLIC "-//W3C//DTD SVG 20010904//EN"
 "http://www.w3.org/TR/2001/REC-SVG-20010904/DTD/svg10.dtd">
<svg version="1.0" xmlns="http://www.w3.org/2000/svg"
 width="165.000000pt" height="90.000000pt" viewBox="0 0 165.000000 90.000000"
 preserveAspectRatio="xMidYMid meet">
<metadata>
Created by potrace 1.16, written by Peter Selinger 2001-2019
</metadata>
<g transform="translate(0.000000,90.000000) scale(0.100000,-0.100000)"
fill="#000000" stroke="none">
<path d="M173 822 c-14 -9 -115 -203 -108 -210 2 -2 20 3 39 12 19 9 39 16 45
16 12 0 22 -49 20 -110 0 -25 3 -96 6 -158 l8 -112 -26 -20 c-20 -16 -26 -29
-25 -58 0 -20 -5 -57 -11 -82 -12 -55 2 -77 27 -42 67 92 160 156 302 206 41
15 79 31 85 36 9 8 304 70 405 85 25 4 79 16 120 26 113 28 114 28 157 -42 49
-79 109 -143 119 -127 10 16 22 -17 23 -64 1 -20 5 -39 10 -43 13 -7 25 76 18
123 -8 53 15 162 80 389 14 50 23 97 21 105 -4 9 -26 13 -74 13 l-69 0 -1
-230 c-1 -126 -2 -237 -3 -245 -2 -20 -47 33 -66 79 -21 48 -19 85 11 174 15
42 24 80 20 84 -6 6 -134 -49 -164 -71 -7 -5 -10 -17 -7 -27 6 -19 -26 -36
-46 -23 -6 4 -37 8 -68 10 -56 4 -129 17 -187 35 -17 5 -55 9 -85 9 -79 0
-194 29 -249 61 -50 30 -61 24 -95 -49 -30 -66 -21 -72 67 -47 43 12 79 15
117 11 31 -3 87 -9 126 -12 38 -3 92 -10 120 -15 27 -4 102 -16 165 -25 117
-16 152 -29 109 -38 -52 -11 -180 -36 -289 -56 -183 -34 -452 -90 -462 -96 -5
-3 -15 -1 -22 5 -17 14 -21 164 -6 221 5 22 15 58 20 80 9 32 8 44 -5 64 -15
23 -15 24 17 29 18 4 83 7 143 7 136 2 235 10 235 20 0 4 -82 10 -182 13 -101
4 -197 9 -214 11 -47 7 -106 34 -134 61 -14 13 -30 21 -37 17z m70 -96 c15 -4
27 -10 27 -15 0 -15 -51 -23 -66 -10 -11 9 -19 8 -34 -6 -28 -26 -36 -11 -17
30 16 33 18 35 39 21 13 -7 35 -16 51 -20z m1199 -16 c-5 -46 -45 -179 -53
-174 -4 2 -7 28 -7 57 0 29 -2 66 -6 83 -8 37 15 67 48 62 16 -2 20 -9 18 -28z
m-1149 -227 c-3 -109 -7 -199 -8 -201 -1 -2 -19 -6 -39 -9 l-37 -6 1 94 c0 52
0 105 -1 119 0 36 49 188 64 193 6 3 15 6 19 6 3 1 4 -88 1 -196z m184 80 c4
-12 -35 -29 -44 -19 -8 8 18 37 30 33 6 -2 12 -8 14 -14z m766 -28 c-17 -51
-28 -56 -45 -19 -11 23 -9 28 12 45 42 31 51 25 33 -26z m-963 -308 c0 -7 -12
-20 -27 -29 -16 -9 -38 -26 -51 -38 -30 -28 -34 -23 -24 26 7 36 11 39 47 45
22 3 43 7 48 8 4 0 7 -5 7 -12z"/>
</g>
</svg>
