<?xml version="1.0" standalone="no"?>
<!DOCTYPE svg PUBLIC "-//W3C//DTD SVG 20010904//EN"
 "http://www.w3.org/TR/2001/REC-SVG-20010904/DTD/svg10.dtd">
<svg version="1.0" xmlns="http://www.w3.org/2000/svg"
 width="109.000000pt" height="88.000000pt" viewBox="0 0 109.000000 88.000000"
 preserveAspectRatio="xMidYMid meet">
<metadata>
Created by potrace 1.16, written by Peter Selinger 2001-2019
</metadata>
<g transform="translate(0.000000,88.000000) scale(0.100000,-0.100000)"
fill="#000000" stroke="none">
<path d="M872 782 c-7 -2 -12 -21 -12 -43 l0 -39 -42 -1 c-281 -6 -498 17
-595 63 -35 17 -49 4 -73 -69 -24 -74 -27 -112 -15 -189 l7 -50 -61 -61 c-33
-34 -61 -66 -61 -71 0 -5 30 -12 66 -16 78 -8 91 -14 164 -76 30 -26 84 -66
120 -89 36 -24 79 -57 96 -73 21 -19 34 -26 39 -19 7 13 -79 100 -135 137 -65
43 -83 61 -77 77 6 16 125 25 426 29 l155 3 -2 -97 c0 -57 3 -100 9 -104 16
-9 22 2 24 44 3 59 25 204 34 232 5 14 14 43 19 65 6 22 15 51 19 65 4 14 8
30 9 35 1 6 14 53 29 105 45 158 46 147 -13 131 -23 -7 -46 -6 -75 3 -23 7
-48 11 -55 8z m124 -50 c-3 -5 -14 -55 -26 -113 -22 -109 -39 -159 -54 -159
-5 0 -5 17 -1 38 9 46 9 88 0 169 l-6 62 33 4 c18 2 39 5 46 5 7 1 11 -2 8 -6z
m-693 -33 l58 -12 -72 -19 c-40 -11 -82 -18 -94 -16 -21 3 -21 5 -8 36 11 27
18 33 36 29 12 -3 48 -11 80 -18z m565 -61 c3 -25 0 -28 -25 -29 -97 -3 -368
-10 -480 -12 -158 -2 -200 -20 -75 -31 43 -4 90 -5 103 -2 13 3 105 8 204 11
99 3 201 8 228 11 43 6 47 5 47 -14 0 -35 37 -31 -459 -47 -162 -5 -181 -8
-181 -25 0 -10 274 -4 480 10 172 13 160 13 160 -9 0 -11 -6 -23 -12 -28 -7
-4 -147 -10 -310 -13 -219 -4 -300 -8 -310 -17 -10 -10 2 -13 58 -14 160 -1
308 1 442 7 129 6 142 5 142 -10 0 -9 -6 -18 -12 -21 -7 -2 -112 -6 -233 -9
-311 -8 -395 -15 -395 -33 0 -12 12 -14 68 -9 98 8 363 20 472 21 84 0 95 -2
98 -19 2 -10 0 -22 -6 -28 -5 -5 -127 -11 -273 -13 -145 -2 -286 -7 -314 -10
-45 -5 -53 -3 -81 24 -31 28 -32 31 -32 117 -1 114 14 170 48 184 22 8 136 27
180 29 8 0 39 4 69 8 30 4 131 6 225 3 l171 -5 3 -27z m-728 -283 c0 -11 -11
-15 -36 -15 -31 0 -35 2 -24 15 7 8 23 15 36 15 15 0 24 -6 24 -15z"/>
</g>
</svg>
