<?xml version="1.0" standalone="no"?>
<!DOCTYPE svg PUBLIC "-//W3C//DTD SVG 20010904//EN"
 "http://www.w3.org/TR/2001/REC-SVG-20010904/DTD/svg10.dtd">
<svg version="1.0" xmlns="http://www.w3.org/2000/svg"
 width="98.000000pt" height="77.000000pt" viewBox="0 0 98.000000 77.000000"
 preserveAspectRatio="xMidYMid meet">
<metadata>
Created by potrace 1.16, written by Peter Selinger 2001-2019
</metadata>
<g transform="translate(0.000000,77.000000) scale(0.100000,-0.100000)"
fill="#000000" stroke="none">
<path d="M461 707 c-10 -13 -31 -102 -31 -134 0 -10 6 -12 20 -8 19 6 20 2 18
-59 -1 -57 -4 -66 -20 -66 -17 0 -139 37 -146 45 -2 2 6 33 19 70 26 78 24 82
-58 81 -54 -1 -57 -2 -65 -31 -9 -36 -75 -108 -145 -159 -46 -33 -53 -42 -52
-69 1 -24 3 -26 6 -9 8 43 57 19 149 -72 67 -67 73 -80 70 -154 -2 -45 1 -62
10 -62 18 0 31 103 33 267 1 29 5 33 44 44 23 6 70 15 105 18 l63 7 -7 -55
c-4 -31 -13 -68 -20 -82 -13 -27 -14 -172 -1 -185 11 -11 27 7 27 30 0 27 43
69 90 88 54 22 65 18 68 -25 4 -49 25 -44 32 8 l5 38 77 4 76 4 6 -38 c3 -21
8 -62 12 -90 9 -82 24 -62 24 33 0 77 2 86 20 91 25 7 26 20 1 28 -27 8 -35
40 -17 67 10 16 19 72 27 168 17 222 17 216 -6 212 -66 -11 -81 -16 -92 -30
-19 -23 -201 -10 -255 18 -45 23 -71 25 -87 7z m415 -44 c-10 -10 -19 5 -10
18 6 11 8 11 12 0 2 -7 1 -15 -2 -18z m-350 -9 c24 -6 29 -30 6 -28 -7 1 -23
2 -37 3 -18 1 -25 7 -25 22 0 15 4 19 16 15 9 -3 27 -9 40 -12z m253 -24 c14
0 21 -12 28 -51 12 -58 6 -64 -69 -64 -43 0 -43 0 -40 33 3 48 30 95 48 88 9
-3 24 -6 33 -6z m85 -46 l-7 -39 -9 34 c-11 39 -3 70 13 54 6 -6 7 -26 3 -49z
m-234 -4 l0 -50 -38 0 c-49 0 -86 24 -72 49 10 20 66 50 93 51 14 0 17 -9 17
-50z m50 12 c0 -9 -5 -24 -10 -32 -7 -11 -10 -5 -10 23 0 23 4 36 10 32 6 -3
10 -14 10 -23z m-385 8 c4 -6 -2 -32 -11 -57 -17 -43 -19 -45 -25 -23 -4 14
-7 40 -8 58 -1 25 3 32 18 32 11 0 23 -5 26 -10z m-67 -185 c3 -66 1 -115 -5
-115 -5 0 -25 17 -45 38 -35 35 -36 39 -28 82 9 47 32 109 46 123 18 18 28
-20 32 -128z m592 65 c6 -12 10 -33 8 -48 -3 -25 -7 -27 -55 -30 -69 -4 -97
11 -88 46 9 35 8 35 58 43 65 10 66 10 77 -11z m-186 -12 c14 -53 10 -58 -48
-58 -56 0 -81 15 -70 43 7 18 47 35 85 36 20 1 28 -5 33 -21z m-504 -2 c0 -20
-22 -56 -34 -56 -26 0 -30 23 -6 42 21 17 40 24 40 14z m195 -32 c13 -5 14 -8
3 -15 -21 -14 -48 -10 -48 6 0 16 17 19 45 9z m503 -111 l-3 -58 -64 2 c-35 1
-70 4 -77 7 -16 6 -19 77 -4 92 5 5 41 10 80 12 l71 3 -3 -58z m-186 25 c2
-13 1 -34 -2 -48 -6 -22 -11 -25 -46 -23 -50 3 -94 22 -94 39 0 7 19 18 43 25
23 6 51 15 62 19 30 13 32 12 37 -12z m-82 -113 c0 -2 -13 -11 -30 -20 -30
-16 -40 -9 -18 13 12 12 48 17 48 7z"/>
</g>
</svg>
