<?xml version="1.0" standalone="no"?>
<!DOCTYPE svg PUBLIC "-//W3C//DTD SVG 20010904//EN"
 "http://www.w3.org/TR/2001/REC-SVG-20010904/DTD/svg10.dtd">
<svg version="1.0" xmlns="http://www.w3.org/2000/svg"
 width="77.000000pt" height="63.000000pt" viewBox="0 0 77.000000 63.000000"
 preserveAspectRatio="xMidYMid meet">
<metadata>
Created by potrace 1.16, written by Peter Selinger 2001-2019
</metadata>
<g transform="translate(0.000000,63.000000) scale(0.100000,-0.100000)"
fill="#000000" stroke="none">
<path d="M414 588 c-2 -3 -2 -12 1 -20 9 -23 -48 -48 -107 -48 -29 0 -90 9
-136 20 -121 29 -119 29 -124 -32 -2 -29 -3 -55 -1 -57 2 -3 18 3 35 14 17 10
52 19 77 20 25 0 53 4 61 8 9 4 40 4 69 0 l53 -8 -19 -23 c-24 -30 -65 -38
-159 -32 -54 4 -79 1 -86 -8 -18 -21 0 -26 89 -23 60 2 83 0 79 -8 -13 -21
-69 -43 -95 -38 -35 7 -81 -3 -81 -17 0 -9 26 -11 90 -9 87 3 91 2 123 -27
l32 -29 -113 2 c-78 2 -116 -1 -123 -9 -18 -22 9 -26 131 -20 114 6 120 6 139
-16 12 -12 21 -26 21 -30 0 -5 -64 -6 -145 -2 -110 5 -148 4 -160 -6 -8 -7
-15 -16 -15 -21 0 -8 333 -3 357 6 14 5 6 40 -13 56 -11 9 -11 15 -3 25 9 11
7 14 -8 14 -18 0 -63 38 -63 53 0 4 19 7 42 7 47 0 42 16 -6 23 -62 8 -26 47
44 47 l28 0 7 -102 c5 -57 9 -137 10 -178 2 -88 2 -87 15 -74 6 6 12 59 13
118 3 121 9 131 76 141 20 3 52 10 72 15 20 6 57 10 83 10 25 0 46 4 46 9 0
10 -77 24 -90 16 -9 -6 -151 24 -163 35 -11 10 16 112 42 155 14 24 17 36 9
42 -15 9 -129 10 -134 1z m106 -28 c0 -5 -9 -19 -20 -30 -11 -11 -24 -20 -30
-20 -18 0 -10 29 12 44 26 18 38 20 38 6z m-380 -50 c13 -9 13 -10 0 -10 -8 0
-26 -3 -40 -6 -24 -5 -24 -5 -6 10 23 19 26 19 46 6z m280 -55 c0 -32 -2 -35
-30 -35 -34 0 -38 14 -14 48 24 34 44 28 44 -13z m51 -12 c-9 -16 -10 -15 -11
8 0 14 3 29 8 33 12 12 14 -22 3 -41z m-171 -63 c0 -11 -7 -20 -15 -20 -27 0
-18 30 13 39 1 1 2 -8 2 -19z m230 -50 c-20 -13 -50 -13 -50 0 0 6 15 10 33
10 24 0 28 -3 17 -10z"/>
</g>
</svg>
