<?xml version="1.0" standalone="no"?>
<!DOCTYPE svg PUBLIC "-//W3C//DTD SVG 20010904//EN"
 "http://www.w3.org/TR/2001/REC-SVG-20010904/DTD/svg10.dtd">
<svg version="1.0" xmlns="http://www.w3.org/2000/svg"
 width="122.000000pt" height="81.000000pt" viewBox="0 0 122.000000 81.000000"
 preserveAspectRatio="xMidYMid meet">
<metadata>
Created by potrace 1.16, written by Peter Selinger 2001-2019
</metadata>
<g transform="translate(0.000000,81.000000) scale(0.100000,-0.100000)"
fill="#000000" stroke="none">
<path d="M483 713 c-7 -3 -13 -11 -13 -19 0 -8 -4 -14 -8 -14 -5 0 -29 -20
-53 -45 -45 -46 -62 -52 -101 -35 -13 5 -42 14 -65 20 -24 6 -52 20 -62 31
-25 27 -37 19 -65 -46 -18 -39 -30 -54 -50 -59 l-27 -7 6 -107 c8 -143 10
-157 21 -157 5 0 10 16 12 35 4 38 15 50 48 50 25 0 34 -17 34 -66 0 -52 17
-40 24 18 8 62 12 69 31 62 9 -4 17 -28 21 -65 8 -75 30 -75 26 0 -3 49 -2 51
22 51 22 0 27 -5 32 -41 7 -42 20 -42 26 1 2 17 10 26 26 28 26 4 20 22 -9 22
-12 0 -19 7 -19 20 0 37 23 22 87 -56 l42 -50 -5 -83 -5 -83 42 7 c23 4 60 20
81 35 21 16 71 38 111 50 39 12 91 30 114 41 24 10 48 19 55 19 7 0 41 9 76
20 51 16 66 17 76 7 8 -8 15 -56 19 -131 5 -114 15 -153 32 -125 5 7 8 76 8
153 -1 149 11 239 45 346 28 86 28 83 -6 102 -33 18 -72 14 -72 -9 0 -18 -56
-88 -86 -108 -22 -14 -25 -13 -41 11 -18 28 -19 103 -2 136 15 28 -5 22 -43
-14 -18 -18 -42 -38 -53 -44 -19 -11 -19 -13 13 -47 74 -77 -16 -120 -163 -77
-69 21 -100 18 -103 -7 -5 -32 -15 -29 -46 15 -21 31 -26 49 -26 101 0 34 5
72 11 83 12 22 2 38 -18 31z m-33 -103 c0 -11 -4 -20 -9 -20 -14 0 -23 18 -16
30 10 17 25 11 25 -10z m410 0 c0 -5 -5 -10 -11 -10 -5 0 -7 5 -4 10 3 6 8 10
11 10 2 0 4 -4 4 -10z m-663 -10 c22 0 14 -6 -19 -14 -22 -5 -28 -3 -28 10 0
11 5 14 16 10 9 -3 23 -6 31 -6z m907 1 c6 -9 -20 -81 -29 -81 -3 0 -5 20 -5
45 0 33 4 45 14 45 8 0 17 -4 20 -9z m-714 -44 c44 -5 67 -25 116 -102 26 -41
52 -75 58 -75 13 1 46 25 46 34 0 3 -6 6 -14 6 -9 0 -12 8 -8 25 5 28 19 32
46 12 17 -13 18 -14 2 -20 -10 -4 -14 -11 -11 -17 4 -6 13 -7 23 -1 33 18 155
22 212 7 35 -9 61 -11 71 -5 13 7 24 0 48 -26 17 -20 31 -40 31 -45 0 -22
-298 -71 -400 -65 -41 3 -84 5 -96 5 -26 0 -77 97 -96 183 -7 31 -16 57 -20
57 -4 0 -23 -9 -42 -21 -31 -18 -36 -26 -36 -57 0 -45 -13 -67 -33 -59 -14 5
-14 12 -2 56 7 27 16 54 19 60 12 19 -23 24 -50 6 -21 -13 -25 -23 -23 -53 3
-56 1 -62 -21 -62 -16 0 -20 7 -20 34 0 19 5 47 10 62 14 35 6 54 -18 47 -16
-4 -21 -16 -24 -64 -2 -32 -6 -61 -9 -63 -2 -2 -16 -2 -31 1 -24 5 -27 9 -22
32 12 56 37 100 63 110 22 9 148 8 231 -2z m645 -74 c-1 -37 -7 -69 -13 -71
-17 -5 -25 76 -12 109 20 47 29 34 25 -38z m-945 33 c0 -3 -4 -8 -10 -11 -5
-3 -10 -1 -10 4 0 6 5 11 10 11 6 0 10 -2 10 -4z m888 -21 c-12 -27 -28 -34
-28 -12 0 14 20 37 32 37 4 0 2 -11 -4 -25z m-588 -36 c0 -10 -4 -19 -9 -19
-12 0 -23 29 -15 41 8 14 24 0 24 -22z m503 11 c-3 -11 -12 -20 -19 -20 -17 0
-18 12 -2 28 18 18 27 15 21 -8z m-238 -230 c-6 -9 -108 -70 -137 -82 -15 -6
-18 -2 -18 22 0 23 5 30 19 30 10 0 21 9 24 19 4 15 15 21 48 23 50 4 71 0 64
-12z"/>
<path d="M750 640 c-30 -28 -60 -50 -66 -50 -6 0 -28 14 -49 30 -43 34 -54 30
-73 -28 -17 -51 -7 -65 42 -55 71 13 138 8 153 -13 11 -16 13 -11 13 37 0 43
5 63 25 89 43 59 28 55 -45 -10z m-131 -63 c13 -16 5 -27 -21 -27 -18 0 -25
20 -11 33 10 10 19 8 32 -6z"/>
</g>
</svg>
