<?xml version="1.0" standalone="no"?>
<!DOCTYPE svg PUBLIC "-//W3C//DTD SVG 20010904//EN"
 "http://www.w3.org/TR/2001/REC-SVG-20010904/DTD/svg10.dtd">
<svg version="1.0" xmlns="http://www.w3.org/2000/svg"
 width="104.000000pt" height="75.000000pt" viewBox="0 0 104.000000 75.000000"
 preserveAspectRatio="xMidYMid meet">
<metadata>
Created by potrace 1.16, written by Peter Selinger 2001-2019
</metadata>
<g transform="translate(0.000000,75.000000) scale(0.100000,-0.100000)"
fill="#000000" stroke="none">
<path d="M254 665 c-9 -14 -24 -25 -34 -25 -29 0 -40 -22 -31 -61 5 -19 12
-87 15 -151 l6 -118 -25 0 c-14 0 -42 7 -62 15 -47 20 -70 19 -81 -2 -14 -26
-21 -112 -11 -119 5 -3 33 6 62 19 81 38 91 39 116 16 21 -20 23 -20 48 -3 36
23 142 21 161 -4 12 -16 14 -16 27 2 16 22 98 26 134 7 18 -10 32 -9 70 4 35
11 77 15 147 13 l98 -3 -56 -39 c-31 -21 -54 -44 -52 -51 3 -6 24 -22 47 -35
23 -13 62 -41 86 -62 75 -65 103 -37 31 31 -22 21 -40 45 -40 55 0 20 46 114
66 134 22 21 17 32 -15 32 -71 0 -76 58 -15 168 33 58 34 62 14 62 -11 0 -20
-4 -20 -8 0 -5 -38 -50 -85 -101 -47 -50 -83 -96 -81 -100 3 -5 22 -11 43 -14
21 -3 51 -10 68 -17 50 -19 11 -28 -127 -28 l-127 0 -7 33 c-3 18 -3 50 0 72
4 21 11 65 15 98 10 63 28 122 43 142 19 23 2 34 -55 38 -57 3 -58 3 -64 -26
-6 -34 -21 -36 -83 -14 -23 8 -54 15 -69 15 -14 0 -43 11 -63 25 -20 14 -46
25 -57 25 -11 0 -28 -11 -37 -25z m60 -30 c19 -14 19 -15 -7 -15 -17 0 -27 5
-27 15 0 19 9 19 34 0z m323 -21 c-3 -4 -14 -3 -24 0 -15 6 -15 8 -3 16 16 10
39 -4 27 -16z m-234 -33 c5 -1 5 -6 1 -12 -4 -7 -24 -9 -55 -5 -48 7 -59 0
-38 -21 7 -7 4 -12 -10 -16 -17 -4 -21 0 -21 18 0 31 26 45 75 40 22 -2 44 -4
48 -4z m157 5 c0 -2 3 -11 6 -19 7 -19 -54 -31 -90 -18 -43 17 -23 41 35 41
27 0 49 -2 49 -4z m14 -72 c10 -27 -3 -34 -65 -34 -45 0 -59 3 -59 15 0 20 23
30 74 33 32 1 46 -3 50 -14z m-177 -21 c3 -7 -17 -12 -61 -15 -54 -2 -66 0
-66 12 0 12 14 15 62 15 38 0 63 -4 65 -12z m161 -52 c12 -1 22 -7 22 -16 0
-12 -14 -15 -70 -15 -56 0 -68 3 -64 14 7 17 28 24 64 21 14 -2 35 -3 48 -4z
m-160 -19 c3 -11 -12 -13 -72 -10 -73 3 -84 6 -69 22 13 13 136 2 141 -12z
m462 -42 c0 -11 -7 -20 -15 -20 -18 0 -19 12 -3 28 16 16 18 15 18 -8z m-519
-10 c32 0 59 -3 59 -7 0 -5 -34 -8 -75 -8 -56 0 -75 3 -75 14 0 8 6 11 16 7 9
-3 42 -6 75 -6z m247 -7 c3 -10 -15 -13 -67 -13 -39 0 -71 4 -71 9 0 21 131
24 138 4z m0 -64 c2 -14 -6 -17 -50 -17 -71 0 -100 6 -95 21 9 29 139 25 145
-4z m-190 4 c2 -9 -11 -13 -50 -13 -61 0 -98 8 -98 22 0 14 143 5 148 -9z
m-279 -22 c10 -7 8 -12 -10 -25 -29 -20 -35 -20 -43 0 -12 30 20 46 53 25z
m764 -89 c-5 -21 -33 -32 -33 -13 0 11 31 44 36 39 2 -2 1 -14 -3 -26z"/>
</g>
</svg>
