<?xml version="1.0" standalone="no"?>
<!DOCTYPE svg PUBLIC "-//W3C//DTD SVG 20010904//EN"
 "http://www.w3.org/TR/2001/REC-SVG-20010904/DTD/svg10.dtd">
<svg version="1.0" xmlns="http://www.w3.org/2000/svg"
 width="132.000000pt" height="93.000000pt" viewBox="0 0 132.000000 93.000000"
 preserveAspectRatio="xMidYMid meet">
<metadata>
Created by potrace 1.16, written by Peter Selinger 2001-2019
</metadata>
<g transform="translate(0.000000,93.000000) scale(0.100000,-0.100000)"
fill="#000000" stroke="none">
<path d="M355 876 c-18 -13 -19 -17 -6 -38 13 -21 11 -25 -35 -66 -27 -24 -80
-64 -119 -90 -85 -57 -91 -77 -39 -118 20 -16 67 -59 104 -96 71 -71 80 -77
80 -54 0 16 -59 109 -72 114 -11 5 -10 50 1 56 5 3 7 14 5 24 -5 20 55 134 74
140 9 3 12 -24 14 -110 0 -62 1 -120 0 -128 -7 -102 -4 -262 5 -271 13 -13 14
-4 32 186 7 68 16 115 25 123 9 9 43 16 91 18 l76 4 -2 -130 c-2 -118 2 -152
16 -139 2 3 7 59 11 124 7 118 12 135 44 135 41 0 44 -13 45 -171 0 -113 3
-153 13 -156 9 -4 12 18 13 84 1 95 11 188 22 200 11 10 196 -192 282 -306 17
-22 38 -43 48 -46 12 -5 17 -17 17 -48 0 -42 14 -77 25 -66 3 4 8 35 11 70 11
121 47 296 99 481 14 48 25 101 25 117 0 36 -19 44 -101 39 -43 -2 -53 -6 -49
-18 2 -8 5 -46 5 -85 l0 -70 -35 -5 c-20 -4 -79 -4 -133 -2 l-97 4 0 39 c0 46
-8 48 -40 14 -31 -33 -41 -21 -29 35 19 86 18 95 -16 93 -78 -6 -77 -6 -73
-94 l3 -80 -30 3 c-30 3 -30 3 -26 58 2 30 7 64 11 76 5 11 5 26 0 33 -9 16
-56 10 -53 -7 2 -6 -1 -12 -6 -12 -5 0 -9 -27 -9 -60 1 -33 -2 -63 -6 -67 -3
-4 -27 3 -51 15 -25 12 -54 22 -65 22 -10 0 -21 4 -24 8 -3 5 8 49 25 97 16
49 27 95 25 101 -2 6 -19 14 -38 17 -18 3 -42 8 -53 11 -12 4 -28 1 -40 -8z
m95 -43 c0 -17 -34 -103 -41 -103 -10 0 -23 86 -14 99 7 12 55 15 55 4z m316
-105 c-2 -7 -10 -32 -17 -55 -6 -24 -15 -40 -20 -37 -12 7 -11 61 1 85 12 21
45 27 36 7z m460 -39 c-9 -55 -38 -114 -56 -114 -11 0 -15 17 -18 78 l-4 77
42 0 43 0 -7 -41z m-976 -34 c-11 -22 -20 -50 -20 -62 0 -29 -17 -29 -47 -1
-26 25 -29 38 -8 38 8 0 19 9 25 20 9 17 61 52 67 46 2 -1 -6 -20 -17 -41z
m220 -44 c0 -11 -39 -21 -45 -11 -2 4 -2 10 2 14 10 9 43 7 43 -3z m365 -82
c23 -43 14 -45 -25 -4 -31 32 -32 35 -12 35 14 0 27 -11 37 -31z m191 13 c40
2 76 0 79 -4 10 -10 8 -289 -3 -317 -7 -21 -11 -19 -49 36 -23 32 -56 72 -73
88 -52 48 -90 106 -90 136 0 15 -4 31 -10 34 -16 10 -11 33 8 37 9 3 28 1 41
-4 13 -5 57 -7 97 -6z m144 -40 c0 -9 -5 -24 -10 -32 -7 -11 -10 -5 -10 23 0
23 4 36 10 32 6 -3 10 -14 10 -23z"/>
<path d="M548 3 c12 -2 32 -2 45 0 12 2 2 4 -23 4 -25 0 -35 -2 -22 -4z"/>
</g>
</svg>
