<?xml version="1.0" standalone="no"?>
<!DOCTYPE svg PUBLIC "-//W3C//DTD SVG 20010904//EN"
 "http://www.w3.org/TR/2001/REC-SVG-20010904/DTD/svg10.dtd">
<svg version="1.0" xmlns="http://www.w3.org/2000/svg"
 width="154.000000pt" height="75.000000pt" viewBox="0 0 154.000000 75.000000"
 preserveAspectRatio="xMidYMid meet">
<metadata>
Created by potrace 1.16, written by Peter Selinger 2001-2019
</metadata>
<g transform="translate(0.000000,75.000000) scale(0.100000,-0.100000)"
fill="#000000" stroke="none">
<path d="M840 711 c-41 -5 -45 -9 -48 -36 -5 -59 -13 -75 -42 -90 -40 -21 -43
-19 -25 15 20 39 20 40 -14 40 -53 0 -61 -8 -61 -62 0 -58 -9 -79 -46 -103
-21 -13 -28 -14 -34 -4 -11 17 -1 77 21 121 11 20 15 39 10 42 -4 3 -28 2 -52
-2 l-44 -8 4 -62 3 -63 -37 15 c-21 9 -39 16 -40 16 -11 0 -36 107 -31 130 10
51 -13 43 -37 -12 -13 -29 -40 -67 -60 -85 l-36 -31 -68 15 c-37 8 -77 24 -88
34 -12 10 -32 20 -45 21 -21 3 -26 -2 -33 -39 -11 -48 -3 -78 18 -70 12 5 12
2 3 -19 -6 -13 -9 -26 -6 -29 3 -3 38 -1 77 6 80 12 104 8 99 -18 -3 -15 -14
-17 -86 -14 -77 3 -82 2 -82 -18 0 -19 4 -20 81 -14 86 6 99 1 99 -41 0 -20
-20 -20 -131 0 l-36 6 -12 -58 c-6 -33 -14 -70 -18 -83 -6 -22 -4 -23 23 -17
53 14 69 17 121 23 l51 6 7 -49 c3 -27 7 -55 8 -63 4 -28 27 -23 38 8 6 17 15
31 20 31 12 0 11 -6 -5 -38 -7 -15 -17 -42 -21 -60 -7 -32 -6 -34 16 -27 13 4
31 13 39 20 21 18 164 61 230 70 97 13 210 16 211 5 1 -6 3 -14 4 -20 1 -5 3
-20 4 -32 0 -12 4 -18 9 -14 8 8 9 14 11 50 1 17 11 27 39 39 l37 15 -32 1
c-37 1 -48 24 -39 76 6 29 13 36 54 49 76 25 167 35 323 38 l145 3 -2 -115
c-1 -119 4 -195 14 -185 3 3 7 34 9 68 9 180 56 376 121 504 38 74 35 77 -70
69 -51 -3 -96 -10 -101 -15 -5 -5 -4 -25 2 -47 6 -22 11 -52 11 -67 l0 -29
-77 7 c-290 23 -343 32 -343 55 0 6 14 37 30 70 17 33 30 64 30 70 0 11 -45
11 -120 1z m48 -113 c-25 -51 -50 -104 -56 -118 -9 -20 -11 -1 -9 90 l2 115
50 5 c28 3 52 4 54 3 2 -2 -16 -44 -41 -95z m528 -75 l-41 -108 -9 93 c-4 50
-6 99 -2 107 4 10 20 15 49 15 l45 0 -42 -107z m-1036 45 c0 -5 -7 -8 -15 -8
-15 0 -20 21 -8 33 7 7 23 -11 23 -25z m180 18 c0 -17 -14 -29 -23 -20 -8 8 3
34 14 34 5 0 9 -6 9 -14z m220 -72 c0 -38 -1 -78 0 -89 3 -107 -1 -260 -7
-266 -5 -5 -25 -6 -46 -2 l-37 6 -1 106 c0 58 -3 126 -5 151 -3 24 1 58 7 75
12 30 77 100 85 92 3 -2 4 -35 4 -73z m-699 13 c-13 -13 -26 -3 -16 12 3 6 11
8 17 5 6 -4 6 -10 -1 -17z m316 -20 c92 -31 125 -52 121 -80 -3 -20 -119 -127
-138 -127 -6 0 -10 15 -10 34 0 45 21 136 32 136 4 0 8 5 8 10 0 18 -22 10
-27 -10 -3 -13 -13 -19 -27 -17 -20 2 -21 -1 -18 -93 4 -94 3 -96 -21 -109
-41 -22 -55 -9 -53 46 1 27 6 55 11 63 4 7 8 29 7 48 -1 20 3 41 9 48 15 18 1
36 -22 29 -12 -4 -19 -2 -19 7 0 11 27 25 70 37 3 0 38 -10 77 -22z m-167 -1
c0 -17 -21 -26 -47 -21 -10 2 -35 7 -56 10 -58 9 -34 25 39 25 48 0 64 -3 64
-14z m680 -6 c-20 -13 -40 -13 -40 0 0 6 12 10 28 10 21 0 24 -2 12 -10z m417
-22 c8 -6 13 -34 13 -71 l0 -60 -192 6 c-106 4 -214 10 -240 13 -48 7 -48 7
-48 45 0 46 17 58 110 75 75 15 338 8 357 -8z m-677 -33 l0 -35 -25 16 c-30
19 -29 18 -9 38 24 25 34 19 34 -19z m5 -80 c3 -11 6 -60 8 -110 l2 -90 -35
-3 c-58 -4 -62 4 -68 128 -4 86 -2 114 8 120 19 12 80 -20 85 -45z m-121 -17
c3 -13 6 -55 6 -95 0 -85 -3 -88 -110 -77 -58 5 -70 10 -70 25 0 18 141 169
158 169 5 0 12 -10 16 -22z m361 -27 c-6 -5 -22 -13 -38 -16 -22 -6 -26 -4
-21 9 4 10 18 16 37 16 19 0 27 -4 22 -9z m-775 -5 c0 -2 -7 -7 -16 -10 -8 -3
-12 -2 -9 4 6 10 25 14 25 6z m120 -37 l0 -31 -75 7 c-52 5 -75 3 -75 -4 0 -6
5 -11 10 -11 6 0 10 -4 10 -10 0 -5 -9 -10 -21 -10 -18 0 -20 4 -14 28 3 15
10 28 14 30 5 1 17 9 27 17 11 8 42 15 72 15 52 0 52 0 52 -31z m90 -61 c0
-14 -30 -48 -42 -48 -15 0 -8 39 10 49 23 14 32 13 32 -1z m134 -88 c5 -5 -4
-12 -20 -16 -16 -4 -49 -16 -73 -26 -24 -10 -46 -17 -48 -15 -5 6 17 61 27 67
13 8 103 -1 114 -10z"/>
</g>
</svg>
