<?xml version="1.0" standalone="no"?>
<!DOCTYPE svg PUBLIC "-//W3C//DTD SVG 20010904//EN"
 "http://www.w3.org/TR/2001/REC-SVG-20010904/DTD/svg10.dtd">
<svg version="1.0" xmlns="http://www.w3.org/2000/svg"
 width="117.000000pt" height="90.000000pt" viewBox="0 0 117.000000 90.000000"
 preserveAspectRatio="xMidYMid meet">
<metadata>
Created by potrace 1.16, written by Peter Selinger 2001-2019
</metadata>
<g transform="translate(0.000000,90.000000) scale(0.100000,-0.100000)"
fill="#000000" stroke="none">
<path d="M124 819 c-13 -22 -32 -129 -23 -135 5 -3 26 0 46 5 21 6 57 11 79
11 24 0 47 6 53 14 10 11 33 13 119 8 59 -3 207 -5 329 -4 l223 2 6 -24 c3
-13 4 -35 2 -47 -3 -24 -4 -24 -118 -23 -271 3 -250 0 -263 34 -9 25 -17 30
-44 30 -44 0 -83 -16 -83 -35 0 -15 -31 -21 -43 -9 -3 4 1 17 10 30 21 33 4
30 -23 -3 l-22 -27 -125 3 c-119 2 -126 1 -146 -20 -23 -25 -24 -57 0 -50 8 2
41 9 74 15 33 6 65 15 72 19 7 4 24 5 38 1 l26 -7 -24 -26 c-13 -14 -27 -34
-31 -45 -5 -16 -13 -17 -49 -12 -23 4 -56 12 -73 18 -43 15 -68 5 -54 -21 5
-11 10 -29 10 -40 0 -25 11 -26 65 -6 22 8 63 14 92 15 45 0 54 -4 77 -31 14
-17 26 -35 26 -40 0 -15 -102 -10 -153 7 -74 25 -97 17 -115 -39 -8 -26 -13
-50 -10 -52 3 -3 31 1 64 10 32 8 73 15 91 15 17 0 35 4 38 10 6 10 95 7 113
-4 12 -7 52 -87 52 -103 0 -6 7 -14 16 -17 13 -5 15 -15 10 -47 -7 -47 3 -144
14 -132 4 4 10 63 12 129 3 91 8 128 21 147 l16 25 213 -5 c117 -3 223 -10
236 -14 22 -8 22 -11 18 -144 -4 -129 4 -173 23 -123 4 13 9 86 10 163 1 157
2 165 41 325 35 139 36 147 26 188 -8 33 -11 35 -71 35 -69 0 -75 -2 -75 -23
0 -19 -7 -20 -112 -22 -342 -7 -628 22 -680 68 -12 12 -18 12 -24 3z m95 -72
l23 -12 -23 -6 c-48 -14 -79 -10 -79 9 0 10 3 21 6 24 7 7 42 0 73 -15z m819
5 c2 -7 -6 -12 -17 -12 -21 0 -27 11 -14 24 9 9 26 2 31 -12z m7 -82 c0 -38
-3 -45 -20 -45 -17 0 -20 8 -23 48 -3 46 -2 48 20 45 20 -3 23 -9 23 -48z
m-555 -20 c0 -5 -4 -10 -10 -10 -5 0 -10 5 -10 10 0 6 5 10 10 10 6 0 10 -4
10 -10z m-48 -55 c4 -5 8 -27 8 -47 0 -35 -2 -38 -27 -38 -45 0 -56 13 -48 51
4 19 9 37 11 41 6 10 48 5 56 -7z m78 -10 c7 -9 9 -26 5 -45 -5 -24 -11 -30
-28 -28 -15 2 -23 13 -28 38 -4 19 -5 38 -3 42 8 13 41 9 54 -7z m454 -28 c16
-62 10 -64 -221 -57 -111 3 -204 7 -207 10 -3 3 0 25 6 48 l11 42 201 -2 201
-3 9 -38z m56 3 c0 -16 -4 -30 -10 -30 -5 0 -10 14 -10 30 0 17 5 30 10 30 6
0 10 -13 10 -30z m-687 4 c3 -4 2 -15 -4 -26 -10 -19 -12 -19 -30 -2 -10 9
-16 21 -13 25 6 10 38 12 47 3z m110 -112 c11 -59 -44 -72 -70 -16 -20 41 -10
53 36 46 22 -3 30 -11 34 -30z m47 11 c0 -10 -4 -24 -9 -31 -6 -11 -9 -10 -13
5 -3 10 -3 24 -1 31 7 18 23 15 23 -5z m416 8 l62 -1 4 -34 c2 -19 2 -38 1
-43 -5 -14 -441 -2 -464 13 -4 2 -3 18 2 34 11 29 12 29 92 32 45 2 118 2 162
1 44 -1 108 -2 141 -2z m-748 -80 c10 -6 5 -11 -19 -20 -36 -12 -44 -9 -36 14
7 16 34 20 55 6z m290 -45 c3 -12 -1 -17 -10 -14 -7 3 -15 13 -16 22 -3 12 1
17 10 14 7 -3 15 -13 16 -22z"/>
</g>
</svg>
