<?xml version="1.0" standalone="no"?>
<!DOCTYPE svg PUBLIC "-//W3C//DTD SVG 20010904//EN"
 "http://www.w3.org/TR/2001/REC-SVG-20010904/DTD/svg10.dtd">
<svg version="1.0" xmlns="http://www.w3.org/2000/svg"
 width="133.000000pt" height="96.000000pt" viewBox="0 0 133.000000 96.000000"
 preserveAspectRatio="xMidYMid meet">
<metadata>
Created by potrace 1.16, written by Peter Selinger 2001-2019
</metadata>
<g transform="translate(0.000000,96.000000) scale(0.100000,-0.100000)"
fill="#000000" stroke="none">
<path d="M583 903 c-31 -3 -54 -9 -55 -16 0 -7 -1 -32 -2 -56 l-1 -44 -55 -13
c-30 -7 -72 -13 -93 -14 -21 0 -47 -4 -57 -10 -37 -20 -126 -23 -161 -6 -43
21 -52 11 -57 -65 -6 -79 9 -96 44 -51 21 26 71 62 86 62 6 0 8 -225 2 -242
-7 -22 -43 -10 -98 34 -43 34 -50 31 -60 -32 -3 -20 -15 -49 -26 -63 -26 -33
-25 -41 3 -33 12 4 49 11 82 15 81 12 105 -3 105 -62 0 -23 5 -49 10 -57 5 -8
10 -13 11 -10 0 3 2 16 5 30 2 14 6 31 9 38 6 17 50 15 64 -2 7 -8 25 -18 41
-21 16 -4 39 -14 52 -24 38 -29 98 -61 114 -61 11 0 14 -15 14 -65 0 -37 4
-65 10 -65 6 0 10 6 11 13 6 128 18 230 27 239 15 15 113 22 132 9 12 -8 15
-34 15 -120 0 -60 3 -107 7 -105 9 6 20 101 22 178 l1 61 42 3 c57 4 65 -13
72 -170 4 -70 10 -130 14 -134 17 -17 21 15 19 136 -4 173 -6 170 113 170 116
0 117 -1 117 -141 1 -72 4 -99 13 -99 20 0 25 36 25 186 0 95 5 154 14 181 8
22 21 89 31 149 9 60 22 135 29 166 8 31 11 60 8 63 -18 18 -109 -8 -116 -33
-3 -10 -8 -44 -11 -77 -8 -91 -10 -95 -58 -95 -23 0 -72 3 -109 6 l-67 7 6 48
6 49 -48 0 -48 0 7 -41 c4 -22 7 -45 9 -52 3 -14 -178 -12 -215 4 -32 13 -32
25 2 140 23 77 25 100 8 97 -7 -1 -37 -3 -65 -5z m43 -55 c-2 -7 -12 -38 -22
-68 -23 -78 -30 -80 -37 -11 -8 76 -3 91 35 91 20 0 28 -4 24 -12z m624 -50
c-1 -7 -7 -31 -15 -53 -8 -22 -15 -48 -15 -57 0 -10 -6 -18 -14 -18 -10 0 -15
15 -18 48 -5 79 -1 92 33 92 17 0 29 -5 29 -12z m-710 -79 c0 -27 -3 -30 -22
-23 -13 4 -32 13 -42 20 -15 10 -16 14 -5 18 8 2 21 7 29 9 32 11 40 7 40 -24z
m356 -20 c1 -16 -2 -29 -6 -29 -11 0 -22 49 -14 61 9 16 19 1 20 -32z m-524 4
c0 -10 0 -30 -1 -44 -2 -23 4 -28 50 -43 72 -24 129 -62 129 -86 0 -19 -7 -17
-77 21 -43 23 -84 47 -90 52 -20 15 -43 0 -43 -28 0 -16 -6 -25 -15 -25 -10 0
-15 -10 -15 -32 0 -18 -7 -42 -15 -52 -20 -27 -19 -36 5 -36 22 0 99 -36 163
-77 21 -13 49 -28 62 -33 47 -18 27 23 -28 58 -29 17 -77 47 -107 66 -53 34
-54 35 -27 41 20 5 44 -2 99 -30 40 -21 79 -42 86 -47 7 -7 12 -37 12 -84 0
-84 -6 -89 -61 -48 -19 14 -70 43 -114 66 -113 57 -115 59 -115 137 1 36 8 84
17 106 8 22 22 61 31 88 11 33 22 47 34 47 10 0 19 -8 20 -17z m-212 -17 c0
-3 -4 -8 -10 -11 -5 -3 -10 -1 -10 4 0 6 5 11 10 11 6 0 10 -2 10 -4z m120
-38 c0 -19 -2 -20 -10 -8 -13 19 -13 30 0 30 6 0 10 -10 10 -22z m214 8 c21
-7 43 -21 48 -30 12 -22 4 -20 -59 9 -75 36 -68 49 11 21z m664 -174 c-2 -80
-6 -96 -18 -94 -8 2 -52 3 -97 3 -45 0 -84 3 -87 7 -6 10 31 123 44 136 6 6
10 19 10 29 0 17 -6 19 -54 15 -48 -4 -53 -3 -48 14 5 20 5 20 126 23 68 1 91
5 95 16 3 9 9 2 18 -19 9 -23 13 -66 11 -130z m-430 44 c20 -135 22 -129 -45
-121 -64 7 -77 15 -80 48 0 12 -4 32 -8 45 -6 19 -4 22 18 22 31 0 45 18 22
26 -17 7 -38 50 -31 62 2 4 28 6 58 4 l54 -4 12 -82z m130 49 c2 -16 7 -32 11
-35 5 -3 11 -35 15 -71 6 -66 6 -67 -20 -72 -14 -2 -38 -1 -53 2 -23 7 -27 14
-33 62 -8 60 -3 93 19 127 21 34 57 26 61 -13z m-431 -46 c82 -45 67 -53 -17
-9 -30 16 -47 29 -38 30 10 0 34 -9 55 -21z m533 -14 c0 -19 -22 -65 -30 -65
-16 0 -18 65 -3 77 18 14 33 8 33 -12z m-410 -59 c0 -9 -41 8 -52 22 -11 13
-8 12 20 -2 17 -9 32 -18 32 -20z m367 -82 c-3 -3 -12 -4 -19 -1 -8 3 -5 6 6
6 11 1 17 -2 13 -5z"/>
</g>
</svg>
