<?xml version="1.0" standalone="no"?>
<!DOCTYPE svg PUBLIC "-//W3C//DTD SVG 20010904//EN"
 "http://www.w3.org/TR/2001/REC-SVG-20010904/DTD/svg10.dtd">
<svg version="1.0" xmlns="http://www.w3.org/2000/svg"
 width="88.000000pt" height="72.000000pt" viewBox="0 0 88.000000 72.000000"
 preserveAspectRatio="xMidYMid meet">
<metadata>
Created by potrace 1.16, written by Peter Selinger 2001-2019
</metadata>
<g transform="translate(0.000000,72.000000) scale(0.100000,-0.100000)"
fill="#000000" stroke="none">
<path d="M192 646 c-16 -35 -31 -50 -81 -77 -69 -38 -67 -33 -50 -159 11 -88
13 -184 3 -293 -6 -68 -5 -77 9 -71 9 3 18 23 22 44 7 39 35 73 70 84 18 5 20
1 20 -51 0 -82 21 -79 31 4 8 58 13 69 34 80 14 7 28 9 32 5 4 -4 9 -36 10
-70 2 -41 7 -62 16 -62 12 0 17 32 13 79 -4 46 8 71 34 71 23 0 25 -4 25 -47
0 -61 10 -123 20 -123 4 0 11 28 14 62 11 93 29 124 84 143 26 10 65 25 88 36
22 10 71 23 109 28 44 6 72 16 77 26 5 8 20 15 33 15 42 0 27 24 -33 51 -114
53 -131 59 -157 59 -15 0 -46 9 -69 19 -23 11 -75 34 -116 52 -96 42 -165 86
-181 116 -18 34 -36 28 -57 -21z m94 -74 c17 -11 15 -12 -15 -7 -18 3 -44 5
-57 5 -28 0 -31 16 -8 41 14 16 16 16 38 -5 12 -11 31 -27 42 -34z m139 -67
c39 -13 89 -33 113 -45 23 -11 61 -24 85 -29 66 -13 97 -29 97 -49 0 -15 -18
-22 -102 -42 -57 -12 -117 -30 -135 -38 -59 -28 -80 8 -48 85 18 42 9 59 -28
49 -30 -7 -38 -35 -31 -101 5 -39 3 -54 -9 -64 -38 -31 -42 2 -21 155 5 35 3
42 -14 46 -39 11 -45 -4 -40 -107 4 -75 2 -100 -9 -111 -18 -17 -18 -17 -37 2
-23 22 -20 107 4 172 11 29 20 58 20 66 0 16 -60 28 -74 16 -5 -5 -8 -68 -7
-139 l2 -131 -31 0 c-40 0 -45 17 -27 82 14 51 19 76 33 163 3 22 8 43 11 48
8 14 178 -5 248 -28z m-295 6 c0 -34 -12 -81 -21 -81 -10 0 -12 83 -2 93 12
13 23 7 23 -12z m40 -309 c0 -9 -57 -32 -64 -25 -2 3 -2 11 1 19 5 14 63 20
63 6z"/>
</g>
</svg>
