<?xml version="1.0" standalone="no"?>
<!DOCTYPE svg PUBLIC "-//W3C//DTD SVG 20010904//EN"
 "http://www.w3.org/TR/2001/REC-SVG-20010904/DTD/svg10.dtd">
<svg version="1.0" xmlns="http://www.w3.org/2000/svg"
 width="162.000000pt" height="81.000000pt" viewBox="0 0 162.000000 81.000000"
 preserveAspectRatio="xMidYMid meet">
<metadata>
Created by potrace 1.16, written by Peter Selinger 2001-2019
</metadata>
<g transform="translate(0.000000,81.000000) scale(0.100000,-0.100000)"
fill="#000000" stroke="none">
<path d="M640 752 c-47 -4 -60 -14 -60 -49 0 -12 -4 -24 -9 -28 -6 -3 -73 -16
-151 -29 -121 -21 -151 -23 -211 -14 -51 8 -73 8 -82 -1 -14 -14 -22 -127 -10
-134 6 -4 39 14 74 38 36 24 76 46 89 47 25 3 25 1 32 -91 8 -98 0 -128 -29
-116 -8 3 -39 21 -69 41 -56 37 -84 39 -84 6 0 -11 -13 -45 -28 -76 -16 -31
-25 -56 -21 -56 5 0 28 10 51 22 48 25 148 29 175 6 9 -7 33 -14 54 -15 22 -2
53 -10 69 -18 16 -8 36 -15 45 -15 9 0 32 -12 50 -26 20 -15 39 -23 46 -18 9
5 10 -7 5 -52 -9 -73 -8 -126 4 -138 17 -17 27 31 29 139 1 61 4 118 7 127 3
10 21 19 47 23 23 4 47 11 52 15 14 10 377 29 535 28 111 -1 135 1 135 13 0
12 -43 14 -285 12 -222 -2 -306 1 -380 13 -52 9 -97 18 -99 20 -2 2 1 22 8 44
9 31 17 40 34 40 75 2 196 12 217 19 14 4 123 8 243 9 120 0 236 3 257 7 48 8
54 -1 52 -84 0 -48 -5 -67 -17 -74 -12 -6 -13 -12 -5 -22 13 -15 18 -54 21
-168 3 -92 24 -107 27 -19 4 93 20 206 36 253 9 24 16 51 16 59 0 8 12 57 26
108 15 53 23 97 18 102 -11 10 -135 -7 -148 -20 -6 -6 -5 -14 2 -22 6 -7 12
-31 14 -53 l3 -40 -290 -2 c-269 -2 -457 9 -478 27 -5 4 3 41 17 81 13 41 21
76 18 79 -4 3 -27 4 -52 2z m20 -29 c0 -5 -8 -30 -19 -57 -16 -43 -19 -46 -24
-25 -4 13 -7 39 -7 57 0 28 3 32 25 32 14 0 25 -3 25 -7z m845 -111 c-9 -29
-20 -52 -24 -52 -12 0 -34 91 -24 101 12 10 47 17 56 9 4 -3 0 -29 -8 -58z
m-915 -2 c0 -33 -11 -38 -30 -15 -10 12 -10 18 0 30 19 23 30 18 30 -15z
m-125 -27 c-19 -27 -43 -57 -54 -69 -12 -12 -21 -25 -21 -30 0 -5 24 -22 53
-38 28 -16 66 -40 84 -53 17 -13 34 -20 37 -15 6 11 -10 26 -77 71 -31 21 -47
39 -45 49 5 24 34 16 95 -26 l52 -37 -3 -65 c-2 -36 -4 -80 -5 -97 l-1 -33
-62 33 c-35 17 -88 41 -118 53 -62 23 -74 50 -23 48 17 -1 64 -18 103 -38 68
-35 90 -40 76 -18 -3 5 -35 27 -72 48 -37 21 -76 51 -87 67 -12 15 -27 27 -35
27 -11 0 -13 9 -8 38 3 20 6 53 6 74 0 33 3 37 38 46 20 5 52 10 69 11 l33 1
-35 -47z m-246 8 c11 -7 7 -14 -20 -30 -42 -26 -49 -26 -49 -3 0 35 37 53 69
33z m351 -44 c11 -14 20 -37 20 -52 l0 -27 -46 34 c-59 42 -72 61 -55 81 10
13 16 13 36 3 14 -7 34 -25 45 -39z m907 -29 c-3 -7 -5 -2 -5 12 0 14 2 19 5
13 2 -7 2 -19 0 -25z m-1293 -134 c24 -9 19 -23 -10 -35 -32 -12 -38 -7 -29
20 7 22 14 25 39 15z m524 -16 c-5 -15 -42 -22 -64 -14 -25 10 -5 26 32 26 24
0 34 -4 32 -12z"/>
</g>
</svg>
