<?xml version="1.0" standalone="no"?>
<!DOCTYPE svg PUBLIC "-//W3C//DTD SVG 20010904//EN"
 "http://www.w3.org/TR/2001/REC-SVG-20010904/DTD/svg10.dtd">
<svg version="1.0" xmlns="http://www.w3.org/2000/svg"
 width="71.000000pt" height="102.000000pt" viewBox="0 0 71.000000 102.000000"
 preserveAspectRatio="xMidYMid meet">
<metadata>
Created by potrace 1.16, written by Peter Selinger 2001-2019
</metadata>
<g transform="translate(0.000000,102.000000) scale(0.100000,-0.100000)"
fill="#000000" stroke="none">
<path d="M266 945 c-15 -8 -35 -15 -43 -15 -14 0 -14 -14 -7 -102 5 -57 8
-130 7 -163 -2 -55 -1 -58 12 -41 9 12 15 42 15 77 0 75 18 159 36 166 8 3 14
11 14 18 0 6 9 20 20 30 20 18 20 17 21 -11 0 -16 2 -38 4 -49 15 -90 20 -243
9 -254 -3 -3 -50 -7 -106 -9 -72 -2 -111 -8 -131 -20 -28 -17 -28 -18 -23 -92
3 -41 8 -149 12 -240 3 -91 8 -172 11 -180 12 -34 22 30 22 150 1 117 3 129
30 185 17 33 35 81 43 108 7 26 18 47 24 47 16 0 33 -121 41 -286 4 -98 9
-134 19 -134 9 0 14 34 17 127 3 71 7 140 10 154 5 25 55 127 80 161 9 14 9
22 -1 38 -6 11 -12 51 -12 90 0 62 5 79 40 147 22 43 40 83 40 89 0 6 -27 14
-61 18 -90 9 -111 8 -143 -9z m1 -55 c-11 -16 -17 -18 -22 -9 -5 7 -1 18 10
25 25 18 31 10 12 -16z m132 21 c12 -8 12 -14 1 -40 -17 -43 -30 -39 -30 9 0
41 5 46 29 31z m-55 -373 c-3 -13 -11 -24 -15 -26 -5 -2 -9 -10 -9 -17 0 -8
-5 -17 -12 -21 -7 -4 -8 -3 -4 4 4 7 2 12 -3 12 -19 0 -13 58 7 63 38 10 44 8
36 -15z m-164 0 c-1 -7 -9 -42 -19 -78 -13 -47 -20 -59 -24 -45 -5 17 -11 105
-8 128 2 13 51 8 51 -5z"/>
<path d="M565 951 c-34 -7 -33 6 -22 -220 l6 -133 -26 5 c-49 9 -118 -27 -108
-56 5 -15 31 -224 41 -327 3 -41 10 -84 14 -95 7 -19 8 -18 13 5 3 14 8 72 11
129 5 95 9 110 46 189 23 47 50 98 62 114 l20 29 -22 6 c-22 6 -23 9 -16 95 6
86 12 107 58 207 17 36 18 45 7 52 -16 10 -40 10 -84 0z m45 -41 c0 -5 -5 -21
-12 -35 -13 -29 -28 -17 -28 23 0 15 6 22 20 22 11 0 20 -4 20 -10z m-50 -353
c0 -2 -12 -28 -26 -57 -14 -30 -30 -65 -35 -79 -5 -13 -12 -22 -14 -19 -8 7
-24 141 -19 150 5 7 94 12 94 5z"/>
<path d="M103 943 c-39 -8 -45 -26 -35 -105 10 -75 12 -108 14 -190 1 -27 4
-48 8 -48 15 0 22 36 22 115 0 67 4 88 26 130 15 28 31 53 35 56 5 4 7 15 5
25 -3 19 -32 26 -75 17z m41 -45 c-19 -33 -27 -39 -35 -26 -4 7 -3 18 3 25 14
17 42 17 32 1z"/>
</g>
</svg>
