<?xml version="1.0" standalone="no"?>
<!DOCTYPE svg PUBLIC "-//W3C//DTD SVG 20010904//EN"
 "http://www.w3.org/TR/2001/REC-SVG-20010904/DTD/svg10.dtd">
<svg version="1.0" xmlns="http://www.w3.org/2000/svg"
 width="167.000000pt" height="90.000000pt" viewBox="0 0 167.000000 90.000000"
 preserveAspectRatio="xMidYMid meet">
<metadata>
Created by potrace 1.16, written by Peter Selinger 2001-2019
</metadata>
<g transform="translate(0.000000,90.000000) scale(0.100000,-0.100000)"
fill="#000000" stroke="none">
<path d="M961 811 c-24 -66 -78 -127 -123 -136 -19 -5 -30 -15 -34 -31 -5 -21
-11 -24 -50 -22 -30 1 -50 -4 -64 -17 -19 -18 -20 -17 -20 6 0 13 7 59 15 102
8 43 15 83 15 88 0 5 -33 9 -74 9 -86 0 -94 -8 -77 -81 21 -89 10 -108 -39
-68 -17 14 -21 22 -12 26 6 2 12 9 12 14 0 12 -33 12 -62 0 -47 -20 -195 -63
-258 -77 -74 -15 -94 -34 -85 -79 18 -86 18 -88 -29 -159 -25 -38 -46 -73 -46
-77 0 -13 38 -11 45 2 8 12 179 2 208 -13 9 -5 17 -18 17 -28 0 -22 20 -26 37
-9 8 8 42 -6 122 -47 l111 -58 0 -57 c0 -53 12 -81 27 -65 4 3 10 59 15 123 5
65 13 122 17 126 5 4 49 11 100 14 l91 6 0 -50 c0 -27 5 -54 11 -60 8 -8 4
-22 -12 -51 -22 -38 -22 -61 0 -48 5 3 27 32 49 64 21 31 61 80 88 108 l50 52
120 6 c65 4 143 11 173 16 87 16 149 13 159 -7 5 -10 12 -58 16 -107 6 -85 10
-105 20 -95 3 3 6 51 7 108 2 71 6 104 15 108 8 3 11 16 7 36 -3 21 10 78 38
167 23 74 42 149 43 165 l1 30 -69 -2 c-37 -1 -73 -6 -78 -11 -6 -6 -10 -38
-9 -71 1 -48 -2 -62 -17 -70 -14 -8 -239 -16 -330 -12 -13 1 -41 19 -63 40
-37 38 -39 43 -40 108 -1 37 2 85 6 106 6 29 4 37 -8 37 -8 0 -23 -23 -36 -59z
m-320 -44 c0 -4 -3 -30 -7 -58 -5 -40 -9 -47 -16 -34 -20 35 -28 78 -16 92 11
14 39 14 39 0z m919 -69 c0 -13 -12 -54 -25 -93 -14 -38 -25 -80 -25 -92 0
-12 -3 -24 -7 -26 -13 -8 -8 175 5 206 15 34 52 38 52 5z m-1135 -83 c-8 -26
-13 -50 -10 -53 3 -3 -7 -21 -21 -40 -31 -39 -25 -47 41 -57 85 -12 127 -28
137 -51 6 -12 8 -30 5 -38 -7 -19 -38 -11 -125 33 -42 21 -70 30 -84 25 -21
-6 -21 -4 -13 67 4 41 9 90 10 108 2 30 7 37 36 47 19 6 35 10 37 9 2 -2 -4
-24 -13 -50z m509 40 c13 -10 17 -21 12 -40 -6 -22 -11 -26 -39 -23 -25 2 -33
8 -35 26 -4 25 13 52 32 52 6 0 19 -7 30 -15z m-396 -55 c31 -19 43 -40 21
-40 -24 0 -99 23 -99 31 0 7 29 28 40 29 3 0 20 -9 38 -20z m-230 -162 c2 -54
0 -98 -4 -98 -4 0 -26 11 -48 24 -42 25 -86 75 -86 98 1 23 74 122 100 135 24
12 25 11 30 -25 3 -20 7 -81 8 -134z m-146 110 c-7 -7 -12 -8 -12 -2 0 14 12
26 19 19 2 -3 -1 -11 -7 -17z m1282 4 c3 -5 8 -43 11 -85 6 -74 6 -77 -17 -86
-25 -11 -357 -35 -365 -27 -14 13 13 46 57 70 27 15 52 36 55 48 7 20 4 24
-35 48 -8 4 -13 11 -10 14 17 17 294 33 304 18z m-911 -34 c20 -10 37 -25 37
-33 0 -8 -3 -15 -7 -15 -13 0 -111 59 -118 70 -9 15 39 3 88 -22z m271 -5 c9
-55 7 -141 -2 -147 -5 -3 -40 4 -77 16 -53 15 -73 18 -87 9 -10 -6 -18 -7 -18
-2 0 6 7 14 17 19 9 6 14 16 10 25 -3 9 1 21 8 27 11 9 12 17 5 30 -16 30 -12
52 8 46 9 -2 35 -1 57 4 70 14 72 13 79 -27z m137 -53 c3 -47 2 -89 -2 -94
-10 -11 -75 -13 -85 -3 -12 12 -15 133 -4 161 9 24 15 27 47 24 l38 -3 6 -85z
m116 84 c22 -6 22 -6 -6 -35 -16 -16 -35 -42 -43 -59 -7 -16 -16 -30 -19 -30
-17 0 -24 63 -13 108 7 23 34 28 81 16z m43 -67 c0 -7 -16 -28 -35 -47 -40
-39 -43 -35 -15 20 19 38 50 54 50 27z m-945 -107 c18 -20 17 -20 -19 -20 -34
0 -36 2 -26 20 6 11 14 20 19 20 4 0 16 -9 26 -20z m281 0 c6 -6 40 -18 75
-28 l64 -17 3 -53 c3 -56 -13 -77 -42 -53 -8 6 -51 31 -97 55 -51 26 -85 50
-88 61 -6 34 60 60 85 35z m484 -47 c0 -15 -53 -113 -62 -113 -5 0 -8 23 -6
52 3 46 6 53 28 59 35 10 40 10 40 2z"/>
<path d="M1661 844 c0 -11 3 -14 6 -6 3 7 2 16 -1 19 -3 4 -6 -2 -5 -13z"/>
</g>
</svg>
