<?xml version="1.0" standalone="no"?>
<!DOCTYPE svg PUBLIC "-//W3C//DTD SVG 20010904//EN"
 "http://www.w3.org/TR/2001/REC-SVG-20010904/DTD/svg10.dtd">
<svg version="1.0" xmlns="http://www.w3.org/2000/svg"
 width="157.000000pt" height="83.000000pt" viewBox="0 0 157.000000 83.000000"
 preserveAspectRatio="xMidYMid meet">
<metadata>
Created by potrace 1.16, written by Peter Selinger 2001-2019
</metadata>
<g transform="translate(0.000000,83.000000) scale(0.100000,-0.100000)"
fill="#000000" stroke="none">
<path d="M663 763 c-54 -3 -63 -7 -63 -23 0 -26 -41 -46 -120 -60 -36 -6 -95
-20 -131 -31 -38 -11 -96 -19 -136 -19 -85 0 -103 -14 -103 -82 0 -85 15 -96
64 -48 60 57 101 90 112 90 17 0 19 -29 16 -161 l-3 -116 -37 13 c-20 7 -44
13 -53 14 -9 0 -33 11 -53 25 -20 14 -43 25 -51 25 -14 0 -75 -113 -75 -138 0
-16 15 -15 29 2 6 7 38 21 71 30 56 16 61 16 117 -3 56 -19 58 -21 65 -62 10
-56 25 -71 33 -33 13 57 12 56 58 49 44 -8 209 -53 215 -60 3 -2 6 -26 9 -52
6 -67 11 -79 25 -65 6 6 11 27 10 46 -1 21 5 42 15 51 13 14 14 20 3 39 -6 13
-10 34 -8 46 4 31 40 41 153 40 50 -1 119 2 155 6 133 15 137 13 176 -98 11
-32 25 -60 29 -61 5 -1 18 34 29 77 12 43 28 83 37 89 9 6 46 7 92 2 l77 -7 1
-61 c0 -34 4 -70 8 -80 6 -17 9 -17 19 -4 8 9 14 66 18 158 4 123 9 155 35
236 41 126 39 136 -31 144 -30 3 -59 2 -65 -3 -5 -5 -10 -30 -10 -56 l0 -47
-60 0 -60 0 2 52 c1 29 9 66 18 82 19 37 19 41 1 41 -8 0 -24 -16 -36 -35 -12
-19 -42 -49 -66 -66 -24 -16 -44 -38 -44 -47 0 -31 -37 -44 -102 -37 -55 7
-59 9 -53 29 15 47 17 66 8 66 -12 0 -43 -33 -57 -63 -6 -12 -22 -23 -35 -25
-27 -4 -171 26 -171 36 0 4 9 32 21 62 37 96 36 100 -2 98 -19 -1 -62 -3 -96
-5z m62 -72 c-32 -92 -55 -102 -55 -25 0 37 4 46 23 54 43 17 47 13 32 -29z
m-105 -36 c0 -19 -5 -25 -22 -25 -64 1 -52 38 15 49 4 0 7 -10 7 -24z m-150
-54 c-14 -20 -19 -38 -15 -54 5 -19 2 -25 -13 -29 -16 -5 -40 -54 -30 -63 2
-1 28 -5 58 -8 117 -12 150 -33 150 -91 0 -22 -4 -36 -8 -31 -8 13 -106 61
-142 71 -14 3 -33 13 -42 21 -9 8 -21 13 -25 10 -5 -3 -14 -2 -21 2 -9 5 -3
33 22 107 28 81 38 100 58 105 31 7 34 -5 8 -40z m1020 35 c0 -3 -5 -17 -11
-33 -10 -26 -12 -27 -19 -8 -14 33 -11 45 10 45 11 0 20 -2 20 -4z m-1280 -54
c0 -5 -11 -19 -25 -32 -23 -21 -25 -22 -31 -5 -5 12 -1 23 11 31 21 16 45 18
45 6z m157 -33 c-11 -28 -12 -29 -15 -10 -4 28 5 54 17 47 5 -4 4 -19 -2 -37z
m243 26 c7 -8 10 -22 6 -30 -5 -15 -8 -15 -28 -1 -12 9 -34 16 -47 16 -41 0
-3 24 45 29 6 0 17 -6 24 -14z m147 -31 c-3 -3 -12 -4 -19 -1 -8 3 -5 6 6 6
11 1 17 -2 13 -5z m643 -41 l0 -37 -30 29 c-31 30 -27 45 13 45 13 0 17 -8 17
-37z m-827 1 c35 -11 47 -20 47 -34 0 -11 -2 -20 -5 -20 -3 0 -37 14 -75 32
-49 21 -67 34 -58 39 7 5 20 6 28 3 8 -3 36 -12 63 -20z m482 16 c8 -13 -42
-43 -60 -36 -8 3 -15 15 -15 26 0 16 6 20 34 20 19 0 37 -4 41 -10z m233 -20
c23 -17 42 -34 42 -38 0 -10 -124 -112 -135 -112 -13 0 4 107 22 145 9 19 20
35 23 35 4 0 26 -14 48 -30z m-408 5 c0 -8 12 -21 28 -30 l27 -16 -30 6 c-69
14 -70 14 -73 -37 -3 -53 5 -59 54 -33 30 15 50 10 21 -6 -9 -6 -17 -19 -17
-29 0 -19 -8 -20 -101 -20 l-101 0 7 68 c4 37 13 73 20 81 14 15 72 27 133 30
22 1 32 -4 32 -14z m259 -52 c6 -38 14 -80 17 -95 l6 -28 -96 1 c-53 1 -98 5
-101 9 -5 9 14 80 22 80 3 0 28 -14 56 -31 39 -24 52 -28 58 -17 6 9 -2 23
-27 47 l-36 33 33 34 c18 19 38 34 45 34 7 0 16 -28 23 -67z m259 -36 c15 -16
21 -32 18 -48 -3 -13 -5 -27 -5 -31 -1 -5 -32 -8 -70 -8 l-69 0 15 33 c17 33
60 76 79 77 6 0 20 -11 32 -23z m-933 -69 c10 0 24 -3 30 -7 5 -5 23 -11 39
-15 48 -12 86 -46 86 -79 0 -19 -4 -28 -12 -24 -7 2 -40 12 -73 22 -181 53
-185 54 -185 86 0 20 30 29 70 21 14 -3 34 -5 45 -4z m-345 -28 c0 -5 -7 -10
-15 -10 -8 0 -15 5 -15 10 0 6 7 10 15 10 8 0 15 -4 15 -10z m1082 -46 c-7
-44 -13 -50 -27 -24 -10 18 -10 29 -3 38 15 18 34 9 30 -14z"/>
</g>
</svg>
