<?xml version="1.0" standalone="no"?>
<!DOCTYPE svg PUBLIC "-//W3C//DTD SVG 20010904//EN"
 "http://www.w3.org/TR/2001/REC-SVG-20010904/DTD/svg10.dtd">
<svg version="1.0" xmlns="http://www.w3.org/2000/svg"
 width="160.000000pt" height="91.000000pt" viewBox="0 0 160.000000 91.000000"
 preserveAspectRatio="xMidYMid meet">
<metadata>
Created by potrace 1.16, written by Peter Selinger 2001-2019
</metadata>
<g transform="translate(0.000000,91.000000) scale(0.100000,-0.100000)"
fill="#000000" stroke="none">
<path d="M598 874 c-5 -4 -8 -41 -9 -83 0 -72 -1 -75 -16 -53 -22 31 -59 28
-183 -14 -121 -42 -276 -61 -296 -37 -6 7 -17 13 -23 13 -14 0 -5 -128 10
-144 10 -11 33 0 104 49 82 57 93 49 97 -70 3 -105 1 -115 -24 -115 -13 0 -45
12 -73 25 -27 14 -67 25 -87 25 -33 0 -38 -3 -44 -27 -3 -16 -10 -41 -16 -56
-14 -36 -7 -41 34 -29 29 10 143 17 191 13 12 -1 17 -10 17 -31 0 -34 25 -42
33 -10 7 28 23 26 174 -22 125 -39 133 -43 134 -67 0 -14 1 -58 2 -98 2 -64 9
-94 21 -82 3 2 8 59 12 126 6 114 8 122 30 132 40 18 152 25 169 11 12 -10 16
-9 21 4 8 21 60 21 68 0 3 -9 6 -31 6 -50 0 -19 5 -34 10 -34 6 0 10 13 10 29
0 37 13 46 40 29 17 -11 20 -23 20 -75 0 -71 14 -84 24 -23 3 22 10 40 14 40
5 0 22 -15 40 -33 26 -27 33 -43 37 -92 3 -33 8 -61 10 -64 13 -12 19 17 20
92 1 58 8 99 24 139 l22 58 44 0 c24 0 47 5 50 10 3 6 2 10 -4 10 -19 0 -42
32 -36 51 4 11 2 19 -5 19 -7 0 -38 22 -69 48 -31 27 -67 56 -81 65 -29 20
-37 19 118 19 74 0 128 -4 134 -10 6 -6 17 -110 25 -234 10 -168 17 -227 28
-238 13 -13 15 4 14 135 -1 191 -1 190 84 363 22 45 38 84 36 86 -4 4 -161 10
-186 7 -16 -1 -17 -31 -2 -31 6 0 9 -10 7 -22 -3 -22 -6 -23 -103 -21 -55 1
-125 2 -157 2 l-56 1 -13 73 c-7 39 -14 74 -16 76 -7 9 -83 -73 -83 -90 0 -9
7 -22 15 -29 23 -19 18 -30 -14 -30 -19 0 -34 8 -44 23 -14 21 -15 22 -35 4
-25 -23 -42 -15 -42 21 l0 27 -23 -27 c-17 -21 -30 -27 -57 -27 -19 1 -44 0
-55 -2 -27 -5 -31 38 -15 149 7 46 10 85 7 88 -9 10 -82 16 -89 8z m55 -72
c-10 -64 -20 -71 -28 -18 -6 36 -4 50 6 56 21 14 28 2 22 -38z m-133 -79 c-6
-10 -19 -31 -30 -48 -11 -16 -24 -40 -29 -52 -7 -15 -16 -20 -30 -16 -12 3
-21 1 -21 -5 0 -15 -49 -85 -66 -95 -10 -6 -14 -3 -14 9 0 31 42 173 53 182
17 12 96 34 105 28 4 -3 14 -1 22 5 21 12 22 11 10 -8z m52 -50 c26 -28 44
-88 28 -98 -8 -5 -58 30 -72 50 -10 13 -10 59 -1 68 11 11 18 8 45 -20z m448
-9 c0 -26 -17 -33 -26 -9 -8 20 3 48 16 40 5 -3 10 -17 10 -31z m-820 -19 c0
-5 -76 -45 -85 -45 -6 0 -7 35 0 41 5 6 85 9 85 4z m130 -4 c0 -6 -4 -13 -10
-16 -5 -3 -10 1 -10 9 0 9 5 16 10 16 6 0 10 -4 10 -9z m1180 0 c0 -5 -13 -36
-30 -69 -16 -34 -30 -67 -30 -73 0 -8 -3 -9 -9 -3 -14 15 -20 131 -8 143 13
13 77 15 77 2z m-942 -102 c37 -27 42 -35 42 -70 0 -45 -1 -45 -65 5 -39 31
-104 96 -105 106 0 3 10 10 23 16 17 8 26 7 42 -8 11 -11 39 -33 63 -49z m127
31 c10 -12 25 -18 33 -15 18 7 144 -122 140 -144 -4 -23 -80 -27 -110 -7 -24
17 -88 22 -88 7 0 -5 15 -20 32 -33 l33 -23 -30 -6 c-39 -7 -51 7 -54 65 -1
35 2 48 15 53 9 3 20 0 24 -7 10 -16 31 -4 24 14 -3 7 -16 18 -29 24 -31 15
-45 41 -34 70 10 27 21 28 44 2z m165 -9 c5 -11 10 -31 10 -46 0 -22 -3 -24
-19 -16 -23 13 -33 38 -26 62 8 24 22 24 35 0z m103 -28 c6 -36 -5 -108 -17
-120 -3 -4 -17 4 -31 17 -18 17 -24 31 -21 49 2 14 5 41 5 59 1 28 4 32 30 32
25 0 29 -4 34 -37z m85 20 c127 -78 152 -104 104 -111 -12 -2 -22 -12 -24 -24
-3 -21 -50 -43 -62 -30 -12 12 -5 58 14 89 21 35 12 50 -19 33 -14 -7 -21 -25
-26 -65 -7 -49 -10 -55 -31 -55 -14 0 -24 6 -24 15 0 41 24 165 32 165 5 0 21
-7 36 -17z m-573 -66 c33 -29 76 -63 96 -75 29 -18 38 -30 41 -58 2 -19 1 -37
-3 -40 -17 -10 -69 26 -142 99 -67 66 -78 82 -73 103 4 13 10 24 14 24 4 0 34
-24 67 -53z m-54 -77 c49 -43 43 -47 -41 -28 -53 12 -67 26 -56 53 10 27 52
16 97 -25z m-299 10 c33 -20 31 -22 -24 -34 -29 -7 -35 4 -22 38 8 20 7 20 46
-4z m1097 -6 c12 -4 12 -7 -1 -20 -20 -20 -58 -10 -58 16 0 18 12 19 59 4z
m-92 -67 c1 -2 5 -26 9 -55 8 -62 -2 -66 -45 -17 -45 52 -41 92 9 80 14 -4 26
-7 27 -8z m54 -30 c-8 -8 -11 -5 -11 9 0 27 14 41 18 19 2 -9 -1 -22 -7 -28z"/>
</g>
</svg>
