<?xml version="1.0" standalone="no"?>
<!DOCTYPE svg PUBLIC "-//W3C//DTD SVG 20010904//EN"
 "http://www.w3.org/TR/2001/REC-SVG-20010904/DTD/svg10.dtd">
<svg version="1.0" xmlns="http://www.w3.org/2000/svg"
 width="153.000000pt" height="83.000000pt" viewBox="0 0 153.000000 83.000000"
 preserveAspectRatio="xMidYMid meet">
<metadata>
Created by potrace 1.16, written by Peter Selinger 2001-2019
</metadata>
<g transform="translate(0.000000,83.000000) scale(0.100000,-0.100000)"
fill="#000000" stroke="none">
<path d="M590 770 l-65 -5 0 -40 0 -39 -60 -13 c-33 -6 -112 -15 -177 -19 -96
-6 -125 -4 -168 10 -33 11 -56 14 -62 8 -11 -11 -23 -162 -13 -162 4 0 21 12
39 27 39 33 86 53 124 53 l30 0 4 -92 c3 -51 4 -95 2 -97 -1 -1 -38 12 -82 29
-83 34 -112 34 -112 1 0 -11 -9 -40 -20 -66 -11 -26 -20 -51 -20 -56 0 -14 33
-11 56 5 20 15 97 20 146 10 24 -5 27 -10 30 -51 4 -64 24 -66 33 -4 9 66 21
70 114 37 24 -9 53 -16 64 -16 11 0 36 -5 54 -12 36 -13 40 -28 34 -127 -4
-61 7 -111 24 -111 16 0 17 6 15 125 l-1 81 33 16 33 16 -28 7 c-21 6 -27 13
-25 29 3 20 9 21 97 23 52 0 100 -1 108 -4 8 -3 13 -21 13 -44 0 -28 4 -39 15
-39 11 0 15 11 15 40 l0 40 83 -1 c90 -1 291 -15 349 -25 34 -6 36 -9 43 -51
4 -25 5 -80 3 -122 -3 -75 -1 -78 31 -72 4 0 11 43 14 94 3 53 14 122 27 162
12 38 24 80 26 93 3 13 21 67 41 118 20 52 34 96 32 99 -2 2 -43 7 -89 10
l-86 7 -12 -26 c-7 -15 -12 -45 -12 -67 0 -27 -5 -42 -16 -46 -14 -5 -96 5
-328 42 -49 8 -91 17 -94 19 -10 11 9 37 33 46 28 11 208 14 218 4 11 -11 107
-15 107 -4 0 18 -40 28 -190 47 -159 20 -154 17 -139 88 4 18 -1 20 -41 17
-25 -2 -49 -7 -54 -12 -7 -7 -5 -33 3 -73 14 -65 16 -95 6 -105 -3 -3 -35 2
-71 11 -36 10 -69 15 -74 12 -15 -9 -12 39 7 105 10 36 13 64 7 68 -5 4 -38 5
-74 2z m38 -42 c-6 -16 -36 -34 -44 -26 -3 4 -4 14 -1 23 7 17 51 21 45 3z
m212 -5 c0 -5 -4 -14 -9 -21 -7 -11 -9 -11 -14 1 -3 8 -3 18 0 21 9 8 23 7 23
-1z m-237 -93 c-7 -27 -21 -25 -18 3 3 29 3 29 14 23 5 -3 7 -15 4 -26z m-63
-21 c0 -23 1 -23 -44 -4 -20 8 -36 20 -36 26 0 6 6 9 13 6 8 -3 20 -1 28 3 17
11 39 -6 39 -31z m-400 -9 c0 -6 -44 -30 -55 -30 -7 0 -6 35 0 42 8 7 55 -3
55 -12z m216 -21 c-3 -16 -13 -37 -21 -45 -13 -14 -15 -12 -15 12 0 24 24 64
38 64 2 0 2 -14 -2 -31z m-62 -31 c-9 -75 -24 -83 -20 -12 4 69 3 64 16 64 7
0 8 -19 4 -52z m1146 46 c0 -3 -16 -53 -35 -110 -19 -57 -35 -111 -35 -121 0
-12 -3 -14 -11 -6 -6 6 -13 63 -16 127 l-5 116 51 0 c28 0 51 -3 51 -6z m-960
-31 c47 -14 60 -23 65 -42 3 -13 4 -25 1 -28 -5 -6 -73 29 -122 62 -44 30 -27
32 56 8z m230 -25 c0 -7 -6 -9 -42 -12 -7 -1 -12 7 -10 17 2 10 -3 17 -13 17
-8 0 -15 4 -15 9 0 5 18 2 40 -7 22 -9 40 -20 40 -24z m103 -52 c4 -6 5 -20 2
-31 -2 -11 -5 -32 -5 -47 0 -26 -3 -28 -41 -28 -70 0 -169 22 -169 37 0 44 38
72 114 83 55 8 87 4 99 -14z m242 9 c33 -2 82 -9 109 -14 26 -5 66 -6 87 -4
33 5 39 3 40 -13 0 -11 2 -43 5 -72 l5 -54 -73 7 c-40 4 -91 9 -113 11 -22 2
-92 7 -155 12 l-115 7 -6 45 c-4 25 -2 56 2 68 9 23 12 23 82 18 39 -3 99 -8
132 -11z m-660 -6 c37 -2 77 -11 107 -26 45 -22 48 -25 48 -63 l0 -39 -27 14
c-69 36 -136 65 -148 65 -7 0 -18 7 -25 15 -7 9 -19 14 -27 11 -15 -6 -15 -4
-7 18 3 9 9 14 13 12 4 -3 34 -6 66 -7z m-245 -119 c0 -4 -12 -11 -27 -14 -16
-4 -36 -9 -45 -12 -14 -4 -16 -1 -11 13 13 36 23 42 54 31 16 -5 29 -14 29
-18z m244 15 c15 -8 35 -15 43 -15 27 0 114 -43 110 -54 -3 -6 -11 -9 -18 -7
-8 2 -32 8 -54 13 -21 5 -53 15 -70 23 -16 7 -42 16 -57 19 -34 8 -38 36 -5
36 12 0 35 -7 51 -15z"/>
</g>
</svg>
