<?xml version="1.0" standalone="no"?>
<!DOCTYPE svg PUBLIC "-//W3C//DTD SVG 20010904//EN"
 "http://www.w3.org/TR/2001/REC-SVG-20010904/DTD/svg10.dtd">
<svg version="1.0" xmlns="http://www.w3.org/2000/svg"
 width="173.000000pt" height="114.000000pt" viewBox="0 0 173.000000 114.000000"
 preserveAspectRatio="xMidYMid meet">
<metadata>
Created by potrace 1.16, written by Peter Selinger 2001-2019
</metadata>
<g transform="translate(0.000000,114.000000) scale(0.100000,-0.100000)"
fill="#000000" stroke="none">
<path d="M827 1088 c-2 -7 -1 -20 4 -29 8 -17 -4 -120 -17 -141 -5 -8 -2 -9
10 -5 15 6 17 3 11 -22 -5 -26 -4 -28 18 -24 30 6 45 -13 17 -22 -45 -14 -14
-23 85 -24 87 -1 105 1 105 14 0 12 -14 15 -64 15 -84 0 -106 8 -72 25 25 13
68 19 119 16 26 -1 27 -3 27 -55 l0 -55 -37 -3 c-21 -2 -66 1 -101 6 -52 8
-65 7 -73 -5 -7 -11 3 -15 49 -20 31 -3 78 -4 105 -1 29 3 47 1 47 -6 0 -12
-63 -23 -105 -17 -16 2 -64 8 -105 14 -41 5 -106 15 -143 22 l-68 14 6 59 c4
33 11 73 16 90 18 62 15 66 -50 66 -65 0 -72 -6 -60 -57 8 -40 2 -46 -76 -67
-33 -10 -105 -31 -159 -48 -87 -27 -110 -30 -195 -27 l-96 4 2 -40 c4 -99 24
-128 61 -84 14 17 84 61 102 64 3 0 19 8 36 17 l31 17 -1 -155 -1 -155 -30 5
c-16 4 -56 24 -88 46 -48 32 -63 37 -78 29 -11 -5 -19 -18 -19 -28 0 -10 -7
-38 -15 -61 l-15 -43 101 7 c124 9 149 -2 149 -63 0 -54 11 -102 21 -95 5 3 9
18 9 33 0 39 37 84 64 78 54 -13 156 -54 188 -76 43 -30 58 -68 58 -149 0 -61
6 -77 27 -64 8 5 11 54 10 157 l-2 150 40 -2 c96 -5 148 -3 160 7 6 5 14 8 16
5 3 -2 101 -7 219 -10 118 -3 225 -8 238 -11 13 -2 28 -2 34 2 5 4 41 7 79 9
l68 2 5 -51 c2 -28 4 -80 4 -115 1 -78 10 -131 22 -131 6 0 10 28 10 63 1 142
23 356 43 417 6 19 19 49 28 66 10 19 14 36 8 45 -4 9 -2 36 5 65 25 93 33
154 22 163 -6 5 -44 9 -84 8 l-73 -1 1 -91 c3 -146 5 -138 -32 -131 -18 4 -89
11 -158 17 -69 6 -131 16 -137 21 -19 15 -16 32 23 140 20 54 34 102 30 105
-9 9 -92 4 -122 -7 -17 -7 -24 -17 -24 -35 0 -25 0 -25 -82 -24 -88 2 -108 5
-108 20 0 18 95 52 150 54 75 3 80 4 80 14 0 6 -21 12 -47 15 -85 11 -135 26
-165 51 -32 27 -54 32 -61 13z m93 -77 c0 -21 -39 -36 -54 -21 -15 15 2 40 29
40 18 0 25 -5 25 -19z m-290 -45 c0 -25 -12 -46 -25 -46 -18 0 -27 30 -14 46
15 18 39 18 39 0z m525 -38 c-11 -50 -36 -108 -45 -103 -9 5 -5 108 4 124 4 6
16 11 27 11 18 0 20 -4 14 -32z m441 -57 c-2 -14 -10 -56 -16 -93 -23 -127
-60 -104 -60 37 0 77 2 79 51 81 27 1 30 -1 25 -25z m-1038 -24 c4 -19 -6 -21
-27 -8 -16 10 -5 34 12 28 7 -2 13 -11 15 -20z m-95 -27 c-4 -27 -82 -245 -97
-271 l-15 -26 80 -6 c66 -4 87 -10 120 -32 38 -27 39 -29 39 -87 0 -53 -2 -59
-17 -53 -10 4 -63 24 -118 45 -55 21 -112 44 -127 50 -27 13 -27 13 -31 128 0
15 10 75 24 134 l24 107 45 15 c52 17 76 16 73 -4z m-160 -50 c-3 -12 -8 -19
-11 -16 -5 6 5 36 12 36 2 0 2 -9 -1 -20z m238 -10 c10 -6 19 -17 19 -26 0
-13 -3 -13 -29 1 -17 8 -33 19 -36 25 -8 13 21 13 46 0z m-436 -10 c3 -5 -1
-10 -9 -10 -9 0 -16 5 -16 10 0 6 4 10 9 10 6 0 13 -4 16 -10z m565 -30 c0 -5
-10 -10 -22 -10 -19 0 -20 2 -8 10 19 13 30 13 30 0z m225 -28 c-41 -5 -55
-20 -33 -36 13 -9 42 -12 100 -9 46 3 85 7 87 8 12 12 -17 25 -54 25 -45 0
-69 15 -38 23 10 3 38 2 63 -1 l45 -7 3 -47 3 -47 -43 -6 c-48 -7 -72 -4 -171
15 -44 9 -71 10 -77 4 -11 -11 -35 -122 -28 -129 2 -3 45 12 94 32 73 31 101
37 159 38 l70 0 3 -53 c2 -36 7 -52 15 -49 8 2 12 31 13 84 1 139 25 165 132
145 57 -10 82 -12 158 -12 23 0 52 -4 66 -9 24 -9 25 -15 32 -108 4 -55 4
-107 0 -116 -5 -15 -25 -17 -148 -17 -77 0 -197 7 -266 15 -69 8 -165 15 -214
15 -90 0 -207 15 -237 31 -32 17 -16 179 21 199 29 16 73 20 110 10 24 -6 52
-5 90 4 30 7 60 10 65 7 6 -3 -3 -7 -20 -9z m-347 -15 c23 -8 32 -17 32 -33 0
-13 -4 -25 -9 -28 -12 -8 -113 46 -119 62 -5 15 47 14 96 -1z m16 -96 c9 -8
16 -29 16 -47 0 -34 0 -34 -24 -18 -14 8 -31 17 -38 18 -26 4 -97 50 -91 59 8
13 118 4 137 -12z m286 -21 c11 -7 9 -11 -13 -19 -37 -14 -47 -14 -47 2 0 27
31 36 60 17z m-732 -101 c-20 -13 -58 -10 -58 4 0 27 22 36 47 20 18 -12 21
-18 11 -24z"/>
<path d="M340 480 c-6 -11 -9 -20 -8 -20 2 -1 26 -3 54 -5 29 -3 71 -14 95
-24 24 -11 47 -17 53 -14 16 10 -41 48 -100 66 -70 22 -81 21 -94 -3z"/>
</g>
</svg>
