<?xml version="1.0" standalone="no"?>
<!DOCTYPE svg PUBLIC "-//W3C//DTD SVG 20010904//EN"
 "http://www.w3.org/TR/2001/REC-SVG-20010904/DTD/svg10.dtd">
<svg version="1.0" xmlns="http://www.w3.org/2000/svg"
 width="99.000000pt" height="86.000000pt" viewBox="0 0 99.000000 86.000000"
 preserveAspectRatio="xMidYMid meet">
<metadata>
Created by potrace 1.16, written by Peter Selinger 2001-2019
</metadata>
<g transform="translate(0.000000,86.000000) scale(0.100000,-0.100000)"
fill="#000000" stroke="none">
<path d="M0 845 c0 -8 2 -15 4 -15 2 0 6 7 10 15 3 8 1 15 -4 15 -6 0 -10 -7
-10 -15z"/>
<path d="M670 793 c-65 -56 -109 -68 -76 -21 34 48 4 53 -40 7 -35 -37 -66
-54 -116 -63 -41 -7 -50 -25 -18 -33 11 -3 20 -10 20 -16 0 -15 -176 0 -212
17 -27 14 -29 13 -44 -9 -12 -19 -26 -25 -62 -27 -34 -2 -47 -7 -47 -18 0 -10
8 -14 28 -12 33 4 33 -2 3 -67 l-23 -51 -7 31 c-3 17 -6 45 -6 61 0 19 -4 28
-12 25 -9 -2 -12 -23 -11 -63 1 -32 2 -133 3 -224 1 -153 8 -205 26 -187 4 4
8 67 9 140 2 123 10 182 37 250 6 15 14 27 19 27 10 0 15 -163 10 -320 -2 -81
0 -102 9 -93 14 13 23 112 20 218 -1 52 4 82 19 115 11 25 21 57 21 73 0 26
-7 31 -41 28 -20 -2 -30 20 -19 39 10 16 53 18 209 10 115 -7 125 -9 149 -34
l27 -26 -70 -2 c-39 -1 -102 -2 -142 -3 -40 0 -76 -4 -80 -9 -10 -10 -13 -406
-3 -406 16 0 21 38 21 181 -1 111 3 155 14 176 8 15 15 22 15 16 0 -7 6 -13
13 -13 15 0 27 -134 27 -292 0 -43 4 -78 9 -78 13 0 21 27 21 74 0 50 12 65
46 58 22 -4 23 -6 8 -17 -15 -10 -11 -13 28 -23 24 -6 63 -25 86 -42 23 -16
52 -30 64 -30 l23 1 -25 19 c-14 11 -36 29 -50 40 -20 16 -23 23 -14 37 15 24
54 30 54 9 0 -9 3 -16 8 -16 4 0 31 -18 61 -41 63 -48 78 -45 27 4 -20 20 -36
40 -36 46 0 18 36 31 84 31 25 0 46 4 46 9 0 14 -21 19 -57 13 -25 -3 -33 -1
-33 10 0 27 36 50 72 46 38 -3 35 10 38 -173 2 -124 7 -158 24 -152 7 2 11 35
12 88 1 85 28 185 83 312 22 51 23 49 -32 62 -27 5 -28 7 -14 28 7 12 17 34
21 49 3 15 17 44 31 64 14 20 25 47 25 60 0 23 -3 24 -70 24 -49 0 -70 -4 -71
-12 -1 -7 -2 -24 -3 -38 -1 -24 -3 -25 -81 -25 l-80 0 2 39 c2 29 11 49 34 72
43 44 33 66 -11 27z m-163 -100 c-9 -9 -20 -13 -24 -9 -4 4 1 14 11 22 25 18
35 8 13 -13z m109 0 c-10 -10 -19 5 -10 18 6 11 8 11 12 0 2 -7 1 -15 -2 -18z
m304 -13 c-6 -11 -22 -28 -36 -37 -22 -14 -27 -14 -35 -2 -5 8 -9 24 -9 37 0
20 5 22 45 22 43 0 45 -1 35 -20z m-350 -21 c0 -5 -11 -9 -25 -9 -27 0 -32 9
-13 28 12 12 38 -1 38 -19z m250 -62 c0 -7 -4 -18 -9 -25 -13 -21 -98 -5 -117
22 -14 21 -13 21 38 26 56 6 88 -3 88 -23z m-178 -2 c16 -14 24 -25 16 -26 -7
0 -24 -2 -37 -3 -26 -3 -66 29 -56 44 11 18 46 11 77 -15z m227 3 c-17 -34
-19 -34 -19 -5 0 18 5 27 15 27 13 0 14 -4 4 -22z m-682 -70 c-3 -8 -6 -5 -6
6 -1 11 2 17 5 13 3 -3 4 -12 1 -19z m351 16 c18 -4 34 -14 37 -25 8 -25 22
-24 30 1 5 16 15 20 50 20 31 0 45 -5 49 -17 6 -15 8 -15 19 1 9 13 24 17 52
14 46 -4 55 -19 23 -40 -17 -12 -71 -17 -216 -23 l-194 -7 12 23 c30 58 58 69
138 53z m-158 -38 c0 -8 -4 -18 -10 -21 -5 -3 -10 3 -10 14 0 12 5 21 10 21 6
0 10 -6 10 -14z m504 -42 c12 -4 13 -11 5 -32 -6 -14 -15 -33 -22 -40 -6 -8
-12 -22 -12 -31 -3 -43 -6 -51 -15 -51 -11 0 -14 118 -4 144 6 17 22 20 48 10z
m-94 -41 l0 -34 -97 0 c-54 0 -149 -3 -210 -5 l-113 -6 0 25 c0 13 6 29 13 35
13 11 116 18 305 19 l102 1 0 -35z m-117 -67 c4 -17 -50 -48 -79 -44 l-29 3
28 28 c26 27 74 35 80 13z m-136 -9 c13 -14 -64 -47 -109 -47 -44 0 -48 2 -48
24 0 18 7 26 23 29 28 6 126 1 134 -6z m-23 -82 c-6 -16 -24 -21 -24 -7 0 11
11 22 21 22 5 0 6 -7 3 -15z"/>
</g>
</svg>
