<?xml version="1.0" standalone="no"?>
<!DOCTYPE svg PUBLIC "-//W3C//DTD SVG 20010904//EN"
 "http://www.w3.org/TR/2001/REC-SVG-20010904/DTD/svg10.dtd">
<svg version="1.0" xmlns="http://www.w3.org/2000/svg"
 width="103.000000pt" height="65.000000pt" viewBox="0 0 103.000000 65.000000"
 preserveAspectRatio="xMidYMid meet">
<metadata>
Created by potrace 1.16, written by Peter Selinger 2001-2019
</metadata>
<g transform="translate(0.000000,65.000000) scale(0.100000,-0.100000)"
fill="#000000" stroke="none">
<path d="M792 558 c-7 -7 -12 -19 -13 -27 -1 -21 -189 -193 -223 -204 -21 -7
-45 -3 -103 18 -49 17 -90 25 -115 23 -29 -3 -37 0 -33 10 3 8 5 21 5 31 0 44
21 53 134 56 101 4 126 8 114 20 -2 3 -65 7 -139 10 -206 7 -244 13 -270 41
-27 29 -55 31 -69 4 -16 -30 -17 -149 -1 -159 10 -7 10 -12 0 -28 -22 -36 -6
-50 69 -57 45 -5 72 -12 76 -21 4 -11 -11 -13 -83 -8 -86 6 -89 5 -96 -17 -9
-30 6 -43 36 -31 27 10 76 15 122 12 22 -1 27 -6 27 -26 0 -30 -12 -31 -90
-11 -33 9 -61 11 -71 6 -16 -9 -45 -118 -34 -128 3 -3 18 3 33 15 33 24 114
36 242 34 83 -1 194 5 456 24 l72 5 11 -46 c9 -34 16 -45 29 -42 13 3 17 15
18 58 0 30 -4 61 -10 69 -14 17 -13 126 1 143 6 7 16 31 23 53 7 22 26 65 42
95 26 50 41 117 19 81 -11 -17 -128 -18 -145 -1 -13 13 -19 13 -34 -2z m126
-56 c-1 -4 -14 -33 -27 -65 -14 -31 -28 -57 -32 -57 -7 0 -19 111 -12 123 6 9
76 9 71 -1z m-704 -38 c19 -7 22 -60 4 -67 -7 -2 -22 0 -33 4 -11 4 -32 10
-47 13 -35 8 -35 21 0 40 29 17 52 19 76 10z m602 -158 c18 -90 18 -122 -2
-130 -9 -4 -18 -5 -19 -4 -46 69 -65 101 -65 108 0 4 -5 10 -11 12 -18 6 11
117 40 151 l26 31 8 -50 c4 -27 15 -80 23 -118z m-612 68 c14 -5 24 -64 11
-64 -16 0 -115 51 -115 59 0 12 78 15 104 5z m472 -31 c-5 -12 -10 -13 -18 -5
-8 8 -8 15 3 28 15 18 25 4 15 -23z m-377 -45 c-4 -24 -8 -49 -9 -55 0 -18 25
-16 40 2 26 31 168 54 287 46 37 -2 126 -102 103 -116 -18 -11 -383 -7 -412 4
-30 11 -32 15 -29 81 3 53 9 80 20 80 5 0 5 -19 0 -42z m100 18 c13 -16 9 -20
-31 -30 -25 -6 -28 -4 -28 19 0 20 5 25 24 25 13 0 29 -6 35 -14z m-282 -172
c-3 -3 -12 -4 -19 -1 -8 3 -5 6 6 6 11 1 17 -2 13 -5z"/>
</g>
</svg>
