<?xml version="1.0" standalone="no"?>
<!DOCTYPE svg PUBLIC "-//W3C//DTD SVG 20010904//EN"
 "http://www.w3.org/TR/2001/REC-SVG-20010904/DTD/svg10.dtd">
<svg version="1.0" xmlns="http://www.w3.org/2000/svg"
 width="104.000000pt" height="80.000000pt" viewBox="0 0 104.000000 80.000000"
 preserveAspectRatio="xMidYMid meet">
<metadata>
Created by potrace 1.16, written by Peter Selinger 2001-2019
</metadata>
<g transform="translate(0.000000,80.000000) scale(0.100000,-0.100000)"
fill="#000000" stroke="none">
<path d="M922 733 c-53 -12 -62 -18 -56 -31 14 -33 27 -109 22 -124 -5 -12
-19 -14 -65 -11 -32 2 -85 5 -118 6 l-60 3 3 35 4 34 -24 -21 c-17 -16 -38
-22 -75 -23 -29 -1 -53 3 -53 8 0 12 27 72 42 93 17 24 10 28 -63 30 l-64 3 1
-55 c1 -30 5 -74 9 -97 6 -36 5 -43 -8 -43 -20 0 -47 27 -47 46 0 9 5 24 10
34 8 15 6 21 -9 30 -16 8 -22 6 -31 -10 -8 -14 -17 -19 -30 -15 -10 3 -37 -3
-58 -13 -32 -16 -54 -18 -117 -14 l-77 5 7 -45 c13 -87 11 -145 -6 -164 -9
-11 -19 -31 -21 -46 -5 -25 -3 -26 21 -16 46 18 97 20 111 3 7 -9 21 -13 35
-9 16 4 27 -1 39 -17 9 -13 16 -18 16 -10 0 9 9 11 33 5 17 -4 39 -8 47 -9 8
-1 28 -7 44 -14 16 -6 34 -10 40 -8 8 3 9 -25 4 -97 -7 -97 2 -156 23 -156 4
0 8 59 7 130 0 90 4 135 12 145 16 19 146 60 180 58 35 -3 48 -25 55 -99 5
-45 11 -64 22 -64 11 0 12 11 8 53 -4 28 -8 62 -11 75 -4 21 6 28 31 22 38 -9
125 -10 125 -1 0 10 -18 14 -113 26 l-47 6 5 37 c3 20 7 57 8 82 l3 45 79 0
80 0 2 -55 c6 -132 23 -374 28 -378 18 -18 20 30 15 308 -1 62 3 117 10 135
14 36 50 173 50 192 0 15 3 15 -78 -4z m38 -31 c0 -5 -8 -24 -17 -43 l-17 -34
-7 35 c-4 19 -5 38 -3 42 7 11 44 10 44 0z m-463 -12 c8 0 4 -13 -10 -37 -18
-31 -22 -34 -25 -18 -2 11 -8 24 -13 30 -18 19 -10 38 14 31 12 -3 27 -6 34
-6z m-317 -125 c0 -2 -13 -11 -30 -20 -27 -14 -30 -14 -40 5 -10 18 -8 20 30
20 22 0 40 -2 40 -5z m58 -64 c2 -35 -2 -61 -12 -76 -14 -22 -14 -25 0 -39 14
-15 13 -16 -9 -16 -38 0 -91 41 -95 74 -3 22 6 38 40 72 56 57 72 54 76 -15z
m282 37 c0 -7 -5 -20 -10 -28 -12 -20 -33 0 -24 23 7 20 34 23 34 5z m130 -4
c26 -6 30 -10 30 -41 0 -25 -3 -32 -12 -27 -37 23 -79 53 -94 69 -20 20 -26
20 76 -1z m-261 -22 c25 -21 33 -36 35 -65 1 -20 0 -37 -2 -37 -1 0 -20 11
-40 25 -39 26 -82 76 -82 95 0 20 56 10 89 -18z m224 -39 c28 -16 59 -36 70
-47 17 -16 18 -20 4 -33 -14 -14 -19 -13 -49 10 -18 13 -48 32 -65 41 -21 10
-33 24 -33 36 0 27 12 25 73 -7z m-317 -24 c3 -6 27 -20 53 -31 56 -24 81 -45
81 -69 0 -24 -23 -15 -75 28 -22 19 -50 36 -62 39 -14 4 -23 14 -23 25 0 21
15 25 26 8z m249 -25 c34 -17 41 -23 20 -18 -16 4 -42 8 -57 7 -21 0 -28 5
-28 18 0 24 5 24 65 -7z m-250 -64 c10 -11 15 -20 11 -20 -14 0 -46 21 -46 30
0 16 16 11 35 -10z m235 0 c0 -12 -47 -36 -55 -28 -3 3 -3 13 1 22 7 17 54 23
54 6z m-175 -30 c3 -5 2 -10 -4 -10 -5 0 -13 5 -16 10 -3 6 -2 10 4 10 5 0 13
-4 16 -10z"/>
<path d="M246 228 c-8 -33 -7 -58 2 -58 5 0 9 18 10 40 2 45 -3 51 -12 18z"/>
</g>
</svg>
