<?xml version="1.0" standalone="no"?>
<!DOCTYPE svg PUBLIC "-//W3C//DTD SVG 20010904//EN"
 "http://www.w3.org/TR/2001/REC-SVG-20010904/DTD/svg10.dtd">
<svg version="1.0" xmlns="http://www.w3.org/2000/svg"
 width="86.000000pt" height="74.000000pt" viewBox="0 0 86.000000 74.000000"
 preserveAspectRatio="xMidYMid meet">
<metadata>
Created by potrace 1.16, written by Peter Selinger 2001-2019
</metadata>
<g transform="translate(0.000000,74.000000) scale(0.100000,-0.100000)"
fill="#000000" stroke="none">
<path d="M715 683 c-75 -5 -76 -7 -54 -50 33 -64 35 -63 -131 -63 -128 0 -152
2 -157 16 -3 8 -1 20 6 27 27 27 12 38 -46 35 -57 -3 -58 -3 -55 -32 4 -28 3
-28 -40 -21 -81 13 -118 25 -118 41 0 23 -25 27 -59 9 -32 -16 -39 -29 -20
-41 6 -4 9 -20 6 -39 -3 -18 -1 -37 5 -43 12 -12 31 -322 22 -369 -4 -20 -2
-33 4 -33 15 0 22 26 22 80 0 30 6 54 15 64 21 21 70 28 130 18 l50 -7 3 -70
c3 -79 7 -99 22 -90 5 3 9 36 8 73 -2 119 -13 112 182 112 199 0 179 19 183
-170 2 -110 4 -125 20 -128 16 -3 17 6 16 102 0 58 4 128 10 156 6 27 16 74
22 103 7 28 25 81 41 116 30 69 27 81 -19 81 -30 0 -29 13 7 72 17 26 30 50
30 53 0 3 -12 4 -27 3 -16 -1 -50 -3 -78 -5z m58 -19 c8 -8 -17 -56 -38 -74
-14 -12 -18 -12 -26 1 -17 26 -6 63 21 70 35 10 36 10 43 3z m-429 -40 c13 -5
14 -9 5 -20 -15 -18 -39 -18 -39 -1 0 12 9 27 16 27 1 0 10 -3 18 -6z m-69
-85 c5 -5 12 -55 13 -109 l4 -100 -29 4 c-56 8 -118 17 -141 22 -22 4 -23 8
-20 96 3 89 4 92 28 100 32 9 131 1 145 -13z m393 -76 c7 -43 12 -90 12 -105
0 -28 -1 -28 -67 -29 -180 -2 -268 3 -282 16 -12 12 -12 23 -2 72 7 32 17 72
22 89 l9 30 148 3 148 2 12 -78z m112 46 c0 -6 -6 -23 -14 -37 -8 -15 -20 -49
-27 -75 -6 -26 -14 -46 -16 -44 -7 8 -30 157 -25 162 10 10 82 5 82 -6z m-620
-199 c-20 -13 -40 -13 -40 0 0 6 12 10 28 10 21 0 24 -2 12 -10z"/>
</g>
</svg>
