<?xml version="1.0" standalone="no"?>
<!DOCTYPE svg PUBLIC "-//W3C//DTD SVG 20010904//EN"
 "http://www.w3.org/TR/2001/REC-SVG-20010904/DTD/svg10.dtd">
<svg version="1.0" xmlns="http://www.w3.org/2000/svg"
 width="138.000000pt" height="75.000000pt" viewBox="0 0 138.000000 75.000000"
 preserveAspectRatio="xMidYMid meet">
<metadata>
Created by potrace 1.16, written by Peter Selinger 2001-2019
</metadata>
<g transform="translate(0.000000,75.000000) scale(0.100000,-0.100000)"
fill="#000000" stroke="none">
<path d="M28 743 c6 -2 18 -2 25 0 6 3 1 5 -13 5 -14 0 -19 -2 -12 -5z"/>
<path d="M620 740 c0 -5 5 -10 10 -10 6 0 10 5 10 10 0 6 -4 10 -10 10 -5 0
-10 -4 -10 -10z"/>
<path d="M488 703 c-15 -37 -23 -183 -10 -183 5 0 17 11 26 25 9 14 23 25 32
25 8 0 27 6 43 14 15 8 57 17 93 20 l66 6 4 -28 c2 -15 1 -38 -2 -52 -7 -28
-18 -29 -147 -14 -57 6 -63 5 -63 -12 0 -43 11 -46 110 -35 51 6 97 8 102 5 4
-3 8 -23 8 -46 0 -34 -3 -39 -17 -33 -35 13 -175 36 -189 31 -10 -4 -13 -14
-8 -33 10 -41 21 -50 44 -35 11 7 53 12 94 12 67 0 75 -2 81 -21 8 -25 9 -184
2 -196 -8 -12 -179 -14 -197 -3 -20 12 -1 31 31 31 60 1 129 11 129 20 0 5
-15 9 -34 9 -18 0 -58 5 -87 11 -67 13 -108 19 -134 20 -42 0 -55 27 -55 110
0 75 -10 103 -31 82 -5 -5 -11 -39 -13 -75 -2 -36 -9 -74 -15 -85 -13 -23 -13
-24 -15 74 -1 51 -7 88 -14 95 -22 22 -32 -10 -29 -89 2 -75 -3 -89 -28 -80
-12 5 -15 25 -14 107 l1 101 106 -7 c59 -3 109 -8 111 -10 2 -2 4 -36 3 -75
-1 -51 2 -69 11 -66 8 2 12 27 12 68 0 35 4 70 9 78 10 16 -9 31 -42 31 -28 0
-141 27 -195 46 -55 20 -84 18 -97 -8 -7 -13 -28 -37 -48 -55 l-36 -31 3 -144
c1 -78 5 -145 8 -148 2 -3 9 3 14 12 5 10 26 22 46 27 43 12 63 1 63 -35 0
-13 5 -24 10 -24 6 0 10 16 10 35 0 40 17 52 49 35 16 -8 20 -17 15 -35 -8
-34 7 -31 27 4 16 28 17 28 95 23 44 -2 81 -7 84 -9 3 -3 -3 -10 -12 -17 -11
-8 -19 -34 -24 -74 -7 -70 -1 -75 47 -42 35 25 125 50 182 50 75 0 87 7 87 51
0 38 1 39 32 35 30 -3 34 -7 41 -46 6 -31 11 -39 18 -29 5 8 9 24 9 36 0 37
11 53 36 53 20 0 24 -5 25 -32 1 -18 2 -44 3 -58 1 -15 8 -26 19 -28 15 -3 17
2 11 36 -8 49 10 89 32 71 8 -6 14 -22 14 -34 0 -30 10 -55 21 -55 5 0 9 11 9
24 0 39 17 73 39 79 28 7 43 -15 46 -70 3 -69 4 -73 15 -73 6 0 10 26 10 58 0
65 11 82 52 82 31 0 36 -12 40 -95 5 -93 23 -46 30 77 7 135 24 231 45 265 17
26 8 30 -79 32 -47 1 -58 -2 -58 -15 0 -30 -351 -7 -384 26 -7 7 -6 21 3 43
21 52 25 88 10 98 -7 4 -43 11 -79 14 -81 8 -165 31 -206 56 -40 24 -42 24
-56 -8z m61 -54 c25 -9 29 -14 20 -25 -16 -19 -55 -18 -63 2 -14 37 -7 40 43
23z m-319 -178 c0 -5 -7 -11 -15 -15 -12 -4 -14 -21 -8 -97 6 -85 5 -92 -11
-86 -10 4 -29 7 -42 7 -19 0 -24 5 -24 25 0 29 37 144 52 163 12 14 48 16 48
3z m999 -85 c6 -24 13 -69 17 -101 l7 -58 -29 7 c-48 12 -59 31 -57 90 2 41
-1 55 -13 60 -28 11 -33 -3 -27 -74 6 -71 4 -74 -33 -64 -18 5 -21 14 -22 67
-2 57 -14 83 -35 70 -4 -3 -8 -28 -7 -57 2 -77 2 -78 -22 -74 -22 3 -23 7 -20
71 2 53 -1 69 -13 73 -26 10 -45 -14 -34 -42 10 -28 12 -87 3 -97 -3 -3 -16
-1 -29 5 -31 14 -40 52 -19 84 15 22 15 27 3 39 -22 22 -65 -3 -60 -36 9 -61
7 -74 -17 -77 -23 -4 -24 -2 -18 59 3 34 10 67 15 72 14 14 112 22 268 24
l131 1 11 -42z m68 16 c-2 -4 -7 -16 -11 -27 -6 -16 -9 -17 -16 -5 -6 8 -10
25 -10 38 0 20 3 21 20 12 11 -6 19 -14 17 -18z m-1150 -168 c-3 -3 -12 -4
-19 -1 -8 3 -5 6 6 6 11 1 17 -2 13 -5z m387 -120 c20 -8 11 -24 -15 -24 -19
0 -25 11 -12 23 8 8 8 8 27 1z"/>
<path d="M542 309 c-17 -6 -22 -15 -20 -31 4 -27 32 -35 62 -19 12 7 45 13 74
14 29 1 52 7 52 12 0 6 -29 15 -63 22 -75 14 -76 14 -105 2z"/>
</g>
</svg>
