<?xml version="1.0" standalone="no"?>
<!DOCTYPE svg PUBLIC "-//W3C//DTD SVG 20010904//EN"
 "http://www.w3.org/TR/2001/REC-SVG-20010904/DTD/svg10.dtd">
<svg version="1.0" xmlns="http://www.w3.org/2000/svg"
 width="68.000000pt" height="62.000000pt" viewBox="0 0 68.000000 62.000000"
 preserveAspectRatio="xMidYMid meet">
<metadata>
Created by potrace 1.16, written by Peter Selinger 2001-2019
</metadata>
<g transform="translate(0.000000,62.000000) scale(0.100000,-0.100000)"
fill="#000000" stroke="none">
<path d="M163 562 c-27 -47 -60 -77 -98 -89 l-30 -10 0 -221 c0 -155 3 -222
11 -222 6 0 14 29 17 67 5 50 12 72 26 84 49 40 362 149 427 149 12 0 27 7 34
15 17 20 10 19 -95 -11 -112 -33 -299 -73 -342 -74 -18 0 -33 5 -33 11 0 27
66 202 78 207 7 2 37 -2 65 -11 29 -8 93 -25 142 -37 50 -12 131 -33 180 -46
103 -27 108 -28 100 -14 -3 5 -32 17 -63 25 -31 9 -77 25 -102 35 -25 11 -77
28 -116 39 -38 12 -91 35 -117 52 -38 25 -47 36 -47 60 0 39 -12 36 -37 -9z
m22 -52 c3 -5 -3 -10 -15 -10 -12 0 -18 5 -15 10 3 6 10 10 15 10 5 0 12 -4
15 -10z m-91 -104 c-3 -14 -10 -28 -14 -31 -12 -8 -18 29 -8 55 12 32 31 12
22 -24z m56 -181 c0 -2 -14 -12 -31 -21 -22 -11 -34 -13 -42 -5 -7 7 -3 13 14
20 26 10 59 14 59 6z"/>
</g>
</svg>
