<?xml version="1.0" standalone="no"?>
<!DOCTYPE svg PUBLIC "-//W3C//DTD SVG 20010904//EN"
 "http://www.w3.org/TR/2001/REC-SVG-20010904/DTD/svg10.dtd">
<svg version="1.0" xmlns="http://www.w3.org/2000/svg"
 width="71.000000pt" height="83.000000pt" viewBox="0 0 71.000000 83.000000"
 preserveAspectRatio="xMidYMid meet">
<metadata>
Created by potrace 1.16, written by Peter Selinger 2001-2019
</metadata>
<g transform="translate(0.000000,83.000000) scale(0.100000,-0.100000)"
fill="#000000" stroke="none">
<path d="M221 786 c-7 -8 -16 -27 -20 -43 -7 -25 -13 -29 -63 -34 -30 -3 -60
-9 -66 -13 -13 -8 -7 -133 9 -196 16 -67 21 -286 8 -345 -7 -34 -9 -59 -3 -65
5 -5 33 -3 69 7 33 8 74 17 90 20 17 3 40 14 51 25 19 17 31 18 115 12 52 -4
97 -12 101 -18 4 -6 8 -23 8 -38 0 -56 42 -40 44 16 1 21 8 41 16 47 13 8 13
11 -2 23 -14 10 -18 28 -18 84 0 39 4 81 9 94 5 13 14 59 21 103 21 141 27
162 62 209 48 66 42 73 -59 71 -87 -2 -88 -2 -91 -29 -9 -72 -122 -46 -235 54
-29 25 -36 28 -46 16z m51 -83 c24 -22 23 -30 -8 -37 -33 -9 -48 5 -39 33 8
25 22 27 47 4z m339 -13 c-2 -8 -12 -40 -22 -70 -10 -30 -20 -68 -24 -83 -3
-16 -10 -25 -16 -21 -14 9 -7 123 9 133 7 4 8 12 2 21 -12 20 8 42 34 38 13
-2 19 -9 17 -18z m-466 -77 c-4 -32 -10 -62 -13 -67 -9 -16 -21 25 -21 77 -1
41 1 47 20 47 20 0 21 -3 14 -57z m347 14 c4 -7 8 -51 8 -99 0 -73 -3 -89 -17
-96 -26 -13 -128 2 -204 30 -57 22 -69 23 -84 11 -11 -7 -21 -13 -25 -13 -9 0
6 150 16 160 20 19 294 26 306 7z m-222 -217 c0 -13 -52 -22 -63 -11 -5 5 -7
17 -4 25 5 12 12 13 37 5 16 -6 30 -15 30 -19z m231 -60 c4 -19 9 -62 11 -94
l3 -60 -38 -8 c-22 -4 -46 -4 -56 1 -9 5 -53 14 -96 21 -118 16 -155 26 -171
47 -18 23 -15 99 4 95 7 -1 30 2 50 7 20 5 59 12 86 15 26 3 50 6 51 8 2 2 36
3 76 2 l73 0 7 -34z m-260 -187 c11 -11 -79 -46 -93 -37 -4 3 -8 17 -8 31 0
25 2 25 46 20 25 -2 50 -9 55 -14z"/>
</g>
</svg>
