<?xml version="1.0" standalone="no"?>
<!DOCTYPE svg PUBLIC "-//W3C//DTD SVG 20010904//EN"
 "http://www.w3.org/TR/2001/REC-SVG-20010904/DTD/svg10.dtd">
<svg version="1.0" xmlns="http://www.w3.org/2000/svg"
 width="149.000000pt" height="65.000000pt" viewBox="0 0 149.000000 65.000000"
 preserveAspectRatio="xMidYMid meet">
<metadata>
Created by potrace 1.16, written by Peter Selinger 2001-2019
</metadata>
<g transform="translate(0.000000,65.000000) scale(0.100000,-0.100000)"
fill="#000000" stroke="none">
<path d="M760 635 c12 -15 30 -12 30 6 0 5 -10 9 -21 9 -18 0 -19 -2 -9 -15z"/>
<path d="M474 579 c-8 -13 -12 -85 -13 -251 l-1 -118 -43 0 c-51 0 -63 8 -40
25 15 11 14 14 -5 33 -12 12 -22 27 -22 32 0 16 56 172 78 218 24 49 20 53
-48 48 -58 -4 -78 -13 -86 -38 -5 -18 -12 -20 -59 -15 -49 5 -83 18 -127 50
-31 21 -53 -2 -49 -54 1 -24 7 -48 12 -54 5 -5 9 -22 9 -38 l0 -29 73 8 c39 5
90 8 112 9 36 0 40 -2 40 -25 0 -25 -1 -25 -74 -21 -41 2 -83 8 -93 15 -22 13
-38 -4 -38 -41 0 -21 3 -21 68 -17 144 11 137 12 137 -16 0 -22 -4 -25 -35
-24 -19 0 -63 4 -97 8 -56 7 -63 6 -72 -13 -15 -27 -14 -71 2 -71 6 0 47 9 91
20 43 11 87 20 97 20 23 0 26 -35 5 -43 -10 -4 -13 -17 -9 -44 3 -22 0 -56 -5
-76 -9 -33 -8 -37 8 -37 10 0 21 4 24 9 10 16 121 64 144 63 12 -1 22 2 22 7
0 26 99 50 305 71 55 6 114 15 130 20 48 15 239 32 382 35 72 2 136 6 142 10
23 14 9 22 -31 18 -26 -2 -90 7 -158 22 -63 15 -200 44 -303 66 -199 41 -233
53 -283 101 -42 39 -67 32 -84 -25 -7 -23 -18 -51 -26 -62 -23 -32 -17 -38 34
-30 26 5 83 7 127 6 82 -1 355 -43 377 -58 7 -4 31 -10 53 -13 35 -6 30 -7
-40 -13 -44 -4 -125 -14 -180 -22 -164 -24 -277 -35 -355 -35 l-73 0 6 94 c7
101 31 178 73 234 14 17 22 37 19 42 -9 14 -112 13 -121 -1z m61 -39 c-3 -5
-11 -10 -16 -10 -6 0 -7 5 -4 10 3 6 11 10 16 10 6 0 7 -4 4 -10z m-165 -26
c0 -9 -5 -14 -12 -12 -18 6 -21 28 -4 28 9 0 16 -7 16 -16z m-67 -48 c3 -8 3
-17 0 -20 -8 -8 -72 -8 -113 1 l-33 6 34 12 c48 18 106 18 112 1z m347 -71
c11 -13 8 -15 -14 -15 -25 0 -33 10 -19 23 10 11 19 8 33 -8z m-213 -242 c4
-9 -82 -63 -101 -63 -2 0 5 18 15 41 18 36 23 40 51 37 17 -2 33 -8 35 -15z"/>
<path d="M1120 10 c-11 -7 -5 -10 23 -10 23 0 36 4 32 10 -8 13 -35 13 -55 0z"/>
</g>
</svg>
