<?xml version="1.0" standalone="no"?>
<!DOCTYPE svg PUBLIC "-//W3C//DTD SVG 20010904//EN"
 "http://www.w3.org/TR/2001/REC-SVG-20010904/DTD/svg10.dtd">
<svg version="1.0" xmlns="http://www.w3.org/2000/svg"
 width="116.000000pt" height="68.000000pt" viewBox="0 0 116.000000 68.000000"
 preserveAspectRatio="xMidYMid meet">
<metadata>
Created by potrace 1.16, written by Peter Selinger 2001-2019
</metadata>
<g transform="translate(0.000000,68.000000) scale(0.100000,-0.100000)"
fill="#000000" stroke="none">
<path d="M932 640 c-12 -5 -26 -20 -31 -33 -9 -23 -16 -25 -113 -31 -57 -4
-141 -5 -188 -2 -234 15 -278 20 -320 32 -62 19 -69 18 -83 -13 -15 -35 -25
-43 -61 -43 l-28 0 6 -197 c3 -109 6 -229 6 -268 0 -49 3 -65 10 -55 5 8 10
45 10 82 l0 67 35 7 c20 3 38 4 40 2 3 -2 6 -31 7 -63 4 -75 22 -77 26 -2 2
39 8 60 17 63 12 5 12 9 -1 29 -16 24 -17 19 27 207 13 54 20 100 17 104 -4 3
-21 3 -38 -1 -41 -9 -53 -41 -46 -125 3 -36 3 -93 0 -127 l-7 -63 -35 0 -35 0
7 73 c4 39 17 113 30 162 l22 90 42 6 c54 7 67 19 17 16 -25 -1 -39 3 -43 12
-4 11 4 13 39 7 24 -4 46 -11 49 -16 3 -5 15 -8 26 -6 11 2 106 1 210 -3 104
-4 194 -4 199 -1 6 3 44 5 85 5 68 0 75 -2 76 -20 0 -11 -4 -26 -9 -32 -6 -9
-5 -13 3 -13 8 0 11 -19 9 -62 -1 -35 1 -76 6 -92 5 -20 4 -31 -6 -37 -8 -5
-68 -9 -134 -9 -232 2 -295 0 -295 -8 0 -4 75 -8 168 -8 286 -2 272 -1 272
-28 0 -20 -6 -24 -46 -30 -26 -3 -127 -6 -224 -6 -138 0 -179 3 -183 13 -3 7
-3 35 0 61 7 61 22 68 155 74 59 3 106 8 104 11 -3 4 -20 6 -38 5 -191 -8
-198 -8 -198 10 0 23 14 27 123 32 56 3 111 7 122 9 11 2 52 4 90 5 54 1 65 3
47 10 -23 10 -110 8 -276 -6 -78 -6 -86 -5 -86 11 0 13 -5 16 -25 11 -14 -4
-34 -2 -44 3 -12 7 -22 6 -29 -1 -9 -9 -12 -8 -12 5 0 9 3 18 8 18 6 1 279 7
415 9 22 0 36 4 32 10 -7 11 -506 2 -518 -10 -10 -9 -11 -389 -2 -398 10 -11
25 22 25 56 0 37 18 49 48 33 16 -9 20 -22 21 -83 1 -39 4 -74 6 -77 11 -10
17 11 22 82 7 91 -15 83 269 93 l202 7 7 -82 c8 -97 26 -104 37 -15 4 32 10
70 13 84 3 14 14 68 25 120 11 52 27 127 35 165 8 39 20 84 26 101 19 48 7 64
-45 64 -24 0 -50 2 -58 4 -7 3 -23 1 -36 -4z m86 -26 c26 -7 25 -21 -8 -134
-39 -133 -43 -149 -38 -168 3 -11 2 -25 -2 -32 -8 -14 -24 168 -23 262 1 79
10 88 71 72z m-852 -121 c-19 -114 -25 -129 -27 -60 -3 102 -3 97 17 97 14 0
15 -7 10 -37z m108 9 c3 -5 -1 -28 -8 -53 l-13 -44 -5 40 c-3 22 -3 46 0 53 5
14 18 16 26 4z m145 -147 c7 -33 11 -78 9 -100 -3 -37 -5 -40 -37 -43 l-34 -3
7 78 c9 98 25 163 35 143 5 -8 14 -42 20 -75z"/>
<path d="M790 370 c0 -5 21 -10 46 -10 27 0 43 4 39 10 -3 6 -24 10 -46 10
-21 0 -39 -4 -39 -10z"/>
</g>
</svg>
