<?xml version="1.0" standalone="no"?>
<!DOCTYPE svg PUBLIC "-//W3C//DTD SVG 20010904//EN"
 "http://www.w3.org/TR/2001/REC-SVG-20010904/DTD/svg10.dtd">
<svg version="1.0" xmlns="http://www.w3.org/2000/svg"
 width="127.000000pt" height="86.000000pt" viewBox="0 0 127.000000 86.000000"
 preserveAspectRatio="xMidYMid meet">
<metadata>
Created by potrace 1.16, written by Peter Selinger 2001-2019
</metadata>
<g transform="translate(0.000000,86.000000) scale(0.100000,-0.100000)"
fill="#000000" stroke="none">
<path d="M530 781 c-13 -22 -35 -45 -48 -52 -13 -7 -28 -21 -33 -31 -8 -14 -5
-19 14 -23 24 -7 147 -126 147 -143 0 -6 -9 -16 -21 -22 -19 -10 -29 -3 -105
76 -81 85 -84 90 -80 127 3 22 12 50 20 63 11 15 12 25 5 29 -6 4 -36 -21 -67
-55 -72 -79 -80 -93 -54 -88 11 2 36 -12 60 -34 40 -36 41 -38 21 -48 -17 -10
-26 -6 -59 24 -21 19 -48 39 -59 46 -25 13 -26 34 -6 74 20 38 4 56 -21 24
-22 -27 -73 -68 -85 -68 -7 0 0 33 16 73 14 35 -21 15 -95 -53 -41 -38 -72
-71 -70 -73 3 -2 40 -23 83 -47 77 -44 115 -75 104 -86 -3 -3 -25 -10 -49 -15
-64 -15 -89 -43 -82 -93 14 -106 30 -113 68 -31 15 34 34 59 50 66 14 7 28 20
31 31 8 22 28 23 45 3 7 -8 21 -15 31 -15 21 0 25 20 8 37 -8 8 -4 15 12 27
40 28 58 21 108 -46 12 -16 7 -20 -44 -43 -32 -14 -66 -25 -76 -25 -24 0 -24
-13 -1 -73 32 -85 50 -86 72 -5 9 31 72 98 93 98 4 0 23 11 43 25 44 30 50 31
57 5 8 -31 27 -24 27 10 0 34 34 60 53 41 17 -17 27 -13 27 10 0 28 -15 55
-71 122 -53 63 -63 105 -34 143 8 10 15 27 15 37 0 30 -24 19 -50 -22z m-160
-75 c0 -3 -4 -8 -10 -11 -5 -3 -10 -1 -10 4 0 6 5 11 10 11 6 0 10 -2 10 -4z
m-255 -45 c-7 -22 -29 -28 -40 -12 -5 10 35 44 43 37 2 -3 1 -14 -3 -25z m88
-31 c14 -11 31 -20 39 -20 7 0 28 -14 47 -32 32 -29 32 -32 15 -45 -30 -22
-53 -15 -110 33 -54 46 -65 68 -41 77 20 9 23 8 50 -13z m267 -92 c12 -13 28
-31 38 -41 14 -16 15 -19 2 -27 -27 -17 -45 -10 -68 26 -36 55 -13 88 28 42z
m-335 -118 c-20 -22 -31 -20 -22 5 4 8 14 15 23 15 16 0 16 -2 -1 -20z m223
-60 c-7 -11 -16 -20 -20 -20 -13 0 -9 28 5 33 23 10 27 7 15 -13z"/>
<path d="M690 786 c0 -8 7 -17 16 -20 12 -5 14 -15 9 -48 -5 -30 -2 -52 9 -73
9 -16 16 -36 16 -42 0 -7 4 -13 8 -13 4 0 8 -12 7 -27 l0 -28 140 -2 c77 -1
146 -2 153 -2 9 -1 12 -11 10 -28 l-3 -28 -74 4 c-41 2 -101 12 -134 23 -69
22 -87 15 -87 -38 0 -19 -4 -34 -10 -34 -5 0 -10 -15 -10 -34 0 -46 -14 -52
-38 -20 -23 33 -42 24 -42 -19 -1 -40 -23 -103 -45 -127 -34 -38 -4 -37 72 1
62 31 97 41 167 49 86 11 164 6 197 -11 13 -7 16 -25 15 -104 -1 -94 5 -127
20 -112 12 12 22 112 23 228 1 115 14 203 36 246 8 16 15 36 15 46 0 9 4 17 9
17 5 0 13 14 16 31 4 18 15 50 25 72 28 63 16 77 -71 77 -66 0 -70 -1 -80 -26
l-10 -27 -90 5 c-79 5 -100 10 -162 42 -76 38 -107 45 -107 22z m84 -65 c3 -5
-1 -14 -9 -21 -13 -10 -15 -9 -15 9 0 21 14 28 24 12z m392 -27 c-9 -47 -47
-145 -55 -140 -3 2 -7 43 -9 90 l-4 86 37 0 c37 0 37 0 31 -36z m-161 -8 c36
-1 40 -4 43 -28 4 -33 -3 -34 -156 -18 -126 14 -130 15 -101 40 21 18 32 20
99 13 41 -4 93 -7 115 -7z m49 -97 c17 -16 0 -20 -82 -20 -97 0 -216 20 -186
32 25 10 256 0 268 -12z m-16 -145 c25 -5 30 -29 6 -38 -35 -13 -205 -6 -236
10 -31 16 -31 16 -10 28 21 11 186 12 240 0z m20 -106 c3 -28 3 -28 -50 -23
-29 2 -84 7 -122 10 -38 3 -74 9 -80 12 -20 13 70 28 159 28 l90 0 3 -27z
m-339 -37 c11 -7 9 -11 -9 -21 -25 -13 -35 -8 -27 15 7 17 16 19 36 6z"/>
</g>
</svg>
