<?xml version="1.0" standalone="no"?>
<!DOCTYPE svg PUBLIC "-//W3C//DTD SVG 20010904//EN"
 "http://www.w3.org/TR/2001/REC-SVG-20010904/DTD/svg10.dtd">
<svg version="1.0" xmlns="http://www.w3.org/2000/svg"
 width="103.000000pt" height="76.000000pt" viewBox="0 0 103.000000 76.000000"
 preserveAspectRatio="xMidYMid meet">
<metadata>
Created by potrace 1.16, written by Peter Selinger 2001-2019
</metadata>
<g transform="translate(0.000000,76.000000) scale(0.100000,-0.100000)"
fill="#000000" stroke="none">
<path d="M743 753 c9 -2 25 -2 35 0 9 3 1 5 -18 5 -19 0 -27 -2 -17 -5z"/>
<path d="M76 716 c-39 -53 -45 -85 -31 -167 7 -41 13 -112 15 -159 2 -47 4
-96 5 -110 1 -14 3 -53 3 -87 2 -50 5 -63 18 -63 13 0 14 14 10 104 -4 78 -2
107 8 115 11 9 326 15 416 8 62 -5 330 16 324 25 -4 6 -36 7 -88 2 -59 -5
-560 -9 -649 -4 -5 0 -7 12 -5 28 l3 27 310 2 c171 1 340 4 378 7 37 2 68 2
69 -2 0 -4 2 -91 3 -195 2 -167 6 -210 19 -196 2 2 7 58 10 124 4 65 10 122
15 125 5 3 12 21 15 40 26 130 59 281 68 313 16 52 6 58 -72 46 -84 -12 -303
-12 -550 2 -154 8 -203 14 -233 28 l-38 19 -23 -32z m80 -16 c8 0 14 -4 14
-10 0 -5 -18 -10 -40 -10 -22 0 -40 4 -40 9 0 12 21 21 38 15 8 -2 20 -4 28
-4z m692 -30 c6 0 12 -9 12 -20 0 -16 -7 -20 -37 -22 -36 -1 -36 -1 -6 -5 39
-5 51 -30 20 -42 -20 -8 -20 -10 -4 -16 9 -4 17 -15 17 -25 0 -15 -10 -20 -52
-24 -81 -9 -636 7 -675 19 -20 6 -2 45 21 45 20 1 20 1 3 14 -11 8 -14 17 -8
20 5 4 144 4 308 2 164 -3 304 -1 312 3 8 5 -79 9 -200 10 -306 2 -399 6 -400
17 -1 24 111 33 391 29 157 -2 291 -4 298 -5z m112 -10 c0 -13 -29 -157 -36
-182 -11 -36 -22 -16 -29 50 -8 66 -7 120 2 135 7 11 63 8 63 -3z m-861 -75
c-10 -35 -15 -41 -21 -28 -13 35 -9 71 10 75 25 6 26 3 11 -47z m500 -90 c190
0 255 -3 258 -12 3 -7 -8 -16 -24 -20 -40 -11 -713 -7 -725 5 -26 26 91 46
192 33 25 -3 159 -5 299 -6z"/>
<path d="M170 582 c0 -5 78 -12 173 -15 217 -8 413 -9 406 -3 -3 3 -83 8 -179
11 -96 3 -226 8 -287 10 -64 4 -113 2 -113 -3z"/>
<path d="M770 570 c0 -5 10 -10 23 -10 18 0 19 2 7 10 -19 13 -30 13 -30 0z"/>
<path d="M118 294 c-5 -4 -8 -10 -8 -13 0 -10 729 -11 735 0 4 6 -64 9 -177 8
-101 -1 -264 1 -363 6 -99 4 -183 4 -187 -1z"/>
<path d="M165 10 c-3 -5 1 -10 10 -10 9 0 13 5 10 10 -3 6 -8 10 -10 10 -2 0
-7 -4 -10 -10z"/>
</g>
</svg>
