<?xml version="1.0" standalone="no"?>
<!DOCTYPE svg PUBLIC "-//W3C//DTD SVG 20010904//EN"
 "http://www.w3.org/TR/2001/REC-SVG-20010904/DTD/svg10.dtd">
<svg version="1.0" xmlns="http://www.w3.org/2000/svg"
 width="72.000000pt" height="95.000000pt" viewBox="0 0 72.000000 95.000000"
 preserveAspectRatio="xMidYMid meet">
<metadata>
Created by potrace 1.16, written by Peter Selinger 2001-2019
</metadata>
<g transform="translate(0.000000,95.000000) scale(0.100000,-0.100000)"
fill="#000000" stroke="none">
<path d="M440 939 c0 -7 -20 -36 -45 -65 -25 -28 -45 -60 -45 -70 0 -9 -25
-51 -56 -91 -31 -41 -54 -77 -51 -79 3 -3 21 19 41 48 38 58 86 108 86 90 0
-6 -4 -13 -9 -16 -5 -3 -19 -22 -30 -42 l-22 -37 22 6 c19 5 152 -33 167 -47
9 -10 -17 -56 -31 -56 -8 0 -48 16 -90 35 -42 19 -80 35 -85 35 -5 0 -17 -16
-26 -35 -9 -19 -21 -35 -26 -35 -21 0 -25 2 -22 13 2 7 -8 1 -22 -12 -17 -16
-22 -27 -15 -31 14 -9 0 -130 -15 -130 -6 0 -16 8 -23 19 -9 15 -8 23 3 40 20
28 5 27 -22 -2 -26 -29 -64 -83 -64 -92 0 -4 14 -5 31 -1 17 3 40 1 51 -5 17
-9 19 -17 14 -50 -7 -43 4 -51 26 -18 12 18 17 20 35 11 12 -7 25 -26 28 -44
7 -28 8 -29 18 -12 5 10 11 20 13 22 1 2 12 -1 23 -8 15 -8 21 -21 22 -48 0
-33 1 -34 10 -14 7 18 15 23 36 20 25 -3 29 -8 34 -48 l5 -45 13 32 c15 38 39
43 66 14 15 -17 16 -31 10 -92 -5 -52 -4 -70 4 -65 6 4 11 15 11 24 1 45 59
172 122 265 22 33 38 60 36 61 -2 1 -24 10 -50 20 -56 21 -98 61 -115 112 -11
31 -11 40 0 53 8 9 41 50 75 91 34 41 76 90 93 107 35 37 33 48 -12 57 -25 5
-37 2 -51 -13 -17 -19 -20 -19 -55 -5 -50 20 -71 46 -79 99 -4 29 -11 45 -20
45 -8 0 -14 -5 -14 -11z m0 -68 c0 -12 -20 -25 -27 -18 -7 7 6 27 18 27 5 0 9
-4 9 -9z m71 -78 c63 -29 69 -39 42 -72 -18 -21 -18 -21 -60 -2 -23 11 -52 31
-64 45 -13 14 -31 26 -42 26 -16 0 -17 3 -7 15 19 22 65 18 131 -12z m139 -2
c0 -12 -20 -25 -27 -18 -7 7 6 27 18 27 5 0 9 -4 9 -9z m-56 -75 c-9 -15 -19
-25 -21 -22 -3 2 3 16 13 30 9 15 19 25 21 22 3 -2 -3 -16 -13 -30z m-121 -14
c54 -25 72 -42 44 -42 -23 0 -151 58 -156 71 -5 16 39 5 112 -29z m-101 -112
c20 -6 47 -19 60 -30 21 -17 22 -20 7 -35 -15 -15 -21 -15 -85 12 -106 44 -93
83 18 53z m-132 -64 c0 -7 -7 -19 -15 -26 -12 -10 -15 -9 -15 7 0 11 3 23 7
26 11 12 23 8 23 -7z m70 -1 l25 -13 -27 -11 c-16 -6 -28 -17 -28 -25 0 -33
-22 -116 -31 -116 -5 0 -17 15 -25 34 -15 31 -15 36 2 72 18 40 43 74 53 74 3
-1 17 -7 31 -15z m69 -21 c26 -13 30 -19 20 -30 -6 -8 -17 -14 -23 -14 -7 0
-18 -31 -27 -72 -15 -75 -26 -89 -52 -64 -14 14 -13 23 10 83 13 38 27 78 30
91 6 26 3 26 42 6z m97 -22 c-10 -10 -29 15 -21 28 6 9 10 8 17 -4 6 -10 7
-20 4 -24z m-17 -36 c23 -13 23 -13 3 -18 -12 -3 -23 -16 -26 -29 -3 -13 -10
-50 -16 -82 -11 -57 -12 -58 -33 -44 -28 19 -25 61 8 135 26 56 28 58 64 38z
m65 -35 c6 -8 -10 -161 -19 -189 -6 -17 -65 12 -65 32 0 19 27 95 47 134 18
33 28 39 37 23z m86 -41 c13 -8 12 -13 -4 -42 -11 -18 -28 -44 -39 -58 l-20
-25 6 59 c7 68 23 87 57 66z"/>
</g>
</svg>
