<?xml version="1.0" standalone="no"?>
<!DOCTYPE svg PUBLIC "-//W3C//DTD SVG 20010904//EN"
 "http://www.w3.org/TR/2001/REC-SVG-20010904/DTD/svg10.dtd">
<svg version="1.0" xmlns="http://www.w3.org/2000/svg"
 width="106.000000pt" height="101.000000pt" viewBox="0 0 106.000000 101.000000"
 preserveAspectRatio="xMidYMid meet">
<metadata>
Created by potrace 1.16, written by Peter Selinger 2001-2019
</metadata>
<g transform="translate(0.000000,101.000000) scale(0.100000,-0.100000)"
fill="#000000" stroke="none">
<path d="M2 990 c0 -14 2 -19 5 -12 2 6 2 18 0 25 -3 6 -5 1 -5 -13z"/>
<path d="M876 942 c-22 -35 -102 -103 -153 -131 -13 -6 -23 -16 -23 -21 0 -5
22 -27 49 -48 40 -32 47 -42 39 -57 -7 -11 -8 -57 -4 -121 4 -57 4 -134 0
-172 -6 -62 -9 -71 -35 -86 -16 -10 -38 -15 -48 -11 -10 3 -23 -1 -30 -9 -10
-12 0 -27 56 -83 38 -37 77 -85 87 -106 28 -61 47 -42 27 29 -6 21 -5 38 5 55
7 13 13 38 14 55 0 32 85 172 157 260 l33 41 -24 16 c-13 9 -27 26 -31 37 -3
11 -11 20 -17 20 -6 0 -33 23 -59 51 -48 51 -49 54 -49 113 1 81 13 133 40
161 21 22 20 45 0 45 -6 0 -21 -17 -34 -38z m-40 -132 c-5 -33 -13 -60 -17
-60 -4 0 -21 11 -36 25 l-28 25 40 35 c22 19 42 35 46 35 3 0 1 -27 -5 -60z
m28 -167 c4 -9 6 -70 5 -135 -1 -108 -3 -120 -22 -133 -12 -8 -24 -15 -28 -15
-7 0 -1 214 7 268 5 34 28 43 38 15z m95 -75 c22 -21 41 -42 41 -46 0 -13 -80
-92 -93 -92 -9 0 -12 24 -10 83 1 45 2 86 2 90 1 13 15 5 60 -35z m-61 -200
c-41 -62 -78 -126 -78 -134 0 -5 -5 -16 -10 -24 -8 -12 -14 -10 -40 15 -16 16
-30 34 -30 39 1 11 148 124 164 125 4 1 2 -9 -6 -21z"/>
<path d="M2 920 c0 -14 2 -19 5 -12 2 6 2 18 0 25 -3 6 -5 1 -5 -13z"/>
<path d="M183 880 c-28 -11 -30 -54 -9 -143 7 -31 10 -60 6 -62 -5 -3 -6 -14
-3 -25 6 -24 -9 -26 -27 -5 -33 40 -72 0 -85 -85 -8 -52 -28 -105 -44 -114 -6
-4 -11 -11 -11 -17 0 -16 23 -10 49 15 27 25 166 76 206 76 13 0 30 7 39 15
33 33 70 19 141 -52 36 -38 80 -92 98 -120 17 -29 35 -53 40 -53 18 0 28 62
30 190 2 126 4 140 29 188 15 28 24 53 20 56 -4 2 -25 6 -47 7 -32 3 -40 1
-40 -13 0 -26 -58 -82 -126 -124 -58 -35 -65 -36 -123 -31 -79 7 -93 13 -100
43 -10 40 4 75 66 161 33 46 56 87 53 93 -8 12 -132 12 -162 0z m109 -18 c14
-6 12 -14 -20 -64 -20 -31 -40 -57 -43 -57 -10 -1 -19 39 -19 81 0 32 3 37 28
41 15 2 29 4 32 5 3 0 13 -2 22 -6z m320 -182 c-16 -38 -17 -38 -20 -13 -2 17
3 32 14 40 25 18 25 18 6 -27z m-35 -127 c13 -102 15 -163 6 -163 -5 0 -27 26
-51 57 -34 45 -42 63 -37 83 9 36 55 111 64 105 5 -2 13 -40 18 -82z m-83 43
c-7 -17 -34 -23 -34 -6 0 9 32 31 38 26 1 -2 0 -11 -4 -20z m-346 -3 c15 -10
31 -23 35 -31 6 -8 19 -11 43 -6 50 9 43 -13 -8 -26 -24 -6 -60 -18 -81 -26
-61 -23 -59 -26 -36 69 6 20 12 37 15 37 2 0 17 -8 32 -17z"/>
<path d="M3 760 c0 -41 2 -58 4 -37 2 20 2 54 0 75 -2 20 -4 3 -4 -38z"/>
<path d="M684 708 c-2 -4 -1 -9 4 -11 4 -3 7 -89 6 -191 -1 -102 2 -186 7
-186 12 0 19 69 23 225 2 77 7 147 10 156 6 14 2 17 -19 15 -15 0 -29 -4 -31
-8z"/>
<path d="M3 630 c0 -25 2 -35 4 -22 2 12 2 32 0 45 -2 12 -4 2 -4 -23z"/>
</g>
</svg>
