<?xml version="1.0" standalone="no"?>
<!DOCTYPE svg PUBLIC "-//W3C//DTD SVG 20010904//EN"
 "http://www.w3.org/TR/2001/REC-SVG-20010904/DTD/svg10.dtd">
<svg version="1.0" xmlns="http://www.w3.org/2000/svg"
 width="64.000000pt" height="77.000000pt" viewBox="0 0 64.000000 77.000000"
 preserveAspectRatio="xMidYMid meet">
<metadata>
Created by potrace 1.16, written by Peter Selinger 2001-2019
</metadata>
<g transform="translate(0.000000,77.000000) scale(0.100000,-0.100000)"
fill="#000000" stroke="none">
<path d="M175 700 c6 -27 4 -30 -18 -30 -16 0 -31 -10 -42 -26 -15 -23 -15
-39 -6 -147 11 -126 13 -188 12 -269 -1 -41 -4 -48 -24 -53 -20 -5 -24 -16
-34 -78 -6 -40 -10 -74 -8 -76 2 -2 16 6 32 17 50 35 114 63 131 58 10 -3 31
-2 47 3 17 4 45 6 63 3 27 -3 32 -9 32 -30 0 -29 16 -19 22 13 3 18 11 20 73
21 56 0 69 3 65 15 -20 61 12 283 60 423 11 33 20 65 20 71 0 9 -27 12 -97 11
-54 0 -111 4 -128 11 -16 6 -42 14 -57 17 -14 3 -47 22 -72 41 -59 45 -80 46
-71 5z m57 -73 c-26 -12 -37 -5 -28 18 5 13 10 14 28 4 l23 -12 -23 -10z m-75
-38 c-10 -82 -22 -82 -33 -1 -6 49 -5 52 16 52 22 0 22 -3 17 -51z m223 14
c41 -2 86 -6 99 -9 l24 -5 -6 -216 c-3 -125 -10 -220 -15 -225 -6 -6 -28 -11
-48 -12 -51 -1 -53 13 -16 127 17 51 32 106 34 122 3 29 1 30 -31 27 -31 -3
-33 -2 -27 20 38 130 38 130 -20 142 -48 10 -47 18 -23 -287 6 -81 10 -149 8
-151 -2 -2 -26 0 -54 3 l-50 6 3 105 c2 74 11 131 28 194 27 95 23 113 -21
100 -47 -15 -48 -20 -41 -174 8 -174 3 -210 -30 -210 -45 0 -52 20 -48 137 5
113 22 248 34 272 10 18 90 50 110 44 8 -3 49 -7 90 -10z m191 -6 c-3 -32 -25
-96 -32 -91 -14 8 -11 92 4 97 15 7 29 4 28 -6z m-177 -66 c6 -9 -14 -75 -20
-68 -3 2 -7 21 -9 41 -4 27 -1 36 9 36 8 0 17 -4 20 -9z m-119 -38 c-10 -42
-25 -52 -25 -17 0 32 6 44 23 44 5 0 6 -12 2 -27z m144 -145 c-15 -70 -21 -77
-30 -33 -10 50 -3 75 21 75 16 0 17 -5 9 -42z m-304 -244 c0 -18 -6 -30 -16
-32 -12 -2 -14 5 -11 33 5 43 27 42 27 -1z m55 12 c0 -3 -4 -8 -10 -11 -5 -3
-10 -1 -10 4 0 6 5 11 10 11 6 0 10 -2 10 -4z"/>
<path d="M631 14 c0 -11 3 -14 6 -6 3 7 2 16 -1 19 -3 4 -6 -2 -5 -13z"/>
</g>
</svg>
