<?xml version="1.0" standalone="no"?>
<!DOCTYPE svg PUBLIC "-//W3C//DTD SVG 20010904//EN"
 "http://www.w3.org/TR/2001/REC-SVG-20010904/DTD/svg10.dtd">
<svg version="1.0" xmlns="http://www.w3.org/2000/svg"
 width="127.000000pt" height="85.000000pt" viewBox="0 0 127.000000 85.000000"
 preserveAspectRatio="xMidYMid meet">
<metadata>
Created by potrace 1.16, written by Peter Selinger 2001-2019
</metadata>
<g transform="translate(0.000000,85.000000) scale(0.100000,-0.100000)"
fill="#000000" stroke="none">
<path d="M628 731 c-24 -26 -68 -65 -98 -86 -30 -21 -71 -52 -91 -69 -20 -17
-58 -43 -85 -58 -27 -15 -61 -35 -76 -45 -26 -16 -29 -16 -85 7 -32 13 -67 32
-77 42 -21 19 -55 33 -62 25 -8 -7 -26 -229 -19 -236 4 -3 18 7 32 24 46 53
112 83 178 80 44 -2 53 -7 82 -40 18 -21 33 -47 33 -57 0 -10 11 -23 24 -28
13 -5 31 -19 40 -32 34 -48 110 -128 123 -128 20 0 15 26 -10 54 -31 34 -47
92 -39 141 7 39 8 40 52 41 65 2 148 12 159 19 6 3 96 8 202 10 105 3 195 8
200 11 25 15 -9 21 -88 16 -120 -8 -152 -7 -198 2 -22 4 -74 11 -115 16 -41 5
-91 15 -110 22 -41 16 -80 40 -80 50 0 10 79 125 128 186 69 88 53 115 -20 33z
m-128 -183 c0 -7 -6 -25 -14 -40 -8 -15 -18 -42 -22 -60 -4 -18 -8 -35 -9 -38
-20 -72 -30 -76 -69 -29 -28 33 -33 49 -15 49 19 0 -11 30 -30 30 -25 1 38 48
82 62 20 6 42 17 48 25 14 16 29 17 29 1z m-340 -109 c0 -6 -65 -49 -76 -49
-6 0 -5 66 2 72 7 8 74 -13 74 -23z m385 -9 c3 -5 1 -10 -4 -10 -6 0 -11 5
-11 10 0 6 2 10 4 10 3 0 8 -4 11 -10z"/>
<path d="M1175 732 c-38 -35 -133 -98 -162 -107 -42 -12 -29 -51 33 -109 31
-28 62 -63 70 -78 13 -25 12 -28 -39 -76 -81 -78 -120 -111 -139 -118 -10 -3
-18 -9 -18 -13 0 -12 41 -45 103 -81 31 -19 57 -38 57 -42 0 -4 9 -8 20 -8 27
0 25 24 -3 47 -22 17 -23 23 -16 81 4 35 13 71 21 80 7 9 21 33 31 52 10 20
31 50 47 67 41 44 41 65 -1 43 -15 -9 -24 -5 -47 22 -27 29 -33 68 -11 68 5 0
9 6 9 13 0 16 47 104 76 143 13 17 24 34 24 37 0 16 -27 5 -55 -21z m-43 -79
c-4 -10 -16 -37 -26 -60 -19 -45 -30 -53 -39 -29 -10 26 8 66 38 86 37 24 36
24 27 3z m-82 -385 c-5 -17 -7 -42 -4 -55 8 -29 -7 -30 -40 0 -21 18 -23 25
-13 37 9 12 55 47 64 49 1 1 -2 -13 -7 -31z"/>
</g>
</svg>
