<?xml version="1.0" standalone="no"?>
<!DOCTYPE svg PUBLIC "-//W3C//DTD SVG 20010904//EN"
 "http://www.w3.org/TR/2001/REC-SVG-20010904/DTD/svg10.dtd">
<svg version="1.0" xmlns="http://www.w3.org/2000/svg"
 width="69.000000pt" height="80.000000pt" viewBox="0 0 69.000000 80.000000"
 preserveAspectRatio="xMidYMid meet">
<metadata>
Created by potrace 1.16, written by Peter Selinger 2001-2019
</metadata>
<g transform="translate(0.000000,80.000000) scale(0.100000,-0.100000)"
fill="#000000" stroke="none">
<path d="M668 793 c7 -3 16 -2 19 1 4 3 -2 6 -13 5 -11 0 -14 -3 -6 -6z"/>
<path d="M192 735 c-8 -18 -26 -28 -69 -40 -90 -25 -110 -35 -92 -45 13 -9 19
-167 19 -467 0 -38 11 -41 62 -15 31 16 59 19 203 18 190 -1 183 2 184 -86 1
-49 13 -76 29 -66 6 3 8 32 5 69 -4 50 -2 67 11 79 17 18 21 38 7 38 -19 0
-20 32 -2 73 10 24 22 79 25 122 7 82 12 101 52 220 13 39 24 78 24 87 0 19
-29 29 -75 24 -16 -2 -39 -4 -50 -4 -13 -1 -25 -13 -32 -32 -11 -29 -13 -30
-55 -24 -78 11 -123 25 -155 50 -42 32 -76 31 -91 -1z m415 -37 c-3 -13 -15
-54 -26 -93 -20 -67 -24 -83 -40 -165 -7 -33 -8 -31 -15 25 -3 33 -8 96 -9
141 -2 95 8 114 60 114 32 0 35 -2 30 -22z m-362 0 c29 -13 33 -38 6 -38 -11
0 -26 -3 -35 -6 -21 -8 -32 22 -16 41 15 18 13 18 45 3z m-132 -64 c-1 -10 -4
-30 -7 -44 -2 -14 -5 -28 -5 -32 -1 -5 -5 -8 -10 -8 -9 0 -14 88 -5 102 10 15
29 2 27 -18z m365 -84 c7 -207 7 -311 1 -321 -13 -22 -270 7 -309 34 -22 15
-49 13 -62 -6 -3 -6 -6 27 -6 74 0 78 21 201 38 224 4 6 10 22 14 37 5 24 12
27 64 33 31 4 62 8 67 10 6 2 51 3 100 2 l90 -2 3 -85z m-362 -324 c18 -19 18
-26 -1 -26 -8 0 -15 2 -15 4 0 2 -3 11 -6 20 -8 20 3 21 22 2z"/>
</g>
</svg>
