<?xml version="1.0" standalone="no"?>
<!DOCTYPE svg PUBLIC "-//W3C//DTD SVG 20010904//EN"
 "http://www.w3.org/TR/2001/REC-SVG-20010904/DTD/svg10.dtd">
<svg version="1.0" xmlns="http://www.w3.org/2000/svg"
 width="58.000000pt" height="73.000000pt" viewBox="0 0 58.000000 73.000000"
 preserveAspectRatio="xMidYMid meet">
<metadata>
Created by potrace 1.16, written by Peter Selinger 2001-2019
</metadata>
<g transform="translate(0.000000,73.000000) scale(0.100000,-0.100000)"
fill="#000000" stroke="none">
<path d="M133 591 c-51 -49 -93 -93 -93 -99 0 -5 17 -17 38 -25 21 -8 44 -22
51 -31 8 -9 19 -16 26 -16 7 0 18 -6 24 -13 8 -10 3 -21 -22 -44 -17 -17 -42
-36 -54 -42 -13 -7 -23 -17 -23 -22 0 -16 36 -52 107 -110 42 -34 65 -61 71
-81 8 -31 35 -58 47 -47 12 13 -36 99 -79 145 -50 52 -50 51 -14 137 21 49 45
60 68 32 7 -8 18 -15 26 -15 12 0 112 -94 142 -133 15 -20 42 -23 42 -4 0 6
-24 39 -54 73 l-54 60 9 50 c11 62 40 144 51 144 4 0 8 6 8 14 0 8 16 33 35
56 19 23 35 46 35 51 0 22 -31 6 -57 -28 -56 -75 -218 -213 -249 -213 -8 0
-21 11 -29 24 -13 20 -14 32 -4 72 13 57 35 111 49 119 12 7 13 35 3 35 -5 -1
-50 -41 -100 -89z m13 -55 c-10 -43 -11 -43 -33 -29 -30 20 -29 27 10 51 17
11 32 21 33 21 0 1 -4 -19 -10 -43z m223 -78 c-11 -35 -21 -67 -22 -71 -5 -15
-57 34 -57 54 0 10 4 19 8 19 5 0 24 14 42 30 18 17 37 30 41 30 4 0 -2 -28
-12 -62z m-197 -143 c-6 -32 -16 -39 -31 -21 -9 11 -8 18 4 30 23 23 33 20 27
-9z"/>
</g>
</svg>
