<?xml version="1.0" standalone="no"?>
<!DOCTYPE svg PUBLIC "-//W3C//DTD SVG 20010904//EN"
 "http://www.w3.org/TR/2001/REC-SVG-20010904/DTD/svg10.dtd">
<svg version="1.0" xmlns="http://www.w3.org/2000/svg"
 width="86.000000pt" height="74.000000pt" viewBox="0 0 86.000000 74.000000"
 preserveAspectRatio="xMidYMid meet">
<metadata>
Created by potrace 1.16, written by Peter Selinger 2001-2019
</metadata>
<g transform="translate(0.000000,74.000000) scale(0.100000,-0.100000)"
fill="#000000" stroke="none">
<path d="M201 678 c-32 -84 -41 -98 -74 -112 -47 -19 -55 -37 -46 -100 5 -28
7 -104 6 -169 -3 -114 4 -149 17 -86 3 17 6 51 6 74 0 48 17 68 52 63 21 -3
23 -9 28 -68 6 -77 17 -69 19 14 2 68 5 76 31 76 24 0 40 -29 40 -69 0 -17 5
-31 11 -31 6 0 9 16 8 40 -3 43 11 66 35 57 10 -4 16 -20 17 -44 l1 -38 8 32
c4 18 12 39 18 46 6 7 7 18 2 27 -4 7 -4 24 1 37 12 31 12 80 0 88 -15 8 -25
-15 -31 -70 -4 -43 -8 -50 -28 -53 -23 -3 -23 -2 -17 45 4 26 7 50 7 53 0 22
-4 30 -15 30 -10 0 -14 -16 -16 -52 -2 -62 -15 -82 -43 -67 -11 6 -17 17 -14
27 3 9 8 38 12 65 6 45 5 47 -19 47 -23 0 -25 -4 -29 -60 -5 -68 -8 -74 -37
-65 -24 7 -25 15 -10 84 10 47 13 50 62 71 46 20 69 23 227 24 197 1 253 -6
248 -32 -2 -10 -12 -16 -23 -15 -11 2 -47 6 -79 9 l-59 7 6 -38 c4 -24 2 -44
-6 -54 -10 -12 -9 -13 8 -6 11 4 53 10 93 12 l72 5 0 -27 c0 -29 2 -29 -110
-10 -28 5 -39 2 -54 -14 -25 -28 -15 -36 26 -21 22 7 51 9 88 3 45 -7 55 -12
55 -28 0 -22 0 -22 -120 -14 -57 4 -60 3 -63 -20 -3 -19 0 -23 14 -17 10 4 53
10 95 13 56 4 78 2 84 -7 16 -26 -25 -42 -88 -35 -32 3 -65 9 -73 12 -9 3 -18
-5 -24 -22 -12 -32 -7 -43 13 -27 7 6 50 14 95 17 78 6 82 6 82 -14 0 -12 -3
-21 -7 -22 -5 0 -50 -2 -100 -3 -51 -1 -95 -5 -98 -8 -3 -3 -10 -19 -14 -36
l-9 -31 66 5 c37 2 89 7 115 9 l48 4 -3 -32 c-3 -32 -4 -32 -53 -31 -43 1
-174 25 -212 39 -10 3 -9 14 3 47 9 26 17 92 19 169 2 70 7 138 10 152 5 19 2
28 -13 36 -11 6 -22 7 -26 4 -3 -3 -6 -87 -6 -186 0 -143 -3 -182 -14 -191
-18 -14 -58 -156 -44 -156 5 0 24 12 42 26 26 22 27 26 9 20 -19 -6 -23 -4
-23 12 0 11 6 25 14 31 12 10 19 8 33 -6 16 -16 33 -18 141 -15 122 3 129 1
123 -32 -3 -14 10 -48 16 -42 3 3 7 40 9 83 7 145 56 386 99 490 12 29 12 33
-6 38 -10 4 -23 4 -28 0 -5 -3 -29 1 -52 9 -48 17 -79 7 -79 -24 0 -11 -3 -20
-7 -20 -5 0 -78 7 -163 16 -165 16 -258 37 -267 60 -8 21 -22 17 -32 -8z m54
-57 c3 -5 -4 -13 -16 -16 -23 -8 -34 -1 -24 14 8 13 32 14 40 2z m526 -1 c25
0 29 -3 24 -19 -3 -11 -8 -28 -10 -38 -2 -10 -13 -49 -25 -87 -24 -77 -40 -75
-40 4 0 25 -5 62 -11 83 -12 46 -5 72 17 63 9 -3 29 -6 45 -6z m-661 -90 c0
-5 -2 -10 -4 -10 -3 0 -8 5 -11 10 -3 6 -1 10 4 10 6 0 11 -4 11 -10z m558
-19 c-4 -16 -40 -18 -98 -5 -23 6 -24 7 -5 14 11 5 39 8 63 8 34 0 42 -4 40
-17z m32 -291 c0 -11 -37 -17 -133 -23 -48 -3 -67 -1 -64 7 2 6 18 11 36 12
17 1 34 4 38 8 10 10 123 7 123 -4z"/>
</g>
</svg>
