<?xml version="1.0" standalone="no"?>
<!DOCTYPE svg PUBLIC "-//W3C//DTD SVG 20010904//EN"
 "http://www.w3.org/TR/2001/REC-SVG-20010904/DTD/svg10.dtd">
<svg version="1.0" xmlns="http://www.w3.org/2000/svg"
 width="86.000000pt" height="100.000000pt" viewBox="0 0 86.000000 100.000000"
 preserveAspectRatio="xMidYMid meet">
<metadata>
Created by potrace 1.16, written by Peter Selinger 2001-2019
</metadata>
<g transform="translate(0.000000,100.000000) scale(0.100000,-0.100000)"
fill="#000000" stroke="none">
<path d="M676 885 c-43 -66 -48 -68 -196 -60 -74 4 -146 8 -160 10 -43 5 -136
35 -156 50 -10 8 -27 15 -37 15 -15 0 -17 -5 -12 -30 4 -17 4 -49 0 -71 -6
-34 -13 -44 -37 -53 l-30 -11 6 -75 c30 -363 28 -443 -20 -592 -7 -24 20 -24
38 0 7 9 24 23 37 31 28 15 135 46 198 56 24 4 46 11 49 16 6 10 241 4 302 -7
30 -6 33 -4 30 12 -2 15 -14 20 -48 22 -25 2 -48 9 -52 15 -15 24 14 127 36
127 27 -1 39 -21 44 -74 4 -46 8 -56 23 -56 16 0 19 8 20 48 1 26 1 63 0 83
-3 48 44 310 69 386 11 33 21 75 22 94 l3 34 -53 0 c-54 -1 -54 -1 -48 27 7
35 -6 36 -28 3z m-461 -76 l30 -11 -27 -14 c-15 -8 -33 -11 -42 -8 -28 11 -32
59 -3 49 7 -2 26 -9 42 -16z m542 -27 c-7 -60 -39 -172 -49 -172 -5 0 -8 10
-9 23 0 12 -1 55 -2 96 -2 80 7 101 45 101 19 0 20 -4 15 -48z m-427 -22 c15
-28 25 -170 13 -170 -24 0 -80 26 -103 47 -14 13 -31 23 -38 23 -17 0 -31 -40
-25 -73 3 -15 0 -48 -7 -73 -16 -55 -6 -67 24 -30 32 41 165 75 167 44 0 -7 3
-37 5 -67 l5 -54 -28 7 c-15 4 -48 11 -73 16 -25 4 -53 11 -62 15 -12 5 -20 1
-24 -10 -8 -20 11 -35 43 -35 12 0 25 -4 28 -10 4 -6 -10 -8 -38 -4 -44 6 -45
6 -57 -30 -7 -21 -10 -39 -8 -42 3 -2 33 10 68 27 34 18 82 34 106 37 l44 5 0
-82 c0 -48 -4 -81 -10 -81 -16 0 -148 38 -162 46 -7 4 -28 10 -46 13 l-34 6
-1 132 c-1 92 3 137 11 145 7 7 12 20 12 30 0 10 10 47 22 84 22 68 30 75 103
94 47 12 54 11 65 -10z m75 -32 c-7 -61 -15 -76 -15 -27 0 19 -3 44 -6 57 -5
16 -2 22 10 22 13 0 15 -9 11 -52z m165 48 c0 -2 -16 -23 -35 -46 -41 -50 -43
-58 -11 -66 34 -8 39 -30 13 -47 -12 -8 -42 -33 -67 -56 -25 -22 -47 -41 -50
-41 -15 0 8 163 35 248 3 8 24 12 60 12 30 0 55 -2 55 -4z m34 -40 c-19 -38
-34 -47 -34 -19 0 16 40 67 47 59 2 -2 -4 -20 -13 -40z m41 -64 c-13 -13 -23
22 -12 42 11 20 12 20 15 -7 2 -16 1 -32 -3 -35z m-519 1 c-11 -59 -17 -74
-27 -68 -10 7 -12 88 -2 98 3 4 13 7 21 7 11 0 13 -8 8 -37z m526 -87 c4 -6 8
-36 8 -67 0 -82 -30 -102 -82 -52 -38 37 -35 108 6 135 14 9 59 -2 68 -16z
m-402 -16 c17 -10 14 -15 -17 -24 -16 -5 -23 -3 -23 7 0 26 15 33 40 17z m273
-10 c-7 -25 -19 -34 -28 -20 -7 11 11 40 25 40 5 0 6 -9 3 -20z m-6 -113 c40
-28 72 -56 72 -62 0 -5 -33 -37 -74 -69 -51 -40 -72 -63 -65 -70 16 -16 11
-36 -10 -36 -10 0 -23 6 -27 14 -4 8 -7 73 -5 145 4 156 3 156 109 78z m156
-48 c-4 -13 -9 -17 -15 -11 -11 11 -3 32 12 32 4 0 6 -9 3 -21z m-107 -95 c-3
-9 -6 -24 -6 -35 0 -23 -28 -26 -37 -4 -3 9 3 25 12 35 22 24 40 26 31 4z
m-306 -115 c0 -4 -15 -12 -32 -18 -18 -7 -55 -21 -82 -32 -55 -21 -66 -18 -47
13 7 11 15 32 17 46 3 14 7 28 9 32 5 8 135 -32 135 -41z"/>
</g>
</svg>
