<?xml version="1.0" standalone="no"?>
<!DOCTYPE svg PUBLIC "-//W3C//DTD SVG 20010904//EN"
 "http://www.w3.org/TR/2001/REC-SVG-20010904/DTD/svg10.dtd">
<svg version="1.0" xmlns="http://www.w3.org/2000/svg"
 width="65.000000pt" height="66.000000pt" viewBox="0 0 65.000000 66.000000"
 preserveAspectRatio="xMidYMid meet">
<metadata>
Created by potrace 1.16, written by Peter Selinger 2001-2019
</metadata>
<g transform="translate(0.000000,66.000000) scale(0.100000,-0.100000)"
fill="#000000" stroke="none">
<path d="M168 608 c-3 -32 -4 -33 -55 -36 l-53 -3 0 -44 c0 -24 5 -56 11 -72
15 -38 13 -285 -2 -345 -14 -55 -8 -68 24 -48 68 43 116 64 161 72 82 13 246
21 247 12 1 -5 2 -31 4 -57 4 -55 6 -60 27 -52 13 5 15 32 15 158 -1 166 23
306 61 372 11 18 18 36 15 39 -4 3 -35 6 -69 6 -63 0 -78 -8 -79 -40 0 -22
-75 -24 -143 -4 -31 10 -67 18 -80 19 -13 0 -33 13 -46 28 -30 35 -34 34 -38
-5z m405 -24 c3 -3 3 -12 0 -20 -7 -18 -53 -18 -53 0 0 20 38 34 53 20z m-338
-33 c3 -5 -4 -13 -16 -16 -23 -8 -34 -1 -24 14 8 13 32 14 40 2z m-103 -46
c-5 -43 -19 -53 -32 -21 -16 43 -13 58 13 54 18 -2 21 -8 19 -33z m253 14 c52
0 87 -5 93 -12 5 -7 12 -83 15 -169 l7 -158 -24 0 c-17 0 -27 7 -31 23 -4 12
-19 37 -33 56 -36 48 -41 118 -13 167 31 51 13 64 -32 22 -77 -73 -107 -98
-115 -98 -5 0 -17 9 -27 20 -18 20 -59 27 -68 13 -3 -5 -8 -30 -12 -57 l-8
-49 29 7 c16 4 55 10 87 13 l57 5 50 -49 c28 -28 50 -55 50 -61 0 -34 -151
-27 -233 11 l-58 26 2 63 c3 76 21 162 40 184 21 25 91 54 117 48 13 -3 61 -5
107 -5z m157 -36 c-5 -24 -6 -25 -12 -8 -8 21 -4 35 9 35 5 0 6 -12 3 -27z
m-198 -120 c-4 -14 -11 -20 -20 -16 -13 5 -12 8 2 24 21 23 25 21 18 -8z
m-142 -38 c0 -5 -5 -11 -11 -13 -6 -2 -11 4 -11 13 0 9 5 15 11 13 6 -2 11 -8
11 -13z m-36 -169 c21 -16 22 -14 -28 -45 -42 -25 -44 -23 -26 26 13 36 24 40
54 19z"/>
</g>
</svg>
