<?xml version="1.0" standalone="no"?>
<!DOCTYPE svg PUBLIC "-//W3C//DTD SVG 20010904//EN"
 "http://www.w3.org/TR/2001/REC-SVG-20010904/DTD/svg10.dtd">
<svg version="1.0" xmlns="http://www.w3.org/2000/svg"
 width="69.000000pt" height="80.000000pt" viewBox="0 0 69.000000 80.000000"
 preserveAspectRatio="xMidYMid meet">
<metadata>
Created by potrace 1.16, written by Peter Selinger 2001-2019
</metadata>
<g transform="translate(0.000000,80.000000) scale(0.100000,-0.100000)"
fill="#000000" stroke="none">
<path d="M114 749 c-11 -23 -14 -44 -9 -80 7 -50 7 -50 -19 -43 -23 5 -26 3
-26 -20 0 -15 7 -60 15 -101 21 -102 16 -372 -9 -427 -15 -35 -15 -38 0 -38 9
0 33 13 53 28 51 41 98 62 156 72 52 9 203 -4 242 -20 34 -14 40 8 46 170 4
97 12 170 25 220 22 83 34 181 24 197 -4 6 -28 7 -57 4 -39 -5 -52 -11 -60
-28 -7 -18 -18 -23 -45 -23 -69 0 -249 67 -279 104 -20 24 -39 19 -57 -15z
m108 -75 l32 -16 -25 -14 c-32 -18 -79 -18 -79 0 0 47 22 56 72 30z m342 -62
c0 -39 -4 -75 -8 -79 -22 -22 -47 116 -26 142 24 29 35 10 34 -63z m-230 32
c9 -3 16 -12 16 -18 0 -16 -54 -56 -75 -56 -9 0 -19 -8 -22 -17 -5 -12 10 -32
51 -70 65 -61 55 -67 -40 -23 -35 16 -71 27 -79 24 -18 -7 -20 32 -5 88 9 33
15 38 48 43 20 3 48 12 62 20 30 17 25 16 44 9z m158 -70 c3 -27 7 -73 7 -101
1 -51 0 -53 -26 -53 -29 1 -65 25 -75 50 -7 20 10 140 22 156 7 8 21 9 38 5
23 -6 28 -14 34 -57z m-352 -6 c0 -42 -14 -67 -24 -43 -8 22 -8 60 1 68 14 15
23 5 23 -25z m220 -25 l0 -37 -22 22 c-22 21 -22 22 -3 37 11 8 21 15 23 15 1
0 2 -17 2 -37z m-144 -117 c32 8 31 -10 -3 -25 -31 -14 -49 -2 -38 26 5 12 9
14 12 6 3 -8 14 -11 29 -7z m49 -66 c-10 -10 -26 -22 -36 -25 -34 -11 -20 -30
40 -58 32 -15 63 -27 68 -27 5 0 22 -14 38 -30 40 -42 24 -57 -39 -36 -26 9
-66 16 -91 16 -46 0 -104 26 -106 48 -1 15 -1 55 0 87 1 21 9 27 64 43 68 21
91 14 62 -18z m158 26 c9 -7 17 -18 17 -25 0 -6 5 -11 10 -11 6 0 10 11 10 24
0 22 2 23 24 13 32 -15 36 -32 36 -144 0 -84 -2 -93 -19 -93 -38 0 -81 22 -81
42 0 31 -17 54 -55 77 -33 19 -35 23 -35 76 l0 55 38 0 c20 0 45 -7 55 -14z
m-242 -217 c38 -12 44 -29 10 -29 -10 0 -24 -7 -31 -15 -17 -20 -30 -9 -30 26
0 33 0 33 51 18z"/>
</g>
</svg>
