<?xml version="1.0" standalone="no"?>
<!DOCTYPE svg PUBLIC "-//W3C//DTD SVG 20010904//EN"
 "http://www.w3.org/TR/2001/REC-SVG-20010904/DTD/svg10.dtd">
<svg version="1.0" xmlns="http://www.w3.org/2000/svg"
 width="63.000000pt" height="77.000000pt" viewBox="0 0 63.000000 77.000000"
 preserveAspectRatio="xMidYMid meet">
<metadata>
Created by potrace 1.16, written by Peter Selinger 2001-2019
</metadata>
<g transform="translate(0.000000,77.000000) scale(0.100000,-0.100000)"
fill="#000000" stroke="none">
<path d="M450 727 c0 -7 5 -18 12 -25 13 -13 -2 -20 -127 -59 -44 -13 -106
-33 -138 -44 -37 -12 -71 -17 -91 -14 -44 9 -55 -8 -47 -70 5 -40 10 -51 27
-53 13 -2 25 5 33 20 14 25 69 73 76 66 8 -8 11 -198 4 -209 -6 -10 -78 43
-87 64 -2 4 -10 7 -17 7 -15 0 -34 -37 -56 -105 -7 -22 -17 -46 -23 -53 -17
-24 6 -27 44 -4 26 15 55 22 89 22 56 0 55 3 52 -83 -2 -63 21 -59 33 6 9 53
20 57 76 27 19 -10 46 -24 60 -30 106 -47 99 -41 100 -92 0 -44 12 -69 24 -50
3 5 10 85 16 178 6 93 15 192 20 219 33 179 44 226 52 231 21 13 4 33 -41 48
-60 19 -91 20 -91 3z m90 -53 c0 -4 -5 -24 -11 -45 -15 -47 -29 -41 -29 12 0
32 3 39 20 39 11 0 20 -3 20 -6z m-72 -52 c3 -25 0 -31 -12 -26 -18 7 -30 39
-21 54 12 20 30 4 33 -28z m-103 -23 c-9 -16 -23 -33 -31 -36 -7 -3 -14 -10
-14 -17 0 -6 -9 -29 -19 -51 -11 -22 -25 -55 -32 -72 -11 -33 -29 -45 -29 -20
0 30 23 133 37 169 11 28 23 40 47 47 54 16 58 14 41 -20z m-115 -13 c0 -3 -4
-8 -10 -11 -5 -3 -10 -1 -10 4 0 6 5 11 10 11 6 0 10 -2 10 -4z m190 -35 c29
-26 41 -45 38 -59 -3 -20 -6 -19 -50 14 -35 25 -48 41 -48 59 0 34 10 32 60
-14z m-309 -22 c-11 -12 -24 -19 -28 -15 -5 4 3 16 16 27 31 25 39 17 12 -12z
m262 -46 c20 -16 48 -36 62 -46 26 -19 34 -57 12 -57 -13 0 -127 112 -127 124
0 13 19 5 53 -21z m-53 -52 c0 -4 23 -25 52 -46 77 -59 89 -74 81 -104 -3 -14
-7 -28 -9 -30 -6 -7 -116 95 -135 125 -23 38 -26 76 -4 68 8 -4 15 -9 15 -13z
m-222 -103 c19 -19 14 -28 -13 -28 -24 0 -34 18 -18 33 9 10 17 9 31 -5z m263
-54 c100 -78 117 -101 53 -70 -16 8 -58 28 -94 44 -84 39 -105 55 -97 76 12
31 53 17 138 -50z"/>
</g>
</svg>
