<?xml version="1.0" standalone="no"?>
<!DOCTYPE svg PUBLIC "-//W3C//DTD SVG 20010904//EN"
 "http://www.w3.org/TR/2001/REC-SVG-20010904/DTD/svg10.dtd">
<svg version="1.0" xmlns="http://www.w3.org/2000/svg"
 width="60.000000pt" height="75.000000pt" viewBox="0 0 60.000000 75.000000"
 preserveAspectRatio="xMidYMid meet">
<metadata>
Created by potrace 1.16, written by Peter Selinger 2001-2019
</metadata>
<g transform="translate(0.000000,75.000000) scale(0.100000,-0.100000)"
fill="#000000" stroke="none">
<path d="M95 718 c-2 -7 -9 -32 -15 -54 -5 -23 -17 -45 -26 -48 -14 -5 -16
-19 -10 -94 3 -48 7 -139 7 -202 1 -63 6 -120 11 -127 6 -8 6 -38 -1 -84 -7
-39 -10 -73 -8 -75 2 -2 19 12 37 31 19 19 38 35 43 35 5 0 39 18 77 40 63 37
74 40 143 40 49 0 77 -4 79 -12 3 -7 10 -8 17 -4 10 7 11 34 6 121 -8 123 -11
111 66 271 21 44 39 83 39 87 0 3 -39 3 -87 0 -115 -7 -249 18 -314 58 -51 33
-58 34 -64 17z m45 -68 c0 -5 -7 -10 -15 -10 -8 0 -15 5 -15 10 0 6 7 10 15
10 8 0 15 -4 15 -10z m176 -37 c109 -8 109 -8 -10 -119 -59 -54 -120 -105
-136 -113 -17 -8 -30 -20 -30 -27 0 -7 38 -33 85 -58 89 -49 103 -62 88 -77
-15 -15 -192 5 -210 23 -23 24 -27 145 -8 210 43 138 61 166 113 170 20 2 41
2 46 -1 4 -2 32 -5 62 -8z m165 -66 c-15 -34 -30 -69 -34 -77 -3 -8 -6 15 -6
52 -1 64 1 68 26 82 16 8 31 12 35 10 4 -3 -6 -33 -21 -67z m-371 44 c0 -17
-12 -41 -21 -41 -5 0 -9 11 -9 25 0 16 6 25 15 25 8 0 15 -4 15 -9z m290 -117
c0 -48 9 -130 25 -226 4 -25 2 -28 -25 -28 -22 0 -33 7 -44 28 -8 15 -26 34
-40 42 -14 7 -26 22 -26 32 0 51 75 208 100 208 6 0 10 -25 10 -56z m-140
-109 c-13 -38 -21 -43 -40 -20 -13 16 -4 35 30 62 20 16 24 0 10 -42z m-40
-196 c0 -11 -83 -49 -106 -49 -16 0 -20 56 -4 62 20 6 110 -4 110 -13z"/>
</g>
</svg>
