<?xml version="1.0" standalone="no"?>
<!DOCTYPE svg PUBLIC "-//W3C//DTD SVG 20010904//EN"
 "http://www.w3.org/TR/2001/REC-SVG-20010904/DTD/svg10.dtd">
<svg version="1.0" xmlns="http://www.w3.org/2000/svg"
 width="157.000000pt" height="81.000000pt" viewBox="0 0 157.000000 81.000000"
 preserveAspectRatio="xMidYMid meet">
<metadata>
Created by potrace 1.16, written by Peter Selinger 2001-2019
</metadata>
<g transform="translate(0.000000,81.000000) scale(0.100000,-0.100000)"
fill="#000000" stroke="none">
<path d="M0 802 c0 -6 434 -5 490 2 14 2 -91 4 -232 5 -142 0 -258 -2 -258 -7z"/>
<path d="M563 803 c20 -2 54 -2 75 0 20 2 3 4 -38 4 -41 0 -58 -2 -37 -4z"/>
<path d="M768 803 c7 -3 16 -2 19 1 4 3 -2 6 -13 5 -11 0 -14 -3 -6 -6z"/>
<path d="M846 733 c-19 -27 -47 -63 -62 -81 -15 -18 -24 -35 -21 -38 3 -3 22
-1 44 5 21 6 63 11 93 11 49 0 67 -6 145 -52 50 -28 111 -63 138 -77 26 -14
47 -29 47 -32 0 -6 -83 -49 -95 -49 -3 0 -24 -11 -46 -26 -81 -51 -108 -62
-150 -66 l-44 -3 -3 48 c-3 46 15 105 55 186 7 14 10 28 7 33 -8 13 -96 9
-113 -6 -22 -18 -132 -7 -155 17 -10 9 -26 17 -37 17 -16 0 -19 -7 -19 -54 0
-30 4 -57 8 -60 5 -3 30 6 57 19 60 31 131 34 140 6 3 -10 2 -26 -1 -36 -6
-16 -16 -17 -90 -11 -77 6 -84 5 -94 -14 -6 -11 -18 -20 -27 -20 -9 0 -46 -28
-82 -62 -37 -35 -86 -80 -109 -101 -34 -31 -41 -43 -36 -60 25 -79 38 -86 60
-29 59 148 115 213 204 236 125 31 196 27 188 -11 -5 -27 -72 -38 -132 -23
-47 12 -50 12 -68 -10 -22 -27 -18 -46 8 -42 10 2 44 7 76 12 31 4 61 11 67
15 18 10 41 -14 41 -43 0 -24 -1 -25 -67 -19 -38 3 -82 8 -100 11 -37 6 -48
-5 -57 -55 -8 -43 1 -53 28 -36 63 41 196 65 196 36 0 -17 -61 -40 -91 -34
-34 8 -34 8 -30 -138 1 -31 4 -38 18 -35 10 2 24 17 32 33 23 49 88 132 124
160 19 14 65 41 103 61 38 19 92 49 120 67 28 18 76 41 106 52 47 16 60 16 86
6 38 -16 41 -23 48 -124 3 -45 8 -88 10 -96 3 -8 -1 -48 -7 -88 -12 -73 -6
-100 18 -85 7 4 15 62 22 147 9 125 36 265 60 313 19 37 59 128 65 148 9 31
-10 41 -90 49 l-72 7 -12 -36 c-8 -24 -9 -64 -5 -121 7 -83 7 -85 -15 -85 -19
0 -20 2 -10 15 17 21 6 29 -20 15 -18 -9 -31 -5 -88 28 -246 143 -302 185
-302 227 0 39 -24 30 -64 -22z m51 -67 c-5 -15 -77 -26 -77 -13 0 6 10 21 22
34 20 22 23 22 40 6 10 -9 17 -21 15 -27z m597 6 c2 -4 -8 -34 -24 -67 -15
-33 -38 -87 -51 -119 l-24 -59 -11 114 c-6 63 -9 120 -7 127 6 13 108 18 117
4z m-593 -155 c-13 -35 -31 -35 -31 -1 0 29 33 63 38 40 2 -7 -2 -25 -7 -39z
m-216 -237 c-3 -5 -11 -10 -16 -10 -6 0 -7 5 -4 10 3 6 11 10 16 10 6 0 7 -4
4 -10z m-232 -20 c-3 -12 -8 -19 -11 -16 -5 6 5 36 12 36 2 0 2 -9 -1 -20z
m367 -46 c0 -4 -13 -21 -29 -39 -28 -32 -29 -33 -35 -12 -4 15 1 27 15 40 21
17 49 23 49 11z"/>
<path d="M405 648 c-29 -28 -51 -43 -53 -36 -2 7 -5 19 -7 25 -4 12 -105 -76
-105 -91 0 -3 8 -6 18 -6 11 0 27 -9 38 -21 10 -11 40 -37 67 -56 27 -20 53
-48 58 -62 9 -23 6 -29 -28 -59 -21 -18 -45 -39 -53 -46 -8 -7 -25 -19 -38
-25 -18 -10 -22 -19 -20 -44 2 -26 7 -32 27 -32 18 0 27 8 35 32 6 18 48 71
94 118 76 79 80 86 53 80 -28 -6 -38 0 -96 50 -36 32 -65 66 -65 76 0 10 12
24 28 31 26 13 29 11 113 -73 60 -61 90 -85 99 -79 10 6 -3 27 -53 85 -37 42
-67 83 -67 91 0 8 7 31 15 51 18 43 18 43 3 41 -7 -1 -35 -23 -63 -50z"/>
<path d="M189 569 c-20 -29 -23 -30 -35 -14 -12 16 -17 13 -68 -31 -61 -53
-67 -67 -33 -85 35 -19 87 -63 87 -74 0 -5 -17 -19 -37 -30 -20 -11 -35 -23
-35 -27 1 -5 2 -26 2 -49 0 -54 23 -50 57 11 38 68 49 78 69 58 21 -20 11 -48
-16 -48 -16 0 -20 -6 -20 -35 0 -28 4 -35 20 -35 12 0 24 10 29 24 5 13 31 44
58 70 35 34 54 46 73 44 21 -3 25 2 31 34 5 36 5 37 -22 31 -22 -4 -35 3 -73
40 -31 31 -46 55 -47 74 -1 15 -2 35 -3 45 -2 30 -14 29 -37 -3z m11 -95 c47
-43 50 -56 13 -73 -23 -10 -30 -9 -52 7 -29 21 -39 65 -20 88 15 19 13 19 59
-22z m-100 6 c0 -5 -5 -10 -11 -10 -5 0 -7 5 -4 10 3 6 8 10 11 10 2 0 4 -4 4
-10z m200 -103 c0 -35 -62 -51 -74 -20 -10 24 32 55 56 42 10 -5 18 -15 18
-22z m-170 -53 c0 -15 -22 -44 -31 -39 -11 7 7 45 21 45 6 0 10 -3 10 -6z"/>
</g>
</svg>
