<?xml version="1.0" standalone="no"?>
<!DOCTYPE svg PUBLIC "-//W3C//DTD SVG 20010904//EN"
 "http://www.w3.org/TR/2001/REC-SVG-20010904/DTD/svg10.dtd">
<svg version="1.0" xmlns="http://www.w3.org/2000/svg"
 width="80.000000pt" height="96.000000pt" viewBox="0 0 80.000000 96.000000"
 preserveAspectRatio="xMidYMid meet">
<metadata>
Created by potrace 1.16, written by Peter Selinger 2001-2019
</metadata>
<g transform="translate(0.000000,96.000000) scale(0.100000,-0.100000)"
fill="#000000" stroke="none">
<path d="M232 855 c-7 -14 -12 -31 -12 -37 0 -6 -12 -30 -27 -54 -18 -28 -36
-44 -55 -48 -35 -7 -36 -23 -3 -36 14 -5 50 -28 81 -51 41 -30 54 -45 49 -57
-4 -10 -9 -34 -12 -54 -6 -45 10 -50 45 -13 18 19 27 22 40 14 14 -9 25 -4 55
25 40 37 96 58 162 60 l40 1 3 -57 c3 -50 0 -58 -20 -70 -13 -7 -55 -13 -94
-13 -45 0 -77 -5 -87 -14 -15 -11 -18 -10 -25 10 l-9 23 -12 -23 c-10 -18 -18
-21 -42 -16 -25 6 -30 3 -39 -19 -12 -34 -27 -27 -84 39 -40 47 -49 64 -57
117 -6 35 -14 67 -18 71 -4 4 -31 -18 -60 -50 l-53 -58 23 -15 c13 -8 57 -42
97 -75 41 -33 87 -69 103 -80 16 -11 29 -26 29 -32 0 -7 9 -18 20 -25 22 -14
27 -57 10 -87 -5 -10 -12 -49 -16 -86 -6 -56 -5 -67 7 -63 9 3 16 28 20 77 7
71 22 105 43 98 7 -2 10 -43 7 -124 -2 -73 1 -123 7 -127 13 -8 23 33 26 114
3 77 9 90 35 83 16 -4 18 -13 15 -61 -1 -32 -8 -73 -13 -92 -7 -22 -7 -38 -1
-44 10 -10 12 -6 30 69 6 28 19 58 27 68 13 13 14 22 5 41 -6 15 -7 36 -2 57
5 19 15 59 23 90 7 30 17 60 20 66 12 20 -13 26 -32 8 -12 -10 -23 -42 -30
-92 -6 -42 -14 -79 -17 -82 -3 -3 -14 5 -25 19 -29 37 -10 121 37 161 22 18
90 39 129 39 l27 0 -7 -77 c-3 -43 -13 -118 -21 -168 -16 -105 -18 -165 -4
-165 5 0 11 15 14 33 20 141 30 195 39 212 6 11 14 36 18 55 9 46 54 192 94
308 l33 93 -22 8 c-42 16 -105 28 -115 21 -6 -3 -13 -22 -15 -41 -6 -44 -17
-89 -22 -89 -3 0 -39 -9 -82 -21 -42 -11 -101 -24 -130 -28 l-52 -8 -40 43
c-37 41 -40 48 -40 103 0 32 6 77 14 99 13 36 13 41 -1 46 -20 8 -18 9 -31
-19z m-26 -142 c-10 -10 -19 5 -10 18 6 11 8 11 12 0 2 -7 1 -15 -2 -18z m514
10 c2 -2 -4 -25 -14 -51 -10 -26 -26 -68 -35 -95 -25 -68 -32 -68 -25 -1 3 32
7 77 8 99 3 53 12 67 39 59 12 -3 24 -8 27 -11z m-630 -164 c0 -18 -2 -19 -15
-9 -15 12 -12 30 6 30 5 0 9 -10 9 -21z m209 -25 c-14 -18 -24 -11 -15 11 3 9
11 13 16 10 8 -5 7 -11 -1 -21z m15 -130 c18 -7 12 -24 -10 -24 -8 0 -14 7
-14 15 0 17 2 18 24 9z m56 -80 c-10 -26 -12 -27 -22 -11 -7 13 -5 25 8 45 22
33 31 11 14 -34z"/>
</g>
</svg>
