<?xml version="1.0" standalone="no"?>
<!DOCTYPE svg PUBLIC "-//W3C//DTD SVG 20010904//EN"
 "http://www.w3.org/TR/2001/REC-SVG-20010904/DTD/svg10.dtd">
<svg version="1.0" xmlns="http://www.w3.org/2000/svg"
 width="32.000000pt" height="71.000000pt" viewBox="0 0 32.000000 71.000000"
 preserveAspectRatio="xMidYMid meet">
<metadata>
Created by potrace 1.16, written by Peter Selinger 2001-2019
</metadata>
<g transform="translate(0.000000,71.000000) scale(0.100000,-0.100000)"
fill="#000000" stroke="none">
<path d="M58 665 c-40 -22 -44 -49 -13 -100 14 -25 37 -56 50 -69 29 -29 31
-85 10 -231 -7 -50 -16 -129 -20 -178 -6 -72 -4 -87 7 -87 10 0 15 11 15 33 1
17 5 69 11 115 8 68 17 94 50 150 23 38 55 84 72 101 34 38 39 55 11 46 -36
-11 -71 7 -112 59 -41 51 -41 51 -34 113 7 69 2 74 -47 48z m24 -50 c3 -14 1
-28 -3 -31 -15 -9 -29 6 -29 32 0 32 26 31 32 -1z m126 -202 c-13 -28 -44 -73
-50 -73 -5 0 -8 15 -8 34 0 34 2 36 53 45 5 0 7 -2 5 -6z"/>
</g>
</svg>
