<?xml version="1.0" standalone="no"?>
<!DOCTYPE svg PUBLIC "-//W3C//DTD SVG 20010904//EN"
 "http://www.w3.org/TR/2001/REC-SVG-20010904/DTD/svg10.dtd">
<svg version="1.0" xmlns="http://www.w3.org/2000/svg"
 width="65.000000pt" height="70.000000pt" viewBox="0 0 65.000000 70.000000"
 preserveAspectRatio="xMidYMid meet">
<metadata>
Created by potrace 1.16, written by Peter Selinger 2001-2019
</metadata>
<g transform="translate(0.000000,70.000000) scale(0.100000,-0.100000)"
fill="#000000" stroke="none">
<path d="M142 648 c-4 -60 -11 -70 -42 -63 -34 7 -62 -17 -56 -48 8 -37 16
-167 16 -272 1 -91 -11 -192 -25 -216 -13 -19 25 -7 81 26 32 19 66 35 76 35
10 0 27 5 37 12 26 16 51 -5 51 -43 0 -16 5 -29 10 -29 6 0 10 10 10 23 0 38
16 50 67 54 67 4 93 -3 93 -27 0 -11 4 -20 9 -20 9 0 15 37 26 165 9 96 45
235 90 339 9 21 15 39 13 40 -2 2 -18 8 -35 15 -29 12 -36 11 -60 -4 -38 -25
-173 -16 -273 19 -40 14 -76 26 -80 26 -3 0 -7 -15 -8 -32z m58 -38 c0 -5 -9
-10 -21 -10 -11 0 -17 5 -14 10 3 6 13 10 21 10 8 0 14 -4 14 -10z m95 -125
c0 -106 -1 -110 -22 -113 -12 -2 -43 6 -68 17 -51 23 -70 20 -80 -12 -12 -41
-17 2 -6 55 26 121 71 171 146 165 l30 -2 0 -110z m177 88 c0 -10 0 -25 -1
-33 -1 -8 -4 -53 -6 -99 -2 -46 -6 -86 -9 -88 -10 -11 -118 20 -123 35 -4 9 2
45 12 81 10 36 18 78 18 94 0 26 2 27 53 27 44 0 54 -3 56 -17z m73 0 c-3 -10
-14 -42 -23 -70 -9 -29 -20 -53 -25 -53 -16 0 3 114 21 128 23 17 35 15 27 -5z
m-425 -27 c0 -1 -5 -18 -12 -37 l-12 -34 -6 30 c-4 17 -5 33 -3 38 4 7 33 10
33 3z m55 -195 c3 -6 -3 -15 -14 -20 -27 -15 -31 -14 -31 9 0 21 33 29 45 11z
m116 -53 c2 -47 -1 -90 -7 -110 -7 -22 -30 -23 -117 -2 l-68 17 3 46 c3 42 5
46 33 51 17 4 40 12 50 18 11 6 39 12 63 12 41 0 42 -1 43 -32z m138 26 l32
-7 -3 -81 -3 -81 -32 -3 c-17 -2 -50 2 -73 8 -39 11 -41 13 -34 38 5 15 9 47
10 72 2 25 3 48 3 53 1 9 57 9 100 1z m-269 -184 c8 -5 12 -10 10 -12 -17 -11
-69 -38 -73 -38 -9 0 -16 30 -11 45 7 17 51 20 74 5z"/>
</g>
</svg>
