<?xml version="1.0" standalone="no"?>
<!DOCTYPE svg PUBLIC "-//W3C//DTD SVG 20010904//EN"
 "http://www.w3.org/TR/2001/REC-SVG-20010904/DTD/svg10.dtd">
<svg version="1.0" xmlns="http://www.w3.org/2000/svg"
 width="55.000000pt" height="62.000000pt" viewBox="0 0 55.000000 62.000000"
 preserveAspectRatio="xMidYMid meet">
<metadata>
Created by potrace 1.16, written by Peter Selinger 2001-2019
</metadata>
<g transform="translate(0.000000,62.000000) scale(0.100000,-0.100000)"
fill="#000000" stroke="none">
<path d="M195 556 c-14 -14 -25 -29 -25 -34 0 -6 -24 -9 -52 -8 l-53 1 -3 -42
c-2 -23 5 -88 14 -145 9 -57 20 -144 23 -195 6 -88 13 -114 28 -99 4 4 8 76 8
159 1 172 13 234 48 242 12 2 53 12 92 21 38 9 83 17 99 16 17 0 35 2 40 6 6
4 33 7 61 7 36 0 50 4 53 15 2 13 -12 16 -77 17 -74 1 -106 10 -218 59 -7 3
-24 -6 -38 -20z m79 -42 c54 -18 51 -26 -14 -42 -52 -13 -64 -6 -54 32 7 31 7
31 68 10z m-148 -39 c8 -20 -4 -65 -16 -65 -6 0 -10 18 -10 40 0 40 15 54 26
25z"/>
</g>
</svg>
