<?xml version="1.0" standalone="no"?>
<!DOCTYPE svg PUBLIC "-//W3C//DTD SVG 20010904//EN"
 "http://www.w3.org/TR/2001/REC-SVG-20010904/DTD/svg10.dtd">
<svg version="1.0" xmlns="http://www.w3.org/2000/svg"
 width="144.000000pt" height="74.000000pt" viewBox="0 0 144.000000 74.000000"
 preserveAspectRatio="xMidYMid meet">
<metadata>
Created by potrace 1.16, written by Peter Selinger 2001-2019
</metadata>
<g transform="translate(0.000000,74.000000) scale(0.100000,-0.100000)"
fill="#000000" stroke="none">
<path d="M353 698 c-4 -7 -15 -30 -23 -52 -8 -21 -25 -45 -38 -54 -20 -13 -22
-13 -16 2 3 9 2 16 -2 17 -5 0 -18 2 -29 4 -11 2 -45 7 -76 11 -52 6 -57 5
-64 -15 -3 -11 -4 -24 -2 -29 3 -4 8 -68 12 -143 l7 -136 -31 -6 c-30 -6 -31
-8 -26 -44 4 -22 0 -59 -9 -87 -8 -27 -13 -53 -10 -58 10 -16 40 -8 75 21 70
58 175 99 297 116 62 9 117 13 122 10 6 -3 10 -44 10 -91 0 -46 4 -84 9 -84
14 0 20 27 23 103 3 68 18 101 34 75 5 -7 10 -53 11 -102 2 -49 5 -91 8 -94
12 -12 18 13 20 90 3 100 10 118 41 118 27 0 27 1 25 -97 -1 -59 2 -73 14 -73
11 0 15 13 16 58 3 106 8 122 39 122 25 0 33 -29 28 -113 -2 -59 0 -72 12 -72
16 0 20 26 20 138 1 54 2 58 23 55 20 -3 23 -12 32 -83 12 -94 24 -87 27 15 1
58 5 73 20 81 18 9 103 23 313 49 120 16 135 19 135 30 0 10 -112 46 -325 104
-154 43 -332 126 -389 181 -30 30 -42 36 -55 28 -17 -11 -57 -110 -48 -119 3
-3 32 -8 64 -10 64 -5 137 -21 168 -37 19 -10 19 -11 -5 -17 -22 -5 -25 -11
-24 -46 1 -21 5 -63 9 -91 7 -50 7 -53 -14 -53 -25 0 -27 8 -20 116 3 58 -4
74 -33 74 -20 0 -21 -3 -14 -95 6 -75 4 -95 -6 -96 -7 0 -21 -2 -31 -4 -17 -3
-18 2 -13 58 3 34 8 83 12 109 6 45 5 47 -20 54 -15 3 -32 1 -40 -5 -11 -9
-14 -8 -12 6 1 15 -7 18 -46 19 -52 2 -64 -12 -52 -60 8 -33 -3 -33 -64 -1
-45 24 -49 28 -61 85 -7 33 -11 73 -9 90 5 33 -5 48 -19 28z m303 -96 c-22 -5
-30 3 -21 18 5 8 11 7 22 -2 15 -12 14 -13 -1 -16z m-436 -20 c0 -15 -30 -69
-45 -82 -16 -13 -17 -8 -17 50 0 11 0 25 1 30 1 12 61 14 61 2z m120 -6 c0 -2
3 -12 6 -21 6 -14 3 -14 -19 -4 -27 12 -27 29 -1 29 8 0 14 -2 14 -4z m-29
-68 c22 -6 39 -15 39 -20 0 -4 6 -8 13 -8 16 0 148 -67 164 -83 6 -7 13 -30
15 -51 3 -37 1 -40 -29 -48 -26 -7 -39 -4 -70 17 -20 14 -44 32 -53 40 -8 8
-33 29 -54 47 -21 18 -53 46 -69 61 -17 15 -37 25 -44 23 -11 -4 -11 -1 -3 14
12 23 36 25 91 8z m249 -9 c0 -11 -4 -17 -10 -14 -5 3 -10 13 -10 21 0 8 5 14
10 14 6 0 10 -9 10 -21z m60 -89 c0 -93 -1 -100 -20 -100 -18 0 -20 7 -20 60
0 61 18 140 32 140 5 0 8 -45 8 -100z m253 30 c4 -33 10 -72 13 -85 5 -20 2
-25 -14 -25 -11 0 -23 7 -26 16 -8 20 -8 102 0 132 11 38 21 24 27 -38z m162
16 c28 -8 88 -22 135 -31 47 -10 95 -23 108 -30 21 -10 15 -12 -50 -23 -133
-20 -288 -36 -294 -29 -13 13 -16 95 -4 116 9 17 17 21 33 16 12 -3 45 -12 72
-19z m-749 -91 c16 -8 36 -15 44 -15 9 0 31 -13 50 -30 l35 -29 -40 -2 c-68
-4 -155 0 -187 8 -21 5 -25 68 -5 76 25 11 76 7 103 -8z m-6 -120 c0 -5 -175
-95 -184 -95 -6 0 11 70 19 78 3 3 8 -4 12 -17 4 -14 11 -20 20 -17 8 3 17 6
19 6 2 0 4 8 4 18 0 10 3 22 7 25 7 8 103 10 103 2z"/>
</g>
</svg>
