<?xml version="1.0" standalone="no"?>
<!DOCTYPE svg PUBLIC "-//W3C//DTD SVG 20010904//EN"
 "http://www.w3.org/TR/2001/REC-SVG-20010904/DTD/svg10.dtd">
<svg version="1.0" xmlns="http://www.w3.org/2000/svg"
 width="115.000000pt" height="83.000000pt" viewBox="0 0 115.000000 83.000000"
 preserveAspectRatio="xMidYMid meet">
<metadata>
Created by potrace 1.16, written by Peter Selinger 2001-2019
</metadata>
<g transform="translate(0.000000,83.000000) scale(0.100000,-0.100000)"
fill="#000000" stroke="none">
<path d="M549 756 c-18 -31 -25 -34 -82 -40 -87 -10 -94 -16 -81 -65 9 -32 8
-46 -8 -78 -35 -72 -45 -77 -132 -63 -48 8 -87 21 -107 36 -28 21 -34 22 -53
8 -25 -16 -53 -111 -37 -127 5 -5 28 0 57 11 67 28 176 46 233 39 30 -4 53 -1
60 6 8 8 14 8 22 0 9 -9 16 -9 30 0 24 15 53 -1 57 -32 3 -21 22 -30 22 -11 0
6 7 10 15 10 33 0 12 -22 -47 -50 -53 -25 -71 -29 -111 -24 -43 6 -49 5 -54
-15 -4 -18 -13 -21 -53 -21 -26 0 -69 7 -96 15 -62 19 -120 19 -127 1 -3 -7
-9 -34 -12 -60 -6 -39 -5 -46 10 -46 9 0 26 5 38 12 12 7 47 15 77 18 37 3 54
9 52 18 -2 10 10 11 50 6 29 -4 59 -11 66 -17 19 -15 14 -55 -8 -67 -29 -16
-24 -37 12 -49 49 -17 88 -67 88 -114 0 -31 3 -38 18 -35 9 2 18 13 20 26 2
12 9 22 15 22 7 0 18 13 25 30 11 24 20 30 43 30 17 0 32 6 35 15 4 8 12 15
18 15 7 0 23 11 35 24 31 33 58 39 64 14 7 -27 23 -16 30 21 7 32 41 51 60 32
16 -16 27 -13 27 7 0 20 24 45 53 55 9 4 17 13 17 21 0 19 27 28 49 17 9 -5
46 -42 81 -82 99 -112 106 -119 119 -119 21 0 11 26 -24 66 -20 21 -45 58 -56
81 -20 41 -20 44 -3 105 9 35 23 74 29 88 7 14 16 41 20 60 l7 35 -70 -69
c-44 -43 -75 -66 -84 -62 -7 3 -26 15 -43 26 -16 10 -44 26 -61 35 -17 9 -40
24 -50 33 -11 10 -45 37 -76 60 -32 23 -65 57 -74 75 -9 17 -20 34 -23 37 -4
3 -13 20 -20 38 -17 41 -37 41 -62 -2z m37 -64 c-10 -10 -29 15 -21 28 6 9 10
8 17 -4 6 -10 7 -20 4 -24z m-126 -5 c0 -2 -9 -12 -20 -22 -19 -18 -20 -17
-20 3 0 15 6 22 20 22 11 0 20 -2 20 -3z m98 -23 c29 -5 132 -71 132 -85 0 -4
-15 -9 -32 -11 l-33 -3 3 -64 c2 -74 -8 -73 -25 2 -9 42 -9 57 3 79 19 37 18
40 -13 36 -19 -2 -27 -10 -31 -28 -7 -36 -6 -61 3 -93 7 -27 7 -28 -14 -15
-18 11 -21 22 -21 75 0 41 5 67 15 76 12 13 11 15 -9 19 -43 9 -53 -6 -49 -69
l4 -58 -25 28 c-31 34 -33 65 -5 101 15 19 27 25 45 21 13 -3 36 -7 52 -11z
m179 -120 c2 -7 -7 -14 -21 -18 -25 -6 -25 -7 -23 -116 2 -107 3 -110 25 -110
12 0 22 -5 22 -10 0 -6 -10 -15 -22 -20 -19 -7 -28 -3 -47 17 -18 21 -22 34
-17 62 3 20 8 68 12 106 4 40 13 78 22 88 17 19 43 19 49 1z m54 -47 c-6 -6
-11 -23 -11 -38 0 -15 -4 -30 -8 -33 -11 -6 -3 -64 9 -72 5 -3 9 -13 9 -22 0
-13 -5 -12 -20 8 -11 14 -19 35 -17 47 2 13 -2 28 -10 34 -24 20 14 103 43 92
11 -4 12 -9 5 -16z m-651 -1 l32 -13 -41 -17 c-23 -9 -44 -16 -46 -16 -10 0
-5 36 7 48 15 15 9 15 48 -2z m743 -43 c18 -10 34 -19 36 -21 3 -1 -1 -8 -7
-14 -7 -7 -12 -20 -12 -29 0 -10 -17 -26 -39 -37 l-39 -21 -4 34 c-4 31 17
105 29 105 3 0 19 -8 36 -17z m139 -38 c-13 -48 -18 -54 -29 -42 -24 23 -21
50 6 74 14 12 29 23 32 23 4 0 -1 -25 -9 -55z m-442 -22 c-1 -28 -37 -66 -56
-59 -10 4 -29 -5 -50 -24 -34 -29 -54 -38 -54 -22 0 17 79 93 111 106 44 20
49 19 49 -1z m50 3 c0 -15 -18 -31 -26 -23 -7 7 7 37 17 37 5 0 9 -6 9 -14z
m-210 -61 c-7 -9 -15 -13 -17 -11 -7 7 7 26 19 26 6 0 6 -6 -2 -15z m-266 -14
c16 -6 12 -10 -22 -18 -38 -10 -42 -9 -42 8 0 20 27 24 64 10z m488 -59 c18
-20 19 -25 7 -33 -19 -12 -21 -11 -44 9 -41 35 -47 49 -34 73 l12 23 19 -25
c10 -13 28 -34 40 -47z m-92 -24 c44 -37 47 -43 23 -52 -20 -8 -73 40 -73 66
0 25 5 23 50 -14z m-63 -42 l38 -34 -37 -18 -36 -17 -26 29 c-29 33 -31 45
-14 62 19 19 36 14 75 -22z"/>
<path d="M1120 595 c0 -8 2 -15 4 -15 2 0 6 7 10 15 3 8 1 15 -4 15 -6 0 -10
-7 -10 -15z"/>
</g>
</svg>
