<?xml version="1.0" standalone="no"?>
<!DOCTYPE svg PUBLIC "-//W3C//DTD SVG 20010904//EN"
 "http://www.w3.org/TR/2001/REC-SVG-20010904/DTD/svg10.dtd">
<svg version="1.0" xmlns="http://www.w3.org/2000/svg"
 width="83.000000pt" height="80.000000pt" viewBox="0 0 83.000000 80.000000"
 preserveAspectRatio="xMidYMid meet">
<metadata>
Created by potrace 1.16, written by Peter Selinger 2001-2019
</metadata>
<g transform="translate(0.000000,80.000000) scale(0.100000,-0.100000)"
fill="#000000" stroke="none">
<path d="M256 736 c-9 -20 -23 -52 -31 -70 -8 -19 -11 -37 -7 -40 14 -8 15
-106 1 -106 -7 0 -31 20 -53 45 -23 25 -46 45 -52 45 -8 0 -34 -88 -34 -118 0
-7 -9 -21 -20 -32 -19 -19 -29 -80 -12 -80 4 0 29 7 56 15 72 22 123 20 136
-6 22 -40 6 -52 -61 -45 -34 4 -72 11 -85 16 -35 14 -50 4 -51 -33 -1 -31 1
-33 36 -34 20 -1 46 5 59 13 44 29 136 -6 104 -38 -5 -5 -40 -4 -81 3 -84 13
-97 10 -103 -25 -7 -34 2 -38 55 -27 65 15 128 22 138 15 5 -3 -2 -19 -16 -36
-16 -19 -25 -42 -25 -63 0 -18 -3 -40 -6 -49 -10 -27 45 -19 111 16 56 30 67
32 165 33 58 1 115 5 126 8 26 9 78 -9 69 -23 -9 -15 4 -50 19 -50 9 0 12 43
14 164 1 118 6 176 17 203 8 21 19 56 24 78 5 22 19 68 32 103 12 34 19 66 15
70 -4 4 -38 7 -74 7 -61 0 -68 -2 -77 -24 -10 -23 -11 -23 -114 -16 -81 5
-115 12 -152 31 -26 13 -52 29 -56 36 -4 7 -18 21 -30 32 -22 18 -22 18 -37
-18z m43 -59 c13 -16 5 -27 -21 -27 -18 0 -25 20 -11 33 10 10 19 8 32 -6z
m430 -31 c10 -11 9 -24 0 -55 -20 -66 -39 -49 -31 27 4 44 12 51 31 28z m-147
-32 c54 -5 68 -10 73 -25 11 -34 -3 -41 -74 -33 -69 7 -141 30 -141 45 0 5 -8
9 -19 9 -21 0 -37 -50 -19 -61 5 -4 49 -9 96 -13 141 -11 162 -16 162 -37 0
-11 -7 -19 -17 -19 -21 0 -126 19 -177 32 -21 5 -42 6 -46 1 -14 -14 -21 -111
-8 -119 11 -7 118 -6 201 2 43 4 48 3 45 -13 -3 -15 -14 -18 -68 -17 -36 0
-88 2 -117 4 -48 4 -74 -3 -61 -15 3 -3 58 -7 122 -9 65 -2 120 -6 123 -9 3
-3 2 -11 -2 -16 -4 -7 -31 -9 -73 -6 -67 5 -136 8 -160 6 -8 -1 -12 -8 -10
-17 3 -15 20 -17 125 -18 70 -1 123 -5 123 -10 0 -6 -55 -10 -128 -10 -106 -1
-127 -3 -127 -16 0 -13 20 -15 128 -12 l128 3 -3 -23 c-3 -21 -9 -23 -73 -25
-38 -1 -97 -3 -130 -4 -91 -3 -135 7 -135 33 0 12 -7 29 -16 39 -13 14 -13 22
-4 39 10 18 9 24 -1 31 -11 6 -11 14 -1 42 7 18 12 47 12 65 0 17 5 34 10 37
6 4 9 16 8 28 -1 12 1 46 6 75 l8 54 87 -7 c47 -3 116 -8 153 -11z m-287 -51
c-10 -55 -18 -62 -26 -23 -7 34 3 60 23 60 6 0 7 -15 3 -37z m-160 -52 c3 -5
1 -12 -5 -16 -5 -3 -10 1 -10 9 0 18 6 21 15 7z m95 -40 c15 -29 13 -31 -32
-31 -51 0 -73 12 -65 34 10 24 83 22 97 -3z m419 -25 c23 -14 -1 -26 -54 -26
-71 0 -157 19 -149 32 7 12 183 6 203 -6z m-310 -312 c-31 -17 -39 -17 -39 0
0 17 18 25 44 18 17 -5 16 -6 -5 -18z m-59 -24 c0 -4 -7 -10 -15 -14 -10 -4
-15 1 -15 14 0 13 5 18 15 14 8 -4 15 -10 15 -14z"/>
</g>
</svg>
