<?xml version="1.0" standalone="no"?>
<!DOCTYPE svg PUBLIC "-//W3C//DTD SVG 20010904//EN"
 "http://www.w3.org/TR/2001/REC-SVG-20010904/DTD/svg10.dtd">
<svg version="1.0" xmlns="http://www.w3.org/2000/svg"
 width="193.000000pt" height="109.000000pt" viewBox="0 0 193.000000 109.000000"
 preserveAspectRatio="xMidYMid meet">
<metadata>
Created by potrace 1.16, written by Peter Selinger 2001-2019
</metadata>
<g transform="translate(0.000000,109.000000) scale(0.100000,-0.100000)"
fill="#000000" stroke="none">
<path d="M382 956 c-83 -85 -142 -116 -224 -116 -81 0 -86 -7 -67 -81 l16 -61
-28 -33 c-36 -41 -36 -48 -1 -41 18 4 39 0 62 -14 19 -11 52 -28 73 -37 31
-15 39 -24 43 -54 9 -53 19 -66 38 -50 9 8 16 18 16 23 0 30 120 155 190 198
32 20 -2 21 -35 1 -37 -21 -75 -28 -75 -12 0 4 -11 20 -24 34 -49 53 -60 128
-21 153 25 16 27 16 53 -8 15 -14 41 -33 57 -41 53 -27 86 -64 81 -92 -5 -26
-61 -143 -77 -159 -11 -12 -12 -46 -1 -46 4 0 14 6 21 13 17 17 41 -16 41 -57
l0 -30 -38 37 c-36 35 -82 50 -82 26 0 -16 72 -84 164 -154 43 -33 90 -70 104
-82 15 -12 39 -28 55 -34 20 -8 26 -17 22 -28 -14 -37 -36 -163 -33 -188 3
-23 7 -18 21 32 32 107 42 130 63 139 12 5 27 24 33 43 7 18 18 38 25 45 6 7
33 43 59 79 26 37 54 70 62 73 23 8 18 35 -7 45 -39 14 -117 23 -148 16 -22
-5 -27 -10 -23 -23 6 -14 4 -15 -9 -4 -24 20 -41 94 -34 153 4 29 8 55 10 57
2 2 7 -20 11 -47 4 -30 12 -51 19 -51 7 0 44 15 82 33 95 46 118 54 202 71 40
8 78 19 85 24 12 9 140 33 202 37 37 3 121 14 200 26 33 5 80 9 105 9 63 0
211 32 207 45 -6 17 -110 30 -482 60 -99 8 -198 19 -220 24 -22 6 -62 11 -90
11 -61 0 -119 17 -207 61 -57 28 -71 31 -91 22 -16 -7 -28 -24 -32 -42 -8 -40
-28 -50 -88 -46 -53 4 -58 -1 -83 -86 -8 -28 -18 -49 -22 -47 -4 2 -24 14 -44
28 -41 27 -52 64 -51 163 0 26 -3 49 -7 52 -4 2 -39 -29 -78 -69z m433 14 c3
-5 27 -19 52 -30 30 -13 43 -24 37 -30 -15 -15 -116 -32 -127 -21 -5 5 -3 26
4 50 12 41 22 50 34 31z m-383 -57 c6 -48 5 -49 -21 -22 -15 17 -18 26 -10 40
15 29 26 23 31 -18z m745 -42 c27 -6 100 -12 163 -16 63 -3 131 -8 150 -10 19
-2 74 -7 123 -11 102 -8 125 -22 37 -23 -33 0 -64 -2 -68 -5 -11 -6 -70 -14
-202 -26 -63 -6 -129 -15 -146 -21 -89 -28 -149 -33 -293 -20 -68 5 -126 13
-129 16 -8 8 29 82 52 103 11 11 30 22 41 25 28 7 214 -1 272 -12z m-484 -18
c-11 -16 -36 -54 -58 -85 -33 -49 -55 -71 -55 -54 0 16 56 152 64 158 6 4 24
8 39 8 l28 0 -18 -27z m97 -2 c0 -6 -4 -13 -10 -16 -5 -3 -10 -19 -10 -34 0
-15 -11 -42 -25 -61 -14 -19 -25 -45 -25 -60 0 -31 -55 -100 -80 -100 -10 0
-22 -5 -26 -12 -8 -12 22 -40 114 -106 67 -47 64 -33 32 -154 -11 -43 -14 -46
-32 -35 -12 7 -31 21 -43 32 -30 28 -105 88 -121 98 -8 5 -11 18 -8 35 4 23
-14 93 -40 152 -4 11 17 40 69 94 41 43 75 83 75 90 0 19 58 74 83 79 39 8 47
7 47 -2z m-541 -52 c-25 -16 -32 -9 -13 12 12 13 20 16 22 9 3 -7 -2 -16 -9
-21z m1531 21 c0 -5 -12 -10 -26 -10 -14 0 -23 4 -19 10 3 6 15 10 26 10 10 0
19 -4 19 -10z m-1600 -29 c0 -5 -9 -19 -19 -32 -15 -18 -22 -21 -31 -13 -19
19 -2 54 26 54 13 0 24 -4 24 -9z m129 -84 c32 -14 71 -47 71 -61 0 -13 -56
-59 -83 -69 -21 -8 -83 34 -92 63 -3 10 -16 20 -28 22 -27 4 -29 31 -2 37 26
4 35 19 35 55 l0 28 36 -32 c20 -17 48 -37 63 -43z m675 -16 c-5 -5 -38 -21
-74 -35 l-65 -26 -17 21 c-35 42 -25 49 74 49 54 0 88 -4 82 -9z m-264 -100
c0 -5 -5 -22 -10 -37 -8 -20 -14 -24 -22 -16 -9 9 -9 18 0 37 11 24 32 35 32
16z m198 -137 c22 -7 12 -33 -40 -106 -63 -87 -94 -122 -85 -96 4 10 9 41 13
69 5 38 12 53 25 56 20 5 27 33 9 33 -5 0 -10 13 -10 29 0 29 1 30 38 25 20
-3 43 -7 50 -10z"/>
</g>
</svg>
