<?xml version="1.0" standalone="no"?>
<!DOCTYPE svg PUBLIC "-//W3C//DTD SVG 20010904//EN"
 "http://www.w3.org/TR/2001/REC-SVG-20010904/DTD/svg10.dtd">
<svg version="1.0" xmlns="http://www.w3.org/2000/svg"
 width="83.000000pt" height="68.000000pt" viewBox="0 0 83.000000 68.000000"
 preserveAspectRatio="xMidYMid meet">
<metadata>
Created by potrace 1.16, written by Peter Selinger 2001-2019
</metadata>
<g transform="translate(0.000000,68.000000) scale(0.100000,-0.100000)"
fill="#000000" stroke="none">
<path d="M90 565 c-11 -14 -10 -42 5 -112 6 -27 12 -33 34 -34 l26 0 -23 -11
c-42 -21 -17 -33 79 -39 99 -5 119 -11 119 -34 0 -11 -19 -13 -106 -8 l-106 6
4 -24 c3 -22 8 -24 53 -25 28 0 58 4 69 9 10 5 33 6 52 2 28 -5 34 -10 34 -30
0 -29 -14 -31 -102 -13 -52 11 -63 10 -92 -6 -25 -13 -37 -28 -44 -57 -5 -22
-7 -41 -3 -43 4 -3 27 4 51 15 25 11 54 22 65 23 11 1 32 8 47 15 15 8 38 11
53 7 27 -7 27 -7 20 -76 -5 -48 -4 -70 4 -70 13 0 27 59 30 123 1 20 31 23 49
5 7 -7 12 -31 12 -55 0 -57 16 -55 25 3 8 56 26 54 38 -4 10 -50 27 -56 27 -9
0 19 3 36 6 39 3 3 7 55 10 115 5 122 8 165 19 241 8 55 2 62 -30 38 -15 -11
-19 -30 -22 -127 -4 -161 -12 -219 -28 -219 -17 0 -25 58 -12 93 5 16 7 59 4
96 -4 36 -2 84 3 106 10 45 0 65 -25 45 -11 -9 -15 -32 -15 -91 0 -78 0 -79
-25 -79 -25 0 -36 25 -14 32 9 3 9 9 1 24 -11 22 -8 54 11 91 5 13 8 26 4 29
-11 11 -57 -6 -57 -21 0 -7 -4 -16 -10 -20 -14 -9 -135 22 -172 45 -39 24 -52
25 -68 5z m233 -87 c29 -15 8 -31 -32 -23 -20 3 -65 9 -101 14 -62 7 -65 16
-10 23 37 5 122 -3 143 -14z m-9 -54 c9 -3 16 -13 16 -21 0 -13 -9 -15 -51
-10 -57 7 -64 11 -54 26 7 12 64 15 89 5z m98 -89 c16 -36 -2 -52 -31 -28 -15
12 -20 24 -16 36 10 25 34 21 47 -8z m0 -61 c3 -3 4 -14 1 -25 -7 -26 -53 -27
-53 -1 0 10 3 22 7 25 8 8 38 9 45 1z m-228 -50 c21 -8 20 -20 -1 -27 -10 -2
-26 -8 -35 -12 -14 -5 -18 -2 -18 12 0 32 18 41 54 27z"/>
<path d="M577 542 c-14 -15 -17 -49 -18 -225 -2 -197 1 -243 16 -199 11 38 14
65 21 196 3 72 10 149 15 171 12 56 11 75 -4 75 -8 0 -21 -8 -30 -18z"/>
<path d="M672 552 c-7 -5 -15 -19 -18 -33 -7 -35 -7 -476 1 -489 15 -24 23 5
29 98 4 53 11 113 15 132 5 19 14 60 19 92 6 31 22 80 36 110 40 87 39 93 -19
96 -27 1 -56 -2 -63 -6z m68 -32 c0 -6 -7 -27 -17 -48 l-16 -37 -7 30 c-14 56
-12 65 15 65 14 0 25 -5 25 -10z"/>
</g>
</svg>
