<?xml version="1.0" standalone="no"?>
<!DOCTYPE svg PUBLIC "-//W3C//DTD SVG 20010904//EN"
 "http://www.w3.org/TR/2001/REC-SVG-20010904/DTD/svg10.dtd">
<svg version="1.0" xmlns="http://www.w3.org/2000/svg"
 width="164.000000pt" height="67.000000pt" viewBox="0 0 164.000000 67.000000"
 preserveAspectRatio="xMidYMid meet">
<metadata>
Created by potrace 1.16, written by Peter Selinger 2001-2019
</metadata>
<g transform="translate(0.000000,67.000000) scale(0.100000,-0.100000)"
fill="#000000" stroke="none">
<path d="M976 577 c-20 -30 -41 -57 -48 -60 -7 -2 -10 -8 -6 -12 4 -4 20 -3
36 3 46 16 171 -9 224 -45 24 -17 81 -44 128 -61 150 -55 180 -67 180 -73 0
-7 -69 -15 -212 -25 -68 -5 -97 -3 -102 5 -4 6 0 34 9 62 10 28 15 53 12 56
-3 3 -18 1 -34 -4 -26 -9 -28 -13 -28 -69 l0 -59 -33 -3 c-31 -3 -32 -2 -32
37 0 22 4 51 10 65 8 21 6 27 -11 37 -28 15 -56 4 -39 -16 6 -7 12 -39 13 -70
1 -58 -9 -75 -45 -75 -20 0 -22 11 -19 108 1 49 -2 62 -14 62 -16 0 -19 -13
-15 -77 1 -23 -1 -56 -5 -73 -6 -26 -11 -30 -41 -30 -42 0 -42 7 -9 101 13 40
22 75 19 80 -3 5 -23 9 -45 9 -39 0 -39 0 -39 -40 0 -50 -16 -52 -59 -8 -24
25 -31 40 -29 62 5 45 -17 42 -51 -8 -38 -55 -39 -66 -2 -66 16 0 57 -16 91
-36 56 -34 61 -40 58 -68 -3 -27 -8 -32 -43 -38 -47 -9 -263 -11 -276 -3 -5 4
-9 17 -9 29 0 19 7 25 38 30 61 10 87 7 133 -14 45 -20 89 -26 89 -12 0 4 -19
16 -42 27 -66 31 -98 63 -98 96 0 41 -12 36 -48 -20 -61 -94 -87 -84 -37 15
14 27 25 52 25 56 0 9 -84 8 -99 -2 -9 -5 -9 -24 -2 -71 9 -59 8 -115 -1 -125
-2 -2 -24 7 -49 21 -40 22 -44 27 -42 59 1 19 14 54 29 76 15 22 25 42 23 45
-2 2 -41 6 -85 10 -130 9 -152 14 -205 41 -32 16 -55 22 -61 16 -5 -5 -12 -35
-15 -66 -5 -47 -3 -56 10 -56 9 0 18 4 21 9 6 10 127 39 166 40 33 0 48 -15
43 -43 -4 -21 -9 -23 -55 -19 -28 2 -65 10 -83 17 -38 16 -47 12 -64 -32 -17
-41 -11 -47 31 -34 18 6 61 16 95 23 71 13 93 4 93 -37 0 -20 -5 -23 -42 -23
-24 0 -64 5 -91 10 -35 8 -51 8 -62 -1 -22 -19 -7 -43 24 -36 43 11 165 6 173
-6 3 -7 9 -28 13 -47 10 -51 -12 -64 -93 -57 -113 12 -156 45 -59 47 47 1 120
14 107 19 -19 7 -139 5 -156 -3 -22 -9 -102 -163 -91 -174 4 -3 24 5 44 19 21
13 54 30 73 37 19 7 44 17 55 21 35 15 115 22 115 11 0 -22 18 -10 28 18 13
38 77 78 98 61 8 -8 14 -26 12 -46 -1 -18 1 -36 5 -40 4 -4 33 5 64 19 62 27
104 40 222 64 99 20 99 19 85 -111 -6 -57 -5 -68 7 -64 10 3 17 32 23 94 8 92
15 104 54 104 22 0 23 -1 16 -77 -4 -43 -8 -84 -8 -92 -1 -8 4 -16 10 -18 7
-2 13 25 17 79 6 101 11 115 43 121 36 6 42 -13 43 -133 1 -52 4 -70 11 -60 5
8 10 54 10 101 0 91 10 114 47 107 15 -2 20 -18 27 -86 5 -45 13 -82 16 -82 4
0 5 40 2 89 l-5 88 104 8 c57 4 151 13 209 21 58 7 111 14 118 14 25 0 11 15
-17 17 -36 3 -308 122 -348 152 -48 38 -187 133 -200 138 -7 3 -28 -19 -47
-50z m62 1 c21 -21 13 -38 -18 -38 -33 0 -35 3 -20 31 12 22 21 24 38 7z
m-914 -114 c13 -5 14 -9 5 -20 -15 -18 -39 -18 -39 -1 0 12 9 27 16 27 1 0 10
-3 18 -6z m266 -34 c0 -18 -32 -60 -41 -54 -10 6 -12 48 -2 57 10 11 43 8 43
-3z m129 -16 c-9 -11 -15 -12 -23 -4 -8 8 -7 13 4 20 20 12 33 1 19 -16z m196
6 c3 -5 1 -10 -4 -10 -6 0 -11 5 -11 10 0 6 2 10 4 10 3 0 8 -4 11 -10z m171
-2 c-16 -53 -17 -54 -27 -30 -5 13 -7 28 -3 33 8 14 34 11 30 -3z m-291 -77
c-3 -6 -11 -11 -17 -11 -6 0 -6 6 2 15 14 17 26 13 15 -4z m-192 -98 c9 -9
-12 -33 -29 -33 -8 0 -14 9 -14 20 0 19 28 28 43 13z m182 -53 c-43 -20 -75
-25 -75 -12 0 20 28 32 70 31 l45 0 -40 -19z m-430 -50 c5 -9 -50 -50 -67 -50
-9 0 1 29 15 48 11 14 43 16 52 2z"/>
</g>
</svg>
