<?xml version="1.0" standalone="no"?>
<!DOCTYPE svg PUBLIC "-//W3C//DTD SVG 20010904//EN"
 "http://www.w3.org/TR/2001/REC-SVG-20010904/DTD/svg10.dtd">
<svg version="1.0" xmlns="http://www.w3.org/2000/svg"
 width="95.000000pt" height="60.000000pt" viewBox="0 0 95.000000 60.000000"
 preserveAspectRatio="xMidYMid meet">
<metadata>
Created by potrace 1.16, written by Peter Selinger 2001-2019
</metadata>
<g transform="translate(0.000000,60.000000) scale(0.100000,-0.100000)"
fill="#000000" stroke="none">
<path d="M554 505 c-14 -27 -29 -38 -59 -46 -67 -19 -141 -26 -166 -17 -15 6
-31 5 -45 -3 -26 -13 -58 -5 -101 27 -17 13 -35 24 -38 24 -15 0 -38 -34 -46
-68 -12 -54 -11 -62 10 -62 11 0 22 -4 26 -10 3 -5 32 -17 65 -26 33 -9 65
-23 71 -30 14 -17 2 -54 -17 -54 -29 0 -136 62 -141 81 -3 10 -9 19 -14 19
-11 0 -29 -44 -34 -81 -2 -14 -9 -44 -16 -68 -15 -52 -12 -54 80 -72 43 -8 73
-20 88 -36 l24 -23 72 31 c69 29 173 59 209 59 12 0 15 -5 11 -16 -4 -12 0
-14 18 -10 69 14 101 14 179 -3 47 -11 95 -22 108 -26 13 -4 22 -3 22 3 0 6
-15 15 -32 21 -41 13 -239 62 -253 62 -17 1 -208 -32 -255 -43 -63 -15 -123
-10 -187 13 l-54 21 6 41 c4 23 9 44 12 47 2 2 25 -4 51 -14 26 -10 63 -21 82
-25 32 -6 35 -9 32 -39 -4 -35 10 -42 37 -19 18 16 180 57 226 58 105 2 171
-3 196 -16 15 -8 46 -15 68 -15 23 0 46 -7 56 -16 9 -9 23 -13 33 -9 16 6 16
7 -2 21 -11 7 -36 17 -55 20 -20 3 -54 12 -76 19 -123 39 -195 40 -310 1 -53
-19 -135 -28 -135 -16 0 26 171 77 266 79 68 1 258 -33 280 -50 13 -10 44 -2
44 12 0 5 -6 9 -14 9 -8 0 -72 17 -142 37 l-128 36 -76 -16 c-41 -9 -105 -25
-142 -36 -57 -17 -69 -17 -79 -5 -9 11 -9 17 1 29 16 20 199 78 219 69 9 -3
42 -8 75 -10 66 -3 268 -53 277 -67 4 -6 15 -7 25 -3 36 14 5 27 -171 70 -38
10 -87 26 -107 36 -42 20 -64 18 -195 -26 -43 -14 -91 -25 -108 -26 -16 0 -35
-5 -41 -9 -12 -10 -75 8 -85 24 -4 5 -17 14 -29 20 -38 19 -36 37 3 37 46 0
97 -19 97 -36 0 -20 24 -17 78 10 59 29 109 39 259 52 55 5 71 2 130 -25 38
-16 79 -33 93 -37 14 -4 28 -11 31 -17 7 -11 29 -1 29 13 0 5 -22 16 -49 24
-27 8 -67 23 -88 34 -21 11 -58 30 -83 42 -25 12 -52 31 -62 41 -23 27 -32 24
-54 -16z"/>
</g>
</svg>
