<?xml version="1.0" standalone="no"?>
<!DOCTYPE svg PUBLIC "-//W3C//DTD SVG 20010904//EN"
 "http://www.w3.org/TR/2001/REC-SVG-20010904/DTD/svg10.dtd">
<svg version="1.0" xmlns="http://www.w3.org/2000/svg"
 width="40.000000pt" height="60.000000pt" viewBox="0 0 40.000000 60.000000"
 preserveAspectRatio="xMidYMid meet">
<metadata>
Created by potrace 1.16, written by Peter Selinger 2001-2019
</metadata>
<g transform="translate(0.000000,60.000000) scale(0.100000,-0.100000)"
fill="#000000" stroke="none">
<path d="M280 526 l-55 -12 1 -44 c1 -25 4 -74 7 -110 3 -36 7 -109 8 -163 3
-102 14 -135 24 -70 3 21 10 52 16 68 6 17 18 55 25 85 14 54 50 189 60 222 8
27 -25 36 -86 24z m40 -39 c0 -24 -30 -116 -41 -122 -5 -4 -8 -3 -7 2 1 4 -1
28 -5 52 -6 34 -4 48 9 62 20 22 44 25 44 6z m-43 -159 c-3 -8 -6 -5 -6 6 -1
11 2 17 5 13 3 -3 4 -12 1 -19z"/>
<path d="M95 511 c-40 -6 -40 -6 -39 -51 0 -25 6 -125 14 -222 10 -137 16
-178 26 -178 15 0 16 5 14 70 0 25 8 74 19 110 29 96 61 229 61 256 0 26 -12
28 -95 15z m46 -33 c2 -23 1 -32 -11 -95 -7 -35 -16 -63 -20 -63 -4 0 -10 33
-13 73 -4 59 -2 74 11 85 9 6 19 12 24 12 4 0 9 -6 9 -12z"/>
</g>
</svg>
