<?xml version="1.0" standalone="no"?>
<!DOCTYPE svg PUBLIC "-//W3C//DTD SVG 20010904//EN"
 "http://www.w3.org/TR/2001/REC-SVG-20010904/DTD/svg10.dtd">
<svg version="1.0" xmlns="http://www.w3.org/2000/svg"
 width="128.000000pt" height="91.000000pt" viewBox="0 0 128.000000 91.000000"
 preserveAspectRatio="xMidYMid meet">
<metadata>
Created by potrace 1.16, written by Peter Selinger 2001-2019
</metadata>
<g transform="translate(0.000000,91.000000) scale(0.100000,-0.100000)"
fill="#000000" stroke="none">
<path d="M20 900 c0 -5 4 -10 9 -10 6 0 13 5 16 10 3 6 -1 10 -9 10 -9 0 -16
-4 -16 -10z"/>
<path d="M1129 860 c-26 -26 -70 -61 -98 -76 -28 -16 -51 -35 -51 -42 0 -7 14
-25 30 -39 17 -13 28 -29 24 -34 -6 -11 -160 -12 -374 -2 l-152 6 6 44 c3 24
15 61 26 83 11 21 20 42 20 45 0 16 -36 -1 -88 -42 -33 -27 -68 -53 -78 -59
-17 -10 -17 -12 -2 -36 17 -25 16 -26 -7 -32 -20 -5 -55 1 -55 9 0 9 42 93 56
113 14 18 14 22 2 22 -8 0 -23 -9 -32 -19 -10 -11 -38 -29 -63 -41 -40 -19
-44 -24 -38 -47 6 -25 5 -26 -32 -19 -21 4 -57 10 -80 13 -41 5 -41 5 -52 -33
-13 -47 -14 -71 -3 -78 5 -3 54 4 110 16 56 11 108 18 115 15 7 -2 19 -16 26
-31 14 -25 13 -28 -9 -43 -14 -10 -38 -29 -55 -44 l-30 -28 35 -37 35 -37 -80
7 c-44 3 -92 9 -106 12 -29 6 -28 8 -45 -88 -5 -33 -4 -38 13 -38 11 0 48 11
82 25 138 56 222 52 148 -7 -45 -36 -46 -50 -7 -78 16 -11 44 -41 61 -65 18
-25 36 -45 41 -45 16 0 8 35 -18 71 l-26 37 22 48 c26 61 47 84 75 84 45 0 47
-22 5 -58 -38 -32 -52 -62 -30 -62 6 0 21 -10 34 -22 12 -13 46 -42 74 -66 40
-33 52 -39 52 -26 0 10 -14 32 -31 50 -29 30 -30 33 -19 75 7 24 21 59 32 77
l20 32 106 0 c185 -1 362 -16 377 -31 17 -17 9 -29 -57 -83 -66 -53 -66 -54
31 -131 27 -22 54 -52 60 -67 5 -16 15 -28 20 -28 19 0 12 44 -14 85 -13 22
-25 50 -25 62 0 33 28 99 71 168 41 65 35 84 -11 40 -25 -24 -32 -26 -45 -15
-22 18 -18 54 10 88 29 34 32 57 9 66 -23 9 -9 54 54 179 11 21 -30 3 -52 -24
-30 -35 -56 -33 -56 5 0 32 53 133 91 171 16 17 29 36 29 43 0 25 -36 7 -81
-38z m-641 -113 c-14 -40 -28 -47 -43 -22 -8 13 -4 22 19 41 15 14 30 23 32
21 2 -2 -2 -20 -8 -40z m590 5 c-7 -18 -15 -32 -19 -32 -8 0 -33 30 -28 34 20
15 53 35 56 33 1 -2 -3 -18 -9 -35z m-766 -24 c-7 -7 -12 -8 -12 -2 0 14 12
26 19 19 2 -3 -1 -11 -7 -17z m-84 -70 c20 -2 13 -17 -10 -22 -76 -16 -98 -17
-98 -3 0 26 24 39 60 32 19 -4 41 -7 48 -7z m820 -24 c37 -6 40 -14 12 -39
-27 -24 -26 -30 13 -65 l32 -30 -23 -18 c-13 -9 -35 -27 -50 -39 l-27 -23 24
-19 c23 -18 21 -18 -170 -13 -158 4 -197 7 -212 20 -15 13 -22 14 -37 4 -11
-7 -38 -12 -60 -12 -44 0 -68 26 -51 57 5 10 14 30 19 45 8 20 16 25 31 21 17
-4 21 -1 21 18 0 13 -9 38 -20 54 -11 17 -20 35 -20 41 0 10 448 9 518 -2z
m-559 -23 l21 -30 -55 -47 c-30 -26 -55 -52 -55 -58 0 -5 14 -25 32 -43 l32
-33 -35 0 c-24 0 -43 7 -58 23 -20 22 -21 27 -8 63 10 31 17 39 35 37 23 -3
28 12 13 36 -7 10 -3 23 10 40 22 27 10 42 -17 21 -16 -14 -30 -7 -19 9 3 6
24 11 45 11 31 0 43 -6 59 -29z m621 -31 c0 -5 -5 -10 -11 -10 -5 0 -7 5 -4
10 3 6 8 10 11 10 2 0 4 -4 4 -10z m-780 -85 c0 -28 -17 -34 -27 -9 -3 9 0 20
8 25 19 12 19 12 19 -16z m150 -17 c0 -30 -1 -31 -16 -16 -9 9 -14 24 -11 32
11 27 27 17 27 -16z m610 -43 c0 -8 -7 -15 -15 -15 -16 0 -20 12 -8 23 11 12
23 8 23 -8z m-870 -51 l32 -7 -58 -23 c-67 -28 -85 -30 -79 -9 3 8 7 22 10 30
5 16 41 19 95 9z m318 -93 c-9 -36 -12 -39 -29 -28 -10 6 -19 15 -19 19 0 6
48 48 55 48 2 0 -2 -18 -7 -39z m-158 25 c0 -16 -21 -56 -30 -56 -20 0 -23 31
-4 45 19 14 34 19 34 11z m705 -89 c-17 -41 -26 -45 -46 -20 -11 12 -11 17 -2
20 7 3 23 13 35 23 13 10 24 17 26 16 1 -2 -5 -19 -13 -39z"/>
</g>
</svg>
