<?xml version="1.0" standalone="no"?>
<!DOCTYPE svg PUBLIC "-//W3C//DTD SVG 20010904//EN"
 "http://www.w3.org/TR/2001/REC-SVG-20010904/DTD/svg10.dtd">
<svg version="1.0" xmlns="http://www.w3.org/2000/svg"
 width="95.000000pt" height="74.000000pt" viewBox="0 0 95.000000 74.000000"
 preserveAspectRatio="xMidYMid meet">
<metadata>
Created by potrace 1.16, written by Peter Selinger 2001-2019
</metadata>
<g transform="translate(0.000000,74.000000) scale(0.100000,-0.100000)"
fill="#000000" stroke="none">
<path d="M380 653 c-25 -36 -49 -72 -55 -79 -5 -7 -7 -15 -5 -17 3 -3 43 -7
90 -10 129 -9 159 -16 235 -52 39 -18 87 -37 108 -40 49 -9 74 -32 55 -51 -27
-26 -240 -164 -254 -164 -8 0 -14 7 -14 16 0 22 51 163 61 170 5 3 9 14 9 25
0 18 -5 19 -52 13 -29 -4 -58 -10 -63 -15 -6 -5 -8 -40 -3 -96 12 -164 13
-158 -32 -178 -26 -12 -44 -15 -50 -9 -5 5 -10 48 -11 94 -1 80 7 117 46 213
6 15 0 17 -51 17 -80 0 -86 -5 -82 -76 l3 -59 -41 1 c-60 1 -99 20 -129 64
-27 39 -50 44 -59 12 -2 -10 -6 -71 -8 -137 -2 -100 -1 -120 12 -120 8 0 19 9
25 21 14 28 54 74 93 107 25 20 44 27 77 27 58 0 67 -17 72 -134 6 -134 30
-202 52 -144 8 21 8 21 15 -5 10 -40 32 -33 59 21 21 41 27 47 52 44 26 -4 27
-2 22 25 -3 15 -1 36 4 45 11 21 209 169 309 231 34 21 35 21 10 25 -14 2 -29
8 -35 12 -5 5 -38 18 -73 29 -34 12 -84 35 -111 51 -26 17 -52 30 -57 30 -34
0 -143 102 -148 137 -6 37 -32 21 -76 -44z m84 -74 c-4 -7 -73 -1 -83 7 -2 2
4 15 14 30 l17 26 29 -28 c15 -15 26 -31 23 -35z m-74 -138 c-16 -32 -30 -34
-30 -7 0 19 5 26 20 26 17 0 19 -3 10 -19z m159 -33 c-17 -34 -19 -34 -19 -5
0 18 5 27 15 27 13 0 14 -4 4 -22z m-386 -62 c24 -19 21 -32 -13 -56 l-30 -21
0 39 c0 53 10 63 43 38z m320 -218 c-22 -38 -37 -42 -41 -12 -3 19 17 34 56
43 2 1 -5 -14 -15 -31z"/>
</g>
</svg>
