<?xml version="1.0" standalone="no"?>
<!DOCTYPE svg PUBLIC "-//W3C//DTD SVG 20010904//EN"
 "http://www.w3.org/TR/2001/REC-SVG-20010904/DTD/svg10.dtd">
<svg version="1.0" xmlns="http://www.w3.org/2000/svg"
 width="111.000000pt" height="87.000000pt" viewBox="0 0 111.000000 87.000000"
 preserveAspectRatio="xMidYMid meet">
<metadata>
Created by potrace 1.16, written by Peter Selinger 2001-2019
</metadata>
<g transform="translate(0.000000,87.000000) scale(0.100000,-0.100000)"
fill="#000000" stroke="none">
<path d="M944 739 c-10 -12 -42 -37 -71 -55 -32 -21 -53 -42 -55 -56 -3 -21
-142 -127 -195 -148 -13 -5 -23 -15 -23 -21 0 -13 -180 -8 -213 6 -22 9 -15
37 24 86 30 38 29 49 -5 49 -11 0 -49 7 -84 16 -53 13 -66 14 -72 3 -5 -8 -2
-17 8 -25 9 -7 17 -29 18 -58 3 -42 1 -46 -21 -46 -12 0 -42 16 -66 35 -70 59
-79 51 -112 -94 -15 -68 -26 -126 -23 -128 5 -5 106 68 137 98 21 21 78 34 91
21 6 -6 6 -66 -1 -168 -10 -162 -5 -193 24 -164 10 11 16 55 21 165 3 83 11
156 17 164 9 11 39 12 152 6 149 -7 182 -18 223 -69 10 -13 32 -31 49 -39 17
-9 45 -35 63 -57 17 -22 36 -40 42 -40 6 0 38 -27 71 -60 41 -42 63 -58 70
-51 8 8 4 23 -11 50 -33 58 -29 114 13 194 19 36 35 73 35 81 0 8 -15 37 -32
63 -27 39 -34 61 -38 117 -3 43 -1 83 7 105 7 20 13 37 13 39 1 12 -41 -3 -56
-19z m-9 -79 c0 -27 -3 -50 -6 -50 -15 0 -40 40 -33 52 6 11 35 48 38 48 1 0
1 -22 1 -50z m-24 -108 c24 -26 53 -60 64 -76 11 -15 26 -35 34 -43 13 -13 9
-20 -26 -52 -53 -49 -98 -81 -114 -81 -7 0 -30 17 -51 37 -30 29 -38 45 -38
73 0 66 52 190 80 190 4 0 27 -21 51 -48z m-531 19 c0 -18 -35 -71 -47 -71
-14 0 -18 61 -6 73 10 10 53 8 53 -2z m375 -63 c-7 -18 -16 -46 -20 -61 l-6
-28 -29 21 c-35 25 -31 42 19 75 47 33 53 31 36 -7z m-566 -44 l32 -16 -45
-34 c-58 -44 -70 -44 -63 2 6 35 22 64 37 64 4 0 21 -7 39 -16z m758 -177
c-13 -41 -27 -49 -27 -15 0 19 28 63 36 55 1 -1 -3 -19 -9 -40z"/>
</g>
</svg>
