<?xml version="1.0" standalone="no"?>
<!DOCTYPE svg PUBLIC "-//W3C//DTD SVG 20010904//EN"
 "http://www.w3.org/TR/2001/REC-SVG-20010904/DTD/svg10.dtd">
<svg version="1.0" xmlns="http://www.w3.org/2000/svg"
 width="114.000000pt" height="81.000000pt" viewBox="0 0 114.000000 81.000000"
 preserveAspectRatio="xMidYMid meet">
<metadata>
Created by potrace 1.16, written by Peter Selinger 2001-2019
</metadata>
<g transform="translate(0.000000,81.000000) scale(0.100000,-0.100000)"
fill="#000000" stroke="none">
<path d="M75 700 c-3 -5 -3 -19 0 -32 3 -13 -1 -45 -10 -73 -8 -27 -15 -53
-15 -57 0 -12 20 -9 34 5 8 7 32 19 56 27 60 20 68 6 65 -113 -2 -88 -4 -95
-44 -165 -24 -41 -40 -76 -37 -79 3 -3 17 4 32 16 29 23 44 20 44 -9 0 -10 4
-21 9 -24 10 -6 21 16 21 41 0 57 86 71 463 79 l247 5 0 -35 c0 -19 5 -38 11
-42 8 -4 9 -30 4 -81 -4 -48 -3 -73 3 -69 16 9 31 115 31 211 0 91 10 135 61
265 11 30 22 59 23 65 1 5 -27 13 -63 16 -80 9 -94 -1 -80 -51 15 -52 12 -97
-6 -104 -49 -19 -371 4 -465 33 -77 24 -89 19 -119 -53 -25 -63 -20 -85 14
-63 52 34 138 46 363 50 l221 3 6 -29 c3 -16 6 -42 6 -58 l0 -29 -77 -1 c-405
-7 -605 8 -619 45 -6 16 41 165 60 191 31 41 21 54 -38 53 -47 -1 -63 4 -114
35 -63 39 -77 43 -87 27z m75 -80 c17 -11 7 -24 -27 -35 -18 -5 -23 -2 -23 13
0 32 20 41 50 22z m874 4 c13 -5 13 -11 -3 -52 -10 -26 -19 -51 -19 -57 0 -5
-5 -11 -11 -13 -7 -2 -11 18 -11 56 0 71 6 81 44 66z m-768 -95 l-14 -34 -1
36 c-1 39 7 55 21 41 5 -5 3 -24 -6 -43z m176 -40 c20 -11 19 -12 -18 -25 -21
-8 -40 -14 -41 -14 -6 0 -3 37 4 43 10 10 32 8 55 -4z m-124 -164 c8 -8 0 -12
-35 -20 -29 -6 -33 -4 -33 15 0 20 4 22 32 16 17 -3 34 -8 36 -11z"/>
</g>
</svg>
