<?xml version="1.0" standalone="no"?>
<!DOCTYPE svg PUBLIC "-//W3C//DTD SVG 20010904//EN"
 "http://www.w3.org/TR/2001/REC-SVG-20010904/DTD/svg10.dtd">
<svg version="1.0" xmlns="http://www.w3.org/2000/svg"
 width="119.000000pt" height="67.000000pt" viewBox="0 0 119.000000 67.000000"
 preserveAspectRatio="xMidYMid meet">
<metadata>
Created by potrace 1.16, written by Peter Selinger 2001-2019
</metadata>
<g transform="translate(0.000000,67.000000) scale(0.100000,-0.100000)"
fill="#000000" stroke="none">
<path d="M480 595 c-19 -19 -43 -38 -54 -41 -31 -8 -146 -87 -146 -99 0 -6 13
-16 28 -23 16 -6 43 -26 61 -44 32 -31 32 -32 11 -40 -28 -10 -139 17 -235 58
-36 15 -61 4 -77 -34 -6 -15 -15 -37 -21 -50 -20 -43 0 -46 155 -23 147 21
183 22 183 3 0 -14 -81 -73 -112 -81 -36 -9 -30 -24 23 -54 27 -16 61 -40 75
-53 23 -22 39 -23 39 -3 0 4 -12 21 -26 38 -32 39 -28 63 23 118 29 31 49 42
81 48 73 12 68 -8 -19 -79 -63 -51 -70 -70 -25 -72 15 -1 40 -11 56 -23 16
-11 33 -21 37 -21 4 0 20 -12 35 -27 19 -18 31 -24 38 -17 7 7 -2 21 -25 44
-23 22 -35 43 -35 61 0 30 33 113 48 123 5 3 92 10 193 16 101 7 189 16 194
22 9 8 -145 5 -310 -7 -20 -1 -35 5 -43 17 -7 10 -18 16 -23 12 -6 -3 -28 14
-50 38 l-41 43 4 93 c1 50 1 92 -3 92 -3 0 -20 -16 -39 -35z m10 -50 c0 -25
-4 -35 -15 -35 -24 0 -29 29 -10 50 24 26 25 26 25 -15z m-9 -111 c41 -41 76
-80 77 -85 6 -17 -57 -10 -66 8 -5 9 -16 14 -25 10 -37 -14 -86 65 -73 119 4
13 8 24 10 24 2 0 37 -34 77 -76z m-131 36 c0 -5 -4 -10 -10 -10 -5 0 -10 5
-10 10 0 6 5 10 10 10 6 0 10 -4 10 -10z m-167 -120 c26 -7 47 -16 47 -20 0
-14 -124 -29 -137 -17 -17 18 2 60 24 54 10 -3 39 -10 66 -17z m337 -146 c-16
-19 -29 -18 -37 2 -4 11 2 23 18 35 23 18 24 18 27 -2 2 -11 -2 -27 -8 -35z
m-170 27 c0 -12 -20 -25 -27 -18 -7 7 6 27 18 27 5 0 9 -4 9 -9z"/>
<path d="M1069 567 c-19 -18 -61 -52 -92 -77 -31 -25 -56 -50 -57 -55 0 -6 15
-16 33 -24 53 -24 77 -42 70 -55 -4 -6 -8 -16 -8 -22 0 -18 -80 -101 -100
-105 -33 -7 -27 -26 20 -58 25 -17 50 -31 54 -31 5 0 29 -18 54 -40 25 -22 48
-40 51 -40 16 0 2 27 -34 66 -46 50 -49 72 -20 139 19 44 22 47 50 41 17 -3
30 -4 30 -2 0 18 -33 74 -50 84 -19 11 -20 19 -14 60 9 61 21 92 45 118 33 35
7 35 -32 1z m-53 -122 c-7 -18 -26 -20 -26 -2 0 18 24 41 28 27 2 -6 1 -17 -2
-25z m-6 -174 c0 -5 -7 -25 -15 -46 -13 -31 -18 -35 -31 -24 -12 10 -12 15 -1
33 7 12 17 27 21 34 8 14 26 16 26 3z"/>
</g>
</svg>
