<?xml version="1.0" standalone="no"?>
<!DOCTYPE svg PUBLIC "-//W3C//DTD SVG 20010904//EN"
 "http://www.w3.org/TR/2001/REC-SVG-20010904/DTD/svg10.dtd">
<svg version="1.0" xmlns="http://www.w3.org/2000/svg"
 width="105.000000pt" height="56.000000pt" viewBox="0 0 105.000000 56.000000"
 preserveAspectRatio="xMidYMid meet">
<metadata>
Created by potrace 1.16, written by Peter Selinger 2001-2019
</metadata>
<g transform="translate(0.000000,56.000000) scale(0.100000,-0.100000)"
fill="#000000" stroke="none">
<path d="M324 522 c-6 -4 -11 -21 -12 -37 0 -17 -7 -49 -15 -72 -16 -47 -13
-57 14 -42 16 8 19 6 19 -14 0 -13 3 -27 8 -31 4 -4 7 -13 7 -19 0 -20 275 -9
298 11 15 13 43 16 143 16 142 -1 143 11 3 25 -52 5 -101 12 -110 15 -12 5
-24 -2 -39 -25 l-23 -31 -95 5 c-96 6 -134 16 -71 18 19 1 58 2 86 3 29 1 56
5 59 9 8 8 10 7 -98 12 -94 4 -160 14 -153 24 2 5 37 13 77 19 164 25 198 23
198 -10 0 -22 -4 -22 87 1 23 6 85 9 138 6 53 -2 93 0 90 4 -2 5 -35 14 -72
21 -76 15 -139 39 -182 71 -34 25 -46 21 -54 -20 -5 -26 -11 -30 -44 -33 -21
-2 -60 1 -88 5 -45 8 -70 19 -140 63 -11 7 -25 10 -31 6z m76 -88 c0 -5 -64
-34 -75 -34 -12 0 -4 21 15 40 16 16 25 18 40 10 11 -6 20 -13 20 -16z m316 1
c10 -8 17 -15 14 -15 -3 0 -20 -4 -38 -9 -30 -9 -32 -8 -32 15 0 28 25 32 56
9z"/>
<path d="M148 377 l-106 -108 41 -37 c64 -56 136 -134 153 -164 14 -27 47 -37
59 -19 13 21 116 41 215 41 l102 0 -7 -30 c-8 -36 -3 -37 49 -6 58 33 155 56
242 56 43 0 74 4 74 10 0 6 -33 10 -78 10 -74 0 -188 22 -205 39 -8 8 108 21
187 21 23 0 36 4 30 9 -5 5 -61 11 -125 14 -129 7 -139 3 -139 -50 0 -27 -5
-36 -27 -44 -40 -16 -220 -3 -251 17 -40 26 -12 35 109 35 78 1 106 4 89 10
-41 14 -194 27 -212 18 -9 -5 -30 -31 -47 -59 -18 -29 -36 -48 -42 -44 -6 3
-26 30 -45 60 -33 51 -34 55 -25 111 10 63 44 168 62 189 6 7 9 17 7 22 -1 4
-51 -41 -110 -101z m22 -59 c-20 -87 -18 -83 -45 -58 -14 13 -25 28 -25 34 0
12 72 87 78 81 2 -2 -1 -28 -8 -57z m550 -207 c0 -9 -62 -42 -68 -36 -3 3 0
16 6 29 8 18 16 22 36 19 14 -3 26 -8 26 -12z m-380 -11 c0 -12 -28 -25 -36
-17 -9 9 6 27 22 27 8 0 14 -5 14 -10z"/>
<path d="M653 289 c-30 -30 -13 -34 124 -31 151 4 197 16 75 19 -42 2 -88 5
-102 8 -66 15 -86 16 -97 4z"/>
<path d="M347 255 c-9 -9 -17 -17 -17 -18 0 -1 66 -3 148 -4 150 -3 178 10 47
20 -38 3 -91 9 -116 13 -35 5 -49 3 -62 -11z"/>
</g>
</svg>
