<?xml version="1.0" standalone="no"?>
<!DOCTYPE svg PUBLIC "-//W3C//DTD SVG 20010904//EN"
 "http://www.w3.org/TR/2001/REC-SVG-20010904/DTD/svg10.dtd">
<svg version="1.0" xmlns="http://www.w3.org/2000/svg"
 width="76.000000pt" height="67.000000pt" viewBox="0 0 76.000000 67.000000"
 preserveAspectRatio="xMidYMid meet">
<metadata>
Created by potrace 1.16, written by Peter Selinger 2001-2019
</metadata>
<g transform="translate(0.000000,67.000000) scale(0.100000,-0.100000)"
fill="#000000" stroke="none">
<path d="M350 605 c-49 -8 -64 -15 -61 -25 2 -8 12 -39 23 -69 10 -30 18 -72
18 -93 l0 -39 -47 6 c-27 3 -77 11 -112 18 -57 10 -65 9 -76 -6 -14 -20 -30
-106 -21 -114 3 -4 23 1 43 9 162 67 175 70 217 37 26 -20 26 -22 26 -147 0
-124 7 -161 28 -148 6 4 9 57 8 139 -2 72 1 142 5 155 8 22 11 22 184 22 110
0 175 4 175 10 0 6 -12 10 -27 10 -16 1 -87 2 -160 3 -85 1 -136 6 -144 14
-15 15 4 98 37 165 13 26 24 52 24 58 0 12 -45 11 -140 -5z m100 -12 c0 -3
-11 -30 -25 -59 -14 -30 -28 -67 -31 -84 -8 -37 -22 -39 -30 -2 -3 15 -12 48
-20 74 -19 64 -19 66 19 71 57 7 87 7 87 0z m-250 -232 c25 -8 25 -8 -11 -23
-68 -30 -79 -31 -79 -11 0 39 32 51 90 34z"/>
</g>
</svg>
