<?xml version="1.0" standalone="no"?>
<!DOCTYPE svg PUBLIC "-//W3C//DTD SVG 20010904//EN"
 "http://www.w3.org/TR/2001/REC-SVG-20010904/DTD/svg10.dtd">
<svg version="1.0" xmlns="http://www.w3.org/2000/svg"
 width="84.000000pt" height="61.000000pt" viewBox="0 0 84.000000 61.000000"
 preserveAspectRatio="xMidYMid meet">
<metadata>
Created by potrace 1.16, written by Peter Selinger 2001-2019
</metadata>
<g transform="translate(0.000000,61.000000) scale(0.100000,-0.100000)"
fill="#000000" stroke="none">
<path d="M315 551 c-28 -6 -30 -9 -30 -51 l0 -45 -48 2 c-28 1 -62 10 -83 22
-39 23 -78 28 -72 9 7 -22 69 -58 110 -64 21 -4 38 -10 38 -13 0 -7 -126 -51
-144 -51 -4 0 -5 21 -1 46 5 36 4 45 -7 42 -14 -5 -45 -115 -35 -125 4 -3 21
1 39 10 53 24 184 58 201 51 17 -6 26 -50 30 -153 1 -41 7 -66 15 -69 9 -3 12
21 12 98 0 125 7 140 63 140 23 0 47 -4 53 -8 7 -4 15 -34 18 -67 4 -33 9 -74
12 -92 4 -28 2 -32 -23 -35 -24 -3 -28 -10 -43 -68 -9 -36 -20 -73 -25 -82 -9
-22 17 -25 35 -4 23 29 164 90 217 94 l52 4 3 -36 c4 -45 21 -52 28 -11 3 18
14 34 28 40 22 10 30 25 13 25 -21 0 -41 33 -41 67 0 35 36 181 64 262 25 69
24 71 -48 71 -93 0 -94 -2 -71 -165 13 -94 20 -206 14 -212 -5 -5 -41 -6 -81
-3 l-73 5 3 58 c2 57 29 126 73 189 13 17 16 29 9 33 -25 16 -77 24 -111 19
-32 -5 -38 -11 -41 -33 -3 -24 -6 -26 -43 -23 -55 5 -62 14 -40 61 29 65 12
80 -70 62z m433 -92 c-23 -68 -35 -67 -44 5 -6 41 -4 51 11 62 12 9 23 10 36
4 17 -10 17 -13 -3 -71z m-400 31 c-5 -17 -14 -30 -19 -30 -13 0 -11 44 3 58
19 19 28 4 16 -28z m224 -49 c9 -8 -42 -111 -54 -111 -5 0 -8 30 -8 66 l0 66
28 -7 c15 -3 30 -10 34 -14z m-77 -291 c10 -16 -4 -49 -27 -61 -27 -15 -32 -6
-18 35 11 35 32 47 45 26z"/>
</g>
</svg>
