<?xml version="1.0" standalone="no"?>
<!DOCTYPE svg PUBLIC "-//W3C//DTD SVG 20010904//EN"
 "http://www.w3.org/TR/2001/REC-SVG-20010904/DTD/svg10.dtd">
<svg version="1.0" xmlns="http://www.w3.org/2000/svg"
 width="125.000000pt" height="84.000000pt" viewBox="0 0 125.000000 84.000000"
 preserveAspectRatio="xMidYMid meet">
<metadata>
Created by potrace 1.16, written by Peter Selinger 2001-2019
</metadata>
<g transform="translate(0.000000,84.000000) scale(0.100000,-0.100000)"
fill="#000000" stroke="none">
<path d="M395 830 c3 -5 10 -10 16 -10 5 0 9 5 9 10 0 6 -7 10 -16 10 -8 0
-12 -4 -9 -10z"/>
<path d="M814 802 c-11 -7 -31 -142 -21 -142 2 0 24 9 48 19 46 20 131 21 182
2 22 -9 23 -13 19 -68 -4 -62 -20 -84 -53 -76 -28 8 -35 30 -16 51 21 23 10
38 -42 57 -64 22 -71 20 -71 -20 0 -33 -2 -35 -34 -35 -33 0 -33 0 -39 -57 -3
-32 -5 -59 -3 -60 2 -2 20 4 41 12 47 20 68 14 57 -17 -12 -32 -9 -80 4 -85 7
-2 15 12 18 32 14 74 24 85 77 85 26 0 51 -5 55 -11 4 -6 8 -40 9 -76 l2 -64
-51 -45 c-47 -41 -88 -55 -100 -35 -3 4 -29 11 -58 15 -159 20 -187 25 -228
44 -25 12 -58 35 -74 52 -43 46 -64 38 -90 -35 -18 -52 -25 -60 -49 -63 -25
-3 -26 -2 -17 22 5 14 23 44 40 67 16 23 30 53 30 66 0 24 -2 25 -52 18 -29
-4 -56 -9 -60 -12 -5 -2 -8 -42 -8 -89 l0 -84 -35 0 c-19 0 -35 4 -35 9 0 17
23 77 36 92 8 8 14 27 14 41 0 14 7 31 15 38 8 7 15 20 15 30 0 10 7 21 16 24
51 19 208 -10 344 -64 122 -49 137 -53 145 -40 9 15 -7 31 -47 45 -18 7 -66
24 -106 39 -40 15 -81 29 -92 31 -10 2 -40 19 -66 38 -55 39 -136 81 -174 90
-34 8 -48 -2 -55 -43 -13 -76 -24 -97 -65 -115 -26 -12 -40 -25 -40 -37 0 -21
-1 -22 -34 -6 -14 6 -28 19 -31 29 -8 24 -44 35 -60 18 -18 -18 -24 -201 -8
-206 6 -2 22 10 35 27 25 35 83 74 96 66 14 -9 13 -90 -2 -126 -11 -28 -12
-48 -3 -97 5 -35 14 -63 18 -63 5 0 20 18 33 39 14 22 35 46 48 55 19 14 24
14 38 1 30 -27 50 -12 50 36 0 21 -1 21 55 23 22 2 49 8 61 14 22 12 219 9
329 -5 57 -8 60 -9 57 -34 -2 -22 7 -32 57 -63 32 -20 69 -48 81 -62 13 -13
29 -24 37 -24 20 0 16 33 -8 58 l-20 22 22 73 c28 90 49 127 116 200 29 32 53
62 53 68 0 24 -33 3 -80 -51 -29 -33 -55 -60 -58 -60 -12 0 0 103 13 125 7 11
19 40 25 65 13 48 50 130 76 167 15 22 15 23 -11 33 -58 22 -135 5 -135 -30 0
-11 -7 -20 -15 -20 -27 0 -128 39 -167 65 -42 28 -39 27 -54 17z m336 -67 c0
-3 -7 -17 -16 -30 -9 -14 -24 -51 -34 -82 -17 -53 -19 -55 -19 -23 -1 19 2 59
5 88 6 49 8 52 35 52 16 0 29 -2 29 -5z m-300 -9 c0 -3 -4 -8 -10 -11 -5 -3
-10 -1 -10 4 0 6 5 11 10 11 6 0 10 -2 10 -4z m80 -130 c0 -21 -21 -31 -31
-15 -14 22 -11 29 11 29 11 0 20 -6 20 -14z m-517 -28 c15 -6 27 -14 27 -18 0
-8 -100 -24 -107 -17 -2 3 -1 17 3 31 7 28 13 28 77 4z m437 -32 c0 -3 -4 -8
-10 -11 -5 -3 -10 -1 -10 4 0 6 5 11 10 11 6 0 10 -2 10 -4z m-585 -106 c3 -5
2 -10 -4 -10 -5 0 -13 5 -16 10 -3 6 -2 10 4 10 5 0 13 -4 16 -10z m145 -13
c0 -19 -27 -53 -36 -45 -9 10 12 58 26 58 5 0 10 -6 10 -13z m-270 -25 c0 -12
-22 -32 -35 -32 -8 0 -12 36 -6 58 2 6 41 -19 41 -26z m383 -60 c21 -23 13
-32 -25 -32 -31 0 -33 3 -18 31 13 24 22 24 43 1z m497 -54 c-1 -18 -30 -83
-38 -86 -6 -2 -16 7 -23 19 -10 20 -8 25 17 46 25 20 44 29 44 21z m-730 -63
c-27 -29 -53 -33 -48 -8 2 10 16 21 33 24 17 4 32 7 34 8 3 0 -6 -10 -19 -24z"/>
</g>
</svg>
