<?xml version="1.0" standalone="no"?>
<!DOCTYPE svg PUBLIC "-//W3C//DTD SVG 20010904//EN"
 "http://www.w3.org/TR/2001/REC-SVG-20010904/DTD/svg10.dtd">
<svg version="1.0" xmlns="http://www.w3.org/2000/svg"
 width="117.000000pt" height="78.000000pt" viewBox="0 0 117.000000 78.000000"
 preserveAspectRatio="xMidYMid meet">
<metadata>
Created by potrace 1.16, written by Peter Selinger 2001-2019
</metadata>
<g transform="translate(0.000000,78.000000) scale(0.100000,-0.100000)"
fill="#000000" stroke="none">
<path d="M636 717 c-19 -27 -19 -45 -11 -287 10 -307 11 -324 23 -328 19 -6
23 19 25 149 l2 124 64 31 c60 30 71 32 190 34 69 2 141 2 159 1 21 -1 32 4
32 12 0 10 -37 17 -151 25 -128 10 -159 16 -207 39 -31 15 -59 29 -61 30 -3 2
8 40 23 84 15 44 25 86 22 94 -4 10 -20 15 -50 15 -36 0 -49 -5 -60 -23z m68
-15 c6 -10 -26 -112 -35 -112 -6 0 -19 50 -19 76 0 14 27 44 40 44 5 0 11 -4
14 -8z m54 -244 c-3 -7 -14 -14 -26 -16 -16 -3 -20 1 -16 12 7 19 48 22 42 4z"/>
<path d="M411 715 c-4 -5 -7 -34 -6 -64 l2 -54 -100 7 c-100 7 -120 14 -186
61 -62 45 -71 37 -71 -60 0 -82 1 -85 23 -85 12 0 42 9 66 20 36 17 64 20 161
19 134 -1 130 3 130 -96 l0 -52 -37 -3 c-53 -4 -158 9 -250 31 -63 15 -81 16
-91 6 -11 -9 -11 -18 -3 -33 6 -11 8 -41 4 -71 -3 -28 -3 -51 1 -51 3 0 23 10
44 23 60 38 100 48 225 54 l117 6 0 -64 c0 -107 13 -259 21 -259 17 0 30 82
23 153 -4 50 -2 92 9 137 9 36 18 79 21 95 4 17 13 64 22 105 8 41 18 87 21
102 3 15 14 35 24 44 37 33 24 40 -72 40 -50 -1 -94 -5 -98 -11z m110 -70
c-18 -51 -40 -56 -55 -14 -14 40 -2 59 37 59 l35 0 -17 -45z m-395 -49 c21
-16 19 -20 -13 -30 -20 -6 -23 -4 -23 18 0 30 8 32 36 12z m364 -72 c0 -14 -4
-23 -9 -20 -5 3 -7 15 -4 26 7 28 13 25 13 -6z m-350 -143 c0 -6 -5 -13 -10
-16 -15 -9 -43 3 -35 15 8 13 45 13 45 1z"/>
</g>
</svg>
