<?xml version="1.0" standalone="no"?>
<!DOCTYPE svg PUBLIC "-//W3C//DTD SVG 20010904//EN"
 "http://www.w3.org/TR/2001/REC-SVG-20010904/DTD/svg10.dtd">
<svg version="1.0" xmlns="http://www.w3.org/2000/svg"
 width="94.000000pt" height="84.000000pt" viewBox="0 0 94.000000 84.000000"
 preserveAspectRatio="xMidYMid meet">
<metadata>
Created by potrace 1.16, written by Peter Selinger 2001-2019
</metadata>
<g transform="translate(0.000000,84.000000) scale(0.100000,-0.100000)"
fill="#000000" stroke="none">
<path d="M466 798 c-16 -27 -42 -107 -51 -162 -9 -52 -19 -38 -16 24 1 37 -2
50 -13 50 -17 0 -26 -30 -26 -88 0 -40 -2 -43 -21 -37 -36 12 -138 75 -147 91
-13 24 -56 14 -60 -13 -2 -13 -12 -29 -23 -36 -18 -13 -18 -16 -3 -46 11 -21
13 -41 8 -59 -7 -26 -8 -25 -21 21 -11 36 -19 47 -35 47 -19 0 -20 -4 -15 -42
4 -24 11 -63 16 -88 6 -25 10 -80 11 -122 0 -46 5 -80 11 -84 8 -5 9 -30 5
-81 -6 -59 -4 -74 6 -71 14 5 27 60 27 124 1 51 21 70 99 97 56 19 131 25 151
12 15 -9 14 -58 -1 -73 -7 -7 -13 -44 -13 -90 -1 -42 -5 -92 -9 -110 -4 -17
-5 -32 -1 -32 3 0 28 23 55 51 43 44 52 50 66 38 13 -10 17 -10 25 2 5 8 9 19
9 26 0 16 22 22 43 11 10 -5 17 -20 17 -38 0 -20 5 -30 15 -30 10 0 15 10 15
33 0 17 4 37 8 43 4 7 42 13 86 15 l79 4 9 -33 c11 -40 32 -38 36 3 2 16 11
34 19 40 14 11 14 12 -1 18 -34 13 -15 205 40 384 14 46 23 91 20 99 -4 10
-24 14 -78 14 -118 1 -214 30 -281 86 -35 30 -43 30 -61 2z m73 -67 c40 -21
32 -29 -26 -28 -34 0 -43 3 -43 17 0 35 19 38 69 11z m124 -242 c-2 -107 -3
-211 -3 -231 0 -36 -2 -38 -31 -38 l-31 0 4 214 c3 194 5 216 22 235 37 41 41
23 39 -180z m-92 -29 c-1 -118 -6 -219 -11 -223 -4 -5 -17 -4 -29 2 -20 11
-21 21 -23 149 -4 212 0 265 20 280 9 7 23 11 32 10 12 -3 14 -34 11 -218z
m200 45 c-2 -93 -4 -197 -5 -230 l-1 -60 -37 -3 -36 -3 1 219 c2 238 6 256 55
250 l26 -3 -3 -170z m60 99 c-14 -42 -20 -52 -21 -34 -5 61 13 121 31 103 6
-6 2 -32 -10 -69z m-353 -149 c1 -131 -1 -195 -8 -195 -6 0 -21 7 -33 15 -21
13 -23 23 -25 102 -1 87 10 145 34 172 9 9 9 19 2 30 -10 17 4 71 19 71 5 0 9
-88 11 -195z m-250 147 c3 -9 -3 -13 -19 -10 -12 1 -24 9 -27 16 -3 9 3 13 19
10 12 -1 24 -9 27 -16z m103 -50 c22 -9 27 -18 32 -64 4 -29 7 -68 7 -87 l0
-34 -47 5 c-67 7 -193 70 -193 96 2 39 35 87 65 92 40 8 104 4 136 -8z m-159
-179 c36 -16 50 -33 27 -33 -6 0 -26 -7 -45 -16 -19 -9 -37 -15 -39 -12 -6 6
6 78 13 78 3 0 23 -8 44 -17z m279 -163 c26 -14 24 -45 -3 -64 -33 -23 -38
-20 -38 22 0 52 7 59 41 42z"/>
</g>
</svg>
