<?xml version="1.0" standalone="no"?>
<!DOCTYPE svg PUBLIC "-//W3C//DTD SVG 20010904//EN"
 "http://www.w3.org/TR/2001/REC-SVG-20010904/DTD/svg10.dtd">
<svg version="1.0" xmlns="http://www.w3.org/2000/svg"
 width="187.000000pt" height="83.000000pt" viewBox="0 0 187.000000 83.000000"
 preserveAspectRatio="xMidYMid meet">
<metadata>
Created by potrace 1.16, written by Peter Selinger 2001-2019
</metadata>
<g transform="translate(0.000000,83.000000) scale(0.100000,-0.100000)"
fill="#000000" stroke="none">
<path d="M1744 755 c-15 -15 -59 -48 -96 -72 -72 -47 -83 -70 -31 -65 17 2 34
-1 37 -6 10 -17 -66 -24 -155 -14 -46 5 -102 9 -124 9 -40 -1 -261 10 -368 18
-210 16 -405 50 -432 76 -5 5 -23 9 -41 9 -34 0 -44 -13 -44 -56 0 -13 -16
-41 -36 -64 l-36 -40 -44 31 c-24 16 -51 43 -59 59 -9 17 -19 30 -23 30 -11 0
-213 -216 -233 -249 -9 -16 -22 -32 -28 -35 -19 -12 -12 -28 12 -26 74 6 107
-12 43 -24 -23 -5 -36 -13 -40 -29 -17 -65 6 -82 53 -38 33 31 100 57 134 52
10 -1 25 3 32 9 17 14 45 6 45 -13 0 -15 -34 -28 -138 -52 -77 -18 -102 -34
-102 -66 0 -14 7 -19 29 -19 16 0 34 7 41 15 17 20 125 70 171 79 28 5 39 2
53 -13 21 -23 33 -19 -197 -73 -45 -11 -55 -29 -33 -63 9 -13 16 -37 16 -52 0
-15 4 -34 9 -42 12 -18 31 -9 111 50 72 52 113 79 124 79 4 0 6 -27 4 -60 -5
-71 2 -74 64 -30 53 37 120 56 256 71 75 9 106 9 114 1 8 -8 18 -7 38 3 36 19
295 40 593 50 166 5 153 9 284 -75 43 -27 84 -50 91 -50 19 0 14 16 -10 33
-13 9 -42 33 -65 55 -44 40 -55 78 -33 112 7 12 12 12 28 -4 37 -33 38 16 2
59 -20 23 -34 71 -25 85 4 7 13 6 25 0 13 -7 21 -6 30 5 10 13 8 20 -14 40
-19 17 -26 34 -26 60 0 33 2 35 25 29 34 -8 32 10 -5 52 -28 32 -29 35 -16 71
8 21 20 50 27 66 20 43 -2 57 -37 22z m-23 -77 c-5 -14 -18 -24 -32 -26 -24
-3 -24 -3 4 23 35 31 39 31 28 3z m-1132 -34 c43 -9 39 -20 -10 -28 -46 -7
-54 -4 -46 19 7 17 11 18 56 9z m309 -48 c3 -3 -13 -6 -36 -6 -23 0 -47 -7
-56 -15 -18 -19 -49 -19 -84 -1 -23 12 -33 12 -67 0 -21 -7 -41 -11 -43 -9
-11 11 10 34 35 38 39 5 244 -1 251 -7z m402 -11 c85 -2 167 -4 183 -4 44 -1
31 -16 -25 -30 -29 -7 -109 -29 -178 -48 -69 -19 -134 -36 -145 -38 -11 -2
-40 -11 -65 -20 -81 -29 -117 -34 -139 -19 -14 10 -20 11 -23 2 -2 -6 -12 -9
-21 -5 -23 9 -12 103 15 134 11 12 17 27 13 33 -5 9 23 10 111 5 66 -3 189 -8
274 -10z m-720 -4 c0 -19 -89 -117 -128 -141 -23 -14 -42 -27 -42 -30 0 -3 22
-30 49 -59 27 -29 57 -68 67 -87 19 -35 54 -47 54 -18 0 16 -86 153 -105 166
-6 5 -3 14 9 25 13 12 16 13 10 3 -7 -13 -6 -13 10 -1 10 8 28 35 41 60 l23
46 6 -35 c7 -44 17 -175 19 -262 l2 -66 -50 5 c-46 5 -105 29 -105 43 0 3 -18
27 -40 54 -35 42 -39 52 -34 84 13 87 80 188 137 209 39 14 77 16 77 4z m1130
-5 c0 -8 -18 -29 -40 -46 -22 -17 -40 -35 -40 -40 0 -5 14 -11 30 -15 17 -4
30 -11 30 -16 0 -5 -20 -29 -45 -53 -52 -51 -58 -71 -18 -63 30 6 63 -7 63
-24 0 -6 -10 -19 -22 -30 -33 -27 -89 -24 -246 15 -75 18 -168 39 -207 46
-153 28 -172 38 -112 60 17 6 52 21 77 31 53 23 141 49 190 56 19 3 40 9 46
15 7 5 38 13 70 19 33 5 80 13 106 18 26 4 57 15 70 24 29 20 48 21 48 3z
m-1361 -24 c20 -9 39 -15 44 -14 4 1 7 -1 7 -4 0 -9 -28 -34 -39 -34 -19 0
-121 49 -121 58 0 26 40 24 109 -6z m439 -45 c3 -15 -2 -17 -40 -10 -24 4 -56
7 -73 8 -27 0 -30 -4 -33 -32 -2 -24 0 -32 10 -28 7 2 41 6 76 9 58 4 64 3 72
-17 11 -30 -1 -40 -34 -27 -42 16 -107 12 -128 -7 -19 -17 -19 -15 -16 47 l3
65 35 6 c65 12 124 6 128 -14z m-508 -11 c42 -15 47 -41 8 -42 -30 -1 -118 34
-118 47 0 13 69 10 110 -5z m-76 -62 c37 -13 44 -19 35 -30 -6 -7 -8 -18 -4
-24 17 -28 -69 3 -95 35 -12 14 -12 18 1 26 8 5 14 9 15 9 0 0 22 -7 48 -16z
m602 -75 c8 -6 14 -19 14 -29 0 -15 -7 -17 -42 -13 -24 3 -58 9 -75 15 -18 5
-42 7 -53 3 -15 -5 -20 -2 -20 12 0 17 9 19 81 22 50 1 86 -2 95 -10z m212
-23 c23 -8 56 -12 74 -9 19 3 105 -9 198 -27 195 -38 275 -59 263 -70 -4 -4
-87 -11 -183 -15 -96 -3 -222 -10 -280 -14 -58 -5 -129 -8 -159 -7 -60 1 -58
-1 -62 89 -2 33 2 51 12 58 21 13 91 11 137 -5z m-219 -52 c21 -5 31 -12 31
-25 0 -11 -3 -19 -7 -19 -14 0 -138 20 -163 26 -23 6 -24 7 -5 14 25 10 101
12 144 4z m-29 -70 c34 -14 43 -14 56 -3 14 12 16 11 13 -6 -4 -18 -14 -20
-113 -23 -100 -3 -108 -2 -96 13 7 9 18 14 24 12 7 -3 25 1 41 8 17 7 31 14
32 14 2 1 21 -6 43 -15z m-362 -11 c-2 -13 -35 -29 -108 -55 -117 -42 -123
-43 -118 -25 8 22 115 77 151 77 12 0 29 5 37 10 24 15 42 12 38 -7z m131 -64
c22 -1 -49 -27 -76 -28 -26 -1 -29 9 -10 28 7 7 24 10 41 7 16 -3 36 -6 45 -7z"/>
</g>
</svg>
