<?xml version="1.0" standalone="no"?>
<!DOCTYPE svg PUBLIC "-//W3C//DTD SVG 20010904//EN"
 "http://www.w3.org/TR/2001/REC-SVG-20010904/DTD/svg10.dtd">
<svg version="1.0" xmlns="http://www.w3.org/2000/svg"
 width="151.000000pt" height="67.000000pt" viewBox="0 0 151.000000 67.000000"
 preserveAspectRatio="xMidYMid meet">
<metadata>
Created by potrace 1.16, written by Peter Selinger 2001-2019
</metadata>
<g transform="translate(0.000000,67.000000) scale(0.100000,-0.100000)"
fill="#000000" stroke="none">
<path d="M510 622 c0 -4 -27 -27 -60 -51 -33 -24 -62 -51 -65 -61 -6 -17 -70
-64 -104 -75 -23 -7 -43 13 -94 91 -41 62 -59 66 -92 17 -14 -21 -37 -53 -50
-72 -14 -18 -23 -37 -20 -41 2 -4 45 -13 95 -19 49 -7 90 -17 90 -21 0 -8 -62
-40 -133 -68 -24 -10 -27 -15 -21 -44 3 -18 9 -57 13 -87 7 -61 25 -76 42 -34
24 63 74 159 92 181 27 30 64 28 118 -6 67 -43 75 -56 45 -76 -14 -9 -30 -16
-35 -16 -12 0 -31 -33 -31 -54 0 -23 69 -166 80 -166 9 0 30 62 30 89 0 39 73
162 121 205 63 56 84 60 75 13 -3 -18 -3 -36 0 -40 3 -3 25 4 49 15 74 36 75
33 80 -152 1 -33 6 -46 18 -48 14 -3 17 5 18 40 1 24 0 48 -1 53 -19 94 -20
130 -4 142 30 22 40 -1 42 -94 3 -100 9 -126 25 -120 8 3 12 39 12 113 0 102
1 109 20 109 26 0 37 -50 29 -142 -5 -61 -3 -73 10 -73 16 0 25 42 29 150 2
56 5 65 21 65 14 0 20 -8 22 -30 5 -56 15 -120 21 -139 5 -18 7 -18 18 -3 8
11 10 42 7 93 -4 58 -1 78 9 85 8 5 49 9 93 9 l78 0 66 -52 c37 -29 78 -66 92
-82 57 -68 79 -88 89 -82 19 12 12 26 -50 102 -58 71 -69 104 -36 104 8 0 20
6 26 14 10 12 8 17 -8 26 -28 14 -28 76 -1 132 24 49 23 48 8 48 -7 0 -30 -18
-51 -39 -21 -21 -61 -51 -90 -66 -29 -15 -62 -37 -75 -49 -20 -18 -34 -20 -85
-18 -34 2 -63 5 -65 7 -2 2 2 31 9 65 14 72 7 85 -41 75 l-33 -7 6 -64 c3 -45
1 -67 -8 -74 -9 -7 -15 -8 -19 -1 -7 11 -9 110 -4 151 2 21 -2 26 -24 28 l-28
3 0 -90 c0 -84 -2 -91 -20 -91 -26 0 -36 40 -22 88 6 21 13 56 17 80 7 46 -4
54 -46 32 -15 -8 -23 -7 -35 4 -12 12 -20 13 -42 4 -48 -21 -49 -24 -38 -78
10 -52 4 -72 -16 -52 -27 27 -55 12 -62 -32 -4 -28 -14 -28 -32 -2 -17 26 -22
55 -27 131 -1 22 -6 43 -12 47 -13 10 -35 10 -35 0z m226 -69 c-10 -10 -19 5
-10 18 6 11 8 11 12 0 2 -7 1 -15 -2 -18z m-226 -13 c0 -32 -9 -37 -28 -18 -7
7 -8 17 -1 30 15 27 29 22 29 -12z m283 -70 c-6 -62 -12 -70 -33 -45 -13 16
-8 72 11 122 11 28 11 28 20 5 5 -12 6 -50 2 -82z m-648 30 c8 -16 15 -34 15
-40 0 -14 -33 -12 -55 4 -18 13 -18 15 -2 40 10 14 19 26 22 26 2 0 11 -13 20
-30z m298 -12 c34 -17 137 -100 137 -109 0 -5 -18 -17 -39 -28 -22 -10 -56
-28 -75 -41 -20 -12 -36 -17 -36 -12 0 6 -25 26 -55 47 -34 22 -55 43 -55 55
0 10 21 37 46 59 53 47 48 45 77 29z m863 -50 c-9 -46 -20 -54 -53 -39 l-28
13 35 29 c44 37 54 37 46 -3z m-601 -72 c0 -18 -40 -42 -49 -28 -2 4 0 17 5
30 11 28 44 26 44 -2z m-565 -68 c0 -7 -5 -20 -10 -28 -9 -13 -11 -13 -19 0
-6 9 -6 19 1 27 13 17 28 17 28 1z m275 -98 c-26 -52 -52 -63 -47 -19 2 20 61
82 70 74 2 -2 -8 -26 -23 -55z"/>
</g>
</svg>
