<?xml version="1.0" standalone="no"?>
<!DOCTYPE svg PUBLIC "-//W3C//DTD SVG 20010904//EN"
 "http://www.w3.org/TR/2001/REC-SVG-20010904/DTD/svg10.dtd">
<svg version="1.0" xmlns="http://www.w3.org/2000/svg"
 width="192.000000pt" height="120.000000pt" viewBox="0 0 192.000000 120.000000"
 preserveAspectRatio="xMidYMid meet">
<metadata>
Created by potrace 1.16, written by Peter Selinger 2001-2019
</metadata>
<g transform="translate(0.000000,120.000000) scale(0.100000,-0.100000)"
fill="#000000" stroke="none">
<path d="M395 1116 c-24 -18 -72 -21 -77 -5 -3 9 -9 9 -25 1 -16 -9 -24 -29
-34 -82 -13 -74 -9 -91 16 -70 12 10 16 9 21 -4 3 -9 3 -23 0 -32 -5 -14 -9
-14 -22 -3 -21 17 -32 0 -40 -63 -4 -26 -13 -53 -20 -59 -16 -13 -19 -39 -5
-39 5 0 24 15 42 32 19 20 34 28 36 21 7 -20 -16 -51 -39 -55 -17 -2 -23 -10
-24 -28 -1 -37 -19 -74 -56 -117 -33 -38 -88 -117 -88 -128 0 -3 13 1 29 10
17 8 47 42 68 77 21 34 61 87 89 117 37 41 53 67 57 95 8 51 16 57 73 64 l47
5 -39 -51 c-22 -28 -61 -81 -89 -118 -27 -37 -60 -76 -72 -87 -13 -11 -23 -25
-23 -30 0 -6 -16 -29 -35 -53 -38 -46 -48 -79 -15 -49 11 10 32 19 48 20 15 2
35 6 45 10 27 11 21 -6 -28 -76 -25 -35 -45 -71 -45 -80 0 -9 -7 -22 -15 -29
-19 -16 -19 -40 0 -40 8 0 36 8 62 19 26 10 64 22 83 26 19 4 42 14 51 21 25
22 182 40 215 25 16 -7 30 -8 38 -2 18 15 126 25 126 12 0 -6 -4 -11 -8 -11
-5 0 -14 -11 -20 -25 -6 -14 -8 -25 -3 -25 12 0 157 164 197 223 l21 32 -28
26 c-30 28 -37 65 -19 100 19 34 35 21 49 -41 13 -56 31 -81 31 -42 0 9 16 35
35 57 l34 40 1 -68 0 -67 -73 -83 c-145 -164 -168 -195 -156 -203 12 -7 59 40
59 59 0 5 49 58 110 118 103 103 128 141 98 151 -10 4 -9 18 5 60 9 30 17 58
17 62 0 4 -40 4 -90 1 -83 -6 -90 -5 -90 12 0 10 20 43 45 73 43 53 55 80 36
80 -6 0 -12 -4 -16 -9 -3 -6 -46 -44 -95 -85 -95 -80 -105 -84 -193 -69 -28 4
-37 10 -32 21 3 8 9 42 14 76 11 76 43 152 81 191 21 21 27 34 20 44 -7 12
-11 13 -25 1 -10 -8 -39 -12 -79 -11 l-63 2 1 -153 1 -153 -53 -3 -54 -3 16
23 c9 12 16 26 16 30 0 14 -27 9 -40 -7 -18 -22 -30 -18 -30 8 0 30 12 46 38
50 32 5 39 17 14 24 -27 7 -27 17 -1 82 18 41 26 51 45 51 27 0 32 15 8 24
-10 4 -14 14 -11 26 7 26 0 29 -58 32 -36 1 -51 -3 -61 -17 -8 -11 -19 -15
-30 -11 -13 5 -14 9 -4 21 6 8 10 21 8 30 -3 14 -5 14 -23 1z m-61 -87 c-7
-13 -31 -11 -40 2 -9 16 18 30 33 17 7 -6 10 -14 7 -19z m176 21 c0 -5 -2 -10
-4 -10 -3 0 -8 5 -11 10 -3 6 -1 10 4 10 6 0 11 -4 11 -10z m190 -37 c0 -5 -9
-30 -20 -58 l-19 -50 -1 51 c0 28 3 54 7 57 9 9 33 9 33 0z m-248 -53 c12 -71
6 -80 -59 -80 l-55 0 7 38 c4 20 11 39 16 40 5 2 6 8 3 13 -14 23 6 40 43 37
36 -3 38 -5 45 -48z m44 23 c-10 -10 -19 5 -10 18 6 11 8 11 12 0 2 -7 1 -15
-2 -18z m-206 -133 c0 -5 -4 -10 -10 -10 -5 0 -10 5 -10 10 0 6 5 10 10 10 6
0 10 -4 10 -10z m164 -82 c5 -26 0 -42 -31 -87 -21 -31 -40 -60 -42 -66 -11
-29 -43 -52 -66 -47 -35 6 -31 29 13 84 20 26 53 69 72 97 19 28 38 51 41 51
4 0 9 -14 13 -32z m32 -77 c-20 -38 -20 -41 4 -41 26 0 25 -10 -5 -54 -14 -20
-25 -41 -25 -46 0 -6 -13 -10 -29 -10 -36 0 -48 -15 -24 -28 16 -10 16 -12 -2
-47 -11 -20 -25 -41 -32 -46 -13 -11 -83 -1 -83 11 0 5 22 35 50 67 27 32 50
63 50 70 0 6 11 20 25 31 14 11 25 25 25 32 0 19 54 114 58 102 2 -6 -4 -24
-12 -41z m500 4 c10 -25 -7 -40 -23 -20 -7 11 -13 22 -13 27 0 14 30 9 36 -7z
m-126 -4 c0 -6 -4 -13 -10 -16 -5 -3 -10 1 -10 9 0 9 5 16 10 16 6 0 10 -4 10
-9z m-240 -35 c0 -14 5 -28 10 -31 6 -4 -1 -21 -18 -43 -16 -20 -40 -62 -54
-92 -38 -82 -48 -92 -101 -96 -56 -5 -59 5 -19 62 15 21 35 55 45 74 26 50 38
71 71 113 33 43 66 50 66 13z m235 -70 l37 -32 -18 -30 c-11 -16 -35 -51 -54
-76 -29 -39 -41 -47 -67 -48 -41 0 -45 26 -9 61 22 23 76 103 76 114 0 15 -28
2 -38 -17 -7 -13 -28 -43 -47 -68 -19 -25 -40 -55 -47 -67 -11 -23 -48 -32
-48 -13 0 6 4 10 9 10 5 0 14 14 22 31 7 18 23 45 37 61 16 19 22 36 18 51 -3
14 2 36 14 55 20 33 20 33 49 16 15 -9 45 -31 66 -48z m-152 24 c-3 -11 -10
-23 -16 -27 -7 -4 -8 0 -4 11 4 10 7 22 7 27 0 5 4 9 9 9 5 0 7 -9 4 -20z
m-23 -93 c0 -7 -12 -24 -26 -38 -14 -13 -32 -36 -40 -51 -11 -21 -22 -28 -45
-28 -27 0 -30 2 -19 15 7 9 24 39 37 68 14 29 32 60 40 70 16 16 17 16 35 -2
10 -11 18 -26 18 -34z m-360 11 c0 -5 -9 -3 -20 4 -11 7 -20 16 -20 20 0 5 9
3 20 -4 11 -7 20 -16 20 -20z m4 -163 c-4 -8 -12 -15 -19 -15 -7 0 -20 -3 -28
-6 -12 -4 -14 0 -10 15 4 15 13 21 34 21 21 0 27 -4 23 -15z"/>
<path d="M1185 1119 c-4 -6 -23 -42 -42 -80 -19 -38 -46 -77 -59 -85 -26 -17
-32 -40 -12 -46 18 -6 -38 -97 -68 -110 -25 -12 -32 -34 -12 -40 6 -2 28 0 48
5 41 12 122 1 100 -13 -11 -7 -14 -35 -14 -117 l0 -107 -83 -86 c-46 -47 -83
-88 -83 -91 0 -3 -16 -26 -35 -50 -34 -43 -44 -69 -27 -69 11 0 42 34 42 45 0
9 64 85 156 185 59 65 62 70 57 109 -4 25 0 55 11 81 9 22 16 52 16 65 0 18 5
25 18 25 16 0 18 -8 16 -67 -6 -139 -11 -154 -69 -218 -30 -33 -55 -63 -55
-67 0 -4 -18 -19 -40 -33 -58 -37 -61 -52 -16 -91 24 -21 42 -48 50 -76 20
-66 40 -56 49 26 4 38 16 89 27 114 25 56 25 57 -2 69 -22 10 -21 11 28 64
109 115 147 160 140 166 -3 4 -19 -6 -34 -20 -16 -15 -31 -27 -34 -27 -6 0 -1
77 8 119 4 21 9 22 41 16 21 -4 53 -15 73 -24 19 -10 53 -21 75 -24 22 -3 34
-3 28 0 -7 2 -13 11 -13 19 0 7 -12 16 -27 20 -16 3 -50 14 -78 24 -27 11 -84
29 -125 41 -41 11 -83 30 -92 41 -18 20 -25 78 -10 78 21 0 308 -127 354 -157
37 -23 50 -7 17 21 -34 30 -186 111 -221 120 -15 3 -40 17 -55 30 -27 23 -28
27 -28 125 0 95 -5 116 -20 90z m-11 -135 c9 -24 7 -64 -3 -64 -5 0 -21 4 -36
10 l-26 10 23 30 c25 34 33 37 42 14z m-70 -175 c-6 -10 -44 -13 -44 -4 0 3 6
14 13 25 11 19 13 19 24 4 7 -9 10 -21 7 -25z m6 -519 c0 -34 -6 -37 -32 -13
-28 25 -22 35 25 42 4 0 7 -12 7 -29z"/>
<path d="M1756 855 c-15 -19 -58 -53 -96 -76 -39 -23 -73 -45 -76 -50 -3 -5
-14 -9 -25 -9 -23 0 -36 -27 -20 -43 6 -6 11 -14 11 -17 0 -11 -85 -67 -95
-63 -12 4 -175 -159 -175 -174 0 -6 -7 -16 -15 -23 -9 -7 -13 -15 -10 -19 4
-3 39 28 78 69 40 41 81 81 92 87 11 7 46 31 78 53 32 22 62 40 67 40 14 0
180 -221 180 -241 0 -5 7 -9 15 -9 26 0 18 57 -16 103 -29 40 -30 45 -26 122
5 108 26 176 77 253 21 31 22 32 2 32 -11 0 -32 -16 -46 -35z m-55 -130 c-12
-31 -21 -65 -21 -75 0 -11 -4 -20 -9 -20 -11 0 -61 62 -61 76 0 10 103 84 108
79 2 -2 -5 -29 -17 -60z"/>
<path d="M1398 633 c-9 -10 -55 -56 -103 -103 -77 -75 -114 -125 -102 -136 5
-5 77 65 77 74 0 14 82 92 96 92 8 0 14 5 14 12 0 7 14 27 32 45 21 21 27 33
17 33 -8 0 -22 -8 -31 -17z"/>
</g>
</svg>
