<?xml version="1.0" standalone="no"?>
<!DOCTYPE svg PUBLIC "-//W3C//DTD SVG 20010904//EN"
 "http://www.w3.org/TR/2001/REC-SVG-20010904/DTD/svg10.dtd">
<svg version="1.0" xmlns="http://www.w3.org/2000/svg"
 width="102.000000pt" height="96.000000pt" viewBox="0 0 102.000000 96.000000"
 preserveAspectRatio="xMidYMid meet">
<metadata>
Created by potrace 1.16, written by Peter Selinger 2001-2019
</metadata>
<g transform="translate(0.000000,96.000000) scale(0.100000,-0.100000)"
fill="#000000" stroke="none">
<path d="M806 875 c-8 -9 -32 -37 -53 -63 -35 -43 -59 -66 -116 -112 -12 -10
-19 -22 -15 -26 4 -4 14 -1 22 5 12 10 26 5 72 -26 102 -68 75 -82 -56 -30
-78 32 -106 26 -172 -34 -86 -81 -127 -100 -211 -101 -59 -1 -81 4 -124 25
-39 20 -53 24 -61 14 -8 -10 -43 -118 -63 -196 -2 -7 2 -16 9 -18 6 -3 12 2
12 9 0 19 81 85 128 105 46 19 153 21 187 3 24 -13 128 -127 151 -165 6 -10
15 -15 22 -11 15 9 0 48 -40 99 -26 33 -31 47 -29 85 1 25 10 55 20 68 l18 23
37 -37 c20 -21 36 -48 36 -60 0 -26 15 -28 36 -7 26 25 154 16 154 -11 0 -17
-5 -17 -91 -15 -52 2 -70 -2 -90 -17 -13 -11 -22 -23 -19 -25 3 -3 41 -1 84 4
44 4 82 6 85 3 3 -3 0 -13 -5 -22 -8 -13 -30 -18 -90 -22 -61 -4 -79 -8 -79
-20 0 -15 42 -17 108 -4 19 4 27 1 27 -8 0 -13 -59 -134 -96 -195 -10 -17 -15
-35 -11 -40 5 -4 13 -1 18 8 35 64 149 196 197 228 17 12 32 28 32 34 0 7 27
41 60 77 33 36 60 69 60 74 0 5 7 18 16 28 22 23 8 41 -47 57 -54 16 -111 52
-131 82 -26 41 -22 122 9 181 15 29 29 56 31 61 6 13 -16 7 -32 -8z m-66 -155
c0 -21 -15 -27 -25 -10 -7 12 2 30 16 30 5 0 9 -9 9 -20z m-120 -132 c0 -13
-23 -5 -28 10 -2 7 2 10 12 6 9 -3 16 -11 16 -16z m130 -19 c71 -11 107 -33
76 -45 -17 -7 -114 0 -211 14 l-50 8 30 16 c35 20 67 22 155 7z m155 -43 c43
-18 43 -32 1 -76 -55 -59 -72 -71 -90 -64 -16 6 -16 8 1 28 32 37 55 87 50
107 -6 23 -6 23 38 5z m-458 -35 c-11 -31 -27 -32 -27 -2 0 21 8 31 26 31 9 0
10 -7 1 -29z m353 -11 c0 -23 2 -23 -110 -20 -94 2 -111 7 -86 25 10 8 52 13
106 14 83 0 90 -1 90 -19z m-651 -16 c17 -4 31 -9 31 -13 0 -9 -81 -53 -87
-48 -7 8 7 67 17 67 4 0 22 -3 39 -6z m661 -113 c0 -11 -29 -35 -35 -29 -10 9
7 38 21 38 8 0 14 -4 14 -9z"/>
</g>
</svg>
