<?xml version="1.0" standalone="no"?>
<!DOCTYPE svg PUBLIC "-//W3C//DTD SVG 20010904//EN"
 "http://www.w3.org/TR/2001/REC-SVG-20010904/DTD/svg10.dtd">
<svg version="1.0" xmlns="http://www.w3.org/2000/svg"
 width="101.000000pt" height="84.000000pt" viewBox="0 0 101.000000 84.000000"
 preserveAspectRatio="xMidYMid meet">
<metadata>
Created by potrace 1.16, written by Peter Selinger 2001-2019
</metadata>
<g transform="translate(0.000000,84.000000) scale(0.100000,-0.100000)"
fill="#000000" stroke="none">
<path d="M230 795 c-14 -8 -35 -14 -47 -15 -12 0 -24 -4 -27 -8 -6 -11 41
-111 65 -137 10 -12 20 -32 21 -45 3 -23 0 -24 -51 -26 -53 -2 -71 -13 -71
-43 0 -8 6 -11 17 -7 30 12 101 19 125 13 18 -5 33 -29 67 -107 25 -55 50
-100 58 -100 17 0 17 25 -1 53 -7 12 -22 45 -31 74 -21 60 -12 83 35 83 28 0
28 -1 35 -72 4 -40 4 -95 2 -123 -3 -27 -6 -54 -7 -60 0 -5 -7 -1 -15 9 -14
19 -15 19 -15 -7 0 -16 7 -30 16 -34 14 -5 15 -20 9 -115 -4 -72 -3 -108 4
-108 16 0 20 13 22 86 1 38 8 83 15 101 8 17 22 69 33 115 49 209 46 204 143
212 149 12 179 11 189 -7 6 -9 10 -109 11 -222 1 -207 12 -259 23 -110 9 132
27 219 80 380 12 39 26 84 29 101 7 31 6 32 -31 35 -21 2 -58 2 -83 -1 l-45
-5 0 -75 0 -75 -241 -3 c-275 -3 -265 -6 -271 81 -12 189 -13 191 -63 162z
m24 -62 c10 -65 8 -77 -10 -62 -19 16 -44 63 -44 84 0 9 9 15 24 15 19 0 24
-6 30 -37z m672 -83 c-10 -63 -47 -155 -56 -139 -12 21 -31 159 -25 170 4 5
24 9 47 9 l41 0 -7 -40z m-420 -157 c-2 -10 -10 -37 -17 -60 -16 -57 -29 -54
-29 7 0 36 5 52 18 59 25 15 34 13 28 -6z"/>
<path d="M44 745 c-3 -8 0 -56 6 -107 9 -64 10 -155 5 -293 -8 -248 8 -255 25
-10 8 113 16 177 26 192 8 13 12 33 9 45 -3 13 3 58 13 100 11 43 17 80 14 83
-12 12 -93 4 -98 -10z m65 -27 c0 -13 -4 -32 -9 -43 -7 -18 -8 -18 -15 7 -8
31 -1 58 15 58 5 0 10 -10 9 -22z"/>
</g>
</svg>
