<?xml version="1.0" standalone="no"?>
<!DOCTYPE svg PUBLIC "-//W3C//DTD SVG 20010904//EN"
 "http://www.w3.org/TR/2001/REC-SVG-20010904/DTD/svg10.dtd">
<svg version="1.0" xmlns="http://www.w3.org/2000/svg"
 width="127.000000pt" height="86.000000pt" viewBox="0 0 127.000000 86.000000"
 preserveAspectRatio="xMidYMid meet">
<metadata>
Created by potrace 1.16, written by Peter Selinger 2001-2019
</metadata>
<g transform="translate(0.000000,86.000000) scale(0.100000,-0.100000)"
fill="#000000" stroke="none">
<path d="M562 798 c-7 -7 -12 -17 -12 -23 0 -6 -14 -26 -31 -44 -16 -18 -27
-36 -24 -39 3 -4 23 -5 44 -3 33 2 42 -3 70 -34 40 -46 31 -65 -16 -30 -33 26
-35 26 -54 9 -26 -24 -24 -44 6 -44 28 0 65 -35 65 -62 0 -26 -12 -22 -45 12
-16 17 -32 30 -37 30 -4 0 -15 -14 -24 -31 l-16 -31 -14 27 c-7 15 -25 40 -39
57 -31 37 -31 52 0 107 14 23 25 45 25 47 0 13 -28 0 -49 -22 -13 -14 -36 -31
-51 -39 -38 -20 -45 -43 -16 -55 26 -9 71 -79 59 -90 -4 -4 -22 -10 -40 -13
-28 -6 -34 -2 -54 31 -33 53 -34 112 -3 157 43 65 26 76 -27 17 -19 -21 -51
-50 -71 -66 -45 -34 -47 -43 -12 -56 30 -12 29 -44 -1 -48 -29 -4 -82 42 -69
59 6 8 17 30 24 49 7 19 26 52 41 72 36 47 22 57 -22 17 -19 -16 -53 -43 -76
-60 -71 -50 -72 -60 -8 -115 30 -26 55 -51 55 -54 0 -4 -20 -17 -44 -30 -66
-34 -66 -47 -3 -105 30 -27 62 -62 72 -78 17 -27 45 -37 45 -16 0 6 -12 33
-27 60 -23 44 -25 52 -13 74 7 14 22 25 33 25 16 0 18 5 14 27 -13 68 47 88
76 26 17 -38 17 -38 -8 -58 -33 -27 -32 -35 10 -64 20 -13 50 -48 68 -78 17
-29 35 -53 39 -53 18 0 17 24 -1 66 -26 58 -26 100 -1 142 23 37 39 40 65 11
19 -19 19 -21 0 -55 -21 -39 -16 -51 13 -35 28 15 48 14 88 -5 40 -19 41 -28
10 -96 -55 -120 -106 -244 -106 -255 0 -17 10 -16 51 1 38 16 73 49 62 59 -3
4 2 7 12 7 9 0 46 20 81 46 35 25 80 52 100 60 19 8 34 20 32 26 -4 11 -52 43
-105 70 -13 6 -23 18 -23 26 0 25 67 118 112 155 36 30 40 37 29 51 -8 10 -29
16 -53 16 -39 0 -39 0 -73 -74 -19 -40 -35 -79 -35 -85 0 -19 -28 -12 -45 12
-15 21 -14 23 11 43 15 12 22 24 16 28 -23 14 0 56 28 49 24 -6 26 4 4 28 -14
15 -10 22 46 80 33 34 59 67 57 73 -5 14 -66 50 -73 43 -3 -3 -7 -11 -8 -19
-4 -23 -30 -58 -44 -58 -20 0 -52 62 -52 103 0 38 -15 48 -38 25z m8 -68 c0
-5 -4 -10 -10 -10 -5 0 -10 5 -10 10 0 6 5 10 10 10 6 0 10 -4 10 -10z m160
-53 c0 -2 -11 -14 -25 -27 -27 -25 -35 -12 -9 14 14 14 34 22 34 13z m-617
-27 c-6 -22 -18 -26 -29 -9 -3 6 0 15 7 20 22 14 28 11 22 -11z m662 -130 c6
-9 -45 -74 -52 -66 -2 2 3 20 11 40 15 36 29 45 41 26z m-625 -60 c-14 -33
-22 -37 -39 -16 -9 11 -6 18 15 35 33 26 40 21 24 -19z m424 21 c17 -19 15
-41 -5 -41 -15 0 -50 40 -44 50 10 16 30 12 49 -9z m-224 -46 c-16 -19 -30
-19 -30 0 0 17 33 38 38 24 2 -5 -2 -16 -8 -24z m310 -170 c5 3 22 -3 39 -13
37 -22 30 -36 -35 -66 -27 -13 -63 -35 -80 -49 -52 -44 -52 -30 0 86 23 53 27
57 46 47 11 -6 25 -8 30 -5z"/>
<path d="M820 748 c-8 -18 -19 -40 -26 -48 -7 -9 -20 -33 -29 -54 l-16 -39 43
8 c66 13 123 8 245 -22 62 -14 112 -28 110 -29 -5 -5 -222 -52 -272 -59 -59
-8 -82 -25 -90 -69 -4 -17 -9 -39 -11 -48 -10 -33 30 -19 94 32 35 28 88 60
118 71 75 28 204 58 222 52 8 -3 18 0 23 8 13 21 11 28 -8 27 -22 0 -110 24
-196 54 -72 25 -167 99 -167 130 0 30 -27 21 -40 -14z m40 -67 c15 -29 13 -31
-25 -31 -33 0 -34 1 -23 25 13 30 33 32 48 6z m28 -212 c-2 -5 -18 -19 -37
-31 l-33 -21 4 24 c2 15 12 26 28 30 37 10 42 10 38 -2z"/>
<path d="M1262 540 c0 -19 2 -27 5 -17 2 9 2 25 0 35 -3 9 -5 1 -5 -18z"/>
</g>
</svg>
