<?xml version="1.0" standalone="no"?>
<!DOCTYPE svg PUBLIC "-//W3C//DTD SVG 20010904//EN"
 "http://www.w3.org/TR/2001/REC-SVG-20010904/DTD/svg10.dtd">
<svg version="1.0" xmlns="http://www.w3.org/2000/svg"
 width="132.000000pt" height="75.000000pt" viewBox="0 0 132.000000 75.000000"
 preserveAspectRatio="xMidYMid meet">
<metadata>
Created by potrace 1.16, written by Peter Selinger 2001-2019
</metadata>
<g transform="translate(0.000000,75.000000) scale(0.100000,-0.100000)"
fill="#000000" stroke="none">
<path d="M577 663 c-33 -45 -89 -103 -73 -75 12 20 1 14 -49 -27 -26 -22 -62
-47 -81 -57 -31 -17 -35 -17 -46 -3 -7 9 -40 21 -72 28 -33 6 -80 24 -106 41
-26 16 -52 30 -59 30 -15 0 -31 -42 -31 -81 0 -26 3 -29 33 -29 17 0 60 4 94
9 76 11 106 6 94 -18 -5 -9 -6 -22 -4 -28 6 -18 -78 -17 -121 1 -18 8 -39 10
-45 6 -11 -6 -17 -65 -12 -105 0 -6 43 -11 102 -12 93 -1 120 -6 107 -18 -9
-9 -140 -14 -162 -6 -27 11 -66 -4 -66 -24 0 -13 6 -15 27 -11 58 12 156 11
160 -1 3 -7 18 -13 33 -13 16 0 32 -5 36 -11 4 -8 -28 -9 -112 -6 -66 3 -130
7 -143 9 -21 2 -27 -3 -39 -35 -8 -20 -13 -40 -10 -42 3 -3 27 4 53 16 37 16
72 22 149 24 56 2 113 6 128 10 23 6 37 0 78 -31 32 -25 50 -46 50 -59 0 -34
31 -116 42 -113 6 2 18 24 27 48 20 52 134 229 180 279 34 38 36 41 22 41 -6
0 -35 -25 -65 -56 l-55 -56 -60 47 c-67 51 -81 70 -81 112 0 34 21 83 35 83 6
0 42 -30 80 -65 60 -55 105 -81 105 -59 0 3 -24 29 -53 58 -32 33 -58 70 -67
96 -12 38 -12 48 4 92 10 27 15 52 13 54 -3 3 -21 -17 -40 -43z m-17 -88 c0
-18 -4 -23 -15 -19 -17 7 -17 7 -9 28 9 24 24 19 24 -9z m-410 -57 c0 -4 -3
-8 -7 -8 -5 0 -18 -3 -30 -6 -18 -5 -23 -2 -23 13 0 11 3 22 6 26 8 7 54 -13
54 -25z m338 0 c2 -9 -16 -38 -39 -62 -44 -49 -43 -67 4 -82 35 -10 167 -109
167 -124 0 -13 -71 -80 -84 -80 -14 0 -140 127 -155 157 -6 12 -8 29 -5 38 4
9 1 20 -5 25 -29 17 63 155 99 148 8 -2 16 -11 18 -20z m-133 -75 c-9 -40 -22
-48 -35 -23 -15 28 -6 50 21 50 18 0 20 -4 14 -27z m-66 -48 c17 -16 7 -35
-17 -31 -9 2 -43 7 -74 10 -32 4 -58 11 -58 15 0 12 64 27 100 23 19 -3 41
-10 49 -17z m65 -90 c4 -10 -1 -15 -14 -15 -20 0 -26 11 -13 23 10 11 20 8 27
-8z m-264 -85 c-20 -13 -33 -13 -25 0 3 6 14 10 23 10 15 0 15 -2 2 -10z m481
-67 c-12 -20 -14 -14 -5 12 4 9 9 14 11 11 3 -2 0 -13 -6 -23z"/>
<path d="M1172 628 c-5 -5 -5 -31 -1 -60 5 -28 6 -55 3 -60 -7 -11 -179 -10
-224 1 -19 5 -59 20 -88 32 -69 30 -85 21 -93 -52 -3 -30 -3 -57 1 -62 3 -4
35 4 71 18 38 15 84 26 114 26 28 0 89 2 138 5 68 4 87 3 89 -8 1 -7 3 -40 4
-73 9 -220 18 -335 25 -335 5 0 9 15 9 33 4 300 15 388 61 479 11 22 17 44 12
48 -12 12 -111 18 -121 8z m78 -38 c0 -6 -8 -25 -17 -43 l-17 -32 -6 30 c-4
17 -4 36 -2 43 5 15 42 16 42 2z m-395 -92 c33 -15 32 -24 -6 -37 -44 -15 -49
-14 -49 12 0 39 13 45 55 25z"/>
<path d="M792 341 c-13 -8 -32 -63 -32 -93 0 -25 20 -22 97 13 68 31 68 31
191 24 86 -5 122 -4 122 4 0 6 -6 11 -12 11 -63 1 -260 21 -279 28 -45 17 -74
21 -87 13z m62 -37 c21 -8 20 -20 -1 -27 -10 -2 -26 -8 -35 -12 -14 -5 -18 -2
-18 12 0 32 18 41 54 27z"/>
</g>
</svg>
