<?xml version="1.0" standalone="no"?>
<!DOCTYPE svg PUBLIC "-//W3C//DTD SVG 20010904//EN"
 "http://www.w3.org/TR/2001/REC-SVG-20010904/DTD/svg10.dtd">
<svg version="1.0" xmlns="http://www.w3.org/2000/svg"
 width="108.000000pt" height="86.000000pt" viewBox="0 0 108.000000 86.000000"
 preserveAspectRatio="xMidYMid meet">
<metadata>
Created by potrace 1.16, written by Peter Selinger 2001-2019
</metadata>
<g transform="translate(0.000000,86.000000) scale(0.100000,-0.100000)"
fill="#000000" stroke="none">
<path d="M228 812 c-43 -4 -53 -21 -38 -72 6 -19 10 -48 10 -64 0 -26 -2 -28
-30 -22 -17 3 -44 15 -60 28 -35 25 -40 22 -60 -40 -16 -51 -15 -112 2 -112 5
0 39 14 75 31 36 17 69 27 73 22 5 -4 11 -76 14 -159 3 -83 10 -163 16 -178 6
-16 7 -56 4 -97 -5 -46 -3 -69 4 -69 9 0 32 81 32 116 0 23 58 144 68 144 9 0
42 -128 68 -259 5 -30 8 -32 16 -16 6 9 8 37 5 60 -4 29 -2 48 8 61 8 10 15
25 15 32 0 7 12 38 26 68 31 67 24 81 -32 65 -77 -21 -79 -20 -83 67 -6 108
-4 153 6 163 4 4 50 10 101 13 77 5 92 3 92 -10 0 -20 -41 -35 -58 -21 -10 8
-16 7 -22 -3 -11 -17 -2 -38 18 -45 10 -2 28 -15 42 -27 14 -13 45 -39 70 -60
25 -20 94 -84 154 -143 100 -98 111 -106 123 -89 7 10 13 25 14 33 1 60 21
165 54 295 2 10 10 25 17 33 7 9 13 21 13 27 0 6 13 44 28 84 16 40 26 79 23
87 -7 19 -98 20 -141 1 l-30 -12 4 -82 c2 -63 0 -82 -11 -82 -9 -1 -7 -4 4
-10 14 -9 17 -32 17 -169 1 -97 -3 -162 -9 -166 -14 -9 -189 173 -197 204 -3
14 -15 46 -26 69 -25 59 -17 95 21 88 15 -2 59 -7 97 -10 55 -4 62 -3 30 4
-22 5 -58 9 -80 10 -43 1 -81 22 -70 39 11 19 -10 12 -28 -10 -16 -18 -27 -20
-130 -17 -106 3 -112 4 -115 25 -2 12 12 52 30 90 18 37 33 73 34 79 2 10
-115 14 -208 6z m155 -73 c-29 -50 -45 -49 -41 2 3 37 7 44 28 49 32 8 36 -8
13 -51z m-93 42 c0 -5 -11 -32 -24 -61 l-24 -52 -10 49 c-7 33 -7 52 0 60 12
15 58 18 58 4z m711 -61 c-1 -14 -11 -41 -21 -60 -9 -19 -25 -59 -35 -87 -11
-29 -22 -53 -26 -53 -7 0 -16 78 -18 162 -2 62 1 65 69 64 31 -1 35 -4 31 -26z
m-682 -62 c1 -22 -4 -28 -19 -28 -29 0 -33 20 -14 66 17 38 17 38 25 14 4 -14
7 -37 8 -52z m-181 -34 c29 -8 28 -28 -3 -42 -37 -17 -58 -15 -51 4 3 9 6 22
6 30 0 15 12 17 48 8z m186 -119 l1 -90 -34 0 c-31 0 -36 4 -44 35 -19 73 12
155 57 148 18 -3 20 -11 20 -93z m284 27 c4 -50 -16 -57 -43 -16 -16 24 -16
27 1 45 25 28 39 19 42 -29z m-279 -147 c6 -7 -50 -115 -59 -115 -21 0 -27 78
-9 112 8 15 17 18 37 13 15 -4 29 -8 31 -10z m131 -69 c0 -2 -11 -27 -24 -55
l-23 -52 -12 45 c-16 64 -15 66 24 66 19 0 35 -2 35 -4z"/>
</g>
</svg>
