<?xml version="1.0" standalone="no"?>
<!DOCTYPE svg PUBLIC "-//W3C//DTD SVG 20010904//EN"
 "http://www.w3.org/TR/2001/REC-SVG-20010904/DTD/svg10.dtd">
<svg version="1.0" xmlns="http://www.w3.org/2000/svg"
 width="119.000000pt" height="95.000000pt" viewBox="0 0 119.000000 95.000000"
 preserveAspectRatio="xMidYMid meet">
<metadata>
Created by potrace 1.16, written by Peter Selinger 2001-2019
</metadata>
<g transform="translate(0.000000,95.000000) scale(0.100000,-0.100000)"
fill="#000000" stroke="none">
<path d="M958 828 c-38 -59 -81 -89 -100 -70 -9 9 -19 4 -41 -19 -16 -17 -31
-29 -33 -26 -7 6 18 59 38 81 21 23 23 36 6 37 -7 0 -38 2 -69 4 -84 6 -94 -5
-93 -102 1 -43 5 -131 9 -195 5 -81 5 -118 -3 -118 -5 0 -29 16 -53 35 -23 20
-50 40 -60 46 -26 13 -24 28 11 104 38 83 38 89 -2 83 -44 -7 -57 -1 -50 24 4
18 2 20 -19 15 -13 -4 -37 -7 -52 -7 -20 0 -30 -6 -34 -20 -4 -16 -14 -20 -43
-20 -21 0 -45 3 -54 6 -22 8 -20 42 4 82 11 18 20 42 20 53 0 21 -15 22 -64 3
-12 -4 -16 0 -16 15 0 19 -5 21 -56 19 -30 -1 -60 -8 -66 -15 -6 -8 -8 -34 -3
-68 l6 -55 -38 5 c-35 6 -39 4 -56 -25 -21 -38 -34 -110 -20 -110 6 0 31 9 57
21 73 32 73 31 81 -110 3 -46 7 -86 10 -89 22 -23 34 79 20 176 -8 55 -9 52
38 56 7 1 15 -18 19 -49 17 -129 21 -145 34 -145 17 0 18 49 3 120 -8 39 -8
54 1 65 16 19 30 19 30 1 0 -8 19 -25 42 -38 41 -22 43 -26 43 -68 2 -160 5
-204 17 -192 6 6 14 50 16 97 4 72 7 85 20 83 12 -2 19 -26 29 -98 6 -52 12
-99 13 -105 0 -5 5 -3 10 5 5 8 10 41 10 73 0 75 14 80 82 31 29 -20 58 -37
65 -37 19 0 21 -13 29 -176 9 -187 18 -196 39 -41 4 26 22 70 41 100 l34 55 1
-50 c1 -27 3 -78 3 -112 1 -34 5 -65 9 -69 12 -12 27 17 27 52 0 57 42 161 85
212 33 40 18 49 -44 27 -54 -19 -51 -19 -51 6 0 18 -5 20 -57 17 l-57 -3 -7
32 c-7 38 23 182 41 193 24 15 171 -37 243 -85 55 -37 67 -42 67 -24 0 13 -11
23 -90 78 -71 50 -106 84 -92 89 14 4 171 -67 198 -90 25 -22 44 -23 44 -3 0
8 -22 29 -50 47 -27 18 -50 40 -50 49 0 9 -7 22 -16 30 -12 10 -15 28 -13 80
2 37 1 71 -3 74 -3 4 -22 -17 -40 -47z m-748 -12 c0 -21 -21 -76 -30 -76 -12
0 -18 57 -8 74 11 20 38 21 38 2z m81 -39 c-8 -8 -11 -7 -11 4 0 20 13 34 18
19 3 -7 -1 -17 -7 -23z m492 27 c3 -3 -10 -38 -29 -77 -19 -39 -34 -78 -34
-86 0 -8 -3 -11 -7 -7 -4 4 -9 37 -10 75 -4 71 2 84 42 94 31 7 31 7 38 1z
m-538 -67 c4 -42 3 -47 -15 -47 -23 0 -24 10 -9 63 13 47 18 44 24 -16z m715
-2 c0 -18 -4 -23 -15 -19 -15 6 -20 35 -9 47 12 11 24 -3 24 -28z m-125 -56
c9 -27 1 -33 -25 -19 -17 9 -19 14 -9 26 16 20 27 18 34 -7z m-706 -15 c10 -9
-14 -24 -40 -24 -31 0 -36 9 -17 28 10 10 43 8 57 -4z m426 -26 c-11 -36 -25
-45 -25 -17 0 27 7 39 22 39 5 0 6 -10 3 -22z m-61 -43 c-6 -33 -8 -35 -22
-22 -13 13 -13 20 -2 47 17 41 34 24 24 -25z m281 -264 c-34 -68 -45 -72 -45
-17 0 47 15 65 53 66 16 0 15 -5 -8 -49z m109 1 c-18 -38 -34 -41 -34 -9 0 15
8 28 23 34 29 14 30 12 11 -25z"/>
<path d="M3 830 c0 -25 2 -35 4 -22 2 12 2 32 0 45 -2 12 -4 2 -4 -23z"/>
</g>
</svg>
