<?xml version="1.0" standalone="no"?>
<!DOCTYPE svg PUBLIC "-//W3C//DTD SVG 20010904//EN"
 "http://www.w3.org/TR/2001/REC-SVG-20010904/DTD/svg10.dtd">
<svg version="1.0" xmlns="http://www.w3.org/2000/svg"
 width="111.000000pt" height="84.000000pt" viewBox="0 0 111.000000 84.000000"
 preserveAspectRatio="xMidYMid meet">
<metadata>
Created by potrace 1.16, written by Peter Selinger 2001-2019
</metadata>
<g transform="translate(0.000000,84.000000) scale(0.100000,-0.100000)"
fill="#000000" stroke="none">
<path d="M228 802 c-24 -14 -28 -23 -28 -64 0 -45 -11 -61 -25 -38 -15 24 -46
8 -80 -42 -52 -79 -49 -89 31 -87 36 1 69 -2 74 -7 4 -5 10 -53 12 -106 4
-111 16 -99 -101 -102 l-63 -1 -3 -68 c-2 -69 8 -84 35 -52 7 8 18 15 24 16 6
0 34 11 61 24 28 13 54 20 58 16 4 -4 9 -62 10 -129 2 -178 27 -132 32 60 2
53 6 101 9 107 4 5 23 13 44 17 20 3 62 15 92 26 109 39 304 85 371 87 25 1
65 -32 152 -126 l37 -41 -6 -84 c-5 -56 -3 -87 4 -92 18 -11 22 7 28 130 3 66
12 139 19 164 7 25 16 83 20 130 5 78 12 118 30 176 9 28 -14 34 -85 20 -63
-13 -60 1 -36 -156 8 -52 15 -126 15 -165 l1 -70 -20 32 c-10 18 -29 42 -41
54 -18 18 -20 29 -16 73 3 28 9 63 13 79 9 37 -7 35 -68 -9 -55 -41 -74 -42
-213 -9 -38 9 -102 20 -142 25 -40 5 -83 14 -95 21 -13 7 -36 15 -53 19 -36 8
-36 26 -3 108 12 31 17 57 12 61 -20 19 -79 20 -106 3z m62 -47 c0 -27 -19
-76 -35 -87 -10 -7 -23 42 -24 90 -1 18 4 22 29 22 25 0 30 -4 30 -25z m733
-56 c-1 -8 -8 -36 -14 -64 l-12 -50 -13 30 c-19 45 -18 93 4 98 25 7 37 2 35
-14z m-852 -58 c29 -23 25 -28 -29 -37 -34 -5 -42 -4 -42 9 0 16 26 47 40 47
4 0 18 -9 31 -19z m249 -76 c47 -4 128 -15 182 -26 53 -10 105 -19 117 -19 11
0 25 -9 31 -19 9 -17 5 -20 -33 -26 -59 -10 -173 -37 -305 -74 -130 -36 -152
-38 -153 -13 0 9 -2 45 -5 79 -2 34 1 74 6 89 9 23 14 25 43 20 17 -3 70 -8
117 -11z m434 -32 c-9 -39 -13 -43 -29 -36 -20 7 -19 22 2 45 23 26 34 22 27
-9z m-654 -211 c0 -14 -103 -63 -113 -53 -15 15 2 49 26 53 53 7 87 7 87 0z"/>
</g>
</svg>
