<?xml version="1.0" standalone="no"?>
<!DOCTYPE svg PUBLIC "-//W3C//DTD SVG 20010904//EN"
 "http://www.w3.org/TR/2001/REC-SVG-20010904/DTD/svg10.dtd">
<svg version="1.0" xmlns="http://www.w3.org/2000/svg"
 width="138.000000pt" height="87.000000pt" viewBox="0 0 138.000000 87.000000"
 preserveAspectRatio="xMidYMid meet">
<metadata>
Created by potrace 1.16, written by Peter Selinger 2001-2019
</metadata>
<g transform="translate(0.000000,87.000000) scale(0.100000,-0.100000)"
fill="#000000" stroke="none">
<path d="M585 824 c-16 -21 -53 -61 -83 -89 l-55 -51 33 -21 33 -21 -48 -31
c-53 -34 -68 -36 -240 -32 -95 2 -147 14 -129 31 24 21 90 30 220 30 79 0 144
4 144 8 0 5 -63 12 -140 15 -122 5 -148 9 -197 31 -79 37 -83 35 -83 -26 0
-29 3 -70 6 -90 l6 -37 134 6 c120 5 134 4 134 -11 0 -13 -13 -16 -77 -17 -43
0 -98 0 -122 1 -50 2 -61 -8 -61 -62 0 -36 1 -37 32 -33 18 2 67 6 108 9 69 5
78 3 105 -19 l30 -24 -106 -1 c-58 0 -121 5 -139 11 -37 13 -45 6 -56 -49 -7
-38 7 -62 28 -45 29 24 118 45 208 50 l96 5 57 -47 c31 -25 57 -54 57 -64 0
-10 -15 -24 -35 -34 -39 -19 -39 -18 -17 -106 17 -66 36 -87 49 -55 12 32 84
147 132 210 49 66 141 167 146 162 2 -2 -5 -28 -15 -58 -10 -30 -16 -57 -14
-60 3 -3 34 10 69 29 80 43 100 38 157 -34 48 -62 65 -52 24 14 -14 22 -26 45
-26 50 0 5 65 9 157 8 l158 -2 7 -40 c4 -22 7 -75 7 -118 1 -43 5 -76 10 -73
13 8 20 237 8 263 -7 17 -2 49 23 140 17 65 37 124 42 131 28 34 -58 57 -117
30 -20 -9 -25 -18 -25 -50 0 -31 -4 -38 -20 -39 -11 -1 -35 -3 -52 -4 -18 -2
-66 -1 -107 2 l-73 6 6 41 c4 22 15 53 26 68 11 15 20 32 20 38 0 15 -27 12
-33 -4 -8 -20 -141 -126 -158 -126 -8 0 -25 7 -38 16 -33 23 -46 5 -47 -66 -1
-62 7 -72 36 -45 9 8 42 17 73 21 52 6 60 4 82 -16 33 -31 31 -44 -8 -74 -51
-39 -102 -57 -129 -47 -13 6 -19 10 -13 10 5 1 -30 41 -78 89 -68 68 -91 98
-97 128 -14 58 -12 110 5 151 22 52 4 61 -30 17z m-19 -112 c7 -48 -10 -57
-41 -22 -18 20 -18 21 5 45 13 14 25 23 27 22 2 -2 6 -23 9 -45z m757 -28 c8
-8 -21 -64 -33 -64 -12 0 -30 33 -30 54 0 16 49 23 63 10z m-383 -18 c0 -21
-20 -30 -33 -17 -9 9 -8 14 3 21 21 14 30 12 30 -4z m-835 -16 c3 -5 -1 -10
-9 -10 -9 0 -16 5 -16 10 0 6 4 10 9 10 6 0 13 -4 16 -10z m492 -66 c53 -40
133 -120 133 -133 0 -4 -18 -22 -40 -40 l-41 -33 -47 39 c-85 69 -92 80 -92
144 0 52 2 59 20 59 11 0 41 -16 67 -36z m218 6 c-3 -5 -13 -10 -21 -10 -8 0
-14 5 -14 10 0 6 9 10 21 10 11 0 17 -4 14 -10z m430 -42 c3 -24 7 -63 8 -88
l2 -45 -95 -5 c-52 -3 -120 -3 -150 0 -48 4 -55 8 -58 28 -3 16 5 27 27 40 36
20 37 27 12 69 -11 17 -18 33 -16 35 2 2 62 5 134 6 l130 2 6 -42z m-801 1
c-24 -27 -16 -39 82 -115 43 -34 80 -68 82 -76 3 -15 -66 -78 -85 -78 -5 0
-35 26 -67 59 -66 67 -83 112 -61 165 8 18 24 40 37 49 31 22 35 21 12 -4z
m-131 -70 c-13 -13 -215 -17 -220 -4 -2 6 41 11 114 12 77 1 113 -1 106 -8z
m497 -98 c0 -11 -31 -24 -39 -16 -3 3 1 10 9 15 19 12 30 12 30 1z m-720 -31
c-19 -13 -30 -13 -30 0 0 6 10 10 23 10 18 0 19 -2 7 -10z m480 -89 c0 -5 -8
-17 -17 -27 -20 -20 -32 -1 -13 21 14 17 30 20 30 6z m-57 -47 c12 -4 9 -14
-12 -54 -14 -28 -29 -50 -32 -50 -4 0 -9 17 -13 38 -5 30 -2 40 15 55 24 19
22 19 42 11z"/>
</g>
</svg>
