<?xml version="1.0" standalone="no"?>
<!DOCTYPE svg PUBLIC "-//W3C//DTD SVG 20010904//EN"
 "http://www.w3.org/TR/2001/REC-SVG-20010904/DTD/svg10.dtd">
<svg version="1.0" xmlns="http://www.w3.org/2000/svg"
 width="112.000000pt" height="68.000000pt" viewBox="0 0 112.000000 68.000000"
 preserveAspectRatio="xMidYMid meet">
<metadata>
Created by potrace 1.16, written by Peter Selinger 2001-2019
</metadata>
<g transform="translate(0.000000,68.000000) scale(0.100000,-0.100000)"
fill="#000000" stroke="none">
<path d="M272 608 c-7 -7 -12 -16 -12 -22 0 -43 -58 -112 -77 -92 -3 3 -14 1
-24 -4 -15 -8 -16 -15 -8 -42 6 -18 13 -115 16 -215 4 -137 9 -183 18 -183 17
0 25 23 25 70 0 35 4 40 46 65 67 39 78 30 69 -55 -6 -62 -5 -69 9 -64 11 4
16 20 17 53 2 65 12 103 29 111 8 4 29 14 45 22 33 17 108 36 260 68 55 11
143 31 195 45 52 13 117 27 145 32 36 6 51 13 53 26 3 15 -1 17 -22 11 -47
-11 -127 -3 -204 22 -24 8 -101 26 -170 40 -185 38 -188 38 -295 83 -112 47
-100 44 -115 29z m68 -58 l35 -18 -30 -7 c-16 -4 -35 -8 -41 -10 -21 -6 -32 9
-23 33 10 26 14 27 59 2z m161 -59 c57 -10 183 -31 221 -36 13 -2 46 -10 73
-19 28 -8 65 -16 83 -18 18 -1 31 -6 29 -11 -5 -15 -100 -41 -282 -77 -33 -7
-71 -16 -85 -21 -37 -13 -152 -29 -161 -23 -16 10 -9 49 16 93 30 51 22 62
-34 54 -55 -9 -59 -15 -49 -84 10 -76 1 -89 -58 -89 -36 0 -44 3 -44 18 0 39
55 176 84 208 13 16 128 18 207 5z m-268 -27 c3 -4 -1 -20 -10 -38 l-16 -31
-9 25 c-5 13 -6 30 -4 37 6 14 28 18 39 7z m130 -79 c-3 -8 -9 -15 -14 -15
-10 0 -12 24 -3 33 11 11 24 -3 17 -18z m-103 -170 c-7 -8 -21 -15 -32 -15
-17 0 -18 3 -8 15 7 8 21 15 32 15 17 0 18 -3 8 -15z"/>
</g>
</svg>
