<?xml version="1.0" standalone="no"?>
<!DOCTYPE svg PUBLIC "-//W3C//DTD SVG 20010904//EN"
 "http://www.w3.org/TR/2001/REC-SVG-20010904/DTD/svg10.dtd">
<svg version="1.0" xmlns="http://www.w3.org/2000/svg"
 width="160.000000pt" height="95.000000pt" viewBox="0 0 160.000000 95.000000"
 preserveAspectRatio="xMidYMid meet">
<metadata>
Created by potrace 1.16, written by Peter Selinger 2001-2019
</metadata>
<g transform="translate(0.000000,95.000000) scale(0.100000,-0.100000)"
fill="#000000" stroke="none">
<path d="M1374 805 c-4 -9 0 -21 9 -28 19 -16 34 -105 36 -225 2 -91 1 -95
-16 -81 -31 24 -42 43 -33 58 4 8 3 25 -3 38 -7 17 -6 33 7 66 26 69 18 75
-35 27 -68 -61 -104 -70 -224 -56 -38 5 -83 10 -100 11 -87 7 -346 36 -389 44
-56 10 -66 22 -59 66 8 50 -11 49 -56 0 l-42 -46 -67 17 c-37 9 -87 29 -111
45 -25 16 -50 29 -57 29 -29 0 -88 -150 -67 -171 6 -6 26 -3 57 11 26 11 52
20 57 20 19 0 8 -21 -16 -30 -33 -13 -32 -43 2 -66 55 -35 93 -80 93 -109 l0
-28 -95 6 c-99 7 -117 -1 -67 -27 l27 -15 -35 -14 c-19 -9 -38 -13 -42 -11 -5
3 -5 23 -2 46 6 36 5 40 -12 36 -14 -2 -22 -19 -32 -67 -17 -76 -8 -93 35 -64
47 32 124 53 210 58 81 5 83 5 114 -25 18 -16 39 -30 48 -30 9 0 31 -17 49
-37 25 -30 31 -44 26 -65 -3 -18 -1 -28 5 -28 20 0 33 53 25 100 -16 93 -3
129 49 133 32 3 37 -16 5 -23 -31 -8 -35 -37 -30 -185 4 -146 5 -149 32 -135
16 9 20 21 20 62 0 104 53 195 105 182 35 -9 33 15 -5 68 -17 23 -27 45 -23
49 10 9 161 39 197 39 15 0 64 9 109 19 203 47 183 49 267 -28 24 -23 48 -41
52 -41 18 0 40 -67 45 -136 5 -62 9 -74 24 -74 16 0 17 17 17 220 1 204 5 257
21 270 14 12 61 91 61 104 0 17 -25 24 -113 31 -56 5 -68 4 -73 -10z m110 -31
c17 -7 22 -34 6 -34 -5 0 -13 -15 -18 -32 l-9 -33 -17 40 c-16 37 -16 40 0 52
21 15 18 15 38 7z m-1213 -84 c28 -16 24 -25 -18 -38 -44 -14 -50 -10 -35 23
13 27 23 30 53 15z m242 -85 c35 -22 42 -45 15 -45 -30 0 -58 -28 -58 -59 0
-14 -3 -36 -6 -49 -6 -22 -8 -22 -25 -6 -11 9 -19 27 -19 38 0 26 36 86 51 86
6 0 9 5 7 12 -3 8 -25 11 -66 9 -49 -2 -62 1 -62 12 0 9 6 17 13 20 27 9 127
-2 150 -18z m252 0 c44 -4 103 -9 130 -11 28 -3 72 -5 99 -4 75 2 186 -20 206
-40 18 -18 16 -19 -52 -34 -39 -9 -114 -23 -167 -31 -53 -9 -120 -20 -150 -25
-99 -18 -101 -17 -179 69 -39 43 -68 81 -65 85 4 3 27 4 52 1 25 -2 82 -7 126
-10z m555 -19 c0 -18 -17 -29 -30 -21 -8 5 -7 11 1 21 15 18 29 18 29 0z
m-710 -81 l34 -35 -31 0 c-22 0 -35 -7 -47 -25 -22 -34 -56 -34 -56 1 0 24 44
94 59 94 4 0 22 -16 41 -35z m-48 -150 c7 -34 -7 -41 -26 -13 -21 29 -20 38 3
38 12 0 20 -9 23 -25z m168 -37 c0 -7 -9 -24 -19 -37 l-19 -24 -7 22 c-7 24 9
51 31 51 8 0 14 -6 14 -12z"/>
</g>
</svg>
