<?xml version="1.0" standalone="no"?>
<!DOCTYPE svg PUBLIC "-//W3C//DTD SVG 20010904//EN"
 "http://www.w3.org/TR/2001/REC-SVG-20010904/DTD/svg10.dtd">
<svg version="1.0" xmlns="http://www.w3.org/2000/svg"
 width="162.000000pt" height="84.000000pt" viewBox="0 0 162.000000 84.000000"
 preserveAspectRatio="xMidYMid meet">
<metadata>
Created by potrace 1.16, written by Peter Selinger 2001-2019
</metadata>
<g transform="translate(0.000000,84.000000) scale(0.100000,-0.100000)"
fill="#000000" stroke="none">
<path d="M623 762 c-14 -9 -63 -126 -63 -149 0 -14 31 -18 46 -5 5 5 52 19
104 31 52 12 103 27 112 32 28 14 95 22 102 11 3 -6 20 -7 38 -3 18 4 105 3
193 -1 254 -13 445 -14 442 -3 -2 6 -78 12 -184 16 -99 3 -184 8 -189 11 -5 3
-112 9 -239 13 -247 7 -258 8 -294 36 -25 20 -48 24 -68 11z m54 -57 c19 -8
45 -15 56 -15 12 0 17 -4 11 -8 -13 -12 -125 -44 -131 -38 -5 5 16 76 23 76 3
0 21 -7 41 -15z"/>
<path d="M540 681 c0 -9 -69 -80 -115 -118 -31 -26 -44 -28 -115 -11 -35 8
-65 24 -93 50 -43 39 -74 55 -85 43 -9 -9 -9 -235 0 -235 4 0 27 20 51 44 41
40 94 65 122 57 6 -2 43 -2 83 -2 l73 1 49 -52 c27 -29 49 -59 50 -65 0 -14
10 -16 34 -7 23 9 20 17 -24 62 -35 34 -40 45 -40 85 0 24 6 60 14 78 26 65
28 79 12 79 -9 0 -16 -4 -16 -9z m-40 -110 c0 -6 -4 -13 -10 -16 -5 -3 -10 1
-10 9 0 9 5 16 10 16 6 0 10 -4 10 -9z m-295 -23 c31 -14 31 -21 0 -42 -33
-22 -35 -21 -35 19 0 39 0 39 35 23z"/>
<path d="M1610 275 c-3 -149 -4 -272 -2 -274 10 -17 12 40 10 275 l-3 269 -5
-270z"/>
<path d="M378 426 c-52 -47 -56 -57 -33 -76 31 -25 16 -33 -59 -28 -53 4 -84
11 -110 28 -35 21 -38 21 -55 6 -10 -9 -21 -36 -24 -59 -4 -23 -9 -54 -13 -69
-8 -35 11 -37 46 -5 59 54 136 74 226 58 51 -9 64 -17 96 -53 21 -24 38 -51
38 -60 0 -25 23 -23 107 10 66 26 79 28 140 20 50 -6 784 -5 801 1 1 1 2 6 2
11 0 7 -122 10 -357 10 -197 0 -371 2 -388 4 -55 7 -195 46 -226 61 -36 19
-45 14 -54 -25 -4 -17 -10 -30 -13 -30 -4 1 -22 21 -40 45 -32 45 -32 45 -22
110 16 99 7 105 -62 41z m14 -48 c-7 -7 -12 -8 -12 -2 0 6 3 14 7 17 3 4 9 5
12 2 2 -3 -1 -11 -7 -17z m-225 -85 c4 -11 -26 -27 -35 -19 -2 3 -2 12 2 21 6
18 27 16 33 -2z m420 -64 c30 -11 24 -19 -24 -33 -18 -6 -23 -3 -23 12 0 16 8
32 16 32 1 0 15 -5 31 -11z"/>
</g>
</svg>
