<?xml version="1.0" standalone="no"?>
<!DOCTYPE svg PUBLIC "-//W3C//DTD SVG 20010904//EN"
 "http://www.w3.org/TR/2001/REC-SVG-20010904/DTD/svg10.dtd">
<svg version="1.0" xmlns="http://www.w3.org/2000/svg"
 width="128.000000pt" height="83.000000pt" viewBox="0 0 128.000000 83.000000"
 preserveAspectRatio="xMidYMid meet">
<metadata>
Created by potrace 1.16, written by Peter Selinger 2001-2019
</metadata>
<g transform="translate(0.000000,83.000000) scale(0.100000,-0.100000)"
fill="#000000" stroke="none">
<path d="M341 756 c-6 -8 -11 -38 -10 -68 3 -84 -11 -94 -81 -58 -51 26 -80
26 -80 0 0 -12 -7 -31 -14 -43 -16 -24 -33 -107 -22 -107 4 0 19 9 34 20 15
11 54 26 87 35 56 14 61 14 73 -2 13 -18 16 -71 6 -97 -11 -30 -139 -15 -217
26 -12 6 -23 5 -31 -1 -15 -13 -40 -107 -32 -120 4 -6 25 -2 54 11 30 13 78
22 134 25 85 6 87 5 93 -18 3 -13 1 -55 -4 -94 -4 -38 -7 -72 -5 -74 7 -8 24
12 24 31 0 12 5 50 11 85 10 54 14 63 33 63 11 0 26 -4 33 -8 19 -12 30 -55
22 -82 -13 -44 -10 -122 4 -118 8 3 13 35 15 100 3 89 4 96 25 102 39 10 49
-18 41 -111 -4 -54 -3 -83 4 -83 14 0 21 33 23 113 2 61 4 68 25 73 41 11 47
-2 39 -92 -6 -73 -5 -84 9 -84 13 0 16 11 16 54 0 80 9 116 30 116 25 0 30
-21 24 -85 -4 -36 -2 -55 5 -55 6 0 12 6 12 13 1 6 3 19 4 27 1 8 3 34 4 58 1
37 4 42 24 42 13 0 27 -3 31 -7 11 -12 228 -15 221 -3 -3 5 -34 10 -68 10 -34
0 -72 3 -84 6 -27 7 -46 59 -41 111 4 38 4 38 52 41 26 2 69 -1 94 -7 26 -5
49 -8 51 -5 12 12 -22 26 -75 30 -125 11 -123 10 -118 52 3 20 13 54 21 75 18
41 18 42 -14 51 -30 9 -43 -23 -43 -105 0 -52 -2 -60 -17 -57 -15 3 -18 14
-18 63 1 33 5 68 9 78 7 16 5 18 -15 15 -23 -3 -24 -7 -24 -73 0 -68 -1 -70
-27 -73 -19 -2 -28 2 -32 16 -6 17 4 82 20 135 5 15 1 18 -18 15 -20 -3 -24
-10 -30 -67 -9 -78 -13 -91 -31 -91 -29 0 -35 23 -22 85 14 66 12 75 -13 75
-14 0 -17 -12 -19 -67 -3 -74 -11 -88 -42 -78 -25 8 -26 28 -6 85 8 23 15 49
15 56 0 14 -46 31 -56 21 -3 -3 -7 -38 -10 -78 -3 -41 -6 -75 -8 -76 -1 -1
-15 1 -32 5 -36 10 -42 43 -19 112 9 27 14 54 10 60 -9 14 -41 12 -54 -4z
m-83 -178 c9 -8 6 -14 -14 -24 -25 -13 -74 -19 -74 -10 0 3 5 17 10 31 9 23
14 26 38 20 15 -4 33 -11 40 -17z m180 -40 c5 -7 11 -40 13 -73 l4 -60 -35 3
c-47 4 -61 25 -53 76 7 48 19 66 43 66 10 0 22 -6 28 -12z m99 -70 c1 -58 -1
-68 -18 -73 -29 -10 -36 0 -43 61 -7 63 4 87 38 82 19 -3 21 -10 23 -70z m80
50 c15 -19 24 -76 17 -105 -5 -20 -12 -24 -38 -21 -30 3 -31 5 -34 57 -2 29
-1 60 2 67 7 17 40 18 53 2z m94 -43 c8 -49 -7 -97 -30 -93 -12 2 -17 16 -18
58 -3 67 2 82 24 78 12 -2 20 -16 24 -43z m79 -30 c0 -36 -4 -66 -10 -66 -43
-6 -45 -4 -48 40 -5 67 4 91 33 91 24 0 25 -2 25 -65z m-651 -44 c12 -8 10
-12 -12 -22 -30 -14 -43 -8 -34 16 7 17 25 19 46 6z"/>
<path d="M1035 740 c-4 -6 -4 -23 0 -39 18 -85 22 -207 7 -240 -4 -9 -6 -109
-4 -223 3 -162 7 -208 17 -208 19 0 25 24 25 99 0 75 31 179 75 255 15 25 24
49 21 54 -3 5 -24 12 -46 16 -40 6 -40 6 -40 51 0 27 8 57 20 77 11 18 20 40
20 49 0 9 11 37 25 63 14 26 25 49 25 52 0 9 -139 3 -145 -6z m89 -27 c-3 -10
-14 -29 -24 -43 l-20 -25 0 37 c0 20 6 39 13 41 24 10 35 7 31 -10z m1 -293
c4 -6 -4 -27 -17 -48 l-23 -37 -6 30 c-3 17 -2 38 3 48 10 19 33 23 43 7z"/>
<path d="M125 580 c3 -5 8 -10 11 -10 2 0 4 5 4 10 0 6 -5 10 -11 10 -5 0 -7
-4 -4 -10z"/>
</g>
</svg>
