<?xml version="1.0" standalone="no"?>
<!DOCTYPE svg PUBLIC "-//W3C//DTD SVG 20010904//EN"
 "http://www.w3.org/TR/2001/REC-SVG-20010904/DTD/svg10.dtd">
<svg version="1.0" xmlns="http://www.w3.org/2000/svg"
 width="75.000000pt" height="72.000000pt" viewBox="0 0 75.000000 72.000000"
 preserveAspectRatio="xMidYMid meet">
<metadata>
Created by potrace 1.16, written by Peter Selinger 2001-2019
</metadata>
<g transform="translate(0.000000,72.000000) scale(0.100000,-0.100000)"
fill="#000000" stroke="none">
<path d="M405 644 c-11 -9 -48 -29 -82 -45 -35 -16 -63 -34 -63 -39 0 -6 6
-21 14 -33 8 -12 17 -37 21 -54 6 -30 5 -33 -19 -33 -14 0 -55 12 -92 26 -43
18 -69 23 -75 17 -12 -12 -24 -116 -16 -137 6 -14 15 -12 64 13 64 32 71 34
125 32 37 -1 38 -2 54 -57 9 -31 14 -68 11 -82 -4 -22 6 -39 51 -92 76 -87
102 -111 113 -105 5 4 3 18 -6 35 -25 48 -19 99 20 165 19 33 42 74 50 91 21
45 39 58 65 44 21 -11 40 -6 40 10 0 5 -11 12 -25 16 -14 3 -25 9 -25 11 0 3
23 37 51 75 28 38 49 72 45 75 -3 4 -42 -30 -85 -76 l-78 -82 -104 3 -104 3
-3 37 c-4 44 39 143 69 158 10 6 19 17 19 25 0 19 -10 18 -35 -1z m-55 -73 c0
-6 -4 -13 -10 -16 -5 -3 -10 1 -10 9 0 9 5 16 10 16 6 0 10 -4 10 -9z m-170
-151 c13 -9 12 -12 -4 -25 -34 -26 -63 -15 -50 19 7 18 32 21 54 6z m330 -30
c12 -7 6 -18 -35 -55 -49 -45 -81 -62 -92 -51 -3 3 -8 28 -11 55 -4 48 -4 50
24 54 54 8 99 7 114 -3z m-6 -114 c-25 -47 -50 -86 -54 -86 -12 0 -30 34 -30
58 0 17 21 37 100 100 14 11 26 19 28 18 1 -2 -18 -42 -44 -90z"/>
</g>
</svg>
