<?xml version="1.0" standalone="no"?>
<!DOCTYPE svg PUBLIC "-//W3C//DTD SVG 20010904//EN"
 "http://www.w3.org/TR/2001/REC-SVG-20010904/DTD/svg10.dtd">
<svg version="1.0" xmlns="http://www.w3.org/2000/svg"
 width="104.000000pt" height="81.000000pt" viewBox="0 0 104.000000 81.000000"
 preserveAspectRatio="xMidYMid meet">
<metadata>
Created by potrace 1.16, written by Peter Selinger 2001-2019
</metadata>
<g transform="translate(0.000000,81.000000) scale(0.100000,-0.100000)"
fill="#000000" stroke="none">
<path d="M622 720 c-24 -28 -61 -60 -83 -73 -45 -26 -49 -39 -14 -55 14 -6 25
-15 25 -20 0 -15 -79 0 -96 19 -26 29 -39 24 -86 -31 -24 -28 -67 -67 -97 -87
l-54 -36 -26 30 c-14 17 -34 43 -44 57 -10 14 -22 26 -27 26 -15 0 -39 -54
-46 -101 -3 -24 -12 -61 -20 -82 -24 -65 -14 -87 24 -50 37 37 108 76 136 76
36 0 93 -59 146 -153 42 -73 62 -79 54 -16 -6 38 -4 46 14 55 29 16 140 22
149 8 10 -17 -56 -65 -98 -72 -22 -4 -39 -11 -39 -15 0 -5 18 -30 40 -55 22
-26 50 -65 61 -87 16 -32 23 -37 34 -28 9 8 11 19 6 33 -5 12 -5 31 -1 42 4
11 6 23 3 27 -2 4 3 21 12 37 8 17 15 42 15 56 0 14 10 34 24 46 13 12 27 33
31 47 l7 27 17 -24 c16 -21 18 -21 31 -6 33 39 92 58 180 57 82 -1 134 11 100
22 -8 2 -43 7 -77 9 -74 6 -115 28 -137 74 -21 45 -44 53 -68 23 -18 -22 -19
-22 -33 -4 -27 38 -36 174 -14 232 18 46 -6 42 -49 -8z m0 -89 c-4 -45 -19
-52 -46 -22 -16 18 -16 20 10 44 15 14 30 24 34 22 3 -2 4 -22 2 -44z m-234
-278 l-3 -68 -28 41 c-24 36 -26 45 -19 85 5 24 17 64 28 88 l19 44 3 -61 c2
-34 2 -92 0 -129z m180 179 c16 -2 22 -8 22 -27 0 -22 -4 -25 -32 -25 -36 0
-95 15 -117 29 -33 21 16 30 127 23z m97 -79 c14 -21 25 -42 25 -48 0 -6 -15
-28 -34 -49 -22 -26 -35 -35 -41 -27 -4 7 1 21 10 31 14 16 15 23 6 34 -15 18
-11 96 4 96 2 0 16 -17 30 -37z m-522 -55 c-39 -25 -42 -23 -31 22 l11 41 23
-22 24 -23 -27 -18z m161 47 c-4 -8 -11 -15 -16 -15 -6 0 -5 6 2 15 7 8 14 15
16 15 2 0 1 -7 -2 -15z m279 -15 c4 -15 0 -20 -16 -21 -56 -4 -147 10 -147 22
0 10 33 16 101 18 49 1 57 -2 62 -19z m196 -24 l22 -24 -30 -10 c-35 -12 -41
-7 -34 31 7 33 13 34 42 3z m-199 -52 c0 -34 -15 -38 -91 -19 -102 25 -93 39
29 41 58 1 62 0 62 -22z m-10 -171 c0 -48 -14 -58 -39 -27 -23 30 -15 54 20
54 14 0 19 -7 19 -27z"/>
<path d="M1033 275 c0 -22 2 -30 4 -17 2 12 2 30 0 40 -3 9 -5 -1 -4 -23z"/>
</g>
</svg>
