<?xml version="1.0" standalone="no"?>
<!DOCTYPE svg PUBLIC "-//W3C//DTD SVG 20010904//EN"
 "http://www.w3.org/TR/2001/REC-SVG-20010904/DTD/svg10.dtd">
<svg version="1.0" xmlns="http://www.w3.org/2000/svg"
 width="119.000000pt" height="82.000000pt" viewBox="0 0 119.000000 82.000000"
 preserveAspectRatio="xMidYMid meet">
<metadata>
Created by potrace 1.16, written by Peter Selinger 2001-2019
</metadata>
<g transform="translate(0.000000,82.000000) scale(0.100000,-0.100000)"
fill="#000000" stroke="none">
<path d="M185 717 c-9 -26 -8 -44 4 -85 6 -23 9 -47 6 -52 -4 -6 -25 -3 -53 8
-26 9 -57 16 -68 14 -22 -3 -26 -16 -41 -131 -6 -51 -7 -50 105 -10 34 12 65
19 68 16 7 -7 30 -205 33 -284 1 -13 7 -23 16 -23 19 0 21 111 4 205 -17 90
-9 111 43 118 24 3 44 4 46 3 11 -12 29 -174 25 -224 -5 -53 -3 -62 10 -62 24
0 29 35 26 167 l-4 118 30 0 c30 0 30 -1 36 -65 4 -36 7 -114 8 -173 1 -82 4
-108 13 -104 10 3 12 43 10 164 -3 129 0 162 11 171 23 20 47 4 48 -32 0 -17
2 -47 3 -66 1 -19 3 -80 4 -134 2 -80 5 -98 15 -88 8 9 14 63 17 165 5 138 7
152 24 155 29 6 35 -8 36 -78 2 -90 21 -250 30 -250 15 0 17 25 12 178 l-5
152 74 1 c158 3 223 -2 236 -19 7 -9 13 -42 13 -73 0 -32 4 -69 10 -84 5 -14
12 -80 14 -148 4 -108 13 -145 29 -120 7 11 16 135 18 250 1 51 6 110 10 130
5 21 20 84 34 141 14 56 25 107 25 112 0 6 -19 10 -43 10 -23 0 -58 4 -77 10
-54 15 -64 -1 -50 -84 7 -36 10 -72 7 -80 -4 -10 -38 -14 -146 -15 -124 -1
-141 1 -149 17 -5 9 -6 26 -1 37 4 11 8 30 8 43 1 19 -4 22 -40 22 -40 0 -41
-1 -35 -27 20 -80 20 -83 -7 -83 -32 0 -41 23 -26 67 14 42 2 58 -36 49 -26
-7 -26 -9 -20 -55 5 -39 3 -49 -10 -54 -22 -9 -28 12 -16 63 13 57 6 72 -33
68 l-31 -3 3 -63 3 -63 -33 3 c-31 3 -33 5 -30 38 1 19 12 50 22 68 25 42 17
56 -28 48 -26 -4 -41 -1 -54 11 -22 20 -147 28 -153 10z m76 -77 c-18 -56 -27
-54 -33 11 -5 44 -5 45 22 41 l27 -4 -16 -48z m80 -93 c-5 -5 -22 -6 -36 -3
-26 7 -27 10 -21 48 4 23 14 54 24 70 l17 29 12 -68 c8 -40 9 -71 4 -76z m769
94 c0 -15 -4 -41 -9 -57 -5 -16 -12 -42 -16 -58 -8 -38 -20 -23 -34 42 -16 76
-14 90 12 95 44 9 47 7 47 -22z m-967 -107 c26 -9 47 -19 47 -23 0 -8 -73 -31
-100 -31 -23 0 -24 7 -10 44 11 31 5 30 63 10z"/>
</g>
</svg>
