<?xml version="1.0" standalone="no"?>
<!DOCTYPE svg PUBLIC "-//W3C//DTD SVG 20010904//EN"
 "http://www.w3.org/TR/2001/REC-SVG-20010904/DTD/svg10.dtd">
<svg version="1.0" xmlns="http://www.w3.org/2000/svg"
 width="67.000000pt" height="112.000000pt" viewBox="0 0 67.000000 112.000000"
 preserveAspectRatio="xMidYMid meet">
<metadata>
Created by potrace 1.16, written by Peter Selinger 2001-2019
</metadata>
<g transform="translate(0.000000,112.000000) scale(0.100000,-0.100000)"
fill="#000000" stroke="none">
<path d="M495 1056 c-29 -20 -165 -154 -165 -162 0 -3 16 -18 35 -35 19 -17
35 -35 35 -39 0 -11 -67 -33 -79 -26 -5 3 -7 15 -4 26 8 31 -12 24 -54 -18
-53 -53 -172 -143 -205 -154 -35 -13 -35 -23 0 -37 15 -6 54 -35 87 -64 l59
-53 -45 -49 c-24 -26 -63 -56 -86 -66 -53 -23 -54 -42 -5 -69 79 -43 118 -69
157 -102 22 -19 67 -52 100 -73 33 -21 72 -49 87 -63 24 -22 28 -23 34 -8 3 9
1 22 -5 30 -24 29 16 193 63 263 15 21 26 43 26 50 0 21 21 26 39 9 16 -15 19
-15 31 -1 11 14 7 23 -33 63 -26 26 -47 56 -47 65 0 10 10 41 22 68 18 44 24
50 44 45 22 -6 23 -4 20 41 -3 38 -8 49 -24 53 -11 3 -41 24 -65 47 -42 40
-45 45 -41 85 10 87 15 106 35 132 11 14 19 34 17 44 -3 17 -5 17 -33 -2z
m-51 -130 c-7 -47 -7 -47 -27 -28 -20 20 -20 20 3 52 12 17 24 29 26 27 2 -2
1 -25 -2 -51z m44 -177 c23 -20 42 -40 42 -46 0 -15 -103 -109 -128 -117 -12
-4 -22 -14 -22 -21 0 -20 -47 -30 -65 -15 -20 17 -19 39 5 75 11 17 29 49 40
73 29 65 59 103 74 95 7 -5 32 -24 54 -44z m-128 14 c-1 -5 -14 -33 -30 -63
l-29 -55 -1 56 c0 31 3 59 7 62 9 9 53 9 53 0z m-160 -68 c0 -20 -23 -105 -29
-105 -4 0 -19 10 -34 22 l-28 22 38 33 c35 30 53 40 53 28z m60 -83 c0 -38 -3
-71 -6 -75 -4 -3 -19 0 -35 8 -27 14 -27 16 -14 43 8 15 19 42 26 60 18 51 29
38 29 -36z m238 -17 c-12 -26 -38 -34 -38 -12 0 17 20 37 37 37 10 0 10 -5 1
-25z m-78 -95 c0 -2 -17 -29 -37 -59 l-38 -54 -7 39 c-4 21 -10 49 -13 62 -5
21 -3 22 45 20 27 -1 50 -5 50 -8z m-139 -40 c10 -34 11 -228 2 -233 -5 -3
-32 17 -61 44 l-53 49 11 40 c15 56 62 131 80 128 8 -2 17 -14 21 -28z m223
11 c16 -18 16 -21 -8 -62 -14 -24 -29 -48 -33 -54 -18 -23 -113 -105 -123
-105 -14 0 -12 30 3 56 6 12 24 44 39 71 33 61 75 113 92 113 7 0 21 -8 30
-19z m-354 -88 c0 -31 -17 -50 -31 -36 -10 10 -9 17 6 33 22 24 25 25 25 3z
m258 -165 c-5 -24 -13 -47 -18 -52 -10 -10 -60 11 -60 25 0 9 68 69 79 69 5 0
5 -19 -1 -42z"/>
</g>
</svg>
