<?xml version="1.0" standalone="no"?>
<!DOCTYPE svg PUBLIC "-//W3C//DTD SVG 20010904//EN"
 "http://www.w3.org/TR/2001/REC-SVG-20010904/DTD/svg10.dtd">
<svg version="1.0" xmlns="http://www.w3.org/2000/svg"
 width="120.000000pt" height="61.000000pt" viewBox="0 0 120.000000 61.000000"
 preserveAspectRatio="xMidYMid meet">
<metadata>
Created by potrace 1.16, written by Peter Selinger 2001-2019
</metadata>
<g transform="translate(0.000000,61.000000) scale(0.100000,-0.100000)"
fill="#000000" stroke="none">
<path d="M633 568 c-47 -38 -87 -64 -129 -86 -43 -22 -60 -38 -66 -62 -4 -21
-19 -30 -48 -30 -14 0 -54 -9 -90 -21 -37 -11 -93 -20 -131 -20 -37 0 -74 -6
-83 -12 -19 -14 -28 -148 -10 -154 6 -2 46 20 90 48 149 98 260 145 289 122 6
-5 30 -30 54 -56 l45 -47 -22 -23 -22 -23 81 -82 c44 -45 85 -82 90 -82 14 0
11 34 -6 66 -8 16 -15 37 -15 46 0 29 39 124 58 140 9 9 62 29 117 46 163 50
169 50 288 39 72 -7 77 -7 77 11 0 17 -11 20 -92 27 -116 8 -209 27 -271 55
-69 31 -80 26 -92 -45 -10 -60 -10 -60 -80 -107 l-70 -46 -17 26 c-10 15 -18
37 -18 49 0 22 62 137 80 148 6 3 10 14 10 24 0 10 7 24 15 31 17 14 20 40 6
40 -5 0 -22 -10 -38 -22z m-55 -95 c-29 -60 -33 -64 -57 -61 -37 4 -37 25 1
48 33 20 63 27 56 13z m273 -59 l54 -17 -40 -18 c-61 -28 -75 -25 -75 16 0 19
1 35 3 35 2 0 28 -7 58 -16z m-628 -100 c6 -6 -96 -84 -109 -84 -3 0 -4 12 -2
27 2 22 12 31 48 45 52 20 55 20 63 12z m422 -84 c-22 -43 -29 -49 -41 -40
-24 21 -16 46 24 72 20 14 38 24 40 23 2 -2 -8 -26 -23 -55z"/>
</g>
</svg>
