<?xml version="1.0" standalone="no"?>
<!DOCTYPE svg PUBLIC "-//W3C//DTD SVG 20010904//EN"
 "http://www.w3.org/TR/2001/REC-SVG-20010904/DTD/svg10.dtd">
<svg version="1.0" xmlns="http://www.w3.org/2000/svg"
 width="82.000000pt" height="65.000000pt" viewBox="0 0 82.000000 65.000000"
 preserveAspectRatio="xMidYMid meet">
<metadata>
Created by potrace 1.16, written by Peter Selinger 2001-2019
</metadata>
<g transform="translate(0.000000,65.000000) scale(0.100000,-0.100000)"
fill="#000000" stroke="none">
<path d="M155 529 c-22 -39 -50 -83 -62 -99 -28 -34 -30 -56 -5 -44 9 4 47 10
85 12 53 3 85 -2 152 -23 47 -15 85 -31 85 -35 0 -10 -153 -83 -220 -105 -80
-25 -82 -30 -60 -95 11 -30 19 -67 20 -82 0 -15 4 -29 9 -32 11 -7 37 23 46
54 22 75 120 181 211 227 l44 22 67 -29 c38 -17 76 -34 85 -40 27 -15 38 -12
38 10 0 15 -16 28 -55 47 -30 15 -55 33 -55 40 0 18 29 42 102 83 62 35 84 60
53 60 -9 0 -39 -15 -68 -33 -124 -79 -150 -90 -195 -78 -50 14 -161 75 -183
101 -9 11 -20 40 -23 65 -4 25 -13 45 -19 45 -7 0 -30 -32 -52 -71z m40 -66
c5 -20 3 -23 -19 -23 -28 0 -32 10 -15 42 12 22 23 16 34 -19z m23 -289 c-26
-39 -32 -44 -40 -29 -13 23 -2 63 20 68 50 13 52 8 20 -39z"/>
</g>
</svg>
