<?xml version="1.0" standalone="no"?>
<!DOCTYPE svg PUBLIC "-//W3C//DTD SVG 20010904//EN"
 "http://www.w3.org/TR/2001/REC-SVG-20010904/DTD/svg10.dtd">
<svg version="1.0" xmlns="http://www.w3.org/2000/svg"
 width="82.000000pt" height="100.000000pt" viewBox="0 0 82.000000 100.000000"
 preserveAspectRatio="xMidYMid meet">
<metadata>
Created by potrace 1.16, written by Peter Selinger 2001-2019
</metadata>
<g transform="translate(0.000000,100.000000) scale(0.100000,-0.100000)"
fill="#000000" stroke="none">
<path d="M411 889 c-34 -39 -69 -83 -78 -96 -9 -14 -27 -29 -40 -34 -23 -8
-23 -11 -18 -111 13 -247 14 -278 11 -278 -7 0 -94 118 -116 157 -28 51 -23
84 29 188 20 41 34 75 29 75 -9 0 -68 -63 -82 -87 -6 -11 -5 -14 4 -8 13 8 9
-11 -17 -73 -10 -23 -19 -32 -29 -28 -9 3 -18 6 -20 6 -14 0 0 35 21 52 14 11
25 24 25 30 0 6 -20 -8 -45 -31 -24 -22 -49 -41 -55 -41 -22 0 -8 -20 34 -49
24 -17 57 -49 74 -71 30 -42 97 -121 144 -171 17 -18 28 -43 30 -66 2 -20 9
-38 17 -41 15 -5 14 3 -9 185 -13 95 -12 105 8 175 12 40 26 102 33 138 16 88
17 92 31 88 27 -9 32 -72 37 -411 2 -147 2 -148 -27 -195 -41 -67 -72 -141
-62 -147 8 -5 23 18 70 109 14 27 64 87 111 135 71 71 227 256 252 297 11 19
-81 84 -120 84 -39 0 -93 38 -124 87 -11 17 -26 68 -34 114 -8 45 -16 84 -19
86 -2 2 -31 -28 -65 -68z m45 -26 c3 -16 7 -34 10 -40 5 -18 -7 -16 -33 6 -26
22 -28 32 -11 49 18 18 27 15 34 -15z m-129 -173 c-9 -104 -26 -124 -27 -29 0
66 9 99 28 99 3 0 2 -31 -1 -70z m239 -27 c45 -33 63 -52 59 -63 -3 -8 -41
-76 -83 -150 l-77 -135 -8 105 c-9 130 12 290 39 290 4 0 35 -21 70 -47z m165
-69 c8 -10 10 -20 3 -28 -102 -139 -221 -273 -231 -262 -10 10 69 155 104 191
18 18 35 45 39 59 6 26 38 56 60 56 6 0 17 -7 25 -16z"/>
</g>
</svg>
