<?xml version="1.0" standalone="no"?>
<!DOCTYPE svg PUBLIC "-//W3C//DTD SVG 20010904//EN"
 "http://www.w3.org/TR/2001/REC-SVG-20010904/DTD/svg10.dtd">
<svg version="1.0" xmlns="http://www.w3.org/2000/svg"
 width="67.000000pt" height="60.000000pt" viewBox="0 0 67.000000 60.000000"
 preserveAspectRatio="xMidYMid meet">
<metadata>
Created by potrace 1.16, written by Peter Selinger 2001-2019
</metadata>
<g transform="translate(0.000000,60.000000) scale(0.100000,-0.100000)"
fill="#000000" stroke="none">
<path d="M270 558 c0 -7 7 -34 14 -60 8 -25 12 -49 9 -52 -13 -12 -52 -5 -108
19 -65 29 -95 26 -95 -11 0 -14 -7 -41 -15 -61 -8 -20 -14 -38 -12 -40 2 -2
24 5 48 16 32 15 37 19 19 18 -20 -2 -24 2 -22 18 6 32 19 40 49 29 17 -6 27
-16 25 -26 -2 -14 3 -15 35 -6 26 6 48 6 66 -1 23 -9 27 -16 27 -52 l0 -42
-67 7 c-38 4 -85 12 -107 18 -37 12 -39 11 -67 -23 -35 -42 -38 -63 -7 -56 13
3 41 10 63 15 22 6 74 13 116 16 l76 7 11 -70 c7 -38 12 -97 12 -130 0 -34 4
-61 10 -61 14 0 16 98 5 207 -3 23 -1 44 3 47 5 3 77 6 160 7 84 1 152 6 152
10 0 10 -42 12 -176 10 -111 -2 -148 9 -139 42 13 43 30 47 161 41 70 -3 124
-1 128 4 6 10 -93 22 -180 22 -27 0 -58 6 -68 13 -17 13 -18 17 -3 67 9 30 15
55 14 56 -1 1 -32 5 -69 9 -54 5 -68 4 -68 -7z m100 -28 c0 -18 -25 -90 -31
-90 -8 0 -27 88 -21 95 10 9 52 5 52 -5z m-250 -240 c0 -9 -42 -22 -48 -15 -3
3 1 11 7 19 12 14 41 12 41 -4z"/>
</g>
</svg>
