<?xml version="1.0" standalone="no"?>
<!DOCTYPE svg PUBLIC "-//W3C//DTD SVG 20010904//EN"
 "http://www.w3.org/TR/2001/REC-SVG-20010904/DTD/svg10.dtd">
<svg version="1.0" xmlns="http://www.w3.org/2000/svg"
 width="89.000000pt" height="84.000000pt" viewBox="0 0 89.000000 84.000000"
 preserveAspectRatio="xMidYMid meet">
<metadata>
Created by potrace 1.16, written by Peter Selinger 2001-2019
</metadata>
<g transform="translate(0.000000,84.000000) scale(0.100000,-0.100000)"
fill="#000000" stroke="none">
<path d="M172 731 c-12 -26 -39 -72 -62 -102 -47 -62 -51 -86 -15 -94 14 -3
37 -8 53 -12 15 -3 32 -5 38 -5 6 1 41 -12 79 -29 37 -16 70 -27 73 -24 4 4
-13 23 -37 43 -24 20 -50 50 -58 66 -8 17 -21 44 -30 60 -14 27 -14 34 0 79 9
28 14 54 11 59 -13 20 -33 4 -52 -41z m8 -147 c0 -9 -11 -14 -30 -14 -34 0
-37 6 -13 32 12 14 19 15 30 7 7 -6 13 -18 13 -25z"/>
<path d="M325 738 c-3 -13 -1 -61 5 -108 16 -131 31 -293 27 -297 -8 -7 -100
40 -132 68 -18 17 -39 46 -45 65 -9 28 -17 34 -33 32 -12 -2 -23 -12 -26 -23
-2 -10 -19 -39 -37 -64 -52 -67 -49 -71 58 -68 83 1 99 -1 155 -27 39 -18 65
-36 69 -50 4 -11 7 -63 7 -113 -1 -51 3 -95 8 -99 5 -3 16 10 24 30 12 28 14
63 9 168 -7 168 -11 163 147 182 63 8 128 19 144 26 18 7 52 9 86 6 45 -5 58
-3 63 9 3 8 2 15 -2 15 -123 6 -256 22 -291 36 -35 14 -50 15 -74 6 l-30 -11
6 39 c3 21 19 65 35 98 17 33 28 63 25 66 -4 3 -28 6 -55 6 -27 0 -65 7 -85
15 -47 20 -52 19 -58 -7z m138 -45 c5 -10 -62 -157 -69 -151 -12 13 -23 122
-13 139 10 19 73 28 82 12z m107 -216 c23 -9 22 -11 -24 -18 -59 -9 -70 -5
-55 22 11 21 21 20 79 -4z m-417 -75 c21 -23 13 -32 -25 -32 -30 0 -37 17 -16
38 16 16 22 15 41 -6z"/>
</g>
</svg>
