<?xml version="1.0" standalone="no"?>
<!DOCTYPE svg PUBLIC "-//W3C//DTD SVG 20010904//EN"
 "http://www.w3.org/TR/2001/REC-SVG-20010904/DTD/svg10.dtd">
<svg version="1.0" xmlns="http://www.w3.org/2000/svg"
 width="162.000000pt" height="82.000000pt" viewBox="0 0 162.000000 82.000000"
 preserveAspectRatio="xMidYMid meet">
<metadata>
Created by potrace 1.16, written by Peter Selinger 2001-2019
</metadata>
<g transform="translate(0.000000,82.000000) scale(0.100000,-0.100000)"
fill="#000000" stroke="none">
<path d="M686 792 c-3 -5 -14 -34 -26 -65 -14 -38 -31 -64 -53 -78 -18 -12
-43 -33 -56 -47 -24 -25 -25 -25 -175 -19 -104 3 -167 11 -203 23 -41 13 -56
14 -67 5 -22 -19 -36 -91 -26 -135 5 -22 10 -88 11 -148 1 -59 6 -113 10 -119
13 -21 29 1 29 40 0 66 56 85 58 21 0 -18 3 -34 6 -37 12 -12 26 11 26 42 0
46 9 65 31 65 16 0 19 -8 19 -55 0 -40 4 -55 14 -55 9 0 15 16 19 46 5 51 18
70 41 61 11 -4 16 -19 16 -47 0 -39 18 -58 22 -22 0 9 2 22 3 27 2 6 3 18 4
28 1 12 9 17 30 17 32 0 41 -14 41 -65 0 -19 5 -37 11 -41 16 -9 29 16 23 43
-8 29 4 63 21 63 29 0 45 -31 45 -86 0 -46 -3 -54 -19 -54 -25 0 -38 -18 -46
-65 -4 -22 -12 -48 -17 -59 -17 -32 6 -41 45 -19 71 42 156 60 270 55 46 -2
47 -3 47 -35 0 -19 3 -37 7 -40 11 -12 33 15 33 41 0 14 7 34 16 44 16 16 16
18 0 24 -11 4 -16 18 -16 44 0 68 13 160 22 160 5 0 28 13 51 29 92 62 125 73
427 141 52 12 106 25 120 30 14 5 45 14 69 20 66 17 37 33 -66 37 -103 3 -151
8 -333 34 -210 30 -322 64 -414 126 -50 34 -62 38 -70 25z m68 -83 c20 -12 34
-24 31 -29 -6 -10 -83 -22 -95 -15 -7 5 16 65 25 65 2 0 20 -9 39 -21z m252
-79 c147 -23 377 -49 444 -51 l45 0 -45 -15 c-83 -26 -314 -74 -410 -85 -52
-6 -105 -15 -117 -19 -32 -13 -34 -1 -13 71 28 91 27 100 -11 89 -20 -6 -39
-6 -50 1 -19 10 -24 3 -20 -29 2 -10 -10 -11 -51 -6 -74 10 -146 30 -128 37
90 30 199 33 356 7z m-116 -49 c0 -6 -4 -13 -10 -16 -5 -3 -10 1 -10 9 0 9 5
16 10 16 6 0 10 -4 10 -9z m-710 -20 c0 -10 -24 -21 -46 -21 -8 0 -11 6 -8 15
6 16 54 21 54 6z m623 -7 c18 -4 27 -12 27 -25 0 -23 -7 -23 -92 -3 -37 9 -74
14 -83 10 -22 -8 -13 -32 9 -28 10 2 48 -4 84 -13 92 -22 97 -24 86 -35 -6 -6
-39 -4 -89 5 -96 19 -110 15 -102 -25 4 -16 2 -32 -3 -35 -6 -3 -10 -16 -10
-28 0 -21 4 -22 102 -22 99 0 103 -1 106 -22 3 -20 -1 -23 -30 -23 -19 0 -58
6 -88 14 -59 15 -82 10 -100 -24 -10 -19 -7 -20 94 -19 111 1 129 -3 124 -29
-2 -13 -14 -16 -58 -13 -30 1 -72 7 -93 13 -34 10 -40 9 -62 -12 l-25 -23 -2
64 c-4 125 13 252 36 266 30 19 103 22 169 7z m-259 -2 c3 -5 7 -43 10 -85 4
-60 1 -80 -10 -92 -18 -17 -24 -18 -42 -6 -11 7 -9 22 12 82 14 40 22 77 18
81 -12 12 -82 -14 -83 -31 -1 -9 -2 -41 -3 -71 -1 -52 -2 -55 -26 -55 -22 0
-25 5 -28 39 -2 21 2 52 9 68 15 36 6 45 -31 31 -18 -7 -30 -7 -32 -1 -2 5
-22 6 -46 2 l-43 -7 5 -58 c4 -46 2 -59 -9 -59 -16 0 -23 35 -14 71 9 36 -5
58 -28 43 -13 -8 -18 -24 -18 -55 0 -35 -3 -44 -17 -44 -10 0 -19 2 -20 5 -7
15 27 120 41 126 9 4 86 10 171 14 85 4 160 7 167 8 6 1 14 -2 17 -6z m-194
-111 c6 -55 3 -68 -17 -65 -7 1 -18 2 -24 3 -11 1 -5 73 8 108 11 28 28 5 33
-46z m474 -21 c5 -5 6 -16 3 -24 -6 -16 -20 -16 -102 -1 -57 11 -63 17 -30 32
31 13 112 8 129 -7z m152 5 c-23 -17 -36 -19 -36 -6 0 11 18 19 40 20 11 0 10
-3 -4 -14z m-808 -73 c3 -9 -2 -13 -14 -10 -9 1 -19 9 -22 16 -3 9 2 13 14 10
9 -1 19 -9 22 -16z m655 -151 c19 -8 23 -15 20 -34 -5 -25 -6 -25 -82 -21
-159 10 -186 24 -89 47 76 18 119 20 151 8z m-249 -80 c3 -5 -1 -12 -10 -15
-22 -9 -24 -8 -24 9 0 16 25 21 34 6z"/>
</g>
</svg>
