<?xml version="1.0" standalone="no"?>
<!DOCTYPE svg PUBLIC "-//W3C//DTD SVG 20010904//EN"
 "http://www.w3.org/TR/2001/REC-SVG-20010904/DTD/svg10.dtd">
<svg version="1.0" xmlns="http://www.w3.org/2000/svg"
 width="159.000000pt" height="86.000000pt" viewBox="0 0 159.000000 86.000000"
 preserveAspectRatio="xMidYMid meet">
<metadata>
Created by potrace 1.16, written by Peter Selinger 2001-2019
</metadata>
<g transform="translate(0.000000,86.000000) scale(0.100000,-0.100000)"
fill="#000000" stroke="none">
<path d="M675 781 c-14 -38 -35 -77 -45 -86 -20 -18 -27 -45 -12 -45 4 0 13 5
19 11 15 15 139 15 176 0 16 -6 51 -11 79 -11 44 0 129 -16 308 -60 19 -4 73
-15 120 -24 136 -26 131 -31 -70 -67 -81 -15 -115 -17 -320 -25 -191 -6 -198
-8 -179 -30 11 -14 29 -16 106 -11 54 3 93 2 93 -4 0 -5 -8 -9 -17 -9 -10 0
-49 -11 -88 -25 -38 -13 -73 -25 -77 -25 -5 0 -8 14 -8 31 0 24 -4 30 -15 25
-11 -4 -15 1 -15 17 0 23 32 149 45 180 6 15 1 17 -43 17 -53 0 -84 -19 -35
-21 15 -1 31 -1 36 0 10 1 9 -21 -2 -37 -6 -10 -10 -9 -14 7 -5 22 -31 28 -43
10 -3 -6 -1 -16 5 -22 14 -14 14 -44 1 -52 -19 -12 -94 20 -127 53 -19 19 -40
31 -47 29 -17 -7 -31 -106 -17 -120 8 -8 15 -5 25 8 12 17 19 17 81 7 38 -6
72 -9 76 -7 8 6 19 -31 19 -69 l0 -28 -60 4 c-48 3 -66 10 -88 31 -38 37 -52
34 -54 -10 0 -21 -2 -58 -3 -83 -1 -25 -6 -62 -10 -82 -8 -43 1 -48 39 -23 13
9 56 19 94 22 69 6 71 5 77 -19 4 -14 5 -42 3 -64 -2 -32 -6 -39 -23 -36 -11
2 -51 4 -90 6 -44 2 -88 12 -118 26 -45 20 -50 20 -61 5 -10 -13 -16 -14 -37
-5 -21 10 -24 16 -21 53 3 23 9 48 14 54 13 16 3 43 -16 43 -20 0 -27 -13 -31
-61 -4 -48 -7 -52 -28 -43 -16 6 -17 54 -2 102 7 21 5 23 -16 20 -21 -3 -25
-10 -29 -53 l-5 -49 -20 29 c-23 36 -21 52 12 86 30 33 68 41 148 33 l61 -6
-4 -64 c-2 -35 -1 -72 3 -82 14 -35 26 32 31 177 2 81 11 170 20 203 8 32 12
62 10 67 -3 4 -47 11 -98 15 -90 6 -182 29 -266 67 -49 22 -72 24 -73 7 0 -7
-2 -69 -4 -138 -2 -69 -7 -149 -10 -177 -3 -31 -2 -53 3 -53 15 0 42 47 42 71
0 12 9 53 20 90 15 50 26 69 38 70 9 0 26 2 37 4 11 3 72 7 135 11 l115 6 -1
-118 c-2 -146 -1 -139 -18 -124 -8 6 -34 13 -58 15 -39 3 -43 5 -46 32 -2 23
6 39 38 72 22 23 39 45 36 49 -2 4 -30 7 -63 7 -65 -1 -60 8 -47 -92 6 -51 5
-53 -17 -53 -13 0 -35 3 -47 7 -20 5 -23 11 -18 34 3 16 17 46 30 68 14 21 22
42 19 45 -4 3 -21 6 -39 6 -46 0 -62 -27 -56 -90 3 -33 1 -50 -7 -50 -6 0 -11
9 -11 20 0 35 -14 21 -38 -38 -39 -96 -40 -101 -6 -72 31 27 69 50 81 50 15 0
0 -162 -22 -231 -7 -20 9 -27 20 -9 3 6 22 10 41 10 32 0 34 -2 34 -36 0 -45
24 -42 28 4 3 28 6 31 23 22 11 -6 19 -21 19 -35 0 -31 20 -43 27 -15 4 13 11
19 20 16 8 -3 20 -6 27 -6 13 0 10 -33 -10 -112 -8 -35 8 -36 26 -2 16 29 82
67 103 58 8 -3 22 2 30 11 23 22 104 26 144 7 18 -9 35 -14 37 -11 7 7 15 82
16 145 0 60 1 62 38 86 20 13 62 33 92 43 30 9 65 21 78 26 13 5 32 9 43 9 11
0 30 7 44 16 13 8 59 19 102 24 43 4 107 17 142 29 35 12 87 21 116 21 35 0
57 5 65 15 7 8 27 15 46 15 43 0 51 15 16 29 -30 12 -144 40 -267 66 -94 20
-186 49 -349 113 -94 36 -120 51 -129 71 -31 70 -50 66 -82 -18z m59 -16 c3
-8 26 -28 51 -44 l45 -28 -73 5 c-39 2 -73 6 -75 7 -5 4 31 75 39 75 4 0 9 -7
13 -15z m-588 -51 c38 -14 73 -29 77 -33 5 -5 -25 -11 -65 -14 -40 -3 -74 -4
-74 -3 -4 5 -14 76 -11 76 3 0 36 -12 73 -26z m34 -160 c0 -8 -4 -12 -10 -9
-5 3 -10 10 -10 16 0 5 5 9 10 9 6 0 10 -7 10 -16z m502 -224 c-1 -19 -6 -38
-10 -41 -8 -8 -107 8 -132 21 -45 22 21 60 100 57 45 -2 45 -2 42 -37z m-477
-112 c6 -4 0 -8 -12 -8 -16 0 -21 4 -16 15 3 9 8 12 12 8 3 -4 11 -11 16 -15z
m250 -90 l26 -12 -32 -13 c-17 -7 -33 -13 -35 -13 -7 0 -4 36 3 43 8 9 8 9 38
-5z"/>
</g>
</svg>
