<?xml version="1.0" standalone="no"?>
<!DOCTYPE svg PUBLIC "-//W3C//DTD SVG 20010904//EN"
 "http://www.w3.org/TR/2001/REC-SVG-20010904/DTD/svg10.dtd">
<svg version="1.0" xmlns="http://www.w3.org/2000/svg"
 width="77.000000pt" height="70.000000pt" viewBox="0 0 77.000000 70.000000"
 preserveAspectRatio="xMidYMid meet">
<metadata>
Created by potrace 1.16, written by Peter Selinger 2001-2019
</metadata>
<g transform="translate(0.000000,70.000000) scale(0.100000,-0.100000)"
fill="#000000" stroke="none">
<path d="M619 644 c-23 -25 -27 -26 -99 -20 -41 3 -94 13 -117 22 -52 20 -69
10 -79 -45 -4 -20 -14 -53 -23 -73 -13 -31 -21 -38 -43 -38 -51 0 -126 21
-144 41 -32 35 -49 24 -60 -38 -8 -42 -8 -60 0 -65 7 -5 12 -70 13 -190 1
-101 3 -186 3 -190 0 -5 4 -8 9 -8 5 0 12 42 16 94 l7 94 36 5 c19 4 39 4 44
1 4 -3 8 -45 8 -95 0 -53 4 -89 10 -89 6 0 10 1 10 3 1 1 3 38 6 82 6 102 8
105 43 105 39 0 43 -8 31 -71 -6 -29 -7 -56 -2 -61 4 -4 21 4 37 17 23 19 26
24 13 25 -19 0 -25 25 -9 34 15 10 43 -6 37 -20 -4 -10 2 -14 18 -14 13 0 27
-7 30 -17 6 -15 8 -14 20 2 10 13 30 20 74 23 82 6 110 -2 118 -34 4 -13 11
-23 17 -21 15 5 27 63 15 75 -31 31 3 297 53 413 27 62 21 79 -29 79 -29 0
-45 -7 -63 -26z m71 -16 c-1 -7 -12 -38 -25 -68 -24 -54 -24 -54 -25 -21 0 45
20 101 37 101 7 0 13 -6 13 -12z m-288 -14 l32 -16 -35 -19 c-43 -23 -49 -23
-49 0 0 21 10 51 17 51 2 0 18 -7 35 -16z m206 -219 c0 -112 -3 -207 -8 -210
-5 -3 -41 -2 -80 1 -50 5 -74 12 -78 22 -6 16 12 108 48 251 22 92 21 111 -7
106 -78 -16 -88 -16 -73 -1 21 20 76 34 141 35 l56 1 1 -205z m-221 151 c-3
-8 1 -17 9 -20 8 -3 14 -15 14 -26 0 -16 -6 -20 -34 -20 -52 0 -68 8 -56 31 6
10 23 25 38 33 34 19 35 19 29 2z m82 -23 c0 -10 -6 -36 -14 -58 l-13 -40 -1
58 c-1 44 2 57 14 57 8 0 15 -8 14 -17z m-61 -62 c2 -1 2 -20 0 -43 l-3 -43
-75 0 c-75 0 -75 0 -78 28 -3 24 -7 28 -30 25 -16 -2 -31 -12 -37 -25 -5 -12
-23 -25 -40 -29 l-30 -8 33 -3 c29 -4 32 -8 34 -39 0 -19 1 -40 2 -46 1 -9
-13 -13 -39 -13 l-40 0 2 76 c2 42 7 89 13 104 l10 27 138 -5 c75 -3 138 -6
140 -6z m3 -133 c2 -37 -2 -112 -6 -116 -7 -7 -65 9 -65 18 0 5 8 10 18 13 9
2 -16 7 -55 12 -78 8 -83 13 -67 73 6 21 12 22 90 22 80 0 84 -1 85 -22z"/>
</g>
</svg>
