<?xml version="1.0" standalone="no"?>
<!DOCTYPE svg PUBLIC "-//W3C//DTD SVG 20010904//EN"
 "http://www.w3.org/TR/2001/REC-SVG-20010904/DTD/svg10.dtd">
<svg version="1.0" xmlns="http://www.w3.org/2000/svg"
 width="117.000000pt" height="90.000000pt" viewBox="0 0 117.000000 90.000000"
 preserveAspectRatio="xMidYMid meet">
<metadata>
Created by potrace 1.16, written by Peter Selinger 2001-2019
</metadata>
<g transform="translate(0.000000,90.000000) scale(0.100000,-0.100000)"
fill="#000000" stroke="none">
<path d="M197 823 c-12 -3 -16 -10 -12 -21 8 -21 -25 -82 -45 -82 -9 0 -22 6
-29 13 -36 35 -55 -104 -30 -213 6 -25 12 -123 13 -218 2 -95 6 -175 9 -178
23 -23 36 51 38 222 2 109 25 232 42 215 5 -5 11 -96 14 -208 4 -218 7 -243
27 -243 11 0 15 40 18 213 3 177 6 218 21 246 9 19 17 38 17 43 0 17 -41 7
-48 -11 -6 -17 -9 -18 -27 -5 -15 12 -17 18 -9 32 7 10 15 32 18 50 6 25 13
32 39 37 18 3 52 9 78 14 93 16 209 18 454 8 176 -7 315 -2 315 13 0 4 -39 8
-87 8 -84 1 -442 18 -548 27 -59 4 -101 12 -175 31 -56 14 -62 15 -93 7z m93
-59 c0 -2 -12 -4 -27 -4 -21 0 -24 3 -14 9 13 8 41 5 41 -5z m-125 -121 c-4
-21 -13 -49 -20 -63 l-13 -25 -7 37 c-10 53 1 88 26 88 19 0 20 -4 14 -37z"/>
<path d="M236 665 c-11 -8 -17 -18 -13 -21 10 -10 923 -1 934 10 3 3 3 9 -1
13 -3 4 -208 8 -454 10 -388 3 -450 2 -466 -12z"/>
<path d="M334 591 c-27 -12 -38 -28 -24 -36 19 -12 637 -3 763 10 139 15 57
22 -245 21 -172 0 -349 3 -393 7 -46 4 -89 3 -101 -2z"/>
<path d="M282 527 c-7 -9 -8 -51 -2 -137 5 -69 10 -166 10 -217 0 -91 9 -115
33 -94 9 7 12 54 10 182 -3 157 -2 175 17 211 19 36 19 39 3 44 -10 3 -26 10
-35 15 -23 12 -23 11 -36 -4z"/>
<path d="M700 520 c-264 -5 -320 -11 -320 -38 0 -8 346 -6 470 3 47 4 123 8
169 11 79 4 100 8 90 18 -10 9 -151 12 -409 6z"/>
<path d="M400 451 c-28 -8 -28 -6 -11 -126 6 -44 14 -122 19 -174 5 -66 11
-96 21 -99 11 -4 13 24 10 154 l-4 158 27 7 c15 4 94 10 175 13 132 6 273 14
358 21 17 2 37 3 44 4 10 1 12 4 5 11 -6 6 -119 11 -292 11 -155 1 -279 6
-276 10 3 5 -1 9 -10 9 -8 0 -20 2 -28 4 -7 2 -24 1 -38 -3z"/>
</g>
</svg>
