<?xml version="1.0" standalone="no"?>
<!DOCTYPE svg PUBLIC "-//W3C//DTD SVG 20010904//EN"
 "http://www.w3.org/TR/2001/REC-SVG-20010904/DTD/svg10.dtd">
<svg version="1.0" xmlns="http://www.w3.org/2000/svg"
 width="112.000000pt" height="85.000000pt" viewBox="0 0 112.000000 85.000000"
 preserveAspectRatio="xMidYMid meet">
<metadata>
Created by potrace 1.16, written by Peter Selinger 2001-2019
</metadata>
<g transform="translate(0.000000,85.000000) scale(0.100000,-0.100000)"
fill="#000000" stroke="none">
<path d="M415 791 l-40 -6 4 -77 c3 -80 1 -84 -39 -78 -24 3 -24 6 1 75 29 84
22 93 -58 74 l-58 -14 4 -62 3 -63 -35 0 c-19 0 -53 7 -76 15 -48 17 -74 11
-66 -16 3 -10 1 -37 -6 -61 -25 -93 -20 -96 75 -48 32 17 74 30 92 30 30 0 34
-3 35 -27 1 -16 3 -39 4 -53 1 -14 3 -69 4 -122 1 -78 4 -98 15 -98 22 0 28
30 26 143 -1 133 -1 158 6 168 8 14 74 11 79 -3 4 -16 17 -220 15 -265 -1 -39
15 -51 30 -22 12 21 14 91 5 214 -6 81 -2 85 75 85 l55 -1 -43 -37 c-41 -35
-46 -52 -15 -52 8 0 35 -16 60 -35 25 -19 51 -35 57 -36 12 0 57 -34 153 -112
32 -26 72 -55 90 -63 50 -24 65 -55 60 -125 -3 -51 -2 -59 12 -57 13 3 17 25
23 126 9 141 47 339 74 380 10 15 17 31 16 36 -2 5 2 23 8 39 13 38 2 47 -60
46 -75 -2 -95 -11 -95 -44 0 -17 -6 -33 -15 -36 -8 -3 -80 -3 -160 2 -80 4
-171 8 -203 8 -50 1 -59 4 -66 24 -6 14 -4 31 6 50 15 31 14 99 -2 102 -5 1
-28 -1 -50 -4z m24 -43 c0 -7 -4 -22 -8 -32 -10 -26 -25 -3 -16 24 7 22 25 28
24 8z m-139 -17 c0 -26 -10 -51 -20 -51 -7 0 -8 20 -1 63 2 16 21 6 21 -12z
m720 -91 c0 -25 -22 -40 -48 -33 -29 7 -29 41 1 52 29 11 47 3 47 -19z m-861
-45 c9 -2 18 -4 21 -4 3 -1 -12 -10 -33 -21 -60 -32 -81 -24 -56 21 7 14 16
18 31 13 11 -3 28 -8 37 -9z m755 -57 c9 -75 15 -248 10 -263 -9 -22 -52 4
-125 75 -34 33 -64 60 -66 60 -3 0 -28 17 -54 37 -47 35 -87 103 -74 124 4 5
73 9 155 9 l149 0 5 -42z m76 30 c-1 -7 -7 -24 -15 -38 l-14 -25 -1 38 c0 26
4 37 15 37 8 0 15 -6 15 -12z"/>
</g>
</svg>
