<?xml version="1.0" standalone="no"?>
<!DOCTYPE svg PUBLIC "-//W3C//DTD SVG 20010904//EN"
 "http://www.w3.org/TR/2001/REC-SVG-20010904/DTD/svg10.dtd">
<svg version="1.0" xmlns="http://www.w3.org/2000/svg"
 width="66.000000pt" height="94.000000pt" viewBox="0 0 66.000000 94.000000"
 preserveAspectRatio="xMidYMid meet">
<metadata>
Created by potrace 1.16, written by Peter Selinger 2001-2019
</metadata>
<g transform="translate(0.000000,94.000000) scale(0.100000,-0.100000)"
fill="#000000" stroke="none">
<path d="M372 837 c-44 -59 -63 -67 -158 -67 l-53 0 -3 -62 -3 -62 -37 -9
c-33 -8 -54 -27 -29 -27 16 0 118 -107 155 -163 41 -61 42 -77 23 -208 -9 -56
-21 -96 -35 -116 -12 -17 -22 -37 -22 -44 0 -7 -12 -26 -27 -41 -19 -19 -22
-28 -12 -28 8 0 31 16 50 36 47 49 182 112 264 123 l50 7 -47 21 -47 21 43 84
c23 45 59 110 79 142 40 64 52 94 43 103 -3 3 -28 8 -55 11 -43 4 -56 10 -89
46 -82 88 -82 196 1 196 25 0 45 16 34 26 -3 3 -21 1 -40 -4 -43 -12 -49 -8
-36 26 19 49 -8 43 -49 -11z m-12 -102 c0 -14 -4 -25 -10 -25 -11 0 -14 33 -3
43 11 11 13 8 13 -18z m-96 -9 c-4 -11 -45 -36 -59 -36 -8 0 -6 36 2 43 3 4
19 7 34 7 20 0 27 -4 23 -14z m64 -54 c23 -15 65 -53 93 -85 l52 -58 -10 -67
c-10 -62 -48 -217 -59 -233 -5 -9 -61 9 -69 21 -6 9 20 68 51 120 12 19 25 50
29 68 7 35 5 37 -80 33 -37 -2 -44 3 -88 54 -37 42 -48 61 -43 78 7 29 57 96
72 97 6 0 30 -12 52 -28z m262 -141 c0 -5 -7 -14 -15 -21 -8 -7 -15 -17 -15
-22 0 -8 -38 -65 -63 -93 -18 -21 5 105 24 130 10 13 69 18 69 6z m-216 -89
c7 -11 -43 -117 -51 -109 -5 6 13 89 24 110 5 9 21 9 27 -1z m-16 -248 c30 -8
28 -20 -5 -32 -16 -5 -36 -13 -47 -17 -17 -8 -17 -6 -2 24 18 33 19 34 54 25z"/>
<path d="M1 24 c0 -11 3 -14 6 -6 3 7 2 16 -1 19 -3 4 -6 -2 -5 -13z"/>
</g>
</svg>
