<?xml version="1.0" standalone="no"?>
<!DOCTYPE svg PUBLIC "-//W3C//DTD SVG 20010904//EN"
 "http://www.w3.org/TR/2001/REC-SVG-20010904/DTD/svg10.dtd">
<svg version="1.0" xmlns="http://www.w3.org/2000/svg"
 width="146.000000pt" height="85.000000pt" viewBox="0 0 146.000000 85.000000"
 preserveAspectRatio="xMidYMid meet">
<metadata>
Created by potrace 1.16, written by Peter Selinger 2001-2019
</metadata>
<g transform="translate(0.000000,85.000000) scale(0.100000,-0.100000)"
fill="#000000" stroke="none">
<path d="M142 845 c2 -3 241 -8 529 -11 288 -3 531 -6 539 -6 70 -5 250 4 250
12 0 7 -227 10 -662 10 -364 0 -659 -2 -656 -5z"/>
<path d="M590 778 c-47 -13 -65 -28 -48 -39 23 -15 -5 -25 -98 -38 -126 -17
-174 -20 -174 -10 0 5 -17 13 -39 19 -21 5 -44 17 -51 25 -13 16 -60 21 -60 7
0 -4 5 -13 11 -19 7 -7 11 -41 10 -85 l-2 -73 30 29 c16 15 34 25 40 22 13 -8
16 -236 3 -236 -4 0 -23 16 -42 35 -38 39 -60 45 -60 15 0 -23 -20 -70 -30
-70 -4 0 -13 -20 -19 -44 -6 -24 -13 -51 -17 -60 -8 -20 21 -22 33 -2 6 11
103 46 127 46 3 0 6 -15 6 -34 0 -44 9 -66 26 -66 8 0 14 16 16 47 3 54 25 68
58 38 10 -9 24 -14 30 -10 6 4 19 0 29 -9 10 -9 25 -14 35 -10 9 3 28 -2 44
-12 15 -10 39 -17 54 -15 54 5 66 -11 73 -103 6 -67 10 -83 21 -79 12 4 14 32
13 140 0 74 3 139 8 144 11 11 56 17 155 23 37 3 71 7 76 10 5 3 67 6 138 6
71 1 148 6 170 12 78 19 80 13 87 -178 5 -153 14 -203 31 -175 4 6 9 56 11
111 3 55 9 108 14 118 5 10 17 56 26 103 8 46 33 140 55 208 21 69 37 128 34
133 -7 10 -145 10 -162 0 -7 -5 -12 -17 -11 -28 1 -10 1 -30 1 -45 l-2 -25
-182 3 c-104 2 -223 10 -276 19 -51 9 -99 13 -107 10 -8 -3 -15 -1 -15 5 0 17
32 113 41 123 5 6 9 14 9 18 0 11 -77 8 -120 -4z m59 -17 c13 -9 8 -64 -9 -86
-4 -5 -15 -36 -24 -69 -10 -32 -21 -55 -26 -50 -4 5 -10 49 -12 97 -4 80 -3
90 16 103 23 16 35 17 55 5z m715 -80 c9 -13 -67 -261 -77 -254 -4 3 -7 57 -5
121 3 113 4 117 28 129 30 15 47 16 54 4z m-1144 -20 c0 -3 -9 -12 -20 -18
-23 -15 -38 1 -20 22 11 13 40 10 40 -4z m330 -46 c0 -36 1 -68 3 -72 1 -5
-13 -9 -30 -11 -32 -3 -33 -2 -23 23 17 45 13 67 -12 63 -19 -2 -24 -10 -26
-45 -3 -34 -7 -43 -22 -43 -15 0 -19 9 -22 48 -4 59 -22 62 -26 5 -2 -34 -7
-43 -21 -43 -16 0 -18 6 -13 46 5 44 4 46 -19 42 -21 -3 -24 -8 -24 -45 0 -37
-3 -43 -21 -43 -24 0 -33 14 -29 45 6 44 18 65 39 69 11 2 44 9 71 14 28 5 78
10 113 11 l62 1 0 -65z m161 -15 c28 0 52 -19 27 -21 -7 0 -21 -2 -30 -4 -10
-2 -18 1 -18 6 0 5 -7 9 -15 9 -8 0 -15 8 -15 17 0 13 3 14 12 5 7 -7 24 -12
39 -12z m518 -34 c10 -6 13 -109 4 -140 -4 -15 -11 -17 -43 -12 -22 3 -41 2
-44 -3 -3 -5 -125 -8 -271 -8 -294 1 -275 -4 -253 71 16 54 37 68 133 88 63
13 120 16 273 13 106 -2 196 -6 201 -9z m-781 -68 c7 -7 12 -27 12 -46 0 -26
-4 -33 -16 -30 -25 5 -38 31 -30 61 7 30 16 33 34 15z m-63 -28 c7 -33 1 -50
-20 -50 -12 0 -35 28 -35 44 0 8 31 36 40 36 5 0 11 -13 15 -30z m171 4 c9
-37 -2 -54 -36 -54 -27 0 -30 3 -30 33 0 40 3 45 36 45 17 0 26 -7 30 -24z
m-238 -17 c3 -26 1 -28 -29 -25 -38 4 -47 19 -23 42 24 24 48 16 52 -17z m250
-139 c2 -43 1 -78 -1 -78 -3 0 -21 7 -41 15 -35 15 -36 17 -36 66 0 57 15 80
50 76 24 -2 25 -5 28 -79z m-255 46 c5 -27 -11 -41 -38 -30 -18 7 -20 42 -2
49 25 11 35 6 40 -19z m75 -8 c4 -37 -9 -50 -33 -33 -13 10 -16 21 -11 41 9
37 40 31 44 -8z m72 -16 c0 -37 -4 -50 -14 -50 -21 0 -31 20 -27 55 4 37 8 45
27 45 10 0 14 -13 14 -50z m-288 13 c31 -28 21 -38 -54 -57 -27 -6 -27 -5 -17
21 21 55 40 65 71 36z"/>
<path d="M388 43 c-35 -41 -32 -43 44 -43 l73 0 -42 20 c-24 10 -43 24 -43 30
0 15 -15 12 -32 -7z"/>
<path d="M624 9 c-3 -5 30 -9 72 -9 43 0 75 2 73 4 -10 8 -140 13 -145 5z"/>
</g>
</svg>
