<?xml version="1.0" standalone="no"?>
<!DOCTYPE svg PUBLIC "-//W3C//DTD SVG 20010904//EN"
 "http://www.w3.org/TR/2001/REC-SVG-20010904/DTD/svg10.dtd">
<svg version="1.0" xmlns="http://www.w3.org/2000/svg"
 width="121.000000pt" height="73.000000pt" viewBox="0 0 121.000000 73.000000"
 preserveAspectRatio="xMidYMid meet">
<metadata>
Created by potrace 1.16, written by Peter Selinger 2001-2019
</metadata>
<g transform="translate(0.000000,73.000000) scale(0.100000,-0.100000)"
fill="#000000" stroke="none">
<path d="M554 657 c-8 -5 -19 -19 -24 -31 -6 -18 -23 -25 -87 -39 -43 -9 -107
-19 -143 -22 -57 -5 -90 -1 -202 22 -20 4 -30 1 -34 -12 -4 -9 -2 -20 4 -24 7
-4 12 -28 13 -54 1 -27 6 -50 9 -52 4 -3 25 9 46 25 20 17 42 29 48 27 6 -2
12 -29 14 -60 3 -44 0 -58 -11 -63 -17 -6 -77 22 -77 36 0 6 -7 10 -16 10 -12
0 -15 -6 -10 -27 4 -14 3 -29 -2 -32 -5 -3 -21 -30 -36 -60 -22 -45 -23 -52
-9 -46 44 19 91 34 126 40 40 8 42 4 37 -52 -2 -34 28 -29 32 5 2 21 9 28 31
30 25 3 27 1 27 -37 0 -36 18 -69 22 -39 0 7 2 18 3 23 2 6 3 18 4 28 1 11 9
17 25 17 32 0 40 -14 37 -67 -3 -57 16 -55 25 3 5 39 9 45 28 42 18 -3 21 -11
24 -61 4 -70 17 -74 26 -7 6 48 8 50 38 50 l31 0 -7 -99 c-4 -67 -2 -102 5
-106 18 -12 21 1 26 97 6 116 20 152 65 166 38 12 375 46 403 41 16 -4 18 -14
16 -99 -1 -52 -4 -121 -8 -152 -5 -48 -3 -58 10 -58 15 0 21 41 33 225 6 97
35 239 64 319 18 48 20 60 9 67 -29 18 -91 4 -112 -25 -4 -6 -5 -25 -2 -42 5
-30 3 -32 -27 -37 -66 -9 -386 -8 -392 2 -6 9 2 50 19 107 6 20 3 22 -40 26
-25 2 -53 -1 -61 -5z m56 -37 c0 -5 -7 -10 -15 -10 -8 0 -15 5 -15 10 0 6 7
10 15 10 8 0 15 -4 15 -10z m520 -37 c-1 -10 -7 -31 -14 -48 l-13 -30 -8 37
c-4 20 -4 41 0 47 10 17 35 13 35 -6z m-530 -36 c0 -40 -17 -52 -24 -17 -3 18
-3 36 0 41 9 15 24 0 24 -24z m-70 7 c0 -13 -7 -15 -29 -11 -48 10 -54 -7 -47
-144 l7 -120 -23 3 c-21 3 -23 9 -26 76 -2 40 2 89 7 109 12 44 1 64 -27 47
-19 -13 -21 -49 -9 -151 6 -61 6 -63 -16 -63 -46 0 -50 11 -44 109 l5 91 -24
0 c-13 0 -24 -4 -24 -10 0 -5 -7 -7 -15 -4 -24 9 -18 24 10 24 27 0 107 18
140 31 81 32 115 36 115 13z m-371 -23 l24 -7 -28 -18 c-22 -15 -29 -16 -36
-5 -22 35 -9 44 40 30z m390 -198 c1 -82 1 -83 -24 -83 -42 0 -51 55 -25 149
5 20 10 46 10 58 0 12 5 34 12 50 11 27 12 26 19 -32 4 -33 7 -97 8 -142z
m507 152 c4 -9 7 -39 8 -67 l1 -52 -100 -14 c-106 -14 -340 -11 -354 4 -4 5
-4 28 1 51 8 38 12 43 46 49 20 4 45 7 56 6 10 0 28 5 40 12 12 7 61 14 111
15 49 1 92 4 94 7 2 2 24 4 48 4 30 0 45 -5 49 -15z m-399 -1 c-3 -3 -12 -4
-19 -1 -8 3 -5 6 6 6 11 1 17 -2 13 -5z m-368 -106 c1 -41 -2 -48 -18 -48 -43
0 -45 33 -4 130 9 22 21 -23 22 -82z m-149 -58 c0 -6 -3 -10 -7 -10 -5 0 -18
-3 -31 -6 -21 -6 -22 -5 -11 19 10 21 15 24 30 16 11 -5 19 -14 19 -19z"/>
</g>
</svg>
