<?xml version="1.0" standalone="no"?>
<!DOCTYPE svg PUBLIC "-//W3C//DTD SVG 20010904//EN"
 "http://www.w3.org/TR/2001/REC-SVG-20010904/DTD/svg10.dtd">
<svg version="1.0" xmlns="http://www.w3.org/2000/svg"
 width="67.000000pt" height="100.000000pt" viewBox="0 0 67.000000 100.000000"
 preserveAspectRatio="xMidYMid meet">
<metadata>
Created by potrace 1.16, written by Peter Selinger 2001-2019
</metadata>
<g transform="translate(0.000000,100.000000) scale(0.100000,-0.100000)"
fill="#000000" stroke="none">
<path d="M320 906 c-11 -25 -20 -49 -20 -54 0 -4 -16 -27 -36 -50 -31 -37 -41
-42 -77 -42 -59 0 -115 -18 -127 -40 -7 -13 -7 -43 0 -92 32 -236 40 -322 38
-395 -1 -46 1 -85 4 -88 3 -4 15 -1 26 6 18 11 26 6 79 -49 70 -74 88 -79 78
-23 -4 22 -2 42 3 45 6 3 13 25 17 47 14 82 87 216 156 288 31 32 34 33 90 27
32 -3 65 -3 74 0 29 11 15 24 -26 24 -36 0 -49 7 -102 56 -34 31 -79 67 -99
81 -35 24 -37 27 -43 100 -5 45 -3 97 4 130 14 71 14 73 -4 73 -8 0 -24 -20
-35 -44z m0 -157 l0 -50 -30 18 c-36 21 -37 31 -9 67 28 35 39 25 39 -35z
m-165 -49 c17 -19 17 -23 -5 -100 -13 -45 -26 -77 -30 -73 -4 4 -12 42 -18 83
-10 64 -9 77 5 92 20 23 26 23 48 -2z m139 -37 c66 -39 141 -89 168 -112 48
-39 -39 -29 -134 15 -62 30 -84 27 -98 -11 -12 -31 -13 -122 -2 -128 4 -3 34
7 68 23 76 34 134 46 134 27 0 -16 -56 -70 -125 -122 -27 -21 -52 -41 -55 -45
-3 -4 -28 -19 -56 -33 l-51 -26 -7 98 c-7 97 -7 99 35 225 23 69 47 126 52
126 5 0 37 -17 71 -37z m16 -182 l-45 -17 -3 24 c-7 48 4 55 50 31 l42 -22
-44 -16z m8 -189 c-17 -34 -38 -85 -47 -113 l-17 -51 -37 45 c-20 25 -35 51
-32 59 3 7 25 26 49 41 24 15 59 41 77 57 19 16 35 28 36 27 1 -2 -12 -30 -29
-65z"/>
</g>
</svg>
