<?xml version="1.0" standalone="no"?>
<!DOCTYPE svg PUBLIC "-//W3C//DTD SVG 20010904//EN"
 "http://www.w3.org/TR/2001/REC-SVG-20010904/DTD/svg10.dtd">
<svg version="1.0" xmlns="http://www.w3.org/2000/svg"
 width="78.000000pt" height="87.000000pt" viewBox="0 0 78.000000 87.000000"
 preserveAspectRatio="xMidYMid meet">
<metadata>
Created by potrace 1.16, written by Peter Selinger 2001-2019
</metadata>
<g transform="translate(0.000000,87.000000) scale(0.100000,-0.100000)"
fill="#000000" stroke="none">
<path d="M539 774 c-13 -15 -41 -37 -62 -51 -37 -23 -45 -47 -16 -49 32 -2 33
-5 3 -18 -23 -10 -33 -23 -38 -47 -4 -19 -13 -43 -21 -53 -14 -18 -16 -18 -33
-3 -22 20 -36 21 -51 4 -8 -11 -5 -19 14 -37 14 -13 25 -27 25 -32 0 -5 -16
-33 -37 -63 -34 -52 -37 -55 -57 -42 -32 21 -42 61 -25 94 7 16 46 61 86 102
40 40 71 77 68 81 -3 5 -26 12 -51 16 -54 8 -61 2 -94 -76 -30 -74 -39 -85
-54 -64 -11 14 -17 10 -52 -32 -46 -55 -74 -96 -74 -106 0 -5 16 -8 35 -8 41
0 46 -17 15 -60 -24 -34 -44 -83 -31 -78 5 1 24 26 43 53 37 56 75 70 109 39
17 -16 18 -19 4 -40 -35 -53 -65 -114 -57 -114 5 0 26 25 46 55 20 30 40 55
44 55 9 0 152 -109 152 -115 0 -2 -16 -30 -35 -62 -19 -32 -35 -64 -35 -70 0
-22 15 -14 27 15 7 15 31 47 53 69 22 23 40 51 40 61 0 34 26 83 50 95 13 7
27 22 30 35 3 12 47 67 97 121 69 73 89 102 80 109 -6 5 -38 18 -70 28 -77 24
-107 58 -107 123 0 26 7 56 16 69 23 33 -6 29 -37 -4z m-9 -64 c0 -5 -4 -10
-10 -10 -5 0 -10 5 -10 10 0 6 5 10 10 10 6 0 10 -4 10 -10z m-187 -66 c7 -7
-46 -73 -70 -87 -10 -6 -9 2 4 35 20 53 46 72 66 52z m157 -18 c0 -2 -7 -6
-15 -10 -8 -3 -15 -1 -15 4 0 6 7 10 15 10 8 0 15 -2 15 -4z m61 -38 l23 -31
-29 -84 c-16 -45 -35 -83 -42 -83 -13 0 -93 95 -93 111 0 11 100 119 111 119
4 0 18 -14 30 -32z m134 -48 c5 -9 -136 -173 -143 -166 -1 2 12 35 30 75 21
48 36 70 45 66 7 -3 20 -8 28 -11 17 -7 21 11 5 21 -5 3 -10 10 -10 16 0 12
37 12 45 -1z m-527 -87 c-2 -20 -9 -29 -25 -31 -27 -4 -30 14 -6 40 23 26 35
22 31 -9z m293 -64 l41 -49 -26 -55 c-15 -30 -30 -55 -34 -55 -13 0 -117 90
-126 109 -7 15 1 30 34 70 49 57 46 58 111 -20z"/>
</g>
</svg>
