<?xml version="1.0" standalone="no"?>
<!DOCTYPE svg PUBLIC "-//W3C//DTD SVG 20010904//EN"
 "http://www.w3.org/TR/2001/REC-SVG-20010904/DTD/svg10.dtd">
<svg version="1.0" xmlns="http://www.w3.org/2000/svg"
 width="82.000000pt" height="71.000000pt" viewBox="0 0 82.000000 71.000000"
 preserveAspectRatio="xMidYMid meet">
<metadata>
Created by potrace 1.16, written by Peter Selinger 2001-2019
</metadata>
<g transform="translate(0.000000,71.000000) scale(0.100000,-0.100000)"
fill="#000000" stroke="none">
<path d="M482 665 c-6 -14 -18 -25 -26 -25 -7 0 -21 -10 -29 -22 -8 -13 -31
-41 -51 -63 -41 -46 -43 -52 -18 -60 29 -9 58 -85 32 -85 -5 0 -22 25 -36 55
-27 55 -27 56 -10 91 9 20 15 38 14 40 -2 2 -23 -20 -47 -48 -35 -40 -41 -52
-30 -59 42 -25 44 -28 32 -40 -15 -15 -41 4 -54 40 -8 19 -4 35 15 73 14 26
22 48 18 48 -4 0 -27 -23 -51 -51 -47 -55 -48 -52 11 -112 27 -27 22 -60 -17
-97 -37 -35 -44 -55 -22 -63 9 -4 9 -7 0 -18 -10 -9 -20 -10 -40 -3 -24 9 -28
15 -26 47 3 51 31 87 60 80 13 -3 23 -3 23 0 0 18 -26 59 -46 72 -20 13 -21
19 -14 46 5 17 17 43 25 56 31 46 8 34 -39 -22 -44 -51 -66 -67 -66 -47 0 5
14 30 31 56 41 62 31 70 -14 11 -20 -25 -47 -55 -61 -66 -14 -11 -26 -23 -26
-27 0 -4 20 -20 45 -35 62 -40 66 -60 19 -108 -21 -21 -36 -40 -33 -43 2 -2
25 -13 52 -24 62 -27 60 -51 -6 -67 -32 -9 -33 -14 -7 -65 21 -41 40 -52 40
-25 0 28 32 79 77 124 l44 45 26 -26 c22 -23 24 -29 13 -42 -7 -9 -21 -16 -31
-16 -30 0 -31 -17 -4 -75 26 -54 45 -64 45 -24 0 27 58 139 76 146 8 3 21 0
29 -7 23 -19 20 25 -4 59 -33 46 -9 106 38 94 23 -6 23 -7 17 -119 -8 -127
-10 -145 -25 -173 -13 -24 -14 -51 -3 -51 5 0 17 17 26 38 10 20 37 52 62 71
38 29 50 33 82 28 20 -4 43 -14 50 -24 8 -12 15 -14 20 -7 4 6 15 14 26 17 17
7 17 9 3 25 -32 35 -21 175 25 336 11 38 27 80 35 93 19 29 18 30 -32 33 -65
4 -75 1 -85 -25 -14 -36 -37 -31 -88 20 -24 25 -48 45 -52 45 -4 0 -12 -11
-18 -25z m237 -52 c-1 -22 -37 -102 -39 -88 -3 18 2 90 7 97 9 15 33 8 32 -9z
m-86 -50 c4 -2 7 -83 7 -180 l0 -175 -37 7 c-20 3 -53 14 -72 23 l-36 17 1
149 c0 173 4 181 84 170 25 -4 48 -8 53 -11z m-175 -73 l3 -75 -25 34 c-14 19
-29 43 -32 54 -8 25 15 69 35 65 13 -3 17 -20 19 -78z m-310 -36 c23 -16 29
-39 13 -48 -9 -6 -71 43 -71 56 0 13 34 9 58 -8z m214 -41 c24 -22 23 -26 -13
-67 l-31 -36 28 -24 c24 -20 26 -26 15 -40 -20 -24 -33 -19 -64 24 -29 41 -30
67 -2 100 7 8 16 25 19 38 9 26 23 28 48 5z m-242 -98 c0 -8 -4 -15 -9 -15
-13 0 -22 16 -14 24 11 11 23 6 23 -9z m190 -134 c0 -21 -13 -41 -26 -41 -17
0 -17 5 -4 31 11 20 30 26 30 10z m205 -1 c3 -6 -1 -13 -10 -16 -19 -8 -30 0
-20 15 8 14 22 14 30 1z"/>
</g>
</svg>
