<?xml version="1.0" standalone="no"?>
<!DOCTYPE svg PUBLIC "-//W3C//DTD SVG 20010904//EN"
 "http://www.w3.org/TR/2001/REC-SVG-20010904/DTD/svg10.dtd">
<svg version="1.0" xmlns="http://www.w3.org/2000/svg"
 width="104.000000pt" height="87.000000pt" viewBox="0 0 104.000000 87.000000"
 preserveAspectRatio="xMidYMid meet">
<metadata>
Created by potrace 1.16, written by Peter Selinger 2001-2019
</metadata>
<g transform="translate(0.000000,87.000000) scale(0.100000,-0.100000)"
fill="#000000" stroke="none">
<path d="M525 813 c-14 -15 -25 -31 -25 -35 0 -22 -74 -119 -105 -138 -31 -19
-43 -21 -108 -15 -87 9 -136 27 -161 60 -10 14 -24 25 -30 25 -18 0 -43 -51
-51 -104 l-7 -49 29 7 c15 4 64 11 108 15 44 4 85 9 90 10 6 2 29 3 53 2 38
-1 42 -3 42 -27 l0 -26 -147 3 c-134 4 -148 2 -151 -14 -3 -16 8 -17 135 -16
76 0 146 -2 156 -6 37 -15 14 -25 -60 -27 -122 -2 -136 -2 -173 6 -43 8 -72
-6 -52 -26 10 -10 54 -13 165 -13 l152 0 3 -28 c3 -25 1 -27 -15 -19 -10 5
-70 10 -133 11 -90 1 -118 5 -127 17 -10 13 -13 12 -27 -8 -9 -12 -12 -26 -8
-30 5 -5 79 -9 165 -11 115 -1 157 -5 157 -14 0 -21 -18 -24 -167 -24 -150 0
-185 -7 -162 -35 6 -8 16 -11 22 -7 6 3 77 7 158 9 122 2 148 0 153 -12 9 -24
-18 -27 -175 -20 l-149 7 -10 -26 c-14 -37 -13 -38 17 -30 42 11 293 16 311 6
11 -6 4 -11 -26 -16 -44 -7 -49 -14 -31 -47 6 -11 12 -44 13 -72 1 -38 5 -51
16 -51 8 0 16 10 18 22 2 11 24 46 50 76 26 30 58 69 71 86 13 17 31 31 40 31
9 1 43 21 76 45 33 25 85 57 115 71 35 18 49 28 38 31 -16 4 -83 -28 -183 -87
-144 -85 -155 -86 -155 -6 0 65 20 146 54 217 24 52 28 55 56 51 16 -2 35 -10
41 -18 6 -8 16 -14 21 -14 5 0 37 -19 72 -42 35 -24 83 -55 108 -69 54 -32 58
-46 58 -201 0 -89 3 -110 15 -115 9 -3 19 -2 23 2 4 4 7 59 7 123 1 65 4 128
9 142 13 41 77 174 94 192 17 21 21 19 -90 40 -42 8 -82 12 -88 8 -9 -5 -9
-26 1 -83 7 -42 10 -79 7 -83 -10 -10 -162 100 -198 143 -70 83 -71 86 -61
154 12 88 2 101 -44 52z m-9 -139 c3 -15 7 -31 10 -36 6 -9 -24 -9 -48 0 -16
6 -16 10 4 40 23 37 27 36 34 -4z m-381 -54 c3 -6 2 -10 -4 -10 -5 0 -16 -3
-25 -6 -12 -5 -16 0 -16 20 0 23 2 25 19 16 11 -5 23 -15 26 -20z m358 -27
c-13 -2 -35 -2 -50 0 -16 2 -5 4 22 4 28 0 40 -2 28 -4z m445 -12 c19 -2 14
-23 -17 -82 -32 -56 -37 -55 -44 16 -2 22 -7 48 -11 57 -7 15 -3 17 25 14 19
-2 40 -4 47 -5z m-488 -40 c0 -18 -22 -71 -30 -71 -9 0 -19 68 -11 75 8 8 41
5 41 -4z m-30 -376 c-21 -22 -25 -24 -33 -9 -10 18 -1 30 28 36 30 6 31 1 5
-27z"/>
</g>
</svg>
