<?xml version="1.0" standalone="no"?>
<!DOCTYPE svg PUBLIC "-//W3C//DTD SVG 20010904//EN"
 "http://www.w3.org/TR/2001/REC-SVG-20010904/DTD/svg10.dtd">
<svg version="1.0" xmlns="http://www.w3.org/2000/svg"
 width="154.000000pt" height="97.000000pt" viewBox="0 0 154.000000 97.000000"
 preserveAspectRatio="xMidYMid meet">
<metadata>
Created by potrace 1.16, written by Peter Selinger 2001-2019
</metadata>
<g transform="translate(0.000000,97.000000) scale(0.100000,-0.100000)"
fill="#000000" stroke="none">
<path d="M884 885 c-4 -9 -2 -34 5 -54 12 -43 15 -115 4 -109 -5 2 -20 10 -35
17 -32 16 -58 9 -58 -16 0 -10 -4 -25 -10 -33 -7 -11 -15 -8 -44 20 -20 19
-36 42 -36 51 0 22 27 86 40 94 12 7 13 25 2 25 -5 0 -31 -28 -59 -63 l-50
-62 58 -44 c31 -24 63 -54 70 -67 12 -23 9 -28 -57 -94 -43 -44 -69 -78 -69
-92 -1 -15 -7 -23 -18 -22 -17 2 -19 -2 -19 -31 0 -30 2 -35 17 -35 8 0 15 7
15 16 0 22 31 76 53 92 9 7 17 18 17 24 0 19 50 78 66 78 8 0 27 9 42 19 15
11 43 23 62 26 l36 6 12 -61 c7 -33 12 -122 12 -198 -1 -168 -1 -170 14 -102
11 48 12 183 2 285 -1 17 1 42 6 57 8 21 17 27 49 30 45 4 50 -5 14 -28 -37
-24 -31 -39 24 -63 35 -15 82 -53 158 -129 59 -59 120 -113 135 -119 34 -15
42 -52 35 -172 -6 -91 5 -123 18 -54 3 20 13 113 20 207 12 143 19 185 45 256
57 159 69 241 36 262 -17 12 -115 9 -137 -3 -17 -9 -20 -19 -18 -67 l3 -57
-103 3 c-57 1 -108 5 -113 8 -6 4 -47 6 -91 5 l-80 -2 6 37 c3 20 14 45 24 56
10 11 17 23 15 27 -1 3 5 20 15 38 9 18 15 34 13 36 -3 3 -35 8 -73 12 -57 5
-68 4 -73 -10z m106 -19 c0 -15 -41 -96 -49 -96 -5 0 -11 12 -14 28 -3 15 -8
37 -12 50 -7 20 -4 22 34 22 22 0 41 -2 41 -4z m492 -103 c9 -42 -20 -164 -58
-248 -13 -29 -14 -28 -16 35 -3 106 -4 114 -16 143 -7 16 -12 42 -12 58 0 28
1 29 49 29 39 0 50 -4 53 -17z m-620 -89 c33 -17 30 -23 -19 -38 -20 -7 -23
-4 -23 23 0 36 1 36 42 15z m494 -43 c7 -17 21 -278 16 -304 -5 -27 -41 -1
-107 76 -89 105 -153 216 -134 233 4 5 55 10 113 10 89 2 106 -1 112 -15z
m-246 -59 c0 -10 -5 -10 -21 -2 -27 15 -34 37 -18 56 12 15 15 14 26 -12 7
-16 12 -35 13 -42z"/>
<path d="M140 789 c-58 -50 -106 -94 -108 -100 -2 -5 6 -9 17 -9 12 0 21 -3
21 -8 0 -4 12 -13 28 -20 15 -7 49 -32 76 -55 57 -50 57 -69 0 -93 -26 -11
-39 -12 -49 -4 -23 19 -28 -7 -9 -55 19 -52 36 -57 57 -17 50 97 75 113 111
73 16 -18 16 -20 -10 -40 -15 -11 -31 -21 -35 -21 -14 0 -10 -37 5 -50 12 -9
19 -4 39 28 39 60 177 183 199 176 13 -4 18 0 18 14 0 35 25 47 70 32 22 -7
40 -16 40 -20 0 -9 -166 -148 -206 -172 -37 -22 -40 -29 -24 -59 15 -27 23
-24 57 24 42 57 112 131 146 152 15 9 27 24 27 31 0 8 6 14 13 14 8 0 18 9 23
20 8 18 12 19 27 8 16 -12 15 -16 -21 -53 -22 -22 -69 -66 -106 -99 -55 -48
-67 -63 -64 -85 4 -36 31 -38 49 -4 22 44 93 134 143 183 46 44 58 70 32 70
-18 0 -106 89 -106 108 0 8 12 35 26 59 35 60 25 77 -13 22 -17 -24 -43 -54
-57 -66 -29 -26 -34 -43 -10 -43 20 0 95 -60 88 -71 -10 -17 -37 -9 -85 27
-55 40 -58 52 -29 119 11 26 20 49 20 51 0 15 -22 -4 -64 -53 l-48 -58 42 -36
c29 -25 41 -42 37 -53 -10 -27 -39 -17 -92 29 l-50 45 27 50 c16 27 26 50 23
50 -3 0 -32 -27 -64 -60 -39 -40 -53 -60 -42 -60 9 0 26 -7 36 -15 11 -8 40
-29 65 -47 l44 -31 -34 -28 c-35 -30 -44 -30 -60 1 -7 14 -6 23 7 36 16 15 15
16 -15 9 -28 -6 -36 -2 -62 26 -16 19 -30 40 -30 49 0 20 35 77 68 113 18 18
23 30 16 37 -8 8 -20 -2 -39 -31 -16 -22 -49 -59 -74 -81 -40 -35 -46 -37 -49
-21 -3 20 39 103 63 123 16 13 20 31 8 29 -5 0 -55 -41 -113 -90z m25 -40 c-8
-22 -17 -44 -20 -49 -7 -11 -57 10 -53 21 3 7 78 68 85 69 1 0 -4 -18 -12 -41z
m38 -61 c39 -20 97 -71 97 -84 0 -7 -9 -18 -21 -24 -18 -10 -27 -5 -69 39 -31
32 -47 57 -44 66 7 18 9 18 37 3z m157 -147 c0 -9 -10 -22 -22 -30 -19 -12
-23 -11 -39 10 -24 31 -23 35 3 53 20 14 24 14 40 -1 10 -9 18 -23 18 -32z
m65 -111 c-3 -5 -11 -10 -16 -10 -6 0 -7 5 -4 10 3 6 11 10 16 10 6 0 7 -4 4
-10z"/>
</g>
</svg>
