<?xml version="1.0" standalone="no"?>
<!DOCTYPE svg PUBLIC "-//W3C//DTD SVG 20010904//EN"
 "http://www.w3.org/TR/2001/REC-SVG-20010904/DTD/svg10.dtd">
<svg version="1.0" xmlns="http://www.w3.org/2000/svg"
 width="135.000000pt" height="82.000000pt" viewBox="0 0 135.000000 82.000000"
 preserveAspectRatio="xMidYMid meet">
<metadata>
Created by potrace 1.16, written by Peter Selinger 2001-2019
</metadata>
<g transform="translate(0.000000,82.000000) scale(0.100000,-0.100000)"
fill="#000000" stroke="none">
<path d="M1233 741 c-62 -24 -64 -29 -52 -91 6 -30 11 -68 12 -85 l2 -30 -69
-3 c-49 -2 -72 1 -77 10 -16 24 -9 67 16 104 49 72 29 72 -48 -1 -31 -30 -59
-55 -62 -55 -2 0 8 23 22 50 14 28 23 53 20 56 -8 8 -137 -120 -137 -135 0 -6
11 -11 25 -11 14 0 25 -4 25 -10 0 -5 -16 -10 -36 -10 -36 0 -36 1 -30 32 3
17 16 51 28 74 12 24 19 47 16 50 -4 3 -21 -9 -40 -26 -18 -18 -46 -43 -62
-56 -22 -20 -27 -30 -22 -50 6 -22 4 -25 -9 -20 -9 3 -19 6 -21 6 -14 0 0 51
21 80 14 19 25 38 25 42 0 18 -28 6 -56 -23 -16 -17 -41 -37 -56 -45 -23 -12
-27 -19 -21 -44 4 -23 2 -30 -10 -30 -42 0 -31 62 24 142 19 27 25 58 11 58
-4 0 -24 -20 -45 -44 -20 -25 -55 -52 -77 -62 -22 -10 -40 -23 -40 -30 0 -13
-28 -23 -47 -17 -13 5 -8 51 6 63 16 13 60 109 53 114 -5 3 -31 0 -58 -7 l-49
-12 0 -78 1 -77 -32 0 c-18 0 -35 4 -38 9 -5 8 14 93 30 135 6 16 4 17 -17 11
-39 -12 -49 -28 -57 -90 -6 -52 -10 -60 -30 -63 -27 -4 -27 0 -2 66 31 82 34
80 -83 78 -96 -1 -102 -2 -100 -21 15 -140 22 -265 17 -279 -4 -11 -1 -16 10
-16 9 0 16 5 16 10 0 18 22 10 27 -10 3 -11 10 -20 16 -20 5 0 3 -8 -6 -17 -8
-10 -19 -30 -22 -45 -8 -32 8 -37 42 -13 20 14 111 21 291 24 120 2 61 18 -86
24 -148 5 -216 17 -179 32 10 4 20 5 23 2 3 -3 31 1 62 8 31 7 99 13 151 12
61 -2 99 2 110 10 13 10 -4 13 -89 14 -58 1 -134 0 -169 -1 -49 -1 -62 1 -59
12 4 9 20 12 49 11 24 -2 51 0 59 4 20 9 27 10 144 17 108 8 122 3 152 -56 14
-26 13 -28 -61 -92 l-74 -65 -88 -1 c-128 -2 -152 -1 -208 11 -90 20 -104 13
-131 -60 -13 -35 -22 -66 -19 -69 2 -3 31 7 62 21 84 37 156 55 256 65 87 8
89 8 155 -25 36 -18 76 -44 89 -58 13 -14 28 -25 34 -25 6 0 25 -11 43 -25 32
-25 66 -33 66 -17 0 9 -33 42 -91 91 -49 41 -44 91 9 91 19 0 40 -15 77 -57
38 -42 56 -55 69 -50 15 6 13 12 -18 49 -39 45 -41 61 -10 66 12 2 36 -14 64
-43 24 -25 48 -45 52 -45 16 0 7 23 -22 60 -31 39 -31 39 -9 50 32 18 58 5
128 -60 35 -33 68 -60 72 -60 20 0 7 38 -21 65 -16 16 -30 34 -30 42 0 20 35
33 92 36 l53 2 7 -60 c4 -33 10 -94 13 -135 9 -128 41 -117 38 14 -1 57 4 93
17 130 39 104 78 256 66 263 -5 4 -26 10 -46 13 -43 7 -43 16 -1 125 17 44 31
83 31 88 0 11 -31 7 -77 -12z m22 -61 c-22 -49 -35 -51 -35 -7 0 25 6 37 23
44 31 15 33 9 12 -37z m-792 10 c-3 -11 -9 -20 -14 -20 -10 0 -12 24 -2 33 13
13 21 7 16 -13z m-319 -15 c-4 -8 -8 -15 -10 -15 -2 0 -4 7 -4 15 0 8 4 15 10
15 5 0 7 -7 4 -15z m80 6 c3 -5 3 -29 0 -54 -5 -37 -11 -47 -28 -49 -30 -4
-37 -58 -7 -58 12 0 21 -4 21 -10 0 -5 -7 -10 -15 -10 -13 0 -35 -28 -35 -45
0 -4 11 -4 25 -1 17 4 25 2 25 -6 0 -9 -14 -14 -38 -14 l-38 -1 1 56 c1 55 18
124 38 149 5 6 6 12 2 12 -5 0 0 9 10 20 20 22 31 25 39 11z m366 -80 c0 -6
-4 -13 -10 -16 -5 -3 -10 1 -10 9 0 9 5 16 10 16 6 0 10 -4 10 -9z m410 -51
c0 -5 -2 -10 -4 -10 -3 0 -8 5 -11 10 -3 6 -1 10 4 10 6 0 11 -4 11 -10z
m-449 -26 c6 -8 10 -14 8 -15 -32 -6 -58 -9 -131 -15 l-88 -6 0 25 c0 25 0 25
99 25 74 0 103 -3 112 -14z m-241 -9 c0 -10 -11 -15 -35 -15 -54 0 -43 27 13
29 13 1 22 -5 22 -14z m869 -21 c7 -6 0 -139 -7 -145 -4 -4 -31 -10 -61 -13
l-54 -7 6 31 c4 16 17 44 29 60 19 27 21 34 9 52 -11 17 -11 22 1 29 11 8 66
3 77 -7z m111 -4 c0 -25 -39 -151 -50 -164 -12 -12 -24 77 -17 126 6 42 19 58
50 58 11 0 17 -8 17 -20z m-447 -18 c24 -21 21 -35 -15 -68 -62 -56 -91 -74
-115 -74 -16 0 -27 -7 -30 -19 -5 -20 -33 -38 -33 -21 0 15 23 63 42 89 23 31
23 51 -1 51 -22 0 -38 37 -23 52 21 21 57 3 80 -39 31 -56 46 -56 39 1 -4 24
-4 46 -1 49 8 8 35 -3 57 -21z m125 -2 c15 -16 32 -30 39 -30 16 0 17 26 2 36
-8 5 -6 10 5 16 19 11 56 -14 56 -37 0 -31 -112 -125 -149 -125 -21 0 -21 1
-6 30 21 40 4 38 -44 -5 -31 -28 -41 -32 -50 -22 -12 15 9 44 54 73 26 17 34
57 14 70 -8 4 -7 9 2 15 26 16 51 9 77 -21z m-356 -200 c-2 -27 -7 -50 -10
-50 -10 1 -52 37 -52 45 0 7 51 55 59 55 3 0 4 -22 3 -50z m-412 -46 c0 -6
-82 -46 -86 -41 -9 9 8 35 29 44 19 9 57 7 57 -3z"/>
</g>
</svg>
