<?xml version="1.0" standalone="no"?>
<!DOCTYPE svg PUBLIC "-//W3C//DTD SVG 20010904//EN"
 "http://www.w3.org/TR/2001/REC-SVG-20010904/DTD/svg10.dtd">
<svg version="1.0" xmlns="http://www.w3.org/2000/svg"
 width="203.000000pt" height="97.000000pt" viewBox="0 0 203.000000 97.000000"
 preserveAspectRatio="xMidYMid meet">
<metadata>
Created by potrace 1.16, written by Peter Selinger 2001-2019
</metadata>
<g transform="translate(0.000000,97.000000) scale(0.100000,-0.100000)"
fill="#000000" stroke="none">
<path d="M887 872 c-9 -10 -17 -26 -17 -34 0 -18 -26 -32 -53 -29 -42 5 -48
-15 -41 -139 5 -87 4 -119 -5 -125 -20 -12 -122 -7 -138 7 -8 7 -19 23 -24 37
-8 19 -5 29 11 46 l21 22 -24 55 c-22 49 -23 57 -10 82 l14 26 -50 -27 c-38
-21 -46 -30 -33 -34 23 -9 58 -49 66 -76 7 -21 1 -30 -37 -56 -18 -12 -17 -14
2 -39 27 -34 26 -38 -7 -38 -47 0 -72 79 -32 100 27 14 25 38 -5 81 -21 32
-22 39 -10 55 28 37 16 45 -25 18 l-41 -27 29 -31 c55 -60 55 -61 29 -90 -13
-14 -29 -26 -36 -26 -18 0 -13 -15 14 -38 36 -31 31 -42 -20 -42 -41 0 -46 3
-59 33 -11 28 -11 34 2 50 14 15 13 17 -6 17 -12 0 -22 6 -22 14 0 8 -16 35
-35 60 l-35 46 20 32 c11 18 20 37 20 42 0 17 -45 -22 -50 -43 -5 -23 -26 -26
-24 -3 2 10 -1 10 -12 1 -21 -17 -36 -2 -23 23 9 18 8 24 -7 35 -19 14 -61 17
-88 7 -14 -5 -16 -28 -16 -145 l0 -138 -27 -13 c-27 -13 -54 -71 -40 -85 4 -3
33 1 64 11 32 9 73 17 92 19 l34 2 19 -85 c10 -47 16 -90 14 -97 -6 -16 -73
-5 -106 17 -41 26 -61 20 -77 -25 -7 -22 -18 -44 -23 -49 -6 -6 -10 -16 -10
-23 0 -11 5 -11 21 -3 33 18 126 40 169 40 37 0 38 -1 45 -39 4 -22 10 -70 13
-108 7 -72 26 -89 28 -25 0 20 2 65 2 99 l2 62 33 -5 c17 -4 54 -12 81 -20 47
-13 72 -11 61 6 -3 4 -35 15 -73 24 -37 10 -73 21 -80 25 -20 12 3 97 45 161
l35 55 161 -3 c88 -1 163 -4 165 -7 2 -2 6 -60 9 -130 5 -128 -3 -163 -33
-151 -29 11 -42 -19 -47 -111 -3 -51 -2 -93 2 -93 4 0 16 9 26 20 10 11 42 36
70 55 71 46 163 63 315 56 66 -3 81 -1 75 9 -3 6 -15 10 -26 10 -16 0 -19 7
-19 50 0 28 7 65 16 82 9 17 12 33 7 37 -11 8 -13 101 -1 101 5 0 11 -7 14
-15 8 -20 15 -19 65 11 43 24 43 25 12 19 -32 -6 -33 -5 -33 24 0 29 2 31 39
31 21 0 54 3 72 6 l34 7 -27 -22 c-14 -11 -31 -21 -37 -21 -6 0 -11 -4 -11
-10 0 -5 24 2 53 15 28 14 62 25 75 25 13 0 36 7 51 15 16 8 44 16 62 19 63 9
143 23 274 49 72 14 149 29 173 32 35 6 42 11 42 29 0 19 -6 23 -32 23 -56 1
-262 35 -418 69 -95 20 -214 42 -299 54 -41 6 -79 14 -85 19 -6 5 -38 12 -71
16 -33 4 -64 10 -70 15 -5 4 -37 11 -69 15 -33 4 -64 9 -71 11 -6 3 -19 -4
-28 -14z m-677 -42 c0 -26 -24 -85 -38 -94 -16 -10 -27 81 -12 99 19 22 50 19
50 -5z m758 1 c10 -6 8 -10 -10 -14 -50 -14 -83 -5 -61 16 9 10 55 8 71 -2z
m212 -36 c25 -3 65 -10 90 -15 76 -16 408 -72 541 -90 69 -10 141 -21 160 -25
34 -8 33 -8 -26 -20 -33 -7 -107 -20 -165 -29 -58 -9 -125 -21 -150 -26 -114
-25 -255 -36 -396 -32 -60 2 -61 3 -56 27 2 14 8 28 13 31 5 3 9 14 9 24 0 11
8 36 17 56 17 35 17 36 -2 50 -21 15 -69 11 -93 -9 -8 -6 -53 -8 -127 -3
l-115 6 0 -36 c0 -25 3 -33 12 -27 7 4 31 9 52 10 22 2 44 7 50 11 6 5 34 9
63 10 44 2 53 -1 58 -18 3 -11 4 -24 1 -29 -3 -5 -54 -12 -112 -16 -77 -6
-107 -11 -111 -22 -8 -20 2 -26 24 -15 10 6 60 13 111 17 l92 8 0 -41 c0 -53
-18 -59 -119 -37 -71 16 -83 16 -129 2 -58 -17 -62 -14 -62 54 0 39 32 145 49
162 5 5 44 14 87 22 76 12 139 12 234 0z m-360 -30 c0 -14 -4 -25 -10 -25 -11
0 -14 33 -3 43 11 11 13 8 13 -18z m-537 -35 c59 -37 68 -57 36 -81 -13 -10
-20 -21 -16 -25 4 -4 13 -2 19 4 18 18 28 15 28 -8 0 -10 9 -24 20 -30 34 -18
25 -40 -18 -40 -34 0 -40 4 -55 34 -11 24 -22 34 -37 33 -26 -2 -25 -11 2 -29
27 -18 18 -53 -11 -43 -11 3 -29 8 -41 10 -34 6 -50 25 -50 55 0 35 50 150 65
150 6 0 32 -13 58 -30z m897 -44 c0 -8 -4 -18 -10 -21 -5 -3 -10 3 -10 14 0
12 5 21 10 21 6 0 10 -6 10 -14z m-1044 -168 c-19 -11 -50 -3 -42 11 3 4 17 6
32 3 23 -4 24 -6 10 -14z m977 -5 c25 -15 -24 -25 -123 -25 -98 0 -111 -2
-108 -16 3 -15 18 -16 115 -14 81 3 113 0 119 -9 21 -35 -91 -52 -204 -32 -31
5 -33 4 -30 -18 3 -21 8 -24 58 -25 30 -1 59 1 63 3 4 3 33 6 63 8 51 3 55 2
52 -17 -3 -19 -9 -20 -120 -19 -110 2 -118 1 -118 -17 0 -29 6 -30 63 -15 34
9 74 11 115 7 57 -6 62 -8 62 -30 0 -23 -3 -24 -72 -25 -40 -1 -77 0 -83 1 -5
1 -29 5 -52 7 -39 5 -43 4 -43 -16 0 -21 3 -21 105 -15 122 7 147 1 143 -29
-3 -21 -8 -22 -88 -20 -107 2 -190 16 -201 34 -5 8 -8 75 -7 149 l3 135 30 7
c31 7 244 -1 258 -9z m77 -8 c0 -8 -4 -15 -9 -15 -13 0 -22 16 -14 24 11 11
23 6 23 -9z m-819 -12 c2 -40 -4 -80 -17 -112 -8 -18 -14 -42 -14 -52 0 -41
-18 -16 -24 34 -3 28 -9 66 -12 84 -5 27 -2 33 22 47 37 20 44 20 45 -1z
m-214 -179 c6 -16 -12 -34 -34 -34 -16 0 -17 22 -1 38 16 16 27 15 35 -4z
m628 -134 c4 -6 24 -10 46 -8 55 3 58 -8 8 -32 -24 -11 -59 -30 -77 -41 l-33
-21 7 43 c3 24 7 50 10 57 4 15 30 16 39 2z"/>
<path d="M422 823 c-11 -10 -35 -26 -53 -36 l-32 -18 48 -31 c26 -17 53 -45
60 -62 11 -26 15 -28 20 -13 4 10 0 27 -9 40 -9 12 -23 32 -32 44 -15 21 -14
24 6 53 26 36 22 48 -8 23z"/>
<path d="M670 805 c-7 -8 -21 -15 -31 -15 -10 0 -21 -5 -24 -11 -4 -6 -1 -9 7
-7 14 3 63 -42 84 -78 7 -10 15 -16 19 -12 4 4 -5 24 -20 43 -21 28 -26 43
-21 66 6 33 4 35 -14 14z"/>
</g>
</svg>
