<?xml version="1.0" standalone="no"?>
<!DOCTYPE svg PUBLIC "-//W3C//DTD SVG 20010904//EN"
 "http://www.w3.org/TR/2001/REC-SVG-20010904/DTD/svg10.dtd">
<svg version="1.0" xmlns="http://www.w3.org/2000/svg"
 width="106.000000pt" height="97.000000pt" viewBox="0 0 106.000000 97.000000"
 preserveAspectRatio="xMidYMid meet">
<metadata>
Created by potrace 1.16, written by Peter Selinger 2001-2019
</metadata>
<g transform="translate(0.000000,97.000000) scale(0.100000,-0.100000)"
fill="#000000" stroke="none">
<path d="M534 933 c-7 -2 -22 -31 -34 -64 -15 -38 -34 -69 -52 -82 -19 -14
-28 -30 -28 -48 0 -38 -31 -42 -187 -24 -24 2 -65 16 -93 30 -59 30 -76 31
-90 6 -13 -26 -13 -151 0 -151 6 0 24 7 39 15 l29 14 4 -36 c3 -27 -1 -40 -18
-57 -34 -32 -35 -60 -2 -64 20 -2 30 -10 34 -28 11 -42 0 -53 -45 -47 l-41 6
0 -67 c0 -37 -5 -76 -10 -87 -20 -36 1 -42 31 -10 24 27 37 33 64 31 3 -1 17
8 32 20 33 26 42 25 52 -2 9 -23 9 -23 22 5 11 24 18 28 48 25 29 -2 37 -8 39
-26 4 -26 22 -20 22 9 0 14 7 19 24 19 31 0 43 17 17 25 -21 6 -28 31 -27 96
1 42 2 44 31 44 l30 0 7 -134 c5 -101 4 -149 -7 -195 -8 -34 -11 -64 -6 -69 8
-8 50 8 61 23 8 12 98 60 141 76 30 10 46 11 61 3 14 -7 23 -7 33 1 9 8 44 11
96 9 55 -2 84 0 86 8 2 6 -5 14 -17 18 -17 5 -19 10 -9 21 6 8 14 56 16 107 5
96 37 221 95 361 15 38 28 74 28 81 0 7 -33 16 -87 24 -97 14 -262 50 -278 61
-38 26 -102 57 -111 53z m74 -97 l44 -22 -61 -17 c-73 -21 -68 -21 -75 -1 -7
19 19 64 37 64 6 -1 32 -11 55 -24z m227 -217 c3 -85 7 -207 9 -272 l4 -117
-56 3 c-80 4 -82 13 -38 138 47 132 47 132 11 139 -40 7 -42 28 -10 96 15 31
29 71 32 90 l6 34 -50 0 c-77 0 -82 -8 -72 -119 6 -64 6 -98 -1 -107 -8 -9 -8
-36 -1 -91 5 -43 10 -100 10 -127 l0 -48 -32 6 c-18 3 -38 14 -44 23 -15 20
-18 175 -4 219 16 52 45 223 39 230 -3 3 -26 2 -50 -3 l-43 -9 0 -99 c0 -55 2
-152 5 -215 l5 -115 -25 -3 c-14 -1 -30 1 -36 5 -17 12 -20 183 -5 288 27 192
22 176 66 192 22 8 69 16 105 17 36 1 72 5 80 9 29 12 65 13 78 2 9 -8 14 -59
17 -166z m104 151 c12 0 21 -3 21 -7 0 -5 -15 -50 -33 -101 l-33 -93 -10 78
c-5 43 -8 93 -6 111 3 28 6 31 22 22 10 -5 28 -10 39 -10z m-795 -73 l29 -13
-42 -18 c-47 -22 -56 -18 -47 19 7 28 17 30 60 12z m599 -4 c3 -5 -1 -21 -8
-38 l-13 -30 -10 25 c-13 32 15 70 31 43z m-389 -22 c3 -4 -3 -16 -14 -26 -15
-14 -20 -31 -20 -72 0 -53 0 -54 -27 -51 -28 3 -28 4 -29 75 0 70 0 72 25 76
48 7 60 7 65 -2z m64 -65 c3 -71 -9 -96 -35 -74 -11 9 -12 55 -3 146 0 2 8 2
18 0 14 -3 18 -16 20 -72z m-192 4 c1 -65 -5 -80 -31 -80 -17 0 -24 7 -29 31
-11 56 -7 87 12 92 38 11 47 3 48 -43z m361 28 c-3 -8 -6 -5 -6 6 -1 11 2 17
5 13 3 -3 4 -12 1 -19z m-367 -209 c0 -57 -1 -60 -22 -57 -19 2 -24 11 -28 51
-6 50 2 67 32 67 15 0 18 -9 18 -61z m108 -6 c3 -61 2 -63 -22 -63 -48 0 -56
9 -56 61 0 51 16 71 55 66 17 -2 20 -11 23 -64z m411 19 c-12 -36 -29 -34 -29
3 0 14 7 25 18 27 23 6 24 5 11 -30z m-609 -107 c15 -18 5 -35 -21 -35 -12 0
-19 7 -19 18 0 33 20 42 40 17z m435 -124 c30 -7 29 -7 -34 -40 -34 -18 -65
-30 -68 -27 -3 2 0 21 7 40 12 38 27 42 95 27z"/>
</g>
</svg>
