<?xml version="1.0" standalone="no"?>
<!DOCTYPE svg PUBLIC "-//W3C//DTD SVG 20010904//EN"
 "http://www.w3.org/TR/2001/REC-SVG-20010904/DTD/svg10.dtd">
<svg version="1.0" xmlns="http://www.w3.org/2000/svg"
 width="88.000000pt" height="64.000000pt" viewBox="0 0 88.000000 64.000000"
 preserveAspectRatio="xMidYMid meet">
<metadata>
Created by potrace 1.16, written by Peter Selinger 2001-2019
</metadata>
<g transform="translate(0.000000,64.000000) scale(0.100000,-0.100000)"
fill="#000000" stroke="none">
<path d="M603 531 l-41 -59 76 -64 c84 -70 96 -88 59 -88 -17 0 -45 19 -88 61
-53 53 -62 68 -67 106 -6 52 -18 63 -33 29 -13 -28 -38 -41 -52 -27 -6 6 -3
21 7 42 21 42 20 52 -3 40 -10 -6 -22 -22 -25 -35 -3 -14 -22 -37 -41 -52 -19
-14 -35 -32 -35 -39 0 -7 17 -27 38 -43 l37 -30 -27 -7 c-20 -5 -35 -1 -58 15
-28 20 -30 26 -30 81 0 67 -13 76 -45 29 -19 -28 -61 -58 -69 -49 -2 2 2 22
10 44 16 49 2 70 -20 27 -16 -31 -82 -72 -116 -72 -37 0 -20 -19 68 -78 48
-32 87 -64 87 -72 0 -8 -15 -17 -33 -21 -48 -10 -53 -19 -44 -70 5 -25 8 -53
6 -62 -5 -38 23 -12 59 53 20 39 43 70 50 70 26 0 95 -84 107 -130 19 -75 21
-80 33 -80 7 0 25 25 41 55 31 60 69 93 158 137 57 29 60 29 79 13 10 -10 20
-14 20 -9 1 5 2 15 3 23 3 31 35 37 78 13 23 -12 44 -19 47 -16 6 5 -10 21
-143 142 l-58 54 6 49 c4 27 9 56 12 64 14 35 -15 11 -53 -44z m-317 -88 c-5
-12 -10 -13 -18 -5 -8 8 -8 15 3 28 15 18 25 4 15 -23z m144 11 c0 -8 -7 -14
-15 -14 -17 0 -18 2 -9 24 7 18 24 12 24 -10z m75 -25 c9 -13 5 -16 -20 -21
-12 -2 -21 3 -23 15 -4 19 32 25 43 6z m-335 -9 c0 -5 -6 -10 -14 -10 -8 0
-18 5 -21 10 -3 6 3 10 14 10 12 0 21 -4 21 -10z m111 -47 c53 -40 60 -53 29
-53 -44 0 -110 46 -110 77 0 23 31 14 81 -24z m312 -24 c26 -22 47 -47 47 -55
0 -27 -37 -13 -85 32 -37 36 -44 48 -34 55 20 13 19 13 72 -32z m-87 -30 c55
-42 66 -59 53 -76 -19 -22 -36 -15 -83 30 -36 34 -43 46 -35 60 13 23 20 22
65 -14z m-89 -43 c15 -12 38 -29 51 -35 30 -16 14 -38 -35 -47 -31 -6 -38 -3
-63 27 -57 67 -20 111 47 55z m-216 -59 c-10 -9 -11 -8 -5 6 3 10 9 15 12 12
3 -3 0 -11 -7 -18z m241 -79 c-7 -7 -12 -8 -12 -2 0 14 12 26 19 19 2 -3 -1
-11 -7 -17z"/>
<path d="M508 3 c6 -2 18 -2 25 0 6 3 1 5 -13 5 -14 0 -19 -2 -12 -5z"/>
</g>
</svg>
