<?xml version="1.0" standalone="no"?>
<!DOCTYPE svg PUBLIC "-//W3C//DTD SVG 20010904//EN"
 "http://www.w3.org/TR/2001/REC-SVG-20010904/DTD/svg10.dtd">
<svg version="1.0" xmlns="http://www.w3.org/2000/svg"
 width="180.000000pt" height="107.000000pt" viewBox="0 0 180.000000 107.000000"
 preserveAspectRatio="xMidYMid meet">
<metadata>
Created by potrace 1.16, written by Peter Selinger 2001-2019
</metadata>
<g transform="translate(0.000000,107.000000) scale(0.100000,-0.100000)"
fill="#000000" stroke="none">
<path d="M798 973 c-19 -22 -51 -83 -43 -83 4 0 -3 -13 -15 -30 -12 -16 -30
-30 -41 -30 -11 0 -29 -5 -41 -11 -11 -6 -65 -10 -120 -10 -104 1 -104 1 -214
67 -40 23 -42 23 -62 7 -14 -13 -21 -35 -25 -75 -3 -32 -2 -58 3 -58 4 0 8
-63 8 -141 l1 -140 -42 3 -42 3 -3 49 c-3 47 21 145 38 156 4 3 11 26 15 53
l7 47 -35 0 c-20 0 -38 -4 -41 -8 -3 -5 -8 -58 -11 -118 -9 -166 -12 -177 -39
-170 -32 8 -41 -7 -56 -87 -14 -74 -8 -94 19 -61 9 12 27 24 38 28 20 6 22 2
29 -50 7 -61 24 -57 24 8 0 49 9 68 31 68 10 0 19 7 19 15 0 8 9 15 20 15 17
0 20 -7 20 -45 0 -59 16 -58 23 1 6 56 17 70 46 55 17 -9 21 -21 21 -56 0 -58
17 -58 26 0 7 47 24 65 63 65 18 0 21 -6 21 -51 0 -58 15 -58 25 1 4 22 11 43
16 46 18 11 38 -17 41 -59 4 -41 4 -41 11 -12 14 51 22 60 58 60 l34 0 3 -115
c3 -116 14 -159 27 -101 4 17 10 31 13 31 8 0 38 -66 48 -104 9 -37 20 -40 41
-10 33 47 203 213 226 220 12 4 24 10 27 13 18 24 171 101 200 101 4 0 10 -23
14 -50 10 -72 32 -67 29 6 -1 47 2 60 22 80 13 13 35 26 49 30 21 5 31 0 53
-27 16 -18 39 -42 51 -54 13 -11 30 -32 38 -47 7 -14 32 -48 55 -74 37 -43 40
-51 39 -103 -3 -90 -1 -111 10 -111 6 0 10 17 10 38 0 54 27 227 51 329 32
133 88 268 121 291 10 8 18 21 16 30 -2 13 -17 15 -78 13 -41 -1 -90 -7 -108
-14 l-34 -12 7 -207 c5 -171 4 -208 -7 -208 -14 0 -88 92 -88 109 0 4 -7 14
-15 21 -31 26 -17 117 28 183 27 39 11 48 -18 10 -14 -17 -48 -40 -79 -53 -56
-22 -72 -43 -60 -75 8 -19 -10 -35 -38 -35 -37 0 -13 168 24 171 26 2 53 -3
66 -13 7 -6 16 -8 19 -4 9 9 -15 25 -49 32 -17 4 -28 14 -30 28 -2 16 -12 22
-43 27 -22 3 -49 10 -60 16 -11 6 -35 17 -52 23 -18 7 -52 25 -76 40 -39 25
-43 31 -39 59 5 35 -16 44 -25 11 -6 -23 -7 -23 -72 -9 -37 8 -58 20 -80 45
-35 39 -42 41 -63 17z m117 -84 l40 -17 -35 -5 c-69 -11 -160 -18 -160 -12 0
4 12 26 26 51 l26 44 31 -22 c17 -13 49 -30 72 -39z m-576 -69 c46 -32 44 -35
-26 -43 -43 -5 -43 -5 -43 27 0 55 9 57 69 16z m511 10 c0 -5 -12 -10 -27 -10
-22 0 -25 2 -13 10 20 13 40 13 40 0z m147 -22 c-3 -8 -6 -5 -6 6 -1 11 2 17
5 13 3 -3 4 -12 1 -19z m-207 2 c0 -5 -5 -10 -11 -10 -5 0 -7 5 -4 10 3 6 8
10 11 10 2 0 4 -4 4 -10z m353 -29 c25 -11 51 -30 58 -42 11 -21 20 -229 10
-229 -3 0 -13 7 -23 17 -14 12 -18 31 -18 82 0 64 -1 67 -30 79 -31 14 -90 86
-90 110 0 17 25 12 93 -17z m-417 -13 c-9 -12 -16 -34 -16 -48 -1 -38 -25
-122 -33 -114 -9 9 -9 136 -1 158 3 9 14 16 24 16 11 0 22 5 25 11 4 6 9 8 12
5 3 -2 -2 -15 -11 -28z m48 -90 c-1 -62 -5 -164 -9 -226 -7 -108 -9 -114 -32
-123 -13 -5 -33 -9 -44 -9 -20 0 -20 4 -14 103 5 70 15 122 32 167 14 36 29
87 35 115 8 43 24 85 31 85 1 0 1 -51 1 -112z m126 97 c0 -8 -4 -15 -10 -15
-5 0 -7 7 -4 15 4 8 8 15 10 15 2 0 4 -7 4 -15z m-266 -156 c-1 -89 -6 -165
-11 -170 -6 -6 -23 -4 -43 2 l-33 12 6 93 c4 51 13 109 21 128 15 37 13 46
-15 46 -32 0 -43 -39 -41 -148 2 -56 0 -107 -3 -112 -4 -7 -14 -6 -27 1 -18
10 -20 19 -16 122 2 98 1 112 -14 115 -17 3 -38 -20 -22 -25 5 -2 8 -49 6
-109 l-3 -105 -32 3 -32 3 -3 79 c-2 55 2 91 13 118 16 41 13 58 -9 58 -32 0
-41 -32 -41 -144 l0 -111 -30 0 -30 0 1 75 c2 76 20 188 34 203 12 14 105 24
221 26 l106 1 -3 -161z m358 147 c31 -16 129 -98 124 -104 -2 -1 -38 13 -81
33 -42 20 -79 34 -82 31 -3 -3 -7 -19 -8 -36 -2 -17 -10 -39 -19 -49 -24 -26
-10 -31 42 -15 61 20 120 25 128 12 9 -14 -34 -52 -75 -66 -40 -14 -110 -15
-131 -2 -12 7 -12 15 -3 42 6 18 14 56 18 83 12 86 30 101 87 71z m702 -13
c-4 -10 -28 -79 -54 -153 l-47 -134 -7 142 c-4 78 -5 146 -1 152 3 5 31 10 62
10 49 0 54 -2 47 -17z m-844 -118 c-11 -61 -13 -239 -3 -249 4 -3 16 4 28 18
93 109 164 166 204 166 22 0 94 -76 85 -91 -10 -17 -150 -77 -238 -103 -109
-32 -125 -35 -131 -26 -9 14 16 244 32 303 20 69 35 56 23 -18z m160 24 c0 -5
-9 -9 -20 -9 -19 0 -26 11 -14 23 8 8 34 -3 34 -14z m403 -59 c-7 -26 -22 -35
-35 -22 -15 15 -2 42 21 42 14 0 18 -5 14 -20z m-463 -82 c0 -6 -18 -28 -40
-48 l-40 -37 0 42 c0 23 3 45 7 48 11 12 73 8 73 -5z m-836 -95 c5 -11 -1 -23
-16 -35 -19 -14 -24 -14 -26 -3 -4 17 15 55 27 55 5 0 12 -8 15 -17z m751
-129 c-27 -26 -69 -64 -91 -86 -45 -43 -44 -43 -65 26 -9 32 3 56 28 56 11 0
14 -10 11 -37 -4 -46 14 -46 25 -1 5 18 12 36 16 41 6 6 109 46 121 46 3 0
-17 -20 -45 -45z"/>
</g>
</svg>
