<?xml version="1.0" standalone="no"?>
<!DOCTYPE svg PUBLIC "-//W3C//DTD SVG 20010904//EN"
 "http://www.w3.org/TR/2001/REC-SVG-20010904/DTD/svg10.dtd">
<svg version="1.0" xmlns="http://www.w3.org/2000/svg"
 width="155.000000pt" height="85.000000pt" viewBox="0 0 155.000000 85.000000"
 preserveAspectRatio="xMidYMid meet">
<metadata>
Created by potrace 1.16, written by Peter Selinger 2001-2019
</metadata>
<g transform="translate(0.000000,85.000000) scale(0.100000,-0.100000)"
fill="#000000" stroke="none">
<path d="M673 798 c-6 -7 -13 -22 -17 -33 -7 -23 -47 -69 -73 -84 -10 -5 -14
-13 -10 -17 4 -5 17 -3 27 4 31 19 46 15 115 -35 60 -43 78 -63 56 -63 -5 0
-9 -44 -10 -97 -1 -91 -3 -100 -27 -120 -14 -13 -32 -23 -41 -23 -21 0 -13 71
21 184 15 49 25 90 24 92 -2 1 -22 0 -45 -3 -55 -7 -62 -27 -56 -167 3 -59 2
-118 -1 -130 -6 -25 -72 -61 -82 -45 -9 15 5 141 22 196 8 26 19 71 24 98 5
28 12 60 16 73 6 21 4 22 -50 22 -51 0 -57 -2 -66 -25 -12 -32 -39 -32 -146
-4 -43 11 -93 24 -109 28 -17 4 -46 15 -65 23 -71 32 -88 32 -107 -4 -10 -18
-18 -53 -20 -76 -1 -24 -7 -50 -14 -58 -14 -18 -17 -87 -6 -134 8 -31 13 -126
16 -292 1 -36 5 -48 16 -48 8 0 16 1 16 3 1 1 4 53 8 116 5 91 9 116 23 124
12 8 21 7 32 -2 13 -11 16 -34 16 -107 0 -52 4 -94 9 -94 10 0 21 73 21 141 0
53 20 82 54 77 19 -3 21 -11 26 -91 5 -96 24 -119 27 -35 6 109 19 137 58 122
12 -5 14 -24 12 -94 -1 -49 1 -92 6 -96 18 -18 31 20 31 92 1 63 4 78 20 90
23 16 75 19 77 4 3 -30 1 -49 -11 -87 -12 -39 -11 -44 14 -88 14 -26 26 -54
26 -62 0 -8 7 -13 16 -11 9 2 27 32 43 73 18 47 34 73 50 82 13 6 30 25 37 42
13 32 58 61 89 58 14 -2 23 7 29 30 7 21 20 36 37 44 15 6 42 22 60 35 18 13
41 24 52 24 25 0 103 -67 118 -102 13 -32 30 -36 54 -12 21 22 76 33 158 34
101 0 87 29 -16 31 -93 2 -137 27 -80 46 31 11 152 5 168 -8 6 -4 12 -42 13
-83 3 -75 3 -75 -25 -82 -15 -3 -35 -8 -44 -10 -27 -7 -200 24 -225 41 -49 32
-104 12 -104 -39 0 -18 -7 -56 -16 -85 -8 -29 -13 -55 -10 -59 3 -3 29 11 58
30 74 48 92 54 258 78 108 15 110 14 110 -93 0 -86 1 -90 17 -74 14 14 18 40
20 134 4 133 29 258 76 367 16 39 30 90 31 114 l1 45 -54 13 c-62 14 -80 10
-82 -17 -1 -10 -3 -23 -4 -29 -1 -5 -3 -17 -4 -25 -2 -24 -90 -19 -166 10 -76
28 -95 25 -96 -19 0 -17 -2 -42 -5 -55 -2 -14 1 -28 8 -32 7 -5 13 -16 13 -26
0 -16 8 -18 78 -14 111 5 167 -5 167 -30 0 -23 -38 -25 -150 -5 -50 9 -79 10
-87 4 -7 -6 -12 -31 -11 -59 0 -28 -2 -53 -6 -56 -4 -4 -18 6 -32 22 -22 28
-24 36 -19 108 5 91 -4 97 -59 42 -20 -19 -39 -35 -44 -35 -5 0 -19 11 -32 25
-13 14 -27 25 -32 25 -4 0 -35 21 -68 46 -46 36 -63 57 -75 93 -32 92 -51 115
-72 89z m801 -106 c6 -10 -12 -74 -40 -142 l-18 -45 -7 34 c-4 18 -3 47 3 62
6 16 7 37 4 46 -11 28 42 70 58 45z m-1301 -64 l42 -22 -53 -9 c-30 -5 -56 -6
-59 -3 -9 8 6 56 18 56 5 0 29 -10 52 -22z m992 16 c13 -5 14 -8 3 -15 -20
-13 -38 -11 -38 6 0 16 9 19 35 9z m193 -56 c3 -28 2 -28 -50 -27 -29 0 -75 9
-103 19 -49 17 -49 18 -25 28 14 6 59 10 100 9 74 -2 75 -2 78 -29z m-788 -5
c-5 -16 -11 -35 -13 -43 -3 -8 -6 4 -6 28 -1 30 3 42 13 42 12 0 13 -6 6 -27z
m-149 -14 l76 -11 6 -90 c3 -49 4 -95 1 -103 -6 -15 -50 -26 -71 -18 -15 6
-12 38 10 100 13 39 10 43 -42 50 l-41 6 0 -77 c0 -74 -1 -76 -25 -76 -28 0
-29 8 -25 108 2 47 0 52 -19 52 -12 0 -21 -6 -22 -12 -1 -7 -2 -42 -2 -78 -2
-57 -4 -65 -22 -68 -39 -5 -47 10 -30 57 8 24 15 54 15 67 0 26 -30 47 -62 42
-20 -3 -21 -8 -19 -87 2 -74 0 -83 -14 -77 -9 3 -21 6 -27 6 -10 0 -7 21 19
133 l15 67 37 1 c20 1 50 0 66 0 17 -1 39 5 50 13 11 8 27 13 35 11 8 -2 49
-9 91 -16z m265 -26 c-10 -10 -19 5 -10 18 6 11 8 11 12 0 2 -7 1 -15 -2 -18z
m219 -54 c8 -24 6 -27 -59 -64 l-49 -28 6 53 c4 29 13 63 22 77 l16 24 29 -21
c16 -11 32 -30 35 -41z m106 -2 c-7 -7 -12 -5 -17 7 -4 11 -1 21 7 27 17 11
26 -18 10 -34z m-930 -13 c-9 -28 -9 -29 -10 -3 -1 14 2 29 6 32 11 12 13 2 4
-29z m329 -29 c0 -8 -4 -15 -10 -15 -5 0 -10 7 -10 15 0 8 5 15 10 15 6 0 10
-7 10 -15z m682 -204 c5 -4 -17 -19 -47 -34 -30 -14 -56 -23 -58 -19 -2 4 0
22 5 40 8 31 10 32 51 26 23 -4 45 -10 49 -13z m-509 -53 l-28 -53 -3 33 c-4
35 19 72 45 72 9 0 5 -15 -14 -52z"/>
</g>
</svg>
