<?xml version="1.0" standalone="no"?>
<!DOCTYPE svg PUBLIC "-//W3C//DTD SVG 20010904//EN"
 "http://www.w3.org/TR/2001/REC-SVG-20010904/DTD/svg10.dtd">
<svg version="1.0" xmlns="http://www.w3.org/2000/svg"
 width="97.000000pt" height="64.000000pt" viewBox="0 0 97.000000 64.000000"
 preserveAspectRatio="xMidYMid meet">
<metadata>
Created by potrace 1.16, written by Peter Selinger 2001-2019
</metadata>
<g transform="translate(0.000000,64.000000) scale(0.100000,-0.100000)"
fill="#000000" stroke="none">
<path d="M292 584 c-13 -9 -34 -17 -47 -19 -14 -1 -40 -14 -59 -29 -19 -14
-41 -26 -50 -26 -33 0 -27 -24 15 -61 l44 -39 -35 10 c-19 5 -45 15 -57 21
-19 10 -26 9 -42 -5 -20 -18 -52 -102 -43 -111 7 -7 74 5 87 16 6 4 20 8 30 8
123 3 548 -1 564 -4 12 -2 47 -5 77 -6 30 -1 57 -6 59 -10 14 -21 -146 -119
-196 -119 -29 0 -30 -16 -4 -68 14 -28 25 -54 24 -59 -7 -43 24 -44 42 0 13
34 88 151 112 177 8 8 24 23 36 33 17 14 21 24 16 40 -4 12 -9 52 -12 88 -4
58 -2 71 19 105 13 21 28 44 31 51 16 26 -13 21 -54 -11 -24 -18 -53 -36 -64
-40 -11 -3 -31 -15 -44 -25 l-23 -18 48 -54 48 -54 -29 -3 c-17 -2 -71 -1
-122 3 l-92 7 -26 40 c-22 34 -26 49 -22 84 5 49 3 50 -40 29 -57 -29 -57 -38
-3 -89 28 -26 50 -52 50 -57 0 -5 -13 -9 -28 -9 -22 0 -34 9 -56 43 -25 38
-28 48 -22 100 6 63 -1 70 -44 40 -58 -39 -56 -48 33 -143 l32 -35 -28 -3
c-26 -3 -66 28 -67 52 0 5 -11 24 -25 42 -19 25 -23 38 -17 51 14 28 23 73 14
73 -4 0 -18 -7 -30 -16z m528 -99 c0 -15 -6 -25 -14 -25 -23 0 -28 17 -10 34
21 21 24 20 24 -9z m-549 -6 c27 -19 65 -76 57 -84 -9 -9 -84 16 -95 31 -19
26 -16 74 5 74 2 0 17 -9 33 -21z m-149 -86 c56 -18 51 -24 -31 -38 -39 -6
-43 -5 -38 10 4 9 7 23 7 31 0 18 0 18 62 -3z m628 -191 c0 -4 -14 -23 -31
-41 -24 -27 -33 -31 -39 -20 -6 9 -1 23 17 41 25 27 53 37 53 20z"/>
</g>
</svg>
