<?xml version="1.0" standalone="no"?>
<!DOCTYPE svg PUBLIC "-//W3C//DTD SVG 20010904//EN"
 "http://www.w3.org/TR/2001/REC-SVG-20010904/DTD/svg10.dtd">
<svg version="1.0" xmlns="http://www.w3.org/2000/svg"
 width="106.000000pt" height="87.000000pt" viewBox="0 0 106.000000 87.000000"
 preserveAspectRatio="xMidYMid meet">
<metadata>
Created by potrace 1.16, written by Peter Selinger 2001-2019
</metadata>
<g transform="translate(0.000000,87.000000) scale(0.100000,-0.100000)"
fill="#000000" stroke="none">
<path d="M128 832 c-20 -4 -24 -32 -7 -49 8 -8 7 -30 -4 -79 -9 -38 -15 -69
-14 -70 1 -1 58 2 127 6 151 9 566 8 575 -2 4 -4 5 -15 1 -24 -5 -14 -14 -15
-49 -9 -23 4 -55 6 -72 6 -16 -1 -137 -3 -268 -5 -209 -3 -240 -5 -256 -21
-12 -10 -38 -17 -67 -18 -55 -2 -81 -27 -52 -49 24 -18 46 -120 59 -278 6 -74
13 -137 15 -139 10 -11 18 15 24 90 4 47 13 86 21 93 24 23 79 37 99 26 23
-13 27 -26 35 -128 4 -45 11 -82 15 -82 13 0 19 64 13 144 l-6 76 137 0 c113
0 138 -3 142 -15 4 -8 1 -22 -6 -30 -7 -8 -9 -15 -5 -15 5 0 1 -8 -7 -17 -9
-10 -21 -36 -27 -58 -7 -22 -19 -57 -28 -78 -22 -51 -9 -58 28 -14 32 39 53
47 63 22 9 -24 26 -17 37 15 9 23 22 34 67 51 54 20 97 27 107 17 2 -2 5 -18
7 -36 3 -40 19 -36 30 6 8 30 11 32 53 32 25 0 45 5 45 10 0 6 -10 10 -22 10
-13 0 -34 3 -47 7 -23 6 -24 7 -18 97 4 64 16 122 41 198 44 135 54 196 34
203 -8 3 -55 8 -104 10 -49 2 -134 6 -189 9 -55 3 -147 8 -203 10 -104 5 -162
18 -257 60 -27 12 -58 20 -67 18z m103 -84 c22 -6 39 -14 39 -17 0 -3 -22 -13
-49 -22 -48 -15 -50 -14 -55 5 -5 18 8 46 22 46 2 0 22 -5 43 -12z m567 -43
c6 -3 12 -13 12 -24 0 -19 -5 -20 -72 -15 -61 4 -327 12 -447 14 -47 0 -33 10
36 24 53 12 435 12 471 1z m110 -39 c5 -43 -31 -176 -48 -176 -18 0 -26 161
-9 191 16 31 53 21 57 -15z m-390 -96 l52 0 0 -34 0 -35 -177 6 c-98 3 -182 9
-186 13 -5 4 -4 17 2 29 10 18 23 21 99 24 48 2 103 2 122 0 19 -1 59 -3 88
-3z m281 -41 c0 -28 5 -67 10 -87 5 -20 11 -75 13 -122 l3 -85 -35 3 c-44 5
-128 31 -136 44 -3 5 2 18 12 29 17 18 17 20 -1 33 -18 13 -18 15 2 67 11 30
29 80 39 112 18 56 19 57 55 57 l36 0 2 -51z m-119 32 c0 -17 -23 -76 -38 -96
-10 -14 -13 -15 -9 -3 3 9 -1 22 -9 28 -19 17 -18 36 6 60 20 20 50 27 50 11z
m-500 -10 c-1 -18 -48 -133 -52 -125 -3 5 -11 31 -18 57 -11 42 -11 49 4 60
18 13 66 19 66 8z m64 -108 c-1 -18 2 -33 7 -33 14 0 10 -30 -5 -36 -21 -8
-87 23 -81 38 24 68 25 69 53 66 24 -3 27 -7 26 -35z m73 3 c-4 -9 -11 -16
-17 -16 -11 0 -14 33 -3 43 11 11 26 -10 20 -27z m260 25 c4 -2 24 -113 21
-116 -18 -19 -249 -5 -272 16 -23 21 17 29 132 30 68 0 122 4 122 9 0 17 -51
23 -136 17 -46 -3 -86 -2 -89 3 -11 18 8 39 38 43 25 3 174 1 184 -2z m16
-301 c-14 -14 -15 -13 -9 10 3 14 6 34 7 45 0 14 3 11 10 -10 6 -23 5 -33 -8
-45z"/>
</g>
</svg>
