<?xml version="1.0" standalone="no"?>
<!DOCTYPE svg PUBLIC "-//W3C//DTD SVG 20010904//EN"
 "http://www.w3.org/TR/2001/REC-SVG-20010904/DTD/svg10.dtd">
<svg version="1.0" xmlns="http://www.w3.org/2000/svg"
 width="163.000000pt" height="97.000000pt" viewBox="0 0 163.000000 97.000000"
 preserveAspectRatio="xMidYMid meet">
<metadata>
Created by potrace 1.16, written by Peter Selinger 2001-2019
</metadata>
<g transform="translate(0.000000,97.000000) scale(0.100000,-0.100000)"
fill="#000000" stroke="none">
<path d="M628 903 c-8 -10 -26 -40 -39 -66 -24 -50 -58 -82 -94 -88 -17 -4
-21 -14 -25 -64 -5 -57 -6 -60 -30 -58 -14 1 -63 5 -110 8 -72 5 -91 10 -128
36 -61 42 -77 39 -96 -20 -18 -56 -20 -88 -7 -93 5 -1 12 -34 16 -71 6 -62 4
-69 -13 -74 -15 -3 -21 -17 -26 -53 -4 -26 -13 -53 -21 -60 -8 -7 -15 -20 -15
-29 0 -12 7 -9 25 12 14 15 33 27 42 27 13 0 14 -9 9 -55 -3 -30 -3 -62 1 -71
10 -28 23 6 23 66 1 67 16 90 59 90 l32 0 -1 -57 c-2 -77 -2 -79 11 -66 6 6
13 33 16 59 5 50 16 66 40 57 8 -3 13 -22 13 -55 0 -30 4 -47 10 -43 6 3 10
16 10 29 0 12 11 33 25 46 l25 23 1 -34 c0 -19 4 -43 9 -54 7 -15 9 -9 9 26 1
50 18 73 48 67 14 -3 20 -17 25 -71 5 -37 16 -84 27 -105 10 -20 22 -52 26
-69 12 -57 38 -53 51 9 4 15 22 46 42 69 20 23 46 60 58 83 16 31 36 49 86 76
36 19 72 40 79 46 8 7 43 28 79 47 61 33 68 34 95 22 58 -27 68 -40 60 -84 -5
-29 -3 -41 5 -41 9 0 7 -8 -4 -25 -9 -13 -16 -36 -16 -51 0 -23 3 -25 23 -19
32 10 161 23 240 24 104 1 72 21 -36 22 -114 1 -171 16 -175 47 -4 26 19 30
41 7 13 -12 15 -12 20 4 6 23 75 34 177 29 l65 -3 3 -107 c1 -60 6 -108 11
-108 9 0 21 105 21 190 0 61 29 181 53 226 21 38 57 149 57 174 0 18 -7 20
-86 20 l-86 0 7 -30 7 -30 -109 0 c-68 1 -123 6 -148 15 -67 24 -75 21 -75
-30 0 -25 4 -45 9 -45 5 0 11 -8 15 -17 3 -10 8 -23 11 -29 6 -11 -85 -84
-104 -84 -5 0 -33 23 -62 51 -30 27 -81 69 -114 91 -79 55 -120 111 -146 203
-12 41 -25 75 -29 75 -4 0 -14 -8 -22 -17z m31 -104 c7 -23 15 -47 18 -55 4
-11 -1 -12 -23 -5 -16 5 -41 12 -56 15 -35 8 -35 16 -2 55 34 41 48 39 63 -10z
m861 -78 c12 -8 12 -17 -4 -68 -10 -32 -24 -67 -31 -79 -7 -11 -19 -41 -26
-65 l-13 -44 -8 75 c-5 41 -7 97 -6 125 3 43 6 50 28 56 36 10 43 10 60 0z
m-899 -16 c35 -18 31 -30 -17 -50 -27 -11 -34 -20 -34 -42 -1 -15 -2 -97 -3
-181 -2 -139 -4 -155 -22 -168 -10 -8 -24 -13 -30 -11 -15 6 -14 313 3 329 7
7 12 37 12 68 0 31 3 60 7 63 11 12 53 8 84 -8z m-124 -57 c-3 -8 -6 -5 -6 6
-1 11 2 17 5 13 3 -3 4 -12 1 -19z m264 -9 c15 -10 30 -19 34 -19 9 0 162
-118 171 -131 8 -14 -24 -41 -91 -75 -27 -14 -57 -29 -65 -33 -59 -32 -82 -42
-86 -38 -6 6 44 47 86 70 18 10 30 20 28 23 -3 2 -19 -3 -36 -13 -17 -10 -34
-15 -37 -11 -9 9 21 65 40 71 21 9 45 -2 45 -20 0 -8 5 -13 12 -11 27 9 17 28
-29 55 -64 37 -78 50 -110 100 -15 24 -31 43 -35 43 -4 0 -8 5 -8 11 0 15 47
3 81 -22z m-582 -3 l23 -24 -24 -4 c-12 -2 29 -4 92 -5 63 0 134 -3 158 -7
l43 -8 -3 -114 -2 -114 -26 0 c-37 0 -39 5 -24 57 18 61 18 89 -3 97 -24 10
-33 -11 -33 -81 0 -55 -2 -63 -19 -63 -25 0 -31 27 -20 87 11 59 6 81 -16 63
-11 -9 -15 -32 -15 -81 0 -70 -6 -84 -34 -73 -21 8 -21 72 -1 120 17 42 13 54
-21 54 -26 0 -28 -12 -24 -117 1 -41 0 -43 -29 -43 -16 0 -32 4 -35 9 -3 4 6
37 19 72 26 66 25 98 -3 100 -17 2 -37 5 -56 8 -6 0 -1 8 10 16 17 13 17 14 2
15 -20 0 -21 4 -12 38 8 29 25 28 53 -2z m1221 9 c0 -13 -20 -15 -134 -15 -74
0 -137 4 -141 9 -8 13 22 17 158 20 100 1 117 0 117 -14z m-728 -45 c6 0 4 -8
-5 -18 -9 -10 -17 -38 -18 -63 -3 -82 3 -199 10 -199 10 0 31 141 31 202 0 55
12 67 34 34 8 -14 25 -27 36 -31 23 -7 26 -22 6 -44 -8 -9 -33 -53 -56 -99
-41 -82 -61 -102 -99 -102 -20 0 -21 4 -17 113 6 169 20 225 53 212 8 -3 19
-5 25 -5z m726 -39 c3 -29 1 -33 -15 -26 -10 5 -60 10 -110 11 -95 3 -133 9
-133 23 0 16 66 27 160 26 l95 0 3 -34z m-1222 -32 c3 -6 0 -30 -7 -53 l-14
-41 -6 30 c-11 52 -10 75 5 75 8 0 18 -5 22 -11z m906 -25 c-5 -28 -20 -40
-33 -27 -8 8 -7 17 3 32 15 25 34 22 30 -5z m322 7 c14 -21 -7 -37 -52 -40
-63 -4 -65 -4 -159 4 -82 8 -106 25 -35 25 20 0 44 5 52 10 19 12 187 13 194
1z m4 -93 c4 -42 8 -40 -93 -40 -69 1 -129 11 -172 28 -59 25 -27 39 93 40 58
1 108 5 112 8 3 4 18 6 32 4 21 -3 25 -9 28 -40z m-1301 -80 c-3 -8 -6 -5 -6
6 -1 11 2 17 5 13 3 -3 4 -12 1 -19z m536 -84 c8 -8 -84 -134 -95 -128 -4 3
-8 14 -8 24 0 10 -4 22 -10 25 -5 3 -10 17 -10 31 0 19 5 24 28 24 15 1 38 7
52 15 28 16 34 17 43 9z"/>
</g>
</svg>
