<?xml version="1.0" standalone="no"?>
<!DOCTYPE svg PUBLIC "-//W3C//DTD SVG 20010904//EN"
 "http://www.w3.org/TR/2001/REC-SVG-20010904/DTD/svg10.dtd">
<svg version="1.0" xmlns="http://www.w3.org/2000/svg"
 width="169.000000pt" height="78.000000pt" viewBox="0 0 169.000000 78.000000"
 preserveAspectRatio="xMidYMid meet">
<metadata>
Created by potrace 1.16, written by Peter Selinger 2001-2019
</metadata>
<g transform="translate(0.000000,78.000000) scale(0.100000,-0.100000)"
fill="#000000" stroke="none">
<path d="M680 705 c10 -12 8 -21 -11 -49 -12 -19 -28 -32 -33 -30 -6 2 -21
-20 -34 -49 -19 -43 -25 -49 -33 -35 -8 14 -15 15 -35 8 -14 -6 -66 -10 -115
-10 -99 0 -103 4 -73 61 23 46 14 58 -43 53 -26 -3 -52 -9 -58 -15 -5 -5 -12
-33 -15 -62 l-5 -52 -83 0 c-101 0 -105 -5 -108 -114 l-1 -73 62 7 c74 8 141
-7 147 -33 3 -9 5 -60 7 -112 1 -52 6 -99 11 -104 7 -7 10 0 11 19 1 50 9 159
14 181 4 20 6 20 87 8 124 -19 152 -26 165 -36 7 -5 21 -7 33 -3 13 4 22 1 26
-8 3 -8 14 -17 25 -20 10 -3 19 -12 19 -21 0 -9 8 -16 20 -16 12 0 20 -7 20
-16 0 -19 25 -13 26 7 1 14 54 137 74 171 12 22 13 28 1 28 -5 0 -13 -10 -16
-22 -4 -13 -13 -36 -20 -53 -7 -16 -18 -45 -25 -62 -14 -38 -50 -47 -50 -13 0
11 -7 20 -15 20 -9 0 -18 7 -21 15 -8 19 22 65 41 65 18 0 19 -14 4 -42 -6
-11 -8 -22 -5 -25 8 -8 88 165 83 180 -2 7 -13 -9 -25 -35 -20 -46 -35 -58
-46 -39 -3 5 8 41 24 81 32 77 36 95 20 85 -5 -3 -10 -12 -10 -20 0 -24 -45
-115 -56 -115 -6 0 -17 7 -24 15 -10 12 -7 24 15 62 15 27 38 67 51 91 17 29
21 42 12 42 -8 0 -33 -39 -56 -86 -44 -88 -65 -102 -70 -47 -2 21 3 37 16 50
11 10 27 33 36 51 9 18 30 51 45 75 29 42 27 56 -8 57 -11 0 -11 -3 -1 -15z
m-360 -95 c0 -28 -21 -70 -36 -70 -15 0 -30 63 -19 79 3 6 17 11 31 11 17 0
24 -5 24 -20z m196 -112 c-3 -18 -18 -45 -33 -60 l-27 -28 23 -24 c13 -13 21
-32 19 -43 -3 -16 -13 -18 -70 -16 -84 3 -142 28 -146 64 -2 14 5 48 15 75
l19 49 69 6 c147 12 138 13 131 -23z m-405 -18 c-21 -18 -51 -27 -51 -16 0 23
16 36 44 36 l31 -1 -24 -19z m113 14 c22 -8 23 -114 2 -114 -25 0 -151 31
-159 39 -11 11 15 30 80 57 68 28 58 25 77 18z m326 -24 c0 -25 -11 -51 -19
-46 -4 3 -5 21 -3 40 4 36 22 41 22 6z m46 -45 c7 -17 -14 -75 -26 -75 -4 0
-13 7 -20 15 -10 12 -10 21 0 45 13 32 37 40 46 15z m54 -59 c0 -30 -33 -72
-48 -62 -15 9 -15 28 0 61 15 33 48 34 48 1z m-105 -64 c-21 -5 -40 12 -30 28
5 8 13 6 27 -7 18 -16 19 -18 3 -21z"/>
<path d="M636 664 c-4 -9 -4 -19 -1 -22 2 -3 7 3 11 12 4 9 4 19 1 22 -2 3 -7
-3 -11 -12z"/>
<path d="M880 621 c-5 -11 -10 -32 -10 -48 l0 -29 143 1 c142 0 276 -14 437
-45 l85 -16 -52 -17 c-29 -10 -74 -20 -100 -23 -27 -4 -95 -20 -153 -36 -166
-47 -297 -62 -363 -43 -46 12 -73 -7 -92 -67 -10 -29 -33 -84 -51 -123 -18
-38 -35 -83 -39 -100 -6 -29 -5 -29 13 6 10 20 44 68 75 107 60 75 74 101 32
62 l-24 -23 5 28 c8 46 33 85 54 85 28 0 33 -16 13 -47 l-17 -28 26 23 c22 20
26 21 32 7 3 -9 6 -25 6 -36 0 -26 22 -24 50 6 13 14 27 25 31 25 5 0 24 11
43 24 38 25 189 76 297 100 184 41 339 80 339 86 0 3 -23 3 -51 1 -28 -2 -81
4 -118 12 -36 9 -84 18 -106 21 -159 21 -322 53 -390 77 -95 34 -101 35 -115
10z m62 -32 c17 -9 18 -13 7 -20 -14 -9 -59 -13 -59 -5 0 2 3 11 6 20 7 19 18
20 46 5z m78 -253 c0 -4 -78 -56 -85 -56 -14 0 -2 31 17 44 20 14 68 23 68 12z"/>
</g>
</svg>
