<?xml version="1.0" standalone="no"?>
<!DOCTYPE svg PUBLIC "-//W3C//DTD SVG 20010904//EN"
 "http://www.w3.org/TR/2001/REC-SVG-20010904/DTD/svg10.dtd">
<svg version="1.0" xmlns="http://www.w3.org/2000/svg"
 width="98.000000pt" height="71.000000pt" viewBox="0 0 98.000000 71.000000"
 preserveAspectRatio="xMidYMid meet">
<metadata>
Created by potrace 1.16, written by Peter Selinger 2001-2019
</metadata>
<g transform="translate(0.000000,71.000000) scale(0.100000,-0.100000)"
fill="#000000" stroke="none">
<path d="M530 644 c-22 -20 -40 -41 -40 -47 0 -6 11 -22 24 -36 13 -15 31 -38
41 -53 17 -27 17 -28 -10 -38 -19 -7 -33 -6 -54 5 -35 18 -41 32 -41 101 0 65
-12 68 -59 13 l-33 -39 51 -46 c28 -25 51 -50 51 -54 0 -11 -49 -21 -116 -25
-48 -3 -56 0 -75 24 -17 21 -20 37 -17 88 3 53 2 60 -12 53 -8 -4 -30 -29 -48
-54 l-33 -45 40 -26 c46 -31 91 -92 91 -123 0 -30 8 -28 66 13 27 19 64 40 82
46 17 6 32 15 32 21 0 6 10 8 25 4 17 -4 27 -2 31 8 6 17 62 30 78 18 6 -5 37
-14 69 -21 31 -7 101 -30 154 -52 103 -42 113 -44 113 -30 0 11 -143 85 -183
95 -47 11 -77 49 -77 96 0 51 -13 51 -33 0 -19 -48 -38 -51 -65 -9 -19 31 -18
57 4 132 8 27 -13 20 -56 -19z m7 -36 c-3 -8 -6 -5 -6 6 -1 11 2 17 5 13 3 -3
4 -12 1 -19z m-162 -218 c-3 -5 -14 -10 -23 -9 -14 0 -13 2 3 9 27 11 27 11
20 0z"/>
<path d="M68 441 c-27 -27 -48 -53 -48 -57 1 -5 18 -20 40 -34 21 -14 73 -56
114 -93 67 -60 76 -73 76 -103 0 -41 10 -42 56 -8 19 15 34 21 34 15 0 -6 15
-18 33 -27 17 -9 58 -36 90 -60 97 -72 122 -55 33 22 -30 26 -57 53 -60 61 -7
18 40 100 64 113 22 12 50 13 50 3 0 -5 -16 -26 -35 -47 -19 -22 -35 -43 -35
-47 0 -8 54 -49 64 -49 4 0 24 -12 46 -26 22 -15 43 -24 46 -21 10 10 -16 46
-46 63 -39 23 -42 35 -25 89 19 66 31 78 58 61 35 -23 205 -78 224 -73 13 3 7
9 -22 21 -22 10 -53 23 -70 31 -16 7 -43 17 -60 20 -28 7 -85 58 -85 76 0 21
-30 6 -47 -24 -23 -39 -125 -83 -216 -93 -31 -3 -60 -10 -63 -15 -11 -18 -35
-8 -77 34 -49 46 -68 93 -71 168 0 27 -5 49 -11 48 -5 0 -31 -22 -57 -48z m32
-36 c0 -26 -14 -33 -25 -15 -9 14 1 40 15 40 5 0 10 -11 10 -25z m319 -191
c-7 -8 -26 -22 -43 -30 l-31 -15 35 31 c36 32 62 41 39 14z m-89 -24 c-41 -34
-50 -37 -50 -12 0 26 15 37 52 40 l33 2 -35 -30z"/>
</g>
</svg>
