<?xml version="1.0" standalone="no"?>
<!DOCTYPE svg PUBLIC "-//W3C//DTD SVG 20010904//EN"
 "http://www.w3.org/TR/2001/REC-SVG-20010904/DTD/svg10.dtd">
<svg version="1.0" xmlns="http://www.w3.org/2000/svg"
 width="64.000000pt" height="85.000000pt" viewBox="0 0 64.000000 85.000000"
 preserveAspectRatio="xMidYMid meet">
<metadata>
Created by potrace 1.16, written by Peter Selinger 2001-2019
</metadata>
<g transform="translate(0.000000,85.000000) scale(0.100000,-0.100000)"
fill="#000000" stroke="none">
<path d="M162 765 c-21 -21 -22 -26 -8 -31 9 -4 16 -18 16 -34 0 -16 6 -35 14
-43 8 -8 12 -23 10 -34 -6 -20 -2 -20 106 -17 61 2 115 6 120 9 11 7 40 -22
40 -40 0 -21 -21 -24 -131 -14 -57 4 -110 8 -116 9 -7 0 -13 -11 -13 -25 0
-28 33 -42 78 -31 15 4 62 10 105 13 l77 5 0 -30 c0 -16 -6 -32 -14 -35 -7 -3
-64 -1 -125 5 -115 11 -143 6 -125 -24 5 -7 7 -22 5 -32 -2 -15 1 -18 21 -12
12 4 39 11 59 15 19 4 40 11 46 14 6 4 38 4 72 1 l61 -7 0 -65 0 -65 -72 6
c-70 7 -97 13 -231 53 -69 20 -89 11 -67 -31 11 -20 12 -37 3 -78 -6 -29 -9
-56 -6 -60 2 -4 20 6 39 23 58 51 94 60 220 58 l114 -1 1 -86 c1 -47 4 -99 8
-116 6 -28 8 -29 18 -10 10 20 27 205 24 279 -1 58 34 222 70 327 31 88 32 92
14 105 -10 8 -38 14 -62 14 -38 0 -46 -4 -61 -30 -16 -27 -21 -30 -72 -30 -43
0 -71 8 -125 35 -38 19 -74 35 -80 35 -5 0 -21 -11 -33 -25z m397 -24 c12 -8
10 -23 -14 -98 l-29 -88 -8 40 c-9 51 -10 140 -1 148 9 10 35 8 52 -2z m-305
-30 c7 -11 -22 -23 -35 -15 -5 3 -9 9 -9 15 0 12 37 12 44 0z m194 -53 c3 -16
-6 -18 -77 -18 -44 0 -92 5 -108 11 l-28 12 25 8 c14 4 61 7 105 6 67 -2 80
-5 83 -19z m-268 -358 c13 -9 11 -13 -10 -29 -13 -11 -28 -17 -32 -15 -13 8
-9 42 5 47 18 8 21 8 37 -3z"/>
</g>
</svg>
