<?xml version="1.0" standalone="no"?>
<!DOCTYPE svg PUBLIC "-//W3C//DTD SVG 20010904//EN"
 "http://www.w3.org/TR/2001/REC-SVG-20010904/DTD/svg10.dtd">
<svg version="1.0" xmlns="http://www.w3.org/2000/svg"
 width="66.000000pt" height="94.000000pt" viewBox="0 0 66.000000 94.000000"
 preserveAspectRatio="xMidYMid meet">
<metadata>
Created by potrace 1.16, written by Peter Selinger 2001-2019
</metadata>
<g transform="translate(0.000000,94.000000) scale(0.100000,-0.100000)"
fill="#000000" stroke="none">
<path d="M117 863 c-12 -11 -8 -33 6 -33 26 0 40 -71 27 -133 -6 -30 -12 -66
-12 -79 -2 -46 -40 -158 -54 -158 -8 0 -14 -9 -14 -20 0 -11 -4 -29 -10 -40
-5 -11 -14 -29 -20 -40 -5 -11 -10 -22 -10 -25 0 -10 56 -5 67 6 11 11 90 15
100 5 3 -3 14 -1 23 4 13 7 38 3 87 -16 135 -50 123 -37 125 -139 1 -49 1
-100 0 -112 -1 -32 13 -29 26 5 11 26 14 44 28 142 3 25 13 59 23 76 46 89 62
111 91 133 41 30 29 39 -57 40 -107 1 -170 49 -183 135 -7 54 -24 55 -54 4
-16 -27 -37 -48 -56 -55 -28 -10 -30 -14 -20 -32 6 -12 21 -21 34 -21 13 0 52
-11 87 -24 l64 -24 5 -61 c3 -34 3 -61 0 -61 -10 0 -105 39 -150 61 -98 48
-134 96 -96 128 8 7 26 36 41 66 31 61 113 151 151 165 35 14 26 32 -22 47
-221 67 -218 66 -227 56z m176 -87 c25 0 22 -7 -21 -49 -41 -40 -52 -39 -52 4
0 45 10 60 34 52 11 -3 29 -7 39 -7z m51 -231 c6 -16 -3 -19 -28 -9 -22 8 -20
24 3 24 10 0 21 -7 25 -15z m196 -112 c-1 -18 -49 -65 -59 -59 -17 11 -13 37
7 52 18 14 52 19 52 7z m-391 -27 c9 -11 7 -15 -9 -19 -22 -6 -35 7 -25 23 9
14 20 13 34 -4z"/>
</g>
</svg>
