<?xml version="1.0" standalone="no"?>
<!DOCTYPE svg PUBLIC "-//W3C//DTD SVG 20010904//EN"
 "http://www.w3.org/TR/2001/REC-SVG-20010904/DTD/svg10.dtd">
<svg version="1.0" xmlns="http://www.w3.org/2000/svg"
 width="52.000000pt" height="73.000000pt" viewBox="0 0 52.000000 73.000000"
 preserveAspectRatio="xMidYMid meet">
<metadata>
Created by potrace 1.16, written by Peter Selinger 2001-2019
</metadata>
<g transform="translate(0.000000,73.000000) scale(0.100000,-0.100000)"
fill="#000000" stroke="none">
<path d="M56 671 c-3 -5 -10 -37 -15 -72 -5 -35 -12 -72 -16 -81 -9 -23 -4
-23 55 7 27 14 55 25 63 25 10 0 18 -36 30 -137 22 -174 22 -172 -8 -183 -14
-5 -27 -15 -29 -22 -12 -38 -34 -105 -41 -121 -10 -23 10 -22 42 3 14 11 35
20 47 20 12 0 26 8 32 18 6 9 28 23 48 30 32 12 40 12 63 -3 23 -16 27 -16 35
-1 5 9 29 18 58 22 28 4 50 11 50 16 0 5 -13 7 -30 3 -54 -12 -70 0 -70 53 0
63 23 167 62 284 18 54 29 100 25 104 -6 6 -63 9 -109 5 -12 -1 -18 -9 -18
-26 0 -31 -8 -31 -106 -5 -79 22 -128 43 -139 60 -8 12 -22 13 -29 1z m364
-65 c0 -20 -19 -31 -32 -18 -6 6 -7 15 -4 21 10 16 36 13 36 -3z m-294 -10
c22 -17 13 -31 -28 -41 -29 -7 -35 4 -22 39 8 20 24 20 50 2z m87 -56 c-3 -11
-9 -23 -14 -26 -10 -6 -12 29 -2 39 13 13 21 7 16 -13z m128 -125 c-5 -235 0
-210 -49 -209 -29 1 -49 7 -61 20 -17 18 -18 27 -6 144 8 77 19 138 30 158 15
29 21 33 54 30 l36 -3 -4 -140z m-151 -255 c0 -21 -20 -35 -40 -28 -12 4 16
48 31 48 5 0 9 -9 9 -20z"/>
</g>
</svg>
