<?xml version="1.0" standalone="no"?>
<!DOCTYPE svg PUBLIC "-//W3C//DTD SVG 20010904//EN"
 "http://www.w3.org/TR/2001/REC-SVG-20010904/DTD/svg10.dtd">
<svg version="1.0" xmlns="http://www.w3.org/2000/svg"
 width="75.000000pt" height="99.000000pt" viewBox="0 0 75.000000 99.000000"
 preserveAspectRatio="xMidYMid meet">
<metadata>
Created by potrace 1.16, written by Peter Selinger 2001-2019
</metadata>
<g transform="translate(0.000000,99.000000) scale(0.100000,-0.100000)"
fill="#000000" stroke="none">
<path d="M505 980 c-3 -5 -1 -10 4 -10 6 0 11 5 11 10 0 6 -2 10 -4 10 -3 0
-8 -4 -11 -10z"/>
<path d="M462 938 c-7 -7 -12 -18 -12 -25 0 -8 -16 -44 -36 -82 -28 -54 -40
-68 -54 -64 -14 4 -26 -8 -51 -52 -28 -50 -33 -55 -47 -42 -19 20 -9 45 22 57
17 6 23 15 20 27 -3 11 10 32 35 58 49 49 51 64 9 64 -18 0 -42 1 -52 3 -15 2
-24 -7 -37 -42 -20 -54 -33 -60 -47 -20 -6 16 -17 30 -25 30 -17 0 -62 -84
-53 -99 4 -6 1 -11 -7 -11 -14 0 -28 -33 -32 -73 -1 -9 -10 -26 -19 -35 -8
-10 -19 -33 -22 -50 -4 -18 -11 -35 -15 -38 -5 -3 -9 -12 -9 -19 0 -11 8 -13
32 -8 21 4 35 2 42 -8 6 -8 30 -26 54 -42 23 -15 42 -33 42 -40 0 -8 11 -20
25 -27 14 -7 25 -22 25 -32 0 -15 5 -18 20 -13 20 6 21 6 6 -30 -9 -20 -24
-48 -34 -63 -26 -39 -94 -184 -88 -190 8 -7 66 44 109 97 133 160 174 201 198
201 14 0 14 -8 -6 -67 -12 -38 -39 -108 -59 -157 -20 -50 -36 -94 -36 -98 0
-20 20 -4 46 37 36 58 112 122 186 157 63 30 72 48 32 67 l-27 12 22 20 c11
11 41 28 66 39 25 11 45 26 45 33 0 8 -19 32 -42 53 -24 21 -37 39 -30 42 17
5 15 37 -3 52 -8 6 -20 9 -27 5 -7 -4 -4 0 6 9 10 8 24 17 29 19 21 7 -2 35
-35 42 l-33 8 35 29 c29 24 32 30 20 38 -8 5 -21 10 -29 10 -11 0 -10 4 4 13
17 13 17 15 -6 30 -13 10 -29 17 -36 17 -23 0 -14 18 12 24 34 9 31 23 -7 40
-31 14 -32 15 -10 21 12 4 22 13 22 19 0 14 -52 46 -74 46 -9 0 -16 5 -16 10
0 14 -33 13 -48 -2z m68 -63 c0 -8 -5 -15 -11 -15 -6 0 -26 -12 -45 -27 l-35
-26 12 27 c7 15 24 34 38 41 34 18 41 18 41 0z m-200 -33 c0 -5 -11 -19 -25
-32 -26 -24 -33 -14 -15 21 11 19 40 27 40 11z m147 -74 c-14 -24 -39 -60 -56
-81 -16 -21 -33 -47 -36 -57 -3 -11 -14 -21 -23 -24 -20 -7 -77 -107 -87 -153
-7 -34 -20 -43 -28 -20 -6 16 41 144 66 182 11 17 35 45 53 64 19 18 38 49 44
67 7 19 16 31 24 28 6 -2 23 7 36 21 33 35 37 23 7 -27z m66 -20 c-6 -7 -29
-49 -53 -93 -51 -97 -86 -145 -105 -145 -8 0 -28 -19 -45 -42 -16 -22 -30 -36
-30 -29 0 15 26 56 67 105 18 22 33 49 33 61 0 26 57 103 82 111 10 3 18 9 18
14 0 12 31 42 38 36 2 -3 0 -11 -5 -18z m-320 -4 c9 -10 -4 -34 -19 -34 -8 0
-14 2 -14 4 0 2 -3 11 -6 20 -4 11 0 16 13 16 11 0 22 -3 26 -6z m-39 -67 c12
-9 15 -18 9 -35 l-8 -22 -39 26 c-29 20 -35 28 -25 35 20 12 42 11 63 -4z
m379 -2 c-3 -9 -8 -14 -10 -11 -3 3 -2 9 2 15 9 16 15 13 8 -4z m-298 -70
c-39 -122 -46 -135 -62 -120 -8 8 -18 15 -23 15 -15 0 -101 90 -95 100 8 13
38 13 69 -2 20 -9 24 -16 20 -35 -4 -12 -2 -23 4 -23 11 0 42 71 42 95 0 11 9
15 29 13 l29 -2 -13 -41z m275 29 c0 -3 -21 -45 -47 -94 -45 -84 -52 -118 -18
-90 8 7 32 44 52 82 19 38 37 67 40 65 7 -8 -74 -187 -85 -187 -4 0 -22 9 -41
21 -19 11 -43 18 -54 15 -16 -4 -14 1 11 27 46 48 86 98 107 135 17 28 35 42
35 26z m32 -179 c-31 -65 -45 -83 -57 -79 -10 4 -12 10 -7 18 5 6 28 44 51 84
24 41 45 71 48 68 3 -3 -13 -44 -35 -91z m13 -78 c-14 -34 -35 -50 -35 -28 0
14 44 80 48 71 1 -3 -4 -23 -13 -43z m90 44 c6 -11 -33 -36 -42 -27 -7 7 16
36 28 36 4 0 10 -4 14 -9z m-260 -22 c4 -5 -15 -33 -42 -62 -26 -29 -65 -72
-85 -97 -21 -25 -38 -39 -38 -32 0 12 87 148 118 185 17 19 38 22 47 6z m130
-110 c4 -6 13 -8 21 -5 7 3 15 2 18 -2 3 -5 -22 -25 -55 -45 -32 -20 -59 -33
-59 -28 0 12 27 74 36 84 11 10 32 9 39 -4z"/>
</g>
</svg>
