<?xml version="1.0" standalone="no"?>
<!DOCTYPE svg PUBLIC "-//W3C//DTD SVG 20010904//EN"
 "http://www.w3.org/TR/2001/REC-SVG-20010904/DTD/svg10.dtd">
<svg version="1.0" xmlns="http://www.w3.org/2000/svg"
 width="128.000000pt" height="99.000000pt" viewBox="0 0 128.000000 99.000000"
 preserveAspectRatio="xMidYMid meet">
<metadata>
Created by potrace 1.16, written by Peter Selinger 2001-2019
</metadata>
<g transform="translate(0.000000,99.000000) scale(0.100000,-0.100000)"
fill="#000000" stroke="none">
<path d="M581 844 c-45 -91 -46 -113 -9 -115 17 -1 13 -4 -14 -13 -48 -14 -68
-33 -45 -41 24 -10 8 -35 -22 -35 -57 0 -140 28 -177 58 -46 39 -60 40 -68 7
-6 -24 -10 -25 -81 -25 -72 0 -75 -1 -81 -26 -4 -14 -2 -49 5 -78 13 -59 18
-112 26 -254 2 -57 7 -108 11 -113 15 -26 24 -1 24 70 0 94 12 113 82 130 49
12 237 15 276 5 21 -6 22 -11 22 -107 0 -86 3 -107 25 -153 14 -30 28 -67 31
-84 9 -43 28 -37 42 13 6 23 29 65 51 92 23 28 46 61 53 75 16 34 79 100 95
100 7 0 13 4 13 8 0 5 26 27 58 50 132 97 169 128 161 137 -13 12 -80 -32
-249 -163 -35 -28 -66 -49 -68 -47 -16 15 100 148 156 177 17 9 32 23 32 30
-1 7 -21 28 -46 46 -47 35 -72 78 -55 95 6 6 32 -1 73 -23 35 -18 88 -46 118
-61 l55 -28 12 -73 c6 -40 15 -130 19 -200 5 -97 10 -128 21 -128 10 0 13 24
13 108 0 98 3 116 40 225 22 64 47 129 56 143 10 15 13 29 8 34 -13 12 -156
32 -165 23 -4 -4 -9 -27 -11 -51 l-3 -44 -55 31 c-30 17 -89 47 -130 67 -41
19 -89 42 -107 51 -45 22 -113 93 -120 125 -12 61 -29 52 -72 -38z m76 -39
c19 -27 28 -47 22 -51 -16 -9 -99 6 -99 18 0 23 24 78 35 77 5 0 24 -20 42
-44z m98 -102 c15 -9 15 -11 1 -26 -9 -8 -21 -17 -28 -19 -10 -4 -10 -8 0 -21
12 -14 6 -18 -50 -35 -35 -11 -65 -18 -67 -17 -1 2 5 28 14 57 9 29 18 59 21
66 4 15 79 11 109 -5z m-150 -12 c3 -5 0 -21 -7 -36 -13 -29 -41 -30 -46 -2
-6 32 37 63 53 38z m-310 -32 c4 -5 19 -15 33 -20 27 -11 26 -11 -22 -30 -28
-10 -51 -17 -53 -16 -1 2 2 20 8 40 10 37 22 46 34 26z m505 -10 c0 -5 -4 -9
-10 -9 -5 0 -10 7 -10 16 0 8 5 12 10 9 6 -3 10 -10 10 -16z m378 11 c30 0 28
-16 -9 -107 -37 -88 -44 -84 -54 36 l-7 84 23 -6 c13 -4 34 -7 47 -7z m-966
-5 c3 -3 -3 -36 -14 -73 -23 -84 -23 -82 -36 -112 l-11 -25 -2 25 c-14 162 -9
183 47 189 6 0 13 -1 16 -4z m314 -69 c3 -12 4 -49 2 -81 l-3 -60 -90 0 c-49
0 -123 6 -162 14 -69 13 -73 16 -73 41 0 14 6 33 13 42 30 37 194 79 275 70
23 -3 34 -10 38 -26z m301 -3 c64 -34 71 -48 35 -70 -15 -9 -44 -30 -65 -47
l-39 -29 -43 21 c-57 28 -66 55 -28 94 24 25 65 53 83 57 3 1 28 -11 57 -26z
m-256 -10 c-8 -15 -10 -15 -11 -2 0 17 10 32 18 25 2 -3 -1 -13 -7 -23z m28
-47 c-9 -8 -10 -7 -5 7 3 10 7 24 7 30 1 7 3 4 6 -7 3 -10 -1 -23 -8 -30z m67
-73 c41 -21 51 -30 42 -40 -6 -7 -19 -13 -29 -13 -28 0 -32 -18 -10 -46 36
-45 27 -62 -51 -104 -21 -11 -42 -20 -48 -20 -14 0 -13 137 1 145 6 4 8 13 5
21 -3 7 2 17 10 22 14 8 14 10 0 21 -18 15 -10 41 12 41 8 0 39 -12 68 -27z
m-458 -21 c2 -7 -2 -10 -12 -6 -9 3 -16 11 -16 16 0 13 23 5 28 -10z m519 -59
c-9 -9 -20 -13 -24 -9 -4 4 1 14 11 22 25 18 35 8 13 -13z m-74 -187 c-20 -31
-40 -56 -43 -56 -4 0 -11 16 -17 35 l-11 35 52 29 c28 17 52 26 54 21 2 -4
-14 -33 -35 -64z"/>
</g>
</svg>
