<?xml version="1.0" standalone="no"?>
<!DOCTYPE svg PUBLIC "-//W3C//DTD SVG 20010904//EN"
 "http://www.w3.org/TR/2001/REC-SVG-20010904/DTD/svg10.dtd">
<svg version="1.0" xmlns="http://www.w3.org/2000/svg"
 width="132.000000pt" height="72.000000pt" viewBox="0 0 132.000000 72.000000"
 preserveAspectRatio="xMidYMid meet">
<metadata>
Created by potrace 1.16, written by Peter Selinger 2001-2019
</metadata>
<g transform="translate(0.000000,72.000000) scale(0.100000,-0.100000)"
fill="#000000" stroke="none">
<path d="M615 656 c-36 -36 -74 -67 -85 -71 -27 -9 -25 -21 8 -38 114 -60 154
-96 134 -120 -6 -7 -12 -42 -13 -78 -2 -67 -11 -89 -37 -89 -21 0 -10 85 17
139 12 22 21 43 21 46 0 2 -15 3 -32 1 -18 -3 -36 -5 -40 -5 -5 -1 -8 -47 -8
-103 0 -102 -8 -133 -32 -133 -22 -1 -28 17 -28 83 0 43 7 76 21 107 24 51 20
80 -11 70 -13 -4 -30 1 -46 14 -15 12 -35 21 -45 21 -27 0 -59 -36 -59 -65 0
-28 -38 -57 -74 -57 -26 0 -86 39 -86 56 0 6 -12 22 -25 35 -14 13 -25 32 -25
42 0 39 -28 20 -89 -58 -18 -24 -30 -47 -26 -53 3 -5 25 -10 48 -10 57 0 110
-16 132 -40 17 -19 17 -20 -1 -26 -11 -4 -31 -15 -45 -25 -14 -10 -47 -23 -73
-30 l-47 -12 3 -69 c4 -105 17 -112 65 -35 28 45 139 157 154 157 6 0 27 -11
47 -25 20 -14 42 -25 49 -25 7 0 13 -10 13 -22 0 -34 11 -68 21 -68 5 0 9 33
9 73 0 72 28 198 46 204 5 2 10 -34 12 -80 1 -45 5 -98 8 -118 3 -25 0 -40
-11 -49 -24 -20 -18 -36 31 -82 44 -41 80 -94 76 -110 -1 -5 14 -8 33 -8 l36
0 -20 21 c-39 42 -45 72 -24 131 10 29 21 51 24 48 10 -8 39 21 39 40 0 17 49
89 61 90 4 0 6 -8 5 -17 -1 -22 8 -21 109 10 74 22 92 24 250 20 94 -2 180 -5
193 -7 15 -2 22 2 22 13 0 14 -14 16 -97 14 -143 -3 -251 19 -341 67 -58 32
-77 38 -88 29 -8 -6 -14 -18 -14 -25 0 -24 -29 -15 -44 14 -8 15 -24 34 -36
42 -49 33 -53 41 -47 97 3 30 15 70 26 89 40 68 16 60 -64 -20z m-1 -74 c-7
-25 -22 -29 -30 -7 -7 18 16 49 27 38 5 -5 6 -18 3 -31z m-458 -160 c-5 -9
-56 -5 -56 5 0 2 5 14 11 25 l11 20 20 -20 c11 -11 18 -24 14 -30z m284 34 c0
-3 -4 -8 -10 -11 -5 -3 -10 -1 -10 4 0 6 5 11 10 11 6 0 10 -2 10 -4z m414
-66 c25 -12 46 -25 46 -30 0 -9 -61 -30 -86 -30 -17 0 -25 27 -18 56 3 13 7
24 9 24 1 0 23 -9 49 -20z m-125 -9 c8 -14 6 -23 -9 -36 -25 -23 -34 -15 -25
24 8 35 20 40 34 12z m-333 -26 c7 -28 0 -55 -15 -55 -12 0 -41 28 -41 40 0
11 29 40 41 40 5 0 11 -11 15 -25z m-217 -121 c-24 -24 -47 -44 -51 -44 -5 0
-8 11 -8 25 0 19 11 33 47 56 62 39 68 21 12 -37z m407 -79 c-7 -28 -23 -29
-40 -2 -8 13 -6 20 9 31 25 19 39 5 31 -29z"/>
<path d="M748 3 c7 -3 16 -2 19 1 4 3 -2 6 -13 5 -11 0 -14 -3 -6 -6z"/>
<path d="M963 3 c15 -2 39 -2 55 0 15 2 2 4 -28 4 -30 0 -43 -2 -27 -4z"/>
<path d="M1073 3 c15 -2 37 -2 50 0 12 2 0 4 -28 4 -27 0 -38 -2 -22 -4z"/>
</g>
</svg>
