<?xml version="1.0" standalone="no"?>
<!DOCTYPE svg PUBLIC "-//W3C//DTD SVG 20010904//EN"
 "http://www.w3.org/TR/2001/REC-SVG-20010904/DTD/svg10.dtd">
<svg version="1.0" xmlns="http://www.w3.org/2000/svg"
 width="95.000000pt" height="76.000000pt" viewBox="0 0 95.000000 76.000000"
 preserveAspectRatio="xMidYMid meet">
<metadata>
Created by potrace 1.16, written by Peter Selinger 2001-2019
</metadata>
<g transform="translate(0.000000,76.000000) scale(0.100000,-0.100000)"
fill="#000000" stroke="none">
<path d="M738 723 c-1 -4 -2 -23 -2 -41 -1 -33 -2 -34 -96 -63 -52 -17 -122
-39 -154 -49 -41 -13 -64 -16 -77 -10 -27 15 -40 12 -37 -7 3 -19 -46 -31
-162 -37 -60 -3 -66 -6 -83 -34 -17 -28 -17 -33 -3 -61 26 -50 20 -88 -24
-152 -48 -70 -50 -84 -12 -74 84 22 133 18 256 -23 232 -75 293 -94 352 -107
32 -7 69 -17 81 -20 31 -10 40 18 42 125 1 47 4 105 7 130 6 53 57 282 80 358
9 30 14 56 11 58 -8 9 -177 15 -179 7z m142 -31 c0 -4 -4 -12 -9 -18 -4 -5
-14 -37 -20 -71 -7 -35 -18 -79 -25 -99 -12 -37 -13 -36 -28 72 -8 60 -14 112
-12 115 5 9 94 11 94 1z m-130 -84 c1 -2 3 -36 7 -75 5 -69 4 -73 -15 -73 -29
0 -31 7 -22 65 9 57 1 72 -29 56 -17 -10 -21 -21 -21 -61 0 -28 -4 -50 -9 -50
-15 0 -6 120 9 130 13 9 79 14 80 8z m-140 -88 c0 -33 -4 -60 -10 -60 -6 0
-10 27 -10 60 0 33 4 60 10 60 6 0 10 -27 10 -60z m-62 -7 c-3 -40 -6 -48 -23
-48 -28 0 -35 63 -9 82 29 21 35 15 32 -34z m-88 -19 c0 -28 -3 -35 -17 -32
-27 5 -13 66 15 68 1 0 2 -16 2 -36z m-84 -35 c1 -13 3 -66 4 -116 2 -74 5
-93 17 -93 8 0 17 9 20 20 8 30 37 20 43 -14 8 -47 30 -44 30 4 0 37 2 41 23
38 16 -2 23 -11 25 -33 2 -16 5 -36 8 -44 8 -25 34 9 34 46 0 23 4 33 13 30 7
-2 12 -23 12 -53 0 -37 4 -49 15 -49 10 0 17 14 20 45 6 55 24 55 28 0 4 -53
24 -48 34 8 4 23 10 47 13 52 11 18 53 11 60 -9 6 -21 -2 -191 -10 -199 -9
-10 -92 14 -280 78 -132 46 -198 74 -247 107 l-67 45 13 32 c8 21 37 47 92 84
43 28 83 51 89 49 5 -2 11 -15 11 -28z m-152 -10 c-22 -24 -57 -26 -52 -2 3
17 45 34 61 25 5 -2 1 -13 -9 -23z m320 -41 c10 -53 6 -68 -20 -68 -21 0 -24
4 -24 38 0 21 3 42 7 45 14 14 33 6 37 -15z m224 -22 c4 -45 -5 -58 -35 -50
-15 4 -22 15 -25 40 -5 39 8 56 37 52 15 -2 21 -12 23 -42z m-310 2 c-2 -21
-8 -33 -18 -33 -10 0 -16 12 -18 33 -3 27 0 32 18 32 18 0 21 -5 18 -32z m152
-14 c0 -59 -24 -55 -28 4 -2 33 0 42 12 42 12 0 16 -11 16 -46z m60 1 c0 -19
-4 -35 -10 -35 -11 0 -14 53 -3 63 11 12 13 8 13 -28z m-501 -109 c9 -11 8
-15 -5 -20 -33 -13 -45 -7 -34 14 13 24 23 25 39 6z"/>
</g>
</svg>
