<?xml version="1.0" standalone="no"?>
<!DOCTYPE svg PUBLIC "-//W3C//DTD SVG 20010904//EN"
 "http://www.w3.org/TR/2001/REC-SVG-20010904/DTD/svg10.dtd">
<svg version="1.0" xmlns="http://www.w3.org/2000/svg"
 width="112.000000pt" height="94.000000pt" viewBox="0 0 112.000000 94.000000"
 preserveAspectRatio="xMidYMid meet">
<metadata>
Created by potrace 1.16, written by Peter Selinger 2001-2019
</metadata>
<g transform="translate(0.000000,94.000000) scale(0.100000,-0.100000)"
fill="#000000" stroke="none">
<path d="M443 892 c-8 -21 -24 -42 -36 -47 -12 -6 -26 -19 -31 -30 -5 -12 -26
-34 -47 -50 -22 -16 -39 -37 -39 -47 0 -9 -9 -22 -20 -28 -15 -8 -20 -21 -20
-55 0 -25 -4 -45 -10 -45 -19 0 -16 50 7 103 9 20 14 40 10 43 -3 3 -33 -22
-67 -56 -47 -47 -60 -66 -55 -81 5 -14 -3 -29 -27 -53 -29 -29 -33 -37 -25
-61 6 -16 6 -30 1 -34 -5 -3 -24 -23 -42 -44 l-33 -39 39 -19 c21 -11 48 -27
58 -37 36 -31 81 -50 95 -41 14 10 7 18 -56 66 -20 15 -22 24 -17 57 9 52 30
64 75 42 40 -18 38 0 22 -168 -4 -43 0 -62 27 -115 17 -35 34 -63 39 -63 4 0
15 10 24 23 59 85 202 192 213 159 6 -19 18 -14 30 14 7 14 28 32 50 40 20 9
60 26 87 39 28 12 61 26 75 30 14 3 40 13 57 21 29 13 36 13 60 0 34 -18 82
-62 104 -96 23 -34 36 -17 19 23 -37 86 -18 224 41 299 39 50 23 55 -34 10
-172 -137 -165 -136 -283 -66 -55 32 -124 70 -155 86 -49 24 -59 35 -78 79
-24 55 -25 61 -17 132 4 37 2 47 -11 47 -8 0 -21 -17 -30 -38z m-4 -118 c24
-31 28 -59 7 -51 -8 3 -31 9 -50 13 -42 7 -43 10 -14 41 27 29 32 29 57 -3z
m-26 -82 c49 -13 54 -18 39 -42 -7 -11 -12 -31 -12 -45 0 -16 -6 -25 -15 -25
-11 0 -15 12 -15 46 0 40 -2 45 -15 34 -8 -7 -15 -23 -15 -36 0 -23 -29 -36
-31 -14 -1 6 -3 15 -4 20 -1 6 -3 19 -4 30 -2 30 -31 25 -31 -5 0 -14 -4 -25
-10 -25 -16 0 -11 47 7 65 17 17 29 17 106 -3z m115 -55 c6 -29 -7 -67 -22
-67 -18 0 -23 14 -18 57 3 25 9 33 21 31 8 -2 17 -11 19 -21z m76 -23 c17 -17
19 -25 10 -47 -3 -9 -13 -13 -25 -10 -14 4 -19 14 -19 39 0 37 10 42 34 18z
m372 -39 c-3 -9 -11 -45 -17 -80 -11 -58 -14 -63 -31 -54 -10 6 -23 21 -28 34
-5 12 -15 25 -22 27 -12 4 12 29 71 75 22 17 34 16 27 -2z m-681 -72 c-6 -77
-10 -91 -21 -81 -9 9 8 158 18 158 6 0 7 -30 3 -77z m400 57 c18 -20 17 -20
-8 -20 -28 0 -42 14 -32 30 9 15 20 12 40 -10z m-470 -5 c14 -11 18 -25 17
-52 -4 -46 -4 -46 -36 -32 -22 10 -26 18 -26 56 0 46 11 53 45 28z m147 -52
c0 -72 0 -73 -22 -73 -17 0 -20 7 -20 44 0 25 5 57 10 72 15 40 32 17 32 -43z
m73 4 c-2 -18 -4 -38 -4 -44 -1 -7 -8 -13 -16 -13 -11 0 -15 11 -15 43 0 48 5
58 26 50 9 -3 12 -16 9 -36z m73 -16 c3 -37 1 -42 -15 -39 -19 3 -30 46 -19
75 11 28 31 7 34 -36z m289 -1 c12 -14 22 -30 23 -36 0 -10 -59 -39 -125 -61
-16 -6 -38 -14 -47 -18 -27 -11 -25 60 1 77 18 11 18 13 4 23 -28 21 -8 45 36
45 22 0 43 5 46 10 8 13 28 0 62 -40z m-192 20 c12 -20 -6 -50 -31 -50 -20 0
-24 5 -24 30 0 25 4 30 24 30 14 0 28 -5 31 -10z m-7 -112 c-2 -35 -7 -43 -23
-43 -15 0 -21 8 -23 28 -5 40 4 57 28 57 19 0 21 -5 18 -42z m-84 10 c12 -46
7 -87 -13 -98 -11 -5 -22 -10 -25 -10 -8 0 -7 115 1 123 13 14 31 6 37 -15z
m-426 -5 c-4 -22 -22 -20 -26 1 -2 10 3 16 13 16 10 0 15 -7 13 -17z m279 -54
c1 -24 2 -50 2 -57 1 -8 7 -12 14 -10 7 3 14 28 17 58 5 53 22 76 34 45 3 -8
3 -36 -1 -61 -6 -49 -19 -59 -112 -96 -57 -22 -69 -13 -66 50 1 26 3 57 4 70
0 12 6 22 11 22 6 0 10 -27 10 -61 0 -83 23 -76 30 10 3 40 10 65 20 71 25 16
35 5 37 -41z m-42 -169 c-21 -23 -35 -26 -35 -6 0 15 14 24 39 25 11 1 10 -4
-4 -19z"/>
</g>
</svg>
