<?xml version="1.0" standalone="no"?>
<!DOCTYPE svg PUBLIC "-//W3C//DTD SVG 20010904//EN"
 "http://www.w3.org/TR/2001/REC-SVG-20010904/DTD/svg10.dtd">
<svg version="1.0" xmlns="http://www.w3.org/2000/svg"
 width="59.000000pt" height="81.000000pt" viewBox="0 0 59.000000 81.000000"
 preserveAspectRatio="xMidYMid meet">
<metadata>
Created by potrace 1.16, written by Peter Selinger 2001-2019
</metadata>
<g transform="translate(0.000000,81.000000) scale(0.100000,-0.100000)"
fill="#000000" stroke="none">
<path d="M306 738 c-48 -47 -95 -64 -111 -38 -4 6 -11 7 -17 4 -7 -4 -8 -37
-3 -95 3 -49 4 -89 1 -89 -3 0 -20 15 -37 32 l-31 33 -26 -31 c-77 -89 -76
-99 18 -100 89 -2 87 1 85 -146 0 -70 3 -98 11 -98 13 0 23 64 23 143 0 26 3
52 6 56 5 10 44 3 46 -8 0 -3 2 -13 3 -21 13 -63 16 -129 7 -134 -6 -4 -8 -13
-5 -21 3 -7 -10 -40 -28 -72 -19 -32 -40 -73 -47 -91 -25 -60 -3 -44 40 30 63
109 62 108 130 184 35 39 87 97 115 130 28 32 64 71 79 87 21 20 24 27 11 27
-9 0 -16 4 -16 10 0 5 -10 10 -22 9 -69 -1 -143 45 -154 96 -4 16 -7 57 -8 89
0 33 -5 60 -11 61 -5 1 -32 -20 -59 -47z m34 -54 c0 -26 -17 -33 -26 -9 -8 20
3 48 16 40 5 -3 10 -17 10 -31z m-117 -34 c-3 -11 -9 -20 -14 -20 -5 0 -9 9
-9 20 0 11 6 20 14 20 9 0 12 -7 9 -20z m82 -15 c29 -24 29 -26 -14 -37 -10
-3 -14 -24 -15 -75 -1 -40 -4 -75 -8 -78 -3 -4 -16 -2 -27 5 -18 9 -21 20 -21
71 0 57 28 140 48 139 4 -1 20 -12 37 -25z m93 -71 c37 -18 40 -35 13 -72 -10
-15 -26 -49 -37 -77 -23 -63 -50 -109 -57 -98 -11 18 -10 120 2 163 12 43 38
100 45 100 1 0 17 -7 34 -16z m-274 -59 c22 -33 21 -35 -13 -35 -34 0 -45 12
-36 40 9 27 29 25 49 -5z m390 9 c22 -8 20 -27 -5 -50 -12 -10 -46 -49 -76
-86 -30 -38 -58 -68 -63 -68 -11 0 61 165 84 191 16 20 33 23 60 13z"/>
</g>
</svg>
