<?xml version="1.0" standalone="no"?>
<!DOCTYPE svg PUBLIC "-//W3C//DTD SVG 20010904//EN"
 "http://www.w3.org/TR/2001/REC-SVG-20010904/DTD/svg10.dtd">
<svg version="1.0" xmlns="http://www.w3.org/2000/svg"
 width="114.000000pt" height="88.000000pt" viewBox="0 0 114.000000 88.000000"
 preserveAspectRatio="xMidYMid meet">
<metadata>
Created by potrace 1.16, written by Peter Selinger 2001-2019
</metadata>
<g transform="translate(0.000000,88.000000) scale(0.100000,-0.100000)"
fill="#000000" stroke="none">
<path d="M594 833 c-10 -26 -41 -69 -71 -100 -36 -37 -53 -63 -53 -80 0 -23
-3 -25 -32 -20 -18 3 -55 9 -83 13 -57 8 -92 23 -119 53 -23 25 -39 27 -56 6
-8 -10 -30 -15 -65 -15 -47 0 -85 -17 -70 -31 2 -3 7 -34 10 -69 2 -35 10 -80
16 -99 7 -21 9 -66 6 -117 -3 -46 -2 -86 3 -89 5 -3 6 -29 4 -58 -5 -47 7 -90
20 -76 3 3 8 43 11 89 3 46 6 84 8 84 1 1 12 7 25 14 42 23 126 37 220 36 121
-2 125 -6 118 -103 -3 -42 -5 -84 -6 -95 -1 -10 7 -27 16 -37 10 -11 20 -38
23 -61 7 -52 25 -59 40 -16 12 33 18 45 65 148 14 30 40 71 58 91 18 20 40 44
49 55 9 10 27 28 40 40 13 11 51 43 83 72 33 29 67 52 77 52 23 0 30 -48 32
-219 2 -93 5 -131 14 -131 18 0 22 26 22 155 0 119 11 207 30 242 13 23 71
170 71 178 0 3 -35 5 -77 3 l-78 -4 -5 -93 -5 -93 -40 28 c-22 15 -54 33 -71
40 -48 20 -138 98 -172 149 -27 40 -29 50 -19 68 7 12 17 25 22 29 6 4 -2 8
-17 8 -22 0 -29 -7 -44 -47z m26 -94 c10 -17 7 -19 -20 -19 -31 0 -39 17 -18
38 13 13 24 8 38 -19z m425 -36 c-4 -10 -16 -42 -27 -71 -12 -29 -23 -50 -26
-47 -3 2 -6 29 -8 59 -3 51 -1 55 24 65 39 14 45 13 37 -6z m-315 -66 c30 -18
72 -41 93 -51 20 -11 37 -23 37 -28 0 -4 7 -8 15 -8 24 0 17 -15 -22 -46 -21
-16 -78 -65 -126 -109 -130 -117 -188 -165 -199 -165 -6 0 -8 64 -6 173 3 152
6 178 25 220 35 75 74 79 183 14z m-486 8 c17 -13 17 -14 -10 -20 -16 -4 -35
-8 -41 -11 -13 -4 -18 28 -6 39 10 11 37 7 57 -8z m-120 -17 c-4 -6 -10 -25
-14 -42 -5 -23 -9 -27 -14 -15 -8 19 9 69 24 69 6 0 8 -5 4 -12z m348 -88 c-2
-36 3 -82 9 -103 17 -50 3 -66 -44 -49 -17 6 -63 14 -102 17 -38 4 -103 16
-143 27 -65 19 -72 23 -65 42 3 12 7 30 8 41 2 42 17 64 48 74 58 18 71 19
182 17 l110 -1 -3 -65z m-288 -149 c23 -9 14 -16 -31 -26 -25 -5 -33 -3 -33 8
0 27 24 34 64 18z m426 -155 c0 -10 -53 -106 -59 -106 -13 0 -32 42 -26 60 7
21 85 64 85 46z"/>
<path d="M875 10 c-4 -6 24 -10 76 -10 45 0 80 2 78 4 -11 9 -148 15 -154 6z"/>
</g>
</svg>
