<?xml version="1.0" standalone="no"?>
<!DOCTYPE svg PUBLIC "-//W3C//DTD SVG 20010904//EN"
 "http://www.w3.org/TR/2001/REC-SVG-20010904/DTD/svg10.dtd">
<svg version="1.0" xmlns="http://www.w3.org/2000/svg"
 width="67.000000pt" height="77.000000pt" viewBox="0 0 67.000000 77.000000"
 preserveAspectRatio="xMidYMid meet">
<metadata>
Created by potrace 1.16, written by Peter Selinger 2001-2019
</metadata>
<g transform="translate(0.000000,77.000000) scale(0.100000,-0.100000)"
fill="#000000" stroke="none">
<path d="M73 725 c-11 -8 -26 -34 -32 -59 -16 -63 -14 -76 9 -76 19 0 20 -7
21 -122 0 -68 3 -176 5 -240 4 -93 2 -123 -10 -147 -9 -16 -16 -32 -16 -36 0
-12 34 -4 57 15 30 23 125 60 156 60 13 0 29 -6 35 -12 10 -10 15 -10 22 1 6
11 25 14 71 12 76 -3 105 -14 114 -40 7 -24 25 -28 25 -6 0 8 9 23 20 33 19
18 19 20 4 33 -13 11 -15 25 -9 83 4 39 11 79 17 89 13 25 20 53 25 107 3 25
9 50 13 55 4 6 10 35 14 65 3 30 10 71 16 90 18 62 14 70 -29 70 -27 0 -49 -8
-69 -25 -23 -19 -41 -25 -80 -25 -71 0 -82 6 -82 46 0 28 -4 34 -20 34 -12 0
-32 -11 -46 -25 -24 -24 -26 -24 -77 -11 -28 7 -69 21 -91 30 -46 19 -37 19
-63 1z m267 -29 c0 -3 -4 -8 -10 -11 -5 -3 -10 -1 -10 4 0 6 5 11 10 11 6 0
10 -2 10 -4z m-190 -26 c13 -8 13 -10 0 -14 -18 -6 -40 -9 -59 -7 -11 1 -11 4
-1 16 14 17 38 19 60 5z m450 -9 c0 -12 -28 -22 -34 -12 -3 5 -3 11 1 15 9 9
33 7 33 -3z m-312 -78 c2 -24 -1 -43 -6 -43 -6 0 -40 9 -77 21 -51 15 -65 24
-63 37 4 19 45 31 103 29 40 -2 40 -2 43 -44z m226 21 c10 -25 7 -72 -4 -79
-6 -4 -44 -3 -86 0 l-74 7 6 37 c4 20 12 39 18 43 6 4 39 8 72 8 47 0 63 -4
68 -16z m64 -31 c-14 -52 -18 -53 -18 -5 0 30 4 42 14 42 12 0 12 -7 4 -37z
m-73 -128 l0 -50 -57 -1 c-82 -2 -105 4 -110 30 -11 57 18 76 112 73 l55 -2 0
-50z m-227 25 c17 -14 22 -25 17 -41 -6 -18 -12 -20 -43 -13 -21 4 -57 10 -81
13 -41 6 -43 7 -26 21 14 12 66 31 105 38 3 1 15 -7 28 -18z m-25 -96 c31 -6
37 -11 37 -30 0 -28 -17 -30 -86 -13 -39 10 -47 9 -64 -6 -19 -17 -20 -17 -20
-1 0 53 35 66 133 50z m220 -15 c31 -8 38 -14 35 -32 -3 -20 -10 -22 -63 -24
-81 -2 -105 4 -105 25 0 41 53 54 133 31z m-199 -95 c9 -8 16 -31 16 -50 0
-42 -17 -44 -108 -13 -96 32 -83 46 70 78 4 0 14 -6 22 -15z m224 -53 l3 -64
-78 7 c-43 4 -82 11 -88 17 -12 12 -7 79 7 96 8 10 32 13 82 11 l71 -3 3 -64z
m-329 -70 c11 -7 9 -11 -9 -21 -25 -13 -35 -8 -27 15 7 17 16 19 36 6z"/>
</g>
</svg>
