<?xml version="1.0" standalone="no"?>
<!DOCTYPE svg PUBLIC "-//W3C//DTD SVG 20010904//EN"
 "http://www.w3.org/TR/2001/REC-SVG-20010904/DTD/svg10.dtd">
<svg version="1.0" xmlns="http://www.w3.org/2000/svg"
 width="95.000000pt" height="79.000000pt" viewBox="0 0 95.000000 79.000000"
 preserveAspectRatio="xMidYMid meet">
<metadata>
Created by potrace 1.16, written by Peter Selinger 2001-2019
</metadata>
<g transform="translate(0.000000,79.000000) scale(0.100000,-0.100000)"
fill="#000000" stroke="none">
<path d="M348 739 c-21 -27 -38 -54 -38 -60 0 -5 18 -9 40 -9 27 0 55 -9 83
-27 23 -15 51 -32 61 -38 27 -14 32 -35 8 -35 -11 0 -31 -9 -45 -20 -19 -15
-40 -20 -84 -20 -62 0 -103 8 -103 20 0 12 74 30 124 30 25 0 46 5 46 10 0 6
-23 10 -51 10 -29 0 -69 5 -90 11 -31 10 -44 9 -71 -4 -43 -20 -106 -37 -138
-37 -14 0 -32 -4 -40 -10 -12 -7 -12 -12 -1 -34 17 -31 9 -110 -13 -135 -25
-28 -19 -41 22 -43 79 -3 91 -6 121 -29 22 -17 30 -31 27 -47 -5 -31 12 -36
65 -18 100 33 145 32 111 -3 -9 -9 -52 -33 -95 -52 -87 -38 -86 -37 -54 -124
18 -49 44 -58 53 -18 4 15 29 54 56 86 26 32 51 64 55 71 5 7 19 19 32 26 20
10 25 10 33 -4 11 -20 28 -12 28 14 0 19 66 68 173 129 50 28 62 32 82 23 33
-15 40 2 13 31 -33 34 -176 158 -224 192 -57 42 -103 97 -110 134 -9 45 -33
39 -76 -20z m42 -25 c0 -8 -9 -14 -20 -14 -18 0 -19 3 -10 20 12 22 30 18 30
-6z m-154 -168 c14 -11 16 -18 8 -26 -8 -8 -10 -42 -6 -101 2 -49 1 -89 -3
-89 -10 0 -97 64 -119 89 -26 29 -14 59 42 104 54 42 52 42 78 23z m405 -48
l69 -53 -29 -25 c-27 -23 -168 -100 -184 -100 -15 0 -6 66 20 152 19 66 30 87
40 83 8 -3 46 -29 84 -57z m-512 33 c-13 -11 -28 -17 -32 -14 -13 8 14 33 35
33 19 0 19 -1 -3 -19z m365 -18 c-11 -45 -24 -51 -24 -10 0 26 4 37 15 37 12
0 14 -7 9 -27z m-66 -25 c28 -28 13 -38 -60 -38 -64 0 -112 11 -98 23 28 22
140 33 158 15z m8 -82 c32 -24 6 -39 -47 -27 -24 6 -59 11 -76 11 -33 0 -44
14 -20 23 27 12 124 6 143 -7z m12 -78 c3 -14 -4 -18 -25 -19 -15 -1 -31 -1
-34 -1 -4 1 -31 3 -60 5 -68 5 -77 19 -21 32 60 15 136 5 140 -17z m-108 -143
c0 -14 -54 -85 -65 -85 -14 0 -27 38 -18 53 10 16 83 44 83 32z"/>
<path d="M828 653 c-74 -5 -85 -18 -65 -80 25 -78 38 -158 45 -269 4 -59 11
-104 17 -104 6 0 12 51 16 122 5 128 27 229 60 286 19 34 18 54 -4 50 -7 -1
-38 -3 -69 -5z m31 -45 c0 -7 -8 -31 -18 -53 l-18 -39 -11 33 c-20 56 -16 71
18 71 18 0 30 -5 29 -12z"/>
</g>
</svg>
