<?xml version="1.0" standalone="no"?>
<!DOCTYPE svg PUBLIC "-//W3C//DTD SVG 20010904//EN"
 "http://www.w3.org/TR/2001/REC-SVG-20010904/DTD/svg10.dtd">
<svg version="1.0" xmlns="http://www.w3.org/2000/svg"
 width="100.000000pt" height="74.000000pt" viewBox="0 0 100.000000 74.000000"
 preserveAspectRatio="xMidYMid meet">
<metadata>
Created by potrace 1.16, written by Peter Selinger 2001-2019
</metadata>
<g transform="translate(0.000000,74.000000) scale(0.100000,-0.100000)"
fill="#000000" stroke="none">
<path d="M405 712 c-6 -4 -21 -23 -34 -42 -13 -19 -35 -45 -50 -58 -22 -19
-24 -24 -11 -32 8 -5 42 -9 75 -9 63 0 118 -17 169 -56 17 -12 64 -40 103 -61
40 -21 72 -43 70 -47 -3 -10 -44 -33 -157 -88 -125 -60 -156 -70 -186 -59 -22
9 -25 14 -19 43 11 52 34 118 50 140 26 37 19 49 -22 42 -87 -14 -86 -13 -80
-48 19 -108 19 -124 1 -131 -19 -7 -144 70 -144 90 0 17 41 49 90 71 60 28
139 53 164 53 15 0 17 3 9 11 -9 9 -19 9 -42 -1 -16 -6 -34 -9 -39 -6 -5 3
-23 1 -40 -3 -16 -5 -59 -6 -94 -1 -77 9 -108 -1 -108 -34 0 -14 5 -28 10 -31
6 -3 10 -15 10 -26 0 -10 5 -27 11 -37 9 -14 5 -31 -21 -81 l-32 -64 44 7
c116 16 204 4 192 -27 -2 -7 -36 -27 -75 -46 l-71 -34 6 -36 c3 -20 6 -46 6
-58 0 -28 21 -30 45 -3 15 17 16 20 3 20 -25 0 -28 47 -6 75 11 14 26 25 33
25 8 0 30 9 50 20 20 11 40 20 45 20 20 0 9 -27 -15 -40 -14 -7 -23 -15 -20
-18 2 -3 42 20 87 50 46 31 130 77 188 103 58 26 121 56 140 66 59 32 60 31
62 -103 0 -68 2 -127 3 -133 2 -5 4 -14 5 -20 3 -20 19 31 19 64 1 19 10 60
20 90 11 31 25 81 31 111 7 30 19 66 26 80 21 39 44 101 44 117 0 13 -10 14
-57 9 -32 -4 -73 -12 -91 -18 -28 -8 -33 -14 -28 -32 4 -11 9 -42 13 -68 6
-53 -5 -62 -42 -33 -11 9 -43 30 -70 48 -90 57 -237 181 -248 209 -7 16 -16
25 -22 20z m15 -94 c0 -4 -13 -8 -30 -8 -34 0 -37 6 -13 32 16 18 18 18 30 2
7 -10 13 -21 13 -26z m493 -65 c5 -9 -64 -163 -72 -163 -3 0 -6 12 -7 28 0 15
-4 50 -8 79 -7 45 -6 52 10 56 31 8 73 8 77 0z m-699 -72 c18 -7 18 -8 -5 -24
-32 -23 -39 -21 -39 8 0 26 10 29 44 16z m176 -27 c0 -13 -21 -44 -30 -44 -11
0 -14 33 -3 43 8 8 33 9 33 1z m-200 -139 c15 -18 13 -21 -23 -30 -28 -7 -32
-1 -21 29 8 20 28 20 44 1z"/>
<path d="M290 125 c-7 -9 -8 -15 -2 -15 5 0 12 7 16 15 3 8 4 15 2 15 -2 0 -9
-7 -16 -15z"/>
</g>
</svg>
