<?xml version="1.0" standalone="no"?>
<!DOCTYPE svg PUBLIC "-//W3C//DTD SVG 20010904//EN"
 "http://www.w3.org/TR/2001/REC-SVG-20010904/DTD/svg10.dtd">
<svg version="1.0" xmlns="http://www.w3.org/2000/svg"
 width="40.000000pt" height="73.000000pt" viewBox="0 0 40.000000 73.000000"
 preserveAspectRatio="xMidYMid meet">
<metadata>
Created by potrace 1.16, written by Peter Selinger 2001-2019
</metadata>
<g transform="translate(0.000000,73.000000) scale(0.100000,-0.100000)"
fill="#000000" stroke="none">
<path d="M83 611 l-53 -58 60 -52 c62 -54 72 -70 43 -67 -17 1 -18 -15 -20
-199 -2 -178 -1 -198 12 -181 9 12 15 42 15 79 0 32 5 67 10 77 6 11 15 42 20
70 5 28 19 73 32 102 l22 51 38 -44 c22 -24 51 -68 65 -97 36 -71 60 -71 32 1
-11 28 -29 65 -40 80 -16 22 -19 38 -15 78 3 28 13 60 21 72 30 42 16 52 -22
16 -44 -40 -98 -79 -111 -79 -4 0 -22 15 -40 33 -36 37 -42 83 -17 127 16 27
19 50 8 49 -5 0 -32 -26 -60 -58z m88 -204 c-1 -27 -15 -78 -22 -83 -10 -6
-12 56 -3 81 6 15 26 17 25 2z"/>
</g>
</svg>
