<?xml version="1.0" standalone="no"?>
<!DOCTYPE svg PUBLIC "-//W3C//DTD SVG 20010904//EN"
 "http://www.w3.org/TR/2001/REC-SVG-20010904/DTD/svg10.dtd">
<svg version="1.0" xmlns="http://www.w3.org/2000/svg"
 width="81.000000pt" height="85.000000pt" viewBox="0 0 81.000000 85.000000"
 preserveAspectRatio="xMidYMid meet">
<metadata>
Created by potrace 1.16, written by Peter Selinger 2001-2019
</metadata>
<g transform="translate(0.000000,85.000000) scale(0.100000,-0.100000)"
fill="#000000" stroke="none">
<path d="M167 767 c-67 -23 -66 -12 -13 -137 20 -47 36 -99 36 -115 0 -17 5
-36 12 -43 10 -10 9 -19 -4 -45 -32 -64 -47 -104 -57 -147 -38 -162 -39 -170
-27 -170 7 0 22 21 33 48 18 39 21 43 22 21 1 -14 -8 -51 -18 -82 l-20 -57 27
0 c15 0 41 9 57 20 66 45 86 49 251 45 104 -3 160 -8 165 -16 5 -8 16 -8 43 1
38 12 40 30 4 30 -19 0 -20 5 -16 68 10 141 49 341 94 485 23 75 25 90 13 98
-8 4 -21 6 -30 4 -9 -3 -40 -8 -70 -11 -30 -3 -58 -9 -63 -14 -12 -12 -9 -309
4 -430 18 -158 18 -167 10 -180 -4 -7 -16 -9 -29 -5 -24 7 -24 3 -19 205 4
165 0 351 -7 358 -21 21 -26 -38 -29 -289 l-2 -274 -23 -3 c-20 -3 -22 -1 -16
15 11 26 16 525 5 543 -5 8 -13 11 -17 6 -4 -4 -9 -134 -11 -288 -3 -247 -5
-279 -18 -274 -9 3 -25 6 -36 6 -18 0 -19 5 -13 58 4 31 9 68 11 82 2 14 6
112 9 218 4 158 2 192 -9 192 -8 0 -14 -10 -14 -22 -3 -135 -29 -522 -34 -520
-5 1 -16 2 -27 2 -27 0 -31 30 -16 123 7 45 16 132 19 192 3 61 9 137 12 171
5 47 3 62 -8 66 -18 7 -57 -20 -42 -30 6 -4 10 -37 8 -81 -1 -56 -6 -76 -18
-83 -24 -13 -53 -1 -60 25 -11 41 -6 144 9 186 15 43 11 72 -9 70 -6 -1 -37
-11 -69 -22z m43 -29 c0 -25 -13 -58 -21 -58 -6 0 -14 10 -18 23 -9 21 8 47
31 47 4 0 8 -6 8 -12z m528 -10 c-3 -7 -23 -65 -44 -128 l-39 -115 -6 60 c-12
104 -10 183 4 188 6 3 29 6 51 6 26 1 37 -3 34 -11z m-476 -322 c-6 -25 -72
-119 -79 -112 -9 9 29 107 43 113 7 3 16 14 20 25 8 28 24 4 16 -26z m44 -61
c-3 -8 -8 -47 -12 -87 -9 -104 -11 -106 -68 -53 l-38 34 54 74 c39 55 55 70
61 60 5 -8 6 -21 3 -28z m-71 -219 c19 -14 19 -15 -8 -27 -32 -15 -38 -11 -30
19 6 26 12 27 38 8z"/>
</g>
</svg>
