<?xml version="1.0" standalone="no"?>
<!DOCTYPE svg PUBLIC "-//W3C//DTD SVG 20010904//EN"
 "http://www.w3.org/TR/2001/REC-SVG-20010904/DTD/svg10.dtd">
<svg version="1.0" xmlns="http://www.w3.org/2000/svg"
 width="155.000000pt" height="77.000000pt" viewBox="0 0 155.000000 77.000000"
 preserveAspectRatio="xMidYMid meet">
<metadata>
Created by potrace 1.16, written by Peter Selinger 2001-2019
</metadata>
<g transform="translate(0.000000,77.000000) scale(0.100000,-0.100000)"
fill="#000000" stroke="none">
<path d="M900 672 c-15 -16 -50 -78 -50 -87 0 -3 25 -5 55 -5 66 0 71 -14 13
-40 -36 -16 -44 -17 -46 -5 -4 18 -39 19 -75 3 -20 -10 -26 -19 -24 -42 2 -24
-6 -34 -47 -62 -55 -39 -85 -43 -111 -14 -25 28 -15 96 24 171 18 34 26 59 19
59 -6 0 -35 -25 -63 -56 l-52 -56 -94 7 c-63 5 -123 17 -182 37 -48 17 -94 27
-102 24 -17 -6 -30 -36 -41 -92 -6 -34 -5 -37 12 -29 23 9 64 18 47 9 -18 -8
-16 -24 2 -24 19 0 19 -36 0 -70 l-13 -25 -10 25 c-5 14 -11 33 -13 43 -2 10
-8 18 -14 17 -6 0 -9 -24 -7 -55 3 -45 0 -55 -16 -64 -20 -10 -78 -118 -69
-127 2 -3 22 6 42 21 42 28 55 31 55 13 1 -35 13 -94 20 -102 19 -20 31 8 28
67 l-3 62 35 3 c55 4 65 -9 65 -80 0 -52 3 -63 18 -66 14 -3 17 5 17 51 0 63
12 78 64 80 42 1 82 -31 91 -74 4 -15 13 -33 21 -40 11 -9 17 -5 29 24 8 20
15 40 15 45 0 14 80 122 90 122 14 0 92 -55 124 -86 15 -16 30 -41 33 -57 4
-17 15 -32 28 -37 20 -7 50 -57 68 -113 4 -9 11 -17 17 -17 11 0 14 7 24 52 4
15 29 51 57 80 44 46 52 50 60 35 13 -23 29 -22 29 2 0 21 47 64 64 58 6 -2
13 -19 16 -37 7 -48 30 -52 30 -5 0 54 14 71 72 91 29 9 67 24 83 32 42 21 94
34 133 33 17 -1 32 3 32 8 0 8 -38 28 -334 172 -60 29 -135 72 -166 96 -63 47
-77 51 -100 25z m44 -38 c24 -9 19 -21 -9 -28 -33 -9 -50 1 -34 20 13 16 20
17 43 8z m-743 -98 c-36 -10 -49 -3 -32 18 10 12 17 13 38 3 l26 -12 -32 -9z
m891 -2 l53 -26 -3 -106 c-3 -85 -7 -110 -20 -120 -29 -22 -35 -8 -33 74 1 60
6 85 21 106 33 45 26 57 -24 38 -26 -9 -26 -10 -26 -124 0 -107 -2 -116 -21
-126 -11 -7 -22 -10 -24 -8 -1 2 -5 33 -9 69 -4 51 -2 79 13 125 11 32 18 60
17 62 -2 1 -16 4 -32 5 l-29 2 -1 -127 c-2 -143 -5 -158 -34 -158 -19 0 -20 6
-20 101 0 55 5 109 11 120 5 11 11 38 12 59 1 31 5 40 19 40 9 0 20 5 23 10
11 17 52 11 107 -16z m-644 -30 c19 -4 21 -8 12 -19 -17 -20 -6 -32 59 -64 68
-35 87 -54 69 -69 -23 -18 -88 -41 -102 -36 -7 3 -20 -2 -29 -11 -12 -12 -28
-14 -71 -9 -78 9 -84 21 -52 95 35 81 34 90 -6 82 -48 -8 -53 -17 -53 -91 l0
-67 -35 3 c-61 4 -62 6 -25 86 19 41 35 81 35 90 0 23 110 29 198 10z m112
-19 c0 -18 -5 -25 -19 -25 -28 0 -36 19 -15 35 27 20 34 18 34 -10z m335 -27
c-4 -29 -6 -93 -6 -143 1 -100 -5 -118 -40 -113 -23 3 -24 7 -27 97 -4 127 24
209 72 211 5 0 5 -24 1 -52z m444 -27 l64 -33 -29 -19 c-16 -10 -33 -19 -39
-19 -5 0 -23 -7 -40 -16 -44 -23 -107 -44 -117 -38 -20 13 0 130 27 158 18 18
46 11 134 -33z m-555 -28 c8 -54 7 -113 -2 -113 -14 0 -92 71 -92 83 0 11 67
66 81 67 4 0 9 -17 13 -37z m-660 -112 c3 -5 -1 -11 -9 -14 -9 -4 -12 -1 -8 9
6 16 10 17 17 5z m426 0 c0 -5 -9 -19 -19 -32 -18 -23 -20 -23 -27 -5 -5 13
-1 23 11 32 22 16 35 18 35 5z m400 -108 c0 -5 -11 -21 -25 -38 -27 -33 -34
-18 -9 20 16 24 34 33 34 18z"/>
<path d="M1510 20 c0 -13 7 -20 20 -20 13 0 20 7 20 20 0 13 -7 20 -20 20 -13
0 -20 -7 -20 -20z"/>
</g>
</svg>
