<?xml version="1.0" standalone="no"?>
<!DOCTYPE svg PUBLIC "-//W3C//DTD SVG 20010904//EN"
 "http://www.w3.org/TR/2001/REC-SVG-20010904/DTD/svg10.dtd">
<svg version="1.0" xmlns="http://www.w3.org/2000/svg"
 width="94.000000pt" height="59.000000pt" viewBox="0 0 94.000000 59.000000"
 preserveAspectRatio="xMidYMid meet">
<metadata>
Created by potrace 1.16, written by Peter Selinger 2001-2019
</metadata>
<g transform="translate(0.000000,59.000000) scale(0.100000,-0.100000)"
fill="#000000" stroke="none">
<path d="M431 549 l-24 -9 7 -154 c5 -101 4 -156 -3 -160 -5 -4 -28 11 -51 32
l-42 38 21 60 c20 59 14 96 -10 53 -6 -13 -37 -48 -67 -77 l-54 -53 -26 18
c-107 76 -124 73 -121 -21 1 -34 -1 -73 -6 -88 -10 -37 -2 -35 44 11 37 37 43
39 121 46 74 7 85 5 111 -14 15 -11 32 -21 36 -21 4 0 21 -11 37 -23 26 -21
30 -30 32 -86 1 -35 7 -68 13 -74 19 -19 23 17 12 120 -9 92 -9 99 10 115 30
26 124 41 209 34 82 -7 80 -6 180 -127 58 -68 68 -44 16 36 -51 77 -53 86 -31
169 9 33 13 61 11 63 -5 5 -73 -45 -123 -91 -32 -29 -34 -29 -85 -18 -29 7
-72 22 -96 35 -41 21 -43 24 -37 57 4 19 13 47 21 62 20 39 18 44 -29 62 -48
18 -44 18 -76 5z m77 -44 c7 -7 -31 -125 -43 -135 -9 -8 -13 6 -18 62 -2 40
-3 77 0 81 5 8 52 1 61 -8z m296 -144 c10 -16 -5 -41 -25 -41 -21 0 -25 20 -7
38 14 14 25 15 32 3z m-508 -48 c-10 -10 -19 5 -10 18 6 11 8 11 12 0 2 -7 1
-15 -2 -18z m218 21 c22 -8 20 -21 -4 -34 -26 -14 -40 -6 -33 20 6 21 12 24
37 14z m-383 -55 c23 -12 16 -29 -12 -29 -12 0 -19 7 -19 20 0 23 4 24 31 9z"/>
</g>
</svg>
