<?xml version="1.0" standalone="no"?>
<!DOCTYPE svg PUBLIC "-//W3C//DTD SVG 20010904//EN"
 "http://www.w3.org/TR/2001/REC-SVG-20010904/DTD/svg10.dtd">
<svg version="1.0" xmlns="http://www.w3.org/2000/svg"
 width="137.000000pt" height="75.000000pt" viewBox="0 0 137.000000 75.000000"
 preserveAspectRatio="xMidYMid meet">
<metadata>
Created by potrace 1.16, written by Peter Selinger 2001-2019
</metadata>
<g transform="translate(0.000000,75.000000) scale(0.100000,-0.100000)"
fill="#000000" stroke="none">
<path d="M1145 661 c-3 -10 -3 -35 -1 -55 5 -42 4 -43 -74 -51 -181 -19 -306
-22 -364 -8 -66 17 -74 13 -83 -39 -4 -30 -2 -38 16 -47 11 -7 21 -9 21 -6 0
4 6 0 14 -8 9 -8 36 -15 67 -16 29 0 57 -5 63 -11 10 -10 1 -12 -79 -14 -42
-1 -78 -30 -133 -104 -39 -54 -29 -59 86 -43 31 4 55 4 59 -2 3 -5 18 -6 34
-3 17 3 50 -2 77 -11 26 -8 63 -18 82 -20 18 -3 43 -11 55 -18 11 -7 40 -16
65 -19 25 -4 60 -12 78 -19 l34 -12 -4 -62 c-2 -53 0 -63 13 -63 13 0 17 15
22 65 4 36 4 78 1 93 -4 19 0 33 10 41 9 8 16 29 16 50 0 21 9 64 19 97 16 50
38 125 58 198 3 12 1 17 -8 14 -17 -6 -54 -103 -69 -181 -15 -73 -30 -65 -28
16 1 34 -2 96 -7 138 -9 87 -9 86 79 96 46 5 48 5 37 -15 -13 -24 -14 -42 -3
-42 11 1 51 68 44 74 -3 3 -47 6 -98 6 -82 0 -93 -2 -99 -19z m5 -161 c0 -25
-5 -40 -12 -41 -16 -2 -22 -3 -78 -13 -25 -5 -52 -13 -60 -18 -15 -9 13 -7
109 8 37 6 38 5 45 -26 9 -47 7 -80 -4 -80 -13 0 -163 71 -170 80 -3 4 -25 10
-49 13 -47 6 -152 56 -152 71 0 11 -2 10 161 26 63 6 116 13 119 15 2 3 24 5
48 5 l43 0 0 -40z m-464 -2 c-10 -6 -20 -7 -24 -3 -9 8 20 25 31 18 5 -3 2
-10 -7 -15z m44 -38 c0 -5 -4 -10 -10 -10 -5 0 -10 5 -10 10 0 6 5 10 10 10 6
0 10 -4 10 -10z m275 -97 c39 -11 81 -26 95 -33 14 -7 32 -16 40 -20 10 -5 16
-26 18 -65 3 -56 2 -57 -20 -51 -13 4 -36 9 -53 12 -16 3 -52 14 -80 24 -27 9
-67 20 -88 24 -49 9 -158 58 -176 79 -11 15 -10 18 15 28 84 32 139 32 249 2z
m-297 -71 c4 -14 -67 -27 -80 -14 -15 15 29 42 55 33 12 -4 23 -13 25 -19z"/>
<path d="M472 623 c-27 -28 -61 -58 -76 -68 -30 -20 -35 -39 -6 -30 14 5 36
-10 90 -61 38 -37 70 -72 70 -78 0 -6 -15 -19 -32 -28 -18 -9 -65 -32 -105
-52 -39 -20 -79 -33 -87 -30 -25 9 -30 -21 -11 -69 9 -24 15 -47 14 -53 -1 -5
-1 -17 0 -26 2 -31 18 -20 25 17 7 34 14 49 51 111 21 35 86 78 146 97 23 7
39 18 39 27 0 9 -22 40 -50 70 -57 62 -62 89 -30 166 11 26 18 49 15 52 -2 3
-27 -18 -53 -45z"/>
<path d="M333 607 c-48 -42 -113 -82 -113 -68 0 5 4 21 10 35 14 38 -5 42 -39
9 -15 -15 -47 -39 -69 -53 -23 -14 -42 -28 -42 -31 0 -4 15 -14 33 -22 46 -22
112 -81 104 -94 -4 -6 -29 -16 -56 -23 -27 -6 -52 -18 -55 -26 -6 -16 29 -94
42 -94 4 0 16 17 27 38 22 44 54 82 69 82 5 0 20 -9 32 -21 27 -25 50 -18 32
11 -10 16 -8 23 12 45 13 14 29 25 35 25 6 0 30 -19 54 -41 29 -28 46 -38 53
-31 7 7 -2 23 -26 50 -20 22 -36 42 -36 45 0 3 -13 21 -30 39 -36 39 -37 46
-5 108 30 58 20 63 -32 17z m-16 -64 c-3 -3 -11 -2 -17 2 -9 6 -9 10 1 16 14
8 27 -7 16 -18z m-139 -30 c-4 -22 -22 -20 -26 1 -2 10 3 16 13 16 10 0 15 -7
13 -17z m118 -18 c14 -14 29 -25 33 -25 11 0 23 -29 16 -40 -3 -5 -23 -11 -46
-15 -35 -6 -43 -4 -64 20 -15 15 -25 38 -25 56 0 26 3 29 30 29 20 0 40 -9 56
-25z m-116 -170 c-7 -8 -16 -15 -21 -15 -5 0 -9 7 -9 15 0 9 9 15 21 15 18 0
19 -2 9 -15z"/>
</g>
</svg>
