<?xml version="1.0" standalone="no"?>
<!DOCTYPE svg PUBLIC "-//W3C//DTD SVG 20010904//EN"
 "http://www.w3.org/TR/2001/REC-SVG-20010904/DTD/svg10.dtd">
<svg version="1.0" xmlns="http://www.w3.org/2000/svg"
 width="148.000000pt" height="67.000000pt" viewBox="0 0 148.000000 67.000000"
 preserveAspectRatio="xMidYMid meet">
<metadata>
Created by potrace 1.16, written by Peter Selinger 2001-2019
</metadata>
<g transform="translate(0.000000,67.000000) scale(0.100000,-0.100000)"
fill="#000000" stroke="none">
<path d="M191 603 c-6 -21 -11 -45 -11 -54 0 -9 -9 -27 -19 -41 -16 -19 -27
-24 -50 -20 -28 4 -31 2 -31 -21 0 -14 7 -52 15 -84 9 -34 15 -97 15 -153 -2
-132 -1 -140 9 -140 5 0 11 17 15 39 6 41 17 54 54 65 21 7 22 5 22 -43 0 -66
17 -66 26 0 5 37 13 54 30 66 29 19 54 4 54 -32 0 -31 10 -55 22 -55 5 0 8 19
6 43 -3 40 -2 42 27 45 24 2 40 -7 78 -43 49 -45 49 -45 42 -95 -8 -61 -8 -61
131 -21 54 16 135 34 179 40 87 13 366 28 482 25 42 -1 73 3 73 8 0 6 16 8 35
6 19 -2 35 -1 35 4 0 14 -34 25 -115 37 -44 7 -134 30 -199 52 -65 21 -127 39
-137 39 -10 0 -28 4 -41 9 -13 5 -36 12 -51 16 -22 4 -26 9 -18 19 12 14 27
18 353 98 119 29 214 56 212 60 -3 4 -12 4 -20 1 -9 -3 -19 -1 -23 4 -4 6
-129 13 -326 17 -337 6 -356 8 -422 32 -56 22 -80 12 -93 -38 -16 -59 -9 -71
32 -54 18 8 71 18 118 24 88 10 679 17 669 8 -9 -9 -447 -106 -529 -118 -83
-11 -81 -11 -164 -2 -51 6 -61 4 -73 -12 -7 -10 -13 -25 -13 -35 0 -14 15 -17
98 -22 158 -8 390 -53 505 -96 13 -5 50 -12 82 -16 128 -16 7 -25 -343 -25
-197 0 -365 1 -374 2 -10 1 -31 16 -49 34 -29 30 -31 38 -31 99 1 79 15 105
43 79 44 -39 29 29 -20 94 l-25 34 32 61 c17 34 27 64 22 65 -6 2 -26 -10 -46
-27 -38 -34 -40 -34 -99 -32 -43 2 -118 41 -138 72 -20 31 -45 23 -56 -18z
m63 -48 c23 -17 21 -21 -17 -30 -22 -6 -27 -4 -27 12 0 35 14 40 44 18z m134
-49 c35 -27 92 -91 92 -103 0 -14 -123 -143 -135 -143 -8 0 0 120 11 163 6 27
5 28 -27 25 -28 -2 -33 -7 -31 -23 2 -11 7 -44 12 -72 13 -83 -2 -107 -54 -87
-20 8 -21 83 -2 137 12 34 12 39 -1 44 -9 4 -23 2 -32 -4 -12 -8 -15 -26 -12
-93 3 -83 3 -83 -21 -77 -12 4 -29 7 -35 7 -33 0 3 178 42 210 38 32 160 42
193 16z m252 -25 c0 -10 -24 -21 -46 -21 -8 0 -14 7 -14 15 0 10 10 15 30 15
17 0 30 -4 30 -9z m-500 -30 c0 -11 -4 -23 -10 -26 -6 -4 -10 5 -10 19 0 14 5
26 10 26 6 0 10 -9 10 -19z m530 -131 c0 -5 -6 -10 -14 -10 -8 0 -18 5 -21 10
-3 6 3 10 14 10 12 0 21 -4 21 -10z m-228 -44 c-7 -27 -8 -27 -25 -8 -17 18
-17 21 -1 36 22 22 35 8 26 -28z m-254 -48 c-5 -15 -35 -34 -43 -27 -3 4 -3
14 1 23 7 18 48 23 42 4z m497 -128 c-5 -9 -126 -50 -146 -50 -16 0 -9 39 9
49 22 13 145 14 137 1z"/>
</g>
</svg>
