<?xml version="1.0" standalone="no"?>
<!DOCTYPE svg PUBLIC "-//W3C//DTD SVG 20010904//EN"
 "http://www.w3.org/TR/2001/REC-SVG-20010904/DTD/svg10.dtd">
<svg version="1.0" xmlns="http://www.w3.org/2000/svg"
 width="111.000000pt" height="76.000000pt" viewBox="0 0 111.000000 76.000000"
 preserveAspectRatio="xMidYMid meet">
<metadata>
Created by potrace 1.16, written by Peter Selinger 2001-2019
</metadata>
<g transform="translate(0.000000,76.000000) scale(0.100000,-0.100000)"
fill="#000000" stroke="none">
<path d="M162 718 c-7 -7 -12 -18 -12 -25 0 -23 -47 -63 -74 -63 -38 0 -44
-36 -35 -195 5 -77 8 -195 7 -263 -1 -67 1 -125 5 -128 3 -3 11 5 18 17 7 13
22 31 33 40 12 9 39 33 61 53 22 20 63 44 90 55 52 20 223 46 284 44 19 -1 50
6 70 16 83 42 164 54 302 48 99 -5 130 -4 126 6 -5 17 -57 26 -181 32 -125 5
-170 12 -208 31 -64 32 -89 15 -103 -69 -3 -20 -7 -37 -9 -37 -1 0 -20 9 -42
19 -22 11 -52 23 -67 26 -14 4 -31 13 -38 21 -6 8 -16 14 -22 14 -17 0 -127
54 -127 62 0 5 9 8 20 8 11 0 57 9 101 21 58 15 98 19 145 16 54 -5 73 -2 112
18 43 21 54 22 132 14 103 -10 290 -3 304 11 13 13 24 11 -129 14 -186 4 -257
21 -303 73 -40 46 -72 29 -72 -36 0 -19 -5 -31 -13 -31 -24 0 -179 70 -230
104 -29 19 -65 48 -81 65 -32 34 -45 38 -64 19z m37 -86 c-5 -2 -17 -1 -25 2
-13 5 -14 9 -4 21 11 13 14 13 26 -2 7 -10 9 -19 3 -21z m-94 -42 c7 -11 -15
-80 -26 -80 -4 0 -9 12 -12 27 -8 43 20 82 38 53z m214 -20 c42 -16 94 -34
116 -39 22 -6 49 -17 60 -25 19 -14 17 -15 -25 -15 -25 1 -72 -6 -105 -15 -54
-15 -265 -23 -265 -11 0 20 45 117 58 125 30 17 84 11 161 -20z m305 -36 c20
-8 11 -24 -15 -24 -10 0 -19 7 -19 15 0 16 9 19 34 9z m-500 -119 c3 -8 16
-15 29 -15 21 0 151 -50 262 -101 l50 -23 -60 -7 c-33 -4 -103 -12 -155 -18
-52 -6 -104 -13 -116 -16 -15 -5 -23 0 -32 19 -14 30 -27 140 -19 161 8 19 33
20 41 0z m524 -79 c26 -14 18 -27 -30 -45 -32 -12 -41 -2 -32 34 7 28 26 31
62 11z m-458 -134 c0 -9 -83 -72 -95 -72 -3 0 -5 15 -3 33 3 29 7 33 43 38 22
3 43 7 48 8 4 0 7 -3 7 -7z"/>
<path d="M755 10 c-3 -5 1 -10 9 -10 9 0 16 5 16 10 0 6 -4 10 -9 10 -6 0 -13
-4 -16 -10z"/>
</g>
</svg>
