<?xml version="1.0" standalone="no"?>
<!DOCTYPE svg PUBLIC "-//W3C//DTD SVG 20010904//EN"
 "http://www.w3.org/TR/2001/REC-SVG-20010904/DTD/svg10.dtd">
<svg version="1.0" xmlns="http://www.w3.org/2000/svg"
 width="64.000000pt" height="60.000000pt" viewBox="0 0 64.000000 60.000000"
 preserveAspectRatio="xMidYMid meet">
<metadata>
Created by potrace 1.16, written by Peter Selinger 2001-2019
</metadata>
<g transform="translate(0.000000,60.000000) scale(0.100000,-0.100000)"
fill="#000000" stroke="none">
<path d="M445 520 c-40 -40 -62 -47 -57 -16 6 31 -21 15 -85 -51 -60 -64 -64
-66 -60 -38 2 17 8 38 12 48 15 36 -26 16 -86 -40 -33 -32 -69 -61 -80 -65
-10 -4 -19 -11 -19 -16 0 -4 46 -51 103 -104 154 -144 193 -178 206 -178 27 0
5 33 -79 119 -81 81 -90 94 -84 119 7 30 22 52 35 52 5 0 54 -46 109 -101 95
-96 140 -124 92 -59 -12 16 -22 33 -22 38 0 5 -18 30 -40 55 -42 48 -52 95
-29 138 10 20 12 19 45 -13 45 -43 91 -91 146 -152 61 -67 82 -57 30 14 -112
152 -104 137 -99 193 2 29 8 62 12 75 11 32 -5 27 -50 -18z m5 -60 c0 -16 -4
-30 -9 -30 -12 0 -24 37 -16 50 12 20 25 10 25 -20z m-120 -29 c-5 -11 -10
-29 -10 -41 0 -12 -5 -20 -12 -18 -20 7 -19 24 2 51 25 32 35 35 20 8z m-136
-63 c-8 -53 -18 -65 -39 -48 -21 17 -19 35 8 64 32 35 38 31 31 -16z"/>
<path d="M2 65 l1 -70 7 55 c4 30 3 62 -1 70 -5 9 -8 -14 -7 -55z"/>
</g>
</svg>
