<?xml version="1.0" standalone="no"?>
<!DOCTYPE svg PUBLIC "-//W3C//DTD SVG 20010904//EN"
 "http://www.w3.org/TR/2001/REC-SVG-20010904/DTD/svg10.dtd">
<svg version="1.0" xmlns="http://www.w3.org/2000/svg"
 width="74.000000pt" height="79.000000pt" viewBox="0 0 74.000000 79.000000"
 preserveAspectRatio="xMidYMid meet">
<metadata>
Created by potrace 1.16, written by Peter Selinger 2001-2019
</metadata>
<g transform="translate(0.000000,79.000000) scale(0.100000,-0.100000)"
fill="#000000" stroke="none">
<path d="M220 750 c-11 -11 -22 -31 -26 -45 -3 -14 -13 -25 -23 -25 -9 0 -23
-6 -29 -12 -10 -10 -8 -16 9 -29 20 -15 20 -19 8 -52 -21 -59 -30 -49 -43 47
-6 41 -25 63 -38 43 -13 -20 -9 -97 12 -222 21 -125 19 -220 -5 -240 -20 -16
-67 -147 -57 -157 6 -6 33 -1 68 12 32 12 78 27 102 33 38 11 60 37 29 37 -11
0 -76 -23 -129 -45 -14 -5 -18 -2 -18 15 0 19 4 21 29 15 21 -4 30 -2 35 10 5
15 18 16 108 9 116 -9 116 -9 215 -1 l71 6 9 -35 c20 -86 41 -20 42 131 0 107
20 216 55 304 14 36 26 75 26 87 0 13 5 26 10 29 18 11 10 43 -12 49 -50 13
-128 -3 -128 -26 0 -11 -65 -10 -119 3 -24 5 -70 25 -100 44 -65 41 -74 42
-101 15z m55 -53 c12 -10 15 -16 6 -21 -18 -11 -51 3 -44 20 6 17 14 18 38 1z
m359 -25 c3 -5 -4 -37 -16 -71 -15 -45 -24 -58 -30 -48 -12 22 -4 74 15 95 10
10 14 22 10 25 -3 4 -1 7 5 7 6 0 13 -4 16 -8z m-110 -32 c2 -3 5 -39 7 -80
l4 -75 -40 -3 c-55 -5 -142 15 -192 44 -49 28 -81 31 -89 7 -3 -10 -13 -33
-22 -51 -15 -29 -15 -34 -2 -42 8 -6 22 -7 30 -4 8 4 77 9 152 12 154 5 168 1
168 -53 0 -29 -3 -33 -32 -37 -63 -10 -196 1 -269 22 -41 11 -75 20 -76 20 -6
0 -5 13 7 78 18 93 35 129 73 153 29 18 45 20 154 17 67 -2 124 -6 127 -8z m4
-319 c9 -5 12 -28 10 -77 l-3 -69 -55 -2 c-30 -1 -62 -4 -70 -5 -29 -5 -225
14 -243 24 -13 7 -17 18 -15 41 4 39 41 60 102 59 23 0 55 5 71 13 17 7 59 13
94 14 36 1 67 3 69 6 8 7 25 6 40 -4z"/>
</g>
</svg>
