<?xml version="1.0" standalone="no"?>
<!DOCTYPE svg PUBLIC "-//W3C//DTD SVG 20010904//EN"
 "http://www.w3.org/TR/2001/REC-SVG-20010904/DTD/svg10.dtd">
<svg version="1.0" xmlns="http://www.w3.org/2000/svg"
 width="107.000000pt" height="130.000000pt" viewBox="0 0 107.000000 130.000000"
 preserveAspectRatio="xMidYMid meet">
<metadata>
Created by potrace 1.16, written by Peter Selinger 2001-2019
</metadata>
<g transform="translate(0.000000,130.000000) scale(0.100000,-0.100000)"
fill="#000000" stroke="none">
<path d="M0 1290 c0 -5 4 -10 9 -10 6 0 13 5 16 10 3 6 -1 10 -9 10 -9 0 -16
-4 -16 -10z"/>
<path d="M726 1214 c-40 -45 -91 -68 -132 -58 -29 8 -33 -8 -21 -94 5 -40 7
-75 4 -78 -14 -14 -155 15 -195 40 l-42 26 -14 -23 c-17 -26 -37 -125 -26
-132 4 -3 27 2 51 10 60 22 165 45 200 45 36 0 36 0 44 -120 l6 -95 -31 -12
c-24 -9 -30 -17 -30 -42 0 -26 -4 -31 -24 -31 -37 0 -129 19 -153 31 -34 18
-48 6 -66 -60 -9 -33 -17 -63 -17 -66 0 -13 46 -3 93 21 60 31 155 56 163 43
11 -18 19 -187 11 -225 -10 -47 -1 -155 14 -164 6 -4 -9 -29 -38 -61 -71 -79
-97 -119 -85 -131 6 -6 19 3 38 29 64 85 135 157 214 218 29 22 72 58 95 80
88 82 128 115 171 142 24 16 43 33 44 40 0 6 -26 32 -58 57 -65 50 -97 88
-132 159 l-24 48 59 54 c33 29 68 60 77 68 9 9 26 20 37 27 32 17 25 36 -26
71 -92 63 -115 92 -128 161 -7 41 -16 64 -26 65 -7 1 -31 -18 -53 -43z m34
-39 c0 -18 -5 -25 -20 -25 -22 0 -26 20 -8 38 19 19 28 14 28 -13z m-26 -95
c-1 -19 -3 -80 -4 -135 -3 -100 -11 -128 -49 -172 -42 -50 -53 -19 -47 134 2
59 12 132 21 161 15 51 17 53 48 50 30 -3 32 -6 31 -38z m95 -36 c27 -34 27
-37 -7 -76 -16 -18 -32 -42 -36 -53 -8 -20 -8 -20 -15 0 -10 25 -4 111 9 136
14 26 25 24 49 -7z m79 -63 c10 -6 -6 -25 -57 -70 -71 -63 -90 -69 -49 -15 28
38 81 94 87 94 4 0 12 -4 19 -9z m-511 -12 l28 -11 -34 -14 c-40 -17 -63 -5
-41 21 15 18 12 18 47 4z m357 -215 c9 -23 8 -24 -19 -24 -27 0 -32 9 -13 28
16 16 25 15 32 -4z m-162 -96 c-6 -6 -8 -1 -7 14 4 39 8 44 12 19 3 -13 0 -28
-5 -33z m180 43 c4 -1 30 -24 58 -53 l51 -52 -49 -50 c-27 -28 -63 -72 -81
-98 -51 -76 -55 -73 -48 33 4 52 13 112 21 134 8 22 12 43 9 48 -4 6 -52 -1
-63 -10 -2 -2 -5 -74 -7 -161 -3 -150 -4 -158 -29 -194 -53 -76 -58 -73 -50
27 4 50 9 129 10 176 3 67 9 97 30 141 31 65 42 69 148 59z m-402 -90 c0 -12
-20 -25 -27 -18 -7 7 6 27 18 27 5 0 9 -4 9 -9z m559 -65 c9 -10 -1 -24 -47
-63 -31 -28 -79 -71 -107 -96 -27 -25 -51 -44 -53 -42 -2 2 15 27 37 55 23 29
41 55 41 59 0 14 88 101 102 101 9 0 21 -6 27 -14z"/>
<path d="M230 1067 c-25 -27 -67 -67 -95 -89 -72 -55 -75 -58 -75 -68 0 -6 7
-10 15 -10 21 0 135 -72 135 -86 0 -6 -29 -34 -65 -64 -71 -57 -90 -83 -78
-104 4 -7 40 -40 79 -74 40 -34 82 -77 94 -97 21 -35 60 -49 60 -21 0 17 -41
78 -81 119 -28 30 -30 36 -24 85 6 62 26 105 63 137 l26 22 -37 35 c-22 21
-37 45 -37 58 0 13 23 65 50 117 42 76 47 93 33 92 -10 -1 -38 -24 -63 -52z
m-55 -126 c-7 -24 -35 -29 -35 -6 0 13 31 38 38 30 2 -2 1 -13 -3 -24z m-16
-251 c-12 -33 -26 -39 -35 -15 -7 18 12 45 32 45 10 0 11 -6 3 -30z"/>
</g>
</svg>
