<?xml version="1.0" standalone="no"?>
<!DOCTYPE svg PUBLIC "-//W3C//DTD SVG 20010904//EN"
 "http://www.w3.org/TR/2001/REC-SVG-20010904/DTD/svg10.dtd">
<svg version="1.0" xmlns="http://www.w3.org/2000/svg"
 width="43.000000pt" height="51.000000pt" viewBox="0 0 43.000000 51.000000"
 preserveAspectRatio="xMidYMid meet">
<metadata>
Created by potrace 1.16, written by Peter Selinger 2001-2019
</metadata>
<g transform="translate(0.000000,51.000000) scale(0.100000,-0.100000)"
fill="#000000" stroke="none">
<path d="M288 432 c-39 -46 -182 -152 -206 -152 -34 0 -26 -25 16 -51 20 -13
42 -25 47 -28 32 -12 107 -67 154 -111 38 -37 56 -49 64 -41 7 7 -7 31 -51 80
-59 66 -62 72 -62 121 0 31 8 67 20 92 11 23 20 47 20 54 0 7 11 21 25 32 28
22 32 32 11 32 -8 0 -25 -12 -38 -28z m-72 -143 c-9 -35 -19 -53 -28 -51 -19
5 -58 31 -58 40 0 7 92 70 98 67 1 -1 -4 -26 -12 -56z"/>
</g>
</svg>
