<?xml version="1.0" standalone="no"?>
<!DOCTYPE svg PUBLIC "-//W3C//DTD SVG 20010904//EN"
 "http://www.w3.org/TR/2001/REC-SVG-20010904/DTD/svg10.dtd">
<svg version="1.0" xmlns="http://www.w3.org/2000/svg"
 width="105.000000pt" height="76.000000pt" viewBox="0 0 105.000000 76.000000"
 preserveAspectRatio="xMidYMid meet">
<metadata>
Created by potrace 1.16, written by Peter Selinger 2001-2019
</metadata>
<g transform="translate(0.000000,76.000000) scale(0.100000,-0.100000)"
fill="#000000" stroke="none">
<path d="M187 692 c-10 -11 -33 -51 -51 -89 -19 -39 -49 -84 -67 -101 -41 -38
-20 -44 36 -11 25 15 40 18 47 11 5 -5 11 -67 13 -137 1 -69 5 -129 9 -132 3
-3 -3 -18 -13 -32 -10 -14 -21 -44 -24 -66 -3 -22 -8 -48 -12 -57 -6 -15 -2
-18 23 -18 37 0 99 47 83 63 -25 25 2 56 54 62 21 2 22 0 12 -22 -8 -19 -7
-26 9 -37 17 -13 20 -11 36 16 21 34 62 53 133 63 47 6 147 25 330 61 95 19
187 44 198 54 8 7 -87 21 -243 35 -108 10 -222 32 -285 54 -74 26 -83 26 -112
-1 -22 -20 -23 -21 -23 -2 0 27 39 125 57 146 12 13 35 18 96 20 120 4 107 23
-16 23 -142 1 -191 10 -232 46 -18 17 -35 39 -37 51 -3 20 -3 20 -21 0z m23
-82 c12 -8 13 -11 1 -19 -19 -12 -51 -2 -44 15 6 16 22 18 43 4z m20 -78 c0
-4 -5 -14 -10 -22 -9 -13 -11 -13 -19 0 -6 9 -6 19 1 27 10 12 28 9 28 -5z
m120 6 c0 -7 -5 -20 -10 -28 -8 -12 -10 -9 -10 13 0 15 5 27 10 27 6 0 10 -6
10 -12z m-49 -60 c0 -35 1 -106 2 -158 l2 -95 -38 -3 c-32 -3 -38 0 -47 23
-17 45 -12 142 10 187 11 23 20 45 20 49 0 22 22 59 35 59 11 0 15 -14 16 -62z
m113 -84 c25 -9 19 -24 -9 -24 -24 0 -32 10 -18 23 8 8 8 8 27 1z m354 -70
c67 -4 122 -11 122 -15 0 -5 -11 -9 -24 -9 -14 0 -37 -5 -51 -10 -15 -6 -77
-14 -138 -20 -62 -5 -134 -14 -162 -20 -86 -17 -160 -28 -167 -23 -13 7 -9 90
5 101 17 15 86 18 197 10 52 -4 150 -10 218 -14z m-591 -216 c-3 -8 -6 -5 -6
6 -1 11 2 17 5 13 3 -3 4 -12 1 -19z"/>
</g>
</svg>
