<?xml version="1.0" standalone="no"?>
<!DOCTYPE svg PUBLIC "-//W3C//DTD SVG 20010904//EN"
 "http://www.w3.org/TR/2001/REC-SVG-20010904/DTD/svg10.dtd">
<svg version="1.0" xmlns="http://www.w3.org/2000/svg"
 width="91.000000pt" height="68.000000pt" viewBox="0 0 91.000000 68.000000"
 preserveAspectRatio="xMidYMid meet">
<metadata>
Created by potrace 1.16, written by Peter Selinger 2001-2019
</metadata>
<g transform="translate(0.000000,68.000000) scale(0.100000,-0.100000)"
fill="#000000" stroke="none">
<path d="M280 574 l-35 -45 -80 3 -80 3 -3 -68 c-3 -68 4 -80 29 -51 33 40
198 90 213 65 5 -7 -2 -11 -18 -11 -29 0 -29 -1 -30 -80 l-1 -55 -30 4 c-32 3
-80 25 -106 47 -12 11 -19 11 -32 1 -16 -12 -89 -148 -83 -154 10 -10 118 -5
160 7 31 10 51 11 53 5 13 -38 22 -40 48 -13 28 30 50 33 117 19 24 -6 101
-22 173 -37 72 -14 135 -29 140 -33 10 -6 93 -30 108 -31 21 -1 1 22 -45 50
-108 66 -248 174 -248 191 0 7 17 16 200 101 115 53 115 53 115 69 0 11 -21
13 -105 11 -58 -2 -136 -7 -175 -12 -38 -5 -99 -11 -135 -12 l-65 -3 -18 38
c-10 20 -22 37 -25 37 -4 -1 -23 -21 -42 -46z m510 -22 c0 -8 -144 -79 -242
-119 l-58 -23 -42 31 c-47 34 -65 57 -52 69 5 4 36 10 69 14 60 6 303 33 318
35 4 0 7 -3 7 -7z m-590 -57 c0 -10 -70 -36 -80 -30 -20 12 10 35 46 35 19 0
34 -2 34 -5z m227 -77 l32 -24 -55 -27 c-70 -34 -99 -36 -89 -4 3 12 9 33 12
47 3 14 12 30 21 37 16 13 27 9 79 -29z m-107 12 c0 -5 -5 -10 -11 -10 -5 0
-7 5 -4 10 3 6 8 10 11 10 2 0 4 -4 4 -10z m257 -128 c18 -12 36 -22 40 -22
15 0 76 -60 62 -60 -8 0 -34 6 -59 14 -68 22 -121 35 -160 40 -50 6 -92 24
-88 39 2 6 28 24 58 39 l55 27 30 -27 c17 -15 44 -37 62 -50z m-411 13 c16 -8
38 -15 49 -16 27 -2 -52 -27 -87 -28 -30 -1 -34 9 -18 40 13 23 19 23 56 4z"/>
</g>
</svg>
