<?xml version="1.0" standalone="no"?>
<!DOCTYPE svg PUBLIC "-//W3C//DTD SVG 20010904//EN"
 "http://www.w3.org/TR/2001/REC-SVG-20010904/DTD/svg10.dtd">
<svg version="1.0" xmlns="http://www.w3.org/2000/svg"
 width="79.000000pt" height="72.000000pt" viewBox="0 0 79.000000 72.000000"
 preserveAspectRatio="xMidYMid meet">
<metadata>
Created by potrace 1.16, written by Peter Selinger 2001-2019
</metadata>
<g transform="translate(0.000000,72.000000) scale(0.100000,-0.100000)"
fill="#000000" stroke="none">
<path d="M262 663 c-21 -4 -23 -8 -17 -40 l6 -36 -43 7 c-24 4 -53 14 -66 22
-34 22 -64 14 -73 -18 -6 -23 -4 -28 11 -28 10 0 21 4 25 10 9 14 135 -4 135
-19 0 -5 -23 -11 -51 -14 -28 -4 -57 -11 -64 -17 -10 -8 -16 -7 -24 7 -9 16
-12 16 -21 3 -5 -8 -10 -27 -10 -42 0 -14 -3 -34 -7 -44 -5 -15 -2 -16 28 -9
19 4 61 8 94 9 l60 1 3 -43 3 -44 -78 7 c-43 4 -86 9 -95 11 -13 4 -21 -3 -28
-22 -15 -37 0 -44 64 -30 28 6 68 10 88 8 31 -3 39 -8 44 -28 9 -36 -2 -57
-29 -51 -12 3 -52 9 -89 12 l-66 7 -18 -37 c-18 -39 -10 -57 25 -49 116 26
166 33 178 23 8 -8 13 -35 13 -80 0 -39 4 -69 10 -69 6 0 10 30 10 69 0 84 6
101 34 101 38 0 46 -19 46 -109 0 -63 3 -82 11 -74 7 7 12 47 13 92 0 43 3 82
6 85 3 2 24 2 48 -1 l42 -6 0 -93 c0 -52 4 -94 9 -94 5 0 12 33 16 72 11 126
10 124 58 123 l42 -1 3 -49 c6 -128 31 -155 31 -33 0 81 5 88 70 88 56 0 45
12 -17 20 -44 5 -47 7 -47 35 0 29 2 30 55 36 30 3 46 7 35 9 -11 1 -24 3 -30
5 -5 1 -22 3 -37 3 -24 2 -28 6 -28 31 0 53 8 61 63 61 59 0 56 11 -6 19 -34
5 -43 10 -45 29 -3 20 1 22 43 22 28 0 44 4 40 10 -3 6 -14 10 -23 10 -9 0
-30 7 -46 15 -16 8 -47 14 -69 13 -31 -2 -42 1 -42 12 0 18 -57 26 -82 11 -16
-9 -14 -10 10 -11 15 0 27 -4 27 -9 0 -5 -19 -8 -42 -8 l-43 2 3 38 c4 39 -2
42 -45 31 -13 -4 -23 -11 -23 -16 0 -6 9 -8 20 -5 13 3 20 0 20 -8 0 -20 -19
-29 -34 -16 -9 7 -16 7 -23 0 -20 -20 -35 2 -31 44 3 44 -3 49 -50 40z m15
-65 c-3 -7 -5 -2 -5 12 0 14 2 19 5 13 2 -7 2 -19 0 -25z m-35 -94 c-7 -12
-25 -16 -75 -18 -37 0 -67 2 -67 6 0 14 44 31 94 37 54 7 63 2 48 -25z m108
21 c18 -21 5 -45 -24 -45 -31 0 -40 14 -26 40 13 24 33 26 50 5z m110 -25 c0
-25 -4 -30 -24 -30 -14 0 -28 4 -31 10 -10 16 14 50 35 50 16 0 20 -7 20 -30z
m49 -3 c0 -21 -1 -21 -9 -2 -12 28 -12 37 0 30 6 -3 10 -16 9 -28z m69 0 c3
-21 -1 -27 -17 -27 -25 0 -32 10 -24 39 8 31 37 23 41 -12z m39 -9 c-3 -7 -5
-2 -5 12 0 14 2 19 5 13 2 -7 2 -19 0 -25z m-269 -37 c8 -5 12 -23 10 -47 -3
-37 -5 -39 -38 -39 -31 0 -35 3 -38 28 -2 17 4 37 14 48 19 21 32 23 52 10z
m120 -15 c2 -2 4 -19 5 -37 2 -32 0 -34 -34 -37 -33 -3 -37 -1 -42 27 -10 47
0 62 36 55 17 -3 33 -7 35 -8z m122 -8 c0 -13 3 -33 6 -44 7 -25 -9 -33 -53
-27 -30 5 -32 7 -26 37 8 41 21 56 49 56 18 0 24 -6 24 -22z m-120 -102 c6 -8
10 -25 8 -38 -2 -18 -10 -24 -39 -26 -32 -3 -37 0 -43 23 -4 16 -2 33 5 41 15
18 53 18 69 0z m-118 -13 c8 -36 -2 -54 -30 -51 -22 2 -28 9 -30 36 -3 30 -1
32 26 32 20 0 31 -6 34 -17z m248 -19 l0 -35 -42 3 c-40 3 -43 5 -46 36 -3 32
-3 32 42 32 46 0 46 0 46 -36z m-445 -60 c-36 -16 -85 -18 -85 -4 0 16 37 26
78 21 l37 -4 -30 -13z"/>
</g>
</svg>
