<?xml version="1.0" standalone="no"?>
<!DOCTYPE svg PUBLIC "-//W3C//DTD SVG 20010904//EN"
 "http://www.w3.org/TR/2001/REC-SVG-20010904/DTD/svg10.dtd">
<svg version="1.0" xmlns="http://www.w3.org/2000/svg"
 width="90.000000pt" height="90.000000pt" viewBox="0 0 90.000000 90.000000"
 preserveAspectRatio="xMidYMid meet">
<metadata>
Created by potrace 1.16, written by Peter Selinger 2001-2019
</metadata>
<g transform="translate(0.000000,90.000000) scale(0.100000,-0.100000)"
fill="#000000" stroke="none">
<path d="M435 801 c-10 -34 -29 -76 -42 -93 -18 -25 -23 -45 -23 -91 0 -57 -1
-59 -22 -52 -13 4 -44 10 -70 14 -46 7 -61 15 -109 58 -21 19 -28 21 -37 11
-12 -16 -36 -138 -27 -146 3 -3 19 2 36 12 33 19 159 33 204 22 24 -6 26 -10
24 -54 -4 -73 -4 -73 -73 -66 -33 4 -83 11 -111 16 -97 18 -98 18 -106 -29 -5
-23 -13 -51 -19 -63 -18 -33 17 -39 43 -8 33 38 73 49 173 46 l89 -3 3 -32 c4
-40 -26 -215 -38 -227 -11 -11 -13 -46 -3 -46 4 0 16 9 27 19 53 49 118 72
231 83 82 8 114 7 128 -2 15 -9 23 -8 38 6 12 11 16 21 10 28 -5 6 -5 53 0
111 5 55 7 109 4 120 -2 11 3 56 11 100 32 176 33 175 -35 175 -66 0 -164 39
-215 86 -20 19 -40 34 -43 34 -3 0 -11 7 -18 16 -9 13 -14 6 -30 -45z m69 -50
l28 -29 -32 -7 c-39 -9 -53 4 -44 39 8 33 14 33 48 -3z m-18 -108 c-2 -27 -10
-106 -16 -178 -21 -231 -22 -234 -47 -224 -21 7 -23 15 -23 73 0 43 4 66 13
69 9 3 9 7 -2 20 -13 17 -12 31 9 117 6 25 16 68 21 95 18 85 54 106 45 28z
m94 25 c0 -27 -20 -308 -25 -358 -2 -19 -4 -49 -4 -67 -1 -27 -4 -30 -23 -25
-32 7 -39 21 -31 62 4 19 7 69 8 110 2 123 17 274 28 288 17 21 47 15 47 -10z
m74 -29 c-6 -326 -5 -402 4 -411 17 -17 20 0 32 177 6 88 13 178 15 200 1 22
3 46 4 53 1 6 6 12 11 12 10 0 6 -291 -6 -406 l-5 -52 -59 0 c-56 0 -59 1 -62
26 -2 15 0 56 5 92 4 36 11 126 16 201 4 75 11 141 15 148 15 24 31 3 30 -40z
m-247 -11 c-3 -7 -5 -2 -5 12 0 14 2 19 5 13 2 -7 2 -19 0 -25z m-237 -58 c0
-5 -5 -10 -11 -10 -5 0 -7 5 -4 10 3 6 8 10 11 10 2 0 4 -4 4 -10z m264 -389
c6 -10 -40 -44 -53 -39 -5 2 -5 13 0 26 8 22 43 31 53 13z"/>
</g>
</svg>
