<?xml version="1.0" standalone="no"?>
<!DOCTYPE svg PUBLIC "-//W3C//DTD SVG 20010904//EN"
 "http://www.w3.org/TR/2001/REC-SVG-20010904/DTD/svg10.dtd">
<svg version="1.0" xmlns="http://www.w3.org/2000/svg"
 width="59.000000pt" height="84.000000pt" viewBox="0 0 59.000000 84.000000"
 preserveAspectRatio="xMidYMid meet">
<metadata>
Created by potrace 1.16, written by Peter Selinger 2001-2019
</metadata>
<g transform="translate(0.000000,84.000000) scale(0.100000,-0.100000)"
fill="#000000" stroke="none">
<path d="M241 746 c-17 -24 -50 -60 -73 -79 l-43 -36 28 -10 c15 -6 27 -16 27
-23 0 -6 -25 -36 -56 -67 -53 -50 -56 -55 -39 -68 11 -7 26 -13 34 -13 22 0
174 -109 201 -143 12 -15 28 -27 36 -27 14 0 14 -40 -1 -202 -4 -52 9 -64 25
-22 6 14 15 69 21 122 11 99 26 143 64 197 21 28 75 136 75 147 0 3 -30 5 -68
4 -62 -1 -71 2 -123 36 -55 36 -57 39 -64 93 -3 31 -4 74 0 96 9 52 -6 50 -44
-5z m6 -79 c5 -40 -3 -48 -34 -36 -28 10 -29 19 -2 53 25 32 29 29 36 -17z
m65 -126 c51 -32 58 -40 60 -71 2 -43 -3 -144 -8 -149 -2 -2 -16 9 -31 25 -15
16 -47 45 -70 63 -23 19 -40 38 -37 43 3 4 1 8 -4 8 -12 0 -26 105 -17 120 9
15 40 4 107 -39z m-132 -53 c0 -12 -38 -10 -45 2 -4 6 -1 18 6 26 12 14 14 14
26 -2 7 -10 13 -21 13 -26z m320 5 c-1 -10 -26 -43 -33 -43 -8 0 -17 31 -11
41 6 11 44 12 44 2z m-50 -53 c19 -10 19 -11 -2 -46 -17 -28 -23 -33 -30 -21
-7 14 -1 77 9 77 2 0 13 -5 23 -10z"/>
</g>
</svg>
