<?xml version="1.0" standalone="no"?>
<!DOCTYPE svg PUBLIC "-//W3C//DTD SVG 20010904//EN"
 "http://www.w3.org/TR/2001/REC-SVG-20010904/DTD/svg10.dtd">
<svg version="1.0" xmlns="http://www.w3.org/2000/svg"
 width="80.000000pt" height="89.000000pt" viewBox="0 0 80.000000 89.000000"
 preserveAspectRatio="xMidYMid meet">
<metadata>
Created by potrace 1.16, written by Peter Selinger 2001-2019
</metadata>
<g transform="translate(0.000000,89.000000) scale(0.100000,-0.100000)"
fill="#000000" stroke="none">
<path d="M228 883 c12 -2 30 -2 40 0 9 3 -1 5 -23 4 -22 0 -30 -2 -17 -4z"/>
<path d="M523 883 c15 -2 37 -2 50 0 12 2 0 4 -28 4 -27 0 -38 -2 -22 -4z"/>
<path d="M608 883 c7 -3 16 -2 19 1 4 3 -2 6 -13 5 -11 0 -14 -3 -6 -6z"/>
<path d="M300 850 c0 -5 -15 -17 -32 -25 -93 -44 -158 -89 -158 -108 0 -6 16
-25 36 -43 20 -18 33 -37 30 -42 -3 -6 -27 -9 -54 -9 -57 1 -72 -7 -72 -37 0
-12 -5 -27 -10 -32 -7 -7 -7 -27 -1 -60 6 -30 6 -66 1 -89 -5 -22 -7 -42 -4
-44 3 -3 19 1 37 8 43 17 100 31 106 25 4 -3 -13 -19 -76 -74 -17 -14 -8 -32
28 -52 16 -10 36 -33 45 -53 8 -19 19 -35 24 -35 13 0 13 6 -2 47 -10 28 -9
42 7 88 24 71 41 85 109 92 62 6 71 -3 29 -30 -16 -9 -45 -32 -65 -50 l-37
-34 39 -37 c21 -20 54 -59 71 -86 18 -28 35 -50 39 -50 19 0 17 17 -4 59 -42
80 -39 153 8 165 22 5 137 -2 144 -9 6 -5 -17 -104 -29 -130 -5 -11 -20 -62
-33 -112 -16 -66 -20 -93 -11 -93 6 0 17 15 23 33 32 96 50 132 118 242 41 66
91 139 110 163 18 24 34 50 34 58 0 19 -44 38 -67 30 -17 -7 -17 -8 0 -20 23
-17 21 -25 -12 -65 -33 -40 -51 -35 -51 14 0 24 6 38 20 45 17 9 18 18 13 93
-6 81 -5 84 32 152 20 39 46 80 58 93 l20 22 -27 0 c-16 0 -60 -8 -98 -17 -87
-21 -106 -42 -84 -94 35 -85 37 -82 -70 -99 -76 -12 -99 -4 -109 41 -4 17 -13
33 -21 36 -8 3 -14 12 -14 20 0 12 3 13 15 3 15 -12 35 -6 35 11 0 6 11 25 26
44 33 43 15 56 -29 21 -18 -15 -47 -36 -64 -49 -18 -12 -33 -28 -33 -36 0 -7
13 -33 30 -57 33 -50 29 -56 -37 -58 -52 -2 -64 23 -35 74 12 21 22 44 22 50
0 7 16 31 35 54 41 50 42 56 15 56 -11 0 -20 -4 -20 -10z m380 -59 c-11 -17
-27 -46 -35 -65 -18 -44 -31 -46 -38 -7 -3 16 -9 40 -12 54 -6 23 -3 27 27 36
18 5 43 10 56 10 l23 1 -21 -29z m-466 -75 c-7 -30 -16 -33 -34 -11 -14 17
-14 17 15 33 25 13 28 11 19 -22z m380 -88 c2 -7 8 -28 14 -47 9 -27 8 -39 -3
-60 -8 -14 -19 -37 -24 -51 -9 -25 -9 -25 -132 -24 -68 1 -131 -2 -140 -7 -12
-6 -21 -4 -29 6 -7 8 -21 15 -32 15 -28 0 -98 38 -98 54 0 19 44 46 74 46 24
0 78 -43 88 -70 4 -12 8 -12 18 -3 14 13 8 33 -22 76 -29 41 54 51 100 12 39
-32 43 -32 40 7 -3 31 -1 33 47 44 67 16 95 17 99 2z m-429 -48 c-9 -15 -61
-40 -68 -33 -15 14 15 43 44 43 18 0 28 -4 24 -10z m20 -135 c16 -5 12 -9 -25
-26 -53 -24 -70 -19 -70 19 0 39 7 43 44 27 17 -7 40 -16 51 -20z m328 -36
c62 -13 71 -24 32 -39 -27 -10 -123 -2 -131 12 -7 11 14 38 31 38 6 0 37 -5
68 -11z m105 -42 c-7 -14 -13 -17 -16 -9 -6 19 6 44 18 37 7 -4 6 -14 -2 -28z
m-448 -52 c0 -8 -4 -15 -9 -15 -13 0 -22 16 -14 24 11 11 23 6 23 -9z"/>
</g>
</svg>
