<?xml version="1.0" standalone="no"?>
<!DOCTYPE svg PUBLIC "-//W3C//DTD SVG 20010904//EN"
 "http://www.w3.org/TR/2001/REC-SVG-20010904/DTD/svg10.dtd">
<svg version="1.0" xmlns="http://www.w3.org/2000/svg"
 width="139.000000pt" height="81.000000pt" viewBox="0 0 139.000000 81.000000"
 preserveAspectRatio="xMidYMid meet">
<metadata>
Created by potrace 1.16, written by Peter Selinger 2001-2019
</metadata>
<g transform="translate(0.000000,81.000000) scale(0.100000,-0.100000)"
fill="#000000" stroke="none">
<path d="M1290 723 c-28 -9 -65 -28 -91 -46 -33 -23 -29 -40 23 -121 21 -33
36 -68 34 -80 -3 -19 -9 -21 -72 -21 l-69 0 2 35 c0 19 4 57 9 84 7 48 7 49
-17 43 -13 -4 -30 -7 -36 -7 -9 0 -12 -21 -10 -77 2 -78 2 -78 -23 -75 -14 2
-28 7 -31 10 -3 4 -3 36 1 72 4 36 4 69 0 73 -4 4 -18 3 -32 -2 -25 -9 -25
-12 -20 -80 5 -68 4 -71 -18 -71 -22 0 -22 1 -15 85 6 75 5 85 -10 85 -43 0
-55 -18 -55 -87 0 -63 -1 -65 -22 -58 -13 4 -32 8 -43 9 -66 9 -105 20 -105
32 0 7 11 44 25 82 30 84 32 107 8 97 -10 -3 -36 -9 -58 -12 -52 -7 -57 -13
-44 -51 12 -34 6 -67 -11 -57 -5 3 -33 8 -62 10 -156 13 -158 14 -158 45 0 16
4 30 10 32 16 5 -1 48 -20 48 -9 0 -25 -9 -35 -20 -10 -11 -24 -20 -31 -20 -7
0 -19 -9 -28 -21 -10 -15 -20 -19 -34 -15 -14 5 -27 0 -41 -15 -13 -14 -27
-20 -41 -16 -12 3 -35 1 -52 -5 -24 -9 -28 -15 -23 -32 10 -35 27 -224 29
-333 1 -56 5 -105 8 -109 12 -11 29 7 27 29 -5 63 1 78 36 93 56 23 94 24 105
3 6 -9 8 -24 6 -31 -12 -35 -15 -128 -5 -134 16 -10 30 17 26 50 -4 33 11 115
24 132 6 8 57 12 144 12 l135 1 -1 -27 c0 -15 -6 -67 -13 -115 -7 -50 -8 -90
-3 -94 13 -8 19 2 27 44 13 63 71 216 103 271 15 25 26 32 50 32 18 0 42 3 54
6 21 6 21 5 18 -126 -2 -97 0 -130 8 -127 8 2 13 45 15 129 3 135 11 156 52
143 19 -6 21 -13 19 -83 -1 -43 -6 -85 -10 -94 -5 -10 -5 -19 0 -23 5 -3 12 3
14 12 12 43 20 100 18 129 -3 39 22 66 58 62 26 -3 26 -3 29 -101 2 -85 5 -97
17 -87 11 9 15 34 15 86 0 64 3 75 22 88 23 17 57 20 95 10 20 -5 22 -11 18
-48 -25 -211 -22 -313 6 -215 6 24 22 67 35 96 13 28 24 55 24 60 0 4 14 41
30 82 17 41 29 75 28 75 -2 1 -15 7 -30 14 -25 10 -28 16 -27 59 1 56 13 140
24 166 7 17 -4 21 -35 10z m-12 -136 c-7 -13 -13 -15 -28 -7 -22 12 -42 44
-33 54 3 3 14 6 24 6 9 0 20 10 24 23 6 19 8 17 15 -18 4 -23 4 -48 -2 -58z
m-918 59 c0 -8 -5 -18 -10 -21 -13 -8 -42 14 -34 26 9 15 44 10 44 -5z m330
-15 c0 -28 -11 -52 -21 -45 -16 9 -11 64 6 64 8 0 15 -9 15 -19z m-420 -51 c0
-11 5 -20 10 -20 6 0 10 -9 10 -20 0 -23 -16 -25 -57 -9 l-28 11 30 13 c19 9
24 14 13 14 -29 1 -20 31 9 31 7 0 13 -9 13 -20z m831 -43 c-8 -8 -11 -4 -11
14 0 33 14 47 18 19 2 -12 -1 -27 -7 -33z m-931 31 c0 -7 -5 -31 -11 -53 -10
-34 -13 -37 -20 -20 -12 31 -10 73 4 78 21 9 27 8 27 -5z m453 -3 c9 -4 17
-18 17 -31 0 -22 -4 -24 -57 -25 -32 -1 -76 0 -98 2 -22 2 -57 3 -77 4 -42 0
-49 16 -21 47 14 16 28 18 117 14 56 -3 109 -8 119 -11z m273 -32 c-11 -11
-17 4 -9 23 7 18 8 18 11 1 2 -10 1 -21 -2 -24z m-278 -48 c6 -2 12 -18 12
-34 0 -26 -4 -31 -34 -37 -19 -3 -61 -4 -93 -1 -32 3 -79 6 -105 6 -44 1 -48
3 -48 25 0 47 18 53 142 49 62 -2 119 -5 126 -8z m-330 -7 c7 -7 12 -20 12
-29 0 -15 -10 -17 -65 -16 -36 1 -65 5 -65 8 0 12 25 27 60 37 47 14 44 14 58
0z m442 -3 c17 -9 30 -17 30 -20 0 -2 -17 -36 -39 -75 -45 -84 -56 -79 -53 24
4 94 8 99 62 71z m105 -35 c3 -6 -1 -13 -10 -16 -19 -8 -30 0 -20 15 8 14 22
14 30 1z m465 -32 c0 -13 -9 -41 -20 -63 l-19 -40 6 50 c2 28 6 56 9 63 6 21
24 13 24 -10z m-677 -18 c5 0 7 -17 5 -37 l-3 -38 -70 -3 c-38 -2 -103 -1
-142 3 -70 6 -73 8 -71 31 4 46 20 50 168 47 58 -2 109 -3 113 -3z m-319 -31
c3 -18 4 -34 2 -37 -7 -6 -120 8 -135 18 -31 19 14 45 84 49 40 2 43 0 49 -30z
m-99 -81 c-19 -11 -30 -5 -21 11 4 6 14 7 22 4 15 -5 14 -7 -1 -15z"/>
</g>
</svg>
