<?xml version="1.0" standalone="no"?>
<!DOCTYPE svg PUBLIC "-//W3C//DTD SVG 20010904//EN"
 "http://www.w3.org/TR/2001/REC-SVG-20010904/DTD/svg10.dtd">
<svg version="1.0" xmlns="http://www.w3.org/2000/svg"
 width="152.000000pt" height="75.000000pt" viewBox="0 0 152.000000 75.000000"
 preserveAspectRatio="xMidYMid meet">
<metadata>
Created by potrace 1.16, written by Peter Selinger 2001-2019
</metadata>
<g transform="translate(0.000000,75.000000) scale(0.100000,-0.100000)"
fill="#000000" stroke="none">
<path d="M1346 704 c-12 -12 -12 -21 0 -60 8 -26 14 -71 14 -99 0 -50 -2 -53
-35 -69 l-36 -17 21 -26 c18 -23 20 -38 17 -172 -2 -127 0 -146 14 -149 13 -2
17 11 23 78 7 84 36 190 68 248 23 42 23 42 -12 42 -22 0 -30 5 -30 18 0 10 3
22 8 26 4 4 7 11 7 14 0 4 17 37 38 74 53 95 51 105 -23 105 -39 1 -66 -4 -74
-13z m94 -24 c0 -5 -8 -25 -17 -45 -19 -40 -33 -31 -33 23 0 28 3 32 25 32 14
0 25 -4 25 -10z m-59 -281 l-10 -24 0 26 c-1 14 2 29 6 33 12 12 14 -9 4 -35z"/>
<path d="M180 680 c-18 -26 -28 -30 -66 -30 -39 0 -46 -3 -55 -26 -5 -15 -7
-58 -3 -98 7 -90 12 -185 13 -308 1 -80 4 -98 16 -98 15 0 20 42 16 150 -1 25
3 68 9 95 6 28 12 57 14 65 1 8 7 27 14 41 6 15 14 43 18 63 8 44 28 66 57 65
22 -2 22 -2 0 -6 -13 -2 -23 -7 -24 -11 0 -4 -2 -60 -4 -125 -3 -93 -7 -123
-20 -137 -16 -17 -15 -19 5 -30 20 -11 22 -18 18 -76 -3 -45 0 -64 8 -64 14 0
24 32 24 77 0 47 9 63 36 63 34 0 49 -41 36 -98 -8 -35 -7 -45 5 -49 20 -8 21
-5 27 65 6 76 9 82 47 82 40 0 53 -35 45 -117 -4 -38 -3 -63 3 -63 16 0 22 17
26 79 5 100 6 101 84 101 38 0 89 3 115 6 l47 7 -6 -99 c-4 -54 -8 -109 -10
-121 -3 -20 10 -41 20 -31 5 4 12 43 24 123 5 33 16 74 25 90 8 17 16 41 18
55 7 48 43 84 96 95 l34 7 -2 -54 c-4 -129 0 -182 12 -170 13 13 15 20 23 117
3 38 13 80 21 93 18 28 50 25 47 -3 -6 -60 -6 -155 0 -161 13 -13 18 3 23 77
5 77 22 109 55 109 24 0 34 -55 20 -106 -15 -52 -14 -64 4 -64 9 0 16 10 16
25 1 14 2 28 4 33 1 4 5 31 10 60 6 41 11 52 26 52 17 0 19 -8 19 -75 0 -41 4
-75 9 -75 12 0 21 36 21 85 0 51 8 62 45 67 39 4 39 21 0 28 -27 5 -30 9 -27
40 2 19 11 47 19 63 19 37 13 69 -12 73 -39 6 -49 -11 -47 -77 3 -72 -4 -99
-25 -99 -12 0 -14 8 -10 38 19 120 20 152 3 152 -9 0 -16 -6 -16 -12 0 -10 -3
-9 -9 1 -20 31 -31 -2 -31 -90 l0 -89 -29 0 c-38 0 -45 21 -26 78 26 75 30
128 11 135 -9 4 -16 3 -16 -2 0 -16 -38 -19 -44 -4 -4 10 -18 13 -48 11 l-43
-3 4 -94 3 -94 -23 8 c-13 4 -35 8 -49 10 -27 2 -70 25 -70 37 0 4 14 37 30
73 36 79 37 85 6 85 -42 0 -96 -28 -96 -50 0 -17 -7 -20 -52 -20 -139 1 -360
37 -403 66 -29 20 -41 17 -65 -16z m576 -51 l-15 -34 -1 32 c0 17 6 33 13 36
18 7 19 3 3 -34z m-522 25 c25 -9 19 -24 -9 -24 -24 0 -32 10 -18 23 8 8 8 8
27 1z m715 -11 c0 -5 -4 -17 -9 -28 -8 -18 -9 -17 -9 8 -1 15 4 27 9 27 6 0
10 -3 9 -7z m44 -130 c-5 -34 -10 -43 -25 -43 -17 0 -19 5 -15 38 3 20 8 44
11 52 2 8 8 29 12 45 l7 30 8 -40 c4 -22 5 -59 2 -82z m-868 90 c-2 -10 -7
-36 -11 -58 l-7 -40 -7 32 c-9 41 -1 83 15 83 7 0 12 -8 10 -17z m428 5 l147
-2 0 -42 0 -42 -67 -4 c-38 -3 -97 -1 -132 4 -35 4 -79 6 -97 2 -26 -5 -35 -2
-40 10 -8 21 -42 21 -65 0 -23 -21 -38 -11 -31 21 2 14 -1 32 -7 39 -10 12 -7
15 21 18 18 2 53 2 78 1 25 -1 111 -3 193 -5z m-265 -116 c14 -9 6 -42 -12
-54 -32 -22 -47 3 -26 43 12 21 18 23 38 11z m113 -4 c-1 -5 -1 -17 -1 -28 0
-16 -7 -20 -30 -20 -34 0 -40 19 -14 45 16 16 46 17 45 3z m299 -20 l0 -28
-109 0 c-114 0 -135 8 -108 38 13 14 35 17 116 18 l101 1 0 -29z m60 -8 c0
-11 -4 -20 -9 -20 -14 0 -23 18 -16 30 10 17 25 11 25 -10z m85 -22 c-19 -11
-30 -5 -21 11 4 6 14 7 22 4 15 -5 14 -7 -1 -15z m-555 -39 c3 -5 6 -23 5 -41
0 -31 -2 -33 -35 -33 -29 0 -36 4 -38 24 -2 12 -1 34 2 47 6 21 11 23 34 18
15 -4 29 -11 32 -15z m408 -26 l-3 -48 -120 0 c-118 0 -120 0 -123 23 -8 52
32 71 156 71 l93 1 -3 -47z m-284 2 c9 -46 2 -55 -39 -55 -38 0 -52 23 -41 66
5 19 13 24 40 24 31 0 34 -3 40 -35z"/>
</g>
</svg>
