<?xml version="1.0" standalone="no"?>
<!DOCTYPE svg PUBLIC "-//W3C//DTD SVG 20010904//EN"
 "http://www.w3.org/TR/2001/REC-SVG-20010904/DTD/svg10.dtd">
<svg version="1.0" xmlns="http://www.w3.org/2000/svg"
 width="212.000000pt" height="88.000000pt" viewBox="0 0 212.000000 88.000000"
 preserveAspectRatio="xMidYMid meet">
<metadata>
Created by potrace 1.16, written by Peter Selinger 2001-2019
</metadata>
<g transform="translate(0.000000,88.000000) scale(0.100000,-0.100000)"
fill="#000000" stroke="none">
<path d="M420 821 l-55 -17 -3 -67 -3 -67 -63 0 c-39 0 -69 5 -82 15 -27 20
-61 18 -74 -4 -12 -23 -14 -108 -2 -115 4 -2 33 6 64 18 31 13 81 26 111 30
65 7 65 8 68 -98 2 -42 -2 -71 -8 -73 -18 -6 -188 54 -233 82 -32 20 -45 24
-55 15 -16 -14 -50 -118 -42 -127 4 -3 25 2 46 12 28 12 55 16 88 13 67 -6
201 -49 208 -67 3 -7 8 -77 11 -155 4 -77 8 -143 10 -145 13 -15 19 27 22 152
1 77 4 143 7 145 7 7 228 -49 273 -69 23 -10 51 -19 61 -19 13 0 21 -11 27
-42 5 -25 15 -44 24 -46 13 -2 15 14 15 95 l0 98 35 11 c53 18 220 0 240 -25
8 -10 32 -39 53 -64 36 -43 37 -47 23 -69 -8 -13 -17 -53 -20 -90 -6 -81 -2
-82 81 -38 64 34 99 37 303 20 69 -6 177 -14 240 -18 l115 -7 5 -29 c3 -17 9
-30 15 -30 14 -1 22 47 24 132 0 40 5 80 10 90 6 9 20 51 32 92 12 41 36 120
54 175 18 55 36 116 40 136 l7 36 -59 6 c-68 6 -85 -5 -105 -68 l-13 -40 -250
-5 -250 -5 -14 -52 c-15 -58 -30 -66 -55 -28 -19 29 -20 71 -2 145 18 70 25
89 49 123 10 16 17 31 14 34 -12 12 -37 -8 -56 -44 -11 -21 -42 -60 -70 -86
l-50 -49 -58 12 c-128 26 -150 32 -211 61 -57 27 -66 29 -80 15 -11 -9 -42
-15 -87 -17 -38 -2 -79 -6 -90 -10 -11 -4 -66 -10 -123 -13 -117 -7 -116 -8
-77 72 14 29 25 59 25 67 0 20 -38 18 -110 -4z m70 -24 c0 -8 -6 -27 -14 -43
-8 -16 -20 -42 -25 -57 -17 -45 -45 -32 -49 22 -3 36 1 46 20 60 44 31 68 38
68 18z m440 -122 c10 -13 9 -15 -9 -15 -12 0 -21 6 -21 15 0 8 4 15 9 15 5 0
14 -7 21 -15z m-153 -24 c-8 -21 -7 -66 2 -169 8 -78 11 -148 7 -157 -5 -15
-8 -15 -28 -1 -12 9 -31 16 -42 16 -11 0 -49 9 -85 21 -36 11 -90 28 -120 37
-76 24 -86 33 -83 78 4 59 24 143 37 154 6 5 63 17 126 26 62 8 116 17 118 20
2 2 21 4 42 4 37 0 37 0 26 -29z m536 9 c-7 -25 -19 -34 -28 -20 -7 11 11 40
25 40 5 0 6 -9 3 -20z m734 -7 c-8 -41 -35 -135 -46 -158 -5 -11 -15 -39 -22
-63 -19 -64 -25 -58 -22 21 1 40 3 100 4 135 2 72 15 92 61 92 28 0 30 -2 25
-27z m-1801 -25 c3 -4 -11 -11 -32 -17 -42 -12 -41 -12 -44 9 -5 35 -1 38 35
26 19 -7 37 -15 41 -18z m599 1 c8 -12 -16 -99 -27 -99 -4 0 -8 25 -8 55 0 41
4 55 14 55 8 0 18 -5 21 -11z m268 -6 l77 -6 83 -81 c124 -122 157 -145 157
-109 0 23 29 53 52 53 22 0 24 -26 2 -34 -13 -5 -15 -15 -11 -51 9 -59 -1
-103 -24 -110 -18 -6 -21 -13 -33 -67 -16 -73 -148 -25 -200 72 -18 33 -31
114 -28 173 4 61 -15 62 -74 4 l-43 -44 -53 9 c-29 4 -75 11 -103 14 -73 9
-75 13 -50 90 26 80 63 108 130 99 22 -3 75 -8 118 -12z m187 -23 c0 -5 -4
-10 -10 -10 -5 0 -10 5 -10 10 0 6 5 10 10 10 6 0 10 -4 10 -10z m280 -38 c0
-10 -59 -32 -85 -32 -10 0 -27 -7 -37 -17 -23 -20 -32 -12 -24 21 5 21 13 25
49 29 81 7 97 7 97 -1z m330 -19 c2 -103 -1 -408 -4 -410 -2 -2 -29 -1 -60 3
-65 8 -74 27 -23 49 17 8 27 14 20 15 -23 0 -43 32 -42 68 0 20 8 79 18 130
10 51 14 95 10 98 -5 2 -4 16 2 30 9 25 8 26 -18 19 -15 -3 -31 -12 -35 -18
-7 -11 -11 -105 -11 -259 0 -26 -5 -49 -11 -51 -16 -6 -158 21 -169 32 -7 7
-5 150 3 274 1 9 9 17 19 17 17 0 18 -11 13 -150 -3 -108 -2 -150 7 -150 12 0
12 1 16 110 5 140 9 180 15 191 9 13 92 26 183 28 67 1 67 1 67 -26z m-357
-150 c-3 -71 -7 -130 -9 -132 -2 -2 -11 -1 -20 3 -15 6 -16 18 -10 107 4 55
11 111 16 125 21 53 28 20 23 -103z m-1439 92 c22 -17 14 -31 -19 -37 -11 -2
-20 2 -19 10 4 49 7 51 38 27z m1702 -7 c-3 -13 -6 -26 -6 -30 0 -5 -4 -8 -10
-8 -5 0 -10 14 -10 30 0 21 5 30 16 30 12 0 15 -6 10 -22z m-672 -68 l6 -35
-21 22 c-18 18 -20 23 -8 36 8 8 14 14 15 13 1 0 4 -17 8 -36z m610 -226 c9
-3 16 -13 16 -21 0 -13 -16 -15 -112 -9 -150 10 -174 16 -150 41 8 8 220 -1
246 -11z m-516 -10 c24 -7 31 -34 8 -34 -8 0 -21 -3 -30 -6 -12 -5 -16 0 -16
20 0 28 3 29 38 20z"/>
<path d="M1709 518 c-13 -24 -18 -263 -5 -275 12 -12 14 3 17 107 2 58 6 122
10 143 8 44 -5 58 -22 25z"/>
</g>
</svg>
