<?xml version="1.0" standalone="no"?>
<!DOCTYPE svg PUBLIC "-//W3C//DTD SVG 20010904//EN"
 "http://www.w3.org/TR/2001/REC-SVG-20010904/DTD/svg10.dtd">
<svg version="1.0" xmlns="http://www.w3.org/2000/svg"
 width="145.000000pt" height="89.000000pt" viewBox="0 0 145.000000 89.000000"
 preserveAspectRatio="xMidYMid meet">
<metadata>
Created by potrace 1.16, written by Peter Selinger 2001-2019
</metadata>
<g transform="translate(0.000000,89.000000) scale(0.100000,-0.100000)"
fill="#000000" stroke="none">
<path d="M96 817 c-13 -10 -19 -32 -22 -83 -3 -38 -12 -83 -20 -100 -13 -25
-14 -49 -7 -131 6 -71 5 -117 -4 -159 -15 -75 -15 -74 0 -74 6 0 40 29 75 65
34 35 74 68 89 71 15 4 34 13 41 21 20 20 41 16 83 -18 l38 -30 -19 -52 c-11
-28 -16 -55 -12 -59 4 -4 45 2 92 13 181 42 223 45 410 33 125 -8 163 -8 256
1 73 7 69 15 80 -152 3 -62 10 -113 15 -113 5 0 9 3 9 8 0 54 24 237 35 267 8
22 19 77 25 122 16 120 72 277 105 289 7 3 16 11 18 18 4 9 -10 13 -46 15 -29
1 -71 4 -94 7 -48 6 -98 -15 -108 -46 -4 -12 -4 -38 0 -59 l6 -39 -95 -7
c-112 -9 -267 1 -345 21 -78 21 -134 25 -143 11 -13 -21 -9 -107 5 -107 6 0
46 7 87 16 41 9 138 17 215 20 77 2 165 7 195 12 91 13 90 14 91 -91 1 -51 3
-106 5 -123 3 -30 1 -32 -34 -37 -46 -6 -342 10 -437 23 -75 10 -194 22 -235
24 -33 1 -51 38 -39 80 12 41 11 86 -1 86 -5 0 -27 -17 -48 -38 -40 -40 -80
-52 -169 -52 -42 0 -49 15 -33 79 15 63 8 76 -31 55 -17 -8 -33 -13 -36 -10
-12 12 21 36 70 51 29 9 59 19 67 23 8 3 49 6 90 7 41 0 76 5 78 10 1 5 -30
15 -70 21 -100 16 -126 28 -174 79 -36 39 -43 43 -58 32z m1199 -90 c6 0 0
-21 -13 -46 -12 -25 -32 -79 -44 -118 -12 -40 -24 -73 -28 -73 -13 0 -19 234
-6 243 6 4 27 4 46 1 19 -4 40 -7 45 -7z m-1122 -36 c4 -4 -8 -12 -28 -18 -35
-11 -40 -8 -29 21 6 16 38 14 57 -3z m462 -91 c3 -5 -3 -10 -14 -10 -12 0 -21
5 -21 10 0 6 6 10 14 10 8 0 18 -4 21 -10z m-505 -29 c0 -5 -7 -24 -15 -42 -9
-22 -15 -28 -16 -16 -1 9 -2 23 -3 30 -3 14 13 37 25 37 5 0 9 -4 9 -9z m240
-97 c0 -8 -5 -12 -10 -9 -6 4 -8 11 -5 16 9 14 15 11 15 -7z m-215 -70 c-16
-14 -40 -33 -52 -44 -36 -29 -27 -2 11 36 19 19 42 34 53 34 15 -1 12 -5 -12
-26z m282 -87 c-4 -13 -67 -23 -67 -11 0 4 7 16 16 25 13 14 21 16 36 8 11 -6
17 -16 15 -22z"/>
<path d="M500 806 c0 -7 -31 -54 -70 -104 -62 -82 -68 -93 -54 -107 9 -8 22
-15 29 -15 8 0 43 -20 79 -45 37 -25 68 -45 71 -45 10 0 5 24 -9 39 -30 36
-50 227 -26 256 12 15 6 35 -11 35 -5 0 -9 -6 -9 -14z m-25 -166 c21 -41 20
-53 -6 -40 -24 13 -33 34 -25 55 8 21 14 19 31 -15z"/>
<path d="M567 474 c-9 -9 4 -35 14 -28 5 3 9 12 9 20 0 14 -12 19 -23 8z"/>
</g>
</svg>
