<?xml version="1.0" standalone="no"?>
<!DOCTYPE svg PUBLIC "-//W3C//DTD SVG 20010904//EN"
 "http://www.w3.org/TR/2001/REC-SVG-20010904/DTD/svg10.dtd">
<svg version="1.0" xmlns="http://www.w3.org/2000/svg"
 width="90.000000pt" height="138.000000pt" viewBox="0 0 90.000000 138.000000"
 preserveAspectRatio="xMidYMid meet">
<metadata>
Created by potrace 1.16, written by Peter Selinger 2001-2019
</metadata>
<g transform="translate(0.000000,138.000000) scale(0.100000,-0.100000)"
fill="#000000" stroke="none">
<path d="M601 1302 c-11 -22 -55 -76 -97 -120 -61 -65 -83 -82 -105 -82 -15 0
-32 -7 -37 -16 -7 -12 -26 -15 -91 -15 -70 0 -89 4 -126 26 -24 14 -48 25 -53
25 -13 0 -23 -123 -11 -135 5 -5 9 -17 9 -26 0 -26 11 -29 58 -18 61 13 204
18 225 8 24 -14 21 -38 -6 -44 -13 -4 -76 -5 -140 -3 l-117 4 0 -29 c0 -27 2
-29 27 -22 41 10 109 17 188 19 68 1 70 0 70 -24 0 -29 9 -28 -142 -17 -105 8
-114 7 -134 -12 -22 -20 -20 -51 3 -51 7 0 38 7 68 15 59 16 121 19 183 9 l37
-7 0 -55 0 -55 -139 7 -140 7 4 -62 c2 -33 6 -63 9 -66 3 -3 34 2 70 11 67 16
186 22 186 9 -1 -29 -22 -35 -126 -39 -129 -5 -134 -7 -134 -35 0 -18 4 -20
27 -15 16 3 68 13 117 22 85 16 90 16 103 -2 7 -10 10 -21 6 -25 -11 -10 -166
-28 -196 -22 -17 3 -26 0 -31 -13 -11 -28 6 -33 62 -19 71 19 172 30 173 19 0
-5 1 -25 2 -44 l2 -35 -94 -5 c-68 -4 -99 -1 -112 8 -16 11 -20 11 -25 -2 -13
-33 4 -48 44 -42 20 3 68 8 106 12 80 8 85 3 86 -71 1 -46 2 -49 15 -31 8 11
15 36 15 56 0 20 5 41 12 48 9 9 8 15 -5 24 -15 11 -16 21 -8 73 14 88 61 225
78 225 6 0 8 -208 3 -331 0 -4 -23 -35 -51 -70 -67 -83 -132 -179 -126 -185 3
-3 27 21 53 53 27 32 57 66 67 77 9 11 17 23 17 27 0 4 10 11 22 15 13 4 39
19 58 35 73 58 167 121 218 145 28 14 52 30 52 34 0 5 -15 17 -32 26 -18 9
-47 30 -63 48 -17 17 -46 43 -64 57 -31 23 -35 31 -35 75 0 27 3 61 7 77 9 31
-11 38 -29 10 -17 -27 -94 -68 -94 -51 0 16 96 110 167 163 132 100 136 106
76 126 -21 6 -47 18 -58 25 -11 8 -25 14 -33 14 -7 0 -28 12 -47 27 -32 25
-34 31 -29 68 9 60 31 168 39 188 14 34 -15 16 -34 -21z m-22 -99 c0 -10 -3
-34 -7 -55 l-7 -36 -32 16 -32 17 32 37 c36 41 47 47 46 21z m-84 -142 c3 -10
4 -84 1 -165 -4 -129 -7 -149 -26 -176 -12 -16 -25 -30 -29 -30 -8 0 -14 99
-15 241 -1 65 3 81 24 112 28 42 36 45 45 18z m-355 -10 c0 -10 -22 -31 -32
-31 -9 0 -11 34 -2 43 7 7 34 -2 34 -12z m290 9 c0 -5 -4 -10 -9 -10 -6 0 -13
5 -16 10 -3 6 1 10 9 10 9 0 16 -4 16 -10z m172 -27 c18 -15 35 -28 37 -30 9
-7 -99 -193 -112 -193 -11 0 -6 180 5 186 4 3 8 15 8 28 0 44 16 46 62 9z
m-241 7 c11 -6 19 -21 19 -35 0 -25 -1 -25 -92 -24 -51 0 -111 4 -133 8 l-40
7 35 18 c19 10 68 22 110 26 41 4 76 8 78 9 2 0 12 -4 23 -9z m402 -69 c5 -5
-23 -33 -65 -64 -40 -31 -89 -68 -108 -84 l-35 -28 46 85 c26 48 57 91 70 98
24 13 76 9 92 -7z m-611 -173 c-9 -9 -15 -9 -24 0 -9 9 -7 12 12 12 19 0 21
-3 12 -12z m452 -105 c-7 -37 -12 -40 -32 -19 -16 16 -16 18 2 32 29 20 35 17
30 -13z m-151 -89 l-18 -49 -3 37 c-4 41 15 85 29 71 5 -5 2 -29 -8 -59z
m-256 40 c-30 -16 -44 -14 -32 5 3 6 18 11 33 11 l27 -1 -28 -15z m191 -6 c3
-15 -4 -18 -35 -19 -21 0 -62 -2 -90 -3 -29 -2 -53 -1 -53 1 0 12 89 39 129
38 35 0 46 -4 49 -17z m262 -62 c43 -29 44 -30 20 -36 -17 -4 -40 -28 -69 -73
-24 -37 -47 -64 -52 -61 -13 8 2 140 22 191 10 26 9 27 79 -21z m88 -83 c23
-8 42 -18 41 -21 0 -7 -112 -82 -181 -122 -21 -12 -38 -17 -38 -12 0 11 75
147 93 170 6 7 17 10 26 6 9 -3 35 -13 59 -21z"/>
</g>
</svg>
