<?xml version="1.0" standalone="no"?>
<!DOCTYPE svg PUBLIC "-//W3C//DTD SVG 20010904//EN"
 "http://www.w3.org/TR/2001/REC-SVG-20010904/DTD/svg10.dtd">
<svg version="1.0" xmlns="http://www.w3.org/2000/svg"
 width="102.000000pt" height="70.000000pt" viewBox="0 0 102.000000 70.000000"
 preserveAspectRatio="xMidYMid meet">
<metadata>
Created by potrace 1.16, written by Peter Selinger 2001-2019
</metadata>
<g transform="translate(0.000000,70.000000) scale(0.100000,-0.100000)"
fill="#000000" stroke="none">
<path d="M488 664 c-85 -106 -175 -182 -230 -193 -32 -7 -33 -9 -33 -57 l0
-49 -40 0 c-22 0 -61 4 -87 8 -55 9 -62 1 -71 -76 -5 -48 -4 -49 22 -44 14 2
60 17 101 33 l75 28 348 1 c191 0 347 -2 347 -5 0 -14 -58 -60 -107 -84 -30
-15 -53 -33 -53 -42 0 -8 11 -30 24 -47 13 -18 26 -45 30 -60 5 -20 12 -27 24
-25 20 4 40 43 83 159 22 62 37 90 55 99 13 8 24 17 24 20 0 4 -21 34 -46 66
-40 52 -45 63 -39 94 3 19 15 52 26 73 10 21 19 40 19 42 0 13 -30 2 -51 -18
-13 -12 -48 -42 -76 -66 -29 -23 -53 -47 -53 -51 0 -5 19 -18 43 -29 24 -12
53 -30 66 -42 12 -11 28 -18 36 -15 9 3 12 0 8 -10 -3 -8 1 -22 8 -31 13 -15
10 -16 -26 -10 -22 4 -105 7 -184 7 l-144 0 -42 46 c-23 25 -48 64 -56 86 -11
34 -11 44 4 71 21 40 34 137 19 137 -6 0 -17 -7 -24 -16z m-38 -129 c-12 -36
-32 -43 -38 -13 -3 16 37 62 46 54 2 -3 -1 -21 -8 -41z m420 -34 c0 -22 -16
-36 -24 -22 -8 12 3 41 15 41 5 0 9 -9 9 -19z m-455 -48 c22 -14 56 -42 75
-62 l35 -36 -75 -3 c-91 -4 -180 6 -180 20 0 5 16 28 35 51 19 22 35 44 35 49
0 16 36 7 75 -19z m-125 -13 c-12 -23 -30 -27 -30 -6 0 8 8 17 18 19 9 3 18 5
20 6 1 0 -2 -8 -8 -19z m-136 -119 c3 -5 -14 -16 -39 -24 -42 -15 -45 -15 -45
2 0 10 3 21 7 24 10 10 71 8 77 -2z m726 -110 c0 -27 -18 -71 -28 -71 -5 0
-14 11 -20 25 -10 21 -9 28 8 45 25 25 40 25 40 1z"/>
</g>
</svg>
