<?xml version="1.0" standalone="no"?>
<!DOCTYPE svg PUBLIC "-//W3C//DTD SVG 20010904//EN"
 "http://www.w3.org/TR/2001/REC-SVG-20010904/DTD/svg10.dtd">
<svg version="1.0" xmlns="http://www.w3.org/2000/svg"
 width="100.000000pt" height="79.000000pt" viewBox="0 0 100.000000 79.000000"
 preserveAspectRatio="xMidYMid meet">
<metadata>
Created by potrace 1.16, written by Peter Selinger 2001-2019
</metadata>
<g transform="translate(0.000000,79.000000) scale(0.100000,-0.100000)"
fill="#000000" stroke="none">
<path d="M425 738 c-3 -13 -15 -44 -27 -70 -20 -46 -21 -49 -5 -145 9 -53 13
-100 9 -104 -14 -15 -103 15 -140 47 l-38 33 -27 -29 c-17 -18 -27 -39 -27
-58 0 -17 -5 -43 -11 -59 -10 -26 -11 -27 -21 -9 -6 10 -8 38 -4 62 6 49 -3
55 -35 23 -13 -13 -18 -27 -14 -37 4 -9 9 -72 12 -140 3 -67 10 -125 15 -128
14 -9 39 17 34 35 -15 49 58 66 325 77 l166 7 6 -48 c4 -26 7 -68 7 -92 0 -27
4 -42 10 -38 6 3 10 39 10 80 0 51 4 78 15 88 13 13 13 16 -1 21 -18 7 -12 38
22 115 29 64 31 93 7 90 -64 -6 -68 16 -23 115 21 48 34 66 48 66 17 0 20 -10
26 -82 12 -146 24 -422 19 -435 -3 -7 0 -13 6 -13 17 0 31 45 31 97 0 47 26
151 41 168 5 5 9 18 9 29 0 20 39 157 65 228 17 49 4 64 -59 71 -55 5 -101 -7
-110 -29 -5 -12 -19 -14 -78 -9 -93 8 -156 28 -207 66 -23 16 -43 29 -45 29
-3 0 -7 -10 -11 -22z m55 -53 c11 -13 8 -15 -18 -15 -24 0 -30 4 -26 15 4 8
12 15 19 15 7 0 18 -7 25 -15z m420 -15 c11 -7 12 -14 3 -32 -12 -26 -24 -64
-49 -156 -9 -35 -21 -59 -25 -55 -4 4 -11 53 -15 109 l-7 100 28 22 c30 24 43
26 65 12z m-286 -35 c-1 -5 -19 -15 -40 -21 l-39 -11 0 -89 c0 -49 3 -118 8
-154 4 -36 4 -70 0 -77 -5 -6 -25 -14 -46 -18 l-38 -7 3 58 c3 56 4 59 31 62
31 4 32 25 1 30 -36 7 -42 27 -28 99 11 61 23 92 47 131 10 15 103 13 101 -3z
m56 -17 c0 -7 -4 -19 -9 -27 -11 -17 -25 3 -17 24 7 18 26 20 26 3z m-217 -38
c-3 -11 -9 -20 -14 -20 -10 0 -12 33 -3 43 12 12 22 -3 17 -23z m166 -115 c6
-44 13 -108 16 -142 l6 -62 -28 4 c-15 2 -31 4 -34 4 -13 2 -7 213 8 248 8 19
16 34 18 32 2 -2 8 -40 14 -84z m-369 -49 c0 -8 -5 -18 -11 -22 -14 -8 -33 11
-25 25 10 16 36 13 36 -3z m440 2 c0 -19 -18 -43 -25 -36 -9 9 4 48 16 48 5 0
9 -6 9 -12z m-266 -55 c9 -32 10 -78 3 -90 -9 -15 -173 -7 -226 11 -42 13 -47
26 -24 55 23 28 67 39 165 40 65 1 77 -2 82 -16z"/>
</g>
</svg>
