<?xml version="1.0" standalone="no"?>
<!DOCTYPE svg PUBLIC "-//W3C//DTD SVG 20010904//EN"
 "http://www.w3.org/TR/2001/REC-SVG-20010904/DTD/svg10.dtd">
<svg version="1.0" xmlns="http://www.w3.org/2000/svg"
 width="126.000000pt" height="83.000000pt" viewBox="0 0 126.000000 83.000000"
 preserveAspectRatio="xMidYMid meet">
<metadata>
Created by potrace 1.16, written by Peter Selinger 2001-2019
</metadata>
<g transform="translate(0.000000,83.000000) scale(0.100000,-0.100000)"
fill="#000000" stroke="none">
<path d="M134 723 c-11 -38 -18 -75 -16 -83 2 -8 5 -40 7 -70 3 -30 9 -56 15
-58 5 -2 10 -24 10 -48 0 -48 -9 -53 -55 -32 -36 16 -44 4 -52 -87 l-6 -78 35
26 c64 49 92 27 81 -64 -6 -51 -5 -53 12 -39 14 12 17 26 13 86 l-5 72 51 6
c108 14 100 18 106 -44 3 -30 2 -75 -3 -99 -4 -24 -5 -47 -2 -49 14 -14 27 22
31 88 3 40 7 77 10 82 3 5 1 15 -6 23 -9 11 6 14 92 16 94 2 281 0 284 -4 7
-9 14 -118 7 -114 -20 12 -50 -13 -63 -54 -17 -57 -39 -163 -35 -167 2 -2 21
9 42 25 37 26 133 73 213 104 21 8 74 13 133 13 91 0 117 6 81 20 -9 3 -25 6
-36 6 -20 0 -20 4 -15 133 4 122 7 141 46 252 22 65 41 132 41 148 0 26 -3 28
-22 23 -13 -4 -43 -10 -66 -13 -33 -4 -46 -12 -54 -29 -10 -21 -18 -24 -72
-25 -34 -1 -63 -1 -66 -1 -443 16 -544 28 -628 72 -82 43 -87 41 -108 -37z
m116 -20 c0 -7 -11 -13 -24 -13 -14 0 -28 -4 -31 -10 -3 -5 -13 -10 -21 -10
-17 0 -19 51 -3 67 14 14 79 -14 79 -34z m880 20 c0 -25 -62 -203 -70 -203 -4
0 -10 35 -14 78 -4 42 -8 85 -9 96 -1 13 8 22 33 32 48 17 60 17 60 -3z m-600
-39 c69 -3 202 -8 295 -11 94 -3 175 -9 182 -14 7 -6 11 -48 12 -112 1 -56 6
-142 11 -192 5 -49 10 -105 10 -122 0 -31 -2 -33 -34 -33 -18 0 -48 3 -65 6
l-31 7 0 106 c0 71 7 133 20 189 30 124 29 132 -21 132 l-40 0 5 -133 c3 -73
8 -168 12 -211 l6 -79 -42 7 c-68 11 -78 20 -85 80 -4 30 -5 58 -2 63 3 5 7
36 8 69 1 32 8 71 15 86 8 15 14 39 14 53 0 23 -3 25 -27 19 -16 -4 -38 -13
-50 -20 -24 -15 -232 -20 -306 -7 -38 6 -38 6 -32 43 l6 38 -43 4 c-24 3 -47
3 -51 0 -5 -2 -5 -22 -2 -43 l7 -39 -36 0 c-48 0 -61 25 -41 75 19 45 43 55
120 49 33 -2 116 -7 185 -10z m-330 -34 c0 -26 -23 -110 -30 -110 -25 0 -27
95 -2 109 22 13 32 14 32 1z m155 -40 c7 -22 -11 -53 -26 -44 -5 3 -9 15 -9
28 0 39 24 50 35 16z m573 -10 c5 -32 -19 -105 -29 -88 -11 19 -14 92 -5 106
12 19 30 9 34 -18z m-155 -27 c2 -5 0 -24 -5 -43 -7 -25 -12 -31 -18 -20 -10
17 -2 70 11 70 4 0 10 -3 12 -7z m-518 -23 c17 -7 17 -9 3 -9 -10 -1 -18 -5
-18 -10 0 -4 10 -6 23 -4 36 6 50 -11 55 -71 l4 -56 -60 0 c-82 0 -93 14 -60
80 14 28 21 50 16 50 -4 0 -8 7 -8 15 0 17 14 18 45 5z m442 -15 c27 -5 33
-11 38 -39 4 -18 5 -48 3 -67 l-3 -34 -183 -1 c-206 -1 -202 -3 -202 75 0 35
4 42 33 55 45 21 222 27 314 11z m-563 -141 c13 -12 14 -18 3 -28 -13 -14 -52
-36 -61 -36 -9 0 -7 26 4 54 11 30 31 33 54 10z m611 -194 c3 -5 18 -7 33 -4
29 6 82 -10 82 -24 0 -6 -106 -62 -174 -91 -9 -3 -6 11 15 92 9 35 31 49 44
27z"/>
</g>
</svg>
