<?xml version="1.0" standalone="no"?>
<!DOCTYPE svg PUBLIC "-//W3C//DTD SVG 20010904//EN"
 "http://www.w3.org/TR/2001/REC-SVG-20010904/DTD/svg10.dtd">
<svg version="1.0" xmlns="http://www.w3.org/2000/svg"
 width="81.000000pt" height="74.000000pt" viewBox="0 0 81.000000 74.000000"
 preserveAspectRatio="xMidYMid meet">
<metadata>
Created by potrace 1.16, written by Peter Selinger 2001-2019
</metadata>
<g transform="translate(0.000000,74.000000) scale(0.100000,-0.100000)"
fill="#000000" stroke="none">
<path d="M357 672 c-20 -22 -22 -57 -8 -147 6 -38 11 -76 11 -82 0 -18 -53
-16 -97 2 -55 23 -70 19 -83 -20 -15 -47 -35 -65 -71 -65 -37 0 -43 -14 -29
-74 10 -44 9 -49 -20 -91 -23 -33 -27 -45 -16 -45 8 0 18 5 21 10 20 32 41
-14 44 -95 2 -33 5 -62 7 -64 10 -10 13 9 16 79 3 86 14 103 80 121 40 10 74
10 423 -4 l50 -2 5 105 c6 106 22 171 77 304 13 32 21 62 16 67 -4 4 -36 11
-69 14 -61 7 -61 7 -68 -20 -7 -27 -8 -27 -68 -21 -34 4 -84 16 -112 27 -63
24 -88 24 -109 1z m67 -22 c39 -14 31 -30 -14 -30 -33 0 -40 3 -40 20 0 22 16
25 54 10z m326 4 c0 -22 -56 -162 -63 -157 -6 4 -5 142 2 161 2 5 61 2 61 -4z
m-105 -54 c2 -8 7 -89 10 -180 3 -91 8 -175 11 -188 4 -20 0 -22 -33 -22 -21
0 -54 4 -73 10 -18 5 -64 10 -102 11 l-67 2 2 71 c1 39 6 77 10 84 5 7 30 12
64 12 31 0 53 3 49 7 -3 4 -25 6 -49 5 -66 -3 -70 2 -53 91 8 43 18 82 21 87
19 30 201 39 210 10z m-243 -35 c-8 -54 -32 -57 -32 -4 0 24 4 30 18 27 10 -2
16 -11 14 -23z m-167 -155 c-3 -5 -13 -10 -21 -10 -8 0 -14 5 -14 10 0 6 9 10
21 10 11 0 17 -4 14 -10z m122 -22 c4 -7 10 -44 13 -81 5 -62 4 -68 -15 -73
-11 -3 -42 0 -68 6 -27 6 -52 8 -57 5 -13 -8 -40 6 -40 22 0 8 14 28 30 45 33
33 31 53 -6 44 -36 -9 -29 12 9 28 41 18 123 20 134 4z m-173 -80 c-3 -13 -13
-31 -22 -41 -19 -21 -37 -8 -47 36 -7 26 -6 27 35 27 38 0 41 -2 34 -22z"/>
</g>
</svg>
