<?xml version="1.0" standalone="no"?>
<!DOCTYPE svg PUBLIC "-//W3C//DTD SVG 20010904//EN"
 "http://www.w3.org/TR/2001/REC-SVG-20010904/DTD/svg10.dtd">
<svg version="1.0" xmlns="http://www.w3.org/2000/svg"
 width="140.000000pt" height="74.000000pt" viewBox="0 0 140.000000 74.000000"
 preserveAspectRatio="xMidYMid meet">
<metadata>
Created by potrace 1.16, written by Peter Selinger 2001-2019
</metadata>
<g transform="translate(0.000000,74.000000) scale(0.100000,-0.100000)"
fill="#000000" stroke="none">
<path d="M260 630 c-12 -17 -27 -29 -34 -27 -6 2 -19 0 -29 -5 -15 -8 -17 -17
-12 -49 l7 -39 -36 0 c-31 0 -36 -3 -36 -22 0 -13 -3 -47 -7 -77 -6 -51 -5
-54 13 -47 46 19 53 18 65 -8 20 -42 2 -48 -73 -24 -84 27 -95 20 -94 -57 1
-30 4 -55 8 -54 4 0 37 14 74 30 91 42 98 37 92 -62 -3 -44 -1 -82 2 -84 11
-7 20 32 20 85 0 78 7 90 51 90 36 0 38 -2 45 -36 4 -20 4 -60 0 -90 -3 -30
-2 -54 3 -54 9 0 21 72 21 130 0 38 0 38 48 44 26 3 108 7 182 8 l134 3 8 -45
c5 -25 6 -57 2 -72 -6 -32 5 -118 16 -118 7 0 12 38 26 212 4 43 11 78 15 78
11 0 143 -94 180 -127 17 -15 29 -40 33 -65 8 -52 27 -38 26 18 -1 71 0 89 6
136 11 83 15 84 277 87 82 1 88 16 10 25 -66 7 -224 45 -236 56 -5 4 3 36 17
70 34 83 33 96 -5 104 -112 22 -125 4 -114 -161 11 -172 12 -196 2 -216 -8
-17 -11 -16 -41 10 -18 15 -43 36 -55 46 -12 10 -20 23 -17 30 3 7 10 31 16
54 7 23 21 49 31 59 10 9 19 21 19 26 0 18 -28 6 -70 -31 -74 -65 -83 -37 -33
98 13 35 22 70 19 76 -5 15 -96 30 -125 20 -13 -4 -20 -14 -18 -27 3 -31 -47
-41 -141 -30 -43 5 -79 8 -81 6 -14 -12 24 -22 111 -28 56 -4 105 -9 110 -12
4 -3 8 -34 8 -69 0 -52 -3 -65 -17 -69 -29 -9 -306 3 -317 14 -6 6 -3 25 8 52
10 24 22 53 27 66 5 12 21 28 36 34 27 11 27 12 -27 22 -30 5 -61 16 -68 23
-7 7 -17 13 -22 13 -5 0 -15 3 -23 6 -9 3 -23 -7 -37 -26z m49 -38 c-36 -4
-44 1 -36 22 5 14 10 13 37 -2 l30 -17 -31 -3z m489 16 c2 -13 -4 -16 -30 -15
-23 2 -34 7 -36 20 -3 15 2 18 30 15 21 -2 34 -9 36 -20z m275 -13 c-2 -31
-54 -175 -63 -175 -8 0 -19 65 -21 130 -2 72 -3 71 44 68 35 -2 42 -6 40 -23z
m-283 -35 c0 -10 -6 -34 -14 -52 -8 -18 -18 -42 -22 -53 -6 -18 -7 -17 -15 10
-9 29 -10 92 -2 108 2 4 15 7 29 7 17 0 24 -5 24 -20z m-477 -34 c10 -63 -5
-86 -47 -70 -21 8 -21 53 0 82 22 32 41 27 47 -12z m-83 9 c0 -8 -4 -15 -10
-15 -5 0 -10 7 -10 15 0 8 5 15 10 15 6 0 10 -7 10 -15z m130 -14 c0 -20 -17
-37 -27 -28 -7 8 7 47 18 47 5 0 9 -9 9 -19z m-170 -96 c0 -16 -35 -21 -44 -6
-4 5 -3 16 0 25 5 12 10 13 25 5 10 -5 19 -16 19 -24z m889 -4 c11 -7 9 -11
-9 -21 -25 -13 -35 -8 -27 15 7 17 16 19 36 6z m-247 -43 c-6 -6 -15 -7 -22
-3 -8 5 -6 13 7 27 16 18 18 19 21 3 2 -9 -1 -22 -6 -27z m-524 -20 l3 -48
-45 0 -46 0 0 40 c0 44 19 61 60 57 22 -2 25 -7 28 -49z m389 39 c0 -1 4 -19
8 -39 7 -36 6 -37 -32 -47 -43 -12 -305 -17 -322 -7 -11 7 -15 64 -6 88 4 10
41 12 178 10 94 -2 173 -5 174 -5z m-617 -121 c0 -3 -4 -8 -10 -11 -5 -3 -10
-1 -10 4 0 6 5 11 10 11 6 0 10 -2 10 -4z"/>
</g>
</svg>
