<?xml version="1.0" standalone="no"?>
<!DOCTYPE svg PUBLIC "-//W3C//DTD SVG 20010904//EN"
 "http://www.w3.org/TR/2001/REC-SVG-20010904/DTD/svg10.dtd">
<svg version="1.0" xmlns="http://www.w3.org/2000/svg"
 width="102.000000pt" height="82.000000pt" viewBox="0 0 102.000000 82.000000"
 preserveAspectRatio="xMidYMid meet">
<metadata>
Created by potrace 1.16, written by Peter Selinger 2001-2019
</metadata>
<g transform="translate(0.000000,82.000000) scale(0.100000,-0.100000)"
fill="#000000" stroke="none">
<path d="M542 758 c-6 -13 -16 -39 -22 -59 -6 -20 -20 -45 -30 -54 -11 -10
-20 -31 -20 -47 0 -29 -1 -30 -42 -23 -24 4 -75 22 -114 41 -38 19 -76 34 -82
34 -7 0 -22 -16 -33 -35 -19 -31 -40 -42 -73 -36 -35 6 -46 -71 -27 -176 6
-28 13 -99 16 -159 9 -156 33 -171 38 -24 2 65 6 75 27 92 36 26 126 33 230
18 l90 -13 0 -38 c0 -37 -1 -38 -30 -33 -26 6 -31 3 -41 -22 -20 -52 -38 -198
-26 -206 18 -12 27 -9 27 7 0 8 13 29 29 47 22 25 38 33 63 33 22 0 33 5 33
15 0 9 18 21 45 30 25 8 51 19 59 24 17 11 126 18 173 10 36 -5 37 -7 40 -52
2 -36 7 -48 22 -50 16 -3 17 1 11 36 -6 35 -3 43 14 54 27 17 27 44 0 51 -20
5 -21 11 -16 84 3 43 19 148 37 233 18 85 33 169 33 185 2 30 2 30 -48 27 -50
-3 -92 -32 -79 -53 9 -14 -70 -10 -91 5 -11 7 -45 19 -76 25 -31 7 -66 21 -77
31 -28 26 -46 25 -60 -2z m73 -59 c5 -6 3 -9 -5 -9 -8 0 -27 -6 -42 -14 -28
-15 -28 -17 -13 30 5 16 39 12 60 -7z m321 -6 c-3 -16 -11 -54 -17 -87 -8 -39
-14 -54 -20 -45 -12 19 -11 56 2 80 7 15 7 24 -1 35 -17 19 -5 44 21 44 18 0
20 -4 15 -27z m-87 -49 c2 -2 6 -99 8 -215 l4 -212 -151 5 c-162 4 -170 7
-170 58 0 15 5 31 12 38 9 9 9 17 -1 35 -10 18 -10 33 -2 63 6 21 11 59 12 84
0 27 11 66 27 100 26 53 29 55 72 60 41 5 180 -7 189 -16z m-306 -56 c-13 -26
-18 -29 -21 -15 -4 19 14 47 29 47 5 0 2 -15 -8 -32z m-270 -13 c-4 -15 -36
-12 -41 3 -3 9 3 13 19 10 13 -1 23 -7 22 -13z m-93 -50 c7 -9 9 -27 5 -47 -8
-41 -26 -90 -32 -85 -8 8 -23 128 -18 137 9 15 31 12 45 -5z m284 -4 c8 -9 19
-50 24 -90 l9 -73 -68 6 c-37 4 -78 9 -91 11 -13 2 -49 6 -80 10 -66 7 -68 11
-40 90 21 59 33 64 149 63 63 -1 86 -5 97 -17z m34 -340 c21 -13 10 -40 -26
-62 l-32 -21 5 36 c7 56 21 68 53 47z"/>
</g>
</svg>
