<?xml version="1.0" standalone="no"?>
<!DOCTYPE svg PUBLIC "-//W3C//DTD SVG 20010904//EN"
 "http://www.w3.org/TR/2001/REC-SVG-20010904/DTD/svg10.dtd">
<svg version="1.0" xmlns="http://www.w3.org/2000/svg"
 width="138.000000pt" height="83.000000pt" viewBox="0 0 138.000000 83.000000"
 preserveAspectRatio="xMidYMid meet">
<metadata>
Created by potrace 1.16, written by Peter Selinger 2001-2019
</metadata>
<g transform="translate(0.000000,83.000000) scale(0.100000,-0.100000)"
fill="#000000" stroke="none">
<path d="M315 719 c-14 -21 -34 -124 -26 -132 4 -4 27 1 52 12 48 22 154 27
302 15 l75 -7 -2 -141 -1 -141 -55 1 c-94 1 -260 11 -265 15 -2 3 -1 36 3 74
l7 70 104 -2 c133 -2 123 17 -16 28 -200 17 -225 21 -219 35 8 20 -8 17 -29
-6 -10 -11 -26 -20 -35 -20 -36 0 -53 -35 -47 -99 l5 -59 -39 -4 c-35 -3 -39
-1 -39 19 0 43 -29 25 -45 -29 -8 -28 -13 -54 -10 -57 3 -3 30 0 61 7 30 6 61
9 68 6 17 -7 28 -58 19 -91 -4 -18 -2 -24 6 -19 6 4 11 24 11 44 0 58 8 63 86
60 67 -3 69 -4 72 -31 4 -36 25 -30 32 9 l5 29 125 0 c176 0 184 -2 188 -49 2
-20 -1 -43 -6 -49 -6 -7 -17 -36 -26 -65 -12 -44 -13 -54 -2 -58 12 -5 83 13
141 35 11 4 72 5 135 1 134 -9 215 -3 231 16 6 8 30 14 53 14 l41 0 3 138 c3
120 7 147 32 222 16 47 26 88 22 91 -4 4 -19 9 -33 13 -22 5 -28 2 -32 -15 -5
-18 -11 -20 -39 -14 -18 4 -54 18 -80 31 -63 32 -96 31 -108 -2 -13 -34 -13
-87 2 -102 8 -8 8 -15 0 -25 -11 -13 -57 -11 -138 8 -28 6 -33 3 -53 -28 -18
-29 -21 -50 -21 -131 0 -101 12 -124 30 -57 5 21 17 42 26 45 26 10 142 7 149
-4 4 -6 -1 -44 -11 -85 -16 -66 -20 -75 -40 -75 -35 0 -134 28 -152 42 -8 7
-29 17 -46 23 -31 10 -31 10 -28 75 2 36 8 70 13 76 11 13 36 103 50 179 5 28
12 63 15 79 l7 29 -54 -8 c-69 -11 -248 -8 -319 7 -30 6 -74 23 -97 39 -47 33
-49 33 -58 18z m55 -80 c0 -5 -9 -9 -20 -9 -22 0 -27 16 -7 23 15 5 27 -1 27
-14z m410 -94 l-20 -60 3 62 c2 35 9 69 18 79 13 16 14 16 17 -2 1 -10 -7 -46
-18 -79z m459 9 c23 -5 23 -7 16 -86 -3 -45 -8 -127 -11 -182 -2 -55 -8 -104
-14 -110 -14 -14 -129 11 -154 32 -15 14 -17 25 -11 67 4 27 6 74 5 103 -1 62
15 159 31 178 10 12 71 11 138 -2z m-875 -75 c6 -6 5 -9 -2 -9 -8 0 -12 -20
-12 -59 0 -35 -5 -62 -12 -68 -19 -14 -69 -15 -100 -2 -32 13 -34 30 -17 107
l12 50 61 -5 c34 -3 65 -9 70 -14z m632 -30 c41 -11 44 -14 44 -45 0 -18 -5
-36 -10 -39 -6 -4 -36 -1 -68 6 -94 20 -109 34 -75 71 19 21 46 23 109 7z
m-201 -299 c6 -10 -42 -26 -51 -17 -3 3 -3 15 1 26 5 17 10 19 25 11 10 -6 22
-14 25 -20z m295 10 c0 -5 -9 -9 -20 -7 -31 5 -36 17 -7 17 15 0 27 -4 27 -10z"/>
</g>
</svg>
