<?xml version="1.0" standalone="no"?>
<!DOCTYPE svg PUBLIC "-//W3C//DTD SVG 20010904//EN"
 "http://www.w3.org/TR/2001/REC-SVG-20010904/DTD/svg10.dtd">
<svg version="1.0" xmlns="http://www.w3.org/2000/svg"
 width="126.000000pt" height="71.000000pt" viewBox="0 0 126.000000 71.000000"
 preserveAspectRatio="xMidYMid meet">
<metadata>
Created by potrace 1.16, written by Peter Selinger 2001-2019
</metadata>
<g transform="translate(0.000000,71.000000) scale(0.100000,-0.100000)"
fill="#000000" stroke="none">
<path d="M182 614 c-22 -15 -30 -44 -12 -44 6 0 10 -13 10 -28 0 -15 4 -32 9
-38 5 -5 11 -38 14 -73 l5 -63 -35 5 c-20 4 -43 13 -53 22 -17 15 -19 15 -34
-7 -9 -12 -16 -33 -16 -47 0 -13 -5 -41 -12 -62 -6 -22 -9 -42 -5 -45 3 -3 31
6 63 20 31 14 65 26 76 26 17 0 19 -6 15 -55 -2 -30 -6 -57 -9 -60 -3 -3 -3
-17 0 -31 3 -16 10 -24 21 -22 12 2 17 17 18 58 5 110 9 118 55 125 53 9 58 1
58 -102 0 -67 3 -83 15 -83 14 0 21 29 17 70 -1 8 1 37 4 63 l6 48 87 -5 c47
-3 163 -8 256 -11 l170 -6 78 -79 c60 -62 77 -86 77 -109 0 -26 14 -41 39 -41
4 0 8 51 9 113 1 61 9 140 17 175 38 160 48 192 61 203 29 24 15 36 -53 42
-60 6 -70 4 -90 -15 -23 -22 -31 -22 -226 -21 -244 2 -338 13 -477 59 -122 39
-128 40 -158 18z m105 -45 c22 -8 24 -12 13 -19 -8 -6 -30 -10 -47 -10 -26 0
-33 4 -33 20 0 23 23 26 67 9z m863 -32 c0 -2 -9 -22 -20 -45 -11 -22 -20 -46
-20 -52 0 -5 -4 -10 -9 -10 -11 0 -21 36 -21 78 0 30 2 32 35 32 19 0 35 -1
35 -3z m-891 -47 c-14 -9 -29 -4 -29 10 0 12 34 18 39 7 2 -5 -3 -13 -10 -17z
m543 16 c134 -1 219 2 221 8 8 25 37 -168 37 -244 l-1 -85 -29 33 c-17 18 -30
41 -30 52 0 11 -5 20 -12 20 -7 0 -30 12 -51 27 -39 27 -39 28 -34 80 3 29 2
53 -3 53 -13 0 -115 -71 -115 -81 0 -4 15 -19 33 -33 18 -13 30 -26 25 -29
-25 -15 -415 21 -435 41 -6 6 -4 28 6 63 22 74 21 79 -18 79 -44 0 -51 -12
-48 -82 l3 -58 -35 0 c-19 0 -38 5 -41 10 -4 6 1 33 10 61 9 28 15 59 12 69
-4 17 2 20 47 23 28 2 94 2 146 -1 52 -3 193 -6 312 -6z m-549 -81 c-7 -21
-13 -19 -13 6 0 11 4 18 10 14 5 -3 7 -12 3 -20z m-88 -115 c2 -3 -11 -14 -30
-23 -39 -19 -51 -10 -30 20 14 20 48 22 60 3z"/>
</g>
</svg>
