<?xml version="1.0" standalone="no"?>
<!DOCTYPE svg PUBLIC "-//W3C//DTD SVG 20010904//EN"
 "http://www.w3.org/TR/2001/REC-SVG-20010904/DTD/svg10.dtd">
<svg version="1.0" xmlns="http://www.w3.org/2000/svg"
 width="103.000000pt" height="79.000000pt" viewBox="0 0 103.000000 79.000000"
 preserveAspectRatio="xMidYMid meet">
<metadata>
Created by potrace 1.16, written by Peter Selinger 2001-2019
</metadata>
<g transform="translate(0.000000,79.000000) scale(0.100000,-0.100000)"
fill="#000000" stroke="none">
<path d="M350 745 c-11 -28 -30 -67 -41 -89 -18 -33 -21 -55 -20 -142 l2 -104
-55 0 c-45 0 -66 7 -115 35 -32 19 -64 35 -69 35 -5 0 -12 -35 -16 -77 -4 -43
-9 -93 -12 -110 -8 -41 9 -43 41 -5 43 51 181 104 215 82 16 -10 16 -52 2
-210 -8 -86 -7 -97 9 -115 19 -19 19 -19 19 6 0 31 35 65 61 61 10 -2 19 2 19
8 0 6 12 15 27 21 22 8 30 7 40 -6 11 -16 13 -15 25 4 15 25 36 27 44 6 9 -24
24 -17 24 10 0 16 6 25 15 25 8 0 15 -6 15 -14 0 -28 21 -27 31 1 9 27 15 30
87 42 42 7 95 16 117 21 22 4 79 14 128 21 60 8 87 16 87 26 0 9 -13 13 -39
13 -22 0 -43 5 -47 11 -3 6 -21 17 -38 25 -17 8 -38 18 -46 23 -8 5 -46 23
-85 40 -71 31 -105 54 -105 70 0 10 101 61 120 61 6 0 21 6 33 14 25 16 137
46 173 46 31 0 33 30 2 31 -13 1 -43 3 -68 4 -64 3 -182 24 -269 46 -41 10
-83 19 -94 19 -10 0 -43 11 -73 25 -30 14 -59 25 -64 25 -5 0 -20 15 -34 32
l-25 33 -21 -50z m60 -55 c13 -9 13 -11 0 -20 -25 -17 -50 -12 -50 10 0 22 25
27 50 10z m54 -216 c-1 -210 -8 -264 -35 -264 -11 0 -22 6 -25 14 -3 7 0 90 5
182 6 93 11 178 12 188 0 28 19 58 32 53 9 -3 12 -51 11 -173z m71 -20 c0 -98
-4 -192 -8 -207 -11 -38 -32 -28 -31 14 1 19 2 90 3 159 2 154 10 222 25 217
7 -2 11 -62 11 -183z m-154 -30 c-6 -96 -11 -184 -11 -194 0 -22 -24 -27 -36
-9 -10 17 -5 118 7 141 6 11 7 27 3 36 -4 9 -6 20 -6 25 1 4 9 49 18 100 31
177 40 141 25 -99z m225 190 c-3 -9 -6 -95 -7 -192 -1 -182 -3 -202 -23 -202
-8 0 -10 53 -8 193 2 105 5 198 7 205 3 6 12 12 21 12 11 0 14 -5 10 -16z
m187 -10 c43 -4 77 -10 77 -14 0 -4 -39 -19 -87 -35 -49 -15 -101 -34 -116
-41 l-29 -14 7 42 c12 76 14 81 44 75 16 -3 62 -9 104 -13z m-460 -45 c-8 -29
-13 -23 -13 14 0 22 3 28 9 18 5 -7 6 -22 4 -32z m-198 -170 c11 -11 -43 -60
-60 -55 -10 3 -8 52 2 69 5 9 43 0 58 -14z m591 -27 c5 -5 32 -17 59 -26 72
-26 124 -50 125 -57 0 -9 -220 -42 -250 -37 -23 3 -25 8 -26 53 -1 28 3 56 8
63 12 14 69 16 84 4z m-371 -202 c3 -6 -1 -13 -10 -16 -19 -8 -30 0 -20 15 8
14 22 14 30 1z"/>
<path d="M1022 425 c0 -16 2 -22 5 -12 2 9 2 23 0 30 -3 6 -5 -1 -5 -18z"/>
</g>
</svg>
