<?xml version="1.0" standalone="no"?>
<!DOCTYPE svg PUBLIC "-//W3C//DTD SVG 20010904//EN"
 "http://www.w3.org/TR/2001/REC-SVG-20010904/DTD/svg10.dtd">
<svg version="1.0" xmlns="http://www.w3.org/2000/svg"
 width="43.000000pt" height="75.000000pt" viewBox="0 0 43.000000 75.000000"
 preserveAspectRatio="xMidYMid meet">
<metadata>
Created by potrace 1.16, written by Peter Selinger 2001-2019
</metadata>
<g transform="translate(0.000000,75.000000) scale(0.100000,-0.100000)"
fill="#000000" stroke="none">
<path d="M80 690 c-8 -15 -8 -36 0 -77 13 -72 13 -176 0 -189 -7 -7 -9 -75 -8
-185 3 -145 5 -174 18 -177 12 -2 16 12 18 70 2 65 8 85 54 178 l52 105 7 -40
c5 -22 8 -69 8 -104 1 -93 20 -191 37 -191 8 0 14 8 15 18 0 9 2 40 2 68 1 33
8 59 19 71 9 10 18 29 20 43 2 14 16 49 31 78 30 57 28 72 -6 72 -57 0 -85 27
-58 55 5 6 21 39 35 74 14 36 32 72 40 80 7 9 17 26 20 39 7 21 5 22 -58 22
-45 0 -69 -5 -80 -16 -12 -11 -16 -12 -16 -2 0 9 -15 13 -47 13 -27 0 -58 4
-70 8 -17 6 -24 3 -33 -13z m238 -66 c-19 -32 -23 -34 -28 -18 -11 31 0 54 26
54 l23 0 -21 -36z m-140 -1 c-7 -16 -19 -39 -27 -52 l-16 -25 -7 44 c-9 52 -5
60 32 60 28 0 29 -1 18 -27z m67 -90 c5 -84 3 -102 -9 -106 -9 -4 -18 -2 -21
3 -4 6 -22 10 -41 10 -24 0 -34 5 -34 15 0 36 84 194 96 182 2 -2 6 -48 9
-104z m-103 -183 c-15 -27 -29 -50 -32 -50 -3 0 -5 18 -5 40 0 42 14 60 47 60
16 0 15 -6 -10 -50z m172 3 c-8 -21 -21 -51 -28 -66 -13 -28 -13 -28 -20 24
-8 57 5 79 45 79 17 0 17 -3 3 -37z"/>
</g>
</svg>
