<?xml version="1.0" standalone="no"?>
<!DOCTYPE svg PUBLIC "-//W3C//DTD SVG 20010904//EN"
 "http://www.w3.org/TR/2001/REC-SVG-20010904/DTD/svg10.dtd">
<svg version="1.0" xmlns="http://www.w3.org/2000/svg"
 width="68.000000pt" height="74.000000pt" viewBox="0 0 68.000000 74.000000"
 preserveAspectRatio="xMidYMid meet">
<metadata>
Created by potrace 1.16, written by Peter Selinger 2001-2019
</metadata>
<g transform="translate(0.000000,74.000000) scale(0.100000,-0.100000)"
fill="#000000" stroke="none">
<path d="M490 692 c-16 -5 -26 -16 -29 -32 -1 -14 -8 -28 -15 -33 -16 -11
-284 -6 -324 6 -43 14 -54 -2 -46 -63 9 -62 12 -65 42 -35 14 14 30 24 36 22
21 -7 18 -76 -5 -113 l-21 -35 21 -6 c11 -3 21 -11 21 -19 0 -23 -17 -24 -40
-4 -13 11 -30 20 -39 20 -17 -1 -75 -106 -66 -120 3 -5 22 2 42 15 45 31 93
33 100 4 4 -14 11 -18 22 -13 35 14 51 16 51 5 0 -6 11 -11 25 -11 14 0 28 -7
31 -15 4 -8 14 -15 23 -15 20 0 88 -24 98 -34 5 -4 8 -43 8 -87 0 -96 18 -109
26 -19 3 36 9 72 13 79 4 7 9 47 10 89 2 84 28 160 109 319 23 45 38 85 34 89
-10 10 -98 14 -127 6z m90 -29 c0 -8 -36 -90 -72 -163 l-28 -55 6 100 c3 55 7
106 10 113 3 12 84 18 84 5z m-430 -73 c0 -12 -28 -25 -36 -17 -9 9 6 27 22
27 8 0 14 -5 14 -10z m306 -13 c3 -9 3 -30 0 -45 -3 -15 -8 -49 -11 -77 -7
-57 -9 -60 -31 -51 -13 5 -15 14 -10 44 19 119 19 125 5 120 -15 -5 -27 -46
-30 -105 -3 -43 -15 -58 -40 -43 -11 7 -11 21 -1 81 7 39 11 74 9 76 -2 2 -11
1 -19 -2 -11 -5 -18 -28 -23 -81 -5 -54 -11 -74 -21 -74 -11 0 -14 18 -14 80
0 80 -3 87 -29 71 -10 -7 -12 -24 -6 -75 6 -65 3 -74 -23 -57 -11 7 -11 20 0
77 16 81 18 82 151 80 74 -1 88 -4 93 -19z m-216 -212 c0 -15 -6 -25 -14 -25
-21 0 -38 27 -31 50 5 16 10 18 26 10 11 -6 19 -21 19 -35z m68 0 c3 -26 -13
-50 -27 -41 -6 4 -11 21 -11 37 0 24 4 30 18 27 9 -2 18 -12 20 -23z m67 5
c10 -16 -6 -80 -21 -80 -20 0 -26 16 -18 55 6 33 26 46 39 25z m65 -39 c0 -45
-12 -72 -29 -69 -13 3 -15 13 -12 53 1 28 5 54 8 58 9 15 33 -15 33 -42z
m-340 10 c0 -12 -20 -25 -27 -18 -7 7 6 27 18 27 5 0 9 -4 9 -9z"/>
</g>
</svg>
