<?xml version="1.0" standalone="no"?>
<!DOCTYPE svg PUBLIC "-//W3C//DTD SVG 20010904//EN"
 "http://www.w3.org/TR/2001/REC-SVG-20010904/DTD/svg10.dtd">
<svg version="1.0" xmlns="http://www.w3.org/2000/svg"
 width="135.000000pt" height="88.000000pt" viewBox="0 0 135.000000 88.000000"
 preserveAspectRatio="xMidYMid meet">
<metadata>
Created by potrace 1.16, written by Peter Selinger 2001-2019
</metadata>
<g transform="translate(0.000000,88.000000) scale(0.100000,-0.100000)"
fill="#000000" stroke="none">
<path d="M1175 828 c-2 -7 -6 -31 -7 -52 l-3 -40 -95 -28 c-152 -45 -351 -95
-408 -102 -29 -4 -63 -11 -75 -15 -12 -5 -48 -15 -80 -22 -82 -18 -204 2 -270
43 -52 33 -71 32 -88 -6 -10 -21 -20 -26 -63 -28 -48 -3 -51 -5 -49 -28 1 -14
5 -97 8 -185 4 -88 11 -164 16 -170 15 -15 29 14 22 46 -3 15 0 43 6 62 10 28
21 38 58 52 47 18 70 19 221 10 49 -3 90 -1 102 5 16 9 18 8 14 -5 -4 -8 -1
-21 5 -28 6 -8 10 -33 10 -58 -1 -24 1 -71 5 -104 3 -33 5 -62 6 -65 0 -2 4 0
10 6 5 5 12 45 15 89 3 44 11 105 18 135 12 48 17 55 39 58 14 2 53 -8 87 -22
33 -14 64 -26 69 -26 5 0 42 -18 82 -40 40 -22 78 -40 83 -40 22 0 87 -53 87
-71 0 -20 24 -26 35 -9 8 12 39 13 63 1 51 -26 71 -33 80 -27 14 8 22 -21 17
-59 -5 -38 3 -67 17 -63 14 5 14 1 22 228 8 205 23 319 58 435 11 39 23 85 25
103 l5 32 -71 0 c-48 0 -73 -4 -76 -12z m106 -38 c-23 -92 -52 -194 -56 -198
-3 -3 -5 24 -5 61 0 36 5 69 10 72 15 10 12 35 -5 35 -15 0 -21 31 -8 44 4 4
21 6 38 4 21 -2 29 -8 26 -18z m-98 -232 c3 -78 3 -192 0 -254 l-6 -113 -36
15 c-20 9 -49 20 -65 25 -39 11 -43 21 -37 72 5 31 12 45 29 52 29 13 28 20
-8 35 -34 14 -34 26 -5 110 10 30 17 35 48 38 44 4 50 22 7 22 -35 0 -40 22
-15 69 8 16 12 31 9 34 -3 3 -24 3 -47 1 -48 -5 -29 7 38 24 87 21 81 29 88
-130z m-201 80 c-7 -7 -8 -17 -1 -30 7 -12 6 -25 -2 -39 -11 -21 -17 -21 -104
-16 l-93 5 -34 -66 c-30 -61 -36 -67 -62 -65 -30 2 -86 47 -86 70 0 7 12 26
28 42 22 25 42 33 107 46 44 9 114 27 155 40 87 27 110 31 92 13z m64 -44 c-7
-27 -26 -24 -26 5 0 21 23 47 28 31 2 -6 1 -22 -2 -36z m-827 -33 c11 -7 9
-10 -8 -16 -24 -7 -44 2 -36 16 8 11 26 11 44 0z m-106 -17 c3 -4 -1 -21 -11
-38 -16 -30 -17 -30 -20 -8 -6 39 12 65 31 46z m377 -80 l0 -71 -93 3 c-51 2
-120 11 -152 20 -110 30 -114 30 -126 -5 -6 -17 -15 -31 -21 -31 -6 0 -7 8 -3
18 4 9 13 38 21 64 14 46 16 47 67 57 28 5 61 12 72 14 11 3 68 4 127 3 l108
-1 0 -71z m80 62 c0 -8 -4 -17 -9 -21 -12 -7 -24 12 -16 25 9 15 25 12 25 -4z
m414 -18 c3 -13 6 -38 6 -56 0 -39 -1 -39 -106 9 -63 29 -76 49 -31 49 12 0
29 5 37 10 8 5 31 10 51 10 30 0 38 -4 43 -22z m-187 -54 c-3 -3 -12 -4 -19
-1 -8 3 -5 6 6 6 11 1 17 -2 13 -5z m141 -61 c44 -16 62 -37 62 -70 -1 -46
-13 -45 -134 12 -102 48 -116 57 -106 70 16 19 111 12 178 -12z"/>
</g>
</svg>
