<?xml version="1.0" standalone="no"?>
<!DOCTYPE svg PUBLIC "-//W3C//DTD SVG 20010904//EN"
 "http://www.w3.org/TR/2001/REC-SVG-20010904/DTD/svg10.dtd">
<svg version="1.0" xmlns="http://www.w3.org/2000/svg"
 width="101.000000pt" height="72.000000pt" viewBox="0 0 101.000000 72.000000"
 preserveAspectRatio="xMidYMid meet">
<metadata>
Created by potrace 1.16, written by Peter Selinger 2001-2019
</metadata>
<g transform="translate(0.000000,72.000000) scale(0.100000,-0.100000)"
fill="#000000" stroke="none">
<path d="M614 672 c-17 -16 -56 -48 -88 -71 l-58 -43 46 -44 c56 -53 59 -81
13 -110 -28 -18 -35 -19 -57 -7 -14 7 -41 13 -60 13 -45 0 -80 10 -80 22 0 5
9 28 20 50 32 66 28 78 -25 78 -34 0 -43 3 -39 14 3 8 1 17 -4 20 -17 10 -123
9 -134 -2 -6 -6 -10 -39 -9 -77 l2 -65 -40 6 -40 6 -11 -43 c-6 -24 -15 -57
-21 -74 -11 -36 4 -56 20 -26 11 19 69 51 93 51 6 0 8 -14 5 -32 -4 -18 -3
-79 1 -136 4 -56 4 -109 0 -117 -10 -17 8 -30 18 -13 5 7 10 69 12 138 4 138
14 170 57 170 20 0 25 -5 26 -25 1 -14 3 -29 4 -35 1 -5 3 -48 4 -95 1 -66 4
-85 15 -85 12 0 15 20 14 99 0 141 0 141 77 141 67 0 85 -10 64 -36 -7 -9 -8
-18 -3 -23 5 -4 31 -25 57 -46 32 -26 62 -63 89 -112 37 -67 58 -90 58 -62 0
17 -51 130 -73 162 -17 25 -17 32 -6 60 7 18 20 42 29 54 20 26 19 41 -4 111
-21 61 -14 90 36 155 37 48 32 68 -8 29z m-381 -108 c3 -3 -4 -26 -16 -50 -22
-45 -37 -43 -37 5 0 30 36 61 53 45z m32 -101 c-5 -34 -10 -43 -23 -41 -21 5
-18 47 6 92 13 26 17 28 20 12 2 -10 1 -38 -3 -63z m65 54 c0 -7 -7 -22 -15
-33 -14 -18 -14 -18 -15 7 0 14 3 29 7 32 11 11 23 8 23 -6z m-221 -133 c-27
-14 -34 -11 -26 10 4 9 14 12 28 9 l21 -6 -23 -13z m421 -43 c-6 -12 -15 -21
-20 -21 -17 0 -11 39 8 49 21 12 27 -1 12 -28z"/>
<path d="M720 670 c0 -6 -25 -26 -55 -45 -30 -20 -55 -42 -55 -50 0 -16 23
-61 54 -107 27 -41 17 -69 -39 -106 -27 -19 -51 -39 -53 -45 -1 -7 15 -32 37
-56 45 -51 80 -116 88 -166 5 -34 25 -46 38 -24 7 10 -48 149 -69 177 -12 17
-8 102 6 119 6 8 19 11 29 8 11 -4 19 -2 19 4 0 18 -28 119 -39 139 -15 28 13
106 45 127 14 9 22 20 19 25 -8 13 -25 13 -25 0z"/>
<path d="M747 606 l-49 -44 27 -43 c15 -23 34 -57 41 -74 15 -36 7 -49 -60
-100 l-35 -27 34 -35 c18 -19 47 -63 64 -96 38 -80 55 -102 70 -93 9 6 5 20
-14 51 -14 24 -25 51 -25 60 0 9 -9 29 -21 43 -24 32 -19 79 13 123 21 28 21
29 3 89 -10 34 -22 63 -27 66 -17 11 -7 44 22 77 56 64 26 65 -43 3z"/>
<path d="M870 629 c-69 -57 -71 -58 -64 -87 4 -15 15 -37 24 -49 9 -12 23 -43
30 -69 13 -45 12 -47 -11 -65 -13 -10 -29 -19 -36 -19 -24 0 -24 -22 0 -48 29
-32 127 -194 127 -211 0 -13 16 -15 24 -3 3 5 -13 42 -34 83 -54 101 -51 180
9 233 24 21 28 73 10 124 -8 25 -7 38 9 71 21 42 15 63 -9 35 -7 -9 -24 -20
-36 -25 -36 -14 -37 -32 -3 -100 30 -59 31 -64 15 -76 -24 -17 -31 -10 -40 34
-4 21 -13 50 -22 66 -14 28 -13 32 16 78 33 53 30 60 -9 28z"/>
</g>
</svg>
