<?xml version="1.0" standalone="no"?>
<!DOCTYPE svg PUBLIC "-//W3C//DTD SVG 20010904//EN"
 "http://www.w3.org/TR/2001/REC-SVG-20010904/DTD/svg10.dtd">
<svg version="1.0" xmlns="http://www.w3.org/2000/svg"
 width="93.000000pt" height="80.000000pt" viewBox="0 0 93.000000 80.000000"
 preserveAspectRatio="xMidYMid meet">
<metadata>
Created by potrace 1.16, written by Peter Selinger 2001-2019
</metadata>
<g transform="translate(0.000000,80.000000) scale(0.100000,-0.100000)"
fill="#000000" stroke="none">
<path d="M356 752 c-2 -4 -7 -24 -11 -44 -4 -20 -15 -44 -25 -53 -10 -9 -16
-24 -13 -36 6 -22 -2 -23 -78 -9 -29 6 -70 22 -91 35 -57 38 -60 35 -55 -55 6
-83 12 -104 28 -94 5 3 59 7 120 9 60 1 112 5 115 8 6 5 -50 17 -113 23 -24 2
-52 8 -62 14 -10 5 -21 6 -25 3 -3 -3 -6 -1 -6 5 0 6 5 14 10 17 15 10 163 10
178 1 13 -8 42 -71 42 -92 0 -10 -22 -12 -107 -8 -60 3 -119 6 -133 7 -19 2
-26 -3 -28 -20 -4 -26 4 -27 176 -15 l93 7 -3 -25 -3 -25 -132 3 c-131 4 -133
3 -133 -18 0 -21 3 -21 83 -14 45 3 84 7 87 7 3 1 22 -2 43 -7 36 -7 38 -9 35
-39 -3 -30 -6 -32 -43 -33 -72 -1 -139 14 -157 36 -14 18 -18 18 -31 6 -16
-16 -32 -84 -23 -94 3 -3 33 2 66 11 60 17 135 22 164 11 17 -6 11 -31 -13
-55 -20 -19 -77 -186 -67 -196 3 -4 36 8 73 26 36 17 63 34 61 36 -2 3 -23 -5
-46 -16 -52 -26 -75 -21 -41 10 13 12 33 31 44 41 16 15 29 18 59 13 l39 -6
-22 -19 c-28 -22 -24 -22 22 -3 24 10 89 16 203 20 183 6 237 12 228 26 -3 5
-10 6 -16 3 -12 -8 -156 -6 -214 2 l-41 6 4 46 c20 271 34 407 42 415 19 19
33 -6 30 -57 -1 -28 -1 -124 -1 -213 2 -138 4 -163 17 -163 12 0 15 15 15 74
0 41 4 77 9 80 13 8 72 -61 96 -111 11 -24 26 -43 33 -43 14 0 16 42 2 56 -5
5 -21 47 -34 92 l-25 82 25 57 c47 107 57 128 76 155 26 38 23 54 -14 62 -18
3 -45 9 -59 12 -21 5 -27 2 -32 -15 -4 -16 -14 -21 -44 -22 -71 -3 -138 3
-148 12 -5 5 -31 9 -57 9 -50 0 -113 25 -137 54 -15 17 -27 20 -35 8z m132
-104 c15 -15 16 -164 2 -173 -12 -7 -47 10 -78 38 -18 17 -21 27 -16 56 14 79
56 115 92 79z m353 -30 c-25 -41 -40 -46 -33 -13 4 22 25 40 50 44 2 1 -5 -14
-17 -31z m-461 12 c0 -5 -5 -10 -11 -10 -5 0 -7 5 -4 10 3 6 8 10 11 10 2 0 4
-4 4 -10z m388 -50 c3 -43 -1 -57 -19 -76 -12 -13 -26 -24 -31 -24 -4 0 -8 31
-8 70 0 55 3 71 18 79 28 17 37 7 40 -49z m-187 -67 c-1 -54 -4 -127 -6 -163
-3 -36 -5 -94 -5 -129 l0 -64 -82 6 c-136 9 -141 16 -78 108 22 32 40 62 40
66 1 14 38 53 50 53 6 0 9 -4 6 -8 -4 -7 -10 -178 -7 -206 1 -5 7 -3 14 3 10
8 16 52 21 148 6 138 8 156 21 235 16 97 28 73 26 -49z m-105 -75 c3 -5 -1
-17 -9 -26 -8 -9 -16 -21 -18 -27 -11 -28 -52 -85 -61 -85 -6 0 -8 6 -5 14 3
8 9 32 13 53 11 61 30 92 54 86 11 -3 23 -10 26 -15z m274 -15 c0 -34 -1 -36
-16 -21 -13 12 -14 20 -5 37 16 30 21 26 21 -16z"/>
</g>
</svg>
