<?xml version="1.0" standalone="no"?>
<!DOCTYPE svg PUBLIC "-//W3C//DTD SVG 20010904//EN"
 "http://www.w3.org/TR/2001/REC-SVG-20010904/DTD/svg10.dtd">
<svg version="1.0" xmlns="http://www.w3.org/2000/svg"
 width="164.000000pt" height="88.000000pt" viewBox="0 0 164.000000 88.000000"
 preserveAspectRatio="xMidYMid meet">
<metadata>
Created by potrace 1.16, written by Peter Selinger 2001-2019
</metadata>
<g transform="translate(0.000000,88.000000) scale(0.100000,-0.100000)"
fill="#000000" stroke="none">
<path d="M1628 768 c-1 -51 -2 -106 -2 -123 -1 -25 -5 -31 -28 -33 -16 -2 -28
1 -28 7 0 5 -8 10 -17 9 -20 0 -133 9 -208 17 -27 3 -79 12 -115 20 -36 7
-103 18 -150 24 -156 20 -235 38 -297 70 -34 17 -65 37 -70 44 -11 20 -47 37
-60 29 -16 -10 -73 -117 -73 -137 0 -13 6 -16 23 -12 65 16 161 19 198 7 36
-12 40 -16 37 -44 l-3 -31 -72 -3 c-52 -2 -81 2 -104 14 -31 15 -33 15 -46 -2
-25 -34 -11 -39 105 -35 99 3 112 1 118 -14 4 -10 1 -21 -7 -26 -19 -12 -106
-10 -146 4 -27 9 -36 8 -53 -8 -37 -34 -25 -38 100 -30 103 6 120 5 120 -8 0
-9 3 -22 6 -31 5 -13 -3 -16 -50 -16 -30 0 -76 7 -100 15 -37 13 -49 13 -66 3
-24 -15 -25 -22 -6 -41 12 -11 26 -12 68 -5 29 5 77 6 106 3 53 -7 53 -7 50
-38 -4 -40 -27 -44 -128 -23 -40 8 -78 12 -85 10 -14 -6 -30 -53 -21 -62 3 -3
37 0 75 7 39 6 93 11 120 11 l51 0 0 -37 c0 -63 -5 -66 -121 -61 -72 3 -115
10 -139 22 l-36 18 2 176 c1 176 -2 222 -15 222 -27 -1 -33 -22 -33 -109 l0
-91 -37 22 c-20 12 -53 35 -74 51 -33 26 -37 33 -37 75 0 26 5 65 10 87 11 49
-2 65 -27 35 -73 -90 -75 -92 -111 -87 -28 5 -42 -1 -93 -38 -33 -24 -69 -47
-79 -50 -29 -9 -24 -27 15 -54 19 -13 35 -27 35 -31 0 -4 -18 -24 -40 -44 -22
-20 -40 -40 -40 -46 0 -5 18 -23 39 -41 22 -17 42 -43 46 -58 3 -14 19 -44 35
-67 16 -22 32 -53 35 -67 16 -62 63 -18 132 125 29 60 53 82 53 48 0 -30 18
-33 56 -11 61 36 94 25 94 -31 0 -20 -4 -21 -91 -16 -63 4 -91 2 -93 -6 -28
-108 -25 -114 34 -71 19 14 42 25 52 25 10 0 21 7 24 15 8 20 37 19 56 -2 17
-20 16 -69 -3 -116 -17 -41 -4 -44 39 -10 72 58 154 90 247 95 56 3 60 1 63
-19 4 -29 19 -29 42 0 14 17 16 25 7 36 -7 8 -12 52 -13 106 l-1 93 55 18 c53
18 54 18 68 -1 8 -10 14 -27 14 -37 0 -28 32 -88 48 -88 9 0 12 7 9 18 -36
125 -35 136 12 147 41 9 46 4 77 -65 15 -33 33 -60 40 -60 12 0 11 7 -2 38
-24 53 -30 102 -13 104 15 1 16 1 74 11 22 4 65 9 95 12 97 9 223 26 232 31 4
3 8 -1 8 -8 0 -7 0 -133 0 -280 0 -178 3 -268 10 -268 7 0 10 142 10 430 0
237 -2 430 -5 430 -3 0 -6 -42 -7 -92z m-938 -18 l25 -20 -37 0 c-36 0 -50 15
-31 33 10 10 16 8 43 -13z m-354 -138 c-4 -3 -14 2 -24 12 -16 16 -16 18 3 32
19 14 20 13 23 -11 2 -15 1 -30 -2 -33z m630 26 c0 -18 3 -49 7 -69 7 -34 5
-37 -18 -43 -15 -4 -25 -13 -25 -25 0 -10 -6 -24 -14 -30 -21 -17 -21 163 0
184 27 27 51 19 50 -17z m116 4 c8 -9 22 -37 31 -61 18 -49 13 -61 -30 -61
-32 0 -60 31 -74 82 -7 24 -16 45 -21 48 -4 3 12 7 36 8 31 1 48 -4 58 -16z
m268 -21 c36 -5 91 -12 124 -15 32 -3 61 -7 63 -10 11 -11 -10 -25 -35 -25
-15 1 -85 -8 -157 -20 -71 -11 -138 -21 -148 -21 -19 0 -47 53 -47 91 0 21 3
21 68 16 37 -3 96 -10 132 -16z m-1055 -44 c33 -23 76 -51 96 -61 55 -29 74
-45 63 -55 -19 -17 -200 -148 -220 -159 -11 -6 -25 -7 -31 -4 -19 12 -33 61
-27 90 11 44 15 46 39 16 12 -16 27 -24 33 -20 17 10 16 16 -24 76 -36 54 -36
56 -24 107 6 29 17 53 24 53 6 0 39 -19 71 -43z m-132 -7 c-6 -22 -18 -26 -28
-10 -8 13 3 30 20 30 8 0 11 -7 8 -20z m807 -90 c0 -5 -4 -10 -10 -10 -5 0
-10 5 -10 10 0 6 5 10 10 10 6 0 10 -4 10 -10z m-438 -48 c2 -16 2 -34 0 -40
-4 -13 -76 -15 -106 -3 -17 6 -15 11 20 39 50 41 80 42 86 4z m-392 -12 c0
-34 -14 -39 -29 -12 -7 13 -6 23 1 30 19 19 28 14 28 -18z m180 -103 c0 -5
-43 -88 -53 -105 -7 -10 -12 -10 -23 -1 -19 16 -18 42 4 66 23 27 72 54 72 40z
m100 -60 c0 -2 -9 -12 -20 -22 -17 -16 -20 -16 -20 -2 0 8 8 18 18 20 9 3 18
5 20 6 1 0 2 -1 2 -2z m224 -46 c6 -9 -36 -41 -54 -41 -21 0 -10 39 13 43 12
2 25 5 29 6 4 0 9 -3 12 -8z"/>
</g>
</svg>
