<?xml version="1.0" standalone="no"?>
<!DOCTYPE svg PUBLIC "-//W3C//DTD SVG 20010904//EN"
 "http://www.w3.org/TR/2001/REC-SVG-20010904/DTD/svg10.dtd">
<svg version="1.0" xmlns="http://www.w3.org/2000/svg"
 width="84.000000pt" height="88.000000pt" viewBox="0 0 84.000000 88.000000"
 preserveAspectRatio="xMidYMid meet">
<metadata>
Created by potrace 1.16, written by Peter Selinger 2001-2019
</metadata>
<g transform="translate(0.000000,88.000000) scale(0.100000,-0.100000)"
fill="#000000" stroke="none">
<path d="M678 790 c-40 -36 -69 -55 -74 -50 -6 6 -43 -13 -98 -50 -48 -33 -92
-60 -97 -60 -17 0 -9 -40 11 -52 24 -15 26 -28 5 -28 -9 0 -27 12 -41 27 -24
26 -27 27 -39 10 -10 -14 -21 -16 -56 -11 -56 9 -70 20 -63 50 9 35 -18 22
-49 -24 -13 -20 -58 -66 -100 -102 -42 -36 -76 -68 -76 -71 -1 -4 30 -37 68
-75 37 -38 85 -95 106 -127 37 -56 74 -79 61 -37 -3 11 -9 29 -12 39 -5 15 1
20 25 26 17 3 35 3 41 0 13 -8 65 3 56 12 -3 4 -25 8 -49 10 -64 6 -120 23
-134 41 -46 57 -46 55 -22 136 21 73 46 96 36 32 l-5 -31 96 0 97 0 3 -33 c2
-22 -2 -34 -12 -38 -14 -5 -73 3 -147 21 -24 6 -27 4 -31 -25 -6 -38 1 -43 38
-28 19 7 54 8 96 4 l66 -7 -5 -55 c-5 -46 -3 -54 11 -54 9 0 21 11 26 25 5 14
14 25 20 25 13 0 90 -77 90 -89 0 -5 9 -13 20 -16 11 -3 20 -12 20 -19 0 -7
12 -23 26 -37 14 -13 32 -39 39 -56 14 -32 35 -45 35 -22 0 42 45 153 80 197
22 27 40 52 40 55 0 2 -9 7 -19 10 -23 6 -61 75 -61 110 0 58 15 92 57 134 44
42 51 74 13 53 -28 -15 -29 -14 -51 34 -23 54 -16 105 25 167 39 58 10 50 -66
-21z m-97 -84 c-11 -12 -8 -107 4 -189 4 -24 2 -26 -14 -18 -10 6 -30 25 -44
44 l-26 34 20 54 c12 30 28 62 36 72 19 20 41 24 24 3z m40 -39 c-16 -16 -26
0 -10 19 9 11 15 12 17 4 2 -6 -1 -17 -7 -23z m74 -60 l16 -41 -32 -28 c-38
-33 -45 -34 -59 -9 -16 31 -12 69 11 101 27 36 43 30 64 -23z m-205 24 c0 -24
-18 -37 -32 -23 -8 8 -7 16 2 27 17 21 30 19 30 -4z m-165 -91 c7 0 15 -9 18
-20 4 -16 11 -18 41 -15 20 3 52 7 71 9 29 4 42 -1 68 -24 27 -25 30 -31 17
-40 -19 -13 -76 -6 -120 16 -20 10 -61 18 -99 19 -93 2 -149 36 -83 51 15 3
32 7 37 9 6 2 16 2 23 -1 8 -2 19 -4 27 -4z m-215 -84 c-8 -23 -13 -26 -25
-16 -12 10 -11 16 8 42 25 34 35 19 17 -26z m565 17 c-9 -38 -14 -41 -31 -18
-13 18 -13 21 3 32 27 20 36 15 28 -14z m-61 -62 c16 -18 16 -20 -15 -35 -39
-19 -49 -20 -49 -3 0 16 28 57 39 57 4 0 16 -9 25 -19z m-104 2 c0 -4 -12 -20
-27 -35 -29 -31 -67 -37 -77 -12 -10 26 -7 34 13 34 11 0 23 5 26 10 7 11 65
14 65 3z m4 -68 c-6 -16 -24 -21 -24 -7 0 11 11 22 21 22 5 0 6 -7 3 -15z
m106 11 c0 -2 -8 -10 -17 -17 -16 -13 -17 -12 -4 4 13 16 21 21 21 13z m80
-70 c0 -24 -8 -36 -35 -53 -45 -29 -51 -29 -63 5 -11 31 15 93 45 111 24 14
53 -20 53 -63z m-130 -70 c0 -15 -3 -16 -14 -7 -18 15 -30 83 -20 113 6 19 9
14 20 -32 7 -30 13 -63 14 -74z m95 -65 c-4 -17 -12 -31 -20 -31 -20 0 -25 36
-8 60 20 29 37 11 28 -29z"/>
</g>
</svg>
