<?xml version="1.0" standalone="no"?>
<!DOCTYPE svg PUBLIC "-//W3C//DTD SVG 20010904//EN"
 "http://www.w3.org/TR/2001/REC-SVG-20010904/DTD/svg10.dtd">
<svg version="1.0" xmlns="http://www.w3.org/2000/svg"
 width="84.000000pt" height="77.000000pt" viewBox="0 0 84.000000 77.000000"
 preserveAspectRatio="xMidYMid meet">
<metadata>
Created by potrace 1.16, written by Peter Selinger 2001-2019
</metadata>
<g transform="translate(0.000000,77.000000) scale(0.100000,-0.100000)"
fill="#000000" stroke="none">
<path d="M257 718 c-14 -18 -32 -47 -40 -64 -9 -16 -36 -49 -61 -72 -25 -23
-46 -45 -46 -47 0 -3 14 -5 30 -5 17 0 30 -4 30 -10 0 -5 -22 -10 -49 -10 -28
0 -52 -4 -56 -9 -3 -6 -1 -38 4 -73 6 -35 11 -111 13 -170 l3 -107 31 -6 c18
-3 54 -27 85 -55 50 -45 79 -61 79 -42 0 4 -15 29 -34 55 -29 41 -33 53 -29
90 5 38 38 111 65 145 15 17 63 15 82 -4 19 -19 19 -37 2 -179 -8 -60 -13
-111 -12 -113 2 -1 30 15 62 37 62 41 94 50 187 55 l57 3 0 -49 c0 -26 5 -48
10 -48 6 0 10 3 10 8 3 62 14 164 21 187 5 17 16 69 24 117 14 79 50 201 77
255 6 11 8 25 5 30 -3 5 -39 9 -79 9 -73 -1 -73 -1 -76 -30 -3 -27 -5 -28 -45
-22 -23 4 -57 19 -75 34 -95 75 -88 75 -116 3 -10 -25 -24 -50 -31 -55 -10 -8
-15 -39 -17 -105 -2 -60 -7 -96 -15 -98 -12 -4 -73 56 -73 73 0 6 -14 29 -31
50 -26 33 -29 43 -23 78 7 46 25 89 54 131 36 54 16 65 -23 13z m221 -96 c2
-7 -3 -12 -12 -12 -9 0 -16 7 -16 16 0 17 22 14 28 -4z m289 -19 c-13 -45 -60
-169 -66 -176 -12 -13 -4 148 8 171 15 28 66 32 58 5z m-182 -27 c30 -8 60
-18 65 -21 6 -3 10 -29 10 -56 l0 -50 -62 2 c-35 1 -83 9 -107 16 -40 12 -46
11 -64 -4 -20 -18 -20 -17 -13 12 4 17 16 49 26 73 17 38 22 42 54 42 19 0 60
-7 91 -14z m-395 -6 c0 -5 -5 -10 -11 -10 -5 0 -7 5 -4 10 3 6 8 10 11 10 2 0
4 -4 4 -10z m58 -122 c17 -22 32 -44 32 -49 0 -14 -28 -11 -62 7 -17 9 -39 14
-49 11 -24 -6 -24 -5 1 43 23 46 32 44 78 -12z m-108 30 c-1 -7 -7 -24 -15
-38 l-13 -25 -8 29 c-5 19 -2 31 7 37 20 12 29 11 29 -3z m331 -38 c6 0 7 -4
4 -10 -10 -16 -45 -12 -45 6 0 11 5 14 16 10 9 -3 20 -6 25 -6z m187 -64 l3
-49 -43 6 c-24 4 -52 8 -63 11 -12 2 -46 7 -78 11 -31 4 -60 11 -62 15 -14 22
90 55 173 55 l67 0 3 -49z m-470 -8 c-3 -7 -14 -14 -26 -16 -16 -3 -20 1 -16
12 7 19 48 22 42 4z m62 -26 c0 -10 -46 -73 -84 -116 -34 -38 -56 -29 -56 22
0 21 6 46 13 55 20 27 127 59 127 39z m220 -22 c0 -5 -7 -10 -16 -10 -8 0 -12
5 -9 10 3 6 10 10 16 10 5 0 9 -4 9 -10z m176 -21 c16 -13 19 -105 5 -128 -20
-31 -235 13 -246 50 -9 27 4 46 43 62 52 22 60 24 125 26 34 1 65 -3 73 -10z
m-460 -104 c-3 -9 -11 -13 -16 -10 -8 5 -7 11 1 21 14 18 24 11 15 -11z m284
-53 c0 -12 -49 -34 -60 -27 -5 3 -7 12 -3 20 5 16 63 21 63 7z"/>
</g>
</svg>
