<?xml version="1.0" standalone="no"?>
<!DOCTYPE svg PUBLIC "-//W3C//DTD SVG 20010904//EN"
 "http://www.w3.org/TR/2001/REC-SVG-20010904/DTD/svg10.dtd">
<svg version="1.0" xmlns="http://www.w3.org/2000/svg"
 width="153.000000pt" height="94.000000pt" viewBox="0 0 153.000000 94.000000"
 preserveAspectRatio="xMidYMid meet">
<metadata>
Created by potrace 1.16, written by Peter Selinger 2001-2019
</metadata>
<g transform="translate(0.000000,94.000000) scale(0.100000,-0.100000)"
fill="#000000" stroke="none">
<path d="M1013 933 c48 -2 125 -2 170 0 45 1 6 3 -88 3 -93 0 -130 -2 -82 -3z"/>
<path d="M1448 933 c18 -2 45 -2 60 0 15 2 0 4 -33 4 -33 0 -45 -2 -27 -4z"/>
<path d="M1360 896 l-45 -12 3 -61 3 -60 -89 -12 c-49 -6 -114 -11 -145 -11
-101 0 -113 -12 -120 -122 -1 -26 -7 -38 -17 -37 -23 0 -169 34 -340 79 -19 5
-71 16 -115 26 -44 10 -95 24 -114 31 -50 21 -151 95 -144 106 3 5 -3 7 -13 5
-10 -2 -32 -22 -49 -45 -27 -37 -35 -41 -80 -45 l-50 -3 1 -65 c2 -173 18
-431 27 -437 5 -3 17 3 26 14 22 27 66 53 89 53 14 0 21 -9 26 -31 8 -39 28
-33 37 11 7 34 31 60 56 60 8 0 26 9 41 20 28 20 139 50 257 70 39 6 88 17
111 25 23 8 86 22 140 31 92 16 124 27 113 38 -6 6 -159 -22 -409 -73 -107
-23 -220 -41 -251 -41 l-56 0 -6 48 c-5 48 17 177 36 200 11 14 77 16 127 3
19 -5 58 -12 85 -16 28 -3 64 -10 80 -15 17 -5 68 -16 113 -24 46 -9 87 -18
91 -21 9 -5 49 -12 111 -20 37 -4 94 -20 108 -31 5 -3 -30 -118 -40 -131 -18
-22 13 -24 75 -5 34 11 74 23 89 26 28 6 145 -17 159 -31 8 -8 -16 -177 -28
-197 -14 -22 -31 -131 -22 -141 14 -14 24 3 53 95 15 46 33 91 40 100 7 8 25
38 41 65 15 28 39 70 52 95 14 25 38 65 53 90 42 66 41 70 -14 89 -46 16 -49
19 -50 52 0 55 14 148 30 184 8 19 14 46 14 60 0 29 -16 31 -90 11z m29 -58
c0 -18 -4 -42 -8 -53 -7 -17 -10 -13 -20 23 -13 45 -9 62 15 62 9 0 14 -11 13
-32z m-1161 -80 c19 -19 14 -28 -18 -28 -18 0 -30 5 -30 13 0 28 27 36 48 15z
m1127 -78 c12 -44 12 -56 1 -74 -8 -11 -19 -46 -26 -76 -15 -67 -27 -90 -44
-90 -21 0 -125 50 -194 93 -34 21 -69 37 -76 34 -19 -8 -27 3 -13 17 6 7 20
11 31 9 14 -3 39 12 76 47 72 67 108 90 145 91 17 0 39 4 50 9 27 10 34 2 50
-60z m-1109 17 c6 -17 -12 -67 -25 -67 -5 0 -9 18 -9 40 0 28 5 40 14 40 8 0
17 -6 20 -13z m859 -12 c-48 -40 -83 -57 -91 -43 -12 19 52 68 89 68 l32 0
-30 -25z m-987 -8 c2 -10 -2 -32 -9 -49 -11 -27 -14 -29 -20 -12 -4 10 -8 34
-8 52 -1 27 3 33 16 30 10 -2 19 -11 21 -21z m85 -230 c6 -40 1 -43 -71 -45
l-34 -1 7 61 c8 69 47 201 67 226 11 13 14 -3 20 -94 4 -60 9 -126 11 -147z
m1231 117 c9 -3 16 -11 16 -18 0 -21 -71 -126 -86 -126 -18 0 -18 4 2 71 22
75 33 86 68 73z m-356 -107 c28 11 9 -9 -23 -23 -42 -17 -45 -17 -45 -1 0 21
22 37 39 28 9 -5 22 -6 29 -4z m-890 -113 c4 -25 -63 -53 -81 -35 -16 16 3 44
34 52 33 9 44 6 47 -17z"/>
</g>
</svg>
