<?xml version="1.0" standalone="no"?>
<!DOCTYPE svg PUBLIC "-//W3C//DTD SVG 20010904//EN"
 "http://www.w3.org/TR/2001/REC-SVG-20010904/DTD/svg10.dtd">
<svg version="1.0" xmlns="http://www.w3.org/2000/svg"
 width="103.000000pt" height="74.000000pt" viewBox="0 0 103.000000 74.000000"
 preserveAspectRatio="xMidYMid meet">
<metadata>
Created by potrace 1.16, written by Peter Selinger 2001-2019
</metadata>
<g transform="translate(0.000000,74.000000) scale(0.100000,-0.100000)"
fill="#000000" stroke="none">
<path d="M202 646 c-38 -57 -48 -67 -90 -78 l-47 -14 1 -64 c0 -36 3 -109 6
-162 3 -54 2 -116 -2 -137 -8 -45 0 -64 23 -56 12 5 17 -2 23 -29 3 -20 11
-36 18 -36 12 0 69 90 80 126 10 33 145 154 171 154 19 0 55 35 55 54 0 8 -34
40 -75 72 -87 69 -108 105 -103 176 2 29 -1 53 -7 55 -6 2 -30 -26 -53 -61z
m18 -56 c0 -5 -4 -10 -10 -10 -5 0 -10 5 -10 10 0 6 5 10 10 10 6 0 10 -4 10
-10z m13 -51 c12 -7 24 -15 27 -18 14 -18 117 -99 133 -104 10 -4 15 -12 11
-18 -9 -15 -149 -3 -188 17 -26 12 -32 12 -53 -1 -12 -9 -23 -20 -23 -25 0 -6
-5 -10 -11 -10 -13 0 -7 24 28 108 26 64 37 71 76 51z m-103 -22 c0 -13 -7
-32 -15 -43 -13 -18 -14 -17 -15 17 0 20 3 39 7 42 13 14 23 7 23 -16z m67
-144 c4 -12 -35 -29 -44 -19 -8 8 18 37 30 33 6 -2 12 -8 14 -14z m108 -48
c-40 -36 -167 -123 -192 -132 -11 -4 -13 8 -11 57 l3 62 65 22 c36 13 90 24
120 24 l55 2 -40 -35z m-125 -145 c-6 -11 -17 -20 -25 -20 -20 0 -19 10 3 26
25 19 34 17 22 -6z"/>
<path d="M470 640 c-16 -16 -20 -31 -18 -63 3 -38 5 -42 27 -39 l24 4 -7 -199
c-7 -228 -7 -255 -1 -262 3 -2 18 5 33 17 55 44 89 52 201 50 131 -2 145 -8
138 -55 -5 -28 -3 -34 11 -31 11 2 18 15 20 33 2 17 13 40 24 52 18 20 19 22
2 31 -15 8 -16 21 -11 108 6 106 37 256 63 305 22 44 13 59 -39 59 -30 0 -53
-7 -71 -21 -23 -18 -40 -22 -114 -21 -77 0 -182 20 -244 47 -10 4 -24 -1 -38
-15z m464 -28 c3 -5 -3 -31 -14 -58 -18 -48 -22 -48 -34 5 -9 41 29 83 48 53z
m-396 -8 c30 -9 28 -17 -9 -31 -39 -15 -53 -8 -39 18 12 21 14 22 48 13z m305
-33 c10 -10 16 -96 9 -140 l-5 -33 -71 7 c-39 4 -89 13 -111 21 -55 19 -75 18
-103 -8 l-24 -23 7 55 c12 92 25 112 75 124 48 12 210 9 223 -3z m-208 -177
c13 -5 14 -8 3 -15 -22 -14 -58 -10 -58 6 0 16 26 20 55 9z m220 -26 c9 -9 7
-180 -2 -189 -6 -6 -38 -6 -84 0 -41 6 -94 12 -119 14 -61 7 -109 18 -115 28
-3 4 -2 32 1 62 l7 55 56 7 c31 4 71 8 88 9 18 1 38 7 43 12 10 10 116 12 125
2z m-291 -207 c7 -11 -22 -23 -35 -15 -5 3 -7 10 -4 15 8 12 32 12 39 0z"/>
</g>
</svg>
