<?xml version="1.0" standalone="no"?>
<!DOCTYPE svg PUBLIC "-//W3C//DTD SVG 20010904//EN"
 "http://www.w3.org/TR/2001/REC-SVG-20010904/DTD/svg10.dtd">
<svg version="1.0" xmlns="http://www.w3.org/2000/svg"
 width="44.000000pt" height="77.000000pt" viewBox="0 0 44.000000 77.000000"
 preserveAspectRatio="xMidYMid meet">
<metadata>
Created by potrace 1.16, written by Peter Selinger 2001-2019
</metadata>
<g transform="translate(0.000000,77.000000) scale(0.100000,-0.100000)"
fill="#000000" stroke="none">
<path d="M50 712 c-23 -18 -23 -21 -12 -93 17 -109 35 -297 34 -355 -1 -29 -6
-80 -11 -115 -7 -40 -7 -67 -1 -73 11 -11 15 -2 30 79 6 33 15 71 20 85 5 14
16 51 26 83 29 97 36 80 32 -77 -3 -128 -2 -146 12 -144 12 3 15 19 16 75 2
74 40 203 68 232 12 11 15 2 21 -63 4 -42 5 -123 2 -181 -4 -63 -3 -107 3
-110 6 -3 10 -3 10 2 2 34 30 203 38 223 5 14 15 43 22 65 7 22 21 52 32 68
35 50 19 69 -46 52 l-29 -8 7 49 c3 27 17 76 31 109 13 33 25 65 25 71 0 11
-152 30 -167 21 -9 -5 -99 8 -124 18 -9 3 -26 -2 -39 -13z m74 -84 c-14 -28
-29 -47 -34 -42 -9 11 -22 89 -15 95 2 3 20 3 39 1 l35 -4 -25 -50z m114 19
c-7 -14 -13 -17 -16 -9 -6 19 6 44 18 37 7 -4 6 -14 -2 -28z m102 2 c-7 -11
-14 -18 -17 -15 -8 8 5 36 17 36 7 0 7 -6 0 -21z m-151 -106 c1 -39 -2 -74 -6
-76 -5 -2 -25 -2 -45 0 -31 4 -38 9 -38 28 0 28 26 91 53 129 19 27 21 28 28
10 4 -10 8 -51 8 -91z m98 80 c-3 -16 -2 -48 2 -73 10 -68 5 -80 -35 -80 -32
0 -34 2 -34 34 0 39 45 146 61 146 7 0 9 -11 6 -27z m66 -225 l-28 -43 -3 28
c-5 40 3 55 30 59 13 2 24 3 26 2 2 -1 -9 -22 -25 -46z m-210 36 c3 -3 -4 -22
-16 -42 l-21 -35 -8 29 c-4 16 -6 35 -3 42 4 12 37 17 48 6z m89 -23 c-12 -22
-19 -26 -24 -16 -12 20 1 45 23 45 17 0 17 -1 1 -29z"/>
</g>
</svg>
