<?xml version="1.0" standalone="no"?>
<!DOCTYPE svg PUBLIC "-//W3C//DTD SVG 20010904//EN"
 "http://www.w3.org/TR/2001/REC-SVG-20010904/DTD/svg10.dtd">
<svg version="1.0" xmlns="http://www.w3.org/2000/svg"
 width="38.000000pt" height="73.000000pt" viewBox="0 0 38.000000 73.000000"
 preserveAspectRatio="xMidYMid meet">
<metadata>
Created by potrace 1.16, written by Peter Selinger 2001-2019
</metadata>
<g transform="translate(0.000000,73.000000) scale(0.100000,-0.100000)"
fill="#000000" stroke="none">
<path d="M67 673 c-6 -9 7 -142 23 -238 6 -33 12 -135 13 -227 1 -93 5 -168 8
-168 11 0 27 53 28 86 0 17 9 64 21 105 11 41 26 92 32 114 6 22 15 44 19 48
3 5 8 -68 11 -162 3 -150 8 -194 22 -180 2 2 6 38 9 80 4 72 26 146 77 257 11
23 20 46 20 51 0 5 -18 11 -40 15 -22 3 -40 12 -40 18 0 6 15 41 34 77 29 58
52 121 44 121 -2 0 -26 3 -55 6 l-52 6 -7 -37 c-3 -20 -4 -61 0 -90 9 -75 3
-85 -50 -85 -56 0 -57 11 -3 109 28 52 37 77 29 85 -13 13 -136 21 -143 9z
m113 -33 c0 -12 -18 -45 -41 -77 -16 -22 -17 -22 -22 25 -3 26 -3 50 0 54 7
12 63 9 63 -2z m130 -8 c0 -23 -29 -64 -41 -57 -10 7 -12 58 -2 68 14 14 43 7
43 -11z m-135 -232 c-25 -72 -31 -77 -38 -30 -7 54 -1 70 29 70 23 0 23 -1 9
-40z m129 22 c3 -5 -6 -35 -19 -68 l-25 -59 0 68 c0 60 2 67 19 67 11 0 22 -4
25 -8z"/>
</g>
</svg>
