<?xml version="1.0" standalone="no"?>
<!DOCTYPE svg PUBLIC "-//W3C//DTD SVG 20010904//EN"
 "http://www.w3.org/TR/2001/REC-SVG-20010904/DTD/svg10.dtd">
<svg version="1.0" xmlns="http://www.w3.org/2000/svg"
 width="44.000000pt" height="79.000000pt" viewBox="0 0 44.000000 79.000000"
 preserveAspectRatio="xMidYMid meet">
<metadata>
Created by potrace 1.16, written by Peter Selinger 2001-2019
</metadata>
<g transform="translate(0.000000,79.000000) scale(0.100000,-0.100000)"
fill="#000000" stroke="none">
<path d="M158 743 c-34 -3 -48 -8 -48 -19 0 -10 7 -13 25 -8 30 7 33 -11 10
-56 -20 -38 -31 -38 -39 0 -4 21 -11 30 -25 30 -15 0 -19 -5 -15 -22 2 -13 7
-60 11 -105 3 -46 9 -83 12 -83 3 0 19 34 36 75 16 42 40 88 52 103 l22 27 2
-35 c0 -19 1 -69 1 -110 -1 -68 1 -73 14 -56 8 11 14 42 14 72 0 37 7 63 23
88 12 19 25 35 28 36 12 0 19 -44 19 -125 0 -51 3 -76 10 -69 5 5 11 18 13 29
10 50 22 81 39 100 17 17 58 87 58 98 0 2 -38 4 -84 3 -67 0 -89 3 -104 17
-10 9 -20 16 -23 15 -2 -1 -25 -3 -51 -5z m202 -70 c0 -5 -5 -15 -10 -23 -8
-12 -10 -11 -10 8 0 12 5 22 10 22 6 0 10 -3 10 -7z"/>
<path d="M92 260 c0 -179 5 -226 24 -207 3 3 8 47 11 98 5 97 19 152 53 219
44 86 56 60 59 -130 2 -85 5 -157 7 -159 13 -13 25 23 29 89 4 55 15 97 41
158 20 46 33 90 30 98 -4 10 -22 14 -65 14 -33 0 -63 5 -66 10 -3 6 -33 10
-65 10 l-59 0 1 -200z m78 160 c0 -6 -7 -25 -16 -42 -12 -24 -18 -28 -25 -17
-10 17 -12 53 -2 62 10 11 43 8 43 -3z m140 -12 c-1 -7 -7 -26 -14 -43 l-13
-30 -7 32 c-4 18 -5 37 -1 43 9 14 35 13 35 -2z"/>
</g>
</svg>
