<?xml version="1.0" standalone="no"?>
<!DOCTYPE svg PUBLIC "-//W3C//DTD SVG 20010904//EN"
 "http://www.w3.org/TR/2001/REC-SVG-20010904/DTD/svg10.dtd">
<svg version="1.0" xmlns="http://www.w3.org/2000/svg"
 width="51.000000pt" height="61.000000pt" viewBox="0 0 51.000000 61.000000"
 preserveAspectRatio="xMidYMid meet">
<metadata>
Created by potrace 1.16, written by Peter Selinger 2001-2019
</metadata>
<g transform="translate(0.000000,61.000000) scale(0.100000,-0.100000)"
fill="#000000" stroke="none">
<path d="M271 543 c-19 -3 -45 -12 -59 -21 -25 -16 -25 -17 -17 -117 4 -55 7
-150 7 -211 0 -100 8 -147 22 -133 3 2 7 52 10 109 6 105 45 271 80 338 14 27
12 45 -3 40 -3 0 -21 -3 -40 -5z m9 -32 c0 -8 -23 -79 -37 -111 -4 -11 -8 -9
-13 10 -13 42 -11 78 6 94 17 17 44 22 44 7z"/>
<path d="M358 535 c-10 -10 6 -399 18 -442 14 -49 22 -18 27 105 5 125 15 171
56 265 32 73 30 77 -37 77 -32 0 -61 -2 -64 -5z m76 -47 c-3 -13 -13 -34 -20
-48 -13 -24 -13 -23 -14 23 0 41 3 47 21 47 16 0 19 -4 13 -22z"/>
<path d="M64 505 c-4 -9 -1 -72 5 -140 6 -69 11 -168 11 -220 0 -52 4 -95 9
-95 16 0 21 29 22 142 0 62 5 123 11 137 5 15 16 49 24 76 7 28 18 65 23 83
l10 32 -55 0 c-40 0 -56 -4 -60 -15z m61 -49 c-4 -20 -11 -33 -16 -30 -14 8
-11 62 4 67 18 6 19 3 12 -37z"/>
</g>
</svg>
