<?xml version="1.0" standalone="no"?>
<!DOCTYPE svg PUBLIC "-//W3C//DTD SVG 20010904//EN"
 "http://www.w3.org/TR/2001/REC-SVG-20010904/DTD/svg10.dtd">
<svg version="1.0" xmlns="http://www.w3.org/2000/svg"
 width="66.000000pt" height="65.000000pt" viewBox="0 0 66.000000 65.000000"
 preserveAspectRatio="xMidYMid meet">
<metadata>
Created by potrace 1.16, written by Peter Selinger 2001-2019
</metadata>
<g transform="translate(0.000000,65.000000) scale(0.100000,-0.100000)"
fill="#000000" stroke="none">
<path d="M355 514 c-33 -30 -52 -52 -42 -48 12 4 17 1 17 -13 0 -11 -3 -22 -6
-26 -10 -9 -34 4 -34 19 0 19 -14 18 -30 -2 -12 -13 -8 -20 25 -49 33 -28 37
-35 26 -49 -7 -8 -21 -18 -31 -21 -24 -8 -89 33 -96 60 -5 21 20 87 53 137 9
15 14 30 11 33 -8 9 -50 -14 -44 -23 7 -12 -6 -28 -44 -52 -22 -14 -27 -19
-12 -15 22 6 27 -1 16 -29 -8 -21 -34 -21 -34 0 0 9 -5 13 -12 10 -7 -3 -21
-9 -31 -12 -25 -9 -21 -21 13 -39 16 -9 30 -19 30 -24 0 -5 20 -21 45 -35 60
-36 59 -44 -12 -86 -18 -11 -33 -23 -33 -28 0 -5 26 -25 58 -46 31 -21 70 -56
87 -77 24 -33 55 -52 55 -34 0 9 -32 58 -53 82 -20 22 -19 22 7 85 15 35 35
74 45 87 17 23 19 23 44 7 14 -10 28 -24 31 -32 7 -19 -12 -49 -41 -65 -24
-13 -31 -39 -11 -39 7 0 40 -29 73 -65 41 -44 64 -62 73 -57 9 7 5 18 -18 47
-36 45 -39 90 -10 153 15 33 24 42 45 42 33 0 33 23 0 56 -22 22 -25 31 -19
62 7 41 38 107 54 117 13 8 13 25 -1 25 -18 0 -77 -72 -73 -89 3 -9 -1 -23 -6
-31 -10 -13 -12 -13 -22 2 -11 15 -14 15 -35 1 l-24 -16 47 -42 c37 -34 45
-47 39 -64 -12 -39 -55 -20 -102 46 -26 36 -20 71 22 135 40 61 26 61 -40 2z
m-75 -218 c0 -2 -9 -25 -20 -50 -19 -45 -32 -54 -57 -38 -26 17 -18 43 22 66
40 24 55 30 55 22z m140 -66 c0 -19 -11 -26 -23 -14 -8 8 3 34 14 34 5 0 9 -9
9 -20z"/>
</g>
</svg>
