<?xml version="1.0" standalone="no"?>
<!DOCTYPE svg PUBLIC "-//W3C//DTD SVG 20010904//EN"
 "http://www.w3.org/TR/2001/REC-SVG-20010904/DTD/svg10.dtd">
<svg version="1.0" xmlns="http://www.w3.org/2000/svg"
 width="142.000000pt" height="98.000000pt" viewBox="0 0 142.000000 98.000000"
 preserveAspectRatio="xMidYMid meet">
<metadata>
Created by potrace 1.16, written by Peter Selinger 2001-2019
</metadata>
<g transform="translate(0.000000,98.000000) scale(0.100000,-0.100000)"
fill="#000000" stroke="none">
<path d="M910 892 c-33 -54 -86 -98 -114 -93 -35 5 -64 -8 -70 -34 -8 -30 -5
-29 -179 -11 -113 12 -137 18 -205 51 l-76 38 -37 -41 c-28 -32 -44 -42 -67
-42 -54 0 -69 -48 -51 -172 6 -45 11 -154 10 -240 -1 -154 10 -209 22 -108 8
65 12 70 52 70 l33 0 -5 -135 c-5 -117 -4 -135 9 -135 21 0 28 30 28 133 0
112 16 150 63 145 l32 -3 1 -95 c1 -52 -4 -112 -11 -132 -16 -47 -9 -88 15
-88 16 0 19 15 25 140 5 92 12 145 20 154 9 9 51 11 161 9 82 -2 155 -6 162
-8 10 -4 13 -30 11 -112 -2 -69 1 -108 8 -110 12 -4 23 29 23 75 0 20 4 31 10
27 6 -3 10 -18 10 -33 0 -15 5 -34 10 -42 14 -22 44 0 48 34 2 15 10 30 17 33
8 2 25 24 39 46 27 47 117 137 137 137 7 0 20 6 28 14 9 7 43 28 76 46 33 17
64 38 68 46 11 19 103 65 136 67 15 2 26 8 26 17 0 22 -224 178 -301 209 -25
10 -40 30 -75 102 -24 49 -47 89 -51 89 -5 0 -21 -21 -38 -48z m51 -63 c18
-36 19 -41 4 -35 -9 3 -20 6 -23 6 -4 0 -15 7 -25 14 -15 12 -16 18 -7 35 16
31 27 26 51 -20z m-686 -75 c-19 -14 -45 -19 -45 -8 0 3 5 14 10 25 9 16 14
17 32 8 21 -11 21 -12 3 -25z m636 11 c16 -9 58 -25 92 -35 59 -19 298 -157
304 -176 2 -5 -9 -15 -24 -21 -32 -14 -31 -13 -181 -111 -73 -48 -127 -76
-151 -79 -37 -5 -38 -5 -44 32 -6 38 10 110 52 225 27 72 27 110 2 110 -10 0
-24 -7 -31 -15 -7 -8 -18 -15 -26 -15 -22 0 -31 -32 -25 -90 3 -30 2 -86 -2
-125 -4 -38 -5 -91 -2 -117 4 -34 1 -50 -10 -62 -21 -20 -49 -21 -65 -1 -7 8
-9 15 -5 15 5 0 1 8 -7 18 -12 13 -15 36 -12 102 3 88 19 147 44 166 11 9 12
15 2 26 -9 12 -7 28 13 78 14 35 25 70 25 77 0 17 14 16 51 -2z m-101 -21 c0
-17 -14 -18 -42 -3 -15 8 -17 13 -8 19 17 11 50 0 50 -16z m-256 -24 c87 -6
162 -13 167 -16 14 -8 11 -62 -3 -67 -7 -2 -26 0 -43 4 -16 4 -77 11 -135 14
-58 3 -134 10 -170 15 -92 14 -98 13 -126 -15 -25 -25 -25 -29 -23 -143 l2
-117 -23 3 c-13 1 -25 4 -27 5 -9 9 -5 130 6 182 22 110 28 121 69 133 53 17
83 20 118 16 17 -2 102 -9 188 -14z m-389 -37 c-17 -111 -17 -109 -25 -88 -13
31 -11 100 2 113 21 21 29 13 23 -25z m635 15 c-1 -7 -7 -26 -15 -43 -12 -27
-14 -28 -15 -7 -2 12 -3 28 -4 35 -3 18 3 27 20 27 8 0 14 -6 14 -12z m134
-82 c-7 -31 -20 -34 -27 -6 -3 12 1 24 11 29 22 12 24 9 16 -23z m-389 3 c88
-6 166 -16 173 -22 12 -9 17 -49 7 -59 -3 -3 -33 1 -66 9 -33 7 -64 11 -68 8
-5 -3 -33 0 -62 6 -30 6 -65 12 -78 14 -14 2 -35 9 -48 16 -40 21 -48 1 -48
-119 l0 -107 -39 2 c-22 2 -43 8 -48 15 -15 25 -8 98 19 178 l27 81 35 -5 c20
-3 108 -10 196 -17z m-284 -20 c-9 -22 -10 -22 -10 -3 -1 11 2 24 6 27 12 12
14 0 4 -24z m343 -79 c59 -5 114 -15 122 -21 8 -6 14 -23 14 -36 0 -24 -3 -25
-42 -20 -75 9 -212 35 -249 47 -29 10 -35 17 -31 32 4 17 11 19 41 14 20 -3
85 -10 145 -16z m5 -96 c40 -8 83 -14 96 -14 24 0 35 -17 35 -55 0 -22 -24
-40 -40 -30 -4 2 -59 8 -121 11 -63 3 -125 8 -139 9 -14 2 -28 4 -32 4 -12 1
-9 76 3 88 13 13 90 8 198 -13z m-419 -84 c0 -5 -4 -10 -9 -10 -6 0 -13 5 -16
10 -3 6 1 10 9 10 9 0 16 -4 16 -10z m680 -107 c-1 -22 -23 -53 -38 -53 -17 0
-25 39 -12 55 17 21 50 19 50 -2z"/>
</g>
</svg>
