<?xml version="1.0" standalone="no"?>
<!DOCTYPE svg PUBLIC "-//W3C//DTD SVG 20010904//EN"
 "http://www.w3.org/TR/2001/REC-SVG-20010904/DTD/svg10.dtd">
<svg version="1.0" xmlns="http://www.w3.org/2000/svg"
 width="135.000000pt" height="74.000000pt" viewBox="0 0 135.000000 74.000000"
 preserveAspectRatio="xMidYMid meet">
<metadata>
Created by potrace 1.16, written by Peter Selinger 2001-2019
</metadata>
<g transform="translate(0.000000,74.000000) scale(0.100000,-0.100000)"
fill="#000000" stroke="none">
<path d="M596 673 c-29 -47 -101 -113 -122 -113 -8 0 -30 -16 -50 -35 -39 -39
-43 -40 -177 -25 -58 6 -99 16 -121 29 -47 30 -67 13 -59 -51 6 -51 15 -57 51
-32 29 20 51 24 145 29 61 3 77 0 77 -11 0 -8 9 -14 20 -14 21 0 27 -19 10
-36 -10 -10 -174 -2 -221 10 -21 6 -29 2 -42 -17 l-16 -25 131 6 132 5 -22
-23 c-20 -22 -26 -23 -117 -16 -82 5 -96 4 -102 -9 -8 -24 12 -41 31 -26 17
14 143 6 163 -11 23 -19 14 -30 -19 -25 -18 4 -62 7 -98 8 -64 3 -65 2 -65
-24 0 -14 -8 -32 -18 -39 -9 -7 -20 -30 -24 -51 l-6 -37 44 20 c24 11 52 20
62 20 9 0 17 5 17 10 0 7 36 10 100 9 91 -2 102 -4 118 -25 9 -12 28 -25 41
-29 26 -8 26 -10 -24 64 -25 37 -31 58 -35 118 -3 48 -1 73 6 73 34 0 104
-122 104 -182 0 -10 5 -18 10 -18 15 0 12 -26 -5 -40 -20 -17 -19 -29 3 -27
25 1 71 -32 88 -64 18 -36 49 -41 38 -6 -5 12 -7 58 -6 101 2 69 6 87 35 140
55 101 111 127 297 141 25 2 81 6 126 10 91 9 89 11 100 -73 l6 -49 -113 -6
c-170 -10 -282 -8 -319 5 -29 9 -35 9 -47 -7 -16 -23 -17 -85 -2 -85 6 0 41
11 78 24 61 21 214 41 352 45 l45 1 11 -73 c6 -39 10 -88 8 -107 -3 -38 9 -70
26 -70 8 0 9 47 4 153 -7 168 2 232 49 346 14 36 26 67 26 71 0 8 -155 4 -170
-5 -7 -4 -8 -11 -1 -18 9 -12 32 -119 26 -125 -1 -1 -65 -7 -142 -12 -148 -10
-226 0 -281 36 -38 25 -50 12 -57 -63 -5 -41 -14 -76 -25 -88 -9 -11 -26 -36
-38 -55 -11 -19 -34 -48 -50 -64 l-30 -28 -7 55 c-5 42 -3 67 11 102 21 57 40
67 65 34 30 -40 32 -15 3 52 -22 53 -25 73 -21 119 4 31 13 72 22 93 18 43 18
47 5 47 -5 0 -21 -17 -34 -37z m681 -70 c-23 -73 -41 -113 -48 -113 -5 0 -9 6
-9 14 0 7 -3 34 -6 59 -6 44 -6 46 22 50 16 2 33 5 38 6 4 0 6 -7 3 -16z
m-712 -51 c-12 -13 -24 22 -12 37 10 12 13 11 15 -8 2 -13 1 -26 -3 -29z m-30
-38 c33 -35 31 -42 -6 -46 -31 -3 -38 -10 -56 -53 -5 -14 -9 -3 -11 39 -2 32
-1 65 2 72 9 23 45 16 71 -12z m-115 -40 c0 -8 -4 -12 -10 -9 -5 3 -10 10 -10
16 0 5 5 9 10 9 6 0 10 -7 10 -16z m375 -34 c6 -9 -53 -35 -61 -27 -3 3 -3 14
0 25 5 14 13 18 31 14 14 -2 27 -8 30 -12z m-235 -7 c-1 -5 -7 -19 -14 -32
-14 -24 -14 -24 -20 -3 -4 12 -4 26 -1 32 7 12 35 14 35 3z m230 -153 c-20
-13 -40 -13 -40 0 0 6 12 10 28 10 21 0 24 -2 12 -10z m-447 -29 c49 -19 30
-30 -40 -25 -98 7 -134 14 -129 23 8 12 139 13 169 2z m-189 -37 c24 -9 19
-21 -10 -28 -31 -8 -37 -5 -28 18 7 17 14 19 38 10z m436 -23 c0 -5 3 -16 6
-25 4 -10 1 -16 -9 -16 -20 0 -29 14 -21 34 7 17 24 22 24 7z"/>
</g>
</svg>
