<?xml version="1.0" standalone="no"?>
<!DOCTYPE svg PUBLIC "-//W3C//DTD SVG 20010904//EN"
 "http://www.w3.org/TR/2001/REC-SVG-20010904/DTD/svg10.dtd">
<svg version="1.0" xmlns="http://www.w3.org/2000/svg"
 width="71.000000pt" height="90.000000pt" viewBox="0 0 71.000000 90.000000"
 preserveAspectRatio="xMidYMid meet">
<metadata>
Created by potrace 1.16, written by Peter Selinger 2001-2019
</metadata>
<g transform="translate(0.000000,90.000000) scale(0.100000,-0.100000)"
fill="#000000" stroke="none">
<path d="M535 770 c-4 -6 -29 -22 -56 -35 -27 -14 -49 -32 -49 -39 0 -8 -11
-17 -25 -20 -38 -10 -194 11 -261 35 -75 26 -100 29 -95 9 2 -8 6 -27 8 -41
l5 -27 138 4 c75 3 144 2 153 -2 24 -9 10 -30 -33 -49 -32 -14 -53 -16 -112
-11 -40 4 -80 11 -88 16 -21 11 -43 -3 -38 -25 2 -15 16 -18 91 -19 75 -1 91
-4 103 -21 24 -32 2 -38 -89 -25 -87 13 -122 9 -115 -12 3 -9 41 -13 123 -15
98 -3 121 -7 131 -21 26 -34 17 -42 -49 -42 -35 0 -89 5 -120 11 -62 11 -79 7
-70 -16 4 -12 30 -15 137 -15 l132 0 17 -35 c9 -20 17 -38 17 -40 0 -9 -108
-5 -132 4 -13 4 -51 11 -85 15 l-61 7 -7 -42 c-4 -22 -3 -44 1 -49 5 -4 41 3
79 16 83 27 212 35 225 13 22 -34 19 6 -5 77 -14 42 -27 98 -27 123 -2 54 40
166 61 166 18 0 56 -65 75 -128 14 -45 14 -48 -7 -71 -12 -13 -32 -53 -44 -87
-24 -71 -67 -283 -61 -301 2 -6 21 20 42 58 21 38 56 91 77 118 39 49 52 79
24 56 -8 -7 -31 -35 -51 -62 -20 -27 -38 -48 -39 -46 -6 6 37 173 52 201 13
26 18 28 51 22 20 -4 45 -14 55 -23 17 -15 16 -17 -15 -50 l-33 -35 50 38 c28
21 50 43 50 49 0 6 -22 22 -49 36 -51 26 -52 28 -75 123 -15 66 -14 95 9 146
11 24 20 49 20 57 0 16 -26 19 -35 4z m-22 -56 c8 -8 -3 -34 -14 -34 -5 0 -9
9 -9 20 0 19 11 26 23 14z m-166 -170 c-9 -9 -28 6 -21 18 4 6 10 6 17 -1 6
-6 8 -13 4 -17z m-147 -232 c0 -7 -57 -32 -73 -32 -4 0 -7 9 -7 20 0 17 7 20
40 20 22 0 40 -4 40 -8z"/>
<path d="M682 348 c6 -18 28 -21 28 -4 0 9 -7 16 -16 16 -9 0 -14 -5 -12 -12z"/>
</g>
</svg>
