<?xml version="1.0" standalone="no"?>
<!DOCTYPE svg PUBLIC "-//W3C//DTD SVG 20010904//EN"
 "http://www.w3.org/TR/2001/REC-SVG-20010904/DTD/svg10.dtd">
<svg version="1.0" xmlns="http://www.w3.org/2000/svg"
 width="185.000000pt" height="91.000000pt" viewBox="0 0 185.000000 91.000000"
 preserveAspectRatio="xMidYMid meet">
<metadata>
Created by potrace 1.16, written by Peter Selinger 2001-2019
</metadata>
<g transform="translate(0.000000,91.000000) scale(0.100000,-0.100000)"
fill="#000000" stroke="none">
<path d="M1552 850 c-18 -29 -85 -60 -130 -60 -22 0 -44 -6 -49 -12 -5 -7 -20
-48 -33 -91 -13 -43 -28 -80 -32 -83 -4 -3 -8 -14 -8 -25 0 -11 -4 -17 -10
-14 -5 3 -10 24 -10 46 0 21 -4 39 -10 39 -15 0 -99 -64 -99 -76 -1 -6 6 -17
14 -24 23 -19 18 -33 -7 -25 -13 4 -57 11 -98 15 -171 19 -173 20 -320 47 -47
8 -98 23 -115 33 -16 10 -56 23 -89 29 -32 6 -79 22 -104 36 -70 39 -85 35
-125 -37 -19 -35 -31 -67 -28 -71 4 -4 36 -1 72 8 83 19 192 19 249 -1 56 -20
298 -58 463 -73 74 -7 89 -22 30 -33 -21 -3 -51 -9 -68 -13 -16 -3 -55 -10
-85 -14 -30 -5 -93 -19 -140 -31 -146 -38 -231 -50 -354 -50 l-118 0 6 -31 c3
-17 6 -47 6 -65 0 -27 4 -34 20 -34 10 0 23 6 27 13 19 32 107 67 253 101 30
8 80 20 110 29 30 8 91 22 135 31 44 9 123 26 175 37 52 11 108 22 124 26 42
9 48 -12 20 -75 -13 -30 -24 -56 -24 -59 0 -13 23 14 40 48 11 21 26 39 34 39
7 0 21 -18 31 -40 18 -41 17 -52 -23 -142 -2 -5 1 -8 7 -8 6 0 17 15 25 34 21
50 32 51 64 3 39 -56 45 -97 20 -133 -10 -16 -30 -50 -44 -76 -23 -45 -23 -48
-6 -48 13 0 25 14 38 42 22 50 71 123 109 164 15 16 39 45 53 64 14 19 37 47
52 61 14 14 49 52 79 85 29 32 71 78 92 101 24 25 37 47 33 56 -3 8 -25 26
-50 38 -38 21 -47 22 -65 11 -18 -12 -24 -11 -45 9 -13 12 -33 39 -44 60 -17
33 -18 46 -10 90 6 28 7 55 4 60 -9 15 -29 10 -42 -11z m8 -50 c0 -5 -4 -10
-10 -10 -5 0 -10 5 -10 10 0 6 5 10 10 10 6 0 10 -4 10 -10z m-30 -60 c25 -49
25 -50 -5 -50 -21 0 -29 -9 -45 -44 -10 -24 -23 -47 -29 -50 -11 -7 -51 49
-51 71 0 12 92 113 104 113 3 0 15 -18 26 -40z m-129 -23 c-11 -12 -23 -19
-25 -16 -9 9 25 50 36 43 6 -4 2 -14 -11 -27z m-993 -63 c35 -10 26 -32 -19
-44 -49 -13 -56 -9 -41 25 12 26 21 29 60 19z m1104 -26 c-7 -7 -12 -8 -12 -2
0 14 12 26 19 19 2 -3 -1 -11 -7 -17z m101 -7 c24 -41 22 -62 -19 -147 l-36
-75 -33 38 c-54 61 -57 93 -13 145 13 14 31 36 40 47 24 29 41 26 61 -8z
m-203 -64 c13 -23 12 -30 -16 -84 -16 -32 -36 -58 -44 -58 -7 0 -24 21 -37 46
-21 40 -23 49 -12 75 7 16 22 39 33 52 17 20 22 21 40 8 12 -7 28 -25 36 -39z
m348 30 c7 -8 7 -19 -1 -33 -16 -29 -167 -187 -174 -181 -8 8 54 120 86 156
17 19 33 43 37 53 6 21 37 24 52 5z m-513 -15 c0 -18 -20 -15 -23 4 -3 10 1
15 10 12 7 -3 13 -10 13 -16z m237 -119 c61 -66 62 -72 20 -143 -21 -36 -44
-65 -52 -65 -20 0 -73 101 -72 137 1 37 39 98 61 98 9 0 29 -12 43 -27z
m-1037 -143 c-60 -24 -55 -24 -55 0 0 18 7 20 53 20 l52 -1 -50 -19z"/>
<path d="M257 671 c-34 -32 -97 -81 -139 -110 -43 -28 -78 -58 -78 -66 0 -8
30 -36 67 -62 37 -26 98 -78 137 -115 43 -42 74 -64 79 -59 12 12 -52 101 -89
126 -27 18 -27 13 -8 135 9 58 37 114 80 158 19 19 34 39 34 44 0 20 -26 4
-83 -51z m-64 -131 c-2 -53 -13 -100 -23 -100 -5 0 -25 14 -45 31 -39 35 -38
45 15 84 42 31 55 27 53 -15z"/>
</g>
</svg>
