<?xml version="1.0" standalone="no"?>
<!DOCTYPE svg PUBLIC "-//W3C//DTD SVG 20010904//EN"
 "http://www.w3.org/TR/2001/REC-SVG-20010904/DTD/svg10.dtd">
<svg version="1.0" xmlns="http://www.w3.org/2000/svg"
 width="125.000000pt" height="84.000000pt" viewBox="0 0 125.000000 84.000000"
 preserveAspectRatio="xMidYMid meet">
<metadata>
Created by potrace 1.16, written by Peter Selinger 2001-2019
</metadata>
<g transform="translate(0.000000,84.000000) scale(0.100000,-0.100000)"
fill="#000000" stroke="none">
<path d="M952 823 c-7 -3 -24 -29 -37 -59 -13 -30 -30 -55 -37 -56 -7 0 -29
-1 -48 -2 l-35 -1 -1 -155 c-1 -192 1 -180 -29 -180 -19 0 -25 -5 -23 -17 2
-12 -9 -22 -37 -32 -22 -9 -46 -20 -53 -24 -17 -12 -15 -57 3 -57 8 0 15 5 15
11 0 5 21 19 46 30 25 11 48 27 51 35 8 22 22 17 35 -13 l11 -28 7 39 c7 35
22 55 43 56 5 0 5 -5 1 -12 -5 -8 8 -9 52 -4 32 4 84 7 114 7 40 0 50 2 35 9
-11 5 -33 9 -48 9 -16 1 -45 9 -64 18 -30 14 -40 15 -67 4 -55 -22 -61 -20
-58 24 8 112 38 228 66 254 25 23 92 38 179 40 l57 1 0 -33 c0 -55 -19 -71
-74 -64 -25 4 -60 13 -76 22 -39 20 -70 19 -72 -2 0 -10 -2 -37 -4 -60 -1 -23
-8 -52 -15 -64 -10 -20 -9 -21 12 -15 86 24 119 28 165 20 39 -7 49 -13 49
-29 0 -17 -8 -21 -45 -23 -25 -2 -72 2 -104 9 -54 11 -60 11 -72 -6 -8 -10
-14 -22 -14 -26 0 -4 49 -5 109 -2 77 4 110 3 115 -6 4 -6 4 -55 1 -109 l-7
-97 -42 -26 c-40 -26 -112 -64 -168 -90 -32 -14 -38 -52 -14 -84 12 -16 16
-17 30 -6 9 7 16 19 16 25 0 16 57 76 109 114 45 32 71 40 71 22 0 -5 5 -10
10 -10 6 0 10 8 10 18 0 10 6 27 14 38 10 13 11 23 4 32 -12 14 9 229 23 237
4 3 5 21 2 39 -4 27 -1 37 15 47 15 9 18 17 12 29 -14 27 3 75 28 78 12 2 22
7 22 13 0 9 -5 10 -95 28 -73 14 -99 26 -134 60 -32 32 -36 33 -59 24z m31
-61 c21 -22 13 -32 -24 -32 -27 0 -28 2 -17 25 13 30 20 31 41 7z m187 -79 c0
-10 -5 -25 -10 -33 -7 -11 -10 -7 -10 18 0 17 5 32 10 32 6 0 10 -8 10 -17z
m-58 -97 c5 -6 7 -18 5 -26 -3 -20 -83 -16 -150 8 -40 14 -46 18 -33 28 20 14
168 6 178 -10z"/>
<path d="M520 725 c-8 -10 -10 -33 -5 -75 4 -33 4 -60 1 -60 -4 0 -25 12 -47
26 -38 24 -41 28 -35 60 8 42 -7 45 -30 5 -10 -16 -26 -32 -36 -34 -32 -9 -19
-24 37 -42 30 -9 55 -21 55 -27 0 -15 -92 2 -122 23 -35 24 -35 24 -53 -11
-26 -50 -21 -59 25 -48 22 6 46 8 55 4 13 -5 12 -10 -5 -38 -11 -18 -20 -36
-20 -40 0 -14 28 -8 33 6 7 18 91 56 123 56 23 0 24 -4 24 -59 0 -77 -10 -85
-84 -66 -31 8 -77 15 -100 15 -30 0 -63 10 -102 31 l-58 30 -16 -21 c-9 -11
-32 -53 -52 -93 -34 -69 -36 -77 -41 -204 -4 -106 -3 -133 8 -133 13 0 25 29
25 65 0 26 44 113 98 193 23 35 42 66 42 68 0 3 -9 2 -20 -1 -11 -3 -20 -2
-20 4 0 5 20 13 44 16 44 7 70 6 314 -16 124 -11 167 -9 151 5 -2 2 -35 7 -74
11 -38 4 -76 11 -82 17 -14 12 -17 86 -5 106 7 9 20 6 56 -13 53 -28 75 -25
36 6 -21 16 -23 20 -10 29 8 5 23 7 33 4 9 -3 17 -1 17 4 0 5 -22 12 -50 16
-27 4 -50 11 -50 16 0 4 24 16 53 25 67 22 87 40 22 20 -62 -18 -91 -19 -98
-2 -5 14 19 74 41 100 8 9 11 21 7 27 -9 15 -71 12 -85 -5z m33 -30 c-3 -9 -8
-14 -10 -11 -3 3 -2 9 2 15 9 16 15 13 8 -4z m-128 -165 c-3 -5 -10 -10 -16
-10 -5 0 -9 5 -9 10 0 6 7 10 16 10 8 0 12 -4 9 -10z m-215 -120 c16 -10 15
-12 -22 -28 -31 -13 -47 0 -28 23 14 17 29 19 50 5z m-30 -92 c0 -7 -16 -37
-34 -67 l-33 -54 -5 35 c-5 49 4 80 27 89 30 12 45 10 45 -3z"/>
<path d="M883 290 c-40 -21 -91 -44 -113 -50 -29 -8 -40 -16 -40 -30 0 -24 22
-26 40 -5 7 8 18 15 25 15 8 0 26 11 42 24 16 13 57 37 93 54 36 17 56 31 45
31 -11 0 -53 -17 -92 -39z"/>
<path d="M1030 283 c-48 -17 -170 -78 -170 -85 0 -4 -10 -8 -23 -8 -26 0 -47
-17 -47 -37 0 -31 32 -21 97 29 64 49 100 71 163 96 25 11 8 15 -20 5z"/>
</g>
</svg>
