<?xml version="1.0" standalone="no"?>
<!DOCTYPE svg PUBLIC "-//W3C//DTD SVG 20010904//EN"
 "http://www.w3.org/TR/2001/REC-SVG-20010904/DTD/svg10.dtd">
<svg version="1.0" xmlns="http://www.w3.org/2000/svg"
 width="172.000000pt" height="102.000000pt" viewBox="0 0 172.000000 102.000000"
 preserveAspectRatio="xMidYMid meet">
<metadata>
Created by potrace 1.16, written by Peter Selinger 2001-2019
</metadata>
<g transform="translate(0.000000,102.000000) scale(0.100000,-0.100000)"
fill="#000000" stroke="none">
<path d="M1609 934 c-19 -20 -69 -63 -112 -96 -64 -49 -76 -62 -66 -74 6 -8
20 -14 30 -14 11 0 27 -9 37 -21 9 -11 32 -27 50 -34 28 -12 32 -17 23 -34 -6
-10 -35 -35 -66 -55 -57 -38 -69 -56 -37 -56 23 0 76 -55 67 -69 -3 -6 -19
-18 -36 -26 -16 -9 -29 -20 -29 -26 0 -15 40 -48 73 -60 34 -14 35 -32 1 -54
-14 -9 -43 -33 -65 -52 -44 -40 -42 -51 20 -83 20 -10 48 -31 62 -47 45 -48
96 -97 113 -112 31 -24 30 -2 0 32 -62 67 -92 114 -99 154 -7 45 6 83 29 83
10 0 14 13 14 45 -1 40 -4 45 -25 45 -17 0 -23 6 -24 23 -2 36 2 52 16 59 17
10 7 49 -18 67 -26 19 -17 75 19 112 l28 29 -32 39 c-18 22 -32 43 -32 46 0
19 56 145 77 173 34 46 24 49 -18 6z m-74 -127 c-8 -21 -19 -37 -23 -37 -10 1
-46 29 -41 33 18 14 74 45 76 43 2 -2 -4 -19 -12 -39z m15 -368 c0 -24 -23
-21 -28 4 -2 10 3 17 12 17 10 0 16 -9 16 -21z m-3 -184 c-12 -51 -16 -53 -42
-25 -18 20 -18 21 6 45 38 38 48 32 36 -20z"/>
<path d="M688 818 c-12 -18 -51 -60 -86 -92 -42 -40 -61 -65 -57 -75 4 -11
-23 -43 -85 -103 l-92 -87 35 -48 35 -48 -81 5 -82 5 -3 38 c-2 21 4 62 12 91
9 30 16 61 16 69 0 17 -51 20 -62 3 -4 -6 -8 -51 -8 -99 0 -61 -4 -89 -13 -92
-6 -3 -32 1 -57 9 -53 16 -54 25 -20 113 45 117 27 105 138 98 53 -3 114 -8
135 -10 20 -3 37 -1 37 4 0 11 -43 19 -128 26 -69 5 -126 25 -158 56 -33 30
-56 20 -82 -35 -22 -45 -23 -54 -13 -111 18 -102 14 -145 -19 -210 -37 -72
-38 -86 -4 -54 23 22 26 23 35 6 14 -24 29 -21 29 7 0 33 24 49 73 50 38 1 42
-2 45 -24 11 -102 32 -125 32 -36 0 33 5 58 13 63 20 12 129 13 164 1 19 -7
39 -25 50 -45 17 -32 43 -45 43 -20 0 6 -15 41 -34 76 -32 63 -33 66 -19 110
28 96 70 161 103 161 18 0 164 -140 155 -149 -10 -9 -95 18 -125 40 -16 12
-35 19 -42 16 -14 -5 -71 -137 -63 -145 2 -3 20 7 40 22 51 39 88 52 135 48
40 -4 41 -5 35 -36 -6 -32 -107 -136 -132 -136 -6 0 -15 -4 -18 -10 -9 -14 25
-122 37 -118 6 2 18 28 27 58 23 72 32 88 92 160 31 37 57 60 70 60 16 0 19
-4 14 -20 -8 -24 3 -25 33 -4 12 8 32 17 44 19 45 9 250 -31 368 -72 25 -8 70
-19 100 -23 30 -4 65 -11 78 -15 12 -4 22 -3 22 2 0 5 -19 15 -42 22 -24 7
-54 17 -67 23 -23 8 -81 24 -241 63 -127 31 -141 36 -134 46 8 14 91 49 115
49 11 0 32 9 47 19 15 11 92 41 172 67 80 25 152 49 160 51 12 4 12 6 2 10
-15 6 -145 -24 -171 -38 -32 -17 -239 -78 -356 -104 -55 -12 -63 -11 -92 6
l-31 19 -26 -32 -26 -33 -20 25 c-82 101 -110 170 -74 184 68 26 176 38 284
31 163 -11 430 -14 425 -5 -2 4 -69 10 -147 14 -215 10 -386 43 -459 88 -25
15 -49 28 -52 28 -3 0 -16 -15 -29 -32z m78 -47 l36 -20 -42 -11 c-49 -13 -55
-10 -46 25 8 30 7 30 52 6z m-146 -81 c0 -5 -4 -10 -10 -10 -5 0 -10 5 -10 10
0 6 5 10 10 10 6 0 10 -4 10 -10z m-476 -49 c3 -5 -1 -12 -10 -15 -27 -11 -37
-7 -24 9 14 17 26 19 34 6z m-15 -97 c-11 -28 -11 -28 -19 -8 -11 29 -7 54 11
65 19 12 24 -18 8 -57z m329 -57 c-12 -39 -25 -47 -35 -21 -5 13 35 69 43 61
2 -2 -2 -20 -8 -40z m375 9 c3 -11 -30 -32 -38 -25 -3 4 -3 14 1 23 7 17 33
19 37 2z m-238 -25 c3 -5 -5 -17 -17 -25 -26 -18 -38 -5 -18 19 14 17 26 19
35 6z m-455 -111 c13 -9 13 -11 0 -20 -22 -15 -30 -12 -30 10 0 22 8 25 30 10z
m472 -122 c-7 -7 -12 -8 -12 -2 0 14 12 26 19 19 2 -3 -1 -11 -7 -17z"/>
<path d="M1415 712 c17 -16 77 -24 73 -9 -3 6 -22 13 -44 15 -24 2 -35 0 -29
-6z"/>
<path d="M693 294 c-7 -3 -13 -14 -13 -25 0 -11 -9 -37 -20 -58 -10 -21 -16
-41 -13 -45 3 -3 22 3 42 14 124 68 214 81 515 79 241 -1 236 -1 236 9 0 4
-96 8 -213 10 -321 5 -480 10 -502 16 -11 3 -26 3 -32 0z m67 -44 c8 0 -2 -10
-23 -21 -22 -11 -41 -18 -44 -16 -10 11 18 45 34 42 10 -2 25 -4 33 -5z"/>
</g>
</svg>
