<?xml version="1.0" standalone="no"?>
<!DOCTYPE svg PUBLIC "-//W3C//DTD SVG 20010904//EN"
 "http://www.w3.org/TR/2001/REC-SVG-20010904/DTD/svg10.dtd">
<svg version="1.0" xmlns="http://www.w3.org/2000/svg"
 width="100.000000pt" height="81.000000pt" viewBox="0 0 100.000000 81.000000"
 preserveAspectRatio="xMidYMid meet">
<metadata>
Created by potrace 1.16, written by Peter Selinger 2001-2019
</metadata>
<g transform="translate(0.000000,81.000000) scale(0.100000,-0.100000)"
fill="#000000" stroke="none">
<path d="M442 741 c-15 -47 -15 -88 -2 -96 6 -3 13 1 16 9 8 22 31 20 61 -4
l26 -20 -24 -1 c-13 -1 -35 0 -47 1 -13 1 -36 -3 -52 -10 -19 -8 -52 -9 -113
-2 -76 8 -91 14 -123 41 -26 23 -41 30 -57 25 -32 -9 -33 -11 -46 -104 -7 -47
-22 -102 -32 -124 -25 -49 -15 -60 18 -21 39 44 169 121 174 103 0 -2 3 -86 5
-188 3 -102 9 -189 14 -194 19 -20 32 42 33 163 0 127 1 131 50 244 15 33 37
36 37 3 0 -30 37 -113 62 -140 11 -12 37 -59 59 -106 l41 -85 -11 -75 c-6 -41
-13 -88 -17 -104 l-7 -29 54 44 c30 24 81 57 113 73 48 24 62 27 78 17 13 -8
24 -8 38 -1 10 5 38 10 62 11 l43 1 -44 9 c-63 12 -67 18 -53 91 7 35 13 70
13 78 1 27 50 202 85 309 23 70 31 108 25 114 -11 11 -109 -6 -143 -24 -10 -6
-21 -27 -24 -49 -8 -49 -26 -56 -122 -46 -80 8 -142 43 -142 79 0 22 -16 47
-30 47 -4 0 -12 -17 -18 -39z m413 -88 c-18 -54 -36 -107 -41 -117 -7 -19 -8
-19 -15 0 -10 25 -11 176 -1 190 8 12 34 21 69 23 21 1 21 0 -12 -96z m-690
-43 c10 -11 31 -20 47 -20 41 0 31 -18 -28 -51 -62 -35 -76 -36 -69 -6 3 12 7
36 9 52 2 17 4 33 5 38 2 13 17 7 36 -13z m429 -32 c11 -116 16 -318 7 -318
-6 0 -13 5 -16 10 -4 6 -10 8 -15 5 -11 -7 -33 31 -57 100 -17 51 -24 155 -14
207 2 9 64 48 78 48 7 0 14 -22 17 -52z m150 -40 c16 -242 16 -319 0 -325 -17
-6 -93 14 -95 25 -4 22 -11 161 -12 253 -2 123 5 139 63 139 l38 0 6 -92z
m-290 -12 c6 -34 4 -37 -9 -26 -15 13 -20 51 -8 63 9 10 10 7 17 -37z m-154 3
c-7 -11 -14 -18 -17 -15 -8 8 5 36 17 36 7 0 7 -6 0 -21z m310 -343 c0 -34 16
-41 33 -15 12 16 19 19 33 11 15 -8 7 -15 -45 -41 -35 -17 -65 -31 -66 -31 -7
0 8 76 18 88 15 19 27 14 27 -12z"/>
<path d="M915 170 c28 -12 47 -12 40 0 -3 6 -18 10 -33 9 -24 0 -25 -1 -7 -9z"/>
</g>
</svg>
