<?xml version="1.0" standalone="no"?>
<!DOCTYPE svg PUBLIC "-//W3C//DTD SVG 20010904//EN"
 "http://www.w3.org/TR/2001/REC-SVG-20010904/DTD/svg10.dtd">
<svg version="1.0" xmlns="http://www.w3.org/2000/svg"
 width="164.000000pt" height="89.000000pt" viewBox="0 0 164.000000 89.000000"
 preserveAspectRatio="xMidYMid meet">
<metadata>
Created by potrace 1.16, written by Peter Selinger 2001-2019
</metadata>
<g transform="translate(0.000000,89.000000) scale(0.100000,-0.100000)"
fill="#000000" stroke="none">
<path d="M1412 808 c-7 -7 -12 -26 -12 -44 0 -57 -24 -73 -145 -99 -61 -12
-139 -30 -173 -39 -35 -10 -85 -18 -110 -19 l-47 -2 -3 -43 c-4 -54 -16 -59
-134 -54 -85 3 -88 4 -94 29 -4 14 -2 55 5 91 7 35 10 67 7 69 -3 3 -17 2 -31
-1 -26 -7 -26 -7 -19 -84 3 -42 7 -81 8 -87 0 -5 -10 -10 -24 -10 -23 0 -26 5
-34 59 -6 38 -5 70 2 94 13 40 9 52 -18 52 -23 0 -28 -38 -17 -129 9 -72 2
-87 -38 -77 -26 7 -26 8 -24 84 3 80 -3 102 -25 102 -11 0 -12 -15 -9 -64 8
-91 -1 -118 -35 -114 -25 3 -27 7 -29 53 -1 28 3 63 9 78 9 23 8 31 -3 38 -29
18 -34 7 -37 -78 -1 -48 -3 -88 -5 -89 -1 -1 -24 2 -50 8 -37 8 -47 14 -43 26
45 170 44 183 -11 165 l-28 -10 3 -83 c4 -83 4 -83 -20 -76 -98 29 -111 21
-123 -78 -8 -59 -8 -59 16 -52 145 46 153 40 143 -128 -6 -99 -5 -118 7 -114
11 4 15 34 17 138 1 74 6 137 10 141 4 3 24 9 44 12 l38 6 2 -72 c1 -40 1 -92
0 -117 -1 -25 0 -51 3 -60 14 -34 25 19 25 121 0 112 11 144 46 137 17 -3 20
-15 24 -112 3 -75 9 -111 18 -114 9 -3 12 20 12 90 0 122 5 140 39 136 l26 -3
3 -120 c1 -66 5 -127 9 -135 11 -28 21 31 22 135 1 107 8 129 37 123 16 -3 18
-15 17 -136 0 -93 3 -132 11 -129 7 2 13 49 16 123 3 65 9 125 13 132 6 8 38
12 104 12 80 0 98 -3 109 -17 12 -17 14 -17 46 -1 18 9 42 18 53 20 11 2 21
12 23 23 5 28 30 53 80 82 57 34 72 26 72 -38 0 -45 -2 -50 -17 -44 -46 19
-66 18 -84 -6 -10 -13 -19 -37 -19 -53 0 -25 3 -27 23 -21 81 24 88 24 98 -2
11 -30 12 -83 1 -83 -5 0 -32 11 -60 25 -29 14 -55 25 -58 25 -3 0 -24 15 -45
34 -23 19 -47 32 -57 29 -18 -4 -98 -140 -89 -149 3 -3 17 2 32 12 21 14 48
18 119 18 114 0 169 -22 174 -69 4 -36 22 -59 22 -28 0 12 6 23 13 26 13 5
148 -60 159 -77 4 -6 8 -36 8 -66 0 -30 5 -62 10 -70 7 -11 10 4 10 48 0 35 5
73 11 84 8 14 8 23 0 31 -14 14 -14 53 -1 109 5 24 16 81 25 128 20 101 58
218 91 279 28 51 30 67 8 75 -28 11 -140 6 -152 -6z m138 -17 c0 -5 -11 -28
-24 -52 -13 -24 -36 -80 -51 -124 -15 -44 -31 -84 -36 -90 -5 -5 -9 25 -9 74
l0 83 30 11 c34 13 35 34 2 29 -26 -4 -37 17 -28 53 6 23 11 25 61 25 30 0 55
-4 55 -9z m-1269 -128 c-10 -17 -10 -16 -11 3 0 23 13 41 18 25 2 -6 -1 -18
-7 -28z m1106 -60 c-4 -38 -7 -80 -7 -95 0 -27 -2 -28 -56 -28 -30 0 -64 5
-75 10 -18 10 -18 13 -4 39 8 16 26 43 41 60 14 17 27 39 28 48 2 10 14 21 27
24 52 15 52 14 46 -58z m-117 37 c-34 -11 -60 -11 -35 0 11 5 29 8 40 8 16 0
15 -2 -5 -8z m-10 -38 c0 -5 -9 -17 -20 -27 -20 -18 -20 -17 -20 8 0 20 5 27
20 27 11 0 20 -4 20 -8z m-205 -27 c-11 -9 -32 -25 -48 -38 -37 -30 -52 -28
-52 8 0 25 5 31 30 36 17 4 44 7 60 7 29 1 29 1 10 -13z m-812 -72 c13 -8 8
-21 -10 -27 -10 -3 -35 -8 -55 -12 -35 -6 -38 -5 -38 18 0 14 3 28 7 32 7 7
80 -1 96 -11z m1141 -59 c3 -9 6 -56 6 -105 0 -65 -3 -89 -12 -89 -7 1 -40 16
-73 34 -58 32 -60 35 -74 89 -19 82 -15 87 73 87 58 0 75 -3 80 -16z m-393
-34 c28 -16 23 -30 -11 -30 -28 0 -40 17 -23 33 8 9 11 9 34 -3z"/>
</g>
</svg>
