<?xml version="1.0" standalone="no"?>
<!DOCTYPE svg PUBLIC "-//W3C//DTD SVG 20010904//EN"
 "http://www.w3.org/TR/2001/REC-SVG-20010904/DTD/svg10.dtd">
<svg version="1.0" xmlns="http://www.w3.org/2000/svg"
 width="78.000000pt" height="87.000000pt" viewBox="0 0 78.000000 87.000000"
 preserveAspectRatio="xMidYMid meet">
<metadata>
Created by potrace 1.16, written by Peter Selinger 2001-2019
</metadata>
<g transform="translate(0.000000,87.000000) scale(0.100000,-0.100000)"
fill="#000000" stroke="none">
<path d="M639 833 c-13 -21 -50 -66 -83 -101 -33 -35 -65 -74 -71 -87 -12 -29
-164 -195 -210 -231 -29 -22 -36 -24 -54 -12 -40 25 -44 80 -15 216 9 44 -10
41 -40 -7 -14 -21 -47 -62 -75 -91 -28 -29 -51 -58 -51 -65 0 -12 32 -30 113
-64 26 -11 47 -24 47 -29 0 -5 -21 -29 -47 -53 -67 -60 -79 -79 -62 -90 8 -4
19 -34 24 -66 14 -79 35 -78 51 2 13 68 31 120 52 153 16 25 57 30 69 7 5 -8
30 -28 56 -45 29 -18 47 -37 47 -48 0 -21 23 -47 98 -110 64 -53 76 -54 68 -3
-3 24 0 55 8 79 26 72 105 228 126 247 11 10 20 27 20 37 0 15 -3 17 -19 8
-27 -14 -25 -15 -56 32 -26 39 -27 45 -21 117 6 66 37 169 67 224 19 36 -19
17 -42 -20z m-57 -173 c-4 -58 -25 -64 -30 -10 -3 24 2 38 14 47 10 7 18 13
18 13 1 0 -1 -23 -2 -50z m2 -146 c25 -34 46 -70 46 -81 0 -19 -162 -168 -190
-174 -18 -4 -93 47 -135 90 l-29 32 34 33 c19 18 68 67 108 109 69 72 74 76
97 65 12 -7 44 -41 69 -74z m-424 -27 c0 -55 -5 -60 -42 -41 -30 16 -30 23 5
62 29 32 37 28 37 -21z m427 -179 c-8 -18 -27 -59 -40 -90 -14 -32 -29 -58
-32 -58 -13 0 -65 45 -65 56 0 6 15 23 33 37 17 14 50 42 71 61 22 20 41 34
44 32 2 -3 -3 -19 -11 -38z m-418 -35 c0 -5 -6 -24 -13 -43 l-13 -35 -8 34
c-5 24 -3 36 6 42 17 11 29 11 28 2z"/>
</g>
</svg>
