<?xml version="1.0" standalone="no"?>
<!DOCTYPE svg PUBLIC "-//W3C//DTD SVG 20010904//EN"
 "http://www.w3.org/TR/2001/REC-SVG-20010904/DTD/svg10.dtd">
<svg version="1.0" xmlns="http://www.w3.org/2000/svg"
 width="93.000000pt" height="75.000000pt" viewBox="0 0 93.000000 75.000000"
 preserveAspectRatio="xMidYMid meet">
<metadata>
Created by potrace 1.16, written by Peter Selinger 2001-2019
</metadata>
<g transform="translate(0.000000,75.000000) scale(0.100000,-0.100000)"
fill="#000000" stroke="none">
<path d="M199 668 c-12 -24 -27 -52 -33 -64 -23 -42 -65 -84 -85 -84 -25 0
-24 11 -23 -223 1 -97 5 -178 9 -180 4 -1 9 8 11 20 2 13 7 23 11 23 14 0 38
-34 52 -73 16 -45 33 -47 48 -7 6 16 17 45 23 62 23 62 62 108 122 147 34 22
74 43 89 47 43 10 26 28 -34 36 -78 9 -119 24 -150 54 -39 37 -55 21 -64 -63
-4 -37 -9 -72 -12 -80 -10 -26 18 -12 53 27 34 37 40 40 90 40 30 0 54 -4 54
-9 0 -11 -116 -97 -182 -135 -39 -23 -50 -25 -66 -15 -32 20 -31 61 5 170 35
108 40 145 21 151 -6 2 -8 9 -5 15 10 16 84 -17 175 -78 80 -54 82 -55 82 -36
0 7 -22 30 -49 51 -64 51 -88 96 -97 179 -4 37 -10 67 -14 67 -5 0 -18 -19
-31 -42z m26 -84 c8 -44 3 -49 -24 -32 -23 14 -27 38 -9 56 19 19 25 14 33
-24z m-107 -96 c11 -15 -13 -108 -28 -108 -6 0 -10 27 -10 60 0 44 4 60 14 60
7 0 18 -6 24 -12z m116 -135 c-32 -23 -44 -9 -28 32 6 14 8 14 26 -2 18 -16
18 -18 2 -30z m-16 -160 c-2 -5 -12 -25 -21 -46 -19 -40 -40 -45 -45 -10 -2
13 7 29 24 42 26 21 49 28 42 14z"/>
<path d="M636 541 c-32 -32 -78 -68 -102 -80 -24 -12 -44 -26 -44 -31 0 -4 14
-13 30 -19 17 -5 33 -17 36 -25 7 -17 -45 -68 -94 -91 -18 -9 -32 -20 -30 -24
2 -5 32 -32 68 -62 36 -29 71 -61 78 -72 37 -50 57 -67 71 -58 11 7 8 16 -15
47 -16 22 -38 47 -49 57 -26 24 -32 134 -9 163 14 19 15 19 27 0 24 -38 132
-155 135 -146 4 12 -40 80 -72 109 -14 14 -26 32 -26 42 0 10 -5 21 -10 24
-27 17 15 149 59 189 21 19 27 36 13 36 -4 0 -34 -26 -66 -59z m-30 -77 c-3
-9 -6 -22 -6 -30 0 -16 -26 -19 -35 -4 -3 5 0 18 7 30 15 24 43 28 34 4z m-68
-188 c5 -39 -9 -48 -38 -26 -24 18 -24 19 -5 39 24 27 39 22 43 -13z"/>
<path d="M760 471 c-41 -45 -76 -86 -78 -90 -4 -12 187 -201 193 -191 9 14 -7
43 -42 80 -32 33 -34 38 -28 85 4 28 9 70 12 95 3 25 10 50 15 57 5 7 8 20 6
29 -2 13 -23 -4 -78 -65z m25 -48 c-10 -73 -19 -83 -49 -53 l-25 25 37 42 c20
23 38 40 40 38 2 -2 1 -26 -3 -52z"/>
</g>
</svg>
