<?xml version="1.0" standalone="no"?>
<!DOCTYPE svg PUBLIC "-//W3C//DTD SVG 20010904//EN"
 "http://www.w3.org/TR/2001/REC-SVG-20010904/DTD/svg10.dtd">
<svg version="1.0" xmlns="http://www.w3.org/2000/svg"
 width="183.000000pt" height="95.000000pt" viewBox="0 0 183.000000 95.000000"
 preserveAspectRatio="xMidYMid meet">
<metadata>
Created by potrace 1.16, written by Peter Selinger 2001-2019
</metadata>
<g transform="translate(0.000000,95.000000) scale(0.100000,-0.100000)"
fill="#000000" stroke="none">
<path d="M905 890 c-3 -5 -4 -14 0 -19 3 -5 1 -20 -4 -33 -5 -13 -12 -36 -16
-52 l-6 -30 -20 30 c-10 16 -19 38 -19 48 0 19 -1 19 -20 -2 -25 -26 -25 -37
-2 -54 41 -29 45 -54 17 -109 -35 -67 -29 -99 7 -44 69 102 113 160 144 187
19 17 34 35 34 42 0 11 -74 46 -97 46 -7 0 -15 -4 -18 -10z m70 -49 c3 -5 -8
-19 -25 -31 -31 -22 -38 -14 -20 21 11 20 35 25 45 10z"/>
<path d="M495 809 l-50 -51 85 -79 c69 -64 82 -81 70 -89 -32 -21 -52 -8 -100
65 -19 28 -40 54 -47 58 -16 10 -17 69 -1 85 6 6 9 14 5 18 -9 9 -77 -46 -77
-63 0 -16 89 -125 128 -156 23 -19 30 -47 12 -47 -6 0 -42 -23 -80 -51 -63
-46 -69 -53 -64 -77 15 -63 40 -61 71 6 23 48 69 91 132 125 35 19 60 26 74
21 19 -5 104 -80 217 -189 14 -14 31 -25 38 -25 7 0 12 -1 12 -3 0 -13 -105
-239 -125 -269 l-25 -38 23 0 c18 0 29 12 50 55 15 30 33 55 41 55 8 0 43 29
79 64 35 35 83 76 105 91 23 15 42 35 42 44 0 9 -23 31 -50 50 -28 19 -47 38
-43 44 5 8 8 7 11 -1 5 -17 22 -15 67 8 50 25 148 45 295 60 63 6 138 15 165
20 28 6 84 13 125 16 73 7 110 17 110 32 0 21 -141 68 -365 122 -131 32 -220
67 -242 97 -12 15 -14 15 -33 -2 -11 -10 -20 -22 -20 -27 0 -5 -9 -28 -20 -50
-32 -66 -29 -68 58 -46 63 15 86 17 127 8 84 -18 197 -41 270 -55 79 -16 157
-36 153 -40 -5 -5 -229 -33 -358 -45 -69 -7 -175 -10 -237 -7 l-111 6 -22 -59
c-12 -32 -32 -73 -45 -90 l-23 -32 -17 25 c-16 25 -15 27 25 86 40 58 133 151
151 151 22 0 5 19 -32 36 -41 18 -42 18 -56 -1 -8 -11 -37 -66 -65 -122 -28
-57 -54 -103 -58 -103 -3 0 -13 11 -20 25 -12 23 -11 30 5 58 28 49 95 137
139 185 37 41 38 43 20 57 -32 25 -48 13 -94 -76 -60 -115 -103 -180 -115
-176 -5 2 -13 21 -17 43 -12 72 -20 109 -24 113 -2 3 -19 -9 -37 -26 -17 -17
-38 -32 -46 -35 -7 -2 -37 21 -66 52 -41 43 -55 65 -61 100 -9 51 -9 47 1 78
10 33 -5 26 -60 -29z m15 -35 c0 -8 -4 -12 -10 -9 -5 3 -10 10 -10 16 0 5 5 9
10 9 6 0 10 -7 10 -16z m683 -28 c20 -15 16 -20 -25 -30 -31 -7 -33 -4 -16 24
15 23 17 24 41 6z m-169 -129 c-2 -7 -13 -18 -24 -25 -18 -11 -19 -10 -8 13
11 25 42 36 32 12z m-282 -22 c4 -20 3 -23 -8 -14 -16 13 -19 39 -5 39 5 0 11
-11 13 -25z m378 -94 c0 -11 -39 -25 -47 -18 -3 3 -2 10 2 16 8 13 45 15 45 2z
m-680 -40 c0 -5 -7 -14 -15 -21 -12 -10 -15 -10 -15 2 0 8 3 18 7 21 9 10 23
9 23 -2z m571 -84 c49 -25 49 -26 1 -71 -26 -24 -57 -47 -70 -51 -21 -6 -22
-4 -16 22 4 15 13 35 20 44 8 8 14 22 14 30 0 12 18 39 26 39 1 0 12 -6 25
-13z"/>
<path d="M298 776 c-21 -18 -38 -41 -38 -50 0 -10 4 -15 9 -12 15 10 141 -102
141 -125 0 -18 -30 -9 -58 18 -16 16 -51 48 -78 73 -49 45 -56 67 -31 98 5 7
7 15 4 18 -3 3 -24 -13 -48 -37 l-42 -42 24 -19 c13 -10 36 -26 52 -35 31 -20
33 -26 12 -43 -12 -10 -23 -5 -60 25 -49 41 -52 49 -31 100 8 19 11 37 6 40
-13 8 -130 -73 -130 -90 0 -9 24 -26 55 -40 71 -31 91 -50 75 -70 -7 -8 -26
-15 -42 -15 -34 0 -44 -18 -31 -57 13 -37 28 -39 43 -4 15 36 54 64 79 56 10
-3 28 -16 41 -30 l23 -25 -37 -15 c-32 -14 -36 -18 -30 -43 9 -36 13 -42 29
-42 7 0 16 13 20 29 4 21 15 33 36 40 16 5 29 15 29 22 0 18 32 38 63 39 17 0
27 5 27 15 0 17 25 20 35 5 3 -5 11 -10 16 -10 18 0 -2 44 -32 73 -16 15 -29
31 -29 35 0 4 -16 24 -35 46 -30 33 -35 43 -29 72 3 19 5 34 3 34 -2 -1 -21
-16 -41 -34z m-185 -77 c-4 -4 -15 -4 -23 2 -13 8 -12 12 5 25 18 14 20 13 23
-2 2 -9 0 -20 -5 -25z m205 -110 c38 -34 38 -35 2 -44 -19 -4 -32 1 -52 20
-31 28 -35 41 -15 48 23 10 32 6 65 -24z"/>
<path d="M825 10 c-3 -5 3 -10 14 -10 12 0 21 5 21 10 0 6 -6 10 -14 10 -8 0
-18 -4 -21 -10z"/>
</g>
</svg>
