<?xml version="1.0" standalone="no"?>
<!DOCTYPE svg PUBLIC "-//W3C//DTD SVG 20010904//EN"
 "http://www.w3.org/TR/2001/REC-SVG-20010904/DTD/svg10.dtd">
<svg version="1.0" xmlns="http://www.w3.org/2000/svg"
 width="139.000000pt" height="83.000000pt" viewBox="0 0 139.000000 83.000000"
 preserveAspectRatio="xMidYMid meet">
<metadata>
Created by potrace 1.16, written by Peter Selinger 2001-2019
</metadata>
<g transform="translate(0.000000,83.000000) scale(0.100000,-0.100000)"
fill="#000000" stroke="none">
<path d="M292 777 c-5 -7 -12 -21 -16 -32 -4 -11 -19 -36 -35 -55 -25 -29 -34
-34 -68 -32 -22 2 -52 -2 -67 -7 l-26 -11 4 -200 c5 -196 4 -201 -15 -195 -25
8 -25 -13 0 -68 10 -23 22 -57 26 -75 9 -42 18 -41 34 4 12 33 105 134 122
134 4 0 20 11 36 24 43 36 111 70 188 96 39 13 82 29 97 36 14 8 36 14 48 14
21 0 21 -3 20 -127 -3 -217 -1 -248 11 -236 6 6 13 56 16 112 3 55 11 105 17
110 6 5 43 17 81 27 56 14 107 18 250 17 99 -1 190 -2 203 -2 21 -1 22 -4 22
-106 0 -63 4 -105 10 -105 10 0 14 18 12 50 -2 32 18 259 29 319 5 36 21 90
35 122 36 86 34 89 -36 89 -33 0 -60 -1 -61 -2 0 -2 -3 -25 -6 -53 -3 -27 -7
-52 -9 -54 -2 -2 -44 -4 -93 -3 -94 0 -284 41 -330 70 -19 13 -22 22 -18 48 3
18 16 47 28 63 30 41 20 47 -33 19 -23 -12 -63 -27 -88 -33 -39 -9 -45 -14
-43 -35 5 -50 2 -214 -3 -219 -3 -3 -63 24 -132 60 l-127 66 -21 59 c-12 32
-20 62 -17 67 7 12 -7 45 -22 50 -7 3 -18 0 -23 -6z m22 -102 l15 -47 -36 5
c-55 9 -60 21 -29 62 16 20 30 35 32 32 2 -2 10 -25 18 -52z m406 -74 c-16
-57 -32 -106 -34 -109 -11 -10 -17 47 -14 128 l3 85 35 11 c26 9 36 9 38 0 1
-6 -11 -58 -28 -115z m595 49 c9 -15 -22 -80 -39 -80 -20 0 -29 32 -17 64 10
26 44 36 56 16z m-1146 -29 c12 -8 11 -25 -8 -113 -13 -56 -24 -108 -25 -115
-1 -7 -5 -16 -9 -19 -9 -9 -9 218 -1 240 7 18 22 20 43 7z m123 -32 c46 -10
89 -27 148 -60 54 -30 139 -69 163 -74 28 -7 38 -25 12 -25 -8 0 -29 -7 -47
-14 -18 -8 -62 -26 -99 -40 -36 -14 -92 -38 -125 -55 -54 -27 -176 -71 -196
-71 -15 0 -8 48 27 187 20 76 38 144 40 151 5 15 10 15 77 1z m531 -5 c49 -8
30 -24 -30 -24 -37 0 -43 3 -43 21 0 15 5 19 18 15 9 -3 34 -8 55 -12z m163
-37 c6 -3 62 -8 123 -10 61 -2 113 -6 116 -8 8 -8 21 -169 14 -180 -4 -8 -48
-9 -145 -4 -77 4 -164 8 -194 10 -61 2 -158 23 -178 39 -9 6 -12 24 -9 55 8
73 12 78 74 86 31 4 65 10 76 14 25 9 108 8 123 -2z m-217 -211 l23 -13 -32
-7 c-32 -6 -60 6 -60 25 0 13 42 10 69 -5z m-591 -133 c-29 -29 -40 -35 -49
-26 -14 14 3 40 36 53 44 19 49 9 13 -27z"/>
</g>
</svg>
