<?xml version="1.0" standalone="no"?>
<!DOCTYPE svg PUBLIC "-//W3C//DTD SVG 20010904//EN"
 "http://www.w3.org/TR/2001/REC-SVG-20010904/DTD/svg10.dtd">
<svg version="1.0" xmlns="http://www.w3.org/2000/svg"
 width="144.000000pt" height="93.000000pt" viewBox="0 0 144.000000 93.000000"
 preserveAspectRatio="xMidYMid meet">
<metadata>
Created by potrace 1.16, written by Peter Selinger 2001-2019
</metadata>
<g transform="translate(0.000000,93.000000) scale(0.100000,-0.100000)"
fill="#000000" stroke="none">
<path d="M1221 841 c-8 -5 -11 -16 -6 -30 8 -25 -3 -30 -127 -61 -119 -31
-214 -36 -262 -16 -52 22 -54 21 -71 -20 -14 -33 -16 -35 -52 -29 -63 11 -136
37 -173 62 -19 12 -38 23 -42 23 -14 0 -8 -37 7 -50 22 -18 18 -32 -7 -28 -19
2 -23 9 -21 36 2 44 -27 40 -40 -5 -7 -21 -17 -33 -31 -35 -20 -3 -21 -8 -18
-113 4 -168 12 -247 26 -242 6 2 13 12 14 23 4 21 29 44 48 44 7 0 14 -10 16
-22 4 -32 33 -30 33 2 0 43 34 51 185 44 130 -6 137 -7 193 -40 32 -19 60 -34
62 -34 3 0 35 -20 72 -43 37 -24 75 -47 83 -51 8 -3 42 -26 75 -49 53 -39 61
-48 66 -85 3 -23 9 -45 13 -49 19 -19 26 31 21 150 -4 76 -2 134 4 140 5 7 6
41 2 81 -10 93 -1 149 43 288 16 48 26 94 23 102 -5 12 -21 16 -64 16 -32 0
-64 -4 -72 -9z m94 -53 c-23 -108 -61 -126 -49 -25 6 52 9 57 31 57 22 0 24
-3 18 -32z m-94 -30 c0 -2 2 -22 5 -45 7 -51 -2 -58 -138 -104 l-97 -32 -41
18 c-55 25 -63 37 -49 69 9 18 22 27 48 32 76 12 177 38 201 50 21 11 69 19
71 12z m-361 -76 c0 -5 -18 -18 -40 -31 -45 -25 -54 -13 -14 18 27 21 54 28
54 13z m-378 -47 c2 -19 1 -56 -2 -82 -5 -44 -7 -48 -30 -44 -14 1 -28 8 -31
13 -14 22 29 148 50 148 5 0 11 -16 13 -35z m246 13 c6 -6 12 -23 12 -39 0
-35 3 -36 44 -4 34 26 56 32 56 16 0 -6 18 -20 40 -32 39 -22 44 -39 11 -39
-21 0 -58 -37 -47 -47 4 -4 35 0 69 10 52 14 64 14 77 2 8 -7 42 -26 75 -42
62 -30 141 -78 161 -97 6 -6 14 -46 18 -89 l7 -78 -30 15 c-16 9 -32 20 -36
26 -3 5 -32 26 -63 47 -31 20 -59 40 -62 43 -7 8 -41 28 -70 43 -14 6 -29 15
-35 20 -53 41 -161 107 -176 107 -10 0 -26 -11 -35 -25 -15 -23 -23 -25 -83
-25 -36 0 -83 5 -103 11 -37 10 -38 11 -38 57 0 55 17 124 34 135 15 10 157
-3 174 -15z m503 -50 c5 -125 4 -138 -14 -144 -10 -3 -44 9 -81 30 -101 56
-109 79 -33 91 23 4 53 13 67 21 32 17 60 18 61 2z m-777 -134 c22 -9 20 -31
-4 -44 -17 -9 -22 -7 -30 15 -6 15 -10 28 -10 31 0 6 26 5 44 -2z"/>
<path d="M245 727 c-33 -23 -73 -49 -90 -57 -65 -32 -114 -64 -119 -77 -8 -19
14 -62 34 -68 10 -3 67 -55 128 -115 62 -61 116 -110 122 -110 28 0 -13 80
-61 120 -50 41 -18 226 57 328 26 36 -3 27 -71 -21z m-24 -80 c-11 -25 -23
-66 -26 -91 -4 -25 -12 -46 -18 -46 -15 0 -87 71 -87 85 0 15 139 110 148 101
1 -2 -6 -24 -17 -49z"/>
<path d="M248 3 c7 -3 16 -2 19 1 4 3 -2 6 -13 5 -11 0 -14 -3 -6 -6z"/>
</g>
</svg>
