<?xml version="1.0" standalone="no"?>
<!DOCTYPE svg PUBLIC "-//W3C//DTD SVG 20010904//EN"
 "http://www.w3.org/TR/2001/REC-SVG-20010904/DTD/svg10.dtd">
<svg version="1.0" xmlns="http://www.w3.org/2000/svg"
 width="102.000000pt" height="90.000000pt" viewBox="0 0 102.000000 90.000000"
 preserveAspectRatio="xMidYMid meet">
<metadata>
Created by potrace 1.16, written by Peter Selinger 2001-2019
</metadata>
<g transform="translate(0.000000,90.000000) scale(0.100000,-0.100000)"
fill="#000000" stroke="none">
<path d="M455 838 c-2 -7 -6 -31 -9 -53 -3 -22 -5 -41 -6 -42 0 -2 -7 -3 -15
-3 -9 0 -46 -25 -83 -55 -37 -31 -89 -67 -117 -80 -86 -43 -130 -71 -133 -87
-2 -8 22 -38 53 -66 65 -59 110 -117 149 -189 28 -51 30 -75 10 -127 -6 -17
-4 -18 17 -12 13 4 36 7 51 7 15 -1 31 5 35 13 18 31 96 56 188 60 50 1 95 4
100 6 33 9 44 -1 50 -47 4 -27 9 -55 11 -63 9 -27 24 11 24 61 0 25 5 50 12
57 8 8 8 15 -2 27 -26 31 15 211 85 370 46 104 56 143 35 130 -6 -3 -51 -10
-101 -16 -134 -13 -195 5 -297 93 -36 31 -50 35 -57 16z m75 -89 c32 -20 33
-23 15 -30 -40 -15 -62 -10 -67 16 -8 41 2 44 52 14z m196 -59 c22 0 24 -4 24
-54 l0 -54 -37 -7 c-27 -4 -60 1 -116 20 -43 14 -83 25 -90 25 -15 0 -47 -61
-47 -90 0 -24 23 -26 71 -6 41 16 159 29 194 20 19 -5 25 -13 25 -34 0 -52 -8
-60 -59 -60 -57 0 -164 20 -172 32 -3 5 -19 10 -35 11 -24 2 -30 -2 -32 -23
-2 -14 -8 -29 -14 -35 -6 -7 -8 16 -3 70 9 115 14 141 30 155 26 21 118 39
179 34 32 -2 70 -4 82 -4z m134 -31 c0 -11 -13 -51 -29 -87 -16 -37 -31 -74
-34 -82 -3 -8 -6 -1 -6 16 -1 16 4 35 10 41 8 8 8 17 -1 33 -7 13 -9 37 -5 61
6 35 10 39 36 39 23 0 29 -4 29 -21z m-459 -6 c2 -63 -3 -297 -8 -309 -3 -8
-10 -14 -15 -14 -5 0 -18 -10 -27 -21 -17 -22 -17 -22 -44 24 -17 28 -27 60
-27 85 0 78 77 252 112 252 4 0 8 -8 9 -17z m-106 -60 c-4 -10 -19 -47 -32
-83 -13 -36 -26 -66 -28 -68 -7 -7 -75 67 -75 82 0 8 28 30 63 49 71 41 82 44
72 20z m255 -23 c0 -4 -9 -10 -20 -13 -19 -5 -28 12 -14 26 8 7 34 -3 34 -13z
m190 -157 c11 -10 0 -157 -12 -165 -24 -17 -202 -2 -252 21 l-47 20 3 47 3 47
79 21 c56 16 98 20 150 18 39 -2 73 -6 76 -9z m-340 -189 c0 -13 -4 -24 -8
-24 -11 0 -33 46 -25 53 12 12 33 -7 33 -29z"/>
</g>
</svg>
