<?xml version="1.0" standalone="no"?>
<!DOCTYPE svg PUBLIC "-//W3C//DTD SVG 20010904//EN"
 "http://www.w3.org/TR/2001/REC-SVG-20010904/DTD/svg10.dtd">
<svg version="1.0" xmlns="http://www.w3.org/2000/svg"
 width="149.000000pt" height="85.000000pt" viewBox="0 0 149.000000 85.000000"
 preserveAspectRatio="xMidYMid meet">
<metadata>
Created by potrace 1.16, written by Peter Selinger 2001-2019
</metadata>
<g transform="translate(0.000000,85.000000) scale(0.100000,-0.100000)"
fill="#000000" stroke="none">
<path d="M445 823 c-41 -6 -55 -20 -55 -54 0 -29 -1 -30 -70 -42 -14 -3 -52
-15 -85 -27 -43 -16 -73 -21 -106 -17 -57 7 -69 -4 -69 -60 0 -49 15 -56 46
-22 10 12 32 28 48 36 24 12 30 13 37 1 13 -20 11 -24 -16 -36 -15 -7 -25 -20
-25 -32 0 -17 5 -20 28 -18 17 2 27 -2 26 -9 -1 -7 -2 -24 -2 -38 l-2 -25 -52
21 c-69 27 -88 23 -105 -25 -7 -22 -11 -41 -9 -44 3 -2 41 0 86 5 66 7 83 7
87 -4 3 -8 13 -11 23 -8 30 9 50 -5 50 -36 0 -36 17 -38 26 -4 5 21 11 24 28
19 72 -23 74 -25 78 -127 3 -64 22 -79 25 -20 1 21 4 59 7 84 2 26 1 50 -4 55
-11 11 -1 84 10 84 5 0 6 -9 3 -19 -5 -18 -2 -19 28 -11 19 5 98 6 179 2 l145
-7 3 -80 c2 -93 8 -125 23 -125 6 0 10 21 9 53 -1 28 -1 67 -1 86 l1 34 63 -6
c36 -3 93 -19 137 -38 41 -17 97 -40 123 -50 94 -35 97 -39 97 -128 0 -44 3
-86 6 -95 13 -34 23 -13 27 57 3 39 7 104 10 144 9 119 88 405 128 464 10 14
17 28 15 30 -3 2 -45 3 -95 1 l-91 -3 0 -29 c0 -33 -3 -36 -50 -44 -19 -3 -73
-14 -120 -25 -119 -28 -375 -44 -450 -28 -19 4 -63 10 -98 14 l-63 6 7 73 c4
42 3 73 -2 73 -5 -1 -22 -4 -39 -6z m11 -75 c-4 -29 -10 -69 -13 -88 l-7 -35
-7 30 c-9 40 -11 130 -2 138 3 4 13 7 21 7 12 0 13 -10 8 -52z m954 13 c0 -6
-4 -12 -9 -16 -9 -5 -66 -173 -93 -275 -12 -45 -12 -44 -20 70 -7 106 -4 202
8 222 7 11 114 10 114 -1z m-1058 -78 c6 -56 -3 -93 -23 -93 -16 0 -19 8 -19
53 0 30 3 57 7 60 15 15 32 5 35 -20z m38 -39 c0 -36 -4 -63 -9 -60 -11 7 -11
126 1 126 4 0 8 -30 8 -66z m860 -130 c0 -103 -2 -189 -4 -192 -7 -7 -319 149
-358 179 -35 28 -36 31 -25 64 6 19 17 35 24 35 8 0 38 11 67 24 60 27 283 88
294 80 2 -1 3 -86 2 -190z m-964 122 c2 -45 1 -47 -24 -44 -41 5 -52 81 -13
91 30 8 36 1 37 -47z m-157 11 c-2 -1 -12 -9 -21 -16 -15 -12 -18 -11 -18 3 0
10 8 16 22 16 12 0 19 -1 17 -3z m792 -7 c6 0 7 -4 4 -10 -10 -16 -45 -12 -45
6 0 11 5 14 16 10 9 -3 20 -6 25 -6z m-128 -20 c4 -4 11 -39 14 -78 l6 -72
-52 0 c-120 0 -311 34 -311 55 0 2 5 27 11 54 l10 50 72 3 c98 4 240 -3 250
-12z m57 -5 c0 -8 -4 -15 -10 -15 -5 0 -10 7 -10 15 0 8 5 15 10 15 6 0 10 -7
10 -15z m-586 -51 c12 -4 16 -20 16 -56 0 -42 -3 -49 -16 -44 -9 3 -20 6 -25
6 -10 0 -13 83 -2 93 8 8 8 8 27 1z m81 -73 c-5 -34 -12 -51 -21 -51 -19 0
-20 106 -1 113 22 8 29 -11 22 -62z m47 57 c10 -27 9 -138 -1 -138 -18 0 -42
32 -36 48 3 9 9 35 12 59 6 42 16 55 25 31z m-282 -84 c0 -2 -9 -4 -21 -4 -11
0 -18 4 -14 10 5 8 35 3 35 -6z"/>
</g>
</svg>
