<?xml version="1.0" standalone="no"?>
<!DOCTYPE svg PUBLIC "-//W3C//DTD SVG 20010904//EN"
 "http://www.w3.org/TR/2001/REC-SVG-20010904/DTD/svg10.dtd">
<svg version="1.0" xmlns="http://www.w3.org/2000/svg"
 width="145.000000pt" height="100.000000pt" viewBox="0 0 145.000000 100.000000"
 preserveAspectRatio="xMidYMid meet">
<metadata>
Created by potrace 1.16, written by Peter Selinger 2001-2019
</metadata>
<g transform="translate(0.000000,100.000000) scale(0.100000,-0.100000)"
fill="#000000" stroke="none">
<path d="M1029 953 c-24 -26 -61 -48 -184 -110 -50 -25 -63 -41 -41 -48 53
-17 51 -16 36 -25 -8 -6 -31 -10 -51 -10 -20 0 -49 -7 -65 -15 -16 -8 -45 -15
-64 -15 -62 -2 -249 24 -327 46 -9 2 -9 15 3 54 8 28 12 55 9 60 -3 6 -26 10
-50 10 -48 0 -69 -21 -63 -63 5 -35 -52 -36 -97 -1 -31 23 -38 25 -50 13 -7
-8 -17 -31 -20 -51 -8 -44 -1 -46 64 -23 58 20 101 10 101 -23 0 -23 -2 -24
-42 -18 -23 4 -48 12 -55 18 -19 15 -43 -8 -43 -43 0 -26 2 -27 37 -22 21 3
43 9 49 14 5 4 20 6 32 2 16 -4 22 -13 22 -32 0 -39 -7 -42 -54 -21 -33 14
-45 15 -58 6 -35 -26 -25 -38 35 -42 71 -4 77 -8 77 -45 0 -34 -22 -38 -68
-12 -35 20 -56 13 -76 -25 -20 -40 -36 -112 -25 -112 5 0 19 12 32 26 41 48
121 72 133 41 2 -7 1 -46 -4 -85 -8 -66 -2 -105 13 -90 3 3 10 37 16 74 16
122 17 123 57 133 20 5 100 8 177 8 l140 -2 3 -143 c2 -108 6 -142 15 -139 7
2 16 41 22 103 6 54 13 104 17 111 12 17 122 27 149 12 l23 -12 -38 -32 c-31
-26 -37 -36 -31 -54 4 -13 12 -20 20 -17 8 3 32 -16 59 -47 38 -44 46 -49 52
-34 4 10 -1 35 -11 57 -17 37 -17 41 -1 65 16 24 45 33 60 18 4 -4 -8 -20 -26
-35 l-33 -27 37 -31 c20 -16 46 -46 58 -65 12 -19 26 -35 31 -35 23 0 18 31
-10 71 -34 46 -38 70 -16 89 18 15 119 -14 148 -43 20 -20 18 -74 -9 -195 -14
-60 -12 -82 5 -82 4 0 20 51 35 112 15 62 34 120 41 128 7 8 30 51 50 95 21
44 57 111 82 149 47 72 46 84 -4 87 -13 1 -27 3 -33 4 -5 1 -17 3 -25 4 -26 2
-15 60 30 156 13 28 26 59 28 70 3 11 8 28 12 37 7 17 0 18 -75 13 -46 -3 -86
-7 -89 -10 -3 -3 -4 -21 -3 -39 2 -21 -3 -36 -11 -39 -23 -9 -111 -21 -127
-18 -31 6 -52 63 -32 87 5 5 19 26 31 47 27 45 9 51 -30 10z m291 -71 c0 -15
-24 -32 -47 -32 -22 0 -31 19 -16 33 9 10 63 9 63 -1z m-1014 -15 c6 -17 -12
-67 -26 -67 -12 0 -24 45 -16 65 7 19 35 20 42 2z m684 -67 c0 -24 -59 -36
-78 -16 -13 12 -12 18 8 46 l22 31 24 -22 c13 -12 24 -30 24 -39z m290 0 c0
-11 -4 -20 -10 -20 -5 0 -10 9 -10 20 0 11 5 20 10 20 6 0 10 -9 10 -20z m-64
-29 c4 -14 13 -39 21 -55 13 -25 13 -32 0 -60 -8 -17 -24 -85 -35 -150 -21
-119 -31 -141 -61 -126 -9 4 -29 14 -46 21 -41 19 -47 30 -28 51 15 17 15 18
-5 18 -12 0 -22 -4 -22 -9 0 -16 -49 -22 -70 -9 -29 18 -25 30 20 69 22 19 40
37 40 42 0 17 -25 5 -67 -32 l-44 -40 -42 18 c-23 10 -60 30 -81 45 -43 29
-56 32 -74 14 -23 -23 -36 5 -22 47 9 28 21 40 49 51 20 8 44 19 53 24 34 19
108 31 128 20 15 -8 20 -6 24 8 4 10 22 24 42 31 34 12 37 11 65 -15 33 -32
48 -26 30 12 -6 15 -10 29 -7 31 9 9 101 30 114 25 7 -2 15 -16 18 -31z
m-1106 19 c0 -5 -2 -10 -4 -10 -3 0 -8 5 -11 10 -3 6 -1 10 4 10 6 0 11 -4 11
-10z m167 -42 c-3 -8 -6 -5 -6 6 -1 11 2 17 5 13 3 -3 4 -12 1 -19z m563 -19
c0 -12 -44 -29 -73 -29 l-22 1 21 17 c22 18 74 26 74 11z m-249 -37 c19 -19
35 -127 21 -136 -14 -8 -188 19 -245 39 -26 9 -57 13 -67 10 -23 -7 -25 2 -9
55 7 21 21 42 33 48 12 5 72 8 136 6 92 -3 118 -8 131 -22z m71 -49 c-5 -27
-5 -27 -14 -4 -8 24 -2 45 11 36 5 -2 6 -17 3 -32z m687 -49 c2 -2 -12 -30
-32 -61 -19 -32 -47 -85 -61 -117 -15 -33 -29 -57 -32 -54 -9 10 35 231 48
240 12 7 67 1 77 -8z m-1047 -46 c-16 -16 -37 4 -28 28 6 16 8 16 23 1 13 -13
15 -19 5 -29z m-167 -39 c0 -7 -8 -15 -17 -17 -18 -3 -25 18 -11 32 10 10 28
1 28 -15z m615 11 c12 -8 9 -10 -13 -10 -16 0 -26 4 -22 10 8 12 16 12 35 0z
m135 -110 c-5 -17 -10 -19 -21 -9 -19 15 -18 27 4 31 23 6 25 3 17 -22z"/>
</g>
</svg>
