<?xml version="1.0" standalone="no"?>
<!DOCTYPE svg PUBLIC "-//W3C//DTD SVG 20010904//EN"
 "http://www.w3.org/TR/2001/REC-SVG-20010904/DTD/svg10.dtd">
<svg version="1.0" xmlns="http://www.w3.org/2000/svg"
 width="161.000000pt" height="109.000000pt" viewBox="0 0 161.000000 109.000000"
 preserveAspectRatio="xMidYMid meet">
<metadata>
Created by potrace 1.16, written by Peter Selinger 2001-2019
</metadata>
<g transform="translate(0.000000,109.000000) scale(0.100000,-0.100000)"
fill="#000000" stroke="none">
<path d="M719 952 c-40 -66 -60 -83 -91 -77 -28 6 -28 6 -28 -41 l0 -47 -90 6
c-122 8 -177 38 -203 111 -1 5 -13 6 -24 2 -15 -5 -27 -23 -38 -56 -16 -48
-29 -60 -66 -60 -21 0 -21 -17 -3 -166 l5 -41 -43 1 -43 1 -6 -72 c-5 -48 -14
-84 -29 -108 -12 -20 -20 -38 -17 -41 3 -3 34 18 69 46 60 49 63 50 68 28 9
-36 34 -28 40 12 4 29 10 35 38 41 35 7 35 7 36 -55 1 -60 24 -57 32 4 12 91
59 78 55 -15 -1 -30 2 -55 7 -55 11 0 36 89 28 98 -11 10 17 32 41 32 25 0 25
-1 21 -65 -3 -46 0 -65 8 -65 15 0 24 23 24 65 0 41 14 53 68 53 l43 1 -7 -87
c-5 -76 -9 -90 -31 -108 l-24 -21 20 -57 c11 -31 25 -81 31 -111 6 -30 14 -55
18 -55 18 1 34 21 66 85 19 39 50 87 70 109 20 21 36 44 36 51 0 6 12 18 28
26 15 8 36 22 47 32 29 27 55 40 55 27 0 -5 9 -10 21 -10 15 0 19 5 14 19 -7
23 101 139 155 166 19 10 46 27 61 37 24 18 59 16 59 -4 0 -5 26 -39 58 -76
32 -37 64 -82 71 -100 7 -17 20 -32 27 -32 9 0 14 -12 14 -32 1 -36 24 -86 33
-71 3 5 4 43 2 84 -2 44 2 100 11 139 17 74 73 235 103 297 12 23 21 47 21 52
0 6 -32 10 -74 10 l-74 0 -4 -62 c-2 -34 -5 -124 -7 -200 -1 -76 -4 -144 -8
-152 -7 -19 -23 -20 -23 -2 0 8 -14 34 -32 58 -29 40 -32 50 -30 114 3 87 9
120 33 168 l19 37 -25 0 c-14 0 -25 -4 -25 -9 0 -12 -110 -81 -128 -81 -28 0
-315 140 -338 165 -12 14 -26 25 -29 25 -4 0 -17 13 -31 29 -37 45 -60 45 -85
3z m49 -34 c18 -18 15 -25 -13 -30 -30 -6 -42 7 -25 27 15 18 22 19 38 3z m47
-78 c22 -11 49 -20 62 -20 46 0 36 -48 -17 -75 -29 -15 -30 -15 -30 8 0 31 -9
38 -30 27 -16 -9 -18 -27 -16 -182 1 -124 5 -173 14 -176 12 -4 13 0 16 53 0
18 7 31 16 32 20 4 112 -55 105 -67 -3 -4 -41 -30 -86 -56 -44 -26 -82 -51
-85 -56 -16 -25 -19 12 -19 205 0 186 2 216 18 245 21 39 21 40 -21 48 -24 5
-33 2 -38 -10 -3 -9 -2 -100 3 -203 4 -104 7 -217 5 -253 -3 -62 -5 -67 -33
-79 -17 -7 -32 -11 -35 -9 -2 3 0 50 4 106 5 56 5 149 0 209 -4 59 -5 121 -2
137 8 39 45 119 58 128 20 14 71 8 111 -12z m-475 -41 c0 -4 -12 -10 -27 -14
-31 -7 -54 14 -46 44 5 18 6 18 38 -3 19 -11 34 -24 35 -27z m1191 26 c7 -7
-54 -135 -64 -135 -5 0 -6 7 -3 16 3 9 6 40 6 70 0 53 1 54 28 54 16 0 31 -2
33 -5z m-561 -46 c0 -5 -7 -9 -15 -9 -8 0 -15 7 -15 15 0 9 6 12 15 9 8 -4 15
-10 15 -15z m-387 -26 c16 -4 18 -15 17 -76 -1 -40 2 -94 6 -121 l7 -49 -33 6
c-18 4 -41 7 -51 7 -16 0 -19 8 -19 43 0 23 5 60 11 82 19 72 17 80 -16 80
l-30 0 0 -85 c0 -93 -6 -110 -37 -110 -19 0 -20 4 -16 70 3 40 12 80 22 94 20
31 20 36 2 36 -7 0 -19 7 -26 15 -22 27 -30 2 -35 -100 -2 -54 -7 -101 -12
-106 -4 -4 -17 -1 -27 6 -16 12 -18 23 -14 72 3 32 16 80 29 106 l24 49 90 -7
c49 -3 98 -9 108 -12z m510 -11 c46 -18 98 -75 82 -91 -11 -10 -184 -6 -196 6
-14 14 29 103 50 103 9 0 38 -8 64 -18z m-878 -2 c3 -5 1 -10 -4 -10 -6 0 -11
5 -11 10 0 6 2 10 4 10 3 0 8 -4 11 -10z m77 -91 c3 -109 0 -117 -45 -100 -33
13 -36 51 -11 127 36 106 52 98 56 -27z m48 82 c0 -6 -4 -13 -10 -16 -5 -3
-10 1 -10 9 0 9 5 16 10 16 6 0 10 -4 10 -9z m598 -39 c3 -42 -10 -55 -26 -26
-11 20 -3 76 12 71 6 -2 12 -22 14 -45z m358 11 c-3 -21 -6 -51 -6 -66 0 -16
-4 -26 -10 -22 -5 3 -10 15 -10 26 0 11 -7 22 -15 25 -22 9 -18 39 8 57 34 24
40 20 33 -20z m-423 -48 c16 -23 17 -27 2 -55 -33 -64 -82 -17 -56 53 13 33
31 34 54 2z m277 -49 c0 -8 -14 -17 -30 -21 -17 -4 -48 -24 -70 -46 -22 -22
-40 -36 -40 -32 0 4 -5 2 -12 -5 -21 -21 -25 -14 -24 35 l1 46 80 18 c44 9 83
17 88 18 4 0 7 -5 7 -13z m-212 -59 c3 -38 -5 -46 -26 -25 -13 13 -16 51 -5
62 14 14 28 -2 31 -37z m-774 -13 c25 -10 19 -41 -13 -63 -39 -28 -41 -27 -29
17 15 55 16 56 42 46z m556 -285 c0 -6 -8 -23 -18 -37 -10 -15 -24 -42 -31
-59 -16 -39 -26 -35 -35 13 -4 19 -9 41 -12 48 -3 8 10 19 33 29 46 19 63 21
63 6z"/>
</g>
</svg>
