<?xml version="1.0" standalone="no"?>
<!DOCTYPE svg PUBLIC "-//W3C//DTD SVG 20010904//EN"
 "http://www.w3.org/TR/2001/REC-SVG-20010904/DTD/svg10.dtd">
<svg version="1.0" xmlns="http://www.w3.org/2000/svg"
 width="118.000000pt" height="84.000000pt" viewBox="0 0 118.000000 84.000000"
 preserveAspectRatio="xMidYMid meet">
<metadata>
Created by potrace 1.16, written by Peter Selinger 2001-2019
</metadata>
<g transform="translate(0.000000,84.000000) scale(0.100000,-0.100000)"
fill="#000000" stroke="none">
<path d="M195 768 c-2 -7 -10 -35 -18 -63 l-14 -50 -49 -5 -49 -5 3 -40 c1
-22 5 -147 8 -278 3 -132 10 -235 15 -230 4 4 11 68 14 142 6 106 13 155 36
230 16 53 29 103 29 112 0 71 120 92 455 83 127 -4 250 -6 275 -5 74 2 73 6
76 -211 4 -271 4 -349 -1 -383 -3 -20 1 -16 11 15 9 25 20 79 25 120 11 92 33
173 95 352 31 88 45 141 39 147 -6 5 -42 12 -82 16 -68 6 -71 6 -78 -15 -7
-22 -9 -22 -129 -16 -156 8 -400 34 -496 53 -125 24 -130 25 -130 34 0 14 -30
11 -35 -3z m99 -71 l48 -11 -67 -13 c-37 -8 -69 -12 -72 -10 -2 3 -1 17 3 31
5 20 11 25 23 21 9 -4 38 -11 65 -18z m826 -24 c0 -16 -38 -130 -80 -240 -6
-18 -18 -33 -26 -33 -30 0 -14 238 18 278 6 6 28 12 49 12 31 0 39 -4 39 -17z
m-983 -64 c10 -10 1 -78 -14 -102 -10 -16 -21 22 -22 71 -1 42 13 54 36 31z"/>
<path d="M238 575 c-3 -3 -3 -34 -1 -68 3 -34 1 -79 -5 -99 -7 -26 -7 -40 0
-44 7 -5 9 -48 6 -125 -5 -111 0 -143 17 -101 4 9 9 52 12 94 5 68 8 77 27 81
19 4 19 4 -3 6 -23 1 -23 1 -17 89 13 164 13 167 -9 170 -12 2 -23 0 -27 -3z"/>
<path d="M327 574 c-14 -14 -7 -24 18 -24 26 0 34 -15 13 -22 -9 -3 -13 -56
-14 -199 0 -107 -5 -211 -9 -233 -6 -31 -5 -38 6 -34 15 5 36 152 38 260 1 61
27 198 40 211 7 7 231 12 371 8 l55 -2 -31 -27 c-96 -84 -124 -96 -196 -81
-31 6 -60 19 -71 32 l-19 21 -36 -19 -36 -20 3 -73 c1 -46 -2 -79 -10 -88 -9
-11 -9 -17 1 -29 9 -11 11 -39 7 -95 -6 -98 7 -96 23 3 17 101 25 106 169 107
91 0 112 3 103 12 -8 8 -54 14 -123 16 -123 5 -129 8 -105 66 l15 36 73 -1
c40 -1 82 -6 93 -11 26 -13 105 -96 105 -109 0 -6 11 -23 24 -37 13 -15 36
-40 50 -56 15 -16 28 -27 31 -24 3 2 -13 40 -35 84 l-39 79 12 96 c7 53 18
103 25 112 21 25 -2 31 -128 33 -63 2 -183 6 -265 9 -83 3 -154 3 -158 -1z
m483 -126 c0 -23 -16 -39 -33 -32 -13 5 -14 10 -6 25 11 21 39 26 39 7z"/>
</g>
</svg>
