<?xml version="1.0" standalone="no"?>
<!DOCTYPE svg PUBLIC "-//W3C//DTD SVG 20010904//EN"
 "http://www.w3.org/TR/2001/REC-SVG-20010904/DTD/svg10.dtd">
<svg version="1.0" xmlns="http://www.w3.org/2000/svg"
 width="162.000000pt" height="92.000000pt" viewBox="0 0 162.000000 92.000000"
 preserveAspectRatio="xMidYMid meet">
<metadata>
Created by potrace 1.16, written by Peter Selinger 2001-2019
</metadata>
<g transform="translate(0.000000,92.000000) scale(0.100000,-0.100000)"
fill="#000000" stroke="none">
<path d="M1198 913 c6 -2 18 -2 25 0 6 3 1 5 -13 5 -14 0 -19 -2 -12 -5z"/>
<path d="M750 855 c-13 -25 -79 -89 -158 -154 -23 -19 -40 -37 -39 -40 0 -3
-5 -16 -13 -28 -18 -28 -51 -29 -144 -4 -70 19 -86 31 -86 64 0 13 -6 17 -22
15 -18 -2 -24 -12 -30 -46 -10 -58 -16 -64 -38 -42 -21 21 -55 17 -65 -8 -3
-9 -9 -45 -12 -79 -3 -36 -11 -63 -17 -63 -15 0 -62 -78 -71 -117 l-6 -32 40
20 c22 10 45 19 51 19 6 0 10 -23 10 -56 0 -70 16 -63 25 11 7 56 23 75 59 75
13 0 16 -12 16 -56 0 -74 23 -69 30 7 4 47 8 54 29 57 22 4 23 2 16 -47 -9
-63 8 -68 27 -8 10 32 19 43 37 45 30 5 39 -10 34 -58 -3 -21 0 -41 6 -45 6
-3 11 0 12 7 1 7 2 20 3 28 2 8 3 27 4 42 2 28 42 52 50 29 2 -6 10 -11 17
-11 10 0 12 -18 8 -82 -3 -46 -7 -85 -10 -87 -2 -3 -9 1 -15 7 -7 7 -18 12
-25 12 -18 0 -17 -30 1 -44 8 -6 31 -40 50 -76 19 -36 40 -65 47 -65 7 0 22
18 33 40 12 22 46 65 78 96 47 45 75 63 160 97 88 35 105 39 114 27 17 -22 28
-18 41 14 7 21 25 37 57 52 79 37 73 54 -7 20 l-45 -19 -6 21 c-6 23 12 57 50
95 19 20 25 21 42 11 16 -10 24 -10 34 -1 19 16 159 35 170 24 13 -13 -42 -54
-61 -47 -8 3 -35 9 -59 12 -46 6 -62 -4 -62 -40 0 -16 6 -17 43 -12 38 6 43 5
44 -14 1 -17 -4 -21 -27 -21 -35 0 -75 -31 -67 -52 4 -13 19 -15 74 -11 59 5
71 2 93 -16 l25 -20 -55 0 c-30 0 -73 4 -95 9 -43 10 -51 6 -57 -25 -3 -19 2
-20 77 -17 44 2 97 5 117 8 33 4 40 1 65 -31 33 -42 58 -47 49 -10 -5 18 -2
25 9 25 17 0 18 -4 9 -37 -6 -22 -11 -23 -108 -23 -89 0 -148 8 -208 26 -15 5
-18 -1 -18 -36 0 -41 1 -42 28 -35 39 10 292 28 299 21 3 -3 8 -37 11 -76 3
-50 9 -70 18 -70 11 0 14 20 16 78 1 42 1 92 -1 110 -4 58 58 281 100 361 22
40 38 75 37 76 -2 2 -48 4 -103 6 -83 3 -100 2 -100 -11 0 -29 -49 -34 -141
-16 -47 9 -99 23 -115 31 -49 26 -57 21 -56 -37 0 -29 4 -59 10 -65 17 -23
-28 -15 -58 10 -16 12 -69 40 -118 62 -78 34 -93 46 -113 80 -12 22 -20 44
-17 48 3 5 7 33 9 63 4 60 -12 74 -36 29z m-10 -125 c7 -17 11 -32 9 -35 -9
-8 -129 -14 -129 -6 0 12 80 71 96 71 6 0 17 -14 24 -30z m25 -82 c14 -6 25
-16 25 -23 0 -17 -22 -35 -42 -35 -11 0 -18 -7 -18 -20 0 -17 -3 -18 -19 -8
-15 9 -25 7 -52 -8 l-34 -20 -1 -143 c-2 -151 -6 -164 -49 -159 -18 3 -20 10
-18 92 1 48 6 93 12 100 5 6 16 46 25 89 21 106 38 135 78 140 61 7 67 7 93
-5z m-460 -28 c3 -5 -1 -10 -9 -10 -9 0 -16 5 -16 10 0 6 4 10 9 10 6 0 13 -4
16 -10z m1233 3 c-18 -37 -67 -142 -73 -158 -7 -19 -8 -18 -15 5 -4 14 -10 55
-13 93 l-6 67 55 0 c31 0 54 -3 52 -7z m-601 -40 c49 -23 53 -28 34 -34 -11
-5 -21 -14 -21 -21 0 -19 -42 -58 -62 -58 -37 0 -87 118 -61 144 10 10 43 0
110 -31z m217 28 c3 -5 -3 -11 -14 -14 -20 -5 -35 5 -23 17 9 9 31 7 37 -3z
m-684 -25 l55 -1 5 -48 c3 -26 4 -63 2 -82 -4 -32 -7 -35 -38 -35 -32 0 -34 2
-34 36 0 19 5 45 11 56 9 18 8 24 -6 35 -30 21 -45 -2 -45 -67 0 -44 -4 -59
-16 -64 -30 -12 -37 5 -31 80 3 41 2 76 -3 79 -16 10 -30 -33 -30 -89 0 -55
-1 -56 -28 -56 -31 0 -30 -7 -16 108 6 50 29 65 84 55 19 -3 60 -6 90 -7z
m930 -6 c0 -23 5 -22 -167 -26 -126 -2 -155 7 -80 26 23 6 47 13 52 15 6 2 52
4 103 4 86 1 92 0 92 -19z m-1210 -10 c0 -5 -4 -10 -10 -10 -5 0 -10 5 -10 10
0 6 5 10 10 10 6 0 10 -4 10 -10z m75 -52 c-4 -35 -8 -69 -10 -75 -6 -17 -26
-16 -49 0 -18 13 -19 7 19 125 3 6 14 12 25 12 19 0 20 -4 15 -62z m307 27
c-2 -14 -6 -25 -8 -25 -2 0 -4 11 -4 25 0 14 4 25 9 25 4 0 6 -11 3 -25z m219
-22 c11 -12 9 -13 -12 -8 -23 6 -26 2 -38 -44 -7 -28 -10 -54 -7 -59 3 -5 -8
-22 -24 -37 -36 -35 -38 -55 -7 -55 22 0 66 -35 56 -44 -9 -7 -73 -26 -90 -26
-15 0 -17 9 -14 86 2 47 8 91 13 97 5 7 17 32 26 58 16 41 20 45 51 46 19 1
40 -6 46 -14z m593 1 c9 -3 16 -15 16 -25 0 -15 -7 -19 -40 -19 -44 0 -45 1
-28 30 13 21 26 24 52 14z m-722 -46 c-9 -9 -12 -7 -12 12 0 19 3 21 12 12 9
-9 9 -15 0 -24z m358 23 c0 -8 -29 -37 -31 -30 -7 35 -6 39 12 39 10 0 19 -4
19 -9z m-230 -31 c0 -5 -4 -10 -10 -10 -5 0 -10 5 -10 10 0 6 5 10 10 10 6 0
10 -4 10 -10z m616 -35 c11 -45 0 -56 -58 -53 -46 3 -52 6 -53 26 -3 34 21 52
66 52 33 0 40 -4 45 -25z m-541 4 c4 -5 0 -18 -9 -28 -24 -26 -19 -41 13 -41
36 0 57 -22 38 -39 -8 -6 -32 -17 -55 -25 -41 -15 -42 -15 -61 12 -19 27 -19
28 5 80 17 37 30 52 43 52 11 0 23 -5 26 -11z m95 -41 c0 -35 -2 -39 -15 -28
-9 8 -14 23 -11 39 2 14 5 30 5 34 1 5 6 5 11 2 6 -3 10 -24 10 -47z m310 16
c0 -31 -23 -28 -28 4 -2 15 2 22 12 22 11 0 16 -9 16 -26z m-1125 -9 c0 -23
-31 -43 -45 -29 -7 7 -5 17 6 32 18 26 39 24 39 -3z m605 -35 c0 -5 -5 -10
-11 -10 -5 0 -7 5 -4 10 3 6 8 10 11 10 2 0 4 -4 4 -10z m670 -45 c0 -38 -9
-42 -57 -24 -35 13 -64 39 -57 50 3 5 30 9 60 9 l54 0 0 -35z m-773 -137 c-8
-13 -28 -38 -44 -57 l-28 -33 -14 25 c-8 14 -11 36 -7 50 5 20 15 27 53 34 27
5 50 8 52 6 2 -1 -3 -13 -12 -25z"/>
<path d="M1607 146 c-4 -10 -5 -21 -2 -24 9 -9 17 6 13 25 -3 17 -4 17 -11 -1z"/>
</g>
</svg>
