<?xml version="1.0" standalone="no"?>
<!DOCTYPE svg PUBLIC "-//W3C//DTD SVG 20010904//EN"
 "http://www.w3.org/TR/2001/REC-SVG-20010904/DTD/svg10.dtd">
<svg version="1.0" xmlns="http://www.w3.org/2000/svg"
 width="182.000000pt" height="111.000000pt" viewBox="0 0 182.000000 111.000000"
 preserveAspectRatio="xMidYMid meet">
<metadata>
Created by potrace 1.16, written by Peter Selinger 2001-2019
</metadata>
<g transform="translate(0.000000,111.000000) scale(0.100000,-0.100000)"
fill="#000000" stroke="none">
<path d="M805 1068 c-28 -16 -40 -29 -56 -63 -8 -16 -27 -36 -42 -43 -30 -14
-37 -42 -10 -42 22 0 113 -59 113 -74 -1 -16 -31 -51 -62 -71 -28 -17 -28 -17
-28 8 0 14 4 37 10 51 11 30 4 32 -27 8 -20 -15 -23 -29 -29 -132 -5 -74 -12
-119 -21 -128 -11 -11 -10 -18 2 -43 9 -16 13 -34 10 -39 -8 -13 -24 -153 -19
-162 3 -4 11 -5 19 -1 11 4 15 22 16 67 0 66 17 127 36 133 15 5 113 -90 113
-110 0 -17 -49 -52 -143 -101 -77 -40 -101 -45 -93 -18 7 23 15 124 20 254 3
59 7 111 10 116 2 4 7 37 11 72 4 35 13 81 22 102 21 53 15 60 -34 38 -39 -17
-43 -22 -43 -55 0 -32 -2 -35 -29 -35 -26 0 -107 21 -200 51 -28 9 -36 9 -45
-3 -6 -8 -18 -17 -27 -20 -24 -9 -39 -84 -39 -188 l0 -91 -22 12 c-13 6 -35
23 -50 36 -14 14 -34 23 -44 21 -18 -3 -63 -105 -63 -147 -1 -23 -1 -23 27 -5
48 32 82 46 123 51 l40 6 -6 -109 c-7 -126 7 -133 23 -11 12 88 24 109 61 105
26 -3 26 -3 24 -90 0 -49 2 -88 7 -88 10 0 30 80 30 120 0 32 5 36 53 44 29 5
31 1 27 -63 -1 -19 -6 -45 -11 -59 -7 -17 -6 -23 3 -20 7 3 19 33 28 69 15 60
18 64 47 67 24 2 34 -2 43 -18 6 -11 9 -24 7 -28 -7 -10 -21 -121 -20 -155 0
-16 11 -39 26 -55 14 -15 36 -49 48 -76 15 -36 23 -45 30 -35 5 8 9 21 9 30 0
31 43 114 82 161 33 39 44 47 63 42 20 -5 25 -1 31 20 5 23 74 74 215 161 9 6
28 18 42 29 23 16 34 17 84 8 35 -6 62 -7 68 -1 16 15 61 10 79 -10 22 -24 8
-30 -53 -20 -51 7 -81 -3 -81 -28 0 -14 10 -15 79 -9 65 5 82 4 95 -10 35 -34
21 -42 -76 -40 -90 1 -93 0 -96 -22 -3 -20 0 -23 17 -17 12 3 60 7 108 7 84 1
88 0 110 -28 13 -16 24 -24 24 -19 1 6 3 15 4 20 2 6 3 16 4 23 1 7 17 12 45
12 48 0 56 -9 56 -61 l0 -30 -157 6 c-138 6 -160 9 -173 26 -19 23 -36 13 -44
-28 l-7 -32 133 2 c167 3 253 -4 254 -20 1 -7 2 -58 3 -113 2 -156 30 -120 35
45 2 44 11 107 20 140 51 169 90 297 112 363 14 40 22 77 19 82 -4 6 -23 10
-43 9 -20 -1 -60 1 -89 4 -42 5 -56 3 -77 -14 -24 -19 -33 -20 -142 -11 -95 8
-120 14 -138 31 -39 36 -61 20 -65 -48 -1 -32 0 -33 26 -27 51 13 153 19 153
9 0 -5 -10 -19 -23 -31 -18 -17 -36 -22 -79 -22 -53 0 -77 -11 -76 -35 1 -11
-40 -35 -59 -35 -7 0 -22 11 -35 25 -13 13 -48 44 -80 67 -31 24 -85 67 -121
95 -69 57 -72 64 -83 188 -5 58 -12 68 -39 53z m-3 -90 c3 -18 9 -41 13 -51 7
-17 5 -17 -34 2 l-42 22 21 29 c27 38 37 38 42 -2z m66 -160 c17 -17 15 -25
-6 -31 -19 -4 -37 -60 -26 -78 3 -5 0 -9 -5 -9 -12 0 -16 112 -4 123 10 11 28
8 41 -5z m-483 -13 l40 -13 -57 -1 c-45 -1 -58 2 -58 14 0 18 21 18 75 0z
m1348 -21 c3 -4 -1 -21 -10 -38 -9 -17 -31 -73 -48 -124 -16 -52 -35 -92 -40
-90 -6 2 -11 41 -11 88 -1 47 -5 97 -9 112 -12 47 -1 58 58 58 30 0 56 -3 60
-6z m-1241 -16 c-14 -17 -33 -181 -25 -218 5 -28 3 -30 -25 -30 -16 0 -34 6
-40 13 -20 24 6 222 32 239 6 4 24 8 40 8 22 0 26 -3 18 -12z m82 3 c3 -4 8
-63 10 -130 5 -134 2 -141 -51 -124 -26 9 -28 14 -33 74 -4 55 4 112 25 177 5
14 41 17 49 3z m-216 -118 l-3 -118 -29 2 c-16 1 -34 7 -39 12 -16 16 -11 97
7 123 9 12 16 34 16 48 0 28 16 50 37 50 11 0 13 -25 11 -117z m432 91 c0 -16
-16 -19 -25 -4 -8 13 4 32 16 25 5 -4 9 -13 9 -21z m110 18 c0 -5 -7 -17 -15
-28 -14 -18 -14 -18 -15 9 0 17 5 27 15 27 8 0 15 -4 15 -8z m657 -4 c24 -39
12 -49 -63 -49 -65 -1 -81 9 -65 40 10 17 21 21 66 21 32 0 57 -5 62 -12z
m-553 -37 c28 -21 70 -51 93 -66 24 -15 40 -31 37 -36 -10 -16 -71 -9 -138 16
-37 14 -69 25 -72 25 -2 0 -9 -10 -15 -22 -7 -18 -8 -14 -5 22 6 49 26 100 40
100 5 0 32 -17 60 -39z m-715 12 c0 -5 -4 -17 -9 -28 -8 -18 -9 -17 -9 8 -1
15 4 27 9 27 6 0 10 -3 9 -7z m467 -32 c55 -27 89 -93 77 -150 l-8 -41 -32 25
c-25 20 -33 35 -38 75 -6 44 -10 50 -26 45 -16 -5 -19 -1 -19 29 0 20 1 36 3
36 2 0 21 -9 43 -19z m806 -30 c4 -3 5 -16 2 -29 -6 -21 -11 -22 -105 -22 -90
0 -99 2 -99 19 0 30 21 40 90 43 67 4 100 1 112 -11z m-268 -6 c-8 -20 5 -19
29 2 18 17 19 17 16 -7 -3 -19 -11 -26 -33 -28 -39 -5 -57 15 -32 34 25 18 27
18 20 -1z m-74 -60 c0 -9 -6 -12 -15 -9 -8 4 -12 10 -9 15 8 14 24 10 24 -6z
m-490 -15 c0 -5 -4 -10 -10 -10 -5 0 -10 5 -10 10 0 6 5 10 10 10 6 0 10 -4
10 -10z m838 -22 l-3 -33 -70 -3 c-62 -3 -72 0 -87 19 -10 11 -18 25 -18 30 0
8 45 13 138 17 43 2 43 2 40 -30z m-504 7 c-1 -15 -153 -115 -175 -115 -15 0
-19 7 -19 38 0 53 10 81 25 75 8 -2 22 0 32 6 22 13 138 10 137 -4z m-905 -28
c13 -16 5 -27 -20 -27 -21 0 -33 15 -24 30 9 14 31 12 44 -3z m1409 -47 c19 0
14 -28 -7 -40 -11 -5 -40 -10 -65 -10 -36 0 -48 4 -57 21 -15 29 -3 35 63 32
29 -1 59 -2 66 -3z m-838 -196 c0 -3 -11 -22 -25 -42 -14 -20 -25 -42 -25 -49
0 -7 -5 -13 -10 -13 -13 0 -31 46 -25 62 9 23 85 61 85 42z"/>
</g>
</svg>
