<?xml version="1.0" standalone="no"?>
<!DOCTYPE svg PUBLIC "-//W3C//DTD SVG 20010904//EN"
 "http://www.w3.org/TR/2001/REC-SVG-20010904/DTD/svg10.dtd">
<svg version="1.0" xmlns="http://www.w3.org/2000/svg"
 width="158.000000pt" height="93.000000pt" viewBox="0 0 158.000000 93.000000"
 preserveAspectRatio="xMidYMid meet">
<metadata>
Created by potrace 1.16, written by Peter Selinger 2001-2019
</metadata>
<g transform="translate(0.000000,93.000000) scale(0.100000,-0.100000)"
fill="#000000" stroke="none">
<path d="M488 873 c-14 -17 -27 -87 -37 -207 -2 -20 -146 2 -220 34 -48 21
-77 28 -83 22 -15 -15 -2 -30 40 -48 32 -14 35 -17 17 -23 -14 -6 -27 -1 -47
20 -16 15 -28 32 -28 38 0 6 -7 11 -15 11 -8 0 -15 -7 -15 -15 0 -13 -17 -20
-41 -17 -4 1 -12 -19 -19 -44 -10 -36 -10 -56 -1 -101 9 -37 10 -81 5 -137 -9
-95 -9 -202 1 -254 6 -33 8 -34 18 -17 6 11 12 54 14 95 2 42 9 81 16 88 28
27 347 63 373 41 19 -15 18 -56 -2 -67 -9 -5 -23 -42 -34 -88 -10 -43 -24 -98
-30 -122 -7 -23 -10 -45 -7 -49 4 -3 29 15 56 39 48 44 126 88 154 88 7 0 18
5 24 11 18 18 251 18 262 0 5 -8 7 -20 4 -27 -4 -12 14 -30 23 -21 3 2 7 40
10 83 3 43 10 84 15 90 5 6 35 21 67 32 47 17 82 21 207 22 83 1 155 1 161 1
16 -1 25 -67 24 -164 -1 -59 2 -78 12 -75 20 7 29 55 35 188 5 113 10 139 54
274 27 82 46 152 43 157 -3 5 -40 6 -82 3 -81 -7 -116 -24 -94 -46 7 -7 12
-25 12 -40 0 -27 -2 -28 -52 -30 -29 -1 -80 -1 -113 0 -69 3 -215 33 -215 44
0 4 9 32 21 63 29 79 24 87 -58 83 -61 -3 -69 -6 -78 -27 -10 -23 -12 -23
-120 -19 -96 4 -117 8 -165 33 -59 30 -79 50 -80 78 0 9 -4 17 -8 17 -5 0 -16
-8 -24 -17z m47 -105 c42 -19 24 -43 -28 -36 -21 3 -23 6 -16 26 10 26 10 26
44 10z m463 -3 c3 -3 -9 -43 -26 -89 -18 -45 -32 -89 -32 -96 0 -7 -2 -11 -5
-8 -3 3 -8 51 -10 108 l-5 103 36 -6 c20 -3 39 -9 42 -12z m-140 -41 c22 -4
23 -7 20 -116 -3 -103 -5 -112 -23 -114 -11 -1 -30 -6 -42 -9 -29 -9 -30 8 -2
54 28 46 18 48 -24 4 l-37 -37 -27 20 c-39 29 -48 71 -33 143 10 48 17 61 34
63 23 4 98 0 134 -8z m-188 0 c0 -18 -31 -62 -72 -102 -32 -30 -22 -54 40 -97
46 -32 53 -41 36 -43 -11 -2 -41 4 -65 14 -24 9 -59 21 -77 27 -30 11 -33 15
-27 42 4 17 9 50 10 73 4 48 25 79 59 85 34 7 96 8 96 1z m825 -53 c-3 -14
-12 -32 -19 -39 -16 -17 -46 -5 -47 19 -1 10 -2 24 -3 31 -1 14 42 27 62 20 9
-3 11 -13 7 -31z m-1418 -57 c-4 -25 -2 -37 9 -41 15 -6 18 -45 5 -78 l-8 -20
-6 20 c-11 37 -19 133 -12 144 12 21 18 11 12 -25z m325 16 c46 0 46 0 52 -37
3 -21 8 -73 12 -115 l6 -77 -28 -7 c-37 -9 -252 3 -292 17 -41 14 -42 22 -15
127 11 42 23 67 37 75 28 15 103 26 146 21 19 -2 56 -4 82 -4z m989 -135 c3
-49 2 -95 -3 -101 -19 -25 -420 2 -439 29 -3 4 -1 36 5 70 11 59 12 62 46 70
40 9 260 25 335 23 l50 -1 6 -90z m72 88 c3 -5 0 -21 -7 -38 l-13 -30 -7 28
c-7 29 -2 47 14 47 5 0 11 -3 13 -7z m-887 -124 c7 -12 -12 -29 -33 -29 -7 0
-13 9 -13 20 0 22 34 28 46 9z m56 -47 c-39 -34 -42 -41 -42 -87 0 -61 -10
-79 -38 -71 -26 9 -42 56 -35 102 5 33 12 39 67 64 84 39 99 36 48 -8z m188
-20 c66 -61 68 -65 61 -171 -1 -11 -21 -12 -113 -7 -158 10 -158 10 -144 49
19 51 42 90 70 116 14 14 26 30 26 36 0 12 20 35 31 35 3 0 35 -26 69 -58z
m48 46 c15 -15 16 -41 0 -36 -6 2 -18 14 -26 26 -12 19 -12 22 0 22 8 0 19 -5
26 -12z m-208 -62 c0 -16 -28 -42 -36 -33 -8 7 14 47 26 47 6 0 10 -6 10 -14z
m-531 -17 c-15 -9 -32 -2 -24 11 3 5 13 6 21 3 12 -4 13 -8 3 -14z m853 -12
c-26 -12 -37 -5 -28 18 5 13 10 14 28 4 l23 -12 -23 -10z m-500 -199 c-2 -10
-10 -23 -18 -29 -11 -9 -14 -7 -14 9 0 11 5 33 11 49 10 26 12 26 19 8 4 -11
5 -27 2 -37z m77 43 c12 -8 10 -12 -12 -22 -30 -14 -43 -8 -34 16 7 17 25 19
46 6z"/>
</g>
</svg>
