<?xml version="1.0" standalone="no"?>
<!DOCTYPE svg PUBLIC "-//W3C//DTD SVG 20010904//EN"
 "http://www.w3.org/TR/2001/REC-SVG-20010904/DTD/svg10.dtd">
<svg version="1.0" xmlns="http://www.w3.org/2000/svg"
 width="46.000000pt" height="57.000000pt" viewBox="0 0 46.000000 57.000000"
 preserveAspectRatio="xMidYMid meet">
<metadata>
Created by potrace 1.16, written by Peter Selinger 2001-2019
</metadata>
<g transform="translate(0.000000,57.000000) scale(0.100000,-0.100000)"
fill="#000000" stroke="none">
<path d="M298 563 c7 -3 16 -2 19 1 4 3 -2 6 -13 5 -11 0 -14 -3 -6 -6z"/>
<path d="M194 519 c-16 -17 -59 -50 -96 -75 -67 -44 -87 -74 -49 -74 17 0 151
-129 264 -255 76 -84 22 43 -70 163 -29 39 -33 51 -33 105 1 34 7 80 15 102
27 73 17 84 -31 34z m-22 -109 c-4 -44 -24 -52 -46 -18 -8 13 -5 22 13 42 31
32 38 27 33 -24z"/>
</g>
</svg>
