<?xml version="1.0" standalone="no"?>
<!DOCTYPE svg PUBLIC "-//W3C//DTD SVG 20010904//EN"
 "http://www.w3.org/TR/2001/REC-SVG-20010904/DTD/svg10.dtd">
<svg version="1.0" xmlns="http://www.w3.org/2000/svg"
 width="106.000000pt" height="209.000000pt" viewBox="0 0 106.000000 209.000000"
 preserveAspectRatio="xMidYMid meet">
<metadata>
Created by potrace 1.16, written by Peter Selinger 2001-2019
</metadata>
<g transform="translate(0.000000,209.000000) scale(0.100000,-0.100000)"
fill="#000000" stroke="none">
<path d="M800 2020 c-62 -35 -242 -90 -299 -90 -33 0 -33 -1 -27 -35 l7 -35
-78 0 c-68 0 -155 14 -231 36 -22 6 -23 4 -20 -32 2 -32 6 -39 23 -36 11 1 73
4 138 6 131 3 129 4 142 -67 l7 -37 -123 0 c-68 0 -141 -3 -163 -7 l-39 -6 7
56 7 57 -36 0 -37 0 7 -47 c4 -27 10 -95 14 -153 3 -62 10 -104 16 -103 6 2
12 40 15 85 5 80 6 83 30 86 14 1 86 6 161 10 l137 7 -2 -82 c0 -50 3 -83 9
-83 6 0 11 43 13 105 l3 105 50 -19 c39 -15 70 -41 141 -116 51 -53 98 -105
106 -116 7 -11 18 -17 23 -14 5 4 9 87 9 188 0 167 10 289 26 331 7 18 -11 21
-36 6z m2 -60 c-2 -16 -6 -30 -8 -30 -2 0 -4 14 -4 30 0 17 4 30 8 30 5 0 7
-13 4 -30z m-28 -17 c4 -16 10 -113 12 -218 l5 -190 -103 109 c-109 114 -165
198 -145 214 16 13 209 112 218 112 3 0 10 -12 13 -27z m-154 -18 c0 -3 -10
-10 -22 -15 -13 -6 -36 -19 -53 -29 -34 -21 -45 -18 -45 10 0 14 7 19 28 20
15 0 36 4 47 9 23 10 45 12 45 5z m-420 -65 c12 -8 11 -10 -7 -10 -13 0 -23 5
-23 10 0 13 11 13 30 0z m-74 -72 c-3 -13 -6 -32 -7 -43 -1 -11 -5 -4 -8 15
-8 38 -5 50 11 50 6 0 8 -10 4 -22z m413 0 c11 -29 8 -32 -18 -19 -12 7 -18
17 -15 26 9 22 23 18 33 -7z"/>
<path d="M955 1570 c-4 -6 -2 -17 4 -24 6 -7 9 -20 5 -29 -8 -23 14 -30 25 -8
18 33 14 71 -8 71 -11 0 -23 -5 -26 -10z"/>
<path d="M810 1273 c-13 -3 -29 -11 -35 -18 -11 -15 -227 -125 -244 -125 -6 0
-11 -6 -11 -14 0 -7 -14 -16 -31 -20 -49 -10 -304 -7 -315 3 -5 5 -22 11 -39
13 -26 3 -30 0 -27 -21 2 -20 -1 -23 -23 -19 -30 6 -30 11 -6 -71 13 -44 19
-91 18 -141 -1 -43 2 -76 8 -78 6 -1 11 22 11 53 1 31 4 58 7 62 4 3 84 9 179
14 201 9 178 6 178 20 0 9 -28 10 -100 6 -55 -3 -136 -3 -180 0 l-80 6 0 41
c0 69 1 69 177 76 87 3 163 4 170 2 18 -6 25 -36 32 -141 4 -59 10 -94 16 -91
6 3 9 20 8 38 -3 41 12 42 108 1 41 -17 83 -33 94 -37 11 -3 35 -14 54 -24 18
-11 36 -16 40 -13 3 4 6 79 7 168 1 118 6 179 18 226 16 60 16 93 -1 90 -4 -1
-19 -4 -33 -6z m30 -27 c0 -1 -5 -18 -12 -37 l-12 -34 -8 30 c-5 20 -3 32 5
37 13 8 27 10 27 4z m-47 -63 c5 -39 10 -255 8 -335 -1 -17 -4 -17 -48 1 -48
19 -134 70 -186 112 -24 18 -30 20 -38 8 -6 -9 -9 1 -9 31 0 48 10 73 27 68 6
-2 26 11 44 28 40 35 179 134 189 134 4 0 10 -21 13 -47z m-219 -77 c-10 -8
-21 -12 -24 -9 -3 2 4 11 14 19 11 7 22 12 25 9 2 -3 -4 -12 -15 -19z m-417
-32 c-3 -3 -12 -4 -19 -1 -8 3 -5 6 6 6 11 1 17 -2 13 -5z m350 -16 c-3 -8 -6
-5 -6 6 -1 11 2 17 5 13 3 -3 4 -12 1 -19z m58 -128 c3 -5 -1 -10 -9 -10 -9 0
-16 5 -16 10 0 6 4 10 9 10 6 0 13 -4 16 -10z"/>
<path d="M983 888 c-6 -9 -5 -25 2 -47 12 -34 12 -34 24 -12 22 40 -1 92 -26
59z"/>
<path d="M978 583 c-32 -2 -58 -8 -58 -14 0 -5 7 -23 15 -39 l15 -29 -98 -49
c-53 -28 -136 -62 -184 -76 -85 -26 -92 -27 -280 -22 -106 3 -202 6 -213 7
-33 2 -76 -8 -87 -19 -6 -6 -5 -20 6 -40 12 -24 16 -62 16 -162 0 -80 4 -130
10 -130 6 0 10 30 10 69 l0 69 48 15 c67 22 102 26 232 28 l115 3 0 -70 c1
-83 19 -93 23 -12 2 41 7 58 20 63 26 10 189 7 209 -4 76 -42 214 -98 219 -90
3 6 3 29 0 52 -3 23 -6 115 -7 205 l-2 163 36 37 c21 21 34 41 31 45 -4 4 -10
6 -13 5 -3 -1 -32 -3 -63 -5z m17 -43 c-10 -11 -22 -20 -27 -20 -4 0 -8 9 -8
20 0 15 7 20 27 20 25 0 26 0 8 -20z m-31 -82 c13 -51 7 -85 -16 -92 -38 -10
-213 -7 -202 3 10 11 196 110 205 111 4 0 9 -10 13 -22z m-271 -123 c-21 -28
-29 -31 -37 -10 -5 15 18 34 42 35 9 0 8 -7 -5 -25z m-453 1 c0 -3 -13 -11
-30 -20 -28 -14 -30 -13 -30 5 0 14 7 19 30 19 17 0 30 -2 30 -4z m269 -20 c6
-7 12 -32 13 -57 l3 -44 -187 0 c-128 0 -191 4 -199 12 -8 8 -8 20 2 50 9 25
14 32 17 21 4 -20 13 -23 27 -10 19 17 102 34 190 41 98 7 119 5 134 -13z m44
-7 c-4 -13 -9 -17 -16 -10 -12 12 -1 45 12 37 5 -3 7 -15 4 -27z m417 -23 l0
-56 -84 0 c-52 0 -88 -4 -92 -11 -5 -8 18 -10 85 -7 l91 4 0 -54 c0 -40 -3
-53 -12 -49 -7 3 -42 18 -78 33 -79 32 -112 53 -104 65 3 5 -12 9 -33 9 -21 0
-58 9 -82 21 l-44 20 -32 -31 c-17 -16 -34 -30 -37 -30 -7 0 6 67 20 103 15
36 53 36 82 0 l21 -28 20 25 c10 14 19 27 19 30 0 3 59 6 130 8 l130 4 0 -56z
m-836 29 c-4 -8 -7 -15 -9 -15 -2 0 -5 7 -9 15 -3 9 0 15 9 15 9 0 12 -6 9
-15z m537 -100 c35 -15 34 -16 -16 -17 -63 -1 -69 1 -55 17 16 19 29 19 71 0z
m-498 -15 c16 0 -14 -20 -30 -20 -7 0 -13 7 -13 16 0 11 5 14 16 10 9 -3 21
-6 27 -6z"/>
<path d="M1034 159 c-3 -6 1 -18 10 -27 15 -15 16 -14 16 11 0 27 -13 36 -26
16z"/>
</g>
</svg>
