<?xml version="1.0" standalone="no"?>
<!DOCTYPE svg PUBLIC "-//W3C//DTD SVG 20010904//EN"
 "http://www.w3.org/TR/2001/REC-SVG-20010904/DTD/svg10.dtd">
<svg version="1.0" xmlns="http://www.w3.org/2000/svg"
 width="99.000000pt" height="134.000000pt" viewBox="0 0 99.000000 134.000000"
 preserveAspectRatio="xMidYMid meet">
<metadata>
Created by potrace 1.16, written by Peter Selinger 2001-2019
</metadata>
<g transform="translate(0.000000,134.000000) scale(0.100000,-0.100000)"
fill="#000000" stroke="none">
<path d="M843 1280 c-13 -5 -23 -15 -23 -22 -1 -11 -57 -40 -225 -114 -22 -10
-65 -25 -95 -35 -42 -13 -55 -22 -53 -36 2 -17 -9 -18 -160 -18 -89 0 -169 2
-177 5 -10 3 -15 -2 -15 -15 0 -13 -8 -21 -24 -23 -22 -3 -23 -6 -16 -50 5
-26 11 -76 14 -112 3 -36 10 -64 16 -62 6 1 9 22 7 46 -3 34 0 45 15 51 10 4
85 13 168 20 115 11 151 11 158 2 4 -7 6 -36 4 -64 -3 -39 0 -53 10 -53 9 0
13 18 13 66 l0 66 33 -7 c70 -15 157 -49 262 -103 60 -32 113 -58 117 -60 4
-2 8 77 8 175 1 167 10 296 26 336 5 13 1 17 -17 16 -13 0 -34 -4 -46 -9z m33
-42 c-3 -13 -6 -32 -7 -43 -1 -17 -2 -16 -9 5 -13 41 -11 60 6 60 12 0 15 -6
10 -22z m-35 -44 c4 -16 7 -51 7 -79 1 -48 1 -49 -13 -25 -8 14 -14 35 -15 48
0 17 -6 22 -25 22 -18 0 -25 -5 -25 -19 0 -19 -47 -61 -69 -61 -5 0 -10 -12
-9 -27 1 -16 0 -35 -3 -43 -3 -10 5 -16 26 -18 40 -5 63 -27 58 -56 -3 -13 0
-27 6 -30 7 -5 11 2 11 16 0 34 13 49 30 38 19 -13 30 -12 30 0 0 15 -33 50
-42 44 -4 -3 -8 9 -8 25 0 33 9 37 41 21 17 -10 19 -22 19 -131 0 -91 -3 -120
-12 -117 -7 2 -51 23 -96 48 l-84 45 5 82 c4 73 3 82 -14 86 -27 7 -31 -5 -18
-62 6 -28 9 -60 7 -71 -3 -19 -8 -18 -76 25 -79 48 -92 53 -92 31 0 -7 -8 -20
-17 -27 -15 -12 -16 -12 -10 4 4 10 7 22 7 26 0 13 111 95 205 151 50 29 104
62 120 72 38 22 48 19 56 -18z m-306 -109 c-11 -8 -25 -19 -32 -25 -15 -13
-33 -13 -33 0 0 5 15 16 33 24 42 19 57 19 32 1z m245 -40 c0 -48 -5 -52 -32
-31 -23 17 -23 30 -1 56 26 30 33 25 33 -25z m-359 -45 c7 -22 10 -42 7 -45
-8 -8 -278 -25 -308 -18 -23 4 -30 11 -30 29 0 13 8 27 17 33 24 12 176 35
270 39 29 2 33 -2 44 -38z m26 8 c-3 -8 -6 -5 -6 6 -1 11 2 17 5 13 3 -3 4
-12 1 -19z m88 -58 c34 -23 31 -25 -14 -9 -17 6 -31 15 -31 20 0 14 12 11 45
-11z"/>
<path d="M947 814 c-3 -3 -2 -17 4 -30 5 -14 8 -28 6 -32 -1 -4 2 -9 7 -12 12
-6 27 46 19 66 -5 14 -25 19 -36 8z"/>
<path d="M785 610 c-3 -11 -11 -20 -16 -20 -5 0 -39 -18 -75 -40 -77 -46 -146
-79 -189 -89 -22 -5 -29 -13 -28 -27 2 -18 -5 -19 -154 -16 -86 2 -165 8 -175
13 -16 9 -20 7 -25 -10 -3 -13 -12 -20 -22 -19 -12 2 -15 -4 -14 -27 1 -16 5
-78 9 -137 7 -116 21 -143 26 -51 4 69 1 68 187 77 l132 6 -2 -82 c-1 -55 2
-83 9 -86 8 -2 12 14 12 48 l0 52 31 -6 c17 -3 35 -6 40 -6 4 0 10 -15 12 -32
4 -30 5 -31 12 -10 9 26 7 26 53 6 21 -9 46 -20 57 -25 116 -50 139 -59 146
-59 5 0 9 33 8 73 -1 101 11 296 25 395 7 45 10 85 7 87 -2 3 -17 5 -32 5 -19
0 -30 -6 -34 -20z m45 -32 c0 -13 -5 -30 -10 -38 -7 -11 -10 -5 -10 23 0 20 5
37 10 37 6 0 10 -10 10 -22z m-36 -65 c11 -100 16 -203 9 -203 -3 0 -19 14
-34 31 -25 28 -28 29 -39 12 -10 -17 -11 -17 -6 2 3 11 8 41 12 68 6 43 5 47
-15 47 -12 0 -24 -8 -28 -17 -8 -23 -37 -48 -86 -74 -25 -13 -37 -25 -33 -35
3 -7 2 -13 -2 -13 -37 6 -40 -1 -35 -62 4 -35 2 -60 -3 -58 -69 32 -67 29 -59
92 3 32 8 64 11 70 9 23 265 196 291 197 6 0 14 -24 17 -57z m-354 -174 l0
-49 -107 -1 c-147 -1 -197 1 -206 10 -12 12 4 69 22 77 16 8 269 22 284 16 4
-2 7 -25 7 -53z m260 -29 c0 -103 -2 -104 -73 -34 -31 31 -40 36 -47 24 -18
-29 -9 -40 55 -71 47 -22 67 -37 71 -54 11 -42 0 -43 -73 -9 -72 34 -73 35
-73 72 0 49 10 82 24 82 6 0 17 9 24 20 12 20 69 60 85 60 4 0 7 -41 7 -90z
m100 -77 c0 -46 0 -46 -18 -27 -10 10 -21 27 -25 38 -6 15 -10 16 -22 6 -13
-11 -15 -7 -15 29 l0 41 40 -20 c38 -19 40 -23 40 -67z m-39 -50 c23 -14 29
-25 29 -50 0 -36 -4 -38 -39 -19 -17 9 -24 24 -27 50 -4 41 -2 42 37 19z"/>
<path d="M917 144 c-11 -11 5 -34 24 -34 12 0 19 7 19 20 0 19 -28 28 -43 14z"/>
</g>
</svg>
