<?xml version="1.0" standalone="no"?>
<!DOCTYPE svg PUBLIC "-//W3C//DTD SVG 20010904//EN"
 "http://www.w3.org/TR/2001/REC-SVG-20010904/DTD/svg10.dtd">
<svg version="1.0" xmlns="http://www.w3.org/2000/svg"
 width="99.000000pt" height="56.000000pt" viewBox="0 0 99.000000 56.000000"
 preserveAspectRatio="xMidYMid meet">
<metadata>
Created by potrace 1.16, written by Peter Selinger 2001-2019
</metadata>
<g transform="translate(0.000000,56.000000) scale(0.100000,-0.100000)"
fill="#000000" stroke="none">
<path d="M38 553 c12 -2 32 -2 45 0 12 2 2 4 -23 4 -25 0 -35 -2 -22 -4z"/>
<path d="M248 553 c6 -2 18 -2 25 0 6 3 1 5 -13 5 -14 0 -19 -2 -12 -5z"/>
<path d="M824 499 c-3 -6 -1 -36 4 -67 11 -56 24 -312 16 -312 -9 0 -140 38
-164 48 -14 5 -48 26 -77 45 l-52 35 -16 -25 c-23 -35 -27 -24 -14 35 12 58
36 94 77 115 15 7 45 24 67 37 22 13 58 32 79 44 22 12 41 27 44 33 4 15 -3
12 -98 -35 -36 -17 -91 -39 -123 -48 -56 -15 -58 -17 -55 -47 l3 -32 -95 2
c-52 2 -134 5 -181 9 -86 5 -87 5 -93 -20 -5 -20 -13 -26 -32 -26 -23 0 -25
-3 -19 -22 17 -56 26 -117 23 -162 -1 -32 2 -51 10 -54 8 -2 12 12 12 47 0 29
5 53 13 58 6 4 82 9 167 9 85 1 157 3 160 4 14 7 -79 17 -180 19 -154 3 -161
5 -153 44 3 18 8 34 10 37 24 27 304 43 320 18 4 -7 8 -66 8 -130 0 -132 18
-170 23 -49 l3 73 44 -6 c24 -4 106 -27 181 -51 l136 -43 -4 96 c-4 86 -1 138
17 290 4 41 4 42 -25 42 -16 0 -32 -5 -36 -11z m35 -46 c0 -35 -1 -36 -10 -14
-5 14 -7 31 -5 38 10 24 16 13 15 -24z m-649 -137 c0 -2 -9 -6 -20 -9 -11 -3
-20 -1 -20 4 0 5 9 9 20 9 11 0 20 -2 20 -4z m300 -26 c0 -5 -2 -10 -4 -10 -3
0 -8 5 -11 10 -3 6 -1 10 4 10 6 0 11 -4 11 -10z m60 -90 c0 -5 -2 -10 -4 -10
-3 0 -8 5 -11 10 -3 6 -1 10 4 10 6 0 11 -4 11 -10z"/>
<path d="M724 399 c6 -31 6 -32 -29 -26 l-35 6 0 -90 0 -91 38 4 c32 3 37 0
40 -20 5 -33 22 -27 22 8 0 27 3 30 31 30 17 0 28 4 24 10 -3 6 -17 10 -31 10
-31 0 -31 16 1 24 14 4 25 11 25 16 0 6 -11 10 -25 10 -33 0 -32 13 3 27 l27
11 -27 1 c-16 1 -28 5 -28 9 0 5 12 13 28 19 l27 10 -27 8 c-23 6 -27 11 -22
31 5 21 3 24 -21 24 -25 0 -27 -2 -21 -31z m6 -59 c0 -5 -9 -10 -21 -10 -11 0
-17 5 -14 10 3 6 13 10 21 10 8 0 14 -4 14 -10z m5 -40 c3 -6 -4 -10 -17 -10
-18 0 -20 2 -8 10 19 12 18 12 25 0z m0 -50 c-3 -5 -18 -10 -33 -10 -21 0 -24
2 -12 10 20 13 53 13 45 0z"/>
</g>
</svg>
