<?xml version="1.0" standalone="no"?>
<!DOCTYPE svg PUBLIC "-//W3C//DTD SVG 20010904//EN"
 "http://www.w3.org/TR/2001/REC-SVG-20010904/DTD/svg10.dtd">
<svg version="1.0" xmlns="http://www.w3.org/2000/svg"
 width="67.000000pt" height="49.000000pt" viewBox="0 0 67.000000 49.000000"
 preserveAspectRatio="xMidYMid meet">
<metadata>
Created by potrace 1.16, written by Peter Selinger 2001-2019
</metadata>
<g transform="translate(0.000000,49.000000) scale(0.100000,-0.100000)"
fill="#000000" stroke="none">
<path d="M40 438 c0 -7 6 -33 14 -58 8 -25 17 -103 21 -173 5 -82 11 -124 18
-120 6 4 8 43 4 108 -4 71 -1 124 9 171 8 38 14 72 14 76 0 5 -18 8 -40 8 -25
0 -40 -5 -40 -12z m50 -39 c0 -17 -4 -28 -10 -24 -5 3 -10 17 -10 31 0 13 5
24 10 24 6 0 10 -14 10 -31z"/>
<path d="M188 442 c-32 -4 -32 -3 -17 -73 9 -39 8 -57 -1 -74 -7 -14 -9 -28
-4 -37 5 -7 11 -59 14 -116 3 -59 9 -102 15 -102 6 1 9 20 8 43 -1 23 7 77 18
120 20 79 19 97 -7 97 -18 0 -17 11 1 80 8 30 11 57 7 60 -4 3 -19 4 -34 2z
m12 -37 c0 -8 -2 -15 -4 -15 -2 0 -6 7 -10 15 -3 8 -1 15 4 15 6 0 10 -7 10
-15z m10 -156 c0 -11 -4 -17 -10 -14 -5 3 -10 13 -10 21 0 8 5 14 10 14 6 0
10 -9 10 -21z"/>
<path d="M400 441 c0 -6 9 -47 20 -93 11 -46 20 -104 20 -129 0 -77 12 -169
22 -163 5 3 7 54 6 112 -2 59 1 146 5 195 l9 87 -41 0 c-23 0 -41 -4 -41 -9z
m54 -19 c3 -5 2 -26 -1 -48 l-6 -38 -12 39 c-6 22 -10 43 -8 48 6 10 21 9 27
-1z"/>
<path d="M514 439 c-2 -4 5 -36 16 -70 18 -52 38 -202 40 -286 0 -13 4 -23 9
-23 5 0 9 75 10 168 0 92 2 178 3 191 3 20 -2 23 -35 26 -21 1 -40 -2 -43 -6z
m55 -61 l-1 -43 -13 35 c-18 46 -18 50 0 50 11 0 15 -11 14 -42z"/>
<path d="M304 78 c3 -13 6 -32 6 -43 1 -20 1 -20 15 -1 23 30 19 66 -6 66 -17
0 -20 -4 -15 -22z"/>
<path d="M655 57 c-4 -10 -5 -21 -1 -24 10 -10 18 4 13 24 -4 17 -4 17 -12 0z"/>
</g>
</svg>
