<?xml version="1.0" standalone="no"?>
<!DOCTYPE svg PUBLIC "-//W3C//DTD SVG 20010904//EN"
 "http://www.w3.org/TR/2001/REC-SVG-20010904/DTD/svg10.dtd">
<svg version="1.0" xmlns="http://www.w3.org/2000/svg"
 width="90.000000pt" height="54.000000pt" viewBox="0 0 90.000000 54.000000"
 preserveAspectRatio="xMidYMid meet">
<metadata>
Created by potrace 1.16, written by Peter Selinger 2001-2019
</metadata>
<g transform="translate(0.000000,54.000000) scale(0.100000,-0.100000)"
fill="#000000" stroke="none">
<path d="M748 505 c-3 -3 -163 -6 -356 -7 l-351 -1 6 -31 c3 -17 7 -32 8 -34
2 -2 27 4 57 13 52 16 454 42 466 31 3 -3 -3 -15 -12 -25 -17 -19 -17 -21 4
-49 l23 -30 -22 -31 c-12 -17 -19 -35 -16 -41 4 -6 -6 -10 -24 -10 -17 0 -31
2 -31 4 0 3 9 21 21 40 14 23 25 33 36 29 13 -5 13 -2 -1 25 -9 17 -16 38 -16
47 0 19 -16 20 -24 0 -6 -18 2 -45 15 -45 5 0 9 -4 9 -10 0 -5 -6 -10 -14 -10
-16 0 -46 42 -46 66 0 13 -3 14 -15 4 -21 -17 -19 -27 10 -52 25 -22 33 -48
15 -48 -5 0 -10 -11 -10 -25 0 -18 -5 -25 -20 -25 -24 0 -24 3 -4 42 15 28 14
31 -5 52 -12 12 -21 32 -21 44 0 25 -18 29 -27 6 -3 -8 4 -29 16 -45 16 -21
19 -33 12 -46 -5 -10 -12 -26 -15 -35 -5 -18 -36 -26 -36 -9 0 4 10 20 21 35
l21 27 -26 28 c-15 16 -26 32 -24 37 2 5 -2 10 -7 12 -17 5 -17 -34 0 -48 19
-16 19 -34 -1 -51 -8 -7 -13 -21 -11 -31 4 -14 -1 -18 -18 -18 -20 0 -25 7
-30 38 -12 71 -10 69 -88 76 -39 3 -82 9 -95 12 -19 6 -22 3 -22 -26 0 -31 1
-32 32 -26 18 3 55 9 84 12 l53 7 11 -44 c14 -51 15 -87 6 -191 l-7 -75 37 -6
c21 -4 40 -4 43 -1 3 2 -5 41 -16 87 -11 45 -17 86 -13 90 10 11 122 27 193
27 34 0 57 4 57 11 0 6 7 26 16 45 14 28 14 42 5 78 -19 77 -22 75 82 78 53 2
91 7 90 13 -2 11 -17 18 -25 10z m-643 -35 c3 -5 -3 -10 -14 -10 -12 0 -21 5
-21 10 0 6 6 10 14 10 8 0 18 -4 21 -10z m221 -377 c-13 -14 -24 13 -18 47 l6
35 9 -38 c5 -21 6 -41 3 -44z"/>
<path d="M795 478 c-16 -6 -31 -12 -33 -13 -2 -2 4 -30 12 -63 11 -40 16 -105
16 -196 0 -75 4 -136 9 -136 4 0 10 78 13 174 4 127 10 182 21 204 21 43 14
48 -38 30z m15 -37 c0 -6 -4 -13 -10 -16 -5 -3 -10 1 -10 9 0 9 5 16 10 16 6
0 10 -4 10 -9z"/>
<path d="M668 326 l-28 -35 25 -29 c26 -31 75 -128 75 -149 0 -7 5 -13 10 -13
16 0 12 23 -20 119 -20 58 -28 100 -24 116 9 35 -6 31 -38 -9z m22 -36 c0 -5
-2 -10 -4 -10 -3 0 -8 5 -11 10 -3 6 -1 10 4 10 6 0 11 -4 11 -10z"/>
<path d="M172 343 c-44 -3 -62 -8 -59 -16 4 -12 131 -12 151 0 8 5 -14 24 -24
21 -3 -1 -33 -3 -68 -5z"/>
<path d="M187 292 c-48 -2 -67 -7 -64 -15 4 -13 136 -11 150 3 13 12 -12 15
-86 12z"/>
<path d="M183 233 c-36 -2 -63 -9 -63 -15 0 -6 25 -8 73 -5 39 3 73 6 75 6 2
1 0 6 -3 11 -3 6 -9 9 -13 8 -4 -1 -35 -3 -69 -5z"/>
<path d="M115 192 c-3 -3 -5 -14 -5 -24 0 -10 -4 -18 -10 -18 -5 0 -10 -6 -10
-14 0 -8 -12 -23 -27 -34 -27 -20 -27 -20 -9 -41 31 -34 52 -27 68 22 l13 42
65 3 c90 4 103 22 16 22 -42 0 -65 4 -61 10 3 6 33 10 66 10 33 0 59 4 59 10
0 6 -26 10 -57 11 -32 0 -68 2 -81 3 -12 2 -24 0 -27 -2z"/>
<path d="M853 3 c9 -2 25 -2 35 0 9 3 1 5 -18 5 -19 0 -27 -2 -17 -5z"/>
</g>
</svg>
