<?xml version="1.0" standalone="no"?>
<!DOCTYPE svg PUBLIC "-//W3C//DTD SVG 20010904//EN"
 "http://www.w3.org/TR/2001/REC-SVG-20010904/DTD/svg10.dtd">
<svg version="1.0" xmlns="http://www.w3.org/2000/svg"
 width="109.000000pt" height="226.000000pt" viewBox="0 0 109.000000 226.000000"
 preserveAspectRatio="xMidYMid meet">
<metadata>
Created by potrace 1.16, written by Peter Selinger 2001-2019
</metadata>
<g transform="translate(0.000000,226.000000) scale(0.100000,-0.100000)"
fill="#000000" stroke="none">
<path d="M333 2204 c-8 -22 -201 -157 -261 -184 -16 -7 -22 -16 -18 -28 8 -28
34 -182 42 -244 3 -32 11 -58 17 -58 7 0 8 37 4 110 -3 61 -2 110 2 110 9 0
144 -146 197 -213 19 -23 34 -50 34 -60 0 -10 6 -17 12 -15 9 3 13 28 13 76 0
39 3 73 6 76 22 22 222 -85 227 -122 2 -12 9 -22 16 -22 9 0 15 57 23 223 9
197 24 299 41 283 5 -6 31 -130 32 -153 0 -7 -7 -13 -16 -13 -14 0 -15 -7 -10
-37 4 -21 9 -96 13 -166 6 -133 23 -186 23 -74 0 36 11 108 25 163 14 54 25
100 25 101 0 2 -9 3 -20 3 -28 0 -27 20 6 205 l6 30 -87 0 c-82 0 -86 -1 -81
-21 8 -31 26 -156 26 -182 l0 -23 -32 22 c-67 47 -188 172 -188 195 0 18 -7
23 -36 26 -22 3 -38 0 -41 -8z m56 -36 c-1 -13 -5 -36 -9 -53 -6 -22 -8 -24
-9 -9 0 12 -4 36 -7 53 -5 24 -3 31 10 31 10 0 16 -8 15 -22z m-37 -275 c1
-101 -1 -185 -3 -188 -10 -9 -146 160 -182 225 l-36 64 20 25 c11 14 57 53
102 88 l82 63 7 -48 c4 -26 8 -129 10 -229z m307 265 c-1 -7 -5 -24 -9 -38 -7
-22 -8 -21 -9 13 -1 20 4 37 9 37 6 0 10 -6 9 -12z m80 -5 c0 -10 -4 -27 -8
-37 -7 -18 -8 -18 -14 5 -10 37 -8 49 8 49 8 0 15 -8 14 -17z m-299 -55 c0 -6
-7 -5 -15 2 -8 7 -15 17 -15 22 0 6 7 5 15 -2 8 -7 15 -17 15 -22z m108 -101
l72 -49 0 -112 c0 -61 -4 -116 -8 -122 -12 -19 -231 123 -233 151 -3 38 3 128
12 173 l11 53 36 -22 c20 -13 70 -45 110 -72z m-461 -34 c-3 -10 -5 -4 -5 12
0 17 2 24 5 18 2 -7 2 -21 0 -30z m53 -37 c0 -5 -7 -3 -15 4 -8 7 -15 22 -15
34 1 20 2 20 15 -4 8 -14 14 -29 15 -34z m610 2 c-1 -7 -7 -26 -15 -43 l-13
-30 -1 43 c-1 31 3 42 14 42 8 0 15 -6 15 -12z m-355 -118 c3 -5 2 -10 -4 -10
-5 0 -13 5 -16 10 -3 6 -2 10 4 10 5 0 13 -4 16 -10z"/>
<path d="M945 1758 c-2 -7 -1 -29 3 -48 l8 -35 19 29 c13 20 16 32 9 44 -14
21 -33 27 -39 10z"/>
<path d="M904 1438 c20 -96 25 -142 15 -148 -9 -6 -6 -62 7 -130 1 -8 3 -50 3
-92 1 -45 5 -78 11 -78 6 0 10 28 10 63 0 34 9 97 20 141 25 97 25 96 0 96
-25 0 -25 17 0 98 11 35 20 68 20 73 0 5 -21 9 -46 9 l-46 0 6 -32z m56 3 c0
-5 -3 -23 -7 -42 -5 -28 -7 -30 -14 -14 -13 34 -10 65 6 65 8 0 15 -4 15 -9z
m-6 -213 l-8 -33 -6 30 c-3 17 -1 33 4 37 16 11 19 2 10 -34z"/>
<path d="M454 1426 c-3 -8 -4 -21 -2 -28 5 -14 -46 -57 -164 -135 -79 -52
-113 -85 -73 -69 17 6 20 -5 4 -21 -7 -7 5 -20 42 -43 66 -40 219 -189 219
-212 0 -10 5 -18 11 -18 6 0 9 28 8 77 -2 77 -2 77 27 90 30 12 219 18 248 7
11 -4 16 -19 16 -45 0 -21 5 -39 10 -39 6 0 10 53 10 138 0 114 4 149 21 203
12 35 26 68 30 74 18 19 8 25 -41 25 l-50 0 7 -47 c4 -27 7 -61 8 -78 l0 -30
-115 3 c-168 4 -164 2 -155 65 12 92 13 90 -23 94 -22 3 -34 -1 -38 -11z m40
-58 c-9 -57 -11 -58 -16 -4 -2 32 1 46 10 46 9 0 10 -11 6 -42z m335 30 c-1
-7 -4 -24 -9 -38 l-7 -25 -8 27 c-7 28 -1 48 16 48 5 0 9 -6 8 -12z m-356
-281 l5 -148 -78 76 c-78 78 -133 166 -114 185 5 5 45 27 89 49 l80 41 6 -27
c4 -16 9 -95 12 -176z m47 143 c0 -5 -4 -10 -10 -10 -5 0 -10 5 -10 10 0 6 5
10 10 10 6 0 10 -4 10 -10z m265 -90 l0 -74 -55 2 c-30 1 -97 7 -147 13 l-93
11 0 53 0 53 53 9 c28 5 95 9 147 9 l95 -1 0 -75z m-507 -5 c11 -24 10 -25 -8
-15 -11 6 -20 17 -20 25 0 23 16 17 28 -10z m252 -69 c0 -2 -9 -6 -20 -9 -11
-3 -20 -1 -20 4 0 5 9 9 20 9 11 0 20 -2 20 -4z"/>
<path d="M130 1188 c0 -2 -2 -46 -4 -98 -2 -52 -7 -106 -12 -119 -5 -17 -4
-23 6 -19 7 2 20 33 30 68 9 36 24 79 33 97 23 43 21 60 -5 67 -24 6 -48 8
-48 4z m40 -42 c0 -8 -4 -18 -10 -21 -5 -3 -10 3 -10 14 0 12 5 21 10 21 6 0
10 -6 10 -14z"/>
<path d="M1005 930 c-4 -6 -2 -17 4 -24 6 -7 9 -21 5 -30 -3 -9 -1 -16 5 -16
16 0 35 45 28 64 -7 18 -33 21 -42 6z"/>
<path d="M710 687 c0 -7 9 -39 21 -71 25 -71 23 -138 -4 -142 -30 -4 -31 -11
-9 -62 24 -54 36 -154 41 -315 1 -30 5 -46 11 -42 6 4 8 41 4 99 -5 85 3 164
32 299 5 21 3 27 -10 27 -9 0 -19 6 -22 14 -5 13 20 159 33 193 4 10 -8 13
-46 13 -35 0 -51 -4 -51 -13z m69 -29 c-1 -13 -4 -34 -8 -48 -7 -24 -8 -23
-24 18 -21 54 -22 52 8 52 20 0 25 -5 24 -22z m0 -225 c-1 -16 -4 -41 -8 -58
-7 -30 -7 -30 -24 19 -9 27 -17 51 -17 52 0 2 26 10 43 13 4 0 6 -11 6 -26z"/>
<path d="M463 661 c6 -27 1 -33 -71 -86 -42 -32 -87 -62 -100 -68 -19 -9 -22
-16 -17 -36 4 -15 7 -41 7 -59 -1 -28 5 -35 41 -54 87 -44 169 -102 180 -127
11 -24 12 -23 15 26 2 44 6 51 20 47 14 -5 14 -3 -2 10 -11 9 -17 19 -13 22 8
8 37 -14 38 -30 0 -6 25 -23 55 -39 40 -20 54 -23 54 -13 0 8 -16 24 -35 36
-20 12 -41 27 -48 34 -6 7 -24 20 -39 30 -27 18 -28 21 -28 107 0 49 2 89 5
89 10 0 78 -40 115 -66 62 -45 43 -9 -35 67 -71 69 -76 76 -70 106 6 33 6 33
-36 33 -41 0 -41 -1 -36 -29z m46 -44 c0 -33 -2 -38 -9 -22 -12 28 -12 78 0
70 6 -3 10 -25 9 -48z m-25 -79 c13 -148 16 -247 7 -253 -11 -6 -183 154 -179
167 4 12 150 158 159 158 4 0 10 -33 13 -72z m66 37 c11 -13 10 -14 -4 -9 -9
3 -16 10 -16 15 0 13 6 11 20 -6z m-236 -90 c-4 -8 -11 -15 -16 -15 -6 0 -5 6
2 15 7 8 14 15 16 15 2 0 1 -7 -2 -15z m23 -102 c-8 -7 -37 9 -31 19 3 5 12 4
20 -3 8 -6 13 -14 11 -16z"/>
<path d="M125 646 c2 -17 9 -58 15 -90 5 -33 10 -135 10 -228 0 -105 4 -168
10 -168 6 0 10 55 10 144 0 119 4 163 25 251 14 59 23 110 20 113 -3 3 -26 7
-50 8 l-45 1 5 -31z m65 -3 c-2 -26 -28 -124 -29 -107 -1 12 -4 42 -7 68 -6
42 -5 46 15 46 11 0 21 -3 21 -7z"/>
<path d="M220 426 c0 -32 17 -34 23 -3 3 17 5 15 6 -8 0 -17 -3 -35 -7 -40
-11 -12 -3 -155 8 -155 4 0 10 42 13 93 3 50 7 101 9 112 2 15 -3 21 -24 23
-24 3 -28 0 -28 -22z"/>
<path d="M968 138 c-7 -19 2 -38 17 -38 12 0 25 21 25 41 0 14 -37 11 -42 -3z"/>
</g>
</svg>
