<?xml version="1.0" standalone="no"?>
<!DOCTYPE svg PUBLIC "-//W3C//DTD SVG 20010904//EN"
 "http://www.w3.org/TR/2001/REC-SVG-20010904/DTD/svg10.dtd">
<svg version="1.0" xmlns="http://www.w3.org/2000/svg"
 width="122.000000pt" height="134.000000pt" viewBox="0 0 122.000000 134.000000"
 preserveAspectRatio="xMidYMid meet">
<metadata>
Created by potrace 1.16, written by Peter Selinger 2001-2019
</metadata>
<g transform="translate(0.000000,134.000000) scale(0.100000,-0.100000)"
fill="#000000" stroke="none">
<path d="M489 1272 c-9 -27 -17 -32 -56 -38 -71 -11 -253 1 -295 19 -46 19
-57 7 -23 -27 29 -29 30 -40 10 -80 -21 -40 -19 -46 15 -46 27 0 129 -56 130
-71 0 -3 -11 -22 -25 -42 -25 -38 -19 -55 15 -37 30 16 25 3 -22 -59 -23 -31
-44 -58 -45 -60 -2 -2 -13 0 -25 6 -35 16 -41 11 -42 -30 l-1 -39 35 7 c19 4
126 9 238 12 l203 4 -15 -24 c-28 -42 -7 -36 42 12 26 26 76 71 112 100 36 30
65 60 65 68 0 8 -13 22 -28 31 -25 15 -29 15 -37 2 -28 -45 -27 -45 -64 -17
-19 15 -39 27 -43 27 -5 0 -22 20 -37 45 -16 24 -31 43 -35 41 -13 -9 -44 -77
-37 -83 4 -4 26 -8 49 -8 32 0 52 -8 84 -34 l41 -33 -36 -54 c-32 -47 -38 -52
-54 -41 -9 6 -71 49 -138 95 -66 46 -120 87 -120 91 0 9 101 135 112 139 17 7
7 27 -18 39 -31 14 -44 9 -44 -17 0 -22 -32 -97 -53 -125 -15 -19 -16 -19 -36
-1 -12 11 -24 16 -27 13 -4 -4 -33 16 -66 45 -55 47 -58 52 -43 68 28 31 94
42 226 38 119 -3 127 -4 191 -37 l67 -35 -25 -41 c-13 -23 -24 -47 -24 -53 0
-25 16 -9 49 46 19 31 47 73 62 92 26 34 27 36 9 58 -30 36 -47 28 -54 -28 -4
-27 -9 -50 -12 -50 -20 0 -70 38 -113 87 l-51 57 -11 -32z m39 -41 c3 -8 -1
-12 -9 -9 -7 2 -15 10 -17 17 -3 8 1 12 9 9 7 -2 15 -10 17 -17z m185 -26 c-8
-22 -22 -18 -16 5 3 11 9 17 14 15 4 -3 6 -12 2 -20z m-526 4 c-14 -8 -22 -8
-30 0 -8 8 -3 11 19 11 25 -1 27 -2 11 -11z m253 -48 c0 -6 -4 -13 -10 -16 -5
-3 -10 1 -10 9 0 9 5 16 10 16 6 0 10 -4 10 -9z m144 -146 c3 -9 0 -15 -9 -15
-16 0 -27 14 -18 24 10 10 21 7 27 -9z m-276 -17 c-3 -7 -13 -15 -24 -17 -16
-3 -17 -1 -5 13 16 19 34 21 29 4z m153 -100 c60 -39 109 -75 109 -79 0 -6
-340 -1 -348 6 -1 1 12 22 30 46 18 24 41 56 51 72 10 15 25 27 33 27 9 0 65
-32 125 -72z m319 55 c0 -10 -62 -73 -72 -73 -5 0 4 18 18 40 23 35 54 54 54
33z"/>
<path d="M765 1280 c-3 -6 0 -13 9 -16 32 -12 40 -67 45 -304 4 -149 10 -234
16 -232 6 1 9 52 7 135 l-4 132 47 23 c39 19 62 22 161 22 76 0 114 4 112 10
-2 7 -54 12 -133 13 -75 1 -142 7 -157 14 -26 12 -28 17 -28 71 0 37 7 71 19
94 10 21 16 40 13 43 -10 9 -101 5 -107 -5z m68 -40 c-3 -11 -7 -20 -8 -20 -1
0 -5 9 -8 20 -3 12 0 20 8 20 8 0 11 -8 8 -20z m45 -188 c9 -6 6 -12 -13 -20
-22 -10 -25 -9 -25 8 0 21 16 26 38 12z"/>
<path d="M310 1090 c0 -5 5 -10 10 -10 6 0 10 5 10 10 0 6 -4 10 -10 10 -5 0
-10 -4 -10 -10z"/>
<path d="M100 1070 c0 -5 5 -10 10 -10 6 0 10 5 10 10 0 6 -4 10 -10 10 -5 0
-10 -4 -10 -10z"/>
<path d="M1149 874 c-11 -13 -11 -18 -2 -21 8 -3 11 -14 7 -29 -8 -30 11 -32
26 -3 23 43 -3 87 -31 53z"/>
<path d="M435 530 c-16 -18 -30 -20 -121 -20 -56 0 -125 5 -153 12 -28 6 -53
9 -56 6 -3 -3 -1 -18 5 -33 9 -24 8 -30 -10 -42 -28 -20 -25 -27 17 -44 25
-10 46 -30 70 -66 18 -29 33 -58 33 -66 0 -16 -48 -66 -94 -98 -47 -32 -69
-66 -61 -96 5 -22 10 -24 38 -19 18 4 90 9 162 12 157 7 191 24 50 24 -55 1
-127 6 -160 13 l-59 13 73 57 c40 31 80 57 88 57 23 0 55 -20 82 -54 59 -71
80 -91 87 -84 4 4 -14 32 -40 62 -25 30 -46 57 -46 60 0 3 13 12 30 21 l30 15
45 -57 c25 -32 45 -61 45 -64 0 -4 -22 -21 -49 -39 -55 -35 -81 -60 -62 -60 6
0 44 22 84 49 40 27 91 58 115 70 45 23 50 35 26 66 -15 20 -15 20 -34 -3 -11
-13 -28 -36 -39 -50 -11 -15 -21 -25 -23 -22 -2 3 -23 31 -47 62 -23 31 -40
61 -37 66 8 13 150 82 169 82 35 0 24 23 -49 102 -43 46 -80 84 -84 86 -3 1
-15 -7 -25 -18z m92 -82 c25 -26 26 -30 12 -55 -8 -14 -41 -44 -74 -65 l-60
-38 -14 32 -13 33 -24 -30 c-30 -37 -30 -41 -1 -49 l22 -6 -25 -13 c-23 -13
-26 -12 -38 15 -13 31 -22 34 -40 16 -6 -6 -14 -10 -16 -7 -10 10 135 188 169
207 24 13 68 -5 102 -40z m-167 37 c0 -13 -34 -72 -59 -102 -14 -17 -34 -43
-44 -58 l-19 -26 -37 63 c-48 79 -57 108 -40 119 15 9 199 13 199 4z m220 -99
c0 -3 -4 -8 -10 -11 -5 -3 -10 -1 -10 4 0 6 5 11 10 11 6 0 10 -2 10 -4z m15
-186 c3 -5 -1 -10 -10 -10 -9 0 -13 5 -10 10 3 6 8 10 10 10 2 0 7 -4 10 -10z
m-490 -110 c3 -5 -1 -10 -10 -10 -9 0 -13 5 -10 10 3 6 8 10 10 10 2 0 7 -4
10 -10z"/>
<path d="M616 543 c-2 -2 3 -25 11 -51 8 -27 17 -114 21 -202 4 -95 11 -154
17 -152 6 1 10 34 10 74 l0 71 53 18 c40 14 78 18 157 16 78 -1 105 1 105 11
0 9 -31 12 -122 12 -68 0 -140 3 -160 6 l-38 7 0 59 c0 32 7 74 14 93 8 19 14
35 13 36 -12 3 -78 5 -81 2z m44 -39 c0 -8 -4 -12 -10 -9 -5 3 -10 10 -10 16
0 5 5 9 10 9 6 0 10 -7 10 -16z m40 -184 c-19 -13 -30 -13 -30 0 0 6 10 10 23
10 18 0 19 -2 7 -10z"/>
<path d="M1127 233 c-11 -10 -8 -41 4 -49 16 -9 41 20 33 39 -6 17 -25 22 -37
10z"/>
</g>
</svg>
