<?xml version="1.0" standalone="no"?>
<!DOCTYPE svg PUBLIC "-//W3C//DTD SVG 20010904//EN"
 "http://www.w3.org/TR/2001/REC-SVG-20010904/DTD/svg10.dtd">
<svg version="1.0" xmlns="http://www.w3.org/2000/svg"
 width="134.000000pt" height="104.000000pt" viewBox="0 0 134.000000 104.000000"
 preserveAspectRatio="xMidYMid meet">
<metadata>
Created by potrace 1.16, written by Peter Selinger 2001-2019
</metadata>
<g transform="translate(0.000000,104.000000) scale(0.100000,-0.100000)"
fill="#000000" stroke="none">
<path d="M816 908 l-99 -99 48 -90 c26 -50 50 -102 54 -117 4 -15 14 -27 22
-27 16 0 16 -2 -23 114 -29 86 -34 163 -10 154 6 -3 12 -1 12 4 0 6 27 42 59
81 51 60 65 86 42 81 -3 -1 -51 -46 -105 -101z m-44 -85 c-6 -9 -6 -29 -1 -46
12 -44 3 -45 -11 -2 -9 28 -9 39 0 50 17 20 23 19 12 -2z"/>
<path d="M127 912 c-37 -37 -67 -74 -67 -83 0 -23 68 -183 80 -187 16 -6 13 8
-25 97 -40 95 -45 77 48 173 44 47 57 68 39 68 -4 0 -38 -30 -75 -68z"/>
<path d="M194 896 c-14 -55 -6 -61 76 -56 111 7 232 4 260 -7 23 -10 21 -11
-30 -22 -30 -7 -82 -14 -115 -18 -33 -3 -67 -12 -75 -19 -9 -7 -32 -20 -53
-29 -34 -14 -37 -14 -37 1 0 9 9 18 20 21 30 8 24 23 -9 23 -24 0 -30 -5 -33
-27 -3 -16 -9 -37 -13 -47 -7 -16 -5 -18 11 -13 10 4 59 20 109 37 50 17 148
42 220 56 118 24 156 36 144 48 -2 2 -44 9 -94 15 -49 6 -112 15 -140 20 -27
5 -84 14 -125 20 -41 6 -83 14 -92 17 -12 4 -19 -2 -24 -20z m161 -27 c12 -5
-11 -8 -62 -8 -76 -1 -94 4 -76 22 7 8 109 -2 138 -14z"/>
<path d="M854 879 c-12 -20 10 -26 171 -48 88 -12 161 -24 163 -26 2 -2 -18
-6 -45 -10 -26 -4 -59 -11 -73 -16 -14 -4 -69 -15 -123 -23 -102 -15 -113 -18
-103 -34 5 -8 216 30 311 57 22 6 51 11 65 11 27 0 58 16 49 24 -3 3 -84 17
-180 31 -96 14 -184 30 -197 35 -29 12 -29 12 -38 -1z"/>
<path d="M637 662 c-8 -11 4 -62 14 -62 12 0 28 41 22 58 -6 13 -29 16 -36 4z"/>
<path d="M1287 646 c-4 -9 -2 -18 4 -22 5 -3 7 -15 3 -26 -4 -15 -2 -19 7 -16
17 6 19 70 3 75 -6 2 -14 -3 -17 -11z"/>
<path d="M113 337 c-48 -37 -51 -47 -22 -93 11 -19 36 -70 54 -114 18 -45 35
-84 39 -87 4 -4 4 45 1 108 -8 150 -15 219 -23 218 -4 0 -26 -15 -49 -32z m41
-29 c8 -37 12 -168 5 -160 -3 4 -12 23 -19 42 -7 19 -22 48 -33 63 -19 28 -19
28 4 53 28 30 37 30 43 2z"/>
<path d="M768 363 c-34 -3 -48 -8 -48 -19 0 -7 5 -14 10 -14 23 0 50 -65 50
-120 0 -77 11 -160 21 -160 5 0 6 46 3 103 -6 98 -5 104 24 160 28 55 28 57 8
55 -12 -1 -42 -3 -68 -5z m36 -47 c-6 -24 -24 -37 -24 -17 0 5 -3 16 -6 24 -3
10 1 17 13 19 24 6 25 4 17 -26z"/>
<path d="M850 297 c0 -9 30 -17 101 -26 55 -7 103 -11 106 -7 7 7 -5 11 -77
24 -120 23 -130 24 -130 9z"/>
<path d="M200 288 c0 -11 40 -20 168 -37 92 -13 171 -27 175 -31 4 -4 -11 -10
-35 -14 -171 -27 -292 -53 -296 -65 -5 -16 -15 -17 231 33 97 20 180 36 182
36 3 0 5 4 5 9 0 14 -20 19 -210 46 -95 14 -184 28 -197 31 -16 4 -23 2 -23
-8z"/>
<path d="M1074 262 c3 -6 35 -14 71 -17 36 -4 65 -11 65 -16 0 -5 -9 -9 -21
-9 -11 0 -60 -9 -107 -21 -48 -11 -109 -25 -137 -30 -80 -17 -98 -23 -103 -36
-5 -17 22 -16 61 1 26 11 244 66 365 92 39 8 16 21 -50 28 -35 3 -83 9 -107
13 -30 4 -42 3 -37 -5z"/>
<path d="M1275 131 c-8 -15 3 -31 21 -31 9 0 14 7 12 17 -4 20 -24 28 -33 14z"/>
<path d="M666 93 c9 -49 11 -51 25 -20 14 30 6 57 -16 57 -13 0 -15 -7 -9 -37z"/>
</g>
</svg>
