<?xml version="1.0" standalone="no"?>
<!DOCTYPE svg PUBLIC "-//W3C//DTD SVG 20010904//EN"
 "http://www.w3.org/TR/2001/REC-SVG-20010904/DTD/svg10.dtd">
<svg version="1.0" xmlns="http://www.w3.org/2000/svg"
 width="99.000000pt" height="192.000000pt" viewBox="0 0 99.000000 192.000000"
 preserveAspectRatio="xMidYMid meet">
<metadata>
Created by potrace 1.16, written by Peter Selinger 2001-2019
</metadata>
<g transform="translate(0.000000,192.000000) scale(0.100000,-0.100000)"
fill="#000000" stroke="none">
<path d="M53 1913 c26 -2 67 -2 90 0 23 2 2 3 -48 3 -50 0 -68 -1 -42 -3z"/>
<path d="M763 1854 c-18 -8 -33 -18 -33 -24 0 -12 -121 -74 -208 -106 -53 -20
-80 -24 -180 -24 -64 1 -148 5 -187 10 -56 7 -71 6 -78 -5 -4 -8 -15 -11 -24
-8 -14 6 -15 1 -8 -38 5 -24 9 -92 10 -152 0 -116 16 -143 25 -41 4 52 8 59
28 62 21 3 22 0 22 -57 0 -34 4 -61 10 -61 6 0 10 28 10 64 l0 64 53 5 c28 2
75 3 102 1 28 -1 69 -4 91 -5 28 -1 62 -14 105 -40 35 -21 98 -57 139 -80 41
-23 83 -49 92 -57 9 -8 21 -12 27 -11 6 3 12 69 15 164 3 88 12 201 21 250 8
50 15 93 15 98 0 10 -9 8 -47 -9z m8 -76 l-9 -33 -1 41 c-1 22 2 44 7 48 12
12 14 -19 3 -56z m-27 -9 c11 -56 7 -379 -5 -379 -14 0 -243 135 -263 156 -27
27 -20 86 14 119 23 22 208 124 241 133 4 1 9 -12 13 -29z m-316 -127 c2 -19
-4 -44 -12 -57 -16 -24 -17 -24 -138 -18 -68 3 -125 7 -127 9 -2 1 3 26 10 54
l13 51 125 -3 126 -3 3 -33z m-310 -21 c16 -50 15 -51 -7 -51 -27 0 -33 13
-25 55 8 45 18 44 32 -4z m319 -63 c-3 -8 -6 -5 -6 6 -1 11 2 17 5 13 3 -3 4
-12 1 -19z"/>
<path d="M655 1694 c-27 -19 -57 -37 -65 -39 -13 -5 -50 -69 -50 -87 0 -3 13
-8 28 -11 15 -3 52 -22 81 -42 30 -19 56 -33 59 -31 8 8 -19 36 -49 52 -52 27
-48 62 18 135 48 53 38 63 -22 23z m-36 -66 c-9 -16 -14 -19 -17 -9 -2 7 2 17
9 22 20 13 21 11 8 -13z m-26 -51 c-3 -5 -10 -4 -15 1 -6 6 -7 16 -3 22 6 9 9
9 16 -1 4 -7 5 -17 2 -22z"/>
<path d="M885 1470 c-3 -5 -3 -16 2 -22 4 -7 6 -21 5 -30 -2 -10 2 -18 8 -18
13 0 33 49 26 67 -6 15 -32 17 -41 3z"/>
<path d="M729 1183 c-32 -36 -165 -126 -189 -129 -88 -10 -180 -16 -294 -18
-113 -2 -131 -5 -134 -19 -2 -12 -13 -17 -34 -17 -27 0 -30 -3 -24 -22 18 -63
27 -150 21 -212 -5 -52 -4 -67 6 -64 7 2 14 22 15 44 1 21 2 42 3 46 1 7 54
38 66 38 3 0 5 -20 5 -45 0 -60 18 -58 22 3 l3 47 115 8 c63 4 131 13 150 18
43 13 102 -4 216 -62 42 -22 79 -39 84 -39 4 0 10 71 13 158 3 86 12 180 20
207 7 28 12 56 10 63 -7 18 -56 15 -74 -5z m50 -20 c-1 -10 -4 -29 -8 -43 -7
-23 -8 -22 -12 13 -3 21 -3 40 0 42 10 11 21 4 20 -12z m-31 -203 l4 -170 -67
31 c-120 54 -134 69 -94 105 20 18 21 18 50 -16 34 -41 39 -23 7 21 l-23 31
34 29 c40 33 35 52 -5 20 -33 -26 -44 -27 -44 -1 0 22 -20 26 -38 8 -15 -15
-16 -48 -2 -48 18 0 10 -18 -10 -23 -13 -3 -20 -14 -20 -28 0 -21 -1 -21 -19
-5 -17 15 -17 20 -5 44 29 58 200 199 219 181 5 -5 11 -86 13 -179z m-246 60
c-18 -8 -21 -15 -16 -35 4 -17 0 -40 -12 -65 -21 -42 -7 -38 -218 -55 l-58 -5
6 45 c8 47 6 49 -32 39 -21 -6 -23 -11 -17 -45 6 -37 5 -39 -19 -39 -24 0 -26
3 -26 43 0 23 4 47 8 53 18 26 247 70 377 72 28 1 28 0 7 -8z m-335 -16 c-3
-3 -12 -4 -19 -1 -8 3 -5 6 6 6 11 1 17 -2 13 -5z m-73 -49 c-4 -8 -8 -15 -10
-15 -2 0 -4 7 -4 15 0 8 4 15 10 15 5 0 7 -7 4 -15z m411 -55 c3 -5 1 -10 -4
-10 -6 0 -11 5 -11 10 0 6 2 10 4 10 3 0 8 -4 11 -10z"/>
<path d="M892 848 c-6 -8 -7 -19 -3 -27 5 -7 6 -22 4 -32 -8 -31 14 -22 27 12
11 25 11 33 -2 45 -12 12 -17 13 -26 2z"/>
<path d="M780 555 c-16 -20 -208 -155 -219 -155 -5 0 -14 -7 -21 -16 -12 -13
-44 -15 -232 -12 l-219 3 2 -115 c0 -63 3 -123 6 -132 7 -28 23 -21 23 11 0
21 6 30 23 35 33 9 385 7 389 -2 2 -4 23 -26 48 -49 42 -38 51 -42 130 -51 47
-6 93 -14 102 -17 15 -6 16 2 11 82 -5 79 16 330 33 398 5 20 2 25 -14 25 -11
0 -27 2 -35 5 -7 3 -20 -1 -27 -10z m49 -52 c0 -21 -4 -47 -9 -58 -6 -14 -9
-4 -9 38 -1 32 3 57 9 57 6 0 10 -17 9 -37z m-35 -35 c3 -29 6 -106 6 -170 0
-116 0 -118 -22 -118 -27 0 -64 30 -102 83 -29 40 -46 46 -66 22 -28 -34 63
-111 147 -123 37 -6 48 -11 47 -25 -4 -53 1 -50 -76 -42 -40 3 -79 11 -85 17
-7 6 -13 7 -13 2 0 -4 -20 11 -44 35 l-44 43 -1 78 c-1 78 -1 78 31 98 18 11
71 50 118 85 47 36 88 66 91 66 3 1 9 -23 13 -51z m-283 -132 c0 -6 2 -38 5
-71 l5 -60 -199 -3 -199 -3 -7 57 c-4 33 -2 62 3 67 5 5 74 12 153 16 198 10
238 9 239 -3z m169 -118 c0 -6 -11 -1 -25 12 -14 13 -25 31 -25 39 1 11 8 8
25 -12 14 -15 25 -33 25 -39z"/>
<path d="M718 385 c-27 -24 -48 -46 -48 -49 0 -3 17 -5 38 -4 20 1 45 -2 55
-6 16 -7 17 -3 16 43 -1 29 -5 53 -8 55 -3 2 -27 -15 -53 -39z m32 -21 c0 -8
-5 -12 -10 -9 -6 4 -8 11 -5 16 9 14 15 11 15 -7z"/>
<path d="M905 160 c-4 -7 -3 -16 3 -22 14 -14 45 -2 40 15 -6 16 -34 21 -43 7z"/>
<path d="M248 3 c139 -2 364 -2 500 0 136 1 22 2 -253 2 -275 0 -386 -1 -247
-2z"/>
</g>
</svg>
