<?xml version="1.0" standalone="no"?>
<!DOCTYPE svg PUBLIC "-//W3C//DTD SVG 20010904//EN"
 "http://www.w3.org/TR/2001/REC-SVG-20010904/DTD/svg10.dtd">
<svg version="1.0" xmlns="http://www.w3.org/2000/svg"
 width="102.000000pt" height="68.000000pt" viewBox="0 0 102.000000 68.000000"
 preserveAspectRatio="xMidYMid meet">
<metadata>
Created by potrace 1.16, written by Peter Selinger 2001-2019
</metadata>
<g transform="translate(0.000000,68.000000) scale(0.100000,-0.100000)"
fill="#000000" stroke="none">
<path d="M290 622 c0 -26 -2 -27 -41 -24 -41 4 -41 4 -35 -24 23 -119 28 -177
24 -336 -1 -97 0 -179 4 -183 3 -3 30 1 59 9 29 9 98 19 154 22 55 3 116 8
135 9 19 2 50 4 68 4 l32 1 0 158 c1 139 8 214 35 339 l7 32 -183 0 c-101 0
-200 5 -219 11 -19 5 -36 10 -37 10 -2 0 -3 -12 -3 -28z m55 -12 c3 -5 -3 -10
-15 -10 -12 0 -18 5 -15 10 3 6 10 10 15 10 5 0 12 -4 15 -10z m317 -50 c3
-25 7 -135 7 -246 l1 -200 -205 -3 -205 -2 0 142 c0 117 2 140 13 130 8 -6 16
-8 19 -5 3 3 34 8 69 12 35 4 64 12 64 17 0 6 -34 11 -77 13 -57 2 -78 6 -78
16 0 21 63 46 114 46 75 0 52 19 -26 22 l-73 3 -3 31 c-3 30 -1 31 55 44 54
12 236 29 293 26 22 -1 26 -7 32 -46z m37 33 c0 -10 -4 -27 -9 -38 -7 -16 -9
-13 -9 18 -1 20 4 37 9 37 6 0 10 -8 9 -17z m-439 -48 c0 -19 -4 -35 -10 -35
-5 0 -10 16 -10 35 0 19 5 35 10 35 6 0 10 -16 10 -35z"/>
<path d="M454 517 c-10 -28 0 -52 21 -49 11 2 48 3 83 4 69 1 83 14 25 23 -81
13 -98 18 -110 27 -9 7 -15 6 -19 -5z"/>
<path d="M456 412 c-12 -20 6 -44 28 -38 12 3 48 8 79 12 67 8 76 24 15 24
-24 0 -59 3 -79 6 -21 4 -39 2 -43 -4z"/>
<path d="M273 324 c-7 -18 6 -36 20 -27 6 4 23 7 37 8 14 1 45 2 69 3 68 3 37
19 -47 25 -55 3 -75 1 -79 -9z"/>
<path d="M457 321 c-7 -28 3 -32 44 -21 19 6 52 10 74 10 22 0 47 5 55 10 10
7 -6 10 -55 10 -38 0 -80 3 -91 6 -16 4 -23 0 -27 -15z"/>
<path d="M273 244 c-9 -24 5 -47 25 -39 32 14 147 22 159 13 8 -7 29 -6 60 1
27 6 64 12 83 13 70 6 43 18 -47 22 -51 2 -93 -1 -93 -5 0 -11 -81 -11 -138 0
-34 7 -45 5 -49 -5z"/>
<path d="M39 385 c0 -3 -1 -20 -2 -37 0 -37 5 -38 68 -14 22 8 59 15 83 16 23
0 42 5 42 10 0 6 -30 10 -69 10 -38 0 -81 4 -95 10 -14 5 -26 7 -27 5z"/>
<path d="M700 356 c0 -41 7 -43 66 -22 22 7 67 17 102 21 80 9 80 25 0 25 -35
0 -87 3 -115 6 l-53 7 0 -37z m80 9 c0 -8 -44 -23 -53 -18 -14 8 4 23 29 23
13 0 24 -2 24 -5z"/>
</g>
</svg>
