<?xml version="1.0" standalone="no"?>
<!DOCTYPE svg PUBLIC "-//W3C//DTD SVG 20010904//EN"
 "http://www.w3.org/TR/2001/REC-SVG-20010904/DTD/svg10.dtd">
<svg version="1.0" xmlns="http://www.w3.org/2000/svg"
 width="119.000000pt" height="119.000000pt" viewBox="0 0 119.000000 119.000000"
 preserveAspectRatio="xMidYMid meet">
<metadata>
Created by potrace 1.16, written by Peter Selinger 2001-2019
</metadata>
<g transform="translate(0.000000,119.000000) scale(0.100000,-0.100000)"
fill="#000000" stroke="none">
<path d="M921 1146 l-22 -24 28 -26 c15 -14 32 -26 37 -26 6 0 -6 -17 -26 -37
-36 -37 -37 -38 -19 -62 l18 -23 28 57 c27 56 27 58 11 91 -9 19 -16 44 -16
54 0 26 -12 25 -39 -4z"/>
<path d="M240 1118 c-7 -19 -9 -20 -9 -5 -1 25 -23 17 -36 -12 -9 -22 -14 -23
-73 -17 -62 7 -63 6 -60 -16 2 -16 9 -22 23 -20 11 1 41 5 68 8 26 4 47 3 48
-2 0 -5 2 -28 5 -51 3 -29 1 -43 -7 -43 -7 0 -9 -10 -6 -26 4 -22 2 -25 -22
-20 -14 3 -45 8 -69 11 -42 7 -43 6 -40 -16 2 -15 9 -23 18 -21 8 2 38 6 66 9
47 5 51 4 57 -18 4 -13 7 -36 7 -51 l0 -27 60 40 c33 22 60 43 60 48 0 11 -76
71 -91 71 -8 0 -8 4 1 15 7 8 18 15 25 15 6 0 26 7 43 16 34 16 42 38 18 47
-8 3 -25 24 -38 46 -26 47 -35 50 -48 19z m44 -62 l29 -24 -36 -17 c-44 -21
-57 -14 -57 31 0 42 21 45 64 10z m16 -165 c0 -6 -66 -51 -75 -51 -7 0 -6 65
1 72 6 7 74 -13 74 -21z"/>
<path d="M375 1090 c-4 -6 -10 -79 -13 -161 l-5 -150 29 8 c16 4 72 7 124 7
52 -1 175 -2 273 -3 109 -1 177 -5 177 -11 0 -5 -16 -20 -35 -32 -38 -25 -41
-34 -21 -60 11 -15 16 -11 50 40 31 48 36 60 27 80 -6 12 -11 38 -11 57 0 38
-6 41 -32 21 -22 -16 -22 -25 -1 -48 9 -10 14 -20 12 -22 -3 -3 -43 10 -89 29
-127 49 -192 73 -222 79 -43 10 -34 22 30 40 110 33 257 79 265 84 28 15 -36
23 -249 32 -131 5 -253 12 -270 16 -20 4 -34 2 -39 -6z m115 -50 c0 -17 -7
-20 -45 -20 -27 0 -45 -5 -45 -11 0 -8 15 -10 45 -7 42 5 45 4 45 -17 0 -21
-4 -23 -42 -22 -24 1 -44 -2 -45 -8 -2 -6 16 -9 44 -6 l46 3 -6 -47 c-4 -26
-7 -55 -7 -65 0 -13 -7 -16 -30 -12 -39 6 -50 22 -15 22 15 0 24 4 20 10 -9
15 -45 12 -51 -5 -19 -50 -32 59 -18 147 6 32 11 38 43 46 54 15 61 14 61 -8z
m243 13 c115 -5 125 -7 100 -19 -35 -17 -172 -51 -238 -59 -27 -4 -58 -9 -67
-12 -16 -4 -18 3 -18 46 l0 51 48 0 c26 0 105 -3 175 -7z m-203 -113 c0 -5 -5
-10 -11 -10 -5 0 -7 5 -4 10 3 6 8 10 11 10 2 0 4 -4 4 -10z m170 -57 c162
-59 175 -64 180 -69 6 -6 -306 -3 -347 3 -30 5 -33 9 -33 39 0 28 6 38 32 54
36 22 31 23 168 -27z"/>
<path d="M405 912 c-3 -3 -5 -9 -5 -13 0 -10 59 -8 65 1 5 9 -52 19 -60 12z"/>
<path d="M50 1003 c1 -28 17 -32 78 -21 34 6 62 15 62 20 0 4 -31 8 -70 8 -38
0 -70 -3 -70 -7z"/>
<path d="M55 842 c-3 -3 -5 -14 -5 -24 0 -19 24 -25 34 -9 4 5 29 12 56 16 28
4 50 10 50 14 0 8 -127 11 -135 3z"/>
<path d="M1109 828 c-1 -2 -3 -22 -4 -45 -2 -31 1 -43 11 -43 34 0 45 82 12
88 -10 2 -19 2 -19 0z"/>
<path d="M797 492 c-22 -25 -22 -29 11 -58 l27 -24 -140 5 c-77 2 -162 9 -190
14 -27 5 -52 8 -55 6 -3 -2 -5 -74 -4 -162 0 -133 3 -157 15 -153 25 9 313 1
369 -10 3 0 -8 -8 -23 -16 -28 -15 -28 -16 -11 -35 20 -22 34 -25 34 -5 0 7
11 25 25 40 29 31 30 39 10 56 -8 7 -15 25 -15 41 0 32 -6 35 -34 14 -19 -15
-19 -15 4 -40 13 -14 20 -25 16 -25 -17 0 -236 131 -236 141 0 4 34 19 74 33
41 15 80 34 87 42 15 19 -3 19 -39 0 -57 -29 -123 -56 -137 -56 -11 0 -15 12
-15 45 0 25 -1 48 -2 51 -5 12 226 3 234 -8 5 -9 11 -8 22 2 9 7 19 11 21 8 6
-6 -33 -48 -45 -48 -18 0 -11 -25 10 -38 17 -11 21 -10 26 5 3 10 12 33 21 51
15 30 15 33 -1 45 -10 7 -20 32 -23 55 -6 47 -12 51 -36 24z m-249 -121 c-3
-23 -7 -26 -40 -25 -21 1 -38 -3 -38 -7 0 -5 18 -9 40 -9 l40 0 0 -69 0 -69
-37 -5 c-21 -2 -41 -2 -45 0 -5 2 -8 45 -8 95 0 104 12 127 63 120 24 -4 28
-9 25 -31z m185 -200 c26 -14 47 -28 47 -31 0 -8 -148 -1 -185 9 -28 7 -30 10
-31 57 0 27 2 52 4 56 1 5 29 -9 60 -29 31 -20 78 -48 105 -62z m-187 -10 c-5
-8 -56 -3 -56 5 0 2 14 4 31 4 16 0 28 -4 25 -9z"/>
<path d="M470 280 c0 -5 14 -10 30 -10 17 0 30 5 30 10 0 6 -13 10 -30 10 -16
0 -30 -4 -30 -10z"/>
<path d="M475 220 c3 -5 15 -10 26 -10 10 0 19 5 19 10 0 6 -12 10 -26 10 -14
0 -23 -4 -19 -10z"/>
<path d="M195 455 c-15 -12 -18 -25 -16 -62 l3 -46 -51 6 c-50 6 -56 3 -45
-26 4 -12 13 -13 46 -5 36 8 44 6 65 -14 23 -22 23 -22 4 -30 -17 -6 -19 -11
-10 -40 5 -18 9 -48 9 -66 0 -18 6 -42 13 -55 6 -12 12 -23 13 -25 1 -1 19 15
40 36 21 21 47 43 57 48 25 14 13 37 -34 68 -21 15 -39 31 -39 37 0 17 39 78
57 87 12 7 6 18 -31 55 -51 52 -53 53 -81 32z m94 -70 c5 -6 -23 -29 -61 -50
l-28 -16 0 35 c0 61 6 68 48 50 20 -8 38 -17 41 -19z m9 -178 c23 -11 23 -11
-15 -34 -53 -32 -63 -30 -63 16 0 36 1 38 28 34 15 -3 37 -10 50 -16z"/>
<path d="M82 398 c2 -19 8 -22 33 -20 50 6 65 19 30 27 -17 4 -38 9 -48 12
-15 4 -18 0 -15 -19z"/>
<path d="M367 359 l-28 -41 33 -38 c42 -49 62 -52 53 -9 -12 54 -13 63 -14 97
-1 17 -4 32 -8 32 -5 -1 -21 -19 -36 -41z m36 -36 c7 -35 1 -41 -20 -21 -8 9
-13 24 -10 32 10 25 24 19 30 -11z"/>
<path d="M60 214 c0 -26 1 -27 46 -20 26 3 53 6 60 6 33 0 10 18 -37 28 -68
16 -69 16 -69 -14z"/>
<path d="M78 141 c-9 -11 -14 -22 -11 -25 9 -9 51 -7 71 3 9 5 26 12 36 16 26
8 19 11 -34 19 -37 5 -48 3 -62 -13z"/>
<path d="M1002 128 c-22 -22 -14 -48 14 -48 22 0 25 4 22 27 -3 30 -18 39 -36
21z"/>
</g>
</svg>
