<?xml version="1.0" standalone="no"?>
<!DOCTYPE svg PUBLIC "-//W3C//DTD SVG 20010904//EN"
 "http://www.w3.org/TR/2001/REC-SVG-20010904/DTD/svg10.dtd">
<svg version="1.0" xmlns="http://www.w3.org/2000/svg"
 width="126.000000pt" height="78.000000pt" viewBox="0 0 126.000000 78.000000"
 preserveAspectRatio="xMidYMid meet">
<metadata>
Created by potrace 1.16, written by Peter Selinger 2001-2019
</metadata>
<g transform="translate(0.000000,78.000000) scale(0.100000,-0.100000)"
fill="#000000" stroke="none">
<path d="M320 718 c0 -5 5 -29 11 -53 19 -76 9 -85 -36 -27 -21 29 -42 52 -45
52 -4 0 -12 -16 -18 -36 -10 -33 -9 -36 16 -45 55 -20 58 -22 32 -27 -13 -2
-30 -11 -36 -20 -7 -10 -16 -13 -20 -9 -5 4 -2 12 6 17 12 8 12 10 -2 15 -25
10 -38 -2 -38 -36 0 -33 2 -34 33 -17 12 7 27 13 33 14 6 1 21 5 34 9 21 7 21
6 5 -19 -10 -14 -28 -34 -42 -44 -22 -16 -23 -20 -12 -45 14 -31 27 -35 35 -9
10 30 47 103 56 108 4 3 8 -15 8 -40 0 -25 5 -46 10 -46 6 0 10 15 10 33 l1
32 34 -37 c48 -52 53 -31 5 23 -21 24 -38 45 -37 46 1 0 31 3 66 5 36 2 66 9
68 15 3 7 -17 9 -64 6 l-68 -6 28 22 c15 13 27 30 27 38 0 13 -5 12 -25 -7
-14 -13 -27 -21 -30 -18 -3 2 -1 27 4 54 5 27 8 52 5 55 -6 10 -54 8 -54 -3z
m-50 -83 c11 -13 10 -14 -4 -9 -9 3 -16 10 -16 15 0 13 6 11 20 -6z m4 -160
c-6 -16 -24 -21 -24 -7 0 11 11 22 21 22 5 0 6 -7 3 -15z"/>
<path d="M897 664 c-14 -14 -6 -39 20 -66 29 -31 21 -35 -37 -18 -29 8 -37 7
-47 -7 -22 -29 -15 -34 37 -27 59 8 64 0 14 -21 -31 -13 -34 -17 -24 -35 13
-24 32 -18 23 7 -4 11 -3 14 5 9 7 -4 26 2 42 14 l30 21 0 -35 c0 -20 5 -36
10 -36 6 0 10 12 10 27 0 26 1 26 15 7 10 -13 14 -15 15 -5 0 8 -7 22 -15 31
-14 15 -13 20 10 45 15 15 24 29 22 31 -2 3 -10 -2 -17 -11 -19 -23 -31 -18
-28 11 2 15 -3 29 -9 31 -9 3 -13 -6 -13 -29 l-1 -33 -20 40 c-23 46 -33 58
-42 49z"/>
<path d="M1010 558 c0 -4 16 -8 35 -8 19 0 37 0 40 0 3 0 4 3 3 7 -4 10 -78
11 -78 1z"/>
<path d="M755 444 c-18 -27 -19 -44 -4 -44 6 0 13 9 16 20 4 16 13 20 42 18
l36 -1 -32 -4 c-18 -2 -33 -8 -33 -12 0 -10 362 -1 373 9 4 4 -63 10 -150 13
-87 4 -175 11 -195 16 -33 8 -39 6 -53 -15z"/>
<path d="M1180 430 c0 -5 5 -10 10 -10 6 0 10 5 10 10 0 6 -4 10 -10 10 -5 0
-10 -4 -10 -10z"/>
<path d="M243 384 c-2 -7 2 -35 11 -63 8 -28 11 -51 6 -51 -4 0 -25 23 -46 51
l-38 52 -19 -24 c-21 -26 -25 -19 49 -76 l29 -22 -45 0 c-25 -1 -52 3 -59 8
-11 7 -21 1 -38 -21 -28 -38 -23 -45 17 -28 17 7 56 13 88 14 l57 1 -1 -87 c0
-49 2 -88 6 -88 4 0 11 37 15 81 l7 82 49 -49 c66 -65 74 -49 9 20 l-52 55 48
51 c59 63 50 79 -13 19 l-46 -44 6 32 c4 22 2 33 -8 37 -17 6 -21 46 -5 46 6
0 10 -9 10 -21 0 -11 5 -17 10 -14 6 3 10 17 10 30 0 18 -5 23 -26 21 -15 0
-29 -6 -31 -12z m-58 -54 c3 -5 1 -10 -4 -10 -6 0 -11 5 -11 10 0 6 2 10 4 10
3 0 8 -4 11 -10z"/>
<path d="M892 368 c-19 -19 -14 -41 16 -64 35 -29 23 -40 -28 -25 -45 13 -55
10 -63 -19 -4 -15 0 -20 13 -20 11 0 21 4 25 10 3 5 11 7 18 5 7 -2 25 -6 40
-9 27 -6 27 -8 21 -56 -5 -34 -3 -50 5 -50 6 0 11 17 11 39 0 49 13 59 30 23
8 -16 14 -22 17 -14 3 7 -2 24 -11 37 -9 14 -14 26 -11 26 3 1 9 2 14 3 22 3
20 14 -3 20 -22 5 -24 9 -15 38 14 52 11 68 -12 68 -19 0 -21 -4 -15 -37 l6
-38 -20 38 c-23 42 -22 41 -38 25z"/>
<path d="M1006 311 c-4 -7 -5 -15 -2 -18 9 -9 19 4 14 18 -4 11 -6 11 -12 0z"/>
<path d="M1035 260 c28 -12 55 -12 55 0 0 6 -17 10 -37 9 -31 0 -34 -2 -18 -9z"/>
<path d="M896 213 c-18 -37 -31 -44 -21 -13 5 15 3 18 -9 14 -20 -7 -20 -24
-3 -48 13 -17 15 -16 36 18 13 20 21 42 18 49 -2 6 -11 -3 -21 -20z"/>
<path d="M195 177 c-27 -21 -51 -43 -53 -47 -4 -11 45 -63 51 -53 2 4 7 21 11
37 4 17 16 42 27 58 33 46 18 48 -36 5z m-5 -47 c0 -5 -5 -10 -11 -10 -5 0 -7
5 -4 10 3 6 8 10 11 10 2 0 4 -4 4 -10z"/>
<path d="M594 180 c1 -46 12 -52 26 -14 15 38 12 54 -9 54 -15 0 -18 -7 -17
-40z"/>
<path d="M1180 184 c0 -33 33 -30 38 4 3 17 -2 22 -17 22 -16 0 -21 -6 -21
-26z"/>
</g>
</svg>
