<?xml version="1.0" standalone="no"?>
<!DOCTYPE svg PUBLIC "-//W3C//DTD SVG 20010904//EN"
 "http://www.w3.org/TR/2001/REC-SVG-20010904/DTD/svg10.dtd">
<svg version="1.0" xmlns="http://www.w3.org/2000/svg"
 width="88.000000pt" height="100.000000pt" viewBox="0 0 88.000000 100.000000"
 preserveAspectRatio="xMidYMid meet">
<metadata>
Created by potrace 1.16, written by Peter Selinger 2001-2019
</metadata>
<g transform="translate(0.000000,100.000000) scale(0.100000,-0.100000)"
fill="#000000" stroke="none">
<path d="M222 962 c-9 -6 -10 -21 -2 -62 15 -81 13 -89 -15 -55 -14 16 -30 42
-36 57 -15 38 -25 35 -34 -8 -7 -41 -5 -44 24 -47 11 -1 21 -7 21 -14 0 -8 7
-16 15 -19 28 -11 15 -24 -25 -24 -23 0 -40 -5 -40 -11 0 -8 15 -10 46 -5 l45
6 -23 -29 c-13 -15 -39 -35 -58 -44 -60 -28 -64 -31 -49 -56 14 -21 39 -29 39
-12 0 5 11 19 25 32 13 13 25 29 25 34 0 6 9 16 20 23 19 12 20 10 20 -78 0
-53 4 -90 10 -90 6 0 10 41 10 103 l1 102 44 -48 c25 -27 45 -44 45 -37 0 6
-13 25 -30 43 -46 49 -41 56 53 60 l82 3 -82 2 c-51 1 -83 6 -83 13 0 5 -4 7
-10 4 -15 -9 -12 46 5 95 8 23 15 49 15 56 0 15 -37 19 -58 6z m31 -42 c-3
-11 -7 -20 -8 -20 -1 0 -5 9 -8 20 -3 12 0 20 8 20 8 0 11 -8 8 -20z m-83 -61
c0 -6 -4 -7 -10 -4 -5 3 -10 11 -10 16 0 6 5 7 10 4 6 -3 10 -11 10 -16z m-33
-186 c-9 -9 -20 -13 -24 -9 -4 4 1 14 11 22 25 18 35 8 13 -13z"/>
<path d="M337 873 c-12 -12 -7 -22 8 -17 8 4 15 10 15 15 0 11 -14 12 -23 2z"/>
<path d="M298 839 c-19 -11 -24 -29 -8 -29 5 0 14 9 20 20 12 23 12 23 -12 9z"/>
<path d="M77 793 c-4 -3 -7 -20 -7 -36 0 -24 3 -27 14 -18 7 6 14 23 14 36 0
25 -8 31 -21 18z"/>
<path d="M657 684 c-2 -3 0 -25 5 -49 5 -24 8 -57 6 -72 -3 -25 -7 -19 -38 44
-19 40 -38 73 -42 73 -11 0 -48 -38 -48 -49 0 -5 8 -11 19 -14 14 -3 17 0 14
14 -10 38 15 18 41 -32 15 -29 25 -53 23 -55 -9 -9 -85 -6 -105 5 -29 15 -28
15 -37 -31 -8 -41 -3 -45 35 -23 19 11 21 14 8 15 -10 0 -18 5 -18 11 0 7 9 9
28 3 15 -4 41 -8 57 -9 17 -1 36 -3 43 -3 7 -1 1 -14 -16 -30 -16 -15 -27 -32
-25 -38 2 -6 -8 -21 -22 -34 -18 -17 -25 -19 -25 -9 0 8 5 20 12 27 8 8 8 12
1 12 -20 0 -35 -29 -29 -55 4 -14 10 -25 15 -25 9 0 71 85 71 97 0 7 32 32 41
33 4 0 5 -36 3 -80 -3 -51 -1 -80 6 -80 6 0 10 26 10 64 0 82 9 126 26 126 8
0 14 5 14 11 0 7 17 27 38 45 20 18 32 33 26 34 -6 0 -30 -17 -54 -37 l-43
-37 6 49 c4 28 10 62 13 78 4 17 2 27 -5 27 -6 0 -11 -8 -11 -17 0 -10 -5 -25
-11 -33 -8 -12 -10 -9 -6 12 4 24 -13 45 -26 32z"/>
<path d="M810 519 c0 -5 5 -7 10 -4 6 3 10 8 10 11 0 2 -4 4 -10 4 -5 0 -10
-5 -10 -11z"/>
<path d="M724 446 c14 -19 26 -38 26 -43 1 -14 40 -59 40 -45 0 16 -72 121
-84 122 -4 0 3 -15 18 -34z"/>
<path d="M241 411 c-23 -17 -24 -22 -17 -86 8 -81 -4 -79 -35 5 -12 33 -24 60
-26 60 -2 0 -15 -12 -28 -27 l-23 -28 51 -47 52 -46 -32 0 c-18 1 -38 -4 -45
-9 -7 -6 -23 -13 -36 -16 -31 -7 -23 15 9 24 l24 7 -25 8 c-32 10 -31 11 -46
-25 -17 -41 -5 -46 63 -26 59 17 105 14 98 -8 -11 -35 -15 -157 -6 -157 6 0
11 20 11 44 0 24 3 57 6 75 l6 31 36 -47 c21 -28 38 -41 40 -34 2 7 0 16 -4
20 -15 10 -64 79 -64 89 0 5 16 22 35 36 19 15 35 32 35 37 0 6 -16 1 -35 -11
-41 -25 -42 -21 -20 63 24 92 20 102 -24 68z m10 -52 l-10 -24 0 26 c-1 14 2
29 6 33 12 12 14 -9 4 -35z m-71 -54 c0 -5 -10 0 -21 12 -13 12 -18 26 -14 33
6 9 12 6 21 -11 7 -13 13 -28 14 -34z"/>
<path d="M271 226 c10 -9 109 -14 109 -5 0 5 -25 9 -57 9 -31 0 -54 -2 -52 -4z"/>
<path d="M158 187 c-7 -7 -30 -23 -50 -36 -21 -12 -38 -27 -38 -31 0 -15 23
-60 30 -60 7 0 90 125 90 135 0 10 -19 5 -32 -8z m-40 -66 c-14 -23 -28 -28
-28 -10 0 12 32 40 38 34 2 -2 -3 -12 -10 -24z"/>
</g>
</svg>
