<?xml version="1.0" standalone="no"?>
<!DOCTYPE svg PUBLIC "-//W3C//DTD SVG 20010904//EN"
 "http://www.w3.org/TR/2001/REC-SVG-20010904/DTD/svg10.dtd">
<svg version="1.0" xmlns="http://www.w3.org/2000/svg"
 width="81.000000pt" height="60.000000pt" viewBox="0 0 81.000000 60.000000"
 preserveAspectRatio="xMidYMid meet">
<metadata>
Created by potrace 1.16, written by Peter Selinger 2001-2019
</metadata>
<g transform="translate(0.000000,60.000000) scale(0.100000,-0.100000)"
fill="#000000" stroke="none">
<path d="M577 544 c-20 -27 -17 -54 7 -54 10 0 12 7 9 23 -3 12 -2 19 2 15 4
-4 9 -18 10 -31 l3 -24 -144 -8 c-101 -5 -166 -3 -215 6 -65 11 -70 11 -84 -7
-13 -18 -14 -16 -21 24 -4 23 -9 44 -13 46 -6 4 -61 -39 -61 -48 0 -3 16 -22
36 -43 44 -47 91 -114 96 -135 4 -20 -60 -90 -113 -124 l-40 -25 27 -49 c15
-28 32 -50 37 -50 5 0 5 5 -1 13 -8 9 -5 25 9 57 27 60 81 139 96 140 6 0 15
9 18 20 3 11 11 20 16 20 5 0 9 4 9 10 0 5 -10 9 -22 7 -17 -1 -28 8 -46 40
-13 24 -21 47 -18 52 9 13 106 21 295 24 l164 2 40 -58 39 -57 -32 -49 c-17
-27 -51 -68 -75 -90 l-44 -41 18 -42 c12 -28 21 -38 24 -28 3 8 13 39 22 68 9
29 25 61 34 70 9 9 25 34 36 55 20 39 30 45 38 25 8 -24 15 -3 10 29 -3 18 -9
31 -13 28 -12 -7 -82 102 -100 157 -9 29 -21 53 -26 55 -5 1 -17 -9 -27 -23z
m-447 -83 c0 -11 -4 -9 -14 4 -8 11 -12 24 -9 28 7 11 23 -12 23 -32z m85 -11
c-27 -12 -35 -12 -35 0 0 6 12 10 28 9 24 0 25 -1 7 -9z m-95 -277 c-1 -17
-28 -44 -35 -34 -3 6 0 17 7 25 14 16 28 21 28 9z"/>
<path d="M163 184 c-8 -14 -13 -27 -11 -30 3 -2 27 0 54 6 44 10 140 16 319
19 46 1 56 4 43 12 -11 6 -79 8 -175 6 -86 -3 -170 -1 -185 4 -24 6 -31 4 -45
-17z"/>
</g>
</svg>
