<?xml version="1.0" standalone="no"?>
<!DOCTYPE svg PUBLIC "-//W3C//DTD SVG 20010904//EN"
 "http://www.w3.org/TR/2001/REC-SVG-20010904/DTD/svg10.dtd">
<svg version="1.0" xmlns="http://www.w3.org/2000/svg"
 width="114.000000pt" height="400.000000pt" viewBox="0 0 114.000000 400.000000"
 preserveAspectRatio="xMidYMid meet">
<metadata>
Created by potrace 1.16, written by Peter Selinger 2001-2019
</metadata>
<g transform="translate(0.000000,400.000000) scale(0.100000,-0.100000)"
fill="#000000" stroke="none">
<path d="M685 3905 c-29 -24 -29 -24 -10 -45 11 -12 20 -41 23 -74 l4 -54 -67
-4 -67 -3 6 57 c3 32 12 74 20 93 16 38 5 56 -20 31 -8 -9 -18 -16 -22 -16 -4
0 -15 -7 -24 -14 -16 -12 -16 -16 -4 -42 8 -16 16 -47 18 -69 l3 -40 -123 -9
c-104 -7 -126 -6 -146 8 -22 14 -27 14 -58 -1 -44 -21 -42 -19 -29 -50 6 -15
14 -73 18 -128 5 -55 12 -100 17 -100 6 0 9 46 7 110 -1 61 1 107 5 102 4 -4
18 0 31 8 23 16 127 30 222 30 l54 0 4 -57 4 -58 -58 -2 c-32 -1 -96 -3 -143
-3 l-85 0 -3 -28 c-2 -16 -1 -36 3 -45 5 -12 11 -10 33 16 26 30 30 31 140 37
l112 7 0 -69 c0 -61 3 -72 25 -93 14 -13 25 -29 25 -37 0 -7 5 -13 10 -13 6 0
10 10 10 23 0 31 41 72 102 103 29 15 68 36 88 49 19 12 72 44 118 70 45 26
82 53 82 59 0 12 -53 41 -175 98 -38 18 -73 34 -76 35 -3 2 -11 -7 -17 -19 -9
-20 -11 -18 -11 22 0 25 4 66 8 93 9 56 -5 62 -54 22z m22 -47 c-3 -7 -5 -2
-5 12 0 14 2 19 5 13 2 -7 2 -19 0 -25z m-147 -14 c0 -8 -5 -12 -10 -9 -6 4
-8 11 -5 16 9 14 15 11 15 -7z m227 -100 c-3 -3 -12 -4 -19 -1 -8 3 -5 6 6 6
11 1 17 -2 13 -5z m135 -61 c62 -28 63 -30 8 -61 -19 -11 -71 -40 -115 -65
l-80 -46 -3 91 c-1 51 0 98 3 106 8 22 114 8 187 -25z m-217 -75 c-2 -57 -4
-106 -4 -110 -1 -8 -80 -53 -108 -62 -22 -7 -23 -5 -23 57 0 71 5 77 77 77 17
0 35 5 39 11 4 8 -11 10 -52 8 l-59 -4 -3 57 c-3 63 -4 63 94 67 l42 1 -3
-102z"/>
<path d="M658 3273 c-33 -5 -32 -3 -13 -39 21 -41 20 -94 -2 -94 -17 -1 -17
-1 0 -11 13 -8 17 -23 17 -64 l0 -55 -50 0 -50 0 0 45 c0 25 0 48 0 53 0 4 11
8 25 10 14 2 25 8 25 13 0 5 -11 7 -24 3 -21 -5 -25 -1 -31 25 -5 23 -1 40 15
67 12 19 20 37 18 39 -2 3 -21 2 -42 -2 -33 -5 -37 -9 -31 -27 4 -12 10 -41
12 -65 l5 -43 -95 3 c-103 4 -106 3 -107 -54 0 -17 3 -16 32 5 24 17 50 24
100 26 l68 4 0 -28 c0 -16 3 -39 6 -51 5 -20 2 -21 -55 -25 -68 -3 -74 3 -40
46 26 33 20 41 -18 28 -24 -8 -28 -14 -26 -46 2 -33 0 -36 -24 -36 -15 0 -35
7 -45 16 -20 19 -22 16 -32 -43 -5 -33 10 -56 20 -30 7 19 59 41 74 32 7 -4 8
-29 4 -71 -5 -45 -3 -64 5 -64 7 0 11 21 11 58 0 31 4 63 9 70 4 7 33 16 64
19 l57 6 0 -72 c0 -42 4 -71 10 -71 6 0 16 -11 22 -25 6 -14 14 -25 17 -25 3
1 15 20 26 43 18 38 30 47 135 99 63 31 137 66 165 76 27 11 51 24 53 30 2 6
-16 16 -40 22 -71 20 -192 62 -214 77 -11 7 -24 10 -28 6 -9 -9 -2 71 9 105 4
12 3 21 -1 21 -5 -1 -21 -4 -36 -6z m57 -161 c-3 -3 -11 0 -18 7 -9 10 -8 11
6 5 10 -3 15 -9 12 -12z m55 -27 c25 -3 69 -13 99 -22 l53 -16 -118 -58 c-65
-32 -121 -54 -124 -50 -3 5 -4 43 -2 85 3 72 5 76 25 72 12 -3 42 -7 67 -11z
m-110 -125 c0 -37 -3 -41 -42 -60 -23 -11 -45 -20 -50 -20 -4 0 -8 24 -8 54
l0 55 38 4 c20 2 43 4 50 5 8 1 12 -12 12 -38z m-60 -100 c0 -5 -5 -10 -11
-10 -5 0 -7 5 -4 10 3 6 8 10 11 10 2 0 4 -4 4 -10z"/>
<path d="M262 3130 c-12 -10 -27 -20 -33 -22 -6 -2 -4 -14 6 -33 11 -21 15
-53 14 -104 -2 -50 2 -76 9 -79 9 -3 12 22 12 82 0 54 6 100 15 123 24 58 18
67 -23 33z"/>
<path d="M598 2714 c-25 -13 -27 -18 -23 -62 3 -26 7 -97 9 -159 l5 -112 -42
-9 c-28 -5 -44 -5 -49 2 -11 16 -9 234 3 285 5 24 8 46 5 48 -2 3 -19 -6 -38
-19 -18 -12 -35 -24 -38 -26 -3 -2 3 -9 12 -16 10 -7 21 -27 24 -45 l7 -31
-135 0 c-74 0 -137 -3 -140 -6 -3 -3 3 -30 13 -59 25 -72 25 -75 -15 -75 -28
0 -36 -5 -46 -30 -16 -39 -8 -47 24 -26 41 26 56 21 56 -20 0 -21 4 -33 10
-29 5 3 10 23 10 45 0 33 12 50 36 50 2 0 4 -27 4 -61 0 -44 3 -59 13 -56 8 3
11 22 9 61 l-3 56 34 0 c19 0 55 3 81 6 l46 7 0 -37 c0 -20 -4 -36 -9 -36 -10
0 -34 -61 -27 -68 4 -3 57 18 117 49 9 4 34 11 55 14 22 4 130 27 242 51 111
24 216 44 233 44 24 0 30 4 27 18 -2 12 -14 18 -43 20 -43 3 -185 27 -250 41
-22 6 -75 15 -117 22 -50 8 -78 16 -78 25 0 7 -5 14 -11 16 -8 3 -6 23 6 66
10 34 16 64 14 66 -2 3 -16 -2 -31 -10z m-305 -175 c-7 -7 -10 -30 -6 -60 5
-45 4 -49 -16 -49 -18 0 -21 6 -21 38 0 58 10 82 33 82 16 0 18 -3 10 -11z
m177 -33 c0 -50 4 -48 -107 -60 l-43 -4 0 35 c0 59 11 68 84 71 l66 3 0 -45z
m315 -1 c61 -8 134 -18 163 -21 28 -4 52 -11 52 -15 0 -5 -4 -9 -8 -9 -5 0
-92 -17 -195 -39 -102 -21 -189 -36 -192 -33 -7 8 -6 117 2 125 10 10 57 8
178 -8z"/>
<path d="M567 2154 l-35 -45 30 -45 c18 -27 28 -53 25 -65 -3 -12 1 -23 14
-29 10 -6 19 -17 19 -25 0 -7 5 -17 11 -21 7 -4 10 4 7 22 -3 29 -3 29 47 26
59 -3 265 -44 265 -53 0 -4 -17 -9 -37 -12 -21 -3 -92 -17 -158 -32 -66 -14
-162 -28 -213 -32 l-93 -6 6 64 c9 88 22 136 51 188 28 51 23 68 -14 44 -15
-10 -36 -23 -47 -30 -21 -12 -21 -15 -9 -46 6 -17 0 -18 -102 -16 l-109 3 -5
-29 c-3 -16 -13 -31 -25 -35 -16 -6 -20 -17 -22 -61 -1 -30 -4 -73 -8 -96 -8
-52 10 -59 19 -8 7 38 9 39 49 49 25 6 27 4 27 -24 0 -21 5 -30 16 -30 13 0
15 7 11 29 l-6 28 71 7 c39 3 73 5 75 3 2 -3 -1 -25 -7 -51 -6 -26 -8 -51 -5
-56 3 -5 26 0 50 10 49 21 328 81 543 117 24 4 32 10 30 22 -2 12 -27 20 -93
33 -124 23 -243 54 -261 69 -11 9 -21 9 -39 1 -22 -10 -24 -8 -30 19 -9 38 -9
112 0 138 11 35 -10 24 -48 -25z m23 -54 c0 -16 -2 -30 -5 -30 -9 0 -26 41
-20 50 12 20 25 9 25 -20z m-119 -37 c-10 -17 -10 -16 -11 3 0 23 13 41 18 25
2 -6 -1 -18 -7 -28z m-33 -100 l-3 -58 -64 -7 c-35 -4 -68 -5 -72 -2 -10 6 11
54 23 54 4 0 8 7 8 16 0 11 -5 14 -16 10 -9 -3 -22 -6 -30 -6 -10 0 -14 -12
-14 -41 0 -40 -1 -41 -27 -34 -16 4 -30 8 -32 11 -2 2 9 25 25 51 33 53 49 60
147 62 l58 1 -3 -57z m22 -153 c0 -5 -5 -10 -11 -10 -5 0 -7 5 -4 10 3 6 8 10
11 10 2 0 4 -4 4 -10z"/>
<path d="M408 1633 c-16 -16 -28 -35 -28 -42 0 -9 -8 -11 -23 -7 -20 5 -24 -1
-41 -60 -14 -50 -22 -63 -35 -60 -9 3 -46 8 -83 12 -64 6 -68 5 -68 -14 0 -14
-8 -22 -22 -24 -21 -3 -23 -9 -23 -68 -1 -36 -5 -82 -9 -102 -6 -26 -5 -38 3
-38 6 0 14 18 17 40 4 22 12 40 18 40 6 0 21 3 34 6 19 5 22 2 22 -20 0 -35
13 -33 27 4 11 28 33 42 33 20 0 -30 25 1 70 90 52 101 85 150 100 150 4 0 21
-33 36 -72 30 -78 40 -95 50 -85 4 4 0 26 -9 49 -14 39 -32 125 -39 186 l-3
24 -27 -29z m15 -43 c3 -11 1 -18 -4 -14 -5 3 -9 12 -9 20 0 20 7 17 13 -6z
m-152 -187 c-14 -35 -25 -49 -45 -54 -26 -7 -26 -6 -20 27 7 37 0 41 -29 19
-12 -9 -17 -20 -13 -33 5 -16 1 -20 -24 -24 -29 -4 -31 -3 -25 21 15 60 58 86
147 90 l28 1 -19 -47z"/>
<path d="M511 1501 c-6 -11 -11 -24 -11 -29 0 -5 87 -12 198 -15 183 -5 279
-17 242 -30 -8 -2 -64 -15 -125 -27 -60 -12 -126 -26 -145 -30 -35 -9 -239
-51 -360 -74 -60 -11 -65 -14 -62 -37 5 -48 8 -50 59 -28 26 11 57 24 68 29
70 29 598 160 646 160 5 0 9 5 9 10 0 16 -38 27 -136 39 -173 21 -319 41 -346
47 -20 4 -29 0 -37 -15z m52 -18 c-7 -2 -19 -2 -25 0 -7 3 -2 5 12 5 14 0 19
-2 13 -5z m-248 -223 c-27 -12 -35 -12 -35 0 0 6 12 10 28 9 24 0 25 -1 7 -9z"/>
<path d="M517 1124 c-22 -20 -31 -23 -42 -14 -18 15 -35 4 -35 -23 0 -20 -47
-207 -53 -214 -6 -5 -186 -23 -251 -25 -62 -1 -79 -9 -56 -23 5 -3 10 -15 10
-26 0 -24 5 -24 47 2 24 15 67 26 136 34 56 7 104 11 106 9 2 -1 -2 -26 -9
-53 -9 -39 -16 -51 -31 -51 -22 0 -25 21 -7 50 18 28 5 33 -31 13 -20 -12 -29
-23 -25 -33 11 -30 9 -34 -23 -35 -38 -2 -38 -2 -16 36 22 36 13 44 -31 29
-35 -11 -47 -32 -26 -45 23 -14 7 -25 -40 -25 l-50 0 0 -35 c0 -41 6 -42 55
-14 20 12 38 19 40 17 3 -3 6 -19 8 -37 3 -42 22 -35 22 9 0 33 2 35 38 38
l39 3 -4 -38 c-1 -21 2 -39 7 -41 6 -1 12 19 15 45 4 35 10 49 23 51 12 3 17
-3 17 -22 0 -14 5 -26 10 -26 6 0 10 -9 10 -20 0 -29 11 -25 61 23 47 45 83
57 437 150 90 23 104 40 45 56 -35 9 -226 55 -281 67 -18 4 -25 0 -29 -16 -11
-43 -21 -16 -33 95 -7 63 -16 115 -19 115 -4 0 -19 -12 -34 -26z m20 -36 c-3
-8 -6 -5 -6 6 -1 11 2 17 5 13 3 -3 4 -12 1 -19z m23 -151 c24 -167 28 -156
-65 -184 -44 -14 -90 -27 -102 -30 l-22 -5 25 93 c46 174 56 203 82 240 l27
37 21 -29 c15 -20 26 -58 34 -122z m246 -48 l86 -23 -78 -22 c-44 -12 -107
-31 -142 -42 -70 -23 -70 -23 -74 47 -3 39 0 47 22 58 30 17 71 12 186 -18z
m-396 -193 c0 -3 -4 -8 -10 -11 -5 -3 -10 -1 -10 4 0 6 5 11 10 11 6 0 10 -2
10 -4z"/>
<path d="M1132 690 c0 -14 2 -19 5 -12 2 6 2 18 0 25 -3 6 -5 1 -5 -13z"/>
<path d="M477 538 c-22 -16 -30 -18 -42 -8 -19 15 -17 17 -40 -45 -10 -27 -29
-74 -43 -102 l-24 -53 -119 0 c-100 0 -119 -2 -119 -15 0 -9 -12 -20 -26 -25
-23 -9 -25 -13 -19 -52 4 -24 8 -68 10 -98 4 -70 6 -74 14 -25 5 32 11 41 29
43 22 3 23 0 20 -32 -1 -19 2 -35 7 -35 6 -1 10 7 11 17 3 49 4 49 55 56 28 4
54 5 56 2 3 -3 -4 -22 -15 -43 -10 -22 -23 -54 -27 -72 -6 -31 -5 -33 11 -26
49 20 156 51 334 96 107 27 209 54 225 59 164 52 155 53 155 -10 0 -27 5 -50
10 -50 6 0 10 29 10 66 0 36 5 85 11 110 6 25 9 47 6 50 -3 3 -22 -5 -41 -19
-32 -21 -34 -26 -21 -37 8 -7 15 -18 15 -25 0 -12 -203 48 -303 90 -43 18 -67
8 -67 -26 0 -16 8 -19 53 -19 28 0 84 -9 122 -21 39 -12 89 -26 113 -32 23 -6
42 -14 42 -19 0 -4 -2 -8 -3 -8 -2 0 -38 -9 -80 -20 -43 -11 -111 -29 -154
-40 -42 -11 -77 -19 -78 -18 -13 17 -52 331 -47 375 4 31 -9 34 -41 11z m23
-43 c0 -8 -2 -15 -4 -15 -2 0 -6 7 -10 15 -3 8 -1 15 4 15 6 0 10 -7 10 -15z
m-16 -38 c15 -33 62 -304 54 -313 -12 -11 -288 -51 -288 -41 0 2 25 58 56 123
59 124 140 264 154 264 4 0 15 -15 24 -33z m-347 -153 c-3 -3 -12 -4 -19 -1
-8 3 -5 6 6 6 11 1 17 -2 13 -5z m175 -11 c-4 -10 -16 -37 -26 -59 -18 -43
-41 -54 -117 -54 -26 0 -26 0 -17 48 6 26 13 50 17 55 8 8 82 24 123 26 22 1
26 -2 20 -16z m-192 -68 c0 -38 -3 -45 -20 -45 -22 0 -26 23 -10 64 15 40 30
31 30 -19z m137 -161 c-3 -3 -12 -4 -19 -1 -8 3 -5 6 6 6 11 1 17 -2 13 -5z"/>
<path d="M1125 118 c-4 -10 -4 -26 0 -35 8 -17 8 -17 12 0 3 9 3 25 0 35 -4
16 -4 16 -12 0z"/>
</g>
</svg>
