<?xml version="1.0" standalone="no"?>
<!DOCTYPE svg PUBLIC "-//W3C//DTD SVG 20010904//EN"
 "http://www.w3.org/TR/2001/REC-SVG-20010904/DTD/svg10.dtd">
<svg version="1.0" xmlns="http://www.w3.org/2000/svg"
 width="125.000000pt" height="66.000000pt" viewBox="0 0 125.000000 66.000000"
 preserveAspectRatio="xMidYMid meet">
<metadata>
Created by potrace 1.16, written by Peter Selinger 2001-2019
</metadata>
<g transform="translate(0.000000,66.000000) scale(0.100000,-0.100000)"
fill="#000000" stroke="none">
<path d="M268 573 c-32 -5 -32 -6 -13 -93 8 -36 14 -78 15 -94 l0 -29 -27 35
c-16 19 -39 58 -52 86 -14 29 -28 52 -32 52 -6 0 -49 -74 -49 -85 0 -2 29 -20
65 -40 36 -20 65 -41 65 -46 0 -14 -80 -10 -124 6 -22 8 -42 12 -46 10 -3 -2
-7 -25 -9 -50 -2 -45 -1 -46 20 -35 22 12 179 43 186 37 2 -2 6 -41 10 -86 3
-44 10 -81 14 -81 4 0 9 28 11 62 l3 62 33 -33 c18 -19 36 -31 39 -27 8 8 -59
84 -74 85 -7 1 -13 6 -13 11 0 12 23 14 103 11 48 -3 57 0 57 14 0 14 -8 16
-67 10 l-68 -6 45 40 c25 22 48 41 53 41 4 0 7 5 7 10 0 21 -25 8 -74 -37
l-51 -48 -3 27 c-2 15 2 53 9 85 25 127 29 115 -33 106z m24 -53 c-5 -35 -17
-39 -25 -8 -7 25 -1 38 17 38 8 0 11 -10 8 -30z m-107 -78 c6 -21 5 -21 -19
-11 -25 12 -34 38 -19 53 9 9 29 -13 38 -42z m-40 -104 c3 -3 -8 -9 -25 -13
-33 -7 -46 -3 -37 12 7 10 52 11 62 1z"/>
<path d="M973 563 c-29 -20 -29 -37 1 -56 27 -18 47 -37 75 -73 32 -41 36 -21
7 33 -15 26 -30 61 -34 77 -10 36 -20 40 -49 19z m36 -35 c5 -13 7 -25 5 -27
-7 -8 -44 31 -38 40 9 16 24 10 33 -13z"/>
<path d="M1053 554 c-3 -8 6 -39 21 -67 26 -52 35 -104 16 -92 -5 3 -10 -1
-10 -9 0 -12 -5 -14 -22 -7 -13 4 -29 6 -36 4 -7 -3 -18 0 -25 5 -17 14 -81
19 -87 7 -3 -6 27 -15 70 -21 95 -14 75 -22 -67 -26 l-112 -3 27 22 c15 12 35
22 45 23 21 0 23 18 2 26 -9 4 -32 -10 -60 -35 -24 -22 -49 -41 -55 -41 -5 0
-10 -7 -10 -16 0 -11 5 -14 16 -10 9 3 67 9 130 13 91 5 114 3 114 -7 0 -7 -3
-11 -6 -7 -4 3 -22 0 -41 -8 -20 -8 -46 -15 -58 -15 -19 0 -23 -7 -29 -51 -4
-30 -3 -56 3 -62 9 -9 77 43 175 136 21 20 41 35 44 33 2 -3 4 -57 4 -120 0
-64 4 -116 9 -116 8 0 15 126 10 198 -3 40 20 133 31 126 4 -3 5 2 2 10 -3 9
6 36 20 61 15 25 24 50 21 55 -3 6 -35 10 -71 10 -49 0 -66 -4 -71 -16z m117
-7 c0 -4 -7 -19 -16 -33 -9 -13 -20 -39 -23 -57 l-7 -32 -25 55 c-14 30 -24
60 -22 65 4 12 93 14 93 2z m-210 -287 c-53 -46 -60 -48 -60 -17 0 19 9 26 48
39 26 8 49 16 52 16 3 1 -15 -16 -40 -38z"/>
<path d="M200 290 c-14 -11 -32 -26 -40 -34 -8 -7 -25 -17 -37 -20 -13 -4 -23
-13 -23 -19 0 -21 28 -92 35 -90 11 3 56 104 50 113 -3 5 8 19 25 31 28 22 39
39 23 39 -5 -1 -19 -9 -33 -20z m-46 -90 c-16 -26 -20 -28 -25 -13 -5 12 0 24
14 35 29 23 33 16 11 -22z"/>
<path d="M598 239 c-7 -21 4 -80 15 -76 14 4 30 54 23 72 -6 18 -33 20 -38 4z"/>
</g>
</svg>
