<?xml version="1.0" standalone="no"?>
<!DOCTYPE svg PUBLIC "-//W3C//DTD SVG 20010904//EN"
 "http://www.w3.org/TR/2001/REC-SVG-20010904/DTD/svg10.dtd">
<svg version="1.0" xmlns="http://www.w3.org/2000/svg"
 width="125.000000pt" height="153.000000pt" viewBox="0 0 125.000000 153.000000"
 preserveAspectRatio="xMidYMid meet">
<metadata>
Created by potrace 1.16, written by Peter Selinger 2001-2019
</metadata>
<g transform="translate(0.000000,153.000000) scale(0.100000,-0.100000)"
fill="#000000" stroke="none">
<path d="M313 1523 c175 -2 459 -2 630 0 172 1 29 2 -318 2 -347 0 -487 -1
-312 -2z"/>
<path d="M868 1487 c-7 -6 -30 -12 -50 -11 -22 1 -39 -4 -42 -12 -3 -8 -12
-11 -20 -8 -23 9 -43 -40 -26 -61 7 -8 11 -17 9 -18 -6 -5 -166 9 -214 18 -39
7 -41 6 -58 -29 -19 -40 -14 -43 42 -20 28 11 65 14 137 12 l98 -3 18 -47 c17
-46 17 -48 -2 -58 -10 -5 -36 -14 -57 -18 -31 -6 -39 -12 -41 -34 -3 -23 -9
-27 -40 -30 -39 -3 -39 -5 -26 -61 3 -15 3 -74 -1 -132 l-7 -105 -63 0 c-70 0
-76 7 -74 80 1 34 1 34 10 -9 5 -24 10 -45 12 -48 7 -6 107 20 107 29 0 4 -21
9 -47 9 -48 2 -48 2 -10 8 42 7 50 23 15 32 -21 6 -21 6 7 10 49 7 34 24 -25
29 -57 5 -49 20 11 20 43 0 35 20 -8 21 -21 0 -47 4 -58 9 -28 11 -5 20 64 23
63 2 70 21 9 25 -94 5 -91 2 -85 97 5 82 4 84 -17 81 -17 -3 -20 -9 -18 -32 1
-16 5 -111 8 -212 l6 -183 -37 7 -37 7 7 -34 c4 -19 8 -35 10 -37 1 -1 24 7
50 19 26 12 80 24 119 28 l71 6 5 121 c4 86 9 126 20 140 36 46 118 114 137
114 7 0 27 -49 49 -118 2 -7 8 -11 13 -7 6 3 1 31 -11 65 -19 56 -19 90 -1 90
4 0 19 -34 32 -76 14 -45 27 -72 32 -67 5 5 -1 38 -15 81 -33 96 -15 102 21 7
15 -41 31 -75 35 -75 12 0 10 13 -17 84 -14 37 -23 72 -20 77 13 20 31 6 48
-39 35 -89 40 -99 44 -80 2 9 -7 44 -20 78 l-25 61 35 14 c20 8 46 15 59 15
15 0 24 6 24 15 0 12 -14 15 -70 15 -61 0 -71 3 -81 22 -7 12 -12 42 -11 65 0
44 -7 52 -30 30z m21 -114 c1 -7 -3 -13 -9 -13 -15 0 -30 36 -29 72 l0 33 19
-40 c10 -22 19 -46 19 -52z m-59 8 c0 -11 -3 -11 -15 -1 -8 7 -15 24 -15 39
l1 26 14 -25 c8 -14 14 -31 15 -39z m-50 3 c0 -8 -4 -12 -10 -9 -5 3 -10 13
-10 21 0 8 5 12 10 9 6 -3 10 -13 10 -21z m29 -66 c15 -41 -3 -64 -19 -24 -5
15 -10 34 -10 42 0 25 18 15 29 -18z m42 11 c7 -14 7 -25 1 -31 -6 -6 -13 1
-20 21 -12 35 1 42 19 10z m55 10 c3 -6 1 -16 -5 -22 -9 -9 -14 -8 -21 3 -5 8
-10 18 -10 23 0 11 28 8 36 -4z"/>
<path d="M292 1437 c-17 -18 -19 -26 -10 -35 12 -12 15 -11 -57 -35 -35 -12
-40 -18 -40 -44 -1 -16 -8 -42 -18 -56 -22 -34 -22 -37 7 -37 37 0 91 -42 94
-73 5 -38 19 -34 37 11 9 20 31 53 50 72 50 52 53 78 10 119 -26 25 -35 42
-35 67 0 40 -9 42 -38 11z m68 -106 l25 -21 -75 2 c-65 1 -75 -1 -78 -16 -6
-30 11 -36 53 -21 22 8 51 14 65 15 l25 0 -25 -23 c-14 -12 -38 -30 -53 -40
-27 -17 -29 -17 -57 3 -21 15 -30 30 -30 49 0 35 16 54 65 79 32 16 41 17 50
7 5 -8 21 -23 35 -34z"/>
<path d="M1114 768 c3 -13 6 -29 6 -35 0 -20 18 -15 30 6 13 26 3 51 -22 51
-16 0 -19 -5 -14 -22z"/>
<path d="M272 738 c-7 -7 -12 -17 -12 -23 0 -16 -66 -76 -126 -116 -28 -19
-49 -39 -47 -46 2 -6 -1 -15 -8 -19 -9 -5 -10 -2 -6 9 7 18 -7 32 -23 22 -6
-3 -5 -15 2 -31 10 -21 8 -29 -11 -54 -26 -36 -20 -51 18 -44 20 4 46 -3 90
-25 50 -26 63 -37 68 -61 8 -41 18 -38 43 13 12 23 44 66 71 96 l49 55 0 -115
0 -115 -81 8 c-45 5 -82 8 -84 6 -1 -2 -6 -13 -10 -26 -6 -22 -5 -23 27 -18
18 3 59 8 91 10 l58 5 -3 -32 c-2 -21 -8 -32 -18 -31 -8 0 -47 4 -86 8 l-71 7
-7 -32 c-8 -39 -1 -47 25 -31 21 13 146 32 154 24 3 -3 5 -22 5 -43 0 -38 -13
-58 -25 -39 -12 19 -24 10 -34 -27 -6 -20 -9 -38 -7 -40 1 -2 23 4 47 13 24 9
88 19 142 21 l97 6 0 132 c0 127 12 201 31 189 5 -3 22 4 37 16 25 21 27 21
30 3 6 -30 22 -39 22 -12 0 24 16 49 32 49 4 0 8 -9 8 -20 0 -30 18 -24 22 8
2 22 11 30 42 40 54 17 66 10 66 -38 0 -29 4 -40 15 -40 14 0 14 11 0 82 -2
15 13 28 35 28 5 0 11 -13 15 -30 10 -45 25 -46 25 -2 l0 40 63 16 c34 9 82
20 107 24 31 5 46 13 48 25 3 15 -6 17 -71 17 -97 0 -167 10 -167 24 0 6 7 24
15 39 12 24 12 29 0 33 -7 3 -24 -2 -37 -10 -19 -13 -24 -23 -20 -46 3 -18 0
-30 -7 -30 -12 0 -14 10 -11 53 l2 29 -31 -23 c-18 -13 -29 -29 -27 -36 4 -9
-7 -13 -39 -13 l-45 0 0 40 c0 22 -3 40 -6 40 -14 0 -43 -47 -38 -62 4 -12 0
-18 -10 -18 -12 0 -16 10 -16 40 0 40 -13 53 -24 25 -3 -8 -13 -15 -22 -15
-12 0 -15 -6 -10 -25 l6 -24 -72 5 c-40 4 -77 10 -83 15 -16 16 -31 10 -44
-17 -10 -22 -16 -25 -41 -20 -26 5 -30 3 -30 -17 0 -19 -6 -16 -47 26 -45 47
-46 50 -35 81 19 53 12 72 -16 44z m-11 -101 c62 -48 109 -92 106 -101 -4 -13
-198 -8 -212 5 -16 15 -23 10 -30 -22 -9 -38 -5 -41 31 -30 16 5 64 12 107 15
l77 6 -15 -24 c-8 -12 -34 -38 -56 -56 l-41 -32 -51 25 c-29 14 -63 37 -77 52
l-24 26 79 75 c43 40 81 74 84 74 3 0 13 -6 22 -13z m226 -23 c-3 -3 -12 -4
-19 -1 -8 3 -5 6 6 6 11 1 17 -2 13 -5z m183 -44 c4 -14 10 -42 14 -62 7 -37
6 -38 -24 -38 -18 0 -33 -6 -37 -16 -3 -9 -15 -14 -32 -12 -20 2 -25 -1 -23
-14 3 -20 -4 -21 -85 -9 -51 7 -52 7 -50 -17 1 -23 3 -24 66 -17 70 8 81 2 81
-47 0 -28 0 -28 -70 -28 -56 0 -70 -3 -70 -15 0 -13 11 -14 70 -9 68 7 70 6
70 -16 0 -22 -2 -23 -70 -16 -39 3 -76 7 -83 9 -8 1 -11 -11 -9 -43 2 -25 5
-47 7 -49 2 -2 30 1 61 5 78 12 84 34 10 34 -31 0 -56 5 -56 10 0 6 30 10 70
10 l71 0 -3 -67 -3 -68 -89 -3 -89 -3 6 203 c5 197 15 269 40 285 22 13 82 21
151 20 65 -2 70 -4 76 -27z m70 4 c10 -25 14 -94 6 -94 -2 0 -11 -2 -19 -6
-11 -4 -16 6 -21 38 -4 24 -9 53 -13 66 -8 33 34 31 47 -4z m130 0 c19 -49 13
-59 -41 -73 -27 -7 -52 -12 -53 -10 -2 2 -7 28 -11 57 l-7 52 51 0 c46 0 53
-3 61 -26z m57 18 c15 -10 28 -62 15 -62 -6 0 -17 -2 -25 -6 -10 -3 -16 4 -21
26 -8 44 3 60 31 42z m171 -17 c2 -2 -12 -6 -30 -10 -18 -3 -46 -11 -61 -17
-23 -9 -31 -8 -38 3 -22 35 -11 41 59 34 37 -4 68 -9 70 -10z m-688 -5 c0 -5
-4 -10 -10 -10 -5 0 -10 5 -10 10 0 6 5 10 10 10 6 0 10 -4 10 -10z m-330
-110 c0 -5 -2 -10 -4 -10 -3 0 -8 5 -11 10 -3 6 -1 10 4 10 6 0 11 -4 11 -10z"/>
<path d="M426 361 c-9 -21 2 -36 24 -34 14 1 44 4 67 6 66 5 60 13 -17 24 -39
5 -72 7 -74 4z"/>
<path d="M1131 110 c-17 -10 -7 -40 14 -40 8 0 15 9 15 19 0 24 -12 32 -29 21z"/>
<path d="M313 3 c175 -2 459 -2 630 0 172 1 29 2 -318 2 -347 0 -487 -1 -312
-2z"/>
</g>
</svg>
