<?xml version="1.0" standalone="no"?>
<!DOCTYPE svg PUBLIC "-//W3C//DTD SVG 20010904//EN"
 "http://www.w3.org/TR/2001/REC-SVG-20010904/DTD/svg10.dtd">
<svg version="1.0" xmlns="http://www.w3.org/2000/svg"
 width="82.000000pt" height="70.000000pt" viewBox="0 0 82.000000 70.000000"
 preserveAspectRatio="xMidYMid meet">
<metadata>
Created by potrace 1.16, written by Peter Selinger 2001-2019
</metadata>
<g transform="translate(0.000000,70.000000) scale(0.100000,-0.100000)"
fill="#000000" stroke="none">
<path d="M163 652 c-30 -25 -31 -28 -18 -52 21 -37 20 -38 -35 -27 -43 8 -53
7 -70 -8 -11 -10 -20 -26 -20 -35 0 -15 9 -17 70 -12 l70 5 0 -43 0 -42 -47 7
c-27 4 -54 11 -60 17 -16 13 -26 -10 -21 -44 3 -24 5 -25 87 -12 l44 7 -6 -84
c-4 -46 -7 -113 -7 -148 0 -55 -2 -62 -17 -57 -19 8 -33 -9 -33 -41 0 -28 11
-28 94 -7 33 9 80 16 104 17 47 0 60 10 41 33 -15 18 -6 189 12 247 l12 37
163 0 c138 0 163 -2 168 -16 11 -28 27 -4 20 31 -3 20 1 54 12 89 10 31 15 58
12 62 -10 10 -68 -7 -68 -19 0 -14 -356 -16 -433 -3 l-49 9 7 36 c4 20 11 41
17 48 10 12 3 33 -10 33 -4 0 -21 -13 -39 -28z m17 -38 c0 -8 -5 -12 -10 -9
-6 4 -8 11 -5 16 9 14 15 11 15 -7z m-87 -71 c-7 -2 -19 -2 -25 0 -7 3 -2 5
12 5 14 0 19 -2 13 -5z m595 -65 l3 -38 -63 -1 c-464 -9 -448 -10 -448 36 0
17 3 35 7 39 4 3 117 5 252 4 l246 -3 3 -37z m-386 -99 c5 -30 4 -31 -31 -27
-20 3 -44 8 -53 12 -15 7 -16 -3 -12 -116 2 -69 9 -122 14 -121 72 19 90 20
90 8 0 -14 -76 -24 -119 -17 -23 5 -24 6 -17 86 3 45 6 109 6 144 l0 62 59 0
c58 0 59 0 63 -31z m38 24 c0 -5 -5 -15 -10 -23 -8 -12 -10 -11 -10 8 0 12 5
22 10 22 6 0 10 -3 10 -7z m-30 -93 c0 -6 -16 -8 -42 -4 -59 9 -60 14 -5 14
26 0 47 -5 47 -10z m0 -40 c0 -5 -19 -10 -42 -10 -32 0 -39 3 -28 10 20 13 70
13 70 0z m0 -45 c0 -10 -11 -15 -35 -15 -41 0 -47 17 -7 23 15 2 30 5 35 6 4
0 7 -6 7 -14z m0 -45 c0 -16 -6 -19 -35 -16 -44 3 -58 16 -17 16 17 0 34 5 37
10 10 15 15 12 15 -10z"/>
</g>
</svg>
