<?xml version="1.0" standalone="no"?>
<!DOCTYPE svg PUBLIC "-//W3C//DTD SVG 20010904//EN"
 "http://www.w3.org/TR/2001/REC-SVG-20010904/DTD/svg10.dtd">
<svg version="1.0" xmlns="http://www.w3.org/2000/svg"
 width="43.000000pt" height="23.000000pt" viewBox="0 0 43.000000 23.000000"
 preserveAspectRatio="xMidYMid meet">
<metadata>
Created by potrace 1.16, written by Peter Selinger 2001-2019
</metadata>
<g transform="translate(0.000000,23.000000) scale(0.100000,-0.100000)"
fill="#000000" stroke="none">
<path d="M46 114 c1 -25 4 -48 7 -50 2 -2 30 3 62 11 32 9 103 19 158 23 66 5
102 11 105 20 3 9 -13 12 -60 12 -34 0 -108 7 -162 15 -55 8 -102 15 -106 15
-4 0 -5 -21 -4 -46z m108 5 c15 -1 13 -3 -9 -9 -52 -13 -75 -11 -75 6 0 13 7
15 31 10 17 -3 41 -7 53 -7z"/>
</g>
</svg>
