<?xml version="1.0" standalone="no"?>
<!DOCTYPE svg PUBLIC "-//W3C//DTD SVG 20010904//EN"
 "http://www.w3.org/TR/2001/REC-SVG-20010904/DTD/svg10.dtd">
<svg version="1.0" xmlns="http://www.w3.org/2000/svg"
 width="141.000000pt" height="55.000000pt" viewBox="0 0 141.000000 55.000000"
 preserveAspectRatio="xMidYMid meet">
<metadata>
Created by potrace 1.16, written by Peter Selinger 2001-2019
</metadata>
<g transform="translate(0.000000,55.000000) scale(0.100000,-0.100000)"
fill="#000000" stroke="none">
<path d="M1195 481 c-19 -11 -32 -28 -36 -47 -3 -16 -9 -28 -15 -27 -5 0 -34
4 -64 8 -60 7 -61 7 -90 -70 -20 -50 -23 -61 -21 -69 1 -5 -6 -17 -15 -27 -9
-10 -13 -23 -9 -28 3 -6 -1 -14 -9 -17 -9 -3 -16 -11 -16 -17 0 -6 24 -8 71
-3 l71 6 -6 -25 c-8 -32 7 -32 22 0 10 22 18 25 62 25 27 0 50 5 50 10 0 6
-18 10 -39 10 -49 0 -66 19 -19 22 18 0 45 0 61 -1 19 -2 27 2 27 14 0 11 -8
16 -22 15 -48 -4 -79 0 -73 10 3 6 28 10 56 10 27 0 49 5 49 10 0 6 -18 10
-40 10 -22 0 -40 2 -40 4 0 2 7 19 15 38 15 37 40 48 106 48 16 0 29 5 29 11
0 8 -16 10 -50 5 -56 -8 -63 2 -30 44 20 25 26 51 13 49 -5 0 -21 -8 -38 -18z
m-1 -36 c-4 -8 -8 -15 -10 -15 -2 0 -4 7 -4 15 0 8 4 15 10 15 5 0 7 -7 4 -15z
m-137 -51 c-3 -3 -12 -4 -19 -1 -8 3 -5 6 6 6 11 1 17 -2 13 -5z m93 -20 c0
-2 -4 -12 -9 -22 -5 -9 -12 -25 -15 -35 -5 -14 -13 -16 -48 -11 -64 10 -70 24
-10 24 66 0 73 27 8 32 -14 1 -22 6 -18 9 14 14 92 16 92 3z m-115 -24 c3 -5
-1 -10 -10 -10 -9 0 -13 5 -10 10 3 6 8 10 10 10 2 0 7 -4 10 -10z m70 -79
c-6 -6 -25 -6 -45 -1 l-35 8 45 1 c27 1 40 -3 35 -8z m-20 -41 c6 -9 -14 -13
-60 -13 -33 1 -36 2 -30 13 3 6 24 10 45 10 21 0 42 -4 45 -10z"/>
<path d="M610 441 c-15 -5 -23 -14 -21 -22 2 -8 5 -21 8 -29 3 -11 -5 -15 -34
-15 l-38 0 -3 -114 c-1 -63 2 -119 7 -124 6 -6 20 -3 38 6 31 18 118 37 163
37 17 0 30 5 30 11 0 8 -14 10 -42 7 -24 -3 -54 -2 -68 2 -19 6 -10 8 33 9 31
1 57 6 57 11 0 6 -23 10 -51 10 -67 0 -63 25 4 26 68 1 71 14 4 14 -42 0 -57
4 -57 14 0 8 6 14 13 13 6 0 36 1 65 1 74 3 57 22 -19 22 -33 0 -59 4 -59 10
0 6 12 10 28 10 45 0 102 12 102 21 0 5 -29 9 -64 9 l-65 0 9 31 c9 31 6 50
-8 48 -4 -1 -18 -4 -32 -8z m17 -53 c-3 -7 -5 -2 -5 12 0 14 2 19 5 13 2 -7 2
-19 0 -25z m-34 -42 c23 -17 22 -26 -4 -26 -11 0 -17 5 -14 10 3 6 -1 10 -9
10 -9 0 -16 5 -16 10 0 14 22 12 43 -4z m-13 -52 c5 -1 15 -2 20 -3 15 -2 12
-21 -3 -21 -18 0 -58 35 -50 44 4 3 10 1 14 -6 5 -7 13 -14 19 -14z m-13 -40
c-3 -3 -12 -4 -19 -1 -8 3 -5 6 6 6 11 1 17 -2 13 -5z m43 -10 c0 -17 -22 -14
-28 4 -2 7 3 12 12 12 9 0 16 -7 16 -16z m-43 -30 c-3 -3 -12 -4 -19 -1 -8 3
-5 6 6 6 11 1 17 -2 13 -5z"/>
<path d="M150 364 c0 -25 -2 -26 -52 -22 l-51 3 2 -70 c2 -64 9 -115 16 -115
1 0 22 7 45 15 24 8 45 13 47 11 2 -2 5 -25 7 -52 4 -62 4 -62 16 -44 5 8 10
36 10 63 l0 47 75 0 c43 0 75 4 75 10 0 6 -33 10 -77 11 -69 1 -73 2 -38 10
22 4 57 8 78 8 70 2 37 20 -40 23 l-78 3 73 9 c39 5 72 13 72 17 0 5 -30 9
-66 9 -47 0 -65 3 -62 12 3 8 20 12 44 10 51 -3 80 14 41 23 -15 4 -39 4 -53
1 -24 -6 -26 -5 -20 19 6 23 4 25 -29 25 -31 0 -35 -3 -35 -26z m37 -16 c-3
-8 -6 -5 -6 6 -1 11 2 17 5 13 3 -3 4 -12 1 -19z m-83 -34 c5 -12 2 -15 -10
-10 -8 3 -20 6 -25 6 -6 0 -7 5 -4 10 10 15 32 12 39 -6z m56 -14 c0 -5 -7
-10 -15 -10 -8 0 -15 5 -15 10 0 6 7 10 15 10 8 0 15 -4 15 -10z m-53 -66 c-3
-3 -12 -4 -19 -1 -8 3 -5 6 6 6 11 1 17 -2 13 -5z m53 -16 c0 -4 -7 -8 -15 -8
-8 0 -15 4 -15 8 0 5 7 9 15 9 8 0 15 -4 15 -9z"/>
<path d="M1182 344 c10 -9 88 -12 94 -3 3 5 -18 9 -47 9 -29 0 -50 -3 -47 -6z"/>
<path d="M399 228 c-6 -12 -6 -88 0 -88 17 0 31 51 21 71 -10 17 -18 23 -21
17z"/>
<path d="M833 190 c1 -45 13 -52 27 -15 11 29 4 55 -16 55 -9 0 -12 -12 -11
-40z"/>
<path d="M1297 214 c-15 -15 -7 -45 11 -42 9 2 17 12 17 22 0 20 -16 31 -28
20z"/>
<path d="M610 110 c0 -16 5 -30 10 -30 6 0 10 14 10 30 0 17 -4 30 -10 30 -5
0 -10 -13 -10 -30z"/>
</g>
</svg>
