<?xml version="1.0" standalone="no"?>
<!DOCTYPE svg PUBLIC "-//W3C//DTD SVG 20010904//EN"
 "http://www.w3.org/TR/2001/REC-SVG-20010904/DTD/svg10.dtd">
<svg version="1.0" xmlns="http://www.w3.org/2000/svg"
 width="113.000000pt" height="169.000000pt" viewBox="0 0 113.000000 169.000000"
 preserveAspectRatio="xMidYMid meet">
<metadata>
Created by potrace 1.16, written by Peter Selinger 2001-2019
</metadata>
<g transform="translate(0.000000,169.000000) scale(0.100000,-0.100000)"
fill="#000000" stroke="none">
<path d="M115 1601 c-34 -7 -33 -5 -10 -111 12 -51 15 -101 12 -157 l-5 -83
57 8 c31 4 146 7 256 7 l200 0 3 -32 c4 -44 22 -42 22 3 0 21 4 33 10 29 6 -3
10 -19 10 -35 0 -16 5 -32 11 -36 7 -4 10 4 9 22 -3 43 -1 54 10 54 6 0 10 -9
10 -20 0 -11 5 -20 10 -20 6 0 10 9 10 21 0 11 5 17 10 14 6 -3 10 -15 10 -26
0 -10 5 -19 10 -19 6 0 10 11 10 25 0 32 18 32 26 0 7 -27 26 -24 22 3 -3 15
11 17 122 18 99 1 126 4 128 15 1 8 -35 41 -80 74 -45 33 -128 95 -186 138
-57 43 -107 77 -112 75 -4 -2 -36 -28 -71 -59 -145 -128 -170 -149 -190 -159
-15 -9 -19 -18 -15 -35 6 -22 4 -22 -47 -19 -76 6 -178 12 -206 13 l-23 1 5
123 c3 67 9 134 13 150 3 15 2 26 -2 26 -5 -1 -22 -4 -39 -8z m15 -53 c0 -19
-2 -20 -10 -8 -13 19 -13 30 0 30 6 0 10 -10 10 -22z m620 -66 c58 -30 262
-163 289 -188 2 -2 -48 -4 -112 -4 l-117 0 0 45 c0 25 -4 45 -10 45 -5 0 -10
-20 -10 -45 0 -25 -4 -45 -10 -45 -5 0 -10 12 -10 28 0 15 -4 34 -10 42 -8 12
-10 12 -15 -2 -3 -8 -5 -26 -3 -39 2 -13 -1 -24 -7 -24 -5 0 -10 18 -10 40 0
22 -5 41 -10 42 -6 2 -10 -17 -10 -42 0 -29 -4 -45 -12 -45 -9 0 -13 18 -13
55 0 30 -4 55 -10 55 -5 0 -10 -25 -10 -55 0 -33 -4 -55 -11 -55 -7 0 -10 19
-7 52 2 35 -1 53 -9 55 -10 3 -13 -11 -13 -51 l0 -56 -80 0 c-44 0 -80 4 -80
8 0 17 66 101 109 138 81 72 96 84 101 84 3 0 39 -17 80 -38z m-573 -198 c-3
-3 -12 -4 -19 -1 -8 3 -5 6 6 6 11 1 17 -2 13 -5z"/>
<path d="M775 1120 c-10 -11 -24 -20 -32 -20 -20 0 -16 -17 9 -34 14 -10 19
-19 13 -25 -17 -15 -282 -160 -341 -186 -31 -14 -65 -25 -75 -25 -21 0 -25
-20 -7 -38 9 -9 -10 -11 -83 -6 -52 3 -100 7 -107 9 -17 6 69 179 111 223 26
26 29 36 21 50 -22 35 -44 20 -68 -48 -37 -104 -90 -205 -129 -246 -38 -41
-36 -61 4 -46 33 13 277 32 376 29 l82 -2 3 -70 c4 -88 21 -88 28 0 3 36 8 65
13 65 4 0 12 0 17 0 6 0 10 -31 10 -72 0 -89 18 -81 22 11 l3 64 38 1 37 1 0
-62 c0 -36 4 -63 10 -63 6 0 10 24 10 53 0 64 10 82 40 72 21 -7 22 -12 17
-61 -3 -30 -2 -56 3 -59 12 -7 20 21 20 71 l0 44 85 0 c52 0 85 4 85 10 0 6
-8 23 -19 38 -32 46 -115 204 -141 269 -31 76 -33 78 -55 53z m28 -51 c5 -20
5 -20 -13 -4 -11 10 -17 22 -14 26 8 13 21 3 27 -22z m29 -81 c13 -18 46 -73
75 -123 l52 -90 -66 -3 c-36 -2 -67 -1 -69 1 -5 4 11 94 21 120 8 19 -10 23
-35 7 -11 -7 -14 -24 -12 -70 3 -59 3 -60 -22 -60 -22 0 -26 5 -26 28 0 15 4
42 9 60 8 26 7 34 -5 39 -27 10 -44 -18 -36 -57 12 -56 5 -70 -34 -70 -29 0
-34 3 -34 23 1 12 7 40 15 61 18 51 11 61 -25 36 -26 -18 -28 -24 -18 -45 13
-29 3 -75 -17 -75 -22 0 -26 15 -15 71 6 29 8 54 6 56 -2 2 -16 -2 -30 -9 -23
-10 -26 -16 -20 -37 13 -48 10 -76 -8 -75 -10 0 -46 2 -80 3 l-63 2 40 35 c22
19 69 51 105 71 36 20 103 58 150 84 47 27 93 49 102 49 9 0 27 -14 40 -32z
m-442 -182 c0 -3 -4 -8 -10 -11 -5 -3 -10 -1 -10 4 0 6 5 11 10 11 6 0 10 -2
10 -4z m-247 -43 c-7 -2 -19 -2 -25 0 -7 3 -2 5 12 5 14 0 19 -2 13 -5z"/>
<path d="M670 537 c-9 -7 -33 -37 -55 -67 -21 -30 -77 -97 -124 -148 l-85 -93
-75 5 c-42 3 -90 7 -108 8 -28 1 -33 6 -42 44 -14 54 -14 99 0 147 6 22 8 41
6 44 -6 5 -67 -35 -79 -51 -4 -6 -1 -15 7 -20 16 -13 55 -153 55 -197 0 -26 3
-30 17 -24 20 8 224 23 236 18 4 -2 7 -13 7 -24 0 -27 28 -24 32 3 2 19 10 24
47 26 l44 3 -6 -70 c-3 -39 -2 -73 3 -76 13 -8 20 22 20 86 0 53 2 59 21 59
20 0 21 -4 14 -55 -4 -33 -3 -55 3 -55 10 0 22 47 22 86 0 19 5 24 25 24 24 0
25 -2 25 -66 0 -41 4 -63 10 -59 6 3 10 33 10 66 0 48 3 59 16 59 14 0 16 -8
10 -56 -5 -43 -3 -55 6 -52 14 5 15 11 17 70 l1 37 117 3 c75 2 118 7 120 14
3 10 -278 316 -295 321 -4 1 -14 -3 -22 -10z m35 -27 c3 -5 1 -10 -4 -10 -6 0
-11 5 -11 10 0 6 2 10 4 10 3 0 8 -4 11 -10z m44 -70 c55 -40 212 -198 199
-201 -1 0 -46 -1 -98 -1 -110 -2 -113 1 -85 84 18 57 14 69 -15 43 -11 -10
-20 -13 -20 -7 0 21 -15 13 -38 -22 -18 -27 -22 -42 -17 -70 6 -32 5 -36 -13
-36 -27 0 -31 25 -15 80 16 56 16 60 0 60 -18 0 -41 -45 -34 -64 9 -24 -4 -76
-19 -76 -21 0 -22 12 -9 63 13 50 8 61 -20 51 -13 -5 -16 -15 -12 -40 9 -55
-1 -74 -39 -74 -40 0 -42 10 -12 59 30 49 158 201 169 201 5 0 40 -22 78 -50z
m-19 -155 c0 -30 -4 -55 -10 -55 -11 0 -14 69 -4 94 11 27 14 18 14 -39z"/>
</g>
</svg>
