<?xml version="1.0" standalone="no"?>
<!DOCTYPE svg PUBLIC "-//W3C//DTD SVG 20010904//EN"
 "http://www.w3.org/TR/2001/REC-SVG-20010904/DTD/svg10.dtd">
<svg version="1.0" xmlns="http://www.w3.org/2000/svg"
 width="114.000000pt" height="116.000000pt" viewBox="0 0 114.000000 116.000000"
 preserveAspectRatio="xMidYMid meet">
<metadata>
Created by potrace 1.16, written by Peter Selinger 2001-2019
</metadata>
<g transform="translate(0.000000,116.000000) scale(0.100000,-0.100000)"
fill="#000000" stroke="none">
<path d="M622 1103 c-21 -4 -23 -8 -16 -51 3 -26 7 -51 8 -57 2 -15 -220 -18
-355 -5 -62 7 -132 12 -153 13 l-40 2 1 -120 c0 -113 12 -156 23 -89 4 22 11
30 32 32 25 3 27 0 30 -38 2 -22 8 -39 13 -38 6 2 8 20 7 41 -4 35 -2 37 27
37 29 0 31 -2 31 -40 0 -22 5 -40 10 -40 6 0 10 17 10 39 0 30 4 40 19 44 27
7 31 0 31 -50 0 -58 18 -55 22 5 3 39 6 47 23 47 16 0 20 -7 21 -40 0 -22 2
-44 3 -50 4 -18 20 30 20 63 1 29 4 33 24 30 18 -2 22 -9 20 -33 -2 -17 0 -37
3 -45 8 -23 24 8 24 48 0 27 3 32 25 32 22 0 25 -4 25 -35 0 -19 5 -35 10 -35
6 0 10 16 10 35 0 34 1 35 40 35 l40 0 0 -95 c0 -52 2 -95 5 -95 3 0 21 18 41
40 42 46 54 50 54 15 0 -14 5 -25 10 -25 6 0 10 15 10 34 0 43 -10 35 188 141
28 16 52 32 52 37 0 5 -39 34 -87 64 -49 31 -114 78 -145 105 -54 47 -66 51
-116 42z m239 -159 c26 -19 52 -34 58 -34 28 0 7 -28 -36 -49 -27 -12 -69 -36
-94 -52 -25 -16 -49 -29 -52 -29 -11 0 -8 60 6 127 15 67 10 87 -19 81 -16 -3
-18 -13 -15 -110 l3 -107 -37 -16 c-21 -8 -40 -15 -43 -15 -12 0 11 288 25
313 6 9 139 -62 204 -109z m-711 -52 c0 -41 -1 -43 -27 -40 -26 3 -28 6 -25
43 3 43 30 75 44 52 4 -6 8 -31 8 -55z m71 37 c4 -13 7 -36 8 -51 1 -23 -3
-28 -23 -28 -34 0 -38 12 -25 65 12 49 29 54 40 14z m74 -3 c10 -48 3 -71 -20
-71 -17 0 -20 6 -18 40 5 73 27 91 38 31z m70 -18 c0 -45 -3 -53 -19 -53 -23
0 -29 28 -15 73 17 51 35 40 34 -20z m75 0 c-4 -45 -8 -53 -25 -53 -17 0 -19
6 -17 35 5 42 18 70 35 70 9 0 11 -15 7 -52z m72 2 c-4 -45 -6 -50 -28 -50
-28 0 -29 7 -8 60 23 57 40 52 36 -10z m108 38 c0 -7 -3 -30 -6 -50 -6 -35 -9
-38 -40 -38 -41 0 -43 4 -32 58 9 40 11 42 44 42 21 0 34 -5 34 -12z"/>
<path d="M1026 802 c-8 -13 5 -82 15 -82 11 0 22 43 17 66 -3 20 -23 30 -32
16z"/>
<path d="M654 513 c-7 -12 -24 -18 -45 -18 -36 0 -38 -6 -23 -72 l4 -23 -167
0 c-93 1 -202 5 -243 10 -41 4 -77 5 -80 0 -3 -5 -19 -10 -35 -12 -21 -2 -29
-8 -26 -18 16 -62 30 -154 31 -202 0 -32 5 -58 10 -58 6 0 10 21 10 46 0 32 4
44 13 41 13 -4 14 -10 16 -69 0 -21 6 -38 12 -38 6 0 10 17 9 43 -4 58 -2 69
10 62 6 -3 10 -29 10 -56 0 -34 4 -48 11 -43 7 4 9 22 6 44 -2 21 -1 44 4 51
6 9 9 -4 9 -38 0 -28 5 -55 10 -58 6 -4 10 15 10 49 0 31 5 56 10 56 6 0 10
-25 10 -55 0 -30 5 -55 10 -55 6 0 10 25 10 55 l0 55 165 0 165 0 0 -72 c0
-102 7 -110 70 -75 28 15 55 25 61 22 5 -4 9 0 9 7 0 7 70 49 155 93 86 43
154 84 152 89 -1 6 -37 34 -78 61 -90 60 -243 175 -247 187 -6 14 -37 8 -48
-9z m66 -38 c19 -14 31 -25 27 -25 -14 0 -77 34 -77 42 0 14 15 9 50 -17z
m-99 -18 c-1 -4 -1 -19 -2 -34 l-1 -28 -8 25 c-12 36 -11 52 1 48 6 -2 10 -7
10 -11z m72 -4 c23 -12 28 -18 15 -21 -15 -3 -16 -18 -11 -151 7 -165 9 -160
-64 -176 -32 -6 -33 -6 -33 27 0 37 36 290 45 319 8 23 8 23 48 2z m194 -106
c57 -34 103 -65 103 -69 0 -7 -247 -138 -261 -138 -13 0 -11 128 2 211 14 84
9 84 156 -4z m-170 41 c-3 -8 -6 -5 -6 6 -1 11 2 17 5 13 3 -3 4 -12 1 -19z
m-131 -145 c-4 -10 -41 -13 -171 -13 l-167 0 3 45 c2 25 -1 45 -6 45 -6 0 -11
-20 -13 -45 -4 -61 -22 -57 -22 4 0 72 -20 76 -21 4 -1 -56 -2 -57 -9 -18 -4
22 -6 43 -3 48 2 4 1 13 -4 20 -5 7 -10 -10 -13 -43 -7 -75 -25 -70 -26 7 0
75 -16 70 246 79 107 4 197 9 200 11 7 6 12 -127 6 -144z m-506 100 c0 -43 -5
-41 -13 5 -4 18 -2 32 3 32 6 0 10 -16 10 -37z m34 -45 c-1 -39 -7 -64 -15
-67 -9 -3 -10 8 -6 44 4 26 7 56 7 66 0 11 4 19 8 19 4 0 7 -28 6 -62z m516
-222 c0 -3 -4 -8 -10 -11 -5 -3 -10 -1 -10 4 0 6 5 11 10 11 6 0 10 -2 10 -4z"/>
<path d="M1015 150 c-8 -14 3 -30 21 -30 8 0 14 9 14 20 0 21 -24 28 -35 10z"/>
</g>
</svg>
