<?xml version="1.0" standalone="no"?>
<!DOCTYPE svg PUBLIC "-//W3C//DTD SVG 20010904//EN"
 "http://www.w3.org/TR/2001/REC-SVG-20010904/DTD/svg10.dtd">
<svg version="1.0" xmlns="http://www.w3.org/2000/svg"
 width="140.000000pt" height="160.000000pt" viewBox="0 0 140.000000 160.000000"
 preserveAspectRatio="xMidYMid meet">
<metadata>
Created by potrace 1.16, written by Peter Selinger 2001-2019
</metadata>
<g transform="translate(0.000000,160.000000) scale(0.100000,-0.100000)"
fill="#000000" stroke="none">
<path d="M546 1527 c-15 -12 -67 -43 -115 -68 -84 -44 -89 -45 -161 -42 -111
5 -151 8 -194 17 -34 8 -38 7 -33 -10 3 -11 8 -32 12 -47 5 -26 9 -28 33 -22
62 17 110 24 165 25 52 0 70 -6 155 -52 53 -28 112 -63 129 -76 27 -20 34 -21
38 -10 4 10 -20 40 -65 84 l-72 69 49 43 c26 23 60 50 76 59 27 17 35 37 19
47 -5 3 -21 -5 -36 -17z m-131 -119 c-3 -7 9 -28 25 -45 38 -41 34 -41 -30 -2
-51 31 -51 32 -28 44 30 17 38 18 33 3z m-308 -14 c-3 -3 -12 -4 -19 -1 -8 3
-5 6 6 6 11 1 17 -2 13 -5z"/>
<path d="M1169 1528 c-7 -13 -31 -44 -53 -71 l-41 -47 -108 5 c-60 3 -118 10
-129 16 -11 6 -21 9 -23 7 -6 -6 -9 -77 -4 -83 3 -3 37 1 75 9 38 8 97 16 131
17 l63 2 28 -44 c16 -24 43 -68 61 -96 38 -60 54 -68 46 -20 -3 17 -7 97 -9
177 -4 145 -12 175 -37 128z m14 -155 c3 -54 4 -99 3 -101 -3 -2 -63 95 -74
120 -4 9 47 78 58 78 4 0 10 -44 13 -97z m-316 21 c-3 -3 -12 -4 -19 -1 -8 3
-5 6 6 6 11 1 17 -2 13 -5z"/>
<path d="M646 1301 c-6 -9 1 -56 11 -74 9 -15 34 32 31 56 -3 23 -32 35 -42
18z"/>
<path d="M1285 1253 c8 -44 10 -47 24 -38 6 3 11 22 11 41 0 28 -4 34 -21 34
-19 0 -21 -4 -14 -37z"/>
<path d="M1161 1054 c-24 -37 -67 -91 -95 -121 l-51 -55 -80 6 c-44 3 -92 8
-107 12 -27 6 -28 4 -28 -29 0 -20 4 -38 8 -41 5 -3 28 2 51 10 70 24 125 28
142 11 8 -8 44 -82 79 -163 69 -163 67 -160 76 -151 4 3 -1 35 -10 71 -9 37
-16 105 -16 159 l0 95 74 4 c75 3 97 11 80 27 -5 5 -36 5 -73 0 -35 -5 -66 -7
-68 -5 -9 8 39 142 63 179 22 34 25 57 6 57 -4 0 -27 -30 -51 -66z m-38 -129
c-12 -37 -19 -45 -39 -45 -25 0 -24 1 13 45 20 25 38 45 40 45 1 0 -5 -20 -14
-45z m-18 -150 c0 -46 -3 -81 -6 -77 -7 9 -59 139 -59 150 0 4 15 8 33 9 l32
3 0 -85z"/>
<path d="M525 1048 c-56 -55 -143 -118 -164 -118 -26 0 -27 -18 -3 -36 15 -11
6 -13 -63 -13 -73 0 -98 3 -191 24 -31 7 -31 6 -37 -37 -7 -52 3 -65 34 -45
14 9 62 18 114 21 50 4 117 9 150 12 l60 5 -27 -25 c-16 -14 -28 -29 -28 -34
0 -5 24 -14 53 -21 43 -10 99 -30 185 -68 6 -3 12 1 12 8 0 8 -19 25 -43 38
-56 32 -126 84 -127 95 0 5 38 6 85 3 68 -4 85 -2 85 9 0 11 -19 14 -77 16
-43 0 -86 1 -95 0 -10 -1 -18 3 -18 8 0 6 3 10 8 10 4 0 18 18 32 40 13 22 44
56 67 75 41 35 56 66 31 64 -7 -1 -26 -15 -43 -31z m-113 -140 c-7 -7 -12 -8
-12 -2 0 14 12 26 19 19 2 -3 -1 -11 -7 -17z m-285 -44 c-3 -3 -12 -4 -19 -1
-8 3 -5 6 6 6 11 1 17 -2 13 -5z m323 -49 c14 -16 10 -18 -14 -9 -9 3 -16 10
-16 15 0 14 16 11 30 -6z"/>
<path d="M666 754 c-4 -9 -2 -22 4 -29 6 -7 9 -18 8 -25 -2 -7 2 -14 9 -17 13
-5 29 59 18 76 -9 16 -32 13 -39 -5z"/>
<path d="M1273 690 c1 -45 23 -55 33 -15 8 31 -1 55 -20 55 -11 0 -15 -11 -13
-40z"/>
<path d="M419 458 c-8 -8 -44 -31 -81 -53 -70 -40 -79 -53 -53 -75 8 -7 15
-15 15 -19 0 -10 -164 0 -178 12 -18 14 -28 0 -36 -51 l-6 -43 32 4 c18 3 40
7 48 11 8 3 47 13 85 21 60 13 71 13 80 0 6 -7 36 -57 68 -109 51 -85 77 -114
77 -87 0 5 -27 52 -60 104 -33 53 -60 99 -60 102 0 3 8 5 18 4 9 -1 61 -1 115
0 81 1 97 4 97 17 0 13 -15 15 -92 14 -143 -2 -133 -5 -109 29 12 16 21 34 21
39 0 6 12 25 26 42 18 21 23 35 17 41 -7 7 -15 6 -24 -3z m-61 -107 c-13 -22
-26 -41 -30 -41 -7 0 -22 40 -16 44 1 1 16 12 32 24 16 12 31 20 33 18 3 -2
-6 -23 -19 -45z m-188 -71 c0 -5 -12 -10 -26 -10 -14 0 -23 4 -19 10 3 6 15
10 26 10 10 0 19 -4 19 -10z"/>
<path d="M1090 450 c-8 -5 -39 -15 -67 -21 -29 -7 -53 -15 -53 -18 1 -3 7 -17
15 -31 8 -14 14 -28 15 -32 0 -12 -98 -9 -142 4 -44 13 -58 4 -58 -41 0 -20 3
-23 28 -17 15 4 63 10 108 13 l81 5 17 -61 c9 -34 14 -66 10 -73 -4 -6 -3 -8
4 -4 6 3 13 -3 17 -14 6 -19 25 -28 25 -12 0 5 -11 42 -25 82 -14 40 -23 76
-20 79 6 5 19 6 143 9 101 3 73 22 -33 22 -52 0 -95 3 -95 8 0 11 41 76 54 84
7 5 7 11 1 17 -6 6 -16 7 -25 1z m-38 -70 c-9 -22 -19 -40 -22 -40 -3 0 -11
13 -17 30 -11 29 -10 30 20 39 18 5 33 10 34 10 1 1 -6 -17 -15 -39z"/>
<path d="M1227 164 c-14 -14 -7 -35 11 -32 9 2 17 10 17 17 0 16 -18 25 -28
15z"/>
<path d="M599 158 c-1 -2 -3 -20 -4 -40 -1 -26 2 -38 11 -38 16 0 27 34 19 60
-5 17 -21 27 -26 18z"/>
</g>
</svg>
