<?xml version="1.0" standalone="no"?>
<!DOCTYPE svg PUBLIC "-//W3C//DTD SVG 20010904//EN"
 "http://www.w3.org/TR/2001/REC-SVG-20010904/DTD/svg10.dtd">
<svg version="1.0" xmlns="http://www.w3.org/2000/svg"
 width="47.000000pt" height="48.000000pt" viewBox="0 0 47.000000 48.000000"
 preserveAspectRatio="xMidYMid meet">
<metadata>
Created by potrace 1.16, written by Peter Selinger 2001-2019
</metadata>
<g transform="translate(0.000000,48.000000) scale(0.100000,-0.100000)"
fill="#000000" stroke="none">
<path d="M86 413 c-28 -5 -29 -5 -22 -56 3 -29 6 -109 6 -180 l0 -127 28 7
c15 5 89 7 165 6 105 -1 137 2 137 11 0 9 -28 15 -92 20 -50 3 -120 11 -155
17 l-63 11 0 68 c0 40 8 94 20 132 21 66 25 99 13 97 -5 -1 -21 -4 -37 -6z
m11 -55 c-3 -7 -5 -2 -5 12 0 14 2 19 5 13 2 -7 2 -19 0 -25z m20 -274 c-3 -3
-12 -4 -19 -1 -8 3 -5 6 6 6 11 1 17 -2 13 -5z"/>
</g>
</svg>
