<?xml version="1.0" standalone="no"?>
<!DOCTYPE svg PUBLIC "-//W3C//DTD SVG 20010904//EN"
 "http://www.w3.org/TR/2001/REC-SVG-20010904/DTD/svg10.dtd">
<svg version="1.0" xmlns="http://www.w3.org/2000/svg"
 width="65.000000pt" height="65.000000pt" viewBox="0 0 65.000000 65.000000"
 preserveAspectRatio="xMidYMid meet">
<metadata>
Created by potrace 1.16, written by Peter Selinger 2001-2019
</metadata>
<g transform="translate(0.000000,65.000000) scale(0.100000,-0.100000)"
fill="#000000" stroke="none">
<path d="M378 613 c-23 -4 -28 -9 -28 -33 0 -26 -9 -32 -125 -89 -68 -34 -136
-66 -150 -71 -28 -11 -32 -27 -11 -56 13 -16 13 -21 0 -35 -14 -15 -12 -19 19
-38 58 -36 109 -79 199 -168 81 -81 113 -100 90 -56 -6 11 -4 66 4 148 7 72
13 133 13 138 1 4 46 7 101 7 60 0 100 4 100 10 0 6 -40 10 -101 10 -55 0 -98
4 -95 9 10 15 37 212 31 222 -4 5 -9 8 -13 8 -4 -1 -19 -4 -34 -6z m28 -40
c-3 -16 -8 -48 -13 -73 l-7 -45 -6 65 c-7 72 -6 80 16 80 12 0 14 -7 10 -27z
m-37 -155 c1 -44 -2 -45 -83 -18 -33 11 -65 20 -71 20 -14 0 -29 -71 -17 -81
4 -4 36 -2 72 5 75 14 104 11 96 -10 -3 -8 -9 -64 -12 -124 -4 -61 -10 -110
-15 -110 -17 0 -209 244 -209 266 0 12 113 102 185 147 l40 24 7 -41 c3 -22 7
-58 7 -78z m-234 -18 c-46 -45 -58 -49 -53 -18 2 14 16 29 38 40 54 26 58 21
15 -22z m160 -21 c11 -4 16 -8 10 -9 -5 0 -27 -4 -47 -9 -36 -8 -38 -8 -38 15
0 22 3 24 28 18 15 -4 36 -11 47 -15z m-149 -76 c51 -64 50 -69 -1 -28 -28 22
-52 40 -54 41 -5 4 10 24 18 24 4 0 21 -17 37 -37z"/>
</g>
</svg>
