<?xml version="1.0" standalone="no"?>
<!DOCTYPE svg PUBLIC "-//W3C//DTD SVG 20010904//EN"
 "http://www.w3.org/TR/2001/REC-SVG-20010904/DTD/svg10.dtd">
<svg version="1.0" xmlns="http://www.w3.org/2000/svg"
 width="81.000000pt" height="73.000000pt" viewBox="0 0 81.000000 73.000000"
 preserveAspectRatio="xMidYMid meet">
<metadata>
Created by potrace 1.16, written by Peter Selinger 2001-2019
</metadata>
<g transform="translate(0.000000,73.000000) scale(0.100000,-0.100000)"
fill="#000000" stroke="none">
<path d="M470 665 c0 -24 -5 -35 -15 -35 -10 0 -15 10 -15 31 0 17 -4 28 -10
24 -5 -3 -10 -17 -10 -31 0 -13 -4 -24 -10 -24 -5 0 -10 14 -10 30 0 17 -4 30
-10 30 -5 0 -10 -13 -10 -30 0 -16 -4 -30 -10 -30 -5 0 -10 14 -10 30 0 38
-18 40 -22 3 -3 -26 -6 -28 -45 -25 -41 3 -43 2 -43 -23 0 -23 -4 -26 -27 -23
-23 2 -27 -1 -25 -17 2 -11 6 -44 9 -74 l6 -53 -64 7 c-35 4 -68 8 -73 9 -11
1 -17 -104 -9 -147 4 -23 9 -28 26 -23 12 3 41 8 64 12 l42 6 3 -93 c3 -93 3
-94 28 -93 14 0 35 4 48 8 21 7 22 5 22 -38 0 -25 5 -46 10 -46 6 0 10 18 10
39 0 22 5 43 10 46 6 4 10 -10 10 -34 0 -54 18 -53 22 1 2 24 8 42 13 40 6 -1
9 -25 7 -55 -3 -35 -1 -49 6 -42 6 6 12 30 14 55 2 25 7 45 13 45 5 0 8 -19 7
-43 -2 -24 1 -42 7 -42 5 0 11 19 13 43 l3 42 53 -3 c81 -4 89 4 91 94 1 43 4
81 7 86 3 4 30 8 60 8 30 0 54 5 54 10 0 6 -25 10 -55 10 -62 0 -75 17 -17 23
l37 4 -37 1 c-54 3 -47 22 7 22 25 0 45 5 45 10 0 6 -20 10 -45 10 -33 0 -45
4 -45 15 0 15 22 19 93 18 16 -1 27 4 27 12 0 10 -15 12 -60 8 -60 -6 -60 -6
-60 21 0 15 7 43 15 63 18 44 13 67 -15 60 -10 -3 -39 0 -64 5 -44 9 -46 11
-46 44 0 19 -4 34 -10 34 -5 0 -10 -16 -10 -35z m-163 -51 c-3 -3 -12 -4 -19
-1 -8 3 -5 6 6 6 11 1 17 -2 13 -5z m67 -39 c-3 -12 -1 -26 5 -29 7 -4 11 1
11 13 0 27 10 51 22 51 7 0 9 -18 5 -50 -3 -27 -2 -50 2 -50 5 0 11 23 15 50
8 62 35 71 38 13 1 -37 1 -37 5 -5 4 30 7 32 43 32 38 0 38 0 49 -50 18 -82
17 -84 -31 -76 -46 8 -58 -1 -50 -39 3 -20 11 -24 45 -27 55 -4 62 -28 8 -25
-22 1 -39 -2 -38 -8 1 -5 6 -9 11 -7 5 2 22 0 38 -3 40 -9 23 -28 -19 -22 -24
4 -33 2 -30 -6 2 -7 18 -13 37 -15 l33 -3 -7 -72 c-4 -39 -8 -72 -9 -73 -1 0
-26 -4 -54 -7 l-53 -6 0 50 c0 31 -4 48 -10 44 -5 -3 -10 -24 -10 -45 0 -21
-4 -42 -10 -45 -6 -4 -10 13 -10 45 0 32 -4 49 -10 45 -5 -3 -10 -26 -10 -51
0 -24 -4 -44 -10 -44 -5 0 -10 23 -10 50 0 28 -4 50 -10 50 -5 0 -10 -20 -10
-44 0 -25 -5 -48 -11 -52 -9 -5 -10 8 -7 45 3 28 1 54 -3 57 -9 5 -17 -21 -21
-71 -3 -26 -7 -30 -33 -31 -52 -1 -55 3 -55 76 0 45 4 70 13 73 9 4 8 8 -3 16
-13 9 -11 12 9 18 l25 6 -22 8 c-19 7 -21 14 -16 36 4 16 10 33 15 38 4 6 4
17 0 24 -9 14 12 95 30 117 6 8 22 14 35 14 21 0 24 -5 24 -40 0 -22 5 -40 10
-40 6 0 10 12 10 28 0 39 11 73 21 66 5 -3 6 -16 3 -29z m226 -2 c0 -22 -2
-25 -10 -13 -13 20 -13 40 0 40 6 0 10 -12 10 -27z m-360 -12 c0 -6 -4 -13
-10 -16 -5 -3 -10 1 -10 9 0 9 5 16 10 16 6 0 10 -4 10 -9z m338 -123 c-3 -7
-10 -13 -16 -12 -7 1 -24 2 -39 4 l-28 2 30 8 c46 12 57 11 53 -2z m-368 -13
c0 -11 -12 -15 -49 -15 -57 0 -78 17 -29 23 68 8 78 7 78 -8z m0 -51 c0 -12
-11 -15 -57 -13 -32 2 -62 5 -67 7 -18 10 22 22 72 22 40 0 52 -3 52 -16z
m-22 -41 c-15 -2 -42 -2 -60 0 -18 2 -6 4 27 4 33 0 48 -2 33 -4z"/>
<path d="M312 468 c-19 -19 -14 -33 20 -58 l31 -23 -32 -29 c-19 -17 -30 -35
-27 -44 8 -20 35 -18 43 4 4 9 13 23 20 31 12 11 18 10 38 -9 33 -31 45 -17
15 15 l-24 25 23 21 c28 26 20 37 -12 16 -24 -15 -25 -15 -42 24 -19 40 -32
48 -53 27z"/>
</g>
</svg>
