<?xml version="1.0" standalone="no"?>
<!DOCTYPE svg PUBLIC "-//W3C//DTD SVG 20010904//EN"
 "http://www.w3.org/TR/2001/REC-SVG-20010904/DTD/svg10.dtd">
<svg version="1.0" xmlns="http://www.w3.org/2000/svg"
 width="152.000000pt" height="130.000000pt" viewBox="0 0 152.000000 130.000000"
 preserveAspectRatio="xMidYMid meet">
<metadata>
Created by potrace 1.16, written by Peter Selinger 2001-2019
</metadata>
<g transform="translate(0.000000,130.000000) scale(0.100000,-0.100000)"
fill="#000000" stroke="none">
<path d="M1377 1218 l-38 -31 -167 6 c-106 3 -185 11 -216 21 -27 8 -53 13
-57 10 -4 -2 -10 -18 -14 -34 -5 -21 -14 -32 -32 -36 -22 -6 -24 -10 -18 -38
3 -17 9 -91 12 -163 3 -73 9 -133 14 -133 11 0 12 11 9 73 -1 29 2 47 9 47 6
0 12 -21 12 -47 3 -75 4 -81 12 -89 4 -4 7 25 7 64 0 41 4 72 10 72 6 0 10
-29 10 -67 0 -83 17 -74 23 12 l3 60 2 -67 c3 -87 22 -90 22 -3 0 37 4 65 10
65 6 0 10 -27 10 -60 0 -33 4 -60 10 -60 6 0 10 26 10 59 0 44 4 60 16 65 9 3
85 6 170 6 176 0 167 6 134 -94 -22 -64 -25 -90 -11 -81 5 3 19 36 31 73 12
37 28 81 36 99 8 17 14 35 14 40 0 5 14 31 30 57 29 46 30 48 10 53 -18 5 -20
13 -20 79 0 41 -3 74 -7 74 -5 -1 -25 -15 -46 -32z m33 -33 c0 -14 -4 -25 -9
-25 -12 0 -23 29 -15 41 10 18 24 9 24 -16z m-436 5 c15 0 16 -3 7 -14 -10
-12 18 -14 189 -11 l200 3 18 -27 c15 -20 16 -32 9 -56 -5 -16 -11 -34 -12
-40 -2 -6 -70 -9 -189 -7 l-186 3 0 29 0 30 193 0 c127 0 187 4 177 10 -8 5
-92 10 -185 10 -120 0 -175 4 -183 12 -9 9 -12 9 -12 -1 0 -7 -5 -9 -10 -6 -6
4 -17 2 -24 -4 -10 -9 -15 -7 -20 6 -6 15 -8 15 -16 3 -8 -13 -12 -13 -26 2
-19 18 -16 21 31 31 15 4 13 5 -7 6 -21 1 -26 5 -21 17 4 10 13 14 27 10 11
-3 29 -6 40 -6z m-108 -87 c-11 -11 -19 6 -11 24 8 17 8 17 12 0 3 -10 2 -21
-1 -24z m64 -33 c0 -16 -4 -30 -10 -30 -5 0 -10 14 -10 30 0 17 5 30 10 30 6
0 10 -13 10 -30z m40 -1 c0 -20 -4 -29 -12 -27 -7 3 -12 14 -11 26 1 31 2 32
13 32 6 0 10 -14 10 -31z m-80 -5 c0 -14 -4 -23 -9 -20 -5 3 -7 15 -4 26 7 28
13 25 13 -6z m107 -6 c-3 -7 -5 -2 -5 12 0 14 2 19 5 13 2 -7 2 -19 0 -25z
m424 -5 c-8 -15 -10 -15 -11 -2 0 17 10 32 18 25 2 -3 -1 -13 -7 -23z m-531
-59 c0 -21 -4 -33 -10 -29 -5 3 -10 19 -10 36 0 16 5 29 10 29 6 0 10 -16 10
-36z m40 -5 c0 -16 -4 -29 -10 -29 -5 0 -10 16 -10 36 0 21 4 33 10 29 6 -3
10 -19 10 -36z m40 14 c0 -10 -5 -25 -10 -33 -7 -11 -10 -7 -10 18 0 17 5 32
10 32 6 0 10 -8 10 -17z m410 -2 c0 -11 -3 -22 -8 -24 -4 -3 -86 -7 -182 -8
l-175 -3 -3 27 -3 27 185 0 c177 0 186 -1 186 -19z m-380 -10 c0 -11 -4 -23
-10 -26 -6 -4 -10 5 -10 19 0 14 5 26 10 26 6 0 10 -9 10 -19z"/>
<path d="M542 1213 c-19 -4 -23 -9 -17 -26 4 -12 8 -35 9 -52 l1 -30 -112 -3
-113 -4 0 25 c0 30 21 37 97 32 29 -1 67 1 85 5 21 5 -29 8 -130 9 -125 1
-170 5 -192 16 -33 17 -33 17 -30 -36 1 -21 -4 -40 -10 -44 -9 -5 -10 -1 -5
15 6 20 4 21 -17 14 -12 -4 -33 -7 -45 -6 -26 2 -30 -13 -8 -34 11 -11 15 -37
15 -87 0 -96 11 -207 21 -207 4 0 5 36 2 80 l-6 80 27 0 c26 0 26 0 26 -80 0
-47 4 -80 10 -80 6 0 10 33 10 80 0 73 2 80 20 80 18 0 19 -5 14 -82 -3 -63
-2 -77 6 -59 6 13 13 64 17 112 3 49 10 89 15 89 5 0 8 -12 7 -27 -1 -16 -1
-66 0 -113 2 -106 21 -90 21 17 0 63 2 72 16 66 14 -5 15 -18 9 -97 -4 -63 -3
-88 4 -81 5 6 13 47 17 92 l7 82 76 3 c42 2 96 2 119 0 l44 -3 -7 -74 c-3 -43
-2 -76 4 -79 11 -7 26 133 17 168 -3 14 1 45 9 68 19 54 19 68 0 68 -19 0 -19
37 0 70 24 41 22 43 -33 33z m-367 -52 c3 -5 1 -12 -5 -16 -5 -3 -10 1 -10 9
0 18 6 21 15 7z m71 -66 c0 -39 -4 -55 -14 -55 -9 0 -13 10 -12 28 4 49 0 72
-10 72 -5 0 -10 -9 -10 -19 0 -18 -5 -19 -40 -11 -14 3 46 40 65 40 20 0 22
-4 21 -55z m46 30 c-5 -30 -24 -28 -29 3 -2 16 2 22 16 22 14 0 17 -6 13 -25z
m-198 -30 c-4 -8 -8 -15 -10 -15 -2 0 -4 7 -4 15 0 8 4 15 10 15 5 0 7 -7 4
-15z m44 -33 c3 -18 -2 -22 -22 -22 -29 0 -31 3 -15 31 13 25 33 20 37 -9z
m62 3 c0 -18 -5 -25 -20 -25 -15 0 -20 7 -20 25 0 18 5 25 20 25 15 0 20 -7
20 -25z m90 0 c0 -16 -6 -25 -15 -25 -15 0 -21 31 -8 43 13 14 23 6 23 -18z
m248 -2 c3 -23 2 -23 -112 -23 l-116 0 0 25 0 25 113 -3 c108 -2 112 -3 115
-24z m-398 -63 c0 -15 -7 -20 -25 -20 -18 0 -25 5 -25 20 0 15 7 20 25 20 18
0 25 -5 25 -20z m60 0 c0 -13 -7 -20 -20 -20 -13 0 -20 7 -20 20 0 13 7 20 20
20 13 0 20 -7 20 -20z m90 0 c0 -11 -7 -20 -15 -20 -8 0 -15 9 -15 20 0 11 7
20 15 20 8 0 15 -9 15 -20z m258 3 c-3 -16 -18 -18 -121 -21 -112 -3 -117 -2
-117 18 0 19 6 20 121 20 109 0 120 -2 117 -17z"/>
<path d="M673 820 c1 -45 23 -55 33 -15 8 31 -1 55 -20 55 -11 0 -15 -11 -13
-40z"/>
<path d="M1483 820 c1 -44 11 -51 27 -21 17 32 12 61 -9 61 -17 0 -20 -6 -18
-40z"/>
<path d="M630 550 c-8 -6 -28 -10 -44 -10 -22 0 -27 -4 -22 -16 8 -20 -21 -68
-68 -113 l-35 -34 -115 0 c-100 0 -120 3 -152 22 -41 24 -48 22 -49 -16 0 -21
-6 -28 -32 -35 -18 -5 -33 -10 -33 -12 0 -2 9 -25 21 -51 18 -40 21 -63 18
-148 -3 -74 -1 -101 9 -104 9 -4 12 12 12 57 0 58 1 61 23 58 20 -3 23 -10 27
-68 6 -73 18 -63 23 20 l3 55 2 -62 c2 -77 22 -84 22 -8 0 30 5 55 10 55 6 0
10 -27 10 -60 0 -33 4 -60 10 -60 6 0 10 27 10 60 l0 60 63 0 c34 0 104 3 155
7 l92 6 0 -46 c0 -25 4 -48 8 -51 5 -3 12 81 16 186 6 173 9 197 30 244 19 40
22 55 12 63 -7 6 -17 6 -26 1z m0 -34 c0 -15 -14 -35 -21 -30 -15 9 -10 34 6
34 8 0 15 -2 15 -4z m-32 -94 c-3 -35 -5 -37 -43 -43 -39 -6 -35 -9 15 -12 18
-2 25 -8 25 -22 0 -17 -8 -20 -58 -23 l-58 -3 19 35 c11 20 35 58 53 85 38 55
53 50 47 -17z m-403 -52 c3 -5 -1 -10 -9 -10 -9 0 -16 5 -16 10 0 6 4 10 9 10
6 0 13 -4 16 -10z m218 -32 c-15 -14 -37 -22 -67 -24 -40 -2 -46 0 -46 17 0
19 -5 20 -57 15 -40 -4 -52 -3 -38 3 11 5 67 10 125 10 l104 1 -21 -22z m55 0
c-3 -7 -13 -15 -24 -17 -16 -3 -17 -1 -5 13 16 19 34 21 29 4z m-328 -15 c0
-5 -4 -14 -9 -21 -7 -11 -9 -11 -14 1 -3 8 -3 18 0 21 9 8 23 7 23 -1z m40
-52 c0 -24 -3 -28 -20 -24 -21 6 -24 12 -14 37 11 28 34 18 34 -13z m50 -2 c0
-10 -7 -19 -15 -19 -15 0 -21 31 -9 43 11 10 24 -3 24 -24z m30 6 c0 -14 -4
-25 -9 -25 -4 0 -6 11 -3 25 2 14 6 25 8 25 2 0 4 -11 4 -25z m175 5 c8 -26
22 -26 30 0 5 17 15 20 65 20 44 0 59 -4 64 -16 3 -9 4 -20 0 -25 -3 -5 -75
-9 -160 -9 -143 0 -154 1 -154 18 0 27 2 28 79 30 62 2 70 1 76 -18z m-247
-84 c3 -25 1 -27 -25 -24 -34 4 -46 43 -16 51 29 7 38 2 41 -27z m29 -18 c-2
-13 -4 -5 -4 17 -1 22 1 32 4 23 2 -10 2 -28 0 -40z m43 22 c0 -16 -4 -30 -10
-30 -11 0 -14 43 -3 53 11 12 13 8 13 -23z m330 1 l0 -29 -132 -5 c-184 -8
-178 -9 -178 29 l0 32 155 1 155 2 0 -30z"/>
<path d="M1436 433 c-27 -3 -50 -15 -75 -39 l-36 -34 -158 0 c-125 0 -163 3
-181 15 -23 15 -23 15 -30 -22 -13 -66 -18 -261 -7 -267 5 -4 12 -2 16 4 11
18 35 11 35 -10 0 -11 5 -20 10 -20 6 0 10 11 10 25 0 29 17 33 36 7 13 -16
13 -16 14 1 0 21 38 23 46 2 4 -8 10 -15 15 -15 5 0 9 7 9 15 0 16 8 17 185
19 l90 1 5 -30 c10 -56 18 -11 19 110 2 154 5 173 30 199 21 22 28 48 14 44
-5 -1 -26 -3 -47 -5z m14 -27 c0 -11 -19 -15 -25 -6 -3 5 1 10 9 10 9 0 16 -2
16 -4z m-44 -35 c-4 -6 -17 -11 -28 -11 -21 0 -21 1 -3 20 19 21 44 13 31 -9z
m14 -41 c0 -18 -7 -20 -57 -20 l-58 1 24 19 c13 11 38 20 57 20 27 0 34 -4 34
-20z m-366 2 c8 -13 -11 -35 -23 -28 -16 10 -14 36 3 36 8 0 17 -4 20 -8z
m107 0 c5 -1 8 -6 5 -10 -9 -14 -96 -12 -96 2 0 11 45 15 91 8z m111 -8 c-25
-17 -83 -15 -90 4 -3 9 12 12 54 12 56 0 57 -1 36 -16z m-222 -54 c0 -11 -7
-20 -15 -20 -8 0 -15 9 -15 20 0 11 7 20 15 20 8 0 15 -9 15 -20z m68 -3 c3
-12 -3 -17 -22 -17 -25 0 -35 18 -19 34 12 12 38 2 41 -17z m50 0 c2 -12 -3
-17 -17 -17 -12 0 -21 6 -21 13 0 31 32 34 38 4z m52 19 c0 -2 3 -11 6 -20 4
-11 0 -16 -14 -16 -23 0 -36 15 -27 30 6 10 35 14 35 6z m40 -6 c0 -5 -5 -10
-11 -10 -5 0 -7 5 -4 10 3 6 8 10 11 10 2 0 4 -4 4 -10z m160 -10 c0 -18 -7
-20 -75 -20 -73 0 -75 1 -65 20 9 17 21 20 75 20 58 0 65 -2 65 -20z m-420 -5
c0 -9 -9 -15 -22 -15 -21 0 -21 0 -2 15 24 18 24 18 24 0z m420 -51 c0 -17 15
-15 -122 -21 -114 -5 -118 -4 -118 16 0 18 6 20 61 20 33 0 62 1 64 3 2 2 28
1 59 0 40 -3 56 -8 56 -18z m-370 -9 c0 -16 -6 -25 -15 -25 -9 0 -15 9 -15 25
0 16 6 25 15 25 9 0 15 -9 15 -25z m68 -1 c2 -16 -2 -20 -20 -19 -16 1 -24 9
-26 24 -3 19 0 22 20 19 14 -2 24 -11 26 -24z m52 6 c0 -11 -7 -20 -15 -20 -8
0 -15 9 -15 20 0 11 7 20 15 20 8 0 15 -9 15 -20z m-170 -5 c0 -8 -9 -15 -20
-15 -22 0 -27 15 -7 23 21 9 27 7 27 -8z m413 -34 c4 -1 7 -8 7 -16 0 -9 -10
-15 -27 -16 -16 0 -66 -3 -112 -5 -50 -2 -89 0 -97 7 -8 7 -14 7 -19 -1 -11
-17 -25 -11 -25 11 0 13 5 19 13 16 6 -2 32 -1 57 2 37 5 172 7 203 2z m-297
-30 c-10 -16 -46 -13 -46 3 0 16 30 27 44 15 4 -4 5 -12 2 -18z m-66 4 c0 -8
-7 -15 -15 -15 -8 0 -15 7 -15 15 0 8 7 15 15 15 8 0 15 -7 15 -15z m-50 -5
c0 -5 -4 -10 -10 -10 -5 0 -10 5 -10 10 0 6 5 10 10 10 6 0 10 -4 10 -10z"/>
<path d="M895 346 c-22 -5 -41 -11 -43 -12 -2 -1 4 -17 13 -34 9 -18 14 -42
11 -54 -10 -41 -9 -180 1 -183 7 -3 12 37 15 107 4 94 8 115 27 141 12 16 21
33 19 37 -2 4 -21 3 -43 -2z"/>
<path d="M683 90 c0 -45 13 -52 27 -14 15 38 12 54 -9 54 -15 0 -18 -8 -18
-40z"/>
<path d="M1511 114 c0 -11 3 -14 6 -6 3 7 2 16 -1 19 -3 4 -6 -2 -5 -13z"/>
</g>
</svg>
