<?xml version="1.0" standalone="no"?>
<!DOCTYPE svg PUBLIC "-//W3C//DTD SVG 20010904//EN"
 "http://www.w3.org/TR/2001/REC-SVG-20010904/DTD/svg10.dtd">
<svg version="1.0" xmlns="http://www.w3.org/2000/svg"
 width="95.000000pt" height="56.000000pt" viewBox="0 0 95.000000 56.000000"
 preserveAspectRatio="xMidYMid meet">
<metadata>
Created by potrace 1.16, written by Peter Selinger 2001-2019
</metadata>
<g transform="translate(0.000000,56.000000) scale(0.100000,-0.100000)"
fill="#000000" stroke="none">
<path d="M150 491 c0 -21 3 -40 6 -44 3 -3 24 1 46 9 22 8 56 14 74 14 30 0
34 -3 34 -26 l0 -26 -82 3 -82 4 0 -45 0 -45 82 4 c70 3 82 1 82 -13 0 -13
-13 -16 -83 -16 -46 0 -86 -3 -89 -6 -3 -3 -4 -14 -1 -24 4 -14 10 -17 22 -11
9 5 44 11 79 14 55 4 63 3 60 -12 -3 -13 -18 -16 -88 -18 -47 -1 -89 -2 -94
-2 -4 -1 -1 -12 7 -25 15 -22 15 -24 -4 -29 -12 -3 -18 -10 -15 -15 3 -5 -8
-24 -24 -43 -36 -42 -36 -50 -6 -78 27 -26 31 -23 52 49 l15 50 58 0 c41 0 60
-4 64 -14 4 -9 18 -13 39 -11 l33 2 -4 172 -3 173 248 -4 248 -3 8 -30 c5 -16
7 -91 3 -165 -5 -125 -12 -162 -22 -133 -2 7 -16 29 -30 50 -17 25 -28 56 -31
91 -3 35 -9 52 -18 52 -8 0 -14 -8 -14 -18 0 -10 -8 -24 -18 -33 -14 -12 -37
-13 -132 -7 -63 4 -136 14 -163 22 -51 15 -63 9 -53 -28 6 -24 7 -24 178 -25
199 -2 189 3 259 -113 23 -37 45 -68 50 -68 5 0 9 28 9 63 1 91 26 298 40 330
7 15 11 29 9 31 -2 2 -155 6 -339 9 -184 3 -352 10 -372 15 l-38 10 0 -37z
m65 0 c17 -7 15 -9 -13 -13 -22 -3 -32 -1 -32 9 0 14 15 16 45 4z m655 -18 c0
-5 -5 -15 -10 -23 -8 -12 -10 -11 -10 8 0 12 5 22 10 22 6 0 10 -3 10 -7z
m-560 -93 c0 -18 -7 -20 -68 -20 -38 0 -72 3 -76 8 -10 10 59 30 107 31 31 1
37 -2 37 -19z m-27 -169 c-4 -16 -16 -20 -65 -23 -33 -1 -62 0 -64 3 -7 13 22
28 61 32 22 2 47 4 57 5 11 2 15 -4 11 -17z m24 -38 c-3 -10 -5 -4 -5 12 0 17
2 24 5 18 2 -7 2 -21 0 -30z m-211 -90 c-11 -11 -19 6 -11 24 8 17 8 17 12 0
3 -10 2 -21 -1 -24z"/>
</g>
</svg>
