<?xml version="1.0" standalone="no"?>
<!DOCTYPE svg PUBLIC "-//W3C//DTD SVG 20010904//EN"
 "http://www.w3.org/TR/2001/REC-SVG-20010904/DTD/svg10.dtd">
<svg version="1.0" xmlns="http://www.w3.org/2000/svg"
 width="137.000000pt" height="60.000000pt" viewBox="0 0 137.000000 60.000000"
 preserveAspectRatio="xMidYMid meet">
<metadata>
Created by potrace 1.16, written by Peter Selinger 2001-2019
</metadata>
<g transform="translate(0.000000,60.000000) scale(0.100000,-0.100000)"
fill="#000000" stroke="none">
<path d="M735 496 c-15 -20 -25 -24 -53 -20 -33 4 -33 3 -27 -25 6 -29 6 -29
-45 -32 -29 -2 -54 -1 -57 4 -2 4 -11 7 -19 7 -12 0 -14 -10 -10 -47 4 -25 7
-48 9 -49 1 -2 20 1 42 6 71 17 95 13 95 -14 0 -23 -3 -24 -47 -20 -27 2 -58
7 -70 9 -19 5 -23 1 -23 -20 0 -25 2 -26 48 -20 26 3 57 8 70 11 24 5 22 14
27 -133 2 -46 11 -50 43 -21 15 14 64 53 110 87 54 41 80 66 75 74 -5 7 -30
46 -57 87 -27 41 -55 90 -63 108 -16 38 -24 40 -48 8z m35 -40 c0 -5 -7 -3
-15 4 -8 7 -12 17 -9 22 7 10 24 -9 24 -26z m61 -89 c21 -34 28 -55 23 -70 -8
-25 -139 -157 -156 -157 -12 0 -8 287 5 307 15 24 95 -26 128 -80z m-141 79
c0 -3 -4 -8 -10 -11 -5 -3 -10 -1 -10 4 0 6 5 11 10 11 6 0 10 -2 10 -4z m-20
-61 c0 -12 -13 -15 -60 -15 -94 0 -74 25 23 29 27 1 37 -3 37 -14z"/>
<path d="M1143 506 c-9 -17 -27 -24 -65 -25 -14 -1 -18 -10 -18 -42 0 -29 -4
-40 -12 -36 -62 23 -58 30 -57 -98 l0 -116 40 6 39 6 0 -62 0 -61 98 101 c54
55 103 101 108 101 6 0 17 11 24 25 13 24 11 28 -40 80 -57 58 -75 68 -65 35
5 -16 2 -20 -17 -20 -49 0 -69 11 -62 34 9 30 11 31 39 12 31 -20 34 -3 3 18
-12 9 -18 19 -14 23 5 5 15 -2 23 -14 9 -13 20 -23 25 -23 9 0 0 21 -25 54
-13 18 -15 18 -24 2z m-43 -65 c0 -11 -4 -23 -10 -26 -6 -4 -10 5 -10 19 0 14
5 26 10 26 6 0 10 -9 10 -19z m-70 -51 c0 -5 9 -10 20 -10 11 0 20 -7 20 -15
0 -8 -6 -15 -14 -15 -7 0 -19 -7 -27 -16 -11 -13 -9 -14 14 -9 17 5 27 3 27
-4 0 -10 -6 -12 -42 -15 -9 -1 -13 15 -14 47 -1 26 3 47 7 47 5 0 9 -4 9 -10z
m210 -15 c10 -12 5 -26 -29 -76 -23 -34 -41 -65 -41 -69 0 -4 -10 -18 -21 -31
-12 -13 -28 -34 -36 -47 -9 -12 -18 -22 -22 -22 -3 0 -5 34 -3 75 l4 75 29 0
c18 0 29 5 29 14 0 8 -6 14 -12 13 -31 -1 -48 4 -48 13 0 6 13 10 29 10 17 0
33 5 36 10 4 6 -7 10 -24 10 -29 0 -41 17 -24 33 13 14 120 7 133 -8z m44 -41
c4 -11 -9 -32 -41 -65 -27 -27 -51 -49 -55 -49 -9 0 74 129 83 130 4 0 10 -7
13 -16z m-214 -64 c0 -5 -13 -10 -30 -10 -16 0 -30 5 -30 10 0 6 14 10 30 10
17 0 30 -4 30 -10z m0 -46 c0 -11 -5 -14 -16 -10 -9 3 -23 6 -32 6 -15 0 -15
2 -2 10 23 15 50 12 50 -6z"/>
<path d="M284 455 c-4 -10 -20 -15 -45 -15 -38 0 -39 -1 -39 -35 l0 -36 -52 7
c-37 5 -49 4 -44 -5 5 -7 -1 -11 -16 -11 -18 0 -20 2 -8 10 11 7 12 12 3 21
-22 22 -33 -1 -27 -59 3 -31 6 -84 7 -117 2 -66 -2 -64 80 -44 26 7 47 16 47
21 0 4 -25 8 -55 8 -82 0 -68 34 18 46 63 9 49 24 -21 25 l-57 1 35 15 c36 16
76 20 87 9 4 -3 6 -62 5 -131 -2 -133 4 -148 43 -105 20 22 7 28 -14 8 -10
-11 -12 4 -7 77 8 105 25 212 38 238 8 15 12 16 24 6 19 -15 124 -175 124
-187 0 -14 -73 -78 -110 -97 -18 -9 -30 -19 -27 -21 9 -9 88 36 118 67 15 16
34 29 41 29 6 0 3 -7 -8 -15 -18 -14 -18 -15 3 -12 12 2 25 6 28 9 4 3 -19 46
-50 96 -30 49 -65 117 -76 151 -21 61 -34 75 -45 46z m26 -48 c0 -5 -4 -5 -10
-2 -5 3 -10 14 -10 23 0 15 2 15 10 2 5 -8 10 -19 10 -23z m-61 1 c0 -7 -7
-29 -14 -48 l-13 -35 -1 48 c-1 35 3 47 14 47 8 0 15 -6 14 -12z m-49 -67 c0
-15 -36 -23 -76 -15 -25 5 -32 9 -22 15 18 12 98 11 98 0z"/>
<path d="M525 204 c4 -32 9 -61 11 -63 2 -2 15 1 29 7 14 7 39 12 55 12 16 0
32 5 35 10 4 6 -11 10 -39 10 -48 0 -76 7 -76 20 0 11 77 29 100 23 11 -3 20
-1 20 5 0 5 -24 12 -52 14 -29 3 -61 9 -71 13 -17 7 -18 4 -12 -51z"/>
<path d="M903 81 c3 -52 11 -59 27 -21 10 24 10 33 0 45 -21 25 -30 17 -27
-24z"/>
<path d="M1296 95 c-3 -9 1 -18 10 -22 19 -7 39 11 30 26 -10 16 -33 13 -40
-4z"/>
<path d="M462 68 c-6 -8 -7 -19 -2 -27 4 -8 6 -20 3 -28 -9 -24 17 -13 29 12
9 21 9 29 -4 41 -12 12 -17 13 -26 2z"/>
</g>
</svg>
