<?xml version="1.0" standalone="no"?>
<!DOCTYPE svg PUBLIC "-//W3C//DTD SVG 20010904//EN"
 "http://www.w3.org/TR/2001/REC-SVG-20010904/DTD/svg10.dtd">
<svg version="1.0" xmlns="http://www.w3.org/2000/svg"
 width="98.000000pt" height="56.000000pt" viewBox="0 0 98.000000 56.000000"
 preserveAspectRatio="xMidYMid meet">
<metadata>
Created by potrace 1.16, written by Peter Selinger 2001-2019
</metadata>
<g transform="translate(0.000000,56.000000) scale(0.100000,-0.100000)"
fill="#000000" stroke="none">
<path d="M695 482 c-12 -20 -37 -36 -89 -55 -67 -26 -81 -27 -234 -27 -171 0
-197 5 -236 49 -14 15 -23 18 -37 11 -10 -6 -27 -10 -38 -10 -25 0 -26 -8 -6
-46 10 -21 15 -61 15 -136 0 -65 4 -108 10 -108 6 0 10 9 10 20 0 17 7 20 40
20 l40 0 0 -51 c0 -31 4 -48 10 -44 5 3 10 26 10 51 l0 44 115 0 c128 0 199
-12 260 -45 23 -12 52 -25 64 -28 13 -3 25 -15 28 -26 9 -34 26 -24 52 30 21
46 92 129 110 129 12 0 43 -61 61 -117 9 -30 21 -53 26 -51 5 2 7 10 6 18 -2
8 -6 66 -9 128 -3 63 -9 112 -15 112 -5 0 -23 -9 -38 -20 l-28 -20 -20 27
c-29 42 -59 104 -67 141 -8 39 -19 41 -40 4z m33 -54 c14 -39 13 -41 -16 -18
-13 11 -20 24 -16 34 9 24 18 19 32 -16z m-641 -20 c-3 -8 -6 -5 -6 6 -1 11 2
17 5 13 3 -3 4 -12 1 -19z m24 -35 c-9 -16 -10 -16 -11 -1 0 9 3 25 7 35 7 16
8 17 11 1 2 -10 -1 -25 -7 -35z m576 28 c17 -11 53 -40 79 -65 55 -53 60 -43
-59 -134 -45 -34 -73 -49 -85 -45 -32 11 -117 80 -131 107 -13 24 -13 28 9 49
23 22 141 105 150 106 3 1 19 -8 37 -18z m-239 -60 l2 -38 -46 -7 c-66 -9
-184 -8 -184 2 0 4 5 13 12 20 18 18 5 23 -38 14 -28 -6 -39 -13 -38 -25 3
-29 -45 -22 -56 9 -13 34 -13 37 5 31 8 -4 17 -2 21 4 13 22 53 28 184 28
l135 1 3 -39z m67 14 c-31 -25 -45 -31 -45 -17 0 7 55 40 70 41 3 1 -8 -10
-25 -24z m361 -95 c2 -22 2 -40 -1 -40 -2 0 -12 16 -21 36 -14 30 -15 37 -3
44 18 12 21 7 25 -40z m-701 -14 c0 -22 -47 -29 -73 -10 -24 18 -4 35 36 32
29 -2 37 -7 37 -22z m244 0 c-20 -17 -40 -22 -102 -24 -91 -4 -117 3 -117 29
0 19 7 20 122 18 l123 -1 -26 -22z m66 -16 c18 -20 17 -20 -8 -20 -28 0 -42
14 -32 30 9 15 20 12 40 -10z m205 -84 c0 -3 -4 -8 -10 -11 -5 -3 -10 -1 -10
4 0 6 5 11 10 11 6 0 10 -2 10 -4z"/>
<path d="M618 374 c-24 -13 -26 -19 -21 -46 6 -28 4 -31 -13 -23 -44 18 -58
12 -62 -29 -3 -34 -2 -38 15 -31 10 4 28 10 41 12 20 5 22 2 22 -36 0 -26 4
-40 10 -36 6 3 10 24 10 46 l0 39 71 0 c44 0 68 4 64 10 -3 6 -33 10 -66 10
-64 0 -75 13 -44 54 16 21 20 47 8 45 -5 -1 -20 -8 -35 -15z"/>
</g>
</svg>
