<?xml version="1.0" standalone="no"?>
<!DOCTYPE svg PUBLIC "-//W3C//DTD SVG 20010904//EN"
 "http://www.w3.org/TR/2001/REC-SVG-20010904/DTD/svg10.dtd">
<svg version="1.0" xmlns="http://www.w3.org/2000/svg"
 width="127.000000pt" height="107.000000pt" viewBox="0 0 127.000000 107.000000"
 preserveAspectRatio="xMidYMid meet">
<metadata>
Created by potrace 1.16, written by Peter Selinger 2001-2019
</metadata>
<g transform="translate(0.000000,107.000000) scale(0.100000,-0.100000)"
fill="#000000" stroke="none">
<path d="M1188 1063 c18 -2 45 -2 60 0 15 2 0 4 -33 4 -33 0 -45 -2 -27 -4z"/>
<path d="M285 984 c-19 -47 -19 -51 6 -57 17 -5 20 -11 15 -29 -3 -13 -6 -63
-6 -113 l0 -90 -32 -18 -31 -18 6 68 c4 37 10 86 13 108 14 85 13 90 -26 89
l-35 0 1 -53 2 -53 -47 5 c-25 3 -60 9 -77 12 -27 6 -32 4 -37 -17 -10 -36 -9
-38 23 -38 20 0 30 5 30 15 0 13 4 14 21 4 12 -6 37 -9 55 -6 19 3 36 2 39 -3
3 -4 7 -38 9 -74 5 -71 23 -126 43 -126 6 0 35 25 64 55 79 84 144 130 187
132 20 2 129 5 242 9 l205 6 -69 -71 -69 -70 37 -18 c43 -20 47 -17 68 54 7
24 16 43 20 43 3 0 10 9 13 20 8 26 22 26 30 0 3 -11 11 -20 16 -20 14 0 11
28 -8 63 -19 34 -41 125 -42 169 -1 39 -15 42 -61 13 l-42 -26 31 -32 c46 -48
81 -91 81 -99 0 -15 -273 -8 -365 8 -65 12 -90 14 -93 5 -12 -36 -86 29 -166
147 -16 23 -30 42 -32 42 -2 0 -11 -16 -19 -36z m51 -38 l22 -34 -29 17 c-16
9 -29 24 -29 34 0 26 13 20 36 -17z m587 7 c2 -5 7 -21 11 -38 l7 -30 -26 28
c-14 15 -23 32 -20 37 7 12 22 13 28 3z m-677 -65 c-3 -7 -7 -26 -11 -43 -7
-27 -8 -28 -15 -10 -16 38 -11 65 10 65 11 0 18 -5 16 -12z m94 -85 c0 -102
-15 -114 -19 -17 -2 54 6 114 15 114 2 0 4 -44 4 -97z m40 70 c6 -77 2 -137
-8 -141 -9 -3 -12 18 -12 72 0 44 4 76 10 76 6 0 10 -3 10 -7z m63 -48 c15
-13 27 -26 27 -29 0 -6 -55 -36 -65 -36 -3 0 -5 20 -5 45 0 25 3 45 8 45 4 0
19 -12 35 -25z m127 -21 c0 -2 -14 -4 -31 -4 -16 0 -28 4 -25 9 5 8 56 3 56
-5z m325 -134 c-12 -24 -20 -29 -28 -21 -8 8 -4 18 13 36 30 32 36 26 15 -15z
m-613 -32 c-6 -6 -15 -8 -19 -4 -4 4 -1 11 7 16 19 12 27 3 12 -12z"/>
<path d="M1087 773 c-7 -13 5 -73 14 -73 14 0 32 47 26 64 -7 16 -32 22 -40 9z"/>
<path d="M182 450 c-27 -35 -28 -50 -4 -51 10 0 12 -3 5 -6 -8 -3 -13 -23 -13
-48 0 -50 -17 -60 -76 -43 -44 12 -64 -2 -64 -43 0 -29 16 -38 36 -21 10 10
94 35 99 30 2 -2 -1 -55 -5 -118 -4 -63 -6 -117 -4 -119 3 -3 23 13 47 35 70
67 119 100 202 139 44 20 90 41 102 47 11 6 26 7 32 4 10 -6 43 0 126 24 17 5
104 11 195 15 l165 6 -35 -30 c-19 -17 -38 -30 -42 -31 -15 0 -8 -40 7 -40 9
0 33 -11 55 -25 22 -14 42 -25 44 -25 3 0 3 21 1 48 -13 134 -12 187 3 219 20
42 9 52 -31 29 -18 -11 -42 -24 -54 -30 -29 -14 -29 -24 4 -58 14 -15 24 -30
22 -33 -7 -7 -439 -8 -446 -1 -3 3 -12 1 -19 -5 -9 -8 -47 7 -144 57 -72 38
-139 76 -150 86 -26 24 -33 23 -58 -12z m68 -25 c15 -8 19 -14 10 -15 -26 0
-60 12 -60 21 0 13 21 10 50 -6z m775 -45 c-7 -31 -7 -31 -27 -13 -19 17 -19
18 3 36 27 22 33 17 24 -23z m-779 -6 c-3 -9 -6 -29 -6 -45 0 -24 -4 -29 -25
-29 -23 0 -25 3 -19 28 4 15 11 35 16 45 11 22 43 23 34 1z m79 -11 c-4 -10
-10 -28 -12 -40 -7 -32 -43 -31 -43 1 0 40 11 56 37 56 20 0 24 -4 18 -17z
m128 -47 c31 -15 57 -30 57 -32 0 -3 -26 -16 -57 -30 -32 -14 -85 -39 -118
-56 -33 -17 -82 -39 -108 -49 l-49 -19 7 67 c4 38 8 69 9 69 0 1 11 5 23 8 20
6 21 4 20 -36 -2 -56 17 -61 21 -6 2 23 4 43 5 44 1 1 12 5 25 8 20 7 22 4 22
-28 0 -52 18 -44 26 12 11 74 21 94 41 84 10 -5 44 -22 76 -36z m127 -26 c0
-5 -4 -10 -10 -10 -5 0 -10 5 -10 10 0 6 5 10 10 10 6 0 10 -4 10 -10z m-500
-20 c-8 -5 -17 -7 -19 -4 -3 3 1 9 9 14 8 5 17 7 19 4 3 -3 -1 -9 -9 -14z
m945 -40 c0 -34 -3 -36 -29 -17 -17 13 -17 14 -1 30 23 24 30 21 30 -13z
m-820 -130 c-10 -11 -20 -18 -23 -15 -7 6 18 35 31 35 5 0 2 -9 -8 -20z"/>
<path d="M1094 225 c-7 -18 3 -35 21 -35 15 0 24 19 18 38 -6 17 -32 15 -39
-3z"/>
</g>
</svg>
