<?xml version="1.0" standalone="no"?>
<!DOCTYPE svg PUBLIC "-//W3C//DTD SVG 20010904//EN"
 "http://www.w3.org/TR/2001/REC-SVG-20010904/DTD/svg10.dtd">
<svg version="1.0" xmlns="http://www.w3.org/2000/svg"
 width="114.000000pt" height="148.000000pt" viewBox="0 0 114.000000 148.000000"
 preserveAspectRatio="xMidYMid meet">
<metadata>
Created by potrace 1.16, written by Peter Selinger 2001-2019
</metadata>
<g transform="translate(0.000000,148.000000) scale(0.100000,-0.100000)"
fill="#000000" stroke="none">
<path d="M286 1442 c-4 -3 -6 -13 -6 -23 0 -11 -9 -19 -22 -21 -17 -2 -22 -9
-20 -23 2 -11 6 -51 9 -90 5 -69 5 -70 -14 -52 -11 9 -35 48 -54 87 -19 38
-37 70 -42 70 -4 0 -13 -11 -19 -25 -9 -20 -18 -25 -50 -25 -41 0 -45 -7 -24
-48 11 -22 22 -121 30 -262 1 -32 23 -70 40 -70 7 0 21 19 31 43 23 50 94 157
106 157 5 0 9 -53 9 -118 0 -65 2 -121 6 -124 3 -3 25 0 50 8 24 7 78 16 119
20 l75 7 0 112 0 112 63 6 c34 4 131 10 215 13 l152 7 0 -76 c0 -43 4 -77 9
-77 4 0 11 38 15 85 4 47 14 104 22 127 19 56 19 58 -22 58 l-36 0 4 -47 3
-46 -55 -3 c-30 -1 -128 -5 -218 -9 l-164 -7 8 83 c4 46 10 94 15 105 4 12 5
25 2 28 -4 3 -40 6 -82 6 -42 0 -93 4 -113 9 -20 5 -39 6 -42 3z m174 -59 c7
-16 15 -60 18 -99 l4 -71 -32 -7 c-18 -3 -63 -6 -101 -6 l-69 0 1 48 c0 26 3
65 7 87 7 39 8 40 72 57 86 22 85 22 100 -9z m-259 -155 c11 -20 9 -21 -35
-16 -30 4 -46 2 -46 -6 0 -6 -3 -22 -7 -35 -6 -24 -5 -24 45 -17 32 4 52 3 52
-3 0 -6 -24 -36 -54 -68 l-54 -58 -7 69 c-8 71 -2 186 10 205 8 13 79 -39 96
-71z m280 -103 c1 -30 1 -64 1 -75 0 -11 0 -31 -1 -45 l-1 -26 -97 3 -98 3 -3
92 c-3 106 -10 100 116 102 l82 1 1 -55z"/>
<path d="M1045 1033 c8 -46 13 -52 26 -33 15 24 6 64 -15 68 -17 4 -18 0 -11
-35z"/>
<path d="M415 614 c-9 -14 -33 -32 -53 -41 -20 -8 -50 -21 -67 -28 -16 -7 -42
-16 -57 -19 -23 -5 -28 -12 -28 -37 0 -39 -12 -31 -47 31 -28 50 -47 60 -49
24 -3 -48 -5 -54 -22 -54 -16 0 -18 -10 -14 -127 2 -71 7 -152 10 -182 l7 -54
37 55 c38 58 145 168 163 168 13 0 75 -180 75 -218 0 -16 -5 -43 -11 -61 -6
-18 -9 -35 -6 -38 3 -3 27 13 54 35 26 22 72 53 101 67 42 21 52 30 46 43 -18
44 -64 175 -62 178 2 1 101 6 221 10 l217 7 1 -24 c0 -13 1 -54 2 -92 3 -112
22 -78 25 45 1 62 7 132 14 156 6 23 8 46 4 49 -4 4 -21 -7 -39 -25 -29 -29
-30 -34 -18 -53 11 -18 11 -23 -1 -30 -7 -5 -88 -9 -179 -9 -91 0 -187 -3
-212 -6 -40 -6 -46 -4 -58 17 -7 13 -15 72 -17 132 -3 59 -8 107 -12 107 -4 0
-15 -12 -25 -26z m4 -144 c17 -43 31 -82 31 -85 0 -3 -29 -5 -64 -5 l-64 0
-21 62 c-11 34 -20 62 -18 64 11 9 84 44 94 44 6 0 25 -36 42 -80z m-129 -72
c0 -25 -12 -22 -43 10 -32 33 -33 39 -10 65 17 19 18 18 35 -20 10 -21 18 -46
18 -55z m-102 36 c56 -47 54 -58 -8 -49 -41 6 -51 4 -56 -9 -3 -9 -4 -22 -1
-30 6 -14 16 -13 100 9 15 4 27 3 27 -1 -1 -15 -139 -114 -145 -104 -6 10 2
175 11 203 8 25 26 21 72 -19z m308 -169 c25 -67 30 -91 21 -97 -19 -12 -108
-40 -113 -36 -6 7 -72 217 -68 220 1 2 31 3 64 3 l62 0 34 -90z"/>
<path d="M1060 205 c-11 -13 -11 -19 3 -33 20 -19 41 -5 35 24 -4 24 -22 28
-38 9z"/>
</g>
</svg>
