<?xml version="1.0" standalone="no"?>
<!DOCTYPE svg PUBLIC "-//W3C//DTD SVG 20010904//EN"
 "http://www.w3.org/TR/2001/REC-SVG-20010904/DTD/svg10.dtd">
<svg version="1.0" xmlns="http://www.w3.org/2000/svg"
 width="102.000000pt" height="52.000000pt" viewBox="0 0 102.000000 52.000000"
 preserveAspectRatio="xMidYMid meet">
<metadata>
Created by potrace 1.16, written by Peter Selinger 2001-2019
</metadata>
<g transform="translate(0.000000,52.000000) scale(0.100000,-0.100000)"
fill="#000000" stroke="none">
<path d="M603 482 c-11 -19 -67 -53 -153 -94 -40 -19 -60 -21 -183 -19 -135 2
-178 9 -192 30 -12 21 -23 11 -23 -23 0 -19 -3 -44 -7 -56 -6 -19 -4 -21 13
-16 24 8 31 -21 33 -128 1 -39 5 -84 9 -101 11 -48 24 -4 17 61 -5 52 -5 54
19 54 13 0 27 0 32 0 4 0 9 -27 12 -60 6 -77 26 -75 21 2 l-3 58 53 2 c161 4
172 3 246 -31 54 -26 76 -42 89 -67 10 -19 22 -34 26 -34 4 0 17 19 29 42 23
46 157 180 174 175 15 -5 105 -118 116 -145 9 -23 29 -31 29 -11 0 6 -10 25
-22 42 -18 25 -24 50 -28 119 l-5 87 -50 -33 c-34 -23 -55 -32 -65 -26 -17 9
-104 107 -139 158 -26 37 -32 39 -48 14z m48 -54 c9 -16 7 -17 -16 -6 -24 11
-32 28 -18 41 6 7 14 0 34 -35z m-12 -28 c22 -10 63 -41 92 -68 l52 -48 -79
-61 c-43 -33 -92 -63 -107 -67 -29 -7 -101 19 -92 34 2 4 32 10 65 14 l60 7 0
84 0 83 -60 -5 c-64 -6 -76 3 -37 30 30 22 60 21 106 -3z m-159 -55 c-8 -10
-11 -37 -8 -80 l4 -65 -24 23 c-47 43 -47 56 -6 98 38 39 58 53 34 24z m130
-67 c0 -35 -4 -50 -15 -55 -9 -3 -18 -3 -20 -1 -8 8 -8 115 0 128 14 23 35
-20 35 -72z m-442 33 c7 -21 12 -50 12 -65 0 -23 -4 -26 -31 -26 l-32 0 6 55
c9 86 26 100 45 36z m172 21 c0 -11 11 -24 25 -30 32 -15 31 -23 -5 -62 -27
-29 -35 -32 -68 -26 -20 3 -49 6 -64 6 -27 0 -27 1 -21 53 3 28 10 58 16 65 5
7 32 12 63 12 46 0 54 -3 54 -18z m83 -3 c-11 -12 -26 -18 -33 -14 -13 8 16
34 40 35 11 0 9 -6 -7 -21z m120 -30 c-12 -12 -43 -1 -43 17 0 7 8 17 18 23
13 8 19 6 26 -10 6 -12 6 -23 -1 -30z m347 -26 l0 -48 -25 30 c-29 36 -30 41
-7 54 28 17 32 13 32 -36z m-342 -25 c-3 -25 -34 -36 -50 -20 -17 17 -1 42 27
42 22 0 26 -4 23 -22z m-127 -24 c12 -14 11 -16 -5 -13 -11 2 -21 10 -24 17
-5 17 13 15 29 -4z m206 -104 c-10 -14 -17 -18 -22 -10 -4 6 1 17 11 25 25 18
30 11 11 -15z"/>
</g>
</svg>
