<?xml version="1.0" standalone="no"?>
<!DOCTYPE svg PUBLIC "-//W3C//DTD SVG 20010904//EN"
 "http://www.w3.org/TR/2001/REC-SVG-20010904/DTD/svg10.dtd">
<svg version="1.0" xmlns="http://www.w3.org/2000/svg"
 width="113.000000pt" height="120.000000pt" viewBox="0 0 113.000000 120.000000"
 preserveAspectRatio="xMidYMid meet">
<metadata>
Created by potrace 1.16, written by Peter Selinger 2001-2019
</metadata>
<g transform="translate(0.000000,120.000000) scale(0.100000,-0.100000)"
fill="#000000" stroke="none">
<path d="M640 1131 c-25 -21 -67 -58 -95 -81 -27 -23 -80 -71 -117 -106 l-66
-63 -74 92 c-40 51 -78 93 -83 95 -5 2 -14 -12 -18 -30 -7 -27 -5 -35 12 -49
20 -16 20 -17 2 -22 -16 -4 -19 -11 -14 -46 4 -27 2 -41 -6 -41 -7 0 -11 23
-11 65 0 67 -4 74 -34 52 -15 -11 -16 -18 -5 -59 7 -26 10 -50 6 -54 -3 -4
-24 -2 -47 4 -45 11 -54 5 -44 -33 6 -24 9 -25 55 -19 l49 7 0 -65 c0 -35 -5
-69 -10 -74 -11 -11 6 -64 20 -64 3 0 33 33 65 73 33 39 76 87 97 105 l38 34
145 -139 c79 -76 145 -144 145 -150 0 -7 7 -13 15 -13 8 0 15 4 15 9 0 9 179
191 283 288 64 59 80 83 57 83 -6 0 -35 18 -65 40 -30 22 -56 40 -59 40 -9 0
-160 117 -180 139 -11 12 -22 21 -25 21 -3 0 -26 -18 -51 -39z m133 -67 c81
-49 216 -147 217 -156 1 -30 -121 43 -202 120 -23 22 -42 32 -52 29 -25 -10
-19 -33 12 -46 40 -18 192 -122 192 -131 0 -5 -14 -13 -32 -19 -30 -11 -34 -9
-98 51 -37 35 -77 80 -91 100 -13 21 -27 38 -31 38 -16 0 -7 -59 10 -72 58
-41 94 -80 83 -91 -8 -8 -27 4 -71 48 -34 33 -63 70 -66 83 -7 26 -19 29 -28
6 -13 -33 -5 -50 34 -72 42 -24 49 -36 26 -45 -14 -6 -71 48 -94 89 -11 18
-12 18 -33 -3 -27 -27 -21 -45 24 -66 19 -9 40 -24 48 -33 12 -14 10 -19 -16
-40 -17 -13 -45 -31 -63 -40 -21 -10 -32 -21 -30 -32 6 -33 36 -23 86 30 43
44 54 51 68 42 31 -18 26 -29 -31 -63 -30 -18 -55 -37 -55 -42 0 -5 12 -12 26
-15 20 -5 29 -2 37 12 6 10 24 31 39 46 25 23 32 25 48 16 22 -14 17 -28 -9
-28 -27 0 -39 -21 -34 -57 6 -37 13 -41 29 -15 16 25 194 143 194 128 0 -10
-141 -140 -197 -181 l-61 -45 -91 86 c-83 79 -108 114 -81 114 6 0 28 11 50
25 l41 26 -32 47 c-18 26 -34 49 -35 51 -2 2 -11 -5 -21 -14 -16 -17 -15 -19
21 -50 l39 -32 -58 -22 -59 -22 -24 24 -24 24 55 52 c29 28 63 59 74 68 12 10
45 38 74 63 29 25 58 50 63 56 15 16 54 3 129 -42z m-542 -61 c13 -16 12 -17
-3 -4 -17 13 -22 21 -14 21 2 0 10 -8 17 -17z m354 -53 c10 -11 16 -20 13 -20
-3 0 -13 9 -23 20 -10 11 -16 20 -13 20 3 0 13 -9 23 -20z m-282 -45 c20 -16
37 -33 37 -36 0 -3 -27 -27 -60 -53 l-60 -47 0 45 0 46 44 0 c25 0 48 5 51 10
4 6 -13 10 -44 10 -47 0 -51 2 -51 24 0 13 3 31 6 40 7 17 9 16 77 -39z m428
-49 c-30 -13 -54 9 -38 35 11 18 12 18 35 -4 23 -21 23 -22 3 -31z m104 4 l29
-30 -25 0 c-25 0 -54 33 -44 50 8 13 8 14 40 -20z m-635 -59 c0 -31 -5 -53
-15 -61 -13 -11 -15 -5 -15 49 0 48 3 61 15 61 11 0 15 -12 15 -49z m590 18
c0 -14 -26 -10 -39 5 -9 11 -9 15 1 19 14 5 38 -10 38 -24z m-50 -63 c0 -3 -4
-8 -10 -11 -5 -3 -10 -1 -10 4 0 6 5 11 10 11 6 0 10 -2 10 -4z m-540 -39 c0
-2 -10 -12 -22 -23 l-23 -19 19 23 c18 21 26 27 26 19z"/>
<path d="M1121 834 c0 -11 3 -14 6 -6 3 7 2 16 -1 19 -3 4 -6 -2 -5 -13z"/>
<path d="M515 500 c-3 -6 -39 -36 -78 -67 -40 -31 -74 -60 -77 -63 -3 -3 -21
-18 -41 -33 l-37 -28 -33 35 c-57 58 -79 95 -79 131 0 32 -12 32 -45 -1 -21
-20 -23 -29 -14 -40 9 -11 8 -14 -5 -14 -14 0 -15 -8 -10 -56 7 -54 6 -55 -17
-52 -26 3 -29 -1 -29 -32 0 -15 7 -20 26 -20 l27 0 -6 -85 c-4 -51 -2 -85 3
-85 6 0 10 12 10 28 l0 27 28 -32 c15 -18 31 -33 36 -33 5 0 5 20 2 45 -7 43
-5 46 40 95 26 27 53 50 61 50 24 0 96 -55 143 -110 25 -29 59 -67 76 -86 l31
-34 19 21 c22 25 106 64 179 84 142 39 293 84 319 94 35 14 28 23 -39 46 -27
9 -63 23 -80 31 -16 7 -66 27 -110 45 -108 43 -206 92 -242 123 -33 28 -48 32
-58 16z m81 -68 c38 -16 86 -38 107 -49 35 -17 37 -21 22 -33 -13 -11 -21 -11
-36 -2 -26 17 -31 15 -24 -8 10 -33 -22 -37 -54 -6 -15 14 -30 26 -34 26 -13
0 -7 -31 7 -36 18 -7 28 -32 16 -39 -6 -3 -21 6 -35 21 -30 32 -45 25 -21 -10
10 -17 12 -27 5 -31 -10 -7 -28 11 -50 48 -14 25 -30 11 -23 -21 l7 -27 -29
26 c-38 34 -65 27 -32 -8 23 -24 23 -25 4 -39 -29 -21 -39 -18 -81 22 -34 32
-37 37 -22 46 9 5 54 40 99 78 46 38 88 69 94 69 6 1 42 -12 80 -27z m-447
-94 c1 -27 -3 -38 -14 -38 -16 0 -20 44 -8 89 6 23 7 23 14 5 4 -10 8 -36 8
-56z m110 -40 c1 -5 -17 -8 -39 -8 -45 0 -56 14 -46 56 l7 26 39 -34 c21 -18
39 -36 39 -40z m636 2 c39 -16 79 -31 89 -34 31 -10 9 -21 -124 -59 -69 -19
-132 -38 -140 -41 -9 -4 -20 2 -27 13 -10 15 -9 20 2 25 8 3 17 1 20 -4 10
-16 38 -12 32 5 -8 19 11 31 26 16 17 -17 29 -13 22 9 -4 13 -1 22 9 26 29 11
17 26 -16 20 -18 -3 -27 -3 -20 0 6 3 12 13 12 21 0 12 -7 14 -30 10 -22 -5
-30 -3 -30 8 0 8 7 15 15 15 8 0 15 7 15 15 0 13 5 13 38 -1 20 -9 69 -29 107
-44z m-205 -20 c-20 -12 -33 -1 -19 16 9 11 15 12 23 4 8 -8 7 -13 -4 -20z
m-540 -44 c0 -21 -6 -36 -15 -40 -11 -4 -15 2 -15 28 0 18 3 36 7 39 14 15 23
5 23 -27z m80 31 c0 -2 -13 -13 -30 -25 l-30 -23 0 26 c0 21 5 25 30 25 17 0
30 -1 30 -3z m420 -7 c0 -5 -9 -10 -20 -10 -11 0 -20 5 -20 10 0 6 9 10 20 10
11 0 20 -4 20 -10z m-138 -12 c-9 -9 -15 -9 -24 0 -9 9 -7 12 12 12 19 0 21
-3 12 -12z m223 2 c-3 -5 -13 -10 -21 -10 -8 0 -14 5 -14 10 0 6 9 10 21 10
11 0 17 -4 14 -10z m-140 -9 c7 -12 -12 -24 -25 -16 -11 7 -4 25 10 25 5 0 11
-4 15 -9z m89 -10 c3 -5 -1 -11 -9 -15 -15 -6 -29 7 -18 18 9 9 21 8 27 -3z
m-217 -16 c-9 -22 10 -28 35 -11 29 20 62 22 36 2 -22 -16 -24 -41 -3 -32 8 3
22 9 30 12 8 3 15 2 15 -4 0 -5 -7 -12 -15 -16 -8 -3 -15 -10 -15 -16 0 -16
30 -12 65 10 30 18 65 19 65 1 0 -4 -41 -18 -92 -30 l-91 -22 -33 33 c-44 44
-44 83 0 87 4 1 6 -6 3 -14z m161 -16 c-2 -6 -8 -10 -13 -10 -5 0 -11 4 -13
10 -2 6 4 11 13 11 9 0 15 -5 13 -11z m-486 -41 c-7 -7 -12 -8 -12 -2 0 14 12
26 19 19 2 -3 -1 -11 -7 -17z m398 -62 c0 -3 -4 -8 -10 -11 -5 -3 -10 -1 -10
4 0 6 5 11 10 11 6 0 10 -2 10 -4z"/>
<path d="M0 125 c0 -8 5 -15 10 -15 6 0 10 7 10 15 0 8 -4 15 -10 15 -5 0 -10
-7 -10 -15z"/>
</g>
</svg>
