<?xml version="1.0" standalone="no"?>
<!DOCTYPE svg PUBLIC "-//W3C//DTD SVG 20010904//EN"
 "http://www.w3.org/TR/2001/REC-SVG-20010904/DTD/svg10.dtd">
<svg version="1.0" xmlns="http://www.w3.org/2000/svg"
 width="58.000000pt" height="63.000000pt" viewBox="0 0 58.000000 63.000000"
 preserveAspectRatio="xMidYMid meet">
<metadata>
Created by potrace 1.16, written by Peter Selinger 2001-2019
</metadata>
<g transform="translate(0.000000,63.000000) scale(0.100000,-0.100000)"
fill="#000000" stroke="none">
<path d="M55 550 c-3 -5 -4 -122 -3 -260 l2 -252 26 7 c14 3 111 11 215 17
105 6 192 12 194 15 3 2 8 92 11 201 4 111 12 209 18 225 7 16 12 31 12 35 0
4 -91 7 -202 7 -112 0 -217 3 -235 7 -18 4 -35 3 -38 -2z m55 -24 c0 -2 -7 -6
-15 -10 -8 -3 -15 -1 -15 4 0 6 7 10 15 10 8 0 15 -2 15 -4z m390 -8 c0 -7 -5
-20 -10 -28 -8 -12 -10 -9 -10 13 0 15 5 27 10 27 6 0 10 -6 10 -12z m-40 -31
c5 -17 10 -110 10 -208 l0 -178 -35 -7 c-52 -9 -333 0 -344 11 -6 6 -14 93
-17 197 l-7 186 54 11 c83 17 86 17 211 17 l117 1 11 -30z"/>
<path d="M266 473 c-16 -4 -18 -11 -12 -49 6 -50 7 -49 -75 -34 -61 12 -75 4
-65 -35 6 -25 10 -27 39 -20 18 3 49 9 70 12 l37 6 0 -38 0 -37 -72 3 -73 4
-3 -33 c-3 -29 -1 -33 15 -28 30 9 107 25 121 26 8 0 12 -16 12 -45 0 -25 5
-45 10 -45 6 0 10 23 10 50 l0 50 70 0 c40 0 70 4 70 10 0 6 -30 10 -70 10
l-70 0 0 35 0 35 58 1 c73 2 76 2 82 14 3 6 -20 11 -59 12 -35 1 -65 4 -67 6
-7 7 17 77 26 77 6 0 10 5 10 10 0 10 -30 12 -64 3z m11 -45 c-3 -8 -6 -5 -6
6 -1 11 2 17 5 13 3 -3 4 -12 1 -19z m-87 -64 c0 -2 -11 -4 -25 -4 -14 0 -25
4 -25 9 0 4 11 6 25 3 14 -2 25 -6 25 -8z"/>
</g>
</svg>
