<?xml version="1.0" standalone="no"?>
<!DOCTYPE svg PUBLIC "-//W3C//DTD SVG 20010904//EN"
 "http://www.w3.org/TR/2001/REC-SVG-20010904/DTD/svg10.dtd">
<svg version="1.0" xmlns="http://www.w3.org/2000/svg"
 width="128.000000pt" height="56.000000pt" viewBox="0 0 128.000000 56.000000"
 preserveAspectRatio="xMidYMid meet">
<metadata>
Created by potrace 1.16, written by Peter Selinger 2001-2019
</metadata>
<g transform="translate(0.000000,56.000000) scale(0.100000,-0.100000)"
fill="#000000" stroke="none">
<path d="M677 516 l-29 -23 61 -88 c34 -49 61 -92 61 -98 0 -5 -25 -49 -55
-98 -30 -49 -55 -94 -55 -101 1 -19 38 -60 49 -54 5 3 12 21 15 40 6 30 14 38
59 60 80 37 243 100 337 130 47 15 92 29 100 32 17 7 -14 18 -180 65 -58 16
-140 44 -184 61 -63 25 -82 29 -97 20 -16 -10 -19 -7 -25 33 -7 51 -17 54 -57
21z m48 -64 c7 -23 12 -42 10 -42 -10 0 -55 72 -50 81 12 19 28 4 40 -39z
m106 -22 l44 -21 -55 7 c-62 7 -65 8 -55 23 9 15 17 14 66 -9z m57 -45 c53 -8
124 -22 157 -31 33 -9 70 -19 83 -21 12 -3 22 -8 22 -12 0 -3 -37 -17 -83 -30
-45 -12 -91 -27 -102 -32 -38 -16 -176 -50 -190 -47 -11 2 -8 15 10 58 28 65
32 88 11 71 -11 -9 -16 -5 -25 20 -6 18 -11 34 -11 35 0 7 28 4 128 -11z
m-174 -249 c-10 -28 -20 -44 -25 -39 -6 6 0 26 13 50 13 23 24 40 25 39 2 -1
-4 -24 -13 -50z m60 40 c-21 -15 -30 -14 -19 3 3 6 14 11 23 11 13 0 13 -2 -4
-14z"/>
<path d="M106 479 c-25 -22 -46 -47 -46 -54 0 -8 14 -29 31 -47 33 -35 89
-126 89 -144 0 -6 -20 -42 -45 -80 -24 -38 -45 -72 -45 -76 0 -4 14 -17 31
-29 25 -18 33 -19 40 -8 7 11 11 10 22 -6 14 -18 17 -17 68 29 50 45 147 116
194 142 76 42 110 63 112 70 4 11 -9 19 -113 75 -44 23 -86 48 -95 55 -8 8
-19 14 -23 14 -3 0 -40 23 -82 50 -41 28 -79 50 -83 50 -5 0 -29 -18 -55 -41z
m95 -9 l24 -19 -37 11 c-21 6 -38 15 -38 20 0 14 27 9 51 -12z m29 -47 c100
-43 290 -138 290 -145 0 -4 -4 -8 -10 -8 -5 0 -33 -15 -62 -34 -79 -50 -270
-148 -276 -141 -3 3 6 43 21 88 31 96 34 115 13 98 -9 -8 -16 -8 -20 -2 -14
23 -56 143 -56 161 0 17 3 18 33 8 17 -5 48 -17 67 -25z m-120 3 c0 -8 3 -23
7 -33 6 -17 6 -17 -10 -1 -19 18 -23 48 -7 48 6 0 10 -6 10 -14z m36 -342 c-3
-8 -10 -13 -16 -9 -6 3 -5 16 3 32 9 21 13 23 15 9 2 -9 1 -24 -2 -32z m94 1
c-22 -24 -50 -34 -50 -17 0 6 55 39 69 41 3 1 -6 -10 -19 -24z"/>
<path d="M1234 285 c-7 -18 3 -35 21 -35 21 0 28 19 15 35 -16 19 -29 19 -36
0z"/>
<path d="M607 273 c-9 -15 -1 -77 10 -80 13 -5 27 35 21 63 -3 19 -23 30 -31
17z"/>
</g>
</svg>
