<?xml version="1.0" standalone="no"?>
<!DOCTYPE svg PUBLIC "-//W3C//DTD SVG 20010904//EN"
 "http://www.w3.org/TR/2001/REC-SVG-20010904/DTD/svg10.dtd">
<svg version="1.0" xmlns="http://www.w3.org/2000/svg"
 width="65.000000pt" height="49.000000pt" viewBox="0 0 65.000000 49.000000"
 preserveAspectRatio="xMidYMid meet">
<metadata>
Created by potrace 1.16, written by Peter Selinger 2001-2019
</metadata>
<g transform="translate(0.000000,49.000000) scale(0.100000,-0.100000)"
fill="#000000" stroke="none">
<path d="M428 449 c-27 -20 -36 -44 -20 -51 4 -1 42 -57 84 -123 101 -156 104
-160 110 -149 3 5 -19 65 -48 133 -30 68 -60 142 -68 164 -7 23 -18 42 -22 44
-5 1 -21 -7 -36 -18z m41 -56 c7 -21 15 -45 17 -53 3 -8 -8 5 -24 30 -16 25
-28 48 -25 53 9 16 20 5 32 -30z"/>
<path d="M75 413 c18 -45 28 -108 34 -227 4 -90 10 -131 19 -134 9 -3 12 21
12 95 1 54 7 134 15 178 20 111 22 105 -36 105 -45 0 -50 -2 -44 -17z m65 -17
c0 -7 -3 -29 -7 -47 -7 -33 -7 -33 -14 -9 -12 43 -10 70 6 70 8 0 15 -6 15
-14z"/>
<path d="M284 165 c-3 -8 -2 -20 2 -27 5 -7 7 -21 5 -32 -4 -28 21 -14 32 17
5 15 6 34 3 42 -7 19 -35 19 -42 0z"/>
</g>
</svg>
