<?xml version="1.0" standalone="no"?>
<!DOCTYPE svg PUBLIC "-//W3C//DTD SVG 20010904//EN"
 "http://www.w3.org/TR/2001/REC-SVG-20010904/DTD/svg10.dtd">
<svg version="1.0" xmlns="http://www.w3.org/2000/svg"
 width="126.000000pt" height="79.000000pt" viewBox="0 0 126.000000 79.000000"
 preserveAspectRatio="xMidYMid meet">
<metadata>
Created by potrace 1.16, written by Peter Selinger 2001-2019
</metadata>
<g transform="translate(0.000000,79.000000) scale(0.100000,-0.100000)"
fill="#000000" stroke="none">
<path d="M1090 743 c-30 -2 -151 -10 -268 -18 -117 -8 -269 -15 -338 -15
l-126 0 7 -36 c3 -20 12 -43 19 -50 19 -18 35 -135 46 -333 5 -96 8 -176 7
-177 -1 -1 -31 25 -67 58 l-64 60 24 20 25 20 -25 -7 c-14 -3 -33 -9 -42 -12
-29 -9 -21 11 12 30 17 10 30 22 30 28 0 14 -9 11 -47 -12 -24 -15 -38 -18
-45 -11 -14 14 -3 29 39 49 40 18 32 23 94 -55 10 -13 22 -21 26 -19 9 6 0
233 -10 243 -3 4 -27 -14 -53 -39 -26 -25 -72 -60 -102 -78 l-55 -33 -43 49
c-24 28 -44 55 -44 61 0 12 73 64 89 64 5 0 13 -9 16 -20 3 -11 13 -20 21 -20
16 0 19 16 4 25 -13 8 -13 35 1 35 6 0 13 -9 16 -20 3 -11 12 -20 19 -20 19 0
19 -1 -21 66 -19 32 -35 63 -35 70 0 23 -19 25 -30 3 -10 -18 -8 -25 14 -48
29 -30 32 -41 13 -41 -7 0 -21 14 -30 30 -21 35 -33 38 -42 9 -5 -14 -1 -25
11 -33 20 -15 16 -17 -52 -31 -30 -6 -32 -9 -37 -63 -6 -65 1 -77 59 -97 44
-15 51 -36 14 -45 -27 -7 -29 -29 -4 -64 8 -11 14 -28 14 -38 0 -28 16 -29 62
-3 46 26 68 31 68 15 0 -5 -20 -19 -45 -30 -25 -11 -45 -25 -45 -30 0 -17 23
-23 34 -9 6 8 26 22 44 32 l33 18 61 -53 c53 -45 59 -53 40 -56 -18 -3 -20 -8
-15 -35 7 -40 9 -42 25 -30 40 31 212 72 275 65 22 -3 22 -1 18 110 -2 62 -1
145 2 184 l5 71 78 46 c43 26 81 47 85 47 4 0 76 34 161 75 95 47 154 81 154
90 0 8 -6 14 -12 13 -7 -1 -38 -3 -68 -5z m9 -27 c-2 -2 -83 -43 -179 -91 -96
-48 -192 -98 -212 -111 -21 -13 -44 -24 -52 -24 -23 0 -24 -10 -10 -100 7 -47
13 -122 13 -167 1 -95 10 -88 -120 -98 l-76 -6 -6 68 c-13 135 -20 361 -13
405 l7 46 112 27 c100 24 221 38 417 48 36 2 78 4 94 5 16 1 27 0 25 -2z
m-561 -31 c-2 -3 -29 -9 -59 -15 -30 -6 -62 -13 -71 -16 -13 -4 -18 0 -18 15
0 19 6 21 77 21 42 0 74 -2 71 -5z m-108 -67 c0 -16 -3 -19 -11 -11 -6 6 -8
16 -5 22 11 17 16 13 16 -11z m-52 -237 l-3 -72 -37 49 -36 49 31 31 c17 18
35 28 40 23 4 -4 7 -40 5 -80z m291 62 c0 -25 -1 -25 -8 -8 -5 11 -7 23 -4 28
8 14 13 7 12 -20z m-564 -41 c-6 -7 -35 18 -35 31 0 5 9 2 20 -8 11 -10 18
-20 15 -23z m185 -24 c0 -18 -77 -61 -85 -47 -8 12 -9 11 35 38 40 24 50 26
50 9z m-119 -79 c-13 -11 -26 -17 -29 -14 -8 8 20 35 37 35 12 -1 11 -5 -8
-21z m49 -22 c0 -14 -49 -42 -57 -33 -5 5 38 46 49 46 4 0 8 -6 8 -13z m215
-187 c-3 -5 -15 -10 -26 -10 -10 0 -19 5 -19 10 0 6 12 10 26 10 14 0 23 -4
19 -10z"/>
<path d="M219 669 c-9 -17 -7 -25 10 -43 12 -12 21 -32 21 -43 0 -26 21 -35
44 -18 10 8 24 11 32 8 8 -3 14 0 14 5 0 6 9 14 20 17 31 10 24 27 -9 20 -25
-5 -29 -3 -35 19 -3 15 -11 26 -16 26 -13 0 -13 -20 0 -40 8 -13 -3 -29 -21
-30 -10 0 -29 49 -29 75 0 31 -15 32 -31 4z"/>
</g>
</svg>
