<?xml version="1.0" standalone="no"?>
<!DOCTYPE svg PUBLIC "-//W3C//DTD SVG 20010904//EN"
 "http://www.w3.org/TR/2001/REC-SVG-20010904/DTD/svg10.dtd">
<svg version="1.0" xmlns="http://www.w3.org/2000/svg"
 width="81.000000pt" height="208.000000pt" viewBox="0 0 81.000000 208.000000"
 preserveAspectRatio="xMidYMid meet">
<metadata>
Created by potrace 1.16, written by Peter Selinger 2001-2019
</metadata>
<g transform="translate(0.000000,208.000000) scale(0.100000,-0.100000)"
fill="#000000" stroke="none">
<path d="M352 2014 c2 -31 7 -38 21 -36 14 2 17 -5 17 -54 l0 -57 -140 6 -140
5 0 -24 c0 -13 5 -24 10 -24 6 0 10 -25 10 -55 0 -52 -1 -55 -25 -55 -21 0
-25 5 -25 31 0 17 5 39 10 50 15 26 6 37 -25 31 -23 -4 -25 -8 -19 -35 3 -17
7 -62 8 -101 1 -45 6 -71 14 -74 8 -2 12 9 12 37 0 37 2 41 26 41 23 0 25 -3
22 -35 -2 -19 2 -36 7 -37 6 -2 11 14 13 35 l3 37 47 0 c26 0 77 3 115 7 l67
6 0 -52 c0 -28 -4 -51 -10 -51 -5 0 -10 -13 -10 -30 0 -35 3 -35 61 -14 24 9
91 19 147 23 l104 6 4 130 c3 82 12 157 25 204 29 113 38 105 -109 98 -120 -5
-182 0 -225 18 -16 7 -18 3 -15 -31z m329 -67 c-8 -8 -11 -2 -11 19 0 40 14
54 18 19 2 -15 -1 -32 -7 -38z m-155 -109 c-8 -201 -13 -228 -36 -228 -25 0
-26 8 -18 103 3 45 7 125 7 178 1 53 4 99 8 102 3 4 15 7 26 7 19 0 20 -5 13
-162z m62 55 c-4 -60 -8 -139 -9 -178 -3 -91 -7 -105 -31 -105 -16 0 -19 5
-15 23 3 12 9 100 13 195 7 166 8 172 28 172 21 0 21 -3 14 -107z m56 90 c13
-49 18 -138 11 -248 l-7 -122 -26 1 c-15 1 -26 6 -26 11 1 6 5 92 9 193 6 141
10 182 20 182 8 0 16 -8 19 -17z m-184 -105 c0 -120 -4 -134 -35 -140 -18 -3
-19 2 -16 117 3 118 8 134 39 135 9 0 12 -29 12 -112z m-74 -40 c-3 -13 -6
-42 -6 -64 l0 -41 -112 -5 c-62 -3 -115 -4 -117 -2 -2 2 4 23 13 47 21 55 20
57 -6 57 -12 0 -18 3 -14 8 4 4 58 10 119 13 62 3 116 6 121 7 4 1 6 -8 2 -20z
m62 -175 c-3 -41 -6 -48 -25 -51 -21 -3 -23 0 -23 47 0 48 2 51 26 51 24 0 25
-2 22 -47z m-41 -79 c-3 -3 -12 -4 -19 -1 -8 3 -5 6 6 6 11 1 17 -2 13 -5z"/>
<path d="M784 1635 c-3 -8 -2 -20 2 -27 5 -7 7 -21 6 -30 -2 -10 2 -18 7 -18
6 0 11 20 11 45 0 43 -15 60 -26 30z"/>
<path d="M320 1365 c-14 -37 -12 -55 5 -55 12 0 15 -17 15 -90 l0 -91 -89 3
c-49 2 -91 1 -94 -2 -3 -3 -2 -49 0 -102 6 -103 23 -136 23 -45 0 96 10 106
118 123 l42 7 0 -143 0 -142 23 7 c23 7 146 31 210 40 l37 6 2 147 c1 164 1
166 12 274 l8 77 -124 -2 c-68 -1 -135 1 -151 6 -24 6 -29 4 -37 -18z m45 -15
c-3 -5 -10 -10 -16 -10 -5 0 -9 5 -9 10 0 6 7 10 16 10 8 0 12 -4 9 -10z m145
-228 c0 -186 -3 -229 -14 -229 -14 0 -26 156 -26 355 0 95 1 102 20 102 19 0
20 -7 20 -228z m64 201 c3 -16 9 -120 13 -231 l6 -204 -24 4 c-21 3 -25 10
-31 53 -3 28 -7 130 -7 228 -1 167 0 177 18 177 12 0 21 -9 25 -27z m36 12 c0
-8 -4 -15 -10 -15 -5 0 -10 7 -10 15 0 8 5 15 10 15 6 0 10 -7 10 -15z m-160
-127 c7 -255 5 -311 -7 -315 -12 -4 -21 107 -25 325 -3 106 -1 122 13 122 14
0 16 -19 19 -132z m-56 75 c3 -27 6 -124 8 -218 3 -164 2 -170 -17 -170 -19 0
-20 8 -23 218 -2 182 0 217 12 217 9 0 16 -16 20 -47z m25 -407 c-12 -10 -60
-16 -54 -6 3 5 18 10 32 10 15 0 24 -2 22 -4z"/>
<path d="M107 1229 c-4 -13 -14 -19 -32 -19 -26 0 -27 -2 -21 -37 3 -21 9 -93
12 -161 4 -67 10 -125 14 -127 4 -2 10 57 13 133 3 75 8 144 12 153 4 11 34
21 93 32 48 10 95 17 105 17 10 0 16 4 13 8 -3 5 -31 8 -63 6 -32 -1 -77 1
-100 6 -36 6 -42 5 -46 -11z"/>
<path d="M777 923 c-7 -11 -1 -72 7 -80 11 -12 26 19 26 55 0 21 -5 32 -14 32
-8 0 -17 -3 -19 -7z"/>
<path d="M302 587 c-9 -11 -16 -42 -13 -59 0 -4 16 -2 34 3 51 15 93 20 231
27 86 5 131 11 133 19 3 9 -36 11 -159 10 -90 -1 -175 1 -189 5 -17 5 -30 3
-37 -5z"/>
<path d="M707 576 c-4 -9 1 -50 9 -93 11 -59 13 -112 8 -220 l-7 -143 -28 0
-27 0 2 183 c1 100 4 189 7 197 3 10 -5 16 -25 18 -29 4 -29 3 -22 -40 9 -63
26 -310 22 -333 -2 -13 -13 -22 -34 -26 -17 -3 -34 -4 -37 -1 -10 11 -5 305 7
344 14 47 2 66 -32 48 -15 -8 -19 -16 -14 -28 5 -9 10 -97 12 -194 l4 -178
-26 0 -26 0 0 161 c0 94 5 178 12 200 13 46 7 56 -26 41 -22 -10 -23 -14 -15
-54 4 -24 8 -111 9 -194 l0 -152 -25 -4 -25 -5 0 167 c0 97 5 180 11 199 6 18
8 35 5 38 -11 11 -61 -13 -58 -27 2 -8 6 -27 9 -43 l6 -30 -119 6 c-65 3 -128
7 -139 9 -26 4 -33 -43 -11 -62 9 -7 16 -23 16 -36 0 -19 -5 -24 -25 -24 -20
0 -25 -5 -25 -26 0 -23 3 -26 30 -22 28 4 30 3 30 -29 0 -18 5 -33 10 -33 6 0
10 18 10 40 l0 40 115 0 115 0 0 -49 c0 -27 -3 -63 -6 -80 -6 -31 -9 -32 -50
-30 -49 3 -57 -1 -61 -36 -4 -29 -3 -29 62 -10 31 10 113 18 213 22 104 4 165
10 167 17 2 6 8 108 14 226 6 118 12 224 13 235 2 15 -4 21 -23 23 -17 2 -29
-3 -32 -12z m30 -48 c-3 -7 -5 -2 -5 12 0 14 2 19 5 13 2 -7 2 -19 0 -25z
m-332 -188 l0 -45 -110 0 c-60 -1 -113 1 -117 2 -3 2 1 21 10 43 19 44 31 48
147 46 l70 -1 0 -45z"/>
<path d="M57 378 c4 -13 7 -67 6 -120 -1 -54 2 -98 7 -98 10 0 17 36 24 130 3
36 8 75 12 88 6 20 3 22 -26 22 -28 0 -31 -2 -23 -22z"/>
<path d="M802 80 c0 -14 2 -19 5 -12 2 6 2 18 0 25 -3 6 -5 1 -5 -13z"/>
</g>
</svg>
