<?xml version="1.0" standalone="no"?>
<!DOCTYPE svg PUBLIC "-//W3C//DTD SVG 20010904//EN"
 "http://www.w3.org/TR/2001/REC-SVG-20010904/DTD/svg10.dtd">
<svg version="1.0" xmlns="http://www.w3.org/2000/svg"
 width="120.000000pt" height="95.000000pt" viewBox="0 0 120.000000 95.000000"
 preserveAspectRatio="xMidYMid meet">
<metadata>
Created by potrace 1.16, written by Peter Selinger 2001-2019
</metadata>
<g transform="translate(0.000000,95.000000) scale(0.100000,-0.100000)"
fill="#000000" stroke="none">
<path d="M864 889 c-10 -12 -29 -25 -42 -30 -23 -9 -23 -9 13 -44 19 -20 35
-41 35 -47 0 -27 -90 -176 -140 -230 -30 -34 -58 -66 -62 -73 -5 -8 11 -24 43
-44 64 -42 219 -189 219 -208 0 -8 -15 -41 -32 -73 -18 -32 -29 -62 -24 -67 4
-4 12 -1 17 7 5 8 31 52 58 97 27 45 83 133 125 196 42 64 76 120 76 126 0 6
-13 11 -30 11 -31 0 -42 -16 -15 -22 11 -2 1 -24 -36 -83 -28 -44 -55 -84 -61
-90 -12 -12 4 31 31 82 10 21 24 56 29 77 11 37 9 42 -37 110 -26 40 -60 103
-75 141 -15 39 -31 80 -36 93 -6 13 -10 38 -10 57 0 41 -17 46 -46 14z m40
-83 c9 -27 16 -52 16 -54 0 -3 -16 16 -36 42 -29 39 -33 50 -23 62 15 19 22
11 43 -50z m4 -88 c2 -8 -13 -27 -33 -42 l-35 -27 22 45 c22 45 40 55 46 24z
m138 -230 c-3 -15 -27 -78 -53 -139 l-47 -112 -84 89 c-45 49 -94 108 -108
132 -30 51 -35 43 89 154 l89 80 59 -89 c47 -69 59 -94 55 -115z m-311 -40
l18 -32 -31 23 c-18 12 -30 27 -27 32 10 16 20 10 40 -23z"/>
<path d="M348 810 c-32 -44 -34 -53 -12 -71 9 -7 30 -33 46 -58 l31 -44 -101
6 -102 6 0 -40 c0 -22 3 -39 8 -37 50 26 92 39 142 45 l60 6 20 -48 c20 -46
20 -50 4 -104 -19 -66 -32 -92 -91 -188 l-45 -73 -55 78 c-31 42 -64 87 -73
100 -10 12 -30 56 -45 97 l-27 74 30 38 c17 21 56 63 86 93 31 30 56 58 56 62
0 11 -87 68 -94 61 -3 -3 -1 -12 4 -19 8 -8 5 -25 -7 -55 -22 -57 -62 -131
-77 -144 -7 -5 -26 -31 -43 -56 l-32 -46 32 -23 c61 -45 227 -258 227 -292 0
-28 32 -19 40 12 9 33 120 197 176 259 24 27 44 52 44 55 0 4 -16 14 -36 22
-43 18 -62 56 -99 204 -15 58 -29 108 -33 112 -4 4 -19 -11 -34 -32z m47 -99
c-6 -5 -44 41 -45 55 0 5 5 15 12 22 10 10 15 3 25 -30 7 -23 10 -44 8 -47z
m-145 40 c0 -4 -13 -20 -30 -36 -34 -33 -36 -31 -15 18 10 25 20 35 30 31 8
-4 15 -9 15 -13z m0 -131 c0 -5 -4 -10 -10 -10 -5 0 -10 5 -10 10 0 6 5 10 10
10 6 0 10 -4 10 -10z m-131 -159 c1 -10 -7 -7 -24 9 -28 26 -31 40 -13 58 10
10 15 6 25 -20 6 -18 12 -39 12 -47z m394 42 c3 -5 -10 -26 -29 -48 l-34 -40
11 35 c6 19 12 41 15 48 4 13 30 17 37 5z"/>
<path d="M225 522 c-3 -3 -5 -21 -5 -40 0 -31 2 -34 23 -28 12 3 57 11 100 18
78 12 104 28 45 28 -18 0 -61 6 -96 14 -34 7 -64 10 -67 8z m50 -32 c18 -8 17
-9 -7 -9 -16 -1 -28 4 -28 9 0 12 8 12 35 0z"/>
</g>
</svg>
