<?xml version="1.0" standalone="no"?>
<!DOCTYPE svg PUBLIC "-//W3C//DTD SVG 20010904//EN"
 "http://www.w3.org/TR/2001/REC-SVG-20010904/DTD/svg10.dtd">
<svg version="1.0" xmlns="http://www.w3.org/2000/svg"
 width="96.000000pt" height="176.000000pt" viewBox="0 0 96.000000 176.000000"
 preserveAspectRatio="xMidYMid meet">
<metadata>
Created by potrace 1.16, written by Peter Selinger 2001-2019
</metadata>
<g transform="translate(0.000000,176.000000) scale(0.100000,-0.100000)"
fill="#000000" stroke="none">
<path d="M768 1708 c-24 -8 -28 -15 -28 -48 0 -21 -3 -40 -8 -42 -4 -1 -29
-38 -56 -82 -27 -43 -65 -94 -84 -113 l-35 -36 -180 8 c-111 4 -195 12 -220
21 -50 18 -46 19 -57 -12 -8 -21 -15 -25 -35 -22 -31 6 -35 -7 -18 -57 12 -31
13 -69 8 -172 -7 -149 -4 -154 50 -80 17 22 59 61 95 85 79 55 89 56 364 45
132 -5 200 -5 202 2 3 6 6 91 8 190 3 163 8 199 37 304 5 18 -10 21 -43 9z m3
-55 c-8 -15 -10 -15 -11 -2 0 17 10 32 18 25 2 -3 -1 -13 -7 -23z m-22 -356
l1 -79 -142 7 c-147 6 -224 18 -268 41 -24 12 -30 9 -87 -39 -52 -44 -151
-107 -168 -107 -3 0 -5 43 -5 95 0 97 11 139 39 150 20 8 475 7 496 -1 9 -4
15 -1 15 7 0 8 24 61 53 119 l52 105 6 -110 c4 -60 7 -145 8 -188z m-669 59
c0 -3 -4 -8 -10 -11 -5 -3 -10 -1 -10 4 0 6 5 11 10 11 6 0 10 -2 10 -4z m255
-116 c3 -5 -1 -10 -10 -10 -9 0 -13 5 -10 10 3 6 8 10 10 10 2 0 7 -4 10 -10z"/>
<path d="M855 1220 c-4 -6 -2 -17 4 -23 5 -7 8 -23 4 -35 -3 -13 -1 -22 5 -22
16 0 34 37 30 63 -3 24 -32 35 -43 17z"/>
<path d="M754 887 c-23 -11 -28 -22 -126 -259 -48 -117 -64 -148 -79 -148 -11
0 -65 11 -122 24 -56 13 -118 27 -138 30 -19 3 -53 15 -75 26 l-39 21 -20 -25
c-11 -13 -36 -29 -55 -34 -27 -7 -34 -13 -31 -28 2 -10 3 -88 2 -171 -2 -132
0 -153 14 -153 8 0 15 6 15 13 0 13 56 63 118 106 48 33 112 35 257 10 66 -11
145 -25 175 -30 30 -5 68 -11 84 -14 l29 -5 -6 222 c-6 199 -4 233 13 318 26
125 27 119 -16 97z m-15 -491 l1 -118 -47 6 c-27 4 -82 14 -123 22 -173 35
-220 50 -220 70 0 9 -6 11 -18 6 -31 -12 -196 -116 -212 -132 -8 -9 -11 -10
-6 -3 5 8 4 13 -3 13 -17 0 -14 127 5 189 19 67 42 77 134 63 127 -21 283 -52
289 -58 3 -3 -2 -11 -11 -18 -17 -12 -17 -15 0 -54 9 -23 22 -40 27 -39 6 2
14 27 18 55 5 29 12 52 17 52 5 0 8 8 7 18 0 10 28 92 63 183 l65 164 6 -150
c4 -83 7 -203 8 -269z m-187 12 c-7 -7 -12 -8 -12 -2 0 6 3 14 7 17 3 4 9 5
12 2 2 -3 -1 -11 -7 -17z"/>
<path d="M850 210 c0 -26 25 -36 45 -20 12 10 13 16 4 26 -18 22 -49 17 -49
-6z"/>
</g>
</svg>
