<?xml version="1.0" standalone="no"?>
<!DOCTYPE svg PUBLIC "-//W3C//DTD SVG 20010904//EN"
 "http://www.w3.org/TR/2001/REC-SVG-20010904/DTD/svg10.dtd">
<svg version="1.0" xmlns="http://www.w3.org/2000/svg"
 width="90.000000pt" height="54.000000pt" viewBox="0 0 90.000000 54.000000"
 preserveAspectRatio="xMidYMid meet">
<metadata>
Created by potrace 1.16, written by Peter Selinger 2001-2019
</metadata>
<g transform="translate(0.000000,54.000000) scale(0.100000,-0.100000)"
fill="#000000" stroke="none">
<path d="M424 488 c4 -13 10 -31 13 -41 5 -17 1 -18 -43 -12 -27 4 -53 8 -59
9 -5 0 -11 -16 -13 -36 -4 -42 2 -45 44 -24 16 8 41 18 56 21 l27 7 3 -73 c2
-47 7 -74 15 -77 10 -3 11 14 7 71 -8 90 -19 83 159 93 70 3 130 11 133 16 4
5 -53 6 -146 2 l-151 -7 6 36 c7 36 7 37 -25 37 -29 0 -32 -2 -26 -22z"/>
<path d="M793 482 c-6 -4 -13 -28 -15 -52 l-3 -45 -55 2 c-30 1 -65 5 -77 8
-23 5 -25 -6 -36 -178 -3 -54 -3 -57 17 -50 12 4 34 7 50 8 26 0 31 -4 37 -35
4 -19 5 -37 2 -40 -10 -11 -249 -3 -271 9 -21 11 -22 10 -22 -30 0 -40 1 -41
28 -35 95 21 131 26 216 28 l94 3 17 110 c10 60 24 117 31 126 9 10 10 19 4
25 -7 7 -4 31 10 75 11 35 20 67 20 72 0 9 -31 9 -47 -1z m-13 -128 c0 -14
-30 -19 -80 -15 -58 6 -30 28 36 29 31 0 44 -4 44 -14z m-10 -55 c0 -18 -5
-20 -42 -17 -45 3 -64 24 -26 30 62 9 68 8 68 -13z m-4 -45 c-3 -9 -6 -24 -6
-35 0 -14 -7 -19 -25 -19 -16 0 -25 6 -25 15 0 8 9 15 21 15 12 0 17 4 14 11
-4 6 -13 8 -21 5 -7 -3 -16 -1 -19 4 -3 5 5 11 17 13 45 8 50 7 44 -9z m-96
-4 c0 -13 -11 -13 -30 0 -12 8 -11 10 8 10 12 0 22 -4 22 -10z m20 -40 c0 -5
-11 -10 -25 -10 -14 0 -25 5 -25 10 0 6 11 10 25 10 14 0 25 -4 25 -10z m60
-56 c0 -14 -4 -22 -10 -19 -5 3 -10 17 -10 31 0 14 4 22 10 19 6 -3 10 -17 10
-31z m-270 -78 c0 -2 -9 -6 -20 -9 -11 -3 -20 -1 -20 4 0 5 9 9 20 9 11 0 20
-2 20 -4z"/>
<path d="M84 429 l-29 -30 32 -24 c17 -14 54 -56 83 -95 48 -65 70 -84 70 -61
0 6 -13 29 -29 53 -42 63 -81 140 -81 160 0 29 -16 28 -46 -3z m36 -39 c6 -11
9 -20 7 -20 -2 0 -12 9 -22 20 -10 11 -13 20 -7 20 6 0 16 -9 22 -20z"/>
</g>
</svg>
