<?xml version="1.0" standalone="no"?>
<!DOCTYPE svg PUBLIC "-//W3C//DTD SVG 20010904//EN"
 "http://www.w3.org/TR/2001/REC-SVG-20010904/DTD/svg10.dtd">
<svg version="1.0" xmlns="http://www.w3.org/2000/svg"
 width="57.000000pt" height="69.000000pt" viewBox="0 0 57.000000 69.000000"
 preserveAspectRatio="xMidYMid meet">
<metadata>
Created by potrace 1.16, written by Peter Selinger 2001-2019
</metadata>
<g transform="translate(0.000000,69.000000) scale(0.100000,-0.100000)"
fill="#000000" stroke="none">
<path d="M318 627 l-26 -32 -31 18 c-31 18 -51 16 -51 -5 0 -22 -79 -176 -114
-221 -32 -41 -35 -51 -23 -60 28 -23 101 -138 162 -254 15 -29 30 -53 34 -53
3 0 16 22 28 49 29 62 128 195 181 243 23 21 42 42 42 48 0 5 -21 20 -47 32
-45 22 -49 27 -71 91 -12 37 -26 90 -30 119 -4 28 -12 52 -17 54 -6 1 -22 -12
-37 -29z m41 -77 c0 -10 -6 -7 -19 9 -17 19 -18 26 -8 39 11 13 14 11 19 -9 4
-13 7 -31 8 -39z m-100 37 c8 -10 1 -22 -29 -52 l-40 -39 22 52 c23 55 29 60
47 39z m84 -72 c37 -53 37 -55 15 -55 -41 1 -109 17 -121 29 -8 8 -2 20 23 46
19 19 36 35 39 35 4 0 23 -25 44 -55z m-110 -101 c12 4 54 9 92 13 l70 5 12
-33 c7 -18 12 -34 10 -35 -2 -2 -141 14 -180 21 -27 5 -28 3 -25 -33 2 -27 7
-36 18 -33 52 13 116 22 145 19 l33 -3 -24 -58 c-21 -49 -86 -157 -115 -191
-11 -13 -45 60 -89 195 l-39 122 32 41 32 40 3 -38 c3 -34 6 -37 25 -32z m27
36 c0 -5 -4 -10 -10 -10 -5 0 -10 5 -10 10 0 6 5 10 10 10 6 0 10 -4 10 -10z
m-112 -136 c12 -37 21 -68 19 -70 -8 -8 -66 106 -61 120 11 28 20 18 42 -50z
m326 48 c2 -4 -11 -26 -30 -47 l-34 -40 17 48 c16 43 34 59 47 39z"/>
</g>
</svg>
