<?xml version="1.0" standalone="no"?>
<!DOCTYPE svg PUBLIC "-//W3C//DTD SVG 20010904//EN"
 "http://www.w3.org/TR/2001/REC-SVG-20010904/DTD/svg10.dtd">
<svg version="1.0" xmlns="http://www.w3.org/2000/svg"
 width="86.000000pt" height="72.000000pt" viewBox="0 0 86.000000 72.000000"
 preserveAspectRatio="xMidYMid meet">
<metadata>
Created by potrace 1.16, written by Peter Selinger 2001-2019
</metadata>
<g transform="translate(0.000000,72.000000) scale(0.100000,-0.100000)"
fill="#000000" stroke="none">
<path d="M87 713 c51 -2 135 -2 185 0 51 1 10 3 -92 3 -102 0 -143 -2 -93 -3z"/>
<path d="M413 713 c26 -2 68 -2 95 0 26 2 4 3 -48 3 -52 0 -74 -1 -47 -3z"/>
<path d="M684 639 c-24 -49 -89 -163 -112 -197 -7 -11 -22 -11 -73 -2 -35 6
-71 13 -80 16 -18 5 -39 79 -41 144 0 25 -3 48 -5 52 -4 8 -73 -22 -73 -32 0
-3 16 -37 35 -76 38 -75 35 -82 -27 -66 -35 9 -67 55 -68 100 0 24 -11 27 -41
12 -24 -14 -24 -25 2 -61 l21 -30 -41 7 c-37 6 -40 5 -47 -20 -5 -21 -12 -26
-36 -26 -30 0 -30 -1 -24 -37 3 -21 6 -107 6 -190 0 -95 4 -153 10 -153 6 0
10 13 10 28 0 35 14 48 109 100 72 39 73 40 93 20 19 -19 19 -20 -16 -69 -39
-54 -42 -65 -22 -92 19 -25 33 -21 41 10 4 16 19 53 33 83 27 54 28 55 67 52
22 -2 42 -5 44 -7 1 -2 -13 -34 -33 -71 l-35 -67 22 -18 c30 -25 34 -24 42 11
4 16 12 30 18 30 19 0 92 53 79 58 -6 2 -27 -9 -47 -23 -38 -30 -42 -25 -24
39 l11 38 66 -7 c37 -3 85 -11 107 -16 22 -4 51 -9 65 -9 l25 0 -3 123 c-2 91
3 158 18 252 12 70 19 129 17 131 -2 2 -17 7 -35 10 -29 6 -32 4 -58 -47z m66
-21 c0 -49 -5 -47 -14 5 -4 23 -3 37 4 37 5 0 10 -19 10 -42z m-37 -288 c-2
-68 -6 -126 -8 -128 -3 -4 -177 17 -202 24 -9 2 -7 17 7 56 17 49 18 74 2 64
-4 -2 -16 -27 -27 -55 -20 -53 -36 -62 -76 -41 -25 14 -24 20 7 65 21 32 24
42 15 62 -6 13 -11 28 -11 33 0 15 103 -1 139 -22 18 -10 35 -18 36 -16 2 2
12 26 23 53 10 28 34 83 53 123 l34 72 6 -82 c3 -46 4 -139 2 -208z m-504 144
c45 -9 38 -20 -9 -16 -22 2 -40 8 -40 13 0 11 7 11 49 3z m82 -96 c35 -57 50
-53 25 7 l-15 36 46 -3 c44 -3 48 -5 57 -35 7 -28 5 -39 -18 -74 -22 -32 -30
-38 -41 -29 -9 8 -19 8 -32 1 -24 -14 -172 -61 -189 -61 -17 0 -17 -2 -3 97
15 118 12 113 79 113 l58 0 33 -52z m135 -305 c-10 -10 -19 5 -10 18 6 11 8
11 12 0 2 -7 1 -15 -2 -18z"/>
<path d="M440 320 c0 -5 5 -10 11 -10 5 0 7 5 4 10 -3 6 -8 10 -11 10 -2 0 -4
-4 -4 -10z"/>
<path d="M213 3 c119 -2 315 -2 435 0 119 1 21 2 -218 2 -239 0 -337 -1 -217
-2z"/>
</g>
</svg>
