<?xml version="1.0" standalone="no"?>
<!DOCTYPE svg PUBLIC "-//W3C//DTD SVG 20010904//EN"
 "http://www.w3.org/TR/2001/REC-SVG-20010904/DTD/svg10.dtd">
<svg version="1.0" xmlns="http://www.w3.org/2000/svg"
 width="101.000000pt" height="71.000000pt" viewBox="0 0 101.000000 71.000000"
 preserveAspectRatio="xMidYMid meet">
<metadata>
Created by potrace 1.16, written by Peter Selinger 2001-2019
</metadata>
<g transform="translate(0.000000,71.000000) scale(0.100000,-0.100000)"
fill="#000000" stroke="none">
<path d="M27 703 c18 -2 50 -2 70 0 21 2 7 4 -32 4 -38 0 -55 -2 -38 -4z"/>
<path d="M797 653 c-24 -4 -28 -8 -23 -25 6 -25 -10 -46 -122 -152 l-82 -79
-98 11 c-116 14 -237 44 -261 66 -25 23 -44 20 -38 -5 3 -12 -1 -42 -9 -66 -9
-25 -14 -47 -11 -49 2 -2 16 7 32 20 40 34 77 38 196 22 57 -8 130 -18 161
-21 31 -3 62 -13 69 -21 23 -28 38 -15 50 47 13 68 49 119 71 101 7 -5 22 -12
33 -15 13 -3 9 -5 -12 -6 -41 -1 -44 -21 -3 -21 17 0 30 -4 30 -10 0 -5 -13
-10 -30 -10 -16 0 -30 -4 -30 -10 0 -5 14 -10 30 -10 40 0 38 -18 -2 -22 -37
-3 -36 -23 1 -23 13 0 26 -6 28 -12 3 -9 -8 -13 -37 -13 -25 0 -39 -4 -35 -10
3 -6 19 -10 36 -10 19 0 29 -5 29 -15 0 -10 -11 -15 -35 -15 -19 0 -35 -4 -35
-10 0 -5 16 -10 35 -10 25 0 35 -4 35 -16 0 -12 -9 -15 -37 -12 -22 2 -38 -2
-40 -9 -3 -9 8 -13 36 -13 34 0 41 -3 41 -19 0 -11 -4 -22 -9 -25 -5 -3 -94 6
-198 20 -152 21 -195 31 -225 50 -43 27 -58 30 -58 10 0 -14 -131 -86 -157
-86 -10 0 -13 22 -13 97 0 87 2 99 25 129 37 48 33 56 -22 48 -64 -9 -65 -10
-43 -47 16 -26 20 -50 20 -137 0 -77 5 -116 17 -147 18 -42 43 -58 43 -28 0
23 48 95 64 95 7 0 19 7 26 15 20 24 38 18 32 -10 l-5 -26 45 22 44 21 195
-26 c107 -15 204 -30 217 -33 20 -5 22 -2 22 36 l0 41 43 1 c23 1 47 2 52 4 6
1 16 3 23 3 7 1 10 6 7 12 -3 5 -33 10 -66 10 -38 0 -58 4 -54 10 3 6 24 10
46 10 21 0 39 5 39 10 0 6 -18 10 -40 10 -29 0 -40 4 -40 15 0 11 11 15 40 15
22 0 40 5 40 10 0 6 -18 10 -40 10 -29 0 -40 4 -40 15 0 11 12 15 45 15 25 0
45 5 45 10 0 6 -20 10 -45 10 -25 0 -45 5 -45 10 0 6 27 10 61 10 73 0 71 17
-2 19 -29 0 -54 3 -57 5 -12 13 14 26 49 26 36 0 40 2 37 23 -2 17 -11 23 -36
25 -38 4 -37 13 4 85 13 23 24 45 24 50 0 7 -33 7 -83 0z m43 -28 c0 -10 -30
-65 -35 -65 -3 0 -5 16 -5 35 0 28 4 35 20 35 11 0 20 -2 20 -5z m-50 -86 c0
-14 -7 -19 -25 -19 -26 0 -26 0 -8 24 20 27 33 25 33 -5z m-575 -122 c-20 -11
-27 -5 -19 17 5 13 9 14 21 5 12 -11 12 -14 -2 -22z m421 -34 c-5 -12 -10 -13
-17 -6 -8 8 -7 18 2 34 12 21 14 22 17 6 2 -10 1 -25 -2 -34z m-306 -152 c0
-5 -7 -11 -15 -15 -9 -3 -15 0 -15 9 0 8 7 15 15 15 8 0 15 -4 15 -9z m-180
-79 c0 -13 -12 -22 -22 -16 -10 6 -1 24 13 24 5 0 9 -4 9 -8z"/>
</g>
</svg>
