<?xml version="1.0" standalone="no"?>
<!DOCTYPE svg PUBLIC "-//W3C//DTD SVG 20010904//EN"
 "http://www.w3.org/TR/2001/REC-SVG-20010904/DTD/svg10.dtd">
<svg version="1.0" xmlns="http://www.w3.org/2000/svg"
 width="116.000000pt" height="153.000000pt" viewBox="0 0 116.000000 153.000000"
 preserveAspectRatio="xMidYMid meet">
<metadata>
Created by potrace 1.16, written by Peter Selinger 2001-2019
</metadata>
<g transform="translate(0.000000,153.000000) scale(0.100000,-0.100000)"
fill="#000000" stroke="none">
<path d="M157 1396 c-13 -19 -26 -26 -48 -26 -29 0 -31 -2 -25 -27 4 -16 10
-79 13 -140 6 -129 23 -152 24 -35 1 104 17 164 49 179 42 19 260 30 545 28
l270 -3 7 -39 c4 -21 7 -57 7 -79 l1 -41 -67 -5 c-38 -3 -132 -4 -210 -4 -138
1 -143 0 -154 -21 -7 -13 -10 -26 -6 -29 3 -3 65 1 139 10 255 29 295 30 307
9 10 -17 10 -17 12 2 1 11 1 37 -1 58 -1 21 6 70 15 108 10 39 15 72 13 74 -2
3 -22 -1 -44 -7 -40 -11 -687 -4 -785 8 -41 6 -47 4 -62 -20z m63 -6 c12 -8 9
-10 -13 -10 -16 0 -26 4 -22 10 8 12 16 12 35 0z m797 -32 c-3 -8 -6 -5 -6 6
-1 11 2 17 5 13 3 -3 4 -12 1 -19z m-900 -40 c-3 -8 -6 -5 -6 6 -1 11 2 17 5
13 3 -3 4 -12 1 -19z m498 -138 c-3 -5 -10 -10 -16 -10 -5 0 -9 5 -9 10 0 6 7
10 16 10 8 0 12 -4 9 -10z"/>
<path d="M300 1263 c-47 -31 -104 -62 -127 -70 -42 -14 -43 -16 -43 -59 0 -24
3 -44 7 -44 3 0 22 18 41 41 19 22 59 58 89 80 l54 40 46 -22 c26 -13 69 -44
97 -71 27 -26 51 -48 52 -48 1 0 8 16 14 35 6 19 31 62 56 95 40 55 52 80 39
80 -3 0 -37 -32 -77 -71 l-72 -71 -19 23 c-11 13 -30 45 -43 71 -13 27 -25 48
-27 48 -1 -1 -40 -26 -87 -57z m95 -4 c11 -17 -1 -21 -15 -4 -8 9 -8 15 -2 15
6 0 14 -5 17 -11z m117 -91 c-7 -7 -12 -8 -12 -2 0 14 12 26 19 19 2 -3 -1
-11 -7 -17z m-342 -12 c0 -3 -4 -8 -10 -11 -5 -3 -10 -1 -10 4 0 6 5 11 10 11
6 0 10 -2 10 -4z"/>
<path d="M1103 1203 c-4 -9 -2 -18 4 -20 6 -2 9 -13 6 -23 -3 -11 0 -20 6 -20
16 0 35 45 28 64 -8 21 -36 20 -44 -1z"/>
<path d="M137 954 c-4 -4 -7 -16 -7 -27 0 -11 -9 -21 -21 -24 -18 -5 -20 -11
-15 -42 3 -20 6 -73 6 -117 0 -81 0 -81 26 -81 15 0 34 7 44 17 33 33 142 91
160 85 10 -3 35 -26 56 -52 76 -91 83 -98 84 -85 0 7 -16 36 -36 65 -20 28
-42 66 -49 84 -8 18 -19 33 -25 33 -7 0 -49 -18 -95 -40 -46 -22 -98 -43 -115
-47 l-32 -6 7 44 c15 99 18 110 34 118 28 15 118 21 453 28 l327 6 5 -34 c10
-68 17 -129 14 -129 -2 0 -101 -3 -220 -7 l-217 -6 -3 47 c-6 87 -22 41 -24
-69 -1 -60 -4 -116 -6 -124 -4 -20 14 -23 36 -6 17 13 18 19 8 52 -6 21 -8 41
-4 44 7 7 238 36 363 46 l66 5 7 -36 c14 -74 23 -32 22 99 l-1 135 -145 0
c-140 0 -449 13 -615 25 -44 4 -84 3 -88 -1z m142 -28 c-11 -10 -129 -16 -129
-6 0 6 27 10 67 10 36 0 64 -2 62 -4z"/>
<path d="M1124 709 c3 -17 6 -36 6 -41 0 -6 7 -5 15 2 8 7 15 25 15 41 0 23
-5 29 -21 29 -19 0 -21 -4 -15 -31z"/>
<path d="M139 484 c-1 -5 -1 -13 0 -18 3 -15 -22 -26 -43 -20 -18 6 -18 3 -11
-42 4 -27 9 -89 11 -139 2 -50 7 -92 11 -95 4 -3 9 33 11 80 2 47 7 102 13
122 9 36 11 37 82 52 39 8 103 18 140 21 l68 7 -7 -28 c-7 -26 -6 -26 27 -20
19 4 140 10 270 13 l236 5 7 -32 c3 -18 6 -54 6 -81 l0 -49 -98 0 c-55 0 -136
5 -180 11 l-82 11 -34 -30 c-19 -16 -55 -44 -80 -61 l-46 -32 -30 63 c-17 35
-30 69 -30 76 0 17 -18 15 -48 -7 -15 -10 -66 -37 -114 -61 l-87 -43 16 -30
15 -31 32 36 c17 19 53 50 79 67 47 32 49 32 68 15 11 -9 35 -40 54 -68 48
-71 61 -86 71 -86 5 1 26 25 47 54 21 29 54 68 74 87 29 28 34 30 29 12 -9
-28 2 -33 50 -23 21 4 96 10 167 13 l127 5 0 -24 c0 -13 4 -24 9 -24 11 0 21
61 21 136 0 34 5 76 11 93 15 43 3 52 -46 36 -44 -16 -335 -11 -391 6 -17 5
-110 11 -205 13 -96 2 -184 7 -196 11 -13 4 -24 3 -24 -1z m56 -34 c-3 -5 -13
-10 -21 -10 -8 0 -14 5 -14 10 0 6 9 10 21 10 11 0 17 -4 14 -10z m300 -10
c16 -7 12 -9 -18 -9 -23 -1 -36 3 -32 9 7 12 23 12 50 0z m188 -197 c-7 -2
-21 -2 -30 0 -10 3 -4 5 12 5 17 0 24 -2 18 -5z m-194 -93 c-12 -16 -27 -26
-32 -23 -6 3 3 17 19 30 38 30 39 29 13 -7z"/>
<path d="M1083 234 c-3 -8 -1 -20 5 -26 16 -16 42 -2 42 22 0 24 -38 28 -47 4z"/>
</g>
</svg>
