<?xml version="1.0" standalone="no"?>
<!DOCTYPE svg PUBLIC "-//W3C//DTD SVG 20010904//EN"
 "http://www.w3.org/TR/2001/REC-SVG-20010904/DTD/svg10.dtd">
<svg version="1.0" xmlns="http://www.w3.org/2000/svg"
 width="56.000000pt" height="55.000000pt" viewBox="0 0 56.000000 55.000000"
 preserveAspectRatio="xMidYMid meet">
<metadata>
Created by potrace 1.16, written by Peter Selinger 2001-2019
</metadata>
<g transform="translate(0.000000,55.000000) scale(0.100000,-0.100000)"
fill="#000000" stroke="none">
<path d="M117 523 c-2 -4 -7 -20 -11 -35 -5 -21 -12 -27 -29 -25 -17 1 -21 -3
-19 -18 1 -11 3 -107 3 -214 l1 -193 47 7 c25 5 116 11 201 14 l154 6 3 70 c5
97 22 295 29 325 6 26 5 26 -68 28 -124 4 -280 21 -293 32 -7 6 -15 7 -18 3z
m330 -118 c6 -32 9 -63 6 -69 -4 -5 -48 -6 -107 -3 l-102 7 4 -125 c4 -112 3
-125 -13 -131 -17 -7 -132 10 -143 20 -16 17 7 302 27 335 14 21 69 29 196 28
l120 -2 12 -60z m-360 3 c-3 -7 -5 -2 -5 12 0 14 2 19 5 13 2 -7 2 -19 0 -25z
m358 -210 c-4 -57 -8 -104 -9 -105 -1 -1 -40 -5 -86 -9 l-83 -7 6 90 c4 50 9
97 13 106 7 19 28 24 107 26 l59 1 -7 -102z"/>
</g>
</svg>
