<?xml version="1.0" standalone="no"?>
<!DOCTYPE svg PUBLIC "-//W3C//DTD SVG 20010904//EN"
 "http://www.w3.org/TR/2001/REC-SVG-20010904/DTD/svg10.dtd">
<svg version="1.0" xmlns="http://www.w3.org/2000/svg"
 width="137.000000pt" height="119.000000pt" viewBox="0 0 137.000000 119.000000"
 preserveAspectRatio="xMidYMid meet">
<metadata>
Created by potrace 1.16, written by Peter Selinger 2001-2019
</metadata>
<g transform="translate(0.000000,119.000000) scale(0.100000,-0.100000)"
fill="#000000" stroke="none">
<path d="M510 1131 c0 -10 -17 -32 -37 -49 l-37 -29 18 -28 c10 -15 16 -29 13
-31 -5 -5 -238 12 -299 22 -32 5 -37 4 -40 -17 -2 -15 -12 -25 -28 -29 -20 -5
-25 -12 -23 -36 2 -16 6 -82 9 -146 4 -65 10 -118 15 -118 4 0 11 25 14 55 5
34 12 55 20 55 12 0 25 -50 25 -102 0 -16 5 -28 11 -28 8 0 10 20 7 65 l-6 65
109 -1 c80 -1 109 -4 109 -13 0 -15 32 -46 46 -46 5 0 26 34 47 75 29 59 40
73 53 68 12 -4 15 -3 10 5 -4 7 2 24 14 39 14 18 17 29 10 31 -6 2 -17 -4 -24
-13 -12 -17 -13 -17 -20 1 -12 30 -20 157 -10 153 43 -19 153 -81 213 -120 74
-49 104 -62 81 -34 -7 8 -62 54 -124 102 -61 48 -120 96 -130 105 -26 23 -46
23 -46 -1z m85 -56 l30 -26 -47 22 c-27 13 -48 29 -48 36 0 16 20 6 65 -32z
m-105 -42 c0 -22 -2 -25 -10 -13 -13 20 -13 40 0 40 6 0 10 -12 10 -27z m8
-101 l23 -41 -45 -46 -46 -46 -127 3 -126 3 -1 57 c-1 76 -20 75 -26 -2 -4
-48 -8 -58 -19 -51 -11 7 -12 22 -7 66 8 70 19 92 48 98 13 2 86 3 163 2 l140
-2 23 -41z m-385 11 c3 -5 1 -17 -4 -28 -4 -11 -8 -15 -8 -8 -1 6 -4 18 -7 27
-6 16 11 23 19 9z m335 -168 c-10 -23 -28 -34 -28 -18 0 7 31 43 36 43 2 0 -2
-11 -8 -25z"/>
<path d="M1103 1112 c-3 -8 -1 -36 6 -64 15 -69 16 -67 -36 -70 -54 -3 -49 10
-53 -128 l-3 -75 57 3 56 3 0 -40 c0 -75 -6 -76 -78 -14 -94 78 -162 142 -162
152 0 8 25 32 117 108 34 28 68 53 75 56 7 2 10 7 7 11 -4 4 -22 -3 -41 -16
-18 -13 -75 -43 -125 -68 -51 -25 -92 -49 -92 -54 -1 -5 7 -15 17 -22 16 -12
15 -13 -8 -14 -23 0 -44 -10 -170 -81 -25 -14 -63 -32 -85 -39 -22 -7 -44 -16
-50 -20 -5 -5 -29 -13 -51 -19 -38 -10 -42 -15 -46 -47 -2 -19 -1 -37 3 -40 4
-2 30 12 58 33 43 32 110 73 278 170 38 22 41 22 36 5 -3 -15 2 -21 24 -27 54
-13 159 -71 226 -125 37 -29 67 -58 67 -62 0 -5 5 -6 10 -3 6 4 10 14 9 23 -1
10 -1 43 0 75 l1 57 60 0 c33 0 60 4 60 10 0 6 -27 10 -60 10 -53 0 -60 2 -60
20 0 18 7 20 65 20 40 0 65 4 65 11 0 7 -20 10 -52 9 -29 -2 -59 -2 -65 -1
-22 2 -14 41 10 51 l22 9 -23 0 c-21 1 -22 3 -15 69 13 126 12 136 -20 137
-17 1 -31 -4 -34 -13z m40 -57 l-7 -40 -7 40 c-7 42 -2 62 12 48 5 -5 5 -26 2
-48z m-23 -118 c0 -10 -12 -13 -37 -11 -50 3 -53 4 -23 14 39 12 60 11 60 -3z
m-225 -17 c-10 -11 -21 -17 -24 -14 -3 3 3 12 13 20 28 20 32 17 11 -6z m233
-41 c-2 -6 -7 -10 -11 -10 -4 1 -22 1 -39 2 -28 0 -30 2 -13 9 29 12 67 12 63
-1z m-222 -54 l39 -35 -50 21 c-58 24 -59 24 -50 38 10 17 19 13 61 -24z m224
0 c0 -11 -12 -15 -45 -15 -69 0 -57 28 13 29 22 1 32 -4 32 -14z m-625 -125
c-10 -17 -45 -32 -45 -20 0 6 10 15 23 20 29 12 29 12 22 0z"/>
<path d="M1210 959 c0 -5 5 -7 10 -4 6 3 10 8 10 11 0 2 -4 4 -10 4 -5 0 -10
-5 -10 -11z"/>
<path d="M1336 741 c-10 -15 6 -72 18 -68 6 2 12 20 14 40 2 28 -1 37 -12 37
-8 0 -17 -4 -20 -9z"/>
<path d="M424 523 c-4 -10 -16 -38 -27 -62 -15 -32 -17 -46 -9 -49 7 -2 12 -7
12 -12 0 -8 -76 -6 -220 5 -66 5 -77 4 -91 -13 -9 -11 -21 -21 -26 -23 -11 -5
-4 -269 8 -269 4 0 9 26 11 58 3 56 3 57 33 57 29 0 30 -1 31 -50 1 -69 3 -75
14 -75 5 0 10 30 12 67 l3 68 110 3 c60 2 117 8 125 13 10 6 -28 9 -109 7
l-123 -3 6 42 c5 41 4 43 -19 43 -23 0 -25 -4 -25 -45 0 -44 -1 -45 -31 -45
-31 0 -31 0 -24 43 12 76 12 77 63 78 67 2 138 6 210 13 62 7 63 6 103 -32
l41 -38 -80 -82 -81 -81 19 -23 c18 -23 19 -23 26 -3 11 30 78 127 103 149 21
19 21 19 46 -4 32 -30 46 -18 16 14 l-23 25 21 22 c12 13 21 26 21 31 0 16
-18 8 -33 -14 l-15 -23 -41 39 c-37 36 -63 97 -49 112 13 12 119 -40 180 -88
36 -29 74 -58 84 -64 21 -12 34 -2 -168 -136 -76 -50 -138 -96 -138 -102 0 -6
5 -18 10 -26 7 -12 18 -5 57 37 26 29 87 78 134 110 104 70 139 98 138 109 0
9 -270 226 -289 232 -5 2 -13 -5 -16 -15z m47 -29 c12 -14 11 -16 -5 -13 -11
2 -21 10 -24 17 -5 17 13 15 29 -4z"/>
<path d="M1042 497 c-102 -68 -171 -106 -229 -124 -53 -18 -54 -18 -51 -55 2
-27 -3 -41 -16 -51 -25 -18 -12 -37 25 -37 38 0 68 -15 213 -112 140 -93 156
-95 156 -14 0 29 3 74 6 100 l7 48 50 -4 c36 -2 52 1 55 10 3 11 -8 13 -52 10
l-56 -3 1 52 c2 36 7 54 17 58 13 5 12 8 -3 19 -17 12 -18 19 -8 72 6 33 9 62
6 67 -10 17 -63 2 -121 -36z m98 -14 c0 -22 -2 -25 -10 -13 -13 20 -13 40 0
40 6 0 10 -12 10 -27z m-36 1 c3 -9 6 -34 6 -56 l0 -39 -57 2 -58 3 -5 -66
c-8 -100 -9 -98 66 -91 l64 6 0 -92 c0 -50 -2 -91 -5 -91 -3 0 -18 9 -33 19
-15 11 -72 48 -127 84 -55 36 -116 79 -135 96 l-34 31 29 30 c27 26 261 178
276 179 4 1 10 -6 13 -15z m6 -124 c0 -5 -21 -9 -47 -9 -43 1 -45 2 -18 9 44
11 65 11 65 0z m5 -30 c4 -6 -10 -10 -37 -9 -40 1 -41 2 -13 9 43 11 43 11 50
0z m5 -44 c0 -23 -13 -26 -61 -17 -42 8 -41 14 6 24 39 9 55 7 55 -7z"/>
<path d="M1170 312 c0 -5 7 -9 15 -9 8 0 15 4 15 9 0 4 -7 8 -15 8 -8 0 -15
-4 -15 -8z"/>
<path d="M1296 104 c-8 -20 1 -34 20 -34 8 0 14 10 14 25 0 28 -24 34 -34 9z"/>
</g>
</svg>
