<?xml version="1.0" standalone="no"?>
<!DOCTYPE svg PUBLIC "-//W3C//DTD SVG 20010904//EN"
 "http://www.w3.org/TR/2001/REC-SVG-20010904/DTD/svg10.dtd">
<svg version="1.0" xmlns="http://www.w3.org/2000/svg"
 width="106.000000pt" height="121.000000pt" viewBox="0 0 106.000000 121.000000"
 preserveAspectRatio="xMidYMid meet">
<metadata>
Created by potrace 1.16, written by Peter Selinger 2001-2019
</metadata>
<g transform="translate(0.000000,121.000000) scale(0.100000,-0.100000)"
fill="#000000" stroke="none">
<path d="M840 1155 l-24 -26 -176 2 c-96 1 -204 5 -240 10 -137 17 -134 17
-137 -15 -2 -27 -1 -28 35 -21 65 13 505 6 519 -8 6 -7 15 -29 18 -50 l7 -38
-183 4 c-101 1 -194 7 -206 11 -20 7 -23 5 -23 -19 0 -23 3 -26 22 -22 28 7
376 12 382 6 3 -2 6 -46 7 -97 l2 -93 -244 -2 -244 -2 3 110 c2 61 8 123 14
138 13 34 11 37 -25 30 -24 -5 -27 -9 -22 -27 15 -46 17 -80 10 -161 -6 -81
-8 -84 -33 -87 -17 -2 -28 -10 -30 -21 -3 -15 1 -18 16 -13 10 4 145 8 298 10
l278 3 -2 119 c-1 65 2 153 6 194 5 41 6 78 3 83 -4 4 -18 -4 -31 -18z m7 -47
c-3 -8 -6 -5 -6 6 -1 11 2 17 5 13 3 -3 4 -12 1 -19z m-377 -102 c0 -3 -4 -8
-10 -11 -5 -3 -10 -1 -10 4 0 6 5 11 10 11 6 0 10 -2 10 -4z"/>
<path d="M217 1110 c-28 -27 -28 -28 -13 -65 9 -21 16 -50 16 -66 0 -29 -1
-29 -60 -29 -46 0 -60 3 -60 15 0 8 6 12 13 10 6 -2 28 -1 47 3 l35 8 -49 7
c-35 5 -52 3 -59 -5 -6 -10 -7 -9 -4 2 2 8 14 16 28 18 13 1 40 5 59 9 l35 6
-30 8 c-16 5 -38 7 -47 4 -10 -3 -27 -8 -38 -11 -13 -3 -20 -1 -18 6 2 7 -3
15 -11 18 -11 4 -13 -7 -7 -59 4 -34 8 -88 9 -120 2 -62 9 -78 29 -61 12 9 78
17 121 13 11 -1 17 -9 17 -23 0 -13 4 -29 9 -36 16 -25 18 20 8 136 -6 73 -6
133 0 172 5 34 7 63 4 65 -3 2 -19 -9 -34 -25z m13 -37 c0 -21 -3 -24 -9 -14
-5 8 -7 20 -4 28 8 21 13 15 13 -14z m-2 -160 c3 -10 -15 -13 -67 -13 -65 0
-98 11 -69 24 25 10 131 1 136 -11z m2 -53 c0 -22 -20 -24 -100 -11 -58 10
-21 27 63 30 31 1 37 -2 37 -19z"/>
<path d="M430 874 c0 -23 3 -25 23 -20 59 17 143 26 255 26 74 0 122 4 122 10
0 6 -73 10 -200 10 l-200 0 0 -26z"/>
<path d="M957 823 c-7 -12 4 -73 13 -73 11 0 28 52 23 68 -5 13 -29 17 -36 5z"/>
<path d="M127 423 c-11 -10 -8 -51 3 -58 23 -14 7 -25 -35 -25 -26 0 -45 -5
-45 -11 0 -7 17 -10 45 -7 28 2 46 -1 49 -8 7 -19 -4 -24 -37 -17 -21 4 -28 3
-23 -5 4 -7 18 -12 32 -12 13 0 24 -5 24 -11 0 -7 -10 -9 -25 -5 -14 4 -25 2
-25 -4 0 -5 11 -10 25 -10 21 0 25 -5 25 -30 0 -25 -4 -30 -25 -30 -14 0 -25
-4 -25 -10 0 -5 11 -10 25 -10 18 0 25 -5 25 -19 0 -11 -5 -23 -10 -26 -23
-14 4 -25 61 -25 52 0 59 -2 59 -20 0 -11 5 -20 10 -20 6 0 10 8 10 18 0 16
18 17 265 15 l265 -3 0 48 c0 27 9 98 20 158 24 135 24 134 -1 134 -46 0 -58
-17 -52 -69 l5 -48 -163 3 c-90 1 -180 7 -199 13 -52 16 -60 14 -60 -17 0 -36
9 -45 28 -30 10 9 76 14 207 16 l194 4 3 -33 c2 -19 1 -62 0 -97 l-4 -64 -216
3 c-120 1 -234 4 -254 7 l-38 4 0 119 c0 73 -4 119 -10 119 -6 0 -10 -47 -10
-120 l0 -120 -45 0 c-41 0 -45 2 -45 25 0 16 6 25 15 25 8 0 15 5 15 10 0 6
-7 10 -15 10 -18 0 -19 12 -3 28 9 9 9 12 -1 12 -7 0 -11 9 -9 22 2 16 12 25
33 29 l30 6 -30 4 c-29 4 -30 6 -27 46 3 32 0 45 -12 49 -27 10 -18 24 15 24
24 0 30 -4 25 -15 -3 -8 -1 -15 4 -15 6 0 10 5 10 11 0 5 4 8 8 5 4 -3 124 -7
266 -11 208 -5 257 -3 254 7 -4 10 -63 13 -267 14 -179 1 -266 5 -274 13 -12
12 -60 15 -70 4z m686 -60 c-10 -65 -22 -73 -23 -15 0 39 4 52 14 52 11 0 13
-9 9 -37z m-413 -53 c0 -5 -7 -10 -15 -10 -8 0 -15 5 -15 10 0 6 7 10 15 10 8
0 15 -4 15 -10z"/>
<path d="M105 220 c4 -6 11 -8 16 -5 14 9 11 15 -7 15 -8 0 -12 -5 -9 -10z"/>
<path d="M360 197 c0 -29 8 -30 84 -6 16 5 94 9 174 9 89 0 142 4 137 9 -6 5
-97 11 -203 13 l-192 3 0 -28z"/>
<path d="M947 134 c-16 -16 -7 -44 14 -44 15 0 20 5 17 22 -3 22 -19 33 -31
22z"/>
</g>
</svg>
