<?xml version="1.0" standalone="no"?>
<!DOCTYPE svg PUBLIC "-//W3C//DTD SVG 20010904//EN"
 "http://www.w3.org/TR/2001/REC-SVG-20010904/DTD/svg10.dtd">
<svg version="1.0" xmlns="http://www.w3.org/2000/svg"
 width="133.000000pt" height="226.000000pt" viewBox="0 0 133.000000 226.000000"
 preserveAspectRatio="xMidYMid meet">
<metadata>
Created by potrace 1.16, written by Peter Selinger 2001-2019
</metadata>
<g transform="translate(0.000000,226.000000) scale(0.100000,-0.100000)"
fill="#000000" stroke="none">
<path d="M766 2225 c-3 -9 -6 -27 -6 -39 0 -22 0 -23 63 -10 34 8 121 14 193
14 l131 0 7 -42 c4 -24 4 -112 0 -195 l-7 -153 -59 0 -60 0 7 128 c3 70 11
151 17 180 5 30 8 56 5 58 -2 3 -19 -3 -36 -13 -26 -15 -31 -22 -26 -43 3 -14
8 -66 12 -116 l6 -90 -89 3 c-49 2 -101 8 -116 13 -14 4 -29 6 -32 3 -6 -7 -8
-73 -2 -73 2 0 22 7 44 14 43 16 157 27 179 19 8 -3 13 -21 13 -44 0 -36 -2
-39 -27 -40 -73 -2 -156 3 -185 12 -17 5 -32 8 -33 6 -1 -1 -5 -19 -8 -41 -6
-36 -5 -38 16 -31 80 24 165 33 322 34 l80 1 3 118 c3 114 15 245 27 295 l7
25 -194 5 c-106 3 -205 8 -219 12 -19 5 -28 2 -33 -10z m49 -27 c-19 -11 -30
-5 -21 11 4 6 14 7 22 4 15 -5 14 -7 -1 -15z m362 -30 c-3 -8 -6 -5 -6 6 -1
11 2 17 5 13 3 -3 4 -12 1 -19z m-150 -75 c-3 -10 -5 -4 -5 12 0 17 2 24 5 18
2 -7 2 -21 0 -30z m-217 -313 c-19 -13 -30 -13 -30 0 0 6 10 10 23 10 18 0 19
-2 7 -10z"/>
<path d="M54 2206 c-11 -47 -1 -55 55 -44 57 10 293 27 301 21 15 -13 26 -368
14 -432 l-7 -32 -161 4 c-88 3 -169 8 -178 12 -15 6 -18 2 -18 -29 0 -42 -3
-42 125 -21 50 8 115 15 146 15 31 0 71 3 88 6 l31 7 0 161 c1 147 10 260 25
311 6 20 2 20 -139 17 -130 -3 -207 4 -258 23 -13 5 -19 0 -24 -19z m393 -48
c-3 -8 -6 -5 -6 6 -1 11 2 17 5 13 3 -3 4 -12 1 -19z"/>
<path d="M283 2110 c-5 -18 -14 -20 -102 -20 -57 0 -102 5 -108 11 -15 15 -22
-1 -16 -33 4 -22 10 -27 27 -23 11 3 37 7 56 10 19 2 60 7 91 11 31 3 59 2 61
-2 3 -5 9 -58 12 -117 l7 -109 -103 5 c-57 3 -112 6 -122 8 -16 3 -19 -2 -20
-31 0 -19 4 -34 9 -33 53 9 187 26 215 27 l35 2 7 109 c4 61 11 129 16 152 11
49 9 53 -31 53 -20 0 -30 -6 -34 -20z m47 -36 c0 -14 -4 -23 -10 -19 -5 3 -10
15 -10 26 0 10 5 19 10 19 6 0 10 -12 10 -26z m-213 -260 c-3 -3 -12 -4 -19
-1 -8 3 -5 6 6 6 11 1 17 -2 13 -5z"/>
<path d="M775 2106 c-3 -9 -7 -23 -10 -31 -5 -18 12 -30 28 -17 7 5 41 14 76
21 94 16 101 31 14 31 -39 0 -78 3 -87 6 -10 4 -18 0 -21 -10z"/>
<path d="M516 1784 c-3 -9 -3 -21 1 -27 4 -7 6 -20 4 -31 -4 -28 21 -14 32 17
5 15 6 34 3 42 -7 20 -32 19 -40 -1z"/>
<path d="M1236 1792 c-9 -15 6 -83 18 -79 15 5 24 49 14 70 -9 18 -24 22 -32
9z"/>
<path d="M1190 1694 c0 -8 5 -12 10 -9 6 3 10 10 10 16 0 5 -4 9 -10 9 -5 0
-10 -7 -10 -16z"/>
<path d="M1126 1521 c-4 -7 -5 -15 -2 -18 9 -9 19 4 14 18 -4 11 -6 11 -12 0z"/>
<path d="M757 1441 c-7 -30 24 -54 55 -42 13 5 53 12 90 16 l65 7 6 -38 c11
-64 9 -76 -10 -71 -73 20 -73 20 -73 -19 0 -35 1 -35 33 -29 17 4 37 8 42 9 6
0 9 -21 9 -51 -2 -79 -5 -83 -55 -72 -48 11 -62 3 -57 -32 2 -15 9 -23 18 -20
8 2 32 6 53 8 l37 6 0 -53 0 -53 -112 6 c-62 3 -121 9 -132 13 -16 6 -17 3
-11 -27 10 -47 13 -51 35 -39 23 12 131 27 265 35 55 4 102 8 104 11 2 2 3 31
2 64 -2 55 -1 60 18 60 12 0 21 5 21 11 0 6 -7 8 -16 5 -15 -6 -16 4 -10 106
4 62 11 130 17 151 13 49 6 57 -39 51 -66 -8 -286 -9 -318 -1 -27 7 -32 5 -37
-12z m347 -33 c3 -13 6 -37 6 -54 0 -34 -16 -44 -74 -44 -27 0 -28 2 -23 33
11 66 24 87 56 87 21 0 30 -6 35 -22z m6 -188 l0 -70 -61 0 c-52 0 -60 2 -55
16 3 9 6 37 6 64 0 53 2 54 83 59 l27 1 0 -70z m-193 -96 c-3 -3 -12 -4 -19
-1 -8 3 -5 6 6 6 11 1 17 -2 13 -5z m185 -4 c2 -6 2 -31 0 -55 l-4 -45 -54 0
-54 0 0 49 c0 46 2 50 28 54 53 8 80 7 84 -3z m-325 -126 c-3 -3 -12 -4 -19
-1 -8 3 -5 6 6 6 11 1 17 -2 13 -5z"/>
<path d="M64 1396 c-11 -30 0 -61 21 -58 64 8 278 20 289 16 21 -8 26 -53 26
-235 l0 -169 -55 0 -55 0 1 63 c0 62 13 209 20 236 3 12 -16 15 -106 15 -60 1
-117 3 -125 6 -11 4 -14 -2 -11 -25 1 -16 4 -31 6 -33 1 -1 40 4 86 12 101 18
109 13 109 -76 l0 -58 -47 -1 c-62 -2 -124 1 -145 7 -12 4 -19 -2 -24 -21 -9
-36 -2 -39 53 -26 26 6 74 13 106 16 l57 5 0 -53 c0 -75 -3 -77 -87 -67 -39 5
-83 12 -96 15 -22 6 -26 3 -32 -25 -4 -17 -5 -33 -3 -35 2 -3 31 0 64 5 66 11
161 18 247 19 l57 1 0 133 c1 120 12 256 25 298 5 15 -11 17 -157 21 -90 3
-176 10 -191 16 -22 10 -29 9 -33 -2z m59 -33 c-7 -2 -19 -2 -25 0 -7 3 -2 5
12 5 14 0 19 -2 13 -5z m-28 -423 c3 -5 1 -10 -4 -10 -6 0 -11 5 -11 10 0 6 2
10 4 10 3 0 8 -4 11 -10z"/>
<path d="M1292 1203 c3 -31 38 -47 38 -18 0 9 -4 13 -10 10 -5 -3 -10 3 -10
14 0 12 -5 21 -11 21 -6 0 -9 -12 -7 -27z"/>
<path d="M1184 1008 c4 -52 19 -59 36 -19 15 37 7 61 -20 61 -17 0 -19 -5 -16
-42z"/>
<path d="M478 1023 c0 -5 -1 -23 -2 -41 -1 -48 28 -39 32 11 2 28 0 37 -12 37
-9 0 -17 -3 -18 -7z"/>
<path d="M446 932 c-3 -6 -1 -14 5 -17 15 -10 25 3 12 16 -7 7 -13 7 -17 1z"/>
<path d="M1065 669 c-33 -5 -130 -8 -215 -7 l-155 1 -2 -26 c-1 -15 2 -29 7
-32 4 -3 34 1 67 9 83 20 187 30 178 17 -3 -6 -13 -11 -21 -11 -12 0 -15 -10
-12 -42 l3 -43 -78 1 c-44 1 -83 6 -90 13 -22 22 -36 12 -35 -29 0 -45 2 -46
53 -25 23 10 59 15 98 13 l62 -3 3 -122 c2 -95 0 -123 -10 -124 -7 0 -43 -3
-81 -5 -49 -4 -76 -1 -99 10 -17 9 -33 16 -35 16 -6 0 3 -79 9 -86 4 -3 19 3
35 15 21 15 47 21 106 23 l78 3 -3 -60 -3 -60 -84 -3 c-62 -2 -89 1 -107 13
-33 21 -34 20 -34 -31 0 -25 3 -44 8 -42 59 31 88 36 226 42 82 3 152 8 155
12 3 3 8 112 11 242 5 216 7 241 26 279 20 38 21 55 5 52 -3 -1 -33 -5 -66
-10z m-7 -31 c7 -7 12 -31 12 -55 l0 -43 -56 0 c-54 0 -56 1 -50 23 3 12 6 34
6 49 0 20 6 28 23 31 41 8 53 7 65 -5z m52 5 c0 -5 -5 -15 -10 -23 -8 -12 -10
-11 -10 8 0 12 5 22 10 22 6 0 10 -3 10 -7z m-370 -7 c0 -3 -4 -8 -10 -11 -5
-3 -10 -1 -10 4 0 6 5 11 10 11 6 0 10 -2 10 -4z m197 -58 c-3 -8 -6 -5 -6 6
-1 11 2 17 5 13 3 -3 4 -12 1 -19z m133 -65 c0 -5 1 -62 3 -128 l2 -120 -60 0
-60 0 -3 114 c-1 63 0 121 2 128 6 14 116 19 116 6z m6 -287 c3 -8 2 -34 -3
-58 l-9 -43 -57 -3 -57 -3 0 54 c0 29 3 57 7 60 13 14 113 8 119 -7z"/>
<path d="M1010 320 c0 -5 5 -10 10 -10 6 0 10 5 10 10 0 6 -4 10 -10 10 -5 0
-10 -4 -10 -10z"/>
<path d="M58 609 c-2 -22 -2 -42 0 -44 2 -1 22 8 45 21 38 22 53 24 174 24 72
0 134 -4 137 -9 3 -4 8 -33 12 -62 l6 -54 -168 6 c-93 3 -179 9 -191 13 -20 7
-23 5 -23 -15 0 -40 13 -50 46 -40 16 6 64 11 106 13 91 4 88 9 88 -130 l0
-94 -97 4 c-54 2 -104 6 -112 9 -15 4 -40 -56 -28 -67 3 -4 23 0 44 9 21 8 72
16 113 18 l75 4 3 -39 c2 -22 1 -50 -3 -64 l-6 -24 -112 3 -112 4 -3 -32 c-3
-33 5 -41 23 -24 13 12 128 29 254 37 56 4 104 10 106 14 2 3 7 98 11 211 5
163 10 215 26 259 34 98 34 92 3 84 -37 -9 -354 -11 -386 -2 -26 7 -27 6 -31
-33z m52 7 c0 -2 -7 -6 -15 -10 -8 -3 -15 -1 -15 4 0 6 7 10 15 10 8 0 15 -2
15 -4z m350 -15 c0 -11 -4 -23 -10 -26 -6 -4 -10 5 -10 19 0 14 5 26 10 26 6
0 10 -9 10 -19z m-33 -213 c-4 -46 -7 -98 -7 -115 l0 -33 -55 0 -55 0 0 74 c0
51 4 77 14 85 8 6 19 25 26 41 10 25 18 30 48 30 l35 0 -6 -82z m-97 53 c0 -6
-4 -13 -10 -16 -5 -3 -10 1 -10 9 0 9 5 16 10 16 6 0 10 -4 10 -9z m90 -280
l0 -59 -55 -4 -55 -3 0 63 0 62 55 0 55 0 0 -59z"/>
<path d="M495 170 c-3 -5 -3 -16 2 -22 4 -7 6 -23 4 -35 -1 -13 2 -23 7 -23
14 0 35 57 28 75 -6 17 -32 20 -41 5z"/>
<path d="M1154 155 c-4 -9 -2 -21 4 -27 15 -15 44 -1 40 19 -4 23 -36 29 -44
8z"/>
</g>
</svg>
