<?xml version="1.0" standalone="no"?>
<!DOCTYPE svg PUBLIC "-//W3C//DTD SVG 20010904//EN"
 "http://www.w3.org/TR/2001/REC-SVG-20010904/DTD/svg10.dtd">
<svg version="1.0" xmlns="http://www.w3.org/2000/svg"
 width="93.000000pt" height="120.000000pt" viewBox="0 0 93.000000 120.000000"
 preserveAspectRatio="xMidYMid meet">
<metadata>
Created by potrace 1.16, written by Peter Selinger 2001-2019
</metadata>
<g transform="translate(0.000000,120.000000) scale(0.100000,-0.100000)"
fill="#000000" stroke="none">
<path d="M407 1163 c-4 -3 -7 -29 -7 -56 l0 -49 -160 6 c-143 6 -160 5 -160
-9 0 -9 -10 -26 -22 -38 -22 -21 -23 -28 -20 -150 2 -74 7 -125 13 -121 5 3 9
23 9 44 0 58 8 70 46 70 34 0 34 -1 34 -45 0 -60 18 -58 22 3 l3 47 40 3 c22
2 77 1 123 -3 l82 -7 0 -44 c0 -24 4 -44 9 -44 5 0 12 48 16 108 3 59 13 145
20 191 8 46 12 88 9 92 -6 11 -48 12 -57 2z m33 -59 c0 -21 -4 -33 -10 -29 -5
3 -10 19 -10 36 0 16 5 29 10 29 6 0 10 -16 10 -36z m-305 -64 c-27 -12 -35
-12 -35 0 0 6 12 10 28 9 24 0 25 -1 7 -9z m280 -65 c11 -99 15 -96 -126 -91
-66 3 -123 6 -125 9 -2 2 3 28 10 58 13 49 13 55 -2 64 -24 14 27 22 145 24
l91 1 7 -65z m-272 33 c-4 -7 -6 -37 -4 -66 l3 -54 -29 4 c-27 3 -28 5 -27 57
2 55 12 71 47 71 12 0 16 -4 10 -12z m-79 -45 c-10 -40 -14 -41 -14 -5 0 18 5
32 10 32 6 0 8 -11 4 -27z"/>
<path d="M480 1144 c-8 -21 -7 -31 6 -45 10 -11 21 -19 27 -19 12 0 157 -103
180 -127 17 -19 15 -21 -40 -58 -113 -75 -129 -85 -137 -85 -9 0 -3 116 10
198 6 40 6 42 -19 42 l-26 0 5 -97 c2 -54 6 -112 9 -129 3 -27 -1 -33 -31 -47
-37 -18 -42 -33 -20 -62 13 -18 17 -16 68 36 30 31 92 84 139 118 46 35 83 65
82 68 -1 2 -56 56 -122 120 l-121 115 -10 -28z m72 -57 c8 -15 4 -15 -25 5
-20 13 -33 28 -30 36 4 10 10 9 25 -5 11 -10 24 -26 30 -36z m-45 -79 c-3 -8
-6 -5 -6 6 -1 11 2 17 5 13 3 -3 4 -12 1 -19z m-19 -255 c-15 -15 -30 -24 -34
-20 -7 7 35 46 51 47 5 0 -3 -12 -17 -27z"/>
<path d="M823 860 c1 -22 5 -40 9 -40 11 0 21 47 14 65 -11 29 -25 14 -23 -25z"/>
<path d="M473 504 c-14 -31 -9 -44 16 -44 19 0 220 -118 254 -148 17 -15 17
-17 -5 -34 -13 -10 -26 -18 -30 -18 -4 0 -36 -18 -70 -40 -35 -22 -65 -35 -66
-30 -2 6 3 30 11 54 8 24 13 54 10 68 -3 14 0 29 6 32 6 4 11 16 11 27 0 15
-7 19 -31 19 -30 0 -31 -1 -24 -39 4 -22 2 -42 -3 -45 -6 -3 -7 -34 -5 -70 5
-57 3 -65 -14 -75 -11 -5 -22 -8 -25 -6 -9 9 13 190 27 218 8 17 13 32 11 34
-2 2 -21 -3 -41 -11 -31 -13 -36 -20 -32 -38 14 -59 19 -123 12 -173 -5 -47
-10 -56 -36 -67 -23 -10 -29 -19 -29 -45 0 -17 4 -34 9 -37 5 -3 28 11 52 32
80 69 133 108 222 165 48 32 87 59 87 61 0 2 -51 42 -112 89 -62 47 -126 99
-142 116 -36 38 -47 39 -63 5z m58 -23 c13 -11 21 -22 17 -26 -8 -8 -58 23
-58 36 0 14 16 10 41 -10z m-21 -121 c0 -5 -5 -10 -11 -10 -5 0 -7 5 -4 10 3
6 8 10 11 10 2 0 4 -4 4 -10z m-16 -251 c-23 -26 -54 -43 -54 -30 0 8 58 50
69 51 2 0 -4 -9 -15 -21z"/>
<path d="M396 462 c-3 -2 -2 -26 1 -52 l6 -48 -64 5 c-35 3 -95 11 -134 19
-89 18 -92 18 -98 -5 -3 -11 -17 -22 -37 -26 -29 -6 -32 -10 -26 -37 3 -17 6
-64 6 -104 0 -43 4 -74 10 -74 6 0 10 11 10 25 0 20 5 25 25 25 21 0 25 -5 25
-30 0 -16 5 -30 10 -30 6 0 10 14 10 30 l0 30 114 0 c66 0 117 4 121 10 4 6
-37 10 -114 10 l-121 0 0 51 c0 31 -4 48 -10 44 -5 -3 -10 -26 -10 -51 0 -40
-2 -44 -25 -44 -29 0 -29 1 -13 70 8 33 18 54 30 59 16 6 84 7 226 3 l62 -2 0
-95 c0 -57 4 -95 10 -95 6 0 10 13 10 28 0 16 9 78 20 138 26 142 26 141 -10
146 -17 3 -32 3 -34 0z m43 -39 c-1 -10 -5 -31 -9 -48 -7 -27 -8 -25 -9 18 0
26 4 47 9 47 6 0 9 -8 9 -17z m-274 -53 c3 -5 -3 -10 -14 -10 -12 0 -21 5 -21
10 0 6 6 10 14 10 8 0 18 -4 21 -10z m-91 -55 c-4 -8 -8 -15 -10 -15 -2 0 -4
7 -4 15 0 8 4 15 10 15 5 0 7 -7 4 -15z"/>
<path d="M826 163 c-12 -12 -6 -33 9 -33 8 0 15 6 15 14 0 17 -14 28 -24 19z"/>
</g>
</svg>
