<?xml version="1.0" standalone="no"?>
<!DOCTYPE svg PUBLIC "-//W3C//DTD SVG 20010904//EN"
 "http://www.w3.org/TR/2001/REC-SVG-20010904/DTD/svg10.dtd">
<svg version="1.0" xmlns="http://www.w3.org/2000/svg"
 width="101.000000pt" height="141.000000pt" viewBox="0 0 101.000000 141.000000"
 preserveAspectRatio="xMidYMid meet">
<metadata>
Created by potrace 1.16, written by Peter Selinger 2001-2019
</metadata>
<g transform="translate(0.000000,141.000000) scale(0.100000,-0.100000)"
fill="#000000" stroke="none">
<path d="M883 1387 c-13 -5 -23 -18 -23 -29 0 -16 -10 -18 -117 -18 -65 0
-135 -3 -155 -6 -36 -6 -38 -5 -38 21 0 17 -5 25 -12 23 -7 -3 -13 -11 -13
-19 0 -7 -8 -15 -17 -17 -12 -2 -16 1 -12 11 3 8 0 18 -6 22 -7 4 -14 -2 -17
-14 -3 -12 -9 -21 -13 -21 -4 0 -10 9 -13 21 -6 23 -27 17 -27 -7 0 -8 -4 -14
-10 -14 -5 0 -10 11 -10 25 0 14 -4 25 -10 25 -5 0 -10 -12 -10 -26 l0 -27
-92 7 c-51 4 -103 10 -116 13 -18 4 -25 1 -29 -16 -4 -15 -11 -20 -23 -16 -23
7 -35 -12 -20 -30 9 -11 11 -63 8 -195 -2 -98 -7 -182 -11 -186 -3 -4 -13 -1
-22 6 -19 16 -22 14 -30 -34 l-8 -38 34 8 c19 4 66 6 106 5 l71 -2 7 88 c12
151 27 188 83 199 32 7 34 6 30 -22 -2 -16 2 -31 7 -34 6 -3 11 12 13 33 4 47
32 53 32 6 0 -17 4 -28 10 -24 6 3 10 17 10 31 0 15 6 24 15 24 9 0 15 -10 15
-26 0 -14 4 -23 10 -19 6 3 10 15 10 26 0 10 5 19 10 19 6 0 10 -11 10 -24 0
-14 5 -28 10 -31 6 -4 10 7 10 24 l0 31 148 2 c81 1 161 2 177 2 l30 1 6 83
c4 46 11 88 18 95 12 12 15 44 4 50 -5 3 -18 0 -30 -6z m-505 -129 l-3 -62
-48 3 c-46 2 -48 1 -45 -21 2 -17 -2 -24 -19 -26 -21 -3 -23 -9 -23 -65 0 -34
-3 -92 -7 -129 l-6 -68 -50 0 -49 0 4 178 c5 221 9 234 88 243 30 3 79 6 108
7 l53 2 -3 -62z m42 -8 c0 -59 -2 -68 -16 -63 -8 3 -13 12 -10 20 3 8 6 37 6
64 0 27 5 49 10 49 6 0 10 -30 10 -70z m50 -1 c0 -52 -3 -70 -12 -67 -13 5
-24 99 -14 124 14 36 26 9 26 -57z m48 21 c-1 -28 1 -51 7 -52 6 -2 11 18 13
45 l3 47 162 -2 161 -3 -3 -55 c-1 -30 -3 -56 -4 -56 -1 -1 -84 -4 -184 -7
l-183 -5 0 63 c0 57 4 69 28 74 2 1 2 -21 0 -49z"/>
<path d="M970 1115 c-7 -8 -8 -20 -4 -27 5 -7 7 -21 6 -30 -6 -35 27 -19 34
16 9 51 -10 73 -36 41z"/>
<path d="M385 626 c-12 -9 -13 -18 -5 -46 5 -19 6 -38 2 -42 -5 -5 -40 -4 -78
2 -94 13 -101 13 -107 -8 -2 -12 -17 -22 -37 -25 -26 -6 -31 -10 -25 -24 24
-55 28 -263 8 -367 l-5 -28 73 7 c41 4 107 7 147 7 52 0 72 3 69 11 -2 7 -22
13 -45 15 -40 3 -42 4 -42 37 0 51 21 188 32 205 6 10 8 5 4 -17 -7 -42 12
-44 21 -2 4 22 8 27 14 17 7 -11 11 -10 20 2 8 12 12 12 16 2 4 -10 8 -10 19
-1 11 9 14 7 14 -9 0 -29 18 -37 22 -10 3 23 6 23 151 26 144 2 147 2 147 -19
0 -12 5 -19 13 -17 7 3 15 31 19 67 4 34 16 82 27 105 12 23 21 45 21 49 0 14
-24 6 -56 -18 -32 -24 -39 -25 -165 -24 l-131 1 6 31 c3 18 8 43 12 58 l6 25
-77 0 c-41 1 -82 -4 -90 -10z m36 -99 c-8 -8 -11 -2 -11 19 0 40 14 54 18 19
2 -15 -1 -32 -7 -38z m89 29 c0 -14 -4 -28 -10 -31 -6 -4 -10 7 -10 24 0 17 5
31 10 31 6 0 10 -11 10 -24z m-48 -28 c-9 -9 -12 -7 -12 12 0 19 3 21 12 12 9
-9 9 -15 0 -24z m-84 -71 l3 -47 -80 0 c-92 0 -111 5 -111 30 0 39 32 59 100
63 88 4 85 6 88 -46z m42 6 c0 -21 -5 -45 -10 -53 -7 -11 -10 0 -10 38 0 28 5
52 10 52 6 0 10 -17 10 -37z m31 -40 c-8 -15 -10 -10 -11 23 0 22 3 44 8 48
11 12 14 -52 3 -71z m45 61 c-3 -9 -6 -29 -6 -45 0 -16 -3 -29 -8 -29 -4 0 -6
20 -4 45 2 25 9 45 14 45 6 0 7 -7 4 -16z m304 -34 l0 -50 -145 0 -145 0 0 28
c0 15 3 37 6 50 6 21 10 22 145 22 l139 0 0 -50z m-470 -76 c-13 -4 -15 -23
-12 -115 3 -61 0 -115 -5 -120 -5 -5 -39 -6 -76 -2 l-67 6 6 106 c4 58 8 108
10 110 7 7 78 19 119 19 22 0 33 -2 25 -4z"/>
</g>
</svg>
