<?xml version="1.0" standalone="no"?>
<!DOCTYPE svg PUBLIC "-//W3C//DTD SVG 20010904//EN"
 "http://www.w3.org/TR/2001/REC-SVG-20010904/DTD/svg10.dtd">
<svg version="1.0" xmlns="http://www.w3.org/2000/svg"
 width="109.000000pt" height="94.000000pt" viewBox="0 0 109.000000 94.000000"
 preserveAspectRatio="xMidYMid meet">
<metadata>
Created by potrace 1.16, written by Peter Selinger 2001-2019
</metadata>
<g transform="translate(0.000000,94.000000) scale(0.100000,-0.100000)"
fill="#000000" stroke="none">
<path d="M201 878 c-28 -29 -27 -36 15 -79 l36 -37 -17 -33 c-24 -47 -144
-226 -161 -240 -20 -17 -17 -32 12 -60 20 -19 128 -171 142 -200 1 -3 -32 -40
-74 -81 -42 -41 -75 -81 -72 -88 2 -8 30 13 74 56 38 38 104 100 145 138 70
63 75 71 65 92 -14 31 -34 30 -48 -1 -6 -14 -14 -25 -17 -25 -7 1 -80 125
-112 193 l-23 47 21 44 c22 44 79 116 93 116 4 0 29 -27 55 -61 51 -65 47 -64
129 -43 22 5 26 3 26 -15 0 -31 20 -25 21 7 l1 27 7 -30 c7 -35 28 -32 23 3
-2 15 1 21 7 17 6 -3 11 -13 11 -21 0 -8 5 -12 10 -9 6 4 8 10 5 15 -3 5 -1
11 5 15 5 3 10 -3 10 -14 0 -25 17 -28 22 -5 5 24 316 21 333 -3 11 -14 14
-14 33 3 27 23 27 30 3 37 -17 4 -18 12 -14 68 3 35 12 77 20 93 20 39 5 52
-36 29 -25 -14 -30 -23 -26 -40 l5 -23 -165 0 -166 0 3 36 c2 23 -2 39 -9 41
-9 3 -13 -8 -13 -36 0 -23 -5 -41 -11 -41 -7 0 -8 11 -4 30 6 25 3 31 -17 39
-32 12 -38 6 -31 -34 4 -23 2 -35 -6 -35 -6 0 -11 16 -11 36 0 24 -4 34 -12
32 -8 -3 -12 -18 -10 -40 l3 -35 -53 4 c-29 2 -68 8 -85 13 -19 5 -35 5 -39
-1 -12 -20 -24 -6 -45 51 -12 33 -25 63 -30 66 -4 2 -17 -6 -28 -18z m33 -44
c10 -25 -1 -29 -14 -5 -6 12 -7 21 -1 21 5 0 12 -7 15 -16z m313 -56 c-3 -7
-5 -2 -5 12 0 14 2 19 5 13 2 -7 2 -19 0 -25z m410 10 c-3 -8 -6 -5 -6 6 -1
11 2 17 5 13 3 -3 4 -12 1 -19z m-617 -32 c0 -3 -4 -8 -10 -11 -5 -3 -10 -1
-10 4 0 6 5 11 10 11 6 0 10 -2 10 -4z m145 -55 l5 -43 -42 4 c-37 2 -43 0
-48 -21 -5 -22 -7 -21 -43 24 -20 27 -37 52 -37 56 0 10 130 29 157 24 1 -1 5
-20 8 -44z m94 -3 c-2 -52 -2 -53 -8 -13 -4 22 -5 46 -3 53 8 25 12 11 11 -40z
m359 -7 l3 -54 -162 6 c-178 6 -179 6 -179 70 l0 38 168 -3 167 -3 3 -54z
m-418 3 c0 -27 -4 -43 -10 -39 -5 3 -10 24 -10 46 0 21 5 39 10 39 6 0 10 -21
10 -46z m27 -16 c-2 -13 -4 -3 -4 22 0 25 2 35 4 23 2 -13 2 -33 0 -45z m-384
-188 c14 -16 42 -58 63 -92 20 -35 44 -71 51 -80 16 -17 8 -43 -20 -66 -11
-10 -20 -2 -47 41 -18 28 -41 65 -52 80 -37 53 -57 110 -47 129 13 25 23 23
52 -12z"/>
</g>
</svg>
