<?xml version="1.0" standalone="no"?>
<!DOCTYPE svg PUBLIC "-//W3C//DTD SVG 20010904//EN"
 "http://www.w3.org/TR/2001/REC-SVG-20010904/DTD/svg10.dtd">
<svg version="1.0" xmlns="http://www.w3.org/2000/svg"
 width="95.000000pt" height="165.000000pt" viewBox="0 0 95.000000 165.000000"
 preserveAspectRatio="xMidYMid meet">
<metadata>
Created by potrace 1.16, written by Peter Selinger 2001-2019
</metadata>
<g transform="translate(0.000000,165.000000) scale(0.100000,-0.100000)"
fill="#000000" stroke="none">
<path d="M168 1643 c6 -2 18 -2 25 0 6 3 1 5 -13 5 -14 0 -19 -2 -12 -5z"/>
<path d="M337 1643 c18 -2 50 -2 70 0 21 2 7 4 -32 4 -38 0 -55 -2 -38 -4z"/>
<path d="M883 1643 c15 -2 37 -2 50 0 12 2 0 4 -28 4 -27 0 -38 -2 -22 -4z"/>
<path d="M643 1583 c-26 -21 -71 -53 -98 -72 -28 -19 -51 -35 -53 -37 -2 -1 2
-11 9 -22 12 -18 16 -16 73 43 34 34 79 76 101 93 22 18 34 32 28 32 -6 0 -33
-17 -60 -37z"/>
<path d="M714 1577 c-27 -24 -73 -60 -102 -81 -43 -31 -50 -41 -41 -52 10 -12
22 -5 73 44 34 31 78 72 99 89 22 17 35 33 30 36 -5 3 -32 -13 -59 -36z"/>
<path d="M575 1586 c-17 -13 -55 -40 -85 -60 l-54 -38 -151 7 c-82 3 -168 10
-190 15 -22 5 -40 8 -41 7 -7 -10 -11 -77 -5 -77 5 0 24 6 42 14 47 20 340 27
354 9 8 -10 29 5 89 62 78 75 99 106 41 61z m-485 -106 c0 -5 -4 -10 -10 -10
-5 0 -10 5 -10 10 0 6 5 10 10 10 6 0 10 -4 10 -10z"/>
<path d="M696 1497 c-85 -68 -95 -88 -71 -142 7 -16 21 -60 30 -97 10 -38 21
-68 26 -68 13 0 11 11 -11 92 -11 40 -19 92 -18 116 2 41 6 46 70 94 61 45 82
69 61 68 -5 -1 -44 -29 -87 -63z"/>
<path d="M442 1384 c-22 -15 -22 -15 -3 -40 11 -14 27 -60 37 -102 17 -78 27
-101 38 -84 3 5 -3 40 -14 78 -11 38 -20 90 -20 116 0 52 -4 56 -38 32z"/>
<path d="M563 1385 c-17 -18 -17 -35 0 -35 11 0 32 -46 68 -152 7 -21 17 -38
21 -38 12 0 10 10 -22 98 -16 46 -30 96 -30 112 0 32 -17 39 -37 15z"/>
<path d="M508 1379 c-23 -13 -23 -27 1 -47 11 -10 29 -50 42 -89 12 -40 26
-73 30 -73 13 0 11 9 -16 90 -14 40 -25 86 -25 102 0 30 -5 33 -32 17z"/>
<path d="M46 1319 c-4 -23 -5 -44 -2 -46 2 -2 26 3 52 12 35 12 87 16 191 17
79 0 146 4 148 8 9 14 -25 18 -155 19 -77 1 -144 7 -174 16 -27 8 -50 15 -52
15 -1 0 -4 -19 -8 -41z m52 -10 c-19 -13 -28 -11 -28 5 0 9 7 12 21 9 16 -4
17 -8 7 -14z"/>
<path d="M799 1278 c-1 -2 -3 -20 -4 -40 -2 -39 17 -53 29 -22 11 29 7 64 -9
64 -8 0 -16 -1 -16 -2z"/>
<path d="M665 981 c-10 -17 -157 -82 -214 -95 l-56 -13 4 -54 c3 -45 9 -60 41
-96 20 -24 52 -72 71 -108 35 -69 38 -72 56 -54 12 12 -16 79 -60 142 -10 16
-17 30 -14 33 7 7 37 -38 73 -108 16 -32 32 -58 37 -58 12 0 8 18 -15 57 -69
122 -88 163 -71 163 4 0 28 -38 52 -85 24 -47 48 -85 53 -85 10 0 11 27 1 32
-13 5 -52 87 -59 123 -6 34 -6 34 65 70 40 19 70 39 67 44 -7 10 -217 -94
-233 -116 -7 -9 -13 -12 -13 -6 0 6 7 17 16 24 23 19 171 106 216 127 21 9 38
23 38 30 0 14 -12 16 -25 3 -6 -4 -46 -28 -90 -51 -44 -24 -99 -53 -122 -66
-24 -13 -43 -20 -43 -16 0 12 89 67 178 111 45 23 82 46 82 51 0 13 -27 13
-35 1z m-177 -286 c-3 -3 -9 2 -12 12 -6 14 -5 15 5 6 7 -7 10 -15 7 -18z m30
-51 c-4 -3 -12 5 -18 18 -12 22 -12 22 6 6 10 -10 15 -20 12 -24z"/>
<path d="M60 839 c0 -22 2 -39 4 -39 2 0 17 7 32 15 21 11 63 15 157 15 70 0
127 4 127 8 0 5 -53 12 -117 16 -65 4 -137 11 -160 15 l-43 8 0 -38z"/>
<path d="M50 693 c0 -18 2 -33 4 -33 2 0 23 7 47 16 24 8 92 18 152 21 68 4
107 10 107 17 0 8 -49 11 -155 11 l-155 0 0 -32z m40 7 c0 -5 -4 -10 -10 -10
-5 0 -10 5 -10 10 0 6 5 10 10 10 6 0 10 -4 10 -10z"/>
<path d="M380 712 c0 -10 10 -24 23 -31 13 -7 45 -48 72 -92 28 -43 54 -79 58
-79 15 0 2 25 -63 123 -63 93 -90 117 -90 79z"/>
<path d="M753 628 c4 -41 18 -48 34 -18 14 29 7 50 -18 50 -16 0 -19 -6 -16
-32z"/>
<path d="M645 358 c-49 -22 -118 -48 -152 -57 -35 -10 -66 -20 -69 -24 -14
-14 -259 -7 -310 8 -54 16 -61 13 -66 -30 -2 -25 0 -30 17 -28 11 2 49 7 85
11 36 5 110 9 165 8 90 -1 100 -3 103 -20 2 -11 9 -24 16 -30 26 -26 225 -111
234 -101 2 2 -14 12 -37 22 -22 10 -41 21 -41 25 0 16 39 7 105 -23 37 -16 70
-28 73 -25 7 7 10 5 -63 40 -33 16 -55 31 -48 33 6 2 32 -6 57 -17 25 -12 51
-20 58 -17 8 3 1 9 -15 16 -16 6 -38 18 -49 25 -19 14 -18 16 31 40 28 15 51
31 51 36 0 14 -4 13 -70 -20 l-59 -30 -41 21 c-48 25 -43 37 29 63 28 10 51
22 51 27 0 18 -16 12 -144 -53 -10 -6 -40 -18 -65 -29 l-46 -19 37 33 c31 28
162 94 251 126 27 11 38 31 15 30 -7 0 -53 -18 -103 -41z m-540 -98 c-3 -5
-13 -10 -21 -10 -8 0 -12 5 -9 10 3 6 13 10 21 10 8 0 12 -4 9 -10z m365 6 c0
-3 -4 -8 -10 -11 -5 -3 -10 -1 -10 4 0 6 5 11 10 11 6 0 10 -2 10 -4z m90 -46
c0 -5 -7 -7 -15 -4 -8 4 -12 10 -9 15 6 11 24 2 24 -11z m-45 -20 c3 -5 -3
-10 -15 -10 -12 0 -18 5 -15 10 3 6 10 10 15 10 5 0 12 -4 15 -10z m115 -12
c0 -13 -32 -6 -37 9 -3 7 3 9 16 6 12 -3 21 -10 21 -15z m-66 -4 c26 -10 18
-24 -14 -24 -30 0 -41 14 -17 23 6 3 13 6 14 6 1 1 8 -2 17 -5z"/>
<path d="M673 270 c-19 -8 -33 -30 -18 -30 12 0 55 24 55 32 0 10 -8 9 -37 -2z"/>
<path d="M410 144 l-10 -26 -148 5 c-81 2 -156 8 -167 11 -16 6 -22 1 -31 -29
-6 -19 -8 -37 -4 -40 3 -2 26 3 50 11 29 10 100 17 214 20 l171 5 110 -36
c120 -38 125 -39 125 -27 0 5 -44 24 -97 42 -54 18 -122 46 -151 61 l-52 29
-10 -26z m-307 -41 c-7 -2 -19 -2 -25 0 -7 3 -2 5 12 5 14 0 19 -2 13 -5z"/>
<path d="M795 110 c-8 -14 3 -30 21 -30 8 0 14 9 14 20 0 21 -24 28 -35 10z"/>
<path d="M18 3 c12 -2 30 -2 40 0 9 3 -1 5 -23 4 -22 0 -30 -2 -17 -4z"/>
<path d="M178 3 c7 -3 16 -2 19 1 4 3 -2 6 -13 5 -11 0 -14 -3 -6 -6z"/>
<path d="M238 3 c7 -3 16 -2 19 1 4 3 -2 6 -13 5 -11 0 -14 -3 -6 -6z"/>
</g>
</svg>
