<?xml version="1.0" standalone="no"?>
<!DOCTYPE svg PUBLIC "-//W3C//DTD SVG 20010904//EN"
 "http://www.w3.org/TR/2001/REC-SVG-20010904/DTD/svg10.dtd">
<svg version="1.0" xmlns="http://www.w3.org/2000/svg"
 width="122.000000pt" height="72.000000pt" viewBox="0 0 122.000000 72.000000"
 preserveAspectRatio="xMidYMid meet">
<metadata>
Created by potrace 1.16, written by Peter Selinger 2001-2019
</metadata>
<g transform="translate(0.000000,72.000000) scale(0.100000,-0.100000)"
fill="#000000" stroke="none">
<path d="M1138 687 c-21 -10 -38 -26 -38 -34 0 -14 -18 -15 -142 -10 -79 3
-152 8 -163 12 -16 5 -24 -2 -39 -30 -11 -19 -17 -37 -14 -40 2 -3 38 2 79 9
41 8 121 17 178 21 116 6 121 4 121 -55 l0 -35 -55 3 c-50 4 -55 6 -50 23 5
14 2 19 -12 19 -24 0 -48 -16 -48 -32 0 -13 -92 -18 -164 -8 -31 5 -35 2 -42
-24 -5 -16 -6 -32 -4 -36 2 -3 44 2 92 12 144 29 133 38 133 -101 l0 -119 -32
-6 c-18 -3 -42 -4 -53 -1 -11 2 -32 4 -47 4 -33 1 -36 19 -9 52 l19 24 24 -22
c37 -35 57 -28 23 8 l-30 30 40 34 c47 39 41 59 -7 23 -57 -42 -56 -42 -80 6
-12 26 -27 46 -32 46 -11 -1 -76 -56 -76 -65 0 -3 8 -5 19 -5 31 0 92 -30 85
-41 -4 -6 -27 -20 -52 -31 l-45 -20 31 -24 c19 -15 29 -30 25 -39 -3 -8 -3
-22 1 -30 4 -12 10 -13 43 -1 21 7 64 16 96 20 l58 8 -3 -49 -3 -48 -75 0
c-41 0 -96 3 -121 7 l-46 7 2 -37 c1 -26 6 -36 16 -33 8 2 30 7 49 12 19 5 99
12 177 16 78 3 147 10 154 14 10 6 15 64 20 212 7 194 19 299 41 341 15 28 -3
34 -44 13z m12 -46 c0 -29 -15 -33 -18 -5 -1 13 3 24 8 24 6 0 10 -9 10 -19z
m-327 -18 c-7 -2 -19 -2 -25 0 -7 3 -2 5 12 5 14 0 19 -2 13 -5z m292 -330
c-6 -33 -6 -33 -66 -33 l-60 0 5 98 c3 53 5 107 5 119 1 20 7 22 59 25 l57 3
3 -90 c2 -49 0 -105 -3 -122z m-321 121 c8 -20 8 -24 -1 -24 -17 0 -35 19 -29
29 10 16 23 14 30 -5z m0 -119 c-7 -16 -24 -21 -24 -6 0 8 7 13 27 20 1 1 0
-6 -3 -14z m316 -105 l0 -50 -60 0 -60 0 0 45 0 44 58 4 c31 2 58 4 60 5 1 1
2 -20 2 -48z m-333 -76 c-3 -3 -12 -4 -19 -1 -8 3 -5 6 6 6 11 1 17 -2 13 -5z"/>
<path d="M65 662 c-3 -3 -5 -21 -5 -40 0 -30 2 -34 23 -29 68 18 174 27 262
25 l100 -3 7 -40 c7 -36 11 -211 9 -386 l-1 -66 -82 -8 c-46 -5 -135 -9 -198
-9 -113 -1 -115 -1 -118 -25 -6 -37 9 -42 73 -22 33 10 105 22 160 25 56 4
110 9 120 11 11 2 32 4 46 4 l27 1 5 248 c3 136 8 258 12 272 l6 25 -181 3
c-100 1 -199 6 -221 11 -21 5 -40 6 -44 3z m45 -32 c0 -5 -4 -10 -10 -10 -5 0
-10 5 -10 10 0 6 5 10 10 10 6 0 10 -4 10 -10z m367 -37 c-3 -10 -5 -4 -5 12
0 17 2 24 5 18 2 -7 2 -21 0 -30z"/>
<path d="M60 509 c0 -36 9 -41 51 -29 19 6 73 13 120 17 l86 6 6 -33 c4 -18 7
-77 7 -130 l0 -98 -66 -7 c-36 -4 -95 -5 -130 -1 l-64 7 0 -37 c0 -41 -6 -40
96 -10 29 8 79 16 113 19 34 2 63 6 65 8 3 2 7 47 10 99 3 52 12 119 19 148
11 39 11 55 3 57 -6 2 -80 5 -163 7 l-153 4 0 -27z m294 -24 c-4 -8 -8 -15
-10 -15 -2 0 -4 7 -4 15 0 8 4 15 10 15 5 0 7 -7 4 -15z m-231 -282 c-7 -2
-19 -2 -25 0 -7 3 -2 5 12 5 14 0 19 -2 13 -5z"/>
<path d="M127 415 c-15 -19 -27 -37 -27 -40 0 -3 14 -11 30 -16 37 -13 38 -26
5 -41 -30 -14 -31 -20 -4 -44 22 -19 23 -19 50 30 10 17 12 17 38 -8 36 -35
49 -20 14 16 l-27 29 28 23 c18 14 25 25 18 30 -6 3 -13 2 -17 -4 -3 -5 -15
-14 -25 -20 -16 -8 -20 -5 -30 28 -18 54 -22 55 -53 17z m37 -31 c4 -10 1 -14
-6 -12 -15 5 -23 28 -10 28 5 0 13 -7 16 -16z"/>
<path d="M559 218 c-1 -7 0 -17 1 -23 2 -5 2 -20 2 -32 -1 -13 3 -23 8 -23 14
0 32 38 28 63 -3 24 -37 37 -39 15z"/>
<path d="M1200 205 c0 -14 5 -25 10 -25 6 0 10 11 10 25 0 14 -4 25 -10 25 -5
0 -10 -11 -10 -25z"/>
<path d="M678 25 c-2 -3 -119 -5 -259 -6 -139 -1 -290 -5 -334 -9 -44 -4 193
-8 528 -8 538 -2 607 0 607 13 0 14 -34 15 -269 15 -148 -1 -271 -3 -273 -5z"/>
</g>
</svg>
