<?xml version="1.0" standalone="no"?>
<!DOCTYPE svg PUBLIC "-//W3C//DTD SVG 20010904//EN"
 "http://www.w3.org/TR/2001/REC-SVG-20010904/DTD/svg10.dtd">
<svg version="1.0" xmlns="http://www.w3.org/2000/svg"
 width="97.000000pt" height="66.000000pt" viewBox="0 0 97.000000 66.000000"
 preserveAspectRatio="xMidYMid meet">
<metadata>
Created by potrace 1.16, written by Peter Selinger 2001-2019
</metadata>
<g transform="translate(0.000000,66.000000) scale(0.100000,-0.100000)"
fill="#000000" stroke="none">
<path d="M49 464 c0 -93 -2 -220 -2 -281 -1 -62 1 -113 4 -113 4 0 12 6 18 14
18 22 132 39 237 35 l96 -4 -2 159 c-1 138 2 167 21 225 12 36 26 72 32 79 18
22 -2 26 -121 24 -110 -3 -224 7 -264 23 -17 7 -18 -5 -19 -161z m106 117 c30
-7 30 -7 -12 -14 -23 -4 -48 -10 -57 -13 -12 -4 -16 0 -16 15 0 23 23 26 85
12z m265 -7 c0 -4 -5 -25 -12 -47 -10 -32 -13 -36 -19 -21 -4 11 -8 31 -8 47
-1 21 4 27 19 27 11 0 20 -3 20 -6z m-56 -50 c3 -26 6 -70 6 -98 l0 -52 -92 8
c-51 4 -103 10 -114 12 -19 5 -22 1 -27 -32 -2 -20 -2 -40 2 -44 3 -4 39 2 80
12 41 11 94 20 118 20 l43 0 0 -106 0 -107 -77 6 c-43 3 -112 17 -153 30 l-75
24 -3 158 c-1 87 1 162 6 167 12 12 186 46 238 47 l41 1 7 -46z m-149 -164
c-3 -5 -17 -10 -31 -10 -14 0 -22 4 -19 10 3 6 17 10 31 10 14 0 22 -4 19 -10z
m-86 -205 c28 -8 17 -20 -26 -30 -31 -6 -33 -5 -33 20 0 20 4 25 18 21 9 -2
28 -7 41 -11z"/>
<path d="M696 584 c-13 -40 -57 -77 -88 -76 -24 1 -28 -2 -22 -16 4 -9 9 -95
12 -190 l4 -174 -33 -34 c-41 -43 -30 -58 14 -18 77 71 175 134 289 187 26 12
48 26 48 30 0 5 -27 34 -60 65 -66 60 -109 124 -130 187 -16 50 -26 62 -34 39z
m26 -81 c10 -20 16 -39 14 -41 -4 -3 -22 7 -64 34 -5 3 22 44 28 44 3 -1 13
-17 22 -37z m-92 -33 c0 -5 -5 -10 -11 -10 -5 0 -7 5 -4 10 3 6 8 10 11 10 2
0 4 -4 4 -10z m48 1 c15 -8 17 -26 17 -140 -1 -138 -7 -155 -59 -183 -19 -10
-19 -6 -13 114 5 110 22 218 34 218 2 0 12 -4 21 -9z m117 -93 c25 -17 45 -35
45 -39 0 -8 -123 -119 -128 -115 -3 4 17 145 24 169 7 22 6 22 59 -15z m82
-74 c3 -9 -96 -68 -103 -61 -2 2 14 17 36 33 22 16 40 33 40 37 0 11 23 4 27
-9z"/>
</g>
</svg>
