<?xml version="1.0" standalone="no"?>
<!DOCTYPE svg PUBLIC "-//W3C//DTD SVG 20010904//EN"
 "http://www.w3.org/TR/2001/REC-SVG-20010904/DTD/svg10.dtd">
<svg version="1.0" xmlns="http://www.w3.org/2000/svg"
 width="90.000000pt" height="59.000000pt" viewBox="0 0 90.000000 59.000000"
 preserveAspectRatio="xMidYMid meet">
<metadata>
Created by potrace 1.16, written by Peter Selinger 2001-2019
</metadata>
<g transform="translate(0.000000,59.000000) scale(0.100000,-0.100000)"
fill="#000000" stroke="none">
<path d="M0 580 c0 -6 165 -9 450 -9 282 0 450 3 450 9 0 6 -168 10 -450 10
-285 0 -450 -4 -450 -10z"/>
<path d="M167 502 c-26 -28 -21 -40 29 -72 41 -26 114 -99 114 -114 0 -7 -127
0 -163 9 -25 7 -27 5 -27 -22 0 -40 5 -42 48 -28 49 16 142 26 142 15 0 -11
-117 -117 -152 -138 -34 -20 -34 -23 -4 -51 l24 -23 36 54 c33 49 49 70 112
140 13 15 24 31 24 35 -1 5 -19 26 -40 48 -22 22 -56 68 -76 102 -20 35 -40
63 -44 63 -4 0 -14 -8 -23 -18z m43 -55 c0 -6 -9 -2 -20 8 -11 10 -17 22 -13
28 6 10 33 -19 33 -36z m-45 -147 c3 -5 -1 -10 -9 -10 -9 0 -16 5 -16 10 0 6
4 10 9 10 6 0 13 -4 16 -10z m29 -161 c-12 -24 -18 -29 -27 -20 -9 9 -6 17 13
31 33 26 33 25 14 -11z"/>
<path d="M437 491 c-20 -35 -10 -46 30 -30 42 16 268 25 277 10 8 -12 10 -351
3 -358 -10 -9 -135 -15 -140 -6 -5 8 19 181 39 271 7 33 6 33 -27 30 l-34 -3
4 -149 4 -149 -41 5 -40 6 -4 -40 c-2 -22 0 -42 4 -44 4 -3 22 3 40 13 45 23
52 25 141 32 l77 6 5 121 c3 66 12 158 20 204 8 46 13 86 10 89 -3 2 -76 5
-163 6 -86 1 -164 5 -172 9 -11 4 -21 -3 -33 -23z m340 -63 c-2 -13 -4 -5 -4
17 -1 22 1 32 4 23 2 -10 2 -28 0 -40z m-167 -112 c-9 -8 -11 -1 -6 29 7 54 9
56 13 16 3 -18 -1 -39 -7 -45z m-40 -235 c0 -5 -7 -12 -16 -15 -22 -9 -24 -8
-24 9 0 8 9 15 20 15 11 0 20 -4 20 -9z"/>
<path d="M57 453 c-2 -1 0 -26 4 -55 4 -29 8 -101 8 -160 1 -59 5 -109 10
-112 11 -7 23 87 16 127 -4 18 1 66 9 107 9 41 16 78 16 81 0 7 -58 18 -63 12z
m34 -54 l-9 -34 -1 31 c-1 17 2 34 6 37 12 13 14 -1 4 -34z"/>
</g>
</svg>
