<?xml version="1.0" standalone="no"?>
<!DOCTYPE svg PUBLIC "-//W3C//DTD SVG 20010904//EN"
 "http://www.w3.org/TR/2001/REC-SVG-20010904/DTD/svg10.dtd">
<svg version="1.0" xmlns="http://www.w3.org/2000/svg"
 width="82.000000pt" height="137.000000pt" viewBox="0 0 82.000000 137.000000"
 preserveAspectRatio="xMidYMid meet">
<metadata>
Created by potrace 1.16, written by Peter Selinger 2001-2019
</metadata>
<g transform="translate(0.000000,137.000000) scale(0.100000,-0.100000)"
fill="#000000" stroke="none">
<path d="M443 1309 c-6 -16 -19 -29 -28 -29 -15 0 -17 -11 -13 -99 l4 -99 -43
-21 c-37 -18 -62 -21 -168 -21 -112 0 -125 -2 -126 -17 -2 -57 3 -188 8 -196
10 -16 23 17 23 58 0 22 5 56 10 76 l10 36 88 12 c48 7 97 14 110 15 13 2 22
-2 22 -10 0 -8 7 -14 15 -14 8 0 15 4 15 8 0 15 43 60 84 87 31 21 109 45 147
45 5 0 9 -13 9 -29 0 -21 -13 -41 -54 -80 -30 -28 -57 -51 -59 -51 -7 0 4 43
12 50 3 3 15 15 25 28 33 38 0 24 -50 -21 -45 -42 -52 -67 -18 -67 9 0 22 -7
30 -15 23 -22 41 -18 48 11 4 14 25 45 46 68 35 38 40 49 40 92 0 47 13 136
25 179 6 19 1 20 -67 20 -40 0 -87 3 -104 7 -27 6 -31 4 -41 -23z m167 -79 l0
-70 -60 0 c-41 0 -60 4 -60 13 0 8 18 13 51 14 47 2 68 8 58 17 -2 2 -33 6
-69 8 l-65 5 3 -42 c3 -30 -1 -47 -15 -60 -17 -18 -18 -17 -25 21 -4 24 -1 59
8 91 12 46 19 54 47 62 17 5 53 10 80 10 l47 1 0 -70z"/>
<path d="M464 1268 c-2 -3 -1 -14 2 -23 5 -12 13 -15 28 -10 11 3 40 9 64 12
23 3 42 9 42 13 0 10 -130 18 -136 8z"/>
<path d="M440 1059 c-45 -40 -52 -51 -40 -59 22 -14 30 -12 37 8 4 9 18 28 31
42 28 30 46 60 35 60 -4 -1 -33 -23 -63 -51z"/>
<path d="M690 950 c-12 -8 -13 -13 -3 -28 8 -14 9 -22 0 -31 -6 -6 -8 -14 -4
-17 12 -12 35 5 41 32 9 33 -11 58 -34 44z"/>
<path d="M454 551 c-18 -18 -21 -27 -14 -41 6 -10 10 -46 10 -80 l0 -61 -52
-24 c-29 -14 -59 -25 -65 -25 -15 0 -17 -28 -4 -48 6 -10 10 -10 21 3 7 9 39
34 70 56 l57 40 -5 52 c-7 88 4 100 92 116 42 8 78 12 80 10 2 -2 7 -14 10
-26 8 -24 -10 -30 -99 -33 -27 0 -51 -3 -53 -4 -1 -2 0 -22 4 -45 6 -38 9 -42
28 -35 12 3 45 9 74 11 48 4 53 3 50 -14 -3 -15 -14 -18 -73 -19 -58 -1 -70
-4 -69 -18 3 -69 3 -68 29 -62 20 5 23 3 18 -10 -4 -12 -2 -15 8 -12 8 3 13
10 12 17 -3 10 17 18 66 23 27 3 25 -1 35 133 3 44 8 89 11 100 6 19 2 20
-105 20 -104 0 -114 -2 -136 -24z m204 -88 c-3 -15 -16 -19 -71 -21 -78 -3
-88 10 -19 25 76 16 94 16 90 -4z m-8 -113 c0 -16 -6 -19 -37 -16 -77 7 -79 8
-38 21 58 19 75 18 75 -5z"/>
<path d="M427 305 c-60 -35 -71 -49 -53 -64 12 -10 20 -7 45 21 17 18 31 36
31 41 0 4 7 7 15 7 8 0 15 5 15 10 0 14 -9 11 -53 -15z"/>
<path d="M100 296 c0 -18 -15 -28 -44 -30 -22 -1 -23 -4 -7 -76 6 -25 10 -67
11 -93 0 -30 4 -46 10 -42 5 3 10 39 10 80 0 117 1 119 120 139 55 10 100 19
98 21 -2 1 -47 5 -100 9 -82 5 -98 4 -98 -8z"/>
<path d="M575 249 c-51 -51 -85 -76 -85 -62 0 5 14 24 31 42 40 44 31 50 -22
12 -54 -40 -64 -31 -16 14 46 43 33 45 -30 5 -52 -34 -58 -47 -28 -64 11 -6
36 -26 54 -45 20 -20 37 -29 39 -22 2 6 25 39 50 73 74 97 75 98 65 98 -5 0
-31 -23 -58 -51z"/>
<path d="M783 185 c-7 -20 2 -29 21 -22 9 4 13 13 10 22 -8 19 -23 19 -31 0z"/>
<path d="M203 3 c114 -2 300 -2 415 0 114 1 20 2 -208 2 -228 0 -322 -1 -207
-2z"/>
</g>
</svg>
