<?xml version="1.0" standalone="no"?>
<!DOCTYPE svg PUBLIC "-//W3C//DTD SVG 20010904//EN"
 "http://www.w3.org/TR/2001/REC-SVG-20010904/DTD/svg10.dtd">
<svg version="1.0" xmlns="http://www.w3.org/2000/svg"
 width="127.000000pt" height="86.000000pt" viewBox="0 0 127.000000 86.000000"
 preserveAspectRatio="xMidYMid meet">
<metadata>
Created by potrace 1.16, written by Peter Selinger 2001-2019
</metadata>
<g transform="translate(0.000000,86.000000) scale(0.100000,-0.100000)"
fill="#000000" stroke="none">
<path d="M0 846 c0 -11 72 -13 438 -9 240 3 527 8 637 13 149 5 36 7 -437 8
-534 2 -638 0 -638 -12z"/>
<path d="M762 777 c-17 -18 -32 -36 -32 -40 0 -4 11 -18 25 -30 13 -12 40 -53
60 -92 l35 -70 -32 -27 c-39 -33 -62 -36 -53 -9 10 32 -13 34 -30 2 -8 -17
-22 -34 -31 -39 -13 -7 -11 -15 15 -54 17 -25 44 -81 61 -126 l31 -80 -59 -56
c-32 -30 -70 -66 -85 -78 -15 -13 -27 -31 -27 -41 0 -9 1 -17 3 -17 1 0 61 57
132 126 122 117 218 194 243 194 28 0 19 21 -15 35 -37 16 -38 16 -53 -7 -8
-13 -39 -49 -68 -81 l-53 -58 -15 36 c-21 52 -48 170 -42 187 7 17 203 136
270 164 27 10 48 24 48 29 0 6 -14 20 -31 31 l-30 21 -72 -73 c-40 -41 -77
-74 -83 -74 -16 0 -43 85 -56 176 -7 46 -14 84 -18 83 -3 0 -20 -14 -38 -32z
m37 -72 c1 -18 0 -18 -15 3 -9 13 -13 30 -9 40 6 15 8 15 15 -3 5 -11 9 -29 9
-40z m251 -53 c0 -8 -43 -32 -57 -32 -3 0 2 9 12 20 18 20 45 27 45 12z m-300
-222 c-1 -12 -4 -11 -15 4 -8 10 -12 23 -8 29 7 11 23 -12 23 -33z m222 -92
c-7 -7 -12 -8 -12 -2 0 14 12 26 19 19 2 -3 -1 -11 -7 -17z"/>
<path d="M66 712 c-2 -4 -7 -24 -11 -44 l-7 -36 81 -1 c44 0 92 -4 107 -7 27
-7 26 -8 -47 -76 -58 -54 -79 -67 -96 -63 -19 4 -25 -1 -38 -31 -8 -20 -15
-37 -15 -39 0 -1 47 -2 105 -2 58 0 108 -3 112 -7 10 -9 -54 -72 -115 -112
-48 -32 -65 -54 -43 -54 5 0 47 24 95 54 47 29 97 57 111 60 21 5 25 12 25 46
0 40 -16 62 -30 40 -9 -15 -80 -8 -132 13 l-33 14 48 34 c27 19 69 46 95 61
41 23 47 30 45 58 -2 41 -8 46 -36 31 -20 -10 -34 -9 -87 9 -35 12 -76 30 -91
41 -30 21 -36 23 -43 11z m54 -48 c0 -2 -9 -4 -21 -4 -11 0 -18 4 -14 10 5 8
35 3 35 -6z m180 -58 c0 -3 -15 -15 -32 -27 l-33 -23 24 27 c22 24 41 35 41
23z m-180 -162 c0 -2 -9 -4 -20 -4 -11 0 -20 4 -20 9 0 5 9 7 20 4 11 -3 20
-7 20 -9z m176 -70 c-30 -21 -44 -16 -17 7 13 11 27 17 30 13 3 -3 -3 -12 -13
-20z"/>
<path d="M509 338 c-1 -7 0 -17 1 -23 2 -5 2 -20 1 -33 -1 -17 4 -23 16 -20
18 3 32 42 25 71 -5 19 -41 24 -43 5z"/>
<path d="M1114 305 c-7 -18 3 -35 22 -35 20 0 30 30 13 41 -20 12 -29 11 -35
-6z"/>
</g>
</svg>
