<?xml version="1.0" standalone="no"?>
<!DOCTYPE svg PUBLIC "-//W3C//DTD SVG 20010904//EN"
 "http://www.w3.org/TR/2001/REC-SVG-20010904/DTD/svg10.dtd">
<svg version="1.0" xmlns="http://www.w3.org/2000/svg"
 width="144.000000pt" height="361.000000pt" viewBox="0 0 144.000000 361.000000"
 preserveAspectRatio="xMidYMid meet">
<metadata>
Created by potrace 1.16, written by Peter Selinger 2001-2019
</metadata>
<g transform="translate(0.000000,361.000000) scale(0.100000,-0.100000)"
fill="#000000" stroke="none">
<path d="M1 3605 c7 -7 1430 -8 1437 -1 3 3 -320 6 -718 6 -398 0 -721 -2
-719 -5z"/>
<path d="M735 3529 c-5 -15 -2 -25 7 -30 8 -5 26 -18 39 -29 l24 -21 -45 6
c-40 6 -48 3 -69 -19 -14 -14 -29 -26 -34 -26 -5 0 -31 -18 -58 -41 -57 -47
-53 -48 -149 39 -52 47 -56 49 -66 30 -6 -10 -21 -25 -35 -32 -14 -7 -23 -20
-23 -32 6 -74 27 -220 34 -227 4 -5 39 21 76 58 112 110 101 108 195 31 83
-68 93 -73 104 -56 3 6 18 10 33 10 24 -1 21 -4 -21 -26 -44 -23 -48 -28 -42
-52 4 -15 9 -29 11 -31 3 -4 80 64 114 100 3 3 25 19 50 36 25 17 59 43 75 57
30 26 60 37 37 14 -20 -20 -14 -27 36 -41 41 -13 47 -17 47 -42 1 -16 6 -30
13 -33 7 -2 12 6 12 22 0 32 8 32 71 1 27 -14 54 -23 58 -20 5 2 9 37 10 77 2
79 4 117 16 222 l8 69 -24 -6 c-13 -4 -29 -7 -35 -7 -8 0 -9 -11 -4 -37 4 -21
10 -51 13 -68 l6 -30 -51 4 c-51 3 -73 -6 -60 -25 5 -7 25 -9 60 -4 l52 6 0
-41 c0 -23 -3 -63 -6 -88 -6 -42 -8 -45 -26 -36 -19 10 -19 11 -1 25 17 14 15
15 -17 11 -52 -7 -70 7 -70 53 0 21 -4 42 -10 45 -6 4 -10 -8 -10 -30 l0 -36
-43 25 -44 24 -73 -54 c-40 -30 -77 -54 -81 -54 -12 0 -11 181 0 199 7 11 22
5 71 -32 34 -26 69 -47 78 -47 10 0 45 22 80 49 35 27 76 54 93 61 16 7 29 19
29 27 0 11 -11 8 -47 -11 -27 -14 -75 -37 -108 -50 -39 -16 -60 -30 -59 -40 2
-17 -116 76 -175 138 -40 41 -57 45 -66 15z m505 -33 c0 -8 -4 -18 -10 -21 -5
-3 -10 3 -10 14 0 12 5 21 10 21 6 0 10 -6 10 -14z m-440 -80 c0 -9 -8 -12
-25 -8 -28 5 -24 22 6 22 10 0 19 -6 19 -14z m-374 -17 c19 -22 19 -22 -3 -8
-13 8 -23 17 -23 21 0 12 6 9 26 -13z m291 -105 c4 -63 2 -94 -5 -94 -6 0 -12
3 -14 8 -1 4 -28 27 -58 51 -30 25 -59 48 -63 52 -5 4 20 30 54 58 76 61 78
59 86 -75z m-270 65 c77 -42 81 -46 57 -64 -22 -18 -133 -85 -140 -85 -2 0 -4
19 -4 43 l1 42 14 -30 c13 -29 13 -29 14 33 1 40 -3 61 -9 57 -11 -7 -14 18
-3 28 9 9 5 11 70 -24z m357 15 c9 -24 0 -31 -34 -26 -21 3 -30 10 -30 23 0
24 55 27 64 3z m216 6 c0 -5 -5 -10 -11 -10 -5 0 -7 5 -4 10 3 6 8 10 11 10 2
0 4 -4 4 -10z m-212 -62 c-3 -7 -10 -13 -16 -12 -7 1 -21 2 -32 3 -35 2 -21
21 16 21 24 0 34 -4 32 -12z m-3 -67 c1 -27 -3 -31 -27 -31 -36 0 -47 20 -11
21 l28 1 -27 10 c-43 15 -35 39 10 34 23 -3 27 -8 27 -35z m245 19 c18 -12 2
-12 -25 0 -13 6 -15 9 -5 9 8 0 22 -4 30 -9z m-310 -144 c0 -3 -4 -8 -10 -11
-5 -3 -10 -1 -10 4 0 6 5 11 10 11 6 0 10 -2 10 -4z"/>
<path d="M410 3310 c0 -27 5 -50 10 -50 6 0 10 23 10 50 0 28 -4 50 -10 50 -5
0 -10 -22 -10 -50z"/>
<path d="M99 3394 c-1 -5 -1 -17 0 -26 1 -9 -7 -19 -19 -23 -22 -7 -24 -15
-11 -65 5 -19 12 -53 16 -74 5 -29 9 -36 16 -25 6 10 9 7 9 -13 0 -39 20 -35
21 5 2 27 2 28 6 7 7 -40 23 -48 23 -12 0 18 5 32 10 32 6 0 10 -16 10 -35 0
-19 5 -35 10 -35 6 0 10 18 10 40 l0 40 57 0 c31 0 53 3 49 7 -4 4 -29 7 -56
8 -50 0 -71 18 -28 23 13 1 39 6 58 9 32 7 30 8 -25 13 -44 4 -60 9 -60 20 0
11 14 16 58 18 70 4 67 22 -4 22 -62 0 -64 23 -3 28 77 5 67 16 -21 22 -50 4
-98 10 -107 14 -10 5 -19 4 -19 0z m68 -66 c-3 -8 -6 -5 -6 6 -1 11 2 17 5 13
3 -3 4 -12 1 -19z m-80 -30 c-3 -7 -5 -2 -5 12 0 14 2 19 5 13 2 -7 2 -19 0
-25z m20 -60 c-2 -13 -4 -3 -4 22 0 25 2 35 4 23 2 -13 2 -33 0 -45z m30 40
c-3 -8 -6 -5 -6 6 -1 11 2 17 5 13 3 -3 4 -12 1 -19z m30 0 c-3 -8 -6 -5 -6 6
-1 11 2 17 5 13 3 -3 4 -12 1 -19z m-30 -50 c-3 -8 -6 -5 -6 6 -1 11 2 17 5
13 3 -3 4 -12 1 -19z m43 7 c0 -8 -4 -15 -10 -15 -5 0 -10 7 -10 15 0 8 5 15
10 15 6 0 10 -7 10 -15z"/>
<path d="M1110 3335 c0 -17 8 -18 63 -9 53 9 46 24 -13 24 -38 0 -50 -4 -50
-15z"/>
<path d="M1115 3301 c-3 -6 -4 -15 -1 -19 7 -12 91 1 91 13 0 14 -82 19 -90 6z"/>
<path d="M1335 3190 c-4 -6 -2 -17 4 -24 6 -7 9 -20 5 -29 -8 -23 14 -30 25
-8 18 33 14 71 -8 71 -11 0 -23 -5 -26 -10z"/>
<path d="M650 2865 c-14 -8 -33 -16 -43 -19 -15 -5 -17 -13 -12 -53 l6 -48
-63 -56 -64 -56 -84 78 c-47 43 -90 79 -96 79 -15 0 -26 -41 -14 -55 5 -6 5
-17 0 -24 -8 -14 -49 -12 -147 5 -26 5 -33 3 -33 -9 0 -10 -11 -17 -27 -19
-19 -2 -27 -8 -25 -18 2 -8 9 -57 15 -107 6 -51 14 -93 19 -93 4 0 8 32 8 70
0 45 4 70 11 70 6 0 9 -9 6 -20 -3 -11 -1 -20 4 -20 14 0 11 -28 -3 -32 -10
-4 -8 -9 3 -21 9 -9 20 -13 24 -9 3 4 21 7 38 8 18 1 49 2 70 3 47 1 49 21 2
21 -19 0 -35 5 -35 10 0 6 14 10 30 10 17 0 30 5 30 10 0 6 -13 10 -30 10 -40
0 -38 15 3 25 l32 8 -30 5 c-16 2 -34 10 -38 18 -14 25 -27 15 -27 -22 0 -19
-4 -33 -9 -30 -5 3 -7 15 -4 26 3 11 2 28 -2 37 -6 16 -8 15 -17 -7 l-11 -25
-6 25 c-7 24 -7 24 -18 5 -13 -23 -27 -16 -17 9 5 12 20 16 63 17 31 1 71 3
89 5 27 2 35 -2 42 -20 14 -38 15 -143 1 -160 -10 -12 -7 -17 17 -30 30 -15
30 -15 58 22 40 55 96 112 110 112 6 0 17 -6 23 -14 7 -8 36 -33 66 -56 l53
-41 51 17 c28 9 51 20 51 25 0 5 -20 9 -45 9 -25 0 -45 3 -45 8 1 28 53 50 75
32 13 -11 15 3 15 99 0 61 3 111 6 111 3 0 42 -27 85 -60 43 -33 83 -60 89
-60 24 0 6 21 -63 72 -40 30 -91 74 -114 97 -23 22 -44 41 -45 40 -2 0 -14 -7
-28 -14z m20 -61 c13 -34 13 -34 -10 -34 -16 0 -20 7 -20 30 0 37 17 39 30 4z
m24 -69 c4 -12 -3 -15 -29 -15 -39 0 -48 16 -12 23 12 2 25 5 28 6 4 0 9 -6
13 -14z m-78 -190 c-8 -23 -18 -19 -72 30 l-49 45 55 50 55 50 9 -80 c4 -44 5
-87 2 -95z m-230 133 c67 -46 75 -64 44 -89 -33 -27 -98 -69 -106 -69 -3 0 -4
43 -2 95 1 52 6 95 9 95 4 0 28 -15 55 -32z m314 5 c0 -11 -6 -14 -22 -9 -13
3 -29 6 -35 6 -30 0 -10 15 22 17 26 1 35 -3 35 -14z m0 -48 c0 -22 -4 -25
-35 -25 -29 0 -35 4 -35 21 0 11 4 17 10 14 5 -3 18 -1 27 4 27 16 33 13 33
-14z m-555 -35 c3 -5 1 -10 -4 -10 -6 0 -11 5 -11 10 0 6 2 10 4 10 3 0 8 -4
11 -10z m45 -52 c0 -4 -13 -8 -30 -8 -16 0 -30 4 -30 8 0 5 14 9 30 9 17 0 30
-4 30 -9z m154 -53 c-4 -8 -11 -15 -16 -15 -6 0 -5 6 2 15 7 8 14 15 16 15 2
0 1 -7 -2 -15z"/>
<path d="M347 2653 c-9 -8 -9 -50 -1 -80 10 -37 24 -15 24 38 0 46 -7 59 -23
42z"/>
<path d="M1151 2861 c-12 -7 -12 -17 -3 -53 6 -23 13 -54 14 -68 3 -24 1 -25
-49 -22 -70 4 -68 -15 2 -23 70 -9 72 -26 3 -23 -29 2 -54 -1 -56 -7 -1 -6 22
-11 53 -13 31 -2 55 -8 55 -14 0 -7 -18 -9 -56 -4 -43 5 -55 3 -52 -6 5 -14
10 -15 71 -17 20 0 37 -5 37 -10 0 -15 -26 -20 -64 -11 -20 4 -39 4 -42 -1 -7
-12 39 -29 77 -29 16 0 29 -5 29 -11 0 -6 -16 -9 -42 -7 -27 2 -43 -1 -45 -9
-3 -9 9 -13 41 -13 46 0 46 0 46 -35 0 -19 5 -35 10 -35 6 0 10 16 10 36 0 34
2 36 27 31 15 -3 33 -3 40 0 23 9 3 23 -33 23 -38 0 -46 15 -13 23 23 6 17 27
-7 27 -9 0 -14 6 -11 13 2 6 14 11 26 10 11 -2 21 2 21 7 0 6 -11 10 -25 10
-26 0 -33 14 -15 25 8 5 8 11 0 20 -8 9 -6 14 7 19 14 6 15 9 4 16 -14 8 -12
56 5 133 6 25 4 27 -22 27 -16 0 -35 -4 -43 -9z m39 -38 c0 -10 -5 -25 -10
-33 -7 -11 -10 -7 -10 18 0 17 5 32 10 32 6 0 10 -8 10 -17z"/>
<path d="M1043 2751 c-39 -21 -81 -41 -92 -44 -14 -3 -21 -13 -21 -29 -1 -17
-21 -38 -88 -85 -48 -33 -113 -76 -144 -95 -58 -33 -70 -54 -48 -88 7 -12 12
-10 28 10 39 50 68 76 142 129 41 30 80 62 87 70 11 14 12 14 13 -4 0 -12 16
-30 43 -47 23 -15 62 -46 86 -68 41 -37 61 -48 61 -34 0 3 -34 42 -75 87 -41
45 -75 87 -75 93 0 16 48 56 115 96 30 18 55 36 55 40 0 13 -11 9 -87 -31z
m-363 -295 c0 -3 -4 -8 -10 -11 -5 -3 -10 -1 -10 4 0 6 5 11 10 11 6 0 10 -2
10 -4z"/>
<path d="M1326 2523 c-4 -9 -1 -20 5 -24 7 -4 9 -14 6 -23 -8 -20 13 -33 24
-15 5 8 9 29 9 47 0 25 -4 32 -19 32 -10 0 -22 -8 -25 -17z"/>
<path d="M697 2115 c-60 -63 -114 -115 -119 -115 -20 0 -188 179 -188 200 0
11 -5 20 -10 20 -13 0 -59 -51 -60 -66 0 -6 28 -23 61 -40 69 -33 176 -125
165 -143 -10 -16 -139 -117 -181 -142 -40 -24 -44 -38 -14 -65 17 -15 23 -16
27 -5 2 7 13 22 23 32 11 11 19 22 20 27 1 4 35 38 75 75 l75 69 47 -43 c97
-88 182 -171 182 -180 0 -21 20 -6 36 27 19 40 115 149 146 165 15 8 34 -1
101 -50 45 -32 102 -80 127 -105 24 -25 48 -46 52 -46 18 0 6 21 -36 65 -24
26 -65 72 -92 103 -27 31 -59 65 -71 76 l-21 20 30 38 c16 21 42 46 57 57 l27
20 2 -103 c1 -56 5 -114 11 -128 10 -26 16 -27 89 -12 34 7 16 24 -26 25 -20
1 -28 3 -17 6 11 2 30 6 43 9 36 7 15 24 -31 25 -33 0 -38 2 -22 9 11 5 35 9
53 9 l32 1 0 -121 c0 -83 3 -120 11 -117 7 2 12 74 15 216 3 159 8 221 19 248
21 50 19 54 -17 54 -21 0 -48 -13 -82 -38 -28 -21 -88 -62 -134 -91 -94 -61
-106 -61 -172 -6 -23 19 -46 35 -51 35 -5 0 -20 23 -34 50 -14 28 -29 50 -33
50 -4 -1 -56 -52 -115 -115z m593 28 c0 -33 0 -33 -49 -33 -28 0 -52 4 -55 8
-3 5 16 24 42 44 51 38 62 35 62 -19z m30 53 c0 -3 -4 -8 -10 -11 -5 -3 -10
-1 -10 4 0 6 5 11 10 11 6 0 10 -2 10 -4z m-497 -20 c4 -10 1 -13 -9 -9 -15 6
-19 23 -5 23 5 0 11 -7 14 -14z m-435 -25 c3 -8 -1 -12 -9 -9 -7 2 -15 10 -17
17 -3 8 1 12 9 9 7 -2 15 -10 17 -17z m457 -27 c28 -20 80 -56 118 -80 37 -24
67 -49 67 -54 0 -6 -12 -15 -27 -21 -16 -6 -38 -19 -49 -30 l-22 -20 -79 98
c-93 115 -96 120 -88 133 11 17 28 11 80 -26z m-95 -24 c0 -5 -7 -7 -15 -4 -8
4 -15 8 -15 10 0 2 7 4 15 4 8 0 15 -4 15 -10z m540 -18 c0 -8 -100 -5 -109 3
-2 3 21 5 52 5 32 0 57 -4 57 -8z m-498 -29 c15 -15 28 -30 28 -35 0 -4 -20
-8 -45 -8 -25 0 -45 5 -45 10 0 6 11 10 25 10 14 0 25 5 25 10 0 11 -12 13
-47 10 -13 -1 -28 2 -35 7 -12 7 13 16 56 22 6 0 23 -11 38 -26z m498 -3 c0
-6 -23 -9 -52 -8 l-53 1 50 7 c28 4 51 8 53 8 1 1 2 -2 2 -8z m-574 -57 c86
-106 126 -144 140 -132 8 6 14 8 14 3 0 -11 -62 -54 -79 -54 -15 0 -191 151
-191 164 0 14 51 66 66 66 6 0 29 -21 50 -47z m574 0 c0 -26 -4 -28 -41 -31
-26 -2 -38 1 -34 8 3 5 21 10 38 10 47 0 13 19 -38 21 -39 1 -39 2 -10 9 17 4
42 8 58 9 23 1 27 -3 27 -26z m-416 -35 c47 -57 46 -68 -6 -67 l-43 1 34 12
c27 10 31 14 18 19 -10 4 -31 4 -48 0 -25 -5 -31 -3 -27 8 2 8 14 15 26 17 40
6 23 22 -19 20 -51 -4 -66 19 -17 25 18 2 36 5 39 5 4 1 23 -17 43 -40z m195
-19 l24 -32 -32 19 c-32 19 -36 26 -24 37 9 9 6 11 32 -24z m-245 -154 c-7
-16 -24 -21 -24 -6 0 8 7 13 27 20 1 1 0 -6 -3 -14z"/>
<path d="M340 2075 c0 -23 -3 -25 -37 -20 -21 2 -87 7 -148 10 l-110 6 3 -118
c2 -65 8 -122 13 -127 5 -6 9 4 9 27 0 20 5 37 10 37 6 0 10 -11 10 -25 0 -14
5 -25 10 -25 6 0 10 11 10 25 0 33 13 32 27 -2 l11 -28 1 28 c1 31 15 35 30
10 7 -12 10 -14 11 -4 0 10 3 11 14 2 11 -9 15 -8 20 4 9 24 29 6 23 -21 -2
-14 -1 -27 3 -29 4 -3 11 11 15 31 6 35 7 36 43 29 20 -4 42 -11 49 -16 7 -7
13 -6 17 0 4 6 13 8 20 5 19 -7 26 37 19 114 -4 41 -11 66 -20 69 -8 3 -11 13
-8 24 5 15 1 19 -19 19 -21 0 -26 -5 -26 -25z m-258 -57 c-9 -9 -12 -7 -12 12
0 19 3 21 12 12 9 -9 9 -15 0 -24z m48 7 c0 -8 -4 -15 -9 -15 -13 0 -22 16
-14 24 11 11 23 6 23 -9z m40 0 c0 -8 -4 -15 -9 -15 -5 0 -11 7 -15 15 -3 9 0
15 9 15 8 0 15 -7 15 -15z m30 0 c0 -8 -2 -15 -4 -15 -2 0 -6 7 -10 15 -3 8
-1 15 4 15 6 0 10 -7 10 -15z m40 0 c0 -8 -4 -15 -10 -15 -5 0 -10 7 -10 15 0
8 5 15 10 15 6 0 10 -7 10 -15z m108 -2 c2 -9 -10 -13 -42 -13 -35 0 -46 4
-46 16 0 12 9 14 42 12 23 -2 43 -9 46 -15z m42 2 c0 -8 -4 -15 -10 -15 -5 0
-10 7 -10 15 0 8 5 15 10 15 6 0 10 -7 10 -15z m-191 -52 c0 -25 -1 -25 -8 -8
-5 11 -7 23 -4 28 8 14 13 7 12 -20z m-109 3 c0 -8 -4 -18 -10 -21 -5 -3 -10
3 -10 14 0 12 5 21 10 21 6 0 10 -6 10 -14z m40 -6 c0 -11 -4 -20 -10 -20 -5
0 -10 9 -10 20 0 11 5 20 10 20 6 0 10 -9 10 -20z m40 6 c0 -8 -4 -18 -10 -21
-5 -3 -10 3 -10 14 0 12 5 21 10 21 6 0 10 -6 10 -14z m70 -7 c0 -11 -4 -17
-10 -14 -5 3 -10 13 -10 21 0 8 5 14 10 14 6 0 10 -9 10 -21z m110 0 c0 -18
-5 -20 -42 -17 -31 2 -44 8 -46 21 -3 14 4 17 42 17 40 0 46 -3 46 -21z m40 6
c0 -8 -4 -15 -10 -15 -5 0 -10 7 -10 15 0 8 5 15 10 15 6 0 10 -7 10 -15z
m-300 -50 c0 -8 -4 -15 -10 -15 -5 0 -10 7 -10 15 0 8 5 15 10 15 6 0 10 -7
10 -15z m40 -5 c0 -11 -4 -20 -10 -20 -5 0 -10 9 -10 20 0 11 5 20 10 20 6 0
10 -9 10 -20z m40 5 c0 -8 -4 -15 -10 -15 -5 0 -10 7 -10 15 0 8 5 15 10 15 6
0 10 -7 10 -15z m178 -8 c3 -14 -4 -17 -37 -17 -39 0 -58 11 -47 29 3 4 22 8
43 7 27 -1 39 -6 41 -19z m-108 -3 c0 -8 -4 -12 -10 -9 -5 3 -10 10 -10 16 0
5 5 9 10 9 6 0 10 -7 10 -16z m158 -2 c2 -7 -3 -12 -12 -12 -9 0 -16 7 -16 16
0 17 22 14 28 -4z"/>
<path d="M1367 1823 c-8 -14 -2 -73 8 -76 14 -3 39 48 32 66 -6 17 -32 23 -40
10z"/>
<path d="M761 1497 c-30 -23 -88 -71 -129 -106 l-74 -64 -24 29 c-13 16 -40
53 -60 82 -40 55 -54 64 -54 32 0 -11 -12 -28 -27 -37 -22 -15 -51 -18 -162
-19 -106 -1 -136 -4 -140 -15 -2 -8 -8 -17 -14 -20 -6 -5 -6 -17 1 -37 6 -17
8 -64 5 -110 -4 -54 -2 -81 6 -86 7 -5 11 3 11 23 0 29 2 31 33 27 22 -2 31
-8 29 -19 -1 -9 2 -18 8 -22 6 -4 10 5 11 22 0 15 3 22 6 16 7 -18 23 -16 23
2 0 12 17 15 90 15 79 0 90 -2 90 -17 0 -20 46 -68 53 -56 3 5 8 25 12 45 5
27 19 47 54 76 l48 40 84 -96 c46 -53 96 -103 111 -111 25 -15 28 -14 53 13
14 15 31 26 38 23 13 -4 25 -53 19 -79 -4 -16 -7 -16 -43 2 l-38 20 -11 -21
c-18 -33 -8 -43 43 -40 l47 3 0 -47 c0 -28 4 -44 10 -40 6 3 10 22 10 41 0 19
2 34 5 34 3 0 25 -9 47 -20 23 -11 47 -20 53 -20 7 0 20 -9 30 -20 21 -23 37
-17 34 13 0 12 -1 37 0 55 1 31 2 32 46 32 30 0 45 4 45 13 0 9 -23 12 -94 10
-57 -2 -97 1 -101 7 -4 6 24 10 79 10 51 0 86 4 86 10 0 6 -15 11 -32 12 -27
1 -25 2 12 7 37 5 46 10 48 29 3 20 -1 22 -42 22 -51 0 -53 4 -31 57 8 19 15
39 15 43 0 9 -24 32 -115 110 -68 58 -124 127 -125 153 0 27 -21 20 -79 -26z
m69 -7 c0 -5 -4 -10 -9 -10 -6 0 -13 5 -16 10 -3 6 1 10 9 10 9 0 16 -4 16
-10z m-13 -33 c4 -6 -2 -8 -18 -4 -13 4 -28 7 -32 7 -5 0 -6 4 -3 9 7 11 44 3
53 -12z m-73 -40 c3 -13 3 -34 1 -47 -7 -36 -8 -190 -2 -197 9 -8 98 7 92 17
-2 4 -21 11 -40 14 -53 10 -44 31 13 31 31 0 47 -4 46 -12 -1 -7 -2 -21 -2
-31 -2 -17 -31 -40 -61 -47 -9 -2 -25 -7 -37 -10 -17 -5 -30 4 -65 47 -24 29
-58 69 -76 88 -18 19 -33 38 -33 42 0 3 19 21 42 40 22 18 55 45 72 60 38 34
42 34 50 5z m-249 -44 c25 -26 45 -51 45 -55 0 -12 -43 -38 -52 -32 -5 3 -8
16 -7 27 3 45 -1 57 -21 57 -11 0 -20 -4 -20 -10 0 -5 -7 -10 -15 -10 -12 0
-14 7 -9 28 14 56 20 55 79 -5z m360 16 c9 -28 6 -30 -43 -17 -53 13 -55 34
-3 36 32 2 41 -2 46 -19z m-473 -18 c10 -28 -16 -38 -92 -37 -47 1 -55 4 -52
19 2 14 -4 17 -34 17 -21 0 -35 2 -33 5 9 8 109 20 157 19 37 -1 47 -6 54 -23z
m569 -21 c30 -27 57 -50 62 -50 18 0 4 -18 -27 -32 -18 -9 -50 -31 -70 -48
-20 -18 -36 -28 -37 -24 -5 66 6 204 16 204 1 0 27 -22 56 -50z m-816 -10 c3
-5 -1 -10 -9 -10 -9 0 -16 5 -16 10 0 6 4 10 9 10 6 0 13 -4 16 -10z m725 0
c0 -5 -11 -10 -25 -10 -14 0 -25 5 -25 10 0 6 11 10 25 10 14 0 25 -4 25 -10z
m-472 -38 c3 -21 1 -22 -86 -22 -85 0 -90 1 -85 20 4 16 16 20 72 23 93 5 96
4 99 -21z m70 1 c3 -19 -1 -23 -21 -23 -24 0 -43 30 -29 45 14 14 47 -1 50
-22z m393 5 c-1 -5 -3 -8 -6 -8 -48 0 -50 0 -35 10 16 11 41 9 41 -2z m-685
-25 c-10 -10 -19 5 -10 18 6 11 8 11 12 0 2 -7 1 -15 -2 -18z m-26 8 c0 -6 -5
-13 -10 -16 -7 -4 -7 -12 0 -24 10 -20 4 -31 -15 -31 -8 0 -12 16 -12 40 0 32
3 40 18 40 11 0 19 -4 19 -9z m713 -31 c-4 -5 -21 -6 -38 -2 l-30 6 30 6 c33
7 51 2 38 -10z m-683 -15 c0 -8 -4 -15 -10 -15 -5 0 -10 7 -10 15 0 8 5 15 10
15 6 0 10 -7 10 -15z m26 -12 c-10 -10 -19 5 -10 18 6 11 8 11 12 0 2 -7 1
-15 -2 -18z m194 12 c0 -12 -16 -15 -80 -15 -44 0 -83 0 -87 -1 -5 0 -9 7 -11
15 -3 14 11 16 87 16 74 0 91 -3 91 -15z m70 6 c0 -12 -37 -24 -50 -16 -20 12
-10 25 20 25 17 0 30 -4 30 -9z m564 -23 c3 -13 6 -40 6 -60 l0 -38 -45 0
c-57 0 -60 20 -2 21 36 1 38 2 17 9 -14 4 -40 8 -59 9 l-34 1 7 -72 c3 -39 9
-74 11 -77 3 -2 16 1 30 7 14 7 37 12 50 12 22 0 25 -5 25 -35 0 -45 1 -45
-109 1 l-43 18 5 51 c2 27 6 57 8 65 3 10 -2 14 -16 12 -27 -5 -13 8 60 57 70
47 81 49 89 19z m69 -95 c-7 -2 -19 -2 -25 0 -7 3 -2 5 12 5 14 0 19 -2 13 -5z
m-300 -18 c-3 -9 -8 -14 -10 -11 -3 3 -2 9 2 15 9 16 15 13 8 -4z m152 -5 c3
-5 1 -10 -4 -10 -6 0 -11 5 -11 10 0 6 2 10 4 10 3 0 8 -4 11 -10z m70 1 c17
-7 15 -9 -13 -13 -32 -5 -48 3 -35 16 8 8 22 7 48 -3z"/>
<path d="M1189 998 c-1 -7 0 -17 1 -23 1 -5 3 -21 4 -35 0 -15 7 -25 16 -25
16 0 36 56 27 79 -8 19 -46 21 -48 4z"/>
<path d="M712 727 c-29 -31 -28 -41 6 -53 l27 -10 -58 -37 c-31 -20 -61 -37
-66 -37 -5 0 -14 -7 -21 -15 -7 -8 -19 -15 -27 -15 -15 0 -101 67 -144 113
-23 24 -28 26 -39 12 -7 -8 -23 -15 -36 -15 -18 0 -24 -6 -24 -21 0 -18 -4
-20 -37 -15 -21 3 -69 8 -106 12 -62 6 -70 5 -83 -14 -9 -13 -21 -19 -31 -15
-14 5 -15 1 -9 -33 3 -21 9 -65 13 -96 5 -53 14 -70 26 -50 2 4 2 1 1 -5 -8
-32 6 -39 62 -33 30 3 57 4 59 1 3 -2 34 -3 70 -2 53 2 65 0 65 -13 0 -23 9
-20 33 10 l21 27 8 -24 c7 -18 11 -20 17 -10 5 7 7 21 4 30 -3 12 12 28 47 51
29 19 57 39 64 44 12 8 145 -80 146 -97 0 -5 -9 -11 -20 -14 -23 -6 -25 -21
-6 -45 18 -24 22 -23 36 12 15 35 21 37 45 10 10 -11 22 -20 27 -20 16 0 8 28
-13 41 -19 13 -15 17 79 72 54 31 104 57 110 57 27 0 9 27 -35 50 -62 33 -123
78 -123 90 0 6 16 20 35 31 19 12 35 25 35 30 0 14 -15 10 -36 -10 -38 -34
-60 -35 -74 -1 -15 36 -20 37 -48 7z m38 -32 c7 -8 8 -15 2 -15 -5 0 -15 7
-22 15 -7 8 -8 15 -2 15 5 0 15 -7 22 -15z m-383 -67 c-3 -8 -6 -5 -6 6 -1 11
2 17 5 13 3 -3 4 -12 1 -19z m413 12 c0 -5 -7 -10 -15 -10 -8 0 -15 5 -15 10
0 6 7 10 15 10 8 0 15 -4 15 -10z m-287 -58 c26 -18 47 -37 47 -40 0 -12 -95
-73 -98 -63 -2 5 4 26 12 46 22 51 20 57 -11 53 -27 -3 -28 -5 -28 -62 l0 -58
-42 -17 c-50 -19 -123 -16 -123 5 0 10 12 14 40 14 22 0 40 5 40 10 0 6 -18
10 -40 10 -29 0 -40 4 -40 15 0 11 12 15 45 15 41 0 45 -2 45 -25 0 -49 18
-24 24 35 4 33 12 73 17 89 10 28 12 29 37 18 15 -6 48 -26 75 -45z m427 -33
c0 -6 -116 -79 -126 -79 -6 0 -5 112 2 137 6 21 7 21 65 -15 32 -20 59 -40 59
-43z m-608 61 c30 0 44 -26 34 -63 -5 -20 -11 -22 -51 -19 -47 4 -64 22 -20
22 14 0 25 5 25 10 0 6 -11 10 -25 10 -17 0 -25 6 -25 18 -1 16 -1 16 -14 -1
-11 -14 -15 -15 -19 -5 -4 10 -8 10 -15 -1 -8 -12 -13 -12 -25 -2 -11 8 -17 9
-22 1 -5 -8 -10 -8 -20 0 -10 8 -14 7 -18 -2 -2 -7 -8 -10 -12 -5 -23 21 76
50 145 41 19 -2 47 -4 62 -4z m458 -11 c0 -5 -9 -9 -20 -9 -11 0 -20 6 -20 14
0 9 7 12 20 9 11 -3 20 -9 20 -14z m-61 -22 c0 -12 -1 -43 0 -69 1 -47 1 -47
31 -41 37 7 41 -13 5 -29 -22 -10 -30 -7 -72 28 -93 75 -90 66 -31 106 57 38
70 39 67 5z m61 -22 c0 -8 -9 -15 -20 -15 -11 0 -20 7 -20 15 0 8 9 15 20 15
11 0 20 -7 20 -15z m-657 -28 c-3 -5 -10 -4 -15 1 -6 6 -7 16 -3 22 6 9 9 9
16 -1 4 -7 5 -17 2 -22z m37 11 c0 -16 -3 -19 -11 -11 -6 6 -8 16 -5 22 11 17
16 13 16 -11z m50 1 c0 -5 -7 -9 -15 -9 -15 0 -20 12 -9 23 8 8 24 -1 24 -14z
m30 1 c0 -5 -4 -10 -10 -10 -5 0 -10 5 -10 10 0 6 5 10 10 10 6 0 10 -4 10
-10z m540 -35 c0 -16 -35 -21 -44 -6 -8 12 4 21 26 21 10 0 18 -7 18 -15z
m-657 -28 c-3 -5 -9 -3 -14 4 -4 7 -5 17 -2 22 3 5 9 3 14 -4 4 -7 5 -17 2
-22z m37 11 c0 -16 -3 -19 -11 -11 -6 6 -8 16 -5 22 11 17 16 13 16 -11z m37
-10 c-3 -7 -5 -2 -5 12 0 14 2 19 5 13 2 -7 2 -19 0 -25z m43 11 c0 -11 -4
-17 -10 -14 -5 3 -10 13 -10 21 0 8 5 14 10 14 6 0 10 -9 10 -21z m-40 -44 c0
-10 -10 -15 -30 -15 -16 0 -30 4 -30 9 0 8 10 12 53 20 4 0 7 -6 7 -14z m36
-12 c-10 -10 -19 5 -10 18 6 11 8 11 12 0 2 -7 1 -15 -2 -18z"/>
<path d="M315 560 c3 -5 8 -10 11 -10 2 0 4 5 4 10 0 6 -5 10 -11 10 -5 0 -7
-4 -4 -10z"/>
<path d="M810 373 c-1 -20 -45 -43 -164 -84 -43 -15 -82 -31 -86 -36 -4 -4 -5
-26 -3 -49 4 -37 7 -40 36 -40 18 0 81 -25 146 -57 62 -31 117 -57 121 -57 3
0 5 25 2 55 -3 42 -1 55 8 53 20 -5 23 20 3 25 -10 3 2 5 26 6 35 1 42 4 37
17 -3 9 -6 20 -6 25 0 5 -18 9 -40 9 -22 0 -40 4 -40 9 0 5 15 8 33 7 46 -2
50 18 3 22 -37 3 -38 4 -32 35 3 17 13 38 21 47 23 25 19 30 -25 30 -31 0 -40
-4 -40 -17z m18 -71 c3 -20 -1 -22 -42 -22 -25 0 -48 -4 -51 -10 -4 -6 13 -10
44 -10 31 0 51 -4 51 -11 0 -8 -17 -10 -49 -7 -49 5 -50 5 -49 -24 1 -27 3
-28 57 -30 l56 -2 -52 -3 c-58 -4 -73 -22 -20 -24 17 -1 37 -1 43 0 7 1 14
-12 16 -29 4 -27 3 -29 -21 -24 -38 9 -204 97 -208 111 -2 6 7 19 21 28 34 22
179 83 191 81 6 -2 11 -12 13 -24z m-15 -89 c-13 -2 -33 -2 -45 0 -13 2 -3 4
22 4 25 0 35 -2 23 -4z"/>
<path d="M1017 164 c-15 -16 -7 -53 14 -59 25 -8 40 9 37 40 -3 20 -37 33 -51
19z"/>
</g>
</svg>
