<?xml version="1.0" standalone="no"?>
<!DOCTYPE svg PUBLIC "-//W3C//DTD SVG 20010904//EN"
 "http://www.w3.org/TR/2001/REC-SVG-20010904/DTD/svg10.dtd">
<svg version="1.0" xmlns="http://www.w3.org/2000/svg"
 width="125.000000pt" height="103.000000pt" viewBox="0 0 125.000000 103.000000"
 preserveAspectRatio="xMidYMid meet">
<metadata>
Created by potrace 1.16, written by Peter Selinger 2001-2019
</metadata>
<g transform="translate(0.000000,103.000000) scale(0.100000,-0.100000)"
fill="#000000" stroke="none">
<path d="M693 897 c-34 -40 -73 -85 -87 -102 l-26 -30 -20 25 c-10 14 -30 49
-42 77 -25 58 -36 64 -58 31 -8 -11 -23 -28 -32 -37 -10 -8 -18 -22 -18 -29 0
-12 -14 -13 -77 -7 -43 4 -88 11 -101 16 -13 5 -37 9 -53 9 -26 0 -29 -3 -29
-30 0 -23 -4 -30 -20 -30 -23 0 -25 -19 -8 -70 6 -19 14 -73 17 -119 4 -54 10
-86 19 -89 6 -2 12 3 12 12 0 9 5 16 11 16 7 0 9 14 5 40 -3 26 -2 39 4 35 6
-3 10 -22 10 -41 0 -49 20 -42 21 9 1 38 2 39 8 12 7 -34 28 -32 23 3 -2 19 2
22 31 22 59 0 127 12 127 23 0 6 -29 8 -80 4 -73 -5 -80 -3 -80 13 0 16 12 19
85 25 47 4 85 12 85 17 0 5 -34 6 -85 2 -75 -6 -85 -5 -85 10 0 12 11 16 48
17 26 1 61 5 77 9 50 12 3 24 -64 16 -51 -6 -60 -4 -66 11 -6 17 -7 17 -21 -1
-8 -11 -14 -14 -14 -8 0 7 -5 12 -11 12 -6 0 -9 -22 -8 -60 1 -33 -1 -63 -4
-67 -4 -3 -7 17 -7 46 0 29 -5 61 -11 73 -6 11 -9 21 -7 23 2 2 63 7 135 11
l131 7 6 -47 c3 -25 8 -65 11 -89 7 -53 38 -79 61 -50 7 10 14 23 14 28 0 6
15 27 33 48 l33 38 71 -74 c39 -40 78 -79 86 -85 12 -10 30 2 103 73 49 47
115 107 147 132 31 25 57 52 57 59 0 22 -12 16 -60 -27 -45 -40 -146 -120
-165 -132 -7 -4 -11 14 -11 49 1 37 5 54 13 54 7 0 13 5 13 10 0 6 -7 10 -15
10 -10 0 -15 10 -15 32 l0 31 27 -24 c15 -13 36 -34 46 -46 10 -13 23 -23 28
-23 19 0 7 27 -30 66 -21 23 -53 63 -71 88 -19 25 -38 46 -44 45 -6 0 -39 -33
-73 -72z m87 22 c0 -6 -4 -7 -10 -4 -5 3 -10 11 -10 16 0 6 5 7 10 4 6 -3 10
-11 10 -16z m-12 -25 c36 -25 26 -58 -19 -62 -31 -3 -37 1 -42 20 -4 14 0 29
10 40 20 22 23 22 51 2z m-270 -40 c7 -14 8 -23 2 -19 -15 9 -32 45 -22 45 5
0 14 -12 20 -26z m190 -150 l-3 -45 -43 44 -43 43 43 54 43 54 3 -52 c2 -29 2
-73 0 -98z m-208 121 c0 -8 -4 -15 -10 -15 -5 0 -10 7 -10 15 0 8 5 15 10 15
6 0 10 -7 10 -15z m-262 -12 c-10 -2 -26 -2 -35 0 -10 3 -2 5 17 5 19 0 27 -2
18 -5z m555 -10 c-13 -2 -33 -2 -45 0 -13 2 -3 4 22 4 25 0 35 -2 23 -4z
m-231 -30 l28 -27 -27 -28 c-15 -15 -30 -28 -33 -28 -4 0 -8 25 -9 55 -1 30 2
55 6 55 4 0 20 -12 35 -27z m-57 -59 c4 -30 3 -54 -3 -58 -10 -6 -22 49 -22
104 1 49 16 20 25 -46z m305 56 c0 -5 -10 -10 -22 -11 -13 0 -31 -2 -40 -4
-10 -2 -18 1 -18 5 0 8 19 13 68 19 6 0 12 -3 12 -9z m0 -51 c0 -5 -11 -9 -24
-9 -13 0 -31 -3 -40 -6 -11 -4 -16 0 -16 13 0 16 6 18 40 15 22 -2 40 -8 40
-13z m-560 -10 c0 -5 -4 -9 -10 -9 -5 0 -10 7 -10 16 0 8 5 12 10 9 6 -3 10
-10 10 -16z m567 -36 c2 -6 -13 -23 -33 -37 -41 -27 -54 -22 -54 21 0 16 7 23
28 26 39 6 55 4 59 -10z m-567 -15 c0 -16 -3 -19 -11 -11 -6 6 -8 16 -5 22 11
17 16 13 16 -11z"/>
<path d="M1081 793 c2 -103 13 -203 22 -203 5 0 10 37 13 82 3 45 9 100 14
122 14 62 13 66 -20 66 l-30 0 1 -67z m26 15 c-3 -8 -6 -5 -6 6 -1 11 2 17 5
13 3 -3 4 -12 1 -19z"/>
<path d="M997 733 c-14 -17 -12 -24 25 -90 38 -70 68 -98 53 -50 -4 12 -14 52
-23 90 -17 69 -28 79 -55 50z"/>
<path d="M807 442 c-10 -10 -14 -22 -10 -26 12 -11 -20 -26 -33 -16 -7 7 -40
-13 -99 -60 l-89 -69 -45 36 c-25 20 -65 54 -88 77 l-43 40 -22 -21 c-13 -12
-32 -23 -43 -25 -11 -2 -19 -10 -17 -17 2 -10 -24 -12 -110 -10 -70 1 -121 -2
-133 -9 -46 -26 -46 -26 -36 -78 5 -27 13 -70 16 -97 7 -56 25 -63 26 -9 l1
37 10 -34 c7 -25 12 -31 18 -21 4 7 6 19 3 26 -2 6 0 15 5 18 5 3 13 -9 18
-27 l8 -32 3 33 c5 38 23 44 23 7 0 -14 5 -25 10 -25 6 0 10 11 10 25 0 25 1
26 65 30 59 3 68 5 61 12 -4 4 -34 6 -66 5 -33 -1 -60 2 -60 7 0 13 37 21 98
21 49 0 52 -1 52 -26 0 -43 21 -112 40 -129 16 -15 22 -11 89 58 77 79 118
108 129 91 4 -6 48 -40 97 -75 50 -35 96 -69 103 -76 15 -15 39 -6 63 23 20
25 129 104 143 104 6 0 36 -36 66 -80 30 -43 58 -79 62 -80 4 0 9 26 13 58 4
31 15 92 26 136 10 43 17 82 14 86 -2 3 -18 5 -35 2 l-32 -4 8 -109 c4 -72 3
-109 -4 -109 -12 0 -52 96 -56 135 -4 30 1 25 -91 92 -38 29 -86 68 -104 87
-40 42 -42 42 -64 18z m-397 -62 c0 -5 -2 -10 -4 -10 -3 0 -8 5 -11 10 -3 6
-1 10 4 10 6 0 11 -4 11 -10z m512 -40 c46 -28 91 -57 102 -64 19 -15 14 -36
-8 -36 -8 0 -53 -21 -100 -46 l-86 -46 0 121 c0 67 2 121 5 121 3 0 42 -23 87
-50z m-123 29 c-18 -11 -39 -11 -39 0 0 5 12 9 26 9 18 0 22 -3 13 -9z m-306
-66 c31 -19 57 -39 57 -44 0 -9 -130 -108 -143 -109 -5 0 -6 41 -2 91 7 85 6
91 -11 87 -14 -3 -19 -11 -17 -33 8 -129 7 -159 -3 -162 -13 -4 -20 190 -8
220 7 19 21 14 127 -50z m249 -40 l3 -97 33 -8 c18 -5 30 -13 27 -18 -11 -18
-32 -10 -97 38 -35 26 -75 55 -89 65 -16 12 -20 20 -11 23 6 3 36 25 65 50 28
24 55 44 59 44 4 0 9 -44 10 -97z m68 78 c0 -5 -11 -11 -25 -13 -24 -5 -32 2
-18 15 9 10 43 8 43 -2z m-486 -27 c13 -34 7 -54 -18 -54 -13 0 -44 -3 -70 -6
-31 -5 -46 -3 -46 5 0 6 20 12 48 13 l47 1 -50 6 c-36 4 -51 11 -53 23 -2 12
5 18 30 21 77 9 106 7 112 -9z m-194 -14 c0 -5 -5 -10 -11 -10 -5 0 -7 5 -4
10 3 6 8 10 11 10 2 0 4 -4 4 -10z m680 3 c0 -5 -11 -9 -25 -9 -14 -1 -25 2
-25 7 0 5 11 9 25 9 14 0 25 -3 25 -7z m350 -15 c0 -7 -5 -20 -10 -28 -8 -12
-10 -9 -10 13 0 15 5 27 10 27 6 0 10 -6 10 -12z m-350 -29 c0 -5 -11 -9 -25
-9 -14 0 -25 6 -25 14 0 9 8 12 25 8 14 -2 25 -8 25 -13z m-723 -51 c-3 -8 -6
-5 -6 6 -1 11 2 17 5 13 3 -3 4 -12 1 -19z m43 6 c0 -8 -4 -12 -10 -9 -5 3
-10 10 -10 16 0 5 5 9 10 9 6 0 10 -7 10 -16z m35 7 c3 -5 1 -12 -5 -16 -5 -3
-10 1 -10 9 0 18 6 21 15 7z m645 -1 c0 -5 -9 -10 -19 -10 -11 0 -23 5 -26 10
-4 6 5 10 19 10 14 0 26 -4 26 -10z m240 -11 c0 -6 -4 -7 -10 -4 -5 3 -10 11
-10 16 0 6 5 7 10 4 6 -3 10 -11 10 -16z m-240 -26 c0 -14 -10 -16 -34 -7 -9
3 -14 10 -11 14 8 13 45 7 45 -7z m-390 -58 c-7 -8 -17 -15 -23 -15 -6 0 -2 7
9 15 25 19 30 19 14 0z m420 -5 c-13 -11 -26 -18 -28 -15 -6 6 28 34 42 35 5
0 -1 -9 -14 -20z"/>
<path d="M295 280 c3 -5 8 -10 11 -10 2 0 4 5 4 10 0 6 -5 10 -11 10 -5 0 -7
-4 -4 -10z"/>
</g>
</svg>
