<?xml version="1.0" standalone="no"?>
<!DOCTYPE svg PUBLIC "-//W3C//DTD SVG 20010904//EN"
 "http://www.w3.org/TR/2001/REC-SVG-20010904/DTD/svg10.dtd">
<svg version="1.0" xmlns="http://www.w3.org/2000/svg"
 width="108.000000pt" height="202.000000pt" viewBox="0 0 108.000000 202.000000"
 preserveAspectRatio="xMidYMid meet">
<metadata>
Created by potrace 1.16, written by Peter Selinger 2001-2019
</metadata>
<g transform="translate(0.000000,202.000000) scale(0.100000,-0.100000)"
fill="#000000" stroke="none">
<path d="M100 1975 c-5 -14 -10 -31 -10 -37 0 -6 -10 -8 -26 -4 l-27 7 7 -52
c4 -29 7 -133 7 -232 l0 -179 32 6 c73 14 351 25 364 14 9 -7 13 -7 13 2 0 8
23 11 83 9 45 -2 87 0 93 4 6 3 64 7 130 8 65 0 126 5 135 10 12 6 18 30 23
95 4 52 14 105 26 132 24 54 15 68 -28 46 -25 -12 -31 -20 -27 -37 l6 -22
-228 1 c-311 1 -283 -4 -283 43 0 22 4 51 9 64 5 13 11 43 13 67 l3 43 -65 4
c-91 6 -202 20 -222 28 -13 5 -20 0 -28 -20z m50 -15 c0 -5 -7 -10 -15 -10 -8
0 -15 5 -15 10 0 6 7 10 15 10 8 0 15 -4 15 -10z m134 -23 c-16 -9 -19 -17
-13 -32 13 -35 10 -63 -8 -67 -31 -6 -63 4 -63 19 0 13 -3 13 -15 3 -9 -7 -25
-10 -41 -6 -16 4 -32 2 -42 -6 -14 -12 -15 -9 -9 26 3 21 9 41 12 44 5 5 142
28 180 30 19 1 19 1 -1 -11z m83 -37 c6 -27 8 -52 5 -55 -3 -3 -18 -5 -34 -5
-31 0 -32 7 -22 73 5 26 12 37 24 37 13 0 20 -13 27 -50z m-292 1 c3 -5 1 -12
-5 -16 -5 -3 -10 1 -10 9 0 18 6 21 15 7z m205 -90 c0 -10 -51 -22 -63 -14 -4
2 -5 9 -2 14 8 12 65 12 65 0z m90 -6 c0 -16 -55 -22 -64 -6 -8 13 5 21 36 21
18 0 28 -5 28 -15z m-210 -4 c0 -5 -9 -7 -20 -4 -11 3 -20 7 -20 9 0 2 9 4 20
4 11 0 20 -4 20 -9z m-65 -11 c-3 -5 -10 -10 -16 -10 -5 0 -9 5 -9 10 0 6 7
10 16 10 8 0 12 -4 9 -10z m170 -20 c18 0 17 -57 -1 -64 -18 -7 -30 14 -14 24
8 5 5 9 -9 13 -12 3 -21 13 -21 22 0 12 5 15 16 11 9 -3 22 -6 29 -6z m-68
-17 c3 -8 -6 -9 -32 -3 -51 12 -57 22 -11 18 22 -2 41 -8 43 -15z m173 7 c0
-5 -4 -10 -10 -11 -38 -4 -54 -2 -58 9 -2 8 8 12 32 12 20 0 36 -4 36 -10z
m-268 -12 c-16 -21 -10 -103 8 -104 8 -1 52 -2 98 -2 65 -2 82 -5 82 -17 0 -8
5 -15 10 -15 6 0 10 6 10 14 0 7 10 17 23 21 16 5 18 8 7 11 -43 15 -44 17
-15 23 38 8 39 25 3 29 -16 2 -28 7 -28 12 0 11 59 10 66 -2 3 -5 2 -49 -2
-99 l-7 -91 -116 6 c-64 3 -125 6 -137 6 -20 0 -21 7 -27 102 -4 73 -2 105 6
110 19 12 30 9 19 -4z m108 -28 c0 -5 -21 -9 -47 -9 -43 1 -45 2 -18 9 44 11
65 11 65 0z m691 -80 l-6 -85 -65 -6 c-36 -4 -96 -7 -133 -8 l-69 -1 6 53 c4
28 9 69 12 89 l6 37 126 3 c70 2 128 3 128 3 1 0 -1 -38 -5 -85z m-394 66
c-15 -11 -16 -18 -6 -38 16 -36 0 -132 -23 -136 -16 -3 -17 4 -12 60 10 118
13 128 37 128 21 -1 21 -1 4 -14z m65 2 c-7 -7 -12 -39 -12 -72 0 -77 -8 -106
-26 -99 -11 4 -13 19 -8 62 10 112 13 121 36 121 17 0 19 -3 10 -12z m43 -8
c-13 -15 -15 -25 -8 -47 5 -15 8 -34 7 -40 -1 -7 -2 -26 -3 -43 -1 -23 -6 -30
-22 -30 -15 0 -19 5 -15 18 9 33 16 77 18 120 2 34 5 42 22 42 18 0 18 -1 1
-20z m-168 -38 c2 -26 0 -66 -3 -89 -4 -37 -9 -43 -29 -43 -13 0 -26 4 -29 8
-3 4 -2 42 1 85 5 67 8 76 27 80 12 2 23 5 26 6 3 0 6 -20 7 -47z m-167 6 c0
-13 -23 -5 -28 10 -2 7 2 10 12 6 9 -3 16 -11 16 -16z m-50 2 c0 -12 -27 -12
-90 -1 -44 8 -44 9 23 10 39 0 67 -3 67 -9z"/>
<path d="M985 1548 c-7 -22 -1 -83 10 -83 5 0 16 12 25 27 11 21 12 32 4 45
-14 22 -33 28 -39 11z"/>
<path d="M90 1203 c0 -15 -7 -23 -22 -25 -25 -3 -25 -5 -8 -82 5 -27 9 -113 8
-192 -1 -79 0 -145 3 -148 2 -2 27 1 54 9 28 7 102 16 165 19 63 4 122 9 131
12 11 3 19 -4 24 -18 l8 -23 4 23 c3 14 12 22 24 22 15 0 19 -7 19 -35 0 -38
10 -44 31 -19 10 13 10 17 0 24 -16 9 -6 30 15 30 8 0 14 -10 14 -25 0 -14 5
-25 10 -25 6 0 10 11 10 25 0 20 5 25 26 25 19 0 25 -4 21 -15 -4 -8 -2 -17 4
-21 6 -3 13 3 16 15 8 31 23 25 23 -9 0 -16 5 -30 10 -30 6 0 10 14 10 30 l0
30 70 0 c56 0 70 3 70 15 0 12 -14 15 -70 15 l-70 0 7 43 c4 23 7 50 7 60 0
13 10 17 41 19 58 2 63 2 71 10 13 14 -22 17 -213 20 -130 2 -196 7 -204 15
-9 9 -9 35 1 110 6 54 10 103 8 108 -2 6 -64 10 -160 10 -156 0 -158 0 -158
-22z m269 -110 c6 -57 8 -144 4 -193 l-6 -91 -46 3 -46 3 -3 53 -3 52 46 0
c33 0 45 4 42 13 -3 7 -19 11 -47 9 -30 -2 -41 1 -38 10 3 7 20 13 41 13 51 0
51 19 0 23 -29 2 -43 8 -43 18 0 8 10 14 24 14 14 0 28 5 31 10 4 6 -7 10 -24
10 -21 0 -31 5 -31 15 0 10 10 15 31 15 17 0 28 4 24 10 -3 6 -17 10 -31 10
-13 0 -24 5 -24 10 0 6 18 10 40 10 22 0 40 5 40 10 0 11 -11 13 -52 10 -24
-1 -28 2 -28 25 0 31 -20 30 -35 -3 -12 -26 -47 -30 -43 -6 5 26 -22 29 -29 5
-4 -15 -12 -21 -26 -19 -32 5 -32 27 0 39 35 14 206 38 215 30 4 -3 12 -52 17
-108z m31 100 c0 -5 -5 -15 -10 -23 -8 -12 -10 -11 -10 8 0 12 5 22 10 22 6 0
10 -3 10 -7z m-235 -93 c4 -6 -7 -10 -24 -10 -17 0 -31 5 -31 10 0 6 11 10 24
10 14 0 28 -4 31 -10z m75 1 c0 -5 -11 -11 -25 -13 -17 -4 -25 -1 -25 8 0 8
11 14 25 14 14 0 25 -4 25 -9z m-70 -50 c0 -6 -4 -12 -10 -16 -13 -8 -61 5
-54 16 7 12 64 12 64 0z m75 -1 c3 -5 3 -10 -2 -10 -4 0 -18 -3 -30 -6 -17 -5
-23 -2 -23 10 0 18 45 23 55 6z m4 -54 c-5 -5 -29 -9 -51 -7 -28 2 -21 19 10
23 25 3 51 -6 41 -16z m-89 4 c0 -5 -14 -10 -31 -10 -17 0 -28 4 -24 10 3 6
17 10 31 10 13 0 24 -4 24 -10z m0 -50 c0 -5 -10 -10 -22 -10 -19 0 -20 2 -8
10 19 13 30 13 30 0z m85 0 c-3 -5 -17 -10 -30 -10 -13 0 -27 5 -30 10 -4 6 8
10 30 10 22 0 34 -4 30 -10z m259 -12 c3 -13 6 -44 6 -70 0 -42 -3 -48 -21
-48 -20 0 -21 4 -15 53 3 28 6 60 6 70 0 25 17 21 24 -5z m65 -90 c1 -21 -3
-26 -19 -25 -17 1 -20 8 -20 43 0 24 5 55 12 71 l11 28 8 -45 c4 -25 8 -57 8
-72z m56 65 c12 -84 12 -88 -13 -91 -23 -3 -23 -1 -21 60 1 35 4 66 6 71 11
19 22 3 28 -40z m58 35 c-4 -7 -6 -36 -4 -64 1 -30 -2 -55 -8 -58 -8 -5 -11
15 -11 63 0 58 3 71 16 71 10 0 12 -4 7 -12z m-233 -63 l0 -65 -31 0 -32 0 7
46 c3 26 6 55 6 65 0 14 7 19 25 19 24 0 25 -2 25 -65z m-290 -13 c0 -48 0
-49 -30 -44 -27 4 -30 8 -30 42 0 39 0 39 53 49 4 0 7 -21 7 -47z m90 -8 c0
-47 -3 -55 -16 -50 -9 3 -24 6 -35 6 -16 0 -19 7 -19 50 l0 50 35 0 35 0 0
-56z m-110 -74 c-19 -13 -30 -13 -30 0 0 6 10 10 23 10 18 0 19 -2 7 -10z"/>
<path d="M860 1051 c-20 -6 -25 -13 -23 -37 1 -16 4 -94 6 -173 2 -100 7 -146
15 -149 9 -3 12 19 12 75 1 43 9 123 19 178 10 55 17 103 14 108 -5 8 -8 8
-43 -2z m19 -38 c0 -10 -4 -27 -8 -38 -7 -17 -9 -15 -13 13 -2 17 -2 34 0 37
11 11 22 4 21 -12z"/>
<path d="M1011 806 c-7 -9 -9 -21 -5 -28 5 -7 7 -21 6 -30 -5 -28 27 -21 34 6
12 50 -10 82 -35 52z"/>
<path d="M99 564 c-1 -5 -2 -13 -4 -19 -1 -5 -3 -16 -3 -22 -1 -7 -9 -13 -18
-13 -12 0 -15 -5 -9 -22 4 -13 10 -112 12 -221 5 -179 7 -198 22 -191 9 4 73
10 144 13 121 6 128 5 134 -14 6 -19 6 -19 14 3 7 19 15 23 41 20 29 -3 34 -7
39 -38 l6 -35 2 38 c1 32 4 37 26 37 20 0 25 -5 25 -24 0 -14 5 -28 10 -31 6
-4 10 6 10 23 0 24 5 31 25 34 22 5 25 2 25 -23 0 -16 5 -29 10 -29 6 0 10 14
10 30 l0 30 80 0 c44 0 83 0 87 0 4 0 8 -9 8 -20 0 -11 5 -21 10 -22 6 -2 13
36 16 92 3 52 10 110 14 128 9 37 -3 42 -31 11 -18 -20 -25 -21 -189 -15 -93
4 -196 9 -229 12 l-59 6 7 87 c4 47 10 104 13 125 4 30 2 38 -8 34 -17 -7
-197 8 -221 17 -10 4 -19 3 -19 -1z m36 -34 c3 -5 1 -10 -4 -10 -6 0 -11 5
-11 10 0 6 2 10 4 10 3 0 8 -4 11 -10z m148 -7 c3 -5 8 -29 12 -55 l7 -48 -51
0 c-48 0 -51 1 -51 26 0 14 -4 23 -10 19 -5 -3 -10 -15 -10 -26 0 -15 -7 -19
-35 -19 -37 0 -41 8 -26 60 6 22 15 27 71 36 84 15 88 15 93 7z m38 -40 c-9
-16 -10 -14 -11 12 0 21 3 26 11 18 8 -8 8 -16 0 -30z m-13 -118 l3 -30 -53 1
c-49 1 -53 3 -56 27 -4 29 11 36 68 34 31 -2 35 -5 38 -32z m-128 1 c0 -21 -6
-24 -40 -28 -38 -3 -40 -2 -40 24 0 26 3 28 40 28 36 0 40 -3 40 -24z m130
-82 l0 -35 -52 3 c-49 3 -53 5 -56 30 -3 26 -1 27 50 31 29 2 54 4 56 5 1 1 2
-14 2 -34z m-130 -4 c0 -28 -2 -30 -40 -30 -38 0 -40 2 -40 30 0 28 2 30 40
30 38 0 40 -2 40 -30z m586 -31 c13 -10 39 -97 32 -104 -2 -3 -42 -8 -89 -11
l-85 -7 -2 34 c-2 19 3 44 9 56 14 26 7 38 -16 29 -13 -5 -16 -17 -14 -57 3
-51 -7 -68 -40 -69 -11 0 -13 13 -8 60 5 55 3 60 -15 60 -19 0 -19 -4 -13 -60
7 -60 7 -60 -19 -60 -25 0 -26 2 -26 61 0 44 -3 60 -12 56 -9 -3 -12 -22 -10
-60 3 -57 3 -57 -27 -57 -34 0 -47 32 -31 75 14 37 13 45 -9 45 -28 0 -31 -10
-22 -68 7 -48 7 -51 -16 -55 -22 -4 -23 -2 -23 59 0 66 4 73 52 83 44 9 372 1
384 -10z m36 -1 c-7 -7 -12 -8 -12 -2 0 14 12 26 19 19 2 -3 -1 -11 -7 -17z
m-618 -34 c10 -27 7 -34 -20 -34 -14 0 -34 -5 -45 -10 -17 -10 -19 -7 -19 25
0 34 1 35 39 35 26 0 41 -5 45 -16z m124 -11 c-2 -16 -9 -28 -15 -27 -7 1 -31
2 -53 3 -32 1 -40 5 -40 19 0 28 9 32 62 32 48 0 49 -1 46 -27z m2 -68 c0 -24
-24 -28 -102 -15 -114 19 -115 29 0 30 85 0 102 -3 102 -15z m-190 -25 c0 -5
-4 -10 -10 -10 -5 0 -10 5 -10 10 0 6 5 10 10 10 6 0 10 -4 10 -10z"/>
<path d="M947 136 c-7 -19 18 -40 38 -32 8 3 15 15 15 26 0 14 -7 20 -24 20
-13 0 -26 -6 -29 -14z"/>
</g>
</svg>
