<?xml version="1.0" standalone="no"?>
<!DOCTYPE svg PUBLIC "-//W3C//DTD SVG 20010904//EN"
 "http://www.w3.org/TR/2001/REC-SVG-20010904/DTD/svg10.dtd">
<svg version="1.0" xmlns="http://www.w3.org/2000/svg"
 width="127.000000pt" height="133.000000pt" viewBox="0 0 127.000000 133.000000"
 preserveAspectRatio="xMidYMid meet">
<metadata>
Created by potrace 1.16, written by Peter Selinger 2001-2019
</metadata>
<g transform="translate(0.000000,133.000000) scale(0.100000,-0.100000)"
fill="#000000" stroke="none">
<path d="M726 1267 c-9 -34 -7 -67 4 -67 6 0 10 -58 10 -154 0 -128 -3 -155
-15 -160 -10 -3 -15 -19 -15 -42 l0 -37 40 7 c23 3 49 10 58 15 23 12 80 28
124 35 20 4 38 13 41 21 7 17 49 386 45 390 -2 1 -67 5 -144 8 -141 6 -142 6
-148 -16z m67 -5 c15 -6 13 -9 -13 -19 -23 -9 -30 -9 -30 1 0 25 12 30 43 18z
m131 -39 c12 -73 13 -71 -57 -68 -35 2 -70 5 -78 7 -15 3 -26 -39 -12 -53 5
-5 21 -2 38 7 16 8 48 17 71 18 40 4 42 2 48 -26 3 -17 6 -48 6 -69 l0 -39
-75 0 -75 0 0 -30 c0 -16 5 -30 10 -30 6 0 10 4 10 9 0 8 119 36 125 29 1 -2
6 -22 10 -44 l6 -42 -48 -5 c-42 -4 -62 -4 -127 2 -11 1 -14 34 -15 165 l-2
164 43 15 c105 38 114 37 122 -10z m73 22 c-4 -8 -9 -60 -13 -117 -11 -153
-20 -169 -27 -48 -4 58 -9 122 -13 143 -7 36 -6 37 26 37 24 0 31 -4 27 -15z
m-172 -384 c-13 -11 -85 -34 -91 -28 -2 2 -2 12 2 21 4 12 19 16 52 16 27 0
42 -4 37 -9z"/>
<path d="M785 1080 c-3 -5 -3 -21 1 -35 5 -18 10 -23 18 -16 7 6 36 15 65 22
61 13 59 23 -5 25 -34 1 -44 -2 -45 -15 0 -11 -3 -9 -9 7 -10 24 -16 27 -25
12z"/>
<path d="M100 1241 c0 -26 -4 -31 -25 -31 -29 0 -30 -6 -11 -92 15 -65 30
-248 29 -351 -1 -50 1 -57 16 -52 20 8 183 36 231 39 l35 3 6 209 c3 115 11
225 17 244 15 43 6 52 -38 40 -62 -18 -146 -12 -237 15 -20 7 -23 4 -23 -24z
m47 -7 c-3 -3 -12 -4 -19 -1 -8 3 -5 6 6 6 11 1 17 -2 13 -5z m200 -73 l6 -52
-102 2 c-56 1 -104 -1 -107 -4 -3 -2 -2 -16 1 -29 6 -24 7 -24 66 -12 33 7 79
14 102 16 l42 3 3 -67 3 -67 -36 -7 c-20 -3 -68 -4 -106 -2 l-69 5 0 -29 c0
-28 2 -30 28 -23 56 15 108 24 145 25 30 0 37 -4 37 -19 0 -26 -18 -31 -127
-31 l-95 0 7 -27 c9 -36 8 -35 39 -23 21 8 160 40 174 40 1 0 2 -20 2 -44 l0
-44 -76 -7 c-80 -8 -138 -3 -158 14 -16 13 -29 258 -20 349 6 49 11 65 28 75
23 12 186 26 199 16 4 -3 10 -29 14 -58z m24 32 c-10 -17 -10 -16 -11 3 0 23
13 41 18 25 2 -6 -1 -18 -7 -28z m-281 -35 c0 -36 -4 -35 -14 5 -4 16 -2 27 4
27 5 0 10 -14 10 -32z m107 -74 c-3 -3 -12 -4 -19 -1 -8 3 -5 6 6 6 11 1 17
-2 13 -5z m-60 -340 c-3 -3 -12 -4 -19 -1 -8 3 -5 6 6 6 11 1 17 -2 13 -5z"/>
<path d="M140 1003 c0 -13 6 -23 13 -23 32 1 188 28 194 34 8 8 7 8 -109 10
-96 2 -98 2 -98 -21z"/>
<path d="M494 828 c5 -53 23 -61 31 -14 8 38 1 56 -21 56 -10 0 -13 -10 -10
-42z"/>
<path d="M1111 856 c-7 -9 -9 -21 -5 -28 5 -7 7 -21 6 -30 -6 -32 26 -19 33
13 9 40 -14 69 -34 45z"/>
<path d="M740 547 c0 -14 -4 -29 -10 -32 -6 -4 -4 -17 5 -35 8 -16 40 -111 70
-211 30 -100 57 -184 59 -187 3 -3 31 2 63 11 32 9 82 19 111 23 28 4 52 10
52 14 0 7 -31 119 -65 235 -17 59 -33 130 -37 164 -3 22 -6 23 -103 26 -55 1
-110 6 -122 10 -20 6 -23 4 -23 -18z m190 -21 c0 -2 3 -11 6 -20 5 -14 -4 -16
-65 -16 -64 0 -71 -2 -71 -20 0 -20 15 -28 22 -11 2 5 32 11 67 13 l65 3 33
-80 c18 -44 33 -83 33 -87 0 -5 -40 -8 -90 -8 -81 0 -90 -2 -90 -18 0 -29 8
-31 58 -17 26 8 65 15 87 17 39 3 40 2 54 -40 7 -24 11 -45 9 -47 -2 -3 -42
-5 -89 -6 -46 -1 -90 -6 -96 -12 -9 -7 -13 -5 -13 6 0 9 13 18 33 22 17 3 50
10 72 15 22 5 49 11 60 14 11 2 -22 4 -72 5 -82 1 -93 -1 -94 -16 -1 -28 -57
155 -67 219 -9 60 -7 71 18 81 17 6 130 9 130 3z m40 -11 c0 -8 -2 -15 -4 -15
-2 0 -6 7 -10 15 -3 8 -1 15 4 15 6 0 10 -7 10 -15z m90 -365 c0 -18 -7 -20
-87 -20 -94 0 -101 9 -20 26 83 19 107 17 107 -6z m-186 -5 c3 -8 1 -15 -4
-15 -6 0 -10 7 -10 15 0 8 2 15 4 15 2 0 6 -7 10 -15z"/>
<path d="M810 395 c0 -21 3 -22 28 -15 15 5 50 15 77 24 l50 14 -77 0 c-74 0
-78 -2 -78 -23z"/>
<path d="M820 340 c0 -23 6 -24 86 -9 97 18 98 28 2 29 -81 0 -88 -2 -88 -20z"/>
<path d="M110 504 c0 -14 -6 -24 -14 -24 -24 0 -27 -16 -10 -50 21 -42 40
-278 26 -332 -6 -21 -6 -40 -2 -43 4 -3 25 2 46 11 22 9 78 19 127 22 48 3 90
9 94 15 3 6 7 87 8 181 1 94 5 187 9 207 l8 37 -146 0 -146 0 0 -24z m259 -36
c-1 -37 -2 -39 -9 -18 -12 36 -12 60 0 60 6 0 10 -19 9 -42z m-212 26 c-3 -3
-12 -4 -19 -1 -8 3 -5 6 6 6 11 1 17 -2 13 -5z m173 -6 c0 -7 3 -23 6 -35 6
-23 5 -23 -100 -23 -86 0 -106 3 -106 14 0 20 11 25 88 41 87 17 112 18 112 3z
m22 -103 c0 -19 1 -40 2 -46 1 -8 -34 -12 -112 -13 -79 -1 -112 2 -112 11 0 7
31 14 85 18 47 4 85 11 85 16 0 5 -37 6 -85 3 -82 -7 -85 -6 -85 14 0 20 6 21
83 25 45 1 94 4 110 5 24 2 27 -1 29 -33z m6 -137 l3 -58 -64 0 c-35 0 -85 -3
-111 -6 -45 -7 -46 -6 -46 20 l0 26 93 1 c105 1 92 15 -18 18 -67 2 -84 10
-85 38 0 11 94 21 190 19 l35 -1 3 -57z m12 -109 l0 -29 -92 0 c-111 0 -138 6
-138 30 0 16 12 19 88 25 48 3 96 7 107 9 30 3 35 -2 35 -35z m-220 -43 c0 -3
-4 -8 -10 -11 -5 -3 -10 -1 -10 4 0 6 5 11 10 11 6 0 10 -2 10 -4z"/>
<path d="M532 135 c1 -55 24 -62 34 -11 7 38 0 56 -21 56 -9 0 -13 -14 -13
-45z"/>
<path d="M1152 168 c-16 -16 -15 -33 2 -47 10 -9 16 -8 25 3 25 29 -1 70 -27
44z"/>
</g>
</svg>
