<?xml version="1.0" standalone="no"?>
<!DOCTYPE svg PUBLIC "-//W3C//DTD SVG 20010904//EN"
 "http://www.w3.org/TR/2001/REC-SVG-20010904/DTD/svg10.dtd">
<svg version="1.0" xmlns="http://www.w3.org/2000/svg"
 width="114.000000pt" height="156.000000pt" viewBox="0 0 114.000000 156.000000"
 preserveAspectRatio="xMidYMid meet">
<metadata>
Created by potrace 1.16, written by Peter Selinger 2001-2019
</metadata>
<g transform="translate(0.000000,156.000000) scale(0.100000,-0.100000)"
fill="#000000" stroke="none">
<path d="M582 1514 c-14 -25 -165 -34 -191 -10 -22 20 -31 12 -31 -26 0 -28
-2 -29 -32 -23 -28 7 -30 5 -22 -11 4 -11 8 -44 9 -74 l0 -55 -84 -3 c-62 -2
-89 1 -107 13 -31 20 -32 20 -40 -20 -4 -22 -12 -35 -21 -35 -11 0 -14 -6 -9
-22 3 -13 6 -60 6 -105 0 -67 3 -83 15 -83 11 0 15 12 15 49 0 30 5 50 13 53
6 2 57 3 112 3 l100 0 0 -58 c0 -47 2 -56 15 -52 35 14 118 28 204 34 l91 6
-2 53 -2 52 104 0 105 0 0 -51 c0 -36 4 -49 13 -47 8 3 14 37 18 99 4 65 12
109 27 143 12 26 20 52 17 56 -5 7 -74 2 -83 -6 -2 -1 2 -12 8 -24 6 -12 10
-23 8 -25 -2 -2 -51 -6 -110 -10 l-108 -7 0 31 c0 17 11 55 24 85 26 58 25 66
-9 66 -11 0 -26 5 -32 11 -8 8 -14 6 -21 -7z m44 -61 c-11 -11 -19 6 -11 24 8
17 8 17 12 0 3 -10 2 -21 -1 -24z m-32 -10 c5 -25 10 -208 7 -240 -1 -14 -41
-17 -78 -7 -37 10 -26 24 17 24 22 0 40 5 40 10 0 6 -16 10 -35 10 -19 0 -35
5 -35 10 0 6 16 10 35 10 19 0 35 5 35 10 0 6 -13 10 -30 10 -16 0 -30 5 -30
10 0 6 14 10 31 10 40 0 28 20 -14 21 -27 2 -28 2 -7 6 35 6 53 26 20 21 -22
-3 -25 1 -28 32 -5 57 -22 60 -23 5 -1 -28 -3 -39 -6 -25 -11 70 -17 76 -23
25 l-7 -50 -1 52 c-3 73 -22 78 -24 6 l-1 -58 -6 49 c-8 68 -30 73 -23 6 3
-33 1 -50 -7 -50 -6 0 -11 -4 -11 -10 0 -5 24 -10 54 -10 l54 0 -5 -42 c-2
-24 -9 -63 -14 -87 -12 -51 -6 -61 19 -38 12 11 36 17 64 17 42 0 45 -1 41
-24 -4 -21 -12 -25 -62 -30 -97 -10 -135 -10 -173 3 -36 12 -47 29 -31 45 4 4
6 36 4 72 -2 45 1 64 9 64 10 0 10 3 1 14 -25 30 21 128 67 145 15 5 59 10 99
10 70 1 72 1 77 -26z m273 -85 c-3 -8 -6 -5 -6 6 -1 11 2 17 5 13 3 -3 4 -12
1 -19z m-39 -47 c7 -1 12 -16 12 -41 l0 -40 -79 0 c-43 0 -93 -3 -110 -6 l-31
-6 0 45 0 46 73 3 c39 2 83 2 97 1 14 -1 31 -2 38 -2z m-510 -61 c2 -23 -1
-47 -7 -53 -10 -10 -210 -11 -220 -1 -6 6 20 62 35 75 12 10 152 29 179 24 6
-1 11 -21 13 -45z"/>
<path d="M975 1078 c9 -54 13 -58 31 -33 22 30 14 69 -15 73 -22 4 -23 2 -16
-40z"/>
<path d="M536 865 c-16 -12 -17 -18 -7 -46 14 -39 8 -49 -30 -49 -32 0 -35 8
-17 57 14 39 9 47 -26 34 -25 -10 -37 -41 -16 -41 6 0 10 -12 10 -26 0 -24 -3
-26 -40 -22 -38 3 -40 2 -40 -25 0 -24 3 -28 18 -22 9 4 27 10 40 12 18 5 22
1 22 -21 0 -23 -4 -26 -33 -26 -22 0 -36 -7 -45 -21 -9 -14 -19 -18 -32 -14
-24 8 -26 -11 -5 -39 9 -12 15 -42 15 -72 0 -65 -6 -67 -139 -63 -86 4 -96 2
-93 -13 2 -11 -9 -23 -28 -33 -25 -13 -29 -19 -20 -30 6 -8 14 -48 17 -90 4
-49 10 -74 17 -72 6 2 11 17 12 34 2 64 10 68 168 76 l69 3 -6 -83 c-3 -46 -3
-83 1 -83 4 1 18 7 32 15 38 21 45 18 47 -21 l2 -36 -40 7 c-21 4 -39 3 -40
-2 0 -4 -3 -20 -5 -36 -5 -30 3 -34 32 -12 10 8 29 15 42 15 18 0 22 -5 22
-30 0 -16 5 -30 10 -30 6 0 10 16 10 35 0 32 2 35 30 35 28 0 30 -3 30 -35 0
-19 5 -35 10 -35 6 0 10 18 10 41 0 40 1 40 32 37 20 -2 33 2 36 11 3 10 -4
12 -32 9 -33 -4 -36 -2 -36 22 0 40 13 50 66 54 l49 4 3 66 3 66 88 0 c49 0
103 3 120 6 l31 7 0 -63 c0 -42 4 -60 12 -58 7 3 11 28 9 77 -1 40 2 78 6 84
10 14 37 117 32 121 -11 9 -78 -8 -81 -20 -2 -11 -29 -15 -112 -19 l-109 -4 6
94 5 95 -26 -6 c-15 -4 -29 -7 -32 -6 -49 0 -50 2 -50 42 0 38 2 40 30 40 17
0 30 5 30 10 0 6 -14 10 -31 10 -31 0 -31 1 -24 38 4 20 7 41 8 46 3 15 -17
16 -37 1z m4 -150 c0 -28 -4 -35 -19 -35 -37 0 -51 12 -51 41 0 26 3 29 35 29
33 0 35 -2 35 -35z m84 -77 c3 -13 9 -102 13 -199 l6 -176 -44 -6 c-24 -4 -84
-9 -134 -13 l-90 -6 -2 123 c-1 77 1 115 7 99 4 -14 8 -37 9 -52 1 -32 1 -32
36 -16 19 9 25 19 27 47 1 35 1 34 8 -9 6 -41 7 -42 10 -12 4 51 4 52 15 52 6
0 11 -35 13 -78 3 -76 2 -79 -20 -78 -18 1 -22 -4 -20 -19 5 -27 2 -26 47 -10
22 8 59 14 82 15 l43 0 -8 33 c-4 17 -7 88 -7 156 l0 124 -117 -7 c-126 -8
-152 1 -108 36 18 15 40 18 125 18 98 0 103 -1 109 -22z m-49 -65 c3 -10 9
-48 12 -85 l6 -66 -29 -4 c-17 -2 -28 -8 -26 -15 1 -7 -2 -13 -8 -13 -5 0 -10
9 -10 19 0 13 9 21 30 26 17 4 30 11 30 16 0 6 -4 8 -9 5 -18 -11 -41 7 -41
31 0 21 -4 25 -24 21 -15 -3 -27 0 -30 8 -6 15 -36 8 -48 -10 -5 -7 -8 -7 -8
2 0 6 -7 12 -15 12 -8 0 -15 -4 -15 -10 0 -5 -4 -10 -10 -10 -5 0 -10 15 -10
34 0 33 2 35 43 40 23 3 53 7 67 10 62 9 88 6 95 -11z m354 -65 c0 -7 -4 -22
-9 -33 -7 -17 -9 -15 -9 13 -1 17 4 32 9 32 6 0 10 -6 9 -12z m-37 -64 c2 -19
2 -37 -1 -38 -3 -2 -57 -5 -118 -5 l-113 -2 0 40 0 41 114 0 114 0 4 -36z
m-722 12 c0 -2 -7 -6 -15 -10 -8 -3 -15 -1 -15 4 0 6 7 10 15 10 8 0 15 -2 15
-4z m180 -36 l0 -40 -62 0 c-35 0 -87 -3 -116 -7 -52 -6 -54 -5 -50 18 2 18
13 27 43 37 45 15 116 29 158 31 25 1 27 -2 27 -39z m240 -30 c0 -13 -11 -13
-30 0 -12 8 -11 10 8 10 12 0 22 -4 22 -10z m0 -31 c0 -5 -16 -9 -35 -9 -19 0
-35 4 -35 8 0 4 16 8 35 9 19 1 35 -3 35 -8z m-12 -36 c-10 -2 -28 -2 -40 0
-13 2 -5 4 17 4 22 1 32 -1 23 -4z m-75 -100 c3 -5 8 -23 12 -40 6 -32 5 -33
-24 -33 -27 0 -31 3 -31 28 0 37 30 67 43 45z"/>
<path d="M997 315 c-9 -22 3 -46 22 -43 10 2 16 13 16 28 0 28 -29 40 -38 15z"/>
</g>
</svg>
