<?xml version="1.0" standalone="no"?>
<!DOCTYPE svg PUBLIC "-//W3C//DTD SVG 20010904//EN"
 "http://www.w3.org/TR/2001/REC-SVG-20010904/DTD/svg10.dtd">
<svg version="1.0" xmlns="http://www.w3.org/2000/svg"
 width="136.000000pt" height="362.000000pt" viewBox="0 0 136.000000 362.000000"
 preserveAspectRatio="xMidYMid meet">
<metadata>
Created by potrace 1.16, written by Peter Selinger 2001-2019
</metadata>
<g transform="translate(0.000000,362.000000) scale(0.100000,-0.100000)"
fill="#000000" stroke="none">
<path d="M287 3568 c-4 -12 -12 -18 -24 -16 -15 2 -17 -2 -14 -27 8 -63 6
-381 -3 -409 -8 -27 -8 -29 15 -23 26 8 212 32 329 44 l75 8 0 72 c0 39 2 73
5 76 3 2 38 7 78 10 l72 6 0 -45 c0 -24 5 -44 10 -44 6 0 10 21 11 48 1 58 7
98 19 136 18 53 18 53 -92 48 l-101 -5 6 61 7 60 -73 6 c-39 3 -127 7 -194 9
-113 4 -122 3 -126 -15z m338 -94 c7 -74 7 -77 -19 -103 l-27 -26 -25 30 c-14
17 -35 51 -47 78 -12 26 -24 47 -27 47 -13 0 -74 -73 -64 -76 23 -9 134 -78
134 -84 0 -6 -108 3 -173 15 l-37 7 0 -41 c0 -38 2 -41 23 -36 42 9 141 25
155 25 24 0 -4 -26 -72 -67 -33 -20 -63 -38 -66 -40 -2 -2 1 -13 8 -23 12 -19
9 -20 -49 -20 l-61 0 4 168 c2 104 8 175 16 189 13 24 37 27 224 31 l96 2 7
-76z m22 54 c-3 -8 -6 -5 -6 6 -1 11 2 17 5 13 3 -3 4 -12 1 -19z m-155 -98
l17 -30 -29 15 c-30 15 -36 26 -23 38 11 12 18 8 35 -23z m330 -44 c6 -52 1
-56 -60 -56 -82 0 -102 8 -102 38 0 37 27 51 96 52 l62 0 4 -34z m-182 -31 c0
-8 -7 -15 -16 -15 -14 0 -14 3 -4 15 7 8 14 15 16 15 2 0 4 -7 4 -15z m-225
-35 c-28 -12 -55 -12 -55 0 0 6 17 10 38 9 30 0 33 -2 17 -9z m225 -27 c0 -26
-1 -26 -15 -7 -19 25 -19 34 0 34 10 0 15 -10 15 -27z m-32 -14 c27 -24 34
-38 35 -72 l2 -42 -102 -3 c-57 -1 -103 1 -103 6 0 11 119 142 128 142 4 0 22
-14 40 -31z m-179 -91 c-9 -16 -14 -19 -17 -9 -2 7 2 17 9 22 20 13 21 11 8
-13z m-99 -58 c-36 -12 -62 -12 -55 0 3 6 23 10 43 9 33 -1 34 -2 12 -9z"/>
<path d="M94 3446 c-3 -9 -11 -16 -18 -15 -30 4 -34 -1 -27 -29 5 -15 12 -67
16 -115 7 -92 22 -116 27 -44 l3 42 73 8 c76 9 97 26 35 28 -66 3 -104 7 -110
12 -3 3 -2 19 2 35 6 28 10 30 72 38 87 12 98 34 16 34 -33 0 -64 5 -71 12 -9
9 -13 7 -18 -6z"/>
<path d="M946 3163 c4 -21 8 -40 10 -42 9 -10 25 17 27 45 2 23 -2 30 -21 32
-22 3 -23 1 -16 -35z"/>
<path d="M747 2948 c-21 -7 -26 -14 -21 -27 4 -9 9 -58 12 -108 l4 -93 -48 0
-48 0 34 35 c43 45 18 47 -27 3 l-34 -33 -34 40 c-19 22 -37 48 -40 58 -10 28
-23 20 -34 -20 -15 -52 -16 -50 29 -57 22 -3 40 -11 40 -16 0 -13 -17 -12 -65
5 -21 8 -40 13 -41 12 -5 -6 -22 -102 -19 -106 2 -2 11 4 19 12 17 17 84 42
92 34 3 -3 -11 -15 -30 -27 -20 -12 -36 -26 -36 -31 0 -12 29 -69 35 -69 2 0
17 25 31 55 41 84 47 86 99 35 25 -24 48 -41 51 -37 4 3 -10 23 -30 43 -20 20
-36 38 -36 40 0 2 18 4 40 4 l40 0 0 -80 0 -79 -32 -5 c-18 -3 -79 -13 -134
-21 -56 -9 -116 -15 -133 -13 l-31 3 -5 158 c-3 108 -1 165 7 183 19 42 66 54
196 52 81 -1 117 2 120 10 3 9 -29 12 -115 12 -83 1 -125 5 -143 15 -35 20
-48 18 -52 -7 -2 -18 -9 -23 -32 -21 -25 2 -27 -1 -21 -20 3 -12 9 -40 12 -63
5 -37 3 -42 -18 -47 -42 -12 -194 -8 -207 5 -9 9 -13 7 -18 -5 -4 -11 -18 -17
-40 -17 -36 0 -44 -16 -21 -38 7 -8 14 -50 17 -100 5 -82 21 -117 28 -62 6 41
19 47 110 54 48 4 103 9 122 12 l35 5 -6 -103 c-4 -57 -5 -106 -2 -111 2 -4
25 7 49 24 25 17 60 35 77 40 24 6 235 39 254 39 2 0 3 25 3 55 0 50 2 56 30
70 21 11 61 15 145 15 l115 0 0 -35 c0 -19 4 -35 9 -35 9 0 23 105 25 182 1
42 16 65 16 24 0 -16 4 -25 10 -21 6 3 10 14 10 25 0 10 8 21 17 24 29 11 0
23 -45 18 -40 -4 -43 -6 -38 -27 6 -23 5 -24 -90 -27 -93 -3 -138 4 -178 28
-19 12 -19 13 2 69 31 81 30 85 -31 63z m23 -28 c0 -5 -5 -10 -11 -10 -5 0 -7
5 -4 10 3 6 8 10 11 10 2 0 4 -4 4 -10z m-320 -4 c0 -3 -4 -8 -10 -11 -5 -3
-10 -1 -10 4 0 6 5 11 10 11 6 0 10 -2 10 -4z m95 -136 c3 -5 1 -10 -4 -10 -6
0 -11 5 -11 10 0 6 2 10 4 10 3 0 8 -4 11 -10z m240 0 c3 -5 -1 -10 -9 -10 -9
0 -16 5 -16 10 0 6 4 10 9 10 6 0 13 -4 16 -10z m265 -32 c0 -13 -3 -33 -6
-45 -6 -22 -9 -23 -134 -20 -129 2 -165 12 -154 42 8 20 31 27 124 35 161 14
170 13 170 -12z m-680 -47 l0 -49 -104 -7 c-79 -6 -112 -4 -135 6 -38 17 -38
21 -3 54 36 34 71 43 165 44 l77 1 0 -49z m150 4 c0 -2 -7 -5 -15 -9 -9 -3
-15 0 -15 9 0 9 6 12 15 9 8 -4 15 -7 15 -9z m30 -76 c-7 -11 -14 -18 -17 -15
-3 3 0 12 7 21 18 21 23 19 10 -6z m-130 -158 c0 -5 -7 -11 -15 -15 -9 -3 -15
0 -15 9 0 8 7 15 15 15 8 0 15 -4 15 -9z"/>
<path d="M1117 2593 c-4 -7 -2 -67 2 -82 1 -2 8 2 16 9 20 16 20 80 1 80 -8 0
-17 -3 -19 -7z"/>
<path d="M465 2370 c-3 -5 -3 -15 1 -23 7 -18 -50 -31 -76 -17 -10 6 -21 10
-24 10 -13 0 -5 -25 16 -47 15 -16 23 -40 26 -78 l4 -55 -88 -1 c-106 -1 -143
0 -167 7 -13 4 -20 -1 -24 -15 -6 -23 -32 -28 -51 -9 -21 21 -25 0 -8 -42 10
-25 16 -70 16 -120 0 -43 5 -82 10 -85 6 -4 10 11 10 38 l0 44 88 11 c48 6
117 11 155 12 l67 1 0 -76 c0 -42 -4 -75 -10 -75 -12 0 -41 -55 -33 -63 3 -4
13 -2 22 2 9 5 63 12 121 17 58 5 110 9 115 10 6 1 27 2 48 3 l37 1 0 84 c0
101 -9 96 167 96 l122 0 3 -27 c2 -14 9 -28 16 -31 9 -3 12 17 12 78 0 66 4
89 20 116 12 18 17 34 13 37 -15 8 -83 -5 -83 -17 0 -11 -139 -12 -227 0 -38
5 -43 8 -44 32 -3 56 3 117 13 130 16 19 2 26 -45 24 -41 -2 -105 7 -180 26
-20 6 -39 6 -42 2z m221 -77 c8 -31 12 -439 4 -446 -9 -8 -187 -17 -219 -11
l-31 7 0 104 c0 85 3 103 13 95 8 -7 18 -7 27 -2 8 6 24 10 34 10 17 0 16 -4
-9 -30 -23 -24 -27 -34 -19 -47 6 -9 16 -19 22 -21 12 -4 16 3 26 51 8 34 26
36 26 2 0 -14 5 -25 10 -25 6 0 10 14 10 30 l0 31 22 -21 c12 -11 25 -20 30
-20 13 0 9 17 -7 30 -8 7 -15 16 -15 21 0 5 7 9 15 9 8 0 15 5 15 10 0 6 -9
10 -20 10 -24 0 -26 13 -5 30 8 7 12 16 9 21 -3 5 -14 -1 -25 -13 l-20 -23 5
48 c6 47 5 47 -24 47 -34 0 -36 -4 -15 -54 21 -49 2 -46 -23 5 -19 38 -21 39
-31 21 -13 -24 -14 -52 -3 -52 5 0 17 -7 28 -15 17 -13 15 -14 -30 -13 l-49 1
6 96 c3 53 9 103 12 112 4 11 23 15 67 17 34 2 64 5 67 7 2 3 24 5 47 5 39 0
44 -3 50 -27z m-256 -9 c0 -8 -4 -12 -10 -9 -5 3 -10 10 -10 16 0 5 5 9 10 9
6 0 10 -7 10 -16z m-12 -207 l3 -58 -150 3 c-82 2 -153 6 -157 11 -4 4 0 22 8
41 14 29 23 34 75 44 66 13 108 18 173 17 l45 0 3 -58z m597 33 c4 -6 4 -27 0
-48 l-6 -37 -112 1 c-193 2 -177 -3 -177 49 l0 45 144 0 c89 0 147 -4 151 -10z"/>
<path d="M1005 2200 c-3 -5 1 -10 9 -10 9 0 16 5 16 10 0 6 -4 10 -9 10 -6 0
-13 -4 -16 -10z"/>
<path d="M1115 1933 c8 -44 10 -47 24 -38 6 3 11 22 11 41 0 28 -4 34 -21 34
-19 0 -21 -4 -14 -37z"/>
<path d="M552 1622 c-25 -4 -25 -2 -6 -71 7 -24 7 -24 -49 -17 -52 6 -57 4
-57 -13 0 -12 -11 -23 -32 -31 -30 -10 -31 -12 -16 -24 10 -8 21 -33 24 -59
l6 -45 -65 -7 c-36 -4 -100 -6 -142 -3 -41 2 -75 0 -75 -4 0 -4 -18 -11 -40
-14 -48 -8 -59 -20 -34 -39 15 -10 19 -33 25 -121 8 -125 6 -114 19 -114 6 0
10 25 10 55 l0 55 154 0 154 0 4 -71 c2 -39 0 -79 -4 -89 -11 -29 4 -31 61
-10 28 11 56 20 61 20 6 0 10 -18 10 -41 0 -27 4 -39 12 -37 6 2 12 22 12 44
1 28 5 39 16 39 11 0 16 -13 18 -43 4 -52 22 -46 22 9 0 38 1 39 38 40 20 1
47 0 59 -1 21 -1 22 3 25 71 l3 73 35 7 c19 4 89 9 155 10 l120 2 0 -24 c0
-13 5 -26 10 -29 6 -3 12 33 15 95 3 69 11 110 23 132 21 39 22 67 3 60 -8 -3
-31 -9 -51 -13 -29 -5 -35 -10 -30 -25 6 -19 0 -19 -132 -17 l-138 3 2 78 3
77 -71 0 -71 0 7 33 c4 17 9 40 11 50 4 13 -1 17 -25 17 -34 0 -35 -5 -22 -62
8 -36 8 -38 -15 -38 -27 0 -30 15 -12 55 13 30 3 43 -30 37z m64 -130 c1 -6 2
-19 3 -27 2 -28 21 -15 21 15 0 29 2 30 45 30 40 0 47 -3 55 -26 12 -29 13
-140 3 -312 l-6 -122 -44 0 -45 0 7 40 c6 34 4 39 -9 34 -9 -3 -35 -7 -58 -8
-33 -1 -42 -5 -39 -16 15 -58 17 -56 -41 -50 l-53 5 -3 209 c-2 145 1 213 9
222 6 8 29 14 50 14 32 0 39 -3 39 -20 0 -11 5 -20 10 -20 6 0 10 8 10 18 0
10 3 22 7 26 11 10 38 2 39 -12z m494 -99 c0 -5 -4 -15 -10 -23 -11 -18 -25
-7 -17 15 6 15 27 21 27 8z m-39 -64 c5 -7 8 -36 7 -64 l-3 -50 -150 0 -150 0
0 60 0 60 80 6 c124 10 205 5 216 -12z m-650 -26 c1 -21 3 -52 5 -70 l2 -31
-94 -7 c-51 -4 -123 -4 -159 0 -59 6 -65 9 -65 29 0 39 21 86 38 87 10 0 69 6
132 14 63 7 121 13 128 14 7 1 13 -13 13 -36z m189 -253 c-22 -14 -30 -1 -18
26 l12 26 10 -22 c7 -16 6 -24 -4 -30z m-120 -24 c0 -2 -7 -6 -15 -10 -8 -3
-15 -1 -15 4 0 6 7 10 15 10 8 0 15 -2 15 -4z"/>
<path d="M536 1384 c-17 -25 -17 -26 24 -66 l40 -41 -60 7 c-58 7 -60 6 -66
-19 -9 -34 -1 -40 37 -26 18 6 52 11 78 11 39 0 51 -5 83 -37 25 -24 38 -32
38 -22 0 9 -9 24 -20 34 -23 21 -18 34 13 37 12 0 2 4 -22 7 -43 6 -46 8 -80
73 -20 37 -39 68 -42 68 -4 0 -14 -12 -23 -26z m34 -35 c0 -6 -4 -7 -10 -4 -5
3 -10 11 -10 16 0 6 5 7 10 4 6 -3 10 -11 10 -16z"/>
<path d="M1153 1150 c3 -47 17 -54 35 -17 15 31 6 57 -19 57 -16 0 -18 -7 -16
-40z"/>
<path d="M462 809 c3 -32 5 -34 38 -31 34 2 35 1 37 -37 l2 -39 -34 8 c-40 9
-47 5 -39 -26 4 -15 2 -24 -5 -24 -6 0 -11 5 -11 10 0 6 -4 10 -8 10 -4 0 -8
-63 -7 -139 0 -77 -3 -142 -7 -146 -4 -4 -67 -8 -140 -9 l-133 -1 3 25 c7 57
21 76 70 89 26 8 81 17 122 20 78 6 105 26 35 25 -208 -2 -215 -3 -215 -23 0
-14 -8 -21 -27 -23 -20 -2 -27 -8 -23 -18 2 -8 6 -59 8 -112 2 -54 8 -98 13
-98 5 0 9 17 9 39 l0 38 53 7 c28 3 91 6 139 6 l86 0 -3 -115 c-3 -116 -1
-124 33 -106 9 4 29 11 45 15 26 6 27 5 27 -35 l0 -42 -56 7 -55 6 3 -32 c2
-20 8 -32 16 -30 45 9 159 23 225 28 87 6 105 24 25 24 l-53 0 0 43 0 42 45 3
c94 5 90 1 90 106 l0 94 123 6 c185 9 177 11 177 -36 0 -67 18 -32 25 50 4 42
15 96 25 119 10 24 16 44 12 46 -4 3 -24 2 -44 0 -25 -4 -38 -10 -38 -20 0
-10 -6 -13 -16 -9 -9 3 -72 6 -140 6 l-124 0 0 33 c0 17 5 50 11 72 20 77 24
72 -58 74 -48 1 -53 12 -28 61 13 26 21 30 55 30 22 0 40 4 40 9 0 4 -66 11
-147 14 -82 3 -156 8 -166 12 -16 7 -18 3 -15 -26z m188 -57 c0 -21 -2 -41 -5
-43 -2 -3 -20 -3 -40 -1 -37 4 -41 14 -25 56 7 20 16 26 40 26 28 0 30 -2 30
-38z m10 -142 c5 0 10 17 12 38 3 34 6 37 33 37 l30 0 8 -95 c4 -52 6 -162 5
-245 l-3 -150 -52 -3 c-57 -3 -65 7 -43 49 16 28 4 40 -25 27 -22 -10 -24 -16
-19 -45 6 -31 4 -33 -20 -33 -30 0 -35 23 -11 56 18 27 14 31 -30 26 -21 -3
-35 -10 -35 -18 0 -8 5 -14 10 -14 6 0 10 -11 10 -25 0 -22 -4 -25 -40 -25
l-40 0 1 63 c1 131 17 344 27 362 6 11 13 28 16 38 3 9 15 17 26 17 16 0 20
-6 20 -35 0 -19 5 -35 10 -35 6 0 10 18 10 39 0 40 0 40 43 43 l42 3 3 -37 c2
-21 7 -38 12 -38z m410 -162 l0 -53 -150 3 -150 3 0 50 0 49 150 0 150 0 0
-52z m-460 -322 c0 -45 -10 -57 -42 -48 -28 7 -24 70 5 82 35 14 37 12 37 -34z"/>
<path d="M583 563 c-18 -9 -33 -20 -33 -24 0 -4 15 -20 33 -35 l32 -27 -45 6
c-25 3 -55 9 -67 13 -22 6 -23 3 -23 -40 0 -50 4 -53 53 -33 71 30 84 30 96
-3 5 -17 15 -30 20 -30 14 0 14 16 1 41 -9 16 -7 19 15 19 16 0 25 6 25 15 0
10 -10 15 -30 15 -29 0 -30 1 -30 50 0 55 -1 56 -47 33z m27 -33 c0 -5 -4 -10
-10 -10 -5 0 -10 5 -10 10 0 6 5 10 10 10 6 0 10 -4 10 -10z m-72 -81 c-19
-13 -28 -11 -28 5 0 9 7 12 21 9 16 -4 17 -8 7 -14z"/>
<path d="M1040 429 c0 -5 5 -7 10 -4 6 3 10 8 10 11 0 2 -4 4 -10 4 -5 0 -10
-5 -10 -11z"/>
<path d="M1164 435 c-7 -18 3 -35 21 -35 15 0 28 27 19 41 -8 14 -34 11 -40
-6z"/>
</g>
</svg>
