<?xml version="1.0" standalone="no"?>
<!DOCTYPE svg PUBLIC "-//W3C//DTD SVG 20010904//EN"
 "http://www.w3.org/TR/2001/REC-SVG-20010904/DTD/svg10.dtd">
<svg version="1.0" xmlns="http://www.w3.org/2000/svg"
 width="149.000000pt" height="57.000000pt" viewBox="0 0 149.000000 57.000000"
 preserveAspectRatio="xMidYMid meet">
<metadata>
Created by potrace 1.16, written by Peter Selinger 2001-2019
</metadata>
<g transform="translate(0.000000,57.000000) scale(0.100000,-0.100000)"
fill="#000000" stroke="none">
<path d="M373 563 c208 -2 546 -2 750 0 205 1 35 2 -378 2 -412 0 -580 -1
-372 -2z"/>
<path d="M830 486 c0 -23 -4 -26 -35 -26 -40 0 -39 2 -21 -41 10 -25 12 -65 9
-167 -4 -99 -3 -133 6 -128 6 4 11 16 11 26 0 21 31 45 70 55 l25 6 -3 -83
c-2 -57 0 -80 7 -73 5 6 11 44 13 85 l3 75 165 3 c99 1 169 7 175 13 7 8 -42
10 -165 7 -170 -3 -175 -2 -178 17 -2 12 9 38 23 58 14 21 25 40 25 42 0 3
-71 0 -98 -5 -1 0 3 -10 9 -22 7 -13 16 -38 20 -56 9 -41 -5 -49 -55 -32 l-35
11 5 52 c7 74 25 127 46 138 9 5 109 14 220 18 182 9 204 8 216 -7 13 -17 17
-82 4 -82 -7 0 -6 -249 2 -257 2 -3 7 26 11 64 10 111 14 127 40 155 30 33 32
52 5 45 -30 -8 -33 8 -11 59 12 26 21 51 21 56 0 10 -79 8 -85 -3 -8 -12 -368
2 -422 17 -20 5 -23 2 -23 -20z m63 -6 c16 0 -14 -20 -30 -20 -7 0 -13 7 -13
16 0 11 5 14 16 10 9 -3 21 -6 27 -6z m437 -14 c0 -8 -4 -18 -10 -21 -5 -3
-10 3 -10 14 0 12 5 21 10 21 6 0 10 -6 10 -14z m-520 -42 c0 -8 -5 -12 -10
-9 -6 4 -8 11 -5 16 9 14 15 11 15 -7z m520 -73 c0 -6 -4 -13 -10 -16 -5 -3
-10 1 -10 9 0 9 5 16 10 16 6 0 10 -4 10 -9z m-418 -33 c-7 -7 -12 -8 -12 -2
0 14 12 26 19 19 2 -3 -1 -11 -7 -17z m-82 -108 c0 -5 -7 -10 -15 -10 -8 0
-15 5 -15 10 0 6 7 10 15 10 8 0 15 -4 15 -10z"/>
<path d="M110 475 c0 -21 -5 -25 -30 -25 -34 0 -34 1 -19 -36 5 -16 10 -77 10
-136 0 -59 3 -109 7 -112 7 -4 28 -1 92 15 12 3 16 -9 18 -56 4 -85 22 -95 22
-12 l0 66 33 5 c17 3 83 7 146 10 66 3 119 11 125 17 8 9 -28 10 -143 5 -145
-7 -153 -6 -147 11 4 10 10 30 13 45 5 25 3 27 -23 25 -26 -2 -29 -6 -29 -39
0 -47 -4 -50 -51 -40 -44 9 -42 1 -23 129 10 69 16 84 33 89 27 9 355 21 366
14 18 -11 30 -104 28 -208 -4 -152 15 -144 24 10 4 68 11 143 17 168 6 25 10
48 11 51 0 4 -66 7 -147 8 -142 1 -231 6 -300 17 -30 4 -33 3 -33 -21z m45 -5
c3 -5 1 -10 -4 -10 -6 0 -11 5 -11 10 0 6 2 10 4 10 3 0 8 -4 11 -10z m404
-48 c0 -24 -1 -25 -9 -7 -12 28 -12 47 0 40 6 -3 10 -18 9 -33z m-462 -39 c-4
-17 -4 -17 -12 0 -4 9 -4 25 0 35 8 16 8 16 12 0 3 -10 3 -26 0 -35z m117
-128 c-4 -8 -8 -15 -10 -15 -2 0 -4 7 -4 15 0 8 4 15 10 15 5 0 7 -7 4 -15z"/>
<path d="M645 170 c-4 -6 -1 -17 5 -25 7 -8 10 -22 6 -30 -3 -8 -1 -15 5 -15
14 0 33 46 26 64 -7 18 -33 21 -42 6z"/>
<path d="M1376 154 c-7 -19 1 -34 19 -34 18 0 26 25 12 39 -15 15 -24 14 -31
-5z"/>
</g>
</svg>
