<?xml version="1.0" standalone="no"?>
<!DOCTYPE svg PUBLIC "-//W3C//DTD SVG 20010904//EN"
 "http://www.w3.org/TR/2001/REC-SVG-20010904/DTD/svg10.dtd">
<svg version="1.0" xmlns="http://www.w3.org/2000/svg"
 width="103.000000pt" height="69.000000pt" viewBox="0 0 103.000000 69.000000"
 preserveAspectRatio="xMidYMid meet">
<metadata>
Created by potrace 1.16, written by Peter Selinger 2001-2019
</metadata>
<g transform="translate(0.000000,69.000000) scale(0.100000,-0.100000)"
fill="#000000" stroke="none">
<path d="M714 625 c-13 -17 -31 -25 -59 -28 -45 -4 -44 4 -26 -126 6 -47 8
-87 5 -90 -8 -8 -144 -19 -240 -20 -77 -1 -82 0 -88 22 l-6 22 -15 -22 c-18
-26 -45 -31 -45 -8 0 8 -5 15 -10 15 -6 0 -13 -7 -16 -15 -4 -8 -15 -15 -25
-15 -15 0 -19 7 -19 34 l0 34 63 7 c34 4 70 9 80 11 10 2 57 6 105 9 264 18
254 30 -26 31 -119 0 -229 3 -243 7 -21 5 -28 3 -31 -11 -3 -11 -16 -18 -33
-20 -16 -1 -30 -4 -32 -6 -2 -2 0 -30 6 -62 5 -33 13 -116 16 -186 4 -71 11
-128 16 -128 5 0 9 16 9 35 0 32 2 35 30 35 29 0 30 -1 30 -51 0 -33 4 -48 11
-44 6 4 9 26 7 48 -2 33 1 43 15 45 13 3 17 -3 17 -25 0 -15 4 -35 10 -43 8
-12 10 -12 16 3 3 9 3 28 0 42 -6 23 -3 25 24 25 28 0 30 -3 30 -35 0 -46 18
-45 22 2 4 43 -9 40 186 44 l134 3 22 -46 22 -46 88 94 c48 52 112 113 142
136 30 24 54 48 54 54 0 6 -39 48 -86 94 -81 78 -123 141 -124 183 0 24 -13
21 -36 -8z m36 -67 c0 -5 -9 -4 -20 2 -21 11 -25 22 -13 34 8 7 33 -21 33 -36z
m-90 -18 c0 -16 -4 -30 -10 -30 -5 0 -10 14 -10 30 0 17 5 30 10 30 6 0 10
-13 10 -30z m56 -13 c-14 -10 -15 -20 -6 -66 5 -29 10 -104 10 -165 l0 -111
-30 -17 -30 -17 -1 27 c-4 72 3 243 12 297 16 88 15 88 40 75 18 -10 19 -13 5
-23z m150 -102 c35 -31 64 -62 64 -68 -1 -18 -162 -147 -183 -147 -11 0 -4
270 7 288 9 15 23 6 112 -73z m-632 36 c5 -8 -94 -24 -102 -16 -2 2 -1 8 3 14
7 13 91 15 99 2z m-135 -33 c-1 -7 -5 -24 -9 -38 -7 -23 -8 -23 -9 -3 -1 12
-4 28 -7 37 -4 11 -1 16 10 16 9 0 16 -6 15 -12z m51 -38 c0 -23 -4 -30 -20
-30 -20 0 -25 15 -14 44 11 28 34 18 34 -14z m482 -64 c9 -45 -1 -48 -166 -54
l-156 -5 0 36 0 36 128 4 c70 1 141 4 158 5 26 2 32 -2 36 -22z m-422 -26 c0
-33 -3 -40 -20 -40 -17 0 -20 7 -20 40 0 33 3 40 20 40 17 0 20 -7 20 -40z
m75 0 c0 -31 -3 -35 -27 -38 -27 -3 -28 -1 -28 38 0 39 2 41 27 38 24 -3 27
-8 28 -38z m-135 -5 c0 -32 -2 -35 -31 -35 -24 0 -30 3 -25 16 3 9 6 24 6 35
0 14 7 19 25 19 22 0 25 -4 25 -35z m480 -74 c0 -27 -2 -28 -61 -35 -34 -3
-106 -6 -160 -6 l-99 0 0 30 c0 29 0 29 68 33 37 2 109 4 160 5 l92 2 0 -29z
m-420 -17 c0 -28 -3 -35 -17 -32 -31 6 -29 68 2 68 11 0 15 -10 15 -36z m78 4
c-2 -28 -7 -33 -28 -33 -16 0 -26 6 -28 18 -6 30 6 47 33 47 24 0 26 -3 23
-32z m-138 -9 c0 -27 -3 -30 -27 -27 -22 2 -29 9 -31 31 -3 24 0 27 27 27 28
0 31 -3 31 -31z m558 -59 c-12 -19 -28 -27 -28 -14 0 6 30 33 38 34 1 0 -3 -9
-10 -20z"/>
</g>
</svg>
