<?xml version="1.0" standalone="no"?>
<!DOCTYPE svg PUBLIC "-//W3C//DTD SVG 20010904//EN"
 "http://www.w3.org/TR/2001/REC-SVG-20010904/DTD/svg10.dtd">
<svg version="1.0" xmlns="http://www.w3.org/2000/svg"
 width="92.000000pt" height="70.000000pt" viewBox="0 0 92.000000 70.000000"
 preserveAspectRatio="xMidYMid meet">
<metadata>
Created by potrace 1.16, written by Peter Selinger 2001-2019
</metadata>
<g transform="translate(0.000000,70.000000) scale(0.100000,-0.100000)"
fill="#000000" stroke="none">
<path d="M136 524 c-6 -22 -12 -25 -39 -22 -35 3 -35 5 -19 -76 6 -28 8 -119
4 -209 -4 -120 -2 -158 6 -153 7 4 12 27 12 52 l0 44 40 0 c39 0 40 -1 40 -36
0 -21 4 -33 10 -29 6 3 10 19 10 35 l0 29 276 1 c185 0 281 -3 290 -11 14 -12
15 -10 34 146 6 50 18 116 26 149 8 32 13 60 11 62 -2 2 -116 6 -253 9 -137 3
-270 8 -296 10 -39 5 -48 3 -48 -10 0 -8 -5 -15 -11 -15 -6 0 -8 7 -5 15 6 17
0 20 -51 29 -27 4 -32 2 -37 -20z m68 -14 c-18 -18 -54 -20 -54 -4 0 9 11 14
32 14 22 0 29 -3 22 -10z m569 -60 c8 -43 1 -215 -9 -252 -5 -17 -27 -18 -286
-18 l-280 0 7 82 c4 46 11 91 16 100 17 32 11 48 -21 48 l-30 0 7 -62 c7 -70
7 -66 5 -125 l-2 -43 -41 0 -41 0 6 78 c12 145 17 180 30 197 26 36 98 44 371
42 l259 -2 9 -45z m37 23 c0 -10 -5 -25 -10 -33 -7 -11 -10 -7 -10 18 0 17 5
32 10 32 6 0 10 -8 10 -17z m-700 -13 c0 -11 -4 -20 -10 -20 -5 0 -10 9 -10
20 0 11 5 20 10 20 6 0 10 -9 10 -20z m100 -79 c0 -6 -4 -13 -10 -16 -5 -3
-10 1 -10 9 0 9 5 16 10 16 6 0 10 -4 10 -9z"/>
<path d="M466 445 c-22 -34 -20 -41 14 -55 16 -7 35 -19 42 -27 11 -14 8 -15
-22 -9 -19 4 -43 10 -52 12 -15 4 -18 -1 -18 -31 0 -31 3 -36 18 -30 36 15 84
26 94 23 7 -3 -9 -19 -35 -37 -44 -33 -45 -34 -30 -57 18 -28 33 -31 33 -6 0
9 11 31 25 47 l24 30 1 -55 c0 -39 3 -51 10 -40 5 8 10 30 10 49 l0 34 25 -23
c33 -31 32 -10 -1 29 l-26 31 66 0 c37 0 66 4 66 10 0 6 -24 10 -52 10 l-53 1
30 24 c39 32 25 44 -16 14 l-32 -23 6 35 c3 19 8 42 12 52 6 14 2 17 -25 17
l-32 0 6 -57 7 -58 -26 29 c-14 15 -29 41 -32 57 -7 35 -16 36 -37 4z m111
-17 c-3 -8 -6 -5 -6 6 -1 11 2 17 5 13 3 -3 4 -12 1 -19z"/>
</g>
</svg>
