<?xml version="1.0" standalone="no"?>
<!DOCTYPE svg PUBLIC "-//W3C//DTD SVG 20010904//EN"
 "http://www.w3.org/TR/2001/REC-SVG-20010904/DTD/svg10.dtd">
<svg version="1.0" xmlns="http://www.w3.org/2000/svg"
 width="104.000000pt" height="243.000000pt" viewBox="0 0 104.000000 243.000000"
 preserveAspectRatio="xMidYMid meet">
<metadata>
Created by potrace 1.16, written by Peter Selinger 2001-2019
</metadata>
<g transform="translate(0.000000,243.000000) scale(0.100000,-0.100000)"
fill="#000000" stroke="none">
<path d="M110 2332 c0 -26 -5 -32 -36 -42 -26 -9 -34 -16 -29 -28 16 -42 24
-107 26 -210 3 -109 4 -113 23 -107 12 4 33 9 49 12 26 5 27 4 27 -41 0 -26 5
-46 11 -46 6 0 10 15 9 33 -4 66 -3 67 44 67 26 0 46 -5 49 -12 4 -10 7 -10
15 0 7 10 70 15 263 19 140 3 257 10 260 15 3 5 9 49 12 96 4 48 16 123 27
166 11 44 20 80 20 82 0 1 -161 5 -358 7 -196 2 -369 8 -384 12 -26 7 -28 5
-28 -23z m50 -2 c0 -5 -7 -10 -15 -10 -8 0 -15 5 -15 10 0 6 7 10 15 10 8 0
15 -4 15 -10z m638 -14 c13 -8 18 -282 4 -303 -6 -9 -114 -18 -165 -14 -5 1 5
19 22 40 41 52 39 63 -4 21 -19 -19 -35 -39 -35 -45 0 -13 -126 -25 -252 -25
l-68 0 0 34 c0 47 20 63 87 70 150 15 183 17 183 13 0 -3 -16 -22 -35 -43 -34
-39 -42 -54 -27 -54 13 0 85 91 77 98 -4 4 -68 9 -142 12 -124 5 -137 3 -141
-12 -2 -10 -10 -18 -17 -18 -9 0 -11 -14 -7 -50 l5 -50 -47 0 c-44 0 -46 1
-46 28 0 16 5 54 11 86 6 32 8 60 6 63 -3 2 -19 -2 -35 -11 -29 -15 -30 -16
-16 -53 7 -21 13 -55 14 -76 0 -38 0 -39 -33 -32 -17 4 -36 10 -41 13 -5 2 -6
55 -4 116 6 127 21 169 65 181 57 16 618 25 641 11z m51 -13 c0 -10 -4 -27 -9
-38 -7 -16 -9 -13 -9 18 -1 20 4 37 9 37 6 0 10 -8 9 -17z m-765 -48 c-4 -8
-8 -15 -10 -15 -2 0 -4 7 -4 15 0 8 4 15 10 15 5 0 7 -7 4 -15z m96 -137 c0
-18 -2 -20 -9 -8 -6 8 -7 18 -5 22 9 14 14 9 14 -14z m-50 -142 c0 -9 -30 -14
-35 -6 -4 6 3 10 14 10 12 0 21 -2 21 -4z"/>
<path d="M595 2291 c-3 -5 -2 -12 3 -15 7 -4 80 0 115 7 8 1 13 -22 15 -75 2
-43 7 -78 11 -78 5 0 11 28 14 63 3 34 9 72 13 85 6 22 5 22 -79 22 -47 0 -88
-4 -92 -9z"/>
<path d="M555 2248 c4 -13 10 -44 12 -70 l5 -48 65 0 c35 0 62 3 60 8 -3 4
-28 7 -56 7 -49 0 -51 1 -51 27 0 25 3 27 53 31 l52 3 -52 2 c-73 3 -67 22 7
22 33 0 60 4 60 10 0 6 -25 10 -55 10 -30 0 -55 5 -55 10 0 6 -12 10 -26 10
-23 0 -25 -3 -19 -22z"/>
<path d="M600 2170 c0 -5 20 -10 45 -10 25 0 45 5 45 10 0 6 -20 10 -45 10
-25 0 -45 -4 -45 -10z"/>
<path d="M581 2068 c-38 -40 -41 -61 -5 -27 25 24 49 59 40 59 -3 0 -19 -15
-35 -32z"/>
<path d="M598 2045 c-26 -34 -22 -42 7 -15 25 23 32 40 18 40 -5 0 -16 -11
-25 -25z"/>
<path d="M910 2086 c0 -8 4 -17 9 -20 5 -3 7 -15 4 -26 -3 -11 0 -20 6 -20 16
0 35 45 28 64 -8 20 -47 21 -47 2z"/>
<path d="M710 1715 c-19 -7 -36 -20 -38 -29 -2 -9 -12 -16 -23 -16 -20 0 -26
-15 -9 -25 6 -3 10 -1 10 4 0 19 18 12 25 -10 9 -28 24 -7 18 25 -3 16 1 25
13 30 25 10 27 3 13 -57 -11 -45 -15 -52 -25 -39 -9 13 -12 11 -16 -11 -3 -15
-3 -29 0 -32 3 -3 7 -41 9 -84 l4 -79 -31 -4 c-16 -3 -30 -3 -30 -1 0 3 12 20
26 39 36 47 22 43 -22 -6 -20 -22 -43 -40 -52 -40 -14 0 -14 2 -1 13 22 19 53
57 46 57 -4 0 -25 -16 -47 -36 -22 -20 -43 -35 -45 -32 -11 11 52 77 80 85 26
7 23 8 -29 13 -74 6 -90 30 -21 30 30 0 44 4 39 11 -3 6 -16 8 -28 6 -11 -3
-30 -1 -41 3 -17 7 -15 9 15 16 l35 8 -30 6 c-29 5 -30 7 -28 58 1 37 -2 52
-11 52 -10 0 -12 -21 -8 -95 l5 -95 -124 -2 c-68 0 -130 -1 -137 -1 -10 1 -12
-12 -6 -53 l6 -54 -46 0 c-51 0 -49 -4 -46 88 1 39 -2 62 -9 62 -7 0 -11 -27
-11 -75 0 -74 0 -75 -26 -75 l-27 0 6 93 c3 50 11 107 17 125 7 18 11 35 9 37
-10 9 -59 -9 -59 -22 0 -9 6 -13 15 -9 9 3 15 0 15 -10 0 -8 -5 -12 -10 -9 -7
4 -10 -32 -8 -112 l3 -118 31 3 32 3 -1 -52 c0 -35 4 -54 13 -57 10 -4 11 5 6
36 -9 62 -2 72 55 72 40 0 49 -3 49 -17 1 -17 2 -17 13 -2 9 12 37 19 92 24
98 10 72 24 -29 17 l-69 -5 6 42 c3 24 7 44 9 47 7 6 219 6 225 0 4 -4 -8 -21
-25 -39 -50 -51 -44 -57 61 -57 50 0 108 3 128 6 l36 6 6 102 c4 89 20 163 52
239 8 20 -3 21 -55 2z m-150 -255 c0 -14 -67 -86 -74 -79 -7 6 54 89 66 89 4
0 8 -5 8 -10z"/>
<path d="M543 1655 c0 -8 4 -15 9 -15 4 0 8 6 8 13 0 8 4 7 10 -3 7 -10 12
-12 18 -4 4 6 14 14 22 17 8 3 -3 6 -26 6 -30 1 -41 -3 -41 -14z"/>
<path d="M126 1652 c-3 -5 -3 -17 0 -25 4 -12 23 -14 107 -10 139 8 156 21 30
25 -55 2 -99 0 -96 -4 9 -16 -10 -8 -22 9 -8 10 -14 12 -19 5z"/>
<path d="M420 1640 l-55 -7 58 -1 c32 -1 57 2 57 8 0 6 -1 9 -2 8 -2 -1 -28
-4 -58 -8z"/>
<path d="M553 1593 c9 -2 23 -2 30 0 6 3 -1 5 -18 5 -16 0 -22 -2 -12 -5z"/>
<path d="M618 1593 c12 -2 30 -2 40 0 9 3 -1 5 -23 4 -22 0 -30 -2 -17 -4z"/>
<path d="M615 1560 c-3 -5 3 -10 14 -10 11 0 23 5 26 10 3 6 -3 10 -14 10 -11
0 -23 -4 -26 -10z"/>
<path d="M893 1425 c2 -41 22 -47 31 -10 8 30 1 45 -19 45 -9 0 -13 -11 -12
-35z"/>
<path d="M873 1193 c-16 -3 -23 -12 -23 -26 0 -21 -4 -22 -97 -22 l-98 0 3
-30 c2 -16 8 -35 13 -41 5 -6 7 -50 4 -98 -4 -47 -4 -90 -1 -94 2 -4 26 -5 53
-3 l48 5 -40 6 c-25 3 -40 10 -40 19 0 16 8 18 92 23 l58 3 -1 -40 c-1 -22 -3
-58 -5 -80 -2 -22 0 -40 6 -40 5 0 17 74 26 165 9 91 22 183 28 205 13 47 13
55 4 54 -5 -1 -18 -4 -30 -6z m4 -45 c-3 -8 -6 -5 -6 6 -1 11 2 17 5 13 3 -3
4 -12 1 -19z m-190 -45 c-3 -10 -5 -4 -5 12 0 17 2 24 5 18 2 -7 2 -21 0 -30z
m163 5 c0 -15 -10 -18 -70 -18 -52 0 -70 3 -70 13 0 21 4 22 74 22 56 0 66 -3
66 -17z m8 -50 c3 -16 -6 -18 -77 -18 -64 0 -81 3 -81 15 0 10 16 15 58 18 85
5 96 4 100 -15z m2 -42 c0 -14 -59 -26 -126 -26 -49 0 -46 28 4 32 107 9 122
8 122 -6z m-10 -50 c0 -14 -77 -25 -127 -18 -45 7 -22 21 40 25 34 2 68 4 75
5 6 1 12 -4 12 -12z"/>
<path d="M515 1034 c-11 -2 -108 -5 -215 -6 -151 -3 -194 -6 -192 -16 1 -7 3
-80 3 -162 1 -83 5 -150 10 -150 5 0 9 11 9 25 0 14 6 25 13 26 6 1 30 2 52 3
l40 1 3 -57 c4 -77 22 -75 22 2 l0 60 128 0 c70 0 144 3 164 6 34 6 36 5 31
-15 -7 -26 1 -27 26 -3 11 9 27 23 35 30 25 21 18 32 -10 17 -17 -8 -61 -14
-121 -14 -53 0 -131 -3 -175 -7 l-79 -7 3 44 c2 30 8 44 18 45 8 1 77 2 153 3
81 1 137 5 137 11 0 6 -65 9 -167 7 l-168 -2 3 -52 3 -53 -55 0 c-51 0 -56 2
-56 23 0 42 22 202 28 209 4 4 90 8 192 9 215 2 302 8 294 20 -5 9 -86 10
-129 3z m-375 -44 c0 -5 -2 -10 -4 -10 -3 0 -8 5 -11 10 -3 6 -1 10 4 10 6 0
11 -4 11 -10z"/>
<path d="M622 883 c-12 -2 -20 -8 -17 -12 6 -11 55 -1 55 10 0 5 -3 8 -7 8 -5
-1 -18 -4 -31 -6z"/>
<path d="M687 794 c-26 -19 -47 -39 -47 -44 0 -13 17 -13 25 0 3 5 15 15 26
21 19 10 20 9 9 -11 -16 -29 -7 -35 15 -10 10 11 25 20 34 20 12 0 12 -3 3
-12 -26 -26 -10 -26 27 0 40 28 45 48 9 36 -17 -5 -20 -3 -15 10 6 16 5 16
-15 1 -29 -19 -44 -19 -28 0 24 29 5 24 -43 -11z"/>
<path d="M923 784 c-3 -8 -1 -20 5 -26 6 -6 8 -17 5 -24 -3 -8 1 -14 10 -14 8
0 18 12 21 26 10 40 -27 75 -41 38z"/>
<path d="M572 490 c-22 -30 -27 -51 -15 -64 4 -3 6 -48 6 -98 -1 -106 5 -98
-135 -175 -48 -26 -88 -52 -88 -56 0 -9 25 -37 34 -37 3 0 27 23 53 51 47 51
131 115 139 107 7 -7 -97 -108 -127 -124 -33 -17 -36 -26 -13 -44 13 -11 20
-7 47 26 17 21 53 62 79 90 50 53 58 67 33 57 -13 -4 -15 1 -9 38 4 23 8 71 8
106 1 72 5 76 111 92 67 10 85 3 85 -36 0 -18 -4 -23 -17 -19 -10 3 -43 6 -73
8 l-55 2 -2 -62 c-1 -35 2 -62 7 -62 6 0 10 6 10 13 0 8 3 8 9 -2 6 -10 23
-12 60 -9 37 4 51 2 51 -8 0 -15 -96 -25 -122 -12 -12 6 -18 3 -23 -12 -7 -21
0 -40 16 -40 5 0 9 9 9 21 0 14 4 18 13 12 6 -4 32 -8 57 -8 27 0 45 -5 45
-12 0 -10 -34 -50 -124 -146 -30 -31 -33 -39 -21 -47 26 -17 35 -11 58 35 12
25 40 65 62 88 34 38 41 53 49 113 6 38 10 83 9 99 -1 17 4 52 10 80 5 27 8
53 5 58 -2 4 -17 -2 -33 -13 -40 -29 -153 -29 -173 0 -13 19 -14 19 -35 -10z
m202 -115 c-4 -10 -20 -14 -60 -12 -73 3 -69 21 6 25 49 2 58 -1 54 -13z m-4
-40 c0 -12 -13 -15 -57 -15 -82 0 -54 21 40 29 9 0 17 -6 17 -14z"/>
<path d="M445 379 c-49 -3 -152 -5 -228 -5 l-139 1 5 -36 c3 -23 0 -42 -8 -50
-10 -11 -11 -31 -4 -84 6 -45 5 -81 -1 -99 -5 -16 -10 -38 -10 -49 0 -16 5
-18 28 -13 45 12 135 25 177 27 74 4 61 14 -25 19 l-85 5 2 108 c0 59 -1 107
-4 107 -17 0 -30 -36 -22 -58 6 -16 6 -29 -1 -37 -7 -9 -7 -21 0 -39 17 -45
13 -76 -10 -76 -21 0 -21 2 -25 85 -2 39 13 123 24 137 8 9 235 38 313 39 69
1 129 12 113 19 -5 3 -50 3 -100 -1z m-318 -35 c-3 -3 -12 -4 -19 -1 -8 3 -5
6 6 6 11 1 17 -2 13 -5z"/>
<path d="M278 253 c-87 -4 -88 -4 -88 -30 0 -21 4 -24 23 -20 125 29 171 37
222 38 33 0 71 5 85 9 26 8 -68 9 -242 3z"/>
<path d="M605 163 c-33 -30 -77 -64 -98 -76 -20 -11 -36 -26 -34 -31 2 -6 26
-14 53 -17 43 -6 51 -4 64 15 8 11 37 45 64 74 72 77 47 76 -33 -1 -109 -105
-107 -84 2 26 68 68 54 76 -18 10z"/>
<path d="M890 125 c0 -20 4 -26 18 -23 9 2 17 12 17 23 0 11 -8 21 -17 23 -14
3 -18 -3 -18 -23z"/>
</g>
</svg>
