<?xml version="1.0" standalone="no"?>
<!DOCTYPE svg PUBLIC "-//W3C//DTD SVG 20010904//EN"
 "http://www.w3.org/TR/2001/REC-SVG-20010904/DTD/svg10.dtd">
<svg version="1.0" xmlns="http://www.w3.org/2000/svg"
 width="111.000000pt" height="66.000000pt" viewBox="0 0 111.000000 66.000000"
 preserveAspectRatio="xMidYMid meet">
<metadata>
Created by potrace 1.16, written by Peter Selinger 2001-2019
</metadata>
<g transform="translate(0.000000,66.000000) scale(0.100000,-0.100000)"
fill="#000000" stroke="none">
<path d="M142 529 c3 -33 1 -34 -34 -37 -21 -2 -38 -6 -38 -10 0 -4 5 -26 10
-50 6 -23 11 -116 12 -207 l1 -165 26 6 c14 3 42 10 62 15 42 10 615 49 726
49 87 0 80 -15 86 190 3 80 11 160 17 178 7 18 10 36 7 39 -4 3 -28 2 -54 -2
-41 -6 -45 -9 -31 -19 10 -7 22 -35 28 -62 12 -52 11 -266 -1 -286 -10 -15
-153 -25 -478 -34 l-264 -7 6 84 c3 46 13 105 21 132 l14 47 -40 0 c-34 0 -39
-3 -33 -17 15 -35 20 -89 17 -160 l-4 -73 -37 0 -38 0 -6 95 c-4 75 -2 110 13
161 10 36 22 70 28 76 20 20 362 47 575 44 90 -1 137 2 137 9 0 7 -91 10 -287
7 -262 -3 -351 2 -421 23 -21 7 -22 5 -20 -26z m128 -9 c11 -7 5 -10 -25 -11
-22 0 -48 -2 -57 -4 -10 -2 -18 3 -18 11 0 16 76 20 100 4z m717 -47 c-4 -17
-4 -17 -12 0 -4 9 -4 25 0 35 8 16 8 16 12 0 3 -10 3 -26 0 -35z m-869 -39
l-12 -29 -4 29 c-2 17 2 32 10 37 18 12 21 -3 6 -37z m82 -323 c0 -5 -18 -11
-40 -13 -28 -2 -40 0 -40 9 0 8 14 13 40 13 22 0 40 -4 40 -9z"/>
<path d="M890 524 c0 -8 5 -12 10 -9 6 4 8 11 5 16 -9 14 -15 11 -15 -7z"/>
<path d="M805 441 c-16 -18 -17 -25 -7 -39 7 -9 19 -32 28 -51 l16 -34 -57
-51 c-52 -47 -55 -52 -42 -70 14 -19 15 -19 27 4 7 12 30 42 52 66 l39 42 -15
54 c-8 29 -16 64 -18 77 l-3 23 -20 -21z"/>
<path d="M741 429 c-7 -18 -5 -29 9 -44 10 -11 25 -35 34 -53 32 -62 35 -22 4
46 -39 83 -36 80 -47 51z"/>
<path d="M641 416 c-9 -11 -7 -22 9 -48 28 -46 26 -92 -5 -115 -18 -13 -23
-24 -19 -40 7 -25 24 -31 24 -10 0 8 13 32 28 53 25 35 27 42 15 64 -7 14 -16
42 -19 63 -8 43 -17 53 -33 33z"/>
<path d="M688 418 c-3 -7 8 -30 23 -51 15 -21 30 -44 32 -50 2 -7 7 -9 11 -6
4 4 -3 32 -16 63 -22 53 -42 70 -50 44z"/>
<path d="M570 391 c-8 -16 -6 -23 8 -33 16 -11 42 -49 42 -60 0 -2 -38 -3 -85
-3 l-85 0 -30 53 c-17 28 -33 52 -37 52 -3 0 -11 -7 -18 -16 -6 -9 -22 -16
-36 -16 -24 0 -24 -1 -23 -105 1 -57 4 -106 6 -109 3 -2 8 22 12 55 6 49 11
60 29 66 l22 8 -23 4 c-16 3 -22 9 -18 20 3 8 6 17 6 19 0 11 39 2 51 -12 10
-13 10 -17 -2 -25 -10 -6 -6 -9 16 -9 23 0 41 -12 77 -52 58 -62 75 -57 23 6
l-37 46 73 0 74 -1 -27 -22 c-20 -16 -26 -28 -22 -45 6 -21 24 -31 24 -13 0 5
16 30 35 55 19 25 31 46 27 46 -10 0 -52 81 -52 99 0 18 -18 13 -30 -8z m-175
-42 c11 -17 -1 -21 -15 -4 -8 9 -8 15 -2 15 6 0 14 -5 17 -11z"/>
<path d="M756 289 c-4 -9 -23 -25 -41 -35 -38 -20 -47 -34 -35 -55 7 -10 14
-7 31 15 12 15 31 36 42 46 10 10 17 24 14 32 -3 10 -6 9 -11 -3z"/>
</g>
</svg>
