<?xml version="1.0" standalone="no"?>
<!DOCTYPE svg PUBLIC "-//W3C//DTD SVG 20010904//EN"
 "http://www.w3.org/TR/2001/REC-SVG-20010904/DTD/svg10.dtd">
<svg version="1.0" xmlns="http://www.w3.org/2000/svg"
 width="90.000000pt" height="60.000000pt" viewBox="0 0 90.000000 60.000000"
 preserveAspectRatio="xMidYMid meet">
<metadata>
Created by potrace 1.16, written by Peter Selinger 2001-2019
</metadata>
<g transform="translate(0.000000,60.000000) scale(0.100000,-0.100000)"
fill="#000000" stroke="none">
<path d="M118 523 c-3 -37 -4 -38 -41 -37 -20 1 -37 0 -37 -1 0 -1 7 -22 16
-46 12 -34 16 -81 15 -211 0 -95 4 -168 9 -168 5 0 10 17 12 37 3 33 7 38 31
41 25 3 27 1 27 -35 0 -21 4 -44 9 -52 5 -8 11 21 16 80 4 52 11 117 17 144
16 79 16 79 -17 79 -34 0 -34 -1 -22 -114 8 -77 2 -90 -37 -83 l-28 6 5 101
c3 57 13 127 24 160 16 51 23 61 48 68 26 7 594 3 601 -4 1 -2 5 -24 9 -50 l7
-48 -91 0 c-98 0 -103 3 -76 50 21 38 19 41 -27 38 -31 -2 -42 -7 -40 -17 2
-8 6 -27 9 -43 l6 -28 -59 0 c-56 0 -109 9 -146 25 -15 6 -18 1 -18 -30 0 -34
2 -37 23 -30 12 4 64 10 115 12 l92 5 0 -33 0 -32 -93 6 c-51 3 -101 9 -110
13 -14 5 -17 -1 -17 -36 0 -36 2 -41 18 -35 38 16 74 24 136 30 75 8 73 11 60
-89 l-7 -46 -186 -1 c-135 -1 -172 -4 -136 -10 27 -4 164 -7 305 -5 l255 3 6
129 c3 73 13 154 23 187 9 32 15 61 12 66 -3 4 -36 4 -73 -2 -63 -8 -274 -6
-485 6 -50 3 -100 11 -119 21 -18 9 -33 16 -35 16 -2 0 -4 -17 -6 -37z m62
-14 c0 -5 -9 -9 -20 -9 -11 0 -20 6 -20 14 0 9 7 12 20 9 11 -3 20 -9 20 -14z
m629 -26 c0 -10 -4 -27 -9 -38 -7 -16 -9 -13 -9 18 -1 20 4 37 9 37 6 0 10 -8
9 -17z m-706 -43 c-8 -31 -20 -33 -25 -5 -4 19 -1 25 12 25 13 0 17 -6 13 -20z
m490 -1 c-4 -16 -8 -17 -14 -7 -13 19 -11 28 5 28 9 0 12 -7 9 -21z m-208 -59
c-3 -5 -10 -10 -16 -10 -5 0 -9 5 -9 10 0 6 7 10 16 10 8 0 12 -4 9 -10z m326
-10 l69 0 0 -30 0 -30 -95 0 -95 0 0 29 c0 30 14 43 38 35 8 -2 45 -4 83 -4z
m-531 -57 c-1 -24 -2 -26 -11 -10 -5 9 -7 22 -4 27 10 17 15 11 15 -17z m235
-24 c-30 -12 -45 -10 -45 4 0 10 10 12 32 9 28 -4 30 -6 13 -13z m365 -65 c0
-44 -4 -64 -12 -65 -72 -5 -180 -4 -183 2 -3 4 -2 34 1 68 l7 60 86 3 c47 2
89 2 94 0 4 -2 7 -32 7 -68z"/>
</g>
</svg>
