<?xml version="1.0" standalone="no"?>
<!DOCTYPE svg PUBLIC "-//W3C//DTD SVG 20010904//EN"
 "http://www.w3.org/TR/2001/REC-SVG-20010904/DTD/svg10.dtd">
<svg version="1.0" xmlns="http://www.w3.org/2000/svg"
 width="111.000000pt" height="229.000000pt" viewBox="0 0 111.000000 229.000000"
 preserveAspectRatio="xMidYMid meet">
<metadata>
Created by potrace 1.16, written by Peter Selinger 2001-2019
</metadata>
<g transform="translate(0.000000,229.000000) scale(0.100000,-0.100000)"
fill="#000000" stroke="none">
<path d="M135 2252 c-3 -3 -5 -14 -5 -24 0 -14 -8 -18 -36 -18 l-37 0 9 -42
c5 -24 9 -107 9 -185 0 -137 6 -177 20 -134 4 14 15 21 30 21 23 0 24 -3 27
-77 4 -101 22 -101 26 0 l3 78 289 -3 289 -3 6 65 c9 112 27 204 46 243 13 27
14 39 6 42 -7 2 -142 6 -302 8 -230 3 -299 7 -332 19 -23 8 -45 13 -48 10z
m55 -42 c-20 -13 -40 -13 -40 0 0 6 12 10 28 10 21 0 24 -2 12 -10z m551 -37
c10 -27 11 -197 2 -247 -5 -25 -9 -26 -69 -26 l-63 0 5 33 c3 17 8 43 11 57 4
14 7 48 7 76 1 34 7 58 19 71 21 24 13 33 -26 33 -28 0 -29 -2 -25 -35 l4 -35
-48 0 c-41 0 -48 3 -48 20 0 28 -36 26 -45 -2 l-8 -23 -4 23 c-2 12 -9 22 -14
22 -5 0 -10 -10 -10 -22 -1 -18 -3 -17 -9 7 l-7 30 -11 -25 c-10 -24 -11 -24
-11 -2 -1 31 -21 28 -21 -3 0 -27 3 -26 -72 -11 -14 3 -33 9 -42 12 -12 5 -16
-1 -16 -24 0 -38 9 -44 46 -33 74 24 84 23 84 -4 0 -14 5 -25 10 -25 6 0 10 9
10 20 0 28 20 25 21 -2 1 -22 1 -22 9 2 8 24 8 23 9 -7 1 -18 6 -33 11 -33 6
0 10 15 11 33 l1 32 13 -30 14 -30 2 30 2 30 4 -27 c5 -33 20 -37 25 -6 3 19
10 23 51 25 41 3 47 1 47 -17 0 -11 -7 -20 -15 -20 -11 0 -15 -8 -13 -27 3
-25 0 -27 -36 -28 -31 -2 -40 2 -44 18 -5 19 -5 20 -19 1 -12 -16 -15 -17 -23
-4 -9 13 -11 13 -20 0 -9 -13 -11 -13 -21 0 -8 12 -12 12 -16 2 -4 -10 -8 -10
-20 -1 -11 10 -16 10 -22 1 -7 -11 -31 -10 -94 4 -27 6 -28 5 -25 -22 2 -20 8
-28 18 -25 8 2 34 7 57 11 37 6 42 4 47 -14 15 -55 13 -56 -90 -56 l-97 0 7
60 7 60 -32 0 c-28 0 -31 -2 -25 -22 4 -13 10 -40 13 -60 5 -36 4 -38 -21 -38
l-26 0 1 88 c1 92 19 188 35 185 5 -1 32 5 59 12 35 10 123 14 293 14 l242 1
11 -27z m47 1 c-11 -23 -13 -24 -19 -7 -8 22 -3 33 16 33 12 0 12 -5 3 -26z
m-691 -21 c-3 -10 -5 -4 -5 12 0 17 2 24 5 18 2 -7 2 -21 0 -30z m190 -59 c-3
-3 -12 -4 -19 -1 -8 3 -5 6 6 6 11 1 17 -2 13 -5z m123 -165 c0 -18 -5 -29
-14 -29 -10 0 -13 9 -11 28 2 15 4 31 4 35 2 22 21 -8 21 -34z m30 6 c0 -19
-4 -35 -9 -35 -5 0 -7 15 -5 33 3 39 3 37 9 37 3 0 5 -16 5 -35z m40 0 c0 -19
-4 -35 -10 -35 -11 0 -14 53 -3 63 11 12 13 8 13 -28z m118 -2 l3 -33 -50 0
c-49 0 -51 1 -51 28 0 38 4 40 53 39 40 -2 42 -4 45 -34z"/>
<path d="M840 1925 c-11 -14 -11 -18 -1 -25 8 -4 11 -16 6 -29 -8 -27 11 -28
25 0 23 42 -3 87 -30 54z"/>
<path d="M410 1639 l0 -32 -117 7 c-65 3 -129 7 -143 8 -19 2 -26 -2 -28 -19
-3 -19 -10 -23 -39 -23 -34 0 -35 -1 -27 -27 5 -16 9 -91 9 -168 1 -163 1
-163 17 -147 7 7 25 12 40 12 27 0 28 -2 28 -46 0 -56 25 -57 26 -1 0 20 2 39
5 41 4 4 358 15 492 16 l77 0 0 73 c0 39 7 104 15 142 8 39 15 85 15 103 0 30
-2 32 -36 32 l-37 0 7 -57 c3 -32 9 -107 12 -168 l7 -110 -278 0 -279 0 3 64
c1 35 7 74 11 87 10 26 3 34 -26 30 -17 -3 -19 -10 -15 -94 l3 -92 -31 0 -31
0 0 83 c0 45 8 111 18 147 l17 65 40 2 c22 1 80 6 130 11 50 5 96 7 103 4 8
-3 12 -17 10 -36 l-3 -31 -89 0 c-86 0 -89 -1 -93 -24 -3 -22 -1 -23 29 -17
18 4 57 10 86 13 61 7 71 -1 64 -48 -3 -21 -9 -28 -21 -25 -9 2 -46 7 -82 11
-66 6 -66 6 -71 -20 -7 -33 -1 -36 48 -25 21 5 58 10 82 10 35 0 42 -3 42 -19
0 -11 5 -23 10 -26 6 -4 10 5 10 19 0 16 6 26 15 26 9 0 15 -10 15 -26 0 -14
4 -23 10 -19 6 3 10 15 10 26 0 10 7 19 15 19 10 0 15 -10 15 -31 0 -17 4 -28
10 -24 6 3 10 17 10 30 0 20 6 23 45 27 l45 3 0 -52 c0 -29 5 -53 10 -53 6 0
10 18 10 41 0 22 5 61 11 86 9 34 9 47 0 52 -8 6 -10 24 -5 61 6 46 11 54 38
66 27 11 28 13 9 14 -17 0 -23 6 -23 23 0 20 -4 23 -30 19 -21 -3 -30 -10 -30
-23 0 -30 -58 -27 -62 4 -2 12 -7 22 -13 22 -5 0 -11 -10 -13 -22 -5 -32 -32
-30 -32 2 0 33 -18 32 -22 -2 -4 -38 -28 -42 -28 -4 0 16 -4 33 -10 36 -6 4
-10 -7 -10 -26z m-211 -43 c-12 -10 -59 -15 -59 -6 0 5 14 10 32 10 17 0 29
-2 27 -4z m256 -16 c9 -14 -4 -70 -16 -70 -5 0 -9 18 -9 40 0 38 12 52 25 30z
m55 -24 c0 -34 -12 -52 -28 -42 -4 3 -6 21 -4 40 6 48 32 49 32 2z m95 -6 c0
-33 -2 -35 -37 -38 -37 -3 -38 -3 -38 32 0 37 11 46 50 43 22 -2 25 -7 25 -37z
m154 18 c-1 -13 -4 -36 -8 -53 -7 -29 -7 -28 -13 15 -4 24 -4 48 -2 52 10 16
24 7 23 -14z m-659 -20 c0 -7 -5 -20 -10 -28 -8 -12 -10 -9 -10 13 0 15 5 27
10 27 6 0 10 -6 10 -12z m405 -58 c10 -17 -6 -80 -21 -80 -15 0 -21 70 -7 83
9 10 21 9 28 -3z m101 -35 l-1 -45 -42 0 c-38 0 -43 3 -43 23 0 53 11 67 50
67 l37 0 -1 -45z m-156 -5 c0 -29 -4 -40 -15 -40 -11 0 -15 11 -15 40 0 29 4
40 15 40 11 0 15 -11 15 -40z m-167 -47 c-7 -2 -19 -2 -25 0 -7 3 -2 5 12 5
14 0 19 -2 13 -5z"/>
<path d="M833 1318 c-14 -17 -4 -80 11 -75 14 4 21 66 8 79 -5 5 -13 4 -19 -4z"/>
<path d="M80 1205 c0 -8 5 -15 10 -15 6 0 10 7 10 15 0 8 -4 15 -10 15 -5 0
-10 -7 -10 -15z"/>
<path d="M110 1067 c0 -22 -5 -26 -32 -29 -27 -2 -32 -7 -29 -23 2 -11 5 -98
8 -192 5 -159 11 -198 27 -158 3 9 18 15 35 15 26 0 30 -4 33 -32 4 -41 24
-38 22 2 l-2 29 262 -5 c143 -2 272 -6 286 -9 25 -3 25 -3 26 73 2 66 36 246
59 305 7 16 -7 17 -201 17 -193 1 -346 10 -451 26 -41 6 -43 6 -43 -19z m73
-14 c-7 -2 -21 -2 -30 0 -10 3 -4 5 12 5 17 0 24 -2 18 -5z m543 -28 c8 -19
10 -137 5 -247 l-4 -88 -167 0 c-92 0 -215 3 -275 7 l-108 6 7 61 c3 34 8 77
12 97 6 35 5 37 -25 41 -39 6 -42 2 -31 -48 5 -21 10 -64 11 -94 l3 -55 -36
-3 -36 -3 0 105 c0 94 16 197 33 215 12 11 136 18 373 19 197 2 233 0 238 -13z
m48 -17 c-14 -68 -23 -75 -23 -20 -1 41 2 52 15 52 12 0 14 -7 8 -32z m-684 5
c0 -5 -5 -15 -10 -23 -8 -12 -10 -11 -10 8 0 12 5 22 10 22 6 0 10 -3 10 -7z
m90 -140 c0 -5 -5 -15 -10 -23 -8 -12 -10 -11 -10 8 0 12 5 22 10 22 6 0 10
-3 10 -7z"/>
<path d="M596 879 l7 -100 -54 3 c-52 3 -54 4 -53 31 2 67 2 66 47 70 l42 4
-42 1 c-40 2 -43 4 -43 30 l-1 27 -14 -30 -13 -30 -1 35 c-1 35 -15 32 -24 -5
-3 -15 -5 -13 -6 8 -1 31 -21 28 -21 -4 0 -12 -7 -19 -20 -19 -16 0 -20 7 -20
30 0 38 -18 40 -22 3 -3 -25 -7 -28 -33 -25 -16 2 -35 8 -41 13 -15 12 -24 1
-24 -32 0 -27 2 -28 33 -23 17 3 37 7 43 9 13 4 22 -38 16 -68 -4 -18 -32 -20
-81 -6 -10 3 -16 -5 -17 -23 -2 -23 1 -28 20 -28 12 0 26 3 30 7 3 4 15 7 26
8 16 1 20 -5 20 -27 0 -15 5 -28 10 -28 6 0 10 14 10 30 0 25 4 30 24 30 19 0
26 -6 29 -27 l4 -28 2 28 c2 38 21 34 22 -5 2 -31 2 -31 6 -5 2 15 9 27 15 27
5 0 8 -7 5 -15 -4 -8 -2 -17 3 -20 5 -3 10 5 12 17 3 21 9 23 55 23 36 0 53
-4 53 -12 0 -7 4 -13 9 -13 4 0 11 34 15 76 4 44 16 94 27 115 10 21 19 41 19
44 0 3 -18 5 -40 5 l-40 0 6 -101z m37 53 c-3 -12 -9 -22 -14 -22 -14 0 -11
38 4 43 16 6 17 5 10 -21z m-333 -42 c0 -5 -4 -10 -10 -10 -5 0 -10 5 -10 10
0 6 5 10 10 10 6 0 10 -4 10 -10z m120 -55 c0 -41 -2 -45 -25 -45 -22 0 -25 4
-25 38 0 43 5 52 32 52 15 0 18 -8 18 -45z m30 0 c0 -25 -4 -45 -10 -45 -11 0
-14 73 -3 83 11 12 13 8 13 -38z m27 -22 c-2 -16 -4 -5 -4 22 0 28 2 40 4 28
2 -13 2 -35 0 -50z m-187 -33 c0 -5 -5 -10 -11 -10 -5 0 -7 5 -4 10 3 6 8 10
11 10 2 0 4 -4 4 -10z"/>
<path d="M819 728 c-1 -2 -2 -20 -3 -40 -2 -25 2 -38 10 -38 14 0 29 54 19 70
-5 9 -23 14 -26 8z"/>
<path d="M154 418 c-4 -6 -20 -7 -36 -4 -33 6 -48 -15 -28 -39 13 -16 18 -126
10 -245 l-5 -75 89 -3 c50 -2 96 -8 103 -14 9 -8 13 -7 13 2 0 9 46 11 193 8
l192 -3 7 85 c3 47 8 128 10 181 l4 97 -211 7 c-115 4 -238 8 -273 10 -34 2
-65 -2 -68 -7z m399 -25 l127 -6 0 -39 0 -39 -62 3 c-48 2 -63 7 -63 18 0 25
-20 27 -23 3 -5 -31 -28 -29 -36 2 -7 29 -26 24 -26 -6 0 -12 -7 -19 -20 -19
-13 0 -20 7 -20 19 0 30 -17 34 -24 6 -8 -33 -36 -33 -36 0 0 16 -6 25 -15 25
-8 0 -15 -9 -15 -19 0 -13 -8 -21 -22 -23 -22 -3 -24 -10 -33 -123 l-10 -120
-74 2 c-41 2 -76 5 -79 8 -10 10 17 242 32 279 l15 36 128 0 c70 0 185 -3 256
-7z m-420 -23 c-3 -11 -7 -20 -9 -20 -2 0 -4 9 -4 20 0 11 4 20 9 20 5 0 7 -9
4 -20z m207 -125 c0 -42 -3 -55 -15 -55 -11 0 -15 12 -15 49 0 43 4 53 28 60
1 1 2 -24 2 -54z m58 -3 c3 -47 1 -52 -17 -52 -17 0 -21 6 -21 33 1 87 33 103
38 19z m72 -2 c0 -47 -2 -50 -25 -50 -23 0 -25 4 -25 43 0 48 5 57 32 57 15 0
18 -8 18 -50z m60 2 c0 -53 -5 -63 -26 -55 -14 5 -20 83 -7 96 20 21 33 4 33
-41z m146 17 c-3 -17 -6 -41 -6 -53 0 -19 -6 -21 -60 -21 l-60 0 0 52 0 53 66
0 67 0 -7 -31z m-338 -136 c-2 -35 -7 -48 -18 -48 -10 0 -16 12 -18 33 -4 43
3 62 23 62 13 0 15 -10 13 -47z m58 16 c-3 -17 -6 -40 -6 -51 0 -13 -6 -18
-17 -16 -14 3 -17 11 -14 43 3 37 14 54 35 55 5 0 6 -14 2 -31z m75 -6 l2 -38
10 38 c7 25 16 37 29 37 15 0 18 -8 18 -50 l0 -50 -53 0 c-30 0 -56 2 -58 4
-2 3 -3 25 -1 50 4 41 7 46 28 46 21 0 24 -5 25 -37z m199 -16 l0 -48 -62 3
c-60 3 -63 4 -62 28 4 70 -1 65 64 65 l60 0 0 -48z"/>
<path d="M761 121 c-19 -12 -6 -43 16 -39 10 2 18 12 18 22 0 22 -14 29 -34
17z"/>
</g>
</svg>
