<?xml version="1.0" standalone="no"?>
<!DOCTYPE svg PUBLIC "-//W3C//DTD SVG 20010904//EN"
 "http://www.w3.org/TR/2001/REC-SVG-20010904/DTD/svg10.dtd">
<svg version="1.0" xmlns="http://www.w3.org/2000/svg"
 width="140.000000pt" height="56.000000pt" viewBox="0 0 140.000000 56.000000"
 preserveAspectRatio="xMidYMid meet">
<metadata>
Created by potrace 1.16, written by Peter Selinger 2001-2019
</metadata>
<g transform="translate(0.000000,56.000000) scale(0.100000,-0.100000)"
fill="#000000" stroke="none">
<path d="M108 473 c-2 -23 -7 -27 -26 -25 -22 3 -23 1 -16 -30 5 -18 7 -99 6
-180 -1 -90 1 -148 7 -148 6 0 11 24 13 53 3 51 4 52 36 55 30 3 32 1 32 -27
0 -16 5 -33 10 -36 6 -4 10 8 10 29 0 20 5 36 11 36 8 0 8 4 -1 15 -13 15 -1
96 21 136 14 27 5 36 -29 31 l-29 -4 5 -79 5 -79 -37 0 c-33 0 -36 3 -36 28 0
48 29 166 44 181 12 11 61 15 245 19 l229 4 6 -53 c3 -30 7 -70 9 -89 4 -41
10 -27 26 55 6 33 14 70 17 83 l6 22 -218 0 c-192 0 -259 6 -326 26 -12 4 -17
-2 -20 -23z m536 -38 c-4 -8 -8 -15 -10 -15 -2 0 -4 7 -4 15 0 8 4 15 10 15 5
0 7 -7 4 -15z m-542 -30 c-2 -14 -6 -25 -8 -25 -2 0 -4 11 -4 25 0 14 4 25 9
25 4 0 6 -11 3 -25z"/>
<path d="M804 469 c-3 -5 -2 -18 1 -29 5 -17 2 -20 -25 -20 -28 0 -30 -2 -23
-27 5 -16 7 -88 6 -161 -2 -122 0 -133 15 -127 9 3 29 9 45 12 23 5 27 2 27
-16 0 -12 4 -19 10 -16 6 3 10 15 10 25 0 19 11 20 213 22 l212 3 7 103 c7 95
16 125 50 174 7 9 10 19 7 22 -3 3 -72 8 -155 12 -82 4 -152 11 -155 17 -4 5
-9 5 -13 -2 -10 -15 -99 -13 -168 3 -34 9 -60 10 -64 5z m41 -29 c3 -5 1 -10
-4 -10 -6 0 -11 5 -11 10 0 6 2 10 4 10 3 0 8 -4 11 -10z m418 -30 c5 -4 11
-36 14 -70 l6 -63 -97 5 c-53 3 -99 8 -102 11 -3 3 0 24 7 46 13 44 8 61 -13
43 -7 -6 -41 -9 -76 -7 l-63 3 7 -44 6 -44 -31 0 c-27 0 -31 -4 -31 -26 0 -24
3 -26 29 -21 28 6 30 4 33 -26 4 -44 22 -40 26 6 2 20 8 37 14 37 7 0 9 -17 6
-45 -3 -25 -2 -45 3 -45 5 0 9 18 9 39 0 22 5 43 12 47 8 5 9 -5 5 -34 -3 -23
-1 -42 4 -42 5 0 9 15 9 34 0 19 5 38 10 41 6 4 10 -12 10 -40 0 -25 4 -44 9
-41 4 3 7 24 5 46 l-3 40 104 0 105 0 0 -55 0 -55 -204 0 c-150 0 -205 3 -208
12 -7 19 12 120 28 152 18 36 9 45 -34 39 -29 -5 -33 -9 -28 -27 3 -11 9 -54
13 -93 5 -67 4 -73 -13 -73 -39 0 -47 15 -41 72 3 29 13 81 23 115 17 61 18
63 58 72 46 11 376 3 389 -9z m55 -10 c-7 -11 -16 -20 -20 -20 -5 0 -8 9 -8
20 0 13 7 20 20 20 18 0 19 -2 8 -20z m-517 -13 c-1 -4 -1 -16 -1 -28 0 -11
-4 -17 -10 -14 -14 8 -13 58 1 53 6 -2 10 -7 10 -11z m208 -54 c0 -5 -4 -17
-9 -28 -8 -18 -9 -17 -9 8 -1 15 4 27 9 27 6 0 10 -3 9 -7z m18 -30 c-3 -10
-5 -4 -5 12 0 17 2 24 5 18 2 -7 2 -21 0 -30z m-157 12 c0 -8 -2 -15 -4 -15
-2 0 -6 7 -10 15 -3 8 -1 15 4 15 6 0 10 -7 10 -15z m191 -12 c-8 -15 -10 -15
-11 -2 0 17 10 32 18 25 2 -3 -1 -13 -7 -23z m-246 -163 c3 -5 -3 -10 -14 -10
-12 0 -21 5 -21 10 0 6 6 10 14 10 8 0 18 -4 21 -10z"/>
<path d="M530 365 l0 -35 -80 0 c-73 0 -80 2 -80 20 0 25 -17 26 -23 3 -4 -17
-5 -17 -6 0 0 9 -7 17 -13 18 -7 0 -23 2 -35 3 -17 2 -23 -3 -23 -16 0 -13 -7
-18 -25 -18 -18 0 -25 -5 -25 -20 0 -15 7 -20 25 -20 20 0 25 -5 26 -27 l1
-28 13 30 c14 30 14 30 16 5 l1 -25 8 25 c8 25 8 25 10 -5 3 -28 3 -28 7 -5 7
40 26 51 21 12 -3 -18 -1 -35 4 -38 4 -3 8 5 8 18 0 40 12 46 93 50 l78 3 -3
-45 -3 -45 -145 -3 c-84 -1 -148 -6 -155 -13 -7 -7 53 -9 197 -7 115 2 208 6
208 10 0 3 3 13 6 22 3 9 1 16 -5 16 -6 0 -11 -6 -11 -13 0 -8 -13 -13 -35
-14 l-35 -1 0 56 c1 32 7 68 15 82 20 35 19 40 -10 40 -22 0 -25 -4 -25 -35z"/>
<path d="M616 171 c-4 -5 -2 -12 3 -15 5 -4 12 -2 15 3 4 5 2 12 -3 15 -5 4
-12 2 -15 -3z"/>
<path d="M1387 173 c-11 -10 -8 -43 3 -43 6 0 10 11 10 25 0 26 -2 29 -13 18z"/>
<path d="M678 163 c-5 -26 -2 -73 5 -73 12 0 30 48 24 64 -7 16 -26 22 -29 9z"/>
</g>
</svg>
