<?xml version="1.0" standalone="no"?>
<!DOCTYPE svg PUBLIC "-//W3C//DTD SVG 20010904//EN"
 "http://www.w3.org/TR/2001/REC-SVG-20010904/DTD/svg10.dtd">
<svg version="1.0" xmlns="http://www.w3.org/2000/svg"
 width="124.000000pt" height="215.000000pt" viewBox="0 0 124.000000 215.000000"
 preserveAspectRatio="xMidYMid meet">
<metadata>
Created by potrace 1.16, written by Peter Selinger 2001-2019
</metadata>
<g transform="translate(0.000000,215.000000) scale(0.100000,-0.100000)"
fill="#000000" stroke="none">
<path d="M514 2122 c-4 -13 -14 -22 -23 -21 -40 4 -42 0 -41 -68 1 -38 1 -76
1 -86 -1 -18 -11 -19 -176 -15 -157 3 -175 1 -175 -13 0 -9 -9 -19 -20 -22
-17 -4 -18 -9 -10 -34 5 -15 11 -68 13 -116 3 -48 7 -91 11 -94 7 -8 9 1 10
52 1 36 4 40 26 40 24 0 25 -2 23 -68 -2 -51 0 -68 10 -64 8 2 12 27 11 75
l-1 72 31 4 c28 5 156 15 196 16 13 0 13 1 0 10 -8 6 -35 7 -60 3 -49 -7 -159
-7 -166 0 -3 2 0 16 6 31 16 43 13 56 -16 56 -24 0 -25 -2 -18 -45 6 -41 5
-45 -15 -45 -18 0 -21 6 -21 45 0 67 23 74 258 75 89 0 102 2 102 17 0 13 7
10 30 -12 35 -33 38 -58 10 -82 -26 -22 -25 -29 4 -67 12 -17 30 -45 39 -62
l16 -31 -45 -21 c-24 -12 -47 -22 -49 -22 -3 0 -5 60 -6 133 0 83 -4 125 -9
112 -5 -11 -9 -31 -9 -44 -1 -13 -9 -30 -18 -37 -17 -13 -17 -13 0 -14 16 0
18 -9 17 -72 -1 -40 3 -86 9 -101 6 -16 11 -33 11 -38 0 -20 25 -7 85 46 34
30 65 55 69 55 4 0 40 22 81 50 45 30 80 47 90 44 10 -4 14 -2 10 8 -4 9 4 22
20 32 29 19 30 18 39 -59 l5 -50 -22 28 c-13 15 -26 27 -31 27 -8 0 32 -61 48
-72 5 -3 19 -32 31 -64 12 -32 28 -60 35 -62 9 -3 11 1 5 14 -33 79 -55 159
-61 217 -4 37 -10 67 -15 67 -4 0 -20 -11 -35 -25 -15 -14 -30 -25 -35 -25 -4
0 -17 16 -29 35 -12 19 -26 32 -32 29 -5 -4 1 -18 16 -33 14 -15 26 -31 26
-37 0 -5 -42 -32 -92 -60 l-93 -52 -14 32 c-14 32 -28 136 -18 136 16 0 83
-54 91 -73 5 -15 10 -18 13 -9 3 7 -2 21 -10 30 -8 9 -20 35 -27 57 -17 55
-28 64 -46 40 -13 -17 -16 -18 -24 -5 -5 8 -10 26 -11 40 -2 23 -4 42 -8 64 0
5 -12 -1 -26 -14 -24 -23 -25 -23 -25 -3 0 22 19 83 26 83 25 0 121 -84 183
-160 11 -14 20 -20 21 -14 0 13 -30 53 -77 104 -18 19 -33 38 -33 41 0 4 -12
10 -26 13 -29 8 -60 34 -51 43 3 3 13 -2 22 -11 24 -24 27 -20 11 12 -31 55
-35 59 -42 34z m-24 -49 c0 -5 -5 -15 -10 -23 -8 -12 -10 -11 -10 8 0 12 5 22
10 22 6 0 10 -3 10 -7z m30 -134 c0 -6 -4 -7 -10 -4 -5 3 -10 11 -10 16 0 6 5
7 10 4 6 -3 10 -11 10 -16z m80 -80 c0 -5 -4 -9 -10 -9 -5 0 -10 7 -10 16 0 8
5 12 10 9 6 -3 10 -10 10 -16z m-70 -61 c0 -16 -3 -19 -11 -11 -6 6 -8 16 -5
22 11 17 16 13 16 -11z m49 -151 c-2 -2 -21 -16 -42 -31 -27 -20 -42 -25 -49
-18 -7 7 5 18 38 35 27 14 51 23 53 21 2 -2 2 -5 0 -7z"/>
<path d="M1029 1720 c-1 -3 -3 -22 -4 -42 -2 -44 10 -49 27 -13 10 21 9 29 -5
43 -9 9 -18 14 -18 12z"/>
<path d="M510 1429 c0 -6 -19 -29 -42 -51 l-42 -40 27 -48 c15 -26 27 -51 27
-54 0 -6 -105 0 -253 15 -85 9 -101 8 -116 -5 -10 -9 -22 -16 -27 -16 -6 0
-18 -6 -27 -13 -15 -11 -16 -19 -6 -67 6 -30 12 -112 14 -183 2 -70 7 -128 12
-130 4 -1 9 38 11 86 l3 88 27 -3 c27 -3 27 -4 28 -78 1 -41 5 -75 10 -75 5 0
12 33 15 72 3 40 8 75 10 78 3 3 57 7 120 10 63 3 132 7 153 10 36 5 38 4 25
-12 -8 -10 -16 -20 -19 -23 -73 -76 -74 -79 -55 -100 10 -11 24 -20 32 -20 15
0 36 -47 29 -66 -11 -30 11 -19 78 37 87 74 106 86 106 64 0 -8 5 -15 11 -15
7 0 9 10 7 24 -4 20 2 28 32 45 21 11 43 28 50 36 18 22 39 18 52 -10 14 -31
33 -33 23 -2 -15 49 -11 55 69 104 44 26 78 53 77 58 -1 6 -12 15 -24 22 -12
7 -71 39 -130 73 -60 33 -111 60 -113 60 -12 0 -122 81 -148 109 -31 32 -46
39 -46 20z m50 -49 c27 -21 16 -26 -25 -10 -14 5 -23 14 -20 20 9 14 16 12 45
-10z m102 -84 c192 -99 262 -137 271 -146 9 -8 -122 -102 -134 -95 -4 3 -10
30 -14 60 -3 30 -10 55 -15 55 -5 0 -20 -10 -34 -22 l-25 -23 20 -24 c22 -27
36 -22 20 8 -7 13 -8 22 -1 26 13 8 19 -9 22 -64 3 -40 0 -45 -30 -62 -18 -11
-43 -26 -56 -35 -28 -18 -30 -15 -41 76 -4 30 -9 58 -11 62 -3 4 -16 -5 -31
-18 -22 -21 -25 -28 -15 -42 6 -9 21 -37 32 -62 l21 -44 -23 -18 c-13 -10 -27
-16 -33 -14 -5 1 -26 -5 -45 -15 -52 -27 -90 -34 -90 -18 0 18 52 122 91 181
l30 47 -21 48 c-27 59 -50 139 -50 176 0 41 24 35 162 -37z m-182 35 c0 -11 3
-28 6 -38 5 -16 4 -16 -10 1 -18 22 -21 56 -6 56 6 0 10 -9 10 -19z m-290
-105 c0 -2 -13 -6 -30 -8 -16 -3 -30 -1 -30 4 0 4 14 8 30 8 17 0 30 -2 30 -4z
m320 -33 c43 -93 42 -90 13 -123 l-28 -30 -159 -6 c-149 -6 -159 -6 -153 10
11 27 20 96 14 96 -3 0 -18 -5 -33 -10 -25 -10 -26 -13 -21 -55 7 -45 6 -45
-23 -45 -29 0 -30 2 -29 43 0 23 6 58 13 77 15 42 37 48 206 59 196 13 185 14
200 -16z m-418 -13 c-2 -17 -8 -33 -13 -36 -10 -6 -12 49 -2 59 14 14 19 6 15
-23z m79 -97 c-8 -15 -10 -15 -11 -2 0 17 10 32 18 25 2 -3 -1 -13 -7 -23z
m459 -41 c0 -7 -4 -10 -10 -7 -5 3 -10 16 -10 28 0 18 2 19 10 7 5 -8 10 -21
10 -28z m-187 -120 c-3 -12 -9 -22 -14 -22 -12 0 -11 7 2 32 13 25 20 19 12
-10z m95 -57 c-43 -40 -58 -44 -58 -15 0 12 7 20 18 20 9 1 28 7 42 15 39 22
38 17 -2 -20z"/>
<path d="M621 1269 c-13 -10 -29 -19 -37 -19 -20 0 -17 -8 14 -39 15 -15 36
-46 47 -69 21 -44 42 -57 31 -19 -15 51 -27 130 -22 143 8 22 -7 24 -33 3z m9
-28 c0 -5 3 -18 6 -28 5 -16 4 -16 -10 1 -18 23 -20 36 -6 36 6 0 10 -4 10 -9z"/>
<path d="M1017 925 c-4 -8 -2 -17 4 -21 5 -3 7 -14 4 -25 -4 -10 -2 -19 4 -19
13 0 25 45 17 65 -7 19 -22 19 -29 0z"/>
<path d="M636 624 c-17 -36 -17 -36 -69 -32 -29 3 -46 3 -39 1 13 -5 16 -80 6
-156 -5 -35 -11 -47 -28 -51 -20 -6 -20 -7 -3 -20 22 -17 22 -18 -12 -56 l-28
-33 -122 -5 -123 -5 4 24 c3 21 -1 24 -27 24 -27 0 -30 -3 -28 -28 1 -21 -3
-27 -18 -27 -20 0 -21 17 -4 70 7 23 55 34 135 32 87 -2 200 9 200 19 0 5 -55
9 -122 9 -68 0 -143 5 -167 11 -38 8 -46 7 -54 -6 -5 -9 -20 -20 -34 -26 -20
-7 -24 -14 -18 -32 4 -12 9 -68 12 -124 5 -95 13 -123 26 -89 3 7 3 31 0 53
-6 43 12 67 44 61 13 -2 19 -15 23 -51 6 -61 26 -57 22 4 l-4 46 113 6 c63 3
115 4 117 2 2 -2 -7 -21 -20 -44 -23 -40 -23 -40 -3 -55 38 -30 58 -16 77 49
18 67 23 46 8 -35 -10 -54 -6 -76 10 -50 7 11 11 3 16 -28 4 -23 10 -42 14
-42 5 0 35 27 67 59 46 45 88 74 184 122 68 35 137 69 153 75 29 10 48 34 27
34 -21 0 -203 178 -257 251 -30 40 -56 74 -57 76 -2 1 -11 -13 -21 -33z m50
-41 c36 -50 36 -53 -3 -31 -21 12 -39 22 -41 23 -5 4 10 35 17 35 4 0 16 -12
27 -27z m-94 -60 c-11 -21 -22 -45 -25 -53 -3 -8 -6 9 -6 38 -1 49 0 52 24 52
l25 0 -18 -37z m127 -14 c59 -38 211 -174 211 -188 0 -4 -20 -17 -44 -29 -51
-24 -49 -26 -62 61 -7 52 -12 55 -55 30 -34 -20 -37 -39 -9 -48 17 -6 60 -54
60 -69 0 -10 -139 -76 -143 -68 -3 4 -10 31 -18 60 -18 71 -28 77 -68 40 l-32
-30 28 -18 c26 -16 82 -70 72 -70 -2 0 -35 -11 -73 -25 l-68 -25 7 73 c14 148
79 347 114 347 10 0 45 -18 80 -41z m84 -160 c4 -16 3 -18 -9 -8 -7 6 -11 15
-8 20 8 13 11 11 17 -12z m-686 -21 c-3 -8 -6 -5 -6 6 -1 11 2 17 5 13 3 -3 4
-12 1 -19z m513 -47 c0 -5 3 -18 7 -28 6 -17 5 -17 -15 1 -12 10 -19 23 -16
27 7 12 24 11 24 0z m-155 -70 c-9 -30 -23 -51 -31 -51 -8 0 -14 5 -14 11 0
14 53 99 58 94 2 -2 -4 -26 -13 -54z m145 -64 c0 -2 -16 -18 -35 -37 -31 -30
-35 -31 -35 -14 0 13 12 26 33 36 17 8 33 16 35 17 1 0 2 0 2 -2z"/>
<path d="M655 477 c-57 -18 -58 -26 -18 -71 21 -23 43 -51 49 -62 19 -32 22
-13 10 67 l-11 76 -30 -10z m19 -43 c4 -15 5 -28 3 -30 -8 -8 -39 35 -32 45
11 18 23 12 29 -15z"/>
<path d="M1027 173 c-13 -12 -7 -33 8 -33 8 0 15 9 15 20 0 20 -11 26 -23 13z"/>
</g>
</svg>
