<?xml version="1.0" standalone="no"?>
<!DOCTYPE svg PUBLIC "-//W3C//DTD SVG 20010904//EN"
 "http://www.w3.org/TR/2001/REC-SVG-20010904/DTD/svg10.dtd">
<svg version="1.0" xmlns="http://www.w3.org/2000/svg"
 width="134.000000pt" height="215.000000pt" viewBox="0 0 134.000000 215.000000"
 preserveAspectRatio="xMidYMid meet">
<metadata>
Created by potrace 1.16, written by Peter Selinger 2001-2019
</metadata>
<g transform="translate(0.000000,215.000000) scale(0.100000,-0.100000)"
fill="#000000" stroke="none">
<path d="M601 2080 c-13 -21 -35 -50 -48 -64 -31 -33 -29 -40 12 -66 20 -12
45 -40 56 -62 l21 -41 -49 -47 -48 -47 -85 8 c-47 4 -120 8 -164 8 l-79 1 6
33 c3 17 8 40 12 50 6 14 2 17 -20 17 -26 0 -27 -2 -23 -47 l3 -48 -38 1 c-21
1 -41 4 -44 8 -7 7 12 115 22 125 3 3 95 5 205 6 109 0 201 3 205 7 8 8 -32
13 -220 27 -77 6 -152 14 -166 17 -21 5 -27 1 -31 -14 -3 -12 -16 -22 -29 -24
-20 -2 -24 -9 -23 -35 0 -18 1 -91 2 -163 1 -79 6 -130 12 -130 6 0 10 26 10
59 0 84 4 91 56 91 l44 0 0 -66 c0 -46 4 -64 12 -62 8 3 11 26 9 68 l-3 63 32
-7 c18 -3 86 -6 152 -6 116 0 118 -1 108 -20 -8 -16 -8 -20 3 -20 27 0 47 -35
47 -83 0 -52 4 -55 34 -29 43 39 250 152 351 193 19 8 24 13 15 16 -8 2 -85
-23 -170 -56 -156 -59 -220 -78 -220 -66 0 15 60 133 74 144 12 10 17 7 31
-19 9 -18 19 -29 23 -26 3 4 -2 22 -13 42 -18 34 -18 34 3 57 22 23 29 47 14
47 -4 0 -15 -12 -23 -27 l-17 -26 -15 24 c-17 27 -40 126 -32 139 5 9 126 -41
190 -79 22 -12 75 -48 118 -79 55 -39 74 -58 65 -64 -9 -6 -5 -8 12 -6 14 2
25 9 25 17 0 7 -56 52 -125 98 -69 47 -157 112 -197 144 -39 33 -73 59 -75 59
-1 0 -14 -18 -27 -40z m71 -21 c16 -12 27 -23 25 -26 -8 -7 -76 30 -71 39 8
12 13 10 46 -13z m-72 -89 l0 -24 -22 21 c-18 19 -19 24 -8 38 16 19 30 4 30
-35z m-503 -92 c-3 -8 -6 -5 -6 6 -1 11 2 17 5 13 3 -3 4 -12 1 -19z m476
-148 c-6 -24 -23 -37 -23 -18 0 12 18 38 26 38 1 0 0 -9 -3 -20z m106 -54 c-3
-3 -21 -16 -42 -30 -40 -27 -57 -32 -57 -16 0 11 31 29 69 41 33 10 35 10 30
5z"/>
<path d="M1056 1732 c-8 -13 5 -82 15 -82 11 0 22 43 17 66 -3 20 -23 30 -32
16z"/>
<path d="M577 1441 c-49 -32 -107 -121 -78 -121 12 0 48 -95 52 -136 2 -18 -5
-47 -16 -68 l-20 -36 -152 0 -152 0 5 28 c12 60 10 67 -18 70 -30 4 -31 1 -28
-60 1 -36 0 -38 -29 -38 -16 0 -32 4 -35 8 -5 9 26 157 35 166 3 3 21 8 40 11
19 2 43 7 54 9 11 3 78 5 150 5 73 1 125 5 120 10 -6 4 -86 13 -180 19 -93 7
-180 15 -192 18 -20 5 -23 3 -23 -20 0 -23 -4 -27 -22 -24 -20 3 -23 -1 -20
-27 1 -16 4 -106 6 -198 2 -92 6 -171 9 -174 9 -8 17 34 19 107 l3 65 35 0 35
0 0 -87 c0 -115 18 -115 25 -1 l5 88 137 0 c75 -1 140 -4 143 -7 4 -3 -5 -24
-19 -47 -33 -51 -33 -56 4 -71 33 -14 50 -37 50 -69 0 -12 1 -21 3 -21 1 0 32
28 69 63 36 34 88 73 115 87 26 13 86 46 132 72 46 26 88 48 92 48 27 0 -5 37
-117 135 -125 109 -194 181 -194 204 0 15 -9 13 -43 -8z m41 -31 c11 -18 10
-19 -13 -8 -13 6 -22 15 -19 19 8 14 18 11 32 -11z m14 -54 c32 -18 84 -57
116 -87 32 -30 81 -74 109 -98 l52 -44 -107 -60 c-117 -64 -160 -85 -239 -116
-49 -19 -53 -19 -53 -3 0 25 34 128 64 196 17 39 21 56 12 53 -10 -4 -15 7
-20 40 -8 63 -8 153 2 153 4 0 33 -15 64 -34z m-93 -23 c0 -34 -1 -36 -11 -16
-6 12 -8 29 -5 37 11 27 17 18 16 -21z m-374 -43 c-27 -12 -35 -12 -35 0 0 6
12 10 28 9 24 0 25 -1 7 -9z m-55 -58 c0 -9 -5 -24 -10 -32 -7 -11 -10 -5 -10
23 0 23 4 36 10 32 6 -3 10 -14 10 -23z m87 -114 c-3 -7 -5 -2 -5 12 0 14 2
19 5 13 2 -7 2 -19 0 -25z m300 -133 c-10 -34 -27 -48 -27 -22 0 12 27 57 35
57 2 0 -2 -16 -8 -35z m83 -61 c-19 -21 -50 -37 -50 -25 0 6 12 17 28 25 35
19 37 19 22 0z"/>
<path d="M1034 985 c-3 -8 -2 -20 2 -27 5 -7 7 -21 5 -32 -4 -28 21 -14 32 17
13 40 -25 81 -39 42z"/>
<path d="M538 571 c-27 -26 -48 -51 -48 -55 0 -4 9 -19 20 -33 11 -14 20 -28
20 -32 0 -10 -344 6 -373 18 -40 16 -47 14 -47 -14 0 -19 -7 -26 -32 -33 -25
-7 -32 -14 -30 -28 2 -10 6 -90 9 -177 6 -163 20 -200 25 -67 l3 75 43 3 42 3
0 -85 c0 -51 4 -86 10 -86 6 0 10 35 10 84 l0 84 151 7 c82 4 152 5 154 3 3
-2 -9 -26 -25 -52 -17 -25 -30 -52 -30 -59 0 -7 14 -21 30 -32 16 -11 30 -27
30 -36 0 -29 14 -29 44 0 30 28 199 134 317 199 l57 30 30 -31 c37 -40 66 -97
82 -165 6 -28 17 -52 22 -52 6 0 8 11 4 28 -19 87 -26 146 -25 215 1 42 -1 80
-4 83 -3 3 -31 -10 -61 -30 -31 -20 -60 -36 -64 -36 -8 0 -76 -35 -182 -93
-52 -29 -210 -97 -224 -97 -12 0 21 115 50 172 30 61 33 73 25 106 -13 54 -23
150 -16 161 8 14 110 -41 175 -94 121 -99 161 -127 168 -121 4 4 -2 14 -12 21
-27 20 -225 205 -255 238 -13 15 -29 27 -35 27 -6 -1 -32 -22 -58 -49z m87 -1
c10 -11 14 -20 9 -20 -12 1 -44 25 -44 34 0 12 17 6 35 -14z m-465 -130 c12
-8 11 -10 -7 -10 -13 0 -23 5 -23 10 0 13 11 13 30 0z m384 -35 c10 -37 5 -70
-17 -110 l-22 -40 -153 0 -154 -1 5 31 c3 16 9 38 12 48 7 16 3 18 -31 15 -41
-3 -42 -5 -29 -65 7 -33 7 -33 -30 -33 l-37 0 7 43 c4 23 11 59 16 79 9 36 11
37 67 43 31 3 66 8 77 9 11 2 79 3 152 2 123 -1 132 -2 137 -21z m-456 -37
c-15 -46 -18 -47 -18 -5 0 26 4 37 14 37 12 0 13 -6 4 -32z m102 -52 c0 -8 -4
-18 -10 -21 -5 -3 -10 3 -10 14 0 12 5 21 10 21 6 0 10 -6 10 -14z m820 -43
l0 -57 -25 34 c-30 40 -31 55 -7 69 29 17 32 13 32 -46z m-538 -145 c-7 -7
-12 -8 -12 -2 0 14 12 26 19 19 2 -3 -1 -11 -7 -17z m82 -33 c-25 -19 -40 -19
-24 0 7 8 20 15 28 15 13 0 12 -3 -4 -15z"/>
<path d="M525 590 c-3 -5 -1 -10 4 -10 6 0 11 5 11 10 0 6 -2 10 -4 10 -3 0
-8 -4 -11 -10z"/>
<path d="M1097 133 c-14 -13 -6 -33 12 -33 19 0 35 23 24 34 -8 8 -28 8 -36
-1z"/>
</g>
</svg>
