<?xml version="1.0" standalone="no"?>
<!DOCTYPE svg PUBLIC "-//W3C//DTD SVG 20010904//EN"
 "http://www.w3.org/TR/2001/REC-SVG-20010904/DTD/svg10.dtd">
<svg version="1.0" xmlns="http://www.w3.org/2000/svg"
 width="82.000000pt" height="64.000000pt" viewBox="0 0 82.000000 64.000000"
 preserveAspectRatio="xMidYMid meet">
<metadata>
Created by potrace 1.16, written by Peter Selinger 2001-2019
</metadata>
<g transform="translate(0.000000,64.000000) scale(0.100000,-0.100000)"
fill="#000000" stroke="none">
<path d="M148 592 c0 -4 -2 -11 -3 -17 -2 -5 -3 -16 -4 -22 0 -7 -11 -13 -22
-13 -20 0 -21 -4 -15 -46 3 -26 6 -66 6 -90 0 -24 5 -44 10 -44 6 0 10 7 10
15 0 8 8 15 18 16 14 0 13 2 -4 9 -20 8 -21 12 -12 62 9 53 31 88 45 74 5 -4
8 -45 8 -91 0 -46 3 -87 8 -91 4 -4 7 0 7 9 0 23 37 22 43 0 4 -17 5 -17 6 0
1 13 9 17 34 15 17 -1 38 -6 45 -11 8 -6 12 -6 12 2 0 20 30 11 40 -11 9 -23
9 -23 9 -2 1 15 9 24 26 28 39 10 255 5 255 -5 0 -5 5 -9 10 -9 6 0 10 15 10
33 0 17 9 61 20 95 26 83 26 86 -7 77 -73 -19 -168 -22 -328 -9 -93 8 -182 18
-197 23 -16 5 -29 6 -30 3z m39 -28 c-3 -3 -12 -4 -19 -1 -8 3 -5 6 6 6 11 1
17 -2 13 -5z m513 -34 c0 -16 -4 -30 -10 -30 -5 0 -10 14 -10 30 0 17 5 30 10
30 6 0 10 -13 10 -30z m-415 -58 c0 -62 -3 -77 -15 -77 -17 0 -19 32 -7 103 7
41 7 42 -17 36 -13 -3 -27 -1 -30 5 -5 7 6 11 31 11 l38 0 0 -78z m95 63 c-8
-9 -10 -28 -6 -49 8 -41 -1 -86 -18 -86 -7 0 -10 22 -8 71 3 56 1 70 -10 67
-8 -4 -12 -18 -10 -44 4 -48 -6 -104 -18 -104 -14 0 -13 90 1 129 9 27 16 31
46 31 30 0 34 -2 23 -15z m277 2 c3 -3 8 -35 10 -70 l6 -65 -143 -1 -142 -1 6
33 c3 17 8 50 12 72 l6 40 120 -2 c65 0 122 -3 125 -6z m-417 -88 c0 -50 -5
-60 -26 -52 -17 6 -18 34 -3 87 14 49 29 31 29 -35z"/>
<path d="M655 340 c-21 -4 -29 -11 -27 -23 3 -15 -7 -17 -84 -17 -48 0 -85 -3
-81 -6 3 -3 44 -6 91 -6 47 1 88 -4 92 -9 3 -6 8 -37 11 -70 l6 -59 -112 0
-111 0 1 33 c1 17 4 43 8 57 10 34 2 60 -19 60 -15 0 -16 -9 -13 -75 4 -68 3
-75 -14 -75 -17 0 -18 5 -9 70 5 38 7 72 5 75 -3 3 -61 7 -130 9 -68 3 -139 8
-158 12 -30 6 -33 5 -27 -14 6 -16 2 -21 -16 -24 -17 -2 -22 -8 -19 -23 2 -11
5 -56 7 -100 3 -76 15 -115 22 -67 3 18 10 22 43 22 32 0 39 -3 39 -19 0 -11
4 -23 10 -26 6 -4 10 7 10 24 0 28 3 31 30 31 27 0 30 -3 30 -29 0 -17 5 -33
10 -36 6 -4 10 7 10 25 0 24 6 33 26 40 34 13 34 14 35 -17 0 -26 1 -26 9 -7
5 12 13 25 19 28 12 8 24 -26 16 -47 -4 -8 -2 -18 4 -22 7 -4 11 8 11 34 0 34
3 41 20 41 16 0 20 -7 20 -34 0 -19 5 -38 10 -41 6 -4 10 10 10 34 l0 41 110
0 110 0 0 -45 c0 -25 5 -45 10 -45 6 0 10 36 10 89 0 49 4 100 9 113 4 13 11
39 15 59 7 42 -2 49 -49 39z m25 -52 c0 -25 -3 -29 -10 -18 -13 20 -13 50 0
50 6 0 10 -15 10 -32z m-310 -7 c0 -14 -18 -23 -24 -12 -3 5 -15 7 -27 4 -14
-4 -18 -10 -13 -22 4 -9 9 -35 12 -58 4 -41 3 -43 -23 -43 l-28 0 7 61 c7 59
7 60 -16 57 -17 -2 -22 -8 -20 -23 17 -97 17 -97 -19 -93 -19 2 -33 8 -33 13
1 6 4 29 8 53 6 38 4 42 -14 42 -17 0 -20 -7 -20 -51 0 -58 -15 -79 -57 -79
-22 0 -25 2 -13 11 11 8 12 12 3 16 -27 10 -2 99 30 109 57 19 247 30 247 15z
m-290 -25 c0 -3 -4 -8 -10 -11 -5 -3 -10 -1 -10 4 0 6 5 11 10 11 6 0 10 -2
10 -4z m289 -78 c1 -19 -4 -28 -14 -28 -16 0 -21 53 -8 87 6 16 8 15 14 -7 4
-14 7 -37 8 -52z"/>
</g>
</svg>
