<?xml version="1.0" standalone="no"?>
<!DOCTYPE svg PUBLIC "-//W3C//DTD SVG 20010904//EN"
 "http://www.w3.org/TR/2001/REC-SVG-20010904/DTD/svg10.dtd">
<svg version="1.0" xmlns="http://www.w3.org/2000/svg"
 width="111.000000pt" height="227.000000pt" viewBox="0 0 111.000000 227.000000"
 preserveAspectRatio="xMidYMid meet">
<metadata>
Created by potrace 1.16, written by Peter Selinger 2001-2019
</metadata>
<g transform="translate(0.000000,227.000000) scale(0.100000,-0.100000)"
fill="#000000" stroke="none">
<path d="M477 2174 c-53 -36 -71 -43 -81 -34 -16 12 -32 -3 -21 -20 3 -5 -20
-21 -52 -36 -32 -14 -60 -28 -62 -30 -2 -2 4 -13 14 -24 10 -11 14 -20 9 -20
-15 0 -152 69 -159 80 -11 17 -39 10 -58 -15 -9 -13 -14 -26 -10 -28 5 -3 46
-14 93 -25 47 -12 112 -30 145 -42 68 -24 257 -70 286 -70 10 0 19 -3 19 -7
-1 -12 -209 -97 -350 -143 -68 -22 -128 -44 -133 -49 -5 -5 -1 -15 7 -24 19
-19 21 -37 3 -37 -7 0 -22 -6 -33 -14 -19 -14 -19 -15 3 -36 30 -27 49 -66 74
-145 11 -36 24 -65 29 -65 14 0 12 27 -5 85 -12 37 -14 71 -9 128 l7 78 137
67 c141 69 182 88 260 120 l44 19 31 -37 c29 -35 51 -74 75 -134 8 -21 14 -26
22 -18 8 8 8 19 0 39 -16 42 -44 145 -46 168 -1 21 -29 23 -52 4 -6 -5 -14 -6
-17 -3 -11 11 86 104 146 141 32 19 56 40 54 47 -3 6 -8 10 -13 9 -7 -1 -152
-84 -214 -122 -13 -7 -13 -12 -2 -31 7 -12 12 -24 9 -26 -5 -6 -283 62 -296
73 -9 6 94 104 162 155 60 45 81 68 60 68 -5 0 -39 -21 -76 -46z m-352 -114
c3 -5 -1 -10 -9 -10 -8 0 -18 5 -21 10 -3 6 1 10 9 10 8 0 18 -4 21 -10z m212
-13 c-21 -22 -37 -25 -37 -8 0 8 37 29 52 30 4 1 -3 -9 -15 -22z m364 -186
c11 -27 -6 -19 -22 11 -8 16 -8 19 2 16 6 -2 16 -14 20 -27z m-516 -161 c-3
-5 -13 -10 -21 -10 -8 0 -12 5 -9 10 3 6 13 10 21 10 8 0 12 -4 9 -10z m-19
-76 c-3 -9 -6 -28 -6 -42 l0 -27 -19 30 c-17 27 -17 31 -3 43 22 17 35 15 28
-4z"/>
<path d="M63 1990 c-13 -5 -23 -12 -23 -14 0 -3 13 -25 28 -49 15 -25 41 -74
56 -111 16 -36 33 -66 38 -66 12 0 8 20 -26 120 -14 41 -28 87 -31 103 -6 29
-9 30 -42 17z"/>
<path d="M38 1765 c-16 -35 -1 -45 22 -15 24 30 25 40 5 40 -9 0 -21 -11 -27
-25z"/>
<path d="M880 1675 c-9 -11 -9 -19 -2 -28 6 -7 9 -23 5 -35 -8 -31 24 -29 38
2 23 50 -10 98 -41 61z"/>
<path d="M430 1400 c0 -5 -28 -39 -62 -76 l-63 -67 -90 7 c-49 3 -99 7 -110 9
-17 2 -20 -4 -21 -41 -1 -24 -8 -50 -18 -61 -16 -18 -15 -20 33 -47 28 -16 82
-60 121 -98 68 -66 70 -69 50 -83 -28 -20 -25 -32 9 -44 17 -6 46 -30 66 -55
20 -24 41 -44 46 -44 16 0 10 26 -12 46 -26 23 -49 67 -49 92 0 22 43 63 108
101 49 29 208 136 253 170 l26 20 33 -34 c37 -38 68 -48 51 -16 -12 21 1 75
30 133 28 55 7 56 -55 3 -48 -40 -57 -45 -74 -34 -15 10 -52 9 -176 -2 -86 -8
-156 -11 -156 -8 0 7 35 53 67 89 26 29 30 50 8 50 -8 0 -15 -4 -15 -10z m350
-155 c-10 -26 -12 -27 -27 -12 -15 15 -15 18 8 36 28 23 34 15 19 -24z m-80 6
c0 -5 -24 -24 -52 -44 -146 -97 -258 -166 -307 -190 l-54 -26 -64 67 c-68 71
-129 152 -116 153 4 0 45 6 90 12 82 13 83 13 107 -12 l25 -25 10 26 c9 25 15
26 98 33 48 3 97 7 108 9 46 7 155 5 155 -3z m-560 -5 c0 -2 -7 -6 -15 -10 -8
-3 -15 -1 -15 4 0 6 7 10 15 10 8 0 15 -2 15 -4z m-27 -90 c4 -10 1 -13 -9 -9
-7 3 -14 9 -14 14 0 14 17 10 23 -5z m197 -237 c0 -6 -4 -7 -10 -4 -5 3 -10
11 -10 16 0 6 5 7 10 4 6 -3 10 -11 10 -16z"/>
<path d="M907 1045 c-4 -8 -2 -17 4 -21 5 -3 9 -15 7 -26 -4 -29 18 -34 32 -8
16 30 5 70 -19 70 -10 0 -21 -7 -24 -15z"/>
<path d="M332 654 c-37 -29 -40 -44 -12 -69 20 -19 28 -41 10 -30 -6 3 -40 10
-78 14 -37 4 -74 10 -82 12 -11 3 -15 -5 -15 -35 l0 -39 102 2 c101 2 103 2
115 -23 14 -33 32 -34 24 -2 -7 28 1 32 64 30 25 0 95 -2 155 -3 l110 -1 -25
-20 c-14 -11 -28 -20 -33 -20 -4 0 -47 -24 -95 -54 -121 -75 -278 -156 -302
-156 -24 0 -25 -7 -5 -53 8 -20 15 -52 15 -70 0 -50 11 -97 23 -97 6 0 8 20 4
53 -6 62 2 147 14 147 5 0 9 -7 9 -15 0 -24 19 -18 47 15 27 33 144 120 161
120 5 0 15 7 22 15 6 8 48 35 93 61 l81 47 29 -34 c16 -19 40 -55 53 -81 13
-27 28 -48 33 -48 20 0 19 16 -4 54 -20 35 -24 54 -24 129 1 49 -2 91 -5 94
-3 4 -21 -10 -38 -29 l-33 -36 -171 5 c-95 3 -178 9 -185 14 -9 5 -14 29 -15
64 0 30 -3 57 -5 59 -3 3 -19 -6 -37 -20z m18 -45 c0 -11 -4 -17 -10 -14 -5 3
-10 13 -10 21 0 8 5 14 10 14 6 0 10 -9 10 -21z m-61 -75 c2 -2 -23 -4 -57 -4
-38 0 -62 4 -62 11 0 10 108 3 119 -7z m503 -54 c4 -28 4 -29 -14 -13 -21 19
-24 43 -4 43 8 0 16 -13 18 -30z m-417 -210 c-10 -11 -23 -20 -29 -20 -6 0 0
9 14 20 32 25 38 25 15 0z"/>
<path d="M102 510 l-23 -19 58 -58 c32 -32 77 -81 99 -108 65 -78 62 -46 -3
43 -32 44 -67 98 -78 121 -11 22 -22 41 -25 41 -3 -1 -15 -9 -28 -20z"/>
<path d="M922 288 c-17 -17 -15 -48 3 -48 22 0 38 35 22 49 -10 8 -17 7 -25
-1z"/>
</g>
</svg>
