<?xml version="1.0" standalone="no"?>
<!DOCTYPE svg PUBLIC "-//W3C//DTD SVG 20010904//EN"
 "http://www.w3.org/TR/2001/REC-SVG-20010904/DTD/svg10.dtd">
<svg version="1.0" xmlns="http://www.w3.org/2000/svg"
 width="123.000000pt" height="131.000000pt" viewBox="0 0 123.000000 131.000000"
 preserveAspectRatio="xMidYMid meet">
<metadata>
Created by potrace 1.16, written by Peter Selinger 2001-2019
</metadata>
<g transform="translate(0.000000,131.000000) scale(0.100000,-0.100000)"
fill="#000000" stroke="none">
<path d="M662 1177 c-18 -30 -26 -56 -21 -62 5 -7 -36 -34 -117 -75 l-125 -65
-165 0 c-90 0 -164 -3 -164 -7 0 -3 -3 -14 -7 -24 -5 -15 -2 -16 29 -10 54 10
280 8 290 -2 6 -6 -4 -12 -24 -16 -23 -5 -29 -9 -20 -15 7 -4 24 -6 38 -3 19
3 24 0 24 -17 0 -21 -4 -21 -161 -21 -110 0 -160 -3 -157 -11 2 -7 55 -12 143
-14 96 -2 153 -7 180 -18 l40 -16 -90 -2 c-49 -1 -130 -1 -178 0 -90 1 -120
-5 -97 -19 7 -4 47 -6 89 -3 42 3 108 1 146 -4 39 -5 96 -5 127 -1 54 7 61 5
122 -30 51 -29 64 -41 60 -55 -4 -12 5 -28 27 -48 17 -16 32 -28 33 -27 1 2
13 28 26 58 17 38 52 82 112 143 47 48 91 87 97 87 17 0 79 -123 85 -172 14
-96 23 -53 22 102 -1 115 2 162 12 171 6 7 12 17 12 21 0 18 -25 6 -73 -37
-29 -25 -56 -45 -62 -45 -11 0 -57 39 -122 102 -39 37 -83 124 -83 163 0 33
-20 21 -48 -28z m48 -43 c11 -26 20 -48 20 -51 0 -2 -15 8 -33 23 -30 23 -33
29 -23 50 6 13 12 24 13 24 1 0 11 -21 23 -46z m41 -93 c19 -15 61 -49 93 -78
l58 -51 -31 -23 c-27 -20 -44 -23 -141 -24 -60 -1 -109 -6 -108 -11 2 -5 47
-9 100 -9 91 0 96 -1 81 -17 -12 -13 -36 -18 -102 -20 -47 -2 -86 -7 -86 -12
0 -5 31 -8 70 -7 38 1 68 0 65 -2 -3 -3 -25 -21 -49 -40 l-44 -35 -31 19 c-17
10 -67 54 -110 98 l-79 80 34 38 c37 42 66 65 144 117 56 37 51 37 136 -23z
m-291 -68 c-1 -17 -40 -54 -50 -48 -17 10 -11 30 13 41 28 14 37 16 37 7z
m540 -73 c-4 -41 -7 -70 -8 -64 -1 6 -14 28 -28 49 l-25 38 33 27 c18 16 33
27 33 27 1 -1 -2 -36 -5 -77z m-480 -107 c0 -2 -17 4 -37 13 -21 9 -46 18 -55
21 -21 6 -21 8 -7 35 10 19 13 18 55 -23 24 -24 44 -45 44 -46z m178 -102
c-18 -32 -25 -37 -36 -28 -12 9 -9 16 17 39 42 38 46 35 19 -11z"/>
<path d="M582 966 c2 -13 9 -19 18 -17 21 6 52 8 150 9 122 3 87 19 -53 25
-116 4 -118 4 -115 -17z"/>
<path d="M600 918 c0 -12 24 -15 125 -16 81 -2 125 1 125 8 0 6 -34 10 -87 10
-49 0 -105 3 -125 6 -29 5 -38 3 -38 -8z"/>
<path d="M73 905 c4 -11 188 -19 226 -10 48 12 6 20 -110 20 -77 0 -118 -3
-116 -10z"/>
<path d="M1120 745 c-7 -8 -8 -20 -3 -27 4 -7 8 -22 8 -32 0 -11 5 -21 11 -23
14 -5 35 52 28 72 -8 20 -31 26 -44 10z"/>
<path d="M609 457 c-16 -21 -22 -22 -182 -20 -150 3 -197 -4 -168 -22 6 -3 76
-6 157 -6 l148 0 -25 -24 c-27 -27 -65 -33 -207 -34 -70 -1 -93 -4 -89 -13 3
-10 34 -12 122 -10 l119 4 -30 -35 c-28 -35 -30 -36 -106 -36 -63 -1 -78 -4
-78 -16 0 -13 14 -15 93 -11 l94 5 38 -39 39 -40 -132 0 c-111 0 -132 -2 -132
-15 0 -13 23 -15 144 -15 l144 0 41 -47 40 -47 41 47 42 47 134 0 c112 0 134
2 134 15 0 12 -20 15 -117 15 l-117 0 39 40 c37 38 43 40 97 40 73 0 76 15 3
23 -44 4 -60 11 -79 34 l-24 28 64 5 c92 7 80 25 -17 25 -74 1 -83 3 -101 25
l-20 25 38 6 c22 3 69 3 107 1 58 -4 67 -3 67 12 0 15 -14 17 -122 15 -113 -1
-123 0 -139 20 -22 27 -40 26 -60 -2z m98 -69 c28 -26 29 -38 3 -38 -11 0 -20
-4 -20 -10 0 -5 14 -10 32 -10 30 0 88 -41 88 -62 0 -4 -24 -8 -54 -8 -30 0
-58 -4 -61 -10 -4 -6 13 -10 44 -10 28 0 51 -4 51 -9 0 -5 -34 -41 -76 -81
l-76 -72 -67 73 c-77 84 -80 89 -52 89 39 0 21 19 -20 22 l-41 3 31 33 c17 17
38 32 46 32 8 0 15 8 15 17 0 9 10 27 22 40 30 32 102 32 135 1z"/>
<path d="M1093 164 c-3 -8 -1 -20 5 -26 16 -16 47 -5 50 20 3 18 -1 22 -23 22
-14 0 -28 -7 -32 -16z"/>
</g>
</svg>
