<?xml version="1.0" standalone="no"?>
<!DOCTYPE svg PUBLIC "-//W3C//DTD SVG 20010904//EN"
 "http://www.w3.org/TR/2001/REC-SVG-20010904/DTD/svg10.dtd">
<svg version="1.0" xmlns="http://www.w3.org/2000/svg"
 width="110.000000pt" height="204.000000pt" viewBox="0 0 110.000000 204.000000"
 preserveAspectRatio="xMidYMid meet">
<metadata>
Created by potrace 1.16, written by Peter Selinger 2001-2019
</metadata>
<g transform="translate(0.000000,204.000000) scale(0.100000,-0.100000)"
fill="#000000" stroke="none">
<path d="M13 2033 c9 -2 23 -2 30 0 6 3 -1 5 -18 5 -17 0 -22 -2 -12 -5z"/>
<path d="M558 2002 c-7 -7 -9 -56 -6 -126 l4 -115 -30 22 c-17 11 -54 38 -82
59 -28 21 -53 38 -57 38 -3 0 -10 -15 -17 -34 -6 -20 -19 -36 -31 -39 -18 -5
-19 -9 -9 -27 l12 -22 -121 3 c-118 4 -121 3 -121 -17 0 -14 -8 -24 -21 -27
-17 -5 -20 -11 -14 -29 3 -13 10 -52 13 -88 4 -38 11 -63 17 -60 6 3 9 13 8
23 -2 9 1 17 5 17 4 0 7 28 7 62 l0 61 60 12 c33 7 85 14 115 16 l55 4 3 -60
3 -60 -85 -3 -85 -3 10 33 c5 18 9 34 9 35 0 2 -12 3 -26 3 l-25 0 6 -82 c7
-87 10 -98 26 -98 7 0 8 15 4 39 -3 21 -3 41 2 44 4 3 44 6 88 8 l80 3 -3 -29
c-3 -36 5 -75 16 -75 4 0 15 15 26 33 11 18 21 27 23 20 8 -21 23 -14 23 10 0
14 22 44 60 82 l60 59 0 -45 c0 -25 3 -80 6 -123 l7 -76 33 6 c27 5 34 3 34
-10 0 -9 5 -16 10 -16 6 0 10 9 10 19 0 23 12 26 150 42 58 7 111 17 118 24
15 13 4 20 -190 135 -121 72 -152 100 -108 100 11 0 20 7 20 15 0 8 50 62 110
121 61 59 107 111 103 115 -5 5 -73 9 -151 11 -106 2 -146 0 -154 -10z m206
-74 c-26 -29 -63 -69 -83 -88 l-34 -34 6 58 c3 31 11 64 18 72 9 11 8 14 -8
14 -10 0 -27 -6 -36 -12 -15 -11 -16 -21 -6 -77 10 -62 9 -65 -15 -90 l-26
-26 -2 40 c0 22 -2 68 -3 102 l-3 63 42 10 c22 6 46 13 51 15 6 2 41 4 79 4
l69 1 -49 -52z m-289 -155 c44 -20 82 -39 85 -41 7 -5 -106 -112 -119 -112
-13 0 -14 34 -2 77 11 39 3 47 -26 25 -19 -15 -20 -23 -13 -72 5 -37 4 -57 -4
-62 -14 -9 -23 29 -25 97 -1 56 9 125 17 125 4 0 42 -17 87 -37z m232 -132
c60 -37 123 -76 141 -85 17 -9 32 -20 32 -25 0 -10 -209 -35 -218 -26 -3 3 0
26 6 52 7 25 11 48 9 50 -3 2 -17 1 -31 -3 -20 -5 -25 -11 -20 -23 4 -9 9 -31
12 -48 4 -30 2 -33 -22 -33 -25 0 -26 2 -26 59 0 32 -3 79 -6 105 -5 31 -3 46
4 46 6 0 60 -31 119 -69z"/>
<path d="M1044 1586 c-3 -9 -1 -22 5 -30 6 -7 9 -21 5 -30 -4 -11 -1 -16 10
-16 17 0 30 36 24 67 -4 23 -36 29 -44 9z"/>
<path d="M644 1334 c3 -9 6 -22 6 -29 0 -8 10 -15 22 -17 20 -3 21 -8 19 -81
-4 -130 -6 -131 -88 -43 -39 41 -78 91 -88 111 -18 39 -21 39 -39 3 -6 -12
-22 -25 -36 -28 -23 -6 -25 -10 -22 -51 l3 -45 -122 13 c-68 6 -134 13 -148
15 -19 2 -27 -2 -29 -16 -3 -15 0 -17 14 -12 14 5 16 4 8 -4 -6 -6 -30 -14
-54 -18 -44 -7 -69 -32 -32 -32 23 0 32 -53 32 -197 0 -50 5 -95 10 -98 6 -4
10 27 10 84 l0 91 40 0 c25 0 40 -5 41 -12 0 -7 0 -39 -1 -70 -1 -47 2 -58 14
-58 13 0 16 13 16 68 l0 68 92 0 c54 -1 94 3 95 9 2 6 -30 10 -80 11 -46 0
-88 4 -94 7 -7 5 -8 20 -3 44 11 45 7 50 -26 34 -23 -10 -25 -16 -20 -46 l7
-35 -39 0 -39 0 5 53 c2 30 11 57 19 64 23 18 87 25 193 21 l95 -3 3 -132 c3
-145 7 -152 54 -108 15 14 30 25 33 25 3 0 5 -18 5 -41 0 -24 4 -38 10 -34 6
3 10 26 10 50 0 42 2 45 69 93 l68 50 7 -90 c10 -145 9 -158 -13 -158 -21 0
-30 -16 -23 -42 3 -14 11 -16 36 -10 17 3 106 7 198 7 120 0 168 3 168 11 0
12 -8 20 -163 149 l-97 80 0 66 0 66 118 70 c64 39 127 76 140 82 12 7 22 18
22 26 0 12 -14 15 -59 15 -32 0 -126 9 -207 20 -179 24 -168 24 -160 4z m66
-20 c0 -2 -9 -4 -20 -4 -11 0 -20 4 -20 9 0 5 9 7 20 4 11 -3 20 -7 20 -9z
m60 -98 c0 -83 -1 -85 -30 -106 -16 -12 -30 -18 -31 -13 -2 13 0 44 6 126 6
73 8 77 31 77 23 0 24 -2 24 -84z m195 75 l60 -6 -75 -44 c-41 -24 -94 -57
-117 -73 l-43 -29 0 81 0 80 58 -1 c31 -1 84 -4 117 -8z m-454 -53 c11 -21 11
-22 -4 -9 -10 7 -17 17 -17 22 0 15 9 10 21 -13z m-64 -50 c-3 -7 -5 -2 -5 12
0 14 2 19 5 13 2 -7 2 -19 0 -25z m80 -1 c21 -17 49 -42 63 -53 14 -12 38 -33
54 -46 l29 -25 -55 -36 c-30 -21 -58 -37 -62 -37 -5 0 -5 22 -1 50 8 62 1 75
-30 54 -20 -13 -22 -19 -14 -47 16 -55 11 -75 -21 -92 -30 -15 -30 -15 -31 12
0 16 -1 42 -2 58 -2 54 14 195 23 195 4 0 25 -15 47 -33z m239 -164 c-7 -7
-56 25 -56 37 0 5 12 15 28 22 26 13 27 13 30 -20 2 -19 1 -36 -2 -39z m4
-146 c0 -86 -2 -98 -16 -93 -9 3 -22 6 -30 6 -11 0 -14 23 -14 122 l0 122 30
-29 c29 -28 30 -31 30 -128z m115 -5 c33 -30 72 -61 88 -70 33 -20 35 -33 5
-28 -13 3 -60 5 -105 5 l-83 1 0 86 c0 99 -9 98 95 6z"/>
<path d="M667 663 c-2 -5 -7 -20 -11 -35 -3 -16 -11 -28 -16 -28 -6 0 -10 -7
-10 -15 0 -8 6 -15 14 -15 8 0 17 -12 21 -27 12 -43 21 -173 13 -173 -4 0 -33
11 -64 25 -31 14 -61 25 -67 25 -15 0 -107 63 -139 95 l-27 26 -17 -32 c-17
-34 -16 -65 6 -188 5 -30 8 -56 7 -57 -1 0 -41 -4 -89 -7 l-88 -6 0 39 c0 21
-3 45 -6 54 -5 14 4 16 61 16 49 0 66 3 63 13 -3 8 -39 14 -114 17 -60 3 -116
9 -125 13 -24 12 -34 -53 -11 -71 13 -10 16 -33 16 -114 1 -72 5 -102 14 -105
9 -3 12 11 12 51 l0 56 34 0 c34 0 35 -1 38 -47 2 -29 8 -48 17 -51 11 -4 13
5 7 46 -8 59 -7 60 99 63 l70 3 3 -32 c2 -23 -1 -32 -12 -32 -10 0 -14 -12
-14 -45 0 -25 4 -48 9 -51 6 -3 29 12 53 34 39 36 76 62 226 158 75 48 22 39
-66 -11 -43 -24 -83 -45 -88 -45 -5 0 -6 43 -4 95 5 97 3 104 -32 85 -15 -8
-17 -15 -10 -38 4 -15 11 -42 14 -59 5 -31 4 -33 -26 -33 l-31 0 5 85 c2 47 7
87 10 90 3 3 66 -17 141 -46 l134 -52 2 -61 c0 -33 4 -85 7 -114 6 -49 5 -54
-15 -59 -16 -4 -20 -10 -15 -22 3 -9 9 -24 11 -33 8 -27 18 -22 65 26 24 25
90 71 146 104 57 32 105 62 105 67 1 5 -11 12 -28 18 -90 27 -165 60 -165 72
0 13 130 96 198 126 18 8 32 19 32 25 0 5 -53 27 -117 48 -137 45 -193 74
-213 110 -13 26 -25 33 -33 19z m40 -70 c-8 -7 -37 9 -31 19 3 5 12 4 20 -3 8
-6 13 -14 11 -16z m64 -63 c4 -14 7 -57 8 -96 1 -66 -1 -72 -21 -78 -48 -12
-48 -11 -48 100 l0 105 27 -3 c19 -2 29 -10 34 -28z m136 -20 c40 -13 70 -27
68 -31 -3 -4 -24 -17 -47 -29 -24 -12 -62 -33 -85 -47 l-43 -25 0 29 c0 63 13
134 24 130 6 -2 43 -15 83 -27z m-498 -34 c10 -12 8 -13 -8 -9 -12 3 -21 9
-21 14 0 14 16 11 29 -5z m-234 -174 l0 -57 -32 -3 c-32 -3 -33 -2 -33 35 0
44 23 83 48 83 14 0 17 -10 17 -58z m601 5 c1 -1 5 -37 9 -79 l7 -76 -30 -16
c-17 -9 -33 -16 -35 -16 -8 0 -19 179 -12 191 6 8 53 5 61 -4z m102 -39 c34
-12 62 -24 62 -27 -1 -6 -123 -81 -126 -77 -5 6 -11 126 -6 126 4 0 35 -10 70
-22z m-418 -48 c0 -13 -10 -24 -26 -30 -34 -13 -34 -13 -34 13 0 30 7 37 37
37 16 0 23 -6 23 -20z m-51 -82 c-13 -13 -26 -19 -28 -14 -4 10 27 36 42 36 6
0 -1 -10 -14 -22z"/>
</g>
</svg>
