<?xml version="1.0" standalone="no"?>
<!DOCTYPE svg PUBLIC "-//W3C//DTD SVG 20010904//EN"
 "http://www.w3.org/TR/2001/REC-SVG-20010904/DTD/svg10.dtd">
<svg version="1.0" xmlns="http://www.w3.org/2000/svg"
 width="46.000000pt" height="47.000000pt" viewBox="0 0 46.000000 47.000000"
 preserveAspectRatio="xMidYMid meet">
<metadata>
Created by potrace 1.16, written by Peter Selinger 2001-2019
</metadata>
<g transform="translate(0.000000,47.000000) scale(0.100000,-0.100000)"
fill="#000000" stroke="none">
<path d="M173 408 c-38 -23 -38 -22 -18 -79 9 -23 12 -46 8 -50 -5 -4 -30 -14
-58 -22 -42 -12 -51 -19 -56 -43 -4 -16 -10 -37 -14 -46 -6 -15 2 -17 67 -20
l73 -3 0 -42 c0 -56 19 -60 23 -6 4 48 -10 46 141 17 72 -14 94 -12 75 5 -8 8
-94 30 -181 46 -32 6 -33 8 -33 54 l0 47 81 33 c71 29 101 52 87 67 -3 2 -41
-13 -84 -35 -43 -21 -81 -37 -82 -36 -2 2 3 28 12 58 25 86 20 93 -41 55z m19
-54 c-4 -22 -6 -24 -14 -10 -9 16 -3 36 11 36 5 0 6 -12 3 -26z m-12 -140 c0
-34 -1 -36 -27 -29 -43 10 -49 22 -22 44 36 30 49 26 49 -15z m-77 -41 c-7 -2
-19 -2 -25 0 -7 3 -2 5 12 5 14 0 19 -2 13 -5z"/>
</g>
</svg>
