<?xml version="1.0" standalone="no"?>
<!DOCTYPE svg PUBLIC "-//W3C//DTD SVG 20010904//EN"
 "http://www.w3.org/TR/2001/REC-SVG-20010904/DTD/svg10.dtd">
<svg version="1.0" xmlns="http://www.w3.org/2000/svg"
 width="59.000000pt" height="43.000000pt" viewBox="0 0 59.000000 43.000000"
 preserveAspectRatio="xMidYMid meet">
<metadata>
Created by potrace 1.16, written by Peter Selinger 2001-2019
</metadata>
<g transform="translate(0.000000,43.000000) scale(0.100000,-0.100000)"
fill="#000000" stroke="none">
<path d="M223 314 l6 -37 -73 6 -74 5 -5 -41 c-8 -58 -9 -185 -3 -196 3 -5 23
-3 43 5 45 16 119 18 128 4 3 -5 11 -10 17 -10 7 0 9 26 6 75 l-5 74 31 11
c17 6 75 16 129 22 53 7 97 15 97 20 0 4 -47 8 -104 8 -57 0 -111 3 -120 6
-11 4 -16 19 -16 45 0 37 -2 39 -31 39 -31 0 -31 -1 -26 -36z m37 -11 c0 -22
-2 -25 -10 -13 -13 20 -13 40 0 40 6 0 10 -12 10 -27z m-20 -64 c0 -5 -26 -9
-57 -9 -64 0 -63 17 2 22 44 4 55 1 55 -13z m65 1 c-3 -5 -13 -10 -21 -10 -8
0 -14 5 -14 10 0 6 9 10 21 10 11 0 17 -4 14 -10z m-65 -50 c0 -17 -6 -20 -37
-19 -36 0 -123 15 -113 18 3 1 28 5 55 8 28 3 52 7 54 9 14 13 41 2 41 -16z
m0 -45 c0 -17 -36 -20 -91 -8 l-34 8 40 6 c70 11 85 10 85 -6z m3 -40 c2 -12
-89 -19 -112 -9 -10 5 3 10 39 14 66 8 71 7 73 -5z"/>
</g>
</svg>
