<?xml version="1.0" standalone="no"?>
<!DOCTYPE svg PUBLIC "-//W3C//DTD SVG 20010904//EN"
 "http://www.w3.org/TR/2001/REC-SVG-20010904/DTD/svg10.dtd">
<svg version="1.0" xmlns="http://www.w3.org/2000/svg"
 width="85.000000pt" height="37.000000pt" viewBox="0 0 85.000000 37.000000"
 preserveAspectRatio="xMidYMid meet">
<metadata>
Created by potrace 1.16, written by Peter Selinger 2001-2019
</metadata>
<g transform="translate(0.000000,37.000000) scale(0.100000,-0.100000)"
fill="#000000" stroke="none">
<path d="M421 285 c-7 -19 -17 -35 -22 -35 -5 0 -9 -23 -9 -51 l0 -51 -34 6
c-31 6 -36 4 -49 -23 -17 -33 -12 -44 12 -32 9 5 29 11 44 15 l29 7 -7 -42
c-6 -33 -4 -40 6 -37 8 3 15 21 17 40 l3 36 57 4 c31 3 101 4 154 4 l97 -1 6
36 c4 23 19 49 41 70 62 60 52 66 -94 61 -98 -3 -141 0 -182 12 -29 9 -54 16
-55 16 0 0 -7 -16 -14 -35z m162 -36 c-6 -6 -8 -30 -5 -55 3 -29 1 -44 -7 -44
-14 0 -15 75 0 102 6 11 13 17 17 14 3 -4 1 -11 -5 -17z m50 9 c-4 -7 -8 -33
-8 -57 0 -26 -5 -46 -12 -48 -9 -3 -13 6 -13 25 0 37 19 92 32 92 5 0 6 -6 1
-12z m39 -48 c-3 -45 -8 -60 -19 -60 -11 0 -13 7 -9 30 3 17 9 44 12 60 10 51
19 33 16 -30z m41 13 c-8 -64 -22 -90 -23 -41 0 32 17 88 26 88 2 0 1 -21 -3
-47z m-220 -10 c-4 -58 -9 -73 -23 -73 -13 0 -9 102 5 112 19 14 21 8 18 -39z
m45 -8 c3 -45 0 -55 -13 -55 -12 0 -15 9 -12 43 2 35 12 67 20 67 1 0 3 -25 5
-55z m-95 -22 c-7 -44 -10 -50 -22 -37 -10 11 6 74 19 74 5 0 6 -17 3 -37z"/>
<path d="M86 243 c-3 -3 -6 -14 -6 -24 0 -9 -9 -38 -20 -63 -22 -52 -15 -62
27 -41 16 8 60 16 96 17 71 3 96 21 38 26 -40 4 -111 46 -111 67 0 16 -14 27
-24 18z m45 -72 l32 -20 -37 -6 c-43 -9 -47 -6 -39 23 7 27 5 27 44 3z"/>
</g>
</svg>
