<?xml version="1.0" standalone="no"?>
<!DOCTYPE svg PUBLIC "-//W3C//DTD SVG 20010904//EN"
 "http://www.w3.org/TR/2001/REC-SVG-20010904/DTD/svg10.dtd">
<svg version="1.0" xmlns="http://www.w3.org/2000/svg"
 width="59.000000pt" height="62.000000pt" viewBox="0 0 59.000000 62.000000"
 preserveAspectRatio="xMidYMid meet">
<metadata>
Created by potrace 1.16, written by Peter Selinger 2001-2019
</metadata>
<g transform="translate(0.000000,62.000000) scale(0.100000,-0.100000)"
fill="#000000" stroke="none">
<path d="M30 610 c0 -6 100 -10 280 -10 180 0 280 4 280 10 0 6 -100 10 -280
10 -180 0 -280 -4 -280 -10z"/>
<path d="M160 545 c-18 -19 -33 -25 -55 -23 -25 3 -30 0 -28 -17 1 -11 5 -116
9 -232 4 -117 10 -213 13 -213 4 0 23 11 44 25 29 20 37 22 37 10 0 -8 5 -15
11 -15 6 0 9 6 6 13 -3 8 -2 18 1 24 11 16 130 95 225 149 64 36 87 54 87 69
0 30 -10 40 -70 70 -30 15 -97 58 -147 96 -51 38 -96 69 -101 69 -5 0 -19 -11
-32 -25z m67 -17 c29 -20 42 -38 28 -38 -4 0 -73 30 -84 37 -5 3 9 23 16 23 4
0 22 -10 40 -22z m-100 -55 c-3 -21 -10 -63 -14 -93 l-8 -55 -6 85 c-7 92 -6
100 18 100 12 0 14 -8 10 -37z m104 7 c87 -36 219 -102 219 -110 0 -15 -227
-210 -244 -210 -10 0 -2 92 17 180 16 77 13 90 -19 90 l-24 0 0 -144 0 -144
-35 -26 -35 -27 0 43 c0 65 37 378 45 378 1 0 35 -14 76 -30z m-19 -110 c-6
-41 -12 -38 -12 6 0 19 4 33 8 30 5 -3 7 -19 4 -36z m268 -43 c-8 -8 -37 -26
-65 -41 l-50 -27 55 50 c35 32 58 47 64 41 7 -7 5 -15 -4 -23z"/>
</g>
</svg>
