<?xml version="1.0" standalone="no"?>
<!DOCTYPE svg PUBLIC "-//W3C//DTD SVG 20010904//EN"
 "http://www.w3.org/TR/2001/REC-SVG-20010904/DTD/svg10.dtd">
<svg version="1.0" xmlns="http://www.w3.org/2000/svg"
 width="123.000000pt" height="70.000000pt" viewBox="0 0 123.000000 70.000000"
 preserveAspectRatio="xMidYMid meet">
<metadata>
Created by potrace 1.16, written by Peter Selinger 2001-2019
</metadata>
<g transform="translate(0.000000,70.000000) scale(0.100000,-0.100000)"
fill="#000000" stroke="none">
<path d="M376 661 c-9 -15 -10 -123 -1 -151 11 -38 -9 -13 -39 46 -14 29 -26
59 -26 68 0 23 -17 20 -25 -4 -7 -21 -101 -54 -189 -66 -48 -7 -53 -13 -35
-45 8 -16 7 -26 -5 -44 -23 -35 -20 -41 23 -53 21 -7 55 -25 75 -41 20 -16 42
-32 49 -35 12 -4 -3 -20 -26 -29 -5 -1 -1 -28 8 -60 9 -31 15 -73 13 -94 -3
-38 -3 -37 -30 35 -16 40 -28 89 -28 108 0 19 -4 34 -9 34 -11 0 -71 -21 -71
-25 0 -2 15 -20 33 -40 18 -20 46 -68 61 -108 60 -156 66 -161 66 -48 l0 79
70 12 c96 16 98 30 4 30 l-77 0 6 40 c3 23 12 52 21 65 16 25 118 105 133 105
4 0 9 -65 11 -144 2 -122 1 -144 -13 -149 -19 -8 -21 -67 -2 -67 8 0 40 9 73
21 32 11 79 22 103 23 l44 2 -1 95 c0 89 13 184 29 203 4 4 54 25 111 46 56
21 164 61 238 90 74 28 142 53 150 56 13 5 12 7 -3 19 -13 10 -71 13 -230 14
-208 1 -366 7 -459 17 -25 2 -49 0 -52 -5z m88 -22 c-3 -5 -22 -9 -42 -8 -24
0 -31 3 -20 7 26 11 69 11 62 1z m572 -22 c3 -2 -147 -61 -301 -118 -44 -16
-90 -29 -102 -29 -13 0 -23 -4 -23 -9 0 -6 -19 -11 -42 -13 -39 -3 -43 -6 -46
-30 -3 -26 -7 -28 -48 -28 -38 0 -44 -3 -44 -20 0 -19 4 -20 38 -13 72 14 97
10 100 -16 4 -23 2 -24 -50 -18 -29 3 -60 7 -68 9 -12 2 -16 -12 -18 -79 -1
-45 2 -84 7 -87 5 -3 22 1 37 9 16 8 40 15 52 15 14 0 22 5 20 12 -3 8 -19 12
-41 10 -45 -4 -49 13 -6 22 65 13 70 10 67 -37 l-3 -42 -77 -3 -78 -3 -2 63
c-1 35 -3 83 -3 108 -1 25 3 100 8 167 l10 122 56 6 c31 4 61 8 66 10 12 3
488 -4 491 -8z m-728 -78 c52 -51 54 -69 10 -64 -121 15 -156 14 -162 -2 -10
-26 5 -32 54 -23 25 5 67 9 94 10 43 0 47 -2 35 -16 -15 -18 -122 -74 -141
-74 -21 0 -87 69 -94 97 -5 19 -2 30 12 41 18 13 132 70 144 72 3 0 24 -19 48
-41z m89 4 c-3 -10 -5 -4 -5 12 0 17 2 24 5 18 2 -7 2 -21 0 -30z m-297 -17
c0 -3 -4 -8 -10 -11 -5 -3 -10 -1 -10 4 0 6 5 11 10 11 6 0 10 -2 10 -4z m-10
-82 c0 -8 -5 -12 -10 -9 -6 4 -8 11 -5 16 9 14 15 11 15 -7z m497 -56 c-3 -8
-6 -5 -6 6 -1 11 2 17 5 13 3 -3 4 -12 1 -19z m-467 -100 c0 -18 -2 -20 -9 -8
-6 8 -7 18 -5 22 9 14 14 9 14 -14z m450 2 c0 -18 -7 -20 -55 -20 -63 0 -74
16 -17 25 20 4 42 8 47 10 21 7 25 4 25 -15z m-140 -170 c-8 -5 -24 -9 -35 -9
-16 1 -16 2 5 9 35 11 48 11 30 0z"/>
<path d="M1078 3 c12 -2 30 -2 40 0 9 3 -1 5 -23 4 -22 0 -30 -2 -17 -4z"/>
<path d="M1183 3 c9 -2 25 -2 35 0 9 3 1 5 -18 5 -19 0 -27 -2 -17 -5z"/>
</g>
</svg>
