<?xml version="1.0" standalone="no"?>
<!DOCTYPE svg PUBLIC "-//W3C//DTD SVG 20010904//EN"
 "http://www.w3.org/TR/2001/REC-SVG-20010904/DTD/svg10.dtd">
<svg version="1.0" xmlns="http://www.w3.org/2000/svg"
 width="117.000000pt" height="154.000000pt" viewBox="0 0 117.000000 154.000000"
 preserveAspectRatio="xMidYMid meet">
<metadata>
Created by potrace 1.16, written by Peter Selinger 2001-2019
</metadata>
<g transform="translate(0.000000,154.000000) scale(0.100000,-0.100000)"
fill="#000000" stroke="none">
<path d="M30 1530 c0 -7 197 -10 570 -10 373 0 570 3 570 10 0 7 -197 10 -570
10 -373 0 -570 -3 -570 -10z"/>
<path d="M697 1468 c-2 -18 -3 -35 -1 -37 2 -2 23 -5 46 -7 23 -1 61 -8 84
-14 41 -12 42 -13 33 -42 -4 -16 -17 -45 -29 -65 -11 -19 -20 -36 -20 -38 0
-9 62 -1 65 9 2 6 6 41 9 78 6 67 6 68 -21 74 -44 11 -113 42 -129 59 -23 22
-31 18 -37 -17z"/>
<path d="M214 1428 c-9 -18 -41 -64 -72 -101 -63 -77 -61 -106 2 -35 39 44 44
47 73 39 56 -16 74 -31 68 -52 -9 -27 4 -99 17 -99 7 0 9 20 5 55 -3 30 -3 55
0 55 2 0 32 -16 64 -35 33 -19 64 -35 70 -35 27 0 -2 -22 -96 -70 l-106 -55
-34 38 c-37 39 -45 44 -45 26 0 -6 -13 -28 -30 -49 -16 -21 -30 -41 -30 -44 0
-3 16 -27 36 -53 19 -25 51 -77 70 -115 19 -37 39 -68 44 -68 16 0 12 17 -25
91 -19 39 -35 77 -35 83 0 7 14 22 31 35 l30 23 85 -51 c47 -28 87 -51 90 -51
2 0 4 6 4 14 0 8 -34 33 -75 57 -41 23 -75 46 -75 49 0 4 12 13 28 21 15 7 59
33 98 56 l71 42 79 -40 c43 -22 81 -45 82 -50 2 -5 -12 -10 -32 -10 -60 -2
-61 -3 -59 -33 3 -37 12 -45 27 -24 16 21 86 52 86 38 0 -5 -16 -16 -35 -24
-27 -12 -35 -21 -35 -40 0 -31 13 -33 43 -5 12 11 45 31 73 44 52 24 52 24 56
77 5 64 4 68 -22 61 -18 -5 -20 -11 -14 -52 5 -39 3 -48 -15 -58 -13 -8 -22
-9 -26 -3 -3 6 0 10 8 10 8 0 18 7 21 16 9 24 8 26 -14 19 -19 -6 -20 -3 -14
36 6 38 5 42 -10 36 -10 -4 -22 -7 -28 -7 -6 0 -8 -10 -4 -25 4 -14 4 -25 1
-25 -3 0 -38 16 -77 36 l-71 36 46 29 c54 33 72 37 62 12 -16 -39 -17 -54 -5
-69 17 -20 27 -5 35 58 7 51 20 67 37 50 8 -8 6 -18 -5 -35 -12 -18 -13 -27
-4 -36 20 -20 37 -12 37 19 0 17 5 30 10 30 6 0 8 10 5 23 -7 29 7 49 29 41
18 -7 18 -15 0 -86 -5 -24 -3 -28 13 -28 17 0 21 9 26 63 3 34 9 72 13 85 3
12 2 22 -4 22 -5 0 -13 -12 -17 -27 -6 -26 -6 -26 -69 36 -51 50 -64 59 -70
46 -14 -37 -6 -53 27 -60 44 -10 50 -15 36 -31 -20 -25 -58 -17 -77 16 -23 41
-42 38 -42 -5 0 -31 3 -35 25 -35 28 0 33 -15 8 -24 -10 -4 -26 3 -43 19 -34
33 -42 32 -38 -7 2 -21 8 -32 16 -30 26 5 7 -19 -33 -42 l-40 -24 -83 50 c-91
55 -85 42 -66 138 5 28 4 30 -25 30 -16 0 -33 5 -36 10 -12 20 -35 10 -51 -22z
m46 -7 c0 -5 -7 -11 -15 -15 -15 -5 -20 5 -8 17 9 10 23 9 23 -2z m10 -57 c0
-18 -14 -18 -29 0 -9 11 -9 15 1 19 17 6 28 -1 28 -19z m430 -38 c0 -3 -4 -8
-10 -11 -5 -3 -10 -1 -10 4 0 6 5 11 10 11 6 0 10 -2 10 -4z m-495 -246 c3 -5
2 -10 -4 -10 -5 0 -16 -3 -25 -6 -11 -4 -16 -1 -16 10 0 18 35 22 45 6z"/>
<path d="M872 1191 c-20 -14 -23 -25 -20 -65 2 -41 0 -49 -15 -52 -17 -2 -18
3 -12 57 6 54 5 59 -13 59 -32 0 -46 -25 -33 -61 23 -67 18 -76 -59 -95 -70
-18 -78 -26 -60 -54 8 -12 13 -13 27 -2 10 7 36 21 58 32 37 18 40 18 46 2 10
-26 2 -32 -42 -32 -37 0 -39 -2 -39 -29 0 -30 21 -54 28 -33 5 15 52 40 104
56 l39 11 3 80 c1 44 8 91 15 104 17 31 2 44 -27 22z m-16 -147 c-3 -9 -6 -22
-6 -30 0 -8 -7 -14 -15 -14 -18 0 -21 46 -2 53 23 10 29 7 23 -9z"/>
<path d="M1054 946 c-3 -8 -2 -21 2 -28 5 -7 7 -21 6 -30 -2 -10 1 -18 7 -18
15 0 33 38 29 63 -4 26 -35 35 -44 13z"/>
<path d="M876 735 c-5 -21 1 -32 34 -64 42 -39 48 -55 28 -67 -14 -9 -53 36
-78 91 l-19 39 -11 -29 c-10 -26 -9 -31 14 -48 26 -19 34 -51 17 -62 -12 -7
-49 40 -57 72 -8 30 -22 29 -30 -2 -5 -19 0 -30 25 -51 34 -28 38 -45 17 -63
-11 -9 -20 -3 -45 31 -17 23 -31 48 -31 55 0 24 -19 14 -26 -14 -5 -18 -2 -30
9 -38 15 -11 15 -13 -2 -29 -18 -16 -20 -16 -40 10 -11 15 -21 31 -21 35 0 5
-4 9 -10 9 -5 0 -10 -16 -10 -35 0 -24 5 -35 14 -35 8 0 18 -5 21 -11 9 -14
-24 -49 -47 -49 -10 0 -57 -25 -103 -55 -47 -30 -88 -55 -90 -55 -3 0 -2 57 1
126 l6 126 -34 -7 c-18 -4 -35 -9 -37 -11 -3 -2 3 -29 13 -59 17 -56 33 -155
24 -155 -11 0 -74 30 -91 43 -10 9 -18 31 -20 55 -1 23 -5 44 -8 47 -3 3 -19
-13 -34 -35 -15 -22 -31 -37 -36 -35 -11 8 -99 -16 -99 -26 0 -4 6 -12 13 -16
21 -12 47 -101 47 -159 0 -44 3 -54 20 -59 11 -3 25 -15 30 -26 15 -27 27 -24
35 10 3 16 15 37 25 46 17 16 19 15 30 -4 6 -12 15 -19 21 -16 5 4 5 14 -1 26
-12 22 -6 39 14 39 7 0 21 9 31 20 29 32 35 24 35 -39 0 -65 7 -94 21 -85 5 3
6 40 3 86 l-7 81 64 -35 c35 -19 100 -55 143 -79 l80 -43 -30 -12 c-16 -7 -37
-11 -46 -8 -15 5 -18 -1 -18 -35 0 -23 4 -41 9 -41 5 0 24 14 42 31 18 17 45
37 60 44 24 13 28 13 33 -1 4 -9 -3 -18 -18 -23 -19 -8 -22 -15 -18 -40 l4
-30 62 43 c85 60 86 60 86 38 0 -11 -13 -25 -35 -35 -38 -18 -43 -33 -20 -63
15 -19 16 -18 33 6 9 14 33 43 54 65 l36 40 7 -28 c4 -15 11 -27 16 -27 12 0
11 27 -1 49 -7 14 -5 23 9 35 18 16 19 15 30 -28 14 -58 38 -76 26 -20 -5 21
-9 65 -9 96 -1 31 -4 59 -7 63 -10 9 -49 -50 -49 -73 0 -12 -5 -24 -11 -28 -8
-4 -10 11 -8 51 5 68 -10 81 -34 30 -15 -32 -15 -36 0 -64 15 -25 15 -31 3
-46 -13 -15 -14 -15 -23 1 -6 10 -11 49 -12 86 -2 38 -6 68 -10 69 -4 0 -16
-17 -27 -37 -19 -36 -19 -38 -1 -71 16 -29 16 -35 3 -43 -8 -5 -18 -6 -21 -2
-10 11 -28 103 -22 117 11 29 -18 23 -34 -7 l-18 -33 -3 33 c-4 40 -13 40 -35
3 -17 -29 -17 -30 8 -55 28 -29 25 -58 -3 -33 -22 19 -109 70 -195 114 -38 20
-65 38 -60 42 4 4 38 29 75 55 l67 46 17 -25 c18 -28 34 -25 34 7 l0 21 23
-21 c26 -24 37 -20 37 13 0 23 47 81 57 71 4 -3 -3 -16 -15 -29 -26 -28 -28
-43 -6 -51 25 -10 34 -7 34 9 0 23 39 95 51 95 18 0 22 -31 5 -49 -17 -19 -16
-23 17 -34 14 -5 22 3 39 41 11 26 22 41 25 35 9 -26 23 -12 21 20 -3 26 0 31
15 29 12 -2 17 4 17 23 0 14 -6 25 -12 25 -16 0 -68 80 -68 104 0 26 -27 19
-34 -9z m29 -145 c8 -13 -3 -50 -15 -50 -12 0 -23 37 -15 50 3 5 10 10 15 10
5 0 12 -5 15 -10z m-485 -37 c0 -22 -2 -25 -10 -13 -13 20 -13 40 0 40 6 0 10
-12 10 -27z m326 -31 c-23 -23 -33 -6 -10 19 12 13 20 16 22 9 3 -7 -3 -19
-12 -28z m-36 -32 c0 -5 -5 -10 -11 -10 -5 0 -7 5 -4 10 3 6 8 10 11 10 2 0 4
-4 4 -10z m-430 -26 c0 -8 -4 -12 -10 -9 -5 3 -10 10 -10 16 0 5 5 9 10 9 6 0
10 -7 10 -16z m-90 -50 c0 -14 -4 -23 -10 -19 -5 3 -10 15 -10 26 0 10 5 19
10 19 6 0 10 -12 10 -26z m148 -16 c40 -18 71 -37 69 -42 -2 -6 -25 -25 -52
-43 l-49 -34 -12 23 c-7 13 -16 40 -19 61 -8 45 -17 46 -45 6 -12 -16 -24 -28
-27 -25 -2 2 -1 25 3 51 6 44 8 47 33 42 15 -3 59 -21 99 -39z m-76 -95 c26
-23 22 -40 -12 -58 -44 -23 -50 -19 -50 30 0 40 3 45 22 45 12 0 30 -7 40 -17z
m528 -79 c0 -8 -4 -12 -10 -9 -5 3 -10 13 -10 21 0 8 5 12 10 9 6 -3 10 -13
10 -21z m24 -40 c10 -25 7 -34 -9 -34 -9 0 -15 9 -15 25 0 28 15 34 24 9z"/>
<path d="M1084 105 c-9 -21 3 -45 21 -45 21 0 30 27 15 45 -16 19 -29 19 -36
0z"/>
<path d="M350 10 c-244 -4 -186 -6 255 -6 314 0 548 1 520 3 -110 6 -477 8
-775 3z"/>
</g>
</svg>
