<?xml version="1.0" standalone="no"?>
<!DOCTYPE svg PUBLIC "-//W3C//DTD SVG 20010904//EN"
 "http://www.w3.org/TR/2001/REC-SVG-20010904/DTD/svg10.dtd">
<svg version="1.0" xmlns="http://www.w3.org/2000/svg"
 width="122.000000pt" height="71.000000pt" viewBox="0 0 122.000000 71.000000"
 preserveAspectRatio="xMidYMid meet">
<metadata>
Created by potrace 1.16, written by Peter Selinger 2001-2019
</metadata>
<g transform="translate(0.000000,71.000000) scale(0.100000,-0.100000)"
fill="#000000" stroke="none">
<path d="M560 700 c311 -3 588 -2 615 1 28 3 -227 6 -565 5 l-615 -1 565 -5z"/>
<path d="M665 654 c-29 -24 -29 -25 -11 -39 18 -13 18 -16 4 -27 -8 -7 -51
-41 -94 -74 -83 -65 -124 -104 -107 -104 10 0 81 53 192 144 l54 44 51 -22
c224 -101 346 -160 346 -167 0 -5 -66 -9 -146 -9 l-146 0 7 51 c6 46 5 51 -11
47 -15 -3 -19 -13 -19 -50 0 -25 -3 -50 -7 -54 -5 -4 -8 16 -8 44 0 28 -4 54
-10 57 -6 4 -10 -14 -10 -45 0 -37 -4 -50 -12 -47 -8 2 -12 19 -10 45 2 22 -2
43 -7 47 -7 4 -11 -11 -11 -44 0 -28 -4 -51 -10 -51 -5 0 -9 15 -8 33 2 53 -2
81 -9 73 -4 -4 -6 -23 -5 -42 3 -42 -5 -74 -19 -74 -7 0 -8 25 -3 69 7 72 -2
93 -29 66 -12 -11 -13 -23 -6 -52 20 -88 23 -85 -103 -82 l-111 3 -35 55 c-19
29 -48 82 -64 117 l-30 64 -27 -20 c-53 -37 -57 -48 -25 -73 16 -12 58 -50 94
-85 61 -59 63 -63 35 -58 -16 3 -57 8 -90 12 -33 3 -76 9 -95 15 -55 14 -67
11 -89 -25 -12 -18 -21 -36 -21 -39 0 -4 36 -4 80 -2 44 3 116 7 161 10 71 4
79 3 69 -10 -7 -8 -16 -15 -21 -15 -8 0 -175 -96 -192 -110 -7 -6 36 -60 46
-60 1 0 47 43 102 95 55 52 103 95 107 95 10 0 208 -221 208 -232 0 -4 -7 -8
-15 -8 -12 0 -14 -8 -9 -42 4 -24 9 -46 13 -50 3 -4 38 19 78 50 70 56 204
141 368 232 120 67 119 66 112 83 -3 9 -45 35 -92 58 -48 23 -109 57 -137 75
-27 19 -53 34 -56 34 -3 0 -20 11 -38 25 -18 14 -37 25 -42 25 -4 0 -27 16
-49 35 -23 19 -45 35 -50 35 -4 -1 -21 -12 -38 -26z m95 -39 c29 -19 57 -35
64 -36 7 0 7 -2 0 -5 -15 -7 -145 56 -138 67 9 15 19 11 74 -26z m-470 -67
c28 -58 25 -61 -15 -21 -28 28 -33 38 -24 49 16 19 16 19 39 -28z m-85 -157
c36 -8 33 -9 -33 -10 -47 -1 -71 3 -67 9 7 12 45 12 100 1z m588 -97 c6 -7 11
19 8 40 -1 4 1 16 4 26 5 16 21 18 155 18 83 0 150 -2 150 -6 -2 -22 -409
-230 -455 -232 -6 0 -57 52 -113 115 l-102 115 95 0 95 0 0 -102 c0 -56 3 -98
8 -94 4 5 7 27 8 49 1 107 5 147 14 147 6 0 10 -26 11 -57 1 -96 17 -110 20
-18 l3 80 3 -68 c5 -83 23 -80 23 4 0 76 20 78 21 2 l1 -58 8 49 c13 75 22 88
30 39 3 -24 9 -46 13 -49z m-548 -54 c-26 -26 -42 -37 -49 -30 -11 11 -13 9
39 43 54 37 56 34 10 -13z m505 -84 c0 -4 -95 -76 -117 -90 -9 -5 -13 0 -13
13 0 15 16 28 63 50 71 34 67 32 67 27z"/>
</g>
</svg>
