<?xml version="1.0" standalone="no"?>
<!DOCTYPE svg PUBLIC "-//W3C//DTD SVG 20010904//EN"
 "http://www.w3.org/TR/2001/REC-SVG-20010904/DTD/svg10.dtd">
<svg version="1.0" xmlns="http://www.w3.org/2000/svg"
 width="108.000000pt" height="121.000000pt" viewBox="0 0 108.000000 121.000000"
 preserveAspectRatio="xMidYMid meet">
<metadata>
Created by potrace 1.16, written by Peter Selinger 2001-2019
</metadata>
<g transform="translate(0.000000,121.000000) scale(0.100000,-0.100000)"
fill="#000000" stroke="none">
<path d="M903 1140 c-3 -10 -16 -26 -30 -35 -16 -11 -23 -23 -20 -35 3 -10 -2
-28 -10 -39 -13 -20 -11 -24 23 -56 30 -29 35 -37 24 -50 -7 -8 -15 -15 -19
-15 -12 0 -44 69 -50 107 -7 45 -17 47 -39 11 -16 -27 -15 -28 13 -58 28 -29
28 -30 9 -44 -25 -19 -33 -10 -59 70 l-22 67 -22 -32 c-22 -31 -22 -33 -5 -52
16 -18 16 -21 2 -35 -15 -15 -17 -14 -29 7 -7 13 -15 37 -18 53 -9 44 -26 42
-45 -5 -9 -23 -16 -42 -14 -43 22 -9 44 -26 52 -40 9 -14 6 -21 -13 -37 -13
-11 -31 -24 -40 -29 -21 -12 -6 -38 35 -60 16 -9 30 -26 32 -38 5 -33 29 -26
36 9 8 42 133 170 146 149 7 -11 -5 -24 -43 -52 -29 -20 -56 -38 -60 -38 -12
0 -4 -80 8 -82 6 0 15 10 22 24 13 25 33 48 100 111 36 33 42 36 54 21 14 -17
10 -23 -65 -81 -28 -22 -28 -23 -13 -60 18 -47 34 -52 47 -16 13 37 38 80 68
121 23 30 26 31 42 17 27 -24 29 -8 8 48 -32 82 -65 180 -72 210 -7 31 -26 36
-33 7z m37 -109 c0 -8 -11 -3 -25 14 -22 22 -24 30 -13 42 11 14 14 12 25 -13
7 -16 12 -35 13 -43z m-7 -43 c37 -50 44 -78 21 -85 -6 -2 -16 7 -22 19 -7 13
-21 37 -31 53 -20 31 -27 65 -13 65 4 0 24 -24 45 -52z m-293 -18 c0 -5 -2
-10 -4 -10 -3 0 -8 5 -11 10 -3 6 -1 10 4 10 6 0 11 -4 11 -10z m108 -42 c23
-23 11 -46 -43 -83 -30 -21 -58 -36 -61 -33 -4 5 11 36 33 67 1 2 9 -2 18 -9
20 -16 32 -5 16 14 -10 11 -9 19 1 35 15 24 20 25 36 9z m136 -143 c-7 -16
-24 -21 -24 -6 0 8 7 13 27 20 1 1 0 -6 -3 -14z"/>
<path d="M160 1085 c-14 -15 -35 -25 -51 -25 -38 0 -43 -12 -23 -67 11 -34 16
-87 17 -175 2 -95 5 -128 15 -128 8 0 12 22 12 79 0 51 4 82 13 89 18 14 66
23 138 24 l63 1 56 -63 c38 -42 61 -61 69 -55 9 5 -2 23 -40 61 -29 29 -51 56
-48 58 2 3 56 6 119 7 120 2 140 5 140 21 0 7 -51 8 -148 4 l-147 -7 -62 83
c-34 46 -65 91 -68 101 -10 24 -27 21 -55 -8z m50 -36 c11 -19 10 -20 -9 -9
-22 11 -29 30 -11 30 5 0 14 -9 20 -21z m76 -100 l38 -39 -71 0 c-39 0 -85 3
-102 6 -32 7 -32 8 -25 48 3 22 11 49 16 59 8 17 12 16 58 -9 26 -14 65 -44
86 -65z m-166 72 c0 -6 -4 -13 -10 -16 -5 -3 -10 1 -10 9 0 9 5 16 10 16 6 0
10 -4 10 -9z m30 -131 c0 -5 -7 -10 -16 -10 -8 0 -12 5 -9 10 3 6 10 10 16 10
5 0 9 -4 9 -10z"/>
<path d="M799 493 c-6 -15 -18 -36 -27 -46 -16 -17 -14 -20 20 -50 27 -24 98
-132 98 -150 0 -1 -18 -1 -41 1 -39 4 -43 7 -65 57 -14 30 -27 76 -31 104 -7
58 -15 64 -33 21 -14 -34 -30 -40 -30 -10 0 29 -12 25 -33 -12 -18 -31 -18
-31 11 -62 34 -36 62 -77 62 -89 0 -5 -10 -7 -22 -5 -27 4 -78 95 -78 140 0
37 -16 36 -36 -3 -15 -31 -15 -32 8 -53 23 -20 58 -68 58 -81 0 -3 -13 -5 -29
-5 -24 0 -31 6 -45 40 -9 22 -16 51 -16 65 0 36 -13 36 -37 -1 l-21 -33 24
-15 c13 -9 28 -26 35 -38 l11 -21 -102 7 -103 7 -84 77 c-47 42 -89 87 -94
100 l-9 23 -26 -20 c-15 -12 -35 -21 -45 -21 -11 0 -19 -4 -19 -10 0 -5 -9
-10 -19 -10 -29 0 -35 -17 -18 -53 18 -37 37 -164 37 -243 0 -89 19 -61 22 34
l3 87 117 9 117 9 56 -39 c30 -21 65 -44 76 -51 12 -6 24 -15 28 -20 15 -20
71 -52 84 -48 7 3 19 21 25 39 7 18 24 43 38 57 21 20 27 21 34 9 14 -22 13
-25 -20 -50 -35 -27 -37 -36 -11 -50 17 -9 22 -5 36 24 9 19 29 43 43 52 15
10 32 25 39 33 11 14 14 14 30 -2 16 -16 16 -19 2 -30 -73 -56 -72 -55 -59
-87 14 -33 40 -41 40 -12 0 24 42 82 114 158 31 32 56 62 56 67 0 13 -13 8
-37 -15 l-23 -21 -36 77 c-21 44 -39 100 -42 127 -5 59 -18 71 -33 32z m11
-59 c0 -8 -5 -12 -10 -9 -6 4 -8 11 -5 16 9 14 15 11 15 -7z m-560 -92 c0 -4
-89 45 -100 55 -2 2 2 8 10 13 9 6 25 -3 52 -28 21 -20 38 -38 38 -40z m-140
3 c0 -19 -4 -35 -10 -35 -5 0 -10 16 -10 35 0 19 5 35 10 35 6 0 10 -16 10
-35z m155 -40 c80 -44 78 -46 -30 -39 -55 4 -103 9 -106 13 -3 3 -4 28 -1 54
l4 48 42 -25 c22 -13 64 -36 91 -51z m484 11 c35 -60 36 -66 18 -66 -11 0 -37
47 -65 119 -12 32 19 -3 47 -53z m-194 -102 c-11 -8 -28 -21 -39 -30 -17 -14
-20 -14 -45 8 -14 12 -30 26 -35 30 -6 5 24 8 65 8 68 -1 72 -2 54 -16z m125
8 c0 -4 -12 -15 -27 -25 -66 -40 -76 -52 -63 -76 11 -22 11 -22 -14 -6 -14 10
-26 24 -26 32 0 27 68 83 101 83 16 0 29 -4 29 -8z m67 -26 c-4 -9 -11 -16
-16 -16 -15 0 -23 33 -9 41 17 11 32 -5 25 -25z m118 14 c-14 -16 -20 -17 -27
-8 -13 22 -9 28 19 28 26 0 26 0 8 -20z"/>
</g>
</svg>
