<?xml version="1.0" standalone="no"?>
<!DOCTYPE svg PUBLIC "-//W3C//DTD SVG 20010904//EN"
 "http://www.w3.org/TR/2001/REC-SVG-20010904/DTD/svg10.dtd">
<svg version="1.0" xmlns="http://www.w3.org/2000/svg"
 width="105.000000pt" height="65.000000pt" viewBox="0 0 105.000000 65.000000"
 preserveAspectRatio="xMidYMid meet">
<metadata>
Created by potrace 1.16, written by Peter Selinger 2001-2019
</metadata>
<g transform="translate(0.000000,65.000000) scale(0.100000,-0.100000)"
fill="#000000" stroke="none">
<path d="M23 643 c15 -2 39 -2 55 0 15 2 2 4 -28 4 -30 0 -43 -2 -27 -4z"/>
<path d="M138 643 c12 -2 32 -2 45 0 12 2 2 4 -23 4 -25 0 -35 -2 -22 -4z"/>
<path d="M248 643 c12 -2 30 -2 40 0 9 3 -1 5 -23 4 -22 0 -30 -2 -17 -4z"/>
<path d="M518 643 c101 -2 263 -2 360 0 97 1 15 2 -183 2 -198 0 -278 -1 -177
-2z"/>
<path d="M516 585 c-19 -28 -20 -42 -5 -47 6 -2 -11 -19 -38 -38 -26 -18 -64
-47 -84 -64 -74 -64 -89 -76 -98 -76 -5 0 -35 41 -67 90 l-58 90 -22 -27 -23
-28 65 -65 c35 -36 64 -68 64 -71 0 -7 -120 1 -157 11 l-33 8 0 -40 c0 -39 1
-40 28 -34 84 19 135 27 145 23 6 -2 -16 -22 -48 -45 -99 -68 -98 -67 -90
-101 4 -17 10 -33 14 -35 3 -2 33 29 65 70 33 41 71 84 87 95 l28 19 84 -97
c47 -54 96 -109 111 -122 14 -14 26 -30 26 -37 0 -29 22 -22 80 25 34 27 126
88 205 136 100 60 142 91 138 101 -3 8 -9 14 -13 14 -17 0 -227 146 -296 206
-40 35 -77 64 -82 64 -6 0 -17 -11 -26 -25z m84 -46 l45 -40 -45 22 c-56 27
-71 39 -64 50 9 15 17 11 64 -32z m130 -112 c47 -26 99 -58 115 -72 l30 -25
-175 3 c-154 2 -175 4 -174 18 1 9 5 38 8 64 l8 48 -29 -8 c-15 -3 -29 -8 -30
-9 -1 -1 1 -26 6 -54 4 -29 5 -54 2 -56 -3 -1 -44 0 -89 3 l-84 6 24 21 c12
12 63 53 111 92 l88 70 52 -27 c29 -15 90 -49 137 -74z m-535 24 c-8 -8 -35
22 -35 38 0 12 5 10 20 -9 10 -14 17 -27 15 -29z m-55 -121 c21 -7 19 -8 -17
-9 -24 -1 -43 4 -43 9 0 12 24 12 60 0z m358 -110 c3 -87 2 -91 -16 -81 -11 6
-52 49 -91 96 l-72 85 88 -4 88 -5 3 -91z m372 87 c18 -3 -113 -81 -248 -147
l-102 -49 0 98 c0 54 2 100 4 102 4 4 316 0 346 -4z m-732 -107 c-13 -21 -28
-27 -28 -10 0 5 8 14 18 19 23 14 24 14 10 -9z m452 -84 c0 -3 -13 -14 -30
-26 -16 -12 -30 -17 -30 -11 0 6 12 17 28 25 31 17 32 18 32 12z"/>
<path d="M263 3 c148 -2 386 -2 530 0 144 1 24 2 -268 2 -292 0 -409 -1 -262
-2z"/>
</g>
</svg>
