<?xml version="1.0" standalone="no"?>
<!DOCTYPE svg PUBLIC "-//W3C//DTD SVG 20010904//EN"
 "http://www.w3.org/TR/2001/REC-SVG-20010904/DTD/svg10.dtd">
<svg version="1.0" xmlns="http://www.w3.org/2000/svg"
 width="109.000000pt" height="49.000000pt" viewBox="0 0 109.000000 49.000000"
 preserveAspectRatio="xMidYMid meet">
<metadata>
Created by potrace 1.16, written by Peter Selinger 2001-2019
</metadata>
<g transform="translate(0.000000,49.000000) scale(0.100000,-0.100000)"
fill="#000000" stroke="none">
<path d="M897 398 l-18 -31 39 -41 c22 -23 47 -56 57 -74 19 -39 27 -30 -85
-102 -38 -25 -69 -48 -69 -51 -1 -10 36 -49 47 -49 6 0 13 9 17 19 3 11 37 51
75 90 73 74 78 81 57 81 -17 0 -74 105 -82 153 -4 20 -10 37 -14 37 -3 0 -14
-14 -24 -32z"/>
<path d="M826 396 c-9 -14 -16 -27 -16 -30 0 -3 23 -28 50 -57 28 -29 50 -58
50 -65 0 -7 -36 -36 -80 -65 -44 -28 -80 -54 -80 -58 0 -5 10 -16 21 -27 19
-16 23 -17 27 -4 3 8 36 47 73 86 l69 70 -25 34 c-14 18 -32 54 -41 79 -23 62
-28 66 -48 37z m29 -44 c-8 -8 -25 10 -19 20 4 6 9 5 15 -3 4 -7 6 -15 4 -17z
m-55 -226 c0 -3 -4 -8 -10 -11 -5 -3 -10 -1 -10 4 0 6 5 11 10 11 6 0 10 -2
10 -4z"/>
<path d="M215 365 c-11 -13 -29 -26 -40 -27 -13 -2 -19 -9 -17 -20 2 -14 -4
-18 -32 -18 -19 0 -38 5 -41 10 -4 6 -11 8 -16 4 -5 -3 -7 -9 -4 -14 3 -4 5
-57 6 -116 0 -60 3 -112 5 -116 2 -4 25 2 50 13 44 20 46 20 59 2 13 -16 14
-13 15 30 0 42 3 49 28 58 15 6 50 13 77 16 l50 5 37 -49 c46 -61 74 -87 82
-75 3 4 -16 32 -41 61 -25 28 -44 54 -42 56 2 2 65 6 139 10 l135 6 -48 -27
c-51 -30 -56 -47 -20 -71 21 -14 23 -14 32 8 12 33 103 120 118 114 15 -5 18
31 4 39 -4 3 -14 33 -21 66 -13 62 -18 68 -38 48 -18 -18 -15 -40 14 -82 24
-35 25 -40 10 -54 -8 -9 -17 -14 -19 -11 -11 14 -47 111 -47 128 0 35 -18 33
-36 -5 -17 -36 -17 -37 2 -53 24 -20 64 -71 64 -81 0 -5 -11 -5 -25 -2 -14 4
-85 3 -158 -1 l-132 -8 -23 28 c-12 15 -39 56 -59 91 -21 34 -40 62 -43 62 -3
-1 -14 -12 -25 -25z m42 -42 c-8 -7 -37 9 -31 19 3 5 12 4 20 -3 8 -6 13 -14
11 -16z m383 -3 c0 -5 -2 -10 -4 -10 -3 0 -8 5 -11 10 -3 6 -1 10 4 10 6 0 11
-4 11 -10z m-357 -61 l52 -51 -57 5 c-32 3 -61 8 -66 11 -11 6 -2 86 10 86 5
0 33 -23 61 -51z m-115 9 c7 -7 12 -22 12 -35 0 -20 -5 -23 -41 -23 -24 0 -38
4 -34 10 3 6 17 10 30 10 31 0 43 20 13 21 -13 1 -26 1 -30 0 -5 0 -8 3 -8 8
0 8 12 14 41 20 3 0 10 -4 17 -11z m20 -80 c-3 -7 -20 -14 -39 -16 -50 -5 -19
19 34 27 5 0 7 -5 5 -11z m-8 -53 c0 -11 -11 -15 -40 -15 -45 0 -51 6 -17 20
34 14 57 12 57 -5z"/>
<path d="M751 363 c-12 -26 -10 -29 51 -85 35 -32 64 -54 66 -49 2 5 -13 31
-34 58 -20 26 -41 60 -46 76 -12 34 -22 34 -37 0z"/>
<path d="M750 194 c-36 -25 -72 -49 -80 -54 -13 -8 -12 -12 5 -29 20 -19 20
-19 84 50 35 39 62 72 59 74 -2 2 -33 -16 -68 -41z"/>
</g>
</svg>
