<?xml version="1.0" standalone="no"?>
<!DOCTYPE svg PUBLIC "-//W3C//DTD SVG 20010904//EN"
 "http://www.w3.org/TR/2001/REC-SVG-20010904/DTD/svg10.dtd">
<svg version="1.0" xmlns="http://www.w3.org/2000/svg"
 width="122.000000pt" height="71.000000pt" viewBox="0 0 122.000000 71.000000"
 preserveAspectRatio="xMidYMid meet">
<metadata>
Created by potrace 1.16, written by Peter Selinger 2001-2019
</metadata>
<g transform="translate(0.000000,71.000000) scale(0.100000,-0.100000)"
fill="#000000" stroke="none">
<path d="M182 680 c-6 -11 -12 -26 -12 -34 0 -10 -20 -19 -61 -28 l-61 -12 6
-38 c3 -20 2 -40 -4 -43 -5 -3 -10 -13 -10 -21 0 -10 14 -14 53 -14 51 -1 87
-16 87 -39 0 -27 30 -7 50 33 52 108 67 79 75 -141 3 -87 8 -182 10 -211 5
-52 5 -52 -20 -46 -23 6 -25 3 -25 -25 0 -36 -4 -35 75 -16 33 8 79 15 102 15
l41 0 4 160 c2 103 7 163 15 171 6 6 42 20 80 30 37 10 73 26 79 34 6 8 14 12
17 9 3 -3 38 1 79 9 40 8 141 27 223 42 179 32 178 32 173 47 -3 8 -39 13
-114 15 -333 8 -450 14 -549 28 -60 8 -118 18 -128 21 -13 4 -20 0 -24 -14 -3
-12 -19 -26 -35 -31 -26 -9 -33 -8 -44 7 -17 22 -31 50 -44 85 -11 32 -21 34
-38 7z m42 -72 c9 -12 14 -23 12 -25 -2 -2 -24 -4 -50 -5 -36 0 -46 -4 -46
-18 0 -22 11 -32 24 -21 6 4 29 11 51 14 l40 6 -35 -29 c-19 -16 -42 -30 -50
-30 -19 0 -90 47 -90 60 0 11 99 70 117 70 6 0 19 -10 27 -22z m406 -43 c113
-4 242 -8 287 -9 45 -1 85 -4 88 -7 3 -3 -79 -20 -183 -38 -103 -18 -202 -37
-220 -42 -19 -6 -54 -11 -78 -12 -42 0 -45 -2 -39 -24 4 -18 1 -23 -15 -23
-20 0 -24 -9 -21 -42 2 -15 -6 -18 -38 -18 -23 0 -41 -5 -41 -11 0 -6 17 -9
43 -7 l42 3 3 -128 3 -127 -60 0 -59 0 -7 94 c-4 52 -6 158 -3 234 4 158 11
177 62 168 17 -3 123 -8 236 -11z m-313 -27 c-3 -8 -6 -5 -6 6 -1 11 2 17 5
13 3 -3 4 -12 1 -19z"/>
<path d="M370 380 c0 -5 14 -10 30 -10 17 0 30 5 30 10 0 6 -13 10 -30 10 -16
0 -30 -4 -30 -10z"/>
<path d="M373 308 c5 -17 59 -17 65 0 2 8 -8 12 -33 12 -25 0 -35 -4 -32 -12z"/>
<path d="M375 270 c-8 -13 7 -19 43 -18 18 1 32 6 32 13 0 14 -67 19 -75 5z"/>
<path d="M380 230 c0 -5 11 -10 25 -10 14 0 25 5 25 10 0 6 -11 10 -25 10 -14
0 -25 -4 -25 -10z"/>
<path d="M375 202 c-14 -15 -1 -23 33 -20 20 2 37 7 37 12 0 10 -61 16 -70 8z"/>
<path d="M375 150 c-4 -6 10 -10 34 -10 23 0 41 5 41 10 0 6 -15 10 -34 10
-19 0 -38 -4 -41 -10z"/>
<path d="M302 3 c170 -2 446 -2 615 0 170 1 31 2 -307 2 -338 0 -477 -1 -308
-2z"/>
</g>
</svg>
