<?xml version="1.0" standalone="no"?>
<!DOCTYPE svg PUBLIC "-//W3C//DTD SVG 20010904//EN"
 "http://www.w3.org/TR/2001/REC-SVG-20010904/DTD/svg10.dtd">
<svg version="1.0" xmlns="http://www.w3.org/2000/svg"
 width="145.000000pt" height="78.000000pt" viewBox="0 0 145.000000 78.000000"
 preserveAspectRatio="xMidYMid meet">
<metadata>
Created by potrace 1.16, written by Peter Selinger 2001-2019
</metadata>
<g transform="translate(0.000000,78.000000) scale(0.100000,-0.100000)"
fill="#000000" stroke="none">
<path d="M795 683 c-44 -30 -91 -64 -105 -75 -22 -17 -38 -19 -154 -17 -130 2
-131 2 -136 -22 -5 -18 -12 -23 -29 -21 -22 2 -23 0 -16 -30 19 -87 21 -87
-49 -18 -36 36 -70 80 -77 98 -6 18 -15 32 -21 30 -13 -5 -38 -77 -32 -93 3
-7 -21 -25 -56 -44 l-60 -32 6 -51 c6 -43 14 -56 55 -95 31 -29 49 -54 49 -69
0 -32 18 -40 29 -12 14 37 161 172 173 160 3 -4 8 -72 9 -152 l3 -145 -35 0
c-30 0 -34 -3 -31 -24 1 -14 4 -27 7 -29 2 -3 30 2 62 11 32 9 92 21 133 27
41 6 76 13 78 15 2 2 4 58 3 124 -2 113 -1 120 19 131 40 22 134 48 295 84
302 67 470 113 473 130 2 10 -4 16 -15 17 -10 0 -29 2 -43 3 -14 1 -128 3
-255 4 l-230 2 58 39 c32 21 58 43 57 47 -3 12 -18 7 -52 -17 l-28 -21 -20 24
c-17 21 -18 24 -3 35 9 7 21 14 27 16 7 3 8 8 1 15 -7 7 -35 -7 -90 -45z m52
-40 c12 -18 11 -22 -13 -38 -26 -17 -27 -17 -45 6 -18 23 -18 24 3 42 25 21
36 19 55 -10z m-79 -41 c2 -8 -8 -12 -30 -12 -31 1 -32 1 -13 15 21 17 37 15
43 -3z m-545 -46 c15 -23 15 -24 -3 -19 -11 3 -20 14 -20 24 0 25 4 24 23 -5z
m331 -41 c-37 -25 -72 -45 -76 -45 -5 0 -7 -12 -6 -27 3 -26 1 -28 -29 -25
-27 3 -33 0 -33 -16 0 -29 8 -32 52 -16 22 8 56 14 74 14 46 0 43 18 -3 22
l-37 3 37 39 37 39 25 -23 c19 -18 25 -20 25 -8 0 9 -7 21 -15 28 -13 11 -11
16 19 36 19 13 46 24 59 24 29 0 43 -26 26 -47 -10 -11 -16 -10 -35 8 -29 27
-44 17 -18 -12 18 -20 18 -21 -6 -40 -14 -10 -29 -19 -33 -19 -5 0 -6 -8 -2
-19 4 -13 0 -20 -15 -24 -18 -5 -20 -13 -20 -86 l0 -81 -37 -2 c-21 -1 -56 -2
-78 -3 -34 0 -41 -4 -43 -23 -4 -26 -8 -26 65 -7 76 20 93 19 93 -4 0 -16 -11
-20 -80 -26 -69 -6 -80 -10 -80 -26 0 -23 2 -23 64 -4 73 22 96 20 96 -9 0
-19 -6 -24 -37 -30 -21 -3 -59 -6 -84 -6 l-46 0 -7 92 c-10 141 -7 264 6 307
15 47 41 58 142 60 l69 1 -69 -45z m203 39 c-3 -3 -12 -4 -19 -1 -8 3 -5 6 6
6 11 1 17 -2 13 -5z m533 -3 c-8 -4 -64 -18 -125 -30 -60 -13 -119 -27 -130
-31 -11 -5 -31 -11 -45 -14 -14 -2 -56 -12 -93 -20 -95 -22 -247 -43 -247 -35
0 4 28 32 63 63 34 31 67 61 72 66 6 5 122 9 265 9 140 0 248 -3 240 -8z
m-1034 -45 c22 -7 101 -85 87 -87 -27 -3 -108 4 -134 11 -27 8 -31 6 -40 -17
-5 -14 -7 -28 -4 -31 3 -3 28 0 56 6 28 7 65 12 82 12 31 0 31 0 12 -19 -29
-27 -135 -82 -146 -75 -12 7 -59 99 -59 115 0 18 94 99 110 95 8 -3 24 -7 36
-10z m-152 -132 c3 -8 2 -12 -4 -9 -6 3 -10 10 -10 16 0 14 7 11 14 -7z m106
-88 c0 -3 -4 -8 -10 -11 -5 -3 -10 -1 -10 4 0 6 5 11 10 11 6 0 10 -2 10 -4z"/>
<path d="M480 351 c-49 -5 -65 -10 -65 -21 0 -16 11 -17 94 -4 30 5 56 15 59
22 2 6 -2 11 -10 10 -7 -1 -42 -4 -78 -7z"/>
<path d="M458 283 c-34 -3 -48 -8 -48 -19 0 -7 5 -14 10 -14 29 0 140 26 140
32 0 8 -10 8 -102 1z"/>
</g>
</svg>
