<?xml version="1.0" standalone="no"?>
<!DOCTYPE svg PUBLIC "-//W3C//DTD SVG 20010904//EN"
 "http://www.w3.org/TR/2001/REC-SVG-20010904/DTD/svg10.dtd">
<svg version="1.0" xmlns="http://www.w3.org/2000/svg"
 width="112.000000pt" height="137.000000pt" viewBox="0 0 112.000000 137.000000"
 preserveAspectRatio="xMidYMid meet">
<metadata>
Created by potrace 1.16, written by Peter Selinger 2001-2019
</metadata>
<g transform="translate(0.000000,137.000000) scale(0.100000,-0.100000)"
fill="#000000" stroke="none">
<path d="M818 1322 c-16 -15 -28 -30 -28 -34 0 -4 30 -37 68 -75 37 -37 86
-91 110 -120 l42 -52 -46 -43 c-25 -23 -75 -63 -110 -87 l-64 -44 -62 54 c-35
29 -69 61 -76 69 -25 28 -72 104 -72 115 0 14 84 63 155 90 32 12 61 28 63 34
5 15 -13 14 -46 -3 -30 -15 -100 -31 -176 -41 -47 -6 -48 -7 -42 -36 3 -16 1
-29 -4 -29 -5 0 -7 -6 -5 -12 3 -7 1 -26 -4 -43 l-9 -30 -3 30 c-1 17 -3 36
-3 44 -1 8 -7 16 -15 19 -11 4 -12 -3 -7 -29 4 -19 10 -96 13 -171 3 -79 9
-136 14 -132 5 3 9 29 9 58 0 29 3 80 6 113 l7 61 62 -37 c87 -51 174 -129
156 -140 -11 -7 -11 -15 -1 -45 6 -19 15 -38 19 -41 5 -2 25 20 45 49 36 53
113 130 191 194 l40 32 -25 23 c-59 53 -94 110 -135 222 -12 32 -26 60 -31 61
-5 2 -21 -9 -36 -24z m53 -48 c11 -26 18 -48 16 -50 -2 -2 -18 12 -37 31 -28
29 -31 37 -20 50 7 8 14 15 17 15 2 0 13 -21 24 -46z m-241 -108 c0 -2 -15
-13 -34 -24 -33 -19 -34 -20 -39 -2 -3 11 -2 21 1 24 6 7 72 8 72 2z m-36
-131 c18 -27 15 -30 -15 -15 -10 6 -19 17 -19 25 0 23 16 18 34 -10z m210
-201 c-23 -30 -30 -34 -32 -19 -3 10 8 27 25 40 38 31 41 24 7 -21z"/>
<path d="M129 1163 c-1 -5 0 -18 1 -30 1 -18 -5 -22 -37 -25 -28 -2 -37 -7
-34 -18 19 -74 23 -119 20 -226 -5 -148 12 -164 24 -24 4 52 9 96 12 98 5 5
76 10 232 16 69 3 127 7 129 9 2 2 -60 7 -138 11 -187 9 -206 11 -214 19 -4 3
-1 27 6 51 11 40 17 46 44 50 55 9 139 16 214 17 114 3 93 16 -36 22 -64 3
-139 13 -167 21 -59 19 -55 18 -56 9z m81 -33 c7 -2 -33 -18 -47 -19 -7 -1
-13 6 -13 14 0 14 25 16 60 5z m-100 -69 c0 -17 -5 -33 -10 -36 -5 -3 -10 3
-10 14 0 10 -3 26 -6 35 -4 11 -1 16 10 16 11 0 16 -9 16 -29z"/>
<path d="M764 1114 c8 -29 25 -159 26 -188 0 -11 3 -17 6 -13 3 3 7 41 9 84 1
43 6 93 10 111 7 31 7 32 -25 32 -30 0 -32 -2 -26 -26z m36 -6 c0 -16 -3 -19
-11 -11 -6 6 -8 16 -5 22 11 17 16 13 16 -11z"/>
<path d="M1006 792 c-6 -10 0 -71 8 -79 10 -11 26 18 26 48 0 25 -24 47 -34
31z"/>
<path d="M750 529 c0 -12 -76 -47 -174 -79 -67 -22 -68 -23 -62 -52 6 -29 5
-30 -22 -23 -15 4 -97 10 -182 14 -85 4 -165 13 -177 19 -31 17 -33 16 -33
-18 0 -26 -5 -31 -31 -37 -26 -5 -30 -9 -24 -27 22 -71 36 -159 33 -213 -2
-36 1 -64 7 -65 6 -2 11 27 13 68 l3 72 32 6 c59 11 221 26 285 26 34 0 62 4
62 10 0 6 -66 10 -177 10 -98 0 -184 4 -192 9 -10 6 -12 19 -7 44 5 29 13 38
40 47 25 8 203 26 298 30 13 0 48 -131 49 -184 1 -82 14 -154 24 -133 4 10 5
38 2 62 -4 24 -3 46 1 49 14 8 147 -82 162 -109 7 -14 18 -25 24 -25 5 0 37
28 70 62 34 35 88 86 121 114 33 29 57 55 54 58 -4 4 -19 -4 -35 -17 -40 -34
-184 -120 -190 -114 -5 5 10 169 22 239 l6 37 -38 -6 c-22 -3 -41 -7 -42 -9
-2 -1 3 -28 12 -58 18 -60 26 -209 13 -222 -14 -14 -40 10 -88 80 l-47 67 -27
-33 -27 -33 5 47 c8 79 43 136 116 185 35 24 72 43 82 43 29 0 122 -64 195
-135 37 -36 69 -65 71 -65 14 0 -7 31 -68 97 -39 43 -85 99 -102 126 -28 43
-57 62 -57 36z m47 -54 l22 -35 -39 20 c-41 21 -50 34 -27 43 20 9 21 8 44
-28z m-222 -65 c-19 -21 -45 -27 -45 -10 0 6 10 15 23 20 35 14 41 11 22 -10z
m-410 -40 c-28 -12 -45 -12 -45 0 0 6 15 10 33 9 27 0 29 -2 12 -9z m561 -6
c-3 -9 -6 -25 -7 -37 0 -21 -1 -21 -9 -2 -14 32 -11 55 6 55 11 0 14 -5 10
-16z m-216 -31 c0 -10 -5 -25 -10 -33 -8 -13 -10 -13 -10 2 0 9 -3 23 -6 32
-4 11 -1 16 10 16 9 0 16 -8 16 -17z m-420 -7 c0 -8 -4 -18 -10 -21 -5 -3 -10
3 -10 14 0 12 5 21 10 21 6 0 10 -6 10 -14z m37 -112 c-3 -3 -12 -4 -19 -1 -8
3 -5 6 6 6 11 1 17 -2 13 -5z m461 -29 c12 -19 22 -37 22 -40 0 -3 -62 29 -79
42 -5 3 20 33 28 33 3 0 16 -16 29 -35z m159 -92 c-31 -31 -39 -35 -47 -23 -7
11 0 20 28 36 55 33 61 28 19 -13z"/>
<path d="M991 157 c-8 -10 -7 -18 2 -31 12 -16 14 -16 26 -2 14 16 9 46 -7 46
-5 0 -15 -6 -21 -13z"/>
</g>
</svg>
