<?xml version="1.0" standalone="no"?>
<!DOCTYPE svg PUBLIC "-//W3C//DTD SVG 20010904//EN"
 "http://www.w3.org/TR/2001/REC-SVG-20010904/DTD/svg10.dtd">
<svg version="1.0" xmlns="http://www.w3.org/2000/svg"
 width="134.000000pt" height="187.000000pt" viewBox="0 0 134.000000 187.000000"
 preserveAspectRatio="xMidYMid meet">
<metadata>
Created by potrace 1.16, written by Peter Selinger 2001-2019
</metadata>
<g transform="translate(0.000000,187.000000) scale(0.100000,-0.100000)"
fill="#000000" stroke="none">
<path d="M111 1770 c-12 -17 -25 -28 -29 -26 -5 3 -14 1 -21 -4 -11 -6 -11
-23 2 -96 9 -49 19 -142 23 -207 3 -65 9 -115 13 -112 3 4 6 94 7 201 0 106 3
197 7 201 14 13 389 -115 384 -131 -2 -6 -54 -25 -116 -42 -62 -17 -123 -37
-134 -43 -12 -6 -33 -12 -47 -13 l-25 -3 0 90 c0 88 -4 100 -27 93 -9 -3 -8
-28 2 -97 9 -66 10 -95 2 -103 -8 -8 -7 -15 3 -24 18 -19 25 -18 25 5 0 18 9
22 70 36 32 8 178 54 230 73 l55 21 5 -27 c3 -15 9 -26 13 -26 4 1 29 5 55 9
26 4 51 10 57 13 5 3 21 7 35 8 14 2 51 8 83 15 59 12 75 9 62 -11 -5 -9 -9
-9 -14 -1 -5 8 -23 4 -58 -11 l-51 -21 -5 -56 c-2 -31 -3 -58 -1 -60 2 -2 35
28 74 68 39 39 74 71 78 71 5 0 19 -11 32 -25 13 -14 30 -25 39 -25 10 0 4 11
-17 33 -18 18 -32 36 -32 40 0 4 36 7 81 7 57 0 78 3 73 11 -5 8 -28 10 -73 6
l-66 -6 35 30 c19 17 41 34 48 38 8 5 13 13 11 20 -2 6 -29 -9 -61 -34 -32
-25 -63 -45 -71 -45 -7 0 -39 35 -72 77 l-59 76 -18 -42 c-21 -49 -17 -61 20
-61 24 0 25 1 8 13 -14 10 -16 18 -9 31 8 14 12 13 31 -14 13 -17 20 -34 17
-39 -3 -5 7 -18 22 -29 l28 -21 -80 6 c-44 3 -107 9 -140 13 -33 4 -64 4 -69
0 -9 -9 -40 3 -161 60 -38 18 -88 34 -110 35 -63 2 -149 34 -134 50 3 3 24 -4
47 -15 46 -23 52 -24 52 -11 0 5 -15 15 -34 21 -19 6 -40 18 -46 26 -17 20
-23 18 -49 -16z m-22 -93 c0 -33 -2 -38 -9 -22 -12 28 -12 78 0 70 6 -3 10
-25 9 -48z m601 -86 c0 -9 -120 -34 -128 -26 -2 2 -2 11 1 20 5 11 22 15 67
15 33 0 60 -4 60 -9z m100 -76 c-40 -40 -50 -43 -50 -15 0 13 11 25 33 34 50
22 54 19 17 -19z"/>
<path d="M1077 1503 c-2 -5 2 -24 9 -43 l12 -35 11 29 c7 16 10 35 7 43 -6 14
-32 18 -39 6z"/>
<path d="M759 1093 l-26 -47 51 -49 51 -48 -60 5 c-33 3 -78 8 -99 11 -25 4
-42 1 -47 -6 -5 -8 -49 4 -155 45 -82 31 -165 66 -185 76 -44 24 -53 25 -45 5
6 -17 -24 -20 -58 -6 -26 10 -3 25 24 16 30 -10 24 10 -7 24 -25 11 -29 10
-42 -8 -9 -15 -24 -21 -51 -21 -20 0 -39 -2 -42 -5 -3 -3 4 -31 15 -63 14 -41
21 -95 24 -189 6 -131 19 -178 25 -86 3 44 5 47 37 55 18 5 35 7 37 5 3 -3 11
-48 13 -80 1 -5 5 -6 10 -3 5 3 6 26 4 50 l-5 45 38 6 c46 9 170 38 274 65 91
24 90 24 90 5 0 -20 25 -19 105 6 36 11 78 19 93 17 26 -3 24 -6 -46 -76 l-72
-72 15 -30 c8 -16 15 -36 15 -44 0 -34 20 -23 30 16 12 44 89 198 100 198 3 0
20 -26 38 -59 33 -61 62 -94 62 -72 0 13 -44 96 -62 119 -17 20 -5 24 84 27
49 3 84 8 86 15 3 8 -22 10 -87 6 -50 -3 -91 -3 -91 0 0 3 23 32 52 65 28 32
48 63 44 67 -4 4 -17 -5 -29 -19 -12 -14 -37 -43 -55 -64 -17 -21 -34 -36 -36
-34 -2 2 -20 43 -41 92 -21 48 -40 87 -44 87 -3 0 -18 -21 -32 -47z m58 -50
c13 -31 21 -58 20 -60 -2 -1 -18 12 -36 31 -26 27 -31 38 -25 60 3 14 9 26 13
26 3 0 16 -26 28 -57z m-708 0 c0 -25 -1 -26 -9 -8 -12 27 -12 35 0 35 6 0 10
-12 9 -27z m248 -28 c135 -41 233 -77 233 -86 0 -4 -278 -75 -344 -87 -18 -4
-18 2 -12 87 l8 91 -26 0 c-35 0 -38 -10 -21 -82 23 -97 21 -104 -25 -116
l-40 -10 -2 67 c-3 78 0 161 6 177 6 16 83 2 223 -41z m-137 -37 c0 -19 -2
-20 -10 -8 -13 19 -13 30 0 30 6 0 10 -10 10 -22z m540 -47 c0 -4 -23 -12 -51
-17 -42 -9 -52 -8 -56 4 -3 8 -1 17 5 21 13 8 102 1 102 -8z m7 -167 c-9 -18
-16 -23 -22 -15 -4 7 1 21 11 32 23 26 29 17 11 -17z"/>
<path d="M1123 800 c1 -45 12 -51 29 -16 13 29 5 56 -16 56 -11 0 -15 -11 -13
-40z"/>
<path d="M80 800 c0 -5 5 -10 10 -10 6 0 10 5 10 10 0 6 -4 10 -10 10 -5 0
-10 -4 -10 -10z"/>
<path d="M1094 547 c-16 -23 -32 -43 -36 -45 -16 -7 -6 -22 52 -80 33 -33 60
-65 60 -70 0 -5 -31 -40 -70 -78 -38 -37 -70 -72 -70 -78 0 -6 18 -24 40 -39
37 -26 41 -27 46 -10 9 31 46 126 62 161 14 30 12 38 -17 127 -19 58 -29 104
-25 119 10 41 -12 38 -42 -7z m31 -77 l7 -35 -28 27 c-23 23 -25 29 -14 43 16
20 26 10 35 -35z m-2 -242 c-31 -65 -29 -63 -47 -48 -13 10 -10 18 21 56 21
24 40 44 44 44 4 0 -4 -24 -18 -52z"/>
<path d="M900 542 c-8 -3 -67 -35 -131 -72 -63 -36 -123 -69 -133 -73 -13 -5
-15 -11 -6 -27 14 -27 20 -26 64 13 35 30 192 131 218 139 6 2 9 9 7 15 -2 5
-11 8 -19 5z m-225 -152 c-3 -5 -11 -10 -16 -10 -6 0 -7 5 -4 10 3 6 11 10 16
10 6 0 7 -4 4 -10z"/>
<path d="M153 480 c-3 -11 -17 -23 -30 -26 -21 -6 -24 -11 -19 -33 4 -14 9
-71 13 -126 3 -55 10 -105 15 -112 5 -6 6 -28 2 -47 -3 -20 -2 -36 3 -36 5 0
34 18 64 41 30 23 115 70 189 106 211 101 221 106 217 117 -2 6 -19 14 -38 17
-64 12 -337 92 -366 108 -31 16 -44 14 -50 -9z m57 -14 c0 -2 -9 -6 -20 -9
-11 -3 -20 -1 -20 4 0 5 9 9 20 9 11 0 20 -2 20 -4z m5 -50 c0 -24 -15 -50
-15 -27 0 7 -4 10 -10 6 -6 -4 -6 -15 0 -31 12 -30 13 -174 3 -174 -5 0 -17
-3 -28 -6 -19 -5 -20 -1 -18 63 1 37 5 96 8 131 6 59 8 62 34 62 22 0 27 -4
26 -24z m121 5 c32 -10 93 -27 134 -36 41 -10 79 -21 84 -26 5 -4 -22 -22 -60
-39 -38 -18 -110 -52 -161 -76 -51 -24 -97 -44 -103 -44 -19 0 -9 160 15 228
6 16 21 15 91 -7z m-196 -11 c0 -11 -2 -20 -4 -20 -2 0 -6 9 -9 20 -3 11 -1
20 4 20 5 0 9 -9 9 -20z m40 -255 c-7 -9 -15 -13 -19 -10 -3 3 1 10 9 15 21
14 24 12 10 -5z"/>
<path d="M793 353 c-58 -2 -93 -8 -93 -14 0 -8 47 -9 153 -5 83 3 176 5 205 6
28 0 52 5 52 10 0 10 -97 10 -317 3z"/>
<path d="M670 329 c0 -6 9 -24 21 -40 27 -38 17 -37 -20 3 -17 18 -33 29 -37
25 -4 -4 24 -40 62 -80 38 -40 90 -97 115 -127 64 -75 73 -57 11 22 -27 34
-70 96 -95 136 -46 71 -57 83 -57 61z"/>
<path d="M1190 190 c0 -11 7 -20 15 -20 8 0 15 9 15 20 0 11 -7 20 -15 20 -8
0 -15 -9 -15 -20z"/>
<path d="M3 85 c0 -44 2 -61 4 -37 2 23 2 59 0 80 -2 20 -4 1 -4 -43z"/>
</g>
</svg>
