<?xml version="1.0" standalone="no"?>
<!DOCTYPE svg PUBLIC "-//W3C//DTD SVG 20010904//EN"
 "http://www.w3.org/TR/2001/REC-SVG-20010904/DTD/svg10.dtd">
<svg version="1.0" xmlns="http://www.w3.org/2000/svg"
 width="121.000000pt" height="60.000000pt" viewBox="0 0 121.000000 60.000000"
 preserveAspectRatio="xMidYMid meet">
<metadata>
Created by potrace 1.16, written by Peter Selinger 2001-2019
</metadata>
<g transform="translate(0.000000,60.000000) scale(0.100000,-0.100000)"
fill="#000000" stroke="none">
<path d="M480 530 c-8 -5 -26 -10 -39 -10 -16 0 -21 -4 -18 -14 3 -8 9 -31 13
-52 l7 -37 -177 5 c-97 3 -176 1 -176 -3 0 -5 -11 -11 -24 -15 l-25 -6 6 -126
c6 -132 23 -194 23 -83 l0 62 38 -3 37 -3 1 -65 c1 -38 6 -66 13 -68 7 -2 11
19 11 67 l0 71 140 0 140 0 0 -80 c0 -44 4 -80 8 -80 5 0 33 33 61 74 66 93
110 134 122 115 5 -8 9 -20 9 -26 0 -7 1 -13 3 -13 1 0 34 6 72 14 39 8 141
17 228 21 140 6 157 5 157 -9 0 -9 5 -16 10 -16 6 0 10 24 10 53 0 30 6 75 14
100 15 51 13 56 -24 52 -27 -2 -28 -7 -15 -102 l8 -52 -34 1 c-19 1 -115 -1
-214 -5 -99 -3 -189 -2 -200 2 -19 8 -19 8 3 20 26 14 29 36 5 50 -39 21 -9
27 192 36 145 6 220 13 212 21 -2 2 -102 5 -223 6 -197 1 -219 0 -222 -15 -3
-14 -12 -10 -47 20 -25 20 -52 52 -60 70 -17 35 -22 38 -45 23z m103 -117 c42
-32 76 -62 76 -68 0 -10 -101 -97 -121 -104 -7 -2 -9 25 -6 88 3 68 1 91 -8
91 -21 0 -22 -11 -14 -100 8 -95 8 -100 -20 -118 -20 -12 -20 -9 -20 128 0
168 0 168 113 83z m543 0 c-10 -10 -19 5 -10 18 6 11 8 11 12 0 2 -7 1 -15 -2
-18z m-682 -50 c3 -21 6 -50 6 -65 l0 -28 -141 0 -142 0 7 41 c6 40 6 40 -21
37 -16 -2 -27 -8 -26 -13 1 -6 5 -23 8 -38 7 -26 5 -27 -29 -27 -40 0 -43 9
-26 71 9 30 15 37 52 46 24 5 102 11 174 12 l131 1 7 -37z m56 -192 c-11 -21
-30 -37 -30 -25 0 8 30 44 37 44 2 0 -1 -9 -7 -19z"/>
</g>
</svg>
