<?xml version="1.0" standalone="no"?>
<!DOCTYPE svg PUBLIC "-//W3C//DTD SVG 20010904//EN"
 "http://www.w3.org/TR/2001/REC-SVG-20010904/DTD/svg10.dtd">
<svg version="1.0" xmlns="http://www.w3.org/2000/svg"
 width="93.000000pt" height="54.000000pt" viewBox="0 0 93.000000 54.000000"
 preserveAspectRatio="xMidYMid meet">
<metadata>
Created by potrace 1.16, written by Peter Selinger 2001-2019
</metadata>
<g transform="translate(0.000000,54.000000) scale(0.100000,-0.100000)"
fill="#000000" stroke="none">
<path d="M670 495 c-7 -8 -16 -12 -22 -9 -5 3 -32 -10 -61 -29 -92 -60 -131
-83 -184 -107 -47 -21 -68 -40 -45 -40 5 0 14 -10 19 -23 13 -28 3 -52 -36
-84 l-26 -23 36 0 c64 0 195 -58 247 -110 l35 -34 21 29 c35 50 142 151 175
164 17 8 31 20 31 27 0 8 -25 39 -54 70 -53 54 -106 133 -106 160 0 20 -16 25
-30 9z m40 -87 c0 -4 -15 1 -32 10 -18 9 -34 18 -36 19 -2 0 5 11 15 22 l17
21 18 -32 c9 -18 17 -36 18 -40z m18 -44 c26 -18 60 -47 76 -64 26 -26 28 -32
15 -44 -22 -22 -152 -106 -162 -106 -6 0 -8 36 -5 90 3 50 3 90 -1 90 -26 -1
-29 -18 -19 -105 9 -80 8 -90 -8 -102 -33 -24 -37 -15 -32 92 3 58 2 105 -1
105 -3 0 -13 -4 -21 -10 -9 -6 -17 -5 -21 2 -4 7 -13 7 -27 -1 -18 -9 -19 -18
-14 -77 4 -56 3 -66 -9 -59 -26 16 -79 69 -79 80 0 11 97 110 154 158 l29 24
39 -19 c22 -11 61 -35 86 -54z m-271 -30 c-41 -40 -74 -51 -65 -22 3 9 95 66
108 67 3 0 -16 -20 -43 -45z m113 -135 c0 -55 -3 -67 -14 -63 -22 9 -27 32
-20 96 5 48 9 56 20 47 9 -8 14 -34 14 -80z m-130 0 c31 -28 32 -31 10 -24
-59 18 -70 25 -64 40 8 21 14 19 54 -16z m218 -101 c-8 -12 -20 -24 -26 -26
-19 -6 -14 26 6 37 28 17 35 13 20 -11z"/>
<path d="M107 363 c-4 -3 -7 -15 -7 -25 0 -15 -5 -18 -20 -13 -22 7 -27 -4 -9
-22 6 -6 11 -62 12 -132 1 -66 5 -121 9 -121 5 0 8 25 8 55 0 30 5 55 10 55 6
0 10 -25 10 -56 0 -34 4 -53 10 -49 6 3 10 33 10 66 0 38 4 58 10 54 6 -3 10
-33 10 -66 0 -33 4 -59 10 -59 6 0 10 29 10 67 0 36 3 63 7 60 3 -4 5 -34 4
-66 -1 -34 2 -62 8 -66 7 -4 11 15 11 59 0 36 5 68 10 71 6 4 10 -22 10 -70 0
-48 4 -74 10 -70 5 3 10 37 10 75 0 67 1 69 28 73 l27 4 -27 2 c-27 1 -28 4
-28 50 0 28 -4 53 -10 56 -6 4 -10 -15 -10 -49 0 -31 -4 -56 -10 -56 -5 0 -10
23 -10 50 0 66 -18 64 -23 -2 l-3 -53 -2 63 -2 62 81 0 c54 0 78 3 74 11 -4 6
-13 8 -20 6 -18 -7 -166 20 -178 32 -13 13 -21 14 -30 4z m53 -118 c0 -30 -4
-55 -10 -55 -5 0 -10 25 -10 55 0 30 5 55 10 55 6 0 10 -25 10 -55z m-40 -27
c0 -25 -4 -38 -9 -33 -8 9 -4 75 5 75 2 0 4 -19 4 -42z"/>
<path d="M870 240 c0 -5 5 -10 10 -10 6 0 10 5 10 10 0 6 -4 10 -10 10 -5 0
-10 -4 -10 -10z"/>
</g>
</svg>
