<?xml version="1.0" standalone="no"?>
<!DOCTYPE svg PUBLIC "-//W3C//DTD SVG 20010904//EN"
 "http://www.w3.org/TR/2001/REC-SVG-20010904/DTD/svg10.dtd">
<svg version="1.0" xmlns="http://www.w3.org/2000/svg"
 width="69.000000pt" height="57.000000pt" viewBox="0 0 69.000000 57.000000"
 preserveAspectRatio="xMidYMid meet">
<metadata>
Created by potrace 1.16, written by Peter Selinger 2001-2019
</metadata>
<g transform="translate(0.000000,57.000000) scale(0.100000,-0.100000)"
fill="#000000" stroke="none">
<path d="M445 506 c-12 -24 -26 -37 -46 -41 -16 -4 -30 -10 -33 -13 -2 -4 3
-54 10 -112 7 -58 14 -136 14 -175 1 -42 8 -85 18 -108 l17 -38 42 60 c38 53
63 78 177 174 l29 25 -71 85 c-39 47 -85 106 -102 131 -17 25 -33 46 -35 46
-2 0 -11 -15 -20 -34z m60 -64 c-3 -3 -42 14 -53 23 -1 1 1 10 4 19 6 16 10
14 30 -11 12 -15 21 -29 19 -31z m-81 -39 c-16 -86 -20 -91 -27 -34 -7 59 -4
71 19 71 12 0 13 -8 8 -37z m92 1 c24 -14 62 -48 84 -76 l40 -50 -43 -33 c-23
-18 -73 -51 -110 -74 -56 -34 -69 -38 -74 -25 -13 34 30 284 49 284 5 0 29
-12 54 -26z m-36 -267 c0 -2 -11 -18 -25 -37 -20 -28 -26 -30 -31 -16 -4 9 -5
18 -3 20 29 22 59 39 59 33z"/>
<path d="M60 341 c0 -28 2 -51 3 -51 2 0 18 7 35 16 43 21 53 38 18 32 -18 -4
-26 -1 -26 10 0 11 7 13 28 7 52 -13 242 -10 242 4 0 5 -55 11 -122 14 -68 3
-135 8 -150 12 -28 7 -28 7 -28 -44z"/>
<path d="M58 203 c-3 -27 -3 -51 -1 -55 2 -4 28 5 59 19 32 15 81 27 117 30
164 11 173 31 15 31 -62 0 -126 5 -141 11 -42 16 -45 15 -49 -36z m99 3 c1 -1
-14 -6 -33 -12 -30 -10 -34 -9 -34 7 0 15 5 17 33 12 17 -3 33 -6 34 -7z"/>
</g>
</svg>
