<?xml version="1.0" standalone="no"?>
<!DOCTYPE svg PUBLIC "-//W3C//DTD SVG 20010904//EN"
 "http://www.w3.org/TR/2001/REC-SVG-20010904/DTD/svg10.dtd">
<svg version="1.0" xmlns="http://www.w3.org/2000/svg"
 width="132.000000pt" height="292.000000pt" viewBox="0 0 132.000000 292.000000"
 preserveAspectRatio="xMidYMid meet">
<metadata>
Created by potrace 1.16, written by Peter Selinger 2001-2019
</metadata>
<g transform="translate(0.000000,292.000000) scale(0.100000,-0.100000)"
fill="#000000" stroke="none">
<path d="M0 2910 c0 -5 248 -9 660 -9 429 -1 660 3 660 9 0 7 -231 10 -660 10
-412 0 -660 -4 -660 -10z"/>
<path d="M912 2864 c-24 -10 -32 -20 -28 -30 9 -24 -255 -16 -303 9 -40 20
-46 16 -54 -35 -7 -43 -8 -43 57 -23 33 10 93 15 183 15 l133 0 0 -85 0 -85
-144 0 c-145 0 -200 9 -210 36 -8 21 -26 8 -26 -19 0 -20 -5 -22 -70 -23 -39
0 -70 2 -70 5 0 3 29 40 65 81 36 41 65 78 65 83 0 15 -16 6 -50 -28 -40 -41
-109 -95 -120 -95 -17 0 -118 92 -149 136 -28 38 -35 44 -43 30 -5 -9 -20 -16
-33 -16 l-24 0 6 -122 c3 -68 7 -125 9 -127 2 -2 16 1 31 8 16 7 73 15 129 17
55 2 135 7 178 10 71 7 76 6 70 -11 -6 -16 -4 -17 17 -11 55 17 131 25 259 28
l135 3 -3 60 c-3 55 8 100 43 188 9 21 -7 21 -53 1z m18 -40 c0 -8 -4 -12 -10
-9 -5 3 -10 10 -10 16 0 5 5 9 10 9 6 0 10 -7 10 -16z m-345 -14 c-3 -5 -13
-10 -21 -10 -8 0 -14 5 -14 10 0 6 9 10 21 10 11 0 17 -4 14 -10z m-419 -17
c-4 -13 8 -27 42 -50 58 -40 132 -105 132 -116 0 -4 -48 -6 -107 -5 l-108 3
-3 35 c-4 39 26 150 40 150 5 0 7 -8 4 -17z"/>
<path d="M1065 2651 c-8 -14 5 -81 16 -81 14 0 31 39 27 63 -3 23 -32 35 -43
18z"/>
<path d="M1070 2514 c0 -8 5 -12 10 -9 6 3 10 10 10 16 0 5 -4 9 -10 9 -5 0
-10 -7 -10 -16z"/>
<path d="M186 2279 c-11 -11 -22 -15 -26 -9 -3 5 -18 6 -35 1 -26 -7 -30 -12
-27 -37 1 -16 5 -83 7 -148 3 -66 7 -121 10 -124 2 -3 11 1 20 8 8 7 59 15
118 19 99 6 104 5 99 -13 -5 -17 -2 -18 29 -11 19 5 144 9 279 11 162 2 246 6
248 13 3 8 -47 11 -155 11 -244 1 -295 4 -332 23 -42 21 -51 21 -51 1 0 -15
-10 -16 -87 -10 -136 10 -147 15 -151 62 -2 21 2 65 9 97 l12 59 36 -7 c20 -4
65 -21 100 -38 58 -28 62 -32 45 -44 -10 -7 -23 -13 -30 -13 -21 0 -26 -18 -7
-28 10 -5 32 -13 49 -16 27 -6 32 -4 37 16 7 26 46 70 102 112 60 46 22 42
-44 -4 -39 -27 -66 -40 -78 -36 -10 3 -47 33 -83 66 -36 33 -67 60 -70 59 -3
0 -14 -9 -24 -20z m44 -29 c8 -5 12 -11 9 -14 -3 -3 -14 1 -25 9 -21 16 -8 20
16 5z m-97 -30 c-7 -28 -13 -25 -13 6 0 14 4 23 9 20 5 -3 7 -15 4 -26z m234
-97 c-9 -9 -20 -13 -24 -9 -4 4 -1 11 7 16 25 16 35 11 17 -7z m-217 -117 c0
-3 -4 -8 -10 -11 -5 -3 -10 -1 -10 4 0 6 5 11 10 11 6 0 10 -2 10 -4z"/>
<path d="M528 2245 c-2 -20 -2 -38 1 -40 3 -1 34 3 68 10 42 9 103 11 183 8
83 -4 120 -3 120 5 0 16 -24 20 -135 22 -91 1 -153 9 -211 26 -19 5 -22 1 -26
-31z m47 -5 c-3 -5 -10 -10 -16 -10 -5 0 -9 5 -9 10 0 6 7 10 16 10 8 0 12 -4
9 -10z"/>
<path d="M916 2198 c5 -24 7 -89 5 -145 -3 -117 14 -142 24 -35 10 111 16 139
35 176 9 19 15 38 12 41 -3 3 -23 5 -45 5 l-39 0 8 -42z m37 -8 c-7 -28 -13
-25 -13 6 0 14 4 23 9 20 5 -3 7 -15 4 -26z"/>
<path d="M1093 2010 c3 -47 17 -53 35 -16 17 33 9 56 -18 56 -17 0 -19 -6 -17
-40z"/>
<path d="M86 1742 c-9 -17 -23 -38 -33 -48 -17 -16 -17 -18 1 -28 11 -6 60
-39 110 -74 50 -34 108 -73 129 -87 20 -14 37 -29 37 -33 0 -11 -181 -2 -204
10 -16 9 -18 18 -12 74 4 35 3 64 -1 64 -4 0 -17 -9 -29 -20 -20 -19 -20 -24
-8 -59 10 -29 10 -48 3 -76 -6 -20 -9 -38 -7 -40 2 -2 27 1 57 6 62 10 376 18
774 19 244 2 277 4 277 17 0 14 -34 15 -321 9 l-321 -8 7 24 c5 13 26 49 47
81 43 64 43 94 -1 37 -63 -84 -132 -148 -159 -148 -73 1 -87 13 -52 48 11 11
18 20 15 20 -9 0 50 83 75 105 21 19 35 20 362 19 231 -1 343 -5 350 -12 6 -6
13 -47 16 -92 2 -44 8 -80 12 -80 4 0 11 32 14 70 4 39 14 96 22 127 8 31 12
58 9 61 -7 7 -67 -27 -77 -42 -4 -8 -81 -9 -257 -4 -208 6 -264 10 -324 27
l-72 21 -72 -72 c-40 -40 -73 -68 -73 -63 0 6 -6 -1 -13 -13 -6 -13 -23 -31
-37 -39 -25 -14 -29 -13 -108 42 -88 60 -105 85 -100 144 4 44 -16 51 -36 13z
m16 -56 c4 -17 1 -23 -9 -19 -14 5 -17 25 -6 36 9 10 10 9 15 -17z m478 5 c21
-7 17 -8 -22 -12 -46 -4 -56 0 -41 14 8 8 30 7 63 -2z m640 -33 c-1 -28 -2
-30 -11 -15 -6 10 -8 25 -5 33 9 24 16 16 16 -18z m-865 -147 c-3 -6 -11 -11
-17 -11 -6 0 -6 6 2 15 14 17 26 13 15 -4z"/>
<path d="M768 1172 c-3 -8 -35 -31 -193 -141 -38 -26 -87 -54 -107 -60 -21 -7
-38 -19 -38 -26 0 -26 -234 72 -256 107 -5 7 10 27 36 50 23 21 41 38 39 39
-16 2 -159 3 -159 1 0 -2 11 -19 25 -39 24 -36 24 -39 18 -190 -4 -113 -3
-153 5 -153 8 0 12 20 13 53 l2 52 7 -45 c4 -25 6 -48 3 -52 -2 -5 -1 -13 2
-18 4 -7 16 -1 30 15 29 30 55 31 115 4 85 -40 120 -50 120 -35 0 13 -136 76
-163 76 -8 0 -33 14 -55 30 -23 17 -47 30 -52 30 -7 0 -9 21 -4 63 7 69 14 87
14 39 0 -18 5 -32 10 -32 6 0 10 6 10 14 0 29 41 28 123 -4 45 -18 99 -41 120
-52 21 -11 42 -16 46 -12 4 5 19 25 33 44 21 29 148 139 148 128 0 -2 -4 -18
-9 -35 -12 -43 4 -53 30 -19 l20 26 225 0 224 0 0 -80 0 -80 -164 0 -164 0
-25 30 c-14 17 -30 30 -36 30 -6 0 -11 -13 -11 -30 0 -20 -5 -30 -15 -30 -8 0
-15 5 -15 12 0 6 -3 8 -7 4 -5 -4 -8 -13 -8 -19 0 -15 -181 -78 -225 -79 -19
0 -37 -4 -40 -8 -8 -13 1 -100 10 -100 4 0 17 16 29 35 22 38 39 47 180 99
l93 34 -6 -40 c-7 -46 -8 -46 57 15 24 22 36 27 56 22 14 -4 91 -4 171 0 l145
7 0 104 c0 103 0 103 33 136 17 19 32 36 32 39 0 7 -130 3 -137 -5 -4 -3 2
-13 14 -21 11 -8 23 -23 25 -33 5 -18 -4 -18 -211 -14 -119 2 -222 7 -229 11
-9 5 4 21 43 50 30 23 53 46 50 52 -8 11 -22 12 -27 1z m-600 -73 c-2 -6 -8
-10 -13 -10 -5 0 -11 4 -13 10 -2 6 4 11 13 11 9 0 15 -5 13 -11z m1012 -3 c0
-3 -4 -8 -10 -11 -5 -3 -10 -1 -10 4 0 6 5 11 10 11 6 0 10 -2 10 -4z m-695
-165 c-3 -6 -11 -8 -17 -5 -6 4 -5 9 3 15 16 10 23 4 14 -10z m315 -70 c0 -6
-4 -13 -10 -16 -5 -3 -10 1 -10 9 0 9 5 16 10 16 6 0 10 -4 10 -9z m-600 -52
c0 -5 -4 -9 -10 -9 -5 0 -10 7 -10 16 0 8 5 12 10 9 6 -3 10 -10 10 -16z"/>
<path d="M1312 870 c0 -14 2 -19 5 -12 2 6 2 18 0 25 -3 6 -5 1 -5 -13z"/>
<path d="M200 870 c0 -5 5 -10 10 -10 6 0 10 5 10 10 0 6 -4 10 -10 10 -5 0
-10 -4 -10 -10z"/>
<path d="M568 426 c-43 -40 -93 -81 -112 -91 l-34 -19 -67 35 c-85 43 -92 52
-71 84 18 28 20 35 7 35 -5 0 -33 -30 -62 -67 -28 -38 -62 -77 -74 -88 -12
-11 -43 -39 -70 -63 l-48 -42 18 -40 c18 -40 25 -46 39 -33 8 8 77 6 201 -8
84 -9 92 -11 122 -44 35 -37 35 -37 52 17 8 23 32 55 62 82 43 39 61 66 43 66
-3 0 -29 -21 -58 -46 -82 -75 -81 -74 -166 -58 -79 15 -220 61 -220 73 1 3 20
33 44 66 42 59 43 60 86 57 52 -3 186 -57 199 -80 5 -9 11 -15 13 -12 2 3 12
23 23 44 11 22 53 74 93 117 39 42 72 80 72 83 0 15 -20 0 -92 -68z m-479
-228 c-8 -14 -14 -18 -17 -10 -4 13 17 46 25 38 3 -2 -1 -15 -8 -28z m56 -18
c18 -8 17 -9 -7 -9 -16 -1 -28 4 -28 9 0 12 8 12 35 0z"/>
<path d="M572 377 c-12 -13 -22 -26 -22 -29 0 -3 25 -8 56 -11 31 -3 120 -19
198 -36 77 -16 158 -33 179 -36 20 -3 37 -10 37 -15 0 -4 -30 -36 -67 -70
l-68 -61 -90 7 c-49 3 -123 14 -164 25 -41 10 -78 19 -82 19 -10 0 -53 -70
-47 -76 3 -2 29 1 59 7 67 14 291 7 297 -10 2 -6 16 -18 31 -26 l28 -14 46 72
c25 40 56 85 69 99 95 107 123 148 101 148 -5 0 -27 -22 -50 -49 l-42 -49 -83
19 c-46 10 -114 26 -152 34 -38 8 -98 28 -134 45 -35 16 -67 30 -71 30 -4 0
-17 -10 -29 -23z m45 -13 c-3 -3 -12 -4 -19 -1 -8 3 -5 6 6 6 11 1 17 -2 13
-5z m-42 -234 c-28 -12 -37 -12 -30 0 3 6 16 10 28 9 21 0 21 -1 2 -9z m353
-20 c-7 -11 -19 -20 -27 -20 -11 0 -10 5 4 20 10 11 22 20 27 20 4 0 3 -9 -4
-20z"/>
<path d="M490 244 c0 -8 5 -12 10 -9 6 4 8 11 5 16 -9 14 -15 11 -15 -7z"/>
<path d="M1169 124 c-10 -12 -9 -18 3 -31 19 -18 38 -10 38 17 0 24 -25 33
-41 14z"/>
</g>
</svg>
