<?xml version="1.0" standalone="no"?>
<!DOCTYPE svg PUBLIC "-//W3C//DTD SVG 20010904//EN"
 "http://www.w3.org/TR/2001/REC-SVG-20010904/DTD/svg10.dtd">
<svg version="1.0" xmlns="http://www.w3.org/2000/svg"
 width="99.000000pt" height="198.000000pt" viewBox="0 0 99.000000 198.000000"
 preserveAspectRatio="xMidYMid meet">
<metadata>
Created by potrace 1.16, written by Peter Selinger 2001-2019
</metadata>
<g transform="translate(0.000000,198.000000) scale(0.100000,-0.100000)"
fill="#000000" stroke="none">
<path d="M679 1885 c-36 -49 -51 -61 -176 -125 -46 -24 -83 -47 -83 -52 0 -12
-256 -6 -282 6 -15 7 -18 3 -18 -17 0 -21 -6 -26 -36 -32 -33 -6 -36 -9 -30
-33 3 -15 10 -72 16 -127 14 -126 23 -147 30 -70 l5 60 70 11 c39 7 105 15
147 19 l77 7 3 -36 c5 -58 22 -41 19 19 -1 30 0 55 2 55 5 0 124 -57 185 -88
17 -9 32 -19 32 -21 0 -3 -11 -16 -25 -30 l-24 -26 28 -33 c16 -17 33 -32 38
-32 5 0 45 55 88 123 43 67 87 131 97 143 19 22 24 44 9 44 -5 0 -19 21 -31
48 -13 26 -33 70 -46 97 -13 28 -29 69 -36 93 -7 23 -16 42 -20 42 -4 0 -21
-20 -39 -45z m41 -7 c0 -7 12 -38 26 -68 l25 -55 -46 46 c-43 42 -46 48 -34
68 15 23 29 28 29 9z m58 -172 l56 -70 -83 -78 c-45 -43 -86 -78 -90 -78 -5 0
-28 18 -52 39 -39 35 -42 41 -29 54 8 8 64 24 123 37 59 13 106 28 104 33 -2
6 -37 20 -77 33 -41 13 -90 32 -108 41 -22 12 -35 15 -40 7 -4 -6 -15 -14 -25
-17 -17 -6 -18 -14 -11 -74 l7 -68 -43 38 -42 39 -24 -23 -24 -22 0 24 c0 25
20 65 20 42 0 -26 26 -12 85 46 33 33 78 73 100 89 l40 30 29 -27 c15 -14 53
-57 84 -95z m-283 4 c-32 -33 -45 -38 -45 -16 0 8 12 21 28 29 43 23 48 19 17
-13z m-335 -24 c0 -3 -4 -8 -10 -11 -5 -3 -10 -1 -10 4 0 6 5 11 10 11 6 0 10
-2 10 -4z m228 -70 c7 -32 11 -60 9 -62 -2 -2 -70 -7 -152 -11 l-148 -6 7 54
c4 29 8 55 10 56 5 5 212 31 236 30 22 -2 26 -9 38 -61z m296 43 c31 -7 55
-14 52 -16 -6 -6 -160 -42 -164 -38 -2 2 -1 17 3 34 8 36 19 38 109 20z m-169
-90 l40 -41 -55 28 c-68 34 -63 31 -55 43 12 20 30 12 70 -30z m242 -56 c-45
-71 -88 -132 -96 -138 -5 -2 -16 4 -25 14 -17 18 -16 21 26 59 24 22 58 54 75
71 43 41 48 39 20 -6z"/>
<path d="M856 1402 c-8 -13 5 -82 15 -82 14 0 31 39 27 63 -3 22 -32 35 -42
19z"/>
<path d="M628 1195 c-19 -30 -34 -39 -93 -56 -38 -11 -76 -22 -82 -24 -7 -3
-13 -16 -13 -31 l0 -27 -122 7 c-68 4 -133 9 -146 13 -18 4 -24 1 -29 -16 -3
-14 -16 -23 -39 -27 -39 -7 -42 -20 -18 -85 15 -44 20 -80 23 -171 2 -76 21
-56 21 21 l0 69 32 8 c18 4 83 12 143 18 64 6 109 15 107 21 -2 6 -13 9 -25 8
-199 -14 -238 -15 -250 -5 -18 16 -10 90 12 96 37 11 80 18 163 23 l87 6 11
-29 c6 -15 16 -74 23 -131 11 -100 28 -143 25 -63 -1 22 1 43 5 46 3 3 33 -4
67 -17 51 -18 61 -26 57 -41 -7 -27 20 -89 36 -82 7 2 20 17 29 32 17 29 95
104 162 157 l38 30 -57 70 c-31 39 -72 103 -92 143 -19 39 -39 72 -44 72 -5 0
-19 -16 -31 -35z m54 -42 c12 -27 24 -52 26 -57 3 -5 -13 4 -34 20 -22 15 -41
29 -43 31 -5 4 17 53 23 53 3 0 15 -21 28 -47z m-5 -67 c58 -44 123 -106 110
-106 -13 0 -130 73 -163 103 l-36 30 -21 -25 c-12 -14 -30 -28 -39 -31 -14 -5
-15 -12 -8 -39 12 -49 19 -118 11 -118 -3 0 -12 9 -19 20 -16 27 -24 25 -44
-7 l-17 -28 0 40 c1 94 9 112 79 159 36 25 70 45 77 45 6 1 37 -19 70 -43z
m-147 27 c0 -5 -14 -16 -30 -25 -22 -12 -30 -14 -30 -4 0 6 12 17 28 23 15 6
28 11 30 12 1 1 2 -2 2 -6z m75 -43 c3 -5 2 -10 -4 -10 -5 0 -13 5 -16 10 -3
6 -2 10 4 10 5 0 13 -4 16 -10z m-428 -26 c-3 -3 -12 -4 -19 -1 -8 3 -5 6 6 6
11 1 17 -2 13 -5z m260 -26 c-3 -8 -6 -5 -6 6 -1 11 2 17 5 13 3 -3 4 -12 1
-19z m257 -14 c28 -14 55 -30 60 -35 6 -5 -34 -9 -98 -9 l-108 0 7 33 c4 17
10 36 12 41 9 13 71 -1 127 -30z m-585 -21 c0 -25 -1 -25 -8 -8 -5 11 -7 23
-4 28 8 14 13 7 12 -20z m711 -30 c-1 -5 -44 -33 -98 -64 l-96 -56 -31 17
c-33 18 -47 66 -23 81 7 5 51 9 98 10 47 0 96 5 110 9 34 11 40 11 40 3z
m-300 -75 c0 -5 -9 -4 -20 2 -11 6 -18 15 -14 21 6 11 34 -7 34 -23z m148 -70
c-36 -44 -51 -50 -56 -25 -2 11 67 65 87 67 2 0 -12 -19 -31 -42z"/>
<path d="M846 782 c-9 -15 6 -83 17 -79 14 4 30 54 23 72 -6 16 -32 20 -40 7z"/>
<path d="M635 563 c-17 -30 -75 -73 -98 -73 -7 0 -17 -4 -22 -9 -12 -11 -78
-32 -110 -36 -36 -3 -75 -32 -69 -50 5 -12 -4 -15 -43 -15 -28 0 -64 5 -82 11
-23 8 -35 8 -46 -1 -8 -6 -23 -9 -35 -5 -11 3 -20 5 -20 3 0 -2 6 -33 14 -69
8 -39 12 -95 8 -137 -3 -46 -1 -72 6 -72 16 0 22 27 22 103 0 122 9 131 123
143 l64 6 7 -47 c3 -27 5 -49 4 -51 -11 -11 -133 -9 -154 3 -35 18 -34 18 -34
-27 l0 -41 28 14 c15 8 57 18 95 22 61 6 67 5 67 -12 1 -37 32 -60 92 -67 80
-9 131 -27 144 -54 17 -35 22 -36 38 -5 22 43 105 125 169 167 31 21 57 41 57
44 0 4 -12 18 -26 32 -50 47 -145 170 -163 211 l-19 41 -17 -29z m25 -44 c0
-5 -4 -9 -10 -9 -5 0 -10 7 -10 16 0 8 5 12 10 9 6 -3 10 -10 10 -16z m-2 -34
c22 -6 162 -157 162 -175 0 -11 -92 -75 -179 -123 -54 -30 -68 -34 -87 -25
-13 6 -24 15 -24 20 0 13 77 65 141 95 32 16 59 33 59 40 0 6 -15 21 -34 32
-18 12 -53 42 -76 67 -42 46 -52 47 -64 7 -6 -18 0 -25 39 -42 25 -11 60 -30
77 -42 l30 -22 -74 -37 c-41 -20 -84 -39 -96 -42 -14 -4 -22 -14 -22 -27 0
-25 -3 -25 -46 -5 -47 23 -45 44 6 44 l40 0 0 55 c0 31 7 71 14 90 18 43 5 46
-44 10 -37 -28 -45 -30 -34 -14 13 22 158 109 173 105 9 -2 26 -7 39 -11z
m-208 -60 c-7 -9 -15 -13 -19 -10 -3 3 1 10 9 15 21 14 24 12 10 -5z m-40 -37
c0 -5 -4 -8 -10 -8 -5 0 -10 10 -10 23 0 18 2 19 10 7 5 -8 10 -18 10 -22z
m81 -68 c4 -25 6 -46 5 -47 0 0 -26 -4 -57 -8 l-57 -7 -4 38 c-8 65 -3 71 55
70 l52 -1 6 -45z m-331 30 c0 -5 -4 -10 -10 -10 -5 0 -10 5 -10 10 0 6 5 10
10 10 6 0 10 -4 10 -10z m240 -130 c-6 -11 -13 -20 -15 -20 -3 0 -5 9 -5 20 0
11 7 20 15 20 13 0 14 -4 5 -20z m50 -30 c12 -8 9 -10 -12 -10 -16 0 -28 5
-28 10 0 13 20 13 40 0z m193 -45 c-19 -26 -33 -32 -33 -14 0 12 29 38 43 39
4 0 0 -11 -10 -25z"/>
<path d="M864 155 c-4 -8 -3 -22 0 -31 5 -13 9 -14 21 -4 8 7 15 21 15 31 0
23 -28 25 -36 4z"/>
</g>
</svg>
