<?xml version="1.0" standalone="no"?>
<!DOCTYPE svg PUBLIC "-//W3C//DTD SVG 20010904//EN"
 "http://www.w3.org/TR/2001/REC-SVG-20010904/DTD/svg10.dtd">
<svg version="1.0" xmlns="http://www.w3.org/2000/svg"
 width="54.000000pt" height="61.000000pt" viewBox="0 0 54.000000 61.000000"
 preserveAspectRatio="xMidYMid meet">
<metadata>
Created by potrace 1.16, written by Peter Selinger 2001-2019
</metadata>
<g transform="translate(0.000000,61.000000) scale(0.100000,-0.100000)"
fill="#000000" stroke="none">
<path d="M281 556 c-18 -19 -30 -39 -27 -44 8 -13 -64 -55 -140 -83 -81 -30
-90 -39 -64 -71 25 -32 25 -32 -1 -67 -25 -34 -20 -46 22 -55 35 -7 101 -53
175 -121 27 -25 51 -45 54 -45 3 0 11 14 19 31 14 32 113 139 128 139 5 0 23
13 41 30 l33 30 -59 68 c-32 38 -78 103 -101 145 -23 43 -43 77 -45 77 -1 0
-17 -15 -35 -34z m50 -33 c7 -16 15 -31 17 -36 2 -4 -12 3 -31 15 -25 17 -32
26 -25 36 15 18 23 15 39 -15z m-2 -52 c15 -11 58 -53 94 -94 l67 -75 -54 -41
c-30 -22 -84 -57 -120 -77 l-66 -36 -28 24 c-28 23 -110 116 -124 142 -4 7 0
23 9 35 17 25 171 141 186 141 5 0 21 -9 36 -19z m-219 -86 c-26 -27 -40 -32
-40 -12 0 7 10 17 23 23 37 19 42 15 17 -11z m-8 -114 l16 -30 -26 12 c-15 6
-28 12 -30 13 -5 2 10 34 17 34 3 0 14 -13 23 -29z m216 -131 c-22 -30 -38
-34 -46 -12 -3 9 35 32 66 41 1 1 -7 -13 -20 -29z"/>
<path d="M147 483 c-4 -3 -7 -11 -7 -17 0 -6 5 -5 12 2 6 6 9 14 7 17 -3 3 -9
2 -12 -2z"/>
</g>
</svg>
