<?xml version="1.0" standalone="no"?>
<!DOCTYPE svg PUBLIC "-//W3C//DTD SVG 20010904//EN"
 "http://www.w3.org/TR/2001/REC-SVG-20010904/DTD/svg10.dtd">
<svg version="1.0" xmlns="http://www.w3.org/2000/svg"
 width="144.000000pt" height="238.000000pt" viewBox="0 0 144.000000 238.000000"
 preserveAspectRatio="xMidYMid meet">
<metadata>
Created by potrace 1.16, written by Peter Selinger 2001-2019
</metadata>
<g transform="translate(0.000000,238.000000) scale(0.100000,-0.100000)"
fill="#000000" stroke="none">
<path d="M500 2320 c0 -5 -11 -10 -25 -10 -26 0 -35 -24 -12 -33 6 -3 32 -19
56 -37 33 -25 40 -34 30 -41 -24 -15 -37 -10 -32 11 13 51 -22 8 -108 -130
-14 -22 -91 66 -86 98 4 19 0 22 -31 22 -33 0 -34 -1 -28 -32 3 -18 9 -61 12
-95 6 -53 4 -63 -9 -63 -13 0 -16 12 -17 58 -2 110 -4 127 -20 127 -12 0 -14
-11 -12 -52 2 -33 -1 -53 -7 -53 -6 0 -11 21 -11 49 0 43 -3 50 -24 55 -14 3
-37 1 -51 -6 -26 -12 -27 -14 -19 -68 4 -30 8 -80 9 -110 0 -30 4 -60 8 -67 4
-7 5 -23 1 -36 -8 -33 9 -41 31 -17 15 16 31 20 85 20 60 0 69 -3 86 -25 30
-40 44 -32 44 25 0 48 16 100 31 100 12 0 94 -103 91 -116 -3 -16 15 -64 25
-64 5 0 19 21 32 46 32 60 141 157 185 165 l34 5 7 -59 c8 -72 20 -66 20 10 0
36 5 58 13 60 9 3 12 -11 12 -51 0 -30 5 -58 10 -61 6 -4 10 17 10 54 0 34 4
61 10 61 6 0 10 -28 10 -64 0 -36 5 -68 10 -71 6 -4 10 19 10 62 0 48 3 63 10
53 5 -8 10 -36 10 -62 0 -29 5 -48 11 -48 8 0 10 21 7 65 -3 57 -2 65 14 65
15 0 18 -9 18 -50 0 -27 5 -50 10 -50 6 0 10 25 10 55 l0 55 55 0 c41 0 55 4
55 14 0 12 -11 13 -55 9 -54 -6 -55 -5 -55 21 0 28 -18 36 -25 11 -16 -49 -18
-51 -28 -22 -13 33 -24 35 -30 5 -4 -23 -4 -23 -6 -1 -1 24 -29 37 -55 27 -12
-5 -16 -14 -13 -30 3 -16 0 -24 -9 -24 -9 0 -14 11 -14 30 0 31 -6 36 -29 21
-8 -5 -11 -16 -6 -30 6 -19 2 -21 -27 -21 -30 0 -39 8 -94 83 -34 45 -74 101
-89 125 -26 40 -45 53 -45 32z m180 -257 c0 -11 -84 -92 -132 -128 -21 -15
-38 -23 -38 -19 0 5 -20 34 -45 64 -25 30 -45 59 -45 64 0 11 53 96 60 96 3 0
21 -40 39 -90 30 -81 51 -113 51 -77 0 7 16 21 35 31 19 11 35 22 35 26 0 4
-11 34 -25 68 -35 87 -31 92 20 29 25 -31 45 -59 45 -64z m-110 93 c0 -14 -21
-26 -46 -26 -20 0 -17 28 4 33 32 9 42 7 42 -7z m-400 -36 c0 -21 -4 -28 -14
-24 -8 3 -11 15 -8 30 6 34 22 30 22 -6z m170 -22 c43 -48 45 -63 15 -113 -42
-73 -55 -61 -55 50 0 52 2 95 5 95 3 0 19 -15 35 -32z m250 -2 c0 -14 -45 -38
-54 -29 -12 13 -5 30 17 40 25 12 37 8 37 -11z m266 -13 c-11 -11 -17 4 -9 23
7 18 8 18 11 1 2 -10 1 -21 -2 -24z m-676 -28 c0 -1 -9 -5 -20 -8 -12 -3 -20
0 -20 8 0 8 8 11 20 8 11 -3 20 -7 20 -8z m47 -11 c-9 -9 -28 6 -21 18 4 6 10
6 17 -1 6 -6 8 -13 4 -17z m386 2 c3 -8 -2 -16 -11 -19 -9 -3 -25 -8 -34 -12
-13 -5 -18 -2 -18 8 0 29 53 49 63 23z m-383 -36 c0 -5 -7 -10 -15 -10 -8 0
-15 5 -15 10 0 6 7 10 15 10 8 0 15 -4 15 -10z m50 -45 c0 -22 -4 -25 -35 -25
-20 0 -49 7 -65 15 -34 17 -39 25 -12 19 9 -2 31 0 47 5 52 16 65 13 65 -14z"/>
<path d="M465 2050 c-3 -5 -1 -10 4 -10 6 0 11 5 11 10 0 6 -2 10 -4 10 -3 0
-8 -4 -11 -10z"/>
<path d="M1163 2197 c-75 -67 -98 -97 -73 -97 6 0 10 -11 10 -25 0 -30 18 -33
28 -5 6 16 18 4 71 -75 35 -52 67 -92 72 -89 5 3 1 17 -8 32 -38 63 -69 109
-97 145 l-29 38 20 27 c11 15 40 42 64 61 43 33 54 52 34 57 -5 1 -47 -30 -92
-69z"/>
<path d="M1344 1896 c-3 -8 -2 -21 2 -28 5 -7 7 -21 6 -30 -2 -10 1 -18 7 -18
15 0 33 38 29 63 -4 26 -35 35 -44 13z"/>
<path d="M1290 1782 c0 -5 -8 -17 -17 -28 -10 -10 -36 -42 -58 -69 -22 -27
-51 -59 -64 -71 -24 -21 -24 -21 -7 -58 9 -20 23 -36 30 -36 7 0 26 -19 41
-42 40 -60 96 -128 106 -128 18 0 7 21 -61 111 -38 52 -70 102 -70 112 0 26
27 75 70 127 40 48 59 90 41 90 -6 0 -11 -4 -11 -8z"/>
<path d="M512 1720 c-16 -27 -15 -50 3 -50 8 0 15 -2 15 -5 0 -15 -94 -135
-101 -128 -4 4 -19 37 -32 72 l-24 64 -17 -24 c-21 -30 -20 -48 2 -65 15 -12
12 -13 -25 -14 -41 0 -43 1 -54 40 -12 38 -31 51 -44 30 -3 -5 1 -20 9 -32 17
-24 21 -48 8 -48 -12 0 -32 47 -32 75 0 16 -6 25 -15 25 -24 0 -30 -29 -11
-60 20 -36 20 -40 -3 -40 -14 0 -21 10 -28 36 -4 19 -12 35 -18 34 -11 -1 -11
-22 1 -59 6 -21 5 -22 -14 -12 -11 6 -22 23 -24 38 -2 17 -10 29 -21 31 -23 5
-33 -24 -16 -45 14 -16 14 -61 0 -76 -5 -4 -6 -19 -3 -33 4 -22 8 -24 37 -18
24 4 34 2 38 -10 5 -13 -1 -16 -28 -16 -24 0 -35 -5 -35 -15 0 -11 12 -15 45
-15 33 0 45 -4 45 -15 0 -8 5 -15 10 -15 6 0 10 9 10 20 0 24 27 16 35 -11 10
-29 26 -23 19 7 -6 25 -5 27 22 21 32 -6 78 8 69 22 -3 6 -14 8 -24 6 -11 -2
-22 3 -25 11 -4 10 2 14 22 13 15 0 37 2 49 4 37 9 35 -8 -6 -49 -31 -30 -37
-42 -30 -56 5 -9 9 -26 9 -38 0 -31 23 -19 31 16 7 35 56 134 67 134 4 0 20
-25 37 -55 23 -44 34 -55 55 -55 22 -1 23 -2 8 -13 -9 -7 -24 -17 -33 -22 -12
-7 -15 -17 -10 -38 9 -36 36 -35 58 2 10 17 54 63 99 103 44 40 96 87 114 104
32 30 34 30 46 13 12 -18 15 -18 42 -4 15 8 41 15 57 15 l29 0 0 -85 c0 -50 4
-85 10 -85 6 0 10 35 10 86 0 54 4 83 10 79 6 -3 10 -40 10 -81 0 -47 4 -74
11 -74 8 0 10 26 7 80 -2 44 0 80 4 80 5 0 8 -22 8 -50 0 -67 19 -64 22 3 1
40 3 33 7 -31 8 -106 27 -110 23 -3 l-4 78 36 7 c46 9 47 26 2 26 -32 0 -35 3
-38 33 -4 40 -24 33 -21 -8 l1 -30 -10 33 c-14 40 -32 42 -26 2 3 -16 1 -30
-4 -30 -4 0 -8 11 -8 25 0 37 -18 31 -23 -7 -3 -29 -4 -27 -5 10 -1 23 -6 42
-12 42 -5 0 -10 7 -10 15 0 8 -4 15 -10 15 -12 0 -13 -31 -1 -63 16 -42 0 -52
-61 -40 -29 6 -60 11 -68 11 -18 -2 -150 91 -205 144 -46 43 -55 46 -73 18z
m43 -30 c3 -5 2 -10 -4 -10 -5 0 -13 5 -16 10 -3 6 -2 10 4 10 5 0 13 -4 16
-10z m45 -85 c0 -9 -9 -15 -25 -15 -24 0 -32 10 -18 23 12 13 43 7 43 -8z
m110 -32 c27 -20 50 -40 49 -43 -1 -7 -126 -110 -134 -110 -5 0 -1 154 5 199
1 8 32 -10 80 -46z m-187 -155 c-8 -16 -42 7 -57 38 -21 46 -21 46 17 100 l32
46 6 -89 c3 -48 4 -91 2 -95z m77 136 c0 -11 -5 -14 -16 -10 -9 3 -21 6 -27 6
-16 0 14 20 31 20 6 0 12 -7 12 -16z m-196 -36 c5 -15 8 -29 5 -31 -2 -2 -24
-1 -49 2 l-45 5 38 6 c53 7 51 24 -3 29 -35 2 -41 5 -25 12 37 15 69 6 79 -23z
m-244 12 c0 -5 -4 -10 -10 -10 -5 0 -10 5 -10 10 0 6 5 10 10 10 6 0 10 -4 10
-10z m70 0 c0 -5 -9 -10 -20 -10 -11 0 -20 5 -20 10 0 6 9 10 20 10 11 0 20
-4 20 -10z m47 4 c-3 -3 -12 -4 -19 -1 -8 3 -5 6 6 6 11 1 17 -2 13 -5z m323
-29 c0 -9 -9 -15 -25 -15 -24 0 -32 10 -18 23 12 13 43 7 43 -8z m-420 -15 c0
-5 -7 -10 -15 -10 -8 0 -15 5 -15 10 0 6 7 10 15 10 8 0 15 -4 15 -10z m60 0
c0 -5 -9 -10 -20 -10 -11 0 -20 5 -20 10 0 6 9 10 20 10 11 0 20 -4 20 -10z
m60 0 c0 -5 -7 -7 -15 -4 -8 4 -15 8 -15 10 0 2 7 4 15 4 8 0 15 -4 15 -10z
m300 -30 c0 -5 -10 -10 -22 -10 -19 0 -20 2 -8 10 19 13 30 13 30 0z m-406
-15 c3 -9 0 -15 -8 -15 -8 0 -16 7 -20 15 -3 9 0 15 8 15 8 0 16 -7 20 -15z
m66 0 c0 -8 -9 -15 -20 -15 -11 0 -20 7 -20 15 0 8 9 15 20 15 11 0 20 -7 20
-15z m340 -30 c0 -10 -10 -15 -27 -15 -27 1 -27 1 -9 15 25 19 36 19 36 0z
m-70 -110 c-7 -9 -15 -13 -19 -10 -3 3 1 10 9 15 21 14 24 12 10 -5z"/>
<path d="M1406 1332 c-9 -15 6 -83 18 -79 6 2 12 22 14 45 2 32 0 42 -12 42
-8 0 -17 -4 -20 -8z"/>
<path d="M40 923 c1 -60 0 -117 -2 -128 -3 -19 3 -20 106 -20 82 0 110 3 114
13 3 11 -14 12 -96 7 -69 -5 -101 -4 -106 4 -5 7 10 12 46 13 29 1 64 3 78 4
14 1 42 2 63 3 47 1 49 21 2 21 l-35 0 0 90 c0 53 -4 90 -10 90 -6 0 -10 -37
-10 -90 0 -76 -3 -90 -16 -90 -14 0 -15 13 -12 90 2 72 0 90 -11 90 -11 0 -13
-17 -9 -90 4 -72 3 -90 -8 -90 -19 0 -27 40 -22 110 2 33 1 60 -4 60 -4 0 -11
0 -15 0 -8 0 -7 -42 3 -122 5 -40 3 -48 -10 -48 -14 0 -16 15 -16 95 0 79 -3
95 -15 95 -14 0 -16 -17 -15 -107z"/>
<path d="M504 985 c-4 -23 -12 -35 -23 -35 -9 0 -24 -12 -33 -27 -9 -16 -30
-41 -47 -57 l-30 -29 -10 25 c-5 13 -15 50 -22 81 -13 53 -29 77 -29 42 0 -8
-9 -15 -20 -15 -27 0 -25 -18 4 -41 14 -11 32 -42 41 -70 l17 -51 -28 -28
c-28 -27 -33 -29 -154 -33 -82 -3 -126 -9 -128 -17 -3 -8 26 -11 104 -9 l109
2 15 -37 c16 -37 30 -47 30 -21 0 9 12 39 26 67 l26 51 19 -29 c10 -16 22 -45
25 -64 14 -81 19 -84 67 -44 17 14 91 55 165 91 120 59 135 64 149 50 11 -11
29 -14 73 -10 l57 6 -4 -50 c-3 -31 -1 -53 6 -57 6 -4 11 -1 12 6 1 7 2 20 3
28 2 8 3 30 4 48 3 50 22 38 22 -14 0 -37 3 -45 17 -42 11 2 22 20 30 48 l12
45 -1 -45 c-2 -60 16 -67 22 -10 l5 45 56 3 c55 3 56 2 97 -42 23 -25 44 -56
48 -70 3 -14 10 -26 14 -26 18 0 19 19 5 54 -25 60 -19 105 20 155 35 43 44
71 25 71 -5 0 -15 -9 -22 -20 -7 -11 -37 -37 -66 -57 -52 -36 -77 -41 -159
-34 -7 1 -13 14 -13 31 0 17 -4 30 -10 30 -5 0 -10 -13 -10 -29 0 -17 -5 -33
-11 -37 -7 -4 -10 8 -8 37 3 41 2 44 -21 44 -22 0 -25 -4 -25 -39 0 -24 -6
-41 -14 -44 -13 -4 -13 19 1 92 2 14 -4 19 -29 21 -38 3 -41 -7 -17 -54 22
-45 13 -64 -28 -56 -18 3 -50 7 -71 8 -29 2 -58 17 -118 62 -44 32 -95 76
-114 97 -19 21 -39 38 -45 38 -5 0 -12 -16 -16 -35z m36 -70 c0 -8 -9 -15 -19
-15 -24 0 -36 16 -19 23 24 10 38 7 38 -8z m71 -9 c19 -14 53 -37 76 -53 23
-15 42 -30 43 -33 0 -3 -43 -27 -95 -52 -83 -41 -98 -45 -120 -35 -30 14 -32
27 -5 27 12 0 20 -7 20 -17 0 -12 3 -14 11 -6 5 5 13 51 16 102 3 50 9 91 13
91 4 0 22 -11 41 -24z m-144 -100 c-3 -52 -3 -97 0 -100 3 -3 14 -1 24 5 11 5
19 6 19 1 0 -11 -45 -32 -69 -32 -17 0 -28 21 -57 112 -4 10 9 33 36 62 24 25
45 46 48 46 3 0 2 -42 -1 -94z m68 73 c12 -18 -5 -99 -20 -99 -23 0 -28 21 -9
35 18 13 18 14 2 20 -18 7 -24 35 -11 48 10 10 31 8 38 -4z m689 -61 c-5 -7
-7 -26 -6 -43 l2 -30 -19 25 c-18 23 -18 26 -4 42 18 20 38 24 27 6z"/>
<path d="M93 693 c-29 -2 -53 -8 -53 -14 0 -15 202 -7 208 9 4 12 -31 13 -155
5z"/>
<path d="M1346 674 c-3 -9 -3 -21 1 -27 4 -7 6 -20 5 -29 -5 -31 26 -20 37 13
8 24 8 36 0 45 -15 19 -35 18 -43 -2z"/>
<path d="M433 491 c-13 -11 -23 -22 -23 -25 0 -2 26 -19 58 -36 l58 -31 -4
-97 -3 -97 -50 -47 -49 -47 23 -35 c12 -19 26 -34 32 -32 5 1 13 23 17 49 8
57 9 59 91 148 53 58 67 68 67 51 0 -26 8 -27 46 -7 16 8 39 15 52 15 21 0 22
-4 22 -70 0 -40 4 -70 10 -70 6 0 10 30 10 70 0 56 3 70 15 70 12 0 15 -13 15
-55 0 -70 18 -72 23 -3 l3 53 2 -52 c1 -29 7 -53 12 -53 6 0 10 5 10 10 0 6 6
9 13 8 8 -2 11 9 9 34 -1 20 2 39 8 43 6 4 10 -6 10 -24 0 -16 5 -33 10 -36 6
-4 10 8 10 30 l0 36 122 -4 c143 -6 136 -1 207 -144 23 -46 45 -83 50 -83 21
0 18 19 -14 77 -19 35 -35 74 -35 87 0 35 20 87 48 124 41 56 14 58 -72 7
l-78 -46 -111 3 -112 3 -3 63 c-2 34 -7 62 -12 62 -5 0 -11 -28 -13 -62 l-3
-63 -2 60 c-2 48 -6 63 -22 73 -19 11 -20 10 -21 -35 -2 -82 -17 -108 -18 -30
-1 40 -5 67 -12 67 -6 0 -10 -12 -9 -27 5 -72 0 -103 -16 -103 -15 0 -16 11
-10 89 l7 89 -26 0 c-33 0 -39 -11 -27 -51 6 -17 12 -51 15 -74 5 -43 5 -43
-28 -43 -18 0 -38 7 -45 15 -15 18 -37 19 -43 3 -3 -8 -40 22 -92 75 -47 48
-89 87 -93 87 -4 -1 -17 -9 -29 -19z m53 -38 c-7 -7 -26 7 -26 19 0 6 6 6 15
-2 9 -7 13 -15 11 -17z m134 -132 c0 -4 -18 -25 -40 -46 l-40 -39 0 56 c0 86
5 93 46 62 19 -15 34 -29 34 -33z m257 37 c-3 -8 -6 -5 -6 6 -1 11 2 17 5 13
3 -3 4 -12 1 -19z m375 -67 l-17 -50 -22 27 c-12 15 -18 30 -15 34 6 6 64 38
69 38 0 0 -6 -22 -15 -49z m-562 19 c0 -5 -2 -10 -4 -10 -3 0 -8 5 -11 10 -3
6 -1 10 4 10 6 0 11 -4 11 -10z m187 -62 c-3 -8 -6 -5 -6 6 -1 11 2 17 5 13 3
-3 4 -12 1 -19z m-407 -138 c0 -5 -5 -10 -11 -10 -5 0 -7 5 -4 10 3 6 8 10 11
10 2 0 4 -4 4 -10z"/>
<path d="M235 423 c-12 -29 -13 -38 -3 -44 7 -4 9 -11 6 -14 -13 -13 -28 7
-28 36 0 16 -4 29 -10 29 -5 0 -10 -16 -10 -36 0 -21 -4 -33 -10 -29 -5 3 -10
20 -10 36 0 40 -20 27 -21 -14 l-2 -32 -6 33 c-8 43 -25 46 -29 5 -5 -47 -22
-41 -22 7 0 44 -5 48 -31 24 -13 -12 -15 -22 -8 -42 5 -15 12 -63 16 -107 l8
-80 82 0 82 1 -21 -23 c-19 -20 -19 -23 -4 -38 9 -9 16 -21 16 -26 0 -5 7 -9
15 -9 10 0 15 10 15 26 0 26 58 144 71 144 4 0 23 -25 43 -55 40 -59 56 -74
56 -51 0 8 11 16 27 18 39 4 42 28 4 28 -21 0 -31 5 -31 15 0 10 11 15 35 15
19 0 35 5 35 10 0 6 -10 10 -22 10 -30 0 -52 15 -44 29 4 6 20 11 37 11 40 0
37 18 -3 22 -25 2 -33 8 -33 23 0 16 9 21 40 26 41 5 34 15 -15 21 -17 2 -24
8 -22 19 1 9 -4 19 -12 22 -10 4 -27 -14 -53 -54 -21 -32 -41 -59 -44 -59 -3
0 -21 32 -38 70 -18 39 -34 70 -37 70 -2 0 -11 -17 -19 -37z m177 -128 c-4
-93 -10 -98 -46 -31 l-19 35 29 45 c15 24 31 43 34 41 3 -2 4 -42 2 -90z
m-116 28 c20 -24 22 -30 10 -48 -7 -11 -19 -30 -27 -42 -12 -21 -22 -23 -96
-23 -89 0 -129 19 -44 21 28 1 56 3 61 4 6 1 13 3 18 4 14 4 -33 20 -60 20
-41 1 -34 21 7 21 21 0 35 -5 35 -12 1 -9 5 -8 13 3 7 9 19 18 27 21 12 4 10
7 -7 16 -29 16 -19 42 14 42 16 0 35 -11 49 -27z m-178 -1 c2 -7 -3 -12 -12
-12 -9 0 -16 7 -16 16 0 17 22 14 28 -4z m28 -9 c-10 -10 -19 5 -10 18 6 11 8
11 12 0 2 -7 1 -15 -2 -18z m52 10 c-4 -22 -22 -20 -26 1 -2 10 3 16 13 16 10
0 15 -7 13 -17z m-88 -59 c0 -8 -4 -12 -10 -9 -5 3 -10 10 -10 16 0 5 5 9 10
9 6 0 10 -7 10 -16z"/>
<path d="M1367 44 c-4 -4 -7 -16 -7 -26 0 -13 8 -18 31 -18 26 0 30 3 27 23
-3 22 -36 36 -51 21z"/>
</g>
</svg>
