<?xml version="1.0" standalone="no"?>
<!DOCTYPE svg PUBLIC "-//W3C//DTD SVG 20010904//EN"
 "http://www.w3.org/TR/2001/REC-SVG-20010904/DTD/svg10.dtd">
<svg version="1.0" xmlns="http://www.w3.org/2000/svg"
 width="105.000000pt" height="93.000000pt" viewBox="0 0 105.000000 93.000000"
 preserveAspectRatio="xMidYMid meet">
<metadata>
Created by potrace 1.16, written by Peter Selinger 2001-2019
</metadata>
<g transform="translate(0.000000,93.000000) scale(0.100000,-0.100000)"
fill="#000000" stroke="none">
<path d="M817 878 c-19 -7 -26 -15 -23 -26 3 -10 8 -29 11 -43 l6 -26 -83 -6
c-115 -9 -438 -9 -438 1 0 4 5 24 11 46 13 47 2 63 -31 46 -19 -10 -22 -18
-17 -57 l5 -46 -77 6 c-42 3 -85 9 -94 13 -14 5 -17 0 -17 -24 0 -38 9 -44 46
-33 16 5 55 12 86 14 l58 6 0 -46 0 -45 -102 4 -103 3 -3 -29 -4 -29 59 7
c152 19 153 19 153 6 0 -9 4 -9 13 -2 11 9 219 21 425 23 80 1 95 -1 107 -17
12 -16 14 -12 20 41 3 33 17 97 30 143 25 90 23 93 -38 70z m23 -49 c-13 -46
-20 -48 -20 -6 0 25 4 37 14 37 12 0 13 -7 6 -31z m-563 -11 c-3 -8 -6 -5 -6
6 -1 11 2 17 5 13 3 -3 4 -12 1 -19z m533 -101 l0 -44 -112 -6 c-62 -4 -182
-7 -266 -7 l-153 0 3 43 3 42 205 5 c113 3 231 7 263 8 l57 2 0 -43z m-705
-77 c3 -6 -4 -10 -17 -10 -18 0 -20 2 -8 10 19 12 18 12 25 0z"/>
<path d="M937 673 c-7 -13 4 -83 13 -83 12 0 30 58 24 75 -6 16 -30 20 -37 8z"/>
<path d="M307 368 c-26 -9 -28 -14 -22 -44 l6 -34 -39 6 c-37 6 -40 5 -45 -22
-7 -41 -1 -46 49 -38 42 6 44 5 44 -20 0 -34 18 -34 22 1 4 38 30 42 260 43
l198 0 0 -51 0 -50 -227 3 c-260 4 -438 13 -470 23 -21 7 -23 4 -23 -30 0 -31
3 -36 17 -30 10 4 63 10 119 12 l101 5 -1 -38 c-1 -22 4 -40 9 -41 6 -1 9 14
7 37 l-4 40 236 0 236 0 0 -50 c0 -27 5 -50 10 -50 6 0 10 21 10 48 0 54 25
194 40 222 23 42 10 49 -47 25 -28 -12 -34 -18 -25 -27 7 -7 12 -16 12 -20 0
-5 -100 -7 -222 -6 l-223 3 3 48 c2 26 2 47 0 46 -2 0 -16 -5 -31 -11z m13
-38 c0 -5 -4 -10 -10 -10 -5 0 -10 5 -10 10 0 6 5 10 10 10 6 0 10 -4 10 -10z
m487 -42 c-3 -7 -5 -2 -5 12 0 14 2 19 5 13 2 -7 2 -19 0 -25z m-518 -22 c-12
-10 -59 -15 -59 -6 0 5 14 10 32 10 17 0 29 -2 27 -4z m-182 -112 c-3 -3 -12
-4 -19 -1 -8 3 -5 6 6 6 11 1 17 -2 13 -5z"/>
<path d="M904 155 c-7 -18 3 -35 21 -35 18 0 26 25 12 39 -15 15 -27 14 -33
-4z"/>
</g>
</svg>
