<?xml version="1.0" standalone="no"?>
<!DOCTYPE svg PUBLIC "-//W3C//DTD SVG 20010904//EN"
 "http://www.w3.org/TR/2001/REC-SVG-20010904/DTD/svg10.dtd">
<svg version="1.0" xmlns="http://www.w3.org/2000/svg"
 width="86.000000pt" height="214.000000pt" viewBox="0 0 86.000000 214.000000"
 preserveAspectRatio="xMidYMid meet">
<metadata>
Created by potrace 1.16, written by Peter Selinger 2001-2019
</metadata>
<g transform="translate(0.000000,214.000000) scale(0.100000,-0.100000)"
fill="#000000" stroke="none">
<path d="M476 2102 c-4 -10 -21 -24 -40 -32 -34 -13 -34 -13 -29 -67 l6 -54
-158 3 c-115 2 -159 6 -163 16 -8 26 -30 11 -34 -25 -3 -21 -4 -39 -3 -41 2
-2 24 4 49 12 33 11 85 16 176 16 l130 0 0 -49 0 -49 -86 -7 c-48 -4 -127 -5
-175 -3 l-89 5 0 -33 c0 -39 -3 -38 45 -19 23 10 85 18 170 22 l134 6 -4 -39
c-3 -21 -6 -59 -9 -83 -5 -50 3 -111 15 -111 14 0 21 41 9 55 -9 11 -9 15 -1
15 6 0 11 -6 11 -12 1 -7 18 5 38 28 31 34 137 121 180 148 13 8 52 -32 89
-91 26 -41 43 -54 43 -33 0 6 -16 33 -35 60 -33 47 -34 53 -25 92 15 68 13 71
-25 42 -20 -15 -37 -25 -39 -23 -2 2 -32 40 -67 84 -60 75 -88 128 -89 168 0
22 -17 22 -24 -1z m14 -42 c0 -5 -5 -10 -11 -10 -5 0 -7 5 -4 10 3 6 8 10 11
10 2 0 4 -4 4 -10z m31 -79 c68 -74 111 -131 113 -146 1 -13 -188 -165 -205
-165 -5 0 -9 10 -9 23 0 50 21 303 26 320 9 28 29 20 75 -32z m175 -156 c-3
-9 -11 -13 -16 -10 -8 5 -7 11 1 21 14 18 24 11 15 -11z"/>
<path d="M820 1640 c0 -45 15 -52 32 -16 13 29 5 56 -17 56 -11 0 -15 -11 -15
-40z"/>
<path d="M302 1402 c-20 -22 -31 -43 -29 -54 4 -14 -1 -18 -20 -18 -22 0 -24
-3 -18 -22 4 -13 9 -35 12 -50 5 -27 4 -28 -43 -28 -27 0 -67 5 -88 11 -35 10
-42 9 -53 -7 -21 -29 -17 -47 10 -40 12 3 57 9 100 13 l77 6 0 -45 0 -46 -62
-4 c-35 -3 -65 -2 -68 2 -3 4 -17 10 -32 13 -23 6 -27 4 -33 -24 -4 -17 -5
-32 -2 -35 2 -2 36 2 76 11 117 24 121 23 121 -32 0 -28 -6 -53 -15 -63 -14
-16 -13 -19 10 -34 14 -9 25 -21 25 -27 0 -5 7 -26 15 -46 21 -50 37 -31 22
25 -10 39 -10 43 12 60 33 24 222 132 231 132 9 0 35 -61 44 -107 8 -35 36
-67 36 -40 0 8 -6 30 -14 49 -11 26 -12 44 -4 83 6 28 15 55 20 62 17 21 -2
36 -22 18 -18 -16 -24 -12 -122 76 -66 59 -104 100 -106 115 -4 28 -19 31 -39
7 -13 -17 -14 -16 -9 7 2 14 8 35 11 48 10 32 -5 26 -43 -16z m51 -83 c12 -7
40 -28 63 -48 23 -20 66 -56 97 -81 31 -25 57 -48 57 -51 0 -4 -8 -9 -17 -13
-10 -3 -52 -24 -93 -47 -94 -52 -164 -73 -180 -54 -6 8 -10 26 -8 42 3 26 7
28 58 33 70 6 64 26 -7 22 -57 -3 -59 -2 -47 57 6 27 10 31 41 31 43 0 50 18
24 69 -29 56 -28 60 12 40z m-23 -76 c0 -8 -12 -13 -28 -13 -26 0 -28 3 -25
33 8 60 13 64 33 27 11 -19 19 -41 20 -47z m270 -120 c0 -5 -5 -15 -10 -23 -8
-12 -10 -11 -10 8 0 12 5 22 10 22 6 0 10 -3 10 -7z"/>
<path d="M773 1002 c-13 -8 -10 -75 4 -79 6 -2 16 10 23 27 11 26 11 34 -1 45
-8 8 -19 11 -26 7z"/>
<path d="M469 734 c-21 -22 -30 -25 -67 -21 -41 4 -43 3 -37 -17 4 -11 9 -49
12 -83 l5 -63 -103 0 c-63 0 -120 6 -144 14 -76 26 -78 26 -77 -21 0 -24 1
-45 1 -47 1 -2 20 2 44 9 23 7 95 16 160 20 110 7 117 6 118 -11 1 -25 -2
-108 -5 -111 -1 -1 -42 -4 -92 -7 -63 -4 -102 -1 -129 9 -22 8 -54 14 -72 15
-31 0 -31 0 -26 -42 3 -24 7 -45 9 -47 2 -2 25 4 51 13 27 10 95 19 155 23
l107 5 3 -44 c2 -23 7 -43 13 -43 6 0 10 49 12 120 2 117 18 225 34 225 5 0
18 -33 30 -72 31 -109 28 -103 41 -90 8 8 8 19 -1 40 -13 31 -31 142 -23 142
6 0 39 -36 83 -91 63 -77 60 -92 -30 -196 -44 -49 -91 -99 -105 -110 -31 -25
-32 -34 -6 -58 11 -10 17 -22 14 -27 -3 -5 -2 -14 3 -21 5 -7 15 -31 22 -54
18 -66 31 -62 31 9 0 35 3 74 7 87 5 20 3 23 -11 18 -14 -6 -16 -3 -10 16 14
46 46 98 91 149 25 29 50 55 55 56 12 5 38 -62 38 -98 0 -21 5 -30 16 -30 12
0 15 6 10 23 -3 12 -6 66 -6 120 0 87 -2 97 -18 97 -10 0 -23 -5 -29 -11 -8
-8 -15 -5 -26 12 -48 78 -87 149 -100 182 -9 20 -18 37 -20 37 -2 0 -14 -12
-28 -26z m48 -54 c12 -22 19 -40 17 -40 -10 0 -53 55 -54 68 0 23 15 12 37
-28z m-87 -2 c-1 -7 -7 -26 -15 -43 -10 -24 -14 -26 -14 -10 -1 11 -4 30 -7
43 -5 18 -2 22 15 22 11 0 21 -6 21 -12z m-315 -138 c3 -5 -3 -10 -14 -10 -12
0 -21 5 -21 10 0 6 6 10 14 10 8 0 18 -4 21 -10z m553 -81 l-3 -34 -17 31
c-13 23 -14 34 -5 43 17 17 29 -2 25 -40z m-540 -78 c10 -6 7 -10 -12 -13 -15
-3 -27 0 -30 8 -6 16 21 19 42 5z m333 -158 c-8 -15 -10 -15 -11 -2 0 17 10
32 18 25 2 -3 -1 -13 -7 -23z"/>
<path d="M734 225 c-4 -9 -2 -21 4 -27 15 -15 44 -1 40 19 -4 23 -36 29 -44 8z"/>
</g>
</svg>
