<?xml version="1.0" standalone="no"?>
<!DOCTYPE svg PUBLIC "-//W3C//DTD SVG 20010904//EN"
 "http://www.w3.org/TR/2001/REC-SVG-20010904/DTD/svg10.dtd">
<svg version="1.0" xmlns="http://www.w3.org/2000/svg"
 width="115.000000pt" height="51.000000pt" viewBox="0 0 115.000000 51.000000"
 preserveAspectRatio="xMidYMid meet">
<metadata>
Created by potrace 1.16, written by Peter Selinger 2001-2019
</metadata>
<g transform="translate(0.000000,51.000000) scale(0.100000,-0.100000)"
fill="#000000" stroke="none">
<path d="M894 456 c-15 -11 -67 -14 -227 -12 l-208 1 -6 -23 c-7 -31 -1 -35
33 -21 16 6 103 13 194 16 91 3 166 7 168 8 9 8 104 -99 122 -138 l22 -46 -26
-43 c-14 -24 -39 -58 -56 -75 l-31 -33 -212 3 c-117 1 -220 6 -229 11 -14 6
-20 2 -28 -19 -6 -15 -9 -30 -6 -32 2 -2 29 0 60 6 83 15 433 16 452 0 18 -15
18 -15 38 47 9 28 32 75 51 105 39 61 47 93 17 66 -17 -16 -20 -13 -49 51 -17
37 -34 82 -38 99 -8 40 -16 46 -41 29z m30 -65 c-9 -10 -36 28 -29 39 6 9 12
6 21 -11 7 -13 10 -26 8 -28z"/>
<path d="M381 430 l-23 -20 26 -34 c14 -19 26 -36 26 -38 0 -5 -256 9 -278 16
-17 6 -21 2 -24 -21 -3 -25 -7 -28 -41 -27 l-39 1 7 -36 c9 -43 14 -108 15
-173 0 -27 5 -48 10 -48 6 0 10 25 10 55 0 52 1 55 24 55 23 0 25 -4 28 -50 2
-28 7 -51 13 -53 5 -1 8 19 6 46 -2 33 2 49 11 52 8 3 65 4 128 3 102 -3 112
-5 99 -18 -8 -9 -25 -28 -38 -43 l-24 -27 27 -25 c15 -14 28 -25 30 -25 2 0 9
26 15 58 6 31 25 79 42 105 26 42 32 47 46 35 14 -11 15 -9 8 22 -4 19 -10 40
-14 45 -3 6 -15 43 -26 84 -12 41 -25 76 -30 77 -6 2 -21 -6 -34 -16z m39 -49
c0 -11 -4 -9 -14 4 -8 11 -12 24 -9 28 7 11 23 -12 23 -32z m-270 -55 c0 -3
-4 -8 -10 -11 -5 -3 -10 -1 -10 4 0 6 5 11 10 11 6 0 10 -2 10 -4z m293 -41
c7 -25 4 -38 -15 -68 l-23 -36 -127 -1 c-71 0 -128 2 -128 4 0 3 5 17 10 31
13 35 6 45 -28 36 -27 -8 -31 -20 -17 -53 6 -15 2 -18 -20 -18 -27 0 -27 1
-21 43 4 23 12 47 19 54 18 17 181 42 267 40 74 -2 74 -2 83 -32z m-77 -222
c-10 -10 -19 5 -10 18 6 11 8 11 12 0 2 -7 1 -15 -2 -18z"/>
</g>
</svg>
