<?xml version="1.0" standalone="no"?>
<!DOCTYPE svg PUBLIC "-//W3C//DTD SVG 20010904//EN"
 "http://www.w3.org/TR/2001/REC-SVG-20010904/DTD/svg10.dtd">
<svg version="1.0" xmlns="http://www.w3.org/2000/svg"
 width="103.000000pt" height="134.000000pt" viewBox="0 0 103.000000 134.000000"
 preserveAspectRatio="xMidYMid meet">
<metadata>
Created by potrace 1.16, written by Peter Selinger 2001-2019
</metadata>
<g transform="translate(0.000000,134.000000) scale(0.100000,-0.100000)"
fill="#000000" stroke="none">
<path d="M540 1299 c-6 -11 -21 -19 -35 -19 -24 0 -25 -1 -18 -60 l6 -60 -84
1 c-46 0 -106 4 -132 8 -63 10 -67 2 -67 -138 0 -105 10 -141 24 -85 5 20 12
25 34 22 25 -3 27 -6 24 -40 -2 -21 1 -38 6 -38 12 0 22 24 22 56 0 23 2 24
80 24 l80 0 0 -93 0 -94 53 18 c28 10 66 18 84 19 37 0 53 17 21 22 -22 3 -23
8 -26 101 l-3 97 26 0 25 0 0 -97 c0 -120 18 -115 22 6 3 83 4 85 31 92 l27 7
0 -109 c0 -178 17 -124 23 74 4 130 10 194 21 226 19 53 19 51 1 51 -9 0 -15
-10 -16 -27 l-1 -28 -7 30 c-6 29 -8 30 -65 31 -34 1 -61 7 -66 14 -5 8 -10 9
-14 2 -4 -7 -17 -7 -36 -2 -25 7 -32 5 -40 -11z m126 -90 c-3 -34 -6 -82 -6
-106 0 -40 -2 -44 -22 -41 -21 3 -23 9 -26 73 -5 105 3 135 35 135 26 0 26 0
19 -61z m74 -44 c0 -105 0 -105 -24 -105 -14 0 -27 4 -30 9 -3 5 -3 52 1 105
6 92 7 96 30 96 23 0 23 -1 23 -105z m-210 88 c0 -5 -5 -15 -10 -23 -8 -12
-10 -11 -10 8 0 12 5 22 10 22 6 0 10 -3 10 -7z m62 -93 l-3 -100 -41 0 -41 0
7 53 c12 97 34 147 65 147 14 0 16 -13 13 -100z m-337 -20 c-3 -5 -11 -10 -16
-10 -6 0 -7 5 -4 10 3 6 11 10 16 10 6 0 7 -4 4 -10z m235 -75 l0 -75 -86 0
-86 0 5 28 c3 15 9 35 13 45 6 16 2 18 -22 15 -30 -3 -33 -11 -20 -63 6 -23 4
-25 -29 -25 -25 0 -35 4 -35 16 0 26 22 104 31 110 18 11 96 22 162 23 l67 1
0 -75z m100 -125 c0 -97 -1 -100 -22 -100 -65 1 -68 5 -63 97 2 46 7 88 10 94
4 5 22 9 41 9 l34 0 0 -100z"/>
<path d="M81 1104 l-45 -43 25 -10 c26 -10 70 -67 90 -116 7 -18 13 -25 16
-17 3 8 -3 34 -12 58 -9 25 -17 72 -18 105 0 33 -3 61 -6 63 -3 2 -26 -16 -50
-40z m37 -55 c-2 -4 -12 -1 -22 6 -16 12 -17 17 -6 31 13 14 15 14 22 -7 5
-12 7 -26 6 -30z"/>
<path d="M932 892 c-14 -10 -10 -74 5 -79 17 -6 35 24 31 53 -3 30 -16 38 -36
26z"/>
<path d="M624 635 c20 -115 28 -229 24 -376 -3 -147 -1 -168 12 -163 46 19 95
27 175 28 l90 1 7 215 c5 155 11 228 22 260 9 25 16 50 16 57 0 8 -48 11 -176
10 l-175 -2 5 -30z m93 -142 c1 -109 -3 -155 -13 -175 -8 -16 -19 -28 -24 -28
-16 0 -12 20 5 26 8 4 15 10 15 15 0 5 -7 9 -15 9 -25 0 -23 108 3 128 14 11
13 12 -6 12 -20 0 -22 5 -22 49 0 81 9 111 35 111 22 0 22 -2 22 -147z m71 65
c-3 -77 -5 -83 -25 -86 -22 -3 -23 -1 -23 82 0 85 0 86 25 86 26 0 26 0 23
-82z m62 13 c0 -78 -6 -101 -26 -101 -11 0 -14 19 -14 85 0 78 2 85 20 85 18
0 20 -7 20 -69z m54 53 c3 -9 6 -45 6 -80 0 -50 -3 -64 -15 -64 -8 0 -15 -4
-15 -10 0 -5 7 -10 15 -10 12 0 15 -14 15 -65 0 -36 -2 -65 -4 -65 -2 0 -11
-3 -20 -6 -14 -5 -16 12 -16 155 0 131 3 161 14 161 8 0 17 -7 20 -16z m-122
-219 c0 -30 1 -61 2 -67 1 -15 -33 -23 -45 -11 -5 5 -6 37 -3 71 6 51 10 62
25 62 16 0 19 -9 21 -55z m66 -11 c2 -50 0 -63 -14 -68 -23 -9 -26 -4 -32 53
-5 60 2 84 25 79 14 -3 19 -15 21 -64z m-63 -169 c0 -74 -2 -80 -21 -83 -19
-3 -22 3 -28 67 -7 82 -1 103 28 99 19 -3 21 -9 21 -83z m63 2 c3 -72 1 -77
-18 -77 -18 0 -20 6 -20 81 0 71 2 80 18 77 14 -3 17 -16 20 -81z m62 3 c0
-73 -2 -80 -20 -80 -18 0 -20 7 -20 80 0 73 2 80 20 80 18 0 20 -7 20 -80z
m-191 -49 c1 -35 -2 -42 -15 -37 -9 3 -20 6 -25 6 -17 0 -10 97 9 116 16 17
17 16 23 -12 4 -16 7 -49 8 -73z"/>
<path d="M300 482 c0 -14 -7 -19 -25 -19 -34 0 -37 -5 -27 -34 5 -13 13 -70
17 -126 4 -57 11 -103 16 -103 5 0 9 16 9 35 0 24 5 35 15 35 12 0 15 -13 15
-56 0 -40 3 -54 13 -51 8 2 11 20 9 55 l-4 52 137 -1 c125 -1 157 3 144 16 -3
2 -61 5 -129 6 -69 0 -128 3 -132 5 -4 3 -2 16 4 29 14 31 7 39 -27 31 -20 -5
-25 -13 -25 -36 0 -32 -14 -40 -24 -14 -9 24 -6 65 7 103 l12 35 160 4 c88 2
162 6 165 9 6 5 -22 23 -30 18 -9 -5 -263 13 -282 20 -14 5 -18 2 -18 -13z"/>
<path d="M81 405 c-23 -48 -41 -90 -41 -92 0 -2 18 -26 40 -54 21 -27 47 -74
56 -104 20 -63 40 -74 30 -17 -3 20 -11 104 -16 187 -6 82 -15 154 -20 159 -5
5 -25 -26 -49 -79z m45 -81 l5 -99 -31 49 -31 49 23 52 c13 29 24 52 26 51 1
-2 5 -48 8 -102z"/>
<path d="M1004 155 c-8 -19 2 -45 16 -45 5 0 10 14 10 30 0 31 -16 41 -26 15z"/>
</g>
</svg>
