<?xml version="1.0" standalone="no"?>
<!DOCTYPE svg PUBLIC "-//W3C//DTD SVG 20010904//EN"
 "http://www.w3.org/TR/2001/REC-SVG-20010904/DTD/svg10.dtd">
<svg version="1.0" xmlns="http://www.w3.org/2000/svg"
 width="102.000000pt" height="50.000000pt" viewBox="0 0 102.000000 50.000000"
 preserveAspectRatio="xMidYMid meet">
<metadata>
Created by potrace 1.16, written by Peter Selinger 2001-2019
</metadata>
<g transform="translate(0.000000,50.000000) scale(0.100000,-0.100000)"
fill="#000000" stroke="none">
<path d="M862 470 c-12 -12 -22 -25 -22 -30 0 -13 -124 -12 -215 0 -38 6 -79
11 -89 13 -14 1 -21 -6 -27 -27 -5 -17 -7 -32 -5 -34 2 -2 22 2 45 8 22 6 101
12 175 13 155 2 163 -1 190 -83 21 -63 20 -78 -3 -116 l-19 -32 -114 -4 c-125
-5 -243 6 -265 23 -17 15 -19 12 -26 -33 -5 -36 3 -55 17 -41 4 4 14 9 24 11
39 9 231 22 285 20 l59 -3 -20 -25 c-19 -25 -19 -26 -2 -48 25 -30 40 -28 40
6 0 15 15 59 34 98 l34 71 -24 69 c-13 38 -24 80 -24 94 0 33 -11 70 -19 70
-4 0 -17 -9 -29 -20z m28 -42 c0 -19 -2 -20 -10 -8 -13 19 -13 30 0 30 6 0 10
-10 10 -22z m-325 -8 c-3 -5 -13 -10 -21 -10 -8 0 -14 5 -14 10 0 6 9 10 21
10 11 0 17 -4 14 -10z m-5 -254 c0 -2 -11 -6 -25 -8 -14 -3 -25 -1 -25 3 0 5
11 9 25 9 14 0 25 -2 25 -4z"/>
<path d="M421 446 c-16 -17 -21 -31 -16 -46 l7 -23 -120 5 c-83 3 -125 8 -137
18 -15 13 -19 11 -37 -13 -12 -17 -29 -27 -45 -27 -24 0 -25 -2 -19 -37 3 -21
6 -80 6 -130 0 -55 4 -93 10 -93 6 0 10 20 10 45 l0 45 44 0 c42 0 44 -1 50
-37 3 -21 6 -50 6 -65 0 -16 5 -28 11 -28 8 0 10 19 6 65 l-6 65 111 0 c110 0
111 0 93 -20 -18 -19 -17 -21 1 -55 10 -19 22 -35 25 -35 4 0 10 15 13 34 4
18 18 55 31 82 32 64 31 74 -3 41 -27 -26 -31 -27 -150 -27 -67 0 -122 1 -122
3 0 1 4 17 10 36 12 43 6 53 -25 39 -22 -10 -24 -16 -19 -45 l6 -33 -41 0
c-47 0 -49 8 -30 85 10 41 14 45 48 50 20 3 43 9 51 13 8 4 67 6 131 4 l116
-3 18 -37 c22 -46 30 -28 16 38 -6 28 -11 64 -11 80 0 36 -9 38 -39 6z m29
-56 c-1 -12 -4 -11 -15 4 -8 10 -12 23 -8 29 7 11 23 -12 23 -33z m-373 -82
c-3 -7 -5 -2 -5 12 0 14 2 19 5 13 2 -7 2 -19 0 -25z m347 -162 c-3 -9 -10
-16 -15 -16 -6 0 -5 9 1 21 13 24 24 20 14 -5z"/>
<path d="M577 362 c-21 -23 -21 -38 0 -50 14 -9 14 -10 -5 -16 -15 -5 -22 -16
-22 -32 0 -30 4 -30 33 -1 l22 22 3 -32 c2 -18 5 -33 7 -33 1 0 17 13 34 29
16 15 45 34 63 42 42 16 50 28 32 46 -8 8 -14 21 -14 29 0 20 -26 18 -34 -3
-5 -11 -1 -22 9 -29 11 -8 13 -14 5 -19 -15 -9 -37 11 -44 40 -4 14 -13 25
-20 25 -20 0 -28 -30 -14 -48 11 -13 10 -14 -2 -10 -8 2 -17 13 -18 24 -6 31
-17 36 -35 16z m88 -62 c-3 -5 -10 -10 -16 -10 -5 0 -9 5 -9 10 0 6 7 10 16
10 8 0 12 -4 9 -10z"/>
<path d="M761 366 c-10 -12 -8 -19 9 -36 26 -26 19 -38 -30 -46 -30 -5 -40
-12 -45 -31 -7 -30 1 -41 19 -28 48 36 98 65 111 65 8 0 15 7 15 15 0 8 -7 15
-16 15 -8 0 -20 14 -25 30 -12 33 -21 37 -38 16z"/>
</g>
</svg>
