<?xml version="1.0" standalone="no"?>
<!DOCTYPE svg PUBLIC "-//W3C//DTD SVG 20010904//EN"
 "http://www.w3.org/TR/2001/REC-SVG-20010904/DTD/svg10.dtd">
<svg version="1.0" xmlns="http://www.w3.org/2000/svg"
 width="66.000000pt" height="51.000000pt" viewBox="0 0 66.000000 51.000000"
 preserveAspectRatio="xMidYMid meet">
<metadata>
Created by potrace 1.16, written by Peter Selinger 2001-2019
</metadata>
<g transform="translate(0.000000,51.000000) scale(0.100000,-0.100000)"
fill="#000000" stroke="none">
<path d="M181 395 c-13 -12 -21 -27 -18 -32 3 -5 40 -26 82 -47 42 -21 75 -40
72 -42 -2 -2 -48 5 -101 17 -54 11 -102 17 -105 12 -12 -13 -35 -93 -29 -98 3
-3 44 4 92 15 122 28 130 25 54 -21 -38 -22 -68 -43 -68 -47 0 -12 39 -72 47
-72 5 0 19 18 32 40 14 22 46 60 72 86 l46 46 122 5 c112 6 153 15 119 28 -8
3 -59 1 -113 -4 -67 -6 -104 -6 -112 1 -7 6 -13 7 -13 2 0 -16 -46 37 -75 85
-43 72 -65 68 -25 -4 l21 -37 -23 8 c-13 4 -34 14 -47 22 -21 14 -21 17 -7 27
16 12 22 35 9 34 -5 0 -19 -11 -32 -24z m13 -121 c25 -4 46 -10 46 -14 0 -7
-122 -31 -128 -25 -2 2 -1 13 3 24 7 23 11 24 79 15z m60 -96 c-15 -27 -47
-57 -55 -52 -16 10 -9 22 24 43 38 24 40 25 31 9z"/>
<path d="M459 359 c-84 -67 -86 -69 -68 -69 18 0 149 97 149 111 0 18 -17 9
-81 -42z"/>
<path d="M392 228 c7 -19 140 -118 151 -111 10 6 -13 27 -105 96 -40 30 -52
33 -46 15z"/>
</g>
</svg>
