<?xml version="1.0" standalone="no"?>
<!DOCTYPE svg PUBLIC "-//W3C//DTD SVG 20010904//EN"
 "http://www.w3.org/TR/2001/REC-SVG-20010904/DTD/svg10.dtd">
<svg version="1.0" xmlns="http://www.w3.org/2000/svg"
 width="151.000000pt" height="310.000000pt" viewBox="0 0 151.000000 310.000000"
 preserveAspectRatio="xMidYMid meet">
<metadata>
Created by potrace 1.16, written by Peter Selinger 2001-2019
</metadata>
<g transform="translate(0.000000,310.000000) scale(0.100000,-0.100000)"
fill="#000000" stroke="none">
<path d="M1029 3054 c-10 -13 -10 -17 2 -26 11 -8 10 -9 -4 -4 -13 4 -41 -12
-93 -55 -41 -33 -74 -63 -74 -65 0 -3 4 -3 9 1 11 6 17 -24 26 -129 3 -38 8
-73 11 -77 2 -4 23 -1 46 7 22 7 44 14 49 14 9 0 23 -98 17 -124 -4 -24 -119
76 -171 149 -21 30 -43 52 -49 49 -6 -4 -8 7 -6 27 3 32 2 34 -27 31 -16 -2
-32 -6 -34 -8 -2 -2 3 -36 12 -76 9 -40 18 -110 19 -156 2 -45 7 -81 12 -80 5
2 8 45 7 96 -1 50 1 92 4 92 8 0 80 -49 168 -114 l67 -50 0 -58 c0 -33 4 -57
9 -54 5 4 9 61 9 129 -1 90 3 132 15 159 9 22 12 40 6 43 -12 8 -11 42 2 103
10 48 12 50 61 66 28 9 70 16 94 16 24 0 44 4 44 9 0 11 -184 21 -188 10 -2
-5 -15 -9 -28 -9 -20 0 -24 -5 -24 -30 l0 -30 -60 0 c-33 0 -60 3 -60 8 0 10
56 45 113 70 41 18 47 25 47 51 0 34 -11 39 -31 15z m31 -114 c0 -5 -4 -10
-10 -10 -5 0 -10 5 -10 10 0 6 5 10 10 10 6 0 10 -4 10 -10z m-30 -102 l0 -43
-62 3 -62 4 33 14 c18 8 42 14 52 14 38 0 18 18 -28 25 -56 8 -40 25 25 25
l42 0 0 -42z m-260 -35 c0 -29 -2 -29 -19 5 -10 18 -9 22 4 22 10 0 15 -9 15
-27z m230 -43 c0 -16 -7 -20 -34 -20 -44 0 -56 17 -19 26 15 3 33 7 38 9 6 2
11 4 13 4 1 1 2 -8 2 -19z m-169 -26 l24 -26 -27 13 c-16 7 -28 18 -28 26 0
18 3 17 31 -13z"/>
<path d="M355 3050 c-3 -5 -4 -18 0 -29 4 -14 -12 -32 -72 -78 -43 -33 -104
-77 -135 -98 -32 -21 -58 -42 -58 -47 0 -5 -13 -7 -30 -3 -23 5 -30 3 -30 -9
0 -9 4 -16 9 -16 20 0 43 -94 48 -200 3 -62 10 -110 16 -110 6 0 8 44 5 118
-4 106 -3 121 14 142 l19 24 27 -27 26 -27 -32 9 c-42 12 -42 -3 1 -19 17 -8
51 -26 75 -42 24 -15 46 -28 49 -28 3 0 27 -16 54 -36 42 -31 49 -41 49 -70 0
-19 5 -34 11 -34 9 0 10 23 6 80 l-5 80 28 0 c15 0 59 -16 96 -35 74 -37 84
-40 84 -25 0 5 -20 19 -44 30 -50 24 -108 80 -88 87 28 11 9 22 -33 19 -38 -3
-45 -1 -45 15 0 16 8 19 43 19 23 0 49 5 57 10 11 7 -2 10 -42 10 -43 0 -58 4
-58 14 0 17 22 26 61 26 16 0 29 5 29 11 0 6 -17 9 -42 7 -34 -2 -43 1 -46 15
-6 29 69 22 138 -13 65 -33 70 -34 70 -21 0 4 -26 24 -57 44 -32 19 -69 47
-82 61 -29 31 -41 33 -41 7 0 -10 -7 -25 -16 -32 -15 -12 -15 -7 -8 56 13 116
12 120 -18 123 -14 2 -29 -2 -33 -8z m32 -62 c-2 -13 -4 -5 -4 17 -1 22 1 32
4 23 2 -10 2 -28 0 -40z m-8 -113 c-3 -2 -34 -8 -69 -12 -38 -5 -63 -12 -60
-18 3 -5 7 -9 10 -9 3 1 31 4 63 8 53 6 57 5 57 -14 0 -18 -7 -20 -71 -20 -50
0 -70 -3 -67 -12 3 -8 27 -11 72 -9 61 2 67 1 64 -16 -2 -14 -15 -19 -66 -23
-84 -7 -81 -26 3 -21 54 2 65 0 65 -13 0 -13 -12 -16 -60 -16 -33 0 -60 -4
-60 -10 0 -6 27 -10 60 -10 33 0 60 -3 61 -7 4 -35 6 -103 3 -103 -19 0 -190
137 -215 172 l-21 29 25 33 c32 41 99 105 152 145 l40 30 9 -50 c5 -27 7 -51
5 -54z m-199 -28 c0 -11 -48 -65 -54 -60 -3 4 6 19 21 35 25 26 33 32 33 25z
m-66 -85 c2 -4 -2 -15 -9 -25 -13 -18 -14 -18 -24 2 -6 11 -11 22 -11 25 0 9
38 7 44 -2z m341 -102 c3 -5 -1 -10 -9 -10 -9 0 -16 5 -16 10 0 6 4 10 9 10 6
0 13 -4 16 -10z"/>
<path d="M816 2885 c-11 -8 -17 -17 -14 -21 7 -6 48 17 48 28 0 12 -13 9 -34
-7z"/>
<path d="M1238 2714 c-4 -3 -46 -9 -95 -12 -83 -7 -88 -8 -91 -31 -4 -26 -8
-26 98 2 30 8 72 18 93 21 20 4 37 11 37 16 0 11 -33 14 -42 4z"/>
<path d="M500 2700 c0 -5 7 -10 15 -10 8 0 15 5 15 10 0 6 -7 10 -15 10 -8 0
-15 -4 -15 -10z"/>
<path d="M1296 2602 c-9 -16 6 -73 18 -69 15 5 14 69 -1 74 -6 2 -14 0 -17 -5z"/>
<path d="M666 2563 c4 -21 9 -40 11 -43 8 -9 23 25 23 53 0 21 -5 27 -20 27
-19 0 -20 -4 -14 -37z"/>
<path d="M1015 2309 c-27 -28 -88 -75 -135 -106 -47 -31 -89 -62 -93 -70 -4
-7 -20 -24 -35 -38 l-26 -24 34 -15 c22 -10 28 -15 16 -16 -15 0 -17 -5 -11
-27 4 -16 9 -99 12 -185 3 -87 9 -158 13 -158 4 0 10 71 12 158 3 86 8 165 13
175 7 16 11 15 36 -15 42 -49 35 -16 -11 51 -22 32 -40 65 -40 72 0 8 27 31
60 52 55 34 62 36 76 22 9 -8 21 -15 27 -15 7 0 29 -14 50 -31 51 -42 48 -14
-3 34 -22 20 -40 40 -40 45 0 12 68 48 76 40 9 -10 18 -178 9 -178 -18 0 -87
46 -101 68 -12 19 -18 21 -30 11 -8 -6 -14 -23 -13 -38 0 -14 -2 -36 -6 -48
-6 -18 -2 -25 16 -32 13 -5 49 -26 79 -45 65 -43 70 -60 62 -198 l-5 -89 -78
121 c-43 66 -83 120 -89 120 -7 0 -7 -7 1 -22 24 -46 173 -258 181 -258 4 0 8
33 8 73 0 39 3 95 6 123 l6 51 37 -18 c20 -9 49 -31 65 -48 17 -17 33 -31 38
-31 18 0 6 21 -37 64 -24 25 -47 57 -51 71 -8 32 -20 32 -39 -2 l-16 -28 6 45
c3 25 6 54 8 65 1 12 -3 19 -12 17 -10 -2 -12 15 -8 85 3 48 8 100 12 116 6
22 4 27 -11 27 -14 0 -15 3 -6 12 16 16 16 68 0 68 -7 0 -35 -23 -63 -51z m55
5 c0 -9 -32 -33 -44 -34 -5 0 -1 9 9 20 18 20 35 26 35 14z m-48 -241 c28 -12
35 -20 29 -31 -5 -8 -6 -23 -3 -34 4 -16 -3 -14 -42 12 -43 29 -76 65 -76 82
0 8 27 -1 92 -29z m-228 1 c4 -10 1 -14 -6 -12 -15 5 -23 28 -10 28 5 0 13 -7
16 -16z m283 -76 c-3 -7 -5 -2 -5 12 0 14 2 19 5 13 2 -7 2 -19 0 -25z m-277
13 c0 -6 -4 -13 -10 -16 -5 -3 -10 1 -10 9 0 9 5 16 10 16 6 0 10 -4 10 -9z"/>
<path d="M1127 2328 c-2 -13 -8 -31 -12 -40 -5 -13 -1 -20 18 -27 13 -5 49
-26 80 -45 60 -39 67 -41 67 -26 0 5 -19 22 -43 39 -25 17 -54 49 -68 75 -27
52 -35 56 -42 24z m28 -38 c3 -5 1 -10 -4 -10 -6 0 -11 5 -11 10 0 6 2 10 4
10 3 0 8 -4 11 -10z"/>
<path d="M412 2269 c-16 -6 -22 -15 -18 -26 20 -68 20 -68 -31 -91 -26 -12
-84 -35 -128 -51 -69 -25 -80 -32 -77 -51 2 -19 -2 -21 -35 -19 -33 3 -38 1
-35 -16 1 -11 7 -49 12 -85 5 -36 9 -89 10 -117 0 -94 19 -56 22 45 l3 97 33
-3 c39 -3 138 -43 193 -78 44 -28 49 -29 49 -11 -1 6 -39 35 -86 62 -47 28
-93 58 -101 68 -15 16 -14 20 18 53 41 42 89 69 89 50 0 -7 -6 -26 -14 -42 -8
-16 -17 -45 -21 -65 -6 -35 -5 -36 25 -43 18 -3 47 -6 65 -6 l33 0 7 -100 c8
-115 27 -137 24 -27 l-2 72 106 -2 c131 -2 146 14 32 32 -70 12 -77 15 -64 31
9 12 5 14 -25 14 -25 0 -36 4 -36 15 0 15 10 19 43 16 9 -1 17 3 17 8 0 6 -11
11 -25 11 -14 0 -25 5 -25 10 0 6 14 10 30 10 46 0 36 17 -15 24 -53 8 -59 23
-12 29 l32 3 -32 8 c-24 6 -33 14 -33 29 0 19 4 19 77 13 42 -4 89 -10 105
-13 15 -3 28 -1 28 4 0 5 -36 20 -79 32 -107 31 -123 43 -115 87 7 37 -1 41
-44 23z m21 -39 c-3 -11 -7 -20 -9 -20 -2 0 -4 9 -4 20 0 11 4 20 9 20 5 0 7
-9 4 -20z m47 -60 c12 -8 9 -10 -12 -10 -16 0 -28 5 -28 10 0 13 20 13 40 0z
m-60 -40 c0 -21 -33 -28 -59 -11 -10 6 -6 11 15 19 41 15 44 14 44 -8z m-10
-50 c8 -5 12 -11 9 -14 -9 -9 -79 6 -73 15 7 12 45 11 64 -1z m-180 -16 c-8
-8 -22 -20 -32 -25 -14 -7 -18 -6 -18 6 0 9 10 20 23 25 33 13 41 12 27 -6z
m170 -32 c0 -5 -13 -7 -30 -4 -16 2 -30 6 -30 8 0 2 14 4 30 4 17 0 30 -4 30
-8z m50 -6 c0 -3 -4 -8 -10 -11 -5 -3 -10 -1 -10 4 0 6 5 11 10 11 6 0 10 -2
10 -4z m-310 -23 c0 -5 -4 -14 -9 -21 -7 -11 -9 -11 -14 1 -3 8 -3 18 0 21 9
8 23 7 23 -1z m64 -18 c16 -12 17 -15 4 -15 -24 0 -48 11 -48 21 0 13 23 10
44 -6z m214 -4 c4 -11 -5 -12 -44 -7 -71 11 -82 28 -15 24 35 -2 56 -8 59 -17z
m47 -61 c3 -5 1 -10 -4 -10 -6 0 -11 5 -11 10 0 6 2 10 4 10 3 0 8 -4 11 -10z"/>
<path d="M900 2001 c0 -25 6 -31 48 -46 26 -10 54 -24 64 -32 10 -9 18 -11 22
-4 6 9 -110 111 -126 111 -5 0 -8 -13 -8 -29z"/>
<path d="M672 1801 c-7 -4 -9 -20 -5 -44 4 -30 8 -35 19 -26 15 12 19 65 6 73
-4 2 -13 1 -20 -3z"/>
<path d="M1306 1801 c-9 -15 6 -72 18 -68 12 4 25 46 18 65 -5 14 -28 16 -36
3z"/>
<path d="M411 1449 c-13 -5 -49 -32 -80 -61 -31 -28 -83 -71 -116 -96 -92 -67
-98 -75 -86 -119 5 -21 11 -85 12 -143 2 -114 6 -133 21 -124 7 4 8 40 3 99
-7 96 8 211 26 200 5 -4 5 -14 -1 -25 -16 -30 -12 -37 36 -65 25 -14 83 -61
129 -103 81 -73 85 -79 85 -119 0 -24 5 -43 10 -43 6 0 10 25 10 56 l0 57 73
-6 c39 -4 90 -9 112 -13 74 -12 23 16 -67 37 -84 20 -129 41 -116 54 3 4 34
-1 67 -11 34 -9 64 -14 67 -11 3 2 -27 17 -65 32 -52 21 -71 33 -71 47 0 22
-6 22 60 -2 58 -21 80 -25 80 -12 0 4 -29 18 -65 30 -38 14 -65 30 -65 38 0
19 9 18 74 -11 31 -14 62 -25 69 -25 20 1 -34 37 -75 51 -21 7 -43 18 -49 26
-6 7 -20 13 -30 13 -14 0 -19 7 -19 25 l0 25 53 -21 c28 -11 72 -29 96 -40 29
-13 48 -16 54 -10 7 7 4 13 -9 17 -10 3 -37 14 -59 24 -22 9 -57 23 -78 29
-38 13 -58 36 -50 58 3 9 14 8 41 -6 35 -18 161 -71 169 -71 2 0 3 5 3 10 0 6
-12 15 -27 21 -16 5 -63 26 -106 46 -72 34 -77 38 -75 66 l2 30 89 -7 c48 -4
99 -11 112 -16 27 -10 38 -1 24 20 -5 8 -9 12 -9 8 0 -8 -137 28 -163 43 -11
6 -20 9 -21 7 -1 -2 -7 -14 -13 -28 l-12 -25 0 28 c-1 29 -11 32 -50 16z m29
-35 c0 -8 -4 -12 -10 -9 -5 3 -10 10 -10 16 0 5 5 9 10 9 6 0 10 -7 10 -16z
m-31 -29 c2 -13 -1 -16 -13 -12 -10 4 -19 -1 -25 -12 -12 -22 -3 -35 14 -21 8
7 16 2 25 -15 16 -31 6 -44 -21 -27 -24 15 -39 8 -39 -19 0 -15 7 -19 35 -19
28 0 35 -4 35 -20 0 -23 -17 -25 -44 -5 -23 17 -36 11 -36 -17 0 -16 5 -19 24
-14 15 4 28 0 36 -9 18 -22 5 -30 -25 -17 -36 16 -45 15 -45 -7 0 -14 12 -22
44 -30 31 -7 47 -18 51 -32 10 -31 0 -34 -41 -10 -29 18 -39 19 -46 9 -16 -26
-3 -42 41 -50 55 -9 63 -17 59 -57 l-3 -32 -85 79 c-47 44 -96 100 -109 125
-23 42 -24 48 -10 74 18 36 150 164 164 160 5 -2 12 -12 14 -22z m-201 -135
c-12 -19 -28 -27 -28 -14 0 6 30 33 38 34 1 0 -3 -9 -10 -20z m-48 -56 c0 -8
-4 -12 -10 -9 -5 3 -10 10 -10 16 0 5 5 9 10 9 6 0 10 -7 10 -16z m290 -30 c0
-8 -4 -12 -10 -9 -5 3 -10 10 -10 16 0 5 5 9 10 9 6 0 10 -7 10 -16z m-220
-14 c10 -19 10 -20 -9 -8 -22 13 -28 28 -11 28 5 0 14 -9 20 -20z"/>
<path d="M1124 1411 c3 -14 9 -58 12 -97 6 -69 6 -71 -17 -77 -13 -4 -41 -7
-61 -7 -21 0 -38 -5 -38 -11 0 -7 21 -10 59 -7 34 2 61 -1 63 -7 2 -6 -24 -11
-59 -13 -84 -4 -81 -22 3 -22 44 0 63 -4 59 -11 -4 -6 -31 -9 -61 -8 -30 2
-54 -2 -54 -7 0 -5 26 -9 57 -9 36 0 58 -5 61 -13 2 -7 -7 -12 -25 -13 -15 0
-48 -1 -71 -3 -30 -2 -51 3 -67 16 -13 10 -28 18 -34 18 -7 0 -14 7 -17 15 -4
10 -14 14 -28 10 -14 -4 -17 -3 -8 3 7 5 10 15 7 23 -4 11 13 24 57 46 35 17
75 34 91 38 15 4 30 11 33 16 3 5 14 9 25 9 14 0 19 7 19 25 0 14 -4 25 -10
25 -12 0 -78 -37 -107 -60 -13 -10 -63 -37 -112 -60 l-89 -42 -16 -82 c-9 -44
-19 -93 -22 -108 -13 -56 14 -26 31 35 23 82 42 117 63 117 21 0 147 -68 207
-112 24 -18 44 -40 45 -49 0 -10 -13 -50 -30 -90 -32 -80 -35 -89 -21 -89 4 0
23 34 41 76 18 41 46 96 62 121 27 42 28 47 13 63 -20 23 -11 29 55 37 27 3
50 9 50 14 0 4 -17 5 -37 2 -59 -10 -76 -9 -80 5 -3 8 7 12 32 12 21 0 34 4
30 10 -3 6 -19 10 -36 10 -32 0 -40 16 -11 23 15 4 15 5 -2 6 -18 1 -19 7 -12
99 3 53 9 108 12 122 5 23 2 25 -31 26 -34 1 -36 -1 -31 -25z m33 -48 c-3 -10
-5 -2 -5 17 0 19 2 27 5 18 2 -10 2 -26 0 -35z m-12 -300 c-9 -38 -9 -38 -50
-13 -42 26 -33 40 24 40 31 0 33 -2 26 -27z m23 -33 c-15 -24 -19 -21 -11 8 3
12 9 19 14 16 5 -3 3 -14 -3 -24z"/>
<path d="M1199 1294 c-24 -25 -24 -26 -5 -40 23 -16 46 -18 46 -4 0 6 -7 10
-15 10 -16 0 -20 16 -6 24 11 7 45 -30 38 -42 -7 -10 103 -75 112 -66 3 3 -5
14 -19 23 -44 29 -99 82 -105 102 -8 25 -17 24 -46 -7z"/>
<path d="M1199 1014 c-20 -21 -21 -27 -9 -34 19 -12 40 -13 40 -1 0 5 -6 11
-12 14 -7 2 -10 8 -6 12 9 9 38 -13 35 -26 -1 -5 31 -28 71 -50 78 -44 98 -39
30 7 -58 39 -65 45 -97 76 l-28 28 -24 -26z"/>
<path d="M704 859 c3 -17 6 -35 6 -40 0 -19 21 -8 30 16 12 32 3 55 -22 55
-18 0 -20 -5 -14 -31z"/>
<path d="M1407 833 c-7 -13 5 -73 14 -73 14 0 32 47 26 64 -7 16 -32 22 -40 9z"/>
<path d="M490 641 c0 -11 -5 -23 -10 -26 -6 -4 -8 -10 -5 -15 3 -5 2 -18 -4
-28 -11 -21 -4 -36 22 -45 10 -4 17 -17 17 -32 0 -22 -3 -24 -19 -15 -11 5
-23 15 -26 20 -7 11 -25 4 -25 -9 0 -4 16 -15 35 -24 19 -9 35 -24 35 -33 0
-14 -5 -13 -35 5 -28 16 -35 17 -35 6 0 -9 16 -23 35 -32 33 -16 43 -32 28
-46 -3 -4 -21 3 -40 14 -24 15 -33 17 -33 7 0 -7 17 -22 37 -33 21 -11 39 -28
41 -38 3 -16 1 -16 -30 3 -37 22 -48 25 -48 10 0 -5 17 -18 39 -29 21 -11 41
-27 44 -36 9 -22 1 -19 -44 17 -21 17 -41 29 -43 27 -2 -2 -7 -18 -11 -36 -6
-29 -4 -33 22 -39 15 -4 40 -13 55 -21 24 -12 27 -18 26 -58 l-2 -44 -56 46
c-30 25 -90 82 -132 127 -72 76 -78 80 -94 64 -15 -14 -15 -19 -4 -33 8 -9 27
-23 44 -32 17 -9 51 -35 76 -58 25 -24 73 -66 108 -94 34 -29 60 -56 57 -62
-4 -5 -3 -15 2 -21 10 -16 20 29 22 95 l1 47 67 -45 c64 -43 93 -54 93 -37 0
4 -36 31 -80 60 -56 37 -80 58 -80 72 0 20 3 19 58 -10 60 -31 72 -35 72 -22
0 4 -25 21 -56 37 -53 28 -74 49 -61 61 3 3 15 0 27 -6 11 -6 26 -9 33 -7 7 3
-3 10 -20 17 -24 9 -33 18 -33 35 0 12 -7 35 -15 51 -8 15 -12 30 -10 32 6 6
117 -40 138 -57 15 -12 17 -12 17 0 0 8 -33 30 -75 49 -59 28 -74 40 -75 57 0
12 4 24 8 27 4 3 47 -15 95 -39 48 -24 89 -40 92 -35 4 7 -57 50 -71 50 -3 0
-30 19 -60 43 l-55 42 6 48 6 47 -36 0 c-28 0 -35 -4 -35 -19z m42 -28 c-5
-24 -6 -25 -12 -8 -8 21 -4 35 9 35 5 0 6 -12 3 -27z m-22 -53 c0 -5 -4 -10
-10 -10 -5 0 -10 5 -10 10 0 6 5 10 10 10 6 0 10 -4 10 -10z m45 -20 c3 -5 1
-10 -4 -10 -6 0 -11 5 -11 10 0 6 2 10 4 10 3 0 8 -4 11 -10z m-276 -244 c-3
-3 -11 5 -18 17 -13 21 -12 21 5 5 10 -10 16 -20 13 -22z m197 -47 c19 -21 19
-21 -9 -8 -15 7 -27 16 -27 21 0 14 16 9 36 -13z"/>
<path d="M370 534 c-36 -30 -86 -66 -112 -80 -37 -19 -48 -30 -48 -48 0 -18
-6 -25 -22 -28 -19 -2 -23 -9 -21 -33 1 -16 2 -92 3 -167 0 -76 4 -138 9 -138
5 0 12 55 16 123 10 179 12 184 116 288 49 48 100 96 114 105 24 16 34 34 18
34 -5 0 -37 -25 -73 -56z m-170 -183 c0 -6 -4 -13 -10 -16 -5 -3 -10 1 -10 9
0 9 5 16 10 16 6 0 10 -4 10 -9z"/>
<path d="M570 370 c0 -5 5 -10 10 -10 6 0 10 5 10 10 0 6 -4 10 -10 10 -5 0
-10 -4 -10 -10z"/>
<path d="M776 121 c-10 -16 5 -42 23 -39 21 4 21 42 -1 46 -9 2 -19 -1 -22 -7z"/>
<path d="M1128 3 c6 -2 18 -2 25 0 6 3 1 5 -13 5 -14 0 -19 -2 -12 -5z"/>
<path d="M1278 3 c46 -2 118 -2 160 0 42 1 5 3 -83 3 -88 0 -123 -2 -77 -3z"/>
</g>
</svg>
