<?xml version="1.0" standalone="no"?>
<!DOCTYPE svg PUBLIC "-//W3C//DTD SVG 20010904//EN"
 "http://www.w3.org/TR/2001/REC-SVG-20010904/DTD/svg10.dtd">
<svg version="1.0" xmlns="http://www.w3.org/2000/svg"
 width="147.000000pt" height="322.000000pt" viewBox="0 0 147.000000 322.000000"
 preserveAspectRatio="xMidYMid meet">
<metadata>
Created by potrace 1.16, written by Peter Selinger 2001-2019
</metadata>
<g transform="translate(0.000000,322.000000) scale(0.100000,-0.100000)"
fill="#000000" stroke="none">
<path d="M914 3113 c6 -30 22 -264 29 -433 3 -71 9 -106 17 -108 10 -4 12 22
7 111 l-5 117 22 -12 c11 -6 46 -29 77 -50 46 -32 56 -43 51 -60 -3 -15 -1
-19 7 -14 6 4 9 12 6 17 -9 13 9 11 23 -3 6 -6 15 -9 19 -5 3 4 -27 38 -68 76
-41 37 -80 80 -88 95 -8 14 -20 26 -28 26 -9 0 -13 16 -13 55 0 30 4 55 9 55
19 0 87 -34 114 -56 16 -13 33 -24 38 -24 20 0 7 21 -46 74 -39 39 -55 62 -55
81 0 31 -23 30 -28 -1 -2 -10 -9 -23 -14 -29 -7 -7 -9 10 -5 53 l5 62 -40 0
c-39 0 -40 -1 -34 -27z m45 -55 c-1 -47 -3 -57 -9 -38 -12 36 -12 100 0 100 6
0 10 -27 9 -62z m71 -58 c0 -5 -7 -7 -15 -4 -8 4 -12 10 -9 15 6 11 24 2 24
-11z m-22 -188 c2 -7 -2 -10 -12 -6 -9 3 -16 11 -16 16 0 13 23 5 28 -10z"/>
<path d="M343 3070 c-13 -5 -23 -16 -23 -24 0 -9 -14 -23 -32 -32 -17 -9 -48
-28 -68 -43 -20 -14 -67 -39 -104 -56 l-67 -30 5 -55 c3 -30 10 -86 15 -125 6
-38 12 -90 13 -114 2 -24 9 -46 16 -49 9 -3 12 26 12 122 0 87 4 126 11 126
13 0 149 -139 149 -152 0 -4 7 -8 15 -8 12 0 14 -12 8 -75 -4 -50 -2 -75 5
-75 5 0 13 21 16 48 3 26 8 71 12 100 3 28 11 52 17 52 6 0 36 -28 67 -61 37
-40 60 -58 64 -50 4 7 -6 27 -23 47 -17 19 -43 57 -57 85 -21 42 -28 48 -40
39 -11 -10 -14 -9 -14 4 0 30 22 161 29 174 5 9 23 -4 60 -43 29 -30 54 -55
57 -55 12 0 1 30 -27 70 -17 25 -33 57 -36 73 -7 32 -18 35 -33 6 -18 -33 -20
-17 -5 41 19 71 11 81 -42 60z m20 -67 c-11 -69 -22 -82 -22 -27 -1 28 2 54 6
57 15 16 21 5 16 -30z m-45 -238 c-5 -55 -10 -106 -13 -113 -6 -17 -106 102
-141 168 -15 30 -23 55 -18 60 5 5 45 36 89 69 l80 60 6 -72 c3 -40 2 -117 -3
-172z m-214 106 c-10 -10 -21 -16 -24 -14 -3 3 4 11 14 19 28 20 33 17 10 -5z
m16 -21 c0 -5 -5 -10 -11 -10 -5 0 -7 5 -4 10 3 6 8 10 11 10 2 0 4 -4 4 -10z
m-33 -77 c-3 -10 -5 -4 -5 12 0 17 2 24 5 18 2 -7 2 -21 0 -30z"/>
<path d="M816 2983 c-47 -50 -85 -82 -93 -79 -8 3 -18 -4 -24 -17 -7 -16 -20
-24 -42 -25 -17 -2 -33 -4 -35 -7 -2 -2 3 -36 12 -77 8 -40 17 -106 18 -147 2
-49 8 -76 16 -79 10 -3 11 14 7 75 -4 43 -2 105 2 138 7 52 11 60 28 57 36 -6
124 -50 164 -82 22 -18 45 -30 52 -28 6 2 -26 35 -72 73 -85 71 -99 84 -99 98
0 4 39 32 86 63 80 51 85 57 79 82 -3 15 -9 30 -13 33 -4 3 -43 -32 -86 -78z
m74 22 c-7 -8 -17 -15 -23 -15 -5 0 -2 9 8 20 21 23 35 19 15 -5z m-142 -160
l24 -25 -31 11 c-17 6 -31 17 -31 25 0 20 12 17 38 -11z m-85 -25 c-3 -11 -7
-20 -9 -20 -2 0 -4 9 -4 20 0 11 4 20 9 20 5 0 7 -9 4 -20z"/>
<path d="M1227 2643 c-7 -13 5 -83 14 -83 13 0 29 36 29 64 0 19 -5 26 -19 26
-11 0 -22 -3 -24 -7z"/>
<path d="M524 2606 c-3 -9 -1 -22 5 -30 6 -7 9 -20 5 -29 -9 -24 14 -30 26 -7
16 30 9 74 -13 78 -9 2 -20 -4 -23 -12z"/>
<path d="M1080 2290 l0 -49 -95 -66 c-75 -52 -99 -64 -109 -56 -11 9 -18 8
-30 -4 -9 -9 -16 -20 -16 -25 0 -4 -13 -13 -30 -19 -35 -12 -35 -12 -15 -133
22 -134 25 -142 36 -131 6 6 6 27 -1 59 -11 48 -5 160 10 183 5 10 21 6 64
-13 31 -14 59 -26 62 -26 3 0 30 -12 59 -27 67 -32 72 -51 55 -182 -7 -51 -10
-94 -7 -97 15 -15 25 12 30 83 4 43 14 114 24 157 12 60 14 81 5 84 -22 7 -7
184 24 290 6 20 3 22 -30 22 l-36 0 0 -50z m39 8 c0 -7 -4 -22 -9 -33 -7 -17
-9 -15 -9 13 -1 17 4 32 9 32 6 0 10 -6 9 -12z m-39 -91 c0 -7 -15 -18 -32
-25 l-33 -12 30 25 c35 29 35 29 35 12z m10 -84 c-1 -27 -7 -69 -13 -96 l-13
-47 -57 40 c-32 22 -67 48 -78 59 -22 20 -25 18 92 70 65 29 69 27 69 -26z
m-170 -64 c26 -22 27 -22 -42 3 -28 10 -34 19 -22 31 8 7 29 -4 64 -34z m-123
-46 c-3 -10 -5 -4 -5 12 0 17 2 24 5 18 2 -7 2 -21 0 -30z m312 -10 c0 -5 -4
-17 -9 -28 -8 -18 -9 -17 -9 8 -1 15 4 27 9 27 6 0 10 -3 9 -7z"/>
<path d="M1152 2240 c-15 -24 -16 -60 -2 -60 6 0 31 -21 55 -47 52 -53 59 -42
15 22 -17 24 -33 58 -36 75 -8 35 -15 37 -32 10z"/>
<path d="M395 2230 c-3 -5 -18 -10 -32 -10 -20 0 -24 -4 -20 -20 4 -15 -5 -27
-40 -50 -63 -43 -119 -70 -143 -70 -17 0 -20 -6 -20 -41 0 -29 3 -38 13 -33 8
5 7 2 -2 -9 -17 -21 -18 -20 49 -42 30 -9 87 -37 126 -61 40 -24 77 -44 83
-44 7 0 11 -26 11 -74 0 -79 6 -106 22 -106 7 0 9 33 4 100 l-7 100 38 -5 c21
-3 65 -12 98 -21 90 -25 105 -27 105 -18 0 5 -39 27 -85 49 -47 22 -85 43 -85
47 0 15 -22 8 -42 -14 l-19 -23 5 58 c3 43 1 57 -8 57 -18 0 -26 46 -26 151 0
81 -8 106 -25 79z m-8 -67 c-3 -10 -5 -4 -5 12 0 17 2 24 5 18 2 -7 2 -21 0
-30z m-4 -68 c24 -80 26 -94 12 -105 -11 -9 -11 -19 2 -55 8 -25 13 -49 11
-54 -1 -5 -42 17 -89 48 -96 62 -131 90 -127 103 5 15 163 127 169 120 4 -4
13 -29 22 -57z m-203 -39 c0 -3 -4 -8 -10 -11 -5 -3 -10 -1 -10 4 0 6 5 11 10
11 6 0 10 -2 10 -4z m15 -66 c3 -5 1 -10 -4 -10 -6 0 -11 5 -11 10 0 6 2 10 4
10 3 0 8 -4 11 -10z m234 -47 c-1 -34 -2 -35 -9 -13 -11 36 -11 50 0 50 6 0
10 -17 9 -37z m86 -53 c3 -5 2 -10 -4 -10 -5 0 -13 5 -16 10 -3 6 -2 10 4 10
5 0 13 -4 16 -10z"/>
<path d="M450 2121 c-22 -42 -14 -48 58 -48 37 1 84 -2 105 -6 29 -6 37 -5 37
6 0 10 -17 17 -51 21 -29 4 -69 16 -90 27 -47 23 -46 23 -59 0z"/>
<path d="M1143 2075 c-7 -22 -1 -33 44 -81 58 -61 91 -66 45 -6 -15 20 -35 54
-45 75 -20 43 -32 47 -44 12z"/>
<path d="M81 2061 c-12 -8 -11 -15 3 -50 9 -23 23 -83 32 -134 17 -99 18 -102
32 -93 5 3 4 33 -4 73 -7 37 -13 98 -14 134 0 52 -4 68 -16 73 -19 7 -16 8
-33 -3z"/>
<path d="M1262 1797 c-7 -8 -7 -18 -2 -27 5 -8 7 -23 4 -32 -3 -12 0 -18 10
-18 27 0 36 78 10 87 -6 2 -16 -2 -22 -10z"/>
<path d="M644 1733 c5 -47 21 -53 35 -12 12 36 8 49 -19 49 -16 0 -18 -6 -16
-37z"/>
<path d="M1164 1488 c4 -13 10 -73 13 -134 5 -104 4 -116 -21 -182 -15 -39
-40 -88 -56 -110 -48 -67 -72 -122 -52 -122 7 0 33 39 60 93 8 15 18 27 21 27
4 0 29 -14 55 -30 32 -21 46 -36 42 -45 -3 -10 1 -15 13 -15 10 0 24 -7 31
-15 7 -8 16 -12 21 -9 8 4 -24 48 -111 151 -18 22 -18 23 12 55 25 26 28 36
19 50 -6 10 -11 53 -11 95 l1 78 37 -40 c20 -22 44 -51 53 -65 31 -47 31 -11
0 51 -17 34 -31 70 -31 80 0 24 -19 34 -26 15 -3 -9 -11 -16 -16 -16 -10 0 -7
38 8 88 6 20 3 22 -31 22 -34 0 -37 -2 -31 -22z m33 -20 c-3 -8 -6 -5 -6 6 -1
11 2 17 5 13 3 -3 4 -12 1 -19z m47 -94 c3 -8 2 -12 -4 -9 -6 3 -10 10 -10 16
0 14 7 11 14 -7z"/>
<path d="M393 1457 c-28 -9 -31 -14 -27 -41 5 -29 0 -34 -63 -76 -37 -24 -88
-55 -113 -68 -61 -33 -62 -34 -40 -62 l19 -25 34 35 c58 60 116 110 125 110 5
0 17 9 27 20 37 41 53 21 75 -92 12 -59 11 -77 -2 -140 -20 -90 -37 -135 -46
-123 -4 6 -40 39 -80 74 -40 35 -80 76 -89 92 -22 36 -29 36 -47 1 -17 -33
-11 -47 26 -55 15 -4 62 -35 105 -69 43 -33 79 -62 81 -64 2 -1 -8 -26 -22
-55 -14 -29 -22 -57 -20 -61 9 -15 32 11 45 50 6 20 20 53 30 73 l18 37 68
-23 c37 -13 82 -30 98 -39 33 -18 55 -21 55 -8 0 5 -19 17 -42 28 -24 10 -62
39 -86 64 l-42 45 -20 -25 c-29 -37 -24 -16 12 52 l31 59 -21 15 c-12 8 -22
21 -22 29 0 18 50 10 144 -22 65 -21 92 -23 70 -4 -5 4 -31 16 -59 26 -27 9
-67 31 -89 48 l-39 30 -17 -23 -17 -23 -6 39 c-4 22 -7 72 -7 112 0 39 -3 71
-7 71 -5 -1 -22 -6 -40 -12z m26 -69 c1 -5 -3 -8 -8 -8 -11 0 -21 37 -13 45 6
5 20 -19 21 -37z m48 -240 c-3 -8 -6 -5 -6 6 -1 11 2 17 5 13 3 -3 4 -12 1
-19z m-272 -8 c3 -5 1 -10 -4 -10 -6 0 -11 5 -11 10 0 6 2 10 4 10 3 0 8 -4
11 -10z m300 -110 c3 -5 2 -10 -4 -10 -5 0 -13 5 -16 10 -3 6 -2 10 4 10 5 0
13 -4 16 -10z"/>
<path d="M1070 1379 c-36 -28 -92 -70 -125 -92 -33 -23 -68 -51 -78 -64 -10
-12 -26 -22 -35 -21 -53 4 -55 2 -48 -64 4 -35 7 -91 7 -126 1 -42 5 -62 12
-59 7 2 11 26 9 63 -1 32 3 83 9 112 10 50 12 52 37 46 32 -8 118 -53 178 -95
29 -20 44 -25 44 -16 0 7 -21 29 -47 47 -60 41 -123 101 -123 115 0 18 143
104 223 134 21 8 27 17 27 41 0 17 -5 30 -12 30 -7 0 -42 -23 -78 -51z m70 11
c0 -5 -5 -10 -11 -10 -5 0 -7 5 -4 10 3 6 8 10 11 10 2 0 4 -4 4 -10z m-234
-207 c-7 -7 -26 7 -26 19 0 6 6 6 15 -2 9 -7 13 -15 11 -17z"/>
<path d="M107 1199 c-15 -9 -18 -18 -12 -48 4 -20 13 -78 19 -129 16 -137 31
-116 29 41 -2 72 -3 135 -3 140 0 10 -11 8 -33 -4z"/>
<path d="M684 970 c3 -18 6 -36 6 -41 0 -5 11 -9 25 -9 14 0 25 5 25 10 0 6
-4 10 -8 10 -4 0 -8 12 -7 28 0 21 -5 28 -24 30 -22 3 -23 1 -17 -28z"/>
<path d="M1313 925 c1 -41 22 -47 31 -10 7 29 1 45 -19 45 -8 0 -13 -12 -12
-35z"/>
<path d="M418 783 c-10 -2 -18 -8 -19 -11 -4 -37 -19 -58 -91 -127 -133 -128
-147 -138 -164 -125 -17 15 -19 10 -32 -80 -6 -36 -18 -91 -27 -124 -11 -41
-13 -62 -6 -69 16 -16 21 -6 36 65 22 105 64 187 121 234 52 42 151 114 158
114 6 0 15 -109 20 -253 2 -70 0 -127 -5 -125 -17 6 -111 124 -141 178 -17 30
-33 57 -35 59 -4 6 -43 -30 -43 -41 0 -5 48 -57 106 -116 59 -59 110 -117 115
-129 17 -46 29 -23 29 56 l0 79 78 7 c42 4 112 7 155 6 60 -2 77 1 77 12 0 14
-111 27 -232 27 -80 0 -88 9 -88 93 l0 72 38 13 c20 7 92 17 160 24 92 9 122
15 122 25 0 12 -14 13 -72 7 -40 -4 -77 -7 -83 -8 -5 0 -36 3 -68 7 -42 6 -62
5 -73 -4 -14 -11 -15 -8 -8 27 12 55 11 107 -1 109 -5 2 -18 1 -27 -2z m21
-35 c-1 -7 -5 -24 -9 -38 -7 -22 -8 -21 -9 13 -1 20 4 37 9 37 6 0 10 -6 9
-12z m-39 -52 c0 -2 -7 -9 -15 -16 -13 -11 -14 -10 -9 4 5 14 24 23 24 12z
m-166 -222 c3 -8 2 -12 -4 -9 -6 3 -10 10 -10 16 0 14 7 11 14 -7z"/>
<path d="M822 273 c5 -25 28 -28 28 -4 0 12 -6 21 -16 21 -9 0 -14 -7 -12 -17z"/>
</g>
</svg>
