<?xml version="1.0" standalone="no"?>
<!DOCTYPE svg PUBLIC "-//W3C//DTD SVG 20010904//EN"
 "http://www.w3.org/TR/2001/REC-SVG-20010904/DTD/svg10.dtd">
<svg version="1.0" xmlns="http://www.w3.org/2000/svg"
 width="55.000000pt" height="55.000000pt" viewBox="0 0 55.000000 55.000000"
 preserveAspectRatio="xMidYMid meet">
<metadata>
Created by potrace 1.16, written by Peter Selinger 2001-2019
</metadata>
<g transform="translate(0.000000,55.000000) scale(0.100000,-0.100000)"
fill="#000000" stroke="none">
<path d="M289 498 c-12 -23 -31 -50 -43 -59 -11 -9 -34 -29 -51 -43 -16 -14
-55 -38 -85 -54 -30 -15 -57 -28 -60 -30 -2 -2 1 -12 8 -23 10 -16 11 -24 1
-35 -15 -19 -7 -25 61 -49 30 -10 72 -29 95 -42 48 -27 74 -31 55 -7 -18 21
-24 77 -8 72 7 -3 14 -17 16 -31 4 -31 22 -27 22 4 0 16 6 20 25 17 13 -2 25
-1 26 2 0 3 -2 31 -6 63 -4 32 -7 71 -7 85 0 36 -7 45 -24 31 -11 -9 -14 -7
-14 10 0 21 16 27 36 13 6 -4 14 -29 18 -57 13 -92 18 -115 26 -110 4 2 6 26
5 52 -1 27 0 33 2 13 7 -53 26 -65 21 -12 -2 23 0 42 4 42 5 0 8 -17 9 -37 0
-35 1 -36 11 -15 11 21 28 30 28 14 0 -4 -45 -55 -100 -112 -94 -98 -101 -107
-95 -137 9 -48 21 -48 45 0 25 50 89 137 143 196 20 22 37 43 37 46 0 3 -20
25 -44 48 -53 51 -116 142 -116 168 0 32 -18 21 -41 -23z m40 -36 c12 -22 11
-23 -8 -12 -22 11 -26 22 -14 33 7 8 7 9 22 -21z m-49 -41 c0 -12 -29 -41 -41
-41 -14 0 -11 11 8 32 17 19 33 24 33 9z m-60 -66 c0 -14 -4 -25 -9 -25 -12 0
-19 21 -13 38 8 21 22 13 22 -13z m97 -57 c-2 -13 -4 -5 -4 17 -1 22 1 32 4
23 2 -10 2 -28 0 -40z m-136 10 c1 -18 2 -48 4 -65 4 -51 -11 -39 -19 13 -8
65 -8 84 4 84 6 0 10 -15 11 -32z m119 -9 c0 -19 5 -29 15 -29 8 0 15 -6 15
-14 0 -9 -7 -12 -20 -9 -12 3 -20 14 -20 27 0 11 -3 32 -7 45 -4 17 -3 22 5
17 7 -4 12 -20 12 -37z m-30 -21 c0 -10 -4 -18 -9 -18 -11 0 -19 30 -13 49 4
11 6 11 13 0 5 -8 9 -22 9 -31z m-170 28 c0 -3 -4 -8 -10 -11 -5 -3 -10 -1
-10 4 0 6 5 11 10 11 6 0 10 -2 10 -4z m49 -54 c1 -13 -3 -20 -9 -17 -5 3 -10
23 -9 43 0 30 2 33 9 17 5 -11 9 -30 9 -43z m-42 -8 c-3 -3 -12 -4 -19 -1 -8
3 -5 6 6 6 11 1 17 -2 13 -5z m131 -42 c4 -23 -4 -27 -26 -14 -15 10 -5 45 12
39 6 -2 12 -13 14 -25z m66 -107 c-17 -26 -24 -31 -24 -16 0 10 28 41 36 41 2
0 -3 -11 -12 -25z"/>
</g>
</svg>
