<?xml version="1.0" standalone="no"?>
<!DOCTYPE svg PUBLIC "-//W3C//DTD SVG 20010904//EN"
 "http://www.w3.org/TR/2001/REC-SVG-20010904/DTD/svg10.dtd">
<svg version="1.0" xmlns="http://www.w3.org/2000/svg"
 width="118.000000pt" height="70.000000pt" viewBox="0 0 118.000000 70.000000"
 preserveAspectRatio="xMidYMid meet">
<metadata>
Created by potrace 1.16, written by Peter Selinger 2001-2019
</metadata>
<g transform="translate(0.000000,70.000000) scale(0.100000,-0.100000)"
fill="#000000" stroke="none">
<path d="M86 629 c-2 -8 -7 -31 -10 -52 -4 -34 -3 -37 14 -32 15 5 20 0 24
-27 12 -78 16 -130 18 -236 1 -98 4 -112 17 -107 39 15 196 35 431 55 140 12
273 26 295 31 22 4 53 9 70 9 l29 0 -21 -21 -21 -21 47 -47 c25 -26 60 -65 77
-86 l32 -40 6 50 c3 28 11 85 17 128 6 44 8 81 5 84 -3 3 -19 0 -36 -7 -23 -9
-37 -10 -53 -2 -12 6 -53 16 -92 22 -38 7 -90 18 -115 25 -25 7 -101 23 -170
35 -69 13 -159 31 -200 40 -41 10 -76 15 -78 10 -1 -4 -9 -16 -16 -26 -12 -16
-15 -11 -21 49 -4 37 -4 79 -1 95 13 53 12 57 -9 53 -11 -2 -59 -6 -106 -8
-80 -4 -89 -3 -108 18 -16 17 -21 19 -25 8z m34 -39 c0 -5 -5 -10 -11 -10 -5
0 -7 5 -4 10 3 6 8 10 11 10 2 0 4 -4 4 -10z m187 -88 l6 -57 -24 16 c-13 9
-35 37 -49 62 -14 26 -28 47 -33 47 -4 0 -12 -11 -19 -25 -8 -19 -8 -28 2 -40
10 -13 9 -23 -11 -60 l-24 -44 43 -36 c36 -31 40 -39 31 -56 -6 -11 -8 -25 -6
-32 2 -7 16 13 32 43 15 30 35 66 44 80 l16 24 7 -44 c3 -25 7 -69 7 -97 l1
-53 -77 0 c-43 0 -84 4 -90 8 -19 12 -23 303 -5 325 18 21 123 28 135 9 5 -7
11 -39 14 -70z m-83 12 c5 -14 4 -15 -9 -4 -17 14 -19 20 -6 20 5 0 12 -7 15
-16z m44 -66 c17 -17 15 -38 -7 -71 l-19 -29 -27 36 c-27 35 -27 37 -10 56 20
23 45 26 63 8z m162 -38 c12 -7 8 -10 -14 -10 -16 0 -27 -2 -25 -4 4 -3 50 -8
199 -22 36 -3 90 -12 120 -19 30 -7 87 -18 125 -25 198 -33 215 -46 62 -49
-51 -1 -99 -4 -108 -6 -16 -5 -433 -45 -435 -42 -1 1 -4 34 -6 74 -3 63 -1 72
14 77 10 2 18 8 17 13 -4 25 22 32 51 13z m635 -225 c7 -41 9 -75 6 -75 -7 0
-71 134 -71 148 0 4 5 13 12 20 21 21 41 -12 53 -93z m31 89 c-3 -9 -6 -25 -6
-37 0 -18 -2 -19 -10 -7 -16 24 -12 60 6 60 11 0 14 -5 10 -16z m-102 -50 c9
-24 7 -28 -9 -14 -17 14 -20 30 -6 30 5 0 12 -7 15 -16z m-814 -8 c0 -3 -4 -8
-10 -11 -5 -3 -10 -1 -10 4 0 6 5 11 10 11 6 0 10 -2 10 -4z"/>
</g>
</svg>
