<?xml version="1.0" standalone="no"?>
<!DOCTYPE svg PUBLIC "-//W3C//DTD SVG 20010904//EN"
 "http://www.w3.org/TR/2001/REC-SVG-20010904/DTD/svg10.dtd">
<svg version="1.0" xmlns="http://www.w3.org/2000/svg"
 width="59.000000pt" height="107.000000pt" viewBox="0 0 59.000000 107.000000"
 preserveAspectRatio="xMidYMid meet">
<metadata>
Created by potrace 1.16, written by Peter Selinger 2001-2019
</metadata>
<g transform="translate(0.000000,107.000000) scale(0.100000,-0.100000)"
fill="#000000" stroke="none">
<path d="M236 1015 c-4 -14 -11 -25 -16 -25 -16 0 -12 -27 5 -34 8 -3 15 -9
15 -14 0 -8 -116 -80 -152 -94 -21 -9 -23 -21 -6 -48 10 -16 9 -26 -6 -54 -23
-43 -15 -56 36 -56 39 0 84 -17 122 -45 16 -12 17 -18 8 -27 -19 -19 -14 -34
13 -46 23 -11 26 -9 54 51 16 34 50 89 75 121 l47 59 -30 26 c-44 38 -106 126
-121 171 -15 45 -35 52 -44 15z m34 -46 c0 -6 -4 -7 -10 -4 -5 3 -10 11 -10
16 0 6 5 7 10 4 6 -3 10 -11 10 -16z m63 -103 c31 -36 57 -68 57 -72 0 -6 -73
-96 -106 -131 -9 -10 -20 -7 -48 12 -20 14 -41 25 -45 25 -12 0 -71 68 -71 81
0 14 133 149 146 149 6 0 36 -29 67 -64z m-205 -36 c-12 -19 -28 -27 -28 -14
0 6 30 33 38 34 1 0 -3 -9 -10 -20z m-8 -95 c10 -13 9 -15 -8 -15 -15 0 -20 5
-16 15 4 8 7 15 9 15 1 0 8 -7 15 -15z m152 -137 c-7 -7 -12 -8 -12 -2 0 14
12 26 19 19 2 -3 -1 -11 -7 -17z"/>
<path d="M226 865 c-15 -23 -17 -32 -6 -48 11 -19 10 -19 -19 -14 -27 6 -33 3
-43 -18 -6 -14 -9 -27 -7 -29 2 -2 28 1 58 7 47 9 56 8 66 -6 16 -23 25 -21
25 3 0 16 7 20 36 20 24 0 34 4 31 13 -2 8 -21 11 -54 9 l-51 -3 -8 47 -9 48
-19 -29z"/>
<path d="M475 740 c-4 -6 -2 -17 5 -25 6 -7 10 -21 8 -31 -2 -9 2 -19 8 -21
14 -5 38 52 30 72 -6 17 -42 20 -51 5z"/>
<path d="M230 490 c0 -5 5 -10 10 -10 6 0 10 5 10 10 0 6 -4 10 -10 10 -5 0
-10 -4 -10 -10z"/>
<path d="M264 463 c-11 -16 -21 -37 -24 -48 -6 -21 -85 -78 -157 -115 -48 -24
-52 -34 -23 -50 27 -14 25 -32 -5 -60 -32 -30 -24 -40 29 -40 53 0 155 -49
191 -92 14 -17 27 -29 28 -27 2 2 20 31 41 64 21 33 61 81 89 107 l52 46 -78
79 c-48 49 -83 94 -93 120 -9 24 -20 43 -24 43 -4 0 -16 -12 -26 -27z m29 -37
c4 -10 1 -13 -9 -9 -7 3 -14 9 -14 14 0 14 17 10 23 -5z m96 -120 l55 -56 -25
-26 c-13 -14 -52 -47 -87 -71 l-63 -46 -35 19 c-54 29 -114 85 -114 105 0 11
32 53 72 94 l71 74 36 -19 c20 -10 61 -43 90 -74z m-277 -38 c-18 -19 -22 -20
-22 -6 0 9 8 21 17 27 27 15 29 3 5 -21z m3 -78 c3 -5 -1 -10 -9 -10 -9 0 -16
5 -16 10 0 6 4 10 9 10 6 0 13 -4 16 -10z m205 -84 c0 -3 -4 -8 -10 -11 -5 -3
-10 -1 -10 4 0 6 5 11 10 11 6 0 10 -2 10 -4z"/>
<path d="M267 339 c-14 -8 -16 -18 -11 -44 7 -38 -4 -49 -38 -36 -32 12 -49 1
-41 -28 5 -20 10 -22 44 -16 l39 7 0 -36 c0 -20 5 -36 10 -36 6 0 10 17 10 39
l0 38 56 6 c31 3 59 9 62 12 14 13 -21 21 -64 15 -55 -8 -62 2 -40 54 16 38 8
45 -27 25z"/>
<path d="M488 128 c-8 -21 2 -38 22 -38 19 0 34 25 24 41 -8 13 -41 11 -46 -3z"/>
</g>
</svg>
