<?xml version="1.0" standalone="no"?>
<!DOCTYPE svg PUBLIC "-//W3C//DTD SVG 20010904//EN"
 "http://www.w3.org/TR/2001/REC-SVG-20010904/DTD/svg10.dtd">
<svg version="1.0" xmlns="http://www.w3.org/2000/svg"
 width="151.000000pt" height="56.000000pt" viewBox="0 0 151.000000 56.000000"
 preserveAspectRatio="xMidYMid meet">
<metadata>
Created by potrace 1.16, written by Peter Selinger 2001-2019
</metadata>
<g transform="translate(0.000000,56.000000) scale(0.100000,-0.100000)"
fill="#000000" stroke="none">
<path d="M230 490 c-8 -5 -27 -10 -41 -10 -35 0 -42 -9 -24 -36 8 -12 16 -42
17 -65 l3 -43 -45 2 c-25 2 -57 5 -72 8 -27 5 -28 4 -28 -31 0 -34 2 -37 22
-31 13 3 46 9 75 12 l52 7 -6 -87 c-4 -56 -2 -86 4 -86 15 0 23 36 23 111 l0
66 83 6 c147 12 287 9 287 -6 0 -23 -31 -120 -53 -169 -20 -44 -37 -61 -37
-38 0 5 -15 42 -34 82 -18 40 -36 81 -39 91 -8 23 -30 22 -52 -3 -18 -20 -17
-21 21 -54 22 -19 53 -62 72 -100 18 -36 37 -66 41 -66 4 0 30 42 56 93 26 50
63 111 81 134 19 23 34 46 34 51 0 18 -78 22 -271 16 -212 -7 -193 -13 -173
56 3 14 15 37 26 52 26 38 13 60 -22 38z m-12 -55 c-10 -22 -13 -23 -20 -10
-11 18 -2 35 17 35 12 0 12 -5 3 -25z m-125 -122 c-7 -2 -19 -2 -25 0 -7 3 -2
5 12 5 14 0 19 -2 13 -5z m525 -26 c-7 -14 -13 -17 -16 -9 -6 19 6 44 18 37 7
-4 6 -14 -2 -28z"/>
<path d="M1030 469 c0 -11 7 -30 15 -42 8 -12 15 -42 17 -67 l3 -45 -45 0
c-45 0 -80 18 -80 40 0 20 -36 46 -54 39 -18 -7 -22 -49 -5 -60 14 -8 4 -60
-16 -80 -19 -19 -19 -30 0 -38 8 -3 22 3 31 12 46 46 79 62 125 62 l47 0 7
-62 c3 -35 7 -81 9 -102 2 -49 26 -62 25 -14 0 18 -4 66 -8 106 l-7 72 66 0
c59 -1 63 -2 46 -15 -11 -8 -23 -15 -28 -15 -26 0 31 -69 57 -70 6 0 26 -34
45 -75 19 -41 40 -75 47 -75 7 0 13 2 13 5 0 51 70 296 91 319 17 19 10 46
-12 46 -11 0 -29 5 -41 11 -11 6 -22 8 -25 5 -3 -3 -5 -51 -5 -108 1 -57 -5
-132 -12 -168 l-13 -65 -26 57 c-19 40 -27 73 -27 111 0 63 -2 64 -114 63 -79
-1 -81 4 -36 90 16 32 27 61 22 65 -4 3 -31 9 -59 12 -48 6 -53 4 -53 -14z
m73 -39 c-8 -30 -17 -31 -30 -4 -10 22 -9 24 12 24 18 0 22 -4 18 -20z m300
-47 c2 -5 -4 -28 -14 -53 l-18 -45 0 46 c-1 25 2 49 6 52 9 9 21 9 26 0z
m-463 -78 c0 -7 -6 -15 -14 -18 -10 -4 -15 4 -18 28 -4 33 -3 34 14 18 10 -9
18 -22 18 -28z m308 -86 c-2 -5 -12 -3 -23 5 -17 13 -18 17 -5 25 16 11 35
-10 28 -30z"/>
<path d="M696 162 c-11 -17 1 -87 15 -87 19 0 36 52 23 72 -13 20 -30 27 -38
15z"/>
<path d="M1502 75 c0 -16 2 -22 5 -12 2 9 2 23 0 30 -3 6 -5 -1 -5 -18z"/>
<path d="M1035 40 c-7 -12 2 -30 16 -30 5 0 9 9 9 20 0 21 -15 27 -25 10z"/>
</g>
</svg>
