<?xml version="1.0" standalone="no"?>
<!DOCTYPE svg PUBLIC "-//W3C//DTD SVG 20010904//EN"
 "http://www.w3.org/TR/2001/REC-SVG-20010904/DTD/svg10.dtd">
<svg version="1.0" xmlns="http://www.w3.org/2000/svg"
 width="133.000000pt" height="60.000000pt" viewBox="0 0 133.000000 60.000000"
 preserveAspectRatio="xMidYMid meet">
<metadata>
Created by potrace 1.16, written by Peter Selinger 2001-2019
</metadata>
<g transform="translate(0.000000,60.000000) scale(0.100000,-0.100000)"
fill="#000000" stroke="none">
<path d="M110 515 c-5 -14 -13 -37 -16 -51 -4 -14 -17 -30 -30 -34 -29 -12
-29 -8 0 -122 13 -51 27 -110 31 -131 3 -22 10 -35 16 -31 7 4 10 61 8 155
l-3 149 30 31 c28 30 28 31 10 45 -27 20 -35 18 -46 -11z m30 -9 c0 -3 -4 -8
-10 -11 -5 -3 -10 -1 -10 4 0 6 5 11 10 11 6 0 10 -2 10 -4z m-41 -168 c-1
-35 -4 -54 -6 -43 -3 11 -11 39 -18 62 -12 40 -12 43 6 43 17 0 19 -7 18 -62z"/>
<path d="M1233 510 c-23 -9 -23 -11 -17 -147 4 -76 8 -140 10 -141 1 -2 5 18
8 45 8 62 26 190 33 226 6 29 1 31 -34 17z m9 -51 c-4 -26 -6 -29 -14 -15 -10
18 -4 46 10 46 5 0 6 -14 4 -31z"/>
<path d="M556 493 c-27 -4 -28 -7 -23 -41 4 -20 9 -74 13 -118 l7 -82 -119 -2
c-66 -1 -130 -3 -144 -5 -14 -1 -56 -3 -93 -4 -45 -1 -66 -5 -62 -11 9 -14
382 -3 413 12 20 11 22 18 22 97 0 67 4 93 19 118 18 28 18 46 2 42 -3 -1 -19
-4 -35 -6z m14 -44 c0 -11 -4 -17 -10 -14 -5 3 -10 13 -10 21 0 8 5 14 10 14
6 0 10 -9 10 -21z"/>
<path d="M856 475 c-4 -15 -6 -29 -4 -31 2 -1 48 4 103 11 55 8 126 15 158 15
31 0 57 5 57 10 0 6 -38 10 -94 10 -51 0 -120 3 -153 6 -59 6 -60 6 -67 -21z
m51 -1 c-3 -3 -12 -4 -19 -1 -8 3 -5 6 6 6 11 1 17 -2 13 -5z"/>
<path d="M162 461 c-24 -33 -20 -40 18 -36 14 1 65 5 115 9 177 13 225 18 220
25 -2 5 -69 11 -147 15 -79 3 -152 9 -163 12 -15 4 -27 -3 -43 -25z m88 -7 c0
-2 -16 -4 -36 -4 -19 0 -33 4 -30 8 5 8 66 4 66 -4z"/>
<path d="M757 452 c-22 -24 -22 -26 12 -76 17 -24 52 -85 80 -137 27 -51 55
-95 62 -98 7 -2 10 2 7 10 -4 8 -13 31 -22 52 -16 37 -16 38 6 46 19 7 203 31
238 31 6 0 10 4 10 9 0 6 -56 11 -127 13 -105 2 -130 0 -140 -12 -13 -17 -16
-11 -58 110 -23 69 -41 82 -68 52z m51 -64 c12 -28 20 -53 19 -55 -6 -5 -57
78 -57 93 0 29 17 12 38 -38z"/>
<path d="M850 409 c0 -12 318 -11 326 2 3 5 -69 9 -160 9 -109 0 -166 -4 -166
-11z"/>
<path d="M305 390 c-60 -4 -122 -8 -137 -9 -16 0 -28 -5 -28 -11 0 -5 18 -8
43 -5 23 3 108 7 190 11 81 3 147 10 147 15 0 10 -45 9 -215 -1z"/>
<path d="M860 362 c0 -13 156 -19 255 -11 59 5 51 6 -55 8 -69 1 -142 4 -162
7 -23 3 -38 2 -38 -4z"/>
<path d="M272 320 c-67 -3 -122 -9 -122 -14 0 -8 143 -9 230 -1 14 1 51 3 83
4 31 0 57 6 57 11 0 10 -27 10 -248 0z"/>
<path d="M1170 290 c0 -5 4 -10 9 -10 6 0 13 5 16 10 3 6 -1 10 -9 10 -9 0
-16 -4 -16 -10z"/>
<path d="M1315 277 c-4 -10 -5 -21 -1 -24 10 -10 18 4 13 24 -4 17 -4 17 -12
0z"/>
<path d="M664 233 c4 -43 21 -55 30 -21 11 41 7 58 -14 58 -16 0 -19 -6 -16
-37z"/>
</g>
</svg>
