<?xml version="1.0" standalone="no"?>
<!DOCTYPE svg PUBLIC "-//W3C//DTD SVG 20010904//EN"
 "http://www.w3.org/TR/2001/REC-SVG-20010904/DTD/svg10.dtd">
<svg version="1.0" xmlns="http://www.w3.org/2000/svg"
 width="129.000000pt" height="129.000000pt" viewBox="0 0 129.000000 129.000000"
 preserveAspectRatio="xMidYMid meet">
<metadata>
Created by potrace 1.16, written by Peter Selinger 2001-2019
</metadata>
<g transform="translate(0.000000,129.000000) scale(0.100000,-0.100000)"
fill="#000000" stroke="none">
<path d="M943 1253 c-40 -14 -42 -16 -35 -46 4 -18 7 -112 7 -209 0 -124 3
-178 11 -178 7 0 13 33 17 86 2 47 8 88 11 92 4 3 69 7 144 8 75 2 138 7 140
12 1 5 -39 12 -90 15 -99 7 -198 24 -198 35 0 4 11 48 24 97 14 50 21 93 18
96 -4 4 -26 0 -49 -8z m13 -70 c-10 -46 -11 -47 -17 -18 -12 53 -10 65 10 65
17 0 17 -4 7 -47z m39 -152 c17 -7 15 -9 -12 -13 -21 -3 -34 0 -37 9 -6 14 17
16 49 4z"/>
<path d="M785 1160 c-38 -21 -89 -45 -112 -52 -55 -16 -57 -38 -4 -38 47 0 74
-28 137 -140 21 -38 45 -70 52 -70 20 0 15 13 -43 105 -63 99 -63 91 14 174
67 72 58 76 -44 21z m-12 -54 c-17 -24 -52 -34 -67 -19 -6 6 74 52 82 46 2 -1
-4 -13 -15 -27z"/>
<path d="M205 1168 c-16 -12 -32 -25 -35 -29 -3 -4 -31 -19 -63 -34 -31 -15
-60 -31 -63 -36 -6 -10 113 -241 139 -269 9 -11 17 -26 17 -35 0 -8 5 -15 10
-15 6 0 10 38 10 95 0 111 3 114 108 121 117 8 136 11 140 23 2 7 -15 11 -51
11 -30 0 -82 3 -117 7 l-62 6 6 51 c4 28 10 68 13 89 7 44 -6 48 -52 15z m20
-93 l-12 -80 -8 69 c-7 61 -6 71 10 83 10 7 19 12 20 10 2 -1 -3 -38 -10 -82z
m-35 -91 c7 -72 10 -140 8 -150 -2 -12 -25 22 -66 100 -35 65 -61 121 -58 124
8 8 101 60 103 58 1 -1 7 -60 13 -132z m65 -4 c-3 -5 -10 -10 -16 -10 -5 0 -9
5 -9 10 0 6 7 10 16 10 8 0 12 -4 9 -10z"/>
<path d="M551 857 c-5 -7 -6 -19 -2 -26 5 -7 6 -22 4 -32 -7 -24 22 -26 31 -3
17 45 -8 91 -33 61z"/>
<path d="M1197 856 c-4 -9 -2 -18 3 -21 6 -4 7 -17 4 -31 -4 -14 -2 -24 5 -24
15 0 33 37 29 63 -4 26 -33 35 -41 13z"/>
<path d="M923 550 c-27 -11 -27 -5 -6 -77 9 -34 19 -115 22 -193 7 -148 22
-179 25 -48 l1 83 65 12 c36 7 90 12 120 10 39 -1 55 2 55 11 0 9 -28 13 -100
16 -150 7 -148 5 -140 85 3 36 8 76 11 89 5 24 -12 28 -53 12z m27 -51 c0 -17
-4 -28 -10 -24 -5 3 -10 17 -10 31 0 13 5 24 10 24 6 0 10 -14 10 -31z m50
-155 c0 -2 -9 -4 -20 -4 -11 0 -20 4 -20 9 0 5 9 7 20 4 11 -3 20 -7 20 -9z"/>
<path d="M86 467 c-38 -38 -65 -72 -60 -75 43 -30 196 -303 192 -341 -2 -13 2
-26 9 -28 9 -3 13 28 15 124 l3 128 55 12 c30 7 81 15 113 18 93 10 65 24 -55
27 l-113 3 1 25 c1 14 5 53 9 88 4 34 5 62 1 62 -4 0 -21 -7 -38 -16 -25 -13
-29 -20 -24 -42 10 -48 28 -258 24 -291 -3 -29 -8 -22 -56 71 l-53 103 26 85
c14 47 28 93 32 103 9 29 -9 16 -81 -56z m153 -9 c-1 -7 -5 -24 -9 -38 -7 -22
-8 -21 -9 13 -1 20 4 37 9 37 6 0 10 -6 9 -12z m-132 -58 l-14 -54 -18 28
c-18 27 -18 27 10 56 16 17 30 28 32 26 2 -1 -3 -27 -10 -56z m163 -94 c0 -2
-7 -6 -15 -10 -8 -3 -15 -1 -15 4 0 6 7 10 15 10 8 0 15 -2 15 -4z"/>
<path d="M795 481 c-3 -11 -15 -23 -26 -26 -24 -8 -24 -33 0 -59 25 -27 141
-234 141 -252 0 -8 5 -14 10 -14 18 0 11 26 -29 106 -44 88 -60 146 -61 217 0
34 -4 47 -14 47 -8 0 -17 -9 -21 -19z m17 -73 l5 -32 -18 23 c-11 13 -16 27
-13 32 11 18 22 8 26 -23z"/>
<path d="M1240 186 c0 -32 18 -43 37 -23 20 20 10 47 -17 47 -15 0 -20 -7 -20
-24z"/>
<path d="M537 193 c-9 -14 -2 -73 8 -75 15 -1 36 47 29 66 -6 17 -29 22 -37 9z"/>
</g>
</svg>
