<?xml version="1.0" standalone="no"?>
<!DOCTYPE svg PUBLIC "-//W3C//DTD SVG 20010904//EN"
 "http://www.w3.org/TR/2001/REC-SVG-20010904/DTD/svg10.dtd">
<svg version="1.0" xmlns="http://www.w3.org/2000/svg"
 width="157.000000pt" height="47.000000pt" viewBox="0 0 157.000000 47.000000"
 preserveAspectRatio="xMidYMid meet">
<metadata>
Created by potrace 1.16, written by Peter Selinger 2001-2019
</metadata>
<g transform="translate(0.000000,47.000000) scale(0.100000,-0.100000)"
fill="#000000" stroke="none">
<path d="M61 389 c-14 -5 -21 -15 -18 -23 3 -8 9 -62 13 -120 6 -90 9 -106 22
-101 51 19 117 26 395 41 l127 7 0 -46 c0 -25 5 -49 10 -52 6 -3 10 -3 10 2 3
59 12 141 21 196 6 38 9 70 7 72 -2 3 -17 1 -34 -4 -21 -6 -28 -13 -26 -27 2
-10 6 -43 9 -71 l5 -53 -71 0 -71 0 0 30 c0 28 2 30 40 30 22 0 40 5 40 10 0
6 -18 10 -41 10 l-41 0 7 52 7 52 -23 -16 c-13 -9 -23 -20 -22 -25 1 -5 5 -21
8 -36 5 -17 3 -27 -4 -27 -6 0 -11 14 -11 30 0 40 -18 38 -23 -2 l-4 -33 -1
33 c-1 17 -6 32 -11 32 -6 0 -12 -15 -14 -32 -4 -32 -4 -32 -5 5 -2 46 -19 49
-25 5 -4 -32 -4 -32 -5 5 -3 50 -22 48 -22 -3 l0 -41 -35 7 c-31 6 -36 3 -45
-21 -14 -38 -6 -45 37 -30 35 12 38 12 41 -6 5 -26 20 -24 25 4 l4 22 2 -22
c0 -13 6 -23 11 -23 6 0 10 10 11 23 0 20 1 21 8 3 7 -19 8 -18 15 5 l7 24 14
-30 13 -30 1 28 c1 37 21 35 21 -3 0 -23 -5 -31 -24 -36 -40 -10 -314 0 -326
12 -7 7 -6 31 5 83 23 108 21 112 -34 90z m16 -56 c-3 -10 -5 -4 -5 12 0 17 2
24 5 18 2 -7 2 -21 0 -30z m540 -15 c-3 -8 -6 -5 -6 6 -1 11 2 17 5 13 3 -3 4
-12 1 -19z m-517 -138 c0 -5 -2 -10 -4 -10 -3 0 -8 5 -11 10 -3 6 -1 10 4 10
6 0 11 -4 11 -10z"/>
<path d="M950 391 c-28 -8 -27 -4 -15 -153 7 -76 6 -88 -7 -88 -10 0 -17 -12
-20 -30 -6 -39 -1 -42 33 -24 16 8 57 16 92 17 61 2 62 1 65 -25 2 -16 7 -28
12 -28 5 0 11 12 13 28 l4 27 2 -28 c1 -36 21 -26 21 11 1 25 2 26 14 9 14
-18 15 -18 25 0 9 15 10 12 11 -19 0 -21 5 -38 10 -38 6 0 10 13 10 29 0 36
16 41 128 41 l82 0 0 -31 c0 -19 4 -28 11 -24 6 5 9 48 7 120 l-3 113 33 46
c17 26 32 49 32 51 0 12 -39 4 -50 -10 -7 -8 -19 -15 -26 -15 -15 0 -17 -10
-14 -47 1 -22 -2 -23 -80 -23 l-82 0 7 40 c7 39 6 40 -22 40 -15 0 -38 3 -50
6 -22 6 -23 4 -17 -40 5 -31 3 -46 -5 -46 -6 0 -11 18 -11 46 0 45 0 45 -32
42 -32 -3 -33 -4 -30 -45 l2 -42 -45 4 c-43 5 -45 4 -45 -21 0 -24 3 -26 28
-21 15 3 35 9 45 12 15 6 17 0 17 -64 l0 -71 -65 0 c-44 0 -67 4 -70 13 -2 6
-6 45 -8 85 -4 65 -1 78 19 108 37 53 32 61 -26 45z m10 -31 c0 -5 -5 -10 -11
-10 -5 0 -7 5 -4 10 3 6 8 10 11 10 2 0 4 -4 4 -10z m180 -30 c0 -16 -4 -30
-10 -30 -11 0 -14 43 -3 53 11 12 13 8 13 -23z m70 -7 c0 -19 -3 -24 -10 -17
-6 6 -8 18 -4 27 9 24 14 21 14 -10z m27 -15 c-3 -7 -5 -2 -5 12 0 14 2 19 5
13 2 -7 2 -19 0 -25z m-97 -85 c0 -32 -5 -65 -10 -73 -7 -10 -10 7 -10 58 0
41 4 72 10 72 6 0 10 -26 10 -57z m36 20 c-3 -21 -6 -53 -6 -70 0 -18 -4 -33
-10 -33 -6 0 -10 30 -10 70 0 58 3 70 16 70 14 0 15 -7 10 -37z m34 -27 c0
-36 -4 -68 -10 -71 -6 -4 -10 20 -10 64 0 41 4 71 10 71 6 0 10 -28 10 -64z
m44 22 l8 43 81 -3 81 -3 0 -57 c0 -32 -2 -59 -5 -61 -2 -3 -41 -8 -86 -11
-79 -7 -83 -6 -83 13 0 12 -4 21 -10 21 -6 0 -9 23 -8 53 l1 52 6 -45 7 -45 8
43z"/>
<path d="M749 168 c-6 -15 -5 -88 1 -88 28 0 40 79 13 88 -7 2 -14 2 -14 0z"/>
<path d="M1510 129 c0 -24 23 -21 28 4 2 10 -3 17 -12 17 -10 0 -16 -9 -16
-21z"/>
</g>
</svg>
