<?xml version="1.0" standalone="no"?>
<!DOCTYPE svg PUBLIC "-//W3C//DTD SVG 20010904//EN"
 "http://www.w3.org/TR/2001/REC-SVG-20010904/DTD/svg10.dtd">
<svg version="1.0" xmlns="http://www.w3.org/2000/svg"
 width="140.000000pt" height="90.000000pt" viewBox="0 0 140.000000 90.000000"
 preserveAspectRatio="xMidYMid meet">
<metadata>
Created by potrace 1.16, written by Peter Selinger 2001-2019
</metadata>
<g transform="translate(0.000000,90.000000) scale(0.100000,-0.100000)"
fill="#000000" stroke="none">
<path d="M170 841 c0 -4 -18 -29 -40 -54 -43 -48 -50 -67 -24 -67 11 0 14 -5
9 -17 -3 -10 -9 -31 -12 -46 -3 -16 -12 -31 -19 -34 -24 -9 -16 -21 41 -61
l56 -40 114 3 c63 1 115 -1 115 -6 0 -5 7 -9 15 -9 9 0 29 -7 45 -15 39 -20
85 -138 85 -217 -1 -32 -1 -58 0 -58 43 19 93 29 142 30 87 0 94 -4 76 -43
-36 -78 -39 -81 -110 -99 -39 -10 -84 -16 -104 -12 -34 5 -37 3 -42 -23 -6
-34 0 -48 17 -34 7 6 39 17 72 25 32 7 72 19 88 25 25 10 28 10 23 -6 -3 -10
-9 -29 -12 -43 l-7 -25 21 24 c12 13 21 29 21 36 0 24 28 35 166 64 76 16 150
33 163 38 15 6 49 5 95 -3 39 -7 85 -13 101 -13 l30 -1 0 222 c0 227 8 291 43
346 11 16 11 22 2 22 -20 0 -110 -62 -110 -76 0 -35 -139 -231 -195 -275 -24
-19 -30 -20 -122 -9 -128 15 -175 33 -208 76 l-27 35 53 105 c30 57 64 115 77
129 25 27 24 27 -28 30 -19 0 -47 5 -62 9 -28 8 -28 8 -28 -41 0 -27 -2 -52
-5 -55 -3 -3 -24 -1 -48 4 -107 24 -152 42 -178 69 -32 34 -35 35 -42 9 -6
-24 -28 -25 -110 -5 -62 14 -94 36 -108 73 -8 21 -29 31 -29 13z m16 -69 c-22
-5 -30 3 -21 18 5 8 11 7 22 -2 15 -12 14 -13 -1 -16z m39 -56 c-18 -93 -41
-164 -52 -158 -9 6 -7 30 7 92 11 47 20 88 20 93 0 4 7 7 15 7 13 0 15 -7 10
-34z m545 18 c0 -6 -61 -114 -65 -114 -3 0 4 73 10 106 4 17 10 20 30 16 14
-2 25 -6 25 -8z m-605 -31 c-13 -77 -27 -112 -42 -106 -9 3 -11 12 -7 22 3 9
11 34 16 56 15 66 45 90 33 28z m139 -9 c-24 -128 -28 -139 -57 -142 -15 -2
-27 2 -27 8 0 10 27 128 36 158 2 6 15 12 29 12 24 0 25 -2 19 -36z m146 26
c0 -5 -5 -10 -11 -10 -5 0 -7 5 -4 10 3 6 8 10 11 10 2 0 4 -4 4 -10z m-75
-10 c4 -6 1 -18 -7 -27 -7 -9 -13 -23 -14 -32 -1 -40 -18 -93 -31 -98 -22 -9
-25 2 -13 48 6 24 16 61 21 82 9 36 31 49 44 27z m218 -41 l88 -12 -7 -51 c-3
-27 -20 -89 -36 -136 -17 -47 -35 -106 -41 -132 l-11 -47 -27 86 c-15 47 -29
100 -31 117 -3 28 0 31 27 34 45 5 52 20 13 27 -30 6 -34 10 -30 31 6 31 0 30
-50 -6 -67 -49 -97 -36 -63 27 9 15 20 41 25 57 8 22 15 27 33 23 12 -3 62
-11 110 -18z m691 -16 c-9 -52 -14 -54 -14 -5 0 23 5 42 10 42 7 0 8 -14 4
-37z m-868 -10 c-22 -60 -39 -93 -48 -93 -11 0 -10 31 3 71 15 42 27 59 45 59
11 0 11 -6 0 -37z m850 -276 l7 -188 -24 5 c-13 3 -42 8 -64 10 -44 5 -145 22
-215 36 -25 5 -63 12 -85 15 l-40 7 35 28 c41 34 32 42 -45 36 -48 -3 -50 -4
-47 -30 3 -25 1 -27 -20 -21 -13 4 -44 19 -70 32 -121 65 -41 101 171 77 69
-9 134 -19 143 -24 10 -6 25 -7 34 -3 12 4 24 -3 40 -22 l22 -28 10 39 c6 21
18 68 27 103 9 35 35 96 58 135 l42 71 7 -45 c4 -25 10 -130 14 -233z m-766
153 c0 -5 -4 -10 -9 -10 -6 0 -13 5 -16 10 -3 6 1 10 9 10 9 0 16 -4 16 -10z
m165 -90 c-21 -41 -27 -35 -12 12 6 21 16 33 20 29 5 -5 1 -23 -8 -41z m449
-17 c-9 -63 -11 -65 -36 -51 -13 7 -24 13 -26 14 -2 1 61 74 65 74 1 0 -1 -17
-3 -37z m-406 -4 c-28 -7 -30 -6 -22 14 5 13 9 14 25 4 19 -12 19 -12 -3 -18z
m-61 -139 c-40 -7 -41 -6 -27 19 10 21 12 21 34 4 l24 -18 -31 -5z m363 -66
c38 -9 10 -19 -114 -43 -59 -12 -112 -24 -117 -27 -5 -3 -9 1 -9 8 0 15 38 80
51 89 8 5 127 -12 189 -27z"/>
<path d="M1297 3 c18 -2 50 -2 70 0 21 2 7 4 -32 4 -38 0 -55 -2 -38 -4z"/>
</g>
</svg>
