<?xml version="1.0" standalone="no"?>
<!DOCTYPE svg PUBLIC "-//W3C//DTD SVG 20010904//EN"
 "http://www.w3.org/TR/2001/REC-SVG-20010904/DTD/svg10.dtd">
<svg version="1.0" xmlns="http://www.w3.org/2000/svg"
 width="109.000000pt" height="103.000000pt" viewBox="0 0 109.000000 103.000000"
 preserveAspectRatio="xMidYMid meet">
<metadata>
Created by potrace 1.16, written by Peter Selinger 2001-2019
</metadata>
<g transform="translate(0.000000,103.000000) scale(0.100000,-0.100000)"
fill="#000000" stroke="none">
<path d="M292 1023 c148 -2 388 -2 536 0 147 1 26 2 -268 2 -294 0 -415 -1
-268 -2z"/>
<path d="M257 969 c-15 -11 -27 -27 -27 -36 0 -13 -15 -15 -97 -12 -77 3 -97
1 -95 -9 1 -7 5 -55 8 -105 3 -51 7 -93 9 -95 2 -2 23 3 47 11 23 8 60 17 81
21 l37 7 0 -36 c0 -19 5 -35 10 -35 6 0 10 10 10 23 l1 22 20 -25 c21 -24 21
-24 34 -5 32 47 80 105 87 105 5 0 8 -24 8 -54 0 -30 3 -62 7 -71 5 -15 1 -16
-25 -10 l-32 7 0 -47 c0 -41 3 -47 18 -42 9 3 44 15 77 27 33 11 90 26 127 32
73 12 77 17 78 93 1 62 25 165 32 138 7 -25 15 -24 155 3 40 8 85 14 101 14
26 0 30 -4 36 -37 13 -84 25 -78 -149 -76 l-155 1 0 -33 c0 -19 3 -36 8 -39 4
-2 43 6 87 19 44 12 110 25 148 28 65 5 67 4 67 -19 0 -13 4 -24 8 -24 5 0 14
39 20 88 7 48 15 100 18 116 7 28 6 29 -27 22 -18 -3 -36 -11 -40 -17 -4 -7
-49 -8 -143 -4 -133 8 -136 8 -130 29 11 38 9 40 -31 40 l-40 -1 4 -155 3
-155 -62 -6 c-35 -4 -80 -7 -100 -7 l-37 0 2 80 c0 44 4 83 8 87 5 4 18 1 30
-7 12 -7 35 -20 50 -28 20 -10 26 -19 22 -33 -4 -13 -2 -19 9 -19 9 0 16 4 16
10 0 5 7 7 15 4 23 -9 18 12 -7 28 -22 15 -22 18 -10 62 6 25 12 57 12 71 0
14 5 25 10 25 6 0 10 7 10 15 0 15 -23 2 -103 -59 -21 -16 -39 -27 -42 -25 -2
3 0 22 5 44 11 49 7 55 -37 55 -35 0 -36 0 -30 -36 l6 -36 -22 18 c-12 10 -34
30 -48 46 l-26 28 -26 -21z m392 -36 c-1 -16 -5 -39 -9 -53 -6 -20 -8 -14 -9
28 -1 28 3 52 9 52 6 0 10 -12 9 -27z m-350 3 c10 -12 8 -13 -8 -9 -12 3 -21
9 -21 14 0 14 16 11 29 -5z m121 -26 c0 -22 -4 -40 -10 -40 -5 0 -10 18 -10
40 0 22 5 40 10 40 6 0 10 -18 10 -40z m-120 -10 c12 -8 11 -10 -7 -10 -27 0
-28 -12 -8 -71 15 -42 15 -45 -6 -61 -30 -25 -41 -22 -35 10 3 15 8 53 12 85
6 57 15 66 44 47z m690 -12 c0 -19 -2 -20 -10 -8 -13 19 -13 30 0 30 6 0 10
-10 10 -22z m-750 -10 c0 -18 -2 -20 -9 -8 -6 8 -7 18 -5 22 9 14 14 9 14 -14z
m500 8 c-36 -13 -50 -12 -50 5 0 5 19 9 43 8 l42 0 -35 -13z m-530 -15 c0 -17
-8 -19 -63 -20 -63 0 -107 13 -77 23 19 6 54 11 103 14 30 1 37 -1 37 -17z
m310 -22 c0 -22 -3 -39 -7 -37 -43 21 -63 32 -63 37 0 7 51 40 63 41 4 0 7
-18 7 -41z m-145 10 c19 -20 18 -20 -10 -44 -17 -13 -33 -24 -37 -25 -5 0 -8
20 -8 45 0 37 3 45 18 45 11 0 27 -9 37 -21z m-165 -37 c0 -4 -19 -6 -42 -4
-71 5 -77 10 -15 11 31 0 57 -2 57 -7z m10 -37 c0 -12 -14 -15 -70 -15 -109 0
-89 25 23 29 36 1 47 -3 47 -14z m495 -45 c-27 -12 -35 -12 -35 0 0 6 12 10
28 9 24 0 25 -1 7 -9z m-300 -110 c-28 -12 -55 -12 -55 0 0 6 17 10 38 9 30 0
33 -2 17 -9z"/>
<path d="M1083 620 c0 -25 2 -35 4 -22 2 12 2 32 0 45 -2 12 -4 2 -4 -23z"/>
<path d="M610 442 c-35 -29 -201 -132 -211 -132 -3 0 -2 21 2 48 13 77 12 84
-13 80 -21 -3 -23 -8 -20 -60 1 -32 0 -58 -3 -58 -10 0 -105 73 -113 87 -6 10
-17 12 -36 7 -23 -5 -27 -11 -22 -30 6 -23 6 -23 -60 -17 l-65 6 3 -38 c3 -43
16 -49 81 -39 48 8 37 27 -13 22 -31 -3 -36 -1 -28 10 7 8 27 12 52 10 33 -2
41 -7 47 -28 6 -25 6 -25 11 5 4 21 5 15 7 -22 l1 -51 -72 0 c-65 0 -72 -2
-75 -20 -4 -28 8 -34 38 -19 13 7 38 14 56 15 28 3 31 1 26 -17 -3 -12 -1 -21
3 -21 15 1 44 26 44 38 0 7 -8 9 -17 5 -17 -6 -17 -5 -3 13 9 10 17 42 18 69
2 28 7 54 12 59 5 5 7 -15 4 -48 -3 -35 -1 -56 6 -56 5 0 10 18 10 40 0 22 5
40 10 40 6 0 10 -11 10 -24 0 -14 4 -28 10 -31 5 -3 10 3 10 14 0 25 9 26 35
7 18 -13 16 -15 -26 -37 -24 -13 -48 -23 -53 -24 -10 0 -21 -25 -12 -25 4 0
29 11 56 25 l50 25 0 -45 c0 -33 -4 -45 -15 -45 -10 0 -15 -11 -15 -35 0 -37
9 -42 40 -25 11 6 54 15 97 21 98 14 117 17 121 19 1 2 8 3 15 4 6 1 12 11 12
24 1 35 21 42 128 42 53 0 97 4 97 9 0 10 -83 21 -162 21 -57 0 -58 0 -58 29
0 25 4 29 38 35 20 3 70 6 110 6 39 0 72 4 72 9 0 16 -29 21 -115 21 -46 0
-86 4 -89 8 -3 4 -1 26 4 48 12 52 1 59 -40 26z m17 -34 c-3 -8 -6 -5 -6 6 -1
11 2 17 5 13 3 -3 4 -12 1 -19z m-16 -137 c-1 -46 -4 -88 -7 -92 -3 -5 -20 1
-39 14 -28 17 -35 29 -35 54 0 17 5 35 10 38 20 13 10 35 -16 35 -26 0 -27 -1
-21 -45 4 -25 4 -45 1 -45 -3 0 -20 11 -38 25 -18 14 -38 25 -44 25 -28 0 -5
18 81 65 88 48 92 50 100 30 5 -11 8 -58 8 -104z m-377 94 c-4 -8 -10 -12 -15
-9 -11 6 -2 24 11 24 5 0 7 -7 4 -15z m224 -124 c28 -19 52 -38 52 -42 0 -5 9
-9 20 -9 11 0 20 -4 20 -9 0 -5 -28 -7 -62 -6 -35 2 -72 4 -84 4 -15 1 -20 7
-18 24 1 12 3 35 3 50 1 33 -2 33 69 -12z m-48 -85 c0 -11 -19 -15 -25 -6 -3
5 1 10 9 10 9 0 16 -2 16 -4z"/>
<path d="M878 368 c-14 -11 -16 -28 -11 -120 6 -116 23 -148 23 -45 0 34 5 80
11 102 15 58 15 67 4 72 -6 2 -18 -2 -27 -9z"/>
<path d="M75 270 c-7 -12 -11 -11 50 -12 71 0 77 1 70 12 -3 6 -30 10 -60 10
-30 0 -57 -4 -60 -10z"/>
<path d="M1009 153 c-18 -21 -14 -53 6 -53 8 0 19 10 26 21 8 17 8 24 -3 35
-12 13 -16 12 -29 -3z"/>
</g>
</svg>
