<?xml version="1.0" standalone="no"?>
<!DOCTYPE svg PUBLIC "-//W3C//DTD SVG 20010904//EN"
 "http://www.w3.org/TR/2001/REC-SVG-20010904/DTD/svg10.dtd">
<svg version="1.0" xmlns="http://www.w3.org/2000/svg"
 width="146.000000pt" height="128.000000pt" viewBox="0 0 146.000000 128.000000"
 preserveAspectRatio="xMidYMid meet">
<metadata>
Created by potrace 1.16, written by Peter Selinger 2001-2019
</metadata>
<g transform="translate(0.000000,128.000000) scale(0.100000,-0.100000)"
fill="#000000" stroke="none">
<path d="M320 1190 c0 -3 9 -25 20 -48 15 -31 20 -61 20 -128 0 -85 0 -86 -22
-80 -13 3 -33 6 -45 6 -16 0 -23 6 -23 20 0 16 5 19 29 14 16 -4 32 -1 35 5 6
10 -20 16 -46 12 -5 0 -8 4 -8 9 0 6 7 10 15 10 8 0 15 5 15 10 0 6 -8 10 -17
10 -13 0 -14 3 -5 12 7 7 12 20 12 29 0 10 6 20 13 22 9 4 9 8 -2 15 -10 8
-11 14 -1 32 18 35 4 35 -30 1 -26 -26 -39 -31 -79 -31 -25 0 -70 6 -100 14
-43 11 -53 11 -58 0 -9 -25 2 -49 22 -46 11 2 54 5 95 8 54 4 71 2 60 -5 -8
-6 -45 -11 -82 -11 -39 0 -68 -4 -68 -10 0 -6 26 -10 59 -10 33 0 63 -4 66
-10 4 -6 -18 -10 -59 -10 -40 0 -66 -4 -66 -11 0 -5 8 -9 18 -8 42 4 132 -2
132 -9 0 -4 -31 -8 -70 -9 -73 -2 -94 -8 -84 -24 3 -5 9 -7 14 -4 14 9 144 10
158 2 29 -19 7 -27 -72 -27 -47 0 -87 -4 -90 -9 -6 -8 86 -21 154 -21 36 0 36
-1 77 -90 32 -69 45 -89 57 -84 13 5 16 24 16 103 l0 97 33 11 c17 6 54 14 81
18 67 9 46 23 -39 27 l-70 3 -3 45 c-2 33 4 58 23 93 14 27 23 52 20 57 -6 9
-105 9 -105 0z m80 -27 c0 -5 -7 -16 -15 -26 -13 -18 -14 -18 -24 2 -15 28
-14 31 14 31 14 0 25 -3 25 -7z m-120 -82 c0 -6 -4 -12 -10 -16 -5 -3 -7 -12
-3 -20 6 -17 -32 -22 -42 -5 -3 6 -2 10 3 10 5 0 12 9 15 20 5 20 37 29 37 11z
m79 -239 l-1 -77 -33 70 c-19 39 -34 72 -35 75 0 3 16 6 35 7 l35 3 -1 -78z"/>
<path d="M1065 1174 c-16 -8 -37 -21 -45 -28 -40 -35 -218 -89 -287 -88 -25 1
-32 -3 -37 -22 -3 -13 -9 -31 -12 -40 -9 -24 14 -19 39 7 12 13 42 29 67 36
25 7 56 17 70 21 77 25 79 24 104 -29 12 -28 29 -57 36 -66 7 -8 10 -18 7 -22
-13 -13 -243 -84 -289 -90 -27 -3 -48 -8 -48 -10 0 -2 7 -18 16 -35 14 -27 18
-29 26 -15 10 18 79 57 100 57 15 0 164 55 190 70 15 9 23 0 53 -60 20 -39 40
-68 45 -65 5 3 9 51 9 107 0 68 4 104 12 109 7 4 52 10 101 14 48 4 88 11 88
16 0 11 -6 11 -92 11 -104 -1 -111 3 -104 52 4 23 9 51 13 64 6 27 -17 30 -62
6z m32 -36 c-3 -7 -5 -2 -5 12 0 14 2 19 5 13 2 -7 2 -19 0 -25z m-10 -158 c2
-74 2 -132 0 -130 -9 10 -99 176 -112 207 l-14 32 52 35 c51 34 52 34 61 13 5
-12 11 -83 13 -157z"/>
<path d="M905 1056 c-10 -7 -14 -15 -9 -19 5 -3 17 1 27 8 10 7 14 16 9 19 -5
3 -17 -1 -27 -8z"/>
<path d="M318 1053 c7 -3 16 -2 19 1 4 3 -2 6 -13 5 -11 0 -14 -3 -6 -6z"/>
<path d="M812 1021 c-55 -19 -89 -41 -61 -41 17 1 138 58 124 59 -5 0 -34 -8
-63 -18z"/>
<path d="M850 999 c-83 -30 -109 -44 -99 -53 6 -6 190 62 204 75 16 16 -17 9
-105 -22z"/>
<path d="M897 970 c-21 -10 -55 -24 -75 -31 -40 -12 -59 -25 -50 -34 10 -10
188 63 188 77 0 13 -22 9 -63 -12z"/>
<path d="M507 808 c-7 -19 4 -78 14 -78 14 0 30 50 24 71 -7 21 -30 25 -38 7z"/>
<path d="M1233 808 c-14 -19 -9 -73 8 -73 7 0 18 12 23 28 8 21 6 31 -5 43
-13 12 -18 13 -26 2z"/>
<path d="M151 464 c-45 -25 -67 -32 -74 -25 -17 17 -24 13 -36 -21 -14 -40 -9
-44 27 -23 21 13 39 16 67 11 47 -9 39 -19 -15 -18 -22 0 -40 -3 -40 -9 0 -5
24 -9 53 -9 46 0 53 -3 64 -25 l11 -25 -69 0 c-39 0 -69 -4 -69 -10 0 -6 33
-10 78 -10 l78 0 19 -52 c25 -73 53 -128 65 -128 6 0 10 38 10 90 l0 89 33 5
c17 3 50 7 72 8 62 4 43 22 -29 28 -35 3 -67 8 -70 11 -3 3 3 32 14 64 28 81
27 83 -25 83 -52 -1 -61 -9 -43 -37 16 -26 7 -34 -26 -25 -24 6 -26 10 -21 35
4 16 3 29 -2 28 -4 0 -37 -16 -72 -35z m175 -28 c-12 -40 -13 -40 -26 3 -8 28
-7 31 14 31 22 0 22 -2 12 -34z m-126 14 c0 -13 -28 -25 -38 -16 -3 4 0 11 8
16 20 13 30 12 30 0z m85 -50 c0 -23 -69 -20 -73 3 -3 16 2 18 35 15 26 -2 38
-8 38 -18z m13 -125 c2 -49 0 -86 -4 -82 -6 6 -44 105 -44 114 0 1 7 0 15 -3
8 -4 15 -1 15 4 0 6 -10 12 -21 14 -12 2 -25 13 -30 24 -7 20 -4 22 29 20 l37
-1 3 -90z"/>
<path d="M244 349 c-3 -5 7 -9 22 -9 15 0 24 3 20 7 -11 11 -35 12 -42 2z"/>
<path d="M983 484 c-2 -7 1 -22 7 -34 6 -12 10 -23 8 -24 -2 -2 -41 -8 -88
-15 -62 -8 -96 -8 -125 0 -63 17 -79 16 -83 -5 -2 -10 3 -23 12 -28 9 -5 16
-18 16 -28 0 -26 22 -26 38 0 17 27 47 28 32 1 -18 -35 -11 -40 33 -21 43 20
103 27 93 11 -3 -4 -28 -11 -56 -15 -27 -4 -50 -12 -50 -18 0 -7 13 -8 38 -4
68 13 82 14 82 6 0 -9 -50 -20 -91 -20 -20 0 -29 -5 -29 -16 0 -11 5 -14 18
-9 9 3 40 8 67 11 l50 4 -40 -14 c-22 -8 -53 -15 -68 -15 -26 -1 -47 -24 -34
-38 3 -3 34 4 68 16 35 12 66 21 70 21 4 0 15 -21 25 -47 33 -91 42 -76 18 30
-5 22 -3 27 12 27 17 0 19 -8 19 -72 0 -42 4 -73 10 -73 6 0 10 37 10 90 l0
90 37 18 c20 10 81 24 134 30 62 8 99 17 102 26 3 10 -19 11 -109 6 -93 -6
-118 -4 -134 8 -19 15 -19 16 -2 51 9 20 17 42 17 49 0 18 -100 18 -107 1z
m70 -46 l-16 -31 -13 24 c-18 33 -18 34 15 36 l29 2 -15 -31z m-289 -60 c-3
-5 -12 -4 -20 3 -19 16 -18 18 6 12 11 -3 17 -9 14 -15z m231 12 c-11 -5 -29
-9 -40 -9 -17 -1 -17 1 -5 9 8 5 26 9 40 9 23 0 23 -1 5 -9z m22 -47 c-2 -22
-8 -29 -30 -31 -15 -2 -27 1 -27 7 0 6 10 11 23 11 17 0 19 2 8 9 -8 5 -20 7
-28 4 -7 -3 -13 0 -13 5 0 11 20 19 52 21 12 1 16 -6 15 -26z m73 6 c0 -5 -11
-9 -25 -9 -24 0 -32 10 -19 22 8 8 44 -3 44 -13z m-70 -59 c0 -5 -12 -10 -27
-9 l-28 1 25 8 c14 4 26 8 28 9 1 1 2 -3 2 -9z"/>
<path d="M75 350 c-4 -6 15 -10 50 -10 35 0 54 4 50 10 -3 6 -26 10 -50 10
-24 0 -47 -4 -50 -10z"/>
<path d="M517 195 c-4 -8 -2 -17 3 -20 6 -4 7 -18 4 -32 -5 -19 -3 -24 6 -21
17 5 34 54 26 73 -7 19 -32 19 -39 0z"/>
<path d="M1260 195 c-16 -19 -5 -47 17 -43 22 4 29 43 9 51 -8 3 -20 -1 -26
-8z"/>
</g>
</svg>
