<?xml version="1.0" standalone="no"?>
<!DOCTYPE svg PUBLIC "-//W3C//DTD SVG 20010904//EN"
 "http://www.w3.org/TR/2001/REC-SVG-20010904/DTD/svg10.dtd">
<svg version="1.0" xmlns="http://www.w3.org/2000/svg"
 width="145.000000pt" height="164.000000pt" viewBox="0 0 145.000000 164.000000"
 preserveAspectRatio="xMidYMid meet">
<metadata>
Created by potrace 1.16, written by Peter Selinger 2001-2019
</metadata>
<g transform="translate(0.000000,164.000000) scale(0.100000,-0.100000)"
fill="#000000" stroke="none">
<path d="M1030 1556 c0 -8 -7 -19 -16 -24 -13 -7 -14 -18 -5 -73 6 -35 11 -67
11 -71 0 -11 -122 -10 -139 1 -12 8 -13 18 -3 61 18 78 17 82 -18 62 -39 -22
-41 -31 -24 -88 8 -26 14 -75 14 -108 l0 -61 -21 33 c-24 36 -26 58 -15 120 4
23 4 42 -1 42 -4 0 -23 -18 -41 -40 l-34 -41 30 -33 c16 -19 42 -57 57 -85 16
-28 32 -51 37 -51 4 0 8 33 8 74 0 84 -4 80 93 92 l57 6 0 -85 c0 -47 -4 -97
-10 -111 -11 -30 3 -35 36 -12 12 8 60 17 115 21 51 4 96 9 98 11 3 3 4 60 3
127 -2 67 2 145 7 172 5 28 7 53 3 56 -4 4 -60 10 -124 14 -103 6 -118 5 -118
-9z m204 -62 c3 -26 6 -100 6 -165 l0 -119 -47 -1 c-112 -2 -144 -1 -148 3 -9
9 -9 298 0 307 12 11 51 17 126 20 l56 1 7 -46z m-372 -31 c-3 -16 -7 -22 -10
-15 -4 13 4 42 11 42 2 0 2 -12 -1 -27z m-76 -100 c-10 -10 -19 5 -10 18 6 11
8 11 12 0 2 -7 1 -15 -2 -18z"/>
<path d="M1050 1400 c0 -29 2 -32 23 -26 12 4 52 10 90 13 37 3 67 9 67 14 0
4 -33 9 -72 11 -40 2 -81 8 -90 12 -15 7 -18 3 -18 -24z"/>
<path d="M1055 1321 c-9 -22 10 -34 33 -22 12 6 46 12 77 12 30 1 58 6 61 10
3 5 2 9 -3 9 -108 7 -163 3 -168 -9z"/>
<path d="M649 1526 c-2 -3 -54 -7 -114 -10 -155 -8 -187 -14 -181 -35 7 -22
11 -120 5 -124 -2 -3 -39 -7 -83 -10 l-79 -6 6 80 c3 43 2 79 -2 79 -4 0 -15
-6 -24 -13 -16 -11 -17 -21 -7 -107 6 -52 10 -116 8 -142 l-3 -48 -44 72 c-44
70 -44 72 -32 116 13 48 6 69 -13 38 -6 -11 -19 -28 -28 -38 -21 -22 -23 -34
-5 -45 7 -4 40 -50 73 -100 32 -51 62 -93 67 -93 4 0 7 40 7 89 l0 89 78 4
c42 3 80 3 85 1 4 -2 7 -45 7 -95 l0 -90 33 6 c17 4 82 12 142 19 l110 12 1
140 c0 77 4 157 8 178 8 33 0 48 -15 33z m-24 -43 c4 -10 10 -80 12 -155 5
-114 3 -138 -8 -138 -8 0 -60 -2 -116 -3 -56 -2 -106 -1 -112 2 -15 10 -25
201 -12 247 9 32 15 40 37 42 14 1 33 6 42 12 9 5 47 10 83 10 54 0 68 -3 74
-17z"/>
<path d="M492 1448 c-7 -7 -12 -17 -12 -23 0 -7 -12 -10 -29 -7 -20 3 -30 -1
-35 -13 -10 -26 1 -34 39 -25 30 7 35 5 35 -11 0 -14 -7 -19 -29 -19 -27 0
-60 -24 -48 -36 3 -3 21 -1 41 4 38 11 37 12 40 -40 1 -10 6 -17 11 -15 6 1 9
17 7 35 -3 31 -2 32 32 32 20 0 36 5 36 10 0 6 -16 10 -36 10 -28 0 -35 4 -32
17 2 10 17 20 36 24 47 10 51 19 9 19 -33 0 -37 3 -37 25 0 27 -9 32 -28 13z"/>
<path d="M1362 1165 c1 -47 13 -50 29 -8 6 18 6 30 -2 39 -20 24 -28 15 -27
-31z"/>
<path d="M747 1183 c-9 -14 -2 -73 8 -75 14 -2 29 46 22 66 -7 17 -23 21 -30
9z"/>
<path d="M437 1013 c-9 -8 -9 -68 0 -76 3 -4 14 0 23 8 9 8 44 18 78 21 60 7
62 6 72 -20 5 -15 10 -47 10 -72 l0 -44 -38 0 c-21 0 -41 2 -44 5 -3 3 -1 28
4 56 5 28 8 52 6 54 -2 2 -13 -5 -26 -15 -21 -17 -22 -23 -13 -55 8 -30 7 -37
-6 -42 -9 -4 -29 1 -44 9 -15 9 -30 14 -33 10 -10 -9 -7 -72 4 -72 6 0 10 8
10 18 0 12 9 18 35 19 l35 3 0 -45 c0 -25 5 -45 10 -45 6 0 10 20 10 45 l0 45
45 0 45 0 0 -69 0 -70 -97 -3 c-54 -2 -104 -1 -111 1 -10 3 -12 31 -9 125 2
66 7 130 11 142 7 18 4 20 -28 16 -41 -5 -41 -5 -19 -38 14 -22 15 -45 10
-165 -3 -76 -3 -139 0 -139 4 0 15 8 25 17 14 13 44 18 128 21 l110 5 0 122
c0 86 4 133 15 158 8 20 15 39 15 43 0 4 -41 3 -91 -1 -84 -6 -93 -5 -113 14
-12 12 -26 18 -29 14z m200 -65 c-3 -8 -6 -5 -6 6 -1 11 2 17 5 13 3 -3 4 -12
1 -19z"/>
<path d="M1024 997 c-3 -8 -1 -31 4 -51 10 -33 9 -84 -3 -239 -5 -67 -5 -68
17 -62 51 15 66 17 165 30 l51 7 7 91 c4 51 5 115 2 144 -4 41 -2 50 9 46 8
-3 14 1 14 11 0 13 -12 16 -57 17 -111 1 -168 5 -185 13 -12 6 -20 3 -24 -7z
m199 -26 l29 -1 -4 -134 c-1 -74 -5 -136 -8 -139 -3 -2 -38 -7 -77 -10 l-73
-6 0 75 c0 71 1 75 26 84 14 6 39 10 55 10 19 0 28 4 24 11 -4 6 -24 9 -46 8
-21 -2 -41 0 -45 4 -4 4 -16 7 -26 7 -15 0 -18 8 -18 44 0 43 1 45 33 48 17 2
48 2 67 1 19 -1 48 -2 63 -2z m-154 -248 c1 -18 -3 -33 -9 -33 -6 0 -9 32 -9
78 1 71 2 73 10 32 4 -25 8 -60 8 -77z"/>
<path d="M846 991 c-4 -5 -2 -40 3 -78 10 -73 13 -193 5 -193 -10 0 -42 87
-49 133 -7 52 -11 56 -31 30 -18 -25 -17 -43 5 -67 10 -12 29 -47 41 -78 29
-72 50 -76 50 -10 0 56 10 74 42 79 13 2 32 5 43 7 11 2 29 4 40 5 15 1 17 3
6 10 -7 5 -30 7 -51 4 -58 -8 -80 9 -80 62 0 24 5 47 10 50 6 3 10 17 10 31 0
17 -5 24 -19 24 -11 0 -22 -4 -25 -9z m21 -33 c-3 -8 -6 -5 -6 6 -1 11 2 17 5
13 3 -3 4 -12 1 -19z"/>
<path d="M153 947 c-2 -4 0 -13 5 -20 17 -20 30 -118 24 -190 l-4 -68 -35 53
c-29 44 -34 60 -33 103 2 27 2 54 1 58 0 5 -19 -6 -41 -23 l-41 -32 40 -43
c22 -24 54 -68 71 -99 44 -78 60 -74 60 14 0 81 8 89 100 99 77 8 64 26 -19
26 -38 0 -72 2 -75 5 -4 5 7 69 20 113 5 14 0 17 -31 15 -20 -2 -39 -7 -42
-11z m47 -29 c0 -18 -2 -20 -9 -8 -6 8 -7 18 -5 22 9 14 14 9 14 -14z m-110
-99 c0 -18 -2 -19 -15 -9 -15 12 -12 30 6 30 5 0 9 -10 9 -21z"/>
<path d="M723 653 c5 -44 24 -55 33 -19 8 33 -1 56 -21 56 -12 0 -15 -9 -12
-37z"/>
<path d="M1336 672 c-9 -14 0 -66 12 -70 13 -4 27 42 18 63 -6 16 -22 20 -30
7z"/>
<path d="M456 413 c7 -25 6 -26 -29 -20 -38 6 -64 -11 -31 -19 16 -4 18 -13
16 -59 l-4 -55 -51 0 c-29 0 -62 3 -75 6 -30 8 -39 47 -18 79 23 35 21 39 -25
40 -44 1 -59 -9 -34 -23 19 -10 34 -69 35 -135 l0 -48 -28 29 c-52 53 -72 85
-72 113 0 19 -5 29 -15 29 -8 0 -15 -6 -15 -13 0 -8 -9 -22 -20 -32 -23 -21
-27 -47 -6 -39 21 8 55 -13 108 -68 39 -39 48 -55 48 -83 0 -19 5 -35 10 -35
6 0 10 33 10 80 l0 80 76 0 77 0 -7 -81 -7 -81 23 16 c15 11 44 16 85 16 57 0
83 12 51 23 -7 2 0 6 15 9 24 5 27 2 25 -16 -2 -13 2 -21 12 -21 13 0 14 18
12 116 -3 93 -1 123 12 148 19 35 13 56 -13 46 -41 -16 -111 -13 -135 6 -32
25 -38 24 -30 -8z m145 -55 c1 -32 -1 -72 -4 -74 -1 -1 -30 -4 -64 -8 -42 -5
-63 -3 -63 4 0 5 21 10 47 10 62 0 44 16 -25 22 l-54 5 6 -31 c3 -17 2 -53 -3
-81 -8 -45 -9 -47 -11 -15 -4 71 2 155 11 164 16 17 72 34 117 35 41 1 42 0
43 -31z m-476 -68 c3 -5 1 -10 -4 -10 -6 0 -11 5 -11 10 0 6 2 10 4 10 3 0 8
-4 11 -10z m475 -30 c0 -5 -13 -10 -29 -10 -16 0 -36 -3 -45 -6 -9 -3 -16 -1
-16 4 0 10 24 16 73 21 9 0 17 -3 17 -9z m6 -97 c-3 -3 -36 -7 -73 -9 -58 -3
-63 -2 -38 7 17 6 44 10 62 10 36 -2 51 13 27 27 -14 8 -14 11 3 27 17 18 18
18 21 -19 2 -21 1 -40 -2 -43z m-71 27 c-28 -12 -65 -12 -65 0 0 6 19 10 43 9
32 0 37 -2 22 -9z"/>
<path d="M1050 430 c0 -5 -13 -10 -30 -10 -34 0 -36 -6 -15 -46 29 -56 22 -65
-47 -62 -69 3 -65 -3 -52 79 6 35 6 36 -25 31 -33 -5 -37 -12 -21 -42 5 -10
11 -52 13 -94 l3 -76 -34 32 c-31 30 -33 37 -28 76 3 23 2 42 -3 42 -8 0 -61
-82 -61 -94 0 -3 9 -6 19 -6 10 0 41 -20 69 -45 27 -24 52 -42 56 -38 3 3 3
23 0 45 -6 36 -5 39 29 53 20 8 50 15 67 15 l30 0 0 -81 0 -81 28 7 c15 4 69
10 120 14 50 4 94 10 96 12 2 2 7 62 11 134 l7 130 -88 0 c-49 0 -101 3 -116
8 -18 4 -28 4 -28 -3z m192 -34 c4 -6 8 -59 8 -118 l0 -108 -99 0 c-55 0 -102
4 -105 9 -10 16 -19 157 -12 184 3 15 13 26 24 26 9 0 40 3 67 8 69 12 109 12
117 -1z"/>
<path d="M1186 369 c-3 -8 -7 -27 -9 -44 -3 -25 -4 -24 -6 10 -2 40 -2 40 -16
15 -11 -19 -14 -21 -15 -7 0 21 -20 23 -20 2 0 -8 -4 -15 -10 -15 -5 0 -10 9
-10 20 0 11 -4 20 -9 20 -5 0 -7 -9 -4 -20 4 -15 0 -20 -16 -20 -11 0 -21 -4
-21 -10 0 -5 8 -10 18 -10 11 0 17 -8 18 -25 2 -20 -3 -25 -23 -25 -13 0 -21
-4 -18 -10 3 -5 15 -10 26 -10 10 0 19 -4 19 -10 0 -5 -9 -10 -21 -10 -11 0
-17 -5 -14 -10 4 -6 10 -8 15 -5 5 3 11 1 14 -3 6 -10 67 -8 84 2 6 3 12 0 15
-6 10 -28 16 1 18 85 2 82 -4 118 -15 86z m-66 -65 c0 -8 -5 -12 -10 -9 -6 4
-8 11 -5 16 9 14 15 11 15 -7z m27 -6 c-3 -8 -6 -5 -6 6 -1 11 2 17 5 13 3 -3
4 -12 1 -19z m-27 -68 c0 -5 -4 -10 -10 -10 -5 0 -10 5 -10 10 0 6 5 10 10 10
6 0 10 -4 10 -10z"/>
<path d="M1343 193 c-18 -7 -16 -43 2 -43 18 0 31 28 19 39 -5 5 -15 6 -21 4z"/>
<path d="M713 130 c1 -44 11 -51 27 -21 17 32 12 61 -9 61 -17 0 -20 -6 -18
-40z"/>
</g>
</svg>
