<?xml version="1.0" standalone="no"?>
<!DOCTYPE svg PUBLIC "-//W3C//DTD SVG 20010904//EN"
 "http://www.w3.org/TR/2001/REC-SVG-20010904/DTD/svg10.dtd">
<svg version="1.0" xmlns="http://www.w3.org/2000/svg"
 width="108.000000pt" height="54.000000pt" viewBox="0 0 108.000000 54.000000"
 preserveAspectRatio="xMidYMid meet">
<metadata>
Created by potrace 1.16, written by Peter Selinger 2001-2019
</metadata>
<g transform="translate(0.000000,54.000000) scale(0.100000,-0.100000)"
fill="#000000" stroke="none">
<path d="M367 483 c-12 -3 -15 -11 -11 -29 6 -22 -1 -27 -77 -62 -46 -22 -102
-45 -124 -52 -22 -7 -44 -16 -50 -21 -5 -5 -17 -9 -27 -9 -10 0 -18 -8 -19
-17 -1 -10 -3 -35 -4 -55 l-4 -38 53 0 c80 0 118 -10 111 -28 -8 -21 5 -102
16 -102 5 0 9 25 9 55 0 30 4 55 9 55 6 0 21 -15 34 -32 69 -96 79 -109 84
-105 2 3 -12 30 -31 60 -40 63 -42 67 -22 67 8 0 30 -25 48 -55 38 -63 53 -70
44 -20 -6 29 -4 34 9 29 19 -8 19 0 -1 32 -20 29 -11 43 16 26 17 -11 20 -10
20 8 0 24 8 25 32 3 15 -14 18 -14 18 -1 0 12 25 16 137 21 75 4 174 7 220 7
47 0 83 4 83 10 0 6 -89 11 -231 12 l-232 3 -26 47 c-14 25 -23 50 -19 54 8 7
183 14 391 14 71 0 117 4 117 10 0 6 -95 10 -266 10 l-265 0 3 52 c3 55 -3 62
-45 51z m33 -33 c0 -5 -4 -10 -10 -10 -5 0 -10 5 -10 10 0 6 5 10 10 10 6 0
10 -4 10 -10z m-23 -115 l-3 -30 -8 33 c-10 37 -22 41 -31 11 -5 -15 1 -29 20
-49 20 -21 26 -36 23 -60 -3 -32 -3 -32 -31 24 -26 52 -47 65 -47 30 0 -8 -6
-13 -12 -12 -7 2 -14 -7 -16 -19 -2 -12 -10 -24 -19 -27 -14 -6 -15 1 -9 50 5
48 4 55 -9 50 -8 -3 -15 -3 -15 0 0 3 33 20 73 38 71 33 72 33 80 13 4 -12 6
-35 4 -52z m-171 -60 c3 -25 5 -48 2 -50 -4 -4 -84 21 -101 32 -8 5 68 61 85
62 4 1 10 -19 14 -44z m-101 15 c-3 -5 -10 -10 -16 -10 -5 0 -9 5 -9 10 0 6 7
10 16 10 8 0 12 -4 9 -10z m330 -20 c15 -28 14 -30 -4 -30 -19 0 -31 18 -31
46 0 24 19 15 35 -16z m-91 -43 c30 -39 32 -47 11 -47 -8 0 -24 18 -35 40 -25
49 -11 52 24 7z m-239 -5 c-3 -3 -11 0 -18 7 -9 10 -8 11 6 5 10 -3 15 -9 12
-12z m190 -13 c11 -17 -1 -21 -15 -4 -8 9 -8 15 -2 15 6 0 14 -5 17 -11z m85
-71 c0 -19 -2 -20 -10 -8 -13 19 -13 30 0 30 6 0 10 -10 10 -22z"/>
<path d="M954 448 c-2 -4 0 -26 6 -50 5 -24 10 -82 10 -130 0 -52 4 -88 10
-88 6 0 10 24 10 53 0 61 18 167 31 182 5 5 9 17 9 27 0 14 -7 17 -36 15 -20
-1 -38 -5 -40 -9z m40 -33 c-4 -8 -8 -15 -10 -15 -2 0 -4 7 -4 15 0 8 4 15 10
15 5 0 7 -7 4 -15z"/>
</g>
</svg>
