<?xml version="1.0" standalone="no"?>
<!DOCTYPE svg PUBLIC "-//W3C//DTD SVG 20010904//EN"
 "http://www.w3.org/TR/2001/REC-SVG-20010904/DTD/svg10.dtd">
<svg version="1.0" xmlns="http://www.w3.org/2000/svg"
 width="168.000000pt" height="48.000000pt" viewBox="0 0 168.000000 48.000000"
 preserveAspectRatio="xMidYMid meet">
<metadata>
Created by potrace 1.16, written by Peter Selinger 2001-2019
</metadata>
<g transform="translate(0.000000,48.000000) scale(0.100000,-0.100000)"
fill="#000000" stroke="none">
<path d="M0 240 c0 -153 4 -240 10 -240 6 0 10 87 10 240 0 153 -4 240 -10
240 -6 0 -10 -87 -10 -240z"/>
<path d="M351 384 c-12 -15 -21 -33 -21 -40 0 -10 -13 -14 -39 -14 -33 0 -40
4 -45 26 l-7 25 -30 -32 -29 -31 25 -26 c14 -13 25 -29 25 -35 0 -10 -73 -6
-152 9 -30 5 -38 3 -38 -8 0 -12 21 -16 100 -21 103 -5 130 -15 130 -48 0 -11
4 -19 8 -19 5 0 14 -11 20 -25 17 -36 3 -39 -139 -31 -102 6 -119 4 -119 -8 0
-22 187 -24 563 -7 110 5 201 11 203 14 2 2 -98 4 -223 4 -126 0 -238 3 -249
7 -12 4 -24 16 -27 26 -5 21 7 27 18 10 5 -8 11 -8 19 -1 7 6 61 13 121 16 59
3 111 7 113 10 3 3 -47 5 -111 5 l-117 0 0 43 c0 89 -12 83 198 91 102 4 197
9 211 12 50 9 56 -4 60 -146 1 -71 6 -130 11 -130 4 0 9 40 12 88 4 59 12 104
27 136 34 77 32 80 -47 73 -38 -4 -156 -10 -262 -14 -212 -7 -200 -10 -175 50
11 26 -11 21 -34 -9z m503 -78 c-3 -14 -10 -26 -15 -26 -14 0 -11 48 4 53 17
6 19 3 11 -27z m-614 -15 c0 -11 -3 -11 -14 -1 -8 6 -12 18 -9 27 5 12 7 12
14 1 5 -7 9 -19 9 -27z m90 -35 c0 -45 -4 -65 -14 -69 -18 -7 -36 12 -36 39 0
13 -4 25 -9 28 -5 3 -11 17 -13 30 -4 22 -1 25 26 29 17 2 34 5 39 5 4 1 7
-27 7 -62z"/>
<path d="M300 250 c0 -5 5 -10 11 -10 5 0 7 5 4 10 -3 6 -8 10 -11 10 -2 0 -4
-4 -4 -10z"/>
<path d="M1600 370 c-22 -6 -25 -11 -23 -45 2 -21 -1 -41 -6 -44 -5 -4 -43 -5
-86 -3 -65 3 -76 6 -73 20 3 17 14 19 106 21 24 1 41 4 39 9 -3 4 -31 6 -64 5
-32 -1 -64 4 -71 9 -9 8 -16 8 -24 0 -16 -16 -248 -16 -283 0 -28 13 -45 4
-27 -14 8 -8 42 -13 87 -13 41 0 75 -2 75 -5 -1 -3 -12 -13 -26 -24 -21 -15
-36 -17 -75 -12 -31 4 -49 3 -49 -4 0 -5 -10 -10 -21 -10 -17 0 -19 3 -10 14
9 10 9 16 1 21 -6 4 -10 16 -8 27 2 12 -3 23 -10 26 -10 3 -12 -10 -10 -55 l4
-58 64 3 c36 2 73 5 82 8 11 3 19 -3 23 -18 4 -13 13 -38 22 -57 10 -23 12
-36 4 -40 -6 -4 -3 -11 9 -19 24 -15 33 -1 21 30 -5 14 -5 31 0 40 6 11 4 20
-6 28 -8 7 -15 9 -15 4 0 -11 -20 18 -20 30 0 4 7 6 15 3 8 -4 38 0 67 8 57
14 78 8 78 -26 0 -14 -7 -19 -29 -19 -16 0 -36 -3 -45 -6 -27 -10 -7 -24 35
-24 35 0 39 -3 39 -25 0 -14 -5 -25 -12 -25 -9 0 -9 -3 0 -12 7 -7 12 -25 12
-40 0 -15 5 -28 11 -28 6 0 8 9 4 20 -9 29 12 51 40 44 13 -3 26 -1 29 5 5 7
-5 11 -28 11 -32 0 -36 3 -36 25 0 14 6 25 13 25 6 0 49 3 94 6 80 6 81 6 85
-17 4 -22 5 -23 13 -5 5 12 2 50 -8 99 -17 79 -16 97 5 97 7 0 9 -15 5 -40 -3
-22 -1 -42 3 -45 9 -6 20 87 11 96 -3 3 -17 3 -31 -1z m-254 -60 c31 0 32 -26
2 -34 -47 -12 -78 -7 -78 13 0 21 17 32 38 25 8 -2 25 -4 38 -4z m51 -22 c-3
-8 -6 -5 -6 6 -1 11 2 17 5 13 3 -3 4 -12 1 -19z m191 -59 l3 -27 -68 3 c-37
1 -80 3 -94 4 -22 1 -26 5 -21 26 4 25 5 26 91 23 85 -3 86 -3 89 -29z"/>
<path d="M40 321 c0 -13 24 -17 81 -13 72 6 60 22 -16 22 -36 0 -65 -4 -65 -9z"/>
<path d="M440 252 c0 -4 83 -9 185 -10 125 -2 185 0 185 7 0 7 -62 11 -185 11
-102 0 -185 -4 -185 -8z"/>
<path d="M1055 158 c4 -35 8 -64 9 -65 1 -1 24 4 51 12 26 8 60 16 74 17 14 1
1 4 -29 7 -38 4 -58 2 -66 -6 -16 -19 -20 -16 -19 12 2 37 15 45 73 48 28 1
48 5 44 9 -12 12 -66 12 -89 0 -27 -15 -33 -15 -33 -2 0 6 8 10 18 10 14 0 15
2 2 10 -35 23 -42 13 -35 -52z"/>
<path d="M645 190 c-39 -5 -26 -7 58 -8 59 -1 107 2 107 7 0 10 -89 11 -165 1z"/>
<path d="M40 175 c0 -16 8 -17 92 -11 92 6 132 16 66 16 -19 0 -63 3 -97 6
-54 6 -61 5 -61 -11z"/>
<path d="M936 103 c9 -49 11 -51 25 -20 14 30 6 57 -16 57 -13 0 -15 -7 -9
-37z"/>
<path d="M1518 123 c12 -2 32 -2 45 0 12 2 2 4 -23 4 -25 0 -35 -2 -22 -4z"/>
<path d="M1602 100 c0 -14 2 -19 5 -12 2 6 2 18 0 25 -3 6 -5 1 -5 -13z"/>
<path d="M1660 106 c0 -8 5 -18 10 -21 6 -3 10 3 10 14 0 12 -4 21 -10 21 -5
0 -10 -6 -10 -14z"/>
</g>
</svg>
