<?xml version="1.0" standalone="no"?>
<!DOCTYPE svg PUBLIC "-//W3C//DTD SVG 20010904//EN"
 "http://www.w3.org/TR/2001/REC-SVG-20010904/DTD/svg10.dtd">
<svg version="1.0" xmlns="http://www.w3.org/2000/svg"
 width="117.000000pt" height="63.000000pt" viewBox="0 0 117.000000 63.000000"
 preserveAspectRatio="xMidYMid meet">
<metadata>
Created by potrace 1.16, written by Peter Selinger 2001-2019
</metadata>
<g transform="translate(0.000000,63.000000) scale(0.100000,-0.100000)"
fill="#000000" stroke="none">
<path d="M753 592 c-26 -4 -28 -15 -12 -62 9 -24 9 -34 0 -40 -8 -4 -10 -17
-5 -34 6 -24 4 -27 -12 -24 -11 2 -18 8 -18 14 1 5 5 33 9 62 l7 54 -28 -4
c-19 -2 -28 -8 -26 -18 2 -8 6 -36 9 -62 l6 -48 -127 0 c-126 0 -126 0 -126
24 0 12 5 37 11 55 6 18 9 34 7 36 -9 9 -79 -8 -75 -19 19 -50 18 -52 -25 -71
-24 -10 -65 -28 -93 -41 -74 -33 -175 -65 -185 -59 -19 12 -19 -16 0 -47 25
-42 25 -60 0 -83 -11 -10 -20 -21 -20 -25 0 -4 24 -10 53 -13 30 -3 72 -11 95
-18 l42 -12 0 -54 c0 -29 5 -53 10 -53 6 0 10 23 10 51 0 48 1 50 23 43 63
-20 112 -50 115 -72 6 -43 27 -17 24 29 l-4 44 46 -44 c64 -63 71 -42 8 22
-29 29 -52 59 -52 67 0 8 19 -5 44 -29 24 -24 46 -39 49 -34 4 6 -12 27 -33
48 -22 22 -40 43 -40 47 0 22 45 3 87 -37 26 -24 51 -45 56 -45 19 0 2 28 -33
55 -21 17 -39 34 -40 38 0 4 46 8 103 7 280 -3 409 0 405 11 -3 8 -82 11 -267
10 l-264 -2 -28 27 c-20 19 -29 38 -29 60 0 31 2 33 54 44 76 16 201 10 202
-10 1 -8 2 -21 3 -28 2 -26 21 0 21 29 0 24 4 30 18 27 13 -3 17 -13 15 -48
-3 -57 7 -85 17 -50 5 14 8 42 9 63 l1 37 130 0 130 0 0 -130 c0 -72 4 -130 9
-130 5 0 11 42 15 93 4 50 14 120 23 155 9 34 14 64 12 66 -2 2 -20 6 -39 8
-31 3 -35 1 -32 -19 3 -23 2 -23 -122 -23 l-126 0 11 27 c7 19 6 28 -2 34 -9
5 -9 18 -1 50 12 48 8 57 -25 51z m-333 -82 c0 -5 -4 -10 -10 -10 -5 0 -10 5
-10 10 0 6 5 10 10 10 6 0 10 -4 10 -10z m-20 -116 l0 -57 -21 27 c-20 25 -49
35 -49 16 0 -5 16 -22 35 -37 21 -17 35 -37 35 -50 0 -31 -5 -29 -41 12 -30
34 -49 44 -49 27 0 -5 20 -31 45 -58 41 -44 56 -74 38 -74 -4 0 -26 19 -50 42
-23 23 -46 38 -50 34 -5 -4 18 -32 50 -62 50 -46 72 -84 50 -84 -4 0 -31 23
-60 52 -54 54 -89 61 -38 8 31 -33 29 -36 -11 -18 -26 12 -26 14 -22 85 3 40
2 73 -2 73 -3 0 -14 -6 -24 -13 -16 -12 -17 -19 -8 -63 6 -27 9 -50 7 -52 -7
-7 -107 52 -115 69 -12 22 39 59 205 150 72 39 75 38 75 -27z m659 29 c0 -25
-1 -25 -8 -8 -5 11 -7 23 -4 28 8 14 13 7 12 -20z m-924 -93 c-21 -23 -47 -27
-39 -6 5 13 21 21 48 25 5 0 1 -8 -9 -19z m305 -60 c0 -5 -4 -10 -10 -10 -5 0
-10 5 -10 10 0 6 5 10 10 10 6 0 10 -4 10 -10z m-280 -60 c11 -9 7 -10 -20 -4
-41 8 -44 9 -35 23 6 11 20 6 55 -19z"/>
</g>
</svg>
