<?xml version="1.0" standalone="no"?>
<!DOCTYPE svg PUBLIC "-//W3C//DTD SVG 20010904//EN"
 "http://www.w3.org/TR/2001/REC-SVG-20010904/DTD/svg10.dtd">
<svg version="1.0" xmlns="http://www.w3.org/2000/svg"
 width="125.000000pt" height="52.000000pt" viewBox="0 0 125.000000 52.000000"
 preserveAspectRatio="xMidYMid meet">
<metadata>
Created by potrace 1.16, written by Peter Selinger 2001-2019
</metadata>
<g transform="translate(0.000000,52.000000) scale(0.100000,-0.100000)"
fill="#000000" stroke="none">
<path d="M170 465 c-7 -8 -28 -15 -47 -15 -34 0 -35 -1 -30 -32 3 -18 11 -108
18 -200 14 -178 29 -211 23 -49 -2 53 0 130 4 171 l7 75 30 -3 c56 -7 396
-131 360 -132 -21 0 -181 -21 -207 -26 -25 -5 -28 -3 -28 20 0 14 -4 26 -10
26 -5 0 -10 -11 -10 -25 0 -14 -4 -25 -10 -25 -5 0 -10 17 -10 37 0 46 -17 33
-23 -17 -4 -33 -4 -33 -5 8 -1 23 -6 42 -12 42 -5 0 -11 -19 -11 -42 -2 -33
-3 -36 -6 -13 -7 57 -17 61 -23 10 l-7 -50 -1 53 c-1 28 -6 52 -12 52 -6 0
-10 -43 -9 -112 1 -96 3 -105 9 -60 4 29 11 56 14 59 5 6 10 -37 9 -74 -1 -7
3 -13 8 -13 5 0 10 21 11 48 1 43 2 44 5 10 5 -45 22 -51 21 -8 -1 17 2 33 5
37 4 3 7 -5 7 -20 0 -14 5 -29 10 -32 6 -4 10 6 10 24 0 16 5 33 10 36 6 4 10
-5 10 -19 0 -14 5 -26 10 -26 6 0 10 11 10 25 0 19 6 25 33 30 146 24 179 29
230 33 40 4 6 26 -134 86 -81 34 -167 77 -193 94 -55 37 -50 36 -66 17z m45
-32 c18 -14 18 -15 2 -9 -10 3 -23 6 -28 6 -5 0 -9 5 -9 10 0 14 12 12 35 -7z
m-86 -10 c0 -5 -4 -17 -9 -28 -8 -18 -9 -17 -9 8 -1 15 4 27 9 27 6 0 10 -3 9
-7z"/>
<path d="M755 451 c-45 -7 -43 1 -24 -115 6 -38 8 -93 4 -122 -3 -30 -5 -54
-3 -54 2 0 33 12 69 26 35 14 100 39 144 54 220 79 222 80 164 95 -21 5 -27 2
-31 -12 -4 -13 -29 -27 -83 -46 -43 -15 -81 -25 -83 -22 -6 6 7 87 16 102 6
10 23 8 72 -7 75 -23 77 -23 65 -11 -6 5 -46 22 -90 36 -44 14 -99 40 -122 56
-23 16 -45 28 -50 28 -4 -1 -26 -5 -48 -8z m60 -29 c-3 -3 -11 0 -18 7 -9 10
-8 11 6 5 10 -3 15 -9 12 -12z m-68 -39 c-3 -10 -5 -2 -5 17 0 19 2 27 5 18 2
-10 2 -26 0 -35z m63 17 c13 -9 13 -10 0 -10 -12 0 -15 -18 -17 -92 -1 -61 -6
-94 -15 -99 -7 -4 -14 -6 -16 -4 -7 7 -4 131 3 167 11 52 17 56 45 38z m84
-31 c-4 -6 -7 -39 -8 -72 -1 -42 -5 -62 -15 -65 -11 -4 -12 7 -7 54 9 74 15
94 27 94 6 0 7 -5 3 -11z m-53 -94 c-4 -36 -11 -60 -20 -63 -11 -4 -13 8 -9
65 3 39 9 76 13 83 15 24 23 -22 16 -85z"/>
<path d="M545 170 c-4 -6 -2 -17 5 -25 6 -7 10 -20 8 -29 -2 -8 1 -16 6 -18
12 -4 29 49 22 67 -6 17 -32 20 -41 5z"/>
<path d="M1115 170 c-3 -5 -4 -14 0 -20 8 -13 35 -1 35 16 0 16 -26 19 -35 4z"/>
</g>
</svg>
