<?xml version="1.0" standalone="no"?>
<!DOCTYPE svg PUBLIC "-//W3C//DTD SVG 20010904//EN"
 "http://www.w3.org/TR/2001/REC-SVG-20010904/DTD/svg10.dtd">
<svg version="1.0" xmlns="http://www.w3.org/2000/svg"
 width="111.000000pt" height="62.000000pt" viewBox="0 0 111.000000 62.000000"
 preserveAspectRatio="xMidYMid meet">
<metadata>
Created by potrace 1.16, written by Peter Selinger 2001-2019
</metadata>
<g transform="translate(0.000000,62.000000) scale(0.100000,-0.100000)"
fill="#000000" stroke="none">
<path d="M662 552 c-5 -15 -7 -51 -5 -78 4 -41 2 -52 -11 -57 -23 -9 -31 17
-18 61 14 44 10 49 -24 33 -19 -8 -24 -16 -19 -29 5 -9 10 -29 13 -44 l4 -28
-101 0 c-114 0 -118 3 -82 72 21 43 18 50 -16 37 -13 -5 -35 -9 -49 -9 -18 0
-23 -5 -21 -21 1 -14 -7 -26 -28 -38 -17 -9 -52 -29 -78 -44 -27 -16 -78 -37
-114 -48 -36 -10 -68 -21 -71 -23 -6 -7 18 -66 27 -66 4 0 25 15 47 34 44 38
223 140 232 132 2 -3 7 -29 10 -58 l5 -53 -25 29 c-14 16 -27 25 -31 20 -3 -5
8 -25 24 -43 38 -44 37 -56 -1 -13 -26 28 -32 31 -50 20 -11 -7 -20 -16 -20
-20 0 -3 23 -32 51 -63 65 -70 59 -82 -7 -15 -27 27 -52 50 -56 50 -21 0 -3
-28 52 -83 53 -53 70 -77 56 -77 -3 0 -35 30 -71 68 -63 64 -66 69 -61 105 6
38 -3 47 -33 28 -10 -6 -12 -26 -9 -74 4 -73 3 -73 -65 -23 -31 23 -42 16 -51
-30 -7 -30 -6 -31 34 -38 59 -9 91 -33 88 -64 -2 -14 3 -27 10 -29 8 -3 12 6
12 26 l0 31 50 -20 c28 -11 55 -20 60 -20 24 0 5 19 -47 47 -54 29 -58 34 -61
69 l-3 39 92 -97 c50 -54 97 -98 105 -98 21 0 17 18 -6 30 -23 12 -28 42 -5
34 20 -8 19 5 -2 28 -29 33 -4 32 29 -1 38 -37 52 -23 17 16 l-24 25 23 -6
c15 -5 22 -3 22 6 0 8 8 14 18 15 9 0 124 4 255 9 l237 7 0 -26 c0 -15 5 -27
11 -27 9 0 10 24 6 82 -5 67 -2 94 14 138 10 30 20 59 22 64 2 11 -86 8 -93
-3 -3 -5 -39 -11 -80 -14 -63 -6 -79 -4 -97 11 -22 17 -63 101 -63 128 0 24
-18 15 -28 -14z m-272 -79 c0 -10 -5 -25 -10 -33 -8 -13 -10 -13 -10 2 0 9 -3
23 -6 32 -4 11 -1 16 10 16 9 0 16 -8 16 -17z m324 -29 c9 -23 8 -24 -14 -24
-11 0 -20 2 -20 4 0 12 13 36 20 36 4 0 11 -7 14 -16z m269 -39 c-7 -21 -13
-19 -13 6 0 11 4 18 10 14 5 -3 7 -12 3 -20z m-29 -32 c3 -21 6 -59 6 -84 l0
-46 -137 -6 c-75 -4 -187 -7 -249 -7 l-112 0 -41 39 c-45 43 -52 74 -20 91 11
6 60 14 110 17 l89 6 0 -30 c0 -36 24 -62 37 -40 9 17 85 57 107 57 8 0 19 7
23 14 5 10 30 16 73 19 36 2 75 4 86 5 17 2 23 -5 28 -35z m-294 8 c0 -13 -26
-32 -33 -24 -14 13 -6 33 13 33 11 0 20 -4 20 -9z m-302 -136 c-3 -3 -20 13
-38 37 l-33 43 38 -37 c22 -21 36 -40 33 -43z m67 -13 c-3 -3 -16 5 -28 17
l-22 23 28 -17 c15 -10 25 -20 22 -23z m-305 -32 c13 -8 13 -10 -2 -10 -9 0
-20 5 -23 10 -8 13 5 13 25 0z"/>
</g>
</svg>
