<?xml version="1.0" standalone="no"?>
<!DOCTYPE svg PUBLIC "-//W3C//DTD SVG 20010904//EN"
 "http://www.w3.org/TR/2001/REC-SVG-20010904/DTD/svg10.dtd">
<svg version="1.0" xmlns="http://www.w3.org/2000/svg"
 width="98.000000pt" height="63.000000pt" viewBox="0 0 98.000000 63.000000"
 preserveAspectRatio="xMidYMid meet">
<metadata>
Created by potrace 1.16, written by Peter Selinger 2001-2019
</metadata>
<g transform="translate(0.000000,63.000000) scale(0.100000,-0.100000)"
fill="#000000" stroke="none">
<path d="M520 587 c0 -16 -47 -61 -73 -70 -10 -4 -17 -13 -15 -21 2 -8 0 -14
-3 -13 -12 4 -40 -27 -35 -38 2 -7 -7 -18 -21 -24 -23 -11 -25 -16 -19 -51 4
-27 2 -40 -5 -40 -7 0 -6 -9 4 -24 9 -13 13 -33 10 -45 -7 -28 -25 -16 -18 12
3 12 1 28 -4 36 -8 12 -12 12 -25 -2 -21 -21 -21 -21 15 -73 17 -25 29 -47 27
-50 -3 -2 -22 21 -42 51 -21 30 -42 52 -47 49 -5 -3 -6 -11 -2 -17 4 -8 1 -7
-9 1 -14 11 -20 11 -38 0 -18 -11 -20 -19 -16 -51 4 -20 2 -37 -3 -37 -25 0
-102 41 -96 51 8 12 102 57 188 89 31 12 57 26 57 32 0 6 -8 8 -17 5 -35 -10
-209 -58 -246 -68 -38 -10 -39 -11 -32 -46 4 -24 2 -38 -6 -43 -20 -13 0 -30
35 -30 18 0 54 -3 80 -6 l46 -7 0 -63 c0 -36 4 -64 10 -64 6 0 10 21 10 48 0
26 4 52 8 58 11 16 86 -3 114 -29 28 -25 58 -31 58 -12 0 7 -7 18 -15 25 -9 7
-13 15 -10 18 3 3 12 -3 19 -14 8 -10 17 -16 21 -12 4 4 -3 21 -15 37 -21 31
-13 44 10 16 17 -20 31 -19 24 3 -5 15 -4 15 10 -2 8 -10 20 -16 27 -14 8 3 7
9 -5 20 -9 9 -16 19 -16 23 0 3 78 4 173 3 l172 -3 -2 -32 c-3 -37 14 -54 21
-21 3 13 8 66 11 118 l6 95 -208 -3 -208 -4 24 26 c27 28 46 33 55 14 5 -10 8
-10 12 1 4 8 25 34 47 58 l40 44 -22 27 c-12 15 -26 39 -32 55 -11 28 -29 37
-29 14z m48 -94 c-2 -9 -14 -23 -27 -31 -24 -16 -24 -16 -19 17 3 22 0 35 -9
38 -7 3 -10 9 -7 14 9 14 66 -20 62 -38z m-69 -40 c2 -20 -17 -15 -29 8 -9 15
-8 24 2 36 11 14 13 13 19 -8 4 -13 7 -30 8 -36z m-45 -19 c22 -8 20 -21 -3
-27 -19 -5 -36 15 -24 27 8 7 8 7 27 0z m-47 -83 c-15 -6 -20 8 -12 36 l8 28
6 -30 c4 -16 3 -32 -2 -34z m387 -52 c3 -17 6 -43 6 -56 l0 -25 -181 4 -182 4
-23 30 c-13 16 -24 39 -24 52 l0 22 199 0 199 0 6 -31z m23 9 c-3 -8 -6 -5 -6
6 -1 11 2 17 5 13 3 -3 4 -12 1 -19z m-712 -48 c-3 -5 -10 -10 -16 -10 -5 0
-9 5 -9 10 0 6 7 10 16 10 8 0 12 -4 9 -10z m162 -37 c7 -10 20 -30 28 -45
l15 -27 -33 10 c-17 5 -33 9 -34 9 -2 0 -3 16 -3 35 0 39 6 43 27 18z m47 -33
c-6 -5 -24 21 -24 34 0 6 6 1 14 -10 8 -10 12 -21 10 -24z m27 -32 c11 -21 11
-22 -4 -9 -10 7 -17 17 -17 22 0 15 9 10 21 -13z"/>
<path d="M797 579 c-15 -9 -17 -18 -11 -55 6 -40 5 -44 -15 -44 -20 0 -21 3
-15 51 7 51 7 51 -15 39 -18 -9 -21 -17 -16 -40 9 -42 1 -50 -40 -37 -40 12
-44 10 -47 -24 -3 -23 -1 -24 45 -21 l47 4 0 -37 c0 -21 4 -34 10 -30 6 3 10
21 10 40 0 20 6 35 15 38 19 8 28 -9 21 -39 -4 -14 -3 -30 1 -37 5 -7 10 4 13
28 l5 40 63 5 c79 6 78 26 0 21 -57 -3 -58 -3 -58 24 0 14 5 36 11 47 13 25 0
40 -24 27z"/>
</g>
</svg>
