<?xml version="1.0" standalone="no"?>
<!DOCTYPE svg PUBLIC "-//W3C//DTD SVG 20010904//EN"
 "http://www.w3.org/TR/2001/REC-SVG-20010904/DTD/svg10.dtd">
<svg version="1.0" xmlns="http://www.w3.org/2000/svg"
 width="115.000000pt" height="71.000000pt" viewBox="0 0 115.000000 71.000000"
 preserveAspectRatio="xMidYMid meet">
<metadata>
Created by potrace 1.16, written by Peter Selinger 2001-2019
</metadata>
<g transform="translate(0.000000,71.000000) scale(0.100000,-0.100000)"
fill="#000000" stroke="none">
<path d="M183 703 c103 -2 271 -2 375 0 103 1 18 2 -188 2 -206 0 -291 -1
-187 -2z"/>
<path d="M788 703 c6 -2 18 -2 25 0 6 3 1 5 -13 5 -14 0 -19 -2 -12 -5z"/>
<path d="M848 703 c6 -2 18 -2 25 0 6 3 1 5 -13 5 -14 0 -19 -2 -12 -5z"/>
<path d="M740 666 c-13 -35 -13 -46 2 -46 7 0 23 -12 36 -27 26 -31 26 -22 0
49 -19 51 -26 55 -38 24z"/>
<path d="M470 654 c-14 -35 -13 -42 9 -49 39 -12 36 -55 -5 -73 -24 -12 -33
-32 -13 -32 6 0 8 -9 4 -21 -5 -13 -1 -25 10 -33 15 -11 15 -13 1 -25 -9 -8
-16 -18 -16 -24 0 -7 4 -7 12 1 7 7 18 12 26 12 8 0 23 11 34 25 16 21 23 23
35 14 12 -10 9 -15 -16 -32 -27 -16 -41 -37 -26 -37 16 0 83 58 76 66 -5 5
-14 25 -20 44 -11 33 -11 36 21 63 33 27 58 35 58 17 0 -5 -13 -19 -30 -32
-37 -27 -38 -42 -3 -74 23 -21 25 -27 13 -34 -34 -20 -55 -39 -48 -45 4 -4 20
2 36 14 17 12 35 21 41 21 7 0 14 7 17 15 7 16 34 21 34 5 0 -5 -16 -20 -35
-33 -58 -39 -28 -38 36 1 32 21 59 44 59 52 0 11 -3 11 -12 2 -19 -19 -28 -14
-44 25 l-16 37 34 29 c18 16 25 26 16 23 -14 -4 -23 5 -38 39 -11 24 -20 49
-20 54 0 13 -17 15 -23 4 -2 -5 -7 -20 -11 -34 -5 -22 -2 -28 16 -32 18 -5 19
-8 8 -22 -11 -14 -16 -11 -36 22 -13 21 -24 46 -24 56 0 26 -19 20 -31 -10
-10 -26 -6 -33 26 -47 10 -4 -13 -26 -27 -26 -10 0 -38 55 -38 74 0 26 -20 28
-29 4 -7 -18 -2 -30 20 -58 l29 -34 -23 -24 c-13 -14 -22 -37 -23 -55 0 -43
-26 -42 -35 1 -7 33 -5 36 36 70 18 15 20 33 3 30 -14 -4 -38 39 -38 70 0 30
-18 28 -30 -4z m250 -91 c0 -5 -14 -17 -30 -28 -35 -24 -36 -29 -10 -55 11
-11 15 -22 10 -25 -15 -9 -27 2 -38 35 -10 26 -8 32 19 55 30 25 49 32 49 18z"/>
<path d="M836 632 c-3 -6 -2 -52 4 -104 5 -51 10 -112 10 -134 l0 -41 -160 -8
c-88 -4 -182 -4 -210 0 l-50 7 0 49 c0 27 -5 49 -10 49 -6 0 -36 -13 -68 -29
-67 -33 -174 -70 -252 -86 -45 -9 -55 -15 -53 -31 6 -46 5 -81 -2 -101 -7 -22
-5 -23 39 -23 26 0 67 -5 92 -11 l44 -11 0 -49 c0 -63 18 -73 22 -12 3 43 5
48 26 45 12 -2 47 -14 77 -28 49 -21 55 -27 55 -54 0 -16 4 -30 9 -30 12 0 22
45 14 65 -6 16 -4 16 20 0 15 -9 27 -13 27 -7 0 6 -5 14 -12 18 -12 8 22 27
52 29 8 0 40 4 70 8 30 3 130 9 223 12 l167 5 0 -30 c0 -17 5 -30 10 -30 6 0
10 26 10 58 1 31 7 86 15 122 22 98 26 93 -61 85 l-76 -8 5 119 c2 66 6 128 8
139 3 14 -2 21 -18 23 -11 2 -24 -1 -27 -6z m-426 -244 c0 -19 -2 -20 -10 -8
-13 19 -13 30 0 30 6 0 10 -10 10 -22z m-37 -15 c3 -16 9 -37 12 -48 6 -19 6
-19 -9 -1 -8 10 -19 15 -25 11 -20 -12 -11 -41 19 -63 17 -13 30 -30 30 -39 0
-13 -7 -10 -30 12 -16 16 -32 37 -36 47 -9 29 -24 21 -24 -14 0 -30 -1 -31
-16 -12 -15 18 -15 18 -11 -9 4 -23 1 -27 -14 -22 -15 5 -19 1 -19 -19 0 -15
6 -26 13 -26 8 0 24 -11 37 -25 13 -14 18 -25 12 -25 -7 0 -12 4 -12 9 0 5
-14 12 -31 16 -30 7 -30 7 -28 66 1 32 1 61 -2 63 -2 3 -15 -4 -29 -14 -24
-18 -24 -19 -7 -54 13 -29 14 -36 3 -36 -26 0 -127 52 -123 63 3 12 248 140
278 146 4 0 9 -11 12 -26z m621 -50 c-10 -40 -14 -41 -14 -5 0 18 5 32 10 32
6 0 8 -11 4 -27z m-39 0 c3 -10 9 -45 12 -79 l6 -61 -164 -7 c-296 -11 -307
-11 -330 10 -21 19 -22 19 -15 -3 6 -19 4 -22 -11 -16 -21 8 -33 22 -33 42 0
11 3 11 15 1 12 -10 15 -10 15 3 0 8 -7 20 -15 27 -24 20 -18 46 13 58 39 16
88 21 262 28 85 3 157 8 159 10 2 2 21 4 42 4 26 0 39 -5 44 -17z m-510 -3
c-3 -5 -10 -10 -16 -10 -5 0 -9 5 -9 10 0 6 7 10 16 10 8 0 12 -4 9 -10z
m-340 -24 c-11 -8 -23 -12 -28 -9 -13 8 3 23 26 23 20 0 20 0 2 -14z m265 -81
c18 -19 32 -37 29 -39 -5 -5 -79 59 -79 68 0 14 18 4 50 -29z m-265 -5 c3 -5
-3 -10 -14 -10 -12 0 -21 5 -21 10 0 6 6 10 14 10 8 0 18 -4 21 -10z m240 -21
c38 -33 62 -69 47 -69 -13 0 -102 80 -102 91 0 17 19 9 55 -22z"/>
<path d="M908 635 c-8 -8 3 -249 12 -258 4 -4 10 45 13 109 4 64 11 122 17
129 5 6 7 15 3 18 -8 8 -38 9 -45 2z"/>
<path d="M759 537 c-9 -21 -6 -28 21 -56 18 -17 34 -30 37 -27 7 6 -30 106
-40 106 -4 0 -12 -11 -18 -23z"/>
</g>
</svg>
