<?xml version="1.0" standalone="no"?>
<!DOCTYPE svg PUBLIC "-//W3C//DTD SVG 20010904//EN"
 "http://www.w3.org/TR/2001/REC-SVG-20010904/DTD/svg10.dtd">
<svg version="1.0" xmlns="http://www.w3.org/2000/svg"
 width="111.000000pt" height="60.000000pt" viewBox="0 0 111.000000 60.000000"
 preserveAspectRatio="xMidYMid meet">
<metadata>
Created by potrace 1.16, written by Peter Selinger 2001-2019
</metadata>
<g transform="translate(0.000000,60.000000) scale(0.100000,-0.100000)"
fill="#000000" stroke="none">
<path d="M278 593 c156 -2 408 -2 560 0 152 1 25 2 -283 2 -308 0 -433 -1
-277 -2z"/>
<path d="M509 573 c-1 -5 -1 -45 1 -90 l2 -83 -70 0 c-39 0 -73 4 -77 10 -3 5
1 26 10 46 18 44 13 54 -26 54 -25 0 -30 -4 -27 -21 2 -16 -14 -29 -87 -69
-50 -27 -116 -59 -148 -71 -58 -22 -68 -32 -43 -46 18 -11 29 -50 16 -58 -23
-14 -7 -32 42 -45 89 -22 118 -40 118 -72 0 -15 5 -28 10 -28 6 0 10 9 10 20
0 43 45 19 76 -41 13 -27 29 -49 34 -49 14 0 13 23 -2 38 -6 6 -8 15 -4 19 4
4 11 1 16 -7 5 -8 12 -11 15 -8 4 4 0 17 -9 30 -9 12 -16 32 -16 43 1 12 13
-3 31 -39 21 -40 34 -55 41 -48 7 7 2 22 -16 48 -14 21 -26 45 -26 53 0 7 11
-3 25 -23 14 -20 25 -41 25 -46 0 -6 5 -10 10 -10 16 0 12 22 -10 55 -11 17
-20 33 -20 37 0 9 114 17 368 24 l222 6 0 -31 c0 -17 5 -31 10 -31 6 0 10 36
10 88 0 69 5 99 25 147 14 33 25 61 25 63 0 1 -18 2 -40 2 -36 0 -40 -3 -40
-24 l0 -24 -224 1 c-123 1 -228 5 -231 9 -4 4 -5 14 -2 23 5 12 24 15 93 15
64 0 85 3 82 12 -3 8 -24 13 -50 14 -25 1 -62 4 -82 8 l-37 7 7 50 c6 45 5 49
-15 49 -11 0 -22 -3 -22 -7z m-181 -218 c-1 -47 -5 -80 -9 -73 -18 28 -21 -5
-4 -47 19 -51 15 -73 -5 -25 -13 30 -30 41 -30 18 0 -7 9 -28 21 -47 11 -18
18 -35 15 -38 -2 -3 -14 13 -25 35 -34 67 -54 66 -26 -1 6 -13 4 -16 -10 -11
-15 6 -16 15 -11 63 4 30 9 66 13 79 5 21 3 23 -23 20 -32 -3 -33 -7 -19 -92
9 -55 9 -55 -79 8 l-50 35 40 36 c36 34 179 125 196 125 4 0 6 -38 6 -85z
m702 45 c0 -5 -2 -10 -4 -10 -3 0 -8 5 -11 10 -3 6 -1 10 4 10 6 0 11 -4 11
-10z m-525 -47 c6 -17 7 -17 19 0 12 16 33 17 242 15 l229 -3 3 -72 3 -73
-236 -1 c-129 -1 -250 -3 -267 -4 -18 -1 -52 0 -74 3 -40 4 -42 6 -59 57 -28
80 -19 88 96 93 27 2 39 -3 44 -15z m-390 -123 c3 -5 2 -10 -4 -10 -5 0 -13 5
-16 10 -3 6 -2 10 4 10 5 0 13 -4 16 -10z m245 0 c0 -5 -2 -10 -4 -10 -3 0 -8
5 -11 10 -3 6 -1 10 4 10 6 0 11 -4 11 -10z"/>
</g>
</svg>
