<?xml version="1.0" standalone="no"?>
<!DOCTYPE svg PUBLIC "-//W3C//DTD SVG 20010904//EN"
 "http://www.w3.org/TR/2001/REC-SVG-20010904/DTD/svg10.dtd">
<svg version="1.0" xmlns="http://www.w3.org/2000/svg"
 width="114.000000pt" height="80.000000pt" viewBox="0 0 114.000000 80.000000"
 preserveAspectRatio="xMidYMid meet">
<metadata>
Created by potrace 1.16, written by Peter Selinger 2001-2019
</metadata>
<g transform="translate(0.000000,80.000000) scale(0.100000,-0.100000)"
fill="#000000" stroke="none">
<path d="M1 796 c10 -9 1139 -14 1139 -6 0 6 -215 10 -572 10 -314 0 -569 -2
-567 -4z"/>
<path d="M762 761 c-8 -5 -12 -22 -10 -46 2 -25 -2 -39 -11 -43 -11 -4 -12 5
-7 43 7 42 6 46 -11 43 -12 -2 -19 -13 -20 -33 0 -17 -2 -36 -2 -42 -1 -7 -6
-13 -12 -13 -8 0 -10 14 -6 45 6 42 -3 59 -18 35 -5 -7 -11 -8 -19 -1 -8 6
-19 4 -36 -9 -20 -15 -23 -21 -12 -31 27 -28 14 -42 -33 -36 l-45 7 0 -101 0
-101 40 7 c33 6 40 4 40 -9 0 -9 5 -16 10 -16 6 0 10 9 10 20 0 24 15 27 24 4
5 -14 7 -14 22 0 8 9 21 13 27 9 7 -4 22 -6 35 -4 12 1 22 -3 22 -10 0 -8 5
-8 17 2 9 8 24 14 34 14 10 0 19 5 19 10 0 6 -10 10 -23 10 -13 0 -23 7 -25
18 -2 10 3 17 12 17 9 0 16 5 16 10 0 6 -4 10 -10 10 -5 0 -10 20 -10 45 0 38
3 45 20 45 11 0 20 5 20 10 0 6 -9 10 -21 10 -18 0 -20 4 -13 45 6 45 1 52
-24 36z m-102 -73 c0 -10 -7 -18 -15 -18 -16 0 -19 17 -9 45 5 13 8 14 15 3 5
-7 9 -21 9 -30z m40 -48 c0 -11 -4 -20 -10 -20 -5 0 -10 9 -10 20 0 11 5 20
10 20 6 0 10 -9 10 -20z m57 -28 c1 -35 -2 -42 -17 -42 -16 0 -18 6 -15 38 2
20 4 41 4 45 1 5 7 7 14 5 6 -3 13 -23 14 -46z m-147 23 c0 -10 -10 -15 -30
-15 -47 0 -35 27 13 29 9 1 17 -6 17 -14z m48 3 c-6 -18 -28 -21 -28 -4 0 9 7
16 16 16 9 0 14 -5 12 -12z m-8 -58 c0 -11 -4 -20 -9 -20 -14 0 -23 18 -16 30
10 17 25 11 25 -10z m50 5 c0 -8 -7 -15 -15 -15 -8 0 -15 7 -15 15 0 8 7 15
15 15 8 0 15 -7 15 -15z m-90 -5 c0 -5 -16 -10 -36 -10 -21 0 -33 4 -29 10 3
6 19 10 36 10 16 0 29 -4 29 -10z m90 -56 c0 -8 -7 -14 -15 -14 -15 0 -21 21
-9 33 10 9 24 -2 24 -19z m48 9 c-4 -22 -22 -20 -26 1 -2 10 3 16 13 16 10 0
15 -7 13 -17z m-148 -3 c0 -5 -11 -10 -24 -10 -14 0 -28 5 -31 10 -4 6 7 10
24 10 17 0 31 -4 31 -10z m48 -1 c-2 -6 -8 -10 -13 -10 -5 0 -11 4 -13 10 -2
6 4 11 13 11 9 0 15 -5 13 -11z"/>
<path d="M295 550 c-44 -27 -115 -61 -158 -77 l-78 -28 2 -43 c2 -33 -1 -46
-14 -53 -29 -17 -19 -26 33 -32 28 -3 74 -19 103 -34 l52 -28 3 -57 c4 -74 22
-76 22 -2 l0 56 53 -31 c40 -23 53 -36 55 -58 5 -38 22 -54 23 -22 1 13 1 30
0 36 -4 27 18 11 46 -32 15 -25 31 -45 36 -45 17 0 5 30 -33 80 -58 78 -49 93
11 18 27 -35 54 -64 60 -66 21 -8 6 19 -47 84 -32 39 -51 70 -45 72 12 4 62
-47 103 -105 13 -18 26 -33 31 -33 18 0 3 26 -45 81 -49 56 -57 78 -24 66 8
-3 33 -30 56 -59 45 -56 60 -68 60 -46 0 7 -19 32 -41 56 -22 23 -39 42 -37
43 2 0 95 2 208 5 113 2 217 6 233 9 27 4 27 4 27 -55 0 -100 17 -67 22 43 3
70 11 120 26 162 12 32 22 61 22 63 0 6 -80 -7 -91 -14 -5 -2 -4 -16 1 -30
l10 -24 -283 2 -282 3 3 40 c2 22 10 53 18 69 18 38 20 36 -23 35 -27 0 -62
-15 -118 -49z m106 -11 l-10 -24 0 26 c-1 14 2 29 6 33 12 12 14 -9 4 -35z
m-27 -40 c6 -63 -5 -102 -27 -93 -7 2 -26 -9 -41 -25 l-29 -30 43 -48 c42 -48
65 -83 56 -83 -3 0 -31 12 -62 28 l-56 27 5 63 c2 34 2 64 -2 66 -3 2 -16 0
-28 -5 -20 -7 -21 -11 -12 -38 6 -16 9 -39 7 -50 -3 -19 -5 -19 -35 -5 -36 18
-93 66 -93 79 0 16 74 74 125 97 27 12 52 25 55 28 8 9 74 50 81 50 3 0 9 -27
13 -61z m649 -29 c-8 -31 -23 -34 -23 -6 0 16 6 26 14 26 9 0 12 -7 9 -20z
m-33 -92 l0 -53 -248 -3 -248 -4 -27 41 c-15 22 -27 45 -27 50 0 14 28 16 303
19 l247 3 0 -53z m-530 -50 c0 -5 -6 -8 -14 -8 -18 0 -46 43 -46 71 0 19 4 17
30 -17 16 -21 30 -42 30 -46z m-80 26 c0 -8 -4 -12 -10 -9 -5 3 -10 13 -10 21
0 8 5 12 10 9 6 -3 10 -13 10 -21z m0 -66 c0 -5 -4 -8 -8 -8 -8 0 -42 53 -42
67 0 10 49 -49 50 -59z"/>
</g>
</svg>
