<?xml version="1.0" standalone="no"?>
<!DOCTYPE svg PUBLIC "-//W3C//DTD SVG 20010904//EN"
 "http://www.w3.org/TR/2001/REC-SVG-20010904/DTD/svg10.dtd">
<svg version="1.0" xmlns="http://www.w3.org/2000/svg"
 width="147.000000pt" height="136.000000pt" viewBox="0 0 147.000000 136.000000"
 preserveAspectRatio="xMidYMid meet">
<metadata>
Created by potrace 1.16, written by Peter Selinger 2001-2019
</metadata>
<g transform="translate(0.000000,136.000000) scale(0.100000,-0.100000)"
fill="#000000" stroke="none">
<path d="M1101 1299 c-13 -29 -12 -32 18 -58 17 -15 31 -38 31 -49 0 -12 4
-22 9 -22 10 0 71 -103 71 -120 0 -10 -39 -11 -73 -3 -16 4 -67 89 -67 113 0
5 9 10 20 10 11 0 20 4 20 9 0 6 -12 9 -27 8 -24 -2 -29 4 -42 45 -9 27 -18
48 -21 48 -3 0 -13 -14 -22 -30 -15 -26 -15 -32 -2 -44 8 -8 14 -17 14 -20 0
-12 -66 -5 -90 9 -35 20 -40 19 -40 -10 0 -21 -5 -25 -28 -25 -16 0 -31 -3
-34 -6 -3 -3 0 -29 8 -57 8 -31 14 -102 14 -174 0 -81 4 -123 11 -123 6 0 10
16 9 38 -3 57 -1 72 10 72 6 0 10 -25 10 -55 0 -30 5 -55 10 -55 6 0 10 25 10
55 0 42 3 55 15 55 10 0 15 -11 16 -32 1 -18 2 -44 3 -57 1 -13 7 -26 14 -29
11 -3 12 9 7 62 -5 46 -4 66 4 66 6 0 11 -18 11 -42 0 -48 11 -45 13 4 2 31 5
33 40 36 20 2 37 -1 37 -7 0 -5 -13 -36 -30 -67 -28 -54 -29 -59 -13 -76 25
-28 33 -22 33 25 0 75 60 161 92 129 9 -9 -26 -85 -53 -119 -9 -10 -8 -18 6
-33 26 -29 32 -25 37 28 3 26 14 65 24 87 l19 40 93 3 92 2 0 -55 c0 -30 5
-55 10 -55 6 0 10 53 10 138 0 120 3 144 21 181 11 24 17 47 12 51 -4 4 -52 6
-106 3 -105 -6 -115 -23 -14 -23 31 0 57 -3 57 -7 1 -5 3 -31 5 -60 3 -42 1
-53 -13 -56 -15 -4 -15 -5 1 -6 12 -1 17 -7 15 -18 -3 -15 -16 -19 -71 -21
-65 -3 -78 3 -56 25 7 7 0 32 -28 84 -21 41 -43 80 -50 86 -11 13 -26 53 -37
106 -8 35 -18 34 -35 -4z m306 -141 c-3 -8 -6 -5 -6 6 -1 11 2 17 5 13 3 -3 4
-12 1 -19z m-312 -51 c14 -30 25 -59 25 -65 0 -6 6 -12 13 -15 24 -9 -9 -27
-62 -34 -48 -5 -53 -4 -49 13 2 11 12 19 23 20 40 2 46 4 40 14 -4 7 -43 8
-106 4 l-99 -6 1 23 c2 55 14 73 54 86 22 6 61 12 87 12 l47 1 26 -53z m-228
1 c-3 -7 -5 -2 -5 12 0 14 2 19 5 13 2 -7 2 -19 0 -25z m31 -128 c0 -22 -4
-40 -9 -40 -5 0 -9 21 -9 46 0 25 4 43 9 39 6 -3 9 -23 9 -45z m320 38 c-7
-20 -58 -23 -58 -4 0 11 10 16 31 16 20 0 29 -4 27 -12z m-268 -13 c0 -8 -7
-15 -15 -15 -8 0 -15 7 -15 15 0 8 7 15 15 15 8 0 15 -7 15 -15z m40 0 c0 -8
-4 -15 -10 -15 -5 0 -10 7 -10 15 0 8 5 15 10 15 6 0 10 -7 10 -15z m118 -42
c-4 -24 -98 -32 -98 -9 0 10 13 16 43 19 23 2 46 4 50 5 5 1 7 -6 5 -15z m85
-3 c-6 -24 -63 -29 -63 -6 0 16 15 24 47 25 16 1 20 -3 16 -19z m187 3 c0 -17
-9 -20 -85 -22 -47 -1 -85 0 -85 3 0 25 16 31 90 34 73 3 80 2 80 -15z m-430
-8 c0 -8 -7 -15 -15 -15 -16 0 -20 12 -8 23 11 12 23 8 23 -8z m40 0 c0 -8 -4
-15 -10 -15 -5 0 -10 7 -10 15 0 8 5 15 10 15 6 0 10 -7 10 -15z"/>
<path d="M371 1233 c-10 -21 -9 -28 1 -34 23 -15 28 -10 28 26 0 42 -12 45
-29 8z"/>
<path d="M307 1222 c-10 -10 -17 -26 -17 -35 0 -14 -10 -17 -48 -17 -26 0 -63
5 -82 10 -26 8 -38 7 -45 -2 -5 -7 -23 -15 -40 -16 -38 -5 -41 -8 -24 -28 10
-12 15 -56 17 -153 2 -75 8 -140 13 -145 5 -6 9 7 10 35 1 40 2 42 9 14 4 -16
9 -25 10 -20 1 6 3 15 5 20 1 6 3 15 3 21 2 13 52 16 52 3 0 -5 5 -9 10 -9 6
0 10 23 10 50 0 29 5 50 11 50 5 0 7 -4 4 -10 -3 -5 -1 -10 4 -10 6 0 11 4 11
9 0 9 108 26 116 19 2 -3 -10 -19 -27 -36 -31 -31 -89 -46 -89 -22 0 6 -4 10
-10 10 -5 0 -10 -18 -10 -40 0 -22 5 -40 10 -40 6 0 10 9 10 20 0 11 7 23 15
27 29 10 29 -7 1 -36 -27 -28 -27 -30 -10 -55 20 -31 26 -26 42 30 14 50 32
67 67 62 l25 -3 -26 -39 -26 -38 20 -21 c24 -23 26 -20 37 45 9 55 34 68 133
68 l84 0 -4 -50 c-2 -28 1 -50 7 -50 6 0 13 49 16 117 4 65 10 146 14 180 l7
62 -26 -3 c-14 -1 -29 -6 -33 -9 -3 -4 -21 -7 -40 -7 -18 0 -33 -4 -33 -10 0
-5 16 -10 35 -10 24 0 35 -5 37 -15 0 -8 1 -21 2 -27 1 -7 -8 -13 -19 -14 -58
-3 -66 -5 -60 -14 3 -5 23 -10 45 -10 37 0 58 -19 45 -41 -9 -14 -116 -4 -126
12 -14 22 -11 37 9 42 13 4 11 5 -5 6 -13 0 -23 7 -23 15 0 8 -3 21 -6 30 -5
12 0 16 20 16 14 0 26 4 26 9 0 6 -31 7 -71 5 l-72 -5 6 35 c6 40 -2 45 -26
18z m293 -85 c0 -24 -3 -28 -10 -17 -13 20 -13 63 0 55 6 -3 10 -21 10 -38z
m-445 13 c-7 -12 22 -12 90 0 44 8 52 6 68 -12 9 -11 17 -24 17 -29 0 -11 -97
-12 -104 -1 -3 5 -15 8 -28 7 -20 -1 -23 -8 -24 -41 -1 -55 -2 -58 -19 -44
-10 9 -15 9 -15 1 0 -6 -5 -11 -11 -11 -6 0 -9 12 -7 28 2 19 8 26 21 24 11
-2 17 4 17 17 0 16 -5 19 -30 16 -21 -2 -30 1 -30 11 0 8 9 14 20 14 13 0 18
5 14 15 -4 10 0 15 11 15 9 0 13 -4 10 -10z m245 3 c0 -5 3 -18 6 -30 6 -20 3
-23 -24 -23 -31 0 -51 27 -37 50 7 12 55 14 55 3z m-300 -105 c0 -17 -3 -28
-7 -24 -9 9 -13 38 -7 48 10 15 14 8 14 -24z m110 7 c0 -14 -2 -25 -4 -25 -2
0 -6 11 -8 25 -3 14 -1 25 3 25 5 0 9 -11 9 -25z m145 4 c9 -28 -11 -41 -55
-34 -19 2 -45 4 -57 5 -18 0 -23 6 -23 25 0 24 2 25 64 25 57 0 65 -2 71 -21z
m67 9 c6 -45 0 -65 -27 -95 -28 -30 -75 -43 -75 -20 0 16 50 57 70 57 23 0 27
15 6 23 -8 3 -20 15 -26 26 -10 19 -8 21 20 21 16 0 31 -6 32 -12z m146 -58
c6 0 12 -12 12 -27 l0 -28 -84 0 c-81 0 -84 0 -74 20 23 43 30 47 82 41 28 -3
57 -6 64 -6z m-468 -42 c0 -21 -3 -29 -10 -22 -5 5 -7 19 -4 32 9 31 14 27 14
-10z m40 2 c0 -16 -5 -30 -10 -30 -14 0 -24 26 -16 45 10 26 26 16 26 -15z
m30 0 c0 -16 -4 -30 -10 -30 -5 0 -10 14 -10 30 0 17 5 30 10 30 6 0 10 -13
10 -30z"/>
<path d="M1280 1040 c0 -5 11 -9 25 -8 14 1 25 6 25 10 0 4 -11 8 -25 8 -14 0
-25 -4 -25 -10z"/>
<path d="M673 875 c2 -39 21 -47 31 -12 10 37 7 47 -13 47 -16 0 -19 -6 -18
-35z"/>
<path d="M549 550 c-1 -3 -2 -15 -3 -26 -1 -12 -28 -56 -61 -98 l-60 -77 -12
28 c-7 15 -15 49 -19 75 -5 34 -10 45 -20 41 -8 -3 -14 -1 -14 5 0 5 9 12 20
15 11 3 20 12 20 21 0 22 -10 20 -45 -9 l-29 -24 22 -23 c25 -27 55 -106 48
-125 -3 -8 3 -22 14 -33 27 -27 26 -52 -1 -48 -21 3 -53 78 -79 188 -7 27 -15
50 -19 50 -11 0 -51 -44 -51 -56 0 -5 14 -18 31 -28 27 -16 49 -50 49 -77 0
-12 -156 -12 -179 1 -12 6 -29 4 -55 -8 -33 -15 -36 -20 -29 -42 7 -25 9 -54
12 -187 1 -78 21 -104 21 -28 l0 45 43 1 c52 1 109 8 115 14 3 3 -31 5 -76 5
-66 0 -82 3 -82 15 0 9 9 15 23 15 12 1 59 3 105 6 82 5 97 -1 67 -26 -8 -7
-15 -17 -15 -22 0 -6 -11 -23 -25 -40 -14 -16 -25 -33 -25 -37 0 -7 43 -31 54
-31 2 0 9 23 16 50 7 28 16 53 21 56 5 3 9 16 9 28 0 17 7 25 25 28 14 3 25 4
25 3 0 -2 -13 -30 -30 -63 -16 -34 -30 -64 -30 -68 0 -10 33 -33 47 -34 12 0
29 88 25 127 -1 12 2 24 8 28 6 3 17 22 25 41 14 33 15 34 75 34 l61 0 -2 -85
c-2 -86 5 -117 16 -74 9 35 1 391 -9 412 -6 12 -4 17 7 17 10 0 13 -7 10 -20
-3 -11 -1 -20 5 -20 10 0 23 37 19 54 -2 9 -66 15 -68 6z m21 -130 l0 -70 -40
0 c-22 0 -40 5 -40 10 0 19 60 130 70 130 6 0 10 -31 10 -70z m-260 34 c0 -8
-4 -12 -10 -9 -5 3 -10 10 -10 16 0 5 5 9 10 9 6 0 10 -7 10 -16z m51 -150 c5
-15 7 -30 3 -33 -3 -3 -62 -8 -130 -10 -129 -3 -139 0 -114 39 9 13 11 13 20
0 8 -13 12 -13 32 0 13 8 55 17 93 21 39 3 73 6 78 7 4 1 12 -10 18 -24z m89
11 c0 -8 4 -15 9 -15 5 0 11 7 15 15 4 10 20 15 51 15 41 0 45 -2 45 -25 0
-21 -5 -25 -29 -25 -16 0 -42 -3 -58 -6 -24 -5 -31 -2 -41 21 -15 32 -15 35
-2 35 6 0 10 -7 10 -15z m-100 -75 c0 -20 -44 -31 -140 -37 -97 -6 -100 -5
-100 15 0 20 6 21 83 24 45 2 99 4 120 5 20 1 37 -2 37 -7z m70 6 c0 -13 -33
-34 -45 -30 -21 9 -6 34 21 34 13 0 24 -2 24 -4z m-40 -147 c-10 -35 -17 -45
-26 -37 -5 6 22 68 31 68 2 0 0 -14 -5 -31z m-94 -36 c-11 -11 -17 4 -9 23 7
18 8 18 11 1 2 -10 1 -21 -2 -24z"/>
<path d="M1270 555 c0 -2 5 -16 10 -31 12 -31 -1 -50 -82 -114 -33 -27 -44
-41 -37 -51 5 -8 8 -21 8 -29 -1 -20 -55 100 -70 153 -10 39 -12 40 -25 22
-19 -26 -18 -31 12 -70 25 -33 25 -55 1 -55 -12 0 -38 43 -51 84 -6 18 -7 18
-27 0 -19 -18 -20 -19 -2 -34 11 -8 25 -23 32 -32 12 -17 9 -18 -48 -18 -49 0
-65 4 -78 20 -22 25 -33 25 -33 1 0 -14 -8 -21 -27 -23 -22 -2 -27 -7 -24 -23
2 -11 5 -67 7 -125 2 -61 7 -106 13 -108 6 -2 11 10 11 27 0 21 5 31 15 31 10
0 15 -11 15 -35 0 -19 5 -35 10 -35 6 0 10 16 10 35 0 24 5 35 15 35 11 0 15
-12 15 -46 0 -27 4 -43 10 -39 6 3 10 26 10 51 0 30 4 43 11 38 6 -3 9 -17 6
-30 -2 -14 -1 -27 3 -29 4 -3 11 11 14 30 8 43 17 44 36 2 18 -39 32 -38 43 2
4 17 12 31 17 31 5 0 7 -7 4 -15 -7 -18 12 -45 32 -45 10 0 13 10 12 32 -3 32
-3 32 47 35 81 4 115 -4 115 -29 0 -14 4 -18 9 -13 6 6 11 82 12 170 2 106 7
171 16 193 7 17 12 32 11 33 -10 4 -78 7 -78 4z m19 -171 c-8 -10 -8 -14 0
-14 6 0 11 -9 11 -19 0 -15 -9 -20 -47 -23 -27 -3 -51 -3 -56 -1 -14 8 14 43
35 43 16 0 18 3 9 14 -10 11 -5 22 21 52 l33 38 3 -38 c2 -21 -2 -44 -9 -52z
m-319 -34 c-20 -5 -39 -5 -44 1 -6 5 7 9 35 8 l44 -1 -35 -8z m100 6 c0 -2 3
-11 6 -20 5 -13 -1 -16 -29 -16 -30 0 -35 3 -34 20 1 15 8 20 29 20 15 0 28
-2 28 -4z m70 -31 c11 -35 7 -55 -11 -55 -5 0 -7 11 -3 25 4 15 2 25 -5 25 -5
0 -15 9 -21 20 -9 17 -8 20 9 20 13 0 23 -11 31 -35z m-250 -5 c0 -5 -7 -10
-15 -10 -8 0 -15 5 -15 10 0 6 7 10 15 10 8 0 15 -4 15 -10z m53 -37 c-6 -15
-23 -18 -23 -4 0 5 3 17 6 26 5 12 9 14 14 4 5 -7 6 -18 3 -26z m357 9 c0 -17
-8 -19 -70 -18 -43 1 -70 5 -70 12 0 20 13 24 77 24 55 0 63 -2 63 -18z m-323
-14 c-3 -8 -6 -5 -6 6 -1 11 2 17 5 13 3 -3 4 -12 1 -19z m121 10 c-5 -15 -98
-24 -98 -10 0 17 14 22 58 22 30 0 42 -4 40 -12z m-200 -10 c-7 -19 -38 -22
-38 -4 0 10 9 16 21 16 12 0 19 -5 17 -12z m402 -40 c0 -12 -8 -18 -22 -19
-13 -1 -43 -3 -68 -5 -25 -2 -52 1 -60 6 -13 9 -12 12 5 26 14 10 39 14 83 13
53 -2 62 -5 62 -21z m-360 -13 c0 -26 -14 -33 -25 -15 -9 14 1 40 15 40 5 0
10 -11 10 -25z m31 -18 c-8 -8 -11 -5 -11 9 0 27 14 41 18 19 2 -9 -1 -22 -7
-28z m99 35 c0 -15 -24 -32 -47 -32 -16 0 -23 6 -23 20 0 16 7 20 35 20 19 0
35 -4 35 -8z m54 -7 c-4 -8 -10 -15 -15 -15 -5 0 -9 7 -9 15 0 8 7 15 15 15 9
0 12 -6 9 -15z m-224 1 c0 -2 -3 -11 -6 -20 -9 -23 -34 -20 -34 4 0 13 7 20
20 20 11 0 20 -2 20 -4z m157 -68 c-3 -8 -6 -5 -6 6 -1 11 2 17 5 13 3 -3 4
-12 1 -19z"/>
<path d="M458 218 c-14 -3 3 -6 41 -7 35 -1 61 2 58 5 -9 9 -71 11 -99 2z"/>
<path d="M1452 192 c-7 -5 -10 -16 -6 -25 9 -25 24 -20 24 8 0 28 0 28 -18 17z"/>
<path d="M683 145 c1 -40 14 -46 26 -12 10 26 4 47 -14 47 -8 0 -13 -13 -12
-35z"/>
<path d="M455 150 c3 -5 8 -10 11 -10 2 0 4 5 4 10 0 6 -5 10 -11 10 -5 0 -7
-4 -4 -10z"/>
</g>
</svg>
