<?xml version="1.0" standalone="no"?>
<!DOCTYPE svg PUBLIC "-//W3C//DTD SVG 20010904//EN"
 "http://www.w3.org/TR/2001/REC-SVG-20010904/DTD/svg10.dtd">
<svg version="1.0" xmlns="http://www.w3.org/2000/svg"
 width="114.000000pt" height="64.000000pt" viewBox="0 0 114.000000 64.000000"
 preserveAspectRatio="xMidYMid meet">
<metadata>
Created by potrace 1.16, written by Peter Selinger 2001-2019
</metadata>
<g transform="translate(0.000000,64.000000) scale(0.100000,-0.100000)"
fill="#000000" stroke="none">
<path d="M823 569 c-5 -18 -13 -20 -72 -17 -61 3 -66 2 -63 -17 2 -11 9 -23
15 -27 8 -5 6 -9 -6 -14 -28 -10 -20 -24 16 -25 30 -2 30 -2 5 -6 -28 -4 -36
-17 -18 -28 5 -3 7 -12 3 -20 -4 -12 4 -15 40 -15 42 0 45 2 43 23 -1 13 -6
28 -10 35 -5 8 1 12 20 12 22 0 25 -3 20 -22 -3 -13 -6 -31 -6 -40 0 -15 -9
-18 -54 -18 -30 0 -58 -5 -62 -11 -7 -12 -239 -8 -251 5 -5 5 5 76 18 126 3
11 -5 16 -29 18 -27 3 -35 -1 -39 -19 -4 -16 -38 -37 -126 -79 -65 -32 -139
-64 -164 -72 -38 -11 -43 -16 -38 -35 3 -13 -1 -39 -10 -59 -8 -20 -15 -39
-15 -43 0 -4 33 -13 74 -20 40 -7 78 -16 84 -20 6 -3 12 -31 14 -61 4 -65 23
-69 23 -5 0 25 1 45 2 45 2 0 20 -7 42 -16 25 -10 49 -30 67 -57 27 -41 46
-39 24 2 -16 30 6 27 26 -4 24 -36 36 -31 29 13 l-6 37 30 -35 c38 -44 41 -20
5 33 -14 21 -24 41 -21 43 2 3 18 -16 33 -41 28 -43 44 -56 44 -35 0 6 -10 24
-22 41 -19 26 -20 31 -8 39 21 14 30 12 36 -5 8 -19 24 -19 24 0 0 13 32 15
230 15 l230 0 0 -35 c0 -24 5 -35 15 -35 12 0 15 13 15 58 0 51 16 138 35 200
7 20 4 22 -30 22 -28 0 -38 -5 -42 -20 -5 -18 -14 -20 -84 -20 l-78 0 6 73 c3
39 12 87 19 106 17 42 18 38 -7 44 -15 4 -23 0 -26 -14z m-10 -48 c4 -1 7 -8
7 -17 0 -22 -64 -15 -68 8 -3 13 3 16 25 13 15 -2 31 -4 36 -4z m-386 -43 c-3
-8 -6 -5 -6 6 -1 11 2 17 5 13 3 -3 4 -12 1 -19z m-23 -63 l6 -50 -24 30 c-49
58 -44 4 5 -56 12 -15 19 -36 17 -50 -3 -22 -6 -20 -28 18 -14 24 -28 43 -32
43 -15 0 -7 -27 20 -71 42 -67 44 -69 37 -69 -3 0 -21 25 -40 55 -20 30 -40
55 -46 55 -16 0 -5 -24 46 -94 25 -35 45 -70 45 -78 0 -34 -15 -24 -47 31 -44
73 -79 118 -88 110 -3 -4 14 -38 38 -75 25 -38 43 -71 41 -73 -7 -7 -43 31
-50 53 -11 33 -35 66 -45 60 -5 -3 0 -23 11 -45 21 -41 17 -48 -14 -24 -16 12
-18 22 -13 60 5 36 3 47 -8 51 -26 10 -45 -14 -34 -43 5 -14 7 -28 4 -31 -7
-7 -97 50 -102 64 -2 7 10 22 28 35 31 22 262 149 265 146 1 -1 4 -24 8 -52z
m346 15 c0 -5 -4 -10 -10 -10 -5 0 -10 5 -10 10 0 6 5 10 10 10 6 0 10 -4 10
-10z m277 -82 c-3 -8 -6 -5 -6 6 -1 11 2 17 5 13 3 -3 4 -12 1 -19z m-34 -15
c3 -5 7 -33 8 -63 l4 -55 -245 2 -245 2 -37 43 c-66 76 -73 74 274 76 130 1
239 -1 241 -5z m-539 -78 c16 -24 16 -25 -4 -25 -15 0 -20 7 -20 25 0 14 2 25
4 25 2 0 11 -11 20 -25z m-334 -21 c14 -8 17 -13 7 -10 -10 3 -25 6 -33 6 -8
0 -14 5 -14 10 0 14 10 12 40 -6z"/>
</g>
</svg>
