<?xml version="1.0" standalone="no"?>
<!DOCTYPE svg PUBLIC "-//W3C//DTD SVG 20010904//EN"
 "http://www.w3.org/TR/2001/REC-SVG-20010904/DTD/svg10.dtd">
<svg version="1.0" xmlns="http://www.w3.org/2000/svg"
 width="112.000000pt" height="64.000000pt" viewBox="0 0 112.000000 64.000000"
 preserveAspectRatio="xMidYMid meet">
<metadata>
Created by potrace 1.16, written by Peter Selinger 2001-2019
</metadata>
<g transform="translate(0.000000,64.000000) scale(0.100000,-0.100000)"
fill="#000000" stroke="none">
<path d="M711 591 c-19 -34 -12 -53 29 -91 22 -20 40 -43 40 -51 0 -8 -27 -30
-60 -48 -33 -19 -60 -41 -60 -48 0 -8 -12 -13 -30 -13 -42 0 -38 11 15 39 25
13 45 29 45 35 0 6 -14 27 -31 46 -17 19 -38 44 -45 55 -13 17 -16 18 -24 5
-16 -25 -11 -46 13 -57 20 -10 20 -12 4 -18 -21 -9 -45 10 -58 43 -10 26 -24
23 -32 -8 -4 -16 1 -24 19 -32 27 -13 32 -33 9 -41 -9 -4 -29 11 -53 38 l-39
44 -12 -25 c-15 -33 -15 -33 15 -45 l27 -10 -39 -19 c-21 -11 -39 -20 -39 -20
-1 0 1 16 3 35 3 29 1 35 -14 35 -23 0 -46 -14 -45 -26 2 -12 -116 -61 -214
-88 l-80 -23 -3 -38 -3 -37 43 31 c44 32 237 121 262 121 10 0 15 -15 18 -50
3 -51 -4 -63 -20 -34 -10 19 -32 11 -32 -12 0 -8 -5 -14 -11 -14 -6 0 -9 -8
-7 -18 2 -9 -5 -24 -15 -32 -19 -15 -18 -17 7 -47 l27 -32 -33 10 c-18 5 -34
9 -35 9 -7 0 -2 58 6 87 12 40 1 49 -29 25 -19 -15 -21 -22 -11 -40 35 -66 -2
-69 -107 -7 -27 17 -30 17 -50 -1 -36 -30 -26 -41 40 -47 35 -3 78 -11 96 -17
30 -11 32 -15 32 -61 0 -27 5 -49 10 -49 6 0 10 21 10 46 0 42 1 45 22 39 13
-4 39 -14 58 -23 32 -16 35 -21 38 -64 3 -49 22 -68 22 -22 l0 25 25 -28 c18
-21 24 -24 25 -12 0 9 -7 22 -16 29 -8 8 -20 23 -25 34 -7 15 -3 13 16 -8 26
-28 49 -30 26 -2 -7 8 -10 20 -6 26 3 5 -4 25 -16 43 l-23 32 22 -19 c12 -11
22 -16 22 -12 0 4 9 2 20 -4 22 -12 27 -1 8 18 -6 6 -8 15 -4 19 4 5 115 9
247 11 l239 3 0 -40 c0 -75 17 -51 23 33 3 46 15 111 27 145 11 34 18 66 15
70 -2 5 -19 5 -37 2 -27 -6 -32 -11 -30 -29 3 -22 1 -22 -118 -22 l-120 0 15
24 c8 12 31 31 50 42 34 18 44 40 26 60 -5 5 -25 40 -44 77 -32 60 -37 66 -46
48z m-52 -164 c8 -11 5 -16 -13 -25 -30 -13 -54 6 -34 26 16 16 33 15 47 -1z
m-64 -36 c7 -12 -12 -24 -25 -16 -11 7 -4 25 10 25 5 0 11 -4 15 -9z m-103
-21 c-21 -20 -52 -27 -52 -12 0 10 38 30 59 31 10 1 8 -5 -7 -19z m68 -9 c0
-10 -25 -21 -48 -21 -15 1 -14 3 2 15 22 17 46 20 46 6z m429 -8 c0 -5 -4 -17
-9 -28 -8 -18 -9 -17 -9 8 -1 15 4 27 9 27 6 0 10 -3 9 -7z m-326 -45 c4 -10
7 -10 18 0 9 8 52 12 141 12 l128 0 0 -60 0 -60 -247 0 c-287 0 -296 2 -301
67 -3 40 -2 42 30 46 83 10 226 7 231 -5z m-573 -22 c0 -3 -4 -8 -10 -11 -5
-3 -10 -1 -10 4 0 6 5 11 10 11 6 0 10 -2 10 -4z m278 -81 c-3 -4 -16 9 -28
27 l-23 33 28 -27 c16 -15 26 -30 23 -33z m-7 -32 c13 -16 12 -17 -3 -4 -17
13 -22 21 -14 21 2 0 10 -8 17 -17z m50 -60 c13 -16 12 -17 -3 -4 -17 13 -22
21 -14 21 2 0 10 -8 17 -17z"/>
<path d="M662 539 c-11 -17 -11 -24 2 -42 60 -86 99 -103 52 -23 -14 24 -26
54 -26 65 0 27 -12 27 -28 0z"/>
</g>
</svg>
