<?xml version="1.0" standalone="no"?>
<!DOCTYPE svg PUBLIC "-//W3C//DTD SVG 20010904//EN"
 "http://www.w3.org/TR/2001/REC-SVG-20010904/DTD/svg10.dtd">
<svg version="1.0" xmlns="http://www.w3.org/2000/svg"
 width="81.000000pt" height="58.000000pt" viewBox="0 0 81.000000 58.000000"
 preserveAspectRatio="xMidYMid meet">
<metadata>
Created by potrace 1.16, written by Peter Selinger 2001-2019
</metadata>
<g transform="translate(0.000000,58.000000) scale(0.100000,-0.100000)"
fill="#000000" stroke="none">
<path d="M414 555 c-4 -8 -3 -25 1 -38 8 -25 22 -177 17 -177 -12 0 -74 52
-120 99 l-52 55 -28 -31 c-15 -18 -36 -33 -47 -35 -16 -3 -20 -11 -18 -37 l1
-33 -41 5 c-23 3 -51 7 -62 9 -23 3 -24 -18 -10 -125 7 -54 9 -58 29 -52 11 4
34 10 49 13 43 11 37 27 -8 25 l-40 -2 35 10 c56 17 59 29 6 29 -29 0 -45 4
-41 10 3 6 22 10 41 10 40 0 47 20 7 21 -59 1 -66 14 -14 25 l50 10 6 -35 c3
-20 10 -80 15 -135 5 -54 11 -100 13 -102 3 -3 31 21 63 53 33 32 83 78 112
102 l52 43 0 -77 0 -77 -31 4 c-38 4 -55 -17 -45 -56 5 -19 12 -26 22 -22 33
13 214 37 281 38 84 1 90 9 33 53 -21 17 -79 61 -128 99 l-90 69 52 40 c28 21
72 55 99 74 26 19 47 39 47 43 0 24 -23 16 -67 -21 -26 -23 -59 -50 -73 -61
-14 -12 -36 -30 -49 -42 l-24 -21 6 90 c4 50 9 107 13 128 6 36 6 37 -25 37
-19 0 -34 -6 -37 -15z m33 -62 c-3 -10 -5 -2 -5 17 0 19 2 27 5 18 2 -10 2
-26 0 -35z m-157 -65 c0 -6 -6 -5 -15 2 -8 7 -15 14 -15 16 0 2 7 1 15 -2 8
-4 15 -11 15 -16z m-57 -118 c-4 -80 -3 -110 5 -110 8 0 13 28 14 83 0 45 2
87 3 92 2 6 3 16 4 24 0 8 3 12 6 9 3 -2 7 -53 10 -111 l4 -107 -29 -15 -30
-16 0 136 c0 86 4 134 10 130 6 -4 7 -48 3 -115z m-36 33 c-2 -16 -4 -5 -4 22
0 28 2 40 4 28 2 -13 2 -35 0 -50z m121 -38 c3 -87 -4 -124 -18 -90 -14 34
-12 177 3 173 8 -3 13 -31 15 -83z m40 -2 c7 -41 6 -55 -4 -64 -12 -9 -14 0
-14 56 0 79 4 81 18 8z m72 -2 c0 -3 -12 -14 -25 -24 l-25 -18 0 41 0 40 25
-16 c14 -9 25 -19 25 -23z m98 -74 c37 -29 82 -63 100 -76 18 -12 30 -27 27
-32 -4 -5 -51 -9 -106 -9 l-99 0 0 85 c0 47 2 85 6 85 3 0 35 -24 72 -53z
m-288 -92 c-7 -9 -15 -13 -19 -10 -3 3 1 10 9 15 21 14 24 12 10 -5z m187 -45
c22 0 14 -6 -19 -14 -22 -5 -28 -3 -28 10 0 11 5 14 16 10 9 -3 23 -6 31 -6z"/>
</g>
</svg>
