<?xml version="1.0" standalone="no"?>
<!DOCTYPE svg PUBLIC "-//W3C//DTD SVG 20010904//EN"
 "http://www.w3.org/TR/2001/REC-SVG-20010904/DTD/svg10.dtd">
<svg version="1.0" xmlns="http://www.w3.org/2000/svg"
 width="96.000000pt" height="201.000000pt" viewBox="0 0 96.000000 201.000000"
 preserveAspectRatio="xMidYMid meet">
<metadata>
Created by potrace 1.16, written by Peter Selinger 2001-2019
</metadata>
<g transform="translate(0.000000,201.000000) scale(0.100000,-0.100000)"
fill="#000000" stroke="none">
<path d="M306 1949 c-3 -18 -2 -37 4 -43 5 -5 10 -32 10 -59 l0 -50 -76 5
c-41 3 -80 10 -87 17 -18 18 -27 13 -27 -14 0 -21 -5 -25 -31 -25 -29 0 -31
-2 -24 -27 3 -16 9 -59 12 -98 5 -71 23 -116 23 -58 0 19 6 33 16 37 23 9 24
8 24 -25 0 -17 4 -28 10 -24 6 3 10 17 10 31 0 13 6 24 13 24 9 0 12 -11 9
-35 -2 -20 0 -35 6 -35 6 0 12 17 14 37 5 56 28 55 28 -1 0 -60 18 -60 22 1 3
42 5 46 30 47 22 1 27 -4 32 -27 9 -42 7 -97 -2 -97 -4 0 -8 -16 -9 -35 -1
-24 3 -35 13 -35 8 0 14 4 14 8 0 14 98 42 146 42 l44 0 0 75 c0 57 3 75 14
75 8 0 17 -7 20 -17 6 -14 8 -14 21 3 14 18 14 18 15 -3 0 -12 5 -25 10 -28 6
-4 10 5 10 20 0 15 4 24 10 20 6 -3 10 -20 10 -36 0 -19 4 -28 11 -24 5 4 9
18 7 33 -2 14 3 27 10 29 8 3 12 -7 12 -32 0 -21 4 -34 10 -30 6 3 10 22 10
41 0 31 3 34 30 34 29 0 30 0 23 -45 -4 -35 -3 -45 9 -45 11 0 15 18 17 77 1
45 9 91 18 110 9 19 14 36 12 38 -3 2 -65 0 -139 -4 -74 -4 -139 -6 -143 -3
-8 4 -3 81 9 139 l6 33 -83 -3 c-46 -1 -98 2 -115 6 -30 8 -32 6 -38 -24z
m194 -30 c0 -17 -8 -19 -65 -19 -37 0 -65 -4 -65 -10 0 -6 28 -10 65 -10 l65
0 0 -99 c0 -54 3 -112 6 -129 l6 -30 -65 -4 c-79 -4 -97 -1 -97 18 0 11 16 14
70 14 40 0 70 4 70 10 0 10 -13 12 -99 14 -63 1 -67 26 -4 27 26 1 58 0 70 0
11 -1 24 3 28 8 4 7 -17 11 -63 11 -64 0 -70 2 -76 23 -3 12 -6 24 -6 27 0 3
29 3 65 2 40 -2 65 0 65 7 0 5 -28 11 -62 13 -38 2 -63 8 -66 16 -3 9 14 12
62 12 35 0 67 4 71 9 7 13 -56 25 -96 19 -31 -5 -31 -5 -26 34 3 22 8 43 12
46 8 8 106 19 123 14 6 -2 12 -13 12 -23z m-180 -194 c0 -54 0 -55 -30 -55
-29 0 -30 2 -30 45 0 25 -4 45 -10 45 -5 0 -10 -20 -10 -45 0 -25 -4 -45 -10
-45 -5 0 -10 20 -10 45 0 25 -4 45 -10 45 -5 0 -10 -20 -10 -45 0 -33 -4 -45
-15 -45 -11 0 -15 11 -15 39 0 36 -19 71 -21 39 0 -7 -2 -26 -2 -43 -3 -47
-32 -40 -31 8 1 21 4 40 6 43 9 9 92 22 146 23 l52 1 0 -55z m430 44 c0 -5 3
-8 8 -6 4 3 5 -14 4 -37 -4 -41 -5 -42 -34 -38 -26 4 -29 8 -26 36 2 17 -1 33
-7 36 -6 3 -11 -14 -13 -38 -4 -53 -26 -52 -30 1 -4 51 -22 47 -23 -5 -1 -24
-3 -34 -6 -23 -2 11 -6 30 -9 43 -8 40 -25 24 -18 -18 4 -27 3 -40 -5 -40 -6
0 -11 12 -11 28 0 15 -5 34 -10 42 -7 11 -10 4 -10 -27 0 -32 -4 -43 -15 -43
-8 0 -15 6 -15 14 0 7 -3 27 -6 44 -6 31 -6 31 42 35 109 8 184 7 184 -4z
m-242 -206 l3 -33 -82 0 c-102 0 -99 16 4 19 52 2 27 21 -28 21 -37 0 -55 4
-55 13 0 8 22 12 78 12 l77 0 3 -32z"/>
<path d="M864 1595 c-3 -8 -2 -20 2 -27 5 -7 7 -21 5 -32 -5 -30 22 -13 31 19
11 41 -24 78 -38 40z"/>
<path d="M255 1280 c-8 -16 -15 -32 -15 -35 0 -6 41 0 83 11 15 5 17 -2 17
-51 l0 -56 -127 1 c-75 2 -140 -2 -156 -9 -27 -10 -27 -11 -12 -40 10 -21 15
-59 15 -121 0 -70 3 -90 14 -90 17 0 26 21 27 63 1 28 3 25 14 -18 l13 -50 2
50 2 50 10 -53 c12 -64 23 -61 19 5 -1 26 1 44 6 39 9 -9 10 -13 12 -67 2 -58
21 -38 21 22 l0 50 73 -3 72 -3 3 -77 3 -78 -36 0 c-34 0 -35 -1 -35 -40 0
-40 7 -48 25 -31 6 5 48 14 95 20 47 6 102 14 123 17 l37 6 0 71 c0 40 3 82 6
95 11 38 24 24 24 -24 0 -27 4 -43 10 -39 6 3 10 24 10 46 0 52 24 48 28 -4 4
-48 20 -48 25 1 3 27 4 22 5 -20 3 -77 22 -75 22 3 0 37 4 58 10 54 6 -3 10
-27 10 -52 0 -26 3 -43 7 -39 4 4 6 24 4 45 -2 33 1 39 21 45 39 10 83 7 104
-9 31 -23 37 -18 31 28 -3 23 -1 77 5 120 5 43 8 81 5 84 -3 3 -21 -7 -40 -21
-32 -25 -40 -26 -157 -26 l-123 0 6 38 c3 20 9 52 12 70 l7 32 -128 0 c-71 0
-144 4 -162 9 -30 9 -33 7 -47 -19z m267 -23 c4 -6 8 -22 8 -34 0 -21 -5 -23
-60 -25 -33 -1 -70 -2 -82 -2 -23 -1 -36 29 -25 59 7 18 148 20 159 2z m37
-19 c-1 -31 -1 -31 -8 -8 -5 14 -6 28 -4 33 9 15 13 6 12 -25z m-15 -104 c3
-26 6 -78 6 -115 l0 -69 -72 -1 c-40 0 -81 -2 -90 -4 -12 -2 -18 3 -18 16 0
17 8 19 64 19 36 0 68 5 71 10 4 6 -20 10 -64 10 l-71 0 0 30 0 30 80 0 c47 0
80 4 80 10 0 6 -34 10 -81 10 -71 0 -80 2 -77 18 3 14 16 18 76 20 96 4 84 22
-14 22 -56 0 -75 3 -72 13 4 10 34 15 154 25 18 2 22 -5 28 -44z m-202 -19 c4
-5 8 -34 8 -62 l0 -53 -74 0 -75 0 -3 33 c-4 41 -21 38 -29 -5 l-6 -33 -2 40
c-1 44 -17 38 -24 -10 l-4 -30 -2 33 c0 17 -5 32 -10 32 -6 0 -12 -15 -14 -32
-3 -28 -4 -27 -5 10 -1 26 -6 41 -12 37 -6 -4 -7 2 -1 17 7 19 18 24 57 28 82
8 189 6 196 -5z m500 0 c4 -5 8 -34 8 -62 l0 -53 -65 0 -66 0 5 40 c5 39 4 40
-22 37 -23 -3 -28 -10 -33 -43 l-6 -39 -2 38 c-1 47 -21 49 -21 2 0 -26 -4
-35 -16 -35 -13 0 -15 7 -9 36 5 28 3 35 -7 32 -7 -3 -14 -19 -16 -36 -6 -55
-22 -35 -22 26 0 32 2 61 4 63 9 9 261 3 268 -6z m-133 -102 c1 -7 -3 -13 -9
-13 -5 0 -10 15 -9 33 0 27 2 29 9 12 5 -11 9 -26 9 -32z m-169 -148 l0 -55
-85 0 c-85 0 -85 0 -85 26 0 22 4 25 28 24 15 -1 49 -2 75 -1 76 2 45 21 -34
21 -62 0 -69 2 -69 20 0 18 7 20 85 20 l85 0 0 -55z m-213 -81 c-3 -3 -12 -4
-19 -1 -8 3 -5 6 6 6 11 1 17 -2 13 -5z"/>
<path d="M870 841 c-5 -11 -6 -22 -1 -25 4 -3 6 -17 3 -31 -3 -18 0 -25 11
-25 10 0 18 13 23 35 10 58 -13 88 -36 46z"/>
<path d="M296 534 c-5 -18 -3 -30 3 -32 6 -2 11 -13 11 -24 0 -20 -4 -21 -72
-14 -39 3 -81 9 -94 12 l-22 6 5 -154 c3 -84 7 -155 9 -157 9 -10 17 12 16 44
-1 19 3 35 8 35 6 0 10 -21 10 -47 0 -25 3 -43 8 -39 8 9 9 14 11 56 1 36 21
41 21 6 0 -14 5 -28 10 -31 6 -3 10 4 10 18 0 13 3 27 7 31 4 4 6 47 4 95 l-3
89 31 7 c17 3 35 4 41 0 5 -3 10 -42 10 -86 l0 -79 -30 0 c-38 0 -39 -19 -1
-26 28 -6 30 -8 33 -70 2 -40 -2 -70 -9 -81 -20 -26 -17 -57 5 -48 43 16 142
35 189 35 l52 0 3 83 c3 74 5 82 23 82 17 0 20 -7 21 -45 1 -58 18 -54 22 5 3
37 7 46 20 43 12 -2 18 -15 20 -48 6 -81 22 -69 22 17 0 61 4 82 14 86 19 7
26 -13 26 -74 0 -32 4 -48 10 -44 8 5 9 169 1 238 -2 14 -21 7 -21 -8 0 -21
-27 -19 -39 3 -9 16 -10 16 -16 0 -8 -21 -31 -24 -38 -5 -4 9 -8 9 -15 -2 -18
-25 -42 -22 -42 5 0 24 1 24 95 24 l95 0 2 -32 c1 -18 3 -46 4 -63 1 -16 3
-58 3 -93 1 -39 5 -61 11 -57 6 3 10 36 10 73 0 37 7 94 14 127 8 33 12 63 10
66 -2 4 -32 7 -67 7 -34 0 -86 0 -115 1 l-54 1 7 40 7 40 -94 0 c-51 0 -116 3
-144 6 -50 6 -51 6 -58 -22z m52 -26 c-14 -43 -21 -49 -17 -18 2 14 0 31 -4
38 -6 8 -2 12 12 12 18 0 19 -3 9 -32z m186 0 c12 -47 10 -48 -84 -48 -67 0
-90 3 -90 13 0 29 26 46 75 50 28 2 60 4 71 5 15 1 24 -5 28 -20z m-367 -64
c-3 -3 -12 -4 -19 -1 -8 3 -5 6 6 6 11 1 17 -2 13 -5z m373 -28 c0 -23 -2 -24
-84 -25 -99 -1 -116 3 -109 30 5 17 15 19 99 19 92 0 94 0 94 -24z m-322 -63
c-2 -50 -7 -78 -15 -81 -10 -3 -13 17 -13 77 0 66 3 81 15 81 13 0 15 -13 13
-77z m-48 -8 c0 -43 -4 -75 -10 -75 -6 0 -10 32 -10 75 0 43 4 75 10 75 6 0
10 -32 10 -75z m438 7 c3 -18 -2 -22 -23 -22 -21 0 -26 4 -21 16 3 9 6 19 6
24 0 19 35 2 38 -18z m52 -2 c0 -22 -4 -28 -15 -24 -8 4 -15 17 -15 30 0 15 6
24 15 24 10 0 15 -10 15 -30z m60 0 c0 -22 -4 -28 -15 -24 -8 4 -15 10 -15 14
0 5 -3 15 -6 24 -4 12 0 16 15 16 17 0 21 -6 21 -30z m-172 3 c-3 -16 -16 -18
-103 -18 -87 0 -100 2 -103 18 -3 15 7 17 103 17 96 0 106 -2 103 -17z m-8
-68 l0 -25 -100 0 -100 0 0 25 0 25 100 0 100 0 0 -25z m68 4 c2 -10 -6 -19
-18 -22 -23 -6 -34 7 -26 29 8 20 40 14 44 -7z m62 -5 c0 -8 -9 -14 -20 -14
-19 0 -27 19 -14 33 10 9 34 -4 34 -19z m-132 -107 c3 -76 2 -77 -115 -77 -88
0 -96 15 -13 24 78 9 78 25 0 23 -95 -3 -75 17 28 27 123 12 122 31 -3 23 -95
-5 -95 -5 -95 18 0 28 13 31 120 28 l75 -2 3 -64z"/>
<path d="M867 204 c-16 -16 -7 -44 14 -44 15 0 20 5 17 22 -3 22 -19 33 -31
22z"/>
</g>
</svg>
