<?xml version="1.0" standalone="no"?>
<!DOCTYPE svg PUBLIC "-//W3C//DTD SVG 20010904//EN"
 "http://www.w3.org/TR/2001/REC-SVG-20010904/DTD/svg10.dtd">
<svg version="1.0" xmlns="http://www.w3.org/2000/svg"
 width="99.000000pt" height="194.000000pt" viewBox="0 0 99.000000 194.000000"
 preserveAspectRatio="xMidYMid meet">
<metadata>
Created by potrace 1.16, written by Peter Selinger 2001-2019
</metadata>
<g transform="translate(0.000000,194.000000) scale(0.100000,-0.100000)"
fill="#000000" stroke="none">
<path d="M492 1893 l-42 -4 6 -40 7 -39 -49 0 c-27 0 -88 5 -134 11 -60 7 -86
7 -88 0 -2 -6 -19 -11 -38 -11 -43 0 -49 -15 -28 -65 13 -31 15 -56 9 -122 -5
-57 -3 -83 4 -83 6 0 11 20 11 49 0 27 6 53 13 58 6 6 78 11 160 12 l147 3 0
-41 c0 -23 5 -41 10 -41 6 0 10 12 10 28 0 48 8 51 130 52 184 2 180 2 177
-17 -1 -10 2 -19 8 -21 5 -1 15 28 21 66 6 38 17 78 23 90 6 12 8 22 4 23 -4
0 -65 0 -134 -1 -69 -1 -138 2 -153 6 -24 6 -27 10 -22 33 15 61 16 60 -52 54z
m32 -45 c-16 -54 -44 -58 -44 -7 0 24 4 29 26 29 22 0 24 -3 18 -22z m-255
-54 c2 -2 -10 -4 -27 -4 -18 0 -32 5 -32 10 0 9 47 4 59 -6z m228 -51 c-3 -10
-5 -2 -5 17 0 19 2 27 5 18 2 -10 2 -26 0 -35z m291 32 c7 -3 12 -22 12 -50
l0 -46 -142 3 -143 3 2 40 c2 22 5 45 7 50 4 10 234 10 264 0z m-628 -2 c0 -5
-5 -15 -10 -23 -8 -12 -10 -11 -10 8 0 12 5 22 10 22 6 0 10 -3 10 -7z m310
-37 c0 -37 -3 -46 -17 -47 -61 -1 -288 3 -291 5 -2 2 1 21 7 42 l10 39 146 3
145 4 0 -46z"/>
<path d="M925 1603 c2 -21 4 -40 5 -43 0 -3 7 4 15 14 22 29 19 66 -5 66 -16
0 -18 -6 -15 -37z"/>
<path d="M140 1320 c-6 -11 -14 -19 -18 -19 -4 1 -11 1 -17 0 -12 -1 -15 -211
-3 -211 4 0 8 11 8 25 0 14 6 27 13 30 6 2 81 6 165 10 l154 6 -4 -37 c-2 -23
2 -39 10 -42 7 -2 11 4 10 15 -5 66 -9 65 115 62 61 -1 131 -4 155 -7 41 -5
42 -5 42 -43 0 -22 5 -39 10 -39 6 0 10 15 10 33 0 17 7 59 15 92 21 86 19
103 -7 103 -180 1 -522 15 -553 22 -94 21 -94 21 -105 0z m55 -20 c-3 -5 -13
-10 -21 -10 -8 0 -14 5 -14 10 0 6 9 10 21 10 11 0 17 -4 14 -10z m235 -36 c6
-14 10 -39 10 -56 l0 -31 -151 5 c-85 3 -155 10 -161 16 -16 16 10 71 36 77
11 3 61 6 111 8 50 2 102 4 118 5 21 2 30 -4 37 -24z m326 13 c1 -1 4 -25 7
-54 l6 -51 -152 5 c-84 3 -154 7 -155 9 -8 6 11 67 27 83 13 13 35 15 141 13
69 -2 125 -4 126 -5z m-286 -1 c0 -3 -4 -8 -10 -11 -5 -3 -10 -1 -10 4 0 6 5
11 10 11 6 0 10 -2 10 -4z m330 -20 c0 -8 -4 -18 -10 -21 -5 -3 -10 3 -10 14
0 12 5 21 10 21 6 0 10 -6 10 -14z"/>
<path d="M906 1154 c-3 -9 -3 -21 1 -27 4 -7 6 -20 4 -31 -4 -28 21 -14 32 17
5 15 6 34 3 42 -7 20 -32 19 -40 -1z"/>
<path d="M736 851 c6 -37 5 -39 -27 -44 -19 -3 -114 -6 -211 -7 l-178 -1 6 31
c6 28 5 30 -24 30 -27 0 -31 -3 -29 -27 2 -31 4 -31 -110 -19 -52 5 -63 4 -63
-8 0 -8 -10 -16 -22 -18 -14 -2 -22 -9 -19 -18 2 -8 6 -59 9 -112 2 -54 9 -98
13 -98 5 0 9 13 9 29 0 35 5 37 113 46 l77 7 0 -36 c0 -20 5 -36 10 -36 6 0
10 15 10 34 l0 33 77 7 c42 3 141 6 220 6 l143 0 0 -34 c0 -68 18 -45 25 31 3
43 17 111 31 151 13 40 24 77 24 82 0 6 -20 10 -45 10 l-45 0 6 -39z m54 2
c-1 -10 -7 -31 -15 -48 l-13 -30 -1 48 c-1 35 3 47 14 47 8 0 15 -8 15 -17z
m-640 -57 c0 -11 -19 -15 -25 -6 -3 5 1 10 9 10 9 0 16 -2 16 -4z m595 -66 l0
-55 -220 -7 c-121 -3 -221 -5 -223 -3 -2 2 -1 28 3 59 l7 55 142 4 c77 2 175
3 216 3 l75 -1 0 -55z m-461 34 c9 -24 7 -92 -3 -99 -12 -7 -165 5 -181 15 -8
5 -9 17 -3 40 8 29 15 35 53 45 68 19 127 18 134 -1z"/>
<path d="M892 655 c1 -54 12 -58 28 -10 12 37 7 55 -15 55 -9 0 -13 -14 -13
-45z"/>
<path d="M618 393 c-28 -4 -38 -26 -18 -38 6 -3 10 -11 10 -17 0 -12 -412 -6
-442 7 -13 5 -17 0 -20 -22 -2 -23 -8 -28 -35 -31 -32 -3 -45 -24 -23 -37 6
-3 10 -32 10 -64 0 -44 -5 -62 -20 -79 -12 -12 -25 -22 -30 -22 -6 0 -10 -7
-10 -16 0 -12 5 -14 18 -9 24 11 100 24 140 24 32 1 33 -1 31 -31 -2 -18 1
-33 6 -33 6 0 10 13 10 30 0 28 3 30 45 37 25 4 106 6 180 6 l135 -1 7 52 c3
29 20 80 36 114 32 63 34 79 7 57 -13 -10 -15 -9 -15 7 0 10 7 28 15 39 8 10
15 22 15 27 0 7 -4 7 -52 0z m-68 -93 c41 0 60 -4 51 -9 -9 -6 -11 -18 -7 -36
4 -15 4 -52 0 -84 l-6 -57 -170 0 -170 0 7 56 c4 30 16 67 27 83 25 35 20 40
-26 31 -32 -6 -36 -9 -29 -28 9 -23 8 -124 0 -133 -3 -3 -29 -2 -56 2 l-51 7
0 48 c0 101 64 132 255 125 61 -3 139 -5 175 -5z m-417 -197 c-7 -2 -19 -2
-25 0 -7 3 -2 5 12 5 14 0 19 -2 13 -5z"/>
<path d="M747 157 c-3 -8 -2 -20 3 -27 11 -18 42 -4 38 17 -4 22 -34 29 -41
10z"/>
</g>
</svg>
