<?xml version="1.0" standalone="no"?>
<!DOCTYPE svg PUBLIC "-//W3C//DTD SVG 20010904//EN"
 "http://www.w3.org/TR/2001/REC-SVG-20010904/DTD/svg10.dtd">
<svg version="1.0" xmlns="http://www.w3.org/2000/svg"
 width="71.000000pt" height="63.000000pt" viewBox="0 0 71.000000 63.000000"
 preserveAspectRatio="xMidYMid meet">
<metadata>
Created by potrace 1.16, written by Peter Selinger 2001-2019
</metadata>
<g transform="translate(0.000000,63.000000) scale(0.100000,-0.100000)"
fill="#000000" stroke="none">
<path d="M127 583 c-11 -11 -8 -24 6 -21 16 3 89 -22 102 -35 7 -6 2 -7 -15
-2 -14 4 -40 9 -58 12 -18 3 -35 9 -38 14 -3 5 -21 9 -40 9 l-35 0 6 -52 c4
-29 9 -60 13 -68 3 -8 8 -82 11 -164 4 -97 10 -151 17 -153 8 -3 10 22 6 85
-4 82 -3 90 14 95 39 12 401 79 458 85 68 8 84 26 30 36 -20 4 -44 11 -53 16
-9 5 -63 24 -121 41 -58 17 -125 40 -150 51 -130 59 -142 63 -153 51z m-31
-59 c-3 -9 -6 -30 -6 -46 0 -41 -6 -33 -14 20 -5 35 -3 42 10 42 11 0 14 -5
10 -16z m100 -13 c5 1 16 0 24 -3 8 -4 66 -18 129 -33 182 -44 254 -75 172
-75 -25 0 -150 -22 -335 -59 l-89 -18 7 85 c9 109 17 124 55 111 15 -5 32 -9
37 -8z"/>
</g>
</svg>
