<?xml version="1.0" standalone="no"?>
<!DOCTYPE svg PUBLIC "-//W3C//DTD SVG 20010904//EN"
 "http://www.w3.org/TR/2001/REC-SVG-20010904/DTD/svg10.dtd">
<svg version="1.0" xmlns="http://www.w3.org/2000/svg"
 width="70.000000pt" height="55.000000pt" viewBox="0 0 70.000000 55.000000"
 preserveAspectRatio="xMidYMid meet">
<metadata>
Created by potrace 1.16, written by Peter Selinger 2001-2019
</metadata>
<g transform="translate(0.000000,55.000000) scale(0.100000,-0.100000)"
fill="#000000" stroke="none">
<path d="M218 475 c-24 -32 -23 -40 8 -54 14 -6 41 -23 60 -38 l35 -26 -28
-19 -28 -19 -41 46 -40 45 -29 -30 c-16 -16 -27 -31 -24 -32 2 -2 21 -12 42
-22 20 -11 37 -23 37 -27 0 -12 -115 -69 -140 -69 -17 0 -20 -6 -19 -50 1 -27
6 -50 11 -50 5 0 25 17 46 38 36 36 100 88 128 105 15 9 74 -27 74 -44 0 -5
-40 -29 -89 -54 l-89 -44 5 -43 c7 -53 11 -58 25 -33 15 25 89 93 141 127 l41
27 44 -44 c41 -42 63 -50 62 -22 -1 7 -21 27 -46 45 l-45 34 37 20 37 19 43
-42 c31 -31 47 -40 55 -32 7 7 -3 22 -36 50 l-46 39 53 29 c90 48 148 88 148
102 0 7 -2 13 -4 13 -3 0 -155 -86 -193 -111 -21 -13 -25 -11 -54 17 l-31 31
66 42 c61 38 82 61 56 61 -6 0 -40 -19 -76 -42 l-66 -41 -27 29 c-15 16 -37
44 -50 62 -27 38 -31 39 -53 7z m52 -47 c0 -6 -7 -5 -15 2 -8 7 -15 17 -15 22
0 6 7 5 15 -2 8 -7 15 -17 15 -22z m-70 -73 c7 -8 8 -15 2 -15 -5 0 -15 7 -22
15 -7 8 -8 15 -2 15 5 0 15 -7 22 -15z m176 -44 l33 -30 -33 -19 -34 -20 -30
31 -31 31 27 17 c35 23 29 23 68 -10z m-271 -111 c-10 -11 -21 -17 -24 -14 -3
3 3 12 13 20 28 20 32 17 11 -6z m80 -80 c-10 -11 -21 -17 -24 -14 -3 3 3 12
13 20 28 20 32 17 11 -6z"/>
</g>
</svg>
