<?xml version="1.0" standalone="no"?>
<!DOCTYPE svg PUBLIC "-//W3C//DTD SVG 20010904//EN"
 "http://www.w3.org/TR/2001/REC-SVG-20010904/DTD/svg10.dtd">
<svg version="1.0" xmlns="http://www.w3.org/2000/svg"
 width="52.000000pt" height="68.000000pt" viewBox="0 0 52.000000 68.000000"
 preserveAspectRatio="xMidYMid meet">
<metadata>
Created by potrace 1.16, written by Peter Selinger 2001-2019
</metadata>
<g transform="translate(0.000000,68.000000) scale(0.100000,-0.100000)"
fill="#000000" stroke="none">
<path d="M123 625 c-2 -8 -2 -18 1 -24 9 -13 -29 -24 -55 -16 -20 7 -21 5 -15
-26 11 -58 25 -213 21 -244 -6 -50 -8 -235 -2 -241 3 -3 25 1 49 9 23 8 95 18
158 21 63 3 117 9 121 14 3 4 12 110 18 235 7 138 16 236 23 247 7 11 10 21 8
23 -3 2 -76 7 -163 10 -129 4 -159 3 -164 -8z m259 -65 c10 -62 10 -412 0
-422 -9 -9 -271 -13 -279 -4 -2 2 -4 74 -4 159 1 141 11 243 27 268 15 25 114
48 199 45 l50 -1 7 -45z m37 38 c0 -7 -4 -22 -9 -33 -7 -17 -9 -15 -9 13 -1
17 4 32 9 32 6 0 10 -6 9 -12z m-325 -65 c-10 -40 -14 -41 -14 -5 0 18 5 32
10 32 6 0 8 -11 4 -27z m23 -429 c-3 -3 -12 -4 -19 -1 -8 3 -5 6 6 6 11 1 17
-2 13 -5z"/>
<path d="M120 345 c0 -36 1 -37 28 -31 15 4 73 14 130 24 56 9 102 20 102 24
0 5 -44 8 -99 8 -54 0 -113 3 -130 6 -30 6 -31 6 -31 -31z m53 -2 c-7 -2 -19
-2 -25 0 -7 3 -2 5 12 5 14 0 19 -2 13 -5z"/>
</g>
</svg>
