<?xml version="1.0" standalone="no"?>
<!DOCTYPE svg PUBLIC "-//W3C//DTD SVG 20010904//EN"
 "http://www.w3.org/TR/2001/REC-SVG-20010904/DTD/svg10.dtd">
<svg version="1.0" xmlns="http://www.w3.org/2000/svg"
 width="106.000000pt" height="164.000000pt" viewBox="0 0 106.000000 164.000000"
 preserveAspectRatio="xMidYMid meet">
<metadata>
Created by potrace 1.16, written by Peter Selinger 2001-2019
</metadata>
<g transform="translate(0.000000,164.000000) scale(0.100000,-0.100000)"
fill="#000000" stroke="none">
<path d="M323 1500 c-28 -11 -28 -11 -3 -55 27 -47 26 -52 -12 -52 -18 0 -61
-4 -95 -8 -45 -6 -67 -4 -78 5 -8 7 -15 11 -16 9 -5 -21 -7 -89 -2 -89 3 0 29
11 58 25 28 14 78 30 110 35 64 10 75 5 75 -36 0 -18 -11 -25 -60 -40 -58 -17
-59 -18 -59 -53 1 -33 17 -101 24 -101 1 0 22 9 46 20 53 24 69 25 69 5 0 -14
-48 -32 -100 -37 -17 -2 -26 -10 -28 -26 -5 -33 21 -36 63 -8 46 32 65 33 65
5 0 -13 5 -19 13 -16 108 43 161 61 262 92 113 33 266 75 328 89 15 4 27 11
27 16 0 14 -58 26 -205 45 -71 8 -159 23 -194 32 -60 14 -65 14 -77 -1 -16
-23 -20 -15 -34 77 -12 70 -15 77 -36 77 -35 0 -36 -12 -8 -81 25 -60 77 -250
70 -256 -1 -2 -27 -7 -56 -13 -38 -7 -56 -7 -60 1 -4 6 -15 77 -24 157 -25
213 -21 199 -63 182z m25 -45 c-3 -3 -9 2 -12 12 -6 14 -5 15 5 6 7 -7 10 -15
7 -18z m-181 -101 c-3 -3 -12 -4 -19 -1 -8 3 -5 6 6 6 11 1 17 -2 13 -5z m570
-44 c43 -6 107 -15 142 -22 l64 -11 -119 -34 c-169 -49 -250 -67 -267 -60 -8
3 -17 26 -21 56 -4 28 -9 58 -12 66 -5 12 6 15 64 15 39 0 106 -5 149 -10z
m-371 -48 c-7 -12 -85 -27 -93 -18 -3 3 14 15 38 25 42 19 69 15 55 -7z m14
-46 c0 -12 -49 -26 -94 -26 -29 0 -9 17 39 33 43 15 55 14 55 -7z"/>
<path d="M300 1340 c-14 -4 -40 -8 -58 -9 -35 -1 -53 -24 -34 -43 8 -8 23 -5
54 9 24 11 53 24 66 27 12 4 22 12 22 17 0 10 -15 10 -50 -1z"/>
<path d="M126 964 c-16 -35 -10 -49 14 -33 22 13 164 11 178 -3 16 -16 15 -58
0 -58 -7 1 -32 5 -56 9 -23 5 -45 5 -48 0 -3 -5 -7 -38 -9 -75 l-5 -67 43 8
c23 4 50 7 60 7 9 0 17 3 17 9 0 5 -10 9 -22 9 -32 0 -68 11 -68 20 0 5 24 12
53 16 l52 8 -60 11 c-46 9 -56 14 -41 20 11 5 38 9 60 9 l41 1 2 -99 c2 -81 0
-97 -11 -93 -17 7 -66 -29 -66 -48 0 -10 9 -11 34 -5 18 4 80 8 137 9 56 1
106 4 110 7 4 2 106 7 226 10 120 3 220 7 222 10 12 11 -24 25 -154 59 -77 21
-147 39 -155 41 -8 2 -48 15 -88 30 -66 25 -75 26 -89 12 -16 -16 -9 -43 8
-32 5 3 7 10 4 15 -4 5 -1 9 4 9 6 0 11 -6 11 -14 0 -10 16 -17 48 -21 61 -9
285 -65 295 -75 13 -11 -328 -27 -470 -22 l-43 2 0 45 c0 38 4 47 22 54 21 8
21 8 1 13 -18 5 -21 12 -18 49 2 24 4 59 4 77 1 29 4 32 34 32 31 0 33 -2 45
-53 6 -29 12 -85 12 -124 0 -40 5 -75 10 -78 6 -4 10 38 10 117 0 76 4 128 11
135 16 16 -39 30 -148 37 -50 4 -116 15 -146 25 l-55 18 -16 -33z"/>
<path d="M220 710 c0 -5 20 -10 44 -10 25 0 48 5 51 10 4 6 -13 10 -44 10 -28
0 -51 -4 -51 -10z"/>
<path d="M310 472 c-57 -21 -55 -19 -42 -35 6 -7 15 -25 21 -40 l10 -27 -47 6
c-68 8 -110 23 -132 46 -16 18 -22 19 -35 8 -20 -17 -21 -90 0 -90 11 0 12 -5
5 -25 -12 -31 -8 -32 63 -27 68 5 72 22 9 35 -70 14 -47 27 47 27 84 0 89 -1
95 -22 9 -34 7 -188 -2 -188 -5 0 -19 11 -31 24 -15 16 -37 25 -69 29 -26 2
-54 8 -63 11 -11 5 -18 1 -22 -13 -7 -28 5 -33 58 -25 44 6 45 5 45 -20 0 -30
-22 -34 -77 -14 -37 14 -39 13 -49 -26 -7 -28 -6 -29 22 -22 67 17 85 18 99 6
8 -6 18 -10 22 -7 4 2 163 8 353 12 190 3 347 8 349 11 9 9 -22 32 -61 44
-117 35 -409 136 -457 158 -52 23 -55 23 -68 6 -22 -30 -16 -44 22 -44 48 0
130 -19 200 -46 33 -12 109 -38 169 -57 60 -19 105 -36 100 -40 -17 -10 -493
-12 -503 -2 -6 6 -11 66 -13 135 -2 110 1 131 20 174 12 27 22 50 22 52 0 6
-13 3 -60 -14z m13 -42 c-6 -23 -19 -26 -26 -6 -6 16 1 26 19 26 7 0 10 -8 7
-20z m-206 -58 c-24 -4 -31 3 -23 23 5 14 8 13 23 -2 18 -17 18 -18 0 -21z
m268 -72 c3 -5 1 -10 -4 -10 -6 0 -11 5 -11 10 0 6 2 10 4 10 3 0 8 -4 11 -10z
m-109 -188 c-33 -4 -41 1 -32 23 5 14 9 14 33 -2 l27 -18 -28 -3z"/>
<path d="M117 264 c-4 -4 -7 -16 -7 -27 0 -17 5 -19 31 -13 17 3 42 6 55 6 33
0 30 16 -3 24 -16 3 -37 8 -48 11 -11 4 -24 3 -28 -1z"/>
</g>
</svg>
