<?xml version="1.0" standalone="no"?>
<!DOCTYPE svg PUBLIC "-//W3C//DTD SVG 20010904//EN"
 "http://www.w3.org/TR/2001/REC-SVG-20010904/DTD/svg10.dtd">
<svg version="1.0" xmlns="http://www.w3.org/2000/svg"
 width="117.000000pt" height="80.000000pt" viewBox="0 0 117.000000 80.000000"
 preserveAspectRatio="xMidYMid meet">
<metadata>
Created by potrace 1.16, written by Peter Selinger 2001-2019
</metadata>
<g transform="translate(0.000000,80.000000) scale(0.100000,-0.100000)"
fill="#000000" stroke="none">
<path d="M283 738 c-11 -13 -28 -38 -37 -56 -9 -18 -42 -63 -74 -100 -73 -86
-112 -138 -112 -150 0 -6 13 -37 30 -70 42 -85 82 -212 71 -226 -9 -10 -4 -66
6 -66 2 0 23 11 46 24 23 13 59 29 80 36 21 7 41 18 43 24 3 7 -11 73 -31 147
-19 74 -35 141 -35 150 0 9 38 54 85 100 76 76 100 109 77 109 -4 0 -31 23
-60 50 -29 28 -56 50 -60 50 -5 0 -18 -10 -29 -22z m75 -58 c32 -19 32 -21 18
-48 -8 -16 -36 -55 -62 -88 -26 -32 -49 -61 -50 -63 -6 -7 -63 44 -69 62 -11
30 1 30 36 -2 43 -39 60 -28 20 13 -17 18 -31 38 -31 45 0 8 11 3 26 -13 27
-26 54 -35 54 -16 0 5 -8 14 -19 19 -21 12 -34 38 -26 52 3 5 24 -3 46 -18 46
-30 67 -22 27 11 -27 21 -35 45 -21 59 10 10 15 9 51 -13z m-126 -224 c-4 -6
-7 -20 -7 -30 0 -21 -47 -40 -77 -30 -12 3 -18 0 -18 -9 0 -21 19 -26 55 -15
43 12 65 10 65 -6 0 -9 -17 -16 -50 -21 -27 -4 -50 -12 -50 -17 0 -11 50 -6
98 8 16 5 22 2 22 -9 0 -15 -67 -34 -99 -28 -7 1 -11 -4 -9 -11 6 -15 70 -13
100 3 14 7 18 6 18 -5 0 -14 -54 -36 -87 -36 -7 0 -13 -5 -13 -11 0 -11 18
-10 93 7 21 5 27 3 27 -9 0 -12 -14 -18 -50 -23 -28 -4 -53 -11 -56 -15 -10
-17 22 -19 66 -4 23 8 44 14 45 13 2 -2 5 -12 9 -24 5 -17 0 -23 -33 -32 -82
-25 -84 -23 -120 91 -17 56 -34 120 -38 142 -3 22 -10 45 -15 52 -10 13 -7 21
29 69 l23 31 40 -35 c22 -20 36 -40 32 -46z"/>
<path d="M885 740 c-4 -6 -12 -9 -20 -8 -14 3 -200 -240 -190 -250 3 -3 52 42
108 101 110 116 115 118 165 74 25 -23 28 -40 9 -56 -10 -8 -19 -6 -35 10 -12
11 -22 24 -22 29 0 6 -7 10 -15 10 -25 0 -17 -27 16 -55 24 -19 29 -29 20 -38
-8 -8 -20 -2 -46 23 -44 42 -47 19 -4 -26 18 -18 26 -34 21 -38 -12 -7 -62 35
-62 53 0 6 -4 11 -10 11 -22 0 -8 -40 20 -60 35 -25 36 -27 9 -60 l-21 -25
-30 38 c-29 36 -48 47 -48 27 0 -5 15 -24 34 -42 l34 -32 -36 -48 c-20 -26
-40 -48 -45 -48 -4 0 -25 27 -45 60 -38 61 -49 69 -70 48 -20 -20 -13 -42 21
-66 17 -12 47 -35 66 -51 l35 -29 -27 -32 c-39 -46 -33 -60 8 -20 41 40 58 33
26 -11 -30 -40 -19 -50 13 -13 13 16 28 26 32 21 4 -4 -5 -21 -21 -37 -36 -37
-29 -48 9 -15 16 14 30 25 32 25 1 0 22 -18 46 -39 l43 -39 -23 -24 c-37 -41
-24 -53 17 -15 21 19 68 52 105 73 36 22 66 46 66 54 0 8 -23 35 -50 58 -28
24 -73 71 -100 103 -59 71 -59 72 35 155 l66 57 29 -28 c21 -20 30 -24 30 -14
0 9 -29 44 -66 79 -36 35 -72 76 -80 92 -15 28 -37 37 -49 18z m-15 -331 c0
-6 -4 -7 -10 -4 -5 3 -10 11 -10 16 0 6 5 7 10 4 6 -3 10 -11 10 -16z m58 -84
c39 -33 72 -63 72 -68 0 -10 -69 -107 -75 -107 -3 0 -22 19 -44 43 l-40 42 30
31 c40 41 24 53 -18 12 -44 -42 -56 -27 -13 17 44 45 30 59 -15 15 -44 -43
-59 -31 -17 13 39 40 30 58 -10 20 -39 -37 -36 -17 4 24 19 19 36 29 42 25 6
-5 44 -35 84 -67z m101 -116 c-33 -26 -42 -23 -23 5 10 16 21 23 31 19 13 -5
11 -9 -8 -24z"/>
<path d="M780 526 c0 -15 50 -60 58 -52 5 6 -40 65 -50 65 -5 1 -8 -5 -8 -13z"/>
<path d="M467 333 c-8 -13 -6 -83 3 -83 16 0 31 30 28 56 -3 27 -21 43 -31 27z"/>
<path d="M1137 278 c-5 -16 10 -48 23 -48 6 0 10 14 10 30 0 30 -24 43 -33 18z"/>
</g>
</svg>
