<?xml version="1.0" standalone="no"?>
<!DOCTYPE svg PUBLIC "-//W3C//DTD SVG 20010904//EN"
 "http://www.w3.org/TR/2001/REC-SVG-20010904/DTD/svg10.dtd">
<svg version="1.0" xmlns="http://www.w3.org/2000/svg"
 width="127.000000pt" height="125.000000pt" viewBox="0 0 127.000000 125.000000"
 preserveAspectRatio="xMidYMid meet">
<metadata>
Created by potrace 1.16, written by Peter Selinger 2001-2019
</metadata>
<g transform="translate(0.000000,125.000000) scale(0.100000,-0.100000)"
fill="#000000" stroke="none">
<path d="M131 1163 c-13 -29 -9 -38 13 -30 9 4 13 13 10 22 -4 10 0 15 11 15
9 0 13 -5 10 -10 -5 -7 17 -10 67 -8 70 3 99 20 41 24 -16 2 -53 5 -84 7 -53
5 -57 4 -68 -20z"/>
<path d="M798 1155 c-3 -3 -3 -17 0 -31 3 -19 9 -23 21 -18 9 4 44 9 79 12 34
2 62 8 62 12 0 4 -28 10 -62 13 -35 3 -70 8 -79 11 -8 4 -18 4 -21 1z"/>
<path d="M975 1111 c-13 -77 -82 -308 -94 -315 -14 -9 -79 146 -97 232 l-18
83 -30 -7 c-17 -3 -32 -8 -34 -9 -2 -2 7 -20 20 -42 35 -56 138 -272 138 -289
0 -8 6 -14 14 -14 8 0 27 36 46 88 33 89 104 239 121 257 17 17 9 32 -25 42
-34 11 -34 10 -41 -26z m45 -1 c0 -14 -29 -70 -35 -70 -5 0 1 37 11 68 4 15
24 16 24 2z m-270 -29 c0 -5 3 -18 6 -28 5 -16 4 -16 -10 1 -18 23 -20 36 -6
36 6 0 10 -4 10 -9z"/>
<path d="M331 1073 c-10 -38 -21 -81 -24 -98 -3 -16 -22 -65 -42 -109 -37 -78
-37 -78 -50 -52 -8 15 -31 53 -51 86 -25 41 -38 76 -42 110 -2 28 -7 50 -10
50 -3 0 -18 -12 -34 -27 l-28 -26 38 -41 c21 -23 60 -78 87 -124 28 -45 54
-81 59 -79 4 1 36 66 70 143 35 78 73 158 85 178 26 42 26 41 -11 50 -26 6
-28 4 -47 -61z m35 5 c-19 -26 -20 -20 -5 19 6 15 13 22 16 16 2 -7 -3 -23
-11 -35z m-263 -79 c4 -16 3 -18 -9 -8 -16 13 -19 29 -5 29 5 0 11 -9 14 -21z"/>
<path d="M164 1078 c-2 -3 0 -26 5 -49 5 -23 7 -48 4 -55 -3 -8 -2 -22 1 -31
5 -12 9 -14 18 -5 7 7 25 12 40 12 15 0 28 5 28 10 0 6 -13 10 -28 10 -16 0
-31 3 -35 6 -9 9 4 35 14 28 13 -8 69 6 69 17 0 5 -20 9 -45 9 -25 0 -45 5
-45 10 0 6 15 10 33 10 39 0 70 16 47 24 -27 9 -101 12 -106 4z"/>
<path d="M820 1049 c0 -28 2 -31 23 -24 12 3 33 9 47 12 53 10 53 16 0 29 -73
18 -70 18 -70 -17z m40 1 c0 -5 -4 -10 -10 -10 -5 0 -10 5 -10 10 0 6 5 10 10
10 6 0 10 -4 10 -10z"/>
<path d="M189 929 c-10 -49 -9 -51 13 -44 13 3 33 9 46 12 29 7 28 23 -2 23
-13 0 -31 3 -40 6 -9 3 -16 5 -17 3z"/>
<path d="M1065 840 c-4 -6 -2 -17 4 -24 7 -8 10 -18 9 -22 -2 -5 1 -11 6 -14
11 -6 28 49 20 62 -7 11 -32 10 -39 -2z"/>
<path d="M427 833 c-7 -12 4 -73 13 -73 11 0 20 26 20 56 0 23 -23 34 -33 17z"/>
<path d="M970 578 c-44 -55 -45 -58 -9 -88 l34 -29 -70 1 c-38 1 -73 3 -77 5
-5 2 3 21 17 41 l25 36 -28 29 -27 28 -13 -48 c-15 -58 -55 -145 -88 -195
l-25 -36 64 -64 c36 -34 77 -82 92 -105 15 -24 32 -43 36 -43 5 0 28 29 51 64
40 60 68 84 131 113 28 12 37 46 16 59 -22 13 -79 152 -85 208 -4 31 -10 56
-13 55 -3 0 -17 -14 -31 -31z m34 -73 l8 -30 -26 24 c-21 20 -23 27 -14 44 12
23 20 14 32 -38z m-144 33 c0 -7 -8 -22 -17 -33 -14 -18 -15 -18 -9 -2 3 10 6
25 6 33 0 8 5 14 10 14 6 0 10 -6 10 -12z m-15 -126 c6 2 9 11 8 21 -2 13 4
17 26 15 29 -2 34 -18 5 -18 -8 0 -14 -5 -14 -10 0 -7 6 -7 18 -2 9 5 43 12
75 15 55 5 58 4 71 -21 19 -38 8 -66 -69 -177 l-68 -96 -36 55 c-20 30 -50 81
-65 114 l-28 59 28 43 c26 39 29 41 34 21 3 -12 10 -21 15 -19z m-66 -103 c15
-44 14 -46 -14 -19 -28 26 -33 50 -11 50 8 0 19 -14 25 -31z m308 15 c2 -5
-10 -18 -27 -27 l-30 -18 18 30 c16 30 32 36 39 15z"/>
<path d="M840 345 c0 -25 4 -35 13 -32 6 3 45 13 85 23 39 10 72 21 72 26 0 4
-28 8 -62 8 -35 0 -73 3 -85 6 -21 6 -23 3 -23 -31z m50 5 c-19 -13 -30 -13
-30 0 0 6 10 10 23 10 18 0 19 -2 7 -10z"/>
<path d="M290 511 c0 -6 -32 -54 -70 -108 -78 -109 -89 -135 -67 -158 19 -18
78 -116 103 -167 10 -21 20 -38 24 -38 3 0 32 36 64 81 33 44 66 87 74 96 16
16 18 10 -57 181 -23 51 -41 99 -41 107 0 8 -7 15 -15 15 -8 0 -15 -4 -15 -9z
m7 -143 c-80 -11 -83 -5 -36 57 l42 56 23 -53 22 -53 -51 -7z m73 -35 c0 -5 3
-18 6 -29 5 -21 2 -21 -87 -23 -51 -1 -96 -4 -100 -7 -17 -10 -20 18 -5 41 15
23 22 25 101 25 47 0 85 -3 85 -7z m30 -85 c-1 -47 -21 -58 -103 -58 -72 0
-77 1 -96 29 -21 30 -27 46 -13 37 4 -2 32 -1 62 4 30 4 76 8 103 9 43 1 47
-1 47 -21z m-50 -85 c0 -9 -61 -83 -69 -83 -7 0 -41 64 -41 78 0 4 25 8 55 9
30 1 55 -1 55 -4z"/>
<path d="M505 120 c-4 -6 -2 -17 4 -24 6 -7 9 -20 5 -29 -3 -8 -1 -18 5 -21
13 -9 33 30 29 57 -3 24 -32 35 -43 17z"/>
<path d="M1084 115 c-9 -24 22 -53 38 -37 9 9 10 17 2 29 -15 24 -33 27 -40 8z"/>
</g>
</svg>
