<?xml version="1.0" standalone="no"?>
<!DOCTYPE svg PUBLIC "-//W3C//DTD SVG 20010904//EN"
 "http://www.w3.org/TR/2001/REC-SVG-20010904/DTD/svg10.dtd">
<svg version="1.0" xmlns="http://www.w3.org/2000/svg"
 width="139.000000pt" height="166.000000pt" viewBox="0 0 139.000000 166.000000"
 preserveAspectRatio="xMidYMid meet">
<metadata>
Created by potrace 1.16, written by Peter Selinger 2001-2019
</metadata>
<g transform="translate(0.000000,166.000000) scale(0.100000,-0.100000)"
fill="#000000" stroke="none">
<path d="M818 1620 c-7 -11 -21 -20 -32 -20 -18 0 -19 -6 -12 -92 3 -50 6
-121 6 -157 0 -46 3 -62 10 -51 5 8 10 39 10 68 0 51 0 52 30 52 28 0 30 -3
30 -35 0 -31 -3 -35 -27 -35 -33 0 -28 -5 12 -13 l30 -6 -2 102 c-1 56 -2 110
-2 120 -1 9 -6 17 -12 17 -6 0 -8 -9 -4 -20 5 -16 2 -20 -19 -20 -26 0 -36 23
-16 35 6 3 10 15 10 26 0 22 32 26 49 5 7 -8 12 -62 13 -138 l1 -125 81 4
c106 5 166 13 166 21 0 4 -36 6 -80 4 l-80 -4 0 31 c0 25 4 31 23 32 65 2 152
10 156 14 2 3 -35 5 -82 5 l-87 0 0 35 0 35 73 2 c113 2 115 3 123 11 4 4 -39
7 -95 7 l-102 0 3 36 3 35 85 5 c108 6 116 14 14 14 -112 1 -243 8 -254 15 -5
3 -15 -3 -22 -15z m112 -55 c0 -19 -4 -35 -9 -35 -10 0 -21 57 -13 65 14 13
22 2 22 -30z m40 1 c0 -32 -19 -63 -21 -34 0 7 -2 25 -3 41 -1 16 3 27 11 27
8 0 13 -13 13 -34z m-173 2 c-3 -8 -6 -5 -6 6 -1 11 2 17 5 13 3 -3 4 -12 1
-19z m63 -93 c0 -32 -2 -35 -30 -35 -28 0 -30 3 -30 35 0 32 2 35 30 35 28 0
30 -3 30 -35z m61 -22 c-9 -15 -10 -13 -11 13 0 17 3 34 8 38 11 12 14 -32 3
-51z m49 22 c0 -24 -5 -35 -15 -35 -15 0 -22 50 -8 63 15 15 23 5 23 -28z m0
-86 c0 -19 -5 -29 -15 -29 -15 0 -22 50 -9 63 12 12 24 -4 24 -34z m-53 -21
c-2 -13 -4 -5 -4 17 -1 22 1 32 4 23 2 -10 2 -28 0 -40z"/>
<path d="M100 1592 c0 -26 -3 -29 -26 -24 -26 5 -26 4 -20 -34 3 -21 10 -97
15 -168 9 -122 21 -180 21 -102 0 36 1 36 38 35 20 -1 45 1 55 5 14 7 17 3 17
-23 0 -17 5 -31 10 -31 6 0 10 14 10 30 0 23 4 30 20 30 17 0 20 -7 21 -47 l1
-48 10 48 c12 54 38 66 38 17 0 -16 5 -30 10 -30 6 0 10 14 10 30 0 25 4 30
25 30 21 0 25 -5 25 -31 0 -17 4 -28 10 -24 6 3 10 17 10 31 0 21 4 24 40 24
22 0 40 5 40 10 0 6 -18 10 -40 10 -38 0 -40 2 -40 30 l0 30 87 0 c47 0 84 2
82 4 -2 2 -40 6 -84 9 -71 4 -80 7 -77 23 1 11 2 49 2 87 l0 67 89 0 c56 0 92
-4 97 -11 4 -7 9 -44 12 -83 3 -48 8 -65 13 -51 11 29 11 113 -1 120 -5 3 -10
15 -10 25 0 17 -12 18 -177 20 -98 0 -196 3 -218 6 -126 16 -115 17 -115 -14z
m111 -15 c4 -5 31 -8 60 -5 l54 4 -1 -40 c-1 -23 -2 -60 -3 -83 -1 -36 -4 -43
-21 -43 -18 0 -20 7 -20 75 0 43 -4 75 -10 75 -5 0 -10 -16 -10 -35 0 -28 -4
-35 -20 -35 -14 0 -20 7 -20 21 0 41 -18 59 -60 59 -29 0 -40 4 -40 15 0 12 8
14 43 9 23 -4 45 -11 48 -17z m181 -42 c-2 -25 -9 -45 -16 -45 -7 0 -6 -3 2
-9 8 -5 12 -22 10 -42 -3 -29 -7 -34 -32 -37 l-29 -4 6 54 c4 29 7 70 7 91 0
34 2 37 28 37 26 0 27 -2 24 -45z m-192 -10 c0 -21 -5 -35 -12 -36 -10 0 -10
-2 0 -6 7 -2 12 -22 12 -44 0 -32 -3 -39 -20 -39 -22 0 -21 -1 -26 80 -4 68 0
80 26 80 16 0 20 -6 20 -35z m-109 -2 c-8 -15 -10 -15 -11 -2 0 17 10 32 18
25 2 -3 -1 -13 -7 -23z m47 -93 l1 -110 -25 0 c-20 0 -24 5 -24 28 0 15 5 33
12 40 9 9 9 12 0 12 -7 0 -12 13 -12 30 0 33 28 110 40 110 4 0 8 -49 8 -110z
m122 10 c0 -33 -3 -40 -20 -40 -17 0 -20 7 -20 40 0 33 3 40 20 40 17 0 20 -7
20 -40z m-60 -85 c0 -28 -4 -35 -20 -35 -16 0 -20 7 -20 35 0 28 4 35 20 35
16 0 20 -7 20 -35z m60 0 c0 -28 -4 -35 -20 -35 -16 0 -20 7 -20 35 0 28 4 35
20 35 16 0 20 -7 20 -35z m53 16 c5 -20 -9 -51 -23 -51 -6 0 -10 16 -10 35 0
38 24 50 33 16z m69 -16 c-5 -37 -3 -35 -30 -28 -16 4 -22 13 -22 35 0 26 3
29 28 26 24 -3 27 -7 24 -33z"/>
<path d="M1216 1585 c9 -21 14 -68 14 -124 0 -85 -1 -90 -22 -94 -18 -3 -16
-5 8 -6 l31 -1 6 113 c3 62 9 121 13 130 3 9 1 17 -4 17 -6 0 -13 -10 -15 -22
l-4 -23 -8 23 c-4 12 -13 22 -21 22 -11 0 -10 -6 2 -35z"/>
<path d="M627 1603 c-11 -10 -8 -43 3 -43 6 0 10 11 10 25 0 26 -2 29 -13 18z"/>
<path d="M442 1488 c-9 -4 21 -7 67 -7 46 -1 81 2 78 6 -9 9 -123 10 -145 1z"/>
<path d="M617 1373 c-8 -41 -11 -43 -45 -44 -37 -1 -36 -2 8 -9 25 -4 46 -6
48 -5 2 2 2 25 0 51 l-3 49 -8 -42z"/>
<path d="M677 1343 c-3 -5 -2 -23 0 -41 4 -26 8 -30 19 -21 19 15 18 69 0 69
-8 0 -17 -3 -19 -7z"/>
<path d="M1327 1343 c-7 -12 4 -73 13 -73 11 0 28 52 23 68 -5 13 -29 17 -36
5z"/>
<path d="M140 1261 c0 -11 5 -23 10 -26 6 -4 10 5 10 19 0 14 -4 26 -10 26 -5
0 -10 -9 -10 -19z"/>
<path d="M120 1016 c0 -21 -5 -26 -26 -26 -24 0 -26 -3 -19 -27 4 -16 10 -98
13 -183 l7 -155 85 1 c204 4 414 14 421 21 4 4 9 80 13 168 3 88 8 175 12 194
5 26 4 33 -7 29 -8 -3 -14 -11 -15 -19 -2 -30 -6 -33 -13 -10 -7 26 -5 26
-301 21 -63 -1 -127 1 -142 5 -25 6 -28 5 -28 -19z m86 -12 c14 -4 24 -14 24
-24 0 -9 3 -38 6 -64 l7 -46 -54 -2 -54 -2 53 -3 52 -4 0 -50 0 -49 -45 -1
c-25 -1 -53 -2 -62 -3 -15 -1 -19 9 -21 52 -2 28 1 52 7 52 5 0 7 9 4 20 -5
17 13 113 24 133 3 5 12 6 20 3 8 -4 26 -9 39 -12z m266 -31 c7 -77 0 -88 -54
-91 l-48 -3 0 65 c0 70 2 72 66 75 31 1 32 0 36 -46z m102 20 c19 -106 20
-103 -14 -103 -16 0 -30 -4 -30 -10 0 -5 14 -10 30 -10 l30 0 0 -104 0 -104
-44 -4 -44 -3 -4 47 -3 48 39 0 c47 0 44 9 -5 13 l-34 2 2 120 c1 66 2 123 2
128 1 4 16 7 35 7 30 0 35 -4 40 -27z m-224 -48 c0 -45 -4 -65 -12 -66 -7 0
-25 -3 -41 -5 -31 -5 -33 -2 -41 73 l-7 52 33 4 c73 9 68 13 68 -58z m-243 -7
c-3 -7 -5 -2 -5 12 0 14 2 19 5 13 2 -7 2 -19 0 -25z m363 -120 l0 -53 -50 3
-50 4 0 43 c0 47 6 52 68 54 l32 1 0 -52z m-120 -64 l0 -105 -42 3 c-38 3 -43
6 -45 28 -5 55 5 70 45 71 l37 2 -40 6 c-40 6 -40 6 -43 54 l-3 47 45 0 46 0
0 -106z m-110 -54 l0 -50 -37 -2 c-41 -1 -74 -1 -85 1 -5 0 -8 21 -8 45 l0 45
53 4 c28 2 58 4 65 5 8 1 12 -14 12 -48z m230 23 c0 -16 3 -38 6 -49 5 -20 2
-22 -48 -20 l-53 1 -3 48 -3 47 50 0 c49 0 51 -1 51 -27z"/>
<path d="M150 996 c0 -10 28 -13 41 -5 10 6 7 9 -13 9 -16 0 -28 -2 -28 -4z"/>
<path d="M990 1018 c-47 -3 -129 -6 -183 -7 -69 -1 -99 -5 -102 -13 -2 -7 -6
-80 -9 -161 l-5 -149 92 3 c97 3 127 9 88 19 -22 5 -23 10 -23 88 -1 45 1 84
3 87 3 2 29 5 59 7 l55 3 3 -42 3 -43 -55 0 c-34 0 -56 -4 -56 -11 0 -7 15
-10 41 -7 35 3 40 1 36 -14 -7 -24 20 -24 26 0 3 9 5 -1 4 -23 -2 -37 -4 -40
-35 -43 -18 -2 -30 -8 -26 -13 3 -5 9 -7 14 -4 4 2 29 6 55 7 33 1 42 4 31 10
-10 5 -16 22 -16 42 0 29 4 34 31 40 48 9 49 9 49 -34 0 -29 -4 -40 -15 -40
-8 0 -15 -5 -15 -10 0 -7 47 -10 133 -8 l132 3 -2 160 c-1 101 -6 161 -13 163
-6 2 -10 -18 -10 -52 l0 -56 -46 0 c-43 0 -46 2 -40 23 3 12 6 32 6 45 0 17 6
22 27 22 14 0 24 2 21 5 -9 9 -163 11 -258 3z m180 -53 c0 -47 1 -46 -56 -49
-13 -1 -17 9 -18 39 -3 53 -1 55 40 55 34 0 34 0 34 -45z m-348 -19 l-4 -44
-46 3 -47 3 -3 40 -3 41 43 3 c61 4 64 3 60 -46z m143 13 c4 -22 5 -42 3 -43
-1 -2 -29 -6 -60 -9 -51 -5 -58 -3 -63 14 -4 11 -4 31 -1 44 6 24 7 24 98 33
12 2 18 -9 23 -39z m105 -4 c0 -36 -4 -45 -17 -46 -17 -1 -17 -2 0 -6 13 -3
17 -15 17 -49 l0 -44 -40 0 c-39 0 -40 1 -40 36 0 23 6 42 18 50 16 13 16 13
0 14 -12 0 -18 8 -18 23 0 12 -3 32 -6 45 -6 20 -3 22 40 22 l46 0 0 -45z
m100 -90 c0 -41 -2 -45 -24 -45 -14 0 -28 -4 -31 -10 -4 -6 8 -10 29 -10 35 0
36 -1 36 -40 l0 -40 -45 0 -45 0 3 87 2 88 30 6 c17 4 33 7 38 8 4 0 7 -19 7
-44z m108 -2 l3 -43 -39 0 c-43 0 -52 10 -52 59 0 26 3 28 43 27 l42 -1 3 -42z
m-457 0 c1 -16 3 -41 5 -58 1 -16 0 -45 -2 -62 -5 -33 -6 -33 -59 -33 -51 0
-55 2 -55 24 0 47 10 56 56 56 24 0 44 5 44 10 0 6 -20 10 -45 10 l-45 0 0 40
0 40 50 0 c48 0 50 -1 51 -27z m462 -90 c8 -47 3 -53 -44 -53 -39 0 -39 0 -39
39 0 33 4 40 23 43 53 8 55 7 60 -29z"/>
<path d="M1376 672 c-2 -4 -1 -23 4 -42 l8 -35 1 43 c1 41 -3 50 -13 34z"/>
<path d="M645 660 c-3 -5 -3 -16 2 -22 4 -7 6 -22 4 -33 -3 -16 -1 -17 13 -6
20 17 22 71 2 71 -8 0 -18 -4 -21 -10z"/>
<path d="M504 368 c-4 -6 -8 -242 -5 -303 1 -20 7 -21 236 -21 l235 0 0 91 c0
122 -11 245 -22 245 -4 0 -5 -25 -2 -55 l7 -55 -67 0 -66 0 0 45 0 45 50 0
c28 0 50 4 50 8 0 10 -410 10 -416 0z m176 -53 l0 -45 -64 0 c-35 0 -71 -3
-80 -6 -13 -5 -16 2 -16 39 l0 46 63 4 c34 2 70 4 80 5 14 2 17 -6 17 -43z
m118 -2 l3 -43 -50 0 -51 0 0 38 c0 21 2 41 5 44 3 3 24 4 48 4 l42 -1 3 -42z
m150 -100 l3 -43 -65 0 -66 0 0 39 c0 40 0 40 43 44 79 7 82 6 85 -40z m-268
-3 l0 -40 -80 0 -80 0 0 40 0 40 80 0 80 0 0 -40z m120 23 c-1 -51 -11 -63
-56 -63 l-44 0 0 40 0 40 50 0 c41 0 50 -3 50 -17z m-120 -128 l0 -45 -80 0
-80 0 0 45 0 45 80 0 80 0 0 -45z m118 3 l-3 -43 -45 0 -45 0 -3 43 -3 42 51
0 51 0 -3 -42z m152 -3 l0 -45 -64 0 -64 0 -4 45 -3 45 67 0 68 0 0 -45z"/>
<path d="M1023 84 c-8 -21 13 -42 28 -27 13 13 5 43 -11 43 -6 0 -13 -7 -17
-16z"/>
<path d="M80 10 c-47 -3 229 -7 613 -8 459 -1 697 1 697 8 0 11 -1161 11
-1310 0z"/>
</g>
</svg>
