<?xml version="1.0" standalone="no"?>
<!DOCTYPE svg PUBLIC "-//W3C//DTD SVG 20010904//EN"
 "http://www.w3.org/TR/2001/REC-SVG-20010904/DTD/svg10.dtd">
<svg version="1.0" xmlns="http://www.w3.org/2000/svg"
 width="82.000000pt" height="53.000000pt" viewBox="0 0 82.000000 53.000000"
 preserveAspectRatio="xMidYMid meet">
<metadata>
Created by potrace 1.16, written by Peter Selinger 2001-2019
</metadata>
<g transform="translate(0.000000,53.000000) scale(0.100000,-0.100000)"
fill="#000000" stroke="none">
<path d="M687 449 c-20 -12 -489 -18 -529 -6 -23 6 -27 4 -30 -15 -2 -18 -11
-24 -43 -28 -29 -4 -39 -9 -37 -20 13 -53 22 -149 22 -232 0 -54 4 -98 9 -98
5 0 12 44 14 98 6 124 14 159 38 165 10 3 90 6 176 7 151 2 183 3 317 8 33 1
56 5 53 8 -7 8 -49 7 -349 -2 -205 -7 -208 -6 -208 14 0 16 10 22 47 31 162
35 505 58 524 34 6 -6 12 -44 15 -84 l6 -72 -36 6 c-20 3 -36 2 -36 -3 0 -5
17 -10 38 -12 34 -3 37 -6 37 -33 l0 -30 -125 -1 c-240 -3 -490 -16 -490 -26
0 -5 30 -6 73 -3 39 4 177 7 305 8 l232 2 0 -37 c0 -21 4 -38 9 -38 12 0 21
52 21 126 0 54 16 131 45 225 6 17 1 19 -37 19 -24 0 -51 -5 -61 -11z m-448
-30 c25 -1 25 -2 -4 -9 -16 -4 -44 -8 -62 -9 -26 -1 -31 2 -26 15 4 12 14 14
36 10 16 -3 41 -7 56 -7z m507 -41 c-10 -49 -11 -50 -17 -23 -12 57 -10 75 9
75 17 0 18 -4 8 -52z m-647 -20 c-1 -13 -5 -36 -9 -53 l-8 -30 -1 37 c0 20 -4
43 -7 52 -4 11 -1 16 10 16 10 0 16 -8 15 -22z"/>
<path d="M440 260 c-76 -3 -128 -8 -119 -13 8 -4 44 -6 80 -3 35 2 101 5 147
5 47 1 82 5 82 11 0 6 -12 9 -27 8 -16 -1 -89 -5 -163 -8z"/>
<path d="M167 243 c24 -2 62 -2 85 0 24 2 5 4 -42 4 -47 0 -66 -2 -43 -4z"/>
</g>
</svg>
