<?xml version="1.0" standalone="no"?>
<!DOCTYPE svg PUBLIC "-//W3C//DTD SVG 20010904//EN"
 "http://www.w3.org/TR/2001/REC-SVG-20010904/DTD/svg10.dtd">
<svg version="1.0" xmlns="http://www.w3.org/2000/svg"
 width="106.000000pt" height="65.000000pt" viewBox="0 0 106.000000 65.000000"
 preserveAspectRatio="xMidYMid meet">
<metadata>
Created by potrace 1.16, written by Peter Selinger 2001-2019
</metadata>
<g transform="translate(0.000000,65.000000) scale(0.100000,-0.100000)"
fill="#000000" stroke="none">
<path d="M0 640 c0 -7 183 -10 530 -10 347 0 530 3 530 10 0 7 -183 10 -530
10 -347 0 -530 -3 -530 -10z"/>
<path d="M905 593 c-11 -3 -22 -8 -25 -12 -9 -11 -264 -91 -290 -91 -14 0 -36
-3 -48 -7 -21 -5 -23 -10 -17 -42 9 -47 11 -48 43 -27 42 27 299 146 317 146
1 0 8 -38 15 -84 12 -76 8 -281 -5 -295 -9 -8 -153 61 -235 114 l-85 54 -23
-24 c-25 -28 -28 -45 -8 -45 28 0 200 -61 284 -100 47 -22 87 -39 88 -37 2 2
8 77 14 168 6 90 16 190 24 221 7 32 11 60 8 63 -6 6 -28 5 -57 -2z m31 -39
c-3 -9 -6 -25 -7 -37 0 -21 -1 -21 -9 -2 -14 32 -11 55 6 55 11 0 14 -5 10
-16z m-327 -87 c-39 -29 -59 -36 -59 -23 0 13 13 19 54 25 5 0 7 0 5 -2z m19
-182 c-9 -9 -58 9 -58 21 0 12 5 12 31 -1 17 -9 29 -18 27 -20z"/>
<path d="M100 426 c0 -22 -4 -26 -28 -26 l-28 0 4 -142 c2 -79 8 -147 13 -153
10 -10 11 -3 9 75 -1 31 6 88 15 127 15 67 18 71 48 77 91 16 221 25 290 19
65 -5 77 -4 77 9 0 13 -26 17 -167 21 -93 3 -183 9 -200 13 -31 6 -33 4 -33
-20z m47 -12 c-3 -3 -12 -4 -19 -1 -8 3 -5 6 6 6 11 1 17 -2 13 -5z m-67 -54
c0 -5 -4 -10 -10 -10 -5 0 -10 5 -10 10 0 6 5 10 10 10 6 0 10 -4 10 -10z"/>
<path d="M106 300 c-1 -3 -3 -20 -4 -37 -3 -37 4 -39 51 -20 50 21 102 29 232
36 75 4 118 10 115 16 -5 10 -389 15 -394 5z"/>
</g>
</svg>
