<?xml version="1.0" standalone="no"?>
<!DOCTYPE svg PUBLIC "-//W3C//DTD SVG 20010904//EN"
 "http://www.w3.org/TR/2001/REC-SVG-20010904/DTD/svg10.dtd">
<svg version="1.0" xmlns="http://www.w3.org/2000/svg"
 width="138.000000pt" height="174.000000pt" viewBox="0 0 138.000000 174.000000"
 preserveAspectRatio="xMidYMid meet">
<metadata>
Created by potrace 1.16, written by Peter Selinger 2001-2019
</metadata>
<g transform="translate(0.000000,174.000000) scale(0.100000,-0.100000)"
fill="#000000" stroke="none">
<path d="M1113 1655 c-20 -30 -142 -126 -176 -138 -8 -3 -7 -10 5 -24 16 -17
16 -22 3 -39 -8 -10 -15 -27 -15 -36 0 -14 -9 -16 -72 -11 -40 3 -77 11 -81
17 -4 6 -6 57 -4 114 l4 103 -29 -29 -30 -29 16 -47 c9 -26 16 -76 16 -113 l0
-65 28 7 c15 4 74 10 132 12 l105 4 37 -39 c27 -29 34 -42 26 -50 -9 -9 -7
-17 6 -31 9 -10 16 -25 14 -33 -1 -7 1 -14 6 -16 5 -2 20 23 34 55 14 34 50
87 88 129 35 40 64 76 64 81 0 4 -29 41 -64 82 -36 40 -68 86 -71 102 -8 37
-15 36 -42 -6z m37 -25 c0 -5 -4 -10 -10 -10 -5 0 -10 5 -10 10 0 6 5 10 10
10 6 0 10 -4 10 -10z m1 -36 c27 -13 99 -84 107 -104 2 -4 -11 -10 -28 -12
-29 -4 -30 -3 -30 35 0 51 -23 45 -30 -9 -3 -26 -8 -35 -13 -26 -5 7 -6 31 -2
52 4 26 3 40 -4 40 -6 0 -11 -6 -11 -12 0 -9 -3 -9 -8 -2 -8 12 -51 13 -70 1
-8 -6 -10 -21 -5 -49 6 -38 4 -41 -13 -34 -33 13 -39 12 -39 -9 0 -16 6 -20
33 -19 30 2 32 0 32 -34 0 -41 9 -37 20 10 7 30 8 28 9 -19 1 -29 6 -53 11
-53 6 0 10 7 10 15 0 8 6 14 13 13 7 -2 11 5 10 17 -4 32 7 67 19 63 7 -3 12
-23 13 -47 1 -35 -4 -47 -28 -67 -16 -13 -32 -24 -37 -24 -13 0 -94 88 -112
121 -15 28 -15 35 -3 59 14 28 103 110 118 110 4 0 21 -7 38 -16z m-24 -101
c-3 -10 -5 -2 -5 17 0 19 2 27 5 18 2 -10 2 -26 0 -35z m-30 -10 c-3 -10 -5
-2 -5 17 0 19 2 27 5 18 2 -10 2 -26 0 -35z m147 -21 c2 -4 -9 -22 -25 -40
l-29 -32 0 34 c0 19 6 37 13 39 19 8 35 8 41 -1z m-256 -40 c2 -7 -2 -10 -12
-6 -9 3 -16 11 -16 16 0 13 23 5 28 -10z m132 -142 c0 -5 -5 -10 -11 -10 -5 0
-7 5 -4 10 3 6 8 10 11 10 2 0 4 -4 4 -10z"/>
<path d="M75 1638 c12 -34 18 -180 8 -187 -4 -3 -16 -16 -26 -28 -20 -23 -15
-49 6 -36 16 10 115 32 150 32 46 1 20 21 -28 21 -68 0 -75 6 -75 59 0 27 7
70 15 97 20 65 20 64 -21 64 -33 0 -36 -2 -29 -22z"/>
<path d="M464 1618 c-16 -37 -29 -48 -94 -80 -41 -20 -83 -37 -92 -38 -24 0
-31 -16 -16 -40 11 -17 10 -25 -5 -51 -22 -39 -15 -49 32 -49 40 0 161 -37
161 -49 0 -4 -12 -13 -26 -20 -24 -11 -25 -13 -12 -29 8 -9 18 -25 21 -34 10
-29 23 -21 42 27 13 34 36 62 96 113 70 59 95 92 72 92 -5 0 -29 19 -55 43
-47 43 -88 108 -88 139 0 31 -16 20 -36 -24z m47 -50 c11 -21 0 -23 -25 -5
-11 8 -15 19 -10 31 7 19 10 16 35 -26z m-39 -125 c-2 -76 0 -104 7 -93 6 8
11 55 11 103 0 65 3 88 12 85 9 -3 11 -32 9 -99 -3 -103 -5 -109 -28 -109 -24
0 -131 51 -135 64 -2 6 -1 31 3 56 l6 45 1 -52 c3 -81 22 -76 22 5 0 53 4 71
15 76 13 4 15 -7 15 -69 0 -40 5 -77 10 -80 6 -4 10 25 10 79 0 82 4 93 35 95
6 1 9 -39 7 -106z m84 50 c-3 -8 -6 -39 -6 -69 0 -30 -4 -54 -10 -54 -6 0 -10
32 -10 75 0 63 2 73 16 68 8 -3 13 -12 10 -20z m-251 -13 c-3 -5 -11 -10 -16
-10 -6 0 -7 5 -4 10 3 6 11 10 16 10 6 0 7 -4 4 -10z m313 -47 c-6 -8 -18 -18
-27 -23 -13 -7 -16 -1 -19 37 l-3 44 30 -22 c24 -18 28 -25 19 -36z m-288 12
c0 -36 -15 -46 -38 -23 -9 9 -7 17 10 35 12 13 23 23 25 23 2 0 3 -16 3 -35z
m-20 -57 c0 -6 -7 -7 -16 -4 -9 3 -18 6 -20 6 -3 0 -3 4 1 10 7 11 35 2 35
-12z m146 -125 c-10 -10 -19 5 -10 18 6 11 8 11 12 0 2 -7 1 -15 -2 -18z"/>
<path d="M636 1312 c-8 -13 5 -82 15 -82 14 0 31 39 27 63 -3 22 -32 35 -42
19z"/>
<path d="M1316 1302 c-9 -15 6 -83 17 -79 19 6 30 56 17 72 -14 17 -26 19 -34
7z"/>
<path d="M996 1003 c-19 -25 -19 -26 -1 -39 18 -14 18 -15 -1 -32 -10 -10 -47
-33 -81 -52 -64 -35 -72 -47 -51 -68 9 -9 9 -18 0 -36 -10 -23 -8 -26 42 -55
58 -32 96 -73 96 -102 0 -11 7 -19 15 -19 8 0 15 5 15 12 0 23 53 80 126 135
82 62 93 61 121 -4 17 -43 38 -44 29 -2 -3 17 -6 53 -6 80 0 37 -4 49 -15 49
-8 0 -15 -3 -15 -8 0 -4 -9 -13 -21 -20 -18 -12 -24 -11 -43 6 -11 10 -48 37
-82 60 -43 29 -65 52 -79 81 -10 23 -21 41 -24 41 -3 0 -15 -12 -25 -27z m34
-23 c0 -5 -4 -10 -10 -10 -5 0 -10 5 -10 10 0 6 5 10 10 10 6 0 10 -4 10 -10z
m68 -115 c2 -19 -1 -35 -7 -35 -5 0 -11 17 -13 37 -2 20 -8 38 -14 40 -8 3
-10 -10 -7 -42 4 -30 2 -45 -6 -45 -6 0 -11 17 -11 39 0 55 -18 61 -22 9 -4
-54 -21 -56 -22 -3 -1 28 5 45 19 57 19 16 22 15 50 -2 23 -14 31 -28 33 -55z
m-118 -5 c0 -20 -5 -30 -15 -30 -16 0 -19 17 -9 44 10 26 24 18 24 -14z m195
-14 c19 -15 18 -15 -17 -16 -34 0 -38 3 -38 25 0 27 10 26 55 -9z m105 -43 c0
-26 -1 -26 -14 -8 -14 20 -12 35 5 35 5 0 9 -12 9 -27z m-353 -47 c-2 -6 -11
1 -21 16 -10 15 -15 32 -11 38 8 13 38 -37 32 -54z m166 -29 c-3 -4 -23 -19
-45 -33 l-40 -26 -29 28 c-21 20 -29 37 -29 61 0 57 28 35 32 -25 0 -16 3 -9
7 17 3 25 12 46 20 49 10 3 12 -2 7 -21 -3 -14 -2 -29 4 -32 6 -4 10 6 10 24
0 21 5 31 15 31 11 0 15 -11 15 -41 0 -26 4 -38 11 -34 6 4 7 19 4 36 -4 16
-3 34 2 41 8 14 25 -61 16 -75z m76 57 c-13 -14 -32 -30 -41 -35 -16 -8 -18
-5 -18 26 0 34 1 35 42 35 l41 0 -24 -26z"/>
<path d="M85 1008 c-11 -6 -21 -12 -22 -12 -1 -1 5 -22 13 -46 11 -32 14 -64
10 -109 -5 -62 -5 -63 17 -56 12 4 54 9 92 12 l70 5 -18 -20 c-19 -20 -18 -21
18 -31 43 -11 126 -71 121 -86 -2 -6 7 -24 21 -40 19 -23 26 -26 30 -15 10 25
87 94 146 130 31 19 59 43 62 52 4 11 -7 31 -30 55 -20 21 -53 64 -73 95 -39
61 -47 65 -86 46 -20 -9 -23 -14 -14 -25 6 -7 9 -15 7 -17 -6 -5 -172 -92
-189 -99 -13 -5 -13 -7 0 -16 11 -8 0 -11 -45 -11 -110 0 -109 -2 -102 107 3
51 2 93 -1 93 -4 0 -16 -6 -27 -12z m429 -50 c12 -17 13 -24 3 -30 -9 -6 -6
-13 10 -26 19 -14 21 -22 15 -47 -6 -19 -11 -25 -16 -17 -4 7 -5 19 -2 27 3 8
1 17 -4 20 -6 4 -10 -3 -10 -14 0 -12 -4 -21 -9 -21 -4 0 -6 11 -4 24 3 13 0
27 -6 30 -7 5 -11 -4 -11 -23 0 -17 -5 -31 -11 -31 -7 0 -8 11 -4 30 8 36 -11
42 -25 8 -9 -23 -9 -23 -9 2 -1 31 28 51 60 43 23 -6 23 -5 7 14 -10 11 -18
23 -18 26 0 15 20 6 34 -15z m-101 -68 c-3 -11 -9 -18 -13 -15 -5 3 -11 1 -15
-4 -3 -6 3 -15 14 -20 28 -15 14 -63 -19 -68 -14 -2 -29 -8 -35 -14 -7 -8 1
-10 28 -5 l37 7 0 -41 c0 -22 5 -40 10 -40 6 0 10 21 10 46 0 27 4 43 10 39 6
-3 10 -21 10 -38 0 -21 3 -27 9 -19 4 7 6 25 3 39 -3 17 -1 24 6 19 6 -4 9
-13 5 -21 -3 -8 0 -15 6 -15 6 0 11 9 11 21 0 12 5 19 13 16 6 -2 17 3 24 12
11 14 12 11 13 -16 0 -27 -7 -37 -37 -56 -81 -51 -75 -51 -136 4 -85 75 -84
94 7 160 46 34 45 34 39 9z m191 -59 l27 -29 -29 -21 c-37 -26 -42 -26 -42 -1
0 14 7 20 23 21 l22 0 -22 16 c-22 15 -32 43 -15 43 5 0 21 -13 36 -29z m-154
-11 c0 -11 -4 -20 -10 -20 -5 0 -10 9 -10 20 0 11 5 20 10 20 6 0 10 -9 10
-20z m30 -5 c0 -8 -4 -15 -10 -15 -5 0 -10 7 -10 15 0 8 5 15 10 15 6 0 10 -7
10 -15z m-190 -46 c0 -6 -4 -7 -10 -4 -5 3 -10 11 -10 16 0 6 5 7 10 4 6 -3
10 -11 10 -16z m150 -119 c0 -5 -5 -10 -11 -10 -5 0 -7 5 -4 10 3 6 8 10 11
10 2 0 4 -4 4 -10z"/>
<path d="M500 740 c0 -5 5 -10 11 -10 5 0 7 5 4 10 -3 6 -8 10 -11 10 -2 0 -4
-4 -4 -10z"/>
<path d="M470 719 c0 -5 5 -7 10 -4 6 3 10 8 10 11 0 2 -4 4 -10 4 -5 0 -10
-5 -10 -11z"/>
<path d="M690 1007 c0 -7 4 -17 10 -23 5 -5 11 -53 12 -107 3 -80 6 -96 18
-92 8 2 36 7 63 11 55 7 63 24 11 24 -71 0 -86 27 -65 110 24 94 25 90 -14 90
-22 0 -35 -5 -35 -13z m37 -39 c-3 -7 -5 -2 -5 12 0 14 2 19 5 13 2 -7 2 -19
0 -25z"/>
<path d="M666 695 c-3 -9 -3 -22 1 -28 4 -7 6 -20 5 -29 -2 -11 3 -18 12 -18
17 0 30 37 24 67 -4 23 -34 29 -42 8z"/>
<path d="M1359 688 c-1 -2 -3 -22 -4 -45 -2 -32 1 -43 11 -43 10 0 14 13 14
45 0 25 -4 45 -10 45 -5 0 -11 -1 -11 -2z"/>
<path d="M930 480 c-43 -27 -187 -91 -223 -100 -70 -18 -68 -16 -52 -53 12
-30 12 -37 0 -53 -21 -28 -19 -31 35 -38 27 -4 80 -20 117 -36 68 -29 68 -29
68 -68 0 -55 10 -60 42 -21 48 57 170 160 221 188 12 6 22 15 22 19 0 4 -23
22 -51 41 -28 18 -76 55 -105 82 -30 27 -55 49 -57 48 -1 0 -9 -4 -17 -9z m40
-35 c8 -9 8 -15 2 -15 -18 0 -42 12 -42 21 0 14 26 10 40 -6z m-16 -37 c6 -4
2 -16 -8 -27 -12 -13 -15 -27 -11 -41 4 -12 7 -50 7 -84 1 -50 -2 -62 -17 -64
-16 -4 -17 5 -13 112 2 64 1 116 -3 116 -14 0 -41 -52 -31 -59 13 -8 20 -171
8 -171 -5 0 -18 7 -28 17 -14 12 -18 31 -18 83 0 94 9 130 34 139 20 8 59 -3
80 -21z m-138 -40 c1 -18 4 -57 7 -85 4 -39 2 -53 -7 -53 -24 0 -36 24 -36 71
0 78 34 140 36 67z m192 3 c-7 -9 -17 -19 -21 -22 -4 -3 -3 -25 2 -49 10 -45
0 -90 -20 -90 -7 0 -9 24 -6 78 7 95 12 111 38 105 16 -5 17 -8 7 -22z m96
-37 c11 -7 18 -15 15 -17 -2 -2 -25 -20 -50 -40 -25 -20 -49 -37 -53 -37 -10
0 -7 74 5 108 11 31 11 32 37 16 15 -8 36 -22 46 -30z m-400 5 c-12 -13 -20
-16 -22 -9 -3 7 2 16 9 21 25 16 32 9 13 -12z m57 -42 c7 -42 -4 -47 -40 -16
-23 19 -23 20 -6 39 25 28 39 20 46 -23z m-46 -34 c20 -15 19 -15 -5 -9 -14 3
-29 6 -33 6 -5 0 -5 5 -2 10 8 14 16 12 40 -7z m202 -120 c-15 -16 -17 -16
-17 -1 0 9 6 18 13 21 20 7 22 -2 4 -20z"/>
<path d="M442 420 l-34 -28 26 -70 c13 -38 28 -97 32 -131 3 -33 11 -61 17
-61 6 0 7 25 3 69 -8 80 -11 78 101 88 85 7 80 23 -7 23 -98 0 -102 4 -98 71
1 31 1 60 -2 62 -3 3 -20 -8 -38 -23z m17 -62 c-1 -42 -1 -42 -10 -13 -5 17
-7 36 -4 43 9 24 15 11 14 -30z"/>
<path d="M1246 323 c-4 -9 0 -23 9 -32 13 -14 17 -14 31 1 9 9 14 24 11 32 -8
21 -43 20 -51 -1z"/>
</g>
</svg>
