<?xml version="1.0" standalone="no"?>
<!DOCTYPE svg PUBLIC "-//W3C//DTD SVG 20010904//EN"
 "http://www.w3.org/TR/2001/REC-SVG-20010904/DTD/svg10.dtd">
<svg version="1.0" xmlns="http://www.w3.org/2000/svg"
 width="71.000000pt" height="64.000000pt" viewBox="0 0 71.000000 64.000000"
 preserveAspectRatio="xMidYMid meet">
<metadata>
Created by potrace 1.16, written by Peter Selinger 2001-2019
</metadata>
<g transform="translate(0.000000,64.000000) scale(0.100000,-0.100000)"
fill="#000000" stroke="none">
<path d="M105 570 c-5 -14 -15 -20 -37 -20 -28 0 -30 -2 -22 -27 5 -16 9 -69
9 -120 0 -96 8 -123 24 -81 8 23 35 37 68 38 8 0 10 -16 6 -55 -4 -38 -2 -55
6 -55 6 0 11 17 11 43 0 23 5 49 10 57 7 11 10 -1 10 -42 0 -80 20 -86 22 -6
1 55 2 57 5 17 3 -30 11 -53 24 -64 19 -18 19 -17 19 28 0 71 5 77 65 77 51 0
53 -1 59 -31 8 -41 8 -158 0 -199 -5 -24 -11 -31 -25 -27 -26 7 -33 -9 -18
-44 10 -24 16 -29 33 -24 62 19 97 25 157 25 l66 0 7 132 c4 73 13 183 20 243
7 61 11 113 9 118 -2 4 -93 7 -201 7 -108 0 -213 4 -232 9 -85 22 -88 22 -95
1z m457 -49 c5 -4 11 -42 15 -85 l6 -79 -59 8 c-32 4 -63 8 -69 8 -9 2 -16
-208 -7 -226 2 -4 9 -4 15 0 7 5 31 13 55 18 57 13 58 29 2 36 -25 3 -34 7
-20 8 67 4 98 30 38 32 -18 0 -42 4 -53 9 -19 7 -18 8 5 14 14 3 36 7 50 8 31
4 29 22 -2 26 -82 10 -85 26 -5 35 l47 5 0 -123 c0 -67 -2 -124 -4 -126 -2 -2
-41 -3 -85 -1 l-81 4 0 81 c1 45 7 118 15 162 8 43 12 81 10 83 -6 6 -65 -19
-65 -28 0 -3 -22 -6 -48 -6 l-49 1 5 50 c5 55 -13 55 -21 0 -4 -27 -4 -26 -6
8 -2 53 -21 46 -21 -8 0 -25 -4 -45 -9 -45 -5 0 -7 17 -4 39 3 23 1 41 -6 45
-6 4 -12 1 -12 -6 -8 -93 -19 -116 -19 -40 0 29 -4 52 -10 52 -5 0 -10 -20
-10 -45 0 -41 -2 -45 -24 -45 -45 0 -56 10 -55 49 2 75 9 83 69 88 30 2 56 6
58 7 6 6 347 -7 354 -13z m48 -33 c0 -32 -3 -39 -10 -28 -13 20 -13 70 0 70 6
0 10 -19 10 -42z"/>
</g>
</svg>
