<?xml version="1.0" standalone="no"?>
<!DOCTYPE svg PUBLIC "-//W3C//DTD SVG 20010904//EN"
 "http://www.w3.org/TR/2001/REC-SVG-20010904/DTD/svg10.dtd">
<svg version="1.0" xmlns="http://www.w3.org/2000/svg"
 width="142.000000pt" height="102.000000pt" viewBox="0 0 142.000000 102.000000"
 preserveAspectRatio="xMidYMid meet">
<metadata>
Created by potrace 1.16, written by Peter Selinger 2001-2019
</metadata>
<g transform="translate(0.000000,102.000000) scale(0.100000,-0.100000)"
fill="#000000" stroke="none">
<path d="M281 888 c-29 -34 -33 -44 -27 -77 l6 -38 -53 4 c-28 3 -65 9 -81 14
-35 11 -43 5 -52 -40 -7 -32 -6 -33 17 -26 41 13 58 27 27 22 -29 -4 -33 0
-20 20 8 13 62 6 62 -8 0 -5 24 -9 54 -9 l54 0 13 -57 c20 -82 42 -83 33 -1
l-6 63 78 -2 c44 -1 104 2 134 6 54 8 54 9 -35 11 -49 2 -109 3 -132 3 l-42 0
5 46 c3 25 7 58 9 73 7 41 -7 40 -44 -4z m19 -95 c0 -42 -2 -74 -4 -72 -2 2
-11 27 -19 55 -14 46 -14 54 -1 73 9 12 17 21 20 21 2 0 4 -34 4 -77z"/>
<path d="M856 921 c-3 -5 1 -25 9 -44 8 -19 19 -54 24 -76 l9 -41 -42 0 c-24
0 -64 6 -89 14 -25 7 -48 11 -51 8 -9 -8 -7 -82 2 -82 4 0 34 7 67 15 33 8 72
14 88 15 l27 0 0 -79 c0 -103 16 -113 22 -15 3 41 10 80 16 86 7 7 75 12 179
15 158 3 167 2 146 -13 -13 -9 -23 -23 -23 -32 0 -22 -43 -88 -48 -73 -2 7 6
23 19 37 28 30 9 32 -26 1 l-27 -22 19 -33 c10 -17 20 -32 24 -32 3 0 14 19
26 43 11 23 36 63 56 88 l35 47 -24 66 c-13 37 -24 78 -24 91 0 33 -16 31 -51
-6 -34 -37 -36 -50 -8 -67 25 -16 37 -8 19 13 -10 12 -10 18 1 31 11 14 15 12
26 -20 7 -20 10 -42 7 -50 -3 -7 2 -19 11 -26 8 -7 15 -15 15 -19 0 -3 -77 -6
-170 -6 -107 0 -170 4 -170 10 0 6 11 41 25 79 14 38 25 73 25 77 0 12 -137
11 -144 0z m102 -73 c-11 -35 -22 -69 -24 -75 -7 -27 -20 -11 -32 40 -6 28
-14 62 -18 75 -6 21 -3 22 44 22 l50 0 -20 -62z m-168 -108 c0 -4 -13 -10 -30
-12 -27 -4 -40 8 -25 24 8 7 55 -3 55 -12z"/>
<path d="M520 864 c-12 -31 -8 -40 30 -59 16 -8 34 -24 40 -35 9 -17 4 -24
-39 -56 -45 -34 -48 -39 -39 -60 14 -30 24 -30 39 -1 7 12 27 42 46 66 33 44
33 44 14 63 -11 10 -32 38 -47 63 -14 25 -28 45 -30 45 -3 0 -9 -12 -14 -26z"/>
<path d="M633 605 c5 -46 14 -53 28 -22 14 30 6 57 -16 57 -12 0 -15 -8 -12
-35z"/>
<path d="M1331 616 c-7 -9 -9 -21 -5 -28 5 -7 9 -17 9 -23 0 -5 5 -12 10 -15
13 -6 19 60 7 72 -5 5 -14 3 -21 -6z"/>
<path d="M944 418 c-3 -12 -13 -28 -20 -36 -21 -20 -18 -27 25 -55 21 -14 48
-39 59 -55 l21 -29 -156 -2 c-86 -1 -160 -4 -165 -7 -4 -3 -8 -1 -8 5 0 13 37
110 51 135 20 34 -6 35 -71 3 -36 -18 -66 -33 -68 -34 -2 0 9 -24 23 -53 14
-29 24 -54 21 -57 -8 -8 -170 -3 -203 6 -37 11 -53 -1 -53 -41 0 -15 2 -28 5
-28 2 0 28 6 57 14 29 7 90 17 136 21 l82 7 30 -66 c17 -37 35 -64 40 -61 10
6 -2 38 -32 90 -10 17 -18 32 -18 35 0 3 72 7 160 9 89 2 160 -1 160 -6 0 -5
-27 -28 -60 -52 -44 -32 -59 -49 -54 -60 3 -9 9 -24 11 -33 9 -31 27 -20 50
30 12 26 40 66 63 89 22 23 40 44 40 46 0 3 -13 18 -28 35 -23 25 -48 84 -68
160 -5 19 -22 14 -30 -10z m26 -47 c0 -5 3 -18 7 -28 6 -17 5 -17 -15 1 -12
10 -19 23 -16 27 7 12 24 11 24 0z m-260 -38 c-17 -60 -32 -88 -38 -73 -2 8
-11 27 -18 42 -13 25 -12 28 14 41 43 23 52 21 42 -10z m-265 -123 c3 -5 -1
-10 -10 -10 -9 0 -13 5 -10 10 3 6 8 10 10 10 2 0 7 -4 10 -10z m503 -106 c-7
-15 -14 -21 -16 -15 -2 7 2 18 8 26 18 22 21 18 8 -11z"/>
<path d="M1197 227 c-8 -20 9 -41 27 -34 23 9 21 47 -3 47 -10 0 -21 -6 -24
-13z"/>
</g>
</svg>
