<?xml version="1.0" standalone="no"?>
<!DOCTYPE svg PUBLIC "-//W3C//DTD SVG 20010904//EN"
 "http://www.w3.org/TR/2001/REC-SVG-20010904/DTD/svg10.dtd">
<svg version="1.0" xmlns="http://www.w3.org/2000/svg"
 width="147.000000pt" height="107.000000pt" viewBox="0 0 147.000000 107.000000"
 preserveAspectRatio="xMidYMid meet">
<metadata>
Created by potrace 1.16, written by Peter Selinger 2001-2019
</metadata>
<g transform="translate(0.000000,107.000000) scale(0.100000,-0.100000)"
fill="#000000" stroke="none">
<path d="M1393 1063 c15 -2 39 -2 55 0 15 2 2 4 -28 4 -30 0 -43 -2 -27 -4z"/>
<path d="M1072 930 c-28 -37 -28 -57 -1 -65 33 -11 88 -65 126 -124 50 -77 53
-48 5 41 -22 40 -47 97 -57 126 -19 61 -40 67 -73 22z m61 -47 l18 -47 -28 24
c-16 14 -32 28 -37 32 -9 7 10 38 23 38 4 0 15 -21 24 -47z"/>
<path d="M76 939 c-2 -8 -7 -40 -10 -72 -3 -41 -1 -60 8 -63 7 -3 41 9 77 26
35 16 70 30 77 30 33 0 1 33 -53 56 -85 36 -94 38 -99 23z m132 -59 c6 0 -109
-50 -115 -50 -5 0 -3 45 3 67 l6 22 49 -20 c28 -10 53 -19 57 -19z"/>
<path d="M527 895 c-29 -62 -27 -64 73 -64 96 0 111 9 59 37 -17 9 -47 27 -66
40 -18 12 -37 22 -42 22 -4 0 -15 -16 -24 -35z m69 -20 c18 -13 17 -14 -18
-15 -36 0 -47 8 -31 23 10 11 28 8 49 -8z"/>
<path d="M1230 885 l-23 -25 44 -47 c25 -27 56 -67 69 -90 23 -41 40 -55 40
-32 0 5 -10 29 -23 52 -13 23 -34 70 -47 105 -14 34 -27 62 -31 62 -3 0 -16
-11 -29 -25z m42 -45 c9 -23 8 -23 -12 -5 -22 20 -27 39 -8 33 6 -2 15 -15 20
-28z"/>
<path d="M758 883 c-23 -27 -48 -80 -41 -87 4 -3 44 -6 90 -6 60 0 83 3 83 13
0 10 -102 97 -114 97 -1 0 -10 -8 -18 -17z m72 -52 l25 -21 -52 0 c-29 0 -53
2 -53 5 0 2 5 15 11 29 13 27 20 26 69 -13z"/>
<path d="M250 796 c0 -46 4 -66 13 -66 6 0 45 14 85 32 76 33 93 61 41 65 -26
2 -95 18 -125 30 -11 4 -14 -8 -14 -61z m110 5 c0 -4 -20 -17 -45 -29 l-45
-22 0 33 c0 19 2 36 5 39 8 7 85 -12 85 -21z"/>
<path d="M1090 785 c0 -8 -9 -20 -20 -27 -11 -7 -20 -16 -20 -21 0 -4 27 -33
60 -63 33 -31 76 -78 96 -106 25 -33 40 -46 47 -39 6 6 -3 24 -27 53 -38 44
-106 174 -106 202 0 9 -7 16 -15 16 -8 0 -15 -7 -15 -15z m43 -94 c-2 -3 -14
6 -28 19 -20 18 -22 26 -13 37 10 12 15 9 28 -19 9 -18 15 -35 13 -37z"/>
<path d="M543 763 c-3 -10 -12 -33 -20 -52 -7 -19 -11 -36 -8 -39 7 -7 289 -3
333 5 17 3 32 9 32 13 0 5 -15 11 -32 15 -18 4 -90 22 -159 41 -69 19 -129 34
-133 34 -4 0 -9 -8 -13 -17z m162 -46 l70 -22 -114 -3 c-62 -1 -115 -1 -118 1
-2 3 2 17 9 31 11 25 16 27 47 21 20 -3 68 -16 106 -28z"/>
<path d="M59 733 c0 -21 -2 -55 -5 -75 -3 -27 -1 -38 9 -38 16 0 144 68 152
81 4 5 -11 16 -32 25 -21 8 -52 22 -70 30 -46 21 -53 18 -54 -23z m111 -34 c0
-3 -20 -15 -45 -27 l-45 -22 0 38 c0 21 3 41 6 44 6 7 84 -24 84 -33z"/>
<path d="M942 677 c-6 -7 -7 -18 -3 -26 5 -7 6 -22 4 -32 -6 -22 10 -25 26 -5
15 17 11 68 -5 73 -6 2 -16 -2 -22 -10z"/>
<path d="M1459 678 c-6 -11 -3 -88 3 -88 4 0 8 20 8 45 0 37 -5 55 -11 43z"/>
<path d="M394 655 c-3 -8 -2 -20 2 -27 5 -7 7 -21 6 -30 -2 -10 2 -18 8 -18
15 0 32 49 25 71 -7 22 -33 25 -41 4z"/>
<path d="M1360 660 c0 -5 5 -10 10 -10 6 0 10 5 10 10 0 6 -4 10 -10 10 -5 0
-10 -4 -10 -10z"/>
<path d="M90 518 c0 -6 10 -22 21 -34 16 -18 23 -40 27 -94 4 -64 3 -70 -15
-70 -10 0 -24 5 -31 12 -9 9 -15 9 -24 0 -9 -9 -9 -23 0 -59 6 -27 17 -85 23
-131 15 -98 31 -102 42 -11 4 35 11 66 15 69 16 12 42 104 32 114 -25 25 -8
108 33 169 11 16 17 31 13 34 -12 12 -136 13 -136 1z m100 -23 c0 -4 -8 -20
-17 -38 l-16 -32 -8 27 c-4 14 -10 31 -14 37 -4 7 5 11 24 11 17 0 31 -2 31
-5z m-34 -210 c-3 -5 -13 -35 -22 -65 l-17 -55 -14 58 c-7 33 -15 62 -18 67
-2 4 13 7 35 6 23 0 38 -5 36 -11z"/>
<path d="M836 443 c-67 -84 -60 -117 16 -80 33 17 45 18 76 9 21 -6 46 -18 57
-26 19 -14 19 -15 2 -33 -28 -32 -20 -40 43 -46 43 -4 78 -15 124 -41 69 -39
86 -43 86 -23 0 6 -23 23 -51 36 -58 27 -103 82 -113 136 -8 43 -42 50 -52 10
-3 -14 -9 -25 -13 -25 -14 0 -82 80 -92 109 -6 17 -17 31 -24 31 -7 0 -34 -26
-59 -57z m85 -25 c9 -16 5 -18 -30 -18 -22 0 -43 -4 -46 -10 -3 -5 -11 -10
-17 -10 -5 0 4 16 21 35 17 20 31 41 31 48 1 12 23 -13 41 -45z m146 -85 c9
-21 19 -41 21 -45 3 -6 -67 0 -75 6 -3 2 30 76 34 76 1 0 10 -17 20 -37z"/>
<path d="M233 338 c-18 -11 -33 -26 -33 -33 0 -7 22 -33 49 -57 27 -24 63 -67
81 -96 46 -76 56 -47 13 37 -23 44 -36 85 -38 117 -4 57 -20 65 -72 32z m50
-45 c4 -20 5 -38 4 -39 -1 -1 -15 9 -31 22 -27 24 -28 26 -10 39 28 21 31 19
37 -22z"/>
<path d="M815 215 c-21 -25 -35 -51 -32 -58 3 -9 29 -16 70 -20 72 -7 170 -43
230 -84 26 -18 41 -23 48 -16 8 8 -7 23 -49 51 -32 23 -91 70 -131 106 -39 36
-78 66 -85 66 -8 0 -31 -20 -51 -45z m99 -20 c22 -19 49 -42 60 -51 20 -15 20
-15 1 -8 -45 15 -92 24 -127 24 -21 0 -38 3 -38 6 0 13 42 64 53 64 7 0 30
-16 51 -35z"/>
<path d="M494 195 c-3 -8 -2 -20 2 -27 5 -7 7 -21 6 -30 -2 -11 3 -18 12 -18
19 0 37 60 23 78 -13 16 -36 15 -43 -3z"/>
<path d="M1308 168 c-8 -21 2 -38 24 -38 14 0 19 6 16 22 -3 25 -33 36 -40 16z"/>
</g>
</svg>
