<?xml version="1.0" standalone="no"?>
<!DOCTYPE svg PUBLIC "-//W3C//DTD SVG 20010904//EN"
 "http://www.w3.org/TR/2001/REC-SVG-20010904/DTD/svg10.dtd">
<svg version="1.0" xmlns="http://www.w3.org/2000/svg"
 width="131.000000pt" height="48.000000pt" viewBox="0 0 131.000000 48.000000"
 preserveAspectRatio="xMidYMid meet">
<metadata>
Created by potrace 1.16, written by Peter Selinger 2001-2019
</metadata>
<g transform="translate(0.000000,48.000000) scale(0.100000,-0.100000)"
fill="#000000" stroke="none">
<path d="M1040 339 c-25 -11 -67 -25 -95 -31 -60 -12 -66 -17 -59 -46 6 -21
29 -30 36 -14 6 14 148 83 158 77 24 -15 9 -35 -25 -35 -26 0 -35 -4 -35 -16
0 -14 7 -16 41 -11 34 4 40 3 37 -11 -3 -13 -13 -16 -47 -14 -32 3 -42 0 -39
-10 3 -7 23 -14 46 -16 57 -4 53 -20 -5 -24 -53 -3 -61 -22 -10 -25 17 -1 40
-2 50 -2 9 -1 17 -5 17 -11 0 -5 -22 -8 -51 -7 -40 3 -61 11 -101 41 -36 26
-54 34 -61 27 -16 -16 -23 -14 -35 13 -8 18 -8 26 0 28 6 2 8 9 5 15 -4 7 -36
11 -75 11 -55 0 -111 5 -179 16 -4 0 -10 -12 -13 -29 -4 -22 -11 -31 -28 -33
-23 -3 -23 -6 -16 -70 4 -37 7 -75 8 -85 1 -24 20 -23 24 2 6 34 27 41 141 47
l111 5 0 -31 c0 -16 5 -30 10 -30 6 0 10 23 10 50 0 28 1 50 3 50 13 0 150
-51 185 -69 33 -17 42 -18 42 -7 0 8 -6 17 -12 19 -7 3 -3 6 10 6 18 1 22 -4
22 -29 0 -16 5 -30 10 -30 6 0 10 14 10 30 0 28 2 30 40 30 22 0 40 5 40 10 0
6 -18 10 -40 10 -29 0 -40 4 -40 15 0 8 7 15 16 15 8 0 12 5 9 10 -4 6 -11 8
-16 5 -5 -4 -9 1 -9 9 0 9 5 17 10 17 6 1 19 3 30 4 11 1 25 3 31 4 5 0 7 6 4
11 -3 6 -17 7 -30 4 -13 -3 -28 -3 -34 0 -17 11 0 36 25 36 13 0 24 5 24 10 0
6 -8 10 -17 8 -15 -2 -17 3 -15 35 3 37 3 37 -35 36 -21 0 -58 -9 -83 -20z
m90 -29 c0 -11 -4 -20 -10 -20 -5 0 -10 9 -10 20 0 11 5 20 10 20 6 0 10 -9
10 -20z m-294 -116 l6 -49 -78 -3 c-44 -2 -98 0 -122 3 l-43 6 7 37 c3 20 10
41 15 46 10 11 190 25 202 16 4 -4 10 -29 13 -56z m-246 9 c0 -5 -5 -15 -10
-23 -8 -12 -10 -11 -10 8 0 12 5 22 10 22 6 0 10 -3 10 -7z m330 -23 c0 -5 -2
-10 -4 -10 -3 0 -8 5 -11 10 -3 6 -1 10 4 10 6 0 11 -4 11 -10z"/>
<path d="M426 328 c-19 -27 -20 -42 -3 -60 48 -51 49 -50 -68 -46 l-109 3 -11
43 c-11 48 -10 47 -47 33 -31 -12 -34 -22 -16 -51 18 -28 8 -31 -45 -13 -26 9
-49 14 -51 12 -2 -2 -6 -19 -10 -38 -6 -31 -4 -33 17 -27 12 4 45 9 72 12 49
5 51 5 73 -30 12 -20 22 -40 22 -46 0 -5 5 -10 10 -10 7 0 8 17 4 48 l-6 47
92 -3 92 -3 -32 -34 c-28 -29 -31 -37 -20 -50 22 -26 38 -17 69 41 29 55 30
57 18 121 -13 73 -27 86 -51 51z m33 -58 c0 -12 -3 -11 -14 3 -7 11 -11 26 -8
35 6 13 8 13 14 -4 4 -10 8 -26 8 -34z m-241 -21 l-3 -24 -13 23 c-7 12 -10
27 -6 33 10 17 26 -6 22 -32z m-108 -33 c0 -3 -4 -8 -10 -11 -5 -3 -10 -1 -10
4 0 6 5 11 10 11 6 0 10 -2 10 -4z m312 -88 c-7 -7 -12 -8 -12 -2 0 14 12 26
19 19 2 -3 -1 -11 -7 -17z"/>
</g>
</svg>
