<?xml version="1.0" standalone="no"?>
<!DOCTYPE svg PUBLIC "-//W3C//DTD SVG 20010904//EN"
 "http://www.w3.org/TR/2001/REC-SVG-20010904/DTD/svg10.dtd">
<svg version="1.0" xmlns="http://www.w3.org/2000/svg"
 width="52.000000pt" height="64.000000pt" viewBox="0 0 52.000000 64.000000"
 preserveAspectRatio="xMidYMid meet">
<metadata>
Created by potrace 1.16, written by Peter Selinger 2001-2019
</metadata>
<g transform="translate(0.000000,64.000000) scale(0.100000,-0.100000)"
fill="#000000" stroke="none">
<path d="M106 562 c-4 -3 -6 -13 -6 -21 0 -9 -9 -22 -20 -29 -16 -10 -18 -16
-9 -39 6 -15 10 -98 9 -188 -2 -239 -5 -218 28 -210 52 13 67 15 182 22 63 3
118 10 121 15 3 5 7 72 8 149 1 77 6 163 11 191 18 92 26 86 -117 91 -71 2
-145 9 -165 14 -20 6 -39 8 -42 5z m51 -38 c-3 -3 -12 -4 -19 -1 -8 3 -5 6 6
6 11 1 17 -2 13 -5z m230 -31 c9 -30 10 -349 2 -357 -2 -3 -27 -8 -55 -11
l-51 -6 4 58 c2 32 9 80 15 108 8 36 8 50 -1 53 -14 5 -14 52 -1 88 13 33 3
46 -28 37 -19 -4 -22 -10 -17 -27 15 -44 17 -88 6 -95 -9 -6 -9 -20 -1 -56 6
-26 8 -74 4 -106 -6 -57 -8 -59 -35 -59 l-29 0 0 73 c1 75 14 195 26 235 6 22
4 23 -27 20 -25 -2 -33 -7 -29 -18 2 -8 6 -81 8 -162 4 -162 5 -158 -55 -142
-22 6 -23 10 -22 133 0 119 10 225 20 235 6 7 149 23 211 25 44 1 48 -1 55
-26z m33 7 c0 -11 -2 -20 -4 -20 -2 0 -6 9 -9 20 -3 11 -1 20 4 20 5 0 9 -9 9
-20z m-215 -69 c3 -5 1 -12 -5 -16 -5 -3 -10 1 -10 9 0 18 6 21 15 7z"/>
</g>
</svg>
