<?xml version="1.0" standalone="no"?>
<!DOCTYPE svg PUBLIC "-//W3C//DTD SVG 20010904//EN"
 "http://www.w3.org/TR/2001/REC-SVG-20010904/DTD/svg10.dtd">
<svg version="1.0" xmlns="http://www.w3.org/2000/svg"
 width="51.000000pt" height="70.000000pt" viewBox="0 0 51.000000 70.000000"
 preserveAspectRatio="xMidYMid meet">
<metadata>
Created by potrace 1.16, written by Peter Selinger 2001-2019
</metadata>
<g transform="translate(0.000000,70.000000) scale(0.100000,-0.100000)"
fill="#000000" stroke="none">
<path d="M0 679 c0 -19 4 -20 88 -15 48 3 162 5 255 5 141 1 167 3 167 16 0
13 -35 15 -255 15 -251 0 -255 0 -255 -21z"/>
<path d="M80 596 c0 -18 -6 -25 -22 -28 -18 -2 -22 -9 -20 -28 1 -14 4 -105 6
-203 2 -98 6 -180 8 -182 2 -3 20 0 39 6 19 6 89 14 156 17 l122 7 5 165 c2
91 9 178 15 193 6 16 9 32 6 37 -3 5 -43 9 -90 9 -47 0 -115 7 -151 16 -36 8
-67 15 -70 15 -2 0 -4 -11 -4 -24z m47 -12 c-3 -3 -12 -4 -19 -1 -8 3 -5 6 6
6 11 1 17 -2 13 -5z m216 -46 c10 -24 12 -316 3 -325 -9 -10 -168 -15 -223 -8
l-53 6 0 106 c0 59 5 135 11 170 12 66 11 66 79 76 14 2 59 3 100 1 67 -3 75
-5 83 -26z"/>
</g>
</svg>
