<?xml version="1.0" standalone="no"?>
<!DOCTYPE svg PUBLIC "-//W3C//DTD SVG 20010904//EN"
 "http://www.w3.org/TR/2001/REC-SVG-20010904/DTD/svg10.dtd">
<svg version="1.0" xmlns="http://www.w3.org/2000/svg"
 width="125.000000pt" height="72.000000pt" viewBox="0 0 125.000000 72.000000"
 preserveAspectRatio="xMidYMid meet">
<metadata>
Created by potrace 1.16, written by Peter Selinger 2001-2019
</metadata>
<g transform="translate(0.000000,72.000000) scale(0.100000,-0.100000)"
fill="#000000" stroke="none">
<path d="M785 682 c-3 -3 -5 -18 -5 -33 0 -24 -4 -28 -32 -31 -23 -2 -32 -7
-30 -18 11 -46 22 -233 21 -353 -1 -76 1 -140 3 -143 3 -2 40 2 84 10 43 8
128 20 188 25 60 6 111 13 113 15 2 2 6 73 8 157 3 114 9 175 24 233 12 44 21
84 21 90 0 7 -16 10 -42 8 -38 -3 -160 12 -300 36 -27 5 -50 7 -53 4z m109
-33 c11 -1 -3 -5 -33 -10 -57 -10 -68 -8 -56 11 5 7 19 10 37 6 17 -3 40 -7
52 -7z m210 -75 c3 -26 6 -73 6 -106 l0 -59 -37 27 c-58 42 -112 95 -135 132
l-21 33 -33 -32 c-19 -18 -34 -36 -34 -40 0 -4 21 -14 46 -23 56 -19 166 -79
184 -101 11 -13 4 -15 -64 -15 -43 0 -85 4 -94 9 -9 4 -32 11 -49 14 -32 6
-33 5 -33 -28 0 -18 4 -36 8 -39 5 -3 35 1 68 9 32 8 79 14 104 15 l45 0 -30
-21 c-16 -11 -65 -38 -107 -59 -42 -22 -79 -43 -81 -47 -3 -5 3 -26 14 -47 10
-22 18 -40 16 -42 -1 -1 -28 3 -61 9 l-59 11 6 180 c3 100 11 198 17 218 11
37 11 37 73 41 34 2 103 4 153 5 l91 2 7 -46z m46 37 c0 -5 -3 -24 -7 -42 -7
-33 -7 -33 -14 -9 -12 41 -10 60 6 60 8 0 15 -4 15 -9z m-390 -43 c0 -25 -3
-29 -10 -18 -13 20 -13 50 0 50 6 0 10 -15 10 -32z m180 -33 c25 -27 16 -32
-25 -13 -25 11 -30 19 -18 31 11 11 18 8 43 -18z m-21 -161 c2 -2 -5 -4 -17
-4 -12 0 -25 0 -29 -1 -4 0 -9 5 -11 11 -3 7 5 9 25 4 15 -4 30 -8 32 -10z
m191 -103 l0 -98 -46 -7 c-65 -8 -174 -8 -174 2 0 11 23 43 60 82 33 35 139
118 153 119 4 1 7 -43 7 -98z m-202 -33 c-16 -23 -30 -27 -36 -10 -1 5 8 14
20 20 32 15 32 15 16 -10z m-108 -98 c-20 -13 -40 -13 -40 0 0 6 12 10 28 10
21 0 24 -2 12 -10z"/>
<path d="M110 617 c0 -19 -8 -28 -31 -36 -28 -10 -31 -14 -24 -38 4 -16 9
-128 12 -250 3 -123 8 -223 13 -223 4 0 25 6 47 14 22 8 107 19 189 26 82 7
151 14 153 15 4 5 9 94 11 223 1 50 10 128 19 172 10 44 15 82 13 85 -3 3 -57
5 -121 5 -103 0 -214 11 -263 26 -14 4 -18 0 -18 -19z m75 -17 c-3 -5 -17 -10
-31 -10 -13 0 -24 5 -24 10 0 6 14 10 31 10 17 0 28 -4 24 -10z m259 -27 c13
-48 18 -160 11 -289 l-7 -144 -77 -1 c-42 0 -97 -4 -123 -8 -27 -4 -72 -3
-103 2 l-55 10 0 147 c0 142 16 250 41 275 11 11 109 21 231 23 65 2 77 -1 82
-15z m40 -25 c-9 -59 -14 -60 -14 -5 0 26 5 47 10 47 6 0 8 -16 4 -42z m-385
0 c0 -7 -4 -22 -8 -32 -7 -19 -8 -18 -14 4 -3 13 -4 27 -1 32 8 12 24 10 23
-4z m16 -448 c-3 -5 -10 -10 -16 -10 -5 0 -9 5 -9 10 0 6 7 10 16 10 8 0 12
-4 9 -10z"/>
<path d="M198 507 c-33 -34 -34 -43 -9 -57 11 -5 30 -24 42 -41 l22 -32 -49 5
c-27 3 -56 9 -66 12 -13 6 -17 -1 -23 -34 -10 -59 -10 -59 80 -24 11 4 34 9
50 10 l30 4 -43 -40 c-24 -22 -48 -40 -53 -40 -18 0 -9 -16 21 -38 l30 -22 31
65 32 65 36 -50 c20 -27 39 -50 44 -50 15 0 6 23 -23 60 -16 21 -30 43 -30 49
0 7 23 11 60 11 73 0 80 18 9 22 l-51 3 31 39 c35 44 36 46 19 46 -7 -1 -26
-21 -41 -45 -16 -25 -35 -45 -43 -45 -16 0 -50 67 -60 119 -4 17 -9 33 -13 34
-3 2 -18 -10 -33 -26z m37 -47 l7 -25 -22 21 c-13 13 -19 27 -15 34 9 14 20 3
30 -30z m-47 -101 c9 0 2 -5 -17 -10 -36 -11 -47 -7 -36 11 4 6 14 9 22 6 8
-3 22 -6 31 -7z m49 -89 c-7 -19 -15 -26 -21 -20 -6 6 -3 17 9 30 24 27 25 25
12 -10z"/>
<path d="M583 150 c3 -47 18 -56 31 -19 11 32 2 59 -19 59 -11 0 -14 -10 -12
-40z"/>
<path d="M1202 158 c5 -34 38 -37 38 -4 0 20 -5 26 -21 26 -15 0 -20 -5 -17
-22z"/>
</g>
</svg>
