<?xml version="1.0" standalone="no"?>
<!DOCTYPE svg PUBLIC "-//W3C//DTD SVG 20010904//EN"
 "http://www.w3.org/TR/2001/REC-SVG-20010904/DTD/svg10.dtd">
<svg version="1.0" xmlns="http://www.w3.org/2000/svg"
 width="69.000000pt" height="76.000000pt" viewBox="0 0 69.000000 76.000000"
 preserveAspectRatio="xMidYMid meet">
<metadata>
Created by potrace 1.16, written by Peter Selinger 2001-2019
</metadata>
<g transform="translate(0.000000,76.000000) scale(0.100000,-0.100000)"
fill="#000000" stroke="none">
<path d="M123 711 c-4 -3 -14 -19 -21 -34 -9 -22 -17 -27 -32 -22 -24 8 -25 3
-6 -112 19 -118 38 -355 35 -428 -2 -38 1 -60 9 -63 6 -2 49 4 94 13 46 9 142
19 215 22 l132 6 4 286 c2 157 6 295 8 306 3 15 -1 19 -16 18 -62 -7 -336 -4
-371 5 -23 5 -46 7 -51 3z m61 -30 c7 -10 -16 -21 -45 -21 -12 0 -16 5 -13 15
7 16 49 21 58 6z m350 -28 c-10 -40 -14 -41 -14 -5 0 18 5 32 10 32 6 0 8 -11
4 -27z m-28 -53 c6 -36 14 -128 18 -204 l6 -140 -26 25 c-14 13 -35 39 -46 59
-12 19 -23 37 -24 39 -2 2 -10 -2 -19 -9 -12 -10 -15 -10 -15 1 0 7 25 36 55
64 30 29 55 58 55 66 0 8 -16 29 -35 48 -19 18 -40 49 -47 67 -14 38 -38 46
-38 12 0 -15 -3 -19 -8 -11 -4 7 -17 10 -29 7 -19 -5 -21 -11 -16 -36 l6 -31
-98 7 -97 7 7 -28 c9 -36 8 -35 39 -24 14 6 55 13 91 17 l65 7 0 -32 0 -31
-96 0 c-94 0 -95 0 -88 -22 3 -13 7 -24 8 -25 0 -1 24 5 52 12 28 7 68 15 89
17 44 3 47 -2 58 -104 l7 -58 -89 0 c-50 0 -93 5 -96 10 -12 19 -25 10 -25
-18 0 -16 2 -31 5 -34 3 -3 34 1 68 8 34 7 81 13 105 14 42 0 42 0 42 -36 l0
-36 -105 4 -105 4 0 -28 c0 -33 6 -34 100 -13 87 19 109 19 116 -3 3 -9 8 -24
11 -32 3 -11 13 -6 36 21 18 20 45 45 60 54 l28 18 -3 -59 -3 -59 -190 -2
c-104 -1 -195 1 -201 5 -13 9 -33 321 -27 429 l5 82 77 16 c42 9 81 18 86 20
6 2 57 3 115 2 l105 -2 11 -65z m-417 3 c0 -25 -1 -26 -9 -8 -12 27 -12 35 0
35 6 0 10 -12 9 -27z m332 -41 c8 -9 28 -27 44 -40 l30 -22 -30 -26 c-16 -14
-42 -31 -56 -39 l-27 -14 -4 62 c-7 94 7 121 43 79z m48 -287 l42 -34 -28 -14
c-15 -8 -38 -18 -50 -21 -22 -7 -23 -5 -23 48 0 31 4 56 9 56 5 0 28 -16 50
-35z m-289 -192 c-14 -3 -29 -9 -34 -14 -15 -14 -26 -11 -26 6 0 11 11 15 43
14 27 -1 33 -3 17 -6z"/>
</g>
</svg>
