<?xml version="1.0" standalone="no"?>
<!DOCTYPE svg PUBLIC "-//W3C//DTD SVG 20010904//EN"
 "http://www.w3.org/TR/2001/REC-SVG-20010904/DTD/svg10.dtd">
<svg version="1.0" xmlns="http://www.w3.org/2000/svg"
 width="76.000000pt" height="65.000000pt" viewBox="0 0 76.000000 65.000000"
 preserveAspectRatio="xMidYMid meet">
<metadata>
Created by potrace 1.16, written by Peter Selinger 2001-2019
</metadata>
<g transform="translate(0.000000,65.000000) scale(0.100000,-0.100000)"
fill="#000000" stroke="none">
<path d="M130 571 c0 -35 -3 -34 71 -22 92 16 211 23 204 11 -3 -5 -15 -10
-25 -10 -17 0 -18 -6 -13 -69 l6 -69 -44 -4 c-24 -2 -45 -2 -47 1 -14 31 -20
33 -42 11 -15 -15 -30 -20 -46 -17 -14 2 -27 0 -30 -4 -3 -5 4 -9 14 -9 11 0
22 -7 26 -15 3 -8 12 -15 21 -15 8 0 15 -5 15 -11 0 -6 -15 -9 -37 -7 -23 2
-38 -2 -41 -10 -3 -9 11 -12 53 -11 46 2 60 -2 78 -19 l21 -22 -72 0 c-46 0
-72 -4 -72 -11 0 -8 22 -9 73 -5 57 4 78 2 95 -10 20 -14 22 -14 22 2 0 13 3
15 11 7 19 -19 0 -33 -45 -33 -74 0 -166 -12 -160 -22 3 -4 48 -5 101 -2 75 6
97 4 103 -7 15 -24 22 -3 27 85 l6 85 76 3 c97 4 96 23 -2 23 -62 0 -72 2 -71
17 5 64 16 143 19 147 3 2 35 5 71 5 58 1 68 -1 75 -19 7 -18 29 -331 29 -412
l0 -33 -182 0 c-101 0 -214 3 -252 7 l-69 6 7 181 c4 100 9 198 12 219 6 36 5
37 -24 37 -17 0 -33 -3 -35 -7 -2 -5 2 -62 9 -128 7 -66 13 -175 13 -242 1
-67 5 -124 10 -127 4 -3 35 1 67 10 37 9 116 16 209 18 83 2 174 4 203 5 l52
1 0 153 c0 83 7 195 14 247 8 52 13 97 10 99 -2 3 -100 6 -217 7 -116 2 -231
6 -254 9 -43 6 -43 6 -43 -24z m40 5 c0 -3 -4 -8 -10 -11 -5 -3 -10 -1 -10 4
0 6 5 11 10 11 6 0 10 -2 10 -4z m443 -82 l-8 -59 -6 60 c-6 63 -3 83 12 68 6
-6 6 -35 2 -69z m-214 14 c0 -31 -1 -31 -10 -10 -5 13 -7 28 -3 33 10 16 14 9
13 -23z m-307 -44 l-10 -49 -1 60 c-1 41 2 56 9 49 8 -8 8 -27 2 -60z m176
-92 c2 -7 -2 -10 -12 -6 -9 3 -16 11 -16 16 0 13 23 5 28 -10z m102 -5 c0 -20
-5 -24 -32 -24 -33 0 -48 11 -48 35 0 7 15 12 40 12 35 0 40 -3 40 -23z m10
-62 c0 -21 -27 -30 -45 -15 -23 19 -18 30 15 30 20 0 30 -5 30 -15z m-232
-225 c-14 -4 -31 -11 -37 -15 -6 -3 -11 1 -11 9 0 12 10 16 38 15 34 -1 35 -1
10 -9z"/>
<path d="M195 470 c-20 -5 1 -8 68 -9 59 -1 97 3 97 9 0 12 -120 12 -165 0z"/>
</g>
</svg>
