<?xml version="1.0" standalone="no"?>
<!DOCTYPE svg PUBLIC "-//W3C//DTD SVG 20010904//EN"
 "http://www.w3.org/TR/2001/REC-SVG-20010904/DTD/svg10.dtd">
<svg version="1.0" xmlns="http://www.w3.org/2000/svg"
 width="136.000000pt" height="154.000000pt" viewBox="0 0 136.000000 154.000000"
 preserveAspectRatio="xMidYMid meet">
<metadata>
Created by potrace 1.16, written by Peter Selinger 2001-2019
</metadata>
<g transform="translate(0.000000,154.000000) scale(0.100000,-0.100000)"
fill="#000000" stroke="none">
<path d="M1123 1483 c-13 -2 -23 -10 -23 -16 0 -7 -49 -31 -108 -55 -59 -24
-114 -47 -122 -51 -14 -7 -113 -34 -172 -46 -24 -5 -28 -10 -28 -41 l0 -35 30
21 c16 11 50 30 76 41 38 17 48 19 55 8 11 -18 11 -29 0 -29 -19 0 -20 -32 -1
-52 21 -22 28 -54 10 -43 -5 3 -10 12 -10 20 0 20 -19 29 -34 16 -8 -6 -16
-25 -20 -42 -5 -25 -1 -34 22 -54 36 -31 48 -21 23 21 -11 19 -16 34 -11 34 5
0 13 -8 19 -17 9 -16 12 -15 38 11 19 19 24 30 16 33 -10 4 -10 9 2 25 10 16
11 26 4 41 -8 13 -8 22 0 30 17 17 13 29 -9 22 -33 -10 -23 9 13 24 17 8 59
27 92 41 33 15 74 32 91 38 31 10 32 9 38 -20 10 -49 7 -183 -4 -194 -7 -7 -7
-36 0 -87 5 -42 7 -120 3 -172 -4 -61 -2 -95 4 -95 6 0 13 45 17 103 4 56 14
130 21 165 18 78 18 82 0 82 -20 0 -20 121 -1 205 14 57 13 77 -2 74 -4 -1
-17 -4 -29 -6z m20 -43 c-7 -28 -13 -25 -13 6 0 14 4 23 9 20 5 -3 7 -15 4
-26z m-423 -144 c0 -2 -7 -6 -15 -10 -8 -3 -15 -1 -15 4 0 6 7 10 15 10 8 0
15 -2 15 -4z m150 -41 c0 -8 -4 -15 -10 -15 -5 0 -10 7 -10 15 0 8 5 15 10 15
6 0 10 -7 10 -15z m279 -72 c0 -5 -4 -17 -9 -28 -8 -18 -9 -17 -9 8 -1 15 4
27 9 27 6 0 10 -3 9 -7z"/>
<path d="M479 1443 c-1 -5 -1 -24 0 -43 0 -28 -1 -31 -8 -15 -5 11 -7 23 -4
28 2 4 1 12 -3 19 -5 8 -10 7 -18 -4 -6 -8 -35 -23 -63 -32 -29 -10 -53 -22
-53 -27 0 -12 -4 -12 59 11 30 11 57 17 60 14 10 -9 13 -452 4 -468 -7 -13
-18 -9 -72 25 -70 44 -71 57 -2 66 30 4 41 10 41 23 0 29 -9 29 -72 -2 -57
-27 -61 -28 -79 -12 -11 9 -19 25 -19 34 0 10 -7 23 -16 31 -14 11 -13 15 8
30 12 10 19 21 15 25 -4 4 -18 -3 -32 -16 -22 -21 -25 -21 -31 -5 -4 9 -2 20
5 24 15 10 -7 63 -23 58 -17 -6 -17 -84 0 -98 15 -13 19 -29 6 -29 -5 0 -27
16 -49 35 -39 33 -41 34 -57 16 -22 -25 -20 -29 17 -36 17 -4 40 -12 50 -20
18 -13 18 -14 -3 -35 -29 -29 -15 -45 20 -20 15 11 32 20 37 20 8 -1 118 -70
140 -90 28 -24 127 -79 135 -74 4 3 8 98 8 212 0 144 5 228 15 277 8 38 15 73
15 77 0 10 -30 10 -31 1z"/>
<path d="M1015 1365 c-16 -52 -16 -51 -32 -21 -15 29 -16 29 -30 10 -15 -20
-16 -18 41 -59 16 -12 17 -19 9 -37 -10 -23 -10 -23 -27 10 -9 18 -21 30 -26
27 -16 -10 -11 -28 17 -59 25 -29 26 -29 39 -10 8 10 21 27 29 37 21 24 19 37
-6 37 l-21 0 20 34 c11 19 18 37 15 40 -11 11 -24 6 -28 -9z"/>
<path d="M285 1357 c-25 -17 -145 -54 -202 -63 -42 -6 -43 -7 -43 -45 0 -45 5
-47 36 -18 32 30 144 81 144 65 0 -6 6 -21 14 -32 15 -19 15 -19 37 3 13 12
19 26 15 30 -5 5 -11 2 -13 -4 -7 -20 -23 -15 -23 8 0 14 11 25 35 35 20 8 33
19 30 24 -8 12 -7 13 -30 -3z m-185 -87 c0 -5 -9 -14 -20 -20 -16 -8 -20 -8
-20 4 0 8 8 17 18 19 9 3 18 5 20 6 1 0 2 -3 2 -9z"/>
<path d="M386 1338 c-15 -21 -16 -21 -29 -4 -8 11 -19 16 -25 12 -24 -15 -10
-37 42 -67 16 -10 18 -9 14 9 -4 13 1 27 13 38 10 9 19 21 19 26 0 15 -19 8
-34 -14z"/>
<path d="M326 1258 c-8 -33 -8 -38 6 -38 6 0 19 -7 28 -15 15 -13 19 -11 42
24 31 47 26 61 -7 23 l-23 -27 -11 28 c-13 33 -27 35 -35 5z"/>
<path d="M186 1253 c-4 -10 3 -26 20 -44 14 -15 23 -32 20 -38 -4 -6 -1 -11 6
-11 18 0 54 43 40 48 -6 2 -8 10 -5 18 6 17 -8 19 -25 2 -8 -8 -14 -5 -21 15
-12 31 -26 35 -35 10z"/>
<path d="M930 1211 c0 -10 11 -26 25 -35 27 -18 31 -10 13 29 -13 29 -38 34
-38 6z"/>
<path d="M1005 1204 c-9 -14 -15 -27 -13 -30 8 -7 48 27 48 42 0 22 -16 17
-35 -12z"/>
<path d="M327 1204 c-14 -14 -7 -30 23 -48 30 -17 31 -17 50 6 25 29 26 46 2
25 -24 -22 -30 -21 -51 4 -9 11 -20 17 -24 13z"/>
<path d="M663 1181 c-13 -11 -23 -22 -23 -25 0 -4 20 -15 45 -26 25 -11 66
-34 91 -51 47 -32 47 -30 27 -91 -3 -10 0 -18 6 -18 6 0 11 6 11 13 0 6 7 20
14 30 14 19 5 24 227 -132 16 -11 19 -11 19 1 0 9 -25 32 -55 52 l-56 37 18
30 c10 17 31 42 47 55 16 14 27 26 25 27 -2 2 -11 8 -21 15 -14 11 -20 6 -49
-47 -17 -34 -35 -61 -38 -61 -4 0 -26 14 -50 31 l-42 32 25 26 c33 34 33 41
-1 41 -27 1 -27 1 -9 15 15 11 17 18 9 26 -8 8 -14 5 -23 -10 -6 -12 -8 -26
-5 -31 9 -15 -4 -50 -19 -50 -7 0 -43 29 -81 65 -37 36 -68 65 -69 65 0 -1
-11 -9 -23 -19z m32 -21 c3 -5 1 -10 -4 -10 -6 0 -11 5 -11 10 0 6 2 10 4 10
3 0 8 -4 11 -10z"/>
<path d="M1015 1160 c-10 -11 -15 -23 -12 -27 8 -7 47 25 47 39 0 14 -16 9
-35 -12z"/>
<path d="M930 1150 c-10 -19 -8 -26 12 -48 12 -15 24 -29 26 -31 1 -2 5 -2 8
2 7 6 -14 77 -26 91 -5 4 -13 -2 -20 -14z"/>
<path d="M307 1153 c-15 -14 -7 -43 12 -43 11 0 23 -4 26 -10 11 -18 43 -10
60 16 22 33 15 40 -14 13 l-23 -21 -27 26 c-15 14 -30 23 -34 19z"/>
<path d="M600 966 c0 -8 4 -17 9 -20 5 -3 7 -16 3 -29 -5 -20 -4 -21 11 -8 9
7 17 26 17 42 0 22 -5 29 -20 29 -11 0 -20 -6 -20 -14z"/>
<path d="M1257 973 c-7 -12 4 -73 13 -73 11 0 20 26 20 56 0 23 -23 34 -33 17z"/>
<path d="M850 753 c-19 -9 -71 -33 -115 -54 -137 -64 -168 -76 -245 -99 -123
-37 -120 -35 -120 -76 0 -22 -7 -46 -17 -57 -21 -22 -31 -12 101 -96 86 -54
86 -55 70 -79 -20 -31 -10 -41 13 -13 l18 22 29 -30 c17 -17 24 -31 18 -31 -7
0 -12 -5 -12 -11 0 -8 5 -7 15 1 13 11 21 7 51 -26 l36 -38 -21 -44 c-25 -51
-27 -70 -6 -52 8 7 15 18 15 24 0 6 9 22 18 34 l18 24 37 -36 c21 -20 40 -36
42 -36 15 0 0 24 -37 58 l-41 39 20 29 c11 16 32 53 47 82 22 44 68 117 111
179 7 10 5 18 -8 27 -15 12 -16 22 -7 107 5 52 14 108 19 126 14 47 6 51 -49
26z m26 -35 c-3 -13 -6 -32 -7 -43 0 -14 -3 -11 -10 10 -10 34 -5 55 12 55 7
0 9 -9 5 -22z m-41 -25 c4 -10 9 -57 12 -105 5 -77 4 -88 -11 -88 -9 0 -16 -2
-16 -5 0 -30 -50 -185 -77 -239 l-35 -69 -31 32 -32 32 30 25 c17 13 38 24 48
24 19 0 22 17 6 40 -8 11 -12 12 -16 3 -2 -7 -24 -26 -48 -42 l-43 -29 -27 22
-28 23 23 16 c14 10 20 22 17 31 -9 23 -22 19 -36 -11 l-12 -27 -82 83 -82 82
27 22 c65 53 138 86 94 42 -18 -18 -17 -16 -20 -67 -2 -28 3 -43 19 -58 l21
-20 25 28 c29 30 37 77 13 68 -20 -8 -18 23 4 47 16 19 16 20 -5 15 -13 -4
-24 -1 -27 8 -3 9 11 21 42 34 26 12 85 38 132 60 98 45 105 46 115 23z m-404
-143 c-25 -21 -41 -26 -41 -11 0 5 12 14 28 19 39 15 40 14 13 -8z m439 -77
c0 -12 -49 -89 -50 -78 0 29 23 85 35 85 8 0 15 -3 15 -7z m-434 -61 c-9 -8
-56 31 -56 46 0 11 8 8 30 -13 16 -16 28 -30 26 -33z m102 33 c-3 -3 -9 2 -12
12 -6 14 -5 15 5 6 7 -7 10 -15 7 -18z"/>
<path d="M733 648 c-6 -7 -13 -20 -16 -28 -4 -12 -6 -11 -6 3 -1 9 -8 17 -16
17 -27 0 -28 -28 -1 -57 28 -30 31 -39 16 -48 -6 -3 -14 5 -20 19 -5 14 -14
26 -20 26 -18 0 -11 -31 14 -61 13 -15 26 -34 29 -41 5 -17 47 18 47 40 0 12
-4 12 -20 -3 -15 -14 -20 -15 -20 -4 0 8 14 25 30 39 17 14 30 28 30 32 0 13
-38 9 -43 -4 -4 -8 -6 -7 -6 3 -1 9 9 23 21 31 14 9 19 20 15 31 -8 20 -21 22
-34 5z"/>
<path d="M651 506 c-9 -11 -6 -18 15 -35 38 -30 44 -26 25 14 -18 38 -23 41
-40 21z"/>
<path d="M736 455 c-18 -27 -20 -35 -8 -35 13 1 42 49 33 54 -5 3 -16 -5 -25
-19z"/>
<path d="M644 435 c-4 -9 4 -23 17 -35 41 -33 53 -20 23 25 -19 28 -32 32 -40
10z"/>
<path d="M552 414 c-12 -8 -20 -20 -17 -25 4 -5 17 -1 30 8 41 30 29 46 -13
17z"/>
<path d="M880 205 c-10 -11 -10 -19 -2 -27 15 -15 44 -2 40 19 -4 23 -22 27
-38 8z"/>
</g>
</svg>
