<?xml version="1.0" standalone="no"?>
<!DOCTYPE svg PUBLIC "-//W3C//DTD SVG 20010904//EN"
 "http://www.w3.org/TR/2001/REC-SVG-20010904/DTD/svg10.dtd">
<svg version="1.0" xmlns="http://www.w3.org/2000/svg"
 width="75.000000pt" height="69.000000pt" viewBox="0 0 75.000000 69.000000"
 preserveAspectRatio="xMidYMid meet">
<metadata>
Created by potrace 1.16, written by Peter Selinger 2001-2019
</metadata>
<g transform="translate(0.000000,69.000000) scale(0.100000,-0.100000)"
fill="#000000" stroke="none">
<path d="M89 638 c-1 -7 -1 -19 0 -25 1 -8 -9 -13 -24 -13 -30 0 -29 6 -9 -80
12 -54 15 -115 12 -275 -2 -113 -2 -205 -2 -205 1 0 19 7 40 16 40 17 272 43
396 45 38 0 70 4 73 8 2 4 5 55 6 112 2 106 24 358 34 394 6 20 1 20 -217 21
-123 0 -242 3 -265 7 -32 5 -43 4 -44 -5z m61 -18 c12 -8 9 -10 -12 -10 -16 0
-28 5 -28 10 0 13 20 13 40 0z m386 -9 c23 -2 32 -106 27 -292 l-6 -186 -103
-9 c-57 -5 -104 -6 -104 -3 0 22 103 69 150 69 27 0 25 11 -6 33 -25 19 -26
18 -65 -7 -22 -15 -58 -45 -80 -67 l-39 -39 -101 -1 c-69 -1 -104 3 -112 11
-9 10 -8 12 5 7 9 -3 23 2 33 13 9 10 31 24 48 30 78 30 87 35 82 48 -3 8 -5
20 -5 28 0 26 -25 14 -93 -46 -38 -33 -70 -60 -72 -60 -6 0 -5 324 1 383 8 68
13 72 126 84 58 6 255 9 314 4z m54 -22 c0 -11 -4 -17 -10 -14 -5 3 -10 13
-10 21 0 8 5 14 10 14 6 0 10 -9 10 -21z m-513 -46 c-3 -10 -5 -4 -5 12 0 17
2 24 5 18 2 -7 2 -21 0 -30z m163 -323 c0 -5 -5 -10 -11 -10 -5 0 -7 5 -4 10
3 6 8 10 11 10 2 0 4 -4 4 -10z"/>
<path d="M368 578 c-13 -21 -12 -26 24 -62 31 -31 38 -35 38 -19 0 10 16 34
35 53 19 18 32 37 29 42 -7 12 -52 -29 -60 -54 -9 -29 -22 -21 -34 22 -6 22
-12 40 -14 40 -2 0 -10 -10 -18 -22z"/>
<path d="M170 570 c-9 -16 -5 -25 17 -50 l27 -31 38 38 c36 36 48 63 29 63 -5
0 -19 -16 -32 -35 -28 -41 -43 -40 -47 3 -4 36 -16 41 -32 12z"/>
<path d="M465 489 c-20 -22 -35 -42 -33 -44 6 -7 76 47 82 62 12 29 -13 19
-49 -18z"/>
<path d="M137 513 c-12 -12 -7 -43 7 -43 7 0 25 -9 40 -21 21 -16 25 -26 20
-47 -8 -32 -1 -26 49 45 20 29 32 55 27 58 -5 3 -21 -13 -36 -36 -25 -40 -27
-41 -38 -22 -14 25 -52 73 -58 73 -3 0 -8 -3 -11 -7z"/>
<path d="M356 478 c-9 -34 -8 -36 17 -44 12 -3 30 -13 40 -22 31 -28 29 -5 -5
41 -18 25 -36 46 -39 46 -4 1 -9 -9 -13 -21z"/>
<path d="M131 431 c-11 -20 -7 -26 36 -66 50 -46 63 -53 63 -33 0 6 11 26 25
44 14 18 25 39 25 46 -1 16 -37 -28 -51 -62 l-10 -25 -20 25 c-11 14 -28 40
-38 59 -18 34 -18 34 -30 12z"/>
<path d="M481 406 c-34 -54 -48 -62 -71 -41 -11 10 -20 24 -20 32 0 7 -7 13
-15 13 -10 0 -15 -10 -15 -30 0 -18 5 -30 13 -30 7 0 27 -10 44 -23 25 -18 29
-26 22 -40 -6 -9 -6 -17 -2 -17 15 1 77 60 70 66 -4 4 -16 -1 -26 -10 -18 -16
-41 -15 -41 2 0 4 16 25 35 47 19 22 35 45 35 52 0 20 -7 15 -29 -21z"/>
<path d="M263 335 c-13 -19 -23 -38 -23 -42 0 -9 69 60 70 70 1 19 -27 3 -47
-28z"/>
<path d="M124 347 c-5 -15 54 -82 64 -72 7 7 -33 78 -47 83 -6 2 -13 -3 -17
-11z"/>
<path d="M343 317 c-11 -24 -10 -27 34 -52 53 -29 63 -27 34 7 -10 12 -28 34
-38 47 l-19 23 -11 -25z"/>
<path d="M630 620 c0 -5 7 -10 15 -10 8 0 15 5 15 10 0 6 -7 10 -15 10 -8 0
-15 -4 -15 -10z"/>
</g>
</svg>
