<?xml version="1.0" standalone="no"?>
<!DOCTYPE svg PUBLIC "-//W3C//DTD SVG 20010904//EN"
 "http://www.w3.org/TR/2001/REC-SVG-20010904/DTD/svg10.dtd">
<svg version="1.0" xmlns="http://www.w3.org/2000/svg"
 width="125.000000pt" height="148.000000pt" viewBox="0 0 125.000000 148.000000"
 preserveAspectRatio="xMidYMid meet">
<metadata>
Created by potrace 1.16, written by Peter Selinger 2001-2019
</metadata>
<g transform="translate(0.000000,148.000000) scale(0.100000,-0.100000)"
fill="#000000" stroke="none">
<path d="M730 1390 c0 -16 -6 -20 -36 -20 -33 0 -36 -2 -29 -22 12 -37 23
-184 24 -320 1 -71 3 -128 5 -128 2 0 23 7 47 16 39 14 92 19 278 28 l54 2 3
70 c6 159 15 283 23 330 5 27 7 52 3 56 -4 3 -32 2 -62 -3 -51 -9 -142 -6
-262 7 -43 4 -48 3 -48 -16z m45 -10 c3 -5 -1 -10 -10 -10 -9 0 -13 5 -10 10
3 6 8 10 10 10 2 0 7 -4 10 -10z m304 -22 c0 -31 -1 -31 -10 -10 -5 13 -7 28
-3 33 10 16 14 9 13 -23z m-33 5 c4 -10 10 -102 12 -204 l4 -186 -69 -6 c-37
-4 -116 -7 -174 -7 l-107 0 -7 154 c-9 187 -2 217 53 235 38 13 152 27 233 30
36 1 49 -3 55 -16z m-349 -35 c-3 -8 -6 -5 -6 6 -1 11 2 17 5 13 3 -3 4 -12 1
-19z"/>
<path d="M920 1245 c-19 -14 -41 -25 -48 -25 -10 0 -13 -8 -9 -26 6 -35 -10
-39 -72 -15 -50 19 -51 19 -51 0 0 -11 -5 -28 -12 -39 -18 -29 -4 -34 54 -21
110 25 101 27 126 -29 12 -28 27 -48 32 -45 6 4 2 22 -10 45 -11 22 -20 41
-20 44 0 3 19 6 43 8 47 3 49 23 2 23 -35 0 -35 14 1 62 13 17 24 34 24 37 0
13 -27 4 -60 -19z m-1 -49 c-13 -28 -24 -33 -35 -14 -4 6 3 19 16 30 28 23 34
18 19 -16z m-114 -40 c18 -13 17 -14 -14 -21 -37 -8 -44 -4 -35 19 8 20 24 21
49 2z"/>
<path d="M108 1363 c-2 -22 -9 -29 -32 -31 -25 -3 -27 -6 -21 -30 4 -15 9
-108 11 -207 3 -99 7 -185 9 -191 2 -8 21 -7 66 2 34 7 113 16 175 20 l112 7
6 186 c2 102 6 200 8 216 l3 30 -125 1 c-69 1 -136 4 -150 8 -14 4 -33 10 -42
12 -12 4 -17 -2 -20 -23z m42 -13 c0 -5 -4 -10 -10 -10 -5 0 -10 5 -10 10 0 6
5 10 10 10 6 0 10 -4 10 -10z m251 -36 c4 -16 7 -104 8 -195 l1 -167 -62 -5
c-76 -6 -216 -2 -240 8 -16 6 -18 23 -17 149 0 172 10 207 59 219 35 8 216 25
235 22 6 -1 13 -15 16 -31z m26 14 c-3 -8 -6 -5 -6 6 -1 11 2 17 5 13 3 -3 4
-12 1 -19z m-337 -27 c0 -6 -4 -13 -10 -16 -5 -3 -10 1 -10 9 0 9 5 16 10 16
6 0 10 -4 10 -9z m30 -371 c12 -8 11 -10 -7 -10 -13 0 -23 5 -23 10 0 13 11
13 30 0z"/>
<path d="M217 1182 c-36 -37 -34 -48 11 -62 20 -7 56 -23 80 -37 24 -14 46
-22 49 -19 3 2 -13 22 -36 44 -24 23 -43 52 -47 70 -8 39 -22 40 -57 4z m48
-30 c6 -22 5 -23 -17 -17 -31 10 -31 10 -16 34 14 23 22 18 33 -17z"/>
<path d="M527 1003 c-6 -12 -1 -62 7 -70 11 -11 26 18 26 50 0 25 -23 39 -33
20z"/>
<path d="M1159 1005 c-8 -8 3 -75 12 -75 12 0 29 35 29 59 0 19 -28 30 -41 16z"/>
<path d="M1226 981 c-4 -7 -5 -15 -2 -18 9 -9 19 4 14 18 -4 11 -6 11 -12 0z"/>
<path d="M764 591 c-5 -24 -10 -27 -35 -23 -34 5 -38 -12 -13 -61 14 -26 16
-51 10 -158 -4 -69 -4 -152 0 -183 7 -56 8 -58 33 -51 14 4 91 9 171 11 80 2
146 7 147 11 2 5 7 98 12 208 5 110 12 210 16 223 l7 22 -143 0 c-106 0 -151
4 -172 15 -27 14 -28 13 -33 -14z m46 -15 c0 -2 -7 -6 -15 -10 -8 -3 -15 -1
-15 4 0 6 7 10 15 10 8 0 15 -2 15 -4z m245 -35 c8 -30 8 -372 0 -380 -8 -7
-204 -12 -252 -6 -48 7 -51 12 -57 108 -4 58 -3 68 10 63 9 -3 24 -2 34 4 10
5 50 14 90 21 69 10 73 10 110 -15 41 -27 65 -23 28 6 l-23 18 23 0 c12 0 22
5 22 10 0 6 -19 10 -43 10 -40 0 -116 38 -117 58 0 4 -7 15 -15 25 -13 18 -14
18 -39 0 -14 -10 -26 -21 -26 -25 0 -4 21 -19 48 -33 l47 -26 -67 4 c-61 4
-68 3 -68 -14 0 -11 -3 -19 -8 -19 -4 0 -5 38 -1 85 8 120 20 128 216 131 80
1 82 1 88 -25z m35 19 c0 -5 -4 -10 -10 -10 -5 0 -10 5 -10 10 0 6 5 10 10 10
6 0 10 -4 10 -10z m-340 -25 c0 -8 -4 -15 -10 -15 -5 0 -10 7 -10 15 0 8 5 15
10 15 6 0 10 -7 10 -15z m110 -105 c0 -5 -7 -7 -15 -4 -8 4 -12 10 -9 15 6 11
24 2 24 -11z m-49 -76 c-34 -15 -48 -13 -36 5 3 6 21 11 38 10 l32 -1 -34 -14z
m-31 -214 c0 -5 -7 -10 -15 -10 -8 0 -15 5 -15 10 0 6 7 10 15 10 8 0 15 -4
15 -10z"/>
<path d="M110 560 c0 -11 -6 -21 -12 -21 -7 -1 -20 -2 -28 -3 -18 -1 -18 -35
-1 -120 8 -35 11 -114 9 -197 -2 -77 0 -139 3 -139 4 0 25 7 48 14 23 9 103
18 188 22 l148 7 0 131 c0 72 2 165 6 206 5 56 3 78 -7 86 -7 6 -63 12 -124
13 -62 1 -137 7 -168 12 -32 5 -58 9 -59 9 -2 0 -3 -9 -3 -20z m345 -57 c-7
-17 -8 -17 -15 2 -9 24 -2 41 12 27 6 -6 7 -19 3 -29z m-27 -17 c12 -36 20
-332 9 -342 -7 -7 -302 -6 -321 2 -18 7 -18 17 -14 176 3 98 9 173 16 180 19
19 75 26 187 25 l110 -2 13 -39z m-332 8 c-3 -9 -6 -23 -6 -31 0 -22 -6 -14
-14 20 -5 21 -3 27 10 27 11 0 14 -5 10 -16z m19 -374 c3 -5 1 -10 -4 -10 -6
0 -11 5 -11 10 0 6 2 10 4 10 3 0 8 -4 11 -10z"/>
<path d="M246 447 c-23 -19 -28 -29 -23 -49 7 -25 6 -25 -33 -15 -45 12 -58 5
-62 -33 -3 -22 0 -25 27 -22 17 2 41 10 54 19 28 18 30 16 66 -75 16 -40 32
-75 37 -78 14 -9 9 23 -12 78 -28 73 -26 78 19 78 68 0 83 14 21 20 l-55 5 3
48 c2 26 -1 47 -5 47 -4 0 -21 -11 -37 -23z m20 -39 c-3 -13 -5 -25 -6 -28 0
-3 -5 3 -11 14 -9 14 -8 20 2 27 19 12 19 12 15 -13z m-91 -48 c3 -5 -1 -10
-10 -10 -9 0 -13 5 -10 10 3 6 8 10 10 10 2 0 7 -4 10 -10z"/>
<path d="M405 370 c-3 -5 -1 -10 4 -10 6 0 11 5 11 10 0 6 -2 10 -4 10 -3 0
-8 -4 -11 -10z"/>
<path d="M549 183 c-6 -39 -2 -73 9 -73 16 0 36 44 29 64 -6 16 -36 22 -38 9z"/>
<path d="M1142 158 c2 -13 10 -23 18 -23 8 0 16 10 18 23 3 17 -2 22 -18 22
-16 0 -21 -5 -18 -22z"/>
</g>
</svg>
