<?xml version="1.0" standalone="no"?>
<!DOCTYPE svg PUBLIC "-//W3C//DTD SVG 20010904//EN"
 "http://www.w3.org/TR/2001/REC-SVG-20010904/DTD/svg10.dtd">
<svg version="1.0" xmlns="http://www.w3.org/2000/svg"
 width="57.000000pt" height="59.000000pt" viewBox="0 0 57.000000 59.000000"
 preserveAspectRatio="xMidYMid meet">
<metadata>
Created by potrace 1.16, written by Peter Selinger 2001-2019
</metadata>
<g transform="translate(0.000000,59.000000) scale(0.100000,-0.100000)"
fill="#000000" stroke="none">
<path d="M0 581 c0 -6 111 -9 285 -8 157 1 285 5 285 10 0 4 -128 7 -285 7
-172 0 -285 -4 -285 -9z"/>
<path d="M366 542 c-3 -5 2 -73 10 -151 8 -78 14 -171 12 -206 l-3 -64 -65 28
c-70 29 -67 25 -55 107 7 40 6 41 -26 48 -18 3 -34 4 -37 1 -3 -2 0 -27 5 -55
6 -27 6 -50 1 -50 -11 0 -117 60 -123 69 -9 15 97 121 176 176 43 31 79 63 79
71 0 10 -20 0 -60 -28 -94 -67 -203 -128 -230 -128 -14 0 -12 -25 4 -65 13
-31 13 -36 -6 -60 -11 -15 -17 -30 -12 -34 5 -5 45 -14 89 -21 44 -7 83 -18
87 -24 4 -6 8 -39 8 -73 0 -35 4 -63 10 -63 6 0 10 28 10 65 0 36 4 65 8 65 5
0 36 -11 70 -25 34 -14 68 -25 76 -25 11 0 15 27 19 123 4 67 11 147 16 177 5
30 13 76 17 103 l7 47 -41 0 c-22 0 -43 -4 -46 -8z m63 -24 c0 -7 -6 -44 -13
-83 l-13 -70 -7 50 c-16 122 -17 115 10 115 13 0 24 -6 23 -12z m-337 -190
c-18 -19 -22 -20 -22 -6 0 9 8 21 17 27 27 15 29 3 5 -21z m157 -55 c-1 -16
-18 -48 -18 -36 -1 6 -4 18 -7 27 -4 11 -1 16 10 16 9 0 16 -3 15 -7z m-119
-64 c0 -3 -13 -4 -30 -1 -29 4 -37 12 -25 24 7 6 55 -14 55 -23z"/>
<path d="M348 3 c23 -2 59 -2 80 0 20 2 1 4 -43 4 -44 0 -61 -2 -37 -4z"/>
<path d="M493 3 c15 -2 39 -2 55 0 15 2 2 4 -28 4 -30 0 -43 -2 -27 -4z"/>
</g>
</svg>
