<?xml version="1.0" standalone="no"?>
<!DOCTYPE svg PUBLIC "-//W3C//DTD SVG 20010904//EN"
 "http://www.w3.org/TR/2001/REC-SVG-20010904/DTD/svg10.dtd">
<svg version="1.0" xmlns="http://www.w3.org/2000/svg"
 width="132.000000pt" height="60.000000pt" viewBox="0 0 132.000000 60.000000"
 preserveAspectRatio="xMidYMid meet">
<metadata>
Created by potrace 1.16, written by Peter Selinger 2001-2019
</metadata>
<g transform="translate(0.000000,60.000000) scale(0.100000,-0.100000)"
fill="#000000" stroke="none">
<path d="M55 541 c-12 -21 6 -31 55 -31 48 0 49 0 56 -36 4 -20 4 -92 2 -160
-4 -95 -2 -124 8 -124 9 0 14 43 19 160 l8 160 73 0 c71 0 108 15 62 24 -57
12 -276 17 -283 7z"/>
<path d="M457 544 c-8 -9 -9 -58 -1 -66 3 -3 22 -1 42 5 20 5 91 10 156 11 86
1 120 5 123 14 4 9 -20 12 -94 13 -94 0 -171 9 -204 23 -8 4 -18 3 -22 0z"/>
<path d="M930 498 c0 -36 32 -343 36 -347 13 -14 29 67 39 200 l7 77 76 25
c42 14 94 28 114 32 21 4 42 13 49 21 10 12 -14 14 -155 14 -165 0 -166 0
-166 -22z m180 -6 c0 -4 -21 -14 -47 -21 -27 -7 -53 -14 -59 -16 -10 -3 -22
-70 -25 -145 -2 -48 -17 55 -18 127 l-1 52 68 4 c37 2 70 4 75 5 4 1 7 -2 7
-6z"/>
<path d="M434 428 c3 -18 9 -93 12 -165 4 -73 11 -133 15 -133 5 0 9 9 9 19 0
43 22 228 30 261 11 39 2 50 -44 50 -27 0 -28 -2 -22 -32z m45 -10 c0 -7 -4
-22 -9 -33 -7 -17 -9 -15 -9 13 -1 17 4 32 9 32 6 0 10 -6 9 -12z"/>
<path d="M803 232 c-16 -10 -14 -82 3 -82 7 0 17 12 20 26 8 31 -6 66 -23 56z"/>
<path d="M333 223 c-15 -6 -17 -33 -3 -33 6 0 8 -11 4 -25 -8 -31 11 -34 26
-4 21 38 5 75 -27 62z"/>
</g>
</svg>
