<?xml version="1.0" standalone="no"?>
<!DOCTYPE svg PUBLIC "-//W3C//DTD SVG 20010904//EN"
 "http://www.w3.org/TR/2001/REC-SVG-20010904/DTD/svg10.dtd">
<svg version="1.0" xmlns="http://www.w3.org/2000/svg"
 width="105.000000pt" height="66.000000pt" viewBox="0 0 105.000000 66.000000"
 preserveAspectRatio="xMidYMid meet">
<metadata>
Created by potrace 1.16, written by Peter Selinger 2001-2019
</metadata>
<g transform="translate(0.000000,66.000000) scale(0.100000,-0.100000)"
fill="#000000" stroke="none">
<path d="M635 496 c-55 -56 -116 -115 -135 -131 -52 -44 -111 -88 -114 -84 -1
2 -14 32 -29 65 -20 47 -27 78 -27 128 0 73 -12 84 -34 31 -15 -35 -16 -35
-76 -35 -56 0 -61 -2 -55 -19 3 -10 0 -32 -7 -47 -17 -39 -87 -153 -115 -188
-31 -38 -19 -50 38 -36 24 5 92 13 151 16 l107 7 12 -26 c15 -34 29 -35 29 -2
0 29 33 38 125 33 l60 -3 0 -62 c0 -83 19 -81 23 2 4 82 22 86 22 5 0 -33 4
-60 10 -60 6 0 10 27 10 60 0 33 4 60 10 60 6 0 10 -29 10 -67 0 -82 18 -74
22 10 2 31 8 57 13 57 10 0 11 -9 14 -103 2 -75 21 -46 21 33 0 38 4 71 8 74
19 11 27 -14 27 -84 0 -42 4 -76 10 -77 6 -1 9 6 7 15 -1 9 0 45 4 79 6 71 3
69 129 77 32 2 61 8 63 14 2 6 -33 7 -93 4 -104 -5 -108 -2 -83 53 15 33 4 43
-22 20 -13 -12 -19 -28 -17 -49 1 -23 -3 -31 -17 -34 -17 -4 -18 0 -12 34 3
22 9 50 12 64 l7 25 -27 -25 c-22 -20 -26 -30 -21 -57 3 -19 1 -34 -6 -39 -13
-8 -8 86 7 121 8 19 7 19 -17 3 -24 -15 -26 -15 -38 4 -17 27 -8 32 47 33 33
0 57 -7 80 -23 31 -23 44 -18 20 6 -10 10 -10 15 0 21 11 7 10 10 -3 15 -9 3
-26 6 -36 6 -16 0 -19 4 -13 23 14 47 20 50 40 23 131 -177 154 -203 154 -177
0 5 -19 33 -42 62 -73 93 -138 198 -138 224 0 14 -3 25 -7 24 -5 -1 -53 -47
-108 -103z m94 11 c8 -11 4 -20 -19 -40 -17 -15 -30 -32 -30 -37 0 -11 -30
-13 -55 -4 -14 6 -9 14 26 50 46 47 60 52 78 31z m-399 -143 c22 -48 40 -90
40 -95 0 -5 -9 -13 -20 -19 -17 -9 -23 -4 -50 49 -30 60 -42 151 -20 151 5 0
27 -39 50 -86z m-102 62 c-19 -14 -24 -36 -9 -36 9 0 91 -139 91 -153 0 -14
-134 -19 -171 -7 -21 7 -39 15 -39 18 0 10 65 119 93 155 16 20 34 37 40 37 7
0 4 -7 -5 -14z m337 -105 c0 -44 -3 -82 -5 -85 -8 -7 -148 -11 -155 -4 -13 12
27 64 69 91 23 14 52 38 66 52 13 14 24 25 25 25 1 0 1 -36 0 -79z m87 -68
c-8 -24 -11 -25 -17 -10 -4 9 -4 34 0 55 l8 37 9 -27 c6 -18 6 -38 0 -55z
m-42 10 c0 -13 -4 -23 -10 -23 -5 0 -10 17 -10 38 0 27 3 33 10 22 5 -8 10
-25 10 -37z m-510 -53 c-20 -13 -33 -13 -25 0 3 6 14 10 23 10 15 0 15 -2 2
-10z"/>
</g>
</svg>
