<?xml version="1.0" standalone="no"?>
<!DOCTYPE svg PUBLIC "-//W3C//DTD SVG 20010904//EN"
 "http://www.w3.org/TR/2001/REC-SVG-20010904/DTD/svg10.dtd">
<svg version="1.0" xmlns="http://www.w3.org/2000/svg"
 width="51.000000pt" height="54.000000pt" viewBox="0 0 51.000000 54.000000"
 preserveAspectRatio="xMidYMid meet">
<metadata>
Created by potrace 1.16, written by Peter Selinger 2001-2019
</metadata>
<g transform="translate(0.000000,54.000000) scale(0.100000,-0.100000)"
fill="#000000" stroke="none">
<path d="M97 514 c-4 -4 -7 -16 -7 -26 0 -14 -6 -18 -22 -16 -21 3 -21 3 -21
-222 0 -215 1 -225 19 -224 10 1 51 7 89 13 39 6 116 11 173 11 l103 0 -1 167
c0 94 4 186 10 208 22 79 33 74 -140 79 -85 2 -164 7 -175 11 -11 3 -24 3 -28
-1z m301 -161 c7 -71 12 -163 12 -205 l0 -78 -74 0 -75 0 -3 88 c-2 48 -2 89
-1 91 2 2 25 6 53 9 60 6 56 22 -6 22 -51 0 -54 9 -29 80 8 23 13 45 11 49 -2
3 -19 5 -38 5 -36 -1 -35 4 -22 -88 l7 -49 -54 6 c-30 4 -64 10 -76 13 -17 5
-22 1 -26 -18 -4 -23 -4 -23 -5 2 -2 24 32 167 41 176 11 11 99 22 183 23 l90
1 12 -127z m32 115 c0 -7 -5 -20 -10 -28 -8 -12 -10 -9 -10 13 0 15 5 27 10
27 6 0 10 -6 10 -12z m-350 -38 c0 -11 -4 -20 -10 -20 -5 0 -10 9 -10 20 0 11
5 20 10 20 6 0 10 -9 10 -20z m180 -59 c0 -11 -4 -23 -10 -26 -6 -4 -10 5 -10
19 0 14 5 26 10 26 6 0 10 -9 10 -19z m-120 -105 c0 -2 -9 -6 -20 -9 -11 -3
-20 -1 -20 4 0 5 9 9 20 9 11 0 20 -2 20 -4z m90 -45 c0 -15 3 -56 6 -90 l7
-61 -87 0 -86 0 0 78 0 78 38 11 c20 6 56 11 80 12 40 1 42 0 42 -28z"/>
</g>
</svg>
