<?xml version="1.0" standalone="no"?>
<!DOCTYPE svg PUBLIC "-//W3C//DTD SVG 20010904//EN"
 "http://www.w3.org/TR/2001/REC-SVG-20010904/DTD/svg10.dtd">
<svg version="1.0" xmlns="http://www.w3.org/2000/svg"
 width="36.000000pt" height="61.000000pt" viewBox="0 0 36.000000 61.000000"
 preserveAspectRatio="xMidYMid meet">
<metadata>
Created by potrace 1.16, written by Peter Selinger 2001-2019
</metadata>
<g transform="translate(0.000000,61.000000) scale(0.100000,-0.100000)"
fill="#000000" stroke="none">
<path d="M87 603 c51 -2 135 -2 185 0 51 1 10 3 -92 3 -102 0 -143 -2 -93 -3z"/>
<path d="M158 546 c-42 -37 -47 -52 -20 -60 16 -5 75 -70 96 -103 4 -7 -9 -47
-28 -88 -26 -56 -55 -96 -106 -149 -63 -66 -83 -96 -62 -96 4 0 63 54 131 120
67 66 127 120 132 120 21 0 6 38 -30 83 -40 48 -66 128 -59 178 5 33 -13 32
-54 -5z m32 -38 c0 -30 -1 -31 -17 -16 -13 14 -14 20 -3 32 18 22 20 20 20
-16z m84 -185 c5 -11 -2 -24 -21 -39 -15 -12 -29 -21 -30 -20 -5 4 31 76 38
76 4 0 10 -8 13 -17z"/>
<path d="M0 15 c0 -13 27 -15 180 -15 153 0 180 2 180 15 0 13 -27 15 -180 15
-153 0 -180 -2 -180 -15z"/>
</g>
</svg>
