<?xml version="1.0" standalone="no"?>
<!DOCTYPE svg PUBLIC "-//W3C//DTD SVG 20010904//EN"
 "http://www.w3.org/TR/2001/REC-SVG-20010904/DTD/svg10.dtd">
<svg version="1.0" xmlns="http://www.w3.org/2000/svg"
 width="90.000000pt" height="179.000000pt" viewBox="0 0 90.000000 179.000000"
 preserveAspectRatio="xMidYMid meet">
<metadata>
Created by potrace 1.16, written by Peter Selinger 2001-2019
</metadata>
<g transform="translate(0.000000,179.000000) scale(0.100000,-0.100000)"
fill="#000000" stroke="none">
<path d="M223 1783 c125 -2 329 -2 455 0 125 1 22 2 -228 2 -250 0 -353 -1
-227 -2z"/>
<path d="M780 1737 c0 -7 -8 -22 -18 -33 -10 -10 -44 -55 -76 -99 -32 -44 -63
-79 -68 -77 -22 6 -298 5 -304 -1 -4 -4 -1 -7 7 -8 8 0 6 -4 -6 -9 -18 -8 79
-6 235 4 53 4 57 2 75 -25 11 -16 24 -28 28 -26 5 1 18 32 31 67 12 36 40 91
63 123 l42 59 6 -36 c8 -40 3 -291 -6 -300 -3 -3 -119 -9 -259 -12 l-253 -6 6
78 c3 44 8 108 11 144 3 36 6 72 8 80 2 10 -7 16 -31 18 -33 3 -33 3 -27 -32
l7 -36 -63 0 c-35 0 -68 4 -75 8 -6 4 -15 31 -19 60 -7 57 -12 61 -37 34 -23
-25 -21 -41 6 -70 18 -19 22 -36 23 -85 0 -34 1 -86 2 -115 l2 -54 32 8 c38 8
64 12 96 13 12 1 22 6 22 11 0 14 -103 10 -112 -4 -5 -7 -8 -5 -8 6 0 11 12
18 38 23 67 11 72 25 10 25 -81 0 -72 17 13 25 74 8 85 17 22 19 -27 1 -39 6
-41 19 -3 12 3 17 22 18 38 2 44 3 52 12 4 4 -13 7 -37 7 -32 0 -40 3 -29 10
8 5 29 10 46 10 28 0 33 -4 38 -32 3 -18 5 -71 5 -117 l-1 -83 -89 4 -90 4 3
-25 c2 -20 8 -25 23 -23 11 2 43 7 70 12 28 5 179 11 336 13 158 2 291 7 296
10 5 3 11 58 12 122 1 64 7 142 12 173 15 94 13 102 -21 102 -18 0 -30 -5 -30
-13z m-501 -104 c0 -25 -1 -25 -8 -8 -5 11 -7 23 -4 28 8 14 13 7 12 -20z
m-139 -112 c0 -5 -9 -7 -20 -4 -11 3 -20 7 -20 9 0 2 9 4 20 4 11 0 20 -4 20
-9z m511 -14 c-10 -9 -11 -8 -5 6 3 10 9 15 12 12 3 -3 0 -11 -7 -18z"/>
<path d="M730 1110 c0 -11 5 -20 10 -20 12 0 13 -100 1 -118 -13 -20 -55 -11
-59 13 -1 11 6 38 18 59 11 22 18 42 15 44 -4 4 -118 -114 -123 -129 -2 -5
-55 -9 -118 -9 l-114 0 0 37 c0 20 10 56 21 80 24 49 20 62 -14 46 -12 -6 -30
-14 -40 -17 -13 -4 -16 -12 -11 -31 6 -24 5 -25 -42 -25 -35 0 -45 3 -34 10 8
5 25 10 38 10 12 0 22 4 22 9 0 9 -90 22 -102 14 -5 -2 -8 -20 -8 -39 0 -19 3
-33 8 -31 4 3 7 -32 6 -76 -1 -45 1 -88 4 -95 5 -14 81 -8 114 9 14 8 19 4 24
-15 12 -48 -10 -53 -111 -27 -56 15 -55 15 -55 -22 0 -38 8 -51 24 -38 7 6
101 12 211 15 110 3 234 8 276 12 l75 7 2 101 c2 94 21 187 43 211 21 22 8 35
-36 35 -38 0 -45 -3 -45 -20z m47 -32 c-3 -7 -5 -2 -5 12 0 14 2 19 5 13 2 -7
2 -19 0 -25z m-414 -8 c-3 -11 -9 -23 -14 -26 -10 -6 -12 29 -2 39 13 13 21 7
16 -13z m-23 -120 c3 -41 6 -76 5 -76 0 -1 -26 -5 -59 -9 -43 -5 -57 -4 -54 5
2 7 21 14 43 16 58 5 71 26 15 24 -72 -3 -74 -2 -60 15 7 8 15 13 19 11 4 -3
13 -1 21 4 12 7 11 10 -5 15 -46 16 -49 19 -17 23 35 4 35 22 -1 23 -15 0 -9
5 18 14 66 22 69 19 75 -65z m326 24 c-5 -14 -46 -20 -46 -7 0 4 10 17 23 29
17 16 23 18 25 7 2 -8 1 -21 -2 -29z m-6 -44 c0 -11 -2 -20 -5 -20 -2 0 -9 9
-15 20 -9 16 -8 20 5 20 8 0 15 -9 15 -20z m80 -55 c0 -41 -1 -75 -2 -75 -2
-1 -85 -3 -185 -7 l-183 -6 0 62 c0 33 3 61 8 62 4 0 16 2 27 5 11 2 60 9 108
15 l88 10 61 -66 c59 -63 91 -83 50 -30 -23 29 -37 79 -27 95 3 5 17 10 31 10
23 0 24 -2 24 -75z m-460 -95 c0 -5 -16 -10 -35 -10 -19 0 -35 5 -35 10 0 6
16 10 35 10 19 0 35 -4 35 -10z"/>
<path d="M705 641 c-22 -3 -39 -11 -38 -16 1 -6 4 -22 8 -35 5 -23 -4 -34 -87
-100 -91 -74 -151 -119 -175 -134 -10 -5 -13 13 -13 78 0 85 1 87 36 126 20
22 34 43 31 47 -8 7 -127 -19 -127 -28 0 -3 8 -21 17 -40 13 -24 19 -64 21
-141 l4 -108 -84 0 c-47 0 -88 -3 -91 -6 -3 -4 -2 -15 3 -24 9 -17 14 -17 62
-4 29 7 68 14 86 14 l32 0 0 -71 0 -72 -97 7 c-54 3 -111 7 -128 9 -24 2 -29
-2 -27 -16 2 -9 -1 -33 -7 -52 -5 -19 -7 -35 -4 -35 3 0 29 11 57 24 64 30
160 45 301 46 121 2 158 7 149 22 -4 5 -51 8 -113 6 l-106 -3 -3 56 c-2 46 0
58 15 63 14 6 92 13 205 19 15 1 27 7 27 12 0 6 -32 9 -82 7 -45 -1 -88 1 -96
6 -24 17 -1 54 97 150 99 97 111 101 112 37 1 -16 3 -55 5 -85 2 -30 7 -101
10 -157 l5 -103 -30 0 c-16 0 -30 -4 -30 -10 0 -5 17 -9 39 -8 l39 1 5 166 c4
111 12 196 25 256 11 49 18 93 15 97 -5 9 -7 8 -68 -1z m40 -53 c-3 -18 -12
-69 -19 -113 l-12 -80 -7 80 c-3 44 -9 95 -13 113 -6 31 -5 32 25 32 31 0 32
-1 26 -32z m-337 -28 c-15 -24 -24 -25 -31 -6 -6 14 6 24 31 25 10 1 10 -3 0
-19z m52 -220 c-11 -20 -30 -28 -30 -12 0 11 22 32 32 32 5 0 4 -9 -2 -20z
m-45 -30 c3 -5 1 -10 -4 -10 -6 0 -11 5 -11 10 0 6 2 10 4 10 3 0 8 -4 11 -10z
m25 -34 c0 -11 -19 -15 -25 -6 -3 5 1 10 9 10 9 0 16 -2 16 -4z m-235 -181
c-41 -19 -51 -20 -53 -8 -8 31 5 38 54 34 l49 -4 -50 -22z"/>
<path d="M136 574 c-15 -19 -26 -38 -24 -42 2 -4 21 -34 43 -66 34 -51 40 -56
43 -36 2 12 -1 42 -7 66 -6 23 -11 56 -11 73 0 43 -12 45 -44 5z m30 -81 c-9
-9 -27 39 -20 55 5 13 9 9 16 -17 5 -18 7 -35 4 -38z"/>
<path d="M204 528 c4 -18 9 -50 13 -71 4 -28 10 -36 22 -33 9 2 37 7 64 11 67
9 58 25 -15 25 -76 0 -68 19 13 28 31 4 54 13 57 21 4 12 -7 13 -59 9 l-64 -6
53 16 c28 8 52 19 52 23 0 5 -32 9 -71 9 l-71 0 6 -32z"/>
<path d="M220 382 c0 -29 6 -30 73 -15 82 19 85 26 9 21 -34 -1 -62 0 -62 5 0
4 -4 7 -10 7 -5 0 -10 -8 -10 -18z"/>
<path d="M213 333 c-10 -24 9 -34 51 -28 120 18 130 32 25 37 -49 2 -73 -1
-76 -9z"/>
<path d="M852 148 c-22 -22 -14 -48 14 -48 22 0 25 4 22 27 -3 30 -18 39 -36
21z"/>
<path d="M238 3 c122 -2 322 -2 445 0 122 1 22 2 -223 2 -245 0 -345 -1 -222
-2z"/>
</g>
</svg>
