<?xml version="1.0" standalone="no"?>
<!DOCTYPE svg PUBLIC "-//W3C//DTD SVG 20010904//EN"
 "http://www.w3.org/TR/2001/REC-SVG-20010904/DTD/svg10.dtd">
<svg version="1.0" xmlns="http://www.w3.org/2000/svg"
 width="73.000000pt" height="81.000000pt" viewBox="0 0 73.000000 81.000000"
 preserveAspectRatio="xMidYMid meet">
<metadata>
Created by potrace 1.16, written by Peter Selinger 2001-2019
</metadata>
<g transform="translate(0.000000,81.000000) scale(0.100000,-0.100000)"
fill="#000000" stroke="none">
<path d="M245 733 c-28 -34 -28 -36 -10 -49 20 -15 45 -19 45 -8 0 4 -8 13
-17 20 -15 10 -16 15 -5 26 11 11 14 10 22 -2 5 -8 10 -25 10 -38 0 -12 7 -25
15 -28 18 -7 19 -37 4 -66 -8 -15 -8 -27 2 -44 7 -13 10 -27 6 -30 -9 -9 -199
15 -214 27 -14 12 -16 9 -28 -45 -6 -28 -5 -29 27 -22 18 4 75 9 126 13 l92 6
1 -49 c1 -27 1 -64 0 -83 -2 -28 0 -33 14 -27 9 3 19 6 21 6 3 0 2 5 -2 12 -5
7 -3 8 5 3 18 -11 182 5 175 17 -3 5 -36 9 -72 8 -103 -2 -122 -1 -122 9 0 14
100 32 159 30 l51 -3 0 -46 0 -47 -86 -6 c-47 -3 -99 -4 -115 0 -27 5 -29 4
-29 -27 0 -21 4 -30 13 -27 6 2 11 11 9 21 -3 17 14 23 20 5 2 -7 23 -7 68 0
100 17 111 15 101 -11 -7 -20 -20 -25 -87 -35 -43 -6 -88 -9 -99 -7 -15 4 -25
-4 -40 -32 -11 -21 -36 -53 -55 -72 l-35 -34 30 -24 c40 -32 45 -31 45 14 0
21 6 45 13 54 16 21 93 32 192 30 l80 -3 2 183 c1 101 7 205 13 231 6 27 8 52
6 56 -9 14 -66 0 -66 -17 0 -12 -10 -14 -60 -9 -32 3 -80 13 -105 22 -43 17
-47 21 -63 76 -9 33 -19 59 -22 58 -3 0 -18 -16 -35 -36z m326 -116 c-1 -4 -1
-24 -2 -44 0 -36 -1 -37 -11 -13 -9 20 -12 21 -15 8 -3 -13 -19 -17 -73 -20
-72 -3 -128 5 -100 14 69 23 92 28 129 28 35 0 44 4 48 20 5 19 26 25 24 7z
m-170 -14 l34 -7 -50 -12 c-54 -14 -60 -13 -52 11 7 17 19 18 68 8z m-11 -74
c0 -6 28 -9 78 -8 65 2 78 0 80 -14 3 -15 -8 -17 -92 -17 -84 0 -97 2 -106 19
-14 28 -13 31 15 31 14 0 25 -5 25 -11z m-224 -21 c3 -4 -4 -8 -15 -8 -10 0
-26 -3 -35 -6 -10 -4 -16 -1 -16 9 0 11 9 15 30 15 17 -1 33 -5 36 -10z m199
-37 c3 -5 46 -7 99 -4 88 5 94 5 92 -13 -3 -17 -11 -18 -91 -15 -70 2 -92 6
-108 22 -11 10 -16 19 -9 19 6 0 13 -4 17 -9z m-14 -54 c-8 -8 -11 -7 -11 4 0
9 3 19 7 23 4 4 9 2 11 -4 3 -7 -1 -17 -7 -23z m209 -204 c0 -17 -6 -23 -21
-23 -16 0 -19 4 -14 18 4 9 10 25 13 35 6 24 22 3 22 -30z m-60 2 c0 -16 -12
-18 -59 -9 -42 9 -29 24 20 24 28 0 39 -4 39 -15z m-130 -25 c-53 -6 -57 -5
-41 14 10 11 19 12 49 2 l37 -11 -45 -5z m-96 -84 c-3 -9 -10 -13 -16 -10 -5
3 -4 12 3 20 15 18 22 13 13 -10z"/>
<path d="M88 355 c-36 -42 -35 -48 3 -40 17 4 72 10 120 14 49 3 90 11 92 16
1 6 -33 13 -77 17 -44 4 -84 12 -90 18 -14 14 -18 13 -48 -25z m57 -5 c-3 -5
-13 -10 -21 -10 -8 0 -12 5 -9 10 3 6 13 10 21 10 8 0 12 -4 9 -10z"/>
</g>
</svg>
