<?xml version="1.0" standalone="no"?>
<!DOCTYPE svg PUBLIC "-//W3C//DTD SVG 20010904//EN"
 "http://www.w3.org/TR/2001/REC-SVG-20010904/DTD/svg10.dtd">
<svg version="1.0" xmlns="http://www.w3.org/2000/svg"
 width="161.000000pt" height="209.000000pt" viewBox="0 0 161.000000 209.000000"
 preserveAspectRatio="xMidYMid meet">
<metadata>
Created by potrace 1.16, written by Peter Selinger 2001-2019
</metadata>
<g transform="translate(0.000000,209.000000) scale(0.100000,-0.100000)"
fill="#000000" stroke="none">
<path d="M53 2037 c-25 -32 -23 -37 27 -62 29 -14 83 -46 121 -71 38 -24 72
-44 75 -44 2 0 18 -10 34 -22 28 -20 30 -27 30 -85 0 -35 -2 -63 -5 -63 -11 0
-155 101 -215 151 -62 51 -72 53 -84 13 -6 -19 2 -26 60 -53 37 -17 105 -54
150 -82 l83 -51 3 -62 c3 -68 22 -76 25 -11 2 60 3 61 11 49 4 -6 43 -33 87
-59 44 -27 106 -66 139 -87 59 -39 83 -44 53 -10 -18 20 -25 122 -8 122 21 0
35 -36 37 -94 2 -73 3 -77 14 -51 5 11 9 117 10 235 1 118 5 239 9 268 4 29 4
55 -1 58 -16 10 -48 -8 -48 -27 0 -10 -5 -19 -12 -19 -6 0 -43 -15 -82 -34
-140 -67 -206 -96 -222 -96 -19 0 -117 66 -210 142 -53 43 -74 54 -81 45z
m615 -104 c-3 -42 -28 -59 -28 -20 0 32 9 57 22 57 5 0 8 -17 6 -37z m-48 -27
c0 -25 -5 -35 -19 -39 -11 -3 -22 -2 -25 1 -10 10 -6 48 6 60 22 22 38 13 38
-22z m-70 -30 c0 -19 -4 -38 -10 -41 -6 -4 -10 10 -10 34 0 23 5 41 10 41 6 0
10 -15 10 -34z m-40 5 c0 -24 -13 -70 -19 -66 -10 6 -1 75 10 75 5 0 9 -4 9
-9z m-40 -39 c0 -16 -7 -37 -15 -48 -13 -18 -14 -16 -15 22 0 22 3 44 7 47 14
14 23 6 23 -21z m209 -97 c0 -69 -2 -125 -5 -125 -3 0 -14 5 -25 10 -17 10
-19 22 -19 110 0 76 4 102 16 114 8 9 19 16 24 16 4 0 8 -56 9 -125z m-599
100 c11 -13 10 -14 -4 -9 -9 3 -16 10 -16 15 0 13 6 11 20 -6z m340 -15 c0
-31 -16 -41 -26 -15 -5 13 11 45 22 45 2 0 4 -13 4 -30z m192 -52 c-5 -127 -5
-124 -24 -104 -21 21 -25 135 -6 154 25 25 33 12 30 -50z m-62 -19 c0 -36 -4
-49 -12 -47 -16 5 -22 41 -14 74 11 42 26 26 26 -27z m-170 11 c0 -10 -4 -22
-10 -25 -6 -4 -10 7 -10 25 0 18 4 29 10 25 6 -3 10 -15 10 -25z m120 -7 c0
-20 -3 -24 -11 -16 -7 7 -9 19 -6 27 10 24 17 19 17 -11z m-46 -59 c-2 -72 -4
-84 -14 -84 -6 0 -10 29 -10 66 0 48 3 65 13 61 7 -2 12 -20 11 -43z m-44 -15
c0 -31 -4 -48 -10 -44 -5 3 -10 26 -10 51 0 24 5 44 10 44 6 0 10 -23 10 -51z
m-33 11 c-5 -31 -17 -36 -17 -7 0 15 4 27 10 27 5 0 9 -9 7 -20z m123 -46 c0
-48 -3 -65 -12 -62 -8 3 -14 28 -16 66 -2 51 0 62 13 62 12 0 15 -13 15 -66z
m48 -33 c2 -48 0 -62 -10 -59 -8 3 -14 27 -16 67 -2 48 0 62 10 59 8 -3 14
-27 16 -67z m62 -44 c0 -55 -1 -57 -20 -47 -17 9 -20 21 -20 70 0 58 1 60 20
48 16 -10 20 -24 20 -71z"/>
<path d="M976 1938 c-9 -34 -9 -33 29 -47 20 -7 71 -33 115 -57 l80 -45 0 -60
c0 -32 -2 -59 -5 -59 -18 0 -172 97 -209 132 -25 23 -35 15 -33 -23 2 -30 6
-33 56 -45 29 -8 65 -22 80 -32 14 -10 43 -27 64 -37 34 -18 37 -23 37 -62 0
-47 19 -61 21 -15 1 15 1 30 0 35 0 4 3 7 7 7 8 0 132 -61 162 -80 8 -5 33
-17 55 -26 22 -10 53 -26 68 -37 16 -11 32 -16 36 -11 4 5 4 65 -2 134 -6 87
-5 155 3 223 6 55 10 100 8 102 -5 5 -94 -28 -158 -57 -30 -15 -83 -36 -116
-48 -58 -20 -63 -21 -92 -6 -51 26 -163 108 -169 122 -8 22 -30 16 -37 -8z
m541 -65 c-3 -10 -5 -4 -5 12 0 17 2 24 5 18 2 -7 2 -21 0 -30z m-23 -5 c11
-42 7 -66 -13 -71 -16 -4 -20 2 -23 40 -2 24 -1 46 1 49 11 11 29 2 35 -18z
m-54 -43 c0 -34 -5 -47 -19 -55 -30 -15 -31 -14 -31 39 0 49 4 54 43 60 4 0 7
-19 7 -44z m-70 -35 c0 -49 -9 -60 -36 -42 -19 11 -21 71 -4 82 31 20 40 11
40 -40z m-70 -6 c0 -22 -2 -25 -15 -14 -12 10 -13 16 -4 26 16 20 19 18 19
-12z m210 -59 c0 -69 -1 -71 -29 -56 -25 14 -27 89 -3 107 29 22 32 17 32 -51z
m-262 -15 c-2 -40 -7 -60 -15 -60 -9 0 -13 19 -13 60 0 47 3 60 15 60 13 0 15
-11 13 -60z m54 -26 c3 -64 -5 -77 -30 -52 -12 12 -17 110 -6 121 3 3 12 3 19
1 9 -4 15 -28 17 -70z m148 36 c0 -33 -6 -36 -33 -16 -16 13 -16 15 -2 30 24
24 35 20 35 -14z m-82 -79 l3 -62 -26 17 c-22 14 -25 23 -25 76 0 60 0 60 23
46 18 -13 23 -26 25 -77z m82 -41 c0 -33 -3 -60 -7 -60 -27 1 -44 32 -50 90
l-6 62 31 -16 c31 -16 32 -19 32 -76z m48 34 c18 -13 22 -24 22 -74 0 -59 0
-60 -24 -49 -22 10 -25 19 -28 75 -2 35 -1 64 2 64 3 0 16 -7 28 -16z"/>
<path d="M1011 1854 c0 -11 3 -14 6 -6 3 7 2 16 -1 19 -3 4 -6 -2 -5 -13z"/>
<path d="M972 1689 c1 -12 9 -24 16 -27 9 -3 13 3 10 19 -1 12 -9 24 -16 27
-9 3 -13 -3 -10 -19z"/>
<path d="M744 1536 c-7 -18 14 -58 27 -51 16 10 11 65 -6 65 -9 0 -18 -6 -21
-14z"/>
<path d="M726 1321 c-3 -5 -18 -12 -32 -15 -14 -4 -58 -29 -97 -55 -163 -109
-246 -161 -259 -161 -8 0 -19 5 -25 11 -13 13 -28 22 -99 60 -27 15 -58 36
-68 48 -25 27 -44 27 -55 -1 -12 -31 -8 -35 42 -43 23 -4 77 -28 120 -54 74
-43 78 -48 73 -75 -3 -16 -6 -42 -6 -58 l0 -29 -98 51 c-53 29 -108 63 -123
76 -29 28 -44 30 -53 8 -12 -31 -6 -41 28 -47 42 -7 166 -68 417 -207 108 -61
202 -110 208 -110 11 0 16 164 12 380 -2 119 6 213 19 205 5 -3 11 -1 14 4 4
5 2 12 -3 15 -5 4 -12 2 -15 -3z m-53 -149 c-5 -9 -15 -18 -21 -20 -17 -5 -16
90 1 107 10 10 14 4 21 -30 6 -26 6 -47 -1 -57z m-53 3 c0 -34 -5 -47 -22 -59
-34 -24 -38 -20 -38 33 0 39 4 51 23 64 30 20 37 13 37 -38z m-80 -44 c0 -28
-4 -53 -10 -56 -6 -4 -10 15 -10 49 0 31 5 56 10 56 6 0 10 -22 10 -49z m-40
-31 c0 -27 -4 -50 -10 -50 -5 0 -10 23 -10 50 0 28 5 50 10 50 6 0 10 -22 10
-50z m178 -144 l-3 -65 -98 56 c-93 53 -97 56 -81 74 9 10 26 21 38 25 11 4
24 11 27 15 3 5 30 25 60 44 l54 34 3 -59 c2 -33 2 -88 0 -124z m-218 119 c0
-30 -4 -55 -10 -55 -11 0 -14 93 -3 103 12 12 13 8 13 -48z m-55 -23 c-12 -13
-24 22 -12 37 10 12 13 11 15 -8 2 -13 1 -26 -3 -29z m-48 -69 c-2 -16 -4 -5
-4 22 0 28 2 40 4 28 2 -13 2 -35 0 -50z m49 11 c-5 -13 -10 -14 -18 -6 -6 6
-8 18 -4 28 5 13 10 14 18 6 6 -6 8 -18 4 -28z m92 -27 c20 -13 44 -26 53 -29
8 -3 41 -22 71 -42 55 -35 56 -37 60 -87 1 -28 1 -52 -2 -54 -3 -2 -26 9 -50
24 -43 26 -150 87 -215 121 -60 31 -59 31 -13 61 23 16 46 29 51 29 4 0 24
-10 45 -23z"/>
<path d="M1421 1243 c-4 -8 -59 -40 -122 -72 l-114 -59 -5 -68 -6 -69 -85 88
c-47 48 -90 87 -96 87 -6 0 -16 -6 -22 -14 -9 -11 3 -25 61 -72 152 -121 153
-122 153 -191 0 -36 4 -58 13 -60 8 -3 12 10 12 46 0 28 4 51 9 51 11 0 21
-25 21 -56 0 -13 5 -24 10 -24 6 0 10 9 10 20 0 18 2 19 18 5 65 -58 144 -116
149 -111 8 8 -50 68 -99 102 -37 26 -38 28 -38 90 0 71 19 90 21 22 1 -42 1
-42 10 -13 5 17 7 38 5 48 -3 11 2 21 12 24 9 4 34 17 54 30 21 13 42 23 48
23 6 0 10 -62 10 -172 0 -94 3 -168 8 -164 4 4 10 107 14 229 3 122 10 239 13
259 7 36 6 37 -24 36 -18 -1 -35 -7 -40 -15z m19 -87 l0 -54 -52 -31 -53 -30
-6 57 c-3 31 -5 58 -5 58 3 4 102 53 109 54 4 0 7 -24 7 -54z m-139 -69 c1
-26 -1 -50 -4 -54 -4 -3 -7 20 -7 52 0 69 9 70 11 2z m-34 -49 c-2 -18 -4 -4
-4 32 0 36 2 50 4 33 2 -18 2 -48 0 -65z m-29 10 c-2 -52 -6 -63 -21 -66 -17
-3 -19 2 -16 55 4 54 12 72 32 73 4 0 7 -28 5 -62z m29 -130 c-2 -13 -4 -5 -4
17 -1 22 1 32 4 23 2 -10 2 -28 0 -40z m-27 27 c0 -8 -4 -15 -9 -15 -13 0 -22
16 -14 24 11 11 23 6 23 -9z"/>
<path d="M1071 1226 c-18 -19 -20 -26 -9 -35 7 -5 30 -24 50 -41 51 -43 64
-30 28 27 -17 26 -30 53 -30 60 0 20 -14 16 -39 -11z"/>
<path d="M1410 970 c0 -5 5 -10 10 -10 6 0 10 5 10 10 0 6 -4 10 -10 10 -5 0
-10 -4 -10 -10z"/>
<path d="M766 835 c-3 -9 -1 -26 5 -38 11 -20 12 -20 26 -1 7 10 12 25 11 34
-4 21 -34 24 -42 5z"/>
<path d="M1574 837 c-9 -25 0 -62 16 -62 10 0 15 10 15 34 0 36 -21 54 -31 28z"/>
<path d="M585 514 c-14 -22 -15 -28 -4 -35 8 -5 17 -9 21 -9 3 0 29 -23 57
-52 28 -28 54 -49 57 -45 7 6 -36 77 -46 77 -3 0 -16 20 -30 45 -14 25 -28 45
-31 45 -4 0 -14 -12 -24 -26z"/>
<path d="M939 501 c-24 -17 -80 -56 -124 -88 l-80 -59 -3 -162 c-1 -90 1 -162
6 -162 10 0 22 71 22 131 0 21 5 41 11 45 9 5 10 -12 5 -64 -4 -41 -3 -73 2
-76 12 -7 22 42 22 109 0 40 5 56 21 71 l21 19 -3 -88 c-4 -113 14 -115 23 -1
8 101 10 109 39 125 22 11 22 10 16 -34 -4 -26 -3 -49 2 -51 11 -7 21 28 21
76 0 34 19 58 44 58 3 0 6 -49 6 -110 0 -67 4 -110 10 -110 6 0 10 44 10 113
1 62 7 139 15 172 8 33 15 72 15 88 0 23 -4 27 -28 27 -15 0 -48 -13 -73 -29z
m78 -23 c-3 -7 -5 -2 -5 12 0 14 2 19 5 13 2 -7 2 -19 0 -25z m-33 -35 c5 -39
3 -51 -14 -67 -11 -11 -21 -18 -24 -15 -2 2 -6 28 -7 57 -2 38 1 56 12 63 23
14 26 11 33 -38z m-65 -65 c1 -27 -5 -41 -21 -52 -12 -9 -25 -16 -28 -16 -4 0
-7 23 -9 50 -2 43 2 54 21 70 21 17 24 17 30 2 4 -9 7 -34 7 -54z m-81 -45
c-2 -44 -7 -58 -18 -58 -19 0 -25 95 -7 107 24 15 28 7 25 -49z m-62 -89 c-12
-30 -22 -11 -21 39 1 75 19 98 23 28 2 -29 1 -60 -2 -67z"/>
<path d="M531 401 c-9 -16 3 -32 81 -110 50 -50 92 -91 94 -91 14 0 -4 31 -62
107 -37 49 -69 94 -71 101 -8 18 -31 15 -42 -7z"/>
<path d="M910 165 c0 -19 5 -35 10 -35 6 0 10 16 10 35 0 19 -4 35 -10 35 -5
0 -10 -16 -10 -35z"/>
<path d="M1096 111 c-10 -16 6 -42 23 -39 9 2 17 13 19 26 3 16 -2 22 -17 22
-11 0 -22 -4 -25 -9z"/>
</g>
</svg>
