<?xml version="1.0" standalone="no"?>
<!DOCTYPE svg PUBLIC "-//W3C//DTD SVG 20010904//EN"
 "http://www.w3.org/TR/2001/REC-SVG-20010904/DTD/svg10.dtd">
<svg version="1.0" xmlns="http://www.w3.org/2000/svg"
 width="140.000000pt" height="124.000000pt" viewBox="0 0 140.000000 124.000000"
 preserveAspectRatio="xMidYMid meet">
<metadata>
Created by potrace 1.16, written by Peter Selinger 2001-2019
</metadata>
<g transform="translate(0.000000,124.000000) scale(0.100000,-0.100000)"
fill="#000000" stroke="none">
<path d="M712 1032 c-48 -43 -104 -91 -125 -106 l-37 -29 -35 39 c-28 33 -51
78 -71 142 -5 18 -15 15 -49 -13 l-30 -25 30 -26 c17 -14 54 -49 84 -77 l53
-51 -31 -28 c-17 -15 -35 -28 -39 -28 -17 0 -68 86 -80 135 -7 27 -15 51 -17
54 -6 5 -55 -47 -55 -59 0 -5 10 -17 23 -27 12 -10 44 -44 71 -77 39 -46 46
-60 35 -67 -14 -9 -50 -6 -104 9 l-30 9 0 120 0 120 -30 -2 c-19 -1 -29 -6
-27 -15 2 -7 10 -38 18 -69 8 -30 14 -92 14 -136 0 -45 2 -84 6 -87 3 -3 26 1
51 8 30 9 96 14 191 14 l145 0 -7 -46 c-4 -34 -3 -45 7 -41 15 5 17 22 17 157
0 58 4 112 10 120 5 8 5 19 0 25 -5 6 6 23 31 44 l40 33 53 -41 c46 -36 207
-200 213 -219 3 -6 -56 -7 -139 -3 -15 1 -18 11 -18 55 0 30 -4 58 -10 61 -6
4 -10 -17 -10 -54 0 -34 -4 -61 -10 -61 -6 0 -10 30 -10 70 0 40 -4 70 -10 70
-6 0 -10 -32 -10 -75 0 -43 -4 -75 -10 -75 -6 0 -10 35 -10 85 0 50 -4 85 -10
85 -9 0 -11 -35 -13 -200 0 -45 17 -55 21 -12 4 37 22 44 22 8 0 -14 5 -28 10
-31 6 -4 10 7 10 24 0 17 5 31 10 31 6 0 10 -11 10 -25 0 -14 5 -25 10 -25 6
0 10 11 10 25 l0 26 100 -4 c55 -1 100 1 100 6 0 4 -50 63 -111 130 -62 67
-120 141 -131 165 -10 23 -23 42 -29 42 -5 0 -49 -35 -97 -78z m98 28 c0 -5
-2 -10 -4 -10 -3 0 -8 5 -11 10 -3 6 -1 10 4 10 6 0 11 -4 11 -10z m-376 -26
c9 -22 8 -24 -9 -18 -8 4 -15 12 -15 20 0 19 16 18 24 -2z m-65 -99 c1 -5 -6
-2 -15 7 -10 9 -13 21 -8 29 5 9 9 8 15 -7 4 -10 8 -23 8 -29z m295 -32 c10
-61 7 -110 -7 -116 -14 -5 -150 2 -156 9 -10 10 128 142 150 144 4 0 9 -17 13
-37z m-321 -130 c-7 -2 -19 -2 -25 0 -7 3 -2 5 12 5 14 0 19 -2 13 -5z"/>
<path d="M716 948 c-11 -19 -12 -37 -4 -93 5 -38 8 -96 6 -127 -3 -43 -1 -58
9 -58 10 0 13 27 13 119 0 65 3 133 6 150 8 37 -9 42 -30 9z"/>
<path d="M1251 811 c-10 -7 -11 -18 -5 -45 11 -46 26 -48 38 -6 11 36 -9 66
-33 51z"/>
<path d="M298 538 c0 -13 0 -32 0 -43 2 -19 1 -19 -16 2 -17 22 -17 22 -42 3
-14 -11 -33 -20 -42 -20 -34 0 -48 -12 -42 -35 3 -14 -7 -52 -26 -99 -18 -43
-30 -79 -27 -82 2 -3 23 29 46 70 41 76 95 146 112 146 5 0 36 -41 70 -92 75
-114 99 -144 99 -127 0 7 -27 55 -61 105 -63 96 -64 100 -43 177 4 11 0 17
-10 17 -9 0 -17 -9 -18 -22z m-88 -82 c0 -3 -4 -8 -10 -11 -5 -3 -10 -1 -10 4
0 6 5 11 10 11 6 0 10 -2 10 -4z"/>
<path d="M747 523 c-9 -21 -27 -50 -39 -64 -27 -30 -231 -195 -250 -202 -10
-3 -11 -8 0 -26 17 -29 16 -31 -18 -31 -33 0 -41 8 -106 95 -34 47 -44 69 -44
101 0 22 -2 43 -5 46 -3 3 -19 -7 -36 -23 l-31 -29 44 -43 c49 -51 113 -137
101 -138 -66 -5 -172 5 -210 22 -25 11 -47 18 -49 16 -15 -15 -54 -81 -50 -85
3 -2 31 0 62 7 32 6 125 11 207 11 131 0 151 -2 163 -17 13 -17 13 -17 14 0 0
14 9 17 50 17 54 0 53 1 50 -66 -2 -54 16 -65 25 -16 8 39 8 239 0 251 -3 7
30 37 96 89 14 10 34 3 125 -44 175 -90 296 -155 344 -186 l45 -28 -135 2
c-74 1 -165 4 -202 6 l-68 4 0 54 c0 34 -4 53 -10 49 -5 -3 -10 -29 -10 -56 0
-76 -24 -59 -28 20 -4 80 -22 70 -22 -12 0 -86 -23 -60 -28 33 -5 89 -22 81
-22 -10 0 -50 -4 -69 -15 -73 -22 -9 -27 8 -23 80 2 39 -1 66 -7 67 -6 1 -11
-54 -13 -141 -2 -93 1 -143 8 -143 5 0 10 21 10 48 0 26 5 54 10 62 9 13 12
12 25 -4 8 -11 15 -35 15 -53 0 -18 5 -33 10 -33 6 0 10 20 10 45 0 25 5 45
10 45 6 0 10 -9 10 -20 0 -11 5 -20 10 -20 6 0 10 9 10 20 0 22 25 28 33 7 4
-9 7 -9 14 0 7 10 58 11 238 3 133 -6 232 -7 238 -1 13 13 -92 73 -391 226
-62 32 -117 66 -122 76 -6 10 -10 36 -10 58 0 51 -11 52 -33 4z m17 -48 c3 -8
1 -15 -4 -15 -6 0 -10 7 -10 15 0 8 2 15 4 15 2 0 6 -7 10 -15z m-494 -85 c0
-5 -5 -10 -11 -10 -5 0 -7 5 -4 10 3 6 8 10 11 10 2 0 4 -4 4 -10z m338 -117
l-3 -68 -52 -3 c-59 -3 -65 5 -36 48 23 35 75 90 85 90 5 0 8 -30 6 -67z
m-474 -59 c20 -8 11 -24 -15 -24 -19 0 -25 11 -12 23 8 8 8 8 27 1z"/>
<path d="M1344 185 c-8 -20 13 -45 37 -45 14 0 19 7 19 30 0 25 -4 30 -25 30
-14 0 -28 -7 -31 -15z"/>
</g>
</svg>
