<?xml version="1.0" standalone="no"?>
<!DOCTYPE svg PUBLIC "-//W3C//DTD SVG 20010904//EN"
 "http://www.w3.org/TR/2001/REC-SVG-20010904/DTD/svg10.dtd">
<svg version="1.0" xmlns="http://www.w3.org/2000/svg"
 width="134.000000pt" height="310.000000pt" viewBox="0 0 134.000000 310.000000"
 preserveAspectRatio="xMidYMid meet">
<metadata>
Created by potrace 1.16, written by Peter Selinger 2001-2019
</metadata>
<g transform="translate(0.000000,310.000000) scale(0.100000,-0.100000)"
fill="#000000" stroke="none">
<path d="M265 3060 c-6 -10 -94 -68 -177 -119 -43 -26 -44 -28 -21 -53 15 -17
15 -20 -7 -43 -13 -14 -22 -26 -19 -28 2 -1 26 -13 53 -25 54 -25 146 -100
146 -119 0 -31 22 -19 54 29 43 65 121 143 130 130 4 -6 20 -5 43 4 21 7 48
13 61 14 19 0 22 -5 22 -43 0 -85 13 -196 22 -191 6 4 6 53 2 120 -5 83 -4
114 5 114 7 0 11 -27 12 -77 1 -105 17 -143 20 -48 2 39 3 81 4 94 0 14 6 26
13 29 9 3 12 -21 12 -92 0 -52 4 -98 10 -101 6 -4 10 28 10 89 0 54 4 98 10
101 7 4 10 -23 9 -80 -1 -47 1 -88 4 -91 3 -3 9 35 12 85 4 50 11 91 16 91 11
0 11 -2 9 -102 -1 -49 3 -78 9 -78 7 0 11 24 11 59 0 32 3 73 6 90 6 30 8 31
60 31 30 0 54 5 54 10 0 6 -25 10 -56 10 l-57 0 6 48 c3 26 9 62 13 81 7 33 6
34 -20 29 -14 -3 -29 -1 -32 4 -13 21 -24 -8 -25 -65 0 -34 -5 -71 -10 -82 -6
-14 -8 3 -6 55 2 64 0 75 -15 78 -16 3 -17 -4 -11 -72 5 -68 4 -76 -11 -76
-16 0 -17 9 -14 72 3 65 1 73 -16 76 -17 4 -18 -1 -12 -52 8 -59 2 -96 -16
-96 -7 0 -9 24 -6 67 3 44 0 77 -9 93 -9 17 -13 20 -13 8 0 -9 -5 -18 -12 -20
-10 -4 -10 -13 0 -45 7 -22 12 -55 12 -73 l0 -32 -61 5 c-52 4 -66 10 -95 38
-18 18 -48 61 -66 96 -31 60 -49 75 -63 53z m25 -30 c0 -5 -2 -10 -4 -10 -3 0
-8 5 -11 10 -3 6 -1 10 4 10 6 0 11 -4 11 -10z m44 -87 l76 -77 -67 -68 c-37
-37 -71 -68 -76 -68 -4 0 -7 19 -5 43 3 41 4 42 43 47 30 4 35 7 22 13 -10 4
-30 7 -44 7 -39 0 -26 34 15 38 40 4 42 22 2 22 -28 0 -30 3 -30 35 0 31 -3
35 -25 35 -24 0 -25 -2 -19 -37 l7 -36 -32 6 c-28 6 -31 4 -31 -19 0 -23 3
-24 35 -18 29 5 35 3 35 -11 0 -14 -6 -17 -34 -12 -28 4 -35 2 -39 -13 -7 -26
2 -31 40 -24 31 6 33 5 34 -22 0 -16 2 -37 4 -46 2 -10 -1 -18 -5 -18 -11 0
-140 126 -140 137 0 31 120 163 149 163 4 0 42 -35 85 -77z m396 -18 c0 -44
-3 -55 -16 -55 -11 0 -14 5 -10 16 3 9 6 33 6 55 0 21 5 39 10 39 6 0 10 -25
10 -55z m-625 -15 c-3 -5 -11 -10 -16 -10 -6 0 -7 5 -4 10 3 6 11 10 16 10 6
0 7 -4 4 -10z m-10 -80 c3 -5 1 -10 -4 -10 -6 0 -11 5 -11 10 0 6 2 10 4 10 3
0 8 -4 11 -10z"/>
<path d="M977 2961 c-69 -67 -81 -91 -49 -91 25 0 34 -11 22 -26 -8 -9 -2 -21
20 -45 18 -19 46 -54 63 -78 37 -54 48 -38 19 28 -12 25 -28 63 -36 83 -11 28
-19 36 -31 32 -13 -5 -14 -2 -5 20 17 47 38 81 59 100 20 18 29 47 14 45 -5
-1 -38 -31 -76 -68z m-17 -61 c0 -5 -5 -10 -11 -10 -5 0 -7 5 -4 10 3 6 8 10
11 10 2 0 4 -4 4 -10z m40 -81 c0 -5 -4 -9 -10 -9 -5 0 -10 7 -10 16 0 8 5 12
10 9 6 -3 10 -10 10 -16z"/>
<path d="M1247 2753 c-9 -14 -2 -73 8 -75 14 -1 38 50 31 68 -6 15 -32 19 -39
7z"/>
<path d="M335 2420 c-10 -11 -23 -20 -28 -20 -6 0 -44 -20 -86 -44 -42 -24
-96 -55 -121 -69 -50 -27 -61 -55 -31 -74 18 -11 23 -8 48 27 22 32 166 140
186 140 8 0 107 -168 107 -181 0 -8 -29 -43 -64 -79 -57 -58 -63 -67 -53 -87
13 -30 28 -25 40 13 6 16 30 55 55 87 33 42 48 54 57 47 9 -7 21 -7 39 0 56
21 63 16 71 -55 4 -37 11 -63 16 -59 5 3 7 33 3 70 -4 41 -3 64 3 64 6 0 13
-27 17 -60 4 -33 11 -60 17 -60 6 0 7 22 3 60 -4 38 -3 60 3 60 12 0 23 -47
23 -97 0 -23 4 -32 11 -27 8 4 9 26 5 65 -5 48 -3 59 9 59 12 0 15 -13 15 -56
0 -71 19 -63 22 9 l1 52 6 -63 c8 -81 26 -86 26 -7 l0 60 130 3 130 3 14 -33
c53 -121 74 -159 82 -147 8 16 17 269 9 269 -3 0 -25 -17 -48 -37 l-43 -38
-135 3 -134 3 0 49 c0 60 -19 79 -21 21 -2 -54 -3 -58 -11 -67 -5 -4 -8 16 -8
44 0 28 -4 54 -10 57 -6 4 -10 -15 -10 -49 0 -43 -4 -56 -15 -56 -12 0 -13 14
-9 81 5 66 4 81 -7 77 -10 -3 -15 -27 -17 -81 -2 -47 -7 -77 -14 -77 -7 0 -8
25 -4 81 6 65 5 80 -6 77 -8 -3 -14 -22 -14 -49 -1 -24 -2 -59 -3 -76 0 -18
-6 -33 -12 -33 -9 0 -10 23 -6 81 6 71 5 80 -9 75 -9 -3 -17 -6 -19 -6 -2 0
-1 -33 2 -74 l6 -74 -62 -4 -62 -3 -35 63 c-28 50 -35 72 -33 107 4 54 -2 61
-26 35z m-235 -165 c0 -8 -7 -15 -15 -15 -26 0 -18 20 13 29 1 1 2 -6 2 -14z
m978 -137 l-3 -43 -28 60 -28 60 28 22 28 23 3 -40 c2 -22 2 -59 0 -82z"/>
<path d="M262 2290 c-18 -8 -21 -15 -16 -34 5 -21 2 -25 -23 -28 -16 -2 -29
-10 -31 -20 -3 -14 3 -16 32 -11 23 3 36 2 36 -5 0 -6 -12 -12 -27 -14 -36 -4
-38 -33 -3 -33 20 0 26 -6 28 -27 2 -16 0 -28 -4 -28 -16 0 -115 72 -125 91
-10 20 -11 20 -30 3 -28 -25 -23 -41 13 -48 17 -3 52 -18 77 -33 65 -38 78
-37 85 9 5 32 10 38 31 38 14 0 25 5 25 10 0 6 -11 10 -25 10 -18 0 -25 5 -25
20 0 13 7 20 19 20 11 0 23 5 26 10 4 6 -5 10 -20 10 -22 0 -26 3 -20 18 22
53 19 58 -23 42z"/>
<path d="M1244 2135 c-3 -8 -2 -20 2 -27 5 -7 7 -21 6 -30 -2 -10 1 -18 7 -18
17 0 33 40 27 66 -7 26 -33 32 -42 9z"/>
<path d="M190 1719 c-36 -27 -74 -53 -85 -59 -48 -23 -56 -35 -44 -69 13 -38
22 -39 37 -6 15 33 101 125 116 125 18 0 146 -129 146 -146 0 -5 -34 -46 -81
-98 l-36 -40 -52 33 c-28 19 -57 41 -64 50 -19 27 -37 34 -52 21 -19 -16 -19
-40 -2 -40 30 0 139 -64 163 -96 15 -19 30 -34 34 -34 4 0 10 16 13 35 3 19
23 59 43 89 l38 54 66 4 c36 3 69 3 74 0 4 -2 5 -31 2 -63 -4 -35 -3 -59 2
-59 5 0 13 29 17 65 3 36 11 65 16 65 5 0 9 -31 9 -70 0 -40 4 -70 10 -70 6 0
10 30 10 71 0 62 2 70 18 67 12 -2 18 -15 21 -48 l4 -45 12 45 13 45 1 -42 c1
-54 21 -57 21 -3 0 22 5 40 10 40 6 0 10 -11 10 -24 0 -38 12 -86 20 -81 4 2
5 28 2 56 l-5 52 109 -7 c60 -4 123 -7 140 -6 24 0 36 -7 55 -33 35 -49 129
-150 134 -145 3 3 -15 46 -40 97 l-45 92 22 32 c12 18 37 48 55 67 63 68 33
69 -46 2 -113 -97 -102 -93 -251 -85 l-132 6 5 49 c5 36 3 48 -6 45 -7 -2 -13
-25 -15 -51 -4 -65 -22 -48 -22 22 0 71 -17 58 -23 -18 -3 -55 -3 -54 -5 13
-2 84 -20 88 -24 5 -2 -48 -7 -63 -18 -63 -12 0 -15 13 -13 68 1 37 -2 67 -7
67 -12 0 -22 -52 -18 -92 2 -20 -2 -33 -11 -36 -11 -4 -13 10 -9 67 3 53 0 71
-9 71 -9 0 -13 -20 -13 -70 0 -80 3 -78 -91 -59 -52 10 -57 14 -94 72 -22 33
-45 73 -52 89 -7 15 -13 28 -15 27 -2 0 -32 -23 -68 -50z m70 1 c0 -5 -2 -10
-4 -10 -3 0 -8 5 -11 10 -3 6 -1 10 4 10 6 0 11 -4 11 -10z m-167 -105 c-3 -9
-8 -14 -10 -11 -3 3 -2 9 2 15 9 16 15 13 8 -4z m943 -61 c-3 -8 6 -38 20 -66
30 -59 17 -55 -27 8 -25 36 -28 48 -19 59 16 20 34 19 26 -1z"/>
<path d="M207 1644 c-4 -4 -4 -17 -1 -29 5 -19 2 -21 -25 -17 -27 4 -31 1 -31
-18 0 -20 4 -22 30 -16 25 5 30 2 30 -14 0 -16 -4 -18 -24 -10 -27 10 -36 5
-36 -22 0 -21 1 -21 34 -8 24 9 26 8 26 -20 0 -17 5 -30 10 -30 6 0 10 13 10
28 0 24 6 30 38 40 l37 11 -37 -3 c-31 -2 -38 1 -38 16 0 13 8 18 30 18 38 0
40 18 3 22 -24 3 -28 7 -25 31 3 26 -14 37 -31 21z"/>
<path d="M1262 1455 c1 -35 5 -45 16 -43 18 3 36 52 28 73 -3 8 -14 15 -25 15
-16 0 -19 -7 -19 -45z"/>
<path d="M270 1198 c-22 -28 -23 -32 -8 -41 14 -9 10 -15 -25 -42 -23 -18 -68
-49 -99 -69 -52 -33 -57 -39 -46 -56 10 -15 9 -22 -5 -38 -17 -19 -17 -20 25
-41 55 -27 152 -116 143 -131 -7 -11 11 -40 25 -40 4 0 19 18 34 40 14 22 55
71 91 109 36 37 65 71 65 75 0 4 -34 47 -75 97 -66 78 -75 95 -75 129 0 49
-15 51 -50 8z m102 -144 c35 -42 65 -81 67 -86 3 -10 -127 -148 -141 -148 -4
0 -5 21 -3 48 2 26 4 53 5 60 0 7 14 12 35 12 19 0 35 5 35 11 0 7 -14 10 -35
7 -32 -4 -36 -2 -33 16 2 16 12 22 36 24 37 4 34 22 -4 22 -20 0 -24 4 -22 23
3 24 -1 27 -32 27 -17 0 -19 -4 -14 -26 7 -26 6 -26 -35 -19 -31 5 -41 4 -41
-7 0 -30 16 -39 45 -28 22 8 30 8 37 -2 14 -23 9 -28 -30 -28 -43 0 -53 -6
-45 -26 4 -10 16 -12 44 -8 l39 7 -4 -54 c-3 -30 -5 -58 -6 -64 0 -5 -34 26
-75 69 -71 76 -73 80 -60 105 19 38 142 141 167 141 4 0 36 -34 70 -76z"/>
<path d="M680 1060 l0 -70 -46 0 c-49 0 -120 17 -141 33 -10 7 -13 -1 -13 -37
0 -52 -3 -51 95 -33 103 19 105 18 105 -64 0 -39 4 -69 10 -69 6 0 10 32 10
75 0 60 3 75 15 75 11 0 15 -12 15 -49 0 -28 5 -53 10 -56 6 -4 10 15 10 49 0
31 5 56 10 56 6 0 10 -31 10 -74 0 -41 5 -78 10 -81 6 -4 10 23 10 74 0 45 4
81 9 81 5 0 12 -43 16 -95 4 -52 11 -92 16 -90 4 3 5 46 2 95 -3 62 -1 90 6
90 7 0 11 -29 11 -80 0 -47 4 -80 10 -80 6 0 10 33 10 79 l0 79 82 7 c45 4 84
4 85 -1 2 -5 31 -53 66 -106 34 -53 67 -105 73 -115 16 -25 27 -11 15 19 -5
13 -21 61 -34 107 l-26 82 60 70 c33 38 57 74 53 80 -4 7 -14 4 -28 -9 -11
-11 -50 -38 -85 -61 -56 -35 -73 -41 -120 -42 -31 0 -76 -3 -100 -6 l-44 -5 6
71 c6 70 6 71 -19 71 -13 0 -24 -5 -24 -11 0 -5 -4 -7 -10 -4 -6 4 -10 -18
-10 -59 0 -37 -4 -66 -10 -66 -6 0 -10 27 -10 60 0 33 -4 60 -10 60 -6 0 -10
-27 -10 -60 0 -79 -18 -78 -22 2 -2 42 -7 63 -17 66 -11 4 -13 -8 -9 -62 5
-52 3 -66 -8 -66 -11 0 -14 17 -14 70 0 40 -4 70 -10 70 -6 0 -10 -30 -10 -70z
m163 -17 c4 -31 2 -53 -3 -53 -6 0 -10 26 -10 57 0 68 5 67 13 -4z m291 -50
l-28 -36 17 -47 c25 -70 21 -71 -18 -6 -19 32 -35 61 -35 65 1 8 72 59 84 60
4 1 -4 -15 -20 -36z m-574 -14 c0 -9 -51 -22 -57 -15 -3 2 -2 9 1 14 6 11 56
11 56 1z"/>
<path d="M1266 823 c4 -21 9 -40 11 -43 8 -9 33 34 33 57 0 18 -6 23 -25 23
-24 0 -26 -2 -19 -37z"/>
<path d="M690 784 c0 -8 5 -12 10 -9 6 4 8 11 5 16 -9 14 -15 11 -15 -7z"/>
<path d="M292 518 c-21 -38 -21 -44 -7 -54 13 -10 4 -18 -57 -50 -40 -21 -92
-47 -115 -58 -36 -17 -42 -23 -37 -43 4 -13 1 -30 -6 -38 -15 -19 -17 -17 45
-44 49 -22 185 -100 185 -107 0 -2 -13 -10 -30 -19 -34 -18 -38 -33 -12 -42 9
-4 22 -14 29 -22 10 -14 14 -10 28 24 11 24 48 69 96 113 44 41 79 82 79 91 0
10 -25 53 -55 97 -31 43 -67 105 -82 137 -14 31 -28 57 -32 57 -3 0 -16 -19
-29 -42z m46 -33 c17 -36 15 -41 -8 -20 -20 18 -27 45 -12 45 5 0 14 -11 20
-25z m22 -75 c20 -16 55 -55 76 -86 l39 -56 -69 -64 c-37 -35 -72 -64 -76 -64
-9 0 -20 52 -13 62 2 5 18 8 35 8 38 0 34 7 -7 13 -42 5 -45 27 -3 27 18 0 40
5 48 10 11 7 2 10 -31 10 l-47 0 8 35 c9 39 3 47 -29 38 -16 -4 -20 -10 -15
-22 20 -49 19 -51 -35 -51 -40 0 -51 -3 -51 -16 0 -14 8 -16 50 -10 40 5 50 4
50 -8 0 -9 -14 -15 -42 -18 -46 -5 -87 12 -123 52 -18 20 -18 21 1 47 16 21
175 123 192 123 2 0 21 -13 42 -30z m-70 -230 c0 -17 -3 -18 -25 -8 -14 6 -25
15 -25 20 0 4 11 8 25 8 18 0 25 -5 25 -20z"/>
<path d="M604 473 c3 -16 9 -61 12 -100 l7 -73 -30 0 c-16 0 -38 7 -49 15 -33
25 -44 18 -44 -25 0 -40 14 -52 36 -31 5 5 25 11 44 13 l35 3 3 -73 c4 -92 22
-94 22 -2 0 63 2 70 20 70 18 0 20 -7 20 -60 0 -33 4 -60 10 -60 6 0 10 28 10
65 0 37 4 65 10 65 6 0 10 -20 10 -45 0 -25 5 -45 10 -45 6 0 10 18 10 40 0
22 5 40 10 40 6 0 10 -21 10 -46 0 -27 4 -43 10 -39 6 3 10 24 10 46 0 53 23
48 31 -7 l5 -39 6 35 5 35 1 -32 c1 -18 7 -33 12 -33 6 0 10 48 10 125 0 70
-4 125 -9 125 -5 0 -12 -8 -14 -17 -3 -11 -5 -7 -6 10 -1 17 -5 26 -12 22 -6
-4 -9 -38 -8 -83 1 -50 -2 -77 -9 -80 -9 -3 -12 20 -12 77 0 47 -4 81 -10 81
-6 0 -10 -32 -10 -75 0 -50 -4 -75 -11 -75 -9 0 -10 23 -6 80 3 44 2 80 -3 80
-12 0 -20 -39 -20 -102 0 -32 -4 -58 -10 -58 -16 0 -12 96 6 140 19 46 18 47
-16 52 l-24 3 -1 -100 c0 -82 -3 -100 -15 -100 -12 0 -15 15 -15 75 0 41 4 87
9 103 8 26 6 27 -24 27 -30 0 -32 -2 -26 -27z"/>
<path d="M1165 380 c-33 -5 -63 -6 -67 -4 -18 11 -17 -20 1 -40 35 -38 27 -48
-36 -46 -134 4 -203 0 -203 -11 0 -9 37 -10 135 -5 l134 7 28 -40 c15 -22 45
-67 66 -100 34 -55 57 -76 57 -53 0 5 -28 50 -61 101 l-62 92 29 32 c16 17 35
35 42 40 13 9 17 38 5 36 -5 -1 -35 -5 -68 -9z m35 -19 c0 -3 -12 -18 -27 -33
l-27 -28 -12 22 c-11 20 -9 24 14 34 29 11 52 14 52 5z"/>
</g>
</svg>
