<?xml version="1.0" standalone="no"?>
<!DOCTYPE svg PUBLIC "-//W3C//DTD SVG 20010904//EN"
 "http://www.w3.org/TR/2001/REC-SVG-20010904/DTD/svg10.dtd">
<svg version="1.0" xmlns="http://www.w3.org/2000/svg"
 width="131.000000pt" height="209.000000pt" viewBox="0 0 131.000000 209.000000"
 preserveAspectRatio="xMidYMid meet">
<metadata>
Created by potrace 1.16, written by Peter Selinger 2001-2019
</metadata>
<g transform="translate(0.000000,209.000000) scale(0.100000,-0.100000)"
fill="#000000" stroke="none">
<path d="M612 2038 c-21 -27 -14 -44 41 -101 31 -32 57 -62 57 -67 0 -4 -6
-20 -14 -34 l-13 -26 -26 33 c-14 19 -36 53 -47 76 -12 22 -26 41 -31 41 -10
0 -35 -48 -28 -53 53 -39 89 -71 89 -78 0 -6 -23 -9 -52 -7 -51 3 -53 4 -56
33 -2 17 1 54 8 83 6 30 10 55 8 57 -11 11 -48 -10 -48 -26 0 -21 16 -26 23
-6 4 8 6 7 6 -3 1 -9 -3 -20 -7 -25 -5 -6 -7 -43 -4 -82 4 -67 6 -73 26 -73
13 0 25 3 29 6 3 4 25 8 49 9 38 3 45 0 75 -33 18 -20 32 -32 33 -26 0 6 -7
17 -15 24 -21 18 -19 33 4 25 11 -3 22 -2 25 3 3 5 28 9 55 11 l51 2 0 -66 c0
-36 4 -65 10 -65 5 0 7 26 3 65 -5 56 -4 65 11 65 13 0 16 -11 16 -55 0 -33 4
-55 11 -55 7 0 10 19 7 52 -2 44 0 53 15 56 14 3 17 -4 17 -47 0 -30 4 -51 11
-51 7 0 10 18 7 47 -2 40 0 48 15 51 13 3 18 -2 17 -15 -1 -10 -2 -35 -1 -55
2 -60 21 -44 21 17 l0 55 128 -1 c154 -2 172 -1 172 9 0 4 -17 15 -38 24 -108
49 -172 78 -222 99 -30 13 -81 41 -114 63 l-60 38 -20 -28 c-34 -47 -88 -104
-109 -115 -22 -13 -33 -1 -88 98 -27 48 -38 61 -47 51z m298 -53 c18 -10 20
-14 8 -15 -23 0 -48 11 -48 21 0 12 11 11 40 -6z m77 -59 c145 -50 230 -86
244 -103 11 -13 5 -14 -52 -9 -35 2 -88 5 -116 5 l-53 1 0 40 c0 43 0 43 -24
34 -13 -5 -15 -14 -10 -41 5 -28 4 -35 -7 -31 -8 3 -14 19 -14 39 0 19 -3 35
-7 37 -25 8 -29 0 -23 -38 6 -34 4 -40 -10 -40 -15 0 -17 6 -11 39 5 34 3 39
-17 45 -46 12 -50 9 -43 -39 l7 -45 -40 0 c-46 0 -48 6 -25 53 28 54 58 86 81
86 13 1 67 -14 120 -33z m-107 -78 c0 -21 -3 -29 -10 -22 -5 5 -7 19 -4 32 9
31 14 27 14 -10z"/>
<path d="M221 2017 c-6 -6 -11 -22 -11 -35 0 -23 -2 -24 -72 -21 -68 3 -73 2
-70 -16 1 -11 2 -69 2 -129 -1 -100 1 -108 17 -101 10 4 34 9 53 11 73 10 85
15 69 25 -7 5 -31 9 -52 9 -60 0 -41 24 21 28 l52 3 0 -65 c0 -37 4 -66 10
-66 6 0 9 31 7 76 l-2 76 35 13 c19 7 56 16 83 20 74 10 55 25 -33 25 -87 0
-86 0 -71 60 22 87 22 87 -4 92 -13 3 -29 0 -34 -5z m28 -49 c0 -31 -1 -31
-10 -10 -5 13 -7 28 -3 33 10 16 14 9 13 -23z m-74 -32 c38 5 45 4 45 -10 0
-13 -11 -16 -56 -16 -34 0 -53 4 -49 10 3 6 -3 10 -15 10 -12 0 -18 5 -15 10
4 7 13 6 26 -1 11 -6 38 -7 64 -3z m53 -62 c-2 -8 -6 -15 -10 -15 -5 1 -33 1
-65 1 -60 0 -64 7 -11 20 58 14 90 12 86 -6z m2 -49 c0 -12 -14 -15 -67 -15
-69 0 -77 7 -21 20 56 13 88 11 88 -5z m-120 -79 c0 -11 -19 -15 -25 -6 -3 5
1 10 9 10 9 0 16 -2 16 -4z"/>
<path d="M975 1538 c-46 -47 -173 -158 -242 -211 l-61 -47 -41 48 c-61 71 -74
103 -61 153 6 23 10 43 7 45 -5 5 -111 -74 -115 -86 -2 -6 10 -10 27 -10 32 0
45 -11 115 -100 39 -50 35 -60 -26 -60 -45 0 -78 39 -78 94 0 44 -8 45 -46 5
-28 -30 -28 -32 -10 -43 10 -6 31 -21 45 -33 l26 -22 -47 -1 -48 0 0 71 c0 55
4 77 20 99 24 34 19 38 -38 32 -45 -4 -54 -20 -22 -40 17 -10 20 -23 20 -86
l0 -73 -72 -6 c-40 -2 -76 -3 -80 0 -5 2 -8 28 -8 56 0 40 6 62 25 90 14 20
22 37 18 38 -18 2 -88 -3 -92 -7 -3 -2 1 -10 7 -16 7 -7 12 -15 12 -20 0 -10
-54 0 -102 17 l-36 14 3 -42 c2 -23 4 -48 4 -54 1 -9 22 -13 71 -13 l70 0 0
-47 0 -48 -65 0 c-36 0 -64 -4 -62 -9 1 -5 30 -8 65 -7 l62 2 0 -50 c0 -70 16
-65 19 6 1 31 3 58 4 60 2 1 68 5 148 9 l145 7 23 -29 c44 -55 133 -146 138
-140 6 6 -91 123 -122 146 -19 14 -19 15 10 21 59 13 74 9 102 -23 16 -17 40
-45 55 -62 14 -17 30 -27 34 -23 5 4 4 11 -1 15 -6 4 -27 28 -48 55 l-38 47
96 0 96 0 -6 -40 c-3 -23 -2 -40 4 -40 8 0 21 105 26 218 3 80 62 104 128 51
23 -17 24 -24 20 -86 -2 -38 -5 -75 -6 -83 -1 -8 3 -17 8 -20 6 -3 11 11 13
30 1 19 5 55 8 79 l6 43 24 -23 c13 -12 27 -20 30 -16 3 3 -21 31 -55 63 -55
50 -61 60 -61 95 0 21 -3 39 -7 39 -5 0 -21 -15 -38 -32z m25 -28 c0 -11 -7
-20 -15 -20 -18 0 -19 12 -3 28 16 16 18 15 18 -8z m-450 -50 c0 -11 -4 -20
-9 -20 -14 0 -23 18 -16 30 10 17 25 11 25 -10z m-300 -34 c0 -3 -4 -8 -10
-11 -5 -3 -10 -1 -10 4 0 6 5 11 10 11 6 0 10 -2 10 -4z m633 -63 c-3 -32 -6
-64 -8 -70 -5 -14 -145 -19 -145 -5 0 4 18 20 40 36 22 16 54 44 72 63 17 18
35 33 38 33 4 0 5 -26 3 -57z m-663 2 c0 -23 -4 -25 -42 -24 -24 1 -54 4 -68
8 l-25 7 30 17 c17 9 47 16 68 17 33 0 37 -3 37 -25z m260 -21 c0 -8 -5 -12
-10 -9 -6 4 -8 11 -5 16 9 14 15 11 15 -7z"/>
<path d="M925 1418 c-2 -7 -6 -62 -10 -123 -5 -81 -4 -107 5 -99 12 12 27 234
16 234 -4 0 -8 -6 -11 -12z"/>
<path d="M969 1429 c0 -2 -2 -33 -4 -69 -2 -36 -4 -69 -5 -75 -6 -27 1 -147 8
-141 4 4 7 18 8 29 3 81 5 97 14 97 6 0 10 -21 11 -47 0 -27 4 -57 8 -68 8
-20 21 118 21 222 0 79 -19 64 -22 -19 -2 -49 -7 -73 -16 -76 -11 -3 -13 11
-11 66 2 39 0 74 -4 78 -4 4 -7 5 -8 3z"/>
<path d="M1170 1350 c0 -7 11 -21 25 -32 42 -33 32 -41 -39 -34 -43 4 -67 3
-71 -4 -4 -6 -5 -14 -2 -16 10 -10 178 9 174 19 -6 18 -87 80 -87 67z"/>
<path d="M74 1273 c7 -7 108 -5 115 3 2 2 -24 4 -59 4 -35 0 -60 -3 -56 -7z"/>
<path d="M100 1170 c0 -5 4 -10 9 -10 6 0 13 5 16 10 3 6 -1 10 -9 10 -9 0
-16 -4 -16 -10z"/>
<path d="M970 984 c0 -4 7 -16 17 -26 9 -10 11 -18 5 -18 -6 0 -16 9 -22 21
-11 19 -13 19 -63 -24 -59 -50 -175 -127 -191 -127 -16 0 -50 58 -70 118 -17
51 -19 53 -37 36 -10 -9 -19 -24 -19 -31 0 -8 27 -45 60 -82 33 -37 60 -71 60
-74 0 -4 -18 -7 -39 -7 -34 0 -44 6 -71 40 -27 34 -31 46 -26 75 8 40 -4 45
-29 13 -16 -22 -16 -22 -1 4 22 37 20 50 -7 46 -16 -2 -22 -10 -23 -28 -1 -14
-7 -43 -13 -63 -16 -48 -7 -61 11 -16 l14 32 37 -45 c20 -25 37 -47 37 -49 0
-3 -25 -4 -55 -4 -30 0 -55 3 -55 8 0 4 -13 7 -30 7 -16 0 -30 -4 -30 -8 0 -5
-13 -8 -30 -7 -16 1 -49 2 -72 3 -69 3 -71 7 -52 95 10 43 15 80 12 82 -3 3
-17 0 -32 -6 -17 -8 -26 -20 -26 -36 0 -23 -2 -24 -77 -21 -65 3 -77 1 -74
-12 2 -8 4 -27 4 -42 0 -28 1 -28 56 -22 31 3 66 7 79 10 19 4 22 0 22 -24 l0
-28 -52 7 c-91 13 -100 12 -96 -13 2 -16 9 -22 23 -20 125 16 124 16 130 -11
4 -14 4 -30 1 -35 -3 -5 -37 -3 -82 5 -42 8 -77 13 -79 11 -2 -2 -7 -16 -11
-32 -6 -26 -5 -28 12 -21 10 4 52 10 91 13 l73 4 0 -26 c0 -14 5 -26 11 -26 7
0 8 17 4 49 -7 60 0 65 94 76 45 5 66 4 71 -5 5 -8 27 -9 86 -2 43 5 86 7 94
5 8 -2 31 -26 50 -53 32 -46 50 -61 50 -42 0 4 -14 25 -31 47 l-30 40 42 3
c38 3 46 -1 76 -33 19 -21 37 -35 40 -32 3 3 -4 16 -16 28 -30 32 -26 41 16
37 l37 -3 -3 -47 c-1 -28 2 -48 8 -48 5 0 11 21 13 47 2 25 8 48 15 50 8 3 10
-14 6 -59 -4 -44 -2 -60 5 -53 6 6 12 32 14 59 2 30 8 51 16 54 11 3 13 -10
12 -59 -3 -81 -2 -87 10 -69 5 8 10 39 10 68 0 32 4 52 11 52 8 0 10 -18 5
-59 -4 -36 -3 -62 3 -65 6 -4 11 18 13 55 2 37 8 64 15 66 9 3 11 -15 8 -69
-4 -68 -4 -69 5 -23 19 104 7 95 125 95 58 0 105 3 105 6 0 3 -14 17 -32 32
-18 15 -75 68 -126 117 -92 89 -112 104 -112 89z m-340 -65 c0 -6 -4 -7 -10
-4 -5 3 -10 11 -10 16 0 6 5 7 10 4 6 -3 10 -11 10 -16z m378 1 c20 -11 71
-51 112 -90 82 -76 82 -75 -28 -64 l-60 7 5 33 c3 20 1 34 -4 34 -19 0 -32
-26 -26 -48 3 -14 1 -22 -7 -22 -9 0 -11 12 -7 41 4 32 2 39 -9 35 -7 -3 -16
-1 -20 5 -4 6 -13 4 -25 -7 -18 -16 -19 -16 -19 7 l-1 24 -20 -24 c-14 -17
-18 -32 -14 -52 3 -15 1 -30 -4 -34 -14 -8 -15 44 -1 79 6 17 6 27 -1 32 -14
8 50 63 74 64 10 0 34 -9 55 -20z m-748 -30 l-8 -35 -1 31 c-1 17 2 34 6 37
11 12 12 3 3 -33z m-22 -34 c4 -17 -1 -19 -52 -13 -76 8 -92 20 -36 28 66 9
84 6 88 -15z m610 -49 c2 -25 -1 -37 -10 -38 -55 -5 -78 -4 -78 3 0 15 63 79
74 75 6 -2 12 -20 14 -40z m82 -17 c0 -16 -4 -30 -10 -30 -5 0 -10 14 -10 30
0 17 5 30 10 30 6 0 10 -13 10 -30z m40 0 c0 -11 -4 -20 -10 -20 -5 0 -10 9
-10 20 0 11 5 20 10 20 6 0 10 -9 10 -20z m-215 0 c-3 -5 -10 -10 -16 -10 -5
0 -9 5 -9 10 0 6 7 10 16 10 8 0 12 -4 9 -10z"/>
<path d="M798 402 c-29 -27 -82 -66 -118 -88 -36 -21 -67 -43 -68 -47 -4 -9
-82 97 -82 111 0 10 -60 45 -66 40 -1 -2 -9 -19 -17 -38 -8 -19 -32 -59 -53
-87 -35 -47 -43 -53 -76 -53 -36 0 -37 1 -43 48 -9 65 -12 72 -31 72 -16 0
-16 -12 2 -73 5 -17 0 -19 -53 -16 -33 2 -59 -1 -61 -6 -1 -6 26 -11 63 -13
36 -2 65 -7 65 -12 0 -11 -5 -12 -71 -12 -26 -1 -52 3 -60 7 -15 10 -43 -28
-45 -59 -1 -12 -5 -34 -9 -50 -7 -25 -5 -28 11 -23 11 3 54 9 96 13 66 5 78 4
78 -9 0 -12 -19 -17 -87 -22 -101 -7 -113 -10 -113 -26 0 -7 9 -9 23 -6 61 15
167 19 182 7 13 -11 15 -2 15 69 0 96 -5 93 143 88 l98 -4 40 -43 c22 -23 43
-40 46 -36 4 3 -9 22 -27 41 -18 19 -31 37 -28 40 3 4 22 3 42 0 29 -6 39 -14
53 -46 10 -21 21 -39 26 -39 11 0 8 10 -14 46 l-21 34 44 1 c24 1 60 1 81 2
20 0 37 4 37 8 0 5 -34 9 -75 9 -41 0 -75 4 -75 9 0 8 59 62 133 121 10 8 27
22 38 32 19 15 23 15 64 -7 30 -16 45 -20 48 -12 2 8 10 5 23 -7 10 -11 18
-22 16 -24 -4 -5 94 -59 166 -92 23 -11 42 -22 42 -25 0 -4 -40 -5 -90 -3
l-90 3 0 33 c0 17 -4 32 -10 32 -5 0 -10 -13 -10 -30 0 -47 -20 -35 -21 13
l-2 42 -6 -42 c-11 -65 -21 -63 -21 2 0 69 -17 65 -23 -5 -3 -42 -4 -41 -5 13
-2 68 -19 69 -20 2 -1 -50 -8 -68 -22 -60 -11 7 -1 96 11 109 16 18 9 26 -22
26 -26 0 -30 -3 -24 -17 4 -10 10 -39 12 -65 5 -42 3 -48 -13 -48 -14 0 -15
-3 -6 -12 7 -7 12 -36 12 -65 0 -29 5 -53 10 -53 6 0 10 25 10 55 0 42 3 55
15 55 11 0 15 -14 16 -57 l1 -58 8 48 c12 68 20 70 22 6 l1 -54 6 55 c6 57 27
69 22 13 -1 -19 2 -33 8 -33 6 0 11 15 11 34 0 59 20 53 21 -6 l1 -53 10 50 9
50 110 0 c114 0 141 7 94 25 -30 11 -312 197 -321 211 -11 18 -34 8 -86 -39z
m122 -15 c0 -4 -13 0 -30 10 -16 9 -30 21 -30 26 0 4 14 0 30 -10 17 -9 30
-21 30 -26z m-408 -25 c-16 -5 -15 -22 1 -22 6 -1 29 -23 50 -50 l38 -50 -39
0 c-29 0 -41 5 -46 18 -3 9 -17 34 -31 55 -26 38 -26 39 -6 44 12 3 21 10 21
15 0 5 5 6 12 2 9 -6 9 -9 0 -12z m-42 -87 c18 -19 31 -37 27 -41 -9 -9 -107
7 -107 18 0 11 32 57 41 58 3 0 20 -16 39 -35z m-340 -65 c0 -5 -5 -10 -11
-10 -5 0 -7 5 -4 10 3 6 8 10 11 10 2 0 4 -4 4 -10z m130 -15 c0 -12 -14 -15
-67 -15 -42 0 -63 4 -57 9 8 9 24 11 107 19 9 1 17 -5 17 -13z m0 -44 c0 -5
-34 -11 -75 -13 -70 -3 -98 5 -57 15 33 9 132 7 132 -2z"/>
</g>
</svg>
