<?xml version="1.0" standalone="no"?>
<!DOCTYPE svg PUBLIC "-//W3C//DTD SVG 20010904//EN"
 "http://www.w3.org/TR/2001/REC-SVG-20010904/DTD/svg10.dtd">
<svg version="1.0" xmlns="http://www.w3.org/2000/svg"
 width="139.000000pt" height="147.000000pt" viewBox="0 0 139.000000 147.000000"
 preserveAspectRatio="xMidYMid meet">
<metadata>
Created by potrace 1.16, written by Peter Selinger 2001-2019
</metadata>
<g transform="translate(0.000000,147.000000) scale(0.100000,-0.100000)"
fill="#000000" stroke="none">
<path d="M850 1301 c-25 -26 -64 -60 -86 -75 -33 -21 -41 -32 -37 -49 4 -21 4
-21 -16 3 -11 14 -23 42 -26 63 -4 20 -10 37 -13 37 -4 0 -18 -19 -31 -42 -13
-24 -36 -52 -50 -63 -14 -11 -49 -40 -77 -65 -94 -83 -112 -98 -153 -126 -48
-31 -35 -40 -118 80 -43 62 -48 74 -47 122 0 38 -4 54 -13 54 -7 0 -13 -6 -13
-13 0 -8 -11 -24 -24 -36 -18 -17 -32 -22 -50 -17 -19 5 -26 2 -26 -8 0 -8 5
-18 10 -21 16 -10 12 -215 -5 -245 -18 -32 -18 -40 0 -40 8 0 15 4 15 8 0 16
87 52 124 52 21 0 35 -4 31 -10 -3 -5 10 -31 29 -57 18 -26 46 -72 60 -100 14
-29 31 -53 36 -53 17 0 11 16 -25 79 -38 64 -48 131 -20 131 8 0 20 -10 26
-22 21 -39 102 -148 111 -148 17 0 7 22 -32 74 -22 29 -40 63 -40 74 0 21 5
22 86 22 l85 0 -2 -62 c-2 -41 1 -63 9 -66 8 -2 12 16 12 63 0 58 2 66 17 63
14 -3 18 -14 18 -57 0 -35 5 -56 13 -59 9 -3 12 11 11 52 -1 31 1 59 4 63 14
13 20 -8 18 -58 -2 -70 23 -62 27 9 2 29 8 52 14 52 6 0 8 -20 3 -60 -4 -37
-3 -60 3 -60 5 0 12 27 16 60 5 43 11 60 21 60 11 0 15 -14 15 -55 0 -30 5
-55 10 -55 6 0 10 25 10 55 l0 55 68 1 c197 1 274 0 280 -5 3 -3 -2 -14 -11
-24 -28 -31 -21 -42 31 -42 27 0 73 -11 107 -25 70 -29 65 -28 65 -15 0 6 -29
24 -64 40 -101 45 -120 95 -53 142 29 20 30 20 14 2 -17 -20 -16 -21 9 -33 25
-11 26 -13 9 -31 -16 -17 -16 -20 1 -45 18 -28 34 -19 34 19 0 15 3 16 15 6
20 -16 32 -5 16 14 -10 12 -10 20 3 38 23 32 20 45 -5 22 -17 -16 -22 -16 -29
-4 -17 26 -11 57 10 63 22 6 28 27 8 27 -7 0 -35 -14 -63 -30 -27 -16 -61 -30
-73 -30 -15 0 -26 -7 -29 -19 -5 -18 -18 -13 -141 50 -75 39 -139 72 -141 75
-2 2 2 21 9 41 9 27 35 58 87 102 52 44 71 67 64 74 -7 7 -31 -9 -78 -54 -38
-35 -84 -76 -103 -90 -30 -23 -33 -28 -21 -43 7 -9 9 -16 3 -16 -5 0 -15 7
-22 15 -10 13 -9 23 5 56 10 22 24 43 31 47 29 17 104 94 99 103 -10 15 -17
10 -65 -40z m-180 -91 c0 -5 -4 -10 -10 -10 -5 0 -10 5 -10 10 0 6 5 10 10 10
6 0 10 -4 10 -10z m93 -25 c-3 -9 -8 -14 -10 -11 -3 3 -2 9 2 15 9 16 15 13 8
-4z m-596 -27 c-3 -8 -6 -5 -6 6 -1 11 2 17 5 13 3 -3 4 -12 1 -19z m563 -21
c41 -23 142 -75 223 -116 81 -41 145 -76 143 -78 -5 -5 -308 -4 -313 1 -2 2 5
24 16 49 11 26 16 49 11 52 -5 3 -27 -1 -49 -9 -35 -12 -41 -12 -41 0 0 17
-12 18 -28 2 -10 -10 -15 -10 -21 1 -6 8 -14 10 -22 5 -8 -5 -23 -7 -35 -6
-11 2 -33 -2 -49 -8 -21 -8 -25 -14 -17 -22 7 -7 12 -25 12 -40 l0 -28 -80 0
c-44 0 -80 3 -80 6 0 17 28 52 83 103 122 113 142 130 157 131 8 0 49 -19 90
-43z m-571 -14 c7 -14 3 -22 -15 -36 -23 -17 -24 -17 -24 2 0 47 22 66 39 34z
m78 -90 c70 -97 69 -93 34 -93 -24 0 -36 8 -55 38 -23 33 -46 122 -33 122 3 0
27 -30 54 -67z m-68 -34 c33 -43 33 -44 11 -47 -12 -2 -33 -1 -46 2 -21 6 -24
12 -24 52 0 56 12 55 59 -7z m441 -24 c0 -24 -5 -35 -15 -35 -18 0 -19 9 -5
44 13 36 20 32 20 -9z m150 0 c0 -24 -5 -35 -15 -35 -18 0 -19 11 -3 45 15 33
18 32 18 -10z m-94 -31 c-11 -29 -30 0 -21 33 7 27 7 28 17 6 6 -12 8 -30 4
-39z m44 21 c0 -14 -4 -25 -10 -25 -11 0 -14 33 -3 43 11 11 13 8 13 -18z
m-326 -9 c-3 -9 -10 -16 -15 -16 -6 0 -5 9 1 21 13 24 24 20 14 -5z m776 14
c0 -5 -5 -10 -11 -10 -5 0 -7 5 -4 10 3 6 8 10 11 10 2 0 4 -4 4 -10z m-1020
-44 c0 -2 -7 -6 -15 -10 -8 -3 -15 -1 -15 4 0 6 7 10 15 10 8 0 15 -2 15 -4z
m1020 -50 c0 -3 -4 -8 -10 -11 -5 -3 -10 -1 -10 4 0 6 5 11 10 11 6 0 10 -2
10 -4z"/>
<path d="M730 635 c-14 -8 -37 -14 -52 -15 -18 0 -28 -5 -28 -14 0 -8 -13 -23
-30 -33 -16 -9 -30 -23 -30 -29 0 -13 -224 -224 -237 -224 -5 0 -16 -12 -26
-26 -15 -20 -16 -28 -7 -39 10 -13 8 -15 -17 -15 -33 0 -92 55 -137 127 -30
49 -27 63 22 115 19 20 32 40 29 45 -3 5 -24 7 -46 5 -43 -4 -58 -24 -46 -61
7 -23 -29 -159 -61 -226 -13 -27 -22 -51 -20 -53 7 -6 41 -4 101 7 33 6 82 11
108 11 43 0 48 -2 42 -19 -4 -13 2 -23 20 -35 13 -9 46 -36 72 -61 27 -25 56
-45 66 -45 22 0 14 15 -25 49 -44 36 -76 111 -48 111 6 0 10 -9 10 -20 0 -13
7 -20 18 -20 18 0 32 -11 99 -73 51 -48 51 -23 -1 37 -55 64 -59 86 -16 86 28
0 30 -3 30 -34 0 -52 20 -55 21 -4 1 36 2 39 9 18 4 -14 8 -49 9 -77 1 -40 5
-53 16 -53 10 0 13 8 10 28 -12 78 -14 122 -5 122 6 0 10 -27 10 -59 0 -85 20
-89 22 -4 1 46 3 55 5 27 3 -31 9 -43 24 -47 10 -3 19 0 20 6 0 7 1 28 2 47 2
26 6 35 20 34 9 -1 72 -2 140 -3 l122 -1 -25 -20 c-29 -22 -23 -32 33 -50 21
-7 54 -26 73 -43 27 -23 38 -27 47 -18 9 9 4 18 -23 39 -52 40 -80 70 -80 84
1 8 5 7 14 -5 12 -16 121 -77 139 -77 17 0 4 18 -33 46 -22 16 -40 37 -40 46
0 17 70 80 103 91 17 6 24 27 8 27 -4 0 -39 -11 -77 -25 -38 -14 -71 -25 -73
-25 -2 0 0 -11 3 -24 8 -31 -11 -44 -32 -23 -22 23 -4 40 85 84 116 57 111 69
-11 28 -41 -14 -87 -25 -101 -25 -23 0 -26 -3 -22 -22 4 -13 -38 23 -106 91
-126 127 -126 125 -38 176 75 43 66 63 -11 25 -35 -17 -71 -35 -80 -40 -12 -7
-18 -7 -18 0 0 13 79 70 97 70 7 0 13 5 13 10 0 14 -31 12 -60 -5z m-64 -106
c19 -22 19 -22 -3 -10 -24 12 -39 31 -25 31 5 0 17 -10 28 -21z m11 -43 c51
-26 93 -60 167 -135 l99 -101 -89 -1 c-49 0 -110 -3 -136 -5 l-48 -5 0 65 c0
84 -19 87 -22 4 l-2 -63 -3 63 c-5 82 -23 80 -23 -4 0 -43 -4 -63 -11 -59 -6
4 -8 29 -5 66 l5 58 -35 10 c-48 13 -87 -4 -78 -33 14 -43 23 -90 18 -98 -5
-8 -144 -12 -144 -3 0 22 58 96 138 178 53 53 98 97 99 97 1 0 33 -15 70 -34z
m-513 -162 c5 -14 4 -15 -9 -4 -17 14 -19 20 -6 20 5 0 12 -7 15 -16z m385
-36 l-1 -53 -10 38 c-6 20 -7 44 -4 52 10 28 16 15 15 -37z m36 -2 c2 -20 -1
-38 -6 -41 -5 -4 -9 15 -9 41 0 54 10 54 15 0z m-403 -8 c59 -37 52 -44 -28
-28 -42 9 -54 15 -50 27 3 8 6 19 6 24 0 16 18 10 72 -23z m-72 -48 c0 -5 -4
-10 -10 -10 -5 0 -10 5 -10 10 0 6 5 10 10 10 6 0 10 -4 10 -10z"/>
<path d="M191 461 c-24 -34 -27 -51 -7 -51 7 0 33 -15 57 -33 80 -60 110 -58
53 5 -19 21 -42 54 -51 73 -9 19 -20 35 -24 35 -4 0 -17 -13 -28 -29z m39 -32
c11 -19 10 -20 -10 -9 -11 6 -18 15 -15 21 9 13 13 11 25 -12z"/>
<path d="M1307 163 c-11 -10 -8 -38 4 -50 18 -18 39 -3 39 28 0 21 -5 29 -18
29 -10 0 -22 -3 -25 -7z"/>
</g>
</svg>
