<?xml version="1.0" standalone="no"?>
<!DOCTYPE svg PUBLIC "-//W3C//DTD SVG 20010904//EN"
 "http://www.w3.org/TR/2001/REC-SVG-20010904/DTD/svg10.dtd">
<svg version="1.0" xmlns="http://www.w3.org/2000/svg"
 width="120.000000pt" height="257.000000pt" viewBox="0 0 120.000000 257.000000"
 preserveAspectRatio="xMidYMid meet">
<metadata>
Created by potrace 1.16, written by Peter Selinger 2001-2019
</metadata>
<g transform="translate(0.000000,257.000000) scale(0.100000,-0.100000)"
fill="#000000" stroke="none">
<path d="M0 2561 c0 -10 1185 -9 1196 2 4 4 -263 7 -594 7 -337 0 -602 -4
-602 -9z"/>
<path d="M272 2466 c-19 -39 -31 -50 -103 -85 -45 -23 -88 -41 -96 -41 -19 0
-16 -23 7 -47 17 -18 17 -23 5 -33 -22 -18 -18 -30 10 -30 13 0 61 -25 105
-55 82 -56 100 -64 100 -44 0 6 12 30 26 55 21 35 29 42 43 35 25 -14 90 -112
117 -178 l24 -58 -22 -18 c-12 -10 -28 -21 -36 -26 -8 -4 -12 -16 -11 -25 3
-14 14 -9 57 23 90 68 276 151 337 151 49 0 23 26 -68 68 -50 24 -103 52 -116
63 l-23 19 26 35 c32 41 46 44 46 10 0 -14 3 -25 8 -25 4 0 34 14 67 31 60 32
239 79 301 79 24 0 34 5 34 15 0 8 -3 15 -6 15 -3 0 -49 9 -102 19 -53 11
-171 33 -262 50 -91 16 -173 32 -182 36 -13 5 -20 0 -28 -19 -8 -23 -13 -25
-29 -16 -28 14 -31 13 -31 -12 -1 -13 -13 -49 -28 -80 l-27 -57 -38 46 c-20
25 -45 68 -54 95 -10 26 -20 48 -23 48 -3 0 -16 -20 -28 -44z m32 -21 c3 -8 1
-15 -4 -15 -6 0 -10 7 -10 15 0 8 2 15 4 15 2 0 6 -7 10 -15z m401 5 c22 -5
96 -19 165 -31 69 -12 131 -24 138 -28 7 -4 -47 -18 -120 -30 -73 -12 -147
-26 -165 -30 -19 -5 -35 -5 -42 2 -16 16 -39 1 -46 -32 -9 -43 -31 -58 -53
-37 -27 24 -34 20 -30 -21 3 -36 4 -37 60 -50 51 -11 138 -47 138 -57 0 -4
-117 -82 -173 -116 -23 -13 -42 -19 -47 -14 -5 5 -27 63 -49 129 -32 96 -44
120 -58 118 -10 -1 -21 4 -25 10 -11 17 -10 29 1 23 5 -4 18 9 30 26 34 56
123 136 156 141 53 7 79 7 120 -3z m-213 -32 c-7 -7 -12 -8 -12 -2 0 14 12 26
19 19 2 -3 -1 -11 -7 -17z m-152 -45 c40 -35 75 -84 51 -69 -6 4 -18 -5 -27
-21 -21 -35 -103 -103 -125 -103 -9 0 -24 9 -34 20 -18 20 -18 21 8 47 l26 27
26 -24 c27 -25 36 -12 9 15 -13 12 -13 19 -4 30 18 22 8 41 -12 21 -15 -15
-18 -14 -36 11 -17 23 -22 25 -36 14 -18 -15 -11 -35 9 -27 25 9 24 -33 -2
-53 -28 -23 -41 -20 -65 13 -17 24 -17 25 25 59 56 46 108 77 129 77 10 0 36
-16 58 -37z m-230 -53 c0 -5 -5 -10 -11 -10 -5 0 -7 5 -4 10 3 6 8 10 11 10 2
0 4 -4 4 -10z m635 -20 c-3 -5 -10 -10 -16 -10 -5 0 -9 5 -9 10 0 6 7 10 16
10 8 0 12 -4 9 -10z m-145 -70 c0 -5 -7 -10 -15 -10 -8 0 -15 5 -15 10 0 6 7
10 15 10 8 0 15 -4 15 -10z m-170 -9 c0 -5 3 -18 7 -28 6 -17 5 -17 -15 1 -26
22 -28 36 -7 36 8 0 15 -4 15 -9z m-140 -51 c0 -5 -5 -10 -11 -10 -5 0 -7 5
-4 10 3 6 8 10 11 10 2 0 4 -4 4 -10z m505 -60 c3 -5 -3 -10 -14 -10 -10 0
-28 -3 -38 -6 -16 -6 -16 -5 2 9 23 19 41 21 50 7z"/>
<path d="M634 1769 c-11 -12 -26 -18 -37 -15 -11 3 -20 -2 -23 -12 -14 -45
-68 -150 -76 -146 -17 11 -88 141 -88 162 0 30 -11 28 -34 -6 -22 -33 -151
-112 -183 -112 -26 0 -29 -16 -8 -44 13 -17 13 -23 -1 -44 -15 -22 -12 -37 6
-37 19 0 111 -69 127 -96 22 -37 37 -37 53 0 6 16 34 53 60 82 39 43 51 51 59
40 18 -27 24 -108 25 -323 l1 -218 -27 -11 c-16 -6 -28 -18 -28 -25 0 -8 2
-14 4 -14 2 0 47 22 100 50 53 27 105 50 115 50 11 0 22 4 25 9 3 4 24 11 47
15 59 9 61 12 40 55 -26 51 -91 215 -91 231 0 7 -7 10 -15 6 -22 -8 25 51 76
97 37 34 43 36 53 21 11 -15 18 -13 64 21 49 35 67 41 210 71 43 9 22 31 -55
58 -131 46 -337 127 -359 141 -19 12 -24 12 -40 -6z m56 -24 c25 -15 25 -15
-12 -13 -37 2 -45 8 -31 21 9 10 14 8 43 -8z m-290 -35 c0 -5 -4 -10 -10 -10
-5 0 -10 5 -10 10 0 6 5 10 10 10 6 0 10 -4 10 -10z m431 -28 c24 -10 83 -32
132 -47 48 -16 87 -31 87 -35 0 -7 -126 -36 -203 -46 -27 -4 -51 -13 -54 -20
-3 -9 -14 -12 -28 -8 -19 5 -27 0 -41 -28 -9 -18 -39 -65 -65 -105 -53 -78
-57 -88 -34 -79 11 4 30 -17 65 -71 28 -42 50 -83 50 -89 0 -15 -104 -91 -166
-122 l-42 -21 4 192 c2 106 6 229 9 274 4 67 2 84 -10 91 -14 7 -12 14 10 55
15 25 39 57 54 70 26 22 33 23 108 16 43 -5 99 -17 124 -27z m-374 -63 l25
-38 -33 -28 c-32 -27 -122 -83 -134 -83 -4 0 8 18 25 40 27 35 34 39 48 28 13
-11 15 -10 10 9 -4 14 1 28 13 39 27 25 23 37 -6 18 -24 -15 -25 -15 -33 7 -5
13 -12 38 -15 56 l-6 32 40 -21 c22 -11 52 -38 66 -59z m-131 39 c-22 -31 -20
-42 9 -58 33 -18 32 -23 -11 -46 -31 -16 -35 -23 -30 -47 8 -37 -9 -26 -34 23
-27 53 -26 59 19 108 41 45 74 59 47 20z m-96 -42 c0 -3 -4 -8 -10 -11 -5 -3
-10 -1 -10 4 0 6 5 11 10 11 6 0 10 -2 10 -4z m4 -82 c4 -10 1 -14 -6 -12 -15
5 -23 28 -10 28 5 0 13 -7 16 -16z m296 -4 c0 -11 -2 -20 -4 -20 -2 0 -6 9 -9
20 -3 11 -1 20 4 20 5 0 9 -9 9 -20z m317 -17 c-9 -9 -19 -14 -23 -11 -10 10
6 28 24 28 15 0 15 -1 -1 -17z m-82 -23 c-3 -5 -11 -10 -16 -10 -6 0 -7 5 -4
10 3 6 11 10 16 10 6 0 7 -4 4 -10z m-405 -40 c-6 -11 -16 -17 -22 -14 -7 5
-5 12 7 21 25 18 28 17 15 -7z m329 -142 l11 -33 -20 25 c-21 27 -25 40 -11
40 5 0 14 -15 20 -32z m76 -199 c-4 -5 -13 -9 -22 -9 -13 0 -13 3 -3 15 13 15
35 11 25 -6z"/>
<path d="M1174 1115 c-4 -8 -1 -22 6 -30 6 -8 9 -19 6 -24 -4 -5 -2 -12 4 -16
6 -4 10 11 10 39 0 45 -15 62 -26 31z"/>
<path d="M265 832 c-22 -14 -62 -33 -90 -43 -47 -15 -50 -18 -50 -52 0 -19 -8
-43 -18 -54 -22 -25 -22 -33 1 -33 28 0 119 -49 150 -80 l28 -28 14 31 c7 17
39 56 70 87 l57 56 -49 53 c-26 29 -48 61 -48 72 0 25 -17 23 -65 -9z m64 -62
c0 -3 -14 -16 -30 -29 -28 -22 -31 -22 -48 -7 -10 9 -23 16 -29 16 -19 0 -14
-18 9 -31 22 -11 22 -12 -11 -42 l-32 -30 -19 24 c-10 13 -19 29 -19 35 0 13
32 43 84 77 38 25 40 26 68 9 15 -9 28 -19 27 -22z m50 -34 c16 -19 -13 -66
-39 -66 -16 0 -58 37 -49 43 48 38 71 44 88 23z m-79 -66 c25 -20 25 -20 5
-36 -40 -31 -49 -33 -75 -12 l-25 20 30 24 c36 29 34 29 65 4z"/>
<path d="M503 789 c-10 -26 -16 -30 -36 -25 -23 5 -25 3 -30 -52 -4 -31 -9
-108 -13 -169 -6 -101 -9 -113 -25 -113 -26 0 -24 -12 9 -64 16 -24 43 -83 62
-130 l33 -86 -47 -50 c-26 -28 -44 -55 -40 -61 8 -14 40 17 129 125 39 47 75
85 80 86 6 0 26 14 45 30 19 17 42 30 52 30 24 0 23 22 -2 40 -11 8 -20 20
-20 27 0 27 -29 11 -53 -29 -36 -60 -116 -168 -125 -168 -13 0 -72 172 -72
212 0 16 3 16 43 2 23 -8 59 -26 79 -39 39 -26 58 -31 58 -16 0 5 -24 23 -52
39 -29 17 -68 43 -87 59 l-34 29 84 76 c111 100 167 127 304 148 28 4 84 14
125 23 41 8 101 18 133 22 72 8 73 30 1 31 -27 1 -74 4 -104 7 -30 4 -111 9
-180 13 -69 3 -163 12 -209 20 -46 8 -87 14 -90 14 -4 0 -12 -14 -18 -31z
m490 -39 c22 -9 22 -9 1 -9 -12 -1 -68 -10 -125 -22 -57 -11 -133 -21 -169
-22 -61 -2 -65 -3 -62 -24 4 -27 -5 -29 -29 -7 -16 14 -18 14 -31 -9 -23 -43
-123 -177 -131 -177 -14 0 3 97 32 190 l27 85 40 7 c53 9 419 -1 447 -12z
m-528 -57 c-9 -50 -17 -34 -9 18 4 24 9 38 12 31 2 -7 1 -29 -3 -49z m145 -56
c0 -2 -10 -12 -21 -23 -22 -19 -22 -19 -8 4 12 19 29 30 29 19z m-155 -197 c3
-5 1 -10 -4 -10 -6 0 -11 5 -11 10 0 6 2 10 4 10 3 0 8 -4 11 -10z m-25 -46
c0 -8 -4 -12 -10 -9 -5 3 -10 10 -10 16 0 5 5 9 10 9 6 0 10 -7 10 -16z m263
-51 c8 -7 -31 -53 -44 -53 -5 0 0 13 9 30 18 31 24 35 35 23z"/>
<path d="M1120 132 c0 -16 3 -32 6 -35 13 -13 44 14 44 38 0 20 -5 25 -25 25
-21 0 -25 -5 -25 -28z"/>
</g>
</svg>
