<?xml version="1.0" standalone="no"?>
<!DOCTYPE svg PUBLIC "-//W3C//DTD SVG 20010904//EN"
 "http://www.w3.org/TR/2001/REC-SVG-20010904/DTD/svg10.dtd">
<svg version="1.0" xmlns="http://www.w3.org/2000/svg"
 width="119.000000pt" height="128.000000pt" viewBox="0 0 119.000000 128.000000"
 preserveAspectRatio="xMidYMid meet">
<metadata>
Created by potrace 1.16, written by Peter Selinger 2001-2019
</metadata>
<g transform="translate(0.000000,128.000000) scale(0.100000,-0.100000)"
fill="#000000" stroke="none">
<path d="M386 1211 c-4 -5 0 -33 7 -62 8 -29 12 -61 10 -70 -5 -16 -47 -32
-58 -21 -3 3 -5 33 -5 67 0 65 -16 95 -37 74 -8 -8 -7 -22 3 -51 21 -61 18
-95 -8 -101 -12 -4 -24 -4 -27 -1 -3 2 -7 32 -9 67 -5 67 -10 80 -30 68 -10
-6 -10 -19 3 -66 20 -77 20 -75 -19 -75 -30 0 -34 4 -40 31 -3 17 -6 51 -6 75
0 47 -6 52 -34 31 -18 -13 -18 -15 -2 -39 14 -21 46 -215 46 -276 0 -12 10
-13 45 -9 l45 7 0 -45 c0 -25 5 -45 10 -45 6 0 10 22 10 49 0 46 1 48 28 47
22 -1 28 -6 30 -28 5 -40 24 -35 20 5 -2 27 1 33 20 35 19 3 22 -1 22 -32 0
-20 5 -36 10 -36 6 0 10 18 10 40 0 35 3 40 28 46 47 10 48 12 10 13 -30 1
-38 5 -38 20 0 14 10 20 41 24 23 3 47 11 53 17 8 9 4 10 -16 6 -16 -3 -39 -8
-53 -11 -20 -4 -25 -1 -25 15 0 11 5 20 12 20 6 0 4 6 -7 13 -19 15 -13 37 11
37 8 0 14 5 14 10 0 6 -10 10 -21 10 -20 0 -21 3 -14 75 6 71 6 75 -14 75 -11
0 -22 -4 -25 -9z m24 -181 c0 -10 -32 -30 -49 -30 -6 0 -11 9 -11 20 0 16 7
20 30 20 17 0 30 -4 30 -10z m-85 -20 c0 -9 -11 -16 -27 -18 -23 -3 -28 1 -28
18 0 17 5 21 28 18 16 -2 27 -9 27 -18z m-72 4 c13 -13 -7 -34 -33 -34 -30 0
-45 13 -35 30 7 11 58 14 68 4z m157 -38 c0 -15 -48 -28 -56 -15 -9 15 6 29
32 29 14 0 24 -6 24 -14z m-76 -11 c3 -8 2 -15 -2 -15 -4 0 -17 -3 -29 -6 -17
-5 -23 -2 -23 9 0 13 12 20 41 26 4 0 9 -6 13 -14z m-74 -20 c0 -10 -11 -15
-35 -15 -24 0 -35 5 -35 15 0 10 11 15 35 15 24 0 35 -5 35 -15z m150 -25 c0
-11 -4 -20 -9 -20 -5 0 -16 -3 -25 -6 -11 -4 -16 0 -16 13 0 24 8 33 32 33 11
0 18 -7 18 -20z m-72 -12 c-4 -31 -58 -40 -58 -10 0 25 8 32 37 32 20 0 24 -5
21 -22z m-80 -10 c-4 -31 -58 -40 -58 -9 0 18 14 27 48 30 8 1 12 -8 10 -21z"/>
<path d="M612 1097 c-24 -29 -18 -41 20 -38 21 1 43 -1 50 -5 7 -5 20 -9 28
-11 8 -1 62 -18 119 -37 58 -20 107 -34 109 -31 9 8 -10 25 -29 25 -10 0 -27
4 -37 9 -9 6 -42 17 -72 27 -69 21 -137 51 -145 64 -9 14 -30 13 -43 -3z m48
-23 c0 -2 -9 -4 -21 -4 -11 0 -18 4 -14 10 5 8 35 3 35 -6z"/>
<path d="M508 1083 c-16 -2 -28 -9 -28 -14 0 -12 17 -10 60 6 35 13 23 16 -32
8z"/>
<path d="M586 1024 c-9 -24 -9 -24 27 -24 37 0 209 -44 249 -65 18 -8 30 -10
34 -4 8 14 10 13 -96 44 -52 15 -114 36 -138 46 -53 23 -68 24 -76 3z"/>
<path d="M473 1013 c9 -2 23 -2 30 0 6 3 -1 5 -18 5 -16 0 -22 -2 -12 -5z"/>
<path d="M570 965 c-16 -19 -5 -32 13 -17 10 9 18 8 33 -3 10 -8 31 -15 45
-15 14 0 52 -9 84 -20 66 -23 65 -23 65 -12 0 10 -50 32 -75 32 -12 0 -36 7
-53 16 -17 8 -41 16 -52 17 -11 1 -20 5 -20 9 0 14 -27 9 -40 -7z"/>
<path d="M540 910 c-21 -17 -23 -21 -10 -30 8 -5 38 -10 65 -10 28 0 81 -8
118 -19 37 -10 70 -14 73 -10 6 10 8 9 -101 40 -44 12 -87 28 -96 36 -20 16
-19 16 -49 -7z"/>
<path d="M975 890 c-3 -5 -3 -16 2 -22 4 -7 6 -24 4 -37 -2 -15 1 -21 9 -16
16 10 30 52 24 70 -7 17 -30 20 -39 5z"/>
<path d="M217 592 c-14 -16 -16 -29 -8 -88 4 -38 6 -86 3 -106 -2 -24 0 -38 7
-38 6 0 11 7 11 15 0 8 8 15 18 15 9 0 133 0 274 0 l257 -1 51 -34 c29 -19 55
-35 59 -35 3 0 24 -23 46 -50 22 -27 43 -50 47 -50 18 0 5 25 -37 73 -25 29
-57 76 -72 105 -28 57 -38 64 -46 30 l-6 -23 -262 2 c-144 2 -263 4 -265 6 -5
4 13 134 22 165 6 21 4 23 -17 20 -23 -3 -24 -6 -21 -75 4 -87 -2 -113 -30
-113 -20 0 -21 3 -15 100 3 55 5 100 3 100 -2 0 -10 -8 -19 -18z m643 -211
c15 -28 12 -33 -10 -19 -21 13 -27 38 -10 38 5 0 14 -9 20 -19z"/>
<path d="M76 585 c-10 -8 -23 -16 -28 -17 -6 -2 -4 -28 5 -63 17 -70 16 -239
-1 -272 -7 -12 -12 -31 -12 -43 0 -19 4 -21 33 -14 17 4 153 7 301 5 302 -3
298 -2 364 -77 23 -25 46 -44 52 -42 5 1 -14 30 -43 63 -50 57 -83 112 -73
122 11 12 86 -51 121 -101 23 -34 42 -53 48 -47 5 5 -10 33 -37 69 -26 33 -49
74 -52 91 -8 40 -20 47 -34 20 -9 -15 -18 -19 -36 -15 -13 4 -134 6 -268 7
-211 0 -245 2 -250 15 -3 9 -4 19 -1 24 3 4 130 6 282 4 164 -2 260 0 233 5
-25 5 -133 9 -240 11 -107 1 -213 5 -235 9 l-40 7 3 89 c2 50 8 105 13 123 13
40 8 47 -27 38 -23 -6 -25 -10 -18 -34 4 -15 9 -70 10 -122 1 -52 2 -117 3
-143 l1 -49 158 2 c270 4 332 2 332 -14 0 -8 7 -16 15 -20 8 -3 15 -11 15 -17
0 -7 -9 -4 -21 7 -16 14 -22 15 -28 5 -7 -11 -49 -12 -217 -6 -244 9 -252 9
-282 19 -17 6 -28 3 -39 -11 -14 -17 -14 -17 -7 2 4 11 6 43 5 70 -2 56 15
258 25 293 7 25 -3 28 -30 7z m1 -57 c-3 -7 -5 -2 -5 12 0 14 2 19 5 13 2 -7
2 -19 0 -25z"/>
<path d="M780 335 c-7 -8 -22 -15 -33 -15 -20 0 -20 0 -1 -21 10 -12 29 -25
41 -30 13 -5 42 -33 65 -63 23 -30 46 -52 50 -50 11 7 -4 33 -40 69 -35 36
-52 67 -52 94 0 26 -15 34 -30 16z"/>
<path d="M990 161 c0 -27 19 -36 37 -18 18 18 9 37 -18 37 -12 0 -19 -7 -19
-19z"/>
</g>
</svg>
