<?xml version="1.0" standalone="no"?>
<!DOCTYPE svg PUBLIC "-//W3C//DTD SVG 20010904//EN"
 "http://www.w3.org/TR/2001/REC-SVG-20010904/DTD/svg10.dtd">
<svg version="1.0" xmlns="http://www.w3.org/2000/svg"
 width="123.000000pt" height="56.000000pt" viewBox="0 0 123.000000 56.000000"
 preserveAspectRatio="xMidYMid meet">
<metadata>
Created by potrace 1.16, written by Peter Selinger 2001-2019
</metadata>
<g transform="translate(0.000000,56.000000) scale(0.100000,-0.100000)"
fill="#000000" stroke="none">
<path d="M30 517 c-31 -50 -27 -57 28 -40 30 9 115 16 234 20 l187 6 11 -27
c5 -15 10 -29 10 -32 0 -9 -39 -3 -42 7 -2 7 -13 7 -33 -2 -45 -18 -129 -20
-243 -7 l-103 12 -26 -26 c-38 -38 -24 -47 49 -31 35 7 123 16 196 20 l132 6
0 -32 c0 -29 -2 -31 -35 -31 -28 0 -35 4 -35 20 0 11 -5 20 -10 20 -6 0 -10
-8 -8 -17 2 -14 -5 -19 -28 -21 -25 -2 -33 1 -39 20 l-8 23 -4 -22 c-4 -22 -8
-23 -120 -23 -87 0 -114 -3 -110 -12 3 -10 32 -12 115 -9 l112 3 0 -26 0 -26
-109 0 c-63 0 -112 -4 -116 -10 -4 -6 35 -10 109 -10 l116 0 0 -105 c0 -63 4
-105 10 -105 6 0 10 42 10 106 l0 105 31 -3 32 -3 -2 -92 c-1 -55 2 -94 8 -98
8 -4 11 26 11 94 l0 101 36 0 36 0 -4 -95 c-3 -52 -1 -100 4 -107 10 -16 11
-7 8 64 -1 32 1 76 5 98 6 37 10 41 33 38 l27 -3 -3 -90 c-2 -50 1 -103 6
-120 7 -23 10 -4 15 85 4 63 7 140 7 171 0 31 9 85 20 120 10 35 18 69 17 74
-1 6 -74 10 -192 11 -199 1 -239 4 -293 22 -31 10 -34 9 -52 -21z m86 -6 c-7
-10 -76 -20 -76 -11 0 14 15 20 47 20 19 0 32 -4 29 -9z m434 -15 c0 -3 -4
-17 -10 -31 -12 -31 -30 -24 -30 11 0 17 5 24 20 24 11 0 20 -2 20 -4z m-420
-76 c0 -5 -14 -10 -31 -10 -17 0 -28 4 -24 10 3 6 17 10 31 10 13 0 24 -4 24
-10z m375 -30 c0 -18 -6 -26 -23 -28 -26 -4 -20 -22 9 -22 14 0 19 -7 19 -25
0 -21 -5 -25 -30 -25 l-30 0 0 66 0 65 28 -3 c21 -2 27 -8 27 -28z m-165 -75
c0 -21 -5 -25 -30 -25 -25 0 -30 4 -30 25 0 21 5 25 30 25 25 0 30 -4 30 -25z
m90 0 c0 -22 -4 -25 -35 -25 -31 0 -35 3 -35 25 0 22 4 25 35 25 31 0 35 -3
35 -25z"/>
<path d="M718 525 c-3 -3 -3 -17 0 -31 4 -21 9 -24 26 -19 11 3 49 10 84 15
69 9 92 20 46 21 -33 0 -75 5 -120 14 -17 3 -33 3 -36 0z m67 -25 c-3 -5 -15
-10 -26 -10 -10 0 -19 5 -19 10 0 6 12 10 26 10 14 0 23 -4 19 -10z"/>
<path d="M1120 502 c0 -4 5 -13 12 -20 8 -8 14 -65 16 -173 3 -88 7 -158 10
-155 2 3 11 67 18 143 7 76 15 152 19 169 6 27 4 32 -17 37 -32 9 -58 9 -58
-1z m59 -24 c0 -7 -4 -22 -9 -33 -7 -17 -9 -15 -9 13 -1 17 4 32 9 32 6 0 10
-6 9 -12z"/>
<path d="M958 493 c29 -2 74 -2 100 0 26 2 2 3 -53 3 -55 0 -76 -1 -47 -3z"/>
<path d="M718 425 c-6 -30 1 -38 20 -23 16 14 292 20 314 7 10 -6 13 -42 14
-144 2 -131 8 -173 18 -124 3 13 7 85 9 159 l3 135 -140 0 c-78 0 -162 3 -187
7 -44 7 -47 6 -51 -17z"/>
<path d="M728 355 c4 -23 22 -36 22 -16 0 5 3 16 6 25 4 11 0 16 -14 16 -15 0
-18 -5 -14 -25z"/>
<path d="M774 356 c-8 -9 12 -12 88 -12 126 1 130 -3 127 -127 -1 -48 1 -90 5
-94 3 -3 6 -2 7 3 0 5 2 36 5 69 2 33 7 80 11 105 4 25 7 48 8 52 0 14 -239
17 -251 4z"/>
<path d="M723 304 c-3 -8 -2 -21 1 -29 4 -12 10 -14 25 -5 11 5 49 10 85 10
76 0 80 -5 74 -107 -2 -39 1 -65 7 -64 13 1 19 211 6 211 -5 0 -13 -4 -16 -10
-8 -12 -86 -13 -138 -1 -30 7 -40 6 -44 -5z"/>
<path d="M633 110 c1 -45 12 -51 29 -16 13 29 5 56 -16 56 -11 0 -15 -11 -13
-40z"/>
</g>
</svg>
