<?xml version="1.0" standalone="no"?>
<!DOCTYPE svg PUBLIC "-//W3C//DTD SVG 20010904//EN"
 "http://www.w3.org/TR/2001/REC-SVG-20010904/DTD/svg10.dtd">
<svg version="1.0" xmlns="http://www.w3.org/2000/svg"
 width="68.000000pt" height="67.000000pt" viewBox="0 0 68.000000 67.000000"
 preserveAspectRatio="xMidYMid meet">
<metadata>
Created by potrace 1.16, written by Peter Selinger 2001-2019
</metadata>
<g transform="translate(0.000000,67.000000) scale(0.100000,-0.100000)"
fill="#000000" stroke="none">
<path d="M108 584 c0 -5 -2 -13 -3 -19 -2 -5 -3 -16 -4 -23 -1 -10 -10 -12
-32 -7 -32 7 -32 7 -25 -26 13 -65 25 -165 31 -271 7 -107 7 -108 -15 -108
-20 0 -22 -4 -17 -36 3 -20 8 -38 10 -41 3 -2 24 1 48 6 24 5 137 15 252 22
l207 12 0 91 c1 76 6 172 23 365 l2 25 -215 1 c-118 0 -225 5 -237 9 -13 5
-24 4 -25 0z m47 -34 c3 -5 -1 -10 -9 -10 -9 0 -16 5 -16 10 0 6 4 10 9 10 6
0 13 -4 16 -10z m370 -17 c4 -10 10 -109 13 -219 l5 -201 -134 -7 c-81 -5
-167 -3 -219 3 -46 6 -86 11 -87 11 -6 0 -3 299 3 343 6 43 8 46 49 57 23 6
102 15 176 19 74 5 146 9 160 9 17 1 30 -4 34 -15z m32 -20 c-3 -10 -5 -4 -5
12 0 17 2 24 5 18 2 -7 2 -21 0 -30z m-467 -24 c0 -5 -4 -9 -10 -9 -5 0 -10 7
-10 16 0 8 5 12 10 9 6 -3 10 -10 10 -16z m35 -399 c-3 -5 -19 -10 -36 -10
-16 0 -29 5 -29 10 0 6 16 10 36 10 21 0 33 -4 29 -10z"/>
<path d="M143 433 c-3 -7 -2 -20 1 -28 4 -12 10 -13 25 -6 10 6 44 14 75 17
35 4 56 12 56 19 0 18 -150 16 -157 -2z"/>
<path d="M330 432 c0 -28 9 -32 45 -16 19 8 50 14 70 14 19 0 35 5 35 10 0 6
-32 10 -75 10 -66 0 -75 -2 -75 -18z"/>
<path d="M144 371 c-2 -2 -4 -13 -4 -23 0 -23 26 -34 44 -19 7 6 34 14 60 17
25 4 46 10 46 15 0 8 -138 17 -146 10z"/>
<path d="M334 366 c-11 -28 4 -49 29 -41 12 4 48 9 80 12 74 7 69 23 -8 27
-33 2 -68 7 -77 11 -12 5 -20 2 -24 -9z"/>
<path d="M144 274 c10 -37 11 -38 33 -25 11 5 43 13 71 17 70 9 66 24 -5 24
-32 0 -69 3 -82 7 -22 6 -23 4 -17 -23z"/>
<path d="M340 279 c0 -17 4 -20 23 -15 12 3 46 9 75 12 77 10 63 24 -23 24
-70 0 -75 -1 -75 -21z"/>
<path d="M147 216 c-7 -17 1 -46 12 -46 4 0 12 5 18 11 6 6 38 13 72 16 73 7
82 23 12 23 -27 0 -62 3 -78 6 -22 4 -32 2 -36 -10z"/>
<path d="M340 205 c0 -21 3 -24 18 -16 9 5 45 12 80 16 93 10 86 25 -12 25
-85 0 -86 0 -86 -25z"/>
</g>
</svg>
