<?xml version="1.0" standalone="no"?>
<!DOCTYPE svg PUBLIC "-//W3C//DTD SVG 20010904//EN"
 "http://www.w3.org/TR/2001/REC-SVG-20010904/DTD/svg10.dtd">
<svg version="1.0" xmlns="http://www.w3.org/2000/svg"
 width="43.000000pt" height="46.000000pt" viewBox="0 0 43.000000 46.000000"
 preserveAspectRatio="xMidYMid meet">
<metadata>
Created by potrace 1.16, written by Peter Selinger 2001-2019
</metadata>
<g transform="translate(0.000000,46.000000) scale(0.100000,-0.100000)"
fill="#000000" stroke="none">
<path d="M54 418 c-3 -4 2 -31 11 -60 10 -36 15 -94 15 -190 0 -76 4 -138 9
-138 12 0 23 68 20 124 -2 25 2 51 7 56 6 6 70 13 142 17 73 3 132 10 132 15
0 4 -19 9 -42 10 -24 0 -47 2 -53 3 -5 1 -44 5 -85 9 -106 10 -107 11 -87 85
9 33 17 63 17 65 0 8 -82 12 -86 4z m55 -25 c0 -5 -4 -17 -9 -28 -8 -18 -9
-17 -9 8 -1 15 4 27 9 27 6 0 10 -3 9 -7z m34 -150 c-7 -2 -21 -2 -30 0 -10 3
-4 5 12 5 17 0 24 -2 18 -5z"/>
</g>
</svg>
