<?xml version="1.0" standalone="no"?>
<!DOCTYPE svg PUBLIC "-//W3C//DTD SVG 20010904//EN"
 "http://www.w3.org/TR/2001/REC-SVG-20010904/DTD/svg10.dtd">
<svg version="1.0" xmlns="http://www.w3.org/2000/svg"
 width="96.000000pt" height="96.000000pt" viewBox="0 0 96.000000 96.000000"
 preserveAspectRatio="xMidYMid meet">
<metadata>
Created by potrace 1.16, written by Peter Selinger 2001-2019
</metadata>
<g transform="translate(0.000000,96.000000) scale(0.100000,-0.100000)"
fill="#000000" stroke="none">
<path d="M219 907 c-10 -22 -7 -31 19 -69 16 -24 37 -60 45 -81 l16 -37 -35 0
c-40 0 -48 13 -66 121 l-12 69 -28 -27 c-31 -30 -35 -48 -14 -56 19 -7 42 -44
50 -79 6 -27 5 -28 -39 -28 -26 0 -55 5 -66 10 -17 10 -19 7 -19 -35 0 -49 4
-53 31 -29 10 9 39 19 65 22 l47 5 -28 -39 c-16 -21 -44 -55 -63 -76 l-34 -36
18 -26 c11 -14 21 -25 24 -26 3 0 26 45 52 99 45 95 48 99 82 103 21 2 36 0
36 -7 0 -5 -20 -40 -45 -77 -25 -37 -45 -71 -45 -76 0 -9 33 -42 42 -42 3 0
10 24 17 53 6 28 24 74 39 101 l27 49 209 1 c155 1 211 5 214 14 3 9 -48 12
-216 12 l-220 0 -20 58 c-11 31 -26 77 -34 101 -15 52 -33 62 -49 28z m28
-369 c-3 -8 -6 -5 -6 6 -1 11 2 17 5 13 3 -3 4 -12 1 -19z"/>
<path d="M728 861 c-14 -12 -31 -21 -37 -21 -18 0 -12 -30 7 -38 10 -4 35 -26
55 -48 l37 -41 -44 -41 c-24 -22 -58 -48 -75 -57 l-32 -16 30 -29 c16 -17 32
-30 35 -30 2 0 19 27 37 59 17 33 39 67 49 76 17 16 20 15 35 -9 10 -14 24
-26 31 -26 20 0 18 4 -23 61 -20 28 -46 81 -58 116 l-20 64 -27 -20z m25 -52
c4 -16 3 -18 -9 -8 -16 13 -19 29 -5 29 5 0 11 -9 14 -21z m-38 -209 c-3 -5
-11 -10 -16 -10 -6 0 -7 5 -4 10 3 6 11 10 16 10 6 0 7 -4 4 -10z"/>
<path d="M264 491 l-26 -39 46 -78 c25 -43 46 -82 46 -87 0 -5 -12 -7 -27 -5
-31 3 -55 39 -88 130 -12 33 -26 59 -31 58 -5 -1 -17 -14 -26 -28 -17 -27 -16
-27 29 -77 72 -80 73 -85 14 -85 -27 0 -53 5 -56 10 -3 6 -17 10 -31 10 -22 0
-24 -4 -24 -46 0 -38 2 -44 14 -35 14 12 102 41 124 41 19 0 0 -30 -63 -98
-47 -51 -53 -61 -40 -72 8 -7 15 -19 15 -27 0 -30 22 -6 44 47 12 31 37 77 54
103 27 38 38 47 63 47 l30 0 -22 -32 c-13 -18 -40 -57 -61 -85 l-38 -53 19
-36 20 -37 11 27 c5 15 10 31 10 36 0 5 18 47 39 94 l40 84 158 6 c203 9 252
15 228 29 -16 8 -149 6 -350 -6 -28 -2 -31 2 -49 53 -10 30 -21 85 -23 123 -3
37 -10 67 -14 67 -5 0 -20 -18 -35 -39z m26 -47 c0 -14 -4 -23 -10 -19 -5 3
-10 15 -10 26 0 10 5 19 10 19 6 0 10 -12 10 -26z m-97 -35 c4 -16 3 -18 -9
-8 -7 6 -11 15 -8 20 8 13 11 11 17 -12z m-53 -143 c0 -11 -19 -15 -25 -6 -3
5 1 10 9 10 9 0 16 -2 16 -4z m113 -171 c-3 -9 -8 -14 -10 -11 -3 3 -2 9 2 15
9 16 15 13 8 -4z"/>
<path d="M710 425 l-33 -34 30 -28 c16 -15 40 -42 52 -60 l22 -32 -63 -47
c-35 -25 -65 -48 -67 -50 -8 -8 58 -66 68 -60 5 3 12 17 15 32 4 14 19 43 33
65 l26 40 20 -30 c10 -17 23 -31 28 -31 16 0 10 31 -11 57 l-19 25 24 32 c25
33 32 56 17 56 -5 0 -19 -14 -32 -32 l-23 -31 -14 27 c-8 15 -17 49 -20 77 -3
27 -9 52 -13 54 -4 2 -22 -11 -40 -30z m30 -41 c0 -8 -4 -12 -10 -9 -5 3 -10
10 -10 16 0 5 5 9 10 9 6 0 10 -7 10 -16z m-20 -205 c-7 -11 -14 -18 -17 -15
-3 3 0 12 7 21 18 21 23 19 10 -6z"/>
</g>
</svg>
