<?xml version="1.0" standalone="no"?>
<!DOCTYPE svg PUBLIC "-//W3C//DTD SVG 20010904//EN"
 "http://www.w3.org/TR/2001/REC-SVG-20010904/DTD/svg10.dtd">
<svg version="1.0" xmlns="http://www.w3.org/2000/svg"
 width="56.000000pt" height="71.000000pt" viewBox="0 0 56.000000 71.000000"
 preserveAspectRatio="xMidYMid meet">
<metadata>
Created by potrace 1.16, written by Peter Selinger 2001-2019
</metadata>
<g transform="translate(0.000000,71.000000) scale(0.100000,-0.100000)"
fill="#000000" stroke="none">
<path d="M152 672 c-29 -10 -40 -18 -34 -26 5 -6 12 -26 16 -44 l6 -34 -50 7
-50 7 0 -42 c0 -46 0 -46 78 -24 24 7 24 6 21 -64 -2 -42 0 -73 6 -74 6 -2 11
30 13 74 l3 76 67 6 c37 3 103 7 147 8 l80 3 11 -45 c6 -25 15 -123 19 -217 9
-219 27 -222 24 -5 -1 87 1 187 5 223 8 64 7 66 -15 70 -13 3 -91 1 -172 -4
-91 -6 -152 -6 -158 0 -6 6 0 27 14 56 13 25 21 50 18 54 -3 5 -25 2 -49 -5z
m-42 -132 c-20 -13 -40 -13 -40 0 0 6 12 10 28 10 21 0 24 -2 12 -10z m390
-11 c0 -11 -4 -17 -10 -14 -5 3 -10 13 -10 21 0 8 5 14 10 14 6 0 10 -9 10
-21z"/>
<path d="M308 472 c-31 -4 -32 -9 -19 -79 6 -26 12 -101 14 -166 l4 -119 -51
4 -51 3 -3 -43 -3 -43 25 17 c30 19 157 54 197 54 34 0 59 9 59 21 0 6 -30 7
-74 3 l-73 -7 -6 34 c-7 51 1 239 13 279 11 39 6 47 -32 42z m12 -38 c0 -8 -4
-12 -10 -9 -5 3 -10 10 -10 16 0 5 5 9 10 9 6 0 10 -7 10 -16z m-67 -351 c-7
-2 -19 -2 -25 0 -7 3 -2 5 12 5 14 0 19 -2 13 -5z"/>
<path d="M372 331 c2 -7 7 -12 11 -12 12 1 9 15 -3 20 -7 2 -11 -2 -8 -8z"/>
<path d="M160 210 c0 -5 5 -10 10 -10 6 0 10 5 10 10 0 6 -4 10 -10 10 -5 0
-10 -4 -10 -10z"/>
</g>
</svg>
