<?xml version="1.0" standalone="no"?>
<!DOCTYPE svg PUBLIC "-//W3C//DTD SVG 20010904//EN"
 "http://www.w3.org/TR/2001/REC-SVG-20010904/DTD/svg10.dtd">
<svg version="1.0" xmlns="http://www.w3.org/2000/svg"
 width="104.000000pt" height="48.000000pt" viewBox="0 0 104.000000 48.000000"
 preserveAspectRatio="xMidYMid meet">
<metadata>
Created by potrace 1.16, written by Peter Selinger 2001-2019
</metadata>
<g transform="translate(0.000000,48.000000) scale(0.100000,-0.100000)"
fill="#000000" stroke="none">
<path d="M630 395 c-7 -8 -16 -13 -20 -10 -21 13 -20 -21 3 -63 13 -26 39 -91
58 -145 18 -53 36 -97 41 -97 13 0 10 19 -17 103 -14 43 -27 110 -29 150 -3
73 -13 90 -36 62z m10 -47 c0 -18 -2 -20 -9 -8 -6 8 -7 18 -5 22 9 14 14 9 14
-14z"/>
<path d="M512 374 c-18 -8 -32 -18 -30 -22 2 -4 17 -34 34 -67 18 -33 46 -97
64 -142 19 -47 39 -83 46 -83 18 0 19 -3 -17 81 -23 53 -33 95 -37 157 -4 47
-11 86 -17 88 -5 1 -25 -4 -43 -12z m32 -46 c3 -13 6 -30 6 -38 -1 -13 -2 -13
-9 0 -16 27 -22 60 -13 60 5 0 12 -10 16 -22z"/>
<path d="M870 366 c0 -14 5 -26 11 -26 8 0 10 -29 7 -100 -4 -74 -2 -100 7
-100 8 0 14 32 19 98 3 53 7 108 9 122 2 21 -3 26 -25 28 -24 3 -28 0 -28 -22z"/>
<path d="M945 380 c-4 -6 -2 -17 5 -24 6 -9 10 -44 8 -90 -4 -96 15 -102 23
-8 4 38 10 83 14 100 6 29 4 32 -19 32 -13 0 -28 -5 -31 -10z"/>
<path d="M46 274 c3 -22 8 -40 9 -42 2 -2 30 4 63 12 33 9 94 16 135 16 42 0
79 5 82 10 4 6 -21 10 -67 10 -69 0 -153 11 -206 26 -22 6 -23 5 -16 -32z m39
-4 c3 -5 1 -10 -4 -10 -6 0 -11 5 -11 10 0 6 2 10 4 10 3 0 8 -4 11 -10z"/>
<path d="M54 187 c-10 -26 0 -62 16 -60 8 1 39 6 69 12 29 6 85 11 123 11 51
0 69 3 66 12 -3 8 -27 14 -64 15 -83 3 -168 11 -187 19 -10 4 -19 0 -23 -9z
m56 -21 c0 -2 -7 -6 -15 -10 -8 -3 -15 -1 -15 4 0 6 7 10 15 10 8 0 15 -2 15
-4z"/>
<path d="M777 173 c-11 -18 -3 -83 10 -83 20 0 39 48 27 68 -12 19 -30 26 -37
15z"/>
<path d="M416 154 c-3 -9 -3 -21 1 -27 4 -7 6 -20 5 -29 -5 -29 25 -21 32 8
12 48 -21 91 -38 48z"/>
</g>
</svg>
