<?xml version="1.0" standalone="no"?>
<!DOCTYPE svg PUBLIC "-//W3C//DTD SVG 20010904//EN"
 "http://www.w3.org/TR/2001/REC-SVG-20010904/DTD/svg10.dtd">
<svg version="1.0" xmlns="http://www.w3.org/2000/svg"
 width="127.000000pt" height="75.000000pt" viewBox="0 0 127.000000 75.000000"
 preserveAspectRatio="xMidYMid meet">
<metadata>
Created by potrace 1.16, written by Peter Selinger 2001-2019
</metadata>
<g transform="translate(0.000000,75.000000) scale(0.100000,-0.100000)"
fill="#000000" stroke="none">
<path d="M957 669 c-16 -28 -27 -52 -25 -53 72 -33 142 -95 187 -165 23 -36
41 -70 41 -75 0 -6 -12 -18 -28 -27 -15 -9 -46 -31 -69 -49 -50 -37 -51 -34
-27 71 9 39 13 73 10 76 -3 4 -20 8 -37 10 -30 3 -31 2 -25 -34 3 -21 8 -68
12 -104 l6 -66 -49 -32 -48 -32 -6 30 c-9 45 8 270 24 323 8 26 12 49 9 52 -3
4 -25 6 -49 6 -50 0 -50 -2 -28 -95 8 -33 15 -71 15 -84 0 -23 -2 -24 -62 -18
-89 7 -166 26 -184 44 -8 8 -16 14 -18 12 -9 -11 -15 -119 -7 -119 5 0 36 6
68 14 32 8 93 17 135 21 l77 6 -3 -103 -4 -102 -43 -15 c-24 -9 -46 -17 -48
-18 -6 -4 20 -63 31 -69 5 -3 24 9 42 28 47 48 122 108 136 108 8 0 11 -15 8
-42 -1 -24 2 -44 7 -46 6 -1 11 23 13 55 2 32 8 64 15 71 6 8 44 36 84 63 40
28 73 53 73 57 0 5 -24 48 -52 98 -29 49 -71 126 -93 172 -22 45 -44 82 -50
82 -5 0 -23 -23 -38 -51z m73 -49 c18 -35 26 -60 19 -54 -8 6 -31 23 -51 38
-36 27 -36 27 -20 56 9 16 17 28 18 27 1 -1 16 -31 34 -67z m-127 -72 c-10
-51 -21 -85 -23 -68 0 8 -5 34 -9 58 -8 40 -7 42 15 42 21 0 23 -3 17 -32z
m120 -138 c-3 -11 -7 -20 -9 -20 -2 0 -4 9 -4 20 0 11 4 20 9 20 5 0 7 -9 4
-20z m-324 -16 c7 -7 -2 -11 -41 -18 -34 -6 -38 -5 -38 15 0 19 4 21 38 14 20
-4 39 -9 41 -11z m149 -269 c-31 -29 -38 -31 -38 -10 0 15 27 34 50 35 10 0 6
-8 -12 -25z"/>
<path d="M222 619 c-7 -22 -10 -44 -7 -50 4 -5 -1 -9 -9 -9 -21 0 -29 -16 -18
-37 5 -10 12 -47 16 -81 l7 -64 -68 5 c-37 2 -78 7 -90 12 -20 6 -22 4 -21
-34 0 -46 2 -47 48 -24 19 9 55 18 81 21 57 5 55 10 63 -143 6 -114 15 -175
26 -175 4 0 20 19 35 43 31 47 121 158 184 227 22 25 41 48 41 52 0 3 -44 46
-97 95 -132 120 -153 144 -160 176 -8 37 -16 34 -31 -14z m83 -109 c-2 -4 2
-26 9 -51 19 -67 13 -79 -41 -79 l-46 0 6 63 c3 34 11 76 17 91 l11 29 24 -23
c13 -13 22 -26 20 -30z m-75 20 c0 -5 -4 -10 -10 -10 -5 0 -10 5 -10 10 0 6 5
10 10 10 6 0 10 -4 10 -10z m194 -114 l60 -54 -36 -44 c-65 -78 -153 -165
-174 -172 -20 -6 -22 -2 -27 61 -4 38 -7 87 -7 111 l0 42 40 0 40 0 1 -57 c0
-32 4 -67 8 -77 14 -35 23 1 20 77 -3 102 0 167 9 167 4 0 34 -24 66 -54z
m-150 -311 c-4 -8 -8 -15 -10 -15 -2 0 -4 7 -4 15 0 8 4 15 10 15 5 0 7 -7 4
-15z"/>
<path d="M1192 147 c-16 -19 11 -58 28 -41 14 14 10 46 -6 51 -6 2 -16 -2 -22
-10z"/>
<path d="M531 131 c-9 -6 -11 -15 -6 -27 4 -11 7 -27 6 -38 -4 -28 21 -14 32
18 11 33 -8 61 -32 47z"/>
</g>
</svg>
