<?xml version="1.0" standalone="no"?>
<!DOCTYPE svg PUBLIC "-//W3C//DTD SVG 20010904//EN"
 "http://www.w3.org/TR/2001/REC-SVG-20010904/DTD/svg10.dtd">
<svg version="1.0" xmlns="http://www.w3.org/2000/svg"
 width="68.000000pt" height="58.000000pt" viewBox="0 0 68.000000 58.000000"
 preserveAspectRatio="xMidYMid meet">
<metadata>
Created by potrace 1.16, written by Peter Selinger 2001-2019
</metadata>
<g transform="translate(0.000000,58.000000) scale(0.100000,-0.100000)"
fill="#000000" stroke="none">
<path d="M280 534 c0 -25 -2 -26 -50 -22 -55 3 -55 3 -35 -45 11 -27 19 -105
16 -154 -1 -20 -46 -15 -96 9 -24 12 -47 19 -50 16 -3 -3 1 -18 9 -33 8 -16
18 -45 21 -67 8 -46 15 -47 37 -8 17 29 64 57 77 45 3 -4 4 -37 2 -76 -2 -44
1 -69 8 -69 10 0 24 37 20 56 -1 5 -1 28 0 50 l1 42 45 4 c50 4 45 13 47 -94
1 -39 -1 -42 -40 -57 -22 -9 -43 -19 -47 -23 -7 -7 54 -87 67 -88 3 0 24 28
46 63 41 66 70 91 188 168 40 26 74 51 78 57 3 5 -43 40 -102 77 -113 71 -188
128 -210 157 -19 26 -32 22 -32 -8z m40 -52 c-25 -4 -35 2 -26 17 5 7 13 7 27
-2 20 -12 20 -12 -1 -15z m-86 -7 c-4 -8 -10 -12 -15 -9 -14 8 -10 24 6 24 9
0 12 -6 9 -15z m152 -40 c56 -23 166 -98 157 -106 -5 -4 -47 -10 -95 -14 -97
-8 -103 -4 -68 45 24 33 15 43 -30 34 -32 -7 -34 -16 -14 -67 6 -16 -22 -27
-68 -27 -24 0 -27 4 -33 50 -4 29 -2 63 4 83 12 34 12 34 59 26 27 -4 66 -15
88 -24z m177 -143 c-28 -22 -199 -132 -206 -132 -4 0 -2 82 2 121 1 3 31 7 69
8 37 1 83 6 102 10 52 13 57 12 33 -7z m-430 -18 c-8 -21 -23 -17 -23 6 0 13
5 18 14 14 8 -3 12 -12 9 -20z m206 -176 c-12 -18 -24 -35 -26 -37 -4 -6 -33
20 -33 30 0 9 73 49 79 44 2 -2 -7 -19 -20 -37z"/>
<path d="M108 3 c12 -2 32 -2 45 0 12 2 2 4 -23 4 -25 0 -35 -2 -22 -4z"/>
<path d="M188 3 c6 -2 18 -2 25 0 6 3 1 5 -13 5 -14 0 -19 -2 -12 -5z"/>
<path d="M472 3 c37 -2 100 -2 140 0 40 1 10 3 -67 3 -77 0 -110 -1 -73 -3z"/>
</g>
</svg>
