<?xml version="1.0" standalone="no"?>
<!DOCTYPE svg PUBLIC "-//W3C//DTD SVG 20010904//EN"
 "http://www.w3.org/TR/2001/REC-SVG-20010904/DTD/svg10.dtd">
<svg version="1.0" xmlns="http://www.w3.org/2000/svg"
 width="90.000000pt" height="131.000000pt" viewBox="0 0 90.000000 131.000000"
 preserveAspectRatio="xMidYMid meet">
<metadata>
Created by potrace 1.16, written by Peter Selinger 2001-2019
</metadata>
<g transform="translate(0.000000,131.000000) scale(0.100000,-0.100000)"
fill="#000000" stroke="none">
<path d="M223 1303 c125 -2 329 -2 455 0 125 1 22 2 -228 2 -250 0 -353 -1
-227 -2z"/>
<path d="M236 1205 c-22 -33 -21 -39 14 -78 17 -19 30 -38 30 -41 0 -4 -15 -6
-32 -4 -31 3 -34 6 -48 66 -8 34 -17 62 -20 62 -3 0 -18 -12 -35 -27 -28 -25
-29 -27 -11 -37 28 -16 56 -44 56 -57 0 -7 -21 -10 -57 -7 l-58 3 2 -29 c1
-16 4 -30 6 -32 2 -2 25 3 50 12 68 23 76 14 32 -34 l-38 -43 22 -20 c27 -26
38 -19 46 31 9 52 34 83 64 78 24 -3 23 -4 -14 -52 -35 -47 -36 -50 -19 -63
36 -26 49 -16 61 49 7 33 17 64 23 68 7 4 84 8 172 9 177 2 170 7 111 -66 -38
-47 -40 -58 -15 -67 9 -3 23 -9 30 -12 8 -4 12 4 12 23 0 31 32 107 49 117 18
11 13 37 -6 34 -20 -3 -30 29 -32 100 0 23 -4 42 -8 42 -5 0 -21 -16 -37 -36
l-28 -36 31 -32 c17 -18 31 -35 31 -38 0 -4 -72 -7 -160 -7 l-159 -1 -16 52
c-8 28 -15 62 -15 75 0 30 -14 29 -34 -2z m18 -31 c3 -8 2 -12 -4 -9 -6 3 -10
10 -10 16 0 14 7 11 14 -7z m353 -16 c-3 -8 -6 -5 -6 6 -1 11 2 17 5 13 3 -3
4 -12 1 -19z"/>
<path d="M750 984 c-9 -10 -9 -18 -2 -27 6 -7 9 -23 5 -35 -7 -27 12 -29 27
-3 24 46 -1 101 -30 65z"/>
<path d="M138 770 c-20 -34 -23 -47 -13 -55 6 -5 22 -25 35 -43 l22 -33 -71 2
c-66 2 -103 -7 -73 -18 6 -3 12 -15 12 -28 l0 -22 40 20 c50 24 62 17 21 -14
l-30 -22 20 -39 c18 -35 39 -44 39 -17 0 16 42 109 49 109 4 0 20 -26 36 -57
18 -37 30 -52 32 -41 2 9 -5 35 -16 57 -12 22 -21 43 -21 46 0 3 32 5 70 5 39
0 70 -3 70 -7 0 -3 -18 -21 -40 -40 -22 -19 -40 -38 -40 -42 0 -4 12 -14 28
-22 15 -7 30 -15 33 -16 3 -2 11 19 18 47 7 27 17 50 22 50 5 0 18 -18 29 -39
11 -22 24 -42 30 -46 18 -11 11 21 -15 68 -25 43 -25 45 -6 50 11 3 80 6 153
6 73 1 137 6 142 11 13 13 8 13 -157 10 -123 -2 -137 -1 -131 14 3 9 10 16 15
16 5 0 9 6 9 14 0 8 7 17 16 20 8 3 12 10 9 16 -8 13 -25 13 -25 0 0 -5 -8
-18 -19 -29 -10 -10 -23 -27 -29 -37 -15 -27 -28 -10 -45 56 -8 30 -18 55 -23
57 -5 1 -18 -16 -29 -38 l-19 -41 29 -24 c16 -13 27 -26 23 -29 -3 -3 -34 -5
-68 -3 l-63 3 28 33 c15 18 24 36 20 40 -4 4 -18 -6 -31 -23 -13 -16 -24 -28
-25 -25 0 3 -8 36 -17 75 l-17 70 -27 -45z m31 -65 c0 -5 -4 -3 -9 5 -5 8 -9
22 -9 30 0 16 17 -16 18 -35z m171 -8 c0 -5 -4 -5 -10 -2 -5 3 -10 14 -10 23
0 15 2 15 10 2 5 -8 10 -19 10 -23z m-205 -146 c-3 -6 -11 -11 -17 -11 -6 0
-6 6 2 15 14 17 26 13 15 -4z m205 -5 c0 -3 -4 -8 -10 -11 -5 -3 -10 -1 -10 4
0 6 5 11 10 11 6 0 10 -2 10 -4z"/>
<path d="M655 757 c-11 -23 -22 -34 -31 -30 -8 3 -14 -1 -14 -8 0 -8 11 -15
25 -15 14 -1 45 -14 67 -29 l42 -28 -54 -48 c-29 -27 -57 -49 -62 -49 -15 0
-8 -23 14 -41 28 -25 35 -24 42 7 10 40 56 106 77 111 27 7 24 31 -5 44 -14 7
-38 36 -54 67 l-30 55 -17 -36z m35 -38 c0 -6 -4 -7 -10 -4 -5 3 -10 11 -10
16 0 6 5 7 10 4 6 -3 10 -11 10 -16z m-20 -179 c0 -5 -5 -10 -11 -10 -5 0 -7
5 -4 10 3 6 8 10 11 10 2 0 4 -4 4 -10z"/>
<path d="M608 371 c-16 -15 -28 -29 -28 -32 0 -4 16 -23 35 -43 19 -21 35 -45
35 -53 0 -9 -27 -43 -60 -76 -64 -65 -71 -77 -41 -77 11 0 23 -4 26 -10 12
-19 21 -9 49 55 30 70 42 79 52 40 3 -14 10 -25 15 -25 12 0 11 27 -2 51 -8
16 -5 26 20 55 44 49 41 78 -3 35 -33 -32 -33 -32 -40 -9 -3 13 -6 44 -6 71 0
54 -11 58 -52 18z m32 -42 c0 -11 -4 -17 -10 -14 -5 3 -10 13 -10 21 0 8 5 14
10 14 6 0 10 -9 10 -21z m-45 -208 c-3 -6 -11 -11 -17 -11 -6 0 -6 6 2 15 14
17 26 13 15 -4z"/>
<path d="M285 350 c-16 -18 -16 -21 -2 -43 14 -22 14 -25 -3 -40 -24 -20 -30
-13 -30 40 0 49 -3 51 -32 24 -20 -19 -20 -31 -3 -75 8 -17 4 -18 -45 -14 -30
3 -56 11 -58 17 -9 27 -22 7 -22 -34 0 -25 3 -45 6 -45 4 0 28 8 55 17 53 19
77 10 40 -16 -60 -40 -64 -44 -50 -74 12 -26 39 -38 39 -17 0 13 53 100 61
100 4 0 9 -9 12 -20 4 -14 -4 -27 -26 -44 -30 -24 -30 -25 -14 -50 20 -30 47
-35 47 -8 0 9 19 46 42 81 38 58 42 62 55 45 7 -10 13 -21 13 -26 0 -4 5 -8
11 -8 7 0 9 9 5 24 -5 21 -2 24 32 30 20 3 69 6 109 6 40 0 75 5 78 11 4 6 5
11 4 13 -2 1 -57 0 -121 -3 l-117 -6 34 35 c33 34 45 60 28 60 -5 0 -21 -16
-36 -35 -32 -41 -42 -43 -50 -13 -4 15 1 30 15 45 26 28 16 43 -12 18 -19 -18
-20 -17 -20 3 0 27 -21 28 -45 2z m45 -111 c0 -5 -11 -9 -25 -9 -23 0 -24 2
-15 21 9 16 14 18 26 8 8 -6 14 -15 14 -20z m-20 -32 c0 -2 -9 -12 -20 -22
-19 -18 -20 -17 -20 3 0 15 6 22 20 22 11 0 20 -2 20 -3z m-130 -71 c0 -3 -4
-8 -10 -11 -5 -3 -10 -1 -10 4 0 6 5 11 10 11 6 0 10 -2 10 -4z m70 -36 c0 -5
-5 -10 -11 -10 -5 0 -7 5 -4 10 3 6 8 10 11 10 2 0 4 -4 4 -10z"/>
<path d="M822 88 c-17 -17 -15 -47 4 -55 23 -9 51 23 38 44 -14 22 -27 26 -42
11z"/>
</g>
</svg>
