<?xml version="1.0" standalone="no"?>
<!DOCTYPE svg PUBLIC "-//W3C//DTD SVG 20010904//EN"
 "http://www.w3.org/TR/2001/REC-SVG-20010904/DTD/svg10.dtd">
<svg version="1.0" xmlns="http://www.w3.org/2000/svg"
 width="157.000000pt" height="56.000000pt" viewBox="0 0 157.000000 56.000000"
 preserveAspectRatio="xMidYMid meet">
<metadata>
Created by potrace 1.16, written by Peter Selinger 2001-2019
</metadata>
<g transform="translate(0.000000,56.000000) scale(0.100000,-0.100000)"
fill="#000000" stroke="none">
<path d="M375 531 c-30 -6 -30 -7 -27 -66 2 -33 6 -68 9 -78 4 -16 -1 -18 -54
-15 -55 3 -58 4 -55 27 4 23 35 87 53 106 18 18 8 24 -42 22 l-50 -2 6 -67 c6
-53 4 -69 -7 -73 -7 -3 -48 1 -91 8 l-79 14 -9 -24 c-11 -29 -12 -63 -1 -63 4
1 36 7 72 15 36 8 77 14 93 15 24 0 27 -3 27 -36 l0 -36 -86 3 -86 3 -14 -33
c-8 -19 -12 -36 -10 -39 4 -4 77 7 159 25 l29 6 -7 -97 c-4 -61 -3 -96 3 -96
6 0 13 43 17 96 5 56 12 97 19 99 6 2 32 6 59 9 l47 6 0 -85 c0 -46 4 -86 9
-89 11 -7 21 97 14 151 l-5 41 79 6 c43 4 121 11 173 17 52 5 111 10 130 12
20 1 35 7 35 14 0 9 -44 14 -160 17 -172 5 -245 13 -245 27 0 5 11 38 25 75
37 98 36 99 -30 85z m-124 -62 c-9 -22 -10 -22 -10 -3 -1 11 2 24 6 27 12 12
14 0 4 -24z m138 14 c0 -10 -4 -27 -9 -38 -7 -16 -9 -13 -9 18 -1 20 4 37 9
37 6 0 10 -8 9 -17z m-260 -119 c2 -2 -7 -4 -22 -4 -14 0 -32 -3 -41 -6 -11
-4 -16 -1 -16 10 0 14 7 16 38 10 20 -4 39 -8 41 -10z m221 -49 l0 -35 -55 0
-55 0 0 35 0 35 55 0 55 0 0 -35z m125 4 c6 -1 -15 -5 -45 -9 -61 -9 -63 -9
-55 12 5 12 15 13 48 7 23 -4 47 -9 52 -10z m-330 -64 c-5 -2 -27 -8 -47 -14
-31 -8 -38 -7 -38 5 0 10 13 14 48 13 26 0 43 -2 37 -4z"/>
<path d="M1066 450 c8 -92 10 -91 -86 -65 -78 21 -80 21 -73 -22 3 -21 7 -39
8 -41 1 -1 31 4 66 13 93 22 89 24 89 -50 l0 -66 -52 7 c-29 4 -68 12 -85 20
-37 15 -39 13 -39 -41 1 -45 -7 -43 104 -24 35 6 67 8 70 4 4 -3 7 -27 7 -52
0 -28 5 -48 13 -50 9 -3 12 11 12 51 l0 56 51 0 51 0 -3 -68 c-2 -38 0 -69 6
-72 6 -3 11 18 13 51 3 52 5 56 35 67 18 6 85 12 150 14 85 2 117 6 117 15 0
9 -16 13 -48 13 -27 0 -83 3 -125 6 -67 6 -77 5 -77 -10 0 -9 -5 -16 -11 -16
-6 0 -8 9 -4 21 6 19 4 21 -14 16 -21 -5 -22 -3 -16 51 7 65 42 191 58 210 14
18 -1 30 -43 34 l-35 3 3 -83 4 -83 -51 3 c-28 2 -51 8 -51 13 0 6 7 37 15 70
9 32 12 62 8 65 -4 4 -23 10 -41 13 l-32 7 6 -80z m43 33 c-1 -10 -4 -29 -8
-43 -7 -23 -8 -22 -12 13 -3 21 -3 40 0 42 10 11 21 4 20 -12z m140 -5 c0 -13
-4 -32 -9 -43 -7 -15 -9 -10 -9 23 -1 23 4 42 9 42 6 0 10 -10 9 -22z m-294
-118 c3 -5 1 -10 -4 -10 -6 0 -11 5 -11 10 0 6 2 10 4 10 3 0 8 -4 11 -10z
m243 -83 l3 -68 -48 3 -48 3 -3 54 c-2 29 -1 59 1 65 3 7 24 12 48 12 l44 -1
3 -68z m-210 -72 c2 -2 -13 -5 -32 -7 -25 -3 -36 0 -36 9 0 9 10 11 33 6 17
-3 33 -7 35 -8z"/>
<path d="M725 160 c-4 -6 -2 -17 4 -24 6 -7 9 -20 5 -29 -3 -8 -1 -18 5 -21
13 -9 33 30 29 57 -3 24 -32 35 -43 17z"/>
</g>
</svg>
