<?xml version="1.0" standalone="no"?>
<!DOCTYPE svg PUBLIC "-//W3C//DTD SVG 20010904//EN"
 "http://www.w3.org/TR/2001/REC-SVG-20010904/DTD/svg10.dtd">
<svg version="1.0" xmlns="http://www.w3.org/2000/svg"
 width="134.000000pt" height="116.000000pt" viewBox="0 0 134.000000 116.000000"
 preserveAspectRatio="xMidYMid meet">
<metadata>
Created by potrace 1.16, written by Peter Selinger 2001-2019
</metadata>
<g transform="translate(0.000000,116.000000) scale(0.100000,-0.100000)"
fill="#000000" stroke="none">
<path d="M354 1105 c-18 -15 -42 -24 -64 -24 -34 0 -156 19 -211 34 -24 6 -28
3 -39 -30 -15 -46 -5 -56 45 -45 64 14 212 15 230 0 28 -23 15 -30 -55 -30
-38 0 -70 -4 -70 -9 0 -5 -3 -17 -7 -27 -5 -14 -2 -16 15 -12 15 4 22 2 22 -9
0 -12 10 -14 50 -10 29 3 48 1 44 -4 -3 -5 -25 -9 -50 -9 -33 0 -44 -4 -44
-16 0 -10 6 -14 18 -11 9 3 34 8 55 12 22 3 37 12 37 20 0 23 22 29 37 10 26
-37 17 -44 -59 -47 -43 -2 -72 -7 -70 -13 2 -10 138 -8 155 2 4 2 7 40 7 84 0
64 3 79 15 79 9 0 15 -9 15 -25 0 -14 4 -25 9 -25 5 0 67 6 138 14 70 8 218
16 328 18 l200 3 3 -55 3 -55 -173 -5 c-95 -3 -250 -5 -345 -5 l-171 0 -5 -28
c-5 -34 -1 -38 28 -27 44 17 372 41 520 38 l150 -3 6 -45 c7 -49 8 -43 13 85
2 39 7 88 11 109 l8 39 -29 -9 c-28 -9 -441 -12 -631 -5 -90 3 -93 4 -93 26 0
34 -12 37 -46 10z m-224 -25 c25 -8 25 -8 -5 -10 -16 -1 -38 -3 -47 -5 -10 -2
-18 3 -18 11 0 15 29 17 70 4z m248 -48 c4 -26 -22 -31 -32 -6 -10 26 -7 36
12 32 9 -2 18 -13 20 -26z m162 8 c0 -5 -6 -10 -14 -10 -7 0 -28 -3 -45 -6
-24 -5 -31 -3 -31 10 0 12 10 16 45 16 25 0 45 -4 45 -10z m-190 -60 c0 -9
-14 -12 -60 -12 -46 0 -52 5 -15 12 61 11 75 11 75 0z"/>
<path d="M1197 903 c-9 -14 0 -77 11 -81 13 -4 26 37 20 64 -3 19 -23 30 -31
17z"/>
<path d="M57 463 c-5 -4 4 -96 9 -102 2 -2 9 1 16 6 18 14 110 33 161 33 57 0
114 -17 121 -36 5 -14 -4 -15 -71 -13 -77 4 -78 3 -78 -21 0 -14 5 -24 12 -23
6 1 47 5 91 8 66 5 80 4 85 -9 9 -23 -3 -26 -97 -22 l-86 4 0 -25 c0 -22 3
-24 23 -18 12 4 58 9 103 12 69 5 82 3 87 -11 6 -14 -6 -16 -93 -16 -90 0
-100 -2 -100 -18 0 -27 8 -31 43 -20 18 5 62 10 100 12 61 2 67 1 67 -17 0
-18 -5 -19 -95 -12 l-95 7 0 -24 c0 -35 6 -37 63 -22 29 8 73 14 98 14 46 0
58 -11 59 -54 0 -5 -40 -6 -94 -2 -91 6 -94 6 -99 -16 -4 -12 -4 -24 -2 -27 3
-2 29 1 57 7 29 7 79 10 111 8 43 -3 57 -1 57 9 0 8 8 16 18 19 9 2 136 8 282
11 146 4 268 9 273 12 4 2 7 -12 7 -31 0 -20 5 -36 10 -36 6 0 10 29 10 68 0
63 7 106 24 161 8 22 6 23 -26 16 -46 -10 -49 -14 -38 -35 5 -10 12 -42 16
-72 l6 -53 -259 0 c-208 0 -263 3 -277 14 -14 12 -18 11 -31 -5 -8 -10 -15
-22 -15 -26 0 -16 -20 -8 -20 8 0 9 -9 48 -19 87 -11 40 -24 94 -29 120 l-10
49 47 -6 c25 -4 64 -9 86 -12 36 -5 38 -4 25 9 -9 10 -42 18 -83 21 -76 6 -87
10 -87 33 0 14 -3 14 -25 -1 -13 -9 -35 -16 -48 -16 -37 0 -208 31 -249 45
-21 7 -39 11 -41 8z m72 -42 c11 -7 9 -10 -8 -16 -24 -7 -44 2 -36 16 8 11 26
11 44 0z m285 -57 c15 -39 -4 -42 -24 -3 -8 15 -7 19 4 19 7 0 17 -7 20 -16z"/>
<path d="M500 245 c-13 -35 -5 -46 26 -35 14 6 139 10 279 10 160 0 256 4 260
10 10 16 -9 18 -260 24 -132 3 -252 9 -267 12 -23 5 -29 2 -38 -21z m47 -11
c-3 -3 -12 -4 -19 -1 -8 3 -5 6 6 6 11 1 17 -2 13 -5z"/>
<path d="M1175 90 c-8 -14 3 -30 21 -30 8 0 14 9 14 20 0 21 -24 28 -35 10z"/>
</g>
</svg>
