<?xml version="1.0" standalone="no"?>
<!DOCTYPE svg PUBLIC "-//W3C//DTD SVG 20010904//EN"
 "http://www.w3.org/TR/2001/REC-SVG-20010904/DTD/svg10.dtd">
<svg version="1.0" xmlns="http://www.w3.org/2000/svg"
 width="135.000000pt" height="245.000000pt" viewBox="0 0 135.000000 245.000000"
 preserveAspectRatio="xMidYMid meet">
<metadata>
Created by potrace 1.16, written by Peter Selinger 2001-2019
</metadata>
<g transform="translate(0.000000,245.000000) scale(0.100000,-0.100000)"
fill="#000000" stroke="none">
<path d="M338 2443 c189 -2 495 -2 680 0 185 1 31 2 -343 2 -374 0 -526 -1
-337 -2z"/>
<path d="M993 2403 c-9 -3 -11 -17 -7 -44 l7 -39 -47 0 -47 0 7 35 c6 34 5 35
-26 35 -31 0 -32 -1 -28 -36 l4 -36 -53 5 -53 6 0 -36 c0 -33 2 -35 26 -29 15
4 39 10 55 13 l28 5 3 -93 c2 -54 7 -94 13 -94 6 0 12 42 15 95 l5 95 45 6
c25 4 47 4 50 2 7 -7 6 -370 -2 -378 -10 -10 -211 16 -234 31 -12 7 -32 38
-45 68 -12 31 -27 56 -32 56 -4 0 -28 -13 -51 -29 -37 -26 -182 -101 -194
-101 -4 0 2 88 10 135 2 15 -2 19 -17 17 -33 -6 -36 -16 -25 -88 10 -59 9 -70
-4 -80 -17 -12 -22 -69 -8 -78 5 -3 22 8 38 25 28 29 98 80 175 127 l36 22 37
-35 c21 -19 35 -39 32 -44 -7 -11 11 -63 26 -72 6 -4 23 -3 38 1 15 4 79 11
141 15 l114 7 -3 167 c-2 91 -1 186 3 209 6 40 9 43 30 38 29 -7 85 3 85 16 0
6 -22 8 -51 6 l-51 -3 5 43 c4 38 2 42 -17 41 -11 0 -27 -3 -33 -6z m24 -45
c-3 -8 -6 -5 -6 6 -1 11 2 17 5 13 3 -3 4 -12 1 -19z m-140 -10 c-3 -8 -6 -5
-6 6 -1 11 2 17 5 13 3 -3 4 -12 1 -19z m-457 -453 c-7 -9 -15 -13 -17 -11 -7
7 7 26 19 26 6 0 6 -6 -2 -15z m390 5 c-36 -12 -70 -12 -70 0 0 6 21 10 48 9
38 -1 42 -2 22 -9z"/>
<path d="M402 2198 c-7 -7 -12 -18 -12 -24 0 -7 -12 -14 -27 -16 -26 -3 -28
-5 -25 -47 l4 -43 -69 3 -68 4 -3 -32 c-4 -37 -2 -38 37 -19 15 8 45 16 67 18
l39 3 3 -55 c5 -86 18 -79 26 12 3 46 9 93 12 106 l7 23 198 -3 c123 -2 198 1
196 7 -2 5 -77 21 -168 35 -90 15 -173 30 -184 33 -12 4 -26 2 -33 -5z m107
-34 c2 -2 -19 -4 -48 -4 -29 0 -50 4 -47 9 5 8 85 4 95 -5z"/>
<path d="M1225 1883 c9 -52 20 -59 35 -24 15 38 7 61 -21 61 -19 0 -21 -4 -14
-37z"/>
<path d="M1015 1719 c-4 -5 -1 -34 4 -65 6 -31 8 -60 5 -65 -3 -5 -23 -9 -45
-9 -39 0 -40 1 -35 28 20 107 20 102 -18 102 l-35 0 6 -66 6 -67 -71 5 c-65 5
-72 3 -78 -14 -10 -33 9 -42 60 -29 25 6 56 11 71 11 l26 0 -3 -152 -3 -151
-90 -47 c-50 -25 -109 -54 -133 -64 l-42 -19 -31 29 c-51 49 -97 117 -104 157
-8 43 -14 45 -43 14 -27 -28 -27 -36 -5 -53 10 -7 16 -14 13 -16 -45 -33 -133
-88 -142 -88 -16 0 -3 138 18 189 10 27 24 43 39 47 27 7 196 -1 295 -15 123
-16 210 -21 210 -11 0 10 -32 17 -115 25 -33 3 -94 10 -135 16 -148 19 -296
40 -329 46 -29 5 -32 3 -27 -13 5 -16 -3 -23 -40 -39 -40 -18 -44 -23 -39 -45
3 -14 9 -38 12 -54 l6 -29 -54 6 c-30 3 -64 8 -76 12 -17 6 -25 1 -37 -24 -22
-42 -21 -44 21 -37 21 4 54 9 73 11 19 3 45 7 57 10 17 4 23 -1 28 -26 4 -16
6 -54 4 -82 -1 -29 -1 -66 -1 -84 l2 -32 53 51 c28 28 85 75 126 105 l73 55
59 -64 c32 -34 58 -67 59 -73 0 -5 10 -21 21 -34 14 -18 24 -22 33 -15 7 5 46
34 86 64 71 53 138 95 228 142 36 19 55 38 36 38 -10 0 -48 -23 -62 -37 -8 -8
-16 -12 -19 -9 -7 6 -4 234 3 274 6 30 8 32 50 32 l44 0 0 -124 c0 -70 4 -127
10 -131 16 -10 21 34 18 144 l-3 104 30 8 c17 5 45 10 63 11 36 2 55 17 25 19
-10 0 -40 0 -67 -1 l-49 -2 7 44 c13 80 13 81 -16 89 -16 4 -30 3 -33 -2z m32
-56 c-3 -10 -5 -4 -5 12 0 17 2 24 5 18 2 -7 2 -21 0 -30z m-120 -20 c-3 -10
-5 -2 -5 17 0 19 2 27 5 18 2 -10 2 -26 0 -35z m-577 -217 c0 -2 -9 -6 -20 -9
-11 -3 -20 -1 -20 4 0 5 9 9 20 9 11 0 20 -2 20 -4z m-43 -48 c-15 -8 -17 -18
-12 -52 6 -38 4 -44 -14 -49 -23 -6 -26 8 -15 73 5 29 10 35 32 37 22 1 23 0
9 -9z m-57 -15 c0 -5 -5 -15 -10 -23 -8 -12 -10 -11 -10 8 0 12 5 22 10 22 6
0 10 -3 10 -7z m80 -7 c0 -3 -4 -8 -10 -11 -5 -3 -10 -1 -10 4 0 6 5 11 10 11
6 0 10 -2 10 -4z m-217 -93 c-7 -2 -19 -2 -25 0 -7 3 -2 5 12 5 14 0 19 -2 13
-5z m187 -63 c0 -49 -3 -61 -20 -70 -19 -10 -20 -8 -20 60 0 63 2 70 20 70 18
0 20 -7 20 -60z m400 -85 c0 -2 -10 -9 -22 -15 -22 -11 -22 -10 -4 4 21 17 26
19 26 11z"/>
<path d="M1222 1208 c-8 -8 -8 -17 -1 -30 5 -10 7 -23 4 -28 -3 -5 0 -12 6
-16 15 -9 29 14 29 47 0 29 -21 44 -38 27z"/>
<path d="M1094 723 c-4 -16 -13 -40 -20 -54 -13 -26 -16 -26 -56 -17 -23 5
-47 13 -54 19 -11 9 -64 -31 -64 -49 0 -5 34 -7 75 -4 41 2 75 1 75 -4 0 -4
-26 -49 -57 -99 -31 -49 -57 -91 -58 -92 -5 -8 -227 76 -309 117 -91 45 -98
48 -103 30 -3 -12 -19 -24 -37 -29 -19 -5 -29 -13 -27 -22 2 -8 6 -71 9 -140
4 -126 4 -126 -19 -131 -13 -3 -32 -9 -43 -13 -18 -8 -18 -3 -12 104 3 61 9
137 12 167 l7 55 -29 -4 c-32 -4 -31 -1 -18 -104 l7 -53 -72 0 c-68 0 -72 -1
-82 -26 -13 -36 -6 -40 37 -19 20 9 54 20 75 22 l39 6 0 -77 c0 -53 -4 -76
-12 -78 -7 0 -20 -1 -28 -2 -8 -1 -15 -7 -14 -14 1 -6 2 -28 3 -48 l1 -36 30
31 c34 33 106 70 193 99 97 32 83 41 -26 16 l-28 -7 7 104 c7 113 16 149 37
149 7 0 38 -7 68 -15 200 -57 256 -77 301 -107 34 -24 35 -23 54 15 9 17 42
71 73 119 l56 88 48 0 c48 0 48 -1 43 -27 -3 -16 -17 -93 -32 -173 -14 -80
-30 -150 -35 -156 -8 -10 -89 -48 -265 -125 -23 -10 -53 -21 -66 -24 -27 -7
-28 -6 -78 120 -62 154 -59 149 -79 131 -10 -9 -23 -16 -29 -16 -28 0 -19 -21
22 -50 24 -18 51 -46 59 -63 42 -87 77 -171 77 -188 0 -11 2 -19 5 -19 5 0 46
31 120 88 9 7 129 66 217 107 34 15 38 22 52 83 8 37 20 96 26 132 16 90 39
168 53 177 7 5 13 19 14 33 1 14 5 38 9 53 6 27 5 28 -27 25 -31 -3 -33 -5
-33 -43 l-1 -40 -44 -3 -44 -3 26 35 c32 41 33 52 8 66 -28 14 -30 13 -37 -17z
m123 -45 c-3 -8 -6 -5 -6 6 -1 11 2 17 5 13 3 -3 4 -12 1 -19z m-647 -138 c8
-5 11 -10 5 -10 -5 0 -17 5 -25 10 -8 5 -10 10 -5 10 6 0 17 -5 25 -10z m70
-216 c0 -8 -4 -12 -10 -9 -5 3 -10 10 -10 16 0 5 5 9 10 9 6 0 10 -7 10 -16z
m180 -219 c0 -2 -10 -10 -22 -16 -21 -11 -22 -11 -9 4 13 16 31 23 31 12z"/>
<path d="M1188 128 c-9 -23 3 -38 28 -38 26 0 32 18 12 38 -16 16 -35 15 -40
0z"/>
</g>
</svg>
