<?xml version="1.0" standalone="no"?>
<!DOCTYPE svg PUBLIC "-//W3C//DTD SVG 20010904//EN"
 "http://www.w3.org/TR/2001/REC-SVG-20010904/DTD/svg10.dtd">
<svg version="1.0" xmlns="http://www.w3.org/2000/svg"
 width="104.000000pt" height="228.000000pt" viewBox="0 0 104.000000 228.000000"
 preserveAspectRatio="xMidYMid meet">
<metadata>
Created by potrace 1.16, written by Peter Selinger 2001-2019
</metadata>
<g transform="translate(0.000000,228.000000) scale(0.100000,-0.100000)"
fill="#000000" stroke="none">
<path d="M415 2239 c-6 -27 -10 -30 -32 -24 -24 6 -25 4 -20 -27 3 -18 9 -53
12 -78 l7 -45 -141 3 c-121 3 -142 1 -147 -12 -3 -9 -15 -16 -26 -16 -19 0
-20 -4 -14 -47 4 -27 9 -81 13 -120 6 -73 19 -97 25 -46 4 34 25 40 180 49
l120 7 -3 -122 c-3 -78 0 -119 6 -117 67 30 164 44 311 45 l72 1 7 158 c5 135
14 202 42 353 l5 26 -159 6 c-105 4 -173 11 -202 21 -24 9 -45 16 -46 16 -2 0
-6 -14 -10 -31z m55 -9 c12 -8 9 -10 -13 -10 -16 0 -26 4 -22 10 8 12 16 12
35 0z m44 -36 c3 -9 6 -119 6 -245 0 -146 4 -229 10 -229 6 0 10 88 10 245 l0
245 23 0 24 0 2 -237 c1 -131 -1 -246 -4 -255 -8 -19 -63 -24 -137 -12 l-38 7
0 168 c0 92 5 202 11 243 11 74 12 75 43 79 17 2 34 5 37 5 4 1 10 -5 13 -14z
m250 -87 c5 -55 5 -161 0 -245 l-9 -147 -43 -3 -43 -3 5 240 c3 145 1 243 -5
246 -9 6 -13 -61 -14 -225 -2 -250 -3 -260 -27 -260 l-23 0 0 250 0 251 75 -3
75 -3 9 -98z m36 66 c-5 -16 -11 -37 -13 -48 -3 -11 -5 1 -6 28 -1 35 3 47 13
47 12 0 13 -6 6 -27z m-398 -23 c-6 -41 -12 -38 -12 6 0 19 4 33 8 30 5 -3 7
-19 4 -36z m-17 -167 c4 -36 5 -66 3 -69 -10 -9 -254 -21 -275 -13 -25 9 -31
47 -14 92 8 21 20 27 78 36 37 6 88 13 113 14 25 1 55 3 66 3 20 1 23 -5 29
-63z"/>
<path d="M912 1690 c0 -47 12 -59 28 -30 15 28 9 64 -12 68 -14 3 -17 -5 -16
-38z"/>
<path d="M450 1361 c0 -18 -4 -20 -25 -15 -29 7 -29 5 -14 -81 7 -34 9 -75 5
-90 l-7 -28 -117 7 c-64 4 -128 8 -142 9 -19 1 -25 -3 -25 -18 0 -15 -8 -21
-29 -23 -28 -3 -28 -5 -22 -49 3 -25 6 -81 6 -124 0 -93 18 -107 22 -17 4 72
-11 66 178 68 l135 2 -2 -131 c-1 -117 4 -150 21 -122 8 12 108 28 221 36 136
10 123 -8 124 174 2 157 21 333 41 371 6 11 8 25 5 30 -3 5 -65 9 -138 8 -73
-1 -156 2 -184 6 -50 7 -53 7 -53 -13z m50 -11 c0 -5 -7 -10 -16 -10 -8 0 -12
5 -9 10 3 6 10 10 16 10 5 0 9 -4 9 -10z m117 -65 c6 -29 11 -141 12 -262 l1
-213 -45 0 -44 0 -3 114 c-4 152 5 388 16 404 4 7 18 12 29 10 17 -2 24 -14
34 -53z m20 18 c-3 -10 -5 -4 -5 12 0 17 2 24 5 18 2 -7 2 -21 0 -30z m103
-10 c15 -60 24 -372 13 -433 l-8 -45 -48 -3 -47 -3 0 198 c0 109 3 228 7 266
l6 67 33 0 c30 0 33 -3 44 -47z m50 15 c-5 -18 -10 -44 -12 -58 -2 -16 -7 -5
-14 33 -10 56 -10 57 12 57 20 0 22 -3 14 -32z m-350 8 c0 -3 -4 -8 -10 -11
-5 -3 -10 -1 -10 4 0 6 5 11 10 11 6 0 10 -2 10 -4z m66 -22 c4 -15 7 -52 8
-82 l1 -56 -39 -1 -38 -2 4 68 c5 69 19 99 44 99 8 0 17 -12 20 -26z m-86
-221 c0 -24 -1 -44 -2 -45 -2 -1 -72 -4 -156 -7 l-153 -6 6 22 c15 61 23 71
67 79 80 14 223 19 230 9 4 -5 8 -29 8 -52z m96 10 l1 -53 -39 0 -38 0 0 56 0
55 38 -3 37 -3 1 -52z m-412 -8 c-4 -8 -8 -15 -10 -15 -2 0 -4 7 -4 15 0 8 4
15 10 15 5 0 7 -7 4 -15z m408 -167 l-3 -99 -32 3 -32 3 -3 97 -3 98 38 -2 38
-1 -3 -99z m-42 -122 c0 -2 -9 -6 -20 -9 -11 -3 -20 -1 -20 4 0 5 9 9 20 9 11
0 20 -2 20 -4z"/>
<path d="M915 818 c9 -54 13 -58 31 -33 22 30 14 69 -15 73 -22 4 -23 2 -16
-40z"/>
<path d="M830 623 c0 -3 7 -14 15 -23 8 -9 18 -31 21 -49 l7 -33 -247 4 c-135
2 -247 1 -247 -2 -7 -33 -7 -70 1 -75 6 -4 26 7 46 24 19 17 45 31 57 31 20 0
22 -6 24 -55 l2 -55 -130 0 c-111 0 -136 3 -174 21 -25 12 -47 20 -49 18 -2
-2 -2 -27 1 -55 l5 -50 37 17 c26 13 73 20 174 25 l137 7 0 -61 0 -60 -102 -6
c-108 -6 -230 -10 -262 -7 -16 1 -18 6 -11 44 19 114 19 107 -7 107 -14 0 -27
-2 -29 -5 -3 -2 -1 -32 5 -65 7 -42 7 -67 0 -78 -13 -20 -6 -192 7 -192 5 0 9
20 9 44 0 24 7 59 15 79 l14 35 153 8 c221 13 203 15 204 -28 2 -54 -6 -61
-65 -56 l-51 5 0 -58 c0 -46 3 -59 15 -59 8 0 15 6 15 13 0 22 54 66 85 71 17
3 107 10 201 17 l172 12 4 196 c3 193 4 197 31 242 15 25 27 49 27 52 0 4 -25
7 -55 7 -30 0 -55 -3 -55 -7z m70 -32 c0 -6 -4 -13 -10 -16 -5 -3 -10 1 -10 9
0 9 5 16 10 16 6 0 10 -4 10 -9z m-480 -95 c0 -3 -4 -8 -10 -11 -5 -3 -10 -1
-10 4 0 6 5 11 10 11 6 0 10 -2 10 -4z m321 -92 c4 -49 7 -128 8 -176 l1 -88
-55 0 -56 0 2 117 c3 195 8 231 33 235 60 9 61 8 67 -88z m125 65 c-3 -17 -6
-96 -6 -175 l0 -144 -43 0 -44 0 -6 166 c-4 92 -4 171 -1 175 3 5 28 9 56 9
l51 0 -7 -31z m-286 -23 c0 -36 -4 -45 -21 -49 -28 -7 -33 13 -15 57 20 49 36
45 36 -8z m50 0 c0 -30 -5 -46 -15 -50 -12 -4 -15 4 -15 44 0 38 4 50 15 50
11 0 15 -12 15 -44z m-422 -68 c-6 -18 -28 -21 -28 -4 0 9 7 16 16 16 9 0 14
-5 12 -12z m372 -63 c0 -63 -1 -65 -25 -65 -24 0 -25 2 -25 65 0 63 1 65 25
65 24 0 25 -2 25 -65z m41 52 c-1 -4 -1 -32 -1 -62 0 -30 -4 -55 -10 -55 -6 0
-10 29 -10 66 0 42 4 64 11 62 6 -2 10 -7 10 -11z m-494 -19 c-3 -8 -6 -5 -6
6 -1 11 2 17 5 13 3 -3 4 -12 1 -19z m493 -163 c0 -30 -4 -55 -10 -55 -5 0
-10 25 -10 55 0 30 5 55 10 55 6 0 10 -25 10 -55z m-40 -5 c0 -49 -1 -50 -29
-50 -27 0 -29 3 -27 28 2 15 4 37 5 50 1 17 7 22 26 22 23 0 25 -3 25 -50z
m-140 -79 c0 -5 -7 -14 -15 -21 -12 -10 -15 -10 -15 2 0 8 3 18 7 21 9 10 23
9 23 -2z"/>
<path d="M920 125 c0 -20 5 -25 25 -25 26 0 29 7 19 34 -10 27 -44 20 -44 -9z"/>
</g>
</svg>
