<?xml version="1.0" standalone="no"?>
<!DOCTYPE svg PUBLIC "-//W3C//DTD SVG 20010904//EN"
 "http://www.w3.org/TR/2001/REC-SVG-20010904/DTD/svg10.dtd">
<svg version="1.0" xmlns="http://www.w3.org/2000/svg"
 width="63.000000pt" height="46.000000pt" viewBox="0 0 63.000000 46.000000"
 preserveAspectRatio="xMidYMid meet">
<metadata>
Created by potrace 1.16, written by Peter Selinger 2001-2019
</metadata>
<g transform="translate(0.000000,46.000000) scale(0.100000,-0.100000)"
fill="#000000" stroke="none">
<path d="M306 427 l-48 -11 7 -68 6 -69 -63 7 c-35 4 -71 11 -81 16 -13 7 -19
4 -23 -9 -3 -10 -12 -31 -20 -46 -20 -39 -18 -61 4 -54 9 3 51 17 92 31 41 15
78 26 82 26 5 0 6 -48 2 -106 -6 -89 -5 -106 7 -102 10 3 15 31 19 109 l5 104
134 0 c105 0 135 3 139 14 4 11 -19 13 -132 9 -75 -2 -136 -2 -136 2 0 22 62
130 75 130 8 0 15 7 15 15 0 17 -13 17 -84 2z m14 -39 c-1 -7 -7 -24 -15 -38
l-14 -25 -1 38 c0 26 4 37 15 37 8 0 15 -6 15 -12z m-116 -125 c4 -4 -14 -13
-41 -20 -53 -13 -56 -13 -47 11 6 17 73 23 88 9z"/>
</g>
</svg>
