<?xml version="1.0" standalone="no"?>
<!DOCTYPE svg PUBLIC "-//W3C//DTD SVG 20010904//EN"
 "http://www.w3.org/TR/2001/REC-SVG-20010904/DTD/svg10.dtd">
<svg version="1.0" xmlns="http://www.w3.org/2000/svg"
 width="138.000000pt" height="115.000000pt" viewBox="0 0 138.000000 115.000000"
 preserveAspectRatio="xMidYMid meet">
<metadata>
Created by potrace 1.16, written by Peter Selinger 2001-2019
</metadata>
<g transform="translate(0.000000,115.000000) scale(0.100000,-0.100000)"
fill="#000000" stroke="none">
<path d="M345 1091 l-30 -29 -90 8 c-50 5 -104 12 -121 15 -30 7 -32 5 -37
-27 -3 -18 -2 -36 2 -40 3 -3 35 0 71 7 36 7 94 15 129 17 l64 4 42 -65 c23
-36 53 -86 65 -111 30 -59 61 -100 71 -94 5 3 -3 23 -16 44 -14 22 -25 45 -25
52 0 7 -10 38 -21 68 -12 30 -29 82 -38 114 -10 33 -22 61 -27 63 -5 2 -23
-10 -39 -26z m53 -71 c12 -33 19 -60 17 -60 -9 0 -65 102 -60 111 13 20 24 7
43 -51z m-281 34 c-3 -3 -12 -4 -19 -1 -8 3 -5 6 6 6 11 1 17 -2 13 -5z"/>
<path d="M447 1054 c-4 -4 -7 -21 -7 -37 l0 -30 73 7 c139 14 333 25 444 26
l112 0 10 -37 c6 -21 7 -41 2 -46 -4 -4 -140 -9 -302 -10 l-294 -2 3 -25 c2
-14 6 -27 8 -29 2 -2 54 4 116 12 62 9 195 19 296 22 l182 5 0 -50 c0 -27 5
-52 10 -55 6 -4 10 18 10 58 0 35 5 89 11 121 6 32 8 60 5 63 -3 3 -117 0
-253 -6 -235 -11 -276 -9 -388 14 -17 4 -33 3 -38 -1z m53 -34 c12 -8 9 -10
-12 -10 -16 0 -28 5 -28 10 0 13 20 13 40 0z m35 -120 c-3 -5 -10 -10 -16 -10
-5 0 -9 5 -9 10 0 6 7 10 16 10 8 0 12 -4 9 -10z"/>
<path d="M1157 893 c-9 -14 0 -77 11 -81 13 -4 26 37 20 64 -3 19 -23 30 -31
17z"/>
<path d="M385 689 c-40 -31 -41 -31 -129 -24 -49 3 -97 10 -106 15 -15 8 -18
3 -24 -37 -3 -26 -3 -50 1 -54 5 -4 57 4 118 17 60 13 115 22 121 20 10 -4 51
-80 73 -139 11 -29 12 -29 79 -23 82 8 401 26 460 26 l42 0 0 -40 c0 -22 4
-40 9 -40 5 0 11 51 14 113 3 61 7 121 9 132 3 17 -2 20 -32 17 -19 -2 -40
-10 -46 -18 -9 -11 -52 -14 -225 -16 -118 -1 -221 1 -229 3 -11 3 -16 -6 -18
-35 -3 -36 -2 -38 20 -33 51 13 269 36 361 39 111 3 127 -5 127 -67 l0 -32
-167 -7 c-93 -3 -216 -9 -275 -12 l-106 -7 -11 39 c-6 22 -11 74 -11 117 0 42
-3 77 -7 77 -5 0 -26 -14 -48 -31z m35 -24 c0 -8 -4 -15 -9 -15 -13 0 -22 16
-14 24 11 11 23 6 23 -9z m-147 -26 c-5 -5 -34 -11 -66 -15 -48 -6 -57 -4 -57
9 0 13 12 15 65 15 36 -1 62 -5 58 -9z m757 -14 c0 -28 -15 -34 -24 -9 -10 25
-7 34 9 34 9 0 15 -9 15 -25z m-610 -6 c0 -11 -4 -17 -10 -14 -5 3 -10 13 -10
21 0 8 5 14 10 14 6 0 10 -9 10 -21z m155 -8 c16 -7 13 -9 -17 -13 -27 -3 -38
0 -38 9 0 14 24 16 55 4z"/>
<path d="M1172 668 c6 -18 28 -21 28 -4 0 9 -7 16 -16 16 -9 0 -14 -5 -12 -12z"/>
<path d="M1135 468 c4 -24 9 -45 11 -47 9 -10 23 17 26 49 3 30 0 35 -21 38
-22 4 -23 2 -16 -40z"/>
<path d="M332 310 c-31 -36 -36 -38 -75 -34 -23 3 -51 7 -61 11 -17 5 -18 1
-13 -32 3 -21 8 -39 11 -42 2 -2 28 3 57 11 29 9 54 16 56 16 1 0 15 -23 29
-52 18 -35 27 -70 28 -105 0 -29 6 -53 11 -53 17 1 123 27 132 33 10 6 59 11
308 27 88 6 168 13 178 16 12 4 17 0 17 -15 0 -12 4 -21 9 -21 5 0 12 42 14
93 2 50 8 104 12 118 7 27 7 27 -42 22 -57 -7 -60 -8 -43 -28 11 -13 4 -15
-56 -16 -38 -1 -80 -3 -94 -4 -14 -2 -109 -5 -212 -7 l-188 -3 0 -32 c0 -38
-2 -37 69 -18 57 15 210 30 393 39 l106 6 11 -32 c6 -17 11 -41 11 -54 0 -25
-15 -27 -210 -40 -394 -25 -396 -25 -405 24 -4 19 -5 74 -4 121 2 48 -1 86 -6
87 -6 1 -25 -15 -43 -36z m28 -25 c0 -8 -4 -15 -10 -15 -5 0 -7 7 -4 15 4 8 8
15 10 15 2 0 4 -7 4 -15z m647 -42 c-3 -10 -5 -4 -5 12 0 17 2 24 5 18 2 -7 2
-21 0 -30z m-647 -20 c0 -22 -2 -25 -10 -13 -13 20 -13 40 0 40 6 0 10 -12 10
-27z m103 -10 c-7 -2 -19 -2 -25 0 -7 3 -2 5 12 5 14 0 19 -2 13 -5z"/>
<path d="M1120 136 c-7 -10 -8 -21 -3 -31 13 -22 47 3 37 28 -8 21 -18 22 -34
3z"/>
</g>
</svg>
