<?xml version="1.0" standalone="no"?>
<!DOCTYPE svg PUBLIC "-//W3C//DTD SVG 20010904//EN"
 "http://www.w3.org/TR/2001/REC-SVG-20010904/DTD/svg10.dtd">
<svg version="1.0" xmlns="http://www.w3.org/2000/svg"
 width="129.000000pt" height="135.000000pt" viewBox="0 0 129.000000 135.000000"
 preserveAspectRatio="xMidYMid meet">
<metadata>
Created by potrace 1.16, written by Peter Selinger 2001-2019
</metadata>
<g transform="translate(0.000000,135.000000) scale(0.100000,-0.100000)"
fill="#000000" stroke="none">
<path d="M131 1255 c-41 -36 -78 -65 -83 -65 -14 0 -9 -27 8 -41 14 -11 19 -9
37 16 12 17 45 55 74 86 29 31 53 59 53 62 0 16 -19 3 -89 -58z"/>
<path d="M703 1230 c-51 -49 -93 -93 -93 -97 0 -4 16 -19 35 -32 22 -15 46
-46 66 -87 17 -35 35 -62 39 -59 4 3 5 24 3 47 -5 48 30 237 53 282 17 35 17
36 2 36 -7 -1 -55 -41 -105 -90z m51 -43 c-7 -35 -14 -85 -16 -111 l-3 -47
-18 23 c-10 13 -32 38 -49 56 -26 28 -29 35 -17 47 15 14 113 95 115 95 1 0
-4 -28 -12 -63z"/>
<path d="M249 1243 c-89 -4 -84 3 -84 -123 0 -85 0 -85 25 -82 135 15 140 15
140 -3 0 -13 6 -16 23 -11 12 3 57 11 100 18 42 6 77 15 77 19 0 4 -40 11 -90
15 -49 3 -90 10 -90 14 0 9 76 20 132 20 70 0 36 21 -39 25 -88 4 -115 16 -58
27 22 4 61 7 88 7 26 1 47 6 47 11 0 6 -33 10 -77 10 -94 0 -82 16 20 26 37 4
67 11 67 15 0 5 -37 9 -82 9 -46 0 -92 2 -103 3 -11 2 -54 2 -96 0z m81 -33
c0 -18 -7 -20 -57 -20 -64 0 -64 5 -2 24 59 19 59 19 59 -4z m0 -85 l0 -45
-52 1 c-29 1 -64 4 -78 8 -21 6 -22 8 -8 14 10 3 40 9 68 13 72 9 72 24 1 24
-69 0 -92 17 -29 22 24 2 55 4 71 6 26 2 27 0 27 -43z m-130 -65 c0 -5 -2 -10
-4 -10 -3 0 -8 5 -11 10 -3 6 -1 10 4 10 6 0 11 -4 11 -10z"/>
<path d="M801 1110 l0 -132 25 6 c13 4 45 9 72 12 26 3 59 7 75 9 20 3 27 0
27 -11 0 -13 7 -15 28 -11 15 3 62 11 105 17 42 7 77 17 77 21 0 5 -43 9 -96
9 -137 0 -116 17 46 38 31 4 53 11 50 17 -3 6 -14 9 -25 8 -11 -1 -53 0 -94 3
-94 8 -75 22 40 32 44 4 79 11 79 16 0 5 -38 11 -86 12 -140 6 -138 28 3 39
51 5 83 12 83 19 0 8 -50 12 -163 13 -89 1 -181 5 -204 8 l-42 6 0 -131z m39
100 c0 -5 -5 -10 -11 -10 -5 0 -7 5 -4 10 3 6 8 10 11 10 2 0 4 -4 4 -10z
m160 -25 c0 -24 -3 -25 -52 -24 -29 0 -71 4 -93 8 l-40 8 37 7 c21 5 61 12 90
16 29 4 54 8 56 9 1 0 2 -10 2 -24z m-2 -79 c4 -16 -1 -18 -50 -12 -144 18
-154 22 -71 35 67 9 117 0 121 -23z m39 28 c-3 -3 -12 -4 -19 -1 -8 3 -5 6 6
6 11 1 17 -2 13 -5z m-187 -54 c0 -5 -4 -10 -10 -10 -5 0 -10 5 -10 10 0 6 5
10 10 10 6 0 10 -4 10 -10z m153 -24 c3 -8 3 -17 0 -20 -9 -9 -133 -6 -163 4
-27 9 -26 9 35 16 21 3 41 7 44 10 11 11 79 3 84 -10z"/>
<path d="M56 1102 l-16 -32 37 -23 c21 -14 47 -34 57 -46 17 -19 46 -29 46
-16 0 3 -17 28 -38 55 -20 27 -44 59 -53 72 l-16 22 -17 -32z"/>
<path d="M1273 1000 c1 -22 5 -40 9 -40 4 0 8 18 8 40 0 22 -4 40 -9 40 -6 0
-9 -18 -8 -40z"/>
<path d="M572 985 c1 -50 16 -55 31 -12 11 33 3 57 -17 57 -10 0 -14 -12 -14
-45z"/>
<path d="M985 780 c-3 -5 -3 -41 0 -80 9 -108 7 -110 -80 -110 -68 0 -99 10
-76 24 5 4 37 9 70 12 75 8 80 24 9 24 -58 0 -92 13 -64 23 9 4 38 9 66 13 70
9 67 32 -4 26 -75 -6 -79 13 -6 28 33 7 60 15 60 19 0 3 -38 7 -85 7 l-85 2 4
-72 c1 -39 6 -78 9 -86 3 -8 7 -26 9 -40 3 -28 13 -29 108 -11 34 7 56 7 60 1
4 -6 28 -6 65 0 33 5 82 10 108 10 35 0 47 4 44 13 -2 7 -16 11 -32 9 -41 -5
-155 8 -155 18 0 4 41 11 90 15 62 5 90 11 87 19 -3 6 -11 9 -18 8 -25 -6
-159 9 -159 18 0 5 20 11 45 14 25 3 65 9 90 12 77 9 49 24 -46 24 -50 0 -88
4 -85 9 3 5 46 12 96 16 49 4 90 11 90 16 0 5 -36 9 -79 9 -44 0 -91 4 -105
10 -15 5 -28 6 -31 0z m-148 -36 c-3 -3 -12 -4 -19 -1 -8 3 -5 6 6 6 11 1 17
-2 13 -5z"/>
<path d="M129 751 c-8 -10 -31 -40 -52 -65 l-39 -45 39 -39 c21 -21 51 -54 67
-72 l28 -35 -7 40 c-4 22 -9 82 -11 134 -2 52 -5 96 -7 98 -3 2 -10 -5 -18
-16z m6 -115 l7 -69 -37 36 -38 37 28 35 c15 20 28 35 30 33 1 -2 6 -34 10
-72z"/>
<path d="M175 762 c-3 -3 -5 -27 -5 -54 0 -49 1 -49 28 -44 15 3 47 8 72 12
70 10 83 23 25 24 -56 0 -88 13 -60 24 9 3 34 6 56 6 52 0 50 17 -3 24 -92 11
-108 12 -113 8z"/>
<path d="M384 714 c4 -32 8 -59 10 -61 1 -2 16 1 32 6 16 5 55 12 87 16 31 4
57 10 57 15 0 5 -39 11 -87 12 -78 3 -85 4 -61 15 15 7 54 13 88 15 92 5 78
26 -19 27 -43 0 -86 4 -96 7 -15 6 -16 1 -11 -52z"/>
<path d="M696 704 c-61 -49 -69 -64 -32 -64 34 0 89 -40 105 -78 8 -17 21 -32
28 -32 10 0 6 14 -13 46 -24 41 -26 51 -20 110 4 38 3 64 -3 64 -5 0 -34 -20
-65 -46z m50 -10 c-3 -9 -6 -26 -6 -39 0 -24 0 -24 -30 -7 l-30 17 27 22 c33
27 48 29 39 7z"/>
<path d="M177 629 c-9 -35 -1 -38 56 -23 28 7 62 14 75 14 12 0 22 5 22 10 0
6 -20 10 -44 10 -24 0 -57 3 -73 6 -25 5 -31 2 -36 -17z"/>
<path d="M376 642 c-9 -8 -7 -40 2 -46 13 -8 187 18 184 28 -1 5 -28 9 -60 7
-31 -1 -71 3 -89 8 -17 5 -34 7 -37 3z"/>
<path d="M184 571 c-7 -7 -4 -25 5 -40 7 -10 16 -11 42 -2 19 6 51 13 72 16
20 3 37 10 37 15 0 8 -148 19 -156 11z"/>
<path d="M380 548 c0 -27 3 -30 23 -24 12 3 59 9 105 12 45 4 82 11 82 16 0
13 -16 16 -117 22 l-93 5 0 -31z"/>
<path d="M1249 548 c-1 -2 -3 -22 -4 -45 -2 -31 1 -43 10 -43 15 0 31 62 20
79 -5 10 -23 15 -26 9z"/>
<path d="M645 530 c-4 -6 -2 -17 4 -24 6 -7 9 -21 5 -30 -9 -23 13 -20 26 4
20 37 -14 84 -35 50z"/>
<path d="M68 302 c-35 -21 -35 -29 2 -102 17 -33 30 -64 30 -69 0 -5 4 -22 10
-36 14 -37 31 -23 20 16 -5 17 -11 71 -12 120 -2 51 -7 89 -13 89 -5 0 -22 -8
-37 -18z m30 -97 c0 -13 -5 -9 -14 14 -8 18 -12 41 -8 50 5 12 9 9 14 -14 4
-16 8 -39 8 -50z"/>
<path d="M354 200 c3 -62 7 -115 10 -117 3 -3 19 0 37 6 18 6 58 11 90 11 33
0 59 4 59 10 0 6 -21 10 -47 10 -27 0 -65 3 -86 7 -50 8 -29 23 33 23 25 0 55
3 67 6 43 12 11 24 -62 24 -134 0 -93 21 67 35 48 4 20 14 -56 20 -47 4 -86
11 -86 15 0 10 62 20 123 20 78 0 53 17 -35 23 -46 3 -91 9 -101 13 -17 6 -18
-1 -13 -106z"/>
<path d="M700 297 c0 -7 5 -28 10 -48 12 -43 17 -87 19 -156 2 -86 21 -62 21
26 0 57 6 92 20 126 11 26 18 50 15 55 -8 13 -85 10 -85 -3z m53 -35 c-3 -12
-9 -22 -14 -22 -14 0 -11 38 4 43 16 6 17 5 10 -21z"/>
<path d="M985 298 c-3 -7 1 -44 8 -83 12 -59 17 -70 33 -68 10 2 52 6 92 9 86
8 96 24 15 25 -69 1 -92 4 -105 17 -9 9 96 24 136 19 10 -1 21 4 23 11 3 8
-10 12 -49 12 -67 0 -128 10 -128 21 0 4 35 9 78 11 90 3 94 19 7 25 -33 2
-70 6 -83 8 -13 3 -24 0 -27 -7z"/>
<path d="M162 223 l3 -78 75 4 c41 2 78 5 83 8 19 11 -9 23 -56 24 -29 0 -61
4 -72 9 -17 6 -15 9 15 14 19 3 51 7 70 8 54 4 37 23 -25 26 -42 2 -57 7 -65
22 -7 12 -7 20 -1 20 5 0 11 -5 13 -10 5 -15 110 2 116 18 3 9 -17 12 -78 12
l-81 0 3 -77z"/>
<path d="M805 229 c2 -39 6 -73 9 -76 9 -9 176 19 170 28 -3 5 -34 9 -69 9
-87 0 -91 16 -5 25 39 4 70 11 70 16 0 5 -29 9 -64 9 -84 0 -93 16 -15 25 77
9 65 21 -28 28 l-72 6 4 -70z"/>
<path d="M814 114 c4 -16 9 -30 10 -31 5 -6 166 22 166 28 0 3 -30 9 -67 13
-38 4 -79 10 -92 13 -22 5 -23 4 -17 -23z"/>
<path d="M170 104 c0 -22 3 -22 78 -17 42 3 79 7 81 10 13 11 -23 21 -86 25
-70 3 -73 3 -73 -18z"/>
<path d="M1010 105 c0 -26 2 -27 38 -21 20 3 65 9 100 13 68 6 85 23 23 23
-21 0 -66 3 -100 6 l-61 7 0 -28z"/>
<path d="M1257 123 c-15 -15 -7 -43 13 -43 15 0 20 7 20 25 0 24 -18 34 -33
18z"/>
<path d="M619 118 c-1 -2 -3 -20 -4 -40 -1 -26 2 -38 11 -38 16 0 29 43 20 65
-4 13 -23 21 -27 13z"/>
</g>
</svg>
