<?xml version="1.0" standalone="no"?>
<!DOCTYPE svg PUBLIC "-//W3C//DTD SVG 20010904//EN"
 "http://www.w3.org/TR/2001/REC-SVG-20010904/DTD/svg10.dtd">
<svg version="1.0" xmlns="http://www.w3.org/2000/svg"
 width="89.000000pt" height="130.000000pt" viewBox="0 0 89.000000 130.000000"
 preserveAspectRatio="xMidYMid meet">
<metadata>
Created by potrace 1.16, written by Peter Selinger 2001-2019
</metadata>
<g transform="translate(0.000000,130.000000) scale(0.100000,-0.100000)"
fill="#000000" stroke="none">
<path d="M110 1260 c-8 -5 -25 -10 -37 -10 -27 0 -28 -9 -8 -74 10 -32 15 -92
15 -173 0 -75 4 -123 10 -123 6 0 10 36 10 89 l0 89 30 6 c93 18 77 30 165
-115 44 -72 84 -141 90 -153 7 -15 11 18 15 121 3 78 10 146 15 152 6 5 88 12
183 14 168 5 172 5 183 -16 7 -11 17 -80 23 -152 7 -80 15 -125 20 -116 5 7 5
56 2 110 -5 71 -3 113 8 161 8 36 12 68 8 72 -4 4 -24 -3 -43 -16 -35 -24 -38
-24 -302 -25 l-266 -1 -19 27 c-25 36 -62 113 -62 130 0 15 -19 17 -40 3z m30
-43 c0 -5 -4 -5 -10 -2 -5 3 -10 14 -10 23 0 15 2 15 10 2 5 -8 10 -19 10 -23z
m-50 -14 c0 -22 -2 -25 -10 -13 -13 20 -13 40 0 40 6 0 10 -12 10 -27z m93
-73 l18 -30 -34 0 c-50 0 -65 17 -59 68 l4 44 27 -26 c14 -14 34 -39 44 -56z
m633 -57 c-11 -11 -19 6 -11 24 8 17 8 17 12 0 3 -10 2 -21 -1 -24z m-445 -8
c4 -11 8 -65 8 -119 l1 -100 -68 115 c-75 126 -75 124 10 124 32 0 43 -5 49
-20z"/>
<path d="M191 596 c-11 -20 -9 -28 18 -68 17 -25 37 -51 46 -58 8 -7 15 -19
15 -28 0 -12 -9 -14 -46 -8 -26 3 -57 6 -70 6 -21 0 -24 5 -24 39 0 22 4 51
10 65 9 24 8 26 -21 26 -26 0 -30 -3 -24 -17 5 -10 9 -52 11 -93 2 -41 7 -76
13 -78 5 -2 23 4 40 12 16 9 55 16 85 16 l54 0 64 -97 c87 -132 96 -150 103
-206 3 -26 11 -47 16 -47 6 0 8 17 5 43 -13 110 -16 239 -6 276 l11 41 145 0
c104 0 143 3 138 11 -5 8 -76 10 -241 8 l-234 -4 -35 54 c-18 30 -37 70 -40
88 -8 42 -18 48 -33 19z m247 -225 c13 -54 25 -161 19 -161 -2 0 -26 33 -52
73 -26 39 -56 84 -66 99 -21 30 -18 32 52 34 35 1 36 -1 47 -45z"/>
<path d="M765 532 c-2 -2 3 -25 11 -50 8 -28 14 -95 15 -167 0 -66 5 -131 9
-145 11 -34 12 -25 10 131 -1 104 2 146 14 174 9 21 16 41 16 45 0 8 -68 19
-75 12z"/>
</g>
</svg>
