<?xml version="1.0" standalone="no"?>
<!DOCTYPE svg PUBLIC "-//W3C//DTD SVG 20010904//EN"
 "http://www.w3.org/TR/2001/REC-SVG-20010904/DTD/svg10.dtd">
<svg version="1.0" xmlns="http://www.w3.org/2000/svg"
 width="102.000000pt" height="75.000000pt" viewBox="0 0 102.000000 75.000000"
 preserveAspectRatio="xMidYMid meet">
<metadata>
Created by potrace 1.16, written by Peter Selinger 2001-2019
</metadata>
<g transform="translate(0.000000,75.000000) scale(0.100000,-0.100000)"
fill="#000000" stroke="none">
<path d="M208 699 c-7 -4 -6 -14 2 -29 8 -14 10 -67 8 -160 l-3 -138 -55 5
c-30 2 -61 6 -67 9 -18 5 -17 165 2 234 21 77 20 80 -21 80 -36 0 -36 -1 -30
-32 4 -18 10 -117 13 -220 3 -104 9 -188 14 -188 5 0 9 16 9 35 0 38 7 42 90
47 38 3 45 0 44 -14 -1 -10 2 -18 7 -18 5 0 9 9 9 20 0 19 7 20 171 20 l171 0
57 -57 c31 -32 76 -91 99 -130 24 -40 47 -73 52 -73 15 0 12 16 -5 30 -8 7
-15 16 -15 21 0 4 -21 43 -47 86 -27 43 -57 97 -67 121 -18 40 -38 53 -51 32
-4 -6 -75 -10 -181 -10 l-175 0 3 63 3 62 225 -3 225 -3 45 -47 c48 -49 94
-116 150 -215 23 -41 36 -55 43 -48 7 7 6 16 -5 28 -38 45 -141 236 -154 288
-6 26 -18 32 -29 15 -8 -13 -182 -5 -368 16 -71 8 -131 14 -133 14 -10 0 -3
71 11 103 22 52 19 65 -11 63 -14 0 -30 -4 -36 -7z m34 -31 c-7 -7 -12 -8 -12
-2 0 14 12 26 19 19 2 -3 -1 -11 -7 -17z m-165 -25 c-3 -10 -5 -4 -5 12 0 17
2 24 5 18 2 -7 2 -21 0 -30z m686 -173 c3 -11 3 -20 1 -20 -2 0 -8 9 -14 20
-6 11 -7 20 -2 20 6 0 12 -9 15 -20z m-663 -110 c0 -5 -4 -10 -10 -10 -5 0
-10 5 -10 10 0 6 5 10 10 10 6 0 10 -4 10 -10z m525 -10 c3 -5 1 -10 -4 -10
-6 0 -11 5 -11 10 0 6 2 10 4 10 3 0 8 -4 11 -10z"/>
</g>
</svg>
