<?xml version="1.0" standalone="no"?>
<!DOCTYPE svg PUBLIC "-//W3C//DTD SVG 20010904//EN"
 "http://www.w3.org/TR/2001/REC-SVG-20010904/DTD/svg10.dtd">
<svg version="1.0" xmlns="http://www.w3.org/2000/svg"
 width="129.000000pt" height="386.000000pt" viewBox="0 0 129.000000 386.000000"
 preserveAspectRatio="xMidYMid meet">
<metadata>
Created by potrace 1.16, written by Peter Selinger 2001-2019
</metadata>
<g transform="translate(0.000000,386.000000) scale(0.100000,-0.100000)"
fill="#000000" stroke="none">
<path d="M945 3800 c-18 -20 -18 -21 4 -44 l22 -24 -66 -7 c-37 -4 -113 -4
-168 0 -56 3 -140 7 -187 8 l-85 2 -6 -45 c-3 -24 -2 -60 2 -80 5 -19 9 -91 9
-159 0 -113 1 -123 18 -116 54 23 107 29 300 34 116 3 212 3 212 0 0 -9 -38
-47 -52 -51 -10 -4 -10 -10 -1 -31 7 -15 16 -27 20 -27 5 0 23 28 41 61 l32
60 -20 26 c-12 16 -20 41 -20 64 0 47 -9 49 -39 9 -18 -25 -19 -31 -7 -36 8
-3 17 -12 20 -20 3 -7 -58 18 -134 56 -126 63 -164 90 -127 90 6 0 57 20 112
45 101 46 128 54 108 34 -8 -8 -8 -18 -1 -35 15 -32 24 -30 32 7 3 18 22 47
41 65 36 33 46 58 21 48 -15 -6 -46 42 -46 71 0 21 -13 19 -35 -5z m-365 -138
l0 -37 -46 3 c-35 3 -44 7 -40 19 3 8 6 19 6 24 0 7 45 25 73 28 4 1 7 -16 7
-37z m299 4 c-117 -58 -199 -86 -220 -75 -11 5 -19 14 -19 19 0 6 -9 10 -20
10 -17 0 -20 7 -20 40 l0 40 173 -1 172 0 -66 -33z m-299 -76 c0 -12 -9 -15
-40 -12 -33 3 -40 1 -40 -13 0 -14 7 -16 38 -14 l37 4 3 -82 3 -83 -33 0 c-52
0 -58 13 -58 120 l0 95 45 0 c34 0 45 -4 45 -15z m40 -24 c0 -3 -4 -8 -10 -11
-5 -3 -10 -1 -10 4 0 6 5 11 10 11 6 0 10 -2 10 -4z m188 -95 c157 -80 157
-79 -60 -81 l-148 -1 0 53 c0 55 26 98 59 98 9 -1 76 -32 149 -69z"/>
<path d="M502 3499 c2 -6 7 -10 11 -10 4 1 18 1 32 1 14 0 25 5 25 10 0 6 -16
10 -36 10 -21 0 -34 -4 -32 -11z"/>
<path d="M510 3454 c0 -11 8 -14 25 -12 35 4 36 22 3 25 -19 1 -28 -3 -28 -13z"/>
<path d="M294 3766 c-14 -35 1 -59 44 -74 38 -12 59 -42 30 -42 -18 0 -65 33
-82 56 -14 18 -15 18 -25 -9 -14 -37 -9 -44 38 -52 45 -7 70 -30 54 -46 -12
-12 -80 19 -103 46 -13 16 -15 16 -21 -2 -17 -41 -11 -53 29 -54 20 -1 48 -4
62 -9 l25 -7 -25 -10 c-27 -11 -87 -6 -96 8 -11 18 -24 8 -24 -19 0 -42 16
-53 56 -36 42 18 54 18 54 0 0 -13 -72 -46 -102 -46 -27 0 -28 -15 -3 -44 13
-15 26 -33 28 -39 2 -7 23 7 48 31 49 48 61 51 82 20 22 -34 29 -17 16 39 -10
44 -9 59 11 124 l22 73 -24 18 c-45 36 -68 60 -68 74 0 18 -19 18 -26 0z m36
-281 c0 -5 -84 -55 -94 -55 -15 0 7 21 42 40 37 19 52 24 52 15z"/>
<path d="M288 3399 c-32 -24 -34 -34 -13 -55 13 -14 18 -13 43 5 58 41 64 67
9 40 -20 -9 -20 -9 -4 4 39 32 6 37 -35 6z"/>
<path d="M352 3344 c-19 -13 -31 -44 -17 -44 11 0 65 44 65 52 0 13 -24 9 -48
-8z"/>
<path d="M1185 3310 c-3 -5 -3 -16 2 -22 4 -7 8 -22 8 -33 0 -11 7 -20 15 -20
17 0 36 46 27 69 -7 18 -42 22 -52 6z"/>
<path d="M926 3054 c-21 -18 -27 -30 -20 -39 5 -7 19 -27 32 -44 l23 -31 -178
-1 c-98 0 -225 0 -283 1 -58 1 -117 2 -132 3 -22 0 -30 8 -48 48 -22 53 -34
60 -50 29 -6 -11 -17 -20 -25 -20 -8 0 -15 -7 -15 -15 0 -8 -7 -15 -15 -15 -9
0 -18 -8 -22 -17 -3 -10 -20 -30 -37 -45 -30 -27 -31 -28 -11 -43 11 -8 30
-25 43 -36 29 -28 40 -17 18 16 -10 15 -16 33 -14 42 2 13 9 11 36 -12 l33
-28 -21 -22 c-12 -13 -48 -31 -81 -42 -56 -17 -59 -20 -59 -50 0 -36 10 -42
31 -17 20 25 96 74 103 67 15 -16 2 -31 -45 -53 -57 -27 -62 -32 -53 -54 8
-20 30 -21 37 -2 3 8 22 26 42 41 34 27 36 27 49 9 19 -25 13 -32 -51 -60 -48
-22 -53 -26 -43 -44 12 -23 26 -26 37 -7 4 7 25 25 45 41 34 25 37 26 46 9 9
-15 3 -22 -31 -45 -23 -15 -50 -28 -59 -28 -22 0 -23 -23 -3 -40 12 -10 22 -5
56 29 23 22 45 41 49 41 4 0 14 -18 23 -41 14 -36 19 -40 39 -33 13 5 152 8
311 9 303 0 292 2 234 -40 -15 -10 -17 -19 -10 -44 11 -42 24 -44 36 -6 11 35
45 75 64 75 17 0 17 21 -2 56 -8 16 -15 48 -15 72 0 52 -18 55 -44 7 l-19 -35
23 -20 c13 -11 21 -23 18 -26 -7 -7 -388 146 -388 156 0 4 17 15 38 23 20 8
71 31 112 50 101 48 210 88 210 78 0 -5 -9 -20 -20 -34 -24 -30 -25 -43 -4
-51 35 -13 44 -7 44 32 0 21 7 48 16 60 13 18 13 29 4 57 -6 19 -10 51 -8 72
4 45 -9 50 -46 17z m-597 -160 c-15 -14 -18 -13 -37 18 -11 18 -23 44 -27 58
-6 22 -2 20 36 -17 40 -39 42 -44 28 -59z m-66 11 c16 -19 26 -39 22 -45 -7
-11 -32 16 -54 58 -17 32 0 26 32 -13z m602 6 c-22 -21 -281 -120 -334 -127
l-34 -4 7 52 c4 29 12 58 17 64 6 8 52 12 131 13 67 0 122 2 124 3 1 2 24 4
51 6 30 1 44 -1 38 -7z m-397 -13 c7 -7 12 -27 12 -45 0 -27 -4 -33 -22 -33
-44 0 -88 23 -88 46 0 20 22 32 81 43 3 1 10 -4 17 -11z m-124 -100 c-3 -46
-7 -98 -10 -117 l-5 -34 -35 67 c-19 37 -34 73 -34 81 0 11 75 85 86 85 2 0 1
-37 -2 -82z m91 -5 c45 7 63 -6 25 -16 -35 -9 -100 4 -100 21 0 12 3 12 15 2
10 -8 31 -11 60 -7z m45 -68 c0 -24 -3 -25 -56 -25 -39 0 -54 -4 -52 -12 3 -8
23 -11 57 -9 41 2 52 -1 49 -11 -5 -14 -10 -15 -71 -17 -26 -1 -37 -5 -34 -13
3 -9 21 -12 55 -10 48 4 52 2 52 -18 0 -21 -3 -22 -57 -15 -32 4 -59 8 -60 9
-3 3 -6 53 -5 90 1 22 5 37 8 33 3 -3 20 1 37 8 52 23 77 19 77 -10z m134 -23
c16 -8 52 -22 80 -32 28 -11 92 -35 141 -54 l90 -35 -166 -1 c-91 0 -187 3
-213 6 l-46 7 0 55 c0 81 31 96 114 54z"/>
<path d="M1223 2508 c3 -50 26 -59 41 -17 12 34 2 59 -24 59 -17 0 -19 -6 -17
-42z"/>
<path d="M1013 2355 c-23 -18 -48 -35 -55 -38 -9 -3 -3 -15 18 -38 32 -36 64
-79 64 -89 0 -6 -470 -3 -591 4 -36 2 -80 10 -97 18 -34 17 -42 14 -42 -14 0
-22 -26 -24 -34 -2 -3 9 -6 31 -6 50 0 39 -22 47 -40 14 -6 -11 -16 -20 -23
-20 -7 0 -34 -21 -62 -46 -27 -25 -59 -53 -70 -62 -11 -10 -25 -32 -32 -50
-10 -29 -9 -34 5 -38 47 -15 62 -25 68 -48 6 -24 11 -20 91 63 63 66 90 88
108 87 l24 -1 -23 -30 c-12 -16 -46 -62 -74 -101 -49 -68 -70 -83 -132 -99
-56 -14 -80 -28 -80 -46 0 -10 4 -21 10 -24 5 -3 10 -17 10 -31 0 -31 7 -30
42 3 24 23 31 25 38 13 12 -19 5 -27 -30 -35 -17 -4 -30 -11 -30 -16 0 -16 60
-129 68 -129 4 0 13 9 20 20 6 11 29 29 51 39 34 18 40 18 45 5 4 -12 10 -13
26 -4 11 6 20 15 20 21 0 6 -4 8 -9 4 -5 -3 -12 -1 -16 5 -8 14 28 13 42 -1 7
-7 113 -11 327 -11 174 0 316 -2 316 -3 0 -2 -30 -27 -67 -56 l-66 -52 28 -20
c15 -11 34 -35 41 -54 18 -42 30 -42 39 0 11 52 72 169 108 207 18 19 52 52
75 73 24 21 40 42 37 48 -4 5 -34 -15 -67 -46 -34 -30 -65 -55 -69 -55 -4 0
-72 23 -151 51 -78 28 -165 57 -193 66 -70 21 -105 41 -105 58 0 13 44 38 115
66 11 4 72 29 135 54 63 26 143 59 178 73 54 22 65 24 73 11 5 -7 9 -17 9 -20
0 -3 -38 -43 -85 -88 l-86 -82 19 -27 c10 -15 31 -53 45 -85 15 -32 31 -56 36
-53 5 3 11 25 15 48 7 50 76 258 85 258 3 0 24 -27 46 -60 22 -33 43 -60 47
-60 16 0 7 23 -27 67 -44 58 -53 88 -31 112 16 17 22 41 10 41 -3 0 -14 -10
-24 -22 -15 -18 -19 -20 -23 -8 -12 36 -27 109 -33 157 -3 29 -9 55 -12 57 -4
2 -26 -12 -49 -29z m46 -76 c7 -34 15 -67 18 -75 3 -8 0 -14 -6 -14 -6 0 -11
4 -11 10 0 5 -16 31 -36 57 l-36 47 24 18 c13 9 26 18 29 18 4 0 12 -27 18
-61z m-809 -89 c18 -26 20 -33 9 -46 -12 -14 -15 -14 -31 6 -18 23 -23 51 -11
63 9 10 10 10 33 -23z m-48 -44 l27 -34 -24 -22 c-29 -27 -44 -23 -68 19 -22
37 -9 41 23 6 40 -43 57 -25 20 22 -11 14 -20 30 -20 34 0 18 16 8 42 -25z
m289 14 c5 0 9 -9 9 -21 0 -19 -4 -20 -42 -14 -24 3 -51 9 -60 11 -14 4 -18
-1 -18 -18 0 -23 2 -24 60 -20 56 4 60 3 60 -17 0 -18 -6 -21 -42 -21 -78 0
-88 7 -88 56 l0 43 43 4 c23 2 48 2 55 0 8 -2 18 -3 23 -3z m414 -36 c-105
-46 -308 -122 -350 -130 -39 -7 -42 2 -37 104 l4 62 231 0 232 -1 -80 -35z
m-559 -351 c-7 -17 -36 -5 -36 15 0 8 -12 49 -26 91 l-26 75 44 84 43 85 3
-169 c1 -92 0 -174 -2 -181z m-222 311 c20 -21 24 -30 15 -41 -10 -11 -16 -10
-35 8 -26 25 -38 59 -19 59 7 0 24 -12 39 -26z m934 -55 c-11 -30 -29 -85 -38
-123 l-17 -70 -26 58 c-15 32 -27 61 -27 64 0 8 123 132 127 129 1 -2 -7 -28
-19 -58z m-568 -4 c0 -12 -13 -15 -60 -15 -94 0 -74 25 23 29 27 1 37 -3 37
-14z m0 -48 c0 -21 -4 -22 -60 -19 -34 2 -60 8 -60 15 0 5 2 8 5 5 3 -3 21 0
39 6 56 19 76 18 76 -7z m-224 -124 c-2 -2 -13 16 -26 40 -16 30 -21 50 -15
63 6 15 11 7 26 -41 10 -32 17 -61 15 -62z m267 101 c3 -3 0 -15 -6 -25 -15
-24 -1 -35 58 -44 22 -4 114 -31 205 -61 217 -71 198 -63 177 -75 -9 -6 -21
-8 -25 -5 -4 2 -73 5 -152 6 -80 1 -175 4 -212 7 l-68 6 0 98 c0 90 5 111 23
93z m-43 -70 l0 -55 -47 6 c-27 3 -54 6 -60 7 -7 1 -13 11 -13 22 0 12 3 16 8
10 8 -12 102 -6 102 7 0 5 -15 9 -32 9 -41 0 -78 10 -78 20 0 12 50 28 88 29
l32 1 0 -56z m-290 27 c0 -5 -14 -14 -31 -20 -39 -13 -39 -13 -39 -1 0 5 15
14 33 19 17 5 33 10 35 10 1 1 2 -3 2 -8z m-101 -52 c-8 -5 -21 -9 -29 -9 -10
1 -7 7 10 21 17 14 26 17 28 9 3 -7 -2 -16 -9 -21z m131 7 c0 -17 -45 -40 -64
-33 -25 10 -19 26 17 41 34 14 47 12 47 -8z m20 -44 c0 -5 -16 -16 -35 -25
-27 -13 -35 -14 -35 -4 0 7 12 18 28 24 35 14 42 15 42 5z m240 -32 l0 -30
-60 0 c-53 0 -60 2 -60 20 0 20 15 26 80 33 19 2 36 5 38 5 1 1 2 -11 2 -28z
m-239 -26 c-32 -27 -51 -31 -51 -11 0 14 60 47 73 40 4 -2 -6 -15 -22 -29z
m-91 17 c0 -10 -24 -21 -43 -21 -7 0 -3 7 7 15 22 17 36 19 36 6z m18 -48 c-2
-12 -14 -19 -33 -21 l-30 -2 24 20 c29 25 44 26 39 3z m799 -40 c-15 -26 -57
-126 -57 -136 0 -7 -9 3 -20 21 -27 44 -25 52 23 89 41 30 63 41 54 26z"/>
<path d="M1077 1480 l-19 -40 24 -19 c12 -11 20 -23 15 -27 -4 -4 -152 -9
-330 -12 -307 -3 -324 -3 -360 16 l-38 20 -8 -20 c-7 -19 -8 -19 -25 7 -9 14
-16 38 -14 53 2 15 -2 27 -8 27 -12 0 -81 -56 -140 -112 -18 -18 -37 -33 -42
-33 -6 0 -21 -16 -36 -34 l-26 -35 42 -20 c86 -41 101 -56 87 -83 -12 -22 -66
-51 -84 -44 -8 3 -16 -5 -19 -19 -7 -27 2 -55 17 -55 6 0 29 -19 52 -43 23
-24 62 -58 88 -76 l47 -32 9 23 c5 13 21 38 35 57 30 40 28 45 -42 122 -26 30
-55 66 -65 81 -16 26 -16 27 26 62 111 94 118 99 161 103 42 5 43 5 50 -28 4
-19 9 -94 12 -167 l4 -133 -27 14 c-16 8 -34 12 -40 10 -10 -3 -13 16 -15 74
-2 108 -2 103 5 151 7 41 7 42 -22 42 -33 0 -48 -15 -33 -33 14 -18 32 -123
32 -188 0 -32 5 -61 10 -64 6 -3 7 -18 4 -32 -7 -24 -5 -25 22 -19 16 4 142
13 279 21 138 7 285 17 328 20 42 4 77 2 77 -2 0 -5 -16 -24 -35 -43 -33 -34
-45 -60 -26 -60 5 0 11 -9 14 -21 7 -25 27 -16 27 12 0 11 7 33 16 50 11 23
20 29 35 24 17 -6 19 -3 13 20 -4 18 -1 32 11 45 10 11 15 23 12 27 -4 4 -14
-2 -21 -13 -10 -12 -18 -16 -24 -9 -14 15 -32 75 -32 106 0 37 -11 37 -38 0
l-21 -29 29 -32 c17 -18 30 -36 30 -40 0 -7 -425 112 -436 122 -8 9 78 55 136
72 62 19 179 63 263 100 69 31 76 17 20 -37 -31 -31 -34 -38 -23 -51 17 -21
40 -20 40 2 0 19 39 74 40 55 0 -7 5 -13 10 -13 6 0 8 11 4 26 -5 18 -1 32 13
47 30 33 36 47 21 47 -7 0 -21 -12 -30 -27 l-16 -26 -16 55 c-9 31 -16 66 -16
77 0 32 -13 25 -33 -19z m-759 -162 c-22 -16 -41 -28 -41 -26 -1 2 -8 12 -15
23 -17 28 -33 67 -29 71 6 6 53 -40 59 -57 3 -8 9 -11 14 -6 4 4 -2 27 -13 51
-29 60 -16 67 29 15 l36 -42 -40 -29z m662 16 c-116 -46 -234 -84 -302 -100
-63 -15 -68 -18 -68 -42 0 -65 7 -72 74 -72 76 0 350 -72 320 -84 -10 -4 -105
-10 -209 -13 l-190 -6 -3 69 c-1 38 -5 101 -8 141 -3 39 -3 85 1 101 l6 31
222 0 222 0 -65 -25z m-754 -7 c35 -40 37 -48 18 -62 -17 -12 -20 -9 -36 23
-29 62 -20 83 18 39z m332 -9 c2 -20 -1 -28 -12 -28 -30 0 -46 13 -46 37 0 21
4 24 28 21 21 -2 28 -9 30 -30z m-370 -46 c23 -30 23 -32 5 -32 -16 0 -53 45
-53 65 0 14 24 -2 48 -33z m382 -11 c0 -10 -40 -22 -52 -15 -18 11 -6 24 22
24 17 0 30 -4 30 -9z m3 -45 c8 -19 -1 -26 -35 -26 -31 0 -40 25 -10 33 31 8
40 7 45 -7z m7 -61 c0 -10 -11 -15 -35 -15 -33 0 -43 8 -28 23 13 14 63 7 63
-8z m-365 -35 c-10 -11 -25 -20 -34 -20 -12 0 -9 6 9 20 33 26 48 26 25 0z
m365 -15 c0 -22 -4 -25 -35 -25 -43 0 -48 24 -7 38 40 15 42 14 42 -13z m-304
-7 c46 -53 46 -52 7 -91 -46 -47 -55 -40 -14 11 41 52 27 62 -21 15 -33 -32
-38 -34 -38 -16 0 11 9 32 21 47 11 15 18 33 15 41 -8 22 8 18 30 -7z m-46 -1
c0 -2 -12 -14 -27 -28 l-26 -24 19 27 c16 23 34 36 34 25z m358 -60 c3 -14 -4
-17 -37 -17 -45 0 -54 15 -18 30 31 13 51 8 55 -13z m-248 -24 c0 -10 -52 -63
-62 -63 -5 0 4 16 19 35 26 33 43 44 43 28z m115 -3 c3 -5 -1 -10 -9 -10 -9 0
-16 5 -16 10 0 6 4 10 9 10 6 0 13 -4 16 -10z"/>
<path d="M956 1501 c-4 -7 -5 -15 -2 -18 9 -9 19 4 14 18 -4 11 -6 11 -12 0z"/>
<path d="M957 695 c-22 -28 -26 -39 -17 -49 9 -12 -17 -15 -147 -20 -87 -4
-198 -8 -248 -11 -49 -2 -116 -4 -147 -5 -54 0 -58 -2 -58 -23 0 -13 6 -37 14
-53 8 -16 17 -81 21 -144 5 -63 9 -126 11 -140 1 -14 3 -45 3 -68 1 -30 5 -42
14 -39 6 2 11 14 10 26 -2 11 2 21 8 21 5 0 7 -4 4 -10 -9 -15 8 -12 31 5 10
8 41 15 69 15 28 0 79 5 115 10 82 11 239 24 305 24 45 0 51 -3 63 -27 17 -35
28 -28 34 20 6 40 53 147 88 200 11 17 17 34 13 36 -5 3 -36 -35 -71 -84 -34
-49 -66 -89 -70 -89 -8 1 -62 87 -62 99 0 9 61 67 99 93 24 17 24 18 8 50 -19
37 -47 141 -47 175 0 32 -10 29 -43 -12z m33 -60 c0 -17 -2 -17 -10 -5 -5 8
-10 24 -10 35 0 17 2 17 10 5 5 -8 10 -24 10 -35z m-84 -32 c-8 -8 -121 -67
-274 -143 -96 -47 -103 -53 -98 -75 3 -13 2 -26 -3 -30 -5 -3 -11 7 -13 22 -2
16 -9 29 -15 29 -41 4 -45 7 -18 13 29 6 30 9 31 61 1 30 2 67 3 83 l1 27 83
1 c68 1 168 7 291 17 11 1 16 -1 12 -5z m94 -45 l33 -53 -49 -42 c-27 -24 -52
-43 -56 -43 -4 0 -13 20 -19 45 -6 25 -15 47 -18 50 -4 2 -19 -19 -34 -46
l-26 -49 24 -16 c14 -9 25 -19 25 -23 0 -4 -18 -17 -40 -30 -42 -23 -49 -35
-27 -45 18 -9 -42 1 -83 13 -19 5 -63 17 -97 27 -35 9 -63 22 -63 29 0 15 51
50 155 105 44 23 98 53 120 65 42 24 118 65 121 65 1 0 17 -24 34 -52z m-511
-35 c16 -84 17 -83 -34 -83 l-45 0 0 -72 c0 -92 7 -104 50 -89 39 13 50 8 50
-24 0 -19 -7 -25 -34 -30 -47 -9 -69 -3 -72 20 -2 11 -6 85 -10 164 -7 133 -6
145 11 158 11 7 31 13 46 13 24 0 27 -5 38 -57z m418 -119 c-2 -2 -12 2 -21 9
-14 10 -16 20 -11 37 7 23 8 22 21 -10 8 -18 13 -35 11 -36z m-407 -34 c0 -5
-14 -10 -31 -10 -17 0 -28 4 -24 10 3 6 17 10 31 10 13 0 24 -4 24 -10z m455
-56 c20 -25 35 -48 31 -51 -9 -9 -116 17 -116 29 0 14 33 68 41 68 4 0 23 -20
44 -46z m-455 17 c0 -10 -24 -21 -46 -21 -20 0 -17 18 4 23 29 8 42 7 42 -2z
m360 -5 c0 -3 -4 -8 -10 -11 -5 -3 -10 -1 -10 4 0 6 5 11 10 11 6 0 10 -2 10
-4z m-85 -42 l110 -29 -135 -12 c-74 -6 -154 -12 -177 -12 l-43 -1 0 46 0 46
68 -4 c37 -3 117 -18 177 -34z m259 -18 c-3 -9 -10 -16 -15 -16 -5 0 -4 9 3
20 14 22 21 20 12 -4z"/>
<path d="M222 640 c-7 -11 -16 -20 -22 -20 -5 0 -22 -12 -37 -26 -15 -14 -35
-32 -44 -40 -9 -8 -20 -14 -26 -14 -15 0 -45 -48 -38 -60 3 -6 12 -10 20 -10
7 0 24 -14 36 -31 21 -30 22 -32 4 -45 -15 -11 -16 -16 -6 -28 8 -10 10 -27 6
-46 -6 -27 -4 -31 24 -41 l30 -11 -36 -46 c-19 -26 -42 -51 -49 -55 -20 -12
-17 -23 13 -57 28 -32 80 -63 93 -55 4 2 15 -4 25 -15 25 -27 40 -25 54 8 17
39 78 105 86 93 8 -13 25 -14 25 -2 0 5 -49 48 -110 96 -72 57 -110 94 -110
107 0 34 28 74 100 143 70 68 91 101 45 71 -13 -9 -26 -16 -29 -16 -6 0 -19
59 -20 89 -1 31 -18 37 -34 11z m18 -85 c20 -33 20 -55 0 -55 -12 0 -40 53
-40 75 0 25 17 17 40 -20z m-44 -40 c22 -29 24 -38 14 -50 -16 -20 -36 -5 -56
43 -17 42 -17 42 0 42 8 0 27 -16 42 -35z m-52 -40 c24 -31 27 -55 8 -55 -6 0
-25 32 -50 83 -10 22 19 2 42 -28z m76 -234 c0 -11 -99 -105 -105 -100 -3 3
13 31 35 62 27 37 45 54 55 51 8 -4 15 -9 15 -13z m75 -56 l29 -24 -29 -33
c-43 -46 -58 -57 -77 -58 -27 0 -22 13 23 64 23 26 39 49 36 53 -4 3 -29 -15
-58 -41 -86 -77 -95 -48 -14 46 32 38 37 38 90 -7z"/>
<path d="M270 454 c-28 -15 -29 -18 -11 -59 7 -16 16 -49 19 -73 12 -74 23
-51 25 51 1 53 0 97 -3 96 -3 -1 -16 -7 -30 -15z"/>
<path d="M1230 106 c0 -21 5 -26 26 -26 21 0 25 4 22 23 -2 14 -11 23 -25 25
-19 3 -23 -1 -23 -22z"/>
</g>
</svg>
