<?xml version="1.0" standalone="no"?>
<!DOCTYPE svg PUBLIC "-//W3C//DTD SVG 20010904//EN"
 "http://www.w3.org/TR/2001/REC-SVG-20010904/DTD/svg10.dtd">
<svg version="1.0" xmlns="http://www.w3.org/2000/svg"
 width="155.000000pt" height="161.000000pt" viewBox="0 0 155.000000 161.000000"
 preserveAspectRatio="xMidYMid meet">
<metadata>
Created by potrace 1.16, written by Peter Selinger 2001-2019
</metadata>
<g transform="translate(0.000000,161.000000) scale(0.100000,-0.100000)"
fill="#000000" stroke="none">
<path d="M436 1517 c-27 -29 -27 -31 -10 -44 10 -7 21 -13 26 -13 25 0 -4 -28
-99 -95 l-107 -75 -53 57 c-52 57 -52 59 -53 123 l0 65 -40 -45 c-42 -48 -47
-60 -27 -60 11 0 84 -70 131 -127 25 -30 11 -46 -72 -86 -69 -33 -79 -42 -64
-60 6 -7 12 -23 14 -36 5 -39 23 -35 43 9 20 44 89 120 110 120 7 0 49 -44 94
-97 87 -106 86 -97 27 -137 -19 -12 -19 -13 3 -37 l23 -24 16 25 c35 52 76 91
160 153 64 47 99 66 132 72 25 4 57 9 73 11 l27 5 0 -95 c0 -57 4 -96 10 -96
6 0 10 38 10 95 l0 95 30 0 30 0 0 -100 c0 -130 18 -132 22 -2 3 92 4 97 26
100 22 3 22 1 22 -97 0 -56 4 -101 9 -101 14 0 24 83 17 125 -10 54 0 75 35
75 l30 0 -5 -52 c-11 -100 -11 -153 -1 -158 11 -5 11 -5 20 123 l7 87 44 0
c31 0 50 -6 65 -21 22 -22 99 -174 99 -195 0 -14 18 -29 26 -22 2 3 -7 33 -21
68 -27 69 -31 104 -15 144 8 21 16 26 45 26 24 0 34 4 29 11 -3 6 -19 9 -34 5
-15 -3 -30 -3 -32 0 -7 6 17 96 33 126 6 13 20 34 31 47 12 17 15 28 8 35 -11
11 -10 13 -41 -39 -34 -57 -166 -178 -185 -171 -9 3 -24 6 -35 6 -18 0 -19 7
-18 63 1 34 8 75 16 90 22 44 15 56 -26 40 -25 -11 -31 -17 -22 -26 6 -6 11
-44 11 -89 l0 -78 -30 0 c-28 0 -30 2 -30 38 0 20 7 62 15 92 19 72 19 71 -12
67 l-28 -4 3 -96 4 -97 -29 0 -29 0 6 73 c4 39 12 82 18 94 17 31 16 33 -24
33 -33 0 -36 -2 -29 -22 3 -13 9 -58 12 -101 l6 -78 -34 3 -34 3 3 85 c2 47 8
103 12 125 5 22 7 42 4 44 -2 3 -19 -9 -36 -26 -24 -24 -29 -35 -21 -45 16
-19 26 -100 18 -145 l-6 -40 -62 9 c-51 7 -62 6 -70 -7 -7 -13 -22 4 -72 77
-35 51 -69 99 -75 106 -18 20 -30 73 -24 99 9 32 -14 28 -50 -10z m-316 -69
c0 -16 -3 -19 -11 -11 -6 6 -8 16 -5 22 11 17 16 13 16 -11z m439 -125 c71
-101 73 -107 55 -120 -119 -89 -187 -134 -193 -127 -80 98 -110 134 -131 157
-14 16 -25 33 -25 37 0 8 204 158 215 159 3 1 38 -47 79 -106z m408 65 c-3 -8
-6 -5 -6 6 -1 11 2 17 5 13 3 -3 4 -12 1 -19z m277 -113 c-4 -24 -14 -40 -28
-45 -17 -7 -18 -9 -3 -9 18 -1 23 -27 8 -49 -6 -11 -14 -6 -30 17 -15 21 -18
31 -9 31 10 0 9 3 -2 10 -12 8 -8 16 24 49 22 23 41 39 43 37 3 -2 1 -21 -3
-41z m-544 -39 c0 -3 -4 -8 -10 -11 -5 -3 -10 -1 -10 4 0 6 5 11 10 11 6 0 10
-2 10 -4z m-580 -66 c-6 -11 -16 -17 -22 -14 -7 5 -5 12 7 21 25 18 28 17 15
-7z m270 -160 c0 -5 -5 -10 -11 -10 -5 0 -7 5 -4 10 3 6 8 10 11 10 2 0 4 -4
4 -10z"/>
<path d="M720 1390 c0 -5 5 -10 10 -10 6 0 10 5 10 10 0 6 -4 10 -10 10 -5 0
-10 -4 -10 -10z"/>
<path d="M680 1380 c0 -5 5 -10 11 -10 5 0 7 5 4 10 -3 6 -8 10 -11 10 -2 0
-4 -4 -4 -10z"/>
<path d="M1110 1371 c0 -6 5 -13 10 -16 6 -3 10 1 10 9 0 9 -4 16 -10 16 -5 0
-10 -4 -10 -9z"/>
<path d="M280 1350 c0 -5 5 -10 11 -10 5 0 7 5 4 10 -3 6 -8 10 -11 10 -2 0
-4 -4 -4 -10z"/>
<path d="M1357 1113 c-9 -14 0 -77 10 -80 6 -2 16 10 23 27 10 24 10 33 0 45
-14 16 -26 19 -33 8z"/>
<path d="M317 632 c-41 -41 -45 -52 -22 -52 9 0 38 -13 66 -29 l50 -28 -92
-66 c-51 -36 -96 -64 -100 -61 -10 6 -65 87 -84 125 -9 16 -19 29 -23 29 -8 0
-52 -80 -52 -95 0 -6 15 -16 32 -23 18 -7 48 -25 67 -41 l34 -28 -71 -42 c-40
-23 -72 -45 -72 -49 0 -7 65 -36 81 -37 4 0 26 24 49 54 l44 55 83 -90 c45
-49 83 -91 83 -94 0 -3 -20 -18 -45 -33 -25 -16 -45 -34 -45 -41 0 -7 19 -22
42 -33 l41 -22 27 42 c35 55 133 160 193 209 34 26 59 38 82 38 l32 0 -5 -70
c-3 -47 -1 -70 6 -70 7 0 12 29 14 73 3 66 5 72 26 75 25 4 27 -8 12 -93 -4
-27 -4 -54 0 -59 8 -8 13 11 25 107 5 39 10 47 26 47 20 0 20 -4 14 -75 -5
-53 -4 -75 4 -75 6 0 11 18 11 44 0 58 10 106 23 106 6 0 8 -25 4 -70 -3 -38
-2 -70 2 -70 9 0 21 58 21 104 l0 29 127 -6 c101 -5 130 -9 139 -22 7 -9 22
-50 35 -91 12 -40 27 -74 32 -74 5 0 6 12 2 28 -19 68 -24 113 -25 200 0 50
-2 92 -5 92 -3 0 -24 -12 -46 -26 -30 -19 -39 -30 -34 -42 20 -49 24 -48 -97
-44 -62 2 -115 6 -117 8 -7 7 20 75 46 116 12 21 23 44 23 52 0 13 -57 29 -72
19 -5 -2 -8 -30 -8 -62 0 -78 -9 -121 -27 -121 -11 0 -13 12 -8 63 4 34 11 77
17 95 11 38 4 51 -19 36 -13 -8 -16 -23 -14 -66 4 -83 -7 -128 -31 -128 -17 0
-19 6 -14 83 2 45 8 96 12 112 l7 30 -22 -19 c-19 -18 -21 -28 -19 -110 3 -89
3 -91 -21 -94 -23 -4 -24 -3 -18 60 2 34 12 85 22 111 9 27 14 51 11 54 -3 3
-18 -9 -33 -28 -26 -31 -28 -38 -24 -111 l3 -78 -28 0 c-67 1 -146 75 -294
275 -14 19 -30 34 -35 35 -6 0 -28 -17 -48 -38z m104 -62 c30 -35 47 -60 39
-55 -8 5 -43 26 -78 48 -61 38 -62 40 -46 58 10 11 21 18 25 17 3 -2 31 -32
60 -68z m-241 -164 c0 -3 -20 8 -45 25 -50 34 -49 32 -34 61 10 19 13 17 45
-31 19 -27 34 -52 34 -55z m294 72 c24 -18 71 -56 104 -85 l61 -51 -57 -49
c-31 -27 -81 -66 -111 -86 l-54 -36 -88 92 -88 92 27 27 c23 23 152 126 160
127 1 1 22 -14 46 -31z m476 20 c-1 -7 -7 -24 -15 -38 l-14 -25 -1 38 c0 26 4
37 15 37 8 0 15 -6 15 -12z m240 -145 l0 -58 -20 38 c-23 43 -25 63 -7 70 25
10 27 6 27 -50z m-1024 -48 c-8 -9 -19 -23 -24 -32 -6 -11 -16 -13 -32 -8 -21
7 -20 9 21 36 45 29 63 32 35 4z m278 -147 c-4 -7 -21 -31 -38 -53 -17 -22
-32 -42 -34 -44 -1 -3 -10 3 -19 12 -16 16 -16 18 7 35 13 9 38 27 55 39 35
26 39 27 29 11z"/>
<path d="M1340 255 c0 -20 4 -26 18 -23 9 2 17 12 17 23 0 11 -8 21 -17 23
-14 3 -18 -3 -18 -23z"/>
</g>
</svg>
