<?xml version="1.0" standalone="no"?>
<!DOCTYPE svg PUBLIC "-//W3C//DTD SVG 20010904//EN"
 "http://www.w3.org/TR/2001/REC-SVG-20010904/DTD/svg10.dtd">
<svg version="1.0" xmlns="http://www.w3.org/2000/svg"
 width="168.000000pt" height="132.000000pt" viewBox="0 0 168.000000 132.000000"
 preserveAspectRatio="xMidYMid meet">
<metadata>
Created by potrace 1.16, written by Peter Selinger 2001-2019
</metadata>
<g transform="translate(0.000000,132.000000) scale(0.100000,-0.100000)"
fill="#000000" stroke="none">
<path d="M540 1229 c-41 -33 -93 -74 -115 -91 -52 -39 -149 -88 -175 -88 -26
0 -26 -16 0 -32 11 -7 20 -16 20 -20 0 -12 -77 -9 -165 7 -44 8 -81 15 -82 15
-2 0 -3 -18 -3 -40 0 -46 5 -48 90 -25 56 15 180 21 180 8 0 -4 -12 -19 -26
-34 l-26 -27 44 -20 c45 -20 149 -97 230 -171 l47 -43 113 104 c62 57 132 119
156 138 41 33 43 35 25 50 -34 28 -140 175 -182 253 -23 42 -45 77 -49 76 -4
0 -41 -27 -82 -60z m108 -15 c13 -26 22 -48 20 -49 -2 -2 -20 12 -41 32 -31
28 -36 37 -26 49 18 21 23 18 47 -32z m5 -67 l58 -55 -81 -1 c-67 -1 -88 2
-121 21 -21 12 -39 24 -39 27 1 3 22 23 47 43 54 43 52 43 136 -35z m-179
-198 c0 -82 3 -149 7 -149 3 0 11 6 17 13 13 12 162 27 162 16 0 -11 -92 -119
-101 -119 -7 0 -31 19 -152 122 -60 51 -90 107 -80 148 5 16 35 57 67 90 51
52 61 58 69 44 5 -9 10 -83 11 -165z m41 131 c3 -5 -1 -10 -9 -10 -9 0 -16 5
-16 10 0 6 4 10 9 10 6 0 13 -4 16 -10z m246 -46 l30 -44 -25 -33 -24 -32
-106 5 c-60 3 -107 9 -107 15 -3 21 49 35 134 35 117 0 112 17 -5 19 -91 1
-158 15 -158 31 0 27 63 41 208 47 16 0 31 -12 53 -43z m-433 -4 c-24 -34 -29
-35 -46 -18 -10 10 -5 16 20 29 47 24 51 23 26 -11z m-239 -46 c6 -6 -1 -11
-26 -18 -19 -6 -23 -4 -23 14 0 18 4 20 23 14 12 -3 24 -8 26 -10z m433 1 c0
-5 -5 -11 -11 -13 -6 -2 -11 4 -11 13 0 9 5 15 11 13 6 -2 11 -8 11 -13z m302
-34 c3 -5 -27 -37 -66 -72 -77 -68 -78 -65 -8 24 43 55 62 67 74 48z m-510
-37 c9 -24 8 -26 -14 -14 -11 6 -18 15 -15 21 9 14 22 11 29 -7z m395 -33
c-21 -27 -30 -30 -80 -30 -58 -1 -119 14 -119 30 0 14 60 26 144 28 l78 2 -23
-30z"/>
<path d="M1378 1228 c-42 -44 -47 -58 -21 -58 21 0 15 -6 -121 -119 -85 -71
-91 -74 -135 -72 -56 2 -68 5 -104 19 -39 17 -47 15 -47 -9 0 -11 -5 -29 -10
-39 -15 -27 2 -32 41 -13 23 12 53 16 94 14 68 -3 85 -15 181 -131 29 -36 67
-82 85 -103 26 -31 29 -40 19 -52 -7 -9 -10 -18 -6 -22 3 -4 51 38 105 93 55
55 122 117 150 139 27 22 50 45 51 50 0 15 -128 150 -136 142 -4 -3 9 -26 29
-50 l36 -44 -28 -45 c-16 -25 -35 -49 -42 -53 -6 -5 -47 -8 -91 -7 -77 1 -78
1 -78 -25 0 -20 3 -24 18 -18 9 4 43 10 75 13 l59 5 -53 -67 c-29 -36 -58 -66
-64 -66 -5 1 -56 57 -113 125 l-103 123 48 45 c26 24 66 59 88 78 22 18 50 44
62 56 12 13 30 23 39 23 18 0 74 -47 74 -62 0 -12 -94 -10 -107 3 -15 15 -21
0 -16 -43 l5 -38 69 0 c39 0 69 4 69 10 0 6 -27 10 -60 10 -33 0 -60 4 -60 9
0 14 27 21 81 21 60 0 61 8 14 75 -20 27 -38 66 -41 87 -4 21 -9 37 -13 37 -3
-1 -23 -20 -43 -41z m45 -28 c5 -21 -1 -24 -27 -14 -13 5 -14 9 -5 20 16 19
26 17 32 -6z m-413 -230 c0 -5 -9 -10 -20 -10 -11 0 -20 5 -20 10 0 6 9 10 20
10 11 0 20 -4 20 -10z m616 -36 c1 -5 -23 -31 -54 -59 -58 -53 -59 -48 -3 28
32 44 52 55 57 31z"/>
<path d="M1364 991 c-14 -14 3 -21 54 -20 52 0 111 14 87 20 -17 4 -136 4
-141 0z"/>
<path d="M1360 930 c0 -6 30 -10 70 -10 40 0 70 4 70 10 0 6 -30 10 -70 10
-40 0 -70 -4 -70 -10z"/>
<path d="M1364 901 c-10 -10 10 -21 39 -21 44 0 107 11 107 19 0 6 -139 9
-146 2z"/>
<path d="M893 790 c3 -47 18 -56 31 -19 11 32 2 59 -19 59 -11 0 -14 -10 -12
-40z"/>
<path d="M1624 638 c3 -13 6 -27 6 -32 0 -5 7 -3 15 4 23 19 19 50 -6 50 -17
0 -20 -4 -15 -22z"/>
<path d="M980 556 c0 -8 -55 -66 -122 -130 l-123 -116 -71 0 c-66 0 -77 3
-124 35 -29 19 -54 35 -56 35 -2 0 -1 -13 2 -28 3 -16 1 -48 -6 -71 -6 -24 -9
-45 -6 -48 2 -3 18 5 35 18 47 34 198 51 223 25 7 -7 60 -66 117 -130 57 -64
110 -116 117 -116 7 0 22 15 33 34 21 34 145 143 181 160 11 5 20 14 20 20 0
7 -32 56 -70 110 -39 54 -85 125 -101 157 -30 57 -49 74 -49 45z m26 -43 c22
-29 18 -49 -6 -28 -19 17 -27 45 -14 45 4 0 13 -8 20 -17z m42 -92 c20 -24 15
-26 -49 -23 -48 3 -60 1 -57 -10 4 -9 26 -13 78 -13 49 0 74 -4 77 -12 4 -10
-16 -13 -76 -13 -68 0 -81 -3 -81 -16 0 -14 12 -16 92 -13 110 5 118 -4 68
-76 l-31 -45 -64 0 c-83 0 -95 -18 -15 -22 l61 -3 -41 -55 c-22 -30 -44 -56
-48 -57 -13 -5 -142 206 -142 231 0 7 32 54 72 103 l72 91 36 -26 c19 -14 41
-33 48 -41z m-223 -75 c-15 -20 -35 -36 -43 -36 -11 0 -3 13 23 40 46 48 58
45 20 -4z m-276 -35 c13 -9 10 -13 -21 -24 -13 -5 -18 -1 -18 13 0 21 16 25
39 11z m274 -81 l29 -55 -46 50 c-49 54 -56 68 -28 63 9 -2 30 -28 45 -58z
m345 16 c-1 -1 -23 -18 -48 -36 l-45 -35 29 40 c52 71 49 68 59 50 5 -9 7 -18
5 -19z"/>
<path d="M950 295 c0 -12 14 -15 65 -15 64 0 86 12 43 24 -46 12 -108 7 -108
-9z"/>
<path d="M950 240 c0 -7 26 -10 65 -9 36 1 65 6 65 10 0 5 -29 9 -65 9 -38 0
-65 -4 -65 -10z"/>
<path d="M1277 223 c-4 -3 -7 -15 -7 -25 0 -28 34 -19 38 10 3 21 -16 31 -31
15z"/>
<path d="M10 10 c0 -7 269 -10 836 -10 514 0 833 4 829 9 -8 14 -1665 15
-1665 1z"/>
</g>
</svg>
