<?xml version="1.0" standalone="no"?>
<!DOCTYPE svg PUBLIC "-//W3C//DTD SVG 20010904//EN"
 "http://www.w3.org/TR/2001/REC-SVG-20010904/DTD/svg10.dtd">
<svg version="1.0" xmlns="http://www.w3.org/2000/svg"
 width="125.000000pt" height="365.000000pt" viewBox="0 0 125.000000 365.000000"
 preserveAspectRatio="xMidYMid meet">
<metadata>
Created by potrace 1.16, written by Peter Selinger 2001-2019
</metadata>
<g transform="translate(0.000000,365.000000) scale(0.100000,-0.100000)"
fill="#000000" stroke="none">
<path d="M1 3646 c8 -9 1007 -15 1129 -7 83 5 -88 8 -504 9 -346 1 -627 0
-625 -2z"/>
<path d="M365 3591 c-13 -26 -15 -39 -7 -51 15 -24 5 -33 -63 -59 l-60 -22
-17 21 c-10 12 -20 37 -24 56 -8 41 -17 43 -49 7 -31 -36 -31 -39 4 -46 37 -8
66 -36 52 -50 -6 -6 -35 -12 -66 -15 l-55 -4 0 -44 c0 -24 3 -44 8 -44 4 0 19
12 33 28 15 15 43 36 63 46 l37 20 49 -49 c28 -27 50 -52 50 -56 0 -4 -10 -9
-22 -11 -18 -2 -24 -11 -26 -35 -4 -39 1 -40 31 -12 31 30 113 66 167 74 58 8
126 -17 114 -43 -4 -9 -9 -30 -12 -46 -6 -39 14 -26 23 14 4 16 11 33 17 36 7
4 7 -2 2 -17 -10 -30 -10 -58 1 -84 l8 -20 -17 20 c-17 20 -17 20 -13 -2 6
-26 -10 -32 -19 -8 -10 26 -25 16 -18 -12 l6 -28 -26 30 c-19 22 -25 26 -26
13 0 -9 5 -20 10 -23 18 -11 11 -23 -21 -34 -28 -10 -35 -7 -84 29 -30 22 -60
50 -66 62 -11 21 -12 21 -25 3 -19 -25 -18 -45 3 -45 9 0 47 -21 85 -46 67
-46 68 -47 51 -67 -10 -11 -47 -39 -83 -64 l-65 -43 -37 42 c-21 24 -38 47
-38 51 0 4 29 26 65 49 60 38 79 58 56 58 -5 0 -40 -20 -77 -45 -55 -36 -71
-42 -82 -32 -23 19 -92 115 -92 127 0 7 -6 10 -12 7 -7 -2 -12 -15 -10 -29 2
-15 -2 -29 -7 -33 -19 -11 -12 -23 17 -30 16 -3 44 -19 63 -35 33 -29 34 -30
14 -46 -11 -9 -35 -23 -53 -30 -31 -14 -33 -18 -27 -47 9 -38 16 -47 23 -27 3
8 24 35 48 60 l43 45 65 -69 c37 -38 67 -67 69 -65 1 2 9 16 17 30 14 26 175
159 191 159 4 0 11 -9 14 -20 3 -11 11 -20 17 -20 5 0 8 6 5 13 -3 6 -8 20
-12 30 -4 9 -3 17 2 17 6 0 18 -25 28 -55 11 -30 23 -51 27 -47 4 4 -1 32 -13
61 -26 70 -17 77 15 12 15 -28 30 -51 35 -51 8 0 -2 70 -15 113 -3 9 -1 17 3
17 5 0 15 -22 22 -50 7 -27 17 -52 22 -56 13 -8 11 16 -5 70 -13 44 -13 47 7
61 34 24 52 19 141 -41 47 -31 91 -54 98 -52 7 3 -26 31 -75 63 -48 32 -87 61
-87 64 0 11 170 95 177 87 8 -7 32 -71 40 -103 11 -49 18 -18 20 92 2 63 -1
115 -5 115 -4 0 -16 -15 -28 -33 -15 -22 -53 -48 -126 -86 -112 -59 -146 -63
-134 -15 10 38 -5 51 -20 18 l-14 -29 4 28 c2 15 -1 30 -5 33 -5 3 -9 -2 -9
-10 0 -9 -7 -16 -16 -16 -12 0 -15 6 -10 24 3 14 2 28 -4 31 -5 3 -10 -1 -10
-9 0 -9 -5 -16 -11 -16 -7 0 -8 11 -4 29 3 17 2 32 -4 36 -6 3 -11 -2 -11 -13
0 -30 -12 -34 -36 -11 -18 17 -26 19 -37 10 -20 -16 -122 104 -137 162 -6 23
-12 47 -14 52 -1 6 -11 -5 -21 -24z m88 -146 c66 -74 69 -68 -46 -95 l-58 -13
-49 48 c-51 51 -59 65 -37 66 6 0 37 13 67 29 30 15 57 28 60 29 3 1 31 -28
63 -64z m-341 -57 c-7 -7 -12 -8 -12 -2 0 14 12 26 19 19 2 -3 -1 -11 -7 -17z
m458 -23 c11 -13 10 -14 -4 -9 -9 3 -16 10 -16 15 0 13 6 11 20 -6z m427 -42
c-4 -17 -4 -17 -12 0 -4 9 -4 25 0 35 8 16 8 16 12 0 3 -10 3 -26 0 -35z
m-342 -74 c-3 -50 -11 -58 -25 -28 -8 18 -8 33 -1 52 15 39 30 25 26 -24z m35
4 c0 -24 -16 -48 -23 -36 -8 13 3 53 14 53 5 0 9 -8 9 -17z m30 -13 c0 -5 -4
-10 -10 -10 -5 0 -10 5 -10 10 0 6 5 10 10 10 6 0 10 -4 10 -10z m-595 -80 c3
-6 -1 -7 -9 -4 -18 7 -21 14 -7 14 6 0 13 -4 16 -10z m391 -45 c-11 -8 -22
-12 -25 -9 -6 6 19 24 34 24 6 -1 1 -7 -9 -15z"/>
<path d="M946 3092 c-51 -104 -60 -160 -13 -79 15 25 33 50 40 54 6 5 27 25
45 44 l34 37 -23 21 c-13 11 -25 21 -29 21 -3 0 -28 -44 -54 -98z m74 61 c-1
-11 -50 -70 -50 -60 0 16 31 67 40 67 6 0 10 -3 10 -7z"/>
<path d="M1167 3173 c-9 -16 6 -73 19 -73 16 0 29 43 20 65 -6 16 -32 21 -39
8z"/>
<path d="M209 2691 c-4 -13 -6 -37 -8 -70 l-1 -34 -44 6 c-43 6 -45 5 -55 -25
-12 -35 -8 -46 11 -31 7 6 28 13 47 17 l34 6 -7 -47 c-3 -25 -15 -62 -26 -80
-16 -28 -17 -35 -5 -39 20 -8 35 4 28 21 -3 8 0 15 7 15 6 0 9 -4 5 -9 -7 -13
15 -18 103 -26 89 -9 101 11 12 21 -33 4 -63 11 -66 15 -3 5 -14 9 -24 9 -29
0 -31 12 -12 69 16 50 18 52 45 47 16 -3 47 -6 68 -6 34 0 41 -4 50 -27 7 -16
13 -53 15 -83 1 -30 7 -56 11 -57 5 -2 9 53 9 122 -1 69 -4 125 -8 125 -4 0
-19 -5 -33 -10 -21 -8 -25 -14 -20 -31 7 -21 5 -21 -49 -17 -31 3 -58 7 -61
10 -3 3 2 21 10 41 21 50 19 64 -10 69 -14 3 -26 2 -26 -1z m22 -48 c-12 -20
-14 -14 -5 12 4 9 9 14 11 11 3 -2 0 -13 -6 -23z m146 -75 c-3 -7 -5 -2 -5 12
0 14 2 19 5 13 2 -7 2 -19 0 -25z"/>
<path d="M983 2507 c-23 -22 -30 -47 -15 -47 4 0 34 -34 67 -75 33 -41 61 -71
63 -66 2 5 -10 41 -26 79 -16 38 -33 83 -37 100 -8 37 -21 39 -52 9z m45 -46
c17 -54 15 -56 -13 -23 -15 18 -23 37 -19 46 10 26 20 19 32 -23z"/>
<path d="M521 2463 c3 -31 -1 -57 -10 -72 -7 -11 -13 -10 -35 4 -25 17 -27 17
-46 0 -30 -27 -24 -43 20 -50 24 -4 40 -12 40 -21 0 -8 6 -11 15 -8 8 4 15 1
15 -6 0 -7 7 -10 16 -6 12 4 15 2 10 -9 -6 -17 9 -21 19 -5 5 8 11 7 21 -1 11
-9 12 -15 3 -26 -9 -10 -9 -20 0 -40 6 -14 9 -28 6 -31 -10 -10 -23 12 -27 43
-3 33 -16 37 -33 11 -7 -11 -6 -22 3 -36 14 -23 16 -54 2 -45 -5 3 -12 21 -16
40 -7 39 -20 44 -40 18 -8 -11 -13 -13 -14 -5 0 19 -18 14 -25 -8 -4 -13 1
-30 15 -47 20 -26 21 -28 3 -41 -10 -7 -26 -11 -37 -10 -25 4 -55 79 -55 141
-1 26 -3 47 -4 47 -2 0 -18 -7 -36 -16 -29 -15 -30 -17 -16 -37 8 -12 15 -27
15 -33 0 -19 -104 -94 -112 -81 -4 6 -10 40 -14 74 -3 35 -9 63 -13 63 -10 0
-41 -39 -41 -52 0 -6 6 -19 13 -27 8 -9 20 -31 27 -49 11 -29 11 -34 -6 -47
-11 -8 -29 -15 -40 -15 -26 0 -50 -25 -34 -35 5 -3 10 -17 10 -31 0 -34 10
-30 50 21 19 25 38 45 42 45 3 0 14 -23 23 -51 17 -52 16 -58 -16 -71 -9 -4 1
-68 11 -68 4 0 18 16 32 35 29 41 134 119 148 110 5 -3 25 8 42 24 18 17 36
31 39 31 3 0 12 -18 19 -41 14 -41 30 -61 30 -36 0 8 -7 31 -15 50 -18 42 -18
47 -6 47 5 0 15 -17 21 -37 7 -21 16 -42 21 -47 14 -15 11 16 -5 62 -12 34
-12 43 -1 52 11 9 19 -5 42 -70 15 -44 31 -80 36 -80 11 0 9 12 -18 80 -28 71
-31 100 -12 100 8 0 24 -30 37 -71 23 -69 49 -117 50 -92 0 7 -14 50 -30 95
l-30 83 22 18 c46 36 50 36 143 -4 50 -22 101 -44 115 -50 14 -6 33 -15 42
-20 10 -5 19 -5 23 1 5 9 -68 46 -177 90 -32 13 -58 27 -58 32 0 4 15 15 33
24 26 13 200 119 216 131 2 2 2 6 -1 9 -6 5 -79 -32 -128 -65 -14 -10 -55 -34
-92 -55 -64 -35 -69 -36 -95 -22 -57 31 -57 29 -29 84 14 28 30 53 36 57 22
14 8 30 -27 31 -20 0 -39 6 -41 12 -7 23 -31 -1 -48 -49 -10 -27 -24 -49 -31
-49 -17 0 -17 3 12 60 14 27 25 52 25 55 0 3 -12 5 -26 5 -18 0 -25 -5 -23
-17z m64 -97 c-9 -20 -20 -34 -26 -31 -6 4 -1 22 13 46 27 48 35 38 13 -15z
m40 -7 c-10 -21 -22 -39 -27 -39 -13 0 -9 18 14 63 26 52 37 31 13 -24z m-135
-1 c0 -12 -13 -9 -32 6 -10 7 -15 16 -12 19 7 7 44 -14 44 -25z m159 -94 l33
-16 -29 -19 c-26 -17 -28 -18 -35 -1 -7 18 -10 52 -5 52 2 0 19 -7 36 -16z
m-299 -10 c0 -8 -4 -12 -10 -9 -5 3 -10 10 -10 16 0 5 5 9 10 9 6 0 10 -7 10
-16z m-160 -59 c0 -5 -5 -3 -10 5 -5 8 -10 20 -10 25 0 6 5 3 10 -5 5 -8 10
-19 10 -25z m318 -20 c7 -14 12 -28 12 -30 0 -8 -30 -5 -30 3 0 4 -3 17 -6 30
-9 30 10 28 24 -3z m-125 -47 c31 -72 31 -75 15 -75 -7 0 -37 -14 -66 -32 -29
-17 -55 -31 -58 -31 -9 0 -45 94 -40 106 5 14 103 94 115 94 3 0 19 -28 34
-62z m67 -43 c-7 -9 -15 -13 -19 -10 -3 3 1 10 9 15 21 14 24 12 10 -5z m-295
-34 c-3 -6 -11 -11 -17 -11 -6 0 -6 6 2 15 14 17 26 13 15 -4z m105 -105 c0
-2 -7 -7 -16 -10 -8 -3 -12 -2 -9 4 6 10 25 14 25 6z"/>
<path d="M987 2115 c-16 -46 -32 -87 -38 -90 -11 -8 -12 -25 -1 -25 5 0 36 34
71 76 l62 77 -22 23 c-13 13 -28 24 -34 24 -6 0 -23 -38 -38 -85z m59 44 c3
-6 -5 -22 -19 -36 l-25 -25 12 36 c11 37 20 44 32 25z"/>
<path d="M1179 2188 c-1 -7 0 -17 1 -23 2 -5 2 -20 2 -32 -1 -13 3 -23 8 -23
14 0 32 38 28 63 -3 24 -37 37 -39 15z"/>
<path d="M430 1728 c-7 -16 -17 -28 -22 -28 -5 0 -40 -27 -79 -60 -38 -33 -74
-60 -79 -60 -13 0 -70 114 -70 140 0 28 -11 20 -34 -24 l-19 -35 51 -46 c28
-25 49 -51 46 -58 -2 -7 -27 -27 -54 -46 -53 -36 -57 -47 -36 -96 l13 -30 13
25 c7 14 31 49 53 78 l41 54 56 -61 c31 -34 59 -61 63 -61 18 0 2 26 -48 77
l-55 56 38 36 c112 102 109 102 188 44 58 -43 76 -63 57 -63 -5 0 -21 -13 -38
-28 -16 -15 -51 -42 -77 -60 -43 -30 -46 -35 -38 -58 6 -14 10 -29 10 -34 0
-15 -119 -128 -158 -149 -22 -12 -26 -8 -78 84 -17 30 -31 28 -43 -7 -11 -31
-10 -34 30 -69 23 -20 39 -41 35 -47 -4 -6 -24 -21 -46 -33 -42 -24 -44 -28
-34 -78 6 -29 24 -44 24 -21 0 13 80 120 89 120 8 0 131 -128 131 -136 0 -3
-25 -16 -56 -30 l-56 -25 7 -37 c4 -20 8 -39 10 -41 4 -3 65 63 77 84 5 7 55
45 113 84 58 40 105 76 105 82 0 14 -3 13 -90 -46 l-82 -55 -27 22 c-14 13
-45 44 -68 69 l-42 46 65 56 c36 31 71 57 78 57 15 0 103 -54 133 -83 45 -41
33 -8 -18 49 -82 94 -83 97 -62 137 23 45 122 149 134 142 26 -16 3 26 -39 71
-26 29 -59 67 -73 85 l-27 34 -12 -27z m38 -38 c12 -19 11 -20 -8 -8 -11 7
-20 16 -20 20 0 15 15 8 28 -12z m-289 -28 c12 -22 11 -23 -8 -12 -22 11 -26
22 -14 33 7 8 7 9 22 -21z m-6 -196 c-20 -28 -33 -33 -33 -12 0 13 41 47 48
41 2 -2 -4 -15 -15 -29z m260 -21 c-3 -9 -8 -14 -10 -11 -3 3 -2 9 2 15 9 16
15 13 8 -4z m6 -107 c14 -19 5 -23 -18 -9 -7 5 -10 14 -6 21 4 6 8 10 9 8 1
-2 8 -11 15 -20z m-264 -54 c11 -18 13 -24 4 -19 -28 16 -39 28 -33 36 8 13
10 12 29 -17z m-15 -143 c-14 -27 -30 -36 -30 -17 0 8 8 20 18 25 23 14 24 14
12 -8z m145 -151 c-10 -11 -23 -20 -29 -20 -6 1 0 10 13 20 30 26 39 26 16 0z"/>
<path d="M630 1674 c-12 -4 -15 -20 -15 -72 0 -37 -3 -93 -8 -124 -4 -38 -4
-58 3 -58 5 0 10 11 10 24 0 33 10 57 21 50 5 -3 9 -22 9 -42 1 -30 2 -34 11
-19 13 22 29 13 29 -18 0 -17 4 -23 14 -19 12 4 85 -73 75 -79 -2 -1 -18 -12
-35 -24 -19 -13 -40 -20 -53 -16 -15 4 -23 -1 -30 -18 -9 -23 -10 -23 -10 7
-1 38 -10 48 -29 31 -13 -10 -14 -9 -8 10 9 28 -7 37 -27 15 -13 -14 -14 -26
-6 -67 5 -27 8 -80 5 -117 -2 -38 -1 -70 4 -73 10 -6 20 69 21 154 0 41 3 59
8 47 4 -11 6 -52 5 -93 -2 -40 1 -75 7 -78 5 -4 9 17 10 47 1 90 17 104 18 16
1 -87 20 -109 22 -25 1 28 5 66 9 82 l7 30 8 -28 c4 -15 4 -57 0 -92 -4 -39
-3 -65 3 -65 5 0 12 30 16 68 13 128 17 142 45 156 23 13 28 12 50 -12 13 -15
37 -55 54 -90 18 -39 33 -60 39 -54 6 6 1 25 -12 50 -15 28 -22 62 -24 109 -1
43 -6 67 -13 66 -7 -1 -4 24 8 73 11 41 17 79 14 84 -8 13 -62 13 -70 0 -3 -5
1 -46 10 -91 11 -60 12 -85 4 -95 -9 -11 -16 -7 -37 19 -15 18 -30 34 -34 35
-12 5 -9 70 6 142 15 70 13 82 -9 73 -11 -4 -15 -22 -16 -67 -1 -75 -11 -117
-23 -97 -8 12 -3 93 11 169 4 25 2 32 -11 32 -13 0 -16 -12 -17 -57 -1 -32 -4
-71 -8 -88 -7 -29 -7 -30 -15 -6 -7 21 -2 106 11 159 4 16 1 22 -11 22 -13 0
-16 -12 -17 -60 -1 -33 -3 -64 -4 -70 -1 -5 -3 -13 -4 -17 -1 -5 -6 -1 -11 8
-9 16 0 103 15 142 7 17 4 18 -25 11z m229 -201 c-1 -10 -5 -29 -9 -43 -7 -21
-8 -19 -9 18 -1 23 4 42 9 42 6 0 10 -8 9 -17z m1 -190 c0 -25 -1 -26 -16 -11
-9 9 -13 21 -10 27 13 20 26 11 26 -16z"/>
<path d="M1100 1275 c-7 -8 -8 -20 -4 -27 5 -7 7 -21 6 -30 -5 -29 25 -21 32
8 7 28 0 64 -13 64 -5 0 -14 -7 -21 -15z"/>
<path d="M473 831 c-13 -11 -23 -21 -23 -23 0 -2 41 -45 90 -95 50 -50 90 -96
90 -102 0 -6 -21 -24 -46 -39 -26 -15 -72 -44 -103 -64 -30 -21 -58 -34 -62
-30 -4 4 -28 46 -53 93 l-46 86 70 54 c38 29 70 57 70 62 0 11 -39 -13 -99
-61 -41 -33 -45 -34 -57 -18 -7 10 -18 40 -25 67 -7 27 -17 49 -21 49 -5 0
-16 -15 -24 -34 -16 -33 -16 -33 20 -69 20 -20 36 -38 36 -41 0 -2 -25 -19
-56 -36 -52 -31 -55 -34 -48 -64 3 -17 8 -34 11 -38 7 -12 23 -9 23 3 0 13 71
109 80 109 3 0 27 -41 54 -92 l48 -92 -33 -27 c-46 -38 -107 -65 -119 -53 -5
5 -15 37 -22 71 l-13 62 -34 -28 -34 -28 48 -48 c46 -46 48 -48 29 -62 -10 -8
-36 -21 -56 -30 -37 -15 -38 -17 -38 -64 0 -52 12 -63 31 -26 15 30 80 97 94
97 13 0 41 -37 75 -98 23 -41 23 -42 4 -56 -19 -14 -19 -15 0 -50 11 -20 22
-36 26 -36 4 0 13 19 19 42 14 55 15 56 84 107 31 23 57 49 57 57 0 9 -18 46
-40 84 -22 38 -40 72 -40 77 0 14 175 123 198 123 28 0 28 -8 0 -37 -30 -32
-14 -42 19 -12 20 18 24 19 13 4 -8 -11 -19 -23 -25 -27 -5 -4 -6 -10 -2 -14
4 -4 20 5 35 19 38 37 50 34 17 -4 -33 -40 -24 -51 13 -16 39 37 53 34 17 -3
-25 -26 -27 -32 -15 -40 19 -12 27 -12 35 0 3 5 15 14 25 20 15 8 25 5 46 -15
15 -14 24 -28 20 -32 -4 -4 -31 -15 -61 -24 -53 -16 -54 -16 -58 5 -3 20 -4
20 -15 -4 -11 -25 -11 -25 -11 -2 -1 16 -5 21 -13 15 -7 -4 -17 -8 -23 -8 -5
0 -11 -10 -13 -22 -2 -13 -7 -23 -11 -23 -5 0 -6 11 -4 24 3 13 0 27 -6 30 -7
5 -11 -2 -11 -17 0 -36 -11 -87 -20 -87 -3 0 -5 25 -2 56 3 41 2 55 -7 50 -6
-4 -11 -22 -11 -40 0 -21 -7 -39 -19 -47 -10 -8 -21 -31 -24 -52 -5 -33 -4
-38 10 -33 13 6 15 0 10 -39 -4 -25 -3 -45 2 -45 5 0 13 28 18 62 11 84 33 90
33 9 0 -34 4 -61 10 -61 6 0 10 30 10 70 0 39 4 70 9 70 5 0 7 -27 4 -60 -4
-41 -2 -60 6 -60 6 0 12 20 13 48 1 47 1 47 5 7 4 -36 16 -54 35 -55 3 0 9 33
13 74 4 40 10 78 14 84 7 11 117 52 142 52 16 0 43 -25 63 -59 6 -10 43 -58
81 -106 39 -48 73 -96 77 -106 7 -17 28 -27 28 -14 0 4 -14 46 -31 95 l-31 89
20 33 c19 30 20 40 11 118 -9 78 -8 106 7 183 4 17 1 27 -6 27 -7 0 -27 -12
-45 -27 -17 -16 -40 -33 -50 -39 -18 -10 -18 -11 3 -32 11 -11 28 -34 36 -51
17 -32 12 -41 -27 -46 -12 -1 -43 -10 -70 -19 l-47 -17 -35 28 c-41 33 -42 36
-14 75 30 42 12 49 -22 8 -16 -19 -29 -29 -29 -24 0 6 9 19 20 29 11 10 20 25
20 34 -1 11 -7 7 -21 -11 -11 -16 -26 -28 -32 -28 -6 0 0 11 13 25 29 31 18
46 -13 17 -33 -31 -43 -27 -17 5 15 19 18 29 9 32 -6 2 -16 -4 -21 -13 -5 -9
-14 -16 -20 -16 -6 0 -4 8 5 18 10 10 17 27 17 38 0 16 -4 14 -25 -11 l-25
-30 -18 23 c-14 18 -20 20 -30 10 -9 -9 -12 -8 -12 5 0 9 -4 17 -9 17 -5 0
-31 45 -58 100 -26 55 -52 100 -58 100 -5 -1 -20 -9 -32 -19z m47 -30 c18 -35
11 -45 -15 -21 -13 12 -22 27 -19 31 9 15 23 10 34 -10z m-256 -57 c9 -24 7
-28 -9 -14 -17 14 -20 30 -6 30 5 0 12 -7 15 -16z m406 -155 c0 -5 -4 -9 -10
-9 -5 0 -10 7 -10 16 0 8 5 12 10 9 6 -3 10 -10 10 -16z m382 -37 l-4 -54 -19
31 c-25 41 -24 54 4 67 12 5 22 10 23 10 0 -1 -2 -25 -4 -54z m-830 26 c-7 -7
-12 -8 -12 -2 0 14 12 26 19 19 2 -3 -1 -11 -7 -17z m519 -121 l-23 -22 17 28
c10 15 20 25 23 22 3 -3 -5 -16 -17 -28z m-531 -14 c0 -13 -3 -13 -15 -3 -8 7
-12 16 -9 21 8 13 24 1 24 -18z m849 -28 c12 -25 12 -30 0 -34 -8 -2 -25 -16
-40 -30 l-25 -26 -35 23 c-77 52 -77 53 -2 78 38 12 73 21 78 20 6 -1 16 -15
24 -31z m-629 6 c0 -5 16 -37 36 -70 20 -33 33 -64 30 -69 -3 -5 -24 -22 -48
-38 -24 -16 -49 -35 -57 -42 -12 -12 -16 -11 -24 5 -5 10 -27 43 -48 75 l-38
56 62 46 c60 45 87 56 87 37z m614 -100 c-16 -27 -17 -35 -5 -67 18 -50 9 -51
-24 -4 -15 22 -31 40 -36 40 -5 0 -14 10 -20 23 -9 18 -9 20 2 10 20 -20 43
-16 69 12 30 32 37 25 14 -14z m-352 -28 c-5 -59 -10 -63 -11 -10 -1 26 3 47
7 47 4 0 6 -17 4 -37z m-514 -13 c-13 -21 -28 -27 -28 -10 0 5 8 14 18 19 23
14 24 14 10 -9z"/>
<path d="M1147 294 c-11 -11 -8 -52 4 -60 6 -3 18 1 27 10 13 12 14 21 6 33
-12 20 -27 26 -37 17z"/>
</g>
</svg>
