<?xml version="1.0" standalone="no"?>
<!DOCTYPE svg PUBLIC "-//W3C//DTD SVG 20010904//EN"
 "http://www.w3.org/TR/2001/REC-SVG-20010904/DTD/svg10.dtd">
<svg version="1.0" xmlns="http://www.w3.org/2000/svg"
 width="102.000000pt" height="281.000000pt" viewBox="0 0 102.000000 281.000000"
 preserveAspectRatio="xMidYMid meet">
<metadata>
Created by potrace 1.16, written by Peter Selinger 2001-2019
</metadata>
<g transform="translate(0.000000,281.000000) scale(0.100000,-0.100000)"
fill="#000000" stroke="none">
<path d="M215 2750 c-16 -18 -16 -22 -1 -60 20 -51 20 -50 -4 -50 -17 0 -20 7
-20 53 0 30 -3 56 -6 59 -3 3 -17 -5 -30 -17 -21 -19 -24 -27 -15 -44 24 -43
15 -54 -37 -48 l-48 6 -11 -37 c-14 -45 -8 -56 20 -40 17 10 85 37 94 38 0 0
4 -27 8 -60 4 -33 11 -60 16 -60 4 0 9 28 11 62 2 49 7 64 19 66 11 2 21 -8
30 -30 l13 -33 3 33 4 32 92 1 c51 0 128 3 171 5 l79 6 -6 -54 c-4 -29 -7 -64
-7 -78 0 -20 -2 -22 -10 -10 -5 8 -10 28 -10 43 0 34 -15 32 -38 -5 -15 -25
-14 -28 11 -58 27 -32 35 -74 17 -85 -5 -3 -15 16 -23 42 -13 43 -37 71 -37
42 0 -7 -8 -21 -17 -32 -17 -18 -17 -19 0 -28 19 -11 67 -57 67 -65 0 -13 -43
-129 -55 -148 -7 -11 -13 -34 -13 -49 0 -16 -7 -36 -16 -45 -15 -15 -18 -15
-26 -2 -5 8 -7 21 -5 29 3 8 -1 21 -9 30 -9 9 -22 44 -30 76 -8 33 -24 96 -35
139 -12 44 -21 94 -21 112 0 32 -2 34 -32 31 -31 -3 -33 -5 -30 -35 3 -29 -4
-41 -62 -97 -62 -61 -78 -85 -57 -85 5 0 15 7 22 17 20 23 116 93 129 93 23 0
8 -38 -30 -75 -36 -35 -51 -65 -33 -65 4 0 24 16 44 36 21 20 42 34 47 30 5
-3 20 -42 31 -86 l22 -81 -40 -64 c-23 -36 -41 -69 -41 -75 0 -19 16 -10 32
18 9 15 28 38 42 51 l26 24 0 -24 c0 -13 -20 -49 -45 -81 -25 -32 -45 -60 -45
-63 0 -17 28 1 63 41 l40 46 18 -23 18 -24 10 28 c13 35 19 34 52 -5 39 -47
49 -26 11 21 -31 38 -42 84 -23 95 5 3 28 -15 51 -40 23 -25 45 -43 48 -39 7
7 1 16 -50 77 l-37 44 20 68 c17 56 23 65 35 55 11 -9 14 -8 14 3 0 8 -5 19
-10 24 -7 7 -7 19 -2 35 l9 24 7 -23 c4 -12 12 -22 18 -22 6 0 8 9 3 23 -16
54 -16 69 5 132 15 45 25 63 31 54 6 -11 11 -10 26 3 24 21 103 58 124 58 22
0 35 18 21 32 -6 6 -26 2 -58 -13 -27 -12 -62 -25 -77 -30 -28 -8 -28 -7 -22
23 7 30 7 30 -29 26 -47 -5 -46 6 2 25 94 38 122 53 122 65 0 8 -6 12 -12 9
-94 -41 -138 -57 -165 -57 -26 0 -30 -3 -26 -20 6 -21 10 -21 -264 -24 l-38
-1 1 63 c1 67 -9 77 -41 42z m-115 -134 c0 -2 -7 -6 -15 -10 -8 -3 -15 -1 -15
4 0 6 7 10 15 10 8 0 15 -2 15 -4z m533 -26 c-3 -11 -7 -20 -9 -20 -2 0 -4 9
-4 20 0 11 4 20 9 20 5 0 7 -9 4 -20z"/>
<path d="M923 2122 c-16 -10 -5 -84 11 -79 6 2 15 16 20 30 11 31 -9 62 -31
49z"/>
<path d="M193 1784 c-21 -22 -21 -26 -8 -59 20 -47 19 -68 -2 -61 -10 3 -34 8
-53 11 -34 6 -36 5 -49 -30 -7 -20 -11 -38 -8 -41 2 -2 21 3 41 11 52 22 90
16 94 -12 5 -34 22 -28 22 7 0 23 4 30 20 30 16 0 20 -7 20 -30 0 -16 5 -30
10 -30 6 0 10 14 10 30 0 30 1 30 53 30 41 -1 48 -3 34 -11 -17 -10 -17 -12 3
-43 11 -19 20 -40 20 -48 0 -7 -22 -27 -50 -43 -27 -17 -50 -36 -50 -42 0 -18
3 -17 57 17 53 34 63 36 63 15 0 -9 -14 -24 -31 -33 -17 -9 -41 -25 -53 -34
-20 -17 -20 -17 -1 -17 11 0 35 13 54 29 19 16 36 28 38 26 2 -1 14 -38 26
-82 26 -90 30 -77 -60 -169 -29 -29 -53 -58 -53 -64 0 -16 5 -14 41 20 44 41
108 83 115 76 6 -6 -7 -22 -70 -89 -52 -55 -29 -62 29 -9 25 23 53 41 63 41
10 0 33 -16 52 -35 60 -60 70 -39 15 32 -32 42 -46 83 -27 83 4 0 31 -21 60
-46 43 -38 52 -42 52 -26 0 11 -3 22 -8 24 -16 7 -82 93 -82 107 0 9 21 76 46
149 42 119 48 131 63 119 9 -8 30 -19 47 -25 17 -5 52 -26 78 -46 26 -20 52
-36 57 -36 24 0 2 24 -71 75 -44 31 -82 60 -85 64 -6 10 89 84 139 108 20 9
36 23 36 30 0 17 -15 17 -30 -2 -7 -8 -16 -15 -21 -15 -4 0 -41 -16 -82 -35
-41 -19 -84 -35 -97 -35 l-24 0 28 29 c15 16 59 43 97 61 38 17 71 36 74 41
11 16 -22 10 -72 -15 -26 -13 -76 -34 -110 -46 -65 -24 -79 -43 -40 -57 23 -8
-105 -19 -252 -22 l-74 -1 6 75 c3 41 2 75 -1 74 -4 0 -18 -14 -31 -31 -20
-25 -22 -34 -13 -49 17 -27 15 -69 -3 -69 -12 0 -15 15 -15 75 0 41 -3 75 -7
74 -5 -1 -18 -12 -30 -25z m442 -149 c-1 -49 -18 -140 -36 -185 -11 -30 -32
-90 -45 -132 -14 -43 -28 -78 -32 -78 -4 0 -22 50 -40 111 -39 132 -39 131 61
163 15 5 16 9 5 26 -17 26 -26 25 -49 -4 -22 -28 -59 -41 -59 -20 0 7 18 23
40 34 45 23 49 34 18 51 -19 10 -25 8 -43 -15 -28 -35 -35 -33 -35 13 0 46 -1
46 125 46 53 0 90 -4 90 -10z"/>
<path d="M204 763 c3 -16 9 -43 13 -62 l6 -34 -49 7 c-27 4 -59 10 -70 13 -19
4 -22 -1 -26 -32 -4 -38 5 -53 25 -37 16 12 99 32 109 26 4 -3 8 -21 8 -40 0
-19 5 -34 10 -34 6 0 10 16 10 35 0 28 4 35 20 35 16 0 20 -7 20 -30 0 -39 16
-39 24 1 6 30 8 31 44 25 20 -3 52 -6 70 -6 29 0 35 -5 53 -47 12 -27 23 -63
26 -82 5 -29 4 -33 -13 -27 -10 3 -48 10 -84 15 -36 6 -75 13 -87 17 -20 6
-23 3 -23 -25 0 -29 2 -31 28 -24 15 4 43 7 62 6 19 0 56 -2 81 -3 l47 -1 36
-104 c20 -57 50 -147 67 -200 l31 -97 30 6 c17 3 48 6 69 6 22 0 39 5 39 10 0
6 -11 10 -24 10 -90 0 -122 39 -33 42 28 0 65 0 81 -1 20 -2 27 1 24 11 -3 8
-28 15 -71 18 -37 3 -68 9 -69 13 -1 4 12 53 28 109 27 95 31 102 64 116 19 8
63 14 98 14 41 0 62 4 59 11 -2 6 -14 12 -28 12 -13 1 -50 2 -81 3 -100 3 -63
35 38 33 41 0 54 3 54 14 0 12 -15 15 -65 15 -76 0 -77 2 -41 90 13 32 22 61
20 63 -3 2 -34 3 -71 1 l-66 -3 7 69 c6 73 1 83 -28 51 -14 -15 -15 -24 -7
-40 6 -11 11 -31 11 -45 0 -20 -5 -26 -21 -26 -20 0 -21 4 -16 60 5 64 -2 73
-38 46 -15 -10 -17 -17 -8 -27 6 -8 14 -29 18 -46 l7 -33 -156 1 c-176 0 -172
-2 -140 79 19 47 16 53 -20 44 -25 -6 -25 -8 -19 -67 6 -55 5 -60 -11 -54 -10
4 -22 7 -27 7 -14 0 -11 52 5 82 17 32 12 38 -27 38 -27 0 -29 -2 -23 -27z
m286 -148 c0 -8 -2 -15 -4 -15 -2 0 -6 7 -10 15 -3 8 -1 15 4 15 6 0 10 -7 10
-15z m127 -15 c-5 -22 -3 -30 8 -30 10 0 15 10 15 30 0 23 4 30 20 30 13 0 20
-7 20 -20 0 -11 5 -20 10 -20 6 0 10 9 10 20 0 16 7 20 36 20 l36 0 -4 -62
c-2 -38 -28 -141 -63 -256 -48 -156 -61 -189 -68 -170 -39 104 -120 383 -125
430 l-5 58 58 0 58 0 -6 -30z m180 8 c-3 -8 -6 -5 -6 6 -1 11 2 17 5 13 3 -3
4 -12 1 -19z"/>
<path d="M300 415 c0 -27 18 -32 48 -16 10 5 43 11 75 14 86 6 69 18 -33 23
l-90 4 0 -25z"/>
<path d="M420 154 c-6 -15 -9 -29 -6 -31 2 -2 26 2 53 10 59 18 55 17 101 17
26 1 32 3 22 9 -8 5 -37 9 -65 8 -27 0 -60 3 -72 7 -19 6 -25 3 -33 -20z"/>
<path d="M420 82 c0 -28 8 -31 38 -17 15 7 51 15 80 18 87 8 72 17 -26 17 -83
0 -92 -2 -92 -18z"/>
</g>
</svg>
