<?xml version="1.0" standalone="no"?>
<!DOCTYPE svg PUBLIC "-//W3C//DTD SVG 20010904//EN"
 "http://www.w3.org/TR/2001/REC-SVG-20010904/DTD/svg10.dtd">
<svg version="1.0" xmlns="http://www.w3.org/2000/svg"
 width="139.000000pt" height="124.000000pt" viewBox="0 0 139.000000 124.000000"
 preserveAspectRatio="xMidYMid meet">
<metadata>
Created by potrace 1.16, written by Peter Selinger 2001-2019
</metadata>
<g transform="translate(0.000000,124.000000) scale(0.100000,-0.100000)"
fill="#000000" stroke="none">
<path d="M571 1143 c-30 -19 -81 -49 -114 -65 l-60 -31 -51 16 c-28 9 -87 34
-131 56 -70 34 -82 37 -96 25 -8 -8 -20 -14 -26 -14 -6 0 -16 -7 -23 -15 -11
-13 -7 -15 24 -15 21 0 46 -4 56 -10 10 -5 33 -10 51 -12 19 -1 39 -4 44 -8 6
-4 36 -12 68 -19 82 -18 112 -52 62 -71 -24 -9 -35 -30 -15 -30 18 0 11 -15
-13 -26 -12 -6 -39 -21 -60 -34 l-39 -23 7 67 c7 67 7 68 -16 64 -23 -3 -24
-7 -24 -72 0 -58 -3 -70 -20 -80 -28 -15 -33 -25 -28 -47 7 -27 21 -33 39 -18
14 11 15 5 10 -54 -5 -56 -4 -67 9 -67 12 0 15 15 15 78 l0 78 64 47 c35 26
71 49 80 53 16 6 113 -60 216 -149 l45 -39 5 113 5 114 75 13 c86 16 126 7
198 -40 23 -16 42 -24 42 -19 0 6 -14 33 -31 61 -28 46 -30 53 -19 85 20 60 6
60 -56 2 -58 -56 -60 -56 -120 -57 -34 0 -68 6 -78 13 -16 12 -16 17 -2 81 9
37 16 71 16 77 0 20 -58 6 -109 -28z m81 -13 c-5 -36 -7 -35 -16 3 -4 19 -3
27 7 27 9 0 12 -9 9 -30z m-25 -187 l5 -178 -76 77 c-41 42 -87 95 -102 118
l-27 41 24 25 c36 39 153 113 163 103 5 -4 11 -88 13 -186z m-462 177 c16 -7
12 -9 -18 -9 -23 -1 -36 3 -32 9 7 12 23 12 50 0z m728 -89 c-3 -10 3 -32 14
-47 10 -16 14 -26 8 -23 -5 3 -23 11 -40 19 -16 8 -32 16 -34 17 -6 4 41 53
50 53 4 0 5 -9 2 -19z m-463 5 c0 -3 -4 -8 -10 -11 -5 -3 -10 -1 -10 4 0 6 5
11 10 11 6 0 10 -2 10 -4z m-193 -88 c-3 -8 -6 -5 -6 6 -1 11 2 17 5 13 3 -3
4 -12 1 -19z m212 -18 l26 -34 -42 29 c-22 17 -39 34 -36 38 8 13 25 3 52 -33z
m-239 -115 c-7 -9 -15 -13 -17 -11 -7 7 7 26 19 26 6 0 6 -6 -2 -15z"/>
<path d="M99 1045 c-3 -2 1 -42 7 -87 7 -46 14 -114 15 -153 1 -67 14 -141 19
-120 2 6 4 60 4 120 1 61 6 140 10 178 l9 67 -30 0 c-16 0 -32 -2 -34 -5z m41
-45 c0 -16 -4 -30 -10 -30 -5 0 -10 14 -10 30 0 17 5 30 10 30 6 0 10 -13 10
-30z"/>
<path d="M1136 932 c-7 -12 5 -82 14 -82 7 0 30 45 30 60 0 13 -38 32 -44 22z"/>
<path d="M725 449 c-38 -27 -92 -60 -118 -74 -48 -26 -48 -26 -110 -10 -34 9
-69 18 -77 20 -43 10 -148 48 -167 61 -29 18 -28 18 -46 -9 -12 -18 -13 -34
-6 -77 5 -30 7 -74 4 -97 -5 -35 -10 -43 -27 -43 -20 0 -21 4 -15 83 3 45 9
92 13 105 6 20 3 22 -26 22 -31 0 -32 -1 -26 -32 4 -18 10 -70 14 -115 4 -45
9 -83 12 -86 5 -4 75 7 295 48 44 9 90 18 103 21 18 5 21 3 16 -10 -4 -11 2
-19 21 -26 31 -12 198 -124 215 -146 24 -28 30 -12 30 84 l0 97 43 14 c23 8
82 16 130 19 49 2 86 9 85 14 -2 5 -59 10 -126 11 -116 2 -122 1 -123 -18 0
-11 -3 -14 -6 -7 -3 7 0 51 7 98 6 48 10 88 8 89 -2 2 -14 6 -28 8 -19 4 -43
-7 -95 -44z m96 8 c-1 -4 -1 -19 -1 -34 0 -33 -5 -28 -13 15 -5 22 -3 32 4 30
6 -2 10 -7 10 -11z m-21 -113 c5 -49 10 -122 10 -161 l0 -73 -47 35 c-27 19
-70 54 -97 78 -51 45 -55 67 -10 67 29 0 32 20 4 27 -11 3 -20 9 -20 13 0 8
61 70 109 110 33 27 38 17 51 -96z m-490 46 c62 -11 309 -76 317 -83 2 -3 -4
-8 -14 -11 -30 -9 -375 -67 -378 -64 -2 2 -5 40 -7 86 -4 93 -9 88 82 72z
m315 -40 c-3 -5 -12 -10 -18 -10 -7 0 -6 4 3 10 19 12 23 12 15 0z"/>
<path d="M1138 364 c-21 -25 -38 -50 -38 -55 0 -6 17 -26 39 -45 21 -19 46
-53 56 -74 18 -40 35 -52 35 -25 0 8 -9 29 -20 47 -16 26 -20 51 -20 116 0 45
-3 82 -7 81 -5 0 -25 -21 -45 -45z m30 -71 l-3 -27 -17 25 c-16 25 -16 28 0
50 l17 24 3 -22 c2 -13 2 -35 0 -50z"/>
<path d="M1291 201 c-8 -5 -11 -16 -6 -30 8 -25 28 -23 33 3 5 23 -9 37 -27
27z"/>
</g>
</svg>
