<?xml version="1.0" standalone="no"?>
<!DOCTYPE svg PUBLIC "-//W3C//DTD SVG 20010904//EN"
 "http://www.w3.org/TR/2001/REC-SVG-20010904/DTD/svg10.dtd">
<svg version="1.0" xmlns="http://www.w3.org/2000/svg"
 width="125.000000pt" height="135.000000pt" viewBox="0 0 125.000000 135.000000"
 preserveAspectRatio="xMidYMid meet">
<metadata>
Created by potrace 1.16, written by Peter Selinger 2001-2019
</metadata>
<g transform="translate(0.000000,135.000000) scale(0.100000,-0.100000)"
fill="#000000" stroke="none">
<path d="M846 1285 c-9 -13 -16 -27 -16 -30 0 -4 19 -29 42 -56 22 -27 39 -51
37 -53 -4 -4 -64 -9 -85 -7 -14 1 -31 41 -40 94 -3 20 -9 37 -13 37 -3 0 -17
-16 -30 -35 l-23 -34 31 -27 c56 -47 48 -48 -141 -28 l-48 5 0 -36 c0 -35 2
-36 28 -31 61 12 159 26 190 26 24 0 35 -6 42 -22 13 -33 35 -58 49 -58 8 0 5
12 -8 34 -12 18 -21 36 -21 38 0 3 19 8 42 12 40 7 45 5 70 -26 29 -36 50 -33
24 4 -9 12 -16 26 -16 30 0 5 31 8 69 8 83 0 81 3 88 -135 3 -55 9 -107 14
-115 5 -8 9 -10 9 -5 0 6 2 69 4 140 1 72 7 141 11 154 8 22 6 24 -21 17 -16
-4 -36 -13 -44 -21 -8 -7 -46 -15 -83 -18 l-69 -5 -24 52 c-13 28 -27 66 -30
84 -7 38 -16 40 -38 7z m28 -41 c3 -8 2 -12 -4 -9 -6 3 -10 10 -10 16 0 14 7
11 14 -7z m-104 -40 c0 -8 -4 -12 -10 -9 -5 3 -10 10 -10 16 0 5 5 9 10 9 6 0
10 -7 10 -16z m357 -66 c-3 -8 -6 -5 -6 6 -1 11 2 17 5 13 3 -3 4 -12 1 -19z"/>
<path d="M410 1235 c-19 -25 -37 -45 -40 -45 -4 0 -25 -16 -48 -36 l-41 -35
-118 2 c-116 1 -118 1 -121 -21 -2 -13 2 -26 9 -30 7 -5 12 -28 11 -55 l0 -46
36 5 c38 6 94 9 125 7 9 -1 17 -8 17 -17 0 -14 -13 -15 -95 -12 -93 3 -96 2
-102 -20 -3 -13 -3 -25 -1 -28 3 -2 37 2 77 11 40 8 85 15 101 15 16 0 32 5
35 10 10 16 20 12 85 -36 34 -25 64 -43 67 -40 3 3 -15 28 -39 55 -25 28 -53
66 -62 85 -16 33 -16 38 0 68 32 64 87 128 110 128 14 0 41 -21 73 -56 29 -31
54 -54 58 -51 3 3 -9 29 -26 57 -17 27 -37 68 -43 90 -7 22 -18 40 -24 40 -5
0 -25 -20 -44 -45z m50 -24 c0 -11 -3 -11 -14 -1 -8 6 -12 18 -9 27 5 12 7 12
14 1 5 -7 9 -19 9 -27z m-210 -116 c-11 -13 -9 -20 9 -39 38 -41 21 -51 -77
-48 -105 4 -113 5 -86 20 22 12 63 20 107 21 18 1 26 5 21 12 -4 8 -27 10 -64
6 -32 -3 -64 -1 -71 4 -8 5 -12 9 -9 10 3 0 43 6 90 13 47 8 87 14 89 15 2 0
-2 -6 -9 -14z m44 -10 c-7 -16 -24 -21 -24 -6 0 8 7 13 27 20 1 1 0 -6 -3 -14z
m6 -116 c0 -6 -4 -7 -10 -4 -5 3 -10 11 -10 16 0 6 5 7 10 4 6 -3 10 -11 10
-16z"/>
<path d="M413 1080 c-21 -8 -21 -11 -7 -39 8 -16 17 -53 21 -81 8 -67 23 -75
23 -12 0 27 3 70 6 96 7 49 2 54 -43 36z m24 -32 c-3 -8 -6 -5 -6 6 -1 11 2
17 5 13 3 -3 4 -12 1 -19z"/>
<path d="M577 976 c-2 -17 -3 -34 -1 -37 2 -4 23 0 46 8 48 17 219 34 231 23
9 -8 -78 -66 -140 -94 -38 -17 -43 -23 -43 -53 0 -18 3 -33 8 -33 4 0 45 34
92 76 125 112 128 114 243 114 64 0 97 4 97 11 0 8 -61 9 -217 4 -124 -3 -238
-2 -265 3 l-46 9 -5 -31z m50 -2 c-3 -3 -12 -4 -19 -1 -8 3 -5 6 6 6 11 1 17
-2 13 -5z m93 -129 c-7 -8 -18 -15 -24 -15 -6 0 -2 7 8 15 25 19 32 19 16 0z"/>
<path d="M505 937 c-16 -18 -52 -51 -80 -74 -49 -41 -50 -41 -35 -69 24 -43
36 -39 64 22 14 31 42 74 61 95 54 60 45 84 -10 26z m-72 -117 c-3 -11 -9 -20
-14 -20 -10 0 -12 24 -2 33 13 13 21 7 16 -13z"/>
<path d="M930 932 c-19 -15 -59 -43 -87 -61 -29 -18 -53 -36 -53 -40 1 -24 15
-51 26 -51 8 0 14 4 14 10 0 5 36 46 79 90 78 78 89 107 21 52z m-100 -107
c-7 -9 -15 -13 -17 -11 -7 7 7 26 19 26 6 0 6 -6 -2 -15z"/>
<path d="M1163 813 c-4 -9 -2 -18 4 -20 5 -2 8 -15 5 -30 -3 -18 -1 -24 8 -21
17 5 34 54 26 73 -7 20 -35 19 -43 -2z"/>
<path d="M970 490 l0 -100 -53 0 c-59 0 -54 -5 -102 118 -10 23 -21 42 -26 42
-16 0 -59 -32 -59 -43 0 -7 26 -35 58 -64 l57 -52 -62 -1 c-71 0 -76 5 -109
98 -10 28 -20 52 -23 52 -13 -1 -52 -74 -47 -87 3 -8 10 -12 14 -9 4 3 21 -6
38 -20 l29 -25 -45 5 c-25 3 -55 9 -67 12 -21 6 -23 3 -23 -30 0 -40 6 -42 53
-23 40 17 103 11 112 -11 4 -10 -9 -31 -36 -58 -40 -41 -44 -42 -88 -37 -43 5
-48 3 -59 -21 -18 -39 -15 -47 13 -40 20 5 31 0 49 -21 24 -27 46 -27 46 1 0
24 38 54 70 54 16 0 30 -4 30 -10 0 -5 -7 -10 -15 -10 -21 0 -19 -23 3 -43 25
-23 39 -21 45 6 13 50 29 58 114 64 l81 5 7 -56 c4 -31 4 -76 1 -100 -5 -29
-3 -47 4 -51 6 -4 14 -5 17 -2 9 10 -9 557 -18 557 -5 0 -9 -45 -9 -100z
m-171 -1 c15 -44 14 -45 -14 -15 -14 15 -23 32 -20 37 11 17 23 9 34 -22z
m-139 -25 c0 -8 -4 -12 -10 -9 -5 3 -10 13 -10 21 0 8 5 12 10 9 6 -3 10 -13
10 -21z m-57 -81 c-7 -2 -19 -2 -25 0 -7 3 -2 5 12 5 14 0 19 -2 13 -5z m210
-12 c61 -1 62 -20 5 -78 -38 -39 -47 -43 -91 -43 -49 0 -49 0 -35 23 8 12 27
28 42 35 25 13 38 55 15 50 -6 -2 -13 2 -16 9 -2 7 3 10 14 8 10 -2 39 -4 66
-4z m159 -56 l3 -53 -75 -5 c-41 -3 -76 -4 -78 -2 -2 2 10 18 27 37 17 18 31
27 31 21 0 -7 5 -13 11 -13 5 0 9 8 8 18 -5 51 0 58 35 54 34 -4 34 -5 38 -57z
m-392 -85 c0 -5 -7 -10 -15 -10 -8 0 -15 5 -15 10 0 6 7 10 15 10 8 0 15 -4
15 -10z m184 -25 c-4 -8 -11 -15 -16 -15 -6 0 -5 6 2 15 7 8 14 15 16 15 2 0
1 -7 -2 -15z m-134 1 c0 -3 -4 -8 -10 -11 -5 -3 -10 -1 -10 4 0 6 5 11 10 11
6 0 10 -2 10 -4z"/>
<path d="M420 530 c-12 -17 -19 -38 -16 -46 4 -11 -10 -22 -52 -41 -61 -28
-134 -35 -209 -20 -42 9 -42 8 -51 -25 -12 -42 -7 -49 24 -38 25 10 25 9 19
-21 -6 -29 -5 -31 11 -24 31 13 134 19 134 7 0 -22 -31 -33 -87 -31 -53 3 -58
1 -61 -19 -4 -26 -5 -25 55 -11 28 8 48 8 52 2 3 -5 29 -22 56 -37 28 -16 58
-36 68 -44 9 -8 29 -16 45 -18 15 -1 37 -6 50 -9 15 -5 22 -3 22 6 0 7 10 32
21 56 25 51 17 69 -15 33 -12 -14 -33 -34 -45 -45 l-24 -20 7 40 c4 22 14 59
23 83 8 24 12 46 10 49 -3 2 -22 -3 -42 -11 -31 -13 -36 -20 -32 -38 3 -13 9
-45 13 -72 l7 -49 -32 19 c-23 14 -35 31 -46 68 -8 27 -15 54 -15 60 1 14 25
42 78 89 l43 38 50 -36 c39 -29 49 -33 49 -20 0 21 -71 155 -81 155 -4 0 -17
-14 -29 -30z m60 -61 c0 -15 -16 -10 -34 10 -10 11 -15 25 -10 32 5 9 12 6 26
-10 10 -13 18 -27 18 -32z m-155 -79 c-10 -11 -22 -17 -28 -13 -6 4 -1 14 13
25 29 23 39 15 15 -12z m-150 10 c3 -5 0 -10 -7 -10 -7 0 -23 -3 -36 -6 -18
-5 -21 -3 -16 10 7 18 49 22 59 6z m109 -38 c16 -18 14 -19 -31 -11 -27 4 -56
8 -66 8 -10 1 -15 6 -12 11 11 18 90 12 109 -8z m139 -61 c-4 -16 -8 -19 -14
-10 -4 7 -3 19 3 26 14 18 19 12 11 -16z m-120 -31 c6 -22 0 -25 -22 -11 -7 5
-10 14 -7 20 11 17 23 13 29 -9z"/>
<path d="M86 219 c-9 -13 -12 -27 -8 -31 9 -9 192 13 192 23 0 3 -28 10 -62
13 -35 4 -73 10 -84 12 -15 4 -27 -1 -38 -17z"/>
<path d="M1173 213 c-18 -6 -16 -40 1 -46 8 -3 20 1 27 9 10 12 9 18 -2 28 -8
8 -20 12 -26 9z"/>
</g>
</svg>
