<?xml version="1.0" standalone="no"?>
<!DOCTYPE svg PUBLIC "-//W3C//DTD SVG 20010904//EN"
 "http://www.w3.org/TR/2001/REC-SVG-20010904/DTD/svg10.dtd">
<svg version="1.0" xmlns="http://www.w3.org/2000/svg"
 width="156.000000pt" height="143.000000pt" viewBox="0 0 156.000000 143.000000"
 preserveAspectRatio="xMidYMid meet">
<metadata>
Created by potrace 1.16, written by Peter Selinger 2001-2019
</metadata>
<g transform="translate(0.000000,143.000000) scale(0.100000,-0.100000)"
fill="#000000" stroke="none">
<path d="M552 1383 c-28 -35 -28 -51 2 -62 18 -8 24 -19 28 -55 3 -25 3 -57 0
-71 -5 -27 -16 -28 -83 -9 -13 4 -18 -4 -21 -38 -6 -53 -2 -61 22 -48 10 5 30
10 44 10 25 0 26 -1 26 -72 l0 -71 -21 19 c-22 19 -23 19 -50 -29 -14 -24 -10
-27 42 -32 24 -3 57 -7 72 -11 l29 -6 -33 -34 c-45 -47 -29 -54 24 -11 69 56
133 104 156 116 27 15 27 41 1 48 -17 5 -19 11 -14 42 9 49 11 51 47 51 52 -1
99 -72 139 -210 18 -62 38 -115 43 -116 6 -2 32 54 60 124 27 70 64 158 83
196 18 38 31 71 28 73 -2 2 -20 1 -39 -2 l-34 -7 -6 -66 c-5 -58 -68 -246 -90
-268 -3 -3 -8 10 -12 28 -3 18 -17 67 -30 109 -13 42 -27 94 -31 117 -6 41 -7
42 -48 43 -22 0 -54 2 -70 2 l-29 2 2 103 c1 66 -2 102 -8 102 -6 0 -11 6 -11
14 0 31 -20 25 -62 -19 -23 -24 -48 -45 -55 -45 -17 0 -51 46 -58 80 -8 37
-15 37 -43 3z m36 -48 c-9 -9 -30 14 -23 25 6 9 10 8 17 -4 6 -10 8 -19 6 -21z
m182 -59 c0 -24 -3 -63 -6 -87 l-6 -44 -77 10 c-72 10 -76 12 -73 35 7 66 14
93 21 81 6 -9 23 -4 67 18 32 17 62 30 67 31 4 0 7 -20 7 -44z m-212 -126 c28
0 9 -15 -23 -17 -27 -2 -35 1 -35 13 0 12 6 15 23 10 12 -3 28 -6 35 -6z m573
-17 c-8 -15 -10 -15 -11 -2 0 17 10 32 18 25 2 -3 -1 -13 -7 -23z m-371 -53
c0 -21 -6 -43 -13 -47 -7 -4 -26 -26 -42 -48 -16 -22 -32 -44 -36 -49 -4 -4
-23 -2 -43 5 -34 12 -36 15 -36 59 0 25 3 62 6 83 l7 37 78 0 79 0 0 -40z
m150 20 c0 -5 -2 -10 -4 -10 -3 0 -8 5 -11 10 -3 6 -1 10 4 10 6 0 11 -4 11
-10z m-150 -105 c-7 -9 -15 -13 -17 -11 -7 7 7 26 19 26 6 0 6 -6 -2 -15z"/>
<path d="M1237 883 c-11 -18 1 -78 15 -81 18 -3 32 40 23 69 -6 19 -30 26 -38
12z"/>
<path d="M220 665 l0 -85 -52 0 c-29 0 -70 4 -91 9 -48 11 -54 1 -18 -36 16
-17 33 -38 38 -48 8 -13 14 -15 29 -7 11 5 35 12 54 14 28 2 35 0 34 -14 0
-10 -1 -46 -2 -80 l-2 -61 -23 21 c-28 27 -47 28 -47 4 0 -10 12 -25 28 -33
15 -7 48 -28 74 -46 l46 -32 71 49 71 49 16 -57 c9 -31 24 -86 34 -122 10 -36
20 -76 22 -90 5 -39 22 -22 34 34 7 28 31 105 54 171 23 66 55 165 72 220 16
55 39 115 50 134 21 32 21 34 3 47 -21 15 -35 10 -35 -13 0 -9 -8 -40 -17 -70
l-17 -53 -118 0 -118 0 0 49 c0 27 5 62 10 76 19 51 -1 44 -62 -20 l-61 -66
-23 53 c-12 29 -25 61 -28 71 -3 9 -10 17 -16 17 -6 0 -10 -33 -10 -85z m163
-47 l-6 -48 -39 0 -40 0 42 50 c24 28 44 49 45 48 2 -2 1 -24 -2 -50z m-113
-4 c13 -39 9 -50 -15 -41 -10 4 -15 20 -15 47 0 48 13 45 30 -6z m-56 -63 c8
-12 -89 -25 -105 -15 -9 5 -7 10 7 15 27 11 92 11 98 0z m53 -7 c-3 -3 -12 -4
-19 -1 -8 3 -5 6 6 6 11 1 17 -2 13 -5z m368 -16 c-3 -13 -31 -102 -62 -198
l-57 -175 -29 120 c-17 66 -35 123 -41 127 -6 4 -18 0 -27 -8 -8 -7 -19 -14
-22 -14 -8 0 -9 97 -1 127 8 28 55 41 162 42 82 1 83 1 77 -21z m-268 -82 c-4
-87 -11 -101 -55 -125 -17 -9 -28 -9 -52 4 -26 14 -30 21 -30 59 0 24 3 64 6
89 7 50 9 51 102 55 l34 2 -5 -84z"/>
<path d="M924 678 c-19 -21 -20 -31 -13 -123 3 -55 5 -102 3 -104 -7 -7 -77
20 -95 36 -15 13 -19 11 -38 -15 -38 -54 -30 -62 55 -62 l75 0 -6 -107 -7
-108 55 -43 c31 -23 63 -45 71 -48 14 -5 13 -10 -4 -34 -43 -60 -17 -51 44 15
35 39 75 76 90 84 35 19 34 41 -4 41 l-29 0 6 103 c3 56 7 103 8 105 1 1 67 3
145 3 108 1 145 -3 152 -13 17 -26 -12 -238 -33 -238 -12 0 -59 121 -59 150 0
42 -17 46 -50 13 l-30 -29 37 -31 c25 -19 48 -53 68 -96 16 -37 32 -67 36 -67
6 0 15 26 50 150 11 41 32 96 44 122 26 52 21 64 -20 48 -34 -13 -36 -13 -33
3 2 9 -27 11 -130 9 -73 -2 -145 -1 -159 3 -24 6 -25 9 -20 48 4 23 9 57 13
75 l7 33 -37 -22 c-27 -16 -35 -26 -30 -38 3 -9 9 -35 11 -58 l6 -43 -84 0
-84 0 -1 85 c-1 47 1 85 3 85 2 0 20 -12 38 -27 24 -19 33 -33 29 -45 -11 -35
16 -17 55 36 43 58 86 96 107 96 8 0 14 5 14 10 0 6 -22 10 -50 10 -40 0 -50
-3 -50 -17 0 -9 -12 -36 -26 -61 -26 -43 -27 -44 -45 -26 -10 11 -29 41 -42
67 l-23 48 -20 -23z m-99 -228 c3 -5 -3 -10 -15 -10 -12 0 -18 5 -15 10 3 6
10 10 15 10 5 0 12 -4 15 -10z m279 -70 c14 -84 -17 -242 -52 -264 -4 -2 -33
18 -65 46 l-57 50 0 98 0 99 43 4 c23 2 61 3 84 3 39 -1 41 -3 47 -36z m376
16 c0 -3 -4 -8 -10 -11 -5 -3 -10 -1 -10 4 0 6 5 11 10 11 6 0 10 -2 10 -4z
m-160 -96 c0 -5 -2 -10 -4 -10 -3 0 -8 5 -11 10 -3 6 -1 10 4 10 6 0 11 -4 11
-10z"/>
<path d="M686 162 c-9 -15 1 -86 12 -90 16 -5 34 35 30 66 -3 26 -30 42 -42
24z"/>
<path d="M1552 100 c0 -14 2 -19 5 -12 2 6 2 18 0 25 -3 6 -5 1 -5 -13z"/>
<path d="M750 10 l-755 -5 783 -3 c430 -1 782 0 782 2 0 10 -106 11 -810 6z"/>
</g>
</svg>
