<?xml version="1.0" standalone="no"?>
<!DOCTYPE svg PUBLIC "-//W3C//DTD SVG 20010904//EN"
 "http://www.w3.org/TR/2001/REC-SVG-20010904/DTD/svg10.dtd">
<svg version="1.0" xmlns="http://www.w3.org/2000/svg"
 width="134.000000pt" height="67.000000pt" viewBox="0 0 134.000000 67.000000"
 preserveAspectRatio="xMidYMid meet">
<metadata>
Created by potrace 1.16, written by Peter Selinger 2001-2019
</metadata>
<g transform="translate(0.000000,67.000000) scale(0.100000,-0.100000)"
fill="#000000" stroke="none">
<path d="M687 624 c-3 -3 -3 -12 0 -20 7 -18 -45 -106 -60 -101 -7 2 -17 25
-24 51 -15 62 -20 66 -43 36 -29 -37 -25 -58 15 -74 19 -8 38 -22 41 -31 9
-23 28 -18 46 13 9 15 30 40 46 55 26 25 28 31 18 53 -11 23 -26 30 -39 18z"/>
<path d="M377 505 l-19 -44 51 -63 c28 -34 51 -65 51 -68 0 -3 -25 -31 -56
-64 l-56 -58 23 -24 c25 -27 30 -24 49 26 16 41 74 135 89 144 13 8 34 46 26
46 -3 0 -19 -14 -34 -30 l-28 -31 -32 66 c-31 63 -36 80 -29 119 6 37 -17 25
-35 -19z m27 -289 c-3 -9 -10 -16 -15 -16 -5 0 -4 9 3 20 14 22 21 20 12 -4z"/>
<path d="M706 528 c-8 -13 -22 -42 -31 -65 -10 -24 -22 -43 -29 -43 -6 0 -22
16 -35 35 -27 40 -36 43 -51 16 -15 -29 -14 -30 35 -52 32 -14 45 -26 45 -40
0 -29 17 -14 38 34 10 23 34 56 52 74 28 27 31 35 20 48 -17 21 -27 19 -44 -7z"/>
<path d="M302 469 c-12 -40 -12 -41 29 -90 l42 -50 -28 -29 c-16 -17 -37 -32
-47 -36 -22 -7 -23 -20 -2 -42 15 -15 18 -14 30 3 8 10 14 24 14 29 0 6 18 31
40 55 38 42 48 68 16 42 -13 -11 -18 -8 -34 18 -10 16 -19 51 -21 77 -4 77
-19 86 -39 23z"/>
<path d="M850 456 l0 -36 78 -1 c42 0 131 -8 197 -18 l120 -17 -55 -21 c-98
-37 -274 -83 -317 -83 -21 0 -33 -24 -33 -69 0 -23 1 -23 18 -8 10 10 21 17
25 17 3 0 34 13 69 29 54 25 188 75 306 114 18 6 31 15 29 21 -2 5 -41 18 -88
27 -46 9 -118 24 -159 32 -68 14 -103 23 -167 42 -21 7 -23 4 -23 -29z m60
-12 c0 -2 -7 -4 -15 -4 -8 0 -15 4 -15 10 0 5 7 7 15 4 8 -4 15 -8 15 -10z
m-10 -194 c-20 -13 -33 -13 -25 0 3 6 14 10 23 10 15 0 15 -2 2 -10z"/>
<path d="M742 453 c-7 -16 -24 -47 -38 -71 -33 -54 -24 -68 9 -15 14 21 36 49
50 62 14 13 23 29 20 37 -8 23 -28 16 -41 -13z"/>
<path d="M235 442 c-22 -37 -35 -41 -35 -12 0 32 -17 23 -30 -16 -10 -30 -10
-38 1 -45 8 -4 23 -14 34 -22 19 -15 19 -15 1 -36 -15 -16 -22 -19 -30 -10 -8
8 -7 13 2 16 16 6 15 23 -2 23 -17 0 -26 22 -26 60 0 44 -14 43 -43 0 l-25
-39 26 -21 c26 -20 26 -21 8 -33 -52 -34 -57 -41 -50 -74 6 -32 24 -46 24 -20
0 17 48 87 60 87 17 0 11 -27 -6 -34 -16 -6 -16 -8 0 -24 9 -10 16 -27 16 -38
1 -19 1 -19 15 0 8 11 15 27 15 37 0 9 16 31 35 50 37 36 45 59 20 59 -13 0
-41 37 -33 45 7 7 70 -29 76 -43 3 -8 -3 -23 -14 -32 -10 -9 -30 -28 -43 -43
-20 -22 -22 -29 -11 -42 19 -22 40 -18 40 8 0 12 13 38 30 57 35 42 35 45 10
72 -11 12 -25 39 -33 62 l-13 40 -19 -32z m-95 -97 c0 -5 -5 -3 -10 5 -5 8
-10 20 -10 25 0 6 5 3 10 -5 5 -8 10 -19 10 -25z"/>
<path d="M758 388 c-20 -23 -55 -62 -76 -86 -43 -45 -42 -45 -77 3 -15 20 -15
20 -30 1 -20 -26 -19 -46 1 -46 9 0 32 -9 50 -21 34 -20 34 -20 34 -1 0 22 88
105 133 125 30 13 33 25 14 51 -12 16 -16 14 -49 -26z"/>
<path d="M571 393 c-18 -34 -13 -50 17 -56 15 -3 35 -9 45 -12 26 -11 21 5
-17 50 -32 38 -33 38 -45 18z"/>
<path d="M729 269 c-100 -93 -192 -167 -222 -178 -29 -11 -37 -31 -12 -31 8 0
30 9 49 19 19 11 70 34 113 52 99 40 104 45 73 69 -14 10 -23 20 -20 22 28 21
90 57 108 62 27 9 25 26 -4 37 -16 6 -34 -5 -85 -52z m-24 -79 c3 -5 -8 -16
-24 -25 -42 -21 -48 -19 -21 10 25 27 35 30 45 15z"/>
<path d="M557 243 c-12 -12 -8 -18 24 -32 39 -17 49 -7 18 18 -26 22 -32 24
-42 14z"/>
</g>
</svg>
