<?xml version="1.0" standalone="no"?>
<!DOCTYPE svg PUBLIC "-//W3C//DTD SVG 20010904//EN"
 "http://www.w3.org/TR/2001/REC-SVG-20010904/DTD/svg10.dtd">
<svg version="1.0" xmlns="http://www.w3.org/2000/svg"
 width="162.000000pt" height="112.000000pt" viewBox="0 0 162.000000 112.000000"
 preserveAspectRatio="xMidYMid meet">
<metadata>
Created by potrace 1.16, written by Peter Selinger 2001-2019
</metadata>
<g transform="translate(0.000000,112.000000) scale(0.100000,-0.100000)"
fill="#000000" stroke="none">
<path d="M403 1113 c224 -2 590 -2 815 0 224 1 40 2 -408 2 -448 0 -632 -1
-407 -2z"/>
<path d="M345 1080 c-3 -5 -1 -37 5 -71 6 -34 9 -64 6 -67 -8 -7 -207 48 -225
62 -11 8 -15 8 -19 -3 -2 -7 -13 -21 -23 -29 -35 -30 -23 -42 44 -43 34 0 98
-6 142 -12 l80 -12 3 -60 3 -60 -118 -18 c-65 -10 -131 -18 -148 -20 -25 -2
-31 -7 -33 -29 -2 -16 -8 -28 -13 -28 -5 0 -9 -7 -9 -15 0 -20 7 -19 64 10 27
14 60 25 72 25 13 0 25 4 28 9 3 4 33 14 67 20 33 7 68 15 76 18 13 5 15 -9
12 -103 -3 -69 0 -108 6 -107 6 2 11 20 12 40 2 21 5 70 9 109 l5 71 67 18
c142 36 173 42 176 36 2 -3 7 -41 11 -84 5 -49 11 -77 18 -74 6 2 21 44 33 93
13 49 28 97 34 108 17 27 0 38 -56 34 -41 -3 -48 -6 -46 -21 2 -14 -1 -17 -15
-14 -10 3 -43 12 -73 21 -30 8 -74 20 -98 26 -33 9 -42 15 -38 28 8 28 36 143
36 148 0 9 -89 3 -95 -6z m51 -57 c-3 -21 -6 -49 -7 -63 -1 -17 -4 -13 -10 15
-13 63 -11 85 7 85 14 0 15 -7 10 -37z m107 -155 c48 -13 87 -25 87 -28 0 -4
-35 -13 -77 -22 -43 -9 -88 -19 -100 -23 -21 -7 -23 -4 -23 28 0 38 8 67 19
67 3 0 45 -10 94 -22z m191 -25 c-4 -21 -12 -51 -19 -68 -13 -30 -13 -30 -14
22 -1 28 -4 58 -7 67 -5 12 0 16 20 16 26 0 27 -2 20 -37z m-584 -133 c-20
-13 -33 -13 -25 0 3 6 14 10 23 10 15 0 15 -2 2 -10z"/>
<path d="M1084 1037 c-3 -9 -1 -32 5 -52 l10 -37 -32 6 c-18 4 -50 15 -71 26
-41 20 -56 19 -56 -5 0 -7 -7 -16 -16 -19 -35 -14 -3 -31 81 -43 48 -7 90 -15
93 -17 5 -6 4 -117 -1 -123 -2 -2 -46 -7 -98 -11 -74 -5 -94 -10 -94 -22 0 -8
-4 -21 -8 -27 -14 -23 2 -32 36 -22 64 20 138 39 151 39 9 0 12 -16 12 -52 0
-32 4 -53 12 -56 9 -3 12 13 12 56 0 42 4 61 14 65 7 3 69 13 137 22 68 8 153
20 189 26 36 6 74 12 84 13 44 6 23 24 -41 36 -91 16 -301 66 -335 79 -27 10
-27 10 -13 52 21 59 19 68 -14 67 -15 -1 -33 2 -40 6 -6 4 -14 1 -17 -7z m56
-39 c0 -17 -20 -47 -20 -31 0 6 -3 18 -6 27 -4 11 -1 16 10 16 9 0 16 -6 16
-12z m-145 -48 c18 -8 17 -9 -7 -9 -16 -1 -28 4 -28 9 0 12 8 12 35 0z m258
-84 c56 -13 128 -27 160 -31 60 -8 79 -25 27 -25 -17 0 -72 -6 -123 -14 -50
-8 -113 -17 -139 -20 l-48 -6 0 54 c0 46 5 66 17 66 2 0 49 -11 106 -24z
m-268 -136 c-28 -12 -57 -12 -50 0 3 6 21 10 38 9 27 0 29 -2 12 -9z"/>
<path d="M775 731 c-10 -17 6 -81 21 -81 15 0 28 38 22 67 -4 20 -33 30 -43
14z"/>
<path d="M1566 722 c-10 -16 6 -82 20 -82 15 0 28 38 22 67 -3 19 -33 30 -42
15z"/>
<path d="M466 455 c-20 -30 -20 -45 -2 -45 19 0 26 -29 33 -137 l6 -93 -34 -1
c-73 -2 -71 -1 -73 -47 -3 -46 0 -49 29 -28 37 25 150 66 225 81 41 8 107 21
145 28 l70 14 5 -91 c6 -114 24 -113 26 2 1 46 6 87 10 91 5 5 43 14 84 21 41
8 78 15 83 16 4 1 18 2 32 3 22 1 45 25 34 35 -2 2 -51 12 -109 21 -58 10
-108 21 -113 24 -4 4 -1 26 7 48 8 23 12 44 9 47 -4 3 -22 6 -41 6 l-35 0 7
-46 6 -46 -48 7 c-102 15 -236 56 -282 85 -26 16 -49 30 -52 30 -3 0 -13 -11
-22 -25z m49 -15 c3 -5 -1 -10 -9 -10 -9 0 -16 5 -16 10 0 6 4 10 9 10 6 0 13
-4 16 -10z m382 -42 c-3 -8 -6 -5 -6 6 -1 11 2 17 5 13 3 -3 4 -12 1 -19z
m-242 -22 c55 -13 126 -29 158 -36 l58 -12 -3 -41 -3 -42 -50 -8 c-27 -4 -97
-16 -154 -27 -151 -29 -141 -33 -141 54 0 88 8 136 24 136 6 0 56 -11 111 -24z
m386 -75 l34 -8 -40 -11 c-22 -5 -61 -13 -87 -17 l-48 -6 0 31 0 31 54 -6 c29
-4 68 -10 87 -14z m-584 -157 c-3 -3 -12 -4 -19 -1 -8 3 -5 6 6 6 11 1 17 -2
13 -5z"/>
<path d="M1212 191 c-21 -13 -10 -46 16 -49 23 -3 28 11 16 42 -7 18 -13 19
-32 7z"/>
<path d="M137 3 c68 -2 178 -2 246 0 67 1 12 3 -123 3 -135 0 -190 -2 -123 -3z"/>
</g>
</svg>
