<?xml version="1.0" standalone="no"?>
<!DOCTYPE svg PUBLIC "-//W3C//DTD SVG 20010904//EN"
 "http://www.w3.org/TR/2001/REC-SVG-20010904/DTD/svg10.dtd">
<svg version="1.0" xmlns="http://www.w3.org/2000/svg"
 width="118.000000pt" height="127.000000pt" viewBox="0 0 118.000000 127.000000"
 preserveAspectRatio="xMidYMid meet">
<metadata>
Created by potrace 1.16, written by Peter Selinger 2001-2019
</metadata>
<g transform="translate(0.000000,127.000000) scale(0.100000,-0.100000)"
fill="#000000" stroke="none">
<path d="M563 1206 c-25 -24 -128 -67 -223 -93 -36 -9 -71 -23 -78 -30 -18
-18 -99 -16 -156 3 -26 9 -49 14 -51 12 -3 -2 -8 -20 -11 -38 -6 -27 -4 -32 8
-28 8 4 61 9 116 13 91 7 102 6 102 -9 0 -17 -16 -20 -150 -21 l-75 0 2 -30
c1 -16 3 -56 4 -88 2 -48 5 -57 18 -52 22 9 125 23 186 26 52 2 92 -13 151
-57 61 -47 60 -21 -1 49 -25 29 -51 64 -58 80 -12 28 -19 32 -31 20 -8 -8
-196 -7 -204 2 -13 13 18 24 91 30 74 6 81 9 116 44 45 45 185 115 215 107 12
-3 45 -28 75 -55 30 -28 58 -48 62 -45 4 2 -4 25 -18 50 -14 25 -31 64 -38 87
-14 48 -23 52 -52 23z m38 -52 c5 -15 8 -28 7 -30 -7 -7 -49 37 -43 46 11 17
25 11 36 -16z m-287 -88 c-21 -15 -30 -14 -19 3 3 6 14 11 23 11 13 0 13 -2
-4 -14z m-51 -155 c-5 -21 -9 -22 -92 -19 -68 2 -86 6 -86 18 0 12 19 16 90
20 50 3 91 5 92 5 1 -1 0 -11 -4 -24z m81 -12 l18 -31 -28 18 c-16 10 -31 19
-33 20 -5 4 9 24 17 24 4 0 16 -14 26 -31z"/>
<path d="M706 1092 c-2 -4 -7 -22 -11 -40 l-7 -34 49 9 c26 4 108 8 181 8 91
0 132 3 132 11 0 8 -42 13 -127 16 -81 3 -143 11 -170 21 -23 9 -44 13 -47 9z
m54 -36 c0 -2 -9 -6 -20 -9 -11 -3 -20 -1 -20 4 0 5 9 9 20 9 11 0 20 -2 20
-4z"/>
<path d="M1095 1093 c-45 -9 -47 -11 -30 -44 12 -22 17 -63 18 -147 1 -72 6
-116 12 -115 6 2 11 29 12 60 1 32 8 98 14 146 11 92 8 106 -26 100z m15 -49
c0 -8 -4 -12 -10 -9 -5 3 -10 10 -10 16 0 5 5 9 10 9 6 0 10 -7 10 -16z"/>
<path d="M492 1053 c-27 -4 -32 -8 -26 -21 5 -9 10 -63 12 -119 3 -108 17
-136 26 -55 5 39 16 94 38 181 4 16 -6 19 -50 14z m15 -55 c-3 -7 -5 -2 -5 12
0 14 2 19 5 13 2 -7 2 -19 0 -25z"/>
<path d="M613 926 c-4 -8 -37 -45 -72 -82 -54 -56 -62 -69 -53 -83 7 -9 17
-26 24 -39 6 -12 15 -21 20 -20 10 4 108 208 108 225 0 17 -17 16 -27 -1z
m-55 -127 c-12 -24 -24 -46 -25 -48 -2 -3 -8 0 -14 6 -8 8 -2 22 22 51 19 23
35 39 37 38 1 -2 -8 -23 -20 -47z"/>
<path d="M666 891 c-19 -36 -12 -42 40 -31 21 5 108 10 192 11 115 1 152 5
152 14 0 10 -41 14 -167 17 -93 3 -176 8 -185 12 -12 6 -21 0 -32 -23z"/>
<path d="M491 535 c-47 -50 -177 -148 -221 -167 -45 -20 -108 -21 -197 -2
l-31 6 0 -97 0 -97 32 6 c17 3 68 8 112 12 l81 6 79 -42 c113 -62 113 -62 125
-97 13 -42 23 -41 46 2 10 19 36 60 58 90 l40 55 3 -30 c2 -17 4 -30 5 -30 1
0 24 7 51 15 34 11 95 15 203 15 l154 0 -7 -65 c-4 -42 -3 -65 3 -65 16 0 23
37 23 119 0 40 7 100 15 132 9 33 13 64 10 69 -3 5 -20 7 -38 5 -65 -10 -265
-4 -322 10 -66 15 -75 13 -75 -16 0 -34 -17 -20 -40 34 -12 28 -30 70 -41 93
-10 22 -19 46 -19 52 0 20 -23 13 -49 -13z m51 -55 c9 -22 13 -40 10 -39 -14
1 -53 59 -47 69 11 18 20 11 37 -30z m-52 -7 c0 -5 17 -26 38 -48 44 -47 112
-139 112 -151 -1 -14 -81 -98 -126 -132 l-41 -32 -41 28 c-60 41 -152 128
-152 144 0 8 34 48 76 89 41 41 83 82 92 91 18 17 42 23 42 11z m205 -113 c3
-5 -3 -10 -14 -10 -12 0 -21 5 -21 10 0 6 6 10 14 10 8 0 18 -4 21 -10z m-405
-20 c-10 -19 -30 -28 -30 -14 0 6 30 33 38 34 1 0 -2 -9 -8 -20z m757 -12 c-3
-8 -6 -5 -6 6 -1 11 2 17 5 13 3 -3 4 -12 1 -19z m-23 -48 c4 -33 5 -64 2 -68
-5 -9 -286 -6 -356 4 l-45 6 23 18 c24 20 28 40 10 58 -28 28 32 40 213 41
l146 1 7 -60z m-789 39 c11 -16 5 -17 -75 -11 -51 3 -68 8 -55 13 30 12 123
10 130 -2z m0 -48 c-8 -14 -165 -15 -165 -1 0 7 156 20 169 13 1 -1 0 -6 -4
-12z m50 -41 c17 -19 17 -19 -13 -8 -17 7 -29 16 -26 20 8 13 20 9 39 -12z
m-75 0 c0 -6 -28 -10 -67 -9 -53 1 -61 3 -38 9 45 11 105 11 105 0z m300 -135
c-7 -9 -15 -13 -18 -10 -3 2 1 11 8 20 7 9 15 13 18 10 3 -2 -1 -11 -8 -20z"/>
<path d="M401 359 l-24 -30 24 -16 c13 -9 48 -40 77 -70 29 -29 55 -53 57 -53
12 0 3 23 -22 58 -16 21 -39 62 -52 90 -14 29 -27 52 -30 51 -3 0 -17 -14 -30
-30z m43 -35 c4 -10 1 -14 -6 -12 -15 5 -23 28 -10 28 5 0 13 -7 16 -16z"/>
</g>
</svg>
