<?xml version="1.0" standalone="no"?>
<!DOCTYPE svg PUBLIC "-//W3C//DTD SVG 20010904//EN"
 "http://www.w3.org/TR/2001/REC-SVG-20010904/DTD/svg10.dtd">
<svg version="1.0" xmlns="http://www.w3.org/2000/svg"
 width="121.000000pt" height="72.000000pt" viewBox="0 0 121.000000 72.000000"
 preserveAspectRatio="xMidYMid meet">
<metadata>
Created by potrace 1.16, written by Peter Selinger 2001-2019
</metadata>
<g transform="translate(0.000000,72.000000) scale(0.100000,-0.100000)"
fill="#000000" stroke="none">
<path d="M697 623 c-4 -3 -7 -15 -7 -25 0 -14 -8 -18 -31 -18 l-31 0 8 -47 c4
-27 8 -128 8 -225 1 -180 8 -230 19 -137 7 60 5 55 40 64 25 7 27 5 29 -26 1
-19 1 -48 -1 -66 -1 -17 3 -34 9 -38 6 -4 11 7 11 27 3 71 9 112 16 118 4 4
49 20 98 35 50 15 97 30 105 34 8 4 46 16 83 26 83 22 84 36 2 72 -59 26 -225
129 -296 185 -38 29 -51 33 -62 21z m78 -60 c31 -20 54 -37 52 -39 -4 -4 -115
40 -123 49 -6 6 3 27 12 27 2 0 29 -16 59 -37z m-101 -65 c-8 -63 -14 -74 -14
-27 0 19 -3 44 -6 57 -5 16 -2 22 10 22 14 0 16 -8 10 -52z m115 18 c67 -24
269 -120 284 -135 4 -4 -43 -23 -105 -41 -62 -18 -127 -39 -145 -47 -51 -21
-65 -17 -59 15 2 15 8 57 11 95 l7 67 -37 0 -36 0 5 -42 c13 -108 16 -168 9
-168 -4 0 -18 -3 -30 -6 -22 -6 -23 -3 -23 42 0 27 7 90 15 139 8 50 15 93 15
98 0 12 19 8 89 -17z m-33 -112 c-3 -26 -6 -56 -7 -68 -2 -37 -17 23 -18 72
-1 33 3 42 15 42 14 0 16 -8 10 -46z"/>
<path d="M118 589 c-11 -11 -31 -19 -49 -19 -28 0 -31 -3 -25 -22 15 -52 26
-190 25 -298 0 -63 0 -118 0 -123 1 -4 24 11 52 33 28 22 54 40 57 40 4 0 6
-21 3 -46 -2 -25 2 -51 8 -57 8 -8 11 0 11 31 0 28 4 40 13 38 6 -1 9 -1 5 1
-5 3 -8 14 -8 26 0 18 26 35 150 97 93 46 150 81 150 90 0 8 -38 36 -88 64
-48 27 -127 76 -176 108 -49 32 -94 58 -100 57 -6 0 -19 -9 -28 -20z m142 -74
c0 -3 -124 37 -129 41 -2 2 2 10 8 18 11 13 20 10 67 -21 30 -20 54 -37 54
-38z m-159 -25 c-3 -59 -20 -107 -21 -59 0 14 -3 48 -6 74 -6 42 -5 47 12 43
15 -3 18 -11 15 -58z m125 14 c97 -32 256 -113 251 -127 -2 -6 -19 -16 -38
-22 -19 -7 -56 -22 -84 -35 -76 -35 -136 -60 -142 -60 -3 0 -3 41 1 90 4 50 5
90 2 90 -13 0 -56 -24 -56 -31 0 -4 7 -38 15 -74 9 -37 14 -72 12 -78 -3 -9
-88 -40 -93 -34 -1 1 5 71 14 155 11 98 21 152 28 152 7 0 47 -12 90 -26z
m-26 -108 c0 -8 -4 -18 -10 -21 -5 -3 -10 3 -10 14 0 12 5 21 10 21 6 0 10 -6
10 -14z m-11 -170 c-16 -15 -99 -55 -99 -48 0 5 6 14 13 19 18 15 100 42 86
29z"/>
<path d="M426 112 c-2 -4 -1 -14 3 -21 5 -7 6 -22 4 -32 -6 -23 12 -26 21 -3
11 29 7 64 -8 64 -8 0 -17 -4 -20 -8z"/>
</g>
</svg>
