<?xml version="1.0" standalone="no"?>
<!DOCTYPE svg PUBLIC "-//W3C//DTD SVG 20010904//EN"
 "http://www.w3.org/TR/2001/REC-SVG-20010904/DTD/svg10.dtd">
<svg version="1.0" xmlns="http://www.w3.org/2000/svg"
 width="114.000000pt" height="133.000000pt" viewBox="0 0 114.000000 133.000000"
 preserveAspectRatio="xMidYMid meet">
<metadata>
Created by potrace 1.16, written by Peter Selinger 2001-2019
</metadata>
<g transform="translate(0.000000,133.000000) scale(0.100000,-0.100000)"
fill="#000000" stroke="none">
<path d="M366 1283 c-4 -4 -28 -10 -54 -13 -46 -5 -47 -6 -50 -42 -2 -29 0
-38 12 -38 9 0 16 -4 16 -10 0 -14 -13 -13 -124 10 -53 11 -101 18 -107 15 -5
-4 -9 -19 -9 -36 l0 -29 133 0 132 0 38 -76 c21 -42 36 -78 33 -81 -7 -8 -154
-31 -246 -39 -70 -6 -78 -9 -94 -34 -22 -38 -21 -65 2 -54 70 30 322 104 358
104 11 0 34 -64 34 -95 0 -40 17 -46 44 -16 10 11 30 25 46 31 16 7 36 23 45
36 14 22 14 26 0 40 -20 21 -19 31 6 37 27 7 15 27 -16 27 -19 0 -30 11 -50
50 -30 59 -42 55 137 34 73 -9 152 -17 175 -18 71 -4 58 -12 -48 -30 -56 -10
-118 -24 -138 -31 l-36 -14 30 0 c17 0 91 13 165 28 l135 27 8 -45 c14 -80 17
-91 26 -91 4 0 11 42 14 93 3 50 11 107 17 125 15 41 10 46 -26 27 -16 -8 -35
-15 -42 -15 -9 0 -12 -10 -10 -27 2 -20 -1 -27 -12 -26 -8 1 -103 9 -210 18
-107 9 -202 18 -210 21 -14 4 -70 112 -70 134 0 11 -43 14 -54 3z m14 -48 c0
-8 -11 -17 -25 -21 -14 -3 -25 -13 -25 -21 0 -8 3 -13 8 -11 4 2 19 10 34 17
22 11 30 12 43 1 31 -26 18 -40 -38 -40 -48 0 -55 3 -66 26 -6 15 -10 27 -9
29 56 39 78 45 78 20z m-20 -105 c0 -5 21 -7 49 -3 l49 6 24 -44 c37 -71 39
-77 18 -72 -10 3 -32 -3 -50 -12 -17 -9 -33 -15 -35 -13 -15 17 -73 148 -65
148 5 0 10 -4 10 -10z m610 -16 c0 -14 -4 -23 -10 -19 -5 3 -10 15 -10 26 0
10 5 19 10 19 6 0 10 -12 10 -26z m-419 -158 l16 -34 -37 -11 c-69 -21 -85
-13 -90 44 -1 8 49 26 90 34 3 1 13 -14 21 -33z m-431 -46 c-20 -13 -53 -13
-45 0 3 6 18 10 33 10 21 0 24 -2 12 -10z"/>
<path d="M426 1085 c-10 -8 -24 -16 -30 -18 -6 -2 -8 -7 -5 -11 8 -8 79 24 79
36 0 12 -23 9 -44 -7z"/>
<path d="M1083 848 c3 -50 26 -59 41 -17 12 34 2 59 -24 59 -17 0 -19 -6 -17
-42z"/>
<path d="M520 593 c0 -5 -32 -9 -71 -10 -39 -1 -75 -5 -79 -10 -4 -4 -11 -23
-15 -42 -7 -33 -6 -34 19 -27 24 6 29 2 42 -30 8 -20 13 -38 10 -41 -7 -7
-169 27 -181 38 -15 14 -32 11 -38 -8 -2 -10 -8 -25 -12 -34 -5 -14 1 -17 42
-16 26 1 82 1 123 -1 l76 -2 17 -55 c9 -31 17 -59 17 -63 0 -4 -26 -16 -57
-26 -32 -10 -69 -22 -83 -27 -14 -4 -67 -14 -118 -20 -86 -12 -94 -15 -112
-43 -24 -38 -12 -55 27 -36 16 7 46 19 68 26 22 7 94 31 160 53 127 43 135 43
135 -11 0 -15 5 -30 10 -33 18 -11 12 -46 -7 -43 -15 2 -19 -6 -21 -44 -3 -50
6 -60 29 -31 8 9 44 36 81 60 l67 43 -14 33 c-7 18 -15 51 -17 73 l-3 39 105
27 c146 38 160 37 196 -12 46 -63 51 -57 29 35 -8 33 -14 75 -15 93 0 38 -7
39 -54 10 -29 -19 -35 -28 -30 -47 5 -23 5 -23 -63 -18 -216 19 -206 14 -224
114 -14 77 -19 93 -30 93 -5 0 -9 -3 -9 -7z m-105 -47 c-32 -14 -41 -13 -30 3
3 6 18 11 33 11 l27 -1 -30 -13z m104 -7 c15 -25 2 -39 -36 -39 -12 0 -24 -4
-28 -9 -10 -17 11 -21 43 -9 36 14 46 7 56 -34 5 -23 3 -28 -13 -28 -11 0 -21
6 -24 13 -3 9 -7 9 -19 -1 -26 -21 -46 -3 -58 50 -12 57 -13 54 20 67 37 14
44 13 59 -10z m395 -130 c11 -56 7 -62 -20 -30 -21 26 -24 34 -14 46 19 22 27
18 34 -16z m-354 -19 c0 -6 -14 -13 -30 -17 -17 -3 -33 -10 -36 -14 -10 -16
-22 -9 -26 16 -5 24 -3 25 43 25 27 0 49 -5 49 -10z m182 -13 c16 -1 28 -4 28
-7 0 -3 -38 -14 -84 -26 l-84 -21 -6 21 c-14 51 -11 53 57 44 34 -5 74 -10 89
-11z m-164 -40 c3 -17 -16 -30 -60 -41 -20 -5 -27 -2 -30 11 -3 13 7 23 31 35
41 19 55 18 59 -5z m12 -55 c0 -8 -65 -32 -84 -32 -17 0 -3 17 22 27 34 14 62
16 62 5z m13 -59 c3 -16 9 -36 12 -45 5 -13 -2 -19 -32 -27 -46 -13 -53 -13
-53 -2 0 5 14 14 30 21 50 21 37 40 -14 20 -23 -9 -26 -7 -26 14 0 17 8 27 28
34 42 16 49 14 55 -15z m-88 -123 c-3 -5 -11 -10 -16 -10 -6 0 -7 5 -4 10 3 6
11 10 16 10 6 0 7 -4 4 -10z"/>
<path d="M1070 131 c0 -10 7 -25 16 -32 14 -11 18 -10 29 5 18 24 8 46 -21 46
-17 0 -24 -6 -24 -19z"/>
</g>
</svg>
