<?xml version="1.0" standalone="no"?>
<!DOCTYPE svg PUBLIC "-//W3C//DTD SVG 20010904//EN"
 "http://www.w3.org/TR/2001/REC-SVG-20010904/DTD/svg10.dtd">
<svg version="1.0" xmlns="http://www.w3.org/2000/svg"
 width="135.000000pt" height="186.000000pt" viewBox="0 0 135.000000 186.000000"
 preserveAspectRatio="xMidYMid meet">
<metadata>
Created by potrace 1.16, written by Peter Selinger 2001-2019
</metadata>
<g transform="translate(0.000000,186.000000) scale(0.100000,-0.100000)"
fill="#000000" stroke="none">
<path d="M1084 1798 c28 -96 38 -378 14 -378 -7 0 -118 -5 -246 -10 -196 -9
-241 -8 -289 4 -31 8 -60 13 -65 10 -4 -3 -8 -23 -8 -46 0 -34 3 -39 18 -33
66 27 214 44 407 46 77 0 158 4 179 8 l40 6 -3 158 c-3 156 -2 159 23 198 29
43 29 43 -38 54 -37 6 -38 5 -32 -17z m49 -14 c9 -9 -4 -35 -14 -28 -5 3 -9
12 -9 20 0 14 12 19 23 8z m-588 -394 c3 -5 -1 -10 -9 -10 -9 0 -16 5 -16 10
0 6 4 10 9 10 6 0 13 -4 16 -10z"/>
<path d="M456 1749 c-15 -17 -60 -52 -98 -79 l-69 -49 -90 4 c-54 2 -101 10
-121 19 -17 9 -32 16 -32 16 -1 0 -1 -20 -1 -45 0 -49 7 -53 51 -30 16 8 53
15 83 15 45 0 56 -4 73 -25 27 -35 41 -31 67 15 12 22 39 52 59 67 20 15 50
38 65 52 l29 26 -8 -29 c-6 -26 -5 -28 12 -21 77 31 114 35 346 35 152 0 238
4 238 10 0 6 -92 10 -255 10 -244 0 -305 6 -305 32 0 15 -15 7 -44 -23z m59
-19 c3 -5 1 -10 -4 -10 -6 0 -11 5 -11 10 0 6 2 10 4 10 3 0 8 -4 11 -10z
m-420 -120 c-3 -5 -10 -10 -16 -10 -5 0 -9 5 -9 10 0 6 7 10 16 10 8 0 12 -4
9 -10z m205 -14 c0 -3 -4 -8 -10 -11 -5 -3 -10 -1 -10 4 0 6 5 11 10 11 6 0
10 -2 10 -4z"/>
<path d="M700 1651 c-5 -11 -38 -33 -73 -50 -55 -26 -68 -29 -114 -22 -82 11
-75 21 15 21 45 0 82 4 82 9 0 5 -35 11 -77 14 -43 3 -87 7 -97 9 -18 3 -20
-5 -24 -79 -2 -46 0 -83 5 -83 4 0 17 7 27 15 11 8 39 15 63 15 59 0 55 20 -4
22 l-48 1 50 7 c28 4 39 8 25 9 -24 3 -24 3 5 12 41 12 56 4 53 -28 -2 -22 2
-29 18 -31 11 -2 36 -19 54 -39 l34 -35 28 33 c15 19 28 37 28 42 0 4 5 7 11
7 6 0 10 -10 9 -22 -3 -37 -1 -41 16 -27 19 16 24 17 142 25 l92 7 0 65 c0 46
5 71 16 83 21 23 11 38 -21 31 -17 -3 -25 -11 -25 -24 0 -18 -6 -19 -106 -17
-73 2 -108 -1 -113 -9 -5 -8 -13 0 -24 23 -19 40 -32 44 -47 16z m38 -62 c40
-37 40 -49 0 -79 l-31 -23 6 47 c6 41 5 46 -13 46 -27 0 -30 -10 -17 -57 6
-24 7 -46 3 -50 -8 -9 -65 55 -66 74 0 11 68 73 80 73 3 0 20 -14 38 -31z
m260 -41 l3 -48 -105 0 c-96 0 -133 9 -106 25 6 4 9 19 8 33 -3 24 1 27 32 32
19 3 64 5 100 5 l65 0 3 -47z"/>
<path d="M37 1498 c-4 -28 -5 -54 -2 -56 2 -2 19 6 37 19 26 19 49 25 111 28
49 2 77 -1 77 -7 0 -6 -5 -14 -10 -17 -20 -12 1 -25 41 -25 25 0 65 -13 110
-36 67 -33 89 -38 75 -16 -3 5 -30 21 -60 35 -38 18 -64 39 -82 67 -29 43 -34
46 -51 29 -7 -7 -46 -10 -108 -7 -78 2 -99 6 -109 21 -19 26 -23 22 -29 -35z
m281 -26 c2 -7 -6 -12 -17 -12 -21 0 -27 11 -14 24 9 9 26 2 31 -12z"/>
<path d="M1274 1390 c1 -44 10 -51 26 -21 16 32 12 61 -9 61 -15 0 -18 -7 -17
-40z"/>
<path d="M540 1066 c0 -20 1 -36 3 -36 1 0 31 6 67 13 47 10 137 13 328 10
169 -2 262 1 262 7 0 6 -12 10 -27 11 -408 11 -592 18 -610 24 -21 7 -23 4
-23 -29z"/>
<path d="M457 1046 c-109 -74 -119 -78 -200 -70 -40 4 -91 12 -114 19 -42 13
-42 13 -69 -22 -14 -19 -24 -36 -22 -38 2 -3 20 0 39 5 18 6 70 10 115 10 l82
0 12 -31 c19 -44 4 -64 -51 -66 -24 -1 -72 5 -107 13 -35 8 -65 14 -67 14 -11
0 -68 -60 -63 -66 4 -3 55 0 115 7 59 7 125 12 146 12 20 0 37 3 37 8 0 5 5 9
11 9 5 0 8 -4 4 -9 -3 -5 5 -18 18 -28 36 -29 94 -116 89 -135 -4 -19 8 -24
23 -9 24 24 150 31 453 25 231 -5 312 -4 312 5 0 7 -30 11 -92 12 -299 2 -540
11 -591 20 -44 8 -62 7 -73 -2 -8 -6 -16 -10 -17 -8 -2 2 -19 24 -39 49 -39
50 -68 102 -68 123 0 24 74 100 134 137 31 19 56 41 56 48 0 17 -2 17 -73 -32z
m-330 -72 c-3 -3 -12 -4 -19 -1 -8 3 -5 6 6 6 11 1 17 -2 13 -5z m213 -34 c0
-5 -5 -10 -11 -10 -5 0 -7 5 -4 10 3 6 8 10 11 10 2 0 4 -4 4 -10z m-237 -97
c-7 -2 -19 -2 -25 0 -7 3 -2 5 12 5 14 0 19 -2 13 -5z"/>
<path d="M1205 999 l-29 -32 -168 6 c-125 4 -168 2 -168 -6 -1 -12 -26 17 -33
36 -2 6 -17 0 -34 -12 -43 -32 -82 -38 -190 -28 -52 5 -96 7 -98 5 -2 -2 -7
-37 -11 -78 l-6 -75 128 0 c121 0 131 -1 162 -24 17 -14 32 -31 32 -38 0 -22
20 -14 32 12 7 16 17 23 27 20 9 -3 32 -1 50 5 18 5 100 10 181 11 l147 1 6
91 c4 51 9 102 13 115 9 31 -6 28 -41 -9z m15 -46 c0 -20 -3 -24 -11 -16 -7 7
-9 19 -6 27 10 24 17 19 17 -11z m-457 -15 c-4 -7 -6 -39 -4 -72 l3 -58 -32
18 c-63 38 -65 47 -20 88 39 35 69 49 53 24z m433 -23 c7 -19 14 -49 14 -66
l0 -32 -154 6 c-84 4 -161 9 -170 13 -15 6 -15 9 5 30 21 22 21 25 6 42 -10
10 -17 21 -17 25 0 9 54 14 183 15 l118 2 15 -35z m-531 15 c-28 -12 -143 -12
-150 0 -4 6 26 10 82 9 58 0 81 -3 68 -9z m190 -22 l28 -22 -49 -43 c-48 -43
-49 -43 -52 -19 -5 36 17 106 32 106 7 0 26 -10 41 -22z m-215 -16 c0 -4 -27
-9 -60 -10 -36 -2 -60 2 -60 8 0 6 26 10 60 10 33 0 60 -4 60 -8z m0 -31 c11
-1 11 -4 2 -13 -7 -7 -35 -11 -69 -9 -64 3 -91 15 -41 19 18 2 33 4 34 5 2 2
16 2 31 1 15 -1 35 -3 43 -3z"/>
<path d="M1289 717 c-6 -10 -6 -87 0 -87 9 0 31 45 31 64 0 11 -27 31 -31 23z"/>
<path d="M430 397 c-30 -29 -75 -67 -99 -85 -41 -29 -52 -32 -115 -32 -39 1
-89 7 -111 15 -21 8 -41 12 -43 10 -2 -2 -7 -20 -12 -40 -8 -35 -7 -37 13 -30
39 12 121 24 178 24 50 1 57 -2 67 -23 8 -18 8 -28 -2 -41 -11 -16 -25 -17
-112 -12 -54 3 -108 9 -120 12 -18 6 -22 2 -27 -31 -4 -21 -5 -39 -3 -41 1 -1
28 6 59 17 83 29 193 27 255 -4 27 -14 62 -38 80 -54 31 -29 31 -29 84 -16 37
10 123 14 298 14 l245 0 -3 123 c-3 96 0 132 12 162 21 50 21 79 0 71 -9 -3
-22 -6 -30 -6 -10 0 -14 -14 -14 -50 l0 -50 -42 1 c-24 0 -78 4 -122 8 -69 6
-80 5 -89 -11 -10 -16 -13 -16 -29 -1 -10 9 -18 22 -18 29 0 26 -21 25 -77 -3
-43 -21 -73 -28 -118 -28 -74 0 -85 -7 -82 -48 2 -30 5 -32 37 -29 43 5 53 12
17 12 -15 0 -27 4 -27 9 0 5 9 7 19 4 11 -3 28 0 38 6 16 10 16 10 -5 11 -13
0 -20 4 -17 10 8 14 46 3 62 -17 10 -13 17 -10 48 21 44 44 72 46 110 6 l28
-29 -27 -41 c-14 -22 -31 -40 -36 -40 -13 0 -13 33 2 65 13 29 9 36 -17 29
-17 -4 -20 -12 -17 -57 l3 -52 -36 39 c-35 39 -36 39 -50 19 -13 -18 -22 -20
-80 -16 -63 5 -73 1 -57 -24 5 -9 20 -9 56 -1 54 11 105 1 164 -33 39 -22 52
-24 52 -6 0 7 16 38 35 69 43 68 64 77 190 81 l90 2 3 -45 c2 -25 1 -74 -3
-108 l-7 -64 -246 5 c-136 2 -256 7 -268 11 -14 5 -26 2 -36 -8 -14 -14 -20
-12 -56 17 -108 85 -107 137 1 236 16 14 36 27 45 28 10 1 40 7 67 13 28 6
131 10 230 9 230 -1 235 -1 235 10 0 6 -92 10 -220 11 -121 0 -232 5 -246 10
-40 15 -46 13 -104 -43z m-330 -231 c0 -2 -7 -6 -15 -10 -8 -3 -15 -1 -15 4 0
6 7 10 15 10 8 0 15 -2 15 -4z"/>
<path d="M751 189 c-12 -31 1 -44 28 -30 12 7 73 15 136 18 63 3 115 10 115
15 0 4 -54 8 -119 8 -66 0 -126 3 -135 6 -11 4 -19 -2 -25 -17z"/>
<path d="M1285 161 c-8 -15 3 -31 21 -31 9 0 14 7 12 17 -4 20 -24 28 -33 14z"/>
</g>
</svg>
