<?xml version="1.0" standalone="no"?>
<!DOCTYPE svg PUBLIC "-//W3C//DTD SVG 20010904//EN"
 "http://www.w3.org/TR/2001/REC-SVG-20010904/DTD/svg10.dtd">
<svg version="1.0" xmlns="http://www.w3.org/2000/svg"
 width="110.000000pt" height="48.000000pt" viewBox="0 0 110.000000 48.000000"
 preserveAspectRatio="xMidYMid meet">
<metadata>
Created by potrace 1.16, written by Peter Selinger 2001-2019
</metadata>
<g transform="translate(0.000000,48.000000) scale(0.100000,-0.100000)"
fill="#000000" stroke="none">
<path d="M445 403 c0 -27 -5 -48 -10 -48 -6 0 -40 -19 -76 -42 -65 -43 -66
-43 -156 -43 -77 0 -94 3 -117 21 -15 12 -30 19 -33 15 -4 -3 -7 -56 -8 -116
-1 -83 1 -110 11 -110 7 0 15 8 18 18 11 35 42 42 180 43 87 0 143 -4 158 -12
13 -7 30 -15 38 -19 8 -4 15 -19 15 -33 1 -39 12 -43 39 -14 l25 27 214 0
c220 0 277 5 277 23 0 7 -74 8 -230 4 -195 -5 -235 -4 -267 9 -21 9 -40 18
-42 20 -5 5 60 74 69 74 4 0 5 -13 2 -30 -9 -60 4 -63 52 -15 25 25 51 45 57
45 8 0 8 -4 1 -13 -11 -13 -10 -62 1 -73 3 -3 22 13 42 35 21 23 43 41 49 41
17 0 58 45 50 53 -4 4 -13 2 -20 -4 -21 -17 -42 -4 -61 38 -10 21 -19 40 -20
42 -4 6 -43 -30 -43 -40 0 -4 16 -16 35 -28 39 -23 44 -36 16 -44 -15 -3 -26
5 -44 32 -13 20 -26 44 -30 54 -3 9 -12 17 -18 17 -16 0 -38 -31 -39 -53 0
-29 -24 -14 -34 21 -10 37 -13 38 -45 13 l-24 -19 31 -16 c36 -18 42 -36 13
-36 -37 0 -51 -12 -51 -44 0 -57 -13 -64 -64 -37 -65 34 -79 52 -66 85 11 30
20 40 66 73 22 15 35 18 42 11 7 -7 12 -4 16 9 10 31 50 43 144 43 159 0 402
13 402 21 0 5 -112 6 -249 2 l-249 -6 -26 26 c-15 15 -30 27 -34 27 -4 0 -7
-21 -7 -47z m45 -13 c0 -5 -4 -10 -10 -10 -5 0 -10 5 -10 10 0 6 5 10 10 10 6
0 10 -4 10 -10z m150 -149 c0 -12 -48 -23 -61 -15 -6 4 -4 13 7 25 13 14 21
16 35 8 11 -5 19 -14 19 -18z m-342 -36 l3 -40 -97 -2 c-100 -3 -134 6 -134
35 0 35 48 52 140 49 l85 -2 3 -40z m47 -35 c3 -5 1 -10 -4 -10 -6 0 -11 5
-11 10 0 6 2 10 4 10 3 0 8 -4 11 -10z"/>
<path d="M842 347 l-22 -21 32 -33 c17 -18 28 -36 24 -40 -13 -13 -40 12 -61
55 -22 45 -35 51 -56 26 -11 -14 -10 -18 6 -30 11 -8 33 -26 48 -41 l29 -28
-31 -12 c-26 -11 -31 -18 -31 -48 0 -19 2 -35 4 -35 2 0 27 23 55 52 l53 52
17 -23 c31 -41 31 -7 0 54 -16 32 -29 64 -29 71 0 23 -16 24 -38 1z m23 -27
c3 -5 1 -10 -4 -10 -6 0 -11 5 -11 10 0 6 2 10 4 10 3 0 8 -4 11 -10z"/>
</g>
</svg>
