<?xml version="1.0" standalone="no"?>
<!DOCTYPE svg PUBLIC "-//W3C//DTD SVG 20010904//EN"
 "http://www.w3.org/TR/2001/REC-SVG-20010904/DTD/svg10.dtd">
<svg version="1.0" xmlns="http://www.w3.org/2000/svg"
 width="103.000000pt" height="52.000000pt" viewBox="0 0 103.000000 52.000000"
 preserveAspectRatio="xMidYMid meet">
<metadata>
Created by potrace 1.16, written by Peter Selinger 2001-2019
</metadata>
<g transform="translate(0.000000,52.000000) scale(0.100000,-0.100000)"
fill="#000000" stroke="none">
<path d="M392 412 c-18 -26 -45 -60 -60 -77 l-27 -30 -115 6 c-63 3 -118 5
-121 3 -3 -1 -3 -19 -1 -38 4 -31 7 -34 23 -26 16 9 159 40 183 40 4 0 5 -8 2
-17 -5 -11 1 -23 16 -34 19 -15 20 -19 8 -34 -12 -15 -30 -17 -126 -13 l-112
4 -5 -35 c-5 -45 1 -56 21 -38 24 20 48 27 126 37 49 6 73 5 84 -3 33 -26 99
-93 103 -105 3 -9 13 -10 39 -2 19 5 126 10 237 10 123 0 204 4 208 10 3 5 1
18 -4 27 -6 10 -11 12 -11 6 0 -10 -39 -13 -160 -13 -135 0 -170 3 -218 20
l-57 20 -16 -21 c-19 -25 -22 -21 -48 53 -17 48 -17 58 -4 108 19 77 47 126
67 122 10 -2 34 2 54 9 25 8 106 12 254 10 175 -1 218 1 218 11 0 11 -45 14
-212 16 -117 1 -229 6 -248 12 -55 16 -63 13 -98 -38z m78 14 c0 -2 -7 -6 -15
-10 -8 -3 -15 -1 -15 4 0 6 7 10 15 10 8 0 15 -2 15 -4z m-136 -160 c-5 -21
-9 -24 -20 -15 -12 10 -12 15 2 30 21 24 27 19 18 -15z m0 -92 c9 -22 8 -24
-9 -18 -8 4 -15 12 -15 20 0 19 16 18 24 -2z m124 -83 c10 -6 7 -10 -12 -13
-25 -5 -33 1 -19 15 8 9 15 9 31 -2z"/>
</g>
</svg>
