<?xml version="1.0" standalone="no"?>
<!DOCTYPE svg PUBLIC "-//W3C//DTD SVG 20010904//EN"
 "http://www.w3.org/TR/2001/REC-SVG-20010904/DTD/svg10.dtd">
<svg version="1.0" xmlns="http://www.w3.org/2000/svg"
 width="148.000000pt" height="70.000000pt" viewBox="0 0 148.000000 70.000000"
 preserveAspectRatio="xMidYMid meet">
<metadata>
Created by potrace 1.16, written by Peter Selinger 2001-2019
</metadata>
<g transform="translate(0.000000,70.000000) scale(0.100000,-0.100000)"
fill="#000000" stroke="none">
<path d="M218 642 c-28 -17 -36 -32 -18 -32 6 0 10 -4 10 -10 0 -10 -117 -70
-136 -70 -20 0 -32 -24 -27 -52 3 -16 12 -28 21 -28 8 0 35 -21 59 -46 25 -25
47 -43 50 -40 3 3 -10 34 -28 70 -18 36 -31 66 -29 68 3 2 26 20 52 41 25 20
53 37 60 37 17 0 108 -89 108 -106 0 -11 -91 -74 -107 -74 -6 0 2 68 13 108 6
21 4 23 -17 20 -23 -3 -24 -6 -21 -78 3 -63 7 -78 26 -96 23 -21 23 -21 4 -47
-11 -15 -23 -27 -28 -27 -4 0 -42 -16 -83 -35 -66 -31 -75 -39 -79 -65 -6 -43
8 -47 44 -14 l30 29 -16 -32 c-16 -31 -16 -31 25 -72 23 -23 45 -41 50 -41 11
0 12 17 1 24 -5 3 -15 30 -22 61 -7 30 -18 55 -23 55 -17 0 13 28 65 61 46 30
52 31 73 18 28 -17 118 -100 113 -104 -4 -4 -93 -44 -123 -55 -31 -12 -32 -2
-9 77 9 30 14 56 12 58 -2 2 -14 2 -27 -2 -22 -6 -22 -9 -19 -104 2 -54 7
-101 10 -105 4 -4 31 11 60 33 29 22 70 50 91 62 20 13 37 27 37 33 0 6 -17
26 -37 44 -21 17 -49 54 -61 81 -13 26 -27 55 -32 63 -9 19 33 76 72 96 l28
14 -45 63 c-25 34 -53 79 -63 99 -19 42 -26 44 -64 20z m50 -37 c12 -25 12
-25 -13 -9 -14 9 -22 20 -19 25 9 15 20 10 32 -16z m-154 -141 c5 -14 4 -15
-9 -4 -17 14 -19 20 -6 20 5 0 12 -7 15 -16z m156 -79 c-7 -8 -18 -15 -24 -15
-6 0 -2 7 8 15 25 19 32 19 16 0z m19 -88 c12 -15 12 -17 -3 -11 -9 3 -16 13
-16 22 0 8 1 13 3 11 1 -2 9 -12 16 -22z m-199 -102 c-7 -9 -15 -13 -19 -10
-3 3 1 10 9 15 21 14 24 12 10 -5z m53 -65 c3 -11 1 -20 -4 -20 -5 0 -9 2 -9
4 0 2 -3 11 -6 20 -3 9 -2 16 4 16 5 0 12 -9 15 -20z m132 -50 c-19 -21 -35
-26 -35 -12 0 5 10 14 23 20 31 15 32 14 12 -8z"/>
<path d="M1266 631 l-29 -29 27 -34 c33 -44 33 -48 -5 -48 -27 0 -30 2 -19 15
21 25 -4 18 -82 -25 -40 -22 -81 -40 -90 -40 -21 0 -23 -13 -7 -41 8 -16 7
-25 -5 -38 -22 -24 -20 -29 17 -44 34 -15 97 -64 97 -76 0 -5 -29 -21 -65 -36
-36 -16 -65 -32 -65 -37 0 -13 16 -9 76 17 60 27 94 32 94 14 0 -5 5 -7 10 -4
8 5 8 11 0 20 -9 10 0 17 42 33 29 11 79 26 111 33 65 15 74 34 32 73 -32 30
-70 123 -86 210 -7 36 -15 66 -18 65 -3 0 -19 -13 -35 -28z m41 -77 c-9 -9
-38 47 -31 58 5 8 13 0 21 -21 8 -18 12 -35 10 -37z m-66 -79 c4 -17 7 -64 8
-106 1 -75 0 -77 -25 -83 -32 -8 -47 4 -92 73 l-35 54 52 49 c57 55 82 59 92
13z m26 3 c-3 -8 -6 -5 -6 6 -1 11 2 17 5 13 3 -3 4 -12 1 -19z m103 -103 c0
-10 -80 -65 -94 -65 -9 0 4 137 16 170 9 24 11 23 44 -35 18 -33 34 -64 34
-70z m-270 -5 c0 -5 -2 -10 -4 -10 -3 0 -8 5 -11 10 -3 6 -1 10 4 10 6 0 11
-4 11 -10z m300 -20 c0 -5 -5 -10 -11 -10 -5 0 -7 5 -4 10 3 6 8 10 11 10 2 0
4 -4 4 -10z"/>
<path d="M867 499 c-32 -36 -32 -37 -12 -59 14 -15 7 -21 -83 -63 -53 -26
-105 -47 -114 -47 -10 0 -18 -5 -18 -11 0 -7 8 -18 18 -25 14 -11 15 -16 5
-33 -19 -30 -16 -38 15 -46 58 -14 162 -110 162 -150 0 -32 23 -33 38 -1 6 13
40 60 76 104 36 45 66 85 66 89 0 5 -16 33 -36 63 -41 64 -62 108 -78 168
l-11 42 -28 -31z m32 -64 c1 -5 -6 -2 -15 7 -10 9 -13 21 -8 29 5 9 9 8 15 -7
4 -10 8 -23 8 -29z m45 -101 l57 -77 -30 -31 c-17 -17 -45 -40 -62 -50 l-32
-19 6 79 c3 44 9 89 12 102 6 17 3 22 -11 22 -37 0 -49 -16 -36 -45 15 -33 16
-171 1 -181 -11 -6 -95 69 -129 117 l-19 26 31 32 c22 23 139 99 154 101 1 0
27 -34 58 -76z m-239 -24 c-3 -5 -11 -10 -16 -10 -6 0 -7 5 -4 10 3 6 11 10
16 10 6 0 7 -4 4 -10z m-5 -70 c0 -5 -2 -10 -4 -10 -3 0 -8 5 -11 10 -3 6 -1
10 4 10 6 0 11 -4 11 -10z m190 -119 c-11 -21 -30 -37 -30 -25 0 8 30 44 37
44 2 0 -1 -9 -7 -19z"/>
<path d="M544 175 c-3 -8 -2 -20 2 -27 5 -7 7 -21 6 -30 -2 -10 1 -18 7 -18
17 0 33 40 27 66 -7 26 -33 32 -42 9z"/>
<path d="M1404 165 c-8 -21 3 -48 19 -43 19 7 22 58 2 58 -8 0 -18 -7 -21 -15z"/>
</g>
</svg>
