<?xml version="1.0" standalone="no"?>
<!DOCTYPE svg PUBLIC "-//W3C//DTD SVG 20010904//EN"
 "http://www.w3.org/TR/2001/REC-SVG-20010904/DTD/svg10.dtd">
<svg version="1.0" xmlns="http://www.w3.org/2000/svg"
 width="79.000000pt" height="48.000000pt" viewBox="0 0 79.000000 48.000000"
 preserveAspectRatio="xMidYMid meet">
<metadata>
Created by potrace 1.16, written by Peter Selinger 2001-2019
</metadata>
<g transform="translate(0.000000,48.000000) scale(0.100000,-0.100000)"
fill="#000000" stroke="none">
<path d="M249 412 c-1 -4 -1 -44 1 -90 l2 -83 -83 7 c-46 4 -88 10 -93 15 -19
18 -26 8 -26 -37 0 -43 2 -46 22 -40 74 19 170 38 174 33 3 -3 7 -31 8 -63 1
-35 7 -59 15 -62 9 -3 10 12 5 62 -5 47 -3 66 5 66 7 0 11 -22 11 -60 0 -33 4
-60 10 -60 6 0 10 27 10 60 0 33 4 60 10 60 6 0 10 -27 10 -61 0 -40 4 -58 11
-54 6 4 9 21 8 39 -3 52 0 76 12 76 8 0 10 -19 6 -60 -7 -78 10 -78 19 0 4 34
12 60 18 60 6 0 66 2 133 5 l122 5 3 -72 c4 -109 22 -89 29 32 3 58 11 121 18
140 15 46 14 60 -4 60 -10 0 -15 -10 -15 -34 0 -19 -5 -38 -11 -42 -8 -5 -10
1 -7 20 6 29 -1 39 -20 27 -10 -6 -10 -17 0 -54 6 -26 10 -48 7 -50 -2 -3 -64
-7 -138 -9 l-134 -5 6 86 5 86 -74 3 c-41 1 -75 -1 -75 -6z m41 -97 c0 -43 -4
-75 -10 -75 -11 0 -13 91 -4 128 11 38 14 25 14 -53z m80 0 c0 -43 -4 -75 -10
-75 -5 0 -10 17 -10 38 0 41 10 112 16 112 2 0 4 -34 4 -75z m-40 -5 c0 -40
-4 -70 -10 -70 -11 0 -14 98 -4 124 11 29 14 17 14 -54z m-219 -91 c-16 -6
-28 -6 -35 1 -7 7 1 10 25 9 32 0 33 -1 10 -10z"/>
</g>
</svg>
