<?xml version="1.0" standalone="no"?>
<!DOCTYPE svg PUBLIC "-//W3C//DTD SVG 20010904//EN"
 "http://www.w3.org/TR/2001/REC-SVG-20010904/DTD/svg10.dtd">
<svg version="1.0" xmlns="http://www.w3.org/2000/svg"
 width="138.000000pt" height="89.000000pt" viewBox="0 0 138.000000 89.000000"
 preserveAspectRatio="xMidYMid meet">
<metadata>
Created by potrace 1.16, written by Peter Selinger 2001-2019
</metadata>
<g transform="translate(0.000000,89.000000) scale(0.100000,-0.100000)"
fill="#000000" stroke="none">
<path d="M1080 795 c0 -9 -16 -23 -35 -32 -19 -9 -35 -23 -35 -30 0 -17 -93
-18 -120 -1 -25 16 -56 -1 -53 -28 1 -11 0 -13 -3 -6 -12 26 -25 11 -18 -20 4
-18 7 -57 6 -85 -1 -29 3 -53 8 -53 6 0 10 8 10 18 0 15 11 17 90 17 l90 0 0
-38 0 -39 45 46 c24 25 51 46 60 46 8 0 15 4 15 9 0 5 9 13 20 16 11 3 20 11
20 18 0 8 -3 8 -12 -1 -26 -26 -41 -14 -35 29 3 22 8 43 11 47 8 8 56 -39 56
-55 0 -16 16 -17 26 -2 4 7 -10 26 -33 45 -21 18 -52 51 -68 73 -29 43 -45 52
-45 26z m16 -51 c-3 -9 -6 -21 -7 -27 0 -7 -4 -3 -8 8 -9 22 -5 35 11 35 5 0
7 -7 4 -16z m15 -101 c-9 -15 -10 -12 -11 17 0 19 4 46 8 60 6 21 7 19 10 -17
2 -24 -1 -51 -7 -60z m-45 68 c-3 -5 -6 -38 -7 -75 -2 -82 -19 -88 -19 -7 0
64 6 91 22 91 5 0 7 -4 4 -9z m-193 -21 c-19 -22 -29 -19 -20 5 4 8 13 15 22
15 13 0 12 -3 -2 -20z m152 -25 c0 -29 -2 -30 -45 -31 -67 -2 -140 7 -134 17
3 5 13 9 24 9 10 0 20 6 23 14 7 17 37 24 92 22 37 -1 40 -3 40 -31z m76 -50
c5 4 9 2 9 -4 0 -6 -9 -15 -20 -21 -17 -9 -20 -8 -20 12 0 13 4 34 8 48 7 24
7 23 10 -8 2 -18 8 -30 13 -27z m-74 -8 c-2 -8 -35 -13 -95 -15 -75 -2 -92 0
-92 12 0 12 19 14 96 15 69 0 94 -3 91 -12z"/>
<path d="M928 663 c18 -2 45 -2 60 0 15 2 0 4 -33 4 -33 0 -45 -2 -27 -4z"/>
<path d="M160 790 c0 -5 5 -10 11 -10 5 0 7 5 4 10 -3 6 -8 10 -11 10 -2 0 -4
-4 -4 -10z"/>
<path d="M186 771 c-4 -5 -13 -8 -20 -5 -19 7 -29 -27 -20 -72 6 -35 6 -36
-17 -29 -13 3 -32 9 -41 11 -12 4 -19 -3 -24 -21 -8 -32 -1 -40 24 -26 12 6
30 11 41 11 18 0 21 -6 21 -51 0 -64 19 -56 22 9 l1 47 7 -45 c4 -25 8 -41 8
-36 1 5 9 3 17 -4 13 -11 15 -6 16 36 2 46 2 47 8 14 5 -28 8 -31 14 -17 4 10
7 26 7 35 0 15 11 17 80 14 52 -2 80 0 80 7 0 7 -31 11 -85 11 -94 0 -95 1
-75 69 5 19 8 36 7 38 -10 10 -66 13 -71 4z m-7 -78 c0 -29 -2 -33 -8 -18 -7
18 -4 55 5 55 2 0 4 -17 3 -37z m48 -20 c-3 -10 -5 -2 -5 17 0 19 2 27 5 18 2
-10 2 -26 0 -35z"/>
<path d="M429 742 c-13 -14 -14 -34 -10 -112 3 -52 10 -94 14 -93 5 2 9 42 11
90 2 49 6 98 11 111 9 26 -3 28 -26 4z"/>
<path d="M590 745 c0 -8 -4 -15 -9 -15 -5 0 -16 -11 -25 -25 -16 -24 -16 -27
5 -57 12 -17 28 -47 34 -66 l13 -35 36 72 c20 40 50 84 66 98 37 30 38 43 5
43 -14 0 -25 -4 -25 -10 0 -5 -15 -10 -34 -10 -19 0 -38 5 -41 10 -9 15 -25
12 -25 -5z m80 -34 c0 -6 -10 -8 -21 -6 -33 6 -36 15 -6 15 15 0 27 -4 27 -9z
m-77 -43 c3 -21 2 -38 -4 -38 -5 0 -9 19 -9 42 0 49 5 47 13 -4z m59 10 c-9
-9 -15 -9 -24 0 -9 9 -7 12 12 12 19 0 21 -3 12 -12z"/>
<path d="M1292 538 c0 -38 2 -40 14 -23 18 25 18 65 0 65 -11 0 -15 -12 -14
-42z"/>
<path d="M198 315 c-2 -3 -20 -6 -39 -8 l-34 -2 -3 -59 c-3 -49 -6 -57 -20
-53 -46 13 -47 12 -50 -22 -3 -29 -1 -33 15 -26 10 4 27 8 38 9 17 1 19 -4 17
-32 -2 -18 1 -32 7 -32 6 0 12 19 13 43 1 40 1 40 5 7 6 -50 23 -63 23 -17 0
20 4 37 9 37 4 0 6 -11 3 -25 -2 -15 0 -25 7 -25 6 0 11 14 11 30 0 44 20 37
21 -7 1 -21 3 -29 6 -18 15 71 6 65 93 65 53 0 80 4 80 11 0 8 -24 10 -81 6
l-81 -6 6 60 c5 37 3 59 -3 59 -9 0 -13 -15 -25 -95 -3 -16 -3 0 -1 38 2 60
-2 77 -17 62z m-38 -80 c0 -25 -4 -45 -10 -45 -5 0 -10 20 -10 45 0 25 5 45
10 45 6 0 10 -20 10 -45z m27 -27 c-2 -13 -4 -3 -4 22 0 25 2 35 4 23 2 -13 2
-33 0 -45z"/>
<path d="M433 286 c-7 -8 -17 -16 -23 -18 -9 -3 -9 -14 0 -47 6 -24 10 -61 9
-82 -2 -21 1 -40 6 -41 6 -2 12 34 15 78 3 45 11 88 18 96 20 25 -4 38 -25 14z"/>
<path d="M620 226 c0 -28 -3 -61 -6 -73 -5 -20 -2 -23 20 -23 29 0 32 -7 11
-34 -14 -18 -16 -17 -35 26 -15 34 -17 52 -10 76 11 41 -10 44 -35 6 -15 -23
-15 -28 -2 -42 8 -10 27 -42 42 -72 25 -49 29 -53 39 -36 47 80 109 168 121
172 23 9 18 33 -7 38 -13 3 -49 7 -80 9 l-58 4 0 -51z m100 14 c11 -7 4 -10
-25 -10 -29 0 -36 3 -25 10 8 5 20 10 25 10 6 0 17 -5 25 -10z m-22 -37 c-10
-2 -28 -2 -40 0 -13 2 -5 4 17 4 22 1 32 -1 23 -4z m-25 -50 c-7 -2 -19 -2
-25 0 -7 3 -2 5 12 5 14 0 19 -2 13 -5z"/>
<path d="M837 113 c-14 -13 -6 -33 13 -33 22 0 23 1 14 24 -7 17 -16 20 -27 9z"/>
</g>
</svg>
