<?xml version="1.0" standalone="no"?>
<!DOCTYPE svg PUBLIC "-//W3C//DTD SVG 20010904//EN"
 "http://www.w3.org/TR/2001/REC-SVG-20010904/DTD/svg10.dtd">
<svg version="1.0" xmlns="http://www.w3.org/2000/svg"
 width="84.000000pt" height="127.000000pt" viewBox="0 0 84.000000 127.000000"
 preserveAspectRatio="xMidYMid meet">
<metadata>
Created by potrace 1.16, written by Peter Selinger 2001-2019
</metadata>
<g transform="translate(0.000000,127.000000) scale(0.100000,-0.100000)"
fill="#000000" stroke="none">
<path d="M647 1192 c-21 -13 -26 -22 -22 -37 14 -45 17 -105 6 -118 -7 -9 -9
-32 -5 -61 l7 -46 -153 0 -152 0 6 35 c5 23 3 35 -4 35 -8 0 -9 11 -5 33 4 17
9 33 10 35 1 2 66 4 144 5 193 3 191 21 -2 25 l-149 3 7 49 c4 28 5 50 2 50
-2 0 -18 -7 -35 -16 -27 -13 -32 -21 -32 -50 0 -19 -5 -34 -10 -34 -6 0 -8 15
-4 39 7 41 -6 60 -25 38 -7 -9 -8 -24 -2 -45 10 -33 6 -42 -17 -42 -12 0 -13
10 -8 51 7 49 6 50 -15 39 -18 -10 -20 -18 -16 -47 6 -34 5 -35 -21 -29 -54
14 -66 11 -81 -16 -9 -15 -13 -29 -10 -33 3 -3 30 0 58 6 29 6 55 8 58 5 3 -3
2 -34 -2 -70 l-6 -65 -48 6 c-43 5 -50 3 -70 -23 -28 -35 -14 -51 27 -30 17 9
45 16 62 16 28 0 30 -2 30 -37 0 -48 10 -83 22 -83 6 0 7 23 3 60 -6 51 -5 60
9 60 12 0 16 -11 16 -47 0 -48 13 -83 23 -66 3 5 4 26 2 47 -4 42 2 66 17 66
5 0 8 -23 7 -52 -2 -33 1 -53 9 -56 8 -2 12 13 12 52 0 31 5 56 10 56 6 0 10
-25 10 -56 0 -34 4 -53 10 -49 6 3 10 30 10 58 l0 52 150 0 150 0 0 -33 c0
-23 4 -32 13 -30 7 3 14 34 18 84 4 43 10 87 14 97 4 10 3 17 -4 17 -12 0 -7
52 10 120 11 44 1 53 -34 32z m-337 -73 c0 -16 -4 -28 -9 -25 -8 5 -3 56 5 56
2 0 4 -14 4 -31z m-80 -73 c0 -46 -13 -116 -21 -116 -5 0 -9 32 -9 70 0 56 3
70 15 70 9 0 15 -9 15 -24z m40 -46 c0 -40 -4 -70 -10 -70 -6 0 -10 30 -10 70
0 40 4 70 10 70 6 0 10 -30 10 -70z m33 23 c-8 -65 -13 -67 -13 -5 0 29 4 52
10 52 6 0 7 -19 3 -47z m1 -78 c3 -8 1 -15 -4 -15 -6 0 -10 7 -10 15 0 8 2 15
4 15 2 0 6 -7 10 -15z"/>
<path d="M733 908 c-12 -16 -10 -71 4 -75 13 -5 36 40 31 62 -4 23 -22 30 -35
13z"/>
<path d="M613 581 c3 -15 9 -51 13 -79 l6 -51 -63 2 -64 2 0 60 c0 58 -1 60
-24 57 -35 -4 -36 -6 -24 -59 6 -26 10 -50 8 -54 -2 -3 -18 -4 -35 -1 -22 3
-30 9 -26 19 4 8 9 32 12 54 7 43 -6 51 -40 26 -15 -11 -16 -19 -7 -52 12 -43
7 -57 -16 -48 -12 5 -14 16 -10 54 7 54 -2 66 -33 47 -14 -9 -19 -20 -15 -33
2 -11 8 -30 11 -42 6 -21 3 -23 -39 -23 l-45 0 14 47 c16 52 10 65 -23 52 -19
-7 -23 -16 -23 -55 l0 -46 -43 6 c-83 13 -80 14 -83 -28 -3 -43 -10 -41 88
-17 l37 9 6 -40 c5 -28 3 -43 -5 -48 -8 -5 -10 -18 -6 -35 l7 -27 -64 7 -64 7
-6 -38 c-8 -46 -4 -50 27 -36 13 6 44 14 70 17 l46 7 0 -76 c0 -63 3 -76 16
-76 14 0 15 8 10 54 -4 29 -4 65 0 80 5 22 12 26 40 26 l35 0 -7 -90 c-9 -118
10 -121 22 -2 8 79 11 87 31 90 23 3 23 3 16 -87 -8 -120 11 -123 23 -3 l9 87
34 3 34 3 -6 -80 c-4 -66 -2 -81 9 -81 11 0 14 16 14 68 0 37 4 72 8 79 5 9
29 10 80 6 l72 -6 0 -68 c0 -54 3 -69 15 -69 12 0 14 23 8 158 -5 146 1 217
29 331 2 10 -9 15 -41 18 -43 3 -43 3 -38 -26z m47 -30 c0 -17 -4 -33 -10 -36
-6 -4 -10 8 -10 29 0 20 5 36 10 36 6 0 10 -13 10 -29z m-26 -199 l6 -82 -73
0 -73 0 -2 80 -2 79 67 3 c38 2 69 3 70 3 1 0 4 -37 7 -83z m-324 23 c0 -43
-3 -55 -16 -55 -10 0 -14 -7 -12 -20 2 -10 0 -19 -4 -20 -45 -2 -48 0 -41 30
3 19 1 30 -6 30 -6 0 -11 18 -11 45 l0 45 45 0 45 0 0 -55z m70 7 c0 -50 -17
-98 -36 -106 -10 -4 -12 61 -5 142 1 6 10 12 21 12 17 0 20 -7 20 -48z m85 1
c-4 -27 -10 -52 -13 -58 -4 -5 -5 -20 -3 -32 3 -24 -5 -28 -28 -14 -8 5 -11
16 -8 25 3 8 2 18 -3 21 -6 4 -10 28 -10 56 l0 49 36 0 36 0 -7 -47z m-345
-129 c0 -2 -9 -4 -21 -4 -11 0 -18 4 -14 10 5 8 35 3 35 -6z"/>
<path d="M560 561 c0 -6 5 -13 10 -16 6 -3 10 1 10 9 0 9 -4 16 -10 16 -5 0
-10 -4 -10 -9z"/>
<path d="M747 294 c-16 -16 -7 -44 14 -44 15 0 20 5 17 22 -3 22 -19 33 -31
22z"/>
</g>
</svg>
