<?xml version="1.0" standalone="no"?>
<!DOCTYPE svg PUBLIC "-//W3C//DTD SVG 20010904//EN"
 "http://www.w3.org/TR/2001/REC-SVG-20010904/DTD/svg10.dtd">
<svg version="1.0" xmlns="http://www.w3.org/2000/svg"
 width="107.000000pt" height="64.000000pt" viewBox="0 0 107.000000 64.000000"
 preserveAspectRatio="xMidYMid meet">
<metadata>
Created by potrace 1.16, written by Peter Selinger 2001-2019
</metadata>
<g transform="translate(0.000000,64.000000) scale(0.100000,-0.100000)"
fill="#000000" stroke="none">
<path d="M515 606 c-11 -7 -38 -30 -60 -51 -55 -50 -177 -142 -209 -156 -14
-7 -26 -18 -26 -26 0 -17 -27 -16 -89 4 -28 9 -54 14 -57 11 -3 -3 -2 -22 2
-43 5 -28 10 -35 23 -30 9 4 54 9 101 12 l85 4 -22 -19 c-24 -21 -30 -42 -12
-42 19 0 133 -83 188 -139 51 -49 100 -86 107 -79 1 2 37 54 79 117 83 123
125 174 125 152 0 -10 8 -11 28 -6 15 4 73 10 130 13 124 8 137 27 19 28 -127
1 -177 17 -229 73 -24 26 -65 79 -93 119 -27 39 -55 71 -60 72 -6 0 -19 -6
-30 -14z m54 -47 c19 -25 20 -29 4 -20 -28 16 -53 37 -53 45 0 17 29 3 49 -25z
m-38 -20 c16 -11 29 -29 29 -40 0 -16 -7 -19 -55 -19 -63 0 -72 16 -33 57 26
28 23 28 59 2z m-104 -151 c-4 -62 -7 -133 -7 -158 l-1 -45 -20 25 c-12 14
-35 43 -52 64 -18 22 -38 45 -46 53 -11 12 -9 20 13 54 35 53 96 119 109 119
7 0 8 -37 4 -112z m257 25 c25 -30 46 -59 46 -63 0 -5 -34 -44 -75 -87 l-74
-78 -1 142 c0 78 3 148 6 157 5 14 8 14 29 0 13 -9 44 -40 69 -71z m-124 22
c0 -22 -4 -25 -39 -25 -22 0 -46 3 -55 6 -28 11 -18 33 17 37 74 9 77 8 77
-18z m-270 -50 c-7 -9 -15 -13 -17 -11 -7 7 7 26 19 26 6 0 6 -6 -2 -15z m268
-22 c-3 -27 -5 -28 -53 -24 -51 3 -67 14 -58 38 3 9 23 13 60 13 53 0 54 0 51
-27z m-418 -13 c12 -8 9 -10 -12 -10 -16 0 -28 5 -28 10 0 13 20 13 40 0z
m655 -10 c-3 -5 -10 -10 -16 -10 -5 0 -9 5 -9 10 0 6 7 10 16 10 8 0 12 -4 9
-10z m-237 -42 c-3 -21 -8 -23 -53 -20 -27 1 -54 7 -59 12 -13 13 29 29 77 29
34 1 38 -1 35 -21z m-246 -15 c28 -25 21 -34 -11 -15 -16 9 -27 20 -25 24 8
12 15 10 36 -9z m246 -62 c3 -31 3 -31 -42 -31 -59 0 -76 8 -76 35 0 29 13 34
70 31 42 -3 45 -5 48 -35z m-3 -52 c3 -4 -9 -19 -26 -34 l-32 -26 -23 22 c-13
12 -24 26 -24 30 0 15 97 22 105 8z m19 -41 c-16 -23 -29 -45 -31 -47 -1 -2
-10 -1 -19 3 -13 5 -8 14 27 50 24 24 45 43 47 41 2 -2 -9 -23 -24 -47z"/>
</g>
</svg>
