<?xml version="1.0" standalone="no"?>
<!DOCTYPE svg PUBLIC "-//W3C//DTD SVG 20010904//EN"
 "http://www.w3.org/TR/2001/REC-SVG-20010904/DTD/svg10.dtd">
<svg version="1.0" xmlns="http://www.w3.org/2000/svg"
 width="157.000000pt" height="121.000000pt" viewBox="0 0 157.000000 121.000000"
 preserveAspectRatio="xMidYMid meet">
<metadata>
Created by potrace 1.16, written by Peter Selinger 2001-2019
</metadata>
<g transform="translate(0.000000,121.000000) scale(0.100000,-0.100000)"
fill="#000000" stroke="none">
<path d="M735 1141 c-19 -17 -224 -119 -252 -125 -15 -3 -59 -7 -96 -8 -72 -2
-87 -9 -66 -34 10 -13 10 -17 -2 -25 -11 -7 -9 -9 9 -9 15 0 22 -6 22 -20 0
-11 -1 -20 -2 -20 -189 -21 -238 -20 -238 5 0 7 -5 15 -11 17 -6 2 -9 13 -6
23 5 19 5 18 12 -3 5 -15 13 -21 22 -18 8 3 48 6 89 6 43 0 74 4 74 10 0 6
-33 10 -78 10 -71 0 -81 2 -102 25 -13 14 -27 25 -32 25 -4 0 -8 -64 -7 -142
0 -79 -3 -151 -6 -160 -9 -23 13 -23 45 0 22 15 50 17 215 17 186 0 191 -1
265 -29 41 -16 79 -33 85 -38 28 -24 31 -4 31 185 0 181 1 195 23 240 13 26
27 47 32 47 5 0 9 7 9 15 0 17 -21 20 -35 6z m-20 -51 c-3 -5 -11 -10 -16 -10
-6 0 -7 5 -4 10 3 6 11 10 16 10 6 0 7 -4 4 -10z m-30 -223 c0 -171 -2 -196
-15 -191 -8 3 -28 11 -43 16 -26 9 -28 14 -23 47 3 20 8 90 12 156 5 97 10
125 26 148 37 52 42 32 43 -176z m-94 7 c-2 -82 -5 -152 -8 -157 -2 -4 -13 -2
-24 3 -17 10 -19 22 -19 129 0 88 4 126 16 150 31 62 39 33 35 -125z m-51 132
c0 -3 -4 -8 -10 -11 -5 -3 -10 -1 -10 4 0 6 5 11 10 11 6 0 10 -2 10 -4z
m-170 -26 c0 -5 -4 -10 -10 -10 -5 0 -10 5 -10 10 0 6 5 10 10 10 6 0 10 -4
10 -10z m90 6 c0 -3 -4 -8 -10 -11 -5 -3 -10 -1 -10 4 0 6 5 11 10 11 6 0 10
-2 10 -4z m61 -129 c1 -59 -1 -111 -5 -114 -3 -4 -17 -1 -31 5 -24 11 -25 15
-25 105 0 69 4 98 16 116 30 42 43 9 45 -112z m-95 106 c11 -19 19 -193 9
-193 -3 0 -19 7 -35 15 -29 15 -30 18 -30 86 0 72 11 109 33 109 7 0 17 -8 23
-17z m-316 -93 c0 -5 -4 -10 -10 -10 -5 0 -10 5 -10 10 0 6 5 10 10 10 6 0 10
-4 10 -10z m240 -42 c-1 -68 -12 -76 -126 -84 -83 -5 -102 -4 -112 9 -11 12
-8 17 19 26 18 6 59 12 93 12 57 1 134 14 111 19 -5 1 -58 1 -116 0 -74 -1
-109 2 -114 11 -17 26 50 46 168 48 l77 1 0 -42z m60 -70 c30 -10 31 -12 14
-19 -22 -8 -74 -1 -74 10 0 22 16 25 60 9z m-300 -32 c0 -3 -4 -8 -10 -11 -5
-3 -10 -1 -10 4 0 6 5 11 10 11 6 0 10 -2 10 -4z"/>
<path d="M795 690 c-3 -5 -3 -16 2 -22 4 -7 6 -21 5 -30 -2 -10 2 -18 8 -18
15 0 34 45 27 64 -7 18 -33 21 -42 6z"/>
<path d="M1429 465 c-33 -23 -39 -41 -8 -25 28 16 32 9 37 -60 4 -55 3 -60
-19 -69 l-24 -10 23 -7 c28 -8 28 -32 0 -43 l-23 -8 23 -7 c17 -6 22 -15 22
-42 0 -29 -4 -34 -22 -34 -45 0 -48 9 -44 133 1 64 0 121 -4 127 -4 7 -21 2
-48 -16 -36 -24 -40 -30 -35 -59 6 -35 -5 -49 -27 -35 -12 8 -13 13 -2 30 16
26 12 26 -66 -11 -36 -17 -79 -33 -96 -34 -73 -6 -73 -6 -46 -15 24 -8 23 -8
-7 -9 -18 -1 -33 -6 -33 -12 0 -5 4 -7 10 -4 17 10 78 -6 85 -22 3 -9 -2 -24
-11 -34 -14 -16 -32 -19 -109 -19 -50 0 -94 3 -98 6 -9 10 4 33 16 28 7 -2 32
0 57 5 l45 9 -45 2 c-44 2 -44 2 -15 12 58 19 59 22 10 28 l-50 7 50 2 50 3
-65 17 c-43 11 -67 13 -72 6 -10 -14 -10 -153 0 -159 4 -3 26 0 48 5 21 6 90
12 152 14 l114 3 -7 -34 c-3 -19 -3 -44 1 -56 10 -31 24 -2 24 50 0 30 4 42
12 40 7 -3 13 -11 14 -19 2 -30 6 -33 13 -9 10 37 35 31 42 -10 6 -35 10 -33
13 5 1 14 8 20 26 20 23 0 26 -5 31 -50 6 -53 11 -52 13 5 2 34 3 35 36 32 19
-1 37 -7 38 -12 2 -6 8 -10 12 -10 5 0 8 60 6 133 -3 135 8 192 41 204 7 3 13
11 13 19 0 21 -66 13 -101 -11z m57 -22 c-10 -10 -19 5 -10 18 6 11 8 11 12 0
2 -7 1 -15 -2 -18z m-115 -55 c1 -30 -2 -213 -5 -215 -1 -1 -11 0 -23 3 -22 6
-40 46 -23 52 5 2 7 17 3 33 -4 24 -2 29 13 29 17 1 18 2 2 13 -24 19 -6 97
23 97 5 0 9 -6 10 -12z m-224 -125 c-15 -16 -17 -16 -17 -1 0 9 6 18 13 21 20
7 22 -2 4 -20z m103 7 c0 -13 -7 -20 -20 -20 -13 0 -20 7 -20 20 0 13 7 20 20
20 13 0 20 -7 20 -20z m51 -1 c-2 -8 -3 -29 -2 -46 2 -37 -21 -46 -38 -15 -6
9 -11 11 -11 5 0 -18 -30 -16 -30 2 0 9 10 15 26 15 19 0 25 4 20 15 -3 8 -3
22 1 30 7 20 39 14 34 -6z m-101 -4 c0 -8 -7 -15 -15 -15 -21 0 -19 -18 3 -23
16 -4 16 -5 -1 -6 -23 -1 -33 25 -17 44 16 19 30 19 30 0z m-20 -69 c0 -2 -9
-6 -20 -9 -11 -3 -20 -1 -20 4 0 5 9 9 20 9 11 0 20 -2 20 -4z"/>
<path d="M650 445 c-40 -11 -45 -14 -42 -38 2 -15 -1 -27 -7 -27 -6 0 -11 11
-11 25 0 14 -2 25 -3 25 -2 0 -30 -9 -63 -20 -32 -11 -86 -20 -119 -20 -37 0
-69 -6 -82 -15 -16 -11 -48 -14 -137 -12 l-117 2 5 -50 c4 -27 7 -76 7 -107 1
-32 4 -58 6 -58 2 0 16 6 31 14 15 7 45 17 68 20 64 11 262 10 276 -1 7 -5 40
-20 73 -33 33 -13 75 -32 93 -43 18 -10 36 -17 39 -14 3 4 9 68 14 144 9 145
16 190 30 199 13 8 11 24 -3 23 -7 -1 -33 -7 -58 -14z m11 -47 c3 -57 -4 -231
-10 -254 -6 -22 -8 -23 -26 -10 -18 12 -20 24 -18 102 2 90 6 113 23 159 12
31 30 33 31 3z m-73 -138 c2 -67 0 -110 -6 -110 -25 0 -35 35 -36 118 -1 98 7
133 27 113 7 -7 13 -53 15 -121z m-64 22 c5 -51 6 -95 3 -98 -3 -4 -20 0 -36
7 -30 13 -31 16 -31 76 0 76 13 116 38 111 14 -3 19 -20 26 -96z m-164 73 c-7
-8 -17 -15 -22 -15 -6 0 -5 7 2 15 7 8 17 15 22 15 6 0 5 -7 -2 -15z m87 -7
c-3 -8 -6 -5 -6 6 -1 11 2 17 5 13 3 -3 4 -12 1 -19z m-5 -74 c7 -54 -1 -68
-29 -49 -17 12 -20 22 -16 57 2 24 7 49 9 57 8 23 30 -18 36 -65z m-142 51 c0
-12 -16 -15 -91 -15 -52 0 -88 4 -84 9 3 5 -2 11 -11 13 -10 2 29 4 84 6 86 2
102 0 102 -13z m74 -11 c7 -18 8 -74 2 -74 -3 0 -17 5 -33 11 -29 12 -83 13
-165 3 -30 -4 -48 -2 -48 4 0 16 37 25 140 32 69 5 88 9 71 15 -23 8 -24 9 -5
16 28 11 31 11 38 -7z m-254 -34 c0 -5 -4 -10 -10 -10 -5 0 -10 5 -10 10 0 6
5 10 10 10 6 0 10 -4 10 -10z m180 -50 c-12 -22 -27 -28 -60 -25 -14 1 -47 3
-75 4 -41 1 -47 4 -32 12 19 11 84 22 144 26 29 1 32 -1 23 -17z m50 -4 c0 -2
-7 -6 -15 -10 -8 -3 -15 -1 -15 4 0 6 7 10 15 10 8 0 15 -2 15 -4z"/>
<path d="M1060 230 c-13 -8 -12 -10 3 -10 9 0 17 5 17 10 0 12 -1 12 -20 0z"/>
<path d="M783 105 c2 -38 6 -42 25 -23 20 20 15 58 -7 58 -16 0 -19 -6 -18
-35z"/>
<path d="M1460 80 c0 -11 5 -20 10 -20 6 0 10 9 10 20 0 11 -4 20 -10 20 -5 0
-10 -9 -10 -20z"/>
</g>
</svg>
