<?xml version="1.0" standalone="no"?>
<!DOCTYPE svg PUBLIC "-//W3C//DTD SVG 20010904//EN"
 "http://www.w3.org/TR/2001/REC-SVG-20010904/DTD/svg10.dtd">
<svg version="1.0" xmlns="http://www.w3.org/2000/svg"
 width="121.000000pt" height="57.000000pt" viewBox="0 0 121.000000 57.000000"
 preserveAspectRatio="xMidYMid meet">
<metadata>
Created by potrace 1.16, written by Peter Selinger 2001-2019
</metadata>
<g transform="translate(0.000000,57.000000) scale(0.100000,-0.100000)"
fill="#000000" stroke="none">
<path d="M215 541 c-3 -5 -19 -12 -35 -16 -36 -8 -36 -13 -9 -66 l20 -41 -53
8 c-95 13 -93 14 -93 -31 l1 -40 39 3 c22 2 52 8 67 13 15 6 33 9 40 7 8 -3
18 -53 30 -147 15 -125 19 -144 40 -161 29 -24 48 -25 48 -2 0 33 49 186 82
255 l32 67 55 1 c82 2 91 3 88 14 -1 6 -30 9 -64 8 -67 -1 -76 6 -48 43 16 21
20 54 7 54 -4 0 -18 -23 -29 -50 l-22 -51 -88 3 -88 3 3 68 c4 62 -6 85 -23
58z m5 -71 c0 -48 -11 -51 -28 -8 -9 25 -9 34 1 40 22 14 27 8 27 -32z m-31
-76 c2 -2 -23 -4 -57 -4 -38 0 -62 4 -62 11 0 10 108 3 119 -7z m211 -9 c0
-19 -138 -255 -150 -255 -3 0 -5 17 -5 38 0 20 -4 76 -9 124 l-8 87 29 4 c42
6 143 8 143 2z m-101 -264 c-12 -41 -22 -50 -34 -31 -5 9 36 82 43 75 2 -2 -2
-21 -9 -44z"/>
<path d="M765 499 c-3 -4 5 -19 16 -33 12 -15 23 -44 26 -65 5 -33 2 -40 -15
-45 -24 -8 -102 28 -102 46 0 8 -3 8 -9 2 -13 -14 -24 -134 -12 -134 6 0 14 6
18 13 15 25 58 47 92 47 l34 0 -5 -82 c-3 -49 -10 -84 -16 -86 -17 -5 -15 -29
3 -36 8 -3 20 -17 25 -31 13 -35 26 -31 40 13 7 20 40 80 74 133 l61 96 73 8
c88 8 98 28 12 23 -33 -1 -60 0 -60 3 0 3 11 20 25 39 22 30 25 50 7 50 -4 0
-20 -23 -37 -50 l-29 -50 -78 0 -78 0 6 28 c4 15 13 39 20 54 8 15 14 36 14
46 0 17 -7 20 -51 19 -27 0 -52 -4 -54 -8z m85 -19 c-1 -3 -6 -15 -13 -27
l-13 -23 -16 28 c-16 27 -16 27 13 27 16 0 29 -2 29 -5z m-136 -129 c3 -5 -1
-14 -9 -21 -13 -10 -15 -9 -15 9 0 21 14 28 24 12z m208 -68 c-27 -32 -59 -67
-71 -77 l-21 -19 0 71 c0 79 -3 77 98 81 l44 1 -50 -57z m-59 -124 c-25 -48
-27 -49 -35 -28 -8 20 -4 28 24 51 18 15 34 28 35 28 1 0 -10 -23 -24 -51z"/>
<path d="M1195 117 c-4 -10 -5 -21 -1 -24 10 -10 18 4 13 24 -4 17 -4 17 -12
0z"/>
<path d="M525 110 c-4 -6 -2 -17 4 -24 6 -7 9 -21 5 -30 -3 -9 -1 -16 5 -16
16 0 35 45 28 64 -7 18 -33 21 -42 6z"/>
<path d="M303 3 c170 -2 444 -2 610 0 166 1 28 2 -308 2 -335 0 -471 -1 -302
-2z"/>
</g>
</svg>
