<?xml version="1.0" standalone="no"?>
<!DOCTYPE svg PUBLIC "-//W3C//DTD SVG 20010904//EN"
 "http://www.w3.org/TR/2001/REC-SVG-20010904/DTD/svg10.dtd">
<svg version="1.0" xmlns="http://www.w3.org/2000/svg"
 width="115.000000pt" height="317.000000pt" viewBox="0 0 115.000000 317.000000"
 preserveAspectRatio="xMidYMid meet">
<metadata>
Created by potrace 1.16, written by Peter Selinger 2001-2019
</metadata>
<g transform="translate(0.000000,317.000000) scale(0.100000,-0.100000)"
fill="#000000" stroke="none">
<path d="M240 3113 l-25 -25 28 -20 28 -21 -38 -21 c-21 -12 -42 -31 -48 -44
-11 -24 -28 -31 -19 -7 4 10 0 15 -14 15 -18 0 -20 -5 -15 -34 4 -28 2 -35
-16 -41 -30 -9 -26 -23 12 -38 17 -8 43 -23 57 -35 14 -12 38 -32 55 -45 l29
-25 -49 -31 c-27 -17 -67 -34 -88 -38 -34 -5 -38 -9 -33 -28 4 -15 1 -25 -9
-29 -21 -8 -19 -23 3 -30 10 -4 45 -30 77 -59 43 -40 56 -58 52 -73 -5 -16 29
-75 36 -63 1 2 11 20 21 39 10 19 28 46 40 59 24 26 100 81 114 81 5 0 39 -30
76 -67 48 -48 63 -69 52 -71 -22 -5 -20 -18 5 -45 17 -19 22 -20 29 -7 23 39
40 55 62 55 15 0 22 5 20 16 -1 11 49 43 170 109 95 51 184 100 197 108 l25
15 -30 24 c-16 13 -54 42 -84 64 -91 65 -181 137 -259 207 -40 37 -77 68 -81
70 -5 2 -15 -12 -24 -29 -15 -30 -15 -34 -1 -42 13 -7 14 -12 4 -23 -6 -8 -17
-14 -23 -14 -7 0 -23 -12 -37 -26 -29 -32 -76 -57 -90 -49 -45 28 -133 148
-160 218 -13 32 -17 32 -49 0z m415 -93 c10 -11 15 -20 11 -20 -14 0 -46 21
-46 30 0 16 16 11 35 -10z m-296 -63 c39 -38 71 -72 71 -75 -1 -8 -119 -85
-137 -90 -13 -4 -62 47 -102 106 l-23 34 48 49 c27 27 54 48 61 47 6 -2 43
-34 82 -71z m353 -1 c21 -9 72 -44 115 -79 43 -35 106 -82 140 -105 34 -23 64
-46 67 -50 3 -5 -36 -30 -87 -57 -51 -26 -108 -58 -127 -70 -19 -11 -77 -43
-129 -69 l-93 -48 -55 53 c-100 98 -228 230 -230 237 -1 4 28 26 64 50 79 52
83 49 83 -60 0 -43 2 -78 4 -78 2 0 23 7 46 15 23 8 53 15 66 15 21 0 24 -5
24 -40 0 -57 20 -50 22 8 l1 47 4 -42 c4 -42 23 -62 23 -24 0 10 3 46 6 80 5
43 3 61 -5 61 -6 0 -11 -8 -11 -17 0 -10 -4 -24 -9 -32 -5 -8 -8 3 -7 31 3 62
25 91 62 82 33 -8 118 -51 184 -94 25 -15 51 -29 58 -29 16 -1 16 -21 0 -21
-9 0 -9 -3 -1 -11 6 -6 25 -8 49 -3 22 4 32 9 24 12 -8 3 -21 13 -27 22 -7 10
-24 21 -38 24 -40 10 -206 115 -242 153 -38 40 -47 41 -40 6 4 -23 -6 -40 -61
-104 -76 -88 -112 -103 -112 -46 0 17 6 53 13 80 11 42 19 52 72 88 64 43 78
44 147 15z m-547 -56 c3 -5 1 -10 -4 -10 -6 0 -11 5 -11 10 0 6 2 10 4 10 3 0
8 -4 11 -10z m431 -168 c-12 -11 -18 7 -10 30 l8 23 4 -23 c2 -13 1 -26 -2
-30z m-238 -45 l63 -64 -83 -62 -83 -61 -28 32 c-70 82 -82 105 -66 124 19 23
112 93 124 93 6 1 39 -28 73 -62z"/>
<path d="M679 2757 c-6 -47 1 -98 12 -92 12 8 12 112 0 119 -5 3 -10 -9 -12
-27z"/>
<path d="M720 2731 c0 -27 5 -53 10 -56 6 -3 10 3 10 14 0 20 6 21 85 21 50 0
85 4 85 10 0 6 -3 9 -7 9 -5 -1 -43 -1 -85 0 -70 1 -78 3 -78 20 0 11 -4 23
-10 26 -6 4 -10 -13 -10 -44z"/>
<path d="M1106 2642 c-8 -13 5 -82 15 -82 14 0 31 39 27 63 -3 22 -32 35 -42
19z"/>
<path d="M515 2269 c-4 -17 -5 -32 -3 -33 1 -1 20 -10 40 -20 20 -9 39 -20 42
-25 5 -8 -65 -42 -114 -56 -14 -4 -32 -13 -40 -21 -9 -7 -20 -10 -26 -6 -17
11 -61 93 -75 140 -7 23 -14 42 -16 42 -3 0 -37 -16 -77 -35 -40 -19 -80 -35
-88 -35 -24 0 -28 -11 -11 -36 14 -22 14 -24 -1 -30 -26 -10 -18 -27 32 -65
26 -19 53 -47 61 -61 12 -23 11 -29 -9 -56 -19 -25 -42 -41 -118 -79 -2 -1 1
-10 7 -21 8 -15 7 -23 -4 -32 -22 -18 -19 -26 18 -49 19 -11 45 -31 59 -43 45
-41 78 -68 83 -68 3 0 12 17 20 38 16 36 91 122 108 122 5 0 38 -21 74 -47
l65 -46 -33 -16 c-19 -9 -33 -20 -31 -24 1 -4 2 -18 2 -32 0 -34 15 -31 58 11
60 58 308 237 355 256 9 4 17 15 17 24 0 10 -3 15 -6 11 -4 -3 -34 17 -68 46
-35 29 -85 70 -112 91 -27 22 -81 73 -119 113 -39 40 -74 73 -77 73 -4 0 -9
-14 -13 -31z m45 -30 c0 -6 -4 -7 -10 -4 -5 3 -10 11 -10 16 0 6 5 7 10 4 6
-3 10 -11 10 -16z m-258 -22 c27 -23 88 -104 88 -118 0 -10 -95 -39 -127 -39
-17 0 -32 13 -53 47 -17 26 -30 53 -30 60 0 12 75 73 89 73 3 0 18 -10 33 -23z
m396 -109 c43 -35 99 -79 125 -98 42 -32 62 -70 37 -70 -9 0 -65 -35 -80 -50
-18 -19 -199 -130 -211 -130 -19 0 -154 99 -224 165 l-70 65 29 24 c15 13 46
33 67 45 l39 22 0 -70 0 -71 75 0 c68 0 75 -2 75 -19 0 -11 5 -23 10 -26 6 -3
10 3 10 14 0 11 5 23 10 26 6 4 10 -7 10 -27 l1 -33 14 30 c9 20 14 24 14 13
1 -25 18 -22 25 5 9 36 7 89 -4 82 -5 -3 -10 -15 -10 -25 0 -10 -5 -22 -11
-26 -8 -4 -9 3 -4 25 9 41 -9 40 -23 -1 -10 -32 -10 -32 -11 -6 -1 19 8 33 27
47 26 18 31 19 49 6 17 -12 20 -21 14 -47 -6 -28 -7 -82 -1 -98 1 -3 5 6 9 20
6 23 13 25 71 30 l65 5 -30 19 c-16 11 -56 42 -87 69 l-58 48 -32 -23 c-18
-12 -52 -37 -76 -55 -29 -22 -55 -33 -77 -33 l-34 0 -3 63 -3 62 40 20 c50 25
138 63 147 64 4 1 43 -27 86 -61z m-523 22 c3 -5 2 -10 -4 -10 -5 0 -13 5 -16
10 -3 6 -2 10 4 10 5 0 13 -4 16 -10z m119 -94 c-10 -8 -21 -12 -24 -10 -5 6
21 24 34 24 6 0 1 -6 -10 -14z m462 -82 c0 -1 -13 -4 -28 -8 -26 -6 -28 -4
-28 25 l0 31 29 -24 c15 -13 28 -23 27 -24z m-186 16 c0 -5 -7 -10 -16 -10 -8
0 -12 5 -9 10 3 6 10 10 16 10 5 0 9 -4 9 -10z m-273 -26 c-7 -7 -37 7 -37 17
0 6 9 5 21 -1 11 -7 19 -14 16 -16z m-5 -29 c20 -14 41 -25 45 -25 4 0 17 -7
27 -15 19 -15 19 -16 -15 -51 -19 -20 -51 -49 -72 -66 -43 -34 -35 -38 -98 50
l-31 43 45 44 c24 25 48 45 53 45 5 0 26 -11 46 -25z m233 -215 c-10 -11 -21
-17 -24 -14 -3 3 3 12 13 20 28 20 32 17 11 -6z"/>
<path d="M1006 1932 c-9 -14 1 -86 12 -90 16 -5 33 57 21 79 -10 20 -24 25
-33 11z"/>
<path d="M274 1519 c-9 -16 -148 -79 -173 -79 -39 0 -59 -83 -22 -95 18 -5 59
-46 162 -158 68 -75 84 -98 72 -106 -5 -3 -34 -25 -65 -49 -64 -49 -50 -52
-122 26 l-29 31 52 56 c46 51 61 75 46 75 -3 0 -28 -16 -56 -35 -28 -19 -57
-35 -65 -35 -16 0 -18 -14 -4 -40 7 -13 4 -24 -11 -44 l-20 -26 28 -10 c63
-24 114 -53 124 -71 9 -18 39 -27 39 -11 0 11 101 122 111 122 15 0 59 -78 59
-105 0 -28 14 -32 36 -11 19 19 18 26 -3 26 -16 1 -16 2 1 15 13 10 22 11 26
5 4 -7 71 30 164 91 142 91 161 101 193 96 33 -6 35 -4 29 17 -5 19 1 26 34
42 22 10 40 21 40 24 0 8 -96 50 -184 80 -44 15 -130 53 -189 84 -106 56 -108
56 -132 39 -30 -22 -27 -35 11 -44 66 -16 150 -42 167 -51 14 -7 16 -13 7 -23
-14 -17 -145 -95 -159 -95 -6 0 -11 -7 -11 -15 0 -16 -55 -22 -64 -7 -2 4 9
29 25 56 17 26 28 51 25 54 -4 3 6 18 21 34 31 32 12 40 -22 8 l-21 -20 -37
49 c-20 26 -42 62 -48 80 -11 32 -23 39 -35 20z m63 -118 c18 -19 33 -37 33
-40 0 -8 -137 -111 -147 -111 -5 0 -30 32 -57 71 l-48 71 23 16 c13 9 44 29
69 44 l45 26 24 -21 c14 -12 40 -37 58 -56z m127 50 c4 -5 -3 -7 -14 -4 -23 6
-26 13 -6 13 8 0 17 -4 20 -9z m-364 -72 c0 -5 -4 -9 -10 -9 -5 0 -10 7 -10
16 0 8 5 12 10 9 6 -3 10 -10 10 -16z m566 -54 c16 -14 50 -42 76 -62 26 -20
46 -39 44 -41 -2 -2 -25 -5 -50 -6 l-46 -2 0 39 c0 43 -24 49 -26 6 -2 -45 -4
-50 -15 -43 -6 4 -8 20 -5 40 l7 33 -55 -2 c-31 -2 -54 -2 -52 0 12 12 82 62
87 63 3 0 19 -11 35 -25z m99 -8 c10 -5 41 -18 68 -27 l49 -17 -31 -23 -32
-22 -54 42 c-29 23 -59 48 -66 56 -11 13 -8 14 17 8 16 -4 38 -11 49 -17z
m-414 -46 c-12 -22 -21 -50 -21 -62 0 -20 3 -21 61 -14 115 14 129 12 129 -10
0 -11 4 -31 8 -45 6 -21 8 -19 12 20 5 47 23 58 28 18 6 -38 22 -45 22 -10 0
37 17 42 29 10 l8 -23 7 23 c8 25 26 30 26 7 0 -18 17 -20 22 -3 5 13 48 19
48 7 0 -4 -19 -19 -42 -33 -31 -18 -46 -22 -55 -14 -10 8 -13 6 -13 -10 0 -17
-20 -31 -95 -66 -53 -26 -99 -46 -103 -45 -8 0 -175 193 -179 206 -3 11 121
103 125 92 2 -4 -6 -26 -17 -48z m172 -21 c4 -16 0 -20 -20 -20 -25 0 -26 0
-8 20 10 11 19 20 20 20 2 0 5 -9 8 -20z m88 -17 c-9 -16 -10 -14 -11 12 0 21
3 26 11 18 8 -8 8 -16 0 -30z m-41 1 c0 -8 -4 -12 -10 -9 -5 3 -10 10 -10 16
0 5 5 9 10 9 6 0 10 -7 10 -16z"/>
<path d="M300 1179 c0 -5 5 -7 10 -4 6 3 10 8 10 11 0 2 -4 4 -10 4 -5 0 -10
-5 -10 -11z"/>
<path d="M981 1226 c-7 -9 -9 -21 -5 -28 5 -7 7 -21 6 -30 -6 -32 26 -19 33
13 9 40 -14 69 -34 45z"/>
<path d="M281 796 c-12 -13 -21 -28 -19 -33 4 -15 -52 -58 -95 -74 -53 -19
-64 -34 -42 -59 17 -19 17 -20 -6 -39 l-24 -19 28 -11 c34 -13 117 -81 117
-96 0 -10 -106 -65 -153 -79 -9 -3 -22 -18 -27 -33 -6 -16 -15 -36 -20 -46
-13 -22 -5 -36 18 -31 11 3 25 -8 42 -32 14 -21 31 -44 39 -51 11 -12 11 -16
-5 -27 -17 -13 -16 -15 12 -39 35 -32 41 -33 48 -9 9 28 64 83 136 138 62 46
68 49 137 53 40 2 89 0 108 -3 31 -6 35 -11 35 -36 0 -17 5 -30 10 -30 6 0 10
14 10 30 0 17 5 30 10 30 6 0 10 -13 10 -30 0 -16 5 -30 10 -30 6 0 10 11 10
24 0 14 5 28 10 31 6 3 10 -3 10 -14 0 -12 5 -21 10 -21 6 0 10 9 10 20 0 11
5 20 10 20 6 0 10 -9 10 -20 0 -11 5 -20 10 -20 6 0 10 9 10 20 0 18 7 20 57
20 32 0 53 -4 48 -8 -6 -5 -48 -21 -95 -36 -47 -15 -94 -31 -105 -35 -62 -27
-182 -62 -265 -76 -52 -10 -100 -22 -106 -29 -14 -14 -34 -73 -27 -79 4 -5 40
10 185 77 31 14 60 26 63 26 9 0 266 95 330 122 77 32 142 47 153 36 13 -13
33 -1 26 16 -4 9 7 18 30 26 57 19 52 26 -69 90 -158 84 -344 200 -460 287
-38 29 -75 53 -81 53 -10 0 -31 -69 -22 -74 2 -1 50 -22 108 -46 99 -42 259
-128 260 -141 0 -7 -159 -100 -250 -146 -62 -32 -100 -36 -123 -14 -17 16 91
186 129 203 39 18 29 36 -26 43 -46 6 -54 12 -110 76 -33 39 -65 87 -71 109
-7 22 -15 40 -19 40 -4 0 -17 -11 -29 -24z m54 -94 c22 -21 55 -54 73 -74 l34
-36 -87 -56 c-100 -65 -98 -65 -153 23 l-30 49 20 34 c18 30 85 97 98 97 3 0
23 -17 45 -37z m153 3 c22 -15 30 -25 20 -25 -9 0 -20 5 -23 10 -3 6 -15 10
-26 10 -10 0 -19 7 -19 15 0 20 5 19 48 -10z m-314 -50 c-7 -16 -24 -21 -24
-6 0 8 7 13 27 20 1 1 0 -6 -3 -14z m-9 -75 c3 -5 1 -10 -4 -10 -6 0 -11 5
-11 10 0 6 2 10 4 10 3 0 8 -4 11 -10z m277 -63 c-11 -41 -72 -181 -77 -175
-1 2 -20 29 -43 60 l-41 56 81 56 c45 30 84 53 86 51 3 -2 0 -24 -6 -48z m58
44 c0 -5 -7 -14 -15 -21 -16 -14 -18 -10 -9 14 6 17 24 22 24 7z m473 -156
c69 -37 74 -48 26 -60 -22 -5 -37 2 -85 43 -32 27 -72 64 -89 82 l-30 33 55
-30 c30 -16 86 -47 123 -68z m-178 55 c3 -6 -1 -7 -9 -4 -18 7 -21 14 -7 14 6
0 13 -4 16 -10z m35 -55 c41 -25 86 -54 100 -65 l25 -20 -99 0 -98 0 6 34 c6
32 5 34 -23 32 -17 -1 -37 -10 -46 -21 -15 -20 -16 -20 -13 0 3 22 -23 27 -56
12 -13 -6 -16 -6 -11 2 7 12 114 70 130 71 6 0 44 -20 85 -45z m-516 -27 c25
-32 46 -62 46 -66 0 -9 -82 -69 -152 -111 l-37 -22 -30 45 c-42 60 -40 83 12
132 53 51 98 85 107 82 4 -2 28 -29 54 -60z m-194 -23 c-7 -8 -17 -15 -22 -15
-6 0 -5 7 2 15 7 8 17 15 22 15 6 0 5 -7 -2 -15z m483 -5 c4 -16 0 -20 -20
-20 -25 0 -26 0 -8 20 10 11 19 20 20 20 2 0 5 -9 8 -20z m127 -12 c0 -16 -3
-19 -11 -11 -6 6 -8 16 -5 22 11 17 16 13 16 -11z m-540 -183 c-7 -9 -15 -13
-17 -11 -7 7 7 26 19 26 6 0 6 -6 -2 -15z m179 -49 c-13 -12 -79 -33 -79 -25
0 11 36 27 64 28 11 1 17 -1 15 -3z"/>
<path d="M1057 314 c-4 -4 -7 -18 -7 -31 0 -18 5 -24 18 -21 10 2 17 12 17 27
0 24 -15 37 -28 25z"/>
</g>
</svg>
