<?xml version="1.0" standalone="no"?>
<!DOCTYPE svg PUBLIC "-//W3C//DTD SVG 20010904//EN"
 "http://www.w3.org/TR/2001/REC-SVG-20010904/DTD/svg10.dtd">
<svg version="1.0" xmlns="http://www.w3.org/2000/svg"
 width="140.000000pt" height="134.000000pt" viewBox="0 0 140.000000 134.000000"
 preserveAspectRatio="xMidYMid meet">
<metadata>
Created by potrace 1.16, written by Peter Selinger 2001-2019
</metadata>
<g transform="translate(0.000000,134.000000) scale(0.100000,-0.100000)"
fill="#000000" stroke="none">
<path d="M975 1300 c-23 -24 -52 -42 -72 -46 -18 -3 -33 -11 -33 -18 0 -6 7
-113 16 -237 l17 -227 -21 -36 c-25 -42 -26 -46 -12 -46 6 0 10 5 10 12 0 15
130 139 166 158 16 8 40 25 53 37 14 12 37 27 52 34 15 6 30 17 33 25 4 11 -1
11 -27 -2 -17 -9 -45 -26 -62 -37 -16 -11 4 14 45 56 41 43 78 77 83 77 20 0
19 -34 -1 -48 -21 -14 -30 -32 -14 -32 4 0 18 9 30 18 23 18 23 21 11 63 -15
54 -18 57 -29 40 -10 -18 -50 27 -137 152 -34 49 -63 91 -66 93 -2 2 -21 -14
-42 -36z m72 -42 c48 -69 48 -72 -7 -34 -29 20 -57 36 -63 36 -5 0 -2 9 8 20
10 11 21 20 25 20 4 0 20 -19 37 -42z m-56 -23 c49 -26 198 -157 199 -176 0
-12 -269 -279 -274 -271 -2 4 0 73 5 152 5 80 12 182 15 228 3 45 10 82 15 82
6 0 23 -7 40 -15z m-75 -51 c-3 -26 -6 -72 -6 -102 0 -83 -6 -59 -13 51 -6 85
-4 97 10 97 13 0 15 -8 9 -46z"/>
<path d="M977 1137 c-5 -14 8 -141 23 -212 7 -36 8 -33 9 31 0 39 4 99 7 133
6 57 5 61 -14 61 -11 0 -22 -6 -25 -13z m20 -29 c-3 -8 -6 -5 -6 6 -1 11 2 17
5 13 3 -3 4 -12 1 -19z"/>
<path d="M325 1237 l-38 -33 64 -45 c35 -25 96 -67 134 -92 88 -59 105 -72
105 -84 0 -9 -47 -47 -82 -68 -10 -5 -43 -28 -73 -49 -31 -21 -58 -36 -61 -34
-3 3 2 51 11 108 9 56 15 103 13 105 -9 9 -53 9 -53 0 1 -5 4 -41 8 -80 11
-104 -1 -154 -43 -183 -19 -13 -36 -27 -38 -33 -6 -16 17 -10 56 15 36 24 203
94 286 120 16 6 18 13 12 59 -5 40 -14 59 -39 83 -18 18 -72 79 -121 138 -49
58 -93 106 -96 106 -4 0 -24 -15 -45 -33z m86 -39 c18 -24 48 -60 68 -80 19
-21 31 -38 27 -38 -10 0 -164 108 -172 121 -7 12 14 39 31 39 7 0 28 -19 46
-42z m-34 -195 c-3 -10 -5 -4 -5 12 0 17 2 24 5 18 2 -7 2 -21 0 -30z m233
-73 c0 -11 -12 -26 -29 -34 -38 -20 -114 -46 -119 -41 -2 2 13 15 35 29 66 44
88 61 91 69 6 13 22 -4 22 -23z"/>
<path d="M263 1048 c4 -83 7 -180 7 -215 0 -40 4 -62 10 -58 18 11 5 425 -13
425 -7 0 -8 -53 -4 -152z"/>
<path d="M785 1145 c-14 -20 -38 -46 -53 -60 l-26 -24 50 -53 c27 -29 59 -66
71 -83 12 -16 24 -27 27 -24 4 3 0 35 -8 70 -8 35 -16 95 -18 132 -1 38 -6 71
-9 73 -4 2 -19 -12 -34 -31z m25 -59 c0 -24 3 -59 6 -77 l6 -34 -40 40 c-23
22 -41 44 -42 48 0 14 44 66 58 66 8 1 12 -14 12 -43z"/>
<path d="M155 1090 c-38 -39 -73 -70 -77 -70 -18 0 -4 -25 70 -123 42 -57 85
-114 94 -128 12 -17 17 -19 17 -9 1 9 -6 25 -14 35 -34 44 -124 174 -135 194
-10 20 -5 28 59 88 65 61 83 84 64 83 -5 -1 -39 -32 -78 -70z"/>
<path d="M685 798 c-3 -7 -1 -26 4 -43 l8 -30 12 29 c13 31 9 56 -9 56 -6 0
-13 -6 -15 -12z"/>
<path d="M1255 800 c-4 -6 -1 -17 5 -25 6 -8 9 -19 6 -24 -4 -5 -2 -12 4 -16
16 -10 33 45 19 61 -14 17 -25 18 -34 4z"/>
<path d="M381 618 c-8 -13 -20 -33 -28 -45 -14 -21 -12 -23 54 -56 37 -19 88
-52 112 -74 l45 -39 -50 -67 c-27 -37 -59 -82 -72 -100 -13 -17 -32 -41 -43
-52 -19 -19 -19 -19 -19 45 0 36 7 108 15 160 8 52 15 99 15 103 0 5 -15 7
-32 5 -26 -2 -32 -7 -30 -23 1 -11 5 -86 9 -168 5 -132 4 -151 -13 -182 -10
-19 -22 -35 -27 -35 -5 0 -8 100 -7 223 1 122 1 227 1 233 -1 11 -54 14 -65 4
-2 -3 1 -46 9 -95 7 -50 21 -157 30 -240 9 -82 18 -151 20 -153 2 -2 30 23 63
55 79 77 220 198 265 229 21 14 37 30 37 37 0 8 -14 26 -30 42 -27 26 -33 28
-52 16 -18 -11 -24 -9 -55 21 -38 36 -123 153 -123 168 0 17 -15 11 -29 -12z
m43 -56 c33 -48 33 -54 -1 -40 -47 20 -57 33 -44 57 7 11 13 21 15 21 2 0 15
-17 30 -38z m-125 -47 c1 -10 -1 -48 -5 -84 l-8 -66 -7 55 c-11 90 -10 122 4
118 6 -3 14 -13 16 -23z m78 -82 c-3 -10 -5 -2 -5 17 0 19 2 27 5 18 2 -10 2
-26 0 -35z m232 -76 c-20 -18 -47 -40 -60 -51 -13 -10 -37 -30 -53 -45 l-30
-26 22 30 c13 17 44 60 70 97 l47 68 20 -21 20 -20 -36 -32z"/>
<path d="M1071 605 l-33 -38 64 -35 c79 -44 103 -63 146 -113 l34 -40 -38 -47
c-63 -78 -147 -172 -154 -172 -8 0 6 153 19 210 17 72 15 80 -18 80 -35 0 -40
-11 -30 -66 10 -54 13 -239 5 -253 -12 -19 20 -12 38 8 10 11 71 56 137 101
65 44 119 88 119 96 0 8 -4 14 -8 14 -5 0 -15 11 -22 25 -7 14 -19 25 -26 25
-7 0 -28 19 -46 43 -65 81 -128 162 -141 180 -12 18 -15 17 -46 -18z m62 -39
c37 -47 34 -51 -13 -20 -40 27 -46 35 -33 47 11 12 17 8 46 -27z m-39 -163
c-10 -40 -14 -41 -14 -5 0 18 5 32 10 32 6 0 8 -11 4 -27z m236 -68 c0 -12
-138 -110 -146 -103 -2 2 24 34 58 71 48 53 64 65 74 56 8 -6 14 -17 14 -24z"/>
<path d="M954 567 c-3 -8 2 -61 11 -118 20 -128 32 -369 19 -369 -15 0 -30 52
-59 210 -15 80 -29 156 -32 170 -4 23 -6 22 -48 -25 -25 -28 -45 -53 -45 -56
0 -4 25 -51 56 -105 32 -55 70 -128 85 -164 52 -122 64 -93 72 175 4 110 10
221 13 248 l7 47 -37 0 c-21 0 -39 -6 -42 -13z m52 -29 c-3 -13 -6 -50 -7 -83
-1 -71 -5 -64 -18 25 -9 71 -8 80 16 80 11 0 14 -6 9 -22z m-97 -283 c8 -44 8
-48 -5 -31 -8 11 -14 23 -14 28 0 4 -13 30 -30 56 -36 59 -37 71 -8 102 l23
24 12 -64 c7 -36 16 -87 22 -115z"/>
<path d="M164 483 c-16 -21 -40 -48 -54 -60 -19 -16 -22 -26 -15 -36 6 -8 32
-46 59 -84 28 -37 57 -90 67 -116 26 -77 51 -92 29 -17 -21 68 -40 194 -41
271 -1 44 -5 79 -9 79 -4 0 -20 -17 -36 -37z m26 -81 c0 -31 4 -73 10 -91 5
-19 8 -36 6 -38 -4 -5 -86 116 -86 127 0 15 42 60 56 60 10 0 14 -14 14 -58z"/>
<path d="M655 170 c-4 -6 -1 -17 5 -25 6 -8 9 -19 6 -24 -4 -5 -2 -12 4 -16
12 -7 33 43 26 62 -6 16 -32 17 -41 3z"/>
<path d="M1283 154 c-8 -21 13 -42 28 -27 13 13 5 43 -11 43 -6 0 -13 -7 -17
-16z"/>
</g>
</svg>
