<?xml version="1.0" standalone="no"?>
<!DOCTYPE svg PUBLIC "-//W3C//DTD SVG 20010904//EN"
 "http://www.w3.org/TR/2001/REC-SVG-20010904/DTD/svg10.dtd">
<svg version="1.0" xmlns="http://www.w3.org/2000/svg"
 width="96.000000pt" height="157.000000pt" viewBox="0 0 96.000000 157.000000"
 preserveAspectRatio="xMidYMid meet">
<metadata>
Created by potrace 1.16, written by Peter Selinger 2001-2019
</metadata>
<g transform="translate(0.000000,157.000000) scale(0.100000,-0.100000)"
fill="#000000" stroke="none">
<path d="M5 1565 c24 -8 955 -12 955 -4 0 5 -204 9 -482 8 -266 0 -479 -2
-473 -4z"/>
<path d="M311 1526 c-17 -21 -112 -59 -143 -58 -24 1 -28 -3 -28 -28 0 -22 -7
-31 -30 -42 -37 -16 -38 -29 -2 -50 35 -21 113 -99 107 -108 -2 -3 -29 -15
-60 -25 -53 -18 -55 -21 -53 -52 1 -19 -5 -40 -16 -52 -17 -19 -17 -20 21 -44
49 -31 68 -54 88 -100 14 -33 35 -51 35 -29 0 17 57 70 102 95 l47 26 46 -51
c25 -27 45 -53 45 -57 0 -4 -11 -13 -25 -19 -21 -10 -24 -16 -19 -39 4 -16 9
-31 11 -36 3 -4 36 21 74 57 60 56 153 122 307 219 23 15 42 31 42 35 0 5 -42
42 -92 84 -110 91 -215 190 -249 236 -23 30 -26 31 -52 20 -37 -18 -34 -30 13
-63 22 -15 40 -31 40 -35 0 -10 -63 -48 -85 -52 -22 -4 -72 83 -81 140 -6 43
-22 53 -43 28z m195 -57 c19 -22 19 -22 -3 -8 -13 8 -23 17 -23 21 0 12 6 9
26 -13z m-149 -58 c24 -36 39 -69 35 -73 -10 -10 -59 -39 -109 -65 -39 -20
-49 -13 -99 61 -31 47 -32 51 -17 68 29 33 107 79 127 76 11 -2 38 -31 63 -67z
m260 -68 c149 -118 204 -165 201 -173 -5 -15 -317 -215 -323 -208 -1 2 -23 27
-49 57 l-47 53 23 13 c92 49 108 56 117 51 5 -3 15 -29 22 -56 7 -28 16 -50
19 -50 4 0 10 26 13 58 4 31 10 67 13 79 6 21 4 22 -24 17 -27 -5 -36 0 -85
52 -38 40 -59 55 -71 51 -23 -9 -20 -34 7 -41 12 -3 42 -24 67 -45 l45 -40
-30 -11 c-16 -7 -57 -16 -90 -20 l-60 -8 -47 49 c-27 28 -48 54 -48 59 0 5 35
28 77 52 96 53 196 106 204 107 3 1 33 -20 66 -46z m-482 27 c3 -5 1 -10 -4
-10 -6 0 -11 5 -11 10 0 6 2 10 4 10 3 0 8 -4 11 -10z m128 -172 c8 -13 33
-43 56 -68 22 -25 41 -48 41 -51 0 -11 -132 -70 -149 -67 -17 3 -64 69 -75
105 -6 18 2 29 46 62 29 22 56 41 59 41 4 0 14 -10 22 -22z m314 -70 c-3 -7
-5 -2 -5 12 0 14 2 19 5 13 2 -7 2 -19 0 -25z m-114 -223 c-3 -9 -8 -14 -10
-11 -3 3 -2 9 2 15 9 16 15 13 8 -4z"/>
<path d="M884 1038 c4 -49 25 -58 40 -17 12 34 2 59 -24 59 -17 0 -19 -5 -16
-42z"/>
<path d="M260 664 c-14 -25 -76 -64 -102 -64 -6 0 -28 -18 -49 -41 l-36 -40
53 -53 c29 -30 62 -68 73 -87 l20 -33 -57 -38 c-31 -21 -65 -38 -74 -38 -24 0
-29 -13 -18 -49 7 -26 6 -34 -11 -44 -21 -13 -26 -37 -6 -37 22 0 152 -71 168
-92 l17 -21 7 24 c8 25 83 109 98 109 5 0 7 -11 5 -25 -7 -33 4 -39 28 -17 10
10 28 22 39 26 37 15 209 78 320 116 136 47 165 60 165 76 0 7 -37 24 -82 39
-46 15 -102 35 -125 46 -24 10 -45 19 -48 19 -4 0 -25 9 -49 19 -23 11 -67 29
-97 41 -30 12 -64 28 -76 36 -20 12 -22 12 -28 -6 -4 -11 -11 -20 -16 -20 -10
0 -64 113 -75 156 -8 31 -27 30 -44 -2z m26 -60 c46 -30 107 -162 68 -147 -7
3 -27 -5 -43 -16 -55 -39 -58 -31 -35 77 6 31 5 32 -25 32 -32 0 -39 -8 -20
-27 15 -15 7 -128 -8 -128 -15 0 -83 92 -83 112 0 18 48 72 85 94 36 23 30 23
61 3z m274 -155 c94 -39 224 -88 269 -101 19 -5 30 -13 25 -18 -8 -8 -129 -52
-224 -81 -19 -6 -66 -23 -105 -39 -74 -29 -155 -46 -155 -32 0 16 57 88 83
105 37 24 43 22 61 -24 9 -23 18 -40 20 -38 2 2 7 30 10 61 3 31 9 64 12 72 8
21 -5 20 -29 -1 -18 -17 -20 -16 -48 17 -16 19 -34 49 -41 67 -10 28 -15 32
-36 26 -17 -4 -23 -2 -18 6 14 21 98 12 176 -20z m-187 -20 c30 -16 107 -91
107 -105 0 -6 -29 -24 -65 -40 -57 -25 -65 -32 -60 -51 9 -37 -3 -26 -31 30
-45 88 -47 112 -11 147 35 35 32 33 60 19z m-105 -129 c6 0 21 -18 32 -39 11
-22 24 -42 30 -46 22 -13 8 -44 -32 -71 -76 -52 -71 -53 -66 17 3 35 9 72 13
82 7 16 4 18 -21 15 -23 -2 -28 -7 -26 -23 12 -69 16 -145 8 -145 -15 0 -73
48 -96 80 -27 38 -19 54 57 113 50 38 60 42 74 31 8 -8 21 -14 27 -14z m259 8
c-3 -8 -6 -5 -6 6 -1 11 2 17 5 13 3 -3 4 -12 1 -19z"/>
<path d="M900 196 c0 -20 5 -26 21 -26 15 0 20 5 17 22 -5 34 -38 37 -38 4z"/>
</g>
</svg>
