<?xml version="1.0" standalone="no"?>
<!DOCTYPE svg PUBLIC "-//W3C//DTD SVG 20010904//EN"
 "http://www.w3.org/TR/2001/REC-SVG-20010904/DTD/svg10.dtd">
<svg version="1.0" xmlns="http://www.w3.org/2000/svg"
 width="118.000000pt" height="47.000000pt" viewBox="0 0 118.000000 47.000000"
 preserveAspectRatio="xMidYMid meet">
<metadata>
Created by potrace 1.16, written by Peter Selinger 2001-2019
</metadata>
<g transform="translate(0.000000,47.000000) scale(0.100000,-0.100000)"
fill="#000000" stroke="none">
<path d="M123 391 c-27 -23 -30 -47 -5 -55 9 -4 36 -24 60 -45 l43 -39 -54
-35 c-30 -20 -66 -41 -80 -48 -32 -15 -34 -29 -7 -60 l21 -24 17 25 c51 74
131 142 132 113 1 -5 25 -35 55 -68 69 -75 73 -51 5 28 -28 32 -50 62 -50 65
0 4 27 24 60 46 57 36 74 56 49 56 -6 0 -38 -19 -71 -42 -67 -47 -58 -50 -110
45 -17 31 -34 57 -37 57 -3 -1 -16 -9 -28 -19z m47 -54 c0 -5 -8 -3 -17 4 -10
7 -20 14 -22 16 -1 1 0 7 5 14 5 9 11 7 21 -6 7 -11 13 -23 13 -28z m-58 -199
c-18 -19 -22 -20 -22 -6 0 9 8 21 17 27 27 15 29 3 5 -21z"/>
<path d="M755 350 c-16 -16 -26 -32 -23 -36 3 -3 35 -12 71 -19 36 -8 76 -19
88 -26 22 -11 21 -12 -22 -34 -25 -13 -68 -31 -97 -40 l-52 -17 0 -49 c0 -27
3 -49 6 -49 3 0 31 23 61 50 60 55 136 110 151 110 5 0 46 -18 90 -40 44 -22
85 -40 91 -40 28 0 4 19 -69 55 -44 21 -80 43 -80 47 0 7 82 63 104 71 5 2 7
8 5 15 -3 8 -29 -5 -72 -33 l-68 -46 -64 46 c-35 25 -67 50 -70 55 -10 16 -19
12 -50 -20z m75 -36 c0 -1 -13 2 -30 7 -16 6 -27 15 -24 20 4 7 54 -17 54 -27z
m-50 -159 c-27 -29 -40 -32 -40 -10 0 9 10 20 23 25 37 15 42 11 17 -15z"/>
<path d="M504 168 c3 -13 6 -32 6 -43 1 -20 1 -20 15 -1 23 30 19 66 -6 66
-17 0 -20 -4 -15 -22z"/>
</g>
</svg>
