<?xml version="1.0" standalone="no"?>
<!DOCTYPE svg PUBLIC "-//W3C//DTD SVG 20010904//EN"
 "http://www.w3.org/TR/2001/REC-SVG-20010904/DTD/svg10.dtd">
<svg version="1.0" xmlns="http://www.w3.org/2000/svg"
 width="101.000000pt" height="91.000000pt" viewBox="0 0 101.000000 91.000000"
 preserveAspectRatio="xMidYMid meet">
<metadata>
Created by potrace 1.16, written by Peter Selinger 2001-2019
</metadata>
<g transform="translate(0.000000,91.000000) scale(0.100000,-0.100000)"
fill="#000000" stroke="none">
<path d="M341 851 c-18 -22 -30 -45 -29 -51 2 -6 -26 -23 -62 -37 -36 -14 -77
-32 -92 -40 -15 -7 -30 -13 -33 -13 -15 2 -76 -14 -81 -21 -3 -5 4 -25 17 -45
l22 -35 31 28 c60 56 185 133 214 133 12 0 91 -103 126 -162 15 -27 32 -48 39
-48 7 0 18 21 25 48 7 26 24 70 39 99 23 46 30 52 65 58 51 9 171 -4 180 -19
6 -8 8 -8 8 1 0 9 13 11 45 6 77 -10 51 14 -32 30 -75 15 -171 39 -204 52 -12
4 -23 -7 -42 -47 -15 -29 -46 -75 -70 -103 l-44 -49 -20 54 c-11 30 -29 88
-39 128 -10 39 -22 72 -25 72 -4 0 -21 -18 -38 -39z m51 -63 c9 -35 15 -64 14
-65 -2 -2 -17 15 -36 38 -28 35 -31 44 -21 65 6 13 14 24 19 24 4 0 15 -28 24
-62z m263 13 c17 -7 15 -9 -13 -13 -22 -3 -32 -1 -32 9 0 14 15 16 45 4z
m-535 -126 c-26 -27 -50 -33 -50 -11 0 10 30 25 69 35 3 1 -6 -10 -19 -24z
m390 -33 c0 -5 -7 -17 -15 -28 -14 -19 -14 -19 -15 2 0 11 3 24 7 27 9 10 23
9 23 -1z"/>
<path d="M942 641 c-14 -8 -7 -81 8 -81 16 0 30 51 20 71 -12 22 -11 21 -28
10z"/>
<path d="M317 354 c-26 -20 -47 -38 -47 -40 0 -3 13 -17 29 -32 36 -33 94
-139 87 -157 -2 -7 4 -21 14 -30 10 -9 21 -27 24 -41 9 -34 21 -30 49 19 35
59 143 147 166 133 5 -3 31 3 58 15 36 16 71 21 142 22 65 2 96 6 99 15 3 9
-19 12 -86 12 -90 0 -144 11 -173 36 -24 21 -28 18 -31 -33 -2 -39 -6 -47 -20
-45 -10 2 -41 -15 -70 -36 -29 -21 -74 -46 -99 -54 l-46 -16 -12 50 c-6 27
-14 87 -17 134 -4 46 -10 84 -14 84 -4 0 -28 -16 -53 -36z m47 -69 c4 -47 3
-56 -5 -40 -7 11 -21 30 -33 43 l-21 23 25 19 c14 10 25 18 26 17 1 -1 4 -29
8 -62z m356 -22 c6 -6 -22 -23 -37 -23 -7 0 -13 9 -13 21 0 16 4 19 23 13 12
-3 24 -8 27 -11z m-240 -140 c0 -5 -7 -17 -16 -28 -13 -17 -16 -18 -24 -5 -7
11 -3 18 13 27 27 15 27 15 27 6z"/>
<path d="M211 164 c-70 -38 -89 -43 -119 -38 -33 7 -35 6 -28 -17 5 -13 10
-36 13 -51 3 -16 7 -28 9 -28 2 0 21 17 42 38 20 20 72 57 115 81 72 41 95 63
65 60 -7 -1 -51 -21 -97 -45z m-91 -68 c0 -3 -4 -8 -10 -11 -5 -3 -10 -1 -10
4 0 6 5 11 10 11 6 0 10 -2 10 -4z"/>
<path d="M924 115 c-8 -19 3 -35 26 -35 19 0 30 17 23 38 -6 17 -42 15 -49 -3z"/>
<path d="M248 3 c139 -2 364 -2 500 0 136 1 22 2 -253 2 -275 0 -386 -1 -247
-2z"/>
</g>
</svg>
