<?xml version="1.0" standalone="no"?>
<!DOCTYPE svg PUBLIC "-//W3C//DTD SVG 20010904//EN"
 "http://www.w3.org/TR/2001/REC-SVG-20010904/DTD/svg10.dtd">
<svg version="1.0" xmlns="http://www.w3.org/2000/svg"
 width="55.000000pt" height="53.000000pt" viewBox="0 0 55.000000 53.000000"
 preserveAspectRatio="xMidYMid meet">
<metadata>
Created by potrace 1.16, written by Peter Selinger 2001-2019
</metadata>
<g transform="translate(0.000000,53.000000) scale(0.100000,-0.100000)"
fill="#000000" stroke="none">
<path d="M170 476 c0 -1 4 -16 9 -32 5 -16 12 -42 16 -58 l6 -28 -58 7 c-32 3
-68 9 -81 12 -20 5 -22 2 -22 -36 0 -40 7 -49 26 -32 10 9 93 31 118 31 12 0
16 -11 16 -41 l0 -40 -57 7 c-101 13 -98 14 -101 -33 -2 -24 -2 -43 0 -43 2 0
28 9 58 20 30 11 65 20 77 20 22 0 23 -4 23 -75 0 -43 4 -75 10 -75 6 0 10 32
10 75 l0 75 120 0 c100 0 120 3 120 15 0 13 -20 15 -120 15 l-120 0 0 41 0 40
78 -1 c144 -3 192 0 192 10 0 6 -50 10 -131 10 l-131 0 6 28 c4 15 16 39 26
54 11 15 20 30 20 33 0 3 -25 5 -55 5 -30 0 -55 -2 -55 -4z m63 -33 c-11 -33
-16 -37 -23 -17 -9 23 -4 34 15 34 9 0 12 -6 8 -17z m-143 -97 c0 -2 -7 -6
-15 -10 -8 -3 -15 -1 -15 4 0 6 7 10 15 10 8 0 15 -2 15 -4z m20 -106 c-20
-13 -50 -13 -50 0 0 6 15 10 33 10 24 0 28 -3 17 -10z"/>
</g>
</svg>
