<?xml version="1.0" standalone="no"?>
<!DOCTYPE svg PUBLIC "-//W3C//DTD SVG 20010904//EN"
 "http://www.w3.org/TR/2001/REC-SVG-20010904/DTD/svg10.dtd">
<svg version="1.0" xmlns="http://www.w3.org/2000/svg"
 width="133.000000pt" height="133.000000pt" viewBox="0 0 133.000000 133.000000"
 preserveAspectRatio="xMidYMid meet">
<metadata>
Created by potrace 1.16, written by Peter Selinger 2001-2019
</metadata>
<g transform="translate(0.000000,133.000000) scale(0.100000,-0.100000)"
fill="#000000" stroke="none">
<path d="M443 1246 c-4 -7 -18 -18 -31 -25 -21 -11 -22 -16 -16 -80 4 -37 3
-133 -1 -214 -6 -119 -10 -145 -21 -140 -10 4 -14 -3 -14 -26 0 -33 9 -37 41
-21 10 6 50 12 87 13 l67 2 6 76 c4 42 12 99 19 127 14 60 14 60 185 92 61 11
165 34 233 51 68 16 133 29 144 27 12 -2 23 2 25 9 5 15 -56 27 -312 58 -116
14 -250 35 -300 45 -106 24 -102 23 -112 6z m215 -47 c53 -5 138 -17 187 -24
50 -8 116 -17 148 -21 31 -3 57 -9 57 -13 0 -7 -261 -62 -292 -61 -10 0 -18
-5 -18 -12 0 -9 -3 -9 -12 0 -9 9 -15 9 -26 0 -10 -9 -16 -8 -22 3 -7 11 -12
11 -22 1 -9 -9 -9 -12 2 -13 19 -1 -19 -17 -40 -18 -11 0 -10 3 4 14 19 14 19
15 -7 15 -17 0 -27 -5 -27 -14 0 -8 -14 -17 -31 -21 -43 -10 -139 3 -139 19 0
16 19 127 25 144 5 15 82 16 213 1z m-120 -287 c1 -56 -1 -110 -6 -119 -11
-19 -79 -28 -101 -14 -24 15 6 41 48 42 40 1 34 4 -21 14 -24 4 -38 11 -38 21
0 8 17 23 38 32 l37 17 -37 3 c-58 5 -46 42 13 42 10 0 19 5 19 10 0 6 -16 10
-35 10 -28 0 -35 4 -35 19 0 21 28 30 85 27 l30 -1 3 -103z"/>
<path d="M326 1158 c-14 -8 -15 -12 -6 -18 8 -5 14 -39 16 -95 3 -77 2 -86
-14 -83 -14 3 -17 17 -20 91 -3 98 -4 98 -77 71 -22 -8 -68 -17 -103 -21 l-64
-6 8 -36 c4 -20 6 -45 6 -57 -1 -19 5 -22 71 -27 39 -3 108 -17 152 -30 82
-25 101 -26 72 -4 -13 10 -17 33 -19 119 -3 101 -4 106 -22 96z m-40 -186
c-15 -14 -34 27 -38 80 -4 46 -2 58 11 60 13 3 18 -11 25 -65 4 -38 5 -71 2
-75z m-53 66 c3 -36 1 -48 -9 -48 -10 0 -14 14 -14 48 0 27 3 52 7 56 9 9 10
5 16 -56z m-33 1 c0 -16 -4 -29 -10 -29 -5 0 -10 16 -10 36 0 21 4 33 10 29 6
-3 10 -19 10 -36z m-38 6 c7 -32 -2 -37 -27 -19 -19 14 -19 14 1 29 10 8 20
15 20 15 1 0 4 -11 6 -25z"/>
<path d="M1091 916 c-15 -17 -4 -66 14 -66 8 0 16 13 20 30 10 45 -10 66 -34
36z"/>
<path d="M462 643 c-6 -3 -9 -9 -6 -14 3 -6 -8 -15 -25 -22 -28 -10 -31 -16
-31 -52 l0 -40 -87 -22 c-49 -12 -116 -28 -150 -35 -58 -11 -78 -27 -53 -43 5
-3 7 -20 3 -37 -5 -27 -4 -30 11 -25 10 4 35 4 56 1 l39 -6 -4 -50 c-4 -63 17
-61 26 3 l6 44 1 -42 c2 -43 22 -72 22 -31 0 34 11 68 21 68 5 0 9 -17 9 -39
0 -30 4 -40 20 -44 15 -4 20 0 21 16 1 18 2 19 6 4 7 -26 27 -15 31 17 4 33
27 29 28 -5 2 -55 -12 -164 -21 -163 -6 1 -27 5 -47 8 l-38 7 0 -41 c0 -37 2
-40 23 -36 12 3 54 12 94 21 40 8 90 15 111 15 42 0 73 22 51 36 -18 11 5 213
30 253 14 22 351 95 564 122 74 10 87 14 87 30 0 17 -8 19 -68 19 -38 0 -140
9 -228 19 -87 11 -190 22 -229 26 -96 8 -216 26 -240 35 -11 4 -26 5 -33 3z
m266 -63 c37 -5 137 -17 222 -26 101 -11 148 -20 135 -25 -54 -22 -320 -60
-476 -69 -4 0 -10 -12 -13 -26 -5 -20 -12 -25 -27 -21 -16 4 -19 1 -17 -16 2
-12 -1 -21 -7 -20 -5 0 -30 3 -55 4 -39 3 -45 1 -45 -16 0 -14 6 -19 20 -18
98 9 90 12 90 -32 0 -40 0 -40 -42 -43 -26 -2 -43 1 -43 7 0 6 13 11 29 11 17
0 33 5 36 11 10 15 6 17 -44 20 l-44 4 0 -70 c-1 -76 -4 -74 65 -60 l37 7 -1
-41 0 -41 -64 0 -64 0 1 33 c2 121 19 331 30 380 l14 57 98 0 c54 0 128 -4
165 -10z m-288 -19 c0 -11 -4 -23 -10 -26 -6 -4 -10 5 -10 19 0 14 5 26 10 26
6 0 10 -9 10 -19z m-34 -218 c-10 -26 -27 -1 -24 35 2 22 -2 37 -10 40 -8 2
-12 -10 -13 -40 0 -33 -2 -38 -9 -23 -4 11 -6 30 -3 41 4 18 0 22 -21 22 -22
0 -26 -5 -26 -29 0 -16 -4 -29 -10 -29 -5 0 -10 11 -10 24 0 24 -19 47 -21 27
-3 -26 -4 -30 -11 -37 -5 -4 -8 7 -8 25 0 19 -4 30 -10 26 -6 -3 -10 -15 -10
-26 0 -10 -2 -19 -5 -19 -11 0 -55 24 -55 30 0 13 49 33 147 60 l98 28 3 -71
c2 -38 1 -76 -2 -84z m251 91 c-3 -3 -12 -4 -19 -1 -8 3 -5 6 6 6 11 1 17 -2
13 -5z m-330 -156 c-3 -8 -6 -5 -6 6 -1 11 2 17 5 13 3 -3 4 -12 1 -19z m223
-43 c0 -11 -11 -15 -47 -14 l-48 1 40 13 c53 18 55 18 55 0z m-190 -135 c-19
-13 -30 -13 -30 0 0 6 10 10 23 10 18 0 19 -2 7 -10z"/>
<path d="M360 240 c0 -5 5 -10 11 -10 5 0 7 5 4 10 -3 6 -8 10 -11 10 -2 0 -4
-4 -4 -10z"/>
<path d="M1077 214 c-13 -13 -7 -55 9 -61 24 -9 51 23 38 45 -12 19 -36 27
-47 16z"/>
</g>
</svg>
