<?xml version="1.0" standalone="no"?>
<!DOCTYPE svg PUBLIC "-//W3C//DTD SVG 20010904//EN"
 "http://www.w3.org/TR/2001/REC-SVG-20010904/DTD/svg10.dtd">
<svg version="1.0" xmlns="http://www.w3.org/2000/svg"
 width="142.000000pt" height="175.000000pt" viewBox="0 0 142.000000 175.000000"
 preserveAspectRatio="xMidYMid meet">
<metadata>
Created by potrace 1.16, written by Peter Selinger 2001-2019
</metadata>
<g transform="translate(0.000000,175.000000) scale(0.100000,-0.100000)"
fill="#000000" stroke="none">
<path d="M530 1659 c-7 -13 -19 -19 -33 -17 -20 3 -22 -1 -19 -38 l3 -41 -128
-46 c-70 -25 -147 -51 -171 -58 -42 -12 -52 -28 -33 -58 7 -11 18 -7 56 19 53
36 262 123 276 114 12 -7 12 -211 -1 -219 -6 -3 -30 -3 -54 0 -34 6 -46 12
-50 29 -8 31 -46 30 -46 -1 0 -13 -4 -23 -10 -23 -5 0 -10 11 -10 24 0 14 -4
28 -10 31 -6 4 -10 -5 -10 -19 0 -30 -4 -31 -60 -11 -42 15 -44 14 -67 -7 -13
-12 -23 -25 -23 -30 0 -4 34 -8 75 -8 73 0 75 -1 75 -25 0 -14 5 -25 10 -25 6
0 10 11 10 25 0 14 5 25 10 25 6 0 10 -20 10 -45 0 -60 20 -58 22 3 1 40 2 42
5 12 6 -52 23 -62 23 -14 l0 41 48 -5 c26 -2 49 -6 52 -9 6 -6 1 -222 -6 -246
-4 -12 -14 -17 -31 -15 -21 2 -26 -2 -28 -23 -6 -47 5 -50 84 -23 41 14 98 28
128 31 l53 6 0 111 c0 61 5 148 11 193 l12 81 36 11 c20 5 73 21 119 35 45 14
115 30 155 36 164 23 212 34 215 53 3 12 -3 17 -21 17 -13 0 -91 14 -173 31
-82 17 -171 35 -199 39 -77 13 -204 40 -232 51 -38 14 -61 11 -73 -12z m70
-15 c0 -2 -12 -4 -26 -4 -14 0 -23 4 -20 9 6 8 46 4 46 -5z m-93 -46 c-3 -8
-6 -5 -6 6 -1 11 2 17 5 13 3 -3 4 -12 1 -19z m293 2 c30 -6 78 -16 105 -21
28 -5 93 -18 145 -28 l95 -18 -40 -11 c-43 -12 -279 -56 -357 -67 -39 -5 -48
-10 -48 -26 0 -14 -7 -19 -25 -19 -19 0 -25 -5 -25 -21 0 -19 -5 -20 -62 -18
-57 2 -63 1 -63 -17 0 -10 5 -18 10 -17 6 0 36 4 68 8 53 7 57 6 57 -14 0 -25
-34 -36 -91 -28 -36 5 -39 3 -39 -20 0 -20 4 -24 18 -18 22 9 83 24 100 25 6
0 12 -9 12 -20 0 -21 -8 -23 -87 -21 -42 1 -63 -13 -46 -30 6 -6 29 -5 62 2
65 14 76 6 66 -50 l-7 -41 -59 0 c-53 0 -59 -2 -59 -21 0 -18 4 -20 28 -14 15
4 42 11 60 15 l32 8 0 -44 0 -44 -76 0 -75 0 6 203 c6 207 11 296 22 356 l6
34 106 -6 c58 -3 131 -11 161 -17z m-620 -170 c0 -5 -5 -10 -11 -10 -5 0 -7 5
-4 10 3 6 8 10 11 10 2 0 4 -4 4 -10z m290 -440 c-19 -13 -30 -13 -30 0 0 6
10 10 23 10 18 0 19 -2 7 -10z"/>
<path d="M530 1180 c0 -21 3 -22 42 -16 63 10 82 25 31 26 -23 0 -48 3 -57 6
-12 4 -16 0 -16 -16z"/>
<path d="M178 1223 c-28 -4 -38 -29 -19 -48 5 -6 11 -23 13 -38 4 -32 22 -40
26 -11 11 76 32 83 32 9 0 -38 -3 -44 -27 -50 -37 -9 -44 -24 -27 -56 8 -16
17 -51 22 -79 10 -70 28 -59 24 15 -1 33 2 67 7 75 8 11 11 0 11 -42 0 -31 5
-60 10 -63 6 -3 10 -3 11 2 3 37 10 65 23 97 21 51 20 58 -6 54 -21 -3 -23 1
-20 31 2 19 8 45 13 58 20 53 5 61 -93 46z m75 -33 c-3 -11 -7 -20 -8 -20 -1
0 -5 9 -8 20 -3 12 0 20 8 20 8 0 11 -8 8 -20z m-53 -5 c0 -8 -4 -15 -10 -15
-5 0 -10 7 -10 15 0 8 5 15 10 15 6 0 10 -7 10 -15z m10 -137 c0 -16 -3 -19
-11 -11 -6 6 -8 16 -5 22 11 17 16 13 16 -11z m60 7 c0 -8 -4 -15 -10 -15 -5
0 -10 7 -10 15 0 8 5 15 10 15 6 0 10 -7 10 -15z"/>
<path d="M1270 1045 c-10 -12 -10 -19 -2 -27 7 -7 12 -22 12 -35 0 -30 18 -29
32 2 8 19 8 31 0 50 -13 29 -24 31 -42 10z"/>
<path d="M537 657 c-21 -22 -31 -27 -37 -17 -8 13 -42 5 -115 -26 -75 -32
-195 -66 -253 -71 l-64 -6 6 -32 c5 -22 2 -36 -9 -45 -32 -27 -17 -38 60 -45
71 -7 80 -12 76 -42 -1 -6 3 -14 9 -18 6 -4 10 4 10 19 0 32 18 34 29 4 8 -21
8 -21 16 3 l8 24 4 -27 c5 -34 20 -37 26 -5 l4 22 2 -23 c1 -25 26 -26 26 -1
1 15 8 16 73 5 32 -5 42 -3 42 7 0 10 -18 16 -52 20 -67 8 -73 15 -59 71 6 25
11 47 11 49 0 2 -33 2 -72 0 l-73 -3 50 19 c132 51 220 80 225 75 8 -8 13
-420 6 -450 -6 -21 -12 -25 -39 -22 -29 3 -32 0 -35 -26 -3 -26 -1 -28 20 -21
13 4 79 9 147 11 l125 3 -3 55 -2 56 45 0 c32 0 46 4 46 14 0 10 -11 12 -45 8
-30 -3 -45 -1 -45 7 0 6 17 11 40 11 54 0 51 20 -2 21 -30 2 -35 3 -15 6 33 5
36 23 3 23 -20 0 -22 4 -18 26 3 16 9 23 18 20 8 -3 14 1 14 9 0 18 18 23 125
30 50 3 115 8 145 10 30 2 119 7 198 11 106 5 142 10 142 20 0 12 -27 25 -60
29 -8 1 -22 4 -30 7 -30 11 -235 69 -400 113 -58 16 -143 44 -190 62 -47 19
-89 36 -95 37 -5 2 -23 -10 -38 -27z m93 -23 c0 -2 -16 -3 -35 -1 -34 2 -41 7
-29 20 6 5 64 -11 64 -19z m-3 -24 c74 -8 248 -53 393 -100 30 -10 88 -26 127
-35 40 -10 71 -21 68 -25 -2 -4 -62 -10 -132 -14 -70 -5 -144 -10 -163 -11
-30 -3 -126 6 -170 17 -9 2 -16 -6 -18 -21 -3 -18 -6 -21 -12 -11 -7 11 -14
12 -35 2 -14 -7 -23 -17 -20 -22 4 -6 -13 -10 -44 -10 l-49 0 -4 -62 c-2 -35
-1 -74 3 -88 6 -26 10 -27 72 -17 l37 6 0 -38 c0 -46 -11 -50 -109 -43 l-64 5
5 227 c3 124 8 232 12 238 9 14 1 14 103 2z m-502 -100 c-3 -5 -10 -10 -16
-10 -5 0 -9 5 -9 10 0 6 7 10 16 10 8 0 12 -4 9 -10z m69 -16 c3 -9 6 -27 6
-41 0 -20 -4 -24 -17 -18 -10 4 -30 12 -45 17 -37 13 -35 26 5 43 41 18 44 18
51 -1z m56 -39 c0 -26 -15 -41 -25 -26 -8 14 5 62 16 55 5 -3 9 -16 9 -29z
m30 -1 c0 -19 -4 -33 -8 -30 -8 5 -4 66 4 66 2 0 4 -16 4 -36z m27 -21 c-3
-10 -5 -4 -5 12 0 17 2 24 5 18 2 -7 2 -21 0 -30z m363 -92 c0 -4 -11 -6 -25
-3 -14 2 -25 6 -25 8 0 2 11 4 25 4 14 0 25 -4 25 -9z m10 -25 c0 -3 -4 -8
-10 -11 -5 -3 -10 -1 -10 4 0 6 5 11 10 11 6 0 10 -2 10 -4z m-33 -12 c-3 -3
-12 -4 -19 -1 -8 3 -5 6 6 6 11 1 17 -2 13 -5z m20 -20 c-3 -3 -12 -4 -19 -1
-8 3 -5 6 6 6 11 1 17 -2 13 -5z m3 -34 c0 -5 -12 -10 -26 -10 -14 0 -23 4
-19 10 3 6 15 10 26 10 10 0 19 -4 19 -10z"/>
<path d="M153 313 c-26 -5 -27 -8 -12 -51 9 -25 7 -38 -5 -63 -10 -21 -13 -36
-7 -43 6 -7 11 -36 13 -66 2 -35 8 -55 17 -58 11 -4 13 2 8 27 -4 17 -2 55 4
83 8 34 8 53 2 55 -12 4 0 80 15 95 8 8 14 4 22 -16 13 -34 13 -96 1 -96 -13
0 -5 -134 8 -138 7 -2 11 15 11 43 0 25 7 59 15 75 9 17 11 30 5 30 -14 0 -13
63 2 95 14 32 5 41 -27 27 -15 -7 -27 -8 -30 -2 -4 6 -9 9 -13 9 -4 -1 -17 -4
-29 -6z"/>
<path d="M1306 115 c-9 -24 11 -55 35 -55 30 0 23 64 -7 68 -13 2 -24 -4 -28
-13z"/>
</g>
</svg>
