<?xml version="1.0" standalone="no"?>
<!DOCTYPE svg PUBLIC "-//W3C//DTD SVG 20010904//EN"
 "http://www.w3.org/TR/2001/REC-SVG-20010904/DTD/svg10.dtd">
<svg version="1.0" xmlns="http://www.w3.org/2000/svg"
 width="95.000000pt" height="213.000000pt" viewBox="0 0 95.000000 213.000000"
 preserveAspectRatio="xMidYMid meet">
<metadata>
Created by potrace 1.16, written by Peter Selinger 2001-2019
</metadata>
<g transform="translate(0.000000,213.000000) scale(0.100000,-0.100000)"
fill="#000000" stroke="none">
<path d="M703 2070 c-4 -15 -21 -17 -191 -14 -103 1 -196 4 -207 6 -17 2 -21
-3 -23 -34 -2 -21 -2 -38 0 -38 2 0 38 7 81 15 42 8 140 18 216 21 l138 7 8
-39 c9 -53 18 -351 11 -380 -6 -24 -9 -24 -126 -24 -105 0 -147 -8 -122 -24 4
-2 66 -1 137 2 l130 7 7 230 c4 127 9 241 10 255 3 21 -1 24 -31 26 -24 1 -35
-3 -38 -16z m47 -42 c0 -36 -4 -35 -14 5 -4 16 -2 27 4 27 5 0 10 -14 10 -32z
m-405 2 c17 -7 14 -9 -13 -9 -20 -1 -31 3 -27 9 7 12 13 12 40 0z"/>
<path d="M590 1936 l0 -25 -140 5 -140 6 0 -101 0 -100 58 -3 57 -3 -1 -32
c-1 -22 3 -33 12 -33 9 0 14 12 14 36 l0 37 68 -7 c40 -4 71 -13 78 -21 6 -8
13 -13 15 -10 9 9 -1 270 -11 273 -5 2 -10 -8 -10 -22z m0 -81 l0 -35 -70 0
c-56 0 -70 3 -70 15 0 8 -4 15 -10 15 -5 0 -10 -7 -10 -16 0 -24 -94 -16 -98
9 -9 44 1 47 133 47 l125 0 0 -35z m-160 -84 c0 -24 -5 -29 -27 -32 -55 -8
-73 0 -73 32 0 28 1 29 50 29 48 0 50 -1 50 -29z m160 -3 l0 -33 -70 3 c-70 4
-70 4 -70 33 l0 29 70 0 70 0 0 -32z"/>
<path d="M846 1602 c-8 -13 5 -82 16 -82 13 0 29 50 23 71 -6 19 -30 26 -39
11z"/>
<path d="M529 1380 c-2 -7 3 -55 5 -57 1 -1 29 4 61 12 69 16 161 19 170 6 8
-14 9 -214 0 -323 l-7 -98 -62 1 c-65 1 -151 12 -177 23 -13 6 -19 -2 -28 -40
-7 -25 -10 -48 -7 -51 2 -2 35 5 73 16 78 23 115 29 187 30 41 1 47 4 42 18
-10 25 12 298 30 381 9 40 15 74 13 76 -6 6 -299 12 -300 6z m268 -57 c-3 -10
-5 -4 -5 12 0 17 2 24 5 18 2 -7 2 -21 0 -30z m-220 -420 c-6 -5 -67 -22 -67
-18 0 21 15 31 41 27 16 -2 28 -6 26 -9z"/>
<path d="M105 1250 c-12 -24 -21 -30 -36 -25 -14 5 -19 2 -19 -12 0 -11 5 -24
11 -30 6 -6 14 -44 17 -83 2 -39 9 -73 13 -76 5 -3 9 0 9 5 0 6 12 11 26 11
14 0 23 -4 19 -9 -3 -5 -1 -12 5 -16 6 -3 13 1 16 10 6 15 29 16 218 13 l210
-3 3 40 c4 50 40 172 53 180 6 4 8 10 5 15 -3 5 -26 0 -51 -12 -33 -14 -58
-18 -88 -14 -22 3 -97 6 -166 7 -69 1 -132 6 -140 9 -8 4 -32 10 -52 14 -34 6
-38 4 -53 -24z m65 -10 c11 -7 7 -10 -18 -10 -20 0 -31 4 -27 10 8 13 26 13
45 0z m431 -41 l-10 -24 0 26 c-1 14 2 29 6 33 12 12 14 -9 4 -35z m-33 -11
l3 -27 -195 -1 c-108 0 -196 3 -196 5 0 3 7 17 16 31 l17 24 176 -2 176 -3 3
-27z m-418 -9 c0 -12 -7 -19 -19 -19 -27 0 -34 15 -15 34 19 19 34 12 34 -15z
m0 -74 c0 -31 -3 -35 -25 -35 -22 0 -25 4 -25 35 0 31 3 35 25 35 22 0 25 -4
25 -35z m426 24 c3 -6 3 -25 0 -42 l-6 -32 -192 3 c-106 2 -196 7 -201 11 -4
4 -4 21 -1 39 l6 32 194 -1 c120 0 196 -4 200 -10z"/>
<path d="M847 953 c-8 -15 0 -67 10 -70 13 -5 37 52 28 66 -7 13 -32 15 -38 4z"/>
<path d="M730 651 c0 -14 -21 -16 -177 -13 -98 1 -199 6 -225 11 -26 4 -50 6
-53 3 -3 -3 -5 -23 -5 -45 0 -38 1 -39 28 -33 94 21 231 36 329 36 l113 0 0
-245 0 -245 -82 0 -81 0 6 177 c3 98 10 190 16 205 12 33 7 37 -42 30 -31 -3
-37 -8 -31 -21 4 -9 9 -27 11 -41 4 -24 2 -26 -34 -23 -21 1 -102 4 -180 6
-137 3 -142 3 -145 -17 -2 -14 -11 -21 -25 -21 -12 0 -25 -3 -28 -7 -3 -3 1
-36 10 -72 8 -37 15 -105 15 -151 0 -46 4 -86 9 -90 16 -9 17 5 11 118 -5 99
-4 108 14 113 10 4 22 0 27 -7 15 -24 10 -51 -11 -56 -11 -3 -20 -9 -20 -14 0
-5 9 -9 20 -9 17 0 20 -7 20 -45 0 -25 5 -45 10 -45 6 0 10 20 10 44 l0 44 62
6 c35 3 103 8 153 11 49 4 92 8 94 11 14 14 -25 16 -159 8 l-150 -9 0 32 c0
31 0 31 62 37 35 3 107 7 161 8 l97 3 0 -113 c0 -125 6 -115 -60 -96 -14 4
-22 0 -27 -13 -3 -10 -13 -26 -20 -35 -19 -21 -8 -41 15 -29 26 14 153 31 229
31 l68 0 -3 102 c-3 89 17 350 34 443 5 29 4 30 -30 31 -26 0 -36 -4 -36 -15z
m37 -73 c-2 -13 -4 -3 -4 22 0 25 2 35 4 23 2 -13 2 -33 0 -45z m-417 32 c-20
-13 -50 -13 -50 0 0 6 15 10 33 10 24 0 28 -3 17 -10z m221 -131 c-9 -23 -10
-22 -10 11 -1 23 2 31 9 24 7 -7 7 -19 1 -35z m-356 -49 c3 -5 1 -10 -4 -10
-6 0 -11 5 -11 10 0 6 2 10 4 10 3 0 8 -4 11 -10z m337 -29 c4 -28 2 -30 -36
-35 -23 -3 -90 -6 -151 -7 l-110 -1 3 23 c2 13 6 26 8 28 2 2 57 7 121 11 65
4 128 8 139 8 17 2 23 -5 26 -27z m-342 -26 c0 -16 -6 -25 -15 -25 -16 0 -19
9 -9 34 9 25 24 19 24 -9z m-53 -17 c-3 -7 -5 -2 -5 12 0 14 2 19 5 13 2 -7 2
-19 0 -25z m80 10 c-3 -8 -6 -5 -6 6 -1 11 2 17 5 13 3 -3 4 -12 1 -19z m283
-262 c0 -2 -7 -6 -15 -10 -8 -3 -15 -1 -15 4 0 6 7 10 15 10 8 0 15 -2 15 -4z"/>
<path d="M863 143 c-7 -2 -13 -14 -13 -25 0 -14 6 -19 23 -16 14 2 22 10 22
22 0 21 -12 28 -32 19z"/>
<path d="M850 81 c0 -6 5 -13 10 -16 6 -3 10 1 10 9 0 9 -4 16 -10 16 -5 0
-10 -4 -10 -9z"/>
</g>
</svg>
