<?xml version="1.0" standalone="no"?>
<!DOCTYPE svg PUBLIC "-//W3C//DTD SVG 20010904//EN"
 "http://www.w3.org/TR/2001/REC-SVG-20010904/DTD/svg10.dtd">
<svg version="1.0" xmlns="http://www.w3.org/2000/svg"
 width="112.000000pt" height="58.000000pt" viewBox="0 0 112.000000 58.000000"
 preserveAspectRatio="xMidYMid meet">
<metadata>
Created by potrace 1.16, written by Peter Selinger 2001-2019
</metadata>
<g transform="translate(0.000000,58.000000) scale(0.100000,-0.100000)"
fill="#000000" stroke="none">
<path d="M400 562 c-56 -5 -62 -9 -50 -32 9 -17 6 -22 -22 -36 -18 -9 -56 -34
-85 -55 -54 -40 -167 -99 -190 -99 -16 0 -16 0 4 -40 15 -31 15 -36 0 -63 -10
-16 -15 -32 -12 -36 2 -5 33 -11 67 -14 86 -8 262 -85 266 -116 2 -12 9 -20
15 -18 7 2 12 37 14 87 2 46 5 85 6 86 1 1 129 5 284 9 l282 7 3 -49 c5 -85
23 -42 24 58 0 86 3 101 28 143 15 25 24 51 21 56 -3 6 -29 10 -56 10 -48 0
-49 -1 -43 -25 l6 -25 -118 -2 c-66 0 -189 -2 -274 -2 l-155 -1 2 36 c1 20 9
55 16 78 8 22 12 42 8 44 -3 1 -22 1 -41 -1z m10 -46 c0 -14 -4 -28 -10 -31
-5 -3 -10 -3 -10 2 0 4 -3 18 -6 31 -5 16 -2 22 10 22 10 0 16 -9 16 -24z
m-28 -62 c8 -26 1 -334 -8 -334 -2 0 -19 8 -39 17 -27 13 -35 23 -35 44 0 33
15 45 36 28 27 -22 27 0 0 35 -27 36 -39 113 -14 88 7 -7 16 -12 20 -12 13 0
9 17 -8 34 -9 10 -13 24 -9 36 10 31 -11 24 -75 -25 l-57 -46 4 -59 c3 -38 1
-60 -5 -60 -26 0 -62 21 -78 45 -16 24 -15 27 9 64 14 21 51 55 82 77 31 21
78 53 103 71 26 18 51 31 56 29 6 -1 14 -16 18 -32z m634 -40 c-3 -9 -6 -20
-6 -25 0 -6 -4 -7 -10 -4 -16 10 -12 45 6 45 11 0 14 -5 10 -16z m-44 -36 c4
-7 8 -37 8 -65 l0 -53 -157 0 c-87 0 -215 -3 -285 -7 l-128 -6 0 66 0 67 188
2 c103 2 227 4 276 6 64 2 92 -1 98 -10z m-679 -75 c2 -35 2 -63 -1 -63 -7 0
-62 59 -62 67 0 8 52 64 56 60 1 -1 4 -30 7 -64z m-183 23 c0 -2 -7 -9 -15
-16 -12 -10 -15 -10 -15 4 0 9 7 16 15 16 8 0 15 -2 15 -4z m170 -138 c0 -28
0 -28 -30 -13 -26 13 -30 21 -30 57 l0 42 30 -29 c20 -19 30 -39 30 -57z"/>
</g>
</svg>
