<?xml version="1.0" standalone="no"?>
<!DOCTYPE svg PUBLIC "-//W3C//DTD SVG 20010904//EN"
 "http://www.w3.org/TR/2001/REC-SVG-20010904/DTD/svg10.dtd">
<svg version="1.0" xmlns="http://www.w3.org/2000/svg"
 width="151.000000pt" height="73.000000pt" viewBox="0 0 151.000000 73.000000"
 preserveAspectRatio="xMidYMid meet">
<metadata>
Created by potrace 1.16, written by Peter Selinger 2001-2019
</metadata>
<g transform="translate(0.000000,73.000000) scale(0.100000,-0.100000)"
fill="#000000" stroke="none">
<path d="M52 723 c32 -2 84 -2 115 0 32 2 6 3 -57 3 -63 0 -89 -1 -58 -3z"/>
<path d="M253 723 c15 -2 37 -2 50 0 12 2 0 4 -28 4 -27 0 -38 -2 -22 -4z"/>
<path d="M368 723 c18 -2 45 -2 60 0 15 2 0 4 -33 4 -33 0 -45 -2 -27 -4z"/>
<path d="M498 723 c17 -2 47 -2 65 0 17 2 3 4 -33 4 -36 0 -50 -2 -32 -4z"/>
<path d="M648 723 c23 -2 61 -2 85 0 23 2 4 4 -43 4 -47 0 -66 -2 -42 -4z"/>
<path d="M793 723 c9 -2 25 -2 35 0 9 3 1 5 -18 5 -19 0 -27 -2 -17 -5z"/>
<path d="M140 665 c-21 -22 -22 -29 -12 -45 7 -11 12 -28 12 -39 0 -17 -6 -19
-42 -16 -44 4 -67 -12 -68 -47 0 -26 29 -22 40 5 5 12 9 16 9 9 1 -10 9 -12
30 -7 25 5 29 3 35 -19 9 -35 28 -33 24 1 -5 42 26 42 43 1 l13 -33 3 31 4 31
127 6 c70 4 136 9 147 12 32 10 55 -76 55 -201 l0 -99 -35 55 c-19 30 -49 83
-66 118 -18 34 -35 62 -39 62 -3 0 -17 -12 -31 -26 l-24 -26 25 -16 c42 -28
83 -75 128 -150 24 -40 48 -72 53 -72 5 0 9 48 9 108 1 112 12 233 26 266 7
18 3 19 -62 13 -38 -4 -125 -10 -193 -13 l-124 -7 6 61 c4 47 2 62 -8 62 -25
0 -35 -26 -29 -72 5 -36 3 -46 -10 -51 -24 -9 -29 14 -16 63 15 54 2 69 -30
35z m427 -127 c-3 -8 -6 -5 -6 6 -1 11 2 17 5 13 3 -3 4 -12 1 -19z"/>
<path d="M1409 652 l-37 -14 5 -59 6 -59 -157 0 c-148 0 -156 1 -156 19 0 11
5 23 10 26 12 7 14 45 2 45 -22 0 -49 -40 -45 -64 4 -21 2 -26 -16 -26 -24 0
-26 10 -9 57 6 18 10 35 7 37 -7 7 -79 -16 -79 -24 0 -4 7 -13 15 -20 8 -7 15
-20 15 -29 0 -15 -8 -16 -62 -10 -35 4 -65 6 -68 4 -9 -5 1 -85 11 -85 4 0 12
6 16 13 10 16 58 37 84 37 19 0 20 -4 14 -51 -5 -40 -4 -50 7 -47 7 3 14 15
16 29 6 55 13 69 32 69 15 0 20 -7 20 -25 0 -14 4 -25 9 -25 5 0 12 11 15 25
6 23 11 25 64 25 l57 0 55 -131 c52 -125 65 -147 76 -136 3 3 15 41 26 84 25
101 98 307 109 311 11 4 12 29 2 35 -5 2 -24 -3 -44 -11z m-49 -165 c0 -9 -51
-190 -55 -195 -3 -3 -85 187 -85 197 0 4 31 7 70 7 38 -1 70 -5 70 -9z"/>
<path d="M677 313 c-9 -19 1 -78 14 -78 18 0 44 48 36 68 -6 17 -42 24 -50 10z"/>
<path d="M1415 260 c-10 -30 7 -45 35 -30 26 14 22 44 -7 48 -15 2 -23 -4 -28
-18z"/>
</g>
</svg>
