<?xml version="1.0" standalone="no"?>
<!DOCTYPE svg PUBLIC "-//W3C//DTD SVG 20010904//EN"
 "http://www.w3.org/TR/2001/REC-SVG-20010904/DTD/svg10.dtd">
<svg version="1.0" xmlns="http://www.w3.org/2000/svg"
 width="133.000000pt" height="151.000000pt" viewBox="0 0 133.000000 151.000000"
 preserveAspectRatio="xMidYMid meet">
<metadata>
Created by potrace 1.16, written by Peter Selinger 2001-2019
</metadata>
<g transform="translate(0.000000,151.000000) scale(0.100000,-0.100000)"
fill="#000000" stroke="none">
<path d="M64 1455 c3 -9 6 -24 6 -32 0 -12 8 -14 35 -10 38 6 40 5 25 -23 -7
-14 -6 -23 8 -36 62 -62 162 -180 162 -191 0 -23 -50 -114 -104 -190 -50 -71
-52 -73 -91 -71 -39 3 -40 2 -40 -31 0 -41 14 -47 53 -27 17 9 86 21 161 28
72 7 131 16 131 20 0 4 -18 8 -40 8 -22 0 -40 3 -40 7 0 4 43 51 96 104 77 77
95 101 90 117 -4 11 -37 62 -75 112 -37 50 -80 113 -94 141 -32 58 -26 64 53
57 28 -3 50 -1 50 3 0 5 -10 9 -22 10 -13 0 -81 2 -153 4 -72 2 -150 7 -174
10 -38 6 -43 5 -37 -10z m226 -33 c0 -4 -5 -13 -12 -20 -9 -9 -2 -20 31 -48
34 -30 96 -102 162 -190 12 -16 -126 -217 -180 -261 -8 -7 -41 -13 -74 -13
l-58 0 21 30 c12 17 56 67 98 111 42 45 78 86 80 93 1 6 -17 34 -40 63 -61 74
-151 220 -143 233 7 12 115 14 115 2z m25 -32 c3 -5 1 -10 -4 -10 -6 0 -11 5
-11 10 0 6 2 10 4 10 3 0 8 -4 11 -10z m-141 -26 c9 -24 7 -28 -9 -14 -17 14
-20 30 -6 30 5 0 12 -7 15 -16z m146 -260 c-18 -21 -24 -10 -9 18 8 14 14 18
17 10 2 -7 -2 -19 -8 -28z"/>
<path d="M911 1432 c-29 -20 -88 -42 -115 -42 -15 0 -17 -5 -13 -30 4 -16 2
-32 -3 -35 -17 -11 -11 -24 19 -40 32 -16 142 -109 153 -129 4 -8 -6 -27 -25
-47 -18 -19 -57 -63 -88 -97 -59 -65 -69 -72 -69 -47 0 20 -15 19 -40 -2 -30
-26 -25 -38 23 -59 47 -20 88 -48 163 -111 60 -51 84 -44 25 7 l-41 35 83 85
c85 88 251 242 268 248 5 2 9 11 9 19 0 11 -7 14 -26 9 -22 -6 -39 6 -128 88
-56 52 -111 111 -121 131 -21 39 -38 42 -74 17z m53 -27 c3 -8 2 -15 -3 -15
-5 0 -14 7 -21 15 -10 12 -10 15 3 15 8 0 17 -7 21 -15z m118 -130 c83 -71
102 -95 75 -95 -8 0 -29 -24 -45 -53 -35 -62 -132 -184 -191 -242 l-41 -39
-40 39 c-22 21 -40 43 -40 48 0 11 153 164 219 220 42 35 44 38 31 62 -18 34
-33 31 -53 -10 -9 -19 -20 -35 -25 -35 -10 0 -104 97 -126 130 -23 35 -20 46
21 74 l36 25 49 -27 c27 -15 85 -58 130 -97z m-52 -79 c0 -8 -7 -16 -15 -20
-13 -4 -14 -2 -5 14 13 23 20 26 20 6z m170 -41 c-7 -9 -31 -30 -53 -47 l-40
-32 24 42 c21 36 33 44 73 51 5 0 3 -6 -4 -14z"/>
<path d="M575 1020 c-4 -6 -2 -17 4 -24 6 -7 9 -21 5 -30 -4 -11 -1 -16 10
-16 17 0 32 41 22 65 -6 17 -32 20 -41 5z"/>
<path d="M1253 980 c1 -46 21 -54 39 -16 14 31 4 56 -21 56 -17 0 -20 -6 -18
-40z"/>
<path d="M470 660 c-8 -5 -46 -22 -85 -36 -91 -34 -100 -43 -84 -78 8 -16 18
-25 26 -21 18 6 106 -35 173 -81 55 -38 60 -40 60 -21 0 6 -21 27 -48 44 -26
18 -65 49 -87 69 l-39 37 29 23 c37 30 40 30 95 -2 25 -15 71 -40 103 -56 31
-16 57 -32 57 -36 -1 -28 -236 -351 -256 -352 -6 0 -32 18 -57 40 -41 36 -48
39 -66 28 -32 -20 -25 -34 26 -53 25 -10 78 -37 117 -61 109 -66 127 -76 134
-69 4 3 -4 14 -16 24 -21 15 -22 19 -9 30 9 7 59 66 112 132 54 66 120 141
147 168 47 44 49 49 37 69 -16 25 -37 29 -45 8 -4 -12 -22 -4 -77 32 -81 52
-188 137 -200 158 -9 16 -26 18 -47 4z m-121 -89 c-13 -11 -26 -17 -29 -14 -6
6 30 33 43 33 5 0 -1 -9 -14 -19z m41 -31 c0 -5 -7 -7 -15 -4 -8 4 -15 8 -15
10 0 2 7 4 15 4 8 0 15 -4 15 -10z m296 -78 c-18 -16 -18 -16 -6 6 6 13 14 21
18 18 3 -4 -2 -14 -12 -24z m79 -22 c10 -16 -47 -102 -152 -233 -52 -64 -97
-117 -99 -117 -10 0 -74 35 -74 40 0 16 148 201 212 267 58 59 75 70 89 62 10
-5 21 -14 24 -19z"/>
<path d="M844 205 c-12 -29 4 -48 34 -40 36 9 36 10 15 34 -21 25 -41 27 -49
6z"/>
<path d="M848 3 c89 -2 235 -2 325 0 89 1 16 3 -163 3 -179 0 -252 -2 -162 -3z"/>
</g>
</svg>
