<?xml version="1.0" standalone="no"?>
<!DOCTYPE svg PUBLIC "-//W3C//DTD SVG 20010904//EN"
 "http://www.w3.org/TR/2001/REC-SVG-20010904/DTD/svg10.dtd">
<svg version="1.0" xmlns="http://www.w3.org/2000/svg"
 width="111.000000pt" height="52.000000pt" viewBox="0 0 111.000000 52.000000"
 preserveAspectRatio="xMidYMid meet">
<metadata>
Created by potrace 1.16, written by Peter Selinger 2001-2019
</metadata>
<g transform="translate(0.000000,52.000000) scale(0.100000,-0.100000)"
fill="#000000" stroke="none">
<path d="M313 452 c4 -21 -2 -27 -47 -47 -28 -12 -85 -33 -126 -46 -41 -13
-76 -24 -78 -25 -2 -1 1 -18 6 -37 8 -30 7 -38 -9 -53 -26 -23 -24 -44 4 -44
12 0 41 -9 64 -20 l42 -19 3 -63 c2 -38 7 -61 13 -58 6 2 8 29 6 59 l-3 54 63
-35 c35 -19 68 -44 74 -56 16 -37 25 -25 25 34 0 31 5 61 13 67 14 14 150 21
412 22 l190 0 3 -37 c6 -67 18 -41 31 65 7 56 18 131 26 167 7 36 11 67 9 69
-3 3 -17 -2 -32 -11 -18 -12 -27 -25 -27 -43 1 -25 0 -25 -90 -26 -49 0 -103
-1 -120 -1 -16 0 -113 0 -214 1 l-184 1 6 37 c4 21 11 39 17 41 5 2 10 10 10
18 0 10 -12 13 -46 12 -42 -2 -45 -4 -41 -26z m42 -11 c3 -5 1 -12 -5 -16 -5
-3 -10 1 -10 9 0 18 6 21 15 7z m-23 -194 c-2 -72 -5 -133 -6 -135 -2 -1 -31
12 -65 30 -66 36 -69 43 -49 109 13 46 8 54 -28 45 -26 -7 -26 -9 -21 -57 l6
-50 -28 23 c-16 13 -34 31 -40 41 -17 27 4 48 92 89 112 54 121 57 132 46 6
-5 9 -62 7 -141z m646 27 l-3 -59 -265 -6 c-146 -3 -284 -4 -307 -1 l-43 5 0
52 c0 41 4 55 18 61 20 10 583 22 595 13 4 -3 7 -33 5 -65z"/>
</g>
</svg>
