<?xml version="1.0" standalone="no"?>
<!DOCTYPE svg PUBLIC "-//W3C//DTD SVG 20010904//EN"
 "http://www.w3.org/TR/2001/REC-SVG-20010904/DTD/svg10.dtd">
<svg version="1.0" xmlns="http://www.w3.org/2000/svg"
 width="72.000000pt" height="57.000000pt" viewBox="0 0 72.000000 57.000000"
 preserveAspectRatio="xMidYMid meet">
<metadata>
Created by potrace 1.16, written by Peter Selinger 2001-2019
</metadata>
<g transform="translate(0.000000,57.000000) scale(0.100000,-0.100000)"
fill="#000000" stroke="none">
<path d="M193 563 c97 -2 257 -2 355 0 97 1 17 2 -178 2 -195 0 -275 -1 -177
-2z"/>
<path d="M134 475 c-3 -14 -18 -31 -33 -38 -22 -11 -26 -18 -24 -52 1 -22 2
-104 3 -182 1 -156 17 -197 22 -55 3 83 4 87 27 90 24 4 24 3 19 -77 -3 -45
-1 -81 4 -81 4 0 9 12 9 28 1 15 3 34 4 42 1 8 3 32 4 53 1 30 5 37 22 37 19
0 20 -4 15 -60 -3 -32 -2 -61 3 -64 5 -3 12 24 16 60 10 93 30 80 30 -19 0
-46 4 -76 10 -74 5 1 10 18 10 37 1 19 2 54 3 78 l2 42 155 0 c101 0 155 4
155 10 0 7 -46 11 -132 10 -192 -1 -178 -3 -178 24 0 23 1 24 133 30 72 3 143
4 156 3 13 -1 26 4 29 11 3 11 -26 12 -158 6 l-162 -7 8 24 c4 13 10 40 13 59
4 21 12 35 21 36 8 1 63 2 123 2 59 1 107 6 107 11 0 5 -46 9 -102 9 -57 0
-141 8 -188 16 -113 21 -119 20 -126 -9z m111 -5 c17 -4 26 -8 20 -9 -5 -1 -3
-6 5 -11 11 -7 12 -12 3 -21 -6 -6 -9 -18 -6 -25 3 -9 -2 -14 -12 -14 -14 0
-16 7 -13 31 l5 31 -49 -4 c-40 -2 -48 0 -48 15 0 19 38 22 95 7z m-95 -66 c0
-21 -4 -24 -20 -19 -15 5 -20 2 -20 -12 0 -39 -17 -43 -18 -4 -2 40 14 64 28
41 5 -8 9 -7 13 4 9 24 17 19 17 -10z m56 6 c0 -11 -6 -22 -13 -24 -8 -4 -13
3 -13 19 0 14 6 25 13 25 7 0 13 -9 13 -20z m-52 -56 c8 -21 8 -21 -14 -27
-14 -4 -20 0 -20 12 0 32 24 42 34 15z m64 -7 c3 -12 -3 -17 -22 -17 -28 0
-29 1 -20 25 8 20 38 15 42 -8z m52 -3 c0 -8 -9 -14 -20 -14 -22 0 -28 26 -7
33 16 6 27 -1 27 -19z m-114 -50 c-3 -9 -6 -20 -6 -25 0 -5 -9 -9 -20 -9 -15
0 -20 7 -20 25 0 20 5 25 26 25 20 0 25 -4 20 -16z m54 -9 c0 -18 -5 -25 -20
-25 -15 0 -20 7 -20 25 0 18 5 25 20 25 15 0 20 -7 20 -25z m50 0 c0 -16 -6
-25 -15 -25 -9 0 -15 9 -15 25 0 16 6 25 15 25 9 0 15 -9 15 -25z"/>
<path d="M570 460 c0 -5 9 -10 20 -10 11 0 23 0 27 -1 4 0 9 4 11 10 2 6 -10
11 -27 11 -17 0 -31 -4 -31 -10z"/>
<path d="M507 393 c-2 -1 -46 -3 -100 -4 -53 -1 -97 -5 -97 -10 0 -11 268 -10
275 1 4 7 -72 20 -78 13z"/>
</g>
</svg>
