<?xml version="1.0" standalone="no"?>
<!DOCTYPE svg PUBLIC "-//W3C//DTD SVG 20010904//EN"
 "http://www.w3.org/TR/2001/REC-SVG-20010904/DTD/svg10.dtd">
<svg version="1.0" xmlns="http://www.w3.org/2000/svg"
 width="140.000000pt" height="150.000000pt" viewBox="0 0 140.000000 150.000000"
 preserveAspectRatio="xMidYMid meet">
<metadata>
Created by potrace 1.16, written by Peter Selinger 2001-2019
</metadata>
<g transform="translate(0.000000,150.000000) scale(0.100000,-0.100000)"
fill="#000000" stroke="none">
<path d="M0 1490 c0 -7 240 -10 700 -10 460 0 700 3 700 10 0 7 -240 10 -700
10 -460 0 -700 -3 -700 -10z"/>
<path d="M1030 1441 c0 -11 -10 -27 -22 -35 -22 -15 -21 -16 50 -90 40 -40 72
-80 72 -87 0 -32 -150 -344 -165 -344 -12 0 -76 106 -132 218 l-44 89 60 96
59 97 -26 28 c-14 15 -29 27 -33 27 -3 0 -9 -22 -13 -49 -13 -98 -35 -150 -81
-194 -25 -23 -45 -45 -45 -48 0 -4 32 -40 71 -80 39 -41 95 -109 126 -151 30
-43 58 -78 61 -78 4 0 22 24 40 54 28 47 135 187 184 240 9 10 14 24 11 30 -4
6 -24 37 -46 69 -34 51 -83 153 -101 210 -7 23 -26 22 -26 -2z m-164 -82 c-17
-25 -20 -19 -10 19 5 15 10 20 16 14 7 -7 5 -18 -6 -33z m188 24 c3 -10 9 -25
12 -33 4 -8 -5 -4 -19 9 -15 13 -24 28 -21 32 8 14 21 10 28 -8z m116 -203
c10 -18 4 -30 -41 -88 -68 -87 -72 -91 -61 -67 24 57 83 175 87 175 2 0 9 -9
15 -20z m-367 -65 c15 -31 27 -59 27 -62 0 -4 -20 15 -44 42 -32 36 -41 53
-34 63 17 20 22 15 51 -43z"/>
<path d="M323 1366 l-31 -34 -28 19 c-37 24 -41 24 -48 -3 -3 -13 -37 -76 -76
-141 -38 -65 -70 -122 -70 -127 0 -5 -5 -10 -11 -12 -5 -2 16 -21 47 -43 77
-53 207 -211 199 -242 -10 -40 9 -24 57 50 26 40 79 112 118 160 42 53 68 93
63 100 -4 7 -28 39 -54 72 -52 68 -74 107 -99 179 -9 27 -21 51 -27 53 -6 2
-24 -12 -40 -31z m55 -43 c13 -39 4 -42 -28 -8 -19 21 -21 27 -10 40 15 19 23
12 38 -32z m-150 -52 c-24 -25 -44 -48 -45 -50 -2 -2 -3 0 -3 5 0 5 14 33 31
62 25 45 33 51 45 41 13 -11 9 -19 -28 -58z m139 -3 c30 -29 68 -70 85 -90 28
-36 29 -40 17 -75 -16 -49 -105 -231 -128 -262 l-18 -23 -50 68 c-28 38 -68
105 -89 149 -22 44 -40 82 -41 84 -1 2 -9 -2 -18 -9 -8 -7 -15 -9 -15 -5 0 8
190 215 197 215 3 0 30 -24 60 -52z m153 -180 c0 -6 -13 -26 -30 -45 -35 -40
-36 -39 -10 22 17 41 40 54 40 23z m-370 -38 c11 -22 18 -40 15 -40 -4 0 -22
12 -41 26 -32 25 -33 28 -17 40 10 7 19 14 20 14 2 0 12 -18 23 -40z"/>
<path d="M330 1079 c0 -104 3 -158 10 -154 6 4 10 68 10 161 0 96 -4 154 -10
154 -6 0 -10 -60 -10 -161z"/>
<path d="M267 1078 c7 -204 26 -222 22 -23 -3 155 -5 175 -20 175 -4 0 -6 -69
-2 -152z"/>
<path d="M978 1282 c-29 -4 -30 -10 -7 -125 5 -26 9 -73 9 -102 0 -30 5 -55
10 -55 6 0 10 26 10 59 0 33 5 94 11 137 6 42 7 80 2 83 -4 4 -20 5 -35 3z
m14 -52 c-2 -16 -6 -30 -8 -30 -2 0 -4 14 -4 30 0 17 4 30 8 30 5 0 7 -13 4
-30z"/>
<path d="M876 1259 c-17 -21 -17 -23 7 -73 14 -28 37 -89 52 -136 34 -114 34
-112 44 -106 4 3 -7 56 -25 117 -18 61 -36 136 -40 165 -3 30 -9 54 -13 54 -4
0 -15 -10 -25 -21z"/>
<path d="M636 982 c-8 -13 5 -82 16 -82 16 0 33 50 22 68 -13 19 -30 26 -38
14z"/>
<path d="M1247 963 c-7 -13 5 -83 14 -83 13 0 36 53 32 73 -4 17 -38 24 -46
10z"/>
<path d="M705 670 c-26 -42 -27 -70 -2 -70 16 0 85 -71 120 -124 25 -37 25
-39 10 -90 -8 -28 -44 -113 -81 -189 l-66 -138 -97 102 c-78 83 -99 112 -112
153 -31 103 -31 99 19 155 26 29 58 58 73 66 84 46 94 73 49 130 l-21 27 -40
-79 c-39 -76 -147 -218 -190 -249 l-22 -15 30 -22 c50 -36 135 -117 225 -213
47 -50 88 -89 93 -87 4 3 34 59 66 126 55 115 62 125 120 166 33 25 61 46 61
49 0 2 -11 13 -24 23 -32 25 -131 192 -152 254 -9 28 -20 54 -24 59 -5 4 -20
-11 -35 -34z m41 -44 l10 -34 -23 15 c-26 17 -25 16 -17 37 9 25 18 19 30 -18z
m-128 -12 c1 -12 -10 -27 -33 -42 l-35 -22 22 45 c23 46 41 54 46 19z m-171
-277 c7 -23 11 -42 10 -43 -1 -2 -17 10 -35 26 -32 28 -33 29 -15 48 22 23 25
21 40 -31z m426 8 c-31 -26 -39 -21 -23 19 8 23 13 25 30 16 20 -11 19 -11 -7
-35z"/>
<path d="M597 462 l-26 -27 34 -69 c19 -38 35 -75 35 -83 0 -31 23 -5 46 52
14 33 33 77 44 98 27 50 25 57 -10 57 -29 0 -30 -2 -29 -42 1 -24 -7 -63 -16
-87 -17 -41 -19 -43 -33 -25 -10 14 -12 38 -9 87 2 37 1 67 -2 67 -4 0 -19
-12 -34 -28z"/>
<path d="M957 164 c-4 -4 -7 -16 -7 -26 0 -14 6 -19 23 -16 14 2 22 10 22 23
0 20 -25 32 -38 19z"/>
</g>
</svg>
