<?xml version="1.0" standalone="no"?>
<!DOCTYPE svg PUBLIC "-//W3C//DTD SVG 20010904//EN"
 "http://www.w3.org/TR/2001/REC-SVG-20010904/DTD/svg10.dtd">
<svg version="1.0" xmlns="http://www.w3.org/2000/svg"
 width="45.000000pt" height="67.000000pt" viewBox="0 0 45.000000 67.000000"
 preserveAspectRatio="xMidYMid meet">
<metadata>
Created by potrace 1.16, written by Peter Selinger 2001-2019
</metadata>
<g transform="translate(0.000000,67.000000) scale(0.100000,-0.100000)"
fill="#000000" stroke="none">
<path d="M187 595 c-14 -30 -22 -35 -50 -35 -50 0 -56 -11 -41 -88 7 -37 13
-103 14 -147 4 -147 12 -224 23 -222 6 1 16 -8 22 -21 5 -12 13 -22 16 -22 3
0 22 24 41 53 20 28 72 90 116 137 44 46 78 89 75 95 -3 5 -23 33 -43 60 -21
28 -61 89 -90 138 -28 48 -55 87 -59 87 -4 0 -15 -16 -24 -35z m67 -69 c29
-50 22 -51 -33 -4 -34 29 -37 38 -19 56 14 14 16 12 52 -52z m-19 -41 c65 -50
145 -127 145 -138 0 -11 -120 -1 -169 13 -32 9 -41 -1 -41 -46 0 -20 4 -24 19
-19 25 8 131 25 156 25 29 0 -42 -70 -134 -132 l-74 -51 6 154 c9 194 16 252
31 241 6 -5 34 -26 61 -47z m-96 23 c0 -13 -4 -41 -8 -63 -8 -37 -9 -38 -10
-9 0 17 -4 46 -7 63 -5 24 -3 31 10 31 10 0 16 -8 15 -22z m86 -178 c3 -5 -3
-10 -14 -10 -12 0 -21 5 -21 10 0 6 6 10 14 10 8 0 18 -4 21 -10z m-17 -190
c-35 -42 -48 -49 -48 -26 0 10 62 62 78 65 2 1 -12 -17 -30 -39z"/>
</g>
</svg>
