<?xml version="1.0" standalone="no"?>
<!DOCTYPE svg PUBLIC "-//W3C//DTD SVG 20010904//EN"
 "http://www.w3.org/TR/2001/REC-SVG-20010904/DTD/svg10.dtd">
<svg version="1.0" xmlns="http://www.w3.org/2000/svg"
 width="68.000000pt" height="67.000000pt" viewBox="0 0 68.000000 67.000000"
 preserveAspectRatio="xMidYMid meet">
<metadata>
Created by potrace 1.16, written by Peter Selinger 2001-2019
</metadata>
<g transform="translate(0.000000,67.000000) scale(0.100000,-0.100000)"
fill="#000000" stroke="none">
<path d="M343 603 c-10 -34 -9 -38 18 -66 31 -31 35 -60 9 -64 -9 -2 -22 13
-33 39 -14 35 -20 40 -28 28 -8 -11 -9 -5 -4 22 8 52 -12 57 -25 6 -11 -39
-10 -43 12 -60 42 -33 48 -39 48 -52 0 -7 -11 -23 -25 -36 -23 -21 -23 -24 -9
-51 17 -34 34 -38 34 -8 0 26 35 84 61 103 20 14 20 14 0 74 -12 34 -21 71
-21 82 0 33 -24 23 -37 -17z m24 -35 c-3 -8 -6 -5 -6 6 -1 11 2 17 5 13 3 -3
4 -12 1 -19z"/>
<path d="M234 599 c-5 -8 -15 -26 -21 -40 -10 -23 -8 -30 18 -60 45 -52 47
-74 10 -109 -36 -35 -37 -41 -13 -57 16 -10 22 -4 50 53 17 35 26 64 22 64
-16 0 -40 56 -48 111 -5 40 -10 49 -18 38z"/>
<path d="M156 560 l-18 -41 31 -31 c39 -40 39 -54 0 -94 -24 -25 -29 -36 -23
-58 8 -34 21 -33 29 3 3 16 19 46 35 67 31 41 37 56 19 52 -14 -4 -40 70 -37
106 4 44 -16 42 -36 -4z"/>
<path d="M81 519 c-15 -44 -14 -48 14 -61 41 -18 43 -48 5 -79 -28 -24 -31
-31 -25 -59 9 -39 23 -35 40 12 6 20 22 48 34 64 l21 27 -20 19 c-11 11 -26
39 -32 64 -7 24 -15 44 -19 44 -4 0 -12 -14 -18 -31z"/>
<path d="M543 543 c-28 -5 -28 -2 -4 -88 11 -39 25 -131 31 -205 7 -74 13
-137 15 -139 14 -14 20 19 14 81 -4 40 -8 137 -8 216 -1 107 -4 142 -13 141
-7 -1 -23 -4 -35 -6z m26 -65 c-1 -37 -2 -39 -9 -18 -12 36 -12 60 0 60 6 0
10 -19 9 -42z"/>
<path d="M463 470 l-21 -9 23 -74 c13 -41 27 -109 31 -151 4 -42 13 -84 21
-93 13 -16 14 -15 9 13 -5 33 -17 200 -20 273 -1 48 -9 55 -43 41z m27 -48 c0
-15 -2 -15 -10 -2 -13 20 -13 33 0 25 6 -3 10 -14 10 -23z"/>
<path d="M362 300 c-17 -27 -15 -50 5 -72 16 -18 16 -21 -15 -49 -37 -35 -36
-31 -17 -69 21 -40 35 -38 35 5 0 25 8 44 25 61 29 29 49 88 23 66 -19 -15
-28 1 -28 49 0 34 -10 37 -28 9z"/>
<path d="M239 274 c-13 -24 -12 -28 14 -48 31 -25 34 -38 12 -56 -12 -10 -15
-10 -15 3 0 8 -7 20 -15 27 -8 7 -17 27 -21 46 -3 19 -10 34 -14 34 -13 0 -31
-52 -25 -71 4 -11 2 -19 -3 -19 -10 0 -32 44 -32 65 0 25 -19 17 -35 -15 -15
-29 -15 -30 15 -49 l31 -19 -27 -21 c-24 -19 -26 -25 -17 -54 l9 -32 23 43
c12 23 26 40 32 36 7 -4 6 -10 -1 -19 -9 -11 -8 -19 4 -36 15 -22 15 -22 32
20 9 22 20 41 24 41 4 0 13 -13 20 -30 16 -39 26 -38 34 3 9 42 40 79 60 71
20 -7 20 3 1 36 -8 14 -14 35 -15 48 0 12 -4 22 -9 22 -16 0 -23 -38 -12 -59
14 -26 14 -31 -2 -31 -16 0 -37 41 -37 70 0 28 -14 25 -31 -6z m-32 -111 c-9
-9 -19 -14 -23 -11 -10 10 6 28 24 28 15 0 15 -1 -1 -17z"/>
</g>
</svg>
