<?xml version="1.0" standalone="no"?>
<!DOCTYPE svg PUBLIC "-//W3C//DTD SVG 20010904//EN"
 "http://www.w3.org/TR/2001/REC-SVG-20010904/DTD/svg10.dtd">
<svg version="1.0" xmlns="http://www.w3.org/2000/svg"
 width="69.000000pt" height="57.000000pt" viewBox="0 0 69.000000 57.000000"
 preserveAspectRatio="xMidYMid meet">
<metadata>
Created by potrace 1.16, written by Peter Selinger 2001-2019
</metadata>
<g transform="translate(0.000000,57.000000) scale(0.100000,-0.100000)"
fill="#000000" stroke="none">
<path d="M379 503 c0 -10 0 -37 1 -60 l2 -43 -43 0 -42 0 6 38 c3 20 8 45 12
55 7 16 3 18 -21 15 -25 -3 -28 -7 -25 -28 2 -14 4 -38 5 -55 1 -27 -2 -30
-31 -33 -37 -4 -39 4 -24 71 11 45 -3 58 -31 29 -16 -16 -18 -23 -9 -40 6 -11
11 -30 11 -42 0 -20 -4 -21 -47 -15 -27 4 -56 9 -66 12 -16 4 -18 0 -15 -29 3
-31 5 -33 38 -30 19 1 47 5 63 8 24 5 27 3 27 -21 0 -26 -1 -26 -48 -20 -26 4
-55 9 -64 12 -16 4 -18 -4 -18 -63 l0 -67 32 6 c18 3 48 9 66 13 30 6 32 5 32
-20 0 -27 0 -27 -67 -25 -60 2 -67 0 -74 -19 -11 -28 -1 -33 47 -22 21 5 51
10 67 10 23 0 27 -4 27 -30 0 -16 5 -30 10 -30 6 0 10 16 10 35 0 33 2 35 35
35 l35 0 0 -50 c0 -27 5 -50 10 -50 6 0 10 23 10 50 l0 50 35 0 35 0 0 -50 c0
-27 5 -50 10 -50 6 0 10 23 10 50 l0 50 39 0 40 0 3 -45 c4 -58 23 -58 22 0
l0 44 55 3 c70 4 66 23 -4 23 -44 0 -50 3 -53 23 -3 21 0 22 57 22 48 0 61 3
61 15 0 12 -13 15 -60 15 -57 0 -60 1 -60 25 0 23 3 25 51 25 31 0 48 4 44 10
-3 6 -26 10 -51 10 -42 0 -44 1 -44 29 0 34 13 41 82 41 35 0 48 4 45 13 -2 6
-8 11 -13 11 -5 -1 -33 -5 -63 -8 l-54 -7 7 33 c3 18 9 45 12 61 6 24 4 27
-20 27 -26 0 -26 0 -19 -60 l6 -60 -38 0 c-41 0 -40 -8 -18 93 4 23 2 27 -16
27 -13 0 -21 -7 -22 -17z m-279 -133 c0 -5 -4 -10 -10 -10 -5 0 -10 5 -10 10
0 6 5 10 10 10 6 0 10 -4 10 -10z m365 -24 c0 -25 -4 -29 -32 -31 -31 -3 -33
-1 -33 32 0 33 2 34 33 31 28 -3 32 -7 32 -32z m-190 -6 c0 -21 -5 -26 -32
-28 -29 -3 -33 0 -33 21 0 31 9 39 40 35 19 -2 25 -9 25 -28z m103 3 c-3 -24
-8 -28 -40 -31 -36 -3 -38 -2 -38 27 0 30 2 31 41 31 38 0 40 -1 37 -27z m92
-79 c0 -21 -5 -24 -35 -24 -24 0 -35 5 -35 15 0 8 -1 18 -2 22 -3 9 53 22 65
16 4 -2 7 -15 7 -29z m-280 1 c0 -22 -4 -25 -37 -24 -21 1 -49 4 -62 8 -26 7
-27 6 74 36 22 7 25 4 25 -20z m90 0 c0 -22 -4 -25 -35 -25 -31 0 -35 3 -35
25 0 22 4 25 35 25 31 0 35 -3 35 -25z m95 0 c0 -15 -8 -21 -34 -23 -35 -4
-53 11 -44 35 4 9 18 13 42 11 28 -2 36 -7 36 -23z m-95 -70 c0 -22 -4 -25
-35 -25 -31 0 -35 3 -35 25 0 22 4 25 35 25 31 0 35 -3 35 -25z m90 0 c0 -22
-4 -25 -35 -25 -31 0 -35 3 -35 25 0 22 4 25 35 25 31 0 35 -3 35 -25z m100
-1 c0 -23 -3 -25 -37 -22 -31 2 -39 7 -41 26 -3 20 1 22 37 22 37 0 41 -2 41
-26z"/>
</g>
</svg>
