<?xml version="1.0" standalone="no"?>
<!DOCTYPE svg PUBLIC "-//W3C//DTD SVG 20010904//EN"
 "http://www.w3.org/TR/2001/REC-SVG-20010904/DTD/svg10.dtd">
<svg version="1.0" xmlns="http://www.w3.org/2000/svg"
 width="68.000000pt" height="55.000000pt" viewBox="0 0 68.000000 55.000000"
 preserveAspectRatio="xMidYMid meet">
<metadata>
Created by potrace 1.16, written by Peter Selinger 2001-2019
</metadata>
<g transform="translate(0.000000,55.000000) scale(0.100000,-0.100000)"
fill="#000000" stroke="none">
<path d="M283 503 c-7 -15 -13 -35 -13 -45 0 -12 -8 -18 -24 -18 -27 0 -42
-16 -38 -41 2 -12 -7 -15 -40 -14 -24 1 -53 7 -66 14 -30 16 -42 7 -42 -31 0
-27 2 -30 23 -23 12 4 48 10 79 14 l56 7 5 -31 c2 -16 -1 -33 -7 -37 -8 -5 -7
-8 2 -8 9 0 12 -10 10 -27 -3 -28 -3 -28 -83 -28 -80 0 -80 0 -77 -25 2 -14 6
-27 8 -29 2 -2 34 5 71 16 38 12 72 17 77 13 5 -5 6 -21 2 -35 l-7 -27 -78 7
-79 7 2 -34 c2 -36 7 -38 49 -20 16 7 46 15 68 18 38 6 39 6 39 -25 0 -17 5
-31 10 -31 6 0 10 10 10 23 2 132 27 323 46 346 7 8 101 -60 143 -103 l45 -46
-25 -26 c-13 -14 -48 -42 -76 -61 -29 -19 -53 -41 -53 -47 0 -7 -9 -21 -20
-31 -11 -10 -20 -15 -20 -10 0 4 8 14 18 22 15 13 15 13 -8 7 -33 -9 -32 -7
-25 -48 7 -33 25 -51 25 -24 0 7 48 59 108 116 l107 104 -45 41 c-47 44 -131
149 -143 180 -9 24 -20 21 -34 -10z m41 -38 c16 -25 16 -25 -9 -13 -26 11 -30
19 -18 31 9 10 9 10 27 -18z m-72 -71 c-3 -19 -7 -22 -13 -12 -13 20 -11 38 5
38 9 0 12 -8 8 -26z m-142 -18 c0 -11 -19 -15 -25 -6 -3 5 1 10 9 10 9 0 16
-2 16 -4z m0 -160 c0 -3 -4 -8 -10 -11 -5 -3 -10 -1 -10 4 0 6 5 11 10 11 6 0
10 -2 10 -4z m13 -83 c-7 -2 -21 -2 -30 0 -10 3 -4 5 12 5 17 0 24 -2 18 -5z"/>
<path d="M579 362 c-13 -10 -32 -22 -43 -25 -12 -5 -16 -13 -11 -25 15 -39 25
-120 25 -203 0 -131 17 -108 22 29 3 83 10 134 25 175 22 63 18 76 -18 49z
m-7 -57 c-2 -14 -8 -25 -12 -25 -14 0 -19 27 -7 39 18 18 25 13 19 -14z"/>
<path d="M68 315 c-3 -3 -3 -17 0 -30 4 -25 26 -34 37 -15 3 6 18 10 33 10 15
0 34 5 42 10 18 11 16 12 -30 15 -19 1 -44 5 -56 9 -11 3 -23 4 -26 1z"/>
</g>
</svg>
