<?xml version="1.0" standalone="no"?>
<!DOCTYPE svg PUBLIC "-//W3C//DTD SVG 20010904//EN"
 "http://www.w3.org/TR/2001/REC-SVG-20010904/DTD/svg10.dtd">
<svg version="1.0" xmlns="http://www.w3.org/2000/svg"
 width="117.000000pt" height="111.000000pt" viewBox="0 0 117.000000 111.000000"
 preserveAspectRatio="xMidYMid meet">
<metadata>
Created by potrace 1.16, written by Peter Selinger 2001-2019
</metadata>
<g transform="translate(0.000000,111.000000) scale(0.100000,-0.100000)"
fill="#000000" stroke="none">
<path d="M955 1061 c-7 -12 7 -46 77 -193 46 -97 68 -128 68 -97 0 6 -27 67
-60 134 -33 67 -60 130 -60 138 0 19 -16 31 -25 18z"/>
<path d="M326 1041 c-23 -26 -21 -35 28 -116 l44 -72 -60 -67 c-58 -65 -60
-68 -48 -97 7 -16 17 -28 22 -27 5 2 9 7 8 11 -2 13 53 111 87 154 34 43 46
76 19 54 -11 -9 -19 -2 -40 41 -14 28 -26 69 -26 89 0 45 -11 55 -34 30z"/>
<path d="M900 1046 c0 -2 20 -46 45 -98 48 -101 50 -108 36 -108 -5 0 -30 45
-56 100 -27 55 -52 100 -57 100 -14 0 -9 -19 21 -78 37 -72 45 -99 32 -107 -9
-5 -32 38 -81 150 -24 56 -21 6 3 -54 35 -85 17 -76 -23 12 -18 39 -35 66 -38
58 -4 -11 21 -78 50 -134 8 -16 4 -38 -5 -26 -10 12 -46 100 -57 137 -7 23
-16 42 -20 42 -4 0 -16 -10 -28 -23 l-22 -23 31 -30 c17 -16 37 -41 45 -56 13
-25 12 -28 -26 -62 -22 -20 -40 -40 -40 -46 0 -20 21 -9 52 26 21 24 34 32 41
25 8 -8 2 -20 -18 -41 -20 -21 -26 -33 -18 -41 7 -7 20 2 42 30 20 25 37 38
46 34 11 -3 15 2 15 18 0 19 2 21 10 9 16 -24 12 -34 -25 -59 -19 -13 -35 -32
-35 -42 0 -28 13 -23 46 16 31 38 44 44 44 20 0 -9 -11 -21 -25 -27 -29 -13
-42 -45 -25 -62 8 -8 13 -7 20 4 21 36 39 54 46 47 5 -4 3 -17 -4 -27 -28 -46
7 -40 55 8 21 21 45 41 53 44 11 3 10 13 -9 54 -65 136 -91 195 -91 204 0 6
-7 10 -15 10 -8 0 -15 -2 -15 -4z m50 -220 c0 -8 -4 -17 -9 -21 -12 -7 -24 12
-16 25 9 15 25 12 25 -4z m60 -21 c0 -8 -4 -15 -10 -15 -5 0 -10 7 -10 15 0 8
5 15 10 15 6 0 10 -7 10 -15z m-40 -39 c-15 -15 -33 4 -19 20 10 12 14 12 20
2 5 -7 4 -17 -1 -22z"/>
<path d="M173 1023 c-3 -10 -8 -21 -10 -25 -2 -3 3 -12 10 -20 7 -7 26 -35 41
-61 27 -46 30 -67 6 -52 -18 11 -70 109 -70 133 0 34 -17 26 -31 -15 -8 -25
-8 -38 -2 -40 6 -2 30 -27 53 -54 l43 -51 -44 -38 c-40 -35 -42 -40 -31 -64
15 -34 27 -33 43 6 7 17 28 51 46 75 18 24 33 47 33 52 0 5 -13 38 -30 73 -16
34 -30 71 -30 81 0 9 -5 17 -10 17 -6 0 -13 -8 -17 -17z"/>
<path d="M235 1010 c-6 -27 -2 -37 22 -63 16 -18 37 -45 47 -61 l18 -28 -62
-63 c-50 -50 -61 -67 -55 -84 10 -33 29 -25 52 22 29 60 71 107 88 100 20 -7
19 21 -1 37 -23 20 -66 97 -73 133 -9 41 -28 45 -36 7z"/>
<path d="M50 975 c-11 -33 -10 -36 19 -61 57 -48 58 -61 12 -108 -41 -42 -41
-43 -22 -60 24 -22 37 -15 46 23 6 30 35 64 35 42 0 -6 4 -11 9 -11 5 0 8 18
7 40 0 26 -5 39 -12 36 -11 -4 -64 98 -64 123 0 24 -19 9 -30 -24z"/>
<path d="M601 781 c-9 -6 -11 -15 -6 -27 4 -11 7 -29 6 -41 -4 -36 16 -27 29
12 17 52 4 77 -29 56z"/>
<path d="M533 527 c-2 -4 6 -21 18 -38 13 -19 18 -34 12 -40 -6 -6 -17 5 -29
31 -10 22 -25 40 -31 40 -17 0 -16 -4 7 -52 23 -48 23 -48 10 -48 -5 0 -20 19
-32 43 -15 29 -23 37 -26 25 -2 -9 4 -30 12 -47 16 -30 12 -65 -7 -58 -6 2
-19 20 -30 40 -10 20 -25 37 -33 37 -8 0 -14 -2 -14 -5 0 -8 23 -47 38 -67 19
-23 13 -30 -63 -68 -45 -23 -65 -39 -65 -51 0 -23 14 -24 38 -4 46 41 114 85
122 80 19 -12 9 -24 -55 -67 -36 -23 -65 -46 -65 -50 0 -12 38 -10 45 2 3 5
27 24 52 41 36 25 47 29 54 18 6 -10 1 -21 -19 -36 -15 -13 -32 -23 -38 -23
-16 0 -37 -27 -30 -39 4 -6 25 3 51 21 27 19 50 28 60 24 25 -9 13 -28 -34
-54 -34 -19 -40 -27 -30 -38 9 -11 17 -9 47 16 39 32 62 38 62 16 0 -7 -16
-21 -35 -30 -34 -16 -45 -39 -26 -51 5 -3 12 -1 16 4 3 6 19 19 35 31 l29 21
15 -36 c8 -19 20 -35 25 -35 15 0 14 16 -4 49 -12 25 -12 31 -1 40 11 9 18 6
34 -16 25 -34 41 -24 18 11 -9 14 -12 27 -7 31 6 3 18 -8 27 -25 10 -16 22
-30 26 -30 13 0 9 24 -8 49 -14 19 -14 25 -3 32 9 6 19 2 29 -9 12 -15 70 -30
70 -18 0 2 -36 61 -81 132 -45 71 -93 148 -107 170 -19 32 -31 41 -50 40 -13
0 -26 -4 -29 -9z m65 -115 c2 -7 -3 -12 -12 -12 -9 0 -16 7 -16 16 0 17 22 14
28 -4z m57 -26 c14 -21 24 -40 22 -42 -5 -5 -57 72 -57 82 0 10 5 4 35 -40z
m-105 -1 c0 -8 -2 -15 -4 -15 -2 0 -6 7 -10 15 -3 8 -1 15 4 15 6 0 10 -7 10
-15z m-30 -19 c0 -17 -27 -29 -35 -16 -4 6 -3 15 0 20 9 15 35 12 35 -4z m105
-4 c0 -18 -20 -15 -23 4 -3 10 1 15 10 12 7 -3 13 -10 13 -16z m-41 -33 c-8
-13 -24 -1 -24 18 0 13 3 13 15 3 8 -7 12 -16 9 -21z m91 -30 c18 -28 23 -45
17 -51 -16 -16 -33 1 -26 28 5 19 3 23 -9 18 -18 -6 -31 11 -23 31 8 21 10 20
41 -26z m-129 20 c8 -14 -18 -31 -30 -19 -9 9 0 30 14 30 5 0 12 -5 16 -11z
m165 -21 c8 -15 8 -18 0 -14 -6 4 -16 16 -22 28 -8 15 -8 18 0 14 6 -4 16 -16
22 -28z m-97 -4 c8 -22 -4 -40 -15 -23 -11 18 -11 39 0 39 5 0 12 -7 15 -16z
m-36 -42 c2 -14 -2 -22 -11 -22 -17 0 -30 27 -21 41 9 16 29 4 32 -19z m162
-2 c6 -11 8 -20 6 -20 -3 0 -10 9 -16 20 -6 11 -8 20 -6 20 3 0 10 -9 16 -20z
m-93 -26 c-9 -9 -28 6 -21 18 4 6 10 6 17 -1 6 -6 8 -13 4 -17z m-32 -13 c3
-5 1 -13 -5 -16 -15 -9 -43 3 -35 15 8 13 32 13 40 1z"/>
<path d="M790 109 c-14 -25 -6 -49 14 -49 19 0 50 45 41 60 -11 17 -44 11 -55
-11z"/>
</g>
</svg>
