<?xml version="1.0" standalone="no"?>
<!DOCTYPE svg PUBLIC "-//W3C//DTD SVG 20010904//EN"
 "http://www.w3.org/TR/2001/REC-SVG-20010904/DTD/svg10.dtd">
<svg version="1.0" xmlns="http://www.w3.org/2000/svg"
 width="126.000000pt" height="83.000000pt" viewBox="0 0 126.000000 83.000000"
 preserveAspectRatio="xMidYMid meet">
<metadata>
Created by potrace 1.16, written by Peter Selinger 2001-2019
</metadata>
<g transform="translate(0.000000,83.000000) scale(0.100000,-0.100000)"
fill="#000000" stroke="none">
<path d="M249 806 c-11 -24 -11 -30 1 -40 8 -6 28 -28 44 -50 l29 -39 -51 -49
c-29 -28 -49 -54 -46 -59 3 -5 -6 -9 -20 -9 -14 0 -26 4 -26 9 0 4 23 29 50
55 l50 47 -19 27 c-10 15 -25 43 -33 62 l-15 35 -12 -24 c-12 -21 -10 -26 20
-57 18 -18 29 -37 25 -41 -11 -11 -56 46 -63 80 -7 32 -18 35 -33 6 -10 -17
-7 -23 14 -40 28 -22 35 -49 12 -49 -8 0 -24 25 -37 56 -19 46 -26 54 -44 50
-11 -3 -26 -6 -34 -6 -9 0 -11 -6 -6 -22 5 -13 11 -68 14 -123 l6 -100 36 3
c30 2 38 -1 42 -18 3 -12 0 -23 -6 -25 -7 -2 -32 -9 -57 -17 -37 -11 -45 -17
-46 -38 -3 -42 5 -42 64 0 56 40 56 41 65 18 4 -12 7 -42 5 -66 l-3 -43 -43
32 -44 32 -25 -25 c-23 -23 -25 -57 -3 -43 11 7 100 -14 117 -27 6 -5 13 -24
15 -41 2 -18 8 -30 13 -27 6 3 9 17 7 32 -2 16 0 28 4 28 3 0 33 -13 66 -30
32 -17 65 -30 72 -30 17 0 26 -31 26 -87 0 -37 -3 -43 -21 -43 -22 0 -58 -36
-59 -59 0 -9 6 -11 18 -6 35 15 206 55 233 55 l29 0 0 139 c0 76 3 159 6 185
l7 47 101 48 c56 27 112 52 126 56 14 4 39 13 55 20 85 36 247 95 260 95 18 0
20 36 3 42 -7 3 -42 3 -78 1 -207 -12 -548 -14 -585 -4 -36 10 -42 9 -57 -10
-36 -43 -25 -51 60 -44 42 4 88 8 101 10 13 3 106 7 205 10 100 3 207 8 239
10 33 2 55 -1 51 -6 -3 -5 -10 -9 -15 -9 -6 0 -63 -21 -127 -46 -64 -25 -166
-59 -226 -74 -60 -16 -112 -33 -115 -39 -3 -5 -15 -10 -26 -13 -16 -3 -19 -10
-17 -38 1 -19 5 -70 8 -112 l6 -76 -86 -4 -86 -3 0 60 c0 33 -3 71 -6 85 -5
19 -4 22 6 14 8 -8 22 -9 47 -2 19 5 46 10 61 11 54 5 15 20 -51 21 l-68 1 5
55 c13 131 13 135 -13 138 l-24 4 6 -79 c13 -159 20 -333 13 -333 -4 0 -33 12
-64 26 -31 14 -67 30 -79 35 -21 8 -23 15 -23 81 0 40 5 90 11 111 9 33 13 37
42 37 29 -1 30 -2 15 -14 -22 -16 -23 -26 -3 -26 8 0 20 9 27 20 7 11 21 20
30 20 10 0 18 5 18 11 0 7 -14 10 -35 7 -19 -2 -35 -1 -35 3 0 3 16 26 35 50
19 24 35 49 35 54 0 6 -12 27 -26 48 -14 21 -31 55 -38 75 l-14 37 -13 -29z
m211 -106 c0 -5 -7 -10 -16 -10 -8 0 -12 5 -9 10 3 6 10 10 16 10 5 0 9 -4 9
-10z m-326 -25 c19 -15 19 -15 -4 -40 -27 -29 -40 -24 -40 14 0 43 12 50 44
26z m81 -14 c7 -12 -12 -24 -25 -16 -11 7 -4 25 10 25 5 0 11 -4 15 -9z m-46
-47 c-6 -8 -9 -23 -6 -35 5 -19 3 -21 -25 -15 -46 9 -47 14 -8 46 34 28 62 31
39 4z m21 -100 c0 -8 -5 -12 -10 -9 -6 4 -8 11 -5 16 9 14 15 11 15 -7z m455
6 c-3 -5 -13 -10 -21 -10 -8 0 -12 5 -9 10 3 6 13 10 21 10 8 0 12 -4 9 -10z
m-85 -324 l0 -73 -67 -6 c-37 -3 -72 -3 -79 0 -7 3 -14 30 -16 68 l-3 64 45 9
c25 5 62 10 83 11 l37 1 0 -74z"/>
<path d="M410 193 c0 -18 6 -23 24 -23 14 0 27 4 30 9 4 5 24 12 46 16 63 11
47 21 -30 21 -66 -1 -70 -2 -70 -23z"/>
<path d="M400 395 c0 -22 3 -26 18 -19 9 4 35 9 57 12 61 6 67 22 8 22 -28 0
-58 3 -67 6 -12 5 -16 0 -16 -21z"/>
<path d="M404 351 c-2 -2 -4 -13 -4 -24 0 -15 4 -18 23 -12 12 3 42 11 67 17
71 16 67 25 -10 24 -39 -1 -73 -3 -76 -5z"/>
<path d="M5 10 c-4 -7 207 -10 624 -10 414 0 631 3 631 10 0 14 -1246 14
-1255 0z"/>
</g>
</svg>
