<?xml version="1.0" standalone="no"?>
<!DOCTYPE svg PUBLIC "-//W3C//DTD SVG 20010904//EN"
 "http://www.w3.org/TR/2001/REC-SVG-20010904/DTD/svg10.dtd">
<svg version="1.0" xmlns="http://www.w3.org/2000/svg"
 width="83.000000pt" height="70.000000pt" viewBox="0 0 83.000000 70.000000"
 preserveAspectRatio="xMidYMid meet">
<metadata>
Created by potrace 1.16, written by Peter Selinger 2001-2019
</metadata>
<g transform="translate(0.000000,70.000000) scale(0.100000,-0.100000)"
fill="#000000" stroke="none">
<path d="M534 649 c-3 -5 -2 -9 3 -9 4 0 -3 -7 -15 -16 -18 -13 -26 -13 -38
-3 -19 15 -31 4 -15 -15 10 -12 8 -17 -8 -25 -11 -6 -27 -11 -35 -11 -9 0 -16
-6 -16 -13 0 -23 -22 -38 -37 -25 -18 14 -26 5 -18 -21 3 -12 14 -21 24 -21
27 0 33 -12 14 -32 -18 -20 -10 -39 9 -20 14 14 48 16 48 3 0 -6 -4 -13 -10
-16 -5 -3 -10 -13 -10 -22 0 -14 2 -14 24 0 21 14 25 14 43 -4 20 -20 20 -20
49 3 29 24 118 78 128 78 9 0 37 -60 32 -68 -2 -4 -7 -81 -11 -172 -4 -91 -8
-166 -9 -167 -2 -2 -18 18 -36 45 -19 26 -37 49 -40 52 -31 25 -90 123 -96
158 -6 39 -18 54 -26 33 -4 -12 -120 -17 -137 -7 -7 5 -18 3 -24 -3 -16 -16
-44 -14 -51 4 -3 9 1 46 10 83 23 104 25 97 -26 94 -59 -5 -68 -15 -47 -51 9
-16 17 -38 17 -49 0 -12 4 -23 9 -26 5 -3 11 -21 13 -39 l3 -33 -62 7 c-34 3
-74 14 -87 23 -36 23 -49 21 -35 -5 6 -12 9 -37 6 -55 -7 -40 3 -42 46 -12 18
13 51 23 84 26 l53 4 0 -39 c0 -71 13 -163 22 -163 6 0 7 39 3 100 l-8 100 34
1 c19 0 54 2 79 4 56 4 66 -2 44 -26 -9 -10 -15 -19 -13 -20 2 0 15 -2 28 -5
52 -10 78 -34 201 -192 23 -30 45 -50 50 -45 4 4 12 97 18 206 9 186 11 200
35 236 14 21 23 42 20 45 -4 3 -28 6 -54 6 -45 0 -51 4 -113 64 -37 35 -69 60
-72 55z m34 -56 c5 -17 -26 -29 -40 -15 -6 6 -7 15 -3 22 9 14 37 9 43 -7z
m-48 -37 c0 -6 -9 -17 -19 -23 -16 -10 -22 -9 -32 3 -10 12 -8 17 7 28 20 15
44 11 44 -8z m87 -3 c5 -15 -28 -26 -41 -13 -8 8 -7 14 4 20 17 11 32 8 37 -7z
m-151 -52 c-9 -14 -33 -14 -41 -1 -4 6 -1 18 6 26 11 13 14 13 27 0 8 -8 11
-19 8 -25z m92 3 c-10 -11 -23 -14 -35 -10 -17 7 -16 9 6 27 30 24 55 9 29
-17z m108 14 c11 -17 -26 -40 -43 -27 -10 9 -10 15 -2 25 14 17 35 18 45 2z
m-380 -24 c-3 -9 -6 -27 -6 -40 0 -35 -15 -29 -27 11 -11 35 -7 42 26 44 8 1
11 -5 7 -15z m464 7 c0 -5 -7 -14 -15 -21 -8 -7 -15 -10 -15 -7 0 3 -3 12 -6
21 -4 12 0 16 15 16 12 0 21 -4 21 -9z m-236 -20 c9 -13 -19 -32 -38 -25 -17
6 -20 16 -9 27 9 10 41 9 47 -2z m93 -7 c4 -12 -42 -26 -52 -16 -3 3 0 11 7
19 13 16 39 14 45 -3z m-61 -35 c10 -17 -13 -36 -27 -22 -12 12 -4 33 11 33 5
0 12 -5 16 -11z m-412 -120 c-8 -14 -24 -10 -24 6 0 9 6 12 15 9 8 -4 12 -10
9 -15z m376 -25 c0 -16 -9 -18 -30 -4 -13 9 -13 11 0 19 17 12 30 5 30 -15z"/>
<path d="M8 3 c7 -3 16 -2 19 1 4 3 -2 6 -13 5 -11 0 -14 -3 -6 -6z"/>
<path d="M138 3 c12 -2 32 -2 45 0 12 2 2 4 -23 4 -25 0 -35 -2 -22 -4z"/>
</g>
</svg>
