<?xml version="1.0" standalone="no"?>
<!DOCTYPE svg PUBLIC "-//W3C//DTD SVG 20010904//EN"
 "http://www.w3.org/TR/2001/REC-SVG-20010904/DTD/svg10.dtd">
<svg version="1.0" xmlns="http://www.w3.org/2000/svg"
 width="143.000000pt" height="186.000000pt" viewBox="0 0 143.000000 186.000000"
 preserveAspectRatio="xMidYMid meet">
<metadata>
Created by potrace 1.16, written by Peter Selinger 2001-2019
</metadata>
<g transform="translate(0.000000,186.000000) scale(0.100000,-0.100000)"
fill="#000000" stroke="none">
<path d="M40 1798 c0 -2 7 -21 15 -43 9 -26 14 -82 15 -159 0 -118 0 -118 23
-111 12 4 101 10 197 12 l175 5 -24 -26 -24 -26 23 -25 c30 -32 36 -31 44 5 7
39 56 113 56 86 0 -15 5 -17 33 -12 79 14 257 18 304 7 42 -11 183 -92 183
-106 0 -3 -5 -14 -12 -25 -7 -10 -9 -23 -4 -27 5 -4 13 1 20 11 15 27 156 198
173 213 16 13 10 18 -32 27 -28 6 -31 3 -52 -41 -13 -27 -36 -71 -52 -99 l-30
-51 -60 56 c-33 31 -65 68 -70 84 -12 32 -22 34 -46 7 -16 -18 -31 -20 -126
-20 -59 0 -130 5 -158 12 -46 10 -53 9 -88 -13 -37 -23 -42 -24 -203 -19 -139
4 -160 7 -138 17 17 7 88 13 187 14 89 1 161 6 161 11 0 4 -78 8 -172 8 -95 0
-179 4 -187 9 -10 6 -12 29 -10 89 2 44 8 84 12 88 17 18 28 -24 25 -99 -3
-66 -1 -76 12 -70 8 4 83 9 165 10 83 2 159 7 170 12 52 23 112 31 220 31 100
0 120 -3 131 -17 13 -17 15 -17 29 1 15 19 15 19 15 -4 0 -30 40 -90 60 -90 8
0 29 -14 47 -32 18 -17 36 -28 40 -25 4 4 1 13 -5 19 -21 21 -14 40 11 33 18
-6 20 -5 10 6 -15 15 1 40 22 33 9 -4 13 3 11 20 -1 31 -10 33 -33 6 -19 -22
-43 -27 -43 -9 0 6 9 13 20 16 11 3 20 14 20 24 0 26 21 35 36 15 24 -33 31
-8 19 69 -13 83 -21 99 -36 72 -6 -9 -20 -26 -31 -37 l-22 -20 22 -23 c26 -28
28 -43 5 -51 -18 -7 -33 9 -33 37 0 22 -3 22 -51 -9 -22 -14 -45 -24 -51 -22
-6 2 10 15 36 28 48 26 62 46 23 35 -12 -4 -44 -14 -72 -22 -27 -8 -57 -17
-65 -20 -25 -8 -262 -3 -305 7 -38 8 -79 43 -103 86 -10 17 -12 17 -31 -6 -24
-30 -27 -50 -6 -50 17 0 95 -37 95 -46 0 -8 -234 8 -254 18 -18 10 -19 33 0
96 6 22 6 22 -115 22 -66 0 -121 -1 -121 -2z m91 -25 c0 -5 4 -63 7 -131 7
-120 7 -122 -14 -122 -12 0 -25 7 -28 16 -11 30 -6 204 6 224 13 20 27 26 29
13z m112 -78 c1 -39 -2 -60 -10 -62 -10 -4 -13 14 -13 68 0 88 19 83 23 -6z
m887 26 c0 -11 3 -28 6 -38 6 -16 4 -16 -15 3 -14 13 -19 27 -15 37 8 23 24
21 24 -2z m-203 -68 c-9 -9 -20 -13 -24 -9 -4 4 -1 11 7 16 25 16 35 11 17 -7z
m128 -44 c-6 -9 -12 -7 -22 6 -22 31 -16 49 8 26 13 -11 18 -24 14 -32z m-574
31 c41 0 69 -4 69 -10 0 -11 -240 -13 -268 -3 -31 12 15 24 72 19 32 -4 90 -6
127 -6z m539 -49 c0 -17 -18 -21 -24 -6 -3 9 0 15 9 15 8 0 15 -4 15 -9z m190
-9 c0 -5 -16 -26 -35 -48 l-35 -39 22 48 c12 26 28 47 35 47 7 0 13 -4 13 -8z
m-155 -30 c0 -18 -20 -15 -23 4 -3 10 1 15 10 12 7 -3 13 -10 13 -16z m-127
-14 c18 -18 15 -27 -8 -21 -11 3 -20 12 -20 19 0 17 12 18 28 2z m-328 -14 c0
-2 -7 -4 -15 -4 -8 0 -15 4 -15 10 0 5 7 7 15 4 8 -4 15 -8 15 -10z m-127 -64
c-5 -19 -23 -29 -23 -12 0 7 20 32 26 32 1 0 0 -9 -3 -20z"/>
<path d="M1325 1508 c-7 -23 0 -83 10 -82 11 1 35 43 35 61 0 19 -39 37 -45
21z"/>
<path d="M317 1172 c-13 -14 -17 -36 -17 -90 0 -41 4 -72 10 -72 6 0 10 19 10
43 0 23 5 59 11 80 13 49 8 64 -14 39z"/>
<path d="M257 1165 c-14 -10 -16 -18 -7 -39 5 -15 10 -50 10 -77 0 -47 -1 -49
-29 -49 -40 0 -45 28 -26 138 6 34 0 39 -27 19 -14 -11 -15 -23 -8 -87 13
-107 13 -111 -7 -108 -13 2 -18 -4 -18 -22 0 -18 -5 -24 -17 -22 -14 2 -18 -4
-18 -25 l0 -28 230 -2 c127 -1 230 1 230 5 0 5 -88 13 -196 19 -108 6 -198 14
-202 17 -3 3 -2 9 2 13 9 9 432 17 454 8 12 -4 7 -14 -24 -46 -21 -22 -60 -57
-86 -77 -27 -20 -48 -39 -48 -43 0 -5 11 -21 24 -36 l24 -28 11 30 c19 51 42
88 90 140 73 80 109 93 281 96 80 2 85 1 88 -19 4 -29 16 -28 37 5 22 34 60
69 107 101 l38 25 53 -42 c33 -25 61 -57 72 -81 18 -40 18 -41 -1 -67 -28 -37
-40 -39 -48 -7 -5 18 -2 32 9 44 25 28 1 32 -25 5 -13 -14 -32 -25 -42 -25
-22 0 -22 -1 -4 -45 18 -43 30 -46 21 -6 -8 39 9 47 30 15 17 -26 17 -27 -31
-75 l-48 -49 -35 27 c-41 31 -76 66 -89 90 -9 15 -13 14 -46 -6 -42 -26 -40
-36 10 -44 43 -7 134 -63 134 -83 0 -24 23 -16 73 26 27 21 73 53 103 70 30
17 54 37 54 44 0 7 -19 48 -43 92 -40 75 -68 136 -81 178 -6 18 -9 17 -39 -12
-18 -17 -80 -56 -139 -87 l-108 -57 -127 4 c-71 2 -135 7 -144 12 -12 5 -18 1
-23 -18 -3 -14 -10 -26 -14 -26 -20 0 -92 125 -92 160 0 11 -4 20 -8 20 -10 0
-67 -59 -61 -63 2 -1 23 -15 46 -31 23 -16 45 -36 48 -46 3 -10 12 -21 20 -24
43 -16 -4 -21 -182 -18 -109 2 -200 6 -202 8 -15 14 30 18 186 15 122 -2 173
1 168 8 -4 7 -58 11 -146 11 l-141 0 3 90 c2 49 1 91 -2 94 -2 2 -12 -1 -22
-9z m980 -90 c12 -37 7 -38 -29 -7 -14 11 -15 18 -7 29 17 20 25 16 36 -22z
m-703 0 c3 -8 1 -15 -4 -15 -6 0 -10 7 -10 15 0 8 2 15 4 15 2 0 6 -7 10 -15z
m494 -95 c-13 -21 -28 -27 -28 -10 0 5 8 14 18 19 23 14 24 14 10 -9z m-323
-20 c-3 -5 -13 -10 -21 -10 -8 0 -14 5 -14 10 0 6 9 10 21 10 11 0 17 -4 14
-10z m635 -88 c0 -4 -16 -17 -36 -30 l-36 -24 28 36 c25 30 44 39 44 18z
m-310 -42 c0 -5 -7 -10 -15 -10 -8 0 -15 5 -15 10 0 6 7 10 15 10 8 0 15 -4
15 -10z m-506 -65 c-7 -16 -24 -21 -24 -6 0 8 7 13 27 20 1 1 0 -6 -3 -14z"/>
<path d="M112 1147 c-18 -8 -22 -16 -17 -31 4 -12 10 -52 13 -91 8 -84 28 -86
24 -3 -2 32 1 73 7 93 11 40 5 47 -27 32z"/>
<path d="M1098 936 l-48 -44 38 -56 c43 -66 57 -58 17 10 l-27 46 48 44 c27
24 42 43 34 43 -8 0 -36 -19 -62 -43z"/>
<path d="M1168 931 c-26 -14 -48 -29 -48 -32 0 -14 52 -120 57 -115 3 3 -3 28
-13 56 -17 47 -17 53 -3 60 28 16 64 48 59 53 -3 3 -26 -7 -52 -22z"/>
<path d="M70 829 c0 -35 3 -40 18 -34 49 20 86 23 254 25 170 1 198 3 187 15
-3 2 -94 5 -204 5 -152 1 -206 5 -227 16 l-28 15 0 -42z"/>
<path d="M653 829 c2 -24 8 -33 18 -30 54 14 105 20 182 21 48 0 87 4 87 9 0
5 -53 11 -117 14 -65 3 -130 8 -145 12 -27 7 -28 6 -25 -26z"/>
<path d="M90 450 c-15 -4 -23 -13 -21 -21 17 -65 21 -101 19 -172 l-3 -82 148
-3 c142 -2 150 -4 175 -27 15 -14 29 -25 33 -25 3 0 17 30 31 68 25 64 26 71
15 147 -6 44 -12 82 -14 84 -2 3 -16 -8 -33 -24 l-29 -28 35 -45 c19 -25 34
-50 34 -56 0 -7 -15 -26 -33 -44 -31 -30 -38 -32 -105 -32 -57 0 -72 3 -72 15
0 12 15 15 79 15 44 0 83 5 86 10 4 6 -25 10 -79 10 -69 0 -86 3 -86 15 0 11
19 15 93 17 53 2 92 7 92 13 0 6 -39 11 -92 13 -107 3 -127 22 -24 22 39 0 73
5 76 10 4 6 -22 10 -69 10 -85 0 -87 2 -60 70 19 47 16 53 -20 44 -25 -6 -26
-8 -20 -60 6 -51 5 -54 -15 -54 -20 0 -22 4 -17 45 2 25 0 47 -5 50 -5 4 -9
-16 -9 -44 0 -39 -4 -51 -15 -51 -11 0 -15 12 -15 50 0 28 -4 50 -10 50 -5 0
-10 -22 -10 -50 0 -43 -3 -50 -20 -50 -23 0 -27 31 -10 76 13 33 4 43 -30 34z
m367 -92 c-3 -8 -6 -5 -6 6 -1 11 2 17 5 13 3 -3 4 -12 1 -19z m-307 -48 c0
-5 -9 -10 -20 -10 -11 0 -20 5 -20 10 0 6 9 10 20 10 11 0 20 -4 20 -10z m41
-3 c-1 -12 -15 -9 -19 4 -3 6 1 10 8 8 6 -3 11 -8 11 -12z m59 3 c0 -5 -9 -10
-20 -10 -11 0 -20 5 -20 10 0 6 9 10 20 10 11 0 20 -4 20 -10z m-100 -55 c0
-16 -35 -21 -44 -6 -8 12 4 21 26 21 10 0 18 -7 18 -15z m48 3 c-6 -18 -28
-21 -28 -4 0 9 7 16 16 16 9 0 14 -5 12 -12z m52 -3 c0 -8 -6 -15 -14 -15 -17
0 -28 14 -19 24 12 12 33 6 33 -9z m-92 -47 c-6 -18 -48 -21 -48 -3 0 9 10 15
26 15 15 0 24 -5 22 -12z m42 -4 c0 -17 -22 -14 -28 4 -2 7 3 12 12 12 9 0 16
-7 16 -16z m48 4 c-6 -18 -28 -21 -28 -4 0 9 7 16 16 16 9 0 14 -5 12 -12z
m196 -43 c-4 -8 -10 -12 -15 -9 -11 6 -2 24 11 24 5 0 7 -7 4 -15z"/>
<path d="M1020 398 c-25 -21 -64 -51 -88 -65 -43 -25 -46 -26 -185 -21 -89 4
-158 11 -185 21 -48 17 -57 10 -50 -35 2 -15 9 -21 18 -18 8 3 87 6 175 8 142
3 158 1 140 -12 -18 -13 -18 -16 -4 -33 37 -42 108 -173 103 -188 -9 -22 7
-18 36 8 41 38 113 88 148 102 17 8 32 19 32 26 0 6 -19 45 -41 87 -23 41 -44
93 -47 116 -2 23 -5 42 -6 42 0 1 -21 -16 -46 -38z m40 -19 c0 -5 -4 -9 -10
-9 -5 0 -10 7 -10 16 0 8 5 12 10 9 6 -3 10 -10 10 -16z m-8 -36 c8 -10 27
-40 42 -66 l28 -48 -77 -75 -77 -75 -21 33 c-11 18 -35 59 -53 91 l-33 57 72
49 c79 55 97 60 119 34z m-497 -33 c3 -5 -1 -10 -9 -10 -9 0 -16 5 -16 10 0 6
4 10 9 10 6 0 13 -4 16 -10z m585 -109 c0 -5 -7 -11 -15 -15 -15 -5 -20 5 -8
17 9 10 23 9 23 -2z"/>
<path d="M989 316 c-43 -22 -79 -48 -79 -57 0 -4 19 -37 41 -71 31 -48 40 -56
37 -36 -6 32 11 51 36 42 12 -5 15 -2 10 10 -4 11 -1 16 10 16 21 0 20 6 -8
62 -22 44 -25 46 -47 34z m12 -39 c-13 -13 -26 -3 -16 12 3 6 11 8 17 5 6 -4
6 -10 -1 -17z m-31 -16 c0 -5 -7 -11 -15 -15 -9 -3 -15 0 -15 9 0 8 7 15 15
15 8 0 15 -4 15 -9z m60 -16 c0 -8 -4 -15 -9 -15 -5 0 -11 7 -15 15 -3 9 0 15
9 15 8 0 15 -7 15 -15z m-33 -22 c4 -11 -26 -27 -35 -19 -2 3 -2 12 2 21 6 18
27 16 33 -2z"/>
<path d="M510 195 c0 -32 2 -36 18 -29 9 5 89 11 177 14 179 6 168 15 -34 30
-64 4 -126 11 -138 15 -21 7 -23 4 -23 -30z"/>
<path d="M1314 206 c-7 -19 12 -46 33 -46 21 0 13 54 -10 58 -9 2 -20 -4 -23
-12z"/>
</g>
</svg>
