<?xml version="1.0" standalone="no"?>
<!DOCTYPE svg PUBLIC "-//W3C//DTD SVG 20010904//EN"
 "http://www.w3.org/TR/2001/REC-SVG-20010904/DTD/svg10.dtd">
<svg version="1.0" xmlns="http://www.w3.org/2000/svg"
 width="112.000000pt" height="72.000000pt" viewBox="0 0 112.000000 72.000000"
 preserveAspectRatio="xMidYMid meet">
<metadata>
Created by potrace 1.16, written by Peter Selinger 2001-2019
</metadata>
<g transform="translate(0.000000,72.000000) scale(0.100000,-0.100000)"
fill="#000000" stroke="none">
<path d="M702 660 c-27 -36 -28 -47 -3 -55 11 -3 31 -15 45 -26 21 -17 24 -24
16 -40 -7 -12 -21 -19 -40 -19 l-29 0 6 -162 c3 -90 7 -165 9 -167 2 -2 25 14
51 36 26 22 69 52 96 67 26 16 47 30 47 34 0 3 -17 28 -38 56 -38 51 -72 122
-72 152 0 18 21 2 145 -113 44 -41 75 -77 69 -79 -5 -3 -41 -27 -80 -55 -68
-50 -255 -149 -281 -149 -9 0 -13 16 -13 58 0 70 27 323 39 374 10 44 7 48
-33 48 l-31 0 3 -222 c3 -287 9 -368 28 -368 8 0 17 6 20 14 8 21 145 133 264
216 58 40 109 77 114 81 5 4 -39 54 -98 110 -58 56 -129 133 -157 171 -28 37
-52 68 -53 68 -1 0 -12 -13 -24 -30z m51 -35 c20 -28 12 -32 -21 -9 -12 8 -20
20 -17 25 9 14 19 10 38 -16z m-107 -62 c-3 -21 -6 -51 -7 -68 -1 -16 -5 -3
-9 30 -7 64 -5 75 12 75 7 0 8 -14 4 -37z m71 -85 c-3 -8 -6 -5 -6 6 -1 11 2
17 5 13 3 -3 4 -12 1 -19z m83 -49 c22 -28 40 -56 40 -62 0 -7 -14 -28 -31
-47 l-30 -35 4 73 c4 67 3 72 -16 72 -19 0 -20 -4 -14 -78 5 -68 3 -82 -14
-107 l-21 -30 6 93 c7 116 16 172 27 172 5 0 27 -23 49 -51z m70 -98 c0 -5 -7
-12 -16 -15 -24 -9 -28 -7 -14 9 14 17 30 20 30 6z m-151 -193 c-2 -2 -21 -19
-42 -37 -35 -33 -37 -34 -37 -12 0 15 10 26 33 36 27 12 60 21 46 13z"/>
<path d="M109 486 c-1 -3 -2 -11 -3 -18 0 -7 -12 -15 -26 -18 -20 -5 -24 -11
-21 -31 2 -13 4 -75 4 -136 1 -110 13 -155 19 -70 2 35 7 43 26 45 20 3 22 -1
22 -42 0 -25 5 -46 10 -46 6 0 10 20 10 45 0 33 4 45 14 45 10 0 16 -14 18
-42 4 -57 21 -55 22 1 1 26 6 46 14 48 9 3 12 -11 12 -52 0 -35 4 -54 10 -50
5 3 10 26 10 51 0 32 4 44 15 44 10 0 15 -11 15 -35 0 -19 4 -35 10 -35 5 0
12 16 16 35 4 23 12 35 23 36 9 0 69 1 134 3 65 1 117 6 117 12 0 5 -59 10
-135 12 -145 3 -146 3 -125 56 10 28 1 40 -25 30 -13 -5 -15 -15 -10 -46 6
-35 5 -39 -11 -36 -11 2 -18 8 -18 14 1 5 5 24 9 42 6 28 4 32 -16 32 -20 0
-21 -4 -17 -45 4 -36 2 -45 -10 -45 -12 0 -14 9 -8 46 5 40 4 45 -12 42 -13
-3 -17 -14 -17 -48 0 -33 -4 -45 -15 -45 -8 0 -14 5 -13 12 16 84 16 92 -6 86
-17 -4 -21 -13 -21 -49 0 -37 -3 -44 -20 -44 -23 0 -26 31 -10 91 12 45 22 48
160 54 240 12 310 17 315 25 2 4 -89 10 -203 13 -114 4 -219 9 -234 13 -16 3
-29 4 -29 0z m69 -33 c-10 -2 -26 -2 -35 0 -10 3 -2 5 17 5 19 0 27 -2 18 -5z"/>
<path d="M150 10 c-85 -3 98 -7 408 -8 391 -1 562 1 562 9 0 11 -646 10 -970
-1z"/>
</g>
</svg>
