<?xml version="1.0" standalone="no"?>
<!DOCTYPE svg PUBLIC "-//W3C//DTD SVG 20010904//EN"
 "http://www.w3.org/TR/2001/REC-SVG-20010904/DTD/svg10.dtd">
<svg version="1.0" xmlns="http://www.w3.org/2000/svg"
 width="123.000000pt" height="72.000000pt" viewBox="0 0 123.000000 72.000000"
 preserveAspectRatio="xMidYMid meet">
<metadata>
Created by potrace 1.16, written by Peter Selinger 2001-2019
</metadata>
<g transform="translate(0.000000,72.000000) scale(0.100000,-0.100000)"
fill="#000000" stroke="none">
<path d="M590 680 c-6 -10 -26 -22 -45 -26 -19 -3 -38 -10 -41 -15 -2 -5 2
-55 10 -111 8 -57 16 -167 18 -246 1 -79 6 -148 10 -155 5 -8 22 3 55 34 59
56 217 179 231 179 6 0 12 3 14 8 2 4 30 29 63 56 33 27 64 53 69 57 5 4 -18
24 -50 45 -33 20 -112 72 -177 115 -64 44 -124 79 -132 79 -8 0 -19 -9 -25
-20z m140 -74 c19 -15 20 -17 5 -11 -11 4 -46 16 -77 27 -60 21 -66 26 -47 45
12 12 54 -10 119 -61z m-181 -48 c-1 -56 -3 -67 -9 -45 -7 25 -14 88 -11 110
1 4 6 7 11 7 6 0 10 -30 9 -72z m65 63 c3 -4 26 -14 51 -21 61 -17 48 -30 -31
-30 l-64 0 0 30 c0 23 5 30 19 30 11 0 22 -4 25 -9z m142 -103 c7 -20 14 -70
15 -110 l2 -73 -34 -17 c-46 -23 -168 -78 -174 -78 -3 0 -5 71 -5 158 1 113 4
152 11 139 6 -10 15 -14 22 -10 18 11 110 32 131 30 12 -1 24 -15 32 -39z
m183 -53 c0 -5 -18 -23 -40 -40 -22 -16 -53 -40 -68 -52 -16 -13 -32 -23 -35
-23 -3 0 -6 29 -6 65 l0 65 45 0 c25 0 45 5 45 10 0 6 -18 10 -39 10 -43 0
-55 9 -45 34 5 14 17 10 75 -21 38 -21 69 -42 68 -48z m-249 -198 c0 -2 -29
-27 -65 -55 l-65 -53 0 30 c0 26 5 31 50 46 27 9 52 21 55 26 6 8 25 13 25 6z"/>
<path d="M692 523 c-20 -22 -29 -25 -67 -21 -51 6 -58 2 -44 -23 8 -15 14 -17
35 -8 21 7 29 6 40 -8 17 -23 18 -33 2 -29 -7 3 -28 7 -46 10 -30 5 -33 4 -30
-17 3 -20 8 -22 56 -19 47 3 54 1 59 -17 11 -44 22 -18 25 62 2 45 1 85 -2 89
-3 4 -15 -5 -28 -19z m8 -60 c-1 -24 -2 -26 -11 -10 -5 9 -7 22 -4 27 10 17
15 11 15 -17z"/>
<path d="M580 372 c0 -30 13 -34 64 -20 46 12 62 28 29 28 -10 0 -35 3 -55 6
-34 6 -38 4 -38 -14z"/>
<path d="M1085 532 c4 -15 9 -117 11 -227 l5 -200 -39 70 c-21 39 -49 109 -62
158 -12 48 -26 87 -29 87 -3 0 -22 -14 -41 -30 l-35 -29 42 -43 c39 -41 78
-100 138 -212 16 -28 30 -45 35 -40 5 5 11 88 13 184 3 131 8 190 22 235 10
33 17 62 17 65 -1 2 -20 6 -43 7 -41 3 -41 2 -34 -25z m49 -19 c-10 -42 -24
-52 -24 -17 0 31 6 44 22 44 5 0 5 -12 2 -27z m-161 -160 c3 -16 9 -37 12 -48
4 -11 -5 -3 -19 18 -15 20 -24 42 -21 47 11 18 22 11 28 -17z"/>
<path d="M70 522 c0 -22 -6 -31 -21 -35 -18 -5 -20 -10 -14 -34 4 -15 9 -67
12 -115 3 -49 9 -88 14 -88 5 0 9 11 9 24 0 14 5 28 10 31 6 4 10 -11 10 -39
0 -25 5 -48 10 -51 6 -4 10 13 10 44 0 28 5 51 10 51 6 0 10 -22 10 -50 0 -27
5 -50 10 -50 6 0 10 23 10 50 0 28 5 50 10 50 6 0 11 -8 11 -17 1 -10 2 -22 4
-28 1 -5 3 -17 4 -25 1 -12 3 -13 10 -1 5 7 6 22 4 32 -3 10 -2 27 1 36 6 15
8 15 16 3 6 -8 10 -25 10 -38 0 -13 4 -20 10 -17 6 3 10 17 10 30 0 23 27 40
56 34 33 -6 194 3 194 11 0 6 -50 10 -130 10 l-130 0 0 50 c0 28 -4 50 -10 50
-5 0 -10 -25 -10 -56 0 -34 -4 -53 -10 -49 -5 3 -10 31 -10 61 0 30 -4 54 -10
54 -6 0 -9 -24 -9 -55 1 -31 -1 -59 -5 -63 -14 -14 -26 24 -21 66 4 27 2 42
-4 42 -7 0 -11 -23 -11 -56 0 -40 -3 -54 -12 -51 -9 2 -12 21 -10 55 2 32 -1
52 -8 52 -6 0 -10 -24 -10 -56 0 -36 -4 -53 -11 -49 -12 8 -2 114 12 129 4 5
54 11 111 13 184 6 288 15 283 23 -2 4 -62 8 -132 8 -115 0 -213 14 -265 37
-15 6 -18 2 -18 -23z m80 -22 c11 -7 5 -10 -22 -10 -21 0 -38 5 -38 10 0 13
40 13 60 0z m-80 -39 c0 -6 -4 -13 -10 -16 -5 -3 -10 1 -10 9 0 9 5 16 10 16
6 0 10 -4 10 -9z"/>
</g>
</svg>
