<?xml version="1.0" standalone="no"?>
<!DOCTYPE svg PUBLIC "-//W3C//DTD SVG 20010904//EN"
 "http://www.w3.org/TR/2001/REC-SVG-20010904/DTD/svg10.dtd">
<svg version="1.0" xmlns="http://www.w3.org/2000/svg"
 width="128.000000pt" height="82.000000pt" viewBox="0 0 128.000000 82.000000"
 preserveAspectRatio="xMidYMid meet">
<metadata>
Created by potrace 1.16, written by Peter Selinger 2001-2019
</metadata>
<g transform="translate(0.000000,82.000000) scale(0.100000,-0.100000)"
fill="#000000" stroke="none">
<path d="M565 781 l6 -29 -178 3 c-98 1 -194 8 -213 14 -51 16 -52 15 -46 -29
4 -32 2 -40 -10 -40 -11 0 -14 -6 -10 -16 21 -55 13 -90 -17 -78 -21 8 -22 59
-2 94 22 39 18 46 -25 44 -52 -2 -56 -6 -33 -40 14 -22 18 -48 18 -121 0 -58
4 -92 10 -90 6 2 12 17 15 33 4 21 12 30 28 32 19 3 23 -1 21 -20 -4 -41 1
-68 11 -68 6 0 10 20 10 44 0 35 4 45 20 49 18 5 20 0 20 -39 0 -59 18 -56 23
4 3 36 4 30 5 -25 2 -92 20 -96 24 -5 4 81 22 86 26 7 4 -70 22 -63 22 9 l0
54 68 -5 c37 -3 69 -7 71 -9 2 -2 0 -62 -4 -133 l-7 -131 -168 0 c-142 0 -171
3 -185 16 -9 9 -19 13 -23 10 -11 -11 -13 -88 -2 -101 5 -6 11 -52 12 -101 3
-92 19 -121 28 -49 4 32 9 40 25 40 11 0 21 -8 23 -18 5 -24 22 -21 22 4 0 11
4 17 10 14 5 -3 10 -17 10 -31 0 -14 4 -22 10 -19 5 3 10 17 10 31 0 15 6 24
15 24 9 0 15 -9 15 -25 0 -31 17 -33 22 -2 4 29 32 29 36 0 4 -30 22 -30 19 0
-2 22 -1 22 146 25 l147 3 0 27 c1 133 24 492 35 549 8 40 15 84 15 98 0 23
-4 25 -41 25 -40 0 -40 -1 -34 -29z m51 -17 c-3 -9 -6 -28 -7 -42 l-1 -27 -8
25 c-13 41 -11 60 6 60 11 0 14 -5 10 -16z m-40 -61 c10 -39 -3 -530 -15 -551
-8 -15 -26 -17 -135 -17 l-126 -1 -1 41 c-2 66 -4 75 -14 72 -5 -1 -10 -27
-10 -57 0 -44 -3 -55 -17 -58 -16 -3 -18 5 -18 57 0 34 -4 61 -10 61 -6 0 -10
-27 -10 -60 0 -46 -3 -60 -15 -60 -10 0 -15 15 -17 57 -2 34 -8 58 -15 61 -10
3 -11 -11 -7 -57 5 -40 3 -61 -4 -61 -15 0 -22 25 -22 77 l0 45 -32 -7 c-25
-4 -29 -3 -17 4 9 6 93 12 185 15 l169 4 2 103 c3 137 8 168 38 220 14 24 25
47 25 51 0 6 -100 -1 -108 -7 -2 -2 2 -12 9 -24 7 -11 11 -22 9 -24 -3 -2 -33
-2 -66 1 l-62 4 6 60 c4 49 2 60 -9 56 -8 -3 -14 -16 -15 -29 -1 -13 -2 -39
-3 -56 0 -18 -6 -33 -12 -33 -8 0 -10 17 -5 55 5 45 3 55 -9 55 -10 0 -15 -11
-16 -32 -1 -18 -5 -44 -10 -58 -6 -18 -8 -10 -6 34 1 43 -2 60 -12 64 -11 4
-13 -8 -9 -57 4 -58 3 -61 -19 -61 -19 0 -23 5 -23 28 0 16 7 37 15 48 8 10
15 27 15 36 0 21 28 24 237 26 l153 2 6 -27z m-106 -91 c0 -5 -7 -17 -15 -28
-14 -18 -14 -18 -15 9 0 17 5 27 15 27 8 0 15 -4 15 -8z m-350 -437 c0 -38 -3
-45 -20 -45 -23 0 -28 38 -8 70 20 31 28 24 28 -25z"/>
<path d="M480 508 c-16 -6 -20 -13 -15 -26 4 -9 9 -52 12 -95 7 -95 23 -112
23 -24 0 77 9 127 23 127 5 0 7 -12 4 -27 -7 -39 6 -156 18 -160 6 -2 11 25
12 65 1 37 5 86 8 109 l6 41 -35 -1 c-19 0 -44 -5 -56 -9z"/>
<path d="M740 737 c0 -26 5 -36 20 -40 16 -4 20 -14 20 -45 0 -35 -2 -39 -20
-35 -15 4 -20 0 -20 -15 0 -11 -3 -28 -7 -38 -5 -14 -2 -16 20 -10 23 5 26 3
29 -26 2 -18 8 -31 13 -28 6 3 9 21 7 40 -3 33 -3 34 11 15 14 -19 16 -19 22
-2 10 23 27 22 23 -3 -2 -10 2 -20 7 -22 6 -2 11 7 13 18 3 18 12 22 59 28 31
4 57 5 59 3 2 -2 1 -72 -3 -156 l-6 -154 -90 7 c-50 3 -106 11 -124 18 -18 6
-34 10 -36 7 -2 -2 -7 -21 -10 -43 -6 -35 -4 -38 16 -34 19 4 22 -1 25 -34 2
-37 1 -38 -24 -32 -24 6 -25 4 -22 -22 2 -23 8 -29 28 -29 19 0 25 -5 25 -22
1 -36 20 -31 23 5 3 25 8 32 20 30 13 -3 16 -12 14 -41 -2 -21 1 -37 7 -37 5
0 11 17 13 37 2 27 8 39 21 41 14 3 17 -4 17 -37 0 -51 18 -54 22 -3 l3 37
143 3 c78 1 142 6 142 10 4 189 23 510 34 552 8 30 13 57 11 60 -2 4 -66 6
-142 5 -139 -2 -285 7 -335 20 -27 7 -28 5 -28 -28z m250 -43 c6 -14 10 -42
10 -62 l0 -37 -61 3 -60 4 6 31 c14 71 25 87 61 87 28 0 36 -5 44 -26z m200
-24 c3 -25 3 -124 0 -220 l-5 -175 -82 -3 -83 -3 0 156 0 155 28 -2 c15 -1 44
-1 65 0 62 3 32 22 -34 22 -55 0 -59 2 -59 23 0 12 5 39 11 60 l10 38 72 -3
72 -3 5 -45z m-374 -58 c-13 -12 -17 8 -9 44 l8 39 3 -39 c2 -21 1 -41 -2 -44z
m54 64 c0 -29 -13 -76 -21 -76 -10 0 -12 34 -3 68 7 24 24 30 24 8z m-95 -416
c3 -5 1 -10 -4 -10 -6 0 -11 5 -11 10 0 6 2 10 4 10 3 0 8 -4 11 -10z m66 -19
c-10 -7 -12 -20 -7 -50 6 -37 4 -41 -14 -41 -23 0 -26 21 -9 69 6 18 18 31 27
31 14 0 14 -2 3 -9z m49 -6 c-8 -10 -9 -23 -3 -42 12 -34 7 -53 -14 -53 -12 0
-14 8 -9 38 3 20 6 45 6 55 0 9 7 17 16 17 13 0 14 -3 4 -15z m100 -40 l0 -55
-35 0 c-32 0 -35 2 -35 29 0 51 17 81 45 81 24 0 25 -3 25 -55z m190 5 c0 -56
13 -50 -112 -55 l-58 -3 0 47 c0 26 3 51 7 54 3 4 42 7 85 7 l78 0 0 -50z"/>
<path d="M1092 540 c-23 -4 -46 -11 -51 -16 -10 -11 -2 -214 9 -214 3 0 12 45
18 101 6 56 13 104 17 107 14 14 29 -19 20 -46 -12 -33 -7 -174 6 -166 5 3 9
21 9 40 0 19 6 50 14 68 10 24 11 37 3 45 -7 7 -7 21 0 46 6 19 8 36 5 38 -4
2 -26 0 -50 -3z"/>
<path d="M637 163 c-9 -14 0 -77 11 -81 13 -4 26 37 20 64 -3 19 -23 30 -31
17z"/>
<path d="M1252 148 c5 -32 28 -35 28 -4 0 17 -5 26 -16 26 -10 0 -14 -7 -12
-22z"/>
<path d="M360 20 c0 -5 5 -10 10 -10 6 0 10 5 10 10 0 6 -4 10 -10 10 -5 0
-10 -4 -10 -10z"/>
</g>
</svg>
