<?xml version="1.0" standalone="no"?>
<!DOCTYPE svg PUBLIC "-//W3C//DTD SVG 20010904//EN"
 "http://www.w3.org/TR/2001/REC-SVG-20010904/DTD/svg10.dtd">
<svg version="1.0" xmlns="http://www.w3.org/2000/svg"
 width="106.000000pt" height="110.000000pt" viewBox="0 0 106.000000 110.000000"
 preserveAspectRatio="xMidYMid meet">
<metadata>
Created by potrace 1.16, written by Peter Selinger 2001-2019
</metadata>
<g transform="translate(0.000000,110.000000) scale(0.100000,-0.100000)"
fill="#000000" stroke="none">
<path d="M0 1093 c0 -7 917 -7 1020 0 25 2 -195 4 -487 5 -293 1 -533 -1 -533
-5z"/>
<path d="M444 1035 c-17 -19 -28 -23 -54 -19 -31 5 -32 4 -26 -18 22 -71 29
-66 -86 -70 -72 -3 -112 -1 -132 9 -37 17 -34 18 -41 -20 -6 -31 -9 -33 -42
-29 -36 4 -36 4 -30 -29 9 -50 28 -214 26 -225 -4 -22 2 -44 12 -44 8 0 10 20
7 65 -5 52 -2 67 11 80 27 24 31 19 31 -45 0 -33 4 -60 10 -60 6 0 10 26 10
59 0 41 4 60 14 64 17 7 26 -21 26 -86 0 -30 4 -46 10 -42 6 4 8 33 5 71 -4
52 -2 64 10 64 10 0 15 -10 15 -27 0 -48 12 -103 22 -103 6 0 7 26 3 65 l-7
65 26 0 c25 0 26 -2 26 -60 0 -33 4 -60 10 -60 6 0 10 28 10 65 l0 65 45 0 45
0 1 -45 c3 -82 8 -87 48 -46 34 35 41 38 41 16 0 -31 20 -14 21 18 0 30 1 30
10 9 11 -30 28 -20 21 13 -5 31 13 33 23 3 7 -21 8 -20 12 10 3 23 12 36 29
44 13 6 24 14 24 18 0 4 18 15 39 25 38 17 41 17 74 -1 19 -11 60 -39 91 -64
53 -43 56 -47 62 -103 7 -64 31 -76 26 -13 -2 20 0 36 5 35 23 -4 24 3 3 26
-22 24 -23 25 -10 122 7 54 19 114 26 135 15 42 11 48 -30 48 -58 0 -59 -4
-41 -140 9 -67 15 -124 13 -125 -2 -2 -30 20 -62 49 -50 44 -59 57 -61 89 -3
49 -9 53 -29 22 -9 -14 -21 -25 -27 -25 -13 0 -129 80 -190 132 -25 21 -47 38
-50 38 -2 0 -14 -11 -25 -25z m46 -9 c0 -3 -4 -8 -10 -11 -5 -3 -10 -1 -10 4
0 6 5 11 10 11 6 0 10 -2 10 -4z m-89 -59 c-8 -8 -11 -7 -11 4 0 20 13 34 18
19 3 -7 -1 -17 -7 -23z m524 4 c-4 -9 -9 -37 -12 -63 -3 -27 -9 -48 -13 -48
-8 0 -20 120 -14 132 2 3 13 4 25 1 14 -4 18 -11 14 -22z m-456 -89 c18 -139
18 -141 3 -147 -45 -17 -49 -9 -54 92 -10 177 30 220 51 55z m41 93 c-9 -11
-9 -22 -1 -46 13 -38 15 -165 2 -173 -16 -10 -29 181 -15 218 3 9 11 16 16 16
6 0 5 -6 -2 -15z m48 -100 c2 -56 0 -95 -6 -95 -19 0 -29 116 -16 168 12 44
19 21 22 -73z m36 51 c-3 -8 0 -33 6 -56 10 -36 9 -45 -4 -59 -15 -14 -16 -9
-16 50 0 36 3 69 7 72 10 11 13 8 7 -7z m-369 -26 c-3 -5 -18 -10 -33 -9 l-27
1 25 8 c35 11 42 11 35 0z m170 -40 c4 -27 4 -54 0 -60 -3 -5 -24 -10 -46 -10
-39 0 -39 0 -39 40 0 52 18 80 51 80 25 0 28 -4 34 -50z m271 31 l25 -19 -23
-16 c-33 -24 -48 -20 -48 12 0 46 10 51 46 23z m-378 -60 c4 -50 4 -51 -22
-51 -30 0 -31 2 -12 63 7 25 13 48 11 50 -1 3 3 1 8 -4 5 -4 12 -31 15 -58z
m-139 24 c2 24 21 -23 21 -52 0 -23 -5 -33 -15 -33 -10 0 -15 10 -15 33 0 17
-3 43 -5 57 -5 22 -4 22 4 5 5 -11 10 -15 10 -10z m591 15 c0 -5 -5 -10 -11
-10 -5 0 -7 5 -4 10 3 6 8 10 11 10 2 0 4 -4 4 -10z m-626 -22 c10 -40 7 -66
-11 -72 -26 -10 -33 6 -20 52 12 47 22 53 31 20z m106 -29 c0 -28 -4 -39 -15
-39 -16 0 -19 28 -9 67 9 34 24 17 24 -28z m-153 9 c-3 -7 -5 -2 -5 12 0 14 2
19 5 13 2 -7 2 -19 0 -25z m373 -128 c0 -5 -5 -10 -11 -10 -5 0 -7 5 -4 10 3
6 8 10 11 10 2 0 4 -4 4 -10z"/>
<path d="M590 537 c-20 -34 -47 -53 -85 -60 -21 -3 -21 -5 -10 -50 7 -27 6
-27 -41 -27 -27 0 -88 -5 -137 -10 -82 -10 -166 -4 -210 15 -12 5 -17 3 -17
-9 0 -10 -12 -19 -31 -23 -30 -6 -31 -7 -23 -42 5 -20 8 -85 6 -146 -1 -60 0
-120 3 -133 10 -42 22 -22 21 35 -1 45 2 58 14 58 11 0 16 -14 20 -50 4 -36 7
-45 13 -31 4 10 5 34 1 52 -4 22 -2 34 5 34 7 0 11 -20 11 -50 0 -27 5 -50 10
-50 6 0 10 23 10 50 0 28 5 50 10 50 6 0 10 -6 9 -12 -5 -42 2 -98 12 -92 7 4
9 25 7 56 -3 27 -1 51 3 54 5 3 9 -24 9 -60 0 -37 4 -66 10 -66 6 0 10 29 10
66 0 72 19 82 22 11 l1 -42 6 45 c6 43 8 45 41 47 19 2 77 6 128 9 141 9 115
27 -33 23 -106 -3 -125 -2 -126 11 0 8 0 40 1 70 1 41 -1 52 -10 44 -6 -6 -11
-39 -11 -73 0 -33 -5 -61 -10 -61 -5 0 -9 32 -9 71 0 48 -3 68 -11 63 -7 -4
-9 -22 -5 -48 3 -22 2 -54 -3 -71 -11 -37 -13 -29 -11 58 1 42 -3 67 -9 67 -7
0 -11 -27 -11 -69 0 -41 -5 -73 -11 -77 -8 -5 -9 13 -4 65 5 49 4 71 -4 71 -6
0 -11 -15 -11 -32 0 -49 -12 -108 -20 -103 -4 2 -5 27 -2 54 2 28 1 58 -4 68
-6 13 -10 -3 -14 -51 -6 -86 -30 -106 -30 -24 1 65 19 111 45 113 11 2 34 5
51 9 62 12 260 36 301 36 l41 0 7 -87 c9 -132 27 -151 20 -23 -3 64 -1 121 6
145 11 39 12 39 21 15 5 -14 8 -38 8 -55 -5 -79 1 -186 9 -181 11 7 8 244 -3
268 -8 17 -6 17 30 0 99 -46 142 -77 148 -106 13 -61 7 -80 -30 -104 -20 -13
-37 -22 -39 -20 -1 2 -6 41 -9 88 -4 46 -9 86 -12 89 -13 13 -15 -16 -6 -96
10 -95 8 -109 -14 -117 -12 -4 -14 15 -14 114 0 74 -4 121 -11 125 -7 5 -10
-32 -7 -125 l3 -132 -43 -25 c-23 -14 -42 -28 -42 -32 0 -4 12 -18 26 -32 26
-24 27 -24 38 -4 16 30 208 214 230 221 10 3 23 1 30 -6 8 -9 3 -18 -22 -39
l-33 -28 51 -54 c28 -30 58 -69 66 -88 26 -62 26 -24 0 68 -14 49 -24 96 -21
103 6 14 -83 104 -173 178 -23 19 -56 56 -72 83 -17 26 -32 47 -35 47 -3 0
-15 -15 -25 -33z m70 -61 l35 -39 -45 29 c-25 15 -47 29 -49 31 -2 1 -1 10 3
19 4 10 10 13 14 8 4 -5 23 -26 42 -48z m-129 -43 c-9 -17 -10 -17 -17 1 -4
11 -2 21 7 27 18 11 24 -5 10 -28z m-377 -74 c-8 -14 -34 -10 -34 5 0 9 7 12
20 9 11 -3 17 -9 14 -14z m643 -46 c-16 -16 -17 -15 -17 17 0 32 1 33 17 17
16 -16 16 -18 0 -34z m-724 17 c-3 -12 -8 -19 -11 -16 -5 6 5 36 12 36 2 0 2
-9 -1 -20z m812 -130 l7 -35 -26 24 c-28 26 -34 56 -13 64 15 5 22 -7 32 -53z
m-277 -65 c-15 -14 -33 -25 -40 -25 -15 1 42 50 57 50 5 0 -2 -11 -17 -25z"/>
<path d="M950 412 c-19 -9 -37 -17 -38 -18 -2 -2 7 -31 21 -66 19 -48 27 -91
32 -181 4 -68 12 -117 18 -117 6 0 7 42 3 122 -6 117 3 202 29 261 9 22 -17
22 -65 -1z m23 -67 l-6 -48 -15 37 c-13 34 -13 38 4 51 11 7 20 12 22 11 1 -2
-1 -24 -5 -51z"/>
<path d="M709 386 c-8 -8 3 -106 12 -106 5 0 9 25 9 55 0 48 -7 65 -21 51z"/>
<path d="M235 51 c-3 -5 -1 -12 5 -16 5 -3 10 1 10 9 0 18 -6 21 -15 7z"/>
</g>
</svg>
