<?xml version="1.0" standalone="no"?>
<!DOCTYPE svg PUBLIC "-//W3C//DTD SVG 20010904//EN"
 "http://www.w3.org/TR/2001/REC-SVG-20010904/DTD/svg10.dtd">
<svg version="1.0" xmlns="http://www.w3.org/2000/svg"
 width="130.000000pt" height="74.000000pt" viewBox="0 0 130.000000 74.000000"
 preserveAspectRatio="xMidYMid meet">
<metadata>
Created by potrace 1.16, written by Peter Selinger 2001-2019
</metadata>
<g transform="translate(0.000000,74.000000) scale(0.100000,-0.100000)"
fill="#000000" stroke="none">
<path d="M830 701 c-14 -4 -24 -12 -23 -17 1 -5 5 -22 8 -37 6 -23 4 -27 -15
-27 -12 0 -28 -7 -36 -15 -8 -8 -21 -12 -29 -9 -26 10 -34 -5 -19 -34 8 -16
14 -56 14 -99 0 -68 12 -104 22 -65 5 17 19 19 137 21 83 1 131 -2 131 -8 0
-6 -6 -8 -14 -5 -13 5 -14 -13 -9 -122 6 -123 5 -127 -13 -120 -10 4 -23 8
-27 9 -10 2 -37 -72 -28 -77 4 -3 27 0 51 5 25 5 81 13 125 17 76 7 80 8 81
32 14 237 29 365 50 438 l7 23 -198 -1 c-108 -1 -199 1 -202 3 -2 3 5 23 16
46 12 22 21 43 21 46 0 6 -18 5 -50 -4z m340 -126 c0 -10 -10 -15 -27 -15 -16
-1 -90 -3 -167 -6 -112 -5 -138 -4 -134 7 3 9 28 15 79 17 41 1 79 5 84 7 6 2
45 4 88 4 62 1 77 -2 77 -14z m40 -2 c0 -10 -5 -25 -10 -33 -7 -11 -10 -7 -10
18 0 17 5 32 10 32 6 0 10 -8 10 -17z m-401 -42 c7 -5 10 -14 7 -20 -10 -16
-56 -14 -56 2 0 26 23 35 49 18z m364 -12 c5 -17 -5 -18 -164 -21 -153 -3
-169 -1 -169 14 0 20 22 22 207 24 110 2 122 0 126 -17z m7 -59 c0 -19 -7 -20
-215 -20 -172 0 -215 3 -215 13 0 8 3 17 7 20 3 4 100 7 215 7 201 0 208 -1
208 -20z m-4 -167 c-3 -70 -10 -131 -15 -136 -5 -5 -37 -7 -72 -5 l-64 3 1 60
c0 33 2 93 5 132 l4 73 74 0 74 0 -7 -127z m-171 -163 c-28 -12 -45 -12 -45 0
0 6 15 10 33 9 27 0 29 -2 12 -9z"/>
<path d="M468 643 c-16 -2 -28 -11 -28 -19 0 -11 -26 -14 -142 -15 -79 -1
-160 0 -181 1 -28 1 -37 -2 -37 -14 0 -11 -9 -16 -26 -16 -25 0 -26 -2 -20
-37 3 -21 6 -71 6 -111 0 -50 3 -71 11 -66 6 3 9 15 6 25 -3 12 2 23 13 29 30
16 40 12 40 -17 0 -16 5 -35 10 -43 11 -16 10 -18 13 40 2 24 5 25 73 28 l71
3 7 -32 c3 -17 6 -78 6 -135 0 -103 0 -104 -24 -104 -19 0 -26 -7 -31 -31 -9
-40 -1 -46 38 -27 26 13 120 33 197 42 11 1 16 18 17 71 4 97 22 352 30 397 6
40 7 39 -49 31z m28 -39 c-3 -9 -6 -30 -7 -47 -1 -31 -1 -31 -9 -7 -14 43 -11
70 6 70 11 0 14 -5 10 -16z m-42 -30 c4 -9 5 -19 3 -21 -3 -2 -88 -7 -191 -10
-127 -4 -186 -3 -186 4 0 6 39 16 88 23 48 6 94 13 102 15 8 1 52 3 96 4 67 1
83 -2 88 -15z m6 -64 c0 -19 -6 -20 -157 -18 -246 4 -185 28 90 36 61 2 67 0
67 -18z m-360 -5 c0 -8 -9 -15 -20 -15 -20 0 -26 11 -13 23 12 13 33 7 33 -8z
m9 -49 c-2 -2 -14 -7 -26 -10 -17 -5 -23 -3 -23 8 0 17 30 27 44 14 5 -4 8 -9
5 -12z m361 8 c0 -16 -50 -20 -207 -16 -87 2 -123 7 -123 15 0 9 44 12 165 13
126 0 165 -3 165 -12z m2 -164 c-2 -69 -7 -128 -10 -131 -4 -4 -40 -10 -79
-13 l-73 -7 0 71 c0 39 5 103 12 141 l11 70 71 -3 71 -3 -3 -125z m-192 -170
c0 -5 -4 -10 -10 -10 -5 0 -10 5 -10 10 0 6 5 10 10 10 6 0 10 -4 10 -10z"/>
<path d="M556 282 c-7 -12 5 -82 14 -82 12 0 33 58 26 75 -6 16 -31 20 -40 7z"/>
<path d="M1234 265 c-4 -9 -2 -21 4 -27 15 -15 44 -1 40 19 -4 23 -36 29 -44
8z"/>
</g>
</svg>
