<?xml version="1.0" standalone="no"?>
<!DOCTYPE svg PUBLIC "-//W3C//DTD SVG 20010904//EN"
 "http://www.w3.org/TR/2001/REC-SVG-20010904/DTD/svg10.dtd">
<svg version="1.0" xmlns="http://www.w3.org/2000/svg"
 width="134.000000pt" height="160.000000pt" viewBox="0 0 134.000000 160.000000"
 preserveAspectRatio="xMidYMid meet">
<metadata>
Created by potrace 1.16, written by Peter Selinger 2001-2019
</metadata>
<g transform="translate(0.000000,160.000000) scale(0.100000,-0.100000)"
fill="#000000" stroke="none">
<path d="M393 1534 c-9 -14 -17 -35 -18 -47 -2 -33 -22 -31 -30 2 -4 17 -11
33 -16 36 -14 9 -58 -28 -59 -48 0 -18 -43 -61 -107 -106 -30 -22 -38 -24 -74
-14 -44 12 -44 12 -54 -35 l-7 -34 57 7 c48 6 58 5 70 -11 14 -18 15 -18 21 4
8 29 49 31 57 2 7 -27 21 -25 34 3 11 23 16 24 169 30 87 3 160 4 162 2 6 -6
-45 -73 -77 -103 -27 -24 -22 -36 20 -45 23 -6 26 -2 36 36 7 23 23 59 38 81
17 25 23 42 16 50 -5 6 -12 48 -16 94 -5 50 -12 82 -19 82 -6 0 -21 -16 -34
-36 l-23 -35 30 -50 31 -49 -50 0 c-47 0 -50 2 -68 38 -11 20 -27 67 -38 105
-10 37 -22 67 -26 67 -4 0 -15 -12 -25 -26z m30 -54 c3 -11 1 -20 -4 -20 -5 0
-9 2 -9 4 0 2 -3 11 -6 20 -3 9 -2 16 4 16 5 0 12 -9 15 -20z m-93 -11 c0 -6
-4 -7 -10 -4 -5 3 -10 11 -10 16 0 6 5 7 10 4 6 -3 10 -11 10 -16z m264 -44
l6 -40 -16 28 c-8 16 -13 36 -10 44 9 21 12 15 20 -32z m-314 -45 c-41 -35
-80 -52 -80 -33 0 4 21 29 47 55 42 43 49 46 62 33 14 -14 11 -20 -29 -55z
m158 28 c41 -51 41 -66 2 -60 -23 3 -35 13 -49 41 -35 69 -4 82 47 19z m-68
-27 c18 -34 11 -41 -36 -41 l-46 0 24 29 c27 35 43 38 58 12z"/>
<path d="M963 1499 c-31 -18 -71 -54 -100 -90 l-48 -59 -52 5 -53 5 0 -31 c0
-26 3 -30 18 -24 9 4 72 10 139 13 l121 4 13 -41 c7 -22 16 -41 21 -41 11 0
10 23 -2 54 -8 22 -7 26 10 26 13 0 22 -9 26 -25 3 -14 11 -25 16 -25 6 0 7
11 4 25 -6 25 -6 25 65 25 l71 0 -23 -37 c-13 -21 -27 -46 -33 -55 -12 -20 9
-50 33 -46 14 3 43 108 41 148 -5 84 -13 150 -19 150 -28 0 -52 -64 -32 -85 5
-6 12 -20 16 -32 6 -22 4 -23 -65 -23 -67 0 -71 1 -82 28 -6 15 -12 57 -12 95
0 41 -4 67 -10 66 -6 -1 -34 -14 -63 -30z m57 -25 c0 -8 -4 -12 -10 -9 -5 3
-10 10 -10 16 0 5 5 9 10 9 6 0 10 -7 10 -16z m-7 -61 c21 -58 21 -73 3 -73
-16 0 -36 50 -36 91 0 43 14 35 33 -18z m-73 18 c0 -22 -52 -69 -58 -52 -4 13
36 71 49 71 5 0 9 -9 9 -19z m257 -13 c-3 -8 -6 -5 -6 6 -1 11 2 17 5 13 3 -3
4 -12 1 -19z m-229 -43 c16 -35 16 -35 -18 -35 -33 0 -37 9 -18 40 17 26 22
25 36 -5z m219 -157 c-3 -8 -6 -5 -6 6 -1 11 2 17 5 13 3 -3 4 -12 1 -19z"/>
<path d="M663 1229 c-8 -8 -8 -19 0 -40 14 -36 25 -37 33 -3 8 31 -15 61 -33
43z"/>
<path d="M1287 1212 c-8 -11 4 -62 14 -62 13 0 31 40 25 56 -6 15 -32 19 -39
6z"/>
<path d="M914 949 c-38 -39 -81 -78 -96 -87 -16 -9 -28 -25 -28 -35 0 -21 -19
-21 -107 -2 -33 7 -33 7 -33 -30 0 -36 0 -37 33 -28 17 4 106 7 197 7 178 -2
165 1 208 -60 12 -18 13 -18 9 1 -3 11 -8 28 -12 38 -12 29 30 21 43 -8 11
-23 9 -29 -13 -49 -29 -27 -32 -41 -9 -50 27 -10 44 -7 44 10 0 9 14 40 31 67
l31 51 -16 51 c-9 28 -19 72 -22 98 -7 53 -12 56 -37 27 -22 -26 -22 -35 7
-73 13 -18 28 -48 35 -67 10 -29 9 -37 -7 -53 -17 -16 -20 -17 -25 -3 -5 11 0
16 14 16 11 0 17 5 14 10 -3 6 -15 10 -25 10 -23 0 -57 70 -73 153 -6 31 -14
57 -17 57 -3 0 -49 -43 -102 -95 -90 -89 -118 -109 -118 -86 0 10 39 59 75 96
62 64 86 93 78 98 -5 3 -41 -26 -79 -64z m162 -87 c29 -66 29 -72 4 -72 -15 0
-24 14 -40 66 -11 36 -20 71 -20 76 0 23 34 -19 56 -70z m-67 -8 c29 -37 28
-68 -1 -60 -13 3 -37 6 -55 6 -35 0 -36 10 -5 58 19 29 36 28 61 -4z m-179
-24 c0 -5 -5 -10 -11 -10 -5 0 -7 5 -4 10 3 6 8 10 11 10 2 0 4 -4 4 -10z"/>
<path d="M230 951 c-90 -92 -108 -103 -150 -96 -37 6 -38 5 -45 -25 -9 -43 1
-50 60 -40 63 11 265 13 265 3 0 -5 7 -16 15 -27 18 -24 39 -12 25 15 -10 18
-7 19 62 19 l72 0 -42 -43 -42 -42 26 -29 c15 -15 30 -24 34 -19 4 4 15 33 24
63 8 31 27 67 41 80 24 23 34 50 17 50 -4 0 -13 -5 -19 -11 -8 -8 -13 3 -18
38 -10 75 -19 83 -52 50 -20 -20 -25 -31 -18 -41 6 -8 21 -29 34 -47 l25 -32
-50 7 c-58 7 -74 24 -100 108 -11 32 -24 58 -30 58 -7 0 -29 -21 -50 -47 -53
-65 -104 -116 -110 -110 -8 8 15 47 57 99 67 80 43 95 -31 19z m150 -73 c36
-49 37 -61 9 -56 -15 2 -27 17 -40 51 -23 58 -9 61 31 5z m150 26 c0 -8 -5
-12 -10 -9 -6 4 -8 11 -5 16 9 14 15 11 15 -7z m-344 -51 c-10 -10 -19 5 -10
18 6 11 8 11 12 0 2 -7 1 -15 -2 -18z m132 -5 c18 -18 14 -26 -13 -24 -24 1
-33 15 -18 29 9 10 17 9 31 -5z m184 -130 c-7 -7 -12 -8 -12 -2 0 14 12 26 19
19 2 -3 -1 -11 -7 -17z"/>
<path d="M587 723 c-8 -13 5 -73 14 -73 13 0 30 47 23 65 -6 16 -30 20 -37 8z"/>
<path d="M1247 713 c-6 -12 -1 -62 7 -70 11 -11 26 18 26 50 0 25 -23 39 -33
20z"/>
<path d="M1040 510 c0 -5 5 -10 10 -10 6 0 10 5 10 10 0 6 -4 10 -10 10 -5 0
-10 -4 -10 -10z"/>
<path d="M948 405 c-24 -31 -23 -35 12 -83 48 -67 44 -72 -59 -72 -102 0 -101
-1 -101 103 0 60 -7 68 -33 39 -21 -23 -21 -35 -3 -70 7 -15 17 -37 21 -50 6
-22 4 -23 -27 -20 -33 3 -33 3 -36 61 -3 58 -11 67 -42 47 -13 -8 -13 -15 2
-57 9 -26 15 -49 13 -51 -2 -2 -22 -1 -44 3 -29 5 -41 12 -41 23 0 24 36 79
59 92 22 11 28 30 10 30 -6 0 -49 -30 -96 -66 l-86 -66 -59 11 c-33 6 -65 15
-72 20 -17 14 -33 0 -40 -36 -10 -43 -2 -55 28 -43 13 5 50 12 83 15 l58 7 30
-99 c39 -125 59 -133 62 -23 3 90 9 120 26 120 8 0 13 -25 15 -78 2 -42 7 -81
11 -85 10 -10 35 139 26 153 -3 5 3 10 14 10 15 0 23 -10 30 -37 6 -21 11 -43
11 -50 0 -6 4 -24 10 -38 17 -46 28 -18 14 37 -20 74 -19 78 20 78 33 0 35 -2
56 -66 13 -39 26 -62 31 -57 6 6 3 27 -6 52 -24 70 -24 71 60 71 43 0 75 -4
75 -10 0 -5 -22 -27 -49 -47 -44 -33 -50 -43 -50 -75 -1 -21 3 -38 8 -38 4 0
21 19 37 43 15 23 44 62 63 86 l34 43 -16 67 c-9 36 -18 79 -19 95 -4 38 -18
42 -40 11z m19 -47 c-3 -8 -6 -5 -6 6 -1 11 2 17 5 13 3 -3 4 -12 1 -19z
m-376 -72 c-8 -19 -17 -26 -38 -26 l-28 1 35 28 c19 16 36 28 38 27 1 -2 -2
-15 -7 -30z m-176 -26 c4 -6 -8 -10 -29 -10 -20 0 -36 5 -36 10 0 6 13 10 29
10 17 0 33 -4 36 -10z m152 -84 c-1 -35 -5 -62 -8 -60 -8 4 -29 85 -29 108 0
9 9 16 20 16 18 0 20 -6 17 -64z"/>
<path d="M1100 225 c-10 -12 -10 -19 -2 -27 17 -17 41 -2 35 21 -6 25 -16 26
-33 6z"/>
</g>
</svg>
