<?xml version="1.0" standalone="no"?>
<!DOCTYPE svg PUBLIC "-//W3C//DTD SVG 20010904//EN"
 "http://www.w3.org/TR/2001/REC-SVG-20010904/DTD/svg10.dtd">
<svg version="1.0" xmlns="http://www.w3.org/2000/svg"
 width="117.000000pt" height="56.000000pt" viewBox="0 0 117.000000 56.000000"
 preserveAspectRatio="xMidYMid meet">
<metadata>
Created by potrace 1.16, written by Peter Selinger 2001-2019
</metadata>
<g transform="translate(0.000000,56.000000) scale(0.100000,-0.100000)"
fill="#000000" stroke="none">
<path d="M237 524 c-4 -4 -7 -18 -7 -31 0 -23 1 -23 83 -17 45 3 87 7 94 9 15
5 20 -12 28 -95 l6 -65 -125 0 c-84 1 -126 -3 -126 -10 0 -7 39 -10 125 -7
l125 4 0 -30 c0 -37 -9 -64 -20 -57 -5 3 -41 2 -80 -1 -42 -4 -66 -10 -59 -15
8 -4 42 -5 76 -2 l63 6 -9 -24 c-8 -23 -11 -24 -120 -24 -94 0 -111 2 -109 15
2 8 16 16 33 18 41 5 57 22 20 22 -28 0 -28 0 -9 21 17 20 27 21 107 16 61 -3
87 -1 87 7 0 7 -41 11 -130 12 -72 1 -130 -2 -130 -7 0 -5 12 -9 26 -9 30 0
28 -20 -4 -36 -12 -6 -19 -14 -15 -17 11 -12 -29 -47 -54 -47 -14 0 -21 -4
-18 -10 4 -6 11 -8 16 -5 17 11 9 -12 -10 -29 -12 -11 -27 -15 -39 -11 -11 3
-23 1 -27 -5 -4 -6 7 -10 30 -10 30 0 37 -5 46 -28 l11 -27 13 25 c13 25 14
25 157 25 79 0 149 4 157 9 12 7 13 41 8 190 -3 100 -9 189 -12 197 -4 10 -34
19 -93 28 -48 8 -92 15 -98 18 -5 2 -13 0 -17 -3z m46 -31 c-7 -2 -19 -2 -25
0 -7 3 -2 5 12 5 14 0 19 -2 13 -5z m157 -343 c0 -33 -3 -40 -20 -40 -11 0
-20 2 -20 5 0 7 33 75 37 75 2 0 3 -18 3 -40z m-57 -8 c4 -2 3 -10 -4 -18 -8
-10 -38 -14 -115 -14 -57 0 -104 2 -104 4 0 2 3 12 6 21 6 15 21 16 108 14 56
-1 105 -5 109 -7z m-243 -22 c0 -5 -5 -10 -11 -10 -5 0 -7 5 -4 10 3 6 8 10
11 10 2 0 4 -4 4 -10z"/>
<path d="M736 459 c-16 -32 -27 -62 -24 -64 3 -3 22 4 42 16 34 20 46 21 144
15 150 -10 202 -17 202 -29 0 -7 -36 -8 -106 -4 -79 5 -105 4 -102 -5 3 -7 37
-13 94 -16 49 -2 91 -5 93 -7 5 -5 -7 -47 -18 -64 -6 -10 -31 -13 -91 -12 -45
1 -85 3 -88 4 -4 1 -8 -2 -10 -6 -1 -4 34 -9 78 -11 44 -1 83 -6 87 -9 4 -4
-1 -23 -11 -43 -12 -25 -20 -33 -29 -27 -7 5 -43 11 -82 12 -38 1 -72 5 -75 7
-10 11 26 24 51 19 14 -3 36 -1 50 4 21 9 19 10 -21 11 -25 0 -55 3 -67 6 -16
4 -23 2 -23 -7 -1 -8 -26 -42 -58 -76 l-57 -62 -39 19 c-43 22 -56 19 -56 -11
0 -11 -5 -29 -11 -41 -12 -23 -5 -35 13 -21 7 6 29 13 49 17 33 6 39 3 57 -21
l20 -28 13 29 c12 26 16 28 74 25 33 -1 92 -1 131 0 l71 1 17 88 c10 48 31
127 47 175 16 49 29 89 29 91 0 2 -64 6 -142 10 -149 7 -180 16 -193 56 -11
34 -29 22 -59 -41z m63 2 c9 -16 6 -20 -15 -25 -33 -9 -39 -3 -22 23 16 26 24
26 37 2z m231 -320 c-8 -31 -16 -41 -31 -41 -23 0 -23 -1 11 57 29 49 36 43
20 -16z m-30 41 c0 -9 -28 -51 -50 -73 -20 -21 -174 -27 -167 -7 3 9 26 12 80
10 51 -3 77 0 77 7 0 7 -26 11 -70 11 -40 0 -70 4 -70 10 0 6 9 10 20 10 11 0
20 5 20 10 0 6 -7 10 -16 10 -8 0 -12 5 -9 10 7 12 185 14 185 2z m-235 -69
c-12 -17 -20 -23 -23 -15 -4 14 28 56 36 47 3 -2 -3 -17 -13 -32z m-81 -11
c11 -6 -14 -22 -36 -22 -11 0 -15 6 -11 19 5 18 18 19 47 3z"/>
<path d="M895 149 c55 -11 75 -11 75 1 0 6 -25 9 -57 9 -57 -1 -58 -1 -18 -10z"/>
<path d="M237 454 c-4 -4 -7 -18 -7 -32 0 -21 3 -23 23 -17 12 4 55 9 95 12
39 3 72 9 72 13 0 4 -33 10 -72 12 -40 3 -80 9 -89 12 -8 4 -18 3 -22 0z"/>
<path d="M202 379 c3 -10 27 -15 84 -16 90 -2 76 10 -25 22 -51 6 -63 5 -59
-6z"/>
<path d="M866 342 c-11 -18 10 -23 84 -21 81 2 96 19 18 19 -29 0 -63 3 -74 6
-12 3 -25 1 -28 -4z"/>
<path d="M1040 330 c0 -5 5 -10 10 -10 6 0 10 5 10 10 0 6 -4 10 -10 10 -5 0
-10 -4 -10 -10z"/>
<path d="M1126 113 c-3 -8 -4 -19 -1 -23 8 -13 35 -1 35 15 0 19 -27 26 -34 8z"/>
<path d="M523 70 c1 -22 5 -40 9 -40 11 0 21 47 14 65 -11 29 -25 14 -23 -25z"/>
</g>
</svg>
