<?xml version="1.0" standalone="no"?>
<!DOCTYPE svg PUBLIC "-//W3C//DTD SVG 20010904//EN"
 "http://www.w3.org/TR/2001/REC-SVG-20010904/DTD/svg10.dtd">
<svg version="1.0" xmlns="http://www.w3.org/2000/svg"
 width="128.000000pt" height="266.000000pt" viewBox="0 0 128.000000 266.000000"
 preserveAspectRatio="xMidYMid meet">
<metadata>
Created by potrace 1.16, written by Peter Selinger 2001-2019
</metadata>
<g transform="translate(0.000000,266.000000) scale(0.100000,-0.100000)"
fill="#000000" stroke="none">
<path d="M448 2619 c-24 -14 -23 -20 11 -63 17 -21 39 -66 51 -102 12 -35 26
-64 31 -64 11 0 11 3 -1 35 -11 29 -9 30 53 39 34 4 39 2 49 -22 l12 -27 4 28
c4 31 28 36 37 7 3 -11 11 -20 17 -20 6 0 7 8 3 18 -3 9 -9 39 -12 65 -6 53
-30 61 -25 9 2 -24 -1 -32 -12 -32 -11 0 -16 10 -16 31 0 20 -4 29 -12 26 -7
-2 -12 -17 -11 -32 l2 -27 -51 6 c-29 4 -55 9 -60 12 -4 3 -13 32 -20 64 -12
61 -19 67 -50 49z m32 -40 c0 -6 -4 -7 -10 -4 -5 3 -10 11 -10 16 0 6 5 7 10
4 6 -3 10 -11 10 -16z"/>
<path d="M816 2562 c-3 -5 -1 -23 4 -40 5 -18 5 -34 0 -37 -11 -7 -16 2 -25
43 -10 47 -28 41 -20 -8 8 -46 -11 -57 -21 -12 -10 45 -13 52 -25 52 -7 0 -9
-9 -4 -27 4 -16 7 -36 7 -45 -1 -22 24 -43 33 -28 5 8 11 7 22 -1 12 -10 16
-10 23 1 7 11 11 11 23 1 10 -8 17 -9 22 -2 4 7 52 10 128 8 76 -1 122 2 122
8 0 6 -47 10 -120 10 -66 0 -126 4 -132 8 -7 5 -13 21 -13 37 0 29 -14 48 -24
32z"/>
<path d="M431 2463 c-12 -27 -52 -87 -89 -135 -62 -83 -68 -88 -102 -88 -20 0
-59 7 -86 15 -63 19 -64 19 -64 -6 0 -11 -5 -30 -11 -41 -10 -19 -9 -20 22
-14 19 3 66 8 104 12 70 6 70 6 101 -27 38 -41 134 -201 134 -222 0 -9 -18
-31 -40 -48 -22 -18 -40 -38 -40 -46 0 -18 7 -17 43 10 47 33 139 88 165 98
35 14 29 33 -43 128 -30 39 -44 70 -49 104 -4 26 -10 47 -13 47 -3 0 -16 -12
-30 -26 l-23 -26 46 -51 c80 -89 81 -91 48 -131 -16 -19 -32 -35 -36 -35 -13
-2 -122 193 -134 238 -11 44 -10 48 19 91 17 25 54 68 83 95 51 49 52 51 38
78 -8 15 -16 27 -17 27 -2 0 -13 -21 -26 -47z m-281 -233 c11 -7 7 -10 -18
-10 -20 0 -31 4 -27 10 8 13 26 13 45 0z m160 -6 c0 -8 -5 -12 -10 -9 -6 4 -8
11 -5 16 9 14 15 11 15 -7z m150 -34 c0 -5 -2 -10 -4 -10 -3 0 -8 5 -11 10 -3
6 -1 10 4 10 6 0 11 -4 11 -10z m100 -183 c0 -7 -18 -22 -40 -35 -48 -27 -51
-19 -8 25 30 31 48 35 48 10z"/>
<path d="M1180 2493 c-45 -7 -53 -12 -42 -26 6 -6 13 -29 17 -49 l7 -38 -170
0 c-152 0 -171 2 -177 18 -6 15 -8 14 -17 -8 l-10 -25 -11 23 c-11 24 -33 31
-23 7 3 -8 1 -15 -4 -15 -6 0 -10 7 -10 15 0 8 -4 15 -10 15 -5 0 -10 -7 -10
-15 0 -20 -17 -19 -29 3 -9 16 -10 16 -17 -1 -5 -15 -9 -16 -15 -5 -7 10 -11
10 -17 1 -4 -6 -25 -13 -47 -15 -36 -3 -40 -6 -43 -32 -3 -24 -1 -28 15 -21
58 23 78 25 91 8 6 -9 12 -23 12 -31 0 -7 4 -11 10 -7 6 4 6 15 0 33 -9 23 -8
24 2 10 7 -9 18 -25 25 -35 10 -15 11 -11 6 22 -6 36 -5 39 10 26 10 -7 17
-22 17 -33 0 -10 4 -17 9 -14 5 3 7 15 4 26 -3 11 0 20 6 20 6 0 12 -9 12 -20
3 -36 4 -40 14 -37 5 1 8 18 7 37 -1 28 0 31 7 15 5 -11 10 -30 10 -42 1 -20
17 -40 26 -31 2 2 0 20 -4 40 -8 36 -8 36 28 40 20 3 95 6 168 7 130 2 131 2
135 -21 5 -37 22 -17 24 29 1 23 11 58 23 78 19 33 21 57 3 54 -4 -1 -18 -4
-32 -6z m10 -37 c0 -3 -4 -8 -10 -11 -5 -3 -10 -1 -10 4 0 6 5 11 10 11 6 0
10 -2 10 -4z m-593 -102 c-3 -3 -12 -4 -19 -1 -8 3 -5 6 6 6 11 1 17 -2 13 -5z"/>
<path d="M865 1716 c-27 -12 -30 -17 -30 -61 0 -49 -9 -62 -33 -46 -11 6 -11
17 -3 47 12 43 8 52 -14 34 -11 -9 -14 -22 -9 -46 5 -26 3 -34 -8 -34 -12 0
-14 10 -10 47 4 44 3 46 -13 33 -12 -10 -15 -23 -12 -47 4 -25 2 -33 -9 -33
-12 0 -14 9 -8 45 6 46 -3 58 -25 31 -6 -8 -8 -27 -4 -46 l6 -33 -46 6 c-40 6
-47 4 -47 -11 0 -9 5 -24 10 -32 8 -12 13 -13 30 -2 40 24 50 16 50 -43 0 -35
-5 -57 -14 -62 -7 -4 -15 -15 -18 -23 -7 -20 -94 166 -103 219 -4 23 -8 41
-10 41 -2 0 -15 -10 -29 -22 l-25 -23 32 -33 32 -33 -26 -22 c-14 -12 -45 -38
-69 -57 -24 -19 -48 -39 -54 -45 -6 -5 -37 -30 -68 -54 l-58 -43 -94 4 -94 4
2 -38 c1 -21 5 -38 9 -38 4 1 30 12 59 25 29 14 62 25 73 25 12 0 43 -23 71
-52 50 -51 154 -196 154 -213 0 -12 -57 -61 -113 -97 -29 -18 -45 -34 -39 -40
5 -5 39 10 83 40 41 26 102 65 137 86 34 21 62 39 62 41 0 2 -22 43 -49 90
-27 47 -57 105 -67 130 -18 48 -37 55 -57 23 -9 -13 -4 -24 24 -55 35 -39 99
-127 99 -137 0 -8 -59 -70 -63 -65 -25 33 -93 149 -119 202 l-33 68 40 35 c63
54 187 135 202 132 10 -2 78 -130 96 -182 2 -5 12 -4 24 2 15 8 19 18 16 37
-4 19 -1 25 11 25 10 0 15 -4 11 -9 -3 -5 -1 -12 5 -16 5 -3 10 1 10 9 0 25
20 28 29 4 l8 -23 7 23 c10 31 46 30 46 -2 0 -14 5 -28 10 -31 6 -4 10 7 10
24 l0 31 135 0 135 0 0 -46 c0 -30 4 -44 12 -42 8 3 12 36 12 99 1 69 6 103
19 128 9 19 17 38 17 43 0 12 -78 10 -85 -2 -4 -6 -52 -9 -121 -8 -128 2 -126
1 -82 77 23 41 14 54 -27 37z m275 -141 c0 -8 -4 -15 -10 -15 -5 0 -10 7 -10
15 0 8 5 15 10 15 6 0 10 -7 10 -15z m-412 -52 c-2 -35 -8 -58 -16 -61 -9 -3
-12 8 -8 45 2 26 5 54 5 61 1 6 6 12 11 12 7 0 10 -22 8 -57z m43 -9 c-3 -64
-6 -73 -21 -58 -14 14 -1 126 13 121 7 -2 10 -28 8 -63z m62 16 c-1 -25 -2
-53 -2 -62 -1 -11 -9 -18 -20 -18 -22 0 -29 26 -23 88 4 37 7 43 26 40 18 -3
21 -9 19 -48z m271 35 c3 -8 8 -37 12 -65 l7 -50 -137 0 -137 0 2 38 c0 20 3
49 6 65 l5 27 118 0 c95 0 119 -3 124 -15z m-416 -173 c6 -18 -15 -14 -22 4
-4 10 -1 14 6 12 6 -2 14 -10 16 -16z m-548 -46 c0 -3 -4 -8 -10 -11 -5 -3
-10 -1 -10 4 0 6 5 11 10 11 6 0 10 -2 10 -4z m191 -29 c12 -22 12 -22 -10 -3
-11 11 -21 23 -21 28 0 14 19 -1 31 -25z m119 23 c0 -5 -2 -10 -4 -10 -3 0 -8
5 -11 10 -3 6 -1 10 4 10 6 0 11 -4 11 -10z m91 -231 c-13 -11 -26 -17 -28
-15 -8 8 21 35 37 35 10 0 8 -6 -9 -20z"/>
<path d="M1259 1108 c-1 -2 -3 -22 -3 -45 -2 -30 2 -43 11 -43 9 0 13 15 13
45 0 25 -4 45 -10 45 -5 0 -11 -1 -11 -2z"/>
<path d="M305 820 c-10 -11 -24 -20 -32 -20 -19 0 -16 -24 7 -45 11 -10 34
-40 52 -67 l31 -50 -18 -35 c-11 -19 -41 -55 -68 -78 -45 -39 -52 -42 -81 -34
-17 5 -39 9 -48 9 -19 0 -53 -56 -39 -64 9 -6 71 15 71 24 0 3 58 4 130 2 88
-3 130 0 130 7 0 7 -32 11 -91 11 l-91 0 54 45 c29 25 63 48 75 51 13 4 23 9
23 12 0 3 -19 37 -41 75 -38 65 -41 74 -36 123 6 58 0 65 -28 34z m10 -49 c2
-11 0 -21 -5 -21 -11 0 -21 30 -14 42 8 12 14 6 19 -21z m65 -171 c0 -5 -5
-10 -11 -10 -5 0 -7 5 -4 10 3 6 8 10 11 10 2 0 4 -4 4 -10z"/>
<path d="M627 736 c-13 -10 -17 -25 -15 -56 2 -30 -1 -44 -11 -48 -11 -4 -13
6 -7 52 7 61 0 68 -31 34 -15 -17 -18 -29 -13 -43 15 -35 11 -37 -65 -30 l-75
7 0 -25 c0 -30 15 -43 33 -29 7 5 39 13 71 17 l59 7 -7 -47 c-3 -27 -6 -56 -6
-67 0 -17 -5 -18 -49 -12 l-49 6 0 -36 c0 -36 6 -43 24 -27 5 4 24 11 42 14
29 6 32 4 32 -18 0 -34 18 -32 22 2 5 42 28 41 28 -1 0 -20 5 -36 10 -36 6 0
10 16 10 35 0 24 5 35 15 35 11 0 15 -12 15 -45 0 -25 5 -45 10 -45 6 0 10 20
10 45 0 25 5 45 10 45 6 0 10 -20 10 -45 0 -25 5 -45 10 -45 6 0 10 20 10 45
0 34 4 45 16 45 12 0 15 -9 12 -37 -1 -21 2 -38 7 -38 6 0 11 17 13 38 l3 37
92 1 c51 1 128 2 172 3 l80 1 -3 -52 c-3 -43 -1 -53 12 -53 13 0 16 13 17 73
1 79 1 84 20 157 14 56 10 67 -19 51 -13 -7 -87 -11 -186 -11 -153 0 -166 1
-166 18 0 10 7 27 15 38 8 10 15 27 15 37 0 14 -5 17 -21 12 -36 -12 -84 -12
-91 -2 -4 7 -13 6 -24 -4 -13 -11 -18 -11 -21 -1 -6 15 -13 15 -36 -2z m42
-78 c1 -10 -6 -18 -14 -18 -16 0 -18 12 -8 49 6 23 7 23 14 5 4 -10 8 -27 8
-36z m50 0 c1 -10 -6 -18 -15 -18 -12 0 -15 6 -10 23 3 12 6 29 7 37 1 20 17
-18 18 -42z m50 0 c1 -10 -6 -18 -15 -18 -12 0 -15 6 -10 23 3 12 6 29 7 37 1
20 17 -18 18 -42z m376 -50 c-11 -36 -25 -45 -25 -17 0 27 7 39 22 39 5 0 6
-10 3 -22z m-530 -50 c-8 -70 -11 -76 -26 -61 -16 16 -1 123 18 123 12 0 14
-11 8 -62z m55 20 c0 -58 -9 -88 -27 -88 -12 0 -14 11 -9 58 3 31 5 60 5 65 1
4 8 7 16 7 11 0 15 -11 15 -42z m41 29 c-1 -4 -1 -32 -1 -62 0 -44 -3 -55 -16
-55 -14 0 -15 7 -10 38 3 20 6 50 6 65 0 16 5 27 11 25 6 -2 10 -7 10 -11z
m52 -8 c-10 -85 -16 -109 -27 -109 -10 0 -12 14 -9 53 3 28 6 58 9 65 5 18 30
9 27 -9z m326 2 c16 -16 38 -88 29 -96 -2 -2 -81 -7 -176 -11 l-172 -7 0 22
c0 12 5 42 11 67 l11 44 139 0 c122 0 141 -2 158 -19z m-569 -131 c-19 -13
-30 -13 -30 0 0 6 10 10 23 10 18 0 19 -2 7 -10z"/>
<path d="M336 525 c4 -8 8 -15 10 -15 2 0 4 7 4 15 0 8 -4 15 -10 15 -5 0 -7
-7 -4 -15z"/>
<path d="M192 417 c-12 -13 -22 -26 -22 -29 0 -2 23 -20 51 -39 31 -21 72 -64
107 -113 31 -43 63 -86 70 -96 11 -16 7 -21 -45 -47 -55 -30 -79 -53 -51 -53
7 0 27 9 43 21 45 31 194 103 245 119 25 7 47 15 49 17 5 4 -42 42 -53 43 -4
0 -35 -22 -68 -50 -33 -28 -67 -50 -76 -50 -17 0 -151 179 -195 259 -12 22
-25 41 -28 41 -3 0 -15 -10 -27 -23z m38 -40 c0 -5 -4 -5 -10 -2 -5 3 -10 14
-10 23 0 15 2 15 10 2 5 -8 10 -19 10 -23z m360 -171 c0 -2 -7 -7 -16 -10 -8
-3 -12 -2 -9 4 6 10 25 14 25 6z"/>
<path d="M332 420 c-14 -23 -15 -30 -3 -30 8 0 24 41 18 47 -2 1 -8 -7 -15
-17z"/>
<path d="M387 422 c-10 -10 -17 -22 -17 -25 0 -4 24 -30 53 -59 28 -29 64 -69
78 -88 38 -49 46 -32 9 19 -17 22 -45 70 -62 106 -18 36 -35 65 -39 65 -3 0
-13 -8 -22 -18z"/>
<path d="M1246 54 c-8 -20 1 -34 20 -34 8 0 14 10 14 25 0 28 -24 34 -34 9z"/>
</g>
</svg>
