<?xml version="1.0" standalone="no"?>
<!DOCTYPE svg PUBLIC "-//W3C//DTD SVG 20010904//EN"
 "http://www.w3.org/TR/2001/REC-SVG-20010904/DTD/svg10.dtd">
<svg version="1.0" xmlns="http://www.w3.org/2000/svg"
 width="135.000000pt" height="80.000000pt" viewBox="0 0 135.000000 80.000000"
 preserveAspectRatio="xMidYMid meet">
<metadata>
Created by potrace 1.16, written by Peter Selinger 2001-2019
</metadata>
<g transform="translate(0.000000,80.000000) scale(0.100000,-0.100000)"
fill="#000000" stroke="none">
<path d="M606 723 c-2 -16 -8 -49 -11 -75 -3 -27 -9 -48 -13 -48 -8 0 -42 74
-42 91 0 21 -24 2 -46 -37 -23 -41 -23 -57 1 -48 8 3 28 -3 45 -13 27 -15 31
-22 26 -48 -9 -45 -22 -50 -37 -16 -8 17 -16 31 -19 31 -6 0 -42 -62 -38 -65
12 -11 112 -54 116 -50 3 3 -2 13 -11 23 -15 16 -13 25 32 118 27 56 54 104
60 108 19 12 12 32 -14 44 -37 17 -43 15 -49 -15z m44 -10 c-1 -5 -7 -19 -15
-33 -10 -18 -14 -20 -15 -8 0 23 11 48 21 48 5 0 9 -3 9 -7z m-110 -83 c10
-19 10 -20 -9 -8 -22 13 -28 28 -11 28 5 0 14 -9 20 -20z m-20 -120 c0 -5 -4
-10 -10 -10 -5 0 -10 5 -10 10 0 6 5 10 10 10 6 0 10 -4 10 -10z"/>
<path d="M640 538 c-51 -170 -53 -172 -110 -113 -19 19 -37 35 -40 35 -3 0
-11 -13 -16 -29 -11 -28 -10 -29 30 -41 59 -17 71 -25 69 -46 -4 -24 2 -16 66
94 27 45 56 91 65 101 9 9 16 22 16 28 0 15 -33 73 -42 73 -3 0 -20 -46 -38
-102z m51 24 c-16 -29 -41 -58 -36 -42 16 52 26 70 35 65 6 -4 7 -12 1 -23z
m-181 -142 c0 -5 -2 -10 -4 -10 -3 0 -8 5 -11 10 -3 6 -1 10 4 10 6 0 11 -4
11 -10z"/>
<path d="M766 605 c-9 -35 -6 -39 39 -41 95 -4 215 -26 215 -40 0 -15 16 -19
22 -5 2 5 44 -1 93 -14 l90 -23 -35 -15 c-20 -9 -74 -25 -120 -37 -47 -11 -94
-25 -105 -29 -11 -5 -51 -17 -90 -26 -86 -22 -95 -29 -95 -72 l0 -35 25 16
c33 22 266 115 375 151 47 15 91 33 99 41 18 16 31 12 -164 59 -82 20 -189 50
-236 66 -48 16 -91 29 -97 29 -5 0 -13 -11 -16 -25z m64 -11 c0 -2 -12 -4 -26
-4 -14 0 -23 4 -20 9 6 8 46 4 46 -5z m49 -248 c-2 -2 -21 -11 -42 -20 -27
-11 -37 -12 -35 -4 3 7 15 15 29 19 28 8 54 11 48 5z"/>
<path d="M315 574 c-66 -19 -147 -38 -180 -42 l-59 -7 -1 -66 0 -67 65 -6 c36
-4 112 -18 170 -31 58 -13 124 -26 148 -30 l44 -7 -21 -22 c-26 -28 -27 -46
-3 -46 11 0 39 -13 63 -29 24 -16 48 -27 53 -23 6 3 5 7 -2 10 -7 2 -12 8 -12
13 0 12 64 97 119 159 45 50 45 50 30 103 -9 34 -29 52 -29 26 0 -16 -74 -170
-108 -224 -27 -43 -29 -44 -44 -28 -30 35 -31 72 -1 42 6 -6 13 -7 16 -2 2 4
-15 27 -39 50 l-45 43 -11 -26 c-7 -14 -17 -23 -25 -20 -8 3 -40 12 -71 21
-32 8 -104 32 -161 53 l-103 39 43 25 c49 28 98 47 209 78 41 12 81 24 88 26
6 2 12 8 12 14 0 15 -12 12 -145 -26z m-204 -87 c-13 -13 -26 -3 -16 12 3 6
11 8 17 5 6 -4 6 -10 -1 -17z m588 -77 c-27 -36 -35 -33 -14 6 8 16 15 36 15
44 1 12 3 11 11 -2 7 -13 4 -25 -12 -48z m-569 16 c0 -2 -7 -6 -15 -10 -8 -3
-15 -1 -15 4 0 6 7 10 15 10 8 0 15 -2 15 -4z"/>
<path d="M613 191 c-35 -70 -63 -133 -63 -139 0 -24 28 -11 35 15 3 15 44 66
91 113 46 48 84 89 84 93 0 5 -82 50 -84 46 -1 0 -29 -58 -63 -128z m63 24
c-25 -27 -46 -45 -46 -41 0 3 14 31 31 62 28 49 34 54 47 41 13 -13 9 -21 -32
-62z"/>
<path d="M505 170 c-11 -17 5 -32 21 -19 7 6 11 15 8 20 -7 12 -21 11 -29 -1z"/>
</g>
</svg>
