<?xml version="1.0" standalone="no"?>
<!DOCTYPE svg PUBLIC "-//W3C//DTD SVG 20010904//EN"
 "http://www.w3.org/TR/2001/REC-SVG-20010904/DTD/svg10.dtd">
<svg version="1.0" xmlns="http://www.w3.org/2000/svg"
 width="121.000000pt" height="73.000000pt" viewBox="0 0 121.000000 73.000000"
 preserveAspectRatio="xMidYMid meet">
<metadata>
Created by potrace 1.16, written by Peter Selinger 2001-2019
</metadata>
<g transform="translate(0.000000,73.000000) scale(0.100000,-0.100000)"
fill="#000000" stroke="none">
<path d="M60 645 l0 -47 33 7 c68 15 157 20 295 17 l142 -4 0 -55 0 -56 -90 6
c-80 5 -90 4 -91 -11 0 -9 -3 -48 -5 -86 l-5 -69 28 8 c15 4 57 11 93 15 76 7
62 18 -29 22 -116 5 -72 38 52 38 l47 0 0 -64 0 -64 -42 5 c-24 2 -65 8 -93
13 -27 5 -52 7 -54 5 -2 -2 -1 -15 3 -29 6 -23 9 -24 32 -16 32 13 154 13 154
1 0 -21 -12 -40 -23 -36 -7 2 -47 6 -90 10 -78 6 -78 6 -75 -17 2 -16 9 -22
23 -20 11 1 50 5 88 9 l67 6 0 -32 0 -31 -105 0 -104 0 0 137 c0 86 6 158 15
192 19 75 18 81 -14 81 l-27 0 3 -205 c3 -124 1 -205 -5 -205 -5 0 -31 7 -57
16 -26 9 -48 15 -50 13 -2 -2 -6 -21 -9 -42 -6 -38 -6 -39 21 -31 30 9 60 11
232 20 63 3 116 7 117 8 2 2 8 74 14 162 6 87 17 191 25 231 8 40 14 79 14 87
0 12 -32 15 -192 19 -178 5 -276 14 -320 32 -16 6 -18 1 -18 -40z m70 -5 c0
-5 -11 -10 -25 -10 -14 0 -25 5 -25 10 0 6 11 10 25 10 14 0 25 -4 25 -10z
m431 -51 c-9 -23 -10 -22 -10 11 -1 23 2 31 9 24 7 -7 7 -19 1 -35z m-241 -36
c0 -5 -5 -15 -10 -23 -8 -12 -10 -11 -10 8 0 12 5 22 10 22 6 0 10 -3 10 -7z
m212 -59 c3 -3 4 -14 1 -25 -5 -16 -14 -19 -62 -19 -63 0 -98 14 -67 26 49 19
118 29 128 18z m-302 -340 c0 -2 -9 -4 -21 -4 -11 0 -18 4 -14 10 5 8 35 3 35
-6z"/>
<path d="M714 645 c-11 -45 -1 -53 53 -45 26 5 70 11 97 14 l48 6 -6 -148
c-12 -275 -16 -304 -37 -299 -15 4 -23 -3 -34 -30 -8 -19 -13 -39 -10 -43 3
-4 22 -2 44 6 21 7 91 14 155 16 l116 3 0 166 c0 104 6 199 15 254 9 48 13 90
11 92 -3 3 -65 5 -138 4 -85 -1 -158 4 -203 14 -94 20 -104 19 -111 -10z m104
-10 c-10 -10 -89 -15 -83 -5 3 5 25 10 47 10 23 0 39 -2 36 -5z m286 -31 c3
-9 6 -29 6 -46 l0 -30 -52 6 c-130 16 -128 16 -128 45 0 15 3 31 7 34 3 4 41
7 84 7 61 0 78 -3 83 -16z m45 4 c-1 -7 -5 -24 -9 -38 -7 -23 -8 -23 -9 -3 -1
12 -4 28 -7 37 -4 11 -1 16 10 16 9 0 16 -6 15 -12z m-29 -124 l0 -25 -72 7
c-40 4 -83 8 -95 8 -27 1 -31 23 -5 29 9 3 52 5 95 6 76 1 77 1 77 -25z m-19
-44 c12 0 19 -7 19 -20 0 -18 -7 -20 -69 -20 -75 0 -131 8 -131 20 0 11 100
29 134 24 16 -2 37 -4 47 -4z m19 -97 c0 -21 -3 -55 -7 -77 l-6 -39 -78 7
c-94 8 -109 13 -109 36 0 20 42 30 128 30 53 0 75 19 25 22 -96 5 -153 16
-153 28 0 5 17 12 38 15 20 4 42 8 47 10 6 2 34 4 63 4 l52 1 0 -37z m-5 -163
c0 -23 -4 -25 -50 -28 -75 -5 -155 7 -155 23 0 9 18 15 53 19 28 3 66 8 82 10
58 7 70 3 70 -24z"/>
<path d="M635 178 c-8 -24 2 -73 15 -73 20 0 35 52 20 70 -15 18 -29 19 -35 3z"/>
<path d="M1187 183 c-13 -12 -7 -33 8 -33 8 0 15 9 15 20 0 20 -11 26 -23 13z"/>
<path d="M530 110 c0 -5 5 -10 10 -10 6 0 10 5 10 10 0 6 -4 10 -10 10 -5 0
-10 -4 -10 -10z"/>
</g>
</svg>
