<?xml version="1.0" standalone="no"?>
<!DOCTYPE svg PUBLIC "-//W3C//DTD SVG 20010904//EN"
 "http://www.w3.org/TR/2001/REC-SVG-20010904/DTD/svg10.dtd">
<svg version="1.0" xmlns="http://www.w3.org/2000/svg"
 width="136.000000pt" height="64.000000pt" viewBox="0 0 136.000000 64.000000"
 preserveAspectRatio="xMidYMid meet">
<metadata>
Created by potrace 1.16, written by Peter Selinger 2001-2019
</metadata>
<g transform="translate(0.000000,64.000000) scale(0.100000,-0.100000)"
fill="#000000" stroke="none">
<path d="M180 561 c0 -15 -45 -39 -81 -44 -27 -3 -33 -8 -30 -23 2 -10 6 -75
10 -144 5 -109 9 -129 28 -154 l23 -28 49 54 c61 66 128 115 141 102 12 -12
50 -122 50 -146 0 -10 6 -18 14 -18 11 0 14 26 15 126 2 135 4 130 -53 91 -28
-20 -29 -20 -43 -1 -8 10 -33 58 -56 106 -23 48 -48 87 -54 87 -7 1 -13 -3
-13 -8z m29 -57 c12 -20 20 -38 18 -40 -8 -8 -59 55 -53 65 10 16 12 15 35
-25z m-99 -35 c0 -11 -4 -17 -10 -14 -5 3 -10 15 -10 26 0 11 5 17 10 14 6 -3
10 -15 10 -26z m91 -11 c43 -36 89 -94 89 -111 0 -7 -169 -107 -181 -107 -18
0 0 176 26 248 7 18 12 16 66 -30z m179 -145 c0 -60 -7 -63 -25 -9 -8 21 -9
40 -3 50 17 31 28 15 28 -41z m-233 -90 c-9 -9 -20 -13 -24 -9 -4 4 -1 11 7
16 25 16 35 11 17 -7z"/>
<path d="M775 550 c-4 -12 -11 -17 -18 -13 -18 11 -56 13 -62 3 -3 -5 -2 -27
4 -47 8 -32 19 -161 21 -251 0 -13 4 -21 9 -18 5 4 10 52 10 109 1 123 8 167
27 167 8 0 52 -17 98 -39 46 -21 93 -42 105 -46 11 -3 21 -9 21 -13 0 -7 -39
-34 -124 -86 -74 -46 -94 -65 -89 -86 12 -46 27 -39 128 61 55 54 108 99 119
99 15 0 16 3 6 15 -7 8 -18 15 -25 15 -15 0 -102 58 -166 112 -26 21 -49 38
-52 38 -3 0 -9 -9 -12 -20z m72 -57 c-3 -2 -19 4 -36 15 -17 10 -28 22 -25 25
4 4 20 -3 36 -14 16 -12 27 -23 25 -26z m-120 0 c-3 -10 -5 -4 -5 12 0 17 2
24 5 18 2 -7 2 -21 0 -30z m116 -235 c-18 -18 -36 -29 -40 -25 -8 8 45 56 62
57 5 0 -5 -14 -22 -32z"/>
<path d="M1055 353 c4 -70 9 -131 12 -136 9 -14 23 4 23 31 0 15 9 71 20 125
11 55 20 101 20 103 0 2 -19 4 -41 4 l-42 0 8 -127z m44 85 c-1 -13 -4 -34 -8
-48 -7 -22 -8 -19 -12 18 -3 24 -3 45 0 48 11 11 21 2 20 -18z"/>
<path d="M536 232 c-8 -13 5 -82 16 -82 16 0 33 50 22 68 -13 19 -30 26 -38
14z"/>
<path d="M1132 223 c5 -26 38 -29 38 -4 0 15 -6 21 -21 21 -14 0 -19 -5 -17
-17z"/>
</g>
</svg>
