<?xml version="1.0" standalone="no"?>
<!DOCTYPE svg PUBLIC "-//W3C//DTD SVG 20010904//EN"
 "http://www.w3.org/TR/2001/REC-SVG-20010904/DTD/svg10.dtd">
<svg version="1.0" xmlns="http://www.w3.org/2000/svg"
 width="73.000000pt" height="69.000000pt" viewBox="0 0 73.000000 69.000000"
 preserveAspectRatio="xMidYMid meet">
<metadata>
Created by potrace 1.16, written by Peter Selinger 2001-2019
</metadata>
<g transform="translate(0.000000,69.000000) scale(0.100000,-0.100000)"
fill="#000000" stroke="none">
<path d="M60 606 c0 -41 3 -47 18 -42 50 16 132 26 260 32 224 11 192 27 -78
39 -69 3 -142 8 -162 11 l-38 7 0 -47z m100 4 c0 -5 -11 -10 -24 -10 -13 0
-31 -3 -40 -6 -11 -4 -16 -1 -16 10 0 12 10 16 40 16 22 0 40 -4 40 -10z"/>
<path d="M506 621 c-3 -5 -2 -20 3 -33 16 -44 32 -411 18 -425 -2 -1 -36 -6
-77 -9 l-73 -7 5 206 6 206 -32 -6 c-17 -3 -32 -7 -34 -8 -2 -2 2 -20 8 -42
13 -42 26 -322 17 -347 -5 -14 -11 -14 -54 -1 -26 8 -49 15 -50 15 -2 0 -3
-20 -3 -45 0 -44 7 -54 25 -36 14 13 153 40 223 43 l60 3 6 35 c3 19 6 78 6
130 1 89 14 277 21 310 3 11 -6 16 -33 18 -20 2 -39 -1 -42 -7z m47 -73 c-7
-72 -13 -88 -13 -36 0 20 -3 50 -6 67 -5 24 -3 31 10 31 13 0 15 -9 9 -62z
m-183 -50 c0 -25 -3 -29 -10 -18 -13 20 -13 50 0 50 6 0 10 -15 10 -32z"/>
<path d="M450 316 c0 -9 5 -16 10 -16 6 0 10 4 10 9 0 6 -4 13 -10 16 -5 3
-10 -1 -10 -9z"/>
</g>
</svg>
