<?xml version="1.0" standalone="no"?>
<!DOCTYPE svg PUBLIC "-//W3C//DTD SVG 20010904//EN"
 "http://www.w3.org/TR/2001/REC-SVG-20010904/DTD/svg10.dtd">
<svg version="1.0" xmlns="http://www.w3.org/2000/svg"
 width="66.000000pt" height="79.000000pt" viewBox="0 0 66.000000 79.000000"
 preserveAspectRatio="xMidYMid meet">
<metadata>
Created by potrace 1.16, written by Peter Selinger 2001-2019
</metadata>
<g transform="translate(0.000000,79.000000) scale(0.100000,-0.100000)"
fill="#000000" stroke="none">
<path d="M101 698 c-18 -16 -31 -30 -29 -32 45 -29 108 -83 108 -92 0 -6 9
-14 20 -17 16 -4 19 -11 15 -29 l-6 -23 135 9 c142 9 166 6 166 -19 0 -12 -17
-15 -106 -15 -58 0 -114 5 -124 10 -15 8 -21 6 -30 -9 -13 -26 -13 -31 5 -31
8 0 15 3 15 8 0 8 224 6 246 -2 7 -3 12 -15 12 -28 -1 -32 -38 -136 -52 -146
-11 -9 -221 2 -255 13 -14 4 -23 0 -31 -15 -6 -12 -10 -24 -7 -26 2 -2 36 0
76 6 64 9 211 4 211 -7 0 -2 -5 -13 -10 -24 -9 -16 -22 -19 -93 -19 -45 0
-105 6 -133 14 l-52 14 -66 -74 c-36 -40 -66 -76 -66 -81 0 -4 9 -19 19 -32
l19 -25 23 50 24 49 108 3 c66 2 105 6 102 12 -3 6 -30 10 -58 10 -68 0 -127
10 -127 22 0 20 55 27 165 21 l115 -6 -19 -33 c-18 -31 -19 -35 -4 -49 21 -22
63 -49 67 -44 5 5 57 295 64 354 2 22 -1 83 -7 135 -7 52 -13 114 -14 137 -1
24 -6 43 -10 43 -16 0 -67 -44 -67 -58 0 -15 -65 -13 -205 6 -33 5 -61 5 -63
0 -7 -17 -23 -7 -35 21 l-12 29 -34 -30z m49 -51 c0 -5 -8 -3 -17 4 -10 7 -20
14 -22 16 -1 1 0 7 5 14 5 9 11 7 21 -6 7 -11 13 -23 13 -28z m360 11 c0 -18
3 -51 5 -73 5 -34 3 -32 -15 20 -20 60 -20 85 0 85 5 0 10 -15 10 -32z m-39
-29 c19 -31 10 -39 -48 -40 -122 -2 -223 15 -230 38 -8 24 263 25 278 2z m27
-83 c4 -17 -3 -18 -112 -15 -94 3 -119 7 -133 22 -17 17 -12 18 112 15 117 -3
130 -5 133 -22z m-8 -354 c-10 -51 -20 -95 -22 -98 -3 -2 -12 4 -21 14 -16 17
-15 24 20 100 20 45 38 80 39 79 1 -1 -6 -44 -16 -95z m-380 -80 c0 -17 -27
-45 -34 -34 -3 6 1 18 10 26 17 18 24 20 24 8z"/>
<path d="M286 425 c-12 -32 -7 -37 32 -30 44 9 70 11 140 13 28 1 52 6 52 12
0 5 -34 9 -77 8 -43 -1 -92 2 -109 6 -24 5 -33 3 -38 -9z"/>
<path d="M241 356 c-12 -13 -19 -26 -14 -29 4 -2 40 -1 78 4 39 4 97 9 130 10
49 1 40 3 -43 10 -57 4 -109 12 -116 18 -9 8 -19 4 -35 -13z"/>
</g>
</svg>
