<?xml version="1.0" standalone="no"?>
<!DOCTYPE svg PUBLIC "-//W3C//DTD SVG 20010904//EN"
 "http://www.w3.org/TR/2001/REC-SVG-20010904/DTD/svg10.dtd">
<svg version="1.0" xmlns="http://www.w3.org/2000/svg"
 width="45.000000pt" height="66.000000pt" viewBox="0 0 45.000000 66.000000"
 preserveAspectRatio="xMidYMid meet">
<metadata>
Created by potrace 1.16, written by Peter Selinger 2001-2019
</metadata>
<g transform="translate(0.000000,66.000000) scale(0.100000,-0.100000)"
fill="#000000" stroke="none">
<path d="M208 612 c-16 -2 -28 -8 -28 -14 0 -17 -67 -164 -110 -239 -43 -77
-47 -89 -26 -89 19 0 131 -125 176 -196 14 -23 40 -33 40 -16 0 5 -16 27 -36
50 -31 37 -34 45 -23 59 17 20 155 111 187 124 30 12 24 29 -15 43 -30 11 -79
52 -152 129 l-34 36 47 56 c26 30 46 56 44 56 -9 4 -46 4 -70 1z m6 -47 c-19
-29 -29 -27 -19 4 3 12 13 21 21 21 12 0 12 -4 -2 -25z m-14 -110 c14 -16 10
-18 -14 -9 -9 3 -16 10 -16 15 0 14 16 11 30 -6z m33 -52 c43 -25 78 -64 73
-81 -9 -26 -128 -144 -136 -135 -4 4 -25 40 -46 80 l-39 71 24 44 c14 24 29
46 35 50 9 6 55 -9 89 -29z m107 -110 c-25 -18 -38 -10 -21 11 7 8 19 12 27 9
12 -4 11 -8 -6 -20z m-246 -18 l19 -30 -26 24 c-15 13 -24 28 -21 33 3 5 7 8
8 6 1 -2 10 -16 20 -33z"/>
</g>
</svg>
