<?xml version="1.0" standalone="no"?>
<!DOCTYPE svg PUBLIC "-//W3C//DTD SVG 20010904//EN"
 "http://www.w3.org/TR/2001/REC-SVG-20010904/DTD/svg10.dtd">
<svg version="1.0" xmlns="http://www.w3.org/2000/svg"
 width="111.000000pt" height="181.000000pt" viewBox="0 0 111.000000 181.000000"
 preserveAspectRatio="xMidYMid meet">
<metadata>
Created by potrace 1.16, written by Peter Selinger 2001-2019
</metadata>
<g transform="translate(0.000000,181.000000) scale(0.100000,-0.100000)"
fill="#000000" stroke="none">
<path d="M220 1664 c0 -52 -3 -65 -14 -61 -7 3 -34 9 -60 12 -25 4 -49 11 -52
16 -12 20 -24 7 -24 -26 0 -40 -1 -39 37 -24 15 6 47 8 72 4 l43 -7 -4 -96 -4
-97 121 0 c107 0 418 -13 421 -18 1 -1 22 -31 48 -67 55 -74 59 -65 -61 -131
-55 -31 -71 -44 -66 -57 2 -9 7 -24 10 -32 3 -11 11 -7 31 16 27 32 130 114
144 114 6 0 34 -36 51 -66 6 -11 -62 -58 -141 -98 -28 -14 -31 -20 -26 -44 4
-15 8 -29 10 -31 2 -2 22 17 44 42 35 39 176 137 198 137 4 0 20 10 35 23 l28
22 -64 126 c-35 69 -70 149 -78 177 -14 55 -22 61 -53 37 -21 -16 -67 -19
-128 -9 -33 6 -38 10 -38 33 0 14 4 42 10 61 12 40 1 57 -27 41 -17 -8 -19
-18 -15 -65 4 -53 3 -55 -23 -62 -41 -10 -49 6 -35 66 7 28 10 53 8 56 -3 2
-19 1 -36 -2 -31 -6 -31 -7 -17 -35 16 -30 20 -75 7 -83 -8 -5 -147 9 -194 20
-25 5 -28 10 -28 45 0 22 7 56 15 76 21 49 19 55 -12 51 -16 -2 -28 -9 -27
-15 1 -7 2 -55 3 -107 l1 -94 58 5 c31 3 147 0 257 -6 l200 -11 38 -42 c34
-38 147 -233 147 -254 0 -5 -20 -21 -46 -34 l-45 -25 -19 25 c-32 41 -34 59
-8 80 17 14 19 19 8 20 -9 0 -21 -5 -28 -12 -16 -16 -26 -5 -54 67 l-24 60
-50 7 c-27 3 -105 7 -174 8 -69 1 -174 7 -235 13 l-110 12 -3 83 c-2 52 3 106
13 143 20 78 19 79 -10 79 -24 0 -25 -2 -25 -66z m678 -170 c7 -14 8 -23 2
-19 -15 9 -32 45 -22 45 5 0 14 -12 20 -26z m-90 -159 c-3 -3 -9 2 -12 12 -6
14 -5 15 5 6 7 -7 10 -15 7 -18z"/>
<path d="M68 1523 c-2 -4 -4 -15 -3 -23 1 -16 21 -17 105 -4 35 5 41 8 25 14
-34 13 -123 22 -127 13z"/>
<path d="M301 789 c-18 -7 -22 -14 -18 -32 27 -104 44 -188 38 -191 -3 -2 -25
-4 -48 -3 l-43 0 0 61 c0 33 5 78 11 100 14 52 3 61 -50 40 -38 -15 -76 -16
-131 -3 -10 3 -14 -3 -12 -16 9 -76 15 -115 17 -115 1 0 28 9 61 19 32 11 62
17 66 13 3 -4 10 -29 14 -56 l7 -49 -72 5 -71 5 0 -28 c0 -16 2 -29 4 -29 2 0
32 7 66 16 34 9 66 12 70 7 4 -4 11 -29 14 -55 l7 -48 -75 0 -76 0 0 -35 c0
-37 5 -40 42 -26 13 4 44 11 71 15 l47 7 0 -45 c0 -28 5 -46 11 -46 8 0 10 17
7 49 -5 48 -4 49 25 55 57 12 66 8 73 -29 3 -19 11 -35 16 -35 6 0 8 14 4 34
-7 38 5 46 82 46 24 0 73 4 110 10 37 5 95 11 130 13 l63 5 19 -39 c11 -21 20
-45 20 -54 0 -16 -3 -17 -100 -19 l-65 -1 -1 -30 c0 -16 1 -33 3 -37 1 -3 33
7 71 23 37 16 75 29 85 29 15 0 37 -35 37 -60 0 -4 -40 -11 -90 -15 l-90 -7 0
-35 c0 -30 3 -34 18 -28 91 39 160 56 168 43 4 -6 12 -31 18 -56 7 -25 17 -47
24 -50 8 -2 7 12 -4 48 -8 29 -13 57 -11 64 3 6 21 11 41 11 20 -1 36 2 36 7
0 4 6 8 14 8 15 0 21 -21 31 -112 4 -32 11 -58 17 -58 13 0 3 91 -22 215 -13
69 -17 123 -14 229 2 76 1 143 -2 147 -3 5 -24 -4 -47 -19 -23 -16 -48 -27
-54 -25 -7 3 -13 0 -13 -6 0 -6 6 -11 13 -11 23 0 75 -167 94 -301 5 -35 4
-36 -34 -42 -72 -12 -75 -11 -72 31 2 21 0 42 -4 48 -3 6 -9 48 -13 92 -4 45
-9 82 -12 82 -3 0 -17 -11 -31 -24 -22 -21 -41 -26 -121 -34 -70 -7 -97 -7
-102 2 -4 6 -8 35 -8 64 l0 52 36 0 c60 0 214 23 214 32 0 11 -31 10 -110 -3
-36 -6 -82 -12 -103 -14 l-39 -3 7 50 7 51 -28 -7 c-16 -3 -45 -9 -64 -11 -37
-6 -55 -24 -40 -39 6 -6 10 -20 10 -32 0 -18 -7 -23 -46 -29 -25 -3 -49 -4
-52 0 -4 4 -8 55 -9 113 -1 59 -6 108 -10 109 -4 1 -19 -3 -32 -8z m19 -35 c0
-8 -5 -12 -10 -9 -6 4 -8 11 -5 16 9 14 15 11 15 -7z m-100 -29 c0 -8 -4 -15
-10 -15 -5 0 -10 7 -10 15 0 8 5 15 10 15 6 0 10 -7 10 -15z m-40 -15 c0 -18
-7 -20 -57 -20 -61 0 -63 11 -3 28 52 15 60 14 60 -8z m370 -62 c0 -18 -2 -20
-9 -8 -6 8 -7 18 -5 22 9 14 14 9 14 -14z m-24 -36 c6 -28 4 -32 -15 -32 -17
0 -21 6 -21 33 0 59 24 59 36 -1z m422 -72 l-3 -55 -22 60 c-21 55 -21 60 -6
78 17 18 17 17 26 -4 4 -13 7 -48 5 -79z m-414 22 c2 -4 6 -30 7 -57 3 -48 2
-50 -23 -53 -25 -3 -27 0 -33 42 -4 25 -5 53 -1 61 6 15 41 21 50 7z m-70 -58
c4 -31 5 -58 4 -59 -2 -1 -24 -5 -49 -9 l-46 -7 -7 38 c-11 70 -8 81 22 86 70
11 69 11 76 -49z m-130 24 c3 -13 7 -39 11 -59 l6 -37 -48 -4 c-27 -3 -50 -3
-52 -1 -2 2 -6 27 -9 57 -4 54 -4 55 24 59 58 8 64 7 68 -15z m479 -103 c6
-46 5 -48 -8 -31 -15 20 -20 67 -8 79 9 10 9 8 16 -48z m-658 -25 c-3 -5 -17
-10 -31 -10 -14 0 -22 4 -19 10 3 6 17 10 31 10 14 0 22 -4 19 -10z m551 -89
c-8 -12 -46 -21 -46 -11 0 9 18 18 38 19 7 1 11 -3 8 -8z m-6 -95 c0 -2 -7 -6
-15 -10 -8 -3 -15 -1 -15 4 0 6 7 10 15 10 8 0 15 -2 15 -4z"/>
<path d="M880 350 c0 -5 12 -10 26 -10 14 0 23 4 19 10 -3 6 -15 10 -26 10
-10 0 -19 -4 -19 -10z"/>
</g>
</svg>
