<?xml version="1.0" standalone="no"?>
<!DOCTYPE svg PUBLIC "-//W3C//DTD SVG 20010904//EN"
 "http://www.w3.org/TR/2001/REC-SVG-20010904/DTD/svg10.dtd">
<svg version="1.0" xmlns="http://www.w3.org/2000/svg"
 width="91.000000pt" height="56.000000pt" viewBox="0 0 91.000000 56.000000"
 preserveAspectRatio="xMidYMid meet">
<metadata>
Created by potrace 1.16, written by Peter Selinger 2001-2019
</metadata>
<g transform="translate(0.000000,56.000000) scale(0.100000,-0.100000)"
fill="#000000" stroke="none">
<path d="M515 500 c-3 -5 -19 -10 -35 -10 -30 0 -30 0 -24 -49 l5 -48 -118 -5
c-65 -3 -142 -2 -172 2 -47 6 -54 5 -59 -12 -3 -12 -14 -18 -32 -18 l-28 0 5
-122 c3 -68 9 -127 14 -133 5 -5 9 8 9 32 0 59 7 71 36 65 13 -2 24 0 24 4 0
5 33 8 72 8 40 -1 110 3 156 9 45 5 85 7 88 4 4 -3 6 -39 5 -78 -1 -60 2 -75
18 -91 24 -21 39 -24 22 -4 -10 12 -9 17 6 24 10 5 24 7 31 5 6 -3 12 0 12 5
0 6 45 42 100 81 113 80 113 80 126 -20 8 -68 20 -94 27 -59 46 234 47 229
-22 185 l-39 -24 -18 27 c-9 15 -33 43 -53 62 -45 44 -101 115 -101 127 0 11
-33 43 -43 43 -3 0 -9 -4 -12 -10z m-25 -40 c0 -5 -4 -10 -10 -10 -5 0 -10 5
-10 10 0 6 5 10 10 10 6 0 10 -4 10 -10z m104 -66 c2 -6 -20 -23 -49 -38 -53
-26 -53 -28 -48 -63 5 -28 3 -34 -7 -28 -15 9 -9 121 9 168 l11 28 40 -28 c22
-15 41 -33 44 -39z m-131 -74 c10 -80 10 -80 -112 -80 -58 -1 -141 -3 -183 -7
-90 -6 -99 1 -79 67 11 36 15 39 64 49 72 14 108 18 213 19 l91 2 6 -50z m147
24 c0 -8 -4 -12 -10 -9 -5 3 -10 10 -10 16 0 5 5 9 10 9 6 0 10 -7 10 -16z
m71 -46 c53 -59 54 -54 -33 -107 -42 -25 -45 -21 -23 44 12 34 13 54 6 80 -5
19 -6 35 -3 35 4 0 28 -23 53 -52z m-97 26 c33 -13 39 -42 16 -80 -25 -39 -39
-35 -60 15 -9 22 -9 35 0 50 11 22 19 25 44 15z m222 -96 c-3 -24 -6 -52 -6
-63 -1 -11 -7 3 -15 30 -9 35 -10 54 -3 63 20 24 30 12 24 -30z m-241 -32 c22
-19 38 -36 35 -38 -16 -13 -108 -68 -113 -68 -4 0 -7 32 -7 70 0 66 1 70 23
70 12 0 40 -16 62 -34z"/>
</g>
</svg>
