<?xml version="1.0" standalone="no"?>
<!DOCTYPE svg PUBLIC "-//W3C//DTD SVG 20010904//EN"
 "http://www.w3.org/TR/2001/REC-SVG-20010904/DTD/svg10.dtd">
<svg version="1.0" xmlns="http://www.w3.org/2000/svg"
 width="109.000000pt" height="308.000000pt" viewBox="0 0 109.000000 308.000000"
 preserveAspectRatio="xMidYMid meet">
<metadata>
Created by potrace 1.16, written by Peter Selinger 2001-2019
</metadata>
<g transform="translate(0.000000,308.000000) scale(0.100000,-0.100000)"
fill="#000000" stroke="none">
<path d="M252 3006 c-29 -33 -30 -35 -25 -125 4 -78 2 -91 -11 -91 -20 0 -21
-19 -1 -26 17 -7 20 -40 5 -49 -8 -5 -8 -11 -1 -19 6 -7 11 -52 13 -102 2 -53
7 -88 13 -86 6 1 9 38 7 92 -2 75 0 90 13 90 12 0 15 -15 15 -80 0 -47 4 -80
10 -80 6 0 10 33 10 80 0 64 3 80 15 80 16 0 18 -11 20 -102 l1 -56 -62 -27
c-59 -26 -62 -29 -67 -67 -3 -22 -3 -47 0 -54 6 -16 23 -19 23 -3 0 6 6 16 13
23 17 17 211 143 309 201 25 15 189 106 221 122 27 14 29 13 95 -41 37 -30 82
-69 101 -86 23 -20 38 -27 44 -21 7 7 -18 40 -71 96 -45 48 -82 94 -82 103 0
9 34 58 75 109 69 85 86 113 68 113 -4 0 -55 -48 -114 -106 l-106 -106 -34 16
c-19 9 -41 20 -49 25 -8 5 -40 19 -70 32 -30 13 -117 59 -194 102 -77 42 -143
77 -147 77 -4 0 -20 -15 -37 -34z m116 -37 c34 -18 61 -34 58 -36 -6 -6 -146
50 -146 59 0 15 24 8 88 -23z m-90 -89 c-4 -107 -22 -108 -26 -2 -2 70 0 82
13 82 14 0 16 -12 13 -80z m52 -15 c0 -60 -3 -75 -15 -75 -12 0 -15 15 -15 75
0 60 3 75 15 75 12 0 15 -15 15 -75z m66 51 c1 0 4 -29 8 -63 l7 -63 -31 0
-30 0 0 71 c0 68 1 70 23 63 12 -3 23 -7 23 -8z m68 -22 c12 -4 16 -20 16 -55
0 -46 -2 -49 -25 -49 -24 0 -25 3 -25 55 0 55 4 61 34 49z m60 -20 c11 -4 16
-19 16 -45 0 -32 -3 -39 -20 -39 -17 0 -20 7 -20 45 0 48 0 48 24 39z m121
-54 l60 -28 -72 -1 -73 -1 0 30 c0 37 8 37 85 0z m186 -41 c-5 -13 -10 -19
-10 -12 -1 15 10 45 15 40 3 -2 0 -15 -5 -28z m-556 -39 c0 -13 -6 -25 -12
-27 -9 -3 -13 6 -13 27 0 21 4 30 13 28 6 -3 12 -15 12 -28z m495 22 c0 -4
-15 -15 -33 -25 -45 -25 -170 -21 -175 5 -3 15 9 18 95 21 54 1 101 4 106 5 4
1 7 -1 7 -6z m-440 -6 c0 -2 3 -11 6 -20 4 -12 0 -16 -15 -16 -14 0 -21 6 -21
20 0 11 7 20 15 20 8 0 15 -2 15 -4z m80 -15 c0 -17 -18 -31 -40 -31 -10 0
-20 37 -12 44 3 3 16 6 29 6 16 0 23 -6 23 -19z m70 -1 c0 -15 -7 -20 -25 -20
-18 0 -25 5 -25 20 0 15 7 20 25 20 18 0 25 -5 25 -20z m60 0 c0 -13 -7 -20
-20 -20 -13 0 -20 7 -20 20 0 13 7 20 20 20 13 0 20 -7 20 -20z m110 -45 c0
-5 -76 -45 -86 -45 -3 0 -1 7 6 15 7 8 9 16 4 16 -10 1 42 16 64 18 6 0 12 -1
12 -4z m-240 -49 c0 -24 2 -51 5 -58 5 -12 -30 -38 -50 -38 -3 0 -5 32 -5 70
0 68 1 70 25 70 23 0 25 -4 25 -44z m73 7 c4 -38 -6 -59 -32 -65 -10 -2 -14
11 -16 50 -3 48 -2 52 20 52 19 0 24 -6 28 -37z m57 7 c0 -16 -2 -30 -4 -30
-2 0 -11 -3 -19 -6 -11 -4 -15 2 -15 23 0 34 5 43 24 43 9 0 14 -11 14 -30z
m-220 -165 c0 -10 -82 -56 -88 -49 -4 4 -2 8 3 11 6 2 26 12 45 23 40 22 40
22 40 15z"/>
<path d="M149 2907 c-20 -17 -48 -42 -63 -54 -14 -12 -26 -26 -26 -31 0 -5 18
-17 41 -27 23 -11 48 -30 56 -42 9 -13 18 -21 21 -18 3 2 5 42 6 87 1 46 5 91
10 101 13 26 -5 20 -45 -16z m3 -72 c-4 -34 -4 -34 -29 -18 l-25 17 24 18 c32
24 35 23 30 -17z"/>
<path d="M123 2601 c-29 -26 -53 -52 -53 -57 0 -5 25 -21 56 -36 45 -22 56
-24 61 -12 3 8 0 21 -7 29 -12 14 -10 48 6 103 9 33 -5 27 -63 -27z m23 -41
c0 -19 -16 -27 -29 -13 -7 6 11 33 22 33 4 0 7 -9 7 -20z"/>
<path d="M247 2279 c-17 -18 -27 -36 -23 -45 3 -8 10 -13 15 -9 5 3 25 -2 44
-11 33 -16 34 -19 26 -48 -5 -17 -9 -50 -9 -73 0 -24 -4 -43 -10 -43 -6 0 -10
34 -10 81 0 59 -3 80 -12 77 -9 -3 -12 -27 -9 -81 3 -76 2 -77 -22 -77 -14 0
-28 7 -31 16 -11 29 -6 90 9 110 17 22 19 34 5 34 -11 0 -140 -101 -140 -110
0 -10 143 -80 163 -80 13 0 17 -8 17 -35 0 -19 -4 -35 -9 -35 -5 0 -17 -3 -27
-7 -15 -5 -16 -2 -10 30 5 25 3 37 -4 37 -14 0 -120 -82 -120 -92 0 -4 12 -14
27 -22 33 -16 75 -59 72 -72 -1 -5 1 -17 6 -27 4 -10 2 -31 -5 -48 -14 -32 -7
-49 15 -34 102 73 293 195 345 222 37 18 73 40 80 48 7 8 18 15 25 15 25 0 37
27 23 49 -7 12 -17 21 -22 21 -12 0 -256 156 -317 203 -26 20 -52 37 -56 37
-4 -1 -21 -14 -36 -31z m120 -59 c43 -27 75 -50 70 -50 -16 0 -167 82 -167 91
0 17 19 9 97 -41z m-14 -103 c-5 -66 -7 -72 -20 -64 -4 3 -7 34 -5 70 3 50 7
64 17 61 10 -4 12 -21 8 -67z m38 -18 l-9 -54 -1 65 c-1 43 2 61 9 54 7 -7 7
-29 1 -65z m49 1 c0 -37 -13 -60 -24 -42 -8 13 6 92 15 86 5 -3 9 -23 9 -44z
m-270 10 c0 -28 -2 -30 -21 -20 -20 11 -20 12 -3 31 23 25 24 24 24 -11z m310
-15 c0 -19 -4 -35 -10 -35 -11 0 -14 53 -3 63 11 12 13 8 13 -28z m75 -9 c45
-19 44 -26 -5 -26 -33 0 -40 3 -40 20 0 24 1 24 45 6z m-25 -56 c0 -5 -5 -10
-11 -10 -5 0 -7 5 -4 10 3 6 8 10 11 10 2 0 4 -4 4 -10z m-230 -35 c0 -19 -4
-35 -10 -35 -5 0 -10 16 -10 35 0 19 5 35 10 35 6 0 10 -16 10 -35z m50 11 c0
-27 -15 -42 -25 -26 -8 13 3 50 16 50 5 0 9 -11 9 -24z m40 4 c0 -11 -4 -20
-10 -20 -5 0 -10 9 -10 20 0 11 5 20 10 20 6 0 10 -9 10 -20z m50 5 c0 -8 -7
-15 -15 -15 -16 0 -20 12 -8 23 11 12 23 8 23 -8z m40 5 c0 -5 -4 -10 -10 -10
-5 0 -10 5 -10 10 0 6 5 10 10 10 6 0 10 -4 10 -10z m135 -8 c-6 -5 -32 -21
-58 -36 l-49 -28 4 23 c2 17 13 25 48 34 59 16 66 17 55 7z m-133 -74 c-16
-16 -21 -8 -15 27 6 29 6 29 16 7 7 -16 7 -26 -1 -34z m-44 5 c-4 -39 -28 -42
-28 -4 0 21 5 31 16 31 11 0 14 -8 12 -27z m-260 -32 c-3 -17 -5 -18 -21 -6
-18 13 -18 14 0 35 14 17 19 18 21 6 2 -9 2 -25 0 -35z m212 14 c0 -19 -4 -35
-10 -35 -11 0 -14 53 -3 63 11 12 13 8 13 -28z m-42 -12 c-4 -50 -26 -55 -23
-6 3 45 2 43 16 43 6 0 9 -16 7 -37z m-43 -50 c-2 -7 -8 -13 -13 -13 -11 0
-14 68 -5 84 8 13 24 -53 18 -71z m-47 15 c-2 -31 -8 -44 -20 -46 -23 -4 -38
66 -17 79 30 19 40 10 37 -33z m62 -51 c-8 -8 -32 -24 -52 -36 -29 -17 -38
-19 -38 -9 0 8 21 24 48 35 58 26 60 26 42 10z"/>
<path d="M885 2183 c-11 -8 -58 -37 -105 -65 -47 -28 -87 -52 -89 -54 -2 -2 3
-12 13 -23 14 -16 15 -23 4 -46 -11 -25 -10 -29 17 -48 17 -11 53 -44 81 -74
45 -47 64 -57 64 -32 0 4 -18 29 -41 55 -43 52 -79 114 -79 137 0 7 10 22 23
33 40 35 127 94 137 94 12 0 14 27 2 34 -4 2 -16 -2 -27 -11z m-141 -209 c3
-8 2 -12 -4 -9 -6 3 -10 10 -10 16 0 14 7 11 14 -7z"/>
<path d="M1069 1908 c-1 -7 0 -17 1 -23 2 -5 2 -20 2 -32 -1 -12 3 -25 8 -28
6 -4 10 14 10 44 0 28 -4 51 -10 51 -5 0 -11 -6 -11 -12z"/>
<path d="M220 1473 c-14 -16 -33 -40 -42 -54 -9 -15 -40 -44 -67 -65 -52 -40
-64 -64 -33 -64 10 0 46 -20 80 -45 34 -25 66 -45 72 -45 17 0 11 18 -12 34
-28 20 -37 106 -15 157 l15 36 53 -16 c39 -12 47 -17 30 -19 -19 -3 -22 -8
-16 -25 4 -12 10 -44 12 -70 5 -48 5 -49 -23 -45 -21 2 -30 -2 -32 -15 -3 -16
2 -18 30 -15 28 2 33 0 36 -19 3 -19 -1 -23 -22 -23 -16 0 -26 -6 -26 -15 0
-9 9 -15 25 -15 21 0 25 -5 25 -29 0 -15 3 -56 6 -90 7 -58 6 -61 -15 -61 -18
0 -20 -4 -15 -27 4 -15 7 -40 7 -55 0 -16 4 -28 9 -28 5 0 46 32 91 71 45 40
94 82 108 94 14 12 55 41 90 63 35 23 71 47 79 55 8 8 39 31 68 52 l53 37 57
-49 c31 -27 77 -64 102 -83 25 -19 54 -43 64 -52 11 -10 23 -18 28 -18 11 0
10 28 -1 35 -6 3 -40 44 -76 91 -75 97 -74 84 -9 214 43 85 51 110 37 110 -4
0 -58 -50 -120 -112 l-112 -111 -93 39 c-95 39 -375 179 -392 195 -16 15 -30
10 -56 -18z m90 -33 c50 -25 52 -35 4 -15 -20 8 -45 15 -55 15 -11 0 -19 5
-19 10 0 16 27 12 70 -10z m95 -74 c2 -6 5 -32 8 -58 4 -42 2 -48 -14 -48 -16
0 -19 8 -19 56 0 39 -4 54 -12 52 -8 -3 -11 -23 -9 -56 2 -47 0 -52 -18 -52
-18 0 -21 6 -21 40 0 55 23 89 56 82 14 -2 27 -10 29 -16z m495 -54 c-36 -74
-36 -83 -9 -108 53 -48 35 -53 -19 -5 -34 29 -62 56 -62 59 0 8 113 123 116
119 2 -2 -10 -31 -26 -65z m-730 3 l0 -46 -31 23 -30 23 26 22 c14 13 28 23
31 23 2 0 4 -20 4 -45z m298 -3 c2 -33 0 -42 -12 -42 -12 0 -16 11 -16 46 0
59 24 55 28 -4z m53 18 c11 -6 19 -21 19 -35 0 -20 -5 -25 -25 -25 -22 0 -25
4 -25 35 0 38 2 40 31 25z m67 -38 c2 -7 -3 -12 -12 -12 -9 0 -16 7 -16 16 0
17 22 14 28 -4z m121 -43 c41 -15 39 -25 -6 -33 -71 -11 -83 -8 -83 19 0 21 5
25 29 25 15 0 42 -5 60 -11z m-169 -24 c0 -20 -5 -25 -25 -25 -18 0 -25 5 -25
18 0 24 8 32 32 32 13 0 18 -7 18 -25z m60 0 c0 -16 -6 -25 -15 -25 -9 0 -15
9 -15 25 0 16 6 25 15 25 9 0 15 -9 15 -25z m-130 -11 c0 -31 -23 -28 -28 4
-2 15 2 22 12 22 11 0 16 -9 16 -26z m-112 -6 c-2 -13 -7 -23 -13 -23 -5 0
-11 10 -13 23 -2 15 2 22 13 22 11 0 15 -7 13 -22z m62 1 c0 -14 -5 -19 -17
-17 -26 5 -29 38 -4 38 15 0 21 -6 21 -21z m235 -39 c-19 -21 -37 -18 -28 5 3
8 14 15 26 15 19 0 19 -1 2 -20z m-51 -7 c4 -10 -1 -25 -14 -37 l-20 -20 0 37
c0 39 22 52 34 20z m-126 -46 c4 -63 22 -60 22 3 0 47 2 50 25 50 21 0 25 -5
25 -30 0 -16 0 -33 1 -37 1 -4 -31 -25 -71 -46 -84 -47 -90 -44 -90 46 0 44 3
57 15 57 8 0 16 -7 16 -15 1 -8 3 -19 4 -25 1 -5 3 -26 4 -46 2 -60 21 -27 21
37 0 74 23 78 28 6z m-108 -35 c4 -53 1 -77 -8 -84 -7 -6 -14 -9 -16 -7 -2 2
-8 42 -11 87 -7 79 -7 84 11 80 16 -3 20 -15 24 -76z m23 -114 c-79 -67 -73
-63 -73 -40 0 16 13 29 48 46 64 34 70 32 25 -6z"/>
<path d="M154 1137 c-66 -55 -76 -71 -46 -73 22 -1 104 -39 145 -67 21 -14 32
-16 39 -9 8 8 7 13 -5 18 -18 6 -57 118 -57 160 0 13 -3 24 -7 23 -5 0 -36
-24 -69 -52z m67 -47 c9 -27 14 -50 13 -50 -2 0 -24 10 -49 22 l-45 22 27 28
c15 15 29 28 33 28 3 0 13 -22 21 -50z"/>
<path d="M242 597 c-24 -7 -43 -15 -43 -19 1 -5 1 -12 1 -18 0 -5 12 -10 26
-10 19 0 25 -4 20 -15 -3 -9 0 -25 7 -35 9 -16 9 -24 -1 -41 -10 -15 -11 -24
-3 -32 18 -18 14 -105 -6 -116 -13 -7 -14 -13 -6 -23 14 -18 26 -155 13 -163
-5 -3 -10 -16 -10 -28 -1 -22 -1 -22 -15 -3 -18 24 -20 127 -3 144 24 24 -3
24 -69 -1 -41 -15 -69 -31 -71 -41 -2 -10 3 -16 14 -16 27 0 82 -48 104 -91
12 -22 25 -37 30 -34 6 4 10 1 10 -4 0 -24 30 -6 140 80 63 50 153 116 198
147 46 31 92 63 103 71 11 8 21 12 23 10 2 -2 29 -55 60 -116 33 -65 64 -113
72 -113 8 0 14 1 14 3 0 1 -29 59 -63 128 l-64 125 56 40 c31 23 75 52 98 65
24 13 43 27 43 31 0 18 -22 16 -52 -4 -19 -13 -68 -39 -109 -58 -41 -19 -77
-39 -80 -44 -8 -10 -44 1 -89 29 -19 11 -73 41 -120 65 -47 24 -104 56 -127
72 -46 31 -42 30 -101 15z m101 -48 c54 -32 52 -33 -23 -4 -53 21 -72 35 -47
35 10 0 41 -14 70 -31z m0 -40 c28 -10 37 -18 37 -36 0 -13 -4 -23 -10 -23 -5
0 -10 9 -10 21 0 15 -5 19 -15 15 -8 -3 -15 -1 -15 4 0 6 -4 10 -10 10 -5 0
-10 -11 -10 -25 0 -16 -6 -25 -15 -25 -11 0 -15 11 -15 41 0 29 4 40 13 36 6
-2 29 -10 50 -18z m77 -39 c0 -5 -4 -10 -10 -10 -5 0 -10 5 -10 10 0 6 5 10
10 10 6 0 10 -4 10 -10z m171 -61 c41 -17 75 -32 77 -34 2 -1 -13 -13 -32 -25
-28 -17 -53 -22 -116 -23 l-80 -2 0 42 c0 23 3 48 6 57 10 25 64 19 145 -15z
m-211 -34 c0 -30 -4 -55 -10 -55 -5 0 -10 25 -10 55 0 30 5 55 10 55 6 0 10
-25 10 -55z m31 -48 c-8 -8 -11 4 -11 39 0 66 14 80 18 19 2 -26 -2 -53 -7
-58z m-101 37 c0 -45 -3 -55 -16 -52 -8 2 -15 6 -15 11 1 4 1 27 1 52 0 33 4
45 15 45 12 0 15 -13 15 -56z m27 -11 c-2 -16 -4 -5 -4 22 0 28 2 40 4 28 2
-13 2 -35 0 -50z m148 -94 c-77 -45 -141 -79 -150 -79 -3 0 -4 24 -3 53 l2 52
3 -48 c5 -59 23 -52 23 9 0 24 5 44 10 44 6 0 10 -16 10 -35 0 -19 5 -35 10
-35 6 0 10 16 10 35 0 19 4 35 8 35 5 0 8 -9 8 -20 -1 -29 18 -25 22 5 3 23 7
25 60 25 l57 0 -70 -41z m-175 -33 c0 -42 -5 -67 -14 -75 -11 -9 -15 -5 -20
20 -8 41 -8 104 1 112 3 4 12 7 20 7 9 0 13 -17 13 -64z m-120 -15 c0 -5 -3
-16 -6 -25 -5 -13 -10 -13 -27 -5 -20 11 -20 12 -2 25 22 16 35 18 35 5z m195
-48 c-6 -2 -35 -21 -64 -43 -30 -23 -56 -38 -60 -35 -8 8 41 45 51 39 4 -3 8
-1 8 4 0 12 63 51 70 44 3 -3 0 -6 -5 -9z"/>
<path d="M115 520 c-27 -16 -50 -34 -50 -39 0 -15 149 -141 157 -133 4 4 -1
30 -11 57 -11 28 -22 71 -26 98 -4 26 -10 47 -14 47 -3 0 -28 -14 -56 -30z
m54 -56 c7 -26 10 -48 8 -50 -2 -2 -19 12 -37 31 -33 34 -33 35 -14 50 28 21
31 19 43 -31z"/>
<path d="M1057 234 c-4 -4 -7 -18 -7 -31 0 -17 6 -23 21 -23 16 0 20 5 17 27
-3 26 -18 39 -31 27z"/>
</g>
</svg>
