<?xml version="1.0" standalone="no"?>
<!DOCTYPE svg PUBLIC "-//W3C//DTD SVG 20010904//EN"
 "http://www.w3.org/TR/2001/REC-SVG-20010904/DTD/svg10.dtd">
<svg version="1.0" xmlns="http://www.w3.org/2000/svg"
 width="148.000000pt" height="134.000000pt" viewBox="0 0 148.000000 134.000000"
 preserveAspectRatio="xMidYMid meet">
<metadata>
Created by potrace 1.16, written by Peter Selinger 2001-2019
</metadata>
<g transform="translate(0.000000,134.000000) scale(0.100000,-0.100000)"
fill="#000000" stroke="none">
<path d="M987 1280 c-18 -21 -35 -30 -56 -30 -16 0 -32 -4 -36 -10 -3 -5 -1
-58 5 -117 7 -59 10 -132 8 -162 l-3 -53 -82 71 c-46 39 -84 71 -87 71 -10 0
-66 -56 -66 -66 0 -6 15 -14 33 -18 17 -3 71 -23 120 -43 l87 -37 0 -51 c0
-28 5 -56 10 -61 7 -7 0 -20 -20 -39 -26 -25 -40 -55 -25 -55 10 0 64 65 65
78 0 6 3 12 8 12 4 0 20 11 35 25 15 14 28 23 28 20 1 -3 3 -9 4 -15 1 -5 3
-26 4 -45 2 -62 21 -37 21 28 0 58 3 65 33 94 31 30 182 144 215 162 16 9 16
12 0 38 -9 15 -28 30 -42 33 -13 3 -70 49 -125 103 -55 53 -102 97 -104 97 -3
0 -17 -13 -30 -30z m143 -107 c0 -4 -108 52 -129 66 -12 8 -12 12 -2 25 11 14
20 9 72 -37 32 -28 59 -53 59 -54z m-180 23 c0 -12 -3 -52 -7 -87 -6 -54 -8
-59 -14 -34 -4 17 -7 56 -8 88 -1 44 2 57 14 57 9 0 15 -9 15 -24z m260 -101
c8 -10 -7 -34 -67 -106 -43 -51 -83 -94 -89 -96 -8 -3 -9 10 -3 44 17 104 28
187 24 191 -2 2 -19 5 -37 5 l-33 2 4 -140 3 -140 -41 -45 -41 -45 0 49 c0 38
3 47 15 43 21 -9 28 10 8 21 -16 9 -16 19 1 163 9 85 19 160 21 167 3 9 38 -5
114 -43 60 -31 115 -62 121 -70z m-168 -65 l-7 -75 -6 75 c-5 78 -3 98 12 83
4 -4 5 -42 1 -83z m223 32 c0 -5 -21 -27 -47 -47 -27 -20 -48 -33 -48 -30 0 3
17 26 37 51 35 41 58 52 58 26z m-470 -88 c17 -14 23 -23 15 -20 -8 3 -34 11
-57 18 -42 12 -56 32 -30 41 15 5 32 -4 72 -39z"/>
<path d="M356 1280 c-11 -11 -36 -20 -60 -22 -37 -3 -41 -5 -39 -28 2 -14 6
-67 9 -119 l7 -94 -74 7 c-41 3 -89 9 -106 12 l-33 6 0 -47 c0 -41 2 -46 18
-40 30 12 182 38 188 32 4 -3 9 -56 12 -117 4 -92 2 -117 -13 -150 -10 -22
-22 -40 -27 -40 -4 0 -8 -7 -8 -15 0 -8 5 -15 10 -15 6 0 10 4 10 9 0 15 183
197 225 224 61 39 101 74 93 83 -4 4 -34 -14 -67 -39 -33 -26 -62 -47 -66 -47
-4 0 19 29 50 65 32 36 62 65 66 65 5 0 14 -12 20 -27 7 -19 13 -23 21 -15 7
7 -12 42 -69 124 -44 62 -92 134 -107 161 -15 26 -31 47 -34 46 -4 0 -15 -9
-26 -19z m43 -42 c44 -72 44 -73 3 -33 -23 21 -42 43 -42 47 0 17 26 7 39 -14z
m-99 -40 c0 -32 -3 -39 -10 -28 -13 20 -13 70 0 70 6 0 10 -19 10 -42z m139
-62 c66 -66 91 -98 85 -107 -4 -8 -32 -42 -61 -77 l-53 -62 0 63 c0 35 7 86
15 113 20 66 20 66 -17 62 -23 -2 -32 -7 -29 -18 2 -8 6 -67 8 -130 5 -111 4
-116 -20 -145 -14 -16 -34 -41 -46 -55 l-20 -25 -1 122 0 122 38 3 c20 2 36 8
34 13 -1 6 -18 9 -37 7 -34 -3 -35 -3 -35 33 0 20 4 55 9 78 6 23 12 54 16 70
3 15 9 27 13 27 4 0 49 -42 101 -94z m-32 -48 c-3 -8 -6 -5 -6 6 -1 11 2 17 5
13 3 -3 4 -12 1 -19z m-277 -88 c13 -8 13 -10 -2 -10 -9 0 -23 -3 -32 -6 -11
-4 -16 -1 -16 10 0 18 27 21 50 6z"/>
<path d="M1296 803 c4 -21 9 -40 11 -43 8 -9 23 25 23 53 0 21 -5 27 -20 27
-19 0 -20 -4 -14 -37z"/>
<path d="M620 810 c0 -11 4 -20 9 -20 5 0 7 -9 4 -20 -7 -26 13 -26 27 -1 19
36 13 61 -15 61 -18 0 -25 -5 -25 -20z"/>
<path d="M1071 611 c-12 -16 -21 -34 -21 -39 0 -6 24 -22 53 -36 28 -13 76
-47 106 -74 l54 -49 -46 -80 c-26 -44 -62 -97 -80 -118 l-34 -39 -7 67 c-7 67
5 140 24 152 6 3 10 13 10 21 0 10 -12 14 -41 14 -38 0 -41 -2 -34 -22 4 -13
12 -73 17 -135 10 -106 9 -113 -11 -141 -30 -42 -26 -63 5 -27 65 76 202 208
232 222 45 21 51 41 21 65 -95 76 -159 143 -185 193 -16 30 -32 55 -36 55 -4
0 -16 -13 -27 -29z m49 -53 c0 -5 -9 -4 -20 2 -21 11 -25 22 -13 34 8 7 33
-21 33 -36z m-20 -157 c0 -6 -4 -13 -10 -16 -5 -3 -10 1 -10 9 0 9 5 16 10 16
6 0 10 -4 10 -9z m204 -20 c16 -18 15 -20 -21 -42 -21 -13 -44 -27 -51 -32 -7
-5 1 14 19 42 17 28 32 51 33 51 2 0 11 -8 20 -19z"/>
<path d="M933 547 c-2 -4 2 -10 11 -13 25 -10 36 -62 37 -178 0 -61 4 -133 9
-161 5 -36 8 -4 9 115 1 91 4 175 7 188 5 18 3 21 -10 16 -9 -3 -16 -1 -16 4
0 6 12 12 27 14 14 2 28 8 30 13 4 12 -96 14 -104 2z"/>
<path d="M330 532 c0 -18 -42 -52 -65 -52 -33 0 -36 -10 -20 -65 16 -51 20
-145 8 -145 -13 0 -123 90 -123 100 0 22 -18 8 -24 -17 -3 -16 -8 -38 -12 -49
-5 -19 -1 -23 38 -29 23 -4 60 -11 80 -17 44 -13 51 -34 44 -121 -5 -62 0 -87
17 -87 12 0 173 115 202 144 11 11 20 25 20 31 0 17 57 85 66 79 17 -10 9 -41
-13 -58 -22 -15 -21 -15 10 0 32 15 34 18 27 52 -10 54 -15 57 -40 26 l-23
-29 -22 25 c-30 35 -140 200 -140 211 0 5 -7 9 -15 9 -8 0 -15 -4 -15 -8z m39
-62 l16 -24 -28 18 c-15 10 -27 23 -27 28 0 16 22 4 39 -22z m-89 -17 c0 -5
-5 -15 -10 -23 -8 -12 -10 -11 -10 8 0 12 5 22 10 22 6 0 10 -3 10 -7z m64 -8
c17 -13 17 -15 4 -15 -27 0 -30 -17 -17 -78 7 -31 12 -97 10 -147 -2 -84 -4
-91 -29 -112 -15 -13 -30 -23 -33 -23 -9 0 1 292 12 343 12 50 22 56 53 32z
m105 -96 c28 -33 51 -66 51 -73 0 -15 -115 -136 -130 -136 -8 0 -9 28 -5 93 8
127 15 177 25 177 4 0 31 -27 59 -61z m-89 35 c0 -8 -4 -12 -10 -9 -5 3 -10
10 -10 16 0 5 5 9 10 9 6 0 10 -7 10 -16z m-195 -79 l30 -24 -35 9 c-19 6 -36
10 -37 10 -2 0 -3 7 -3 15 0 21 10 19 45 -10z"/>
<path d="M692 370 c-29 -39 -28 -45 13 -47 43 -2 55 -12 184 -148 57 -60 114
-111 125 -113 20 -2 20 -2 2 12 -12 10 -17 23 -13 36 3 11 1 23 -4 26 -5 3 -9
-5 -9 -18 0 -19 -12 -10 -71 52 -99 105 -166 186 -174 210 -9 28 -28 25 -53
-10z m42 -15 c4 -10 -1 -15 -14 -15 -13 0 -18 5 -14 15 4 8 10 15 14 15 4 0
10 -7 14 -15z"/>
<path d="M605 130 c-3 -5 -3 -16 2 -22 4 -7 6 -21 5 -30 -4 -22 14 -24 22 -2
11 29 7 64 -8 64 -8 0 -18 -4 -21 -10z"/>
<path d="M1334 125 c-4 -9 -2 -21 4 -27 15 -15 44 -1 40 19 -4 23 -36 29 -44
8z"/>
</g>
</svg>
