<?xml version="1.0" standalone="no"?>
<!DOCTYPE svg PUBLIC "-//W3C//DTD SVG 20010904//EN"
 "http://www.w3.org/TR/2001/REC-SVG-20010904/DTD/svg10.dtd">
<svg version="1.0" xmlns="http://www.w3.org/2000/svg"
 width="129.000000pt" height="51.000000pt" viewBox="0 0 129.000000 51.000000"
 preserveAspectRatio="xMidYMid meet">
<metadata>
Created by potrace 1.16, written by Peter Selinger 2001-2019
</metadata>
<g transform="translate(0.000000,51.000000) scale(0.100000,-0.100000)"
fill="#000000" stroke="none">
<path d="M718 438 c-54 -51 -150 -118 -209 -148 -34 -18 -39 -25 -39 -56 0
-19 -7 -46 -16 -59 l-16 -25 50 0 c28 0 77 -6 109 -14 32 -8 79 -17 106 -21
l47 -6 0 77 0 76 35 -6 c43 -8 46 6 4 21 -23 9 -30 17 -25 28 3 10 2 14 -5 9
-10 -6 -5 83 7 129 7 24 -18 22 -48 -5z m6 -60 c10 -40 7 -80 -6 -76 -15 5
-24 98 -10 98 5 0 12 -10 16 -22z m-44 -33 c0 -14 -4 -25 -9 -25 -12 0 -23 29
-15 41 10 18 24 9 24 -16z m-40 -61 c0 -24 -19 -45 -21 -22 0 7 -2 26 -4 41
-3 24 -1 26 11 16 8 -6 14 -22 14 -35z m-42 -49 c0 -68 -7 -90 -22 -67 -12 21
-15 114 -3 127 22 25 26 16 25 -60z m82 56 c0 -6 -4 -13 -10 -16 -5 -3 -10 1
-10 9 0 9 5 16 10 16 6 0 10 -4 10 -9z m50 -81 l0 -70 -35 0 -35 0 0 54 c0 73
17 80 25 11 4 -32 11 -52 17 -49 6 4 8 26 4 56 -7 49 -3 68 15 68 5 0 9 -31 9
-70z m-223 33 c-15 -16 -17 -16 -17 -1 0 9 6 18 13 21 20 7 22 -2 4 -20z m43
-18 c0 -36 -5 -41 -29 -26 -12 8 -12 13 3 35 22 34 26 33 26 -9z m90 -30 c0
-25 -4 -45 -10 -45 -11 0 -14 73 -3 83 11 12 13 8 13 -38z m-115 -18 c17 -13
16 -14 -6 -11 -13 1 -28 3 -32 3 -10 1 1 21 12 21 4 0 15 -6 26 -13z"/>
<path d="M1130 389 c-47 -17 -118 -42 -157 -56 -68 -23 -73 -27 -73 -53 0 -39
11 -43 39 -14 32 33 42 30 38 -13 -2 -27 -7 -37 -18 -34 -8 2 -21 6 -31 8 -10
3 -21 -3 -27 -16 -7 -12 -10 -21 -9 -22 2 -1 25 -3 51 -5 27 -2 81 -13 120
-24 40 -11 86 -23 104 -26 l31 -5 7 88 c4 48 11 106 16 128 11 50 11 75 2 75
-5 0 -46 -14 -93 -31z m54 -48 c9 -56 -4 -193 -18 -188 -17 5 -20 98 -4 109
10 8 10 11 1 15 -14 5 -18 84 -6 96 14 14 21 6 27 -32z m-46 -17 c-4 -39 -32
-39 -36 0 -4 29 16 52 31 37 5 -5 7 -21 5 -37z m-58 1 c0 -23 -2 -24 -20 -15
-25 13 -26 27 -2 33 9 3 18 5 20 6 1 0 2 -10 2 -24z m-55 -65 c0 -34 -4 -46
-17 -48 -14 -3 -16 5 -15 48 1 40 4 50 16 48 12 -2 16 -15 16 -48z m63 8 c2
-9 -6 -22 -17 -28 -19 -10 -21 -8 -21 20 0 25 4 31 17 28 10 -2 19 -11 21 -20z
m41 -48 c1 -39 -1 -51 -11 -48 -12 4 -19 79 -10 101 8 19 19 -7 21 -53z m-39
-4 c0 -16 -14 -36 -26 -36 -14 0 -19 22 -7 33 7 8 33 10 33 3z"/>
<path d="M220 355 c-47 -24 -102 -47 -123 -50 l-38 -7 6 -43 c5 -27 3 -45 -4
-49 -22 -14 -10 -26 24 -26 33 0 35 -2 35 -35 0 -19 5 -35 10 -35 6 0 10 16
10 36 0 21 4 33 10 29 6 -3 10 -19 10 -36 0 -16 5 -29 10 -29 6 0 10 14 10 31
0 17 4 28 10 24 6 -3 10 -17 10 -31 0 -13 5 -24 10 -24 6 0 10 11 10 25 0 14
5 25 10 25 6 0 10 -11 10 -25 0 -14 5 -25 10 -25 6 0 10 9 10 20 0 19 2 20 35
6 19 -8 37 -11 39 -7 3 4 5 43 5 87 0 43 5 95 11 114 25 85 -2 91 -130 25z
m117 -7 c-3 -7 -5 -2 -5 12 0 14 2 19 5 13 2 -7 2 -19 0 -25z m-27 -34 c0 -41
-2 -45 -22 -42 -30 4 -39 65 -12 85 25 18 34 7 34 -43z m-72 -6 c-3 -34 -20
-42 -26 -13 -5 22 5 45 18 45 7 0 10 -14 8 -32z m-46 -35 c5 -36 3 -52 -6 -42
-9 11 -16 79 -8 79 6 0 12 -17 14 -37z m-45 -30 c-3 -10 -5 -2 -5 17 0 19 2
27 5 18 2 -10 2 -26 0 -35z m93 2 c0 -8 -4 -15 -10 -15 -5 0 -10 7 -10 15 0 8
5 15 10 15 6 0 10 -7 10 -15z m80 0 c0 -10 -10 -15 -30 -15 -20 0 -30 5 -30
15 0 10 10 15 30 15 20 0 30 -5 30 -15z m-200 -5 c0 -5 -7 -10 -16 -10 -8 0
-12 5 -9 10 3 6 10 10 16 10 5 0 9 -4 9 -10z m120 -46 c0 -8 -4 -14 -10 -14
-5 0 -10 9 -10 21 0 11 5 17 10 14 6 -3 10 -13 10 -21z m64 20 c16 -6 22 -49
9 -57 -19 -11 -53 13 -53 38 0 25 13 31 44 19z m-104 -14 c0 -5 -4 -10 -10
-10 -5 0 -10 5 -10 10 0 6 5 10 10 10 6 0 10 -4 10 -10z"/>
<path d="M785 330 c-3 -5 1 -10 9 -10 8 0 18 5 21 10 3 6 -1 10 -9 10 -8 0
-18 -4 -21 -10z"/>
<path d="M377 152 c-8 -11 4 -62 14 -62 11 0 23 46 14 59 -7 13 -22 14 -28 3z"/>
<path d="M811 143 c1 -10 4 -29 9 -43 l7 -25 11 27 c6 15 9 35 6 43 -8 21 -34
19 -33 -2z"/>
<path d="M1253 144 c-8 -21 13 -42 28 -27 13 13 5 43 -11 43 -6 0 -13 -7 -17
-16z"/>
</g>
</svg>
