<?xml version="1.0" standalone="no"?>
<!DOCTYPE svg PUBLIC "-//W3C//DTD SVG 20010904//EN"
 "http://www.w3.org/TR/2001/REC-SVG-20010904/DTD/svg10.dtd">
<svg version="1.0" xmlns="http://www.w3.org/2000/svg"
 width="120.000000pt" height="332.000000pt" viewBox="0 0 120.000000 332.000000"
 preserveAspectRatio="xMidYMid meet">
<metadata>
Created by potrace 1.16, written by Peter Selinger 2001-2019
</metadata>
<g transform="translate(0.000000,332.000000) scale(0.100000,-0.100000)"
fill="#000000" stroke="none">
<path d="M1 1663 c-1 -1325 2 -1663 12 -1663 9 0 11 320 9 1572 -2 865 -7
1614 -11 1663 -5 50 -9 -655 -10 -1572z"/>
<path d="M180 3250 c0 -5 -14 -26 -32 -45 -26 -30 -29 -38 -17 -46 8 -5 18 -9
22 -9 4 0 19 -26 33 -57 14 -32 31 -70 38 -85 9 -17 11 -29 4 -36 -16 -16 7
-23 36 -12 16 6 27 6 31 0 7 -11 0 -13 -27 -11 -20 2 -51 -40 -39 -52 5 -5 17
-4 29 2 11 6 25 11 31 11 16 0 14 -120 -1 -124 -7 -2 -27 -8 -45 -13 l-31 -11
-20 57 c-12 31 -24 68 -27 84 -7 27 -35 39 -35 15 0 -7 -7 -26 -15 -42 -15
-29 -13 -46 8 -46 7 0 29 -24 49 -53 37 -54 37 -54 17 -74 -12 -12 -17 -26
-13 -37 6 -16 8 -16 28 2 11 10 64 37 116 60 406 176 558 237 568 228 3 -4 1
-16 -6 -27 -17 -26 -10 -34 45 -59 26 -11 71 -39 100 -60 54 -42 73 -49 73
-27 0 6 -26 29 -58 50 -32 22 -72 57 -91 78 l-33 40 38 34 c22 19 67 48 102
66 34 17 65 36 68 41 17 27 -18 16 -130 -40 l-124 -63 -129 42 c-70 23 -181
64 -245 90 -65 27 -122 49 -128 49 -5 0 -34 11 -64 25 -66 30 -68 30 -84 5
-26 -42 -46 -4 -22 41 8 15 7 19 -5 19 -8 0 -15 -4 -15 -10z m126 -87 c-6 -7
-65 10 -61 17 3 5 18 3 35 -3 16 -6 28 -12 26 -14z m-26 -23 c111 -30 108 -29
86 -46 -15 -11 -19 -24 -17 -59 1 -37 -1 -44 -14 -39 -18 7 -18 16 -4 67 13
47 6 58 -26 44 -19 -9 -24 -17 -20 -32 18 -68 19 -65 -11 -65 -27 0 -31 5 -48
63 -11 34 -21 68 -24 75 -5 15 -10 16 78 -8z m239 -66 c120 -37 241 -76 241
-79 0 -1 -52 -2 -116 -1 l-115 1 6 33 c6 31 4 33 -17 30 -19 -2 -23 -8 -20
-35 2 -18 -1 -33 -7 -33 -17 0 -21 16 -11 48 10 36 -2 51 -26 31 -10 -8 -13
-21 -9 -40 3 -15 2 -30 -4 -33 -16 -10 -20 8 -11 49 10 46 6 54 -20 37 -19
-11 -28 -3 -13 11 11 12 34 8 122 -19z m-129 -60 c0 -14 -4 -23 -9 -20 -5 3
-7 15 -4 26 7 28 13 25 13 -6z m-40 -59 c0 -8 -7 -15 -15 -15 -8 0 -15 7 -15
15 0 8 7 15 15 15 8 0 15 -7 15 -15z m50 0 c0 -8 -7 -15 -15 -15 -8 0 -15 7
-15 15 0 8 7 15 15 15 8 0 15 -7 15 -15z m40 0 c0 -8 -4 -15 -10 -15 -5 0 -10
7 -10 15 0 8 5 15 10 15 6 0 10 -7 10 -15z m60 1 c0 -8 -7 -16 -15 -20 -10 -4
-15 1 -15 14 0 11 7 20 15 20 8 0 15 -6 15 -14z m255 -16 c-183 -76 -246 -98
-241 -83 3 8 6 23 6 34 0 17 8 19 76 19 53 0 75 3 72 12 -3 7 -31 12 -74 13
-56 1 -70 4 -72 18 -3 15 11 17 150 17 l153 -1 -70 -29z m-415 -85 c0 -30 -4
-55 -10 -55 -5 0 -10 25 -10 55 0 30 5 55 10 55 6 0 10 -25 10 -55z m50 6 c0
-34 -4 -51 -15 -55 -12 -4 -15 3 -15 33 0 22 3 46 6 55 12 32 24 15 24 -33z
m50 4 c0 -33 -4 -45 -15 -45 -12 0 -15 11 -13 45 1 30 6 45 15 45 9 0 13 -14
13 -45z m55 13 c0 -30 -10 -47 -26 -48 -4 0 -6 18 -5 40 0 29 5 40 16 40 11 0
15 -10 15 -32z m-341 -24 c3 -8 2 -12 -4 -9 -6 3 -10 10 -10 16 0 14 7 11 14
-7z m171 -93 c-19 -18 -87 -41 -83 -28 3 6 20 17 39 24 42 15 56 16 44 4z"/>
<path d="M132 3069 l-21 -42 28 -26 c15 -14 36 -50 45 -78 17 -51 36 -79 36
-51 -1 19 -56 228 -62 234 -3 2 -15 -14 -26 -37z"/>
<path d="M341 2423 c-16 -56 -14 -60 24 -73 33 -11 35 -14 35 -58 0 -34 -3
-43 -10 -32 -5 8 -10 30 -10 48 0 17 -4 32 -10 32 -5 0 -10 -20 -10 -45 0 -25
-4 -45 -10 -45 -13 0 -13 -27 0 -32 6 -2 14 -29 17 -60 5 -55 4 -58 -21 -69
-33 -15 -34 -29 -1 -29 23 0 24 -2 18 -45 -3 -28 -1 -50 6 -58 9 -12 2 -18
-39 -35 l-50 -21 0 49 c0 27 -4 51 -8 54 -9 6 -111 -64 -111 -77 -1 -8 7 -12
49 -21 14 -3 45 -24 69 -47 43 -40 43 -40 65 -21 11 11 41 30 64 43 65 36 87
48 207 120 61 36 135 80 166 97 l55 31 40 -32 c21 -17 58 -50 82 -72 24 -22
48 -41 53 -43 22 -8 6 37 -28 79 -75 91 -98 123 -98 132 0 9 108 102 180 154
23 17 27 24 18 34 -9 9 -30 -1 -95 -43 -46 -30 -110 -71 -144 -91 l-61 -37
-79 43 c-43 24 -106 60 -139 81 -127 81 -141 90 -167 108 -38 26 -46 23 -57
-19z m135 -65 c57 -34 102 -63 100 -65 -2 -2 -37 12 -77 30 -41 18 -89 39
-106 46 -21 9 -33 20 -33 32 0 11 3 19 6 19 4 0 53 -28 110 -62z m-44 -35 c2
-5 1 -26 -2 -48 l-6 -40 -5 48 c-4 41 3 62 13 40z m40 -48 c-6 -48 -22 -44
-22 5 0 28 4 38 13 34 8 -3 11 -17 9 -39z m74 -12 c-3 -8 -6 -19 -6 -24 0 -5
-4 -9 -10 -9 -5 0 -10 11 -10 25 0 31 -17 33 -23 3 -3 -17 -5 -15 -6 9 -1 31
-1 32 30 21 20 -7 28 -15 25 -25z m92 -22 c34 -13 60 -26 58 -29 -3 -2 -35 1
-71 8 -54 10 -65 16 -65 32 0 11 3 18 8 16 4 -2 35 -14 70 -27z m224 -24 l-22
-23 31 -37 c17 -21 30 -40 28 -42 -4 -3 -89 72 -89 79 0 4 63 46 69 46 3 0 -5
-10 -17 -23z m-465 -89 c-2 -18 -4 -4 -4 32 0 36 2 50 4 33 2 -18 2 -48 0 -65z
m30 10 c-2 -18 -4 -6 -4 27 0 33 2 48 4 33 2 -15 2 -42 0 -60z m30 -5 c-2 -16
-4 -3 -4 27 0 30 2 43 4 28 2 -16 2 -40 0 -55z m75 37 c-6 -42 -19 -38 -14 5
2 19 7 33 11 30 4 -2 6 -18 3 -35z m-41 -15 c-9 -30 -9 -30 -10 10 -1 25 2 36
9 29 6 -6 6 -21 1 -39z m199 34 c16 0 5 -6 -28 -15 -44 -12 -57 -13 -70 -2
-13 11 -15 10 -9 -4 5 -14 1 -18 -14 -18 -15 0 -19 5 -15 16 3 9 6 20 6 26 0
7 18 9 53 4 28 -3 63 -6 77 -7z m101 -19 c20 -11 26 -30 10 -30 -6 0 -27 -10
-48 -22 -21 -13 -75 -39 -120 -60 l-83 -36 0 49 0 48 43 11 c41 10 142 38 162
45 6 2 11 4 13 4 2 1 12 -4 23 -9z m-261 -108 l0 -48 -65 -32 c-36 -18 -68
-32 -70 -32 -3 0 -4 28 -3 63 l2 62 3 -52 c5 -71 23 -67 24 5 1 31 4 45 6 30
6 -39 23 -35 24 5 2 32 2 32 8 -6 3 -21 11 -37 16 -35 6 1 9 8 7 15 -2 7 4 13
13 13 9 0 15 9 15 23 0 21 7 37 17 37 2 0 3 -22 3 -48z m-10 -86 c0 -2 -26
-19 -57 -36 -32 -18 -77 -43 -100 -57 -27 -15 -44 -20 -48 -13 -4 6 35 30 97
60 114 54 108 52 108 46z m-270 -30 c0 -19 -4 -23 -20 -19 -20 5 -20 7 -4 24
22 24 24 24 24 -5z"/>
<path d="M248 2357 c-50 -45 -58 -61 -33 -70 8 -4 31 -31 51 -62 20 -30 41
-55 46 -55 5 0 6 19 3 43 -15 100 -17 155 -6 161 6 4 11 11 11 17 0 19 -27 7
-72 -34z m30 -64 l3 -48 -21 33 c-16 27 -18 37 -9 48 19 23 25 16 27 -33z"/>
<path d="M260 2145 c-13 -14 -32 -25 -41 -25 -12 0 -16 -5 -13 -15 4 -10 0
-15 -15 -15 -25 0 -28 -18 -3 -27 9 -4 39 -20 65 -36 26 -16 50 -27 53 -25 2
3 -3 19 -12 37 -16 31 -15 77 1 114 11 25 -8 21 -35 -8z m-4 -83 c-10 -10 -29
15 -21 28 6 9 10 8 17 -4 6 -10 7 -20 4 -24z"/>
<path d="M1162 2025 c1 -29 6 -45 14 -45 15 0 24 23 24 61 0 22 -5 29 -19 29
-16 0 -19 -7 -19 -45z"/>
<path d="M296 1573 c-4 -5 -13 -8 -19 -8 -7 -1 -11 -7 -9 -14 1 -7 -5 -19 -15
-26 -15 -11 -16 -14 -3 -18 8 -3 24 -8 35 -12 l20 -7 -20 -8 c-11 -4 -23 -6
-27 -3 -11 6 -10 -15 3 -38 6 -11 14 -42 18 -69 7 -43 6 -49 -12 -54 -21 -5
-14 -26 9 -26 23 0 16 -28 -8 -32 -34 -5 -30 -33 4 -31 26 2 27 0 33 -65 3
-37 9 -79 11 -94 5 -24 1 -30 -23 -39 -24 -9 -30 -7 -45 11 -19 24 -24 85 -8
95 13 8 13 35 0 35 -13 0 -95 -90 -95 -104 0 -6 6 -10 14 -8 24 5 50 -8 56
-29 4 -11 18 -24 31 -29 19 -8 24 -17 24 -45 0 -19 4 -35 9 -35 4 0 52 29 105
65 53 36 98 65 99 65 2 0 47 29 102 65 54 36 102 65 107 65 4 0 26 13 48 29
84 61 87 61 192 -10 51 -34 103 -71 115 -82 20 -18 43 -16 43 3 0 5 -52 43
-115 84 -63 42 -115 78 -115 80 0 2 47 35 105 72 91 58 117 84 85 84 -6 0 -53
-29 -107 -65 -53 -36 -104 -65 -113 -65 -9 0 -56 21 -106 46 -49 26 -154 79
-233 120 -79 40 -151 80 -161 89 -19 17 -24 18 -34 8z m61 -59 c60 -27 54 -38
-7 -14 -28 11 -53 20 -56 20 -3 0 -2 5 1 11 4 5 10 8 13 6 4 -2 26 -12 49 -23z
m73 -71 c5 -5 -92 7 -99 13 -1 1 0 7 3 12 5 9 83 -11 96 -25z m40 -13 c0 -5
-5 -10 -10 -10 -6 0 -8 -21 -4 -56 6 -51 5 -56 -12 -52 -25 4 -28 42 -7 91 15
35 33 50 33 27z m-140 -71 c0 -28 -4 -48 -9 -45 -12 8 -25 82 -16 96 13 21 25
-3 25 -51z m205 51 c3 -5 -1 -10 -10 -10 -9 0 -13 5 -10 10 3 6 8 10 10 10 2
0 7 -4 10 -10z m-135 -56 c0 -38 -3 -45 -17 -42 -22 4 -29 48 -13 78 16 31 30
15 30 -36z m200 30 c0 -2 -9 -4 -21 -4 -11 0 -18 4 -14 10 5 8 35 3 35 -6z
m-90 -51 c0 -13 -4 -23 -9 -23 -17 0 -23 20 -16 48 5 20 8 23 16 11 5 -7 9
-24 9 -36z m177 12 l68 -34 -77 -1 c-56 0 -78 4 -78 13 0 16 11 57 16 57 2 0
34 -16 71 -35z m-110 -7 c-3 -8 -6 -5 -6 6 -1 11 2 17 5 13 3 -3 4 -12 1 -19z
m-17 -20 c0 -5 -4 -8 -10 -8 -5 0 -10 10 -10 23 0 18 2 19 10 7 5 -8 10 -18
10 -22z m-212 -46 c2 -7 -3 -12 -12 -12 -9 0 -16 7 -16 16 0 17 22 14 28 -4z
m52 3 c0 -8 -7 -15 -15 -15 -8 0 -15 7 -15 15 0 8 7 15 15 15 8 0 15 -7 15
-15z m64 6 c3 -5 -1 -12 -10 -15 -22 -9 -24 -8 -24 9 0 16 25 21 34 6z m56 -1
c0 -5 -7 -10 -15 -10 -8 0 -15 5 -15 10 0 6 7 10 15 10 8 0 15 -4 15 -10z m45
0 c3 -5 -1 -10 -9 -10 -9 0 -16 5 -16 10 0 6 4 10 9 10 6 0 13 -4 16 -10z m73
-7 c-10 -2 -26 -2 -35 0 -10 3 -2 5 17 5 19 0 27 -2 18 -5z m102 -33 c-19 -10
-57 -30 -85 -43 l-50 -25 -7 32 c-4 17 -4 34 0 38 6 6 57 12 147 16 l30 1 -35
-19z m-332 -80 c3 -74 -11 -117 -21 -63 -21 107 -19 149 6 140 7 -2 13 -33 15
-77z m64 18 c3 -60 -7 -87 -34 -88 -10 0 -11 134 -1 143 20 21 31 3 35 -55z
m50 11 c4 -68 -17 -87 -26 -23 -9 66 -8 74 8 74 10 0 15 -16 18 -51z m48 6 c0
-48 -14 -60 -24 -22 -10 39 -7 67 9 67 11 0 15 -12 15 -45z m-215 -46 c5 -51
3 -85 -3 -91 -7 -7 -12 8 -16 44 -4 29 -9 70 -12 91 -5 28 -2 37 9 37 11 0 17
-19 22 -81z m94 -87 c-47 -36 -150 -94 -156 -88 -10 10 5 21 87 65 80 43 108
53 69 23z"/>
<path d="M163 1461 c-58 -52 -66 -71 -30 -71 13 0 33 -9 45 -20 32 -31 72 -24
41 7 -11 11 -8 67 6 111 11 33 -4 27 -62 -27z m20 -42 c-4 -13 -9 -17 -15 -11
-11 11 -3 32 12 32 4 0 6 -9 3 -21z"/>
<path d="M181 1306 c-19 -20 -41 -36 -48 -36 -7 0 -13 -9 -13 -20 0 -14 7 -20
22 -20 11 0 36 -11 54 -25 40 -31 48 -31 39 -2 -4 12 -10 48 -14 80 l-6 58
-34 -35z m19 -46 c0 -5 -7 -10 -16 -10 -8 0 -12 5 -9 10 3 6 10 10 16 10 5 0
9 -4 9 -10z"/>
<path d="M1161 1166 c-8 -10 -9 -16 -1 -21 5 -3 7 -18 4 -32 -6 -21 -3 -24 12
-21 14 2 20 13 22 46 3 44 -13 57 -37 28z"/>
<path d="M300 702 c-14 -9 -60 -43 -103 -75 l-78 -58 41 -49 c22 -26 40 -51
40 -55 0 -4 -18 -28 -41 -52 -33 -36 -38 -47 -29 -59 7 -8 18 -14 25 -14 7 0
22 -8 34 -17 l22 -18 -46 -45 c-25 -24 -45 -50 -45 -56 0 -7 17 -14 37 -17 21
-3 50 -9 66 -12 35 -9 37 12 2 25 -30 11 -31 25 -7 65 24 38 36 85 22 85 -5 0
-10 -5 -10 -11 0 -5 -4 -7 -10 -4 -13 8 -13 92 -1 100 6 3 7 35 4 73 -5 66 9
119 36 136 16 11 61 -12 55 -28 -3 -8 -1 -17 5 -21 6 -3 11 -35 11 -71 0 -62
-1 -64 -25 -64 -16 0 -25 -6 -25 -15 0 -9 10 -15 26 -15 19 0 25 -4 22 -17 -2
-10 -5 -16 -8 -14 -3 2 -15 -1 -28 -8 -27 -14 -19 -35 10 -25 20 6 21 4 15
-62 -4 -38 -7 -79 -7 -91 0 -13 -6 -23 -13 -23 -8 0 -21 -8 -31 -18 -14 -16
-15 -27 -6 -72 6 -29 12 -55 14 -57 2 -2 41 34 87 80 46 45 99 94 118 107 19
14 52 40 74 58 61 50 157 103 176 97 10 -3 59 -48 111 -100 51 -52 94 -95 96
-95 12 0 1 38 -19 64 -40 53 -87 136 -87 152 0 19 21 52 82 131 42 55 60 93
42 93 -3 0 -22 -17 -43 -37 -20 -21 -69 -67 -109 -101 -69 -61 -73 -63 -95
-49 -12 9 -63 44 -114 79 -167 116 -253 179 -253 189 0 13 -11 10 -40 -9z m62
-48 c21 -15 38 -28 38 -30 0 -1 -22 7 -49 19 -27 12 -47 25 -44 30 7 11 14 9
55 -19z m27 -130 c2 -68 0 -75 -16 -72 -15 3 -19 15 -21 67 -3 73 1 93 21 85
10 -3 15 -27 16 -80z m-197 25 l-9 -24 -8 24 c-5 16 -3 26 6 32 18 11 22 -1
11 -32z m248 -51 c0 -38 -3 -48 -16 -48 -14 0 -15 7 -10 38 3 20 6 48 6 62 0
20 2 22 10 10 5 -8 10 -36 10 -62z m48 -3 c2 -36 0 -45 -14 -45 -13 0 -15 6
-10 31 3 17 6 38 6 45 0 8 3 14 8 14 4 0 8 -20 10 -45z m55 -12 c-3 -20 -11
-33 -20 -33 -11 0 -13 7 -8 33 9 41 15 51 25 40 4 -4 6 -23 3 -40z m287 -17
c-35 -51 -37 -66 -13 -104 14 -22 9 -20 -24 12 l-42 39 52 48 c29 27 53 48 55
49 2 0 -11 -20 -28 -44z m-202 -2 l37 -26 -34 6 c-18 3 -40 6 -47 6 -8 0 -14
9 -14 20 0 27 14 25 58 -6z m-238 -55 c0 -14 -5 -19 -17 -17 -26 5 -29 38 -4
38 15 0 21 -6 21 -21z m50 1 c0 -11 -7 -20 -15 -20 -8 0 -15 9 -15 20 0 11 7
20 15 20 8 0 15 -9 15 -20z m45 0 c0 -7 -6 -15 -12 -17 -8 -3 -13 4 -13 17 0
13 5 20 13 18 6 -3 12 -11 12 -18z m55 0 c0 -11 -7 -20 -15 -20 -27 0 -18 30
13 39 1 1 2 -8 2 -19z m146 -5 c-27 -21 -116 -20 -116 0 0 12 14 15 68 15 61
-1 65 -2 48 -15z m-506 -31 c0 -8 -5 -12 -10 -9 -6 4 -8 11 -5 16 9 14 15 11
15 -7z m206 -71 c-5 -45 -12 -70 -24 -79 -15 -11 -17 -7 -20 53 -4 79 1 93 29
93 21 0 21 -3 15 -67z m45 11 c-2 -46 -14 -74 -26 -62 -3 3 -3 31 1 62 8 70
29 71 25 0z m47 14 c-4 -55 -28 -64 -28 -10 0 21 3 42 7 45 16 17 24 4 21 -35z
m45 -15 c-16 -13 -18 -12 -21 8 -3 14 4 28 15 36 16 13 18 12 21 -8 3 -14 -4
-28 -15 -36z m67 37 c-19 -13 -30 -13 -30 0 0 6 10 10 23 10 18 0 19 -2 7 -10z
m-150 -118 c-19 -15 -60 -51 -91 -80 -31 -28 -59 -52 -63 -52 -4 0 -6 12 -4
26 2 21 20 37 93 79 102 60 115 66 65 27z"/>
<path d="M1107 274 c-4 -4 -7 -18 -7 -31 0 -20 5 -24 23 -21 16 2 22 10 22 28
0 24 -23 39 -38 24z"/>
</g>
</svg>
