<?xml version="1.0" standalone="no"?>
<!DOCTYPE svg PUBLIC "-//W3C//DTD SVG 20010904//EN"
 "http://www.w3.org/TR/2001/REC-SVG-20010904/DTD/svg10.dtd">
<svg version="1.0" xmlns="http://www.w3.org/2000/svg"
 width="129.000000pt" height="51.000000pt" viewBox="0 0 129.000000 51.000000"
 preserveAspectRatio="xMidYMid meet">
<metadata>
Created by potrace 1.16, written by Peter Selinger 2001-2019
</metadata>
<g transform="translate(0.000000,51.000000) scale(0.100000,-0.100000)"
fill="#000000" stroke="none">
<path d="M4 255 c0 -143 2 -200 3 -127 2 73 2 190 0 260 -1 70 -3 10 -3 -133z"/>
<path d="M513 440 c-25 -30 -29 -50 -12 -50 13 0 130 -102 127 -111 -4 -10
-138 -109 -147 -109 -5 0 -14 -7 -21 -15 -11 -13 -9 -20 10 -40 13 -14 29 -25
35 -25 7 0 26 28 43 63 27 54 79 107 105 107 13 0 35 -55 53 -132 19 -83 40
-107 31 -36 -4 24 0 81 7 127 14 95 12 97 -53 82 -48 -10 -47 -12 -102 102
-18 37 -38 67 -44 66 -5 0 -20 -13 -32 -29z m75 -86 c-3 -2 -17 9 -33 26 -19
19 -25 34 -21 46 6 15 12 10 32 -25 14 -23 24 -44 22 -47z m138 -96 c-3 -13
-6 -34 -6 -48 0 -21 -4 -17 -20 19 -25 54 -25 51 6 51 22 0 25 -3 20 -22z
m-205 -112 c-11 -27 -25 -33 -36 -16 -6 9 36 53 43 46 1 -2 -2 -15 -7 -30z"/>
<path d="M110 426 c-12 -14 -20 -31 -17 -38 2 -8 29 -26 58 -42 100 -54 100
-53 9 -103 -44 -24 -80 -45 -80 -46 2 -19 31 -82 38 -82 5 0 29 25 53 55 23
30 51 61 61 68 30 22 22 64 -27 128 -24 32 -45 65 -45 72 0 20 -25 14 -50 -12z
m54 -41 c9 -14 13 -25 8 -25 -13 0 -52 30 -52 41 0 18 28 8 44 -16z m-6 -194
c-32 -38 -48 -44 -48 -16 0 12 54 52 73 54 5 1 -7 -17 -25 -38z"/>
<path d="M916 387 c-15 -19 -26 -39 -26 -44 0 -6 27 -16 59 -21 33 -6 78 -20
101 -32 48 -25 49 -24 -50 -75 -81 -43 -80 -41 -68 -83 5 -20 13 -41 17 -45 4
-4 33 25 64 66 94 123 86 121 158 46 57 -59 61 -62 56 -34 -4 17 -10 60 -13
98 -4 37 -11 67 -16 67 -6 0 -23 -9 -39 -21 -42 -30 -71 -19 -141 52 -33 32
-64 59 -68 59 -5 0 -20 -15 -34 -33z m73 -29 c31 -28 33 -31 11 -24 -14 4 -37
10 -52 13 -24 4 -25 7 -15 24 6 10 14 19 16 19 2 0 20 -14 40 -32z m202 -102
l4 -44 -31 27 -31 26 21 17 c30 25 34 23 37 -26z m-198 -90 c-26 -34 -43 -38
-43 -12 0 9 47 41 68 45 2 1 -9 -14 -25 -33z"/>
<path d="M312 330 c-45 -24 -44 -20 -28 -76 8 -27 20 -75 26 -106 6 -32 15
-60 19 -63 5 -2 11 39 15 93 4 53 9 114 12 135 7 41 4 42 -44 17z m20 -64 c-2
-25 -8 -46 -12 -46 -14 0 -22 71 -9 86 18 22 25 9 21 -40z"/>
<path d="M814 99 c-3 -6 -1 -14 5 -18 7 -4 9 -15 5 -26 -5 -13 -3 -16 7 -13
20 7 25 68 5 68 -8 0 -18 -5 -22 -11z"/>
<path d="M386 82 c-8 -13 4 -72 14 -72 16 0 21 53 7 68 -9 8 -17 10 -21 4z"/>
</g>
</svg>
