<?xml version="1.0" standalone="no"?>
<!DOCTYPE svg PUBLIC "-//W3C//DTD SVG 20010904//EN"
 "http://www.w3.org/TR/2001/REC-SVG-20010904/DTD/svg10.dtd">
<svg version="1.0" xmlns="http://www.w3.org/2000/svg"
 width="129.000000pt" height="73.000000pt" viewBox="0 0 129.000000 73.000000"
 preserveAspectRatio="xMidYMid meet">
<metadata>
Created by potrace 1.16, written by Peter Selinger 2001-2019
</metadata>
<g transform="translate(0.000000,73.000000) scale(0.100000,-0.100000)"
fill="#000000" stroke="none">
<path d="M323 723 c181 -2 473 -2 650 0 177 1 30 2 -328 2 -357 0 -502 -1
-322 -2z"/>
<path d="M521 659 c-33 -40 -33 -43 -16 -55 10 -8 25 -14 32 -14 7 0 13 -4 13
-8 0 -6 -159 -133 -239 -190 -16 -11 -28 -1 -107 88 -49 55 -91 100 -95 100
-3 0 -19 -19 -35 -41 -27 -40 -28 -42 -10 -53 10 -6 60 -37 109 -70 l91 -58
-35 -29 c-18 -16 -69 -53 -111 -81 -43 -29 -78 -56 -78 -61 0 -5 12 -24 26
-43 l27 -35 17 28 c32 51 161 193 175 193 23 0 219 -180 248 -227 15 -24 30
-43 35 -43 4 0 27 29 50 64 42 64 62 85 166 165 31 24 56 48 56 53 0 13 -55
-21 -107 -66 -24 -21 -46 -37 -48 -35 -2 3 -7 62 -11 133 -8 148 -15 144 89
53 37 -33 71 -57 75 -53 4 4 -27 37 -67 74 -65 59 -177 188 -206 237 -9 15
-14 12 -44 -26z m64 -36 c29 -33 31 -43 8 -37 -30 8 -66 41 -59 53 11 18 25
13 51 -16z m59 -140 c3 -29 9 -100 13 -157 6 -100 5 -103 -18 -120 -22 -15
-24 -15 -31 1 -3 10 -7 70 -8 133 -1 63 -5 141 -9 172 l-7 57 27 -16 c22 -13
28 -25 33 -70z m-70 -20 c11 -165 11 -282 -2 -295 -6 -6 -13 -10 -16 -7 -9 10
-20 371 -11 380 18 18 23 7 29 -78z m-381 -8 c34 -42 31 -41 -48 13 -63 43
-60 39 -45 57 12 14 16 13 37 -7 14 -13 39 -41 56 -63z m332 -140 c6 -150 6
-159 -10 -144 -14 14 -18 45 -24 168 -4 94 -2 156 4 162 16 16 22 -19 30 -186z
m-54 43 c0 -62 2 -121 4 -131 2 -10 -2 -17 -8 -14 -8 2 -15 46 -21 115 -9 111
-6 142 14 142 6 0 10 -42 11 -112z m-51 -21 l0 -81 -50 49 -51 50 41 38 c22
21 45 35 50 32 6 -3 10 -43 10 -88z m-291 -134 c-33 -38 -50 -47 -55 -28 -3
10 63 64 80 65 4 0 -7 -17 -25 -37z m477 -55 c-9 -13 -19 -31 -23 -40 -7 -22
-19 -23 -27 -2 -9 23 -9 23 27 44 41 25 43 25 23 -2z"/>
<path d="M854 355 c-1 -52 -7 -51 113 -30 49 8 131 16 183 17 153 5 114 22
-65 29 -88 4 -173 12 -188 18 -41 16 -42 15 -43 -34z m95 5 c39 0 15 -13 -34
-17 -39 -4 -44 -3 -39 12 5 11 14 15 28 11 11 -3 32 -6 45 -6z"/>
</g>
</svg>
