<?xml version="1.0" standalone="no"?>
<!DOCTYPE svg PUBLIC "-//W3C//DTD SVG 20010904//EN"
 "http://www.w3.org/TR/2001/REC-SVG-20010904/DTD/svg10.dtd">
<svg version="1.0" xmlns="http://www.w3.org/2000/svg"
 width="95.000000pt" height="191.000000pt" viewBox="0 0 95.000000 191.000000"
 preserveAspectRatio="xMidYMid meet">
<metadata>
Created by potrace 1.16, written by Peter Selinger 2001-2019
</metadata>
<g transform="translate(0.000000,191.000000) scale(0.100000,-0.100000)"
fill="#000000" stroke="none">
<path d="M238 1903 c134 -2 350 -2 480 0 130 1 21 2 -243 2 -264 0 -371 -1
-237 -2z"/>
<path d="M494 1855 c-10 -25 3 -42 36 -49 46 -9 180 -69 177 -80 -3 -9 -155
-99 -219 -129 -31 -15 -38 -23 -38 -47 0 -43 14 -44 52 -2 19 21 55 52 79 69
75 52 142 93 151 93 7 0 13 -87 9 -132 -1 -9 3 -19 9 -23 5 -3 10 -3 10 2 2
64 9 167 15 201 8 42 7 44 -16 40 -17 -2 -25 -11 -29 -31 l-5 -27 -80 45 c-43
25 -89 54 -100 65 -25 24 -44 26 -51 5z m46 -26 c0 -4 -7 -6 -15 -3 -8 4 -15
10 -15 15 0 4 7 6 15 3 8 -4 15 -10 15 -15z m217 -81 c-3 -8 -6 -5 -6 6 -1 11
2 17 5 13 3 -3 4 -12 1 -19z m-267 -183 c-7 -9 -15 -13 -17 -11 -7 7 7 26 19
26 6 0 6 -6 -2 -15z"/>
<path d="M418 1788 l-3 -53 -142 1 c-129 1 -142 -1 -146 -18 -3 -12 -14 -18
-32 -18 -26 0 -27 -2 -20 -41 4 -22 7 -68 7 -102 0 -34 2 -66 5 -71 8 -12 23
15 23 41 0 12 8 24 18 27 30 9 145 25 219 30 81 5 83 3 83 -83 0 -24 3 -41 6
-38 4 3 8 55 9 114 2 59 10 142 19 183 9 41 16 76 16 78 0 1 -13 2 -29 2 -29
0 -30 -2 -33 -52z m29 -15 c-3 -10 -5 -2 -5 17 0 19 2 27 5 18 2 -10 2 -26 0
-35z m-29 -107 c2 -32 -1 -52 -10 -57 -7 -5 -77 -9 -155 -9 -154 0 -154 0
-133 54 11 30 51 43 170 55 128 13 124 14 128 -43z"/>
<path d="M869 1638 c-1 -7 0 -17 1 -23 2 -5 2 -18 2 -28 -1 -27 21 -15 33 17
7 21 6 29 -5 36 -20 13 -30 12 -31 -2z"/>
<path d="M580 1107 c0 -8 -9 -22 -19 -31 -18 -16 -19 -16 -17 1 0 10 -5 18
-11 17 -7 -1 -22 -2 -33 -2 -16 -2 -20 -9 -20 -41 0 -34 -3 -38 -22 -35 -13 2
-85 5 -161 8 l-138 4 -9 -24 c-7 -17 -17 -24 -36 -24 -26 0 -27 -1 -20 -52 3
-29 6 -81 6 -115 0 -35 4 -63 10 -63 6 0 10 13 10 29 0 20 6 32 18 36 11 3 87
9 171 14 83 4 154 11 158 14 3 4 -68 7 -158 7 -90 0 -170 4 -177 9 -12 7 -12
16 0 57 l14 49 69 17 c79 19 260 24 270 7 4 -5 9 -74 13 -151 4 -112 8 -138
17 -125 9 13 14 14 25 4 9 -9 14 -9 17 0 11 31 109 147 145 174 l42 29 28 -27
c16 -15 40 -51 55 -80 14 -30 29 -56 34 -59 14 -8 11 20 -5 50 -7 15 -19 60
-27 101 -7 41 -17 75 -22 75 -5 0 -22 -9 -38 -21 l-30 -21 -64 66 c-36 36 -67
77 -71 91 -6 26 -24 35 -24 12z m-60 -71 c0 -19 -4 -38 -10 -41 -6 -4 -10 10
-10 34 0 23 5 41 10 41 6 0 10 -15 10 -34z m84 19 c6 -17 4 -18 -18 -9 -20 8
-21 24 -2 24 8 0 16 -7 20 -15z m6 -48 c30 -15 69 -39 85 -53 27 -22 28 -26
13 -35 -10 -5 -44 -33 -75 -60 -32 -28 -70 -60 -85 -71 l-28 -19 0 71 c0 78
20 216 29 203 3 -4 31 -21 61 -36z m-405 -7 c-3 -5 -13 -10 -21 -10 -8 0 -14
5 -14 10 0 6 9 10 21 10 11 0 17 -4 14 -10z m-88 -62 c-3 -8 -6 -5 -6 6 -1 11
2 17 5 13 3 -3 4 -12 1 -19z m683 0 c0 -7 3 -24 7 -38 l6 -25 -22 27 c-12 15
-19 32 -16 38 9 14 25 13 25 -2z m-248 -190 c-7 -7 -12 -8 -12 -2 0 14 12 26
19 19 2 -3 -1 -11 -7 -17z"/>
<path d="M920 791 c0 -6 5 -13 10 -16 6 -4 8 -15 5 -26 -4 -11 -2 -19 4 -19 6
0 11 16 11 35 0 24 -5 35 -15 35 -8 0 -15 -4 -15 -9z"/>
<path d="M624 443 c-3 -10 -10 -26 -15 -35 -12 -24 -11 -28 6 -28 8 0 15 7 15
16 0 9 6 14 13 11 6 -2 11 -16 10 -31 -1 -14 3 -26 9 -26 15 0 96 -62 102 -77
5 -13 -61 -62 -158 -118 l-49 -29 6 130 c3 71 7 138 9 149 2 15 -3 21 -26 23
l-29 4 8 -57 7 -57 -138 6 c-79 4 -152 13 -171 21 -32 14 -33 13 -48 -16 -20
-37 -12 -51 23 -43 15 3 95 8 178 11 l151 5 6 -23 c4 -13 7 -61 7 -105 0 -114
9 -118 95 -46 102 85 145 113 163 107 31 -10 69 -73 76 -125 4 -27 12 -52 18
-56 7 -5 9 4 5 27 -4 19 -9 80 -13 137 -4 64 -11 102 -18 102 -6 -1 -24 -11
-40 -25 l-30 -24 -57 61 c-31 33 -65 75 -75 94 -21 38 -32 43 -40 17z m-77
-55 c-3 -8 -6 -5 -6 6 -1 11 2 17 5 13 3 -3 4 -12 1 -19z m-298 -74 c2 -2 -10
-4 -27 -4 -18 0 -32 5 -32 10 0 9 47 4 59 -6z m611 -71 l0 -36 -25 23 c-19 18
-22 26 -14 37 22 25 39 15 39 -24z m-260 -127 c0 -3 -4 -8 -10 -11 -5 -3 -10
-1 -10 4 0 6 5 11 10 11 6 0 10 -2 10 -4z"/>
<path d="M104 269 c-3 -5 0 -26 5 -46 6 -21 11 -70 11 -110 0 -39 5 -75 10
-78 10 -6 14 17 10 69 -1 16 4 33 12 37 7 5 75 9 150 9 88 0 139 4 144 11 4 8
-38 10 -145 7 -167 -3 -161 -6 -141 61 5 19 8 36 6 39 -9 8 -57 9 -62 1z m36
-31 c0 -18 -2 -20 -9 -8 -6 8 -7 18 -5 22 9 14 14 9 14 -14z"/>
<path d="M470 170 c0 -5 5 -10 10 -10 6 0 10 5 10 10 0 6 -4 10 -10 10 -5 0
-10 -4 -10 -10z"/>
<path d="M930 96 c0 -8 5 -18 10 -21 6 -3 10 3 10 14 0 12 -4 21 -10 21 -5 0
-10 -6 -10 -14z"/>
</g>
</svg>
