<?xml version="1.0" standalone="no"?>
<!DOCTYPE svg PUBLIC "-//W3C//DTD SVG 20010904//EN"
 "http://www.w3.org/TR/2001/REC-SVG-20010904/DTD/svg10.dtd">
<svg version="1.0" xmlns="http://www.w3.org/2000/svg"
 width="62.000000pt" height="72.000000pt" viewBox="0 0 62.000000 72.000000"
 preserveAspectRatio="xMidYMid meet">
<metadata>
Created by potrace 1.16, written by Peter Selinger 2001-2019
</metadata>
<g transform="translate(0.000000,72.000000) scale(0.100000,-0.100000)"
fill="#000000" stroke="none">
<path d="M0 713 c0 -5 91 -7 202 -5 386 4 422 8 111 10 -172 1 -313 -1 -313
-5z"/>
<path d="M470 645 c-8 -20 -22 -43 -32 -52 -17 -15 -19 -14 -33 20 -8 20 -15
41 -15 47 0 18 -17 11 -34 -15 -22 -34 -20 -41 14 -62 17 -9 30 -23 30 -30 0
-18 -10 -16 -26 5 -13 16 -15 15 -34 -8 -27 -34 -25 -47 10 -77 32 -27 40 -53
15 -53 -9 0 -20 -12 -25 -26 -14 -35 -13 -44 6 -44 9 0 31 -7 50 -16 l34 -16
45 40 c24 23 55 44 69 48 31 7 34 34 6 52 -17 11 -21 10 -27 -5 -8 -25 -84
-103 -100 -103 -6 0 -19 10 -28 23 -15 21 -14 24 32 66 26 24 67 52 91 62 38
16 42 22 42 53 0 45 -15 54 -34 19 -22 -44 -118 -126 -128 -111 -24 38 10 86
90 128 47 25 49 30 26 65 -22 33 -28 32 -44 -10z m-113 -137 c-3 -8 -6 -5 -6
6 -1 11 2 17 5 13 3 -3 4 -12 1 -19z"/>
<path d="M217 643 c-4 -3 -7 -14 -7 -23 0 -20 -43 -63 -53 -53 -4 3 -7 19 -7
35 0 32 -10 36 -33 10 -21 -23 -22 -48 -2 -56 19 -7 20 -26 1 -26 -13 0 -46
-41 -46 -57 0 -5 14 -14 31 -20 21 -8 30 -17 26 -27 -12 -32 9 -23 59 24 29
28 64 54 78 60 32 12 33 21 4 39 -20 12 -24 11 -38 -10 -8 -13 -29 -39 -45
-57 l-31 -34 -14 27 c-12 22 -12 28 0 35 7 4 19 6 26 3 7 -3 14 5 16 19 2 17
18 30 55 48 29 14 52 28 53 32 0 3 -14 14 -32 22 -36 19 -33 18 -41 9z"/>
<path d="M208 418 c-32 -35 -60 -58 -67 -54 -6 4 -18 24 -27 44 -15 34 -17 35
-24 16 -5 -12 -13 -25 -19 -29 -20 -12 -11 -33 19 -44 17 -5 30 -15 30 -22 0
-6 -7 -9 -15 -5 -10 3 -20 -5 -30 -24 -8 -16 -15 -31 -15 -33 0 -2 18 -12 40
-22 22 -10 40 -24 40 -31 0 -7 -22 -42 -50 -78 -27 -36 -50 -68 -50 -71 0 -16
27 0 60 38 21 23 51 49 66 57 56 28 57 31 22 61 l-33 29 30 25 c17 14 45 31
63 37 31 12 40 31 24 55 -6 9 -26 -4 -67 -42 -58 -54 -75 -61 -83 -37 -5 17
116 132 139 132 25 0 29 11 15 37 -11 22 -13 21 -68 -39z"/>
<path d="M497 338 c-4 -13 -22 -38 -41 -57 l-34 -33 -29 40 c-31 46 -43 52
-43 23 0 -11 -5 -23 -11 -26 -16 -11 -6 -38 15 -41 46 -7 66 -15 66 -28 0 -18
-46 -75 -98 -122 -40 -36 -54 -64 -31 -64 6 0 31 20 56 44 25 25 69 56 99 70
59 28 69 51 29 66 -14 5 -25 16 -25 23 0 14 81 77 99 77 18 0 13 27 -6 34 -10
3 -23 8 -29 11 -7 3 -14 -5 -17 -17z m-42 -147 c3 -6 -4 -15 -15 -21 -20 -11
-21 -10 -10 9 12 23 16 25 25 12z"/>
</g>
</svg>
