<?xml version="1.0" standalone="no"?>
<!DOCTYPE svg PUBLIC "-//W3C//DTD SVG 20010904//EN"
 "http://www.w3.org/TR/2001/REC-SVG-20010904/DTD/svg10.dtd">
<svg version="1.0" xmlns="http://www.w3.org/2000/svg"
 width="116.000000pt" height="134.000000pt" viewBox="0 0 116.000000 134.000000"
 preserveAspectRatio="xMidYMid meet">
<metadata>
Created by potrace 1.16, written by Peter Selinger 2001-2019
</metadata>
<g transform="translate(0.000000,134.000000) scale(0.100000,-0.100000)"
fill="#000000" stroke="none">
<path d="M744 1260 c-5 -24 -12 -30 -33 -30 -44 0 -52 -11 -40 -51 6 -18 14
-123 16 -231 5 -180 10 -217 28 -188 11 18 80 30 200 36 180 8 161 -9 169 151
4 78 15 171 25 213 11 41 18 76 18 77 -1 0 -67 6 -145 12 -79 6 -160 18 -179
26 -48 20 -53 19 -59 -15z m61 -10 c16 -7 17 -9 3 -9 -9 -1 -23 -4 -32 -7 -11
-4 -16 -1 -16 10 0 17 14 19 45 6z m234 -29 c8 -5 18 -33 22 -63 8 -57 0 -326
-10 -333 -7 -4 -244 -9 -304 -7 l-39 2 4 173 c3 94 8 179 12 189 8 18 46 35
91 41 61 8 210 6 224 -2z m60 -18 c-1 -10 -5 -29 -9 -43 -7 -21 -8 -19 -9 18
-1 23 4 42 9 42 6 0 10 -8 9 -17z m-397 -25 c-7 -7 -12 -8 -12 -2 0 14 12 26
19 19 2 -3 -1 -11 -7 -17z m33 -388 c-28 -12 -37 -12 -30 0 3 6 16 10 28 9 21
0 21 -1 2 -9z"/>
<path d="M818 1119 c-2 -26 -8 -35 -25 -37 -13 -2 -23 -8 -23 -13 0 -6 10 -9
22 -7 11 2 23 -3 25 -9 3 -8 -5 -13 -21 -13 -13 0 -28 -4 -31 -10 -4 -6 7 -10
25 -10 42 0 34 -23 -11 -31 -35 -7 -32 -10 11 -12 38 -3 32 -31 -7 -35 -52 -5
-39 -24 15 -22 101 4 112 2 112 -22 0 -12 3 -18 7 -14 4 4 8 13 8 19 0 7 5 13
10 15 6 1 10 -2 10 -7 0 -5 3 -13 8 -17 4 -4 7 0 7 8 0 9 8 19 18 23 16 6 16
7 -2 20 -17 13 -18 23 -12 100 5 57 4 85 -3 85 -6 0 -12 -10 -13 -22 -1 -13
-2 -30 -4 -38 -1 -8 -2 -27 -3 -42 -1 -16 -5 -28 -10 -28 -6 0 -8 29 -6 65 2
36 -1 65 -6 65 -5 0 -10 -10 -11 -22 -1 -13 -2 -30 -4 -38 -1 -8 -2 -27 -3
-42 -1 -16 -6 -28 -12 -28 -7 0 -8 25 -4 76 4 51 2 74 -5 69 -5 -3 -10 -17
-10 -30 0 -13 -4 -26 -8 -29 -5 -3 -7 -23 -6 -45 1 -25 -2 -41 -10 -41 -7 0
-10 21 -8 66 4 69 -14 115 -20 53z m42 -160 c0 -10 -7 -19 -15 -19 -16 0 -19
9 -9 34 8 20 24 11 24 -15z m82 -4 c-12 -22 -27 -2 -18 22 5 12 10 13 17 6 7
-7 8 -17 1 -28z m-34 8 c-5 -25 -28 -28 -28 -4 0 12 6 21 16 21 9 0 14 -7 12
-17z"/>
<path d="M37 1199 c-3 -11 1 -50 9 -87 15 -71 17 -232 5 -320 -4 -29 -5 -54
-3 -57 3 -3 20 5 39 16 30 19 54 22 186 26 84 2 157 6 163 8 7 2 13 46 17 112
5 90 12 124 41 206 39 105 41 117 26 117 -5 0 -22 -42 -37 -92 l-28 -93 -7 45
c-3 25 -7 62 -7 83 -1 33 2 37 24 37 14 0 25 5 25 10 0 7 -76 10 -224 9 -211
-1 -225 -3 -229 -20z m383 -44 c0 -32 -2 -35 -30 -35 -22 0 -30 5 -31 18 0 14
-3 13 -16 -5 -19 -28 -33 -29 -33 -3 0 11 -4 20 -9 20 -5 0 -13 -9 -16 -20 -9
-29 -35 -25 -35 5 0 31 -17 33 -22 3 -5 -34 -38 -37 -38 -4 0 14 -4 26 -10 26
-5 0 -10 -11 -10 -25 0 -16 -6 -25 -15 -25 -8 0 -15 -4 -15 -10 0 -5 7 -10 15
-10 17 0 18 -2 9 -24 -3 -9 -17 -16 -29 -16 -13 0 -27 -4 -30 -10 -4 -6 7 -10
24 -10 26 0 31 -4 31 -25 0 -20 -5 -25 -25 -25 -14 0 -25 -4 -25 -10 0 -5 12
-10 26 -10 22 0 25 -4 22 -27 -2 -23 -7 -27 -25 -25 -13 2 -23 -2 -23 -7 0 -6
11 -11 24 -11 21 0 24 -5 28 -45 3 -48 2 -49 -52 -38 l-33 6 6 117 c5 100 27
225 43 252 3 5 70 8 150 8 l144 0 0 -35z m-321 5 c0 -8 -6 -31 -13 -50 l-13
-34 -6 33 c-11 54 -9 67 13 67 12 0 20 -7 19 -16z m333 -117 c3 -32 3 -99 0
-150 l-5 -93 -124 0 -124 0 3 42 c2 31 8 44 21 46 10 2 17 -3 17 -12 0 -9 5
-16 10 -16 6 0 10 6 10 14 0 16 31 16 43 1 4 -6 10 -6 15 2 4 7 19 12 32 11
49 -3 80 2 80 13 0 7 -10 9 -25 7 -29 -6 -38 15 -31 67 3 17 5 51 5 78 1 47 1
47 35 47 l34 0 4 -57z m-212 27 c0 -11 -7 -20 -15 -20 -8 0 -15 9 -15 20 0 11
7 20 15 20 8 0 15 -9 15 -20z m60 1 c0 -11 -6 -22 -12 -25 -10 -5 -10 -7 0
-12 19 -9 15 -54 -5 -55 -17 -1 -17 -2 0 -6 25 -6 20 -66 -6 -71 -16 -3 -17 6
-16 92 1 87 3 96 20 96 12 0 19 -7 19 -19z m57 -68 c1 -83 -7 -110 -29 -97
-14 9 -10 134 5 135 10 0 10 2 0 6 -20 8 -16 43 5 43 15 0 18 -11 19 -87z
m-117 2 c0 -25 -23 -35 -35 -15 -10 16 2 40 20 40 9 0 15 -9 15 -25z m-2 -72
c-2 -17 -9 -28 -18 -28 -9 0 -16 11 -18 28 -3 22 1 27 18 27 17 0 21 -5 18
-27z m-113 -154 c-29 -11 -35 -10 -35 5 0 9 8 12 27 8 25 -5 25 -6 8 -13z"/>
<path d="M375 1050 c-3 -5 1 -10 10 -10 9 0 13 5 10 10 -3 6 -8 10 -10 10 -2
0 -7 -4 -10 -10z"/>
<path d="M536 902 c-3 -4 -4 -22 -4 -40 1 -36 23 -44 33 -12 11 35 -13 78 -29
52z"/>
<path d="M1143 870 c1 -22 5 -40 9 -40 4 0 8 18 8 40 0 22 -4 40 -9 40 -6 0
-9 -18 -8 -40z"/>
<path d="M400 540 c-9 -21 -19 -30 -36 -30 -12 0 -25 -4 -28 -8 -3 -5 1 -51 9
-103 10 -64 13 -133 9 -216 l-6 -121 68 14 c38 8 122 16 186 17 l118 2 0 125
c0 145 14 254 36 288 9 13 13 26 10 30 -4 3 -66 7 -139 9 -72 2 -148 8 -167
13 -48 13 -46 14 -60 -20z m50 -10 c-19 -13 -30 -13 -30 0 0 6 10 10 23 10 18
0 19 -2 7 -10z m239 -9 c10 -6 13 -52 12 -201 -1 -107 -4 -196 -7 -199 -10
-11 -269 -4 -297 8 l-29 11 7 128 c8 160 26 229 60 238 79 20 231 29 254 15z
m44 -16 c-7 -21 -13 -19 -13 6 0 11 4 18 10 14 5 -3 7 -12 3 -20z m-353 -46
c-13 -46 -20 -48 -20 -6 0 25 4 37 14 37 12 0 13 -7 6 -31z m20 -359 c12 -8
11 -10 -7 -10 -13 0 -23 5 -23 10 0 13 11 13 30 0z"/>
<path d="M498 453 c-3 -26 -6 -28 -41 -26 -26 2 -37 -1 -35 -9 3 -7 20 -12 39
-12 27 -1 34 -5 34 -21 0 -15 -8 -21 -32 -23 -18 -2 -33 -8 -33 -14 0 -6 12
-8 29 -5 24 5 30 2 34 -15 8 -30 0 -39 -29 -32 -18 5 -24 2 -24 -10 0 -9 6
-16 13 -15 26 3 37 -1 37 -15 0 -8 -11 -16 -25 -18 -33 -4 -32 -24 1 -21 19 1
24 -3 24 -22 0 -34 18 -41 22 -8 3 24 8 28 33 28 27 0 30 -3 33 -38 4 -46 22
-39 22 9 0 24 5 34 15 34 8 0 15 4 15 10 0 5 -7 7 -15 4 -10 -4 -15 0 -15 15
0 12 6 21 15 21 8 0 15 5 15 10 0 6 -7 10 -15 10 -10 0 -15 10 -15 29 0 17 5
28 13 27 6 0 12 3 12 9 0 5 -6 8 -13 7 -9 -2 -12 5 -10 20 2 13 9 22 16 20 6
-1 12 2 12 8 0 6 -7 10 -15 10 -9 0 -15 9 -15 25 0 14 -4 25 -10 25 -5 0 -10
-11 -10 -24 0 -19 -6 -26 -27 -29 l-28 -4 28 -2 c22 -1 27 -6 27 -27 0 -23 -3
-25 -32 -22 -33 3 -33 4 -33 55 0 56 -12 82 -17 36z m77 -134 c0 -20 -6 -25
-32 -27 -29 -3 -33 0 -33 22 0 18 6 26 23 29 34 6 42 2 42 -24z m5 -63 c0 -29
-63 -31 -68 -3 -3 13 4 17 32 17 24 0 36 -5 36 -14z"/>
<path d="M821 136 c-16 -19 -7 -46 14 -46 22 0 30 29 13 46 -13 13 -16 13 -27
0z"/>
</g>
</svg>
