<?xml version="1.0" standalone="no"?>
<!DOCTYPE svg PUBLIC "-//W3C//DTD SVG 20010904//EN"
 "http://www.w3.org/TR/2001/REC-SVG-20010904/DTD/svg10.dtd">
<svg version="1.0" xmlns="http://www.w3.org/2000/svg"
 width="128.000000pt" height="136.000000pt" viewBox="0 0 128.000000 136.000000"
 preserveAspectRatio="xMidYMid meet">
<metadata>
Created by potrace 1.16, written by Peter Selinger 2001-2019
</metadata>
<g transform="translate(0.000000,136.000000) scale(0.100000,-0.100000)"
fill="#000000" stroke="none">
<path d="M0 1345 c0 -14 51 -15 448 -13 611 3 832 8 832 19 0 5 -256 9 -640 9
-568 0 -640 -2 -640 -15z"/>
<path d="M1104 1273 c13 -76 19 -185 10 -191 -6 -4 -8 -67 -4 -155 3 -82 3
-150 0 -152 -3 -1 -20 0 -39 3 l-34 5 6 243 c4 198 3 244 -8 244 -10 0 -12
-49 -11 -245 l1 -245 -44 0 -44 0 7 203 c4 111 9 223 13 250 5 46 5 47 -22 47
-25 0 -27 -2 -21 -32 3 -18 9 -71 13 -118 l6 -84 -26 17 c-34 22 -35 22 -39
-10 -3 -25 -7 -21 -41 42 -21 39 -44 96 -50 128 -6 31 -14 57 -18 57 -3 0 -14
-9 -25 -21 -14 -16 -16 -24 -6 -37 6 -9 29 -48 50 -87 21 -38 47 -84 57 -101
18 -30 18 -34 3 -70 -9 -22 -29 -72 -43 -112 -29 -77 -33 -80 -87 -58 -12 6
-18 0 -23 -23 -9 -41 1 -54 28 -39 15 8 89 14 224 16 l202 4 -6 63 c-4 41 0
97 12 160 14 78 15 99 5 105 -12 7 -10 110 2 204 2 14 -4 20 -26 23 -28 4 -29
3 -22 -34z m31 8 c3 -5 1 -12 -5 -16 -5 -3 -10 1 -10 9 0 18 6 21 15 7z m0
-230 c3 -5 1 -12 -5 -16 -5 -3 -10 1 -10 9 0 18 6 21 15 7z m-213 -138 c-2
-71 -5 -129 -7 -131 -5 -5 -116 -4 -121 1 -9 9 70 197 96 227 14 17 27 30 30
30 3 0 3 -57 2 -127z m-187 -153 c-3 -5 -10 -10 -16 -10 -5 0 -9 5 -9 10 0 6
7 10 16 10 8 0 12 -4 9 -10z"/>
<path d="M207 1265 c-9 -8 -21 -15 -27 -15 -8 0 -11 -11 -7 -32 7 -48 -11
-171 -26 -183 -7 -5 -14 -32 -15 -60 -1 -27 -8 -75 -15 -105 -12 -51 -15 -55
-40 -52 -25 3 -27 0 -27 -39 0 -35 2 -40 18 -34 23 10 270 24 304 18 22 -4 28
-1 32 18 2 13 10 51 16 84 19 96 70 276 91 319 26 55 25 70 -5 62 -14 -3 -28
-2 -31 4 -16 25 -22 2 -29 -102 -4 -63 -19 -166 -35 -233 l-28 -120 -41 -3
c-23 -2 -42 -2 -42 0 0 2 9 37 21 78 26 95 89 348 89 361 0 5 -4 9 -8 9 -5 0
-26 -69 -47 -152 -21 -84 -47 -184 -56 -222 -17 -66 -40 -102 -47 -71 -2 7 20
107 48 220 28 114 49 212 47 219 -7 18 -16 -11 -72 -231 -31 -124 -57 -209
-65 -211 -9 -3 -11 2 -6 19 3 13 22 101 41 194 19 94 42 189 51 213 19 48 17
56 -19 47 -23 -6 -25 -11 -26 -73 0 -37 -14 -130 -30 -207 -44 -202 -43 -201
-72 -197 -13 2 -25 5 -27 7 -8 7 34 145 55 184 19 33 22 45 13 51 -16 10 -5
103 21 184 21 63 20 76 -4 51z m281 -92 c-11 -27 -21 -49 -22 -50 -1 -1 -3 20
-4 47 -2 47 0 50 22 50 l25 0 -21 -47z m-322 -180 c-10 -10 -19 5 -10 18 6 11
8 11 12 0 2 -7 1 -15 -2 -18z"/>
<path d="M979 1279 c-5 -29 -5 -460 1 -469 4 -7 11 81 14 196 4 115 9 219 11
230 3 12 -2 27 -10 34 -8 7 -15 11 -16 9z"/>
<path d="M1064 1228 c3 -29 6 -135 6 -235 0 -115 4 -183 10 -183 6 0 10 85 10
235 0 211 -2 235 -16 235 -14 0 -16 -8 -10 -52z"/>
<path d="M1227 853 c-9 -14 -2 -73 8 -75 14 -2 29 46 22 66 -7 17 -23 21 -30
9z"/>
<path d="M556 834 c-4 -10 -2 -22 3 -27 5 -5 7 -15 5 -22 -8 -19 12 -27 26
-10 16 19 9 69 -11 73 -9 2 -19 -5 -23 -14z"/>
<path d="M600 461 c0 -4 5 -12 10 -17 7 -7 12 -90 13 -217 2 -234 11 -214 -89
-197 -118 21 -107 10 -99 98 4 42 9 113 10 157 1 44 6 101 10 128 l7 47 -32 0
-33 0 7 -42 c18 -127 19 -168 3 -168 -24 0 -29 -16 -18 -57 5 -21 12 -60 16
-86 l6 -49 -35 3 c-43 4 -50 -2 -42 -36 l6 -25 180 0 180 0 0 48 c1 26 7 83
15 127 10 57 11 81 3 86 -8 5 -7 28 2 80 19 119 19 123 -13 126 l-28 2 7 -99
c6 -90 5 -100 -11 -106 -15 -6 -17 -16 -11 -83 4 -42 9 -91 12 -109 7 -44 -1
-63 -22 -55 -15 5 -16 27 -12 224 l4 217 -23 5 c-13 2 -23 1 -23 -2z m-160
-47 c0 -8 -4 -12 -10 -9 -5 3 -10 13 -10 21 0 8 5 12 10 9 6 -3 10 -13 10 -21z
m267 -6 c-3 -7 -5 -2 -5 12 0 14 2 19 5 13 2 -7 2 -19 0 -25z m-8 -185 c0 -10
-4 -27 -9 -38 -7 -16 -9 -13 -9 18 -1 20 4 37 9 37 6 0 10 -8 9 -17z m-282
-30 c-3 -10 -5 -4 -5 12 0 17 2 24 5 18 2 -7 2 -21 0 -30z m43 -174 c18 -5 7
-8 -37 -8 -49 -1 -63 2 -63 13 0 15 41 13 100 -5z"/>
<path d="M494 423 c3 -21 8 -110 11 -198 6 -158 15 -222 15 -109 1 32 2 123 3
202 2 133 1 142 -16 142 -16 0 -18 -6 -13 -37z"/>
<path d="M554 429 c3 -17 6 -110 6 -206 0 -96 4 -172 9 -169 4 3 9 70 10 148
1 79 4 169 8 201 5 54 5 57 -17 57 -20 0 -22 -4 -16 -31z"/>
<path d="M814 115 c-4 -9 -2 -21 4 -27 16 -16 47 -5 47 17 0 26 -42 34 -51 10z"/>
</g>
</svg>
