<?xml version="1.0" standalone="no"?>
<!DOCTYPE svg PUBLIC "-//W3C//DTD SVG 20010904//EN"
 "http://www.w3.org/TR/2001/REC-SVG-20010904/DTD/svg10.dtd">
<svg version="1.0" xmlns="http://www.w3.org/2000/svg"
 width="113.000000pt" height="248.000000pt" viewBox="0 0 113.000000 248.000000"
 preserveAspectRatio="xMidYMid meet">
<metadata>
Created by potrace 1.16, written by Peter Selinger 2001-2019
</metadata>
<g transform="translate(0.000000,248.000000) scale(0.100000,-0.100000)"
fill="#000000" stroke="none">
<path d="M277 2473 c155 -2 411 -2 570 0 158 1 32 2 -282 2 -314 0 -443 -1
-288 -2z"/>
<path d="M430 2411 c-25 -22 -43 -41 -40 -43 3 -2 32 -21 64 -42 l59 -38 -57
-29 c-60 -31 -284 -109 -312 -109 -14 0 -16 -7 -10 -47 5 -39 3 -50 -15 -69
l-20 -22 86 -46 c48 -26 125 -72 172 -103 l85 -56 -35 -21 c-20 -12 -50 -29
-66 -38 -17 -9 -31 -21 -31 -26 0 -5 18 -23 40 -41 l41 -32 32 33 c18 18 45
50 60 70 16 21 46 54 66 75 57 57 228 203 239 203 8 0 63 -156 80 -230 5 -19
12 -34 18 -32 5 1 9 5 9 10 -1 4 -5 82 -9 173 l-8 167 -72 7 -71 6 -55 66
c-30 36 -86 108 -124 160 -37 51 -71 93 -75 93 -3 0 -26 -18 -51 -39z m113
-76 c31 -42 57 -78 57 -80 0 -3 -24 12 -52 33 -29 21 -70 49 -92 62 l-38 23
23 18 c13 10 29 19 34 19 6 0 36 -34 68 -75z m18 -82 c38 -23 39 -53 2 -53
-51 0 -73 11 -73 35 0 21 11 32 33 34 5 1 22 -7 38 -16z m-95 -45 c-3 -13 -11
-99 -16 -192 -6 -94 -12 -172 -15 -174 -12 -12 -245 200 -245 223 0 17 240
164 269 165 9 0 11 -7 7 -22z m192 -31 c91 -83 111 -103 114 -112 2 -6 -28
-37 -67 -69 -38 -33 -80 -68 -92 -78 l-21 -20 4 74 c9 161 16 238 20 238 3 0
22 -15 42 -33z m-76 -2 c2 -3 3 -18 0 -35 -4 -26 -8 -30 -37 -30 -18 0 -40 3
-49 6 -16 6 -22 45 -9 57 7 8 87 9 95 2z m-354 -48 c-47 -32 -65 -39 -71 -30
-10 17 0 33 21 34 9 0 35 9 57 19 63 29 62 23 -7 -23z m629 -117 c1 -47 -1
-78 -4 -70 -3 8 -18 45 -34 82 -16 36 -29 69 -29 73 0 3 15 5 33 3 l32 -3 2
-85z m-277 35 l0 -45 -56 0 -56 0 6 31 c3 17 6 38 6 45 0 10 14 14 50 14 l50
0 0 -45z m-378 -32 c49 -47 35 -46 -61 4 -7 4 11 23 22 23 6 0 24 -12 39 -27z
m371 -51 c3 -4 3 -19 0 -33 -4 -24 -9 -27 -54 -28 l-49 -1 0 35 0 35 49 0 c28
0 52 -3 54 -8z m-23 -91 c0 -6 -30 -24 -82 -49 -5 -2 -8 10 -8 26 0 28 2 30
45 30 25 1 45 -2 45 -7z m-96 -118 c-26 -32 -50 -62 -54 -66 -4 -4 -18 2 -32
14 l-26 23 72 42 c39 23 74 42 79 43 4 1 -14 -25 -39 -56z"/>
<path d="M1006 1882 c-9 -15 6 -83 17 -79 19 6 30 56 17 72 -14 17 -26 19 -34
7z"/>
<path d="M326 1599 c-3 -17 -6 -37 -6 -44 0 -7 41 -31 90 -53 50 -23 90 -46
90 -51 0 -6 -35 -26 -77 -46 -43 -20 -94 -44 -113 -55 -19 -10 -77 -40 -127
-66 -83 -42 -117 -74 -80 -74 7 0 66 -28 131 -62 64 -35 135 -72 157 -82 21
-11 39 -22 39 -26 0 -7 -144 -80 -159 -80 -6 0 -13 -10 -15 -22 -19 -95 -11
-128 22 -91 9 10 51 43 92 73 41 29 77 56 80 60 5 7 27 23 136 99 27 19 81 58
121 88 39 29 76 53 82 53 16 0 69 -112 106 -224 18 -55 38 -102 45 -104 9 -3
11 3 5 24 -16 64 -17 242 0 344 8 56 13 105 10 108 -3 3 -15 -4 -28 -15 -25
-23 -126 -63 -160 -63 -20 0 -196 142 -317 255 -58 55 -96 85 -108 85 -5 0
-12 -14 -16 -31z m84 -44 c58 -51 52 -57 -20 -19 -47 24 -59 41 -43 57 9 10 8
11 63 -38z m142 -132 c11 -10 18 -30 18 -55 l0 -38 -60 0 c-60 0 -60 0 -60 30
0 23 8 35 37 55 45 30 42 29 65 8z m133 -110 c47 -37 85 -69 85 -72 0 -7 -100
-71 -147 -95 l-33 -17 0 126 c0 69 2 125 5 125 3 0 43 -30 90 -67z m-255 -52
c0 -54 3 -120 7 -147 l6 -49 -92 85 -93 84 35 31 c49 42 121 95 130 95 4 0 7
-44 7 -99z m-87 71 c-11 -9 -42 -33 -67 -52 -25 -19 -46 -38 -46 -42 0 -3 33
-36 73 -73 l72 -68 -122 64 c-66 35 -119 67 -117 71 3 4 40 25 82 47 42 21 91
46 107 55 39 21 46 20 18 -2z m227 -52 l0 -40 -60 0 -60 0 0 35 0 34 58 4 c31
2 58 4 60 5 1 1 2 -16 2 -38z m343 -102 c-3 -73 -7 -134 -8 -135 -1 -2 -14 30
-29 70 -15 39 -39 89 -53 110 -13 22 -23 40 -21 42 4 5 101 44 110 44 3 1 4
-59 1 -131z m-343 2 l0 -40 -50 0 c-27 0 -53 0 -57 0 -10 -1 -16 47 -9 66 4
10 22 14 61 14 l55 0 0 -40z m-10 -68 c0 -4 -22 -19 -50 -34 l-50 -27 0 35 0
34 50 0 c28 0 50 -3 50 -8z m-61 -75 c-2 -2 -35 -25 -74 -52 -38 -26 -87 -61
-108 -78 -41 -32 -53 -31 -43 6 4 16 22 31 58 48 29 13 77 39 107 56 30 18 57
31 59 28 3 -3 3 -7 1 -8z"/>
<path d="M1025 1030 c-4 -6 -2 -17 4 -24 6 -7 9 -21 5 -30 -4 -11 -1 -16 10
-16 17 0 32 41 22 65 -6 17 -32 20 -41 5z"/>
<path d="M285 782 c-3 -3 -5 -18 -5 -32 0 -15 -7 -44 -15 -63 -19 -46 -20 -66
-3 -49 7 7 31 12 55 12 38 0 43 -3 43 -23 0 -19 -24 -34 -156 -100 -91 -45
-153 -82 -148 -87 5 -5 34 -22 64 -38 31 -17 98 -57 150 -89 102 -65 120 -92
81 -120 -18 -12 -21 -25 -21 -83 0 -75 12 -95 32 -56 7 13 45 61 83 106 67 79
153 145 270 208 69 37 237 112 251 112 8 0 14 6 14 13 0 6 -28 21 -63 31 -34
10 -66 22 -72 27 -5 4 -53 21 -105 39 -126 42 -262 100 -365 153 -47 24 -87
42 -90 39z m102 -69 l75 -38 -54 -3 c-75 -5 -121 5 -114 24 3 9 6 24 6 35 0
10 3 19 6 19 3 0 40 -17 81 -37z m78 -73 c47 0 63 -19 50 -60 -5 -17 -15 -20
-65 -20 -66 0 -81 11 -53 42 10 12 12 18 6 14 -9 -5 -13 0 -13 14 0 16 4 20
16 16 9 -3 35 -6 59 -6z m215 -56 c52 -18 129 -47 170 -63 l75 -29 -40 -17
c-78 -33 -232 -112 -289 -149 -32 -20 -59 -36 -60 -34 0 2 0 78 2 169 3 194
-14 178 142 123z m-316 -151 c4 -89 3 -143 -3 -143 -6 0 -51 25 -100 55 -50
30 -107 63 -126 72 -19 9 -34 20 -33 24 3 6 251 138 254 135 1 -1 4 -65 8
-143z m146 57 l0 -50 -60 0 -60 0 0 48 0 47 60 3 60 2 0 -50z m0 -119 c0 -48
0 -48 -37 -55 -81 -13 -83 -12 -83 49 l0 55 60 0 60 0 0 -49z m0 -84 c0 -14
-110 -70 -119 -61 -3 3 1 10 9 15 11 8 12 12 3 16 -29 11 -12 32 30 36 23 2
50 4 60 5 9 1 17 -4 17 -11z m-96 -127 c-32 -38 -59 -70 -61 -70 -2 0 -3 17
-3 39 0 36 3 40 58 69 31 17 58 32 60 32 2 0 -23 -31 -54 -70z"/>
<path d="M997 393 c-4 -3 -7 -17 -7 -30 0 -16 6 -23 19 -23 26 0 34 15 21 40
-11 21 -22 25 -33 13z"/>
<path d="M15 10 c-4 -7 183 -10 554 -10 367 0 561 3 561 10 0 14 -1106 14
-1115 0z"/>
</g>
</svg>
