<?xml version="1.0" standalone="no"?>
<!DOCTYPE svg PUBLIC "-//W3C//DTD SVG 20010904//EN"
 "http://www.w3.org/TR/2001/REC-SVG-20010904/DTD/svg10.dtd">
<svg version="1.0" xmlns="http://www.w3.org/2000/svg"
 width="151.000000pt" height="218.000000pt" viewBox="0 0 151.000000 218.000000"
 preserveAspectRatio="xMidYMid meet">
<metadata>
Created by potrace 1.16, written by Peter Selinger 2001-2019
</metadata>
<g transform="translate(0.000000,218.000000) scale(0.100000,-0.100000)"
fill="#000000" stroke="none">
<path d="M1030 2130 c0 -5 -32 -33 -70 -62 -45 -33 -69 -57 -65 -66 3 -7 5
-18 5 -23 0 -5 7 -9 16 -9 13 0 14 -3 4 -15 -16 -20 -10 -27 61 -69 71 -42 83
-38 77 26 -3 23 1 77 8 118 19 106 18 110 -11 110 -14 0 -25 -4 -25 -10z m17
-52 c-3 -8 -6 -5 -6 6 -1 11 2 17 5 13 3 -3 4 -12 1 -19z m-17 -46 l0 -48 -35
4 c-21 3 -35 0 -35 -7 0 -6 15 -11 34 -11 32 0 34 -2 38 -40 2 -22 2 -40 0
-40 -15 0 -61 45 -77 73 l-18 34 39 41 c21 23 42 41 47 41 4 1 7 -21 7 -47z"/>
<path d="M293 2079 c-26 -23 -58 -50 -71 -60 -25 -22 -69 -25 -107 -7 -31 14
-45 1 -45 -44 0 -32 5 -33 51 -14 19 7 50 17 69 21 34 7 35 7 18 -12 -24 -27
-23 -30 13 -38 37 -8 101 -44 112 -62 15 -25 27 -2 27 52 0 41 4 54 18 60 16
6 16 7 -2 20 -16 12 -17 18 -7 46 30 87 0 103 -76 38z m47 -44 c0 -29 -4 -45
-12 -45 -26 0 -59 13 -56 21 5 14 53 68 61 69 4 0 7 -20 7 -45z m0 -102 c0
-37 -1 -37 -57 5 -18 13 -31 27 -29 31 3 4 23 5 45 3 39 -4 41 -6 41 -39z"/>
<path d="M566 2049 c-46 -47 -51 -49 -103 -49 -39 0 -53 -4 -50 -12 2 -7 19
-13 38 -14 67 -1 73 -3 59 -19 -13 -16 -4 -38 13 -32 7 2 24 -2 40 -10 31 -16
37 -1 11 28 -21 24 -12 59 26 103 29 32 39 57 23 55 -5 0 -30 -23 -57 -50z"/>
<path d="M1228 2037 c-42 -48 -51 -53 -79 -49 -24 4 -30 1 -27 -9 3 -8 15 -14
27 -13 16 0 39 -18 74 -58 73 -82 91 -78 37 9 -30 48 -30 49 -13 83 9 19 25
41 35 48 21 15 24 42 5 42 -7 0 -33 -24 -59 -53z"/>
<path d="M749 2016 c-8 -41 -2 -51 26 -49 17 1 40 3 53 4 31 2 28 25 -5 33
-16 3 -38 8 -50 12 -13 3 -23 4 -24 0z"/>
<path d="M1075 1980 c-3 -5 -1 -10 4 -10 6 0 11 5 11 10 0 6 -2 10 -4 10 -3 0
-8 -4 -11 -10z"/>
<path d="M664 1880 c3 -18 6 -39 6 -47 0 -13 3 -13 16 -3 21 19 15 74 -10 78
-16 4 -18 0 -12 -28z"/>
<path d="M1340 1886 c0 -8 5 -18 10 -21 6 -4 8 -15 5 -25 -3 -10 -1 -21 4 -24
13 -8 31 26 31 58 0 21 -5 26 -25 26 -15 0 -25 -6 -25 -14z"/>
<path d="M250 1529 l-65 -60 -64 6 -64 6 7 -32 c8 -42 13 -46 36 -31 11 6 38
15 61 18 41 7 42 7 36 -18 -6 -22 -3 -27 20 -33 15 -3 46 -19 69 -35 23 -15
45 -26 48 -22 3 3 6 22 6 43 0 35 3 39 38 48 20 6 63 11 94 11 51 0 60 -3 97
-37 105 -97 123 -99 71 -6 l-31 54 35 59 c19 33 31 62 27 65 -5 2 -37 -22 -71
-53 l-62 -58 -57 3 c-31 2 -76 6 -100 9 l-43 6 6 36 c3 20 9 47 12 60 12 43
-36 25 -106 -39z m69 -96 c1 -35 -2 -63 -6 -63 -5 0 -25 16 -46 35 -39 36 -39
36 -22 63 10 15 27 37 39 50 l21 24 6 -24 c4 -13 7 -51 8 -85z m279 27 c-10
-16 -10 -24 0 -41 19 -31 9 -33 -18 -4 -23 24 -23 25 -5 45 23 26 39 26 23 0z"/>
<path d="M976 1531 c-10 -11 -40 -29 -67 -40 -27 -12 -49 -27 -49 -33 0 -11
-88 -6 -122 7 -15 6 -18 2 -18 -24 0 -31 1 -32 35 -26 19 3 51 7 70 10 30 5
35 3 35 -15 0 -11 4 -20 9 -20 5 0 36 -20 69 -44 33 -25 63 -42 66 -39 3 4 6
30 6 60 l0 53 66 0 c48 0 65 3 61 13 -2 8 -23 12 -60 11 -62 -1 -68 6 -47 62
12 30 12 29 -16 38 -14 4 -26 0 -38 -13z m12 -58 c-3 -22 -8 -26 -36 -27 -38
-1 -39 1 -10 31 30 32 50 30 46 -4z m-20 -52 c19 -1 22 -6 22 -41 0 -22 -2
-40 -5 -40 -3 0 -21 14 -40 32 -38 34 -46 58 -17 53 9 -2 27 -4 40 -4z"/>
<path d="M1236 1483 c-42 -46 -48 -58 -38 -71 7 -10 26 -41 43 -69 17 -29 35
-53 40 -53 14 0 11 18 -7 46 -19 28 -13 108 12 155 34 67 13 63 -50 -8z m9
-65 c-7 -31 -8 -32 -18 -11 -7 16 -6 27 3 38 18 22 23 12 15 -27z"/>
<path d="M713 1333 c5 -44 24 -55 33 -19 8 33 -1 56 -21 56 -12 0 -15 -9 -12
-37z"/>
<path d="M1324 1318 c3 -13 6 -32 6 -43 0 -17 2 -17 14 -5 27 28 24 70 -5 70
-17 0 -20 -4 -15 -22z"/>
<path d="M953 1080 c-13 -5 -23 -13 -23 -17 0 -4 -20 -21 -45 -36 -27 -17 -45
-36 -45 -47 0 -19 1 -19 -87 -5 -31 6 -33 4 -33 -25 0 -31 13 -40 27 -17 11
17 105 18 99 0 -6 -14 82 -102 102 -103 8 0 12 18 12 55 l0 55 110 0 110 0 0
-100 c0 -55 4 -100 8 -100 5 0 16 58 25 129 9 71 20 136 23 146 6 14 1 16 -27
13 -32 -3 -34 -5 -31 -36 l3 -32 -105 3 c-58 2 -108 6 -111 9 -3 3 1 25 10 49
8 24 17 48 18 53 3 13 -15 16 -40 6z m-15 -177 l-3 -47 -27 40 c-16 22 -28 48
-28 58 0 9 12 34 28 54 l27 36 3 -47 c2 -26 2 -68 0 -94z m269 75 c-3 -7 -5
-2 -5 12 0 14 2 19 5 13 2 -7 2 -19 0 -25z"/>
<path d="M267 1023 l-58 -56 -52 7 c-29 4 -61 7 -72 9 -16 2 -20 -4 -21 -28
-1 -38 5 -49 19 -36 17 13 137 30 143 19 3 -5 1 -15 -6 -23 -9 -11 -7 -16 9
-24 11 -6 26 -11 34 -11 8 0 22 -9 32 -20 10 -11 26 -20 37 -20 15 0 18 8 18
49 l0 48 46 7 c26 3 71 6 101 6 37 0 53 4 51 11 -3 8 -35 11 -97 10 l-94 -2 6
33 c4 18 9 43 13 56 6 19 3 22 -22 22 -21 0 -44 -15 -87 -57z m63 -69 l0 -86
-30 24 c-43 34 -46 58 -13 106 15 23 31 41 36 42 4 0 7 -39 7 -86z"/>
<path d="M650 1062 c0 -5 -20 -15 -45 -22 -25 -7 -48 -17 -51 -21 -7 -12 49
-189 60 -189 4 0 5 19 2 43 -5 35 -1 56 22 108 35 78 36 83 23 87 -6 2 -11 -1
-11 -6z m-20 -49 c-1 -5 -9 -23 -19 -42 -18 -33 -18 -33 -24 -10 -10 37 -8 47
11 52 28 7 32 7 32 0z"/>
<path d="M667 863 c-7 -13 5 -73 14 -73 14 0 32 47 26 64 -7 16 -32 22 -40 9z"/>
<path d="M1286 822 c-2 -4 -1 -14 3 -21 5 -7 6 -22 4 -32 -3 -10 -1 -19 4 -19
18 0 33 24 33 52 0 21 -5 28 -19 28 -11 0 -22 -4 -25 -8z"/>
<path d="M243 440 c-40 -39 -77 -70 -82 -70 -5 0 -30 9 -54 19 -51 22 -57 20
-57 -21 l0 -29 68 6 68 7 55 -63 c88 -104 86 -102 94 -88 5 7 7 43 6 81 l-2
68 130 -1 131 -1 0 -29 c0 -16 4 -29 8 -29 8 0 62 108 62 123 0 4 -18 7 -40 7
-36 0 -40 -2 -40 -25 l0 -25 -124 0 -125 0 6 70 c5 64 4 70 -13 70 -10 0 -52
-32 -91 -70z m76 -100 c3 -55 2 -99 -2 -97 -5 1 -20 30 -33 64 l-25 62 21 41
c12 23 24 39 27 36 3 -3 9 -51 12 -106z m-73 55 c-15 -23 -15 -28 -1 -55 22
-42 19 -46 -10 -12 -30 36 -31 40 -3 69 28 30 34 29 14 -2z m375 -28 c-8 -8
-11 -7 -11 4 0 9 3 19 7 23 4 4 9 2 11 -4 3 -7 -1 -17 -7 -23z"/>
<path d="M955 443 c10 -76 13 -199 6 -234 -5 -26 -9 -21 -40 51 -37 87 -38 75
14 146 14 20 5 23 -48 17 -51 -6 -52 -8 -32 -56 7 -17 4 -18 -41 -12 -27 4
-55 12 -62 18 -16 13 -27 1 -36 -36 -6 -27 -6 -27 36 -21 24 3 59 10 80 14
l36 7 38 -94 c38 -97 72 -152 75 -123 2 16 4 48 7 145 l2 60 87 0 c58 0 88 4
90 12 3 9 -19 11 -86 9 -50 -1 -91 1 -91 5 0 5 7 34 15 66 21 80 20 83 -21 83
l-36 0 7 -57z m32 0 c-3 -10 -5 -4 -5 12 0 17 2 24 5 18 2 -7 2 -21 0 -30z
m-93 -58 c-4 -8 -10 -12 -15 -9 -14 8 -10 24 6 24 9 0 12 -6 9 -15z"/>
<path d="M1243 382 l-52 -47 20 -40 c11 -22 33 -78 50 -125 16 -47 32 -91 35
-99 3 -10 8 -11 15 -4 6 6 -2 41 -24 104 -36 102 -36 98 12 213 20 49 -2 48
-56 -2z m12 -44 c-10 -47 -17 -54 -27 -28 -6 17 -4 28 8 41 24 26 27 24 19
-13z"/>
<path d="M1337 234 c-16 -16 -7 -44 14 -44 15 0 20 5 17 22 -3 22 -19 33 -31
22z"/>
<path d="M656 222 c-7 -12 4 -82 14 -82 12 0 32 47 28 66 -3 20 -32 31 -42 16z"/>
<path d="M358 3 c199 -2 525 -2 725 0 199 1 36 2 -363 2 -399 0 -562 -1 -362
-2z"/>
</g>
</svg>
