<?xml version="1.0" standalone="no"?>
<!DOCTYPE svg PUBLIC "-//W3C//DTD SVG 20010904//EN"
 "http://www.w3.org/TR/2001/REC-SVG-20010904/DTD/svg10.dtd">
<svg version="1.0" xmlns="http://www.w3.org/2000/svg"
 width="130.000000pt" height="148.000000pt" viewBox="0 0 130.000000 148.000000"
 preserveAspectRatio="xMidYMid meet">
<metadata>
Created by potrace 1.16, written by Peter Selinger 2001-2019
</metadata>
<g transform="translate(0.000000,148.000000) scale(0.100000,-0.100000)"
fill="#000000" stroke="none">
<path d="M216 1387 c-30 -30 -35 -41 -25 -48 8 -5 20 -9 27 -9 8 0 44 -14 80
-31 l67 -32 -55 -25 c-30 -14 -93 -37 -140 -52 -46 -16 -86 -33 -88 -39 -2 -5
2 -19 8 -31 9 -17 6 -26 -15 -54 -30 -39 -32 -56 -7 -56 22 0 152 -43 202 -67
l35 -16 -40 -19 c-22 -10 -57 -21 -78 -24 -20 -4 -39 -10 -42 -14 -6 -10 26
-90 36 -90 5 0 13 9 18 19 10 18 102 91 115 91 3 0 6 -31 6 -70 0 -58 3 -70
16 -70 14 0 16 11 12 75 -4 81 1 87 42 58 14 -10 45 -28 70 -40 25 -13 60 -32
79 -44 21 -12 37 -17 43 -11 10 10 -66 60 -154 101 -27 13 -48 26 -48 30 0 9
125 81 203 116 31 15 57 32 57 38 0 7 -50 50 -110 96 -61 47 -110 88 -110 92
0 4 10 11 23 15 61 19 129 56 119 66 -6 6 -37 -3 -92 -28 l-82 -38 -47 50
c-26 27 -55 61 -66 75 l-20 26 -39 -40z m80 -54 c-1 -2 -17 3 -34 10 -25 10
-29 16 -20 25 9 9 17 7 35 -10 13 -12 21 -23 19 -25z m154 -134 c36 -27 86
-66 112 -86 26 -20 46 -38 45 -38 -1 -1 -60 -32 -131 -69 l-129 -67 5 63 c3
35 15 83 27 108 11 24 21 47 21 52 0 4 -20 8 -45 8 l-45 0 7 -111 6 -111 -24
12 c-45 24 -169 112 -169 121 0 19 220 167 250 168 3 0 34 -22 70 -50z m-275
-45 c-36 -28 -53 -35 -60 -24 -4 6 9 17 27 25 43 19 58 18 33 -1z m184 -16 c0
-7 -4 -22 -8 -32 -7 -19 -8 -18 -14 4 -3 13 -4 27 -1 32 8 12 24 10 23 -4z
m-215 -105 c19 -16 23 -24 11 -19 -11 5 -30 11 -42 13 -23 5 -29 14 -16 26 10
10 13 9 47 -20z m72 -184 c-15 -12 -30 -18 -34 -14 -9 8 26 35 46 35 9 0 4 -8
-12 -21z"/>
<path d="M1020 1335 c-29 -30 -32 -37 -20 -45 12 -8 8 -15 -24 -42 -48 -39
-88 -67 -143 -98 -47 -26 -51 -35 -26 -62 14 -16 15 -24 5 -52 -7 -18 -12 -35
-12 -38 0 -3 28 -22 63 -42 82 -49 128 -91 121 -111 -6 -14 51 -85 59 -74 2 2
23 38 47 79 24 41 70 101 102 132 32 32 58 65 58 74 0 18 -34 67 -81 118 -15
16 -45 67 -66 112 -21 46 -40 83 -44 84 -3 0 -21 -16 -39 -35z m53 -40 c9 -19
13 -35 9 -35 -16 0 -54 48 -47 59 11 19 21 12 38 -24z m44 -100 c19 -22 44
-51 56 -65 12 -14 31 -35 41 -48 l20 -23 -55 -55 c-30 -30 -76 -71 -103 -91
l-49 -35 8 69 c4 37 15 99 26 138 10 38 19 73 19 78 0 4 -17 7 -37 5 l-37 -3
3 -142 c1 -80 -1 -143 -6 -143 -5 0 -40 41 -78 91 l-69 90 19 36 c11 19 48 65
84 103 l66 68 28 -17 c16 -9 45 -34 64 -56z m-254 -75 c-19 -32 -29 -37 -36
-17 -2 6 8 20 22 29 34 24 35 23 14 -12z m186 18 c0 -7 -4 -22 -9 -33 -7 -17
-9 -15 -9 13 -1 17 4 32 9 32 6 0 10 -6 9 -12z m-182 -125 c7 -10 18 -26 24
-36 9 -16 8 -17 -8 -8 -38 21 -56 38 -49 49 10 16 16 15 33 -5z m192 -167
c-18 -30 -24 -34 -36 -24 -13 10 -10 16 19 39 18 15 34 26 36 24 1 -1 -7 -19
-19 -39z"/>
<path d="M694 946 c-3 -8 -2 -21 2 -28 5 -7 7 -21 6 -30 -2 -11 3 -18 12 -18
17 0 30 37 24 67 -4 23 -36 30 -44 9z"/>
<path d="M1281 923 c1 -10 5 -31 9 -48 7 -27 8 -25 9 18 0 26 -3 47 -9 47 -5
0 -9 -8 -9 -17z"/>
<path d="M648 586 c-31 -39 -34 -46 -15 -46 15 -1 62 -39 55 -45 -3 -3 -29 -7
-59 -10 -48 -4 -264 -41 -296 -51 -8 -2 -13 -22 -13 -54 0 -52 8 -61 30 -35
23 28 153 83 259 110 86 22 106 24 121 13 45 -33 97 -74 116 -93 11 -11 35
-31 52 -45 18 -14 32 -28 32 -31 0 -14 -208 -129 -232 -129 -14 0 -5 198 10
227 17 32 -2 38 -38 12 -24 -18 -27 -25 -18 -37 7 -7 14 -55 16 -104 4 -75 2
-90 -9 -86 -32 11 -245 80 -278 89 -9 2 -22 -10 -32 -31 -31 -61 -27 -66 49
-68 126 -3 252 -14 252 -23 0 -5 -14 -12 -31 -16 -29 -6 -30 -8 -24 -42 12
-65 19 -66 82 -6 53 50 61 51 152 30 35 -9 66 -13 68 -11 12 12 -12 24 -67 35
-33 7 -60 16 -60 21 0 5 40 33 90 61 49 29 92 59 95 67 3 8 -43 64 -118 143
-67 71 -129 142 -137 159 -8 16 -17 30 -20 30 -3 0 -17 -16 -32 -34z m73 -60
c46 -52 39 -53 -22 -2 -21 17 -34 36 -32 44 3 7 6 12 8 10 1 -2 21 -25 46 -52z
m-331 -126 c-38 -20 -46 -19 -37 5 4 9 19 15 39 15 l33 -1 -35 -19z m90 -189
l65 -21 -55 5 c-30 3 -72 5 -93 5 -35 0 -37 1 -26 21 6 13 17 19 27 16 10 -3
46 -15 82 -26z m220 -69 c0 -5 -18 -23 -40 -41 -36 -29 -40 -30 -40 -12 0 13
13 27 38 40 44 24 42 23 42 13z"/>
<path d="M957 154 c-11 -12 -8 -41 6 -52 17 -15 36 -1 39 28 2 19 -2 26 -17
28 -12 2 -24 0 -28 -4z"/>
<path d="M1040 100 c0 -5 5 -10 10 -10 6 0 10 5 10 10 0 6 -4 10 -10 10 -5 0
-10 -4 -10 -10z"/>
</g>
</svg>
