<?xml version="1.0" standalone="no"?>
<!DOCTYPE svg PUBLIC "-//W3C//DTD SVG 20010904//EN"
 "http://www.w3.org/TR/2001/REC-SVG-20010904/DTD/svg10.dtd">
<svg version="1.0" xmlns="http://www.w3.org/2000/svg"
 width="121.000000pt" height="176.000000pt" viewBox="0 0 121.000000 176.000000"
 preserveAspectRatio="xMidYMid meet">
<metadata>
Created by potrace 1.16, written by Peter Selinger 2001-2019
</metadata>
<g transform="translate(0.000000,176.000000) scale(0.100000,-0.100000)"
fill="#000000" stroke="none">
<path d="M741 1619 c-63 -66 -118 -118 -124 -116 -10 3 -40 50 -83 132 -15 28
-28 52 -30 54 -5 5 -54 -42 -54 -52 0 -5 14 -20 32 -35 l32 -27 -70 -7 c-38
-3 -111 -2 -163 4 -83 9 -95 9 -103 -6 -5 -9 -17 -16 -27 -16 -28 0 -31 -10
-15 -42 9 -16 18 -70 21 -119 3 -49 10 -89 14 -89 5 0 9 14 9 31 0 24 4 30 18
27 12 -2 18 -14 20 -41 2 -24 8 -37 15 -34 7 2 11 18 9 36 l-2 31 74 0 c40 0
87 3 104 6 29 6 30 5 37 -45 4 -28 11 -51 15 -51 5 0 16 15 25 33 9 17 40 62
69 99 l53 68 97 -107 c72 -80 96 -114 96 -134 0 -41 20 -47 44 -13 26 36 88
98 194 193 45 40 82 77 82 82 0 4 -21 23 -47 41 -27 18 -88 74 -138 125 l-90
92 -114 -120z m147 52 c32 -27 27 -35 -8 -14 -16 9 -30 21 -30 25 0 13 13 9
38 -11z m-49 -38 c0 -16 4 -101 7 -190 5 -147 4 -164 -11 -169 -9 -4 -20 -2
-24 4 -12 20 -13 297 -1 341 12 47 26 54 29 14z m-335 2 c3 -8 1 -15 -4 -15
-6 0 -10 7 -10 15 0 8 2 15 4 15 2 0 6 -7 10 -15z m400 -20 c11 -8 14 -15 8
-15 -15 0 -16 -36 -1 -45 6 -5 9 -48 8 -120 -3 -108 -4 -114 -26 -124 l-23
-11 0 165 c0 91 3 165 8 165 4 0 16 -7 26 -15z m-124 -156 l0 -140 -21 20
c-21 19 -22 27 -17 134 3 63 8 120 12 126 19 29 26 -11 26 -140z m198 10 c3
-88 2 -102 -15 -114 -10 -8 -20 -15 -23 -15 -4 0 3 184 9 232 1 4 7 5 14 3 8
-4 13 -37 15 -106z m-408 46 l34 -35 -24 -25 c-13 -14 -28 -25 -33 -25 -5 0
-22 -11 -39 -25 -28 -24 -36 -25 -150 -25 l-121 0 7 46 c3 26 6 57 6 70 0 30
17 34 154 44 61 4 116 8 122 9 5 0 25 -15 44 -34z m150 -53 l-1 -77 -39 43
-39 44 32 38 c17 21 35 36 39 34 5 -3 8 -40 8 -82z m335 47 c22 -16 38 -33 35
-37 -3 -3 -24 -24 -48 -46 l-43 -40 3 77 c2 42 5 77 8 77 3 0 23 -14 45 -31z
m-841 -15 c3 -9 6 -38 6 -66 0 -42 -3 -49 -16 -44 -9 3 -18 6 -20 6 -7 0 -4
106 3 113 11 11 20 8 27 -9z m316 -107 c0 -13 -49 -66 -54 -58 -4 5 6 21 21
35 27 25 33 29 33 23z m328 -137 c-7 -10 -14 -17 -17 -15 -4 4 18 35 25 35 2
0 -1 -9 -8 -20z"/>
<path d="M1202 1240 c0 -14 2 -19 5 -12 2 6 2 18 0 25 -3 6 -5 1 -5 -13z"/>
<path d="M1202 1190 c0 -14 2 -19 5 -12 2 6 2 18 0 25 -3 6 -5 1 -5 -13z"/>
<path d="M720 1042 c-36 -37 -73 -79 -82 -93 -9 -15 -25 -34 -35 -44 -10 -10
-28 -31 -39 -47 l-22 -29 -30 49 c-17 27 -39 73 -49 101 -10 28 -21 50 -26 48
-5 -1 -18 -19 -29 -39 -21 -37 -21 -37 -2 -55 11 -10 31 -31 44 -47 l25 -28
-119 7 c-66 4 -146 13 -179 20 -42 9 -60 9 -62 1 -11 -40 -17 -46 -38 -46 -30
0 -40 -10 -27 -25 6 -7 11 -54 13 -106 2 -52 7 -94 13 -94 5 0 10 10 12 21 2
15 13 24 34 28 50 10 58 8 58 -19 0 -14 5 -25 10 -25 6 0 10 11 10 24 0 23 4
25 75 31 84 8 105 4 112 -25 7 -26 20 -25 42 2 14 17 30 21 81 23 82 4 95 25
15 25 -31 0 -55 3 -53 8 9 21 54 82 60 82 4 0 15 -12 25 -27 32 -51 145 -183
165 -194 21 -12 60 11 193 116 39 30 107 76 153 102 45 26 82 50 82 53 0 4
-55 43 -122 88 -127 84 -158 107 -211 155 -16 15 -30 27 -31 27 -1 0 -30 -31
-66 -68z m129 -20 c24 -18 41 -32 38 -32 -5 0 -92 39 -106 47 -2 1 0 10 3 20
5 11 10 13 14 7 4 -6 27 -25 51 -42z m-76 -184 c-2 -101 -8 -184 -12 -186 -13
-4 -21 123 -15 237 6 116 9 131 23 131 5 0 7 -75 4 -182z m-48 -16 c0 -186 0
-187 -22 -190 -13 -2 -23 0 -23 5 0 4 -27 42 -60 83 -33 41 -60 81 -60 89 0 7
17 32 38 55 20 23 57 65 81 94 24 29 44 52 45 52 1 0 1 -84 1 -188z m97 136
c6 -90 -7 -281 -19 -286 -15 -4 -17 55 -6 221 6 109 19 142 25 65z m-342 -65
c0 -12 -32 22 -45 48 -23 44 -4 42 22 -2 13 -23 23 -43 23 -46z m381 -46 c-2
-89 0 -127 8 -127 6 0 11 18 11 43 0 24 3 78 6 120 l7 76 96 -49 c53 -27 102
-53 109 -58 15 -10 -81 -74 -196 -131 l-63 -32 3 146 c2 91 7 144 13 142 6 -2
9 -52 6 -130z m-352 -21 c9 -11 -2 -25 -55 -70 l-66 -56 -95 0 -96 0 7 61 c5
53 4 60 -10 55 -9 -3 -20 -6 -25 -6 -6 0 -7 -20 -3 -50 l7 -50 -36 0 c-20 0
-39 5 -42 11 -13 19 17 100 39 109 12 5 98 9 192 9 134 1 174 -2 183 -13z
m-76 -131 c-10 -13 -22 -25 -27 -25 -5 0 1 11 14 25 30 32 36 32 13 0z m417
-29 c0 -11 -110 -77 -119 -72 -17 11 -13 26 7 26 9 1 37 12 62 25 49 26 50 27
50 21z"/>
<path d="M857 502 c-10 -10 -17 -21 -17 -25 0 -4 21 -16 47 -28 43 -20 45 -22
29 -35 -15 -10 -17 -19 -9 -41 4 -15 6 -73 3 -127 l-5 -99 -37 -19 -36 -19 16
-39 c8 -22 19 -40 23 -40 4 0 15 15 24 34 23 48 69 92 147 138 38 22 71 44 74
49 3 5 14 9 24 9 38 0 27 17 -42 71 -118 90 -151 119 -177 154 -30 39 -41 42
-64 17z m38 -22 c3 -5 2 -10 -4 -10 -5 0 -13 5 -16 10 -3 6 -2 10 4 10 5 0 13
-4 16 -10z m158 -145 c64 -48 78 -65 57 -65 -6 0 -49 -25 -97 -56 l-86 -56 6
117 c7 130 11 142 37 123 9 -7 47 -35 83 -63z m-164 -237 c-9 -16 -14 -19 -17
-9 -2 7 2 17 9 22 20 13 21 11 8 -13z"/>
<path d="M445 440 c-9 -17 -14 -34 -11 -38 6 -10 -218 -3 -276 8 -26 5 -61 7
-79 3 -28 -5 -30 -9 -25 -36 3 -16 6 -72 6 -123 0 -56 4 -94 10 -94 6 0 10 8
10 19 0 12 9 20 28 24 15 3 35 9 44 12 13 5 17 0 20 -27 2 -18 8 -31 13 -28 6
3 9 18 7 34 l-2 29 82 -6 c46 -4 110 -7 142 -7 52 0 57 -2 42 -13 -17 -13 -17
-15 -1 -46 9 -18 20 -29 24 -25 4 5 28 36 53 69 68 90 72 92 110 62 18 -14 49
-40 69 -59 29 -27 70 -55 110 -76 3 -1 9 46 13 105 3 59 9 132 12 161 6 52 6
52 -17 44 -23 -9 -23 -11 -20 -136 3 -140 0 -146 -54 -100 -16 14 -51 42 -76
63 l-46 37 83 68 c76 61 98 86 76 86 -4 0 -47 -31 -96 -70 l-89 -70 -46 37
c-57 45 -80 73 -81 95 0 30 -19 29 -35 -2z m88 -101 c23 -18 46 -36 50 -39 5
-4 -14 -23 -42 -43 -44 -32 -53 -35 -83 -26 -18 5 -86 9 -150 9 l-118 0 0 35
c0 20 6 50 14 69 l13 32 137 -2 137 -3 42 -32z m-363 -29 l0 -60 -45 2 c-43 3
-45 4 -45 35 0 56 19 83 57 83 l33 0 0 -60z m322 -132 c-6 -6 -15 -8 -19 -4
-4 4 -1 11 7 16 19 12 27 3 12 -12z"/>
</g>
</svg>
