<?xml version="1.0" standalone="no"?>
<!DOCTYPE svg PUBLIC "-//W3C//DTD SVG 20010904//EN"
 "http://www.w3.org/TR/2001/REC-SVG-20010904/DTD/svg10.dtd">
<svg version="1.0" xmlns="http://www.w3.org/2000/svg"
 width="135.000000pt" height="106.000000pt" viewBox="0 0 135.000000 106.000000"
 preserveAspectRatio="xMidYMid meet">
<metadata>
Created by potrace 1.16, written by Peter Selinger 2001-2019
</metadata>
<g transform="translate(0.000000,106.000000) scale(0.100000,-0.100000)"
fill="#000000" stroke="none">
<path d="M115 1024 c-11 -9 -26 -19 -34 -23 -11 -7 -4 -22 30 -70 42 -59 59
-74 59 -49 0 25 -23 143 -29 150 -3 4 -15 0 -26 -8z m15 -38 c0 -8 3 -23 6
-33 5 -16 4 -16 -10 1 -18 22 -21 46 -6 46 6 0 10 -6 10 -14z"/>
<path d="M670 995 c-7 -8 -21 -15 -31 -15 -31 0 -22 -28 14 -45 36 -17 78 -76
59 -83 -13 -4 -17 -32 -4 -32 19 0 92 -81 116 -128 15 -29 31 -52 36 -52 15 0
13 6 -25 84 -19 39 -40 94 -47 121 -15 61 -14 60 -31 46 -21 -17 -37 7 -44 68
-6 52 -20 64 -43 36z m20 -41 c0 -8 -4 -12 -10 -9 -5 3 -10 10 -10 16 0 5 5 9
10 9 6 0 10 -7 10 -16z m79 -130 c3 -16 1 -17 -13 -5 -19 16 -21 34 -3 29 6
-3 14 -13 16 -24z"/>
<path d="M807 953 c-2 -5 -2 -25 0 -45 l5 -37 139 1 c99 0 139 4 136 12 -3 6
-10 10 -16 8 -14 -3 -220 47 -242 59 -10 5 -20 6 -22 2z m78 -53 c-3 -5 -15
-10 -25 -10 -10 0 -22 5 -25 10 -4 6 7 10 25 10 18 0 29 -4 25 -10z"/>
<path d="M201 904 c-28 -28 -31 -23 62 -88 38 -27 67 -42 65 -35 -6 27 -83
149 -93 148 -5 -1 -21 -12 -34 -25z m49 -34 c10 -19 10 -20 -9 -8 -22 13 -28
28 -11 28 5 0 14 -9 20 -20z"/>
<path d="M57 863 c-4 -3 -2 -12 5 -20 6 -8 19 -46 28 -85 9 -40 22 -74 28 -76
6 -2 13 23 17 65 4 37 12 76 17 87 7 13 6 21 -3 27 -16 10 -83 12 -92 2z m63
-65 c0 -48 -4 -47 -18 5 -8 30 -8 37 4 37 10 0 14 -12 14 -42z"/>
<path d="M437 773 c-10 -16 1 -78 13 -78 16 0 34 50 26 70 -6 16 -32 20 -39 8z"/>
<path d="M1105 750 c-3 -5 -3 -16 2 -22 4 -7 6 -21 5 -30 -2 -10 2 -18 8 -18
15 0 34 45 27 64 -7 18 -33 21 -42 6z"/>
<path d="M97 582 c-21 -23 -22 -46 -2 -62 8 -7 15 -18 15 -25 0 -7 19 -52 43
-99 24 -47 40 -86 36 -86 -4 0 -11 5 -14 10 -13 22 -23 8 -28 -43 -4 -29 -25
-95 -47 -146 -28 -64 -38 -97 -31 -104 7 -7 19 8 36 47 14 31 25 59 25 61 0 3
18 42 40 89 22 46 40 87 40 91 0 3 -18 49 -41 102 -30 71 -40 106 -37 136 3
45 -10 57 -35 29z"/>
<path d="M940 531 c0 -5 -13 -14 -30 -21 -16 -7 -30 -18 -30 -24 0 -6 29 -41
65 -79 36 -37 65 -69 65 -72 0 -3 -24 -55 -54 -117 -30 -62 -56 -122 -58 -132
-6 -37 18 -24 72 40 30 36 67 78 82 95 l26 31 123 -7 c93 -6 121 -5 118 4 -3
7 -64 32 -137 56 -73 24 -138 48 -145 53 -7 6 -26 49 -42 96 -16 47 -35 86
-42 86 -7 0 -13 -4 -13 -9z m36 -87 c14 -31 23 -58 21 -60 -2 -2 -23 19 -47
47 -34 40 -40 53 -29 60 24 15 29 10 55 -47z m159 -148 l70 -24 -72 -1 -71 -1
-56 -62 -56 -63 43 93 c30 67 46 91 57 88 8 -3 47 -16 85 -30z"/>
<path d="M245 350 c-21 -41 -20 -44 29 -59 24 -7 70 -34 103 -60 91 -73 121
-92 128 -82 3 5 -11 22 -31 38 -91 70 -176 147 -186 169 -15 32 -24 30 -43 -6z
m41 -37 c-7 -7 -26 7 -26 19 0 6 6 6 15 -2 9 -7 13 -15 11 -17z"/>
<path d="M622 221 c-17 -10 -5 -81 13 -81 20 0 30 59 14 76 -9 8 -19 10 -27 5z"/>
<path d="M1333 194 c-3 -8 -1 -20 6 -27 8 -8 11 -4 11 16 0 30 -7 35 -17 11z"/>
</g>
</svg>
