<?xml version="1.0" standalone="no"?>
<!DOCTYPE svg PUBLIC "-//W3C//DTD SVG 20010904//EN"
 "http://www.w3.org/TR/2001/REC-SVG-20010904/DTD/svg10.dtd">
<svg version="1.0" xmlns="http://www.w3.org/2000/svg"
 width="128.000000pt" height="53.000000pt" viewBox="0 0 128.000000 53.000000"
 preserveAspectRatio="xMidYMid meet">
<metadata>
Created by potrace 1.16, written by Peter Selinger 2001-2019
</metadata>
<g transform="translate(0.000000,53.000000) scale(0.100000,-0.100000)"
fill="#000000" stroke="none">
<path d="M130 437 c-84 -92 -85 -93 -62 -125 18 -24 58 -106 107 -220 10 -23
23 -42 28 -42 12 0 3 428 -9 439 -5 5 -34 -19 -64 -52z m53 -157 c5 -148 4
-154 -11 -120 -9 19 -31 66 -49 104 -18 38 -33 74 -33 80 0 9 81 99 86 93 0
-1 4 -72 7 -157z"/>
<path d="M1034 462 c-38 -49 -131 -142 -144 -142 -6 0 -10 -7 -10 -15 0 -8 4
-15 9 -15 10 0 143 -133 166 -167 17 -24 35 -30 35 -12 0 5 -13 27 -30 47 -55
69 -58 221 -5 284 27 32 30 44 16 52 -5 3 -22 -11 -37 -32z m-39 -157 l0 -75
-38 39 -39 39 38 36 c22 19 39 36 39 36 0 0 0 -34 0 -75z"/>
<path d="M528 442 c-37 -21 -68 -40 -68 -43 0 -3 20 -40 44 -83 24 -42 52
-104 62 -136 11 -33 22 -59 26 -57 4 1 10 60 12 132 3 72 8 151 12 178 8 58 3
59 -88 9z m69 -6 c-3 -8 -9 -57 -13 -110 l-7 -95 -38 75 c-22 42 -39 80 -39
84 0 9 77 57 94 59 4 1 6 -5 3 -13z"/>
<path d="M296 222 c-3 -5 -3 -25 1 -46 5 -30 8 -34 20 -24 16 13 14 70 -4 75
-6 2 -14 0 -17 -5z"/>
<path d="M742 190 c4 -48 18 -56 31 -17 11 33 3 57 -18 57 -12 0 -15 -9 -13
-40z"/>
<path d="M1163 204 c-7 -18 14 -35 34 -27 7 3 13 14 13 24 0 24 -38 26 -47 3z"/>
</g>
</svg>
