<?xml version="1.0" standalone="no"?>
<!DOCTYPE svg PUBLIC "-//W3C//DTD SVG 20010904//EN"
 "http://www.w3.org/TR/2001/REC-SVG-20010904/DTD/svg10.dtd">
<svg version="1.0" xmlns="http://www.w3.org/2000/svg"
 width="134.000000pt" height="308.000000pt" viewBox="0 0 134.000000 308.000000"
 preserveAspectRatio="xMidYMid meet">
<metadata>
Created by potrace 1.16, written by Peter Selinger 2001-2019
</metadata>
<g transform="translate(0.000000,308.000000) scale(0.100000,-0.100000)"
fill="#000000" stroke="none">
<path d="M455 2975 c-11 -25 -22 -45 -26 -45 -4 0 -71 7 -149 15 -78 8 -146
12 -151 9 -12 -7 -11 -61 1 -69 12 -7 14 -105 2 -105 -4 0 -8 -18 -8 -40 -1
-22 0 -40 2 -40 3 0 21 11 42 24 41 27 184 86 208 86 20 0 79 -65 100 -112 9
-21 21 -38 26 -38 11 0 11 0 -22 83 -16 42 -30 84 -30 96 0 29 -15 33 -36 10
-10 -11 -24 -17 -32 -14 -8 3 -20 1 -26 -3 -19 -15 -55 -20 -59 -8 -2 6 1 28
6 49 l10 38 80 -4 c74 -4 83 -7 105 -33 31 -38 67 -106 64 -121 -2 -9 19 -12
72 -12 77 0 186 -19 186 -34 0 -4 15 -5 33 -2 17 3 88 -6 157 -19 l125 -24
-145 -2 c-80 -1 -189 -4 -244 -6 -54 -2 -124 0 -154 5 -54 8 -58 8 -86 -20
-16 -16 -27 -31 -24 -34 3 -3 36 0 74 6 38 6 211 14 384 18 277 5 315 8 318
22 2 11 -5 16 -25 17 -31 1 -333 59 -340 65 -2 2 38 21 89 42 51 21 120 50
153 65 33 15 77 33 98 39 20 7 37 17 37 22 0 10 -17 10 -425 13 -154 1 -288 5
-297 10 -15 7 -18 3 -18 -20 0 -42 -9 -24 -24 47 -7 34 -17 64 -22 66 -5 1
-18 -17 -29 -42z m35 -36 c0 -5 -4 -9 -10 -9 -5 0 -10 7 -10 16 0 8 5 12 10 9
6 -3 10 -10 10 -16z m-247 -115 c-6 -36 -17 -44 -27 -18 -9 23 -7 49 5 81 l12
28 8 -28 c4 -15 5 -44 2 -63z m28 -17 c-13 -13 -15 14 -3 64 l7 34 3 -44 c2
-24 -2 -49 -7 -54z m-81 28 c0 -30 -4 -55 -10 -55 -11 0 -13 33 -4 79 9 46 14
38 14 -24z m875 -1 c-71 -31 -164 -63 -205 -71 -69 -15 -79 -14 -145 2 -38 10
-78 25 -88 34 -16 13 -19 13 -27 1 -6 -8 -10 -19 -10 -25 0 -5 -13 13 -29 40
l-29 50 32 12 c21 8 127 12 331 12 l300 0 -130 -55z m-631 -20 c3 -8 2 -12 -4
-9 -6 3 -10 10 -10 16 0 14 7 11 14 -7z"/>
<path d="M176 2456 c6 -24 4 -26 -26 -26 -30 0 -32 -2 -26 -27 4 -16 10 -65
13 -111 4 -57 10 -85 19 -89 8 -3 14 -11 14 -19 0 -8 4 -14 9 -14 5 0 16 -2
23 -5 9 -4 19 4 26 17 11 23 11 23 11 -5 1 -34 21 -26 21 8 0 37 18 39 22 3 2
-18 7 -33 13 -33 5 0 9 16 7 36 -3 35 -2 36 58 62 34 15 63 27 66 27 2 0 20
-25 41 -55 21 -33 42 -54 49 -51 10 4 12 -3 7 -24 -7 -36 -2 -37 38 -7 29 21
39 22 205 21 121 0 174 3 174 10 0 7 -18 12 -42 12 -134 1 -270 8 -317 16 -39
7 -56 7 -61 -2 -8 -13 -45 67 -55 123 -4 20 -10 39 -14 41 -13 8 -53 -34 -47
-49 5 -15 -4 -22 -61 -39 -20 -6 -22 -3 -25 36 -2 28 -7 42 -16 41 -6 -2 -12
4 -12 12 0 8 -4 15 -10 15 -5 0 -11 -28 -12 -62 -2 -61 -2 -61 -5 -13 -6 77
-23 80 -25 5 l-1 -65 -6 64 c-8 87 -26 89 -26 4 0 -61 -2 -68 -20 -68 -18 0
-20 7 -20 60 1 72 10 111 27 113 7 1 87 4 177 7 153 5 181 8 170 20 -3 2 -77
8 -164 14 -88 5 -170 12 -183 16 -21 7 -22 5 -16 -19z m394 -280 c0 -3 -4 -8
-10 -11 -5 -3 -10 -1 -10 4 0 6 5 11 10 11 6 0 10 -2 10 -4z"/>
<path d="M582 2453 l-24 -25 32 -37 c17 -20 40 -51 51 -68 12 -18 25 -33 30
-33 5 0 9 -9 9 -20 0 -11 7 -20 15 -20 8 0 15 5 15 11 0 5 17 17 37 25 34 15
39 14 77 -5 23 -11 84 -36 136 -56 52 -21 97 -39 100 -42 3 -3 -17 -3 -44 -2
-33 3 -51 0 -53 -8 -4 -10 19 -13 92 -13 71 0 96 3 93 12 -3 7 -51 29 -109 49
-57 20 -131 49 -163 64 l-59 28 159 53 c87 29 160 57 162 62 2 7 -358 26 -440
23 -15 -1 -29 3 -33 9 -11 17 -25 11 -25 -11 0 -11 -4 -17 -10 -14 -5 3 -10
15 -10 26 0 25 -10 23 -38 -8z m32 -39 c9 -24 7 -28 -9 -14 -17 14 -20 30 -6
30 5 0 12 -7 15 -16z m299 6 c102 -1 128 -3 113 -12 -11 -6 -33 -14 -50 -19
-17 -4 -69 -21 -116 -37 -80 -28 -87 -29 -110 -14 -14 8 -30 22 -36 31 -10 12
-13 11 -24 -8 -10 -20 -14 -21 -25 -10 -7 8 -16 24 -20 37 -6 20 -3 22 32 23
21 0 47 4 58 9 11 5 26 7 33 4 8 -2 73 -4 145 -4z m-190 -107 c-7 -2 -21 -2
-30 0 -10 3 -4 5 12 5 17 0 24 -2 18 -5z"/>
<path d="M1245 2118 c9 -54 13 -58 31 -33 22 30 14 69 -15 73 -22 4 -23 2 -16
-40z"/>
<path d="M532 2023 c-11 -10 -29 -23 -39 -29 -14 -10 -16 -14 -5 -25 6 -7 12
-16 12 -19 0 -9 -219 8 -256 20 -19 7 -37 10 -39 8 -9 -9 -16 -78 -7 -78 5 0
9 -27 8 -62 -1 -58 -3 -63 -24 -66 -21 -3 -23 -8 -19 -53 5 -58 11 -68 27 -40
6 12 15 19 21 16 5 -4 9 3 9 14 0 23 15 28 23 9 3 -7 6 -3 6 10 1 27 21 30 21
2 0 -11 5 -20 11 -20 7 0 8 11 4 30 -4 19 -3 30 4 30 6 0 12 -10 12 -22 1 -15
4 -11 9 12 l7 35 2 -33 c1 -41 21 -33 21 8 0 57 81 69 146 22 54 -39 127 -129
120 -147 -6 -17 13 -32 23 -17 4 6 27 20 52 31 41 19 68 20 324 21 153 0 281
2 283 5 10 10 -8 18 -45 19 -21 0 -40 4 -43 7 -5 6 -173 52 -262 72 -50 11
-61 24 -30 33 9 3 62 26 117 51 55 25 113 49 128 52 15 3 29 11 30 16 1 6 -96
10 -273 11 -151 1 -294 4 -317 8 -38 7 -42 6 -46 -16 l-4 -23 -2 23 c0 12 6
39 14 59 8 19 15 37 15 39 0 9 -19 3 -38 -13z m-2 -43 c0 -5 -5 -10 -11 -10
-5 0 -7 5 -4 10 3 6 8 10 11 10 2 0 4 -4 4 -10z m-230 -110 c0 -33 -4 -60 -10
-60 -11 0 -13 62 -4 98 10 36 14 26 14 -38z m27 -22 c-2 -18 -4 -6 -4 27 0 33
2 48 4 33 2 -15 2 -42 0 -60z m163 73 c20 -6 28 -18 41 -66 9 -33 20 -69 24
-80 6 -14 -2 -11 -28 14 -24 23 -38 46 -42 72 -8 43 -32 53 -52 20 -10 -15
-65 -51 -80 -51 -1 0 -3 23 -3 50 l0 50 58 -1 c31 -1 68 -4 82 -8z m100 -1
c-19 -13 -30 -13 -30 0 0 6 10 10 23 10 18 0 19 -2 7 -10z m485 -10 c-3 -5
-11 -10 -17 -10 -15 0 -130 -51 -148 -66 -27 -22 -82 -26 -129 -10 -24 9 -45
16 -46 16 -2 0 -12 -18 -24 -40 -26 -50 -12 -60 34 -25 20 14 40 23 46 19 8
-5 8 -9 -1 -14 -12 -7 -4 -60 10 -60 5 0 20 14 33 30 l26 30 65 -15 c36 -9 77
-20 91 -25 15 -6 41 -12 58 -15 124 -20 96 -24 -163 -22 -151 1 -280 -2 -286
-6 -7 -4 -19 11 -32 41 -19 44 -42 118 -42 135 0 10 46 28 95 37 64 12 437 12
430 0z m-838 -92 c-2 -18 -4 -4 -4 32 0 36 2 50 4 33 2 -18 2 -48 0 -65z m231
17 c-9 -9 -30 14 -23 25 6 9 10 8 17 -4 6 -10 8 -19 6 -21z m-277 -118 c-8 -8
-11 -7 -11 4 0 20 13 34 18 19 3 -7 -1 -17 -7 -23z m469 -41 c0 -3 -4 -8 -10
-11 -5 -3 -10 -1 -10 4 0 6 5 11 10 11 6 0 10 -2 10 -4z"/>
<path d="M140 1973 c-37 -7 -42 -16 -25 -49 12 -23 14 -52 9 -141 -7 -141 11
-154 21 -15 3 53 13 117 21 142 22 70 21 71 -26 63z"/>
<path d="M567 1547 l-29 -30 16 -57 c17 -60 22 -175 7 -184 -18 -11 -91 116
-91 159 0 7 9 15 20 18 11 3 20 10 20 17 0 7 -8 9 -22 5 -24 -7 -178 -66 -212
-80 -18 -8 -19 -5 -12 34 13 80 16 82 139 75 70 -4 107 -3 107 3 0 17 -38 23
-140 23 -87 1 -139 7 -197 25 -19 6 -23 3 -23 -13 0 -11 -8 -26 -18 -33 -16
-12 -18 -27 -14 -121 2 -60 8 -108 13 -108 5 0 9 6 9 13 0 13 79 53 207 107
64 27 61 29 150 -90 64 -85 66 -89 47 -149 -6 -21 -5 -23 12 -17 29 12 130 23
324 36 96 7 202 16 235 21 33 5 86 9 118 9 39 0 57 4 57 13 0 8 -62 26 -173
51 -94 21 -185 42 -202 47 -16 4 -51 11 -78 15 -99 14 -75 25 198 94 257 64
254 72 -30 77 -121 1 -262 6 -313 9 -81 5 -93 8 -87 22 18 46 0 50 -38 9z m10
-64 c-3 -10 -5 -4 -5 12 0 17 2 24 5 18 2 -7 2 -21 0 -30z m-329 17 c-13 -8
-15 -21 -11 -70 4 -39 2 -60 -5 -60 -6 0 -18 -3 -27 -6 -15 -6 -16 -1 -10 42
9 58 33 104 55 104 13 -1 12 -2 -2 -10z m-74 -33 c-3 -114 -4 -117 -20 -117
-16 0 -16 31 2 123 8 37 19 34 18 -6z m456 23 c-19 -13 -30 -13 -30 0 0 6 10
10 23 10 18 0 19 -2 7 -10z m480 -10 c12 -7 -3 -12 -179 -55 -58 -14 -132 -35
-165 -46 -61 -20 -92 -19 -149 3 -24 9 -28 16 -25 42 3 28 7 31 48 39 25 5 61
13 80 17 43 10 374 10 390 0z m-445 -160 c-8 -36 -4 -37 41 -6 l35 23 107 -23
c59 -13 163 -37 232 -53 l125 -28 -70 -6 c-38 -4 -126 -12 -195 -18 -163 -14
-343 -1 -354 27 -3 8 -3 34 1 59 5 42 7 44 42 48 20 2 37 4 39 5 2 1 1 -11 -3
-28z m-10 -129 c15 -6 7 -9 -30 -14 -54 -6 -61 -4 -50 12 7 13 50 13 80 2z"/>
<path d="M104 1025 c-26 -22 -27 -27 -16 -46 10 -15 12 -53 7 -150 -4 -88 -2
-129 5 -129 6 0 13 7 16 15 5 12 10 13 20 4 11 -9 14 -7 14 14 0 14 7 27 15
31 11 4 15 -1 15 -19 0 -34 20 -32 21 3 l0 27 11 -25 c11 -25 11 -25 18 10 7
42 17 60 32 60 7 0 8 -17 4 -50 -4 -28 -3 -50 2 -50 12 0 22 35 22 76 0 21 6
34 18 39 9 4 48 18 85 32 66 24 69 24 89 6 11 -9 40 -60 65 -112 38 -81 43
-98 33 -119 -15 -34 -8 -37 38 -19 34 14 79 15 321 10 257 -6 281 -5 281 10 0
10 -5 17 -10 17 -10 0 -279 127 -289 136 -13 12 61 65 154 113 58 30 105 58
105 63 0 6 -125 8 -307 6 -170 -2 -318 1 -330 5 -21 8 -23 5 -23 -22 0 -40 -9
-40 -141 3 -133 44 -176 63 -181 77 -3 8 -14 1 -30 -15 l-26 -28 5 26 c7 33
-6 33 -43 1z m189 -54 c9 -1 17 -5 17 -10 0 -11 -110 -19 -116 -9 -3 4 -16 2
-29 -4 -23 -10 -25 -17 -25 -74 0 -35 -4 -66 -10 -69 -11 -7 -14 124 -4 160 5
19 10 20 77 13 40 -4 80 -7 90 -7z m157 -53 c8 -3 -14 -14 -50 -26 -36 -11
-73 -23 -82 -27 -15 -6 -18 -2 -18 23 0 17 6 32 15 36 8 3 15 12 15 20 0 13 8
12 53 -3 28 -10 59 -20 67 -23z m647 28 c3 -2 -10 -11 -28 -19 -19 -8 -64 -29
-101 -46 -36 -17 -72 -31 -78 -31 -7 0 -10 -8 -7 -20 4 -16 2 -18 -11 -11 -10
5 -37 18 -62 30 -25 12 -53 27 -62 33 -13 10 -21 9 -36 -5 -10 -9 -24 -17 -30
-17 -17 0 -25 45 -13 69 10 19 22 21 134 23 156 4 287 1 294 -6z m-481 -11
c-19 -14 -19 -15 6 -38 23 -21 106 -175 108 -202 2 -13 30 -29 38 -20 4 3 -1
18 -10 33 -10 15 -29 48 -43 75 l-25 47 49 0 c51 0 74 -8 274 -104 65 -31 122
-56 127 -56 5 0 12 -5 15 -10 9 -14 -432 -3 -498 12 -48 10 -49 12 -86 87 -30
61 -36 85 -33 120 4 37 9 45 36 57 43 18 67 18 42 -1z m-426 -64 c0 -34 -4
-51 -15 -55 -12 -4 -15 3 -15 33 0 22 3 46 6 55 12 32 24 15 24 -33z m31 -28
c-8 -15 -10 -10 -11 23 0 22 3 44 8 48 11 12 14 -52 3 -71z m57 40 c-2 -27 -8
-39 -20 -41 -11 -2 -16 2 -14 10 2 7 7 25 10 41 9 41 28 33 24 -10z m242 2 c0
-8 -4 -15 -10 -15 -5 0 -10 7 -10 15 0 8 5 15 10 15 6 0 10 -7 10 -15z m-393
-127 c-3 -8 -6 -5 -6 6 -1 11 2 17 5 13 3 -3 4 -12 1 -19z"/>
<path d="M1304 649 c-3 -6 -1 -16 5 -22 6 -6 11 -19 11 -29 0 -10 5 -18 10
-18 6 0 10 18 10 40 0 28 -4 40 -14 40 -8 0 -18 -5 -22 -11z"/>
<path d="M558 498 c-15 -23 -18 -23 -237 -23 -183 0 -221 -2 -221 -14 0 -8
-12 -29 -26 -48 -24 -32 -25 -35 -9 -53 18 -20 45 -110 45 -152 0 -20 -7 -28
-30 -37 -27 -9 -30 -14 -30 -50 0 -23 2 -41 5 -41 3 0 34 23 68 52 59 49 218
158 231 158 3 0 6 -9 6 -19 0 -11 5 -23 11 -27 7 -4 10 6 7 31 -3 39 17 62 27
31 3 -9 7 -23 10 -32 3 -8 9 -13 14 -9 6 3 6 17 -1 36 -11 32 -8 37 53 73 l26
16 32 -59 c37 -70 38 -73 8 -66 -18 5 -28 0 -40 -19 -24 -36 -22 -50 6 -41 71
22 71 22 101 -57 16 -40 33 -77 37 -82 17 -19 9 25 -16 84 -14 33 -25 64 -25
70 0 7 17 10 43 8 41 -3 42 -4 58 -53 8 -27 18 -44 22 -38 4 6 3 23 -3 38 -5
14 -10 31 -10 36 0 6 87 9 228 9 125 0 233 -1 240 0 28 0 8 19 -47 44 -32 14
-62 26 -66 26 -4 0 -35 13 -68 29 -34 15 -73 31 -85 35 -13 5 -21 11 -17 14 9
9 106 39 225 68 212 54 190 63 -138 64 -147 0 -296 4 -332 10 -87 13 -85 13
-102 -12z m52 -8 c0 -5 -10 -10 -22 -10 -19 0 -20 2 -8 10 19 13 30 13 30 0z
m-4 -39 c-17 -19 -17 -21 8 -47 14 -16 30 -42 37 -58 6 -17 17 -44 25 -61 12
-28 12 -30 -8 -33 -27 -5 -88 7 -86 16 1 4 -6 30 -16 59 -24 72 -19 125 14
134 41 11 44 10 26 -10z m439 -17 c-190 -56 -193 -56 -223 -40 -15 8 -49 24
-75 35 l-49 21 -19 -23 -18 -22 -1 33 0 32 253 -1 252 0 -120 -35z m-564 -24
c-29 -27 -57 -50 -61 -50 -11 0 -20 27 -20 60 0 31 10 34 100 38 l34 2 -53
-50z m-205 17 c-3 -13 3 -47 14 -76 19 -49 19 -71 1 -71 -20 0 -42 146 -24
163 12 13 15 7 9 -16z m41 4 c-3 -11 1 -28 8 -38 18 -27 24 -71 10 -83 -10 -8
-15 5 -25 54 -7 36 -9 69 -5 75 10 18 18 13 12 -8z m56 8 c-8 -8 -6 -22 5 -50
11 -30 12 -43 4 -51 -17 -17 -21 -9 -28 55 -6 51 -5 57 12 57 13 0 15 -3 7
-11z m267 -11 c0 -16 -3 -19 -11 -11 -6 6 -8 16 -5 22 11 17 16 13 16 -11z
m-408 -4 c-6 -11 -3 -33 10 -67 20 -52 21 -98 2 -104 -12 -4 -39 161 -29 177
11 17 27 11 17 -6z m-45 -1 c-3 -5 1 -37 9 -73 17 -83 17 -117 0 -123 -11 -4
-16 14 -23 81 -10 90 -8 122 9 122 5 0 7 -3 5 -7z m-53 -21 c-3 -9 2 -44 10
-77 20 -75 21 -125 2 -125 -15 0 -42 174 -30 203 8 22 23 22 18 -1z m393 -4
c-3 -8 -6 -5 -6 6 -1 11 2 17 5 13 3 -3 4 -12 1 -19z m253 -8 c12 -8 9 -10
-12 -10 -16 0 -28 -6 -28 -12 0 -7 -3 -23 -6 -35 -7 -27 3 -29 31 -7 17 13 18
16 5 24 -13 8 -13 10 2 10 9 0 18 -6 20 -12 4 -10 10 -10 31 -1 30 14 72 3
172 -43 28 -12 73 -32 101 -43 l49 -20 -140 0 c-77 -1 -176 2 -221 5 l-81 7
-17 56 c-10 31 -20 64 -22 74 -5 15 2 17 48 17 29 0 60 -5 68 -10z m-680 -4
c0 -3 -4 -8 -10 -11 -5 -3 -10 -1 -10 4 0 6 5 11 10 11 6 0 10 -2 10 -4z m35
-216 c-11 -18 -68 -54 -63 -40 2 8 18 22 34 31 35 21 37 22 29 9z"/>
<path d="M735 109 c-10 -15 3 -25 16 -12 7 7 7 13 1 17 -6 3 -14 1 -17 -5z"/>
</g>
</svg>
