<?xml version="1.0" standalone="no"?>
<!DOCTYPE svg PUBLIC "-//W3C//DTD SVG 20010904//EN"
 "http://www.w3.org/TR/2001/REC-SVG-20010904/DTD/svg10.dtd">
<svg version="1.0" xmlns="http://www.w3.org/2000/svg"
 width="58.000000pt" height="69.000000pt" viewBox="0 0 58.000000 69.000000"
 preserveAspectRatio="xMidYMid meet">
<metadata>
Created by potrace 1.16, written by Peter Selinger 2001-2019
</metadata>
<g transform="translate(0.000000,69.000000) scale(0.100000,-0.100000)"
fill="#000000" stroke="none">
<path d="M106 615 c-5 -23 -13 -35 -23 -35 -14 0 -15 -15 -9 -122 3 -68 7
-187 8 -265 1 -79 5 -148 8 -153 5 -8 31 -5 81 9 41 11 116 23 167 27 l92 7 1
76 c1 161 11 319 25 384 8 38 14 72 14 76 0 5 -49 6 -109 3 -96 -4 -147 1
-232 24 -12 3 -18 -5 -23 -31z m84 -15 c-36 -12 -60 -12 -60 0 0 6 19 10 43 9
36 -1 38 -2 17 -9z m211 -40 c4 -19 9 -58 12 -87 5 -48 4 -52 -16 -55 -32 -4
-179 8 -199 17 -16 6 -18 1 -18 -40 0 -41 2 -46 18 -40 57 24 94 33 152 37
l64 3 -3 -50 c-1 -27 -4 -51 -6 -53 -2 -2 -44 -4 -93 -5 -62 -1 -95 2 -103 10
-23 23 -29 14 -23 -29 4 -24 8 -44 9 -46 1 -1 28 7 60 18 32 11 80 20 107 20
l49 0 -2 -69 c-1 -38 -5 -75 -10 -82 -5 -9 -41 -11 -145 -6 -75 4 -139 9 -141
11 -2 2 -7 51 -10 110 -4 79 -1 133 12 216 11 60 22 115 26 121 7 12 165 38
219 36 31 -2 35 -5 41 -37z m45 24 c-3 -9 -6 -25 -7 -37 0 -21 -1 -21 -9 -2
-14 32 -11 55 6 55 11 0 14 -5 10 -16z m-337 -56 c0 -18 -4 -42 -9 -53 -6 -15
-9 -6 -9 33 -1 28 4 52 9 52 6 0 10 -15 9 -32z m124 -135 c-7 -2 -19 -2 -25 0
-7 3 -2 5 12 5 14 0 19 -2 13 -5z m2 -133 c-3 -5 -10 -10 -16 -10 -5 0 -9 5
-9 10 0 6 7 10 16 10 8 0 12 -4 9 -10z m-50 -179 c-6 -4 -25 -11 -42 -14 -25
-5 -33 -3 -33 8 0 11 12 15 42 15 24 0 38 -4 33 -9z"/>
</g>
</svg>
