<?xml version="1.0" standalone="no"?>
<!DOCTYPE svg PUBLIC "-//W3C//DTD SVG 20010904//EN"
 "http://www.w3.org/TR/2001/REC-SVG-20010904/DTD/svg10.dtd">
<svg version="1.0" xmlns="http://www.w3.org/2000/svg"
 width="138.000000pt" height="106.000000pt" viewBox="0 0 138.000000 106.000000"
 preserveAspectRatio="xMidYMid meet">
<metadata>
Created by potrace 1.16, written by Peter Selinger 2001-2019
</metadata>
<g transform="translate(0.000000,106.000000) scale(0.100000,-0.100000)"
fill="#000000" stroke="none">
<path d="M1227 1013 c-13 -3 -16 -10 -12 -21 23 -54 29 -72 25 -76 -3 -2 -40
-7 -83 -11 l-79 -7 7 44 7 44 -41 -4 c-23 -2 -48 1 -55 8 -20 16 -59 -8 -51
-32 19 -65 22 -60 -31 -57 -47 3 -49 2 -52 -25 -4 -31 1 -31 76 -10 19 5 22 3
22 -19 0 -14 -5 -29 -10 -32 -6 -4 -8 -15 -5 -26 6 -17 1 -19 -45 -19 -50 0
-50 0 -44 -27 9 -38 7 -37 53 -13 37 18 42 19 47 5 4 -9 4 -31 1 -50 -4 -26
-2 -35 9 -35 10 0 14 13 14 51 0 32 4 48 10 44 6 -4 9 -28 6 -56 -2 -27 0 -49
5 -49 10 0 21 40 19 66 -1 11 -1 39 0 64 l2 45 8 -48 c5 -27 7 -58 5 -69 -3
-12 -1 -26 3 -32 4 -6 9 9 12 34 5 47 23 61 28 22 4 -26 22 -20 22 9 0 17 7
19 60 19 79 0 77 18 -2 22 -62 3 -62 3 -63 33 0 28 -2 30 -37 29 -34 -2 -38 1
-38 23 0 23 2 24 17 12 18 -15 23 -15 32 -1 3 5 43 12 88 15 l82 6 3 -27 c2
-15 -3 -32 -11 -38 -11 -8 -11 -15 -2 -33 7 -12 11 -50 10 -84 -3 -85 14 -84
22 1 4 38 12 78 18 90 15 29 14 42 -5 42 -13 0 -15 12 -12 73 2 39 8 80 12 90
8 18 -6 21 -47 10z m-227 -93 c0 -11 -4 -20 -10 -20 -5 0 -10 9 -10 20 0 11 5
20 10 20 6 0 10 -9 10 -20z m27 -12 c-3 -7 -5 -2 -5 12 0 14 2 19 5 13 2 -7 2
-19 0 -25z m-25 -53 c6 -29 -7 -43 -16 -19 -9 23 -7 44 3 44 5 0 11 -11 13
-25z m65 -82 c-3 -10 -5 -4 -5 12 0 17 2 24 5 18 2 -7 2 -21 0 -30z m-80 5
c-3 -8 -6 -5 -6 6 -1 11 2 17 5 13 3 -3 4 -12 1 -19z"/>
<path d="M746 951 l-18 -39 31 -42 c17 -24 31 -47 31 -51 0 -10 -123 -90 -129
-83 -2 2 4 13 14 24 11 12 13 20 6 20 -17 0 -97 -77 -89 -86 4 -4 13 -2 21 4
18 15 66 10 78 -8 9 -13 11 -13 16 0 4 8 30 40 58 70 l52 55 -18 45 c-10 25
-18 64 -18 88 -1 52 -13 54 -35 3z"/>
<path d="M343 946 c-28 -36 -28 -36 2 -95 l24 -49 -41 -61 c-40 -59 -40 -62
-22 -76 32 -24 44 -18 44 23 0 20 9 52 21 71 14 24 19 42 14 60 -4 14 -10 55
-13 91 l-7 65 -22 -29z"/>
<path d="M686 951 c-10 -11 -24 -17 -31 -15 -8 3 -21 -5 -30 -19 -15 -23 -14
-27 11 -66 15 -22 31 -41 35 -41 4 0 5 19 3 43 l-4 42 22 -45 c16 -32 23 -40
26 -27 2 10 -1 32 -7 49 -6 18 -8 47 -5 65 7 38 4 40 -20 14z"/>
<path d="M268 930 c-16 -29 -16 -32 10 -84 29 -59 49 -74 37 -28 -4 15 -9 50
-12 77 -6 64 -14 71 -35 35z"/>
<path d="M497 908 l-18 -31 31 -28 c16 -15 30 -32 30 -38 0 -5 -16 -19 -36
-31 -31 -20 -34 -26 -28 -54 8 -41 22 -55 29 -30 15 46 36 84 46 84 12 0 8 39
-6 73 -14 34 32 -3 52 -41 l18 -34 -47 -42 c-27 -23 -48 -45 -48 -49 0 -17 23
-4 70 42 l52 48 -22 44 c-13 24 -23 61 -23 81 0 46 -11 48 -32 8 -18 -34 -35
-31 -35 6 0 33 -11 30 -33 -8z"/>
<path d="M82 892 c-13 -19 -19 -38 -14 -41 16 -11 42 -55 42 -72 0 -9 -14 -22
-31 -29 -24 -10 -29 -18 -25 -34 3 -12 6 -29 6 -38 0 -10 5 -18 10 -18 6 0 10
7 10 15 0 8 18 33 40 55 44 45 47 50 26 50 -17 0 -26 31 -26 92 0 26 -3 49 -7
51 -5 3 -18 -11 -31 -31z"/>
<path d="M210 900 c-10 -25 -9 -33 9 -59 12 -16 24 -43 27 -59 5 -25 0 -33
-31 -60 -25 -20 -36 -36 -32 -46 8 -19 27 -21 27 -3 0 7 21 32 47 56 40 38 44
45 28 51 -19 7 -45 75 -45 123 0 36 -14 35 -30 -3z"/>
<path d="M150 880 c-11 -27 -10 -32 19 -65 17 -20 31 -39 31 -43 -1 -4 -21
-22 -45 -40 -25 -18 -45 -39 -45 -47 0 -8 2 -15 5 -15 12 0 105 93 105 104 0
7 -9 29 -20 51 -11 22 -20 47 -20 57 0 30 -17 29 -30 -2z"/>
<path d="M1354 668 c5 -59 26 -62 26 -4 0 34 -4 46 -15 46 -12 0 -14 -10 -11
-42z"/>
<path d="M605 449 c-18 -19 -18 -22 -3 -52 9 -18 22 -49 29 -69 13 -37 12 -38
-30 -88 -39 -46 -42 -54 -32 -76 13 -29 31 -31 31 -4 0 26 26 78 53 107 16 18
18 25 8 37 -7 8 -15 49 -18 90 -3 42 -9 76 -13 76 -4 0 -15 -9 -25 -21z"/>
<path d="M820 423 c3 -69 7 -66 -75 -59 l-75 7 0 -32 c0 -26 3 -30 18 -24 32
12 122 26 132 20 6 -3 10 -31 10 -62 l0 -55 -90 4 -90 4 0 -33 c0 -36 13 -42
45 -19 18 12 84 21 123 17 8 -1 12 -22 12 -71 0 -38 4 -70 9 -70 5 0 9 32 9
71 1 39 3 73 6 76 2 2 7 -30 11 -72 9 -89 20 -90 20 -2 0 35 4 62 10 62 6 0
10 -27 10 -62 0 -33 3 -64 7 -68 11 -11 20 40 16 90 -2 25 0 45 4 45 5 0 8
-29 8 -65 0 -39 4 -65 11 -65 6 0 9 25 8 68 l-3 67 52 3 c32 2 52 8 52 15 0 8
-17 11 -55 9 l-55 -4 0 61 0 61 90 0 c84 0 90 -1 90 -20 0 -11 -5 -29 -12 -40
-10 -16 -9 -23 7 -40 15 -17 21 -40 24 -101 2 -59 7 -79 17 -79 11 0 14 23 16
105 0 58 1 111 2 118 1 6 -6 12 -14 12 -22 0 -24 37 -5 101 9 31 14 58 12 60
-2 2 -18 1 -36 -2 -34 -7 -34 -5 -15 -65 7 -20 -31 -29 -117 -29 -40 0 -59 4
-60 13 -1 6 -3 19 -4 27 -1 8 -3 23 -4 33 0 9 -6 17 -11 17 -6 0 -8 -17 -5
-42 l5 -43 -13 43 c-15 52 -27 47 -20 -9 4 -25 2 -39 -6 -39 -6 0 -11 18 -11
45 0 25 -4 45 -10 45 -5 0 -10 -21 -10 -46 0 -27 -4 -43 -10 -39 -5 3 -10 26
-10 51 0 25 -5 44 -11 44 -6 0 -10 -16 -9 -37z m37 -175 c-2 -18 -4 -4 -4 32
0 36 2 50 4 33 2 -18 2 -48 0 -65z m44 28 c2 -32 -1 -51 -9 -54 -9 -3 -12 14
-12 59 0 74 17 70 21 -5z m26 -23 c-2 -16 -4 -3 -4 27 0 30 2 43 4 28 2 -16 2
-40 0 -55z m233 1 c0 -8 -5 -12 -10 -9 -6 4 -8 11 -5 16 9 14 15 11 15 -7z"/>
<path d="M546 429 c-14 -20 -14 -25 2 -51 9 -16 23 -35 31 -41 12 -10 13 -8 6
13 -4 14 -9 40 -10 58 -3 43 -10 48 -29 21z"/>
<path d="M342 420 c-6 -11 -18 -17 -25 -14 -7 2 -22 -5 -33 -17 l-19 -21 -5
23 c-6 22 -6 22 -29 -10 -21 -30 -23 -36 -11 -55 44 -69 45 -75 11 -110 -30
-31 -41 -66 -21 -66 6 0 10 4 10 10 0 5 14 25 31 45 30 34 31 38 20 74 -6 21
-11 46 -11 55 0 27 35 2 55 -40 l17 -37 -43 -38 c-43 -37 -44 -38 -24 -53 27
-21 32 -20 40 7 4 12 18 36 30 53 16 20 20 35 14 45 -4 9 -12 35 -18 58 -12
54 5 51 38 -8 13 -23 25 -40 28 -38 2 3 -3 32 -11 65 -9 33 -13 67 -10 76 9
23 -19 20 -34 -4z m-32 -60 c0 -5 -4 -10 -10 -10 -5 0 -10 5 -10 10 0 6 5 10
10 10 6 0 10 -4 10 -10z"/>
<path d="M487 422 c-10 -10 -17 -21 -17 -24 0 -3 15 -31 34 -62 40 -66 55 -59
27 12 -11 27 -17 59 -14 71 7 26 -8 27 -30 3z"/>
<path d="M418 405 c-10 -13 -18 -27 -18 -30 0 -6 19 -32 61 -83 7 -9 -2 -27
-37 -67 -25 -30 -48 -55 -50 -55 -9 0 11 39 38 73 45 57 24 58 -32 2 -54 -54
-56 -61 -36 -88 12 -15 18 -17 35 -7 17 9 22 8 27 -5 10 -24 24 -18 24 11 0
29 14 60 42 90 18 21 18 22 -2 68 -11 26 -20 63 -20 82 0 40 -8 42 -32 9z"/>
<path d="M118 355 c-23 -30 -23 -31 7 -67 31 -37 31 -42 -2 -58 -50 -25 -52
-28 -40 -60 6 -17 15 -30 18 -30 4 0 16 17 26 37 10 20 25 39 33 41 11 4 10 0
-4 -16 -15 -18 -16 -24 -6 -37 16 -20 40 -19 40 1 0 8 11 30 25 49 15 18 21
35 15 37 -5 1 -16 31 -23 66 -12 60 -14 62 -30 44 -19 -21 -22 -42 -7 -42 5 0
17 -17 25 -37 14 -34 14 -38 -1 -52 -15 -15 -16 -14 -11 6 3 13 -1 24 -9 27
-7 3 -16 28 -20 56 -4 28 -9 52 -13 54 -3 2 -14 -7 -23 -19z"/>
<path d="M520 240 c-30 -22 -56 -43 -57 -48 -2 -4 6 -18 16 -31 l19 -24 7 31
c4 19 22 45 46 65 37 33 48 47 32 47 -5 0 -33 -19 -63 -40z"/>
<path d="M1317 74 c-4 -4 -7 -16 -7 -26 0 -14 6 -19 23 -16 14 2 22 10 22 23
0 20 -25 32 -38 19z"/>
</g>
</svg>
