<?xml version="1.0" standalone="no"?>
<!DOCTYPE svg PUBLIC "-//W3C//DTD SVG 20010904//EN"
 "http://www.w3.org/TR/2001/REC-SVG-20010904/DTD/svg10.dtd">
<svg version="1.0" xmlns="http://www.w3.org/2000/svg"
 width="96.000000pt" height="195.000000pt" viewBox="0 0 96.000000 195.000000"
 preserveAspectRatio="xMidYMid meet">
<metadata>
Created by potrace 1.16, written by Peter Selinger 2001-2019
</metadata>
<g transform="translate(0.000000,195.000000) scale(0.100000,-0.100000)"
fill="#000000" stroke="none">
<path d="M641 1858 c-17 -46 -20 -49 -20 -24 -1 16 6 38 16 48 13 14 13 18 2
18 -28 -1 -50 -27 -47 -56 l3 -29 -90 -8 c-49 -5 -125 -6 -167 -4 -43 3 -78 1
-78 -3 0 -5 -11 -21 -25 -36 -25 -27 -32 -44 -17 -44 4 0 12 4 18 9 16 15 182
51 277 60 51 5 93 8 94 7 0 0 3 -21 5 -46 l3 -45 -110 -13 c-78 -9 -127 -10
-170 -4 -56 9 -61 8 -77 -11 -27 -34 -23 -47 11 -37 27 7 175 24 294 33 l47 4
2 -66 c4 -122 4 -131 10 -137 4 -3 49 34 100 83 52 48 116 106 143 127 48 40
48 40 26 55 -60 43 -101 77 -148 122 -28 27 -58 49 -66 49 -9 0 -24 -21 -36
-52z m60 16 c12 -14 11 -16 -5 -13 -11 2 -21 10 -24 17 -5 17 13 15 29 -4z
m15 -43 c21 -11 67 -39 101 -64 l62 -44 -27 -26 c-33 -31 -191 -127 -211 -127
-11 0 -13 17 -7 93 10 142 17 187 30 187 7 0 30 -9 52 -19z m-416 -50 c0 -5
-7 -11 -15 -15 -15 -5 -20 5 -8 17 9 10 23 9 23 -2z m360 -246 c-7 -9 -15 -13
-17 -11 -7 7 7 26 19 26 6 0 6 -6 -2 -15z"/>
<path d="M122 1793 l-84 -83 74 -73 c40 -40 84 -91 98 -115 25 -41 50 -55 50
-28 0 8 -4 17 -9 20 -5 3 -25 30 -45 60 -29 44 -36 64 -36 103 0 51 24 148 43
171 6 8 6 16 1 20 -5 4 -47 -30 -92 -75z m42 -15 c-4 -13 -10 -49 -13 -80 l-6
-57 -37 34 -37 35 47 45 c26 24 48 45 50 45 2 0 0 -10 -4 -22z"/>
<path d="M913 1530 c0 -43 10 -51 27 -21 16 32 12 61 -9 61 -15 0 -18 -8 -18
-40z"/>
<path d="M673 1403 c-7 -3 -13 -13 -13 -23 0 -28 -29 -43 -105 -55 -5 -1 -14
-3 -19 -3 -5 -1 -4 -8 2 -15 6 -7 14 -36 18 -64 l6 -51 -78 -7 c-74 -7 -221
-1 -270 11 -23 6 -24 4 -24 -45 0 -28 5 -51 10 -51 6 0 10 4 10 9 0 15 132 40
248 47 l113 7 -3 -69 -3 -69 -90 -8 c-76 -6 -213 1 -264 14 -10 3 -15 -7 -16
-34 -1 -21 1 -40 5 -42 3 -2 36 2 73 10 37 8 116 17 177 21 102 6 110 6 110
-11 0 -10 6 -26 14 -34 7 -9 18 -29 23 -45 13 -43 25 -41 47 6 11 23 59 82
108 131 48 49 88 91 88 94 0 3 -8 13 -18 22 -69 63 -140 191 -127 231 6 20 -3
30 -22 23z m7 -79 c0 -8 -4 -12 -10 -9 -5 3 -10 10 -10 16 0 5 5 9 10 9 6 0
10 -7 10 -16z m-76 -36 c-14 -48 -23 -54 -24 -15 0 27 4 37 16 37 11 0 14 -6
8 -22z m120 -67 c42 -47 76 -88 76 -93 0 -13 -77 -79 -148 -127 l-64 -43 4
133 c4 102 10 144 24 176 11 24 22 42 25 40 4 -1 41 -40 83 -86z m-480 -60 c3
-5 -3 -11 -14 -14 -13 -3 -20 0 -20 9 0 15 26 19 34 5z m36 -165 c0 -2 -13 -6
-30 -8 -16 -3 -30 -1 -30 4 0 4 14 8 30 8 17 0 30 -2 30 -4z m363 -51 c-19
-26 -33 -32 -33 -14 0 12 29 38 43 39 4 0 0 -11 -10 -25z"/>
<path d="M111 1214 c-19 -19 -39 -34 -45 -34 -7 0 -17 -5 -24 -12 -8 -8 -2
-20 26 -49 42 -41 91 -133 99 -185 3 -20 11 -33 17 -31 13 5 13 1 -10 122 -10
54 -14 117 -11 158 5 78 -2 82 -52 31z m29 -81 l0 -58 -26 38 c-25 37 -25 39
-8 58 27 30 34 23 34 -38z"/>
<path d="M899 1038 c-6 -12 -5 -88 1 -88 22 0 41 55 27 78 -7 10 -25 17 -28
10z"/>
<path d="M610 776 c-26 -43 -126 -169 -166 -210 l-37 -39 -68 6 c-37 3 -77 11
-88 17 -18 9 -21 8 -21 -9 0 -11 -5 -32 -12 -46 -13 -30 -7 -40 19 -27 28 16
120 31 218 37 50 3 97 8 107 11 24 7 29 -7 22 -73 l-7 -60 -116 -11 c-105 -10
-185 -9 -218 3 -9 3 -13 -10 -13 -45 0 -50 10 -61 34 -37 7 6 47 21 88 31 l76
19 63 -49 c65 -49 76 -59 118 -113 13 -17 27 -31 31 -31 4 0 22 30 40 66 32
65 99 153 176 231 l42 41 -50 49 c-59 57 -155 173 -187 226 -12 20 -26 37 -29
37 -4 0 -14 -11 -22 -24z m65 -84 c-2 -2 -17 4 -34 14 -24 14 -28 21 -19 31 9
12 15 9 34 -14 12 -15 21 -30 19 -31z m-5 -32 c56 -35 179 -152 180 -172 1
-19 -222 -246 -242 -248 -5 0 -8 27 -8 60 0 50 3 60 18 61 78 4 117 10 126 20
8 9 -8 10 -68 5 l-78 -6 6 31 c3 17 6 49 6 70 l0 39 55 0 c41 0 55 4 55 14 0
12 -11 13 -55 9 -30 -3 -55 -4 -55 -2 0 2 7 29 15 59 19 72 20 70 -19 70 -42
0 -46 -11 -31 -77 l12 -51 -49 -4 c-28 -1 -52 0 -54 4 -9 15 91 158 110 158 6
0 40 -18 76 -40z m-60 -34 c0 -14 -4 -28 -10 -31 -6 -4 -10 7 -10 24 0 17 5
31 10 31 6 0 10 -11 10 -24z m-340 -110 c0 -3 -4 -8 -10 -11 -5 -3 -10 -1 -10
4 0 6 5 11 10 11 6 0 10 -2 10 -4z m308 -207 l2 -44 -30 35 c-35 40 -36 47
-12 53 31 8 37 1 40 -44z m-298 21 c-19 -13 -30 -13 -30 0 0 6 10 10 23 10 18
0 19 -2 7 -10z m373 -112 c-14 -26 -18 -29 -21 -15 -2 10 5 25 15 32 25 20 26
19 6 -17z"/>
<path d="M130 544 c-30 -40 -58 -74 -62 -74 -13 0 -9 -27 5 -38 6 -6 32 -60
57 -121 25 -61 48 -110 53 -108 8 2 15 403 7 411 -3 3 -30 -29 -60 -70z m38
-190 l-3 -66 -36 84 -35 84 35 47 36 48 3 -65 c2 -37 2 -96 0 -132z"/>
<path d="M907 293 c-15 -14 -7 -43 12 -43 24 0 33 13 25 34 -6 16 -25 21 -37
9z"/>
</g>
</svg>
