<?xml version="1.0" standalone="no"?>
<!DOCTYPE svg PUBLIC "-//W3C//DTD SVG 20010904//EN"
 "http://www.w3.org/TR/2001/REC-SVG-20010904/DTD/svg10.dtd">
<svg version="1.0" xmlns="http://www.w3.org/2000/svg"
 width="99.000000pt" height="103.000000pt" viewBox="0 0 99.000000 103.000000"
 preserveAspectRatio="xMidYMid meet">
<metadata>
Created by potrace 1.16, written by Peter Selinger 2001-2019
</metadata>
<g transform="translate(0.000000,103.000000) scale(0.100000,-0.100000)"
fill="#000000" stroke="none">
<path d="M758 951 c-26 -20 -47 -42 -48 -49 0 -7 10 -26 22 -42 12 -16 19 -33
15 -36 -3 -4 -39 -1 -79 5 -120 19 -111 20 -119 -22 -3 -21 -3 -39 0 -41 4 -3
27 -1 51 4 25 4 73 11 108 14 72 8 69 13 104 -131 13 -54 25 -83 34 -83 18 0
17 6 -1 77 -8 31 -15 74 -15 95 l0 38 55 0 c30 0 55 5 55 10 0 9 -33 14 -92
14 -13 0 -17 15 -23 88 -4 48 -10 90 -14 92 -3 2 -27 -12 -53 -33z m45 -73 c8
-83 -8 -91 -41 -23 l-22 46 27 24 c16 13 28 23 29 22 1 -1 4 -32 7 -69z m-170
-75 c-13 -2 -33 -2 -45 0 -13 2 -3 4 22 4 25 0 35 -2 23 -4z"/>
<path d="M280 895 c-50 -51 -58 -55 -90 -51 -19 3 -56 8 -81 12 l-47 6 -17
-46 c-10 -26 -16 -48 -14 -50 2 -3 29 4 59 14 30 10 75 20 99 22 43 3 46 1 68
-37 12 -22 28 -59 35 -83 7 -23 17 -41 23 -39 5 2 11 38 13 80 l3 77 54 0 c42
0 55 3 55 15 0 11 -13 15 -53 15 l-53 0 7 53 c4 28 4 55 0 59 -4 5 -31 -17
-61 -47z m38 -32 c-2 -22 -9 -29 -32 -31 l-29 -4 24 31 c30 38 41 39 37 4z
m-198 -43 c0 -5 -11 -10 -25 -10 -14 0 -25 5 -25 10 0 6 11 10 25 10 14 0 25
-4 25 -10z m190 -45 c0 -44 -14 -45 -29 -4 -14 41 -14 39 9 39 16 0 20 -7 20
-35z"/>
<path d="M467 673 c-7 -12 4 -83 13 -83 15 0 39 48 33 69 -5 20 -37 30 -46 14z"/>
<path d="M975 668 c-6 -19 -1 -75 8 -84 4 -4 7 16 7 44 0 50 -6 66 -15 40z"/>
<path d="M620 462 c-9 -9 -26 -24 -38 -32 l-23 -15 26 -62 c14 -35 25 -66 25
-69 0 -7 -170 3 -207 13 -18 4 -25 -1 -33 -23 -16 -42 -7 -55 32 -43 18 5 74
12 125 15 91 7 92 7 97 -17 3 -13 11 -59 19 -102 9 -43 18 -81 21 -84 15 -16
18 13 6 74 -6 38 -14 82 -17 100 l-5 32 108 -2 c65 -1 111 2 114 8 3 6 -37 11
-109 13 l-114 3 5 104 c5 108 0 122 -32 87z m10 -94 c-1 -65 -11 -64 -25 0 -6
28 6 62 21 62 2 0 4 -28 4 -62z m-197 -105 c-7 -2 -21 -2 -30 0 -10 3 -4 5 12
5 17 0 24 -2 18 -5z"/>
<path d="M926 171 c-8 -13 3 -38 20 -45 15 -6 34 22 27 42 -5 14 -39 16 -47 3z"/>
</g>
</svg>
