<?xml version="1.0" standalone="no"?>
<!DOCTYPE svg PUBLIC "-//W3C//DTD SVG 20010904//EN"
 "http://www.w3.org/TR/2001/REC-SVG-20010904/DTD/svg10.dtd">
<svg version="1.0" xmlns="http://www.w3.org/2000/svg"
 width="93.000000pt" height="188.000000pt" viewBox="0 0 93.000000 188.000000"
 preserveAspectRatio="xMidYMid meet">
<metadata>
Created by potrace 1.16, written by Peter Selinger 2001-2019
</metadata>
<g transform="translate(0.000000,188.000000) scale(0.100000,-0.100000)"
fill="#000000" stroke="none">
<path d="M406 1816 c-23 -24 -26 -33 -17 -45 39 -56 55 -99 56 -153 0 -48 -3
-58 -19 -62 -14 -4 -17 -11 -13 -27 4 -17 -4 -35 -33 -70 -22 -26 -40 -51 -40
-56 0 -5 14 -14 31 -20 28 -11 31 -10 39 13 9 23 12 24 125 24 l115 0 0 103
c0 56 7 140 15 187 8 47 15 88 15 91 0 11 -69 16 -73 5 -7 -21 -157 -3 -157
19 0 25 -14 22 -44 -9z m244 -58 c0 -36 -4 -35 -14 5 -4 16 -2 27 4 27 5 0 10
-14 10 -32z m-203 0 c-3 -8 -6 -5 -6 6 -1 11 2 17 5 13 3 -3 4 -12 1 -19z
m168 -2 c2 -12 6 -38 9 -58 l5 -38 -80 0 c-46 0 -79 4 -79 10 0 6 15 11 33 11
17 1 39 3 47 4 8 1 25 3 38 4 45 2 10 21 -41 21 -95 0 -135 23 -48 27 54 3
115 21 74 22 -12 1 -25 5 -28 11 -3 5 9 9 30 8 27 -1 36 -6 40 -22z m15 -136
c0 -18 -7 -20 -64 -20 -97 0 -97 21 -1 33 62 8 65 7 65 -13z m0 -56 c0 -11
-16 -14 -76 -14 -56 0 -75 3 -72 13 3 7 30 14 69 17 72 6 79 5 79 -16z m0 -49
c0 -12 -17 -15 -90 -15 -49 0 -90 4 -90 9 0 11 39 17 123 19 45 2 57 -1 57
-13z m-5 -54 c0 -12 -19 -15 -98 -15 -63 -1 -97 3 -97 10 0 18 5 19 102 19 74
0 93 -3 93 -14z m-231 -35 c-3 -9 -10 -16 -15 -16 -6 0 -5 9 1 21 13 24 24 20
14 -5z"/>
<path d="M286 1704 c-11 -29 -6 -45 25 -84 l32 -39 -32 -42 c-36 -50 -37 -57
-13 -75 26 -20 32 -17 32 19 0 17 9 47 21 66 17 28 18 36 7 50 -25 30 -48 79
-48 100 0 25 -15 28 -24 5z"/>
<path d="M238 1665 c-4 -17 2 -31 18 -46 24 -23 32 -49 15 -49 -5 0 -20 22
-33 50 -13 27 -26 49 -30 50 -17 0 -8 -69 10 -79 15 -10 12 -15 -26 -52 -32
-30 -41 -46 -37 -60 8 -24 27 -20 35 7 7 26 40 74 51 74 16 0 9 -21 -12 -39
-16 -12 -20 -23 -15 -39 9 -27 36 -29 36 -2 0 11 14 39 31 64 l32 44 -22 35
c-11 19 -21 42 -21 51 0 26 -27 19 -32 -9z"/>
<path d="M151 1661 c-16 -30 -13 -44 19 -69 29 -22 53 -15 25 8 -8 7 -15 25
-15 41 0 35 -16 46 -29 20z"/>
<path d="M100 1634 c-14 -35 -13 -38 10 -59 26 -24 25 -33 -5 -41 -27 -7 -30
-15 -15 -45 15 -27 29 -24 41 8 6 16 17 35 25 44 13 14 13 18 -1 29 -8 7 -18
30 -21 51 -8 45 -20 50 -34 13z"/>
<path d="M442 1321 c-12 -17 -22 -34 -22 -38 -1 -13 54 -123 61 -123 9 0 1
184 -8 187 -5 2 -19 -10 -31 -26z m18 -48 c-1 -24 -2 -26 -11 -10 -5 9 -7 22
-4 27 10 17 15 11 15 -17z"/>
<path d="M670 1286 c0 -24 0 -24 -84 -19 -58 3 -86 1 -91 -7 -11 -18 -2 -21
89 -21 68 0 86 -3 86 -15 0 -11 -17 -14 -80 -14 -47 0 -80 -4 -80 -10 0 -6 35
-10 85 -10 78 0 85 -2 85 -20 0 -19 -7 -20 -90 -20 -53 0 -90 -4 -90 -10 0
-10 62 -14 143 -10 28 1 37 -2 37 -14 0 -13 -14 -16 -86 -16 -63 0 -85 -3 -82
-12 3 -9 27 -12 81 -9 72 3 77 2 77 -18 0 -20 -5 -21 -91 -21 -68 0 -90 -3
-87 -12 3 -9 32 -14 87 -16 70 -2 82 -5 77 -18 -3 -9 -6 -16 -6 -17 0 -7 -127
7 -136 14 -7 5 -21 -3 -40 -22 -16 -17 -48 -42 -71 -56 -24 -14 -43 -27 -43
-29 0 -11 33 -54 41 -54 5 0 24 24 43 54 37 58 55 66 148 66 l50 0 -7 -31 -7
-30 44 3 c30 2 43 7 43 18 0 11 -8 14 -29 12 -23 -3 -27 0 -22 13 3 9 6 24 6
33 1 15 2 15 11 0 5 -10 14 -18 19 -18 17 0 11 28 -7 39 -15 9 -16 12 -4 20 8
5 12 15 9 23 -8 19 10 122 32 192 28 83 27 86 -20 86 -36 0 -40 -3 -40 -24z
m42 -36 c-2 -16 -6 -30 -8 -30 -2 0 -4 14 -4 30 0 17 4 30 8 30 5 0 7 -13 4
-30z"/>
<path d="M313 1225 c-26 -40 -28 -51 -10 -62 6 -4 18 -19 25 -31 12 -21 11
-27 -4 -43 -9 -10 -20 -19 -24 -19 -16 0 -41 89 -34 124 7 43 -10 49 -28 11
-13 -29 -28 -34 -21 -6 9 34 -14 31 -33 -4 -17 -32 -17 -35 -1 -53 20 -22 22
-42 4 -42 -23 0 -39 40 -32 84 l7 41 -36 -34 c-20 -19 -36 -38 -36 -42 0 -4
16 -16 35 -28 42 -25 44 -36 7 -53 -18 -9 -28 -22 -30 -41 -4 -35 7 -34 43 3
31 32 60 43 32 12 -10 -10 -17 -26 -17 -35 0 -21 26 -22 34 -2 9 24 26 17 26
-10 0 -32 13 -32 34 -1 19 30 78 76 103 81 10 2 19 4 21 4 2 1 -7 19 -19 40
-21 38 -23 81 -4 124 14 32 -19 18 -42 -18z m-54 -119 c27 -39 30 -56 12 -56
-3 0 -13 15 -20 33 -8 17 -21 38 -28 45 -15 16 -18 36 -3 27 5 -3 23 -25 39
-49z m-38 -39 c-13 -13 -26 -3 -16 12 3 6 11 8 17 5 6 -4 6 -10 -1 -17z m29
-21 c0 -3 -4 -8 -10 -11 -5 -3 -10 -1 -10 4 0 6 5 11 10 11 6 0 10 -2 10 -4z"/>
<path d="M373 1230 c-13 -15 -23 -31 -23 -35 0 -4 14 -27 30 -52 17 -24 28
-49 25 -53 -3 -5 -35 -26 -71 -46 -56 -31 -64 -39 -58 -58 4 -11 8 -22 9 -24
1 -2 25 19 52 45 27 26 63 55 79 63 16 8 31 15 33 17 2 1 -10 18 -27 38 -26
32 -29 41 -21 73 16 70 8 79 -28 32z"/>
<path d="M867 1003 c-3 -5 -5 -27 -4 -51 0 -34 3 -42 16 -40 22 4 37 63 21 83
-14 16 -26 19 -33 8z"/>
<path d="M433 815 c-6 -11 -13 -36 -16 -56 -5 -34 -2 -39 54 -88 65 -57 109
-110 114 -138 2 -10 4 -38 4 -62 1 -40 3 -43 24 -38 40 10 177 19 177 12 0 -3
-4 -14 -10 -24 -8 -16 -22 -18 -105 -17 -93 1 -95 1 -95 -23 0 -18 4 -22 18
-16 27 11 152 19 152 9 -1 -31 -19 -36 -109 -33 -81 4 -92 2 -97 -14 -3 -10
-16 -29 -30 -42 -15 -15 -24 -36 -24 -55 0 -25 -10 -38 -60 -77 -33 -25 -60
-48 -60 -51 0 -10 52 -52 59 -48 4 3 16 23 26 45 20 46 27 49 108 52 54 3 60
0 82 -27 13 -16 25 -27 27 -24 2 3 11 37 20 75 10 42 37 106 67 161 54 96 70
146 54 166 -25 33 -46 112 -52 197 -3 52 -10 96 -16 98 -5 1 -17 -13 -25 -33
l-15 -35 -105 -5 -105 -5 -22 43 c-12 24 -24 50 -26 58 -3 12 -6 11 -14 -5z
m32 -92 l18 -28 -21 19 c-12 11 -22 23 -22 28 0 14 7 9 25 -19z m275 -19 c0
-8 -4 -12 -10 -9 -5 3 -10 10 -10 16 0 5 5 9 10 9 6 0 10 -7 10 -16z m-17 -48
c34 -69 34 -76 -2 -76 -15 0 -50 -2 -77 -5 -62 -7 -30 9 39 19 76 12 54 26
-40 26 -67 0 -84 3 -75 12 6 6 39 14 72 16 93 7 71 22 -32 23 -103 0 -95 14
17 28 33 5 63 9 66 10 3 0 18 -23 32 -53z m44 -112 c5 -14 -103 -25 -132 -14
-22 8 -25 7 50 24 33 7 78 2 82 -10z m18 -64 c-8 -13 -145 -13 -165 0 -19 12
-8 15 85 27 53 6 72 5 78 -5 4 -6 5 -17 2 -22z m-65 -168 c0 -29 -70 -40 -145
-22 l-30 7 35 6 c93 17 140 20 140 9z m-40 -61 c0 -20 -32 -32 -79 -30 -53 3
-63 11 -33 28 21 13 112 14 112 2z m-150 -11 c0 -5 -5 -10 -11 -10 -5 0 -7 5
-4 10 3 6 8 10 11 10 2 0 4 -4 4 -10z m105 -49 c-13 -11 -125 -22 -125 -12 0
17 16 21 74 21 35 0 56 -4 51 -9z m26 -28 c-8 -15 -10 -15 -11 -2 0 17 10 32
18 25 2 -3 -1 -13 -7 -23z m-227 -57 c-6 -16 -24 -23 -24 -8 0 10 22 33 27 28
2 -2 1 -11 -3 -20z"/>
<path d="M347 623 c-2 -5 -8 -21 -12 -38 -4 -16 -10 -24 -12 -17 -7 19 -19 14
-38 -15 -17 -25 -17 -27 6 -44 l24 -18 -21 -21 -20 -21 -12 23 c-6 13 -16 36
-22 51 -12 35 -30 26 -30 -14 0 -19 9 -38 25 -52 22 -20 23 -24 10 -41 -15
-20 -15 -20 -30 0 -8 10 -20 37 -26 59 -6 22 -13 46 -15 53 -6 21 -21 5 -28
-29 -4 -23 -2 -35 10 -44 14 -9 14 -14 4 -20 -16 -10 -39 18 -47 58 -6 28 -24
33 -29 6 -1 -7 -5 -26 -9 -40 -5 -21 -2 -27 22 -38 l28 -13 -23 -18 c-12 -10
-27 -20 -32 -22 -13 -4 2 -84 15 -81 5 1 13 17 18 35 10 39 31 63 46 54 6 -4
9 -17 6 -29 -6 -25 7 -82 19 -82 4 0 14 17 21 39 17 49 41 74 31 32 -5 -20 -2
-34 10 -47 25 -27 34 -23 34 14 0 21 8 41 19 51 19 17 20 17 30 -3 9 -15 8
-26 -1 -40 -9 -15 -9 -23 1 -35 20 -24 28 -20 41 22 7 20 21 52 32 70 19 30
21 32 33 15 19 -25 28 -11 14 21 -11 23 -9 31 18 69 42 59 45 65 34 71 -5 3
-23 -15 -40 -40 l-30 -47 -11 28 c-6 15 -18 54 -28 86 -16 56 -25 69 -35 52z
m17 -108 c16 -24 14 -45 -3 -45 -8 0 -31 44 -31 60 0 18 18 10 34 -15z m-24
-68 c0 -7 -9 -18 -19 -24 -26 -16 -35 5 -13 29 15 18 32 15 32 -5z m60 -12 c0
-26 -14 -33 -25 -15 -9 14 1 40 15 40 5 0 10 -11 10 -25z m-200 -34 c7 -14 7
-22 -1 -27 -14 -8 -43 21 -35 35 11 17 24 13 36 -8z m165 -1 c7 -23 -1 -40
-20 -40 -18 0 -28 30 -14 46 16 19 27 17 34 -6z m-82 3 c8 -7 -21 -43 -35 -43
-12 0 -10 24 4 38 14 14 22 15 31 5z"/>
</g>
</svg>
