<?xml version="1.0" standalone="no"?>
<!DOCTYPE svg PUBLIC "-//W3C//DTD SVG 20010904//EN"
 "http://www.w3.org/TR/2001/REC-SVG-20010904/DTD/svg10.dtd">
<svg version="1.0" xmlns="http://www.w3.org/2000/svg"
 width="107.000000pt" height="344.000000pt" viewBox="0 0 107.000000 344.000000"
 preserveAspectRatio="xMidYMid meet">
<metadata>
Created by potrace 1.16, written by Peter Selinger 2001-2019
</metadata>
<g transform="translate(0.000000,344.000000) scale(0.100000,-0.100000)"
fill="#000000" stroke="none">
<path d="M203 3353 c4 -16 12 -88 19 -161 9 -97 9 -135 1 -140 -6 -4 -13 -23
-15 -42 -3 -32 -1 -35 22 -32 14 1 188 3 387 5 230 1 362 6 360 12 -2 5 -77
24 -168 41 -90 17 -217 43 -281 57 -65 15 -120 27 -123 27 -3 0 -5 52 -4 116
l1 116 -27 14 c-16 8 -30 12 -33 9 -3 -3 0 -24 7 -47 7 -23 15 -74 18 -114 5
-59 2 -78 -11 -99 -10 -15 -16 -28 -14 -29 2 -2 53 -8 113 -15 105 -12 305
-48 314 -57 7 -7 -409 -3 -464 4 l-50 7 0 115 c0 63 3 143 7 178 l8 62 -36 0
c-34 0 -36 -2 -31 -27z"/>
<path d="M264 2811 c-2 -2 -4 -17 -4 -33 0 -24 -4 -28 -26 -28 -22 0 -25 -4
-21 -21 3 -12 11 -82 18 -156 10 -109 10 -139 0 -155 -17 -27 -1 -44 27 -29
40 22 345 89 517 115 54 8 100 17 103 21 15 15 -35 35 -153 60 -71 14 -158 36
-193 48 -63 22 -64 22 -78 3 -23 -32 -17 -46 19 -46 57 -1 300 -39 311 -50 5
-5 7 -10 3 -10 -3 0 -70 -11 -149 -24 -79 -13 -167 -27 -195 -31 l-53 -6 0
105 c0 82 3 108 16 120 21 21 12 32 -28 31 -31 0 -33 -2 -28 -30 3 -16 5 -75
5 -130 l0 -100 -49 -2 -49 -2 8 117 c9 161 10 161 140 193 58 14 106 30 105
35 0 9 -237 14 -246 5z m61 -36 c-43 -13 -51 -12 -40 4 3 6 23 11 43 10 l37
-1 -40 -13z"/>
<path d="M228 2208 c-3 -66 6 -82 28 -49 21 30 32 26 39 -13 8 -38 -13 -226
-26 -242 -10 -13 11 -96 27 -101 5 -2 18 10 27 27 10 17 30 33 45 36 35 8 447
132 490 147 17 6 32 17 32 23 0 13 -24 16 -259 33 -73 6 -136 12 -138 15 -9 8
6 53 22 70 24 23 18 36 -18 36 l-34 0 -2 -97 c-3 -124 -12 -177 -32 -181 -13
-2 -14 12 -11 100 5 120 18 169 50 183 47 21 22 30 -70 27 -86 -3 -96 -2 -130
21 l-36 25 -4 -60z m42 2 c0 -5 -5 -10 -11 -10 -5 0 -7 5 -4 10 3 6 8 10 11
10 2 0 4 -4 4 -10z m137 -24 c1 -1 -4 -66 -10 -146 l-12 -145 -43 -3 -44 -3 7
58 c7 59 21 156 31 206 5 22 2 27 -15 27 -12 0 -21 4 -21 9 0 6 98 4 107 -3z
m332 -151 c9 -2 29 -4 45 -4 36 -1 29 -10 -16 -21 -31 -8 -226 -68 -275 -84
-21 -7 -22 -5 -17 46 9 86 0 81 130 73 64 -4 124 -9 133 -10z"/>
<path d="M300 1682 c0 -21 -8 -36 -25 -49 -24 -17 -25 -21 -16 -73 5 -30 12
-83 15 -117 l6 -63 -35 0 c-34 0 -35 -2 -35 -36 0 -34 1 -36 28 -30 61 13 203
35 302 46 58 6 134 16 170 20 35 5 66 7 68 5 2 -2 7 -24 9 -50 9 -79 23 -48
23 53 1 57 7 113 15 137 8 21 13 41 11 43 -5 4 -67 -12 -68 -18 0 -3 3 -31 7
-63 4 -32 5 -60 3 -62 -2 -3 -42 7 -89 21 -124 36 -181 52 -213 60 -28 7 -28
7 -24 76 4 82 12 89 87 86 31 -1 56 3 58 9 2 6 -42 12 -124 16 -70 3 -138 9
-150 13 -20 6 -23 3 -23 -24z m65 -12 c-27 -12 -35 -12 -35 0 0 6 12 10 28 9
24 0 25 -1 7 -9z m55 -94 c0 -33 4 -66 8 -72 4 -6 68 -28 142 -49 74 -21 139
-42 145 -47 5 -4 -11 -8 -35 -8 -25 0 -74 -5 -109 -10 -35 -5 -111 -12 -169
-16 l-105 -7 5 115 c3 63 10 123 16 134 13 24 73 45 90 31 7 -6 12 -34 12 -71z
m-133 12 c-3 -8 -6 -5 -6 6 -1 11 2 17 5 13 3 -3 4 -12 1 -19z"/>
<path d="M290 1190 c0 -17 -41 -33 -53 -21 -22 22 -33 10 -43 -47 -11 -57 -87
-268 -125 -346 -10 -22 -19 -47 -19 -56 0 -9 -5 -21 -11 -27 -19 -19 8 -25 39
-9 80 41 243 90 407 121 44 8 123 24 175 35 131 29 281 51 293 43 5 -3 7 -27
4 -55 -8 -61 10 -61 29 0 6 24 19 54 28 68 18 27 14 46 -9 37 -21 -7 -19 15 5
62 25 50 12 65 -30 35 -22 -15 -29 -27 -25 -39 14 -35 18 -84 7 -77 -6 4 -62
15 -124 26 -184 30 -339 60 -397 77 -53 15 -54 15 -71 -8 -17 -22 -18 -22 -35
52 -9 41 -17 89 -16 107 0 22 -4 32 -14 32 -8 0 -15 -4 -15 -10z m6 -102 c14
-28 49 -144 74 -245 l8 -32 -67 -15 c-66 -15 -186 -36 -207 -36 -20 0 91 267
143 347 18 27 27 23 49 -19z m121 -94 c-3 -3 -12 -4 -19 -1 -8 3 -5 6 6 6 11
1 17 -2 13 -5z m178 -39 c127 -19 267 -44 272 -49 5 -4 -40 -12 -122 -22 -27
-3 -88 -14 -135 -24 -151 -32 -201 -42 -204 -38 -10 11 -45 132 -40 139 8 13
117 10 229 -6z m-485 -225 c-8 -5 -19 -10 -25 -10 -5 0 -3 5 5 10 8 5 20 10
25 10 6 0 3 -5 -5 -10z"/>
<path d="M65 559 c-10 -27 -10 -64 0 -63 6 1 20 5 32 8 20 6 22 3 27 -56 16
-188 16 -218 1 -218 -8 0 -15 -7 -15 -16 0 -8 4 -12 10 -9 6 4 10 -21 10 -68
0 -40 2 -76 5 -79 3 -3 23 3 44 14 22 11 50 21 63 22 12 2 34 8 48 13 23 10
242 43 383 59 40 5 57 11 57 21 0 11 -8 13 -27 9 -16 -3 -68 -10 -118 -16 -49
-6 -103 -12 -120 -14 -16 -3 -55 -7 -85 -11 -30 -3 -65 -8 -77 -11 -22 -4 -22
-3 -18 113 2 64 10 149 17 190 l12 73 58 0 c43 0 58 4 58 14 0 11 -32 15 -148
19 -81 4 -162 9 -179 13 -23 4 -34 2 -38 -7z m193 -231 l2 -188 -45 0 c-25 0
-48 -1 -51 -2 -11 -5 -5 312 6 348 11 33 15 35 48 32 l37 -3 3 -187z m-71
-224 c-3 -3 -12 -4 -19 -1 -8 3 -5 6 6 6 11 1 17 -2 13 -5z"/>
<path d="M859 331 c-23 -18 -24 -24 -21 -118 4 -116 -10 -118 -34 -3 -8 41
-17 76 -20 79 -5 6 -54 -47 -54 -59 0 -6 15 -29 33 -53 18 -24 39 -58 46 -75
8 -19 21 -32 31 -32 14 0 19 12 24 63 9 80 36 187 47 187 5 0 9 7 9 15 0 21
-33 19 -61 -4z m8 -63 c-3 -7 -5 -2 -5 12 0 14 2 19 5 13 2 -7 2 -19 0 -25z"/>
<path d="M339 313 c-5 -13 -9 -28 -9 -32 0 -4 51 -8 113 -9 61 0 147 -4 190
-7 46 -4 77 -3 77 2 0 15 -67 32 -150 38 -41 4 -106 12 -143 19 -69 13 -69 13
-78 -11z"/>
</g>
</svg>
