<?xml version="1.0" standalone="no"?>
<!DOCTYPE svg PUBLIC "-//W3C//DTD SVG 20010904//EN"
 "http://www.w3.org/TR/2001/REC-SVG-20010904/DTD/svg10.dtd">
<svg version="1.0" xmlns="http://www.w3.org/2000/svg"
 width="116.000000pt" height="46.000000pt" viewBox="0 0 116.000000 46.000000"
 preserveAspectRatio="xMidYMid meet">
<metadata>
Created by potrace 1.16, written by Peter Selinger 2001-2019
</metadata>
<g transform="translate(0.000000,46.000000) scale(0.100000,-0.100000)"
fill="#000000" stroke="none">
<path d="M770 411 c-37 -6 -41 -17 -26 -75 l7 -29 -73 6 c-40 3 -80 7 -88 9
-15 3 -26 -32 -16 -57 4 -11 11 -11 43 0 21 7 59 15 86 18 l47 7 0 -32 c0 -18
-7 -36 -17 -44 -15 -10 -16 -15 -5 -25 18 -19 15 -38 -5 -34 -10 2 -46 6 -80
9 l-63 6 0 -35 c0 -40 4 -41 53 -20 20 8 52 15 72 15 35 0 36 -1 33 -35 -2
-19 2 -35 7 -37 6 -2 11 14 13 35 2 25 8 37 18 37 11 0 14 -8 12 -27 -2 -15 2
-28 10 -30 8 -3 12 6 12 26 0 17 5 31 10 31 6 0 10 -16 10 -36 0 -21 4 -33 10
-29 6 3 10 19 10 36 0 18 5 29 14 29 8 0 14 -6 13 -13 -2 -53 20 -67 25 -14 3
31 4 32 56 35 50 3 52 2 52 -22 0 -17 6 -26 16 -26 11 0 15 6 11 19 -2 11 0
39 5 63 5 23 10 75 12 113 1 39 6 80 10 92 8 22 6 23 -25 17 -44 -9 -43 -7
-25 -42 8 -16 12 -32 9 -36 -4 -3 -33 -6 -65 -6 -52 0 -59 2 -55 18 3 9 8 34
12 55 l6 37 -58 -1 c-32 -1 -74 -4 -93 -8z m30 -67 c0 -24 -5 -34 -15 -34 -15
0 -20 35 -9 64 10 25 24 8 24 -30z m40 1 c0 -19 -4 -35 -10 -35 -5 0 -10 16
-10 35 0 19 5 35 10 35 6 0 10 -16 10 -35z m42 -22 c-2 -7 -8 -13 -13 -13 -11
0 -12 54 -2 64 9 9 22 -34 15 -51z m-80 -68 c3 -29 1 -35 -14 -35 -14 0 -18 8
-18 35 0 23 5 35 14 35 8 0 15 -14 18 -35z m38 4 c0 -17 4 -28 10 -24 6 3 10
15 10 26 0 10 5 19 10 19 6 0 10 -11 10 -24 0 -23 -32 -42 -52 -30 -12 7 -10
64 2 64 6 0 10 -14 10 -31z m174 25 c21 -8 21 -40 0 -48 -11 -4 -14 -14 -9
-35 5 -26 3 -29 -26 -35 -17 -3 -43 -6 -56 -6 -23 0 -25 3 -19 34 4 21 2 36
-4 38 -8 2 -8 11 -1 31 9 24 16 27 55 27 24 0 51 -3 60 -6z m-224 -120 c0 -14
-12 -19 -23 -8 -9 9 4 35 14 28 5 -3 9 -12 9 -20z m40 6 c0 -11 -4 -20 -10
-20 -5 0 -10 9 -10 20 0 11 5 20 10 20 6 0 10 -9 10 -20z m43 5 c4 -8 2 -17
-2 -20 -5 -2 -11 4 -14 15 -6 23 8 27 16 5z"/>
<path d="M321 359 c-18 -29 -19 -30 -26 -10 -8 26 -17 26 -41 0 -19 -21 -19
-21 9 -43 30 -24 35 -47 12 -66 -12 -10 -17 -5 -30 25 -8 21 -15 48 -15 61 0
33 -18 39 -32 10 -9 -21 -8 -29 5 -44 19 -20 23 -52 7 -52 -13 0 -27 29 -35
74 l-8 38 -25 -26 c-25 -25 -25 -26 -7 -46 13 -14 15 -24 8 -31 -15 -15 -42
25 -50 74 -6 39 -20 49 -29 20 -3 -10 -10 -26 -15 -36 -9 -17 -3 -26 46 -61
19 -14 19 -15 1 -35 -11 -12 -25 -21 -33 -21 -20 0 -16 -16 12 -46 l25 -26 10
26 c5 15 10 34 10 42 0 8 4 14 8 14 17 0 21 -13 9 -31 -9 -15 -8 -21 8 -33 26
-20 35 -20 35 0 0 19 40 94 51 94 19 0 15 -33 -6 -59 -29 -34 -30 -38 -10 -57
18 -19 35 -10 35 18 0 24 49 118 62 118 5 0 14 -11 20 -25 10 -22 8 -27 -15
-46 -32 -24 -33 -36 -8 -66 27 -32 38 -29 39 12 1 37 40 101 86 144 14 14 26
28 26 33 0 18 -30 6 -49 -19 -20 -27 -21 -28 -36 -9 -9 11 -15 40 -15 68 0 56
-12 61 -39 17z m19 -74 c12 -19 20 -41 17 -48 -3 -10 -47 61 -47 78 0 12 10 3
30 -30z m-161 -82 c-14 -16 -29 -8 -29 16 0 27 13 34 27 15 9 -13 10 -21 2
-31z"/>
</g>
</svg>
