<?xml version="1.0" standalone="no"?>
<!DOCTYPE svg PUBLIC "-//W3C//DTD SVG 20010904//EN"
 "http://www.w3.org/TR/2001/REC-SVG-20010904/DTD/svg10.dtd">
<svg version="1.0" xmlns="http://www.w3.org/2000/svg"
 width="85.000000pt" height="107.000000pt" viewBox="0 0 85.000000 107.000000"
 preserveAspectRatio="xMidYMid meet">
<metadata>
Created by potrace 1.16, written by Peter Selinger 2001-2019
</metadata>
<g transform="translate(0.000000,107.000000) scale(0.100000,-0.100000)"
fill="#000000" stroke="none">
<path d="M684 1023 c6 -19 -7 -25 -146 -72 l-153 -51 3 -32 c1 -17 5 -34 7
-36 2 -3 18 8 36 22 47 40 231 126 268 126 16 0 30 -85 34 -211 l5 -126 -50
19 c-75 28 -189 86 -227 115 l-34 26 -19 -23 c-20 -25 -20 -57 1 -52 21 4 113
-24 229 -72 62 -25 115 -46 117 -46 3 0 4 95 4 210 -2 186 -3 210 -18 210 -9
0 -27 3 -40 7 -20 5 -22 3 -17 -14z m43 -35 c-3 -8 -6 -5 -6 6 -1 11 2 17 5
13 3 -3 4 -12 1 -19z m-287 -102 c0 -2 -7 -7 -16 -10 -8 -3 -12 -2 -9 4 6 10
25 14 25 6z m5 -126 c3 -5 -1 -10 -9 -10 -9 0 -16 5 -16 10 0 6 4 10 9 10 6 0
13 -4 16 -10z"/>
<path d="M302 965 l-20 -25 32 -59 c28 -55 30 -62 15 -76 -14 -14 -17 -11 -39
32 -13 26 -26 60 -29 77 -8 38 -23 43 -37 12 -10 -21 -8 -29 18 -56 27 -30 28
-33 11 -46 -24 -18 -34 -17 -27 1 4 8 1 15 -4 15 -12 0 -34 68 -26 81 2 4 -1
11 -7 15 -6 4 -16 -1 -21 -10 -5 -9 -14 -14 -19 -10 -11 6 -49 -23 -49 -38 0
-6 10 -18 22 -27 14 -12 19 -24 15 -36 -11 -27 -36 0 -43 46 -7 44 -14 47 -37
21 -23 -25 -21 -37 8 -56 32 -21 32 -50 0 -64 -25 -11 -25 -13 -9 -37 17 -25
34 -25 34 1 0 23 17 16 24 -11 8 -31 22 -32 29 -3 6 21 7 21 25 5 22 -20 32
-22 32 -4 0 6 17 34 37 61 34 47 36 48 50 30 12 -17 11 -21 -8 -37 -12 -10
-29 -22 -38 -26 -12 -8 -13 -14 -3 -35 13 -30 28 -34 36 -8 4 9 21 35 40 57
29 34 36 38 50 26 22 -19 21 0 -4 67 -11 29 -20 72 -20 97 0 51 -10 56 -38 20z
m-132 -111 c0 -8 -4 -12 -10 -9 -5 3 -10 10 -10 16 0 5 5 9 10 9 6 0 10 -7 10
-16z m20 -29 c0 -8 -4 -15 -10 -15 -5 0 -7 7 -4 15 4 8 8 15 10 15 2 0 4 -7 4
-15z m-35 -44 c-3 -6 -11 -11 -17 -11 -6 0 -6 6 2 15 14 17 26 13 15 -4z m45
-6 c-7 -9 -15 -13 -18 -10 -3 2 1 11 8 20 7 9 15 13 18 10 3 -2 -1 -11 -8 -20z"/>
<path d="M620 911 c-25 -15 -51 -35 -59 -44 -17 -21 -30 -21 -53 0 -13 12 -22
13 -29 6 -8 -8 -4 -15 12 -26 19 -14 20 -19 9 -32 -18 -21 -7 -29 19 -13 15 9
26 10 39 2 81 -50 111 -64 117 -55 3 6 -15 23 -40 38 -85 51 -84 45 -16 97 33
26 61 49 61 52 0 9 -17 2 -60 -25z"/>
<path d="M278 467 c-16 -6 -28 -13 -28 -17 0 -5 39 -53 93 -114 15 -17 27 -34
27 -39 0 -15 -61 -97 -81 -110 -24 -15 -24 -29 1 -52 24 -22 32 -15 48 41 7
22 25 58 40 80 l28 39 -32 43 c-18 23 -36 59 -39 80 -12 69 -10 68 -57 49z
m32 -42 c0 -8 -2 -15 -4 -15 -2 0 -6 7 -10 15 -3 8 -1 15 4 15 6 0 10 -7 10
-15z"/>
<path d="M700 463 c-8 -3 -66 -25 -127 -49 -62 -24 -122 -44 -133 -44 -26 0
-35 -22 -21 -48 9 -17 6 -26 -15 -52 -15 -17 -24 -33 -22 -36 3 -2 32 -14 64
-25 32 -11 70 -29 84 -39 57 -41 213 -129 219 -125 4 2 4 35 -1 72 -9 73 -2
169 13 178 18 11 9 27 -12 22 -20 -5 -21 -3 -17 56 3 34 8 70 13 80 5 13 3 17
-11 16 -11 0 -26 -3 -34 -6z m14 -38 c-4 -8 -8 -15 -10 -15 -2 0 -4 7 -4 15 0
8 4 15 10 15 5 0 7 -7 4 -15z m-30 -30 c25 -38 32 -85 13 -85 -25 0 -26 -23
-1 -65 25 -44 37 -162 16 -158 -27 6 -212 134 -212 147 0 15 26 46 39 46 4 0
25 -13 47 -30 21 -16 45 -30 52 -30 22 0 13 18 -20 39 -18 11 -51 38 -72 60
l-39 40 49 21 c27 11 58 24 69 29 32 15 42 13 59 -14z m-219 -55 c-3 -5 -10
-10 -16 -10 -5 0 -9 5 -9 10 0 6 7 10 16 10 8 0 12 -4 9 -10z m34 -41 c9 -4 5
-11 -14 -23 -36 -24 -58 -6 -30 24 10 11 21 17 24 12 3 -5 12 -11 20 -13z
m226 -18 c3 -5 1 -12 -5 -16 -5 -3 -10 1 -10 9 0 18 6 21 15 7z"/>
<path d="M613 338 c-52 -24 -47 -44 5 -22 42 17 57 30 45 37 -4 3 -27 -4 -50
-15z"/>
<path d="M204 384 c-5 -18 -1 -31 15 -48 24 -26 27 -46 7 -46 -13 0 -32 36
-38 75 -5 28 -21 25 -32 -7 -8 -24 -6 -32 17 -56 27 -28 34 -42 20 -42 -15 0
-53 67 -53 93 0 36 -15 41 -34 12 -22 -34 -20 -50 11 -70 l26 -18 -26 -14
c-28 -14 -34 -37 -17 -63 8 -13 11 -12 23 4 14 19 15 19 26 -2 13 -25 31 -29
31 -8 0 8 8 23 18 35 13 16 21 18 32 11 13 -9 13 -12 -2 -20 -15 -9 -15 -13
-1 -41 l16 -32 12 29 c7 16 28 44 49 61 37 33 46 57 23 66 -7 3 -24 27 -38 53
-13 27 -25 51 -27 53 -1 3 -9 -4 -17 -15 -13 -17 -14 -17 -15 -1 0 26 -19 20
-26 -9z m106 -98 c0 -6 -12 -19 -26 -30 -29 -21 -51 -9 -40 21 6 15 9 15 16 3
20 -33 20 1 0 42 l-22 43 36 -34 c20 -19 36 -40 36 -45z"/>
</g>
</svg>
