<?xml version="1.0" standalone="no"?>
<!DOCTYPE svg PUBLIC "-//W3C//DTD SVG 20010904//EN"
 "http://www.w3.org/TR/2001/REC-SVG-20010904/DTD/svg10.dtd">
<svg version="1.0" xmlns="http://www.w3.org/2000/svg"
 width="70.000000pt" height="58.000000pt" viewBox="0 0 70.000000 58.000000"
 preserveAspectRatio="xMidYMid meet">
<metadata>
Created by potrace 1.16, written by Peter Selinger 2001-2019
</metadata>
<g transform="translate(0.000000,58.000000) scale(0.100000,-0.100000)"
fill="#000000" stroke="none">
<path d="M116 535 c-5 -18 -15 -27 -36 -32 -17 -3 -32 -9 -35 -12 -2 -4 5 -56
15 -116 11 -61 20 -141 20 -178 0 -52 5 -77 22 -107 13 -22 26 -40 30 -40 4 0
15 15 24 33 21 39 87 132 122 169 42 45 16 44 -29 -1 -23 -23 -63 -60 -90 -82
l-47 -40 -8 57 c-6 54 2 254 12 263 10 10 112 -47 146 -81 l37 -38 -37 0 c-20
0 -58 7 -84 14 -25 8 -49 12 -52 9 -3 -4 -6 -22 -6 -41 0 -34 1 -34 33 -28 17
4 62 12 99 19 36 7 68 15 70 19 1 4 -30 44 -71 88 -40 44 -83 93 -94 108 -11
15 -24 31 -27 35 -4 5 -10 -3 -14 -18z m42 -54 l22 -30 -30 11 c-33 11 -32 10
-24 32 8 20 7 21 32 -13z m-69 -58 c-1 -59 -7 -52 -22 25 -5 24 -3 32 8 32 12
0 15 -13 14 -57z m104 -104 c7 0 -1 -5 -17 -10 -33 -9 -42 -6 -31 11 4 6 14 9
22 6 8 -3 20 -6 26 -7z m-40 -199 c-16 -28 -33 -39 -33 -23 0 7 41 53 47 53 2
0 -4 -13 -14 -30z"/>
<path d="M494 503 c10 -35 35 -229 41 -330 13 -196 25 -118 38 245 l4 102 -44
0 c-38 0 -44 -3 -39 -17z m55 -110 c-1 -105 -2 -106 -10 -43 -4 36 -10 84 -13
108 -4 33 -2 42 9 42 12 0 15 -19 14 -107z"/>
<path d="M368 437 c-16 -13 -28 -26 -28 -30 0 -4 24 -42 54 -85 30 -43 67
-104 82 -135 16 -31 32 -57 36 -57 13 0 9 16 -20 77 -15 32 -41 102 -57 155
-17 54 -32 98 -35 98 -3 -1 -17 -11 -32 -23z m44 -67 c9 -28 15 -50 13 -50
-11 0 -56 74 -51 85 10 26 21 16 38 -35z"/>
</g>
</svg>
