<?xml version="1.0" standalone="no"?>
<!DOCTYPE svg PUBLIC "-//W3C//DTD SVG 20010904//EN"
 "http://www.w3.org/TR/2001/REC-SVG-20010904/DTD/svg10.dtd">
<svg version="1.0" xmlns="http://www.w3.org/2000/svg"
 width="121.000000pt" height="270.000000pt" viewBox="0 0 121.000000 270.000000"
 preserveAspectRatio="xMidYMid meet">
<metadata>
Created by potrace 1.16, written by Peter Selinger 2001-2019
</metadata>
<g transform="translate(0.000000,270.000000) scale(0.100000,-0.100000)"
fill="#000000" stroke="none">
<path d="M542 2665 c-10 -12 -11 -47 -6 -152 l6 -136 -164 6 c-89 3 -170 7
-178 9 -10 2 -15 -6 -15 -25 -1 -27 1 -28 30 -22 16 4 97 9 178 12 l148 5 -2
-106 c-1 -59 1 -109 3 -112 3 -3 21 4 40 16 31 18 54 20 221 23 l185 2 6 35
c3 19 5 100 6 179 0 134 2 148 25 192 13 27 21 50 16 53 -5 3 -14 -8 -21 -24
-18 -43 -34 -50 -28 -11 4 30 4 31 -36 31 -23 1 -80 2 -128 3 -49 2 -88 -1
-88 -5 0 -4 51 -8 114 -8 111 0 114 -1 120 -23 8 -33 6 -396 -2 -400 -4 -2
-24 -2 -45 1 l-38 4 1 192 c0 105 1 197 0 204 0 7 -4 10 -10 7 -6 -4 -10 -83
-10 -205 0 -192 -1 -199 -21 -205 -11 -4 -23 -5 -25 -2 -5 5 -11 170 -13 330
-1 47 -5 77 -12 77 -7 0 -9 -63 -7 -202 l3 -203 -35 0 -35 0 -2 203 c-1 111
-6 201 -10 200 -4 -2 -9 -86 -10 -188 -1 -102 -2 -193 -2 -203 -1 -14 -8 -18
-28 -15 -16 2 -30 8 -33 15 -3 7 -4 102 -2 213 l3 200 32 0 c68 0 59 17 -16
28 -40 6 -80 14 -88 16 -8 3 -20 -1 -27 -9z m56 -16 c14 0 13 -2 -3 -9 -31
-13 -45 -11 -45 6 0 11 5 14 16 10 9 -3 23 -6 32 -7z m21 -235 l-1 -205 -27 3
-26 3 -1 150 c-1 175 14 255 47 255 5 0 9 -90 8 -206z m-56 176 c-3 -11 -7
-20 -9 -20 -2 0 -4 9 -4 20 0 11 4 20 9 20 5 0 7 -9 4 -20z m22 -410 c-3 -5
-10 -10 -16 -10 -5 0 -9 5 -9 10 0 6 7 10 16 10 8 0 12 -4 9 -10z"/>
<path d="M189 2519 c-1 -2 -3 -17 -5 -33 -3 -26 -1 -28 24 -21 15 4 90 10 167
14 77 4 133 10 125 13 -8 3 -71 9 -140 12 -69 3 -135 8 -147 12 -13 3 -24 5
-24 3z"/>
<path d="M1066 2241 c-8 -12 5 -71 15 -71 12 0 23 46 15 65 -6 17 -22 20 -30
6z"/>
<path d="M386 1912 c-2 -4 -2 -20 1 -35 5 -25 8 -27 39 -21 l34 6 0 -61 0 -61
-78 0 c-44 0 -100 6 -125 14 -51 15 -54 14 -57 -24 -3 -38 -1 -41 19 -31 11 6
69 13 129 15 l110 5 7 -39 c10 -62 6 -64 -119 -57 -61 4 -121 10 -133 13 -21
6 -23 3 -23 -30 0 -41 -1 -41 62 -22 38 12 143 20 206 17 9 -1 12 -17 10 -58
l-3 -57 -47 3 c-48 2 -48 2 -48 -28 0 -36 9 -38 72 -17 47 15 158 32 285 42
l82 6 5 62 c3 33 5 108 4 166 -2 84 1 111 15 137 9 18 17 34 17 38 0 3 -89 5
-198 5 -108 0 -212 4 -229 9 -18 5 -35 6 -37 3z m64 -27 c0 -1 -9 -5 -20 -8
-12 -3 -20 0 -20 8 0 8 8 11 20 8 11 -3 20 -7 20 -8z m370 -14 c0 -11 -4 -23
-10 -26 -6 -4 -10 5 -10 19 0 14 5 26 10 26 6 0 10 -9 10 -19z m-40 -16 c13
-34 22 -283 12 -320 -5 -16 -15 -30 -23 -30 -11 0 -14 30 -15 170 -1 94 -5
171 -10 172 -5 2 -9 -73 -9 -170 l0 -172 -26 -3 c-21 -3 -28 2 -33 23 -4 14
-4 42 0 61 7 39 -5 288 -14 280 -3 -3 -4 -86 -3 -185 l2 -178 -23 -7 c-60 -16
-61 -14 -55 87 7 109 -4 269 -18 265 -5 -2 -9 -10 -8 -18 5 -30 9 -283 5 -311
-4 -25 -8 -29 -38 -29 l-34 0 0 50 c0 28 -1 53 -2 58 -2 4 13 9 32 11 l35 3
-34 12 c-30 11 -35 17 -38 54 l-4 42 38 1 38 2 -35 6 -35 6 -3 67 -3 67 38 4
c21 2 86 4 146 5 106 2 108 2 117 -23z m-535 -125 c3 -5 -1 -10 -9 -10 -9 0
-16 5 -16 10 0 6 4 10 9 10 6 0 13 -4 16 -10z m-2 -127 c-7 -2 -19 -2 -25 0
-7 3 -2 5 12 5 14 0 19 -2 13 -5z m167 -143 c0 -5 -2 -10 -4 -10 -3 0 -8 5
-11 10 -3 6 -1 10 4 10 6 0 11 -4 11 -10z"/>
<path d="M1046 1551 c-8 -13 5 -71 16 -71 12 0 26 41 20 62 -5 19 -27 24 -36
9z"/>
<path d="M524 1255 c-12 -30 8 -34 172 -34 91 0 169 -3 172 -6 4 -4 8 -101 10
-216 l3 -209 -118 0 -118 0 5 67 5 68 40 0 40 0 5 -60 c7 -80 17 -59 19 40 1
44 6 124 11 179 6 54 7 102 4 107 -14 24 -24 3 -24 -52 l0 -60 -47 3 -46 3 -1
54 c-1 37 -5 56 -15 59 -11 4 -13 -6 -8 -51 5 -55 5 -55 -25 -61 -53 -10 -98
-7 -98 7 0 8 6 35 14 60 7 25 11 48 8 51 -6 7 -72 8 -72 1 0 -2 7 -30 15 -61
8 -32 13 -60 10 -62 -6 -7 -177 -8 -245 -2 l-55 4 0 -29 c0 -18 5 -29 12 -28
7 2 57 7 110 13 54 5 117 12 141 15 l42 5 0 -57 0 -56 -149 7 c-157 7 -168 4
-156 -35 6 -18 12 -20 44 -15 20 3 87 9 149 12 l112 7 0 -51 c0 -28 5 -54 10
-57 6 -4 10 15 10 49 0 38 4 56 13 57 6 0 34 1 60 2 l48 3 -3 -70 -3 -70 -62
3 c-55 2 -62 0 -68 -19 -11 -34 7 -43 46 -23 27 14 67 18 197 21 l162 4 0 162
c0 103 6 186 15 230 8 38 13 71 11 73 -2 3 -80 6 -172 7 -95 2 -181 8 -197 14
-22 10 -29 9 -33 -3z m-27 -87 c-3 -8 -6 -5 -6 6 -1 11 2 17 5 13 3 -3 4 -12
1 -19z m246 -171 l-6 -57 -43 0 -44 0 0 59 0 60 43 3 c23 2 45 1 49 -2 4 -3 4
-31 1 -63z m-500 56 c-7 -2 -21 -2 -30 0 -10 3 -4 5 12 5 17 0 24 -2 18 -5z
m387 -53 l0 -60 -60 0 -60 0 0 60 0 60 60 0 60 0 0 -60z m-370 -64 c0 -2 -11
-6 -25 -8 -14 -3 -25 -1 -25 3 0 5 11 9 25 9 14 0 25 -2 25 -4z"/>
<path d="M1043 810 c1 -31 5 -40 17 -38 22 5 21 72 -2 76 -14 3 -17 -4 -15
-38z"/>
<path d="M395 548 c2 -40 4 -75 4 -78 1 -2 8 5 16 17 25 36 78 46 248 46 86 0
160 -3 163 -6 12 -12 16 -139 9 -281 l-7 -146 -58 0 -59 0 -7 45 c-12 83 0
217 24 265 11 24 19 47 16 52 -5 7 -92 3 -100 -5 -1 -1 5 -29 14 -61 12 -45
13 -61 4 -64 -17 -5 -15 -22 3 -22 11 0 15 -12 15 -44 l0 -44 -247 2 c-284 2
-319 8 -321 56 0 17 -4 39 -7 50 -8 24 -7 24 41 4 l38 -16 -33 -14 c-18 -8
-30 -18 -26 -24 5 -8 15 -6 32 5 21 14 57 17 212 18 l186 2 6 -35 c6 -32 9
-27 13 17 2 17 17 30 41 36 15 4 13 5 -7 6 -33 1 -36 22 -13 78 19 44 19 43
-5 43 -12 0 -17 -5 -14 -13 2 -7 0 -24 -5 -38 -9 -24 -10 -24 -17 9 -4 19 -13
36 -21 39 -22 9 -26 -3 -10 -34 8 -15 17 -40 20 -54 l7 -26 -147 -5 c-149 -4
-208 3 -271 36 -17 9 -33 16 -37 16 -3 0 -5 -25 -5 -55 0 -42 -3 -55 -15 -55
-12 0 -15 -13 -15 -60 0 -60 8 -72 29 -46 26 31 108 40 344 38 l127 -2 0 -48
c0 -27 -2 -51 -6 -54 -10 -11 -77 11 -112 36 -41 29 -59 22 -42 -16 8 -18 9
-36 2 -61 -6 -22 -7 -39 -1 -43 5 -3 9 -1 9 4 0 5 24 19 53 32 44 19 76 23
217 27 91 3 166 6 167 7 2 1 6 70 9 152 7 147 25 252 58 327 l16 37 -36 0
c-19 0 -44 5 -55 10 -17 10 -19 7 -19 -25 l0 -35 -158 1 c-141 0 -163 2 -198
21 -21 11 -43 27 -47 34 -18 30 -25 11 -22 -58z m483 33 c11 -7 11 -16 -1 -56
-15 -54 -21 -51 -31 18 -7 48 1 58 32 38z m-418 -40 c0 -8 -23 -21 -36 -21 -2
0 -4 11 -4 25 0 23 2 24 20 15 11 -6 20 -15 20 -19z m244 -129 c-6 -28 -24
-46 -24 -24 0 4 -3 17 -6 29 -4 15 -1 22 13 25 24 6 24 6 17 -30z m-575 -185
c8 -11 5 -16 -14 -25 -23 -11 -25 -10 -25 13 0 27 21 33 39 12z m553 -72 c2
-25 0 -49 -4 -53 -4 -4 -28 -6 -53 -4 l-45 4 0 49 0 49 49 0 49 0 4 -45z
m-210 -65 c10 0 18 -4 18 -10 0 -5 -8 -10 -18 -10 -10 0 -23 -5 -30 -12 -9 -9
-12 -4 -12 22 0 26 3 31 12 22 7 -7 20 -12 30 -12z"/>
<path d="M1035 120 c-8 -13 14 -42 26 -34 5 3 9 14 9 25 0 20 -24 26 -35 9z"/>
</g>
</svg>
