<?xml version="1.0" standalone="no"?>
<!DOCTYPE svg PUBLIC "-//W3C//DTD SVG 20010904//EN"
 "http://www.w3.org/TR/2001/REC-SVG-20010904/DTD/svg10.dtd">
<svg version="1.0" xmlns="http://www.w3.org/2000/svg"
 width="127.000000pt" height="54.000000pt" viewBox="0 0 127.000000 54.000000"
 preserveAspectRatio="xMidYMid meet">
<metadata>
Created by potrace 1.16, written by Peter Selinger 2001-2019
</metadata>
<g transform="translate(0.000000,54.000000) scale(0.100000,-0.100000)"
fill="#000000" stroke="none">
<path d="M896 476 c-21 -18 -63 -45 -92 -60 -51 -26 -53 -29 -47 -59 7 -40 9
-42 26 -29 10 8 23 5 55 -14 37 -22 42 -29 42 -63 0 -20 -6 -45 -13 -55 -14
-19 -11 -86 4 -86 5 0 14 12 20 26 5 15 23 44 40 66 l31 38 41 -22 c23 -12 54
-33 68 -46 42 -38 45 -9 5 57 -20 32 -36 63 -36 69 0 6 20 28 45 50 41 36 57
62 37 62 -4 0 -26 -18 -47 -40 -21 -22 -43 -40 -47 -40 -13 0 -47 76 -59 130
-6 27 -16 50 -22 50 -7 -1 -29 -16 -51 -34z m77 -103 l35 -61 -24 -23 c-21
-20 -27 -21 -49 -9 -21 11 -25 20 -25 60 0 61 11 114 21 103 4 -4 23 -36 42
-70z m-81 10 c-2 -32 -6 -60 -8 -62 -7 -8 -74 31 -74 44 0 13 67 75 81 75 3 0
4 -26 1 -57z m148 -134 l21 -40 -40 23 c-37 21 -39 24 -24 40 9 10 18 18 19
18 2 0 13 -18 24 -41z m-116 15 c21 -8 20 -17 -4 -32 -18 -11 -20 -10 -20 13
0 27 1 28 24 19z"/>
<path d="M190 485 c-11 -13 -9 -21 17 -48 32 -33 83 -110 83 -125 0 -4 -16
-16 -36 -27 -33 -18 -37 -18 -62 -2 -26 16 -27 19 -25 102 1 83 0 86 -20 83
-16 -2 -21 -9 -18 -23 2 -11 5 -47 8 -79 4 -52 3 -58 -12 -52 -51 19 -65 18
-65 -3 0 -16 6 -21 24 -21 45 0 56 -10 56 -50 0 -25 -5 -40 -16 -44 -8 -3 -12
-10 -9 -16 4 -6 11 -8 16 -5 5 4 9 -22 9 -62 l0 -68 31 35 c17 19 46 54 66 78
19 23 40 42 45 42 16 0 149 -91 155 -106 6 -15 23 -19 23 -6 0 5 -25 47 -55
93 -30 46 -55 87 -55 91 0 4 27 38 60 77 84 96 66 103 -39 13 -25 -21 -60 -38
-65 -30 -19 24 -75 128 -77 142 -5 26 -23 30 -39 11z m164 -170 c-9 -14 -19
-23 -22 -20 -5 4 26 45 35 45 2 0 -4 -11 -13 -25z m-40 -34 c3 -4 -5 -18 -17
-29 -16 -15 -26 -18 -37 -11 -13 8 -11 12 10 29 28 22 36 24 44 11z m-114 -31
c0 -10 -31 -22 -38 -16 -2 3 -2 12 1 20 6 15 37 12 37 -4z m160 -33 c36 -60
36 -60 -4 -33 -20 13 -42 26 -48 28 -7 3 -6 11 3 26 8 12 16 22 19 22 3 0 16
-19 30 -43z m-106 5 c2 -4 -17 -32 -44 -62 l-49 -55 -1 47 c0 42 3 49 28 62
30 17 58 20 66 8z"/>
<path d="M1184 185 c-4 -8 -1 -22 6 -30 16 -19 40 -2 40 26 0 23 -38 26 -46 4z"/>
<path d="M566 181 c-8 -12 4 -71 14 -71 12 0 33 57 25 69 -8 13 -32 14 -39 2z"/>
<path d="M75 150 c3 -5 8 -10 11 -10 2 0 4 5 4 10 0 6 -5 10 -11 10 -5 0 -7
-4 -4 -10z"/>
</g>
</svg>
