<?xml version="1.0" standalone="no"?>
<!DOCTYPE svg PUBLIC "-//W3C//DTD SVG 20010904//EN"
 "http://www.w3.org/TR/2001/REC-SVG-20010904/DTD/svg10.dtd">
<svg version="1.0" xmlns="http://www.w3.org/2000/svg"
 width="132.000000pt" height="296.000000pt" viewBox="0 0 132.000000 296.000000"
 preserveAspectRatio="xMidYMid meet">
<metadata>
Created by potrace 1.16, written by Peter Selinger 2001-2019
</metadata>
<g transform="translate(0.000000,296.000000) scale(0.100000,-0.100000)"
fill="#000000" stroke="none">
<path d="M155 2835 c-3 -8 -7 -22 -10 -30 -4 -13 -13 -14 -42 -9 l-38 6 22
-20 c22 -22 27 -49 38 -212 2 -36 4 -68 4 -72 1 -5 6 -8 11 -8 6 0 10 12 11
28 l0 27 11 -25 c9 -24 10 -24 21 -6 20 33 79 96 110 118 l31 22 52 -59 c29
-32 61 -74 71 -92 17 -33 33 -43 33 -22 0 6 -15 38 -34 72 -19 34 -42 88 -52
120 -18 58 -38 73 -49 37 -6 -20 -77 -70 -154 -110 l-41 -20 -6 26 c-4 15 -1
57 5 94 12 65 14 68 44 74 18 3 173 10 345 16 172 5 317 12 322 15 12 7 28
-54 34 -128 l5 -58 -207 3 c-114 2 -214 6 -222 8 -11 4 -16 -5 -18 -32 -4 -43
-5 -43 81 -23 36 8 137 17 227 20 90 2 165 7 167 9 3 2 0 13 -5 23 -10 18 -1
143 13 191 7 21 6 22 -46 15 -95 -13 -660 -9 -697 4 -28 10 -34 10 -37 -2z
m50 -35 c-3 -5 -13 -10 -21 -10 -8 0 -14 5 -14 10 0 6 9 10 21 10 11 0 17 -4
14 -10z m705 -12 c0 -18 -2 -20 -9 -8 -6 8 -7 18 -5 22 9 14 14 9 14 -14z
m-531 -143 c1 -5 -6 -2 -15 7 -10 9 -13 21 -8 29 5 9 9 8 15 -7 4 -10 8 -23 8
-29z m126 -45 c3 -5 -3 -10 -15 -10 -12 0 -18 5 -15 10 3 6 10 10 15 10 5 0
12 -4 15 -10z m-315 -34 c0 -3 -4 -8 -10 -11 -5 -3 -10 -1 -10 4 0 6 5 11 10
11 6 0 10 -2 10 -4z"/>
<path d="M1046 2652 c-3 -5 -3 -25 1 -46 5 -30 8 -34 20 -24 16 13 14 70 -4
75 -6 2 -14 0 -17 -5z"/>
<path d="M935 2250 c-4 -6 -2 -17 4 -24 15 -18 41 -140 41 -193 l0 -41 -62 -5
c-92 -6 -379 -1 -405 7 -18 7 -22 3 -28 -24 -7 -31 -7 -31 -27 -13 -11 9 -29
37 -40 62 l-20 44 -36 -41 c-39 -42 -112 -95 -156 -112 l-26 -10 0 64 c0 105
7 124 49 136 53 15 235 28 242 18 4 -6 45 -5 102 1 53 6 159 11 237 11 77 0
140 4 140 9 0 10 -99 21 -199 21 -42 0 -116 7 -165 15 -93 15 -106 13 -106
-11 0 -8 -10 -15 -22 -15 -57 -4 -205 4 -225 12 -18 7 -28 4 -43 -11 -11 -11
-20 -25 -20 -31 0 -7 -10 -9 -24 -5 -29 7 -42 -7 -21 -24 18 -15 24 -51 27
-170 3 -91 16 -121 29 -68 l5 23 12 -22 c16 -29 30 -22 66 30 16 23 41 52 57
65 27 22 30 22 65 7 20 -8 65 -40 100 -70 42 -38 65 -52 70 -43 4 7 -7 24 -31
44 -33 28 -36 32 -19 37 49 14 139 26 239 31 61 4 138 9 173 13 l62 6 0 -56
c0 -31 5 -59 10 -62 6 -4 10 47 10 147 0 84 3 177 6 206 l7 52 -36 0 c-20 0
-39 -5 -42 -10z m51 -44 c0 -13 -4 -22 -8 -19 -11 6 -10 43 1 43 5 0 8 -11 7
-24z m-426 -56 c11 -7 5 -10 -22 -10 -21 0 -38 5 -38 10 0 13 40 13 60 0z
m-315 -20 c-28 -12 -47 -12 -40 0 3 6 18 10 33 9 24 0 25 -1 7 -9z m-65 -44
c0 -3 -4 -8 -10 -11 -5 -3 -10 -1 -10 4 0 6 5 11 10 11 6 0 10 -2 10 -4z m224
-92 c9 -22 8 -23 -14 -17 -21 5 -25 15 -13 26 11 11 20 8 27 -9z m136 -34
c-20 -13 -43 -13 -35 0 3 6 16 10 28 10 18 0 19 -2 7 -10z m-306 -75 c-7 -16
-24 -21 -24 -6 0 8 7 13 27 20 1 1 0 -6 -3 -14z"/>
<path d="M1135 1858 c13 -61 31 -60 37 2 2 19 -2 26 -20 28 -22 3 -23 1 -17
-30z"/>
<path d="M147 1669 c6 -20 4 -22 -27 -16 l-33 7 6 -37 c4 -21 9 -95 13 -165 4
-71 11 -128 16 -128 4 0 9 8 9 18 1 9 2 24 3 32 1 15 198 119 225 120 7 0 50
-36 95 -80 62 -60 85 -77 94 -68 7 7 87 13 242 16 l230 5 0 -67 c0 -37 4 -66
10 -66 6 0 10 29 10 68 1 98 9 243 16 275 5 25 3 27 -25 27 -26 0 -31 -4 -31
-23 0 -22 -3 -23 -52 -21 -169 10 -210 14 -271 27 l-69 14 -17 -28 -17 -28
-35 47 c-20 26 -38 55 -42 65 -9 23 -27 22 -27 -2 0 -11 -4 -23 -10 -26 -18
-11 -11 -42 13 -52 12 -6 61 -45 109 -87 48 -42 90 -76 93 -76 14 0 1 22 -41
66 l-47 49 208 3 c114 1 209 1 210 0 2 -2 5 -33 7 -70 l4 -68 -171 0 c-114 0
-190 5 -230 15 -76 18 -85 18 -85 0 0 -30 -18 -13 -90 85 l-74 100 -23 -22
c-13 -12 -22 -31 -21 -41 3 -16 -12 -24 -82 -48 -119 -39 -114 -41 -106 39 4
37 10 70 14 74 4 4 65 10 137 14 72 3 132 8 134 10 12 11 -18 20 -82 26 -66 6
-116 15 -174 33 -19 6 -21 4 -16 -16z m358 -60 c11 -17 -1 -21 -15 -4 -8 9 -8
15 -2 15 6 0 14 -5 17 -11z m142 -45 c-3 -3 -12 -4 -19 -1 -8 3 -5 6 6 6 11 1
17 -2 13 -5z m-262 -30 l16 -25 -25 16 c-14 10 -23 21 -20 26 8 13 10 12 29
-17z"/>
<path d="M1137 1324 c-7 -7 2 -65 13 -77 10 -11 34 49 26 68 -5 15 -27 20 -39
9z"/>
<path d="M145 1095 c-3 -8 -7 -22 -10 -30 -2 -8 -15 -15 -28 -15 l-23 0 4
-122 c2 -68 6 -125 9 -128 11 -12 23 30 23 81 0 34 8 76 21 107 25 59 22 58
212 68 70 4 127 10 127 15 0 4 -35 10 -77 13 -43 4 -111 11 -151 16 -95 13
-102 13 -107 -5z m85 -19 c0 -2 -13 -6 -30 -8 -16 -3 -30 -1 -30 4 0 4 14 8
30 8 17 0 30 -2 30 -4z m-100 -55 c0 -6 -4 -13 -10 -16 -5 -3 -10 1 -10 9 0 9
5 16 10 16 6 0 10 -4 10 -9z"/>
<path d="M539 1094 c-7 -9 -21 -19 -31 -23 -16 -6 -12 -13 27 -55 25 -27 45
-55 45 -63 0 -16 10 -16 98 -4 37 5 122 12 190 15 l122 6 0 -76 0 -76 -165 7
c-90 3 -178 10 -196 15 -17 5 -34 9 -38 8 -24 -3 -35 11 -66 78 -19 41 -35 84
-35 95 0 27 -17 24 -45 -8 l-24 -28 48 -50 c63 -65 81 -94 81 -126 0 -26 1
-26 43 -19 23 5 119 10 214 12 162 3 173 2 187 -17 9 -11 16 -18 17 -15 0 3 9
50 19 105 11 55 22 112 25 126 6 24 5 25 -29 21 -23 -3 -36 -10 -36 -19 0 -11
-21 -14 -117 -12 -130 2 -273 17 -287 30 -5 4 -10 25 -11 46 -3 42 -15 52 -36
27z m488 -126 c-3 -7 -5 -2 -5 12 0 14 2 19 5 13 2 -7 2 -19 0 -25z m-546 0
c11 -21 11 -22 -4 -9 -10 7 -17 17 -17 22 0 15 9 10 21 -13z m172 5 c-7 -2
-21 -2 -30 0 -10 3 -4 5 12 5 17 0 24 -2 18 -5z"/>
<path d="M329 986 c-68 -32 -104 -47 -151 -65 -23 -9 -28 -17 -28 -44 0 -19 3
-36 6 -40 4 -3 27 11 53 32 25 21 76 55 113 75 113 62 118 95 7 42z"/>
<path d="M1145 788 c9 -42 11 -44 30 -28 23 19 15 54 -13 58 -22 3 -23 1 -17
-30z"/>
<path d="M1040 583 c0 -5 9 -32 20 -61 11 -29 20 -57 20 -62 0 -22 -453 -9
-527 15 -18 6 -23 3 -23 -9 0 -14 -16 -16 -117 -16 -114 1 -218 10 -275 25
-21 5 -28 4 -28 -8 0 -17 -27 -31 -53 -28 -23 3 -33 -25 -16 -45 9 -11 14 -51
16 -122 1 -57 4 -106 6 -108 2 -2 21 13 43 32 50 46 261 147 291 139 24 -6 44
-26 128 -127 30 -37 54 -75 53 -85 -3 -41 3 -83 12 -83 6 0 10 16 10 37 0 35
0 36 20 18 19 -17 20 -17 20 0 0 10 -6 26 -14 34 -32 36 -24 55 29 73 40 14
88 17 248 18 l198 0 -3 -27 c-5 -43 20 -39 27 4 11 76 48 220 71 279 28 71 29
74 9 74 -8 0 -15 -4 -15 -9 0 -5 -13 -19 -29 -30 l-29 -21 -33 50 c-28 43 -59
66 -59 43z m86 -132 c2 -2 10 2 19 9 18 15 18 12 -4 -75 l-18 -70 -7 55 c-4
30 -9 71 -12 90 -4 31 -4 32 7 15 7 -11 13 -22 15 -24z m-608 -44 c-2 -11 3
-22 10 -24 6 -3 12 0 12 6 0 6 4 11 8 11 19 0 32 -56 32 -137 l0 -86 -49 62
c-27 34 -57 82 -67 107 -21 56 -21 56 -191 -26 -67 -32 -135 -61 -152 -65
l-31 -7 1 54 c1 67 12 108 23 90 6 -11 11 -9 22 7 18 25 36 27 227 28 152 0
158 -1 155 -20z m568 11 c2 -4 7 -43 11 -87 l6 -81 -199 -1 c-205 -2 -296 0
-303 7 -2 1 2 31 9 66 7 35 12 73 12 86 l0 23 230 -2 c126 -2 231 -6 234 -11z"/>
<path d="M1230 230 c-12 -7 -12 -13 -4 -27 16 -26 39 -22 39 6 0 27 -13 35
-35 21z"/>
<path d="M0 10 c0 -7 227 -10 660 -10 433 0 660 3 660 10 0 7 -227 10 -660 10
-433 0 -660 -3 -660 -10z"/>
</g>
</svg>
