<?xml version="1.0" standalone="no"?>
<!DOCTYPE svg PUBLIC "-//W3C//DTD SVG 20010904//EN"
 "http://www.w3.org/TR/2001/REC-SVG-20010904/DTD/svg10.dtd">
<svg version="1.0" xmlns="http://www.w3.org/2000/svg"
 width="138.000000pt" height="276.000000pt" viewBox="0 0 138.000000 276.000000"
 preserveAspectRatio="xMidYMid meet">
<metadata>
Created by potrace 1.16, written by Peter Selinger 2001-2019
</metadata>
<g transform="translate(0.000000,276.000000) scale(0.100000,-0.100000)"
fill="#000000" stroke="none">
<path d="M960 2705 c-7 -8 -19 -15 -26 -15 -8 0 -14 -4 -14 -10 0 -13 -171
-99 -240 -120 -41 -13 -56 -23 -58 -39 -3 -20 -8 -21 -168 -21 -158 0 -164 1
-164 20 0 11 7 37 15 57 8 20 13 38 11 40 -2 2 -19 0 -37 -5 -26 -7 -33 -13
-31 -28 2 -10 6 -33 9 -50 l5 -31 -80 -2 c-47 -1 -83 3 -87 9 -3 5 -9 10 -13
10 -7 0 -3 -252 4 -259 2 -3 14 5 27 16 15 15 42 23 88 28 65 7 66 7 73 -19 9
-36 26 -33 26 4 0 45 26 50 244 54 l191 3 60 -50 c33 -27 61 -53 63 -58 2 -4
-6 -14 -17 -21 -20 -12 -29 -38 -13 -38 4 0 48 38 97 85 52 48 116 97 153 116
34 18 62 36 62 42 0 5 -24 40 -53 76 -97 120 -97 120 -97 172 0 51 -8 60 -30
34z m2 -82 c13 -16 35 -44 48 -63 13 -19 34 -47 48 -62 l25 -27 -37 -49 c-31
-43 -144 -151 -166 -160 -8 -3 -175 133 -198 160 -7 9 -14 31 -15 49 -2 28 4
37 39 60 37 26 212 117 225 119 3 0 17 -12 31 -27z m-692 -160 c0 -16 -10 -18
-77 -18 -49 0 -78 4 -80 12 -5 14 22 20 100 22 48 1 57 -2 57 -16z m353 2 c4
-8 2 -17 -3 -20 -16 -10 -11 -25 8 -25 11 0 32 -11 48 -25 l29 -25 -107 0
c-91 0 -107 2 -102 15 4 8 1 15 -5 15 -7 0 -14 -7 -17 -15 -5 -11 -23 -15 -76
-15 -79 0 -108 11 -108 43 0 45 64 62 251 65 59 2 78 -1 82 -13z m487 -31 c0
-9 -32 -33 -44 -34 -5 0 -1 9 9 20 18 20 35 26 35 14z m-840 -29 c0 -12 -16
-15 -80 -15 -44 0 -80 4 -80 9 0 12 30 18 103 20 45 1 57 -2 57 -14z m0 -56
c0 -17 -8 -19 -75 -19 -58 0 -75 3 -75 14 0 16 18 20 98 23 45 1 52 -1 52 -18z"/>
<path d="M823 2552 c-21 -28 -21 -29 -2 -45 32 -28 25 -36 -53 -61 -13 -4 -18
-16 -18 -41 0 -19 2 -35 5 -35 2 0 25 21 51 46 36 36 48 44 55 33 14 -23 11
-28 -30 -48 -32 -17 -38 -24 -34 -46 6 -26 33 -35 33 -10 0 8 12 26 27 39 l27
26 22 -28 c27 -33 42 -24 18 13 -9 15 -13 29 -8 34 5 4 27 20 48 36 50 36 31
46 -21 11 -21 -14 -43 -26 -50 -26 -26 0 -12 31 26 54 41 26 57 44 47 53 -3 3
-28 -11 -55 -30 -45 -33 -50 -34 -56 -17 -3 10 -3 30 1 44 8 34 -7 33 -33 -2z"/>
<path d="M1276 2342 c-8 -13 5 -82 15 -82 14 0 31 39 27 63 -3 22 -32 35 -42
19z"/>
<path d="M1049 2055 c-57 -29 -128 -61 -157 -70 -45 -15 -52 -21 -52 -43 l0
-25 -137 6 c-76 3 -148 9 -161 13 -18 5 -24 2 -28 -13 -4 -14 -14 -20 -37 -20
-18 0 -97 -3 -177 -5 -112 -4 -149 -2 -166 8 -28 19 -33 11 -20 -36 7 -27 15
-39 23 -35 7 3 20 8 28 11 11 5 13 2 9 -10 -3 -9 -1 -16 6 -16 21 0 40 -26 28
-38 -7 -7 -10 -13 -7 -15 2 -1 50 -1 107 1 110 4 132 21 29 23 l-62 2 75 11
c53 7 66 11 43 14 -49 5 -40 22 11 22 53 0 56 -7 56 -127 0 -83 16 -116 22
-46 4 47 17 51 210 61 141 7 148 6 157 -13 10 -20 10 -19 17 3 9 30 25 28 112
-13 73 -35 111 -39 62 -6 -14 9 -53 37 -88 64 -35 26 -65 47 -68 47 -2 0 -9
-10 -14 -22 -7 -20 -9 -17 -9 17 0 81 12 115 48 138 19 12 32 16 28 10 -5 -7
1 -17 13 -23 29 -15 25 -28 -15 -44 -19 -8 -35 -18 -35 -21 0 -4 13 -30 27
-54 2 -2 19 13 38 35 29 32 36 36 45 24 15 -23 13 -27 -20 -42 -26 -11 -30
-17 -25 -38 9 -36 12 -37 46 -4 26 25 32 27 39 13 5 -9 18 -27 29 -40 27 -32
28 -4 1 36 -11 17 -20 32 -20 35 0 3 21 19 45 35 25 17 45 36 45 43 0 18 -6
16 -57 -20 -44 -30 -47 -30 -60 -12 -15 20 -13 23 55 73 42 30 19 36 -27 7
-22 -14 -43 -26 -45 -26 -2 0 -9 14 -15 32 -13 36 -13 35 61 72 l47 24 30 -47
c33 -51 70 -129 71 -148 0 -22 -75 -137 -127 -194 -49 -52 -64 -79 -46 -79 4
0 46 40 93 89 47 48 105 105 130 125 l44 37 -26 24 c-15 14 -33 25 -41 25 -13
0 -47 95 -63 178 -4 18 -10 34 -13 36 -4 3 -54 -19 -112 -49z m101 16 c0 -5 3
-18 6 -28 5 -16 4 -16 -10 1 -18 23 -20 36 -6 36 6 0 10 -4 10 -9z m-570 -171
c-20 -13 -53 -13 -45 0 3 6 18 10 33 10 21 0 24 -2 12 -10z m249 -50 c22 -103
35 -95 -156 -92 -93 1 -173 4 -179 6 -8 3 -8 19 -1 55 6 27 14 48 19 45 5 -3
24 0 43 6 20 6 75 15 123 19 153 14 139 18 151 -39z m-669 20 c0 -5 -4 -10
-10 -10 -5 0 -10 5 -10 10 0 6 5 10 10 10 6 0 10 -4 10 -10z m290 -2 c0 -10
-34 -14 -127 -16 -70 -2 -125 -1 -122 3 4 3 48 9 100 14 140 12 149 12 149 -1z
m27 -25 c-3 -10 -5 -4 -5 12 0 17 2 24 5 18 2 -7 2 -21 0 -30z m758 -33 c-37
-38 -43 -32 -13 14 14 22 27 31 32 26 6 -6 -1 -21 -19 -40z m-942 13 c-13 -2
-33 -2 -45 0 -13 2 -3 4 22 4 25 0 35 -2 23 -4z m-26 -29 c-3 -3 -12 -4 -19
-1 -8 3 -5 6 6 6 11 1 17 -2 13 -5z m638 -24 c3 -5 1 -10 -4 -10 -6 0 -11 5
-11 10 0 6 2 10 4 10 3 0 8 -4 11 -10z"/>
<path d="M263 1752 c-40 -2 -53 -7 -53 -19 0 -13 7 -14 38 -9 20 3 70 6 110 6
39 0 72 4 72 9 0 11 -90 17 -167 13z"/>
<path d="M1284 1688 c4 -50 18 -59 35 -22 15 33 6 64 -20 64 -16 0 -18 -6 -15
-42z"/>
<path d="M959 1421 c-18 -26 -213 -95 -331 -118 -87 -17 -100 -26 -75 -52 10
-11 -11 -12 -118 -8 -72 3 -138 8 -147 12 -14 6 -18 2 -18 -19 0 -14 -4 -26
-9 -26 -5 0 -17 -3 -25 -6 -12 -4 -15 -2 -11 9 5 11 -5 16 -47 19 -29 3 -60 9
-69 12 -12 5 -21 -1 -32 -23 -15 -30 -8 -49 13 -36 6 3 10 -3 10 -13 0 -18 5
-20 59 -15 71 7 71 6 80 -131 4 -58 10 -91 19 -94 9 -3 12 13 12 56 0 59 1 61
33 71 17 5 79 11 137 13 l105 3 3 -50 c3 -67 10 -95 23 -95 8 0 9 20 4 65 l-7
65 51 -20 c62 -24 202 -94 253 -126 44 -28 48 -29 48 -10 0 8 -8 17 -18 20
-15 5 -20 23 -28 97 -5 50 -7 94 -4 99 3 4 24 13 48 20 24 8 42 19 42 28 0 12
-3 12 -15 2 -8 -7 -15 -10 -15 -7 0 3 -15 0 -34 -8 -37 -16 -46 -12 -46 20 0
21 26 35 108 61 14 4 17 24 3 24 -5 0 -28 -7 -51 -15 -58 -20 -60 -19 -53 15
6 33 -4 38 -40 19 -12 -7 -23 -13 -25 -14 -2 -2 3 -13 10 -24 17 -29 -1 -41
-64 -41 -64 0 -78 -7 -78 -41 0 -35 5 -36 67 -5 26 13 60 26 76 30 23 5 27 3
27 -14 0 -11 1 -23 3 -27 1 -5 -25 -13 -58 -18 -50 -9 -60 -14 -65 -35 l-6
-24 -42 38 -42 39 -25 -27 c-13 -14 -27 -26 -30 -26 -3 0 -5 28 -5 63 l1 62
80 38 c44 21 113 49 152 63 40 14 81 30 93 36 16 8 27 3 55 -24 42 -40 79 -91
79 -110 0 -19 27 -55 35 -46 4 3 -5 39 -20 80 -14 40 -31 95 -36 123 -11 60
-22 72 -40 46z m23 -72 c5 -30 5 -30 -15 -11 -11 11 -16 25 -13 31 12 20 24
12 28 -20z m-377 -89 c-3 -5 -10 -10 -16 -10 -5 0 -9 5 -9 10 0 6 7 10 16 10
8 0 12 -4 9 -10z m-117 -46 c26 -5 32 -13 42 -51 6 -25 9 -48 6 -51 -9 -9
-250 -14 -262 -5 -7 4 -9 22 -6 41 5 38 24 49 112 61 77 12 74 12 108 5z
m-290 -21 c-10 -2 -28 -2 -40 0 -13 2 -5 4 17 4 22 1 32 -1 23 -4z m646 -100
c2 -10 8 -47 11 -82 l7 -64 -28 21 c-16 11 -47 36 -69 55 l-40 34 50 26 c60
31 62 32 69 10z m-159 -38 l30 -26 -40 17 c-22 9 -48 18 -57 21 -21 6 -23 19
-5 26 15 5 33 -4 72 -38z"/>
<path d="M730 1240 c0 -5 5 -10 10 -10 6 0 10 5 10 10 0 6 -4 10 -10 10 -5 0
-10 -4 -10 -10z"/>
<path d="M1012 1105 c-3 -56 -16 -119 -43 -203 -12 -35 -19 -66 -16 -69 12
-12 25 10 42 68 14 53 58 145 99 211 13 22 6 29 -42 35 l-39 5 -1 -47z m40
-22 c-14 -30 -18 -33 -20 -15 -4 26 15 65 28 57 5 -3 2 -22 -8 -42z"/>
<path d="M107 1133 c-3 -5 -6 -31 -5 -58 0 -28 -4 -60 -7 -72 -6 -17 -3 -23 8
-23 9 0 18 4 21 9 3 5 28 14 56 21 59 14 67 33 13 29 -63 -3 -71 3 -20 15 53
12 60 33 10 28 -41 -4 -65 8 -37 19 10 4 32 8 47 8 18 1 27 6 25 14 -5 14
-103 23 -111 10z"/>
<path d="M1231 1011 c-9 -6 -11 -15 -6 -27 4 -11 7 -27 6 -38 -4 -27 22 -14
33 17 12 32 -9 62 -33 48z"/>
<path d="M1165 580 c-11 -5 -35 -9 -54 -9 -25 -1 -32 -5 -27 -16 3 -10 -15
-26 -62 -52 -37 -20 -93 -54 -125 -75 -32 -20 -74 -42 -93 -48 -19 -6 -34 -16
-34 -21 0 -5 -11 -9 -24 -9 -14 0 -28 -4 -31 -10 -7 -12 -255 -14 -255 -2 0 4
5 13 11 19 6 6 9 16 5 21 -7 12 -93 -11 -88 -23 7 -15 -22 -23 -104 -30 -67
-6 -82 -4 -93 9 -7 9 -17 13 -22 10 -9 -5 -13 -264 -4 -264 3 0 18 9 33 20 21
15 50 21 129 26 101 7 103 7 103 -14 0 -12 5 -22 10 -22 6 0 10 11 10 25 0 36
33 46 173 52 l117 6 0 -32 c0 -17 5 -31 10 -31 6 0 10 9 10 20 0 34 63 25 221
-34 80 -30 156 -57 170 -61 l24 -6 -4 229 c-3 213 -2 233 17 275 25 56 20 65
-23 47z m-1 -52 c-7 -26 -12 -33 -18 -27 -2 2 -7 14 -10 27 -6 18 -4 22 14 22
18 0 20 -4 14 -22z m-37 -40 c13 -27 17 -70 21 -231 l5 -198 -79 29 c-210 78
-197 71 -190 105 4 18 23 49 43 69 33 34 39 37 52 23 24 -23 -4 -57 -64 -78
-14 -5 15 -57 32 -57 7 0 13 9 13 19 0 11 11 33 24 48 l25 28 43 -43 c24 -23
47 -42 51 -42 17 0 4 21 -35 60 l-43 41 49 43 c27 24 47 49 44 57 -3 9 -20 -2
-55 -34 -48 -45 -51 -46 -67 -28 -16 17 -14 20 24 55 37 33 50 56 33 56 -4 0
-26 -18 -48 -40 -37 -36 -43 -39 -55 -25 -17 20 -15 76 2 86 7 5 42 26 78 48
36 21 68 40 72 40 4 1 15 -14 25 -31z m-234 -138 c7 0 23 -7 36 -16 l23 -17
-62 -59 c-50 -48 -64 -57 -76 -47 -11 9 -18 6 -34 -12 l-19 -24 0 55 c0 52 17
121 18 78 1 -23 31 -24 31 -1 0 9 12 30 27 45 23 24 28 26 36 13 4 -8 14 -15
20 -15z m-453 -4 c0 -3 -4 -8 -10 -11 -5 -3 -10 -1 -10 4 0 6 5 11 10 11 6 0
10 -2 10 -4z m-27 -39 c4 -10 -17 -17 -83 -25 -48 -7 -100 -12 -115 -12 -47 0
-10 30 39 31 22 0 61 4 86 8 66 12 67 12 73 -2z m54 -3 c-3 -3 -12 -4 -19 -1
-8 3 -5 6 6 6 11 1 17 -2 13 -5z m273 -52 l0 -49 -110 -6 c-135 -8 -168 -2
-181 30 -5 13 -9 30 -9 37 0 18 86 33 203 35 l97 1 0 -48z m-320 0 c0 -11
-202 -31 -214 -21 -14 13 57 25 157 28 31 0 57 -3 57 -7z m10 -41 c0 -13 -35
-20 -137 -27 -109 -8 -130 9 -30 24 82 13 167 14 167 3z m-5 -50 c-14 -12
-225 -23 -225 -11 0 8 42 12 185 18 28 1 45 -2 40 -7z"/>
<path d="M1270 105 c-11 -13 -11 -19 3 -33 20 -19 41 -5 35 24 -4 24 -22 28
-38 9z"/>
</g>
</svg>
