<?xml version="1.0" standalone="no"?>
<!DOCTYPE svg PUBLIC "-//W3C//DTD SVG 20010904//EN"
 "http://www.w3.org/TR/2001/REC-SVG-20010904/DTD/svg10.dtd">
<svg version="1.0" xmlns="http://www.w3.org/2000/svg"
 width="129.000000pt" height="134.000000pt" viewBox="0 0 129.000000 134.000000"
 preserveAspectRatio="xMidYMid meet">
<metadata>
Created by potrace 1.16, written by Peter Selinger 2001-2019
</metadata>
<g transform="translate(0.000000,134.000000) scale(0.100000,-0.100000)"
fill="#000000" stroke="none">
<path d="M1003 1261 c-51 -29 -62 -40 -58 -57 4 -18 -7 -26 -68 -56 -39 -19
-97 -41 -127 -48 -87 -20 -82 -17 -69 -41 11 -22 10 -22 -46 -16 -43 4 -55 3
-46 -6 6 -6 11 -14 11 -17 0 -9 -229 -22 -241 -14 -6 3 -4 15 5 29 9 13 12 26
8 28 -5 4 -64 2 -91 -2 -2 -1 2 -7 8 -15 6 -8 14 -36 18 -63 l5 -50 -106 -7
c-98 -7 -108 -6 -132 13 -15 12 -29 21 -33 21 -3 0 -6 -61 -6 -135 0 -74 3
-135 6 -135 4 0 21 14 37 30 30 30 32 30 136 30 88 0 106 -3 106 -15 0 -8 5
-15 10 -15 6 0 10 13 10 28 0 54 18 65 116 69 49 2 108 5 131 7 46 4 53 -6 53
-71 0 -18 5 -33 11 -33 7 0 8 30 4 98 -7 88 -5 103 15 150 23 54 34 63 44 37
3 -8 -6 -28 -19 -44 -31 -36 -31 -41 -2 -41 12 0 33 -7 45 -16 12 -8 33 -21
46 -28 36 -18 117 -119 105 -130 -12 -13 -12 -36 0 -36 5 0 30 42 56 93 51
100 86 144 122 153 30 8 29 28 -1 42 -25 11 -56 88 -56 137 0 31 20 85 42 118
32 45 17 47 -49 8z m3 -47 c-3 -9 -6 -21 -6 -27 0 -8 -3 -8 -11 0 -13 13 -5
43 12 43 6 0 8 -7 5 -16z m-15 -122 c15 -57 15 -68 3 -75 -8 -5 -12 -12 -9
-17 8 -14 -11 -79 -46 -156 -29 -65 -30 -67 -47 -48 -82 92 -146 195 -138 221
10 32 59 72 136 112 41 21 77 37 80 34 3 -2 12 -35 21 -71z m-237 -34 c-10
-13 -20 -25 -22 -28 -3 -5 -22 21 -22 32 0 6 18 11 54 17 5 0 1 -9 -10 -21z
m-94 -58 c-6 -11 -13 -20 -15 -20 -3 0 -5 9 -5 20 0 11 7 20 15 20 13 0 14 -4
5 -20z m-319 -43 c-8 -8 -11 -7 -11 4 0 20 13 34 18 19 3 -7 -1 -17 -7 -23z
m697 24 c10 -6 6 -12 -14 -26 -25 -16 -27 -16 -21 0 4 9 7 21 7 26 0 11 11 11
28 0z m-410 -68 l3 -63 -63 0 c-35 0 -93 -3 -129 -6 l-66 -7 -21 38 -22 37 34
34 35 35 113 -3 113 -3 3 -62z m142 3 c0 -3 -13 2 -30 10 -26 13 -28 18 -19
36 10 19 12 19 30 -11 10 -17 19 -33 19 -35z m-456 -37 c3 -17 6 -46 6 -64 l0
-32 -82 -6 c-110 -9 -140 -8 -157 2 -12 8 -12 12 -2 25 10 12 38 16 119 18 78
2 107 7 110 17 4 11 -15 12 -105 6 -89 -6 -111 -4 -121 8 -9 11 -8 17 6 30 13
12 43 17 112 20 52 1 98 4 101 5 4 1 9 -12 13 -29z"/>
<path d="M1124 896 c-3 -8 -2 -21 2 -28 5 -7 9 -19 9 -27 0 -8 5 -16 12 -18
14 -5 27 35 21 64 -4 23 -36 30 -44 9z"/>
<path d="M270 720 c0 -5 5 -10 10 -10 6 0 10 5 10 10 0 6 -4 10 -10 10 -5 0
-10 -4 -10 -10z"/>
<path d="M990 571 c-19 -4 -34 -12 -33 -18 3 -13 -215 -127 -274 -142 -25 -7
-43 -18 -43 -26 0 -23 -68 -35 -201 -35 -128 -1 -222 10 -259 30 -12 6 -24 9
-28 6 -6 -7 -12 -257 -6 -267 2 -3 30 1 63 10 33 8 63 12 66 9 4 -4 8 -23 8
-42 3 -67 22 -43 25 32 l3 72 117 0 c64 0 127 3 140 6 21 6 22 4 22 -55 0 -34
4 -61 10 -61 6 0 10 16 10 36 0 29 3 34 18 30 9 -2 73 -12 142 -21 203 -27
204 -28 210 -53 13 -55 25 -14 28 95 3 103 6 123 28 160 32 56 31 66 -6 58
-29 -6 -30 -6 -30 33 0 44 16 99 36 123 13 14 9 31 -5 28 -3 -1 -22 -5 -41 -8z
m7 -43 c-3 -8 -6 -5 -6 6 -1 11 2 17 5 13 3 -3 4 -12 1 -19z m-17 -70 c0 -37
-5 -54 -17 -64 -17 -12 -17 -14 -1 -41 19 -33 21 -44 19 -147 l-1 -79 -42 8
c-24 3 -86 13 -138 21 -199 30 -185 24 -186 65 -1 44 18 105 33 102 6 -1 31
15 54 37 24 22 71 54 103 72 33 18 82 45 110 60 27 15 53 25 58 22 4 -3 8 -28
8 -56z m40 -92 c0 -15 -14 -35 -21 -30 -15 9 -10 34 6 34 8 0 15 -2 15 -4z
m-835 -16 c3 -5 1 -10 -4 -10 -6 0 -11 5 -11 10 0 6 2 10 4 10 3 0 8 -4 11
-10z m90 -30 c8 -12 -42 -12 -70 0 -16 7 -11 9 22 9 23 1 45 -3 48 -9z m42
-22 c-3 -8 -6 -5 -6 6 -1 11 2 17 5 13 3 -3 4 -12 1 -19z m267 6 c3 -9 6 -28
6 -43 l0 -28 -92 -7 c-50 -3 -113 -6 -139 -6 -48 0 -48 0 -39 25 6 14 14 36
20 50 9 25 11 25 124 25 95 0 115 -3 120 -16z m-387 -10 c-3 -3 -12 -4 -19 -1
-8 3 -5 6 6 6 11 1 17 -2 13 -5z m93 -19 c0 -11 -12 -15 -45 -15 -50 0 -57 6
-22 20 35 14 67 12 67 -5z m0 -70 l0 -45 -55 0 c-80 0 -71 22 13 32 12 2 21 8
20 13 -2 6 -10 9 -18 8 -8 -2 -26 0 -40 4 -22 5 -19 8 25 19 28 6 51 13 53 13
1 1 2 -19 2 -44z"/>
<path d="M1107 153 c-10 -10 -8 -41 3 -48 5 -3 19 -1 30 5 16 9 18 15 10 30
-11 20 -31 26 -43 13z"/>
</g>
</svg>
