<?xml version="1.0" standalone="no"?>
<!DOCTYPE svg PUBLIC "-//W3C//DTD SVG 20010904//EN"
 "http://www.w3.org/TR/2001/REC-SVG-20010904/DTD/svg10.dtd">
<svg version="1.0" xmlns="http://www.w3.org/2000/svg"
 width="92.000000pt" height="267.000000pt" viewBox="0 0 92.000000 267.000000"
 preserveAspectRatio="xMidYMid meet">
<metadata>
Created by potrace 1.16, written by Peter Selinger 2001-2019
</metadata>
<g transform="translate(0.000000,267.000000) scale(0.100000,-0.100000)"
fill="#000000" stroke="none">
<path d="M70 2615 c-8 -22 -10 -321 -3 -390 l5 -40 146 3 c81 1 208 3 282 5
l135 2 0 90 0 90 -153 6 c-84 4 -154 8 -157 10 -2 3 -5 58 -7 124 l-3 120
-119 0 c-110 0 -119 -1 -126 -20z m224 -122 c4 -65 10 -121 14 -125 4 -4 73
-8 153 -9 l147 -1 6 -37 c3 -20 6 -53 6 -73 l0 -38 -255 0 c-140 0 -258 -1
-262 -2 -9 -3 -16 369 -9 389 4 9 32 13 99 13 l94 0 7 -117z"/>
<path d="M787 2253 c-8 -13 -6 -83 3 -83 16 0 31 30 28 56 -3 27 -21 43 -31
27z"/>
<path d="M73 1635 c1 -129 3 -235 5 -235 1 0 19 8 40 17 31 14 81 18 330 21
165 2 292 8 292 13 0 5 -136 10 -318 11 l-317 3 -3 85 c-3 75 7 189 24 288 6
30 5 32 -24 32 l-31 0 2 -235z m31 163 c-9 -59 -14 -60 -14 -5 0 26 5 47 10
47 6 0 8 -16 4 -42z"/>
<path d="M265 1862 c-6 -4 -10 -61 -10 -135 0 -109 2 -126 15 -121 22 9 446
28 464 21 13 -5 16 -26 16 -117 0 -67 4 -110 10 -110 6 0 10 34 10 83 0 74 13
149 35 200 6 15 1 17 -35 17 -39 0 -42 -2 -36 -24 l6 -24 -173 -7 c-206 -8
-287 -1 -287 25 0 18 23 132 36 178 5 18 2 22 -17 22 -13 0 -28 -4 -34 -8z
m22 -44 c-3 -8 -6 -5 -6 6 -1 11 2 17 5 13 3 -3 4 -12 1 -19z m493 -145 c0 -5
-5 -15 -10 -23 -8 -12 -10 -11 -10 8 0 12 5 22 10 22 6 0 10 -3 10 -7z"/>
<path d="M835 1498 c-7 -20 1 -68 11 -70 13 -2 28 46 21 66 -8 19 -26 21 -32
4z"/>
<path d="M55 1088 c3 -18 7 -116 9 -218 3 -149 6 -185 17 -183 8 1 37 6 64 11
28 6 129 14 225 17 353 13 329 14 336 -8 11 -33 17 -10 21 82 2 50 10 109 18
132 22 62 20 69 -20 69 -33 0 -35 -2 -35 -36 l0 -36 -194 4 c-107 2 -198 6
-202 11 -7 7 9 137 22 170 5 14 0 17 -31 17 -34 0 -37 -2 -30 -22 3 -13 9 -57
12 -98 5 -68 4 -74 -10 -62 -9 8 -20 11 -25 8 -14 -9 2 -72 18 -68 7 2 17 -3
21 -10 6 -10 11 -9 22 5 11 16 36 19 210 25 l197 7 0 -82 0 -83 -207 -2 c-354
-4 -391 -3 -399 5 -14 14 -8 249 8 307 9 30 14 58 11 63 -2 4 -18 7 -34 7 -28
0 -30 -2 -24 -32z m232 -10 c-3 -8 -6 -5 -6 6 -1 11 2 17 5 13 3 -3 4 -12 1
-19z m-200 -20 c-3 -7 -5 -2 -5 12 0 14 2 19 5 13 2 -7 2 -19 0 -25z m639
-125 c-11 -11 -19 6 -11 24 8 17 8 17 12 0 3 -10 2 -21 -1 -24z"/>
<path d="M831 743 c1 -10 4 -29 8 -43 l8 -25 13 27 c7 15 10 34 7 42 -9 22
-37 20 -36 -1z"/>
<path d="M232 456 c-29 -9 -33 -14 -28 -36 3 -14 9 -57 12 -96 l7 -70 -52 2
c-70 3 -93 12 -87 32 2 9 7 35 11 57 4 21 13 52 21 67 17 32 10 38 -34 26
l-33 -9 6 -57 c4 -31 7 -118 8 -192 l2 -135 25 2 c14 1 102 8 195 17 94 8 224
17 290 19 l120 3 6 110 c4 60 12 122 18 137 17 42 14 57 -11 57 -44 0 -46 -8
-35 -126 6 -60 7 -122 3 -137 l-6 -27 -148 0 c-81 0 -177 -3 -214 -7 l-68 -6
0 70 c0 65 2 71 23 76 12 3 102 7 200 8 97 2 183 7 190 11 6 5 -82 8 -198 6
-190 -2 -210 -1 -213 14 -2 10 4 56 13 104 9 47 15 87 13 88 -2 1 -18 -3 -36
-8z m7 -53 c0 -25 -1 -26 -9 -8 -12 27 -12 35 0 35 6 0 10 -12 9 -27z m-147
-13 c-2 -16 -8 -30 -13 -30 -10 0 -12 43 -2 53 14 14 19 6 15 -23z m613 -52
c-10 -48 -22 -55 -20 -11 3 45 2 43 16 43 7 0 8 -12 4 -32z m-600 -98 c3 -5 1
-10 -4 -10 -6 0 -11 5 -11 10 0 6 2 10 4 10 3 0 8 -4 11 -10z m115 -81 l0 -70
-67 4 c-38 3 -69 6 -70 6 -2 1 -3 25 -3 55 l0 53 63 10 c34 6 65 11 70 12 4 0
7 -31 7 -70z m-110 -83 c0 -2 -7 -6 -15 -10 -8 -3 -15 -1 -15 4 0 6 7 10 15
10 8 0 15 -2 15 -4z"/>
<path d="M792 148 c2 -12 10 -23 18 -23 22 0 19 39 -3 43 -15 3 -18 -1 -15
-20z"/>
</g>
</svg>
