<?xml version="1.0" standalone="no"?>
<!DOCTYPE svg PUBLIC "-//W3C//DTD SVG 20010904//EN"
 "http://www.w3.org/TR/2001/REC-SVG-20010904/DTD/svg10.dtd">
<svg version="1.0" xmlns="http://www.w3.org/2000/svg"
 width="137.000000pt" height="270.000000pt" viewBox="0 0 137.000000 270.000000"
 preserveAspectRatio="xMidYMid meet">
<metadata>
Created by potrace 1.16, written by Peter Selinger 2001-2019
</metadata>
<g transform="translate(0.000000,270.000000) scale(0.100000,-0.100000)"
fill="#000000" stroke="none">
<path d="M324 2618 l7 -61 -85 6 c-50 4 -86 2 -86 -3 0 -5 -15 -13 -33 -18
-26 -7 -31 -13 -29 -33 2 -13 6 -90 9 -171 5 -155 20 -199 25 -75 l3 72 98 3
97 3 -6 -41 c-4 -25 -3 -40 4 -40 6 0 13 18 17 40 l7 40 79 0 c50 0 79 4 79
11 0 7 -28 9 -80 7 l-80 -3 0 33 0 32 91 0 92 0 -6 -75 c-3 -43 -2 -75 4 -75
5 0 10 25 10 55 2 59 1 57 12 98 6 21 14 27 35 28 15 0 45 3 66 5 l39 5 -6
-75 c-4 -46 -3 -77 3 -81 6 -4 10 11 10 37 0 61 11 118 22 118 7 0 8 -28 3
-75 -5 -52 -3 -75 4 -75 6 0 11 17 11 38 0 52 11 112 20 112 5 0 6 -37 3 -82
-3 -46 -2 -80 2 -76 5 5 10 36 12 70 6 83 22 111 23 39 0 -30 3 -51 7 -47 8 8
9 13 11 64 l2 33 200 -3 200 -3 0 -119 c0 -163 17 -138 24 34 3 74 8 154 12
178 6 40 6 42 -19 42 -35 0 -40 -12 -26 -60 7 -22 10 -42 8 -45 -7 -6 -85 -8
-253 -6 l-139 1 6 40 c5 39 4 40 -26 42 -40 2 -98 -1 -114 -7 -8 -3 -9 -13 -3
-35 11 -39 -3 -46 -73 -34 -52 9 -52 9 -49 44 1 19 7 39 12 44 21 21 10 36
-25 36 -32 0 -35 -3 -35 -27 1 -16 5 -48 9 -71 15 -78 11 -82 -91 -82 -87 0
-89 1 -86 23 3 20 9 22 86 25 49 2 82 7 82 13 0 7 -28 10 -80 7 -77 -3 -80 -2
-80 19 0 16 6 23 20 23 11 0 20 5 20 10 0 6 -10 10 -21 10 -17 0 -20 4 -15 23
15 50 19 100 8 93 -7 -4 -12 -15 -12 -24 0 -9 -5 -24 -11 -32 -8 -11 -9 -6 -5
23 4 29 1 37 -11 37 -13 0 -15 -9 -9 -62z m227 -65 c-10 -17 -10 -16 -11 3 0
23 13 41 18 25 2 -6 -1 -18 -7 -28z m-213 -35 c-3 -22 -8 -23 -90 -26 -49 -1
-88 1 -88 6 0 8 15 14 95 37 6 2 27 4 48 4 34 1 38 -1 35 -21z m394 -13 c-6
-34 -12 -32 -12 6 0 16 4 28 9 25 4 -3 6 -17 3 -31z m41 -12 c-5 -14 -23 -18
-23 -5 0 4 3 18 7 31 6 23 7 23 13 5 4 -10 5 -25 3 -31z m33 -11 c-11 -10 -14
3 -8 33 l7 30 3 -28 c2 -16 1 -31 -2 -35z m-667 31 c0 -5 -4 -17 -9 -28 -8
-18 -9 -17 -9 8 -1 15 4 27 9 27 6 0 10 -3 9 -7z m191 -63 c0 -17 -7 -20 -42
-21 -24 -1 -63 -3 -88 -5 -62 -4 -74 1 -60 26 9 18 21 20 100 20 83 0 90 -1
90 -20z m0 -60 l0 -30 -100 0 c-91 0 -100 2 -100 19 0 16 12 20 88 28 48 6 93
11 100 12 7 0 12 -11 12 -29z"/>
<path d="M440 2560 c-24 -8 -23 -8 8 -9 20 -1 31 3 27 9 -3 6 -7 10 -8 9 -1
-1 -13 -5 -27 -9z"/>
<path d="M790 2325 c0 -14 5 -25 10 -25 6 0 10 11 10 25 0 14 -4 25 -10 25 -5
0 -10 -11 -10 -25z"/>
<path d="M1361 2244 c0 -11 3 -14 6 -6 3 7 2 16 -1 19 -3 4 -6 -2 -5 -13z"/>
<path d="M1361 2194 c0 -11 3 -14 6 -6 3 7 2 16 -1 19 -3 4 -6 -2 -5 -13z"/>
<path d="M302 1933 c-29 -4 -32 -7 -26 -26 15 -48 12 -51 -46 -47 -58 5 -161
3 -166 -3 -2 -2 1 -19 7 -38 5 -19 9 -88 8 -154 -1 -66 2 -121 7 -123 5 -1 10
15 12 35 l3 38 95 0 95 0 -3 -40 c-2 -22 2 -41 7 -43 6 -1 11 17 13 41 l3 44
66 -1 c47 -1 68 3 71 12 3 11 -8 13 -49 12 -86 -4 -91 -3 -87 23 3 20 9 22 74
25 l72 3 6 -36 c4 -20 7 -71 6 -113 -2 -101 -2 -104 9 -98 5 3 11 43 13 88 6
95 31 166 63 178 12 4 46 11 77 15 l55 7 7 -81 c10 -116 28 -103 21 17 -3 62
-2 88 4 72 5 -14 9 -55 10 -92 1 -38 5 -68 11 -68 6 0 8 25 4 70 -5 50 -4 70
5 70 7 0 11 -24 11 -70 0 -44 4 -70 11 -70 7 0 10 23 8 70 -3 42 0 70 6 70 6
0 11 -26 13 -57 5 -87 22 -91 22 -5 l0 72 145 0 145 0 0 -75 c0 -43 4 -75 10
-75 6 0 10 27 10 60 0 33 7 77 15 97 22 52 20 60 -15 55 -21 -3 -30 -10 -30
-23 0 -18 -9 -19 -141 -19 l-140 0 3 25 c2 13 0 24 -4 25 -24 1 -28 -2 -28
-26 0 -15 -4 -23 -10 -19 -6 4 -9 14 -8 23 2 13 -6 16 -42 16 -40 1 -45 -2
-48 -23 -4 -23 -6 -24 -77 -18 -67 5 -74 4 -84 -16 -10 -19 -11 -15 -6 23 2
25 8 63 11 84 7 38 6 39 -17 32 -13 -4 -57 -10 -98 -13 -81 -6 -78 -9 -60 56
5 16 -5 19 -49 14z m18 -44 c0 -11 -4 -17 -10 -14 -5 3 -10 13 -10 21 0 8 5
14 10 14 6 0 10 -9 10 -21z m-160 -43 c0 -3 -4 -8 -10 -11 -5 -3 -10 -1 -10 4
0 6 5 11 10 11 6 0 10 -2 10 -4z m350 -12 c0 -8 -4 -12 -10 -9 -5 3 -10 10
-10 16 0 5 5 9 10 9 6 0 10 -7 10 -16z m-212 -35 c-3 -23 -7 -24 -90 -27 -73
-2 -88 0 -88 12 0 23 152 62 173 45 5 -4 7 -17 5 -30z m176 25 c9 -24 7 -52
-4 -56 -5 -1 -41 -2 -80 0 -69 4 -70 4 -70 31 0 15 3 31 7 34 3 4 37 7 74 7
52 0 68 -4 73 -16z m-364 -3 c0 -6 -4 -13 -10 -16 -5 -3 -10 1 -10 9 0 9 5 16
10 16 6 0 10 -4 10 -9z m1030 -61 c0 -5 -5 -10 -11 -10 -5 0 -7 5 -4 10 3 6 8
10 11 10 2 0 4 -4 4 -10z m-850 -30 c0 -19 -7 -20 -90 -20 -83 0 -90 1 -90 20
0 19 7 20 90 20 83 0 90 -1 90 -20z m200 7 c0 -23 -34 -32 -102 -29 -59 3 -68
6 -68 23 0 17 8 19 85 19 62 0 85 -3 85 -13z m-200 -66 c0 -27 -3 -29 -47 -33
-27 -2 -69 -2 -95 0 -42 4 -48 8 -48 27 0 21 5 22 72 24 40 1 74 4 77 6 2 3
13 5 23 5 13 0 18 -8 18 -29z m201 -14 c-8 -8 -11 -5 -11 9 0 27 14 41 18 19
2 -9 -1 -22 -7 -28z"/>
<path d="M491 1193 c-18 -4 -22 -10 -18 -30 l5 -25 -197 3 -196 3 -6 -30 c-3
-17 -11 -28 -18 -26 -11 2 -12 -8 -7 -44 3 -26 6 -96 6 -155 0 -111 16 -153
22 -56 3 44 6 52 23 52 17 0 20 -8 23 -52 2 -29 7 -53 12 -53 5 0 10 24 12 53
l3 52 130 5 c72 3 149 3 172 2 l41 -4 -1 -41 c-3 -69 17 -58 24 13 4 36 10 84
14 108 7 36 5 42 -10 42 -16 0 -17 7 -11 62 4 34 14 74 22 89 8 16 14 30 14
34 0 5 -21 5 -59 -2z m16 -45 c-3 -8 -6 -5 -6 6 -1 11 2 17 5 13 3 -3 4 -12 1
-19z m-380 -34 c-3 -3 -12 -4 -19 -1 -8 3 -5 6 6 6 11 1 17 -2 13 -5z m361
-31 l3 -33 -128 -1 c-70 0 -140 -3 -155 -5 -25 -4 -28 -1 -28 21 0 33 -30 31
-45 -3 -11 -25 -25 -29 -25 -8 0 46 88 64 300 62 l75 -1 3 -32z m-406 -35 c-7
-7 -12 -8 -12 -2 0 14 12 26 19 19 2 -3 -1 -11 -7 -17z m402 -42 l-6 -27 -137
5 c-75 2 -146 5 -158 5 -15 1 -20 6 -17 19 5 15 22 17 157 20 84 2 154 5 156
8 9 9 12 -5 5 -30z m-349 -6 c0 -8 -10 -16 -22 -18 -18 -3 -23 2 -23 18 0 16
5 21 23 18 12 -2 22 -10 22 -18z m385 -29 c0 -6 -4 -13 -10 -16 -5 -3 -10 1
-10 9 0 9 5 16 10 16 6 0 10 -4 10 -9z m-390 -36 c0 -20 -5 -25 -25 -25 -18 0
-25 5 -25 18 0 24 8 32 32 32 13 0 18 -7 18 -25z m357 10 c3 -9 4 -17 2 -19
-2 -2 -77 -7 -166 -11 l-163 -7 0 26 0 26 160 0 c136 0 162 -2 167 -15z"/>
<path d="M718 1177 c-12 -10 -16 -27 -15 -67 l2 -55 -45 0 c-25 0 -60 3 -77 7
-32 7 -33 7 -33 -26 0 -39 8 -50 27 -34 16 13 101 28 119 21 8 -3 10 -30 6
-89 -3 -59 -1 -84 7 -84 7 0 12 22 13 58 4 105 4 111 12 119 5 5 6 -27 4 -69
-3 -74 3 -97 16 -62 3 9 6 42 6 75 0 38 4 59 11 59 9 0 10 -24 5 -86 -6 -85
-6 -85 16 -78 13 3 24 7 24 8 1 0 6 35 10 76 11 92 30 96 26 5 -5 -83 13 -85
22 -3 3 34 9 65 14 68 4 3 55 4 115 2 l107 -3 0 -70 c0 -94 21 -88 25 6 2 39
8 83 14 98 14 36 7 47 -30 47 -29 0 -30 -2 -24 -32 l7 -31 -62 6 c-35 4 -85 7
-111 7 l-49 0 0 39 c0 22 5 43 10 46 13 8 13 45 1 45 -6 0 -12 -4 -16 -9 -3
-6 -17 -6 -34 -1 -16 4 -32 6 -35 2 -12 -11 -56 -7 -56 5 0 16 -10 16 -32 0z
m32 -82 c0 -25 -4 -45 -10 -45 -11 0 -14 49 -4 74 10 26 14 18 14 -29z m40 8
c0 -16 -5 -35 -10 -43 -7 -11 -10 -4 -10 28 0 23 5 42 10 42 6 0 10 -12 10
-27z m32 -15 c-2 -21 -8 -35 -13 -32 -8 5 -3 47 8 67 9 15 10 3 5 -35z m38 2
c0 -22 -4 -40 -10 -40 -11 0 -13 39 -4 64 10 26 14 19 14 -24z m-53 -122 c-2
-13 -4 -5 -4 17 -1 22 1 32 4 23 2 -10 2 -28 0 -40z m-10 -70 c-3 -8 -6 -5 -6
6 -1 11 2 17 5 13 3 -3 4 -12 1 -19z"/>
<path d="M467 542 c-34 -35 -34 -42 3 -77 17 -16 30 -32 30 -36 0 -6 -140 -1
-148 6 -1 1 2 15 8 30 13 35 4 44 -38 38 -31 -5 -32 -7 -26 -39 6 -33 5 -34
-27 -34 -19 0 -56 7 -83 15 -67 20 -76 19 -76 -10 0 -22 -4 -25 -34 -25 -41 0
-51 -12 -36 -40 6 -11 11 -82 12 -165 1 -101 4 -145 12 -142 7 2 12 39 12 97
l2 93 113 -2 c62 0 117 -5 122 -10 5 -5 6 -19 2 -31 -5 -15 -14 -21 -33 -20
-82 6 -193 -1 -187 -11 5 -6 44 -9 111 -7 110 4 105 6 108 -44 1 -26 21 -17
21 9 0 12 9 29 20 37 17 13 18 15 3 16 -22 0 -28 12 -21 38 5 20 12 22 74 22
39 0 69 4 69 10 0 6 -30 10 -70 10 -68 0 -70 1 -70 25 0 24 2 25 64 25 35 0
78 3 96 7 l33 6 -7 -49 c-4 -27 -18 -85 -31 -129 -31 -104 -32 -109 -21 -115
5 -3 19 29 30 70 23 82 62 158 86 164 8 3 43 8 78 11 l62 7 0 -61 c0 -34 4
-61 10 -61 6 0 10 27 10 60 0 47 3 60 15 60 11 0 15 -12 15 -52 0 -46 13 -63
15 -20 1 9 2 29 3 45 4 51 22 27 23 -30 1 -44 3 -52 9 -33 4 14 8 42 9 63 2
60 21 42 21 -20 0 -31 3 -53 7 -49 7 7 8 11 11 74 1 17 7 32 12 32 6 0 8 -15
4 -40 -4 -21 -3 -47 2 -57 6 -13 10 -3 14 35 l5 53 163 4 163 3 -6 -64 c-9
-75 9 -90 19 -17 3 27 16 76 27 111 12 35 18 66 15 69 -3 4 -17 0 -31 -7 -18
-10 -25 -22 -25 -44 l0 -31 -160 -2 -160 -2 0 34 c0 18 5 46 10 61 14 36 6 61
-15 44 -10 -8 -15 -31 -15 -71 0 -33 -4 -59 -10 -59 -5 0 -10 25 -10 56 0 34
-4 53 -10 49 -5 -3 -10 -28 -10 -56 0 -29 -5 -49 -11 -49 -7 0 -10 22 -7 61 3
55 1 63 -17 69 -11 4 -24 5 -30 1 -5 -3 -21 -6 -35 -6 -22 0 -25 -4 -23 -30 1
-16 -1 -45 -3 -63 l-5 -34 -77 7 c-42 4 -82 12 -89 17 -13 10 -53 153 -53 191
0 37 -13 40 -43 9z m23 -31 c0 -5 3 -18 7 -28 6 -16 5 -16 -10 -4 -19 15 -23
41 -7 41 6 0 10 -4 10 -9z m-150 -38 c0 -5 -5 -15 -10 -23 -8 -12 -10 -11 -10
8 0 12 5 22 10 22 6 0 10 -3 10 -7z m-180 -53 c0 -5 -7 -10 -15 -10 -8 0 -15
5 -15 10 0 6 7 10 15 10 8 0 15 -4 15 -10z m628 -50 c-4 -57 -28 -67 -28 -12
0 22 3 48 6 57 11 29 25 0 22 -45z m37 20 c-3 -64 -5 -73 -12 -66 -12 11 -2
96 11 96 2 0 2 -13 1 -30z m-515 -18 l0 -27 -97 2 c-87 2 -98 4 -98 20 0 21
36 30 133 32 61 1 62 1 62 -27z m214 12 c17 -44 18 -44 -156 -35 -20 1 -28 6
-28 19 0 29 8 32 96 32 65 0 83 -3 88 -16z m-438 -16 c-3 -13 -6 -27 -7 -33
-1 -12 -17 25 -18 43 -1 6 6 12 15 12 12 0 15 -6 10 -22z m1184 -14 c0 -8 -5
-12 -10 -9 -6 4 -8 11 -5 16 9 14 15 11 15 -7z m-954 -70 c-4 -11 -29 -14
-115 -14 -110 0 -126 5 -115 34 5 12 27 16 112 18 110 3 131 -4 118 -38z m239
-6 c-12 -16 -16 -18 -11 -5 3 10 6 26 6 35 0 12 3 13 11 5 8 -8 7 -17 -6 -35z
m94 28 c-12 -10 -59 -15 -59 -6 0 5 14 10 32 10 17 0 29 -2 27 -4z"/>
<path d="M384 183 c11 -11 96 -12 96 -1 0 4 -23 8 -52 8 -28 0 -48 -3 -44 -7z"/>
</g>
</svg>
