<?xml version="1.0" standalone="no"?>
<!DOCTYPE svg PUBLIC "-//W3C//DTD SVG 20010904//EN"
 "http://www.w3.org/TR/2001/REC-SVG-20010904/DTD/svg10.dtd">
<svg version="1.0" xmlns="http://www.w3.org/2000/svg"
 width="95.000000pt" height="202.000000pt" viewBox="0 0 95.000000 202.000000"
 preserveAspectRatio="xMidYMid meet">
<metadata>
Created by potrace 1.16, written by Peter Selinger 2001-2019
</metadata>
<g transform="translate(0.000000,202.000000) scale(0.100000,-0.100000)"
fill="#000000" stroke="none">
<path d="M422 1974 c2 -14 -5 -20 -27 -24 l-30 -5 4 -112 c2 -61 1 -115 -2
-120 -6 -9 -137 -2 -214 12 -36 6 -43 4 -43 -9 0 -10 -9 -16 -24 -16 l-24 0 1
-112 c1 -64 6 -115 12 -118 6 -3 11 10 13 28 4 37 -45 33 374 34 l266 0 6 96
c6 87 25 235 42 318 5 29 4 32 -27 38 -21 4 -35 2 -40 -5 -7 -12 -80 -10 -232
7 -53 6 -58 5 -55 -12z m328 -41 c-1 -28 -3 -34 -10 -22 -8 14 -3 59 6 59 2 0
4 -17 4 -37z m-40 -2 c11 -22 13 -117 3 -239 l-6 -83 -55 113 c-30 62 -63 133
-73 158 -19 50 -44 60 -44 18 1 -27 -1 -28 -57 -28 -55 0 -58 1 -58 24 0 41
40 53 187 55 82 1 93 -1 103 -18z m-313 -33 c-3 -8 -6 -5 -6 6 -1 11 2 17 5
13 3 -3 4 -12 1 -19z m173 -68 c11 -20 9 -21 -57 -18 -55 2 -68 6 -71 21 -3
15 5 17 57 17 51 0 62 -3 71 -20z m-130 -47 c14 -27 44 -84 68 -127 23 -44 42
-83 42 -88 0 -19 -416 1 -450 22 -10 6 -10 15 -1 42 11 34 13 35 79 42 37 3
99 6 138 6 l71 0 7 38 c3 20 6 54 6 75 0 20 3 37 8 37 4 0 18 -21 32 -47z
m164 -9 c12 -32 6 -36 -52 -32 -64 5 -82 12 -82 34 0 21 126 20 134 -2z m26
-58 c0 -2 3 -12 6 -21 10 -25 -113 -19 -127 7 -9 17 -5 18 56 18 36 0 65 -2
65 -4z m36 -73 c22 -29 17 -33 -37 -33 -55 0 -83 11 -93 35 -9 24 112 22 130
-2z m34 -68 c0 -13 -11 -15 -62 -13 -38 2 -63 8 -66 16 -3 9 14 12 62 12 53 0
66 -3 66 -15z m-583 -21 c-3 -3 -12 -4 -19 -1 -8 3 -5 6 6 6 11 1 17 -2 13 -5z"/>
<path d="M916 1568 c-10 -28 0 -83 14 -83 19 0 21 86 3 92 -7 3 -15 -1 -17 -9z"/>
<path d="M419 1313 c-1 -5 0 -16 1 -27 1 -15 -3 -17 -25 -12 -25 6 -27 5 -21
-16 4 -13 10 -56 13 -97 l6 -74 -142 5 c-112 3 -141 2 -141 -9 0 -8 -12 -13
-30 -13 -33 0 -37 -11 -20 -70 5 -19 11 -75 13 -125 2 -70 6 -90 18 -90 11 0
13 11 11 47 -4 52 -14 46 97 68 64 12 480 3 498 -11 6 -6 14 -6 17 -1 2 4 9
69 15 144 7 91 17 154 31 189 11 30 20 59 20 66 0 8 -32 11 -102 12 -57 1
-130 6 -163 11 -72 12 -95 12 -96 3z m64 -30 c-7 -2 -19 -2 -25 0 -7 3 -2 5
12 5 14 0 19 -2 13 -5z m227 -137 c0 -143 -8 -216 -25 -222 -6 -3 -25 0 -41 6
l-29 12 21 16 c12 9 30 22 40 28 18 10 16 15 -25 60 -108 118 -180 194 -185
194 -3 0 -5 -9 -3 -21 1 -12 -7 -27 -20 -36 -21 -14 -23 -14 -23 5 0 11 4 32
10 46 10 27 27 30 198 34 l82 2 0 -124z m32 99 c-2 -14 -6 -25 -8 -25 -2 0 -4
11 -4 25 0 14 4 25 9 25 4 0 6 -11 3 -25z m-235 -81 c5 -14 -52 -38 -67 -29
-6 4 -2 13 12 26 24 20 49 21 55 3z m41 -45 c4 -23 -43 -46 -62 -29 -14 11
-13 14 7 31 25 21 50 21 55 -2z m35 -175 c6 -11 -9 -14 -83 -14 l-92 0 5 93
c3 50 6 94 6 96 1 6 154 -158 164 -175z m11 128 c15 -18 15 -19 -9 -30 -52
-24 -85 -2 -45 30 28 22 33 22 54 0z m-204 -56 c0 -85 8 -81 -150 -78 -154 3
-148 0 -134 69 7 33 -15 28 239 57 17 1 33 4 38 5 4 0 7 -23 7 -53z m-303 2
c-3 -7 -5 -2 -5 12 0 14 2 19 5 13 2 -7 2 -19 0 -25z m563 -13 c0 -6 -12 -17
-27 -24 -22 -10 -29 -9 -42 5 -10 11 -12 18 -5 21 6 2 20 10 30 18 20 14 44 4
44 -20z"/>
<path d="M914 971 c6 -75 36 -80 36 -5 0 37 -3 44 -20 44 -17 0 -19 -6 -16
-39z"/>
<path d="M457 631 c-3 -13 -13 -21 -26 -21 -12 0 -21 -3 -22 -7 0 -5 -2 -64
-5 -133 -2 -69 -7 -131 -9 -139 -4 -11 -25 -12 -103 -7 -53 4 -114 9 -134 12
-37 6 -38 5 -38 -26 l0 -32 43 7 c23 4 120 9 215 11 l174 5 -4 -48 -3 -47 85
2 c105 4 119 8 124 35 4 20 28 284 30 335 1 17 7 22 27 22 35 0 37 -11 45
-242 l7 -188 -375 0 c-295 0 -378 3 -392 13 -17 13 -18 16 -2 69 21 75 21 80
-11 76 l-27 -3 -1 -137 c0 -104 3 -138 13 -138 7 0 12 14 12 39 l0 39 102 6
c57 3 236 8 398 11 162 3 295 7 296 8 1 1 5 81 8 177 3 96 10 199 16 229 5 30
9 55 7 57 -1 1 -76 7 -167 13 -91 6 -190 14 -221 17 -51 6 -56 5 -62 -15z
m297 -27 c9 -3 16 -14 15 -23 0 -10 -2 -11 -6 -3 -11 28 -23 9 -23 -38 l0 -51
-42 5 c-24 3 -58 5 -75 5 -32 1 -33 2 -33 47 0 38 -3 45 -17 42 -16 -3 -18
-17 -18 -130 l0 -127 -63 -3 c-36 -2 -62 1 -63 7 0 6 0 46 1 90 1 87 14 144
39 161 9 7 63 12 135 13 66 1 122 4 125 6 6 6 6 6 25 -1z m126 -26 c0 -16 -3
-19 -11 -11 -6 6 -8 16 -5 22 11 17 16 13 16 -11z m-130 -128 c0 -17 -7 -20
-47 -20 -62 0 -123 10 -123 21 0 10 38 16 113 18 51 1 57 -1 57 -19z m-7 -62
c-4 -22 -8 -23 -84 -20 -58 3 -79 7 -79 17 0 15 28 21 111 24 53 1 56 0 52
-21z m-5 -61 c-2 -12 -6 -21 -10 -19 -5 1 -40 2 -79 2 -52 0 -70 3 -67 13 4
11 47 20 126 24 29 2 33 0 30 -20z m-10 -91 c-7 -5 -147 10 -154 17 -13 13 4
19 78 25 71 7 73 6 76 -16 2 -13 2 -25 0 -26z"/>
</g>
</svg>
