<?xml version="1.0" standalone="no"?>
<!DOCTYPE svg PUBLIC "-//W3C//DTD SVG 20010904//EN"
 "http://www.w3.org/TR/2001/REC-SVG-20010904/DTD/svg10.dtd">
<svg version="1.0" xmlns="http://www.w3.org/2000/svg"
 width="96.000000pt" height="65.000000pt" viewBox="0 0 96.000000 65.000000"
 preserveAspectRatio="xMidYMid meet">
<metadata>
Created by potrace 1.16, written by Peter Selinger 2001-2019
</metadata>
<g transform="translate(0.000000,65.000000) scale(0.100000,-0.100000)"
fill="#000000" stroke="none">
<path d="M108 643 c6 -2 18 -2 25 0 6 3 1 5 -13 5 -14 0 -19 -2 -12 -5z"/>
<path d="M489 628 c0 -2 -2 -18 -4 -36 -1 -18 -10 -39 -18 -45 -13 -10 -14
-21 -6 -62 5 -27 7 -67 3 -88 l-6 -39 -172 4 c-94 3 -180 8 -190 13 -17 7 -18
5 -12 -18 7 -31 -13 -38 -34 -12 -7 8 -16 12 -22 9 -5 -4 -5 -11 1 -18 10 -12
18 -70 25 -181 3 -61 26 -92 26 -35 0 17 4 29 10 25 5 -3 26 1 46 10 28 12 83
15 248 16 116 1 273 4 349 8 l137 6 5 122 c3 71 14 153 25 199 11 42 20 78 20
79 0 1 -51 3 -112 4 -129 2 -250 16 -278 31 -17 9 -39 13 -41 8z m46 -38 c3
-5 -1 -10 -10 -10 -9 0 -13 5 -10 10 3 6 8 10 10 10 2 0 7 -4 10 -10z m81 -33
c-16 -12 -17 -19 -7 -65 7 -33 8 -97 4 -172 l-6 -120 -64 0 -63 0 6 113 c7
124 28 237 47 249 7 4 32 8 56 8 40 0 43 -2 27 -13z m92 -4 c-1 -10 2 -39 7
-65 6 -40 4 -49 -9 -54 -11 -4 -13 -10 -7 -18 10 -12 13 -56 12 -153 l-1 -63
-41 0 -40 0 5 72 c3 40 8 116 12 168 7 105 16 130 44 130 12 0 18 -7 18 -17z
m137 -25 c3 -18 5 -98 3 -178 l-3 -145 -56 0 -55 -1 3 81 c3 44 9 93 14 109 6
20 6 33 -1 40 -13 13 -13 67 0 100 8 22 16 26 49 26 37 0 41 -2 46 -32z m38
12 c-3 -11 -7 -20 -9 -20 -2 0 -4 9 -4 20 0 11 4 20 9 20 5 0 7 -9 4 -20z
m-425 -212 c1 -5 2 -35 2 -69 l0 -61 -184 3 c-102 2 -187 7 -191 11 -9 9 16
86 33 100 8 7 67 14 150 18 176 7 187 6 190 -2z m-378 -34 c0 -8 -5 -12 -10
-9 -6 4 -8 11 -5 16 9 14 15 11 15 -7z m47 -120 c-3 -3 -12 -4 -19 -1 -8 3 -5
6 6 6 11 1 17 -2 13 -5z"/>
</g>
</svg>
