<?xml version="1.0" standalone="no"?>
<!DOCTYPE svg PUBLIC "-//W3C//DTD SVG 20010904//EN"
 "http://www.w3.org/TR/2001/REC-SVG-20010904/DTD/svg10.dtd">
<svg version="1.0" xmlns="http://www.w3.org/2000/svg"
 width="139.000000pt" height="77.000000pt" viewBox="0 0 139.000000 77.000000"
 preserveAspectRatio="xMidYMid meet">
<metadata>
Created by potrace 1.16, written by Peter Selinger 2001-2019
</metadata>
<g transform="translate(0.000000,77.000000) scale(0.100000,-0.100000)"
fill="#000000" stroke="none">
<path d="M1023 683 l-1 -38 76 -24 c42 -14 95 -32 117 -41 l39 -17 -54 -35
c-30 -19 -83 -50 -117 -69 -81 -44 -98 -89 -35 -89 45 0 205 -61 192 -73 -15
-15 -211 -137 -219 -137 -15 0 -24 115 -24 318 0 181 -1 192 -18 192 -15 0
-19 -8 -19 -40 0 -33 -3 -40 -20 -40 -16 0 -20 7 -20 30 0 23 -5 30 -19 30
-25 0 -37 -18 -22 -33 24 -24 10 -29 -59 -23 l-70 7 4 -101 c2 -56 6 -104 9
-106 3 -3 14 -1 24 4 10 5 39 12 66 14 l47 6 0 -73 0 -72 -46 -7 c-25 -3 -57
-3 -70 0 l-24 6 5 -73 c3 -40 8 -75 11 -78 3 -3 53 -4 112 -2 103 3 110 5 207
50 100 48 185 85 217 95 14 4 16 12 11 38 -8 43 -9 44 -38 28 -16 -8 -29 -10
-37 -4 -7 6 -40 21 -73 34 -33 13 -73 31 -88 41 l-28 16 37 22 c47 28 151 72
189 81 25 5 30 11 28 35 -3 36 -19 53 -34 38 -17 -17 -164 48 -209 92 -20 19
-38 35 -41 35 -3 0 -5 -17 -6 -37z m-127 -124 c13 -21 -13 -30 -70 -23 -59 7
-64 19 -11 27 56 8 74 7 81 -4z m68 -11 c15 -57 7 -75 -28 -62 -23 9 -20 20 7
29 l22 8 -22 4 c-15 3 -23 12 -23 24 0 27 36 25 44 -3z m-64 -48 c0 -6 -29
-10 -67 -9 -50 1 -61 3 -43 9 36 12 110 12 110 0z m-1 -54 c-4 -5 -72 -10
-101 -7 -40 3 -14 20 35 23 47 3 78 -5 66 -16z m71 -1 c0 -8 -9 -10 -25 -7
-24 4 -31 13 -19 24 9 10 44 -4 44 -17z m8 -129 l7 -96 -27 0 c-18 0 -28 5
-28 15 0 8 9 15 20 15 11 0 20 5 20 10 0 6 -11 10 -25 10 -24 0 -25 2 -25 69
0 64 2 70 23 73 12 2 23 3 25 2 2 -1 7 -45 10 -98z m322 -19 c0 -12 -40 -38
-58 -37 -6 1 49 50 56 50 1 0 2 -6 2 -13z m-392 -72 c-10 -10 -104 -14 -118
-5 -9 5 4 11 36 15 27 4 54 8 59 10 12 3 31 -13 23 -20z m2 -46 c0 -5 -28 -9
-62 -9 -38 0 -58 4 -52 9 19 19 114 19 114 0z m80 6 c0 -10 -10 -15 -30 -15
-20 0 -30 5 -30 15 0 10 10 15 30 15 20 0 30 -5 30 -15z m-117 -42 c-13 -2
-35 -2 -50 0 -16 2 -5 4 22 4 28 0 40 -2 28 -4z"/>
<path d="M360 565 c0 -25 -2 -45 -4 -45 -2 0 -25 9 -51 20 -32 14 -69 20 -119
20 -43 0 -77 5 -84 12 -20 20 -39 -6 -21 -28 11 -14 26 -16 87 -11 l73 6 -3
-57 c-3 -49 -6 -57 -23 -58 -11 0 -39 -1 -62 -2 -24 -1 -43 -7 -43 -13 0 -7
22 -10 63 -7 l62 3 3 -56 3 -57 -88 1 c-71 1 -88 -1 -88 -13 0 -16 13 -17 113
-7 48 4 62 3 62 -8 0 -9 -24 -15 -85 -20 -47 -4 -85 -12 -85 -18 0 -6 29 -8
85 -3 67 5 85 3 85 -7 0 -9 -21 -14 -72 -15 -76 -3 -92 -7 -82 -23 5 -9 93 -4
137 7 12 4 17 0 17 -15 0 -19 -6 -21 -64 -21 -69 0 -96 -6 -96 -22 0 -10 167
-5 177 6 3 3 5 41 4 83 l-1 78 37 17 c52 24 63 12 63 -72 l0 -68 -75 -51 c-41
-28 -77 -56 -81 -62 -16 -26 11 -17 74 25 38 25 72 46 76 46 3 0 6 -11 6 -25
0 -14 5 -25 10 -25 6 0 10 15 10 34 0 31 6 37 61 70 33 20 67 36 75 36 9 0 14
11 14 34 0 43 -15 54 -41 30 -16 -14 -23 -15 -42 -5 -45 24 -90 68 -83 80 12
19 80 59 107 63 20 2 24 8 22 36 -1 36 -13 55 -20 35 -6 -16 -25 -16 -58 -1
-20 9 -25 18 -25 49 0 20 -3 44 -6 53 -12 31 -24 16 -24 -29z m-46 -55 l46
-19 0 -55 c0 -61 -12 -76 -40 -51 -15 13 -23 14 -39 5 -20 -10 -21 -9 -21 65
0 41 2 75 4 75 2 0 25 -9 50 -20z m116 -59 c0 -5 -12 -17 -27 -26 -24 -16 -26
-16 -20 0 4 9 7 25 7 36 0 17 3 18 20 9 11 -6 20 -15 20 -19z m-130 -110 c0
-3 -9 -12 -20 -19 -18 -11 -20 -10 -20 12 0 19 4 23 20 19 11 -3 20 -8 20 -12z
m150 -91 c0 -3 -16 -18 -35 -33 l-35 -28 0 56 0 55 35 -22 c19 -13 35 -25 35
-28z m45 -9 c-3 -6 -11 -11 -17 -11 -6 0 -6 6 2 15 14 17 26 13 15 -4z"/>
<path d="M137 513 c-55 -6 -42 -28 14 -25 55 4 79 11 79 23 0 9 -19 9 -93 2z"/>
<path d="M117 463 c-15 -14 -5 -23 26 -23 41 0 77 10 77 21 0 10 -93 12 -103
2z"/>
<path d="M624 165 c-3 -8 -2 -20 2 -27 5 -7 7 -21 6 -30 -4 -22 24 -24 32 -2
11 29 6 62 -10 68 -22 8 -24 8 -30 -9z"/>
<path d="M1344 169 c-8 -14 21 -43 35 -35 19 12 13 46 -8 46 -11 0 -23 -5 -27
-11z"/>
</g>
</svg>
