<?xml version="1.0" standalone="no"?>
<!DOCTYPE svg PUBLIC "-//W3C//DTD SVG 20010904//EN"
 "http://www.w3.org/TR/2001/REC-SVG-20010904/DTD/svg10.dtd">
<svg version="1.0" xmlns="http://www.w3.org/2000/svg"
 width="160.000000pt" height="137.000000pt" viewBox="0 0 160.000000 137.000000"
 preserveAspectRatio="xMidYMid meet">
<metadata>
Created by potrace 1.16, written by Peter Selinger 2001-2019
</metadata>
<g transform="translate(0.000000,137.000000) scale(0.100000,-0.100000)"
fill="#000000" stroke="none">
<path d="M215 1211 c11 -39 32 -325 26 -333 -4 -4 -44 -10 -90 -14 l-84 -7 6
149 c3 82 10 163 15 181 12 38 10 41 -29 35 -28 -4 -30 -7 -22 -31 4 -14 8
-110 8 -214 0 -103 2 -186 5 -185 50 25 171 62 265 83 231 49 395 89 395 96 0
4 -42 17 -92 29 -122 29 -151 38 -227 68 -66 26 -92 23 -99 -11 -2 -11 10 -17
50 -22 29 -3 67 -10 83 -15 17 -4 69 -16 118 -25 48 -10 87 -21 87 -25 0 -4
-28 -12 -62 -18 -64 -11 -245 -53 -284 -66 -20 -6 -21 -3 -27 131 -4 81 -3
152 3 172 12 41 8 49 -26 49 -23 0 -25 -3 -19 -27z"/>
<path d="M130 1148 c0 -99 14 -268 22 -268 10 0 10 78 1 213 -6 96 -23 136
-23 55z"/>
<path d="M168 1180 c-7 -21 15 -276 24 -285 7 -7 9 25 4 99 -3 60 -6 129 -6
153 0 39 -13 59 -22 33z"/>
<path d="M1510 1158 c-63 -24 -306 -98 -323 -98 -15 0 -18 6 -15 33 3 29 1 32
-27 33 -16 1 -41 -3 -55 -9 -14 -6 -31 -9 -38 -8 -12 2 -13 -25 -7 -151 4 -84
9 -154 10 -156 2 -2 28 16 58 40 30 24 107 79 171 123 130 89 247 172 259 185
14 13 -6 18 -33 8z m-141 -106 c-78 -58 -187 -132 -194 -132 -3 0 -5 21 -5 48
0 45 2 48 38 65 38 18 186 64 211 66 8 1 -15 -20 -50 -47z m-291 -124 c-3 -48
-4 -45 -12 34 -4 48 -5 96 0 105 10 21 17 -57 12 -139z m71 69 l-2 -72 -7 50
c-12 72 -12 107 0 100 6 -3 9 -39 9 -78z m-30 -49 c1 -26 -3 -50 -9 -53 -6 -4
-10 27 -9 87 1 76 3 86 10 53 4 -22 8 -61 8 -87z m1 -73 c0 -2 -10 -10 -22
-16 -21 -11 -22 -11 -9 4 13 16 31 23 31 12z"/>
<path d="M844 818 c3 -13 6 -31 6 -40 0 -26 15 -22 28 7 14 31 6 55 -20 55
-16 0 -19 -5 -14 -22z"/>
<path d="M579 653 c-1 -4 -1 -16 0 -25 2 -11 -5 -18 -15 -18 -14 0 -16 -7 -10
-42 26 -178 30 -339 10 -435 -7 -38 4 -42 50 -18 17 9 89 27 160 41 338 65
404 80 407 89 2 5 -30 18 -71 28 -129 31 -274 70 -298 80 -22 10 -22 14 -20
136 l3 126 33 3 c61 6 32 20 -55 26 -49 4 -112 9 -140 12 -29 3 -54 2 -54 -3z
m90 -27 c-11 -9 -69 -14 -69 -6 0 6 17 10 37 10 20 0 34 -2 32 -4z m85 -38 c3
-13 9 -71 13 -130 5 -94 4 -108 -10 -114 -25 -9 -21 -34 6 -34 88 -2 339 -51
326 -64 -2 -3 -26 -9 -54 -14 -27 -5 -93 -19 -145 -30 -52 -11 -126 -22 -165
-24 l-70 -3 -3 198 c-2 109 -1 206 3 214 15 42 29 -18 41 -184 14 -204 12
-185 22 -180 4 3 3 80 -1 173 -5 92 -6 178 -3 191 8 29 32 30 40 1z m-126
-230 c4 -152 2 -178 -10 -178 -12 0 -16 27 -22 144 -3 78 -3 169 0 201 12 102
26 28 32 -167z m2 -208 c0 -5 -7 -10 -16 -10 -8 0 -12 5 -9 10 3 6 10 10 16
10 5 0 9 -4 9 -10z"/>
<path d="M1211 128 c-10 -27 -1 -41 25 -36 13 2 19 12 19 28 0 33 -32 39 -44
8z"/>
</g>
</svg>
