<?xml version="1.0" standalone="no"?>
<!DOCTYPE svg PUBLIC "-//W3C//DTD SVG 20010904//EN"
 "http://www.w3.org/TR/2001/REC-SVG-20010904/DTD/svg10.dtd">
<svg version="1.0" xmlns="http://www.w3.org/2000/svg"
 width="95.000000pt" height="260.000000pt" viewBox="0 0 95.000000 260.000000"
 preserveAspectRatio="xMidYMid meet">
<metadata>
Created by potrace 1.16, written by Peter Selinger 2001-2019
</metadata>
<g transform="translate(0.000000,260.000000) scale(0.100000,-0.100000)"
fill="#000000" stroke="none">
<path d="M450 2546 c0 -11 -9 -16 -26 -16 -24 0 -25 -2 -18 -27 8 -29 7 -195
-2 -225 -8 -29 -166 -25 -261 6 -20 6 -23 4 -23 -19 0 -22 -3 -25 -25 -19 -14
3 -32 3 -42 0 -14 -6 -13 -9 6 -28 21 -19 23 -28 20 -102 -3 -48 0 -83 6 -86
6 -3 11 5 13 18 2 14 14 27 29 33 14 5 143 10 287 12 l261 2 17 150 c15 131
28 224 40 275 2 11 -4 14 -26 12 -29 -3 -191 14 -233 25 -17 4 -23 1 -23 -11z
m184 -32 l46 -7 0 -66 c0 -36 -5 -123 -12 -193 l-12 -128 -266 0 c-146 0 -271
4 -279 9 -12 7 -12 15 0 52 13 40 18 44 54 51 22 4 106 4 188 1 106 -4 147 -3
147 5 0 15 -45 26 -61 16 -9 -5 -10 19 -5 106 4 63 12 122 17 131 6 12 24 19
57 22 26 2 54 4 63 5 9 1 37 -1 63 -4z m73 -26 c-3 -8 -6 -5 -6 6 -1 11 2 17
5 13 3 -3 4 -12 1 -19z"/>
<path d="M904 2126 c-3 -8 -2 -21 2 -28 5 -7 7 -21 6 -30 -2 -11 3 -18 12 -18
17 0 30 37 24 67 -4 23 -36 30 -44 9z"/>
<path d="M603 1881 c-3 -12 -15 -21 -32 -23 l-26 -3 4 -97 3 -98 -178 0 c-99
0 -196 4 -217 9 -30 7 -39 6 -44 -5 -3 -9 -16 -14 -31 -12 l-25 3 1 -155 c0
-85 4 -155 9 -155 4 0 9 26 11 57 l3 57 62 6 c34 3 138 5 232 3 l170 -3 -3
-39 c-3 -28 0 -37 10 -34 7 3 14 21 16 41 l3 37 150 0 149 0 0 113 c0 81 6
134 20 188 23 88 24 103 7 96 -14 -5 -251 19 -275 28 -8 3 -16 -3 -19 -14z
m240 -73 c3 -24 5 -103 3 -177 l-2 -133 -137 -2 -138 -1 3 70 3 70 53 -2 c40
-2 52 1 52 12 0 11 -13 15 -56 15 l-55 0 6 48 c10 71 26 126 39 134 6 4 59 8
117 8 l107 0 5 -42z m34 -5 c-3 -10 -5 -4 -5 12 0 17 2 24 5 18 2 -7 2 -21 0
-30z m-329 -236 l-3 -69 -185 2 c-169 1 -262 9 -276 23 -3 3 0 23 5 45 9 31
18 42 39 47 33 10 205 20 330 20 l93 0 -3 -68z"/>
<path d="M534 1185 c5 -21 3 -25 -17 -25 -22 0 -23 -1 -19 -102 l4 -101 -172
6 c-125 5 -179 11 -195 21 -21 14 -23 13 -34 -11 -8 -17 -17 -23 -27 -19 -25
10 -34 -3 -22 -32 6 -15 10 -80 9 -145 -1 -91 2 -118 12 -114 6 2 12 20 12 39
0 20 3 34 7 32 3 -2 21 4 40 15 30 18 60 20 340 24 206 3 312 8 321 16 10 7
16 49 20 128 4 71 15 144 27 182 10 35 18 67 15 70 -2 3 -47 8 -100 9 -54 2
-122 10 -152 18 -73 19 -76 18 -69 -11z m254 -40 c8 -8 6 -218 -3 -292 l-6
-53 -313 0 c-205 0 -324 4 -345 11 -29 10 -31 14 -25 43 14 67 21 74 68 81 25
4 76 5 114 2 115 -10 496 -9 500 1 4 14 -51 22 -161 22 l-100 0 7 63 c10 89
31 120 86 129 53 7 168 3 178 -7z m-658 -365 c0 -5 -4 -10 -10 -10 -5 0 -10 5
-10 10 0 6 5 10 10 10 6 0 10 -4 10 -10z"/>
<path d="M941 784 c0 -11 3 -14 6 -6 3 7 2 16 -1 19 -3 4 -6 -2 -5 -13z"/>
<path d="M880 780 c0 -5 5 -10 10 -10 6 0 10 5 10 10 0 6 -4 10 -10 10 -5 0
-10 -4 -10 -10z"/>
<path d="M468 490 c-3 -21 0 -34 11 -40 12 -7 15 -30 15 -129 -1 -67 -3 -124
-6 -127 -3 -3 -96 -7 -206 -9 l-200 -5 -7 29 c-3 16 -3 40 0 53 6 23 15 27 88
39 45 8 134 14 197 14 151 0 162 18 15 27 -255 15 -275 15 -281 -5 -3 -9 -11
-17 -17 -16 -43 5 -50 -1 -42 -33 5 -18 11 -79 14 -136 6 -106 26 -144 26 -49
l0 52 205 5 c117 4 208 2 211 -3 4 -5 10 -4 13 2 5 7 62 11 171 11 l163 0 7
68 c4 37 20 108 36 158 16 50 29 96 29 103 0 14 -36 15 -45 1 -9 -15 -199 -12
-295 5 -47 8 -88 15 -91 15 -4 0 -9 -14 -11 -30z m407 -42 c-10 -46 -25 -59
-25 -22 0 26 15 54 28 54 2 0 1 -15 -3 -32z m-62 13 c14 -1 17 -11 17 -66 l0
-65 -147 -1 c-90 -1 -138 -4 -123 -9 14 -4 81 -8 149 -9 l124 -1 -7 -37 c-3
-21 -6 -48 -6 -60 0 -23 -1 -23 -153 -23 l-152 0 6 95 c6 81 20 149 35 177 4
5 180 5 257 -1z m-290 -21 c-3 -11 -7 -20 -9 -20 -2 0 -4 9 -4 20 0 11 4 20 9
20 5 0 7 -9 4 -20z m-378 -120 c-3 -5 -13 -10 -21 -10 -8 0 -14 5 -14 10 0 6
9 10 21 10 11 0 17 -4 14 -10z"/>
<path d="M315 22 c-173 -1 -293 -6 -299 -12 -7 -7 152 -10 462 -10 424 0 472
2 472 16 0 14 -20 15 -172 12 -95 -1 -303 -4 -463 -6z"/>
</g>
</svg>
