<?xml version="1.0" standalone="no"?>
<!DOCTYPE svg PUBLIC "-//W3C//DTD SVG 20010904//EN"
 "http://www.w3.org/TR/2001/REC-SVG-20010904/DTD/svg10.dtd">
<svg version="1.0" xmlns="http://www.w3.org/2000/svg"
 width="102.000000pt" height="203.000000pt" viewBox="0 0 102.000000 203.000000"
 preserveAspectRatio="xMidYMid meet">
<metadata>
Created by potrace 1.16, written by Peter Selinger 2001-2019
</metadata>
<g transform="translate(0.000000,203.000000) scale(0.100000,-0.100000)"
fill="#000000" stroke="none">
<path d="M234 1993 c-9 -6 -13 -52 -5 -59 0 -1 27 4 59 10 31 7 126 13 211 15
l154 3 -7 -202 c-4 -116 -3 -199 2 -196 5 3 12 43 15 89 7 80 58 278 79 305 6
7 8 16 4 19 -4 4 -102 8 -219 8 -117 1 -228 5 -247 8 -19 4 -40 4 -46 0z m71
-23 c4 -6 -7 -10 -24 -10 -17 0 -31 5 -31 10 0 6 11 10 24 10 14 0 28 -4 31
-10z m390 -79 c-10 -39 -19 -71 -21 -71 -2 0 -4 31 -4 69 0 58 3 70 18 73 9 3
19 3 20 2 2 -1 -4 -34 -13 -73z"/>
<path d="M94 1854 c-3 -19 -2 -61 5 -92 6 -31 13 -77 15 -102 3 -25 5 -46 5
-47 1 -2 6 -3 12 -3 7 0 9 12 5 36 l-7 35 185 -2 c172 -3 186 -4 186 -21 0
-10 4 -18 9 -18 12 0 21 36 21 85 0 22 9 60 20 84 11 24 20 45 20 46 0 2 -97
5 -215 7 -154 2 -218 7 -227 16 -19 19 -27 14 -34 -24z m56 -4 c12 -8 11 -10
-7 -10 -13 0 -23 5 -23 10 0 13 11 13 30 0z m346 -34 c3 -13 6 -45 7 -71 l2
-48 -150 3 c-182 4 -214 5 -220 12 -3 2 0 30 6 61 l12 56 51 4 c28 2 104 4
168 5 116 2 118 2 124 -22z m37 4 c-3 -11 -7 -20 -9 -20 -2 0 -4 9 -4 20 0 11
4 20 9 20 5 0 7 -9 4 -20z"/>
<path d="M910 1540 c0 -43 13 -52 30 -21 17 33 12 61 -10 61 -17 0 -20 -7 -20
-40z"/>
<path d="M287 1354 c-4 -4 -7 -23 -7 -42 0 -33 1 -34 31 -28 17 3 120 9 230
13 l199 6 0 -82 c0 -74 -2 -82 -17 -77 -10 3 -115 8 -233 12 -118 4 -250 12
-292 19 -43 7 -80 10 -83 7 -3 -3 -5 -14 -5 -25 0 -11 -11 -23 -27 -29 l-28
-11 2 -111 c0 -61 2 -115 3 -121 4 -20 18 41 20 85 1 25 9 67 18 95 15 44 21
50 54 57 46 9 218 14 425 11 185 -3 171 5 165 -105 l-4 -58 -161 0 c-89 0
-229 5 -311 10 -82 6 -150 9 -152 8 -1 -2 -6 -16 -10 -32 -7 -28 -6 -29 22
-21 16 4 164 9 329 10 l300 2 7 59 c9 65 36 234 44 275 5 25 3 27 -38 32 -23
4 -95 9 -158 12 -111 6 -253 21 -295 31 -11 3 -24 2 -28 -2z m112 -36 c14 -1
1 -4 -29 -7 -61 -7 -74 -5 -64 11 4 5 20 7 36 4 17 -3 42 -7 57 -8z m385 -55
c-15 -62 -23 -69 -23 -20 -1 36 3 47 14 47 12 0 14 -7 9 -27z m-619 -113 c3
-5 -3 -10 -14 -10 -12 0 -21 5 -21 10 0 6 6 10 14 10 8 0 18 -4 21 -10z m-75
-60 c0 -5 -5 -10 -11 -10 -5 0 -7 5 -4 10 3 6 8 10 11 10 2 0 4 -4 4 -10z m80
-124 c0 -2 -9 -6 -20 -9 -11 -3 -20 -1 -20 4 0 5 9 9 20 9 11 0 20 -2 20 -4z"/>
<path d="M912 940 c0 -45 13 -52 30 -16 13 29 5 56 -16 56 -11 0 -15 -11 -14
-40z"/>
<path d="M430 580 c0 -31 1 -32 33 -25 17 4 107 9 198 12 l166 5 7 -29 c3 -15
9 -75 12 -131 l7 -104 -371 4 c-204 1 -373 6 -377 10 -4 3 -2 15 4 27 17 30
-2 33 -42 6 -33 -23 -35 -27 -26 -57 5 -18 9 -70 9 -115 0 -45 5 -85 10 -88 6
-3 10 3 10 13 0 20 33 32 86 32 22 0 24 -4 24 -55 0 -30 5 -55 10 -55 6 0 10
26 10 58 l0 57 332 0 333 0 6 130 c4 79 14 164 27 218 12 49 22 90 22 92 0 2
-100 5 -222 8 -123 2 -233 7 -245 12 -21 7 -23 4 -23 -25z m453 -47 c-7 -49
-23 -67 -23 -26 0 17 -3 38 -6 47 -4 11 0 16 14 16 18 0 20 -5 15 -37z m-816
-225 c-3 -8 -6 -5 -6 6 -1 11 2 17 5 13 3 -3 4 -12 1 -19z m68 -18 c-3 -5 -17
-10 -31 -10 -14 0 -22 4 -19 10 3 6 17 10 31 10 14 0 22 -4 19 -10z m713 -14
c2 -3 1 -29 -3 -60 l-7 -56 -93 0 c-50 0 -194 3 -319 7 l-228 6 5 31 c3 17 10
43 15 57 l10 26 308 -4 c169 -2 310 -5 312 -7z m-678 -63 c0 -39 -2 -43 -24
-43 -45 0 -76 18 -76 44 0 27 17 44 57 55 35 10 43 -1 43 -56z m30 51 c0 -8
-4 -12 -10 -9 -5 3 -10 10 -10 16 0 5 5 9 10 9 6 0 10 -7 10 -16z"/>
<path d="M971 230 c-8 -4 -11 -15 -8 -24 8 -20 47 -21 47 -2 0 20 -24 36 -39
26z"/>
</g>
</svg>
