<?xml version="1.0" standalone="no"?>
<!DOCTYPE svg PUBLIC "-//W3C//DTD SVG 20010904//EN"
 "http://www.w3.org/TR/2001/REC-SVG-20010904/DTD/svg10.dtd">
<svg version="1.0" xmlns="http://www.w3.org/2000/svg"
 width="146.000000pt" height="280.000000pt" viewBox="0 0 146.000000 280.000000"
 preserveAspectRatio="xMidYMid meet">
<metadata>
Created by potrace 1.16, written by Peter Selinger 2001-2019
</metadata>
<g transform="translate(0.000000,280.000000) scale(0.100000,-0.100000)"
fill="#000000" stroke="none">
<path d="M243 2740 c-3 -12 -11 -16 -25 -12 -18 4 -20 2 -14 -19 4 -13 10 -49
13 -80 l6 -56 -38 -6 c-20 -3 -50 -3 -66 0 -25 5 -29 2 -29 -16 0 -21 3 -22
48 -15 95 15 87 27 87 -128 0 -75 3 -139 5 -142 3 -2 29 2 58 9 29 8 92 15
140 16 48 0 99 3 114 6 l26 5 5 192 c3 105 8 203 12 219 l7 27 -133 0 c-74 0
-151 5 -173 9 -33 8 -39 7 -43 -9z m301 -42 c3 -13 6 -102 6 -200 l0 -176 -92
-7 c-51 -4 -119 -5 -152 -3 l-58 3 -5 185 c-4 149 -2 188 9 197 17 15 59 19
184 21 98 2 102 1 108 -20z"/>
<path d="M444 2656 c-4 -11 -13 -15 -26 -10 -19 6 -20 3 -13 -36 l7 -43 -38 7
c-22 3 -49 9 -61 12 -17 5 -23 2 -23 -9 0 -9 -9 -19 -20 -22 -18 -6 -20 -12
-14 -58 4 -29 8 -53 9 -55 2 -2 14 3 27 11 12 8 44 17 71 20 l47 5 0 -54 0
-53 53 6 c28 3 55 8 59 12 3 3 8 66 10 139 3 126 2 132 -17 132 -11 0 -30 3
-42 6 -16 4 -25 1 -29 -10z m66 -142 l0 -115 -37 3 -38 3 0 103 c0 110 5 122
53 122 22 0 22 -2 22 -116z m-100 6 l0 -30 -57 6 c-68 8 -80 15 -58 38 11 10
33 16 66 16 48 0 49 -1 49 -30z"/>
<path d="M916 2685 c5 -21 3 -25 -17 -25 -39 0 -53 -14 -40 -38 13 -25 15
-278 2 -286 -9 -6 -14 -96 -5 -96 3 0 18 10 34 21 25 19 49 23 187 31 87 5
164 10 171 13 9 3 12 46 12 168 0 128 3 167 15 183 8 10 15 22 15 26 0 4 -72
7 -160 7 -92 0 -168 4 -179 10 -32 17 -42 13 -35 -14z m49 -15 c-3 -5 -10 -10
-16 -10 -5 0 -9 5 -9 10 0 6 7 10 16 10 8 0 12 -4 9 -10z m270 -175 c1 -189
14 -169 -120 -180 -61 -6 -77 -4 -69 5 6 6 37 15 68 19 56 8 87 24 73 38 -4 4
-13 1 -19 -5 -7 -7 -36 -12 -65 -12 l-53 0 0 78 c0 95 7 127 25 112 9 -8 15
-8 20 0 3 5 22 10 41 10 l34 0 0 -85 c0 -50 4 -85 10 -85 6 0 10 36 10 88 0
58 5 97 15 116 18 34 9 48 -24 39 -18 -4 -22 -11 -18 -29 3 -20 0 -24 -20 -24
-13 0 -33 6 -44 13 -17 10 -23 10 -26 0 -3 -7 -16 -13 -30 -13 -22 0 -24 -3
-18 -29 l6 -29 -65 5 c-62 5 -66 4 -66 -15 0 -25 16 -37 33 -24 7 5 31 12 55
16 l42 6 0 -69 c0 -39 -4 -73 -10 -76 -5 -3 -10 -17 -10 -31 0 -24 -2 -25 -57
-22 l-58 3 -3 139 c-2 97 1 143 9 153 30 35 74 47 199 53 69 3 127 4 130 2 3
-2 5 -77 5 -167z m-340 -205 c-3 -5 -11 -10 -16 -10 -6 0 -7 5 -4 10 3 6 11
10 16 10 6 0 7 -4 4 -10z"/>
<path d="M903 2414 c-11 -30 12 -37 65 -18 58 21 51 34 -16 34 -30 0 -44 -5
-49 -16z"/>
<path d="M697 2623 c-4 -3 -7 -15 -7 -25 0 -10 -4 -19 -10 -19 -5 -1 -16 -2
-22 -3 -9 -1 -12 -24 -9 -86 1 -47 5 -87 7 -89 3 -3 11 5 20 17 22 32 34 27
34 -12 0 -19 5 -38 10 -41 6 -4 10 12 10 39 l0 46 60 0 c33 0 60 4 60 10 0 6
-23 10 -52 10 -49 0 -50 1 -35 18 25 27 21 34 -15 30 -25 -2 -33 -8 -33 -22 0
-10 -10 -23 -23 -27 -22 -8 -23 -7 -20 34 2 31 7 42 19 42 9 0 23 6 30 12 8 7
39 13 69 15 76 4 80 28 4 28 -37 0 -63 5 -74 15 -9 8 -20 12 -23 8z"/>
<path d="M38 2555 c-3 -4 -2 -21 3 -38 5 -18 9 -51 9 -74 l0 -42 28 15 c15 7
51 14 80 14 28 0 52 5 52 10 0 6 -30 10 -71 10 l-71 0 4 52 c2 41 0 53 -12 56
-9 1 -19 0 -22 -3z"/>
<path d="M1333 2302 c-14 -9 -10 -75 5 -80 16 -5 34 37 28 64 -7 25 -13 29
-33 16z"/>
<path d="M637 2293 c-8 -15 6 -84 16 -80 14 4 30 54 23 72 -6 16 -32 20 -39 8z"/>
<path d="M771 1969 c-7 -23 -10 -43 -8 -46 3 -2 23 7 45 22 38 25 44 26 183
25 167 -1 187 0 139 9 -19 4 -96 8 -170 10 -74 1 -139 6 -144 12 -19 18 -33 8
-45 -32z m49 7 c0 -2 -7 -6 -15 -10 -8 -3 -15 -1 -15 4 0 6 7 10 15 10 8 0 15
-2 15 -4z"/>
<path d="M1223 1983 c-7 -2 -13 -14 -13 -24 0 -19 -7 -20 -112 -18 l-113 2 -3
-32 c-4 -36 10 -40 31 -10 11 15 23 20 48 17 34 -3 34 -4 34 -53 l0 -50 -40 1
c-22 0 -50 4 -62 8 -22 7 -23 5 -23 -48 0 -31 2 -56 5 -56 3 0 16 6 28 14 12
8 38 16 57 18 l35 3 0 -45 c0 -42 -2 -45 -28 -48 -17 -2 -37 4 -48 14 -23 21
-27 18 -35 -26 -7 -30 -5 -33 12 -25 10 5 64 11 118 13 l99 4 -7 -32 c-3 -18
-6 -35 -6 -39 0 -3 -69 -6 -152 -6 l-153 0 1 140 c0 77 3 149 5 160 3 16 0 19
-21 17 -33 -5 -34 -7 -20 -31 10 -20 8 -21 -37 -22 -26 -1 -61 0 -78 2 -73 6
-80 5 -77 -16 1 -11 2 -56 2 -100 l-1 -80 21 23 c27 28 65 26 65 -3 0 -11 5
-18 10 -15 6 3 9 12 8 21 -2 12 8 18 35 23 63 10 62 11 62 -59 0 -63 -1 -65
-20 -55 -19 10 -20 8 -20 -40 0 -27 2 -50 5 -50 3 0 18 13 33 30 l27 30 167 1
167 2 0 164 c1 154 3 167 26 213 14 27 25 54 25 60 0 10 -35 12 -57 3z m18
-50 c-10 -17 -10 -16 -11 3 0 23 13 41 18 25 2 -6 -1 -18 -7 -28z m-31 -63 l0
-48 -46 -4 c-25 -2 -47 -1 -50 1 -2 2 -4 26 -4 52 0 47 1 48 33 51 60 6 67 0
67 -52z m-340 -112 l0 -53 -37 2 c-21 1 -44 2 -50 2 -18 1 -16 26 2 41 21 17
10 29 -23 26 -27 -3 -42 -29 -23 -41 23 -14 11 -32 -19 -27 -25 4 -30 9 -30
32 0 33 9 61 19 56 3 -2 26 0 51 4 25 4 60 8 78 9 l32 1 0 -52z m230 27 c0
-11 -12 -15 -50 -15 -76 0 -65 28 13 29 27 1 37 -3 37 -14z m110 0 c0 -11 -12
-15 -45 -15 -33 0 -45 4 -45 15 0 11 12 15 45 15 33 0 45 -4 45 -15z m0 -75
l0 -50 -44 0 c-25 0 -47 4 -51 9 -3 6 -3 28 1 50 7 41 7 41 50 41 l44 0 0 -50z"/>
<path d="M220 1928 c0 -16 1 -28 3 -28 1 0 38 7 82 15 120 21 115 23 115 -35
0 -54 -1 -56 -33 -38 -12 7 -44 14 -71 16 -47 3 -48 2 -42 -21 6 -24 5 -24
-67 -22 -39 1 -84 6 -99 10 -22 5 -28 4 -28 -8 0 -9 -7 -17 -16 -19 -14 -2
-16 -20 -17 -108 0 -60 3 -104 9 -103 5 2 10 21 12 43 3 32 7 40 23 40 15 0
19 -7 19 -35 0 -19 5 -35 10 -35 6 0 10 16 10 35 0 34 1 35 38 35 20 1 56 5
80 9 l42 8 0 -68 c0 -38 0 -72 0 -76 0 -5 -9 -8 -20 -8 -24 0 -25 -3 -18 -33
6 -20 9 -21 35 -11 15 6 81 15 147 20 65 4 120 10 121 11 1 2 7 89 13 193 6
105 14 201 17 215 l6 25 -185 0 -186 0 0 -27z m320 -4 c0 -2 -24 -4 -52 -3
-38 1 -46 3 -28 8 24 7 80 3 80 -5z m8 -129 c1 -60 1 -114 -1 -119 -3 -7 -26
-10 -56 -8 l-51 4 0 69 c0 67 1 69 25 69 14 0 25 5 25 10 0 6 -12 10 -26 10
-23 0 -25 3 -22 33 3 29 7 33 43 38 22 3 45 5 50 4 6 -1 11 -48 13 -110z
m-204 -45 c3 -36 5 -69 5 -73 1 -5 6 -5 11 -2 6 4 9 18 8 33 -3 22 1 27 25 28
27 3 27 2 27 -56 l0 -59 36 15 c20 9 47 13 60 10 21 -6 24 -12 24 -55 l0 -48
-67 -6 c-112 -11 -150 -9 -157 9 -8 21 -8 223 0 264 10 46 21 19 28 -60z m76
29 c0 -27 -3 -30 -27 -27 -22 2 -29 9 -31 29 -3 23 1 26 27 27 28 1 31 -2 31
-29z m-130 -13 c0 -19 3 -41 6 -50 5 -14 -6 -16 -80 -16 -47 0 -86 3 -86 6 0
3 5 14 10 25 9 16 7 19 -15 19 -21 0 -25 -4 -25 -31 0 -20 -4 -29 -12 -26 -7
2 -13 9 -12 15 1 7 2 21 3 32 2 34 44 46 194 59 13 1 17 -7 17 -33z"/>
<path d="M1344 1540 c6 -53 11 -57 31 -26 22 32 16 60 -13 64 -22 3 -23 1 -18
-38z"/>
<path d="M645 1557 c-6 -18 -1 -75 8 -84 12 -11 27 18 27 53 0 32 -27 56 -35
31z"/>
<path d="M264 1278 c-3 -5 -14 -8 -25 -8 -10 0 -19 -2 -19 -4 0 -2 5 -27 10
-56 6 -30 8 -61 5 -71 -5 -15 -10 -16 -48 -4 -23 7 -50 16 -60 20 -14 6 -20 2
-24 -14 -3 -12 -13 -21 -25 -21 -19 0 -20 -4 -13 -72 7 -69 25 -120 25 -70 0
18 6 22 30 22 20 0 30 -5 30 -15 0 -22 17 -18 23 5 3 12 14 20 26 20 12 0 21
5 21 10 0 6 -9 10 -20 10 -15 0 -20 7 -20 28 0 36 13 55 36 50 18 -3 19 -16
22 -173 1 -93 4 -171 6 -172 2 -2 16 2 32 8 16 7 87 15 159 18 l130 6 7 170
c7 149 17 258 29 304 3 11 -27 14 -164 15 -93 1 -171 -2 -173 -6z m316 -20 c0
-7 -5 -20 -10 -28 -8 -12 -10 -9 -10 13 0 15 5 27 10 27 6 0 10 -6 10 -12z
m-36 -14 c3 -9 4 -20 1 -24 -5 -8 -66 -5 -113 5 -14 4 -25 0 -28 -10 -4 -8
-13 -15 -21 -15 -10 0 -13 -5 -8 -17 18 -43 12 -48 -54 -51 l-64 -3 6 52 c4
28 9 54 12 57 10 10 89 19 176 21 71 1 88 -2 93 -15z m6 -71 c1 -10 3 -61 6
-114 4 -53 2 -99 -2 -101 -5 -3 -39 -3 -76 0 -67 4 -68 5 -68 34 0 24 4 28 23
26 12 -2 23 2 24 7 1 6 -9 9 -22 7 -23 -3 -25 0 -25 37 0 33 3 40 23 43 12 2
20 8 17 13 -3 6 -13 9 -22 8 -12 -2 -18 4 -18 17 0 27 27 39 88 40 43 0 52 -3
52 -17z m-265 -93 c4 -19 2 -36 -5 -45 -9 -10 -8 -19 1 -37 11 -19 14 -20 17
-6 2 11 16 17 48 20 l44 3 0 -49 0 -49 40 7 c22 3 58 9 80 12 l40 7 0 -67 0
-66 -129 0 c-71 0 -136 3 -145 6 -14 5 -16 28 -16 150 0 137 10 182 25 114z
m105 -10 l0 -40 -40 0 c-46 0 -56 13 -41 53 9 22 17 27 46 27 34 0 35 -1 35
-40z m-240 -4 c0 -28 -4 -35 -26 -40 -34 -9 -37 -5 -29 38 6 29 12 36 31 36
21 0 24 -5 24 -34z"/>
<path d="M1296 1255 c-43 -18 -260 -25 -400 -13 -24 3 -31 -2 -37 -24 -10 -36
-1 -40 50 -22 25 9 105 17 205 21 l163 6 6 -34 c6 -38 -5 -355 -13 -363 -5 -4
-224 -9 -288 -7 -10 1 -12 21 -10 79 l3 77 35 0 c35 0 35 0 38 -48 3 -41 6
-48 20 -41 9 4 51 9 93 12 l77 4 5 112 c3 61 9 123 13 139 l6 27 -88 -1 c-49
-1 -99 1 -110 5 -18 5 -22 2 -26 -18 -6 -31 1 -40 19 -24 8 6 47 12 86 12 60
1 72 -2 75 -16 3 -16 -7 -18 -104 -18 -94 0 -105 -2 -89 -14 14 -10 19 -27 19
-62 l1 -49 -35 0 c-35 0 -35 0 -32 40 1 22 5 50 7 62 4 17 2 21 -10 17 -10 -4
-15 0 -15 10 0 9 8 16 20 16 20 0 27 14 12 24 -12 7 -57 -19 -55 -32 4 -17
-169 -16 -185 0 -10 10 -14 8 -18 -9 -3 -12 -15 -24 -26 -26 -15 -4 -19 -10
-13 -24 5 -10 10 -48 13 -85 2 -37 8 -65 13 -62 5 3 9 14 9 25 0 12 7 19 20
19 13 0 20 -7 20 -19 0 -11 5 -23 10 -26 6 -4 10 5 10 19 0 24 3 26 53 28 28
0 64 2 80 2 l27 2 0 -78 c0 -83 -10 -97 -45 -62 -9 9 -17 15 -19 13 -5 -7 -16
-99 -11 -99 2 0 21 10 42 23 35 20 53 22 205 25 l167 4 5 51 c3 29 7 108 10
177 3 69 12 147 20 175 9 27 12 52 8 56 -4 4 -20 1 -36 -6z m-391 -35 c3 -5
-1 -10 -10 -10 -9 0 -13 5 -10 10 3 6 8 10 10 10 2 0 7 -4 10 -10z m314 -207
l-1 -93 -74 0 -74 0 0 30 c0 30 0 30 63 32 l62 2 -60 3 c-66 5 -77 14 -69 58
10 61 9 60 84 60 l70 0 -1 -92z m-264 41 c3 -25 3 -50 -2 -55 -4 -4 -42 -9
-83 -10 -82 -2 -83 -1 -67 64 6 23 4 27 -13 27 -17 0 -20 -7 -20 -45 0 -38 -3
-45 -20 -45 -17 0 -20 7 -20 43 0 38 3 44 28 53 15 6 64 12 108 13 l82 2 7
-47z m-35 -254 c0 -5 -4 -10 -10 -10 -5 0 -10 5 -10 10 0 6 5 10 10 10 6 0 10
-4 10 -10z"/>
<path d="M1363 818 c3 -49 19 -59 36 -22 15 33 6 64 -20 64 -16 0 -18 -6 -16
-42z"/>
<path d="M647 843 c-8 -12 -3 -71 6 -80 12 -11 27 18 27 55 0 21 -5 32 -14 32
-8 0 -17 -3 -19 -7z"/>
<path d="M910 557 c0 -2 7 -19 16 -37 14 -27 17 -68 18 -224 l1 -191 -175 -3
c-96 -1 -180 1 -186 5 -7 5 -13 35 -14 68 -4 96 -4 95 35 95 l35 0 0 -69 c0
-39 4 -72 8 -75 5 -3 24 -1 43 4 19 5 73 12 120 15 l86 7 6 121 c4 67 10 141
13 165 l7 42 -116 0 c-63 0 -122 3 -131 6 -12 5 -16 0 -16 -20 0 -16 -6 -26
-15 -26 -8 0 -15 -6 -15 -14 0 -18 -241 -30 -424 -20 -145 7 -149 6 -124 -39
6 -12 13 -51 14 -87 3 -97 3 -100 13 -100 5 0 10 43 13 95 2 55 9 100 16 107
9 9 12 7 12 -11 0 -19 4 -22 23 -17 36 10 166 25 256 29 l83 4 14 -33 c29 -68
34 -66 -163 -61 -98 3 -186 6 -196 8 -15 3 -19 -4 -22 -38 -2 -24 0 -43 4 -43
3 0 23 11 43 25 35 24 43 25 191 25 l154 0 7 -61 c9 -94 9 -95 -21 -94 -25 0
-28 -4 -31 -37 -3 -41 3 -45 33 -24 31 21 76 25 268 27 l177 2 0 206 c0 157 3
212 14 233 8 15 12 29 8 32 -6 6 -82 8 -82 3z m47 -49 c-3 -7 -5 -2 -5 12 0
14 2 19 5 13 2 -7 2 -19 0 -25z m-82 -60 c2 -7 6 -41 8 -75 l5 -63 -44 0 -44
0 0 41 c0 22 5 49 10 60 14 26 6 37 -24 32 -23 -5 -23 -7 -18 -70 l5 -66 -47
6 c-49 7 -65 -5 -53 -38 5 -13 10 -13 41 0 52 22 56 19 56 -30 0 -25 5 -45 10
-45 6 0 10 20 10 45 0 43 1 45 29 45 16 0 36 3 45 6 14 5 16 -4 16 -60 l0 -67
-107 3 -108 3 -3 60 c-4 69 15 192 31 202 37 22 175 31 182 11z m-231 -74 c4
-9 4 -32 0 -50 -6 -31 -10 -34 -40 -34 -41 0 -47 10 -39 60 6 37 9 40 40 40
21 0 35 -6 39 -16z m-454 -104 c0 -5 -4 -10 -10 -10 -5 0 -10 5 -10 10 0 6 5
10 10 10 6 0 10 -4 10 -10z m365 -180 c3 -5 -3 -10 -14 -10 -12 0 -21 5 -21
10 0 6 6 10 14 10 8 0 18 -4 21 -10z"/>
<path d="M430 508 c0 -42 4 -44 40 -23 14 8 37 14 52 15 14 0 28 5 30 10 2 6
70 13 166 17 89 3 162 10 162 15 0 4 -101 7 -225 5 l-225 -2 0 -37z"/>
<path d="M1074 125 c-7 -18 3 -35 21 -35 18 0 26 15 19 34 -8 20 -33 21 -40 1z"/>
</g>
</svg>
