<?xml version="1.0" standalone="no"?>
<!DOCTYPE svg PUBLIC "-//W3C//DTD SVG 20010904//EN"
 "http://www.w3.org/TR/2001/REC-SVG-20010904/DTD/svg10.dtd">
<svg version="1.0" xmlns="http://www.w3.org/2000/svg"
 width="86.000000pt" height="67.000000pt" viewBox="0 0 86.000000 67.000000"
 preserveAspectRatio="xMidYMid meet">
<metadata>
Created by potrace 1.16, written by Peter Selinger 2001-2019
</metadata>
<g transform="translate(0.000000,67.000000) scale(0.100000,-0.100000)"
fill="#000000" stroke="none">
<path d="M490 611 c0 -14 -6 -21 -20 -21 -20 0 -20 -4 -14 -74 l7 -74 -97 -7
c-53 -4 -134 -4 -181 0 -47 4 -88 7 -92 6 -5 0 -10 -10 -13 -23 -4 -14 -15
-24 -28 -26 -25 -4 -26 -10 -12 -47 13 -33 19 -89 19 -177 1 -42 5 -68 12 -68
7 0 10 22 7 62 -2 48 0 61 12 63 88 11 239 26 298 28 l72 3 0 -94 c0 -93 0
-94 23 -88 12 4 79 14 149 24 l126 16 6 36 c3 19 6 85 6 147 0 62 5 158 11
213 7 55 10 102 8 104 -2 2 -70 6 -151 10 -145 7 -148 7 -148 -13z m63 -8 c-7
-2 -21 -2 -30 0 -10 3 -4 5 12 5 17 0 24 -2 18 -5z m181 -105 c10 -157 12
-355 4 -363 -3 -4 -62 -7 -130 -8 l-123 -2 -3 150 c-5 179 10 291 40 301 20 6
132 20 180 23 l26 1 6 -102z m28 58 c-6 -48 -12 -46 -12 5 0 22 4 38 8 35 4
-3 6 -21 4 -40z m-285 -8 c-3 -8 -6 -5 -6 6 -1 11 2 17 5 13 3 -3 4 -12 1 -19z
m-15 -270 c-2 -5 -88 -8 -193 -8 l-189 0 0 44 c0 74 -10 70 300 103 l75 8 5
-70 c3 -38 4 -73 2 -77z m-302 138 c0 -2 -13 -6 -30 -8 -16 -3 -30 -1 -30 4 0
4 14 8 30 8 17 0 30 -2 30 -4z m-90 -58 c0 -19 -2 -20 -10 -8 -13 19 -13 30 0
30 6 0 10 -10 10 -22z m30 -108 c0 -5 -4 -10 -10 -10 -5 0 -10 5 -10 10 0 6 5
10 10 10 6 0 10 -4 10 -10z m410 -144 c0 -2 -7 -6 -15 -10 -8 -3 -15 -1 -15 4
0 6 7 10 15 10 8 0 15 -2 15 -4z"/>
</g>
</svg>
