<?xml version="1.0" standalone="no"?>
<!DOCTYPE svg PUBLIC "-//W3C//DTD SVG 20010904//EN"
 "http://www.w3.org/TR/2001/REC-SVG-20010904/DTD/svg10.dtd">
<svg version="1.0" xmlns="http://www.w3.org/2000/svg"
 width="140.000000pt" height="55.000000pt" viewBox="0 0 140.000000 55.000000"
 preserveAspectRatio="xMidYMid meet">
<metadata>
Created by potrace 1.16, written by Peter Selinger 2001-2019
</metadata>
<g transform="translate(0.000000,55.000000) scale(0.100000,-0.100000)"
fill="#000000" stroke="none">
<path d="M1204 456 c-17 -14 -65 -41 -107 -61 -42 -20 -79 -41 -82 -46 -8 -13
-145 -11 -183 2 -32 11 -32 11 -26 65 l7 54 -29 -2 c-16 -1 -40 -9 -54 -17
-14 -9 -34 -22 -45 -28 -88 -55 -124 -74 -148 -80 -24 -5 -27 -10 -27 -49 0
-47 12 -57 30 -24 9 16 15 18 30 10 17 -9 18 -14 7 -30 -6 -11 -19 -19 -28
-18 -19 3 -49 -19 -49 -37 0 -7 29 -17 73 -25 39 -7 102 -23 138 -36 37 -13
69 -24 73 -24 3 0 6 15 6 34 0 19 5 38 10 41 6 4 51 9 100 12 l90 6 43 -44
c24 -24 53 -57 65 -72 12 -16 26 -27 32 -25 5 1 -15 36 -45 76 -30 39 -57 88
-61 107 -3 19 -8 35 -11 35 -3 0 -14 -11 -25 -25 -17 -22 -27 -25 -76 -24 -93
2 -117 10 -120 41 -3 23 1 28 30 33 62 12 175 10 190 -3 8 -6 18 -9 21 -5 4 3
7 -6 7 -20 0 -32 10 -35 27 -8 7 10 38 34 70 52 69 39 68 38 61 45 -3 3 -29
-6 -57 -20 -63 -33 -98 -35 -61 -5 14 11 45 33 69 49 l43 29 40 -26 c43 -29
72 -84 62 -117 -3 -12 -19 -58 -36 -104 -31 -85 -34 -138 -4 -67 9 22 37 75
62 117 44 74 50 103 19 92 -10 -4 -26 19 -55 80 -23 47 -42 86 -43 86 -1 0
-16 -11 -33 -24z m-414 -48 c0 -25 -3 -29 -10 -18 -13 20 -13 50 0 50 6 0 10
-15 10 -32z m454 16 c4 -10 1 -14 -6 -12 -15 5 -23 28 -10 28 5 0 13 -7 16
-16z m-484 -46 c6 -29 10 -94 8 -144 l-3 -91 -83 27 c-97 31 -107 39 -88 65
13 19 15 18 56 -9 23 -15 45 -24 48 -21 4 4 -2 13 -13 21 -61 41 -60 40 -46
68 19 35 6 45 -18 15 -16 -20 -22 -22 -33 -11 -11 11 -8 18 17 38 40 33 128
94 137 94 4 0 12 -24 18 -52z m55 -48 c3 -5 -1 -10 -10 -10 -9 0 -13 5 -10 10
3 6 8 10 10 10 2 0 7 -4 10 -10z m195 -110 c0 -5 -2 -10 -4 -10 -3 0 -8 5 -11
10 -3 6 -1 10 4 10 6 0 11 -4 11 -10z"/>
<path d="M710 189 c0 -5 5 -7 10 -4 6 3 10 8 10 11 0 2 -4 4 -10 4 -5 0 -10
-5 -10 -11z"/>
<path d="M388 439 c-18 -30 -17 -31 6 -62 48 -63 49 -79 7 -145 -36 -55 -37
-60 -24 -85 19 -37 33 -34 33 8 0 41 24 105 39 105 6 0 11 -6 11 -14 0 -16 18
-31 26 -23 3 3 -2 19 -11 37 -13 25 -14 34 -4 46 9 11 9 18 1 26 -9 9 -12 8
-12 -3 -1 -41 -33 66 -34 115 -1 31 -20 28 -38 -5z"/>
<path d="M128 412 c-16 -2 -28 -4 -28 -5 0 -1 7 -27 15 -57 8 -30 11 -56 6
-58 -5 -2 -7 -58 -5 -125 2 -67 4 -126 4 -130 0 -5 4 -5 10 -2 5 3 10 28 10
54 0 27 7 81 17 122 12 53 13 74 5 77 -15 5 -15 52 -2 88 13 32 5 41 -32 36z
m15 -172 c-7 -28 -13 -25 -13 6 0 14 4 23 9 20 5 -3 7 -15 4 -26z"/>
<path d="M315 389 c-5 -14 0 -28 13 -42 35 -39 43 -62 27 -83 -13 -18 -14 -18
-20 -1 -4 9 -5 23 -2 31 4 9 0 12 -12 9 -19 -5 -45 36 -50 80 -2 17 -31 -23
-31 -44 0 -10 6 -19 13 -22 9 -3 7 -9 -5 -23 -16 -17 -18 -16 -26 7 -5 13 -12
33 -14 44 -4 18 -6 17 -18 -7 -12 -25 -11 -30 5 -48 17 -19 17 -21 1 -33 -13
-9 -16 -20 -11 -40 9 -34 21 -34 39 0 l14 28 9 -34 c11 -41 33 -54 33 -19 0
29 25 66 36 55 5 -4 3 -16 -3 -26 -12 -19 -7 -61 7 -61 4 0 21 28 39 63 l32
63 -21 48 c-11 26 -20 54 -20 62 0 22 -28 17 -35 -7z m-22 -106 c8 -7 -21 -43
-35 -43 -12 0 -10 24 4 38 14 14 22 15 31 5z"/>
<path d="M46 362 c-3 -9 -1 -33 4 -52 6 -19 10 -79 10 -132 0 -59 4 -98 10
-98 6 0 10 44 10 113 0 61 3 129 6 150 6 33 4 37 -14 37 -11 0 -23 -8 -26 -18z"/>
<path d="M1173 303 c2 -10 8 -25 11 -34 5 -11 1 -18 -13 -22 -14 -3 -21 0 -22
9 -1 8 -2 19 -3 26 0 6 -6 13 -12 15 -16 5 -27 -28 -14 -41 15 -15 12 -36 -5
-36 -9 0 -15 10 -15 26 0 28 -17 29 -34 1 -8 -13 -8 -20 1 -25 6 -4 13 -21 15
-37 2 -22 8 -29 21 -27 10 2 17 -3 17 -12 0 -16 18 -31 26 -23 3 3 -1 18 -10
35 -14 27 -13 42 5 42 3 0 9 -9 12 -20 3 -11 11 -20 17 -20 7 0 9 7 6 15 -3 8
-9 21 -12 29 -3 8 3 19 14 25 18 10 21 7 27 -19 10 -47 25 -35 18 15 -5 38 -3
45 11 45 9 0 16 8 16 17 0 13 -3 14 -12 5 -18 -18 -38 -14 -38 8 0 12 -7 20
-16 20 -11 0 -15 -6 -11 -17z"/>
</g>
</svg>
