<?xml version="1.0" standalone="no"?>
<!DOCTYPE svg PUBLIC "-//W3C//DTD SVG 20010904//EN"
 "http://www.w3.org/TR/2001/REC-SVG-20010904/DTD/svg10.dtd">
<svg version="1.0" xmlns="http://www.w3.org/2000/svg"
 width="99.000000pt" height="65.000000pt" viewBox="0 0 99.000000 65.000000"
 preserveAspectRatio="xMidYMid meet">
<metadata>
Created by potrace 1.16, written by Peter Selinger 2001-2019
</metadata>
<g transform="translate(0.000000,65.000000) scale(0.100000,-0.100000)"
fill="#000000" stroke="none">
<path d="M425 609 c-4 -5 -4 -21 -1 -35 6 -21 3 -24 -21 -24 l-28 0 -1 -150
c0 -118 2 -150 13 -150 9 0 13 17 13 62 0 34 9 97 21 139 l21 78 56 12 c57 12
368 6 381 -7 3 -3 7 -95 9 -205 l3 -199 -323 0 c-178 0 -360 3 -405 7 l-83 6
0 31 c0 63 14 70 154 74 98 3 126 7 126 18 0 11 -20 14 -89 14 -52 0 -106 6
-130 15 -38 13 -41 13 -51 -5 -5 -10 -20 -20 -32 -22 -15 -2 -21 -9 -18 -18 2
-8 6 -57 8 -107 3 -72 7 -93 18 -93 8 0 14 9 14 20 0 11 3 20 8 21 4 0 16 3
27 6 11 2 192 6 403 8 211 2 386 5 388 8 2 2 7 71 10 153 5 147 16 254 29 285
5 12 -3 21 -26 33 -41 20 -49 20 -49 -2 0 -16 -9 -17 -117 -10 -146 9 -281 26
-304 39 -12 6 -20 5 -24 -2z m65 -39 c0 -5 -9 -10 -21 -10 -11 0 -17 5 -14 10
3 6 13 10 21 10 8 0 14 -4 14 -10z m417 -32 c-3 -8 -6 -5 -6 6 -1 11 2 17 5
13 3 -3 4 -12 1 -19z m-500 -50 c-3 -7 -5 -2 -5 12 0 14 2 19 5 13 2 -7 2 -19
0 -25z"/>
<path d="M488 441 c-7 -12 -20 -21 -30 -21 -14 0 -16 -12 -17 -85 0 -79 9
-106 23 -69 4 10 13 13 25 9 11 -3 21 0 24 8 3 8 20 17 39 21 42 8 70 30 62
47 -4 8 -30 36 -60 62 -51 48 -53 48 -66 28z m62 -72 c22 -12 42 -24 44 -28 3
-4 -16 -11 -40 -17 l-45 -11 3 28 c1 16 -1 29 -5 29 -4 0 -11 0 -17 0 -5 0
-10 -16 -10 -35 0 -19 -5 -35 -10 -35 -6 0 -8 11 -4 28 16 73 19 74 84 41z"/>
<path d="M713 443 c-21 -4 -34 -33 -15 -33 4 0 16 -13 25 -30 18 -30 18 -30
-5 -30 -13 0 -34 7 -46 16 -21 14 -23 14 -32 -11 -14 -37 -6 -44 37 -34 60 14
71 11 43 -11 -55 -44 -54 -42 -29 -56 34 -19 37 -18 55 18 l17 32 20 -40 c15
-27 22 -34 25 -22 2 9 -4 30 -12 47 l-16 30 48 3 c55 4 59 21 5 28 l-37 5 27
18 c15 9 27 24 27 32 0 23 -13 18 -40 -15 -14 -16 -28 -29 -31 -30 -4 0 -12
20 -18 45 -6 25 -15 44 -19 44 -4 -1 -17 -4 -29 -6z"/>
<path d="M820 271 c0 -6 5 -13 10 -16 6 -3 10 1 10 9 0 9 -4 16 -10 16 -5 0
-10 -4 -10 -9z"/>
</g>
</svg>
