<?xml version="1.0" standalone="no"?>
<!DOCTYPE svg PUBLIC "-//W3C//DTD SVG 20010904//EN"
 "http://www.w3.org/TR/2001/REC-SVG-20010904/DTD/svg10.dtd">
<svg version="1.0" xmlns="http://www.w3.org/2000/svg"
 width="101.000000pt" height="61.000000pt" viewBox="0 0 101.000000 61.000000"
 preserveAspectRatio="xMidYMid meet">
<metadata>
Created by potrace 1.16, written by Peter Selinger 2001-2019
</metadata>
<g transform="translate(0.000000,61.000000) scale(0.100000,-0.100000)"
fill="#000000" stroke="none">
<path d="M253 603 c142 -2 372 -2 510 0 139 1 23 2 -258 2 -280 0 -394 -1
-252 -2z"/>
<path d="M655 548 c-55 -4 -174 -10 -265 -12 l-165 -4 0 -25 c1 -21 -5 -26
-37 -31 -21 -4 -38 -8 -38 -11 0 -2 9 -27 20 -55 11 -28 20 -53 20 -56 0 -3
-32 -3 -70 1 l-70 7 0 -46 c0 -25 1 -46 3 -46 1 0 24 11 51 25 81 41 86 38 86
-55 0 -65 3 -80 15 -80 12 0 14 8 9 40 l-7 40 42 0 41 0 0 -71 c0 -52 3 -70
13 -67 7 3 13 28 14 68 2 35 4 65 6 67 2 1 25 5 51 8 56 5 63 0 101 -73 15
-29 31 -52 36 -52 16 0 10 36 -10 61 -10 13 -21 34 -25 47 -7 21 -5 22 43 22
l51 0 30 -60 c17 -33 35 -60 40 -60 16 0 11 22 -15 65 -14 22 -25 43 -25 48 0
4 27 7 60 7 l61 0 29 -63 c16 -35 34 -75 39 -90 13 -35 35 -36 27 -2 -4 14
-18 50 -31 80 -14 29 -25 59 -25 65 0 24 -34 130 -42 130 -12 0 -48 -33 -48
-44 0 -5 7 -18 17 -28 15 -17 14 -18 -45 -18 -67 0 -62 -5 -66 62 -2 29 -12
29 -40 -1 -23 -24 -26 -32 -17 -49 10 -18 7 -20 -29 -19 -35 1 -40 4 -45 29
-7 32 -13 34 -40 14 -11 -8 -16 -19 -12 -30 5 -13 -1 -16 -35 -16 l-41 0 7 38
c3 20 9 47 12 59 6 21 4 23 -27 17 -19 -4 -35 -7 -35 -8 -1 -1 2 -25 5 -53 l7
-53 -38 0 c-35 0 -38 2 -38 29 0 18 6 31 17 35 15 6 15 8 -1 19 -25 18 -13
107 14 107 10 0 39 9 65 21 37 16 88 24 234 35 102 7 209 14 237 14 l52 0 11
-62 c10 -55 31 -251 29 -267 -3 -31 4 -71 13 -71 9 0 10 31 5 113 -5 80 -2
140 9 211 8 55 15 101 15 103 0 5 -149 0 -255 -9z m225 -47 c0 -52 -16 -62
-23 -13 -5 40 -1 52 14 52 5 0 9 -18 9 -39z m-590 4 c0 -2 -9 -9 -20 -15 -16
-9 -20 -8 -20 5 0 8 9 15 20 15 11 0 20 -2 20 -5z m-90 -65 c0 -5 -4 -10 -10
-10 -5 0 -10 5 -10 10 0 6 5 10 10 10 6 0 10 -4 10 -10z m107 -102 c-3 -8 -6
-5 -6 6 -1 11 2 17 5 13 3 -3 4 -12 1 -19z m413 -23 c0 -8 -2 -15 -4 -15 -2 0
-6 7 -10 15 -3 8 -1 15 4 15 6 0 10 -7 10 -15z m-160 -23 c0 -15 -2 -15 -10
-2 -13 20 -13 33 0 25 6 -3 10 -14 10 -23z"/>
<path d="M388 423 c-26 -28 -27 -53 -3 -53 7 0 28 -12 45 -26 36 -31 53 -24
22 9 -14 15 -22 36 -22 60 0 44 -8 46 -42 10z"/>
</g>
</svg>
