<?xml version="1.0" standalone="no"?>
<!DOCTYPE svg PUBLIC "-//W3C//DTD SVG 20010904//EN"
 "http://www.w3.org/TR/2001/REC-SVG-20010904/DTD/svg10.dtd">
<svg version="1.0" xmlns="http://www.w3.org/2000/svg"
 width="32.000000pt" height="56.000000pt" viewBox="0 0 32.000000 56.000000"
 preserveAspectRatio="xMidYMid meet">
<metadata>
Created by potrace 1.16, written by Peter Selinger 2001-2019
</metadata>
<g transform="translate(0.000000,56.000000) scale(0.100000,-0.100000)"
fill="#000000" stroke="none">
<path d="M170 521 c0 -10 6 -36 13 -57 24 -68 28 -114 10 -114 -12 0 -14 -7
-9 -32 9 -42 27 -184 25 -195 -4 -25 2 -63 11 -63 6 0 10 31 10 73 1 39 5 92
11 117 24 114 24 113 1 106 -19 -7 -21 -4 -17 21 3 15 9 54 15 87 5 32 7 62 4
67 -3 5 -21 9 -40 9 -27 0 -34 -4 -34 -19z m50 -37 c0 -21 -4 -33 -10 -29 -5
3 -10 19 -10 36 0 16 5 29 10 29 6 0 10 -16 10 -36z m10 -184 c0 -16 -4 -30
-9 -30 -10 0 -21 47 -13 55 13 13 22 3 22 -25z"/>
<path d="M30 521 c0 -6 4 -12 9 -16 5 -3 17 -38 26 -77 15 -67 15 -73 0 -85
-16 -11 -15 -16 4 -72 12 -34 21 -82 21 -109 0 -54 9 -92 21 -92 4 0 6 21 2
48 -5 43 7 151 23 210 5 18 2 22 -15 22 -25 0 -26 13 -6 95 21 87 22 85 -35
85 -27 0 -50 -4 -50 -9z m70 -33 c0 -40 -17 -54 -22 -19 -3 17 -2 33 0 36 12
12 22 3 22 -17z m9 -180 c0 -7 -4 -22 -9 -33 -7 -16 -9 -17 -9 -3 -1 9 -4 23
-7 32 -4 11 -1 16 10 16 9 0 16 -6 15 -12z"/>
</g>
</svg>
