<?xml version="1.0" standalone="no"?>
<!DOCTYPE svg PUBLIC "-//W3C//DTD SVG 20010904//EN"
 "http://www.w3.org/TR/2001/REC-SVG-20010904/DTD/svg10.dtd">
<svg version="1.0" xmlns="http://www.w3.org/2000/svg"
 width="105.000000pt" height="102.000000pt" viewBox="0 0 105.000000 102.000000"
 preserveAspectRatio="xMidYMid meet">
<metadata>
Created by potrace 1.16, written by Peter Selinger 2001-2019
</metadata>
<g transform="translate(0.000000,102.000000) scale(0.100000,-0.100000)"
fill="#000000" stroke="none">
<path d="M839 985 c-4 -3 -100 -12 -215 -20 -201 -15 -310 -12 -346 7 -15 7
-18 4 -18 -22 0 -25 -4 -30 -24 -30 -30 0 -35 -14 -25 -60 14 -61 12 -68 -21
-65 -41 3 -46 10 -26 39 9 14 16 29 16 33 0 4 -11 -9 -25 -30 -32 -46 -71 -53
-61 -9 l6 27 -16 -22 c-9 -13 -23 -23 -30 -23 -9 0 -14 -12 -14 -33 0 -38 8
-51 24 -38 12 10 60 20 124 26 36 4 42 2 42 -15 0 -15 -10 -20 -44 -25 -24 -4
-58 -4 -76 0 l-31 7 3 -69 c3 -68 20 -94 26 -38 4 40 27 55 83 55 l48 0 3 -77
c2 -50 7 -78 16 -81 9 -3 11 12 6 66 l-7 70 31 7 c56 12 69 1 77 -65 7 -56 17
-80 28 -63 3 5 1 33 -4 63 -5 35 -5 58 2 65 5 5 80 12 165 15 l154 5 41 -77
c37 -71 59 -96 59 -66 0 6 -18 44 -40 85 -29 52 -44 95 -53 148 -6 41 -16 75
-22 74 -5 0 -20 -13 -33 -29 l-22 -29 26 -38 26 -38 -144 -6 c-79 -3 -147 -2
-151 2 -5 3 -3 25 4 48 7 23 10 43 7 46 -3 3 -20 2 -38 -1 -32 -7 -32 -8 -26
-52 5 -39 4 -43 -12 -37 -9 4 -29 10 -44 12 -35 6 -42 38 -25 117 14 71 13 71
184 81 65 3 168 10 228 15 61 6 118 10 127 10 27 0 41 -80 45 -257 2 -90 8
-163 12 -163 5 0 12 93 15 208 4 114 8 216 9 227 1 13 -5 21 -18 23 -12 2 -23
0 -26 -3z m18 -77 c-2 -13 -4 -5 -4 17 -1 22 1 32 4 23 2 -10 2 -28 0 -40z
m-607 -30 c0 -16 -3 -19 -11 -11 -6 6 -8 16 -5 22 11 17 16 13 16 -11z m440
-90 c0 -18 -2 -20 -9 -8 -6 8 -7 18 -5 22 9 14 14 9 14 -14z m-314 -35 c-10
-10 -19 5 -10 18 6 11 8 11 12 0 2 -7 1 -15 -2 -18z"/>
<path d="M996 588 c-10 -28 0 -83 14 -83 20 0 37 51 24 72 -14 22 -33 28 -38
11z"/>
<path d="M251 401 c3 -32 -1 -41 -20 -41 -28 0 -32 -12 -22 -65 l9 -47 -37 7
c-20 3 -44 8 -53 11 -15 5 -18 -1 -18 -36 0 -39 2 -42 23 -36 12 4 36 9 54 13
l32 5 3 -48 c3 -51 22 -64 24 -16 3 65 5 72 19 72 8 0 16 -6 16 -12 1 -7 2
-17 4 -23 1 -5 3 -20 3 -33 3 -39 22 -14 22 29 l0 39 145 0 c179 0 201 -8 259
-99 22 -34 46 -61 53 -61 19 0 17 5 -25 68 -44 66 -64 112 -64 147 0 33 -19
32 -39 -3 l-15 -27 -157 3 -157 3 0 50 c0 66 -24 62 -28 -5 -3 -38 -6 -47 -20
-44 -12 3 -16 12 -14 33 9 84 56 97 335 94 l204 -2 7 -71 c4 -39 10 -114 13
-166 5 -91 8 -108 17 -99 2 2 9 76 14 164 6 88 14 171 18 184 6 22 5 23 -22
19 -16 -3 -33 -6 -39 -8 -5 -2 -57 0 -115 3 -58 4 -178 9 -268 11 -146 3 -163
2 -161 -13z m579 -38 c0 -10 -5 -25 -10 -33 -7 -11 -10 -7 -10 18 0 17 5 32
10 32 6 0 10 -8 10 -17z"/>
<path d="M990 85 c-10 -12 -10 -18 0 -30 16 -19 39 -19 46 0 6 15 -11 45 -26
45 -4 0 -13 -7 -20 -15z"/>
<path d="M448 3 c6 -2 18 -2 25 0 6 3 1 5 -13 5 -14 0 -19 -2 -12 -5z"/>
<path d="M518 3 c12 -2 30 -2 40 0 9 3 -1 5 -23 4 -22 0 -30 -2 -17 -4z"/>
<path d="M698 3 c68 -2 176 -2 240 0 64 1 9 3 -123 3 -132 0 -185 -2 -117 -3z"/>
</g>
</svg>
