<?xml version="1.0" standalone="no"?>
<!DOCTYPE svg PUBLIC "-//W3C//DTD SVG 20010904//EN"
 "http://www.w3.org/TR/2001/REC-SVG-20010904/DTD/svg10.dtd">
<svg version="1.0" xmlns="http://www.w3.org/2000/svg"
 width="103.000000pt" height="55.000000pt" viewBox="0 0 103.000000 55.000000"
 preserveAspectRatio="xMidYMid meet">
<metadata>
Created by potrace 1.16, written by Peter Selinger 2001-2019
</metadata>
<g transform="translate(0.000000,55.000000) scale(0.100000,-0.100000)"
fill="#000000" stroke="none">
<path d="M250 492 c0 -10 -5 -23 -11 -29 -7 -7 -8 -17 -1 -29 5 -11 12 -42 15
-70 l6 -52 -37 4 c-144 14 -150 14 -156 -9 -11 -41 -7 -50 16 -43 57 18 135
35 154 36 20 0 21 -4 17 -72 -11 -222 -12 -210 6 -202 45 19 130 24 388 25
209 0 283 4 283 12 0 11 -49 35 -220 107 -120 51 -230 104 -230 111 0 17 223
99 398 145 79 21 102 31 102 44 0 14 -10 17 -57 17 -32 -1 -130 2 -218 6 -88
4 -217 9 -287 12 -85 4 -128 2 -128 -5 0 -5 9 -10 20 -10 11 0 20 -4 20 -10 0
-5 -14 -10 -31 -10 -26 0 -29 3 -24 20 5 14 2 20 -9 20 -9 0 -16 -8 -16 -18z
m185 -20 c-12 -8 -14 -232 -2 -232 5 0 7 -30 6 -67 -1 -38 2 -68 7 -68 5 0 10
28 12 63 2 34 6 62 10 62 14 0 167 -50 199 -65 17 -8 34 -15 37 -15 20 0 145
-64 140 -72 -7 -11 -481 -3 -543 8 l-34 7 7 146 c7 153 14 211 25 211 3 0 6
-17 6 -37 2 -195 6 -273 15 -273 6 0 10 43 10 108 0 114 9 212 19 212 3 0 7
-12 7 -27 7 -153 18 -293 24 -293 4 0 8 73 8 161 0 125 3 164 13 170 17 11 48
12 34 1z m422 -6 c18 -1 35 -4 37 -7 11 -10 -376 -119 -422 -119 -20 0 -23 4
-18 28 3 15 8 44 12 64 3 22 13 39 23 42 14 4 282 -1 368 -8z m-367 -150 c0
-2 -7 -7 -16 -10 -8 -3 -12 -2 -9 4 6 10 25 14 25 6z"/>
</g>
</svg>
