<?xml version="1.0" standalone="no"?>
<!DOCTYPE svg PUBLIC "-//W3C//DTD SVG 20010904//EN"
 "http://www.w3.org/TR/2001/REC-SVG-20010904/DTD/svg10.dtd">
<svg version="1.0" xmlns="http://www.w3.org/2000/svg"
 width="98.000000pt" height="176.000000pt" viewBox="0 0 98.000000 176.000000"
 preserveAspectRatio="xMidYMid meet">
<metadata>
Created by potrace 1.16, written by Peter Selinger 2001-2019
</metadata>
<g transform="translate(0.000000,176.000000) scale(0.100000,-0.100000)"
fill="#000000" stroke="none">
<path d="M570 1715 c-9 -11 -9 -22 -1 -46 14 -42 14 -49 -4 -49 -11 0 -15 12
-15 44 l0 44 -65 0 c-60 0 -66 -2 -71 -23 -3 -13 0 -33 6 -45 12 -22 11 -22
-71 -19 -77 3 -82 2 -90 -19 -5 -12 -15 -22 -24 -22 -17 0 -21 -25 -5 -35 5
-3 10 -21 10 -39 0 -19 3 -48 6 -66 6 -29 10 -31 35 -26 27 5 29 3 29 -25 0
-18 4 -28 10 -24 6 3 10 19 10 35 0 32 14 40 69 40 38 0 38 -1 45 -46 8 -64 8
-86 -3 -80 -11 7 -24 -55 -13 -66 5 -5 31 0 58 11 27 11 70 25 97 32 42 12 64
29 37 29 -6 0 -10 30 -10 70 l0 70 38 0 c47 0 52 -6 123 -132 30 -54 59 -98
65 -98 8 0 13 54 17 178 3 122 10 192 20 224 11 32 13 50 5 54 -5 4 -13 2 -17
-3 -3 -6 -13 -12 -21 -15 -12 -4 -14 -34 -11 -199 2 -128 -1 -191 -7 -184 -6
6 -27 41 -48 79 -28 52 -38 81 -38 118 -1 53 -7 59 -31 26 -11 -17 -26 -23
-53 -23 -20 0 -40 4 -44 10 -10 14 -10 103 0 109 5 3 45 6 89 7 85 2 122 12
90 25 -10 4 -54 3 -98 -3 -44 -5 -82 -7 -84 -4 -3 2 -5 26 -5 53 0 49 -8 59
-30 33z m-71 -82 c1 -7 -3 -13 -9 -13 -5 0 -10 15 -9 33 0 27 2 29 9 12 5 -11
9 -26 9 -32z m31 9 c0 -21 -2 -24 -10 -12 -13 20 -13 53 0 45 6 -3 10 -18 10
-33z m-73 -14 c-3 -8 -6 -5 -6 6 -1 11 2 17 5 13 3 -3 4 -12 1 -19z m-23 -50
c3 -13 6 -42 6 -64 0 -46 -12 -54 -77 -54 -37 0 -40 9 -21 71 13 45 8 55 -20
40 -16 -9 -18 -18 -14 -61 4 -45 3 -50 -16 -50 -26 0 -34 33 -19 78 10 30 19
39 52 48 66 20 102 18 109 -8z m40 -40 c5 -55 3 -79 -8 -67 -8 9 -15 129 -7
129 4 0 11 -28 15 -62z m34 -48 l0 -25 -8 25 c-4 14 -8 45 -8 70 l1 45 8 -45
c4 -25 7 -56 7 -70z m30 20 c0 -37 -1 -40 -8 -20 -4 14 -8 45 -8 70 0 37 1 40
8 20 4 -14 8 -45 8 -70z m42 53 c0 -21 3 -48 6 -60 5 -16 2 -23 -8 -23 -11 0
-17 15 -22 46 -9 66 -8 74 9 74 11 0 15 -11 15 -37z m10 -179 c0 -36 -4 -64
-10 -64 -6 0 -10 30 -10 71 0 44 4 68 10 64 6 -3 10 -35 10 -71z m-101 -23 c1
-32 -3 -51 -8 -45 -11 12 -23 119 -14 128 12 12 22 -25 22 -83z m32 12 c2 -29
0 -56 -4 -59 -4 -4 -7 11 -7 33 0 22 -3 56 -6 74 -4 24 -3 30 4 19 6 -8 12
-39 13 -67z m32 15 c5 -57 3 -78 -7 -67 -8 9 -15 129 -7 129 4 0 11 -28 14
-62z m-83 -102 c0 -3 -4 -8 -10 -11 -5 -3 -10 -1 -10 4 0 6 5 11 10 11 6 0 10
-2 10 -4z"/>
<path d="M100 1541 c0 -11 -3 -26 -6 -35 -8 -20 14 -21 52 -1 16 8 39 15 52
15 23 0 31 18 10 24 -7 3 -34 7 -60 10 -42 5 -48 3 -48 -13z"/>
<path d="M967 1383 c-9 -14 -5 -83 4 -83 5 0 9 20 9 45 0 43 -4 53 -13 38z"/>
<path d="M853 1129 c-40 -12 -45 -19 -33 -58 l9 -31 -80 0 -81 0 4 43 3 42
-40 0 c-43 0 -44 -3 -30 -57 6 -22 4 -28 -9 -28 -12 0 -16 10 -16 43 l0 43
-60 0 -61 0 7 -44 7 -44 -147 4 c-80 1 -146 0 -146 -4 0 -4 -15 -10 -34 -14
-41 -7 -49 -22 -33 -63 15 -39 0 -59 -32 -42 -16 9 -21 9 -21 -1 0 -7 -3 -24
-7 -37 -5 -20 -3 -23 13 -19 49 14 48 15 45 -29 -3 -57 16 -56 24 1 6 39 10
45 37 50 51 10 78 7 78 -9 0 -16 -7 -18 -56 -15 -28 1 -32 -2 -37 -32 -2 -18
-3 -35 -1 -37 2 -3 20 3 39 12 52 25 55 22 48 -28 -4 -31 -2 -45 6 -45 6 0 12
5 12 10 1 6 3 15 4 20 1 6 3 24 4 40 l1 30 104 0 c101 0 103 0 101 -22 -1 -13
-3 -33 -4 -46 -1 -18 -6 -23 -23 -20 -20 3 -23 -2 -26 -31 -3 -32 -2 -33 25
-26 52 13 138 23 248 30 l110 6 18 -31 c10 -16 23 -28 28 -24 6 4 9 74 8 182
-2 142 1 184 13 213 9 20 21 40 27 43 15 10 14 36 -1 35 -7 0 -27 -5 -45 -10z
m-294 -71 c1 -10 -3 -18 -9 -18 -5 0 -10 17 -9 38 0 30 2 33 9 17 5 -11 9 -28
9 -37z m-45 20 c9 -34 8 -38 -9 -38 -10 0 -15 10 -15 30 0 35 15 40 24 8z
m123 -25 c-3 -10 -5 -2 -5 17 0 19 2 27 5 18 2 -10 2 -26 0 -35z m223 33 c0
-8 -4 -18 -10 -21 -5 -3 -10 3 -10 14 0 12 5 21 10 21 6 0 10 -6 10 -14z
m-640 -70 c0 -3 -4 -8 -10 -11 -5 -3 -10 -1 -10 4 0 6 5 11 10 11 6 0 10 -2
10 -4z m615 -99 c4 -56 5 -124 3 -150 l-3 -48 -57 85 c-32 47 -58 90 -58 95 0
25 -21 18 -34 -11 l-14 -33 -1 46 c-1 26 -4 60 -7 77 -7 35 -4 36 103 40 l61
2 7 -103z m-632 59 c12 3 29 13 38 20 11 10 46 14 121 14 120 0 118 2 118 -96
0 -61 -4 -64 -123 -64 -88 0 -99 9 -74 60 9 16 12 32 8 34 -14 9 -51 -6 -51
-20 0 -10 -14 -14 -50 -14 -49 0 -50 0 -50 32 0 17 8 40 18 51 17 19 17 19 20
-2 3 -17 8 -20 25 -15z m317 -40 c0 -41 -4 -78 -10 -81 -6 -4 -10 23 -10 74 0
47 4 81 10 81 6 0 10 -31 10 -74z m37 4 c-6 -97 -17 -101 -17 -7 0 46 4 77 10
77 6 0 9 -27 7 -70z m51 0 c-7 -100 -26 -113 -33 -24 -5 62 3 94 22 94 13 0
15 -12 11 -70z m42 -17 c0 -51 -3 -63 -16 -63 -12 0 -15 6 -10 23 3 12 6 47 6
77 0 39 3 51 10 40 5 -8 10 -43 10 -77z m65 -63 c3 -5 1 -10 -4 -10 -6 0 -11
5 -11 10 0 6 2 10 4 10 3 0 8 -4 11 -10z m-154 -100 c5 0 9 15 9 34 0 21 6 36
15 40 12 4 15 -5 15 -49 0 -54 0 -55 -30 -55 l-30 0 2 58 c1 49 2 51 5 15 2
-24 8 -43 14 -43z m84 25 c0 -30 -5 -50 -12 -52 -10 -4 -13 11 -13 52 0 41 3
56 13 53 7 -3 12 -23 12 -53z m-125 -5 c0 -46 -11 -63 -25 -41 -8 14 6 91 16
91 5 0 9 -22 9 -50z m223 26 c30 -33 47 -54 47 -60 0 -2 -27 -6 -60 -8 l-60
-3 0 48 c0 44 2 47 25 47 15 0 36 -11 48 -24z"/>
<path d="M937 756 c-5 -13 -2 -39 9 -75 3 -11 7 -11 20 0 20 17 15 83 -7 87
-9 2 -19 -4 -22 -12z"/>
<path d="M572 538 c-7 -7 -12 -40 -12 -80 0 -54 -3 -68 -15 -68 -12 0 -15 14
-15 64 0 36 -4 68 -10 71 -11 7 -12 1 -10 -78 1 -52 -1 -58 -17 -55 -15 3 -18
13 -18 63 -1 84 -19 86 -23 3 -3 -61 -5 -68 -24 -68 -19 0 -20 4 -16 75 3 41
2 75 -1 75 -4 0 -16 -7 -28 -15 -20 -14 -20 -16 -5 -58 22 -61 14 -76 -37 -67
-47 8 -51 6 -51 -31 0 -15 -7 -29 -15 -33 -10 -3 -14 -16 -13 -33 3 -31 0 -33
-38 -33 l-27 0 7 65 c7 68 3 75 -29 51 -18 -13 -18 -18 -7 -48 19 -55 16 -65
-18 -60 -17 2 -33 8 -36 13 -13 22 -24 5 -24 -36 0 -25 2 -45 5 -45 4 0 20 7
36 16 42 21 57 12 61 -37 2 -24 9 -44 16 -47 10 -3 11 7 6 47 l-7 51 37 0 c20
0 39 -6 41 -12 2 -7 6 -48 8 -91 2 -42 7 -80 10 -83 3 -3 21 -1 39 5 18 6 116
11 218 12 102 1 188 3 191 5 4 2 -4 40 -17 85 -13 45 -21 92 -18 104 5 22 4
23 -59 18 l-64 -6 -7 43 c-4 24 -5 44 -4 45 2 2 45 5 96 6 l92 4 12 -35 c6
-19 13 -88 15 -152 3 -65 9 -118 14 -118 5 0 9 60 9 133 0 72 5 149 11 170 13
49 6 59 -34 42 -18 -7 -57 -14 -87 -14 -30 0 -70 -3 -89 -6 l-33 -4 7 66 c4
37 9 72 12 80 6 16 -19 17 -35 1z m-117 -218 c0 -39 -3 -45 -22 -48 -21 -3
-23 0 -23 48 0 48 2 51 23 48 19 -3 22 -9 22 -48z m55 0 c0 -38 -4 -50 -15
-50 -11 0 -15 12 -15 50 0 38 4 50 15 50 11 0 15 -12 15 -50z m54 15 c8 -39 2
-55 -20 -55 -10 0 -14 12 -14 45 0 56 24 63 34 10z m-174 -20 l0 -45 -40 0
c-39 0 -40 1 -40 34 0 28 5 36 28 44 48 18 52 15 52 -33z m251 -65 c10 0 19
-7 19 -14 0 -8 13 -34 29 -58 16 -24 31 -52 35 -63 5 -19 2 -20 -62 -15 l-67
5 -3 79 c-3 69 -1 78 13 72 9 -3 25 -6 36 -6z m-186 -75 c0 -64 -2 -70 -20
-67 -11 2 -22 5 -23 7 -2 2 -1 33 3 70 6 53 11 65 24 63 13 -3 16 -17 16 -73z
m55 0 c0 -60 -3 -75 -15 -75 -12 0 -15 15 -15 75 0 60 3 75 15 75 12 0 15 -15
15 -75z m60 -1 c0 -65 -2 -75 -16 -72 -13 2 -17 17 -20 67 -3 70 0 81 22 81
11 0 14 -16 14 -76z m-174 20 c-3 -26 -6 -55 -6 -65 0 -14 -7 -19 -29 -19 -36
0 -37 1 -46 73 l-7 57 47 0 48 0 -7 -46z"/>
<path d="M911 127 c-15 -19 -3 -49 18 -45 9 2 16 13 16 27 0 29 -17 37 -34 18z"/>
<path d="M733 3 c48 -2 125 -2 170 0 45 1 6 3 -88 3 -93 0 -130 -2 -82 -3z"/>
</g>
</svg>
