<?xml version="1.0" standalone="no"?>
<!DOCTYPE svg PUBLIC "-//W3C//DTD SVG 20010904//EN"
 "http://www.w3.org/TR/2001/REC-SVG-20010904/DTD/svg10.dtd">
<svg version="1.0" xmlns="http://www.w3.org/2000/svg"
 width="127.000000pt" height="148.000000pt" viewBox="0 0 127.000000 148.000000"
 preserveAspectRatio="xMidYMid meet">
<metadata>
Created by potrace 1.16, written by Peter Selinger 2001-2019
</metadata>
<g transform="translate(0.000000,148.000000) scale(0.100000,-0.100000)"
fill="#000000" stroke="none">
<path d="M1015 1390 c-10 -11 -27 -22 -37 -26 -11 -3 -29 -13 -40 -23 -74 -62
-138 -120 -138 -127 0 -2 16 -20 35 -40 19 -19 35 -40 35 -47 0 -7 -25 -32
-56 -57 -72 -58 -84 -70 -84 -80 0 -5 -92 -9 -204 -9 l-204 -1 -42 66 c-43 65
-43 65 -31 116 6 28 10 53 8 55 -3 2 -17 -8 -33 -21 -16 -14 -40 -33 -52 -43
l-24 -19 38 -24 c35 -23 111 -116 103 -125 -3 -2 -45 -5 -94 -6 l-90 -2 -3 46
c-2 31 4 62 17 93 30 66 22 72 -58 42 -17 -6 -20 -12 -13 -21 15 -18 32 -145
32 -236 0 -47 4 -81 10 -81 6 0 10 29 10 68 l0 68 112 -1 112 0 39 -55 c21
-30 42 -56 47 -58 20 -7 9 22 -25 68 l-36 48 183 2 c100 0 193 3 206 7 21 5
22 3 17 -20 -6 -21 -1 -29 27 -48 18 -12 53 -47 77 -77 65 -81 62 -48 -4 39
-30 41 -55 80 -55 86 0 7 12 13 26 13 19 0 25 -4 21 -15 -4 -8 5 -22 21 -34
15 -11 34 -31 42 -45 7 -14 20 -26 27 -26 9 0 5 14 -15 43 -39 56 -48 87 -28
87 9 0 16 -6 16 -14 0 -8 8 -21 18 -28 10 -7 29 -32 42 -55 13 -23 27 -40 31
-37 5 3 -4 28 -20 57 -44 82 -45 96 -8 140 37 42 53 46 62 16 5 -16 -1 -28
-25 -51 l-33 -29 25 -27 c13 -15 34 -48 47 -75 12 -26 26 -45 31 -42 10 6 6
19 -34 95 l-29 55 82 77 82 78 -20 34 c-12 19 -44 62 -72 97 -48 60 -51 67
-45 107 6 46 -2 52 -29 22z m11 -92 c58 -62 124 -144 124 -156 0 -5 -6 -15
-14 -21 -11 -10 -28 7 -90 89 -69 92 -89 130 -68 130 4 0 26 -19 48 -42z m-50
-30 c35 -37 124 -165 124 -177 0 -4 -9 -16 -19 -25 -18 -17 -21 -14 -83 81
-67 102 -89 153 -65 153 7 0 27 -15 43 -32z m-52 -52 l20 -26 -26 -26 -25 -26
-23 36 c-28 47 -22 90 12 77 12 -4 31 -20 42 -35z m46 -65 c8 -16 5 -23 -19
-40 -41 -29 -60 2 -24 41 21 23 30 23 43 -1z m-747 -10 c-3 -12 -11 -17 -19
-14 -17 6 -18 20 -1 26 22 9 25 7 20 -12z m-132 -38 c-9 -16 -10 -15 -11 8 0
14 3 29 8 33 12 12 14 -22 3 -41z m780 -63 c-23 -20 -41 -41 -41 -48 0 -13
-26 -17 -34 -4 -3 5 16 35 41 67 43 55 47 57 60 39 13 -17 11 -22 -26 -54z
m129 60 c0 -10 -61 -69 -86 -83 -8 -4 -14 -15 -14 -22 0 -8 -7 -15 -15 -15
-28 0 -15 27 39 79 53 49 76 62 76 41z m-220 -100 c0 -5 -5 -10 -11 -10 -5 0
-7 5 -4 10 3 6 8 10 11 10 2 0 4 -4 4 -10z m10 -70 c0 -5 -2 -10 -4 -10 -3 0
-8 5 -11 10 -3 6 -1 10 4 10 6 0 11 -4 11 -10z"/>
<path d="M785 860 c3 -5 8 -10 11 -10 2 0 4 5 4 10 0 6 -5 10 -11 10 -5 0 -7
-4 -4 -10z"/>
<path d="M1049 619 c-15 -10 -40 -21 -56 -22 -15 -2 -37 -9 -48 -15 -11 -5
-31 -11 -45 -11 -65 -3 -98 -10 -137 -27 -45 -20 -55 -39 -25 -46 10 -3 31
-33 47 -67 16 -33 33 -61 37 -61 13 0 9 14 -18 75 -24 53 -25 58 -10 73 24 24
45 7 83 -66 17 -33 33 -67 36 -74 2 -7 8 -10 12 -6 5 4 -4 37 -19 72 -28 66
-28 106 -1 106 13 0 75 -115 75 -139 0 -6 5 -11 10 -11 16 0 12 33 -10 75 -19
38 -20 95 -1 95 20 0 57 -63 85 -143 3 -10 10 -16 16 -12 6 3 1 26 -12 58 -31
79 -31 81 -2 116 32 39 21 58 -17 30z m-19 -49 c0 -5 -2 -10 -4 -10 -3 0 -8 5
-11 10 -3 6 -1 10 4 10 6 0 11 -4 11 -10z"/>
<path d="M235 500 c-30 -24 -61 -40 -77 -40 -33 0 -34 -5 -11 -56 13 -31 16
-66 14 -176 -1 -86 2 -139 9 -143 11 -7 12 -4 14 85 l1 65 95 2 c123 3 133 0
156 -42 10 -19 22 -35 26 -35 14 0 9 37 -7 50 -8 7 -15 16 -15 21 0 5 66 9
148 9 81 0 154 5 162 10 19 12 27 12 -178 14 -140 1 -165 4 -173 18 -5 9 -30
42 -56 74 -46 57 -48 61 -47 121 0 35 -2 63 -5 62 -3 0 -28 -18 -56 -39z m35
-37 c0 -26 -1 -26 -17 -10 -16 16 -16 19 -3 27 20 13 20 13 20 -17z m6 -65
c64 -68 108 -127 101 -134 -3 -3 -48 -3 -99 1 l-94 7 8 80 c11 118 14 120 84
46z m-96 20 c0 -19 -2 -20 -10 -8 -13 19 -13 30 0 30 6 0 10 -10 10 -22z"/>
<path d="M1232 424 c2 -28 8 -49 16 -52 10 -3 12 8 10 44 -2 28 -8 49 -16 52
-10 3 -12 -8 -10 -44z"/>
<path d="M985 363 c-33 -8 -79 -20 -102 -25 -48 -12 -51 -17 -23 -43 28 -25
25 -35 -10 -35 -35 0 -40 22 -15 70 9 17 12 30 8 30 -17 0 -93 -36 -93 -44 0
-4 22 -32 49 -62 27 -29 65 -83 85 -118 38 -68 56 -88 56 -62 0 9 -24 52 -54
96 l-55 80 34 0 c30 0 36 -5 51 -40 10 -22 24 -40 31 -40 18 0 17 3 -17 57
-33 52 -38 88 -14 97 24 9 44 -13 94 -106 45 -85 67 -94 31 -12 -12 25 -18 51
-14 57 3 6 1 7 -5 3 -13 -8 -32 24 -32 53 0 18 3 20 19 9 18 -11 49 -61 97
-158 17 -34 24 -41 29 -28 4 10 -10 45 -38 95 -42 73 -44 80 -31 105 8 15 14
29 14 33 0 8 -28 4 -95 -12z m-177 -54 c-2 -6 -8 -10 -13 -10 -5 0 -11 4 -13
10 -2 6 4 11 13 11 9 0 15 -5 13 -11z"/>
</g>
</svg>
