<?xml version="1.0" standalone="no"?>
<!DOCTYPE svg PUBLIC "-//W3C//DTD SVG 20010904//EN"
 "http://www.w3.org/TR/2001/REC-SVG-20010904/DTD/svg10.dtd">
<svg version="1.0" xmlns="http://www.w3.org/2000/svg"
 width="117.000000pt" height="55.000000pt" viewBox="0 0 117.000000 55.000000"
 preserveAspectRatio="xMidYMid meet">
<metadata>
Created by potrace 1.16, written by Peter Selinger 2001-2019
</metadata>
<g transform="translate(0.000000,55.000000) scale(0.100000,-0.100000)"
fill="#000000" stroke="none">
<path d="M290 480 c-20 -5 -25 -12 -23 -36 5 -67 3 -292 -3 -331 -3 -24 -10
-40 -15 -37 -5 3 -6 71 -3 157 5 107 3 149 -4 142 -6 -6 -12 -59 -13 -120 -2
-111 -10 -163 -21 -134 -2 8 -2 43 1 79 3 36 4 88 1 117 -5 48 -4 52 22 68 27
15 37 35 19 35 -4 0 -26 -12 -47 -26 -21 -15 -65 -40 -97 -56 -55 -28 -58 -31
-52 -59 5 -20 1 -38 -9 -54 -21 -32 -20 -35 7 -35 12 -1 38 -9 57 -18 30 -14
35 -23 38 -55 6 -70 22 -27 22 59 0 56 4 84 11 84 9 0 10 -30 6 -105 -4 -65
-3 -105 3 -105 6 0 10 10 10 22 0 21 1 21 30 -7 45 -43 53 -27 61 130 4 75 15
167 24 206 19 76 14 90 -25 79z m12 -62 c-5 -31 -5 -32 -14 -8 -9 26 -3 54 10
46 5 -3 7 -20 4 -38z m-112 -103 c0 -53 -16 -60 -22 -10 -3 29 6 55 19 55 2 0
3 -20 3 -45z m-40 -21 c0 -8 -10 -19 -22 -24 l-23 -9 23 -7 c17 -5 22 -14 22
-40 0 -44 -11 -43 -32 5 -22 46 -22 51 -2 79 16 23 34 21 34 -4z m-60 -4 c0
-5 -4 -10 -10 -10 -5 0 -10 5 -10 10 0 6 5 10 10 10 6 0 10 -4 10 -10z m8 -89
c-14 -5 -31 15 -23 29 5 8 11 6 20 -7 9 -11 10 -19 3 -22z"/>
<path d="M595 400 c-66 -32 -128 -61 -139 -64 -15 -4 -17 -10 -11 -33 9 -38
12 -39 45 -19 27 15 31 16 36 2 3 -9 3 -24 -2 -34 -4 -9 -6 -20 -6 -24 3 -12
-16 -10 -23 2 -11 18 -30 10 -47 -20 -20 -35 -10 -45 39 -37 27 4 27 5 6 12
-25 8 -31 25 -9 25 17 0 30 -17 44 -55 10 -28 11 -29 17 -8 8 24 35 21 35 -5
0 -12 3 -13 12 -4 18 18 28 15 28 -8 0 -11 5 -20 10 -20 6 0 10 6 10 14 0 12
6 12 40 -1 22 -9 43 -13 47 -9 4 4 8 53 9 109 1 56 7 128 14 160 19 93 3 94
-155 17z m144 18 c0 -7 -4 -22 -9 -33 -7 -17 -9 -15 -9 13 -1 17 4 32 9 32 6
0 10 -6 9 -12z m-25 -145 c6 -91 -1 -146 -18 -140 -6 2 -10 23 -10 48 1 24 3
89 4 144 3 114 14 89 24 -52z m-46 12 c-2 -75 -7 -125 -13 -125 -10 0 -11 210
-1 237 13 33 16 4 14 -112z m-46 10 c-8 -54 -10 -58 -19 -35 -6 14 -8 29 -5
35 3 5 5 25 3 44 -2 20 3 37 11 42 18 11 20 -12 10 -86z m-43 10 c0 -48 -3
-55 -20 -55 -17 0 -19 6 -15 46 3 37 16 62 33 64 1 0 2 -25 2 -55z m-65 19 c3
-9 2 -12 -5 -9 -5 4 -16 1 -24 -5 -10 -8 -15 -9 -15 -2 0 8 24 29 36 32 1 0 5
-7 8 -16z m66 -114 c0 -11 -7 -20 -15 -20 -8 0 -15 9 -15 20 0 11 7 20 15 20
8 0 15 -9 15 -20z m40 -10 c0 -16 -4 -30 -10 -30 -5 0 -10 14 -10 30 0 17 5
30 10 30 6 0 10 -13 10 -30z"/>
<path d="M1035 427 c-16 -19 -32 -33 -35 -33 -9 1 -180 -105 -180 -111 0 -4 7
-14 15 -23 12 -13 13 -22 3 -48 -7 -17 -10 -33 -8 -36 3 -2 28 -6 56 -9 28 -2
61 -10 73 -17 27 -14 39 -6 22 14 -9 10 -9 20 0 40 19 42 32 31 27 -23 -3 -28
-2 -53 1 -58 10 -14 49 -32 55 -26 13 14 5 33 -14 33 -18 0 -20 7 -20 60 0 33
4 60 10 60 6 0 10 -22 10 -50 0 -86 17 -55 23 43 3 50 13 116 23 145 15 46 16
55 3 63 -23 14 -32 10 -64 -24z m49 -12 c-4 -8 -8 -15 -10 -15 -2 0 -4 7 -4
15 0 8 4 15 10 15 5 0 7 -7 4 -15z m-25 -47 c-1 -53 -13 -96 -21 -82 -9 14 3
124 13 124 5 0 9 -19 8 -42z m-44 -20 c-9 -41 -12 -45 -26 -31 -16 16 -2 63
17 63 12 0 14 -7 9 -32z m-107 -85 c-2 -26 -9 -48 -15 -51 -19 -6 -28 27 -15
49 7 10 12 26 12 34 0 8 5 15 11 15 6 0 9 -19 7 -47z m55 21 c7 -38 -7 -78
-28 -83 -15 -3 -17 2 -11 29 3 18 6 43 6 56 0 33 26 31 33 -2z m42 -19 c0 -10
-6 -20 -12 -22 -8 -3 -13 5 -13 22 0 17 5 25 13 23 6 -3 12 -13 12 -23z m-125
-65 c0 -5 -4 -10 -10 -10 -5 0 -10 5 -10 10 0 6 5 10 10 10 6 0 10 -4 10 -10z"/>
<path d="M805 118 c-2 -7 -1 -29 3 -48 8 -34 8 -35 21 -12 7 13 11 33 9 44 -4
25 -26 36 -33 16z"/>
<path d="M1132 113 c2 -10 10 -18 18 -18 8 0 16 8 18 18 2 12 -3 17 -18 17
-15 0 -20 -5 -18 -17z"/>
<path d="M377 105 c-4 -8 -2 -17 3 -20 5 -3 6 -13 3 -22 -4 -11 -2 -14 8 -11
20 6 25 68 6 68 -8 0 -17 -7 -20 -15z"/>
</g>
</svg>
