<?xml version="1.0" standalone="no"?>
<!DOCTYPE svg PUBLIC "-//W3C//DTD SVG 20010904//EN"
 "http://www.w3.org/TR/2001/REC-SVG-20010904/DTD/svg10.dtd">
<svg version="1.0" xmlns="http://www.w3.org/2000/svg"
 width="134.000000pt" height="198.000000pt" viewBox="0 0 134.000000 198.000000"
 preserveAspectRatio="xMidYMid meet">
<metadata>
Created by potrace 1.16, written by Peter Selinger 2001-2019
</metadata>
<g transform="translate(0.000000,198.000000) scale(0.100000,-0.100000)"
fill="#000000" stroke="none">
<path d="M463 1900 c-15 -6 -21 -15 -17 -25 5 -13 -5 -15 -67 -15 -41 0 -94 5
-118 11 -24 5 -45 8 -47 7 -1 -2 -4 -21 -6 -43 -2 -32 0 -39 13 -37 11 1 18
-8 23 -29 3 -18 4 -34 2 -37 -3 -2 -40 1 -83 6 -43 6 -81 8 -84 4 -11 -12 -18
-158 -8 -173 7 -11 12 -12 29 -1 11 6 40 12 64 12 l45 0 -15 -27 c-7 -16 -14
-41 -14 -56 0 -26 2 -27 23 -15 13 7 77 14 165 16 132 4 166 11 126 26 -14 5
-15 16 -10 59 4 28 16 70 26 91 22 44 19 56 -10 49 -20 -5 -21 -3 -14 63 4 38
11 77 15 86 19 37 7 46 -38 28z m-193 -59 c0 -5 -9 -11 -20 -14 -20 -5 -26 3
-13 16 9 10 33 8 33 -2z m80 -118 c0 -130 -8 -183 -26 -183 -11 0 -14 28 -14
138 0 76 3 142 7 145 3 4 12 7 20 7 10 0 13 -25 13 -107z m60 -44 c0 -150 0
-150 -22 -147 -13 2 -23 9 -22 16 1 6 2 73 3 147 1 128 2 135 21 135 19 0 20
-7 20 -151z m52 99 c2 -38 -1 -56 -12 -64 -12 -10 -12 -17 -2 -38 18 -40 16
-146 -3 -146 -13 0 -15 23 -15 150 0 124 2 150 14 150 11 0 16 -15 18 -52z
m-172 -18 c0 -27 -4 -50 -10 -50 -11 0 -14 59 -4 84 10 27 14 18 14 -34z m-50
-60 c0 -6 -27 -10 -62 -9 -47 1 -57 3 -38 9 36 12 100 12 100 0z m250 -20 c-6
-11 -13 -20 -15 -20 -3 0 -5 9 -5 20 0 11 7 20 15 20 13 0 14 -4 5 -20z m-202
-136 c-9 -8 -48 10 -48 22 0 8 10 37 23 66 l22 51 3 -68 c2 -37 1 -69 0 -71z
m-58 114 c0 -4 -15 -8 -32 -7 -26 0 -29 2 -13 8 25 10 45 10 45 -1z m0 -32 c0
-21 -15 -35 -34 -32 -11 3 -39 8 -61 12 l-40 8 40 6 c50 9 95 11 95 6z m25
-106 c-28 -12 -45 -12 -45 0 0 6 15 10 33 9 27 0 29 -2 12 -9z"/>
<path d="M940 1879 c0 -18 5 -29 14 -29 13 0 26 -41 26 -83 0 -17 -5 -19 -35
-14 l-34 6 1 -75 1 -74 38 6 39 7 0 -43 c0 -40 -1 -42 -25 -38 -20 4 -26 1
-31 -19 -10 -36 6 -45 57 -33 24 5 92 13 152 16 l107 7 0 57 c0 31 7 79 15
106 13 44 7 81 -9 55 -12 -19 -26 -12 -26 12 0 12 7 49 15 82 9 32 12 62 8 65
-4 4 -77 10 -160 13 l-153 5 0 -29z m53 4 c-7 -2 -19 -2 -25 0 -7 3 -2 5 12 5
14 0 19 -2 13 -5z m186 -68 c2 -64 1 -65 -24 -65 -26 0 -26 1 -23 65 3 58 5
65 24 65 19 0 21 -6 23 -65z m32 -5 c2 -79 3 -94 14 -202 6 -58 5 -78 -4 -78
-6 0 -14 6 -16 13 -8 22 -10 337 -2 337 4 0 8 -31 8 -70z m-98 47 c5 -15 -1
-95 -8 -108 -3 -4 -12 -6 -20 -2 -11 4 -15 21 -15 64 0 51 2 59 19 59 10 0 21
-6 24 -13z m-104 -39 c-1 -37 -2 -39 -9 -18 -12 36 -12 60 0 60 6 0 10 -19 9
-42z m40 -35 c1 -23 -4 -33 -14 -33 -17 0 -18 15 -8 75 6 36 7 38 14 15 4 -14
7 -40 8 -57z m116 -69 c-21 -15 -37 -10 -29 10 3 8 14 12 26 8 20 -5 20 -6 3
-18z m-115 -5 c0 -5 -7 -9 -15 -9 -15 0 -20 12 -9 23 8 8 24 -1 24 -14z m60 6
c0 -8 -9 -15 -20 -15 -11 0 -20 7 -20 15 0 8 9 15 20 15 11 0 20 -7 20 -15z
m-125 -5 c4 -6 -7 -10 -27 -9 -31 1 -32 1 -8 9 14 4 26 8 27 9 1 1 5 -3 8 -9z
m190 -30 c3 -5 4 -14 0 -20 -8 -13 -35 -1 -35 16 0 16 26 19 35 4z m-125 -15
c0 -8 -7 -15 -15 -15 -8 0 -15 7 -15 15 0 8 7 15 15 15 8 0 15 -7 15 -15z m63
0 c-4 -15 -36 -12 -41 3 -3 9 3 13 19 10 13 -1 23 -7 22 -13z m-123 -5 c0 -13
-11 -13 -30 0 -12 8 -11 10 8 10 12 0 22 -4 22 -10z m190 -75 c0 -48 -2 -55
-20 -55 -18 0 -20 7 -20 55 0 48 2 55 20 55 18 0 20 -7 20 -55z m-128 6 c4
-51 1 -61 -23 -61 -16 0 -19 7 -19 43 0 24 3 47 7 50 17 17 31 4 35 -32z m68
-12 c0 -47 -2 -50 -22 -47 -20 3 -23 10 -26 51 -3 45 -2 47 23 47 23 0 25 -3
25 -51z m-133 -65 c-3 -3 -12 -4 -19 -1 -8 3 -5 6 6 6 11 1 17 -2 13 -5z"/>
<path d="M696 1555 c-3 -9 -3 -22 1 -28 4 -7 6 -20 5 -29 -2 -10 1 -18 7 -18
15 0 33 38 29 63 -4 26 -33 35 -42 12z"/>
<path d="M1020 1331 c0 -12 -8 -25 -17 -28 -27 -10 -32 -23 -22 -57 5 -17 9
-43 9 -58 l0 -27 -90 2 -90 2 0 -31 c0 -17 3 -52 6 -77 l7 -47 78 6 79 6 0
-34 c0 -19 -7 -43 -15 -54 -15 -20 -21 -84 -7 -84 5 0 22 6 38 14 16 8 76 19
133 25 57 5 105 12 107 14 2 2 8 87 13 188 6 101 13 194 16 206 8 26 -1 29
-127 37 -47 3 -93 9 -102 12 -12 4 -16 0 -16 -15z m206 -68 c7 -45 -1 -341 -9
-350 -2 -2 -15 1 -28 5 -23 9 -24 13 -20 88 4 91 19 76 21 -21 1 -41 4 -54 9
-40 11 27 6 345 -5 345 -5 0 -10 -45 -12 -100 -4 -135 -22 -130 -22 6 0 77 -3
105 -12 102 -8 -3 -11 -34 -9 -106 2 -68 -1 -102 -8 -102 -7 0 -12 28 -12 73
-3 119 -3 121 -20 125 -15 3 -16 -5 -12 -60 l5 -63 -36 1 c-20 1 -39 3 -42 6
-3 3 -2 29 2 57 9 66 31 80 131 81 l72 0 7 -47z m-236 -128 c0 -12 -15 -15
-77 -15 -83 0 -90 6 -22 19 71 14 99 13 99 -4z m100 -15 c0 -23 -4 -30 -20
-30 -13 0 -18 5 -13 16 4 10 -1 17 -16 21 -33 9 -25 23 14 23 32 0 35 -2 35
-30z m-100 -25 c0 -12 -13 -15 -62 -14 l-63 1 44 9 c24 5 46 11 49 14 11 11
32 4 32 -10z m110 -35 c0 -5 -17 -9 -37 -9 -38 1 -38 1 -8 9 43 11 45 11 45 0z
m44 -27 c11 -67 7 -113 -8 -113 -20 0 -22 10 -18 85 4 72 16 85 26 28z m-158
19 c-6 -10 -93 -8 -103 2 -3 3 19 6 51 6 31 0 55 -4 52 -8z m114 -72 l0 -60
-56 0 -56 0 7 33 c12 60 16 65 53 75 20 5 40 10 45 11 4 1 7 -26 7 -59z"/>
<path d="M137 1267 c-3 -21 2 -31 17 -39 25 -13 55 -48 56 -66 0 -9 -19 -12
-74 -9 -85 4 -84 6 -78 -96 3 -41 8 -57 16 -54 7 3 38 8 69 12 66 8 69 4 36
-69 -16 -38 -24 -46 -40 -41 -17 6 -19 1 -19 -35 0 -35 3 -40 18 -36 44 14
114 25 195 31 l87 7 0 57 c0 51 12 110 35 164 5 13 2 17 -14 17 -33 0 -35 23
-11 101 11 39 20 72 18 74 -2 2 -71 5 -155 7 l-151 3 -5 -28z m183 -82 c0 -76
1 -74 -39 -66 -2 1 2 8 9 16 8 10 9 15 1 15 -10 0 -7 71 5 108 10 34 24 -7 24
-73z m72 45 c10 -46 0 -110 -19 -117 -27 -11 -35 12 -27 86 5 58 10 71 22 69
9 -2 20 -19 24 -38z m25 8 c-3 -7 -5 -2 -5 12 0 14 2 19 5 13 2 -7 2 -19 0
-25z m-160 -39 l2 -54 -21 41 c-21 42 -19 79 5 72 7 -3 13 -26 14 -59z m-72
-79 c-27 -4 -61 -3 -75 1 -16 5 2 7 50 7 70 -1 72 -1 25 -8z m18 -37 c-7 -2
-21 -2 -30 0 -10 3 -4 5 12 5 17 0 24 -2 18 -5z m117 -2 c0 -5 -9 -7 -20 -4
-11 3 -20 7 -20 9 0 2 9 4 20 4 11 0 20 -4 20 -9z m75 -1 c-3 -5 -15 -10 -25
-10 -10 0 -22 5 -25 10 -4 6 7 10 25 10 18 0 29 -4 25 -10z m-75 -30 c0 -5 -7
-10 -15 -10 -8 0 -15 5 -15 10 0 6 7 10 15 10 8 0 15 -4 15 -10z m70 -2 c0 -4
-7 -8 -15 -8 -8 0 -15 -5 -15 -11 0 -6 9 -8 20 -4 19 6 20 2 20 -64 0 -68 -1
-71 -24 -71 -22 0 -24 4 -28 58 -5 87 0 111 23 109 10 -1 19 -5 19 -9z m-125
-93 c0 -65 -9 -74 -60 -61 -24 6 -24 7 -8 44 8 20 19 47 24 60 6 15 16 22 27
20 14 -3 17 -14 17 -63z m65 0 c0 -63 -1 -65 -25 -65 -21 0 -25 5 -25 28 0 63
12 102 31 102 17 0 19 -8 19 -65z m-155 -85 c-27 -12 -35 -12 -35 0 0 6 12 10
28 9 24 0 25 -1 7 -9z"/>
<path d="M667 916 c-4 -9 -2 -18 3 -21 6 -4 7 -17 4 -31 -7 -27 7 -32 25 -10
17 20 10 70 -10 74 -9 2 -19 -4 -22 -12z"/>
<path d="M1215 639 c-22 -4 -97 -8 -167 -8 l-127 -1 2 -34 c3 -43 10 -50 35
-37 18 9 22 7 31 -21 6 -17 11 -56 11 -86 l0 -55 -55 6 -54 5 0 -84 c0 -46 4
-86 9 -89 5 -3 28 -1 52 4 23 6 44 8 47 6 2 -3 6 -27 9 -55 6 -67 22 -64 22 5
0 52 1 55 25 55 24 0 25 -3 25 -60 0 -55 -2 -60 -25 -66 -14 -3 -45 -3 -70 0
l-45 7 0 -35 c0 -41 0 -41 55 -22 22 8 94 19 160 25 65 7 121 14 124 16 2 3 5
65 5 140 l1 134 -27 3 -26 3 37 110 c20 61 39 116 42 124 5 18 -37 22 -96 10z
m35 -56 c0 -21 -10 -75 -22 -122 -18 -72 -19 -89 -9 -115 21 -52 39 -125 43
-169 l3 -42 -43 -3 -42 -3 0 240 c0 253 -1 249 48 250 19 1 22 -4 22 -36z
m-91 -100 c1 -59 -2 -73 -14 -73 -12 0 -15 17 -15 93 0 95 10 132 21 80 4 -15
7 -61 8 -100z m-184 107 c-3 -5 -10 -10 -16 -10 -5 0 -9 5 -9 10 0 6 7 10 16
10 8 0 12 -4 9 -10z m134 -132 c-1 -164 -14 -142 -18 30 -1 74 1 112 8 112 7
0 11 -48 10 -142z m-45 101 c3 -17 6 -60 6 -95 0 -56 -2 -64 -19 -64 -14 0
-20 10 -25 40 -6 36 -1 104 10 138 7 22 21 12 28 -19z m91 -179 c3 -5 -1 -10
-9 -10 -9 0 -16 5 -16 10 0 6 4 10 9 10 6 0 13 -4 16 -10z m-85 -9 c0 -11
-120 -19 -126 -9 -4 6 20 10 104 16 12 1 22 -2 22 -7z m187 -33 c-3 -8 -6 -5
-6 6 -1 11 2 17 5 13 3 -3 4 -12 1 -19z m-97 4 c0 -13 -12 -22 -22 -16 -10 6
-1 24 13 24 5 0 9 -4 9 -8z m-90 -11 c0 -6 -4 -13 -10 -16 -5 -3 -10 1 -10 9
0 9 5 16 10 16 6 0 10 -4 10 -9z m-85 -11 c4 -6 -7 -10 -27 -9 -27 0 -30 2
-13 9 27 12 33 12 40 0z m135 -31 c0 -5 -4 -9 -10 -9 -5 0 -10 7 -10 16 0 8 5
12 10 9 6 -3 10 -10 10 -16z m40 0 c0 -5 -4 -9 -10 -9 -5 0 -10 7 -10 16 0 8
5 12 10 9 6 -3 10 -10 10 -16z m-93 -5 c-3 -3 -12 -4 -19 -1 -8 3 -5 6 6 6 11
1 17 -2 13 -5z m-70 -10 c-3 -3 -12 -4 -19 -1 -8 3 -5 6 6 6 11 1 17 -2 13 -5z
m123 -80 c0 -36 -4 -64 -10 -64 -6 0 -10 30 -10 71 0 44 4 68 10 64 6 -3 10
-35 10 -71z m40 6 c0 -40 -4 -70 -10 -70 -6 0 -10 30 -10 70 0 40 4 70 10 70
6 0 10 -30 10 -70z"/>
<path d="M145 603 l-26 -23 26 -37 c14 -21 25 -41 25 -46 0 -4 12 -26 26 -48
14 -23 24 -42 22 -44 -2 -2 -25 1 -53 5 -67 10 -78 5 -69 -33 3 -17 6 -55 5
-84 0 -28 3 -54 7 -57 5 -3 26 -1 46 5 21 6 40 8 43 5 7 -7 -19 -48 -69 -107
l-38 -47 27 -31 28 -32 12 43 c11 43 11 43 12 9 1 -27 4 -32 19 -26 31 12 65
16 186 23 l119 7 -2 80 c-1 44 5 103 12 132 10 38 11 55 3 63 -7 7 -11 57 -11
125 -1 63 -5 119 -10 124 -6 5 -78 11 -162 13 -145 3 -153 2 -178 -19z m205
-98 c6 -94 2 -112 -24 -102 -13 5 -16 24 -16 102 0 86 2 96 18 93 14 -3 18
-18 22 -93z m44 83 c3 -7 7 -52 10 -100 4 -69 2 -88 -8 -88 -15 0 -26 63 -26
146 0 49 15 73 24 42z m76 -10 c0 -19 -2 -20 -10 -8 -13 19 -13 30 0 30 6 0
10 -10 10 -22z m-186 -10 c3 -13 6 -56 6 -95 0 -71 -1 -73 -24 -73 -21 0 -30
12 -60 75 -20 42 -36 78 -36 80 0 8 64 33 86 34 14 1 24 -7 28 -21z m189 -135
c6 -72 6 -73 -19 -73 -27 0 -33 17 -9 26 13 6 14 8 1 18 -9 7 -16 41 -20 101
l-6 90 24 -45 c15 -29 25 -70 29 -117z m-183 -68 c0 -17 -32 -19 -120 -8 -49
6 -52 8 -25 14 17 4 56 7 88 8 44 1 57 -2 57 -14z m68 3 c-6 -17 -40 -17 -45
0 -3 7 5 12 22 12 17 0 25 -5 23 -12z m50 0 c-6 -18 -28 -21 -28 -4 0 9 7 16
16 16 9 0 14 -5 12 -12z m-48 -38 c0 -5 -10 -10 -22 -10 -19 0 -20 2 -8 10 19
13 30 13 30 0z m45 0 c3 -5 -1 -10 -9 -10 -9 0 -16 5 -16 10 0 6 4 10 9 10 6
0 13 -4 16 -10z m85 3 c0 -5 -5 -15 -10 -23 -8 -12 -10 -11 -10 8 0 12 5 22
10 22 6 0 10 -3 10 -7z m-200 -10 c0 -5 -35 -9 -78 -10 -52 -1 -69 1 -52 7 32
10 130 12 130 3z m160 -28 c0 -8 -4 -15 -10 -15 -5 0 -10 7 -10 15 0 8 5 15
10 15 6 0 10 -7 10 -15z m-90 -5 c0 -5 -9 -10 -20 -10 -11 0 -20 5 -20 10 0 6
9 10 20 10 11 0 20 -4 20 -10z m50 0 c0 -5 -7 -10 -15 -10 -8 0 -15 5 -15 10
0 6 7 10 15 10 8 0 15 -4 15 -10z m-185 -10 c-3 -5 -21 -10 -38 -9 -31 1 -31
1 -7 9 36 11 52 11 45 0z m62 4 c-3 -3 -12 -4 -19 -1 -8 3 -5 6 6 6 11 1 17
-2 13 -5z m183 -111 c0 -55 -3 -73 -14 -73 -17 0 -29 151 -13 162 19 12 27
-14 27 -89z m-179 38 c0 -25 1 -62 2 -81 2 -34 1 -35 -33 -32 -36 2 -90 20
-90 29 0 14 63 114 76 121 34 19 44 10 45 -37z m69 -15 c0 -35 3 -71 6 -80 5
-12 0 -16 -19 -16 -30 0 -34 15 -29 103 3 48 7 57 23 57 17 0 19 -8 19 -64z
m50 10 c0 -30 4 -66 10 -80 8 -22 7 -26 -9 -26 -21 0 -31 35 -31 111 0 37 4
49 15 49 11 0 15 -13 15 -54z m-266 -110 c-3 -9 -10 -13 -16 -10 -5 3 -4 12 3
20 15 18 22 13 13 -10z"/>
<path d="M686 142 c-9 -16 6 -73 18 -69 15 5 14 69 -1 74 -6 2 -14 0 -17 -5z"/>
</g>
</svg>
