<?xml version="1.0" standalone="no"?>
<!DOCTYPE svg PUBLIC "-//W3C//DTD SVG 20010904//EN"
 "http://www.w3.org/TR/2001/REC-SVG-20010904/DTD/svg10.dtd">
<svg version="1.0" xmlns="http://www.w3.org/2000/svg"
 width="134.000000pt" height="129.000000pt" viewBox="0 0 134.000000 129.000000"
 preserveAspectRatio="xMidYMid meet">
<metadata>
Created by potrace 1.16, written by Peter Selinger 2001-2019
</metadata>
<g transform="translate(0.000000,129.000000) scale(0.100000,-0.100000)"
fill="#000000" stroke="none">
<path d="M770 1244 c-6 -14 -10 -29 -10 -33 0 -4 -16 -5 -35 -3 -41 5 -42 0
-20 -85 8 -31 15 -95 15 -140 0 -138 17 -93 22 57 2 77 8 143 12 147 12 13 79
-30 134 -84 28 -30 52 -58 52 -63 0 -5 -35 -32 -77 -59 -123 -78 -118 -73
-107 -111 12 -42 25 -47 44 -16 8 13 44 56 80 96 76 85 80 82 78 -60 -1 -107
-7 -101 84 -81 25 6 65 11 88 13 22 1 45 7 49 12 13 17 24 326 11 326 -5 0
-10 12 -10 27 0 26 1 26 15 7 14 -18 14 -18 15 9 l0 27 -109 0 c-60 0 -123 3
-140 6 -29 6 -31 5 -31 -24 0 -17 5 -34 10 -37 6 -3 10 -30 10 -58 l0 -52 -60
65 c-33 36 -70 82 -80 103 -11 20 -23 37 -25 37 -3 0 -10 -12 -15 -26z m30
-34 c9 -16 8 -18 -5 -14 -8 4 -15 12 -15 20 0 20 7 17 20 -6z m177 -6 c-3 -3
-12 -4 -19 -1 -8 3 -5 6 6 6 11 1 17 -2 13 -5z m189 -26 c9 -38 9 -312 0 -327
-3 -5 -32 -9 -65 -9 -32 0 -68 -3 -79 -6 -30 -10 -39 11 -46 108 -5 71 -4 87
6 79 16 -13 146 -83 153 -83 3 0 5 4 5 10 0 5 -23 21 -51 35 -41 21 -48 29
-39 40 10 12 17 10 46 -11 26 -21 34 -23 34 -11 0 9 -10 23 -21 31 l-22 15 29
25 c21 19 25 25 13 26 -9 0 -22 -7 -30 -16 -8 -10 -21 -13 -37 -9 -20 5 -23 3
-17 -14 4 -14 0 -21 -14 -26 -24 -7 -44 2 -35 16 3 6 37 30 75 55 38 24 69 48
69 54 0 17 -11 12 -86 -40 -40 -27 -75 -50 -78 -50 -3 0 -6 26 -6 59 l0 59 68
9 c117 18 119 17 128 -19z m-439 -25 c-3 -10 -5 -4 -5 12 0 17 2 24 5 18 2 -7
2 -21 0 -30z m86 -248 c-30 -37 -43 -44 -43 -21 0 14 47 55 63 56 4 0 -5 -16
-20 -35z"/>
<path d="M526 1181 c-9 -10 -42 -35 -73 -57 -54 -37 -102 -81 -103 -95 0 -7
137 -119 145 -119 13 0 2 24 -30 69 -19 26 -35 53 -35 58 0 10 19 33 88 104
24 26 40 49 34 53 -5 3 -17 -3 -26 -13z m-82 -106 c-4 -8 -13 -15 -21 -15 -13
0 -13 3 -3 15 7 8 16 15 21 15 5 0 6 -7 3 -15z m-28 -73 c-10 -10 -39 25 -31
38 5 8 12 5 22 -10 8 -12 12 -24 9 -28z"/>
<path d="M156 1160 c-16 -17 -27 -31 -25 -33 2 -1 25 -17 51 -35 67 -46 83
-42 53 15 -9 15 -20 40 -25 56 -12 34 -18 34 -54 -3z m45 -26 c12 -34 8 -37
-20 -18 -17 13 -20 19 -10 30 16 19 18 18 30 -12z"/>
<path d="M347 1139 c-21 -22 -36 -43 -33 -48 3 -4 -1 -17 -10 -27 -14 -18 -15
-18 -8 6 6 24 5 24 -11 8 -20 -19 -13 -51 11 -46 8 2 25 21 37 42 12 22 32 51
45 64 22 25 28 42 15 41 -5 0 -25 -18 -46 -40z"/>
<path d="M53 1114 c-3 -9 2 -32 11 -52 10 -19 20 -57 23 -84 6 -46 22 -68 24
-30 0 9 4 50 8 90 4 40 4 75 1 76 -3 2 -17 6 -33 10 -20 5 -29 2 -34 -10z m47
-46 c0 -36 -4 -35 -14 5 -4 16 -2 27 4 27 5 0 10 -14 10 -32z"/>
<path d="M770 1054 l0 -35 48 6 c89 12 106 16 91 26 -8 5 -25 9 -39 9 -14 0
-38 7 -54 15 -41 22 -46 19 -46 -21z m50 -4 c0 -5 -9 -10 -20 -10 -11 0 -20 5
-20 10 0 6 9 10 20 10 11 0 20 -4 20 -10z"/>
<path d="M156 1053 c-9 -9 -7 -51 2 -57 12 -7 83 19 83 30 0 5 -13 12 -29 15
-16 3 -33 9 -39 12 -6 4 -13 4 -17 0z"/>
<path d="M225 992 c-17 -15 -46 -38 -64 -53 -34 -25 -34 -25 -16 -52 9 -15 20
-27 24 -27 3 0 15 17 26 37 11 20 32 52 48 71 44 56 33 71 -18 24z m-41 -77
c-10 -16 -20 -23 -22 -16 -4 12 28 55 35 47 3 -2 -3 -17 -13 -31z"/>
<path d="M277 997 c-9 -15 -17 -30 -17 -35 0 -4 23 -21 51 -37 28 -17 55 -38
60 -47 11 -19 29 -24 29 -8 0 6 -19 34 -42 64 -24 29 -48 61 -53 71 -10 16
-12 16 -28 -8z m31 -36 c3 -8 -1 -12 -9 -9 -7 2 -15 10 -17 17 -3 8 1 12 9 9
7 -2 15 -10 17 -17z"/>
<path d="M1283 932 c-9 -6 -10 -45 -3 -82 0 -3 7 4 15 14 26 34 16 85 -12 68z"/>
<path d="M593 885 c5 -46 14 -53 28 -22 14 30 6 57 -16 57 -12 0 -15 -8 -12
-35z"/>
<path d="M1161 591 c-12 -8 -13 -16 -3 -49 7 -22 12 -73 12 -113 l-1 -74 -19
24 c-11 13 -20 33 -20 44 l0 20 -22 -20 c-13 -11 -28 -18 -35 -16 -7 2 -37 -9
-68 -26 -81 -44 -85 -43 -85 32 1 39 6 69 15 81 23 30 18 36 -25 36 -43 0 -47
-5 -25 -34 12 -16 15 -61 15 -229 0 -115 3 -207 8 -205 71 37 92 42 184 42
l98 1 0 105 1 105 28 -32 c28 -34 41 -41 41 -22 0 6 -13 22 -30 36 -16 13 -30
29 -30 33 0 5 20 23 45 41 25 18 45 38 45 46 0 20 -9 16 -57 -23 l-44 -36 4
98 c2 55 7 109 11 122 7 18 5 22 -10 22 -11 0 -25 -4 -33 -9z m-76 -211 c4 -6
11 -8 16 -5 9 6 58 -25 59 -37 0 -4 -18 -17 -40 -29 -23 -13 -40 -30 -40 -41
0 -14 -6 -16 -32 -11 -39 7 -84 28 -94 44 -8 14 9 31 66 63 51 29 56 30 65 16z
m85 -159 l0 -88 -93 -7 c-60 -4 -105 -2 -125 5 -31 10 -32 13 -32 64 0 64 5
67 105 48 90 -17 95 -16 95 4 0 14 36 63 47 63 2 0 3 -40 3 -89z m-226 -110
c3 -5 -1 -11 -9 -15 -9 -3 -15 0 -15 9 0 16 16 20 24 6z"/>
<path d="M962 554 c3 -43 11 -50 40 -30 14 10 44 16 80 16 36 0 58 4 58 11 0
8 -18 10 -58 5 -50 -6 -62 -4 -84 14 -35 27 -39 26 -36 -16z"/>
<path d="M146 495 c-24 -31 -32 -35 -72 -35 -24 0 -44 -3 -44 -7 0 -5 7 -33
15 -63 8 -30 20 -100 25 -155 11 -100 45 -208 64 -202 5 2 19 30 32 63 12 32
43 86 69 118 47 59 47 60 31 85 -32 49 -58 114 -69 173 -7 32 -15 58 -18 58
-4 0 -19 -16 -33 -35z m38 -60 l8 -30 -21 27 c-13 16 -18 33 -15 43 8 20 17 8
28 -40z m-92 -35 c-4 -36 -22 -68 -22 -38 0 8 -3 30 -6 48 -6 28 -4 32 12 28
15 -3 18 -10 16 -38z m106 -36 c51 -67 52 -69 28 -72 -14 -2 -41 1 -61 7 -33
9 -37 8 -46 -15 -5 -14 -9 -28 -9 -30 0 -3 30 -2 67 2 l67 7 -20 -25 c-11 -14
-42 -45 -69 -68 l-50 -43 -8 59 c-8 54 4 198 20 240 9 24 25 12 81 -62z m-49
-258 c-15 -40 -29 -47 -29 -14 0 21 29 62 38 54 2 -3 -2 -21 -9 -40z"/>
<path d="M734 495 c-4 -10 -13 -13 -24 -10 -10 3 -21 1 -24 -4 -4 -6 -14 -7
-23 -4 -14 5 -15 1 -8 -33 4 -21 7 -104 6 -182 -2 -96 1 -142 8 -138 5 4 16
-5 24 -19 l13 -26 32 48 c17 26 59 76 92 110 33 35 60 66 60 71 0 4 -21 28
-47 52 -54 53 -83 96 -83 128 0 25 -18 30 -26 7z m16 -46 c0 -6 -4 -7 -10 -4
-5 3 -10 11 -10 16 0 6 5 7 10 4 6 -3 10 -11 10 -16z m-60 -5 c0 -8 -5 -12
-10 -9 -6 4 -8 11 -5 16 9 14 15 11 15 -7z m52 -26 c43 -30 118 -104 118 -116
0 -13 -159 -162 -172 -162 -11 0 -4 231 8 278 8 27 9 27 46 0z"/>
<path d="M698 304 c-4 -53 2 -61 27 -34 13 15 31 20 66 20 26 0 51 5 54 10 4
6 -13 10 -45 10 -38 0 -54 5 -67 20 -25 29 -31 25 -35 -26z"/>
<path d="M412 460 c-12 -16 -49 -48 -82 -70 -33 -22 -60 -43 -60 -46 0 -3 10
-18 22 -35 20 -27 21 -33 9 -62 -26 -66 -27 -63 40 -76 34 -7 79 -24 98 -37
20 -13 39 -24 44 -24 19 0 -1 22 -47 52 -30 20 -59 50 -74 78 l-25 45 31 67
c18 37 37 70 43 73 6 4 1 -11 -10 -34 l-21 -41 42 -21 43 -22 -37 -31 c-29
-26 -35 -36 -31 -59 8 -43 19 -41 43 7 32 66 44 73 70 36 21 -29 40 -39 40
-21 0 5 -11 23 -25 40 -23 26 -24 33 -13 50 7 12 16 21 20 21 5 0 8 8 8 17 0
13 -6 11 -30 -12 -16 -16 -32 -27 -34 -24 -2 2 -16 28 -31 57 -24 47 -25 54
-11 68 9 8 16 20 16 25 0 18 -16 9 -38 -21z m-69 -115 c-18 -38 -28 -43 -37
-19 -4 10 3 23 16 35 34 27 40 23 21 -16z m97 1 c0 -5 -7 -3 -15 4 -8 7 -12
17 -9 22 7 10 24 -9 24 -26z m-95 -127 c16 -31 16 -31 -7 -24 -31 10 -31 10
-23 34 8 28 12 27 30 -10z"/>
<path d="M561 156 c-9 -10 -9 -16 -1 -21 7 -4 10 -16 7 -26 -3 -11 0 -19 8
-19 18 0 26 52 11 68 -10 11 -15 10 -25 -2z"/>
<path d="M1260 131 c0 -27 15 -34 34 -15 19 19 12 34 -15 34 -12 0 -19 -7 -19
-19z"/>
</g>
</svg>
