<?xml version="1.0" standalone="no"?>
<!DOCTYPE svg PUBLIC "-//W3C//DTD SVG 20010904//EN"
 "http://www.w3.org/TR/2001/REC-SVG-20010904/DTD/svg10.dtd">
<svg version="1.0" xmlns="http://www.w3.org/2000/svg"
 width="91.000000pt" height="311.000000pt" viewBox="0 0 91.000000 311.000000"
 preserveAspectRatio="xMidYMid meet">
<metadata>
Created by potrace 1.16, written by Peter Selinger 2001-2019
</metadata>
<g transform="translate(0.000000,311.000000) scale(0.100000,-0.100000)"
fill="#000000" stroke="none">
<path d="M667 3057 c-13 -20 -13 -25 0 -42 8 -11 27 -45 43 -76 l29 -56 -32
-28 c-18 -16 -35 -28 -39 -27 -12 3 -10 -26 2 -33 6 -3 7 -17 4 -31 -5 -18 0
-32 17 -50 21 -22 46 -34 36 -16 -3 4 -12 30 -20 59 l-16 52 31 30 30 30 -26
81 c-14 45 -26 90 -26 100 0 29 -16 32 -33 7z"/>
<path d="M597 3056 c-22 -17 -22 -29 4 -52 12 -10 31 -39 42 -64 10 -25 21
-40 24 -34 3 10 -39 149 -48 159 -2 2 -12 -2 -22 -9z"/>
<path d="M732 3058 c-18 -18 -15 -33 20 -101 34 -68 48 -64 24 8 -9 25 -16 57
-16 70 0 29 -12 39 -28 23z"/>
<path d="M528 3046 c-24 -18 -23 -28 8 -57 14 -13 34 -41 44 -61 l18 -38 -39
-35 c-41 -37 -47 -50 -26 -59 10 -5 10 -7 0 -12 -21 -9 -15 -20 30 -63 37 -36
41 -43 30 -61 -18 -29 -16 -48 8 -60 11 -6 29 -25 39 -42 l19 -31 -29 -36
c-32 -41 -34 -86 -7 -136 9 -16 17 -38 17 -47 0 -9 4 -19 9 -22 15 -10 20 6
10 33 -6 14 -15 50 -20 80 -7 47 -6 59 11 86 26 41 25 50 -5 109 -14 27 -25
58 -25 68 0 10 -11 41 -25 68 -31 60 -32 97 -4 126 21 23 21 24 4 71 -9 26
-22 67 -28 91 -13 46 -14 47 -39 28z"/>
<path d="M118 2990 c-8 -12 -24 -20 -40 -20 -15 0 -29 -3 -32 -8 -2 -4 2 -32
10 -62 10 -35 14 -83 11 -133 -2 -53 0 -76 7 -74 6 2 12 29 14 59 3 63 10 68
93 68 45 0 48 -2 80 -50 19 -27 40 -50 47 -50 19 0 15 15 -13 48 -14 17 -25
33 -25 37 0 4 34 4 75 1 59 -4 75 -3 75 8 0 10 -23 15 -85 18 -97 7 -102 10
-157 115 -18 35 -36 63 -40 63 -4 0 -13 -9 -20 -20z m32 -30 c0 -5 -2 -10 -4
-10 -3 0 -8 5 -11 10 -3 6 -1 10 4 10 6 0 11 -4 11 -10z m14 -53 c62 -58 61
-72 -6 -63 -29 4 -57 11 -62 16 -10 10 2 90 13 90 5 0 29 -19 55 -43z m-87 11
c-3 -8 -6 -5 -6 6 -1 11 2 17 5 13 3 -3 4 -12 1 -19z"/>
<path d="M762 2849 c-44 -42 -50 -55 -29 -62 9 -3 9 -7 -1 -20 -11 -13 -10
-20 8 -45 21 -28 21 -32 6 -53 -22 -32 -21 -41 14 -84 37 -47 38 -67 2 -97
-42 -35 -47 -78 -15 -128 40 -61 56 -53 28 13 -23 56 -19 76 25 116 45 41 47
47 22 53 -22 6 -66 129 -50 139 7 5 7 17 0 40 -22 75 -22 79 14 119 47 52 29
58 -24 9z"/>
<path d="M646 2855 c-16 -14 -33 -25 -37 -25 -4 0 -7 -19 -7 -42 0 -29 7 -48
23 -64 13 -13 25 -29 28 -36 2 -7 7 -10 11 -6 4 3 -2 24 -13 47 -27 53 -26 73
5 111 33 39 27 47 -10 15z"/>
<path d="M450 2810 c0 -5 5 -10 10 -10 6 0 10 5 10 10 0 6 -4 10 -10 10 -5 0
-10 -4 -10 -10z"/>
<path d="M496 2675 c-22 -33 -20 -41 13 -66 16 -12 37 -38 46 -59 17 -38 17
-39 -4 -66 -11 -14 -17 -31 -14 -38 4 -6 9 -22 9 -36 4 -49 30 -134 44 -138
10 -4 11 3 6 29 -23 104 -24 154 -5 187 22 39 24 53 6 46 -8 -3 -22 20 -40 66
-15 38 -27 74 -27 79 0 22 -19 19 -34 -4z m28 -30 c3 -8 1 -15 -4 -15 -6 0
-10 7 -10 15 0 8 2 15 4 15 2 0 6 -7 10 -15z"/>
<path d="M664 2655 c-4 -8 1 -27 11 -41 9 -14 23 -43 30 -65 14 -38 13 -40
-12 -63 -14 -13 -23 -31 -20 -38 3 -8 1 -21 -3 -28 -5 -9 -1 -28 11 -51 10
-21 19 -45 19 -54 0 -8 5 -15 11 -15 7 0 9 10 5 28 -4 15 -9 50 -12 77 -5 46
-3 52 25 79 31 30 46 71 17 47 -12 -10 -17 -3 -30 43 -9 30 -16 64 -16 75 0
24 -28 29 -36 6z"/>
<path d="M151 2568 c-13 -21 -11 -25 29 -60 l43 -38 -39 0 c-59 0 -85 10 -80
29 2 9 8 31 11 49 7 32 6 33 -22 30 -24 -3 -28 -7 -26 -33 1 -16 2 -81 3 -142
1 -62 5 -113 9 -113 5 0 11 32 15 72 3 39 8 74 11 76 2 2 32 6 67 9 l63 5 55
-73 c39 -53 56 -69 58 -56 2 10 -15 39 -37 66 -23 27 -41 51 -41 53 0 3 56 3
125 0 79 -3 125 -1 125 6 0 16 -39 22 -160 22 l-115 0 -33 60 c-18 33 -36 60
-40 60 -4 0 -13 -10 -21 -22z m-51 -22 c0 -3 -4 -8 -10 -11 -5 -3 -10 -1 -10
4 0 6 5 11 10 11 6 0 10 -2 10 -4z"/>
<path d="M697 2140 c-15 -22 -13 -50 4 -50 4 0 19 -19 33 -42 30 -50 32 -39
10 40 -20 71 -28 79 -47 52z"/>
<path d="M767 2153 c-14 -13 -7 -46 16 -73 12 -15 27 -36 34 -46 11 -18 12
-18 12 2 1 12 -6 35 -14 50 -8 16 -15 39 -15 52 0 21 -19 30 -33 15z"/>
<path d="M610 2132 l-24 -20 30 -29 c17 -15 34 -38 38 -51 4 -12 12 -22 18
-22 11 0 10 3 -19 88 l-19 54 -24 -20z"/>
<path d="M528 2104 c-11 -25 -10 -29 18 -53 17 -14 36 -36 42 -48 12 -21 7
-27 -72 -91 -5 -4 -73 -6 -152 -4 l-142 3 -26 62 c-13 34 -28 72 -31 85 -8 27
-21 28 -35 2 -6 -11 -21 -20 -35 -20 -31 0 -36 -10 -25 -51 6 -19 12 -71 15
-117 5 -91 17 -112 25 -42 5 42 7 45 40 50 39 6 70 2 70 -10 0 -4 7 -24 16
-45 10 -26 19 -34 26 -27 6 6 4 20 -7 42 -9 17 -14 35 -11 38 4 3 66 5 138 3
143 -3 150 -5 179 -73 6 -15 15 -25 20 -22 5 3 2 21 -6 41 -15 35 -13 53 6 53
5 0 19 -22 31 -50 12 -27 25 -50 29 -50 5 0 5 22 2 49 -5 45 -4 49 13 45 21
-6 64 -65 64 -88 0 -8 5 -18 10 -21 13 -8 13 4 -2 81 -11 61 -10 64 16 104 15
23 25 45 21 48 -6 6 -84 -77 -85 -90 0 -5 -7 -8 -15 -8 -20 0 -19 8 6 49 36
60 14 51 -44 -19 -18 -21 -34 -30 -49 -28 -21 3 -21 5 17 46 31 35 36 45 25
52 -8 5 -24 35 -36 67 -25 66 -39 75 -56 37z m32 -25 c0 -6 -4 -7 -10 -4 -5 3
-10 11 -10 16 0 6 5 7 10 4 6 -3 10 -11 10 -16z m-463 -91 c-3 -7 -5 -2 -5 12
0 14 2 19 5 13 2 -7 2 -19 0 -25z m66 -17 c15 -22 27 -44 27 -49 0 -8 -37 -10
-72 -3 -15 2 -4 91 11 91 3 0 18 -18 34 -39z"/>
<path d="M787 1946 c-27 -31 -43 -57 -37 -61 6 -4 8 -11 4 -16 -3 -6 4 -31 16
-56 16 -34 24 -43 33 -34 8 8 8 14 -1 23 -7 7 -12 35 -12 63 0 42 5 56 30 83
29 32 38 52 23 52 -5 0 -29 -25 -56 -54z"/>
<path d="M125 1749 c-6 -19 -8 -19 -19 -3 -10 13 -16 14 -34 5 -26 -14 -26
-13 -7 -75 8 -27 15 -73 15 -103 0 -34 4 -52 10 -48 5 3 10 23 10 44 0 35 3
39 31 45 39 7 46 3 54 -33 3 -16 13 -36 22 -43 14 -11 16 -10 10 12 -3 14 -9
35 -12 48 l-7 22 140 0 c77 0 147 3 156 6 12 4 16 0 16 -16 0 -12 11 -31 25
-42 14 -11 25 -26 25 -34 0 -8 5 -14 10 -14 13 0 13 37 0 45 -5 3 -14 24 -20
45 -10 36 -8 45 15 85 44 73 26 83 -27 14 l-46 -61 -151 -3 -151 -4 -15 29
c-8 16 -15 38 -15 49 0 47 -23 67 -35 30z m26 -81 c8 -15 5 -18 -21 -18 -28 0
-30 3 -30 37 0 36 0 36 21 17 11 -10 25 -27 30 -36z"/>
<path d="M638 1708 c-36 -54 -43 -93 -20 -120 6 -8 15 -26 21 -41 13 -33 36
-37 26 -4 -27 89 -28 109 -4 158 31 67 19 70 -23 7z"/>
<path d="M773 1699 c-18 -28 -30 -56 -26 -63 4 -6 6 -21 5 -33 -2 -14 4 -26
18 -33 12 -6 26 -25 32 -41 9 -28 28 -40 28 -19 0 5 -12 39 -26 74 l-25 64 20
41 c40 77 21 84 -26 10z"/>
<path d="M702 1695 c-39 -56 -40 -72 -3 -119 16 -21 32 -42 34 -49 2 -7 8 -8
13 -4 4 4 0 22 -11 39 -23 39 -24 107 -2 139 10 13 17 27 17 31 0 19 -19 5
-48 -37z"/>
<path d="M549 1376 c-11 -23 -8 -30 30 -71 22 -24 41 -49 41 -55 0 -5 5 -10
11 -10 13 0 10 13 -25 95 -28 68 -41 77 -57 41z m29 -41 c-3 -3 -9 2 -12 12
-6 14 -5 15 5 6 7 -7 10 -15 7 -18z"/>
<path d="M712 1378 c-17 -17 -16 -23 18 -70 35 -48 36 -57 12 -89 -38 -49 -36
-75 8 -120 39 -41 40 -41 40 -15 0 14 -4 26 -8 26 -5 0 -15 18 -22 40 -12 37
-12 43 8 70 22 29 22 29 3 72 -10 24 -21 55 -25 71 -7 30 -16 33 -34 15z"/>
<path d="M456 1358 c-15 -20 -13 -24 29 -69 25 -27 45 -52 45 -57 0 -5 -9 -21
-20 -35 -26 -33 -26 -41 12 -98 30 -47 58 -67 43 -31 -39 92 -42 109 -28 135
12 24 10 32 -17 85 -16 33 -30 67 -30 76 0 23 -16 20 -34 -6z"/>
<path d="M630 1360 c-9 -17 -6 -27 20 -58 34 -41 37 -58 14 -83 -22 -25 -27
-84 -8 -100 8 -7 22 -26 30 -42 17 -31 19 -27 -43 -95 -19 -20 -16 -46 6 -66
11 -10 27 -33 36 -52 9 -19 20 -34 25 -34 16 0 12 13 -22 79 -23 46 -29 64
-20 70 7 4 23 22 37 41 23 32 24 35 9 58 -8 13 -22 42 -30 64 -13 38 -13 44 5
73 17 30 18 33 1 66 -10 19 -21 49 -25 67 -8 37 -20 41 -35 12z"/>
<path d="M156 1299 c-11 -16 -21 -20 -40 -15 -29 7 -34 -9 -16 -45 6 -11 14
-54 18 -97 4 -44 11 -76 17 -74 6 2 9 19 8 37 -2 28 1 35 16 35 10 0 24 7 32
16 10 13 10 17 -2 25 -8 5 -22 9 -31 9 -19 0 -25 34 -10 57 9 15 82 -51 82
-73 0 -8 6 -17 14 -20 8 -3 27 -24 42 -47 17 -25 29 -36 32 -28 2 7 -5 26 -17
42 -11 15 -21 31 -21 34 0 3 43 5 96 5 61 0 93 4 89 10 -3 6 -50 10 -105 10
l-100 0 -35 70 c-19 39 -39 70 -45 70 -5 0 -16 -10 -24 -21z m34 -30 c0 -6 -4
-7 -10 -4 -5 3 -10 11 -10 16 0 6 5 7 10 4 6 -3 10 -11 10 -16z"/>
<path d="M588 1185 l-22 -45 30 -28 c17 -16 33 -35 36 -43 3 -8 8 -11 12 -7 4
3 -2 24 -13 47 -23 44 -27 81 -10 98 8 8 8 13 0 17 -6 4 -20 -12 -33 -39z"/>
<path d="M764 1027 c-71 -74 -70 -68 -23 -131 40 -54 59 -68 59 -45 0 5 -11
27 -25 47 -34 51 -32 79 11 123 20 20 32 39 27 42 -6 4 -28 -13 -49 -36z"/>
<path d="M185 1030 c-3 -5 -20 -10 -37 -10 -28 0 -30 -2 -23 -27 4 -16 12 -61
18 -100 6 -40 15 -73 19 -73 4 0 8 25 8 56 0 52 1 55 23 52 22 -3 66 -73 80
-129 5 -19 9 -21 19 -11 10 10 6 25 -20 77 -18 36 -32 68 -32 70 0 3 52 5 115
5 112 0 117 -1 140 -26 14 -15 32 -44 42 -65 9 -22 20 -39 25 -39 13 0 10 18
-11 63 -31 67 -34 92 -17 106 17 15 22 41 7 41 -5 0 -19 -13 -31 -30 l-21 -30
-129 0 -128 0 -12 35 c-13 38 -25 51 -35 35z m-5 -60 c0 -5 -2 -10 -4 -10 -3
0 -8 5 -11 10 -3 6 -1 10 4 10 6 0 11 -4 11 -10z"/>
<path d="M601 995 c-17 -20 -31 -40 -31 -45 0 -7 46 -88 67 -119 2 -2 6 -1 9
2 4 4 -3 29 -15 56 -26 62 -26 81 -1 109 22 23 25 32 11 32 -5 0 -23 -16 -40
-35z"/>
<path d="M361 689 l-23 -30 21 -23 c11 -12 30 -49 40 -81 17 -51 18 -61 6 -68
-12 -6 -12 -13 -2 -35 6 -15 17 -30 24 -35 6 -4 14 -21 18 -38 6 -25 2 -34
-20 -53 l-28 -24 25 -33 c34 -47 48 -83 38 -99 -6 -9 0 -22 16 -38 13 -14 29
-42 34 -63 6 -22 15 -39 20 -39 14 0 12 37 -4 68 -8 16 -12 47 -11 76 3 36 1
46 -8 37 -18 -18 -25 -13 -37 24 -14 41 -5 108 16 126 21 17 17 31 -6 24 -17
-6 -20 -1 -22 32 -1 21 0 56 1 77 2 34 1 38 -12 28 -12 -10 -16 -5 -27 35 -6
27 -13 73 -15 103 -2 30 -7 56 -12 57 -4 1 -19 -12 -32 -28z m79 -230 c0 -6
-4 -7 -10 -4 -5 3 -10 11 -10 16 0 6 5 7 10 4 6 -3 10 -11 10 -16z"/>
<path d="M493 696 c-25 -26 -29 -46 -13 -62 13 -13 37 -109 37 -149 1 -16 -1
-22 -4 -12 -5 18 -15 22 -26 10 -4 -3 1 -15 10 -25 16 -18 16 -18 0 -12 -12 4
-17 1 -17 -10 0 -10 7 -15 21 -13 24 2 50 -29 34 -41 -5 -4 -21 -20 -34 -35
l-25 -27 26 -28 c33 -35 62 -96 48 -100 -18 -6 -11 -36 15 -60 13 -13 30 -39
37 -58 6 -19 18 -34 25 -34 18 0 16 9 -11 57 -20 35 -22 43 -9 47 32 13 53 5
68 -24 9 -17 20 -28 26 -24 6 4 4 15 -6 30 -15 24 -15 24 18 24 26 0 36 -6 50
-30 10 -16 22 -30 28 -30 12 0 12 6 -6 39 -8 16 -11 31 -8 35 4 3 1 6 -7 6 -9
0 -11 11 -6 40 7 46 -8 54 -26 15 -6 -14 -17 -25 -25 -25 -7 0 -13 -7 -13 -16
0 -9 -6 -14 -12 -11 -8 2 -12 17 -10 37 4 31 2 33 -13 20 -17 -14 -26 -8 -38
25 -3 6 -7 7 -11 3 -4 -3 -3 -16 4 -28 13 -25 4 -60 -15 -60 -12 0 -12 6 -4
26 11 30 3 47 -11 24 -11 -17 -12 -16 -39 38 -22 44 -21 109 2 124 7 4 7 19
-1 45 -7 21 -12 52 -11 68 1 17 -4 50 -11 75 -6 25 -9 68 -6 98 4 28 3 52 -1
52 -5 0 -18 -11 -30 -24z"/>
<path d="M597 686 c-25 -32 -26 -36 -12 -63 8 -15 15 -38 15 -50 0 -12 5 -34
11 -50 7 -19 7 -29 0 -31 -6 -2 -11 -12 -11 -23 0 -11 -7 -22 -15 -25 -15 -6
-21 -25 -7 -23 30 5 55 -4 59 -21 7 -28 23 -25 23 5 0 22 4 25 35 25 24 0 39
-6 47 -20 7 -11 17 -20 21 -20 12 0 -3 123 -15 131 -14 9 -20 50 -20 127 1 34
-2 62 -5 62 -4 0 -17 -10 -29 -21 -21 -20 -22 -24 -10 -48 22 -41 40 -141 28
-153 -6 -6 -8 -16 -6 -22 3 -7 -8 -13 -26 -14 -16 -1 -30 -1 -30 0 0 2 4 17 9
35 10 35 4 48 -15 32 -9 -7 -14 -2 -19 22 -11 51 -8 128 5 145 9 10 10 18 3
25 -7 7 -19 -2 -36 -25z"/>
<path d="M206 621 c-7 -10 -50 -32 -89 -45 -10 -3 -15 -10 -12 -16 8 -13 9
-235 1 -248 -3 -6 1 -28 9 -51 10 -30 12 -64 8 -126 -4 -61 -3 -85 6 -85 6 0
11 17 11 40 l0 41 62 -3 c62 -3 63 -3 86 -46 29 -53 49 -45 22 9 -11 21 -19
39 -18 40 2 0 32 2 67 4 35 2 68 9 75 15 8 10 -8 11 -76 6 l-88 -6 -21 42
c-17 34 -20 52 -15 95 7 56 -3 69 -22 28 -6 -14 -16 -25 -22 -25 -18 0 -10
-31 20 -75 41 -60 39 -67 -17 -63 l-48 3 4 45 c1 25 9 60 17 79 19 46 18 52
-12 45 -26 -7 -26 -6 -20 37 3 24 6 52 7 62 0 18 19 25 19 6 0 -7 19 -9 51 -6
47 3 52 2 62 -22 10 -25 11 -25 14 -4 3 18 12 23 44 25 58 4 52 23 -9 26 -52
3 -52 3 -78 54 -16 31 -24 63 -22 83 3 36 -6 54 -16 36z m3 -101 c38 -62 38
-70 4 -70 -59 0 -73 9 -66 44 7 37 21 76 27 76 2 0 18 -23 35 -50z m-72 8 c-3
-7 -5 -2 -5 12 0 14 2 19 5 13 2 -7 2 -19 0 -25z m13 -237 c0 -6 -4 -13 -10
-16 -5 -3 -10 1 -10 9 0 9 5 16 10 16 6 0 10 -4 10 -9z"/>
<path d="M673 360 c-26 -32 -29 -46 -10 -53 7 -2 18 -26 25 -51 7 -26 16 -45
21 -41 6 3 5 20 -1 42 -9 33 -8 76 3 112 7 25 -16 20 -38 -9z"/>
<path d="M574 349 c-25 -27 -26 -31 -9 -27 16 4 21 0 22 -15 3 -28 23 -47 23
-21 0 10 3 36 6 57 8 45 -3 47 -42 6z"/>
<path d="M27 3 c18 -2 50 -2 70 0 21 2 7 4 -32 4 -38 0 -55 -2 -38 -4z"/>
<path d="M353 3 c103 -2 271 -2 375 0 103 1 18 2 -188 2 -206 0 -291 -1 -187
-2z"/>
</g>
</svg>
