<?xml version="1.0" standalone="no"?>
<!DOCTYPE svg PUBLIC "-//W3C//DTD SVG 20010904//EN"
 "http://www.w3.org/TR/2001/REC-SVG-20010904/DTD/svg10.dtd">
<svg version="1.0" xmlns="http://www.w3.org/2000/svg"
 width="110.000000pt" height="215.000000pt" viewBox="0 0 110.000000 215.000000"
 preserveAspectRatio="xMidYMid meet">
<metadata>
Created by potrace 1.16, written by Peter Selinger 2001-2019
</metadata>
<g transform="translate(0.000000,215.000000) scale(0.100000,-0.100000)"
fill="#000000" stroke="none">
<path d="M844 2077 c-29 -23 -66 -53 -84 -67 -30 -23 -31 -28 -23 -60 6 -23
16 -36 29 -38 26 -4 94 -34 94 -41 0 -3 -27 -31 -60 -61 -56 -51 -60 -58 -54
-86 5 -27 17 -38 85 -73 44 -23 84 -41 88 -41 5 0 14 13 21 29 7 17 35 53 63
81 59 58 63 44 -35 112 -26 18 -47 38 -48 45 0 12 66 96 81 101 16 6 10 28
-15 55 -13 14 -33 39 -45 56 -12 17 -28 31 -34 30 -7 0 -35 -19 -63 -42z m99
-33 c20 -19 37 -40 37 -46 0 -6 -19 -29 -42 -51 -48 -45 -63 -37 -48 29 10 43
1 60 -25 50 -14 -5 -15 -14 -10 -49 3 -23 9 -50 12 -61 4 -14 2 -16 -8 -10
-35 20 -79 60 -79 71 0 14 98 103 114 103 6 0 28 -16 49 -36z m48 -255 l32
-23 -54 -47 c-29 -26 -55 -46 -58 -44 -2 3 -3 34 -3 70 1 59 -1 65 -19 65 -18
0 -20 -4 -14 -47 3 -27 8 -58 11 -70 3 -18 1 -21 -13 -16 -34 13 -93 53 -93
64 0 7 20 31 44 55 l43 44 46 -14 c25 -7 60 -24 78 -37z"/>
<path d="M190 2041 c0 -5 -34 -35 -75 -67 -41 -33 -75 -65 -75 -71 0 -7 16
-38 35 -68 20 -31 45 -76 55 -100 11 -25 23 -45 28 -45 18 0 21 14 7 41 -28
53 -12 176 36 270 17 34 16 49 -3 49 -4 0 -8 -4 -8 -9z m-44 -127 c-8 -27 -16
-62 -18 -79 l-3 -30 -28 42 c-15 24 -27 46 -27 51 0 9 82 74 87 69 1 -2 -4
-26 -11 -53z"/>
<path d="M455 1982 c-3 -3 -5 -14 -5 -25 0 -18 5 -19 53 -13 28 3 76 6 105 6
68 0 68 17 -1 19 -29 0 -74 5 -100 10 -25 4 -49 6 -52 3z"/>
<path d="M217 1973 c-3 -5 -2 -15 3 -23 5 -8 6 -26 3 -40 l-5 -26 99 4 c54 2
104 5 112 8 31 10 -6 19 -85 20 -109 1 -142 23 -38 25 94 2 97 2 102 17 3 9
-12 12 -60 10 -34 -1 -77 2 -95 6 -17 4 -33 3 -36 -1z"/>
<path d="M473 1871 c2 -31 0 -69 -4 -85 -11 -37 -5 -43 24 -28 12 7 52 13 90
14 37 2 67 8 67 13 0 6 -31 12 -69 15 -119 9 -107 28 22 32 106 4 104 22 -3
26 -98 3 -129 11 -90 22 14 5 49 8 78 9 65 1 70 21 5 21 -27 0 -65 4 -86 9
l-37 9 3 -57z"/>
<path d="M220 1839 c0 -19 4 -21 31 -15 17 3 58 6 91 6 93 0 66 20 -35 26 -84
5 -87 4 -87 -17z"/>
<path d="M230 1775 c0 -29 10 -37 27 -23 8 6 50 13 94 16 111 6 95 24 -24 26
-93 2 -97 1 -97 -19z"/>
<path d="M1065 1650 c-3 -5 -3 -16 2 -22 4 -7 8 -21 8 -30 0 -38 20 -20 23 20
2 32 0 42 -12 42 -8 0 -18 -4 -21 -10z"/>
<path d="M759 1391 c-29 -28 -37 -35 -84 -68 -27 -19 -30 -26 -27 -61 3 -34 8
-41 38 -52 19 -8 41 -22 50 -31 14 -16 13 -19 -11 -36 -69 -49 -70 -50 -56
-67 11 -13 11 -19 1 -31 -14 -17 -5 -35 19 -35 10 0 28 -11 41 -25 12 -13 26
-22 30 -20 4 3 10 -5 14 -18 5 -20 7 -19 32 18 15 22 41 55 58 73 22 24 28 36
21 46 -6 8 -25 34 -42 59 l-33 45 40 38 c22 22 40 43 40 47 0 5 -18 29 -39 54
-22 24 -41 54 -43 65 -4 30 -19 30 -49 -1z m63 -68 c21 -20 38 -42 38 -49 0
-14 -56 -64 -72 -64 -7 0 -9 19 -6 50 4 43 3 50 -11 48 -13 -3 -15 -15 -13
-62 l3 -59 -33 28 c-43 36 -51 51 -38 74 11 22 70 71 85 71 5 0 26 -17 47 -37z
m-12 -190 c8 -3 25 -18 37 -33 l23 -28 -37 -32 c-40 -36 -51 -29 -34 21 13 37
8 49 -17 42 -16 -4 -18 -13 -14 -66 l5 -62 -23 20 c-12 11 -31 32 -41 47 l-20
27 37 41 c25 28 42 39 53 34 9 -3 23 -8 31 -11z"/>
<path d="M174 1322 c-12 -9 -47 -37 -78 -61 l-56 -44 28 -29 c32 -32 127 -200
138 -242 6 -26 29 -45 40 -33 3 3 -16 47 -42 98 l-47 94 10 72 c6 40 20 90 31
112 27 51 16 66 -24 33z m-14 -61 c-5 -11 -13 -43 -18 -73 l-7 -53 -24 40 -23
40 38 32 c43 38 49 40 34 14z"/>
<path d="M204 1258 c-9 -14 21 -19 102 -16 46 2 78 7 76 13 -2 12 -171 14
-178 3z"/>
<path d="M440 1254 c0 -12 6 -15 23 -10 12 3 43 6 70 6 26 0 47 5 47 10 0 6
-30 10 -70 10 -58 0 -70 -3 -70 -16z"/>
<path d="M206 1201 c-11 -17 11 -22 94 -20 98 2 108 19 11 19 -38 0 -76 3 -84
6 -8 3 -18 1 -21 -5z"/>
<path d="M448 1204 c-16 -15 6 -24 63 -24 33 0 59 4 59 10 0 6 -13 10 -29 10
-16 0 -41 3 -57 6 -16 3 -32 2 -36 -2z"/>
<path d="M288 1153 c-50 -2 -88 -8 -88 -14 0 -6 39 -9 103 -7 61 2 101 7 100
13 -2 12 -4 12 -115 8z"/>
<path d="M452 1134 c3 -15 11 -18 58 -15 72 3 91 21 23 21 -28 0 -59 3 -68 6
-13 5 -16 2 -13 -12z"/>
<path d="M210 1085 c0 -12 16 -15 91 -15 66 0 90 3 87 12 -3 8 -35 13 -91 15
-72 3 -87 1 -87 -12z"/>
<path d="M454 1091 c-2 -2 -1 -8 2 -12 7 -12 124 -11 124 0 0 9 -118 20 -126
12z"/>
<path d="M994 978 c5 -57 5 -56 21 -34 23 30 20 76 -5 76 -17 0 -19 -5 -16
-42z"/>
<path d="M131 569 c-65 -31 -81 -42 -72 -53 6 -7 38 -67 71 -134 33 -67 64
-122 70 -122 15 0 14 4 -36 105 l-47 94 56 70 c32 38 54 72 49 75 -4 2 -45
-13 -91 -35z m7 -48 c-24 -31 -41 -35 -46 -9 -2 8 7 20 20 26 42 20 51 14 26
-17z"/>
<path d="M457 584 c-4 -4 -7 -16 -7 -26 0 -16 5 -19 28 -14 15 3 60 7 100 8
51 2 72 6 72 15 0 10 -21 13 -79 13 -44 0 -86 2 -93 5 -8 3 -17 2 -21 -1z"/>
<path d="M741 521 c-35 -36 -59 -67 -53 -69 7 -2 12 -17 12 -33 0 -20 5 -29
17 -29 17 0 99 -45 119 -65 8 -7 9 -17 3 -28 -7 -12 -4 -19 13 -28 23 -12 45
-32 66 -60 10 -13 7 -25 -14 -63 -39 -70 -46 -68 -43 12 4 74 -1 91 -19 69 -8
-9 -9 -37 -4 -85 5 -40 5 -72 2 -72 -9 0 -76 73 -88 95 -13 25 -3 46 46 97 44
46 34 64 -11 21 -17 -17 -41 -35 -52 -41 -15 -8 -20 -22 -21 -65 -2 -50 0 -56
22 -61 12 -3 44 -24 69 -46 25 -22 50 -40 55 -40 6 0 16 16 25 36 8 19 24 48
35 65 36 50 35 78 -3 118 -19 20 -40 51 -47 69 -12 32 -11 35 34 93 l47 60
-36 41 c-19 23 -35 46 -35 51 0 5 -7 7 -15 4 -8 -4 -17 -2 -20 2 -16 27 -43
14 -104 -48z m92 27 c12 -6 37 -25 55 -43 l32 -31 -32 -42 c-18 -23 -36 -42
-42 -42 -5 0 -6 29 -2 70 5 56 3 70 -8 70 -21 0 -34 -23 -25 -45 4 -11 8 -42
8 -68 l1 -48 -31 18 c-47 28 -72 59 -62 76 9 16 76 96 81 96 2 1 13 -4 25 -11z"/>
<path d="M220 549 c0 -20 4 -21 43 -15 23 4 61 10 85 13 71 10 47 23 -43 23
-80 0 -85 -1 -85 -21z"/>
<path d="M460 519 c1 -36 14 -41 81 -28 82 16 97 29 32 29 -28 0 -65 3 -82 6
-23 5 -31 3 -31 -7z"/>
<path d="M214 501 c-2 -2 -4 -13 -4 -24 0 -18 4 -19 43 -12 23 4 74 10 112 14
39 3 70 10 70 15 0 9 -212 16 -221 7z"/>
<path d="M467 442 c-3 -4 -2 -14 2 -21 6 -10 25 -10 94 0 48 7 85 15 82 19 -6
10 -172 12 -178 2z"/>
<path d="M212 417 c2 -16 8 -21 23 -18 11 2 59 6 108 8 144 7 98 31 -61 32
-70 1 -73 0 -70 -22z"/>
<path d="M472 369 c2 -17 9 -23 23 -22 11 2 57 6 103 10 45 3 85 10 88 15 3 4
-34 8 -83 8 -48 0 -99 3 -111 7 -21 5 -23 3 -20 -18z"/>
<path d="M208 355 c-5 -26 -4 -27 31 -21 20 3 66 8 104 12 37 4 67 11 67 15 0
5 -31 9 -69 9 -38 0 -82 3 -98 6 -27 5 -31 3 -35 -21z"/>
<path d="M991 351 c-15 -10 -11 -43 6 -48 6 -2 16 5 22 15 13 24 -7 46 -28 33z"/>
</g>
</svg>
