<?xml version="1.0" standalone="no"?>
<!DOCTYPE svg PUBLIC "-//W3C//DTD SVG 20010904//EN"
 "http://www.w3.org/TR/2001/REC-SVG-20010904/DTD/svg10.dtd">
<svg version="1.0" xmlns="http://www.w3.org/2000/svg"
 width="72.000000pt" height="72.000000pt" viewBox="0 0 72.000000 72.000000"
 preserveAspectRatio="xMidYMid meet">
<metadata>
Created by potrace 1.16, written by Peter Selinger 2001-2019
</metadata>
<g transform="translate(0.000000,72.000000) scale(0.100000,-0.100000)"
fill="#000000" stroke="none">
<path d="M318 653 c-2 -22 -9 -29 -31 -31 -25 -3 -28 -7 -22 -25 10 -31 26
-168 23 -192 -2 -16 -9 -11 -36 25 -18 25 -38 63 -43 85 -6 22 -13 47 -16 55
-3 11 -13 5 -35 -22 -25 -32 -36 -38 -69 -38 -36 0 -39 -2 -34 -22 2 -13 6
-84 9 -158 3 -74 8 -136 13 -138 4 -1 11 37 14 85 5 82 27 203 36 203 10 0
110 -69 123 -85 14 -17 13 -18 -30 -12 -25 4 -55 9 -67 13 -20 5 -21 3 -18
-36 1 -22 5 -43 7 -46 3 -2 24 3 48 11 24 8 45 13 47 11 7 -7 -58 -65 -99 -88
-21 -12 -38 -25 -38 -28 0 -13 31 -70 38 -70 4 0 16 19 27 42 11 23 43 67 72
98 l52 55 2 -45 c1 -25 0 -75 -1 -113 -1 -37 2 -67 7 -67 4 0 26 5 47 11 22 6
78 14 125 17 l86 7 7 155 c4 109 13 177 27 230 30 108 30 111 -22 104 -37 -5
-155 11 -224 32 -18 5 -22 1 -25 -23z m59 -19 c-3 -3 -12 -4 -19 -1 -8 3 -5 6
6 6 11 1 17 -2 13 -5z m194 -66 l-9 -33 -1 36 c-1 20 2 39 6 43 13 12 15 -10
4 -46z m-37 -10 c11 -97 17 -91 -76 -87 l-83 4 0 -35 c0 -26 4 -34 15 -31 64
16 136 29 142 25 4 -3 8 -26 8 -51 l0 -46 -85 6 -85 6 0 -29 c0 -16 4 -31 8
-34 5 -3 33 1 63 9 86 23 99 21 99 -19 0 -18 -3 -48 -6 -65 -6 -31 -7 -31 -73
-31 -36 0 -82 3 -102 6 l-36 6 -6 101 c-6 107 7 275 22 290 14 14 70 25 132
26 l56 1 7 -52z m-346 -68 c7 -11 9 -20 4 -20 -10 0 -32 22 -32 32 0 15 15 8
28 -12z m-1 -136 c-3 -3 -12 -4 -19 -1 -8 3 -5 6 6 6 11 1 17 -2 13 -5z m-37
-144 c0 -5 -5 -10 -11 -10 -5 0 -7 5 -4 10 3 6 8 10 11 10 2 0 4 -4 4 -10z"/>
</g>
</svg>
