<?xml version="1.0" standalone="no"?>
<!DOCTYPE svg PUBLIC "-//W3C//DTD SVG 20010904//EN"
 "http://www.w3.org/TR/2001/REC-SVG-20010904/DTD/svg10.dtd">
<svg version="1.0" xmlns="http://www.w3.org/2000/svg"
 width="108.000000pt" height="73.000000pt" viewBox="0 0 108.000000 73.000000"
 preserveAspectRatio="xMidYMid meet">
<metadata>
Created by potrace 1.16, written by Peter Selinger 2001-2019
</metadata>
<g transform="translate(0.000000,73.000000) scale(0.100000,-0.100000)"
fill="#000000" stroke="none">
<path d="M272 723 c147 -2 390 -2 540 0 150 1 30 2 -267 2 -297 0 -420 -1
-273 -2z"/>
<path d="M798 689 c-21 -12 -23 -35 -5 -46 6 -4 20 -18 30 -30 18 -21 18 -22
-42 -96 -34 -41 -61 -78 -61 -82 0 -4 23 -34 52 -68 l52 -60 -88 -82 c-49 -45
-87 -86 -85 -93 2 -6 31 15 64 46 97 92 186 165 253 206 34 22 62 42 62 46 0
10 -45 50 -57 50 -10 0 -123 192 -123 210 0 13 -30 12 -52 -1z m62 -74 c-1 -5
-12 3 -25 18 -14 16 -22 33 -19 39 6 10 44 -39 44 -57z m86 -148 c4 -12 -11
-35 -47 -75 -28 -31 -55 -58 -60 -60 -12 -5 -91 99 -85 113 2 7 26 40 53 74
l48 61 43 -47 c23 -26 45 -56 48 -66z m51 -33 c1 -5 -12 -18 -30 -29 -51 -31
-54 -30 -22 8 29 34 45 41 52 21z"/>
<path d="M138 545 c-8 -19 -19 -25 -43 -25 l-31 0 0 -245 c1 -135 4 -245 7
-245 4 0 10 40 13 90 4 49 11 92 15 95 4 2 27 7 49 11 l42 7 0 -87 c0 -51 4
-86 10 -86 6 0 10 36 10 89 0 87 0 89 28 100 38 15 241 62 275 63 15 1 27 6
27 13 0 6 -12 17 -27 25 -80 37 -113 56 -163 95 -80 61 -177 125 -190 125 -6
0 -16 -11 -22 -25z m99 -46 c35 -23 63 -43 63 -45 0 -3 -80 33 -117 54 -22 12
-31 32 -16 32 4 0 35 -19 70 -41z m-137 -59 c0 -33 -4 -60 -10 -60 -6 0 -10
27 -10 60 0 33 4 60 10 60 6 0 10 -27 10 -60z m64 48 c20 -9 23 -14 15 -25 -9
-10 -9 -37 1 -104 6 -50 8 -95 4 -99 -5 -5 -26 -12 -46 -15 -44 -8 -42 -18
-27 125 15 145 12 137 53 118z m306 -158 c0 -5 -8 -10 -17 -10 -10 0 -65 -11
-122 -25 -57 -14 -106 -23 -109 -20 -5 5 17 154 24 167 6 9 224 -100 224 -112z
m-254 73 c-3 -21 -6 -49 -6 -62 0 -40 -7 -20 -14 42 -7 50 -5 57 10 57 14 0
16 -6 10 -37z"/>
<path d="M272 3 c147 -2 390 -2 540 0 150 1 30 2 -267 2 -297 0 -420 -1 -273
-2z"/>
</g>
</svg>
