<?xml version="1.0" standalone="no"?>
<!DOCTYPE svg PUBLIC "-//W3C//DTD SVG 20010904//EN"
 "http://www.w3.org/TR/2001/REC-SVG-20010904/DTD/svg10.dtd">
<svg version="1.0" xmlns="http://www.w3.org/2000/svg"
 width="97.000000pt" height="29.000000pt" viewBox="0 0 97.000000 29.000000"
 preserveAspectRatio="xMidYMid meet">
<metadata>
Created by potrace 1.16, written by Peter Selinger 2001-2019
</metadata>
<g transform="translate(0.000000,29.000000) scale(0.100000,-0.100000)"
fill="#000000" stroke="none">
<path d="M848 262 c-49 -2 -68 -7 -68 -16 0 -8 6 -16 14 -19 8 -3 29 -35 46
-72 32 -68 50 -76 50 -23 0 18 10 51 21 76 12 24 18 47 13 50 -5 4 -39 6 -76
4z m37 -54 c-12 -38 -20 -39 -38 -8 l-18 30 31 0 c28 0 31 -3 25 -22z"/>
<path d="M470 201 c0 -67 12 -171 19 -171 3 0 24 43 46 96 22 53 43 98 48 101
22 13 0 23 -53 23 l-60 0 0 -49z m59 -23 c-11 -29 -23 -55 -25 -57 -2 -2 -4
21 -4 52 0 54 1 57 25 57 l25 0 -21 -52z"/>
<path d="M158 227 l-118 -9 0 -49 c0 -27 4 -49 9 -49 8 0 56 19 146 59 22 10
52 21 68 25 26 6 36 21 20 28 -5 2 -61 0 -125 -5z m2 -34 c-8 -3 -32 -14 -52
-25 l-38 -18 0 25 c0 24 3 25 53 24 28 0 45 -3 37 -6z"/>
<path d="M332 117 c-7 -8 -8 -17 -4 -21 4 -4 7 -16 7 -27 0 -29 17 -27 28 4 7
22 6 33 -5 43 -13 13 -16 13 -26 1z"/>
<path d="M690 116 c0 -8 4 -17 9 -20 5 -3 7 -16 4 -27 -4 -16 -2 -20 8 -17 8
2 15 21 17 41 3 32 0 37 -17 37 -12 0 -21 -6 -21 -14z"/>
</g>
</svg>
