<?xml version="1.0" standalone="no"?>
<!DOCTYPE svg PUBLIC "-//W3C//DTD SVG 20010904//EN"
 "http://www.w3.org/TR/2001/REC-SVG-20010904/DTD/svg10.dtd">
<svg version="1.0" xmlns="http://www.w3.org/2000/svg"
 width="67.000000pt" height="45.000000pt" viewBox="0 0 67.000000 45.000000"
 preserveAspectRatio="xMidYMid meet">
<metadata>
Created by potrace 1.16, written by Peter Selinger 2001-2019
</metadata>
<g transform="translate(0.000000,45.000000) scale(0.100000,-0.100000)"
fill="#000000" stroke="none">
<path d="M250 373 c-29 -24 -44 -43 -42 -55 1 -14 -3 -18 -15 -15 -10 3 -39 8
-66 12 -43 6 -47 5 -47 -15 0 -12 -5 -30 -11 -41 -6 -12 -8 -27 -5 -35 5 -13
10 -13 37 1 17 9 62 22 100 30 l70 13 27 -42 c42 -65 46 -71 70 -115 12 -22
27 -41 32 -41 19 0 10 31 -20 76 -17 24 -37 62 -45 84 -14 39 -13 40 8 41 12
1 75 4 140 8 166 9 147 26 -28 26 l-140 0 -3 53 c-2 28 -6 52 -10 51 -4 0 -27
-17 -52 -36z m40 -43 c0 -31 -17 -39 -38 -18 -9 9 -8 16 5 30 23 26 33 22 33
-12z m-126 -49 c3 -5 -8 -11 -26 -15 -34 -7 -44 -3 -33 13 8 13 52 15 59 2z"/>
</g>
</svg>
