<?xml version="1.0" standalone="no"?>
<!DOCTYPE svg PUBLIC "-//W3C//DTD SVG 20010904//EN"
 "http://www.w3.org/TR/2001/REC-SVG-20010904/DTD/svg10.dtd">
<svg version="1.0" xmlns="http://www.w3.org/2000/svg"
 width="60.000000pt" height="56.000000pt" viewBox="0 0 60.000000 56.000000"
 preserveAspectRatio="xMidYMid meet">
<metadata>
Created by potrace 1.16, written by Peter Selinger 2001-2019
</metadata>
<g transform="translate(0.000000,56.000000) scale(0.100000,-0.100000)"
fill="#000000" stroke="none">
<path d="M147 553 c84 -2 222 -2 305 0 84 1 16 3 -152 3 -168 0 -236 -2 -153
-3z"/>
<path d="M191 478 c-19 -30 -19 -34 -5 -43 9 -5 38 -27 65 -47 26 -21 51 -34
54 -29 3 5 1 12 -5 16 -5 3 -26 35 -46 70 -19 36 -37 65 -39 65 -2 0 -12 -15
-24 -32z m39 -42 c0 -5 -7 -3 -15 4 -8 7 -12 17 -9 22 7 10 24 -9 24 -26z"/>
<path d="M132 410 c-17 -27 -15 -38 8 -45 11 -3 43 -24 71 -47 61 -48 77 -42
27 10 -19 20 -44 52 -54 70 -21 37 -34 40 -52 12z m44 -37 c-7 -7 -26 7 -26
19 0 6 6 6 15 -2 9 -7 13 -15 11 -17z"/>
<path d="M73 343 c-4 -10 -13 -25 -21 -33 -13 -12 -12 -15 10 -21 36 -9 68
-28 115 -68 34 -28 41 -39 37 -58 -5 -18 -2 -23 13 -23 10 0 49 -22 85 -50 37
-27 69 -50 72 -50 17 0 0 25 -47 72 -30 29 -62 66 -72 81 -11 17 -22 24 -27
19 -12 -12 -81 50 -116 105 -30 47 -39 52 -49 26z m27 -33 c0 -5 -2 -10 -4
-10 -3 0 -8 5 -11 10 -3 6 -1 10 4 10 6 0 11 -4 11 -10z"/>
<path d="M291 261 l-20 -28 62 -41 c34 -22 76 -54 94 -71 32 -31 53 -39 53
-21 0 5 -21 29 -47 52 -25 24 -63 64 -84 91 l-38 47 -20 -29z"/>
</g>
</svg>
