<?xml version="1.0" standalone="no"?>
<!DOCTYPE svg PUBLIC "-//W3C//DTD SVG 20010904//EN"
 "http://www.w3.org/TR/2001/REC-SVG-20010904/DTD/svg10.dtd">
<svg version="1.0" xmlns="http://www.w3.org/2000/svg"
 width="59.000000pt" height="71.000000pt" viewBox="0 0 59.000000 71.000000"
 preserveAspectRatio="xMidYMid meet">
<metadata>
Created by potrace 1.16, written by Peter Selinger 2001-2019
</metadata>
<g transform="translate(0.000000,71.000000) scale(0.100000,-0.100000)"
fill="#000000" stroke="none">
<path d="M248 617 c-92 -65 -107 -87 -60 -87 16 0 36 -8 44 -17 18 -21 58 -98
58 -112 0 -6 -18 -20 -39 -31 l-40 -20 -34 58 c-28 46 -33 64 -30 95 5 39 -6
48 -27 22 -7 -8 -27 -19 -44 -23 -31 -8 -45 -39 -15 -34 35 5 67 -18 98 -72
17 -31 31 -59 31 -64 0 -5 -16 -16 -36 -25 -40 -20 -41 -37 0 -48 42 -11 55
-27 94 -109 39 -80 51 -95 66 -80 6 6 2 20 -11 38 -11 16 -35 57 -53 91 -26
52 -30 70 -25 103 6 35 10 39 29 34 11 -3 27 -6 33 -6 14 0 93 -150 93 -175 0
-8 7 -15 15 -15 22 0 19 12 -25 105 -31 65 -38 91 -33 115 5 26 10 31 32 28
22 -3 34 -19 80 -111 34 -68 57 -105 63 -99 6 6 -8 44 -37 103 -43 85 -47 98
-42 146 5 49 -3 68 -18 43 -13 -21 -27 -8 -54 50 -24 51 -27 66 -20 98 11 46
11 62 2 61 -5 0 -47 -28 -95 -62z m72 3 c0 -5 -5 -10 -11 -10 -5 0 -7 5 -4 10
3 6 8 10 11 10 2 0 4 -4 4 -10z m17 -101 c17 -35 32 -69 32 -75 1 -5 -11 -15
-26 -20 -27 -10 -29 -8 -60 50 -31 56 -41 104 -27 119 17 16 52 -16 81 -74z
m-107 35 c0 -8 -4 -12 -10 -9 -5 3 -10 10 -10 16 0 5 5 9 10 9 6 0 10 -7 10
-16z m180 -139 c0 -9 -6 -12 -15 -9 -8 4 -12 10 -9 15 8 14 24 10 24 -6z m-96
-50 c-4 -8 -14 -15 -23 -15 -14 1 -13 3 3 15 25 19 27 19 20 0z m-114 -80 c0
-8 -4 -15 -9 -15 -13 0 -22 16 -14 24 11 11 23 6 23 -9z"/>
</g>
</svg>
