<?xml version="1.0" standalone="no"?>
<!DOCTYPE svg PUBLIC "-//W3C//DTD SVG 20010904//EN"
 "http://www.w3.org/TR/2001/REC-SVG-20010904/DTD/svg10.dtd">
<svg version="1.0" xmlns="http://www.w3.org/2000/svg"
 width="88.000000pt" height="104.000000pt" viewBox="0 0 88.000000 104.000000"
 preserveAspectRatio="xMidYMid meet">
<metadata>
Created by potrace 1.16, written by Peter Selinger 2001-2019
</metadata>
<g transform="translate(0.000000,104.000000) scale(0.100000,-0.100000)"
fill="#000000" stroke="none">
<path d="M546 993 l-39 -4 7 -47 c9 -66 30 -94 68 -90 40 4 65 38 74 101 l6
47 -38 -2 c-22 -1 -56 -3 -78 -5z m81 -54 c-6 -46 -22 -69 -48 -69 -21 0 -33
20 -43 67 -7 30 -6 32 26 35 18 2 41 4 52 5 16 2 18 -3 13 -38z"/>
<path d="M143 940 c-24 -26 -43 -51 -43 -56 0 -5 13 -18 29 -28 30 -21 56 -57
81 -116 23 -53 38 -76 46 -68 3 4 -6 36 -21 71 -21 52 -27 82 -29 153 -1 48
-6 89 -12 90 -5 1 -28 -20 -51 -46z m37 -50 l0 -49 -27 25 -26 24 23 25 c13
14 25 25 27 25 2 0 3 -22 3 -50z"/>
<path d="M313 974 c-6 -17 14 -85 32 -111 20 -29 58 -29 84 -2 18 19 51 98 51
120 0 13 -162 6 -167 -7z m134 -34 c-9 -42 -36 -80 -58 -80 -19 0 -36 24 -49
71 -8 27 -7 28 33 32 23 2 50 4 61 5 15 2 18 -3 13 -28z"/>
<path d="M516 803 c-4 -4 -22 -6 -40 -5 -22 2 -35 -2 -39 -11 -6 -15 -63 -12
-73 4 -3 5 -9 9 -15 9 -11 0 -12 -177 -1 -184 5 -3 28 1 51 8 41 12 42 13 19
23 -23 11 -23 12 7 13 29 1 29 2 -10 15 -27 9 -33 13 -18 14 33 2 37 19 6 23
-26 4 -25 5 10 12 21 5 39 7 41 5 2 -2 6 -41 9 -87 3 -46 7 -86 10 -88 3 -3
18 8 34 24 15 16 63 48 106 71 l77 41 38 -24 c20 -13 46 -33 56 -45 11 -11 23
-21 28 -21 16 0 8 23 -17 46 -17 16 -25 34 -25 58 0 44 -9 50 -45 26 -28 -18
-28 -18 -84 13 -31 17 -68 39 -83 49 -29 20 -32 21 -42 11z m102 -73 l53 -26
-77 -42 c-109 -59 -114 -58 -114 26 0 38 3 71 6 75 11 10 78 -6 132 -33z
m-168 20 c0 -5 -16 -10 -35 -10 -19 0 -35 5 -35 10 0 6 16 10 35 10 19 0 35
-4 35 -10z m300 -55 c0 -9 -6 -12 -15 -9 -8 4 -12 10 -9 15 8 14 24 10 24 -6z"/>
<path d="M245 351 l-90 -6 3 -39 c2 -22 10 -52 17 -66 10 -19 11 -30 3 -38
-12 -12 5 -107 24 -129 6 -7 26 -13 45 -13 43 0 83 40 84 84 2 45 -2 71 -11
74 -4 1 1 19 11 40 10 20 19 44 20 52 3 27 -1 50 -8 48 -5 -1 -48 -4 -98 -7z
m85 -33 c0 -6 -9 -31 -21 -55 -19 -39 -24 -43 -59 -43 -44 0 -56 11 -65 62
l-7 37 48 4 c97 7 104 7 104 -5z m-19 -130 c-1 -5 -1 -20 -1 -35 -1 -36 -19
-60 -52 -68 -30 -8 -51 17 -61 72 -6 32 -6 32 41 36 60 5 73 4 73 -5z"/>
<path d="M595 309 c-7 -20 -1 -34 13 -34 15 -1 69 -36 105 -67 l39 -33 -65
-42 c-112 -71 -107 -73 -107 62 0 106 -2 116 -17 113 -12 -3 -17 -12 -15 -27
2 -23 1 -23 -83 -20 l-85 4 0 -28 c0 -25 4 -28 28 -27 71 5 142 -1 142 -11 0
-8 -26 -10 -85 -7 -58 3 -84 1 -82 -6 2 -6 40 -12 90 -14 l87 -3 0 -63 c0 -34
3 -65 6 -68 3 -4 34 14 70 38 35 24 67 44 71 44 4 0 17 10 30 22 l23 22 30
-29 c17 -16 30 -34 30 -39 0 -19 17 -39 28 -32 7 4 5 17 -5 37 -10 20 -14 46
-10 75 2 24 2 45 0 48 -3 2 -19 -4 -37 -15 l-32 -18 -64 56 c-36 30 -69 62
-73 69 -12 20 -25 17 -32 -7z m-44 -78 c-12 -8 -121 -4 -130 5 -2 2 29 4 70 4
46 0 69 -4 60 -9z m255 -68 c-10 -10 -19 5 -10 18 6 11 8 11 12 0 2 -7 1 -15
-2 -18z"/>
<path d="M63 293 c-18 -9 -33 -21 -33 -26 0 -5 15 -35 34 -66 19 -31 46 -80
60 -108 15 -29 31 -53 37 -53 7 0 8 7 4 17 -25 59 -34 97 -40 171 -5 50 -12
82 -19 81 -6 0 -26 -8 -43 -16z m41 -70 c3 -24 4 -43 1 -43 -2 0 -13 17 -24
39 -15 29 -17 41 -8 50 15 15 23 3 31 -46z"/>
<path d="M380 150 c0 -6 33 -9 83 -9 74 1 77 2 37 10 -64 11 -120 11 -120 -1z"/>
<path d="M377 124 c-16 -17 10 -24 84 -24 46 0 79 4 79 10 0 6 -28 10 -64 10
-35 0 -71 2 -78 5 -8 3 -17 3 -21 -1z"/>
</g>
</svg>
