<?xml version="1.0" standalone="no"?>
<!DOCTYPE svg PUBLIC "-//W3C//DTD SVG 20010904//EN"
 "http://www.w3.org/TR/2001/REC-SVG-20010904/DTD/svg10.dtd">
<svg version="1.0" xmlns="http://www.w3.org/2000/svg"
 width="162.000000pt" height="57.000000pt" viewBox="0 0 162.000000 57.000000"
 preserveAspectRatio="xMidYMid meet">
<metadata>
Created by potrace 1.16, written by Peter Selinger 2001-2019
</metadata>
<g transform="translate(0.000000,57.000000) scale(0.100000,-0.100000)"
fill="#000000" stroke="none">
<path d="M787 484 c-24 -13 -27 -20 -23 -45 3 -16 9 -42 12 -59 l6 -30 -76 0
c-41 0 -78 5 -81 10 -3 6 -10 10 -14 10 -14 0 -43 -51 -37 -65 4 -12 9 -12 33
0 16 8 60 16 98 17 l70 3 3 -43 3 -44 -94 7 -95 7 -7 -32 c-4 -17 -5 -33 -3
-35 2 -2 28 5 58 15 30 11 74 19 98 20 l43 0 -1 -57 c-3 -93 -1 -113 11 -113
6 0 9 31 8 86 l-2 86 69 3 c119 4 124 5 124 15 0 7 -35 9 -95 7 l-95 -3 0 42
0 42 85 -4 c68 -3 85 -1 85 11 0 11 -17 14 -80 13 -45 0 -83 2 -86 5 -5 4 6
55 27 126 6 20 -12 22 -44 5z m-150 -260 c-3 -3 -12 -4 -19 -1 -8 3 -5 6 6 6
11 1 17 -2 13 -5z"/>
<path d="M1385 468 c-11 -6 -26 -14 -34 -18 -11 -5 -14 -22 -12 -64 l3 -57
-88 2 c-88 2 -88 2 -97 -25 -11 -34 -4 -43 26 -29 41 20 62 26 110 29 47 4 47
4 47 -27 l0 -31 -85 7 c-84 7 -85 7 -96 -19 -15 -33 -7 -41 28 -28 15 6 56 13
91 16 l62 6 0 -36 0 -36 -80 7 c-76 7 -81 6 -100 -16 -11 -13 -19 -27 -20 -31
0 -12 45 -9 57 3 6 6 41 14 77 16 l65 6 -6 -53 c-5 -43 -3 -52 8 -48 9 3 15
22 17 51 l3 47 105 0 c136 0 137 18 2 22 l-103 3 -3 28 -3 27 110 0 c67 0 111
4 111 10 0 6 -19 11 -42 12 -24 1 -54 2 -68 3 -14 1 -44 2 -67 3 -41 2 -43 4
-43 32 l0 30 100 0 c60 0 100 4 100 10 0 6 -38 10 -94 10 -52 0 -97 4 -100 9
-3 5 8 35 24 66 40 76 39 87 -5 63z m-5 -37 c0 -6 -4 -13 -10 -16 -5 -3 -10 1
-10 9 0 9 5 16 10 16 6 0 10 -4 10 -9z m-173 -197 c-3 -3 -12 -4 -19 -1 -8 3
-5 6 6 6 11 1 17 -2 13 -5z"/>
<path d="M195 439 c-3 -3 0 -21 5 -40 20 -68 18 -71 -57 -67 -65 3 -67 2 -76
-25 -5 -16 -7 -30 -5 -33 3 -2 24 3 48 11 23 8 55 15 71 15 l28 0 3 -85 c4
-111 23 -108 24 4 l0 85 40 2 c21 1 58 2 82 3 23 0 42 6 42 12 0 7 -27 10 -80
8 -43 -2 -82 -1 -85 3 -3 3 3 28 13 56 l19 50 -34 4 c-19 2 -36 1 -38 -3z"/>
<path d="M402 140 c0 -41 20 -56 32 -24 13 34 7 64 -13 64 -16 0 -20 -7 -19
-40z"/>
<path d="M977 163 c-11 -10 -8 -83 3 -83 18 0 39 54 29 73 -11 18 -21 21 -32
10z"/>
<path d="M1594 160 c-14 -14 -5 -72 10 -67 14 4 21 56 9 68 -5 5 -13 5 -19 -1z"/>
</g>
</svg>
