<?xml version="1.0" standalone="no"?>
<!DOCTYPE svg PUBLIC "-//W3C//DTD SVG 20010904//EN"
 "http://www.w3.org/TR/2001/REC-SVG-20010904/DTD/svg10.dtd">
<svg version="1.0" xmlns="http://www.w3.org/2000/svg"
 width="20.000000pt" height="64.000000pt" viewBox="0 0 20.000000 64.000000"
 preserveAspectRatio="xMidYMid meet">
<metadata>
Created by potrace 1.16, written by Peter Selinger 2001-2019
</metadata>
<g transform="translate(0.000000,64.000000) scale(0.100000,-0.100000)"
fill="#000000" stroke="none">
<path d="M64 609 c-3 -5 1 -24 9 -42 9 -18 18 -48 22 -68 6 -32 4 -37 -16 -42
-18 -5 -20 -9 -11 -20 7 -8 16 -35 21 -61 7 -36 5 -50 -6 -61 -11 -12 -12 -25
-4 -72 6 -31 11 -90 11 -131 0 -54 3 -73 13 -70 8 3 14 35 18 89 3 46 13 101
22 123 22 49 21 56 -3 56 -26 0 -26 40 0 97 18 42 18 43 0 53 -17 9 -17 13 -3
62 24 85 26 98 16 98 -5 0 -14 -5 -21 -12 -9 -9 -18 -9 -36 0 -17 7 -27 8 -32
1z m59 -50 c-4 -16 -8 -17 -14 -7 -13 19 -11 28 5 28 9 0 12 -7 9 -21z m-3
-135 c0 -8 -4 -12 -10 -9 -5 3 -10 10 -10 16 0 5 5 9 10 9 6 0 10 -7 10 -16z
m0 -156 c0 -7 -5 -20 -10 -28 -8 -12 -10 -9 -10 13 0 15 5 27 10 27 6 0 10 -6
10 -12z"/>
</g>
</svg>
