<?xml version="1.0" standalone="no"?>
<!DOCTYPE svg PUBLIC "-//W3C//DTD SVG 20010904//EN"
 "http://www.w3.org/TR/2001/REC-SVG-20010904/DTD/svg10.dtd">
<svg version="1.0" xmlns="http://www.w3.org/2000/svg"
 width="20.000000pt" height="60.000000pt" viewBox="0 0 20.000000 60.000000"
 preserveAspectRatio="xMidYMid meet">
<metadata>
Created by potrace 1.16, written by Peter Selinger 2001-2019
</metadata>
<g transform="translate(0.000000,60.000000) scale(0.100000,-0.100000)"
fill="#000000" stroke="none">
<path d="M25 549 c-2 -3 2 -23 10 -45 7 -21 16 -65 20 -96 7 -55 6 -58 -14
-58 -22 0 -28 -19 -12 -35 12 -14 41 -146 41 -190 0 -39 15 -75 30 -75 6 0 10
35 10 78 1 71 4 94 26 191 7 33 6 34 -20 27 -25 -6 -26 -5 -20 21 10 48 35
127 45 145 21 40 12 48 -52 45 -33 -1 -62 -5 -64 -8z m81 -37 c-3 -9 -8 -30
-12 -47 l-8 -30 -12 40 c-13 47 -12 50 16 52 15 1 20 -3 16 -15z m-14 -248
l-8 -39 -8 39 c-5 28 -4 41 6 47 18 11 20 0 10 -47z"/>
</g>
</svg>
