<?xml version="1.0" standalone="no"?>
<!DOCTYPE svg PUBLIC "-//W3C//DTD SVG 20010904//EN"
 "http://www.w3.org/TR/2001/REC-SVG-20010904/DTD/svg10.dtd">
<svg version="1.0" xmlns="http://www.w3.org/2000/svg"
 width="85.000000pt" height="41.000000pt" viewBox="0 0 85.000000 41.000000"
 preserveAspectRatio="xMidYMid meet">
<metadata>
Created by potrace 1.16, written by Peter Selinger 2001-2019
</metadata>
<g transform="translate(0.000000,41.000000) scale(0.100000,-0.100000)"
fill="#000000" stroke="none">
<path d="M120 332 c0 -5 -20 -29 -45 -53 -25 -24 -44 -48 -43 -54 5 -19 128
-128 128 -113 0 8 -9 23 -21 34 -18 17 -20 27 -16 84 3 36 8 75 12 88 5 14 3
22 -4 22 -6 0 -11 -4 -11 -8z m-22 -123 c-3 -21 -3 -21 -20 -2 -17 18 -17 20
0 44 l17 24 3 -22 c2 -13 2 -33 0 -44z"/>
<path d="M520 330 c-22 -5 -24 -11 -22 -42 3 -27 -1 -39 -15 -46 -17 -10 -17
-11 0 -17 11 -5 17 -18 17 -37 0 -28 -2 -29 -40 -26 -22 2 -40 8 -40 13 1 6
12 9 25 7 14 -2 30 0 36 4 15 9 -8 23 -41 24 l-25 1 25 11 c23 9 24 11 6 17
-17 7 -15 9 15 21 l34 14 -35 4 c-19 2 -40 8 -47 14 -25 21 -33 -3 -28 -84 3
-45 7 -83 9 -85 2 -2 15 1 30 7 15 5 38 10 52 10 21 0 24 -4 24 -40 0 -48 9
-50 38 -10 24 31 148 120 169 120 7 0 29 -30 49 -67 45 -83 41 -76 53 -68 7 4
2 24 -15 57 -20 39 -25 61 -21 90 6 42 -6 57 -29 37 -12 -9 -23 -8 -57 7 -23
10 -55 27 -71 38 -23 15 -32 17 -47 8 -15 -9 -17 -9 -13 2 7 19 -5 24 -36 16z
m54 -57 c9 4 41 -3 71 -15 l56 -21 -38 -22 c-21 -12 -59 -36 -84 -53 -26 -18
-50 -32 -53 -32 -3 0 -6 25 -6 55 0 58 18 114 31 94 4 -7 14 -9 23 -6z"/>
<path d="M154 255 c-11 -28 7 -105 29 -125 34 -32 90 -27 133 12 29 27 35 41
37 78 l2 45 -98 3 c-81 2 -98 0 -103 -13z m181 -37 c-18 -60 -65 -95 -112 -83
-25 6 -37 25 -46 73 l-6 32 85 0 c84 0 85 0 79 -22z"/>
</g>
</svg>
