<?xml version="1.0" standalone="no"?>
<!DOCTYPE svg PUBLIC "-//W3C//DTD SVG 20010904//EN"
 "http://www.w3.org/TR/2001/REC-SVG-20010904/DTD/svg10.dtd">
<svg version="1.0" xmlns="http://www.w3.org/2000/svg"
 width="37.000000pt" height="24.000000pt" viewBox="0 0 37.000000 24.000000"
 preserveAspectRatio="xMidYMid meet">
<metadata>
Created by potrace 1.16, written by Peter Selinger 2001-2019
</metadata>
<g transform="translate(0.000000,24.000000) scale(0.100000,-0.100000)"
fill="#000000" stroke="none">
<path d="M178 117 c-71 -23 -126 -46 -124 -52 2 -5 10 -9 17 -7 7 2 65 6 129
10 l115 7 3 43 c2 23 0 42 -5 42 -4 -1 -65 -20 -135 -43z m122 9 c0 -27 -16
-36 -64 -35 l-51 0 45 19 c44 18 70 24 70 16z"/>
</g>
</svg>
