<?xml version="1.0" standalone="no"?>
<!DOCTYPE svg PUBLIC "-//W3C//DTD SVG 20010904//EN"
 "http://www.w3.org/TR/2001/REC-SVG-20010904/DTD/svg10.dtd">
<svg version="1.0" xmlns="http://www.w3.org/2000/svg"
 width="110.000000pt" height="62.000000pt" viewBox="0 0 110.000000 62.000000"
 preserveAspectRatio="xMidYMid meet">
<metadata>
Created by potrace 1.16, written by Peter Selinger 2001-2019
</metadata>
<g transform="translate(0.000000,62.000000) scale(0.100000,-0.100000)"
fill="#000000" stroke="none">
<path d="M581 551 c-26 -36 -26 -36 100 -95 53 -24 128 -60 168 -80 95 -48 92
-25 -6 39 -42 27 -109 72 -148 101 -40 28 -77 54 -83 58 -6 3 -20 -7 -31 -23z
m85 -46 c27 -19 45 -35 41 -35 -15 0 -107 52 -107 61 0 16 15 10 66 -26z"/>
<path d="M357 511 c-26 -28 -27 -33 -21 -95 l7 -66 -44 0 c-24 0 -54 -3 -66
-6 -17 -5 -23 -2 -23 10 0 13 11 16 54 16 30 0 58 5 61 10 4 6 -15 10 -48 10
-47 0 -55 3 -60 21 -6 23 -27 17 -27 -7 0 -19 -19 -18 -27 2 -6 15 -8 15 -21
-2 -13 -18 -18 -15 -25 12 -2 9 24 13 121 21 39 3 72 9 72 13 0 4 -30 11 -67
14 -38 4 -86 9 -108 12 -35 5 -41 2 -50 -18 -5 -13 -19 -24 -31 -26 -20 -3
-21 -7 -17 -100 3 -53 7 -103 9 -111 6 -20 18 -4 20 27 2 39 3 42 14 42 6 0
15 -10 20 -22 l9 -23 7 23 c8 27 24 29 24 2 0 -11 5 -20 10 -20 6 0 10 9 10
20 0 27 28 25 33 -2 l4 -23 2 23 c1 20 6 22 56 22 41 0 55 4 55 15 0 11 -10
13 -50 8 -34 -4 -50 -2 -50 6 0 7 23 11 66 11 l66 0 -6 -44 c-4 -28 -3 -47 4
-51 6 -3 43 24 82 60 l72 67 34 -37 c18 -20 38 -35 44 -33 6 2 -5 22 -25 45
l-37 40 53 46 c61 54 50 63 -16 12 -25 -19 -49 -35 -54 -35 -7 0 -30 30 -98
126 -8 12 -15 9 -38 -15z m25 -73 c-7 -7 -12 -8 -12 -2 0 6 3 14 7 17 3 4 9 5
12 2 2 -3 -1 -11 -7 -17z m78 -43 c11 -14 8 -20 -21 -44 l-34 -29 -3 30 c-2
17 -1 41 3 55 4 19 9 22 24 14 10 -6 24 -17 31 -26z m-360 16 c0 -6 -4 -13
-10 -16 -5 -3 -10 1 -10 9 0 9 5 16 10 16 6 0 10 -4 10 -9z m279 -68 c1 -17
-3 -35 -9 -38 -6 -4 -10 16 -9 52 0 42 3 52 9 38 5 -11 9 -34 9 -52z m-279 16
c0 -5 -7 -9 -15 -9 -9 0 -12 6 -9 15 6 15 24 11 24 -6z m40 1 c0 -5 -4 -10
-10 -10 -5 0 -10 5 -10 10 0 6 5 10 10 10 6 0 10 -4 10 -10z m48 -1 c-2 -6 -8
-10 -13 -10 -5 0 -11 4 -13 10 -2 6 4 11 13 11 9 0 15 -5 13 -11z m-88 -39 c0
-5 -7 -10 -15 -10 -8 0 -15 5 -15 10 0 6 7 10 15 10 8 0 15 -4 15 -10z m40 0
c0 -5 -4 -10 -10 -10 -5 0 -10 5 -10 10 0 6 5 10 10 10 6 0 10 -4 10 -10z m50
0 c0 -5 -7 -10 -15 -10 -8 0 -15 5 -15 10 0 6 7 10 15 10 8 0 15 -4 15 -10z"/>
<path d="M612 409 c3 -22 9 -25 78 -31 41 -5 79 -10 85 -11 15 -6 -90 -27
-129 -27 -29 0 -34 -4 -39 -27 -3 -16 -4 -30 -2 -32 2 -2 37 8 77 22 40 14 92
28 115 32 82 13 65 32 -57 64 -143 38 -132 37 -128 10z"/>
<path d="M566 401 c-16 -18 -16 -21 -1 -50 23 -45 35 -38 35 19 0 54 -7 61
-34 31z"/>
<path d="M987 378 c-16 -12 -16 -21 -6 -95 14 -104 9 -132 -14 -79 -10 21 -20
56 -23 78 -7 39 -20 48 -42 26 -19 -19 -15 -35 21 -87 18 -26 39 -62 46 -79 8
-18 17 -32 21 -32 5 0 11 26 14 58 4 31 11 85 16 118 17 105 10 123 -33 92z
m23 -40 c0 -19 -2 -20 -10 -8 -13 19 -13 30 0 30 6 0 10 -10 10 -22z"/>
<path d="M765 284 c-33 -8 -96 -22 -140 -30 -113 -23 -106 -19 -94 -54 12 -34
13 -34 42 -18 12 6 78 30 147 54 68 23 126 47 128 53 5 14 -6 13 -83 -5z
m-185 -74 c-19 -13 -30 -13 -30 0 0 6 10 10 23 10 18 0 19 -2 7 -10z"/>
</g>
</svg>
