<?xml version="1.0" standalone="no"?>
<!DOCTYPE svg PUBLIC "-//W3C//DTD SVG 20010904//EN"
 "http://www.w3.org/TR/2001/REC-SVG-20010904/DTD/svg10.dtd">
<svg version="1.0" xmlns="http://www.w3.org/2000/svg"
 width="136.000000pt" height="359.000000pt" viewBox="0 0 136.000000 359.000000"
 preserveAspectRatio="xMidYMid meet">
<metadata>
Created by potrace 1.16, written by Peter Selinger 2001-2019
</metadata>
<g transform="translate(0.000000,359.000000) scale(0.100000,-0.100000)"
fill="#000000" stroke="none">
<path d="M438 3532 c-7 -8 -23 -18 -36 -23 -13 -5 -26 -18 -29 -29 -11 -42
-53 -18 -53 31 0 10 -4 19 -9 19 -17 0 -33 -29 -26 -51 5 -14 4 -19 -4 -15 -6
4 -11 18 -11 31 0 35 -18 40 -32 10 -10 -23 -10 -28 5 -36 20 -12 22 -29 4
-29 -14 0 -37 40 -37 65 0 19 -9 19 -32 -2 -17 -15 -18 -15 -18 0 0 25 -15 21
-28 -7 -9 -20 -7 -27 9 -42 10 -9 19 -22 19 -27 0 -5 -14 4 -30 21 -17 18 -30
39 -30 47 0 22 -17 18 -30 -6 -14 -25 -6 -49 15 -49 8 0 15 -4 15 -10 0 -5 -7
-10 -15 -10 -19 0 -19 -30 -1 -56 14 -18 15 -18 25 9 12 31 31 36 31 8 0 -30
19 -35 30 -9 10 25 34 58 42 58 2 0 3 -13 0 -30 -3 -23 0 -30 12 -30 9 0 16 6
16 14 0 7 8 20 17 27 14 12 16 12 11 -2 -3 -9 -2 -22 3 -30 6 -11 15 -7 38 21
22 26 30 30 31 18 0 -10 3 -18 8 -18 4 0 23 -14 42 -30 19 -16 39 -30 44 -30
4 0 6 -7 2 -15 -3 -9 0 -15 9 -15 11 0 12 7 5 31 -5 18 -15 39 -23 48 -11 14
-37 66 -37 75 0 2 32 4 71 5 46 1 68 -3 64 -10 -4 -5 1 -26 10 -45 20 -42 13
-54 -27 -54 -23 0 -29 -4 -24 -16 3 -9 6 -17 6 -20 0 -2 14 -1 30 3 26 5 30 3
30 -17 0 -21 -3 -22 -39 -16 -22 3 -42 2 -46 -3 -7 -13 27 -31 59 -31 22 0 26
-5 26 -27 0 -16 3 -57 6 -93 l6 -65 -36 -17 c-34 -17 -36 -20 -36 -68 0 -27 3
-50 6 -50 4 0 42 31 85 69 70 60 257 194 340 243 16 10 41 25 54 34 18 12 25
13 25 4 0 -7 15 -29 33 -50 17 -20 37 -45 43 -56 18 -30 28 -8 16 35 -7 21
-12 54 -12 74 0 41 -14 55 -37 35 -28 -23 2 25 42 68 33 35 45 64 27 64 -5 0
-17 -10 -28 -21 -10 -12 -43 -40 -72 -61 l-54 -40 -81 27 c-117 38 -239 88
-340 138 -74 37 -89 42 -99 29z m-248 -80 c0 -15 -2 -15 -10 -2 -13 20 -13 33
0 25 6 -3 10 -14 10 -23z m435 -22 c17 -7 17 -9 3 -9 -20 -1 -24 -16 -8 -26
22 -14 10 -35 -20 -35 -25 0 -30 4 -30 24 0 52 14 64 55 46z m57 -45 c-2 -14
-8 -25 -13 -25 -5 0 -9 11 -9 25 0 14 6 25 14 25 9 0 12 -8 8 -25z m58 -11 c0
-8 -5 -12 -10 -9 -6 4 -8 11 -5 16 9 14 15 11 15 -7z m-112 -56 c-4 -29 -58
-37 -58 -9 0 24 9 31 37 31 20 0 24 -5 21 -22z m62 2 c0 -11 -7 -20 -15 -20
-8 0 -15 9 -15 20 0 11 7 20 15 20 8 0 15 -9 15 -20z m60 16 c0 -2 3 -11 6
-20 4 -11 0 -16 -14 -16 -23 0 -36 15 -27 30 6 10 35 14 35 6z m68 -19 c2 -12
-3 -17 -17 -17 -15 0 -21 6 -21 21 0 25 33 22 38 -4z m113 6 c44 -8 24 -23
-32 -23 -43 0 -49 2 -49 21 0 18 4 20 26 15 15 -4 39 -10 55 -13z m129 -44 c0
-5 -4 -9 -10 -9 -5 0 -10 7 -10 16 0 8 5 12 10 9 6 -3 10 -10 10 -16z m-422
-94 l3 -80 -29 -11 -30 -11 -4 86 c-3 47 -3 90 -1 94 3 5 17 7 31 5 26 -3 27
-5 30 -83z m50 13 c-2 -46 -7 -73 -15 -76 -10 -3 -13 16 -13 72 0 62 3 76 15
76 13 0 15 -12 13 -72z m65 25 c-11 -89 -37 -95 -41 -9 -2 53 -1 56 23 56 24
0 24 -2 18 -47z m67 24 c0 -13 -9 -32 -20 -42 -20 -18 -20 -17 -20 23 0 35 3
42 20 42 14 0 20 -7 20 -23z m54 8 c-25 -19 -34 -19 -34 0 0 10 10 15 27 15
26 0 26 -1 7 -15z m-299 -213 c-6 -4 -22 -18 -37 -31 -23 -20 -28 -21 -28 -8
0 9 12 23 28 31 29 16 53 21 37 8z"/>
<path d="M320 3316 c-11 -21 -11 -28 0 -41 7 -8 10 -18 7 -21 -10 -10 -27 6
-27 26 0 29 -17 33 -35 8 l-15 -23 -6 23 c-7 26 -17 28 -35 6 -11 -14 -10 -19
10 -35 13 -11 21 -22 18 -26 -8 -8 -45 34 -58 67 -10 24 -11 24 -25 6 -20 -28
-17 -47 7 -53 15 -4 17 -8 8 -14 -17 -10 -49 18 -49 42 0 29 -17 31 -34 4 -22
-34 -20 -42 12 -51 20 -5 23 -8 10 -11 -11 -3 -18 -14 -18 -28 0 -32 15 -39
38 -18 47 45 72 62 78 52 3 -6 -2 -16 -11 -23 -15 -11 -16 -16 -5 -35 11 -22
12 -22 26 -4 14 17 14 17 25 -1 11 -17 13 -17 36 10 13 16 22 23 18 16 -3 -6
1 -19 9 -28 18 -18 20 -30 6 -39 -5 -3 -10 1 -10 9 0 24 -25 19 -38 -6 l-11
-23 -7 23 c-8 26 -17 28 -35 6 -11 -13 -10 -19 1 -37 12 -20 12 -21 -2 -9 -9
7 -19 24 -22 37 -8 31 -24 32 -35 3 l-8 -23 -7 23 c-9 28 -21 28 -40 0 -15
-21 -14 -24 12 -44 l27 -22 -27 -11 c-30 -11 -34 -22 -18 -52 12 -22 30 -25
30 -6 0 7 6 22 14 33 14 18 15 17 31 -19 8 -21 20 -35 25 -32 5 3 7 12 4 20
-3 8 1 24 9 36 15 21 15 21 32 -10 19 -37 29 -34 40 11 7 28 9 29 12 11 6 -31
31 -50 38 -29 3 9 7 23 10 31 2 9 13 18 22 22 10 4 21 10 24 15 3 5 25 -6 48
-23 44 -31 65 -32 43 -1 -12 17 -25 44 -44 92 -10 27 -13 25 -44 -26 -10 -17
-12 -16 -26 10 -13 26 -13 32 0 58 11 24 12 38 4 67 -6 20 -10 45 -9 55 3 29
-18 30 -33 2z m30 -86 c0 -5 -4 -10 -10 -10 -5 0 -10 5 -10 10 0 6 5 10 10 10
6 0 10 -4 10 -10z m-81 -13 c-2 -1 -13 -9 -24 -17 -19 -14 -19 -14 -6 3 7 9
18 17 24 17 6 0 8 -1 6 -3z"/>
<path d="M390 3284 c-6 -14 -10 -31 -10 -39 0 -12 87 -75 103 -75 13 0 7 28
-7 33 -7 3 -24 28 -37 56 -25 57 -35 62 -49 25z m30 -34 c0 -5 -2 -10 -4 -10
-3 0 -8 5 -11 10 -3 6 -1 10 4 10 6 0 11 -4 11 -10z"/>
<path d="M1194 3175 c-3 -8 -2 -20 2 -27 5 -7 7 -21 6 -30 -2 -11 3 -18 12
-18 16 0 41 64 31 80 -9 15 -45 12 -51 -5z"/>
<path d="M255 2850 c-3 -5 10 -31 29 -56 35 -46 43 -64 29 -64 -13 0 -27 14
-58 55 -35 48 -47 57 -59 45 -6 -6 2 -22 23 -44 21 -22 31 -41 28 -50 -9 -23
-37 -20 -37 4 0 11 -6 20 -14 20 -8 0 -18 9 -21 20 -7 21 -35 28 -35 8 0 -6 7
-19 16 -29 22 -25 8 -45 -17 -23 -10 9 -21 25 -24 35 -7 22 -35 26 -35 5 0 -7
11 -25 25 -40 27 -29 27 -59 0 -70 -16 -6 -21 -36 -7 -36 5 0 19 11 32 25 28
30 35 25 31 -21 -2 -24 2 -36 13 -40 9 -3 16 -13 16 -22 0 -12 -7 -9 -28 11
-20 19 -34 25 -50 20 -25 -6 -25 -30 0 -25 8 1 23 -7 33 -18 18 -20 18 -21 -1
-35 -10 -8 -25 -15 -31 -15 -7 0 -13 -9 -13 -19 0 -11 -3 -26 -6 -35 -4 -10
-1 -16 9 -16 9 0 19 9 22 20 3 11 11 20 16 20 6 0 8 -4 5 -9 -8 -12 3 -41 15
-41 5 0 9 5 9 12 0 19 31 47 46 41 8 -3 14 -14 14 -24 0 -29 11 -23 59 31 32
36 50 49 63 44 10 -3 18 -1 18 5 0 13 -68 104 -81 109 -16 6 -10 -19 12 -50
14 -19 18 -33 12 -39 -7 -7 -23 4 -47 32 -40 48 -60 45 -32 -4 l19 -32 -39 38
-39 37 47 47 c50 50 81 53 34 4 -36 -38 -15 -54 23 -17 15 14 32 26 39 26 7 0
12 5 12 12 0 6 8 20 17 30 15 17 15 20 -9 46 -14 15 -33 39 -43 55 -18 28 -30
34 -40 17z m-55 -149 c0 -6 -4 -13 -10 -16 -5 -3 -10 1 -10 9 0 9 5 16 10 16
6 0 10 -4 10 -9z m16 -168 c-10 -10 -19 5 -10 18 6 11 8 11 12 0 2 -7 1 -15
-2 -18z m62 -8 c-3 -3 -9 2 -12 12 -6 14 -5 15 5 6 7 -7 10 -15 7 -18z m-28
-25 c-18 -11 -24 -6 -16 16 5 14 9 15 19 5 9 -9 9 -14 -3 -21z m-60 15 c0 -2
-10 -10 -22 -16 -21 -11 -22 -11 -9 4 13 16 31 23 31 12z"/>
<path d="M539 2779 c-23 -47 -17 -59 34 -59 15 0 27 -4 27 -10 0 -5 -5 -10
-11 -10 -12 0 -8 -40 6 -72 5 -13 3 -18 -9 -18 -9 0 -16 -4 -16 -10 0 -5 6
-10 14 -10 15 0 26 -30 26 -76 0 -23 -5 -33 -20 -37 -28 -7 -25 -27 5 -27 21
0 25 -5 25 -27 0 -16 3 -38 6 -49 5 -18 0 -24 -30 -34 -20 -6 -36 -16 -36 -21
0 -13 51 -89 60 -89 4 0 10 6 13 14 9 24 141 123 274 207 70 43 131 79 135 79
4 0 7 -15 6 -32 -3 -28 1 -33 22 -36 14 -2 60 -17 103 -34 73 -28 96 -31 84
-11 -3 5 -35 24 -71 43 -37 19 -74 42 -83 52 -15 16 -13 21 22 64 22 26 65 67
97 92 32 25 58 49 58 54 0 19 -30 4 -107 -55 -45 -34 -95 -70 -112 -80 l-30
-18 -168 87 c-92 48 -196 104 -230 125 -35 22 -65 39 -68 39 -3 0 -14 -19 -26
-41z m78 -20 c42 -26 39 -31 -11 -19 -43 10 -51 15 -41 29 9 15 13 14 52 -10z
m52 -58 c11 -7 8 -12 -12 -26 -22 -14 -24 -20 -17 -41 7 -19 6 -24 -5 -24 -18
0 -20 39 -3 75 12 27 16 29 37 16z m67 -20 c-3 -5 -15 -7 -26 -4 -28 7 -25 13
6 13 14 0 23 -4 20 -9z m77 -25 c12 -8 45 -26 72 -41 l50 -27 -80 7 c-44 4
-84 10 -88 14 -10 10 2 61 14 61 6 0 20 -6 32 -14z m-117 -22 c-3 -9 -6 -21
-6 -27 0 -8 -3 -8 -10 -1 -12 12 -3 44 12 44 6 0 7 -7 4 -16z m44 -9 c0 -14
-4 -25 -10 -25 -5 0 -10 11 -10 25 0 14 5 25 10 25 6 0 10 -11 10 -25z m-85
-81 c7 -48 3 -60 -14 -49 -13 8 -15 95 -2 95 5 0 12 -21 16 -46z m45 -4 c0
-22 -4 -40 -10 -40 -5 0 -10 11 -10 24 0 13 -3 31 -6 40 -4 11 -1 16 10 16 12
0 16 -10 16 -40z m48 2 c2 -24 -1 -32 -12 -32 -12 0 -16 10 -16 36 0 45 24 42
28 -4z m187 18 c37 -1 -6 -17 -87 -32 l-78 -15 0 27 c0 15 2 29 5 31 2 3 35 2
72 -2 37 -5 77 -8 88 -9z m18 -50 c-45 -27 -123 -66 -150 -74 -20 -7 -23 -4
-23 22 0 28 2 29 88 50 111 26 124 26 85 2z m-244 -97 c1 -18 -3 -33 -8 -33
-10 0 -21 80 -13 94 8 14 20 -24 21 -61z m44 35 c2 -18 0 -36 -6 -40 -14 -9
-13 -10 -20 35 -4 27 -2 37 7 37 8 0 16 -15 19 -32z m-91 -30 c3 -24 2 -47 -1
-53 -6 -12 -19 29 -20 68 -2 44 16 31 21 -15z m48 -69 c-14 -11 -39 -33 -56
-49 -23 -23 -33 -27 -42 -18 -22 22 -12 33 51 60 74 33 80 33 47 7z"/>
<path d="M456 2775 c-11 -17 -29 -27 -56 -31 -29 -5 -40 -11 -40 -24 0 -13 11
-19 44 -24 29 -5 57 -19 85 -43 23 -19 44 -33 47 -30 3 2 -7 26 -21 52 -19 37
-23 56 -19 86 5 31 3 39 -9 39 -8 0 -22 -11 -31 -25z m17 -56 c4 -15 2 -19
-10 -15 -8 3 -19 6 -25 6 -6 0 -6 6 2 15 17 21 27 19 33 -6z"/>
<path d="M460 2593 c-24 -4 -50 -28 -50 -44 0 -5 20 -17 45 -28 25 -11 52 -27
61 -36 8 -8 20 -15 25 -15 16 0 10 28 -7 34 -13 5 -15 16 -12 51 6 49 5 50
-62 38z m30 -37 c0 -10 -7 -12 -22 -8 -21 5 -21 6 -2 13 10 4 20 8 22 8 1 1 2
-5 2 -13z"/>
<path d="M460 2445 c-14 -8 -33 -16 -42 -19 -10 -3 -18 -14 -18 -25 0 -15 9
-22 35 -27 25 -4 46 -18 67 -45 17 -22 35 -39 40 -39 16 0 8 29 -16 57 -20 24
-24 36 -19 71 6 46 -2 51 -47 27z m20 -35 c0 -5 -8 -10 -17 -10 -15 0 -16 2
-3 10 19 12 20 12 20 0z"/>
<path d="M257 2418 c-2 -7 12 -32 31 -56 22 -27 32 -46 26 -52 -7 -7 -25 12
-52 50 -24 33 -47 60 -52 60 -13 0 -13 -27 0 -35 5 -3 18 -18 29 -34 l21 -29
-24 -16 c-24 -15 -25 -15 -52 32 -34 59 -31 55 -44 47 -8 -5 -6 -14 5 -32 9
-14 14 -28 10 -31 -6 -6 -16 7 -40 53 -11 21 -36 27 -42 9 -2 -5 10 -25 27
-44 30 -33 37 -50 23 -50 -5 0 -26 -16 -47 -36 l-40 -36 24 -18 c27 -20 40
-18 40 8 0 9 11 31 24 47 22 27 25 28 31 12 5 -11 1 -25 -10 -37 -17 -19 -17
-21 0 -40 20 -22 35 -18 35 11 0 21 71 99 89 99 20 0 12 -18 -20 -44 -22 -19
-30 -33 -27 -53 4 -34 24 -41 33 -11 4 13 27 46 51 75 43 50 54 73 35 73 -5 0
-22 20 -38 45 -29 47 -39 53 -46 33z m-67 -128 c6 -11 7 -20 2 -20 -10 0 -32
21 -32 32 0 16 19 8 30 -12z"/>
<path d="M1307 2413 c-7 -13 5 -83 14 -83 13 0 29 36 29 64 0 19 -5 26 -19 26
-11 0 -22 -3 -24 -7z"/>
<path d="M287 2120 c-19 -22 -22 -37 -8 -42 5 -1 20 -27 34 -56 21 -43 24 -57
15 -72 -10 -15 -7 -28 16 -69 32 -60 20 -68 -18 -11 -30 45 -31 52 -13 81 10
17 9 23 -1 26 -19 7 -52 78 -52 113 0 36 -6 37 -31 8 -22 -27 -24 -48 -6 -48
7 0 23 -20 35 -45 18 -37 20 -49 10 -64 -10 -16 -7 -24 16 -51 15 -18 34 -46
42 -62 12 -23 21 -29 36 -24 23 5 93 -31 123 -64 10 -11 22 -20 27 -20 16 0 7
23 -23 57 -22 26 -30 44 -28 67 2 36 -12 76 -34 94 -14 12 -14 21 8 120 10 41
-3 41 -45 -3 -19 -19 -37 -35 -42 -35 -16 0 -38 71 -28 90 13 25 13 30 -3 30
-7 0 -20 -9 -30 -20z m109 -125 c-6 -22 -9 -25 -22 -14 -13 10 -12 14 3 29 23
22 27 18 19 -15z m19 -125 c-10 -11 -21 -20 -25 -20 -12 0 -36 65 -32 89 4 24
4 23 40 -12 35 -35 35 -37 17 -57z m25 -40 c0 -13 -5 -18 -15 -14 -16 7 -19
17 -8 27 12 13 23 7 23 -13z"/>
<path d="M177 2092 c-31 -32 -34 -47 -12 -56 21 -8 19 -36 -4 -36 -31 0 -44
23 -30 54 7 14 9 29 6 32 -7 7 -77 -36 -77 -48 0 -3 16 -16 35 -28 19 -12 35
-24 35 -26 0 -3 -15 -11 -34 -19 -33 -14 -34 -17 -29 -52 7 -48 12 -53 25 -28
6 10 29 38 51 62 40 43 40 43 59 24 22 -24 23 -35 3 -27 -8 3 -29 -7 -47 -21
-18 -15 -35 -29 -38 -31 -3 -2 2 -8 10 -12 44 -27 46 -29 30 -40 -8 -5 -27
-10 -42 -10 -31 0 -36 -11 -13 -30 8 -7 15 -21 15 -31 0 -22 22 -38 28 -20 2
7 14 24 27 39 23 26 23 27 44 8 24 -22 41 -13 23 12 -7 9 -15 25 -18 35 -4 9
-12 17 -19 17 -14 0 -27 25 -18 34 13 12 23 5 54 -44 36 -56 71 -72 44 -21 -8
17 -19 33 -25 36 -5 3 -10 26 -10 50 0 28 -5 47 -14 52 -8 5 -22 24 -30 43
-12 30 -12 40 -1 67 18 43 5 49 -28 15z"/>
<path d="M490 2107 c0 -8 3 -29 6 -46 6 -26 11 -31 35 -31 16 0 29 -4 29 -10
0 -5 -7 -10 -15 -10 -19 0 -19 0 1 -40 14 -27 14 -34 3 -41 -12 -7 -11 -10 2
-21 23 -18 42 -188 21 -188 -7 0 -12 -5 -10 -11 2 -6 8 -10 13 -9 11 1 22 -32
24 -67 1 -16 -6 -24 -23 -29 -20 -5 -25 -13 -28 -51 -4 -53 5 -62 35 -36 37
33 125 78 292 148 88 37 179 76 202 86 23 10 47 19 53 19 5 0 43 -34 83 -75
107 -111 115 -101 32 40 -30 51 -55 96 -55 100 0 4 29 50 65 102 38 55 62 100
57 105 -5 5 -49 -33 -102 -90 l-94 -98 -100 39 c-56 22 -121 48 -146 57 -107
43 -259 109 -310 136 -30 16 -58 30 -62 32 -5 2 -8 -3 -8 -11z m60 -47 c13 -8
13 -10 -2 -10 -9 0 -20 5 -23 10 -8 13 5 13 25 0z m79 -127 c1 -15 -25 -17
-34 -3 -3 5 -3 27 1 47 l7 38 13 -35 c7 -19 13 -41 13 -47z m76 50 c-32 -8
-39 -20 -21 -38 23 -23 20 -35 -9 -35 -28 0 -29 4 -14 49 9 25 16 31 37 30 21
-1 23 -2 7 -6z m65 -25 c0 -5 -5 -6 -12 -2 -11 7 -9 -10 7 -50 7 -16 5 -17
-16 -11 -33 10 -32 10 -25 49 5 28 10 33 26 29 11 -3 20 -10 20 -15z m47 -29
c-10 -6 -13 -17 -10 -31 4 -18 3 -20 -6 -12 -17 16 -4 64 16 57 14 -5 14 -7 0
-14z m160 -49 c98 -37 133 -58 133 -82 0 -4 -4 -8 -10 -8 -5 0 -43 -15 -82
-33 -105 -48 -138 -60 -144 -55 -3 3 -7 21 -10 40 l-6 34 88 20 c48 11 89 25
91 31 5 14 -49 32 -119 40 -53 5 -58 8 -58 29 0 13 2 24 5 24 3 0 53 -18 112
-40z m-343 -56 c5 -49 3 -81 -3 -87 -18 -18 -24 0 -29 83 -4 66 -2 80 10 80
12 0 17 -18 22 -76z m55 57 c9 -6 14 -30 15 -67 1 -54 -1 -59 -21 -62 -22 -3
-23 0 -23 67 0 71 3 78 29 62z m485 -19 c-16 -28 -15 -30 8 -68 42 -68 42 -70
-6 -24 -25 24 -46 47 -46 51 0 9 50 69 56 69 3 0 -2 -13 -12 -28z m-407 4 c0
0 3 -21 4 -46 3 -40 1 -45 -19 -48 -20 -3 -22 1 -22 36 0 22 -3 48 -7 57 -5
14 -2 16 18 10 13 -4 25 -8 26 -9z m57 -22 c11 -28 6 -54 -9 -54 -8 0 -15 6
-15 13 0 6 -3 22 -6 35 -7 26 20 32 30 6z m131 -12 c8 -5 -73 -31 -97 -32 -5
0 -8 12 -8 26 0 26 1 26 48 19 26 -4 51 -10 57 -13z m-115 -113 c0 -32 -3 -39
-20 -39 -17 0 -20 7 -20 39 0 36 14 55 33 44 4 -2 7 -22 7 -44z m-60 -13 c0
-41 -17 -65 -34 -49 -11 12 -6 81 7 86 24 10 27 6 27 -37z m-60 -21 c0 -25 -4
-45 -9 -45 -5 0 -16 -3 -24 -6 -12 -4 -16 5 -18 40 -3 34 0 46 11 50 36 9 40
6 40 -39z m-76 9 c12 -31 7 -74 -9 -74 -10 0 -15 10 -15 29 0 16 -3 36 -6 45
-4 10 -1 16 9 16 8 0 18 -7 21 -16z m6 -99 c0 -2 -18 -14 -41 -26 -28 -14 -40
-16 -37 -7 3 7 20 18 39 25 42 15 39 14 39 8z"/>
<path d="M1050 1831 c0 -6 5 -13 10 -16 6 -3 10 1 10 9 0 9 -4 16 -10 16 -5 0
-10 -4 -10 -9z"/>
<path d="M341 1714 l-21 -35 39 -47 c21 -26 41 -55 44 -65 4 -10 11 -15 17
-12 15 9 12 24 -11 57 l-22 30 24 -7 c13 -4 43 -20 67 -36 48 -32 62 -36 62
-16 0 8 -15 22 -34 32 -34 18 -34 20 -29 67 4 37 3 48 -8 48 -17 -1 -79 -55
-79 -70 0 -14 -17 -12 -23 3 -2 6 -1 21 4 32 11 28 11 55 0 55 -5 0 -18 -16
-30 -36z m106 -61 c-3 -3 -11 -2 -17 2 -8 5 -7 11 2 22 12 15 13 14 16 -1 2
-10 1 -20 -1 -23z"/>
<path d="M280 1719 c0 -6 -7 -17 -15 -25 -16 -17 -20 -44 -6 -44 5 0 26 -25
47 -55 22 -33 41 -52 47 -46 5 5 -4 26 -23 52 -28 38 -31 50 -26 87 4 33 2 42
-9 42 -8 0 -15 -5 -15 -11z"/>
<path d="M213 1694 c-26 -28 -29 -44 -11 -62 9 -9 9 -15 0 -24 -9 -9 -15 -8
-27 8 -8 10 -12 25 -10 32 3 6 8 20 12 29 8 21 -17 13 -57 -20 -38 -29 -38
-47 -1 -47 38 0 49 -17 23 -36 -18 -12 -19 -17 -7 -49 15 -44 27 -46 39 -6 10
36 26 39 51 11 21 -24 35 -26 35 -5 0 8 -9 19 -20 25 -20 11 -28 40 -11 40 5
0 21 -14 36 -31 28 -35 45 -32 27 3 -18 35 -36 62 -46 69 -4 4 -5 25 -1 48 8
46 0 50 -32 15z"/>
<path d="M1351 1664 c0 -11 3 -14 6 -6 3 7 2 16 -1 19 -3 4 -6 -2 -5 -13z"/>
<path d="M328 1336 c-16 -21 -16 -25 -2 -37 13 -11 13 -14 -1 -28 -14 -14 -17
-14 -25 -1 -5 8 -10 30 -10 48 0 35 -10 41 -30 17 -11 -14 -14 -13 -25 2 -11
15 -13 15 -25 -6 -8 -16 -15 -20 -22 -13 -15 15 -46 -3 -58 -31 -8 -21 -9 -20
-9 6 -1 32 -8 33 -41 7 -25 -20 -25 -20 -5 -36 17 -13 18 -16 5 -24 -8 -5 -19
-10 -24 -10 -8 0 0 -50 10 -60 3 -2 15 9 28 25 20 25 26 28 40 16 9 -7 16 -20
16 -27 0 -24 17 -15 30 16 13 32 30 31 30 -1 0 -10 5 -19 10 -19 7 0 6 -8 -1
-22 -7 -13 -12 -25 -12 -28 1 -3 -1 -7 -3 -9 -2 -2 -4 8 -4 22 0 34 -16 34
-52 0 l-28 -27 0 27 c0 32 -10 34 -33 9 -21 -23 -22 -42 -2 -42 17 0 20 -16 5
-25 -6 -4 -8 -21 -4 -41 4 -21 2 -40 -5 -48 -10 -11 -9 -16 4 -23 14 -8 14
-11 -4 -27 -14 -13 -17 -24 -12 -44 9 -35 24 -31 34 7 8 33 24 40 33 16 4 -8
12 -15 20 -15 8 0 14 -4 14 -10 0 -5 5 -10 10 -10 6 0 10 7 10 15 0 8 9 23 20
32 11 10 20 24 20 32 0 12 2 13 13 2 10 -10 8 -15 -6 -26 -15 -11 -16 -17 -7
-34 13 -25 40 -28 40 -5 0 22 40 75 51 68 5 -3 3 -14 -6 -27 -13 -19 -13 -23
2 -39 22 -24 33 -23 33 5 0 12 7 33 16 45 14 20 18 21 33 9 9 -7 26 -14 38
-15 13 0 42 -12 64 -26 l42 -24 -36 -16 c-21 -8 -37 -18 -37 -22 0 -10 49 -54
61 -54 5 0 9 4 9 10 0 21 282 189 288 171 6 -17 19 -13 24 7 6 20 178 108 187
95 13 -17 87 -132 111 -171 23 -38 50 -56 50 -33 0 5 -23 46 -51 90 l-51 80
12 53 c17 71 34 102 70 128 31 22 40 50 17 50 -7 0 -29 -16 -48 -36 -18 -20
-55 -53 -80 -75 l-47 -39 -128 46 c-173 61 -269 99 -330 131 l-52 27 -25 -30
c-24 -26 -25 -30 -10 -41 9 -7 14 -16 10 -19 -3 -4 1 -13 10 -22 10 -10 13
-26 10 -48 -3 -17 -2 -36 3 -40 5 -5 11 -44 14 -86 3 -42 8 -90 11 -105 l7
-28 -31 35 c-17 19 -31 43 -31 53 0 27 -18 20 -35 -14 -16 -29 -17 -30 -35
-14 -10 9 -22 30 -25 46 -8 36 -22 37 -37 3 -10 -20 -9 -27 2 -34 8 -5 11 -13
6 -17 -11 -12 -36 27 -36 56 0 26 20 68 20 44 0 -7 5 -13 11 -13 7 0 9 10 5
25 -8 31 1 32 31 3 29 -27 31 -4 3 32 -11 14 -20 35 -20 48 0 21 -3 23 -32 17
-38 -8 -80 -45 -60 -52 17 -7 15 -23 -3 -23 -10 0 -15 10 -15 29 0 16 -4 31
-10 33 -11 4 19 68 32 68 6 0 6 -6 -1 -14 -11 -13 -6 -46 8 -46 3 0 20 17 38
37 l32 38 16 -22 c9 -13 22 -23 29 -23 7 0 22 -10 34 -23 21 -22 21 -22 2 -47
-27 -35 -25 -42 21 -79 46 -38 61 -34 35 10 -26 44 -36 85 -23 98 7 7 6 15 -3
26 -8 9 -16 35 -19 58 -7 49 -23 57 -40 20 l-13 -28 -19 24 c-14 17 -18 32
-14 53 8 35 -13 38 -37 4z m207 -36 c3 -5 -1 -10 -10 -10 -9 0 -13 5 -10 10 3
6 8 10 10 10 2 0 7 -4 10 -10z m-271 -31 c-8 -13 -24 -1 -24 18 0 13 3 13 15
3 8 -7 12 -16 9 -21z m-59 11 c3 -5 1 -10 -4 -10 -6 0 -11 5 -11 10 0 6 2 10
4 10 3 0 8 -4 11 -10z m-35 -24 c0 -8 -4 -17 -9 -21 -12 -7 -24 12 -16 25 9
15 25 12 25 -4z m395 -10 c-17 -12 -18 -17 -7 -40 16 -35 15 -36 -8 -36 -13 0
-20 7 -20 20 0 30 22 70 39 70 11 0 11 -3 -4 -14z m75 0 c0 -9 -30 -14 -35 -6
-4 6 3 10 14 10 12 0 21 -2 21 -4z m50 -16 c0 -5 -5 -10 -11 -10 -7 0 -9 -10
-5 -25 5 -18 2 -25 -9 -25 -18 0 -18 -1 -4 39 10 29 29 43 29 21z m-74 -27
c19 -25 17 -33 -6 -33 -15 0 -20 7 -20 25 0 29 8 32 26 8z m129 7 c3 -5 1 -10
-5 -10 -7 0 -10 -7 -6 -15 3 -9 0 -15 -9 -15 -16 0 -18 9 -9 34 7 18 20 21 29
6z m55 -30 c0 -5 -5 -10 -11 -10 -5 0 -7 5 -4 10 3 6 8 10 11 10 2 0 4 -4 4
-10z m-460 -41 c0 -6 -4 -7 -10 -4 -5 3 -10 11 -10 16 0 6 5 7 10 4 6 -3 10
-11 10 -16z m745 -26 c-6 -24 -7 -25 -22 -10 -15 15 -15 18 2 37 22 24 30 13
20 -27z m-522 -10 c4 -21 2 -42 -3 -47 -7 -7 -10 -4 -10 6 0 8 -3 30 -6 47 -4
18 -2 31 3 31 6 0 13 -17 16 -37z m65 -5 c-2 -31 -8 -44 -20 -46 -15 -3 -18 4
-18 42 0 40 3 46 21 46 18 0 20 -5 17 -42z m60 -1 c3 -31 0 -37 -16 -37 -16 0
-18 6 -16 38 2 20 3 39 3 40 1 2 7 2 14 0 6 -3 13 -21 15 -41z m70 7 c3 -27
-1 -32 -22 -36 -24 -5 -26 -3 -26 34 0 35 2 39 23 36 17 -2 23 -11 25 -34z
m56 20 c12 -32 6 -54 -14 -54 -16 0 -20 7 -20 35 0 37 22 49 34 19z m160 3
l29 -13 -59 -27 c-76 -33 -104 -28 -104 19 l0 34 53 0 c28 -1 65 -7 81 -13z
m-794 -21 c0 -8 -7 -16 -15 -20 -15 -5 -21 14 -8 27 11 12 23 8 23 -7z m70 5
c0 -12 -20 -25 -27 -18 -7 7 6 27 18 27 5 0 9 -4 9 -9z m-29 -97 c-14 -33 -31
-22 -31 20 0 42 10 51 28 25 11 -16 12 -26 3 -45z m-69 31 c8 -19 8 -28 -2
-40 -18 -22 -27 -19 -33 12 -10 52 15 72 35 28z m132 -16 c-4 -13 -7 -30 -6
-36 2 -7 -1 -13 -6 -13 -16 0 -23 49 -11 71 15 28 34 10 23 -22z m486 -10 c0
-11 -10 -23 -22 -28 -13 -5 -23 -8 -24 -7 -1 0 -4 13 -8 28 -5 22 -2 27 16 30
31 5 38 1 38 -23z m50 17 c0 -8 -7 -16 -15 -20 -10 -4 -15 1 -15 14 0 11 7 20
15 20 8 0 15 -6 15 -14z m-127 -28 c4 -23 0 -37 -11 -46 -15 -11 -18 -9 -25
19 -10 37 -3 59 17 59 8 0 16 -14 19 -32z m-121 -38 c1 -33 0 -60 -4 -60 -5 0
-8 17 -8 38 0 20 -3 47 -6 60 -4 12 -2 22 4 22 6 0 12 -27 14 -60z m60 25 c0
-19 1 -41 2 -47 1 -7 -6 -14 -15 -16 -11 -2 -18 7 -23 29 -11 54 -8 69 14 69
16 0 20 -7 22 -35z m-448 -24 c9 -15 -23 -36 -36 -23 -5 5 -7 15 -4 21 9 13
33 14 40 2z m351 -111 c-3 -5 -12 -10 -18 -10 -7 0 -6 4 3 10 19 12 23 12 15
0z"/>
<path d="M1306 952 c-7 -12 5 -82 15 -82 11 0 32 68 24 80 -8 12 -32 13 -39 2z"/>
<path d="M283 664 c-13 -14 -23 -30 -23 -35 0 -6 -5 -7 -10 -4 -8 5 -7 11 0
20 20 25 2 36 -31 20 -34 -18 -37 -35 -9 -42 24 -6 26 -19 4 -27 -26 -10 -37
4 -31 40 7 39 -10 45 -37 15 -17 -18 -17 -20 4 -41 21 -21 23 -41 4 -47 -15
-5 -38 47 -35 81 l3 28 -36 -28 c-40 -32 -48 -60 -16 -51 20 5 32 -5 43 -35 4
-12 -4 -23 -29 -39 -24 -14 -32 -25 -26 -31 7 -7 21 -3 42 12 17 12 33 21 34
19 9 -11 30 -55 29 -60 -1 -4 9 -17 22 -29 14 -13 25 -28 25 -34 0 -5 -17 7
-38 27 -21 20 -46 37 -55 37 -24 0 -22 -4 29 -53 l47 -44 -37 -22 c-29 -19
-34 -26 -25 -37 9 -12 17 -9 42 16 17 17 34 30 39 30 13 0 9 -28 -5 -37 -6 -4
-18 -20 -26 -36 -13 -25 -13 -29 5 -41 14 -11 16 -18 8 -26 -14 -14 -46 32
-38 54 8 20 5 20 -34 0 -41 -20 -40 -30 3 -48 19 -8 35 -19 35 -24 0 -15 -50
-44 -66 -38 -16 6 -18 -12 -5 -33 8 -12 15 -10 43 10 49 38 58 42 58 27 0 -7
-16 -24 -36 -36 -26 -17 -33 -27 -26 -34 8 -8 27 3 67 37 59 50 93 54 37 4
-29 -26 -41 -49 -26 -49 10 0 114 90 114 98 0 4 -14 23 -30 42 -17 19 -33 43
-36 53 -6 18 -25 19 -31 1 -2 -6 12 -28 32 -51 47 -56 44 -66 -5 -18 -22 22
-40 49 -40 60 0 25 95 111 105 96 3 -5 -3 -16 -13 -23 -37 -26 -34 -59 9 -106
22 -23 42 -42 44 -42 15 0 0 30 -31 65 l-35 40 43 37 c29 25 49 35 62 31 15
-4 18 -1 13 11 -16 40 64 -1 93 -49 16 -25 26 -33 33 -26 7 7 1 22 -18 47
l-29 38 27 48 c15 26 23 48 17 48 -5 0 -39 -16 -75 -36 l-66 -36 -35 41 c-20
22 -44 41 -55 41 -29 0 -23 -12 26 -54 37 -30 44 -41 34 -52 -16 -19 -30 -18
-27 3 2 10 -2 18 -8 18 -14 0 -54 40 -78 76 -15 24 -15 27 -1 39 13 11 18 10
30 -6 12 -17 14 -17 20 -3 3 9 5 22 3 29 -6 25 19 20 31 -6 8 -19 15 -24 22
-17 7 7 7 17 -2 31 -7 12 -11 24 -8 26 9 9 102 -40 131 -68 36 -37 49 -14 13
24 -19 20 -26 36 -23 56 3 33 4 33 133 13 62 -10 163 -45 154 -53 -2 -2 -17
-6 -33 -10 -27 -7 -28 -6 -15 10 13 16 12 17 -13 12 -16 -3 -28 -1 -28 5 0 5
-13 7 -30 4 -17 -4 -30 -2 -30 3 0 12 -49 3 -65 -11 -6 -6 -3 -20 8 -38 12
-20 19 -59 22 -118 2 -48 7 -123 10 -166 5 -64 3 -78 -10 -83 -10 -4 -15 -20
-15 -53 0 -75 11 -81 61 -33 23 23 67 61 98 84 31 23 72 53 91 68 63 47 272
180 283 180 1 0 27 -49 57 -110 57 -113 88 -143 77 -72 -4 20 -10 119 -13 220
-5 121 -11 182 -18 182 -10 0 -55 -69 -107 -160 l-16 -28 -74 35 c-41 19 -94
44 -119 55 -99 46 -287 138 -313 155 -24 16 -29 16 -37 3 -9 -13 -11 -13 -20
0 -9 13 -12 13 -21 -2 -17 -30 -96 -78 -128 -78 -34 0 -49 27 -32 58 10 18 6
32 -8 32 -3 0 -16 -12 -28 -26z m277 -24 c12 -8 11 -10 -7 -10 -12 0 -25 5
-28 10 -8 13 15 13 35 0z m-260 -44 c0 -21 -20 -30 -33 -17 -9 9 -8 14 3 21
21 14 30 12 30 -4z m136 -11 c-3 -9 -11 -13 -16 -10 -8 5 -7 11 1 21 14 18 24
11 15 -11z m-191 -26 c0 -7 -8 -15 -17 -17 -18 -3 -25 18 -11 32 10 10 28 1
28 -15z m941 -296 c-3 -5 -86 158 -86 168 0 6 17 39 38 73 l37 61 6 -150 c3
-82 5 -151 5 -152z m-992 272 c3 -9 -1 -18 -10 -22 -19 -7 -28 2 -21 22 8 19
23 19 31 0z m594 -4 c10 -6 8 -10 -8 -14 -17 -4 -21 -11 -17 -26 3 -14 0 -21
-10 -21 -10 0 -13 5 -8 18 4 9 10 25 12 35 6 19 12 21 31 8z m-188 -23 c0 -16
-3 -19 -11 -11 -6 6 -8 16 -5 22 11 17 16 13 16 -11z m50 -3 c0 -8 -7 -15 -15
-15 -9 0 -12 6 -9 15 4 8 10 15 15 15 5 0 9 -7 9 -15z m57 -21 c-12 -12 -37 5
-30 21 5 15 7 15 21 1 9 -9 13 -18 9 -22z m204 -14 c82 -38 83 -39 39 -34 -84
10 -150 25 -150 35 0 8 20 37 26 39 1 0 39 -18 85 -40z m-680 -10 c6 -16 16
-30 22 -30 8 0 8 -3 -1 -12 -8 -8 -15 -8 -27 2 -22 18 -37 48 -30 60 11 18 26
10 36 -20z m372 -42 c6 -47 3 -68 -7 -57 -8 10 -16 109 -8 109 5 0 12 -23 15
-52z m47 15 c0 -16 3 -38 6 -50 5 -17 2 -23 -10 -23 -11 0 -16 9 -16 28 0 15
-3 37 -6 50 -5 16 -2 22 10 22 11 0 16 -9 16 -27z m64 -14 c10 -50 7 -59 -14
-59 -11 0 -20 6 -20 14 0 7 -3 28 -6 45 -6 26 -4 31 14 31 14 0 21 -9 26 -31z
m66 -19 c0 -33 -3 -40 -20 -40 -17 0 -20 7 -20 40 0 33 3 40 20 40 17 0 20 -7
20 -40z m-308 8 c-6 -6 -15 -8 -19 -4 -4 4 -1 11 7 16 8 5 17 7 19 4 3 -2 -1
-10 -7 -16z m433 8 c52 -8 91 -10 93 -5 5 12 42 12 42 0 0 -5 -8 -12 -17 -16
-28 -12 -214 -32 -219 -23 -4 6 5 59 10 58 0 -1 42 -7 91 -14z m-622 -21 c7
-16 -8 -29 -23 -20 -10 6 -2 35 10 35 4 0 10 -7 13 -15z m-38 -35 c3 -5 1 -10
-4 -10 -6 0 -11 5 -11 10 0 6 2 10 4 10 3 0 8 -4 11 -10z m694 -14 c-6 -5
-121 -66 -125 -66 -2 0 -4 13 -4 29 0 25 5 30 28 34 37 6 106 8 101 3z m-324
-87 c5 -48 4 -74 -4 -82 -8 -8 -11 -2 -11 24 0 18 -3 58 -7 88 -4 37 -3 52 4
48 6 -4 14 -39 18 -78z m43 11 c2 -35 -2 -68 -7 -73 -8 -8 -11 -4 -11 14 0 13
-3 48 -7 78 -5 44 -3 53 8 49 10 -3 15 -24 17 -68z m53 58 c5 -91 3 -103 -13
-106 -16 -3 -18 5 -18 57 0 48 3 61 15 61 8 0 15 -6 16 -12z m75 -26 c1 -23
-5 -37 -20 -48 -20 -14 -21 -13 -26 28 -7 53 -4 60 23 56 17 -2 22 -10 23 -36z
m-40 -91 c-3 -5 -30 -25 -58 -44 -29 -19 -64 -47 -77 -61 -13 -14 -28 -23 -32
-20 -23 14 -2 37 79 83 93 54 96 56 88 42z m-516 -20 c0 -6 -4 -13 -10 -16 -5
-3 -10 1 -10 9 0 9 5 16 10 16 6 0 10 -4 10 -9z"/>
<path d="M320 301 c0 -5 16 -25 36 -45 20 -20 34 -40 32 -44 -1 -5 -31 -32
-65 -61 -35 -28 -63 -59 -63 -67 0 -23 11 -16 79 49 76 71 95 73 149 12 41
-47 68 -46 38 0 -18 28 -21 77 -5 106 7 15 7 24 -2 35 -15 18 -29 18 -29 0 0
-8 -20 -26 -45 -39 -29 -17 -45 -21 -45 -13 0 13 -61 76 -73 76 -4 0 -7 -4 -7
-9z m170 -68 c-1 -20 -16 -31 -30 -22 -13 8 -13 10 0 19 18 12 30 13 30 3z"/>
<path d="M1301 246 c-15 -18 -3 -46 19 -46 10 0 21 7 24 16 6 16 -9 44 -24 44
-4 0 -13 -6 -19 -14z"/>
</g>
</svg>
