<?xml version="1.0" standalone="no"?>
<!DOCTYPE svg PUBLIC "-//W3C//DTD SVG 20010904//EN"
 "http://www.w3.org/TR/2001/REC-SVG-20010904/DTD/svg10.dtd">
<svg version="1.0" xmlns="http://www.w3.org/2000/svg"
 width="122.000000pt" height="67.000000pt" viewBox="0 0 122.000000 67.000000"
 preserveAspectRatio="xMidYMid meet">
<metadata>
Created by potrace 1.16, written by Peter Selinger 2001-2019
</metadata>
<g transform="translate(0.000000,67.000000) scale(0.100000,-0.100000)"
fill="#000000" stroke="none">
<path d="M884 636 c-12 -7 -28 -17 -35 -23 -8 -6 -89 -49 -180 -97 l-166 -85
-31 72 c-18 40 -32 79 -32 87 0 8 -4 21 -9 29 -7 11 -23 4 -78 -36 -37 -27
-83 -55 -102 -61 -33 -12 -37 -10 -85 27 -48 38 -51 39 -73 23 -33 -25 -28
-37 20 -51 63 -19 245 -112 252 -128 3 -8 3 -19 -1 -24 -13 -21 -192 -95 -276
-113 -21 -5 -30 -15 -37 -43 -14 -49 -6 -57 32 -30 52 38 127 79 127 69 0 -6
11 -13 24 -16 13 -3 49 -28 79 -56 30 -27 57 -50 61 -50 3 0 15 18 26 39 11
22 41 57 67 78 27 21 51 42 55 47 3 5 21 -2 40 -15 63 -48 258 -161 271 -156
13 4 -90 72 -183 121 -30 16 -90 52 -132 79 l-78 50 30 19 c37 22 147 78 155
78 3 0 5 -4 5 -10 0 -5 -7 -10 -15 -10 -8 0 -15 -4 -15 -10 0 -5 9 -10 21 -10
12 0 19 -5 16 -12 -2 -7 -16 -12 -31 -11 -35 2 -34 -15 2 -19 15 -2 27 -7 27
-13 0 -5 -12 -11 -27 -13 -38 -4 -35 -22 3 -22 17 0 28 -4 24 -10 -3 -5 -15
-10 -26 -10 -10 0 -19 -5 -19 -11 0 -6 9 -8 20 -4 15 5 22 1 29 -17 9 -21 10
-21 12 -3 1 11 2 28 1 38 -1 9 4 17 12 17 7 0 13 -12 14 -27 1 -45 5 -63 13
-63 3 0 5 20 4 45 -3 39 -1 45 16 45 22 0 24 -11 7 -28 -9 -9 -9 -12 0 -12 7
0 12 -10 12 -22 0 -18 2 -20 9 -8 6 8 7 18 5 22 -3 4 4 8 15 8 14 0 21 -6 21
-19 0 -11 5 -23 10 -26 6 -4 10 5 10 19 0 16 6 26 14 26 8 0 18 5 22 12 5 8 0
9 -14 6 -21 -6 -22 -3 -22 82 0 49 -4 91 -9 95 -5 3 -11 -5 -13 -17 -2 -13
-11 -24 -21 -26 -14 -3 -17 2 -15 20 2 13 -1 25 -7 28 -5 3 -11 -11 -13 -30
l-4 -34 -19 24 c-15 20 -19 22 -19 8 0 -10 -7 -18 -15 -18 -8 0 -15 8 -15 18
0 12 24 31 72 57 127 70 146 78 160 66 7 -6 42 -33 78 -60 87 -66 207 -188
195 -200 -18 -15 -265 -190 -296 -208 -25 -15 -29 -22 -24 -43 10 -37 15 -38
37 -7 38 53 95 102 197 172 57 39 109 75 116 82 10 10 -10 35 -104 130 -65 65
-131 134 -147 154 -26 32 -32 35 -50 25z m32 -37 c19 -22 19 -22 -3 -8 -13 8
-23 17 -23 21 0 12 6 9 26 -13z m-466 -100 c16 -31 30 -62 30 -68 0 -11 -51
-41 -71 -41 -8 0 -10 17 -5 63 l6 64 -30 -5 c-29 -4 -29 -5 -23 -50 l6 -46
-41 30 c-23 16 -42 32 -42 35 0 4 22 27 50 53 44 41 52 45 70 34 11 -7 33 -38
50 -69z m-310 46 c14 -16 10 -18 -14 -9 -9 3 -16 10 -16 15 0 14 16 11 30 -6z
m125 -45 c-3 -5 -12 -10 -18 -10 -7 0 -6 4 3 10 19 12 23 12 15 0z m122 -42
c-3 -7 -5 -2 -5 12 0 14 2 19 5 13 2 -7 2 -19 0 -25z m291 -39 c-2 -6 -8 -10
-13 -10 -5 0 -11 4 -13 10 -2 6 4 11 13 11 9 0 15 -5 13 -11z m42 -4 c0 -8 -4
-15 -9 -15 -13 0 -22 16 -14 24 11 11 23 6 23 -9z m60 0 c0 -8 -9 -15 -20 -15
-11 0 -20 7 -20 15 0 8 9 15 20 15 11 0 20 -7 20 -15z m-114 -52 c-10 -10 -19
5 -10 18 6 11 8 11 12 0 2 -7 1 -15 -2 -18z m54 12 c0 -8 -7 -15 -15 -15 -16
0 -20 12 -8 23 11 12 23 8 23 -8z m58 -2 c2 -8 -5 -13 -17 -13 -12 0 -21 6
-21 16 0 18 31 15 38 -3z m-318 -34 c22 -12 42 -25 45 -29 5 -9 -104 -95 -144
-113 -21 -10 -27 -7 -57 27 -19 22 -34 45 -34 52 0 10 79 64 94 64 3 0 6 -16
6 -35 0 -19 5 -35 10 -35 6 0 10 17 10 38 0 59 9 63 70 31z m320 -14 c0 -13
-4 -14 -20 -5 -11 6 -20 13 -20 15 0 3 9 5 20 5 11 0 20 -7 20 -15z m-520 -76
c0 -6 -4 -7 -10 -4 -5 3 -10 11 -10 16 0 6 5 7 10 4 6 -3 10 -11 10 -16z
m-120 -4 c0 -2 -14 -12 -31 -21 -23 -12 -30 -12 -27 -3 3 8 15 16 29 20 13 4
25 7 27 8 1 1 2 -1 2 -4z"/>
<path d="M920 435 c-65 -23 -65 -23 -68 -64 -3 -36 0 -41 17 -41 12 0 21 -4
21 -8 0 -12 59 -44 70 -37 6 3 10 19 10 35 0 25 4 29 40 35 50 8 53 25 4 25
-37 0 -37 2 -17 56 8 22 -12 21 -77 -1z m40 -25 c0 -5 -10 -20 -22 -32 -19
-19 -20 -22 -5 -33 18 -13 23 -35 8 -35 -10 0 -61 57 -61 68 0 10 52 41 68 42
6 0 12 -4 12 -10z"/>
</g>
</svg>
