<?xml version="1.0" standalone="no"?>
<!DOCTYPE svg PUBLIC "-//W3C//DTD SVG 20010904//EN"
 "http://www.w3.org/TR/2001/REC-SVG-20010904/DTD/svg10.dtd">
<svg version="1.0" xmlns="http://www.w3.org/2000/svg"
 width="101.000000pt" height="146.000000pt" viewBox="0 0 101.000000 146.000000"
 preserveAspectRatio="xMidYMid meet">
<metadata>
Created by potrace 1.16, written by Peter Selinger 2001-2019
</metadata>
<g transform="translate(0.000000,146.000000) scale(0.100000,-0.100000)"
fill="#000000" stroke="none">
<path d="M144 1389 c-25 -41 -45 -49 -25 -11 16 30 14 32 -20 32 l-31 0 9 -42
c4 -24 8 -80 8 -126 0 -79 1 -83 20 -77 60 19 129 33 141 28 7 -3 23 -20 35
-39 11 -19 25 -34 30 -34 16 0 10 26 -11 45 -11 10 -20 21 -20 24 0 3 26 6 57
5 l58 0 1 -32 c0 -39 7 -47 24 -27 14 17 136 22 125 5 -3 -5 -12 -7 -20 -3
-11 4 -15 -2 -15 -22 0 -29 2 -28 -59 -9 -16 5 -19 -2 -24 -68 -5 -78 -3 -88
15 -70 7 7 27 12 44 12 28 0 33 -4 36 -27 4 -38 22 -36 23 2 0 23 5 31 23 33
30 5 28 22 -3 22 -14 0 -25 5 -25 10 0 6 14 10 30 10 17 0 30 5 30 10 0 6 -11
10 -25 10 -16 0 -25 6 -25 15 0 10 10 15 30 15 17 0 30 5 30 10 0 6 -11 10
-25 10 -20 0 -25 5 -25 25 0 23 3 25 50 25 45 0 51 -3 65 -31 16 -29 15 -32
-12 -66 -15 -20 -37 -47 -48 -62 -11 -14 -41 -52 -67 -84 -26 -32 -48 -62 -48
-68 0 -22 20 -5 58 49 45 64 109 126 148 144 13 6 24 14 24 18 0 4 -19 45 -42
91 -35 68 -43 96 -46 151 -3 37 -7 68 -11 68 -3 0 -17 -9 -31 -20 -23 -17 -24
-22 -13 -49 l11 -31 -97 0 c-70 0 -103 4 -117 15 -30 23 -44 18 -44 -16 0 -30
-1 -30 -55 33 -31 35 -66 80 -77 101 -12 20 -25 37 -30 37 -4 0 -19 -18 -34
-41z m109 -99 c70 -65 74 -76 27 -72 -34 4 -45 11 -80 58 -22 29 -40 63 -40
75 0 22 0 22 23 3 12 -10 44 -39 70 -64z m367 8 c-1 -28 -2 -30 -11 -15 -6 10
-8 25 -5 33 9 24 16 16 16 -18z m-437 -32 c42 -51 44 -56 20 -51 -10 2 -35 7
-55 10 -36 6 -38 7 -38 45 0 55 25 53 73 -4z m197 -16 c0 -5 -4 -10 -10 -10
-5 0 -10 5 -10 10 0 6 5 10 10 10 6 0 10 -4 10 -10z m253 -45 c16 -35 16 -35
-6 -35 -12 0 -51 -2 -87 -4 -41 -3 -76 1 -95 9 l-30 13 28 1 c43 1 31 21 -13
21 -38 0 -49 8 -33 23 3 4 54 7 113 7 l106 0 17 -35z m-503 1 c0 -3 -4 -8 -10
-11 -5 -3 -10 -1 -10 4 0 6 5 11 10 11 6 0 10 -2 10 -4z m390 -146 c0 -5 -11
-10 -25 -10 -14 0 -25 5 -25 10 0 6 11 10 25 10 14 0 25 -4 25 -10z m0 -40 c0
-5 -15 -10 -32 -10 -25 0 -29 3 -18 10 20 13 50 13 50 0z"/>
<path d="M853 1050 c1 -46 13 -52 28 -13 12 31 6 53 -15 53 -11 0 -15 -11 -13
-40z"/>
<path d="M245 724 c-45 -26 -52 -47 -17 -52 12 -2 22 -11 23 -20 0 -9 8 -42
18 -72 21 -62 19 -70 -14 -70 -36 0 -77 65 -69 108 8 40 -2 40 -46 3 l-35 -30
31 -11 c16 -6 38 -24 48 -40 19 -34 14 -36 -46 -19 -38 10 -38 10 -38 61 0 33
6 58 16 69 22 25 11 36 -30 31 -38 -4 -46 -21 -21 -42 19 -16 21 -90 2 -90
-14 0 -39 -78 -30 -93 3 -5 13 -1 24 9 12 11 42 18 89 22 62 4 70 2 77 -14 4
-11 19 -37 34 -59 14 -22 47 -73 74 -113 27 -44 51 -70 56 -65 5 5 -7 58 -31
128 -21 66 -38 120 -36 122 1 1 98 3 214 5 252 2 243 6 248 -102 3 -80 18 -57
-158 -247 -68 -73 -95 -112 -70 -101 13 6 112 115 112 124 1 20 89 74 138 85
52 11 77 29 52 37 -8 3 -24 15 -36 27 -19 19 -21 31 -19 90 1 50 6 71 19 80 9
7 16 16 16 22 0 5 -97 9 -237 8 -131 0 -250 2 -265 4 -29 3 -39 22 -59 103
-10 43 -9 51 10 83 11 20 21 38 21 41 0 10 -27 1 -65 -22z m15 -24 c0 -5 -5
-10 -11 -10 -5 0 -7 5 -4 10 3 6 8 10 11 10 2 0 4 -4 4 -10z m69 -302 c35
-105 32 -104 -38 10 l-50 82 29 0 c27 0 30 -5 59 -92z m495 -106 c3 -5 -10
-16 -29 -25 -40 -19 -44 -16 -13 13 24 22 34 25 42 12z"/>
<path d="M538 423 c-44 -5 -46 -9 -17 -39 13 -14 19 -30 15 -40 -6 -16 -9 -16
-72 2 -18 5 -22 0 -28 -26 -3 -18 -6 -61 -6 -95 l0 -62 50 5 c46 4 50 3 50
-17 0 -11 5 -21 10 -21 6 0 10 8 10 18 0 10 12 23 28 29 24 10 25 11 5 12 -38
2 -37 21 1 21 20 0 36 5 36 10 0 6 -13 10 -30 10 -35 0 -41 17 -7 23 22 4 22
4 -3 15 -25 11 -25 11 8 11 41 1 42 21 1 21 -20 0 -29 4 -27 12 3 7 15 12 29
13 13 0 24 5 24 10 0 6 -12 9 -27 9 -22 -2 -28 2 -28 20 0 11 9 27 20 34 22
14 27 33 8 30 -7 -1 -30 -3 -50 -5z m-3 -113 c4 -6 -9 -10 -32 -9 -30 0 -34 2
-18 9 27 12 43 12 50 0z m-10 -39 c-18 -7 -55 -4 -55 5 0 2 17 4 38 3 28 0 32
-2 17 -8z m5 -31 c0 -5 -14 -10 -31 -10 -17 0 -28 4 -24 10 3 6 17 10 31 10
13 0 24 -4 24 -10z m0 -40 c0 -5 -13 -10 -29 -10 -17 0 -33 5 -36 10 -4 6 8
10 29 10 20 0 36 -4 36 -10z"/>
<path d="M897 234 c-15 -15 -7 -45 11 -42 9 2 17 12 17 22 0 20 -16 31 -28 20z"/>
</g>
</svg>
