<?xml version="1.0" standalone="no"?>
<!DOCTYPE svg PUBLIC "-//W3C//DTD SVG 20010904//EN"
 "http://www.w3.org/TR/2001/REC-SVG-20010904/DTD/svg10.dtd">
<svg version="1.0" xmlns="http://www.w3.org/2000/svg"
 width="150.000000pt" height="68.000000pt" viewBox="0 0 150.000000 68.000000"
 preserveAspectRatio="xMidYMid meet">
<metadata>
Created by potrace 1.16, written by Peter Selinger 2001-2019
</metadata>
<g transform="translate(0.000000,68.000000) scale(0.100000,-0.100000)"
fill="#000000" stroke="none">
<path d="M383 673 c208 -2 546 -2 750 0 205 1 35 2 -378 2 -412 0 -580 -1
-372 -2z"/>
<path d="M750 585 c-5 -14 -14 -25 -20 -25 -5 0 -10 -6 -10 -14 0 -8 8 -14 18
-14 25 2 72 -11 71 -20 0 -11 -156 -112 -173 -112 -8 0 -44 32 -80 71 l-66 71
-12 -27 c-10 -22 -10 -29 2 -39 9 -6 16 -31 17 -57 2 -44 1 -46 -23 -41 -25 5
-31 16 -14 27 8 5 8 11 1 19 -6 7 -8 29 -4 50 6 37 6 37 -23 30 -16 -4 -32
-11 -35 -17 -4 -5 -63 -8 -140 -6 -131 4 -134 4 -137 -18 -2 -15 -13 -24 -34
-28 -27 -6 -29 -10 -23 -34 4 -14 9 -69 11 -121 3 -52 7 -102 11 -110 8 -24
25 29 21 72 -4 60 16 44 22 -17 7 -73 26 -67 21 7 -2 46 0 58 12 58 10 0 17
-16 21 -50 4 -33 11 -48 18 -44 6 4 8 25 5 55 -5 38 -3 49 8 49 10 0 17 -17
21 -50 9 -66 28 -66 22 0 -3 28 -2 50 2 50 9 0 20 -36 20 -67 0 -13 5 -23 11
-23 8 0 10 15 7 45 -6 50 -13 46 82 49 l45 1 3 -53 c4 -65 17 -67 68 -9 21 23
60 59 88 80 56 41 44 44 137 -32 64 -51 67 -56 40 -71 -18 -9 -19 -14 -9 -35
6 -14 14 -25 17 -25 3 0 67 58 141 129 74 71 138 127 143 124 5 -3 4 -10 -2
-16 -18 -18 -13 -25 47 -63 31 -20 90 -68 131 -105 40 -38 80 -69 88 -69 11 0
14 15 13 73 -3 126 -6 117 44 111 47 -7 58 1 49 34 -4 19 -13 22 -57 24 l-51
1 49 6 c29 4 51 12 54 20 4 11 -5 12 -41 7 -28 -4 -48 -3 -52 4 -4 6 5 10 22
11 15 1 33 2 38 4 6 1 18 3 28 3 9 1 17 7 17 13 0 8 -17 10 -51 7 -61 -6 -68
4 -45 65 21 57 21 57 -17 57 -25 0 -56 -16 -118 -59 -47 -33 -103 -69 -126
-80 l-40 -21 -81 39 c-44 22 -106 61 -136 86 l-56 45 -10 -25z m546 -61 c9
-48 -5 -61 -51 -47 -45 14 -49 6 -43 -77 5 -65 12 -80 30 -62 7 7 25 12 40 12
l28 0 0 -77 0 -77 -32 30 c-109 99 -158 150 -164 167 -4 14 6 31 37 64 42 43
124 103 140 103 5 0 11 -16 15 -36z m-411 -40 c17 -9 54 -26 84 -39 l53 -22
-80 -71 c-128 -113 -123 -111 -179 -69 -27 19 -61 49 -76 65 l-28 30 31 22
c45 32 60 21 60 -45 0 -30 2 -55 5 -55 3 0 22 11 43 24 20 13 70 36 110 51 39
16 72 31 72 34 0 4 -22 11 -48 18 -26 6 -66 19 -88 28 -37 15 -38 17 -20 31
24 17 24 17 61 -2z m-475 -44 c0 -18 -7 -20 -54 -20 -54 0 -57 3 -47 38 1 1
24 2 51 2 43 0 50 -3 50 -20z m380 5 c0 -10 10 -15 28 -16 15 0 45 -6 67 -13
l40 -12 -64 -18 c-36 -10 -71 -20 -78 -23 -10 -4 -13 7 -11 46 1 28 6 51 10
51 4 0 8 -7 8 -15z m-540 -9 c-19 -8 -39 -11 -45 -7 -5 3 4 9 20 12 50 11 62
8 25 -5z m1043 7 c-7 -2 -21 -2 -30 0 -10 3 -4 5 12 5 17 0 24 -2 18 -5z
m-721 -29 c21 -15 38 -30 38 -35 0 -8 -71 -58 -127 -90 -32 -18 -33 -18 -33 1
0 15 7 20 29 20 34 0 41 14 41 81 0 27 3 49 7 49 4 0 24 -12 45 -26z m721 -11
c-7 -2 -19 -2 -25 0 -7 3 -2 5 12 5 14 0 19 -2 13 -5z m-873 -12 c0 -8 -121
-23 -128 -16 -2 2 -1 8 3 14 7 13 125 15 125 2z m-200 -16 c0 -8 -4 -15 -10
-15 -5 0 -10 7 -10 15 0 8 5 15 10 15 6 0 10 -7 10 -15z m-100 -5 c0 -5 -4
-10 -10 -10 -5 0 -10 5 -10 10 0 6 5 10 10 10 6 0 10 -4 10 -10z m50 0 c0 -5
-4 -10 -10 -10 -5 0 -10 5 -10 10 0 6 5 10 10 10 6 0 10 -4 10 -10z m1117 4
c-3 -3 -12 -4 -19 -1 -8 3 -5 6 6 6 11 1 17 -2 13 -5z m-787 -29 c0 -9 -9 -15
-25 -15 -26 0 -34 15 -12 23 23 10 37 7 37 -8z m-235 -4 c3 -5 1 -12 -5 -16
-5 -3 -10 1 -10 9 0 18 6 21 15 7z m165 -1 c0 -5 -17 -10 -39 -10 -21 0 -53
-3 -70 -6 -24 -5 -31 -3 -31 10 0 13 12 16 70 16 40 0 70 -4 70 -10z m-260
-10 c0 -5 -4 -10 -10 -10 -5 0 -10 5 -10 10 0 6 5 10 10 10 6 0 10 -4 10 -10z
m60 0 c0 -5 -7 -10 -15 -10 -8 0 -15 5 -15 10 0 6 7 10 15 10 8 0 15 -4 15
-10z m-110 -10 c0 -5 -4 -10 -10 -10 -5 0 -10 5 -10 10 0 6 5 10 10 10 6 0 10
-4 10 -10z"/>
<path d="M500 230 c0 -5 5 -10 10 -10 6 0 10 5 10 10 0 6 -4 10 -10 10 -5 0
-10 -4 -10 -10z"/>
</g>
</svg>
