<?xml version="1.0" standalone="no"?>
<!DOCTYPE svg PUBLIC "-//W3C//DTD SVG 20010904//EN"
 "http://www.w3.org/TR/2001/REC-SVG-20010904/DTD/svg10.dtd">
<svg version="1.0" xmlns="http://www.w3.org/2000/svg"
 width="125.000000pt" height="134.000000pt" viewBox="0 0 125.000000 134.000000"
 preserveAspectRatio="xMidYMid meet">
<metadata>
Created by potrace 1.16, written by Peter Selinger 2001-2019
</metadata>
<g transform="translate(0.000000,134.000000) scale(0.100000,-0.100000)"
fill="#000000" stroke="none">
<path d="M558 1306 c-16 -8 -48 -18 -73 -22 -25 -3 -45 -12 -45 -18 0 -7 11
-27 25 -46 49 -66 38 -70 -184 -75 -90 -2 -166 -7 -169 -10 -3 -3 -16 -5 -30
-5 -21 0 -23 -3 -16 -22 4 -13 8 -72 10 -133 1 -60 3 -118 3 -127 1 -26 26
-22 39 7 14 29 141 115 181 121 37 6 71 -23 110 -91 18 -33 36 -53 42 -49 8 4
9 -4 4 -26 -7 -31 -6 -32 16 -27 13 3 40 9 60 12 36 7 37 6 44 -32 3 -21 11
-59 16 -85 l10 -47 44 32 c24 18 55 40 70 50 16 12 24 25 21 35 -3 9 -8 33
-11 53 l-7 36 79 12 c43 7 123 21 178 32 55 10 111 20 125 22 14 2 26 11 28
19 2 11 -27 18 -150 32 -207 23 -222 26 -211 37 16 16 202 127 243 145 39 18
52 40 28 49 -7 3 -89 -1 -183 -8 -240 -19 -217 -26 -235 62 -8 41 -19 76 -25
78 -5 1 -22 -4 -37 -11z m37 -53 c5 -19 0 -26 -29 -40 -36 -17 -46 -37 -23
-46 6 -3 2 -6 -10 -6 -17 -1 -23 5 -23 22 0 12 -3 31 -5 42 -4 15 3 25 32 42
40 23 47 21 58 -14z m15 -73 c0 -13 -7 -20 -20 -20 -22 0 -28 25 -7 33 22 10
27 7 27 -13z m325 -56 c-141 -84 -238 -135 -250 -130 -7 2 -19 31 -25 63 -7
31 -14 63 -17 69 -3 8 39 14 139 21 238 16 221 19 153 -23z m-322 -29 c-23
-18 -30 -18 -37 0 -3 8 4 21 17 30 19 13 22 13 30 -1 6 -11 3 -20 -10 -29z
m-221 2 c-29 -30 -28 -34 8 -42 21 -5 36 -18 52 -46 12 -21 25 -39 30 -39 11
0 11 1 -17 64 -26 59 -32 96 -15 96 5 0 7 -7 3 -16 -5 -14 -2 -16 19 -11 24 6
27 3 37 -38 9 -37 9 -51 -4 -75 -19 -37 -19 -38 7 -42 18 -2 25 -13 34 -57
l12 -53 -31 7 c-18 4 -41 8 -52 8 -15 -1 -34 23 -71 86 -28 47 -55 96 -58 109
-10 30 -19 28 -33 -8 -6 -16 -22 -34 -36 -39 -14 -6 -28 -15 -32 -20 -15 -25
-25 -7 -25 44 l0 54 -43 -3 c-49 -5 -74 5 -62 24 6 10 10 9 17 -3 7 -14 12
-14 43 -1 30 12 223 35 234 27 3 -2 -5 -13 -17 -26z m162 6 c18 -92 19 -106 5
-101 -14 5 -41 96 -34 116 8 21 23 13 29 -15z m-129 -23 c3 -5 1 -10 -4 -10
-6 0 -11 5 -11 10 0 6 2 10 4 10 3 0 8 -4 11 -10z m219 -42 c5 -21 2 -28 -14
-33 -26 -8 -40 1 -40 27 0 22 31 51 41 40 4 -4 9 -19 13 -34z m-531 -55 c2
-35 0 -63 -5 -63 -4 0 -7 35 -7 78 1 85 6 80 12 -15z m36 -23 c0 -26 -2 -31
-9 -20 -5 8 -9 38 -9 65 1 44 2 46 9 20 4 -16 8 -46 9 -65z m48 13 c-2 -16 -4
-5 -4 22 0 28 2 40 4 28 2 -13 2 -35 0 -50z m148 27 c3 -6 -1 -7 -9 -4 -18 7
-21 14 -7 14 6 0 13 -4 16 -10z m241 -61 c1 -7 5 -30 9 -50 10 -54 -11 -57
-24 -4 -6 24 -11 51 -11 60 0 20 22 15 26 -6z m60 6 c-25 -19 -36 -19 -36 0 0
10 10 15 28 15 26 -1 26 -1 8 -15z m217 -5 c26 -6 67 -10 90 -10 65 0 78 -16
21 -25 -27 -3 -93 -15 -147 -26 -54 -10 -103 -19 -108 -19 -10 0 -21 25 -32
71 l-7 27 68 -4 c37 -3 89 -9 115 -14z m-185 -42 c2 -8 -5 -18 -15 -22 -10 -3
-24 -9 -30 -12 -20 -9 -16 27 5 42 21 16 36 13 40 -8z m-568 -12 c0 -3 -4 -8
-10 -11 -5 -3 -10 -1 -10 4 0 6 5 11 10 11 6 0 10 -2 10 -4z m580 -26 c0 -5
-7 -10 -16 -10 -8 0 -12 5 -9 10 3 6 10 10 16 10 5 0 9 -4 9 -10z m3 -37 c3
-5 8 -26 11 -49 7 -40 7 -41 -31 -53 -21 -7 -43 -15 -50 -17 -12 -5 -18 9 -28
67 -7 35 -6 36 37 46 58 14 56 14 61 6z"/>
<path d="M1185 800 c-6 -10 2 -66 11 -82 3 -4 11 -5 18 -2 17 7 29 49 21 75
-7 20 -39 26 -50 9z"/>
<path d="M358 523 c-2 -17 -13 -32 -33 -43 -30 -17 -31 -20 -19 -80 l6 -25
-94 1 c-51 1 -105 6 -121 12 -26 11 -27 11 -27 -23 0 -38 5 -40 44 -25 25 9
26 9 26 -35 0 -35 -4 -45 -20 -50 -11 -3 -24 -4 -29 0 -5 3 -12 1 -15 -4 -4
-5 -1 -13 4 -16 6 -4 10 -17 9 -28 -3 -39 1 -40 29 -12 21 21 171 105 189 105
8 0 2 -190 -7 -195 -9 -5 -15 -75 -7 -75 1 0 20 9 41 19 21 11 62 23 92 27
l54 6 0 49 c0 47 1 48 39 60 29 8 109 9 307 2 339 -11 355 -4 154 68 -63 23
-158 55 -210 71 -99 32 -106 35 -99 43 9 8 333 118 369 124 19 4 36 13 38 21
2 13 -41 15 -330 15 -183 0 -345 3 -360 8 -24 6 -27 4 -30 -20z m452 -22 l135
-1 -80 -29 c-259 -93 -231 -86 -283 -71 -26 7 -59 14 -74 14 -30 1 -32 6 -22
54 6 30 8 31 68 34 33 2 75 3 91 2 17 -1 91 -2 165 -3z m-367 -12 c-8 -8 -7
-20 3 -45 8 -18 14 -56 14 -83 l0 -50 -42 -3 c-43 -3 -62 -23 -32 -35 9 -3 30
-1 45 4 26 10 29 9 29 -8 0 -16 -7 -19 -46 -19 -59 0 -55 -24 4 -28 23 -2 42
-8 42 -13 0 -6 -18 -9 -42 -7 -24 2 -43 -2 -45 -8 -4 -13 50 -26 72 -18 8 4
15 2 15 -4 0 -15 -28 -23 -56 -16 -18 5 -24 2 -24 -10 0 -12 10 -16 41 -16 64
0 44 -24 -23 -28 l-55 -3 -6 39 c-9 54 3 250 18 296 8 27 21 43 41 52 38 16
62 18 47 3z m132 -118 c-6 -6 -30 -13 -55 -16 -42 -6 -44 -5 -26 9 21 17 97
23 81 7z m-265 -30 c0 -10 -7 -22 -16 -25 -22 -8 -24 -5 -17 22 7 27 33 29 33
3z m-130 -30 c0 -22 -4 -43 -10 -46 -6 -4 -10 12 -10 39 0 25 5 46 10 46 6 0
10 -18 10 -39z m40 27 c0 -23 -12 -58 -19 -58 -4 0 -5 16 -3 35 4 32 22 51 22
23z m40 -7 c0 -11 -4 -23 -10 -26 -5 -3 -10 -2 -10 4 0 5 -3 16 -6 25 -4 11
-1 16 10 16 9 0 16 -8 16 -19z m577 -47 c89 -32 161 -60 158 -62 -10 -11 -361
0 -472 14 -37 4 -43 9 -43 28 0 18 13 30 58 55 73 41 90 39 299 -35z"/>
<path d="M373 338 c5 -16 69 -16 75 0 2 8 -10 12 -38 12 -29 0 -40 -4 -37 -12z"/>
<path d="M1160 80 c-8 -15 -6 -21 10 -30 26 -14 40 -5 40 26 0 30 -34 33 -50
4z"/>
</g>
</svg>
