<?xml version="1.0" standalone="no"?>
<!DOCTYPE svg PUBLIC "-//W3C//DTD SVG 20010904//EN"
 "http://www.w3.org/TR/2001/REC-SVG-20010904/DTD/svg10.dtd">
<svg version="1.0" xmlns="http://www.w3.org/2000/svg"
 width="34.000000pt" height="31.000000pt" viewBox="0 0 34.000000 31.000000"
 preserveAspectRatio="xMidYMid meet">
<metadata>
Created by potrace 1.16, written by Peter Selinger 2001-2019
</metadata>
<g transform="translate(0.000000,31.000000) scale(0.100000,-0.100000)"
fill="#000000" stroke="none">
<path d="M72 209 c-18 -4 -36 -10 -40 -14 -9 -9 -2 -138 8 -148 12 -13 167 20
206 43 44 28 54 47 42 80 -15 44 -110 62 -216 39z m169 -29 c27 -15 24 -46 -7
-66 -22 -15 -163 -49 -169 -42 -1 2 -5 26 -7 55 -4 47 -3 52 16 56 44 9 148 7
167 -3z"/>
</g>
</svg>
