<?xml version="1.0" standalone="no"?>
<!DOCTYPE svg PUBLIC "-//W3C//DTD SVG 20010904//EN"
 "http://www.w3.org/TR/2001/REC-SVG-20010904/DTD/svg10.dtd">
<svg version="1.0" xmlns="http://www.w3.org/2000/svg"
 width="24.000000pt" height="51.000000pt" viewBox="0 0 24.000000 51.000000"
 preserveAspectRatio="xMidYMid meet">
<metadata>
Created by potrace 1.16, written by Peter Selinger 2001-2019
</metadata>
<g transform="translate(0.000000,51.000000) scale(0.100000,-0.100000)"
fill="#000000" stroke="none">
<path d="M47 493 c-2 -5 -3 -29 -1 -54 4 -83 49 -121 98 -84 15 11 21 31 24
75 5 63 -1 70 -39 49 -16 -8 -26 -7 -44 5 -27 18 -32 19 -38 9z m98 -75 c-10
-44 -13 -48 -35 -48 -21 0 -40 28 -40 59 0 18 6 21 41 21 41 0 41 0 34 -32z"/>
<path d="M55 288 c11 -76 24 -98 56 -98 34 0 59 40 59 95 l0 36 -44 -6 c-28
-5 -46 -3 -50 4 -16 26 -27 9 -21 -31z m95 -13 c0 -24 -23 -65 -36 -65 -15 0
-34 31 -34 54 0 14 17 23 53 25 9 0 17 -6 17 -14z"/>
<path d="M130 170 c-14 -4 -35 -5 -47 -3 -27 6 -29 -9 -12 -70 14 -50 51 -70
79 -41 20 21 32 115 15 119 -5 2 -21 -1 -35 -5z m5 -89 c-15 -15 -17 -14 -31
3 -23 32 -18 54 14 58 22 2 28 -1 30 -21 2 -13 -4 -31 -13 -40z"/>
</g>
</svg>
