<?xml version="1.0" standalone="no"?>
<!DOCTYPE svg PUBLIC "-//W3C//DTD SVG 20010904//EN"
 "http://www.w3.org/TR/2001/REC-SVG-20010904/DTD/svg10.dtd">
<svg version="1.0" xmlns="http://www.w3.org/2000/svg"
 width="26.000000pt" height="48.000000pt" viewBox="0 0 26.000000 48.000000"
 preserveAspectRatio="xMidYMid meet">
<metadata>
Created by potrace 1.16, written by Peter Selinger 2001-2019
</metadata>
<g transform="translate(0.000000,48.000000) scale(0.100000,-0.100000)"
fill="#000000" stroke="none">
<path d="M136 423 c-22 -12 -34 -13 -53 -4 -43 19 -46 15 -40 -48 8 -75 24
-110 54 -117 53 -14 83 36 83 138 0 45 -7 50 -44 31z m18 -70 c-9 -53 -22 -73
-45 -73 -22 0 -39 35 -39 81 0 28 2 29 45 29 l46 0 -7 -37z"/>
<path d="M141 218 c-6 -7 -31 -13 -54 -13 l-42 0 3 -40 c4 -46 30 -104 53
-118 24 -15 66 0 73 25 8 30 8 122 0 142 -7 19 -16 20 -33 4z m16 -80 c-4 -28
-13 -58 -20 -66 -12 -12 -17 -10 -36 14 -11 14 -21 32 -21 40 0 7 -3 19 -6 28
-5 12 0 16 17 16 13 0 31 5 39 10 28 18 33 10 27 -42z"/>
</g>
</svg>
