<?xml version="1.0" standalone="no"?>
<!DOCTYPE svg PUBLIC "-//W3C//DTD SVG 20010904//EN"
 "http://www.w3.org/TR/2001/REC-SVG-20010904/DTD/svg10.dtd">
<svg version="1.0" xmlns="http://www.w3.org/2000/svg"
 width="57.000000pt" height="45.000000pt" viewBox="0 0 57.000000 45.000000"
 preserveAspectRatio="xMidYMid meet">
<metadata>
Created by potrace 1.16, written by Peter Selinger 2001-2019
</metadata>
<g transform="translate(0.000000,45.000000) scale(0.100000,-0.100000)"
fill="#000000" stroke="none">
<path d="M96 392 c-3 -5 2 -39 11 -76 16 -66 15 -82 -14 -219 -6 -32 -6 -32
99 -12 90 17 206 56 252 84 60 37 75 113 30 154 -14 13 -58 33 -97 45 -81 24
-271 40 -281 24z m270 -47 c99 -28 133 -87 81 -139 -27 -27 -115 -62 -207 -82
-36 -8 -77 -17 -92 -20 -27 -6 -28 -6 -17 26 7 19 10 73 7 137 l-5 105 91 -7
c50 -3 114 -13 142 -20z"/>
</g>
</svg>
