<?xml version="1.0" standalone="no"?>
<!DOCTYPE svg PUBLIC "-//W3C//DTD SVG 20010904//EN"
 "http://www.w3.org/TR/2001/REC-SVG-20010904/DTD/svg10.dtd">
<svg version="1.0" xmlns="http://www.w3.org/2000/svg"
 width="99.000000pt" height="31.000000pt" viewBox="0 0 99.000000 31.000000"
 preserveAspectRatio="xMidYMid meet">
<metadata>
Created by potrace 1.16, written by Peter Selinger 2001-2019
</metadata>
<g transform="translate(0.000000,31.000000) scale(0.100000,-0.100000)"
fill="#000000" stroke="none">
<path d="M112 261 c-34 -5 -64 -10 -66 -12 -2 -2 -7 -46 -11 -96 -7 -90 -7
-93 14 -93 35 0 204 40 235 56 16 7 35 14 42 14 8 0 20 14 29 30 22 42 7 63
-56 83 -69 23 -111 27 -187 18z m13 -47 c-37 -40 -34 -81 8 -99 17 -8 25 -14
17 -15 -8 0 -32 -3 -52 -6 l-38 -7 0 67 c0 71 10 84 67 85 l22 1 -24 -26z
m197 -11 c17 -16 15 -38 -5 -46 -7 -3 -28 -12 -49 -21 l-36 -16 15 31 c8 17
13 41 10 54 -4 22 -1 24 22 18 14 -3 34 -12 43 -20z m-97 -18 c0 -53 -83 -73
-93 -22 -5 25 35 59 66 55 23 -2 27 -8 27 -33z"/>
<path d="M667 256 l-47 -8 6 -68 c5 -45 3 -69 -5 -74 -6 -4 -11 -14 -11 -22 0
-29 221 -9 291 27 48 24 68 69 46 103 -9 13 -31 29 -49 34 -45 15 -173 19
-231 8z m145 -39 c-24 -25 -28 -57 -12 -87 12 -22 3 -25 -93 -34 -56 -4 -58
-4 -50 17 4 12 7 43 6 69 -1 46 -1 47 30 51 18 2 56 5 86 5 l54 2 -21 -23z
m108 -12 c18 -22 2 -55 -35 -71 -33 -13 -65 -10 -65 6 0 5 -3 15 -6 23 -15 40
77 76 106 42z"/>
<path d="M447 113 c-9 -15 0 -77 12 -81 14 -5 33 45 26 69 -6 19 -30 26 -38
12z"/>
</g>
</svg>
