<?xml version="1.0" standalone="no"?>
<!DOCTYPE svg PUBLIC "-//W3C//DTD SVG 20010904//EN"
 "http://www.w3.org/TR/2001/REC-SVG-20010904/DTD/svg10.dtd">
<svg version="1.0" xmlns="http://www.w3.org/2000/svg"
 width="38.000000pt" height="35.000000pt" viewBox="0 0 38.000000 35.000000"
 preserveAspectRatio="xMidYMid meet">
<metadata>
Created by potrace 1.16, written by Peter Selinger 2001-2019
</metadata>
<g transform="translate(0.000000,35.000000) scale(0.100000,-0.100000)"
fill="#000000" stroke="none">
<path d="M134 294 c-51 -25 -83 -106 -66 -169 12 -42 64 -75 119 -75 35 0 50
6 79 33 31 28 37 41 42 85 6 67 -10 105 -54 125 -43 21 -80 21 -120 1z m127
-43 c33 -33 37 -66 14 -116 -19 -38 -54 -59 -100 -59 -89 0 -114 124 -37 184
37 30 88 26 123 -9z"/>
</g>
</svg>
