<?xml version="1.0" standalone="no"?>
<!DOCTYPE svg PUBLIC "-//W3C//DTD SVG 20010904//EN"
 "http://www.w3.org/TR/2001/REC-SVG-20010904/DTD/svg10.dtd">
<svg version="1.0" xmlns="http://www.w3.org/2000/svg"
 width="38.000000pt" height="42.000000pt" viewBox="0 0 38.000000 42.000000"
 preserveAspectRatio="xMidYMid meet">
<metadata>
Created by potrace 1.16, written by Peter Selinger 2001-2019
</metadata>
<g transform="translate(0.000000,42.000000) scale(0.100000,-0.100000)"
fill="#000000" stroke="none">
<path d="M70 358 c0 -7 12 -24 26 -39 24 -25 26 -31 15 -57 -11 -25 -10 -35 4
-62 15 -30 19 -32 62 -28 41 3 50 0 81 -29 19 -18 39 -33 43 -33 21 0 6 31
-26 58 -33 27 -35 31 -24 55 18 40 5 71 -36 86 -30 10 -39 10 -52 0 -13 -11
-19 -9 -39 16 -13 17 -24 33 -24 38 0 4 -7 7 -15 7 -8 0 -15 -5 -15 -12z m150
-83 c16 -20 5 -62 -20 -75 -51 -27 -94 36 -50 72 27 22 53 23 70 3z"/>
</g>
</svg>
