<?xml version="1.0" standalone="no"?>
<!DOCTYPE svg PUBLIC "-//W3C//DTD SVG 20010904//EN"
 "http://www.w3.org/TR/2001/REC-SVG-20010904/DTD/svg10.dtd">
<svg version="1.0" xmlns="http://www.w3.org/2000/svg"
 width="121.000000pt" height="51.000000pt" viewBox="0 0 121.000000 51.000000"
 preserveAspectRatio="xMidYMid meet">
<metadata>
Created by potrace 1.16, written by Peter Selinger 2001-2019
</metadata>
<g transform="translate(0.000000,51.000000) scale(0.100000,-0.100000)"
fill="#000000" stroke="none">
<path d="M139 426 c-10 -21 -7 -28 22 -54 29 -26 32 -32 20 -46 -19 -23 -23
-21 -54 30 l-28 46 -19 -25 c-27 -34 -25 -44 8 -52 45 -11 72 -44 72 -86 0
-35 -3 -38 -45 -55 -25 -9 -45 -22 -45 -28 0 -26 13 -56 24 -56 6 0 18 -9 26
-20 17 -24 40 -26 40 -3 0 30 47 80 80 85 27 4 36 -2 76 -49 25 -29 52 -53 60
-53 22 0 18 8 -31 62 -47 52 -52 63 -35 73 9 5 23 -7 68 -64 11 -14 24 -21 31
-17 8 5 -2 24 -32 59 -29 35 -42 59 -39 74 2 12 30 45 63 74 55 48 71 69 50
69 -5 0 -31 -20 -57 -45 -27 -25 -52 -45 -56 -45 -21 0 -2 29 42 65 28 22 50
46 50 53 0 17 -15 15 -31 -5 -8 -9 -31 -29 -52 -44 -32 -24 -43 -26 -65 -18
-14 6 -37 8 -49 4 -18 -4 -27 1 -43 27 -11 18 -20 41 -20 51 0 25 -19 21 -31
-7z m161 -116 c27 -27 25 -60 -5 -93 -47 -50 -115 -25 -115 43 0 64 75 95 120
50z m-106 -129 c6 -9 -65 -63 -73 -56 -5 6 49 65 60 65 4 0 10 -4 13 -9z"/>
<path d="M1089 389 c-25 -21 -31 -32 -21 -37 15 -10 32 -66 32 -109 l0 -33
-95 0 -95 0 0 39 c0 59 -20 62 -22 4 -1 -46 -1 -47 -5 -8 -6 67 -17 74 -23 15
l-7 -55 -1 53 c-1 28 -6 52 -12 52 -5 0 -11 -24 -12 -52 l-2 -53 -3 50 c-6 72
-23 82 -23 13 0 -31 -4 -60 -10 -63 -6 -4 -10 15 -10 49 0 74 -18 72 -23 -1
l-3 -58 -2 62 c-2 51 1 63 16 67 39 12 151 26 210 26 34 0 62 4 62 10 0 6 -39
10 -97 10 -54 0 -128 3 -165 7 l-68 6 0 -30 c0 -16 3 -33 6 -36 9 -9 15 -78 9
-97 -4 -12 -15 -15 -39 -12 -33 4 -34 3 -33 -32 1 -34 20 -55 32 -36 4 6 14
10 24 10 16 0 19 -8 17 -47 -2 -71 18 -63 25 9 3 38 6 49 7 28 4 -58 22 -73
22 -17 0 28 5 47 11 47 8 0 10 -12 6 -35 -3 -19 -1 -37 4 -40 5 -4 9 14 9 39
0 25 5 46 10 46 6 0 10 -22 10 -50 0 -27 5 -50 10 -50 6 0 10 23 10 50 0 28 4
50 9 50 5 0 7 -9 4 -20 -3 -11 -1 -20 5 -20 6 0 13 10 15 23 3 12 5 7 4 -12
-1 -20 3 -36 11 -38 8 -3 12 7 12 31 l0 36 73 1 c39 0 82 2 95 5 19 3 22 0 22
-26 0 -20 5 -30 15 -30 11 0 13 7 9 29 -5 24 -3 29 12 28 11 -1 19 4 19 13 0
8 -8 14 -17 14 -15 -2 -18 6 -17 45 0 25 4 70 8 99 4 29 5 55 1 57 -3 2 -22
-9 -41 -26z m18 -41 c-3 -8 -6 -5 -6 6 -1 11 2 17 5 13 3 -3 4 -12 1 -19z
m-327 2 c-20 -13 -50 -13 -50 0 0 6 15 10 33 10 24 0 28 -3 17 -10z m-65 -170
c3 -5 -3 -10 -14 -10 -12 0 -21 5 -21 10 0 6 6 10 14 10 8 0 18 -4 21 -10z"/>
</g>
</svg>
