<?xml version="1.0" standalone="no"?>
<!DOCTYPE svg PUBLIC "-//W3C//DTD SVG 20010904//EN"
 "http://www.w3.org/TR/2001/REC-SVG-20010904/DTD/svg10.dtd">
<svg version="1.0" xmlns="http://www.w3.org/2000/svg"
 width="108.000000pt" height="52.000000pt" viewBox="0 0 108.000000 52.000000"
 preserveAspectRatio="xMidYMid meet">
<metadata>
Created by potrace 1.16, written by Peter Selinger 2001-2019
</metadata>
<g transform="translate(0.000000,52.000000) scale(0.100000,-0.100000)"
fill="#000000" stroke="none">
<path d="M500 447 c0 -33 -8 -40 -86 -75 -50 -23 -85 -32 -122 -32 -35 0 -52
-4 -52 -13 0 -18 -119 -6 -153 16 -14 9 -28 17 -30 17 -2 0 -4 -25 -3 -55 0
-30 1 -55 3 -55 1 0 17 9 35 19 37 22 168 34 168 16 0 -5 4 -16 9 -24 8 -12
16 -8 46 21 37 36 172 114 182 105 2 -3 0 -14 -6 -25 -16 -31 -14 -37 22 -50
17 -7 43 -21 56 -31 l24 -18 -61 -43 c-62 -44 -69 -60 -27 -60 15 0 26 7 30
19 3 11 21 33 40 50 39 34 44 57 16 66 -39 12 -71 46 -71 75 0 26 4 29 48 38
26 5 129 8 230 6 148 -2 182 0 182 11 0 11 -29 13 -147 11 -152 -3 -244 4
-300 22 -30 10 -33 9 -33 -11z m47 -23 c-3 -3 -12 -4 -19 -1 -8 3 -5 6 6 6 11
1 17 -2 13 -5z m-227 -107 c0 -2 -9 -12 -20 -22 -19 -18 -20 -17 -20 3 0 15 6
22 20 22 11 0 20 -2 20 -3z"/>
<path d="M646 348 c-10 -30 -15 -167 -7 -172 5 -3 23 7 39 22 38 35 51 94 31
131 -16 28 -57 40 -63 19z m50 -54 c4 -24 1 -42 -10 -59 -23 -35 -40 -32 -32
6 3 17 6 47 6 65 0 45 27 36 36 -12z"/>
<path d="M268 220 c-4 -12 -182 -15 -209 -5 -13 5 -16 -3 -17 -40 0 -31 4 -45
13 -45 8 0 17 5 20 10 13 21 70 42 127 47 53 4 59 3 56 -14 -2 -14 7 -19 54
-25 71 -9 155 -44 169 -70 10 -19 11 -19 36 4 24 22 31 23 224 26 134 2 199 7
197 14 -3 7 -77 11 -213 12 -116 0 -219 5 -229 10 -16 8 -18 6 -14 -12 4 -12
5 -22 3 -22 -10 0 -127 68 -156 91 -39 31 -55 36 -61 19z m42 -35 c10 -12 10
-15 -4 -15 -9 0 -16 7 -16 15 0 8 2 15 4 15 2 0 9 -7 16 -15z m-220 1 c0 -3
-4 -8 -10 -11 -5 -3 -10 -1 -10 4 0 6 5 11 10 11 6 0 10 -2 10 -4z"/>
</g>
</svg>
