<?xml version="1.0" standalone="no"?>
<!DOCTYPE svg PUBLIC "-//W3C//DTD SVG 20010904//EN"
 "http://www.w3.org/TR/2001/REC-SVG-20010904/DTD/svg10.dtd">
<svg version="1.0" xmlns="http://www.w3.org/2000/svg"
 width="104.000000pt" height="59.000000pt" viewBox="0 0 104.000000 59.000000"
 preserveAspectRatio="xMidYMid meet">
<metadata>
Created by potrace 1.16, written by Peter Selinger 2001-2019
</metadata>
<g transform="translate(0.000000,59.000000) scale(0.100000,-0.100000)"
fill="#000000" stroke="none">
<path d="M537 574 c-4 -4 -4 -17 -1 -29 5 -19 -5 -25 -78 -57 -46 -20 -103
-41 -128 -48 -25 -7 -52 -15 -60 -18 -8 -3 -63 -4 -123 -3 l-107 3 0 -36 c0
-40 11 -51 37 -37 35 20 114 41 154 41 34 0 41 -4 50 -27 l11 -28 22 28 c20
25 27 27 93 27 61 0 76 -4 99 -24 l28 -23 -29 -26 c-17 -15 -38 -29 -47 -32
-22 -8 -22 -15 -4 -40 13 -18 14 -17 30 12 8 17 27 40 41 51 14 11 25 23 25
27 0 4 -13 27 -30 52 -33 48 -39 88 -14 97 22 9 24 8 24 -9 0 -21 14 -19 36 6
18 21 25 21 222 17 143 -3 202 -2 199 6 -2 7 -67 13 -183 16 -183 6 -204 9
-240 42 -11 10 -23 15 -27 12z m38 -54 c3 -5 1 -10 -4 -10 -6 0 -11 5 -11 10
0 6 2 10 4 10 3 0 8 -4 11 -10z m-118 -80 c-10 -26 -16 -30 -51 -30 -22 0 -37
2 -35 4 4 4 92 56 96 56 1 0 -4 -13 -10 -30z m-357 -44 c0 -2 -7 -9 -15 -16
-12 -10 -15 -10 -15 4 0 9 7 16 15 16 8 0 15 -2 15 -4z"/>
<path d="M743 463 c-7 -2 -13 -17 -13 -31 -1 -23 -2 -25 -13 -11 -19 25 -53
39 -96 39 l-41 0 0 -105 0 -105 34 0 c25 0 43 8 65 30 29 30 30 30 33 8 7 -50
79 -27 118 38 31 49 24 92 -19 121 -34 23 -45 26 -68 16z m-52 -49 c39 -35 12
-106 -51 -139 -16 -8 -31 -15 -35 -15 -3 0 -5 41 -5 91 l0 92 36 -6 c20 -3 45
-14 55 -23z m120 5 c27 -27 20 -72 -18 -111 -31 -32 -67 -38 -59 -10 2 9 8 45
11 80 6 52 10 62 26 62 10 0 28 -9 40 -21z"/>
<path d="M37 324 c-3 -4 -2 -15 4 -26 6 -11 8 -37 4 -59 -7 -41 8 -56 20 -20
8 27 36 35 122 35 69 1 86 -5 63 -19 -21 -13 1 -24 27 -14 34 13 76 3 99 -22
17 -19 205 -139 218 -139 18 0 1 21 -35 42 l-42 25 49 34 49 34 135 0 c74 0
161 -4 192 -8 53 -7 83 2 57 18 -5 4 -118 9 -250 11 l-239 4 -6 -39 -6 -40
-60 42 c-33 23 -66 50 -75 59 -15 17 -14 18 10 18 15 0 27 5 27 10 0 6 -15 10
-34 10 -26 0 -36 5 -41 20 -3 11 -10 20 -15 20 -5 0 -12 -9 -15 -20 -6 -18
-15 -20 -99 -20 -85 0 -95 2 -120 25 -30 28 -30 28 -39 19z m288 -74 c3 -6 -1
-7 -9 -4 -18 7 -21 14 -7 14 6 0 13 -4 16 -10z m235 -70 c-32 -25 -39 -25 -33
0 4 14 14 20 32 20 l26 0 -25 -20z"/>
</g>
</svg>
