<?xml version="1.0" standalone="no"?>
<!DOCTYPE svg PUBLIC "-//W3C//DTD SVG 20010904//EN"
 "http://www.w3.org/TR/2001/REC-SVG-20010904/DTD/svg10.dtd">
<svg version="1.0" xmlns="http://www.w3.org/2000/svg"
 width="108.000000pt" height="40.000000pt" viewBox="0 0 108.000000 40.000000"
 preserveAspectRatio="xMidYMid meet">
<metadata>
Created by potrace 1.16, written by Peter Selinger 2001-2019
</metadata>
<g transform="translate(0.000000,40.000000) scale(0.100000,-0.100000)"
fill="#000000" stroke="none">
<path d="M231 324 c-16 -8 -32 -9 -48 -3 -42 16 -46 12 -39 -36 7 -45 7 -45
-23 -45 -16 0 -42 5 -56 12 -32 14 -37 9 -29 -31 6 -29 10 -32 32 -26 77 19
77 20 97 -27 11 -24 28 -44 38 -46 25 -5 55 24 66 62 4 17 14 30 21 28 22 -5
70 9 64 19 -3 5 -20 9 -38 9 -32 0 -34 2 -40 45 -8 52 -13 56 -45 39z m22 -82
c-2 -60 -17 -92 -42 -92 -20 0 -41 56 -41 111 0 33 1 34 42 33 l43 -1 -2 -51z"/>
<path d="M550 323 c-24 -13 -37 -13 -72 2 -15 6 -18 2 -18 -25 0 -31 -1 -32
-35 -26 -31 6 -35 5 -35 -14 0 -19 5 -21 37 -18 24 2 38 -2 41 -11 4 -11 -4
-13 -37 -8 -38 5 -41 3 -41 -19 0 -26 14 -30 54 -14 23 8 28 6 41 -20 20 -38
58 -41 81 -5 11 17 25 25 45 25 15 0 31 5 34 10 3 6 -3 10 -14 10 -28 0 -52
11 -45 21 3 5 18 9 34 9 16 0 32 5 35 10 4 6 -8 10 -29 10 -34 0 -36 2 -36 34
0 42 -7 47 -40 29z m16 -74 c-7 -54 -24 -89 -42 -89 -16 0 -34 46 -34 90 0 36
2 39 33 43 17 2 36 5 41 5 5 1 6 -21 2 -49z"/>
<path d="M780 303 c0 -23 -3 -25 -35 -19 l-35 7 1 -38 c1 -21 3 -52 6 -70 3
-30 6 -31 36 -26 23 3 37 0 46 -11 18 -21 33 -20 65 5 14 11 30 18 35 15 13
-8 71 5 71 15 0 5 -18 9 -40 9 -22 0 -40 5 -40 10 0 6 20 10 45 10 25 0 45 5
45 10 0 6 -15 10 -34 10 -19 0 -38 5 -41 10 -4 6 10 10 34 10 22 0 43 5 46 10
4 6 -6 10 -24 10 -44 0 -61 10 -61 35 0 21 -4 23 -60 23 -57 0 -60 -1 -60 -25z
m100 -30 c0 -46 -19 -101 -37 -108 -26 -10 -43 22 -43 82 l0 53 40 0 c37 0 40
-2 40 -27z m-100 -33 c0 -5 -9 -10 -20 -10 -11 0 -20 5 -20 10 0 6 9 10 20 10
11 0 20 -4 20 -10z m0 -45 c0 -17 -2 -18 -25 -9 -13 5 -14 8 -3 15 19 13 28
11 28 -6z"/>
<path d="M312 135 c2 -45 15 -54 28 -19 13 32 7 54 -14 54 -11 0 -15 -10 -14
-35z"/>
<path d="M641 156 c-7 -8 -8 -17 -2 -20 5 -3 7 -15 4 -26 -8 -29 15 -25 29 5
9 21 9 29 -4 41 -13 13 -16 13 -27 0z"/>
<path d="M1000 145 c-8 -10 -8 -15 0 -20 7 -4 10 -16 7 -26 -6 -23 12 -37 24
-18 24 39 -4 97 -31 64z"/>
</g>
</svg>
