<?xml version="1.0" standalone="no"?>
<!DOCTYPE svg PUBLIC "-//W3C//DTD SVG 20010904//EN"
 "http://www.w3.org/TR/2001/REC-SVG-20010904/DTD/svg10.dtd">
<svg version="1.0" xmlns="http://www.w3.org/2000/svg"
 width="92.000000pt" height="160.000000pt" viewBox="0 0 92.000000 160.000000"
 preserveAspectRatio="xMidYMid meet">
<metadata>
Created by potrace 1.16, written by Peter Selinger 2001-2019
</metadata>
<g transform="translate(0.000000,160.000000) scale(0.100000,-0.100000)"
fill="#000000" stroke="none">
<path d="M240 1543 c-39 -15 -39 -24 -4 -79 52 -82 53 -84 6 -84 -22 0 -75 5
-117 11 -42 6 -79 8 -81 6 -4 -4 10 -35 28 -63 5 -8 27 -8 80 2 40 7 91 13
113 13 38 1 41 -1 59 -47 11 -26 26 -62 33 -81 9 -21 18 -30 24 -24 6 6 -2 34
-21 76 -16 37 -30 71 -30 77 0 6 35 10 88 10 100 0 162 9 162 22 0 5 -53 6
-128 2 -148 -8 -138 -15 -148 97 -6 62 -9 69 -28 68 -12 0 -28 -3 -36 -6z m39
-78 c1 -16 -3 -15 -19 10 -14 22 -16 31 -7 37 13 8 25 -14 26 -47z m-159 -105
c0 -5 -7 -10 -15 -10 -8 0 -15 5 -15 10 0 6 7 10 15 10 8 0 15 -4 15 -10z"/>
<path d="M789 1338 c-1 -2 -3 -22 -4 -45 -4 -49 15 -59 33 -18 16 35 15 52 -4
59 -17 7 -23 7 -25 4z"/>
<path d="M365 1110 c-17 -18 -17 -21 -2 -38 8 -9 27 -42 41 -72 l26 -55 -51
-3 c-56 -3 -83 3 -75 16 7 12 -13 135 -23 145 -11 11 -61 -13 -61 -29 0 -7 12
-36 26 -64 14 -28 23 -54 21 -57 -3 -3 -47 0 -99 5 -51 6 -96 8 -100 5 -10 -6
-10 -61 -1 -66 5 -2 55 1 112 8 72 8 104 8 107 1 1 -6 13 -45 25 -86 12 -41
25 -79 30 -84 21 -23 19 8 -5 87 -14 47 -26 88 -26 91 0 12 119 6 127 -6 4 -7
15 -37 24 -67 8 -30 21 -57 27 -59 17 -5 15 15 -7 75 -10 29 -16 54 -13 57 3
3 20 6 39 6 18 0 33 5 33 10 0 6 -20 10 -44 10 l-44 0 -13 73 c-8 39 -12 82
-11 95 2 17 -2 22 -21 22 -13 0 -32 -9 -42 -20z m39 -26 c11 -28 6 -39 -9 -20
-8 11 -15 23 -15 28 0 14 18 9 24 -8z m-130 -26 c3 -13 6 -32 5 -43 0 -14 -4
-10 -14 14 -17 38 -19 51 -6 51 5 0 11 -10 15 -22z m-134 -134 c0 -2 -12 -4
-26 -4 -14 0 -23 4 -20 9 6 8 46 4 46 -5z"/>
<path d="M550 930 c0 -5 9 -10 20 -10 11 0 20 5 20 10 0 6 -9 10 -20 10 -11 0
-20 -4 -20 -10z"/>
<path d="M755 860 c-4 -6 -2 -17 4 -24 6 -7 9 -20 5 -29 -3 -8 -1 -18 5 -21
13 -9 33 30 29 57 -3 24 -32 35 -43 17z"/>
<path d="M392 562 c-18 -2 -35 -9 -38 -17 -3 -7 11 -51 31 -97 20 -46 39 -89
42 -95 4 -10 -13 -13 -66 -13 l-71 0 0 100 c0 55 -2 100 -4 100 -18 0 -76 -33
-76 -44 0 -7 11 -44 25 -81 14 -37 23 -70 20 -73 -3 -3 -47 -1 -98 5 -50 6
-95 9 -99 6 -10 -6 -10 -70 0 -76 4 -3 45 3 92 14 124 27 115 32 134 -68 9
-49 19 -100 22 -116 7 -35 24 -35 24 1 0 23 -6 55 -35 180 -6 22 -4 23 72 20
l77 -3 19 -77 c13 -51 24 -78 33 -78 18 0 18 6 -7 85 -11 37 -18 69 -15 73 3
3 33 7 65 9 67 3 63 8 81 -94 9 -49 18 -73 27 -73 9 0 12 8 9 23 -15 69 -26
129 -26 140 0 8 24 13 73 14 39 1 92 6 117 10 37 7 22 9 -80 13 l-125 5 -5
100 -5 100 -30 -3 c-48 -6 -50 -16 -22 -84 15 -35 29 -76 33 -93 l5 -30 -69
-3 c-70 -3 -70 -3 -76 25 -3 15 -8 66 -11 112 -2 46 -6 84 -7 85 -2 1 -18 0
-36 -2z m18 -64 l0 -43 -15 29 c-16 30 -14 56 5 56 5 0 10 -19 10 -42z m180
-10 c0 -25 -3 -29 -10 -18 -13 20 -13 50 0 50 6 0 10 -15 10 -32z m-320 -33
c0 -25 -2 -45 -5 -45 -7 0 -25 73 -19 82 13 21 24 4 24 -37z m-130 -134 c0 -5
-13 -11 -30 -13 -20 -3 -30 0 -30 9 0 8 12 13 30 13 17 0 30 -4 30 -9z"/>
</g>
</svg>
