<?xml version="1.0" standalone="no"?>
<!DOCTYPE svg PUBLIC "-//W3C//DTD SVG 20010904//EN"
 "http://www.w3.org/TR/2001/REC-SVG-20010904/DTD/svg10.dtd">
<svg version="1.0" xmlns="http://www.w3.org/2000/svg"
 width="122.000000pt" height="53.000000pt" viewBox="0 0 122.000000 53.000000"
 preserveAspectRatio="xMidYMid meet">
<metadata>
Created by potrace 1.16, written by Peter Selinger 2001-2019
</metadata>
<g transform="translate(0.000000,53.000000) scale(0.100000,-0.100000)"
fill="#000000" stroke="none">
<path d="M976 501 c-16 -16 -26 -35 -24 -43 3 -8 -23 -27 -69 -50 -41 -21 -77
-37 -81 -36 -4 1 -29 -8 -55 -20 -27 -12 -53 -22 -59 -22 -7 0 -8 -14 -5 -37
4 -26 1 -44 -8 -57 -21 -28 -19 -45 5 -39 21 6 92 -15 173 -49 44 -19 47 -23
47 -59 0 -47 17 -59 41 -28 10 13 26 24 36 24 11 0 19 8 21 20 2 12 36 46 82
80 44 33 79 65 80 70 0 6 -19 38 -43 70 -46 64 -87 151 -87 184 0 29 -21 26
-54 -8z m49 -47 c21 -50 19 -52 -15 -19 -23 22 -27 32 -19 42 16 18 17 17 34
-23z m6 -64 c49 -48 101 -121 95 -135 -9 -25 -59 -44 -96 -36 -34 7 -35 9 -35
51 0 42 2 46 33 55 40 12 42 30 2 22 -29 -6 -30 -5 -30 28 0 38 -6 42 -34 22
-14 -10 -17 -23 -14 -45 l5 -32 -48 0 c-39 0 -49 -4 -63 -24 -9 -14 -13 -31
-10 -39 3 -8 1 -18 -5 -22 -24 -14 -8 -20 58 -20 38 0 71 -2 74 -5 3 -3 7 -16
9 -30 5 -36 -39 -50 -87 -27 -48 23 -165 99 -165 107 0 14 44 46 148 111 115
70 110 70 163 19z m-54 -32 c-3 -8 -6 -5 -6 6 -1 11 2 17 5 13 3 -3 4 -12 1
-19z m-243 -53 c-22 -16 -34 -19 -34 -7 0 10 43 32 49 26 3 -2 -4 -11 -15 -19z
m232 -30 c9 -36 1 -40 -46 -26 -48 14 -51 25 -7 39 46 14 46 15 53 -13z m59
-92 c-12 -8 -23 -9 -28 -4 -15 15 1 30 24 24 21 -6 21 -7 4 -20z m-55 -56 c0
-2 -11 -14 -25 -27 -19 -18 -25 -20 -25 -8 0 8 10 20 23 26 26 13 27 13 27 9z"/>
<path d="M394 388 l7 -103 -22 35 c-12 19 -28 50 -36 68 -7 17 -17 32 -21 32
-4 0 -17 -18 -29 -39 l-23 -40 58 -36 57 -37 -50 7 c-27 3 -67 9 -87 12 -38 6
-38 5 -38 -29 0 -19 2 -37 5 -40 3 -3 36 1 73 8 103 20 113 19 77 -11 -16 -13
-45 -31 -62 -40 -18 -9 -33 -21 -33 -28 1 -14 47 -74 52 -67 2 3 14 28 27 57
33 72 51 76 48 13 -1 -27 3 -50 8 -52 6 -2 11 26 13 66 l3 69 69 -68 c38 -38
72 -66 76 -63 8 8 -63 93 -93 114 -35 22 -27 34 22 34 28 0 45 -4 45 -12 0 -9
3 -9 12 0 7 7 20 12 30 12 10 0 18 5 18 11 0 8 -21 10 -65 7 -36 -2 -65 -2
-65 0 0 2 23 25 50 50 44 40 63 72 44 72 -4 0 -34 -27 -66 -60 -33 -33 -62
-60 -64 -60 -9 0 -3 68 11 125 22 90 21 95 -21 95 l-37 0 7 -102z m38 38 c-2
-20 -8 -36 -13 -36 -10 0 -12 63 -3 73 13 13 20 -3 16 -37z m-98 -72 c9 -24 7
-28 -9 -14 -17 14 -20 30 -6 30 5 0 12 -7 15 -16z m-39 -104 c-28 -12 -65 -12
-65 0 0 6 19 10 43 9 32 0 37 -2 22 -9z m33 -105 c-8 -18 -14 -22 -22 -15 -8
8 -6 15 8 26 26 19 27 18 14 -11z"/>
<path d="M96 338 l-37 -33 55 -84 c31 -47 56 -91 56 -98 0 -7 5 -13 11 -13 7
0 9 10 6 23 -19 85 -37 186 -37 210 0 35 -8 34 -54 -5z m50 -116 c-2 -1 -15
16 -30 39 -26 39 -27 41 -9 54 16 12 19 9 30 -38 6 -29 10 -53 9 -55z"/>
<path d="M358 3 c7 -3 16 -2 19 1 4 3 -2 6 -13 5 -11 0 -14 -3 -6 -6z"/>
</g>
</svg>
