<?xml version="1.0" standalone="no"?>
<!DOCTYPE svg PUBLIC "-//W3C//DTD SVG 20010904//EN"
 "http://www.w3.org/TR/2001/REC-SVG-20010904/DTD/svg10.dtd">
<svg version="1.0" xmlns="http://www.w3.org/2000/svg"
 width="27.000000pt" height="34.000000pt" viewBox="0 0 27.000000 34.000000"
 preserveAspectRatio="xMidYMid meet">
<metadata>
Created by potrace 1.16, written by Peter Selinger 2001-2019
</metadata>
<g transform="translate(0.000000,34.000000) scale(0.100000,-0.100000)"
fill="#000000" stroke="none">
<path d="M50 282 c0 -15 7 -67 16 -116 13 -70 22 -95 42 -113 14 -13 29 -23
33 -23 4 0 20 15 34 34 27 36 45 114 45 200 0 45 -1 48 -22 42 -53 -15 -89
-18 -117 -8 -30 10 -31 10 -31 -16z m143 -54 c-8 -74 -24 -137 -39 -149 -33
-27 -53 9 -72 134 l-9 57 63 0 62 0 -5 -42z"/>
</g>
</svg>
