<?xml version="1.0" standalone="no"?>
<!DOCTYPE svg PUBLIC "-//W3C//DTD SVG 20010904//EN"
 "http://www.w3.org/TR/2001/REC-SVG-20010904/DTD/svg10.dtd">
<svg version="1.0" xmlns="http://www.w3.org/2000/svg"
 width="133.000000pt" height="132.000000pt" viewBox="0 0 133.000000 132.000000"
 preserveAspectRatio="xMidYMid meet">
<metadata>
Created by potrace 1.16, written by Peter Selinger 2001-2019
</metadata>
<g transform="translate(0.000000,132.000000) scale(0.100000,-0.100000)"
fill="#000000" stroke="none">
<path d="M344 1245 c-19 -47 -19 -49 21 -64 19 -7 35 -17 35 -22 0 -8 -29 -51
-94 -144 -7 -9 2 -27 30 -60 62 -75 61 -71 31 -103 -27 -28 -35 -52 -18 -52 6
0 17 10 26 23 33 47 117 125 155 143 49 24 51 45 6 87 -59 55 -126 140 -146
185 -10 23 -22 42 -25 42 -3 0 -13 -16 -21 -35z m176 -217 c0 -11 -92 -113
-105 -116 -11 -3 -57 47 -79 85 -6 10 32 74 77 131 8 11 21 2 58 -40 27 -29
48 -56 49 -60z"/>
<path d="M727 1254 c-4 -4 -7 -15 -7 -25 0 -9 -10 -19 -21 -22 -19 -5 -21 -10
-14 -44 5 -21 9 -93 10 -161 3 -127 16 -164 25 -65 4 50 8 57 28 58 23 2 23 0
16 -62 -4 -41 -3 -63 4 -63 6 0 14 29 17 65 10 86 21 74 16 -17 -2 -55 0 -69
11 -66 13 5 15 16 17 101 1 32 5 46 12 41 7 -4 10 -32 7 -72 -2 -46 1 -66 10
-69 9 -4 12 14 12 69 l0 74 103 2 c150 3 248 13 241 24 -4 6 -71 7 -175 2
-168 -7 -169 -6 -169 15 0 19 5 21 73 22 70 1 160 6 222 12 42 4 38 22 -5 21
-238 -8 -285 -6 -288 10 -3 13 7 16 55 17 32 0 113 4 180 7 104 6 123 5 126
-8 2 -8 2 -61 0 -117 -2 -57 1 -103 6 -103 11 0 21 61 21 140 0 36 9 98 19
138 11 39 16 74 12 77 -4 2 -91 -1 -192 -6 -171 -10 -315 -8 -350 6 -8 3 -18
2 -22 -1z m495 -59 c5 -21 7 -39 6 -40 -2 -1 -83 -5 -181 -9 l-178 -6 4 37 4
38 129 7 c71 4 143 9 159 11 46 6 49 3 57 -38z m44 23 c-3 -13 -6 -30 -6 -38
-1 -8 -6 -4 -11 9 -11 28 -5 51 12 51 7 0 9 -9 5 -22z m-483 5 c-7 -2 -21 -2
-30 0 -10 3 -4 5 12 5 17 0 24 -2 18 -5z m27 -53 c0 -22 -4 -40 -10 -40 -5 0
-10 18 -10 40 0 22 5 40 10 40 6 0 10 -18 10 -40z m45 8 c0 -17 -6 -33 -12
-35 -8 -3 -13 4 -13 15 0 11 -3 27 -6 36 -4 11 0 16 13 16 14 0 19 -7 18 -32z
m-83 -13 c-3 -26 -9 -35 -23 -35 -22 0 -23 8 -9 44 15 40 37 33 32 -9z m-52
10 c0 -8 -4 -15 -10 -15 -5 0 -10 7 -10 15 0 8 5 15 10 15 6 0 10 -7 10 -15z
m126 -92 c-11 -11 -19 6 -11 24 8 17 8 17 12 0 3 -10 2 -21 -1 -24z m-76 7 c0
-15 -7 -20 -25 -20 -18 0 -25 5 -25 20 0 15 7 20 25 20 18 0 25 -5 25 -20z
m40 5 c0 -8 -4 -15 -10 -15 -5 0 -10 7 -10 15 0 8 5 15 10 15 6 0 10 -7 10
-15z m0 -61 c0 -8 -4 -14 -10 -14 -5 0 -10 9 -10 21 0 11 5 17 10 14 6 -3 10
-13 10 -21z m40 6 c0 -11 -4 -20 -10 -20 -5 0 -10 9 -10 20 0 11 5 20 10 20 6
0 10 -9 10 -20z m-80 -5 c0 -9 -9 -15 -25 -15 -16 0 -25 6 -25 15 0 9 9 15 25
15 16 0 25 -6 25 -15z"/>
<path d="M160 1164 c-19 -7 -47 -13 -62 -13 -49 -1 -48 -8 31 -206 22 -55 44
-101 49 -103 5 -1 12 41 16 95 4 54 9 131 13 171 3 40 2 71 -3 71 -5 -1 -25
-7 -44 -15z m18 -130 c-4 -59 -9 -108 -11 -110 -2 -2 -20 40 -40 93 -21 53
-34 100 -30 104 5 4 19 9 33 12 59 10 56 16 48 -99z"/>
<path d="M1317 883 c-7 -11 -1 -72 7 -80 3 -3 6 15 6 40 0 45 -4 56 -13 40z"/>
<path d="M242 670 c-24 -27 -41 -54 -37 -60 3 -5 23 -10 44 -10 21 0 40 -3 44
-6 7 -8 -98 -106 -125 -117 -14 -5 -18 -13 -13 -25 13 -33 83 -228 109 -302
32 -90 40 -105 55 -96 7 5 5 18 -8 44 -21 42 -65 172 -60 176 2 2 57 6 122 8
103 4 117 2 113 -11 -3 -9 -7 -32 -11 -51 -4 -19 -12 -48 -20 -65 -20 -46 -45
-107 -45 -111 0 -2 5 -4 11 -4 5 0 17 17 25 38 24 61 55 123 96 194 21 36 38
71 38 76 0 5 -12 12 -27 16 -27 6 -89 73 -149 161 -15 22 -37 49 -49 60 -34
31 -55 72 -55 105 0 16 -3 30 -7 30 -5 -1 -27 -23 -51 -50z m46 -30 c11 -18
10 -20 -13 -20 -27 0 -28 1 -19 24 8 21 17 20 32 -4z m67 -90 c13 -14 16 -28
11 -54 -7 -38 -99 -186 -116 -186 -8 0 -15 68 -13 128 1 19 76 131 89 132 6 0
19 -9 29 -20z m-130 -76 c-13 -20 -15 -38 -11 -77 l6 -52 -15 40 c-20 53 -19
65 7 92 28 30 34 29 13 -3z m167 -6 c-7 -7 -12 -8 -12 -2 0 6 3 14 7 17 3 4 9
5 12 2 2 -3 -1 -11 -7 -17z m71 -59 c23 -30 37 -59 35 -72 -3 -19 -10 -22 -63
-25 -76 -4 -125 5 -125 23 0 14 97 125 109 125 4 0 24 -23 44 -51z m87 -76 c0
-5 -10 -21 -21 -38 -20 -28 -21 -29 -15 -5 3 14 6 31 6 38 0 6 7 12 15 12 8 0
15 -3 15 -7z"/>
<path d="M1185 576 c-41 -27 -324 -29 -387 -1 -13 5 -20 1 -27 -18 -6 -14 -23
-29 -40 -35 -17 -6 -31 -12 -31 -14 0 -2 5 -19 11 -38 5 -19 10 -83 10 -142
-1 -65 3 -108 9 -108 6 0 10 16 10 36 0 19 4 33 8 30 5 -3 7 -19 4 -36 -2 -17
0 -30 6 -30 6 0 14 36 18 80 3 44 11 80 16 80 7 0 8 -24 3 -64 -4 -38 -2 -66
3 -70 13 -8 22 28 22 87 0 26 4 47 9 47 14 0 21 -28 12 -53 -10 -28 -7 -82 5
-81 5 0 12 13 15 30 l7 29 1 -32 c1 -41 17 -43 24 -4 l6 29 101 1 c56 1 113 4
126 7 18 5 29 1 39 -12 18 -23 17 -26 21 71 2 47 11 104 23 139 12 33 21 65
21 73 0 17 -20 17 -45 -1z m-27 -62 c3 -20 -3 -21 -89 -27 -138 -10 -146 -10
-152 12 -4 17 2 21 47 25 161 18 190 17 194 -10z m29 -6 c-3 -7 -5 -2 -5 12 0
14 2 19 5 13 2 -7 2 -19 0 -25z m-331 -4 c-3 -9 -6 -36 -6 -60 0 -34 -4 -44
-16 -44 -12 0 -15 5 -9 23 4 12 7 39 6 60 -1 28 2 37 15 37 11 0 14 -5 10 -16z
m44 -4 c0 -11 -6 -20 -13 -20 -7 0 -13 9 -14 20 -1 11 4 20 13 20 8 0 14 -9
14 -20z m-133 -22 c-3 -7 -5 -2 -5 12 0 14 2 19 5 13 2 -7 2 -19 0 -25z m43
12 c0 -11 -4 -20 -10 -20 -5 0 -10 9 -10 20 0 11 5 20 10 20 6 0 10 -9 10 -20z
m350 -47 l0 -28 -126 -4 -126 -3 4 23 c3 25 -3 24 216 37 29 2 32 -1 32 -25z
m-270 -8 c0 -14 -4 -25 -10 -25 -5 0 -10 11 -10 25 0 14 5 25 10 25 6 0 10
-11 10 -25z m-80 3 c0 -7 -5 -20 -10 -28 -8 -12 -10 -9 -10 13 0 15 5 27 10
27 6 0 10 -6 10 -12z m-40 -12 c0 -8 -4 -18 -10 -21 -5 -3 -10 3 -10 14 0 12
5 21 10 21 6 0 10 -6 10 -14z m390 -60 l0 -33 -126 -7 c-69 -4 -128 -6 -130
-3 -2 2 -1 18 2 35 l6 31 122 4 c66 1 122 4 124 5 1 1 2 -13 2 -32z m-278 -20
c-2 -20 -8 -33 -13 -30 -10 6 -12 35 -3 58 10 27 20 9 16 -28z m-125 -18 c-2
-13 -4 -5 -4 17 -1 22 1 32 4 23 2 -10 2 -28 0 -40z"/>
<path d="M1315 348 c-4 -10 -4 -26 0 -35 8 -17 8 -17 12 0 3 9 3 25 0 35 -4
16 -4 16 -12 0z"/>
</g>
</svg>
