<?xml version="1.0" standalone="no"?>
<!DOCTYPE svg PUBLIC "-//W3C//DTD SVG 20010904//EN"
 "http://www.w3.org/TR/2001/REC-SVG-20010904/DTD/svg10.dtd">
<svg version="1.0" xmlns="http://www.w3.org/2000/svg"
 width="118.000000pt" height="58.000000pt" viewBox="0 0 118.000000 58.000000"
 preserveAspectRatio="xMidYMid meet">
<metadata>
Created by potrace 1.16, written by Peter Selinger 2001-2019
</metadata>
<g transform="translate(0.000000,58.000000) scale(0.100000,-0.100000)"
fill="#000000" stroke="none">
<path d="M802 544 c-27 -19 -27 -29 -3 -55 15 -17 45 -99 38 -105 -1 -1 -16 1
-34 3 -34 5 -43 22 -43 86 0 42 -5 44 -37 18 -27 -22 -28 -29 -9 -50 16 -18
86 -151 86 -164 0 -4 -7 -7 -16 -5 -10 2 -23 -9 -33 -29 -9 -17 -33 -41 -53
-53 -21 -12 -38 -27 -38 -34 0 -13 28 -43 33 -35 2 2 20 25 41 52 29 37 44 47
67 47 16 0 29 -4 29 -8 0 -15 -34 -40 -74 -57 -32 -13 -37 -20 -32 -38 3 -12
6 -28 6 -34 0 -22 20 -14 29 10 14 36 101 119 118 112 37 -14 185 -46 190 -41
3 3 5 56 4 118 -2 100 2 138 24 236 5 19 1 22 -28 22 -29 0 -37 -7 -75 -62
-62 -93 -78 -110 -103 -106 -27 4 -47 53 -48 118 -2 61 -11 74 -39 54z m265
-56 c-3 -7 -5 -2 -5 12 0 14 2 19 5 13 2 -7 2 -19 0 -25z m-24 -65 c4 -38 7
-107 7 -155 l0 -87 -32 11 c-18 5 -53 14 -78 20 -56 13 -57 14 -35 38 22 25 1
28 -26 4 -24 -22 -62 -10 -54 17 4 10 3 19 -2 19 -9 0 -35 61 -29 68 10 9 66
-11 66 -24 0 -20 18 -17 23 4 3 13 8 9 18 -16 7 -18 17 -31 22 -29 5 1 16 23
25 48 19 50 74 149 83 149 3 0 9 -30 12 -67z"/>
<path d="M174 389 l6 -61 -33 6 c-17 3 -51 8 -74 12 l-43 7 0 -33 c0 -29 2
-32 23 -25 12 4 45 9 73 12 51 5 51 5 56 -26 3 -18 2 -34 -2 -36 -3 -2 -33 0
-66 4 -32 5 -62 7 -66 4 -9 -5 -11 -47 -3 -55 3 -3 33 1 67 9 39 9 64 11 70 5
6 -6 8 -33 7 -61 -3 -35 0 -51 8 -51 8 0 13 22 15 62 l3 62 40 1 c143 4 165 6
165 16 0 7 -35 10 -107 8 l-108 -3 -3 32 -3 32 65 0 c37 0 66 4 66 10 0 6 -29
10 -66 10 -57 0 -65 2 -60 18 2 9 8 36 11 60 7 41 6 42 -21 42 l-27 0 7 -61z
m-87 -165 c-3 -3 -12 -4 -19 -1 -8 3 -5 6 6 6 11 1 17 -2 13 -5z"/>
<path d="M531 431 c-6 -10 -27 -22 -47 -26 l-37 -6 7 -46 c3 -25 6 -90 6 -144
0 -63 4 -99 11 -99 5 0 27 13 47 30 20 16 75 46 122 66 47 20 89 40 94 45 18
16 -21 10 -71 -12 -36 -16 -158 -49 -180 -49 -2 0 -3 21 -3 48 0 58 16 116 36
137 17 17 91 20 162 6 32 -6 42 -5 42 5 0 11 -140 64 -169 64 -6 0 -15 -8 -20
-19z m44 -11 c3 -5 -1 -10 -9 -10 -9 0 -16 5 -16 10 0 6 4 10 9 10 6 0 13 -4
16 -10z m-85 -50 c0 -5 -4 -10 -10 -10 -5 0 -10 5 -10 10 0 6 5 10 10 10 6 0
10 -4 10 -10z m30 -205 c-30 -17 -40 -18 -40 -6 0 8 22 16 55 19 6 1 -1 -5
-15 -13z"/>
</g>
</svg>
