<?xml version="1.0" standalone="no"?>
<!DOCTYPE svg PUBLIC "-//W3C//DTD SVG 20010904//EN"
 "http://www.w3.org/TR/2001/REC-SVG-20010904/DTD/svg10.dtd">
<svg version="1.0" xmlns="http://www.w3.org/2000/svg"
 width="101.000000pt" height="132.000000pt" viewBox="0 0 101.000000 132.000000"
 preserveAspectRatio="xMidYMid meet">
<metadata>
Created by potrace 1.16, written by Peter Selinger 2001-2019
</metadata>
<g transform="translate(0.000000,132.000000) scale(0.100000,-0.100000)"
fill="#000000" stroke="none">
<path d="M200 1229 c-19 -36 -85 -135 -100 -149 -17 -16 -60 -80 -60 -90 0 -6
25 -41 56 -78 31 -36 72 -90 92 -119 19 -29 41 -53 48 -53 21 0 18 8 -26 66
-30 40 -44 71 -55 124 -22 105 -12 163 41 246 47 73 49 79 34 89 -5 3 -19 -13
-30 -36z m-65 -308 c9 -30 4 -27 -38 24 l-37 44 27 39 28 39 7 -63 c3 -34 9
-72 13 -83z"/>
<path d="M865 1231 c-33 -15 -84 -45 -114 -65 -52 -35 -55 -36 -150 -35 -53 0
-145 4 -206 8 -89 7 -112 6 -121 -5 -6 -8 -19 -14 -29 -14 -14 0 -16 -6 -12
-32 3 -18 11 -90 18 -160 7 -71 16 -128 21 -128 4 0 8 16 8 35 0 30 4 35 32
43 42 11 48 8 48 -28 0 -16 4 -32 10 -35 6 -4 10 9 10 33 l0 39 128 6 c121 6
129 5 162 -17 19 -13 59 -38 88 -56 28 -18 52 -37 52 -42 0 -4 4 -8 10 -8 5 0
32 -14 61 -30 28 -17 54 -29 57 -26 3 3 0 95 -7 203 -8 139 -9 208 -1 233 12
40 13 110 3 110 -5 0 -35 -13 -68 -29z m55 -23 c0 -18 -2 -20 -9 -8 -6 8 -7
18 -5 22 9 14 14 9 14 -14z m-27 -24 c4 -22 -4 -35 -42 -70 -25 -24 -63 -56
-84 -71 -32 -22 -40 -24 -47 -13 -8 12 -13 11 -30 -7 -25 -27 -26 -43 -2 -43
29 0 155 -80 215 -137 17 -16 25 -93 9 -93 -9 0 -51 28 -70 47 -7 7 -17 13
-22 13 -5 0 -15 6 -22 14 -8 8 -39 28 -69 44 -30 17 -74 49 -98 70 -52 46 -51
52 37 133 56 52 185 138 208 139 7 0 14 -12 17 -26z m-555 -77 c25 3 33 2 23
-5 -10 -8 -12 -29 -6 -101 l7 -91 -36 0 c-22 0 -36 -5 -37 -12 0 -7 -5 -2 -10
12 -6 14 -9 52 -8 84 3 63 22 150 27 123 2 -12 12 -14 40 -10z m332 3 c0 -6
-8 -13 -17 -16 -10 -3 -25 -10 -33 -15 -8 -5 -25 -14 -38 -19 -20 -8 -22 -15
-17 -44 6 -28 3 -36 -14 -45 -28 -15 -26 -29 4 -37 54 -13 20 -24 -75 -24
l-100 0 0 70 c0 44 6 82 15 100 l15 29 123 4 c67 1 125 4 130 5 4 1 7 -3 7 -8z
m235 -76 c3 -43 8 -95 10 -115 3 -20 2 -39 -1 -42 -9 -9 -143 86 -144 101 0
27 30 69 76 105 26 20 49 36 50 34 2 -2 6 -39 9 -83z m-296 4 c-9 -16 -14 -19
-17 -9 -2 7 2 17 9 22 20 13 21 11 8 -13z m151 -38 c0 -5 -5 -10 -11 -10 -5 0
-7 5 -4 10 3 6 8 10 11 10 2 0 4 -4 4 -10z m-165 -50 c3 -5 -1 -10 -9 -10 -9
0 -16 5 -16 10 0 6 4 10 9 10 6 0 13 -4 16 -10z"/>
<path d="M880 573 c-13 -3 -29 -11 -35 -19 -5 -7 -63 -40 -127 -73 l-117 -59
-108 -2 c-172 -3 -206 -3 -235 5 -23 6 -28 3 -33 -18 -4 -14 -13 -28 -22 -31
-12 -5 -13 -25 -9 -116 6 -103 -1 -135 -19 -92 -4 9 -9 68 -11 131 -2 63 -6
116 -8 119 -6 5 -14 -3 -69 -65 l-38 -42 34 -44 c19 -25 49 -71 67 -101 27
-48 34 -54 50 -46 14 8 17 18 13 47 -4 34 -2 40 26 56 l31 18 0 -29 c0 -46 11
-92 23 -92 6 0 8 21 4 55 -3 30 -2 57 1 59 12 7 75 14 195 21 l118 7 57 -37
c31 -21 96 -69 144 -106 48 -38 89 -69 91 -69 2 0 7 107 10 238 4 130 9 249
13 265 7 28 5 29 -46 20z m19 -85 c-1 -50 -3 -57 -9 -33 -11 45 -11 95 0 95 6
0 9 -27 9 -62z m-36 5 c17 -114 28 -248 25 -320 l-3 -83 -80 64 c-44 35 -100
89 -124 120 l-44 56 -22 -20 c-24 -23 -96 -36 -237 -43 -59 -3 -78 -1 -78 9 0
7 4 16 10 19 6 3 10 20 10 36 0 29 0 29 -29 14 -26 -13 -29 -18 -21 -44 10
-36 7 -40 -26 -33 -22 4 -24 8 -18 36 7 36 19 53 47 67 21 12 274 38 295 31 6
-2 12 -15 12 -28 0 -33 8 -30 56 17 42 41 188 137 210 138 6 1 14 -16 17 -36z
m-593 -92 c0 -5 -7 -11 -15 -15 -15 -5 -20 5 -8 17 9 10 23 9 23 -2z m-127
-117 l4 -72 -33 50 -33 49 27 30 c30 35 29 37 35 -57z m537 -36 c0 -7 -23 4
-59 28 -1 2 0 8 4 14 5 8 15 4 31 -11 13 -12 24 -26 24 -31z"/>
<path d="M761 429 c-45 -42 -55 -48 -69 -37 -13 11 -15 10 -10 -9 4 -13 2 -26
-3 -29 -5 -3 -9 -12 -9 -21 0 -12 3 -13 14 -3 12 9 18 7 33 -11 51 -63 72 -83
79 -77 4 4 -6 24 -22 44 -63 78 -63 68 0 125 52 48 67 70 49 69 -5 -1 -32 -23
-62 -51z"/>
</g>
</svg>
