<?xml version="1.0" standalone="no"?>
<!DOCTYPE svg PUBLIC "-//W3C//DTD SVG 20010904//EN"
 "http://www.w3.org/TR/2001/REC-SVG-20010904/DTD/svg10.dtd">
<svg version="1.0" xmlns="http://www.w3.org/2000/svg"
 width="130.000000pt" height="66.000000pt" viewBox="0 0 130.000000 66.000000"
 preserveAspectRatio="xMidYMid meet">
<metadata>
Created by potrace 1.16, written by Peter Selinger 2001-2019
</metadata>
<g transform="translate(0.000000,66.000000) scale(0.100000,-0.100000)"
fill="#000000" stroke="none">
<path d="M520 584 c-14 -7 -25 -22 -25 -33 0 -12 -21 -35 -50 -58 -28 -20 -56
-43 -63 -50 -7 -7 -34 -25 -60 -40 -26 -15 -48 -27 -50 -29 -2 -1 -4 -26 -6
-56 -3 -53 -3 -54 33 -71 20 -10 58 -34 84 -53 48 -35 49 -36 45 -85 -2 -34 1
-49 10 -49 8 0 12 16 12 47 l0 47 28 -26 c15 -14 37 -31 50 -37 13 -7 27 -23
32 -37 12 -31 35 -33 25 -1 -14 49 -24 92 -20 95 9 9 24 -10 30 -38 4 -17 11
-30 16 -30 17 0 9 33 -21 86 -24 42 -27 54 -16 63 17 14 23 5 56 -69 30 -68
27 -63 39 -56 6 4 -2 30 -20 66 -31 63 -33 70 -21 70 4 0 16 -20 27 -45 11
-25 23 -45 27 -45 13 0 9 18 -12 59 -18 36 -18 51 1 51 4 0 22 -26 40 -57 22
-38 34 -52 37 -41 2 9 -8 35 -23 57 l-25 41 133 0 c74 0 175 3 225 6 l92 7 0
-62 c0 -46 3 -62 13 -59 9 4 13 46 15 154 3 140 5 153 32 211 15 34 26 64 23
67 -3 3 -25 -6 -49 -20 -24 -14 -44 -22 -44 -18 0 4 -5 3 -11 -3 -19 -19 -1
-33 28 -22 32 12 33 10 21 -21 -8 -23 -10 -23 -19 -7 -14 24 -32 11 -19 -13 5
-10 10 -21 10 -23 0 -10 -492 -26 -579 -18 -11 1 -13 17 -8 81 6 86 3 90 -43
64z m19 -61 c0 -35 -1 -36 -10 -14 -5 14 -7 31 -5 38 10 24 16 13 15 -24z m-4
-170 c-3 -17 -1 -34 4 -38 6 -3 8 -12 5 -20 -9 -22 -24 -8 -24 21 0 31 -24 27
-28 -4 -2 -13 -8 -19 -17 -16 -9 4 -17 -4 -22 -23 -7 -26 -8 -26 -14 17 -4 25
-3 62 1 83 9 44 -5 50 -32 13 -16 -22 -16 -27 -2 -55 9 -19 14 -50 12 -82 l-3
-52 -57 52 c-32 29 -58 57 -58 63 0 18 67 88 136 144 l69 54 18 -62 c10 -36
15 -77 12 -95z m619 55 c8 -32 7 -91 -2 -103 -4 -5 -23 -10 -42 -11 -19 0
-122 -4 -228 -8 l-192 -7 -25 53 c-14 29 -25 59 -25 66 0 13 -3 13 165 13 99
0 189 5 326 17 10 1 19 -8 23 -20z m-587 -20 c-3 -7 -5 -2 -5 12 0 14 2 19 5
13 2 -7 2 -19 0 -25z m51 5 c-5 -25 -28 -28 -28 -4 0 12 6 21 16 21 9 0 14 -7
12 -17z m42 -103 c0 -22 -26 -8 -38 20 -19 42 -4 59 19 21 10 -18 19 -36 19
-41z m-52 2 c-3 -13 -8 -9 -21 15 -23 43 -21 52 4 25 11 -13 19 -30 17 -40z
m-308 -12 c0 -5 -5 -10 -11 -10 -5 0 -7 5 -4 10 3 6 8 10 11 10 2 0 4 -4 4
-10z m230 -36 c13 -23 20 -49 18 -68 -4 -30 -5 -29 -31 27 -15 32 -27 62 -27
67 0 21 19 8 40 -26z m-59 -27 c22 -17 73 -107 61 -107 -6 0 -12 3 -14 8 -1 4
-20 20 -40 35 -26 19 -38 36 -38 53 0 27 7 29 31 11z"/>
<path d="M82 460 l-43 -50 57 -82 c30 -45 67 -103 81 -130 25 -47 43 -62 43
-34 0 8 -16 41 -36 74 -33 57 -36 67 -40 164 -2 56 -7 104 -11 105 -5 2 -27
-19 -51 -47z m42 -129 c-2 -2 -9 8 -15 23 -7 14 -16 26 -21 26 -14 0 -9 30 10
55 17 23 17 23 23 -39 3 -33 4 -63 3 -65z"/>
</g>
</svg>
