<?xml version="1.0" standalone="no"?>
<!DOCTYPE svg PUBLIC "-//W3C//DTD SVG 20010904//EN"
 "http://www.w3.org/TR/2001/REC-SVG-20010904/DTD/svg10.dtd">
<svg version="1.0" xmlns="http://www.w3.org/2000/svg"
 width="79.000000pt" height="52.000000pt" viewBox="0 0 79.000000 52.000000"
 preserveAspectRatio="xMidYMid meet">
<metadata>
Created by potrace 1.16, written by Peter Selinger 2001-2019
</metadata>
<g transform="translate(0.000000,52.000000) scale(0.100000,-0.100000)"
fill="#000000" stroke="none">
<path d="M504 448 c13 -76 18 -118 14 -118 -3 0 -22 25 -42 55 -20 30 -40 55
-44 55 -16 0 -32 -25 -32 -49 0 -21 11 -32 60 -59 33 -18 60 -37 60 -42 0 -12
-7 -12 -28 -1 -9 5 -47 12 -84 16 l-68 7 0 -32 c0 -40 17 -45 84 -26 76 22 81
21 51 -19 -15 -19 -30 -33 -33 -32 -12 3 -72 -37 -72 -49 0 -13 33 -44 47 -44
6 0 17 15 24 33 7 17 26 46 41 62 15 17 28 33 28 38 0 4 5 7 10 7 6 0 10 -30
10 -69 0 -39 5 -73 10 -76 6 -4 10 21 10 67 l1 73 47 -53 c26 -28 51 -52 55
-52 13 0 7 20 -11 38 -10 10 -30 34 -46 54 l-28 37 86 3 c116 4 112 23 -4 23
-50 0 -90 1 -90 1 0 1 22 26 50 55 27 30 50 57 50 62 0 18 -22 3 -57 -38 -20
-25 -40 -45 -43 -45 -4 0 -3 24 1 53 14 96 13 97 -27 97 -35 0 -36 -1 -30 -32z
m37 -33 c-9 -30 -9 -30 -10 10 -1 25 2 36 9 29 6 -6 6 -21 1 -39z m-93 -27
c19 -19 14 -30 -8 -18 -11 6 -20 15 -20 20 0 14 14 12 28 -2z m-50 -107 c10
-6 8 -10 -9 -14 -26 -7 -34 -3 -24 12 7 13 15 14 33 2z m30 -121 c-13 -20 -28
-27 -28 -12 0 10 22 32 32 32 5 0 3 -9 -4 -20z"/>
<path d="M58 455 c-3 -3 1 -38 9 -78 8 -39 17 -125 21 -190 9 -152 28 -154 24
-2 -3 84 0 119 12 147 18 41 21 78 7 78 -5 0 -11 -14 -15 -32 -7 -37 -21 -28
-30 20 l-6 33 42 -3 c41 -3 42 -4 54 -51 11 -44 11 -49 -9 -68 -21 -19 -21
-20 -3 -50 13 -22 20 -60 24 -121 5 -97 22 -132 22 -46 0 52 11 135 26 192 6
24 4 28 -9 23 -24 -9 -25 0 -6 71 11 36 19 70 19 74 0 9 -173 11 -182 3z m149
-31 c3 -8 1 -20 -4 -25 -7 -7 -12 -2 -15 15 -6 28 9 36 19 10z m3 -170 c0 -28
-15 -25 -23 6 -3 13 0 20 9 20 8 0 14 -10 14 -26z"/>
</g>
</svg>
