<?xml version="1.0" standalone="no"?>
<!DOCTYPE svg PUBLIC "-//W3C//DTD SVG 20010904//EN"
 "http://www.w3.org/TR/2001/REC-SVG-20010904/DTD/svg10.dtd">
<svg version="1.0" xmlns="http://www.w3.org/2000/svg"
 width="52.000000pt" height="21.000000pt" viewBox="0 0 52.000000 21.000000"
 preserveAspectRatio="xMidYMid meet">
<metadata>
Created by potrace 1.16, written by Peter Selinger 2001-2019
</metadata>
<g transform="translate(0.000000,21.000000) scale(0.100000,-0.100000)"
fill="#000000" stroke="none">
<path d="M47 162 c-6 -11 4 -82 12 -82 4 0 46 9 94 19 48 10 88 17 88 15 1 -2
2 -10 3 -16 1 -16 9 -16 66 1 24 7 74 14 109 15 103 3 82 21 -46 38 -106 15
-118 15 -129 1 -9 -13 -23 -15 -78 -9 -36 4 -77 11 -91 16 -13 5 -26 6 -28 2z
m268 -32 c4 -6 -5 -10 -19 -10 -14 0 -26 5 -26 10 0 6 9 10 19 10 11 0 23 -4
26 -10z m-210 -10 c-3 -5 -13 -10 -21 -10 -8 0 -14 5 -14 10 0 6 9 10 21 10
11 0 17 -4 14 -10z"/>
</g>
</svg>
