<?xml version="1.0" standalone="no"?>
<!DOCTYPE svg PUBLIC "-//W3C//DTD SVG 20010904//EN"
 "http://www.w3.org/TR/2001/REC-SVG-20010904/DTD/svg10.dtd">
<svg version="1.0" xmlns="http://www.w3.org/2000/svg"
 width="90.000000pt" height="54.000000pt" viewBox="0 0 90.000000 54.000000"
 preserveAspectRatio="xMidYMid meet">
<metadata>
Created by potrace 1.16, written by Peter Selinger 2001-2019
</metadata>
<g transform="translate(0.000000,54.000000) scale(0.100000,-0.100000)"
fill="#000000" stroke="none">
<path d="M578 512 c-21 -4 -22 -17 -3 -102 8 -36 14 -107 15 -159 l0 -94 -40
61 c-21 34 -47 88 -56 119 -9 32 -20 62 -24 66 -4 5 -17 -8 -29 -28 -24 -41
-26 -55 -9 -55 30 0 158 -189 158 -234 0 -15 6 -26 13 -26 10 0 12 24 9 114
l-4 113 48 17 c28 9 80 16 128 16 120 0 80 17 -51 22 -62 3 -115 7 -118 10 -6
6 9 112 20 139 7 17 -23 28 -57 21z m28 -44 c-3 -13 -6 -30 -7 -38 -1 -8 -5
-1 -8 15 -8 33 -5 45 11 45 6 0 8 -10 4 -22z m-133 -129 c3 -13 1 -19 -6 -16
-15 5 -22 37 -9 37 5 0 12 -9 15 -21z m177 -13 c0 -2 -9 -6 -20 -9 -11 -3 -20
-1 -20 4 0 5 9 9 20 9 11 0 20 -2 20 -4z"/>
<path d="M183 432 l-32 -3 6 -66 c4 -46 3 -67 -6 -72 -9 -6 -9 -23 3 -75 9
-37 16 -96 16 -132 0 -36 4 -64 10 -64 6 0 10 38 10 95 0 62 5 108 15 132 19
45 19 57 0 49 -27 -10 -26 17 0 73 15 30 23 57 18 60 -4 4 -22 5 -40 3z m10
-42 c-3 -11 -9 -20 -13 -20 -4 0 -10 9 -13 20 -4 15 0 20 13 20 13 0 17 -5 13
-20z m-9 -146 l-8 -29 -6 25 c-4 14 -2 28 4 32 15 10 18 4 10 -28z"/>
<path d="M77 422 c-37 -4 -41 -19 -28 -96 6 -35 12 -114 12 -175 1 -61 5 -114
10 -116 14 -9 19 34 16 145 -1 62 4 130 12 167 7 33 12 65 10 70 -2 4 -17 7
-32 5z m9 -38 c-3 -9 -6 -28 -7 -42 0 -24 -1 -25 -9 -7 -14 34 -12 65 6 65 11
0 14 -5 10 -16z"/>
</g>
</svg>
