<?xml version="1.0" standalone="no"?>
<!DOCTYPE svg PUBLIC "-//W3C//DTD SVG 20010904//EN"
 "http://www.w3.org/TR/2001/REC-SVG-20010904/DTD/svg10.dtd">
<svg version="1.0" xmlns="http://www.w3.org/2000/svg"
 width="121.000000pt" height="107.000000pt" viewBox="0 0 121.000000 107.000000"
 preserveAspectRatio="xMidYMid meet">
<metadata>
Created by potrace 1.16, written by Peter Selinger 2001-2019
</metadata>
<g transform="translate(0.000000,107.000000) scale(0.100000,-0.100000)"
fill="#000000" stroke="none">
<path d="M90 997 c0 -11 -9 -21 -21 -24 -17 -5 -19 -10 -13 -32 4 -14 9 -104
11 -199 3 -129 7 -172 16 -169 9 3 12 51 13 178 0 111 4 182 12 195 15 29 56
36 252 43 244 9 208 26 -55 26 -202 0 -215 -1 -215 -18z"/>
<path d="M210 895 c0 -25 2 -27 33 -21 17 3 95 8 172 12 77 3 144 10 149 15 6
5 -57 9 -146 8 -86 0 -168 3 -182 7 -23 5 -26 3 -26 -21z"/>
<path d="M140 881 c0 -5 4 -21 9 -34 5 -14 11 -79 12 -146 2 -93 5 -121 16
-121 10 0 13 32 11 155 l-1 155 -24 0 c-12 0 -23 -4 -23 -9z"/>
<path d="M619 868 c-13 -11 -15 -35 -11 -135 5 -135 22 -170 22 -45 0 70 5
104 25 170 8 25 -11 30 -36 10z"/>
<path d="M397 863 c-12 -12 -7 -50 8 -63 22 -18 18 -35 -10 -54 -25 -16 -33
-36 -16 -36 11 0 90 63 90 73 1 4 -5 7 -13 7 -8 0 -21 18 -30 40 -17 42 -19
44 -29 33z"/>
<path d="M451 856 c-11 -13 -9 -21 13 -47 30 -35 31 -42 11 -59 -14 -12 -21
-40 -10 -40 3 0 16 12 29 27 l23 27 -20 45 c-25 59 -31 65 -46 47z"/>
<path d="M211 841 c-13 -23 -14 -51 -3 -51 5 0 17 -6 27 -14 19 -14 19 -15 -5
-34 -41 -33 -13 -38 33 -6 47 34 74 35 55 4 -19 -30 1 -38 24 -10 12 15 16 26
9 28 -7 2 -23 26 -36 53 -14 27 -27 49 -30 49 -2 0 -10 -10 -16 -22 -9 -18 -8
-24 6 -34 10 -7 14 -18 10 -25 -9 -14 -44 27 -45 53 0 26 -18 31 -29 9z"/>
<path d="M337 853 c-13 -13 -6 -38 19 -67 32 -36 42 -27 20 18 -9 19 -16 39
-16 45 0 12 -13 15 -23 4z"/>
<path d="M538 847 c-31 -12 -35 -24 -14 -41 9 -7 16 -37 18 -84 3 -63 2 -71
-10 -55 -7 10 -15 28 -19 41 -6 27 -20 29 -28 2 -6 -19 29 -80 47 -80 4 0 8
-7 8 -15 0 -8 7 -15 15 -15 12 0 15 19 15 108 0 59 3 117 6 130 7 24 2 25 -38
9z"/>
<path d="M418 695 c-10 -23 -8 -28 23 -55 l34 -30 -24 -18 c-14 -12 -21 -24
-16 -31 5 -9 17 -3 41 20 39 38 41 45 15 52 -12 3 -24 20 -32 46 -14 47 -25
51 -41 16z"/>
<path d="M225 690 c-17 -19 -17 -21 9 -54 31 -42 32 -52 6 -66 -22 -12 -27
-30 -7 -30 16 1 67 46 67 60 0 6 -4 9 -9 6 -11 -7 -31 38 -31 69 0 33 -14 38
-35 15z"/>
<path d="M347 703 c-12 -11 -7 -53 6 -53 6 0 20 -12 30 -26 18 -24 18 -27 2
-44 -12 -13 -13 -20 -5 -25 7 -4 22 4 36 18 26 29 32 49 10 41 -8 -3 -20 12
-35 45 -21 49 -30 58 -44 44z"/>
<path d="M286 681 c-17 -19 -17 -20 4 -38 34 -28 42 -50 28 -72 -20 -33 0 -37
32 -6 32 30 39 51 16 42 -15 -6 -46 46 -46 77 0 21 -13 20 -34 -3z"/>
<path d="M724 643 c4 -45 18 -53 34 -18 14 31 6 55 -19 55 -15 0 -17 -7 -15
-37z"/>
<path d="M850 454 c-13 -33 -13 -31 10 -37 25 -6 51 -58 32 -65 -7 -2 -26 -15
-41 -28 -16 -13 -34 -24 -40 -24 -6 0 -11 -11 -11 -25 0 -31 15 -32 35 -2 8
13 36 39 63 57 26 19 50 39 54 44 4 6 8 7 8 2 0 -6 5 -5 11 1 8 8 7 17 -5 34
-9 13 -16 31 -16 41 0 24 -18 32 -35 14 -20 -20 -19 -25 11 -48 20 -16 23 -23
12 -29 -21 -14 -25 -11 -47 41 -12 28 -24 50 -27 50 -2 0 -9 -12 -14 -26z"/>
<path d="M797 453 c-11 -10 -8 -53 3 -53 5 0 14 -10 21 -21 9 -17 8 -23 -2
-30 -17 -10 -45 23 -54 64 -7 31 -17 34 -35 12 -11 -13 -9 -20 9 -39 20 -22
21 -24 4 -30 -19 -8 -40 14 -50 52 -6 25 -14 27 -31 10 -19 -19 -14 -44 13
-56 31 -14 32 -34 3 -47 -26 -11 -33 -33 -17 -55 9 -13 11 -13 16 0 12 29 87
90 98 79 11 -11 -18 -39 -42 -39 -15 0 -17 -18 -4 -38 6 -11 20 -3 56 32 26
25 53 46 61 46 19 0 18 14 -6 52 -11 18 -20 41 -20 51 0 17 -11 22 -23 10z"/>
<path d="M1110 426 c-16 -18 -20 -30 -14 -43 4 -10 10 -78 13 -151 4 -73 10
-132 15 -132 5 0 10 57 11 127 1 71 5 149 9 176 9 53 1 59 -34 23z"/>
<path d="M429 395 c-3 -2 -78 -5 -167 -6 -89 -1 -162 -6 -162 -11 0 -4 -10 -8
-21 -8 -19 0 -21 -4 -15 -42 3 -24 6 -98 7 -166 1 -68 6 -125 11 -128 10 -6 8
-23 17 144 4 78 12 147 18 153 14 14 119 29 272 37 93 5 136 11 139 20 2 8
-11 12 -45 12 -28 0 -52 -2 -54 -5z"/>
<path d="M1016 375 c-16 -12 -17 -18 -7 -46 6 -18 11 -86 11 -151 0 -91 3
-119 13 -116 8 3 13 37 14 114 1 60 4 133 7 162 5 56 -3 63 -38 37z"/>
<path d="M944 330 c-21 -16 -45 -30 -51 -30 -14 0 -18 -36 -5 -44 10 -6 108
91 101 99 -3 3 -23 -8 -45 -25z"/>
<path d="M163 278 c-9 -10 -12 -22 -7 -30 4 -7 10 -58 14 -113 6 -113 25 -134
25 -27 1 125 4 157 16 145 8 -8 21 -8 43 -1 17 5 95 12 174 15 97 4 142 10
142 17 0 9 -54 12 -196 12 -170 -1 -197 -3 -211 -18z"/>
<path d="M930 266 c0 -8 -3 -21 -6 -30 -4 -10 -1 -16 9 -16 8 0 22 -12 32 -26
14 -22 15 -28 4 -35 -22 -14 -26 -11 -56 36 -32 51 -39 54 -48 23 -6 -16 -1
-26 16 -39 16 -13 19 -19 9 -18 -20 0 -44 19 -59 47 -6 12 -16 22 -20 22 -17
0 -21 -45 -6 -56 13 -10 13 -13 1 -23 -12 -10 -19 -5 -37 30 -19 39 -23 41
-34 25 -7 -9 -11 -25 -8 -35 3 -11 -2 -21 -13 -25 -22 -9 -25 -5 -31 44 -6 45
-17 47 -41 8 -15 -25 -14 -27 14 -51 l29 -25 -27 -11 c-22 -8 -28 -17 -28 -41
0 -38 10 -38 32 1 18 31 38 31 38 0 0 -32 13 -32 43 0 23 26 31 29 38 18 5 -8
9 -22 9 -31 0 -27 10 -22 47 22 41 48 53 50 53 10 0 -33 15 -40 24 -12 4 10
26 34 51 52 25 19 45 36 45 38 0 2 -13 21 -30 42 -16 21 -30 45 -30 54 0 9 -4
16 -10 16 -5 0 -10 -6 -10 -14z m-75 -125 c8 -14 -37 -43 -49 -31 -7 7 -3 15
10 25 23 17 31 18 39 6z m73 -3 c-6 -18 -28 -21 -28 -4 0 9 7 16 16 16 9 0 14
-5 12 -12z m-164 -7 c3 -4 -6 -13 -20 -20 -32 -14 -34 -14 -34 3 0 21 43 35
54 17z"/>
</g>
</svg>
