<?xml version="1.0" standalone="no"?>
<!DOCTYPE svg PUBLIC "-//W3C//DTD SVG 20010904//EN"
 "http://www.w3.org/TR/2001/REC-SVG-20010904/DTD/svg10.dtd">
<svg version="1.0" xmlns="http://www.w3.org/2000/svg"
 width="129.000000pt" height="53.000000pt" viewBox="0 0 129.000000 53.000000"
 preserveAspectRatio="xMidYMid meet">
<metadata>
Created by potrace 1.16, written by Peter Selinger 2001-2019
</metadata>
<g transform="translate(0.000000,53.000000) scale(0.100000,-0.100000)"
fill="#000000" stroke="none">
<path d="M136 471 c-4 -5 -2 -20 2 -33 19 -49 22 -105 8 -117 -11 -9 -11 -20
0 -69 8 -31 14 -90 14 -129 0 -42 4 -73 10 -73 6 0 10 32 10 75 0 40 5 97 11
126 9 39 8 57 -1 75 -12 22 -10 81 6 132 6 19 3 22 -24 22 -17 0 -33 -4 -36
-9z m35 -204 c-8 -8 -11 -7 -11 4 0 9 3 19 7 23 4 4 9 2 11 -4 3 -7 -1 -17 -7
-23z"/>
<path d="M274 471 c-2 -2 -4 -15 -4 -29 0 -14 -7 -30 -15 -36 -14 -10 -14 -15
0 -48 10 -26 15 -71 15 -147 0 -60 4 -121 10 -136 10 -26 10 -26 42 -8 18 9
76 24 128 33 l95 16 6 129 c3 72 9 149 14 173 l8 42 -54 1 c-30 0 -96 4 -147
7 -52 4 -96 5 -98 3z m46 -31 c0 -5 -7 -10 -15 -10 -8 0 -15 5 -15 10 0 6 7
10 15 10 8 0 15 -4 15 -10z m199 -44 c6 -25 11 -94 11 -155 l0 -109 -72 -7
c-40 -4 -93 -5 -118 -3 l-45 3 -3 80 c-1 44 3 109 11 144 l13 64 44 12 c25 7
68 13 96 14 l52 1 11 -44z m-229 -22 c0 -8 -4 -12 -10 -9 -5 3 -10 10 -10 16
0 5 5 9 10 9 6 0 10 -7 10 -16z"/>
<path d="M362 362 c-11 -24 -10 -29 8 -44 27 -22 26 -25 -15 -20 -27 3 -35 0
-35 -11 0 -8 -3 -23 -7 -33 -6 -15 -2 -16 33 -11 l39 6 -27 -24 c-33 -29 -34
-36 -8 -60 21 -19 16 -25 50 60 13 33 26 32 45 -5 9 -16 20 -30 25 -30 14 0
12 12 -5 34 -22 29 -19 34 18 38 40 4 38 21 -4 28 -29 4 -31 6 -16 19 10 7 17
20 17 29 0 11 -8 8 -30 -13 -22 -21 -31 -25 -34 -14 -2 8 -8 27 -13 43 -12 39
-25 42 -41 8z"/>
<path d="M937 466 c-3 -7 -2 -50 1 -97 4 -46 6 -131 5 -187 -1 -102 -1 -104
20 -98 12 4 67 12 122 18 55 6 104 14 108 18 5 4 9 68 10 143 2 117 5 138 21
156 11 12 16 24 13 27 -3 4 -55 6 -116 5 -77 -2 -120 2 -144 13 -27 11 -37 12
-40 2z m43 -30 c0 -11 -19 -15 -25 -6 -3 5 1 10 9 10 9 0 16 -2 16 -4z m188
-23 c14 -27 23 -153 16 -222 l-7 -61 -72 0 c-40 0 -87 3 -104 6 -28 6 -31 10
-31 44 0 34 3 38 38 48 75 23 119 18 70 -9 -28 -14 -38 -26 -38 -44 0 -31 20
-43 33 -19 5 10 30 38 53 61 24 24 44 46 44 49 0 4 -19 28 -43 53 -23 25 -49
57 -59 71 -19 30 -38 19 -41 -25 -2 -24 3 -29 38 -42 22 -7 49 -22 60 -33 19
-19 19 -20 1 -20 -10 0 -47 5 -82 12 -70 12 -73 17 -52 75 10 28 10 36 -2 43
-18 11 13 19 95 23 33 2 63 4 67 5 4 1 11 -6 16 -15z m-201 -65 c-3 -7 -5 -2
-5 12 0 14 2 19 5 13 2 -7 2 -19 0 -25z m53 -88 c0 -5 -9 -10 -21 -10 -11 0
-17 5 -14 10 3 6 13 10 21 10 8 0 14 -4 14 -10z"/>
<path d="M811 439 c-16 -6 -21 -14 -16 -27 3 -9 10 -36 14 -59 7 -36 5 -44
-12 -56 -18 -12 -18 -14 -4 -28 9 -10 18 -45 22 -92 4 -42 12 -77 17 -77 5 0
8 33 7 73 -1 52 3 82 15 106 17 32 17 33 -3 38 -26 7 -26 9 -1 61 33 68 22 86
-39 61z m29 -28 c0 -6 -4 -13 -10 -16 -5 -3 -10 1 -10 9 0 9 5 16 10 16 6 0
10 -4 10 -9z m-10 -131 c0 -5 -4 -10 -10 -10 -5 0 -10 5 -10 10 0 6 5 10 10
10 6 0 10 -4 10 -10z"/>
<path d="M712 402 c-17 -3 -22 -8 -17 -20 12 -32 25 -127 25 -190 0 -45 4 -62
12 -60 8 3 11 34 10 104 -2 73 1 106 13 128 25 46 23 48 -43 38z m33 -32 c-3
-5 -10 -10 -16 -10 -5 0 -9 5 -9 10 0 6 7 10 16 10 8 0 12 -4 9 -10z"/>
<path d="M61 389 c-17 -7 -21 -14 -15 -27 4 -9 9 -73 12 -142 4 -135 22 -192
23 -75 0 39 6 108 13 155 16 105 15 108 -33 89z m16 -51 c-3 -7 -5 -2 -5 12 0
14 2 19 5 13 2 -7 2 -19 0 -25z"/>
<path d="M624 105 c-3 -8 -2 -20 2 -27 5 -7 7 -21 6 -30 -5 -29 15 -21 26 10
15 42 -19 88 -34 47z"/>
<path d="M1267 103 c-13 -12 -7 -43 8 -43 9 0 15 9 15 25 0 24 -10 32 -23 18z"/>
</g>
</svg>
