<?xml version="1.0" standalone="no"?>
<!DOCTYPE svg PUBLIC "-//W3C//DTD SVG 20010904//EN"
 "http://www.w3.org/TR/2001/REC-SVG-20010904/DTD/svg10.dtd">
<svg version="1.0" xmlns="http://www.w3.org/2000/svg"
 width="128.000000pt" height="149.000000pt" viewBox="0 0 128.000000 149.000000"
 preserveAspectRatio="xMidYMid meet">
<metadata>
Created by potrace 1.16, written by Peter Selinger 2001-2019
</metadata>
<g transform="translate(0.000000,149.000000) scale(0.100000,-0.100000)"
fill="#000000" stroke="none">
<path d="M747 1387 c-4 -32 16 -48 36 -28 29 29 44 0 63 -128 l6 -44 -62 44
c-34 23 -72 56 -85 71 -28 34 -35 34 -64 6 -19 -17 -27 -19 -42 -10 -27 17
-34 -3 -14 -45 14 -29 17 -62 16 -160 0 -68 3 -123 7 -123 5 0 21 14 38 31 34
36 189 142 201 137 4 -2 9 -43 11 -92 l2 -88 -46 7 -46 7 7 -34 c4 -18 10 -36
14 -40 4 -4 38 1 75 12 52 15 106 20 222 22 163 3 188 12 122 43 -18 8 -62 33
-98 55 -36 22 -72 43 -80 46 -40 18 -50 37 -50 95 l0 57 68 38 c37 21 83 46
102 57 19 11 52 29 73 40 22 11 37 26 35 34 -2 12 -45 14 -255 16 l-251 2 -5
-28z m428 -13 c-18 -14 -185 -114 -190 -114 -1 0 1 20 5 45 4 25 5 46 3 48 -2
2 -19 -1 -39 -7 -29 -9 -34 -15 -28 -31 20 -64 17 -81 -20 -103 l-36 -21 0 48
c0 26 3 69 6 94 l7 46 141 4 c77 1 148 3 156 4 10 2 9 -3 -5 -13z m-469 -127
c73 -40 124 -72 124 -79 0 -5 -92 -63 -122 -76 -4 -2 -8 31 -10 74 -2 53 -7
79 -16 82 -11 3 -12 -14 -7 -86 5 -84 4 -92 -14 -101 -11 -6 -24 -11 -29 -11
-12 0 0 188 14 211 7 13 14 11 60 -14z m252 -104 l-3 -23 -35 21 -34 21 29 24
30 24 8 -22 c4 -12 7 -33 5 -45z m-9 -43 c6 0 11 -20 11 -47 0 -27 3 -58 6
-70 6 -21 3 -23 -40 -23 l-46 0 0 91 0 90 29 -20 c16 -12 34 -21 40 -21z m129
-83 c81 -50 78 -57 -30 -57 l-58 0 0 39 c0 22 -3 47 -7 57 -8 23 3 18 95 -39z
m-238 -81 c0 -2 -7 -6 -15 -10 -8 -3 -15 -1 -15 4 0 6 7 10 15 10 8 0 15 -2
15 -4z"/>
<path d="M148 1287 c-49 -17 -88 -35 -88 -41 0 -5 6 -17 14 -25 16 -18 87
-173 121 -266 12 -32 26 -60 31 -62 5 -2 9 59 9 134 0 76 3 173 7 216 4 42 4
76 0 76 -4 -1 -46 -15 -94 -32z m68 -49 c-3 -24 -6 -82 -7 -130 -1 -49 -5 -88
-9 -88 -4 0 -15 21 -25 48 -10 26 -28 67 -41 92 -36 74 -35 82 16 101 70 26
73 25 66 -23z"/>
<path d="M318 1233 c-2 -4 -2 -28 0 -53 3 -25 4 -89 3 -142 -1 -84 1 -98 14
-98 12 0 16 9 15 33 -5 90 -3 97 35 97 l35 0 0 -60 c0 -79 18 -77 22 3 3 55 5
62 23 59 35 -7 125 9 125 21 0 9 -21 11 -70 9 -69 -3 -70 -3 -70 22 0 13 4 36
10 50 8 22 16 26 52 27 48 0 87 12 72 22 -6 3 -57 5 -115 5 -57 -1 -114 1
-126 5 -12 5 -23 4 -25 0z m102 -42 c0 -5 -5 -11 -10 -13 -7 -2 -7 -14 1 -36
13 -39 14 -38 -30 -47 l-34 -7 7 43 c7 43 27 69 53 69 7 0 13 -4 13 -9z"/>
<path d="M879 794 c-1 -5 -2 -78 -3 -163 -1 -118 -4 -155 -14 -159 -19 -6
-169 154 -183 195 -9 29 -39 48 -39 24 0 -5 -17 -13 -37 -18 -30 -7 -37 -14
-35 -29 1 -10 5 -36 9 -57 l6 -39 -119 4 c-65 2 -127 8 -137 12 -14 7 -19 4
-24 -13 -3 -11 -10 -22 -17 -23 -6 0 -18 -2 -26 -2 -8 -1 -13 -8 -11 -16 15
-58 20 -94 23 -159 2 -50 8 -76 17 -79 9 -3 12 4 9 24 -3 25 1 29 25 32 24 3
27 0 27 -27 0 -17 5 -31 10 -31 6 0 10 15 10 34 l0 35 101 0 c55 0 104 3 110
6 5 4 9 -12 9 -37 0 -27 8 -52 20 -68 10 -14 20 -23 22 -20 2 3 8 14 14 25 6
11 40 44 75 74 35 29 79 67 98 83 29 24 36 27 48 16 17 -17 33 -244 21 -306
-4 -24 -6 -48 -3 -52 3 -4 25 -2 49 5 48 15 132 23 239 24 80 1 85 12 24 59
-23 18 -70 58 -104 90 l-62 57 -2 135 -1 134 35 31 c64 54 152 122 174 134 42
22 17 37 -65 39 -78 3 -228 18 -269 29 -13 3 -24 1 -24 -3z m317 -58 c1 0 -37
-32 -84 -70 l-85 -69 6 34 c3 19 9 44 13 57 6 22 4 23 -27 20 -37 -3 -38 -5
-26 -88 6 -44 5 -46 -34 -77 -23 -18 -45 -33 -50 -33 -5 0 -9 51 -9 114 0 111
1 115 23 119 18 3 269 -3 273 -7z m-586 -102 c0 -8 -5 -12 -10 -9 -6 4 -8 11
-5 16 9 14 15 11 15 -7z m63 -29 c32 -28 33 -32 10 -37 -14 -3 -16 -15 -13
-83 1 -44 3 -97 4 -118 1 -32 -4 -41 -31 -58 l-33 -21 0 113 c0 103 16 229 30
229 3 0 17 -12 33 -25z m146 -171 c-13 -15 -114 -94 -121 -94 -8 0 3 172 12
196 l11 27 56 -56 c50 -50 55 -58 42 -73z m181 69 c0 -21 3 -68 7 -105 3 -38
2 -68 -3 -68 -5 1 -29 18 -52 40 -61 55 -63 84 -9 132 23 20 45 37 50 38 4 0
7 -17 7 -37z m-410 -61 l0 -77 -107 0 -108 0 3 25 c2 14 11 33 20 43 20 22 13
29 -26 21 -31 -6 -31 -7 -25 -52 5 -40 4 -45 -11 -39 -10 4 -24 7 -32 7 -17 0
-19 62 -3 108 12 36 21 38 182 40 l107 2 0 -78z m373 -116 l47 -43 0 -83 0
-83 -42 7 c-23 4 -43 8 -45 9 -4 5 -16 237 -11 237 2 0 25 -20 51 -44z m104
-98 c11 -13 42 -41 69 -63 l49 -40 -70 -6 c-39 -4 -72 -5 -74 -3 -6 6 -7 134
0 134 3 0 15 -10 26 -22z m-130 -134 c-3 -3 -12 -4 -19 -1 -8 3 -5 6 6 6 11 1
17 -2 13 -5z"/>
<path d="M184 619 c-3 -6 -22 -17 -40 -25 -34 -14 -42 -28 -25 -38 9 -6 64
-174 76 -233 4 -18 11 -33 16 -33 13 0 11 17 -12 106 -21 81 -21 163 1 204 11
21 -4 38 -16 19z m-20 -64 c-4 -8 -8 -15 -10 -15 -2 0 -4 7 -4 15 0 8 4 15 10
15 5 0 7 -7 4 -15z"/>
</g>
</svg>
