<?xml version="1.0" standalone="no"?>
<!DOCTYPE svg PUBLIC "-//W3C//DTD SVG 20010904//EN"
 "http://www.w3.org/TR/2001/REC-SVG-20010904/DTD/svg10.dtd">
<svg version="1.0" xmlns="http://www.w3.org/2000/svg"
 width="87.000000pt" height="52.000000pt" viewBox="0 0 87.000000 52.000000"
 preserveAspectRatio="xMidYMid meet">
<metadata>
Created by potrace 1.16, written by Peter Selinger 2001-2019
</metadata>
<g transform="translate(0.000000,52.000000) scale(0.100000,-0.100000)"
fill="#000000" stroke="none">
<path d="M537 463 c-3 -5 -8 -23 -12 -40 -6 -31 -5 -33 19 -33 14 0 26 -5 26
-10 0 -7 -18 -8 -49 -4 -54 7 -73 -6 -47 -32 9 -8 16 -20 16 -25 0 -9 -116
-14 -217 -10 -43 2 -53 -1 -53 -13 0 -14 17 -15 140 -10 122 5 140 4 140 -10
0 -20 -41 -26 -164 -23 -70 1 -101 -2 -103 -10 -3 -9 29 -12 131 -10 103 1
136 -1 136 -10 0 -15 -3 -15 -154 -17 -80 -1 -110 -4 -114 -14 -3 -11 22 -12
132 -8 125 6 136 5 136 -11 0 -16 -11 -18 -112 -17 -106 1 -169 -8 -155 -23 8
-7 139 -5 215 3 l52 6 0 -38 c0 -66 11 -68 65 -12 47 49 178 142 238 169 33
15 36 39 4 39 -29 0 -159 77 -219 129 -26 23 -49 38 -51 34z m39 -60 c-7 -7
-26 7 -26 19 0 6 6 6 15 -2 9 -7 13 -15 11 -17z m27 -50 c-8 -3 -10 -31 -6
-99 5 -83 4 -94 -11 -94 -13 0 -16 12 -16 77 0 85 17 150 35 132 7 -8 7 -13
-2 -16z m39 -15 c-7 -7 -12 -8 -12 -2 0 14 12 26 19 19 2 -3 -1 -11 -7 -17z
m-97 -21 c3 -12 5 -58 3 -102 -2 -59 -7 -80 -16 -80 -13 0 -16 61 -12 190 0
23 19 18 25 -8z m133 -46 c3 -58 2 -60 -27 -76 l-31 -16 0 62 c0 67 8 74 16
13 6 -52 14 -56 14 -8 0 44 9 84 19 84 3 0 7 -27 9 -59z m43 -16 c8 -8 14 14
10 38 -2 10 10 8 37 -7 23 -12 22 -13 -28 -39 -40 -21 -51 -23 -46 -11 3 8 7
30 7 47 2 28 2 28 6 7 3 -14 9 -29 14 -35z m-180 -156 c-17 -18 -21 -20 -21
-6 0 9 8 20 17 26 26 14 28 5 4 -20z"/>
<path d="M88 338 c-21 -11 -38 -24 -38 -28 0 -4 18 -39 40 -76 22 -38 40 -73
40 -79 0 -5 9 -21 19 -34 12 -16 20 -20 25 -12 4 7 2 19 -5 28 -9 10 -14 51
-16 117 -3 113 -6 117 -65 84z m35 -60 c3 -24 4 -44 3 -46 -2 -1 -13 12 -24
30 -15 24 -18 36 -10 45 18 22 25 15 31 -29z"/>
</g>
</svg>
