<?xml version="1.0" standalone="no"?>
<!DOCTYPE svg PUBLIC "-//W3C//DTD SVG 20010904//EN"
 "http://www.w3.org/TR/2001/REC-SVG-20010904/DTD/svg10.dtd">
<svg version="1.0" xmlns="http://www.w3.org/2000/svg"
 width="91.000000pt" height="52.000000pt" viewBox="0 0 91.000000 52.000000"
 preserveAspectRatio="xMidYMid meet">
<metadata>
Created by potrace 1.16, written by Peter Selinger 2001-2019
</metadata>
<g transform="translate(0.000000,52.000000) scale(0.100000,-0.100000)"
fill="#000000" stroke="none">
<path d="M574 434 c-4 -11 -17 -28 -30 -40 -23 -19 -24 -22 -10 -50 11 -23 13
-53 7 -144 -4 -63 -6 -118 -4 -122 2 -4 20 0 40 8 27 12 64 15 140 12 l103 -3
1 95 c0 52 4 118 9 145 5 28 10 59 12 70 3 19 -4 20 -112 26 -63 3 -123 9
-132 13 -13 6 -20 3 -24 -10z m221 -62 c6 -18 9 -48 7 -67 l-4 -36 -57 3 -56
3 3 55 c5 69 15 81 61 77 30 -3 38 -9 46 -35z m-141 -9 c12 -78 9 -93 -23 -93
-53 0 -61 8 -61 60 0 39 4 49 23 58 41 20 54 14 61 -25z m6 -177 l0 -65 -37 5
c-59 9 -63 11 -63 41 0 66 12 79 73 82 27 1 27 0 27 -63z m140 5 l0 -59 -56
-4 c-31 -1 -58 -1 -60 1 -2 2 -4 31 -4 63 l0 58 60 0 60 0 0 -59z"/>
<path d="M154 369 c-2 -4 3 -26 11 -49 21 -60 20 -63 -22 -57 -81 13 -78 14
-81 -17 -4 -28 -3 -29 30 -21 18 4 47 8 63 9 27 1 30 -2 30 -29 0 -16 -4 -29
-10 -29 -5 1 -31 5 -57 8 l-48 7 0 -30 c0 -38 10 -44 44 -25 16 7 39 14 53 14
24 0 25 -2 21 -52 -1 -29 2 -55 7 -58 6 -3 11 18 13 52 2 36 8 58 15 59 7 0
35 1 62 2 69 3 58 21 -13 22 -57 0 -57 0 -60 32 l-3 32 68 3 c37 2 67 7 65 12
-2 8 -77 10 -116 3 -24 -4 -14 49 22 115 4 8 -89 5 -94 -3z m56 -26 c0 -10
-20 -40 -20 -31 0 3 -3 13 -6 22 -4 11 -1 16 10 16 9 0 16 -3 16 -7z"/>
</g>
</svg>
