<?xml version="1.0" standalone="no"?>
<!DOCTYPE svg PUBLIC "-//W3C//DTD SVG 20010904//EN"
 "http://www.w3.org/TR/2001/REC-SVG-20010904/DTD/svg10.dtd">
<svg version="1.0" xmlns="http://www.w3.org/2000/svg"
 width="107.000000pt" height="59.000000pt" viewBox="0 0 107.000000 59.000000"
 preserveAspectRatio="xMidYMid meet">
<metadata>
Created by potrace 1.16, written by Peter Selinger 2001-2019
</metadata>
<g transform="translate(0.000000,59.000000) scale(0.100000,-0.100000)"
fill="#000000" stroke="none">
<path d="M15 580 c7 -11 605 -11 905 0 86 3 -83 7 -378 8 -361 1 -531 -1 -527
-8z"/>
<path d="M695 519 l-17 -32 26 7 c31 8 28 23 31 -227 l2 -168 -22 5 c-18 5
-24 0 -32 -27 -16 -53 -10 -56 70 -35 50 13 98 18 155 16 l82 -2 4 214 c2 118
6 225 11 238 7 21 5 22 -54 22 -59 0 -61 -1 -56 -22 8 -32 10 -150 8 -300 -2
-97 -6 -128 -16 -128 -9 0 -12 11 -9 35 3 28 1 35 -13 35 -15 0 -17 -6 -12
-35 4 -23 2 -33 -5 -29 -5 3 -28 6 -49 6 l-40 -1 3 204 c3 184 8 229 23 213 3
-3 7 -90 10 -194 2 -104 4 -193 4 -197 1 -5 6 -5 11 -2 7 4 8 72 4 199 -6 171
-5 194 9 199 9 3 18 3 21 -1 2 -4 7 -82 10 -172 3 -91 9 -164 13 -162 10 3 5
344 -5 353 -4 4 -39 10 -79 13 l-72 7 -16 -32z m55 7 c0 -2 -7 -6 -15 -10 -8
-3 -15 -1 -15 4 0 6 7 10 15 10 8 0 15 -2 15 -4z m218 -240 l5 -206 -28 0 -28
0 7 198 c8 210 11 241 28 224 6 -6 13 -96 16 -216z m-233 -216 c3 -5 -1 -10
-9 -10 -9 0 -16 5 -16 10 0 6 4 10 9 10 6 0 13 -4 16 -10z"/>
<path d="M188 498 c-3 -7 2 -37 9 -68 8 -33 13 -107 12 -185 -1 -87 2 -130 10
-133 7 -2 11 23 11 81 0 100 -4 97 121 104 l86 6 7 -66 c4 -37 4 -76 1 -88 -5
-15 -3 -20 6 -17 8 3 16 24 19 49 5 44 5 44 45 44 l40 0 -2 -47 c-2 -38 0 -48
13 -48 13 0 15 10 12 50 l-3 50 40 1 c70 2 78 4 83 17 3 10 -9 12 -58 7 l-62
-7 7 57 7 56 -29 -3 c-15 -2 -27 -7 -27 -13 1 -5 5 -28 8 -51 l7 -40 -36 4
c-34 4 -65 35 -46 46 4 3 11 19 14 34 5 27 11 30 59 35 29 4 77 7 106 7 73 0
65 23 -9 25 -30 1 -75 5 -101 9 -41 7 -47 6 -57 -13 -7 -12 -20 -21 -31 -21
-16 0 -19 -5 -14 -29 3 -16 2 -31 -2 -33 -12 -7 -192 16 -201 25 -4 4 1 39 10
78 17 69 15 95 -4 84 -5 -4 -9 -24 -9 -46 0 -26 -4 -38 -11 -34 -6 4 -9 23 -7
43 3 34 -15 57 -24 30z m379 -180 c-3 -8 -6 -5 -6 6 -1 11 2 17 5 13 3 -3 4
-12 1 -19z m-307 -2 c0 -2 -7 -6 -15 -10 -8 -3 -15 -1 -15 4 0 6 7 10 15 10 8
0 15 -2 15 -4z"/>
<path d="M139 385 c-13 -14 -36 -33 -51 -41 -16 -8 -28 -19 -28 -24 0 -5 22
-56 49 -112 27 -57 52 -113 55 -125 4 -13 14 -23 22 -23 18 0 19 -5 -22 84
-35 77 -35 78 -20 124 9 25 16 54 16 64 0 11 7 32 15 48 13 25 13 30 1 30 -8
0 -24 -11 -37 -25z m-10 -82 l-13 -47 -12 29 c-11 26 -10 33 9 52 28 31 32 22
16 -34z"/>
</g>
</svg>
