<?xml version="1.0" standalone="no"?>
<!DOCTYPE svg PUBLIC "-//W3C//DTD SVG 20010904//EN"
 "http://www.w3.org/TR/2001/REC-SVG-20010904/DTD/svg10.dtd">
<svg version="1.0" xmlns="http://www.w3.org/2000/svg"
 width="119.000000pt" height="55.000000pt" viewBox="0 0 119.000000 55.000000"
 preserveAspectRatio="xMidYMid meet">
<metadata>
Created by potrace 1.16, written by Peter Selinger 2001-2019
</metadata>
<g transform="translate(0.000000,55.000000) scale(0.100000,-0.100000)"
fill="#000000" stroke="none">
<path d="M489 491 c-28 -23 -28 -22 34 -49 26 -12 47 -25 47 -29 0 -10 -65
-36 -143 -58 -56 -16 -58 -18 -52 -44 4 -19 1 -32 -10 -41 -26 -21 -17 -27 48
-34 65 -7 126 -23 141 -36 5 -5 -10 -14 -33 -21 -39 -12 -41 -14 -41 -51 0
-43 11 -47 43 -17 12 12 36 32 53 45 l31 24 48 -20 c69 -30 92 -19 27 12 l-53
26 28 14 c15 8 56 29 91 47 34 18 60 36 58 40 -3 4 -44 31 -91 60 -47 29 -109
75 -139 102 -30 27 -56 49 -59 49 -3 0 -15 -9 -28 -19z m46 -21 c3 -5 2 -10
-4 -10 -5 0 -13 5 -16 10 -3 6 -2 10 4 10 5 0 13 -4 16 -10z m173 -134 l64
-39 -69 -34 c-37 -19 -72 -39 -77 -44 -17 -16 -46 -10 -46 9 0 9 7 39 15 66
21 70 20 78 -12 74 l-28 -3 3 -72 4 -72 -49 23 c-26 13 -58 26 -70 30 -13 4
-23 11 -23 16 0 11 83 63 140 89 38 17 48 18 65 7 11 -7 49 -29 83 -50z m-288
-16 c0 -5 -4 -10 -10 -10 -5 0 -10 5 -10 10 0 6 5 10 10 10 6 0 10 -4 10 -10z
m100 -180 c0 -5 -4 -10 -10 -10 -5 0 -10 5 -10 10 0 6 5 10 10 10 6 0 10 -4
10 -10z"/>
<path d="M838 446 c-3 -15 -2 -28 1 -30 4 -3 43 0 88 5 123 15 144 11 159 -31
7 -19 13 -83 13 -142 l1 -108 -44 0 -44 0 -4 62 c-2 35 0 86 5 113 14 90 14
90 -12 93 -37 6 -45 -10 -33 -65 6 -26 14 -83 17 -126 l7 -78 -37 3 c-37 2
-55 -11 -55 -43 0 -24 9 -28 41 -17 16 5 64 15 106 22 l78 12 1 99 c0 55 4
130 8 166 6 51 4 68 -6 71 -7 3 -60 6 -118 7 -58 1 -119 4 -136 7 -28 5 -32 3
-36 -20z m282 -31 c0 -8 -4 -15 -10 -15 -5 0 -10 7 -10 15 0 8 5 15 10 15 6 0
10 -7 10 -15z m-120 -52 c-1 -24 -2 -26 -11 -10 -5 9 -7 22 -4 27 10 17 15 11
15 -17z m-40 -247 c0 -2 -7 -6 -15 -10 -8 -3 -15 -1 -15 4 0 6 7 10 15 10 8 0
15 -2 15 -4z"/>
<path d="M159 455 c-4 -3 -2 -26 4 -50 6 -25 8 -48 5 -51 -3 -3 -32 -1 -63 5
-32 6 -61 8 -66 5 -5 -3 -9 -19 -9 -36 0 -33 1 -33 108 -12 31 6 32 5 32 -25
l0 -32 -62 2 -62 3 1 -38 c1 -43 7 -53 25 -38 7 6 32 17 56 25 l42 15 0 -74
c0 -73 14 -106 26 -60 3 14 4 50 2 80 l-3 54 35 6 c19 3 50 6 68 6 17 0 32 5
32 10 0 6 -30 10 -70 10 -68 0 -70 1 -70 25 0 31 31 45 101 45 27 0 49 5 49
10 0 6 -28 10 -65 10 -62 0 -65 1 -65 24 0 14 5 28 10 31 14 9 12 45 -2 45 -7
0 -22 3 -33 6 -11 3 -23 3 -26 -1z m38 -57 c-3 -7 -5 -2 -5 12 0 14 2 19 5 13
2 -7 2 -19 0 -25z m-110 -64 c-3 -3 -12 -4 -19 -1 -8 3 -5 6 6 6 11 1 17 -2
13 -5z m13 -104 c0 -5 -7 -10 -15 -10 -8 0 -15 5 -15 10 0 6 7 10 15 10 8 0
15 -4 15 -10z"/>
<path d="M635 439 c-4 -6 -5 -12 -2 -15 7 -7 37 7 37 17 0 13 -27 11 -35 -2z"/>
</g>
</svg>
