<?xml version="1.0" standalone="no"?>
<!DOCTYPE svg PUBLIC "-//W3C//DTD SVG 20010904//EN"
 "http://www.w3.org/TR/2001/REC-SVG-20010904/DTD/svg10.dtd">
<svg version="1.0" xmlns="http://www.w3.org/2000/svg"
 width="86.000000pt" height="55.000000pt" viewBox="0 0 86.000000 55.000000"
 preserveAspectRatio="xMidYMid meet">
<metadata>
Created by potrace 1.16, written by Peter Selinger 2001-2019
</metadata>
<g transform="translate(0.000000,55.000000) scale(0.100000,-0.100000)"
fill="#000000" stroke="none">
<path d="M507 494 c-4 -4 -7 -16 -7 -26 0 -14 -8 -18 -31 -18 l-32 0 9 -42 c4
-24 9 -108 10 -188 2 -174 1 -165 18 -151 8 7 25 14 37 17 28 7 172 22 212 23
l27 1 0 105 c0 58 7 140 16 181 8 42 12 79 9 83 -4 3 -48 6 -98 6 -51 0 -108
4 -127 8 -19 5 -39 5 -43 1z m253 -46 c0 -18 -2 -20 -9 -8 -6 8 -7 18 -5 22 9
14 14 9 14 -14z m-30 -153 l0 -165 -82 -1 c-79 -2 -161 1 -165 5 -9 8 -4 211
7 252 13 52 13 52 64 62 28 5 79 10 114 11 l62 1 0 -165z m-250 120 c0 -8 -4
-15 -10 -15 -5 0 -10 7 -10 15 0 8 5 15 10 15 6 0 10 -7 10 -15z"/>
<path d="M223 473 c-18 -2 -33 -7 -33 -10 0 -3 7 -47 15 -97 9 -53 15 -132 13
-189 l-3 -99 -37 65 c-36 60 -38 69 -38 145 0 45 -4 82 -9 82 -7 0 -91 -78
-91 -85 0 -1 17 -20 38 -41 20 -22 57 -72 80 -111 31 -52 49 -71 63 -70 22 1
21 -5 19 108 l-1 87 53 6 c29 4 77 7 106 8 28 0 52 5 52 11 0 6 -35 7 -100 2
l-100 -7 0 24 c1 13 7 56 14 96 12 68 11 84 -3 80 -3 0 -21 -3 -38 -5z m21
-84 c-5 -46 -9 -58 -15 -44 -12 33 -10 103 4 108 18 7 19 4 11 -64z m-124
-106 l0 -47 -22 21 c-20 20 -20 25 -8 48 20 38 30 30 30 -22z"/>
</g>
</svg>
