<?xml version="1.0" standalone="no"?>
<!DOCTYPE svg PUBLIC "-//W3C//DTD SVG 20010904//EN"
 "http://www.w3.org/TR/2001/REC-SVG-20010904/DTD/svg10.dtd">
<svg version="1.0" xmlns="http://www.w3.org/2000/svg"
 width="112.000000pt" height="63.000000pt" viewBox="0 0 112.000000 63.000000"
 preserveAspectRatio="xMidYMid meet">
<metadata>
Created by potrace 1.16, written by Peter Selinger 2001-2019
</metadata>
<g transform="translate(0.000000,63.000000) scale(0.100000,-0.100000)"
fill="#000000" stroke="none">
<path d="M217 593 c-14 -4 -17 -10 -12 -26 16 -47 17 -104 4 -172 -16 -85 -16
-84 -5 -87 6 -2 15 19 20 46 11 49 12 50 61 63 28 7 60 13 73 13 12 0 22 5 22
10 0 6 -17 10 -39 10 -63 0 -101 11 -101 29 1 14 15 56 35 104 6 13 2 17 -16
16 -13 -1 -32 -3 -42 -6z m33 -22 c0 -9 -20 -37 -20 -29 0 3 -2 13 -5 21 -4 8
0 14 10 14 8 0 15 -3 15 -6z"/>
<path d="M990 561 c0 -5 -6 -16 -13 -23 -7 -7 -38 -48 -68 -92 -29 -43 -64
-86 -77 -94 -15 -10 -22 -22 -19 -34 6 -22 0 -22 -91 1 -75 20 -174 62 -203
88 -15 13 -19 10 -40 -27 -20 -35 -27 -40 -47 -35 -23 6 -24 4 -18 -22 4 -15
10 -76 13 -135 3 -60 7 -108 10 -108 2 0 19 16 39 35 59 59 100 73 179 63 38
-5 80 -15 94 -22 14 -7 58 -23 96 -36 39 -12 80 -29 93 -37 12 -7 26 -11 31
-9 5 3 11 52 15 108 14 212 27 288 57 334 16 23 29 45 29 48 0 3 -18 6 -40 6
-22 0 -40 -4 -40 -9z m40 -20 c0 -6 -4 -13 -10 -16 -5 -3 -10 1 -10 9 0 9 5
16 10 16 6 0 10 -4 10 -9z m-49 -134 c-5 -51 -13 -138 -17 -194 -4 -57 -8
-103 -10 -103 -2 0 -54 18 -116 40 -113 40 -167 65 -179 83 -4 6 -38 -5 -80
-25 -41 -19 -86 -38 -101 -42 -27 -6 -28 -5 -28 30 0 29 24 122 37 143 5 8
336 -65 364 -80 11 -6 20 -6 24 0 3 6 -3 15 -14 21 -20 10 -19 12 11 63 55 94
113 176 117 166 1 -6 -2 -52 -8 -102z m-456 -37 c3 -5 -1 -10 -9 -10 -9 0 -16
5 -16 10 0 6 4 10 9 10 6 0 13 -4 16 -10z m-78 -72 c-3 -8 -6 -5 -6 6 -1 11 2
17 5 13 3 -3 4 -12 1 -19z m210 -94 c-3 -3 -12 -4 -19 -1 -8 3 -5 6 6 6 11 1
17 -2 13 -5z"/>
<path d="M85 468 c-27 -22 -51 -44 -53 -49 -2 -4 12 -15 32 -23 19 -8 45 -26
57 -40 22 -25 49 -35 49 -18 0 12 -64 72 -77 72 -22 0 -23 17 -3 35 20 18 20
18 18 -3 -2 -11 1 -21 6 -22 11 -1 37 78 27 84 -3 2 -28 -15 -56 -36z"/>
</g>
</svg>
