<?xml version="1.0" standalone="no"?>
<!DOCTYPE svg PUBLIC "-//W3C//DTD SVG 20010904//EN"
 "http://www.w3.org/TR/2001/REC-SVG-20010904/DTD/svg10.dtd">
<svg version="1.0" xmlns="http://www.w3.org/2000/svg"
 width="108.000000pt" height="55.000000pt" viewBox="0 0 108.000000 55.000000"
 preserveAspectRatio="xMidYMid meet">
<metadata>
Created by potrace 1.16, written by Peter Selinger 2001-2019
</metadata>
<g transform="translate(0.000000,55.000000) scale(0.100000,-0.100000)"
fill="#000000" stroke="none">
<path d="M586 505 c-25 -20 -27 -25 -16 -45 9 -17 10 -65 5 -186 -6 -138 -10
-164 -23 -164 -13 0 -14 17 -9 128 4 70 9 139 13 155 5 23 3 27 -15 27 -16 0
-20 6 -18 22 1 17 -4 24 -20 26 -13 2 -23 8 -23 13 0 6 -12 9 -27 7 -19 -2
-27 -8 -24 -18 2 -8 6 -43 8 -77 5 -52 3 -63 -10 -63 -18 0 -29 50 -27 124 1
28 1 55 1 60 -1 11 -61 -53 -61 -65 0 -6 9 -19 19 -30 20 -22 32 -84 19 -97
-4 -4 -4 -22 1 -39 13 -43 2 -163 -15 -163 -14 0 -46 -58 -35 -64 4 -3 27 2
52 11 24 8 78 17 119 19 41 3 78 8 82 12 4 4 10 84 13 177 3 94 11 187 17 208
6 20 9 39 7 41 -2 2 -17 -6 -33 -19z m-89 -107 c-4 -24 -9 -98 -13 -165 -4
-68 -10 -123 -15 -123 -5 0 -9 12 -10 28 -1 33 2 146 5 185 2 15 3 47 4 72 2
34 6 45 18 45 13 0 15 -8 11 -42z m25 -138 c5 -129 3 -150 -13 -150 -5 0 -9
26 -9 58 0 63 11 224 16 220 1 -2 4 -59 6 -128z m-80 -57 c-3 -86 -5 -93 -24
-93 -20 0 -20 4 -14 66 6 54 32 136 39 122 1 -1 1 -45 -1 -95z"/>
<path d="M700 508 c-5 -23 -8 -98 -5 -98 3 0 19 9 37 20 27 16 51 20 126 20
l92 0 1 -27 c4 -71 -4 -249 -10 -256 -4 -4 -24 -10 -44 -14 l-37 -6 0 44 c1
50 17 183 26 212 5 17 2 18 -28 12 -47 -10 -47 -10 -32 -62 8 -25 14 -82 14
-125 l0 -79 -57 2 -58 3 -14 -37 c-8 -21 -12 -39 -10 -42 3 -2 27 7 54 20 33
16 77 26 131 30 l81 7 7 91 c3 49 6 113 6 142 0 29 6 59 15 71 32 42 23 45
-116 43 -108 -1 -135 2 -150 15 -18 15 -28 20 -29 14z m160 -138 c0 -5 -2 -10
-4 -10 -3 0 -8 5 -11 10 -3 6 -1 10 4 10 6 0 11 -4 11 -10z"/>
<path d="M157 433 c-12 -3 -16 -10 -12 -21 4 -10 9 -29 12 -44 5 -23 1 -29
-23 -39 -16 -6 -44 -13 -62 -16 -29 -5 -32 -9 -32 -42 0 -20 -5 -42 -12 -49
-14 -14 -4 -18 65 -26 64 -8 67 -10 67 -57 0 -21 5 -39 10 -39 6 0 10 16 10
35 0 40 -1 40 47 20 43 -18 43 -18 43 -2 0 8 -18 20 -40 27 -44 15 -46 22 -34
114 6 44 10 49 65 83 33 20 59 40 59 44 0 15 -14 10 -64 -22 l-48 -30 6 35 c6
33 5 36 -16 35 -13 -1 -31 -3 -41 -6z m33 -40 c0 -20 -3 -24 -11 -16 -7 7 -9
19 -6 27 10 24 17 19 17 -11z m-24 -180 c-7 -7 -38 5 -65 26 l-23 18 43 32 44
32 3 -52 c2 -28 1 -53 -2 -56z m-86 73 c0 -3 -4 -8 -10 -11 -5 -3 -10 -1 -10
4 0 6 5 11 10 11 6 0 10 -2 10 -4z"/>
</g>
</svg>
