<?xml version="1.0" standalone="no"?>
<!DOCTYPE svg PUBLIC "-//W3C//DTD SVG 20010904//EN"
 "http://www.w3.org/TR/2001/REC-SVG-20010904/DTD/svg10.dtd">
<svg version="1.0" xmlns="http://www.w3.org/2000/svg"
 width="110.000000pt" height="84.000000pt" viewBox="0 0 110.000000 84.000000"
 preserveAspectRatio="xMidYMid meet">
<metadata>
Created by potrace 1.16, written by Peter Selinger 2001-2019
</metadata>
<g transform="translate(0.000000,84.000000) scale(0.100000,-0.100000)"
fill="#000000" stroke="none">
<path d="M513 779 c-8 -8 -2 -31 28 -92 21 -44 38 -81 36 -82 -1 -1 -16 -5
-34 -8 -31 -6 -32 -6 -53 60 -12 37 -28 80 -36 95 -14 28 -15 28 -39 11 -13
-10 -25 -22 -25 -28 -1 -9 -87 -69 -138 -95 -17 -8 -22 -18 -19 -32 6 -20 3
-20 -61 -14 -37 3 -77 9 -90 12 -22 6 -23 4 -20 -37 2 -33 7 -43 18 -40 8 3
56 13 107 24 l92 19 26 -29 25 -28 21 28 c18 23 28 27 71 27 35 0 48 4 45 13
-2 7 -16 11 -34 9 -17 -2 -34 1 -37 6 -6 10 30 62 42 62 4 0 16 -17 27 -37 10
-21 27 -50 37 -65 10 -14 18 -33 18 -41 0 -9 4 -18 9 -22 17 -10 20 11 5 39
-19 39 -18 41 16 40 17 0 37 -9 45 -20 13 -17 14 -17 15 -1 0 9 6 17 13 18 6
0 38 3 70 5 34 2 57 0 57 -6 0 -5 -16 -28 -36 -50 -34 -38 -36 -43 -24 -66 22
-41 33 -30 73 73 22 57 23 66 12 105 -7 24 -18 62 -24 86 -13 47 -32 54 -55
20 -19 -27 -20 -33 -3 -50 7 -7 25 -30 41 -50 l28 -38 -28 -1 c-62 -2 -127 1
-133 7 -3 3 -13 45 -21 92 -13 74 -18 87 -35 90 -11 1 -25 -2 -32 -9z m35 -44
c-3 -3 -9 2 -12 12 -6 14 -5 15 5 6 7 -7 10 -15 7 -18z m-100 -20 c7 -14 12
-29 12 -33 -1 -10 -40 38 -40 49 0 18 17 8 28 -16z m286 -11 c11 -28 6 -38 -9
-18 -8 10 -15 22 -15 27 0 13 18 7 24 -9z m-319 -11 c8 -22 -74 -103 -104
-103 -33 0 -25 17 30 71 55 54 64 57 74 32z m-142 -78 c-3 -9 -8 -14 -10 -11
-3 3 -2 9 2 15 9 16 15 13 8 -4z m-156 -51 c-3 -3 -12 -4 -19 -1 -8 3 -5 6 6
6 11 1 17 -2 13 -5z m223 -4 c0 -5 -4 -10 -10 -10 -5 0 -10 5 -10 10 0 6 5 10
10 10 6 0 10 -4 10 -10z m381 -93 c-13 -13 -15 1 -4 30 7 17 8 17 11 -1 2 -10
-1 -23 -7 -29z"/>
<path d="M822 501 c-93 -95 -93 -95 -86 -137 4 -26 2 -44 -5 -48 -22 -14 -10
-44 30 -71 22 -16 51 -41 64 -57 24 -28 45 -37 45 -18 0 5 34 44 76 86 l76 76
-21 41 c-11 23 -32 84 -47 135 -15 50 -30 91 -33 90 -3 0 -48 -44 -99 -97z
m98 46 c0 -1 9 -26 19 -55 11 -28 16 -52 13 -52 -11 0 -62 97 -55 104 6 6 23
8 23 3z m-46 -85 c-29 -3 -35 -7 -34 -25 1 -12 1 -24 0 -27 -1 -3 -3 -18 -5
-33 l-4 -29 60 4 c32 1 59 2 59 0 0 -7 -62 -119 -75 -136 -14 -18 -16 -18 -33
-3 -10 9 -31 44 -47 77 l-29 61 24 46 c13 25 37 64 53 86 l29 40 19 -29 19
-29 -36 -3z m70 -54 c24 -34 20 -38 -36 -37 -51 1 -52 2 -15 9 51 10 58 20 14
20 -58 0 -58 27 0 29 12 1 29 -9 37 -21z m-164 8 c0 -2 -8 -10 -17 -17 -16
-13 -17 -12 -4 4 13 16 21 21 21 13z m210 -79 c0 -7 -9 -18 -20 -25 -18 -11
-19 -10 -8 13 12 26 28 34 28 12z m-210 -69 c0 -4 -9 -3 -19 4 -11 6 -17 18
-13 26 4 12 8 12 19 -4 7 -10 13 -22 13 -26z"/>
<path d="M837 334 c-13 -13 5 -24 39 -24 19 0 34 5 34 10 0 6 -9 10 -19 10
-11 0 -26 2 -33 5 -8 3 -17 3 -21 -1z"/>
<path d="M830 274 c0 -11 8 -14 27 -12 39 4 42 28 4 28 -21 0 -31 -5 -31 -16z"/>
<path d="M433 448 c-6 -7 -14 -35 -18 -63 -4 -27 -23 -96 -42 -153 -20 -57
-33 -106 -29 -109 11 -11 23 10 40 67 17 56 40 103 88 181 39 65 40 83 2 87
-17 2 -36 -3 -41 -10z m37 -28 c0 -17 -31 -72 -37 -67 -8 8 17 77 28 77 5 0 9
-5 9 -10z"/>
<path d="M260 441 c0 -5 -16 -25 -35 -44 l-35 -35 21 -48 c12 -27 25 -53 29
-59 4 -5 17 -36 30 -68 12 -31 26 -57 31 -57 13 0 11 23 -5 61 -8 19 -17 73
-21 120 -8 98 -13 92 78 105 57 8 61 19 10 28 -55 9 -103 7 -103 -3z m-10
-103 l-1 -43 -15 28 c-16 29 -13 57 6 57 5 0 10 -19 10 -42z"/>
<path d="M280 378 c0 -27 25 -68 38 -63 8 3 23 5 33 5 12 0 17 4 13 11 -3 6
-17 9 -30 6 -13 -2 -24 0 -24 4 0 5 16 9 35 9 19 0 35 4 35 9 0 14 -9 18 -57
26 -33 5 -43 4 -43 -7z"/>
<path d="M553 339 c-15 -39 5 -48 53 -25 19 9 53 16 74 16 22 0 40 4 40 10 0
11 -24 17 -101 23 -54 5 -56 4 -66 -24z m62 1 c-3 -5 -13 -10 -21 -10 -8 0
-12 5 -9 10 3 6 13 10 21 10 8 0 12 -4 9 -10z"/>
<path d="M300 290 c0 -5 16 -10 35 -10 19 0 35 5 35 10 0 6 -16 10 -35 10 -19
0 -35 -4 -35 -10z"/>
<path d="M300 250 c0 -5 14 -10 31 -10 17 0 28 4 24 10 -3 6 -17 10 -31 10
-13 0 -24 -4 -24 -10z"/>
<path d="M300 204 c0 -11 5 -14 16 -10 9 3 20 6 25 6 5 0 9 5 9 10 0 6 -11 10
-25 10 -16 0 -25 -6 -25 -16z"/>
</g>
</svg>
