<?xml version="1.0" standalone="no"?>
<!DOCTYPE svg PUBLIC "-//W3C//DTD SVG 20010904//EN"
 "http://www.w3.org/TR/2001/REC-SVG-20010904/DTD/svg10.dtd">
<svg version="1.0" xmlns="http://www.w3.org/2000/svg"
 width="135.000000pt" height="127.000000pt" viewBox="0 0 135.000000 127.000000"
 preserveAspectRatio="xMidYMid meet">
<metadata>
Created by potrace 1.16, written by Peter Selinger 2001-2019
</metadata>
<g transform="translate(0.000000,127.000000) scale(0.100000,-0.100000)"
fill="#000000" stroke="none">
<path d="M1130 1207 c0 -12 -120 -139 -150 -157 -8 -5 -25 -10 -37 -10 -27 0
-30 22 -8 64 19 36 14 44 -25 38 -20 -3 -30 -10 -30 -22 0 -20 -94 -60 -142
-60 -28 0 -30 -2 -26 -32 3 -20 0 -38 -8 -46 -20 -19 -17 -52 4 -58 58 -18 80
-34 75 -52 -2 -11 0 -23 7 -27 7 -4 14 1 17 14 5 19 7 19 33 6 16 -8 36 -25
44 -37 11 -15 16 -18 16 -8 1 11 6 8 20 -8 10 -12 20 -28 22 -34 2 -6 9 -8 16
-4 8 5 4 19 -15 47 -14 22 -23 42 -20 46 4 3 14 -8 24 -26 10 -17 21 -31 26
-31 13 0 8 23 -10 42 -9 10 -14 21 -10 24 3 3 21 -12 41 -33 20 -21 36 -32 36
-24 0 8 -10 25 -22 38 -12 13 -17 23 -11 23 6 0 17 -10 26 -22 8 -13 18 -20
22 -16 4 4 2 14 -5 23 -21 25 39 19 67 -7 25 -23 44 -18 23 7 -11 13 -7 15 26
16 22 0 51 2 67 4 25 3 27 1 27 -36 0 -21 5 -39 10 -39 6 0 10 30 10 70 0 46
7 86 20 121 12 29 17 56 13 60 -10 10 -53 0 -53 -12 0 -5 -25 -9 -57 -9 -54 0
-55 1 -40 18 24 27 23 50 -2 28 -17 -16 -19 -15 -35 8 -20 31 -20 40 -1 56 13
11 21 8 49 -19 39 -38 55 -30 21 11 -14 16 -25 40 -25 54 0 15 -6 24 -15 24
-8 0 -15 -6 -15 -13z m-223 -109 c-3 -8 -6 -5 -6 6 -1 11 2 17 5 13 3 -3 4
-12 1 -19z m213 -50 c0 -14 -12 -8 -31 15 -10 12 -18 29 -19 37 0 15 49 -37
50 -52z m-230 -9 c0 -36 -2 -40 -15 -29 -20 17 -20 -3 1 -38 l16 -27 -20 25
c-31 37 -39 16 -8 -24 14 -19 26 -38 26 -43 0 -4 -9 3 -20 17 -24 32 -38 19
-16 -16 24 -35 14 -40 -19 -11 -26 22 -27 26 -17 57 22 63 11 88 -23 53 -12
-11 -15 -25 -11 -45 l6 -29 -36 28 -36 27 28 23 c28 22 121 72 137 73 4 0 7
-19 7 -41z m155 11 c3 -5 -1 -10 -10 -10 -9 0 -13 5 -10 10 3 6 8 10 10 10 2
0 7 -4 10 -10z m10 -59 c3 -5 1 -13 -5 -16 -14 -8 -40 13 -40 32 0 10 4 11 19
3 11 -5 22 -14 26 -19z m20 19 c3 -5 1 -10 -4 -10 -6 0 -11 5 -11 10 0 6 2 10
4 10 3 0 8 -4 11 -10z m178 -43 c-1 -27 -4 -51 -7 -54 -3 -3 -40 -6 -82 -7
-62 -1 -79 2 -88 16 -5 9 -7 21 -3 25 5 4 12 1 17 -7 14 -23 23 -4 10 20 -9
18 -8 25 6 41 15 17 29 19 83 17 l66 -3 -2 -48z m-286 23 c3 -11 10 -20 16
-20 13 0 67 -50 67 -62 0 -4 -8 -8 -17 -8 -20 0 -106 94 -96 104 12 12 25 6
30 -14z m10 -86 c-7 -7 -66 57 -67 71 0 6 16 -7 36 -28 20 -21 34 -41 31 -43z
m-47 5 c0 -6 -4 -7 -10 -4 -5 3 -10 11 -10 16 0 6 5 7 10 4 6 -3 10 -11 10
-16z"/>
<path d="M185 1110 c-3 -5 -14 -6 -24 -3 -23 6 -38 -14 -22 -30 6 -6 11 -29
11 -50 l0 -39 -50 7 -50 7 0 -29 c0 -40 7 -45 41 -28 54 28 61 22 53 -46 -6
-50 -4 -61 7 -57 8 3 14 16 15 29 1 13 2 39 3 57 0 17 5 32 10 32 6 0 7 -24 4
-55 -4 -38 -2 -55 6 -55 11 0 16 32 12 83 -2 19 2 27 13 27 13 0 16 -12 16
-55 0 -30 5 -55 10 -55 6 0 10 24 10 54 0 30 5 58 10 61 6 4 10 -17 10 -55 0
-78 23 -80 28 -3 l3 51 70 4 69 3 0 -52 c0 -29 5 -53 10 -53 6 0 10 21 10 48
1 26 7 65 15 87 21 58 19 67 -12 63 -25 -3 -28 -6 -25 -39 l3 -35 -71 0 -71 1
7 67 c6 67 1 81 -23 57 -7 -7 -17 -8 -25 -3 -17 11 -67 14 -73 4z m-4 -123
c-13 -13 -15 44 -3 83 6 20 8 16 10 -24 2 -27 -2 -54 -7 -59z m54 6 c-2 -7 -9
-13 -15 -13 -11 0 -14 93 -2 104 8 9 24 -73 17 -91z m45 36 c0 -27 -4 -49 -10
-49 -5 0 -10 25 -10 56 0 34 4 53 10 49 6 -3 10 -28 10 -56z"/>
<path d="M568 1113 c-16 -4 -18 -20 -18 -149 0 -89 4 -144 10 -144 6 0 10 24
10 53 0 66 8 77 59 84 59 8 55 33 -5 33 l-46 0 6 33 c21 102 21 100 -16 90z"/>
<path d="M976 481 c-3 -5 1 -22 9 -37 8 -16 15 -43 15 -60 0 -26 -5 -33 -26
-37 -41 -7 -66 2 -59 24 5 15 1 19 -18 19 -14 0 -27 -6 -30 -13 -3 -7 -36 -28
-73 -47 -38 -19 -71 -35 -73 -37 -2 -1 2 -9 9 -18 11 -13 10 -19 -5 -35 -22
-24 -12 -40 25 -40 48 0 60 -9 60 -45 0 -19 5 -37 10 -40 6 -4 10 8 10 29 0
38 8 43 41 26 13 -8 19 -21 19 -45 0 -19 5 -35 10 -35 6 0 10 17 10 37 l0 38
23 -32 c12 -18 25 -33 30 -33 15 0 6 22 -25 61 -17 21 -29 41 -26 44 6 6 50
-43 67 -73 5 -9 12 -14 16 -10 4 3 -5 23 -19 44 -33 49 -23 59 15 14 18 -22
27 -28 23 -15 -4 11 -11 26 -17 33 -6 8 -6 12 2 12 6 0 18 -11 27 -25 20 -31
30 -26 14 7 -8 16 -2 12 18 -11 17 -20 32 -30 35 -24 4 6 0 16 -8 23 -29 24
-14 30 69 30 l85 0 3 -27 c6 -56 22 -21 24 51 1 41 5 92 9 113 8 46 7 48 -28
49 -25 2 -28 -1 -23 -21 6 -23 5 -23 -99 -24 -96 -1 -105 1 -105 18 0 21 19
31 61 31 16 0 29 5 29 11 0 6 -17 9 -42 8 -43 -3 -43 -3 -43 30 0 27 -4 35
-22 37 -12 2 -24 0 -27 -5z m284 -121 c0 -5 -5 -10 -11 -10 -5 0 -7 5 -4 10 3
6 8 10 11 10 2 0 4 -4 4 -10z m-376 -35 c7 -28 0 -49 -14 -40 -4 2 -22 0 -40
-6 -26 -10 -31 -16 -27 -35 5 -27 3 -28 -24 -14 -22 12 -24 26 -6 43 27 26 92
77 98 77 4 0 10 -11 13 -25z m46 -6 c0 -6 12 -26 26 -45 15 -19 24 -37 22 -40
-6 -5 -68 75 -68 88 0 4 5 8 10 8 6 0 10 -5 10 -11z m44 -14 c9 -14 24 -37 34
-52 27 -43 0 -19 -36 31 -18 25 -29 46 -24 46 5 0 17 -11 26 -25z m46 14 c0 7
35 11 110 11 l109 0 7 -35 c11 -62 6 -65 -103 -65 -106 0 -102 -2 -140 69 -17
31 -16 36 2 21 10 -9 15 -9 15 -1z m-80 -87 c-7 -3 -16 2 -21 9 -16 25 -9 32
12 13 13 -12 16 -20 9 -22z m-52 -30 c4 -14 -27 -16 -47 -3 -8 5 -11 16 -7 26
6 15 9 16 28 3 12 -8 24 -20 26 -26z"/>
<path d="M560 370 c-15 -3 -25 -13 -24 -23 0 -9 1 -60 2 -113 1 -60 6 -93 12
-89 6 3 10 19 10 35 0 36 7 40 75 47 74 8 70 23 -5 23 -58 0 -60 1 -60 25 0
14 6 41 14 60 17 39 12 45 -24 35z"/>
<path d="M145 350 c-15 -17 -16 -24 -5 -50 17 -41 5 -52 -44 -39 -21 6 -40 8
-42 6 -3 -3 -8 -21 -11 -42 l-6 -37 41 21 c66 34 76 30 68 -29 -6 -41 -4 -50
9 -50 11 0 15 12 15 50 0 29 4 50 11 50 7 0 10 -19 7 -52 -1 -29 2 -55 7 -58
6 -3 11 20 13 58 2 36 7 62 14 62 7 0 8 -20 4 -61 -6 -48 -4 -60 6 -57 14 5
14 7 16 76 2 31 6 42 18 42 12 0 15 -9 12 -42 -2 -24 2 -45 7 -48 6 -3 11 15
13 43 l3 47 70 0 69 0 0 -49 c0 -55 8 -84 21 -76 4 3 5 34 2 70 -4 47 -1 74
11 106 20 48 16 57 -20 40 -22 -10 -25 -16 -19 -41 l7 -30 -72 0 -71 0 7 36
c6 32 4 36 -12 32 -14 -2 -21 -15 -25 -43 -4 -29 -7 -35 -13 -23 -4 9 -3 32 2
52 7 25 7 38 -1 43 -6 3 -13 1 -15 -6 -3 -8 -8 -7 -17 5 -11 16 -13 16 -25 -7
-8 -13 -13 -38 -12 -56 2 -17 -3 -35 -9 -39 -9 -5 -11 7 -6 49 6 63 -2 76 -28
47z m82 -87 c-4 -17 -4 -17 -12 0 -4 9 -4 25 0 35 8 16 8 16 12 0 3 -10 3 -26
0 -35z"/>
</g>
</svg>
