<?xml version="1.0" standalone="no"?>
<!DOCTYPE svg PUBLIC "-//W3C//DTD SVG 20010904//EN"
 "http://www.w3.org/TR/2001/REC-SVG-20010904/DTD/svg10.dtd">
<svg version="1.0" xmlns="http://www.w3.org/2000/svg"
 width="100.000000pt" height="48.000000pt" viewBox="0 0 100.000000 48.000000"
 preserveAspectRatio="xMidYMid meet">
<metadata>
Created by potrace 1.16, written by Peter Selinger 2001-2019
</metadata>
<g transform="translate(0.000000,48.000000) scale(0.100000,-0.100000)"
fill="#000000" stroke="none">
<path d="M483 443 c-24 -2 -43 -8 -43 -14 0 -5 7 -9 15 -9 19 0 27 -34 23 -96
l-3 -49 -99 2 c-86 1 -101 4 -122 24 -27 25 -24 55 7 101 11 14 19 29 19 32 0
3 -25 6 -55 6 -61 0 -65 -7 -33 -50 18 -26 21 -41 20 -121 -1 -51 -3 -94 -5
-96 -2 -2 -21 20 -41 49 -29 43 -36 62 -36 101 0 26 -3 47 -6 47 -3 0 -17 -13
-31 -30 -13 -16 -31 -30 -40 -30 -28 0 -9 -35 22 -40 38 -7 135 -130 135 -172
0 -16 5 -28 10 -28 6 0 10 35 10 84 0 49 5 88 10 91 8 5 7 11 -1 21 -7 9 -8
14 -1 14 6 0 12 -5 14 -12 4 -11 26 -13 161 -17 l57 -1 0 -59 c0 -58 -1 -60
-27 -63 -25 -3 -28 -7 -31 -45 -2 -24 -1 -43 2 -43 3 0 25 13 48 30 47 32 87
39 251 39 51 1 87 5 87 11 0 6 -40 10 -100 10 l-100 0 0 44 c0 76 -4 74 138
69 70 -2 133 -6 140 -8 9 -3 12 -20 10 -52 -3 -48 -3 -48 -38 -48 -47 0 -45
-19 3 -23 32 -3 37 -7 37 -28 0 -13 5 -24 10 -24 6 0 10 33 10 78 0 70 12 126
34 160 11 18 1 26 -40 29 -34 2 -34 2 -28 -35 l6 -37 -122 7 c-67 4 -128 12
-136 19 -8 7 -14 31 -14 60 0 38 4 52 20 61 33 21 24 38 -19 38 -48 0 -57 -11
-36 -43 11 -18 14 -42 11 -93 -2 -38 -4 -93 -5 -121 l-1 -53 -46 0 -46 0 7
132 c6 114 9 135 26 150 19 16 26 40 12 36 -5 -1 -27 -3 -50 -5z m-245 -34
c-2 -6 -8 -10 -13 -10 -5 0 -11 4 -13 10 -2 6 4 11 13 11 9 0 15 -5 13 -11z
m372 1 c0 -5 -2 -10 -4 -10 -3 0 -8 5 -11 10 -3 6 -1 10 4 10 6 0 11 -4 11
-10z m-500 -105 c0 -8 -7 -15 -16 -15 -14 0 -14 3 -4 15 7 8 14 15 16 15 2 0
4 -7 4 -15z m801 -32 c-10 -17 -10 -16 -11 3 0 23 13 41 18 25 2 -6 -1 -18 -7
-28z m-441 -177 c0 -2 -7 -6 -15 -10 -8 -3 -15 -1 -15 4 0 6 7 10 15 10 8 0
15 -2 15 -4z"/>
</g>
</svg>
