<?xml version="1.0" standalone="no"?>
<!DOCTYPE svg PUBLIC "-//W3C//DTD SVG 20010904//EN"
 "http://www.w3.org/TR/2001/REC-SVG-20010904/DTD/svg10.dtd">
<svg version="1.0" xmlns="http://www.w3.org/2000/svg"
 width="85.000000pt" height="46.000000pt" viewBox="0 0 85.000000 46.000000"
 preserveAspectRatio="xMidYMid meet">
<metadata>
Created by potrace 1.16, written by Peter Selinger 2001-2019
</metadata>
<g transform="translate(0.000000,46.000000) scale(0.100000,-0.100000)"
fill="#000000" stroke="none">
<path d="M415 385 c-11 -13 -23 -24 -27 -25 -18 -1 -143 -105 -141 -118 1 -12
-10 -13 -60 -8 -34 3 -77 9 -95 12 l-33 6 7 -38 c3 -22 8 -41 10 -43 3 -3 21
4 42 14 32 16 58 17 212 14 96 -2 228 -4 293 -4 64 0 117 -2 117 -6 0 -9 -64
-66 -82 -72 -24 -9 -23 -19 6 -46 l25 -23 25 50 c14 27 37 64 52 81 16 19 23
36 18 39 -6 4 -20 32 -33 62 -31 74 -35 76 -59 38 -19 -29 -20 -34 -7 -44 9
-6 26 -20 40 -30 13 -10 22 -20 20 -23 -2 -3 -61 -5 -133 -3 l-129 3 -12 72
c-22 134 -22 134 -56 92z m25 -47 c0 -19 -2 -20 -10 -8 -13 19 -13 30 0 30 6
0 10 -10 10 -22z m-8 -54 c15 -27 28 -53 28 -57 0 -4 -28 -6 -62 -3 -35 3 -69
5 -76 5 -10 1 -10 5 0 25 22 40 62 86 73 83 6 -2 22 -26 37 -53z m298 -5 c0
-6 -4 -7 -10 -4 -5 3 -10 11 -10 16 0 6 5 7 10 4 6 -3 10 -11 10 -16z m-435
-29 c-3 -5 -11 -10 -16 -10 -6 0 -7 5 -4 10 3 6 11 10 16 10 6 0 7 -4 4 -10z
m-178 -36 c-3 -3 -12 -4 -19 -1 -8 3 -5 6 6 6 11 1 17 -2 13 -5z"/>
</g>
</svg>
