<?xml version="1.0" standalone="no"?>
<!DOCTYPE svg PUBLIC "-//W3C//DTD SVG 20010904//EN"
 "http://www.w3.org/TR/2001/REC-SVG-20010904/DTD/svg10.dtd">
<svg version="1.0" xmlns="http://www.w3.org/2000/svg"
 width="113.000000pt" height="75.000000pt" viewBox="0 0 113.000000 75.000000"
 preserveAspectRatio="xMidYMid meet">
<metadata>
Created by potrace 1.16, written by Peter Selinger 2001-2019
</metadata>
<g transform="translate(0.000000,75.000000) scale(0.100000,-0.100000)"
fill="#000000" stroke="none">
<path d="M834 673 c-17 -21 -45 -60 -64 -88 -18 -27 -53 -73 -77 -102 -48 -57
-51 -68 -26 -78 16 -6 16 -8 -4 -23 l-22 -17 27 -31 c99 -112 142 -156 142
-143 0 8 -9 28 -21 44 -11 17 -34 59 -51 95 l-30 64 16 52 c18 58 113 207 127
199 11 -8 65 -109 104 -198 l32 -74 -55 -64 c-73 -84 -192 -245 -192 -258 0
-24 20 -8 53 42 40 59 114 132 205 201 34 26 62 53 62 59 -1 20 -30 52 -46 52
-18 0 -44 63 -75 180 -22 86 -42 125 -63 125 -7 0 -26 -17 -42 -37z m85 -88
c1 -5 -12 13 -28 40 -16 28 -26 54 -23 60 6 9 50 -78 51 -100z m-223 -162
c-10 -10 -19 5 -10 18 6 11 8 11 12 0 2 -7 1 -15 -2 -18z m15 -80 c23 -46 22
-49 -5 -18 -26 31 -32 45 -18 45 5 0 15 -12 23 -27z m319 13 c0 -7 -19 -26
-42 -41 l-42 -28 33 42 c33 42 51 52 51 27z"/>
<path d="M221 566 c-19 -21 -21 -28 -12 -67 6 -24 11 -55 11 -69 0 -20 -7 -13
-33 33 -34 60 -53 69 -81 38 -16 -17 -14 -20 40 -62 31 -24 52 -45 46 -47 -6
-2 -40 1 -77 6 -58 8 -67 7 -76 -9 -19 -36 -11 -49 24 -42 17 3 40 10 49 14 9
5 34 9 55 9 l38 -1 -55 -49 c-30 -28 -63 -52 -72 -56 -23 -7 -22 -23 1 -53
l19 -24 16 35 c10 20 38 57 63 83 l46 48 -5 -97 c-2 -53 0 -96 4 -96 11 0 18
36 20 115 l3 70 40 -52 c22 -28 43 -52 48 -52 18 -2 4 26 -39 75 -25 30 -42
55 -37 55 4 1 32 2 62 3 36 1 56 6 59 15 4 11 -6 13 -49 8 l-54 -7 44 38 c25
21 40 41 35 45 -6 3 -30 -12 -55 -34 -24 -21 -47 -39 -50 -39 -4 0 0 33 7 73
23 120 14 145 -35 93z m20 -47 l-9 -34 -1 31 c-1 17 2 34 6 37 12 13 14 -1 4
-34z m-82 -46 c13 -28 13 -28 -8 -9 -22 20 -27 36 -13 36 5 0 14 -12 21 -27z
m-56 -228 c-3 -9 -8 -14 -10 -11 -3 3 -2 9 2 15 9 16 15 13 8 -4z"/>
<path d="M777 534 c-17 -17 -3 -24 49 -24 40 0 54 4 52 12 -5 14 -89 24 -101
12z"/>
<path d="M765 470 c-3 -5 0 -13 8 -16 23 -9 122 0 122 11 0 14 -122 19 -130 5z"/>
<path d="M760 405 c0 -13 12 -15 78 -13 43 2 77 7 77 13 0 6 -34 11 -77 13
-66 2 -78 0 -78 -13z"/>
<path d="M440 382 c0 -38 10 -45 47 -31 15 6 52 15 82 20 75 12 89 29 26 29
-28 0 -74 3 -102 6 l-53 7 0 -31z m79 4 c-12 -10 -59 -15 -59 -6 0 5 14 10 32
10 17 0 29 -2 27 -4z"/>
<path d="M762 349 c2 -6 7 -10 11 -10 4 1 30 1 57 1 28 0 50 5 50 10 0 6 -27
10 -61 10 -39 0 -59 -4 -57 -11z"/>
<path d="M773 297 c-11 -18 15 -28 55 -21 23 4 42 10 42 14 0 11 -91 17 -97 7z"/>
</g>
</svg>
