<?xml version="1.0" standalone="no"?>
<!DOCTYPE svg PUBLIC "-//W3C//DTD SVG 20010904//EN"
 "http://www.w3.org/TR/2001/REC-SVG-20010904/DTD/svg10.dtd">
<svg version="1.0" xmlns="http://www.w3.org/2000/svg"
 width="96.000000pt" height="65.000000pt" viewBox="0 0 96.000000 65.000000"
 preserveAspectRatio="xMidYMid meet">
<metadata>
Created by potrace 1.16, written by Peter Selinger 2001-2019
</metadata>
<g transform="translate(0.000000,65.000000) scale(0.100000,-0.100000)"
fill="#000000" stroke="none">
<path d="M486 608 c-12 -45 -8 -49 34 -42 35 6 40 4 34 -10 -4 -10 1 -26 14
-39 40 -44 113 -160 104 -166 -5 -3 -18 -31 -28 -61 -34 -94 -92 -200 -108
-194 -14 5 -63 -52 -53 -63 4 -3 24 2 46 11 28 11 88 17 193 21 83 4 157 9
162 13 6 4 -31 9 -82 12 l-92 5 24 35 c13 19 44 67 69 105 24 39 54 79 66 89
24 22 28 46 7 46 -20 0 -126 182 -126 216 0 3 16 2 35 -2 27 -5 35 -3 35 8 0
12 -21 15 -113 16 -62 1 -133 6 -157 11 -59 14 -57 14 -64 -11z m51 -14 c-3
-3 -12 -4 -19 -1 -8 3 -5 6 6 6 11 1 17 -2 13 -5z m180 -18 c-3 -7 4 -28 16
-47 67 -102 97 -152 97 -164 0 -24 -58 -142 -103 -212 -49 -73 -41 -69 -134
-64 -21 1 -20 4 18 71 21 38 39 72 39 76 0 4 16 29 35 55 35 49 41 65 28 71
-22 9 -108 154 -115 193 -3 20 -4 20 111 33 7 1 11 -4 8 -12z"/>
<path d="M216 582 c-2 -4 0 -27 5 -52 4 -25 9 -139 9 -253 0 -138 4 -207 11
-205 6 2 12 53 15 118 3 63 9 119 14 123 6 7 176 36 213 37 5 0 7 5 5 12 -3 7
-40 12 -111 13 -59 1 -109 4 -112 7 -3 3 -1 18 5 33 6 15 13 61 17 101 l6 74
-36 0 c-20 0 -38 -3 -41 -8z m50 -49 c-3 -21 -6 -53 -6 -72 0 -52 -7 -33 -15
42 -6 59 -5 67 11 67 14 0 16 -6 10 -37z m27 -190 c-7 -2 -19 -2 -25 0 -7 3
-2 5 12 5 14 0 19 -2 13 -5z"/>
<path d="M76 464 c-26 -33 -28 -39 -16 -58 7 -12 33 -60 57 -108 24 -49 48
-88 54 -88 13 0 12 6 -9 48 -11 20 -25 83 -32 140 -7 56 -16 102 -19 102 -3 0
-19 -16 -35 -36z m37 -84 l5 -45 -23 45 c-17 33 -20 48 -12 58 14 18 23 2 30
-58z"/>
</g>
</svg>
