<?xml version="1.0" standalone="no"?>
<!DOCTYPE svg PUBLIC "-//W3C//DTD SVG 20010904//EN"
 "http://www.w3.org/TR/2001/REC-SVG-20010904/DTD/svg10.dtd">
<svg version="1.0" xmlns="http://www.w3.org/2000/svg"
 width="134.000000pt" height="59.000000pt" viewBox="0 0 134.000000 59.000000"
 preserveAspectRatio="xMidYMid meet">
<metadata>
Created by potrace 1.16, written by Peter Selinger 2001-2019
</metadata>
<g transform="translate(0.000000,59.000000) scale(0.100000,-0.100000)"
fill="#000000" stroke="none">
<path d="M40 581 c88 -12 1300 -14 1300 -2 0 8 -192 11 -672 9 -370 0 -653 -4
-628 -7z"/>
<path d="M867 531 c-12 -13 -16 -26 -12 -44 6 -24 4 -25 -41 -29 -48 -3 -157
4 -253 17 -43 6 -51 4 -51 -9 0 -9 -10 -26 -22 -38 -19 -19 -20 -24 -9 -52 7
-17 15 -77 18 -133 3 -57 10 -103 14 -103 5 0 10 48 10 108 2 145 7 164 44
173 17 4 90 9 163 11 l132 5 0 -109 c0 -60 -4 -108 -9 -108 -6 0 -28 35 -49
79 l-40 79 -31 -44 c-17 -25 -39 -48 -49 -51 -9 -4 -37 -19 -61 -35 -25 -15
-53 -28 -62 -28 -10 0 -20 -4 -23 -9 -5 -8 12 -71 19 -71 2 0 34 31 72 69 71
71 99 87 134 76 25 -8 98 -119 94 -143 -2 -9 -4 -25 -4 -35 -1 -14 -8 -18 -28
-15 -22 2 -28 -2 -34 -27 -5 -16 -5 -33 -1 -37 5 -5 33 -3 63 3 30 7 113 15
184 18 81 4 128 10 125 16 -3 6 -28 9 -57 7 -28 -2 -54 2 -57 7 -4 6 -4 33 0
61 l7 50 103 0 104 0 0 48 c1 26 7 83 15 127 8 44 15 83 15 88 0 4 -49 7 -110
7 l-110 0 0 40 c0 22 -4 40 -10 40 -15 0 -32 -39 -25 -60 5 -15 2 -20 -11 -20
-14 0 -16 7 -11 45 4 25 3 45 -3 45 -17 0 -39 -44 -34 -67 5 -17 2 -23 -11
-23 -15 0 -17 7 -12 45 4 25 3 45 -3 45 -14 0 -40 -42 -40 -67 0 -13 -5 -23
-11 -23 -10 0 -10 17 3 69 5 21 -15 22 -35 2z m-294 -88 c-7 -2 -21 -2 -30 0
-10 3 -4 5 12 5 17 0 24 -2 18 -5z m347 -75 c0 -97 -9 -148 -26 -148 -11 0
-14 23 -14 103 0 105 3 117 27 117 10 0 13 -19 13 -72z m55 -30 c-7 -110 -9
-118 -29 -118 -9 0 -11 25 -8 98 4 113 6 122 28 122 15 0 16 -11 9 -102z m66
80 c2 -41 -2 -132 -7 -170 -5 -30 -10 -38 -26 -38 -20 0 -21 4 -14 77 3 42 6
93 6 115 0 31 3 38 20 38 14 0 20 -7 21 -22z m189 2 c6 -11 10 -60 8 -113 l-3
-92 -92 -3 -91 -3 4 63 c3 35 7 87 10 116 l5 52 74 0 c64 0 76 -3 85 -20z
m-723 -42 c-3 -7 -5 -2 -5 12 0 14 2 19 5 13 2 -7 2 -19 0 -25z m263 -58 c0
-5 -4 -10 -10 -10 -5 0 -10 5 -10 10 0 6 5 10 10 10 6 0 10 -4 10 -10z m-190
-124 c0 -3 -4 -8 -10 -11 -5 -3 -10 -1 -10 4 0 6 5 11 10 11 6 0 10 -2 10 -4z
m450 -20 c0 -7 -3 -34 -6 -60 -5 -36 -11 -46 -25 -46 -16 0 -19 8 -19 54 0 34
5 56 13 59 23 10 37 7 37 -7z m-70 -30 c0 -45 -9 -66 -27 -66 -12 0 -14 7 -9
31 3 17 6 40 6 50 0 11 7 19 15 19 10 0 15 -10 15 -34z m-55 -18 c-9 -51 -12
-55 -26 -41 -16 16 -2 83 17 83 13 0 14 -8 9 -42z m-45 -69 c0 -4 -11 -9 -25
-11 -17 -4 -25 -1 -25 8 0 9 10 13 25 12 14 -1 25 -5 25 -9z"/>
<path d="M150 515 c0 -7 5 -37 11 -65 14 -63 8 -70 -62 -78 -53 -7 -54 -8 -60
-45 -3 -21 -3 -40 1 -42 4 -2 22 7 41 21 19 14 46 32 62 40 l27 15 0 -40 0
-40 -28 16 c-27 16 -30 15 -60 -7 -18 -13 -32 -27 -32 -32 0 -4 20 -8 44 -8
69 0 76 -6 76 -60 0 -27 5 -52 10 -55 6 -4 10 15 10 50 0 64 -8 61 97 28 29
-9 56 -14 60 -9 11 10 -13 23 -89 46 l-68 21 0 50 0 50 70 32 c38 18 69 38 70
45 0 8 -3 12 -7 10 -70 -34 -127 -57 -130 -54 -3 2 0 21 6 43 19 67 15 83 -19
83 -20 0 -30 -5 -30 -15z m40 -30 c0 -8 -4 -15 -10 -15 -5 0 -10 7 -10 15 0 8
5 15 10 15 6 0 10 -7 10 -15z"/>
<path d="M98 3 c56 -2 148 -2 205 0 56 1 10 3 -103 3 -113 0 -159 -2 -102 -3z"/>
<path d="M443 3 c20 -2 54 -2 75 0 20 2 3 4 -38 4 -41 0 -58 -2 -37 -4z"/>
<path d="M568 3 c6 -2 18 -2 25 0 6 3 1 5 -13 5 -14 0 -19 -2 -12 -5z"/>
</g>
</svg>
