<?xml version="1.0" standalone="no"?>
<!DOCTYPE svg PUBLIC "-//W3C//DTD SVG 20010904//EN"
 "http://www.w3.org/TR/2001/REC-SVG-20010904/DTD/svg10.dtd">
<svg version="1.0" xmlns="http://www.w3.org/2000/svg"
 width="135.000000pt" height="42.000000pt" viewBox="0 0 135.000000 42.000000"
 preserveAspectRatio="xMidYMid meet">
<metadata>
Created by potrace 1.16, written by Peter Selinger 2001-2019
</metadata>
<g transform="translate(0.000000,42.000000) scale(0.100000,-0.100000)"
fill="#000000" stroke="none">
<path d="M183 318 c-27 -16 -31 -23 -23 -38 15 -27 12 -70 -4 -70 -7 0 -32 7
-55 15 -36 12 -43 12 -47 0 -9 -23 1 -60 15 -57 7 1 33 5 58 9 l44 6 -7 -63
c-9 -82 13 -79 39 6 l17 59 -4 -52 c-4 -42 -2 -53 9 -53 11 0 15 14 16 53 1
28 4 40 6 25 5 -35 23 -37 23 -3 0 22 4 25 38 25 20 0 47 3 60 6 21 6 22 4 22
-65 0 -105 16 -86 23 26 3 54 11 113 17 131 15 41 9 48 -29 31 -31 -14 -40
-32 -21 -44 6 -3 10 -20 10 -37 0 -29 -2 -30 -31 -24 -17 3 -44 6 -60 6 -26 0
-29 3 -29 32 0 36 -16 28 -23 -12 l-4 -25 -2 26 c-1 18 -8 28 -22 32 -19 5
-20 7 -5 36 20 38 10 44 -31 19z"/>
<path d="M992 315 c-12 -25 -13 -26 -94 -20 -45 3 -85 8 -90 11 -5 3 -22 2
-39 -1 -24 -5 -29 -11 -23 -23 4 -10 10 -46 13 -82 l6 -65 41 -3 c40 -3 42 -5
40 -34 0 -17 5 -33 12 -35 8 -3 12 7 12 34 0 39 0 39 42 40 31 2 47 -3 61 -17
20 -22 37 -26 37 -9 0 17 31 79 40 79 5 0 20 -20 34 -45 15 -25 31 -45 36 -45
6 0 10 -7 10 -15 0 -22 11 -18 38 12 13 16 21 23 18 16 -4 -6 -2 -14 4 -18 5
-3 10 3 10 14 0 11 11 33 25 49 14 17 25 33 25 36 0 3 -20 32 -45 65 -25 32
-45 64 -45 70 0 22 -18 10 -51 -34 -19 -24 -39 -45 -45 -45 -7 0 -18 20 -25
45 -15 51 -30 57 -47 20z m166 -41 c34 -23 26 -34 -19 -29 l-40 5 6 -47 6 -48
-20 24 c-27 30 -26 41 5 79 31 37 32 37 62 16z m-130 -17 c19 -15 14 -43 -12
-74 -23 -27 -30 -29 -81 -27 -31 1 -59 4 -61 7 -3 3 2 19 11 37 l16 31 -28 -3
c-26 -3 -28 -6 -25 -42 3 -32 1 -38 -13 -32 -9 3 -25 6 -36 6 -16 0 -19 7 -19
44 0 25 6 48 13 53 14 9 161 20 197 14 14 -2 31 -8 38 -14z m112 -82 c0 -30
-4 -55 -10 -55 -11 0 -14 69 -4 94 11 27 14 18 14 -39z m72 37 c-7 -2 -12 -12
-12 -22 0 -10 -4 -21 -9 -24 -5 -4 -7 4 -4 16 9 43 13 49 25 42 9 -6 9 -9 0
-12z m-42 -34 c0 -28 -3 -39 -10 -32 -9 9 -3 74 6 74 2 0 4 -19 4 -42z"/>
<path d="M512 307 c-18 -8 -22 -15 -16 -31 4 -12 10 -70 13 -131 4 -71 9 -105
15 -96 5 8 8 36 7 62 -2 55 5 59 94 63 100 4 82 24 -25 28 -62 3 -65 4 -64 28
0 14 4 40 8 58 8 34 4 37 -32 19z"/>
</g>
</svg>
