<?xml version="1.0" standalone="no"?>
<!DOCTYPE svg PUBLIC "-//W3C//DTD SVG 20010904//EN"
 "http://www.w3.org/TR/2001/REC-SVG-20010904/DTD/svg10.dtd">
<svg version="1.0" xmlns="http://www.w3.org/2000/svg"
 width="73.000000pt" height="56.000000pt" viewBox="0 0 73.000000 56.000000"
 preserveAspectRatio="xMidYMid meet">
<metadata>
Created by potrace 1.16, written by Peter Selinger 2001-2019
</metadata>
<g transform="translate(0.000000,56.000000) scale(0.100000,-0.100000)"
fill="#000000" stroke="none">
<path d="M507 496 c-3 -8 -19 -17 -36 -21 -31 -7 -31 -7 -25 -58 l6 -52 -106
-3 -106 -4 0 32 c0 17 7 45 16 62 20 39 8 53 -40 44 -42 -8 -42 -10 -16 -43
17 -22 20 -41 20 -132 l0 -106 -25 42 c-14 23 -33 72 -42 110 -10 37 -19 70
-20 72 -6 8 -83 -73 -83 -86 0 -7 21 -24 48 -37 34 -18 55 -38 77 -75 19 -32
35 -49 44 -46 11 4 12 -3 7 -35 -5 -33 -3 -40 10 -40 15 0 16 11 11 95 l-5 95
37 10 c20 6 66 13 104 17 l67 6 0 -70 c0 -66 -2 -71 -35 -103 -32 -31 -46 -60
-27 -60 4 0 29 23 55 50 27 27 83 68 125 90 43 23 81 45 86 50 5 5 -6 26 -26
49 -19 22 -50 67 -68 100 -37 63 -44 70 -53 47z m23 -59 c22 -17 50 -64 50
-82 0 -8 -8 -23 -17 -33 -10 -10 -24 -27 -31 -38 -11 -16 -12 -9 -8 49 5 60 3
67 -13 67 -16 0 -18 -8 -14 -78 3 -62 1 -81 -11 -92 -14 -11 -16 -3 -16 69 0
77 18 151 37 151 4 0 15 -6 23 -13z m-400 -76 c9 -34 6 -36 -27 -18 -22 12
-22 14 -7 35 19 27 22 26 34 -17z m488 -42 c1 -9 -14 -24 -37 -36 l-40 -22 26
40 c26 39 45 46 51 18z"/>
<path d="M577 234 c-8 -8 1 -24 14 -24 5 0 9 7 9 15 0 15 -12 20 -23 9z"/>
</g>
</svg>
