<?xml version="1.0" standalone="no"?>
<!DOCTYPE svg PUBLIC "-//W3C//DTD SVG 20010904//EN"
 "http://www.w3.org/TR/2001/REC-SVG-20010904/DTD/svg10.dtd">
<svg version="1.0" xmlns="http://www.w3.org/2000/svg"
 width="124.000000pt" height="67.000000pt" viewBox="0 0 124.000000 67.000000"
 preserveAspectRatio="xMidYMid meet">
<metadata>
Created by potrace 1.16, written by Peter Selinger 2001-2019
</metadata>
<g transform="translate(0.000000,67.000000) scale(0.100000,-0.100000)"
fill="#000000" stroke="none">
<path d="M409 643 c0 -5 -2 -26 -4 -48 -5 -77 -27 -185 -37 -185 -11 0 -34 14
-179 107 l-81 53 -20 -25 c-12 -15 -30 -25 -45 -25 -22 0 -24 -3 -19 -25 8
-30 25 -218 23 -255 -2 -56 4 -100 13 -100 6 0 10 11 10 23 0 22 27 57 43 57
4 0 7 -16 7 -35 0 -19 5 -35 10 -35 6 0 10 20 10 43 0 48 8 58 75 97 96 55
125 70 134 70 14 0 14 -32 1 -79 -5 -20 -12 -57 -15 -83 -6 -43 -9 -48 -31
-48 -16 0 -24 -6 -24 -17 0 -10 -3 -28 -6 -40 -6 -23 -6 -23 28 -8 19 8 66 21
104 30 38 9 78 21 89 25 11 5 36 11 55 14 83 13 399 82 406 89 4 4 -1 7 -12 7
-15 0 -259 -45 -335 -62 -15 -3 -28 52 -28 123 l-1 47 33 -8 c17 -5 41 -11 52
-14 11 -3 77 -19 148 -36 70 -17 143 -38 162 -47 19 -9 38 -13 42 -10 9 10 -8
26 -32 30 -11 2 -27 7 -35 10 -8 3 -87 25 -175 47 -230 59 -206 37 -205 188 2
138 4 134 -55 112 l-22 -8 29 -88 c16 -49 28 -100 26 -114 l-3 -26 -63 19
c-35 11 -66 25 -69 33 -3 7 11 46 31 86 37 76 43 97 26 99 -5 1 -14 2 -19 3
-5 0 -13 4 -17 9 -4 4 -11 7 -16 7 -4 0 -8 -3 -9 -7z m51 -30 c-1 -5 -9 -24
-20 -43 l-19 -35 -1 43 c0 35 3 42 20 42 11 0 20 -3 20 -7z m89 -40 l0 -48
-15 39 c-14 38 -12 56 7 56 5 0 9 -21 8 -47z m-375 -69 c25 -14 46 -27 46 -29
0 -2 -27 6 -60 18 -33 12 -60 25 -60 30 0 14 28 7 74 -19z m-115 -21 c0 -25
-1 -25 -8 -8 -5 11 -7 23 -4 28 8 14 13 7 12 -20z m133 -24 c108 -39 158 -61
158 -69 0 -8 -193 -100 -198 -96 -1 2 2 25 9 50 6 26 9 49 7 52 -3 3 -17 -1
-31 -7 -24 -11 -26 -17 -24 -63 2 -48 1 -51 -24 -54 l-26 -3 3 92 c4 104 10
129 29 129 7 0 51 -14 97 -31z m263 -59 c18 -8 17 -9 -7 -9 -16 -1 -28 4 -28
9 0 12 8 12 35 0z m53 -36 c24 -3 45 -11 47 -17 2 -7 6 -46 9 -88 l7 -76 -48
-7 c-96 -13 -119 -16 -147 -21 l-28 -5 7 48 c3 26 13 77 21 113 l15 67 37 -4
c20 -3 56 -7 80 -10z m-364 -19 c-4 -8 -8 -15 -10 -15 -2 0 -4 7 -4 15 0 8 4
15 10 15 5 0 7 -7 4 -15z m-43 -105 c-13 -11 -28 -20 -35 -20 -6 1 0 10 13 20
13 11 28 20 35 20 6 -1 0 -10 -13 -20z m244 -120 c-28 -12 -47 -12 -40 0 3 6
18 10 33 9 24 0 25 -1 7 -9z"/>
<path d="M1059 305 l-37 -24 29 -93 c16 -50 29 -100 29 -109 0 -10 4 -20 9
-24 6 -3 10 23 10 62 1 38 5 97 10 133 12 90 9 94 -50 55z m30 -37 c0 -13 -3
-41 -7 -63 l-7 -39 -14 53 c-11 45 -11 55 0 62 22 14 29 11 28 -13z"/>
<path d="M250 140 c0 -5 5 -10 10 -10 6 0 10 5 10 10 0 6 -4 10 -10 10 -5 0
-10 -4 -10 -10z"/>
</g>
</svg>
