<?xml version="1.0" standalone="no"?>
<!DOCTYPE svg PUBLIC "-//W3C//DTD SVG 20010904//EN"
 "http://www.w3.org/TR/2001/REC-SVG-20010904/DTD/svg10.dtd">
<svg version="1.0" xmlns="http://www.w3.org/2000/svg"
 width="129.000000pt" height="50.000000pt" viewBox="0 0 129.000000 50.000000"
 preserveAspectRatio="xMidYMid meet">
<metadata>
Created by potrace 1.16, written by Peter Selinger 2001-2019
</metadata>
<g transform="translate(0.000000,50.000000) scale(0.100000,-0.100000)"
fill="#000000" stroke="none">
<path d="M1149 397 c-11 -25 -11 -30 3 -38 30 -17 47 -39 42 -54 -10 -25 -19
-17 -45 35 -26 54 -49 65 -49 25 0 -14 6 -25 13 -25 15 0 47 -51 47 -76 0 -15
3 -14 25 6 14 13 25 19 25 14 0 -12 -73 -84 -85 -84 -5 0 -4 5 3 12 21 21 13
29 -13 12 -32 -21 -32 -10 0 21 l26 23 -26 28 c-14 15 -28 38 -31 51 -7 27
-20 30 -26 5 -3 -10 7 -32 24 -52 l29 -35 -31 -27 c-16 -15 -30 -37 -30 -48 0
-25 9 -26 26 -2 13 16 13 16 14 -2 0 -12 5 -16 15 -12 9 3 18 -1 21 -9 8 -21
22 -19 29 5 3 11 24 43 46 71 37 45 39 52 26 67 -8 9 -26 40 -40 67 l-25 50
-13 -28z"/>
<path d="M639 378 c-9 -22 -8 -29 15 -51 32 -32 33 -48 5 -73 l-22 -19 7 38
c4 23 3 37 -4 37 -9 0 -14 -24 -13 -72 0 -10 -5 -18 -10 -18 -5 0 -7 21 -5 48
2 37 0 47 -12 47 -12 0 -14 -10 -12 -42 4 -52 -2 -55 -18 -8 -10 30 -9 39 9
64 23 32 28 65 9 59 -6 -2 -22 -32 -35 -66 l-23 -63 35 -34 c41 -41 57 -44 79
-10 9 14 28 28 42 31 18 5 24 11 20 23 -18 56 -44 122 -49 127 -4 4 -11 -5
-18 -18z"/>
<path d="M790 365 c0 -10 -10 -15 -28 -15 l-27 0 0 -85 c0 -88 8 -110 19 -51
6 33 7 34 58 33 45 -1 53 -4 67 -29 9 -15 19 -28 24 -28 11 0 8 28 -4 35 -5 4
-9 11 -7 17 2 6 -9 24 -24 40 -15 16 -33 45 -40 64 -12 34 -38 47 -38 19z m44
-69 c22 -34 21 -37 -11 -32 -16 2 -36 5 -45 5 -20 1 -23 23 -8 52 13 23 38 13
64 -25z"/>
<path d="M1010 344 c0 -9 9 -27 20 -41 11 -14 20 -32 20 -39 0 -8 7 -14 15
-14 20 0 18 20 -5 50 -11 14 -20 33 -20 43 0 9 -7 17 -15 17 -8 0 -15 -7 -15
-16z"/>
<path d="M970 331 c-10 -19 -9 -26 6 -42 16 -18 16 -19 -12 -19 -16 0 -36 -5
-44 -10 -11 -7 -3 -10 30 -10 l45 -1 -22 -18 c-13 -11 -23 -26 -23 -35 0 -22
7 -20 34 11 l23 27 -5 -32 c-7 -54 14 -39 47 32 2 5 -4 6 -14 2 -13 -5 -16 -2
-11 11 4 9 2 19 -4 23 -6 4 -17 24 -24 45 -13 37 -14 38 -26 16z"/>
<path d="M110 300 c0 -5 -14 -25 -31 -44 l-30 -35 45 -44 c48 -45 64 -50 44
-13 -7 11 -11 49 -10 84 2 37 -1 62 -8 62 -5 0 -10 -4 -10 -10z m0 -70 c0 -32
-14 -40 -24 -14 -5 14 8 44 20 44 2 0 4 -13 4 -30z"/>
<path d="M170 291 c0 -5 -2 -15 -5 -23 -4 -11 16 -13 106 -10 73 3 119 0 133
-7 17 -9 28 -9 51 1 l30 12 -45 3 c-65 4 -232 23 -252 29 -10 3 -18 1 -18 -5z"/>
<path d="M300 234 c-36 -7 -80 -14 -97 -15 -23 -2 -33 -7 -33 -19 0 -26 10
-30 39 -16 14 8 61 22 103 32 43 11 78 22 78 27 0 9 -9 8 -90 -9z"/>
</g>
</svg>
