<?xml version="1.0" standalone="no"?>
<!DOCTYPE svg PUBLIC "-//W3C//DTD SVG 20010904//EN"
 "http://www.w3.org/TR/2001/REC-SVG-20010904/DTD/svg10.dtd">
<svg version="1.0" xmlns="http://www.w3.org/2000/svg"
 width="139.000000pt" height="189.000000pt" viewBox="0 0 139.000000 189.000000"
 preserveAspectRatio="xMidYMid meet">
<metadata>
Created by potrace 1.16, written by Peter Selinger 2001-2019
</metadata>
<g transform="translate(0.000000,189.000000) scale(0.100000,-0.100000)"
fill="#000000" stroke="none">
<path d="M141 1831 c-16 -30 -14 -39 19 -71 48 -47 37 -59 -40 -44 -33 7 -35
13 -18 84 2 11 -4 14 -27 12 -39 -4 -39 -5 -27 -44 6 -18 13 -72 17 -120 4
-51 11 -88 17 -88 7 0 8 19 4 55 -7 63 -8 61 71 68 l52 4 29 -46 c16 -25 53
-85 82 -133 29 -49 59 -88 66 -88 11 0 14 22 14 99 0 54 5 112 11 130 l11 31
129 0 129 0 6 -27 c3 -16 7 -32 9 -38 4 -13 8 70 6 116 -1 20 4 52 13 72 14
34 13 36 -5 42 -32 10 -37 -2 -31 -76 l5 -72 -231 5 c-127 2 -234 7 -238 11
-4 3 -14 34 -24 69 -18 67 -32 81 -49 49z m24 -31 c3 -5 1 -10 -4 -10 -6 0
-11 5 -11 10 0 6 2 10 4 10 3 0 8 -4 11 -10z m158 -116 c45 -6 46 -8 52 -48 4
-22 5 -72 3 -111 l-3 -70 -45 73 c-73 117 -90 147 -90 155 0 9 23 9 83 1z"/>
<path d="M1089 1823 c-17 -4 -17 -20 -2 -180 6 -67 23 -77 23 -13 0 21 5 51
11 67 8 22 7 30 -4 37 -11 7 -12 17 -5 44 10 37 3 51 -23 45z"/>
<path d="M1163 1818 c-9 -14 -7 -83 6 -168 9 -62 11 -62 17 -1 3 25 9 53 15
62 6 12 4 19 -6 22 -11 5 -12 13 -4 39 5 18 9 39 9 45 0 17 -25 17 -37 1z"/>
<path d="M1292 1590 c0 -46 12 -52 25 -12 12 32 7 52 -12 52 -9 0 -14 -13 -13
-40z"/>
<path d="M160 1265 l-22 -24 42 -75 41 -76 -35 0 c-51 0 -86 16 -82 37 2 10 7
42 11 71 7 51 6 52 -18 52 -36 0 -38 -9 -22 -71 8 -30 15 -71 15 -93 l0 -39
38 7 c20 3 53 9 72 12 l36 6 73 -151 c40 -83 77 -149 82 -146 5 4 9 54 9 112
0 58 5 123 12 144 l11 39 121 1 c67 0 160 3 209 5 l87 5 0 -76 c0 -48 4 -74
10 -70 6 3 10 35 10 70 0 40 8 85 21 119 11 31 18 60 15 64 -3 5 -19 7 -35 4
-29 -4 -31 -6 -28 -51 l2 -46 -40 -1 c-86 -2 -443 -6 -496 -5 -54 1 -57 2 -73
35 -9 19 -19 62 -23 95 -3 34 -9 64 -13 66 -4 2 -17 -6 -30 -20z m29 -65 c1
-13 0 -13 -9 0 -5 8 -9 24 -9 35 l0 20 9 -20 c5 -11 9 -27 9 -35z m678 -52
c-3 -8 -6 -5 -6 6 -1 11 2 17 5 13 3 -3 4 -12 1 -19z m-492 -140 c4 -35 5 -90
3 -123 l-3 -59 -57 118 c-32 64 -58 119 -58 122 0 2 24 4 54 4 l54 0 7 -62z
m25 46 c0 -8 -5 -12 -10 -9 -6 4 -8 11 -5 16 9 14 15 11 15 -7z"/>
<path d="M967 1033 c-7 -12 4 -73 13 -73 11 0 23 57 15 70 -7 12 -22 13 -28 3z"/>
<path d="M542 1019 c-19 -7 -22 -13 -16 -31 8 -24 12 -60 21 -170 2 -38 8 -68
13 -68 10 0 19 164 9 168 -12 5 -11 45 1 76 11 30 3 37 -28 25z"/>
<path d="M446 988 c5 -18 9 -51 10 -73 0 -22 1 -70 2 -107 2 -76 22 -95 22
-22 0 26 5 64 12 86 10 33 9 41 -2 48 -12 7 -12 17 -4 49 13 46 10 51 -23 51
-23 0 -24 -3 -17 -32z"/>
<path d="M190 613 l-21 -26 24 -26 c25 -27 97 -137 97 -148 0 -7 -148 2 -157
10 -3 4 -1 39 6 78 6 40 9 74 6 77 -3 3 -18 -6 -32 -21 -24 -23 -25 -29 -15
-52 7 -14 12 -47 13 -73 1 -98 20 -146 31 -77 3 17 15 21 76 29 86 10 90 8
142 -89 18 -33 39 -69 46 -80 8 -11 14 -39 14 -63 0 -25 4 -41 10 -37 5 3 9
41 9 83 0 42 2 84 5 92 3 8 10 34 16 58 l11 43 52 -3 52 -3 3 -43 c2 -28 -3
-53 -13 -69 -14 -21 -15 -30 -6 -50 6 -14 14 -52 18 -84 7 -66 23 -70 23 -6 0
24 7 69 15 100 20 76 20 93 0 77 -13 -11 -15 -6 -15 33 0 25 9 74 20 108 10
35 16 67 12 71 -4 4 -22 -7 -41 -23 -28 -26 -32 -36 -27 -60 l6 -29 -73 0
c-39 0 -94 -1 -122 -2 -49 -2 -50 -1 -82 48 -31 46 -63 132 -63 168 0 24 -16
19 -40 -11z m30 -29 c0 -8 -4 -12 -10 -9 -5 3 -10 10 -10 16 0 5 5 9 10 9 6 0
10 -7 10 -16z m-90 -58 c0 -3 -4 -8 -10 -11 -5 -3 -10 -1 -10 4 0 6 5 11 10
11 6 0 10 -2 10 -4z m470 -72 c0 -8 -5 -12 -10 -9 -6 4 -8 11 -5 16 9 14 15
11 15 -7z m-182 -134 c2 -39 -1 -70 -5 -70 -9 0 -73 113 -73 129 0 6 17 11 38
11 l37 0 3 -70z m173 -81 c-9 -22 -10 -22 -10 -3 -1 11 2 24 6 27 12 12 14 0
4 -24z"/>
<path d="M803 373 c-18 -6 -16 -43 1 -43 16 0 30 30 19 40 -4 4 -14 5 -20 3z"/>
<path d="M575 10 l-560 -5 688 -3 c465 -1 687 1 687 8 0 7 -45 10 -127 8 -71
-2 -380 -5 -688 -8z"/>
</g>
</svg>
