<?xml version="1.0" standalone="no"?>
<!DOCTYPE svg PUBLIC "-//W3C//DTD SVG 20010904//EN"
 "http://www.w3.org/TR/2001/REC-SVG-20010904/DTD/svg10.dtd">
<svg version="1.0" xmlns="http://www.w3.org/2000/svg"
 width="140.000000pt" height="52.000000pt" viewBox="0 0 140.000000 52.000000"
 preserveAspectRatio="xMidYMid meet">
<metadata>
Created by potrace 1.16, written by Peter Selinger 2001-2019
</metadata>
<g transform="translate(0.000000,52.000000) scale(0.100000,-0.100000)"
fill="#000000" stroke="none">
<path d="M1231 466 c-11 -13 -11 -19 0 -33 13 -16 12 -17 -3 -5 -27 21 -29 -3
-3 -38 14 -19 23 -35 22 -37 -2 -1 -25 -4 -51 -5 -47 -1 -65 -15 -51 -38 4 -7
11 -8 18 -1 7 5 29 12 50 16 42 8 67 -6 67 -38 0 -18 -4 -19 -54 -13 -30 3
-61 9 -70 12 -12 5 -16 0 -16 -21 0 -23 3 -26 23 -22 58 14 97 18 97 11 0 -9
-76 -84 -85 -84 -3 0 -25 28 -50 61 -50 68 -51 85 -9 130 13 14 24 32 24 41 0
9 5 20 12 24 8 5 9 2 5 -9 -7 -18 8 -24 18 -7 7 11 -11 50 -23 50 -4 0 -16
-20 -26 -43 -11 -23 -29 -51 -41 -62 -18 -19 -55 -70 -55 -77 0 -2 15 -11 33
-21 17 -10 47 -38 66 -63 l34 -45 -22 -23 c-11 -12 -18 -25 -15 -29 3 -3 39
27 78 68 40 41 84 79 99 84 30 12 35 28 12 38 -23 8 -45 57 -59 130 -10 57
-13 63 -25 49z"/>
<path d="M911 435 c-14 -15 -21 -31 -17 -41 6 -15 -10 -16 -166 -12 -95 3
-181 9 -190 13 -15 6 -18 2 -18 -20 0 -25 -2 -27 -31 -21 -34 7 -33 12 -13
-66 5 -23 5 -23 -90 -20 -89 3 -96 2 -96 -16 0 -26 10 -33 30 -22 10 5 50 13
89 16 l71 7 0 -57 c0 -36 4 -55 10 -51 6 3 10 40 10 81 0 67 3 77 25 98 31 29
69 35 243 38 109 2 135 0 142 -12 4 -8 11 -57 15 -109 7 -102 8 -101 -48 -52
-15 13 -32 42 -39 63 -13 45 -20 47 -42 13 -19 -30 -20 -35 -3 -35 8 0 24 -11
36 -24 l22 -24 -125 2 c-69 1 -128 4 -130 7 -5 5 8 102 19 137 6 18 4 21 -8
16 -9 -3 -18 -13 -20 -22 -4 -15 -5 -15 -6 1 0 9 -6 17 -12 17 -7 0 -9 -8 -4
-22 4 -13 10 -47 12 -75 l5 -53 -36 0 c-33 0 -36 -2 -36 -29 0 -29 1 -29 27
-16 34 18 46 10 39 -23 -3 -15 -2 -34 4 -42 11 -16 12 -12 14 40 l1 35 119 7
c65 4 126 10 134 13 10 4 31 -10 59 -37 23 -23 44 -40 47 -37 2 2 0 31 -6 64
-5 33 -8 113 -6 178 2 64 2 117 -1 117 -4 0 -17 -12 -30 -25z m19 -37 c0 -18
-2 -20 -9 -8 -6 8 -7 18 -5 22 9 14 14 9 14 -14z"/>
<path d="M120 420 c0 -11 -6 -21 -12 -21 -7 -1 -20 -2 -28 -3 -17 -1 -17 -10
5 -86 8 -30 15 -89 15 -131 0 -49 6 -87 16 -107 8 -18 17 -32 19 -32 2 0 24
40 49 90 25 49 39 87 32 84 -7 -3 -19 -16 -26 -28 -7 -13 -25 -34 -41 -45
l-29 -22 1 58 c1 32 3 50 6 41 6 -22 5 -22 47 3 19 11 40 18 46 14 28 -17 25
11 -6 58 -19 28 -45 73 -57 100 -23 50 -37 60 -37 27z m-23 -62 c-3 -8 -6 -5
-6 6 -1 11 2 17 5 13 3 -3 4 -12 1 -19z m55 -10 c8 -7 25 -30 37 -50 l23 -38
-51 0 c-56 0 -58 3 -45 69 7 34 13 37 36 19z m-10 -260 c-7 -7 -12 -8 -12 -2
0 14 12 26 19 19 2 -3 -1 -11 -7 -17z"/>
</g>
</svg>
