<?xml version="1.0" standalone="no"?>
<!DOCTYPE svg PUBLIC "-//W3C//DTD SVG 20010904//EN"
 "http://www.w3.org/TR/2001/REC-SVG-20010904/DTD/svg10.dtd">
<svg version="1.0" xmlns="http://www.w3.org/2000/svg"
 width="90.000000pt" height="47.000000pt" viewBox="0 0 90.000000 47.000000"
 preserveAspectRatio="xMidYMid meet">
<metadata>
Created by potrace 1.16, written by Peter Selinger 2001-2019
</metadata>
<g transform="translate(0.000000,47.000000) scale(0.100000,-0.100000)"
fill="#000000" stroke="none">
<path d="M610 403 c0 -7 -6 -13 -14 -13 -11 0 -12 -22 -9 -117 3 -65 9 -122
13 -126 4 -4 10 40 13 99 4 59 12 113 17 119 6 7 40 16 77 20 77 8 83 4 83
-69 l0 -49 -76 6 c-79 6 -94 -2 -80 -38 4 -12 10 -13 24 -6 10 5 42 13 70 17
l52 7 0 -62 0 -61 -90 0 -90 0 0 -26 c0 -21 4 -25 17 -19 25 9 102 24 143 27
l35 3 7 90 c4 50 14 114 21 143 11 39 11 55 3 57 -6 2 -57 5 -114 7 -76 2
-102 0 -102 -9z"/>
<path d="M81 311 l-44 -38 23 -49 c14 -27 31 -74 40 -105 8 -31 20 -57 25 -57
6 0 8 5 6 11 -2 7 -3 72 -3 145 1 72 0 132 -1 132 -1 0 -22 -18 -46 -39z m28
-71 c1 -27 0 -50 -3 -50 -10 0 -37 74 -32 87 3 7 11 13 19 13 9 0 14 -16 16
-50z"/>
<path d="M158 315 c-10 -13 -18 -28 -18 -32 0 -5 64 -16 141 -25 78 -9 146
-21 151 -26 6 -6 -14 -14 -54 -21 -148 -27 -232 -48 -236 -59 -5 -16 4 -15
121 12 185 44 209 49 233 49 44 0 25 23 -28 35 -76 18 -251 73 -262 83 -16 14
-30 10 -48 -16z m67 -15 c16 -7 12 -9 -18 -9 -23 -1 -36 3 -32 9 7 12 23 12
50 0z"/>
</g>
</svg>
