<?xml version="1.0" standalone="no"?>
<!DOCTYPE svg PUBLIC "-//W3C//DTD SVG 20010904//EN"
 "http://www.w3.org/TR/2001/REC-SVG-20010904/DTD/svg10.dtd">
<svg version="1.0" xmlns="http://www.w3.org/2000/svg"
 width="169.000000pt" height="79.000000pt" viewBox="0 0 169.000000 79.000000"
 preserveAspectRatio="xMidYMid meet">
<metadata>
Created by potrace 1.16, written by Peter Selinger 2001-2019
</metadata>
<g transform="translate(0.000000,79.000000) scale(0.100000,-0.100000)"
fill="#000000" stroke="none">
<path d="M1025 713 c-3 -15 -17 -46 -30 -68 l-24 -39 -20 44 c-11 25 -21 51
-21 58 0 22 -15 13 -28 -18 -13 -28 -12 -31 22 -61 35 -30 46 -62 26 -74 -6
-4 -13 7 -16 24 -8 38 -21 40 -34 5 -13 -33 -13 -44 2 -44 7 0 24 -12 40 -27
27 -26 52 -26 30 0 -15 17 50 151 83 173 24 16 34 44 16 44 -5 0 -16 3 -24 6
-11 4 -17 -3 -22 -23z"/>
<path d="M97 662 c-8 -13 -17 -62 -13 -62 3 0 16 4 29 9 14 5 69 15 123 21 77
8 99 8 106 -2 4 -7 8 -70 8 -140 l0 -128 -95 0 c-93 0 -95 1 -83 20 11 17 24
20 85 20 42 0 73 4 73 10 0 6 -30 10 -70 10 -45 0 -70 4 -70 11 0 8 -4 8 -15
-1 -9 -7 -26 -9 -45 -5 -30 7 -32 4 -30 -32 1 -5 12 -6 27 -5 16 3 23 0 19 -7
-4 -6 -14 -11 -22 -11 -8 0 -14 -8 -14 -18 0 -20 -64 -92 -80 -92 -6 0 -10 -7
-10 -15 0 -8 7 -15 15 -15 8 0 22 -11 31 -25 18 -27 34 -25 34 5 0 14 15 21
71 34 39 9 96 16 125 16 47 0 54 -3 54 -19 0 -28 17 -35 36 -16 9 9 27 23 39
31 l22 14 -24 88 c-13 48 -29 103 -35 121 -6 19 -14 69 -17 110 -4 49 -10 75
-18 74 -43 -9 -208 -11 -228 -3 -13 5 -26 6 -28 2z m302 -306 c15 -64 16 -78
4 -87 -7 -7 -16 -10 -18 -7 -3 3 -7 47 -10 99 -6 105 -2 104 24 -5z m-49 -44
l0 -29 -93 -2 c-98 -2 -127 3 -127 23 0 25 23 32 120 34 l100 3 0 -29z m-254
-44 c-13 -31 -36 -50 -36 -30 0 9 38 62 45 62 2 0 -2 -14 -9 -32z m34 -8 c0
-5 -5 -10 -11 -10 -5 0 -7 5 -4 10 3 6 8 10 11 10 2 0 4 -4 4 -10z"/>
<path d="M707 640 c-22 -26 -21 -33 4 -56 28 -24 69 -89 69 -108 0 -8 -17 -29
-39 -48 -33 -29 -38 -37 -34 -65 3 -18 9 -33 14 -33 5 0 20 24 33 54 29 64 43
75 61 50 19 -27 31 -9 12 19 -13 21 -13 25 4 49 23 31 6 51 -17 22 -14 -18
-14 -18 -29 0 -8 11 -22 46 -31 78 -9 32 -20 58 -23 58 -4 0 -14 -9 -24 -20z"/>
<path d="M1083 643 c-12 -2 -25 -14 -29 -26 -11 -39 -89 -167 -101 -167 -6 0
-16 14 -22 30 -10 30 -31 41 -31 18 0 -7 -3 -23 -6 -35 -5 -19 -2 -23 16 -23
13 0 24 -8 27 -20 3 -11 11 -20 18 -20 19 0 36 -25 29 -44 -10 -26 -22 -19
-56 29 -33 47 -41 48 -51 4 -6 -22 -2 -28 34 -43 40 -18 58 -40 44 -54 -3 -4
-16 5 -27 21 -23 32 -38 35 -38 8 0 -11 -4 -23 -10 -26 -18 -11 -11 -25 13
-25 26 0 107 -36 107 -47 0 -15 -95 -105 -142 -134 -48 -29 -61 -49 -34 -49 8
0 18 5 22 11 10 16 201 108 240 115 43 8 43 19 -1 40 -20 9 -38 21 -41 26 -7
12 106 129 117 122 9 -5 127 25 196 50 23 9 62 18 85 22 24 3 73 12 110 20 37
8 74 11 82 8 10 -4 16 -1 16 8 0 15 -14 20 -195 69 -60 16 -139 40 -174 54
-69 26 -75 25 -87 -23 -4 -13 -4 -25 -2 -28 3 -2 42 -9 88 -15 46 -5 88 -13
93 -16 5 -3 27 -7 49 -9 68 -5 118 -15 118 -25 0 -5 -6 -9 -13 -9 -7 0 -48 -4
-92 -10 -44 -5 -121 -11 -172 -12 l-92 -2 -6 -32 -6 -33 -30 17 -30 17 41 37
c42 38 42 41 -2 52 -24 6 -28 3 -37 -29 -5 -20 -32 -66 -59 -103 -27 -37 -54
-76 -60 -87 -6 -11 -12 -14 -12 -7 0 7 4 20 9 30 6 9 22 44 37 77 15 33 50 84
80 115 30 31 54 60 54 63 0 4 -15 7 -33 7 -29 0 -35 -5 -61 -57 -16 -32 -34
-68 -40 -80 -13 -26 -24 -29 -32 -8 -8 20 33 88 93 154 61 68 63 85 6 74z
m227 -94 c12 -7 11 -8 -6 -9 -36 0 -84 12 -84 22 0 10 66 1 90 -13z m-45 -148
c-14 -12 -85 -24 -85 -13 0 16 13 22 54 22 23 0 36 -4 31 -9z m-187 -48 c-29
-65 -78 -125 -78 -95 0 10 79 122 85 122 3 0 -1 -12 -7 -27z m52 14 c0 -2 -10
-12 -21 -23 -22 -19 -22 -19 -10 4 10 18 31 31 31 19z m-67 -181 c1 -4 -22
-15 -51 -25 l-53 -18 32 33 c23 24 36 31 51 25 11 -4 20 -10 21 -15z"/>
<path d="M652 618 c-16 -16 -15 -37 2 -44 7 -3 21 -20 31 -38 14 -25 15 -37 7
-52 -9 -17 -13 -13 -35 36 -14 30 -27 63 -30 73 -7 19 -15 21 -36 8 -12 -8
-10 -17 14 -51 21 -31 25 -44 17 -52 -15 -15 -16 -13 -34 42 -12 37 -19 46
-41 48 -36 4 -34 -9 8 -64 38 -50 43 -64 20 -64 -15 0 -19 11 -16 38 2 9 -4
12 -17 8 -15 -5 -23 2 -38 34 -20 42 -30 45 -48 17 -9 -14 -5 -22 22 -43 26
-21 30 -29 21 -40 -6 -8 -20 -14 -31 -14 -16 0 -19 -5 -14 -22 3 -13 6 -29 6
-35 0 -25 19 -13 36 22 20 42 32 51 47 36 8 -8 6 -15 -10 -26 -19 -13 -20 -19
-10 -45 6 -16 15 -30 19 -30 4 0 17 18 28 41 19 37 49 50 42 18 -5 -19 7 -59
18 -59 5 0 21 19 34 43 14 24 37 54 51 67 28 26 32 45 11 53 -7 3 -22 28 -32
56 -19 54 -23 58 -42 39z m-1 -171 c-18 -18 -38 8 -21 28 12 15 14 15 23 0 6
-11 5 -21 -2 -28z"/>
<path d="M99 578 c-10 -18 -6 -19 110 -16 91 2 121 5 121 15 0 9 -21 13 -77
14 -43 1 -93 2 -111 4 -24 2 -35 -2 -43 -17z"/>
<path d="M97 529 c-8 -29 1 -43 19 -29 7 7 58 14 114 17 113 7 136 23 31 23
-37 0 -88 3 -113 6 -41 6 -46 4 -51 -17z"/>
<path d="M100 476 c-17 -17 -12 -39 8 -31 9 4 63 9 120 12 68 4 102 10 102 18
0 14 -216 15 -230 1z"/>
</g>
</svg>
