<?xml version="1.0" standalone="no"?>
<!DOCTYPE svg PUBLIC "-//W3C//DTD SVG 20010904//EN"
 "http://www.w3.org/TR/2001/REC-SVG-20010904/DTD/svg10.dtd">
<svg version="1.0" xmlns="http://www.w3.org/2000/svg"
 width="164.000000pt" height="111.000000pt" viewBox="0 0 164.000000 111.000000"
 preserveAspectRatio="xMidYMid meet">
<metadata>
Created by potrace 1.16, written by Peter Selinger 2001-2019
</metadata>
<g transform="translate(0.000000,111.000000) scale(0.100000,-0.100000)"
fill="#000000" stroke="none">
<path d="M0 1101 c0 -9 1630 -3 1639 5 2 2 -365 4 -817 4 -486 0 -822 -4 -822
-9z"/>
<path d="M1494 1062 c-3 -9 -12 -30 -21 -45 -15 -28 -14 -30 23 -68 21 -21 36
-41 33 -43 -5 -4 -109 11 -116 17 -2 2 4 18 14 35 17 29 17 33 1 59 -23 38
-36 40 -43 6 -12 -57 -28 -99 -61 -153 -19 -31 -34 -61 -34 -67 0 -7 15 -19
33 -28 17 -8 50 -30 71 -49 l40 -33 -22 -37 c-12 -20 -22 -41 -22 -47 0 -18
29 -9 35 12 9 28 122 147 157 165 35 18 35 34 -2 109 -17 33 -36 86 -42 117
-12 58 -34 83 -44 50z m25 -97 c0 -5 -6 -1 -14 9 -8 10 -11 24 -8 29 6 10 21
-16 22 -38z m-133 -82 c-1 -20 9 -21 112 -10 49 6 62 4 62 -7 0 -7 -7 -19 -15
-26 -15 -12 -34 -11 -112 6 -31 6 -33 5 -33 -23 0 -40 5 -43 48 -27 43 15 72
18 72 6 0 -5 -15 -27 -32 -51 l-33 -42 -33 38 c-48 56 -73 112 -59 135 15 23
25 23 23 1z m-39 -79 c-9 -9 -28 6 -21 18 4 6 10 6 17 -1 6 -6 8 -13 4 -17z
m214 3 c-10 -9 -11 -8 -5 6 3 10 9 15 12 12 3 -3 0 -11 -7 -18z"/>
<path d="M516 1051 c-3 -5 -3 -16 0 -24 4 -12 -3 -16 -33 -19 -36 -3 -38 -5
-35 -33 2 -16 4 -59 5 -95 l2 -65 -49 3 -48 2 7 -37 c8 -46 21 -61 37 -45 7 7
21 12 31 12 17 0 19 -7 16 -62 -3 -51 -1 -63 11 -63 11 0 16 15 18 63 3 57 5
64 28 72 14 6 36 10 50 10 22 0 24 -4 24 -50 0 -38 4 -50 15 -50 11 0 15 13
15 54 l0 53 75 7 c41 3 108 9 148 12 68 6 76 5 115 -20 61 -38 93 -68 103 -94
6 -15 16 -22 27 -20 14 3 20 25 34 113 22 148 36 209 48 213 6 2 10 12 10 22
0 22 -28 27 -180 29 -63 1 -124 4 -135 6 -48 10 -334 15 -339 6z m49 -31 c-3
-5 -11 -10 -16 -10 -6 0 -7 5 -4 10 3 6 11 10 16 10 6 0 7 -4 4 -10z m431 -10
l92 0 4 -57 c4 -68 -11 -233 -22 -233 -4 0 -23 34 -41 75 -35 76 -51 90 -68
57 -9 -16 -28 -20 -128 -26 -65 -4 -139 -9 -165 -12 -53 -5 -57 0 -32 47 20
40 13 45 -33 26 -38 -15 -42 -25 -28 -60 7 -16 3 -18 -41 -15 -47 3 -49 4 -47
33 3 43 42 132 61 140 44 18 185 34 266 30 49 -3 131 -5 182 -5z m129 -40 c-4
-12 -9 -19 -12 -17 -3 3 -2 15 2 27 4 12 9 19 12 17 3 -3 2 -15 -2 -27z m-631
-5 c-4 -8 -8 -15 -10 -15 -2 0 -4 7 -4 15 0 8 4 15 10 15 5 0 7 -7 4 -15z
m500 -161 c9 -24 7 -27 -9 -10 -17 17 -19 26 -6 26 5 0 12 -7 15 -16z m-564
-24 c-19 -13 -30 -13 -30 0 0 6 10 10 23 10 18 0 19 -2 7 -10z"/>
<path d="M159 1011 c-17 -31 -30 -41 -62 -49 -21 -6 -46 -8 -53 -5 -18 7 -18
-11 2 -48 11 -23 15 -56 13 -132 -3 -176 -1 -197 23 -197 7 0 19 15 27 33 8
17 48 64 89 103 l75 70 -20 55 c-19 50 -40 153 -35 173 3 10 -17 36 -29 36 -4
0 -18 -18 -30 -39z m28 -43 c-3 -8 -6 -5 -6 6 -1 11 2 17 5 13 3 -3 4 -12 1
-19z m18 -84 c27 -66 29 -76 8 -71 -10 3 -34 9 -54 12 -35 6 -37 5 -41 -25
l-5 -31 41 6 c23 4 50 9 61 12 l20 6 -20 -23 c-21 -24 -124 -94 -130 -88 -1 1
0 46 4 98 5 84 9 99 35 133 28 36 29 37 48 20 11 -10 25 -32 33 -49z m-111 31
c-4 -8 -8 -15 -10 -15 -2 0 -4 7 -4 15 0 8 4 15 10 15 5 0 7 -7 4 -15z"/>
<path d="M935 380 c3 -25 8 -53 11 -62 7 -22 -14 -23 -63 -3 -47 20 -56 19
-50 -6 3 -12 1 -32 -5 -45 -6 -13 -9 -26 -7 -29 3 -2 29 2 59 10 30 8 57 15
60 15 3 0 5 -39 5 -87 0 -59 4 -88 12 -90 9 -3 13 21 15 89 l3 93 105 1 c214
2 260 4 260 14 0 6 -68 10 -185 10 l-185 0 0 25 c0 14 15 41 35 64 19 21 35
41 35 45 0 3 -25 5 -56 4 l-55 -3 6 -45z m32 -2 c-3 -8 -6 -5 -6 6 -1 11 2 17
5 13 3 -3 4 -12 1 -19z m-82 -98 c3 -5 -1 -10 -9 -10 -9 0 -16 5 -16 10 0 6 4
10 9 10 6 0 13 -4 16 -10z"/>
<path d="M112 401 c-6 -3 -10 -15 -9 -26 2 -16 -5 -21 -31 -23 l-33 -3 8 -72
c4 -40 7 -111 6 -159 -1 -49 2 -88 7 -88 5 0 10 15 12 33 2 24 8 32 23 32 15
0 19 -6 17 -22 -5 -33 15 -36 22 -3 8 41 36 40 36 0 0 -16 5 -30 10 -30 6 0
10 14 10 30 0 23 4 30 20 30 17 0 20 -7 20 -42 0 -46 16 -43 22 4 l3 27 200 6
c110 3 205 2 212 -2 6 -5 13 -22 15 -38 1 -17 8 -30 13 -30 6 0 11 45 12 110
1 61 9 135 17 165 7 30 16 62 17 70 3 12 -23 14 -186 11 -104 -1 -219 2 -255
8 -95 15 -175 20 -188 12z m61 -38 c-7 -2 -21 -2 -30 0 -10 3 -4 5 12 5 17 0
24 -2 18 -5z m505 -56 l3 -37 -208 2 c-169 2 -207 6 -205 17 4 21 -8 52 -19
46 -5 -4 -9 -19 -9 -36 0 -23 -4 -29 -21 -29 -19 0 -21 4 -15 32 3 18 12 35
18 40 7 4 112 6 233 5 l220 -2 3 -38z m-498 -2 c0 -38 0 -38 -24 -29 -16 6
-22 45 -9 57 17 18 33 5 33 -28z m-60 -7 c0 -21 -3 -29 -10 -22 -5 5 -7 19 -4
32 9 31 14 27 14 -10z m-43 -15 c-3 -10 -5 -4 -5 12 0 17 2 24 5 18 2 -7 2
-21 0 -30z m43 -54 c0 -24 -4 -30 -17 -27 -20 4 -19 38 0 50 17 11 17 11 17
-23z m58 -2 c3 -22 -1 -27 -17 -27 -17 0 -21 6 -21 31 0 24 4 30 18 27 10 -2
18 -14 20 -31z m60 -4 c-2 -17 -10 -29 -20 -31 -14 -3 -18 3 -18 27 0 25 4 31
21 31 16 0 20 -5 17 -27z m442 13 c0 -8 3 -21 6 -29 5 -14 -22 -15 -210 -14
l-216 1 0 28 0 28 210 0 c175 0 210 -2 210 -14z m-562 -80 c5 -23 -14 -44 -28
-30 -12 12 -1 56 14 51 6 -2 13 -12 14 -21z m52 -6 c0 -20 -5 -30 -15 -30 -10
0 -15 10 -15 30 0 20 5 30 15 30 10 0 15 -10 15 -30z m54 24 c19 -7 21 -50 4
-56 -22 -8 -38 3 -38 26 0 33 8 40 34 30z m440 -10 c9 -3 16 -14 16 -24 0 -16
-15 -18 -167 -19 -93 -1 -187 -3 -211 -4 -40 -2 -42 0 -42 26 l0 27 194 0
c107 0 201 -3 210 -6z"/>
<path d="M1340 403 c0 -4 7 -28 15 -52 10 -28 16 -87 18 -167 2 -96 5 -124 15
-124 11 0 13 22 11 103 -1 56 4 127 10 157 20 87 21 85 -26 88 -24 2 -43 0
-43 -5z m60 -30 c0 -5 -5 -15 -10 -23 -8 -12 -10 -11 -10 8 0 12 5 22 10 22 6
0 10 -3 10 -7z"/>
<path d="M1240 251 c0 -4 -11 -25 -25 -44 -23 -35 -24 -37 -5 -47 10 -5 24
-10 30 -10 6 0 34 -16 63 -35 60 -41 76 -29 26 20 -19 18 -45 54 -57 79 -23
44 -32 56 -32 37z m26 -78 c-7 -7 -26 7 -26 19 0 6 6 6 15 -2 9 -7 13 -15 11
-17z"/>
</g>
</svg>
