<?xml version="1.0" standalone="no"?>
<!DOCTYPE svg PUBLIC "-//W3C//DTD SVG 20010904//EN"
 "http://www.w3.org/TR/2001/REC-SVG-20010904/DTD/svg10.dtd">
<svg version="1.0" xmlns="http://www.w3.org/2000/svg"
 width="74.000000pt" height="65.000000pt" viewBox="0 0 74.000000 65.000000"
 preserveAspectRatio="xMidYMid meet">
<metadata>
Created by potrace 1.16, written by Peter Selinger 2001-2019
</metadata>
<g transform="translate(0.000000,65.000000) scale(0.100000,-0.100000)"
fill="#000000" stroke="none">
<path d="M131 562 c-7 -14 -18 -17 -39 -14 -39 5 -45 -7 -33 -75 5 -32 12
-127 15 -212 5 -122 10 -160 24 -184 25 -44 37 -43 72 5 47 64 174 208 184
208 5 0 6 -43 3 -100 -3 -55 -2 -100 2 -100 12 0 22 74 20 143 -1 32 0 59 2
61 7 7 194 36 229 36 18 0 30 5 30 13 0 10 -16 12 -65 9 -36 -2 -95 -1 -131 3
l-67 7 6 62 c3 35 12 81 20 104 17 48 10 56 -34 47 l-31 -7 7 -80 c3 -44 9
-87 12 -94 12 -31 -17 -9 -111 86 -55 55 -100 100 -102 100 -2 0 -8 -8 -13
-18z m249 -29 c0 -10 -5 -25 -10 -33 -7 -11 -10 -7 -10 18 0 17 5 32 10 32 6
0 10 -8 10 -17z m-200 -18 c13 -14 20 -25 16 -25 -12 0 -56 32 -56 41 0 16 16
10 40 -16z m-87 -36 l-7 -44 -7 40 c-4 26 -3 43 4 47 17 10 18 5 10 -43z m190
-75 c38 -31 66 -58 63 -61 -3 -3 -53 -5 -111 -4 -86 1 -105 -1 -105 -13 0 -8
-3 -22 -7 -32 -5 -15 -2 -16 23 -9 95 25 194 41 194 30 0 -14 -93 -102 -177
-167 l-60 -46 -6 111 c-5 96 5 243 18 284 6 18 85 -26 168 -93z m140 -81 c-7
-2 -21 -2 -30 0 -10 3 -4 5 12 5 17 0 24 -2 18 -5z m-240 -10 c-7 -2 -19 -2
-25 0 -7 3 -2 5 12 5 14 0 19 -2 13 -5z m-20 -208 c-28 -34 -43 -44 -43 -26 0
9 57 61 66 61 3 0 -8 -16 -23 -35z"/>
</g>
</svg>
