<?xml version="1.0" standalone="no"?>
<!DOCTYPE svg PUBLIC "-//W3C//DTD SVG 20010904//EN"
 "http://www.w3.org/TR/2001/REC-SVG-20010904/DTD/svg10.dtd">
<svg version="1.0" xmlns="http://www.w3.org/2000/svg"
 width="132.000000pt" height="53.000000pt" viewBox="0 0 132.000000 53.000000"
 preserveAspectRatio="xMidYMid meet">
<metadata>
Created by potrace 1.16, written by Peter Selinger 2001-2019
</metadata>
<g transform="translate(0.000000,53.000000) scale(0.100000,-0.100000)"
fill="#000000" stroke="none">
<path d="M1197 463 c-5 -25 -110 -140 -161 -176 -17 -13 -65 -6 -256 37 -25 5
-73 25 -104 42 -28 17 -29 16 -60 -19 -17 -19 -38 -37 -46 -39 -13 -4 -14 -26
-11 -134 1 -71 4 -130 5 -132 2 -1 24 10 50 24 106 59 233 72 381 39 39 -8 79
-17 90 -19 11 -2 38 -7 60 -10 78 -14 13 13 -85 35 -52 11 -118 33 -147 47
-45 22 -53 23 -66 11 -8 -8 -56 -23 -108 -33 -52 -9 -104 -19 -117 -22 -13 -3
-20 -8 -18 -13 3 -5 0 -14 -7 -19 -10 -9 -13 -4 -14 24 -1 20 -4 50 -7 68 -5
24 1 46 21 86 l28 55 50 -3 c58 -4 304 -46 355 -62 45 -13 50 -13 50 3 0 24
113 169 121 155 7 -12 6 -56 -7 -245 -4 -60 -2 -93 4 -93 11 0 19 78 26 236 3
57 10 103 20 122 24 46 21 62 -13 62 -23 0 -30 -5 -34 -27z m42 0 c0 -5 -4
-17 -9 -28 -8 -18 -9 -17 -9 8 -1 15 4 27 9 27 6 0 10 -3 9 -7z m-554 -123 c4
-6 -5 -10 -19 -10 -14 0 -26 5 -26 10 0 6 9 10 19 10 11 0 23 -4 26 -10z m-95
-54 c0 -3 -4 -8 -10 -11 -5 -3 -10 -1 -10 4 0 6 5 11 10 11 6 0 10 -2 10 -4z
m485 -6 c-3 -5 -11 -10 -16 -10 -6 0 -7 5 -4 10 3 6 11 10 16 10 6 0 7 -4 4
-10z m-188 -136 c-3 -3 -12 -4 -19 -1 -8 3 -5 6 6 6 11 1 17 -2 13 -5z"/>
<path d="M333 467 c-20 -9 -22 -16 -19 -54 l5 -43 -36 0 -36 0 21 19 c12 10
22 21 22 25 0 8 -35 -14 -105 -65 -27 -20 -68 -44 -90 -54 -51 -23 -49 -20
-35 -45 9 -16 9 -25 1 -33 -21 -21 -12 -37 23 -37 18 0 60 -12 92 -26 106 -48
144 -63 152 -64 4 0 7 18 8 40 0 46 -13 54 -18 11 l-3 -29 -112 56 c-62 31
-113 61 -113 68 0 11 30 40 103 102 32 26 37 27 37 7 0 -11 7 -14 25 -9 42 10
58 10 62 -3 3 -8 -10 -13 -37 -15 -22 -2 -39 -7 -38 -13 2 -5 20 -9 41 -7 20
1 37 -2 37 -8 0 -10 -26 -14 -62 -11 -10 1 -18 -3 -18 -8 0 -6 18 -11 40 -11
22 0 40 -4 40 -10 0 -5 -18 -10 -40 -10 -22 0 -40 -4 -40 -10 0 -5 18 -10 41
-10 28 0 39 -4 37 -12 -3 -8 -20 -11 -46 -9 -25 1 -42 -2 -42 -8 0 -7 22 -11
55 -11 51 0 55 2 52 23 -2 17 2 21 20 19 12 -2 24 2 28 8 4 6 -6 10 -24 10
-42 0 -40 20 2 21 l32 1 -27 11 c-34 13 -35 22 -5 32 l22 8 -23 4 c-33 6 -22
27 19 34 31 6 15 14 -19 10 -9 -2 -11 9 -6 41 3 24 7 48 9 55 6 18 -7 22 -32
10z m4 -39 c-3 -8 -6 -5 -6 6 -1 11 2 17 5 13 3 -3 4 -12 1 -19z"/>
<path d="M358 193 c7 -3 16 -2 19 1 4 3 -2 6 -13 5 -11 0 -14 -3 -6 -6z"/>
</g>
</svg>
