<?xml version="1.0" standalone="no"?>
<!DOCTYPE svg PUBLIC "-//W3C//DTD SVG 20010904//EN"
 "http://www.w3.org/TR/2001/REC-SVG-20010904/DTD/svg10.dtd">
<svg version="1.0" xmlns="http://www.w3.org/2000/svg"
 width="100.000000pt" height="112.000000pt" viewBox="0 0 100.000000 112.000000"
 preserveAspectRatio="xMidYMid meet">
<metadata>
Created by potrace 1.16, written by Peter Selinger 2001-2019
</metadata>
<g transform="translate(0.000000,112.000000) scale(0.100000,-0.100000)"
fill="#000000" stroke="none">
<path d="M481 968 c1 -96 -3 -132 -16 -166 -13 -32 -22 -41 -35 -37 -14 4 -18
-2 -23 -37 -3 -23 -5 -44 -4 -45 2 -1 20 2 42 7 22 5 95 10 161 10 l122 0 7
123 c7 107 13 148 41 245 6 20 3 22 -29 22 l-34 0 9 -47 c8 -44 7 -95 -8 -260
-5 -55 -8 -63 -26 -63 -20 0 -21 3 -14 133 4 72 8 146 9 162 2 26 -1 30 -23
28 -14 -1 -41 -3 -60 -5 l-35 -3 -3 -67 c-3 -69 -8 -76 -43 -58 -23 13 -25 48
-4 116 19 64 19 64 -10 64 l-26 0 2 -122z m278 105 c0 -5 -4 -17 -9 -28 -8
-18 -9 -17 -9 8 -1 15 4 27 9 27 6 0 10 -3 9 -7z m-105 -94 c3 -17 3 -83 -1
-145 -4 -86 -9 -114 -20 -114 -10 0 -13 24 -13 108 0 113 8 182 20 182 4 0 10
-14 14 -31z m-58 -246 c-3 -7 -11 -13 -17 -13 -14 0 -7 230 8 265 9 22 17
-229 9 -252z m-79 130 c-17 -18 -22 -8 -11 22 5 12 10 13 17 6 8 -8 6 -16 -6
-28z m34 -88 c-5 -46 -8 -50 -34 -53 -16 -2 -34 2 -42 8 -17 14 -1 56 41 108
l28 36 6 -25 c4 -13 4 -46 1 -74z m-101 -50 c10 -13 9 -15 -8 -15 -15 0 -20 5
-16 15 4 8 7 15 9 15 1 0 8 -7 15 -15z"/>
<path d="M150 1038 c-7 -18 -14 -27 -17 -21 -3 8 -19 2 -48 -20 -24 -17 -44
-35 -45 -39 0 -5 16 -30 35 -57 19 -26 35 -53 35 -60 0 -6 5 -11 10 -11 9 0
14 59 13 144 l0 28 61 -5 c65 -5 163 -40 183 -65 13 -15 48 -9 38 7 -3 5 -22
15 -43 21 -43 14 -179 87 -187 101 -11 17 -23 9 -35 -23z m45 -18 c3 -5 2 -10
-4 -10 -5 0 -13 5 -16 10 -3 6 -2 10 4 10 5 0 13 -4 16 -10z m-76 -62 c0 -18
-4 -41 -7 -51 -6 -15 -10 -13 -26 13 -17 30 -17 32 0 51 25 27 34 24 33 -13z"/>
<path d="M320 910 c-29 -11 -59 -16 -84 -12 -33 4 -38 3 -33 -11 3 -9 -1 -18
-10 -21 -11 -4 -14 -2 -9 9 3 9 0 15 -8 15 -14 0 -32 -48 -22 -57 3 -3 20 1
38 9 18 9 66 28 106 43 39 15 72 31 72 36 0 5 -1 9 -2 8 -2 -1 -23 -9 -48 -19z"/>
<path d="M865 729 c-3 -8 -1 -27 4 -44 l8 -30 12 29 c10 24 9 32 -3 45 -13 12
-16 12 -21 0z"/>
<path d="M540 495 c0 -9 -13 -34 -30 -55 -30 -38 -38 -60 -22 -60 12 0 29 -40
37 -84 5 -24 3 -36 -4 -36 -6 0 -11 -14 -11 -32 0 -17 -5 -58 -12 -90 -11 -54
-14 -59 -35 -53 -20 5 -23 2 -23 -26 0 -26 3 -30 18 -24 9 4 78 12 152 18 76
6 124 13 110 17 -24 6 -25 8 -22 81 2 40 10 119 18 173 8 54 12 101 9 105 -3
3 -12 1 -20 -4 -11 -8 -16 -43 -19 -155 -4 -149 -11 -200 -28 -200 -12 0 -10
220 4 293 12 66 5 82 -23 48 -14 -17 -17 -30 -12 -45 8 -22 5 -248 -4 -279
-11 -39 -17 -1 -20 124 -2 97 1 141 13 175 17 52 15 61 -14 43 -18 -11 -20
-21 -16 -113 2 -56 1 -134 -3 -173 l-5 -73 -39 0 c-22 0 -39 2 -39 5 0 12 45
122 56 140 17 24 18 35 2 35 -9 0 -14 29 -16 104 l-4 103 39 6 c21 4 50 7 66
7 42 0 32 17 -15 24 -24 3 -53 9 -65 12 -18 5 -23 2 -23 -11z m35 -15 c3 -5 1
-10 -4 -10 -6 0 -11 5 -11 10 0 6 2 10 4 10 3 0 8 -4 11 -10z m-55 -87 c0 -21
-3 -24 -9 -14 -5 8 -7 20 -4 28 8 21 13 15 13 -14z"/>
<path d="M758 485 c-3 -3 0 -19 8 -34 11 -22 12 -55 4 -172 -5 -79 -12 -161
-15 -182 -4 -29 -2 -38 7 -35 9 3 15 43 21 134 4 71 12 154 18 184 19 92 17
105 -11 108 -14 2 -28 0 -32 -3z"/>
<path d="M98 401 c-31 -25 -56 -49 -55 -52 4 -11 138 -121 143 -117 2 3 -3 40
-12 82 -9 43 -13 88 -10 101 10 39 -6 36 -66 -14z m57 -101 c6 -19 4 -20 -12
-12 -10 6 -29 22 -43 36 l-24 27 29 27 30 27 7 -42 c3 -22 9 -51 13 -63z"/>
<path d="M232 345 c-7 -14 -12 -30 -12 -34 0 -4 31 -11 69 -14 70 -6 151 -25
151 -36 0 -3 -15 -12 -32 -20 -18 -8 -55 -24 -83 -37 -27 -12 -65 -28 -82 -34
-30 -11 -33 -16 -33 -56 0 -24 5 -44 10 -44 6 0 10 4 10 10 0 28 157 144 234
173 27 10 13 19 -76 51 -43 16 -89 37 -102 47 -32 25 -41 24 -54 -6z m53 -15
c18 -8 17 -9 -7 -9 -16 -1 -28 4 -28 9 0 12 8 12 35 0z m-15 -173 c0 -2 -9
-12 -20 -22 -17 -16 -20 -16 -20 -2 0 8 8 18 18 20 9 3 18 5 20 6 1 0 2 -1 2
-2z"/>
<path d="M860 105 c0 -8 9 -15 20 -15 11 0 20 7 20 15 0 8 -9 15 -20 15 -11 0
-20 -7 -20 -15z"/>
<path d="M248 3 c138 -2 366 -2 505 0 138 1 25 2 -253 2 -278 0 -391 -1 -252
-2z"/>
</g>
</svg>
