<?xml version="1.0" standalone="no"?>
<!DOCTYPE svg PUBLIC "-//W3C//DTD SVG 20010904//EN"
 "http://www.w3.org/TR/2001/REC-SVG-20010904/DTD/svg10.dtd">
<svg version="1.0" xmlns="http://www.w3.org/2000/svg"
 width="126.000000pt" height="106.000000pt" viewBox="0 0 126.000000 106.000000"
 preserveAspectRatio="xMidYMid meet">
<metadata>
Created by potrace 1.16, written by Peter Selinger 2001-2019
</metadata>
<g transform="translate(0.000000,106.000000) scale(0.100000,-0.100000)"
fill="#000000" stroke="none">
<path d="M978 979 c-18 -15 -20 -18 -7 -19 15 0 29 -27 29 -57 0 -8 -15 -13
-40 -13 -33 0 -40 -3 -40 -20 0 -11 7 -20 16 -20 9 0 12 5 8 12 -5 8 2 9 26 4
40 -7 44 -11 35 -26 -4 -6 -23 -10 -44 -8 l-36 3 0 -70 0 -70 41 3 c36 2 42
-1 48 -20 9 -35 7 -78 -4 -78 -8 0 -78 31 -168 73 -16 8 -22 17 -18 32 2 11 8
46 12 78 6 58 6 59 -17 55 -23 -3 -24 -6 -21 -70 1 -42 -2 -68 -8 -68 -19 0
-90 52 -90 67 0 15 86 103 102 103 13 0 150 82 145 87 -3 2 -60 -23 -128 -55
-68 -33 -132 -62 -141 -65 -13 -5 -16 -14 -11 -42 4 -26 1 -41 -12 -55 -17
-19 -17 -20 6 -29 13 -5 50 -17 82 -26 l57 -17 0 -64 c0 -41 4 -64 11 -64 8 0
10 16 5 53 -3 30 -3 56 0 60 3 3 49 -15 102 -39 52 -24 100 -43 106 -41 6 2
10 32 11 68 0 62 1 64 28 67 37 4 35 22 -3 22 -20 0 -30 5 -30 15 0 11 11 15
36 15 21 0 33 4 29 10 -3 6 -19 10 -36 10 -36 0 -40 27 -4 32 33 4 32 24 -1
21 -18 -1 -24 3 -24 18 0 14 7 19 25 19 14 0 25 5 25 10 0 6 -11 10 -25 10
-22 0 -25 4 -20 25 3 14 7 36 10 50 3 14 2 25 -2 26 -5 0 -16 2 -25 4 -10 2
-28 -5 -40 -16z m39 -31 c-3 -8 -6 -5 -6 6 -1 11 2 17 5 13 3 -3 4 -12 1 -19z
m-307 -133 c-7 -9 -15 -13 -19 -10 -3 3 1 10 9 15 21 14 24 12 10 -5z m298
-23 c2 -8 -8 -12 -27 -12 -33 0 -42 16 -13 23 23 6 35 3 40 -11z m2 -52 c0 -5
-14 -10 -31 -10 -17 0 -28 4 -24 10 3 6 17 10 31 10 13 0 24 -4 24 -10z m-315
-10 c3 -5 -1 -10 -10 -10 -9 0 -13 5 -10 10 3 6 8 10 10 10 2 0 7 -4 10 -10z"/>
<path d="M285 941 c-50 -26 -112 -56 -140 -66 -70 -26 -74 -30 -68 -76 4 -29
1 -44 -12 -59 -10 -11 -16 -21 -14 -23 3 -2 217 -75 301 -103 14 -5 17 2 20
42 l3 49 40 3 c62 5 67 22 7 22 -51 0 -52 1 -52 30 0 30 1 30 55 30 30 0 55 5
55 10 0 6 -22 10 -50 10 -43 0 -50 3 -50 19 0 15 8 21 33 24 l32 3 -31 8 -32
8 5 59 c3 32 2 59 -3 59 -5 -1 -49 -22 -99 -49z m85 -21 c0 -22 -4 -40 -10
-40 -5 0 -10 18 -10 40 0 22 5 40 10 40 6 0 10 -18 10 -40z m-38 -21 l5 -32
-58 7 c-32 3 -60 2 -62 -2 -2 -4 -1 -44 2 -90 4 -46 3 -86 -2 -89 -9 -6 -117
63 -117 75 0 28 200 179 221 167 4 -3 9 -19 11 -36z m-72 -43 c0 -3 -4 -8 -10
-11 -5 -3 -10 -1 -10 4 0 6 5 11 10 11 6 0 10 -2 10 -4z m-110 -9 c0 -2 -11
-14 -24 -26 -20 -19 -24 -20 -30 -6 -4 10 2 19 17 25 24 9 37 12 37 7z m190
-17 c0 -17 -7 -20 -49 -20 -64 0 -74 16 -19 28 63 14 68 14 68 -8z m10 -55 c0
-11 -11 -15 -40 -15 -43 0 -55 16 -17 23 44 9 57 7 57 -8z m-240 -39 c0 -3 -4
-8 -10 -11 -5 -3 -10 -1 -10 4 0 6 5 11 10 11 6 0 10 -2 10 -4z m240 -6 c0 -5
-18 -10 -40 -10 -22 0 -40 -4 -40 -10 0 -5 -4 -10 -10 -10 -17 0 -11 28 8 33
33 9 82 7 82 -3z m0 -64 l0 -34 -51 21 -52 22 39 12 c60 18 64 16 64 -21z"/>
<path d="M460 860 c0 -5 5 -10 10 -10 6 0 10 5 10 10 0 6 -4 10 -10 10 -5 0
-10 -4 -10 -10z"/>
<path d="M390 750 c0 -6 11 -8 28 -4 39 10 40 14 4 14 -18 0 -32 -5 -32 -10z"/>
<path d="M495 638 c-3 -7 -1 -26 4 -43 l8 -30 13 27 c13 28 8 58 -10 58 -6 0
-13 -6 -15 -12z"/>
<path d="M1126 631 c-8 -12 4 -71 14 -71 11 0 23 57 15 70 -8 12 -22 13 -29 1z"/>
<path d="M680 413 c-8 -3 -32 -14 -53 -24 -21 -10 -52 -21 -70 -24 -18 -4 -57
-16 -87 -27 -30 -12 -67 -20 -82 -19 -25 1 -28 -2 -28 -33 0 -18 -7 -39 -15
-46 -26 -22 -18 -40 19 -40 18 0 48 -3 65 -6 30 -6 31 -9 31 -55 0 -26 5 -51
10 -54 6 -4 10 13 10 44 0 28 2 51 5 51 2 0 23 -7 45 -16 23 -9 43 -14 46 -11
3 2 -6 22 -21 42 -14 21 -25 42 -25 46 0 16 -20 10 -27 -7 -4 -11 1 -22 12
-30 10 -8 14 -14 9 -14 -6 0 -19 6 -29 14 -17 12 -18 17 -6 56 9 30 10 45 2
50 -10 6 93 51 150 65 32 8 39 -11 38 -95 l0 -55 -22 45 c-12 25 -23 47 -25
50 -1 2 -13 -8 -26 -23 -13 -15 -25 -24 -28 -22 -3 3 -11 -1 -17 -9 -10 -12
-7 -23 21 -57 22 -28 29 -43 21 -46 -7 -3 -13 -8 -13 -13 0 -9 50 -24 57 -17
2 3 -11 28 -28 56 -18 28 -29 54 -26 57 8 8 67 -86 67 -107 0 -9 7 -19 15 -23
8 -3 15 -4 15 -3 1 1 3 54 6 117 3 63 9 129 14 147 10 41 4 48 -30 36z m-222
-148 c2 -35 -1 -45 -13 -45 -17 0 -79 29 -73 35 4 4 80 55 82 55 1 0 2 -20 4
-45z m212 -69 c0 -24 0 -23 -34 39 l-28 50 31 -35 c17 -19 31 -43 31 -54z"/>
<path d="M783 184 c-7 -18 11 -39 26 -30 17 11 13 46 -4 46 -9 0 -18 -7 -22
-16z"/>
</g>
</svg>
