<?xml version="1.0" standalone="no"?>
<!DOCTYPE svg PUBLIC "-//W3C//DTD SVG 20010904//EN"
 "http://www.w3.org/TR/2001/REC-SVG-20010904/DTD/svg10.dtd">
<svg version="1.0" xmlns="http://www.w3.org/2000/svg"
 width="115.000000pt" height="183.000000pt" viewBox="0 0 115.000000 183.000000"
 preserveAspectRatio="xMidYMid meet">
<metadata>
Created by potrace 1.16, written by Peter Selinger 2001-2019
</metadata>
<g transform="translate(0.000000,183.000000) scale(0.100000,-0.100000)"
fill="#000000" stroke="none">
<path d="M390 1770 c-17 -4 -24 -13 -23 -26 1 -15 -24 -34 -110 -84 -61 -36
-125 -70 -141 -76 -17 -6 -31 -16 -30 -22 1 -7 2 -19 3 -27 2 -22 25 -18 47 6
18 21 118 93 159 115 11 6 30 17 43 25 20 12 24 12 32 -1 15 -24 13 -290 -2
-290 -21 1 -48 26 -49 46 -5 51 2 83 19 87 16 4 16 5 0 6 -13 1 -18 10 -18 31
0 17 -4 30 -10 30 -5 0 -10 -13 -10 -30 0 -16 -4 -30 -10 -30 -5 0 -10 14 -10
31 0 17 -4 28 -10 24 -5 -3 -10 -17 -10 -31 0 -13 -5 -24 -11 -24 -6 0 -9 9
-6 20 3 11 1 23 -4 26 -5 3 -9 -4 -9 -15 0 -11 -5 -23 -11 -27 -8 -4 -9 1 -4
16 6 18 3 21 -12 18 -10 -2 -18 -10 -18 -18 0 -8 -9 -19 -20 -24 -19 -9 -19
-10 3 -13 12 -3 22 -11 22 -19 0 -19 -12 -18 -49 4 -30 17 -31 16 -53 -5 -12
-12 -20 -25 -17 -28 3 -3 29 -6 58 -7 31 -1 55 -8 58 -15 3 -6 10 -10 18 -7 7
3 16 -5 20 -18 6 -19 8 -20 12 -5 8 30 23 18 23 -18 0 -19 5 -35 10 -35 6 0
10 12 10 26 0 24 1 24 22 10 12 -9 30 -16 39 -16 9 0 22 -7 29 -15 17 -20 30
-10 30 25 0 27 5 31 52 45 28 8 87 15 129 15 43 0 81 4 84 10 4 6 -44 10 -127
12 l-133 3 -3 35 c-5 62 9 69 142 80 66 6 122 8 124 5 3 -3 7 -41 10 -85 4
-73 6 -80 26 -80 30 -1 122 -40 193 -83 33 -20 65 -37 70 -37 7 0 9 51 6 138
-5 118 -2 149 16 220 12 46 19 87 16 91 -11 18 -62 4 -123 -32 -34 -21 -86
-47 -115 -57 -29 -10 -53 -25 -55 -35 -2 -10 -10 -14 -22 -10 -10 3 -21 1 -25
-5 -6 -10 -240 -8 -251 2 -2 3 0 36 5 74 6 38 7 72 3 75 -4 3 -18 3 -32 -1z
m20 -32 c0 -7 -5 -20 -10 -28 -8 -12 -10 -9 -10 13 0 15 5 27 10 27 6 0 10 -6
10 -12z m569 -15 c0 -10 -4 -27 -9 -38 -7 -16 -9 -13 -9 18 -1 20 4 37 9 37 6
0 10 -8 9 -17z m-36 -18 c2 -14 5 -102 6 -195 l2 -170 -61 35 c-34 19 -64 35
-67 35 -2 0 -25 14 -50 32 -26 17 -53 31 -60 31 -11 0 -13 12 -7 56 5 46 12
61 36 81 33 27 179 119 189 120 4 0 9 -11 12 -25z m-714 -202 c0 -5 -4 -17 -9
-28 -8 -18 -9 -17 -9 8 -1 15 4 27 9 27 6 0 10 -3 9 -7z m31 -23 c0 -16 -4
-30 -10 -30 -5 0 -10 14 -10 30 0 17 5 30 10 30 6 0 10 -13 10 -30z m40 -10
c0 -22 -4 -40 -10 -40 -5 0 -10 18 -10 40 0 22 5 40 10 40 6 0 10 -18 10 -40z
m-165 10 c3 -6 -1 -7 -9 -4 -18 7 -21 14 -7 14 6 0 13 -4 16 -10z"/>
<path d="M190 1405 c0 -8 5 -15 10 -15 6 0 10 7 10 15 0 8 -4 15 -10 15 -5 0
-10 -7 -10 -15z"/>
<path d="M1047 1364 c-3 -4 -2 -15 4 -26 5 -10 7 -23 4 -28 -3 -5 -1 -11 5
-15 12 -7 33 43 26 62 -6 14 -28 18 -39 7z"/>
<path d="M985 1069 c-64 -41 -138 -78 -197 -99 -32 -12 -47 -32 -48 -62 0 -14
27 -8 41 8 14 17 72 56 124 84 17 9 40 22 52 30 12 8 26 11 30 6 4 -4 7 -58 6
-119 -2 -173 0 -160 -25 -154 -112 27 -156 40 -177 54 -22 14 -25 14 -37 -2
-13 -17 -14 -17 -20 -1 -4 10 -4 62 0 117 3 59 2 99 -3 99 -5 0 -24 -12 -41
-26 -30 -26 -34 -27 -123 -20 -51 4 -106 9 -124 12 -30 6 -32 8 -26 38 3 17
10 37 16 44 17 22 -1 26 -40 9 -43 -19 -95 -40 -103 -41 -3 -1 -11 -5 -18 -9
-23 -15 -155 -57 -179 -57 -20 0 -23 -5 -23 -39 0 -46 14 -61 30 -31 13 24 33
26 55 4 21 -21 8 -35 -34 -36 -31 -1 -61 -27 -61 -54 0 -7 24 -15 58 -19 53
-6 171 -40 234 -68 15 -6 29 -20 32 -31 9 -33 20 -9 17 38 l-2 44 43 6 c24 3
93 9 154 11 89 4 113 2 117 -8 3 -9 30 -17 72 -21 36 -4 92 -13 123 -21 113
-28 103 -38 106 105 2 97 7 138 24 182 11 32 18 59 14 61 -4 2 -34 -13 -67
-34z m-588 -41 c-3 -7 -5 -2 -5 12 0 14 2 19 5 13 2 -7 2 -19 0 -25z m-31 -30
c0 -25 3 -49 6 -54 2 -5 6 -50 7 -101 1 -87 1 -91 -19 -86 -17 5 -20 13 -20
64 0 40 4 59 13 59 8 0 8 3 -2 9 -8 6 -12 19 -9 35 3 15 1 29 -4 32 -5 4 -7
22 -3 40 7 38 -3 43 -28 16 -14 -15 -14 -23 -3 -57 19 -57 21 -175 3 -175 -8
0 -20 7 -27 15 -7 8 -21 15 -31 15 -14 0 -19 7 -19 30 0 33 14 40 24 13 12
-30 22 3 24 77 2 71 -8 88 -28 50 -7 -14 -8 -32 -1 -54 9 -34 6 -46 -11 -46
-9 0 -11 81 -2 105 9 23 93 67 119 61 6 -2 10 -23 11 -48z m-169 -40 c-3 -8
-6 -5 -6 6 -1 11 2 17 5 13 3 -3 4 -12 1 -19z m-47 3 c0 -5 -8 -11 -17 -15
-10 -3 -24 -9 -30 -12 -7 -3 -13 -1 -13 5 0 7 10 16 23 21 29 12 37 12 37 1z
m549 -8 c3 -2 7 -30 9 -63 l4 -60 -68 -2 c-38 -1 -108 -2 -156 -3 l-88 -2 -2
41 c-2 51 1 78 8 85 15 15 276 19 293 4z m-490 -68 c-1 -67 -22 -71 -25 -5 -2
47 1 60 16 60 5 0 9 -25 9 -55z m-65 -50 c14 -11 16 -15 5 -15 -26 0 -59 12
-59 21 0 14 33 10 54 -6z"/>
<path d="M1073 745 c1 -39 11 -45 27 -16 12 23 4 51 -15 51 -8 0 -13 -13 -12
-35z"/>
<path d="M979 605 c-1 -6 0 -21 0 -35 2 -34 -11 -48 -107 -114 -67 -46 -88
-55 -109 -50 -22 6 -25 4 -20 -10 4 -10 7 -67 7 -127 0 -66 4 -109 10 -109 6
0 10 36 10 88 0 49 3 91 6 95 3 3 50 -28 105 -69 l98 -76 3 -71 c2 -40 7 -70
12 -67 12 7 7 532 -5 545 -6 6 -9 6 -10 0z m0 -245 c1 -71 -2 -130 -6 -130 -7
0 -142 107 -176 139 -4 4 28 31 72 60 44 29 83 56 86 62 16 25 23 -12 24 -131z"/>
<path d="M280 424 c-41 -30 -99 -71 -127 -91 -50 -35 -65 -53 -44 -53 5 0 17
-3 27 -7 12 -4 15 -3 10 6 -8 12 10 41 24 41 4 0 10 -11 12 -25 4 -18 1 -25
-10 -25 -13 0 -13 -3 1 -18 10 -10 17 -28 17 -40 0 -35 20 -25 21 11 1 23 3
26 6 10 2 -13 10 -23 18 -23 8 0 11 7 8 20 -3 12 0 20 7 20 7 0 10 -11 8 -27
-2 -21 4 -31 30 -46 18 -11 35 -18 37 -15 2 2 6 20 9 41 2 20 7 45 11 56 3 11
1 22 -5 26 -16 10 -12 45 5 45 8 0 15 5 15 10 0 6 -6 10 -14 10 -22 0 -26 79
-5 91 24 12 29 -14 29 -165 0 -113 -2 -127 -16 -122 -10 4 -14 1 -12 -6 3 -7
14 -14 26 -16 20 -3 22 1 22 37 l0 40 143 3 c186 4 184 23 -3 23 l-135 0 -3
73 -3 72 150 0 c82 0 156 3 165 6 41 16 3 21 -151 20 l-168 -1 -3 38 c-2 21
-8 37 -15 36 -7 0 -46 -25 -87 -55z m30 -44 c0 -19 -5 -30 -14 -30 -18 0 -27
35 -13 49 18 18 27 12 27 -19z m-54 -26 c-5 -14 -9 -15 -19 -5 -9 9 -9 14 3
21 18 11 24 6 16 -16z m4 -60 c0 -13 -4 -24 -10 -24 -5 0 -10 14 -10 31 0 17
4 28 10 24 6 -3 10 -17 10 -31z m51 19 c0 -10 3 -38 5 -62 7 -57 -1 -78 -21
-61 -21 18 -21 140 0 140 8 0 15 -8 16 -17z m-91 -24 c0 -10 -4 -19 -10 -19
-5 0 -10 12 -10 26 0 14 4 23 10 19 6 -3 10 -15 10 -26z"/>
<path d="M1033 144 c-8 -21 13 -42 28 -27 13 13 5 43 -11 43 -6 0 -13 -7 -17
-16z"/>
</g>
</svg>
