<?xml version="1.0" standalone="no"?>
<!DOCTYPE svg PUBLIC "-//W3C//DTD SVG 20010904//EN"
 "http://www.w3.org/TR/2001/REC-SVG-20010904/DTD/svg10.dtd">
<svg version="1.0" xmlns="http://www.w3.org/2000/svg"
 width="136.000000pt" height="52.000000pt" viewBox="0 0 136.000000 52.000000"
 preserveAspectRatio="xMidYMid meet">
<metadata>
Created by potrace 1.16, written by Peter Selinger 2001-2019
</metadata>
<g transform="translate(0.000000,52.000000) scale(0.100000,-0.100000)"
fill="#000000" stroke="none">
<path d="M387 484 c-4 -4 0 -16 8 -28 30 -42 20 -56 -40 -56 l-55 0 5 -132 c3
-72 7 -133 9 -136 3 -2 20 5 39 17 51 31 77 28 77 -10 0 -20 4 -29 13 -26 7 2
11 16 9 32 -4 27 -3 28 32 22 27 -4 36 -2 36 9 0 9 -11 14 -35 14 -24 0 -35 5
-35 15 0 10 10 15 34 15 19 0 38 5 41 10 4 6 -12 10 -39 10 -33 0 -46 4 -46
14 0 16 21 26 56 26 13 0 24 5 24 10 0 6 -15 8 -40 4 -36 -6 -40 -4 -40 14 0
18 7 21 48 24 26 2 46 7 44 13 -1 5 -22 8 -46 6 -24 -1 -46 1 -49 6 -3 4 -1
32 5 62 5 29 8 54 6 56 -9 7 -56 14 -61 9z m31 -121 c-2 -13 -13 -18 -37 -18
-37 0 -54 20 -24 28 42 11 65 7 61 -10z m0 -56 c3 -13 -4 -17 -30 -17 -50 0
-67 15 -32 28 38 14 58 11 62 -11z m7 -57 c0 -11 -11 -15 -39 -15 -43 0 -61
21 -24 28 39 8 63 3 63 -13z m5 -44 c0 -18 -64 -30 -88 -17 -19 11 -11 16 38
24 46 8 50 7 50 -7z"/>
<path d="M984 458 c-17 -18 -46 -47 -66 -64 -35 -31 -38 -31 -146 -33 -67 -1
-113 3 -117 9 -3 5 -11 10 -16 10 -10 0 -3 -195 7 -212 3 -4 16 -1 29 8 13 9
51 18 85 21 69 7 95 -6 190 -96 30 -28 55 -51 56 -51 1 0 4 17 8 37 9 59 69
168 92 168 13 0 38 -28 77 -85 55 -81 77 -104 77 -82 0 6 -18 37 -41 70 l-41
59 16 63 c9 35 15 64 13 66 -1 2 -24 -11 -49 -27 -26 -17 -52 -28 -58 -24 -15
9 -39 70 -54 134 -7 30 -17 56 -23 58 -6 2 -23 -11 -39 -29z m40 -14 c9 -24 7
-28 -9 -14 -17 14 -20 30 -6 30 5 0 12 -7 15 -16z m37 -113 c10 -24 19 -46 19
-50 0 -5 -63 -6 -163 -3 -32 2 -37 4 -29 19 8 13 23 16 81 14 45 -1 71 2 71 8
0 7 -26 11 -66 11 -41 0 -63 4 -59 10 3 6 29 10 57 10 28 0 49 2 47 5 -5 5
-43 13 -66 14 -19 1 -16 18 9 41 l22 20 29 -27 c15 -16 37 -48 48 -72z m-201
4 c-9 -11 -33 -15 -94 -14 -77 1 -79 1 -51 14 17 8 59 14 94 15 55 0 62 -2 51
-15z m24 -20 c-4 -8 -11 -15 -16 -15 -6 0 -5 6 2 15 7 8 14 15 16 15 2 0 1 -7
-2 -15z m288 -35 c-5 -32 -26 -40 -36 -14 -4 9 -5 18 -4 19 3 2 41 24 44 25 0
0 -1 -13 -4 -30z m-328 11 c4 -5 2 -11 -4 -13 -21 -7 -170 4 -170 13 0 12 167
12 174 0z m-9 -51 c-16 -18 -29 -20 -94 -18 -46 2 -76 8 -78 15 -5 14 27 19
121 22 69 1 69 1 51 -19z m225 14 c0 -3 -4 -13 -9 -23 -8 -15 -20 -17 -65 -13
-38 3 -56 1 -56 -7 0 -6 18 -11 45 -11 25 0 45 -3 45 -6 0 -5 -30 -51 -47 -73
-10 -14 -93 101 -93 128 0 7 33 11 90 11 50 0 90 -3 90 -6z m-185 -45 c11 -17
0 -20 -21 -4 -17 13 -17 14 -2 15 9 0 20 -5 23 -11z m128 -99 c-3 -12 -8 -19
-11 -16 -5 6 5 36 12 36 2 0 2 -9 -1 -20z"/>
<path d="M104 443 c-6 -23 -2 -31 22 -48 34 -24 114 -106 114 -118 0 -4 -29
-5 -65 -1 -65 7 -65 7 -65 -18 0 -25 1 -26 68 -21 l67 6 -30 -33 c-35 -37
-115 -93 -123 -86 -2 3 -5 73 -4 155 l0 149 -29 4 c-34 5 -33 8 -14 -74 8 -35
17 -106 20 -158 6 -88 28 -170 46 -170 4 0 15 20 24 44 10 26 42 69 76 104 32
33 59 66 59 74 0 7 -31 56 -70 108 -38 52 -70 98 -70 103 0 19 -20 4 -26 -20z
m31 -23 c3 -5 1 -10 -4 -10 -6 0 -11 5 -11 10 0 6 2 10 4 10 3 0 8 -4 11 -10z
m-65 -42 c0 -36 -4 -35 -14 5 -4 16 -2 27 4 27 5 0 10 -14 10 -32z m90 -124
c0 -2 -7 -4 -15 -4 -8 0 -15 4 -15 10 0 5 7 7 15 4 8 -4 15 -8 15 -10z m-37
-164 c-3 -11 -9 -20 -14 -20 -10 0 -12 24 -2 33 13 13 21 7 16 -13z"/>
<path d="M465 400 c-17 -7 -15 -9 13 -9 17 -1 32 4 32 9 0 12 -17 12 -45 0z"/>
</g>
</svg>
