<?xml version="1.0" standalone="no"?>
<!DOCTYPE svg PUBLIC "-//W3C//DTD SVG 20010904//EN"
 "http://www.w3.org/TR/2001/REC-SVG-20010904/DTD/svg10.dtd">
<svg version="1.0" xmlns="http://www.w3.org/2000/svg"
 width="128.000000pt" height="59.000000pt" viewBox="0 0 128.000000 59.000000"
 preserveAspectRatio="xMidYMid meet">
<metadata>
Created by potrace 1.16, written by Peter Selinger 2001-2019
</metadata>
<g transform="translate(0.000000,59.000000) scale(0.100000,-0.100000)"
fill="#000000" stroke="none">
<path d="M1006 536 c-21 -33 -20 -42 6 -60 12 -9 18 -19 14 -23 -4 -4 -11 -2
-15 5 -4 7 -14 10 -23 7 -12 -5 -15 -29 -14 -137 1 -97 -2 -132 -11 -135 -16
-6 -18 214 -3 266 12 43 6 52 -26 38 -20 -10 -24 -17 -19 -37 4 -14 10 -98 14
-187 5 -113 11 -167 20 -175 11 -11 15 -9 25 7 6 11 40 49 76 85 59 59 83 79
145 124 19 14 17 18 -53 89 -45 45 -78 89 -87 113 -16 47 -27 52 -49 20z m34
-50 c0 -5 -7 -3 -15 4 -8 7 -12 17 -9 22 7 10 24 -9 24 -26z m24 -68 c-5 -7
-7 -50 -5 -95 2 -56 -1 -83 -8 -83 -7 0 -11 29 -11 83 0 94 8 133 22 119 6 -6
7 -16 2 -24z m-43 -106 c1 -52 -2 -87 -10 -95 -8 -8 -11 15 -11 93 0 125 18
126 21 2z m116 66 c18 -18 33 -37 32 -42 0 -6 -20 -26 -45 -43 l-44 -33 0 44
c0 50 10 106 18 106 3 0 21 -14 39 -32z m-160 -225 c-15 -16 -17 -16 -17 -1 0
9 6 18 13 21 20 7 22 -2 4 -20z"/>
<path d="M191 509 c-27 -36 -33 -25 53 -93 20 -15 36 -32 36 -36 0 -13 -81
-62 -94 -57 -7 3 -26 35 -42 71 -16 36 -31 66 -34 66 -3 -1 -18 -11 -33 -24
l-29 -23 51 -38 c28 -20 56 -46 62 -56 8 -16 5 -21 -18 -30 -15 -6 -40 -13
-56 -16 -25 -5 -27 -8 -21 -42 9 -49 21 -59 35 -30 6 13 27 37 45 53 33 28 35
28 54 11 36 -32 22 -48 -73 -84 -24 -9 -27 -16 -27 -56 0 -25 2 -45 6 -45 3 0
30 27 61 60 30 33 63 60 72 60 9 0 33 -27 55 -60 21 -33 42 -60 47 -60 20 0 7
33 -31 82 -23 28 -39 55 -38 60 2 5 22 20 45 33 l41 25 49 -60 c43 -54 73 -75
73 -52 0 5 -22 33 -50 63 l-49 54 26 22 c15 12 53 34 84 50 32 15 58 34 58 41
1 21 -19 14 -97 -33 -41 -25 -80 -45 -86 -45 -11 1 -51 49 -44 54 1 2 32 22
66 45 42 28 61 46 54 53 -6 6 -32 -6 -73 -37 l-63 -46 -18 23 c-10 13 -28 47
-40 76 -12 28 -25 52 -28 52 -3 0 -17 -14 -29 -31z m39 -40 c0 -6 -4 -7 -10
-4 -5 3 -10 11 -10 16 0 6 5 7 10 4 6 -3 10 -11 10 -16z m-115 -60 c11 -17 -1
-21 -15 -4 -8 9 -8 15 -2 15 6 0 14 -5 17 -11z m219 -111 c-3 -5 -24 -20 -46
-35 l-41 -25 -18 23 c-26 33 -24 45 11 59 16 7 35 19 42 27 11 13 15 11 35
-13 12 -15 19 -32 17 -36z m-224 -48 c0 -5 -5 -10 -11 -10 -5 0 -7 5 -4 10 3
6 8 10 11 10 2 0 4 -4 4 -10z m40 -95 c-7 -9 -15 -13 -17 -11 -7 7 7 26 19 26
6 0 6 -6 -2 -15z"/>
<path d="M704 426 c-3 -9 -15 -16 -26 -16 -17 0 -19 -4 -13 -22 4 -13 10 -52
12 -88 5 -86 10 -98 27 -75 11 15 25 17 109 13 75 -3 97 -1 97 9 0 10 -26 13
-105 13 -87 0 -105 3 -105 15 0 17 5 18 128 15 71 -1 92 2 92 12 0 10 -25 13
-105 14 -106 1 -122 4 -110 24 4 7 39 8 105 5 55 -4 101 -2 104 3 3 5 -38 12
-95 15 -55 3 -103 8 -107 11 -15 16 23 28 107 33 95 6 127 23 44 23 -27 0 -72
3 -100 6 -43 6 -54 4 -59 -10z"/>
</g>
</svg>
