<?xml version="1.0" standalone="no"?>
<!DOCTYPE svg PUBLIC "-//W3C//DTD SVG 20010904//EN"
 "http://www.w3.org/TR/2001/REC-SVG-20010904/DTD/svg10.dtd">
<svg version="1.0" xmlns="http://www.w3.org/2000/svg"
 width="146.000000pt" height="51.000000pt" viewBox="0 0 146.000000 51.000000"
 preserveAspectRatio="xMidYMid meet">
<metadata>
Created by potrace 1.16, written by Peter Selinger 2001-2019
</metadata>
<g transform="translate(0.000000,51.000000) scale(0.100000,-0.100000)"
fill="#000000" stroke="none">
<path d="M643 468 c-28 -14 -28 -23 -2 -84 20 -43 21 -60 16 -163 -4 -62 -9
-116 -11 -119 -3 -2 -25 4 -48 15 -24 11 -55 23 -70 27 -34 8 -88 53 -88 74 0
29 43 79 111 128 62 45 81 64 62 64 -4 0 -32 -17 -63 -39 -120 -83 -142 -91
-271 -91 -86 0 -120 4 -135 15 -25 19 -44 19 -44 0 0 -11 -8 -15 -27 -13 -25
3 -28 0 -25 -22 1 -14 5 -65 8 -115 8 -121 24 -133 25 -19 1 78 15 174 18 120
1 -15 6 -17 36 -12 35 7 35 7 35 -30 0 -38 0 -38 -60 -23 -11 3 -16 -6 -18
-35 -3 -37 -2 -38 21 -32 14 3 32 9 41 12 13 5 16 -1 16 -25 0 -17 5 -31 10
-31 6 0 10 15 10 33 l0 33 96 2 c53 1 100 5 105 7 4 3 10 1 13 -4 3 -5 14 -7
25 -4 19 5 131 -26 178 -50 75 -38 69 -50 76 165 3 106 8 201 12 211 8 20 -16
22 -52 5z m27 -38 c0 -11 -4 -20 -10 -20 -5 0 -10 2 -10 4 0 2 -3 11 -6 20 -4
11 -1 16 10 16 9 0 16 -8 16 -20z m-255 -193 c4 -12 1 -35 -4 -50 -11 -27 -11
-27 -116 -27 -58 0 -105 3 -105 8 0 4 5 24 10 44 12 41 19 43 142 46 63 2 68
0 73 -21z m-278 -93 c-3 -3 -12 -4 -19 -1 -8 3 -5 6 6 6 11 1 17 -2 13 -5z"/>
<path d="M1303 399 c-13 -13 -448 -18 -509 -6 l-42 8 -7 -49 c-4 -31 -2 -58 4
-70 6 -12 11 -66 11 -121 0 -61 4 -101 10 -101 6 0 10 23 10 51 0 43 3 50 18
47 13 -2 18 -16 22 -58 3 -34 8 -50 13 -42 5 7 7 31 5 54 -2 27 1 43 10 45 8
3 12 -10 12 -46 0 -27 5 -53 10 -56 6 -4 10 15 10 49 0 43 3 56 15 56 12 0 15
-13 15 -55 0 -30 5 -55 10 -55 6 0 10 25 10 55 0 64 2 65 120 64 112 -2 180 3
180 12 0 4 -59 6 -132 3 -145 -5 -168 -1 -168 25 0 24 19 26 200 26 143 0 145
0 148 -22 3 -18 -2 -23 -20 -24 l-23 0 23 -11 c19 -9 22 -19 22 -65 0 -102 17
-52 24 70 6 115 14 170 31 210 8 19 -14 24 -32 6z m3 -35 c-3 -9 -6 -30 -7
-47 l-1 -32 -8 34 c-9 37 -4 61 12 61 6 0 7 -7 4 -16z m-516 2 c0 -3 -4 -8
-10 -11 -5 -3 -10 -1 -10 4 0 6 5 11 10 11 6 0 10 -2 10 -4z m435 -5 l45 -1 0
-55 0 -55 -164 0 c-91 0 -167 4 -170 9 -4 5 -3 16 0 25 5 14 28 16 155 16 93
0 149 4 149 10 0 6 -55 10 -144 10 -119 0 -145 3 -150 15 -3 8 -13 16 -23 17
-23 2 192 13 230 12 15 -1 47 -2 72 -3z m-350 -11 c-3 -5 -10 -10 -16 -10 -5
0 -9 5 -9 10 0 6 7 10 16 10 8 0 12 -4 9 -10z m-61 -72 c5 -21 3 -28 -9 -28
-15 0 -22 40 -8 53 8 9 9 8 17 -25z m50 16 c10 -27 7 -44 -9 -44 -10 0 -15 10
-15 30 0 32 14 40 24 14z m37 -37 c-8 -8 -11 -3 -11 19 1 25 2 27 11 11 8 -14
8 -22 0 -30z m-83 -49 c-5 -34 -38 -37 -38 -4 0 20 5 26 21 26 15 0 20 -5 17
-22z m48 6 c-3 -9 -6 -20 -6 -25 0 -5 -4 -9 -10 -9 -5 0 -10 11 -10 25 0 16 6
25 16 25 11 0 14 -5 10 -16z m44 -10 c0 -16 -5 -24 -12 -21 -20 6 -18 47 3 47
5 0 9 -12 9 -26z"/>
<path d="M577 297 c-51 -27 -58 -34 -52 -55 3 -13 1 -30 -6 -38 -9 -11 -8 -15
2 -18 110 -30 154 -22 75 12 -25 12 -46 26 -46 31 0 6 23 27 50 47 28 20 50
40 50 45 0 13 -9 10 -73 -24z"/>
</g>
</svg>
