<?xml version="1.0" standalone="no"?>
<!DOCTYPE svg PUBLIC "-//W3C//DTD SVG 20010904//EN"
 "http://www.w3.org/TR/2001/REC-SVG-20010904/DTD/svg10.dtd">
<svg version="1.0" xmlns="http://www.w3.org/2000/svg"
 width="107.000000pt" height="51.000000pt" viewBox="0 0 107.000000 51.000000"
 preserveAspectRatio="xMidYMid meet">
<metadata>
Created by potrace 1.16, written by Peter Selinger 2001-2019
</metadata>
<g transform="translate(0.000000,51.000000) scale(0.100000,-0.100000)"
fill="#000000" stroke="none">
<path d="M371 463 c-22 -3 -35 -11 -38 -23 -3 -11 -14 -22 -25 -26 -12 -3 -57
-23 -102 -44 -44 -21 -101 -41 -125 -45 -41 -7 -43 -9 -38 -35 3 -15 1 -32 -5
-38 -14 -14 -3 -29 29 -37 35 -8 133 -56 133 -64 0 -4 -22 -15 -50 -26 -39
-15 -50 -24 -50 -42 0 -38 20 -36 70 6 27 23 56 41 65 41 9 0 41 -16 71 -35
30 -20 59 -33 65 -30 5 4 9 37 9 75 0 53 4 69 16 74 9 3 137 6 286 6 l270 0
-4 -47 c-1 -27 1 -49 7 -51 6 -1 13 37 17 90 4 51 16 124 27 163 11 38 18 71
17 73 -2 1 -22 0 -45 -4 l-42 -7 6 -39 7 -39 -269 3 c-300 3 -276 -4 -258 76
4 17 4 31 -1 30 -5 0 -24 -3 -43 -5z m12 -64 l-7 -34 -7 30 c-6 19 -4 32 4 37
16 10 18 6 10 -33z m597 4 c0 -10 -5 -25 -10 -33 -7 -11 -10 -7 -10 18 0 17 5
32 10 32 6 0 10 -8 10 -17z m-630 -88 c0 -73 -3 -86 -19 -95 -11 -5 -21 -10
-23 -10 -3 0 16 179 21 198 1 2 6 0 11 -3 6 -3 10 -44 10 -90z m-62 -26 c-3
-51 -11 -96 -18 -102 -9 -9 -10 6 -5 68 7 92 13 125 22 125 3 0 3 -41 1 -91z
m-43 -34 c-6 -70 -10 -94 -18 -86 -14 14 -9 161 5 179 18 21 20 7 13 -93z
m703 32 l3 -48 -285 1 -286 1 0 27 c0 15 3 37 6 50 l6 22 277 -2 276 -3 3 -48z
m-749 11 c0 -18 -4 -51 -8 -73 -8 -36 -9 -33 -10 33 -1 42 3 72 9 72 6 0 10
-15 9 -32z m-48 0 c4 -49 5 -88 3 -88 -2 0 -19 14 -39 31 l-36 32 28 18 c33
22 43 23 44 7z m209 -154 c0 -49 1 -48 -34 -33 -38 17 -41 40 -11 67 34 29 45
21 45 -34z"/>
</g>
</svg>
