<?xml version="1.0" standalone="no"?>
<!DOCTYPE svg PUBLIC "-//W3C//DTD SVG 20010904//EN"
 "http://www.w3.org/TR/2001/REC-SVG-20010904/DTD/svg10.dtd">
<svg version="1.0" xmlns="http://www.w3.org/2000/svg"
 width="136.000000pt" height="133.000000pt" viewBox="0 0 136.000000 133.000000"
 preserveAspectRatio="xMidYMid meet">
<metadata>
Created by potrace 1.16, written by Peter Selinger 2001-2019
</metadata>
<g transform="translate(0.000000,133.000000) scale(0.100000,-0.100000)"
fill="#000000" stroke="none">
<path d="M842 1264 c-12 -8 -22 -22 -22 -30 0 -16 -27 -18 -64 -4 l-26 9 3
-64 2 -65 43 0 c23 0 42 5 42 10 0 6 -9 10 -20 10 -11 0 -20 5 -20 10 0 6 9
10 20 10 30 0 24 27 -7 38 l-28 10 31 1 c29 1 32 -2 37 -40 9 -66 5 -69 -84
-69 -43 0 -82 -1 -86 -2 -5 -2 -9 14 -11 35 -2 26 4 52 23 84 14 25 23 48 21
50 -10 11 -69 -10 -73 -26 -3 -13 -14 -15 -58 -13 -39 3 -55 8 -55 18 0 17
-16 18 -27 1 -5 -7 -27 -12 -53 -12 -41 0 -45 -2 -42 -22 3 -19 -7 -25 -90
-51 -51 -17 -119 -36 -150 -43 -61 -14 -65 -20 -59 -87 1 -13 -3 -30 -10 -38
-19 -23 -3 -41 43 -46 23 -3 64 -15 91 -27 l47 -20 0 -51 c0 -36 4 -50 12 -48
8 3 11 20 9 47 l-3 43 51 -27 c27 -15 52 -33 54 -40 3 -6 22 -38 42 -69 24
-37 40 -55 47 -48 6 6 0 23 -16 47 -31 45 -36 84 -6 45 50 -66 49 -66 50 -49
0 8 -16 38 -35 65 -19 27 -35 58 -35 69 0 18 2 18 20 -5 10 -14 27 -42 36 -62
16 -36 34 -50 34 -28 0 6 -18 40 -39 75 -22 36 -37 65 -33 65 4 0 24 -27 45
-60 21 -34 42 -58 47 -55 5 3 -7 29 -26 57 -19 29 -34 56 -34 61 0 18 26 -1
55 -41 17 -22 33 -41 38 -41 14 -2 7 23 -18 55 l-25 32 68 4 c37 2 158 5 270
7 l202 2 0 -31 c0 -28 20 -45 20 -17 2 40 20 206 26 225 6 19 3 22 -25 22 -25
0 -31 -4 -31 -21 0 -18 -5 -20 -42 -17 l-43 3 1 43 c1 43 0 44 -28 38 -27 -5
-31 -2 -49 39 -24 54 -30 58 -57 39z m-410 -91 c-5 -27 -5 -27 -14 -4 -8 24
-2 45 11 36 5 -2 6 -17 3 -32z m458 18 c15 -28 13 -39 -10 -51 -18 -10 -20 -8
-20 30 0 43 13 52 30 21z m-270 -1 c0 -5 -5 -10 -11 -10 -5 0 -7 5 -4 10 3 6
8 10 11 10 2 0 4 -4 4 -10z m-113 -49 c34 -51 31 -65 -14 -56 -50 9 -56 16
-47 59 8 46 29 45 61 -3z m123 -7 c0 -22 -4 -24 -45 -24 -25 0 -45 5 -45 10 0
6 16 10 35 10 19 0 35 5 35 10 0 6 -18 10 -40 10 -22 0 -40 3 -40 8 0 4 22 5
50 4 45 -4 50 -6 50 -28z m-221 -31 c1 -7 -6 -10 -14 -7 -19 8 -19 -1 1 -32 9
-13 14 -27 11 -31 -4 -3 -9 2 -13 11 -6 15 -34 24 -34 10 0 -3 12 -21 26 -40
15 -19 24 -37 21 -40 -3 -3 -13 8 -23 25 -18 31 -34 40 -34 20 0 -6 14 -30 30
-54 32 -47 44 -99 14 -60 -9 11 -25 39 -36 63 -10 23 -23 40 -28 37 -11 -7 10
-62 38 -103 29 -42 34 -52 25 -52 -4 0 -24 27 -42 60 -33 57 -51 74 -51 49 0
-7 9 -27 21 -45 23 -37 16 -43 -20 -18 -22 16 -23 22 -18 80 6 66 2 73 -33 54
-16 -9 -17 -13 -4 -51 8 -23 13 -44 10 -46 -8 -8 -145 74 -146 88 0 11 97 66
161 92 117 46 123 47 131 23 3 -12 6 -26 7 -33z m531 33 c0 -2 3 -11 6 -20 5
-13 -1 -16 -31 -16 -37 0 -38 0 -20 20 16 17 45 28 45 16z m23 -79 c7 -9 10
-9 14 1 3 7 23 12 49 12 l44 0 0 -55 0 -55 -284 0 -284 0 -31 39 c-34 43 -36
42 37 56 24 5 34 3 38 -8 6 -16 59 -14 99 4 41 18 306 23 318 6z m-498 -96
c-8 -8 -35 22 -35 38 0 12 5 10 20 -9 10 -14 17 -27 15 -29z"/>
<path d="M1217 883 c-8 -13 0 -78 9 -77 15 2 35 51 28 68 -6 17 -29 22 -37 9z"/>
<path d="M1170 795 c0 -8 5 -15 10 -15 6 0 10 7 10 15 0 8 -4 15 -10 15 -5 0
-10 -7 -10 -15z"/>
<path d="M557 542 c-13 -3 -17 -10 -14 -23 4 -16 0 -19 -30 -19 -21 0 -41 7
-47 16 -10 14 -14 13 -31 -6 -19 -21 -19 -21 3 -27 18 -4 20 -8 11 -19 -9 -11
-8 -15 5 -20 9 -3 13 -11 10 -16 -4 -6 0 -15 7 -20 11 -7 11 -11 2 -15 -27
-10 -11 -22 35 -26 26 -2 1 -4 -55 -5 -130 -3 -135 -1 -127 49 6 38 6 39 -25
39 -23 0 -31 -5 -31 -18 0 -19 -87 -60 -175 -83 -64 -16 -77 -26 -65 -49 6
-12 5 -23 -5 -36 -23 -30 -18 -44 15 -44 16 0 52 -5 80 -11 l52 -11 -4 -51
c-2 -29 1 -53 7 -55 6 -1 11 20 13 48 2 27 5 50 8 50 18 0 70 -50 96 -91 16
-27 32 -49 35 -49 3 0 11 8 18 17 11 14 9 22 -11 49 -36 47 -29 49 13 3 49
-54 55 -32 7 26 -20 25 -34 48 -32 51 3 3 28 -22 54 -55 27 -33 52 -60 57 -60
13 -1 7 26 -8 39 -34 28 -77 90 -62 90 8 0 34 -27 58 -60 28 -38 47 -56 53
-50 6 6 -5 27 -32 59 -25 30 -37 50 -29 53 6 1 90 2 184 0 l173 -3 6 -25 c11
-43 27 -14 21 40 -5 46 1 76 28 139 7 17 3 18 -66 11 -41 -4 -96 -8 -124 -7
l-50 0 0 86 c0 47 -2 87 -5 89 -3 2 -13 2 -23 0z m-7 -70 c0 -5 -13 -7 -30 -4
-16 2 -30 6 -30 8 0 2 14 4 30 4 17 0 30 -4 30 -8z m-10 -32 c-20 -13 -40 -13
-40 0 0 6 12 10 28 10 21 0 24 -2 12 -10z m-243 -42 c-3 -8 -6 -5 -6 6 -1 11
2 17 5 13 3 -3 4 -12 1 -19z m263 13 c0 -11 -49 -21 -55 -11 -7 11 1 15 29 18
14 1 26 -2 26 -7z m-280 -65 c0 -19 -4 -38 -10 -41 -6 -4 -4 -18 6 -38 11 -24
12 -28 1 -14 -14 17 -47 14 -47 -4 0 -5 -7 -9 -16 -9 -10 0 -14 -6 -10 -15 3
-8 1 -15 -4 -15 -15 0 -12 37 5 70 17 32 10 42 -24 33 -19 -5 -22 -12 -20 -47
2 -29 -1 -40 -10 -38 -22 5 -71 46 -68 57 4 13 156 93 180 94 13 1 17 -7 17
-33z m490 -61 l0 -54 -196 3 -196 2 -35 42 -34 41 33 5 c62 11 103 13 266 14
l162 2 0 -55z m-690 31 c0 -3 -4 -8 -10 -11 -5 -3 -10 -1 -10 4 0 6 5 11 10
11 6 0 10 -2 10 -4z m256 -73 c-7 -7 -26 7 -26 19 0 6 6 6 15 -2 9 -7 13 -15
11 -17z m-66 -23 c6 -11 8 -20 6 -20 -3 0 -10 9 -16 20 -6 11 -8 20 -6 20 3 0
10 -9 16 -20z"/>
<path d="M1090 400 c-7 -13 -21 -20 -41 -20 -22 0 -32 -5 -36 -20 -6 -22 -28
-25 -69 -10 -15 6 -28 9 -30 8 -9 -10 -13 -129 -5 -150 9 -25 10 -25 58 -13
42 11 50 11 61 -3 6 -9 12 -22 12 -29 0 -21 14 -15 34 16 11 16 35 41 54 57
33 26 36 26 48 9 8 -10 14 -29 14 -42 0 -13 5 -23 10 -23 6 0 8 20 4 53 -4 32
-2 62 4 74 15 27 4 36 -21 18 -19 -13 -22 -12 -44 17 -13 18 -23 40 -23 49 0
27 -18 32 -30 9z m33 -78 c15 -15 27 -32 27 -38 0 -8 -90 -64 -103 -64 -3 0
-4 8 -2 18 2 9 7 38 10 65 7 56 27 62 68 19z m-99 -24 c8 -31 -4 -39 -45 -31
l-34 7 29 6 c39 7 35 23 -6 31 -32 6 -32 6 8 8 35 1 43 -2 48 -21z m-7 -64 c2
-6 -14 -8 -39 -5 -41 5 -42 5 -13 12 35 8 48 6 52 -7z"/>
<path d="M1263 179 c-16 -16 -5 -39 19 -39 14 0 19 6 16 22 -4 25 -19 33 -35
17z"/>
</g>
</svg>
