<?xml version="1.0" standalone="no"?>
<!DOCTYPE svg PUBLIC "-//W3C//DTD SVG 20010904//EN"
 "http://www.w3.org/TR/2001/REC-SVG-20010904/DTD/svg10.dtd">
<svg version="1.0" xmlns="http://www.w3.org/2000/svg"
 width="121.000000pt" height="42.000000pt" viewBox="0 0 121.000000 42.000000"
 preserveAspectRatio="xMidYMid meet">
<metadata>
Created by potrace 1.16, written by Peter Selinger 2001-2019
</metadata>
<g transform="translate(0.000000,42.000000) scale(0.100000,-0.100000)"
fill="#000000" stroke="none">
<path d="M110 315 c0 -9 -10 -15 -26 -15 -25 0 -25 -1 -18 -42 4 -24 8 -73 8
-110 1 -36 4 -70 9 -74 4 -4 7 6 7 23 0 43 23 48 198 45 126 -2 152 -5 152
-17 0 -8 5 -15 10 -15 6 0 10 21 10 48 1 26 5 67 11 92 5 25 11 51 12 58 2 10
-39 14 -185 18 -162 3 -188 2 -188 -11z m318 -20 c4 -3 8 -35 10 -70 l4 -65
-93 1 c-152 2 -231 12 -242 30 -16 26 0 87 26 95 58 19 279 25 295 9z"/>
<path d="M940 225 c0 -96 0 -97 23 -91 12 3 48 6 80 6 62 0 81 19 20 21 -21 1
-49 4 -63 8 -19 6 -7 10 50 16 l75 9 -70 11 c-69 10 -70 11 -30 18 22 4 55 7
73 7 17 0 32 5 32 10 0 6 -32 10 -75 10 -43 0 -75 4 -75 10 0 9 47 14 128 13
17 0 32 3 32 8 0 11 -31 18 -105 22 -33 2 -68 7 -77 11 -17 7 -18 0 -18 -89z"/>
<path d="M710 307 c-3 -3 -4 -47 -2 -97 3 -89 4 -92 25 -86 12 3 48 9 80 13
82 9 81 23 -2 23 -38 0 -72 4 -75 9 -6 10 50 21 107 21 23 0 36 4 32 10 -3 6
-33 10 -65 10 -32 0 -61 4 -64 9 -6 10 41 21 90 21 18 0 36 5 39 10 4 6 -21
10 -67 11 -81 1 -61 16 25 18 56 1 64 21 8 21 -21 0 -58 3 -82 6 -24 3 -46 4
-49 1z"/>
<path d="M637 268 l-28 -31 30 -62 c17 -35 31 -68 31 -74 0 -6 5 -11 11 -11 8
0 10 18 6 58 -4 31 -6 78 -7 105 0 26 -3 47 -8 47 -4 0 -20 -14 -35 -32z m26
-43 c3 -16 0 -24 -7 -22 -14 4 -21 47 -8 47 5 0 12 -11 15 -25z"/>
</g>
</svg>
