<?xml version="1.0" standalone="no"?>
<!DOCTYPE svg PUBLIC "-//W3C//DTD SVG 20010904//EN"
 "http://www.w3.org/TR/2001/REC-SVG-20010904/DTD/svg10.dtd">
<svg version="1.0" xmlns="http://www.w3.org/2000/svg"
 width="74.000000pt" height="86.000000pt" viewBox="0 0 74.000000 86.000000"
 preserveAspectRatio="xMidYMid meet">
<metadata>
Created by potrace 1.16, written by Peter Selinger 2001-2019
</metadata>
<g transform="translate(0.000000,86.000000) scale(0.100000,-0.100000)"
fill="#000000" stroke="none">
<path d="M512 813 l-20 -28 74 -73 c41 -40 74 -78 74 -85 -1 -18 -145 -107
-174 -107 -26 0 -26 0 -26 85 0 67 5 95 20 126 22 43 20 59 -10 59 -10 0 -22
5 -25 10 -14 23 -27 9 -22 -25 l6 -35 -143 0 c-151 0 -162 3 -179 53 -11 29
-26 19 -25 -17 1 -19 -5 -48 -12 -65 -17 -41 -7 -50 29 -23 25 18 48 22 157
27 71 3 139 8 152 11 21 4 22 1 24 -51 0 -30 1 -61 2 -67 1 -8 -14 -14 -39
-16 -29 -2 -36 0 -25 7 27 18 -1 26 -31 8 -27 -15 -79 -24 -79 -13 0 2 7 23
15 46 18 50 18 50 5 50 -8 0 -75 -42 -89 -55 -2 -3 7 -13 20 -24 l24 -20 -36
-1 c-22 0 -50 9 -70 23 -19 13 -38 26 -44 29 -6 4 -10 -18 -10 -58 0 -63 6
-77 22 -50 4 7 18 18 30 25 25 12 123 15 123 3 0 -18 -26 -32 -61 -32 -47 0
-50 -6 -36 -53 14 -43 28 -47 51 -13 8 14 27 37 42 51 l26 26 30 -40 c28 -39
48 -52 48 -32 0 4 -13 25 -30 46 -16 20 -27 41 -24 46 3 5 36 9 75 9 l69 0 0
-95 0 -94 -32 -5 c-18 -3 -84 -7 -147 -10 l-114 -5 -29 30 c-16 16 -31 29 -34
29 -2 0 -4 -21 -4 -46 0 -25 -5 -54 -10 -65 -17 -30 -1 -44 22 -20 43 47 61
52 207 58 l141 6 0 -66 0 -67 -62 0 c-54 0 -60 2 -44 13 11 8 17 19 15 25 -3
8 -14 3 -31 -13 -15 -14 -29 -25 -31 -25 -12 0 -16 50 -7 80 5 19 8 35 6 37
-1 2 -26 -7 -54 -19 -48 -21 -69 -48 -38 -48 15 0 66 -38 66 -49 0 -5 -23 -11
-52 -13 -39 -4 -59 -1 -82 13 -46 28 -56 32 -63 25 -4 -3 -1 -12 5 -18 15 -15
15 -53 1 -80 -8 -14 -8 -23 0 -31 7 -7 12 -5 17 6 9 25 64 54 114 61 43 6 44
6 20 -8 -14 -9 -33 -15 -42 -16 -26 0 -29 -14 -11 -59 16 -40 43 -56 43 -26 0
16 43 90 58 99 5 3 15 -13 22 -34 7 -22 17 -40 22 -40 12 0 10 16 -6 55 -16
39 -14 42 29 43 17 0 35 1 40 2 30 6 65 -2 65 -14 0 -8 -4 -16 -9 -18 -13 -4
-18 -100 -6 -105 6 -2 19 11 29 29 37 64 144 183 219 244 l38 31 -65 60 c-83
76 -86 98 -19 142 25 17 50 31 55 31 20 0 4 40 -37 90 -25 30 -53 76 -63 103
-9 26 -20 47 -24 47 -3 0 -15 -12 -26 -27z m28 -33 c0 -5 -2 -10 -4 -10 -3 0
-8 5 -11 10 -3 6 -1 10 4 10 6 0 11 -4 11 -10z m-90 -17 c0 -5 -4 -14 -9 -21
-6 -10 -10 -9 -14 7 -3 14 0 21 9 21 8 0 14 -3 14 -7z m-350 -34 c0 -5 -4 -9
-10 -9 -5 0 -10 7 -10 16 0 8 5 12 10 9 6 -3 10 -10 10 -16z m130 -99 c0 -5
-4 -10 -10 -10 -5 0 -10 5 -10 10 0 6 5 10 10 10 6 0 10 -4 10 -10z m-126 -39
c3 -5 -1 -11 -9 -15 -9 -3 -15 0 -15 9 0 16 16 20 24 6z m68 -103 c-7 -7 -12
-8 -12 -2 0 14 12 26 19 19 2 -3 -1 -11 -7 -17z m298 -7 c-15 -29 -30 -35 -30
-13 0 22 8 32 27 32 10 0 11 -5 3 -19z m78 -18 c55 -40 102 -85 102 -98 0 -7
-20 -26 -45 -44 -25 -18 -50 -41 -55 -52 -11 -20 -86 -79 -102 -79 -4 0 -8 48
-8 107 0 104 1 107 33 149 17 24 33 44 35 44 2 0 20 -12 40 -27z m-444 -112
c3 -5 -1 -11 -9 -15 -9 -3 -15 0 -15 9 0 16 16 20 24 6z m-4 -161 c0 -5 -4
-10 -10 -10 -5 0 -10 5 -10 10 0 6 5 10 10 10 6 0 10 -4 10 -10z m343 -46
c-11 -17 -19 -22 -21 -14 -3 7 3 19 14 27 26 19 27 17 7 -13z m-243 -3 c0 -5
-6 -14 -14 -20 -11 -9 -16 -9 -21 0 -4 6 -1 15 6 20 18 11 29 11 29 0z"/>
</g>
</svg>
