<?xml version="1.0" standalone="no"?>
<!DOCTYPE svg PUBLIC "-//W3C//DTD SVG 20010904//EN"
 "http://www.w3.org/TR/2001/REC-SVG-20010904/DTD/svg10.dtd">
<svg version="1.0" xmlns="http://www.w3.org/2000/svg"
 width="131.000000pt" height="227.000000pt" viewBox="0 0 131.000000 227.000000"
 preserveAspectRatio="xMidYMid meet">
<metadata>
Created by potrace 1.16, written by Peter Selinger 2001-2019
</metadata>
<g transform="translate(0.000000,227.000000) scale(0.100000,-0.100000)"
fill="#000000" stroke="none">
<path d="M586 2218 c-14 -16 -16 -26 -9 -37 8 -12 1 -27 -30 -63 l-40 -48 26
-24 c15 -14 27 -27 27 -30 0 -7 -154 6 -163 14 -5 4 -4 25 2 45 6 21 8 42 6
46 -8 11 -60 -6 -60 -20 0 -12 -95 -72 -147 -92 -15 -6 -44 -19 -64 -30 -21
-10 -46 -19 -55 -19 -28 0 -38 -23 -37 -88 1 -58 2 -62 24 -62 28 0 32 16 6
23 -11 3 -7 5 10 6 15 0 30 -3 33 -9 3 -5 1 -10 -4 -10 -6 0 -11 -4 -11 -8 0
-5 28 -15 63 -23 l62 -14 3 -63 c2 -37 7 -60 13 -57 5 4 6 17 3 31 -3 13 -3
35 0 48 5 19 11 23 28 19 13 -3 29 -11 37 -17 8 -6 24 -11 35 -11 15 0 22 -7
24 -28 5 -41 22 -22 22 25 0 35 2 39 15 28 9 -8 15 -9 15 -2 0 6 -4 14 -10 17
-5 3 -10 11 -10 18 0 8 3 8 12 -1 17 -17 33 -15 18 3 -10 12 -9 16 6 22 11 5
142 8 292 8 149 0 272 3 272 6 0 8 -239 19 -406 19 l-134 0 -35 48 c-35 48
-43 76 -24 87 17 11 134 23 163 18 l28 -6 -38 -38 c-57 -58 -32 -60 29 -2 l52
50 170 6 c94 3 178 9 187 12 28 11 38 -33 38 -161 0 -63 4 -113 9 -110 4 3 10
49 13 103 3 64 11 109 21 130 10 18 17 44 17 58 0 25 -2 26 -32 20 -18 -3 -42
-10 -53 -16 -27 -12 -335 -26 -335 -15 0 5 8 15 18 22 15 11 15 15 3 36 -8 13
-30 52 -49 88 -18 36 -35 66 -36 67 -1 1 -10 -7 -20 -19z m69 -119 c7 -21 -21
-75 -44 -84 -14 -6 -71 40 -71 58 0 4 16 24 37 43 34 32 37 33 54 18 10 -9 21
-25 24 -35z m-269 -5 c-3 -9 -6 -23 -7 -32 -1 -10 -4 -7 -8 8 -9 28 -5 40 11
40 5 0 7 -7 4 -16z m-28 -66 c10 -50 8 -56 -13 -38 -27 23 -28 2 -1 -30 14
-17 26 -43 26 -57 0 -24 -2 -23 -30 15 -17 23 -35 42 -40 42 -16 0 -12 -8 31
-65 22 -30 39 -59 37 -66 -3 -9 -34 27 -105 120 -2 2 -14 -1 -27 -7 -22 -10
-23 -13 -14 -56 5 -25 8 -57 6 -71 l-3 -25 -60 31 c-115 61 -107 55 -92 70 31
29 254 177 269 178 4 1 11 -18 16 -41z m702 -12 c0 -8 -4 -18 -10 -21 -5 -3
-10 3 -10 14 0 12 5 21 10 21 6 0 10 -6 10 -14z m-940 -64 c0 -4 -14 -16 -31
-26 -23 -14 -30 -15 -27 -5 3 8 15 20 29 26 29 15 29 15 29 5z m160 -59 c1 -5
21 -30 45 -57 25 -28 45 -58 45 -68 0 -10 -1 -18 -3 -18 -2 0 -18 21 -35 48
-17 26 -40 57 -51 69 -12 12 -21 25 -21 28 0 8 20 6 20 -2z m147 -49 c-12 -13
-37 6 -37 28 l0 22 22 -21 c12 -13 19 -25 15 -29z m-97 -76 c0 -19 -20 -5 -44
32 -38 57 -32 70 9 19 19 -24 35 -47 35 -51z m-60 21 c0 -5 -4 -9 -10 -9 -5 0
-10 7 -10 16 0 8 5 12 10 9 6 -3 10 -10 10 -16z"/>
<path d="M485 1763 c4 -21 9 -85 11 -143 2 -58 7 -104 12 -103 45 10 152 24
206 26 36 1 66 5 66 9 0 3 -35 9 -77 13 -142 11 -174 17 -180 31 -5 14 10 135
23 182 6 20 3 22 -31 22 l-38 0 8 -37z m35 -10 c0 -20 -3 -24 -11 -16 -7 7 -9
19 -6 27 10 24 17 19 17 -11z m41 -205 c-35 -10 -55 -3 -33 11 8 4 25 6 40 3
27 -5 27 -6 -7 -14z"/>
<path d="M340 1711 c0 -5 5 -13 10 -16 6 -3 10 -2 10 4 0 5 -4 13 -10 16 -5 3
-10 2 -10 -4z"/>
<path d="M1173 1660 c1 -45 13 -52 27 -15 11 29 4 55 -16 55 -9 0 -12 -12 -11
-40z"/>
<path d="M606 1363 c-19 -25 -19 -26 4 -43 29 -22 22 -45 -33 -99 l-42 -42 30
-24 30 -24 -104 -1 -104 0 6 48 c3 26 7 56 9 67 2 16 -3 20 -27 20 -23 0 -31
-5 -33 -21 -3 -24 -126 -110 -231 -163 -56 -29 -78 -51 -50 -51 6 0 9 -8 6
-17 -18 -57 -19 -63 -8 -63 6 0 48 -14 91 -31 l80 -30 0 -51 c0 -35 4 -48 12
-45 8 2 12 19 11 41 -1 20 0 36 3 36 21 0 104 -58 104 -72 0 -10 5 -18 10 -18
6 0 10 16 10 35 0 19 3 35 7 35 3 0 21 -12 40 -26 19 -14 37 -23 41 -19 4 4
-6 17 -22 29 -75 55 -73 53 -51 70 11 9 30 14 43 11 12 -3 22 -1 22 5 0 6 4 9
10 5 5 -3 8 -11 6 -18 -1 -7 -1 -9 1 -4 3 4 11 7 19 7 9 0 12 4 9 10 -8 12 20
18 128 24 48 3 125 9 172 12 l85 7 0 -42 c0 -26 4 -40 10 -36 6 3 10 25 10 48
0 35 16 136 31 197 3 12 -5 14 -36 12 -22 -1 -85 -5 -140 -8 l-100 -6 44 39
45 39 -53 63 c-28 35 -55 76 -58 92 -7 35 -13 36 -37 2z m82 -113 c14 -23 1
-57 -38 -97 -27 -29 -34 -29 -48 2 -17 38 -16 43 23 81 41 40 46 41 63 14z
m-309 -27 c-1 -10 -5 -29 -9 -43 -7 -21 -8 -19 -9 18 -1 23 4 42 9 42 6 0 10
-8 9 -17z m-29 -88 c17 -82 12 -94 -26 -61 -18 14 -34 26 -37 26 -3 0 -3 -20
-1 -44 3 -27 0 -47 -7 -52 -8 -4 -9 0 -4 15 6 19 2 21 -29 21 l-36 0 7 -57 6
-58 -31 25 c-17 14 -43 33 -57 44 l-27 18 29 30 c38 41 176 145 195 147 4 1
12 -24 18 -54z m525 -62 c4 -27 9 -56 12 -66 2 -9 -2 -19 -9 -22 -7 -3 -103
-9 -213 -14 l-200 -10 -40 28 c-27 20 -41 38 -43 56 -4 34 7 42 77 50 113 12
141 13 141 7 0 -4 -16 -24 -35 -44 -20 -20 -32 -39 -26 -42 5 -3 23 10 41 30
23 27 34 34 43 25 18 -18 29 -13 17 8 -5 11 -10 22 -10 25 0 3 42 7 93 9 50 1
104 4 119 5 25 2 27 -1 33 -45z m35 12 c0 -19 -4 -35 -10 -35 -5 0 -10 16 -10
35 0 19 5 35 10 35 6 0 10 -16 10 -35z m-800 -40 c-7 -8 -17 -15 -22 -15 -6 0
-5 7 2 15 7 8 17 15 22 15 6 0 5 -7 -2 -15z m137 -62 c-3 -10 -5 -4 -5 12 0
17 2 24 5 18 2 -7 2 -21 0 -30z m108 -13 c12 -19 -12 -10 -31 11 -19 22 -19
22 3 10 12 -6 25 -16 28 -21z m-220 -5 c17 -13 24 -24 17 -25 -18 0 -72 32
-72 42 0 15 25 8 55 -17z m270 7 c-3 -3 -11 0 -18 7 -9 10 -8 11 6 5 10 -3 15
-9 12 -12z m-50 -60 c-3 -3 -18 7 -33 23 l-27 28 33 -23 c18 -12 31 -25 27
-28z m-38 -17 c37 -22 56 -45 37 -45 -13 0 -94 53 -94 61 0 14 10 11 57 -16z"/>
<path d="M1015 1211 c-2 -5 0 -23 5 -42 9 -36 15 -105 12 -151 -2 -21 -7 -28
-23 -28 -18 0 -20 -4 -14 -32 4 -18 8 -34 9 -34 0 -1 33 6 71 16 39 11 94 19
123 19 33 1 51 5 47 11 -3 6 -46 10 -96 10 l-89 0 0 59 c0 33 4 70 9 83 4 13
11 39 15 60 7 36 6 36 -29 36 -19 0 -37 -3 -40 -7z m45 -40 c0 -42 -15 -46
-17 -5 -1 19 3 34 8 34 5 0 9 -13 9 -29z m-20 -211 c0 -5 -4 -10 -10 -10 -5 0
-10 5 -10 10 0 6 5 10 10 10 6 0 10 -4 10 -10z"/>
<path d="M410 890 c0 -5 5 -10 10 -10 6 0 10 5 10 10 0 6 -4 10 -10 10 -5 0
-10 -4 -10 -10z"/>
<path d="M1222 865 c2 -45 14 -54 29 -21 14 29 6 56 -15 56 -11 0 -15 -10 -14
-35z"/>
<path d="M465 850 c3 -5 11 -10 16 -10 6 0 7 5 4 10 -3 6 -11 10 -16 10 -6 0
-7 -4 -4 -10z"/>
<path d="M552 625 c-17 -37 -15 -42 13 -49 40 -10 39 -29 -4 -101 -23 -37 -41
-75 -41 -85 0 -12 -7 -17 -22 -15 -13 1 -45 3 -72 4 l-49 1 5 75 c3 41 2 75
-2 75 -19 0 -55 -40 -55 -61 0 -20 -15 -31 -92 -69 -50 -25 -101 -57 -113 -72
-12 -16 -26 -28 -32 -28 -6 0 -5 6 2 15 16 19 9 28 -15 19 -14 -6 -16 -15 -12
-45 3 -22 1 -42 -4 -45 -22 -13 0 -28 59 -40 107 -22 116 -30 124 -103 11 -99
23 -91 18 11 -1 21 1 38 4 38 4 0 26 -9 51 -21 35 -16 45 -27 45 -45 0 -26 7
-29 29 -15 12 8 12 12 2 24 -14 17 -12 95 3 104 5 3 21 -9 37 -28 33 -40 51
-33 19 8 -24 31 -10 45 19 19 21 -20 35 -21 28 -3 -4 11 28 15 161 21 92 4
178 8 192 9 23 2 25 -2 28 -43 2 -25 7 -49 13 -54 5 -6 9 27 9 87 0 53 3 97 8
98 4 0 21 2 37 5 45 6 277 23 284 21 3 -1 8 2 11 7 3 6 -64 10 -170 10 l-175
1 -3 28 c-2 15 4 41 12 59 9 17 16 33 16 35 0 1 -18 3 -40 3 -43 0 -50 -12
-25 -46 8 -10 14 -30 15 -44 0 -18 -3 -21 -9 -11 -7 11 -29 13 -105 8 -102 -6
-118 2 -66 31 16 9 30 20 30 23 0 3 -13 18 -28 35 -40 42 -90 116 -98 147 -8
34 -27 35 -42 2z m102 -137 c22 -31 20 -41 -10 -77 -29 -35 -59 -40 -74 -12
-15 28 -13 32 21 74 35 43 42 45 63 15z m-304 -72 c0 -8 -5 -16 -10 -18 -6 -2
-2 -20 10 -43 11 -21 20 -48 20 -60 -1 -19 -1 -19 -20 3 -10 12 -20 27 -22 34
-2 6 -10 9 -17 7 -8 -3 -2 -18 19 -47 17 -24 30 -51 28 -60 -2 -10 -12 -2 -31
27 -15 23 -32 39 -38 36 -9 -6 40 -77 62 -90 5 -4 9 -20 9 -37 0 -29 -3 -27
-45 38 -36 54 -45 77 -45 112 0 39 -2 43 -22 40 -25 -3 -26 -7 -14 -105 9 -77
3 -79 -84 -23 -60 40 -62 42 -45 60 10 11 23 20 28 20 6 0 18 6 26 14 18 16
172 104 184 105 4 1 7 -5 7 -13z m496 -87 c5 -28 11 -39 20 -35 10 4 14 -3 14
-19 0 -14 -6 -26 -12 -26 -52 -5 -92 -7 -229 -14 -140 -7 -158 -6 -182 10 -24
15 -27 16 -21 1 5 -12 0 -16 -19 -16 -26 0 -37 16 -37 52 0 17 2 18 15 8 23
-19 31 -3 10 20 -10 11 -16 22 -14 24 7 6 148 24 166 21 13 -2 17 -10 16 -30
-2 -21 1 -25 14 -20 11 4 24 -4 39 -22 29 -34 32 -12 4 27 -32 44 -8 53 152
58 l58 2 6 -41z m-739 -95 c-3 -3 -12 -4 -19 -1 -8 3 -5 6 6 6 11 1 17 -2 13
-5z m223 -89 c0 -2 -16 5 -35 16 -32 19 -45 46 -29 62 6 6 64 -65 64 -78z"/>
<path d="M1204 179 c-9 -16 12 -33 31 -25 14 5 15 9 5 21 -15 18 -26 19 -36 4z"/>
</g>
</svg>
