<?xml version="1.0" standalone="no"?>
<!DOCTYPE svg PUBLIC "-//W3C//DTD SVG 20010904//EN"
 "http://www.w3.org/TR/2001/REC-SVG-20010904/DTD/svg10.dtd">
<svg version="1.0" xmlns="http://www.w3.org/2000/svg"
 width="96.000000pt" height="64.000000pt" viewBox="0 0 96.000000 64.000000"
 preserveAspectRatio="xMidYMid meet">
<metadata>
Created by potrace 1.16, written by Peter Selinger 2001-2019
</metadata>
<g transform="translate(0.000000,64.000000) scale(0.100000,-0.100000)"
fill="#000000" stroke="none">
<path d="M715 569 c-22 -4 -89 -21 -150 -38 -60 -17 -124 -31 -140 -31 -28 0
-32 -4 -43 -46 -12 -43 -11 -48 8 -61 20 -14 28 -53 11 -53 -5 0 -16 16 -25
35 -18 38 -32 50 -40 36 -3 -5 -59 -26 -124 -46 -148 -46 -146 -46 -153 -86
-4 -19 -9 -41 -13 -50 -6 -13 4 -15 63 -16 72 -2 124 -20 135 -48 3 -9 6 -41
6 -71 0 -30 5 -54 10 -54 6 0 10 31 10 73 0 41 3 76 6 80 14 14 59 -22 106
-86 29 -39 54 -65 56 -58 2 6 -12 33 -32 60 -20 27 -36 50 -36 53 0 2 9 4 20
4 14 0 20 -7 20 -24 0 -18 4 -23 16 -18 10 4 22 -1 29 -11 8 -10 17 -15 21
-11 4 4 -5 23 -20 42 -25 33 -36 96 -17 96 5 0 23 -17 39 -37 17 -21 33 -35
37 -31 4 3 -3 16 -14 27 -12 12 -21 26 -21 31 0 15 30 12 36 -4 3 -8 12 -17
21 -20 12 -5 14 -1 10 14 -5 19 0 20 109 20 l114 0 0 -30 c0 -16 5 -30 10 -30
6 0 10 21 11 48 0 26 6 83 14 127 10 64 11 82 1 90 -7 6 -19 35 -26 65 -8 30
-16 58 -19 61 -3 3 -24 2 -46 -2z m10 -28 c-3 -10 1 -24 10 -31 20 -17 19 -42
-2 -38 -24 4 -41 67 -22 79 20 12 21 11 14 -10z m-50 -22 c-4 -13 -1 -27 10
-40 16 -17 16 -19 1 -25 -25 -10 -43 2 -50 32 -6 21 -3 32 10 41 26 19 36 16
29 -8z m-62 -39 c19 -31 16 -50 -8 -50 -11 0 -35 48 -35 71 0 20 27 7 43 -21z
m-76 6 c-3 -8 3 -22 14 -32 23 -21 24 -34 3 -34 -33 0 -59 62 -31 73 19 8 19
8 14 -7z m-46 -44 l22 -19 -33 -6 c-39 -8 -44 -5 -35 22 8 26 16 26 46 3z
m273 -17 c-12 -9 -41 -14 -79 -14 l-60 0 40 15 c22 8 45 12 52 10 7 -3 13 -1
13 4 0 12 33 18 44 8 6 -5 2 -14 -10 -23z m26 -36 c0 -11 -4 -17 -10 -14 -5 3
-10 13 -10 21 0 8 5 14 10 14 6 0 10 -9 10 -21z m-125 1 l83 0 11 -31 c6 -18
11 -47 11 -65 l0 -33 -122 0 -123 0 -37 54 c-20 29 -34 56 -30 59 3 3 19 6 36
6 17 0 38 5 46 10 8 5 21 8 28 5 8 -3 51 -5 97 -5z m-335 -25 c0 -8 7 -15 15
-15 23 0 55 -37 55 -65 0 -35 -29 -32 -41 5 -13 37 -22 38 -38 4 -10 -23 -9
-26 8 -31 24 -6 67 -73 48 -73 -18 0 -40 20 -62 54 -17 28 -18 29 -32 10 -14
-18 -14 -17 -8 14 7 36 -6 42 -39 17 -13 -10 -17 -21 -12 -39 6 -24 5 -25 -26
-19 -44 9 -98 31 -98 41 0 9 32 26 145 78 81 38 85 39 85 19z m141 -61 c30
-44 30 -46 9 -42 -29 4 -63 48 -54 71 3 9 8 17 10 17 1 0 17 -21 35 -46z
m-374 -70 c-3 -3 -12 -4 -19 -1 -8 3 -5 6 6 6 11 1 17 -2 13 -5z"/>
</g>
</svg>
