<?xml version="1.0" standalone="no"?>
<!DOCTYPE svg PUBLIC "-//W3C//DTD SVG 20010904//EN"
 "http://www.w3.org/TR/2001/REC-SVG-20010904/DTD/svg10.dtd">
<svg version="1.0" xmlns="http://www.w3.org/2000/svg"
 width="147.000000pt" height="50.000000pt" viewBox="0 0 147.000000 50.000000"
 preserveAspectRatio="xMidYMid meet">
<metadata>
Created by potrace 1.16, written by Peter Selinger 2001-2019
</metadata>
<g transform="translate(0.000000,50.000000) scale(0.100000,-0.100000)"
fill="#000000" stroke="none">
<path d="M578 444 c-4 -3 -2 -20 3 -37 5 -18 9 -43 9 -56 0 -19 -2 -21 -15
-11 -8 6 -20 27 -27 46 -6 19 -15 34 -18 34 -6 0 -40 -54 -40 -63 0 -3 16 -11
35 -17 19 -6 35 -15 35 -18 0 -7 -71 -7 -100 0 -9 2 -16 -6 -18 -19 -3 -23 -1
-23 101 -8 39 6 33 -6 -17 -37 -35 -21 -43 -31 -39 -47 8 -32 27 -25 59 21
l29 42 3 -47 c4 -61 22 -61 22 -1 0 31 8 59 22 82 20 32 20 35 4 29 -17 -7
-18 -3 -12 53 6 54 5 60 -12 60 -10 0 -21 -3 -24 -6z m-51 -86 c-3 -8 -6 -5
-6 6 -1 11 2 17 5 13 3 -3 4 -12 1 -19z"/>
<path d="M825 441 c-6 -5 -21 -11 -35 -13 -16 -2 -25 -9 -24 -20 0 -10 1 -48
2 -85 2 -63 3 -65 20 -50 13 12 37 17 78 17 l60 0 32 -62 c62 -121 84 -158 93
-152 5 3 9 38 10 77 0 40 5 88 12 107 12 35 12 35 97 47 85 11 84 11 -79 10
l-165 -2 -36 64 c-38 67 -49 78 -65 62z m44 -74 l34 -42 -44 -5 c-57 -7 -69
-3 -69 25 0 37 18 75 32 69 7 -3 28 -24 47 -47z m171 -160 c0 -50 -2 -88 -4
-86 -10 11 -94 168 -91 171 2 2 24 4 49 5 l46 1 0 -91z"/>
<path d="M247 426 c-4 -9 -15 -12 -31 -9 l-26 5 5 -118 5 -119 -31 68 c-18 37
-36 67 -40 67 -15 0 -10 -37 6 -50 8 -7 15 -18 15 -25 0 -6 11 -34 25 -61 14
-27 25 -52 25 -56 0 -3 -12 -20 -26 -37 -41 -49 -13 -36 41 19 53 53 65 60 65
33 0 -32 14 4 19 49 1 4 21 21 46 39 25 18 45 36 45 40 0 5 -25 34 -55 66 -31
31 -58 68 -61 80 -7 26 -19 30 -27 9z m-30 -48 c-3 -7 -5 -2 -5 12 0 14 2 19
5 13 2 -7 2 -19 0 -25z m76 -25 c5 -3 3 -9 -4 -14 -10 -6 -13 -26 -11 -69 3
-56 1 -63 -27 -96 l-31 -35 0 98 c0 130 4 145 37 132 14 -5 30 -12 36 -16z
m57 -65 c0 -5 -12 -21 -26 -36 l-25 -27 7 40 c4 22 9 44 11 48 6 9 33 -11 33
-25z"/>
<path d="M1302 422 c-20 -16 -22 -22 -13 -46 15 -38 14 -43 -11 -51 -23 -7
-23 -8 -2 -12 19 -4 20 -9 16 -53 -3 -29 0 -50 5 -50 6 0 13 34 16 75 4 41 13
90 21 109 20 48 8 59 -32 28z"/>
<path d="M99 373 c-13 -9 -26 -18 -28 -19 -1 -1 0 -8 4 -14 5 -8 10 -8 20 0 8
7 18 9 23 6 6 -3 12 3 15 14 7 28 -5 32 -34 13z"/>
</g>
</svg>
