<?xml version="1.0" standalone="no"?>
<!DOCTYPE svg PUBLIC "-//W3C//DTD SVG 20010904//EN"
 "http://www.w3.org/TR/2001/REC-SVG-20010904/DTD/svg10.dtd">
<svg version="1.0" xmlns="http://www.w3.org/2000/svg"
 width="95.000000pt" height="56.000000pt" viewBox="0 0 95.000000 56.000000"
 preserveAspectRatio="xMidYMid meet">
<metadata>
Created by potrace 1.16, written by Peter Selinger 2001-2019
</metadata>
<g transform="translate(0.000000,56.000000) scale(0.100000,-0.100000)"
fill="#000000" stroke="none">
<path d="M118 498 c-2 -18 -8 -22 -28 -21 l-25 3 3 -203 c2 -111 6 -205 10
-209 4 -4 50 -3 102 2 52 5 120 10 151 10 l56 0 6 47 c4 27 9 91 13 143 3 52
12 119 21 149 16 61 11 70 -42 71 -50 1 -219 19 -242 25 -17 6 -22 2 -25 -17z
m52 -14 c0 -2 -7 -4 -15 -4 -8 0 -15 4 -15 10 0 5 7 7 15 4 8 -4 15 -8 15 -10z
m216 -161 c-4 -82 -9 -165 -12 -186 -6 -37 -6 -37 -52 -37 -72 0 -216 21 -228
34 -13 12 -4 132 18 251 16 83 14 82 177 84 l103 1 -6 -147z m-289 90 c-3 -10
-5 -4 -5 12 0 17 2 24 5 18 2 -7 2 -21 0 -30z m33 -317 c0 -2 -7 -6 -15 -10
-8 -3 -15 -1 -15 4 0 6 7 10 15 10 8 0 15 -2 15 -4z"/>
<path d="M592 503 c-4 -10 -13 -18 -20 -18 -10 0 -13 -47 -15 -205 l-2 -205
60 2 c33 2 99 3 146 4 l87 1 12 117 c11 105 26 186 45 249 6 19 4 22 -21 22
-79 1 -228 21 -254 35 -28 15 -31 14 -38 -2z m-5 -65 c-3 -8 -6 -5 -6 6 -1 11
2 17 5 13 3 -3 4 -12 1 -19z m257 5 c9 -6 1 -218 -11 -295 -5 -33 -9 -37 -42
-42 -20 -3 -76 0 -126 7 l-90 12 3 75 c2 41 8 102 13 135 20 122 14 114 72
118 58 5 166 -1 181 -10z m-249 -343 c3 -5 1 -10 -4 -10 -6 0 -11 5 -11 10 0
6 2 10 4 10 3 0 8 -4 11 -10z"/>
<path d="M343 3 c115 -2 299 -2 410 0 111 1 18 2 -208 2 -226 0 -316 -1 -202
-2z"/>
</g>
</svg>
