<?xml version="1.0" standalone="no"?>
<!DOCTYPE svg PUBLIC "-//W3C//DTD SVG 20010904//EN"
 "http://www.w3.org/TR/2001/REC-SVG-20010904/DTD/svg10.dtd">
<svg version="1.0" xmlns="http://www.w3.org/2000/svg"
 width="148.000000pt" height="68.000000pt" viewBox="0 0 148.000000 68.000000"
 preserveAspectRatio="xMidYMid meet">
<metadata>
Created by potrace 1.16, written by Peter Selinger 2001-2019
</metadata>
<g transform="translate(0.000000,68.000000) scale(0.100000,-0.100000)"
fill="#000000" stroke="none">
<path d="M829 615 c-16 -27 -27 -35 -50 -35 -32 0 -32 1 -19 -55 5 -22 12
-107 15 -190 6 -132 10 -153 29 -177 11 -15 24 -27 28 -27 4 -1 19 22 34 51
14 29 58 82 100 123 41 40 74 75 74 79 0 4 -25 39 -55 77 -30 39 -70 97 -90
129 -20 33 -39 60 -41 60 -3 0 -14 -16 -25 -35z m57 -53 c-2 -1 -16 2 -31 8
-23 9 -25 13 -14 26 11 14 15 13 30 -8 10 -12 16 -24 15 -26z m-92 -29 c-10
-40 -14 -41 -14 -5 0 18 5 32 10 32 6 0 8 -11 4 -27z m73 10 c44 -21 48 -24
89 -78 48 -63 48 -64 12 -60 -18 3 -64 7 -101 11 l-68 6 6 46 c8 63 14 92 20
92 2 0 21 -8 42 -17z m-7 -153 c-20 -13 -40 -13 -40 0 0 6 12 10 28 10 21 0
24 -2 12 -10z m145 -19 c-32 -29 -108 -91 -121 -99 -9 -5 -17 -18 -18 -28 -1
-11 -10 -34 -20 -53 -14 -26 -20 -31 -27 -20 -6 10 -1 21 17 37 32 28 25 40
-10 17 -25 -16 -25 -16 -32 10 -7 28 0 112 9 122 8 7 106 20 167 22 26 0 40
-3 35 -8z"/>
<path d="M333 593 c-13 -9 -23 -21 -23 -27 0 -7 26 -39 58 -71 31 -33 71 -78
89 -101 l32 -41 -80 -77 c-44 -43 -78 -80 -76 -83 6 -5 37 20 114 91 30 27 58
46 66 43 8 -3 28 -30 45 -60 31 -54 52 -78 52 -58 0 6 -14 34 -31 63 -26 44
-30 59 -25 95 6 49 2 52 -32 21 -19 -17 -26 -20 -30 -10 -2 8 -16 28 -31 45
-45 52 -67 90 -81 132 -16 52 -21 56 -47 38z m27 -44 c11 -19 10 -20 -9 -9
-12 6 -21 15 -21 20 0 18 19 11 30 -11z"/>
<path d="M1031 536 c-28 -44 -26 -54 7 -62 59 -15 62 -19 45 -70 l-15 -45 38
-37 c22 -20 54 -55 71 -76 18 -22 35 -38 37 -35 3 3 -12 48 -34 99 -22 52 -40
100 -40 105 0 15 132 1 189 -19 43 -16 64 -14 45 3 -5 4 -25 14 -44 21 -43 16
-77 46 -96 83 -14 27 -34 37 -34 17 0 -6 -7 -27 -15 -47 -13 -31 -17 -34 -31
-22 -9 7 -30 37 -46 66 -16 29 -36 53 -43 53 -7 0 -23 -15 -34 -34z m54 -26
l16 -31 -28 7 c-36 9 -36 9 -28 33 9 29 22 26 40 -9z m147 -47 c23 -20 23 -32
1 -28 -10 2 -23 4 -30 4 -6 1 -9 10 -6 21 6 24 11 25 35 3z m-91 -105 c21 -55
15 -60 -19 -17 -19 23 -22 36 -16 62 4 19 9 26 12 17 3 -8 13 -36 23 -62z"/>
<path d="M280 550 c0 -5 -18 -10 -40 -10 -43 0 -46 -5 -31 -58 6 -18 10 -94
11 -170 2 -125 12 -202 27 -202 4 0 15 7 25 17 17 15 18 15 18 -3 1 -21 70
-105 70 -84 0 7 -11 28 -25 46 -14 18 -25 43 -25 56 0 34 -11 68 -21 68 -5 0
-9 -13 -9 -29 0 -16 -6 -31 -14 -34 -10 -4 -15 10 -20 55 -8 79 -8 293 0 301
7 6 59 -53 67 -76 2 -7 8 -9 12 -5 4 4 3 20 -3 35 -6 15 -13 45 -17 66 -3 20
-10 37 -15 37 -6 0 -10 -4 -10 -10z"/>
<path d="M59 385 c-3 -3 -4 -19 -1 -36 3 -23 8 -29 21 -24 9 4 37 12 64 18 26
7 47 15 47 18 0 3 -21 9 -47 12 -27 3 -55 8 -64 12 -8 3 -17 3 -20 0z"/>
<path d="M1333 184 c-3 -8 1 -22 9 -30 13 -13 16 -13 27 0 7 9 11 23 7 31 -7
20 -35 19 -43 -1z"/>
<path d="M677 155 c-4 -8 -2 -17 4 -21 5 -3 7 -14 4 -25 -9 -28 14 -23 25 6
11 29 4 55 -15 55 -7 0 -15 -7 -18 -15z"/>
</g>
</svg>
