<?xml version="1.0" standalone="no"?>
<!DOCTYPE svg PUBLIC "-//W3C//DTD SVG 20010904//EN"
 "http://www.w3.org/TR/2001/REC-SVG-20010904/DTD/svg10.dtd">
<svg version="1.0" xmlns="http://www.w3.org/2000/svg"
 width="133.000000pt" height="53.000000pt" viewBox="0 0 133.000000 53.000000"
 preserveAspectRatio="xMidYMid meet">
<metadata>
Created by potrace 1.16, written by Peter Selinger 2001-2019
</metadata>
<g transform="translate(0.000000,53.000000) scale(0.100000,-0.100000)"
fill="#000000" stroke="none">
<path d="M901 442 c-8 -15 -3 -23 25 -45 39 -32 41 -29 17 24 -20 43 -28 47
-42 21z"/>
<path d="M846 433 c-4 -10 3 -26 19 -43 14 -14 25 -31 25 -37 0 -7 16 -12 38
-11 22 0 48 -2 58 -5 10 -4 54 -3 97 1 l77 8 0 -47 0 -47 -46 -7 c-25 -3 -92
-5 -147 -4 l-102 3 -41 -42 c-22 -23 -45 -42 -50 -42 -12 0 -5 101 8 117 16
19 0 35 -23 23 -17 -9 -18 -18 -13 -65 8 -66 -6 -73 -38 -19 l-22 37 -28 -32
c-26 -29 -32 -31 -93 -31 -58 0 -65 -2 -65 -19 0 -29 11 -32 71 -16 30 8 68
15 86 15 17 0 35 5 38 10 3 6 -1 10 -9 10 -9 0 -16 7 -16 15 0 22 18 18 31 -7
7 -13 11 -24 10 -26 -3 -5 71 -62 80 -62 5 0 18 20 30 44 13 28 27 44 37 44 9
-1 28 2 42 6 24 7 23 5 -7 -23 -18 -17 -33 -35 -33 -41 0 -11 40 -14 40 -2 0
15 68 87 76 79 4 -4 -10 -25 -31 -47 -36 -37 -38 -41 -23 -56 15 -15 18 -13
36 27 34 72 40 76 130 86 l82 9 0 -43 c0 -25 5 -43 11 -43 7 0 9 12 5 33 -6
30 8 114 30 186 7 23 5 24 -26 17 -19 -3 -37 -10 -40 -16 -4 -7 -137 -14 -223
-11 -12 1 -25 17 -38 46 -21 48 -33 55 -43 28z m344 -94 c0 -11 -4 -17 -10
-14 -5 3 -10 13 -10 21 0 8 5 14 10 14 6 0 10 -9 10 -21z m-390 -193 c0 -3 -4
-8 -10 -11 -5 -3 -10 -1 -10 4 0 6 5 11 10 11 6 0 10 -2 10 -4z"/>
<path d="M731 389 l-44 -51 -93 5 -92 5 -1 -70 c-1 -68 0 -70 22 -65 12 3 43
9 70 12 65 10 59 26 -8 24 -30 -1 -57 0 -60 3 -3 3 23 12 57 20 l63 16 -53 0
c-72 0 -75 8 -7 23 53 12 56 11 71 -9 23 -33 38 -27 62 23 12 25 26 45 32 45
17 0 85 -35 93 -47 10 -15 37 -17 37 -3 0 6 -4 10 -10 10 -5 0 -7 7 -3 17 5
13 2 15 -16 10 -18 -4 -26 2 -44 39 -11 24 -23 44 -26 44 -4 0 -26 -23 -50
-51z m59 0 c0 -6 -4 -7 -10 -4 -5 3 -10 11 -10 16 0 6 5 7 10 4 6 -3 10 -11
10 -16z"/>
<path d="M92 348 c-2 -10 -13 -18 -24 -18 -15 0 -18 -4 -13 -17 4 -10 10 -60
12 -110 3 -51 10 -90 14 -87 5 3 9 21 9 40 0 32 2 34 38 36 20 0 42 2 47 3 6
1 61 5 123 9 104 8 114 7 127 -10 13 -17 14 -14 15 32 0 28 5 65 11 83 6 18 8
35 4 39 -4 4 -55 6 -113 4 -59 -1 -138 2 -176 6 -62 8 -69 7 -74 -10z m41 -15
c-7 -2 -19 -2 -25 0 -7 3 -2 5 12 5 14 0 19 -2 13 -5z m277 -13 c6 -12 10 -37
8 -57 l-3 -36 -140 -4 c-172 -5 -185 -2 -185 37 0 44 31 58 146 68 159 14 162
14 174 -8z"/>
<path d="M898 323 c6 -2 18 -2 25 0 6 3 1 5 -13 5 -14 0 -19 -2 -12 -5z"/>
</g>
</svg>
