<?xml version="1.0" standalone="no"?>
<!DOCTYPE svg PUBLIC "-//W3C//DTD SVG 20010904//EN"
 "http://www.w3.org/TR/2001/REC-SVG-20010904/DTD/svg10.dtd">
<svg version="1.0" xmlns="http://www.w3.org/2000/svg"
 width="117.000000pt" height="105.000000pt" viewBox="0 0 117.000000 105.000000"
 preserveAspectRatio="xMidYMid meet">
<metadata>
Created by potrace 1.16, written by Peter Selinger 2001-2019
</metadata>
<g transform="translate(0.000000,105.000000) scale(0.100000,-0.100000)"
fill="#000000" stroke="none">
<path d="M880 985 c0 -7 7 -40 15 -72 18 -68 21 -223 4 -223 -6 0 -35 7 -65
16 l-54 15 0 47 c0 79 10 120 31 125 11 3 19 11 19 17 0 8 -6 9 -17 5 -10 -4
-49 -15 -87 -25 -60 -14 -71 -20 -79 -44 -12 -36 -2 -44 26 -19 12 11 31 25
43 31 18 10 23 8 33 -14 10 -24 16 -114 6 -114 -17 0 -55 26 -57 39 -4 17 -1
17 -144 19 l-101 2 -12 55 c-15 65 -37 89 -28 29 3 -21 9 -49 13 -61 4 -14 2
-23 -4 -23 -6 0 -14 27 -18 60 -6 57 -17 80 -32 66 -3 -4 -1 -32 6 -63 7 -35
8 -61 3 -66 -11 -11 -31 52 -31 96 0 17 -5 27 -15 27 -19 0 -19 -14 -1 -73 11
-38 12 -47 1 -47 -7 0 -18 22 -25 50 -7 28 -16 50 -22 50 -9 0 -5 -34 9 -84 3
-12 1 -16 -6 -12 -5 4 -13 23 -17 44 -13 72 -30 86 -72 57 -20 -14 -20 -18 -8
-38 8 -12 17 -33 21 -46 l7 -24 -63 7 c-122 13 -114 15 -111 -19 2 -16 5 -31
7 -33 1 -2 25 4 53 13 27 9 64 15 83 13 35 -3 36 -5 54 -92 10 -48 24 -15 15
34 -9 47 -5 64 11 55 5 -4 9 -22 9 -41 0 -19 5 -34 10 -34 6 0 10 17 10 38 0
27 3 33 10 22 5 -8 10 -25 10 -37 0 -12 5 -25 12 -29 8 -5 9 5 5 34 -5 42 8
59 19 25 15 -45 18 -46 24 -8 6 35 8 37 15 18 8 -26 25 -31 25 -8 0 18 16 20
23 3 4 -10 7 -10 14 -1 8 11 88 18 163 14 19 -1 21 -4 12 -13 -21 -21 -14 -25
46 -30 31 -3 94 -15 140 -28 76 -21 83 -25 89 -51 12 -62 23 -24 23 84 1 61 7
148 15 192 8 44 15 81 15 83 0 1 -18 2 -40 2 -28 0 -40 -4 -40 -15z m50 -35
c0 -16 -4 -30 -9 -30 -5 0 -11 14 -13 30 -3 20 0 30 9 30 8 0 13 -12 13 -30z
m-674 -115 c8 -34 7 -45 -2 -45 -13 0 -24 31 -24 68 0 38 15 24 26 -23z"/>
<path d="M1022 668 c-6 -8 -8 -27 -3 -47 l6 -34 18 26 c21 32 21 41 3 56 -10
8 -16 8 -24 -1z"/>
<path d="M927 320 c5 -90 3 -110 -8 -110 -8 0 -25 -3 -38 -7 -23 -6 -24 -4
-18 30 4 26 2 37 -10 41 -28 11 -34 6 -31 -26 2 -28 0 -33 -17 -31 -20 2 -35
-12 -35 -35 0 -8 10 -12 28 -10 22 2 26 -1 24 -16 -2 -11 1 -17 10 -14 7 3 14
14 16 26 3 18 10 22 43 22 l39 0 0 -61 c0 -54 -2 -60 -17 -54 -10 4 -39 15
-64 24 -58 21 -119 62 -119 79 0 28 31 70 84 116 31 26 54 52 50 57 -3 5 -20
-3 -38 -18 -17 -15 -57 -46 -89 -67 -35 -24 -56 -45 -53 -53 4 -10 -15 -13
-89 -13 -61 0 -95 -4 -95 -11 0 -7 34 -9 100 -7 57 2 100 -1 100 -6 0 -5 -7
-17 -16 -27 -15 -17 -11 -45 5 -35 13 8 152 -29 204 -54 26 -12 50 -20 53 -17
3 3 8 65 11 139 3 76 11 154 20 181 8 27 13 50 12 51 -2 2 -18 6 -36 9 l-32 6
6 -109z m33 64 c0 -8 -5 -12 -10 -9 -6 4 -8 11 -5 16 9 14 15 11 15 -7z"/>
<path d="M884 386 c-4 -9 -5 -19 -2 -21 2 -2 10 0 18 5 12 7 12 12 3 21 -10
10 -14 9 -19 -5z"/>
<path d="M359 314 c-7 -9 -12 -36 -10 -63 1 -38 -2 -50 -15 -55 -28 -11 -37 8
-24 51 7 21 17 43 22 50 14 17 -6 25 -36 13 -30 -11 -29 -10 -16 -45 6 -15 7
-37 4 -51 -6 -23 -10 -24 -64 -21 -31 1 -68 10 -82 19 -44 29 -59 26 -75 -15
-9 -21 -13 -40 -11 -43 3 -2 34 2 69 11 35 8 86 15 113 15 l49 0 -7 -66 c-4
-37 -8 -69 -9 -73 -1 -3 3 -7 8 -9 6 -1 14 29 19 68 8 60 12 70 29 70 18 0 19
-5 12 -65 -4 -39 -3 -65 3 -65 5 0 13 32 16 71 5 47 11 69 19 66 7 -2 11 -15
11 -28 -1 -13 -3 -47 -5 -74 -2 -28 1 -53 6 -55 6 -3 11 8 13 25 9 117 14 136
30 133 13 -2 15 -15 13 -68 -1 -36 -3 -67 -4 -70 -1 -3 3 -6 8 -8 6 -1 13 35
17 85 5 60 15 106 32 145 26 60 20 84 -13 54 -21 -19 -38 -21 -44 -3 -4 10 -7
10 -18 0 -18 -17 -29 -16 -29 2 0 19 -14 19 -31 -1z m90 -91 c1 -14 -5 -23
-14 -23 -16 0 -19 28 -8 70 l7 25 7 -25 c4 -14 7 -35 8 -47z m-49 1 c0 -12 -7
-24 -15 -28 -11 -4 -15 2 -15 28 0 18 3 36 7 39 9 10 23 -13 23 -39z m-285
-34 c-3 -5 -10 -10 -16 -10 -5 0 -9 5 -9 10 0 6 7 10 16 10 8 0 12 -4 9 -10z"/>
<path d="M1010 106 c0 -15 24 -28 34 -19 13 14 5 33 -14 33 -11 0 -20 -6 -20
-14z"/>
</g>
</svg>
