<?xml version="1.0" standalone="no"?>
<!DOCTYPE svg PUBLIC "-//W3C//DTD SVG 20010904//EN"
 "http://www.w3.org/TR/2001/REC-SVG-20010904/DTD/svg10.dtd">
<svg version="1.0" xmlns="http://www.w3.org/2000/svg"
 width="101.000000pt" height="54.000000pt" viewBox="0 0 101.000000 54.000000"
 preserveAspectRatio="xMidYMid meet">
<metadata>
Created by potrace 1.16, written by Peter Selinger 2001-2019
</metadata>
<g transform="translate(0.000000,54.000000) scale(0.100000,-0.100000)"
fill="#000000" stroke="none">
<path d="M520 501 c0 -5 -3 -16 -6 -25 -4 -11 11 -23 60 -46 59 -28 65 -34 56
-51 -8 -14 -7 -27 5 -48 17 -33 19 -51 7 -51 -5 0 -17 25 -27 55 -11 30 -22
55 -26 55 -16 0 -18 -33 -3 -55 9 -13 14 -30 12 -37 -6 -17 -38 45 -38 72 0
13 -5 20 -12 18 -20 -7 -21 -38 -3 -58 18 -20 14 -50 -6 -50 -6 0 -8 7 -5 16
3 8 -1 23 -10 31 -8 9 -13 24 -11 34 8 30 -12 33 -24 5 -9 -20 -9 -29 1 -41
11 -13 10 -19 -4 -33 -17 -16 -18 -14 -12 58 3 41 8 87 12 103 6 25 4 27 -26
27 -36 0 -35 1 -14 -97 6 -32 5 -33 -27 -34 -84 -3 -277 2 -301 7 -22 4 -27 1
-30 -18 -2 -15 -11 -24 -26 -26 -24 -4 -24 -5 -18 -95 9 -125 17 -170 27 -160
4 4 9 37 11 73 l3 65 175 7 c96 4 177 5 179 2 3 -3 4 -25 3 -49 -1 -24 3 -47
8 -50 6 -4 10 8 10 27 l1 33 15 -27 c8 -16 17 -28 19 -28 3 0 26 15 52 34 48
34 83 54 197 115 l60 31 28 -27 c23 -22 59 -71 105 -142 2 -2 6 -2 9 1 3 4
-12 44 -34 90 -22 45 -45 100 -52 121 -13 41 -25 47 -35 18 -3 -11 -12 -24
-20 -31 -16 -13 -72 25 -195 131 -66 56 -90 70 -90 50z m35 -31 c3 -5 2 -10
-4 -10 -5 0 -13 5 -16 10 -3 6 -2 10 4 10 5 0 13 -4 16 -10z m-85 -19 c0 -6
-4 -13 -10 -16 -5 -3 -10 1 -10 9 0 9 5 16 10 16 6 0 10 -4 10 -9z m205 -108
c1 -29 19 -63 34 -63 4 0 5 14 3 32 l-5 31 32 -22 c17 -12 31 -24 31 -26 0 -2
-25 -15 -55 -29 -30 -14 -79 -37 -108 -51 -70 -33 -147 -44 -147 -22 0 24 20
71 33 79 20 13 30 9 17 -7 -18 -22 -4 -31 18 -12 23 21 39 22 22 2 -22 -26 -5
-26 30 0 18 14 36 23 39 20 2 -3 -4 -12 -15 -19 -10 -8 -16 -18 -11 -22 4 -4
17 2 30 14 13 12 28 22 35 22 16 0 25 19 14 33 -16 21 -24 79 -9 74 6 -2 12
-17 12 -34z m-525 -13 c0 -5 -12 -10 -26 -10 -14 0 -23 4 -19 10 3 6 15 10 26
10 10 0 19 -4 19 -10z m300 -49 l0 -48 -143 -9 c-78 -5 -159 -7 -179 -5 -34 3
-38 6 -38 30 0 38 10 48 53 56 20 4 37 11 37 16 0 5 61 9 135 9 l135 0 0 -49z
m405 13 c20 -48 19 -50 -9 -19 -14 15 -22 33 -19 41 8 21 11 18 28 -22z m-788
-51 c-3 -10 -5 -2 -5 17 0 19 2 27 5 18 2 -10 2 -26 0 -35z m473 -83 c-27 -21
-50 -26 -50 -10 0 11 35 28 60 29 10 0 6 -6 -10 -19z"/>
</g>
</svg>
