<?xml version="1.0" standalone="no"?>
<!DOCTYPE svg PUBLIC "-//W3C//DTD SVG 20010904//EN"
 "http://www.w3.org/TR/2001/REC-SVG-20010904/DTD/svg10.dtd">
<svg version="1.0" xmlns="http://www.w3.org/2000/svg"
 width="106.000000pt" height="54.000000pt" viewBox="0 0 106.000000 54.000000"
 preserveAspectRatio="xMidYMid meet">
<metadata>
Created by potrace 1.16, written by Peter Selinger 2001-2019
</metadata>
<g transform="translate(0.000000,54.000000) scale(0.100000,-0.100000)"
fill="#000000" stroke="none">
<path d="M607 428 l-19 -33 33 -25 c19 -14 45 -36 59 -50 l25 -25 -29 -3 c-16
-2 -45 -1 -64 3 -34 6 -34 6 -27 51 l6 44 -35 0 c-41 0 -41 -2 -21 -59 8 -23
18 -72 21 -109 7 -64 26 -112 45 -112 5 0 20 17 33 38 41 65 90 114 106 108 8
-4 32 -32 53 -64 21 -31 49 -70 63 -86 32 -36 39 -28 54 69 6 38 20 101 30
140 10 38 16 73 14 76 -2 4 -16 4 -31 0 -26 -7 -26 -9 -24 -72 1 -36 -3 -96
-10 -134 l-12 -69 -18 23 c-19 23 -59 143 -59 175 0 22 -13 20 -35 -4 -10 -11
-23 -20 -29 -20 -14 0 -43 46 -72 115 -12 27 -26 51 -30 52 -5 2 -17 -12 -27
-29z m41 -33 c6 -14 8 -25 4 -25 -12 0 -32 23 -32 37 0 22 16 15 28 -12z m279
-47 c-3 -8 -6 -5 -6 6 -1 11 2 17 5 13 3 -3 4 -12 1 -19z m-363 -3 c-4 -8 -8
-15 -10 -15 -2 0 -4 7 -4 15 0 8 4 15 10 15 5 0 7 -7 4 -15z m231 -95 l6 -25
-20 25 c-11 13 -17 28 -14 33 7 12 19 -3 28 -33z m-195 20 c-19 -13 -30 -13
-30 0 0 6 10 10 23 10 18 0 19 -2 7 -10z m90 -15 c-7 -8 -34 -28 -61 -45 l-49
-30 0 34 c0 32 2 34 48 44 72 15 77 15 62 -3z m-70 -90 c-7 -9 -15 -13 -17
-11 -7 7 7 26 19 26 6 0 6 -6 -2 -15z"/>
<path d="M110 358 c0 -4 -9 -8 -19 -8 -22 0 -36 -16 -22 -24 15 -10 24 -77 22
-168 -3 -91 12 -122 24 -50 4 20 8 42 10 49 3 10 79 20 200 26 40 2 40 2 45
-38 8 -64 18 -28 19 74 1 52 6 102 11 112 6 10 10 21 10 26 0 4 -68 8 -150 9
-83 0 -150 -3 -150 -8z m245 -40 c3 -13 6 -43 7 -68 l3 -45 -60 -3 c-33 -2
-89 0 -124 3 l-64 7 6 50 c4 28 8 53 11 55 8 8 100 21 158 22 52 1 58 -1 63
-21z m-248 -10 c-3 -8 -6 -5 -6 6 -1 11 2 17 5 13 3 -3 4 -12 1 -19z"/>
</g>
</svg>
