<?xml version="1.0" standalone="no"?>
<!DOCTYPE svg PUBLIC "-//W3C//DTD SVG 20010904//EN"
 "http://www.w3.org/TR/2001/REC-SVG-20010904/DTD/svg10.dtd">
<svg version="1.0" xmlns="http://www.w3.org/2000/svg"
 width="120.000000pt" height="70.000000pt" viewBox="0 0 120.000000 70.000000"
 preserveAspectRatio="xMidYMid meet">
<metadata>
Created by potrace 1.16, written by Peter Selinger 2001-2019
</metadata>
<g transform="translate(0.000000,70.000000) scale(0.100000,-0.100000)"
fill="#000000" stroke="none">
<path d="M147 630 l-38 -39 32 -29 c41 -37 36 -64 -36 -161 -60 -81 -65 -96
-35 -106 27 -8 75 -50 101 -86 l21 -30 -71 -71 c-64 -63 -87 -96 -62 -86 5 1
75 67 155 145 l147 143 -30 27 c-17 16 -56 69 -87 118 -55 89 -56 91 -51 153
3 34 2 62 -2 62 -4 0 -24 -18 -44 -40z m19 -47 c-10 -10 -19 5 -10 18 6 11 8
11 12 0 2 -7 1 -15 -2 -18z m32 -105 c-2 -6 -10 -14 -16 -16 -7 -2 -10 2 -6
12 7 18 28 22 22 4z m63 -87 c43 -72 43 -75 -26 -157 l-33 -38 -41 64 c-63 97
-63 106 -5 157 27 23 53 41 58 40 5 -2 26 -31 47 -66z m-161 -72 c0 -6 -4 -7
-10 -4 -5 3 -10 11 -10 16 0 6 5 7 10 4 6 -3 10 -11 10 -16z m220 -24 c-7 -9
-15 -13 -17 -11 -7 7 7 26 19 26 6 0 6 -6 -2 -15z"/>
<path d="M538 570 c-13 -8 -14 -16 -6 -44 6 -18 8 -50 4 -69 -7 -35 -8 -36
-49 -34 -39 2 -42 0 -45 -26 -3 -24 0 -28 15 -23 10 3 29 8 43 11 l25 6 -3
-71 c-2 -45 0 -70 7 -70 6 0 11 19 11 44 0 69 10 106 29 106 15 0 16 -7 10
-57 -10 -82 -10 -103 0 -103 5 0 12 34 16 75 9 101 25 106 25 8 0 -54 3 -73
10 -63 5 8 10 41 10 72 0 32 5 60 12 64 8 5 10 -13 5 -69 -4 -49 -3 -77 3 -77
6 0 10 27 10 59 0 68 6 91 26 91 11 0 14 -18 14 -75 0 -43 4 -75 10 -75 6 0
10 32 10 75 l0 74 155 3 155 3 5 -40 c3 -22 4 -59 3 -82 -2 -23 2 -42 7 -43 6
0 12 50 16 122 3 68 11 136 17 151 20 47 16 57 -24 57 l-36 0 7 -72 7 -73
-129 -2 c-70 -1 -138 -5 -150 -8 -20 -5 -23 -1 -23 24 0 16 7 52 17 80 17 55
14 68 -13 53 -12 -7 -18 -25 -19 -65 -4 -69 -11 -94 -30 -94 -18 0 -18 -4 0
81 8 38 13 71 11 73 -8 9 -153 11 -168 3z m55 -86 c-3 -63 -8 -75 -28 -68 -13
5 -13 18 1 113 9 55 29 20 27 -45z m477 47 c0 -11 -4 -23 -10 -26 -6 -4 -10 5
-10 19 0 14 5 26 10 26 6 0 10 -9 10 -19z m-449 -114 c-13 -13 -15 53 -3 93 5
19 8 13 10 -29 2 -30 -2 -59 -7 -64z m41 21 c-9 -30 -10 -27 -10 32 0 59 1 62
10 33 8 -23 8 -43 0 -65z"/>
</g>
</svg>
