<?xml version="1.0" standalone="no"?>
<!DOCTYPE svg PUBLIC "-//W3C//DTD SVG 20010904//EN"
 "http://www.w3.org/TR/2001/REC-SVG-20010904/DTD/svg10.dtd">
<svg version="1.0" xmlns="http://www.w3.org/2000/svg"
 width="112.000000pt" height="204.000000pt" viewBox="0 0 112.000000 204.000000"
 preserveAspectRatio="xMidYMid meet">
<metadata>
Created by potrace 1.16, written by Peter Selinger 2001-2019
</metadata>
<g transform="translate(0.000000,204.000000) scale(0.100000,-0.100000)"
fill="#000000" stroke="none">
<path d="M330 1998 c-36 -4 -102 -5 -147 -2 l-82 6 -3 -29 c-2 -21 -9 -29 -26
-31 -23 -4 -24 -6 -16 -65 4 -34 7 -126 8 -205 l1 -143 25 7 c54 13 149 24
223 24 137 0 82 18 -67 22 -79 1 -147 6 -151 10 -3 3 -7 68 -8 145 -2 164 6
191 68 211 51 17 171 30 187 21 7 -4 13 -43 16 -95 5 -86 4 -88 -22 -109 l-27
-22 31 -33 c39 -41 63 -88 85 -163 18 -61 43 -92 32 -40 -6 29 -4 30 46 43 29
7 114 15 190 17 214 8 165 25 -63 21 -190 -3 -251 3 -157 16 94 12 117 14 240
20 141 8 133 12 128 -63 -2 -19 1 -31 7 -27 5 3 10 38 11 78 2 64 17 157 37
226 6 20 3 22 -36 22 l-43 0 6 -37 6 -38 -152 6 c-83 4 -173 10 -199 14 l-47
7 0 -66 c1 -36 4 -68 8 -70 4 -3 32 1 63 8 31 7 113 14 183 15 70 1 133 5 141
8 10 4 14 -4 14 -31 l0 -36 -175 2 c-135 2 -175 0 -175 -9 0 -7 -9 -13 -20
-13 -11 0 -20 5 -20 10 0 6 8 10 18 10 16 1 16 1 -1 11 -21 12 -33 4 -39 -26
-7 -32 -28 52 -28 112 0 28 -4 55 -10 58 -15 9 -12 85 6 144 8 30 12 57 7 60
-4 4 -37 4 -73 -1z m53 -38 c-3 -11 -7 -20 -9 -20 -2 0 -4 9 -4 20 0 11 4 20
9 20 5 0 7 -9 4 -20z m-236 4 c-3 -3 -12 -4 -19 -1 -8 3 -5 6 6 6 11 1 17 -2
13 -5z m-70 -66 c-3 -8 -6 -5 -6 6 -1 11 2 17 5 13 3 -3 4 -12 1 -19z m792
-75 c0 -10 -4 -27 -9 -38 -7 -16 -9 -13 -9 18 -1 20 4 37 9 37 6 0 10 -8 9
-17z m-370 -42 c9 -6 4 -10 -18 -13 -21 -3 -31 0 -31 9 0 15 28 17 49 4z m335
-27 c3 -9 6 -19 6 -23 0 -10 -364 -11 -381 -1 -11 8 -11 10 1 15 33 12 142 23
251 24 98 1 118 -2 123 -15z m-454 -39 c0 -18 -1 -18 -16 3 -8 12 -12 27 -8
33 8 14 24 -8 24 -36z m103 -12 c-7 -2 -19 -2 -25 0 -7 3 -2 5 12 5 14 0 19
-2 13 -5z m-8 -143 c-3 -5 -10 -10 -16 -10 -5 0 -9 5 -9 10 0 6 7 10 16 10 8
0 12 -4 9 -10z"/>
<path d="M216 1899 c-3 -8 -7 -23 -9 -34 -4 -17 -5 -17 -6 3 -1 14 -6 22 -13
19 -7 -2 -11 -15 -9 -28 8 -54 8 -54 -37 -52 -41 2 -43 1 -40 -25 2 -22 8 -27
28 -26 14 1 33 4 43 9 15 6 17 1 17 -46 0 -65 10 -129 20 -129 3 0 6 42 6 93
l-1 92 30 3 c49 6 54 22 7 22 l-41 0 14 47 c9 30 11 51 5 57 -6 6 -11 4 -14
-5z m-66 -119 c0 -5 -7 -10 -15 -10 -8 0 -15 5 -15 10 0 6 7 10 15 10 8 0 15
-4 15 -10z"/>
<path d="M974 1570 c0 -22 3 -40 6 -40 15 0 30 27 30 52 0 21 -5 28 -19 28
-15 0 -18 -7 -17 -40z"/>
<path d="M110 1205 c-6 -16 -17 -25 -31 -25 -21 0 -21 -3 -15 -71 4 -39 7
-133 7 -210 0 -76 1 -139 4 -139 2 0 28 6 57 14 29 7 104 17 166 21 l112 7 0
89 c0 49 4 89 9 89 17 0 60 -60 92 -128 39 -81 52 -65 15 18 -15 33 -32 88
-38 122 -12 71 -22 88 -40 70 -9 -9 -10 -15 -2 -20 6 -4 15 -22 19 -40 l7 -34
-26 17 c-22 15 -24 20 -14 33 10 12 10 16 1 19 -17 6 -16 69 2 129 8 27 15 49
15 50 0 0 -55 0 -122 0 -68 -1 -142 2 -166 7 -39 7 -43 5 -52 -18z m50 1 c0
-11 -19 -15 -25 -6 -3 5 1 10 9 10 9 0 16 -2 16 -4z m260 -22 c0 -8 -5 -12
-10 -9 -6 4 -8 11 -5 16 9 14 15 11 15 -7z m-30 -30 c8 -24 10 -69 6 -133 -3
-53 -6 -119 -6 -148 l0 -51 -70 -4 c-81 -4 -81 -3 -79 88 1 92 3 94 60 94 31
0 48 4 44 10 -3 6 -27 10 -52 10 -42 0 -45 2 -40 23 21 94 21 91 3 84 -10 -4
-24 -7 -33 -7 -12 0 -14 -9 -8 -52 l7 -51 -46 6 -46 7 0 -31 c0 -29 2 -31 28
-26 15 3 35 9 45 12 15 6 17 -1 17 -79 l0 -86 -47 0 c-77 0 -76 -1 -72 162 6
204 5 204 186 207 l91 1 12 -36z m-291 4 c0 -7 -4 -22 -9 -33 -7 -17 -9 -15
-9 13 -1 17 4 32 9 32 6 0 10 -6 9 -12z m145 -73 c-4 -8 -8 -15 -10 -15 -2 0
-4 7 -4 15 0 8 4 15 10 15 5 0 7 -7 4 -15z"/>
<path d="M977 1033 c-13 -3 -16 -10 -11 -25 6 -19 3 -20 -62 -14 -38 3 -133 8
-211 12 l-143 6 0 -54 c0 -30 3 -57 6 -60 3 -4 7 -34 9 -68 3 -35 6 -64 7 -66
2 -1 28 4 58 12 30 8 121 17 203 21 l147 6 0 -41 c0 -23 5 -42 10 -42 8 0 16
124 11 167 -1 7 5 39 14 72 8 32 15 64 15 70 0 11 -20 13 -53 4z m20 -55 c-3
-7 -5 -2 -5 12 0 14 2 19 5 13 2 -7 2 -19 0 -25z m-402 2 c3 -5 1 -10 -4 -10
-6 0 -11 5 -11 10 0 6 2 10 4 10 3 0 8 -4 11 -10z m363 -8 c6 -1 12 -9 12 -17
0 -13 -27 -15 -182 -15 -119 0 -179 3 -172 10 16 16 263 32 342 22z m-345 -49
c-7 -2 -19 -2 -25 0 -7 3 -2 5 12 5 14 0 19 -2 13 -5z m363 -5 c3 -4 4 -13 1
-21 -7 -19 -195 -31 -315 -21 l-87 7 40 15 c65 24 341 39 361 20z m-353 -65
c-7 -2 -21 -2 -30 0 -10 3 -4 5 12 5 17 0 24 -2 18 -5z m350 -7 c4 -10 -11
-15 -61 -20 -106 -10 -292 -7 -292 4 0 6 6 11 13 11 40 4 231 16 278 17 40 2
58 -2 62 -12z m-356 -52 c-3 -3 -12 -4 -19 -1 -8 3 -5 6 6 6 11 1 17 -2 13 -5z"/>
<path d="M1035 790 c-9 -15 4 -30 26 -30 12 0 19 7 19 20 0 21 -33 29 -45 10z"/>
<path d="M54 515 c-4 -8 -4 -30 0 -48 3 -17 6 -121 7 -229 1 -109 5 -198 9
-198 5 0 21 5 37 11 34 13 223 27 223 17 0 -5 4 -8 8 -8 5 0 14 36 20 81 7 44
23 108 38 142 14 34 28 73 31 86 5 20 3 22 -17 16 -21 -7 -22 -5 -18 41 l3 48
-145 18 c-80 10 -155 22 -168 28 -18 8 -24 7 -28 -5z m59 -32 c-7 -2 -21 -2
-30 0 -10 3 -4 5 12 5 17 0 24 -2 18 -5z m65 -26 c12 -13 36 -146 28 -154 -2
-2 -32 -1 -65 3 l-62 7 3 71 3 71 35 6 c19 4 38 7 41 8 4 0 11 -5 17 -12z
m175 4 c21 -1 24 -51 3 -51 -21 0 -24 -16 -18 -116 2 -50 2 -115 -2 -145 l-7
-54 -49 -2 -50 -2 0 90 c0 86 1 89 23 89 12 0 33 3 45 7 32 8 9 23 -35 23
l-33 0 0 78 c0 43 2 81 4 83 4 4 67 4 119 0z m32 -111 c16 0 20 -12 8 -24 -5
-4 -13 -22 -20 -39 -11 -30 -12 -30 -12 -7 -1 14 -4 43 -7 65 -4 32 -3 36 6
23 6 -10 18 -18 25 -18z m-175 -171 l0 -91 -57 7 c-32 4 -61 9 -65 12 -5 2 -8
37 -8 78 l0 74 38 4 c20 2 49 4 65 5 l27 2 0 -91z"/>
<path d="M672 310 c-154 -3 -241 -9 -240 -15 2 -6 90 -10 238 -10 l235 0 3
-35 3 -35 -266 3 c-207 2 -266 0 -263 -10 3 -9 68 -11 266 -10 l262 1 0 -23
c0 -23 -2 -23 -152 -29 -83 -4 -202 -7 -265 -7 -79 0 -113 -3 -113 -12 0 -8
67 -10 265 -5 l265 7 0 -30 0 -30 -275 0 c-177 0 -275 -4 -275 -10 0 -6 98
-10 275 -10 151 0 278 -1 283 -2 4 -2 10 33 13 77 6 83 24 140 52 164 24 19
11 31 -31 29 -20 -1 -146 -5 -280 -8z m278 -22 c0 -7 -5 -20 -10 -28 -8 -12
-10 -9 -10 13 0 15 5 27 10 27 6 0 10 -6 10 -12z"/>
<path d="M958 3 c7 -3 16 -2 19 1 4 3 -2 6 -13 5 -11 0 -14 -3 -6 -6z"/>
<path d="M1028 3 c7 -3 16 -2 19 1 4 3 -2 6 -13 5 -11 0 -14 -3 -6 -6z"/>
<path d="M1083 3 c9 -2 23 -2 30 0 6 3 -1 5 -18 5 -16 0 -22 -2 -12 -5z"/>
</g>
</svg>
