<?xml version="1.0" standalone="no"?>
<!DOCTYPE svg PUBLIC "-//W3C//DTD SVG 20010904//EN"
 "http://www.w3.org/TR/2001/REC-SVG-20010904/DTD/svg10.dtd">
<svg version="1.0" xmlns="http://www.w3.org/2000/svg"
 width="132.000000pt" height="103.000000pt" viewBox="0 0 132.000000 103.000000"
 preserveAspectRatio="xMidYMid meet">
<metadata>
Created by potrace 1.16, written by Peter Selinger 2001-2019
</metadata>
<g transform="translate(0.000000,103.000000) scale(0.100000,-0.100000)"
fill="#000000" stroke="none">
<path d="M432 972 c-9 -6 -11 -21 -6 -50 l7 -42 -32 6 c-27 6 -31 4 -32 -15
-1 -11 -2 -27 -3 -33 -1 -14 6 -14 42 -3 19 6 22 3 22 -24 0 -41 18 -40 22 2
l3 32 102 3 101 3 12 -53 c7 -33 8 -86 4 -140 l-7 -88 -71 6 c-39 4 -73 8 -75
10 -2 2 1 52 7 111 6 59 10 109 8 110 -1 1 -11 0 -22 -3 -19 -5 -20 -11 -16
-116 l5 -111 -58 5 c-53 4 -57 3 -66 -20 -5 -14 -8 -27 -6 -29 3 -2 26 2 53 8
27 6 96 12 154 13 l105 1 11 130 c6 72 16 141 23 153 9 17 9 22 -1 23 -7 1
-17 2 -23 4 -5 1 -61 3 -122 3 -110 2 -113 3 -113 25 0 12 7 35 15 51 8 15 15
30 15 32 0 7 -45 4 -58 -4z"/>
<path d="M153 930 c-26 -11 -30 -28 -8 -36 8 -4 15 -14 15 -24 0 -18 -78 -130
-91 -130 -4 0 -9 -7 -12 -15 -4 -9 11 -24 46 -44 63 -36 97 -64 97 -80 0 -6
-11 -29 -25 -51 -27 -42 -29 -50 -17 -50 4 0 26 26 50 58 23 31 56 72 73 90
l32 34 -57 109 c-31 60 -56 118 -56 129 0 22 -12 24 -47 10z m86 -155 l29 -51
-22 -47 c-11 -25 -24 -47 -27 -47 -9 0 -109 100 -109 109 0 16 75 91 88 89 7
-2 25 -26 41 -53z"/>
<path d="M1145 845 c-38 -19 -77 -34 -86 -35 -9 0 -23 -9 -30 -20 -14 -20 -18
-20 -152 -9 -76 6 -141 9 -144 5 -4 -4 -1 -21 5 -39 7 -19 12 -66 12 -105 0
-40 4 -72 9 -72 5 0 11 10 13 22 4 29 48 40 141 36 62 -3 72 -5 69 -20 -2 -10
2 -18 8 -18 5 0 10 7 10 15 0 18 7 18 49 4 28 -10 31 -15 31 -50 0 -21 5 -39
10 -39 6 0 10 16 10 35 l0 34 48 -24 c26 -13 59 -27 75 -30 l27 -7 0 176 c0
204 7 195 -105 141z m73 -30 c-7 -7 -35 -25 -63 -40 -78 -42 -83 -48 -77 -105
4 -44 3 -48 -14 -44 -11 3 -27 11 -37 19 -16 11 -17 18 -8 52 12 41 56 80 152
133 45 25 55 27 57 13 2 -8 -2 -21 -10 -28z m10 -205 l-3 -60 -62 31 c-65 33
-75 49 -50 83 13 17 16 16 45 -20 40 -48 52 -37 24 21 -12 25 -22 50 -22 55 0
5 15 23 33 39 l32 31 3 -60 c2 -33 2 -87 0 -120z m-240 87 l3 -48 -108 3 -108
3 -3 42 c-3 42 -3 42 35 46 21 2 70 4 108 3 l70 -1 3 -48z m152 38 c-7 -8 -18
-15 -24 -15 -6 0 -2 7 8 15 25 19 32 19 16 0z"/>
<path d="M640 360 l-85 -80 -32 38 c-18 20 -40 52 -49 70 l-16 34 -27 -33 -27
-32 -157 6 -157 5 0 -24 c0 -21 -4 -23 -24 -18 -31 7 -37 -4 -26 -52 5 -21 10
-83 11 -137 1 -68 5 -97 13 -94 6 2 11 24 12 48 0 40 3 44 27 47 15 2 27 8 27
13 0 5 -6 9 -12 8 -42 -5 -47 17 -27 110 10 49 10 49 57 55 26 4 97 9 157 12
l110 5 58 -38 c31 -20 57 -41 57 -45 0 -4 -25 -27 -56 -52 l-56 -46 -120 0
-121 0 6 43 c3 23 9 52 13 65 5 18 3 22 -18 22 -23 0 -23 -1 -25 -122 -1 -67
1 -126 4 -131 10 -16 23 17 23 61 l0 42 115 0 116 0 17 -30 c9 -16 19 -30 22
-30 3 0 18 29 34 65 15 35 37 72 48 82 19 17 21 16 66 -32 26 -28 68 -74 93
-104 l45 -54 105 51 c57 28 143 69 192 91 48 22 87 44 87 50 0 12 -42 37 -169
101 -57 29 -126 65 -153 81 -27 16 -54 29 -61 29 -7 0 -50 -36 -97 -80z m171
18 c24 -17 24 -17 -11 -6 -19 5 -45 12 -57 15 -23 5 -29 14 -17 26 7 7 51 -11
85 -35z m1 -28 c56 -13 124 -38 186 -69 l97 -49 -55 -26 c-30 -14 -116 -44
-190 -66 l-135 -42 -25 29 c-14 16 -47 53 -73 83 l-49 55 64 58 c37 34 69 55
77 52 8 -3 54 -15 103 -25z m-333 -11 l24 -32 -32 19 c-17 10 -31 24 -31 31 0
22 15 15 39 -18z m-336 4 c-7 -2 -19 -2 -25 0 -7 3 -2 5 12 5 14 0 19 -2 13
-5z m-70 -53 c-3 -11 -7 -20 -9 -20 -2 0 -4 9 -4 20 0 11 4 20 9 20 5 0 7 -9
4 -20z m386 -142 c-9 -16 -14 -19 -17 -9 -2 7 2 17 9 22 20 13 21 11 8 -13z
m336 -59 c-40 -18 -75 -25 -61 -12 9 10 67 31 86 31 8 0 -3 -8 -25 -19z"/>
<path d="M720 261 c0 -50 5 -93 10 -96 6 -4 10 28 10 89 0 57 -4 96 -10 96 -6
0 -10 -36 -10 -89z"/>
<path d="M760 238 c0 -70 3 -98 10 -88 13 20 13 190 0 190 -6 0 -10 -41 -10
-102z"/>
<path d="M811 233 c2 -85 2 -86 9 -33 11 80 11 120 0 120 -6 0 -9 -35 -9 -87z"/>
<path d="M861 243 c1 -57 3 -70 9 -48 11 45 11 113 0 120 -6 4 -10 -22 -9 -72z"/>
<path d="M910 244 c0 -34 4 -53 10 -49 6 3 10 28 10 56 0 27 -4 49 -10 49 -5
0 -10 -25 -10 -56z"/>
<path d="M90 70 c0 -5 5 -10 10 -10 6 0 10 5 10 10 0 6 -4 10 -10 10 -5 0 -10
-4 -10 -10z"/>
</g>
</svg>
