<?xml version="1.0" standalone="no"?>
<!DOCTYPE svg PUBLIC "-//W3C//DTD SVG 20010904//EN"
 "http://www.w3.org/TR/2001/REC-SVG-20010904/DTD/svg10.dtd">
<svg version="1.0" xmlns="http://www.w3.org/2000/svg"
 width="124.000000pt" height="93.000000pt" viewBox="0 0 124.000000 93.000000"
 preserveAspectRatio="xMidYMid meet">
<metadata>
Created by potrace 1.16, written by Peter Selinger 2001-2019
</metadata>
<g transform="translate(0.000000,93.000000) scale(0.100000,-0.100000)"
fill="#000000" stroke="none">
<path d="M871 848 l-32 -43 33 -25 c74 -56 122 -108 176 -189 31 -47 58 -89
60 -93 4 -8 -159 -211 -164 -205 -32 31 -144 230 -144 254 0 10 30 48 67 85
l67 67 -24 26 c-13 14 -28 25 -34 25 -6 0 -29 -39 -50 -85 -21 -47 -54 -107
-72 -133 -37 -51 -47 -85 -18 -61 13 11 25 2 87 -62 40 -42 80 -89 90 -106
l17 -31 -44 -49 c-24 -26 -67 -72 -95 -101 -47 -49 -61 -72 -44 -72 4 0 59 51
122 113 163 158 214 203 310 274 4 3 -56 92 -69 103 -35 29 -180 298 -180 332
0 30 -24 20 -59 -24z m59 -44 c11 -26 20 -48 20 -51 0 -2 -17 8 -37 24 -21 15
-40 28 -42 30 -4 3 29 43 35 43 2 0 12 -21 24 -46z m-52 -124 c-12 -17 -23
-28 -26 -26 -7 8 29 66 38 61 6 -3 0 -19 -12 -35z m-77 -195 c9 -19 13 -35 9
-35 -14 0 -52 49 -45 59 10 18 19 12 36 -24z m344 -25 c6 -9 -28 -43 -93 -94
-26 -21 -26 -21 -12 0 29 40 85 104 92 104 4 0 10 -4 13 -10z"/>
<path d="M211 838 c-43 -46 -49 -58 -27 -58 22 0 41 -30 38 -59 -5 -34 -76
-167 -124 -231 -21 -28 -38 -52 -38 -54 0 -4 100 -66 107 -66 11 0 113 -105
113 -116 0 -6 -47 -57 -105 -113 -58 -55 -105 -103 -105 -106 0 -17 31 3 89
59 95 92 215 190 298 244 40 26 73 53 73 60 0 8 -30 60 -67 115 -37 56 -95
159 -131 229 -35 71 -68 130 -72 133 -5 3 -27 -14 -49 -37z m94 -94 l44 -88
-64 64 c-36 36 -65 69 -65 74 0 11 32 48 37 42 2 -2 24 -43 48 -92z m-53 -36
c-7 -7 -12 -8 -12 -2 0 14 12 26 19 19 2 -3 -1 -11 -7 -17z m174 -183 c19 -27
34 -53 34 -56 0 -10 -137 -186 -150 -194 -19 -12 -128 127 -158 201 -12 29
-11 35 19 85 18 30 48 74 68 98 l35 44 59 -64 c32 -35 74 -86 93 -114z m-273
-97 l27 -47 -40 26 c-22 15 -40 32 -40 38 0 10 22 38 25 32 1 -1 14 -23 28
-49z m347 -7 c8 -16 -1 -26 -63 -66 l-71 -48 32 39 c18 21 43 53 55 71 23 33
31 34 47 4z"/>
</g>
</svg>
