<?xml version="1.0" standalone="no"?>
<!DOCTYPE svg PUBLIC "-//W3C//DTD SVG 20010904//EN"
 "http://www.w3.org/TR/2001/REC-SVG-20010904/DTD/svg10.dtd">
<svg version="1.0" xmlns="http://www.w3.org/2000/svg"
 width="81.000000pt" height="67.000000pt" viewBox="0 0 81.000000 67.000000"
 preserveAspectRatio="xMidYMid meet">
<metadata>
Created by potrace 1.16, written by Peter Selinger 2001-2019
</metadata>
<g transform="translate(0.000000,67.000000) scale(0.100000,-0.100000)"
fill="#000000" stroke="none">
<path d="M54 617 c-3 -8 -4 -30 -2 -49 3 -38 0 -37 108 -8 41 11 98 20 127 20
51 0 52 -1 58 -32 12 -75 25 -247 25 -338 l0 -98 -62 -4 c-35 -2 -67 -1 -72 3
-9 8 -2 372 9 405 6 18 2 22 -31 27 -21 4 -39 5 -41 4 -1 -2 4 -35 12 -73 8
-38 18 -138 21 -222 l7 -154 -59 7 c-32 4 -63 8 -68 9 -6 0 -13 -16 -16 -37
-8 -44 -18 -42 94 -18 27 6 94 15 149 20 55 5 105 15 110 20 8 8 5 11 -11 11
-22 0 -22 3 -22 129 0 103 12 284 23 345 1 6 -5 11 -13 11 -8 0 -15 -10 -15
-25 -4 -81 -9 -94 -14 -35 l-6 60 -55 3 c-84 4 -213 19 -232 27 -12 5 -20 2
-24 -8z m81 -36 c-16 -15 -58 -17 -62 -3 -3 8 7 12 33 12 23 0 34 -4 29 -9z
m84 -98 c-1 -34 -2 -35 -9 -13 -11 36 -11 50 0 50 6 0 10 -17 9 -37z m-74
-403 c-28 -12 -55 -12 -55 0 0 6 17 10 38 9 30 0 33 -2 17 -9z"/>
<path d="M557 614 c-2 -3 2 -24 10 -47 12 -32 15 -93 16 -254 0 -172 3 -213
14 -213 10 0 13 34 13 167 0 156 10 256 31 311 6 16 5 24 -4 26 -27 9 -75 15
-80 10z m52 -66 c-1 -37 -2 -39 -9 -18 -12 36 -12 60 0 60 6 0 10 -19 9 -42z"/>
<path d="M709 603 c-26 -4 -26 -5 -13 -43 8 -22 17 -64 20 -93 5 -45 4 -55
-10 -60 -10 -4 -14 -12 -11 -17 4 -6 6 -85 6 -175 -1 -92 3 -166 8 -169 14 -9
18 18 20 113 1 46 9 115 17 154 13 57 14 74 3 93 -10 19 -9 38 4 106 9 45 14
85 11 90 -5 8 -8 8 -55 1z m31 -43 c0 -11 -4 -20 -10 -20 -5 0 -10 9 -10 20 0
11 5 20 10 20 6 0 10 -9 10 -20z m-6 -207 c-10 -40 -14 -41 -14 -5 0 18 5 32
10 32 6 0 8 -11 4 -27z"/>
</g>
</svg>
