<?xml version="1.0" standalone="no"?>
<!DOCTYPE svg PUBLIC "-//W3C//DTD SVG 20010904//EN"
 "http://www.w3.org/TR/2001/REC-SVG-20010904/DTD/svg10.dtd">
<svg version="1.0" xmlns="http://www.w3.org/2000/svg"
 width="141.000000pt" height="62.000000pt" viewBox="0 0 141.000000 62.000000"
 preserveAspectRatio="xMidYMid meet">
<metadata>
Created by potrace 1.16, written by Peter Selinger 2001-2019
</metadata>
<g transform="translate(0.000000,62.000000) scale(0.100000,-0.100000)"
fill="#000000" stroke="none">
<path d="M383 569 c1 -16 -5 -24 -22 -28 -21 -6 -22 -8 -7 -20 13 -11 16 -33
16 -114 l0 -100 -130 6 c-72 3 -130 2 -130 -3 0 -4 -9 -10 -19 -13 -17 -4 -19
-12 -15 -58 2 -30 6 -78 7 -108 2 -31 9 -57 15 -59 9 -3 10 16 6 71 -10 114
-7 120 70 135 72 13 196 16 196 4 0 -4 -18 -18 -40 -32 -31 -19 -40 -30 -36
-45 3 -11 6 -29 6 -40 1 -19 1 -19 14 -2 12 16 14 15 20 -18 9 -44 21 -45 30
-3 4 19 24 51 48 75 26 27 36 43 27 43 -8 0 -30 -16 -49 -35 -31 -32 -60 -45
-60 -27 0 12 36 62 56 77 20 15 124 21 124 7 0 -4 -29 -37 -65 -72 -51 -51
-65 -71 -63 -90 4 -31 21 -28 30 5 10 40 114 165 137 165 17 0 21 15 32 121 6
63 16 110 25 120 8 8 14 21 14 27 0 10 -61 19 -140 21 -19 0 -50 3 -67 6 -30
5 -33 4 -30 -16z m181 -34 c3 -8 3 -51 -1 -95 l-6 -80 -83 0 c-83 0 -84 0 -84
25 0 25 1 25 80 25 47 0 80 4 80 10 0 6 -33 10 -80 10 -44 0 -80 3 -80 8 1 24
20 32 71 31 30 -1 63 -1 74 0 l20 2 -20 9 c-11 5 -45 9 -77 9 -51 1 -56 3 -51
21 9 35 144 57 157 25z m-14 -208 c0 -16 -8 -18 -80 -16 -64 3 -80 6 -80 19 0
12 15 15 80 15 71 0 80 -2 80 -18z"/>
<path d="M1125 450 c-8 -16 -15 -31 -15 -33 0 -2 32 -2 70 1 58 4 70 2 70 -10
0 -24 -105 -39 -125 -19 -6 6 -19 2 -33 -9 l-23 -19 30 -63 c16 -35 33 -75 36
-90 11 -43 28 -34 59 30 15 31 41 76 57 100 16 24 27 47 24 52 -7 12 5 40 17
40 6 0 5 -7 -2 -15 -17 -21 -5 -31 15 -12 20 21 19 30 -7 46 -16 10 -23 10
-26 2 -6 -18 -54 -13 -90 9 -18 11 -35 20 -37 20 -2 0 -11 -13 -20 -30z m98
-121 c-12 -24 -21 -29 -50 -29 -23 0 -33 -4 -30 -12 2 -7 14 -12 26 -11 21 3
21 2 5 -30 -9 -17 -18 -33 -19 -35 -1 -1 -12 25 -24 58 -31 85 -26 96 48 92
l59 -4 -15 -29z"/>
<path d="M1130 330 c0 -12 27 -12 55 0 16 7 13 9 -17 9 -21 1 -38 -3 -38 -9z"/>
<path d="M670 431 c0 -22 -5 -31 -16 -31 -13 0 -15 -5 -8 -27 5 -16 9 -64 10
-108 1 -94 4 -111 13 -70 8 40 25 38 29 -2 2 -18 7 -33 12 -33 4 0 7 15 6 33
-2 45 28 45 32 -1 4 -39 22 -33 22 9 0 16 5 29 10 29 6 0 10 -16 10 -35 0 -19
5 -35 10 -35 6 0 10 16 10 35 l0 35 95 0 c57 0 95 4 95 10 0 6 -39 10 -96 10
-86 0 -95 2 -92 18 4 19 2 19 113 22 74 2 77 3 35 11 -25 4 -66 8 -92 8 -40 1
-48 4 -48 19 0 16 13 20 88 29 l87 10 -87 1 c-71 2 -88 5 -88 17 0 8 -4 15
-10 15 -5 0 -10 -20 -10 -45 0 -34 -4 -45 -16 -45 -11 0 -15 8 -13 28 3 44 0
64 -11 57 -5 -3 -10 -26 -10 -51 0 -66 -18 -53 -22 16 l-3 60 144 0 143 0 -4
-30 c-3 -17 -1 -33 2 -35 4 -3 5 -44 3 -91 -4 -55 -2 -84 4 -81 6 4 13 55 16
114 4 87 8 109 23 120 10 7 16 15 13 17 -2 3 -83 7 -179 9 -96 3 -185 8 -197
12 -21 7 -23 4 -23 -24z m36 -78 c0 -27 -6 -48 -13 -51 -16 -5 -17 36 -3 72
14 37 18 32 16 -21z m-10 -111 c-4 -3 -11 -1 -18 6 -8 8 -8 15 3 28 13 16 14
16 17 -5 2 -13 1 -25 -2 -29z m54 23 c0 -16 -6 -25 -15 -25 -9 0 -15 9 -15 25
0 16 6 25 15 25 9 0 15 -9 15 -25z m44 16 c8 -12 -3 -41 -15 -41 -5 0 -9 11
-9 25 0 25 14 34 24 16z"/>
<path d="M513 233 c-17 -21 -43 -51 -57 -66 -30 -32 -32 -45 -12 -72 13 -18
14 -17 21 14 4 18 27 61 51 97 48 70 46 86 -3 27z"/>
</g>
</svg>
