<?xml version="1.0" standalone="no"?>
<!DOCTYPE svg PUBLIC "-//W3C//DTD SVG 20010904//EN"
 "http://www.w3.org/TR/2001/REC-SVG-20010904/DTD/svg10.dtd">
<svg version="1.0" xmlns="http://www.w3.org/2000/svg"
 width="121.000000pt" height="130.000000pt" viewBox="0 0 121.000000 130.000000"
 preserveAspectRatio="xMidYMid meet">
<metadata>
Created by potrace 1.16, written by Peter Selinger 2001-2019
</metadata>
<g transform="translate(0.000000,130.000000) scale(0.100000,-0.100000)"
fill="#000000" stroke="none">
<path d="M385 1213 c-39 -66 -64 -85 -205 -154 -69 -33 -127 -63 -129 -65 -2
-2 4 -20 15 -39 18 -34 18 -35 -5 -65 -12 -18 -21 -33 -19 -35 1 -1 26 -8 53
-14 230 -50 311 -73 332 -93 26 -24 25 -24 46 18 33 64 174 227 189 218 4 -3
8 -50 8 -104 0 -98 5 -130 20 -130 4 0 5 47 2 105 l-5 105 27 0 c14 0 28 1 31
1 58 14 168 31 233 36 59 4 82 10 82 19 0 17 -6 17 -126 3 -91 -11 -207 -6
-232 10 -11 7 -4 82 15 145 5 17 1 18 -37 13 -23 -3 -44 -8 -47 -11 -3 -3 2
-39 12 -81 9 -42 15 -78 13 -80 -9 -9 -91 67 -163 152 -43 51 -80 93 -81 93
-1 0 -14 -21 -29 -47z m105 -76 c0 -6 -42 18 -89 50 -2 1 2 9 9 18 11 13 17
11 46 -22 18 -21 33 -41 34 -46z m6 -38 c49 -34 99 -72 111 -84 l23 -24 -89
-83 c-115 -108 -128 -115 -189 -100 -66 18 -232 100 -232 115 0 8 11 24 25 37
l25 23 0 -28 c0 -29 -1 -29 71 -13 9 2 14 -6 15 -22 2 -52 4 -60 14 -60 6 0
10 23 10 51 0 31 4 48 10 44 6 -3 10 -28 10 -56 0 -29 4 -49 11 -49 8 0 10 18
7 55 -4 41 -1 55 9 55 9 0 13 -13 13 -39 0 -57 18 -61 22 -5 4 59 27 73 29 17
1 -42 15 -104 19 -88 2 6 4 37 4 70 l1 60 87 10 c121 14 125 29 7 22 l-97 -6
-7 44 c-8 60 -28 59 -23 -2 2 -31 -1 -48 -9 -50 -9 -3 -13 9 -13 41 0 32 -4
46 -14 46 -10 0 -12 -11 -9 -44 3 -26 1 -46 -6 -50 -7 -5 -11 7 -11 38 0 25
-4 46 -10 46 -5 0 -10 -18 -10 -39 0 -22 -4 -43 -10 -46 -6 -4 -10 8 -10 29 0
19 -2 40 -5 48 -4 13 99 98 120 98 7 0 52 -28 101 -61z m190 39 c-3 -13 -6
-34 -7 -48 l-1 -25 -8 25 c-14 43 -11 70 6 70 12 0 15 -6 10 -22z m-428 -115
c-3 -34 -6 -38 -28 -35 -36 5 -49 21 -27 33 9 6 23 16 30 24 20 24 28 17 25
-22z m-123 -39 c-29 -32 -37 -36 -45 -24 -5 8 -10 17 -9 20 0 6 83 48 87 45 2
-2 -13 -20 -33 -41z m595 6 c0 -5 -9 -10 -20 -10 -11 0 -20 5 -20 10 0 6 9 10
20 10 11 0 20 -4 20 -10z m-510 -24 c0 -2 -7 -6 -15 -10 -8 -3 -15 -1 -15 4 0
6 7 10 15 10 8 0 15 -2 15 -4z m-55 -103 c24 -16 5 -17 -47 -3 -25 7 -35 15
-32 25 6 15 35 7 79 -22z m299 -68 c-16 -25 -34 -33 -34 -16 0 7 37 38 48 40
1 1 -5 -10 -14 -24z"/>
<path d="M1092 931 c-14 -9 -6 -91 10 -91 8 0 28 42 28 59 0 18 -26 40 -38 32z"/>
<path d="M392 549 c-16 -28 -45 -61 -64 -73 -113 -69 -158 -93 -203 -113 l-50
-21 3 -49 c3 -36 -1 -53 -12 -62 -9 -8 -16 -22 -16 -32 0 -15 7 -19 33 -19 38
0 183 -40 249 -70 34 -15 49 -28 58 -53 11 -29 13 -31 23 -13 104 167 204 293
194 244 -1 -9 11 -12 41 -10 l42 3 0 -110 c0 -67 4 -111 10 -111 6 0 10 43 10
108 0 71 4 112 12 120 7 7 43 13 82 13 113 2 207 13 204 24 -2 6 -56 8 -140 6
-75 -1 -140 -1 -145 2 -8 5 -1 152 8 187 3 12 -5 14 -41 11 -25 -1 -46 -4 -48
-6 -1 -1 7 -40 18 -86 11 -46 20 -88 20 -93 0 -5 -14 -6 -31 -2 -18 3 -37 1
-44 -4 -10 -8 -24 5 -57 52 -68 97 -108 166 -108 188 0 34 -17 22 -48 -31z
m69 -64 l24 -40 -43 33 c-23 19 -42 35 -42 37 0 2 3 11 6 20 8 20 19 10 55
-50z m238 -27 c0 -55 -9 -48 -23 20 -6 25 -4 32 8 32 13 0 16 -11 15 -52z
m-242 -20 c28 -22 68 -59 87 -83 l36 -43 -43 -51 c-48 -57 -146 -131 -174
-131 -26 0 -229 102 -255 128 -6 6 2 22 19 40 34 37 166 136 210 157 18 9 35
20 38 25 8 12 15 9 82 -42z m-327 -107 c-14 -27 -30 -36 -30 -17 0 8 8 20 18
25 23 14 24 14 12 -8z m532 -23 c-17 -8 -26 -8 -34 0 -9 9 -4 12 23 11 32 0
33 -1 11 -11z m-507 -104 c29 -19 33 -24 15 -19 -14 4 -37 9 -52 12 -16 3 -28
12 -28 19 0 20 20 17 65 -12z m286 -71 c-5 -10 -16 -27 -25 -38 -14 -18 -15
-18 -16 -3 0 19 29 58 43 58 4 0 3 -8 -2 -17z"/>
<path d="M360 350 c0 -43 -3 -50 -20 -50 -17 0 -20 7 -20 45 0 59 -18 58 -22
-2 -4 -64 -26 -69 -30 -6 -2 28 -7 46 -13 43 -5 -3 -8 -25 -7 -48 l4 -44 -44
3 c-29 3 -43 0 -42 -9 3 -41 2 -40 42 -27 l37 13 10 -41 10 -42 3 43 c2 28 8
42 18 42 10 0 14 -13 14 -50 0 -27 5 -50 10 -50 6 0 10 25 10 55 0 48 2 55 20
55 11 0 21 -7 21 -15 1 -8 3 -19 4 -25 1 -5 3 -26 4 -45 0 -19 6 -35 12 -35 8
0 10 20 7 60 -4 53 -2 60 14 60 15 0 18 -8 18 -50 0 -69 18 -63 22 8 l3 57 45
6 c49 6 36 20 -15 16 -29 -2 -30 0 -33 41 -4 56 -22 54 -22 -3 0 -38 -3 -45
-20 -45 -13 0 -19 6 -18 18 3 38 -3 72 -12 72 -5 0 -10 -22 -10 -50z"/>
<path d="M1020 234 c-11 -12 -10 -18 3 -32 16 -15 18 -15 34 0 13 14 14 20 3
32 -7 9 -16 16 -20 16 -4 0 -13 -7 -20 -16z"/>
</g>
</svg>
