<?xml version="1.0" standalone="no"?>
<!DOCTYPE svg PUBLIC "-//W3C//DTD SVG 20010904//EN"
 "http://www.w3.org/TR/2001/REC-SVG-20010904/DTD/svg10.dtd">
<svg version="1.0" xmlns="http://www.w3.org/2000/svg"
 width="134.000000pt" height="74.000000pt" viewBox="0 0 134.000000 74.000000"
 preserveAspectRatio="xMidYMid meet">
<metadata>
Created by potrace 1.16, written by Peter Selinger 2001-2019
</metadata>
<g transform="translate(0.000000,74.000000) scale(0.100000,-0.100000)"
fill="#000000" stroke="none">
<path d="M400 684 c-13 -34 -5 -45 30 -37 27 5 30 3 30 -19 0 -21 -4 -24 -24
-21 -20 4 -25 0 -28 -18 -2 -18 -10 -24 -28 -24 -27 -1 -27 2 -14 -87 l7 -48
-54 -1 c-73 -1 -115 0 -171 7 -40 5 -48 3 -48 -10 0 -12 -10 -16 -35 -16 -37
0 -43 -8 -23 -28 7 -7 14 -51 16 -102 3 -49 8 -90 13 -90 5 0 9 18 9 40 l0 40
146 0 147 0 -5 -70 c-4 -54 -2 -70 8 -70 7 0 16 5 19 10 11 18 55 12 55 -7 0
-34 -16 -46 -49 -40 -29 6 -31 5 -31 -23 0 -29 2 -30 44 -30 25 0 56 4 70 9
13 6 48 11 78 12 85 3 81 -2 74 121 l-7 108 141 0 140 0 0 -36 c0 -23 4 -34
12 -32 7 3 11 25 9 64 -1 32 5 81 13 108 18 58 15 66 -25 66 -22 0 -29 -5 -29
-20 0 -19 -7 -20 -131 -20 l-131 0 4 68 c3 37 8 75 13 85 6 14 2 17 -31 17
-56 0 -68 10 -53 43 9 20 20 27 41 27 15 0 28 5 28 10 0 6 -30 10 -69 10 -38
0 -87 7 -110 15 -41 14 -42 14 -51 -11z m120 -59 c0 -16 -6 -25 -15 -25 -15 0
-21 31 -8 43 13 14 23 6 23 -18z m74 -77 c13 -47 19 -168 9 -168 -6 0 -24 -3
-41 -6 -30 -6 -32 -5 -43 40 -6 25 -14 46 -17 46 -10 0 -42 -33 -42 -43 0 -6
8 -19 17 -29 16 -18 15 -19 -36 -16 l-53 3 5 73 c6 80 17 102 53 102 18 0 22
-5 21 -24 -3 -38 18 -36 21 2 2 24 8 32 23 32 10 0 19 -6 19 -12 0 -7 5 -5 11
5 14 24 45 21 53 -5z m314 -193 l3 -40 -141 -2 -140 -3 0 48 0 47 137 -5 138
-5 3 -40z m-538 -11 l0 -57 -52 7 c-29 3 -92 6 -140 6 -86 0 -88 0 -88 24 0
30 10 57 19 52 3 -2 31 2 61 9 30 7 88 14 128 14 l72 1 0 -56z m240 -72 l0
-87 -44 3 -44 4 5 35 6 35 -34 -7 c-57 -12 -71 -24 -65 -51 5 -19 3 -22 -11
-17 -10 4 -21 11 -25 17 -10 14 -10 116 0 114 4 -1 18 3 32 9 14 5 40 13 57
16 29 6 35 3 48 -23 20 -38 28 -38 20 -1 -6 30 -7 30 48 40 4 0 7 -38 7 -87z
m-120 -69 c0 -20 -3 -24 -11 -16 -7 7 -9 19 -6 27 10 24 17 19 17 -11z m3 -85
c-6 -41 -18 -49 -28 -19 -7 23 13 78 24 65 5 -5 6 -26 4 -46z m120 20 c6 -42
-1 -49 -59 -56 l-47 -5 8 39 c9 53 11 54 54 54 36 0 39 -2 44 -32z"/>
<path d="M526 521 c-4 -7 -5 -15 -2 -18 9 -9 19 4 14 18 -4 11 -6 11 -12 0z"/>
<path d="M1096 532 c-2 -4 -1 -14 5 -22 5 -8 9 -35 9 -59 l0 -44 -30 38 c-16
21 -30 42 -30 46 0 19 -16 8 -33 -22 -10 -18 -16 -33 -15 -34 2 -1 21 -12 42
-25 43 -26 34 -38 -16 -21 -37 13 -36 14 -44 -27 -8 -38 5 -41 64 -17 l37 16
-42 -43 -42 -43 24 -30 24 -29 10 24 c5 14 18 43 28 65 l18 40 3 -53 c2 -36 7
-52 15 -49 8 2 11 20 9 50 -2 26 0 47 5 47 4 -1 28 -19 53 -40 27 -24 48 -36
54 -30 8 8 -19 37 -72 76 -12 9 -3 12 43 13 63 1 71 4 61 20 -4 7 -30 8 -69 5
l-62 -6 40 35 c22 19 37 39 32 43 -4 4 -20 -5 -36 -20 -43 -41 -52 -30 -31 36
10 31 15 60 12 63 -8 8 -60 6 -66 -3z m-41 -92 c3 -5 1 -10 -4 -10 -6 0 -11 5
-11 10 0 6 2 10 4 10 3 0 8 -4 11 -10z m-3 -162 c-7 -7 -12 -8 -12 -2 0 14 12
26 19 19 2 -3 -1 -11 -7 -17z"/>
</g>
</svg>
