<?xml version="1.0" standalone="no"?>
<!DOCTYPE svg PUBLIC "-//W3C//DTD SVG 20010904//EN"
 "http://www.w3.org/TR/2001/REC-SVG-20010904/DTD/svg10.dtd">
<svg version="1.0" xmlns="http://www.w3.org/2000/svg"
 width="101.000000pt" height="72.000000pt" viewBox="0 0 101.000000 72.000000"
 preserveAspectRatio="xMidYMid meet">
<metadata>
Created by potrace 1.16, written by Peter Selinger 2001-2019
</metadata>
<g transform="translate(0.000000,72.000000) scale(0.100000,-0.100000)"
fill="#000000" stroke="none">
<path d="M427 693 c-3 -4 -5 -80 -5 -168 -1 -88 -1 -206 -2 -262 0 -97 -1
-102 -22 -105 -18 -2 -23 -11 -26 -45 -4 -50 -13 -48 123 -27 55 9 124 18 153
21 51 5 52 5 52 -21 0 -14 4 -26 9 -26 11 0 20 183 9 191 -13 8 110 109 134
109 4 0 8 -47 8 -105 0 -69 4 -105 11 -105 8 0 10 67 8 223 -2 122 0 240 4
262 l8 40 -214 0 c-159 0 -218 4 -230 13 -8 7 -17 9 -20 5z m43 -43 c-19 -13
-30 -13 -30 0 0 6 10 10 23 10 18 0 19 -2 7 -10z m375 -22 c3 -13 5 -68 3
-123 l-3 -99 -47 47 c-25 26 -54 68 -65 92 -10 25 -21 45 -24 45 -3 0 -14 -18
-24 -40 -13 -29 -24 -40 -40 -40 -25 0 -38 -21 -29 -45 13 -34 -96 -1 -152 46
-11 9 -21 106 -11 110 16 6 224 25 294 27 89 3 93 2 98 -20z m-125 -108 c0 -5
-2 -10 -4 -10 -3 0 -8 5 -11 10 -3 6 -1 10 4 10 6 0 11 -4 11 -10z m-51 -127
c-1 -94 -2 -102 -11 -63 -8 41 -2 170 8 170 2 0 4 -48 3 -107z m32 7 c-1 -52
-4 -96 -6 -98 -2 -2 -5 41 -7 97 -2 56 1 100 6 98 5 -2 8 -45 7 -97z m-221 74
l25 -14 -29 2 c-16 2 -31 9 -34 16 -5 16 7 15 38 -4z m255 -76 c-6 -98 -15
-98 -15 1 0 51 4 80 10 76 5 -3 8 -37 5 -77z m29 2 c-1 -28 -4 -54 -8 -58 -4
-4 -6 21 -4 55 3 73 15 77 12 3z m-144 31 c0 -15 -29 -21 -100 -21 -64 0 -89
8 -73 24 10 10 173 7 173 -3z m193 -22 c22 -20 22 -21 3 -35 -28 -20 -31 -18
-32 21 0 19 1 35 3 35 2 0 14 -9 26 -21z m-183 -34 c0 -12 -17 -15 -89 -15
-83 0 -111 7 -94 24 3 3 46 6 95 6 72 0 88 -3 88 -15z m6 -46 c11 -19 -9 -27
-71 -30 -90 -3 -125 0 -125 11 0 6 10 15 23 20 32 13 164 12 173 -1z m8 -79
c6 -39 18 -51 32 -29 11 18 24 -11 24 -54 0 -21 -3 -36 -7 -34 -5 3 -60 8
-123 12 -63 4 -118 9 -122 12 -14 8 -8 50 8 64 13 10 151 64 175 68 4 1 9 -17
13 -39z m57 19 c-13 -11 -27 -17 -30 -13 -7 7 28 34 43 34 6 -1 0 -10 -13 -21z
m-226 -9 c-3 -5 -13 -10 -21 -10 -8 0 -14 5 -14 10 0 6 9 10 21 10 11 0 17 -4
14 -10z m45 -131 l45 -1 -35 -8 c-127 -29 -130 -29 -130 -2 0 23 3 24 38 18
20 -3 57 -6 82 -7z"/>
<path d="M192 526 c-17 -8 -22 -18 -20 -41 3 -29 2 -30 -37 -26 -22 1 -44 4
-50 4 -5 1 -9 -6 -7 -15 2 -14 -4 -18 -24 -18 -21 0 -25 -3 -19 -17 4 -10 10
-69 12 -130 3 -62 10 -110 14 -107 5 3 9 20 9 38 0 29 4 34 31 40 62 12 77 8
71 -19 -2 -14 0 -25 6 -25 6 0 12 12 14 27 l3 28 108 3 c78 2 107 6 105 14 -3
9 -33 11 -99 9 -51 -1 -97 -5 -102 -8 -4 -2 -7 31 -5 74 l3 78 95 3 c52 2 99
8 105 13 7 8 -21 10 -93 7 -114 -4 -105 -10 -86 60 7 24 1 25 -34 8z m-14
-168 c-2 -49 -7 -72 -15 -71 -6 1 -30 4 -53 5 l-42 3 6 48 c11 77 15 82 84 86
22 1 23 -1 20 -71z"/>
<path d="M746 200 c4 -27 3 -40 -5 -40 -14 0 -15 -37 -1 -45 6 -3 10 -22 10
-41 0 -19 4 -34 9 -34 11 0 20 51 25 138 3 60 3 62 -20 62 -23 0 -24 -3 -18
-40z"/>
</g>
</svg>
