<?xml version="1.0" standalone="no"?>
<!DOCTYPE svg PUBLIC "-//W3C//DTD SVG 20010904//EN"
 "http://www.w3.org/TR/2001/REC-SVG-20010904/DTD/svg10.dtd">
<svg version="1.0" xmlns="http://www.w3.org/2000/svg"
 width="104.000000pt" height="218.000000pt" viewBox="0 0 104.000000 218.000000"
 preserveAspectRatio="xMidYMid meet">
<metadata>
Created by potrace 1.16, written by Peter Selinger 2001-2019
</metadata>
<g transform="translate(0.000000,218.000000) scale(0.100000,-0.100000)"
fill="#000000" stroke="none">
<path d="M227 2135 c-27 -34 -29 -55 -4 -55 7 0 30 -12 51 -26 l39 -27 -74
-36 c-41 -21 -102 -46 -137 -57 -34 -10 -62 -23 -62 -27 0 -4 7 -21 15 -36 13
-26 13 -30 -5 -46 -33 -30 -24 -42 37 -49 31 -4 70 -13 87 -20 17 -7 55 -24
84 -37 l54 -23 -29 -26 c-17 -14 -37 -29 -47 -35 -15 -9 -15 -13 5 -52 12 -24
24 -43 29 -43 4 0 26 27 49 60 23 33 44 60 45 60 2 0 36 -18 76 -40 40 -22 77
-40 81 -40 5 0 9 -9 9 -19 0 -14 5 -18 20 -14 11 3 20 9 20 12 0 14 -46 48
-110 80 -36 19 -69 37 -73 41 -7 6 57 84 120 147 l21 21 48 -45 c30 -27 50
-40 53 -32 2 7 -15 30 -38 51 -22 21 -41 42 -41 45 0 4 14 21 31 39 17 18 28
37 24 44 -4 7 -20 -4 -43 -30 l-37 -41 -79 79 -78 80 61 33 c33 19 61 40 61
47 0 19 -14 15 -71 -23 -30 -19 -57 -35 -61 -35 -4 0 -26 25 -50 55 -23 30
-45 55 -48 55 -3 0 -18 -16 -33 -35z m59 -32 c38 -52 37 -57 -2 -28 -21 16
-41 30 -43 31 -5 4 9 24 18 24 4 0 16 -12 27 -27z m143 -170 l79 -68 -36 -38
c-37 -38 -124 -107 -136 -107 -11 0 -6 84 9 145 24 98 19 108 -39 85 -23 -8
-24 -12 -15 -42 5 -18 12 -68 15 -111 l7 -78 -84 52 c-125 78 -122 73 -69 120
65 57 163 120 178 114 7 -2 48 -35 91 -72z m-102 -35 c-3 -7 -5 -2 -5 12 0 14
2 19 5 13 2 -7 2 -19 0 -25z m-202 -8 c-27 -29 -45 -31 -45 -6 0 7 12 17 28
23 44 18 47 15 17 -17z m21 -97 c-1 -1 -19 0 -39 4 -29 4 -35 9 -27 19 9 10
17 9 40 -4 16 -9 28 -18 26 -19z m168 -160 c-16 -21 -30 -40 -32 -43 -2 -2 -7
2 -13 10 -7 11 0 23 28 48 20 17 38 30 41 28 2 -3 -9 -22 -24 -43z"/>
<path d="M899 2155 c-4 -4 -62 -11 -169 -20 -19 -1 -34 -4 -33 -6 1 -2 5 -13
8 -24 4 -11 11 -31 15 -45 20 -58 24 -103 25 -249 0 -114 3 -155 13 -158 9 -4
12 33 12 159 1 155 13 249 37 293 9 15 13 10 27 -30 21 -62 21 -95 0 -95 -11
0 -14 -5 -9 -17 24 -59 28 -89 29 -190 1 -154 20 -152 26 2 4 84 10 132 23
159 21 48 21 46 -4 46 -20 0 -21 4 -16 45 4 25 13 59 22 75 16 32 20 60 7 60
-5 0 -11 -2 -13 -5z m-22 -65 c-7 -20 -14 -25 -19 -17 -14 23 -9 47 11 47 17
0 18 -3 8 -30z m-98 8 c0 -7 -6 -29 -13 -48 l-13 -35 -7 39 c-5 28 -4 41 6 47
19 12 28 11 27 -3z m92 -181 c-8 -8 -11 -5 -11 9 0 27 14 41 18 19 2 -9 -1
-22 -7 -28z"/>
<path d="M929 1648 c-1 -7 0 -17 1 -23 1 -5 3 -21 4 -35 0 -14 6 -24 11 -24
16 2 37 53 30 74 -7 22 -44 28 -46 8z"/>
<path d="M365 1520 c-8 -12 20 -24 35 -15 6 3 8 11 5 16 -8 12 -32 12 -40 -1z"/>
<path d="M371 1414 c-23 -25 -40 -48 -37 -51 9 -10 -112 -80 -187 -110 -56
-22 -67 -30 -63 -45 3 -10 8 -26 11 -35 4 -12 -4 -24 -25 -38 -16 -11 -30 -25
-30 -30 0 -6 21 -18 48 -27 52 -19 222 -118 222 -130 0 -5 -6 -8 -14 -8 -24 0
-27 -16 -14 -64 11 -42 38 -65 38 -32 0 32 163 186 278 261 23 15 42 31 42 35
0 8 -33 49 -136 167 -46 53 -64 82 -69 112 -4 23 -10 41 -14 41 -3 0 -26 -21
-50 -46z m54 -42 c6 -21 5 -21 -19 -11 -29 14 -31 20 -14 37 14 14 23 7 33
-26z m-3 -43 c23 -12 57 -38 76 -58 52 -55 102 -117 102 -127 0 -5 -22 -24
-48 -42 -26 -18 -76 -53 -112 -78 l-65 -47 -3 51 c-2 31 5 73 18 111 11 33 20
63 20 66 0 6 -80 4 -93 -2 -4 -2 -3 -12 3 -22 15 -30 29 -143 22 -184 l-7 -39
-65 50 c-36 27 -82 70 -102 97 l-37 48 20 29 c20 28 120 108 136 108 4 1 26
14 48 30 22 16 41 29 43 30 1 0 21 -9 44 -21z m-282 -124 c-7 -9 -15 -13 -17
-11 -7 7 7 26 19 26 6 0 6 -6 -2 -15z m233 -45 c-3 -11 -9 -17 -14 -14 -14 8
-10 34 5 34 9 0 12 -7 9 -20z m-232 -52 c27 -33 23 -39 -13 -20 -18 9 -35 18
-37 19 -6 3 10 23 20 23 6 0 19 -10 30 -22z m189 -198 c-6 -11 -15 -20 -20
-20 -14 0 -12 27 3 33 23 10 28 7 17 -13z"/>
<path d="M680 1410 c0 -3 7 -39 16 -80 15 -73 14 -255 -2 -362 -4 -29 -2 -38
9 -38 11 0 16 34 24 173 9 163 12 175 41 236 18 36 32 67 32 70 0 4 -27 6 -60
6 -33 0 -60 -2 -60 -5z m80 -37 c-1 -5 -9 -24 -20 -43 -19 -34 -19 -34 -20 -8
0 14 -3 33 -6 42 -5 12 0 16 20 16 14 0 26 -3 26 -7z"/>
<path d="M830 1396 c0 -6 7 -29 15 -51 8 -22 14 -57 15 -77 0 -36 -2 -38 -30
-38 -35 0 -35 0 -14 -60 13 -36 15 -68 9 -169 -6 -101 -5 -123 6 -119 10 3 16
36 22 112 6 92 11 114 37 160 35 62 37 76 10 76 -11 0 -20 6 -20 13 0 33 25
95 48 119 14 15 22 31 18 35 -12 12 -116 11 -116 -1z m70 -23 c-1 -5 -7 -19
-14 -32 l-13 -24 -5 26 c-3 15 -3 29 0 32 8 8 32 6 32 -2z m-26 -204 c-12 -25
-18 -29 -25 -18 -17 28 -10 49 16 49 25 0 25 0 9 -31z"/>
<path d="M935 978 c-7 -23 0 -81 11 -85 14 -5 37 49 32 74 -4 21 -36 30 -43
11z"/>
<path d="M142 599 c-15 -64 -15 -69 3 -69 21 0 166 -90 160 -100 -3 -5 -19
-12 -36 -15 -26 -6 -30 -10 -23 -28 4 -12 9 -52 11 -90 5 -78 -2 -88 -94 -133
-29 -14 -53 -28 -53 -31 0 -14 36 -103 41 -103 4 0 10 12 14 28 12 51 73 132
98 132 1 0 2 -14 2 -32 0 -17 6 -33 13 -35 8 -3 12 10 12 46 0 54 -6 47 109
133 43 32 62 58 43 58 -6 0 -41 -24 -80 -54 -60 -46 -71 -52 -75 -36 -6 23 6
87 23 127 l14 31 42 -34 c22 -19 44 -34 48 -34 16 0 4 29 -18 44 -50 32 -195
178 -211 211 -9 19 -19 35 -24 35 -4 0 -13 -23 -19 -51z m58 -44 c26 -28 23
-31 -15 -13 -14 6 -25 17 -25 25 0 20 14 16 40 -12z m-36 -439 c-6 -16 -24
-23 -24 -8 0 10 22 33 27 28 2 -2 1 -11 -3 -20z"/>
<path d="M494 537 c20 -65 23 -125 16 -312 -2 -54 1 -90 7 -92 14 -5 23 56 23
157 0 57 7 108 21 155 36 121 38 111 -21 113 -49 1 -52 0 -46 -21z m60 -34
c-11 -45 -24 -51 -24 -10 0 26 4 37 15 37 12 0 14 -7 9 -27z"/>
<path d="M698 555 c-3 -3 -22 -6 -42 -7 -20 -1 -36 -4 -36 -7 0 -3 7 -38 15
-76 19 -93 19 -98 -5 -92 -30 8 -33 -8 -11 -49 18 -33 19 -49 14 -131 -4 -61
-2 -93 4 -93 15 0 23 36 23 105 0 47 7 71 29 112 29 53 28 69 -5 56 -15 -6
-16 -2 -11 34 4 23 16 63 27 89 12 26 17 51 12 56 -5 5 -11 6 -14 3z m-22 -51
c-3 -9 -6 -20 -6 -25 0 -6 -4 -7 -10 -4 -16 10 -12 45 6 45 11 0 14 -5 10 -16z
m-8 -180 c-11 -23 -13 -24 -19 -7 -8 22 -3 33 16 33 12 0 12 -5 3 -26z"/>
<path d="M76 440 c-11 -22 -17 -42 -15 -43 2 -2 19 -14 38 -27 l34 -24 -42
-37 -42 -38 22 -30 c13 -17 26 -31 29 -31 3 0 17 25 29 55 13 30 25 55 27 55
3 0 17 -11 32 -25 15 -14 30 -25 34 -25 17 0 7 22 -22 48 l-31 27 31 37 c38
46 21 61 -18 16 l-29 -32 -17 32 c-9 17 -16 42 -16 57 0 38 -22 30 -44 -15z
m29 -30 c3 -5 1 -10 -4 -10 -6 0 -11 5 -11 10 0 6 2 10 4 10 3 0 8 -4 11 -10z
m-3 -142 c-7 -7 -12 -8 -12 -2 0 14 12 26 19 19 2 -3 -1 -11 -7 -17z"/>
<path d="M813 204 c-4 -10 1 -22 11 -30 10 -7 15 -17 11 -23 -3 -6 -3 -11 2
-11 16 0 33 53 22 67 -16 18 -38 16 -46 -3z"/>
</g>
</svg>
