<?xml version="1.0" standalone="no"?>
<!DOCTYPE svg PUBLIC "-//W3C//DTD SVG 20010904//EN"
 "http://www.w3.org/TR/2001/REC-SVG-20010904/DTD/svg10.dtd">
<svg version="1.0" xmlns="http://www.w3.org/2000/svg"
 width="159.000000pt" height="94.000000pt" viewBox="0 0 159.000000 94.000000"
 preserveAspectRatio="xMidYMid meet">
<metadata>
Created by potrace 1.16, written by Peter Selinger 2001-2019
</metadata>
<g transform="translate(0.000000,94.000000) scale(0.100000,-0.100000)"
fill="#000000" stroke="none">
<path d="M620 821 c0 -23 -5 -30 -22 -33 -19 -2 -22 -8 -20 -33 1 -16 5 -83 8
-147 5 -102 4 -119 -10 -124 -9 -3 -16 -17 -16 -31 0 -23 3 -25 33 -18 17 4
78 9 134 12 l101 5 7 136 c4 74 13 160 21 191 7 31 11 57 10 59 -2 1 -23 -2
-47 -7 -63 -15 -130 -13 -163 4 -37 19 -36 20 -36 -14z m45 -21 c-3 -5 -10
-10 -16 -10 -5 0 -9 5 -9 10 0 6 7 10 16 10 8 0 12 -4 9 -10z m175 -10 c0 -11
-4 -20 -10 -20 -5 0 -10 9 -10 20 0 11 5 20 10 20 6 0 10 -9 10 -20z m-35 -22
c4 -18 7 -37 8 -42 1 -5 -33 -8 -75 -7 l-78 2 0 -27 c0 -24 3 -26 28 -20 15 4
49 11 75 15 53 8 61 2 55 -41 -3 -22 -7 -23 -80 -23 -75 1 -78 0 -78 -22 0
-31 18 -37 63 -18 20 8 49 15 64 15 28 0 28 0 25 -63 l-3 -62 -52 2 c-29 1
-74 2 -101 3 l-49 0 6 118 c3 64 9 128 13 141 9 30 75 60 131 61 40 0 42 -2
48 -32z m-195 -23 c0 -8 -2 -15 -4 -15 -2 0 -6 7 -10 15 -3 8 -1 15 4 15 6 0
10 -7 10 -15z m-3 -291 c-3 -3 -12 -4 -19 -1 -8 3 -5 6 6 6 11 1 17 -2 13 -5z"/>
<path d="M1057 833 c-14 -4 -17 -11 -13 -26 4 -12 9 -100 12 -196 l6 -174 -40
7 c-22 3 -47 9 -56 12 -10 4 -18 -1 -22 -12 -11 -36 -21 -49 -40 -49 -21 0
-21 6 -11 -159 4 -55 10 -103 15 -108 4 -4 18 5 30 22 19 25 122 100 137 100
3 0 5 -8 5 -19 0 -16 6 -18 48 -14 26 2 58 6 72 8 14 2 61 -3 105 -11 44 -8
100 -14 125 -14 26 0 51 -5 58 -12 17 -17 20 0 25 167 3 102 10 170 23 213 18
65 15 78 -21 84 -16 2 -20 -3 -21 -23 -1 -29 -52 -107 -124 -192 l-26 -29
-129 12 c-71 6 -132 13 -134 16 -5 5 -1 157 4 163 3 2 48 9 101 15 105 12 131
33 34 28 -33 -2 -78 -1 -100 3 -37 6 -40 9 -40 38 1 18 9 57 20 87 10 30 16
58 14 62 -5 8 -27 9 -57 1z m25 -50 c-5 -24 -6 -25 -12 -8 -8 21 -4 35 9 35 5
0 6 -12 3 -27z m445 -185 c-3 -8 -6 -5 -6 6 -1 11 2 17 5 13 3 -3 4 -12 1 -19z
m-34 -213 l-8 -160 -55 3 c-80 4 -268 31 -312 44 -32 9 -41 8 -65 -8 -40 -26
-116 -64 -129 -64 -11 0 -9 78 4 140 12 55 36 62 187 55 177 -7 227 -14 249
-34 14 -12 20 -13 23 -3 17 48 107 214 110 202 2 -8 0 -87 -4 -175z m-474 41
c-12 -10 -59 -15 -59 -6 0 5 14 10 32 10 17 0 29 -2 27 -4z m363 -28 c-7 -7
-12 -8 -12 -2 0 14 12 26 19 19 2 -3 -1 -11 -7 -17z m-255 -154 c-3 -3 -12 -4
-19 -1 -8 3 -5 6 6 6 11 1 17 -2 13 -5z"/>
<path d="M953 764 c-13 -14 -23 -28 -23 -33 0 -5 18 -20 40 -35 22 -14 40 -31
40 -36 0 -6 7 -10 16 -10 9 0 14 3 12 8 -23 44 -40 91 -40 110 -1 28 -17 27
-45 -4z m27 -34 c0 -5 -4 -10 -10 -10 -5 0 -10 5 -10 10 0 6 5 10 10 10 6 0
10 -4 10 -10z"/>
<path d="M193 736 c-4 -8 -19 -16 -33 -18 -19 -2 -24 -8 -21 -23 2 -11 6 -59
8 -107 2 -49 7 -88 11 -88 4 0 29 7 56 15 57 17 266 21 266 5 0 -5 4 -10 9
-10 4 0 11 33 14 74 4 40 11 86 17 101 14 36 1 49 -34 35 -32 -12 -244 5 -260
21 -14 13 -24 11 -33 -5z m44 -32 c-3 -3 -12 -4 -19 -1 -8 3 -5 6 6 6 11 1 17
-2 13 -5z m236 -14 c4 0 7 -31 7 -70 l0 -70 -149 0 -149 0 -4 24 c-7 33 6 101
18 99 5 -1 32 5 59 13 32 9 78 12 130 9 44 -2 83 -5 88 -5z"/>
<path d="M929 594 c-13 -24 -12 -27 16 -47 17 -12 41 -32 54 -45 33 -33 37
-20 11 30 -13 24 -28 53 -34 65 -14 30 -29 29 -47 -3z m35 -20 c3 -8 2 -12 -4
-9 -6 3 -10 10 -10 16 0 14 7 11 14 -7z"/>
<path d="M331 462 c-19 -25 -57 -52 -106 -76 -61 -30 -75 -41 -69 -54 9 -21 9
-50 -1 -79 -6 -20 -4 -23 20 -23 38 0 117 -57 110 -79 -3 -10 3 -25 14 -35 18
-17 20 -15 52 29 18 25 47 54 64 65 17 10 40 30 53 43 22 23 22 24 4 48 -28
36 -92 158 -92 174 0 29 -19 24 -49 -13z m39 -23 c0 -6 -4 -7 -10 -4 -5 3 -10
11 -10 16 0 6 5 7 10 4 6 -3 10 -11 10 -16z m20 -60 c22 -23 40 -46 40 -52 0
-6 8 -19 17 -30 17 -18 17 -20 -12 -44 -17 -13 -49 -38 -72 -54 l-43 -30 0 56
c0 31 7 72 15 92 21 49 19 53 -14 53 l-30 0 6 -90 c3 -50 2 -90 -3 -90 -11 0
-94 89 -94 101 0 31 104 128 138 129 6 0 30 -19 52 -41z m-190 -43 c0 -3 -4
-8 -10 -11 -5 -3 -10 -1 -10 4 0 6 5 11 10 11 6 0 10 -2 10 -4z m-5 -76 c3 -5
1 -10 -4 -10 -6 0 -11 5 -11 10 0 6 2 10 4 10 3 0 8 -4 11 -10z"/>
<path d="M687 413 c-16 -4 -17 -11 -12 -44 4 -22 3 -45 -2 -52 -11 -16 -4
-237 8 -237 5 0 9 28 9 61 0 60 15 135 31 153 4 5 3 16 -3 25 -7 12 -6 27 5
53 20 47 13 54 -36 41z"/>
<path d="M576 402 c-3 -5 2 -31 11 -58 9 -29 16 -90 17 -149 1 -134 21 -128
22 8 0 56 4 126 8 155 l7 52 -30 0 c-16 0 -32 -4 -35 -8z m44 -31 c0 -6 -4
-13 -10 -16 -5 -3 -10 1 -10 9 0 9 5 16 10 16 6 0 10 -4 10 -9z"/>
</g>
</svg>
