<?xml version="1.0" standalone="no"?>
<!DOCTYPE svg PUBLIC "-//W3C//DTD SVG 20010904//EN"
 "http://www.w3.org/TR/2001/REC-SVG-20010904/DTD/svg10.dtd">
<svg version="1.0" xmlns="http://www.w3.org/2000/svg"
 width="141.000000pt" height="85.000000pt" viewBox="0 0 141.000000 85.000000"
 preserveAspectRatio="xMidYMid meet">
<metadata>
Created by potrace 1.16, written by Peter Selinger 2001-2019
</metadata>
<g transform="translate(0.000000,85.000000) scale(0.100000,-0.100000)"
fill="#000000" stroke="none">
<path d="M320 839 c531 -11 1090 -10 1090 1 0 7 -241 9 -707 8 -601 -2 -659
-3 -383 -9z"/>
<path d="M134 793 c-4 -16 -16 -41 -27 -56 -10 -16 -18 -29 -16 -31 2 -2 27
-9 54 -16 42 -11 130 -46 144 -57 2 -1 -8 -34 -23 -72 -18 -45 -46 -91 -79
-129 -111 -125 -127 -146 -120 -152 4 -4 31 -15 58 -25 70 -25 158 -84 147
-99 -5 -6 -25 -32 -45 -57 -20 -25 -37 -49 -37 -53 0 -18 24 0 62 49 23 30 46
55 49 55 4 0 34 -20 68 -45 34 -25 66 -45 71 -45 24 0 5 21 -55 61 -36 23 -65
46 -65 50 0 4 54 63 120 132 l121 126 -58 42 c-70 52 -230 206 -298 288 -27
33 -53 60 -57 60 -4 1 -11 -11 -14 -26z m93 -99 c-6 -7 -77 20 -77 28 0 5 -4
6 -10 3 -13 -8 -13 -2 2 31 l12 27 38 -43 c21 -24 37 -44 35 -46z m91 -131
c-26 -28 -33 -19 -18 22 9 23 13 25 25 15 14 -12 13 -16 -7 -37z m67 -23 c10
-12 34 -30 52 -41 18 -11 33 -27 33 -36 0 -46 -147 -273 -177 -273 -23 0 -108
69 -129 106 l-26 44 35 43 c50 61 169 177 183 177 6 0 19 -9 29 -20z m131
-111 c3 -6 -12 -30 -36 -53 l-42 -41 26 53 c26 52 39 62 52 41z m-378 -134
c13 -28 10 -30 -18 -15 -11 6 -17 17 -14 25 9 22 19 18 32 -10z"/>
<path d="M1290 763 c-43 -5 -57 -17 -42 -36 7 -7 18 -49 27 -92 12 -63 13
-126 8 -321 l-6 -243 -36 16 c-20 8 -70 28 -112 43 -41 15 -115 49 -163 74
l-88 47 -22 -20 c-11 -10 -74 -47 -140 -81 l-119 -61 8 102 c4 57 11 112 15
124 14 37 74 44 288 38 l192 -6 0 22 c0 26 22 71 94 189 87 144 90 182 4 55
-28 -43 -80 -107 -115 -143 -42 -42 -60 -67 -53 -74 6 -6 10 -13 10 -17 0 -11
-264 -2 -328 12 -31 6 -62 19 -68 28 -11 14 -14 14 -31 0 -10 -9 -26 -19 -35
-22 -22 -8 -22 -20 -3 -72 11 -31 13 -70 8 -175 -5 -115 -4 -133 8 -124 126
100 231 164 267 164 29 0 152 -39 330 -105 87 -32 105 -36 113 -24 5 8 9 131
9 274 0 191 4 279 15 330 17 78 19 106 8 103 -5 0 -24 -3 -43 -5z m19 -50 c0
-16 -4 -37 -9 -48 -8 -18 -9 -18 -9 5 -1 14 -4 35 -7 48 -5 16 -2 22 10 22 11
0 16 -9 15 -27z m-217 -297 c-10 -20 -21 -33 -25 -30 -11 11 -9 19 14 48 28
36 33 28 11 -18z m-483 -43 c0 -10 -4 -27 -8 -38 -7 -17 -9 -16 -13 10 -4 17
-4 33 -1 37 8 15 23 8 22 -9z m51 -3 c-19 -13 -30 -13 -30 0 0 6 10 10 23 10
18 0 19 -2 7 -10z m260 -160 c0 -5 -6 -10 -14 -10 -8 0 -18 5 -21 10 -3 6 3
10 14 10 12 0 21 -4 21 -10z"/>
</g>
</svg>
