<?xml version="1.0" standalone="no"?>
<!DOCTYPE svg PUBLIC "-//W3C//DTD SVG 20010904//EN"
 "http://www.w3.org/TR/2001/REC-SVG-20010904/DTD/svg10.dtd">
<svg version="1.0" xmlns="http://www.w3.org/2000/svg"
 width="140.000000pt" height="166.000000pt" viewBox="0 0 140.000000 166.000000"
 preserveAspectRatio="xMidYMid meet">
<metadata>
Created by potrace 1.16, written by Peter Selinger 2001-2019
</metadata>
<g transform="translate(0.000000,166.000000) scale(0.100000,-0.100000)"
fill="#000000" stroke="none">
<path d="M988 1608 l-25 -32 -28 22 c-15 12 -31 20 -35 17 -4 -3 -13 -25 -19
-50 -6 -25 -19 -59 -29 -77 -10 -18 -40 -72 -66 -121 -39 -72 -54 -90 -83
-102 -20 -9 -34 -17 -32 -19 2 -2 54 -45 114 -96 61 -50 122 -107 137 -125
l28 -33 -30 -41 c-17 -22 -30 -45 -30 -51 0 -22 21 -8 46 31 19 30 29 38 37
30 6 -6 15 -11 19 -11 13 0 9 28 -4 33 -16 5 58 117 75 114 6 -1 13 9 15 23 5
32 11 40 122 159 52 56 95 105 95 110 0 4 -14 20 -32 35 l-32 27 -21 -41 -21
-42 -41 59 c-23 32 -59 92 -80 133 -22 41 -43 76 -47 78 -5 1 -19 -12 -33 -30z
m58 -60 l26 -52 -32 27 c-17 15 -36 27 -41 27 -13 0 -11 24 3 38 7 7 13 12 15
12 1 0 14 -23 29 -52z m-111 22 c4 -6 -7 -25 -24 -42 -35 -36 -37 -35 -16 16
15 36 28 45 40 26z m91 -65 c42 -32 95 -85 131 -128 l22 -27 -45 -80 c-25 -44
-48 -80 -51 -80 -7 0 7 108 18 138 12 31 5 40 -25 35 -24 -5 -24 -5 -19 -104
l6 -99 -48 -70 c-27 -39 -51 -70 -54 -70 -15 0 -123 148 -165 226 l-28 52 28
47 c33 57 38 50 48 -65 7 -74 21 -120 38 -120 4 0 8 5 8 12 0 19 50 78 67 78
8 0 31 -16 50 -35 19 -19 37 -35 39 -35 12 0 -1 30 -26 60 -17 19 -30 44 -30
56 0 12 -13 38 -30 59 -16 21 -30 46 -30 56 0 11 -7 19 -15 19 -8 0 -15 -4
-15 -9 0 -10 -58 -26 -66 -18 -2 2 25 36 62 76 43 46 70 68 79 63 7 -4 30 -20
51 -37z m232 -107 c7 -10 -5 -29 -45 -73 l-55 -60 38 73 c21 39 41 72 45 72 4
0 11 -6 17 -12z m-338 -45 c44 -30 54 -57 18 -48 -13 3 -33 7 -45 8 -16 1 -23
8 -23 22 0 38 14 43 50 18z m10 -81 c0 -5 -13 -18 -30 -30 l-30 -23 0 25 c0
19 6 26 28 29 15 2 28 5 30 6 1 0 2 -3 2 -7z m-140 -63 c17 -28 30 -53 28 -54
-2 -2 -27 17 -57 43 -46 40 -51 47 -35 53 30 12 31 12 64 -42z"/>
<path d="M302 1583 c-17 -27 -64 -82 -104 -123 -130 -134 -176 -200 -129 -185
15 4 37 -14 96 -79 42 -46 90 -102 107 -125 29 -40 48 -52 48 -30 0 17 45 78
119 160 39 42 71 82 71 87 0 6 -25 47 -56 92 -47 67 -56 88 -56 125 -1 25 -4
45 -8 45 -4 0 -17 -11 -30 -25 l-24 -25 26 -28 c14 -15 49 -62 77 -105 l53
-79 -63 -66 c-35 -37 -66 -71 -70 -76 -5 -5 -29 -12 -54 -16 l-46 -7 -55 64
c-53 63 -54 65 -54 127 0 61 19 110 37 93 4 -5 10 -51 11 -103 2 -52 7 -94 11
-94 4 0 18 12 32 26 27 29 96 68 101 56 5 -11 66 -52 78 -52 6 0 10 25 10 60
0 64 -9 73 -51 48 -18 -12 -24 -9 -52 22 -18 19 -42 48 -54 65 -20 28 -22 29
-40 12 -11 -9 -23 -17 -28 -17 -17 0 21 33 91 77 41 25 74 50 74 53 0 16 -23
70 -29 70 -4 0 -22 -21 -39 -47z m38 -13 c0 -5 -10 -15 -22 -21 -23 -12 -23
-12 -4 10 21 23 26 26 26 11z m-17 -226 c10 -13 13 -24 7 -24 -5 0 -10 4 -10
8 0 10 -76 42 -83 36 -2 -3 -2 -15 0 -28 5 -22 9 -24 42 -20 34 5 35 5 17 -10
-11 -9 -25 -16 -32 -16 -7 0 -19 -3 -28 -6 -14 -5 -16 3 -16 53 0 33 3 63 6
66 10 10 76 -31 97 -59z m-197 -61 c-3 -3 -12 0 -20 6 -13 11 -13 16 2 39 l17
26 3 -33 c2 -18 1 -35 -2 -38z m284 25 l-1 -33 -20 24 c-15 19 -17 26 -7 32
22 15 28 10 28 -23z m-92 -218 c-11 -18 -28 -27 -28 -16 0 2 -3 11 -6 20 -5
12 0 16 20 16 24 0 25 -2 14 -20z"/>
<path d="M543 1138 c4 -51 20 -59 37 -19 15 37 7 61 -20 61 -17 0 -19 -6 -17
-42z"/>
<path d="M1274 1138 c4 -50 25 -57 39 -15 11 35 3 57 -23 57 -17 0 -19 -5 -16
-42z"/>
<path d="M700 745 l-21 -34 40 -51 c22 -27 61 -84 86 -125 26 -41 51 -75 56
-75 14 0 11 9 -20 64 -33 58 -101 214 -101 233 0 27 -19 21 -40 -12z m39 -46
c15 -44 14 -46 -9 -16 -21 27 -26 47 -11 47 5 0 14 -14 20 -31z"/>
<path d="M620 723 c-1 -34 -130 -241 -151 -242 -4 -1 -9 8 -12 19 -7 28 -20
25 -39 -8 -17 -28 -17 -29 25 -93 24 -35 74 -117 111 -181 37 -65 72 -118 77
-118 14 0 14 1 -56 128 -36 65 -65 123 -65 129 0 6 -7 24 -15 39 -8 16 -15 36
-15 45 0 17 56 95 105 145 90 93 87 87 69 122 -17 35 -34 42 -34 15z m11 -56
c-10 -9 -11 -8 -5 6 3 10 9 15 12 12 3 -3 0 -11 -7 -18z m-181 -206 c0 -5 3
-18 6 -28 6 -16 5 -16 -9 2 -19 23 -21 35 -7 35 6 0 10 -4 10 -9z"/>
<path d="M522 641 c2 -7 7 -12 11 -12 12 1 9 15 -3 20 -7 2 -11 -2 -8 -8z"/>
<path d="M600 535 c-7 -18 -17 -25 -35 -25 -25 0 -26 -2 -18 -37 4 -21 7 -66
6 -100 -1 -44 3 -63 13 -67 8 -3 14 -12 14 -21 0 -27 19 -16 45 25 13 21 35
44 47 51 20 11 26 8 60 -30 20 -24 41 -40 46 -37 5 3 12 40 15 83 3 43 9 89
13 101 6 21 4 23 -17 20 -23 -3 -24 -5 -21 -88 l2 -85 -21 40 c-28 53 -28 53
-45 31 -13 -19 -14 -19 -14 -2 0 10 -9 33 -19 50 -11 17 -25 50 -32 74 -14 48
-25 53 -39 17z m35 -81 c31 -33 32 -47 3 -39 -38 12 -43 11 -43 -10 0 -17 6
-20 35 -18 l35 1 -30 -24 c-67 -55 -68 -54 -60 28 10 101 17 108 60 62z"/>
<path d="M815 328 c-32 -67 -80 -157 -107 -200 -55 -90 -49 -114 8 -30 62 92
164 224 206 268 l39 41 -23 15 c-57 37 -59 36 -123 -94z m95 64 c-5 -10 -26
-35 -46 -57 l-35 -40 30 62 c22 45 35 61 46 57 11 -4 12 -11 5 -22z"/>
<path d="M995 331 c-8 -27 1 -41 26 -41 16 0 20 6 17 27 -4 34 -33 43 -43 14z"/>
</g>
</svg>
