<?xml version="1.0" standalone="no"?>
<!DOCTYPE svg PUBLIC "-//W3C//DTD SVG 20010904//EN"
 "http://www.w3.org/TR/2001/REC-SVG-20010904/DTD/svg10.dtd">
<svg version="1.0" xmlns="http://www.w3.org/2000/svg"
 width="152.000000pt" height="68.000000pt" viewBox="0 0 152.000000 68.000000"
 preserveAspectRatio="xMidYMid meet">
<metadata>
Created by potrace 1.16, written by Peter Selinger 2001-2019
</metadata>
<g transform="translate(0.000000,68.000000) scale(0.100000,-0.100000)"
fill="#000000" stroke="none">
<path d="M95 670 c113 -8 1415 -3 1423 5 3 3 -339 4 -759 3 -420 -1 -719 -5
-664 -8z"/>
<path d="M234 625 c-2 -5 -5 -23 -6 -40 -3 -26 0 -30 20 -27 19 3 22 -1 22
-33 0 -20 -6 -37 -12 -40 -7 -2 -52 -6 -101 -8 -48 -2 -90 -6 -93 -10 -8 -8
-26 -218 -20 -225 11 -10 19 8 21 45 2 33 6 38 26 38 21 0 24 -5 27 -42 4 -54
22 -56 22 -3 l0 40 44 0 c24 0 51 3 60 6 13 5 16 -2 16 -35 0 -51 18 -54 22
-3 l3 37 90 0 90 0 1 -35 c2 -53 3 -54 23 -36 27 24 87 44 117 38 21 -4 25 -9
22 -35 -4 -37 5 -35 -228 -39 l-175 -4 -3 -28 c-6 -53 2 -57 61 -26 47 26 66
30 168 35 63 3 133 8 157 11 l43 5 -3 97 -3 97 -65 0 c-85 1 -90 2 -90 20 0
21 53 45 100 45 33 0 40 -3 40 -20 0 -11 5 -20 10 -20 6 0 10 25 10 55 0 36 7
70 20 95 11 22 20 43 20 47 0 12 -452 10 -456 -2z m46 -25 c-19 -13 -30 -13
-30 0 0 6 10 10 23 10 18 0 19 -2 7 -10z m348 -15 c3 -19 -1 -20 -70 -15 -81
7 -101 -3 -79 -39 6 -10 13 -11 29 -2 11 6 43 11 71 11 43 0 51 -3 51 -19 0
-25 -30 -32 -102 -24 l-58 6 0 -59 c0 -32 -4 -65 -9 -73 -7 -10 -36 -16 -96
-19 l-86 -5 3 54 3 54 65 3 c78 3 110 9 110 22 0 5 -34 7 -84 3 l-84 -6 -3 53
c-6 75 7 80 191 77 137 -2 145 -3 148 -22z m-370 -181 l-3 -56 -55 -1 -55 -1
3 32 c3 42 -14 41 -22 -2 -6 -29 -10 -33 -32 -28 -23 4 -25 8 -22 51 l3 46 85
6 c47 3 89 6 93 7 4 1 7 -23 5 -54z m372 -59 l0 -35 -49 0 c-56 0 -101 14
-101 31 0 23 36 38 93 39 l57 0 0 -35z m-120 -55 c0 -5 -4 -10 -10 -10 -5 0
-10 5 -10 10 0 6 5 10 10 10 6 0 10 -4 10 -10z m-220 -99 c0 -5 -9 -11 -20
-14 -13 -3 -20 0 -20 9 0 8 9 14 20 14 11 0 20 -4 20 -9z"/>
<path d="M1026 568 c1 -23 7 -44 13 -46 6 -2 11 1 11 7 0 6 4 11 8 11 5 0 9
-37 10 -82 l1 -83 -99 0 c-54 0 -102 4 -106 8 -17 17 -24 3 -24 -48 0 -30 5
-55 10 -55 6 0 10 16 10 35 0 26 4 35 18 36 9 1 56 3 104 4 l88 3 -6 -53 c-4
-31 -2 -55 4 -58 13 -9 23 89 21 208 -2 136 -4 135 173 134 l139 -1 19 -39
c11 -21 20 -58 20 -84 l0 -45 -105 0 c-83 0 -105 3 -105 14 0 21 27 27 114 25
53 -1 81 2 84 9 3 9 -25 12 -97 12 -61 0 -101 4 -101 10 0 6 22 10 49 10 62 0
111 10 111 22 0 6 -13 8 -32 3 -60 -12 -113 -13 -126 -3 -19 16 -32 -1 -32
-42 -2 -64 10 -174 19 -183 5 -5 57 -7 115 -5 l106 3 0 -31 0 -31 -159 -6
c-88 -4 -166 -4 -174 -1 -11 4 -16 -2 -19 -17 -5 -39 -28 -35 -28 5 0 20 -4
36 -8 36 -5 0 -8 -27 -8 -60 0 -33 4 -60 7 -60 4 0 19 15 35 34 l29 34 170 4
170 5 6 169 c3 95 10 181 17 197 7 16 12 30 12 33 0 2 -105 4 -233 4 l-233 0
2 -42z m64 17 c0 -2 -9 -9 -20 -15 -16 -9 -20 -8 -20 5 0 8 9 15 20 15 11 0
20 -2 20 -5z m370 -2 c0 -10 -20 -40 -20 -31 0 3 -3 13 -6 22 -4 11 -1 16 10
16 9 0 16 -3 16 -7z m-20 -197 c0 -19 -201 -18 -207 2 -4 9 21 12 101 12 85 0
106 -3 106 -14z m-2 -61 c-4 -4 -108 -8 -165 -6 -29 1 -43 5 -43 15 0 10 22
14 97 15 54 1 100 4 103 7 3 3 7 -2 8 -11 2 -9 2 -18 0 -20z"/>
<path d="M760 371 c0 -46 4 -70 10 -66 6 3 10 28 10 56 l0 49 135 0 c83 0 135
4 135 10 0 6 -48 10 -122 10 -68 0 -133 3 -145 6 -22 6 -23 4 -23 -65z"/>
<path d="M712 200 c0 -46 12 -59 27 -31 18 33 14 71 -8 71 -16 0 -20 -7 -19
-40z"/>
</g>
</svg>
