<?xml version="1.0" standalone="no"?>
<!DOCTYPE svg PUBLIC "-//W3C//DTD SVG 20010904//EN"
 "http://www.w3.org/TR/2001/REC-SVG-20010904/DTD/svg10.dtd">
<svg version="1.0" xmlns="http://www.w3.org/2000/svg"
 width="93.000000pt" height="84.000000pt" viewBox="0 0 93.000000 84.000000"
 preserveAspectRatio="xMidYMid meet">
<metadata>
Created by potrace 1.16, written by Peter Selinger 2001-2019
</metadata>
<g transform="translate(0.000000,84.000000) scale(0.100000,-0.100000)"
fill="#000000" stroke="none">
<path d="M123 833 c71 -2 183 -2 250 0 67 1 10 3 -128 3 -137 0 -192 -2 -122
-3z"/>
<path d="M518 833 c12 -2 32 -2 45 0 12 2 2 4 -23 4 -25 0 -35 -2 -22 -4z"/>
<path d="M452 787 c-29 -31 -28 -43 6 -52 28 -7 241 -110 255 -124 4 -4 -3
-15 -16 -24 -45 -29 -190 -107 -193 -104 -2 2 1 37 7 78 18 123 18 124 -13
127 -25 3 -28 0 -28 -24 l0 -27 -68 6 -68 6 1 -122 c2 -99 5 -121 16 -118 8 1
40 5 72 8 l57 6 0 -48 0 -48 -80 6 -80 6 -1 -67 c-1 -37 -3 -83 -4 -103 -5
-52 6 -64 45 -50 18 6 50 11 71 11 35 0 39 -3 39 -25 0 -14 -8 -29 -20 -35
-21 -11 -27 -30 -11 -30 6 0 51 30 101 67 49 38 137 93 195 123 58 30 105 58
105 62 0 9 -82 50 -88 43 -6 -5 -141 110 -160 136 -11 16 -9 20 15 32 24 12
213 82 251 93 18 5 15 15 -16 52 l-27 33 -34 -31 c-19 -16 -36 -30 -38 -30 -8
0 -114 78 -180 131 -39 33 -75 59 -80 59 -5 0 -19 -10 -31 -23z m88 -46 c14
-12 22 -21 18 -21 -6 0 -73 28 -87 37 -1 1 0 6 4 12 7 12 23 5 65 -28z m-30
-80 c0 -6 -4 -13 -10 -16 -5 -3 -10 1 -10 9 0 9 5 16 10 16 6 0 10 -4 10 -9z
m320 -39 c0 -8 -58 -32 -76 -32 -5 0 2 9 16 20 25 20 60 27 60 12z m-355 -22
c-3 -5 -26 -10 -51 -10 -28 0 -43 4 -39 10 3 6 26 10 51 10 28 0 43 -4 39 -10z
m0 -51 c-4 -5 -29 -9 -58 -9 -60 0 -54 17 8 22 46 4 58 1 50 -13z m5 -50 c0
-13 -4 -18 -12 -13 -7 5 -29 7 -50 5 -46 -3 -51 16 -5 22 65 8 67 8 67 -14z
m0 -44 c0 -12 -13 -15 -57 -15 -79 0 -51 23 35 29 13 0 22 -5 22 -14z m92 -29
c29 -13 76 -43 105 -66 l52 -43 -42 -47 c-23 -26 -69 -69 -102 -95 -33 -26
-69 -55 -79 -64 -18 -16 -19 -13 -13 134 4 83 7 162 7 178 0 33 5 33 72 3z
m-102 -132 c0 -11 -5 -14 -16 -10 -9 3 -30 6 -47 7 -27 0 -29 2 -12 9 35 15
75 12 75 -6z m308 3 c9 -10 1 -18 -34 -35 -60 -29 -63 -28 -23 12 39 40 42 41
57 23z m-308 -68 c0 -38 0 -39 -37 -38 -21 0 -47 4 -57 8 -18 7 -18 8 5 14 13
4 36 7 52 7 15 0 27 5 27 10 0 6 -18 10 -39 10 -46 0 -64 17 -24 22 71 9 73 8
73 -33z m0 -69 c0 -6 -26 -10 -57 -10 -41 0 -54 3 -43 10 20 13 100 13 100 0z"/>
<path d="M150 621 c0 -4 -16 -23 -35 -42 -35 -35 -46 -69 -21 -69 14 0 71 -59
92 -96 21 -36 26 -6 10 65 -9 38 -16 88 -16 110 0 30 -4 41 -15 41 -8 0 -15
-4 -15 -9z m13 -100 l5 -43 -28 27 c-28 27 -28 29 -12 51 21 28 28 21 35 -35z"/>
<path d="M83 316 c-18 -24 -33 -46 -33 -50 0 -3 22 -27 49 -54 26 -26 51 -57
55 -70 4 -12 14 -22 22 -22 11 0 10 9 -5 48 -10 26 -24 80 -31 120 -7 39 -16
72 -19 72 -3 0 -21 -20 -38 -44z m41 -66 l6 -35 -26 26 c-23 23 -25 29 -14 49
14 27 23 17 34 -40z"/>
<path d="M628 3 c7 -3 16 -2 19 1 4 3 -2 6 -13 5 -11 0 -14 -3 -6 -6z"/>
<path d="M722 3 c37 -2 100 -2 140 0 40 1 10 3 -67 3 -77 0 -110 -1 -73 -3z"/>
</g>
</svg>
