<?xml version="1.0" standalone="no"?>
<!DOCTYPE svg PUBLIC "-//W3C//DTD SVG 20010904//EN"
 "http://www.w3.org/TR/2001/REC-SVG-20010904/DTD/svg10.dtd">
<svg version="1.0" xmlns="http://www.w3.org/2000/svg"
 width="119.000000pt" height="251.000000pt" viewBox="0 0 119.000000 251.000000"
 preserveAspectRatio="xMidYMid meet">
<metadata>
Created by potrace 1.16, written by Peter Selinger 2001-2019
</metadata>
<g transform="translate(0.000000,251.000000) scale(0.100000,-0.100000)"
fill="#000000" stroke="none">
<path d="M1 2506 c11 -9 1189 -15 1189 -6 0 7 -205 10 -597 10 -328 0 -594 -2
-592 -4z"/>
<path d="M305 2460 c-3 -11 -32 -32 -63 -48 -31 -15 -75 -38 -97 -49 -22 -12
-48 -24 -58 -27 -12 -4 -17 -16 -17 -46 0 -41 7 -49 28 -28 8 8 29 -8 85 -67
48 -50 77 -73 82 -66 5 9 10 9 21 0 16 -13 18 -29 4 -29 -5 0 -10 7 -10 15 0
10 -13 5 -43 -18 -24 -17 -65 -44 -90 -59 -44 -25 -61 -48 -37 -48 15 0 12
-21 -6 -41 -15 -17 -14 -19 18 -35 19 -9 42 -29 52 -44 20 -35 20 -40 1 -40
-19 0 -19 -19 0 -44 14 -18 17 -17 62 25 27 25 74 64 105 87 31 23 59 46 63
52 11 18 22 11 65 -40 39 -47 41 -52 31 -82 -15 -42 -8 -46 28 -15 17 14 68
48 113 77 46 28 90 55 98 60 36 22 183 101 268 145 51 25 92 51 90 57 -4 11
-125 62 -283 118 -49 18 -123 49 -163 69 -67 32 -75 34 -83 18 -6 -9 -15 -17
-21 -17 -6 0 -36 -18 -68 -39 l-57 -39 -41 71 c-22 40 -44 89 -47 110 -8 41
-20 48 -30 17z m19 -45 c3 -8 1 -15 -4 -15 -6 0 -10 7 -10 15 0 8 2 15 4 15 2
0 6 -7 10 -15z m-6 -40 c44 -39 93 -125 76 -132 -6 -2 -40 -24 -74 -48 l-64
-45 -24 23 c-30 26 -104 137 -100 149 3 8 127 85 140 87 5 1 25 -15 46 -34z
m289 -41 c-3 -3 -12 -4 -19 -1 -8 3 -5 6 6 6 11 1 17 -2 13 -5z m24 -33 c98
-25 264 -79 314 -101 22 -10 57 -24 78 -31 20 -7 37 -15 37 -19 0 -3 -64 -38
-143 -79 -78 -41 -168 -92 -200 -114 -32 -21 -85 -48 -118 -59 -57 -19 -72
-32 -47 -40 8 -3 4 -9 -10 -17 -20 -11 -22 -10 -22 16 0 21 -25 55 -105 143
-57 63 -105 121 -106 128 -1 6 -2 16 -3 21 -1 9 231 170 245 171 3 0 39 -9 80
-19z m-325 -233 c16 -12 46 -37 66 -56 l37 -35 -68 -51 c-73 -55 -106 -76
-120 -76 -13 0 -61 77 -67 108 -5 25 2 35 51 80 31 29 60 52 64 52 5 0 21 -10
37 -22z"/>
<path d="M1106 2053 c-4 -10 -2 -19 3 -21 6 -2 8 -14 5 -28 -3 -13 -2 -24 4
-24 18 0 33 29 30 57 -3 32 -32 43 -42 16z"/>
<path d="M322 1645 c-12 -13 -61 -39 -110 -58 -74 -30 -87 -39 -85 -57 2 -11
-5 -33 -14 -47 -17 -25 -17 -26 7 -41 33 -21 120 -109 120 -122 0 -14 -49 -12
-104 4 -43 13 -48 13 -52 -2 -3 -9 -10 -25 -15 -35 -13 -24 -6 -31 18 -19 10
5 53 12 95 15 95 7 95 7 -21 -113 -73 -76 -80 -85 -66 -100 19 -21 19 -39 -1
-61 -15 -17 -11 -45 6 -34 13 8 122 -16 165 -36 31 -15 41 -17 46 -6 23 40
103 133 131 151 28 19 98 51 263 121 17 8 60 25 98 40 37 15 67 33 67 40 0 8
-12 20 -27 28 -16 8 -106 58 -201 111 -104 58 -180 95 -190 92 -9 -3 -22 -2
-28 2 -17 12 -51 75 -59 109 -9 43 -16 46 -43 18z m28 -31 c0 -8 -4 -12 -10
-9 -5 3 -10 10 -10 16 0 5 5 9 10 9 6 0 10 -7 10 -16z m-15 -30 c14 -9 41 -38
61 -65 24 -34 43 -49 58 -49 35 0 123 -34 211 -81 181 -97 188 -104 130 -125
-62 -23 -190 -77 -200 -84 -15 -11 -149 -50 -171 -50 -17 1 -48 35 -110 125
l-21 30 166 -1 c167 -1 276 4 267 13 -3 3 -96 7 -208 10 -112 3 -204 6 -205 7
-1 1 25 31 57 66 33 36 59 68 60 73 1 21 -25 -1 -80 -68 -34 -41 -65 -75 -71
-75 -10 0 -119 163 -119 179 0 14 37 49 89 82 52 34 54 34 86 13z m-165 -49
c-7 -9 -15 -13 -17 -11 -7 7 7 26 19 26 6 0 6 -6 -2 -15z m310 -39 c0 -3 -4
-8 -10 -11 -5 -3 -10 -1 -10 4 0 6 5 11 10 11 6 0 10 -2 10 -4z m-330 -36 c0
-5 -2 -10 -4 -10 -3 0 -8 5 -11 10 -3 6 -1 10 4 10 6 0 11 -4 11 -10z m-10
-166 c0 -2 -9 -4 -20 -4 -11 0 -20 4 -20 9 0 5 9 7 20 4 11 -3 20 -7 20 -9z
m195 -99 c51 -67 55 -77 49 -110 -7 -39 -84 -115 -118 -115 -25 0 -123 57
-130 76 -3 8 0 30 8 48 15 36 117 176 128 176 4 0 32 -34 63 -75z m111 -90
c-26 -19 -42 -19 -26 0 7 8 20 15 29 15 13 -1 13 -3 -3 -15z m-296 -105 c12
-8 11 -10 -7 -10 -13 0 -23 5 -23 10 0 13 11 13 30 0z"/>
<path d="M740 1292 c0 -5 7 -9 15 -9 8 0 15 4 15 9 0 4 -7 8 -15 8 -8 0 -15
-4 -15 -8z"/>
<path d="M1052 1188 c-13 -17 -3 -78 13 -78 26 0 34 60 11 79 -10 8 -16 8 -24
-1z"/>
<path d="M283 763 c-10 -10 -43 -34 -73 -54 -49 -33 -56 -35 -67 -20 -11 15
-13 14 -27 -4 -19 -25 -20 -42 -3 -52 11 -7 73 -93 100 -140 5 -7 -21 -27 -68
-55 -58 -33 -75 -48 -73 -63 1 -11 -1 -26 -6 -33 -5 -8 2 -25 17 -45 40 -53
67 -114 67 -152 0 -19 2 -35 5 -35 2 0 30 26 62 58 32 31 75 71 95 89 l38 31
62 -77 c35 -42 70 -87 78 -100 l16 -23 27 41 c15 22 30 41 33 41 3 0 4 -28 3
-62 -2 -36 0 -65 6 -68 6 -3 12 25 15 69 l5 75 45 28 c25 15 52 31 60 35 8 4
45 26 83 50 60 40 81 65 60 75 -5 2 -21 19 -37 38 -16 19 -55 64 -86 100 -97
108 -141 164 -151 188 -4 12 -12 22 -16 22 -5 0 -41 -25 -82 -55 -40 -30 -77
-52 -82 -49 -13 8 -69 120 -69 138 0 24 -18 28 -37 9z m51 -103 c37 -61 38
-65 20 -77 -11 -8 -41 -30 -67 -49 -27 -20 -50 -34 -51 -32 -17 21 -64 97 -69
109 -3 9 1 27 10 39 20 28 94 81 107 77 6 -2 28 -32 50 -67z m227 13 c13 -16
12 -17 -3 -4 -17 13 -22 21 -14 21 2 0 10 -8 17 -17z m148 -187 c58 -65 107
-124 109 -130 2 -12 -208 -147 -218 -141 -4 2 -1 37 6 77 7 40 13 87 14 103 0
31 -1 31 -52 30 l-51 0 -54 69 c-29 38 -53 77 -53 85 1 9 24 32 53 52 l52 37
44 -32 c24 -17 92 -84 150 -150z m-303 41 c82 -87 99 -128 57 -144 -10 -4 -39
-19 -64 -35 -50 -30 -59 -33 -59 -18 0 5 -21 42 -46 81 -37 56 -44 73 -33 80
8 4 32 21 54 38 22 17 45 31 50 31 6 0 24 -15 41 -33z m-117 -147 l50 -75 -28
-25 c-16 -14 -54 -39 -85 -55 -63 -33 -67 -32 -86 35 -27 95 -26 101 31 157
29 29 57 49 61 45 4 -4 30 -41 57 -82z m-174 1 c-3 -6 -11 -11 -17 -11 -6 0
-6 6 2 15 14 17 26 13 15 -4z m435 12 c0 -11 19 -132 26 -165 5 -24 0 -29 -35
-47 -22 -12 -46 -21 -54 -21 -7 0 -32 25 -55 56 -48 66 -47 69 29 138 45 41
89 60 89 39z m49 -15 c-1 -13 -4 -36 -8 -53 -6 -27 -7 -26 -17 23 -10 48 -9
52 8 52 12 0 18 -7 17 -22z m-209 -68 c0 -5 -5 -10 -11 -10 -5 0 -7 5 -4 10 3
6 8 10 11 10 2 0 4 -4 4 -10z m-200 -134 c0 -3 -4 -8 -10 -11 -5 -3 -10 -1
-10 4 0 6 5 11 10 11 6 0 10 -2 10 -4z"/>
<path d="M1074 315 c-9 -21 3 -45 21 -45 21 0 30 27 15 45 -16 19 -29 19 -36
0z"/>
</g>
</svg>
