<?xml version="1.0" standalone="no"?>
<!DOCTYPE svg PUBLIC "-//W3C//DTD SVG 20010904//EN"
 "http://www.w3.org/TR/2001/REC-SVG-20010904/DTD/svg10.dtd">
<svg version="1.0" xmlns="http://www.w3.org/2000/svg"
 width="109.000000pt" height="73.000000pt" viewBox="0 0 109.000000 73.000000"
 preserveAspectRatio="xMidYMid meet">
<metadata>
Created by potrace 1.16, written by Peter Selinger 2001-2019
</metadata>
<g transform="translate(0.000000,73.000000) scale(0.100000,-0.100000)"
fill="#000000" stroke="none">
<path d="M330 626 c-61 -41 -145 -89 -186 -108 l-75 -33 6 -36 c5 -26 2 -39
-9 -49 -27 -21 -18 -36 22 -37 25 -1 82 -24 179 -74 l141 -73 7 -53 c6 -51 18
-67 28 -40 3 6 6 1 6 -13 1 -25 20 -63 22 -45 1 6 1 33 -1 62 -2 63 22 101 90
140 90 52 170 106 170 115 0 21 36 3 83 -42 47 -44 74 -92 101 -174 4 -12 10
-16 16 -10 11 11 -8 71 -44 142 -13 26 -29 73 -36 105 -7 31 -15 57 -18 57 -2
0 -16 -8 -30 -18 -15 -10 -33 -22 -39 -26 -16 -9 -196 154 -255 229 -24 30
-48 55 -55 55 -6 0 -62 -33 -123 -74z m150 19 c13 -14 20 -25 16 -25 -12 0
-56 32 -56 41 0 16 16 10 40 -16z m3 -45 c74 -52 246 -191 246 -200 0 -3 -30
-23 -67 -45 -37 -22 -94 -56 -126 -77 -33 -21 -64 -38 -69 -38 -6 0 -7 43 -3
120 l7 120 -31 0 c-39 0 -44 -15 -25 -70 9 -24 18 -78 22 -118 l6 -74 -39 24
c-21 14 -80 46 -130 71 -49 26 -106 63 -125 83 l-34 36 45 40 c25 22 61 51 80
64 69 49 165 114 168 114 1 0 35 -23 75 -50z m-363 -135 c-7 -8 -17 -12 -22
-9 -6 4 -5 10 3 15 22 14 33 10 19 -6z m330 -42 c0 -22 -2 -25 -10 -13 -13 20
-13 40 0 40 6 0 10 -12 10 -27z m379 -33 c5 -16 6 -30 2 -30 -15 0 -43 39 -36
49 11 19 23 12 34 -19z m-379 -199 c0 -6 -4 -13 -10 -16 -5 -3 -10 1 -10 9 0
9 5 16 10 16 6 0 10 -4 10 -9z"/>
</g>
</svg>
