<?xml version="1.0" standalone="no"?>
<!DOCTYPE svg PUBLIC "-//W3C//DTD SVG 20010904//EN"
 "http://www.w3.org/TR/2001/REC-SVG-20010904/DTD/svg10.dtd">
<svg version="1.0" xmlns="http://www.w3.org/2000/svg"
 width="143.000000pt" height="336.000000pt" viewBox="0 0 143.000000 336.000000"
 preserveAspectRatio="xMidYMid meet">
<metadata>
Created by potrace 1.16, written by Peter Selinger 2001-2019
</metadata>
<g transform="translate(0.000000,336.000000) scale(0.100000,-0.100000)"
fill="#000000" stroke="none">
<path d="M1162 3335 c-13 -7 -43 -39 -67 -71 -86 -116 -85 -116 -125 -103 -83
28 -159 62 -185 84 l-29 23 -18 -39 c-10 -23 -28 -43 -42 -49 -16 -6 -24 -15
-20 -24 3 -8 -2 -38 -10 -67 -19 -62 -18 -59 -6 -59 5 0 13 15 18 33 14 48 60
117 79 117 86 0 263 -53 271 -82 7 -28 20 -21 28 15 8 39 65 157 76 157 7 0 1
-101 -11 -175 l-7 -40 -74 1 c-41 1 -108 9 -149 18 -40 9 -75 15 -77 13 -2 -2
-6 -17 -10 -33 l-6 -29 164 3 c90 2 166 7 171 11 4 4 10 39 13 77 6 68 25 147
47 192 14 29 -1 43 -31 27z m8 -39 c0 -3 -4 -8 -10 -11 -5 -3 -10 -1 -10 4 0
6 5 11 10 11 6 0 10 -2 10 -4z m-355 -99 c7 -7 4 -8 -8 -3 -10 3 -25 6 -33 6
-8 0 -14 5 -14 11 0 12 40 2 55 -14z m227 -59 c-7 -7 -12 -8 -12 -2 0 14 12
26 19 19 2 -3 -1 -11 -7 -17z"/>
<path d="M585 3221 c-4 -42 -15 -110 -26 -153 -10 -42 -19 -84 -19 -94 0 -37
19 3 40 86 28 105 69 210 82 210 5 0 8 5 6 11 -2 6 -20 12 -40 14 l-37 2 -6
-76z m31 13 c-4 -14 -9 -24 -12 -21 -3 2 -2 17 2 31 3 15 9 25 11 22 3 -3 2
-17 -1 -32z"/>
<path d="M543 3266 c-4 -7 -25 -34 -47 -58 l-39 -44 -51 7 c-125 19 -170 29
-186 44 -22 20 -27 19 -33 -5 -3 -14 -14 -20 -32 -20 l-27 0 4 -112 c2 -77 7
-113 16 -116 9 -3 12 15 13 65 0 37 6 84 13 103 11 31 17 35 50 38 34 3 117
-5 243 -24 40 -6 43 -5 53 22 6 16 15 38 20 49 21 48 24 88 3 51z"/>
<path d="M730 3063 c-43 -26 -54 -39 -52 -56 5 -40 22 -44 46 -12 11 16 33 41
49 54 25 24 37 52 20 50 -5 -1 -33 -17 -63 -36z m-17 -48 c-3 -9 -8 -14 -10
-11 -3 3 -2 9 2 15 9 16 15 13 8 -4z"/>
<path d="M355 3067 c-32 -46 -23 -52 85 -52 55 0 100 3 100 7 0 3 -24 11 -52
18 -29 6 -67 19 -85 30 -32 19 -33 19 -48 -3z m42 -23 c-3 -3 -12 -4 -19 -1
-8 3 -5 6 6 6 11 1 17 -2 13 -5z"/>
<path d="M170 3037 l0 -35 50 19 c28 10 61 19 75 19 13 0 27 5 30 10 4 6 -16
10 -52 10 -32 0 -68 3 -80 6 -21 6 -23 3 -23 -29z"/>
<path d="M1226 3022 c-9 -15 6 -83 17 -79 19 6 30 56 17 72 -14 17 -26 19 -34
7z"/>
<path d="M1009 2715 l-66 -66 -55 19 c-31 11 -84 36 -118 56 -34 20 -63 36
-64 34 -36 -58 -35 -58 -89 -58 -49 0 -54 -3 -81 -40 -16 -22 -44 -53 -62 -71
l-32 -31 -57 17 c-31 9 -82 27 -113 41 -53 23 -57 24 -69 8 -7 -10 -13 -21
-13 -26 0 -4 -14 -8 -30 -8 l-30 0 6 -102 c5 -78 12 -111 27 -137 l20 -34 26
30 c14 17 37 44 51 61 l25 30 109 -14 c59 -7 123 -18 142 -24 42 -14 54 -7 54
31 0 23 6 32 28 41 25 10 400 16 447 7 18 -4 21 3 27 61 5 54 19 133 40 220 2
10 -6 16 -27 18 -25 2 -40 -8 -96 -63z m88 -20 l-12 -50 -3 44 c-4 50 4 79 18
65 5 -5 4 -29 -3 -59z m-333 5 c25 -10 46 -21 46 -23 0 -5 -103 4 -109 9 -4 4
7 34 13 34 2 0 25 -9 50 -20z m306 -65 c0 -93 -10 -136 -29 -131 -76 20 -142
43 -170 59 -19 10 -37 15 -40 10 -3 -4 -23 -20 -43 -35 -29 -22 -43 -27 -70
-21 -34 6 -88 30 -88 38 0 18 46 98 58 103 9 3 61 0 116 -7 97 -12 101 -14
132 -49 18 -20 34 -35 37 -32 2 3 21 38 42 78 43 83 55 81 55 -13z m-421 30
c-6 -28 -43 -105 -50 -105 -5 0 -9 24 -9 54 0 44 4 55 18 59 25 7 43 3 41 -8z
m339 -25 c-14 -24 -26 -36 -32 -30 -6 6 1 21 19 40 16 16 30 30 32 30 2 0 -7
-18 -19 -40z m-420 -94 c-6 -118 -12 -134 -36 -113 -10 8 -28 18 -42 22 -14 4
-51 18 -82 32 l-58 26 -17 -21 c-17 -20 -141 -92 -158 -92 -12 0 0 81 18 123
15 34 19 37 54 37 73 -1 176 -20 208 -40 38 -23 45 -25 45 -7 0 17 58 137 66
137 4 0 4 -47 2 -104z m-312 36 c-41 -4 -52 1 -42 16 4 7 20 6 44 -1 l37 -12
-39 -3z m237 -30 c-3 -12 -9 -22 -14 -22 -12 0 -11 7 2 32 13 25 20 19 12 -10z
m-324 -19 c-1 -34 -2 -35 -9 -13 -11 36 -11 50 0 50 6 0 10 -17 9 -37z m729 0
c40 -9 23 -21 -35 -25 -32 -2 -59 -3 -61 -2 -11 7 45 43 58 38 8 -4 25 -9 38
-11z m-233 -23 c3 -4 -9 -10 -25 -12 -27 -4 -40 9 -24 24 7 7 43 -2 49 -12z
m-265 -45 l35 -13 -47 -1 c-45 -1 -58 6 -41 22 8 9 11 8 53 -8z m-200 -90 c-7
-9 -15 -13 -19 -10 -3 3 1 10 9 15 21 14 24 12 10 -5z"/>
<path d="M1203 2514 c-3 -9 -1 -19 6 -23 6 -4 9 -15 5 -24 -3 -10 -1 -17 5
-17 16 0 35 45 28 64 -8 21 -36 20 -44 0z"/>
<path d="M640 2223 c-8 -2 -39 -38 -68 -79 -41 -57 -59 -74 -77 -74 -14 0 -86
13 -161 30 -75 16 -140 27 -145 24 -5 -3 -9 -14 -9 -25 0 -12 -7 -19 -19 -19
-11 0 -22 -3 -24 -8 -3 -4 -1 -65 5 -137 7 -93 7 -130 -1 -133 -14 -5 -15
-212 -1 -212 6 0 10 8 11 18 0 12 3 11 10 -6 5 -13 12 -22 16 -20 5 2 31 15
59 30 50 26 53 27 232 24 l182 -2 0 76 c1 41 7 102 15 135 18 76 18 85 0 85
-11 0 -14 10 -10 43 2 23 7 75 10 115 3 41 12 86 20 102 19 37 5 48 -45 33z
m17 -45 c-3 -8 -6 -5 -6 6 -1 11 2 17 5 13 3 -3 4 -12 1 -19z m-18 -139 l2
-97 -27 -6 c-18 -5 -30 -3 -35 6 -4 7 -9 10 -11 8 -22 -34 -28 -61 -28 -120 0
-38 -3 -70 -6 -70 -50 0 -344 77 -344 90 1 14 21 32 74 64 48 29 66 34 100 31
97 -11 176 -13 176 -4 0 5 -12 12 -27 15 -16 4 -50 16 -77 27 -41 17 -51 18
-69 7 -19 -12 -183 -70 -197 -70 -8 0 5 114 15 130 6 9 41 11 139 6 140 -6
193 -13 202 -27 7 -12 34 -11 34 1 0 6 14 41 31 78 38 82 46 71 48 -69z m-324
39 c14 -6 4 -7 -29 -3 -27 3 -57 5 -68 5 -11 0 -16 5 -13 11 7 11 74 4 110
-13z m98 -115 c-7 -2 -21 -2 -30 0 -10 3 -4 5 12 5 17 0 24 -2 18 -5z m216
-225 l1 -78 -50 0 c-58 0 -200 29 -200 42 0 17 -25 7 -45 -18 -17 -22 -30 -26
-98 -31 l-77 -6 0 35 c0 20 3 50 6 67 6 31 7 31 73 31 36 0 117 -9 178 -21 62
-12 119 -19 126 -16 7 3 19 25 26 48 7 24 20 63 29 87 l17 42 7 -52 c3 -29 6
-88 7 -130z m18 140 c-3 -8 -6 -5 -6 6 -1 11 2 17 5 13 3 -3 4 -12 1 -19z
m-237 -212 c0 -2 -13 -6 -29 -8 -17 -2 -28 -1 -25 4 5 8 54 12 54 4z"/>
<path d="M796 1701 c-8 -13 5 -71 15 -71 13 0 29 47 23 65 -7 16 -30 20 -38 6z"/>
<path d="M470 1399 c0 -14 -83 -139 -92 -139 -4 0 -44 14 -90 31 -46 16 -91
33 -100 36 -13 4 -22 -5 -35 -31 -13 -29 -22 -36 -46 -36 -26 0 -28 -3 -22
-22 4 -13 9 -47 12 -75 4 -34 10 -53 19 -53 7 0 16 -9 19 -20 8 -27 13 -26 81
15 62 38 75 42 71 23 -1 -9 14 -14 48 -16 69 -3 93 -10 92 -24 0 -7 1 -46 1
-86 2 -68 3 -73 22 -67 11 3 20 3 20 -2 0 -4 4 -14 9 -22 7 -11 22 -7 76 19
54 26 72 30 89 22 11 -6 62 -13 111 -15 50 -3 97 -8 106 -12 13 -5 17 14 28
127 20 205 21 193 -14 193 -23 0 -30 -5 -31 -20 -1 -23 -24 -68 -53 -105 -22
-28 -52 -29 -157 -4 -77 17 -117 32 -125 45 -6 10 12 130 30 194 10 39 11 38
-41 49 -18 4 -28 2 -28 -5z m37 -61 c-3 -7 -5 -2 -5 12 0 14 2 19 5 13 2 -7 2
-19 0 -25z m-30 -214 c-5 -5 -129 36 -143 48 -7 5 -30 4 -55 -3 -80 -20 -149
-32 -154 -27 -3 2 2 28 11 57 l15 53 97 -7 c53 -4 116 -10 140 -15 36 -6 44
-5 52 11 6 10 10 22 10 28 0 5 6 22 13 38 11 25 12 17 15 -76 1 -57 1 -105 -1
-107z m-256 160 c25 -11 27 -14 9 -10 -14 3 -31 6 -37 6 -7 0 -13 5 -13 10 0
13 2 13 41 -6z m660 -91 c-8 -15 -10 -15 -11 -2 0 17 10 32 18 25 2 -3 -1 -13
-7 -23z m-22 -170 c0 -40 -1 -73 -3 -73 -15 0 -146 31 -170 39 -21 9 -38 8
-72 -4 -24 -8 -69 -17 -99 -19 l-55 -5 0 32 c0 18 9 47 20 65 19 31 22 32 82
32 51 0 168 -16 238 -32 8 -2 19 17 29 47 16 48 16 49 22 20 4 -17 7 -63 8
-102z m-522 111 c-3 -3 -12 -4 -19 -1 -8 3 -5 6 6 6 11 1 17 -2 13 -5z"/>
<path d="M50 1080 c0 -5 5 -10 10 -10 6 0 10 5 10 10 0 6 -4 10 -10 10 -5 0
-10 -4 -10 -10z"/>
<path d="M1055 968 c-2 -7 -1 -29 3 -48 8 -34 8 -35 21 -12 7 13 11 33 9 44
-4 25 -26 36 -33 16z"/>
<path d="M1301 716 c-20 -21 -27 -23 -47 -14 -13 6 -26 9 -29 6 -3 -3 -8 -29
-11 -59 -5 -44 -64 -232 -77 -245 -9 -9 -255 -4 -287 6 -31 9 -37 8 -49 -10
-7 -11 -23 -20 -35 -20 -21 0 -22 -4 -21 -113 0 -92 3 -117 17 -130 20 -20 35
-23 19 -4 -15 19 9 39 94 78 62 28 77 31 135 26 65 -6 155 -19 218 -33 19 -4
32 -3 32 3 0 6 -28 16 -62 23 -35 7 -94 24 -131 37 -63 23 -71 23 -100 10 -43
-21 -190 -68 -194 -63 -3 2 1 32 8 65 11 57 15 63 47 76 44 19 282 21 300 3 9
-9 12 -9 12 0 0 6 16 14 36 18 34 6 36 18 3 26 -14 2 -9 22 32 128 27 68 53
128 58 133 14 14 21 -117 14 -306 -4 -125 -2 -179 5 -172 6 6 15 110 21 242 6
127 15 243 21 258 22 57 8 71 -29 31z"/>
<path d="M689 514 c-9 -12 -23 -14 -50 -10 -36 6 -36 6 -43 -37 -8 -47 -55
-208 -65 -219 -8 -9 -290 76 -344 104 -36 18 -42 19 -52 5 -8 -12 -22 -14 -53
-10 -47 6 -48 4 -26 -38 10 -20 17 -72 21 -150 3 -65 7 -119 9 -119 2 0 20 12
41 26 21 14 64 39 95 55 52 26 81 49 61 49 -4 0 -42 -12 -83 -25 -41 -14 -80
-25 -87 -25 -20 0 -11 165 10 187 4 3 35 0 69 -6 64 -12 95 -20 249 -66 98
-28 121 -31 113 -12 -5 13 30 114 68 197 l22 45 7 -35 c10 -43 -1 -360 -12
-360 -9 0 -109 22 -209 47 -36 8 -76 21 -90 28 -22 11 -28 10 -48 -5 -31 -26
-27 -40 11 -40 32 0 317 -45 349 -56 16 -5 18 3 18 93 0 83 24 270 46 366 7
30 -6 36 -27 11z"/>
<path d="M1382 208 c2 -13 10 -23 18 -23 8 0 16 10 18 23 3 17 -2 22 -18 22
-16 0 -21 -5 -18 -22z"/>
</g>
</svg>
