<?xml version="1.0" standalone="no"?>
<!DOCTYPE svg PUBLIC "-//W3C//DTD SVG 20010904//EN"
 "http://www.w3.org/TR/2001/REC-SVG-20010904/DTD/svg10.dtd">
<svg version="1.0" xmlns="http://www.w3.org/2000/svg"
 width="132.000000pt" height="175.000000pt" viewBox="0 0 132.000000 175.000000"
 preserveAspectRatio="xMidYMid meet">
<metadata>
Created by potrace 1.16, written by Peter Selinger 2001-2019
</metadata>
<g transform="translate(0.000000,175.000000) scale(0.100000,-0.100000)"
fill="#000000" stroke="none">
<path d="M886 1685 c-25 -20 -46 -40 -46 -44 0 -5 16 -21 35 -35 20 -16 35
-36 35 -48 0 -45 -81 -172 -159 -246 -18 -18 -31 -22 -53 -18 -28 5 -28 5 -28
-40 0 -40 2 -45 18 -39 35 15 99 27 185 33 l87 7 0 -52 c0 -57 -5 -64 -102
-141 -40 -32 -61 -62 -43 -62 3 0 46 34 96 75 50 42 126 96 170 122 44 25 82
50 85 55 7 12 -49 95 -151 224 l-84 105 6 70 c3 38 4 69 1 69 -3 0 -26 -16
-52 -35z m33 -22 c0 -10 -4 -26 -7 -36 -7 -16 -10 -16 -27 -3 -20 14 -20 15 0
35 25 25 35 26 34 4z m16 -163 c-23 -26 -29 -20 -14 14 8 18 16 23 22 17 7 -7
4 -17 -8 -31z m105 -91 l61 -81 -25 -36 c-14 -21 -42 -55 -61 -77 l-35 -40 3
115 c2 63 8 125 12 138 6 19 4 22 -20 22 l-28 0 7 -85 7 -85 -95 0 c-53 0 -96
4 -96 8 0 24 172 202 195 202 7 0 40 -36 75 -81z m90 -152 c-8 -8 -33 -24 -54
-37 -43 -26 -41 -19 8 43 27 34 31 36 45 22 13 -13 13 -17 1 -28z"/>
<path d="M217 1661 c-29 -31 -34 -55 -14 -68 6 -5 30 -27 51 -50 l39 -42 -29
-38 c-43 -57 -161 -171 -194 -188 -17 -9 -30 -19 -30 -24 0 -5 22 -31 48 -57
27 -27 62 -69 78 -94 15 -25 43 -63 61 -84 18 -22 33 -46 33 -54 0 -12 -73
-112 -122 -166 -21 -23 -23 -36 -5 -35 6 0 37 32 67 72 108 140 152 193 211
254 l60 62 -15 43 c-8 24 -46 111 -85 193 -38 83 -80 185 -92 228 -13 42 -25
77 -28 77 -4 0 -18 -13 -34 -29z m47 -68 l16 -47 -30 29 c-28 27 -38 54 -24
68 12 11 22 -2 38 -50z m46 -137 c0 -8 -14 -24 -31 -36 -16 -12 -28 -25 -25
-28 3 -2 11 0 18 5 7 6 23 14 35 17 20 6 27 -2 68 -85 25 -51 45 -99 45 -107
0 -16 -84 -178 -111 -213 l-19 -24 0 60 c0 33 5 102 10 154 6 52 7 98 2 103
-5 5 -23 5 -41 2 -23 -5 -30 -11 -26 -22 10 -26 36 -233 33 -261 -3 -23 -8
-19 -51 46 -46 70 -97 178 -97 206 0 8 27 35 60 61 33 26 60 52 60 57 0 13 53
79 63 79 4 0 7 -6 7 -14z m-24 -192 c-3 -9 -6 -30 -6 -46 0 -41 -6 -33 -14 20
-5 35 -3 42 10 42 11 0 14 -5 10 -16z m-179 -35 l12 -32 -24 23 c-13 13 -22
27 -19 31 10 16 20 9 31 -22z m309 -104 c-32 -32 -33 -24 -4 24 17 27 24 32
26 19 2 -10 -8 -29 -22 -43z"/>
<path d="M1010 1521 c0 -6 5 -13 10 -16 6 -3 10 1 10 9 0 9 -4 16 -10 16 -5 0
-10 -4 -10 -9z"/>
<path d="M567 1103 c-8 -13 0 -77 10 -80 17 -6 34 46 23 68 -11 20 -25 25 -33
12z"/>
<path d="M1252 1091 c-10 -6 -11 -19 -7 -45 8 -42 25 -43 39 -3 12 32 -9 62
-32 48z"/>
<path d="M773 863 c-3 -10 -12 -33 -19 -51 -12 -31 -12 -33 15 -47 29 -15 131
-120 131 -135 0 -9 -72 -79 -130 -126 -19 -16 -37 -31 -40 -34 -3 -3 -22 -19
-42 -34 -36 -27 -50 -56 -27 -56 17 0 86 -60 149 -131 l59 -66 -79 -68 c-73
-61 -93 -85 -72 -85 4 0 41 29 82 65 41 36 79 65 84 65 5 0 24 -17 42 -37 39
-45 46 -25 8 24 -15 19 -22 38 -18 42 34 28 90 64 157 100 42 24 77 45 77 47
0 3 -48 68 -107 145 -110 143 -171 238 -219 342 -28 59 -40 69 -51 40z m45
-79 l23 -46 -34 26 c-25 19 -33 32 -30 46 8 29 16 24 41 -26z m97 -194 c-3 -5
-11 -10 -16 -10 -6 0 -7 5 -4 10 3 6 11 10 16 10 6 0 7 -4 4 -10z m118 -133
c31 -39 57 -74 57 -78 0 -3 -32 -35 -72 -70 -109 -97 -123 -109 -129 -109 -19
0 -169 193 -169 218 0 20 100 101 176 141 l39 20 20 -26 c11 -14 46 -57 78
-96z m-323 -67 c10 -19 10 -20 -9 -8 -11 6 -17 16 -15 20 8 12 12 10 24 -12z
m410 -48 c0 -4 -14 -13 -31 -19 -31 -12 -31 -12 -14 7 18 20 45 27 45 12z"/>
<path d="M475 544 c-49 -24 -96 -44 -102 -44 -15 0 -17 -16 -3 -25 15 -9 114
-163 148 -231 17 -33 37 -68 46 -79 30 -39 18 11 -20 82 -34 64 -35 72 -29
132 7 69 31 159 47 178 25 31 -4 26 -87 -13z m50 -21 c-5 -10 -14 -52 -23 -95
l-14 -76 -45 65 c-24 36 -43 66 -41 67 42 22 115 55 122 55 4 1 5 -7 1 -16z"/>
<path d="M1242 287 c-9 -10 -8 -18 3 -33 13 -16 16 -17 25 -4 21 31 -5 65 -28
37z"/>
</g>
</svg>
