<?xml version="1.0" standalone="no"?>
<!DOCTYPE svg PUBLIC "-//W3C//DTD SVG 20010904//EN"
 "http://www.w3.org/TR/2001/REC-SVG-20010904/DTD/svg10.dtd">
<svg version="1.0" xmlns="http://www.w3.org/2000/svg"
 width="154.000000pt" height="339.000000pt" viewBox="0 0 154.000000 339.000000"
 preserveAspectRatio="xMidYMid meet">
<metadata>
Created by potrace 1.16, written by Peter Selinger 2001-2019
</metadata>
<g transform="translate(0.000000,339.000000) scale(0.100000,-0.100000)"
fill="#000000" stroke="none">
<path d="M62 3383 c37 -2 100 -2 140 0 40 1 10 3 -67 3 -77 0 -110 -1 -73 -3z"/>
<path d="M333 3383 c32 -2 81 -2 110 0 29 2 3 3 -58 3 -60 0 -84 -1 -52 -3z"/>
<path d="M1090 3361 c0 -4 -74 -8 -164 -7 l-163 1 7 -25 c3 -14 10 -24 13 -23
48 11 151 24 172 21 24 -3 17 -9 -52 -43 l-79 -41 -52 23 c-28 12 -70 34 -92
48 l-41 26 -33 -26 c-28 -22 -46 -26 -132 -30 -54 -3 -124 -6 -154 -6 -69 0
-104 -20 -96 -55 6 -21 3 -24 -24 -24 -36 0 -37 6 -8 65 12 24 19 47 16 51 -4
3 -27 -4 -53 -15 -38 -17 -46 -24 -40 -38 4 -10 10 -29 13 -42 5 -22 3 -23
-30 -17 -35 6 -35 6 -41 -31 -4 -20 -5 -38 -4 -40 2 -1 21 6 43 17 l39 21 3
-51 c4 -61 22 -57 22 5 0 45 10 55 56 55 22 0 24 -4 24 -49 0 -56 8 -84 21
-75 5 3 6 23 3 45 -6 38 -6 39 24 39 27 0 31 -4 34 -32 4 -42 22 -38 22 5 1
30 4 32 39 35 25 2 37 -1 35 -9 -2 -9 22 -13 82 -16 47 -2 101 -8 120 -13 50
-14 70 -12 70 5 0 16 113 95 137 95 7 0 32 -9 56 -19 23 -10 60 -26 82 -35
l40 -16 -98 2 -97 3 0 -32 c0 -37 8 -40 52 -17 20 10 71 18 142 23 l111 6 0
38 c-3 155 -6 207 -15 207 -5 0 -10 -4 -10 -9z m0 -111 c0 -49 -1 -93 -2 -97
-6 -16 -56 -4 -131 31 -42 20 -82 36 -87 36 -26 0 -3 19 73 59 73 39 116 57
140 60 4 1 7 -39 7 -89z m-432 51 c11 -7 11 -9 -1 -14 -16 -6 -27 0 -27 15 0
10 11 10 28 -1z m-489 -41 c-6 -16 -15 -30 -20 -30 -13 0 -11 34 3 48 21 21
27 13 17 -18z m506 7 c26 -3 98 -27 107 -36 7 -6 -49 -37 -148 -83 -16 -7 -37
-6 -75 6 -81 24 -84 28 -52 61 47 47 85 66 118 60 17 -3 39 -7 50 -8z m-203
-25 c-26 -13 -32 -21 -30 -42 3 -23 0 -25 -46 -28 l-49 -3 6 29 c8 37 1 44
-29 30 -21 -10 -24 -16 -19 -40 6 -25 4 -28 -20 -28 -25 0 -26 2 -20 33 4 17
10 35 14 39 12 14 86 26 156 26 l70 1 -33 -17z m21 -89 c3 -5 -6 -9 -19 -9
-13 -1 -24 2 -24 7 0 11 37 12 43 2z"/>
<path d="M970 3230 c0 -30 2 -32 26 -26 15 4 39 10 55 13 40 8 36 19 -8 27
-21 4 -46 9 -55 12 -15 4 -18 -1 -18 -26z"/>
<path d="M568 3245 c-3 -3 -3 -17 0 -31 4 -22 8 -25 31 -19 14 4 50 10 78 14
75 11 74 17 -4 24 -38 3 -75 8 -84 12 -8 3 -18 3 -21 0z"/>
<path d="M1300 3195 c-7 -8 -8 -20 -4 -27 5 -7 7 -21 5 -31 -4 -29 32 -17 39
13 7 26 -4 60 -19 60 -5 0 -14 -7 -21 -15z"/>
<path d="M626 2844 c-62 -55 -119 -77 -218 -82 -48 -2 -100 0 -117 6 -22 8
-39 7 -61 -1 -34 -13 -36 -23 -15 -63 8 -16 15 -42 15 -59 0 -40 10 -75 21
-75 5 0 9 9 9 21 0 14 5 19 18 17 13 -2 18 -15 20 -56 4 -69 22 -67 22 2 l0
54 70 4 c73 3 80 -1 80 -44 0 -20 14 -17 16 3 1 5 2 14 3 19 1 13 25 13 72 -2
33 -9 37 -13 26 -26 -9 -12 -9 -16 1 -19 6 -3 12 -11 12 -19 0 -27 26 -14 48
24 25 45 105 122 126 122 9 0 16 5 16 10 0 6 -9 10 -19 10 -24 0 -91 118 -91
160 0 17 -3 30 -7 30 -5 0 -26 -16 -47 -36z m26 -46 c19 -16 68 -89 68 -102 0
-7 -59 -5 -134 6 -14 2 -19 -4 -22 -25 -2 -25 0 -28 19 -23 13 3 50 8 82 12
l60 7 -28 -30 c-46 -49 -69 -58 -106 -39 -17 9 -38 28 -47 42 -16 23 -18 24
-35 8 -18 -16 -19 -16 -19 14 0 18 4 32 9 32 5 0 35 25 66 55 32 30 61 55 64
55 4 0 14 -6 23 -12z m-412 -68 c0 -5 -2 -10 -4 -10 -3 0 -8 5 -11 10 -3 6 -1
10 4 10 6 0 11 -4 11 -10z m219 -38 c7 -24 12 -45 10 -46 -2 -2 -34 -7 -71
-11 -64 -6 -68 -5 -68 14 0 11 5 23 10 26 18 11 11 25 -12 25 -36 0 -51 -15
-45 -42 8 -29 1 -39 -19 -31 -8 3 -14 19 -14 38 0 41 10 71 19 56 5 -7 21 -6
51 4 25 8 63 13 85 12 38 -2 41 -4 54 -45z"/>
<path d="M707 2828 c-6 -41 1 -49 33 -36 29 12 39 13 258 28 183 13 188 11
198 -49 3 -20 8 -45 11 -55 5 -18 1 -19 -76 -13 l-81 6 0 -25 c0 -22 3 -25 23
-20 12 3 48 9 80 13 l57 6 0 -57 0 -56 -107 -2 c-60 -1 -172 -2 -250 -1 l-143
1 0 -35 c0 -32 2 -35 23 -28 81 25 153 34 312 38 99 3 181 6 183 6 1 1 2 47 1
104 -1 75 3 112 15 142 10 22 16 42 14 45 -2 3 -109 5 -238 5 -129 0 -251 4
-271 8 -36 9 -37 8 -42 -25z m58 -8 c-3 -5 -13 -10 -21 -10 -8 0 -14 5 -14 10
0 6 9 10 21 10 11 0 17 -4 14 -10z m465 -12 c0 -7 -5 -20 -10 -28 -8 -12 -10
-9 -10 13 0 15 5 27 10 27 6 0 10 -6 10 -12z m-473 -274 c-3 -3 -12 -4 -19 -1
-8 3 -5 6 6 6 11 1 17 -2 13 -5z"/>
<path d="M1110 2791 c-19 -9 -64 -36 -99 -59 -69 -45 -70 -45 -125 6 -41 37
-47 38 -69 14 -18 -20 -13 -32 11 -32 8 0 30 -8 49 -17 32 -15 34 -18 18 -29
-10 -8 -22 -11 -27 -8 -14 9 -20 -23 -8 -46 11 -21 12 -21 43 9 17 17 36 31
41 31 6 0 31 -14 56 -30 50 -33 82 -41 59 -14 -7 8 -30 24 -51 35 -21 11 -38
23 -38 28 0 10 91 68 153 97 20 10 37 21 37 26 0 12 -11 9 -50 -11z m-250 -61
c0 -5 -2 -10 -4 -10 -3 0 -8 5 -11 10 -3 6 -1 10 4 10 6 0 11 -4 11 -10z"/>
<path d="M80 2655 c0 -50 2 -51 55 -30 20 9 46 15 57 13 12 -2 23 3 25 10 3 7
-5 12 -22 12 -14 0 -45 9 -67 20 -23 11 -43 20 -45 20 -2 0 -3 -20 -3 -45z"/>
<path d="M1376 2642 c-9 -15 6 -83 17 -79 19 6 30 56 17 72 -14 17 -26 19 -34
7z"/>
<path d="M1250 2260 c0 -5 5 -10 10 -10 6 0 10 5 10 10 0 6 -4 10 -10 10 -5 0
-10 -4 -10 -10z"/>
<path d="M653 2194 c-29 -33 -29 -42 3 -50 25 -6 24 -8 -22 -31 -78 -40 -124
-54 -204 -62 -54 -6 -84 -5 -107 5 -36 14 -49 5 -35 -23 13 -26 4 -43 -24 -43
-20 0 -24 5 -24 31 0 17 5 39 11 51 15 28 5 33 -33 18 -44 -18 -44 -17 -24
-39 24 -26 17 -65 -11 -69 -13 -2 -23 1 -23 7 0 6 -9 11 -20 11 -17 0 -20 -7
-20 -47 l0 -48 23 26 c24 29 66 44 68 26 1 -7 2 -21 3 -32 2 -37 21 -31 24 8
3 31 7 37 27 37 21 0 23 -4 21 -40 -4 -45 -1 -46 41 -25 17 8 77 20 133 25 95
9 108 8 162 -11 32 -12 58 -26 58 -30 0 -5 -3 -9 -7 -9 -5 0 -14 -4 -22 -9
-11 -7 -9 -13 9 -31 18 -18 24 -20 31 -9 5 8 9 19 9 24 0 6 20 28 45 48 44 37
45 37 45 14 0 -32 9 -39 34 -24 11 6 28 12 36 13 8 1 58 5 110 10 52 5 137 9
188 9 l94 0 -7 68 -7 67 51 0 c28 0 51 5 51 10 0 6 -22 10 -50 10 l-50 0 0 49
c0 28 5 53 10 56 6 3 10 13 10 21 0 17 -33 19 -61 3 -20 -10 -20 -11 -3 -30 9
-10 15 -21 12 -24 -2 -3 -85 -5 -184 -6 -161 0 -180 2 -192 18 -10 13 -16 14
-19 6 -3 -7 -11 -13 -19 -13 -8 0 -14 -10 -14 -26 0 -36 -18 -26 -58 32 -18
27 -37 50 -40 51 -4 2 -17 -9 -29 -23z m37 -24 c0 -5 -4 -10 -10 -10 -5 0 -10
5 -10 10 0 6 5 10 10 10 6 0 10 -4 10 -10z m130 -34 c0 -3 -4 -8 -10 -11 -5
-3 -10 -1 -10 4 0 6 5 11 10 11 6 0 10 -2 10 -4z m-60 -51 l51 -45 -48 -1
c-77 -1 -147 2 -165 7 -15 4 -18 -1 -18 -26 0 -30 2 -32 28 -26 38 9 74 13
167 21 72 7 78 6 66 -9 -17 -21 -7 -33 14 -16 23 19 18 32 -26 67 l-40 32 23
12 c34 19 118 28 118 13 0 -6 -7 -17 -15 -24 -24 -20 -18 -27 30 -34 25 -4 45
-10 45 -14 0 -4 -20 -20 -45 -35 -38 -24 -43 -32 -35 -47 18 -33 -18 -36 -93
-8 -23 9 -33 7 -66 -16 l-39 -27 -73 28 c-71 27 -74 30 -77 64 -2 23 2 40 13
49 20 17 118 78 127 79 4 1 30 -19 58 -44z m460 14 c0 -28 -2 -31 -24 -25 -13
3 -31 9 -40 12 -10 4 -16 1 -16 -9 0 -9 -3 -23 -6 -32 -5 -13 -2 -16 12 -13
10 2 18 9 17 14 -1 6 11 9 27 6 25 -3 29 -9 35 -49 3 -25 4 -48 0 -51 -13 -13
-60 -7 -73 10 -7 9 -35 30 -62 45 -28 15 -50 31 -50 34 0 4 18 18 40 33 22 14
40 31 40 36 0 16 -13 11 -54 -20 -47 -35 -59 -37 -86 -10 -42 42 -29 47 110
49 l130 1 0 -31z m-260 -19 c0 -5 -2 -10 -4 -10 -3 0 -8 5 -11 10 -3 6 -1 10
4 10 6 0 11 -4 11 -10z m-427 -46 c3 -3 -1 -21 -10 -39 -12 -26 -24 -34 -52
-39 -46 -7 -120 -7 -148 0 l-23 6 20 28 c18 25 29 29 102 38 46 5 88 10 94 11
6 0 13 -2 17 -5z m570 -87 c-20 -4 -63 -9 -95 -10 -70 -3 -74 9 -24 59 l35 35
60 -38 61 -38 -37 -8z m-263 -27 c0 -5 -4 -10 -10 -10 -5 0 -10 5 -10 10 0 6
5 10 10 10 6 0 10 -4 10 -10z"/>
<path d="M1387 2006 c-3 -8 -3 -17 1 -21 4 -4 7 -16 7 -28 0 -11 5 -22 11 -24
17 -6 34 50 22 70 -11 21 -34 22 -41 3z"/>
<path d="M711 1686 l-23 -24 21 -11 c38 -21 23 -40 -64 -83 -47 -23 -85 -48
-85 -55 0 -10 -27 -13 -110 -13 -89 0 -112 -3 -116 -15 -4 -8 -13 -15 -20 -15
-11 0 -12 -4 -4 -19 5 -11 10 -37 10 -58 0 -48 10 -84 21 -78 4 3 6 12 2 20
-3 8 0 15 6 15 6 0 11 -11 11 -24 0 -32 10 -57 20 -51 5 3 6 21 3 39 -6 38 -7
38 140 52 102 10 80 20 -33 16 l-100 -4 0 40 0 40 73 12 c39 6 79 14 89 16 23
7 31 -11 16 -35 -11 -18 -8 -25 26 -59 21 -21 51 -63 65 -92 14 -29 31 -51 36
-50 6 2 24 23 40 48 30 45 61 69 49 38 -8 -20 2 -20 54 -2 47 17 252 52 360
61 l72 7 1 57 c0 31 2 87 4 124 l3 68 -56 -7 c-32 -4 -137 -7 -234 -7 -167 0
-178 -1 -178 -18 0 -38 -20 -18 -35 36 -18 61 -30 67 -64 31z m39 -22 c0 -8
-4 -12 -10 -9 -5 3 -10 10 -10 16 0 5 5 9 10 9 6 0 10 -7 10 -16z m335 -80
c-124 -43 -184 -55 -207 -43 -10 6 -19 5 -23 -1 -11 -17 -24 -11 -40 20 -15
29 -15 30 7 31 13 0 66 6 118 13 52 8 129 14 170 14 l75 1 -100 -35z m165 -5
l0 -42 -75 5 c-74 5 -75 5 -75 -20 0 -20 4 -23 23 -18 12 3 46 9 75 12 l52 7
0 -52 c0 -28 -2 -51 -3 -51 -2 0 -30 8 -63 19 -32 10 -86 26 -119 36 -108 31
-108 29 -33 65 37 17 100 42 140 55 40 13 74 24 76 24 1 1 2 -18 2 -40z m-452
-33 c49 -73 45 -80 -35 -73 -38 4 -77 8 -88 9 -17 3 -19 -2 -17 -27 2 -16 5
-31 5 -31 1 -1 45 6 97 15 81 14 95 19 93 35 -1 16 4 18 50 12 29 -4 66 -11
82 -15 17 -5 64 -17 105 -26 124 -28 123 -28 -105 -54 -49 -6 -113 -8 -142 -4
-50 5 -54 4 -99 -36 -26 -23 -52 -40 -58 -38 -17 6 -57 92 -63 136 -5 35 -2
46 18 68 34 37 101 84 113 80 6 -2 26 -25 44 -51z m-183 -26 c-3 -5 -12 -10
-18 -10 -7 0 -6 4 3 10 19 12 23 12 15 0z m345 6 c0 -3 -4 -8 -10 -11 -5 -3
-10 -1 -10 4 0 6 5 11 10 11 6 0 10 -2 10 -4z m-253 -72 c-3 -3 -12 -4 -19 -1
-8 3 -5 6 6 6 11 1 17 -2 13 -5z m-97 -37 c0 -5 -4 -5 -10 -2 -5 3 -10 14 -10
23 0 15 2 15 10 2 5 -8 10 -19 10 -23z m-250 -12 c0 -14 -4 -25 -10 -25 -11 0
-14 33 -3 43 11 11 13 8 13 -18z m480 -51 c0 -2 -7 -4 -15 -4 -8 0 -15 4 -15
10 0 5 7 7 15 4 8 -4 15 -8 15 -10z"/>
<path d="M238 1502 c-32 -4 -33 -9 -13 -36 24 -32 18 -39 -29 -34 -42 5 -44 4
-48 -24 -5 -30 9 -49 21 -29 4 7 21 13 37 14 27 2 29 0 32 -40 4 -60 22 -54
22 7 0 38 4 50 15 50 8 0 15 5 15 10 0 6 -7 10 -15 10 -18 0 -19 14 -4 42 13
25 3 35 -33 30z"/>
<path d="M1405 1450 c-4 -6 -2 -17 4 -24 6 -7 9 -20 5 -29 -8 -23 14 -30 25
-8 18 33 14 71 -8 71 -11 0 -23 -5 -26 -10z"/>
<path d="M780 1125 l-23 -24 45 -43 c24 -24 62 -65 83 -92 l40 -49 -59 -53
c-33 -30 -65 -54 -72 -54 -24 0 -111 78 -119 107 -7 29 2 41 85 105 55 43 26
45 -35 2 l-57 -38 -129 -1 c-108 0 -129 -2 -129 -15 0 -8 -10 -20 -22 -25 -22
-10 -23 -14 -20 -105 4 -97 22 -154 22 -68 0 33 5 48 16 52 36 14 44 7 44 -39
0 -60 16 -57 24 4 7 56 8 57 117 60 87 3 145 -18 194 -69 16 -17 32 -30 36
-30 4 0 12 15 18 33 6 18 34 55 61 82 47 47 49 50 33 68 -14 15 -15 20 -4 26
17 11 329 36 337 28 4 -4 1 -8 -7 -10 -50 -14 -99 -31 -129 -45 -19 -8 -73
-26 -120 -38 -47 -12 -84 -25 -83 -28 11 -32 23 -41 40 -28 41 28 107 55 111
43 2 -6 16 -11 32 -11 16 0 49 -9 75 -20 26 -11 55 -20 65 -20 10 0 22 -5 26
-11 5 -9 -24 -10 -107 -5 -63 3 -154 7 -204 8 -84 3 -90 2 -90 -17 0 -18 5
-19 50 -15 28 3 136 5 242 5 l191 0 -5 53 -6 52 41 0 c22 0 44 5 47 10 4 6
-12 10 -41 10 l-46 0 4 33 c3 17 8 40 13 50 8 19 0 19 -254 -4 -62 -6 -140 -8
-172 -4 -68 8 -90 29 -111 109 -7 25 -15 46 -18 46 -4 0 -17 -11 -30 -25z m30
-25 c0 -5 -2 -10 -4 -10 -3 0 -8 5 -11 10 -3 6 -1 10 4 10 6 0 11 -4 11 -10z
m504 -136 c15 -39 8 -47 -39 -42 -44 5 -45 5 -45 -24 0 -25 3 -29 18 -23 9 5
32 10 50 13 27 3 32 1 32 -16 0 -11 3 -27 6 -36 5 -12 1 -14 -23 -6 -44 13
-157 61 -170 72 -14 11 -7 32 7 23 5 -3 17 -1 27 4 24 13 116 50 124 51 4 0
10 -7 13 -16z m-683 -22 c11 -19 13 -35 8 -50 -8 -20 -15 -22 -83 -22 l-75 0
6 31 c5 28 4 30 -18 27 -18 -2 -25 -10 -27 -30 -3 -22 -9 -28 -28 -28 -31 0
-30 13 4 50 26 29 64 39 182 49 8 0 22 -12 31 -27z m44 -62 c3 -5 1 -10 -4
-10 -6 0 -11 5 -11 10 0 6 2 10 4 10 3 0 8 -4 11 -10z"/>
<path d="M241 994 c-22 -22 -23 -26 -9 -37 9 -6 19 -22 23 -34 6 -21 3 -23
-38 -23 -43 0 -45 -1 -50 -32 -2 -18 -3 -34 -2 -36 2 -2 18 6 36 17 45 27 59
26 59 -4 0 -14 5 -25 10 -25 6 0 10 14 10 31 0 22 5 32 20 36 27 7 26 23 -1
23 -20 0 -21 4 -16 55 6 62 -3 68 -42 29z"/>
<path d="M766 994 c-11 -10 -14 -24 -10 -41 6 -23 5 -24 -14 -14 -30 16 -34
14 -30 -16 3 -28 8 -30 41 -18 14 6 17 2 17 -24 0 -17 5 -31 10 -31 6 0 10 13
10 30 0 26 5 31 40 40 48 13 51 18 8 16 -32 -1 -33 0 -32 37 1 40 -13 48 -40
21z"/>
<path d="M1465 830 c-3 -5 -3 -16 2 -22 4 -7 8 -22 8 -33 0 -11 7 -20 15 -20
17 0 36 46 27 69 -7 18 -42 22 -52 6z"/>
<path d="M870 471 c0 -6 -30 -32 -67 -58 l-68 -48 -152 1 c-112 0 -153 -3
-153 -12 0 -6 -10 -14 -21 -17 -17 -5 -20 -11 -16 -29 4 -12 12 -53 19 -90 13
-70 28 -91 28 -39 0 20 6 30 20 34 15 4 20 0 20 -13 0 -28 11 -51 21 -44 5 3
9 16 9 29 0 22 4 23 83 27 87 5 112 -2 174 -48 26 -20 32 -32 35 -67 l3 -42
35 47 c39 53 53 60 44 23 -3 -14 -4 -25 -1 -25 3 0 37 7 75 15 38 8 127 16
198 19 81 2 130 8 132 15 3 8 9 8 23 0 32 -17 40 -2 33 61 l-6 59 71 7 c91 9
95 28 5 22 l-66 -4 5 48 6 48 -102 0 c-56 0 -146 5 -201 12 -92 11 -99 11
-112 -6 -13 -18 -14 -17 -25 10 -6 16 -15 39 -20 52 -8 22 -29 31 -29 13z m21
-53 c11 -21 11 -22 -4 -9 -10 7 -17 17 -17 22 0 15 9 10 21 -13z m-5 -40 c16
-18 42 -50 58 -70 l28 -38 -23 0 c-13 0 -56 9 -95 19 l-71 18 6 -31 7 -31 82
4 c45 1 82 1 82 -2 0 -7 -127 -87 -138 -87 -13 0 -58 53 -78 91 l-17 33 -21
-27 c-21 -26 -26 -27 -109 -27 l-87 0 0 38 c0 20 4 42 8 49 4 6 44 14 89 18
82 7 83 6 92 -19 l10 -25 61 60 c33 32 66 59 74 59 7 0 26 -15 42 -32z m364
-14 c0 -6 -110 -58 -125 -59 -13 0 -19 -40 -11 -71 5 -17 13 -24 30 -24 13 0
50 -10 83 -22 l58 -23 -50 -7 c-64 -8 -226 -8 -289 0 l-50 7 30 25 c16 14 41
32 54 42 l25 16 -28 50 -27 51 42 5 c84 12 258 18 258 10z m54 -20 c14 -35 7
-51 -19 -46 -18 3 -25 0 -25 -11 0 -8 -3 -23 -7 -33 -7 -18 5 -17 50 1 15 6
17 1 17 -39 l0 -45 -52 30 c-29 17 -61 38 -70 46 -10 9 -25 13 -35 9 -29 -11
15 32 72 70 57 39 61 40 69 18z m-825 -97 c1 -14 -5 -18 -21 -15 -19 2 -22 8
-20 33 2 17 9 36 15 44 10 12 13 9 18 -15 4 -16 7 -37 8 -47z m255 -23 c5 -14
4 -15 -9 -4 -17 14 -19 20 -6 20 5 0 12 -7 15 -16z m196 -88 c0 -3 -4 -8 -10
-11 -5 -3 -10 -1 -10 4 0 6 5 11 10 11 6 0 10 -2 10 -4z"/>
<path d="M305 400 c-3 -5 -15 -10 -26 -10 -18 0 -20 -4 -14 -32 4 -18 11 -37
16 -42 5 -6 9 -20 9 -33 0 -20 -4 -23 -27 -17 -16 4 -32 11 -38 15 -18 18 -25
8 -25 -37 0 -45 0 -45 22 -30 12 9 33 16 45 16 22 0 27 -9 35 -64 2 -11 7 -18
13 -15 5 2 8 13 7 24 -8 59 -8 60 26 63 44 4 41 22 -4 22 l-37 0 7 48 c3 26 9
59 12 75 6 26 -8 38 -21 17z"/>
<path d="M1511 211 c-17 -11 -7 -41 14 -41 9 0 15 9 15 25 0 27 -6 30 -29 16z"/>
</g>
</svg>
