<?xml version="1.0" standalone="no"?>
<!DOCTYPE svg PUBLIC "-//W3C//DTD SVG 20010904//EN"
 "http://www.w3.org/TR/2001/REC-SVG-20010904/DTD/svg10.dtd">
<svg version="1.0" xmlns="http://www.w3.org/2000/svg"
 width="129.000000pt" height="79.000000pt" viewBox="0 0 129.000000 79.000000"
 preserveAspectRatio="xMidYMid meet">
<metadata>
Created by potrace 1.16, written by Peter Selinger 2001-2019
</metadata>
<g transform="translate(0.000000,79.000000) scale(0.100000,-0.100000)"
fill="#000000" stroke="none">
<path d="M225 740 c-10 -11 -23 -30 -29 -41 -6 -12 -36 -31 -66 -43 -52 -21
-55 -24 -52 -54 3 -22 -1 -34 -12 -38 -27 -10 -18 -24 27 -43 23 -11 57 -33
75 -50 18 -17 39 -31 47 -31 50 0 -18 -64 -118 -112 -49 -24 -56 -32 -33 -41
8 -3 16 -18 18 -32 2 -21 11 -30 41 -40 46 -16 107 -61 107 -81 0 -27 28 -14
35 17 4 18 27 49 56 77 27 26 47 52 45 59 -3 6 11 26 30 42 33 30 38 31 129
31 57 0 95 4 95 10 0 6 -8 10 -17 10 -120 3 -207 11 -218 20 -21 18 -34 3 -29
-33 7 -48 -7 -63 -40 -42 -35 23 -45 44 -47 98 -2 46 15 81 60 121 21 19 21
19 21 -2 0 -26 -2 -26 44 -7 30 13 53 14 128 6 51 -5 98 -7 105 -4 29 11 -1
20 -89 27 -99 7 -181 28 -212 55 -21 19 -50 74 -60 114 -8 32 -17 34 -41 7z
m33 -55 c-9 -9 -30 14 -23 25 6 9 10 8 17 -4 6 -10 8 -19 6 -21z m56 -84 c19
-21 19 -21 -40 -76 -58 -54 -94 -69 -94 -40 0 8 -4 15 -9 15 -4 0 -21 18 -36
40 l-28 40 24 26 c13 15 40 37 59 49 l35 22 35 -27 c19 -15 44 -37 54 -49z
m-194 25 c0 -3 -4 -8 -10 -11 -5 -3 -10 -1 -10 4 0 6 5 11 10 11 6 0 10 -2 10
-4z m270 -66 c0 -5 -4 -10 -10 -10 -5 0 -10 5 -10 10 0 6 5 10 10 10 6 0 10
-4 10 -10z m-120 -229 c27 -22 55 -41 62 -44 7 -2 11 -6 8 -9 -88 -75 -106
-84 -96 -50 2 9 8 36 11 60 7 43 7 44 -21 40 -20 -2 -28 -8 -25 -18 2 -8 6
-40 9 -70 l5 -54 -24 15 c-13 9 -36 34 -51 55 l-28 39 41 38 c23 20 46 37 51
37 5 0 31 -18 58 -39z m130 35 c0 -3 -4 -8 -10 -11 -5 -3 -10 -1 -10 4 0 6 5
11 10 11 6 0 10 -2 10 -4z"/>
<path d="M196 617 c-13 -10 -15 -16 -8 -21 7 -4 12 -27 12 -52 0 -24 4 -44 9
-44 7 0 22 69 25 114 1 16 -19 17 -38 3z"/>
<path d="M735 589 c-32 -38 -71 -79 -87 -90 -29 -21 -37 -44 -17 -51 9 -3 8
-10 -1 -25 -12 -19 -8 -27 51 -92 35 -39 67 -71 72 -71 10 0 9 18 -2 24 -5 3
-25 30 -45 60 -58 88 -48 129 60 250 42 46 53 66 36 66 -4 0 -34 -32 -67 -71z"/>
<path d="M844 554 c-44 -36 -83 -70 -88 -75 -5 -5 -4 -14 4 -24 10 -12 10 -18
-1 -31 -11 -13 -9 -19 13 -37 14 -12 38 -44 53 -70 18 -31 31 -45 37 -39 7 7
0 25 -19 54 -17 23 -35 63 -41 87 l-11 44 71 74 c39 40 69 75 66 78 -3 3 -41
-24 -84 -61z"/>
<path d="M1045 603 c-21 -7 -41 -16 -43 -18 -2 -2 1 -26 6 -52 6 -26 14 -105
18 -175 3 -71 10 -128 15 -128 5 0 9 52 9 115 0 91 5 129 21 178 11 34 25 67
30 73 8 10 2 25 -10 23 -3 -1 -24 -8 -46 -16z m13 -56 c-14 -44 -28 -48 -28
-7 0 17 7 33 17 39 24 13 24 11 11 -32z"/>
<path d="M892 541 c-50 -52 -61 -69 -53 -82 7 -12 5 -21 -7 -32 -15 -15 -14
-19 10 -44 14 -16 33 -42 42 -60 15 -31 33 -49 41 -41 2 2 -9 30 -25 63 -47
95 -44 106 50 227 42 54 3 33 -58 -31z"/>
<path d="M1108 595 c-3 -3 1 -29 9 -57 17 -67 16 -78 -2 -78 -17 0 -19 -24 -5
-66 5 -16 11 -63 12 -104 3 -87 22 -102 25 -20 3 64 23 159 35 166 4 3 8 12 8
21 0 10 -6 14 -20 10 -26 -7 -26 8 0 75 11 29 20 54 20 56 0 4 -77 2 -82 -3z
m45 -36 c-4 -13 -9 -17 -15 -11 -11 11 -3 32 12 32 4 0 6 -9 3 -21z m-8 -157
c-6 -15 -8 -15 -15 3 -4 12 -3 23 4 27 14 9 20 -7 11 -30z"/>
<path d="M746 526 c-49 -46 -66 -67 -60 -77 5 -8 7 -24 6 -36 -2 -14 3 -23 16
-27 11 -4 34 -29 53 -56 19 -28 37 -50 42 -50 15 0 6 27 -22 66 -16 21 -36 55
-44 76 -17 41 -13 53 51 120 59 63 30 52 -42 -16z"/>
</g>
</svg>
