<?xml version="1.0" standalone="no"?>
<!DOCTYPE svg PUBLIC "-//W3C//DTD SVG 20010904//EN"
 "http://www.w3.org/TR/2001/REC-SVG-20010904/DTD/svg10.dtd">
<svg version="1.0" xmlns="http://www.w3.org/2000/svg"
 width="128.000000pt" height="88.000000pt" viewBox="0 0 128.000000 88.000000"
 preserveAspectRatio="xMidYMid meet">
<metadata>
Created by potrace 1.16, written by Peter Selinger 2001-2019
</metadata>
<g transform="translate(0.000000,88.000000) scale(0.100000,-0.100000)"
fill="#000000" stroke="none">
<path d="M390 815 c-6 -8 -22 -17 -33 -21 -12 -4 -36 -18 -53 -33 -17 -14 -39
-31 -50 -37 -17 -10 -16 -12 13 -27 29 -15 93 -83 93 -98 0 -4 -29 -26 -65
-48 l-65 -41 -105 0 c-93 0 -105 -2 -105 -17 -1 -10 -3 -51 -5 -92 -5 -72 -4
-73 18 -66 12 3 65 9 117 11 80 5 100 3 127 -13 38 -22 113 -90 113 -102 0
-14 34 -71 43 -71 4 0 7 11 7 25 0 17 20 46 63 92 l64 66 84 5 84 4 59 -40
c38 -26 65 -54 79 -81 24 -48 38 -49 43 -2 2 18 11 45 21 59 19 31 160 162
174 162 5 0 9 -33 9 -72 0 -81 7 -118 22 -118 6 0 8 41 4 113 -5 108 -4 113
20 149 34 48 26 58 -33 46 -27 -6 -49 -12 -51 -13 -2 -2 2 -14 8 -27 15 -27 9
-21 -56 57 -27 33 -56 68 -65 78 -20 22 -33 96 -24 137 4 17 4 30 0 30 -16 0
-69 -67 -70 -87 -2 -24 -20 -43 -101 -108 -27 -22 -51 -43 -54 -46 -21 -26
-81 -49 -127 -49 -50 0 -54 2 -79 39 -14 22 -28 58 -31 81 -4 30 -10 40 -20
36 -18 -7 -43 50 -43 99 0 37 -10 44 -30 20z m10 -41 c0 -8 -5 -12 -10 -9 -6
4 -8 11 -5 16 9 14 15 11 15 -7z m520 -31 c0 -20 -3 -24 -11 -16 -7 7 -9 19
-6 27 10 24 17 19 17 -11z m-525 -18 c40 -39 40 -41 19 -83 -19 -39 -27 -40
-53 -3 -22 31 -30 121 -11 121 6 0 26 -16 45 -35z m-75 -5 c0 -13 -5 -18 -15
-14 -12 5 -13 10 -4 20 15 19 19 18 19 -6z m659 -104 c28 -33 51 -63 51 -68 0
-4 -27 -8 -61 -8 -54 0 -60 2 -54 18 3 9 9 29 12 45 l6 27 -64 0 -64 1 45 39
c51 45 39 50 129 -54z m-501 -24 c24 -27 90 -112 113 -149 l19 -31 -87 -81
-88 -82 -3 44 c-2 24 4 64 13 88 23 65 23 64 -14 61 -19 -1 -37 -4 -39 -6 -2
-2 1 -21 7 -43 14 -48 14 -155 1 -132 -5 9 -41 40 -79 69 -96 73 -105 104 -47
169 19 22 89 71 101 71 2 0 12 -15 21 -32 21 -40 31 -20 13 23 -10 26 -10 32
2 40 22 14 48 10 67 -9z m322 4 c0 -3 -4 -8 -10 -11 -5 -3 -10 -1 -10 4 0 6 5
11 10 11 6 0 10 -2 10 -4z m79 -46 c0 -9 -4 -8 -9 5 -5 11 -9 27 -9 35 0 9 4
8 9 -5 5 -11 9 -27 9 -35z m-105 24 c11 -29 6 -34 -29 -34 -40 0 -45 12 -13
34 28 20 34 20 42 0z m46 -20 c0 -8 -4 -14 -10 -14 -5 0 -10 9 -10 21 0 11 5
17 10 14 6 -3 10 -13 10 -21z m320 -29 c-11 -13 -15 -13 -21 -3 -5 8 -2 15 9
19 23 9 27 3 12 -16z m-67 -23 c27 -23 21 -36 -37 -86 -43 -36 -62 -46 -90
-46 l-36 0 0 74 0 75 38 3 c58 5 105 -3 125 -20z m-295 -55 c3 -78 -13 -96
-51 -56 -46 48 -60 79 -48 106 10 21 17 24 54 21 l42 -3 3 -68z m41 -22 c-2
-92 -12 -123 -21 -67 -3 21 -3 148 1 160 1 1 6 2 12 2 6 0 9 -34 8 -95z m33
-6 c-5 -44 -7 -49 -11 -25 -4 16 -4 52 -2 80 3 42 5 46 11 25 4 -14 5 -50 2
-80z m38 20 c0 -39 -4 -69 -10 -69 -6 0 -10 32 -10 76 0 47 4 73 10 69 6 -3
10 -37 10 -76z m-256 43 c9 -18 11 -34 6 -42 -5 -8 -10 -12 -12 -10 -2 3 -16
22 -31 43 l-28 37 25 0 c18 0 30 -9 40 -28z m-412 -14 c-7 -7 -12 -8 -12 -2 0
14 12 26 19 19 2 -3 -1 -11 -7 -17z m-90 -1 c-46 -7 -66 -7 -75 2 -8 8 7 11
64 10 l74 -2 -63 -10z m68 -34 c0 -15 -10 -18 -68 -18 -108 1 -82 30 31 34 29
1 37 -3 37 -16z m483 -26 c15 -23 15 -24 -9 -19 -23 4 -31 21 -17 35 9 10 9
10 26 -16z m-499 -22 c-5 -11 -21 -15 -59 -15 -86 0 -100 14 -20 21 39 3 73 6
77 7 4 1 5 -5 2 -13z m46 -6 c0 -5 -4 -9 -10 -9 -5 0 -10 7 -10 16 0 8 5 12
10 9 6 -3 10 -10 10 -16z m415 1 c17 -7 14 -9 -13 -9 -20 -1 -31 3 -27 9 7 12
13 12 40 0z m202 -62 c-3 -7 -5 -2 -5 12 0 14 2 19 5 13 2 -7 2 -19 0 -25z
m43 -3 c0 -19 -4 -35 -10 -35 -5 0 -10 16 -10 35 0 19 5 35 10 35 6 0 10 -16
10 -35z m60 27 c0 -4 -9 -13 -20 -20 -18 -11 -20 -10 -20 8 0 13 7 20 20 20
11 0 20 -3 20 -8z m-53 -94 c-3 -8 -6 -5 -6 6 -1 11 2 17 5 13 3 -3 4 -12 1
-19z"/>
<path d="M1252 307 c-29 -31 -48 -105 -35 -142 13 -41 29 -38 25 6 -2 19 7 61
18 93 12 31 20 59 18 62 -3 2 -14 -6 -26 -19z"/>
<path d="M320 169 c-19 -17 -52 -40 -72 -50 l-37 -19 21 -35 20 -36 23 50 c15
31 37 58 59 73 20 13 36 29 36 36 0 19 -12 14 -50 -19z"/>
</g>
</svg>
