<?xml version="1.0" standalone="no"?>
<!DOCTYPE svg PUBLIC "-//W3C//DTD SVG 20010904//EN"
 "http://www.w3.org/TR/2001/REC-SVG-20010904/DTD/svg10.dtd">
<svg version="1.0" xmlns="http://www.w3.org/2000/svg"
 width="136.000000pt" height="82.000000pt" viewBox="0 0 136.000000 82.000000"
 preserveAspectRatio="xMidYMid meet">
<metadata>
Created by potrace 1.16, written by Peter Selinger 2001-2019
</metadata>
<g transform="translate(0.000000,82.000000) scale(0.100000,-0.100000)"
fill="#000000" stroke="none">
<path d="M0 813 c0 -7 559 -7 690 0 30 2 -113 4 -317 5 -205 1 -373 -1 -373
-5z"/>
<path d="M1018 761 c-36 -20 -35 -31 3 -67 38 -36 119 -147 119 -163 0 -13
-98 -121 -109 -121 -3 0 -14 18 -24 40 -16 37 -19 39 -48 33 l-32 -6 6 70 c4
39 14 89 22 113 8 24 14 45 12 46 -2 2 -20 -2 -41 -8 l-38 -12 8 -80 c10 -108
11 -526 2 -526 -5 0 -8 -7 -8 -15 0 -8 4 -15 9 -15 13 0 32 26 24 33 -16 16 2
237 19 237 5 0 21 9 35 20 14 11 31 20 37 20 6 0 31 -30 55 -67 l43 -67 -33
-27 c-19 -16 -38 -29 -42 -29 -13 0 -97 -71 -97 -81 0 -12 24 -2 135 62 55 31
124 68 152 83 l53 26 -17 35 c-9 19 -19 35 -22 35 -3 -1 -28 -21 -55 -45 -27
-24 -53 -42 -57 -39 -5 3 -26 35 -48 72 l-41 67 28 22 c15 12 48 32 75 44 26
12 47 28 47 35 0 7 -22 49 -49 94 -27 44 -57 105 -67 136 -9 30 -20 56 -23 58
-3 1 -18 -4 -33 -13z m42 -64 c0 -5 -7 -4 -15 3 -8 7 -15 20 -15 29 1 13 3 13
15 -3 8 -11 15 -24 15 -29z m-130 -48 c0 -11 -4 -17 -10 -14 -5 3 -10 13 -10
21 0 8 5 14 10 14 6 0 10 -9 10 -21z m240 -153 c0 -2 -11 -11 -25 -20 -25 -17
-25 -16 -13 4 11 17 38 29 38 16z m-185 -46 c3 -5 1 -10 -4 -10 -6 0 -11 5
-11 10 0 6 2 10 4 10 3 0 8 -4 11 -10z m-11 -36 l28 -27 -29 -23 c-15 -13 -31
-23 -35 -24 -5 0 -8 23 -8 50 0 28 3 50 8 50 4 0 20 -12 36 -26z m271 -134 c3
-5 -17 -21 -45 -35 -27 -14 -50 -23 -50 -21 0 4 81 66 86 66 2 0 6 -4 9 -10z"/>
<path d="M122 735 c-15 -19 -29 -25 -57 -25 -34 0 -37 -2 -30 -22 5 -13 10
-170 12 -350 3 -219 8 -328 15 -328 6 0 37 25 70 56 70 64 183 145 251 180 48
25 54 33 38 50 -5 5 -11 22 -13 38 -3 26 -8 30 -74 46 -40 10 -95 30 -124 45
l-51 26 49 39 c48 39 130 80 158 80 8 0 14 3 14 8 -1 16 -58 71 -100 95 -25
15 -61 40 -80 57 -41 37 -53 37 -78 5z m53 -15 c3 -5 -3 -10 -14 -10 -12 0
-21 5 -21 10 0 6 6 10 14 10 8 0 18 -4 21 -10z m68 -62 c26 -11 47 -26 47 -33
0 -6 -30 -42 -66 -80 l-66 -68 4 74 3 74 -32 3 c-37 4 -36 2 -23 37 9 24 13
25 47 19 21 -3 59 -15 86 -26z m-161 -3 c-5 -28 -22 -24 -22 6 0 10 6 19 14
19 9 0 12 -8 8 -25z m37 -76 c6 -18 11 -53 11 -79 0 -37 -5 -51 -25 -70 l-25
-23 0 70 c0 78 8 133 20 133 5 0 13 -14 19 -31z m216 21 c3 -5 -8 -16 -25 -25
-33 -17 -39 -11 -13 17 18 20 29 23 38 8z m-195 -180 c0 -5 -5 -10 -11 -10 -5
0 -7 5 -4 10 3 6 8 10 11 10 2 0 4 -4 4 -10z m0 -170 l6 -135 -30 -33 c-17
-17 -34 -28 -38 -24 -5 5 -6 82 -2 171 l7 162 26 -3 26 -3 5 -135z m153 113
c37 -8 67 -17 67 -20 0 -8 -126 -155 -164 -192 l-36 -35 0 138 0 138 33 -7
c17 -3 62 -13 100 -22z m97 -62 c0 -16 -66 -71 -85 -71 -9 0 69 89 78 90 4 0
7 -8 7 -19z"/>
<path d="M807 686 c-32 -18 -37 -25 -33 -46 13 -57 26 -384 20 -495 -5 -99 -4
-118 7 -107 10 9 14 80 19 300 5 246 8 292 23 321 22 45 11 53 -36 27z m4 -58
c-4 -32 -5 -32 -11 -8 -7 26 -4 40 9 40 4 0 5 -15 2 -32z"/>
<path d="M1280 184 c0 -33 33 -30 38 4 3 17 -2 22 -17 22 -16 0 -21 -6 -21
-26z"/>
<path d="M563 160 c2 -50 32 -57 42 -10 8 35 0 50 -25 50 -16 0 -19 -7 -17
-40z"/>
</g>
</svg>
