<?xml version="1.0" standalone="no"?>
<!DOCTYPE svg PUBLIC "-//W3C//DTD SVG 20010904//EN"
 "http://www.w3.org/TR/2001/REC-SVG-20010904/DTD/svg10.dtd">
<svg version="1.0" xmlns="http://www.w3.org/2000/svg"
 width="134.000000pt" height="72.000000pt" viewBox="0 0 134.000000 72.000000"
 preserveAspectRatio="xMidYMid meet">
<metadata>
Created by potrace 1.16, written by Peter Selinger 2001-2019
</metadata>
<g transform="translate(0.000000,72.000000) scale(0.100000,-0.100000)"
fill="#000000" stroke="none">
<path d="M261 657 c-11 -33 -144 -255 -183 -306 -20 -26 -23 -41 -9 -41 5 0
35 42 68 93 49 78 58 88 61 67 2 -20 12 -29 44 -40 46 -17 54 -28 36 -53 -12
-15 -17 -13 -56 23 -43 40 -62 44 -62 12 0 -10 17 -26 43 -38 42 -20 44 -26
32 -74 -6 -24 -6 -24 19 5 14 17 26 25 26 20 0 -6 -13 -26 -29 -45 l-29 -35
-52 44 c-40 34 -56 42 -68 34 -25 -15 -25 -31 0 -38 13 -4 42 -16 65 -28 38
-18 42 -23 36 -46 -6 -26 -6 -26 16 -7 23 21 27 16 9 -14 -16 -26 -2 -39 17
-14 8 11 15 14 15 7 0 -7 9 -13 21 -13 16 0 19 -4 14 -20 -4 -11 -2 -20 4 -20
6 0 11 5 11 10 0 6 4 10 9 10 5 0 7 -10 3 -22 -5 -20 -4 -21 11 -10 22 18 61
-6 46 -28 -11 -18 -12 -40 -1 -40 4 0 15 12 24 28 10 15 36 47 58 71 39 41 40
44 24 62 -9 10 -21 19 -27 19 -5 0 -43 34 -84 76 l-73 75 32 46 c18 25 53 68
77 95 l44 49 -24 17 c-32 24 -32 24 -58 57 -12 17 -33 30 -44 31 -12 1 -29 4
-38 8 -13 6 -20 -1 -28 -27z m25 -23 c-4 -9 -9 -15 -11 -12 -3 3 -3 13 1 22 4
9 9 15 11 12 3 -3 3 -13 -1 -22z m74 -21 c14 -9 28 -21 32 -26 7 -11 -11 -57
-23 -57 -12 0 -69 70 -69 85 0 20 30 19 60 -2z m-84 -40 c-1 -12 14 -24 42
-37 39 -18 53 -38 33 -50 -4 -3 -27 11 -49 30 -41 35 -62 37 -62 8 0 -8 20
-23 45 -34 49 -21 52 -25 29 -55 -14 -19 -16 -18 -61 27 l-46 46 33 41 c19 23
34 41 36 41 1 0 1 -8 0 -17z m78 -279 c17 -12 18 -17 7 -36 -21 -41 -49 -73
-57 -66 -3 4 5 21 20 38 14 17 26 39 26 47 0 19 1 20 -39 -31 -17 -21 -31 -34
-31 -29 0 6 9 22 20 36 34 43 22 54 -15 12 -41 -47 -45 -40 -9 14 26 40 41 43
78 15z m15 -94 c-13 -16 -27 -30 -32 -30 -5 0 2 15 17 34 14 19 27 41 27 48 1
7 3 5 6 -4 2 -9 -6 -31 -18 -48z m65 21 c7 -11 -20 -77 -34 -86 -6 -4 -17 -1
-25 5 -13 10 -11 18 13 51 28 40 37 46 46 30z"/>
<path d="M1100 465 l-23 -25 46 -49 c26 -28 47 -54 47 -59 0 -12 -65 -62 -79
-62 -14 0 -14 -16 -1 -41 16 -29 32 -23 63 26 20 31 33 42 44 38 12 -5 14 -1
9 15 -5 15 -1 24 14 32 11 6 20 17 20 26 0 12 -3 12 -24 -1 -29 -19 -30 -17
-62 73 -10 28 -21 52 -24 52 -4 0 -17 -11 -30 -25z m39 -41 c3 -16 1 -17 -13
-5 -19 16 -21 34 -3 29 6 -3 14 -13 16 -24z"/>
<path d="M598 449 l-36 -20 15 -36 c10 -26 13 -52 8 -95 -4 -36 -3 -58 3 -58
11 0 22 34 22 71 0 48 62 54 88 9 26 -45 46 -35 22 11 -10 18 -6 19 90 19 62
0 100 4 100 10 0 7 -36 10 -97 9 -54 0 -105 2 -115 6 -17 7 -28 34 -28 73 0
28 -22 28 -72 1z m52 -54 c10 -13 9 -15 -9 -15 -12 0 -21 6 -21 15 0 8 4 15 9
15 5 0 14 -7 21 -15z"/>
<path d="M896 445 c-21 -32 -21 -34 9 -57 34 -26 32 -41 -11 -76 -32 -27 -34
-32 -22 -51 16 -27 25 -27 33 2 4 12 18 36 31 53 21 29 22 33 9 70 -8 21 -14
47 -15 56 0 28 -17 29 -34 3z"/>
<path d="M985 463 c-34 -8 -37 -19 -19 -73 l17 -53 -26 -23 c-15 -13 -27 -27
-27 -32 0 -13 49 -44 59 -38 5 3 14 -1 21 -9 14 -17 30 -20 30 -5 0 6 8 28 19
49 14 31 17 54 13 115 -3 53 -9 76 -17 76 -8 0 -16 -6 -18 -12 -4 -10 -6 -10
-6 0 -1 12 -11 13 -46 5z m29 -86 c9 -28 27 -9 20 21 -4 19 -3 23 4 12 5 -8
13 -30 17 -48 5 -27 2 -39 -20 -68 -32 -42 -43 -39 -20 6 22 43 12 49 -16 11
-13 -17 -27 -31 -33 -31 -5 0 1 11 13 24 19 20 21 31 16 77 -5 51 2 50 19 -4z"/>
<path d="M408 23 c-261 -2 -408 -7 -408 -13 0 -7 235 -10 670 -10 589 0 670 2
670 15 0 13 -35 15 -262 13 -145 -2 -446 -4 -670 -5z"/>
</g>
</svg>
