<?xml version="1.0" standalone="no"?>
<!DOCTYPE svg PUBLIC "-//W3C//DTD SVG 20010904//EN"
 "http://www.w3.org/TR/2001/REC-SVG-20010904/DTD/svg10.dtd">
<svg version="1.0" xmlns="http://www.w3.org/2000/svg"
 width="125.000000pt" height="339.000000pt" viewBox="0 0 125.000000 339.000000"
 preserveAspectRatio="xMidYMid meet">
<metadata>
Created by potrace 1.16, written by Peter Selinger 2001-2019
</metadata>
<g transform="translate(0.000000,339.000000) scale(0.100000,-0.100000)"
fill="#000000" stroke="none">
<path d="M313 3383 c175 -2 459 -2 630 0 172 1 29 2 -318 2 -347 0 -487 -1
-312 -2z"/>
<path d="M605 3337 c-16 -18 -58 -58 -93 -89 -54 -50 -68 -58 -102 -58 -39 0
-40 -1 -40 -36 l0 -36 -24 29 c-28 34 -66 107 -66 128 0 22 -6 19 -44 -17 -27
-27 -64 -50 -154 -95 -2 0 1 -17 6 -37 8 -27 7 -38 -4 -47 -18 -14 -18 -39 -1
-39 15 0 97 -51 97 -61 0 -3 -13 -4 -30 -1 -45 6 -63 -3 -51 -27 9 -17 16 -18
47 -9 20 5 38 7 42 4 6 -7 -9 -20 -86 -72 -50 -34 -52 -37 -37 -54 13 -14 14
-23 6 -39 -17 -31 -14 -37 27 -59 20 -10 63 -33 95 -50 51 -27 59 -29 63 -14
14 44 34 81 68 120 20 24 36 51 36 60 1 15 2 15 13 2 28 -35 167 -141 195
-149 27 -8 34 -5 63 26 35 35 167 128 183 128 11 0 23 22 30 55 3 14 22 48 43
74 32 41 35 50 22 60 -8 6 -23 22 -32 36 -10 14 -23 25 -30 25 -18 0 -23 20
-6 23 17 3 152 -123 147 -138 -1 -5 -32 -27 -67 -47 -36 -21 -67 -44 -69 -52
-3 -10 4 -9 24 5 16 11 54 33 84 49 30 15 58 33 62 39 8 12 -25 44 -195 191
-57 50 -114 105 -127 123 -16 23 -26 29 -31 21 -6 -10 -11 -10 -24 1 -16 13
-16 15 0 26 9 7 14 17 10 23 -9 16 -17 13 -50 -22z m51 -57 c79 -55 159 -131
156 -148 -5 -23 -94 -113 -107 -109 -5 2 -10 8 -11 13 -4 41 -18 94 -24 94 -5
0 -17 -15 -29 -32 l-20 -33 29 -23 c38 -30 38 -45 -2 -80 -25 -23 -30 -33 -24
-55 9 -37 21 -34 48 15 13 23 28 43 33 45 6 1 19 -15 29 -37 20 -41 36 -52 36
-25 0 8 -3 15 -8 15 -4 0 -16 16 -27 36 l-19 35 46 46 c42 41 47 44 69 33 33
-17 59 -41 59 -54 0 -7 -26 -38 -57 -70 -35 -35 -53 -61 -45 -64 16 -5 16 -32
-1 -32 -7 0 -58 -27 -114 -60 -55 -33 -109 -60 -120 -60 -25 0 -137 90 -125
102 5 5 38 9 74 9 35 0 70 4 76 8 8 5 14 63 18 175 l6 168 -59 -3 c-32 -2 -57
0 -55 4 1 4 24 26 50 49 26 24 51 49 55 56 11 17 12 16 63 -18z m-393 -78 c15
-10 42 -35 60 -56 l34 -37 -67 -65 c-37 -35 -71 -64 -76 -64 -14 0 -69 60 -86
94 -14 27 -14 32 4 63 21 34 75 83 93 83 6 0 22 -8 38 -18z m317 -57 c0 -22
-3 -25 -25 -19 -46 11 -59 9 -63 -10 -3 -16 1 -17 38 -11 31 5 45 4 51 -6 16
-26 9 -31 -38 -28 -42 3 -48 1 -48 -16 0 -11 5 -19 10 -18 6 1 28 5 49 9 35 6
38 5 33 -10 -4 -10 -7 -53 -7 -97 l0 -79 -90 0 c-84 0 -91 2 -99 22 -12 33 -2
56 25 60 32 4 30 24 -2 21 -20 -1 -24 3 -24 28 0 26 3 29 30 29 17 0 30 5 30
10 0 6 -13 10 -30 10 -28 0 -30 3 -30 34 0 81 15 91 133 95 55 1 57 0 57 -24z
m93 -75 c6 -24 -8 -36 -17 -14 -8 22 -7 34 3 34 5 0 11 -9 14 -20z m-303 -95
c0 -58 -4 -105 -8 -105 -5 0 -30 16 -56 36 -25 21 -49 34 -52 31 -3 -3 17 -23
45 -44 27 -21 50 -40 50 -43 2 -13 -132 -160 -145 -160 -21 0 -94 81 -94 105
0 26 84 132 121 153 16 10 29 21 29 27 0 11 91 105 102 105 4 0 8 -47 8 -105z
m-245 75 c3 -6 -1 -7 -9 -4 -18 7 -21 14 -7 14 6 0 13 -4 16 -10z m527 -122
c-7 -7 -12 -8 -12 -2 0 14 12 26 19 19 2 -3 -1 -11 -7 -17z m-52 -212 c0 -3
-4 -8 -10 -11 -5 -3 -10 -1 -10 4 0 6 5 11 10 11 6 0 10 -2 10 -4z"/>
<path d="M400 3100 c0 -5 11 -10 25 -10 14 0 25 5 25 10 0 6 -11 10 -25 10
-14 0 -25 -4 -25 -10z"/>
<path d="M480 2996 c0 -21 11 -24 49 -14 26 7 31 12 20 19 -23 14 -69 11 -69
-5z"/>
<path d="M480 2931 c0 -17 20 -23 53 -15 28 6 30 8 12 15 -28 11 -65 11 -65 0z"/>
<path d="M415 2880 c27 -12 35 -12 35 0 0 6 -12 10 -27 9 -25 0 -26 -1 -8 -9z"/>
<path d="M280 2960 c20 -13 47 -13 55 0 4 6 -9 10 -32 10 -28 0 -34 -3 -23
-10z"/>
<path d="M1053 2912 c-12 -8 -5 -82 8 -82 10 0 29 43 29 65 0 15 -23 26 -37
17z"/>
<path d="M260 2435 c-23 -25 -158 -119 -181 -127 -10 -3 -10 -11 0 -36 12 -29
12 -35 -4 -52 -16 -18 -15 -19 22 -38 44 -23 81 -62 75 -80 -2 -7 1 -19 8 -27
15 -18 -9 -42 -79 -81 -47 -25 -52 -31 -46 -54 8 -33 8 -41 0 -67 -6 -17 -1
-25 22 -37 38 -21 74 -56 95 -91 22 -38 34 -42 42 -11 3 13 38 56 76 94 39 38
70 74 70 79 0 6 -22 44 -50 86 -27 42 -50 81 -50 86 0 6 -5 11 -10 11 -16 0
-1 22 59 85 40 42 56 53 62 43 12 -18 11 -275 0 -315 -11 -39 -5 -47 23 -28
13 10 46 15 93 15 42 0 73 4 73 10 0 6 -30 10 -69 10 -95 0 -101 3 -101 56 0
37 3 44 19 44 11 0 32 5 48 11 l28 12 -25 7 c-42 13 -60 11 -60 -7 0 -9 -2
-14 -5 -11 -3 3 -2 19 1 36 5 26 12 32 33 33 33 1 68 14 55 21 -5 3 -26 8 -46
12 -21 4 -38 11 -38 16 0 26 25 110 33 110 5 0 7 -7 4 -15 -9 -22 10 -28 35
-11 12 9 39 16 60 16 31 0 39 -4 44 -24 3 -13 4 -33 2 -44 -3 -19 -5 -20 -43
-7 -46 16 -50 15 -41 -20 5 -20 11 -25 26 -21 11 3 30 9 41 12 22 6 22 6 17
-120 -3 -71 -2 -126 3 -126 5 0 9 10 10 23 1 78 19 306 25 325 6 21 4 22 -63
22 -39 0 -85 5 -102 11 -24 9 -35 9 -44 0 -6 -6 -15 -11 -19 -11 -11 0 -74
128 -83 168 -8 38 -14 40 -45 7z m34 -41 c5 -14 4 -15 -9 -4 -17 14 -19 20 -6
20 5 0 12 -7 15 -16z m-8 -32 c32 -27 64 -80 64 -104 0 -18 -87 -102 -125
-121 -30 -15 -30 -15 -61 27 -45 59 -49 80 -23 119 31 45 91 107 104 107 5 -1
24 -13 41 -28z m-169 -79 c-15 -16 -17 -16 -17 -1 0 9 6 18 13 21 20 7 22 -2
4 -20z m-7 -73 c0 -5 -2 -10 -4 -10 -3 0 -8 5 -11 10 -3 6 -1 10 4 10 6 0 11
-4 11 -10z m104 -115 c-4 -8 -11 -15 -16 -15 -6 0 -5 6 2 15 7 8 14 15 16 15
2 0 1 -7 -2 -15z m39 -68 c-3 -6 7 -21 24 -36 16 -14 38 -39 48 -54 l18 -29
-44 -41 c-24 -23 -59 -53 -76 -65 -32 -23 -33 -23 -57 -5 -13 10 -35 39 -50
64 l-26 46 29 40 c41 57 90 95 112 88 15 -5 18 -2 13 12 -5 14 -4 15 4 3 6 -8
8 -18 5 -23z m-163 -82 c-7 -9 -15 -13 -18 -10 -3 2 1 11 8 20 7 9 15 13 18
10 3 -2 -1 -11 -8 -20z"/>
<path d="M645 2279 c-4 -17 -5 -31 -3 -33 1 -1 29 -10 61 -21 63 -20 75 -31
58 -48 -6 -6 -11 -18 -11 -27 0 -9 -9 -25 -21 -36 -21 -19 -21 -18 -44 9 -13
15 -28 35 -34 44 -12 22 -19 16 -23 -22 -2 -21 2 -32 17 -39 51 -27 51 -28 7
-65 -33 -28 -40 -41 -36 -59 9 -30 16 -28 38 13 10 19 27 42 37 51 18 16 20
16 38 0 10 -10 22 -33 26 -52 5 -31 25 -45 27 -19 1 6 11 17 23 25 12 8 41 27
64 43 22 15 41 29 41 32 0 2 -25 23 -55 46 -91 68 -62 63 48 -9 70 -45 99 -70
92 -77 -21 -20 -292 -135 -350 -148 -57 -13 -60 -15 -63 -46 -2 -18 0 -32 5
-30 4 2 96 47 203 101 107 53 203 99 213 102 27 9 34 38 12 50 -30 18 -258
170 -279 186 -10 8 -28 25 -39 38 -28 30 -44 28 -52 -9z m195 -174 c22 -14 40
-29 40 -33 0 -5 -23 -19 -50 -32 l-50 -23 -25 23 c-31 29 -31 37 -3 67 27 29
39 29 88 -2z"/>
<path d="M496 2092 c-3 -3 -6 -14 -6 -24 0 -15 5 -17 28 -12 15 4 34 10 42 15
13 7 13 8 0 12 -33 11 -59 15 -64 9z"/>
<path d="M485 2011 c-3 -2 -5 -13 -5 -23 0 -14 5 -18 18 -14 54 15 62 18 62
26 0 8 -68 19 -75 11z"/>
<path d="M1075 1833 c8 -34 11 -37 24 -28 6 3 11 17 11 31 0 18 -5 24 -21 24
-18 0 -20 -4 -14 -27z"/>
<path d="M312 1663 c-5 -10 -12 -30 -16 -44 -5 -23 -87 -106 -164 -166 l-23
-18 67 -55 68 -55 -33 -3 c-18 -2 -52 1 -76 6 -48 10 -55 4 -55 -44 0 -20 3
-23 18 -16 21 12 138 32 180 32 18 0 32 -4 32 -10 0 -5 -8 -10 -17 -10 -10 0
-43 -19 -73 -43 -30 -23 -72 -53 -92 -66 -21 -12 -38 -26 -38 -30 0 -4 12 -14
26 -22 27 -14 144 -137 144 -151 0 -4 5 -19 11 -35 l10 -27 29 49 c29 49 109
138 141 156 13 7 30 -5 77 -55 33 -35 61 -69 63 -75 3 -8 19 -4 49 11 25 13
47 26 50 29 3 4 77 41 165 84 246 118 278 133 300 137 40 7 18 30 -100 102
-197 121 -296 188 -334 227 l-37 36 -39 -25 c-22 -14 -71 -49 -108 -80 -37
-30 -69 -53 -71 -51 -20 22 -126 194 -126 205 0 21 -18 26 -28 7z m28 -66 c0
-5 -4 -5 -10 -2 -5 3 -10 14 -10 23 0 15 2 15 10 2 5 -8 10 -19 10 -23z m32
-70 c80 -76 84 -88 45 -118 -130 -97 -130 -97 -187 -49 -76 64 -76 79 6 155
38 35 71 64 74 65 3 0 31 -24 62 -53z m318 38 c11 -13 10 -14 -4 -9 -9 3 -16
10 -16 15 0 13 6 11 20 -6z m22 -39 c79 -35 224 -131 227 -150 1 -9 3 -29 4
-44 1 -16 8 -36 16 -46 8 -9 12 -18 10 -20 -11 -8 -102 -56 -108 -56 -4 0 -15
14 -25 31 -21 35 -21 34 47 70 21 11 43 17 49 13 8 -5 9 -1 5 10 -4 10 -7 23
-7 29 0 6 -10 1 -22 -10 -13 -11 -40 -30 -60 -42 -35 -21 -37 -21 -46 -4 -6
10 -15 37 -21 61 -12 43 -25 53 -35 27 -3 -8 -1 -15 4 -15 6 0 10 -8 10 -17 0
-13 -3 -14 -12 -5 -14 14 -28 16 -28 3 0 -6 12 -16 27 -23 14 -7 30 -23 34
-36 8 -21 4 -25 -31 -40 -35 -15 -40 -21 -40 -49 0 -18 3 -33 8 -33 4 0 25 19
46 41 l39 42 18 -34 c17 -34 17 -34 -7 -42 -23 -8 -23 -9 -6 -32 9 -14 20 -25
25 -25 4 0 23 18 43 40 50 55 100 85 118 71 9 -8 16 -8 20 -2 4 5 2 13 -4 16
-8 5 -7 11 1 21 9 11 7 14 -9 14 -16 0 -24 10 -32 41 -6 23 -10 42 -8 44 2 2
43 -23 93 -55 88 -58 89 -59 63 -69 -15 -6 -94 -42 -175 -82 -81 -39 -170 -80
-198 -91 -27 -11 -55 -24 -60 -28 -6 -5 -33 -8 -61 -7 -50 2 -53 5 -143 92
-81 80 -131 140 -131 159 0 3 18 6 40 6 22 0 40 5 40 10 0 6 -13 10 -30 10
-40 0 -38 12 12 55 43 36 43 36 50 13 3 -13 6 -71 7 -130 l1 -108 105 0 c121
0 110 -12 120 128 3 45 14 105 25 132 l20 50 -88 0 c-117 0 -126 8 -67 54 27
20 53 36 60 36 7 0 37 -11 67 -24z m-32 -135 c0 -26 -3 -76 -7 -111 l-6 -62
-49 5 c-44 6 -48 4 -48 -14 0 -19 4 -20 51 -14 41 6 50 4 47 -6 -3 -10 -29
-15 -91 -17 -73 -2 -87 0 -87 13 0 9 9 15 24 15 37 0 41 17 6 25 -36 8 -40 25
-5 25 14 0 25 5 25 10 0 6 -11 10 -25 10 -18 0 -25 5 -25 19 0 15 8 21 32 23
17 2 33 9 36 17 3 10 -4 12 -32 9 -21 -2 -36 0 -36 7 0 14 67 34 78 23 11 -11
102 1 102 13 0 8 -67 15 -94 10 -22 -4 -66 12 -66 24 0 14 32 20 123 23 l47 2
0 -49z m-193 7 c-3 -8 -6 -5 -6 6 -1 11 2 17 5 13 3 -3 4 -12 1 -19z m-161
-156 c18 -9 53 -37 79 -61 45 -42 47 -45 29 -58 -10 -8 -41 -33 -68 -56 -99
-84 -85 -83 -144 -17 -42 47 -52 65 -52 94 0 20 4 36 8 36 5 0 17 8 28 18 32
29 76 62 83 62 3 -1 20 -9 37 -18z m-176 -104 c0 -16 -3 -19 -11 -11 -6 6 -8
16 -5 22 11 17 16 13 16 -11z m480 -122 c0 -2 -7 -6 -15 -10 -8 -3 -15 -1 -15
4 0 6 7 10 15 10 8 0 15 -2 15 -4z m-330 -40 c0 -3 -4 -8 -10 -11 -5 -3 -10
-1 -10 4 0 6 5 11 10 11 6 0 10 -2 10 -4z"/>
<path d="M583 1323 c-9 -24 10 -30 52 -18 41 13 37 19 -18 28 -19 3 -30 0 -34
-10z"/>
<path d="M573 1262 c-3 -7 -3 -15 -1 -18 8 -7 88 7 88 16 0 15 -82 17 -87 2z"/>
<path d="M1177 1153 c-9 -16 6 -73 18 -73 15 0 30 54 20 70 -7 12 -32 13 -38
3z"/>
<path d="M275 690 c-71 -53 -114 -80 -160 -102 -50 -24 -54 -32 -26 -47 10 -6
28 -25 39 -43 12 -18 33 -48 48 -65 l27 -33 -35 -14 c-19 -8 -48 -17 -64 -19
-27 -3 -29 -7 -29 -44 0 -25 -7 -48 -17 -60 -21 -23 -24 -53 -5 -53 6 0 38
-19 69 -42 50 -37 58 -47 58 -75 0 -41 17 -52 30 -18 5 14 46 62 90 106 64 63
84 78 94 69 8 -6 53 -11 100 -12 65 -1 86 -5 86 -15 0 -16 -141 -19 -171 -3
-15 8 -19 7 -19 -5 0 -11 12 -15 53 -15 28 0 58 -4 66 -9 16 -11 -52 -27 -155
-37 -80 -8 -94 -16 -94 -55 0 -30 9 -36 26 -19 11 11 191 75 299 106 44 12
144 43 223 67 78 25 146 45 150 45 17 2 12 32 -5 33 -10 0 -45 18 -78 39 -56
36 -173 109 -249 155 -44 27 -127 103 -156 143 -13 17 -27 32 -30 32 -5 0 -30
-59 -30 -72 0 -3 19 -13 43 -24 23 -10 47 -22 52 -27 6 -4 30 -21 56 -37 42
-27 45 -32 41 -66 -4 -35 -5 -36 -41 -29 -20 4 -40 7 -46 8 -5 1 -10 -5 -10
-13 0 -10 13 -16 43 -18 34 -3 42 -7 42 -23 0 -18 -6 -19 -81 -15 -109 6 -128
23 -46 40 30 7 37 26 9 26 -26 0 -56 25 -50 41 9 24 6 34 -12 31 -21 -3 -67
93 -72 152 -2 22 -8 41 -13 42 -6 2 -28 -10 -50 -26z m38 -62 c28 -37 67 -112
67 -127 0 -12 -131 -81 -153 -81 -8 0 -28 20 -45 44 -36 50 -42 98 -14 121 27
23 106 75 114 75 4 0 18 -15 31 -32z m163 -5 c-8 -8 -36 10 -36 25 0 13 3 12
20 -3 11 -10 18 -20 16 -22z m-346 -69 c0 -8 -4 -12 -10 -9 -5 3 -10 10 -10
16 0 5 5 9 10 9 6 0 10 -7 10 -16z m629 -139 c7 -7 -51 -65 -65 -65 -6 0 -19
18 -28 40 -18 46 -21 48 -36 19 -10 -17 -7 -24 14 -44 14 -13 26 -28 26 -33 0
-7 -54 -52 -62 -52 -5 0 11 191 17 207 3 9 25 0 67 -27 34 -22 64 -43 67 -45z
m-359 25 c0 -52 -7 -58 -53 -49 -23 4 -45 8 -49 9 -5 0 -8 6 -8 13 0 13 90 66
103 60 4 -3 7 -17 7 -33z m-130 -45 c0 -8 -4 -15 -10 -15 -5 0 -10 7 -10 15 0
8 5 15 10 15 6 0 10 -7 10 -15z m643 -85 c-12 -11 -143 -49 -143 -41 0 3 18
19 40 34 42 30 53 53 21 42 -14 -4 -25 3 -40 24 -12 16 -21 32 -21 35 0 3 34
-15 76 -40 41 -26 72 -50 67 -54z m-623 19 c66 -55 95 -62 36 -8 -20 18 -36
35 -36 38 0 3 22 4 50 3 49 -4 50 -5 50 -35 0 -27 -11 -41 -65 -87 -36 -30
-84 -63 -106 -74 l-40 -19 -30 29 c-27 25 -55 93 -47 114 5 13 102 89 115 90
6 0 39 -23 73 -51z m298 8 c-3 -22 -9 -23 -58 -16 -17 3 -25 -1 -25 -11 0 -10
11 -15 35 -15 19 0 36 -3 38 -7 6 -20 1 -37 -11 -33 -7 3 -42 7 -79 8 -38 2
-71 7 -75 11 -11 11 18 26 50 26 41 0 32 17 -13 25 -40 7 -52 19 -27 28 6 3
47 5 90 5 75 0 78 -1 75 -21z m192 5 l21 -17 -31 -24 -32 -23 -21 21 c-20 20
-20 21 -2 41 22 25 36 25 65 2z m-655 -2 c-3 -5 -10 -10 -16 -10 -5 0 -9 5 -9
10 0 6 7 10 16 10 8 0 12 -4 9 -10z m580 -56 c9 -14 14 -28 10 -32 -3 -3 -30
-14 -60 -23 -54 -16 -55 -16 -55 3 0 15 5 18 20 13 13 -4 20 -2 20 7 0 17 28
58 39 58 5 0 16 -12 26 -26z m-615 -55 c0 -6 -4 -7 -10 -4 -5 3 -10 11 -10 16
0 6 5 7 10 4 6 -3 10 -11 10 -16z m130 -104 c-7 -9 -15 -13 -17 -11 -7 7 7 26
19 26 6 0 6 -6 -2 -15z m95 -5 c-3 -5 -13 -10 -21 -10 -8 0 -12 5 -9 10 3 6
13 10 21 10 8 0 12 -4 9 -10z"/>
<path d="M444 509 c-3 -6 -2 -14 2 -18 11 -10 144 -1 144 9 0 19 -134 27 -146
9z"/>
<path d="M1072 268 c-15 -15 -16 -45 -1 -53 5 -4 19 1 29 10 15 14 17 22 9 36
-11 22 -20 24 -37 7z"/>
<path d="M248 3 c7 -3 16 -2 19 1 4 3 -2 6 -13 5 -11 0 -14 -3 -6 -6z"/>
<path d="M373 3 c9 -2 23 -2 30 0 6 3 -1 5 -18 5 -16 0 -22 -2 -12 -5z"/>
</g>
</svg>
