<?xml version="1.0" standalone="no"?>
<!DOCTYPE svg PUBLIC "-//W3C//DTD SVG 20010904//EN"
 "http://www.w3.org/TR/2001/REC-SVG-20010904/DTD/svg10.dtd">
<svg version="1.0" xmlns="http://www.w3.org/2000/svg"
 width="143.000000pt" height="359.000000pt" viewBox="0 0 143.000000 359.000000"
 preserveAspectRatio="xMidYMid meet">
<metadata>
Created by potrace 1.16, written by Peter Selinger 2001-2019
</metadata>
<g transform="translate(0.000000,359.000000) scale(0.100000,-0.100000)"
fill="#000000" stroke="none">
<path d="M717 3563 c-4 -3 -7 -14 -7 -24 0 -11 -9 -19 -22 -21 -18 -2 -22 -8
-19 -28 9 -61 3 -220 -8 -220 -12 0 -99 150 -145 248 -8 17 -17 32 -20 32 -13
0 -46 -36 -46 -50 0 -17 -59 -77 -153 -155 -45 -38 -56 -52 -51 -68 6 -19 3
-20 -42 -13 -26 3 -53 11 -58 16 -18 18 -27 11 -24 -17 3 -28 4 -28 65 -24 35
1 63 0 63 -3 0 -4 -6 -15 -12 -27 -11 -17 -10 -22 4 -32 9 -7 49 -34 88 -61
44 -31 70 -56 70 -68 0 -31 19 -21 94 48 87 81 144 119 173 115 13 -1 28 1 35
5 7 5 22 10 33 11 20 3 91 11 109 12 6 1 3 7 -6 14 -14 10 -15 25 -7 112 4 55
11 112 14 127 l7 28 109 0 c61 0 108 4 105 8 -3 5 -61 12 -128 16 -136 7 -163
10 -194 20 -11 3 -23 3 -27 -1z m38 -23 c3 -5 -1 -10 -9 -10 -9 0 -16 5 -16
10 0 6 4 10 9 10 6 0 13 -4 16 -10z m-235 -75 c0 -5 -10 0 -21 12 -13 12 -18
26 -14 33 6 9 12 6 21 -11 7 -13 13 -28 14 -34z m258 -32 c-5 -49 -11 -92 -13
-98 -3 -5 -3 19 0 54 3 35 5 79 5 97 0 19 4 34 8 34 4 0 4 -39 0 -87z m44 36
c-5 -85 -14 -139 -24 -139 -7 0 -8 26 -3 78 5 42 8 85 9 95 0 9 5 16 10 14 6
-2 9 -23 8 -48z m-70 -21 c-2 -35 -8 -76 -13 -93 -7 -23 -8 -18 -4 25 3 30 5
72 5 93 0 20 4 37 8 37 5 0 6 -28 4 -62z m-37 -75 c-3 -18 -11 -33 -17 -33
-11 0 -6 72 9 125 8 29 8 28 11 -15 2 -24 1 -59 -3 -77z m-212 69 c15 -15 30
-42 33 -60 7 -34 6 -34 -68 -23 -17 2 -6 31 11 31 11 0 23 5 26 10 4 6 -5 10
-20 10 -14 0 -28 7 -31 15 -16 41 -24 -11 -24 -156 0 -87 -2 -159 -4 -159 -2
0 -11 -3 -19 -6 -19 -7 -107 119 -107 152 0 12 12 39 26 60 26 40 134 154 144
154 4 0 18 -13 33 -28z m136 -197 c0 -10 -78 -69 -84 -63 -2 2 -1 47 2 101 l6
97 38 -62 c21 -35 38 -67 38 -73z m-99 75 c0 -17 -7 -20 -39 -20 -22 0 -43 5
-46 10 -11 19 6 30 46 30 32 0 39 -3 39 -20z m-252 -29 c-8 -12 -18 -18 -21
-14 -4 3 0 15 10 25 21 24 29 15 11 -11z m516 -9 c-8 -29 -22 -29 -19 1 4 41
5 41 15 31 5 -5 7 -19 4 -32z m-94 8 c0 -11 -4 -20 -10 -20 -5 0 -10 9 -10 20
0 11 5 20 10 20 6 0 10 -9 10 -20z m30 -5 c0 -8 -4 -15 -10 -15 -5 0 -10 7
-10 15 0 8 5 15 10 15 6 0 10 -7 10 -15z m30 -6 c0 -11 -4 -18 -10 -14 -5 3
-7 12 -3 20 7 21 13 19 13 -6z m-232 -33 c-2 -2 -22 -1 -45 2 -27 2 -43 9 -43
17 0 9 15 15 43 17 34 2 43 0 45 -15 2 -10 2 -20 0 -21z m167 -6 c-3 -5 -13
-10 -21 -10 -8 0 -12 5 -9 10 3 6 13 10 21 10 8 0 12 -4 9 -10z m-395 -55 c36
-52 29 -57 -17 -15 -20 18 -30 35 -27 45 3 8 8 15 10 15 1 0 17 -20 34 -45z
m230 24 c0 -5 -20 -9 -45 -9 -54 0 -60 17 -7 22 41 4 52 1 52 -13z m-10 -33
c0 -5 -65 -46 -74 -46 -3 0 -6 11 -6 25 0 23 4 25 40 25 22 0 40 -2 40 -4z
m-74 -87 c-15 -12 -30 -18 -33 -15 -8 8 27 35 46 36 7 0 2 -10 -13 -21z"/>
<path d="M1085 3530 c-4 -6 -4 -28 0 -50 4 -22 3 -69 0 -106 l-8 -66 -46 7
c-25 3 -56 9 -69 12 -17 4 -21 2 -16 -11 3 -9 16 -16 28 -15 55 5 106 -2 106
-13 0 -10 -19 -12 -70 -10 -46 2 -70 0 -70 -7 0 -7 26 -11 70 -11 l70 0 0 -77
c0 -86 -4 -97 -39 -108 -30 -9 -14 -25 20 -18 24 4 28 11 33 56 13 117 19 414
8 421 -6 3 -14 2 -17 -4z"/>
<path d="M875 3360 c-3 -5 -3 -15 0 -20 3 -6 -4 -14 -17 -19 l-23 -10 23 0
c25 -1 25 -1 26 -155 l1 -89 43 -1 c24 -1 46 2 48 6 3 5 -11 8 -31 8 -23 0
-38 5 -42 15 -6 17 12 215 23 253 5 19 3 22 -19 22 -14 0 -29 -4 -32 -10z"/>
<path d="M940 3225 c0 -12 14 -15 68 -14 56 1 61 2 32 9 -88 19 -100 20 -100
5z"/>
<path d="M934 3181 c-2 -2 -1 -8 2 -12 7 -12 124 -11 124 0 0 9 -118 20 -126
12z"/>
<path d="M934 3131 c-2 -2 -1 -8 2 -12 7 -12 124 -11 124 0 0 9 -118 20 -126
12z"/>
<path d="M680 3066 c0 -8 -21 -26 -47 -42 -27 -15 -49 -28 -51 -30 -2 -1 3
-13 11 -26 18 -27 55 -171 64 -246 3 -29 10 -55 16 -59 7 -4 8 18 3 68 -10 92
-9 85 -6 196 3 77 7 94 21 98 14 5 73 10 148 14 33 2 -8 19 -70 30 -84 14 -89
14 -89 -3z m-21 -143 l-1 -88 -24 75 c-22 69 -22 76 -7 88 9 6 20 12 25 12 4
0 8 -39 7 -87z"/>
<path d="M860 3030 c0 -11 5 -20 10 -20 6 0 10 4 10 9 0 5 9 11 20 14 27 7 25
-9 -6 -63 -15 -25 -40 -71 -56 -103 -17 -32 -32 -56 -35 -54 -2 3 10 40 27 83
17 42 29 82 27 88 -5 13 -33 -49 -72 -159 -15 -44 -34 -93 -42 -108 -16 -33
-10 -48 12 -26 13 14 155 258 155 267 0 3 6 13 14 21 8 9 18 28 21 44 7 27 6
27 -39 27 -39 0 -46 -3 -46 -20z"/>
<path d="M252 3001 c-12 -27 -17 -29 -48 -24 -30 5 -34 3 -34 -16 0 -17 -5
-22 -22 -19 -21 3 -23 -2 -26 -44 l-3 -48 30 6 c20 4 31 2 31 -5 0 -6 -6 -11
-12 -12 -7 -1 -22 -2 -32 -3 -17 -1 -20 -10 -24 -60 -4 -63 -4 -63 51 -41 16
7 19 3 17 -26 -1 -19 -1 -41 0 -49 2 -23 18 20 19 53 1 22 6 27 25 27 14 0 28
5 31 10 4 6 -7 10 -25 10 -40 0 -36 22 6 31 l29 7 -27 1 c-41 2 -34 21 7 21
19 0 35 5 35 10 0 6 -16 10 -35 10 -24 0 -35 5 -35 15 0 10 10 15 34 15 19 0
38 5 41 10 4 6 -8 10 -29 10 -25 0 -36 4 -36 15 0 10 10 15 31 15 23 0 40 -10
65 -37 19 -20 34 -42 34 -49 0 -15 -74 -113 -139 -183 -76 -83 -49 -82 32 1
40 41 93 87 119 103 27 17 48 34 48 38 0 11 -55 90 -73 105 -8 7 -25 39 -38
72 -13 33 -26 60 -29 60 -3 0 -11 -13 -18 -29z m28 -42 c0 -6 -4 -7 -10 -4 -5
3 -10 11 -10 16 0 6 5 7 10 4 6 -3 10 -11 10 -16z m-30 -19 c0 -5 -7 -7 -15
-4 -8 4 -12 10 -9 15 6 11 24 2 24 -11z m-70 -40 c0 -5 -9 -10 -20 -10 -11 0
-20 5 -20 10 0 6 9 10 20 10 11 0 20 -4 20 -10z m-7 -97 c-7 -2 -19 -2 -25 0
-7 3 -2 5 12 5 14 0 19 -2 13 -5z m207 -1 c0 -10 -22 -32 -32 -32 -5 0 -3 9 4
20 13 20 28 27 28 12z m-200 -32 c0 -5 -10 -10 -22 -9 -22 0 -22 1 -3 9 11 5
21 9 23 9 1 1 2 -3 2 -9z"/>
<path d="M696 3004 c-3 -9 -4 -20 0 -25 7 -11 114 -9 114 2 0 5 -10 9 -22 9
-13 0 -36 7 -52 15 -35 18 -33 18 -40 -1z"/>
<path d="M690 2943 c0 -18 6 -19 58 -15 70 5 94 22 31 22 -24 0 -54 3 -66 6
-18 5 -23 2 -23 -13z"/>
<path d="M690 2893 c0 -15 8 -17 50 -15 57 4 65 16 19 26 -52 10 -69 7 -69
-11z"/>
<path d="M685 2839 c-4 -6 -5 -13 -2 -16 9 -8 87 8 87 18 0 13 -77 11 -85 -2z"/>
<path d="M1182 2750 c0 -47 12 -59 28 -30 15 28 9 64 -12 68 -14 3 -17 -5 -16
-38z"/>
<path d="M444 2460 c-16 -16 -108 -57 -176 -80 -68 -23 -80 -36 -59 -68 6 -11
19 -6 57 21 71 50 132 79 154 72 28 -9 161 -157 156 -172 -7 -17 10 -16 70 2
27 8 73 15 102 15 86 0 59 17 -39 24 -77 6 -93 4 -103 -9 -10 -14 -19 -6 -62
52 -29 37 -57 85 -64 105 -13 42 -22 52 -36 38z m16 -41 c11 -19 10 -20 -10
-9 -11 6 -18 15 -15 21 9 13 13 11 25 -12z m-210 -79 c0 -5 -7 -10 -15 -10 -8
0 -15 5 -15 10 0 6 7 10 15 10 8 0 15 -4 15 -10z"/>
<path d="M849 2453 c-3 -10 -3 -62 -1 -116 4 -87 6 -98 20 -91 10 4 65 10 125
12 102 4 144 17 75 24 -33 3 -33 3 -39 68 l-6 65 -2 -50 c-2 -27 -3 -58 -2
-67 1 -10 -4 -18 -13 -18 -13 0 -14 11 -9 65 4 41 2 65 -4 65 -6 0 -11 -28
-12 -62 -1 -34 -3 -63 -5 -65 -2 -2 -11 0 -20 3 -10 4 -13 10 -8 13 13 8 24
111 12 111 -6 0 -11 -12 -11 -27 l-1 -28 -7 30 c-10 45 -20 17 -16 -43 4 -53
-2 -66 -23 -53 -10 6 -11 26 -6 74 l7 67 51 1 c28 1 122 2 208 3 l157 1 7 -52
c3 -28 3 -56 -1 -62 -3 -6 -38 -11 -81 -11 -41 0 -74 -4 -74 -9 0 -5 34 -9 76
-8 76 0 77 0 80 -26 2 -24 -1 -27 -29 -29 -18 -1 -40 -2 -49 -3 -9 0 -20 -4
-25 -8 -4 -5 17 -7 46 -5 l54 3 3 -42 2 -43 -41 -2 c-115 -6 -129 -8 -98 -17
14 -4 49 -4 79 -1 41 5 55 3 59 -7 3 -8 3 -16 1 -18 -3 -3 -46 -8 -98 -12
l-93 -6 5 116 c4 115 4 117 -16 111 -29 -9 -29 -10 -17 -32 6 -12 11 -59 11
-106 0 -70 -3 -86 -15 -86 -20 0 -20 -39 0 -46 8 -4 21 -2 28 4 12 10 114 25
177 26 l35 1 5 170 c3 112 9 178 18 193 7 12 9 23 5 23 -4 1 -114 2 -243 3
-129 1 -245 5 -256 10 -16 6 -22 3 -25 -11z m28 -135 c-2 -18 -4 -6 -4 27 0
33 2 48 4 33 2 -15 2 -42 0 -60z"/>
<path d="M336 2359 c-28 -22 -33 -42 -16 -62 28 -32 100 -138 100 -146 0 -6
18 2 40 16 22 15 40 31 40 36 0 5 -22 37 -49 71 -26 34 -53 72 -60 84 -15 27
-21 27 -55 1z m94 -91 c0 -5 -15 -8 -32 -8 -27 1 -30 2 -16 11 10 5 15 16 11
25 -5 13 -8 13 -15 2 -7 -10 -11 -10 -15 0 -2 6 -11 12 -19 12 -18 0 -18 9 2
31 16 18 18 16 50 -24 19 -23 34 -45 34 -49z m25 -28 c4 -6 -8 -10 -29 -10
-20 0 -36 5 -36 10 0 6 13 10 29 10 17 0 33 -4 36 -10z m10 -39 c-18 -7 -55
-4 -55 5 0 2 17 4 38 3 28 0 32 -2 17 -8z"/>
<path d="M94 2295 c-10 -25 4 -48 24 -40 34 14 82 18 82 7 0 -6 -4 -14 -10
-17 -20 -12 -9 -34 20 -40 33 -7 148 -79 167 -104 7 -9 13 -24 13 -33 0 -24
27 -23 35 1 3 10 30 42 61 71 30 29 53 54 51 57 -3 2 -33 -14 -67 -36 -35 -23
-68 -41 -73 -41 -13 0 -87 61 -150 123 -30 29 -58 47 -72 47 -13 0 -35 4 -50
10 -20 8 -27 7 -31 -5z m145 -69 c10 -12 8 -13 -8 -9 -12 3 -21 9 -21 14 0 14
16 11 29 -5z"/>
<path d="M1180 2260 c0 -5 5 -10 10 -10 6 0 10 5 10 10 0 6 -4 10 -10 10 -5 0
-10 -4 -10 -10z"/>
<path d="M1174 2179 c-3 -5 22 -9 55 -9 33 0 63 5 66 10 4 6 -16 10 -55 9 -33
-1 -63 -6 -66 -10z"/>
<path d="M322 1992 c-12 -25 -10 -29 18 -52 16 -14 48 -52 70 -85 l40 -60 -28
-23 c-98 -85 -132 -113 -138 -112 -8 0 -6 138 5 245 4 44 7 82 5 84 -10 11
-30 -22 -29 -46 1 -16 0 -20 -2 -10 -2 9 -11 17 -20 17 -11 0 -13 -5 -8 -17
12 -28 28 -113 23 -119 -3 -2 -31 -1 -62 2 -66 8 -57 24 14 24 56 0 42 18 -19
22 -50 3 -70 28 -24 29 15 0 37 4 48 8 16 7 9 11 -34 20 -30 6 -56 9 -59 7 -6
-7 -3 -217 4 -227 3 -5 0 -9 -5 -9 -14 0 -14 -37 0 -46 6 -3 16 -1 22 5 17 17
117 14 117 -3 0 -16 32 -76 41 -76 3 0 16 25 28 55 17 40 38 68 78 102 l55 47
18 -24 c21 -28 40 -19 22 10 -18 29 -15 37 18 57 17 9 30 23 30 30 0 20 -14
16 -40 -12 -13 -14 -28 -25 -34 -25 -16 0 -92 120 -107 169 -14 48 -29 52 -47
13z m-62 -222 c0 -30 0 -30 -57 -30 -49 1 -55 2 -38 12 11 7 35 11 52 10 19
-2 33 2 33 8 0 7 -17 11 -42 10 -59 -2 -65 -1 -48 10 8 5 34 10 58 10 40 0 42
-1 42 -30z m-5 -70 c0 -10 -12 -16 -34 -18 -69 -7 -114 22 -48 31 55 7 82 3
82 -13z m58 -71 c-4 -13 -9 -17 -15 -11 -11 11 -3 32 12 32 4 0 6 -9 3 -21z"/>
<path d="M847 1964 c-4 -4 -7 -16 -7 -26 0 -14 8 -18 34 -18 69 0 126 -12 126
-28 0 -12 -12 -13 -62 -9 -35 3 -70 7 -78 9 -8 2 -17 -1 -20 -7 -3 -5 9 -11
25 -13 85 -7 115 -14 115 -27 0 -8 -17 -41 -37 -74 l-38 -59 -47 5 c-40 4 -48
2 -48 -12 0 -14 7 -16 40 -10 22 4 40 4 40 0 0 -3 -16 -31 -36 -63 l-36 -56
-29 79 c-21 58 -29 97 -29 147 0 37 -2 68 -3 68 -4 0 -70 -31 -76 -36 -2 -2 6
-14 17 -28 19 -25 102 -224 102 -246 0 -20 19 -10 45 24 14 18 49 72 78 119
29 48 76 116 105 152 28 36 52 69 52 74 0 5 -23 7 -51 6 -44 -3 -114 10 -160
29 -8 4 -18 3 -22 0z m185 -66 c-7 -7 -12 -8 -12 -2 0 14 12 26 19 19 2 -3 -1
-11 -7 -17z m-292 -85 c-1 -24 -2 -26 -11 -10 -5 9 -7 22 -4 27 10 17 15 11
15 -17z"/>
<path d="M833 1846 c3 -10 117 -28 126 -20 9 9 -8 14 -68 22 -43 6 -61 6 -58
-2z"/>
<path d="M820 1800 c0 -5 17 -11 38 -12 20 0 44 -2 52 -3 25 -2 35 8 14 16
-28 11 -104 11 -104 -1z"/>
<path d="M815 1761 c-3 -7 3 -11 17 -12 13 -1 35 -3 51 -5 15 -1 27 1 27 7 0
5 -13 9 -29 9 -16 0 -36 3 -44 6 -8 3 -18 1 -22 -5z"/>
<path d="M1280 1666 c0 -8 4 -17 9 -20 5 -3 7 -15 4 -26 -3 -11 0 -20 6 -20
16 0 35 45 28 64 -8 20 -47 21 -47 2z"/>
<path d="M348 1399 c-17 -29 -17 -29 17 -56 19 -16 35 -31 35 -35 0 -11 -34
-15 -61 -6 -21 7 -38 2 -88 -28 -43 -25 -60 -42 -56 -52 5 -14 5 -14 -80 0
-16 2 -21 -3 -23 -26 -3 -27 -2 -28 23 -22 78 20 84 19 78 -2 -4 -17 1 -23 21
-28 14 -3 44 -26 66 -51 32 -36 38 -49 30 -63 -7 -13 -6 -28 1 -47 10 -27 11
-28 25 -8 47 65 140 168 163 179 14 8 45 17 69 21 39 6 42 5 42 -16 0 -12 3
-19 7 -16 3 4 15 0 25 -10 23 -21 36 -10 14 13 -9 9 -15 18 -13 20 8 9 36 -8
40 -24 3 -10 5 0 6 21 0 20 6 37 12 37 6 0 9 -15 7 -37 -2 -29 1 -38 15 -41
12 -2 17 3 17 17 0 12 -4 21 -10 21 -5 0 -10 10 -10 23 0 16 3 18 9 9 7 -11 9
-11 14 2 8 21 35 21 39 0 2 -9 2 -50 0 -91 l-4 -75 -29 6 c-27 5 -29 3 -29
-24 0 -31 9 -37 27 -19 5 5 48 13 94 17 l84 7 2 104 c1 58 4 110 7 116 6 17
48 13 54 -4 3 -10 -1 -12 -17 -8 -11 3 -21 1 -21 -4 0 -5 9 -9 21 -9 11 0 18
-4 14 -10 -3 -5 -12 -7 -19 -4 -8 3 -17 1 -21 -5 -3 -7 2 -11 14 -11 12 0 21
-4 21 -10 0 -5 -9 -10 -21 -10 -11 0 -18 -4 -14 -10 3 -5 12 -7 20 -3 8 3 15
0 15 -6 0 -6 -7 -11 -15 -11 -8 0 -15 -4 -15 -10 0 -5 7 -10 15 -10 24 0 20
-82 -5 -105 -11 -10 -17 -22 -14 -27 3 -5 36 18 72 49 37 32 86 71 110 86 l42
27 10 -24 c5 -13 12 -40 16 -60 3 -20 10 -36 14 -34 12 5 180 259 180 272 0 8
-21 12 -67 12 -38 -1 -83 2 -100 6 -30 7 -33 5 -33 -15 0 -40 22 -59 63 -55
21 2 37 8 37 13 -1 6 -9 9 -20 7 -10 -2 -21 2 -25 8 -4 6 9 10 34 10 39 0 40
0 30 -28 -9 -25 -13 -27 -54 -24 -28 3 -45 0 -45 -7 0 -6 19 -11 45 -11 l46 0
-16 -30 c-10 -19 -24 -30 -38 -31 -17 -1 -18 -2 -4 -6 9 -2 17 -9 17 -14 0
-14 -31 -59 -40 -59 -11 0 -27 71 -35 153 -7 68 -8 68 -34 62 -37 -9 -37 -11
-13 -58 l21 -42 -6 45 c-4 31 -2 42 5 35 13 -13 17 -64 6 -90 -8 -21 -43 -54
-57 -55 -4 0 3 14 15 31 15 20 19 32 11 37 -13 8 -39 67 -60 137 -13 43 -17
47 -28 32 -7 -9 -24 -17 -39 -17 -14 0 -26 -4 -26 -10 0 -5 7 -10 15 -10 9 0
15 -9 15 -24 0 -25 -25 -38 -58 -29 -16 4 -18 11 -12 46 4 23 9 49 11 57 3 10
-5 16 -23 18 -21 3 -28 -1 -28 -13 0 -13 -6 -16 -22 -12 -13 3 -59 9 -103 12
-44 3 -92 8 -107 11 -16 3 -29 0 -35 -9 -4 -7 -16 -17 -27 -20 -12 -5 -16 -13
-12 -24 4 -9 9 -43 13 -75 l6 -58 -56 0 c-49 0 -58 3 -80 29 -32 39 -97 155
-97 175 0 27 -15 25 -32 -5z m565 -63 c7 -11 1 -199 -9 -268 -6 -38 -6 -38
-55 -38 -32 0 -49 4 -50 13 -2 25 2 93 7 128 5 33 8 36 41 37 20 1 38 4 41 7
13 13 -15 20 -74 17 -62 -2 -64 -2 -64 22 0 35 -20 43 -21 9 -2 -23 -2 -24 -6
-5 -5 23 -23 31 -23 10 0 -9 -4 -8 -10 2 -8 12 -10 8 -11 -15 -2 -30 -2 -30
-9 5 -6 31 -8 32 -9 8 0 -15 -4 -29 -9 -31 -9 -7 -8 90 2 100 9 9 166 20 216
14 19 -2 38 -9 43 -15z m155 -44 c9 -26 8 -28 -19 -30 -32 -3 -34 2 -17 40 15
31 22 29 36 -10z m-759 -119 c1 -40 -2 -73 -7 -73 -4 0 -18 18 -32 40 -14 22
-28 40 -32 40 -20 0 -5 45 24 72 29 27 33 28 39 11 4 -10 8 -51 8 -90z m1051
100 c-1 -10 -39 -60 -40 -51 0 14 23 58 32 58 4 0 8 -3 8 -7z m-966 -12 c3 -5
3 -43 -1 -85 l-6 -76 -36 1 -36 1 28 11 c32 13 36 27 7 27 -25 0 -26 16 -1 23
14 3 18 12 15 33 -1 16 2 32 9 36 6 4 0 9 -16 13 -15 4 -24 11 -21 16 7 12 51
12 58 0z m64 -37 c12 -20 22 -39 22 -43 0 -4 -16 -22 -35 -41 l-35 -34 0 40
c0 50 11 114 19 114 3 -1 16 -17 29 -36z m626 -7 c15 -19 26 -40 26 -47 0 -22
-102 -133 -111 -119 -11 19 1 82 19 97 10 8 12 12 3 12 -8 0 -11 13 -7 43 2
23 5 43 5 45 1 1 10 2 20 2 11 0 31 -15 45 -33z m-407 -39 c-3 -7 -5 -2 -5 12
0 14 2 19 5 13 2 -7 2 -19 0 -25z m-317 -113 c-7 -8 -16 -12 -21 -9 -13 8 -1
24 18 24 13 0 13 -3 3 -15z"/>
<path d="M825 1180 c3 -6 18 -8 32 -6 40 8 40 16 -1 16 -22 0 -35 -4 -31 -10z"/>
<path d="M820 1144 c0 -12 6 -15 23 -10 12 3 29 6 37 7 10 0 8 3 -5 9 -32 14
-55 11 -55 -6z"/>
<path d="M820 1104 c0 -12 6 -15 23 -10 12 3 28 6 35 6 7 0 10 5 7 10 -11 17
-65 12 -65 -6z"/>
<path d="M345 1320 c-3 -5 -1 -10 4 -10 6 0 11 5 11 10 0 6 -2 10 -4 10 -3 0
-8 -4 -11 -10z"/>
<path d="M1228 1173 c6 -2 18 -2 25 0 6 3 1 5 -13 5 -14 0 -19 -2 -12 -5z"/>
<path d="M1342 1027 c-6 -7 -7 -18 -3 -26 5 -7 6 -22 4 -32 -4 -13 0 -19 11
-19 27 0 36 78 10 87 -6 2 -16 -2 -22 -10z"/>
<path d="M698 778 c-2 -17 -9 -22 -27 -20 -21 2 -22 -1 -16 -25 8 -29 9 -51 7
-117 l-2 -38 -66 7 c-57 6 -75 13 -128 52 -33 25 -83 65 -109 89 -26 24 -52
44 -56 44 -11 0 -32 -50 -26 -61 4 -5 11 -9 16 -9 5 0 26 -7 47 -17 l37 -16
-30 -7 c-43 -9 -69 -1 -54 16 25 30 -18 13 -65 -26 -27 -23 -56 -45 -65 -50
-13 -7 -14 -12 -3 -30 10 -17 9 -25 -5 -47 -15 -22 -15 -27 -3 -31 29 -10 120
-105 132 -138 7 -19 14 -34 18 -34 3 0 16 16 30 36 14 19 65 68 114 109 79 66
94 75 142 81 30 3 63 4 74 1 10 -3 21 0 24 7 2 6 5 -4 5 -21 1 -38 21 -46 21
-9 0 14 5 28 10 31 6 4 10 -5 10 -19 0 -35 20 -33 21 2 0 16 3 21 6 12 6 -16
23 -30 36 -30 4 0 7 15 7 33 0 18 5 38 12 45 9 9 9 12 0 12 -8 0 -12 17 -12
44 0 39 -3 45 -20 43 -17 -1 -20 -9 -22 -47 l-1 -45 -6 45 c-3 25 -10 43 -15
42 -14 -6 -30 28 -19 39 6 6 65 13 131 16 67 3 122 10 122 15 0 4 -46 8 -102
8 -70 1 -111 5 -128 15 -34 19 -38 19 -42 -7z m-378 -53 c11 -13 10 -14 -4 -9
-9 3 -16 10 -16 15 0 13 6 11 20 -6z m380 -72 c0 -27 -4 -43 -9 -37 -8 8 -4
84 5 84 2 0 4 -21 4 -47z m-245 -33 c22 -17 48 -33 58 -36 25 -9 21 -20 -20
-51 -21 -15 -40 -30 -43 -33 -3 -3 -18 -14 -34 -24 l-29 -18 7 32 c3 18 6 61
6 96 0 35 3 64 8 64 4 -1 25 -14 47 -30z m-195 -70 c1 -36 1 -78 0 -95 l-1
-30 -23 29 c-13 15 -29 46 -36 67 -12 36 -11 41 15 79 35 50 43 41 45 -50z
m109 -21 l1 -65 -45 -3 -45 -2 0 69 c0 75 11 99 50 104 31 4 38 -14 39 -103z
m-10 -92 c-49 -39 -67 -46 -79 -32 -10 11 -6 16 22 24 33 9 65 14 57 8z m-29
-51 c0 -2 -8 -10 -17 -17 -16 -13 -17 -12 -4 4 13 16 21 21 21 13z"/>
<path d="M320 612 c-8 -4 -16 -15 -18 -24 -2 -14 4 -18 28 -18 34 0 42 19 8
21 -17 1 -19 2 -5 6 9 2 17 9 17 14 0 10 -8 11 -30 1z"/>
<path d="M310 540 c0 -5 11 -10 25 -10 14 0 25 5 25 10 0 6 -11 10 -25 10 -14
0 -25 -4 -25 -10z"/>
<path d="M293 498 c2 -7 9 -13 15 -12 7 1 21 2 32 3 35 2 21 21 -16 21 -24 0
-34 -4 -31 -12z"/>
<path d="M999 585 l3 -185 -38 -1 c-22 0 -49 -2 -61 -5 -22 -4 -23 -1 -22 54
0 31 4 80 8 107 10 60 9 64 -24 57 -19 -3 -24 -9 -20 -21 4 -9 9 -55 12 -103
l6 -88 -37 0 c-35 0 -36 -1 -30 -27 9 -37 11 -38 29 -23 8 7 55 15 105 18 l90
5 0 104 0 104 31 -18 c17 -10 62 -51 100 -92 39 -40 73 -70 77 -66 4 4 1 10
-5 12 -7 3 -13 10 -13 17 0 7 -14 25 -30 41 -17 16 -49 63 -72 105 -22 41 -42
77 -44 79 -2 2 -13 -4 -23 -13 -19 -18 -19 -17 -6 41 19 80 19 83 -13 83 l-27
0 4 -185z m31 158 c0 -5 -5 -15 -10 -23 -8 -12 -10 -11 -10 8 0 12 5 22 10 22
6 0 10 -3 10 -7z m58 -169 c-10 -9 -51 33 -44 45 5 8 14 4 28 -14 11 -14 18
-28 16 -31z"/>
<path d="M1080 688 c0 -15 4 -28 9 -28 22 0 111 24 111 30 0 3 -27 11 -60 16
l-60 10 0 -28z"/>
<path d="M1260 713 l-26 -4 4 -182 c2 -100 6 -184 8 -186 9 -10 12 11 17 134
4 95 11 144 25 182 18 47 19 66 3 62 -3 -1 -17 -4 -31 -6z m13 -43 c-3 -11 -9
-17 -14 -14 -14 8 -10 34 5 34 9 0 12 -7 9 -20z"/>
<path d="M906 672 c-3 -3 -6 -14 -6 -24 0 -17 5 -19 33 -13 26 6 62 25 46 25
-2 0 -18 4 -36 9 -17 5 -34 7 -37 3z"/>
<path d="M540 624 c0 -8 5 -12 10 -9 6 4 8 11 5 16 -9 14 -15 11 -15 -7z"/>
<path d="M1117 634 c-13 -13 5 -24 38 -24 41 0 67 9 59 21 -6 10 -87 12 -97 3z"/>
<path d="M920 586 c0 -12 9 -16 35 -16 19 0 35 5 35 10 0 6 -6 10 -12 10 -7 0
-23 3 -35 6 -17 5 -23 2 -23 -10z"/>
<path d="M45 575 c-3 -8 -7 -22 -10 -31 -4 -13 0 -15 17 -11 13 3 40 9 61 12
45 9 49 25 6 25 -17 0 -39 5 -50 10 -15 9 -20 7 -24 -5z"/>
<path d="M1150 581 c0 -10 50 -25 57 -17 3 2 2 9 -2 15 -8 13 -55 15 -55 2z"/>
<path d="M937 544 c-15 -15 -6 -24 23 -24 17 0 30 5 30 10 0 6 -4 10 -9 10 -5
0 -16 2 -23 5 -8 3 -17 2 -21 -1z"/>
<path d="M1170 520 c0 -5 9 -10 19 -10 11 0 23 5 26 10 4 6 -5 10 -19 10 -14
0 -26 -4 -26 -10z"/>
<path d="M937 493 c-26 -7 -10 -23 24 -23 31 0 39 14 13 24 -9 3 -16 5 -17 5
-1 -1 -10 -3 -20 -6z"/>
<path d="M500 380 c-13 -18 -26 -27 -35 -23 -8 3 -15 0 -15 -6 0 -6 -19 -11
-46 -11 -27 0 -43 -4 -39 -10 3 -5 26 -10 51 -10 26 0 44 -5 44 -11 0 -8 -15
-10 -45 -7 -25 3 -45 2 -45 -3 0 -5 21 -9 48 -10 33 0 41 -3 27 -8 -11 -4 -32
-6 -47 -5 -34 4 -39 -22 -5 -29 l22 -4 -22 -2 c-13 0 -23 -6 -23 -11 0 -7 19
-8 50 -5 30 4 50 2 50 -4 0 -9 -24 -15 -88 -24 -7 -1 -13 -6 -12 -11 0 -6 22
-9 49 -7 l49 2 7 -50 c4 -28 11 -53 15 -56 4 -3 17 11 29 30 19 32 126 111
175 129 14 5 16 10 8 18 -8 8 -15 8 -25 -1 -12 -9 -24 -2 -62 41 -26 29 -55
68 -63 86 -9 17 -19 32 -23 32 -4 0 -17 -13 -29 -30z m97 -102 c24 -23 43 -45
43 -48 0 -4 -27 -19 -60 -34 -33 -15 -61 -32 -61 -37 -2 -9 -5 -23 -9 -36 -1
-5 -5 3 -9 17 -5 17 -3 31 7 43 14 15 13 17 -2 17 -25 0 -14 23 15 31 23 7 23
7 2 8 -29 1 -38 17 -13 24 23 6 27 37 5 37 -8 0 -15 5 -15 10 0 6 12 10 27 10
19 0 41 -14 70 -42z m-133 -29 c-6 -11 -44 -12 -44 -1 0 4 11 8 25 8 14 1 22
-2 19 -7z"/>
<path d="M1364 375 c-8 -21 3 -45 20 -45 20 0 29 16 21 40 -7 23 -33 27 -41 5z"/>
</g>
</svg>
