<?xml version="1.0" standalone="no"?>
<!DOCTYPE svg PUBLIC "-//W3C//DTD SVG 20010904//EN"
 "http://www.w3.org/TR/2001/REC-SVG-20010904/DTD/svg10.dtd">
<svg version="1.0" xmlns="http://www.w3.org/2000/svg"
 width="124.000000pt" height="68.000000pt" viewBox="0 0 124.000000 68.000000"
 preserveAspectRatio="xMidYMid meet">
<metadata>
Created by potrace 1.16, written by Peter Selinger 2001-2019
</metadata>
<g transform="translate(0.000000,68.000000) scale(0.100000,-0.100000)"
fill="#000000" stroke="none">
<path d="M740 611 c-14 -27 -13 -41 4 -41 8 0 38 -21 66 -47 59 -54 61 -39
-23 -132 -32 -36 -41 -40 -53 -30 -19 16 -34 -3 -33 -41 0 -21 12 -31 80 -63
43 -22 79 -42 79 -46 0 -3 -9 -11 -19 -16 -11 -6 -45 -25 -76 -44 -31 -18 -59
-30 -63 -26 -4 4 -7 110 -7 236 0 126 -2 229 -5 229 -3 0 -16 -9 -29 -19 -23
-18 -24 -21 -13 -77 7 -33 17 -137 23 -233 8 -125 15 -181 26 -198 15 -23 33
-31 33 -14 0 16 83 103 123 128 30 19 45 23 60 16 15 -7 35 -4 69 9 27 10 66
18 87 18 52 0 101 11 101 22 0 5 -39 8 -92 6 -51 -2 -112 1 -135 5 -36 7 -43
6 -43 -7 0 -20 -3 -20 -43 0 -43 22 -87 64 -87 83 1 9 27 43 59 77 45 48 60
58 67 47 7 -12 14 -12 39 -2 17 7 71 15 120 18 116 8 114 26 -3 27 -48 0 -104
4 -124 8 -29 6 -38 5 -38 -5 0 -19 -87 69 -101 103 -13 33 -34 36 -49 9z m-63
-98 c-3 -10 -5 -4 -5 12 0 17 2 24 5 18 2 -7 2 -21 0 -30z m263 -27 c0 -3 -4
-8 -10 -11 -5 -3 -10 -1 -10 4 0 6 5 11 10 11 6 0 10 -2 10 -4z m-200 -171
c11 -13 10 -14 -4 -9 -9 3 -16 10 -16 15 0 13 6 11 20 -6z m210 -95 c0 -5 -4
-10 -10 -10 -5 0 -10 5 -10 10 0 6 5 10 10 10 6 0 10 -4 10 -10z m-215 -130
c-3 -5 -10 -10 -16 -10 -5 0 -9 5 -9 10 0 6 7 10 16 10 8 0 12 -4 9 -10z"/>
<path d="M147 582 c-27 -29 -21 -38 46 -71 74 -36 107 -64 107 -91 0 -24 1
-24 48 -4 20 9 70 19 111 22 46 4 76 12 79 19 3 10 -24 13 -113 12 -110 0
-118 1 -150 26 -19 14 -49 44 -67 65 -36 46 -39 47 -61 22z m39 -39 c-7 -7
-26 7 -26 19 0 6 6 6 15 -2 9 -7 13 -15 11 -17z m154 -97 c0 -3 -4 -8 -10 -11
-5 -3 -10 -1 -10 4 0 6 5 11 10 11 6 0 10 -2 10 -4z"/>
<path d="M82 547 c-17 -8 -22 -16 -17 -31 15 -55 24 -134 30 -275 6 -134 9
-156 27 -175 l19 -21 22 27 c12 15 30 38 40 53 10 14 36 37 58 52 38 25 40 25
53 8 12 -17 16 -18 47 -3 26 13 150 38 183 38 3 0 6 4 6 8 0 11 -233 9 -241
-2 -8 -10 -25 2 -88 55 l-42 37 56 47 c51 44 66 65 47 65 -5 0 -31 -20 -60
-44 -37 -32 -57 -43 -73 -39 -12 4 -25 0 -30 -8 -12 -20 -12 117 1 161 13 44
-3 63 -38 47z m15 -39 c-3 -8 -6 -5 -6 6 -1 11 2 17 5 13 3 -3 4 -12 1 -19z
m57 -222 c18 -8 52 -27 74 -44 l42 -30 -25 -16 c-35 -23 -118 -67 -120 -64 -5
6 -13 168 -9 168 3 0 20 -6 38 -14z m6 -181 c-7 -9 -15 -13 -17 -11 -7 7 7 26
19 26 6 0 6 -6 -2 -15z"/>
<path d="M1170 170 c0 -23 4 -30 20 -30 16 0 20 7 20 30 0 23 -4 30 -20 30
-16 0 -20 -7 -20 -30z"/>
</g>
</svg>
