<?xml version="1.0" standalone="no"?>
<!DOCTYPE svg PUBLIC "-//W3C//DTD SVG 20010904//EN"
 "http://www.w3.org/TR/2001/REC-SVG-20010904/DTD/svg10.dtd">
<svg version="1.0" xmlns="http://www.w3.org/2000/svg"
 width="153.000000pt" height="117.000000pt" viewBox="0 0 153.000000 117.000000"
 preserveAspectRatio="xMidYMid meet">
<metadata>
Created by potrace 1.16, written by Peter Selinger 2001-2019
</metadata>
<g transform="translate(0.000000,117.000000) scale(0.100000,-0.100000)"
fill="#000000" stroke="none">
<path d="M385 1120 c-6 -29 -41 -77 -123 -170 l-39 -44 -34 39 c-19 22 -48 55
-65 74 l-32 35 -16 -38 c-9 -21 -13 -42 -11 -47 3 -4 32 -20 65 -35 85 -38 88
-44 38 -90 -24 -22 -55 -49 -70 -61 -16 -11 -28 -25 -28 -29 1 -10 60 -78 64
-72 1 1 8 21 15 43 8 22 29 64 48 92 l35 53 64 -57 c39 -35 64 -65 64 -77 0
-12 7 -29 15 -40 13 -17 20 -13 117 71 57 49 127 106 156 127 54 39 61 50 38
59 -24 9 -178 114 -231 156 -27 23 -53 41 -57 41 -3 0 -9 -14 -13 -30z m86
-50 c57 -45 57 -49 -1 -20 -22 11 -46 20 -55 20 -15 0 -21 21 -8 33 10 10 9
10 64 -33z m37 -61 c53 -23 110 -48 126 -56 27 -14 27 -15 9 -31 -48 -44 -232
-152 -255 -152 -7 1 -42 27 -77 60 l-64 59 29 38 c50 66 106 123 121 123 8 0
58 -19 111 -41z m-369 -36 c13 -11 13 -13 0 -13 -22 1 -52 27 -44 40 5 9 10 8
19 -2 6 -7 17 -19 25 -25z m-2 -213 c-7 -19 -15 -26 -21 -20 -6 6 -3 17 9 30
24 27 25 25 12 -10z m288 -20 c-25 -26 -45 -31 -45 -11 0 6 55 38 69 40 3 1
-8 -12 -24 -29z"/>
<path d="M826 1045 c-9 -13 -16 -27 -16 -31 0 -4 25 -31 57 -61 64 -60 66 -51
-30 -114 -32 -21 -46 -37 -43 -48 2 -9 7 -28 10 -43 9 -38 20 -35 40 10 22 49
90 127 103 119 6 -4 39 -47 74 -97 35 -49 67 -90 70 -90 4 0 9 13 12 29 8 39
173 194 198 186 10 -4 51 -24 90 -46 81 -44 79 -43 79 -26 0 7 -36 31 -81 52
l-81 40 56 50 c31 27 56 56 56 63 0 19 -10 15 -50 -25 -80 -81 -74 -80 -138
-32 -31 23 -69 53 -84 67 l-28 26 -32 -29 c-18 -17 -57 -52 -85 -79 -29 -28
-54 -48 -56 -45 -2 2 -25 37 -51 77 -26 39 -49 72 -51 72 -1 0 -10 -11 -19
-25z m334 -41 c0 -2 -9 0 -20 6 -11 6 -20 13 -20 16 0 2 9 0 20 -6 11 -6 20
-13 20 -16z m-286 -9 c23 -36 20 -42 -9 -15 -26 24 -32 40 -16 40 5 0 16 -11
25 -25z m293 -18 c95 -37 107 -52 68 -84 -77 -63 -159 -123 -166 -121 -4 2
-30 31 -58 66 l-50 63 62 58 c34 33 64 56 67 52 3 -4 37 -19 77 -34z m-331
-189 c-11 -15 -16 -18 -16 -7 0 16 21 42 28 34 2 -2 -3 -14 -12 -27z"/>
<path d="M677 783 c-3 -5 -5 -25 -5 -45 0 -47 20 -51 38 -8 10 24 10 33 0 45
-14 16 -26 19 -33 8z"/>
<path d="M1446 693 c8 -46 12 -52 25 -33 15 23 6 64 -14 68 -16 3 -17 -1 -11
-35z"/>
<path d="M312 580 l-34 -39 29 -7 c15 -4 48 -15 73 -26 113 -49 188 -84 218
-101 l33 -19 -68 -72 c-37 -39 -97 -102 -134 -140 l-68 -69 22 -28 c12 -15 24
-28 27 -28 3 0 27 38 54 84 37 64 131 190 182 244 1 2 18 -6 37 -18 40 -25 47
-26 47 -7 0 7 -13 19 -30 26 -16 7 -30 19 -30 27 0 10 -6 12 -20 8 -24 -7 -85
32 -212 134 -48 39 -89 71 -90 70 -2 0 -18 -18 -36 -39z m91 -31 c21 -17 36
-34 33 -37 -3 -2 -11 0 -18 5 -7 6 -30 16 -50 22 -37 12 -45 21 -31 34 12 13
29 7 66 -24z m30 -424 c-17 -35 -33 -46 -33 -23 0 10 38 58 47 58 1 0 -5 -16
-14 -35z"/>
<path d="M57 446 l-25 -44 37 -7 c39 -7 141 -54 141 -65 0 -9 -118 -113 -146
-128 -13 -7 -24 -15 -24 -18 0 -10 33 -54 40 -54 5 0 19 20 31 44 30 61 115
144 133 131 75 -55 167 -115 177 -115 21 0 -12 30 -91 83 -41 27 -77 51 -79
53 -2 2 26 35 63 74 89 95 84 113 -7 22 -40 -39 -80 -72 -89 -72 -18 0 -118
108 -118 128 0 25 -19 11 -43 -32z m63 -37 c0 -5 -11 -4 -24 2 -15 7 -22 17
-19 26 5 11 9 11 24 -3 11 -9 19 -21 19 -25z m-30 -229 c0 -5 -4 -10 -10 -10
-5 0 -10 5 -10 10 0 6 5 10 10 10 6 0 10 -4 10 -10z"/>
<path d="M753 263 c-19 -7 -16 -40 4 -47 21 -8 36 6 31 30 -3 19 -16 25 -35
17z"/>
<path d="M15 10 c-4 -7 260 -10 756 -10 419 0 760 2 758 4 -10 10 -1508 15
-1514 6z"/>
</g>
</svg>
