<?xml version="1.0" standalone="no"?>
<!DOCTYPE svg PUBLIC "-//W3C//DTD SVG 20010904//EN"
 "http://www.w3.org/TR/2001/REC-SVG-20010904/DTD/svg10.dtd">
<svg version="1.0" xmlns="http://www.w3.org/2000/svg"
 width="122.000000pt" height="350.000000pt" viewBox="0 0 122.000000 350.000000"
 preserveAspectRatio="xMidYMid meet">
<metadata>
Created by potrace 1.16, written by Peter Selinger 2001-2019
</metadata>
<g transform="translate(0.000000,350.000000) scale(0.100000,-0.100000)"
fill="#000000" stroke="none">
<path d="M593 3449 c-25 -25 -187 -109 -211 -109 -10 0 -22 -4 -27 -9 -6 -5
-21 -11 -35 -13 -16 -2 -24 -9 -22 -19 2 -14 -7 -16 -70 -12 -74 5 -158 33
-158 52 0 6 -4 11 -9 11 -8 0 -21 -138 -14 -149 1 -2 15 6 32 18 73 53 219 69
252 28 15 -19 17 -18 45 21 29 40 165 132 197 132 67 0 219 -142 302 -284 30
-49 56 -83 59 -77 4 6 -9 37 -29 70 l-36 58 21 39 c12 22 31 47 42 57 32 27
16 30 -62 11 l-71 -17 -67 73 c-37 40 -75 86 -85 101 -20 31 -36 36 -54 18z
m32 -30 c10 -14 1 -21 -19 -13 -9 3 -13 10 -10 15 7 12 21 11 29 -2z m-236
-106 c-34 -43 -40 -47 -50 -32 -6 10 1 19 24 31 41 22 42 22 26 1z m-280 -26
l32 -13 -26 -12 c-37 -17 -45 -15 -45 13 0 29 -1 29 39 12z m769 -62 c-19 -33
-21 -34 -34 -18 -21 29 -16 41 19 46 17 2 33 5 34 5 1 1 -7 -14 -19 -33z"/>
<path d="M556 3245 c-33 -43 -56 -44 -96 -5 -36 35 -48 33 -42 -8 3 -22 -4
-38 -28 -66 -46 -51 -65 -59 -150 -62 -89 -3 -143 9 -169 37 -22 24 -41 8 -20
-17 7 -9 13 -38 13 -65 0 -27 2 -49 5 -49 3 0 17 11 29 25 30 31 76 44 172 47
67 2 82 -1 145 -32 39 -18 96 -51 129 -72 32 -21 59 -37 60 -36 1 2 12 19 23
38 12 19 61 73 108 121 50 49 84 92 81 98 -5 8 -41 9 -118 5 l-111 -7 7 41 c8
51 -3 53 -38 7z m14 -30 c0 -8 -7 -15 -16 -15 -14 0 -14 3 -4 15 7 8 14 15 16
15 2 0 4 -7 4 -15z m-98 -9 c16 -12 16 -14 -8 -25 -31 -14 -38 -10 -29 18 7
24 13 25 37 7z m253 -87 c-43 -44 -89 -80 -120 -94 l-50 -23 -77 40 c-55 28
-78 45 -78 58 0 24 42 57 93 72 37 11 41 10 61 -13 11 -13 28 -36 37 -49 9
-14 20 -22 24 -18 4 4 -2 20 -13 35 -34 48 -20 54 148 61 l44 2 -69 -71z
m-335 4 c-1 -18 -19 -35 -29 -28 -9 5 -7 11 6 21 21 16 23 16 23 7z m-267 -32
c17 -6 16 -8 -7 -19 -23 -10 -26 -9 -26 8 0 21 4 23 33 11z m487 -106 c-7 -8
-17 -12 -23 -8 -6 4 -3 11 8 19 23 17 32 10 15 -11z"/>
<path d="M1055 2998 c4 -24 9 -45 12 -48 9 -10 33 35 33 62 0 23 -4 28 -26 28
-25 0 -25 -2 -19 -42z"/>
<path d="M708 2901 c-50 -32 -67 -51 -45 -51 11 0 43 -71 34 -75 -1 -1 -40
-26 -87 -57 -140 -92 -148 -95 -298 -101 -126 -4 -136 -3 -180 19 -26 13 -48
24 -49 24 -5 0 -23 -104 -18 -108 3 -3 15 0 28 6 44 22 104 31 222 34 l119 3
10 -27 c8 -23 6 -32 -13 -51 -21 -24 -26 -24 -170 -23 -132 1 -151 3 -170 20
-25 23 -40 13 -23 -14 15 -25 15 -63 0 -78 -25 -25 4 -24 30 1 42 40 70 46
224 48 152 2 193 -5 268 -46 25 -14 60 -32 79 -41 l34 -15 -37 -31 -37 -31 33
-27 c18 -15 46 -55 62 -89 43 -89 66 -79 26 11 -10 24 -22 62 -26 84 -5 34 -2
45 20 71 27 32 214 180 235 185 10 3 82 -138 95 -185 4 -16 8 -19 17 -10 8 8
7 19 -5 41 -18 35 -20 88 -6 186 11 73 8 89 -13 64 -13 -17 -81 -68 -89 -68
-13 0 -146 145 -181 198 -36 53 -38 60 -32 109 3 29 2 53 -2 53 -5 0 -30 -13
-55 -29z m32 -38 c0 -37 -10 -73 -21 -73 -15 0 -22 69 -9 85 19 23 30 18 30
-12z m-13 -115 c-3 -8 -6 -5 -6 6 -1 11 2 17 5 13 3 -3 4 -12 1 -19z m-13 -20
c10 -40 7 -56 -14 -63 -26 -8 -25 -23 3 -53 l22 -24 -49 3 c-49 4 -50 3 -58
-30 -11 -42 -5 -48 26 -28 14 9 43 19 65 23 37 6 41 4 52 -20 7 -14 16 -26 21
-26 12 0 10 24 -4 38 -9 9 3 12 54 12 96 0 96 18 1 22 l-78 3 3 39 c2 22 8 48
13 58 7 14 6 18 -6 18 -9 0 -15 9 -15 25 0 14 3 25 6 25 4 0 51 -43 105 -97
l98 -96 -52 -38 c-29 -21 -63 -46 -77 -57 -14 -10 -47 -31 -74 -46 l-50 -28
-75 38 c-69 34 -104 60 -139 106 -22 28 35 104 126 165 42 29 80 52 83 53 4 0
9 -10 13 -22z m26 -88 c0 -21 -15 -27 -25 -10 -7 12 2 30 16 30 5 0 9 -9 9
-20z m-605 -30 c21 -8 21 -8 -27 -24 -13 -4 -18 0 -18 14 0 21 12 24 45 10z
m353 -15 c-6 -14 -15 -25 -20 -25 -13 0 -9 38 5 43 24 10 26 7 15 -18z m566
-64 l-7 -62 -20 46 -21 47 25 18 c13 10 25 17 26 16 2 -2 0 -31 -3 -65z m-387
33 c-3 -3 -12 -4 -19 -1 -8 3 -5 6 6 6 11 1 17 -2 13 -5z m-181 -58 c20 -20
18 -24 -11 -18 -25 4 -31 13 -18 25 9 10 13 9 29 -7z m-361 -36 c-3 -5 -10
-10 -16 -10 -5 0 -9 5 -9 10 0 6 7 10 16 10 8 0 12 -4 9 -10z m577 -171 c5
-30 5 -30 -15 -11 -11 11 -16 25 -13 31 12 20 24 12 28 -20z"/>
<path d="M1123 2280 c3 -47 17 -53 35 -16 17 33 9 56 -18 56 -17 0 -19 -6 -17
-40z"/>
<path d="M459 1943 c-7 -16 -15 -31 -17 -34 -1 -4 16 -17 40 -29 63 -32 80
-50 73 -77 -4 -16 -1 -23 10 -23 27 0 16 -15 -30 -39 l-45 -24 -24 22 c-26 24
-66 100 -66 125 0 22 -17 20 -25 -3 -3 -10 -14 -26 -25 -36 -24 -22 -26 -35
-4 -35 18 0 114 -67 114 -80 0 -7 -62 -33 -82 -35 -3 0 -10 -3 -14 -7 -13 -14
-114 -9 -114 5 0 9 -2 9 -9 -1 -11 -17 -59 -6 -89 21 l-22 20 0 -31 c0 -17 -5
-43 -10 -58 -14 -35 -8 -39 32 -20 39 19 126 36 179 36 37 0 39 -2 39 -30 0
-16 3 -30 8 -30 4 0 27 21 51 46 47 48 142 117 178 128 14 5 38 0 65 -12 43
-20 229 -167 227 -180 -1 -11 -197 -137 -265 -171 -106 -52 -104 -52 -167 28
-30 39 -61 84 -69 101 -15 35 -19 36 -43 10 -14 -16 -31 -20 -81 -20 -61 0
-134 23 -134 42 0 4 -6 8 -14 8 -11 0 -13 -10 -9 -39 3 -21 0 -48 -6 -60 -15
-27 -2 -27 43 0 19 11 60 23 91 26 58 6 98 -8 163 -58 l22 -17 -48 -30 c-26
-17 -69 -40 -95 -52 -46 -20 -62 -40 -32 -40 8 0 22 -14 31 -32 16 -30 17 -31
30 -13 8 10 14 24 14 30 0 7 26 37 57 68 l58 57 27 -28 c16 -16 28 -41 30 -62
3 -29 -2 -37 -29 -56 -18 -12 -50 -24 -73 -28 l-41 -6 7 -38 c9 -49 22 -63 36
-37 16 29 93 105 107 105 6 0 11 -9 11 -20 0 -31 14 -24 47 23 64 88 111 131
231 213 69 46 128 84 131 84 14 0 128 -88 158 -123 37 -42 43 -45 43 -17 0 11
-11 27 -24 36 -27 17 -51 79 -62 154 -10 75 -11 75 -61 26 -25 -25 -50 -46
-55 -46 -12 0 -179 139 -255 213 -35 33 -63 68 -63 76 0 12 -5 10 -19 -7 l-18
-24 -26 31 c-14 17 -31 47 -38 66 -16 42 -31 44 -50 8z m41 -47 c0 -5 -7 -3
-15 4 -8 7 -12 17 -9 22 7 10 24 -9 24 -26z m-100 -100 c0 -5 -7 -3 -15 4 -8
7 -12 17 -9 22 7 10 24 -9 24 -26z m220 -4 c-27 -4 -34 2 -26 24 6 15 8 15 27
-2 l21 -19 -22 -3z m-180 -125 c0 -2 -11 -14 -25 -27 -25 -23 -25 -23 -25 -2
0 11 8 23 18 25 24 7 32 7 32 4z m-256 -20 c16 -11 15 -13 -8 -15 -17 -1 -26
3 -26 13 0 18 11 19 34 2z m843 -74 c6 -27 15 -56 19 -67 5 -13 -7 -8 -45 19
-28 20 -51 40 -51 43 0 7 52 51 60 52 3 0 10 -21 17 -47z m-853 -72 c3 -5 -3
-11 -14 -14 -13 -3 -20 0 -20 9 0 15 26 19 34 5z m220 -13 c9 -12 14 -24 12
-26 -8 -7 -56 30 -50 39 9 15 22 10 38 -13z m210 -161 c-16 -18 -36 -44 -45
-57 -20 -29 -26 -26 -31 15 -3 26 2 32 42 52 61 30 67 28 34 -10z m-285 -28
c-8 -16 -14 -18 -22 -10 -9 9 -8 14 3 21 24 16 31 11 19 -11z m95 -104 c-7
-16 -24 -21 -24 -6 0 8 7 13 27 20 1 1 0 -6 -3 -14z"/>
<path d="M639 1654 c-33 -34 -33 -36 -15 -50 29 -21 14 -26 -27 -9 -34 14 -36
14 -41 -5 -3 -11 -9 -30 -12 -41 -6 -19 -3 -21 17 -15 93 28 92 28 126 -12 34
-38 47 -26 17 16 -15 22 -15 22 35 22 67 0 66 18 -1 22 l-53 3 3 53 c2 28 0
52 -5 52 -5 0 -25 -16 -44 -36z m24 -35 c-4 -13 -9 -17 -15 -11 -11 11 -3 32
12 32 4 0 6 -9 3 -21z m-63 -49 c0 -5 -7 -10 -15 -10 -8 0 -15 5 -15 10 0 6 7
10 15 10 8 0 15 -4 15 -10z"/>
<path d="M1123 1230 c3 -47 17 -54 35 -17 15 31 6 57 -19 57 -16 0 -18 -7 -16
-40z"/>
<path d="M552 1032 l-22 -49 41 -44 c51 -55 70 -90 63 -116 -5 -17 0 -22 23
-27 15 -4 39 -15 53 -26 24 -18 24 -19 5 -26 -11 -4 -41 -15 -66 -25 -44 -17
-48 -17 -62 -1 -30 33 -77 148 -85 210 -10 74 -17 83 -39 52 -9 -13 -25 -32
-35 -42 -21 -21 -23 -38 -5 -38 25 0 66 -48 107 -124 49 -91 51 -87 -60 -113
-41 -9 -78 -21 -81 -26 -11 -15 -155 9 -222 38 -14 6 -17 2 -17 -26 0 -19 -3
-45 -7 -58 -5 -21 -4 -23 13 -17 31 13 156 36 197 36 35 0 37 -2 37 -30 0 -40
13 -38 57 11 43 48 65 60 181 100 48 16 95 34 105 39 26 15 45 1 115 -84 l62
-75 -85 -3 c-48 -2 -90 1 -96 6 -5 6 -9 32 -9 58 0 26 -3 48 -7 48 -12 -1 -63
-48 -63 -58 0 -5 11 -15 25 -22 32 -17 34 -44 3 -35 -13 4 -36 13 -52 21 -41
20 -43 19 -40 -26 2 -52 6 -55 41 -37 15 8 43 18 60 22 29 6 34 3 44 -19 15
-33 31 -34 23 -1 l-6 25 92 0 c50 0 90 -4 88 -8 -1 -4 -38 -41 -80 -81 l-76
-72 -86 30 c-87 31 -152 58 -219 92 -47 24 -45 24 -49 -3 -5 -34 -77 -45 -160
-25 -35 8 -71 18 -80 22 -15 6 -18 2 -18 -26 0 -19 -3 -45 -7 -58 -5 -21 -4
-23 13 -16 93 39 131 46 234 42 58 -3 116 -8 130 -11 14 -3 47 -11 74 -17 l50
-11 -65 -60 c-35 -33 -83 -71 -106 -85 -45 -26 -51 -37 -30 -50 8 -4 18 -16
24 -26 9 -17 12 -15 34 15 13 18 31 46 39 62 8 17 38 54 66 84 l52 53 41 -12
c40 -12 41 -13 24 -32 -10 -11 -39 -32 -66 -47 l-47 -27 20 -25 20 -26 -38
-34 c-21 -19 -53 -45 -70 -58 -18 -13 -32 -27 -32 -32 0 -11 51 -68 61 -68 4
0 11 10 14 23 4 12 21 52 38 90 24 53 34 66 47 62 13 -4 20 2 24 21 10 40 89
139 179 225 87 84 87 80 27 146 -57 61 -158 190 -186 238 -27 48 -38 54 -48
30 -3 -8 -10 -15 -15 -15 -11 0 -48 107 -59 170 -4 24 -12 45 -18 47 -6 2 -20
-18 -32 -45z m41 -57 c9 -25 14 -45 12 -45 -12 0 -44 61 -39 74 9 23 10 21 27
-29z m-113 -44 c0 -11 3 -28 6 -38 6 -16 4 -16 -15 3 -14 13 -19 27 -15 37 8
23 24 21 24 -2z m255 -149 c-2 -2 -19 7 -39 20 -33 23 -34 26 -19 41 15 15 18
14 39 -21 12 -20 21 -38 19 -40z m-489 -155 c3 -2 -13 -9 -36 -15 -37 -9 -40
-8 -40 10 0 17 5 19 36 15 19 -3 37 -7 40 -10z m214 10 c0 -2 -11 -14 -25 -27
-25 -23 -25 -23 -25 -2 0 11 8 23 18 25 24 7 32 7 32 4z m240 -17 c0 -5 -2
-10 -4 -10 -3 0 -8 5 -11 10 -3 6 -1 10 4 10 6 0 11 -4 11 -10z m-65 -70 c-3
-5 -10 -10 -16 -10 -5 0 -9 5 -9 10 0 6 7 10 16 10 8 0 12 -4 9 -10z m-130
-83 c6 -5 -6 -6 -30 -1 -47 8 -49 9 -41 23 7 10 50 -3 71 -22z m-275 -5 c0 -5
-11 -14 -25 -20 -22 -10 -25 -9 -25 8 0 15 7 20 25 20 14 0 25 -4 25 -8z m478
-177 c-23 -35 -41 -40 -46 -14 -1 8 10 21 25 31 42 24 45 21 21 -17z m-193
-49 c-19 -28 -35 -34 -35 -12 0 13 41 47 48 41 2 -2 -4 -15 -13 -29z m80 -112
c-8 -20 -15 -38 -15 -40 0 -11 -19 -2 -24 12 -4 9 5 24 22 39 15 14 28 25 30
25 1 0 -5 -16 -13 -36z"/>
<path d="M1017 493 c-14 -13 -6 -40 18 -61 28 -24 40 -28 28 -9 -4 6 -6 23 -4
36 3 29 -25 52 -42 34z"/>
</g>
</svg>
