<?xml version="1.0" standalone="no"?>
<!DOCTYPE svg PUBLIC "-//W3C//DTD SVG 20010904//EN"
 "http://www.w3.org/TR/2001/REC-SVG-20010904/DTD/svg10.dtd">
<svg version="1.0" xmlns="http://www.w3.org/2000/svg"
 width="122.000000pt" height="55.000000pt" viewBox="0 0 122.000000 55.000000"
 preserveAspectRatio="xMidYMid meet">
<metadata>
Created by potrace 1.16, written by Peter Selinger 2001-2019
</metadata>
<g transform="translate(0.000000,55.000000) scale(0.100000,-0.100000)"
fill="#000000" stroke="none">
<path d="M890 506 c0 -27 -15 -42 -25 -26 -4 6 -10 8 -15 5 -4 -3 0 -24 8 -47
13 -33 17 -81 17 -210 0 -93 1 -168 2 -168 1 0 21 8 45 19 38 16 90 29 183 46
19 4 20 11 17 119 -3 81 1 132 12 176 9 34 16 67 16 73 0 9 -29 13 -94 14 -52
0 -98 3 -103 5 -4 3 -20 8 -35 12 -25 6 -28 4 -28 -18z m200 -43 c0 -10 3 -42
7 -72 l6 -54 -54 6 c-30 4 -66 10 -80 13 -23 5 -27 2 -32 -23 -7 -35 5 -48 30
-34 11 5 44 11 74 13 l54 3 3 -81 3 -82 -63 -6 c-35 -4 -80 -9 -100 -12 l-38
-6 0 161 c0 145 2 162 18 167 9 3 24 9 32 14 8 5 43 9 78 9 53 1 62 -2 62 -16z
m34 2 c-4 -8 -8 -15 -10 -15 -2 0 -4 7 -4 15 0 8 4 15 10 15 5 0 7 -7 4 -15z"/>
<path d="M220 472 c0 -15 -9 -27 -26 -34 -24 -11 -26 -16 -21 -60 l6 -49 -37
7 c-20 4 -45 11 -55 16 -26 13 -34 4 -29 -36 5 -41 4 -41 57 -21 59 21 64 19
71 -25 6 -37 24 -57 24 -26 0 8 14 15 35 18 l34 4 7 -53 c8 -69 24 -68 24 1
l0 53 53 7 c28 3 82 6 119 6 l67 0 54 -72 c29 -40 67 -94 83 -120 16 -27 36
-48 45 -48 15 0 17 23 21 188 3 113 10 200 18 220 7 18 11 35 8 37 -2 2 -128
5 -281 7 l-277 3 0 -23z m494 -39 c8 -35 21 -363 14 -363 -3 0 -21 24 -41 54
-28 43 -38 70 -48 137 -7 46 -14 86 -15 88 -2 2 -17 -8 -33 -22 -25 -20 -38
-24 -69 -20 -22 3 -77 0 -122 -6 -46 -6 -85 -9 -88 -6 -3 2 0 23 6 47 13 51 9
59 -24 45 -23 -11 -25 -16 -19 -53 5 -39 4 -42 -20 -46 -24 -5 -55 12 -55 31
0 4 7 31 15 59 12 38 21 53 38 57 74 18 130 23 283 24 l172 1 6 -27z m36 7 c0
-5 -4 -10 -10 -10 -5 0 -10 5 -10 10 0 6 5 10 10 10 6 0 10 -4 10 -10z m-131
-195 c1 -18 0 -18 -15 3 -9 13 -13 30 -9 40 6 15 8 15 15 -3 5 -11 9 -29 9
-40z"/>
</g>
</svg>
