<?xml version="1.0" standalone="no"?>
<!DOCTYPE svg PUBLIC "-//W3C//DTD SVG 20010904//EN"
 "http://www.w3.org/TR/2001/REC-SVG-20010904/DTD/svg10.dtd">
<svg version="1.0" xmlns="http://www.w3.org/2000/svg"
 width="88.000000pt" height="64.000000pt" viewBox="0 0 88.000000 64.000000"
 preserveAspectRatio="xMidYMid meet">
<metadata>
Created by potrace 1.16, written by Peter Selinger 2001-2019
</metadata>
<g transform="translate(0.000000,64.000000) scale(0.100000,-0.100000)"
fill="#000000" stroke="none">
<path d="M275 588 c-6 -27 -3 -34 19 -51 33 -24 32 -44 -4 -87 -35 -40 -37
-51 -10 -67 22 -15 25 -11 34 41 5 26 14 40 27 43 11 3 18 10 17 17 -1 6 4 22
11 34 16 30 4 44 -15 17 -13 -17 -16 -18 -24 -5 -6 8 -13 32 -16 53 -8 45 -30
49 -39 5z"/>
<path d="M130 560 c-11 -26 -10 -33 3 -48 15 -16 15 -19 -3 -29 -22 -14 -30 0
-30 53 0 41 -12 43 -35 8 -16 -25 -16 -27 4 -48 25 -27 27 -42 5 -54 -11 -6
-13 -16 -9 -35 8 -32 25 -35 32 -7 7 27 20 26 19 -1 -1 -33 20 -34 39 -1 9 15
30 37 46 47 22 15 27 25 23 45 -5 24 -5 24 10 6 15 -18 13 -22 -19 -62 -38
-46 -41 -54 -23 -72 8 -8 17 1 34 37 12 27 30 53 39 59 14 7 15 13 6 30 -6 11
-11 34 -11 51 0 39 -17 49 -30 17 -12 -33 -29 -34 -22 -1 6 32 -11 32 -28 0
-12 -22 -11 -28 9 -49 13 -14 18 -26 12 -30 -15 -10 -41 35 -41 71 0 43 -15
49 -30 13z m28 -121 c-20 -16 -23 -16 -26 -3 -2 8 2 22 9 30 9 11 15 12 26 2
12 -10 11 -14 -9 -29z"/>
<path d="M465 500 c5 -15 0 -22 -21 -30 -25 -10 -26 -13 -19 -58 18 -112 20
-140 13 -197 -3 -33 -5 -61 -3 -63 2 -2 24 12 49 32 47 35 301 166 324 166 28
0 9 26 -31 41 -23 9 -80 31 -127 49 -47 18 -104 43 -127 56 -51 29 -66 31 -58
4z m60 -38 c-7 -8 -35 7 -35 18 0 6 7 6 20 -2 10 -7 17 -14 15 -16z m-78 -54
c-3 -7 -5 -2 -5 12 0 14 2 19 5 13 2 -7 2 -19 0 -25z m83 23 c0 -5 -10 -11
-21 -14 -16 -4 -20 -10 -14 -24 4 -10 10 -45 13 -79 4 -56 2 -62 -17 -67 -16
-4 -22 0 -27 20 -8 28 0 145 10 162 8 13 56 15 56 2z m55 -1 c3 -5 14 -10 23
-10 10 0 51 -13 92 -29 60 -23 71 -31 55 -37 -11 -4 -49 -20 -85 -36 -36 -17
-82 -36 -102 -43 l-38 -14 0 49 c0 47 27 130 42 130 4 0 10 -4 13 -10z m-76
-204 c-15 -13 -49 -25 -49 -17 0 5 8 12 18 14 24 6 36 8 31 3z"/>
<path d="M299 319 l-22 -31 42 -37 c43 -36 48 -62 15 -75 -14 -5 -55 55 -69
102 -9 30 -21 28 -28 -7 -5 -24 1 -36 33 -70 36 -38 46 -76 16 -65 -19 7 -79
132 -72 150 14 36 -9 35 -25 -2 -13 -29 -18 -34 -18 -17 -1 33 -20 38 -31 8
-9 -23 -6 -30 20 -57 33 -33 37 -50 16 -67 -11 -9 -18 -2 -35 38 -11 27 -21
62 -21 76 0 33 -21 29 -34 -7 -7 -20 -5 -32 12 -53 21 -26 20 -34 -6 -75 -2
-2 -7 2 -12 10 -15 24 -24 3 -14 -32 l10 -32 21 37 c23 37 43 49 43 23 0 -8
-7 -17 -16 -20 -18 -7 -15 -47 5 -54 9 -3 11 1 7 16 -6 16 3 26 44 53 50 32
50 33 32 53 -33 36 -35 52 -3 18 17 -18 31 -36 31 -41 0 -4 -18 -21 -40 -36
-22 -15 -40 -31 -40 -36 0 -19 19 -16 40 6 22 23 24 23 36 7 7 -9 14 -25 14
-34 0 -22 20 -24 20 -3 0 26 91 117 112 112 13 -4 18 0 18 13 0 11 5 22 10 25
20 12 10 26 -11 15 -11 -7 -22 -10 -24 -8 -15 17 -35 73 -35 98 0 38 -13 38
-41 -1z m-189 -79 c0 -5 -2 -10 -4 -10 -3 0 -8 5 -11 10 -3 6 -1 10 4 10 6 0
11 -4 11 -10z m170 -125 c-7 -9 -15 -13 -17 -11 -7 7 7 26 19 26 6 0 6 -6 -2
-15z"/>
</g>
</svg>
