<?xml version="1.0" standalone="no"?>
<!DOCTYPE svg PUBLIC "-//W3C//DTD SVG 20010904//EN"
 "http://www.w3.org/TR/2001/REC-SVG-20010904/DTD/svg10.dtd">
<svg version="1.0" xmlns="http://www.w3.org/2000/svg"
 width="137.000000pt" height="183.000000pt" viewBox="0 0 137.000000 183.000000"
 preserveAspectRatio="xMidYMid meet">
<metadata>
Created by potrace 1.16, written by Peter Selinger 2001-2019
</metadata>
<g transform="translate(0.000000,183.000000) scale(0.100000,-0.100000)"
fill="#000000" stroke="none">
<path d="M832 1763 c-18 -22 -21 -36 -17 -63 l6 -35 -83 5 c-91 5 -92 6 -75
73 6 21 4 27 -9 27 -22 0 -53 -40 -54 -68 0 -14 -4 -21 -11 -16 -6 3 -16 0
-21 -7 -6 -9 -8 5 -4 44 4 31 2 57 -2 57 -17 0 -62 -46 -62 -64 0 -14 -5 -17
-25 -12 -20 5 -28 0 -50 -31 -14 -21 -29 -36 -33 -33 -4 3 -10 -33 -14 -80 -5
-72 -25 -177 -39 -215 -2 -5 0 -12 5 -15 5 -3 24 35 42 83 56 152 96 227 119
225 24 -4 43 -77 44 -178 l1 -64 -51 -53 -52 -52 31 -48 c31 -48 62 -114 62
-131 0 -20 -57 -64 -126 -98 -71 -34 -92 -54 -58 -54 8 0 48 16 89 35 40 20
106 44 146 54 42 11 74 24 74 31 0 7 -24 22 -53 34 -29 12 -55 29 -58 39 -10
31 7 177 20 174 6 -1 10 9 8 25 -2 19 5 32 27 47 36 26 41 26 41 1 0 -11 5
-20 10 -20 6 0 10 14 10 31 0 16 4 28 9 25 5 -3 33 5 62 18 30 14 66 28 81 31
26 7 27 5 30 -36 2 -25 9 -44 17 -47 11 -4 13 5 7 47 -6 49 -5 52 19 61 40 15
42 14 47 -40 5 -52 13 -69 25 -56 4 3 2 29 -3 56 -6 27 -8 53 -5 58 3 5 42 17
86 27 44 10 105 24 135 31 30 8 65 14 77 14 13 0 23 6 23 14 0 14 -10 15 -244
32 l-89 7 6 68 c4 42 2 69 -4 69 -5 0 -12 -8 -16 -17 -3 -10 -17 -32 -30 -50
-14 -19 -19 -34 -13 -38 17 -10 11 -25 -9 -25 -27 0 -30 8 -21 65 10 62 1 74
-28 38z m-295 -55 c-3 -8 -6 -5 -6 6 -1 11 2 17 5 13 3 -3 4 -12 1 -19z m300
0 c-3 -8 -6 -5 -6 6 -1 11 2 17 5 13 3 -3 4 -12 1 -19z m93 -25 c-1 -24 -2
-26 -11 -10 -5 9 -7 22 -4 27 10 17 15 11 15 -17z m-415 -13 c4 -6 -8 -10 -30
-10 -22 0 -34 4 -30 10 3 6 17 10 30 10 13 0 27 -4 30 -10z m231 -25 c42 -2
79 -7 83 -10 3 -4 6 -32 6 -63 l0 -56 -40 -7 c-22 -4 -64 -9 -92 -11 l-53 -5
0 53 c0 30 -4 54 -10 54 -6 0 -10 -26 -10 -58 0 -49 -4 -62 -25 -82 -14 -13
-27 -22 -29 -19 -2 2 -6 47 -10 100 l-6 97 47 9 c27 5 51 8 55 6 4 -2 42 -6
84 -8z m168 -13 c2 -4 7 -23 11 -43 6 -31 4 -36 -20 -47 -14 -7 -30 -12 -34
-12 -9 0 -22 91 -14 102 6 10 50 10 57 0z m176 -16 c41 -8 66 -14 55 -15 -11
-1 -56 -10 -100 -21 -44 -11 -83 -20 -87 -20 -5 0 -8 16 -8 35 0 33 2 35 33
34 17 0 66 -6 107 -13z m-651 -13 c-2 -20 -38 -86 -38 -72 -2 36 12 79 25 79
8 0 14 -3 13 -7z m228 -145 c-3 -8 -6 -5 -6 6 -1 11 2 17 5 13 3 -3 4 -12 1
-19z m48 12 c-3 -5 -10 -10 -16 -10 -5 0 -9 5 -9 10 0 6 7 10 16 10 8 0 12 -4
9 -10z m-185 -207 l-1 -68 -24 45 -23 45 21 23 c11 12 22 22 24 22 2 0 3 -30
3 -67z m73 -170 c7 -6 -45 -33 -65 -33 -14 0 34 39 48 40 6 0 14 -3 17 -7z"/>
<path d="M220 1758 c0 -7 -9 -24 -20 -38 -25 -32 -25 -38 2 -42 54 -8 24 -28
-113 -77 -23 -8 -27 -17 -31 -61 -3 -29 -11 -56 -19 -61 -16 -10 -19 -8 63
-47 36 -18 81 -46 99 -63 24 -23 34 -27 40 -17 5 7 9 16 9 20 0 4 27 38 60 76
63 73 72 106 12 46 -19 -19 -54 -48 -78 -64 l-42 -30 -43 39 c-24 22 -41 43
-36 47 4 4 45 10 92 12 81 4 104 13 69 26 -9 3 -36 6 -60 6 -25 0 -55 5 -66
11 -18 10 -25 8 -39 -10 -20 -24 -29 -27 -29 -7 0 21 131 116 159 116 4 0 23
-22 42 -50 30 -44 49 -61 49 -44 0 3 -16 33 -36 67 -20 34 -42 82 -48 106 -11
42 -36 69 -36 39z m20 -59 c0 -6 -4 -7 -10 -4 -5 3 -10 11 -10 16 0 6 5 7 10
4 6 -3 10 -11 10 -16z m-140 -123 c0 -3 -4 -8 -10 -11 -5 -3 -10 -1 -10 4 0 6
5 11 10 11 6 0 10 -2 10 -4z m-2 -104 c2 -7 -2 -10 -12 -6 -9 3 -16 11 -16 16
0 13 23 5 28 -10z"/>
<path d="M303 1286 c-11 -13 -27 -26 -34 -28 -10 -3 -6 -13 14 -37 15 -18 45
-71 67 -117 23 -46 45 -84 51 -84 7 0 8 7 4 18 -38 98 -53 164 -54 240 -1 38
-19 42 -48 8z m32 -94 c-1 -1 -10 9 -19 23 -15 22 -15 29 -4 42 11 14 14 11
19 -23 4 -21 6 -40 4 -42z"/>
<path d="M1236 1092 c-8 -13 5 -82 15 -82 14 0 31 39 27 63 -3 22 -32 35 -42
19z"/>
<path d="M1075 898 c-11 -18 -18 -37 -16 -43 2 -5 9 -31 16 -57 12 -45 12 -46
-11 -51 -26 -5 -27 0 -24 98 l2 50 -29 -25 c-15 -14 -31 -27 -36 -31 -4 -3 -1
-24 8 -48 13 -39 13 -42 -3 -37 -9 2 -52 7 -94 11 l-77 7 6 46 c3 26 10 55 14
64 6 10 5 19 -2 23 -6 4 -11 5 -12 3 -1 -2 -14 -17 -30 -34 -26 -29 -27 -32
-12 -60 20 -39 19 -44 -11 -44 -27 0 -27 0 -21 60 3 33 2 60 -1 60 -12 -1 -72
-78 -72 -93 0 -12 -8 -13 -42 -6 -24 4 -51 11 -61 14 -12 5 -23 -1 -37 -18
-11 -14 -30 -27 -43 -29 -15 -2 -23 -11 -25 -28 -2 -14 -7 -36 -12 -50 -5 -14
-14 -38 -20 -54 l-11 -30 -49 74 c-31 47 -52 90 -56 118 -4 25 -11 41 -18 39
-6 -3 -10 -10 -8 -16 1 -7 -2 -30 -8 -52 -10 -36 -17 -42 -91 -76 -79 -37 -80
-38 -74 -70 4 -24 1 -36 -16 -52 -28 -25 -20 -36 38 -51 27 -6 63 -21 82 -32
29 -19 33 -25 28 -54 -8 -49 9 -51 38 -4 l26 40 57 -72 c55 -69 127 -178 120
-182 -34 -20 -78 -60 -78 -72 0 -20 8 -18 42 11 16 14 36 25 43 25 7 0 15 4
17 8 3 9 192 124 221 135 32 12 19 34 -25 41 -44 7 -208 83 -208 97 0 16 132
72 179 77 45 4 49 3 55 -22 9 -38 28 -32 25 8 -2 19 3 41 11 51 13 16 15 16
21 -2 4 -10 8 -33 8 -50 1 -21 6 -33 14 -33 10 0 13 13 9 53 -4 49 -2 53 25
68 15 9 51 19 78 22 28 4 60 9 73 13 21 6 22 4 22 -55 0 -48 3 -61 15 -61 13
0 14 10 9 65 l-7 65 30 0 c29 0 31 -3 37 -45 5 -31 12 -45 23 -45 11 0 14 6 9
23 -4 12 -9 34 -12 48 -7 29 -17 25 128 50 39 6 69 17 72 25 3 8 2 15 -2 16
-23 5 -66 9 -136 14 l-78 6 4 94 c4 103 -4 117 -37 62z m-59 -87 c0 -11 -4
-17 -8 -15 -4 3 -8 12 -8 20 0 8 4 14 8 14 4 0 8 -9 8 -19z m-296 -17 c0 -14
-4 -23 -10 -19 -5 3 -10 15 -10 26 0 10 5 19 10 19 6 0 10 -12 10 -26z m-87
-24 c40 0 9 -10 -48 -16 -53 -5 -57 -4 -45 11 10 12 23 15 43 11 16 -3 39 -6
50 -6z m157 -86 c0 -62 -1 -65 -22 -62 -20 3 -23 9 -25 60 -3 57 -1 61 40 67
4 0 7 -29 7 -65z m146 51 c70 -7 72 -7 78 -38 3 -16 5 -31 4 -33 -2 -1 -37 -7
-78 -13 -41 -6 -87 -14 -102 -17 l-28 -6 0 62 0 62 28 -6 c15 -3 59 -8 98 -11z
m-626 -11 c0 -8 -4 -12 -10 -9 -5 3 -10 10 -10 16 0 5 5 9 10 9 6 0 10 -7 10
-16z m394 -9 c9 -13 16 -42 16 -63 0 -32 -4 -41 -21 -45 -16 -4 -19 -10 -14
-27 4 -13 3 -21 -1 -18 -5 2 -22 10 -38 18 -25 12 -30 12 -40 -1 -19 -25 -127
-109 -140 -109 -17 0 -38 -47 -25 -55 5 -4 38 -15 72 -25 81 -24 127 -43 127
-51 0 -9 -119 -109 -130 -109 -4 0 -34 54 -66 119 l-59 119 26 60 c15 32 42
81 60 108 19 28 39 59 45 69 9 16 26 21 85 26 41 3 77 6 80 7 4 1 14 -9 23
-23z m-212 -7 c-7 -7 -12 -8 -12 -2 0 14 12 26 19 19 2 -3 -1 -11 -7 -17z
m596 -12 c-2 -13 -12 -22 -25 -24 -19 -3 -23 1 -23 26 0 26 3 29 26 24 19 -3
24 -10 22 -26z m140 9 c-2 -2 -27 -8 -55 -13 -46 -8 -53 -7 -53 7 0 13 10 15
56 13 30 -2 54 -5 52 -7z m-911 -23 l23 -17 -35 -28 c-39 -31 -50 -30 -59 9
-13 49 28 69 71 36z m-93 -65 l29 -24 -37 -28 c-35 -27 -37 -27 -51 -9 -19 25
-19 43 2 66 20 23 22 23 57 -5z m163 -7 l23 -28 -68 -46 c-72 -50 -86 -53
-117 -31 -19 15 -19 16 7 42 23 23 29 25 43 13 15 -12 17 -11 13 8 -2 15 7 30
27 47 38 31 45 30 72 -5z m388 -20 c-3 -5 -11 -10 -16 -10 -6 0 -7 5 -4 10 3
6 11 10 16 10 6 0 7 -4 4 -10z m-45 -20 c0 -5 -4 -10 -10 -10 -5 0 -10 5 -10
10 0 6 5 10 10 10 6 0 10 -4 10 -10z m-587 -24 c4 -10 1 -13 -9 -9 -15 6 -19
23 -5 23 5 0 11 -7 14 -14z m503 5 c-8 -12 -46 -21 -46 -11 0 9 18 18 38 19 7
1 11 -3 8 -8z m-267 -45 c-7 -14 -16 -26 -20 -26 -4 0 -16 -3 -26 -7 -11 -4
-6 7 16 30 39 41 47 42 30 3z m7 -88 c16 -31 16 -32 0 -19 -23 19 -40 51 -27
51 6 0 18 -15 27 -32z m99 12 c3 -5 2 -10 -4 -10 -5 0 -13 5 -16 10 -3 6 -2
10 4 10 5 0 13 -4 16 -10z m205 -105 c0 -2 -15 -12 -32 -21 l-33 -17 19 22
c17 19 46 29 46 16z"/>
<path d="M211 291 c-25 -34 -27 -51 -6 -51 8 0 19 -8 24 -19 10 -18 7 -18 -55
-13 -61 5 -67 3 -94 -23 -37 -35 -40 -60 -7 -51 12 4 51 11 87 16 36 6 74 12
86 15 23 5 38 -18 49 -79 7 -37 29 -64 39 -48 3 5 -5 37 -18 71 l-25 61 59 0
c32 0 62 5 65 10 9 14 -10 19 -80 23 l-60 3 -10 54 c-6 29 -15 55 -22 57 -6 2
-20 -9 -32 -26z m39 -37 c0 -14 -4 -23 -10 -19 -5 3 -10 15 -10 26 0 10 5 19
10 19 6 0 10 -12 10 -26z m-85 -74 c-3 -5 -17 -10 -31 -10 -14 0 -22 4 -19 10
3 6 17 10 31 10 14 0 22 -4 19 -10z"/>
<path d="M1214 169 c-3 -6 0 -17 8 -25 13 -13 16 -13 27 0 7 8 10 20 6 26 -8
13 -32 13 -41 -1z"/>
</g>
</svg>
