<?xml version="1.0" standalone="no"?>
<!DOCTYPE svg PUBLIC "-//W3C//DTD SVG 20010904//EN"
 "http://www.w3.org/TR/2001/REC-SVG-20010904/DTD/svg10.dtd">
<svg version="1.0" xmlns="http://www.w3.org/2000/svg"
 width="103.000000pt" height="204.000000pt" viewBox="0 0 103.000000 204.000000"
 preserveAspectRatio="xMidYMid meet">
<metadata>
Created by potrace 1.16, written by Peter Selinger 2001-2019
</metadata>
<g transform="translate(0.000000,204.000000) scale(0.100000,-0.100000)"
fill="#000000" stroke="none">
<path d="M656 2023 c-3 -4 -6 -14 -6 -24 0 -13 12 -19 48 -24 77 -10 79 -13
60 -92 -17 -69 -13 -88 14 -78 12 5 16 19 15 58 -1 29 2 66 6 83 8 30 6 32
-25 38 -18 3 -50 15 -70 25 -20 11 -39 17 -42 14z"/>
<path d="M603 1971 c-4 -15 -11 -20 -24 -16 -12 4 -21 -1 -29 -15 -6 -11 -7
-20 -3 -21 53 -6 123 -8 123 -4 0 3 -12 10 -26 16 -15 5 -25 12 -22 14 8 8 91
-10 95 -20 3 -11 -60 -55 -80 -55 -7 0 -29 9 -50 20 -20 11 -43 20 -51 20 -12
0 -56 -57 -56 -73 0 -2 20 -8 45 -11 52 -8 56 -17 18 -42 -16 -10 -34 -24 -41
-31 -17 -17 -60 15 -137 100 -53 60 -54 61 -75 42 -18 -16 -19 -20 -5 -35 22
-24 20 -27 -29 -34 -29 -5 -63 -2 -94 8 l-49 14 -6 -46 c-3 -26 -4 -74 -3
-107 1 -54 3 -60 21 -57 11 2 46 7 78 11 l57 7 0 -41 c0 -84 24 -109 56 -60 9
13 50 54 91 90 l75 66 41 -38 c23 -20 43 -40 45 -44 2 -4 -16 -9 -40 -11 -37
-3 -42 -6 -40 -23 5 -27 2 -26 47 -10 57 20 87 19 83 -2 -2 -14 -14 -18 -44
-19 -47 -1 -64 -9 -64 -31 0 -12 7 -14 38 -9 81 14 92 18 92 32 0 21 14 17 40
-11 l23 -25 -56 0 c-46 0 -58 -4 -67 -20 -15 -28 -4 -43 21 -30 17 10 19 7 19
-20 0 -31 8 -38 27 -19 5 5 36 18 68 28 l59 17 13 57 c7 32 17 66 23 77 13 24
-2 35 -30 20 -16 -9 -20 -21 -20 -63 0 -29 -4 -58 -9 -66 -5 -8 -31 -15 -62
-17 -51 -4 -52 -3 -20 7 37 11 60 34 61 58 0 8 10 34 21 58 25 51 21 61 -15
38 -20 -13 -26 -26 -26 -51 0 -19 -4 -34 -10 -34 -16 0 -12 53 6 78 19 28 10
46 -16 29 -14 -8 -20 -23 -20 -45 0 -23 -4 -32 -12 -29 -15 5 -12 55 4 75 15
18 4 26 -26 18 -22 -5 -25 -10 -19 -38 5 -24 3 -29 -7 -23 -9 5 -10 19 -5 49
5 22 7 61 6 85 -1 29 4 50 15 62 27 30 34 22 19 -22 -16 -45 -13 -61 10 -52 9
3 15 19 16 42 1 48 12 84 26 88 9 3 8 -10 -3 -47 -16 -54 -14 -66 9 -57 9 3
16 28 20 67 3 38 12 69 23 81 16 18 16 19 -2 19 -11 0 -24 4 -30 9 -5 4 -22
13 -39 19 -16 5 -38 13 -48 17 -14 6 -20 2 -24 -14z m-20 -107 c20 -3 37 -10
37 -15 0 -20 -30 -20 -69 1 -42 21 -55 35 -23 26 9 -3 34 -8 55 -12z m-213
-70 c0 -2 -7 -1 -15 2 -13 5 -15 -7 -15 -79 0 -52 -4 -89 -11 -93 -8 -5 -9 21
-4 92 6 78 5 96 -5 87 -7 -6 -13 -48 -15 -104 -2 -55 -8 -95 -14 -97 -6 -2
-11 2 -11 10 0 39 22 184 31 200 9 17 11 17 34 2 14 -9 25 -18 25 -20z m-100
-39 l0 -35 -47 1 c-47 1 -108 15 -88 20 6 1 15 3 20 4 6 2 31 3 58 4 53 1 65
20 15 22 -18 1 -46 5 -63 9 -23 6 -15 8 38 9 l67 1 0 -35z m311 7 c-15 -29
-14 -40 7 -45 14 -4 13 -6 -6 -12 -15 -5 -21 -13 -17 -23 5 -13 3 -13 -12 -1
-56 42 -55 39 -11 75 43 37 56 39 39 6z m-181 -37 c0 -30 -3 -55 -7 -55 -5 0
-6 25 -5 55 5 71 12 71 12 0z m-33 -47 c-2 -18 -4 -4 -4 32 0 36 2 50 4 33 2
-18 2 -48 0 -65z m77 64 c15 -18 15 -20 -4 -37 -20 -18 -20 -18 -20 18 0 43 1
43 24 19z m-184 -52 c0 -5 -23 -10 -51 -10 -31 0 -48 4 -44 10 3 6 26 10 51
10 24 0 44 -4 44 -10z"/>
<path d="M1022 1450 c0 -14 2 -19 5 -12 2 6 2 18 0 25 -3 6 -5 1 -5 -13z"/>
<path d="M576 1391 c-4 -5 -2 -12 3 -15 5 -4 12 -2 15 3 4 5 2 12 -3 15 -5 4
-12 2 -15 -3z"/>
<path d="M710 1371 c-14 -27 -15 -26 36 -56 25 -15 43 -29 41 -32 -6 -5 -43
15 -71 40 -24 21 -32 21 -40 1 -9 -24 0 -32 60 -50 29 -8 54 -19 54 -23 0 -3
-13 -14 -29 -24 -26 -15 -32 -16 -62 -2 l-34 16 38 -6 c47 -7 48 7 1 24 -19 7
-38 19 -41 27 -3 8 -12 14 -20 14 -9 0 -13 -6 -10 -15 4 -8 2 -17 -3 -20 -4
-3 -10 1 -13 7 -6 18 -14 8 -19 -21 -3 -23 2 -26 55 -37 68 -13 79 -21 45 -29
-31 -8 -102 10 -122 30 -23 23 -36 18 -36 -15 0 -27 3 -30 33 -31 17 -1 43 -4
56 -8 21 -6 16 -11 -50 -56 -41 -28 -75 -53 -77 -57 -2 -5 -10 -8 -17 -8 -10
0 -12 13 -10 48 2 26 7 80 10 120 l5 72 -33 0 c-19 0 -36 -2 -39 -5 -2 -3 1
-49 8 -102 7 -54 12 -99 10 -100 -1 -1 -20 13 -43 31 -48 37 -110 109 -126
144 -9 20 -16 23 -41 18 -42 -9 -55 -24 -33 -40 23 -17 26 -131 3 -123 -8 3
-31 9 -50 13 -20 3 -39 10 -42 15 -13 21 -34 8 -34 -21 0 -16 5 -30 10 -30 6
0 10 -10 10 -21 0 -20 3 -21 60 -15 40 5 60 3 60 -4 0 -6 -26 -10 -65 -10 -58
0 -65 -2 -65 -20 0 -18 5 -19 66 -13 55 5 66 4 62 -8 -4 -10 -24 -14 -74 -14
-65 0 -69 -1 -72 -24 -3 -21 -1 -23 22 -17 14 3 46 9 71 13 l45 6 0 -67 c0
-36 3 -66 7 -66 4 0 18 10 31 23 17 15 26 18 29 10 7 -20 23 -15 23 7 0 13 5
18 15 14 10 -4 15 0 15 14 0 12 5 24 11 28 7 4 10 -6 8 -30 -2 -19 1 -36 6
-36 6 0 11 12 13 27 5 50 12 74 22 68 5 -3 7 -16 4 -30 -2 -13 0 -27 6 -30 6
-4 10 9 10 33 0 25 7 45 19 56 17 16 19 15 25 -15 3 -17 6 -42 6 -55 0 -13 5
-24 10 -24 6 0 10 29 10 67 l0 66 23 -19 c12 -11 39 -31 59 -45 21 -13 38 -27
38 -31 0 -5 -19 -8 -41 -8 -36 0 -41 -2 -36 -20 3 -11 1 -20 -4 -20 -5 0 -9
-7 -9 -16 0 -9 3 -14 8 -12 70 36 107 49 128 44 30 -8 22 -26 -11 -26 -40 0
-52 -9 -47 -36 5 -30 5 -30 50 1 45 31 63 31 88 4 l19 -22 -51 7 c-51 6 -51 6
-46 -20 4 -21 9 -24 26 -19 62 19 92 23 100 15 19 -19 23 -10 29 58 4 37 9 80
13 96 l7 29 -27 -19 c-25 -18 -26 -22 -20 -78 5 -47 4 -57 -7 -54 -10 4 -14
24 -13 77 2 71 -4 82 -35 62 -10 -6 -11 -20 -6 -51 6 -34 4 -41 -6 -38 -10 4
-13 23 -12 72 2 69 -3 78 -31 47 -13 -14 -14 -24 -6 -45 16 -42 12 -52 -11
-30 -19 19 -19 23 -6 62 17 48 14 55 -19 40 -21 -10 -23 -16 -18 -45 l6 -34
-51 38 c-28 21 -51 43 -51 48 1 8 160 109 160 101 0 -1 -11 -17 -25 -36 -26
-36 -25 -50 6 -50 11 0 19 7 19 18 1 30 38 100 60 112 20 11 21 10 9 -12 -6
-13 -21 -36 -32 -51 -22 -32 -21 -34 13 -39 22 -3 25 1 31 37 6 44 29 95 53
114 9 8 16 20 16 27 0 8 5 14 10 14 6 0 10 -5 10 -10 0 -16 -48 -108 -60 -115
-18 -11 -10 -23 20 -27 27 -4 30 -2 30 24 0 16 9 48 20 70 11 23 20 45 20 50
0 4 -18 24 -40 44 -22 20 -48 50 -57 65 -20 34 -38 37 -53 10z m-247 -168 c-7
-71 -11 -75 -12 -10 -1 31 3 57 8 57 5 0 6 -21 4 -47z m-208 26 c11 -17 2 -18
-19 -3 -17 12 -17 14 -4 14 9 0 20 -5 23 -11z m47 -80 c22 -16 27 -24 18 -33
-8 -8 -13 -7 -19 2 -4 7 -14 10 -22 7 -12 -4 -14 -25 -11 -109 4 -98 3 -103
-17 -109 -11 -3 -23 -2 -25 1 -8 14 12 219 23 240 14 27 16 27 53 1z m58 -48
c0 -6 -5 -13 -11 -17 -6 -4 -9 -30 -7 -67 2 -45 -1 -61 -11 -65 -12 -4 -13 7
-7 62 3 36 9 73 12 81 7 16 24 21 24 6z m-150 -27 c0 -2 -26 -4 -57 -3 -39 1
-50 3 -34 8 24 6 91 3 91 -5z m91 -91 l-9 -58 0 80 c-1 57 2 74 8 58 5 -13 6
-47 1 -80z m94 75 c-11 -7 -15 -20 -13 -43 1 -19 -1 -37 -5 -41 -4 -4 -7 15
-7 43 0 55 5 64 27 56 13 -5 13 -7 -2 -15z m45 -33 c0 -15 -18 -30 -27 -22 -2
3 -2 15 2 26 7 23 25 19 25 -4z m-190 -149 c0 -2 -7 -6 -15 -10 -8 -3 -15 -1
-15 4 0 6 7 10 15 10 8 0 15 -2 15 -4z"/>
<path d="M850 941 c-35 -16 -35 -17 -35 -83 0 -37 -4 -71 -10 -77 -9 -9 -68
-19 -121 -20 -15 -1 -24 -9 -28 -27 -4 -15 -5 -29 -2 -31 3 -3 36 7 73 21 38
14 76 26 86 26 10 0 19 10 22 28 16 84 28 119 47 140 30 31 12 45 -32 23z m-6
-46 c-4 -8 -8 -15 -10 -15 -2 0 -4 7 -4 15 0 8 4 15 10 15 5 0 7 -7 4 -15z"/>
<path d="M1016 797 c-5 -9 -5 -29 0 -45 7 -25 8 -26 11 -4 3 12 3 32 0 45 -3
19 -4 20 -11 4z"/>
<path d="M826 586 c-3 -13 -8 -31 -12 -39 -4 -11 10 -19 53 -32 89 -27 90 -32
42 -100 l-42 -58 22 -18 22 -18 -26 -7 c-23 -6 -26 -11 -21 -33 3 -14 9 -50
13 -80 6 -52 6 -53 -15 -42 -19 10 -22 20 -22 76 0 67 -4 74 -34 52 -16 -11
-16 -15 -1 -49 21 -52 19 -61 -10 -42 -20 13 -25 25 -25 56 0 32 -3 39 -17 36
-19 -4 -21 -19 -8 -52 7 -16 6 -17 -15 -6 -19 10 -21 17 -16 53 8 48 35 98 56
105 9 3 6 -6 -9 -21 -14 -15 -21 -33 -18 -41 11 -29 34 -17 46 24 12 39 34 70
52 70 5 0 0 -13 -12 -30 -18 -24 -20 -32 -9 -45 18 -21 27 -19 34 10 8 32 46
95 57 95 5 0 9 5 9 10 0 6 -7 10 -15 10 -22 0 -88 39 -107 63 -19 24 -18 25
-18 -50 0 -5 21 -13 48 -19 45 -10 46 -11 19 -19 -36 -10 -74 7 -89 40 -13 29
-32 28 -36 -3 -2 -15 5 -25 27 -37 34 -17 39 -25 15 -25 -8 0 -29 14 -46 30
-35 35 -44 37 -53 10 -9 -27 1 -40 30 -40 13 0 27 -4 30 -10 9 -14 -10 -12
-52 5 -33 14 -38 14 -55 -1 -28 -26 -22 -34 30 -35 l47 -1 -60 -29 c-83 -40
-88 -39 -79 17 l7 46 -29 -4 c-26 -3 -29 -6 -26 -36 l3 -33 -30 16 c-19 9 -31
23 -31 35 0 21 -16 27 -22 9 -3 -10 -66 26 -134 76 -16 12 -41 -17 -50 -57 -8
-36 -25 -40 -96 -28 -33 6 -66 9 -72 7 -18 -7 -16 -199 2 -205 7 -2 18 1 25 6
7 6 36 14 64 18 l51 6 7 -46 c4 -25 12 -46 18 -46 5 0 31 13 56 28 82 49 208
112 214 105 4 -3 4 -25 0 -49 -3 -27 -2 -44 4 -44 13 0 23 34 23 77 0 17 4 34
10 38 5 3 40 -9 77 -27 l68 -32 -40 -6 c-28 -3 -41 -10 -43 -23 -4 -21 37 -59
56 -52 8 3 16 -3 19 -14 5 -19 7 -19 50 5 25 13 55 24 66 24 31 0 7 -19 -26
-22 -22 -2 -27 -7 -27 -30 0 -15 -5 -28 -11 -28 -7 0 -9 -10 -4 -27 9 -38 10
-38 40 -15 14 12 48 28 74 37 l48 16 6 97 c6 99 34 215 62 258 23 35 18 51
-20 70 -19 9 -50 34 -70 55 -19 21 -37 39 -39 39 -2 0 -7 -11 -10 -24z m39
-36 c3 -5 2 -10 -4 -10 -5 0 -13 5 -16 10 -3 6 -2 10 4 10 5 0 13 -4 16 -10z
m-556 -114 c10 -12 8 -13 -8 -9 -12 3 -21 9 -21 14 0 14 16 11 29 -5z m-37
-128 c-3 -87 -7 -108 -19 -108 -12 0 -14 8 -10 33 3 17 9 59 12 92 7 60 15 99
19 93 2 -2 1 -51 -2 -110z m201 23 c21 -7 37 -19 37 -27 0 -8 -1 -14 -3 -14
-1 0 -41 -16 -87 -35 -46 -19 -86 -35 -88 -35 -3 0 -1 34 3 75 4 46 3 75 -3
75 -10 0 -22 -70 -22 -126 0 -19 -5 -34 -10 -34 -7 0 -10 36 -8 99 l3 98 71
-32 c39 -18 87 -38 107 -44z m-238 6 c-7 -33 -8 -35 -63 -40 -30 -3 -60 -3
-66 0 -14 9 23 21 66 22 59 1 57 21 -2 21 -32 0 -49 4 -45 10 3 6 28 10 56 10
31 0 49 4 49 12 0 6 3 9 6 6 3 -3 2 -22 -1 -41z m461 -9 c-9 -14 -13 -27 -10
-31 4 -3 -1 -13 -9 -21 -14 -14 -19 -14 -46 2 -17 9 -31 19 -31 22 0 7 104 59
108 55 2 -2 -4 -14 -12 -27z m191 -60 c-3 -8 -6 -5 -6 6 -1 11 2 17 5 13 3 -3
4 -12 1 -19z m-659 -10 c-5 -14 -100 -23 -127 -12 -26 10 14 22 77 23 39 1 53
-2 50 -11z m502 -57 c0 -10 -35 -21 -70 -21 l-25 1 25 14 c28 16 70 20 70 6z
m25 -31 c-11 -5 -29 -8 -40 -8 -16 0 -15 2 5 8 34 11 60 11 35 0z m109 -36
c34 -13 10 -29 -71 -47 -35 -8 -27 10 15 32 45 24 37 22 56 15z"/>
<path d="M360 304 c0 -34 4 -53 10 -49 6 3 10 28 10 56 0 27 -4 49 -10 49 -5
0 -10 -25 -10 -56z"/>
<path d="M464 116 c-11 -29 0 -61 21 -58 11 1 68 5 128 9 59 3 107 9 107 12 0
4 -47 12 -105 19 -58 6 -114 16 -125 22 -16 8 -22 8 -26 -4z"/>
<path d="M442 3 c109 -2 287 -2 395 0 109 1 20 2 -197 2 -217 0 -306 -1 -198
-2z"/>
</g>
</svg>
