<?xml version="1.0" standalone="no"?>
<!DOCTYPE svg PUBLIC "-//W3C//DTD SVG 20010904//EN"
 "http://www.w3.org/TR/2001/REC-SVG-20010904/DTD/svg10.dtd">
<svg version="1.0" xmlns="http://www.w3.org/2000/svg"
 width="140.000000pt" height="217.000000pt" viewBox="0 0 140.000000 217.000000"
 preserveAspectRatio="xMidYMid meet">
<metadata>
Created by potrace 1.16, written by Peter Selinger 2001-2019
</metadata>
<g transform="translate(0.000000,217.000000) scale(0.100000,-0.100000)"
fill="#000000" stroke="none">
<path d="M1054 2075 c-16 -24 -16 -28 1 -65 19 -43 15 -61 -10 -40 -10 8 -15
30 -15 61 0 27 -4 49 -8 49 -5 0 -19 -11 -32 -25 -23 -25 -23 -26 -7 -54 9
-16 17 -31 17 -34 0 -6 -89 -2 -95 5 -3 3 -10 53 -14 111 -2 15 -27 5 -44 -18
-16 -23 -16 -27 -2 -54 21 -41 19 -53 -7 -49 -19 2 -24 12 -32 58 -5 30 -11
57 -13 60 -5 5 -52 -52 -53 -64 0 -5 8 -18 18 -29 19 -21 22 -21 -135 0 -39 5
-43 3 -43 -17 0 -19 -4 -22 -30 -18 -17 3 -34 0 -37 -5 -3 -5 -7 -53 -9 -106
-4 -120 -26 -231 -50 -248 -17 -13 -17 -16 -2 -58 l17 -45 -37 -9 c-20 -6 -61
-15 -89 -21 -51 -11 -53 -13 -53 -46 0 -19 3 -34 8 -34 4 0 27 13 51 29 51 34
119 66 126 59 2 -2 6 -15 7 -28 3 -22 -3 -26 -77 -45 -78 -20 -80 -22 -83 -53
-4 -38 1 -39 42 -9 29 22 106 57 125 57 5 0 17 -29 26 -65 21 -75 18 -81 -56
-123 -27 -15 -49 -33 -49 -39 0 -21 20 -15 69 20 50 36 239 131 284 142 15 4
27 12 27 18 0 6 -18 32 -39 57 -49 58 -101 139 -101 158 0 26 109 169 149 195
48 32 51 33 51 8 0 -27 10 -51 22 -51 6 0 7 16 3 41 -5 30 -3 44 6 50 23 15
25 11 39 -61 12 -65 21 -82 34 -62 2 4 -2 32 -10 62 -8 30 -14 60 -14 66 0 10
68 42 95 45 6 0 15 -25 20 -57 6 -33 16 -59 24 -62 10 -3 12 0 8 12 -3 8 -9
39 -13 67 -5 38 -3 53 7 60 23 14 25 12 44 -66 11 -41 23 -75 28 -75 9 0 7 21
-12 119 l-9 43 54 24 c30 13 63 24 74 24 22 0 36 18 24 29 -5 4 -44 5 -86 2
l-77 -6 -3 65 c-3 74 -24 91 -54 45z m26 -47 c0 -19 -2 -20 -10 -8 -13 19 -13
30 0 30 6 0 10 -10 10 -22z m-290 -29 c0 -6 -4 -7 -10 -4 -5 3 -10 11 -10 16
0 6 5 7 10 4 6 -3 10 -11 10 -16z m-160 -43 c0 -2 -7 -7 -16 -10 -8 -3 -12 -2
-9 4 6 10 25 14 25 6z m175 -39 c7 -18 15 -46 17 -63 3 -25 -1 -29 -24 -32
-22 -3 -28 -8 -28 -29 0 -22 -3 -24 -26 -19 -21 6 -27 3 -31 -14 -3 -12 -27
-65 -53 -118 -35 -71 -56 -102 -79 -115 -17 -10 -31 -15 -31 -12 0 3 -9 1 -20
-5 -19 -10 -20 -8 -20 78 0 95 9 160 37 259 l18 63 50 10 c27 6 68 13 89 15
22 3 42 8 45 10 15 16 43 2 56 -28z m85 -16 c14 -51 13 -58 -11 -64 -16 -4
-24 1 -35 28 -8 19 -14 45 -14 58 0 20 4 23 25 19 18 -3 27 -14 35 -41z m130
16 c5 -17 10 -31 10 -33 0 -3 -104 -34 -107 -31 -6 6 -20 87 -16 91 3 3 27 4
54 4 44 -1 49 -4 59 -31z m68 6 c3 -17 -2 -23 -16 -23 -18 0 -32 18 -32 42 0
21 45 3 48 -19z m68 12 c-36 -19 -46 -19 -46 0 0 11 11 15 38 15 l37 0 -29
-15z m-613 -35 c-7 -28 -13 -25 -13 6 0 14 4 23 9 20 5 -3 7 -15 4 -26z m272
-110 c-3 -5 -10 -10 -16 -10 -5 0 -9 5 -9 10 0 6 7 10 16 10 8 0 12 -4 9 -10z
m-65 -44 c0 -2 -7 -9 -15 -16 -13 -11 -14 -10 -9 4 5 14 24 23 24 12z m-260
-216 c0 -20 -2 -22 -10 -10 -5 8 -10 26 -10 40 0 20 2 22 10 10 5 -8 10 -26
10 -40z m154 -16 c5 -14 4 -15 -9 -4 -17 14 -19 20 -6 20 5 0 12 -7 15 -16z
m20 -61 c32 -29 55 -57 52 -62 -9 -14 -157 -124 -161 -120 -5 6 -37 131 -33
133 2 1 26 11 53 21 53 19 72 31 63 40 -3 3 -30 -3 -59 -15 -68 -25 -69 -25
-69 4 0 27 38 53 76 52 11 -1 47 -25 78 -53z m92 -101 c-3 -2 -29 -15 -58 -29
l-53 -24 45 40 c33 29 48 36 58 29 7 -6 10 -13 8 -16z"/>
<path d="M450 1891 c-28 -16 -175 -51 -245 -58 l-70 -8 -3 -42 c-2 -24 -8 -43
-13 -43 -6 0 -9 -5 -7 -11 2 -6 34 -12 72 -15 38 -2 78 -7 89 -10 57 -18 188
-40 193 -33 3 5 -2 11 -10 14 -9 3 -23 7 -32 10 -33 11 10 171 47 177 22 3 27
22 7 25 -7 2 -20 -1 -28 -6z m-58 -119 c-2 -37 -5 -68 -6 -70 -2 -1 -11 1 -21
4 -14 6 -16 16 -13 60 4 50 24 92 37 78 3 -3 4 -36 3 -72z m-68 21 c10 -65 8
-75 -16 -71 -19 2 -23 9 -21 33 6 79 26 100 37 38z m-64 -29 c0 -37 -2 -39
-30 -24 -19 10 -18 30 3 57 15 20 27 5 27 -33z"/>
<path d="M1294 1266 c-3 -8 -2 -21 2 -28 5 -7 7 -21 6 -30 -2 -10 1 -18 7 -18
15 0 33 38 29 63 -4 26 -35 35 -44 13z"/>
<path d="M1052 1088 c-12 -19 -22 -39 -22 -43 0 -4 13 -24 29 -44 38 -48 43
-75 14 -79 -27 -4 -41 20 -57 99 -6 33 -16 60 -21 60 -5 0 -16 -17 -24 -39
-14 -38 -14 -40 17 -72 18 -18 32 -37 32 -41 0 -5 -31 -9 -69 -9 l-68 0 -11
43 c-7 23 -13 53 -14 66 -4 37 -21 35 -42 -3 l-18 -35 31 -33 31 -33 -26 -9
c-32 -10 -40 0 -49 60 -3 24 -10 46 -15 49 -6 3 -20 -15 -32 -41 -17 -35 -20
-48 -10 -51 6 -3 12 -9 12 -14 0 -5 -45 -9 -105 -8 l-104 1 6 29 c4 21 2 29
-9 29 -19 0 -68 -52 -68 -72 0 -10 -22 -26 -56 -42 -45 -21 -55 -29 -50 -43 4
-10 10 -62 13 -115 5 -82 4 -98 -9 -98 -8 0 -22 6 -31 12 -17 13 -15 48 8 171
5 25 4 37 -4 37 -6 0 -11 -4 -11 -8 0 -5 -15 -9 -33 -10 -18 -1 -46 -8 -63
-17 -16 -8 -36 -15 -44 -15 -8 0 -33 -7 -55 -14 -38 -13 -40 -17 -43 -58 -2
-23 -7 -47 -13 -52 -22 -23 -8 -34 44 -35 51 0 130 -12 302 -46 44 -8 81 -15
83 -15 10 0 -1 -66 -15 -86 -15 -24 -21 -26 -64 -20 -46 6 -49 5 -64 -25 -19
-36 -14 -47 18 -31 12 6 58 12 102 14 74 3 80 2 80 -17 0 -19 -7 -20 -97 -20
-89 0 -99 -2 -113 -22 -22 -31 -4 -37 58 -19 28 8 75 16 102 18 l50 3 1 -55
c2 -75 3 -80 14 -80 6 0 10 21 10 48 0 99 11 150 34 157 19 7 19 8 3 12 -14 3
-17 11 -13 26 3 12 6 25 6 30 0 15 19 6 64 -34 25 -22 46 -47 46 -55 0 -23
-70 -139 -132 -220 -32 -40 -58 -78 -58 -83 0 -5 -6 -11 -12 -14 -7 -2 -10 -8
-6 -12 8 -9 31 14 113 111 62 73 159 181 194 214 l26 25 -28 3 c-15 2 -39 2
-54 0 -33 -4 -63 34 -96 119 -21 55 -34 66 -43 36 -13 -42 -30 -66 -51 -74
-17 -6 -23 -17 -23 -39 0 -25 -4 -30 -25 -30 -14 0 -25 6 -25 13 0 31 246 307
273 307 7 0 22 3 33 6 19 5 24 -1 39 -45 9 -28 21 -51 26 -51 13 0 10 31 -6
60 -21 37 -18 55 10 68 25 11 27 10 45 -34 11 -25 20 -50 20 -55 0 -5 5 -9 10
-9 14 0 12 24 -6 70 -9 23 -15 42 -13 44 2 1 29 12 61 24 l56 21 23 -65 c12
-35 26 -64 31 -64 13 0 9 26 -12 82 -11 28 -19 53 -17 54 1 1 11 4 22 8 17 5
23 -4 45 -70 14 -42 30 -74 35 -72 13 4 9 34 -9 73 -8 17 -17 42 -21 56 -6 23
-2 27 32 37 21 6 47 13 57 14 11 2 21 8 23 15 3 9 -17 13 -69 15 l-73 3 -14
75 c-21 116 -23 120 -49 78z m18 -44 c0 -8 -5 -12 -10 -9 -6 4 -8 11 -5 16 9
14 15 11 15 -7z m-70 -34 c0 -5 -2 -10 -4 -10 -3 0 -8 5 -11 10 -3 6 -1 10 4
10 6 0 11 -4 11 -10z m-228 -65 c4 -20 3 -23 -8 -14 -16 13 -19 39 -5 39 5 0
11 -11 13 -25z m-264 -117 c-4 -31 -4 -29 -12 14 -5 26 -5 56 0 65 6 14 9 11
12 -14 2 -18 2 -48 0 -65z m370 47 c18 -39 15 -52 -14 -59 -15 -4 -27 -6 -28
-4 -1 2 -7 16 -14 31 -19 44 -15 57 16 57 21 0 32 -7 40 -25z m156 10 c3 -9 0
-18 -7 -20 -99 -36 -101 -36 -114 -18 -7 9 -13 25 -13 35 0 15 9 18 64 18 48
0 65 -4 70 -15z m61 5 c-3 -5 -13 -10 -21 -10 -8 0 -14 5 -14 10 0 6 9 10 21
10 11 0 17 -4 14 -10z m-495 -4 c0 -2 -11 -6 -25 -8 -14 -3 -25 -1 -25 3 0 5
11 9 25 9 14 0 25 -2 25 -4z m191 -35 c10 -19 16 -38 13 -42 -2 -4 -25 -11
-49 -15 -39 -5 -45 -9 -45 -31 0 -18 -4 -24 -15 -19 -13 5 -50 -38 -90 -106
-27 -45 -71 -108 -75 -108 -9 0 -12 179 -5 251 l7 68 56 12 c74 15 153 27 171
25 7 0 22 -16 32 -35z m-362 -153 c1 -86 -2 -108 -13 -108 -22 0 -31 108 -15
188 17 90 27 60 28 -80z m69 -19 l4 -107 -27 6 -28 5 7 79 c4 44 9 100 13 126
6 42 7 44 16 21 5 -13 12 -72 15 -130z m-208 16 c0 -75 -3 -82 -29 -66 -11 7
-12 22 -7 66 7 62 12 75 27 75 5 0 9 -34 9 -75z m470 71 c0 -2 -7 -7 -16 -10
-8 -3 -12 -2 -9 4 6 10 25 14 25 6z m-605 -32 c-32 -25 -55 -36 -55 -26 0 17
29 34 70 41 3 0 -4 -7 -15 -15z m73 -89 c-2 -3 -19 0 -36 6 -38 13 -42 39 -10
71 l22 22 15 -47 c8 -26 12 -49 9 -52z m457 56 c-3 -6 -11 -11 -17 -11 -6 0
-6 6 2 15 14 17 26 13 15 -4z m-545 -21 c0 -5 -4 -10 -10 -10 -5 0 -10 5 -10
10 0 6 5 10 10 10 6 0 10 -4 10 -10z m0 -38 c0 -4 -9 -8 -20 -8 -11 0 -20 4
-20 8 0 4 9 8 20 8 11 0 20 -4 20 -8z m514 -141 c-6 -6 -24 19 -24 34 1 6 7 1
15 -9 8 -11 12 -22 9 -25z m-73 -48 c-8 -15 -10 -15 -11 -2 0 17 10 32 18 25
2 -3 -1 -13 -7 -23z m193 -75 c-10 -12 -34 -38 -52 -58 l-33 -35 28 50 c29 53
40 65 62 65 11 0 9 -6 -5 -22z"/>
<path d="M610 360 c0 -5 5 -10 11 -10 5 0 7 5 4 10 -3 6 -8 10 -11 10 -2 0 -4
-4 -4 -10z"/>
<path d="M1212 191 c-20 -12 -10 -46 13 -46 14 0 20 7 20 24 0 27 -13 35 -33
22z"/>
</g>
</svg>
