<?xml version="1.0" standalone="no"?>
<!DOCTYPE svg PUBLIC "-//W3C//DTD SVG 20010904//EN"
 "http://www.w3.org/TR/2001/REC-SVG-20010904/DTD/svg10.dtd">
<svg version="1.0" xmlns="http://www.w3.org/2000/svg"
 width="130.000000pt" height="71.000000pt" viewBox="0 0 130.000000 71.000000"
 preserveAspectRatio="xMidYMid meet">
<metadata>
Created by potrace 1.16, written by Peter Selinger 2001-2019
</metadata>
<g transform="translate(0.000000,71.000000) scale(0.100000,-0.100000)"
fill="#000000" stroke="none">
<path d="M235 648 c-11 -7 -24 -13 -30 -14 -5 0 -16 -2 -24 -2 -8 -1 -11 -8
-6 -19 6 -16 34 -121 35 -133 0 -8 -82 -5 -110 4 -14 5 -33 15 -42 24 -10 8
-18 11 -19 6 -2 -22 3 -119 6 -123 2 -2 15 9 28 25 19 22 35 29 80 34 l56 6 6
-51 c3 -27 6 -76 8 -108 4 -98 20 -63 18 40 -1 53 -3 102 -4 107 -1 8 63 11
202 11 l204 0 12 -35 c7 -19 15 -89 18 -156 l7 -121 -66 66 c-69 69 -86 98
-86 144 1 30 -9 34 -35 12 -10 -8 -27 -22 -38 -30 -15 -12 -17 -18 -7 -22 24
-10 177 -141 206 -177 16 -20 34 -36 39 -36 7 0 8 57 3 159 l-7 159 26 30 c14
16 25 32 25 36 0 3 -115 2 -255 -1 -291 -7 -268 -15 -235 89 29 91 27 100 -15
76z m-5 -73 c-12 -32 -15 -31 -23 12 -5 25 -3 32 11 35 22 5 26 -11 12 -47z
m-140 -114 c0 -5 -7 -11 -15 -15 -9 -3 -15 0 -15 9 0 8 7 15 15 15 8 0 15 -4
15 -9z m594 -16 c-4 -8 -8 -15 -10 -15 -2 0 -4 7 -4 15 0 8 4 15 10 15 5 0 7
-7 4 -15z m-174 -131 c0 -8 -4 -12 -10 -9 -5 3 -10 10 -10 16 0 5 5 9 10 9 6
0 10 -7 10 -16z"/>
<path d="M788 625 c-6 -6 0 -63 7 -72 1 -2 33 4 71 12 38 8 126 18 195 22
l126 6 12 -35 c8 -23 11 -105 10 -231 l-1 -195 -65 -7 c-35 -4 -66 -5 -68 -3
-3 2 -6 80 -7 174 -2 124 0 175 10 192 18 32 7 42 -31 29 -17 -6 -33 -12 -35
-13 -2 -1 3 -26 12 -55 8 -30 17 -117 20 -193 l7 -139 -56 6 -55 6 0 -41 c0
-22 3 -38 8 -36 49 26 92 42 112 43 14 1 57 6 97 10 l72 8 1 176 c0 113 6 201
15 246 18 86 18 85 0 85 -11 0 -15 -11 -15 -37 0 -28 -3 -34 -10 -23 -5 8 -10
25 -10 36 0 21 -3 21 -172 20 -95 0 -189 3 -208 7 -19 5 -38 6 -42 2z m62 -35
c0 -5 -9 -10 -20 -10 -11 0 -20 5 -20 10 0 6 9 10 20 10 11 0 20 -4 20 -10z
m140 -500 c-19 -13 -30 -13 -30 0 0 6 10 10 23 10 18 0 19 -2 7 -10z"/>
<path d="M0 11 c0 -8 191 -11 652 -11 358 0 649 2 647 4 -2 2 -295 7 -651 11
-463 5 -648 4 -648 -4z"/>
</g>
</svg>
