<?xml version="1.0" standalone="no"?>
<!DOCTYPE svg PUBLIC "-//W3C//DTD SVG 20010904//EN"
 "http://www.w3.org/TR/2001/REC-SVG-20010904/DTD/svg10.dtd">
<svg version="1.0" xmlns="http://www.w3.org/2000/svg"
 width="115.000000pt" height="200.000000pt" viewBox="0 0 115.000000 200.000000"
 preserveAspectRatio="xMidYMid meet">
<metadata>
Created by potrace 1.16, written by Peter Selinger 2001-2019
</metadata>
<g transform="translate(0.000000,200.000000) scale(0.100000,-0.100000)"
fill="#000000" stroke="none">
<path d="M650 1950 c0 -11 -5 -20 -10 -20 -16 0 -139 -144 -195 -228 -15 -23
-29 -42 -31 -42 -5 0 -94 161 -94 170 0 18 -19 19 -49 4 -17 -8 -31 -20 -31
-25 0 -5 -11 -14 -24 -19 -23 -8 -24 -12 -15 -42 5 -18 9 -50 9 -71 l0 -39
-57 4 -58 3 -3 -37 c-3 -40 2 -43 40 -29 74 27 74 27 74 -50 0 -61 3 -72 26
-95 l25 -26 69 98 c38 54 72 102 76 108 3 5 19 -5 34 -23 15 -18 33 -38 39
-45 35 -37 136 -168 146 -190 l12 -26 36 33 c33 29 279 196 359 242 17 11 32
22 32 26 0 4 -55 52 -122 107 -121 98 -200 165 -246 210 -28 27 -42 28 -42 2z
m58 -49 c32 -27 27 -35 -8 -14 -16 9 -30 21 -30 25 0 13 13 9 38 -11z m48 -76
c59 -36 118 -75 131 -87 12 -11 39 -31 60 -44 l38 -23 -40 -1 c-22 -1 -89 -5
-150 -9 -60 -5 -113 -7 -116 -5 -6 3 5 79 17 117 4 14 -1 17 -30 17 l-35 0 6
-70 6 -70 -102 0 c-89 0 -101 2 -93 15 19 36 178 224 188 225 6 0 60 -29 120
-65z m-446 -40 c14 -19 14 -19 -2 -6 -10 7 -18 18 -18 24 0 6 1 8 3 6 1 -2 9
-13 17 -24z m-24 -16 c3 -6 1 -16 -5 -22 -6 -6 -11 -33 -11 -59 0 -39 -3 -48
-18 -48 -14 0 -17 8 -14 48 4 69 29 111 48 81z m65 -78 c26 -36 23 -43 -18
-47 -39 -4 -43 1 -31 44 11 40 21 40 49 3z m662 -56 c-1 -5 -9 -14 -19 -20
-10 -5 -38 -24 -64 -41 -25 -16 -90 -53 -146 -81 l-101 -51 -7 85 c-3 46 -4
89 -1 94 4 5 39 10 78 10 40 1 101 5 137 9 83 9 125 8 123 -5z m-674 -64 c-49
-54 -64 -62 -55 -28 3 12 6 34 6 49 0 24 4 27 43 30 23 2 44 2 46 1 2 -2 -16
-25 -40 -52z m309 -47 c2 -90 1 -102 -15 -108 -13 -5 -23 0 -33 16 -23 36
-132 162 -150 173 -17 11 44 20 140 20 l55 0 3 -101z m-508 92 c0 -3 -4 -8
-10 -11 -5 -3 -10 -1 -10 4 0 6 5 11 10 11 6 0 10 -2 10 -4z m122 -63 c-2 -32
-10 -65 -18 -73 -12 -12 -14 -4 -14 58 0 63 2 72 18 72 16 0 18 -7 14 -57z
m413 -157 c-16 -13 -32 -22 -35 -19 -6 5 41 42 55 43 6 0 -3 -11 -20 -24z"/>
<path d="M1112 1445 c1 -29 6 -45 14 -45 15 0 24 23 24 61 0 22 -5 29 -19 29
-16 0 -19 -7 -19 -45z"/>
<path d="M608 1273 c-9 -16 -29 -41 -45 -58 -16 -16 -57 -63 -92 -102 -35 -40
-67 -73 -71 -73 -9 0 -143 167 -160 199 -15 28 -26 18 -35 -31 -6 -32 -4 -38
9 -38 10 0 14 -5 11 -10 -5 -8 -11 -7 -20 0 -22 18 -60 8 -58 -15 2 -11 6 -44
9 -73 l7 -53 -69 2 c-67 2 -69 1 -66 -22 4 -38 17 -42 72 -24 28 9 54 15 57
12 4 -5 21 -168 23 -224 0 -24 26 -13 44 20 11 17 33 48 50 68 17 20 51 62 76
93 l45 56 34 -37 c19 -21 66 -73 105 -116 44 -49 72 -88 73 -104 4 -51 20 -49
85 11 54 49 158 131 335 264 23 18 43 36 43 40 0 4 -19 18 -42 30 -172 87
-283 152 -286 167 -2 10 -10 14 -19 11 -9 -4 -31 3 -50 14 -44 26 -45 25 -65
-7z m54 -42 c13 -5 32 -12 43 -16 17 -5 18 -8 4 -15 -13 -7 -15 -38 -18 -184
-1 -118 2 -176 9 -176 9 0 17 192 11 272 -2 22 1 26 19 21 21 -6 21 -10 18
-129 -2 -94 0 -124 10 -124 9 0 12 37 12 151 0 130 -2 150 -15 145 -9 -3 -15
0 -15 8 0 12 6 12 31 3 l31 -12 -4 -150 c-3 -138 -5 -150 -23 -160 -11 -5 -37
-20 -56 -32 -20 -13 -39 -23 -43 -23 -3 0 -6 88 -6 195 0 132 -3 195 -11 195
-7 0 -9 -65 -8 -207 3 -190 2 -208 -14 -211 -20 -4 -19 -13 -16 148 5 241 4
285 -6 280 -5 -3 -10 -34 -11 -70 0 -36 -2 -123 -3 -195 l-2 -130 -42 46 c-38
41 -64 71 -121 137 -18 21 -18 22 64 110 45 49 88 99 96 111 17 23 31 26 66
12z m365 -175 c3 -3 -155 -127 -187 -147 l-25 -16 3 137 3 138 102 -55 c56
-31 103 -56 104 -57z m-711 29 l59 -54 -45 -1 c-25 0 -55 -3 -67 -6 -22 -6
-23 -4 -23 55 0 33 4 61 8 61 5 0 35 -25 68 -55z m-101 -5 c7 -40 2 -60 -16
-60 -5 0 -9 23 -9 50 0 60 16 66 25 10z m102 -130 c-34 -33 -65 -60 -69 -60
-5 0 -8 24 -8 54 l0 55 38 4 c20 2 51 4 69 5 l32 2 -62 -60z m-96 -21 c6 -61
1 -78 -23 -79 -5 0 -8 34 -8 76 0 56 3 75 13 72 7 -3 15 -31 18 -69z m-8 -114
c-3 -9 -8 -14 -10 -11 -3 3 -2 9 2 15 9 16 15 13 8 -4z m457 -50 c-13 -14 -28
-25 -34 -25 -6 1 3 12 19 25 39 32 45 32 15 0z"/>
<path d="M560 651 c-16 -30 -12 -49 11 -56 20 -7 19 -9 -18 -49 -22 -22 -66
-74 -98 -114 -31 -39 -61 -72 -65 -72 -5 0 -38 41 -74 90 -37 50 -71 90 -75
90 -5 0 -12 -13 -16 -29 -3 -16 -12 -35 -20 -41 -10 -8 -11 -19 -4 -43 5 -18
9 -42 9 -54 0 -20 -5 -23 -40 -23 -22 0 -40 -4 -40 -9 0 -5 -11 -19 -24 -32
-14 -13 -23 -26 -21 -30 3 -3 31 1 64 10 33 8 63 13 66 9 4 -3 8 -30 10 -60 4
-66 14 -108 27 -108 5 0 17 14 26 31 9 17 39 60 65 94 l48 64 82 -97 c45 -53
85 -98 89 -100 4 -2 8 -24 8 -48 0 -24 3 -44 6 -44 3 0 24 15 47 34 55 45 168
111 316 185 141 71 161 83 161 96 0 5 -35 29 -78 53 -42 23 -84 47 -92 52 -8
5 -85 51 -170 101 -85 51 -159 98 -163 105 -11 19 -25 17 -37 -5z m76 -59 c-6
-5 -56 21 -56 29 0 5 13 0 29 -9 16 -9 28 -18 27 -20z m107 -66 c37 -16 46
-29 27 -41 -6 -3 -7 -30 -3 -65 5 -52 4 -60 -11 -60 -15 0 -17 9 -15 65 3 72
-4 88 -26 59 -13 -17 -14 -17 -15 -1 0 20 -13 22 -29 3 -7 -8 -9 -35 -4 -75 6
-62 6 -63 -18 -59 -22 3 -24 7 -21 47 1 24 7 52 12 62 14 25 -7 36 -26 13 -9
-12 -13 -32 -10 -51 5 -38 -3 -75 -15 -68 -8 6 -5 63 6 116 4 16 2 29 -3 29
-18 0 -32 -46 -30 -94 2 -34 -1 -50 -10 -54 -11 -3 -13 8 -10 54 3 51 1 59
-14 58 -12 -1 0 17 35 56 l51 58 46 -18 c25 -10 62 -26 83 -34z m-479 -42 c5
-14 4 -15 -9 -4 -17 14 -19 20 -6 20 5 0 12 -7 15 -16z m556 -86 c6 -165 5
-181 -6 -185 -18 -6 -30 117 -13 129 11 7 11 11 2 15 -20 8 -14 133 6 133 4 0
9 -42 11 -92z m162 -8 c40 -21 74 -42 75 -47 2 -4 -44 -32 -102 -60 l-105 -52
-1 42 c-1 23 -3 62 -5 87 -2 25 -1 60 2 78 l5 33 29 -21 c16 -11 62 -38 102
-60z m-714 29 c-10 -7 -10 -11 0 -21 19 -19 16 -62 -4 -54 -9 3 -18 6 -20 6
-2 0 -4 25 -4 57 0 56 0 56 20 38 16 -14 17 -20 8 -26z m451 -31 c1 -19 -4
-28 -14 -28 -11 0 -15 11 -15 38 0 21 3 42 7 46 9 9 21 -21 22 -56z m-205 0
c7 -37 6 -38 -26 -39 -18 0 -41 -2 -50 -4 -10 -2 -18 -1 -18 2 0 15 73 93 80
86 4 -4 11 -25 14 -45z m-145 -38 c1 -3 -14 -6 -31 -5 -20 0 -33 5 -32 13 4
45 3 44 33 20 17 -13 30 -25 30 -28z m404 -82 c3 -40 4 -74 2 -76 -2 -3 -11
-2 -20 1 -21 9 -22 147 -1 147 9 0 15 -21 19 -72z m-257 -2 l1 -59 -48 54
c-44 50 -46 54 -26 59 12 3 33 6 47 5 24 0 25 -3 26 -59z m90 -84 c9 -88 23
-48 17 53 l-5 95 25 0 c25 0 26 -1 29 -91 l3 -91 -34 -14 c-56 -23 -61 -16
-61 89 0 98 13 144 17 60 2 -26 5 -72 9 -101z m116 71 c3 -72 -3 -92 -24 -93
-5 0 -8 38 -8 85 0 67 3 85 14 85 11 0 15 -19 18 -77z m-389 45 c-24 -23 -40
-20 -30 7 4 8 17 15 29 15 l22 0 -21 -22z m227 -60 c-1 -75 -2 -81 -15 -64
-21 28 -21 146 0 146 12 0 15 -16 15 -82z m-276 56 c11 -28 6 -49 -13 -61 -17
-10 -19 -8 -25 19 -3 17 -6 37 -6 44 0 19 36 18 44 -2z m-4 -93 c-11 -21 -30
-37 -30 -25 0 8 30 44 37 44 2 0 -1 -9 -7 -19z m360 -95 c0 -2 -7 -7 -16 -10
-8 -3 -12 -2 -9 4 6 10 25 14 25 6z"/>
<path d="M1135 128 c-4 -10 -4 -26 0 -35 8 -17 8 -17 12 0 3 9 3 25 0 35 -4
16 -4 16 -12 0z"/>
</g>
</svg>
