<?xml version="1.0" standalone="no"?>
<!DOCTYPE svg PUBLIC "-//W3C//DTD SVG 20010904//EN"
 "http://www.w3.org/TR/2001/REC-SVG-20010904/DTD/svg10.dtd">
<svg version="1.0" xmlns="http://www.w3.org/2000/svg"
 width="124.000000pt" height="68.000000pt" viewBox="0 0 124.000000 68.000000"
 preserveAspectRatio="xMidYMid meet">
<metadata>
Created by potrace 1.16, written by Peter Selinger 2001-2019
</metadata>
<g transform="translate(0.000000,68.000000) scale(0.100000,-0.100000)"
fill="#000000" stroke="none">
<path d="M630 617 c0 -7 20 -23 45 -35 25 -12 45 -26 45 -32 0 -17 -26 -11
-64 15 -43 29 -46 30 -46 12 0 -8 18 -22 40 -32 22 -10 40 -21 40 -24 0 -3
-12 -14 -25 -24 -24 -17 -26 -17 -68 8 -48 27 -57 30 -57 15 0 -5 18 -19 40
-30 38 -19 53 -40 30 -40 -6 0 -21 -12 -33 -26 l-22 -25 -49 26 c-50 27 -63
27 -53 1 4 -9 24 -19 46 -22 35 -6 38 -8 28 -25 -9 -14 -8 -22 6 -37 26 -28
21 -37 -33 -62 -27 -13 -50 -26 -50 -30 0 -4 9 -15 19 -24 18 -16 21 -16 60 4
23 11 41 25 41 30 0 14 -5 13 -50 -10 -54 -28 -51 -18 5 13 l44 25 26 -46 c14
-25 35 -67 47 -92 11 -25 22 -39 25 -33 2 7 -12 46 -31 87 -28 58 -36 87 -36
131 0 52 21 115 38 115 4 0 29 21 55 45 78 72 115 56 57 -24 -17 -23 -28 -46
-24 -52 3 -6 3 -26 -1 -46 -6 -32 -7 -34 -20 -17 -11 16 -11 22 2 37 22 23 12
30 -15 11 -24 -17 -29 -49 -9 -57 13 -5 87 -123 87 -139 0 -5 -19 -8 -42 -6
l-42 3 -2 -38 c-2 -20 0 -37 3 -37 3 0 18 11 34 24 19 17 61 32 126 46 54 12
127 31 163 42 86 26 110 31 110 18 0 -5 -3 -10 -7 -10 -5 0 -19 -9 -32 -19
-23 -17 -23 -19 -6 -44 19 -29 35 -27 35 5 0 11 9 31 20 45 15 19 17 29 9 39
-6 7 -9 28 -7 46 2 26 -1 33 -15 32 -23 -2 -22 5 8 36 22 23 24 30 15 60 -6
19 -10 52 -10 72 0 44 -11 48 -34 13 -21 -31 -20 -37 5 -64 12 -12 18 -25 15
-28 -3 -3 -39 8 -81 26 -41 17 -80 31 -86 31 -20 0 -154 66 -168 83 -17 21
-41 22 -41 2 0 -21 -5 -19 -55 15 -49 34 -55 36 -55 17z m214 -102 c34 -15 37
-18 34 -53 -3 -39 -6 -40 -76 -33 -23 2 -2 21 24 21 13 0 24 5 24 10 0 6 -10
10 -23 10 -31 0 -35 5 -29 35 5 30 1 29 46 10z m101 -35 c6 -4 41 -17 79 -30
47 -16 64 -25 55 -31 -13 -8 -162 -59 -174 -59 -3 0 -5 31 -5 70 0 71 6 78 45
50z m-166 -120 c1 -60 -3 -110 -7 -110 -12 0 -32 61 -32 96 0 28 27 124 35
124 2 0 4 -49 4 -110z m96 39 c4 -6 -2 -13 -14 -16 -25 -6 -28 -25 -3 -21 17
3 18 0 14 -55 -2 -20 -6 -22 -37 -19 -44 5 -48 32 -5 32 17 0 30 5 30 10 0 6
-13 10 -29 10 -17 0 -33 5 -36 10 -3 6 3 10 14 10 12 0 21 7 21 15 0 8 -9 15
-21 15 -11 0 -17 5 -14 10 8 13 72 13 80 -1z m203 -13 c-23 -17 -22 -22 2 -53
11 -14 20 -29 20 -33 0 -8 -154 31 -165 41 -3 4 29 18 72 32 94 30 92 30 71
13z m-498 -38 c0 -39 -1 -40 -15 -22 -23 31 -19 53 13 63 1 1 2 -18 2 -41z
m413 -44 c37 -10 67 -21 67 -24 0 -7 -128 -40 -154 -40 -14 0 -16 9 -15 46 2
36 6 44 18 41 9 -3 46 -13 84 -23z m-123 -54 c0 -5 -13 -10 -29 -10 -17 0 -33
5 -36 10 -4 6 8 10 29 10 20 0 36 -4 36 -10z"/>
<path d="M815 500 c-8 -13 8 -18 29 -10 19 6 19 7 -2 12 -12 4 -24 2 -27 -2z"/>
<path d="M133 553 c-9 -3 -11 -21 -6 -64 3 -32 3 -59 -1 -59 -4 0 -21 7 -37
16 -17 8 -32 14 -34 12 -1 -2 -5 -20 -9 -40 -8 -42 4 -49 38 -23 34 25 46 18
46 -25 0 -22 5 -40 10 -40 6 0 10 18 10 40 0 38 1 40 32 40 l31 0 -22 -24 -23
-24 30 -41 c16 -22 38 -70 47 -106 10 -37 23 -64 29 -62 6 2 32 57 58 122 26
65 57 128 69 141 26 28 15 34 -41 24 -25 -5 -82 -9 -127 -10 -92 0 -91 0 -68
65 8 22 15 46 15 53 0 12 -24 15 -47 5z m237 -143 c0 -5 -5 -10 -11 -10 -5 0
-7 5 -4 10 3 6 8 10 11 10 2 0 4 -4 4 -10z m-40 -37 c0 -21 -12 -71 -27 -112
l-27 -75 -14 50 c-27 99 -32 120 -32 147 0 26 2 27 50 27 l50 0 0 -37z"/>
<path d="M576 551 c-7 -11 38 -41 61 -41 14 0 11 5 -9 18 -16 9 -28 20 -28 24
0 11 -18 10 -24 -1z"/>
<path d="M510 498 c0 -13 52 -48 71 -48 20 0 7 16 -31 38 -27 15 -40 19 -40
10z"/>
<path d="M470 468 c0 -16 78 -50 85 -38 3 5 -12 18 -34 30 -47 23 -51 24 -51
8z"/>
<path d="M538 209 c-35 -18 -50 -39 -29 -39 16 0 81 41 81 51 0 13 -10 11 -52
-12z"/>
<path d="M563 170 c-28 -17 -44 -40 -29 -40 15 0 75 44 70 51 -7 11 -4 12 -41
-11z"/>
<path d="M568 132 c-16 -10 -28 -23 -28 -29 0 -18 5 -16 45 10 55 35 39 53
-17 19z"/>
<path d="M593 93 c-13 -8 -23 -19 -23 -24 0 -17 27 -9 50 16 27 29 9 34 -27 8z"/>
</g>
</svg>
