<?xml version="1.0" standalone="no"?>
<!DOCTYPE svg PUBLIC "-//W3C//DTD SVG 20010904//EN"
 "http://www.w3.org/TR/2001/REC-SVG-20010904/DTD/svg10.dtd">
<svg version="1.0" xmlns="http://www.w3.org/2000/svg"
 width="86.000000pt" height="43.000000pt" viewBox="0 0 86.000000 43.000000"
 preserveAspectRatio="xMidYMid meet">
<metadata>
Created by potrace 1.16, written by Peter Selinger 2001-2019
</metadata>
<g transform="translate(0.000000,43.000000) scale(0.100000,-0.100000)"
fill="#000000" stroke="none">
<path d="M403 342 c-4 -8 -1 -35 5 -59 22 -81 21 -83 -53 -83 l-65 0 0 -33 c0
-43 7 -49 39 -33 14 8 40 17 58 20 28 6 32 4 35 -16 2 -13 9 -22 16 -21 6 2
12 -2 12 -7 0 -25 19 -6 23 23 l4 32 1 -32 c1 -18 5 -33 10 -33 17 1 31 17 35
45 l4 30 2 -32 c1 -41 21 -44 21 -3 l0 30 90 0 90 0 -2 -40 c-2 -21 2 -40 7
-42 6 -2 13 35 18 87 4 50 13 104 21 121 8 18 12 35 9 38 -4 3 -70 6 -147 6
-78 1 -160 5 -184 9 -35 7 -45 6 -49 -7z m329 -44 c2 -13 1 -40 -1 -60 -3 -38
-3 -38 -50 -39 -25 -1 -65 -3 -89 -3 -43 -2 -43 -2 -40 29 3 37 -20 65 -48 61
-15 -2 -20 -14 -25 -52 l-6 -49 -1 48 c-2 59 -19 62 -25 5 -4 -39 -4 -38 -3 7
l1 50 65 11 c36 7 100 12 142 13 72 1 77 0 80 -21z"/>
<path d="M92 307 c-27 -29 -29 -78 -4 -100 57 -52 139 33 102 104 -15 28 -70
25 -98 -4z m76 -35 c7 -44 -41 -70 -68 -37 -10 12 -9 20 4 41 22 32 59 30 64
-4z"/>
</g>
</svg>
