<?xml version="1.0" standalone="no"?>
<!DOCTYPE svg PUBLIC "-//W3C//DTD SVG 20010904//EN"
 "http://www.w3.org/TR/2001/REC-SVG-20010904/DTD/svg10.dtd">
<svg version="1.0" xmlns="http://www.w3.org/2000/svg"
 width="115.000000pt" height="192.000000pt" viewBox="0 0 115.000000 192.000000"
 preserveAspectRatio="xMidYMid meet">
<metadata>
Created by potrace 1.16, written by Peter Selinger 2001-2019
</metadata>
<g transform="translate(0.000000,192.000000) scale(0.100000,-0.100000)"
fill="#000000" stroke="none">
<path d="M288 1913 c161 -2 422 -2 580 0 158 1 26 2 -293 2 -319 0 -448 -1
-287 -2z"/>
<path d="M840 1855 c-19 -14 -60 -42 -90 -64 -31 -22 -68 -45 -83 -52 -31 -14
-34 -25 -12 -49 14 -15 14 -21 0 -53 -14 -34 -28 -42 -62 -38 -10 2 -13 -43
-13 -194 0 -107 4 -195 9 -195 4 0 11 46 14 103 6 92 36 249 51 264 8 9 98
-27 122 -48 11 -11 26 -19 32 -19 7 0 15 -7 18 -15 11 -28 31 -15 43 28 7 23
28 66 47 95 l35 53 -25 62 c-13 34 -27 81 -31 105 -4 23 -10 42 -13 41 -4 0
-23 -11 -42 -24z m40 -32 c0 -13 -3 -13 -15 -3 -8 7 -12 16 -9 21 8 13 24 1
24 -18z m-18 -30 c38 -40 63 -108 51 -136 -16 -33 -93 -117 -108 -117 -16 0
-76 56 -100 92 -12 19 -15 37 -10 55 6 28 110 133 131 133 5 0 22 -12 36 -27z
m-162 -194 c0 -5 -7 -6 -15 -3 -8 4 -15 13 -15 21 0 13 3 13 15 3 8 -7 15 -16
15 -21z m-81 -56 c-16 -60 -17 -61 -18 -10 -1 34 3 47 13 47 12 0 13 -7 5 -37z
m227 -30 c-10 -10 -19 5 -10 18 6 11 8 11 12 0 2 -7 1 -15 -2 -18z"/>
<path d="M195 1715 c-27 -12 -29 -17 -26 -55 l3 -43 -44 6 c-24 3 -52 9 -61
13 -14 5 -17 -1 -17 -40 0 -44 13 -59 34 -39 7 7 76 33 89 33 5 0 7 -37 6 -82
-1 -53 2 -83 9 -86 7 -2 12 24 14 80 l3 83 171 -4 c119 -2 173 0 178 8 5 8
-24 11 -101 12 -59 1 -117 2 -128 3 -11 1 -40 3 -64 4 -42 2 -43 3 -37 30 23
100 23 100 -29 77z m14 -37 c0 -7 -4 -22 -9 -33 -7 -17 -9 -15 -9 13 -1 17 4
32 9 32 6 0 10 -6 9 -12z m-109 -77 c0 -5 -7 -11 -15 -15 -9 -3 -15 0 -15 9 0
8 7 15 15 15 8 0 15 -4 15 -9z"/>
<path d="M436 1466 l-38 -32 25 -17 c25 -16 113 -187 124 -239 3 -15 9 -28 14
-28 17 0 9 40 -25 122 -20 49 -37 111 -41 150 -3 37 -10 70 -14 72 -4 3 -24
-10 -45 -28z m34 -26 c0 -13 -5 -18 -14 -14 -8 3 -12 12 -9 20 8 21 23 17 23
-6z"/>
<path d="M962 1311 c-18 -11 -4 -91 15 -91 13 0 33 38 33 65 0 19 -33 36 -48
26z"/>
<path d="M543 1091 c-56 -32 -81 -61 -53 -61 17 0 11 -26 -10 -45 -26 -23 -26
-45 1 -45 20 0 109 -57 109 -70 0 -4 -69 -10 -154 -14 -85 -3 -168 -9 -185
-12 -28 -6 -31 -4 -31 20 0 15 7 41 16 58 21 41 6 54 -35 31 -32 -18 -33 -24
-14 -87 5 -17 1 -18 -45 -12 l-51 7 3 -36 c2 -20 6 -38 8 -41 3 -3 22 3 42 12
19 10 38 15 41 13 2 -3 8 -30 12 -60 11 -70 29 -61 25 12 l-4 56 134 6 c73 4
142 9 153 11 11 3 37 5 58 5 26 1 39 6 44 19 15 46 47 104 59 109 8 3 14 10
14 16 0 15 -63 147 -70 146 -3 -1 -33 -17 -67 -38z m72 -19 c-8 -8 -25 10 -19
20 4 6 9 5 15 -3 4 -7 6 -15 4 -17z m10 -38 l35 -36 -22 -28 c-50 -61 -77 -59
-105 8 -12 29 -11 35 9 62 12 17 28 30 35 30 7 0 29 -16 48 -36z"/>
<path d="M649 902 c-23 -19 -23 -23 -24 -186 0 -198 17 -220 27 -35 4 68 14
145 21 170 18 59 9 77 -24 51z m-2 -54 c-3 -8 -6 -5 -6 6 -1 11 2 17 5 13 3
-3 4 -12 1 -19z"/>
<path d="M494 765 c-16 -31 -17 -38 -4 -58 7 -12 22 -38 32 -57 10 -19 24 -44
31 -55 6 -11 13 -22 14 -24 1 -1 6 0 12 3 6 4 0 30 -15 67 -14 33 -26 81 -28
107 -2 25 -8 48 -13 49 -5 2 -18 -12 -29 -32z"/>
<path d="M784 678 c9 -57 22 -69 36 -33 16 42 9 69 -19 73 -23 4 -24 2 -17
-40z"/>
<path d="M203 553 c-31 -15 -33 -20 -33 -66 l0 -49 -57 7 c-31 4 -62 9 -70 12
-9 4 -13 -6 -13 -36 0 -23 2 -41 5 -41 2 0 30 7 62 15 84 22 82 23 85 -52 2
-51 7 -68 17 -68 12 0 14 13 12 60 -1 33 -3 65 -4 70 -1 6 69 9 198 7 l200 -3
0 -59 c-1 -33 -2 -111 -3 -172 l-3 -113 -25 30 c-46 55 -131 190 -138 218 -9
37 -20 34 -45 -14 -23 -43 -21 -59 7 -59 27 -1 56 -28 129 -120 38 -46 73 -84
78 -85 6 0 13 61 16 150 7 151 19 207 55 246 21 23 7 29 -46 19 -25 -5 -129
-9 -232 -10 l-187 0 16 48 c9 26 20 51 24 57 26 28 0 32 -48 8z m-2 -70 c-9
-16 -10 -15 -11 8 0 14 3 29 8 33 12 12 14 -22 3 -41z m229 -214 c0 -5 -4 -9
-10 -9 -5 0 -10 7 -10 16 0 8 5 12 10 9 6 -3 10 -10 10 -16z"/>
<path d="M943 458 c-9 -15 -103 -78 -151 -102 -25 -13 -32 -22 -27 -36 3 -10
0 -29 -7 -41 -10 -16 -10 -23 -1 -26 6 -2 36 -22 67 -44 43 -31 57 -47 62 -74
3 -19 10 -35 15 -35 5 0 20 17 33 38 13 20 51 60 85 87 33 28 61 55 61 61 0 5
-16 26 -36 45 -37 35 -74 97 -74 124 0 18 -16 20 -27 3z m47 -108 l65 -60 -50
-44 c-27 -24 -62 -51 -76 -60 -24 -14 -27 -13 -76 34 -34 32 -52 59 -55 79 -2
17 -1 31 4 31 5 0 31 18 59 40 28 22 54 40 57 40 4 -1 36 -27 72 -60z"/>
<path d="M1007 24 c-14 -14 -6 -24 19 -24 16 0 24 5 22 13 -5 14 -31 21 -41
11z"/>
</g>
</svg>
