<?xml version="1.0" standalone="no"?>
<!DOCTYPE svg PUBLIC "-//W3C//DTD SVG 20010904//EN"
 "http://www.w3.org/TR/2001/REC-SVG-20010904/DTD/svg10.dtd">
<svg version="1.0" xmlns="http://www.w3.org/2000/svg"
 width="140.000000pt" height="197.000000pt" viewBox="0 0 140.000000 197.000000"
 preserveAspectRatio="xMidYMid meet">
<metadata>
Created by potrace 1.16, written by Peter Selinger 2001-2019
</metadata>
<g transform="translate(0.000000,197.000000) scale(0.100000,-0.100000)"
fill="#000000" stroke="none">
<path d="M960 1895 c-12 -13 -26 -22 -31 -20 -4 3 -20 -7 -35 -21 -26 -27 -26
-28 -10 -56 17 -27 17 -28 -6 -28 -37 1 -112 20 -119 31 -3 6 -5 32 -3 60 3
59 -13 65 -40 14 -15 -27 -17 -38 -8 -47 19 -19 14 -28 -13 -28 -23 0 -25 4
-25 45 0 25 -4 45 -9 45 -5 0 -23 -16 -40 -35 l-31 -36 -76 16 c-42 9 -77 14
-78 13 -1 -2 -7 -15 -13 -30 -8 -17 -22 -28 -42 -33 -40 -9 -44 -17 -26 -51 8
-15 12 -30 10 -33 -10 -9 -44 33 -65 81 l-21 50 -24 -26 c-13 -15 -22 -32 -19
-40 3 -9 -20 -26 -71 -52 -70 -36 -75 -41 -73 -68 4 -41 19 -42 47 -1 28 41
40 43 70 11 l23 -25 -28 -25 c-40 -36 -65 -42 -80 -21 -12 16 -14 16 -38 0
-21 -14 -34 -34 -23 -35 1 -1 20 -3 42 -6 22 -3 71 -21 109 -40 38 -19 72 -34
76 -34 4 0 11 12 14 27 7 25 62 113 71 113 3 0 5 -20 5 -45 0 -41 -2 -45 -25
-45 -30 0 -30 -6 -8 -51 9 -19 19 -67 21 -112 l5 -79 -68 4 c-37 1 -67 0 -66
-4 0 -5 1 -14 1 -20 1 -34 16 -40 51 -22 42 21 80 24 86 6 10 -25 -16 -36 -78
-34 -53 2 -61 0 -55 -14 3 -8 6 -23 6 -31 0 -12 7 -14 37 -8 21 4 40 10 43 13
3 4 15 8 28 9 20 3 22 -1 22 -47 0 -28 2 -50 5 -50 3 0 56 30 118 68 125 75
169 94 210 93 22 -1 28 3 25 16 -2 10 -12 19 -23 21 -11 2 -30 8 -43 15 -18 9
-25 8 -32 -2 -4 -8 -12 -11 -17 -8 -21 13 -125 169 -117 176 34 29 94 71 122
85 28 14 31 20 21 32 -14 17 -12 19 18 28 23 7 25 4 38 -61 6 -32 15 -40 27
-27 4 3 -1 26 -9 50 -17 51 -18 50 19 59 25 6 27 4 35 -36 5 -23 15 -45 22
-47 14 -5 13 13 -5 74 -7 26 3 30 84 40 l59 6 12 -61 c7 -33 17 -61 23 -61 10
0 9 20 -8 98 -5 25 -3 32 9 32 9 0 18 -10 22 -22 18 -67 29 -98 36 -98 17 0
18 19 4 46 -16 31 -20 73 -7 75 4 0 66 6 137 12 104 10 130 15 130 27 0 11
-16 17 -55 22 -202 26 -249 34 -255 39 -3 4 -1 34 6 68 16 74 5 94 -31 56z
m20 -32 c0 -5 -5 -15 -10 -23 -8 -12 -10 -11 -10 8 0 12 5 22 10 22 6 0 10 -3
10 -7z m-23 -67 c5 -31 3 -35 -11 -30 -11 4 -16 18 -16 47 0 50 18 39 27 -17z
m-307 29 c0 -8 -4 -15 -10 -15 -5 0 -10 7 -10 15 0 8 5 15 10 15 6 0 10 -7 10
-15z m-170 -15 c12 -8 11 -10 -7 -10 -13 0 -23 5 -23 10 0 13 11 13 30 0z
m169 -69 c28 -65 27 -81 -3 -81 -17 0 -26 -7 -30 -25 -4 -14 -12 -25 -20 -25
-7 0 -16 -14 -20 -30 -6 -32 -20 -48 -104 -118 -29 -24 -52 -47 -52 -50 0 -4
18 -15 39 -25 21 -9 65 -41 97 -71 l59 -54 -19 -21 c-11 -12 -52 -40 -93 -62
-40 -22 -75 -44 -78 -50 -12 -19 -25 -8 -25 20 0 16 6 31 15 35 8 3 15 10 15
16 0 5 -7 10 -15 10 -11 0 -15 12 -16 43 -3 86 3 178 16 219 10 35 10 45 -1
53 -24 18 -17 226 8 241 14 9 103 21 159 23 47 1 47 1 68 -48z m77 31 c6 -4
14 -20 18 -37 4 -16 9 -38 12 -47 4 -15 -1 -18 -30 -18 -22 0 -36 5 -36 13 -1
6 -5 31 -9 55 -8 39 -7 42 13 42 11 0 26 -4 32 -8z m128 -18 c59 -6 65 -9 69
-33 3 -14 2 -29 -1 -32 -4 -4 -37 -9 -74 -13 l-67 -6 -10 37 c-15 52 -14 66 4
59 8 -3 44 -8 79 -12z m-467 -16 c-3 -8 -6 -5 -6 6 -1 11 2 17 5 13 3 -3 4
-12 1 -19z m-67 -34 c28 -26 50 -52 50 -58 0 -13 -58 -73 -63 -65 -1 2 -11 14
-21 27 -19 22 -19 22 4 47 27 28 20 47 -8 22 -26 -23 -41 -21 -54 8 -9 21 -8
27 13 44 13 11 25 20 27 21 2 0 25 -21 52 -46z m660 5 c0 -11 -6 -19 -14 -19
-15 0 -29 37 -20 52 9 13 34 -12 34 -33z m130 17 l75 -12 -49 -7 c-27 -4 -68
-7 -92 -7 -37 0 -44 3 -44 20 0 23 5 23 110 6z m-445 -96 c-3 -5 -10 -10 -16
-10 -5 0 -9 5 -9 10 0 6 7 10 16 10 8 0 12 -4 9 -10z m-388 -42 l23 -22 -22
-23 c-25 -27 -37 -28 -63 -9 -18 13 -18 14 4 45 27 37 28 37 58 9z m119 -104
c-3 -9 -6 -20 -6 -25 0 -6 -4 -7 -10 -4 -16 10 -12 45 6 45 11 0 14 -5 10 -16z
m102 -74 c14 -23 5 -26 -20 -6 -10 7 -15 16 -11 19 10 11 18 8 31 -13z"/>
<path d="M820 1580 c0 -5 5 -10 10 -10 6 0 10 5 10 10 0 6 -4 10 -10 10 -5 0
-10 -4 -10 -10z"/>
<path d="M1282 1228 c-8 -8 -8 -17 -1 -30 5 -10 8 -22 5 -26 -7 -12 11 -35 22
-28 17 10 25 65 12 81 -15 18 -22 19 -38 3z"/>
<path d="M955 1001 c-3 -5 6 -44 20 -87 38 -118 35 -126 -45 -105 -19 5 -52
12 -73 16 l-39 6 4 76 3 77 -29 7 c-17 5 -32 6 -34 4 -3 -2 5 -39 16 -81 l21
-76 -31 6 c-17 3 -34 6 -39 6 -5 0 -9 29 -9 65 l0 65 -35 0 c-19 0 -35 -3 -35
-7 0 -5 9 -32 20 -60 11 -29 19 -53 17 -53 -1 0 -36 10 -77 21 -106 29 -114
29 -118 -3 -3 -24 -6 -27 -33 -21 -16 3 -29 2 -29 -3 1 -5 7 -53 14 -108 7
-54 14 -148 15 -210 l2 -111 -108 3 c-59 1 -117 3 -128 5 -16 1 -21 -5 -23
-30 -3 -35 6 -40 39 -23 10 6 64 14 119 18 l100 8 0 -48 0 -48 -77 -1 c-181
-3 -168 0 -171 -38 -3 -31 -2 -33 20 -26 79 24 121 33 174 36 l59 4 3 -72 3
-72 -56 -43 c-30 -24 -55 -49 -55 -55 0 -20 11 -16 59 25 25 22 80 61 121 89
66 44 105 66 213 120 33 17 33 25 5 71 l-21 34 -17 -22 -18 -23 -30 34 c-58
67 -82 97 -82 104 0 8 66 71 83 79 7 3 22 13 35 22 21 16 22 15 22 -4 0 -28
10 -52 22 -52 5 0 6 18 2 45 -3 25 -2 45 2 44 5 -2 22 4 37 11 35 17 47 4 47
-53 0 -27 4 -37 13 -34 8 2 11 21 9 58 l-3 54 80 15 c91 18 84 22 96 -62 3
-26 10 -50 15 -53 17 -11 21 16 10 71 -13 62 -10 69 36 77 l31 6 6 -56 c3 -31
10 -60 16 -66 17 -17 22 13 12 68 -5 27 -8 52 -5 56 2 3 30 9 62 12 70 8 92
15 92 32 0 8 -25 14 -74 18 -106 9 -103 6 -111 101 -3 45 -4 93 0 107 6 23 3
27 -26 33 -18 3 -34 4 -36 2 -2 -2 5 -30 16 -63 11 -32 23 -82 27 -111 l7 -52
-34 6 c-61 10 -59 7 -59 107 0 91 -1 94 -25 105 -31 14 -32 14 -40 3z m45 -46
c0 -8 -2 -15 -4 -15 -2 0 -6 7 -10 15 -3 8 -1 15 4 15 6 0 10 -7 10 -15z
m-300 -25 c0 -11 -2 -20 -4 -20 -2 0 -6 9 -9 20 -3 11 -1 20 4 20 5 0 9 -9 9
-20z m-3 -99 c0 -1 4 -23 7 -51 19 -163 20 -148 -7 -143 -19 4 -27 0 -32 -16
-11 -34 -83 -119 -115 -136 -39 -20 -38 -33 3 -50 18 -7 54 -35 80 -62 l48
-48 -68 -63 c-37 -34 -80 -71 -94 -82 l-26 -20 -8 269 c-7 252 -3 348 15 396
7 19 14 20 101 13 52 -3 95 -7 96 -7z m-230 -48 c-3 -10 -5 -2 -5 17 0 19 2
27 5 18 2 -10 2 -26 0 -35z m338 25 c2 -1 6 -33 10 -70 l7 -68 -36 0 c-42 0
-50 14 -58 99 l-5 53 39 -5 c22 -3 41 -7 43 -9z m134 -24 c39 -9 71 -21 71
-28 0 -6 3 -20 6 -31 5 -18 -2 -22 -58 -34 -35 -7 -73 -15 -85 -18 -22 -5 -22
-5 -38 90 -7 44 -3 45 104 21z m169 -30 c26 -8 11 -33 -23 -40 -42 -7 -41 -8
-50 28 -7 27 -6 28 26 22 19 -3 40 -7 47 -10z m82 -14 c0 -5 -11 -10 -25 -10
-14 0 -25 5 -25 10 0 6 11 10 25 10 14 0 25 -4 25 -10z m-480 -123 c0 -2 -10
-12 -21 -23 -22 -19 -22 -19 -10 4 10 18 31 31 31 19z m35 -297 c3 -5 -11 -20
-32 -33 -75 -47 -88 -48 -38 -3 53 48 60 52 70 36z"/>
<path d="M265 868 c-11 -6 -24 -16 -30 -22 -14 -17 -142 -100 -193 -125 -46
-23 -48 -27 -30 -66 9 -20 9 -31 0 -45 -10 -16 -9 -21 7 -30 11 -5 27 -10 35
-10 9 0 24 -4 34 -9 9 -4 35 -16 57 -27 22 -10 47 -27 57 -38 16 -20 17 -20
60 20 23 22 70 55 103 74 63 35 82 53 64 59 -6 1 -34 -13 -63 -32 l-52 -35
-33 40 c-18 22 -30 43 -25 47 5 4 26 20 47 35 l37 27 41 -32 c59 -47 59 -28
-1 38 -29 32 -62 77 -72 101 -10 23 -20 42 -21 42 -1 0 -11 -6 -22 -12z m25
-49 c11 -19 10 -20 -9 -9 -22 11 -29 30 -11 30 5 0 14 -9 20 -21z m-9 -36 c21
-16 39 -31 39 -34 0 -3 -20 -20 -44 -37 l-44 -32 -31 37 c-17 21 -31 41 -31
45 0 7 59 48 68 48 2 0 21 -12 43 -27z m-147 -58 c-4 -10 6 -20 30 -32 20 -9
36 -21 36 -27 0 -6 -23 -24 -50 -39 -44 -25 -53 -27 -68 -15 -41 32 -41 36 10
86 46 46 50 49 42 27z m-81 -41 c-10 -15 -19 -22 -21 -15 -2 7 4 19 14 26 26
20 27 19 7 -11z m227 -109 c-5 -7 -28 -17 -50 -24 -31 -9 -44 -9 -60 1 -11 7
-20 15 -20 19 0 3 17 22 37 43 l37 36 33 -32 c22 -22 30 -35 23 -43z m-210 25
c13 -8 13 -10 -2 -10 -9 0 -20 5 -23 10 -8 13 5 13 25 0z"/>
<path d="M1271 131 c-13 -24 9 -57 33 -48 23 9 31 34 16 52 -17 20 -37 19 -49
-4z"/>
</g>
</svg>
