<?xml version="1.0" standalone="no"?>
<!DOCTYPE svg PUBLIC "-//W3C//DTD SVG 20010904//EN"
 "http://www.w3.org/TR/2001/REC-SVG-20010904/DTD/svg10.dtd">
<svg version="1.0" xmlns="http://www.w3.org/2000/svg"
 width="134.000000pt" height="151.000000pt" viewBox="0 0 134.000000 151.000000"
 preserveAspectRatio="xMidYMid meet">
<metadata>
Created by potrace 1.16, written by Peter Selinger 2001-2019
</metadata>
<g transform="translate(0.000000,151.000000) scale(0.100000,-0.100000)"
fill="#000000" stroke="none">
<path d="M156 1456 c3 -8 -8 -24 -26 -38 l-31 -24 16 -59 c23 -91 20 -192 -10
-271 -13 -36 -24 -76 -23 -89 1 -13 -4 -35 -12 -49 -19 -36 -9 -41 47 -22 36
11 99 16 243 17 107 1 198 4 201 5 3 2 -17 48 -44 103 -37 73 -52 116 -55 155
-2 31 -8 53 -13 50 -5 -3 -9 1 -9 8 1 24 28 123 44 160 23 53 21 61 -11 53
-54 -14 -149 -14 -218 0 -88 19 -106 19 -99 1z m272 -105 c3 -67 2 -71 -19
-71 -22 0 -22 0 -6 105 2 12 -72 21 -132 16 -43 -3 -43 -4 -37 -35 12 -65 11
-70 -9 -74 -31 -6 -38 -18 -37 -57 1 -37 -8 -44 -27 -21 -18 21 -19 169 -3
189 15 17 74 23 197 20 l70 -2 3 -70z m34 57 c-7 -7 -12 -8 -12 -2 0 14 12 26
19 19 2 -3 -1 -11 -7 -17z m-169 -95 c5 -25 3 -33 -8 -33 -11 0 -15 12 -15 48
1 50 12 43 23 -15z m77 -3 c0 -16 -4 -30 -10 -30 -11 0 -14 43 -3 53 11 12 13
8 13 -23z m-43 -27 c-3 -10 -5 -2 -5 17 0 19 2 27 5 18 2 -10 2 -26 0 -35z
m90 -48 c-4 -8 -11 -15 -17 -15 -14 0 -13 27 3 33 16 6 21 1 14 -18z m-117 0
c0 -17 -2 -18 -24 -9 -23 9 -20 24 4 24 11 0 20 -7 20 -15z m27 -7 c-3 -8 -6
-5 -6 6 -1 11 2 17 5 13 3 -3 4 -12 1 -19z m43 7 c0 -8 -4 -15 -10 -15 -5 0
-10 7 -10 15 0 8 5 15 10 15 6 0 10 -7 10 -15z m-43 -57 c-3 -7 -5 -2 -5 12 0
14 2 19 5 13 2 -7 2 -19 0 -25z m43 12 c0 -11 -4 -20 -10 -20 -5 0 -10 9 -10
20 0 11 5 20 10 20 6 0 10 -9 10 -20z m27 -12 c-3 -7 -5 -2 -5 12 0 14 2 19 5
13 2 -7 2 -19 0 -25z m-97 13 c0 -14 -18 -23 -30 -16 -6 4 -8 11 -5 16 8 12
35 12 35 0z m-60 -11 c0 -5 -4 -10 -9 -10 -6 0 -13 5 -16 10 -3 6 1 10 9 10 9
0 16 -4 16 -10z m-76 -15 c-4 -8 -8 -15 -10 -15 -2 0 -4 7 -4 15 0 8 4 15 10
15 5 0 7 -7 4 -15z m283 -53 c12 -24 26 -55 32 -70 5 -15 20 -42 31 -59 l22
-33 -84 -2 c-189 -3 -297 1 -326 14 l-31 13 41 85 41 85 10 -33 c9 -28 14 -32
34 -27 22 5 23 3 23 -45 0 -27 5 -50 10 -50 6 0 10 24 10 54 0 37 4 56 14 59
21 8 26 -2 26 -50 0 -62 20 -53 22 10 1 47 2 48 5 12 6 -57 23 -69 23 -17 0
23 5 42 10 42 6 0 10 -18 10 -40 0 -22 5 -40 10 -40 6 0 10 17 10 38 0 21 6
44 12 50 10 10 10 15 -1 21 -16 10 -5 34 12 29 7 -2 22 -23 34 -46z m-147 28
c0 -5 -9 -10 -20 -10 -11 0 -20 5 -20 10 0 6 9 10 20 10 11 0 20 -4 20 -10z
m70 0 c0 -5 -4 -10 -10 -10 -5 0 -10 5 -10 10 0 6 5 10 10 10 6 0 10 -4 10
-10z m-133 -6 c-3 -3 -12 -4 -19 -1 -8 3 -5 6 6 6 11 1 17 -2 13 -5z"/>
<path d="M935 1415 c-38 -23 -67 -37 -147 -72 -21 -9 -38 -23 -38 -31 0 -7 -4
-11 -9 -7 -5 3 -19 -8 -31 -25 -17 -24 -29 -30 -57 -30 -29 0 -34 -3 -28 -17
4 -10 12 -72 17 -138 6 -66 14 -124 19 -129 5 -6 9 40 10 110 0 65 4 128 8
139 7 18 9 18 36 -10 15 -17 51 -61 81 -100 115 -152 147 -190 152 -185 4 3 5
38 3 78 l-3 72 59 0 c32 0 96 -9 142 -20 80 -19 112 -19 81 0 -7 4 -54 18
-104 30 -50 12 -111 30 -135 41 -43 19 -44 20 -38 60 3 22 7 43 10 45 4 5 139
-10 210 -22 20 -4 37 -3 37 2 0 5 -46 19 -101 31 -56 13 -113 30 -127 39 -22
15 -24 21 -20 75 3 43 9 63 24 74 33 25 -6 18 -51 -10z m-6 -259 l1 -189 -29
39 c-16 21 -59 77 -95 123 -55 70 -66 90 -65 120 1 25 3 29 6 12 5 -22 6 -22
45 19 22 23 59 55 81 71 38 27 42 28 48 12 4 -10 8 -103 8 -207z m-135 153
c-12 -13 -20 -16 -22 -9 -3 7 2 16 9 21 25 16 32 9 13 -12z m171 -209 c3 -5 1
-10 -4 -10 -6 0 -11 5 -11 10 0 6 2 10 4 10 3 0 8 -4 11 -10z"/>
<path d="M1316 1122 c-8 -13 5 -82 15 -82 5 0 9 20 9 45 0 41 -11 58 -24 37z"/>
<path d="M966 683 c-3 -3 -3 -16 0 -27 4 -18 -2 -24 -33 -35 -79 -29 -163 -74
-163 -88 0 -8 -14 -20 -31 -26 -24 -9 -29 -16 -23 -32 10 -32 23 -153 23 -227
1 -38 5 -68 11 -68 6 0 10 52 10 136 0 94 3 133 11 129 6 -4 37 -62 70 -129
32 -66 63 -126 68 -132 4 -6 6 -34 3 -62 -3 -33 -1 -52 6 -52 10 0 16 27 27
130 9 80 16 110 25 110 11 0 98 -85 137 -133 17 -22 33 -35 36 -30 6 9 -22 50
-110 161 -23 28 -45 62 -48 73 -9 28 3 89 17 89 7 0 49 -38 94 -85 45 -47 85
-85 88 -85 18 0 0 30 -53 89 -32 36 -72 89 -90 117 l-31 51 20 58 c11 32 19
59 18 60 -8 6 -77 13 -82 8z m29 -108 l-15 -50 6 60 c6 63 17 94 21 60 2 -11
-4 -42 -12 -70z m-46 -140 c-25 -247 -24 -244 -60 -167 -30 67 -69 195 -69
228 0 25 40 64 100 98 24 14 45 24 46 23 0 -1 -7 -83 -17 -182z m81 53 c0 -6
-7 -5 -15 2 -8 7 -15 17 -15 22 0 6 7 5 15 -2 8 -7 15 -17 15 -22z m-283 -20
c-3 -8 -6 -5 -6 6 -1 11 2 17 5 13 3 -3 4 -12 1 -19z m63 -33 c0 -5 -5 -3 -10
5 -5 8 -10 20 -10 25 0 6 5 3 10 -5 5 -8 10 -19 10 -25z"/>
<path d="M211 624 c-12 -19 -21 -37 -21 -40 0 -2 17 -1 39 2 l39 6 32 -66 c18
-37 30 -69 27 -72 -3 -3 -40 -1 -84 4 -43 5 -79 8 -81 7 -1 -1 -4 -42 -5 -91
-2 -75 0 -88 13 -84 29 8 160 11 160 3 0 -14 -29 -176 -33 -179 -1 -2 -19 1
-38 5 -35 8 -36 7 -46 -31 -11 -42 -4 -54 24 -39 30 15 161 31 286 33 87 2
117 6 117 15 0 7 -12 13 -27 13 l-26 0 6 122 c3 66 11 126 17 132 14 14 13 26
-4 26 -29 0 -24 116 10 228 5 19 3 22 -19 22 -14 0 -29 5 -33 12 -5 8 -11 6
-19 -6 -11 -14 -30 -16 -145 -13 -79 3 -136 9 -143 16 -17 17 -23 14 -46 -25z
m77 -11 c-10 -2 -28 -2 -40 0 -13 2 -5 4 17 4 22 1 32 -1 23 -4z m266 -75 c4
-40 9 -90 12 -110 5 -30 3 -38 -10 -38 -19 0 -19 -7 -7 -81 5 -30 12 -87 15
-126 4 -67 3 -73 -15 -73 -18 0 -19 8 -19 153 0 83 -1 161 -2 172 -4 66 3 185
11 181 5 -3 12 -39 15 -78z m36 75 c0 -5 -5 -15 -10 -23 -8 -12 -10 -11 -10 8
0 12 5 22 10 22 6 0 10 -3 10 -7z m-130 -77 c0 -78 -13 -108 -24 -55 -12 61
-7 129 9 129 12 0 15 -15 15 -74z m41 -38 c0 -62 2 -128 5 -145 3 -24 0 -33
-11 -33 -12 0 -14 25 -14 145 -1 88 3 145 9 145 6 0 10 -46 11 -112z m-91 27
c0 -73 -1 -75 -25 -75 -31 0 -45 26 -52 96 l-6 54 42 0 41 0 0 -75z m-100 50
c0 -8 -2 -15 -4 -15 -2 0 -6 7 -10 15 -3 8 -1 15 4 15 6 0 10 -7 10 -15z m100
-176 c0 -32 -3 -40 -17 -37 -21 4 -37 59 -20 70 27 17 37 8 37 -33z m-66 1 c3
-17 1 -41 -4 -55 -10 -27 -41 -31 -105 -15 -25 6 -20 8 28 9 73 1 76 21 3 21
-30 0 -58 5 -61 10 -4 6 18 10 59 10 37 0 66 4 66 10 0 6 -20 10 -44 10 -24 0
-59 3 -77 7 l-34 7 30 7 c17 4 53 7 81 8 50 1 52 0 58 -29z m116 -19 c0 -45
-12 -74 -23 -54 -7 14 5 103 14 103 5 0 9 -22 9 -49z m117 -53 c-3 -7 -5 -2
-5 12 0 14 2 19 5 13 2 -7 2 -19 0 -25z m-163 -78 c0 -25 -1 -66 -2 -92 l-2
-48 -45 0 c-25 0 -45 4 -45 9 0 14 41 144 52 164 5 10 17 17 26 15 13 -2 16
-14 16 -48z m46 -45 c0 -91 -11 -123 -24 -70 -8 32 4 165 15 165 5 0 9 -43 9
-95z m50 0 c0 -78 -3 -95 -15 -95 -12 0 -15 17 -15 95 0 78 3 95 15 95 12 0
15 -17 15 -95z m-235 -115 c16 -7 17 -9 3 -9 -9 -1 -24 -4 -32 -7 -12 -5 -15
-2 -10 10 7 18 10 18 39 6z"/>
<path d="M1292 168 c5 -34 38 -37 38 -4 0 20 -5 26 -21 26 -15 0 -20 -5 -17
-22z"/>
<path d="M435 10 c-434 -5 -430 -5 233 -8 443 -1 672 1 672 8 0 10 -52 10
-905 0z"/>
</g>
</svg>
