<?xml version="1.0" standalone="no"?>
<!DOCTYPE svg PUBLIC "-//W3C//DTD SVG 20010904//EN"
 "http://www.w3.org/TR/2001/REC-SVG-20010904/DTD/svg10.dtd">
<svg version="1.0" xmlns="http://www.w3.org/2000/svg"
 width="49.000000pt" height="43.000000pt" viewBox="0 0 49.000000 43.000000"
 preserveAspectRatio="xMidYMid meet">
<metadata>
Created by potrace 1.16, written by Peter Selinger 2001-2019
</metadata>
<g transform="translate(0.000000,43.000000) scale(0.100000,-0.100000)"
fill="#000000" stroke="none">
<path d="M206 391 c-4 -5 -1 -33 5 -61 6 -28 8 -54 5 -58 -4 -3 -37 -1 -74 6
-37 6 -71 7 -75 3 -5 -5 -7 -24 -5 -42 3 -38 15 -40 97 -13 64 21 71 16 69
-58 -2 -92 1 -118 12 -118 6 0 10 39 10 96 l0 95 87 -2 c51 -1 88 2 90 8 4 11
-65 23 -129 23 -31 0 -39 3 -34 15 3 8 8 37 12 65 l7 50 -36 0 c-20 0 -38 -4
-41 -9z m44 -52 c0 -17 -4 -28 -10 -24 -5 3 -10 17 -10 31 0 13 5 24 10 24 6
0 10 -14 10 -31z m-105 -89 c4 -6 -8 -10 -30 -10 -22 0 -34 4 -30 10 3 6 17
10 30 10 13 0 27 -4 30 -10z"/>
</g>
</svg>
