<?xml version="1.0" standalone="no"?>
<!DOCTYPE svg PUBLIC "-//W3C//DTD SVG 20010904//EN"
 "http://www.w3.org/TR/2001/REC-SVG-20010904/DTD/svg10.dtd">
<svg version="1.0" xmlns="http://www.w3.org/2000/svg"
 width="105.000000pt" height="50.000000pt" viewBox="0 0 105.000000 50.000000"
 preserveAspectRatio="xMidYMid meet">
<metadata>
Created by potrace 1.16, written by Peter Selinger 2001-2019
</metadata>
<g transform="translate(0.000000,50.000000) scale(0.100000,-0.100000)"
fill="#000000" stroke="none">
<path d="M310 442 c0 -21 -110 -76 -210 -107 -91 -28 -86 -25 -71 -35 11 -6
12 -22 7 -64 l-6 -56 60 0 60 0 0 -39 c0 -22 5 -43 10 -46 6 -4 10 10 10 34 0
44 14 55 24 19 7 -22 7 -22 16 -3 7 17 9 15 9 -12 1 -18 6 -33 11 -33 6 0 10
-11 10 -25 0 -14 5 -25 10 -25 6 0 10 20 10 45 0 25 3 45 6 45 12 0 50 -24 60
-39 10 -13 12 -12 18 6 4 12 5 27 4 34 -4 20 78 27 345 28 l227 1 0 -40 c0
-22 4 -40 9 -40 10 0 21 58 21 113 0 21 7 67 16 103 9 36 15 67 12 69 -10 10
-78 -9 -78 -21 0 -12 -42 -14 -232 -13 -128 0 -252 4 -274 7 l-41 7 12 47 c6
26 10 50 7 53 -3 3 -18 5 -34 5 -21 0 -28 -5 -28 -18z m10 -167 c0 -69 -3
-125 -7 -124 -5 0 -17 4 -28 8 -17 7 -19 16 -16 94 2 58 -1 87 -8 87 -7 0 -12
-28 -13 -72 l-2 -73 -3 63 c-2 34 -8 62 -13 62 -6 0 -10 -4 -10 -10 0 -6 -6
-9 -12 -8 -9 2 -14 -15 -16 -55 -2 -32 -7 -55 -12 -52 -5 3 -6 30 -3 60 4 34
2 55 -4 55 -6 0 -13 -20 -16 -45 -2 -26 -7 -48 -10 -51 -6 -7 -77 28 -77 37 0
14 63 56 150 103 47 24 88 45 93 45 4 1 7 -55 7 -124z m627 43 c-3 -7 -5 -2
-5 12 0 14 2 19 5 13 2 -7 2 -19 0 -25z m-23 -47 c11 -86 27 -81 -258 -81
-143 0 -267 5 -288 11 -34 9 -38 13 -38 42 0 40 9 53 40 66 14 5 138 10 281
10 l256 1 7 -49z m-687 -153 c-3 -8 -6 -5 -6 6 -1 11 2 17 5 13 3 -3 4 -12 1
-19z"/>
</g>
</svg>
