<?xml version="1.0" standalone="no"?>
<!DOCTYPE svg PUBLIC "-//W3C//DTD SVG 20010904//EN"
 "http://www.w3.org/TR/2001/REC-SVG-20010904/DTD/svg10.dtd">
<svg version="1.0" xmlns="http://www.w3.org/2000/svg"
 width="93.000000pt" height="147.000000pt" viewBox="0 0 93.000000 147.000000"
 preserveAspectRatio="xMidYMid meet">
<metadata>
Created by potrace 1.16, written by Peter Selinger 2001-2019
</metadata>
<g transform="translate(0.000000,147.000000) scale(0.100000,-0.100000)"
fill="#000000" stroke="none">
<path d="M439 1391 c-24 -25 -26 -31 -18 -77 4 -27 8 -99 8 -160 l1 -111 -46
-7 c-26 -3 -84 -6 -130 -6 -75 0 -84 2 -84 19 0 10 9 30 20 44 29 37 25 46
-14 33 -34 -10 -35 -12 -29 -52 6 -46 -12 -63 -49 -43 -18 9 -20 18 -16 65 5
58 14 76 27 55 7 -11 13 -10 32 3 16 10 50 15 104 16 102 1 165 10 165 22 0 5
-49 6 -125 2 -107 -6 -128 -5 -150 10 -22 14 -26 15 -31 2 -3 -8 -19 -18 -35
-21 -30 -7 -37 -19 -18 -30 6 -4 9 -42 8 -96 -1 -49 0 -92 3 -94 2 -2 17 7 32
20 45 39 57 33 54 -25 -2 -27 2 -50 7 -52 6 -2 11 21 13 50 l3 52 107 0 c59 0
117 3 130 6 21 6 22 4 22 -75 0 -44 -4 -81 -9 -81 -8 0 -24 -60 -18 -67 2 -2
24 5 48 16 31 13 81 21 169 26 69 4 145 10 170 13 l45 7 3 95 c5 170 20 404
27 432 l7 27 -189 0 c-104 0 -195 2 -203 5 -8 3 -27 -7 -41 -23z m381 -35 c5
-16 10 -67 10 -113 l0 -85 -91 4 -91 3 6 50 c4 28 9 65 13 83 5 32 4 33 -23
30 -33 -3 -32 9 -20 -203 4 -71 6 -128 3 -125 -20 22 -68 159 -72 207 -2 32
-4 60 -5 62 0 10 -60 -53 -60 -63 0 -6 18 -38 40 -70 21 -33 51 -88 66 -123
38 -88 52 -83 56 19 l3 82 56 16 c31 10 69 15 86 13 l30 -5 -5 -126 c-2 -70
-7 -130 -11 -134 -6 -7 -281 -28 -331 -25 l-25 2 -3 220 c-2 132 1 234 7 256
10 32 16 37 58 46 27 5 103 10 170 9 l123 0 10 -30z m30 24 c0 -5 -4 -10 -10
-10 -5 0 -10 5 -10 10 0 6 5 10 10 10 6 0 10 -4 10 -10z m-400 -20 c0 -5 -5
-10 -11 -10 -5 0 -7 5 -4 10 3 6 8 10 11 10 2 0 4 -4 4 -10z m192 -85 c-2 -14
-6 -25 -8 -25 -2 0 -4 11 -4 25 0 14 4 25 9 25 4 0 6 -11 3 -25z m-103 -100
c0 -5 -6 -1 -14 9 -8 10 -11 24 -8 29 6 10 21 -16 22 -38z m-404 5 c3 -5 1
-10 -4 -10 -6 0 -11 5 -11 10 0 6 2 10 4 10 3 0 8 -4 11 -10z m535 -40 c0 -5
-4 -10 -10 -10 -5 0 -10 5 -10 10 0 6 5 10 10 10 6 0 10 -4 10 -10z"/>
<path d="M922 850 c0 -14 2 -19 5 -12 2 6 2 18 0 25 -3 6 -5 1 -5 -13z"/>
<path d="M335 820 c-8 -13 4 -32 16 -25 12 8 12 35 0 35 -6 0 -13 -4 -16 -10z"/>
<path d="M460 639 c0 -18 -9 -47 -21 -65 -21 -34 -21 -34 -102 -35 -45 0 -102
0 -127 2 -113 5 -115 5 -115 -16 0 -12 -9 -21 -25 -25 -18 -5 -24 -12 -21 -26
1 -10 4 -67 5 -126 1 -139 19 -143 27 -6 3 57 10 113 17 124 12 23 34 28 213
43 l81 7 47 -96 c27 -52 56 -117 66 -145 20 -55 31 -72 41 -62 3 3 -10 48 -30
99 -36 95 -66 253 -50 267 37 33 289 66 305 40 5 -8 9 -65 9 -128 l0 -113 -90
4 -90 4 0 -33 c0 -38 -3 -37 52 -19 24 8 62 17 86 20 l42 5 0 -107 c0 -59 -4
-112 -8 -118 -4 -6 -47 -14 -97 -18 l-90 -6 0 182 c0 101 4 207 9 236 l9 53
-34 -3 c-24 -2 -33 -7 -31 -18 16 -73 22 -139 24 -286 3 -149 1 -170 -12 -164
-16 8 -83 30 -91 30 -2 0 -5 -24 -6 -53 l-3 -54 51 24 c38 19 80 27 175 35
l124 11 1 119 c1 65 3 123 4 128 1 6 4 13 5 18 1 4 1 41 0 83 -1 41 4 103 10
138 6 35 10 64 8 65 -2 1 -55 0 -118 -4 -75 -3 -136 -1 -175 7 -33 7 -63 12
-67 13 -5 0 -8 -14 -8 -31z m54 -14 c-25 -19 -34 -19 -34 0 0 10 10 15 27 15
26 0 26 -1 7 -15z m66 -91 c0 -8 -4 -14 -10 -14 -5 0 -10 9 -10 21 0 11 5 17
10 14 6 -3 10 -13 10 -21z m-430 -20 c0 -2 -7 -4 -15 -4 -8 0 -15 4 -15 10 0
5 7 7 15 4 8 -4 15 -8 15 -10z m298 -30 l-3 -29 -13 23 c-8 13 -11 31 -7 39 9
26 27 0 23 -33z m-371 -16 c-3 -8 -6 -5 -6 6 -1 11 2 17 5 13 3 -3 4 -12 1
-19z m433 -378 c-19 -13 -30 -13 -30 0 0 6 10 10 23 10 18 0 19 -2 7 -10z"/>
<path d="M167 442 c-26 -3 -27 -5 -21 -43 6 -37 5 -39 -20 -39 -22 0 -26 -4
-26 -31 0 -28 2 -31 25 -25 14 4 25 2 25 -4 0 -5 5 -10 10 -10 6 0 10 7 10 15
0 9 10 15 28 16 216 11 256 15 260 28 4 12 -18 13 -135 8 -77 -4 -143 -4 -146
-1 -3 4 3 24 13 45 22 41 19 46 -23 41z"/>
</g>
</svg>
