<?xml version="1.0" standalone="no"?>
<!DOCTYPE svg PUBLIC "-//W3C//DTD SVG 20010904//EN"
 "http://www.w3.org/TR/2001/REC-SVG-20010904/DTD/svg10.dtd">
<svg version="1.0" xmlns="http://www.w3.org/2000/svg"
 width="137.000000pt" height="59.000000pt" viewBox="0 0 137.000000 59.000000"
 preserveAspectRatio="xMidYMid meet">
<metadata>
Created by potrace 1.16, written by Peter Selinger 2001-2019
</metadata>
<g transform="translate(0.000000,59.000000) scale(0.100000,-0.100000)"
fill="#000000" stroke="none">
<path d="M993 470 c-5 -17 -137 -110 -156 -110 -4 0 -4 20 0 45 5 41 4 45 -15
45 -28 0 -33 -11 -22 -49 5 -17 6 -31 3 -31 -9 0 -70 48 -105 82 -30 29 -32
30 -45 12 -17 -24 -17 -44 2 -44 18 0 145 -71 145 -80 0 -9 -143 -90 -171 -97
-21 -6 -22 -5 -16 83 4 49 9 104 13 122 6 29 4 32 -17 32 l-24 0 4 -127 c2
-87 8 -137 18 -156 l14 -29 52 51 c28 28 56 51 62 51 5 0 21 9 35 20 14 11 28
20 33 20 4 0 7 -31 7 -70 0 -40 4 -70 10 -70 6 0 10 32 10 77 l0 76 23 -20
c12 -11 50 -39 85 -63 38 -27 62 -50 62 -61 0 -11 5 -19 10 -19 6 0 10 40 10
99 0 92 10 173 25 214 6 14 2 17 -20 17 -18 0 -29 -6 -32 -20z m7 -145 c0 -87
-8 -113 -25 -85 -4 6 -23 22 -43 35 -21 13 -47 32 -60 43 l-24 18 64 42 c35
23 69 42 76 42 9 0 12 -26 12 -95z"/>
<path d="M340 455 c-11 -20 -11 -27 1 -41 12 -15 4 -16 -106 -13 l-120 4 -3
-24 c-3 -21 -1 -23 20 -17 12 4 69 10 125 13 129 7 147 -2 105 -54 -27 -33
-28 -34 -119 -38 -92 -4 -93 -4 -93 20 0 13 -4 27 -10 30 -6 4 -10 -7 -10 -24
0 -26 -4 -31 -25 -31 -21 0 -25 5 -25 30 0 17 7 46 14 65 8 19 14 36 13 36 -1
1 -15 2 -31 3 -28 2 -28 1 -22 -42 3 -25 6 -69 6 -98 0 -30 5 -54 10 -54 6 0
10 9 10 20 0 15 7 20 25 20 23 0 25 -4 25 -40 0 -22 5 -40 10 -40 6 0 10 17
10 39 l0 38 61 7 c83 8 111 8 105 -3 -3 -4 2 -16 12 -27 12 -12 16 -29 14 -51
-5 -43 6 -41 43 6 17 21 67 62 112 92 46 30 83 57 83 60 0 3 -38 31 -85 63
-47 32 -85 62 -85 67 0 17 -28 9 -33 -8 -4 -17 -5 -17 -6 0 -1 24 -15 21 -31
-8z m115 -63 c22 -9 52 -25 65 -34 l24 -18 -24 -17 c-14 -10 -55 -37 -92 -60
-78 -49 -85 -42 -42 45 20 40 23 55 15 71 -20 37 -9 40 54 13z"/>
<path d="M1163 473 c-13 -2 -23 -10 -23 -18 0 -15 -25 -26 -43 -19 -11 4 -13
-19 -14 -106 0 -107 7 -134 30 -111 24 24 37 12 37 -34 0 -25 5 -45 11 -45 6
0 9 16 8 41 -4 47 9 59 64 59 20 0 37 4 37 9 0 4 -22 6 -50 3 -41 -4 -50 -2
-50 12 0 12 10 16 45 16 25 0 45 5 45 10 0 6 -15 8 -39 4 -25 -4 -41 -2 -46 6
-10 16 -2 21 44 27 55 8 52 23 -4 23 -48 0 -60 13 -22 25 l22 8 -23 4 c-41 8
-17 28 36 31 64 4 69 22 6 22 -41 0 -45 2 -39 20 3 11 3 19 -2 19 -4 -1 -18
-4 -30 -6z m-23 -73 c0 -5 -7 -10 -16 -10 -8 0 -12 5 -9 10 3 6 10 10 16 10 5
0 9 -4 9 -10z m10 -91 c0 -5 -9 -9 -20 -9 -11 0 -20 6 -20 14 0 9 7 12 20 9
11 -3 20 -9 20 -14z m0 -51 c0 -13 -32 -6 -37 9 -3 7 3 9 16 6 12 -3 21 -10
21 -15z"/>
</g>
</svg>
