<?xml version="1.0" standalone="no"?>
<!DOCTYPE svg PUBLIC "-//W3C//DTD SVG 20010904//EN"
 "http://www.w3.org/TR/2001/REC-SVG-20010904/DTD/svg10.dtd">
<svg version="1.0" xmlns="http://www.w3.org/2000/svg"
 width="92.000000pt" height="45.000000pt" viewBox="0 0 92.000000 45.000000"
 preserveAspectRatio="xMidYMid meet">
<metadata>
Created by potrace 1.16, written by Peter Selinger 2001-2019
</metadata>
<g transform="translate(0.000000,45.000000) scale(0.100000,-0.100000)"
fill="#000000" stroke="none">
<path d="M767 394 c-3 -3 -2 -16 3 -28 4 -12 11 -56 15 -99 l7 -77 -58 -1
c-33 -1 -74 -3 -91 -5 l-33 -2 0 57 0 57 -82 -3 c-67 -2 -77 0 -53 8 17 6 87
13 158 16 70 3 127 9 127 14 0 9 -90 18 -225 21 l-100 3 -3 -89 -3 -89 -39 6
c-45 6 -55 -3 -46 -39 5 -20 11 -24 29 -19 60 18 57 19 57 -24 0 -23 5 -41 10
-41 6 0 10 20 10 45 0 33 4 45 15 45 10 0 15 -11 15 -35 0 -47 18 -45 23 3 3
34 4 33 5 -10 2 -61 22 -63 22 -3 0 25 5 45 10 45 6 0 10 -13 10 -30 0 -16 5
-30 10 -30 6 0 10 14 10 30 0 17 5 30 11 30 8 0 10 -15 7 -45 -4 -34 -2 -45 8
-45 10 0 14 14 14 48 l0 49 85 2 85 2 0 -31 c0 -20 5 -30 15 -30 12 0 15 16
15 83 0 45 7 107 15 137 8 30 15 61 15 68 0 12 -61 18 -73 6z m43 -36 c0 -16
-3 -19 -11 -11 -6 6 -8 16 -5 22 11 17 16 13 16 -11z m-310 -28 c12 -8 9 -10
-12 -10 -16 0 -28 5 -28 10 0 13 20 13 40 0z m-16 -125 c-3 -20 -11 -34 -16
-33 -12 4 -12 8 -4 61 6 34 9 39 17 25 5 -10 7 -34 3 -53z m36 15 c0 -22 -3
-40 -8 -40 -4 0 -6 18 -4 40 2 22 6 40 8 40 2 0 4 -18 4 -40z m27 -22 c-2 -13
-4 -3 -4 22 0 25 2 35 4 23 2 -13 2 -33 0 -45z m43 0 c0 -10 -4 -18 -10 -18
-5 0 -10 15 -10 33 0 24 3 28 10 17 5 -8 10 -23 10 -32z"/>
<path d="M76 369 c-37 -29 -56 -71 -56 -123 0 -115 150 -148 224 -49 13 17 19
43 20 80 0 50 -3 58 -32 84 -41 37 -114 41 -156 8z m124 -16 c35 -24 40 -33
40 -80 0 -63 -40 -106 -103 -107 -47 -1 -74 16 -90 58 -12 31 3 84 33 116 33
35 81 40 120 13z"/>
</g>
</svg>
