<?xml version="1.0" standalone="no"?>
<!DOCTYPE svg PUBLIC "-//W3C//DTD SVG 20010904//EN"
 "http://www.w3.org/TR/2001/REC-SVG-20010904/DTD/svg10.dtd">
<svg version="1.0" xmlns="http://www.w3.org/2000/svg"
 width="80.000000pt" height="93.000000pt" viewBox="0 0 80.000000 93.000000"
 preserveAspectRatio="xMidYMid meet">
<metadata>
Created by potrace 1.16, written by Peter Selinger 2001-2019
</metadata>
<g transform="translate(0.000000,93.000000) scale(0.100000,-0.100000)"
fill="#000000" stroke="none">
<path d="M245 850 c9 -29 -13 -52 -49 -50 -49 3 -51 1 -26 -25 20 -21 24 -35
23 -86 -1 -33 -4 -63 -7 -66 -2 -3 -35 0 -72 6 -73 13 -90 7 -79 -29 5 -15 12
-19 23 -15 10 4 43 9 75 12 l57 6 0 -62 c0 -34 4 -61 10 -61 6 0 10 27 10 60
0 57 1 60 24 60 21 0 23 -4 22 -45 -1 -52 18 -57 21 -5 1 19 2 41 2 48 1 7 6
10 11 7 6 -3 10 -31 10 -61 0 -30 5 -54 10 -54 6 0 10 26 10 59 0 55 2 59 21
54 13 -4 20 -13 18 -27 0 -11 0 -39 2 -61 2 -32 4 -27 8 25 5 58 9 65 29 68
21 3 22 0 22 -54 0 -32 3 -54 8 -50 4 4 7 29 7 54 l0 47 83 5 82 5 0 -27 c0
-55 19 -26 25 40 4 37 16 98 26 137 10 38 16 71 15 73 -2 2 -76 3 -165 3 -116
0 -173 4 -202 15 -55 19 -62 18 -54 -6z m75 -20 c0 -5 -13 -10 -30 -10 -16 0
-30 5 -30 10 0 6 14 10 30 10 17 0 30 -4 30 -10z m280 -52 c7 -29 10 -72 8
-96 l-3 -43 -82 -4 c-45 -3 -84 -1 -87 3 -3 4 0 40 6 80 13 79 7 96 -22 66
-15 -15 -17 -27 -12 -59 4 -22 6 -55 4 -73 -3 -29 -5 -31 -23 -21 -19 10 -20
17 -14 85 4 41 3 74 -1 74 -25 -1 -30 -18 -24 -85 7 -77 6 -85 -17 -85 -13 0
-15 13 -12 83 4 72 2 82 -13 79 -23 -4 -32 14 -11 23 10 3 67 9 128 12 60 3
112 7 114 9 2 2 15 4 27 4 19 0 24 -8 34 -52z m40 35 c0 -5 -5 -15 -10 -23 -8
-12 -10 -11 -10 8 0 12 5 22 10 22 6 0 10 -3 10 -7z m-422 -35 c-2 -5 -8 -9
-13 -9 -5 0 -11 4 -13 9 -1 5 4 9 13 9 9 0 14 -4 13 -9z m37 -91 c0 -55 -2
-62 -20 -62 -17 0 -20 7 -20 45 -1 25 3 58 8 73 15 45 32 15 32 -56z m44 -34
c0 -18 -3 -33 -9 -33 -6 0 -9 27 -9 63 1 49 3 56 9 32 4 -16 8 -45 9 -62z"/>
<path d="M685 550 c-3 -5 -3 -16 2 -22 4 -7 6 -22 5 -33 -3 -20 -2 -20 13 -1
19 25 19 40 1 55 -10 8 -16 9 -21 1z"/>
<path d="M229 384 c-1 -5 -2 -16 -3 -24 0 -8 -11 -16 -23 -18 -13 -2 -23 -4
-23 -5 0 -1 7 -20 15 -42 8 -22 14 -55 15 -72 0 -36 -8 -39 -94 -33 -38 2 -39
1 -32 -26 10 -37 7 -35 47 -24 18 6 44 10 56 10 21 0 23 -5 23 -46 0 -27 4
-43 10 -39 5 3 10 26 10 51 0 32 4 44 15 44 12 0 14 -11 8 -62 -4 -45 -3 -59
5 -54 7 4 12 29 12 56 0 27 5 52 11 56 8 5 10 -6 7 -35 -2 -22 0 -41 4 -41 5
0 8 12 8 28 0 15 5 34 10 42 7 11 10 -1 11 -40 l1 -55 14 55 13 55 -5 -52 c-3
-33 -1 -53 6 -53 5 0 10 20 10 44 0 25 4 47 9 50 8 5 124 15 184 16 18 0 26 4
21 11 -3 6 -29 10 -58 9 -28 -2 -72 -2 -98 -1 l-48 1 0 46 c0 57 -19 49 -22
-9 l-1 -42 -7 50 c-4 28 -8 43 -9 35 -1 -8 -4 -28 -6 -44 -7 -49 -15 -41 -15
14 0 65 -17 57 -23 -10 l-4 -45 -1 53 c-2 65 -22 61 -22 -4 0 -37 -3 -44 -19
-44 -18 0 -19 6 -16 57 6 89 15 94 175 96 88 2 135 6 137 13 3 8 -35 13 -119
17 -68 4 -138 9 -155 13 -18 3 -34 2 -34 -2z m56 -24 c18 -8 17 -9 -7 -9 -16
-1 -28 4 -28 9 0 12 8 12 35 0z"/>
<path d="M586 278 c4 -57 10 -107 15 -113 10 -10 12 4 10 42 -2 22 16 134 26
159 4 10 -3 14 -26 14 l-31 0 6 -102z m21 50 c-3 -7 -5 -2 -5 12 0 14 2 19 5
13 2 -7 2 -19 0 -25z"/>
<path d="M692 94 c4 -21 22 -23 26 -1 2 10 -3 17 -13 17 -10 0 -15 -6 -13 -16z"/>
</g>
</svg>
