<?xml version="1.0" standalone="no"?>
<!DOCTYPE svg PUBLIC "-//W3C//DTD SVG 20010904//EN"
 "http://www.w3.org/TR/2001/REC-SVG-20010904/DTD/svg10.dtd">
<svg version="1.0" xmlns="http://www.w3.org/2000/svg"
 width="51.000000pt" height="51.000000pt" viewBox="0 0 51.000000 51.000000"
 preserveAspectRatio="xMidYMid meet">
<metadata>
Created by potrace 1.16, written by Peter Selinger 2001-2019
</metadata>
<g transform="translate(0.000000,51.000000) scale(0.100000,-0.100000)"
fill="#000000" stroke="none">
<path d="M239 448 c-8 -18 -14 -41 -14 -50 0 -12 -30 -35 -85 -68 -47 -27 -91
-53 -99 -58 -11 -6 -12 -12 -1 -31 7 -13 10 -39 7 -57 -5 -31 -4 -34 21 -35
56 -3 82 -8 123 -28 24 -12 49 -21 56 -21 7 0 13 -6 13 -14 0 -7 11 -21 25
-30 l25 -16 29 62 c16 35 48 83 70 106 23 24 41 49 40 55 0 7 -32 38 -70 70
-44 37 -78 75 -92 103 -11 24 -24 44 -28 44 -4 0 -13 -15 -20 -32z m31 -28 c0
-5 -2 -10 -4 -10 -3 0 -8 5 -11 10 -3 6 -1 10 4 10 6 0 11 -4 11 -10z m24 -46
c12 -5 16 -20 16 -60 0 -30 -4 -54 -10 -54 -5 0 -10 25 -10 55 0 34 -4 55 -11
55 -8 0 -10 -16 -6 -50 3 -27 2 -50 -2 -50 -9 0 -21 89 -14 103 5 9 16 9 37 1z
m-60 -47 c-3 -9 -10 -17 -15 -17 -11 0 -12 34 -2 43 11 12 24 -8 17 -26z m105
-61 c-5 -6 -9 7 -8 35 l1 44 8 -35 c5 -20 5 -39 -1 -44z m-139 29 c0 -19 -4
-35 -10 -35 -5 0 -10 16 -10 35 0 19 5 35 10 35 6 0 10 -16 10 -35z m-37 -27
c-2 -5 -8 -8 -14 -8 -11 0 -12 33 -2 44 8 8 23 -25 16 -36z m253 1 c3 -6 -1
-18 -10 -27 -15 -15 -16 -14 -16 11 0 27 13 36 26 16z m-288 -64 c0 -29 0 -29
-8 -5 -4 14 -8 36 -8 50 -1 23 0 23 8 5 5 -11 8 -33 8 -50z m-34 20 c3 -8 1
-15 -4 -15 -6 0 -10 7 -10 15 0 8 2 15 4 15 2 0 6 -7 10 -15z m156 -53 c0 -33
-4 -52 -9 -46 -10 10 -21 101 -13 108 13 14 22 -10 22 -62z m71 18 c5 0 9 11
9 25 0 14 5 25 10 25 6 0 10 -14 10 -32 0 -22 -10 -42 -32 -65 -18 -18 -36
-33 -40 -33 -4 0 -7 21 -6 48 1 36 2 39 5 15 2 -18 8 -33 13 -33 15 0 21 36
11 63 -5 14 -7 28 -3 32 4 4 8 -5 10 -19 2 -14 8 -26 13 -26z m-111 -16 c0
-21 -4 -33 -10 -29 -5 3 -10 22 -10 41 0 21 4 33 10 29 6 -3 10 -22 10 -41z
m-40 5 c0 -10 -4 -19 -10 -19 -5 0 -10 12 -10 26 0 14 4 23 10 19 6 -3 10 -15
10 -26z"/>
</g>
</svg>
