<?xml version="1.0" standalone="no"?>
<!DOCTYPE svg PUBLIC "-//W3C//DTD SVG 20010904//EN"
 "http://www.w3.org/TR/2001/REC-SVG-20010904/DTD/svg10.dtd">
<svg version="1.0" xmlns="http://www.w3.org/2000/svg"
 width="121.000000pt" height="42.000000pt" viewBox="0 0 121.000000 42.000000"
 preserveAspectRatio="xMidYMid meet">
<metadata>
Created by potrace 1.16, written by Peter Selinger 2001-2019
</metadata>
<g transform="translate(0.000000,42.000000) scale(0.100000,-0.100000)"
fill="#000000" stroke="none">
<path d="M773 301 l6 -54 -42 6 c-23 4 -57 9 -74 13 -32 6 -33 6 -33 -28 0
-19 2 -37 5 -40 3 -3 31 1 63 8 83 20 87 19 98 -23 5 -21 21 -45 37 -57 l29
-21 24 29 c14 15 28 41 31 57 6 30 21 35 128 41 22 2 39 8 37 13 -1 6 -35 9
-82 8 l-80 -3 0 45 c0 51 -11 62 -42 41 -30 -21 -67 -20 -91 2 -20 17 -20 16
-14 -37z m127 -21 c0 -29 -1 -30 -50 -30 -27 0 -50 4 -50 9 0 5 -3 16 -6 25
-5 13 -1 15 24 10 16 -3 38 -1 49 5 28 16 33 13 33 -19z m-210 -50 c-20 -13
-40 -13 -40 0 0 6 12 10 28 10 21 0 24 -2 12 -10z m200 -33 c0 -21 -35 -67
-43 -56 -17 24 -37 60 -37 69 0 5 18 10 40 10 35 0 40 -3 40 -23z"/>
<path d="M187 333 c-4 -3 -7 -24 -7 -46 l0 -39 -37 6 c-21 4 -45 9 -54 12 -13
4 -18 -4 -21 -31 -2 -20 -1 -38 3 -40 3 -3 28 3 54 11 54 19 59 15 69 -47 7
-43 43 -75 73 -65 24 8 53 57 53 90 0 27 1 27 90 30 15 1 25 7 25 15 0 12 -13
14 -57 12 l-58 -2 0 38 c0 49 -14 73 -32 55 -15 -15 -70 -16 -84 -2 -6 6 -13
7 -17 3z m112 -87 c0 -71 -19 -120 -46 -124 -19 -3 -24 5 -37 49 -9 29 -16 69
-16 88 l0 36 50 1 50 1 -1 -51z m-184 -16 c-3 -5 -10 -10 -16 -10 -5 0 -9 5
-9 10 0 6 7 10 16 10 8 0 12 -4 9 -10z"/>
<path d="M1070 180 c0 -13 7 -20 20 -20 13 0 20 7 20 20 0 13 -7 20 -20 20
-13 0 -20 -7 -20 -20z"/>
<path d="M517 164 c-3 -4 -2 -15 3 -25 6 -9 7 -25 4 -33 -4 -11 -1 -16 10 -16
17 0 32 41 22 65 -5 15 -28 20 -39 9z"/>
</g>
</svg>
