<?xml version="1.0" standalone="no"?>
<!DOCTYPE svg PUBLIC "-//W3C//DTD SVG 20010904//EN"
 "http://www.w3.org/TR/2001/REC-SVG-20010904/DTD/svg10.dtd">
<svg version="1.0" xmlns="http://www.w3.org/2000/svg"
 width="119.000000pt" height="204.000000pt" viewBox="0 0 119.000000 204.000000"
 preserveAspectRatio="xMidYMid meet">
<metadata>
Created by potrace 1.16, written by Peter Selinger 2001-2019
</metadata>
<g transform="translate(0.000000,204.000000) scale(0.100000,-0.100000)"
fill="#000000" stroke="none">
<path d="M990 1980 c0 -11 -5 -20 -11 -20 -7 0 -46 -21 -88 -47 -113 -69 -175
-103 -187 -103 -6 0 -28 -7 -48 -15 -33 -14 -35 -17 -26 -41 11 -27 -1 -54
-23 -54 -21 0 4 85 34 116 17 18 27 34 22 36 -15 8 -113 -4 -107 -13 8 -13
-336 -11 -374 2 -17 6 -33 17 -36 25 -8 21 -26 17 -26 -7 0 -18 -4 -21 -30
-16 -16 4 -31 3 -34 -1 -2 -4 2 -34 10 -67 7 -33 14 -104 14 -158 0 -75 3 -98
13 -94 8 2 12 25 12 63 l0 59 239 3 238 2 -4 -60 c-3 -40 -1 -59 6 -57 13 4
27 84 19 110 -3 14 2 17 32 17 28 0 59 -14 129 -60 50 -33 98 -65 106 -70 8
-6 47 -32 87 -59 39 -27 74 -46 77 -43 3 3 6 111 6 240 0 225 8 302 32 302 4
0 8 7 8 15 0 11 -12 15 -45 15 -38 0 -45 -3 -45 -20z m48 -26 c-11 -23 -13
-24 -19 -7 -8 22 -3 33 16 33 12 0 12 -5 3 -26z m-34 -26 c14 -63 12 -73 -16
-76 -30 -4 -108 15 -108 26 1 7 100 71 112 72 4 0 10 -10 12 -22z m-136 -126
c2 -34 4 -62 6 -62 2 0 22 8 45 18 23 11 54 17 71 14 25 -4 30 -9 30 -33 0
-29 -1 -29 -59 -29 -33 0 -63 5 -66 10 -3 6 -14 10 -23 10 -15 0 -17 -10 -13
-85 l3 -85 -88 60 c-117 79 -121 90 -62 144 63 57 131 105 143 102 6 -1 11
-30 13 -64z m-744 3 c-7 -28 0 -30 36 -10 19 11 69 14 217 15 220 0 212 3 205
-87 l-4 -53 -240 0 -241 0 7 71 c3 39 9 75 12 80 10 17 14 9 8 -16z m36 15 c0
-5 -2 -10 -4 -10 -3 0 -8 5 -11 10 -3 6 -1 10 4 10 6 0 11 -4 11 -10z m450 0
c0 -5 -4 -10 -10 -10 -5 0 -10 5 -10 10 0 6 5 10 10 10 6 0 10 -4 10 -10z
m404 -5 c8 -22 -16 -29 -69 -21 -71 11 -55 32 26 35 25 1 39 -4 43 -14z m-927
-17 c-3 -8 -6 -5 -6 6 -1 11 2 17 5 13 3 -3 4 -12 1 -19z m596 -30 c-13 -12
-26 -18 -30 -14 -4 4 1 14 11 22 31 22 43 17 19 -8z m-23 -78 c0 -5 -4 -10
-10 -10 -5 0 -10 5 -10 10 0 6 5 10 10 10 6 0 10 -4 10 -10z m240 6 c0 -3 -4
-8 -10 -11 -5 -3 -10 -1 -10 4 0 6 5 11 10 11 6 0 10 -2 10 -4z m120 -26 c0
-18 -7 -20 -60 -20 -33 0 -60 4 -60 10 0 16 34 29 78 30 35 0 42 -3 42 -20z
m-16 -46 c9 -3 16 -15 16 -25 0 -16 -7 -19 -44 -19 -49 0 -76 7 -76 21 0 20
71 36 104 23z m16 -115 l0 -50 -38 23 c-77 47 -88 58 -72 68 8 5 36 10 63 10
l47 0 0 -51z"/>
<path d="M1136 1542 c-3 -5 -2 -26 1 -47 6 -35 7 -36 20 -20 7 11 13 26 13 36
0 20 -26 44 -34 31z"/>
<path d="M925 1216 c-25 -17 -232 -67 -305 -73 -30 -3 -57 -9 -60 -13 -7 -10
-323 7 -369 20 -49 13 -49 13 -53 -12 -2 -16 -9 -22 -23 -21 -28 2 -33 -11
-25 -64 4 -25 5 -86 2 -135 -5 -89 1 -109 18 -64 13 36 74 50 195 48 166 -3
215 -11 215 -33 0 -25 16 -24 23 1 4 17 13 20 69 20 34 -1 126 -11 203 -24 77
-13 141 -23 142 -22 1 0 4 55 7 121 5 107 20 197 41 248 6 14 2 17 -27 17 -18
0 -42 -6 -53 -14z m49 -31 c-4 -8 -7 -15 -9 -15 -2 0 -5 7 -9 15 -3 9 0 15 9
15 9 0 12 -6 9 -15z m-40 -11 c3 -9 6 -27 6 -40 0 -24 -1 -24 -103 -24 -57 0
-107 3 -110 7 -6 5 168 70 194 72 4 1 10 -6 13 -15z m-747 -50 c-3 -3 -12 -4
-19 -1 -8 3 -5 6 6 6 11 1 17 -2 13 -5z m433 -14 c-8 -5 -22 -10 -30 -10 -13
0 -13 1 0 10 8 5 22 10 30 10 13 0 13 -1 0 -10z m-116 -17 c9 -29 15 -143 9
-159 -5 -13 -30 -14 -162 -9 -219 8 -231 10 -230 43 0 15 6 50 12 77 12 49 13
50 57 56 25 3 104 7 177 7 117 2 132 0 137 -15z m192 7 c5 -5 63 -11 129 -12
69 -2 118 -7 115 -12 -3 -5 -59 -10 -125 -10 -71 -1 -121 -5 -122 -11 -2 -6
44 -10 122 -10 116 0 125 -1 125 -19 0 -18 -7 -19 -125 -12 -100 6 -125 4
-125 -6 0 -9 18 -13 63 -14 182 -2 187 -2 187 -25 0 -21 -2 -22 -125 -15 -72
3 -125 2 -125 -3 0 -12 60 -19 163 -17 l87 1 0 -32 c0 -18 -3 -33 -7 -33 -22
0 -335 61 -356 69 -14 5 -28 7 -31 4 -8 -8 -8 31 0 79 4 21 13 39 23 42 9 3
36 14 61 25 54 24 53 24 66 11z m-159 -22 c-3 -8 -6 -5 -6 6 -1 11 2 17 5 13
3 -3 4 -12 1 -19z"/>
<path d="M1105 913 c8 -45 12 -50 26 -36 17 17 7 67 -15 71 -17 4 -18 0 -11
-35z"/>
<path d="M910 625 c-43 -25 -264 -94 -311 -97 -30 -2 -44 -8 -44 -18 0 -11
-20 -13 -110 -11 -118 3 -239 15 -267 26 -13 5 -20 0 -28 -20 -9 -25 -14 -27
-46 -22 -36 6 -36 6 -30 -25 3 -17 6 -98 6 -181 0 -96 3 -148 10 -141 5 5 10
47 12 94 l3 85 190 0 c105 0 198 -1 208 -3 14 -4 17 -15 17 -58 0 -30 5 -54
10 -54 6 0 10 25 10 55 0 30 2 55 5 55 22 0 171 -99 195 -130 16 -19 171 -130
178 -126 4 2 8 35 10 73 1 37 5 84 8 103 l5 36 64 -4 c70 -5 115 3 115 18 0 6
-34 7 -90 3 l-90 -6 0 26 0 26 95 -4 c79 -3 95 -1 95 11 0 13 -17 15 -92 13
-88 -2 -93 -1 -96 20 -3 20 0 21 92 21 57 0 96 4 96 10 0 11 -12 12 -115 14
-63 1 -70 3 -70 21 0 19 7 20 94 21 63 0 96 5 99 12 3 9 -23 12 -92 12 -108 0
-103 -5 -82 83 13 53 12 58 -5 67 -22 12 -19 12 -49 -5z m36 -52 c-11 -11 -17
4 -9 23 7 18 8 18 11 1 2 -10 1 -21 -2 -24z m-28 -43 l3 -53 -61 6 c-33 4 -71
9 -83 12 l-23 6 -3 -135 c-1 -75 2 -136 6 -136 4 0 26 7 48 15 22 8 55 14 73
15 l32 0 0 -91 c0 -69 -3 -88 -12 -83 -66 40 -205 170 -281 263 -27 32 -28 33
-47 16 -11 -10 -23 -16 -26 -13 -9 9 16 88 28 88 5 0 45 21 86 48 70 43 223
104 247 98 6 -1 11 -27 13 -56z m-718 -40 c12 -8 11 -10 -7 -10 -13 0 -23 5
-23 10 0 13 11 13 30 0z m429 7 c-2 -1 -12 -9 -21 -16 -15 -12 -18 -11 -18 3
0 10 8 16 22 16 12 0 19 -1 17 -3z m-114 -50 c4 -18 5 -51 3 -72 l-3 -40 -205
2 c-113 1 -205 6 -205 10 0 4 7 31 14 59 11 41 18 52 35 52 12 0 50 4 86 9 36
6 111 10 167 11 l102 2 6 -33z m298 16 c-7 -2 -21 -2 -30 0 -10 3 -4 5 12 5
17 0 24 -2 18 -5z m-703 -25 c0 -18 -2 -20 -9 -8 -6 8 -7 18 -5 22 9 14 14 9
14 -14z m810 -4 c0 -22 -3 -25 -22 -20 -13 3 -45 6 -72 6 -61 0 -51 15 19 28
74 14 75 14 75 -14z m0 -64 c0 -18 -6 -20 -52 -19 -63 1 -111 13 -88 22 26 10
54 15 98 16 36 1 42 -2 42 -19z m-308 -50 c28 -26 11 -26 -22 0 -14 11 -19 20
-12 20 7 0 22 -9 34 -20z m306 -12 c-3 -21 -7 -23 -63 -19 -81 4 -90 13 -30
27 81 19 97 18 93 -8z m-133 -38 c3 -5 1 -10 -4 -10 -6 0 -11 5 -11 10 0 6 2
10 4 10 3 0 8 -4 11 -10z"/>
<path d="M1105 140 c-8 -13 13 -40 30 -40 15 0 28 27 19 41 -7 12 -41 11 -49
-1z"/>
</g>
</svg>
