<?xml version="1.0" standalone="no"?>
<!DOCTYPE svg PUBLIC "-//W3C//DTD SVG 20010904//EN"
 "http://www.w3.org/TR/2001/REC-SVG-20010904/DTD/svg10.dtd">
<svg version="1.0" xmlns="http://www.w3.org/2000/svg"
 width="109.000000pt" height="145.000000pt" viewBox="0 0 109.000000 145.000000"
 preserveAspectRatio="xMidYMid meet">
<metadata>
Created by potrace 1.16, written by Peter Selinger 2001-2019
</metadata>
<g transform="translate(0.000000,145.000000) scale(0.100000,-0.100000)"
fill="#000000" stroke="none">
<path d="M649 1402 l-34 -30 22 -24 c19 -20 20 -29 13 -68 -12 -68 -21 -258
-11 -235 5 12 12 61 15 110 4 50 9 106 12 125 l6 35 32 -37 c32 -37 33 -39 29
-120 -3 -60 -1 -79 6 -68 6 8 11 37 11 65 0 36 3 46 11 38 7 -7 9 -32 4 -73
-6 -50 -11 -63 -29 -69 -11 -5 -45 -23 -74 -40 -29 -17 -55 -31 -57 -31 -16 0
5 240 27 308 11 37 1 56 -21 42 -10 -5 -15 -29 -16 -72 -1 -35 -5 -116 -10
-180 -7 -99 -11 -119 -26 -123 -14 -5 -16 -14 -12 -48 5 -39 18 -67 26 -56 2
2 20 27 41 56 41 58 81 91 174 147 34 21 62 42 62 47 0 6 -20 38 -44 72 -55
79 -82 131 -97 193 -6 27 -15 53 -19 57 -4 5 -23 -5 -41 -21z m31 -15 c0 -1 4
-18 10 -37 l10 -34 -26 26 c-24 24 -26 48 -3 48 5 0 9 -1 9 -3z m130 -263 c12
-22 12 -27 0 -34 -25 -16 -30 -11 -30 25 0 41 11 45 30 9z m-209 -196 c-29
-31 -31 -31 -31 -11 0 14 10 28 28 37 38 20 39 13 3 -26z"/>
<path d="M534 1343 c-9 -10 -10 -22 -3 -45 5 -18 9 -74 9 -125 l0 -91 -212 5
c-117 3 -215 7 -217 9 -1 1 0 8 4 15 6 9 58 10 211 6 132 -5 204 -3 204 3 0 6
-43 11 -102 12 -307 4 -317 5 -303 27 4 7 75 11 206 11 126 0 199 4 199 10 0
6 -62 10 -162 11 -90 1 -167 2 -173 4 -5 1 -20 3 -31 3 -17 2 -20 7 -16 27 5
29 -2 31 -52 10 -29 -12 -36 -20 -31 -35 3 -10 6 -78 6 -150 1 -95 4 -130 12
-127 7 2 14 33 17 73 l5 69 145 1 c80 0 177 -1 216 -4 l71 -4 -5 -50 c-4 -40
-2 -50 9 -46 11 4 15 34 17 134 2 79 8 146 17 173 21 64 20 87 -6 87 -12 0
-28 -6 -35 -13z m27 -46 c-8 -8 -11 -7 -11 4 0 20 13 34 18 19 3 -7 -1 -17 -7
-23z m-455 -118 l-14 -34 -1 32 c-1 17 5 33 12 36 19 7 19 2 3 -34z"/>
<path d="M177 1283 c-4 -3 -7 -18 -7 -32 l0 -26 180 -1 c248 -1 242 11 -15 32
-44 3 -95 12 -114 20 -39 16 -36 16 -44 7z m53 -39 c0 -2 -9 -4 -21 -4 -11 0
-18 4 -14 10 5 8 35 3 35 -6z"/>
<path d="M686 1258 c-7 -22 -17 -212 -11 -206 14 14 34 218 21 218 -4 0 -8 -6
-10 -12z"/>
<path d="M907 973 c-9 -14 0 -77 11 -81 12 -4 33 54 26 73 -6 16 -30 20 -37 8z"/>
<path d="M641 692 c-33 -52 -38 -72 -18 -72 22 -1 135 -110 193 -187 31 -41
54 -76 53 -77 -26 -24 -87 -56 -106 -56 -21 0 -24 4 -21 28 3 24 7 27 46 30
54 4 55 22 1 22 -40 0 -41 1 -35 28 4 15 8 33 9 40 2 11 -20 14 -96 15 l-98 2
6 70 c4 43 16 88 31 118 13 27 24 51 24 53 0 2 -22 4 -49 4 -50 0 -75 -15 -50
-31 10 -6 15 -38 17 -112 l4 -104 -155 -8 c-85 -4 -166 -4 -178 0 -13 4 -36
19 -52 33 -15 14 -27 24 -28 21 0 -2 -2 -23 -4 -46 -5 -57 -14 -83 -30 -83 -8
0 -14 16 -17 46 -3 48 6 70 50 113 13 12 22 25 19 27 -8 8 -147 -9 -147 -18 0
-5 12 -20 27 -33 l28 -23 -2 -172 c-1 -126 1 -170 10 -167 6 2 11 17 12 33 l0
29 225 0 c193 0 225 -2 225 -15 0 -25 20 -27 23 -2 5 31 32 29 32 -3 0 -19 -8
-28 -36 -40 -30 -12 -35 -19 -30 -37 3 -13 6 -41 6 -63 l1 -40 17 25 c32 47
139 147 246 229 58 46 106 85 106 88 0 2 -19 30 -43 61 -103 135 -167 247
-167 292 0 36 -18 29 -49 -18z m-58 -33 c-4 -16 -8 -17 -14 -7 -13 19 -11 28
5 28 9 0 12 -7 9 -21z m118 -42 c18 -35 19 -37 2 -28 -29 17 -63 48 -63 58 0
5 5 14 12 21 14 14 16 11 49 -51z m-601 -86 c0 -14 -18 -23 -30 -16 -6 4 -8
11 -5 16 8 12 35 12 35 0z m71 -94 c-13 -13 -26 -3 -16 12 3 6 11 8 17 5 6 -4
6 -10 -1 -17z m419 -28 c0 -16 -4 -29 -10 -29 -5 0 -10 16 -10 36 0 21 4 33
10 29 6 -3 10 -19 10 -36z m69 -15 c1 -7 -8 -14 -19 -17 -23 -6 -26 9 -8 49
l13 27 6 -24 c4 -13 7 -29 8 -35z m-109 22 c0 -14 -4 -27 -9 -31 -8 -4 -226
-8 -366 -6 l-39 1 22 23 c20 19 36 23 140 28 255 12 252 12 252 -15z m169 -6
c9 -28 8 -30 -14 -30 -22 0 -23 2 -14 30 6 17 12 30 14 30 2 0 8 -13 14 -30z
m-63 -97 c-3 -7 -15 -13 -26 -13 -27 0 -29 57 -2 62 18 4 36 -27 28 -49z
m-219 37 c101 0 103 0 103 -23 l0 -24 -220 1 c-225 1 -247 5 -234 41 7 16 17
17 127 11 66 -3 167 -6 224 -6z m153 -20 c0 -31 -16 -41 -26 -15 -8 19 2 45
16 45 5 0 10 -13 10 -30z m130 0 c0 -23 -4 -30 -20 -30 -16 0 -20 7 -20 30 0
23 4 30 20 30 16 0 20 -7 20 -30z m-180 -65 l0 -24 -187 -3 c-243 -4 -263 -2
-263 22 0 21 16 22 338 27 112 1 112 1 112 -22z m50 -5 c0 -31 -16 -41 -26
-15 -8 19 2 45 16 45 5 0 10 -13 10 -30z m62 1 c-3 -31 -7 -35 -27 -28 -8 4
-15 18 -15 32 0 22 4 26 23 23 17 -2 21 -9 19 -27z m68 5 c0 -23 -23 -41 -40
-31 -4 2 -5 16 -2 30 6 34 42 35 42 1z m50 20 c0 -2 -7 -9 -15 -16 -12 -10
-15 -10 -15 4 0 9 7 16 15 16 8 0 15 -2 15 -4z m-124 -81 c-25 -19 -36 -19
-36 0 0 10 10 15 28 15 26 -1 26 -1 8 -15z m-26 -56 c-14 -11 -35 -31 -47 -45
l-23 -25 0 25 c0 19 9 30 38 45 48 26 64 26 32 0z"/>
<path d="M846 154 c-9 -23 19 -53 35 -37 15 15 7 47 -12 51 -9 2 -19 -5 -23
-14z"/>
</g>
</svg>
