<?xml version="1.0" standalone="no"?>
<!DOCTYPE svg PUBLIC "-//W3C//DTD SVG 20010904//EN"
 "http://www.w3.org/TR/2001/REC-SVG-20010904/DTD/svg10.dtd">
<svg version="1.0" xmlns="http://www.w3.org/2000/svg"
 width="118.000000pt" height="73.000000pt" viewBox="0 0 118.000000 73.000000"
 preserveAspectRatio="xMidYMid meet">
<metadata>
Created by potrace 1.16, written by Peter Selinger 2001-2019
</metadata>
<g transform="translate(0.000000,73.000000) scale(0.100000,-0.100000)"
fill="#000000" stroke="none">
<path d="M292 723 c164 -2 432 -2 595 0 164 1 30 2 -297 2 -327 0 -461 -1
-298 -2z"/>
<path d="M260 641 c-12 -23 -13 -51 -2 -51 12 0 92 -78 92 -90 0 -6 -7 -13
-15 -16 -15 -6 -69 48 -94 94 l-13 25 -14 -32 c-8 -19 -14 -34 -14 -36 0 -1
25 -15 55 -30 30 -16 55 -32 55 -37 0 -5 -12 -19 -27 -32 -26 -23 -27 -24 -10
-49 24 -37 21 -47 -12 -47 -49 0 -121 12 -121 21 0 4 26 9 58 11 l57 3 -60 15
-60 15 58 3 c31 2 57 7 57 12 0 4 -28 11 -62 15 -35 4 -74 12 -87 17 -27 10
-35 4 -46 -31 -7 -23 -6 -24 28 -18 l35 5 -3 -41 c-1 -23 -9 -59 -18 -79 -19
-43 -12 -51 32 -38 18 5 69 10 112 11 l80 3 52 -53 c46 -46 50 -53 35 -62 -23
-13 -22 -28 2 -57 20 -24 40 -22 40 3 0 8 27 48 60 89 33 42 60 78 60 81 0 16
-30 -1 -77 -46 l-53 -51 -41 49 c-47 56 -79 114 -79 142 0 11 18 54 40 96 43
83 50 107 22 82 -17 -16 -20 -13 -55 40 -20 31 -37 62 -37 69 0 20 -18 17 -30
-5z m51 -242 c-8 -21 -10 -22 -16 -6 -4 10 -2 24 6 33 17 20 23 5 10 -27z
m-47 -94 c-5 -11 -22 -15 -64 -15 -55 0 -78 9 -63 24 3 3 35 6 69 6 52 0 62
-3 58 -15z m46 5 c0 -5 -5 -10 -11 -10 -5 0 -7 5 -4 10 3 6 8 10 11 10 2 0 4
-4 4 -10z m-165 -30 c3 -5 -1 -10 -10 -10 -9 0 -13 5 -10 10 3 6 8 10 10 10 2
0 7 -4 10 -10z m304 -142 c-13 -17 -25 -26 -27 -20 -2 7 7 21 20 32 32 27 33
25 7 -12z"/>
<path d="M397 622 c-15 -16 -27 -31 -27 -34 0 -3 28 -24 63 -46 34 -22 77 -54
96 -71 32 -29 51 -38 51 -26 0 3 -17 22 -38 43 -20 20 -56 65 -78 100 l-41 62
-26 -28z m41 -37 c11 -23 10 -24 -8 -13 -11 7 -20 18 -20 25 0 22 16 14 28
-12z"/>
<path d="M635 467 c-18 -54 -29 -52 202 -48 l211 3 6 -43 c4 -24 5 -75 4 -114
-4 -93 15 -101 23 -10 8 84 27 175 42 193 6 8 7 16 1 22 -12 12 -84 1 -84 -14
0 -11 -289 -6 -320 6 -37 15 -81 17 -85 5z m454 -29 c0 -7 -4 -22 -9 -33 -7
-17 -9 -15 -9 13 -1 17 4 32 9 32 6 0 10 -6 9 -12z"/>
<path d="M447 437 c-25 -10 -28 -15 -22 -42 3 -16 8 -69 12 -117 6 -93 23
-122 23 -40 0 26 9 82 20 126 11 43 20 80 20 82 0 7 -24 2 -53 -9z m14 -53
l-8 -29 -5 27 c-3 16 0 29 6 31 16 6 16 4 7 -29z"/>
<path d="M598 281 c-3 -18 -1 -34 3 -37 5 -2 36 0 71 6 35 5 123 10 196 10
103 0 133 3 130 13 -3 8 -51 14 -169 18 -90 4 -178 10 -195 14 -30 7 -32 5
-36 -24z m62 -5 c0 -2 -9 -6 -20 -9 -11 -3 -20 -1 -20 4 0 5 9 9 20 9 11 0 20
-2 20 -4z"/>
<path d="M281 215 c-24 -13 -52 -26 -62 -28 -13 -4 -19 -14 -19 -35 0 -17 4
-33 8 -36 5 -3 36 22 70 55 81 78 81 85 3 44z m-41 -49 c0 -3 -4 -8 -10 -11
-5 -3 -10 -1 -10 4 0 6 5 11 10 11 6 0 10 -2 10 -4z"/>
<path d="M325 169 c-22 -17 -43 -34 -48 -38 -7 -7 19 -71 28 -71 3 0 14 22 26
50 12 27 27 55 35 61 15 12 19 29 7 28 -5 0 -26 -14 -48 -30z"/>
</g>
</svg>
