<?xml version="1.0" standalone="no"?>
<!DOCTYPE svg PUBLIC "-//W3C//DTD SVG 20010904//EN"
 "http://www.w3.org/TR/2001/REC-SVG-20010904/DTD/svg10.dtd">
<svg version="1.0" xmlns="http://www.w3.org/2000/svg"
 width="121.000000pt" height="135.000000pt" viewBox="0 0 121.000000 135.000000"
 preserveAspectRatio="xMidYMid meet">
<metadata>
Created by potrace 1.16, written by Peter Selinger 2001-2019
</metadata>
<g transform="translate(0.000000,135.000000) scale(0.100000,-0.100000)"
fill="#000000" stroke="none">
<path d="M450 1229 c-131 -149 -110 -134 -187 -133 -37 1 -90 3 -118 5 l-50 3
-7 -44 c-16 -106 -4 -232 15 -159 4 16 12 20 34 17 15 -2 29 -9 29 -15 1 -7 2
-18 3 -24 2 -19 21 2 21 23 0 18 4 20 31 14 17 -3 55 -6 83 -6 51 0 52 0 96
-60 25 -33 50 -60 57 -60 6 0 21 -12 33 -27 l21 -27 32 40 c68 83 110 124 129
124 10 0 22 10 27 23 5 12 19 30 31 40 21 18 23 17 100 -42 77 -60 116 -73 60
-21 -34 32 -37 55 -16 145 12 50 22 67 60 101 40 36 58 64 40 64 -3 0 -51 -42
-105 -92 -55 -51 -106 -94 -114 -96 -11 -3 -104 104 -215 248 l-25 32 -65 -73z
m91 -1 l23 -31 -30 7 c-37 9 -46 19 -38 39 9 25 20 21 45 -15z m-1 -52 c40
-12 63 -25 83 -51 l28 -35 -147 0 -147 0 24 28 c68 78 83 91 93 83 6 -5 36
-16 66 -25z m-365 -126 c0 -21 -5 -26 -32 -28 -29 -3 -33 0 -33 22 0 26 13 36
45 33 14 -1 20 -9 20 -27z m103 -10 c-12 -16 -27 -30 -34 -30 -28 0 -44 13
-44 36 0 22 4 24 50 24 l51 0 -23 -30z m67 -28 c3 -28 4 -52 1 -52 -2 0 -14
16 -25 36 -21 35 -21 38 -5 55 10 11 18 18 20 16 1 -1 5 -26 9 -55z m55 -6 c0
-60 -9 -84 -27 -73 -5 3 -6 35 -5 71 3 49 7 66 18 66 11 0 14 -16 14 -64z m40
-6 c0 -58 -3 -70 -16 -70 -11 0 -14 5 -10 16 3 9 6 40 6 70 0 30 5 54 10 54 6
0 10 -30 10 -70z m40 0 c0 -40 -4 -70 -10 -70 -11 0 -14 123 -3 133 12 13 13
7 13 -63z m363 7 c-3 -31 -9 -57 -13 -57 -3 0 -17 11 -30 25 l-24 25 34 35
c18 19 35 33 36 32 2 -1 0 -28 -3 -60z m-303 34 c0 -53 -14 -111 -26 -111 -10
0 -14 17 -14 65 0 58 2 65 20 65 13 0 20 -7 20 -19z m60 -46 c0 -64 -1 -65
-26 -65 -26 0 -27 1 -20 46 3 26 6 55 6 65 0 12 7 19 20 19 18 0 20 -7 20 -65z
m43 8 c-5 -70 -11 -92 -21 -76 -12 19 -2 133 12 133 9 0 12 -16 9 -57z m64 20
c13 -14 23 -29 22 -32 0 -3 -16 -19 -35 -34 l-34 -29 0 39 c0 42 9 83 18 83 4
0 17 -12 29 -27z m-537 -59 c0 -20 -5 -24 -30 -24 -26 0 -30 4 -30 28 0 26 3
28 30 24 24 -3 30 -9 30 -28z m148 -3 l22 -30 -43 4 c-23 1 -57 3 -74 4 -28 1
-33 5 -33 26 0 24 3 25 53 25 47 0 56 -3 75 -29z m302 -62 c0 -3 -19 -15 -42
-27 -24 -12 -58 -32 -77 -44 l-34 -22 -34 39 c-18 21 -33 42 -33 46 0 5 30 10
68 12 90 5 152 3 152 -4z m-82 -96 c-15 -14 -31 -22 -38 -18 -7 5 0 15 22 30
41 29 50 23 16 -12z"/>
<path d="M1053 854 c-3 -9 -1 -19 6 -23 6 -4 9 -15 6 -23 -9 -24 12 -32 24 -9
19 34 14 71 -9 71 -11 0 -23 -7 -27 -16z"/>
<path d="M595 620 c-4 -6 -22 -21 -40 -33 -18 -12 -72 -50 -119 -84 l-86 -63
-71 0 c-56 0 -77 4 -100 21 l-29 20 0 -20 c0 -18 -6 -21 -50 -21 -27 0 -50 -2
-50 -4 0 -2 7 -20 15 -41 12 -27 16 -69 14 -168 -1 -89 2 -132 10 -135 7 -2
11 23 11 81 0 93 3 97 73 97 26 0 27 -2 25 -40 -2 -21 2 -39 7 -40 6 0 11 18
13 40 3 40 3 40 45 40 38 0 46 -5 83 -48 22 -26 59 -73 83 -105 26 -36 47 -55
54 -51 7 4 45 30 85 56 62 42 198 119 308 174 30 16 31 16 106 -41 42 -31 79
-63 82 -71 5 -14 36 -20 36 -8 0 4 -18 26 -39 49 -23 25 -43 58 -46 77 -9 46
15 101 54 124 17 10 33 24 35 31 10 26 -4 18 -124 -66 l-62 -43 -42 22 c-22
13 -73 48 -113 79 -40 31 -84 64 -98 74 -15 11 -30 36 -37 63 -12 44 -21 53
-33 34z m15 -50 c0 -5 -7 -7 -15 -4 -8 4 -12 10 -9 15 6 11 24 2 24 -11z m46
-72 c52 -33 93 -62 92 -63 -2 0 -81 1 -176 4 l-173 6 77 58 c43 31 80 57 82
57 2 0 46 -28 98 -62z m-552 -93 c-4 -8 -8 -15 -10 -15 -2 0 -4 7 -4 15 0 8 4
15 10 15 5 0 7 -7 4 -15z m186 11 c0 -2 -9 -6 -20 -9 -11 -3 -20 -1 -20 4 0 5
9 9 20 9 11 0 20 -2 20 -4z m86 -112 c-3 -8 -11 -14 -17 -14 -8 0 -10 13 -5
39 3 23 2 41 -4 43 -6 2 -3 14 7 28 l18 25 3 -54 c2 -29 1 -60 -2 -67z m54 51
c0 -51 -3 -65 -15 -65 -12 0 -15 13 -15 58 0 32 3 62 7 65 17 17 23 2 23 -58z
m62 33 c4 -74 -6 -107 -32 -108 -5 0 -6 81 -2 123 3 32 32 19 34 -15z m50 -33
c3 -58 1 -65 -16 -65 -12 0 -16 5 -12 16 3 9 6 38 6 65 0 73 18 60 22 -16z
m56 -9 c3 -60 1 -68 -13 -62 -9 3 -19 6 -21 6 -2 0 -4 30 -4 66 0 57 2 65 18
62 14 -3 18 -16 20 -72z m50 4 c-1 -42 -6 -60 -15 -60 -14 0 -19 83 -7 114 12
32 23 4 22 -54z m56 62 c10 -17 -7 -121 -20 -126 -11 -4 -14 10 -14 64 0 54 3
70 14 70 8 0 17 -4 20 -8z m-557 -17 c-9 -21 9 -27 24 -8 13 14 15 13 20 -13
16 -70 14 -74 -41 -74 -49 0 -50 1 -50 31 0 16 8 41 18 54 19 27 37 33 29 10z
m183 -5 c-6 -11 -15 -20 -20 -20 -14 0 -12 27 3 33 23 10 28 7 17 -13z m436 4
c-3 -9 -6 -36 -6 -60 0 -32 -4 -44 -14 -44 -23 0 -27 15 -20 70 5 41 10 50 26
50 14 0 18 -5 14 -16z m50 -21 c-3 -8 -6 -30 -6 -49 0 -24 -5 -34 -15 -34 -16
0 -19 27 -9 78 4 21 11 29 21 25 8 -3 12 -12 9 -20z m-526 -47 c-20 -19 -70
-32 -70 -17 0 5 8 26 17 46 l17 36 25 -26 c22 -22 24 -27 11 -39z m702 2 l-4
-47 -24 16 c-13 8 -24 19 -24 25 0 7 53 60 56 55 0 -1 -1 -23 -4 -49z m-117
18 c18 -13 17 -14 -13 -30 -32 -16 -32 -16 -32 7 0 39 14 46 45 23z m-549 -53
c-10 -10 -19 5 -10 18 6 11 8 11 12 0 2 -7 1 -15 -2 -18z m309 -32 c122 -2
128 -3 102 -17 -61 -33 -290 -99 -307 -89 -14 9 -70 92 -70 104 0 7 26 9 73 7
39 -2 131 -4 202 -5z m-45 -95 c0 -10 -105 -66 -117 -61 -28 10 -6 29 53 46
32 10 60 18 62 18 1 1 2 -1 2 -3z"/>
<path d="M1126 94 c-4 -10 -2 -22 3 -27 14 -14 43 0 39 20 -4 24 -34 28 -42 7z"/>
</g>
</svg>
