<?xml version="1.0" standalone="no"?>
<!DOCTYPE svg PUBLIC "-//W3C//DTD SVG 20010904//EN"
 "http://www.w3.org/TR/2001/REC-SVG-20010904/DTD/svg10.dtd">
<svg version="1.0" xmlns="http://www.w3.org/2000/svg"
 width="139.000000pt" height="60.000000pt" viewBox="0 0 139.000000 60.000000"
 preserveAspectRatio="xMidYMid meet">
<metadata>
Created by potrace 1.16, written by Peter Selinger 2001-2019
</metadata>
<g transform="translate(0.000000,60.000000) scale(0.100000,-0.100000)"
fill="#000000" stroke="none">
<path d="M0 589 c0 -7 208 -8 693 -3 380 4 694 8 696 10 2 2 -309 4 -692 4
-483 0 -697 -3 -697 -11z"/>
<path d="M129 538 c-19 -36 -42 -56 -69 -60 -16 -2 -24 -9 -21 -18 12 -45 21
-163 15 -217 -3 -35 -3 -63 1 -63 3 0 27 14 51 31 63 43 176 99 187 92 6 -3 7
-37 3 -80 -6 -59 -4 -74 6 -71 7 3 18 34 24 72 6 36 14 69 17 73 4 3 15 0 26
-8 123 -89 211 -149 218 -149 5 0 17 50 28 110 10 61 28 141 41 178 23 70 18
90 -17 71 -10 -5 -31 -9 -47 -9 -35 0 -45 -9 -31 -26 9 -11 5 -16 -17 -24 -79
-29 -141 -55 -162 -68 -12 -8 -25 -12 -29 -8 -3 3 2 35 12 71 9 36 16 68 14
70 -2 2 -22 5 -44 6 l-40 4 0 -68 c0 -78 0 -78 -81 -15 -48 38 -54 47 -54 80
0 44 -15 57 -31 26z m218 -72 c-3 -7 -9 -34 -12 -60 -10 -64 -20 -57 -20 14
-1 52 2 60 18 60 12 0 17 -5 14 -14z m-145 -57 c46 -34 84 -65 86 -69 3 -7
-113 -48 -180 -64 -28 -6 -28 -6 -28 42 0 45 25 152 35 152 3 0 42 -27 87 -61z
m433 44 c-4 -10 -12 -45 -18 -78 -16 -90 -27 -89 -27 2 0 81 4 90 39 92 9 1
11 -5 6 -16z m-60 -154 c4 -66 5 -122 3 -124 -1 -2 -50 30 -108 71 -58 41
-109 76 -115 78 -5 2 -8 5 -5 8 6 6 203 87 211 88 4 0 10 -54 14 -121z m-470
-59 c-3 -5 -10 -10 -16 -10 -5 0 -9 5 -9 10 0 6 7 10 16 10 8 0 12 -4 9 -10z"/>
<path d="M835 441 c-4 -3 -21 -6 -38 -6 l-32 0 -6 -78 c-3 -48 -10 -82 -18
-86 -14 -9 -11 -57 4 -54 6 2 70 23 144 49 100 35 135 43 141 34 4 -7 11 -55
15 -106 4 -52 11 -94 16 -94 5 0 9 15 10 33 0 17 10 70 22 116 21 79 24 84 57
96 66 24 120 38 125 33 8 -8 27 -118 23 -137 -3 -17 -12 -15 -87 20 -53 25
-88 36 -94 30 -6 -6 9 -18 39 -31 27 -13 75 -35 107 -50 32 -15 59 -25 61 -21
2 3 4 50 4 104 1 54 5 104 11 111 6 7 8 16 4 19 -8 9 -38 1 -177 -45 l-119
-40 -50 23 c-28 13 -75 38 -103 55 -29 18 -56 29 -59 25z m76 -75 c54 -20 88
-37 79 -40 -8 -3 -28 -10 -43 -16 -34 -12 -169 -41 -174 -37 -1 2 1 19 6 38 5
19 12 46 15 62 4 15 10 27 15 27 5 0 51 -15 102 -34z m179 -43 c-1 -5 -7 -30
-15 -58 l-14 -50 0 51 c-1 28 2 54 6 57 9 9 23 9 23 0z"/>
<path d="M1334 135 c-9 -23 3 -45 25 -45 23 0 35 28 20 46 -15 18 -38 18 -45
-1z"/>
<path d="M665 88 c4 -24 9 -45 11 -47 10 -11 26 20 27 50 2 29 -2 35 -22 37
-22 4 -23 2 -16 -40z"/>
</g>
</svg>
