<?xml version="1.0" standalone="no"?>
<!DOCTYPE svg PUBLIC "-//W3C//DTD SVG 20010904//EN"
 "http://www.w3.org/TR/2001/REC-SVG-20010904/DTD/svg10.dtd">
<svg version="1.0" xmlns="http://www.w3.org/2000/svg"
 width="93.000000pt" height="80.000000pt" viewBox="0 0 93.000000 80.000000"
 preserveAspectRatio="xMidYMid meet">
<metadata>
Created by potrace 1.16, written by Peter Selinger 2001-2019
</metadata>
<g transform="translate(0.000000,80.000000) scale(0.100000,-0.100000)"
fill="#000000" stroke="none">
<path d="M808 723 c-21 -14 -38 -28 -38 -32 0 -12 -114 1 -136 16 -31 20 -37
5 -40 -92 -1 -44 -5 -98 -9 -120 -6 -33 -5 -38 6 -27 17 16 37 16 21 0 -7 -7
-12 -21 -12 -31 0 -17 -5 -19 -37 -14 -21 4 -69 9 -107 13 -66 7 -69 8 -83 41
-8 19 -21 65 -30 101 -25 105 -22 100 -44 70 -12 -16 -26 -25 -34 -22 -8 4
-25 -6 -39 -23 -31 -34 -31 -39 -7 -46 19 -5 49 -82 37 -94 -8 -9 -64 30 -74
51 -11 23 -11 23 -31 -51 -11 -38 -15 -43 -41 -43 -32 0 -37 -11 -21 -53 5
-14 11 -75 12 -136 1 -62 5 -114 9 -116 4 -2 18 12 31 32 35 54 119 101 180
101 27 1 49 -3 49 -7 0 -10 -70 -83 -92 -96 -15 -9 -16 -15 -5 -48 14 -42 27
-43 38 -4 8 30 69 126 92 145 9 8 23 9 37 4 19 -7 20 -9 6 -21 -9 -8 -16 -19
-16 -26 0 -8 -19 -30 -42 -50 -37 -31 -41 -38 -30 -55 7 -11 12 -29 12 -40 0
-11 7 -20 15 -20 9 0 15 9 15 25 0 31 29 105 41 105 5 0 9 6 9 13 0 7 9 24 21
39 19 23 24 25 57 16 63 -16 266 -47 275 -41 4 2 3 11 -3 18 -13 15 -4 291 12
375 6 30 21 79 34 109 13 29 24 55 24 57 0 11 -29 0 -62 -23z m3 -56 c-8 -8
-11 -7 -11 4 0 20 13 34 18 19 3 -7 -1 -17 -7 -23z m-63 -19 c-5 -14 -80 -23
-105 -14 -30 12 0 26 53 26 40 0 55 -4 52 -12z m37 -8 c3 -5 1 -10 -4 -10 -6
0 -11 5 -11 10 0 6 2 10 4 10 3 0 8 -4 11 -10z m-75 -50 c-12 -22 -41 -26 -72
-9 -28 15 -7 29 45 29 35 0 37 -2 27 -20z m80 -1 c0 -14 -27 -22 -46 -15 -13
5 -14 9 -5 20 12 15 51 10 51 -5z m-459 -65 c24 -69 24 -76 -8 -72 -24 3 -31
11 -47 60 -10 32 -15 65 -12 74 11 28 48 -6 67 -62z m343 11 c-4 -8 -17 -15
-30 -15 -28 0 -32 16 -6 23 33 9 41 7 36 -8z m106 0 c0 -11 -12 -15 -45 -15
-35 0 -43 3 -39 15 4 10 20 15 45 15 28 0 39 -4 39 -15z m-5 -182 c-4 -76 -8
-139 -10 -140 -2 -4 -101 14 -188 34 -56 12 -66 17 -57 29 21 25 5 39 -17 15
-13 -14 -30 -21 -44 -19 -21 3 -22 4 -6 20 9 9 17 21 17 27 0 19 -18 12 -39
-15 -20 -25 -22 -26 -46 -10 -14 9 -25 25 -25 36 0 29 -28 24 -32 -6 -2 -20
-20 -34 -93 -74 -50 -27 -93 -49 -97 -50 -5 0 -8 34 -8 75 0 56 5 86 20 115
20 39 21 40 76 40 53 0 55 -1 70 -35 8 -19 17 -35 20 -35 4 0 4 16 1 35 -5 32
-4 35 20 35 16 0 27 -7 30 -20 6 -24 12 -25 27 -6 9 11 28 11 116 0 58 -8 113
-18 122 -24 26 -15 31 -12 24 15 -4 14 0 41 8 60 14 34 17 35 66 35 l52 0 -7
-137z m-135 91 c0 -8 -5 -12 -10 -9 -6 4 -8 11 -5 16 9 14 15 11 15 -7z"/>
<path d="M570 684 c0 -8 5 -12 10 -9 6 3 10 10 10 16 0 5 -4 9 -10 9 -5 0 -10
-7 -10 -16z"/>
</g>
</svg>
