<?xml version="1.0" standalone="no"?>
<!DOCTYPE svg PUBLIC "-//W3C//DTD SVG 20010904//EN"
 "http://www.w3.org/TR/2001/REC-SVG-20010904/DTD/svg10.dtd">
<svg version="1.0" xmlns="http://www.w3.org/2000/svg"
 width="160.000000pt" height="109.000000pt" viewBox="0 0 160.000000 109.000000"
 preserveAspectRatio="xMidYMid meet">
<metadata>
Created by potrace 1.16, written by Peter Selinger 2001-2019
</metadata>
<g transform="translate(0.000000,109.000000) scale(0.100000,-0.100000)"
fill="#000000" stroke="none">
<path d="M1200 1041 c-8 -5 -41 -8 -73 -7 -31 0 -57 -3 -57 -8 0 -5 11 -19 25
-32 18 -17 25 -33 25 -60 l0 -37 -52 6 c-36 5 -59 14 -79 33 -15 14 -32 23
-38 20 -13 -8 -15 -126 -3 -126 5 0 22 6 38 14 16 8 50 18 77 21 l47 7 0 -47
0 -48 -35 6 -35 6 0 -45 c0 -49 0 -49 38 -30 15 7 68 17 118 21 l91 7 11 -44
c6 -23 14 -56 17 -71 3 -16 11 -27 17 -25 10 4 58 108 119 262 11 27 33 68 50
92 39 57 37 65 -13 62 l-43 -3 -2 -61 c-1 -33 -7 -72 -12 -86 -9 -23 -13 -24
-65 -20 -38 3 -56 1 -56 -7 0 -7 20 -11 51 -11 43 0 50 -3 45 -16 -3 -9 -6
-16 -6 -17 0 -1 -20 -1 -45 1 -28 3 -45 0 -45 -7 0 -6 18 -11 41 -11 54 0 48
-24 -7 -28 l-40 -3 -19 58 c-10 32 -19 64 -21 71 -2 6 -14 12 -26 13 -55 3
-89 7 -94 12 -16 16 10 67 47 92 21 15 39 31 39 36 0 13 -15 18 -30 10z m-30
-32 c0 -4 -7 -12 -15 -19 -11 -10 -17 -9 -29 3 -8 8 -13 16 -11 18 6 7 55 4
55 -2z m320 -27 c0 -5 -7 -17 -16 -28 -14 -17 -15 -17 -10 -1 3 10 6 23 6 28
0 5 5 9 10 9 6 0 10 -4 10 -8z m-500 -71 c0 -5 10 -13 23 -17 20 -7 19 -8 -12
-16 -39 -11 -42 -9 -34 20 5 21 23 31 23 13z m213 -41 c28 0 34 -5 50 -43 9
-23 17 -48 17 -55 0 -16 -121 -17 -137 -1 -6 6 -9 27 -6 48 7 55 12 64 29 57
9 -3 30 -6 47 -6z m-123 -120 c0 -5 -5 -10 -11 -10 -5 0 -7 5 -4 10 3 6 8 10
11 10 2 0 4 -4 4 -10z m290 -24 c0 -20 -14 -33 -31 -29 -28 8 -24 33 6 33 14
0 25 -2 25 -4z m-20 -55 c0 -6 -4 -13 -10 -16 -5 -3 -10 1 -10 9 0 9 5 16 10
16 6 0 10 -4 10 -9z"/>
<path d="M197 1028 c-26 -9 -28 -13 -22 -49 6 -35 5 -39 -14 -39 -12 0 -30 6
-41 13 -25 15 -40 -2 -40 -47 0 -23 3 -27 18 -21 9 5 32 10 50 13 l32 4 0 -51
c0 -67 18 -66 22 2 l3 52 165 0 165 0 -3 -25 c-4 -39 -15 -42 -96 -35 -71 7
-76 9 -76 31 0 31 -11 30 -40 -1 l-23 -24 37 -53 c40 -59 43 -68 20 -68 -9 0
-14 -7 -12 -17 2 -13 11 -17 31 -15 19 3 27 -1 27 -12 0 -12 -10 -16 -35 -16
-24 0 -35 -5 -35 -14 0 -22 14 -26 48 -17 24 7 34 6 44 -6 12 -14 3 -15 -82
-11 -52 3 -102 9 -111 12 -12 5 -18 0 -22 -21 -7 -34 5 -48 29 -35 11 5 62 12
114 15 52 4 96 6 96 7 1 0 5 12 9 27 3 16 40 103 81 194 77 174 86 204 57 195
-10 -3 -30 1 -45 8 -25 13 -28 13 -33 -6 -8 -25 3 -37 15 -18 7 11 10 7 10
-17 0 -25 -4 -31 -15 -27 -10 4 -15 0 -15 -10 0 -15 -17 -16 -152 -14 -146 3
-153 4 -150 23 2 11 13 32 23 46 30 42 22 48 -34 27z m378 -65 c-10 -42 -22
-47 -17 -8 2 19 9 35 14 35 6 0 7 -11 3 -27z m-445 -43 c0 -5 -4 -10 -10 -10
-5 0 -10 5 -10 10 0 6 5 10 10 10 6 0 10 -4 10 -10z m375 -102 c6 -6 -58 -157
-67 -158 -12 0 -21 44 -9 48 18 6 12 22 -9 22 -10 0 -24 9 -30 20 -12 22 -12
22 48 22 23 1 42 5 42 9 0 8 -33 13 -70 11 -20 -1 -52 17 -46 27 5 7 133 7
141 -1z"/>
<path d="M1282 889 c6 -18 128 -16 128 1 0 6 -29 10 -66 10 -45 0 -64 -4 -62
-11z"/>
<path d="M1504 716 c-3 -8 -2 -21 2 -28 5 -7 7 -21 6 -30 -2 -11 3 -18 12 -18
17 0 30 37 24 67 -4 23 -36 30 -44 9z"/>
<path d="M685 660 c-4 -6 -2 -17 4 -24 6 -7 9 -20 5 -29 -8 -22 12 -30 31 -11
23 23 16 68 -12 72 -11 2 -24 -2 -28 -8z"/>
<path d="M417 407 c-35 -18 -37 -22 -30 -51 9 -38 9 -102 0 -224 -5 -58 -4
-92 2 -92 5 0 11 17 13 37 3 36 5 38 41 41 46 4 48 16 5 31 -38 14 -23 31 19
23 19 -4 24 -1 21 9 -3 8 -15 16 -29 17 -13 2 -30 8 -36 14 -22 18 -3 28 42
21 60 -8 60 13 0 28 -71 18 -59 39 23 40 65 1 66 1 36 14 -59 26 -82 28 -87 8
-4 -16 -5 -16 -6 0 0 9 -5 17 -11 17 -5 0 -9 10 -9 23 1 16 2 18 6 5 5 -20 14
-22 29 -10 5 4 37 6 72 4 l63 -4 -6 -30 c-7 -30 -31 -87 -86 -205 -32 -68 -33
-73 -20 -73 5 0 35 53 66 117 41 83 72 131 107 166 27 27 48 50 46 52 -11 9
-88 11 -96 3 -17 -17 -122 0 -130 21 -7 17 -9 17 -45 -2z m208 -57 c-20 -23
-29 -21 -19 4 3 9 13 16 22 16 13 0 12 -3 -3 -20z"/>
<path d="M267 406 c-27 -10 -28 -13 -25 -66 l3 -55 -40 3 c-22 2 -46 9 -53 15
-16 13 -28 1 -38 -37 -7 -28 -6 -29 22 -22 16 3 46 9 67 13 l37 6 0 -48 0 -47
-72 4 -73 3 -3 -32 c-4 -37 7 -41 50 -19 15 8 42 16 60 18 l33 3 -3 -48 c-5
-63 15 -62 24 1 l6 48 53 -4 c76 -6 81 15 5 24 -57 6 -60 8 -60 34 0 53 8 60
69 60 40 0 52 3 41 10 -8 5 -34 10 -57 10 -24 0 -43 2 -43 5 0 2 9 30 21 61
23 62 18 76 -24 60z m12 -33 c0 -5 -4 -17 -9 -28 -8 -18 -9 -17 -9 8 -1 15 4
27 9 27 6 0 10 -3 9 -7z m-139 -217 c0 -3 -4 -8 -10 -11 -5 -3 -10 -1 -10 4 0
6 5 11 10 11 6 0 10 -2 10 -4z"/>
<path d="M654 135 c-8 -20 4 -35 27 -35 14 0 19 7 19 25 0 18 -5 25 -20 25
-11 0 -23 -7 -26 -15z"/>
<path d="M98 3 c56 -2 148 -2 205 0 56 1 10 3 -103 3 -113 0 -159 -2 -102 -3z"/>
<path d="M418 3 c7 -3 16 -2 19 1 4 3 -2 6 -13 5 -11 0 -14 -3 -6 -6z"/>
</g>
</svg>
