<?xml version="1.0" standalone="no"?>
<!DOCTYPE svg PUBLIC "-//W3C//DTD SVG 20010904//EN"
 "http://www.w3.org/TR/2001/REC-SVG-20010904/DTD/svg10.dtd">
<svg version="1.0" xmlns="http://www.w3.org/2000/svg"
 width="140.000000pt" height="184.000000pt" viewBox="0 0 140.000000 184.000000"
 preserveAspectRatio="xMidYMid meet">
<metadata>
Created by potrace 1.16, written by Peter Selinger 2001-2019
</metadata>
<g transform="translate(0.000000,184.000000) scale(0.100000,-0.100000)"
fill="#000000" stroke="none">
<path d="M981 1768 c-36 -42 -36 -41 12 -69 9 -5 17 -15 17 -21 0 -21 -70
-124 -128 -188 -52 -57 -61 -63 -75 -51 -14 11 -18 11 -24 -5 -3 -11 -15 -31
-25 -46 -10 -14 -18 -29 -18 -32 0 -3 35 -6 78 -6 42 0 115 -7 162 -15 99 -17
100 -18 100 -7 0 4 -17 14 -37 21 -21 7 -65 23 -98 36 -33 12 -68 25 -79 29
-18 6 -18 7 0 27 39 44 208 179 223 179 22 0 101 -83 101 -105 0 -24 -93 -198
-133 -250 -17 -22 -55 -65 -84 -95 -64 -67 -87 -99 -78 -108 3 -4 40 32 82 78
42 47 127 136 190 197 62 62 113 116 113 120 0 5 -34 45 -74 90 -45 50 -93
116 -122 172 -27 50 -53 90 -59 90 -5 0 -25 -19 -44 -41z m102 -88 l21 -35
-24 18 c-14 9 -40 27 -57 40 -37 25 -40 33 -16 59 15 17 17 17 36 -14 10 -18
29 -49 40 -68z m-27 -31 c6 -10 -56 -71 -65 -64 -5 6 40 75 49 75 5 0 12 -5
16 -11z m135 -252 l-63 -62 44 82 c43 82 43 82 63 62 20 -19 19 -19 -44 -82z
m-311 -12 c34 -12 33 -12 -32 -12 -62 1 -66 2 -57 19 11 20 13 20 89 -7z"/>
<path d="M215 1747 c-55 -54 -55 -51 15 -90 l32 -17 -32 -40 c-29 -36 -97 -97
-157 -140 -11 -8 -23 -27 -27 -41 -5 -22 3 -32 64 -80 39 -30 82 -73 97 -96
15 -24 33 -43 40 -43 18 0 16 7 -11 43 -13 18 -45 74 -70 125 -31 62 -51 91
-59 86 -7 -4 -10 -5 -7 -2 9 11 111 79 162 109 l50 30 45 -37 c50 -41 93 -85
93 -96 0 -4 -14 -31 -32 -60 -79 -133 -148 -230 -222 -311 -45 -48 -82 -96
-84 -105 -3 -16 57 42 194 188 33 36 100 103 150 148 75 70 86 86 74 95 -46
36 -133 165 -226 334 -16 29 -31 52 -34 51 -3 -1 -27 -23 -55 -51z m109 -85
l53 -90 -83 66 -84 66 27 28 c14 15 28 26 30 24 2 -2 28 -44 57 -94z m-34 -48
c0 -9 -32 -33 -44 -34 -5 0 -1 9 9 20 18 20 35 26 35 14z m201 -195 c10 -19 4
-28 -56 -87 -37 -36 -66 -61 -64 -56 13 30 95 163 101 164 4 0 12 -10 19 -21z
m-353 -44 c19 -40 20 -45 5 -36 -30 16 -65 59 -58 70 13 22 32 10 53 -34z"/>
<path d="M616 1202 c-7 -12 5 -82 14 -82 16 0 31 30 28 57 -3 27 -30 44 -42
25z"/>
<path d="M1313 1188 c-13 -17 -9 -71 5 -76 15 -5 34 45 27 69 -7 22 -19 24
-32 7z"/>
<path d="M368 914 c-27 -25 -48 -50 -48 -55 0 -5 9 -14 20 -21 35 -22 22 -131
-30 -257 -26 -64 -35 -71 -70 -57 -12 5 -22 -6 -38 -39 -24 -49 -23 -50 26
-36 31 9 33 9 26 -12 -4 -11 -20 -50 -36 -86 -19 -43 -25 -68 -19 -74 7 -7 14
0 21 19 47 126 67 165 85 170 31 8 295 20 295 13 0 -12 -91 -173 -117 -208
-15 -20 -60 -75 -100 -123 -69 -81 -85 -108 -64 -108 4 0 53 55 108 122 102
126 188 222 257 289 44 44 44 65 -1 116 -15 18 -46 58 -68 89 -22 31 -52 72
-67 90 -14 19 -47 75 -73 124 -25 50 -49 90 -53 90 -4 0 -28 -21 -54 -46z m88
-61 c21 -38 46 -80 56 -95 11 -16 17 -28 13 -28 -8 0 -115 78 -147 108 l-28
26 33 27 c17 16 33 28 34 29 1 0 19 -30 39 -67z m-48 -74 c1 -8 -4 -23 -12
-34 -15 -19 -15 -18 -16 18 0 27 4 37 13 35 6 -3 13 -11 15 -19z m90 -59 c69
-45 142 -126 142 -156 0 -49 -15 -54 -178 -61 -118 -5 -152 -3 -152 6 0 32
109 251 124 251 3 0 31 -18 64 -40z m187 -194 c15 -22 13 -25 -50 -90 -36 -36
-65 -63 -65 -58 0 4 4 12 9 18 5 5 26 42 46 82 20 39 38 72 40 72 3 0 11 -11
20 -24z m-427 -35 c10 -6 9 -10 -7 -14 -14 -3 -21 0 -21 9 0 16 9 18 28 5z"/>
<path d="M810 460 c0 -27 3 -31 23 -28 16 2 22 10 22 28 0 18 -6 26 -22 28
-20 3 -23 -1 -23 -28z"/>
</g>
</svg>
