<?xml version="1.0" standalone="no"?>
<!DOCTYPE svg PUBLIC "-//W3C//DTD SVG 20010904//EN"
 "http://www.w3.org/TR/2001/REC-SVG-20010904/DTD/svg10.dtd">
<svg version="1.0" xmlns="http://www.w3.org/2000/svg"
 width="121.000000pt" height="83.000000pt" viewBox="0 0 121.000000 83.000000"
 preserveAspectRatio="xMidYMid meet">
<metadata>
Created by potrace 1.16, written by Peter Selinger 2001-2019
</metadata>
<g transform="translate(0.000000,83.000000) scale(0.100000,-0.100000)"
fill="#000000" stroke="none">
<path d="M83 755 c-13 -19 -23 -39 -23 -43 0 -5 19 -23 43 -40 23 -18 57 -45
75 -61 l34 -29 -17 -33 c-10 -18 -44 -70 -77 -115 -33 -45 -61 -86 -62 -90 0
-4 14 -12 32 -18 38 -13 161 -102 169 -122 3 -8 -14 -47 -36 -89 -59 -106 -29
-95 38 15 30 49 83 124 118 167 34 43 63 82 63 87 0 4 -56 63 -124 130 -102
99 -130 133 -155 187 -17 36 -31 71 -31 77 0 24 -26 11 -47 -23z m65 -81 c-2
-1 -17 7 -33 20 -26 21 -28 26 -15 41 13 15 15 13 33 -20 10 -20 17 -39 15
-41z m92 -123 c0 -5 -7 -14 -15 -21 -16 -14 -18 -10 -9 14 6 17 24 22 24 7z
m76 -67 c30 -25 54 -50 54 -56 0 -5 -22 -54 -49 -109 l-50 -99 -75 74 c-42 41
-76 82 -76 90 0 14 126 146 138 146 3 0 29 -21 58 -46z m54 -160 c-22 -29 -43
-54 -45 -54 -3 0 11 32 31 72 30 59 38 69 46 54 7 -13 1 -29 -32 -72z m-254
19 c-7 -7 -26 7 -26 19 0 6 6 6 15 -2 9 -7 13 -15 11 -17z"/>
<path d="M833 703 c-12 -35 -36 -53 -69 -53 -32 0 -33 0 -26 -37 4 -21 7 -54
7 -73 l0 -35 -75 3 c-90 3 -130 10 -149 26 -12 9 -13 -1 -7 -74 4 -47 10 -112
12 -144 2 -33 6 -61 8 -63 2 -3 15 1 28 9 12 7 56 17 97 23 73 11 73 11 82
-13 7 -18 6 -29 -4 -41 -12 -13 -12 -22 -3 -50 7 -19 17 -36 23 -38 5 -2 27
22 48 54 40 60 105 129 192 200 l50 43 6 -36 c3 -20 3 -80 0 -135 -8 -123 12
-138 22 -17 4 46 15 128 25 183 10 55 17 101 15 103 -1 2 -18 5 -38 9 l-35 5
1 -47 c2 -36 -2 -50 -16 -59 -16 -9 -24 -5 -53 29 -43 50 -114 186 -114 220 0
29 -18 34 -27 8z m39 -97 c9 -16 6 -16 -19 5 -17 13 -28 30 -25 38 5 14 20 0
44 -43z m-93 12 c-1 -7 -5 -24 -9 -38 -7 -22 -8 -21 -9 13 -1 20 4 37 9 37 6
0 10 -6 9 -12z m150 -123 c60 -74 62 -79 45 -92 -18 -13 -81 -64 -108 -88 -7
-5 -23 -16 -36 -24 -14 -8 -35 -21 -48 -29 l-23 -15 5 49 c3 27 11 101 16 164
6 63 14 125 17 138 l5 23 32 -24 c17 -13 60 -59 95 -102z m153 -22 l-10 -38
-1 50 c-1 36 2 46 10 38 8 -8 8 -22 1 -50z m-518 18 c3 -5 -3 -11 -14 -14 -13
-3 -20 0 -20 9 0 15 26 19 34 5z m186 -61 l0 -60 -95 0 c-64 0 -95 4 -95 11 0
26 36 38 110 39 52 0 70 3 60 10 -8 5 -47 10 -87 10 -74 0 -105 15 -56 26 15
3 42 10 58 14 17 5 47 9 68 9 l37 1 0 -60z m-185 -10 c-3 -5 -10 -10 -16 -10
-5 0 -9 5 -9 10 0 6 7 10 16 10 8 0 12 -4 9 -10z m7 -69 c2 -4 41 -5 87 -2 65
5 84 4 89 -7 8 -23 -14 -34 -81 -39 -57 -5 -67 -3 -86 16 -12 12 -26 19 -31
16 -6 -4 -10 1 -10 9 0 17 26 22 32 7z m-2 -61 c0 -5 -4 -10 -10 -10 -5 0 -10
5 -10 10 0 6 5 10 10 10 6 0 10 -4 10 -10z m222 -74 c-29 -33 -42 -36 -42 -10
0 12 61 54 69 48 2 -2 -10 -19 -27 -38z"/>
</g>
</svg>
