<?xml version="1.0" standalone="no"?>
<!DOCTYPE svg PUBLIC "-//W3C//DTD SVG 20010904//EN"
 "http://www.w3.org/TR/2001/REC-SVG-20010904/DTD/svg10.dtd">
<svg version="1.0" xmlns="http://www.w3.org/2000/svg"
 width="113.000000pt" height="67.000000pt" viewBox="0 0 113.000000 67.000000"
 preserveAspectRatio="xMidYMid meet">
<metadata>
Created by potrace 1.16, written by Peter Selinger 2001-2019
</metadata>
<g transform="translate(0.000000,67.000000) scale(0.100000,-0.100000)"
fill="#000000" stroke="none">
<path d="M531 575 c-21 -41 -22 -45 -7 -60 9 -9 20 -25 26 -35 8 -15 4 -18
-38 -24 -113 -14 -330 -27 -365 -22 -36 6 -38 5 -35 -16 3 -20 -2 -23 -30 -26
-30 -3 -33 -6 -26 -25 4 -12 10 -64 13 -116 5 -85 8 -95 28 -102 15 -5 25 -4
30 5 18 28 106 77 209 115 104 38 110 39 134 24 31 -21 44 -37 72 -91 18 -35
20 -47 10 -62 -7 -11 -12 -22 -12 -25 0 -10 24 -5 39 9 21 19 115 33 271 41
120 7 124 6 110 -12 -8 -10 -23 -24 -32 -31 -10 -7 -18 -19 -18 -25 1 -13 34
-57 44 -57 3 0 10 19 16 43 6 23 20 54 31 69 17 25 18 30 5 50 -15 23 -28 81
-30 131 -1 37 -9 37 -41 -1 l-28 -33 20 -22 c19 -21 43 -60 43 -70 0 -4 -205
60 -265 82 -16 7 -12 12 30 36 28 16 76 46 107 67 31 21 60 38 63 38 3 0 -5
-15 -19 -32 -24 -33 -24 -33 -5 -56 23 -29 35 -23 42 24 3 20 13 45 22 54 15
17 15 22 -4 65 -11 25 -23 61 -27 81 -9 48 -19 50 -43 8 -27 -45 -27 -45 9
-69 16 -11 30 -23 30 -26 0 -10 -302 -31 -312 -21 -13 13 -27 79 -28 125 0 20
-3 37 -8 37 -4 0 -18 -20 -31 -45z m369 -46 c0 -6 -4 -7 -10 -4 -5 3 -10 11
-10 16 0 6 5 7 10 4 6 -3 10 -11 10 -16z m-55 -104 c-16 -14 -69 -48 -118 -77
-48 -28 -86 -56 -84 -61 1 -5 36 -19 77 -32 41 -12 102 -30 135 -41 l60 -19
-95 -6 c-52 -4 -128 -7 -167 -8 l-73 -1 -30 60 c-17 34 -30 75 -30 97 0 21 -5
45 -10 53 -11 16 -11 16 -50 -39 -8 -12 -22 -21 -32 -21 -9 0 -20 -4 -23 -10
-15 -23 -25 -7 -25 40 0 56 0 56 78 64 50 5 53 4 63 -20 9 -25 10 -25 34 -10
31 21 30 21 45 -14 7 -16 17 -30 22 -30 6 0 7 8 3 18 -18 43 -17 51 6 57 19 4
151 18 229 23 9 1 2 -9 -15 -23z m-675 -19 c0 -2 -7 -6 -15 -10 -8 -3 -15 -1
-15 4 0 6 7 10 15 10 8 0 15 -2 15 -4z m120 -6 c0 -5 -4 -10 -10 -10 -5 0 -10
5 -10 10 0 6 5 10 10 10 6 0 10 -4 10 -10z m19 -114 c-9 -8 -10 -2 -5 29 3 22
7 54 8 70 1 17 3 3 5 -29 3 -37 0 -63 -8 -70z m51 69 c0 -30 -4 -55 -10 -55
-5 0 -10 25 -10 55 0 30 5 55 10 55 6 0 10 -25 10 -55z m-160 -35 c0 -38 -3
-70 -7 -70 -5 0 -7 19 -6 42 1 24 2 55 2 71 1 15 3 27 6 27 3 0 5 -31 5 -70z
m-36 -2 c-1 -35 -3 -66 -3 -70 -1 -5 -12 -8 -26 -8 -21 0 -25 -5 -26 -32 -1
-33 -1 -33 -11 7 -5 22 -6 59 -3 83 5 34 13 47 38 63 18 10 32 19 33 19 0 0
-1 -28 -2 -62z m121 6 c0 -24 -3 -44 -7 -44 -5 0 -8 23 -8 52 0 28 3 48 8 44
4 -4 7 -28 7 -52z m-33 -6 c3 -27 2 -48 -3 -48 -5 0 -9 23 -9 52 0 62 5 60 12
-4z m248 7 c0 -8 -4 -15 -10 -15 -5 0 -10 7 -10 15 0 8 5 15 10 15 6 0 10 -7
10 -15z"/>
</g>
</svg>
