<?xml version="1.0" standalone="no"?>
<!DOCTYPE svg PUBLIC "-//W3C//DTD SVG 20010904//EN"
 "http://www.w3.org/TR/2001/REC-SVG-20010904/DTD/svg10.dtd">
<svg version="1.0" xmlns="http://www.w3.org/2000/svg"
 width="115.000000pt" height="109.000000pt" viewBox="0 0 115.000000 109.000000"
 preserveAspectRatio="xMidYMid meet">
<metadata>
Created by potrace 1.16, written by Peter Selinger 2001-2019
</metadata>
<g transform="translate(0.000000,109.000000) scale(0.100000,-0.100000)"
fill="#000000" stroke="none">
<path d="M394 1058 c-6 -7 -18 -32 -27 -56 l-16 -43 45 -44 c24 -25 44 -53 44
-63 0 -10 -25 -50 -55 -89 -30 -39 -55 -73 -55 -76 0 -9 60 -36 64 -29 2 4 11
32 21 62 10 30 26 70 37 88 19 32 20 35 4 70 -9 20 -24 72 -34 115 -13 57 -21
75 -28 65z m14 -90 c6 -21 7 -38 3 -38 -14 0 -34 48 -27 66 8 21 12 18 24 -28z
m-15 -256 c-3 -12 -9 -22 -14 -22 -12 0 -11 7 2 32 13 25 20 19 12 -10z"/>
<path d="M740 1020 c-19 -16 -41 -30 -47 -30 -7 0 -13 -10 -13 -22 0 -23 -1
-23 -101 -18 -56 3 -103 2 -105 -2 -3 -4 -1 -34 5 -65 5 -32 12 -78 15 -102 3
-24 8 -47 11 -49 3 -3 29 2 58 10 28 9 73 19 100 23 l47 6 0 -35 c0 -19 -6
-36 -12 -38 -8 -3 -2 -14 17 -31 31 -28 45 -33 45 -18 0 23 167 191 191 191 3
0 15 -32 25 -71 11 -38 23 -71 28 -72 5 -1 8 32 7 75 -1 42 3 95 9 117 6 23 8
46 5 51 -9 14 -85 -41 -85 -61 0 -17 -30 -49 -30 -33 0 5 -16 26 -34 48 -19
21 -47 65 -63 97 -15 32 -30 58 -33 58 -3 0 -21 -13 -40 -29z m44 -26 c4 -10
1 -14 -6 -12 -15 5 -23 28 -10 28 5 0 13 -7 16 -16z m59 -94 c70 -69 72 -64
-37 -140 l-71 -50 -7 48 c-6 45 0 199 9 215 7 12 42 -12 106 -73z m-136 38
c-3 -7 -5 -2 -5 12 0 14 2 19 5 13 2 -7 2 -19 0 -25z m-17 -38 c0 -18 -6 -19
-97 -14 -95 5 -112 8 -101 20 7 7 180 22 191 16 4 -2 7 -12 7 -22z m306 -22
c-3 -13 -6 -34 -7 -48 -1 -22 -2 -20 -11 9 -10 37 -5 61 13 61 7 0 9 -9 5 -22z
m-296 -28 c0 -18 -7 -20 -88 -20 -49 0 -92 3 -96 8 -10 10 77 30 137 31 41 1
47 -2 47 -19z m8 -51 c-2 -7 -41 -13 -103 -15 -94 -3 -98 -3 -65 10 43 18 173
21 168 5z"/>
<path d="M307 983 c-3 -5 -8 -23 -12 -41 -6 -27 -2 -38 24 -68 17 -19 31 -40
31 -46 0 -9 3 -9 11 -1 8 8 7 17 -4 34 -16 25 -32 86 -29 106 3 14 -15 27 -21
16z"/>
<path d="M181 921 c-11 -26 -10 -32 9 -51 11 -11 25 -33 31 -48 10 -25 7 -30
-37 -70 -39 -36 -46 -47 -37 -60 19 -31 39 -25 51 17 7 21 23 50 37 63 25 23
33 48 15 48 -9 0 -28 55 -32 99 -4 35 -23 36 -37 2z"/>
<path d="M250 925 c-14 -37 -14 -39 21 -90 l31 -46 -26 -33 c-14 -19 -33 -42
-42 -51 -15 -15 -15 -17 1 -35 21 -23 35 -18 35 13 0 12 11 42 25 66 l25 44
-26 54 c-14 31 -23 64 -21 74 8 30 -12 33 -23 4z"/>
<path d="M110 914 c-1 -11 -7 -30 -14 -44 -13 -23 -12 -26 22 -55 l35 -31 -39
-29 c-21 -16 -43 -32 -47 -36 -12 -9 21 -71 33 -64 6 4 10 17 10 30 0 13 14
41 32 61 30 34 31 38 19 67 -8 18 -16 46 -18 64 -6 38 -33 67 -33 37z"/>
<path d="M597 453 c-4 -3 -7 -15 -7 -26 0 -12 -11 -23 -30 -30 -16 -6 -30 -17
-30 -25 0 -9 -10 -12 -27 -10 -22 2 -29 9 -33 32 -6 38 -24 43 -38 12 -13 -29
-5 -66 14 -66 8 0 14 -4 14 -10 0 -5 -3 -9 -8 -7 -4 1 -8 -2 -10 -8 -2 -5 7
-13 20 -17 l23 -6 -22 -1 c-33 -1 -28 -21 5 -22 22 -1 23 -2 5 -6 -18 -4 -21
-9 -16 -37 5 -31 3 -34 -46 -55 -56 -23 -57 -27 -36 -55 14 -19 17 -18 66 32
28 29 56 52 62 52 7 0 22 3 35 6 18 5 22 2 22 -19 0 -14 13 -39 29 -56 l29
-31 75 75 c42 41 80 75 85 75 5 0 18 -28 30 -62 29 -91 43 -82 48 35 4 105 1
111 -43 77 -14 -11 -31 -20 -38 -20 -16 0 -120 112 -140 151 -15 29 -26 35
-38 22z m28 -53 c3 -5 1 -10 -4 -10 -6 0 -11 5 -11 10 0 6 2 10 4 10 3 0 8 -4
11 -10z m73 -93 l54 -41 -24 -18 c-37 -28 -139 -80 -145 -74 -9 9 -9 180 0
194 10 15 27 6 115 -61z m-157 7 c12 -31 10 -54 -6 -54 -9 0 -12 6 -9 15 4 8
1 15 -6 15 -7 0 -10 7 -6 15 3 9 0 15 -9 15 -8 0 -15 4 -15 8 0 17 44 5 51
-14z m286 -81 c-4 -17 -4 -17 -12 0 -4 9 -4 25 0 35 8 16 8 16 12 0 3 -10 3
-26 0 -35z m-187 -78 c-7 -8 -18 -15 -24 -15 -6 0 -2 7 8 15 25 19 32 19 16 0z"/>
<path d="M361 358 c-9 -32 -9 -32 -10 -5 -1 36 -16 34 -32 -5 -10 -25 -10 -33
-1 -36 13 -4 42 -53 42 -70 0 -6 -20 -16 -45 -23 -48 -14 -66 -47 -20 -35 19
5 23 3 19 -9 -4 -8 -2 -15 4 -15 18 0 122 51 122 61 0 15 -27 10 -65 -12 -20
-12 -38 -20 -40 -17 -3 2 18 15 45 29 52 25 67 44 27 34 -18 -5 -26 -1 -35 20
-17 38 -15 47 10 40 17 -6 20 -4 15 10 -4 9 -7 28 -7 41 0 35 -18 30 -29 -8z"/>
<path d="M261 340 c-21 -40 -21 -40 -1 -52 27 -17 25 -27 -5 -38 -32 -12 -34
-35 -2 -25 12 4 32 7 45 7 23 0 32 31 12 43 -5 3 -10 26 -10 50 0 58 -13 64
-39 15z"/>
<path d="M400 291 c0 -5 5 -13 10 -16 6 -3 10 -2 10 4 0 5 -4 13 -10 16 -5 3
-10 2 -10 -4z"/>
<path d="M1133 194 c-3 -8 -1 -20 6 -27 8 -8 11 -4 11 16 0 30 -7 35 -17 11z"/>
</g>
</svg>
